<?xml version="1.0" encoding="UTF-8" standalone="no"?>
<!DOCTYPE svg PUBLIC "-//W3C//DTD SVG 1.1//EN"
 "http://www.w3.org/Graphics/SVG/1.1/DTD/svg11.dtd">
<!-- Generated by graphviz version 2.38.0 (20140413.2041)
 -->
<!-- Title: %3 Pages: 1 -->
<svg width="303pt" height="332pt"
 viewBox="0.00 0.00 303.19 332.00" xmlns="http://www.w3.org/2000/svg" xmlns:xlink="http://www.w3.org/1999/xlink">
<g id="graph0" class="graph" transform="scale(1 1) rotate(0) translate(4 328)">
<title>%3</title>
<polygon fill="white" stroke="none" points="-4,4 -4,-328 299.191,-328 299.191,4 -4,4"/>
<!-- Load0 -->
<g id="node1" class="node"><title>Load0</title>
<ellipse fill="none" stroke="black" cx="152.696" cy="-234" rx="33.2948" ry="18"/>
<text text-anchor="middle" x="152.696" y="-230.3" font-family="Times,serif" font-size="14.00">Load0</text>
</g>
<!-- Load1 -->
<g id="node2" class="node"><title>Load1</title>
<ellipse fill="none" stroke="black" cx="152.696" cy="-162" rx="33.2948" ry="18"/>
<text text-anchor="middle" x="152.696" y="-158.3" font-family="Times,serif" font-size="14.00">Load1</text>
</g>
<!-- Load0&#45;&gt;Load1 -->
<g id="edge1" class="edge"><title>Load0&#45;&gt;Load1</title>
<path fill="none" stroke="black" d="M152.696,-215.697C152.696,-207.983 152.696,-198.712 152.696,-190.112"/>
<polygon fill="black" stroke="black" points="156.196,-190.104 152.696,-180.104 149.196,-190.104 156.196,-190.104"/>
</g>
<!-- Value1: 0 -->
<g id="node3" class="node"><title>Value1: 0</title>
<ellipse fill="none" stroke="black" cx="249.696" cy="-162" rx="45.4919" ry="18"/>
<text text-anchor="middle" x="249.696" y="-158.3" font-family="Times,serif" font-size="14.00">Value1: 0</text>
</g>
<!-- Load0&#45;&gt;Value1: 0 -->
<g id="edge2" class="edge"><title>Load0&#45;&gt;Value1: 0</title>
<path fill="none" stroke="black" d="M171.86,-219.17C185.742,-209.152 204.761,-195.427 220.524,-184.052"/>
<polygon fill="black" stroke="black" points="222.831,-186.703 228.892,-178.013 218.735,-181.026 222.831,-186.703"/>
</g>
<!-- Temp2 -->
<g id="node6" class="node"><title>Temp2</title>
<ellipse fill="none" stroke="black" cx="102.696" cy="-90" rx="36.2938" ry="18"/>
<text text-anchor="middle" x="102.696" y="-86.3" font-family="Times,serif" font-size="14.00">Temp2</text>
</g>
<!-- Load1&#45;&gt;Temp2 -->
<g id="edge7" class="edge"><title>Load1&#45;&gt;Temp2</title>
<path fill="none" stroke="black" d="M141.099,-144.765C134.851,-136.018 127.018,-125.052 120.059,-115.308"/>
<polygon fill="black" stroke="black" points="122.89,-113.25 114.229,-107.147 117.194,-117.319 122.89,-113.25"/>
</g>
<!-- Value0: 0 -->
<g id="node9" class="node"><title>Value0: 0</title>
<ellipse fill="none" stroke="black" cx="202.696" cy="-90" rx="45.4919" ry="18"/>
<text text-anchor="middle" x="202.696" y="-86.3" font-family="Times,serif" font-size="14.00">Value0: 0</text>
</g>
<!-- Load1&#45;&gt;Value0: 0 -->
<g id="edge8" class="edge"><title>Load1&#45;&gt;Value0: 0</title>
<path fill="none" stroke="black" d="M164.292,-144.765C170.388,-136.23 177.994,-125.582 184.825,-116.019"/>
<polygon fill="black" stroke="black" points="187.85,-117.805 190.815,-107.633 182.154,-113.736 187.85,-117.805"/>
</g>
<!-- Temp0 -->
<g id="node4" class="node"><title>Temp0</title>
<ellipse fill="none" stroke="black" cx="57.6955" cy="-234" rx="36.2938" ry="18"/>
<text text-anchor="middle" x="57.6955" y="-230.3" font-family="Times,serif" font-size="14.00">Temp0</text>
</g>
<!-- Temp1: T3 -->
<g id="node5" class="node"><title>Temp1: T3</title>
<ellipse fill="none" stroke="black" cx="50.6955" cy="-162" rx="50.8918" ry="18"/>
<text text-anchor="middle" x="50.6955" y="-158.3" font-family="Times,serif" font-size="14.00">Temp1: T3</text>
</g>
<!-- Temp0&#45;&gt;Temp1: T3 -->
<g id="edge3" class="edge"><title>Temp0&#45;&gt;Temp1: T3</title>
<path fill="none" stroke="black" d="M55.9652,-215.697C55.1938,-207.983 54.2667,-198.712 53.4067,-190.112"/>
<polygon fill="black" stroke="black" points="56.8837,-189.706 52.4059,-180.104 49.9184,-190.403 56.8837,-189.706"/>
</g>
<!-- Temp3: $fp -->
<g id="node7" class="node"><title>Temp3: $fp</title>
<ellipse fill="none" stroke="black" cx="102.696" cy="-18" rx="52.7911" ry="18"/>
<text text-anchor="middle" x="102.696" y="-14.3" font-family="Times,serif" font-size="14.00">Temp3: $fp</text>
</g>
<!-- Temp2&#45;&gt;Temp3: $fp -->
<g id="edge4" class="edge"><title>Temp2&#45;&gt;Temp3: $fp</title>
<path fill="none" stroke="black" d="M102.696,-71.6966C102.696,-63.9827 102.696,-54.7125 102.696,-46.1124"/>
<polygon fill="black" stroke="black" points="106.196,-46.1043 102.696,-36.1043 99.1956,-46.1044 106.196,-46.1043"/>
</g>
<!-- MoveRegister0 -->
<g id="node8" class="node"><title>MoveRegister0</title>
<ellipse fill="none" stroke="black" cx="104.696" cy="-306" rx="65.7887" ry="18"/>
<text text-anchor="middle" x="104.696" y="-302.3" font-family="Times,serif" font-size="14.00">MoveRegister0</text>
</g>
<!-- MoveRegister0&#45;&gt;Load0 -->
<g id="edge6" class="edge"><title>MoveRegister0&#45;&gt;Load0</title>
<path fill="none" stroke="black" d="M116.315,-288.055C122.178,-279.505 129.398,-268.975 135.857,-259.556"/>
<polygon fill="black" stroke="black" points="138.745,-261.534 141.514,-251.307 132.972,-257.575 138.745,-261.534"/>
</g>
<!-- MoveRegister0&#45;&gt;Temp0 -->
<g id="edge5" class="edge"><title>MoveRegister0&#45;&gt;Temp0</title>
<path fill="none" stroke="black" d="M93.3181,-288.055C87.6359,-279.592 80.6514,-269.19 74.377,-259.845"/>
<polygon fill="black" stroke="black" points="77.1247,-257.658 68.6445,-251.307 71.3131,-261.56 77.1247,-257.658"/>
</g>
</g>
</svg>
