<?xml version="1.0" encoding="UTF-8" standalone="no"?>
<!DOCTYPE svg PUBLIC "-//W3C//DTD SVG 1.1//EN"
 "http://www.w3.org/Graphics/SVG/1.1/DTD/svg11.dtd">
<!-- Generated by graphviz version 2.38.0 (20140413.2041)
 -->
<!-- Title: %3 Pages: 1 -->
<svg width="1912pt" height="404pt"
 viewBox="0.00 0.00 1911.99 404.00" xmlns="http://www.w3.org/2000/svg" xmlns:xlink="http://www.w3.org/1999/xlink">
<g id="graph0" class="graph" transform="scale(1 1) rotate(0) translate(4 400)">
<title>%3</title>
<polygon fill="white" stroke="none" points="-4,4 -4,-400 1907.99,-400 1907.99,4 -4,4"/>
<!-- ExpList0 -->
<g id="node1" class="node"><title>ExpList0</title>
<ellipse fill="none" stroke="black" cx="1531.05" cy="-162" rx="42.7926" ry="18"/>
<text text-anchor="middle" x="1531.05" y="-158.3" font-family="Times,serif" font-size="14.00">ExpList0</text>
</g>
<!-- ExpTemp9 -->
<g id="node2" class="node"><title>ExpTemp9</title>
<ellipse fill="none" stroke="black" cx="1539.05" cy="-90" rx="50.0912" ry="18"/>
<text text-anchor="middle" x="1539.05" y="-86.3" font-family="Times,serif" font-size="14.00">ExpTemp9</text>
</g>
<!-- ExpList0&#45;&gt;ExpTemp9 -->
<g id="edge1" class="edge"><title>ExpList0&#45;&gt;ExpTemp9</title>
<path fill="none" stroke="black" d="M1533.02,-143.697C1533.9,-135.983 1534.96,-126.712 1535.95,-118.112"/>
<polygon fill="black" stroke="black" points="1539.43,-118.437 1537.09,-108.104 1532.48,-117.642 1539.43,-118.437"/>
</g>
<!-- Temp9: T184 -->
<g id="node3" class="node"><title>Temp9: T184</title>
<ellipse fill="none" stroke="black" cx="1539.05" cy="-18" rx="59.5901" ry="18"/>
<text text-anchor="middle" x="1539.05" y="-14.3" font-family="Times,serif" font-size="14.00">Temp9: T184</text>
</g>
<!-- ExpTemp9&#45;&gt;Temp9: T184 -->
<g id="edge2" class="edge"><title>ExpTemp9&#45;&gt;Temp9: T184</title>
<path fill="none" stroke="black" d="M1539.05,-71.6966C1539.05,-63.9827 1539.05,-54.7125 1539.05,-46.1124"/>
<polygon fill="black" stroke="black" points="1542.55,-46.1043 1539.05,-36.1043 1535.55,-46.1044 1542.55,-46.1043"/>
</g>
<!-- StatJump0 -->
<g id="node4" class="node"><title>StatJump0</title>
<ellipse fill="none" stroke="black" cx="1781.05" cy="-306" rx="48.1917" ry="18"/>
<text text-anchor="middle" x="1781.05" y="-302.3" font-family="Times,serif" font-size="14.00">StatJump0</text>
</g>
<!-- Label2: L11 -->
<g id="node5" class="node"><title>Label2: L11</title>
<ellipse fill="none" stroke="black" cx="1850.05" cy="-234" rx="53.8905" ry="18"/>
<text text-anchor="middle" x="1850.05" y="-230.3" font-family="Times,serif" font-size="14.00">Label2: L11</text>
</g>
<!-- StatJump0&#45;&gt;Label2: L11 -->
<g id="edge3" class="edge"><title>StatJump0&#45;&gt;Label2: L11</title>
<path fill="none" stroke="black" d="M1797.05,-288.765C1805.8,-279.882 1816.82,-268.709 1826.53,-258.854"/>
<polygon fill="black" stroke="black" points="1829.12,-261.212 1833.65,-251.633 1824.14,-256.298 1829.12,-261.212"/>
</g>
<!-- ExpCall0 -->
<g id="node6" class="node"><title>ExpCall0</title>
<ellipse fill="none" stroke="black" cx="1420.05" cy="-234" rx="44.393" ry="18"/>
<text text-anchor="middle" x="1420.05" y="-230.3" font-family="Times,serif" font-size="14.00">ExpCall0</text>
</g>
<!-- ExpCall0&#45;&gt;ExpList0 -->
<g id="edge5" class="edge"><title>ExpCall0&#45;&gt;ExpList0</title>
<path fill="none" stroke="black" d="M1443.04,-218.496C1459.27,-208.266 1481.21,-194.428 1499.13,-183.13"/>
<polygon fill="black" stroke="black" points="1501.48,-185.78 1508.08,-177.485 1497.75,-179.859 1501.48,-185.78"/>
</g>
<!-- ExpTemp8 -->
<g id="node7" class="node"><title>ExpTemp8</title>
<ellipse fill="none" stroke="black" cx="1420.05" cy="-162" rx="50.0912" ry="18"/>
<text text-anchor="middle" x="1420.05" y="-158.3" font-family="Times,serif" font-size="14.00">ExpTemp8</text>
</g>
<!-- ExpCall0&#45;&gt;ExpTemp8 -->
<g id="edge4" class="edge"><title>ExpCall0&#45;&gt;ExpTemp8</title>
<path fill="none" stroke="black" d="M1420.05,-215.697C1420.05,-207.983 1420.05,-198.712 1420.05,-190.112"/>
<polygon fill="black" stroke="black" points="1423.55,-190.104 1420.05,-180.104 1416.55,-190.104 1423.55,-190.104"/>
</g>
<!-- Temp8: T183 -->
<g id="node8" class="node"><title>Temp8: T183</title>
<ellipse fill="none" stroke="black" cx="1411.05" cy="-90" rx="59.5901" ry="18"/>
<text text-anchor="middle" x="1411.05" y="-86.3" font-family="Times,serif" font-size="14.00">Temp8: T183</text>
</g>
<!-- ExpTemp8&#45;&gt;Temp8: T183 -->
<g id="edge6" class="edge"><title>ExpTemp8&#45;&gt;Temp8: T183</title>
<path fill="none" stroke="black" d="M1417.82,-143.697C1416.83,-135.983 1415.64,-126.712 1414.53,-118.112"/>
<polygon fill="black" stroke="black" points="1417.99,-117.576 1413.24,-108.104 1411.05,-118.469 1417.99,-117.576"/>
</g>
<!-- StatMove1 -->
<g id="node9" class="node"><title>StatMove1</title>
<ellipse fill="none" stroke="black" cx="542.046" cy="-306" rx="50.0912" ry="18"/>
<text text-anchor="middle" x="542.046" y="-302.3" font-family="Times,serif" font-size="14.00">StatMove1</text>
</g>
<!-- ExpTemp2 -->
<g id="node10" class="node"><title>ExpTemp2</title>
<ellipse fill="none" stroke="black" cx="414.046" cy="-234" rx="50.0912" ry="18"/>
<text text-anchor="middle" x="414.046" y="-230.3" font-family="Times,serif" font-size="14.00">ExpTemp2</text>
</g>
<!-- StatMove1&#45;&gt;ExpTemp2 -->
<g id="edge7" class="edge"><title>StatMove1&#45;&gt;ExpTemp2</title>
<path fill="none" stroke="black" d="M515.834,-290.666C496.72,-280.213 470.601,-265.929 449.606,-254.447"/>
<polygon fill="black" stroke="black" points="451.115,-251.283 440.662,-249.556 447.756,-257.425 451.115,-251.283"/>
</g>
<!-- ExpTemp3 -->
<g id="node11" class="node"><title>ExpTemp3</title>
<ellipse fill="none" stroke="black" cx="542.046" cy="-234" rx="50.0912" ry="18"/>
<text text-anchor="middle" x="542.046" y="-230.3" font-family="Times,serif" font-size="14.00">ExpTemp3</text>
</g>
<!-- StatMove1&#45;&gt;ExpTemp3 -->
<g id="edge8" class="edge"><title>StatMove1&#45;&gt;ExpTemp3</title>
<path fill="none" stroke="black" d="M542.046,-287.697C542.046,-279.983 542.046,-270.712 542.046,-262.112"/>
<polygon fill="black" stroke="black" points="545.546,-262.104 542.046,-252.104 538.546,-262.104 545.546,-262.104"/>
</g>
<!-- Temp2: T185 -->
<g id="node21" class="node"><title>Temp2: T185</title>
<ellipse fill="none" stroke="black" cx="404.046" cy="-162" rx="59.5901" ry="18"/>
<text text-anchor="middle" x="404.046" y="-158.3" font-family="Times,serif" font-size="14.00">Temp2: T185</text>
</g>
<!-- ExpTemp2&#45;&gt;Temp2: T185 -->
<g id="edge16" class="edge"><title>ExpTemp2&#45;&gt;Temp2: T185</title>
<path fill="none" stroke="black" d="M411.574,-215.697C410.472,-207.983 409.147,-198.712 407.919,-190.112"/>
<polygon fill="black" stroke="black" points="411.368,-189.509 406.489,-180.104 404.439,-190.499 411.368,-189.509"/>
</g>
<!-- Temp3: T147 -->
<g id="node40" class="node"><title>Temp3: T147</title>
<ellipse fill="none" stroke="black" cx="542.046" cy="-162" rx="59.5901" ry="18"/>
<text text-anchor="middle" x="542.046" y="-158.3" font-family="Times,serif" font-size="14.00">Temp3: T147</text>
</g>
<!-- ExpTemp3&#45;&gt;Temp3: T147 -->
<g id="edge36" class="edge"><title>ExpTemp3&#45;&gt;Temp3: T147</title>
<path fill="none" stroke="black" d="M542.046,-215.697C542.046,-207.983 542.046,-198.712 542.046,-190.112"/>
<polygon fill="black" stroke="black" points="545.546,-190.104 542.046,-180.104 538.546,-190.104 545.546,-190.104"/>
</g>
<!-- StatMove5 -->
<g id="node12" class="node"><title>StatMove5</title>
<ellipse fill="none" stroke="black" cx="1596.05" cy="-306" rx="50.0912" ry="18"/>
<text text-anchor="middle" x="1596.05" y="-302.3" font-family="Times,serif" font-size="14.00">StatMove5</text>
</g>
<!-- ExpTemp10 -->
<g id="node13" class="node"><title>ExpTemp10</title>
<ellipse fill="none" stroke="black" cx="1596.05" cy="-234" rx="54.6905" ry="18"/>
<text text-anchor="middle" x="1596.05" y="-230.3" font-family="Times,serif" font-size="14.00">ExpTemp10</text>
</g>
<!-- StatMove5&#45;&gt;ExpTemp10 -->
<g id="edge9" class="edge"><title>StatMove5&#45;&gt;ExpTemp10</title>
<path fill="none" stroke="black" d="M1596.05,-287.697C1596.05,-279.983 1596.05,-270.712 1596.05,-262.112"/>
<polygon fill="black" stroke="black" points="1599.55,-262.104 1596.05,-252.104 1592.55,-262.104 1599.55,-262.104"/>
</g>
<!-- ExpTemp11 -->
<g id="node14" class="node"><title>ExpTemp11</title>
<ellipse fill="none" stroke="black" cx="1723.05" cy="-234" rx="54.6905" ry="18"/>
<text text-anchor="middle" x="1723.05" y="-230.3" font-family="Times,serif" font-size="14.00">ExpTemp11</text>
</g>
<!-- StatMove5&#45;&gt;ExpTemp11 -->
<g id="edge10" class="edge"><title>StatMove5&#45;&gt;ExpTemp11</title>
<path fill="none" stroke="black" d="M1622.36,-290.496C1641.22,-280.101 1666.84,-265.981 1687.51,-254.585"/>
<polygon fill="black" stroke="black" points="1689.26,-257.619 1696.33,-249.726 1685.88,-251.488 1689.26,-257.619"/>
</g>
<!-- Temp10: T186 -->
<g id="node20" class="node"><title>Temp10: T186</title>
<ellipse fill="none" stroke="black" cx="1656.05" cy="-162" rx="63.8893" ry="18"/>
<text text-anchor="middle" x="1656.05" y="-158.3" font-family="Times,serif" font-size="14.00">Temp10: T186</text>
</g>
<!-- ExpTemp10&#45;&gt;Temp10: T186 -->
<g id="edge15" class="edge"><title>ExpTemp10&#45;&gt;Temp10: T186</title>
<path fill="none" stroke="black" d="M1610.26,-216.411C1617.63,-207.82 1626.77,-197.159 1634.94,-187.627"/>
<polygon fill="black" stroke="black" points="1637.66,-189.827 1641.51,-179.956 1632.35,-185.271 1637.66,-189.827"/>
</g>
<!-- Temp11: T147 -->
<g id="node48" class="node"><title>Temp11: T147</title>
<ellipse fill="none" stroke="black" cx="1801.05" cy="-162" rx="63.8893" ry="18"/>
<text text-anchor="middle" x="1801.05" y="-158.3" font-family="Times,serif" font-size="14.00">Temp11: T147</text>
</g>
<!-- ExpTemp11&#45;&gt;Temp11: T147 -->
<g id="edge42" class="edge"><title>ExpTemp11&#45;&gt;Temp11: T147</title>
<path fill="none" stroke="black" d="M1741.14,-216.765C1751.2,-207.73 1763.91,-196.326 1775.03,-186.349"/>
<polygon fill="black" stroke="black" points="1777.68,-188.674 1782.78,-179.39 1773,-183.464 1777.68,-188.674"/>
</g>
<!-- ExpConst1 -->
<g id="node15" class="node"><title>ExpConst1</title>
<ellipse fill="none" stroke="black" cx="1260.05" cy="-90" rx="50.0912" ry="18"/>
<text text-anchor="middle" x="1260.05" y="-86.3" font-family="Times,serif" font-size="14.00">ExpConst1</text>
</g>
<!-- Value1: 12 -->
<g id="node16" class="node"><title>Value1: 12</title>
<ellipse fill="none" stroke="black" cx="1260.05" cy="-18" rx="50.0912" ry="18"/>
<text text-anchor="middle" x="1260.05" y="-14.3" font-family="Times,serif" font-size="14.00">Value1: 12</text>
</g>
<!-- ExpConst1&#45;&gt;Value1: 12 -->
<g id="edge11" class="edge"><title>ExpConst1&#45;&gt;Value1: 12</title>
<path fill="none" stroke="black" d="M1260.05,-71.6966C1260.05,-63.9827 1260.05,-54.7125 1260.05,-46.1124"/>
<polygon fill="black" stroke="black" points="1263.55,-46.1043 1260.05,-36.1043 1256.55,-46.1044 1263.55,-46.1043"/>
</g>
<!-- ExpBinary1 -->
<g id="node17" class="node"><title>ExpBinary1</title>
<ellipse fill="none" stroke="black" cx="1161.05" cy="-162" rx="53.0913" ry="18"/>
<text text-anchor="middle" x="1161.05" y="-158.3" font-family="Times,serif" font-size="14.00">ExpBinary1</text>
</g>
<!-- ExpBinary1&#45;&gt;ExpConst1 -->
<g id="edge14" class="edge"><title>ExpBinary1&#45;&gt;ExpConst1</title>
<path fill="none" stroke="black" d="M1183.02,-145.465C1196.83,-135.7 1214.83,-122.972 1229.95,-112.276"/>
<polygon fill="black" stroke="black" points="1232.33,-114.882 1238.48,-106.251 1228.29,-109.167 1232.33,-114.882"/>
</g>
<!-- ExpTemp6 -->
<g id="node18" class="node"><title>ExpTemp6</title>
<ellipse fill="none" stroke="black" cx="1062.05" cy="-90" rx="50.0912" ry="18"/>
<text text-anchor="middle" x="1062.05" y="-86.3" font-family="Times,serif" font-size="14.00">ExpTemp6</text>
</g>
<!-- ExpBinary1&#45;&gt;ExpTemp6 -->
<g id="edge12" class="edge"><title>ExpBinary1&#45;&gt;ExpTemp6</title>
<path fill="none" stroke="black" d="M1139.07,-145.465C1125.26,-135.7 1107.26,-122.972 1092.14,-112.276"/>
<polygon fill="black" stroke="black" points="1093.8,-109.167 1083.61,-106.251 1089.76,-114.882 1093.8,-109.167"/>
</g>
<!-- Plus1 -->
<g id="node19" class="node"><title>Plus1</title>
<ellipse fill="none" stroke="black" cx="1161.05" cy="-90" rx="30.5947" ry="18"/>
<text text-anchor="middle" x="1161.05" y="-86.3" font-family="Times,serif" font-size="14.00">Plus1</text>
</g>
<!-- ExpBinary1&#45;&gt;Plus1 -->
<g id="edge13" class="edge"><title>ExpBinary1&#45;&gt;Plus1</title>
<path fill="none" stroke="black" d="M1161.05,-143.697C1161.05,-135.983 1161.05,-126.712 1161.05,-118.112"/>
<polygon fill="black" stroke="black" points="1164.55,-118.104 1161.05,-108.104 1157.55,-118.104 1164.55,-118.104"/>
</g>
<!-- Temp6: $fp -->
<g id="node49" class="node"><title>Temp6: $fp</title>
<ellipse fill="none" stroke="black" cx="1062.05" cy="-18" rx="52.7911" ry="18"/>
<text text-anchor="middle" x="1062.05" y="-14.3" font-family="Times,serif" font-size="14.00">Temp6: $fp</text>
</g>
<!-- ExpTemp6&#45;&gt;Temp6: $fp -->
<g id="edge45" class="edge"><title>ExpTemp6&#45;&gt;Temp6: $fp</title>
<path fill="none" stroke="black" d="M1062.05,-71.6966C1062.05,-63.9827 1062.05,-54.7125 1062.05,-46.1124"/>
<polygon fill="black" stroke="black" points="1065.55,-46.1043 1062.05,-36.1043 1058.55,-46.1044 1065.55,-46.1043"/>
</g>
<!-- StatMove2 -->
<g id="node22" class="node"><title>StatMove2</title>
<ellipse fill="none" stroke="black" cx="855.046" cy="-306" rx="50.0912" ry="18"/>
<text text-anchor="middle" x="855.046" y="-302.3" font-family="Times,serif" font-size="14.00">StatMove2</text>
</g>
<!-- ExpTemp4 -->
<g id="node23" class="node"><title>ExpTemp4</title>
<ellipse fill="none" stroke="black" cx="708.046" cy="-234" rx="50.0912" ry="18"/>
<text text-anchor="middle" x="708.046" y="-230.3" font-family="Times,serif" font-size="14.00">ExpTemp4</text>
</g>
<!-- StatMove2&#45;&gt;ExpTemp4 -->
<g id="edge17" class="edge"><title>StatMove2&#45;&gt;ExpTemp4</title>
<path fill="none" stroke="black" d="M826.003,-291.17C803.151,-280.288 771.116,-265.033 746.196,-253.167"/>
<polygon fill="black" stroke="black" points="747.561,-249.94 737.028,-248.801 744.552,-256.26 747.561,-249.94"/>
</g>
<!-- ExpName0 -->
<g id="node24" class="node"><title>ExpName0</title>
<ellipse fill="none" stroke="black" cx="855.046" cy="-234" rx="50.8918" ry="18"/>
<text text-anchor="middle" x="855.046" y="-230.3" font-family="Times,serif" font-size="14.00">ExpName0</text>
</g>
<!-- StatMove2&#45;&gt;ExpName0 -->
<g id="edge18" class="edge"><title>StatMove2&#45;&gt;ExpName0</title>
<path fill="none" stroke="black" d="M855.046,-287.697C855.046,-279.983 855.046,-270.712 855.046,-262.112"/>
<polygon fill="black" stroke="black" points="858.546,-262.104 855.046,-252.104 851.546,-262.104 858.546,-262.104"/>
</g>
<!-- Temp4: T183 -->
<g id="node42" class="node"><title>Temp4: T183</title>
<ellipse fill="none" stroke="black" cx="680.046" cy="-162" rx="59.5901" ry="18"/>
<text text-anchor="middle" x="680.046" y="-158.3" font-family="Times,serif" font-size="14.00">Temp4: T183</text>
</g>
<!-- ExpTemp4&#45;&gt;Temp4: T183 -->
<g id="edge38" class="edge"><title>ExpTemp4&#45;&gt;Temp4: T183</title>
<path fill="none" stroke="black" d="M701.268,-216.055C698.116,-208.176 694.292,-198.617 690.763,-189.794"/>
<polygon fill="black" stroke="black" points="693.919,-188.26 686.956,-180.275 687.42,-190.86 693.919,-188.26"/>
</g>
<!-- Label1: Tree@GetRight -->
<g id="node41" class="node"><title>Label1: Tree@GetRight</title>
<ellipse fill="none" stroke="black" cx="855.046" cy="-162" rx="96.6831" ry="18"/>
<text text-anchor="middle" x="855.046" y="-158.3" font-family="Times,serif" font-size="14.00">Label1: Tree@GetRight</text>
</g>
<!-- ExpName0&#45;&gt;Label1: Tree@GetRight -->
<g id="edge37" class="edge"><title>ExpName0&#45;&gt;Label1: Tree@GetRight</title>
<path fill="none" stroke="black" d="M855.046,-215.697C855.046,-207.983 855.046,-198.712 855.046,-190.112"/>
<polygon fill="black" stroke="black" points="858.546,-190.104 855.046,-180.104 851.546,-190.104 858.546,-190.104"/>
</g>
<!-- ExpConst0 -->
<g id="node25" class="node"><title>ExpConst0</title>
<ellipse fill="none" stroke="black" cx="372.046" cy="-90" rx="50.0912" ry="18"/>
<text text-anchor="middle" x="372.046" y="-86.3" font-family="Times,serif" font-size="14.00">ExpConst0</text>
</g>
<!-- Value0: 12 -->
<g id="node26" class="node"><title>Value0: 12</title>
<ellipse fill="none" stroke="black" cx="372.046" cy="-18" rx="50.0912" ry="18"/>
<text text-anchor="middle" x="372.046" y="-14.3" font-family="Times,serif" font-size="14.00">Value0: 12</text>
</g>
<!-- ExpConst0&#45;&gt;Value0: 12 -->
<g id="edge19" class="edge"><title>ExpConst0&#45;&gt;Value0: 12</title>
<path fill="none" stroke="black" d="M372.046,-71.6966C372.046,-63.9827 372.046,-54.7125 372.046,-46.1124"/>
<polygon fill="black" stroke="black" points="375.546,-46.1043 372.046,-36.1043 368.546,-46.1044 375.546,-46.1043"/>
</g>
<!-- ExpMem1 -->
<g id="node27" class="node"><title>ExpMem1</title>
<ellipse fill="none" stroke="black" cx="1154.05" cy="-234" rx="48.9926" ry="18"/>
<text text-anchor="middle" x="1154.05" y="-230.3" font-family="Times,serif" font-size="14.00">ExpMem1</text>
</g>
<!-- ExpMem1&#45;&gt;ExpBinary1 -->
<g id="edge20" class="edge"><title>ExpMem1&#45;&gt;ExpBinary1</title>
<path fill="none" stroke="black" d="M1155.78,-215.697C1156.55,-207.983 1157.47,-198.712 1158.33,-190.112"/>
<polygon fill="black" stroke="black" points="1161.82,-190.403 1159.34,-180.104 1154.86,-189.706 1161.82,-190.403"/>
</g>
<!-- StatLabel0 -->
<g id="node28" class="node"><title>StatLabel0</title>
<ellipse fill="none" stroke="black" cx="109.046" cy="-306" rx="48.9926" ry="18"/>
<text text-anchor="middle" x="109.046" y="-302.3" font-family="Times,serif" font-size="14.00">StatLabel0</text>
</g>
<!-- Label0: L9 -->
<g id="node29" class="node"><title>Label0: L9</title>
<ellipse fill="none" stroke="black" cx="50.0456" cy="-234" rx="50.0912" ry="18"/>
<text text-anchor="middle" x="50.0456" y="-230.3" font-family="Times,serif" font-size="14.00">Label0: L9</text>
</g>
<!-- StatLabel0&#45;&gt;Label0: L9 -->
<g id="edge21" class="edge"><title>StatLabel0&#45;&gt;Label0: L9</title>
<path fill="none" stroke="black" d="M95.0634,-288.411C87.7157,-279.693 78.5724,-268.845 70.4492,-259.208"/>
<polygon fill="black" stroke="black" points="73.0483,-256.861 63.9274,-251.47 67.6959,-261.372 73.0483,-256.861"/>
</g>
<!-- StatList0 -->
<g id="node30" class="node"><title>StatList0</title>
<ellipse fill="none" stroke="black" cx="942.046" cy="-378" rx="42.4939" ry="18"/>
<text text-anchor="middle" x="942.046" y="-374.3" font-family="Times,serif" font-size="14.00">StatList0</text>
</g>
<!-- StatList0&#45;&gt;StatJump0 -->
<g id="edge29" class="edge"><title>StatList0&#45;&gt;StatJump0</title>
<path fill="none" stroke="black" d="M983.913,-374.767C1094.02,-368.703 1400.73,-350.584 1655.05,-324 1678.75,-321.522 1704.87,-318.111 1727.15,-314.994"/>
<polygon fill="black" stroke="black" points="1727.69,-318.453 1737.1,-313.587 1726.71,-311.522 1727.69,-318.453"/>
</g>
<!-- StatList0&#45;&gt;StatMove1 -->
<g id="edge24" class="edge"><title>StatList0&#45;&gt;StatMove1</title>
<path fill="none" stroke="black" d="M903.692,-370.288C832.08,-357.756 677.884,-330.772 595.886,-316.422"/>
<polygon fill="black" stroke="black" points="596.467,-312.971 586.013,-314.694 595.26,-319.866 596.467,-312.971"/>
</g>
<!-- StatList0&#45;&gt;StatMove5 -->
<g id="edge28" class="edge"><title>StatList0&#45;&gt;StatMove5</title>
<path fill="none" stroke="black" d="M982.463,-372.674C1094.31,-360.703 1408.23,-327.102 1538.39,-313.171"/>
<polygon fill="black" stroke="black" points="1538.98,-316.628 1548.55,-312.084 1538.23,-309.668 1538.98,-316.628"/>
</g>
<!-- StatList0&#45;&gt;StatMove2 -->
<g id="edge25" class="edge"><title>StatList0&#45;&gt;StatMove2</title>
<path fill="none" stroke="black" d="M923.168,-361.811C911.249,-352.221 895.652,-339.672 882.391,-329.002"/>
<polygon fill="black" stroke="black" points="884.474,-326.186 874.489,-322.644 880.086,-331.64 884.474,-326.186"/>
</g>
<!-- StatList0&#45;&gt;StatLabel0 -->
<g id="edge22" class="edge"><title>StatList0&#45;&gt;StatLabel0</title>
<path fill="none" stroke="black" d="M900.387,-374.944C790.124,-369.281 481.599,-351.989 226.046,-324 205.369,-321.735 182.729,-318.6 162.92,-315.638"/>
<polygon fill="black" stroke="black" points="163.256,-312.149 152.844,-314.11 162.206,-319.07 163.256,-312.149"/>
</g>
<!-- StatMove0 -->
<g id="node31" class="node"><title>StatMove0</title>
<ellipse fill="none" stroke="black" cx="285.046" cy="-306" rx="50.0912" ry="18"/>
<text text-anchor="middle" x="285.046" y="-302.3" font-family="Times,serif" font-size="14.00">StatMove0</text>
</g>
<!-- StatList0&#45;&gt;StatMove0 -->
<g id="edge23" class="edge"><title>StatList0&#45;&gt;StatMove0</title>
<path fill="none" stroke="black" d="M901.443,-372.674C788.946,-360.688 472.953,-327.021 342.494,-313.121"/>
<polygon fill="black" stroke="black" points="342.625,-309.615 332.311,-312.036 341.884,-316.576 342.625,-309.615"/>
</g>
<!-- StatMove3 -->
<g id="node32" class="node"><title>StatMove3</title>
<ellipse fill="none" stroke="black" cx="1030.05" cy="-306" rx="50.0912" ry="18"/>
<text text-anchor="middle" x="1030.05" y="-302.3" font-family="Times,serif" font-size="14.00">StatMove3</text>
</g>
<!-- StatList0&#45;&gt;StatMove3 -->
<g id="edge26" class="edge"><title>StatList0&#45;&gt;StatMove3</title>
<path fill="none" stroke="black" d="M961.14,-361.811C973.196,-352.221 988.972,-339.672 1002.39,-329.002"/>
<polygon fill="black" stroke="black" points="1004.73,-331.608 1010.38,-322.644 1000.37,-326.13 1004.73,-331.608"/>
</g>
<!-- StatMove4 -->
<g id="node33" class="node"><title>StatMove4</title>
<ellipse fill="none" stroke="black" cx="1292.05" cy="-306" rx="50.0912" ry="18"/>
<text text-anchor="middle" x="1292.05" y="-302.3" font-family="Times,serif" font-size="14.00">StatMove4</text>
</g>
<!-- StatList0&#45;&gt;StatMove4 -->
<g id="edge27" class="edge"><title>StatList0&#45;&gt;StatMove4</title>
<path fill="none" stroke="black" d="M979.502,-369.509C1042.03,-357.003 1167.84,-331.841 1239.3,-317.549"/>
<polygon fill="black" stroke="black" points="1240.32,-320.915 1249.43,-315.522 1238.94,-314.051 1240.32,-320.915"/>
</g>
<!-- ExpTemp0 -->
<g id="node34" class="node"><title>ExpTemp0</title>
<ellipse fill="none" stroke="black" cx="168.046" cy="-234" rx="50.0912" ry="18"/>
<text text-anchor="middle" x="168.046" y="-230.3" font-family="Times,serif" font-size="14.00">ExpTemp0</text>
</g>
<!-- StatMove0&#45;&gt;ExpTemp0 -->
<g id="edge34" class="edge"><title>StatMove0&#45;&gt;ExpTemp0</title>
<path fill="none" stroke="black" d="M260.233,-290.155C243.17,-279.946 220.306,-266.267 201.618,-255.086"/>
<polygon fill="black" stroke="black" points="203.201,-251.955 192.822,-249.824 199.607,-257.962 203.201,-251.955"/>
</g>
<!-- ExpMem0 -->
<g id="node39" class="node"><title>ExpMem0</title>
<ellipse fill="none" stroke="black" cx="285.046" cy="-234" rx="48.9926" ry="18"/>
<text text-anchor="middle" x="285.046" y="-230.3" font-family="Times,serif" font-size="14.00">ExpMem0</text>
</g>
<!-- StatMove0&#45;&gt;ExpMem0 -->
<g id="edge35" class="edge"><title>StatMove0&#45;&gt;ExpMem0</title>
<path fill="none" stroke="black" d="M285.046,-287.697C285.046,-279.983 285.046,-270.712 285.046,-262.112"/>
<polygon fill="black" stroke="black" points="288.546,-262.104 285.046,-252.104 281.546,-262.104 288.546,-262.104"/>
</g>
<!-- StatMove3&#45;&gt;ExpMem1 -->
<g id="edge44" class="edge"><title>StatMove3&#45;&gt;ExpMem1</title>
<path fill="none" stroke="black" d="M1055.74,-290.496C1074.19,-280.078 1099.28,-265.919 1119.48,-254.51"/>
<polygon fill="black" stroke="black" points="1121.4,-257.449 1128.39,-249.485 1117.96,-251.354 1121.4,-257.449"/>
</g>
<!-- ExpTemp5 -->
<g id="node46" class="node"><title>ExpTemp5</title>
<ellipse fill="none" stroke="black" cx="1030.05" cy="-234" rx="50.0912" ry="18"/>
<text text-anchor="middle" x="1030.05" y="-230.3" font-family="Times,serif" font-size="14.00">ExpTemp5</text>
</g>
<!-- StatMove3&#45;&gt;ExpTemp5 -->
<g id="edge43" class="edge"><title>StatMove3&#45;&gt;ExpTemp5</title>
<path fill="none" stroke="black" d="M1030.05,-287.697C1030.05,-279.983 1030.05,-270.712 1030.05,-262.112"/>
<polygon fill="black" stroke="black" points="1033.55,-262.104 1030.05,-252.104 1026.55,-262.104 1033.55,-262.104"/>
</g>
<!-- StatMove4&#45;&gt;ExpCall0 -->
<g id="edge48" class="edge"><title>StatMove4&#45;&gt;ExpCall0</title>
<path fill="none" stroke="black" d="M1318.26,-290.666C1337.75,-280.004 1364.54,-265.356 1385.74,-253.762"/>
<polygon fill="black" stroke="black" points="1387.65,-256.707 1394.74,-248.838 1384.29,-250.566 1387.65,-256.707"/>
</g>
<!-- ExpTemp7 -->
<g id="node43" class="node"><title>ExpTemp7</title>
<ellipse fill="none" stroke="black" cx="1292.05" cy="-234" rx="50.0912" ry="18"/>
<text text-anchor="middle" x="1292.05" y="-230.3" font-family="Times,serif" font-size="14.00">ExpTemp7</text>
</g>
<!-- StatMove4&#45;&gt;ExpTemp7 -->
<g id="edge47" class="edge"><title>StatMove4&#45;&gt;ExpTemp7</title>
<path fill="none" stroke="black" d="M1292.05,-287.697C1292.05,-279.983 1292.05,-270.712 1292.05,-262.112"/>
<polygon fill="black" stroke="black" points="1295.55,-262.104 1292.05,-252.104 1288.55,-262.104 1295.55,-262.104"/>
</g>
<!-- Temp0: T186 -->
<g id="node35" class="node"><title>Temp0: T186</title>
<ellipse fill="none" stroke="black" cx="142.046" cy="-162" rx="59.5901" ry="18"/>
<text text-anchor="middle" x="142.046" y="-158.3" font-family="Times,serif" font-size="14.00">Temp0: T186</text>
</g>
<!-- ExpTemp0&#45;&gt;Temp0: T186 -->
<g id="edge30" class="edge"><title>ExpTemp0&#45;&gt;Temp0: T186</title>
<path fill="none" stroke="black" d="M161.752,-216.055C158.825,-208.176 155.275,-198.617 151.998,-189.794"/>
<polygon fill="black" stroke="black" points="155.225,-188.431 148.462,-180.275 148.663,-190.868 155.225,-188.431"/>
</g>
<!-- ExpBinary0 -->
<g id="node36" class="node"><title>ExpBinary0</title>
<ellipse fill="none" stroke="black" cx="273.046" cy="-162" rx="53.0913" ry="18"/>
<text text-anchor="middle" x="273.046" y="-158.3" font-family="Times,serif" font-size="14.00">ExpBinary0</text>
</g>
<!-- ExpBinary0&#45;&gt;ExpConst0 -->
<g id="edge33" class="edge"><title>ExpBinary0&#45;&gt;ExpConst0</title>
<path fill="none" stroke="black" d="M295.017,-145.465C308.826,-135.7 326.828,-122.972 341.955,-112.276"/>
<polygon fill="black" stroke="black" points="344.332,-114.882 350.476,-106.251 340.29,-109.167 344.332,-114.882"/>
</g>
<!-- ExpTemp1 -->
<g id="node37" class="node"><title>ExpTemp1</title>
<ellipse fill="none" stroke="black" cx="174.046" cy="-90" rx="50.0912" ry="18"/>
<text text-anchor="middle" x="174.046" y="-86.3" font-family="Times,serif" font-size="14.00">ExpTemp1</text>
</g>
<!-- ExpBinary0&#45;&gt;ExpTemp1 -->
<g id="edge31" class="edge"><title>ExpBinary0&#45;&gt;ExpTemp1</title>
<path fill="none" stroke="black" d="M251.074,-145.465C237.265,-135.7 219.264,-122.972 204.136,-112.276"/>
<polygon fill="black" stroke="black" points="205.801,-109.167 195.615,-106.251 201.759,-114.882 205.801,-109.167"/>
</g>
<!-- Plus0 -->
<g id="node38" class="node"><title>Plus0</title>
<ellipse fill="none" stroke="black" cx="273.046" cy="-90" rx="30.5947" ry="18"/>
<text text-anchor="middle" x="273.046" y="-86.3" font-family="Times,serif" font-size="14.00">Plus0</text>
</g>
<!-- ExpBinary0&#45;&gt;Plus0 -->
<g id="edge32" class="edge"><title>ExpBinary0&#45;&gt;Plus0</title>
<path fill="none" stroke="black" d="M273.046,-143.697C273.046,-135.983 273.046,-126.712 273.046,-118.112"/>
<polygon fill="black" stroke="black" points="276.546,-118.104 273.046,-108.104 269.546,-118.104 276.546,-118.104"/>
</g>
<!-- Temp1: $fp -->
<g id="node45" class="node"><title>Temp1: $fp</title>
<ellipse fill="none" stroke="black" cx="174.046" cy="-18" rx="52.7911" ry="18"/>
<text text-anchor="middle" x="174.046" y="-14.3" font-family="Times,serif" font-size="14.00">Temp1: $fp</text>
</g>
<!-- ExpTemp1&#45;&gt;Temp1: $fp -->
<g id="edge40" class="edge"><title>ExpTemp1&#45;&gt;Temp1: $fp</title>
<path fill="none" stroke="black" d="M174.046,-71.6966C174.046,-63.9827 174.046,-54.7125 174.046,-46.1124"/>
<polygon fill="black" stroke="black" points="177.546,-46.1043 174.046,-36.1043 170.546,-46.1044 177.546,-46.1043"/>
</g>
<!-- ExpMem0&#45;&gt;ExpBinary0 -->
<g id="edge46" class="edge"><title>ExpMem0&#45;&gt;ExpBinary0</title>
<path fill="none" stroke="black" d="M282.079,-215.697C280.757,-207.983 279.168,-198.712 277.693,-190.112"/>
<polygon fill="black" stroke="black" points="281.117,-189.369 275.978,-180.104 274.218,-190.552 281.117,-189.369"/>
</g>
<!-- Temp7: T185 -->
<g id="node44" class="node"><title>Temp7: T185</title>
<ellipse fill="none" stroke="black" cx="1292.05" cy="-162" rx="59.5901" ry="18"/>
<text text-anchor="middle" x="1292.05" y="-158.3" font-family="Times,serif" font-size="14.00">Temp7: T185</text>
</g>
<!-- ExpTemp7&#45;&gt;Temp7: T185 -->
<g id="edge39" class="edge"><title>ExpTemp7&#45;&gt;Temp7: T185</title>
<path fill="none" stroke="black" d="M1292.05,-215.697C1292.05,-207.983 1292.05,-198.712 1292.05,-190.112"/>
<polygon fill="black" stroke="black" points="1295.55,-190.104 1292.05,-180.104 1288.55,-190.104 1295.55,-190.104"/>
</g>
<!-- Temp5: T184 -->
<g id="node47" class="node"><title>Temp5: T184</title>
<ellipse fill="none" stroke="black" cx="1030.05" cy="-162" rx="59.5901" ry="18"/>
<text text-anchor="middle" x="1030.05" y="-158.3" font-family="Times,serif" font-size="14.00">Temp5: T184</text>
</g>
<!-- ExpTemp5&#45;&gt;Temp5: T184 -->
<g id="edge41" class="edge"><title>ExpTemp5&#45;&gt;Temp5: T184</title>
<path fill="none" stroke="black" d="M1030.05,-215.697C1030.05,-207.983 1030.05,-198.712 1030.05,-190.112"/>
<polygon fill="black" stroke="black" points="1033.55,-190.104 1030.05,-180.104 1026.55,-190.104 1033.55,-190.104"/>
</g>
</g>
</svg>
