<?xml version="1.0" encoding="UTF-8" standalone="no"?>
<!DOCTYPE svg PUBLIC "-//W3C//DTD SVG 1.1//EN"
 "http://www.w3.org/Graphics/SVG/1.1/DTD/svg11.dtd">
<!-- Generated by graphviz version 2.38.0 (20140413.2041)
 -->
<!-- Title: %3 Pages: 1 -->
<svg width="1517pt" height="404pt"
 viewBox="0.00 0.00 1516.69 404.00" xmlns="http://www.w3.org/2000/svg" xmlns:xlink="http://www.w3.org/1999/xlink">
<g id="graph0" class="graph" transform="scale(1 1) rotate(0) translate(4 400)">
<title>%3</title>
<polygon fill="white" stroke="none" points="-4,4 -4,-400 1512.69,-400 1512.69,4 -4,4"/>
<!-- ExpTemp6 -->
<g id="node1" class="node"><title>ExpTemp6</title>
<ellipse fill="none" stroke="black" cx="1088.74" cy="-234" rx="50.0912" ry="18"/>
<text text-anchor="middle" x="1088.74" y="-230.3" font-family="Times,serif" font-size="14.00">ExpTemp6</text>
</g>
<!-- Temp6: T0 -->
<g id="node2" class="node"><title>Temp6: T0</title>
<ellipse fill="none" stroke="black" cx="1090.74" cy="-162" rx="50.8918" ry="18"/>
<text text-anchor="middle" x="1090.74" y="-158.3" font-family="Times,serif" font-size="14.00">Temp6: T0</text>
</g>
<!-- ExpTemp6&#45;&gt;Temp6: T0 -->
<g id="edge1" class="edge"><title>ExpTemp6&#45;&gt;Temp6: T0</title>
<path fill="none" stroke="black" d="M1089.24,-215.697C1089.46,-207.983 1089.72,-198.712 1089.97,-190.112"/>
<polygon fill="black" stroke="black" points="1093.47,-190.2 1090.25,-180.104 1086.47,-190 1093.47,-190.2"/>
</g>
<!-- StatCJump0 -->
<g id="node3" class="node"><title>StatCJump0</title>
<ellipse fill="none" stroke="black" cx="1147.74" cy="-306" rx="53.8905" ry="18"/>
<text text-anchor="middle" x="1147.74" y="-302.3" font-family="Times,serif" font-size="14.00">StatCJump0</text>
</g>
<!-- StatCJump0&#45;&gt;ExpTemp6 -->
<g id="edge3" class="edge"><title>StatCJump0&#45;&gt;ExpTemp6</title>
<path fill="none" stroke="black" d="M1133.76,-288.411C1126.41,-279.693 1117.27,-268.845 1109.14,-259.208"/>
<polygon fill="black" stroke="black" points="1111.74,-256.861 1102.62,-251.47 1106.39,-261.372 1111.74,-256.861"/>
</g>
<!-- NE0 -->
<g id="node4" class="node"><title>NE0</title>
<ellipse fill="none" stroke="black" cx="993.741" cy="-234" rx="27" ry="18"/>
<text text-anchor="middle" x="993.741" y="-230.3" font-family="Times,serif" font-size="14.00">NE0</text>
</g>
<!-- StatCJump0&#45;&gt;NE0 -->
<g id="edge2" class="edge"><title>StatCJump0&#45;&gt;NE0</title>
<path fill="none" stroke="black" d="M1116.61,-291.212C1092.78,-280.608 1059.11,-265.53 1029.74,-252 1027.95,-251.176 1026.11,-250.324 1024.26,-249.462"/>
<polygon fill="black" stroke="black" points="1025.57,-246.21 1015.03,-245.135 1022.6,-252.548 1025.57,-246.21"/>
</g>
<!-- ExpConst1 -->
<g id="node5" class="node"><title>ExpConst1</title>
<ellipse fill="none" stroke="black" cx="1206.74" cy="-234" rx="50.0912" ry="18"/>
<text text-anchor="middle" x="1206.74" y="-230.3" font-family="Times,serif" font-size="14.00">ExpConst1</text>
</g>
<!-- StatCJump0&#45;&gt;ExpConst1 -->
<g id="edge4" class="edge"><title>StatCJump0&#45;&gt;ExpConst1</title>
<path fill="none" stroke="black" d="M1161.72,-288.411C1169.07,-279.693 1178.21,-268.845 1186.34,-259.208"/>
<polygon fill="black" stroke="black" points="1189.09,-261.372 1192.86,-251.47 1183.74,-256.861 1189.09,-261.372"/>
</g>
<!-- Label2: L85 -->
<g id="node6" class="node"><title>Label2: L85</title>
<ellipse fill="none" stroke="black" cx="1328.74" cy="-234" rx="53.8905" ry="18"/>
<text text-anchor="middle" x="1328.74" y="-230.3" font-family="Times,serif" font-size="14.00">Label2: L85</text>
</g>
<!-- StatCJump0&#45;&gt;Label2: L85 -->
<g id="edge5" class="edge"><title>StatCJump0&#45;&gt;Label2: L85</title>
<path fill="none" stroke="black" d="M1181.79,-291.834C1211.11,-280.492 1253.61,-264.057 1285.36,-251.776"/>
<polygon fill="black" stroke="black" points="1286.78,-254.979 1294.85,-248.107 1284.26,-248.45 1286.78,-254.979"/>
</g>
<!-- Label3: L86 -->
<g id="node7" class="node"><title>Label3: L86</title>
<ellipse fill="none" stroke="black" cx="1454.74" cy="-234" rx="53.8905" ry="18"/>
<text text-anchor="middle" x="1454.74" y="-230.3" font-family="Times,serif" font-size="14.00">Label3: L86</text>
</g>
<!-- StatCJump0&#45;&gt;Label3: L86 -->
<g id="edge6" class="edge"><title>StatCJump0&#45;&gt;Label3: L86</title>
<path fill="none" stroke="black" d="M1192.87,-295.898C1241.95,-285.834 1322.67,-268.811 1391.74,-252 1395.89,-250.99 1400.18,-249.91 1404.49,-248.801"/>
<polygon fill="black" stroke="black" points="1405.7,-252.101 1414.49,-246.181 1403.93,-245.329 1405.7,-252.101"/>
</g>
<!-- Value1: 0 -->
<g id="node35" class="node"><title>Value1: 0</title>
<ellipse fill="none" stroke="black" cx="1206.74" cy="-162" rx="45.4919" ry="18"/>
<text text-anchor="middle" x="1206.74" y="-158.3" font-family="Times,serif" font-size="14.00">Value1: 0</text>
</g>
<!-- ExpConst1&#45;&gt;Value1: 0 -->
<g id="edge32" class="edge"><title>ExpConst1&#45;&gt;Value1: 0</title>
<path fill="none" stroke="black" d="M1206.74,-215.697C1206.74,-207.983 1206.74,-198.712 1206.74,-190.112"/>
<polygon fill="black" stroke="black" points="1210.24,-190.104 1206.74,-180.104 1203.24,-190.104 1210.24,-190.104"/>
</g>
<!-- ExpList0 -->
<g id="node8" class="node"><title>ExpList0</title>
<ellipse fill="none" stroke="black" cx="978.741" cy="-162" rx="42.7926" ry="18"/>
<text text-anchor="middle" x="978.741" y="-158.3" font-family="Times,serif" font-size="14.00">ExpList0</text>
</g>
<!-- ExpTemp5 -->
<g id="node9" class="node"><title>ExpTemp5</title>
<ellipse fill="none" stroke="black" cx="1048.74" cy="-90" rx="50.0912" ry="18"/>
<text text-anchor="middle" x="1048.74" y="-86.3" font-family="Times,serif" font-size="14.00">ExpTemp5</text>
</g>
<!-- ExpList0&#45;&gt;ExpTemp5 -->
<g id="edge7" class="edge"><title>ExpList0&#45;&gt;ExpTemp5</title>
<path fill="none" stroke="black" d="M994.625,-145.116C1003.63,-136.116 1015.06,-124.682 1025.09,-114.646"/>
<polygon fill="black" stroke="black" points="1027.84,-116.853 1032.43,-107.307 1022.89,-111.903 1027.84,-116.853"/>
</g>
<!-- Temp5: T8 -->
<g id="node10" class="node"><title>Temp5: T8</title>
<ellipse fill="none" stroke="black" cx="1048.74" cy="-18" rx="50.8918" ry="18"/>
<text text-anchor="middle" x="1048.74" y="-14.3" font-family="Times,serif" font-size="14.00">Temp5: T8</text>
</g>
<!-- ExpTemp5&#45;&gt;Temp5: T8 -->
<g id="edge8" class="edge"><title>ExpTemp5&#45;&gt;Temp5: T8</title>
<path fill="none" stroke="black" d="M1048.74,-71.6966C1048.74,-63.9827 1048.74,-54.7125 1048.74,-46.1124"/>
<polygon fill="black" stroke="black" points="1052.24,-46.1043 1048.74,-36.1043 1045.24,-46.1044 1052.24,-46.1043"/>
</g>
<!-- ExpName0 -->
<g id="node11" class="node"><title>ExpName0</title>
<ellipse fill="none" stroke="black" cx="866.741" cy="-162" rx="50.8918" ry="18"/>
<text text-anchor="middle" x="866.741" y="-158.3" font-family="Times,serif" font-size="14.00">ExpName0</text>
</g>
<!-- Label1: Tree@GetHas_Right -->
<g id="node12" class="node"><title>Label1: Tree@GetHas_Right</title>
<ellipse fill="none" stroke="black" cx="866.741" cy="-90" rx="114.28" ry="18"/>
<text text-anchor="middle" x="866.741" y="-86.3" font-family="Times,serif" font-size="14.00">Label1: Tree@GetHas_Right</text>
</g>
<!-- ExpName0&#45;&gt;Label1: Tree@GetHas_Right -->
<g id="edge9" class="edge"><title>ExpName0&#45;&gt;Label1: Tree@GetHas_Right</title>
<path fill="none" stroke="black" d="M866.741,-143.697C866.741,-135.983 866.741,-126.712 866.741,-118.112"/>
<polygon fill="black" stroke="black" points="870.241,-118.104 866.741,-108.104 863.241,-118.104 870.241,-118.104"/>
</g>
<!-- ExpCall0 -->
<g id="node13" class="node"><title>ExpCall0</title>
<ellipse fill="none" stroke="black" cx="866.741" cy="-234" rx="44.393" ry="18"/>
<text text-anchor="middle" x="866.741" y="-230.3" font-family="Times,serif" font-size="14.00">ExpCall0</text>
</g>
<!-- ExpCall0&#45;&gt;ExpList0 -->
<g id="edge11" class="edge"><title>ExpCall0&#45;&gt;ExpList0</title>
<path fill="none" stroke="black" d="M889.948,-218.496C906.466,-208.172 928.863,-194.174 947.03,-182.819"/>
<polygon fill="black" stroke="black" points="948.939,-185.753 955.564,-177.485 945.229,-179.818 948.939,-185.753"/>
</g>
<!-- ExpCall0&#45;&gt;ExpName0 -->
<g id="edge10" class="edge"><title>ExpCall0&#45;&gt;ExpName0</title>
<path fill="none" stroke="black" d="M866.741,-215.697C866.741,-207.983 866.741,-198.712 866.741,-190.112"/>
<polygon fill="black" stroke="black" points="870.241,-190.104 866.741,-180.104 863.241,-190.104 870.241,-190.104"/>
</g>
<!-- ExpTemp4 -->
<g id="node14" class="node"><title>ExpTemp4</title>
<ellipse fill="none" stroke="black" cx="747.741" cy="-234" rx="50.0912" ry="18"/>
<text text-anchor="middle" x="747.741" y="-230.3" font-family="Times,serif" font-size="14.00">ExpTemp4</text>
</g>
<!-- Temp4: T9 -->
<g id="node15" class="node"><title>Temp4: T9</title>
<ellipse fill="none" stroke="black" cx="747.741" cy="-162" rx="50.8918" ry="18"/>
<text text-anchor="middle" x="747.741" y="-158.3" font-family="Times,serif" font-size="14.00">Temp4: T9</text>
</g>
<!-- ExpTemp4&#45;&gt;Temp4: T9 -->
<g id="edge12" class="edge"><title>ExpTemp4&#45;&gt;Temp4: T9</title>
<path fill="none" stroke="black" d="M747.741,-215.697C747.741,-207.983 747.741,-198.712 747.741,-190.112"/>
<polygon fill="black" stroke="black" points="751.241,-190.104 747.741,-180.104 744.241,-190.104 751.241,-190.104"/>
</g>
<!-- ExpMem0 -->
<g id="node16" class="node"><title>ExpMem0</title>
<ellipse fill="none" stroke="black" cx="624.741" cy="-234" rx="48.9926" ry="18"/>
<text text-anchor="middle" x="624.741" y="-230.3" font-family="Times,serif" font-size="14.00">ExpMem0</text>
</g>
<!-- ExpBinary0 -->
<g id="node17" class="node"><title>ExpBinary0</title>
<ellipse fill="none" stroke="black" cx="625.741" cy="-162" rx="53.0913" ry="18"/>
<text text-anchor="middle" x="625.741" y="-158.3" font-family="Times,serif" font-size="14.00">ExpBinary0</text>
</g>
<!-- ExpMem0&#45;&gt;ExpBinary0 -->
<g id="edge13" class="edge"><title>ExpMem0&#45;&gt;ExpBinary0</title>
<path fill="none" stroke="black" d="M624.988,-215.697C625.098,-207.983 625.231,-198.712 625.354,-190.112"/>
<polygon fill="black" stroke="black" points="628.853,-190.153 625.497,-180.104 621.854,-190.053 628.853,-190.153"/>
</g>
<!-- ExpTemp3 -->
<g id="node21" class="node"><title>ExpTemp3</title>
<ellipse fill="none" stroke="black" cx="486.741" cy="-90" rx="50.0912" ry="18"/>
<text text-anchor="middle" x="486.741" y="-86.3" font-family="Times,serif" font-size="14.00">ExpTemp3</text>
</g>
<!-- ExpBinary0&#45;&gt;ExpTemp3 -->
<g id="edge16" class="edge"><title>ExpBinary0&#45;&gt;ExpTemp3</title>
<path fill="none" stroke="black" d="M597.277,-146.666C576.055,-135.978 546.881,-121.286 523.833,-109.679"/>
<polygon fill="black" stroke="black" points="525.198,-106.448 514.692,-105.076 522.049,-112.7 525.198,-106.448"/>
</g>
<!-- Plus0 -->
<g id="node22" class="node"><title>Plus0</title>
<ellipse fill="none" stroke="black" cx="585.741" cy="-90" rx="30.5947" ry="18"/>
<text text-anchor="middle" x="585.741" y="-86.3" font-family="Times,serif" font-size="14.00">Plus0</text>
</g>
<!-- ExpBinary0&#45;&gt;Plus0 -->
<g id="edge17" class="edge"><title>ExpBinary0&#45;&gt;Plus0</title>
<path fill="none" stroke="black" d="M616.058,-144.055C611.272,-135.679 605.4,-125.404 600.103,-116.134"/>
<polygon fill="black" stroke="black" points="603.06,-114.253 595.059,-107.307 596.982,-117.726 603.06,-114.253"/>
</g>
<!-- ExpConst0 -->
<g id="node23" class="node"><title>ExpConst0</title>
<ellipse fill="none" stroke="black" cx="684.741" cy="-90" rx="50.0912" ry="18"/>
<text text-anchor="middle" x="684.741" y="-86.3" font-family="Times,serif" font-size="14.00">ExpConst0</text>
</g>
<!-- ExpBinary0&#45;&gt;ExpConst0 -->
<g id="edge18" class="edge"><title>ExpBinary0&#45;&gt;ExpConst0</title>
<path fill="none" stroke="black" d="M639.723,-144.411C647.071,-135.693 656.214,-124.845 664.337,-115.208"/>
<polygon fill="black" stroke="black" points="667.091,-117.372 670.859,-107.47 661.738,-112.861 667.091,-117.372"/>
</g>
<!-- StatMove0 -->
<g id="node18" class="node"><title>StatMove0</title>
<ellipse fill="none" stroke="black" cx="387.741" cy="-306" rx="50.0912" ry="18"/>
<text text-anchor="middle" x="387.741" y="-302.3" font-family="Times,serif" font-size="14.00">StatMove0</text>
</g>
<!-- ExpTemp0 -->
<g id="node19" class="node"><title>ExpTemp0</title>
<ellipse fill="none" stroke="black" cx="269.741" cy="-234" rx="50.0912" ry="18"/>
<text text-anchor="middle" x="269.741" y="-230.3" font-family="Times,serif" font-size="14.00">ExpTemp0</text>
</g>
<!-- StatMove0&#45;&gt;ExpTemp0 -->
<g id="edge14" class="edge"><title>StatMove0&#45;&gt;ExpTemp0</title>
<path fill="none" stroke="black" d="M363.004,-290.326C345.619,-280.012 322.159,-266.095 303.118,-254.8"/>
<polygon fill="black" stroke="black" points="304.831,-251.747 294.445,-249.655 301.26,-257.767 304.831,-251.747"/>
</g>
<!-- ExpTemp1 -->
<g id="node20" class="node"><title>ExpTemp1</title>
<ellipse fill="none" stroke="black" cx="387.741" cy="-234" rx="50.0912" ry="18"/>
<text text-anchor="middle" x="387.741" y="-230.3" font-family="Times,serif" font-size="14.00">ExpTemp1</text>
</g>
<!-- StatMove0&#45;&gt;ExpTemp1 -->
<g id="edge15" class="edge"><title>StatMove0&#45;&gt;ExpTemp1</title>
<path fill="none" stroke="black" d="M387.741,-287.697C387.741,-279.983 387.741,-270.712 387.741,-262.112"/>
<polygon fill="black" stroke="black" points="391.241,-262.104 387.741,-252.104 384.241,-262.104 391.241,-262.104"/>
</g>
<!-- Temp0: T9 -->
<g id="node24" class="node"><title>Temp0: T9</title>
<ellipse fill="none" stroke="black" cx="265.741" cy="-162" rx="50.8918" ry="18"/>
<text text-anchor="middle" x="265.741" y="-158.3" font-family="Times,serif" font-size="14.00">Temp0: T9</text>
</g>
<!-- ExpTemp0&#45;&gt;Temp0: T9 -->
<g id="edge19" class="edge"><title>ExpTemp0&#45;&gt;Temp0: T9</title>
<path fill="none" stroke="black" d="M268.752,-215.697C268.312,-207.983 267.782,-198.712 267.29,-190.112"/>
<polygon fill="black" stroke="black" points="270.783,-189.888 266.718,-180.104 263.795,-190.288 270.783,-189.888"/>
</g>
<!-- Temp1: T0 -->
<g id="node34" class="node"><title>Temp1: T0</title>
<ellipse fill="none" stroke="black" cx="384.741" cy="-162" rx="50.8918" ry="18"/>
<text text-anchor="middle" x="384.741" y="-158.3" font-family="Times,serif" font-size="14.00">Temp1: T0</text>
</g>
<!-- ExpTemp1&#45;&gt;Temp1: T0 -->
<g id="edge31" class="edge"><title>ExpTemp1&#45;&gt;Temp1: T0</title>
<path fill="none" stroke="black" d="M386.999,-215.697C386.669,-207.983 386.272,-198.712 385.903,-190.112"/>
<polygon fill="black" stroke="black" points="389.399,-189.945 385.474,-180.104 382.406,-190.245 389.399,-189.945"/>
</g>
<!-- Temp3: $fp -->
<g id="node32" class="node"><title>Temp3: $fp</title>
<ellipse fill="none" stroke="black" cx="486.741" cy="-18" rx="52.7911" ry="18"/>
<text text-anchor="middle" x="486.741" y="-14.3" font-family="Times,serif" font-size="14.00">Temp3: $fp</text>
</g>
<!-- ExpTemp3&#45;&gt;Temp3: $fp -->
<g id="edge29" class="edge"><title>ExpTemp3&#45;&gt;Temp3: $fp</title>
<path fill="none" stroke="black" d="M486.741,-71.6966C486.741,-63.9827 486.741,-54.7125 486.741,-46.1124"/>
<polygon fill="black" stroke="black" points="490.241,-46.1043 486.741,-36.1043 483.241,-46.1044 490.241,-46.1043"/>
</g>
<!-- Value0: 4 -->
<g id="node33" class="node"><title>Value0: 4</title>
<ellipse fill="none" stroke="black" cx="684.741" cy="-18" rx="45.4919" ry="18"/>
<text text-anchor="middle" x="684.741" y="-14.3" font-family="Times,serif" font-size="14.00">Value0: 4</text>
</g>
<!-- ExpConst0&#45;&gt;Value0: 4 -->
<g id="edge30" class="edge"><title>ExpConst0&#45;&gt;Value0: 4</title>
<path fill="none" stroke="black" d="M684.741,-71.6966C684.741,-63.9827 684.741,-54.7125 684.741,-46.1124"/>
<polygon fill="black" stroke="black" points="688.241,-46.1043 684.741,-36.1043 681.241,-46.1044 688.241,-46.1043"/>
</g>
<!-- StatList0 -->
<g id="node25" class="node"><title>StatList0</title>
<ellipse fill="none" stroke="black" cx="564.741" cy="-378" rx="42.4939" ry="18"/>
<text text-anchor="middle" x="564.741" y="-374.3" font-family="Times,serif" font-size="14.00">StatList0</text>
</g>
<!-- StatList0&#45;&gt;StatCJump0 -->
<g id="edge24" class="edge"><title>StatList0&#45;&gt;StatCJump0</title>
<path fill="none" stroke="black" d="M604.813,-372.189C705.302,-360.123 968.471,-328.525 1087.61,-314.22"/>
<polygon fill="black" stroke="black" points="1088.14,-317.682 1097.65,-313.015 1087.3,-310.732 1088.14,-317.682"/>
</g>
<!-- StatList0&#45;&gt;StatMove0 -->
<g id="edge21" class="edge"><title>StatList0&#45;&gt;StatMove0</title>
<path fill="none" stroke="black" d="M534.715,-365.125C505.844,-353.708 461.945,-336.346 429.639,-323.57"/>
<polygon fill="black" stroke="black" points="430.601,-320.186 420.014,-319.763 428.026,-326.696 430.601,-320.186"/>
</g>
<!-- StatLabel0 -->
<g id="node26" class="node"><title>StatLabel0</title>
<ellipse fill="none" stroke="black" cx="185.741" cy="-306" rx="48.9926" ry="18"/>
<text text-anchor="middle" x="185.741" y="-302.3" font-family="Times,serif" font-size="14.00">StatLabel0</text>
</g>
<!-- StatList0&#45;&gt;StatLabel0 -->
<g id="edge20" class="edge"><title>StatList0&#45;&gt;StatLabel0</title>
<path fill="none" stroke="black" d="M526.666,-369.968C458.579,-357.392 315.862,-331.033 238.425,-316.731"/>
<polygon fill="black" stroke="black" points="238.872,-313.254 228.402,-314.879 237.6,-320.138 238.872,-313.254"/>
</g>
<!-- StatMove1 -->
<g id="node27" class="node"><title>StatMove1</title>
<ellipse fill="none" stroke="black" cx="564.741" cy="-306" rx="50.0912" ry="18"/>
<text text-anchor="middle" x="564.741" y="-302.3" font-family="Times,serif" font-size="14.00">StatMove1</text>
</g>
<!-- StatList0&#45;&gt;StatMove1 -->
<g id="edge22" class="edge"><title>StatList0&#45;&gt;StatMove1</title>
<path fill="none" stroke="black" d="M564.741,-359.697C564.741,-351.983 564.741,-342.712 564.741,-334.112"/>
<polygon fill="black" stroke="black" points="568.241,-334.104 564.741,-324.104 561.241,-334.104 568.241,-334.104"/>
</g>
<!-- StatMove2 -->
<g id="node28" class="node"><title>StatMove2</title>
<ellipse fill="none" stroke="black" cx="747.741" cy="-306" rx="50.0912" ry="18"/>
<text text-anchor="middle" x="747.741" y="-302.3" font-family="Times,serif" font-size="14.00">StatMove2</text>
</g>
<!-- StatList0&#45;&gt;StatMove2 -->
<g id="edge23" class="edge"><title>StatList0&#45;&gt;StatMove2</title>
<path fill="none" stroke="black" d="M595.371,-365.284C625.469,-353.771 671.647,-336.107 705.28,-323.242"/>
<polygon fill="black" stroke="black" points="706.756,-326.425 714.845,-319.583 704.255,-319.887 706.756,-326.425"/>
</g>
<!-- Label0: MyVisitor@visit -->
<g id="node29" class="node"><title>Label0: MyVisitor@visit</title>
<ellipse fill="none" stroke="black" cx="100.741" cy="-234" rx="100.983" ry="18"/>
<text text-anchor="middle" x="100.741" y="-230.3" font-family="Times,serif" font-size="14.00">Label0: MyVisitor@visit</text>
</g>
<!-- StatLabel0&#45;&gt;Label0: MyVisitor@visit -->
<g id="edge25" class="edge"><title>StatLabel0&#45;&gt;Label0: MyVisitor@visit</title>
<path fill="none" stroke="black" d="M166.453,-289.116C155.364,-279.983 141.232,-268.346 128.918,-258.204"/>
<polygon fill="black" stroke="black" points="131.082,-255.453 121.138,-251.797 126.632,-260.856 131.082,-255.453"/>
</g>
<!-- StatMove1&#45;&gt;ExpMem0 -->
<g id="edge34" class="edge"><title>StatMove1&#45;&gt;ExpMem0</title>
<path fill="none" stroke="black" d="M578.96,-288.411C586.432,-279.693 595.731,-268.845 603.992,-259.208"/>
<polygon fill="black" stroke="black" points="606.773,-261.34 610.624,-251.47 601.459,-256.785 606.773,-261.34"/>
</g>
<!-- ExpTemp2 -->
<g id="node30" class="node"><title>ExpTemp2</title>
<ellipse fill="none" stroke="black" cx="505.741" cy="-234" rx="50.0912" ry="18"/>
<text text-anchor="middle" x="505.741" y="-230.3" font-family="Times,serif" font-size="14.00">ExpTemp2</text>
</g>
<!-- StatMove1&#45;&gt;ExpTemp2 -->
<g id="edge33" class="edge"><title>StatMove1&#45;&gt;ExpTemp2</title>
<path fill="none" stroke="black" d="M550.759,-288.411C543.411,-279.693 534.268,-268.845 526.145,-259.208"/>
<polygon fill="black" stroke="black" points="528.744,-256.861 519.623,-251.47 523.391,-261.372 528.744,-256.861"/>
</g>
<!-- StatMove2&#45;&gt;ExpCall0 -->
<g id="edge27" class="edge"><title>StatMove2&#45;&gt;ExpCall0</title>
<path fill="none" stroke="black" d="M772.687,-290.326C790.456,-279.874 814.516,-265.721 833.852,-254.346"/>
<polygon fill="black" stroke="black" points="835.796,-257.264 842.641,-249.177 832.247,-251.23 835.796,-257.264"/>
</g>
<!-- StatMove2&#45;&gt;ExpTemp4 -->
<g id="edge26" class="edge"><title>StatMove2&#45;&gt;ExpTemp4</title>
<path fill="none" stroke="black" d="M747.741,-287.697C747.741,-279.983 747.741,-270.712 747.741,-262.112"/>
<polygon fill="black" stroke="black" points="751.241,-262.104 747.741,-252.104 744.241,-262.104 751.241,-262.104"/>
</g>
<!-- Temp2: T8 -->
<g id="node31" class="node"><title>Temp2: T8</title>
<ellipse fill="none" stroke="black" cx="503.741" cy="-162" rx="50.8918" ry="18"/>
<text text-anchor="middle" x="503.741" y="-158.3" font-family="Times,serif" font-size="14.00">Temp2: T8</text>
</g>
<!-- ExpTemp2&#45;&gt;Temp2: T8 -->
<g id="edge28" class="edge"><title>ExpTemp2&#45;&gt;Temp2: T8</title>
<path fill="none" stroke="black" d="M505.247,-215.697C505.026,-207.983 504.761,-198.712 504.516,-190.112"/>
<polygon fill="black" stroke="black" points="508.014,-190 504.23,-180.104 501.017,-190.2 508.014,-190"/>
</g>
</g>
</svg>
