<?xml version="1.0" encoding="UTF-8" standalone="no"?>
<!DOCTYPE svg PUBLIC "-//W3C//DTD SVG 1.1//EN"
 "http://www.w3.org/Graphics/SVG/1.1/DTD/svg11.dtd">
<!-- Generated by graphviz version 2.38.0 (20140413.2041)
 -->
<!-- Title: %3 Pages: 1 -->
<svg width="3323pt" height="404pt"
 viewBox="0.00 0.00 3322.89 404.00" xmlns="http://www.w3.org/2000/svg" xmlns:xlink="http://www.w3.org/1999/xlink">
<g id="graph0" class="graph" transform="scale(1 1) rotate(0) translate(4 400)">
<title>%3</title>
<polygon fill="white" stroke="none" points="-4,4 -4,-400 3318.89,-400 3318.89,4 -4,4"/>
<!-- ExpConst2 -->
<g id="node1" class="node"><title>ExpConst2</title>
<ellipse fill="none" stroke="black" cx="3012.95" cy="-234" rx="50.0912" ry="18"/>
<text text-anchor="middle" x="3012.95" y="-230.3" font-family="Times,serif" font-size="14.00">ExpConst2</text>
</g>
<!-- Value2: 0 -->
<g id="node2" class="node"><title>Value2: 0</title>
<ellipse fill="none" stroke="black" cx="3012.95" cy="-162" rx="45.4919" ry="18"/>
<text text-anchor="middle" x="3012.95" y="-158.3" font-family="Times,serif" font-size="14.00">Value2: 0</text>
</g>
<!-- ExpConst2&#45;&gt;Value2: 0 -->
<g id="edge1" class="edge"><title>ExpConst2&#45;&gt;Value2: 0</title>
<path fill="none" stroke="black" d="M3012.95,-215.697C3012.95,-207.983 3012.95,-198.712 3012.95,-190.112"/>
<polygon fill="black" stroke="black" points="3016.45,-190.104 3012.95,-180.104 3009.45,-190.104 3016.45,-190.104"/>
</g>
<!-- StatMove4 -->
<g id="node3" class="node"><title>StatMove4</title>
<ellipse fill="none" stroke="black" cx="1390.95" cy="-306" rx="50.0912" ry="18"/>
<text text-anchor="middle" x="1390.95" y="-302.3" font-family="Times,serif" font-size="14.00">StatMove4</text>
</g>
<!-- ExpTemp8 -->
<g id="node4" class="node"><title>ExpTemp8</title>
<ellipse fill="none" stroke="black" cx="1269.95" cy="-234" rx="50.0912" ry="18"/>
<text text-anchor="middle" x="1269.95" y="-230.3" font-family="Times,serif" font-size="14.00">ExpTemp8</text>
</g>
<!-- StatMove4&#45;&gt;ExpTemp8 -->
<g id="edge2" class="edge"><title>StatMove4&#45;&gt;ExpTemp8</title>
<path fill="none" stroke="black" d="M1365.58,-290.326C1347.75,-280.012 1323.7,-266.095 1304.17,-254.8"/>
<polygon fill="black" stroke="black" points="1305.69,-251.633 1295.28,-249.655 1302.18,-257.692 1305.69,-251.633"/>
</g>
<!-- ExpTemp9 -->
<g id="node5" class="node"><title>ExpTemp9</title>
<ellipse fill="none" stroke="black" cx="1390.95" cy="-234" rx="50.0912" ry="18"/>
<text text-anchor="middle" x="1390.95" y="-230.3" font-family="Times,serif" font-size="14.00">ExpTemp9</text>
</g>
<!-- StatMove4&#45;&gt;ExpTemp9 -->
<g id="edge3" class="edge"><title>StatMove4&#45;&gt;ExpTemp9</title>
<path fill="none" stroke="black" d="M1390.95,-287.697C1390.95,-279.983 1390.95,-270.712 1390.95,-262.112"/>
<polygon fill="black" stroke="black" points="1394.45,-262.104 1390.95,-252.104 1387.45,-262.104 1394.45,-262.104"/>
</g>
<!-- Temp8: T19 -->
<g id="node30" class="node"><title>Temp8: T19</title>
<ellipse fill="none" stroke="black" cx="1266.95" cy="-162" rx="55.4913" ry="18"/>
<text text-anchor="middle" x="1266.95" y="-158.3" font-family="Times,serif" font-size="14.00">Temp8: T19</text>
</g>
<!-- ExpTemp8&#45;&gt;Temp8: T19 -->
<g id="edge20" class="edge"><title>ExpTemp8&#45;&gt;Temp8: T19</title>
<path fill="none" stroke="black" d="M1269.2,-215.697C1268.87,-207.983 1268.48,-198.712 1268.11,-190.112"/>
<polygon fill="black" stroke="black" points="1271.6,-189.945 1267.68,-180.104 1264.61,-190.245 1271.6,-189.945"/>
</g>
<!-- Temp9: T3 -->
<g id="node63" class="node"><title>Temp9: T3</title>
<ellipse fill="none" stroke="black" cx="1390.95" cy="-162" rx="50.8918" ry="18"/>
<text text-anchor="middle" x="1390.95" y="-158.3" font-family="Times,serif" font-size="14.00">Temp9: T3</text>
</g>
<!-- ExpTemp9&#45;&gt;Temp9: T3 -->
<g id="edge54" class="edge"><title>ExpTemp9&#45;&gt;Temp9: T3</title>
<path fill="none" stroke="black" d="M1390.95,-215.697C1390.95,-207.983 1390.95,-198.712 1390.95,-190.112"/>
<polygon fill="black" stroke="black" points="1394.45,-190.104 1390.95,-180.104 1387.45,-190.104 1394.45,-190.104"/>
</g>
<!-- ExpMem0 -->
<g id="node6" class="node"><title>ExpMem0</title>
<ellipse fill="none" stroke="black" cx="787.945" cy="-234" rx="48.9926" ry="18"/>
<text text-anchor="middle" x="787.945" y="-230.3" font-family="Times,serif" font-size="14.00">ExpMem0</text>
</g>
<!-- ExpBinary0 -->
<g id="node7" class="node"><title>ExpBinary0</title>
<ellipse fill="none" stroke="black" cx="787.945" cy="-162" rx="53.0913" ry="18"/>
<text text-anchor="middle" x="787.945" y="-158.3" font-family="Times,serif" font-size="14.00">ExpBinary0</text>
</g>
<!-- ExpMem0&#45;&gt;ExpBinary0 -->
<g id="edge4" class="edge"><title>ExpMem0&#45;&gt;ExpBinary0</title>
<path fill="none" stroke="black" d="M787.945,-215.697C787.945,-207.983 787.945,-198.712 787.945,-190.112"/>
<polygon fill="black" stroke="black" points="791.445,-190.104 787.945,-180.104 784.445,-190.104 791.445,-190.104"/>
</g>
<!-- ExpConst0 -->
<g id="node28" class="node"><title>ExpConst0</title>
<ellipse fill="none" stroke="black" cx="878.945" cy="-90" rx="50.0912" ry="18"/>
<text text-anchor="middle" x="878.945" y="-86.3" font-family="Times,serif" font-size="14.00">ExpConst0</text>
</g>
<!-- ExpBinary0&#45;&gt;ExpConst0 -->
<g id="edge24" class="edge"><title>ExpBinary0&#45;&gt;ExpConst0</title>
<path fill="none" stroke="black" d="M808.595,-145.116C821.014,-135.562 836.998,-123.267 850.59,-112.812"/>
<polygon fill="black" stroke="black" points="852.899,-115.451 858.691,-106.58 848.631,-109.903 852.899,-115.451"/>
</g>
<!-- ExpTemp5 -->
<g id="node33" class="node"><title>ExpTemp5</title>
<ellipse fill="none" stroke="black" cx="680.945" cy="-90" rx="50.0912" ry="18"/>
<text text-anchor="middle" x="680.945" y="-86.3" font-family="Times,serif" font-size="14.00">ExpTemp5</text>
</g>
<!-- ExpBinary0&#45;&gt;ExpTemp5 -->
<g id="edge22" class="edge"><title>ExpBinary0&#45;&gt;ExpTemp5</title>
<path fill="none" stroke="black" d="M764.464,-145.638C749.307,-135.723 729.398,-122.698 712.82,-111.853"/>
<polygon fill="black" stroke="black" points="714.289,-108.631 704.004,-106.085 710.456,-114.489 714.289,-108.631"/>
</g>
<!-- Plus0 -->
<g id="node34" class="node"><title>Plus0</title>
<ellipse fill="none" stroke="black" cx="779.945" cy="-90" rx="30.5947" ry="18"/>
<text text-anchor="middle" x="779.945" y="-86.3" font-family="Times,serif" font-size="14.00">Plus0</text>
</g>
<!-- ExpBinary0&#45;&gt;Plus0 -->
<g id="edge23" class="edge"><title>ExpBinary0&#45;&gt;Plus0</title>
<path fill="none" stroke="black" d="M785.968,-143.697C785.086,-135.983 784.027,-126.712 783.044,-118.112"/>
<polygon fill="black" stroke="black" points="786.513,-117.642 781.9,-108.104 779.558,-118.437 786.513,-117.642"/>
</g>
<!-- StatMove7 -->
<g id="node8" class="node"><title>StatMove7</title>
<ellipse fill="none" stroke="black" cx="2273.95" cy="-306" rx="50.0912" ry="18"/>
<text text-anchor="middle" x="2273.95" y="-302.3" font-family="Times,serif" font-size="14.00">StatMove7</text>
</g>
<!-- ExpTemp15 -->
<g id="node9" class="node"><title>ExpTemp15</title>
<ellipse fill="none" stroke="black" cx="2273.95" cy="-234" rx="54.6905" ry="18"/>
<text text-anchor="middle" x="2273.95" y="-230.3" font-family="Times,serif" font-size="14.00">ExpTemp15</text>
</g>
<!-- StatMove7&#45;&gt;ExpTemp15 -->
<g id="edge5" class="edge"><title>StatMove7&#45;&gt;ExpTemp15</title>
<path fill="none" stroke="black" d="M2273.95,-287.697C2273.95,-279.983 2273.95,-270.712 2273.95,-262.112"/>
<polygon fill="black" stroke="black" points="2277.45,-262.104 2273.95,-252.104 2270.45,-262.104 2277.45,-262.104"/>
</g>
<!-- ExpMem1 -->
<g id="node10" class="node"><title>ExpMem1</title>
<ellipse fill="none" stroke="black" cx="2399.95" cy="-234" rx="48.9926" ry="18"/>
<text text-anchor="middle" x="2399.95" y="-230.3" font-family="Times,serif" font-size="14.00">ExpMem1</text>
</g>
<!-- StatMove7&#45;&gt;ExpMem1 -->
<g id="edge6" class="edge"><title>StatMove7&#45;&gt;ExpMem1</title>
<path fill="none" stroke="black" d="M2300.05,-290.496C2318.89,-280.031 2344.52,-265.791 2365.1,-254.356"/>
<polygon fill="black" stroke="black" points="2366.83,-257.401 2373.87,-249.485 2363.43,-251.282 2366.83,-257.401"/>
</g>
<!-- Temp15: T21 -->
<g id="node67" class="node"><title>Temp15: T21</title>
<ellipse fill="none" stroke="black" cx="2273.95" cy="-162" rx="59.5901" ry="18"/>
<text text-anchor="middle" x="2273.95" y="-158.3" font-family="Times,serif" font-size="14.00">Temp15: T21</text>
</g>
<!-- ExpTemp15&#45;&gt;Temp15: T21 -->
<g id="edge58" class="edge"><title>ExpTemp15&#45;&gt;Temp15: T21</title>
<path fill="none" stroke="black" d="M2273.95,-215.697C2273.95,-207.983 2273.95,-198.712 2273.95,-190.112"/>
<polygon fill="black" stroke="black" points="2277.45,-190.104 2273.95,-180.104 2270.45,-190.104 2277.45,-190.104"/>
</g>
<!-- ExpBinary1 -->
<g id="node78" class="node"><title>ExpBinary1</title>
<ellipse fill="none" stroke="black" cx="2404.95" cy="-162" rx="53.0913" ry="18"/>
<text text-anchor="middle" x="2404.95" y="-158.3" font-family="Times,serif" font-size="14.00">ExpBinary1</text>
</g>
<!-- ExpMem1&#45;&gt;ExpBinary1 -->
<g id="edge73" class="edge"><title>ExpMem1&#45;&gt;ExpBinary1</title>
<path fill="none" stroke="black" d="M2401.18,-215.697C2401.73,-207.983 2402.39,-198.712 2403.01,-190.112"/>
<polygon fill="black" stroke="black" points="2406.5,-190.328 2403.72,-180.104 2399.52,-189.83 2406.5,-190.328"/>
</g>
<!-- StatCJump0 -->
<g id="node11" class="node"><title>StatCJump0</title>
<ellipse fill="none" stroke="black" cx="2950.95" cy="-306" rx="53.8905" ry="18"/>
<text text-anchor="middle" x="2950.95" y="-302.3" font-family="Times,serif" font-size="14.00">StatCJump0</text>
</g>
<!-- StatCJump0&#45;&gt;ExpConst2 -->
<g id="edge9" class="edge"><title>StatCJump0&#45;&gt;ExpConst2</title>
<path fill="none" stroke="black" d="M2965.64,-288.411C2973.36,-279.693 2982.97,-268.845 2991.5,-259.208"/>
<polygon fill="black" stroke="black" points="2994.35,-261.276 2998.36,-251.47 2989.11,-256.635 2994.35,-261.276"/>
</g>
<!-- NE0 -->
<g id="node12" class="node"><title>NE0</title>
<ellipse fill="none" stroke="black" cx="2789.95" cy="-234" rx="27" ry="18"/>
<text text-anchor="middle" x="2789.95" y="-230.3" font-family="Times,serif" font-size="14.00">NE0</text>
</g>
<!-- StatCJump0&#45;&gt;NE0 -->
<g id="edge7" class="edge"><title>StatCJump0&#45;&gt;NE0</title>
<path fill="none" stroke="black" d="M2918.42,-291.628C2893.1,-281.119 2857.14,-265.971 2825.95,-252 2824.15,-251.195 2822.3,-250.358 2820.45,-249.507"/>
<polygon fill="black" stroke="black" points="2821.74,-246.25 2811.2,-245.21 2818.79,-252.598 2821.74,-246.25"/>
</g>
<!-- ExpTemp19 -->
<g id="node13" class="node"><title>ExpTemp19</title>
<ellipse fill="none" stroke="black" cx="2889.95" cy="-234" rx="54.6905" ry="18"/>
<text text-anchor="middle" x="2889.95" y="-230.3" font-family="Times,serif" font-size="14.00">ExpTemp19</text>
</g>
<!-- StatCJump0&#45;&gt;ExpTemp19 -->
<g id="edge8" class="edge"><title>StatCJump0&#45;&gt;ExpTemp19</title>
<path fill="none" stroke="black" d="M2936.49,-288.411C2928.89,-279.693 2919.44,-268.845 2911.04,-259.208"/>
<polygon fill="black" stroke="black" points="2913.51,-256.71 2904.3,-251.47 2908.23,-261.309 2913.51,-256.71"/>
</g>
<!-- Label4: L82 -->
<g id="node14" class="node"><title>Label4: L82</title>
<ellipse fill="none" stroke="black" cx="3134.95" cy="-234" rx="53.8905" ry="18"/>
<text text-anchor="middle" x="3134.95" y="-230.3" font-family="Times,serif" font-size="14.00">Label4: L82</text>
</g>
<!-- StatCJump0&#45;&gt;Label4: L82 -->
<g id="edge10" class="edge"><title>StatCJump0&#45;&gt;Label4: L82</title>
<path fill="none" stroke="black" d="M2985.12,-291.998C3014.98,-280.639 3058.5,-264.082 3090.95,-251.737"/>
<polygon fill="black" stroke="black" points="3092.54,-254.878 3100.64,-248.051 3090.05,-248.336 3092.54,-254.878"/>
</g>
<!-- Label5: L83 -->
<g id="node15" class="node"><title>Label5: L83</title>
<ellipse fill="none" stroke="black" cx="3260.95" cy="-234" rx="53.8905" ry="18"/>
<text text-anchor="middle" x="3260.95" y="-230.3" font-family="Times,serif" font-size="14.00">Label5: L83</text>
</g>
<!-- StatCJump0&#45;&gt;Label5: L83 -->
<g id="edge11" class="edge"><title>StatCJump0&#45;&gt;Label5: L83</title>
<path fill="none" stroke="black" d="M2996.18,-296.032C3045.83,-286.016 3127.82,-268.972 3197.95,-252 3202.09,-250.996 3206.39,-249.919 3210.69,-248.812"/>
<polygon fill="black" stroke="black" points="3211.91,-252.112 3220.7,-246.197 3210.14,-245.34 3211.91,-252.112"/>
</g>
<!-- Temp19: T5 -->
<g id="node60" class="node"><title>Temp19: T5</title>
<ellipse fill="none" stroke="black" cx="2891.95" cy="-162" rx="55.4913" ry="18"/>
<text text-anchor="middle" x="2891.95" y="-158.3" font-family="Times,serif" font-size="14.00">Temp19: T5</text>
</g>
<!-- ExpTemp19&#45;&gt;Temp19: T5 -->
<g id="edge48" class="edge"><title>ExpTemp19&#45;&gt;Temp19: T5</title>
<path fill="none" stroke="black" d="M2890.44,-215.697C2890.66,-207.983 2890.92,-198.712 2891.17,-190.112"/>
<polygon fill="black" stroke="black" points="2894.67,-190.2 2891.46,-180.104 2887.67,-190 2894.67,-190.2"/>
</g>
<!-- ExpList0 -->
<g id="node16" class="node"><title>ExpList0</title>
<ellipse fill="none" stroke="black" cx="1150.95" cy="-162" rx="42.7926" ry="18"/>
<text text-anchor="middle" x="1150.95" y="-158.3" font-family="Times,serif" font-size="14.00">ExpList0</text>
</g>
<!-- ExpTemp7 -->
<g id="node17" class="node"><title>ExpTemp7</title>
<ellipse fill="none" stroke="black" cx="1198.95" cy="-90" rx="50.0912" ry="18"/>
<text text-anchor="middle" x="1198.95" y="-86.3" font-family="Times,serif" font-size="14.00">ExpTemp7</text>
</g>
<!-- ExpList0&#45;&gt;ExpTemp7 -->
<g id="edge12" class="edge"><title>ExpList0&#45;&gt;ExpTemp7</title>
<path fill="none" stroke="black" d="M1162.32,-144.411C1168.03,-136.077 1175.08,-125.797 1181.47,-116.488"/>
<polygon fill="black" stroke="black" points="1184.55,-118.183 1187.32,-107.956 1178.78,-114.224 1184.55,-118.183"/>
</g>
<!-- Temp7: T17 -->
<g id="node44" class="node"><title>Temp7: T17</title>
<ellipse fill="none" stroke="black" cx="1198.95" cy="-18" rx="55.4913" ry="18"/>
<text text-anchor="middle" x="1198.95" y="-14.3" font-family="Times,serif" font-size="14.00">Temp7: T17</text>
</g>
<!-- ExpTemp7&#45;&gt;Temp7: T17 -->
<g id="edge30" class="edge"><title>ExpTemp7&#45;&gt;Temp7: T17</title>
<path fill="none" stroke="black" d="M1198.95,-71.6966C1198.95,-63.9827 1198.95,-54.7125 1198.95,-46.1124"/>
<polygon fill="black" stroke="black" points="1202.45,-46.1043 1198.95,-36.1043 1195.45,-46.1044 1202.45,-46.1043"/>
</g>
<!-- ExpTemp4 -->
<g id="node18" class="node"><title>ExpTemp4</title>
<ellipse fill="none" stroke="black" cx="665.945" cy="-234" rx="50.0912" ry="18"/>
<text text-anchor="middle" x="665.945" y="-230.3" font-family="Times,serif" font-size="14.00">ExpTemp4</text>
</g>
<!-- Temp4: T17 -->
<g id="node19" class="node"><title>Temp4: T17</title>
<ellipse fill="none" stroke="black" cx="660.945" cy="-162" rx="55.4913" ry="18"/>
<text text-anchor="middle" x="660.945" y="-158.3" font-family="Times,serif" font-size="14.00">Temp4: T17</text>
</g>
<!-- ExpTemp4&#45;&gt;Temp4: T17 -->
<g id="edge13" class="edge"><title>ExpTemp4&#45;&gt;Temp4: T17</title>
<path fill="none" stroke="black" d="M664.709,-215.697C664.158,-207.983 663.496,-198.712 662.882,-190.112"/>
<polygon fill="black" stroke="black" points="666.371,-189.83 662.167,-180.104 659.388,-190.328 666.371,-189.83"/>
</g>
<!-- ExpName0 -->
<g id="node20" class="node"><title>ExpName0</title>
<ellipse fill="none" stroke="black" cx="1038.95" cy="-162" rx="50.8918" ry="18"/>
<text text-anchor="middle" x="1038.95" y="-158.3" font-family="Times,serif" font-size="14.00">ExpName0</text>
</g>
<!-- Label1: Tree@GetKey -->
<g id="node21" class="node"><title>Label1: Tree@GetKey</title>
<ellipse fill="none" stroke="black" cx="1038.95" cy="-90" rx="91.784" ry="18"/>
<text text-anchor="middle" x="1038.95" y="-86.3" font-family="Times,serif" font-size="14.00">Label1: Tree@GetKey</text>
</g>
<!-- ExpName0&#45;&gt;Label1: Tree@GetKey -->
<g id="edge14" class="edge"><title>ExpName0&#45;&gt;Label1: Tree@GetKey</title>
<path fill="none" stroke="black" d="M1038.95,-143.697C1038.95,-135.983 1038.95,-126.712 1038.95,-118.112"/>
<polygon fill="black" stroke="black" points="1042.45,-118.104 1038.95,-108.104 1035.45,-118.104 1042.45,-118.104"/>
</g>
<!-- StatMove3 -->
<g id="node22" class="node"><title>StatMove3</title>
<ellipse fill="none" stroke="black" cx="1094.95" cy="-306" rx="50.0912" ry="18"/>
<text text-anchor="middle" x="1094.95" y="-302.3" font-family="Times,serif" font-size="14.00">StatMove3</text>
</g>
<!-- ExpTemp6 -->
<g id="node23" class="node"><title>ExpTemp6</title>
<ellipse fill="none" stroke="black" cx="920.945" cy="-234" rx="50.0912" ry="18"/>
<text text-anchor="middle" x="920.945" y="-230.3" font-family="Times,serif" font-size="14.00">ExpTemp6</text>
</g>
<!-- StatMove3&#45;&gt;ExpTemp6 -->
<g id="edge15" class="edge"><title>StatMove3&#45;&gt;ExpTemp6</title>
<path fill="none" stroke="black" d="M1062.62,-291.998C1034.42,-280.652 993.332,-264.121 962.657,-251.78"/>
<polygon fill="black" stroke="black" points="963.676,-248.418 953.092,-247.933 961.063,-254.912 963.676,-248.418"/>
</g>
<!-- ExpCall0 -->
<g id="node24" class="node"><title>ExpCall0</title>
<ellipse fill="none" stroke="black" cx="1094.95" cy="-234" rx="44.393" ry="18"/>
<text text-anchor="middle" x="1094.95" y="-230.3" font-family="Times,serif" font-size="14.00">ExpCall0</text>
</g>
<!-- StatMove3&#45;&gt;ExpCall0 -->
<g id="edge16" class="edge"><title>StatMove3&#45;&gt;ExpCall0</title>
<path fill="none" stroke="black" d="M1094.95,-287.697C1094.95,-279.983 1094.95,-270.712 1094.95,-262.112"/>
<polygon fill="black" stroke="black" points="1098.45,-262.104 1094.95,-252.104 1091.45,-262.104 1098.45,-262.104"/>
</g>
<!-- Temp6: T18 -->
<g id="node77" class="node"><title>Temp6: T18</title>
<ellipse fill="none" stroke="black" cx="914.945" cy="-162" rx="55.4913" ry="18"/>
<text text-anchor="middle" x="914.945" y="-158.3" font-family="Times,serif" font-size="14.00">Temp6: T18</text>
</g>
<!-- ExpTemp6&#45;&gt;Temp6: T18 -->
<g id="edge66" class="edge"><title>ExpTemp6&#45;&gt;Temp6: T18</title>
<path fill="none" stroke="black" d="M919.462,-215.697C918.801,-207.983 918.006,-198.712 917.269,-190.112"/>
<polygon fill="black" stroke="black" points="920.753,-189.769 916.411,-180.104 913.778,-190.367 920.753,-189.769"/>
</g>
<!-- ExpCall0&#45;&gt;ExpList0 -->
<g id="edge52" class="edge"><title>ExpCall0&#45;&gt;ExpList0</title>
<path fill="none" stroke="black" d="M1107.93,-216.765C1114.83,-208.143 1123.45,-197.365 1131.16,-187.727"/>
<polygon fill="black" stroke="black" points="1134.12,-189.629 1137.64,-179.633 1128.66,-185.256 1134.12,-189.629"/>
</g>
<!-- ExpCall0&#45;&gt;ExpName0 -->
<g id="edge51" class="edge"><title>ExpCall0&#45;&gt;ExpName0</title>
<path fill="none" stroke="black" d="M1081.96,-216.765C1075.06,-208.143 1066.44,-197.365 1058.73,-187.727"/>
<polygon fill="black" stroke="black" points="1061.23,-185.256 1052.25,-179.633 1055.77,-189.629 1061.23,-185.256"/>
</g>
<!-- StatMove1 -->
<g id="node25" class="node"><title>StatMove1</title>
<ellipse fill="none" stroke="black" cx="536.945" cy="-306" rx="50.0912" ry="18"/>
<text text-anchor="middle" x="536.945" y="-302.3" font-family="Times,serif" font-size="14.00">StatMove1</text>
</g>
<!-- ExpTemp2 -->
<g id="node26" class="node"><title>ExpTemp2</title>
<ellipse fill="none" stroke="black" cx="415.945" cy="-234" rx="50.0912" ry="18"/>
<text text-anchor="middle" x="415.945" y="-230.3" font-family="Times,serif" font-size="14.00">ExpTemp2</text>
</g>
<!-- StatMove1&#45;&gt;ExpTemp2 -->
<g id="edge17" class="edge"><title>StatMove1&#45;&gt;ExpTemp2</title>
<path fill="none" stroke="black" d="M511.58,-290.326C493.752,-280.012 469.695,-266.095 450.17,-254.8"/>
<polygon fill="black" stroke="black" points="451.686,-251.633 441.277,-249.655 448.181,-257.692 451.686,-251.633"/>
</g>
<!-- ExpTemp3 -->
<g id="node27" class="node"><title>ExpTemp3</title>
<ellipse fill="none" stroke="black" cx="536.945" cy="-234" rx="50.0912" ry="18"/>
<text text-anchor="middle" x="536.945" y="-230.3" font-family="Times,serif" font-size="14.00">ExpTemp3</text>
</g>
<!-- StatMove1&#45;&gt;ExpTemp3 -->
<g id="edge18" class="edge"><title>StatMove1&#45;&gt;ExpTemp3</title>
<path fill="none" stroke="black" d="M536.945,-287.697C536.945,-279.983 536.945,-270.712 536.945,-262.112"/>
<polygon fill="black" stroke="black" points="540.445,-262.104 536.945,-252.104 533.445,-262.104 540.445,-262.104"/>
</g>
<!-- Temp2: T18 -->
<g id="node57" class="node"><title>Temp2: T18</title>
<ellipse fill="none" stroke="black" cx="412.945" cy="-162" rx="55.4913" ry="18"/>
<text text-anchor="middle" x="412.945" y="-158.3" font-family="Times,serif" font-size="14.00">Temp2: T18</text>
</g>
<!-- ExpTemp2&#45;&gt;Temp2: T18 -->
<g id="edge46" class="edge"><title>ExpTemp2&#45;&gt;Temp2: T18</title>
<path fill="none" stroke="black" d="M415.204,-215.697C414.873,-207.983 414.476,-198.712 414.107,-190.112"/>
<polygon fill="black" stroke="black" points="417.603,-189.945 413.678,-180.104 410.61,-190.245 417.603,-189.945"/>
</g>
<!-- Temp3: T3 -->
<g id="node56" class="node"><title>Temp3: T3</title>
<ellipse fill="none" stroke="black" cx="536.945" cy="-162" rx="50.8918" ry="18"/>
<text text-anchor="middle" x="536.945" y="-158.3" font-family="Times,serif" font-size="14.00">Temp3: T3</text>
</g>
<!-- ExpTemp3&#45;&gt;Temp3: T3 -->
<g id="edge45" class="edge"><title>ExpTemp3&#45;&gt;Temp3: T3</title>
<path fill="none" stroke="black" d="M536.945,-215.697C536.945,-207.983 536.945,-198.712 536.945,-190.112"/>
<polygon fill="black" stroke="black" points="540.445,-190.104 536.945,-180.104 533.445,-190.104 540.445,-190.104"/>
</g>
<!-- Value0: 4 -->
<g id="node29" class="node"><title>Value0: 4</title>
<ellipse fill="none" stroke="black" cx="878.945" cy="-18" rx="45.4919" ry="18"/>
<text text-anchor="middle" x="878.945" y="-14.3" font-family="Times,serif" font-size="14.00">Value0: 4</text>
</g>
<!-- ExpConst0&#45;&gt;Value0: 4 -->
<g id="edge19" class="edge"><title>ExpConst0&#45;&gt;Value0: 4</title>
<path fill="none" stroke="black" d="M878.945,-71.6966C878.945,-63.9827 878.945,-54.7125 878.945,-46.1124"/>
<polygon fill="black" stroke="black" points="882.445,-46.1043 878.945,-36.1043 875.445,-46.1044 882.445,-46.1043"/>
</g>
<!-- ExpTemp18 -->
<g id="node31" class="node"><title>ExpTemp18</title>
<ellipse fill="none" stroke="black" cx="2845.95" cy="-90" rx="54.6905" ry="18"/>
<text text-anchor="middle" x="2845.95" y="-86.3" font-family="Times,serif" font-size="14.00">ExpTemp18</text>
</g>
<!-- Temp18: T21 -->
<g id="node32" class="node"><title>Temp18: T21</title>
<ellipse fill="none" stroke="black" cx="2845.95" cy="-18" rx="59.5901" ry="18"/>
<text text-anchor="middle" x="2845.95" y="-14.3" font-family="Times,serif" font-size="14.00">Temp18: T21</text>
</g>
<!-- ExpTemp18&#45;&gt;Temp18: T21 -->
<g id="edge21" class="edge"><title>ExpTemp18&#45;&gt;Temp18: T21</title>
<path fill="none" stroke="black" d="M2845.95,-71.6966C2845.95,-63.9827 2845.95,-54.7125 2845.95,-46.1124"/>
<polygon fill="black" stroke="black" points="2849.45,-46.1043 2845.95,-36.1043 2842.45,-46.1044 2849.45,-46.1043"/>
</g>
<!-- Temp5: $fp -->
<g id="node37" class="node"><title>Temp5: $fp</title>
<ellipse fill="none" stroke="black" cx="680.945" cy="-18" rx="52.7911" ry="18"/>
<text text-anchor="middle" x="680.945" y="-14.3" font-family="Times,serif" font-size="14.00">Temp5: $fp</text>
</g>
<!-- ExpTemp5&#45;&gt;Temp5: $fp -->
<g id="edge26" class="edge"><title>ExpTemp5&#45;&gt;Temp5: $fp</title>
<path fill="none" stroke="black" d="M680.945,-71.6966C680.945,-63.9827 680.945,-54.7125 680.945,-46.1124"/>
<polygon fill="black" stroke="black" points="684.445,-46.1043 680.945,-36.1043 677.445,-46.1044 684.445,-46.1043"/>
</g>
<!-- ExpTemp12 -->
<g id="node35" class="node"><title>ExpTemp12</title>
<ellipse fill="none" stroke="black" cx="1819.95" cy="-234" rx="54.6905" ry="18"/>
<text text-anchor="middle" x="1819.95" y="-230.3" font-family="Times,serif" font-size="14.00">ExpTemp12</text>
</g>
<!-- Temp12: T4 -->
<g id="node36" class="node"><title>Temp12: T4</title>
<ellipse fill="none" stroke="black" cx="1874.95" cy="-162" rx="55.4913" ry="18"/>
<text text-anchor="middle" x="1874.95" y="-158.3" font-family="Times,serif" font-size="14.00">Temp12: T4</text>
</g>
<!-- ExpTemp12&#45;&gt;Temp12: T4 -->
<g id="edge25" class="edge"><title>ExpTemp12&#45;&gt;Temp12: T4</title>
<path fill="none" stroke="black" d="M1832.98,-216.411C1839.66,-207.906 1847.94,-197.372 1855.37,-187.914"/>
<polygon fill="black" stroke="black" points="1858.2,-189.982 1861.62,-179.956 1852.69,-185.657 1858.2,-189.982"/>
</g>
<!-- ExpTemp1 -->
<g id="node38" class="node"><title>ExpTemp1</title>
<ellipse fill="none" stroke="black" cx="293.945" cy="-234" rx="50.0912" ry="18"/>
<text text-anchor="middle" x="293.945" y="-230.3" font-family="Times,serif" font-size="14.00">ExpTemp1</text>
</g>
<!-- Temp1: T4 -->
<g id="node39" class="node"><title>Temp1: T4</title>
<ellipse fill="none" stroke="black" cx="288.945" cy="-162" rx="50.8918" ry="18"/>
<text text-anchor="middle" x="288.945" y="-158.3" font-family="Times,serif" font-size="14.00">Temp1: T4</text>
</g>
<!-- ExpTemp1&#45;&gt;Temp1: T4 -->
<g id="edge27" class="edge"><title>ExpTemp1&#45;&gt;Temp1: T4</title>
<path fill="none" stroke="black" d="M292.709,-215.697C292.158,-207.983 291.496,-198.712 290.882,-190.112"/>
<polygon fill="black" stroke="black" points="294.371,-189.83 290.167,-180.104 287.388,-190.328 294.371,-189.83"/>
</g>
<!-- ExpTemp14 -->
<g id="node40" class="node"><title>ExpTemp14</title>
<ellipse fill="none" stroke="black" cx="2137.95" cy="-234" rx="54.6905" ry="18"/>
<text text-anchor="middle" x="2137.95" y="-230.3" font-family="Times,serif" font-size="14.00">ExpTemp14</text>
</g>
<!-- Temp14: T5 -->
<g id="node41" class="node"><title>Temp14: T5</title>
<ellipse fill="none" stroke="black" cx="2140.95" cy="-162" rx="55.4913" ry="18"/>
<text text-anchor="middle" x="2140.95" y="-158.3" font-family="Times,serif" font-size="14.00">Temp14: T5</text>
</g>
<!-- ExpTemp14&#45;&gt;Temp14: T5 -->
<g id="edge28" class="edge"><title>ExpTemp14&#45;&gt;Temp14: T5</title>
<path fill="none" stroke="black" d="M2138.69,-215.697C2139.02,-207.983 2139.41,-198.712 2139.78,-190.112"/>
<polygon fill="black" stroke="black" points="2143.28,-190.245 2140.21,-180.104 2136.29,-189.945 2143.28,-190.245"/>
</g>
<!-- ExpName2 -->
<g id="node42" class="node"><title>ExpName2</title>
<ellipse fill="none" stroke="black" cx="2663.95" cy="-162" rx="50.8918" ry="18"/>
<text text-anchor="middle" x="2663.95" y="-158.3" font-family="Times,serif" font-size="14.00">ExpName2</text>
</g>
<!-- Label3: Tree@GetHas_Left -->
<g id="node43" class="node"><title>Label3: Tree@GetHas_Left</title>
<ellipse fill="none" stroke="black" cx="2663.95" cy="-90" rx="109.681" ry="18"/>
<text text-anchor="middle" x="2663.95" y="-86.3" font-family="Times,serif" font-size="14.00">Label3: Tree@GetHas_Left</text>
</g>
<!-- ExpName2&#45;&gt;Label3: Tree@GetHas_Left -->
<g id="edge29" class="edge"><title>ExpName2&#45;&gt;Label3: Tree@GetHas_Left</title>
<path fill="none" stroke="black" d="M2663.95,-143.697C2663.95,-135.983 2663.95,-126.712 2663.95,-118.112"/>
<polygon fill="black" stroke="black" points="2667.45,-118.104 2663.95,-108.104 2660.45,-118.104 2667.45,-118.104"/>
</g>
<!-- ExpTemp0 -->
<g id="node45" class="node"><title>ExpTemp0</title>
<ellipse fill="none" stroke="black" cx="175.945" cy="-234" rx="50.0912" ry="18"/>
<text text-anchor="middle" x="175.945" y="-230.3" font-family="Times,serif" font-size="14.00">ExpTemp0</text>
</g>
<!-- Temp0: T20 -->
<g id="node46" class="node"><title>Temp0: T20</title>
<ellipse fill="none" stroke="black" cx="164.945" cy="-162" rx="55.4913" ry="18"/>
<text text-anchor="middle" x="164.945" y="-158.3" font-family="Times,serif" font-size="14.00">Temp0: T20</text>
</g>
<!-- ExpTemp0&#45;&gt;Temp0: T20 -->
<g id="edge31" class="edge"><title>ExpTemp0&#45;&gt;Temp0: T20</title>
<path fill="none" stroke="black" d="M173.226,-215.697C172.014,-207.983 170.557,-198.712 169.206,-190.112"/>
<polygon fill="black" stroke="black" points="172.643,-189.44 167.633,-180.104 165.728,-190.526 172.643,-189.44"/>
</g>
<!-- StatList0 -->
<g id="node47" class="node"><title>StatList0</title>
<ellipse fill="none" stroke="black" cx="1454.95" cy="-378" rx="42.4939" ry="18"/>
<text text-anchor="middle" x="1454.95" y="-374.3" font-family="Times,serif" font-size="14.00">StatList0</text>
</g>
<!-- StatList0&#45;&gt;StatMove4 -->
<g id="edge37" class="edge"><title>StatList0&#45;&gt;StatMove4</title>
<path fill="none" stroke="black" d="M1440.1,-360.765C1432.06,-351.969 1421.97,-340.928 1413.02,-331.144"/>
<polygon fill="black" stroke="black" points="1415.48,-328.652 1406.15,-323.633 1410.32,-333.375 1415.48,-328.652"/>
</g>
<!-- StatList0&#45;&gt;StatMove7 -->
<g id="edge41" class="edge"><title>StatList0&#45;&gt;StatMove7</title>
<path fill="none" stroke="black" d="M1496.12,-373.481C1630.8,-361.969 2058.58,-325.407 2215.5,-311.995"/>
<polygon fill="black" stroke="black" points="2216.22,-315.447 2225.88,-311.108 2215.62,-308.472 2216.22,-315.447"/>
</g>
<!-- StatList0&#45;&gt;StatCJump0 -->
<g id="edge43" class="edge"><title>StatList0&#45;&gt;StatCJump0</title>
<path fill="none" stroke="black" d="M1496.87,-375.07C1646.18,-368.192 2165.97,-344.214 2594.95,-324 2697.45,-319.17 2816.55,-313.463 2887.72,-310.043"/>
<polygon fill="black" stroke="black" points="2888.05,-313.532 2897.87,-309.555 2887.71,-306.54 2888.05,-313.532"/>
</g>
<!-- StatList0&#45;&gt;StatMove3 -->
<g id="edge36" class="edge"><title>StatList0&#45;&gt;StatMove3</title>
<path fill="none" stroke="black" d="M1417.44,-369.707C1353.11,-357.199 1221.58,-331.623 1147.92,-317.3"/>
<polygon fill="black" stroke="black" points="1148.41,-313.83 1137.92,-315.356 1147.07,-320.701 1148.41,-313.83"/>
</g>
<!-- StatList0&#45;&gt;StatMove1 -->
<g id="edge34" class="edge"><title>StatList0&#45;&gt;StatMove1</title>
<path fill="none" stroke="black" d="M1413.59,-374.206C1302.68,-366.662 989.382,-345.035 728.945,-324 683.974,-320.368 633.117,-315.846 595.048,-312.379"/>
<polygon fill="black" stroke="black" points="594.942,-308.855 584.665,-311.431 594.305,-315.826 594.942,-308.855"/>
</g>
<!-- StatLabel0 -->
<g id="node48" class="node"><title>StatLabel0</title>
<ellipse fill="none" stroke="black" cx="115.945" cy="-306" rx="48.9926" ry="18"/>
<text text-anchor="middle" x="115.945" y="-302.3" font-family="Times,serif" font-size="14.00">StatLabel0</text>
</g>
<!-- StatList0&#45;&gt;StatLabel0 -->
<g id="edge32" class="edge"><title>StatList0&#45;&gt;StatLabel0</title>
<path fill="none" stroke="black" d="M1412.7,-376.67C1256.26,-375.128 695.134,-366.762 234.945,-324 213.436,-322.001 189.865,-318.84 169.416,-315.782"/>
<polygon fill="black" stroke="black" points="169.758,-312.294 159.344,-314.247 168.703,-319.214 169.758,-312.294"/>
</g>
<!-- StatMove0 -->
<g id="node49" class="node"><title>StatMove0</title>
<ellipse fill="none" stroke="black" cx="293.945" cy="-306" rx="50.0912" ry="18"/>
<text text-anchor="middle" x="293.945" y="-302.3" font-family="Times,serif" font-size="14.00">StatMove0</text>
</g>
<!-- StatList0&#45;&gt;StatMove0 -->
<g id="edge33" class="edge"><title>StatList0&#45;&gt;StatMove0</title>
<path fill="none" stroke="black" d="M1413.01,-375.295C1277.57,-369.665 839.642,-350.51 477.945,-324 435.721,-320.905 388.132,-316.483 351.931,-312.925"/>
<polygon fill="black" stroke="black" points="351.855,-309.401 341.559,-311.899 351.166,-316.367 351.855,-309.401"/>
</g>
<!-- StatMove2 -->
<g id="node50" class="node"><title>StatMove2</title>
<ellipse fill="none" stroke="black" cx="787.945" cy="-306" rx="50.0912" ry="18"/>
<text text-anchor="middle" x="787.945" y="-302.3" font-family="Times,serif" font-size="14.00">StatMove2</text>
</g>
<!-- StatList0&#45;&gt;StatMove2 -->
<g id="edge35" class="edge"><title>StatList0&#45;&gt;StatMove2</title>
<path fill="none" stroke="black" d="M1414.23,-372.727C1300.35,-360.776 978.331,-326.98 845.912,-313.083"/>
<polygon fill="black" stroke="black" points="845.889,-309.562 835.579,-311.999 845.159,-316.524 845.889,-309.562"/>
</g>
<!-- StatMove5 -->
<g id="node51" class="node"><title>StatMove5</title>
<ellipse fill="none" stroke="black" cx="1518.95" cy="-306" rx="50.0912" ry="18"/>
<text text-anchor="middle" x="1518.95" y="-302.3" font-family="Times,serif" font-size="14.00">StatMove5</text>
</g>
<!-- StatList0&#45;&gt;StatMove5 -->
<g id="edge38" class="edge"><title>StatList0&#45;&gt;StatMove5</title>
<path fill="none" stroke="black" d="M1469.79,-360.765C1477.83,-351.969 1487.93,-340.928 1496.87,-331.144"/>
<polygon fill="black" stroke="black" points="1499.57,-333.375 1503.74,-323.633 1494.41,-328.652 1499.57,-333.375"/>
</g>
<!-- StatExp0 -->
<g id="node52" class="node"><title>StatExp0</title>
<ellipse fill="none" stroke="black" cx="1724.95" cy="-306" rx="42.7926" ry="18"/>
<text text-anchor="middle" x="1724.95" y="-302.3" font-family="Times,serif" font-size="14.00">StatExp0</text>
</g>
<!-- StatList0&#45;&gt;StatExp0 -->
<g id="edge39" class="edge"><title>StatList0&#45;&gt;StatExp0</title>
<path fill="none" stroke="black" d="M1489.97,-367.92C1538.49,-355.34 1626.22,-332.594 1679.67,-318.738"/>
<polygon fill="black" stroke="black" points="1680.76,-322.072 1689.56,-316.175 1679,-315.296 1680.76,-322.072"/>
</g>
<!-- StatMove6 -->
<g id="node53" class="node"><title>StatMove6</title>
<ellipse fill="none" stroke="black" cx="2007.95" cy="-306" rx="50.0912" ry="18"/>
<text text-anchor="middle" x="2007.95" y="-302.3" font-family="Times,serif" font-size="14.00">StatMove6</text>
</g>
<!-- StatList0&#45;&gt;StatMove6 -->
<g id="edge40" class="edge"><title>StatList0&#45;&gt;StatMove6</title>
<path fill="none" stroke="black" d="M1495.16,-371.909C1592.17,-359.63 1839.28,-328.35 1951.26,-314.176"/>
<polygon fill="black" stroke="black" points="1951.86,-317.627 1961.34,-312.899 1950.98,-310.683 1951.86,-317.627"/>
</g>
<!-- StatMove8 -->
<g id="node54" class="node"><title>StatMove8</title>
<ellipse fill="none" stroke="black" cx="2535.95" cy="-306" rx="50.0912" ry="18"/>
<text text-anchor="middle" x="2535.95" y="-302.3" font-family="Times,serif" font-size="14.00">StatMove8</text>
</g>
<!-- StatList0&#45;&gt;StatMove8 -->
<g id="edge42" class="edge"><title>StatList0&#45;&gt;StatMove8</title>
<path fill="none" stroke="black" d="M1496.56,-374.833C1622.58,-368.195 2011.18,-347.181 2332.95,-324 2381.89,-320.474 2437.4,-315.777 2478,-312.213"/>
<polygon fill="black" stroke="black" points="2478.33,-315.698 2487.98,-311.333 2477.71,-308.725 2478.33,-315.698"/>
</g>
<!-- Label0: L87 -->
<g id="node55" class="node"><title>Label0: L87</title>
<ellipse fill="none" stroke="black" cx="53.9452" cy="-234" rx="53.8905" ry="18"/>
<text text-anchor="middle" x="53.9452" y="-230.3" font-family="Times,serif" font-size="14.00">Label0: L87</text>
</g>
<!-- StatLabel0&#45;&gt;Label0: L87 -->
<g id="edge44" class="edge"><title>StatLabel0&#45;&gt;Label0: L87</title>
<path fill="none" stroke="black" d="M101.565,-288.765C93.7748,-279.969 83.996,-268.928 75.3299,-259.144"/>
<polygon fill="black" stroke="black" points="77.9281,-256.799 68.6777,-251.633 72.688,-261.44 77.9281,-256.799"/>
</g>
<!-- StatMove0&#45;&gt;ExpTemp1 -->
<g id="edge75" class="edge"><title>StatMove0&#45;&gt;ExpTemp1</title>
<path fill="none" stroke="black" d="M293.945,-287.697C293.945,-279.983 293.945,-270.712 293.945,-262.112"/>
<polygon fill="black" stroke="black" points="297.445,-262.104 293.945,-252.104 290.445,-262.104 297.445,-262.104"/>
</g>
<!-- StatMove0&#45;&gt;ExpTemp0 -->
<g id="edge74" class="edge"><title>StatMove0&#45;&gt;ExpTemp0</title>
<path fill="none" stroke="black" d="M269.209,-290.326C251.823,-280.012 228.363,-266.095 209.322,-254.8"/>
<polygon fill="black" stroke="black" points="211.036,-251.747 200.649,-249.655 207.464,-257.767 211.036,-251.747"/>
</g>
<!-- StatMove2&#45;&gt;ExpMem0 -->
<g id="edge50" class="edge"><title>StatMove2&#45;&gt;ExpMem0</title>
<path fill="none" stroke="black" d="M787.945,-287.697C787.945,-279.983 787.945,-270.712 787.945,-262.112"/>
<polygon fill="black" stroke="black" points="791.445,-262.104 787.945,-252.104 784.445,-262.104 791.445,-262.104"/>
</g>
<!-- StatMove2&#45;&gt;ExpTemp4 -->
<g id="edge49" class="edge"><title>StatMove2&#45;&gt;ExpTemp4</title>
<path fill="none" stroke="black" d="M762.37,-290.326C744.314,-279.965 719.92,-265.969 700.186,-254.646"/>
<polygon fill="black" stroke="black" points="701.902,-251.596 691.487,-249.655 698.419,-257.668 701.902,-251.596"/>
</g>
<!-- ExpTemp10 -->
<g id="node58" class="node"><title>ExpTemp10</title>
<ellipse fill="none" stroke="black" cx="1518.95" cy="-234" rx="54.6905" ry="18"/>
<text text-anchor="middle" x="1518.95" y="-230.3" font-family="Times,serif" font-size="14.00">ExpTemp10</text>
</g>
<!-- StatMove5&#45;&gt;ExpTemp10 -->
<g id="edge55" class="edge"><title>StatMove5&#45;&gt;ExpTemp10</title>
<path fill="none" stroke="black" d="M1518.95,-287.697C1518.95,-279.983 1518.95,-270.712 1518.95,-262.112"/>
<polygon fill="black" stroke="black" points="1522.45,-262.104 1518.95,-252.104 1515.45,-262.104 1522.45,-262.104"/>
</g>
<!-- ExpCall1 -->
<g id="node64" class="node"><title>ExpCall1</title>
<ellipse fill="none" stroke="black" cx="1646.95" cy="-234" rx="44.393" ry="18"/>
<text text-anchor="middle" x="1646.95" y="-230.3" font-family="Times,serif" font-size="14.00">ExpCall1</text>
</g>
<!-- StatMove5&#45;&gt;ExpCall1 -->
<g id="edge56" class="edge"><title>StatMove5&#45;&gt;ExpCall1</title>
<path fill="none" stroke="black" d="M1545.16,-290.666C1564.65,-280.004 1591.44,-265.356 1612.64,-253.762"/>
<polygon fill="black" stroke="black" points="1614.55,-256.707 1621.64,-248.838 1611.19,-250.566 1614.55,-256.707"/>
</g>
<!-- StatExp0&#45;&gt;ExpTemp12 -->
<g id="edge63" class="edge"><title>StatExp0&#45;&gt;ExpTemp12</title>
<path fill="none" stroke="black" d="M1745.56,-289.811C1758.7,-280.13 1775.93,-267.435 1790.49,-256.7"/>
<polygon fill="black" stroke="black" points="1792.74,-259.394 1798.71,-250.644 1788.59,-253.758 1792.74,-259.394"/>
</g>
<!-- StatMove6&#45;&gt;ExpTemp14 -->
<g id="edge68" class="edge"><title>StatMove6&#45;&gt;ExpTemp14</title>
<path fill="none" stroke="black" d="M2034.57,-290.666C2053.85,-280.282 2080.15,-266.119 2101.4,-254.677"/>
<polygon fill="black" stroke="black" points="2103.32,-257.62 2110.46,-249.798 2100,-251.457 2103.32,-257.62"/>
</g>
<!-- ExpTemp13 -->
<g id="node73" class="node"><title>ExpTemp13</title>
<ellipse fill="none" stroke="black" cx="2007.95" cy="-234" rx="54.6905" ry="18"/>
<text text-anchor="middle" x="2007.95" y="-230.3" font-family="Times,serif" font-size="14.00">ExpTemp13</text>
</g>
<!-- StatMove6&#45;&gt;ExpTemp13 -->
<g id="edge67" class="edge"><title>StatMove6&#45;&gt;ExpTemp13</title>
<path fill="none" stroke="black" d="M2007.95,-287.697C2007.95,-279.983 2007.95,-270.712 2007.95,-262.112"/>
<polygon fill="black" stroke="black" points="2011.45,-262.104 2007.95,-252.104 2004.45,-262.104 2011.45,-262.104"/>
</g>
<!-- ExpTemp17 -->
<g id="node61" class="node"><title>ExpTemp17</title>
<ellipse fill="none" stroke="black" cx="2535.95" cy="-234" rx="54.6905" ry="18"/>
<text text-anchor="middle" x="2535.95" y="-230.3" font-family="Times,serif" font-size="14.00">ExpTemp17</text>
</g>
<!-- StatMove8&#45;&gt;ExpTemp17 -->
<g id="edge76" class="edge"><title>StatMove8&#45;&gt;ExpTemp17</title>
<path fill="none" stroke="black" d="M2535.95,-287.697C2535.95,-279.983 2535.95,-270.712 2535.95,-262.112"/>
<polygon fill="black" stroke="black" points="2539.45,-262.104 2535.95,-252.104 2532.45,-262.104 2539.45,-262.104"/>
</g>
<!-- ExpCall2 -->
<g id="node80" class="node"><title>ExpCall2</title>
<ellipse fill="none" stroke="black" cx="2663.95" cy="-234" rx="44.393" ry="18"/>
<text text-anchor="middle" x="2663.95" y="-230.3" font-family="Times,serif" font-size="14.00">ExpCall2</text>
</g>
<!-- StatMove8&#45;&gt;ExpCall2 -->
<g id="edge77" class="edge"><title>StatMove8&#45;&gt;ExpCall2</title>
<path fill="none" stroke="black" d="M2562.16,-290.666C2581.65,-280.004 2608.44,-265.356 2629.64,-253.762"/>
<polygon fill="black" stroke="black" points="2631.55,-256.707 2638.64,-248.838 2628.19,-250.566 2631.55,-256.707"/>
</g>
<!-- Temp10: T20 -->
<g id="node59" class="node"><title>Temp10: T20</title>
<ellipse fill="none" stroke="black" cx="1518.95" cy="-162" rx="59.5901" ry="18"/>
<text text-anchor="middle" x="1518.95" y="-158.3" font-family="Times,serif" font-size="14.00">Temp10: T20</text>
</g>
<!-- ExpTemp10&#45;&gt;Temp10: T20 -->
<g id="edge47" class="edge"><title>ExpTemp10&#45;&gt;Temp10: T20</title>
<path fill="none" stroke="black" d="M1518.95,-215.697C1518.95,-207.983 1518.95,-198.712 1518.95,-190.112"/>
<polygon fill="black" stroke="black" points="1522.45,-190.104 1518.95,-180.104 1515.45,-190.104 1522.45,-190.104"/>
</g>
<!-- Temp17: T22 -->
<g id="node62" class="node"><title>Temp17: T22</title>
<ellipse fill="none" stroke="black" cx="2535.95" cy="-162" rx="59.5901" ry="18"/>
<text text-anchor="middle" x="2535.95" y="-158.3" font-family="Times,serif" font-size="14.00">Temp17: T22</text>
</g>
<!-- ExpTemp17&#45;&gt;Temp17: T22 -->
<g id="edge53" class="edge"><title>ExpTemp17&#45;&gt;Temp17: T22</title>
<path fill="none" stroke="black" d="M2535.95,-215.697C2535.95,-207.983 2535.95,-198.712 2535.95,-190.112"/>
<polygon fill="black" stroke="black" points="2539.45,-190.104 2535.95,-180.104 2532.45,-190.104 2539.45,-190.104"/>
</g>
<!-- ExpName1 -->
<g id="node68" class="node"><title>ExpName1</title>
<ellipse fill="none" stroke="black" cx="1646.95" cy="-162" rx="50.8918" ry="18"/>
<text text-anchor="middle" x="1646.95" y="-158.3" font-family="Times,serif" font-size="14.00">ExpName1</text>
</g>
<!-- ExpCall1&#45;&gt;ExpName1 -->
<g id="edge60" class="edge"><title>ExpCall1&#45;&gt;ExpName1</title>
<path fill="none" stroke="black" d="M1646.95,-215.697C1646.95,-207.983 1646.95,-198.712 1646.95,-190.112"/>
<polygon fill="black" stroke="black" points="1650.45,-190.104 1646.95,-180.104 1643.45,-190.104 1650.45,-190.104"/>
</g>
<!-- ExpList1 -->
<g id="node70" class="node"><title>ExpList1</title>
<ellipse fill="none" stroke="black" cx="1758.95" cy="-162" rx="42.7926" ry="18"/>
<text text-anchor="middle" x="1758.95" y="-158.3" font-family="Times,serif" font-size="14.00">ExpList1</text>
</g>
<!-- ExpCall1&#45;&gt;ExpList1 -->
<g id="edge61" class="edge"><title>ExpCall1&#45;&gt;ExpList1</title>
<path fill="none" stroke="black" d="M1670.15,-218.496C1686.67,-208.172 1709.07,-194.174 1727.23,-182.819"/>
<polygon fill="black" stroke="black" points="1729.14,-185.753 1735.77,-177.485 1725.43,-179.818 1729.14,-185.753"/>
</g>
<!-- ExpConst1 -->
<g id="node65" class="node"><title>ExpConst1</title>
<ellipse fill="none" stroke="black" cx="2485.95" cy="-90" rx="50.0912" ry="18"/>
<text text-anchor="middle" x="2485.95" y="-86.3" font-family="Times,serif" font-size="14.00">ExpConst1</text>
</g>
<!-- Value1: 4 -->
<g id="node66" class="node"><title>Value1: 4</title>
<ellipse fill="none" stroke="black" cx="2485.95" cy="-18" rx="45.4919" ry="18"/>
<text text-anchor="middle" x="2485.95" y="-14.3" font-family="Times,serif" font-size="14.00">Value1: 4</text>
</g>
<!-- ExpConst1&#45;&gt;Value1: 4 -->
<g id="edge57" class="edge"><title>ExpConst1&#45;&gt;Value1: 4</title>
<path fill="none" stroke="black" d="M2485.95,-71.6966C2485.95,-63.9827 2485.95,-54.7125 2485.95,-46.1124"/>
<polygon fill="black" stroke="black" points="2489.45,-46.1043 2485.95,-36.1043 2482.45,-46.1044 2489.45,-46.1043"/>
</g>
<!-- Label2: print -->
<g id="node69" class="node"><title>Label2: print</title>
<ellipse fill="none" stroke="black" cx="1637.95" cy="-90" rx="56.59" ry="18"/>
<text text-anchor="middle" x="1637.95" y="-86.3" font-family="Times,serif" font-size="14.00">Label2: print</text>
</g>
<!-- ExpName1&#45;&gt;Label2: print -->
<g id="edge59" class="edge"><title>ExpName1&#45;&gt;Label2: print</title>
<path fill="none" stroke="black" d="M1644.72,-143.697C1643.73,-135.983 1642.54,-126.712 1641.43,-118.112"/>
<polygon fill="black" stroke="black" points="1644.89,-117.576 1640.14,-108.104 1637.95,-118.469 1644.89,-117.576"/>
</g>
<!-- ExpTemp11 -->
<g id="node71" class="node"><title>ExpTemp11</title>
<ellipse fill="none" stroke="black" cx="1766.95" cy="-90" rx="54.6905" ry="18"/>
<text text-anchor="middle" x="1766.95" y="-86.3" font-family="Times,serif" font-size="14.00">ExpTemp11</text>
</g>
<!-- ExpList1&#45;&gt;ExpTemp11 -->
<g id="edge69" class="edge"><title>ExpList1&#45;&gt;ExpTemp11</title>
<path fill="none" stroke="black" d="M1760.92,-143.697C1761.8,-135.983 1762.86,-126.712 1763.85,-118.112"/>
<polygon fill="black" stroke="black" points="1767.33,-118.437 1764.99,-108.104 1760.38,-117.642 1767.33,-118.437"/>
</g>
<!-- Temp11: T19 -->
<g id="node72" class="node"><title>Temp11: T19</title>
<ellipse fill="none" stroke="black" cx="1766.95" cy="-18" rx="59.5901" ry="18"/>
<text text-anchor="middle" x="1766.95" y="-14.3" font-family="Times,serif" font-size="14.00">Temp11: T19</text>
</g>
<!-- ExpTemp11&#45;&gt;Temp11: T19 -->
<g id="edge62" class="edge"><title>ExpTemp11&#45;&gt;Temp11: T19</title>
<path fill="none" stroke="black" d="M1766.95,-71.6966C1766.95,-63.9827 1766.95,-54.7125 1766.95,-46.1124"/>
<polygon fill="black" stroke="black" points="1770.45,-46.1043 1766.95,-36.1043 1763.45,-46.1044 1770.45,-46.1043"/>
</g>
<!-- Temp13: T22 -->
<g id="node74" class="node"><title>Temp13: T22</title>
<ellipse fill="none" stroke="black" cx="2007.95" cy="-162" rx="59.5901" ry="18"/>
<text text-anchor="middle" x="2007.95" y="-158.3" font-family="Times,serif" font-size="14.00">Temp13: T22</text>
</g>
<!-- ExpTemp13&#45;&gt;Temp13: T22 -->
<g id="edge64" class="edge"><title>ExpTemp13&#45;&gt;Temp13: T22</title>
<path fill="none" stroke="black" d="M2007.95,-215.697C2007.95,-207.983 2007.95,-198.712 2007.95,-190.112"/>
<polygon fill="black" stroke="black" points="2011.45,-190.104 2007.95,-180.104 2004.45,-190.104 2011.45,-190.104"/>
</g>
<!-- ExpTemp16 -->
<g id="node75" class="node"><title>ExpTemp16</title>
<ellipse fill="none" stroke="black" cx="2283.95" cy="-90" rx="54.6905" ry="18"/>
<text text-anchor="middle" x="2283.95" y="-86.3" font-family="Times,serif" font-size="14.00">ExpTemp16</text>
</g>
<!-- Temp16: $fp -->
<g id="node76" class="node"><title>Temp16: $fp</title>
<ellipse fill="none" stroke="black" cx="2283.95" cy="-18" rx="57.3905" ry="18"/>
<text text-anchor="middle" x="2283.95" y="-14.3" font-family="Times,serif" font-size="14.00">Temp16: $fp</text>
</g>
<!-- ExpTemp16&#45;&gt;Temp16: $fp -->
<g id="edge65" class="edge"><title>ExpTemp16&#45;&gt;Temp16: $fp</title>
<path fill="none" stroke="black" d="M2283.95,-71.6966C2283.95,-63.9827 2283.95,-54.7125 2283.95,-46.1124"/>
<polygon fill="black" stroke="black" points="2287.45,-46.1043 2283.95,-36.1043 2280.45,-46.1044 2287.45,-46.1043"/>
</g>
<!-- ExpBinary1&#45;&gt;ExpConst1 -->
<g id="edge72" class="edge"><title>ExpBinary1&#45;&gt;ExpConst1</title>
<path fill="none" stroke="black" d="M2423.73,-144.765C2434.44,-135.511 2448.02,-123.772 2459.76,-113.626"/>
<polygon fill="black" stroke="black" points="2462.26,-116.093 2467.54,-106.906 2457.69,-110.796 2462.26,-116.093"/>
</g>
<!-- ExpBinary1&#45;&gt;ExpTemp16 -->
<g id="edge70" class="edge"><title>ExpBinary1&#45;&gt;ExpTemp16</title>
<path fill="none" stroke="black" d="M2379.28,-146.155C2361.68,-135.969 2338.1,-122.328 2318.8,-111.161"/>
<polygon fill="black" stroke="black" points="2320.39,-108.043 2309.99,-106.065 2316.89,-114.102 2320.39,-108.043"/>
</g>
<!-- Plus1 -->
<g id="node79" class="node"><title>Plus1</title>
<ellipse fill="none" stroke="black" cx="2386.95" cy="-90" rx="30.5947" ry="18"/>
<text text-anchor="middle" x="2386.95" y="-86.3" font-family="Times,serif" font-size="14.00">Plus1</text>
</g>
<!-- ExpBinary1&#45;&gt;Plus1 -->
<g id="edge71" class="edge"><title>ExpBinary1&#45;&gt;Plus1</title>
<path fill="none" stroke="black" d="M2400.59,-144.055C2398.58,-136.261 2396.16,-126.822 2393.91,-118.079"/>
<polygon fill="black" stroke="black" points="2397.27,-117.089 2391.39,-108.275 2390.49,-118.832 2397.27,-117.089"/>
</g>
<!-- ExpCall2&#45;&gt;ExpName2 -->
<g id="edge78" class="edge"><title>ExpCall2&#45;&gt;ExpName2</title>
<path fill="none" stroke="black" d="M2663.95,-215.697C2663.95,-207.983 2663.95,-198.712 2663.95,-190.112"/>
<polygon fill="black" stroke="black" points="2667.45,-190.104 2663.95,-180.104 2660.45,-190.104 2667.45,-190.104"/>
</g>
<!-- ExpList2 -->
<g id="node81" class="node"><title>ExpList2</title>
<ellipse fill="none" stroke="black" cx="2775.95" cy="-162" rx="42.7926" ry="18"/>
<text text-anchor="middle" x="2775.95" y="-158.3" font-family="Times,serif" font-size="14.00">ExpList2</text>
</g>
<!-- ExpCall2&#45;&gt;ExpList2 -->
<g id="edge79" class="edge"><title>ExpCall2&#45;&gt;ExpList2</title>
<path fill="none" stroke="black" d="M2687.15,-218.496C2703.67,-208.172 2726.07,-194.174 2744.23,-182.819"/>
<polygon fill="black" stroke="black" points="2746.14,-185.753 2752.77,-177.485 2742.43,-179.818 2746.14,-185.753"/>
</g>
<!-- ExpList2&#45;&gt;ExpTemp18 -->
<g id="edge80" class="edge"><title>ExpList2&#45;&gt;ExpTemp18</title>
<path fill="none" stroke="black" d="M2791.83,-145.116C2800.83,-136.116 2812.26,-124.682 2822.3,-114.646"/>
<polygon fill="black" stroke="black" points="2825.04,-116.853 2829.64,-107.307 2820.09,-111.903 2825.04,-116.853"/>
</g>
</g>
</svg>
