<?xml version="1.0" encoding="UTF-8" standalone="no"?>
<!DOCTYPE svg PUBLIC "-//W3C//DTD SVG 1.1//EN"
 "http://www.w3.org/Graphics/SVG/1.1/DTD/svg11.dtd">
<!-- Generated by graphviz version 2.38.0 (20140413.2041)
 -->
<!-- Title: %3 Pages: 1 -->
<svg width="356pt" height="404pt"
 viewBox="0.00 0.00 356.19 404.00" xmlns="http://www.w3.org/2000/svg" xmlns:xlink="http://www.w3.org/1999/xlink">
<g id="graph0" class="graph" transform="scale(1 1) rotate(0) translate(4 400)">
<title>%3</title>
<polygon fill="white" stroke="none" points="-4,4 -4,-400 352.188,-400 352.188,4 -4,4"/>
<!-- ExpList0 -->
<g id="node1" class="node"><title>ExpList0</title>
<ellipse fill="none" stroke="black" cx="294.142" cy="-162" rx="42.7926" ry="18"/>
<text text-anchor="middle" x="294.142" y="-158.3" font-family="Times,serif" font-size="14.00">ExpList0</text>
</g>
<!-- ExpConst0 -->
<g id="node2" class="node"><title>ExpConst0</title>
<ellipse fill="none" stroke="black" cx="298.142" cy="-90" rx="50.0912" ry="18"/>
<text text-anchor="middle" x="298.142" y="-86.3" font-family="Times,serif" font-size="14.00">ExpConst0</text>
</g>
<!-- ExpList0&#45;&gt;ExpConst0 -->
<g id="edge1" class="edge"><title>ExpList0&#45;&gt;ExpConst0</title>
<path fill="none" stroke="black" d="M295.131,-143.697C295.572,-135.983 296.102,-126.712 296.593,-118.112"/>
<polygon fill="black" stroke="black" points="300.089,-118.288 297.165,-108.104 293.1,-117.888 300.089,-118.288"/>
</g>
<!-- Value0: 10 -->
<g id="node5" class="node"><title>Value0: 10</title>
<ellipse fill="none" stroke="black" cx="298.142" cy="-18" rx="50.0912" ry="18"/>
<text text-anchor="middle" x="298.142" y="-14.3" font-family="Times,serif" font-size="14.00">Value0: 10</text>
</g>
<!-- ExpConst0&#45;&gt;Value0: 10 -->
<g id="edge3" class="edge"><title>ExpConst0&#45;&gt;Value0: 10</title>
<path fill="none" stroke="black" d="M298.142,-71.6966C298.142,-63.9827 298.142,-54.7125 298.142,-46.1124"/>
<polygon fill="black" stroke="black" points="301.643,-46.1043 298.142,-36.1043 294.643,-46.1044 301.643,-46.1043"/>
</g>
<!-- StatExp0 -->
<g id="node3" class="node"><title>StatExp0</title>
<ellipse fill="none" stroke="black" cx="222.142" cy="-306" rx="42.7926" ry="18"/>
<text text-anchor="middle" x="222.142" y="-302.3" font-family="Times,serif" font-size="14.00">StatExp0</text>
</g>
<!-- ExpCall0 -->
<g id="node4" class="node"><title>ExpCall0</title>
<ellipse fill="none" stroke="black" cx="232.142" cy="-234" rx="44.393" ry="18"/>
<text text-anchor="middle" x="232.142" y="-230.3" font-family="Times,serif" font-size="14.00">ExpCall0</text>
</g>
<!-- StatExp0&#45;&gt;ExpCall0 -->
<g id="edge2" class="edge"><title>StatExp0&#45;&gt;ExpCall0</title>
<path fill="none" stroke="black" d="M224.614,-287.697C225.716,-279.983 227.041,-270.712 228.269,-262.112"/>
<polygon fill="black" stroke="black" points="231.749,-262.499 229.699,-252.104 224.82,-261.509 231.749,-262.499"/>
</g>
<!-- ExpCall0&#45;&gt;ExpList0 -->
<g id="edge6" class="edge"><title>ExpCall0&#45;&gt;ExpList0</title>
<path fill="none" stroke="black" d="M246.522,-216.765C254.426,-207.841 264.376,-196.608 273.134,-186.719"/>
<polygon fill="black" stroke="black" points="275.83,-188.954 279.841,-179.147 270.59,-184.313 275.83,-188.954"/>
</g>
<!-- ExpName0 -->
<g id="node8" class="node"><title>ExpName0</title>
<ellipse fill="none" stroke="black" cx="176.142" cy="-162" rx="50.8918" ry="18"/>
<text text-anchor="middle" x="176.142" y="-158.3" font-family="Times,serif" font-size="14.00">ExpName0</text>
</g>
<!-- ExpCall0&#45;&gt;ExpName0 -->
<g id="edge5" class="edge"><title>ExpCall0&#45;&gt;ExpName0</title>
<path fill="none" stroke="black" d="M219.154,-216.765C212.257,-208.143 203.634,-197.365 195.924,-187.727"/>
<polygon fill="black" stroke="black" points="198.429,-185.256 189.449,-179.633 192.963,-189.629 198.429,-185.256"/>
</g>
<!-- StatLabel0 -->
<g id="node6" class="node"><title>StatLabel0</title>
<ellipse fill="none" stroke="black" cx="103.142" cy="-306" rx="48.9926" ry="18"/>
<text text-anchor="middle" x="103.142" y="-302.3" font-family="Times,serif" font-size="14.00">StatLabel0</text>
</g>
<!-- Label0: Main@main -->
<g id="node7" class="node"><title>Label0: Main@main</title>
<ellipse fill="none" stroke="black" cx="85.1424" cy="-234" rx="85.2851" ry="18"/>
<text text-anchor="middle" x="85.1424" y="-230.3" font-family="Times,serif" font-size="14.00">Label0: Main@main</text>
</g>
<!-- StatLabel0&#45;&gt;Label0: Main@main -->
<g id="edge4" class="edge"><title>StatLabel0&#45;&gt;Label0: Main@main</title>
<path fill="none" stroke="black" d="M98.7851,-288.055C96.781,-280.261 94.3538,-270.822 92.1056,-262.079"/>
<polygon fill="black" stroke="black" points="95.4649,-261.089 89.5847,-252.275 88.6854,-262.832 95.4649,-261.089"/>
</g>
<!-- Label1: print -->
<g id="node10" class="node"><title>Label1: print</title>
<ellipse fill="none" stroke="black" cx="173.142" cy="-90" rx="56.59" ry="18"/>
<text text-anchor="middle" x="173.142" y="-86.3" font-family="Times,serif" font-size="14.00">Label1: print</text>
</g>
<!-- ExpName0&#45;&gt;Label1: print -->
<g id="edge9" class="edge"><title>ExpName0&#45;&gt;Label1: print</title>
<path fill="none" stroke="black" d="M175.401,-143.697C175.07,-135.983 174.673,-126.712 174.304,-118.112"/>
<polygon fill="black" stroke="black" points="177.801,-117.945 173.875,-108.104 170.807,-118.245 177.801,-117.945"/>
</g>
<!-- StatSeq0 -->
<g id="node9" class="node"><title>StatSeq0</title>
<ellipse fill="none" stroke="black" cx="162.142" cy="-378" rx="42.4939" ry="18"/>
<text text-anchor="middle" x="162.142" y="-374.3" font-family="Times,serif" font-size="14.00">StatSeq0</text>
</g>
<!-- StatSeq0&#45;&gt;StatExp0 -->
<g id="edge8" class="edge"><title>StatSeq0&#45;&gt;StatExp0</title>
<path fill="none" stroke="black" d="M176.058,-360.765C183.631,-351.93 193.145,-340.83 201.559,-331.014"/>
<polygon fill="black" stroke="black" points="204.451,-333.018 208.302,-323.147 199.137,-328.462 204.451,-333.018"/>
</g>
<!-- StatSeq0&#45;&gt;StatLabel0 -->
<g id="edge7" class="edge"><title>StatSeq0&#45;&gt;StatLabel0</title>
<path fill="none" stroke="black" d="M148.458,-360.765C141.118,-352.056 131.923,-341.147 123.738,-331.435"/>
<polygon fill="black" stroke="black" points="126.283,-329.024 117.162,-323.633 120.931,-333.535 126.283,-329.024"/>
</g>
</g>
</svg>
