<?xml version="1.0" encoding="UTF-8" standalone="no"?>
<!DOCTYPE svg PUBLIC "-//W3C//DTD SVG 1.1//EN"
 "http://www.w3.org/Graphics/SVG/1.1/DTD/svg11.dtd">
<!-- Generated by graphviz version 2.38.0 (20140413.2041)
 -->
<!-- Title: %3 Pages: 1 -->
<svg width="493pt" height="476pt"
 viewBox="0.00 0.00 492.84 476.00" xmlns="http://www.w3.org/2000/svg" xmlns:xlink="http://www.w3.org/1999/xlink">
<g id="graph0" class="graph" transform="scale(1 1) rotate(0) translate(4 472)">
<title>%3</title>
<polygon fill="white" stroke="none" points="-4,4 -4,-472 488.838,-472 488.838,4 -4,4"/>
<!-- StatMove0 -->
<g id="node1" class="node"><title>StatMove0</title>
<ellipse fill="none" stroke="black" cx="238.142" cy="-306" rx="50.0912" ry="18"/>
<text text-anchor="middle" x="238.142" y="-302.3" font-family="Times,serif" font-size="14.00">StatMove0</text>
</g>
<!-- ExpTemp0 -->
<g id="node2" class="node"><title>ExpTemp0</title>
<ellipse fill="none" stroke="black" cx="123.142" cy="-234" rx="50.0912" ry="18"/>
<text text-anchor="middle" x="123.142" y="-230.3" font-family="Times,serif" font-size="14.00">ExpTemp0</text>
</g>
<!-- StatMove0&#45;&gt;ExpTemp0 -->
<g id="edge1" class="edge"><title>StatMove0&#45;&gt;ExpTemp0</title>
<path fill="none" stroke="black" d="M213.754,-290.155C196.982,-279.946 174.51,-266.267 156.141,-255.086"/>
<polygon fill="black" stroke="black" points="157.858,-252.034 147.496,-249.824 154.218,-258.013 157.858,-252.034"/>
</g>
<!-- ExpCall0 -->
<g id="node3" class="node"><title>ExpCall0</title>
<ellipse fill="none" stroke="black" cx="238.142" cy="-234" rx="44.393" ry="18"/>
<text text-anchor="middle" x="238.142" y="-230.3" font-family="Times,serif" font-size="14.00">ExpCall0</text>
</g>
<!-- StatMove0&#45;&gt;ExpCall0 -->
<g id="edge2" class="edge"><title>StatMove0&#45;&gt;ExpCall0</title>
<path fill="none" stroke="black" d="M238.142,-287.697C238.142,-279.983 238.142,-270.712 238.142,-262.112"/>
<polygon fill="black" stroke="black" points="241.643,-262.104 238.142,-252.104 234.643,-262.104 241.643,-262.104"/>
</g>
<!-- Temp0: T0 -->
<g id="node6" class="node"><title>Temp0: T0</title>
<ellipse fill="none" stroke="black" cx="91.1424" cy="-162" rx="50.8918" ry="18"/>
<text text-anchor="middle" x="91.1424" y="-158.3" font-family="Times,serif" font-size="14.00">Temp0: T0</text>
</g>
<!-- ExpTemp0&#45;&gt;Temp0: T0 -->
<g id="edge4" class="edge"><title>ExpTemp0&#45;&gt;Temp0: T0</title>
<path fill="none" stroke="black" d="M115.396,-216.055C111.756,-208.091 107.33,-198.411 103.261,-189.51"/>
<polygon fill="black" stroke="black" points="106.381,-187.915 99.0397,-180.275 100.014,-190.825 106.381,-187.915"/>
</g>
<!-- ExpName0 -->
<g id="node13" class="node"><title>ExpName0</title>
<ellipse fill="none" stroke="black" cx="210.142" cy="-162" rx="50.8918" ry="18"/>
<text text-anchor="middle" x="210.142" y="-158.3" font-family="Times,serif" font-size="14.00">ExpName0</text>
</g>
<!-- ExpCall0&#45;&gt;ExpName0 -->
<g id="edge11" class="edge"><title>ExpCall0&#45;&gt;ExpName0</title>
<path fill="none" stroke="black" d="M231.364,-216.055C228.213,-208.176 224.389,-198.617 220.86,-189.794"/>
<polygon fill="black" stroke="black" points="224.016,-188.26 217.053,-180.275 217.517,-190.86 224.016,-188.26"/>
</g>
<!-- ExpList0 -->
<g id="node15" class="node"><title>ExpList0</title>
<ellipse fill="none" stroke="black" cx="322.142" cy="-162" rx="42.7926" ry="18"/>
<text text-anchor="middle" x="322.142" y="-158.3" font-family="Times,serif" font-size="14.00">ExpList0</text>
</g>
<!-- ExpCall0&#45;&gt;ExpList0 -->
<g id="edge12" class="edge"><title>ExpCall0&#45;&gt;ExpList0</title>
<path fill="none" stroke="black" d="M256.785,-217.465C268.204,-207.949 283,-195.619 295.626,-185.097"/>
<polygon fill="black" stroke="black" points="298.111,-187.583 303.552,-178.492 293.629,-182.205 298.111,-187.583"/>
</g>
<!-- StatExp0 -->
<g id="node4" class="node"><title>StatExp0</title>
<ellipse fill="none" stroke="black" cx="349.142" cy="-306" rx="42.7926" ry="18"/>
<text text-anchor="middle" x="349.142" y="-302.3" font-family="Times,serif" font-size="14.00">StatExp0</text>
</g>
<!-- ExpTemp1 -->
<g id="node5" class="node"><title>ExpTemp1</title>
<ellipse fill="none" stroke="black" cx="406.142" cy="-234" rx="50.0912" ry="18"/>
<text text-anchor="middle" x="406.142" y="-230.3" font-family="Times,serif" font-size="14.00">ExpTemp1</text>
</g>
<!-- StatExp0&#45;&gt;ExpTemp1 -->
<g id="edge3" class="edge"><title>StatExp0&#45;&gt;ExpTemp1</title>
<path fill="none" stroke="black" d="M362.363,-288.765C369.454,-280.056 378.337,-269.147 386.245,-259.435"/>
<polygon fill="black" stroke="black" points="388.998,-261.598 392.598,-251.633 383.57,-257.178 388.998,-261.598"/>
</g>
<!-- Temp1: T0 -->
<g id="node16" class="node"><title>Temp1: T0</title>
<ellipse fill="none" stroke="black" cx="434.142" cy="-162" rx="50.8918" ry="18"/>
<text text-anchor="middle" x="434.142" y="-158.3" font-family="Times,serif" font-size="14.00">Temp1: T0</text>
</g>
<!-- ExpTemp1&#45;&gt;Temp1: T0 -->
<g id="edge15" class="edge"><title>ExpTemp1&#45;&gt;Temp1: T0</title>
<path fill="none" stroke="black" d="M412.92,-216.055C416.072,-208.176 419.896,-198.617 423.425,-189.794"/>
<polygon fill="black" stroke="black" points="426.768,-190.86 427.232,-180.275 420.269,-188.26 426.768,-190.86"/>
</g>
<!-- StatSeq0 -->
<g id="node7" class="node"><title>StatSeq0</title>
<ellipse fill="none" stroke="black" cx="172.142" cy="-450" rx="42.4939" ry="18"/>
<text text-anchor="middle" x="172.142" y="-446.3" font-family="Times,serif" font-size="14.00">StatSeq0</text>
</g>
<!-- StatLabel0 -->
<g id="node8" class="node"><title>StatLabel0</title>
<ellipse fill="none" stroke="black" cx="107.142" cy="-378" rx="48.9926" ry="18"/>
<text text-anchor="middle" x="107.142" y="-374.3" font-family="Times,serif" font-size="14.00">StatLabel0</text>
</g>
<!-- StatSeq0&#45;&gt;StatLabel0 -->
<g id="edge5" class="edge"><title>StatSeq0&#45;&gt;StatLabel0</title>
<path fill="none" stroke="black" d="M157.393,-433.116C149.035,-424.116 138.419,-412.682 129.1,-402.646"/>
<polygon fill="black" stroke="black" points="131.654,-400.253 122.285,-395.307 126.524,-405.017 131.654,-400.253"/>
</g>
<!-- StatSeq1 -->
<g id="node9" class="node"><title>StatSeq1</title>
<ellipse fill="none" stroke="black" cx="238.142" cy="-378" rx="42.4939" ry="18"/>
<text text-anchor="middle" x="238.142" y="-374.3" font-family="Times,serif" font-size="14.00">StatSeq1</text>
</g>
<!-- StatSeq0&#45;&gt;StatSeq1 -->
<g id="edge6" class="edge"><title>StatSeq0&#45;&gt;StatSeq1</title>
<path fill="none" stroke="black" d="M187.119,-433.116C195.605,-424.116 206.385,-412.682 215.848,-402.646"/>
<polygon fill="black" stroke="black" points="218.454,-404.984 222.767,-395.307 213.361,-400.182 218.454,-404.984"/>
</g>
<!-- Label0: Main@main -->
<g id="node10" class="node"><title>Label0: Main@main</title>
<ellipse fill="none" stroke="black" cx="85.1424" cy="-306" rx="85.2851" ry="18"/>
<text text-anchor="middle" x="85.1424" y="-302.3" font-family="Times,serif" font-size="14.00">Label0: Main@main</text>
</g>
<!-- StatLabel0&#45;&gt;Label0: Main@main -->
<g id="edge7" class="edge"><title>StatLabel0&#45;&gt;Label0: Main@main</title>
<path fill="none" stroke="black" d="M101.817,-360.055C99.3673,-352.261 96.4008,-342.822 93.653,-334.079"/>
<polygon fill="black" stroke="black" points="96.9091,-332.766 90.5718,-324.275 90.2312,-334.865 96.9091,-332.766"/>
</g>
<!-- StatSeq1&#45;&gt;StatMove0 -->
<g id="edge13" class="edge"><title>StatSeq1&#45;&gt;StatMove0</title>
<path fill="none" stroke="black" d="M238.142,-359.697C238.142,-351.983 238.142,-342.712 238.142,-334.112"/>
<polygon fill="black" stroke="black" points="241.643,-334.104 238.142,-324.104 234.643,-334.104 241.643,-334.104"/>
</g>
<!-- StatSeq1&#45;&gt;StatExp0 -->
<g id="edge14" class="edge"><title>StatSeq1&#45;&gt;StatExp0</title>
<path fill="none" stroke="black" d="M260.873,-362.666C277.334,-352.285 299.787,-338.125 317.928,-326.685"/>
<polygon fill="black" stroke="black" points="319.851,-329.61 326.442,-321.315 316.117,-323.689 319.851,-329.61"/>
</g>
<!-- ExpConst0 -->
<g id="node11" class="node"><title>ExpConst0</title>
<ellipse fill="none" stroke="black" cx="329.142" cy="-90" rx="50.0912" ry="18"/>
<text text-anchor="middle" x="329.142" y="-86.3" font-family="Times,serif" font-size="14.00">ExpConst0</text>
</g>
<!-- Value0: 10 -->
<g id="node12" class="node"><title>Value0: 10</title>
<ellipse fill="none" stroke="black" cx="329.142" cy="-18" rx="50.0912" ry="18"/>
<text text-anchor="middle" x="329.142" y="-14.3" font-family="Times,serif" font-size="14.00">Value0: 10</text>
</g>
<!-- ExpConst0&#45;&gt;Value0: 10 -->
<g id="edge8" class="edge"><title>ExpConst0&#45;&gt;Value0: 10</title>
<path fill="none" stroke="black" d="M329.142,-71.6966C329.142,-63.9827 329.142,-54.7125 329.142,-46.1124"/>
<polygon fill="black" stroke="black" points="332.643,-46.1043 329.142,-36.1043 325.643,-46.1044 332.643,-46.1043"/>
</g>
<!-- Label1: print -->
<g id="node14" class="node"><title>Label1: print</title>
<ellipse fill="none" stroke="black" cx="204.142" cy="-90" rx="56.59" ry="18"/>
<text text-anchor="middle" x="204.142" y="-86.3" font-family="Times,serif" font-size="14.00">Label1: print</text>
</g>
<!-- ExpName0&#45;&gt;Label1: print -->
<g id="edge9" class="edge"><title>ExpName0&#45;&gt;Label1: print</title>
<path fill="none" stroke="black" d="M208.659,-143.697C207.998,-135.983 207.204,-126.712 206.466,-118.112"/>
<polygon fill="black" stroke="black" points="209.95,-117.769 205.609,-108.104 202.975,-118.367 209.95,-117.769"/>
</g>
<!-- ExpList0&#45;&gt;ExpConst0 -->
<g id="edge10" class="edge"><title>ExpList0&#45;&gt;ExpConst0</title>
<path fill="none" stroke="black" d="M323.873,-143.697C324.644,-135.983 325.571,-126.712 326.431,-118.112"/>
<polygon fill="black" stroke="black" points="329.92,-118.403 327.432,-108.104 322.954,-117.706 329.92,-118.403"/>
</g>
</g>
</svg>
