<?xml version="1.0" encoding="UTF-8" standalone="no"?>
<!DOCTYPE svg PUBLIC "-//W3C//DTD SVG 1.1//EN"
 "http://www.w3.org/Graphics/SVG/1.1/DTD/svg11.dtd">
<!-- Generated by graphviz version 2.38.0 (20140413.2041)
 -->
<!-- Title: %3 Pages: 1 -->
<svg width="1910pt" height="404pt"
 viewBox="0.00 0.00 1910.19 404.00" xmlns="http://www.w3.org/2000/svg" xmlns:xlink="http://www.w3.org/1999/xlink">
<g id="graph0" class="graph" transform="scale(1 1) rotate(0) translate(4 400)">
<title>%3</title>
<polygon fill="white" stroke="none" points="-4,4 -4,-400 1906.19,-400 1906.19,4 -4,4"/>
<!-- ExpConst1 -->
<g id="node1" class="node"><title>ExpConst1</title>
<ellipse fill="none" stroke="black" cx="1600.24" cy="-234" rx="50.0912" ry="18"/>
<text text-anchor="middle" x="1600.24" y="-230.3" font-family="Times,serif" font-size="14.00">ExpConst1</text>
</g>
<!-- Value1: 0 -->
<g id="node2" class="node"><title>Value1: 0</title>
<ellipse fill="none" stroke="black" cx="1605.24" cy="-162" rx="45.4919" ry="18"/>
<text text-anchor="middle" x="1605.24" y="-158.3" font-family="Times,serif" font-size="14.00">Value1: 0</text>
</g>
<!-- ExpConst1&#45;&gt;Value1: 0 -->
<g id="edge1" class="edge"><title>ExpConst1&#45;&gt;Value1: 0</title>
<path fill="none" stroke="black" d="M1601.48,-215.697C1602.03,-207.983 1602.69,-198.712 1603.31,-190.112"/>
<polygon fill="black" stroke="black" points="1606.8,-190.328 1604.02,-180.104 1599.82,-189.83 1606.8,-190.328"/>
</g>
<!-- ExpName0 -->
<g id="node3" class="node"><title>ExpName0</title>
<ellipse fill="none" stroke="black" cx="672.242" cy="-234" rx="50.8918" ry="18"/>
<text text-anchor="middle" x="672.242" y="-230.3" font-family="Times,serif" font-size="14.00">ExpName0</text>
</g>
<!-- Label1: Tree@GetHas_Left -->
<g id="node4" class="node"><title>Label1: Tree@GetHas_Left</title>
<ellipse fill="none" stroke="black" cx="672.242" cy="-162" rx="109.681" ry="18"/>
<text text-anchor="middle" x="672.242" y="-158.3" font-family="Times,serif" font-size="14.00">Label1: Tree@GetHas_Left</text>
</g>
<!-- ExpName0&#45;&gt;Label1: Tree@GetHas_Left -->
<g id="edge2" class="edge"><title>ExpName0&#45;&gt;Label1: Tree@GetHas_Left</title>
<path fill="none" stroke="black" d="M672.242,-215.697C672.242,-207.983 672.242,-198.712 672.242,-190.112"/>
<polygon fill="black" stroke="black" points="675.742,-190.104 672.242,-180.104 668.742,-190.104 675.742,-190.104"/>
</g>
<!-- StatMove2 -->
<g id="node5" class="node"><title>StatMove2</title>
<ellipse fill="none" stroke="black" cx="860.242" cy="-306" rx="50.0912" ry="18"/>
<text text-anchor="middle" x="860.242" y="-302.3" font-family="Times,serif" font-size="14.00">StatMove2</text>
</g>
<!-- ExpTemp3 -->
<g id="node6" class="node"><title>ExpTemp3</title>
<ellipse fill="none" stroke="black" cx="860.242" cy="-234" rx="50.0912" ry="18"/>
<text text-anchor="middle" x="860.242" y="-230.3" font-family="Times,serif" font-size="14.00">ExpTemp3</text>
</g>
<!-- StatMove2&#45;&gt;ExpTemp3 -->
<g id="edge3" class="edge"><title>StatMove2&#45;&gt;ExpTemp3</title>
<path fill="none" stroke="black" d="M860.242,-287.697C860.242,-279.983 860.242,-270.712 860.242,-262.112"/>
<polygon fill="black" stroke="black" points="863.742,-262.104 860.242,-252.104 856.742,-262.104 863.742,-262.104"/>
</g>
<!-- ExpMem0 -->
<g id="node7" class="node"><title>ExpMem0</title>
<ellipse fill="none" stroke="black" cx="984.242" cy="-234" rx="48.9926" ry="18"/>
<text text-anchor="middle" x="984.242" y="-230.3" font-family="Times,serif" font-size="14.00">ExpMem0</text>
</g>
<!-- StatMove2&#45;&gt;ExpMem0 -->
<g id="edge4" class="edge"><title>StatMove2&#45;&gt;ExpMem0</title>
<path fill="none" stroke="black" d="M885.935,-290.496C904.39,-280.078 929.471,-265.919 949.68,-254.51"/>
<polygon fill="black" stroke="black" points="951.594,-257.449 958.582,-249.485 948.153,-251.354 951.594,-257.449"/>
</g>
<!-- Temp3: T400 -->
<g id="node10" class="node"><title>Temp3: T400</title>
<ellipse fill="none" stroke="black" cx="860.242" cy="-162" rx="59.5901" ry="18"/>
<text text-anchor="middle" x="860.242" y="-158.3" font-family="Times,serif" font-size="14.00">Temp3: T400</text>
</g>
<!-- ExpTemp3&#45;&gt;Temp3: T400 -->
<g id="edge6" class="edge"><title>ExpTemp3&#45;&gt;Temp3: T400</title>
<path fill="none" stroke="black" d="M860.242,-215.697C860.242,-207.983 860.242,-198.712 860.242,-190.112"/>
<polygon fill="black" stroke="black" points="863.742,-190.104 860.242,-180.104 856.742,-190.104 863.742,-190.104"/>
</g>
<!-- ExpBinary0 -->
<g id="node28" class="node"><title>ExpBinary0</title>
<ellipse fill="none" stroke="black" cx="991.242" cy="-162" rx="53.0913" ry="18"/>
<text text-anchor="middle" x="991.242" y="-158.3" font-family="Times,serif" font-size="14.00">ExpBinary0</text>
</g>
<!-- ExpMem0&#45;&gt;ExpBinary0 -->
<g id="edge25" class="edge"><title>ExpMem0&#45;&gt;ExpBinary0</title>
<path fill="none" stroke="black" d="M985.972,-215.697C986.743,-207.983 987.67,-198.712 988.53,-190.112"/>
<polygon fill="black" stroke="black" points="992.019,-190.403 989.531,-180.104 985.053,-189.706 992.019,-190.403"/>
</g>
<!-- ExpTemp2 -->
<g id="node8" class="node"><title>ExpTemp2</title>
<ellipse fill="none" stroke="black" cx="519.242" cy="-234" rx="50.0912" ry="18"/>
<text text-anchor="middle" x="519.242" y="-230.3" font-family="Times,serif" font-size="14.00">ExpTemp2</text>
</g>
<!-- Temp2: T399 -->
<g id="node9" class="node"><title>Temp2: T399</title>
<ellipse fill="none" stroke="black" cx="484.242" cy="-162" rx="59.5901" ry="18"/>
<text text-anchor="middle" x="484.242" y="-158.3" font-family="Times,serif" font-size="14.00">Temp2: T399</text>
</g>
<!-- ExpTemp2&#45;&gt;Temp2: T399 -->
<g id="edge5" class="edge"><title>ExpTemp2&#45;&gt;Temp2: T399</title>
<path fill="none" stroke="black" d="M510.769,-216.055C506.745,-208.007 501.844,-198.205 497.355,-189.226"/>
<polygon fill="black" stroke="black" points="500.482,-187.654 492.879,-180.275 494.221,-190.785 500.482,-187.654"/>
</g>
<!-- StatLabel0 -->
<g id="node11" class="node"><title>StatLabel0</title>
<ellipse fill="none" stroke="black" cx="176.242" cy="-306" rx="48.9926" ry="18"/>
<text text-anchor="middle" x="176.242" y="-302.3" font-family="Times,serif" font-size="14.00">StatLabel0</text>
</g>
<!-- Label0: Tree@Remove -->
<g id="node12" class="node"><title>Label0: Tree@Remove</title>
<ellipse fill="none" stroke="black" cx="94.2416" cy="-234" rx="94.4839" ry="18"/>
<text text-anchor="middle" x="94.2416" y="-230.3" font-family="Times,serif" font-size="14.00">Label0: Tree@Remove</text>
</g>
<!-- StatLabel0&#45;&gt;Label0: Tree@Remove -->
<g id="edge7" class="edge"><title>StatLabel0&#45;&gt;Label0: Tree@Remove</title>
<path fill="none" stroke="black" d="M157.635,-289.116C147.038,-280.07 133.563,-268.567 121.764,-258.494"/>
<polygon fill="black" stroke="black" points="123.797,-255.628 113.919,-251.797 119.252,-260.952 123.797,-255.628"/>
</g>
<!-- StatList0 -->
<g id="node13" class="node"><title>StatList0</title>
<ellipse fill="none" stroke="black" cx="766.242" cy="-378" rx="42.4939" ry="18"/>
<text text-anchor="middle" x="766.242" y="-374.3" font-family="Times,serif" font-size="14.00">StatList0</text>
</g>
<!-- StatList0&#45;&gt;StatMove2 -->
<g id="edge11" class="edge"><title>StatList0&#45;&gt;StatMove2</title>
<path fill="none" stroke="black" d="M786.638,-361.811C799.728,-352.063 816.923,-339.258 831.401,-328.477"/>
<polygon fill="black" stroke="black" points="833.63,-331.181 839.56,-322.401 829.449,-325.567 833.63,-331.181"/>
</g>
<!-- StatList0&#45;&gt;StatLabel0 -->
<g id="edge8" class="edge"><title>StatList0&#45;&gt;StatLabel0</title>
<path fill="none" stroke="black" d="M726.112,-372.348C647.332,-363.203 466.903,-342.185 315.242,-324 287.767,-320.706 257.247,-316.98 231.82,-313.858"/>
<polygon fill="black" stroke="black" points="231.974,-310.351 221.621,-312.605 231.12,-317.299 231.974,-310.351"/>
</g>
<!-- StatMove0 -->
<g id="node14" class="node"><title>StatMove0</title>
<ellipse fill="none" stroke="black" cx="374.242" cy="-306" rx="50.0912" ry="18"/>
<text text-anchor="middle" x="374.242" y="-302.3" font-family="Times,serif" font-size="14.00">StatMove0</text>
</g>
<!-- StatList0&#45;&gt;StatMove0 -->
<g id="edge9" class="edge"><title>StatList0&#45;&gt;StatMove0</title>
<path fill="none" stroke="black" d="M727.941,-370.161C657.737,-357.624 508.29,-330.937 427.966,-316.594"/>
<polygon fill="black" stroke="black" points="428.51,-313.135 418.05,-314.823 427.279,-320.026 428.51,-313.135"/>
</g>
<!-- StatMove1 -->
<g id="node15" class="node"><title>StatMove1</title>
<ellipse fill="none" stroke="black" cx="672.242" cy="-306" rx="50.0912" ry="18"/>
<text text-anchor="middle" x="672.242" y="-302.3" font-family="Times,serif" font-size="14.00">StatMove1</text>
</g>
<!-- StatList0&#45;&gt;StatMove1 -->
<g id="edge10" class="edge"><title>StatList0&#45;&gt;StatMove1</title>
<path fill="none" stroke="black" d="M745.845,-361.811C732.755,-352.063 715.56,-339.258 701.082,-328.477"/>
<polygon fill="black" stroke="black" points="703.034,-325.567 692.923,-322.401 698.853,-331.181 703.034,-325.567"/>
</g>
<!-- StatMove3 -->
<g id="node16" class="node"><title>StatMove3</title>
<ellipse fill="none" stroke="black" cx="1122.24" cy="-306" rx="50.0912" ry="18"/>
<text text-anchor="middle" x="1122.24" y="-302.3" font-family="Times,serif" font-size="14.00">StatMove3</text>
</g>
<!-- StatList0&#45;&gt;StatMove3 -->
<g id="edge12" class="edge"><title>StatList0&#45;&gt;StatMove3</title>
<path fill="none" stroke="black" d="M803.667,-369.641C867.263,-357.136 996.59,-331.707 1069.39,-317.392"/>
<polygon fill="black" stroke="black" points="1070.14,-320.812 1079.27,-315.449 1068.79,-313.944 1070.14,-320.812"/>
</g>
<!-- StatCJump0 -->
<g id="node17" class="node"><title>StatCJump0</title>
<ellipse fill="none" stroke="black" cx="1541.24" cy="-306" rx="53.8905" ry="18"/>
<text text-anchor="middle" x="1541.24" y="-302.3" font-family="Times,serif" font-size="14.00">StatCJump0</text>
</g>
<!-- StatList0&#45;&gt;StatCJump0 -->
<g id="edge13" class="edge"><title>StatList0&#45;&gt;StatCJump0</title>
<path fill="none" stroke="black" d="M807.089,-373.311C934.807,-361.775 1327.14,-326.338 1479.68,-312.561"/>
<polygon fill="black" stroke="black" points="1480.16,-316.031 1489.81,-311.646 1479.53,-309.06 1480.16,-316.031"/>
</g>
<!-- ExpTemp0 -->
<g id="node18" class="node"><title>ExpTemp0</title>
<ellipse fill="none" stroke="black" cx="256.242" cy="-234" rx="50.0912" ry="18"/>
<text text-anchor="middle" x="256.242" y="-230.3" font-family="Times,serif" font-size="14.00">ExpTemp0</text>
</g>
<!-- StatMove0&#45;&gt;ExpTemp0 -->
<g id="edge15" class="edge"><title>StatMove0&#45;&gt;ExpTemp0</title>
<path fill="none" stroke="black" d="M349.505,-290.326C332.119,-280.012 308.659,-266.095 289.618,-254.8"/>
<polygon fill="black" stroke="black" points="291.332,-251.747 280.946,-249.655 287.761,-257.767 291.332,-251.747"/>
</g>
<!-- ExpTemp1 -->
<g id="node20" class="node"><title>ExpTemp1</title>
<ellipse fill="none" stroke="black" cx="374.242" cy="-234" rx="50.0912" ry="18"/>
<text text-anchor="middle" x="374.242" y="-230.3" font-family="Times,serif" font-size="14.00">ExpTemp1</text>
</g>
<!-- StatMove0&#45;&gt;ExpTemp1 -->
<g id="edge16" class="edge"><title>StatMove0&#45;&gt;ExpTemp1</title>
<path fill="none" stroke="black" d="M374.242,-287.697C374.242,-279.983 374.242,-270.712 374.242,-262.112"/>
<polygon fill="black" stroke="black" points="377.742,-262.104 374.242,-252.104 370.742,-262.104 377.742,-262.104"/>
</g>
<!-- StatMove1&#45;&gt;ExpName0 -->
<g id="edge33" class="edge"><title>StatMove1&#45;&gt;ExpName0</title>
<path fill="none" stroke="black" d="M672.242,-287.697C672.242,-279.983 672.242,-270.712 672.242,-262.112"/>
<polygon fill="black" stroke="black" points="675.742,-262.104 672.242,-252.104 668.742,-262.104 675.742,-262.104"/>
</g>
<!-- StatMove1&#45;&gt;ExpTemp2 -->
<g id="edge32" class="edge"><title>StatMove1&#45;&gt;ExpTemp2</title>
<path fill="none" stroke="black" d="M642.378,-291.337C618.368,-280.352 584.446,-264.832 558.284,-252.863"/>
<polygon fill="black" stroke="black" points="559.579,-249.606 549.029,-248.628 556.667,-255.972 559.579,-249.606"/>
</g>
<!-- ExpCall0 -->
<g id="node25" class="node"><title>ExpCall0</title>
<ellipse fill="none" stroke="black" cx="1250.24" cy="-234" rx="44.393" ry="18"/>
<text text-anchor="middle" x="1250.24" y="-230.3" font-family="Times,serif" font-size="14.00">ExpCall0</text>
</g>
<!-- StatMove3&#45;&gt;ExpCall0 -->
<g id="edge29" class="edge"><title>StatMove3&#45;&gt;ExpCall0</title>
<path fill="none" stroke="black" d="M1148.45,-290.666C1167.95,-280.004 1194.73,-265.356 1215.93,-253.762"/>
<polygon fill="black" stroke="black" points="1217.84,-256.707 1224.94,-248.838 1214.48,-250.566 1217.84,-256.707"/>
</g>
<!-- ExpTemp5 -->
<g id="node33" class="node"><title>ExpTemp5</title>
<ellipse fill="none" stroke="black" cx="1122.24" cy="-234" rx="50.0912" ry="18"/>
<text text-anchor="middle" x="1122.24" y="-230.3" font-family="Times,serif" font-size="14.00">ExpTemp5</text>
</g>
<!-- StatMove3&#45;&gt;ExpTemp5 -->
<g id="edge28" class="edge"><title>StatMove3&#45;&gt;ExpTemp5</title>
<path fill="none" stroke="black" d="M1122.24,-287.697C1122.24,-279.983 1122.24,-270.712 1122.24,-262.112"/>
<polygon fill="black" stroke="black" points="1125.74,-262.104 1122.24,-252.104 1118.74,-262.104 1125.74,-262.104"/>
</g>
<!-- StatCJump0&#45;&gt;ExpConst1 -->
<g id="edge37" class="edge"><title>StatCJump0&#45;&gt;ExpConst1</title>
<path fill="none" stroke="black" d="M1555.22,-288.411C1562.57,-279.693 1571.71,-268.845 1579.84,-259.208"/>
<polygon fill="black" stroke="black" points="1582.59,-261.372 1586.36,-251.47 1577.24,-256.861 1582.59,-261.372"/>
</g>
<!-- ExpTemp8 -->
<g id="node36" class="node"><title>ExpTemp8</title>
<ellipse fill="none" stroke="black" cx="1482.24" cy="-234" rx="50.0912" ry="18"/>
<text text-anchor="middle" x="1482.24" y="-230.3" font-family="Times,serif" font-size="14.00">ExpTemp8</text>
</g>
<!-- StatCJump0&#45;&gt;ExpTemp8 -->
<g id="edge36" class="edge"><title>StatCJump0&#45;&gt;ExpTemp8</title>
<path fill="none" stroke="black" d="M1527.26,-288.411C1519.91,-279.693 1510.77,-268.845 1502.65,-259.208"/>
<polygon fill="black" stroke="black" points="1505.24,-256.861 1496.12,-251.47 1499.89,-261.372 1505.24,-256.861"/>
</g>
<!-- NE0 -->
<g id="node38" class="node"><title>NE0</title>
<ellipse fill="none" stroke="black" cx="1387.24" cy="-234" rx="27" ry="18"/>
<text text-anchor="middle" x="1387.24" y="-230.3" font-family="Times,serif" font-size="14.00">NE0</text>
</g>
<!-- StatCJump0&#45;&gt;NE0 -->
<g id="edge35" class="edge"><title>StatCJump0&#45;&gt;NE0</title>
<path fill="none" stroke="black" d="M1510.11,-291.212C1486.28,-280.608 1452.61,-265.53 1423.24,-252 1421.45,-251.176 1419.62,-250.324 1417.76,-249.462"/>
<polygon fill="black" stroke="black" points="1419.07,-246.21 1408.53,-245.135 1416.1,-252.548 1419.07,-246.21"/>
</g>
<!-- Label2: L46 -->
<g id="node39" class="node"><title>Label2: L46</title>
<ellipse fill="none" stroke="black" cx="1722.24" cy="-234" rx="53.8905" ry="18"/>
<text text-anchor="middle" x="1722.24" y="-230.3" font-family="Times,serif" font-size="14.00">Label2: L46</text>
</g>
<!-- StatCJump0&#45;&gt;Label2: L46 -->
<g id="edge38" class="edge"><title>StatCJump0&#45;&gt;Label2: L46</title>
<path fill="none" stroke="black" d="M1575.29,-291.834C1604.61,-280.492 1647.11,-264.057 1678.86,-251.776"/>
<polygon fill="black" stroke="black" points="1680.29,-254.979 1688.35,-248.107 1677.76,-248.45 1680.29,-254.979"/>
</g>
<!-- Label3: L47 -->
<g id="node40" class="node"><title>Label3: L47</title>
<ellipse fill="none" stroke="black" cx="1848.24" cy="-234" rx="53.8905" ry="18"/>
<text text-anchor="middle" x="1848.24" y="-230.3" font-family="Times,serif" font-size="14.00">Label3: L47</text>
</g>
<!-- StatCJump0&#45;&gt;Label3: L47 -->
<g id="edge39" class="edge"><title>StatCJump0&#45;&gt;Label3: L47</title>
<path fill="none" stroke="black" d="M1586.37,-295.898C1635.46,-285.834 1716.17,-268.811 1785.24,-252 1789.39,-250.99 1793.68,-249.91 1797.99,-248.801"/>
<polygon fill="black" stroke="black" points="1799.2,-252.101 1807.99,-246.181 1797.43,-245.329 1799.2,-252.101"/>
</g>
<!-- Temp0: T401 -->
<g id="node19" class="node"><title>Temp0: T401</title>
<ellipse fill="none" stroke="black" cx="208.242" cy="-162" rx="59.5901" ry="18"/>
<text text-anchor="middle" x="208.242" y="-158.3" font-family="Times,serif" font-size="14.00">Temp0: T401</text>
</g>
<!-- ExpTemp0&#45;&gt;Temp0: T401 -->
<g id="edge14" class="edge"><title>ExpTemp0&#45;&gt;Temp0: T401</title>
<path fill="none" stroke="black" d="M244.866,-216.411C239.152,-208.077 232.103,-197.797 225.719,-188.488"/>
<polygon fill="black" stroke="black" points="228.411,-186.224 219.869,-179.956 222.638,-190.183 228.411,-186.224"/>
</g>
<!-- Temp1: T387 -->
<g id="node32" class="node"><title>Temp1: T387</title>
<ellipse fill="none" stroke="black" cx="346.242" cy="-162" rx="59.5901" ry="18"/>
<text text-anchor="middle" x="346.242" y="-158.3" font-family="Times,serif" font-size="14.00">Temp1: T387</text>
</g>
<!-- ExpTemp1&#45;&gt;Temp1: T387 -->
<g id="edge26" class="edge"><title>ExpTemp1&#45;&gt;Temp1: T387</title>
<path fill="none" stroke="black" d="M367.464,-216.055C364.312,-208.176 360.488,-198.617 356.959,-189.794"/>
<polygon fill="black" stroke="black" points="360.115,-188.26 353.152,-180.275 353.616,-190.86 360.115,-188.26"/>
</g>
<!-- ExpTemp7 -->
<g id="node21" class="node"><title>ExpTemp7</title>
<ellipse fill="none" stroke="black" cx="1369.24" cy="-90" rx="50.0912" ry="18"/>
<text text-anchor="middle" x="1369.24" y="-86.3" font-family="Times,serif" font-size="14.00">ExpTemp7</text>
</g>
<!-- Temp7: T400 -->
<g id="node22" class="node"><title>Temp7: T400</title>
<ellipse fill="none" stroke="black" cx="1369.24" cy="-18" rx="59.5901" ry="18"/>
<text text-anchor="middle" x="1369.24" y="-14.3" font-family="Times,serif" font-size="14.00">Temp7: T400</text>
</g>
<!-- ExpTemp7&#45;&gt;Temp7: T400 -->
<g id="edge17" class="edge"><title>ExpTemp7&#45;&gt;Temp7: T400</title>
<path fill="none" stroke="black" d="M1369.24,-71.6966C1369.24,-63.9827 1369.24,-54.7125 1369.24,-46.1124"/>
<polygon fill="black" stroke="black" points="1372.74,-46.1043 1369.24,-36.1043 1365.74,-46.1044 1372.74,-46.1043"/>
</g>
<!-- ExpTemp4 -->
<g id="node23" class="node"><title>ExpTemp4</title>
<ellipse fill="none" stroke="black" cx="892.242" cy="-90" rx="50.0912" ry="18"/>
<text text-anchor="middle" x="892.242" y="-86.3" font-family="Times,serif" font-size="14.00">ExpTemp4</text>
</g>
<!-- Temp4: $fp -->
<g id="node24" class="node"><title>Temp4: $fp</title>
<ellipse fill="none" stroke="black" cx="892.242" cy="-18" rx="52.7911" ry="18"/>
<text text-anchor="middle" x="892.242" y="-14.3" font-family="Times,serif" font-size="14.00">Temp4: $fp</text>
</g>
<!-- ExpTemp4&#45;&gt;Temp4: $fp -->
<g id="edge18" class="edge"><title>ExpTemp4&#45;&gt;Temp4: $fp</title>
<path fill="none" stroke="black" d="M892.242,-71.6966C892.242,-63.9827 892.242,-54.7125 892.242,-46.1124"/>
<polygon fill="black" stroke="black" points="895.742,-46.1043 892.242,-36.1043 888.742,-46.1044 895.742,-46.1043"/>
</g>
<!-- ExpTemp6 -->
<g id="node26" class="node"><title>ExpTemp6</title>
<ellipse fill="none" stroke="black" cx="1250.24" cy="-162" rx="50.0912" ry="18"/>
<text text-anchor="middle" x="1250.24" y="-158.3" font-family="Times,serif" font-size="14.00">ExpTemp6</text>
</g>
<!-- ExpCall0&#45;&gt;ExpTemp6 -->
<g id="edge19" class="edge"><title>ExpCall0&#45;&gt;ExpTemp6</title>
<path fill="none" stroke="black" d="M1250.24,-215.697C1250.24,-207.983 1250.24,-198.712 1250.24,-190.112"/>
<polygon fill="black" stroke="black" points="1253.74,-190.104 1250.24,-180.104 1246.74,-190.104 1253.74,-190.104"/>
</g>
<!-- ExpList0 -->
<g id="node27" class="node"><title>ExpList0</title>
<ellipse fill="none" stroke="black" cx="1361.24" cy="-162" rx="42.7926" ry="18"/>
<text text-anchor="middle" x="1361.24" y="-158.3" font-family="Times,serif" font-size="14.00">ExpList0</text>
</g>
<!-- ExpCall0&#45;&gt;ExpList0 -->
<g id="edge20" class="edge"><title>ExpCall0&#45;&gt;ExpList0</title>
<path fill="none" stroke="black" d="M1273.24,-218.496C1289.46,-208.266 1311.41,-194.428 1329.32,-183.13"/>
<polygon fill="black" stroke="black" points="1331.68,-185.78 1338.27,-177.485 1327.95,-179.859 1331.68,-185.78"/>
</g>
<!-- Temp6: T399 -->
<g id="node35" class="node"><title>Temp6: T399</title>
<ellipse fill="none" stroke="black" cx="1241.24" cy="-90" rx="59.5901" ry="18"/>
<text text-anchor="middle" x="1241.24" y="-86.3" font-family="Times,serif" font-size="14.00">Temp6: T399</text>
</g>
<!-- ExpTemp6&#45;&gt;Temp6: T399 -->
<g id="edge30" class="edge"><title>ExpTemp6&#45;&gt;Temp6: T399</title>
<path fill="none" stroke="black" d="M1248.02,-143.697C1247.03,-135.983 1245.83,-126.712 1244.73,-118.112"/>
<polygon fill="black" stroke="black" points="1248.19,-117.576 1243.44,-108.104 1241.24,-118.469 1248.19,-117.576"/>
</g>
<!-- ExpList0&#45;&gt;ExpTemp7 -->
<g id="edge31" class="edge"><title>ExpList0&#45;&gt;ExpTemp7</title>
<path fill="none" stroke="black" d="M1363.22,-143.697C1364.1,-135.983 1365.16,-126.712 1366.14,-118.112"/>
<polygon fill="black" stroke="black" points="1369.63,-118.437 1367.29,-108.104 1362.67,-117.642 1369.63,-118.437"/>
</g>
<!-- ExpBinary0&#45;&gt;ExpTemp4 -->
<g id="edge21" class="edge"><title>ExpBinary0&#45;&gt;ExpTemp4</title>
<path fill="none" stroke="black" d="M969.27,-145.465C955.461,-135.7 937.46,-122.972 922.332,-112.276"/>
<polygon fill="black" stroke="black" points="923.997,-109.167 913.811,-106.251 919.955,-114.882 923.997,-109.167"/>
</g>
<!-- Plus0 -->
<g id="node29" class="node"><title>Plus0</title>
<ellipse fill="none" stroke="black" cx="991.242" cy="-90" rx="30.5947" ry="18"/>
<text text-anchor="middle" x="991.242" y="-86.3" font-family="Times,serif" font-size="14.00">Plus0</text>
</g>
<!-- ExpBinary0&#45;&gt;Plus0 -->
<g id="edge22" class="edge"><title>ExpBinary0&#45;&gt;Plus0</title>
<path fill="none" stroke="black" d="M991.242,-143.697C991.242,-135.983 991.242,-126.712 991.242,-118.112"/>
<polygon fill="black" stroke="black" points="994.742,-118.104 991.242,-108.104 987.742,-118.104 994.742,-118.104"/>
</g>
<!-- ExpConst0 -->
<g id="node30" class="node"><title>ExpConst0</title>
<ellipse fill="none" stroke="black" cx="1090.24" cy="-90" rx="50.0912" ry="18"/>
<text text-anchor="middle" x="1090.24" y="-86.3" font-family="Times,serif" font-size="14.00">ExpConst0</text>
</g>
<!-- ExpBinary0&#45;&gt;ExpConst0 -->
<g id="edge23" class="edge"><title>ExpBinary0&#45;&gt;ExpConst0</title>
<path fill="none" stroke="black" d="M1013.21,-145.465C1027.02,-135.7 1045.02,-122.972 1060.15,-112.276"/>
<polygon fill="black" stroke="black" points="1062.53,-114.882 1068.67,-106.251 1058.49,-109.167 1062.53,-114.882"/>
</g>
<!-- Value0: 8 -->
<g id="node31" class="node"><title>Value0: 8</title>
<ellipse fill="none" stroke="black" cx="1090.24" cy="-18" rx="45.4919" ry="18"/>
<text text-anchor="middle" x="1090.24" y="-14.3" font-family="Times,serif" font-size="14.00">Value0: 8</text>
</g>
<!-- ExpConst0&#45;&gt;Value0: 8 -->
<g id="edge24" class="edge"><title>ExpConst0&#45;&gt;Value0: 8</title>
<path fill="none" stroke="black" d="M1090.24,-71.6966C1090.24,-63.9827 1090.24,-54.7125 1090.24,-46.1124"/>
<polygon fill="black" stroke="black" points="1093.74,-46.1043 1090.24,-36.1043 1086.74,-46.1044 1093.74,-46.1043"/>
</g>
<!-- Temp5: T401 -->
<g id="node34" class="node"><title>Temp5: T401</title>
<ellipse fill="none" stroke="black" cx="1122.24" cy="-162" rx="59.5901" ry="18"/>
<text text-anchor="middle" x="1122.24" y="-158.3" font-family="Times,serif" font-size="14.00">Temp5: T401</text>
</g>
<!-- ExpTemp5&#45;&gt;Temp5: T401 -->
<g id="edge27" class="edge"><title>ExpTemp5&#45;&gt;Temp5: T401</title>
<path fill="none" stroke="black" d="M1122.24,-215.697C1122.24,-207.983 1122.24,-198.712 1122.24,-190.112"/>
<polygon fill="black" stroke="black" points="1125.74,-190.104 1122.24,-180.104 1118.74,-190.104 1125.74,-190.104"/>
</g>
<!-- Temp8: T387 -->
<g id="node37" class="node"><title>Temp8: T387</title>
<ellipse fill="none" stroke="black" cx="1482.24" cy="-162" rx="59.5901" ry="18"/>
<text text-anchor="middle" x="1482.24" y="-158.3" font-family="Times,serif" font-size="14.00">Temp8: T387</text>
</g>
<!-- ExpTemp8&#45;&gt;Temp8: T387 -->
<g id="edge34" class="edge"><title>ExpTemp8&#45;&gt;Temp8: T387</title>
<path fill="none" stroke="black" d="M1482.24,-215.697C1482.24,-207.983 1482.24,-198.712 1482.24,-190.112"/>
<polygon fill="black" stroke="black" points="1485.74,-190.104 1482.24,-180.104 1478.74,-190.104 1485.74,-190.104"/>
</g>
</g>
</svg>
