<?xml version="1.0" encoding="UTF-8" standalone="no"?>
<!DOCTYPE svg PUBLIC "-//W3C//DTD SVG 1.1//EN"
 "http://www.w3.org/Graphics/SVG/1.1/DTD/svg11.dtd">
<!-- Generated by graphviz version 2.38.0 (20140413.2041)
 -->
<!-- Title: %3 Pages: 1 -->
<svg width="2474pt" height="404pt"
 viewBox="0.00 0.00 2473.89 404.00" xmlns="http://www.w3.org/2000/svg" xmlns:xlink="http://www.w3.org/1999/xlink">
<g id="graph0" class="graph" transform="scale(1 1) rotate(0) translate(4 400)">
<title>%3</title>
<polygon fill="white" stroke="none" points="-4,4 -4,-400 2469.89,-400 2469.89,4 -4,4"/>
<!-- ExpTemp15 -->
<g id="node1" class="node"><title>ExpTemp15</title>
<ellipse fill="none" stroke="black" cx="2347.95" cy="-90" rx="54.6905" ry="18"/>
<text text-anchor="middle" x="2347.95" y="-86.3" font-family="Times,serif" font-size="14.00">ExpTemp15</text>
</g>
<!-- Temp15: T405 -->
<g id="node2" class="node"><title>Temp15: T405</title>
<ellipse fill="none" stroke="black" cx="2356.95" cy="-18" rx="63.8893" ry="18"/>
<text text-anchor="middle" x="2356.95" y="-14.3" font-family="Times,serif" font-size="14.00">Temp15: T405</text>
</g>
<!-- ExpTemp15&#45;&gt;Temp15: T405 -->
<g id="edge1" class="edge"><title>ExpTemp15&#45;&gt;Temp15: T405</title>
<path fill="none" stroke="black" d="M2350.17,-71.6966C2351.16,-63.9827 2352.35,-54.7125 2353.46,-46.1124"/>
<polygon fill="black" stroke="black" points="2356.94,-46.469 2354.75,-36.1043 2350,-45.5763 2356.94,-46.469"/>
</g>
<!-- ExpList0 -->
<g id="node3" class="node"><title>ExpList0</title>
<ellipse fill="none" stroke="black" cx="2094.95" cy="-162" rx="42.7926" ry="18"/>
<text text-anchor="middle" x="2094.95" y="-158.3" font-family="Times,serif" font-size="14.00">ExpList0</text>
</g>
<!-- ExpList0&#45;&gt;ExpTemp15 -->
<g id="edge4" class="edge"><title>ExpList0&#45;&gt;ExpTemp15</title>
<path fill="none" stroke="black" d="M2127.31,-150.098C2133.79,-148.005 2140.57,-145.881 2146.95,-144 2197.15,-129.188 2254.99,-114.147 2295.69,-103.891"/>
<polygon fill="black" stroke="black" points="2296.55,-107.285 2305.4,-101.455 2294.85,-100.495 2296.55,-107.285"/>
</g>
<!-- ExpTemp13 -->
<g id="node4" class="node"><title>ExpTemp13</title>
<ellipse fill="none" stroke="black" cx="2084.95" cy="-90" rx="54.6905" ry="18"/>
<text text-anchor="middle" x="2084.95" y="-86.3" font-family="Times,serif" font-size="14.00">ExpTemp13</text>
</g>
<!-- ExpList0&#45;&gt;ExpTemp13 -->
<g id="edge2" class="edge"><title>ExpList0&#45;&gt;ExpTemp13</title>
<path fill="none" stroke="black" d="M2092.47,-143.697C2091.37,-135.983 2090.05,-126.712 2088.82,-118.112"/>
<polygon fill="black" stroke="black" points="2092.27,-117.509 2087.39,-108.104 2085.34,-118.499 2092.27,-117.509"/>
</g>
<!-- ExpTemp14 -->
<g id="node5" class="node"><title>ExpTemp14</title>
<ellipse fill="none" stroke="black" cx="2211.95" cy="-90" rx="54.6905" ry="18"/>
<text text-anchor="middle" x="2211.95" y="-86.3" font-family="Times,serif" font-size="14.00">ExpTemp14</text>
</g>
<!-- ExpList0&#45;&gt;ExpTemp14 -->
<g id="edge3" class="edge"><title>ExpList0&#45;&gt;ExpTemp14</title>
<path fill="none" stroke="black" d="M2118.62,-146.834C2135.68,-136.626 2158.96,-122.7 2178,-111.31"/>
<polygon fill="black" stroke="black" points="2179.9,-114.251 2186.68,-106.114 2176.31,-108.244 2179.9,-114.251"/>
</g>
<!-- Temp13: T403 -->
<g id="node8" class="node"><title>Temp13: T403</title>
<ellipse fill="none" stroke="black" cx="2066.95" cy="-18" rx="63.8893" ry="18"/>
<text text-anchor="middle" x="2066.95" y="-14.3" font-family="Times,serif" font-size="14.00">Temp13: T403</text>
</g>
<!-- ExpTemp13&#45;&gt;Temp13: T403 -->
<g id="edge6" class="edge"><title>ExpTemp13&#45;&gt;Temp13: T403</title>
<path fill="none" stroke="black" d="M2080.59,-72.055C2078.58,-64.2609 2076.16,-54.8219 2073.91,-46.0789"/>
<polygon fill="black" stroke="black" points="2077.27,-45.0886 2071.39,-36.2753 2070.49,-46.8319 2077.27,-45.0886"/>
</g>
<!-- Temp14: T404 -->
<g id="node62" class="node"><title>Temp14: T404</title>
<ellipse fill="none" stroke="black" cx="2211.95" cy="-18" rx="63.8893" ry="18"/>
<text text-anchor="middle" x="2211.95" y="-14.3" font-family="Times,serif" font-size="14.00">Temp14: T404</text>
</g>
<!-- ExpTemp14&#45;&gt;Temp14: T404 -->
<g id="edge60" class="edge"><title>ExpTemp14&#45;&gt;Temp14: T404</title>
<path fill="none" stroke="black" d="M2211.95,-71.6966C2211.95,-63.9827 2211.95,-54.7125 2211.95,-46.1124"/>
<polygon fill="black" stroke="black" points="2215.45,-46.1043 2211.95,-36.1043 2208.45,-46.1044 2215.45,-46.1043"/>
</g>
<!-- ExpTemp16 -->
<g id="node6" class="node"><title>ExpTemp16</title>
<ellipse fill="none" stroke="black" cx="2157.95" cy="-234" rx="54.6905" ry="18"/>
<text text-anchor="middle" x="2157.95" y="-230.3" font-family="Times,serif" font-size="14.00">ExpTemp16</text>
</g>
<!-- Temp16: T407 -->
<g id="node7" class="node"><title>Temp16: T407</title>
<ellipse fill="none" stroke="black" cx="2219.95" cy="-162" rx="63.8893" ry="18"/>
<text text-anchor="middle" x="2219.95" y="-158.3" font-family="Times,serif" font-size="14.00">Temp16: T407</text>
</g>
<!-- ExpTemp16&#45;&gt;Temp16: T407 -->
<g id="edge5" class="edge"><title>ExpTemp16&#45;&gt;Temp16: T407</title>
<path fill="none" stroke="black" d="M2172.64,-216.411C2180.25,-207.82 2189.69,-197.159 2198.13,-187.627"/>
<polygon fill="black" stroke="black" points="2200.92,-189.763 2204.93,-179.956 2195.68,-185.121 2200.92,-189.763"/>
</g>
<!-- StatMove6 -->
<g id="node9" class="node"><title>StatMove6</title>
<ellipse fill="none" stroke="black" cx="1843.95" cy="-306" rx="50.0912" ry="18"/>
<text text-anchor="middle" x="1843.95" y="-302.3" font-family="Times,serif" font-size="14.00">StatMove6</text>
</g>
<!-- ExpTemp11 -->
<g id="node10" class="node"><title>ExpTemp11</title>
<ellipse fill="none" stroke="black" cx="1843.95" cy="-234" rx="54.6905" ry="18"/>
<text text-anchor="middle" x="1843.95" y="-230.3" font-family="Times,serif" font-size="14.00">ExpTemp11</text>
</g>
<!-- StatMove6&#45;&gt;ExpTemp11 -->
<g id="edge7" class="edge"><title>StatMove6&#45;&gt;ExpTemp11</title>
<path fill="none" stroke="black" d="M1843.95,-287.697C1843.95,-279.983 1843.95,-270.712 1843.95,-262.112"/>
<polygon fill="black" stroke="black" points="1847.45,-262.104 1843.95,-252.104 1840.45,-262.104 1847.45,-262.104"/>
</g>
<!-- ExpCall0 -->
<g id="node11" class="node"><title>ExpCall0</title>
<ellipse fill="none" stroke="black" cx="1979.95" cy="-234" rx="44.393" ry="18"/>
<text text-anchor="middle" x="1979.95" y="-230.3" font-family="Times,serif" font-size="14.00">ExpCall0</text>
</g>
<!-- StatMove6&#45;&gt;ExpCall0 -->
<g id="edge8" class="edge"><title>StatMove6&#45;&gt;ExpCall0</title>
<path fill="none" stroke="black" d="M1871.47,-290.834C1892.48,-280.02 1921.6,-265.033 1944.37,-253.309"/>
<polygon fill="black" stroke="black" points="1946.1,-256.357 1953.39,-248.668 1942.9,-250.133 1946.1,-256.357"/>
</g>
<!-- Temp11: T406 -->
<g id="node67" class="node"><title>Temp11: T406</title>
<ellipse fill="none" stroke="black" cx="1843.95" cy="-162" rx="63.8893" ry="18"/>
<text text-anchor="middle" x="1843.95" y="-158.3" font-family="Times,serif" font-size="14.00">Temp11: T406</text>
</g>
<!-- ExpTemp11&#45;&gt;Temp11: T406 -->
<g id="edge64" class="edge"><title>ExpTemp11&#45;&gt;Temp11: T406</title>
<path fill="none" stroke="black" d="M1843.95,-215.697C1843.95,-207.983 1843.95,-198.712 1843.95,-190.112"/>
<polygon fill="black" stroke="black" points="1847.45,-190.104 1843.95,-180.104 1840.45,-190.104 1847.45,-190.104"/>
</g>
<!-- ExpCall0&#45;&gt;ExpList0 -->
<g id="edge51" class="edge"><title>ExpCall0&#45;&gt;ExpList0</title>
<path fill="none" stroke="black" d="M2003.49,-218.666C2020.63,-208.237 2044.02,-193.996 2062.86,-182.529"/>
<polygon fill="black" stroke="black" points="2064.71,-185.505 2071.43,-177.315 2061.07,-179.525 2064.71,-185.505"/>
</g>
<!-- ExpTemp12 -->
<g id="node55" class="node"><title>ExpTemp12</title>
<ellipse fill="none" stroke="black" cx="1979.95" cy="-162" rx="54.6905" ry="18"/>
<text text-anchor="middle" x="1979.95" y="-158.3" font-family="Times,serif" font-size="14.00">ExpTemp12</text>
</g>
<!-- ExpCall0&#45;&gt;ExpTemp12 -->
<g id="edge50" class="edge"><title>ExpCall0&#45;&gt;ExpTemp12</title>
<path fill="none" stroke="black" d="M1979.95,-215.697C1979.95,-207.983 1979.95,-198.712 1979.95,-190.112"/>
<polygon fill="black" stroke="black" points="1983.45,-190.104 1979.95,-180.104 1976.45,-190.104 1983.45,-190.104"/>
</g>
<!-- ExpMem3 -->
<g id="node12" class="node"><title>ExpMem3</title>
<ellipse fill="none" stroke="black" cx="1701.95" cy="-234" rx="48.9926" ry="18"/>
<text text-anchor="middle" x="1701.95" y="-230.3" font-family="Times,serif" font-size="14.00">ExpMem3</text>
</g>
<!-- ExpBinary2 -->
<g id="node13" class="node"><title>ExpBinary2</title>
<ellipse fill="none" stroke="black" cx="1708.95" cy="-162" rx="53.0913" ry="18"/>
<text text-anchor="middle" x="1708.95" y="-158.3" font-family="Times,serif" font-size="14.00">ExpBinary2</text>
</g>
<!-- ExpMem3&#45;&gt;ExpBinary2 -->
<g id="edge9" class="edge"><title>ExpMem3&#45;&gt;ExpBinary2</title>
<path fill="none" stroke="black" d="M1703.68,-215.697C1704.45,-207.983 1705.37,-198.712 1706.23,-190.112"/>
<polygon fill="black" stroke="black" points="1709.72,-190.403 1707.23,-180.104 1702.76,-189.706 1709.72,-190.403"/>
</g>
<!-- ExpConst2 -->
<g id="node14" class="node"><title>ExpConst2</title>
<ellipse fill="none" stroke="black" cx="1807.95" cy="-90" rx="50.0912" ry="18"/>
<text text-anchor="middle" x="1807.95" y="-86.3" font-family="Times,serif" font-size="14.00">ExpConst2</text>
</g>
<!-- ExpBinary2&#45;&gt;ExpConst2 -->
<g id="edge13" class="edge"><title>ExpBinary2&#45;&gt;ExpConst2</title>
<path fill="none" stroke="black" d="M1730.92,-145.465C1744.73,-135.7 1762.73,-122.972 1777.85,-112.276"/>
<polygon fill="black" stroke="black" points="1780.23,-114.882 1786.38,-106.251 1776.19,-109.167 1780.23,-114.882"/>
</g>
<!-- ExpTemp10 -->
<g id="node16" class="node"><title>ExpTemp10</title>
<ellipse fill="none" stroke="black" cx="1605.95" cy="-90" rx="54.6905" ry="18"/>
<text text-anchor="middle" x="1605.95" y="-86.3" font-family="Times,serif" font-size="14.00">ExpTemp10</text>
</g>
<!-- ExpBinary2&#45;&gt;ExpTemp10 -->
<g id="edge11" class="edge"><title>ExpBinary2&#45;&gt;ExpTemp10</title>
<path fill="none" stroke="black" d="M1686.34,-145.638C1671.95,-135.859 1653.11,-123.054 1637.29,-112.3"/>
<polygon fill="black" stroke="black" points="1639.09,-109.294 1628.85,-106.568 1635.16,-115.084 1639.09,-109.294"/>
</g>
<!-- Plus2 -->
<g id="node17" class="node"><title>Plus2</title>
<ellipse fill="none" stroke="black" cx="1708.95" cy="-90" rx="30.5947" ry="18"/>
<text text-anchor="middle" x="1708.95" y="-86.3" font-family="Times,serif" font-size="14.00">Plus2</text>
</g>
<!-- ExpBinary2&#45;&gt;Plus2 -->
<g id="edge12" class="edge"><title>ExpBinary2&#45;&gt;Plus2</title>
<path fill="none" stroke="black" d="M1708.95,-143.697C1708.95,-135.983 1708.95,-126.712 1708.95,-118.112"/>
<polygon fill="black" stroke="black" points="1712.45,-118.104 1708.95,-108.104 1705.45,-118.104 1712.45,-118.104"/>
</g>
<!-- Value2: 8 -->
<g id="node15" class="node"><title>Value2: 8</title>
<ellipse fill="none" stroke="black" cx="1807.95" cy="-18" rx="45.4919" ry="18"/>
<text text-anchor="middle" x="1807.95" y="-14.3" font-family="Times,serif" font-size="14.00">Value2: 8</text>
</g>
<!-- ExpConst2&#45;&gt;Value2: 8 -->
<g id="edge10" class="edge"><title>ExpConst2&#45;&gt;Value2: 8</title>
<path fill="none" stroke="black" d="M1807.95,-71.6966C1807.95,-63.9827 1807.95,-54.7125 1807.95,-46.1124"/>
<polygon fill="black" stroke="black" points="1811.45,-46.1043 1807.95,-36.1043 1804.45,-46.1044 1811.45,-46.1043"/>
</g>
<!-- Temp10: $fp -->
<g id="node38" class="node"><title>Temp10: $fp</title>
<ellipse fill="none" stroke="black" cx="1605.95" cy="-18" rx="57.3905" ry="18"/>
<text text-anchor="middle" x="1605.95" y="-14.3" font-family="Times,serif" font-size="14.00">Temp10: $fp</text>
</g>
<!-- ExpTemp10&#45;&gt;Temp10: $fp -->
<g id="edge30" class="edge"><title>ExpTemp10&#45;&gt;Temp10: $fp</title>
<path fill="none" stroke="black" d="M1605.95,-71.6966C1605.95,-63.9827 1605.95,-54.7125 1605.95,-46.1124"/>
<polygon fill="black" stroke="black" points="1609.45,-46.1043 1605.95,-36.1043 1602.45,-46.1044 1609.45,-46.1043"/>
</g>
<!-- ExpTemp9 -->
<g id="node18" class="node"><title>ExpTemp9</title>
<ellipse fill="none" stroke="black" cx="1577.95" cy="-234" rx="50.0912" ry="18"/>
<text text-anchor="middle" x="1577.95" y="-230.3" font-family="Times,serif" font-size="14.00">ExpTemp9</text>
</g>
<!-- Temp9: T405 -->
<g id="node19" class="node"><title>Temp9: T405</title>
<ellipse fill="none" stroke="black" cx="1577.95" cy="-162" rx="59.5901" ry="18"/>
<text text-anchor="middle" x="1577.95" y="-158.3" font-family="Times,serif" font-size="14.00">Temp9: T405</text>
</g>
<!-- ExpTemp9&#45;&gt;Temp9: T405 -->
<g id="edge14" class="edge"><title>ExpTemp9&#45;&gt;Temp9: T405</title>
<path fill="none" stroke="black" d="M1577.95,-215.697C1577.95,-207.983 1577.95,-198.712 1577.95,-190.112"/>
<polygon fill="black" stroke="black" points="1581.45,-190.104 1577.95,-180.104 1574.45,-190.104 1581.45,-190.104"/>
</g>
<!-- ExpName0 -->
<g id="node20" class="node"><title>ExpName0</title>
<ellipse fill="none" stroke="black" cx="1358.95" cy="-234" rx="50.8918" ry="18"/>
<text text-anchor="middle" x="1358.95" y="-230.3" font-family="Times,serif" font-size="14.00">ExpName0</text>
</g>
<!-- Label1: Tree@RemoveLeft -->
<g id="node21" class="node"><title>Label1: Tree@RemoveLeft</title>
<ellipse fill="none" stroke="black" cx="1391.95" cy="-162" rx="108.581" ry="18"/>
<text text-anchor="middle" x="1391.95" y="-158.3" font-family="Times,serif" font-size="14.00">Label1: Tree@RemoveLeft</text>
</g>
<!-- ExpName0&#45;&gt;Label1: Tree@RemoveLeft -->
<g id="edge15" class="edge"><title>ExpName0&#45;&gt;Label1: Tree@RemoveLeft</title>
<path fill="none" stroke="black" d="M1366.93,-216.055C1370.69,-208.091 1375.25,-198.411 1379.45,-189.51"/>
<polygon fill="black" stroke="black" points="1382.7,-190.813 1383.8,-180.275 1376.37,-187.828 1382.7,-190.813"/>
</g>
<!-- StatMove5 -->
<g id="node22" class="node"><title>StatMove5</title>
<ellipse fill="none" stroke="black" cx="1577.95" cy="-306" rx="50.0912" ry="18"/>
<text text-anchor="middle" x="1577.95" y="-302.3" font-family="Times,serif" font-size="14.00">StatMove5</text>
</g>
<!-- StatMove5&#45;&gt;ExpMem3 -->
<g id="edge17" class="edge"><title>StatMove5&#45;&gt;ExpMem3</title>
<path fill="none" stroke="black" d="M1603.64,-290.496C1622.09,-280.078 1647.17,-265.919 1667.38,-254.51"/>
<polygon fill="black" stroke="black" points="1669.3,-257.449 1676.29,-249.485 1665.86,-251.354 1669.3,-257.449"/>
</g>
<!-- StatMove5&#45;&gt;ExpTemp9 -->
<g id="edge16" class="edge"><title>StatMove5&#45;&gt;ExpTemp9</title>
<path fill="none" stroke="black" d="M1577.95,-287.697C1577.95,-279.983 1577.95,-270.712 1577.95,-262.112"/>
<polygon fill="black" stroke="black" points="1581.45,-262.104 1577.95,-252.104 1574.45,-262.104 1581.45,-262.104"/>
</g>
<!-- ExpConst1 -->
<g id="node23" class="node"><title>ExpConst1</title>
<ellipse fill="none" stroke="black" cx="917.945" cy="-90" rx="50.0912" ry="18"/>
<text text-anchor="middle" x="917.945" y="-86.3" font-family="Times,serif" font-size="14.00">ExpConst1</text>
</g>
<!-- Value1: 4 -->
<g id="node24" class="node"><title>Value1: 4</title>
<ellipse fill="none" stroke="black" cx="917.945" cy="-18" rx="45.4919" ry="18"/>
<text text-anchor="middle" x="917.945" y="-14.3" font-family="Times,serif" font-size="14.00">Value1: 4</text>
</g>
<!-- ExpConst1&#45;&gt;Value1: 4 -->
<g id="edge18" class="edge"><title>ExpConst1&#45;&gt;Value1: 4</title>
<path fill="none" stroke="black" d="M917.945,-71.6966C917.945,-63.9827 917.945,-54.7125 917.945,-46.1124"/>
<polygon fill="black" stroke="black" points="921.445,-46.1043 917.945,-36.1043 914.445,-46.1044 921.445,-46.1043"/>
</g>
<!-- StatMove7 -->
<g id="node25" class="node"><title>StatMove7</title>
<ellipse fill="none" stroke="black" cx="2157.95" cy="-306" rx="50.0912" ry="18"/>
<text text-anchor="middle" x="2157.95" y="-302.3" font-family="Times,serif" font-size="14.00">StatMove7</text>
</g>
<!-- StatMove7&#45;&gt;ExpTemp16 -->
<g id="edge19" class="edge"><title>StatMove7&#45;&gt;ExpTemp16</title>
<path fill="none" stroke="black" d="M2157.95,-287.697C2157.95,-279.983 2157.95,-270.712 2157.95,-262.112"/>
<polygon fill="black" stroke="black" points="2161.45,-262.104 2157.95,-252.104 2154.45,-262.104 2161.45,-262.104"/>
</g>
<!-- ExpTemp17 -->
<g id="node26" class="node"><title>ExpTemp17</title>
<ellipse fill="none" stroke="black" cx="2284.95" cy="-234" rx="54.6905" ry="18"/>
<text text-anchor="middle" x="2284.95" y="-230.3" font-family="Times,serif" font-size="14.00">ExpTemp17</text>
</g>
<!-- StatMove7&#45;&gt;ExpTemp17 -->
<g id="edge20" class="edge"><title>StatMove7&#45;&gt;ExpTemp17</title>
<path fill="none" stroke="black" d="M2184.26,-290.496C2203.12,-280.101 2228.74,-265.981 2249.41,-254.585"/>
<polygon fill="black" stroke="black" points="2251.16,-257.619 2258.23,-249.726 2247.78,-251.488 2251.16,-257.619"/>
</g>
<!-- Temp17: T388 -->
<g id="node54" class="node"><title>Temp17: T388</title>
<ellipse fill="none" stroke="black" cx="2364.95" cy="-162" rx="63.8893" ry="18"/>
<text text-anchor="middle" x="2364.95" y="-158.3" font-family="Times,serif" font-size="14.00">Temp17: T388</text>
</g>
<!-- ExpTemp17&#45;&gt;Temp17: T388 -->
<g id="edge49" class="edge"><title>ExpTemp17&#45;&gt;Temp17: T388</title>
<path fill="none" stroke="black" d="M2303.5,-216.765C2313.93,-207.642 2327.11,-196.105 2338.59,-186.059"/>
<polygon fill="black" stroke="black" points="2340.99,-188.609 2346.21,-179.39 2336.38,-183.341 2340.99,-188.609"/>
</g>
<!-- StatMove4 -->
<g id="node27" class="node"><title>StatMove4</title>
<ellipse fill="none" stroke="black" cx="1205.95" cy="-306" rx="50.0912" ry="18"/>
<text text-anchor="middle" x="1205.95" y="-302.3" font-family="Times,serif" font-size="14.00">StatMove4</text>
</g>
<!-- StatMove4&#45;&gt;ExpName0 -->
<g id="edge22" class="edge"><title>StatMove4&#45;&gt;ExpName0</title>
<path fill="none" stroke="black" d="M1235.81,-291.337C1259.82,-280.352 1293.74,-264.832 1319.9,-252.863"/>
<polygon fill="black" stroke="black" points="1321.52,-255.972 1329.16,-248.628 1318.61,-249.606 1321.52,-255.972"/>
</g>
<!-- ExpTemp8 -->
<g id="node28" class="node"><title>ExpTemp8</title>
<ellipse fill="none" stroke="black" cx="1205.95" cy="-234" rx="50.0912" ry="18"/>
<text text-anchor="middle" x="1205.95" y="-230.3" font-family="Times,serif" font-size="14.00">ExpTemp8</text>
</g>
<!-- StatMove4&#45;&gt;ExpTemp8 -->
<g id="edge21" class="edge"><title>StatMove4&#45;&gt;ExpTemp8</title>
<path fill="none" stroke="black" d="M1205.95,-287.697C1205.95,-279.983 1205.95,-270.712 1205.95,-262.112"/>
<polygon fill="black" stroke="black" points="1209.45,-262.104 1205.95,-252.104 1202.45,-262.104 1209.45,-262.104"/>
</g>
<!-- Temp8: T402 -->
<g id="node37" class="node"><title>Temp8: T402</title>
<ellipse fill="none" stroke="black" cx="1205.95" cy="-162" rx="59.5901" ry="18"/>
<text text-anchor="middle" x="1205.95" y="-158.3" font-family="Times,serif" font-size="14.00">Temp8: T402</text>
</g>
<!-- ExpTemp8&#45;&gt;Temp8: T402 -->
<g id="edge29" class="edge"><title>ExpTemp8&#45;&gt;Temp8: T402</title>
<path fill="none" stroke="black" d="M1205.95,-215.697C1205.95,-207.983 1205.95,-198.712 1205.95,-190.112"/>
<polygon fill="black" stroke="black" points="1209.45,-190.104 1205.95,-180.104 1202.45,-190.104 1209.45,-190.104"/>
</g>
<!-- ExpMem0 -->
<g id="node29" class="node"><title>ExpMem0</title>
<ellipse fill="none" stroke="black" cx="292.945" cy="-234" rx="48.9926" ry="18"/>
<text text-anchor="middle" x="292.945" y="-230.3" font-family="Times,serif" font-size="14.00">ExpMem0</text>
</g>
<!-- ExpBinary0 -->
<g id="node30" class="node"><title>ExpBinary0</title>
<ellipse fill="none" stroke="black" cx="280.945" cy="-162" rx="53.0913" ry="18"/>
<text text-anchor="middle" x="280.945" y="-158.3" font-family="Times,serif" font-size="14.00">ExpBinary0</text>
</g>
<!-- ExpMem0&#45;&gt;ExpBinary0 -->
<g id="edge23" class="edge"><title>ExpMem0&#45;&gt;ExpBinary0</title>
<path fill="none" stroke="black" d="M289.979,-215.697C288.657,-207.983 287.067,-198.712 285.593,-190.112"/>
<polygon fill="black" stroke="black" points="289.017,-189.369 283.877,-180.104 282.117,-190.552 289.017,-189.369"/>
</g>
<!-- ExpConst0 -->
<g id="node43" class="node"><title>ExpConst0</title>
<ellipse fill="none" stroke="black" cx="379.945" cy="-90" rx="50.0912" ry="18"/>
<text text-anchor="middle" x="379.945" y="-86.3" font-family="Times,serif" font-size="14.00">ExpConst0</text>
</g>
<!-- ExpBinary0&#45;&gt;ExpConst0 -->
<g id="edge56" class="edge"><title>ExpBinary0&#45;&gt;ExpConst0</title>
<path fill="none" stroke="black" d="M302.917,-145.465C316.726,-135.7 334.727,-122.972 349.855,-112.276"/>
<polygon fill="black" stroke="black" points="352.231,-114.882 358.376,-106.251 348.19,-109.167 352.231,-114.882"/>
</g>
<!-- ExpTemp1 -->
<g id="node59" class="node"><title>ExpTemp1</title>
<ellipse fill="none" stroke="black" cx="181.945" cy="-90" rx="50.0912" ry="18"/>
<text text-anchor="middle" x="181.945" y="-86.3" font-family="Times,serif" font-size="14.00">ExpTemp1</text>
</g>
<!-- ExpBinary0&#45;&gt;ExpTemp1 -->
<g id="edge54" class="edge"><title>ExpBinary0&#45;&gt;ExpTemp1</title>
<path fill="none" stroke="black" d="M258.974,-145.465C245.164,-135.7 227.163,-122.972 212.036,-112.276"/>
<polygon fill="black" stroke="black" points="213.7,-109.167 203.514,-106.251 209.659,-114.882 213.7,-109.167"/>
</g>
<!-- Plus0 -->
<g id="node60" class="node"><title>Plus0</title>
<ellipse fill="none" stroke="black" cx="280.945" cy="-90" rx="30.5947" ry="18"/>
<text text-anchor="middle" x="280.945" y="-86.3" font-family="Times,serif" font-size="14.00">Plus0</text>
</g>
<!-- ExpBinary0&#45;&gt;Plus0 -->
<g id="edge55" class="edge"><title>ExpBinary0&#45;&gt;Plus0</title>
<path fill="none" stroke="black" d="M280.945,-143.697C280.945,-135.983 280.945,-126.712 280.945,-118.112"/>
<polygon fill="black" stroke="black" points="284.445,-118.104 280.945,-108.104 277.445,-118.104 284.445,-118.104"/>
</g>
<!-- ExpBinary1 -->
<g id="node31" class="node"><title>ExpBinary1</title>
<ellipse fill="none" stroke="black" cx="818.945" cy="-162" rx="53.0913" ry="18"/>
<text text-anchor="middle" x="818.945" y="-158.3" font-family="Times,serif" font-size="14.00">ExpBinary1</text>
</g>
<!-- ExpBinary1&#45;&gt;ExpConst1 -->
<g id="edge26" class="edge"><title>ExpBinary1&#45;&gt;ExpConst1</title>
<path fill="none" stroke="black" d="M840.917,-145.465C854.726,-135.7 872.727,-122.972 887.855,-112.276"/>
<polygon fill="black" stroke="black" points="890.231,-114.882 896.376,-106.251 886.19,-109.167 890.231,-114.882"/>
</g>
<!-- ExpTemp5 -->
<g id="node32" class="node"><title>ExpTemp5</title>
<ellipse fill="none" stroke="black" cx="719.945" cy="-90" rx="50.0912" ry="18"/>
<text text-anchor="middle" x="719.945" y="-86.3" font-family="Times,serif" font-size="14.00">ExpTemp5</text>
</g>
<!-- ExpBinary1&#45;&gt;ExpTemp5 -->
<g id="edge24" class="edge"><title>ExpBinary1&#45;&gt;ExpTemp5</title>
<path fill="none" stroke="black" d="M796.974,-145.465C783.164,-135.7 765.163,-122.972 750.036,-112.276"/>
<polygon fill="black" stroke="black" points="751.7,-109.167 741.514,-106.251 747.659,-114.882 751.7,-109.167"/>
</g>
<!-- Plus1 -->
<g id="node33" class="node"><title>Plus1</title>
<ellipse fill="none" stroke="black" cx="818.945" cy="-90" rx="30.5947" ry="18"/>
<text text-anchor="middle" x="818.945" y="-86.3" font-family="Times,serif" font-size="14.00">Plus1</text>
</g>
<!-- ExpBinary1&#45;&gt;Plus1 -->
<g id="edge25" class="edge"><title>ExpBinary1&#45;&gt;Plus1</title>
<path fill="none" stroke="black" d="M818.945,-143.697C818.945,-135.983 818.945,-126.712 818.945,-118.112"/>
<polygon fill="black" stroke="black" points="822.445,-118.104 818.945,-108.104 815.445,-118.104 822.445,-118.104"/>
</g>
<!-- Temp5: $fp -->
<g id="node64" class="node"><title>Temp5: $fp</title>
<ellipse fill="none" stroke="black" cx="719.945" cy="-18" rx="52.7911" ry="18"/>
<text text-anchor="middle" x="719.945" y="-14.3" font-family="Times,serif" font-size="14.00">Temp5: $fp</text>
</g>
<!-- ExpTemp5&#45;&gt;Temp5: $fp -->
<g id="edge62" class="edge"><title>ExpTemp5&#45;&gt;Temp5: $fp</title>
<path fill="none" stroke="black" d="M719.945,-71.6966C719.945,-63.9827 719.945,-54.7125 719.945,-46.1124"/>
<polygon fill="black" stroke="black" points="723.445,-46.1043 719.945,-36.1043 716.445,-46.1044 723.445,-46.1043"/>
</g>
<!-- StatMove1 -->
<g id="node34" class="node"><title>StatMove1</title>
<ellipse fill="none" stroke="black" cx="549.945" cy="-306" rx="50.0912" ry="18"/>
<text text-anchor="middle" x="549.945" y="-302.3" font-family="Times,serif" font-size="14.00">StatMove1</text>
</g>
<!-- ExpTemp2 -->
<g id="node35" class="node"><title>ExpTemp2</title>
<ellipse fill="none" stroke="black" cx="421.945" cy="-234" rx="50.0912" ry="18"/>
<text text-anchor="middle" x="421.945" y="-230.3" font-family="Times,serif" font-size="14.00">ExpTemp2</text>
</g>
<!-- StatMove1&#45;&gt;ExpTemp2 -->
<g id="edge27" class="edge"><title>StatMove1&#45;&gt;ExpTemp2</title>
<path fill="none" stroke="black" d="M523.734,-290.666C504.62,-280.213 478.5,-265.929 457.506,-254.447"/>
<polygon fill="black" stroke="black" points="459.015,-251.283 448.562,-249.556 455.656,-257.425 459.015,-251.283"/>
</g>
<!-- ExpTemp3 -->
<g id="node36" class="node"><title>ExpTemp3</title>
<ellipse fill="none" stroke="black" cx="549.945" cy="-234" rx="50.0912" ry="18"/>
<text text-anchor="middle" x="549.945" y="-230.3" font-family="Times,serif" font-size="14.00">ExpTemp3</text>
</g>
<!-- StatMove1&#45;&gt;ExpTemp3 -->
<g id="edge28" class="edge"><title>StatMove1&#45;&gt;ExpTemp3</title>
<path fill="none" stroke="black" d="M549.945,-287.697C549.945,-279.983 549.945,-270.712 549.945,-262.112"/>
<polygon fill="black" stroke="black" points="553.445,-262.104 549.945,-252.104 546.445,-262.104 553.445,-262.104"/>
</g>
<!-- Temp2: T406 -->
<g id="node39" class="node"><title>Temp2: T406</title>
<ellipse fill="none" stroke="black" cx="411.945" cy="-162" rx="59.5901" ry="18"/>
<text text-anchor="middle" x="411.945" y="-158.3" font-family="Times,serif" font-size="14.00">Temp2: T406</text>
</g>
<!-- ExpTemp2&#45;&gt;Temp2: T406 -->
<g id="edge31" class="edge"><title>ExpTemp2&#45;&gt;Temp2: T406</title>
<path fill="none" stroke="black" d="M419.473,-215.697C418.371,-207.983 417.047,-198.712 415.818,-190.112"/>
<polygon fill="black" stroke="black" points="419.268,-189.509 414.389,-180.104 412.338,-190.499 419.268,-189.509"/>
</g>
<!-- Temp3: T388 -->
<g id="node61" class="node"><title>Temp3: T388</title>
<ellipse fill="none" stroke="black" cx="549.945" cy="-162" rx="59.5901" ry="18"/>
<text text-anchor="middle" x="549.945" y="-158.3" font-family="Times,serif" font-size="14.00">Temp3: T388</text>
</g>
<!-- ExpTemp3&#45;&gt;Temp3: T388 -->
<g id="edge59" class="edge"><title>ExpTemp3&#45;&gt;Temp3: T388</title>
<path fill="none" stroke="black" d="M549.945,-215.697C549.945,-207.983 549.945,-198.712 549.945,-190.112"/>
<polygon fill="black" stroke="black" points="553.445,-190.104 549.945,-180.104 546.445,-190.104 553.445,-190.104"/>
</g>
<!-- StatMove2 -->
<g id="node40" class="node"><title>StatMove2</title>
<ellipse fill="none" stroke="black" cx="818.945" cy="-306" rx="50.0912" ry="18"/>
<text text-anchor="middle" x="818.945" y="-302.3" font-family="Times,serif" font-size="14.00">StatMove2</text>
</g>
<!-- ExpTemp4 -->
<g id="node41" class="node"><title>ExpTemp4</title>
<ellipse fill="none" stroke="black" cx="694.945" cy="-234" rx="50.0912" ry="18"/>
<text text-anchor="middle" x="694.945" y="-230.3" font-family="Times,serif" font-size="14.00">ExpTemp4</text>
</g>
<!-- StatMove2&#45;&gt;ExpTemp4 -->
<g id="edge32" class="edge"><title>StatMove2&#45;&gt;ExpTemp4</title>
<path fill="none" stroke="black" d="M793.252,-290.496C774.797,-280.078 749.716,-265.919 729.506,-254.51"/>
<polygon fill="black" stroke="black" points="731.034,-251.354 720.605,-249.485 727.593,-257.449 731.034,-251.354"/>
</g>
<!-- ExpMem1 -->
<g id="node42" class="node"><title>ExpMem1</title>
<ellipse fill="none" stroke="black" cx="818.945" cy="-234" rx="48.9926" ry="18"/>
<text text-anchor="middle" x="818.945" y="-230.3" font-family="Times,serif" font-size="14.00">ExpMem1</text>
</g>
<!-- StatMove2&#45;&gt;ExpMem1 -->
<g id="edge33" class="edge"><title>StatMove2&#45;&gt;ExpMem1</title>
<path fill="none" stroke="black" d="M818.945,-287.697C818.945,-279.983 818.945,-270.712 818.945,-262.112"/>
<polygon fill="black" stroke="black" points="822.445,-262.104 818.945,-252.104 815.445,-262.104 822.445,-262.104"/>
</g>
<!-- Temp4: T404 -->
<g id="node68" class="node"><title>Temp4: T404</title>
<ellipse fill="none" stroke="black" cx="687.945" cy="-162" rx="59.5901" ry="18"/>
<text text-anchor="middle" x="687.945" y="-158.3" font-family="Times,serif" font-size="14.00">Temp4: T404</text>
</g>
<!-- ExpTemp4&#45;&gt;Temp4: T404 -->
<g id="edge67" class="edge"><title>ExpTemp4&#45;&gt;Temp4: T404</title>
<path fill="none" stroke="black" d="M693.215,-215.697C692.443,-207.983 691.516,-198.712 690.656,-190.112"/>
<polygon fill="black" stroke="black" points="694.133,-189.706 689.656,-180.104 687.168,-190.403 694.133,-189.706"/>
</g>
<!-- ExpMem1&#45;&gt;ExpBinary1 -->
<g id="edge35" class="edge"><title>ExpMem1&#45;&gt;ExpBinary1</title>
<path fill="none" stroke="black" d="M818.945,-215.697C818.945,-207.983 818.945,-198.712 818.945,-190.112"/>
<polygon fill="black" stroke="black" points="822.445,-190.104 818.945,-180.104 815.445,-190.104 822.445,-190.104"/>
</g>
<!-- Value0: 24 -->
<g id="node44" class="node"><title>Value0: 24</title>
<ellipse fill="none" stroke="black" cx="379.945" cy="-18" rx="50.0912" ry="18"/>
<text text-anchor="middle" x="379.945" y="-14.3" font-family="Times,serif" font-size="14.00">Value0: 24</text>
</g>
<!-- ExpConst0&#45;&gt;Value0: 24 -->
<g id="edge34" class="edge"><title>ExpConst0&#45;&gt;Value0: 24</title>
<path fill="none" stroke="black" d="M379.945,-71.6966C379.945,-63.9827 379.945,-54.7125 379.945,-46.1124"/>
<polygon fill="black" stroke="black" points="383.445,-46.1043 379.945,-36.1043 376.445,-46.1044 383.445,-46.1043"/>
</g>
<!-- StatLabel0 -->
<g id="node45" class="node"><title>StatLabel0</title>
<ellipse fill="none" stroke="black" cx="114.945" cy="-306" rx="48.9926" ry="18"/>
<text text-anchor="middle" x="114.945" y="-302.3" font-family="Times,serif" font-size="14.00">StatLabel0</text>
</g>
<!-- Label0: L46 -->
<g id="node46" class="node"><title>Label0: L46</title>
<ellipse fill="none" stroke="black" cx="53.9452" cy="-234" rx="53.8905" ry="18"/>
<text text-anchor="middle" x="53.9452" y="-230.3" font-family="Times,serif" font-size="14.00">Label0: L46</text>
</g>
<!-- StatLabel0&#45;&gt;Label0: L46 -->
<g id="edge36" class="edge"><title>StatLabel0&#45;&gt;Label0: L46</title>
<path fill="none" stroke="black" d="M100.797,-288.765C93.2083,-280.056 83.7016,-269.147 75.2386,-259.435"/>
<polygon fill="black" stroke="black" points="77.6485,-256.873 68.44,-251.633 72.3712,-261.472 77.6485,-256.873"/>
</g>
<!-- StatList0 -->
<g id="node47" class="node"><title>StatList0</title>
<ellipse fill="none" stroke="black" cx="1141.95" cy="-378" rx="42.4939" ry="18"/>
<text text-anchor="middle" x="1141.95" y="-374.3" font-family="Times,serif" font-size="14.00">StatList0</text>
</g>
<!-- StatList0&#45;&gt;StatMove6 -->
<g id="edge44" class="edge"><title>StatList0&#45;&gt;StatMove6</title>
<path fill="none" stroke="black" d="M1182.72,-372.934C1301.62,-361.078 1648.26,-326.513 1786.27,-312.751"/>
<polygon fill="black" stroke="black" points="1786.63,-316.233 1796.23,-311.758 1785.94,-309.267 1786.63,-316.233"/>
</g>
<!-- StatList0&#45;&gt;StatMove5 -->
<g id="edge43" class="edge"><title>StatList0&#45;&gt;StatMove5</title>
<path fill="none" stroke="black" d="M1181.02,-370.726C1259.01,-358.205 1434.13,-330.09 1523.39,-315.759"/>
<polygon fill="black" stroke="black" points="1524,-319.206 1533.32,-314.165 1522.89,-312.295 1524,-319.206"/>
</g>
<!-- StatList0&#45;&gt;StatMove7 -->
<g id="edge45" class="edge"><title>StatList0&#45;&gt;StatMove7</title>
<path fill="none" stroke="black" d="M1183.35,-374.147C1342.22,-363.202 1913.15,-323.866 2099.01,-311.06"/>
<polygon fill="black" stroke="black" points="2099.4,-314.542 2109.14,-310.363 2098.92,-307.559 2099.4,-314.542"/>
</g>
<!-- StatList0&#45;&gt;StatMove4 -->
<g id="edge42" class="edge"><title>StatList0&#45;&gt;StatMove4</title>
<path fill="none" stroke="black" d="M1156.79,-360.765C1164.83,-351.969 1174.93,-340.928 1183.87,-331.144"/>
<polygon fill="black" stroke="black" points="1186.57,-333.375 1190.74,-323.633 1181.41,-328.652 1186.57,-333.375"/>
</g>
<!-- StatList0&#45;&gt;StatMove1 -->
<g id="edge39" class="edge"><title>StatList0&#45;&gt;StatMove1</title>
<path fill="none" stroke="black" d="M1101.72,-372.244C998.802,-360.074 725.676,-327.779 606.685,-313.709"/>
<polygon fill="black" stroke="black" points="607.023,-310.225 596.681,-312.526 606.201,-317.176 607.023,-310.225"/>
</g>
<!-- StatList0&#45;&gt;StatMove2 -->
<g id="edge40" class="edge"><title>StatList0&#45;&gt;StatMove2</title>
<path fill="none" stroke="black" d="M1105.21,-369.038C1047.76,-356.589 936.475,-332.471 870.862,-318.251"/>
<polygon fill="black" stroke="black" points="871.253,-314.755 860.739,-316.057 869.771,-321.596 871.253,-314.755"/>
</g>
<!-- StatList0&#45;&gt;StatLabel0 -->
<g id="edge37" class="edge"><title>StatList0&#45;&gt;StatLabel0</title>
<path fill="none" stroke="black" d="M1099.76,-375.792C970.189,-371.813 566.64,-357.415 233.945,-324 212.54,-321.85 189.078,-318.675 168.686,-315.649"/>
<polygon fill="black" stroke="black" points="169.049,-312.164 158.639,-314.134 168.005,-319.086 169.049,-312.164"/>
</g>
<!-- StatMove0 -->
<g id="node48" class="node"><title>StatMove0</title>
<ellipse fill="none" stroke="black" cx="292.945" cy="-306" rx="50.0912" ry="18"/>
<text text-anchor="middle" x="292.945" y="-302.3" font-family="Times,serif" font-size="14.00">StatMove0</text>
</g>
<!-- StatList0&#45;&gt;StatMove0 -->
<g id="edge38" class="edge"><title>StatList0&#45;&gt;StatMove0</title>
<path fill="none" stroke="black" d="M1100.81,-373.714C997.986,-365.488 721.466,-343.28 490.945,-324 443.819,-320.059 390.396,-315.464 350.928,-312.046"/>
<polygon fill="black" stroke="black" points="351.217,-308.558 340.952,-311.181 350.612,-315.532 351.217,-308.558"/>
</g>
<!-- StatMove3 -->
<g id="node49" class="node"><title>StatMove3</title>
<ellipse fill="none" stroke="black" cx="1077.95" cy="-306" rx="50.0912" ry="18"/>
<text text-anchor="middle" x="1077.95" y="-302.3" font-family="Times,serif" font-size="14.00">StatMove3</text>
</g>
<!-- StatList0&#45;&gt;StatMove3 -->
<g id="edge41" class="edge"><title>StatList0&#45;&gt;StatMove3</title>
<path fill="none" stroke="black" d="M1127.1,-360.765C1119.06,-351.969 1108.97,-340.928 1100.02,-331.144"/>
<polygon fill="black" stroke="black" points="1102.48,-328.652 1093.15,-323.633 1097.32,-333.375 1102.48,-328.652"/>
</g>
<!-- StatJump0 -->
<g id="node50" class="node"><title>StatJump0</title>
<ellipse fill="none" stroke="black" cx="2342.95" cy="-306" rx="48.1917" ry="18"/>
<text text-anchor="middle" x="2342.95" y="-302.3" font-family="Times,serif" font-size="14.00">StatJump0</text>
</g>
<!-- StatList0&#45;&gt;StatJump0 -->
<g id="edge46" class="edge"><title>StatList0&#45;&gt;StatJump0</title>
<path fill="none" stroke="black" d="M1184.04,-376.208C1328.3,-373.222 1815.96,-360.869 2216.95,-324 2240.77,-321.809 2267.01,-318.426 2289.35,-315.252"/>
<polygon fill="black" stroke="black" points="2289.92,-318.707 2299.31,-313.814 2288.92,-311.779 2289.92,-318.707"/>
</g>
<!-- StatMove0&#45;&gt;ExpMem0 -->
<g id="edge58" class="edge"><title>StatMove0&#45;&gt;ExpMem0</title>
<path fill="none" stroke="black" d="M292.945,-287.697C292.945,-279.983 292.945,-270.712 292.945,-262.112"/>
<polygon fill="black" stroke="black" points="296.445,-262.104 292.945,-252.104 289.445,-262.104 296.445,-262.104"/>
</g>
<!-- ExpTemp0 -->
<g id="node51" class="node"><title>ExpTemp0</title>
<ellipse fill="none" stroke="black" cx="175.945" cy="-234" rx="50.0912" ry="18"/>
<text text-anchor="middle" x="175.945" y="-230.3" font-family="Times,serif" font-size="14.00">ExpTemp0</text>
</g>
<!-- StatMove0&#45;&gt;ExpTemp0 -->
<g id="edge57" class="edge"><title>StatMove0&#45;&gt;ExpTemp0</title>
<path fill="none" stroke="black" d="M268.133,-290.155C251.069,-279.946 228.206,-266.267 209.517,-255.086"/>
<polygon fill="black" stroke="black" points="211.101,-251.955 200.722,-249.824 207.507,-257.962 211.101,-251.955"/>
</g>
<!-- ExpMem2 -->
<g id="node56" class="node"><title>ExpMem2</title>
<ellipse fill="none" stroke="black" cx="1077.95" cy="-234" rx="48.9926" ry="18"/>
<text text-anchor="middle" x="1077.95" y="-230.3" font-family="Times,serif" font-size="14.00">ExpMem2</text>
</g>
<!-- StatMove3&#45;&gt;ExpMem2 -->
<g id="edge66" class="edge"><title>StatMove3&#45;&gt;ExpMem2</title>
<path fill="none" stroke="black" d="M1077.95,-287.697C1077.95,-279.983 1077.95,-270.712 1077.95,-262.112"/>
<polygon fill="black" stroke="black" points="1081.45,-262.104 1077.95,-252.104 1074.45,-262.104 1081.45,-262.104"/>
</g>
<!-- ExpTemp6 -->
<g id="node65" class="node"><title>ExpTemp6</title>
<ellipse fill="none" stroke="black" cx="954.945" cy="-234" rx="50.0912" ry="18"/>
<text text-anchor="middle" x="954.945" y="-230.3" font-family="Times,serif" font-size="14.00">ExpTemp6</text>
</g>
<!-- StatMove3&#45;&gt;ExpTemp6 -->
<g id="edge65" class="edge"><title>StatMove3&#45;&gt;ExpTemp6</title>
<path fill="none" stroke="black" d="M1052.46,-290.496C1034.28,-280.147 1009.61,-266.107 989.629,-254.739"/>
<polygon fill="black" stroke="black" points="991.244,-251.631 980.821,-249.726 987.781,-257.714 991.244,-251.631"/>
</g>
<!-- Label2: L48 -->
<g id="node53" class="node"><title>Label2: L48</title>
<ellipse fill="none" stroke="black" cx="2411.95" cy="-234" rx="53.8905" ry="18"/>
<text text-anchor="middle" x="2411.95" y="-230.3" font-family="Times,serif" font-size="14.00">Label2: L48</text>
</g>
<!-- StatJump0&#45;&gt;Label2: L48 -->
<g id="edge48" class="edge"><title>StatJump0&#45;&gt;Label2: L48</title>
<path fill="none" stroke="black" d="M2358.95,-288.765C2367.7,-279.882 2378.72,-268.709 2388.43,-258.854"/>
<polygon fill="black" stroke="black" points="2391.02,-261.212 2395.55,-251.633 2386.04,-256.298 2391.02,-261.212"/>
</g>
<!-- Temp0: T407 -->
<g id="node52" class="node"><title>Temp0: T407</title>
<ellipse fill="none" stroke="black" cx="149.945" cy="-162" rx="59.5901" ry="18"/>
<text text-anchor="middle" x="149.945" y="-158.3" font-family="Times,serif" font-size="14.00">Temp0: T407</text>
</g>
<!-- ExpTemp0&#45;&gt;Temp0: T407 -->
<g id="edge47" class="edge"><title>ExpTemp0&#45;&gt;Temp0: T407</title>
<path fill="none" stroke="black" d="M169.651,-216.055C166.725,-208.176 163.174,-198.617 159.897,-189.794"/>
<polygon fill="black" stroke="black" points="163.125,-188.431 156.362,-180.275 156.563,-190.868 163.125,-188.431"/>
</g>
<!-- Temp12: T402 -->
<g id="node58" class="node"><title>Temp12: T402</title>
<ellipse fill="none" stroke="black" cx="1948.95" cy="-90" rx="63.8893" ry="18"/>
<text text-anchor="middle" x="1948.95" y="-86.3" font-family="Times,serif" font-size="14.00">Temp12: T402</text>
</g>
<!-- ExpTemp12&#45;&gt;Temp12: T402 -->
<g id="edge53" class="edge"><title>ExpTemp12&#45;&gt;Temp12: T402</title>
<path fill="none" stroke="black" d="M1972.44,-144.055C1968.91,-136.091 1964.63,-126.411 1960.69,-117.51"/>
<polygon fill="black" stroke="black" points="1963.85,-116.002 1956.6,-108.275 1957.44,-118.836 1963.85,-116.002"/>
</g>
<!-- ExpTemp7 -->
<g id="node57" class="node"><title>ExpTemp7</title>
<ellipse fill="none" stroke="black" cx="1077.95" cy="-162" rx="50.0912" ry="18"/>
<text text-anchor="middle" x="1077.95" y="-158.3" font-family="Times,serif" font-size="14.00">ExpTemp7</text>
</g>
<!-- ExpMem2&#45;&gt;ExpTemp7 -->
<g id="edge52" class="edge"><title>ExpMem2&#45;&gt;ExpTemp7</title>
<path fill="none" stroke="black" d="M1077.95,-215.697C1077.95,-207.983 1077.95,-198.712 1077.95,-190.112"/>
<polygon fill="black" stroke="black" points="1081.45,-190.104 1077.95,-180.104 1074.45,-190.104 1081.45,-190.104"/>
</g>
<!-- Temp7: $fp -->
<g id="node69" class="node"><title>Temp7: $fp</title>
<ellipse fill="none" stroke="black" cx="1077.95" cy="-90" rx="52.7911" ry="18"/>
<text text-anchor="middle" x="1077.95" y="-86.3" font-family="Times,serif" font-size="14.00">Temp7: $fp</text>
</g>
<!-- ExpTemp7&#45;&gt;Temp7: $fp -->
<g id="edge68" class="edge"><title>ExpTemp7&#45;&gt;Temp7: $fp</title>
<path fill="none" stroke="black" d="M1077.95,-143.697C1077.95,-135.983 1077.95,-126.712 1077.95,-118.112"/>
<polygon fill="black" stroke="black" points="1081.45,-118.104 1077.95,-108.104 1074.45,-118.104 1081.45,-118.104"/>
</g>
<!-- Temp1: $fp -->
<g id="node63" class="node"><title>Temp1: $fp</title>
<ellipse fill="none" stroke="black" cx="181.945" cy="-18" rx="52.7911" ry="18"/>
<text text-anchor="middle" x="181.945" y="-14.3" font-family="Times,serif" font-size="14.00">Temp1: $fp</text>
</g>
<!-- ExpTemp1&#45;&gt;Temp1: $fp -->
<g id="edge61" class="edge"><title>ExpTemp1&#45;&gt;Temp1: $fp</title>
<path fill="none" stroke="black" d="M181.945,-71.6966C181.945,-63.9827 181.945,-54.7125 181.945,-46.1124"/>
<polygon fill="black" stroke="black" points="185.445,-46.1043 181.945,-36.1043 178.445,-46.1044 185.445,-46.1043"/>
</g>
<!-- Temp6: T403 -->
<g id="node66" class="node"><title>Temp6: T403</title>
<ellipse fill="none" stroke="black" cx="949.945" cy="-162" rx="59.5901" ry="18"/>
<text text-anchor="middle" x="949.945" y="-158.3" font-family="Times,serif" font-size="14.00">Temp6: T403</text>
</g>
<!-- ExpTemp6&#45;&gt;Temp6: T403 -->
<g id="edge63" class="edge"><title>ExpTemp6&#45;&gt;Temp6: T403</title>
<path fill="none" stroke="black" d="M953.709,-215.697C953.158,-207.983 952.496,-198.712 951.882,-190.112"/>
<polygon fill="black" stroke="black" points="955.371,-189.83 951.167,-180.104 948.388,-190.328 955.371,-189.83"/>
</g>
</g>
</svg>
