<?xml version="1.0" encoding="UTF-8" standalone="no"?>
<!DOCTYPE svg PUBLIC "-//W3C//DTD SVG 1.1//EN"
 "http://www.w3.org/Graphics/SVG/1.1/DTD/svg11.dtd">
<!-- Generated by graphviz version 2.38.0 (20140413.2041)
 -->
<!-- Title: %3 Pages: 1 -->
<svg width="635pt" height="260pt"
 viewBox="0.00 0.00 635.49 260.00" xmlns="http://www.w3.org/2000/svg" xmlns:xlink="http://www.w3.org/1999/xlink">
<g id="graph0" class="graph" transform="scale(1 1) rotate(0) translate(4 256)">
<title>%3</title>
<polygon fill="white" stroke="none" points="-4,4 -4,-256 631.49,-256 631.49,4 -4,4"/>
<!-- Temp6 -->
<g id="node1" class="node"><title>Temp6</title>
<ellipse fill="none" stroke="black" cx="553.245" cy="-90" rx="36.2938" ry="18"/>
<text text-anchor="middle" x="553.245" y="-86.3" font-family="Times,serif" font-size="14.00">Temp6</text>
</g>
<!-- Temp7: T30 -->
<g id="node2" class="node"><title>Temp7: T30</title>
<ellipse fill="none" stroke="black" cx="572.245" cy="-18" rx="55.4913" ry="18"/>
<text text-anchor="middle" x="572.245" y="-14.3" font-family="Times,serif" font-size="14.00">Temp7: T30</text>
</g>
<!-- Temp6&#45;&gt;Temp7: T30 -->
<g id="edge1" class="edge"><title>Temp6&#45;&gt;Temp7: T30</title>
<path fill="none" stroke="black" d="M557.844,-72.055C559.96,-64.2609 562.522,-54.8219 564.895,-46.0789"/>
<polygon fill="black" stroke="black" points="568.314,-46.843 567.556,-36.2753 561.559,-45.0093 568.314,-46.843"/>
</g>
<!-- Temp0 -->
<g id="node3" class="node"><title>Temp0</title>
<ellipse fill="none" stroke="black" cx="162.245" cy="-162" rx="36.2938" ry="18"/>
<text text-anchor="middle" x="162.245" y="-158.3" font-family="Times,serif" font-size="14.00">Temp0</text>
</g>
<!-- Temp1: T31 -->
<g id="node4" class="node"><title>Temp1: T31</title>
<ellipse fill="none" stroke="black" cx="55.2451" cy="-90" rx="55.4913" ry="18"/>
<text text-anchor="middle" x="55.2451" y="-86.3" font-family="Times,serif" font-size="14.00">Temp1: T31</text>
</g>
<!-- Temp0&#45;&gt;Temp1: T31 -->
<g id="edge2" class="edge"><title>Temp0&#45;&gt;Temp1: T31</title>
<path fill="none" stroke="black" d="M141.105,-147.17C125.857,-137.195 104.992,-123.545 87.6483,-112.198"/>
<polygon fill="black" stroke="black" points="89.2328,-109.052 78.9483,-106.507 85.4005,-114.91 89.2328,-109.052"/>
</g>
<!-- Temp2 -->
<g id="node5" class="node"><title>Temp2</title>
<ellipse fill="none" stroke="black" cx="353.245" cy="-90" rx="36.2938" ry="18"/>
<text text-anchor="middle" x="353.245" y="-86.3" font-family="Times,serif" font-size="14.00">Temp2</text>
</g>
<!-- Temp3: T28 -->
<g id="node6" class="node"><title>Temp3: T28</title>
<ellipse fill="none" stroke="black" cx="316.245" cy="-18" rx="55.4913" ry="18"/>
<text text-anchor="middle" x="316.245" y="-14.3" font-family="Times,serif" font-size="14.00">Temp3: T28</text>
</g>
<!-- Temp2&#45;&gt;Temp3: T28 -->
<g id="edge3" class="edge"><title>Temp2&#45;&gt;Temp3: T28</title>
<path fill="none" stroke="black" d="M344.477,-72.411C340.163,-64.2493 334.862,-54.2203 330.022,-45.0653"/>
<polygon fill="black" stroke="black" points="332.975,-43.1616 325.208,-35.9562 326.786,-46.4328 332.975,-43.1616"/>
</g>
<!-- MoveRegister0 -->
<g id="node7" class="node"><title>MoveRegister0</title>
<ellipse fill="none" stroke="black" cx="257.245" cy="-234" rx="65.7887" ry="18"/>
<text text-anchor="middle" x="257.245" y="-230.3" font-family="Times,serif" font-size="14.00">MoveRegister0</text>
</g>
<!-- MoveRegister0&#45;&gt;Temp0 -->
<g id="edge4" class="edge"><title>MoveRegister0&#45;&gt;Temp0</title>
<path fill="none" stroke="black" d="M235.211,-216.765C221.649,-206.771 204.153,-193.88 189.694,-183.226"/>
<polygon fill="black" stroke="black" points="191.711,-180.364 181.584,-177.25 187.559,-186 191.711,-180.364"/>
</g>
<!-- Call0 -->
<g id="node8" class="node"><title>Call0</title>
<ellipse fill="none" stroke="black" cx="353.245" cy="-162" rx="29.795" ry="18"/>
<text text-anchor="middle" x="353.245" y="-158.3" font-family="Times,serif" font-size="14.00">Call0</text>
</g>
<!-- MoveRegister0&#45;&gt;Call0 -->
<g id="edge5" class="edge"><title>MoveRegister0&#45;&gt;Call0</title>
<path fill="none" stroke="black" d="M279.511,-216.765C293.587,-206.501 311.854,-193.181 326.685,-182.367"/>
<polygon fill="black" stroke="black" points="328.944,-185.051 334.962,-176.331 324.82,-179.395 328.944,-185.051"/>
</g>
<!-- Call0&#45;&gt;Temp6 -->
<g id="edge10" class="edge"><title>Call0&#45;&gt;Temp6</title>
<path fill="none" stroke="black" d="M378.575,-152.134C412.95,-140.103 474.675,-118.499 514.787,-104.46"/>
<polygon fill="black" stroke="black" points="515.958,-107.759 524.24,-101.152 513.645,-101.152 515.958,-107.759"/>
</g>
<!-- Call0&#45;&gt;Temp2 -->
<g id="edge8" class="edge"><title>Call0&#45;&gt;Temp2</title>
<path fill="none" stroke="black" d="M353.245,-143.697C353.245,-135.983 353.245,-126.712 353.245,-118.112"/>
<polygon fill="black" stroke="black" points="356.745,-118.104 353.245,-108.104 349.745,-118.104 356.745,-118.104"/>
</g>
<!-- Temp4 -->
<g id="node9" class="node"><title>Temp4</title>
<ellipse fill="none" stroke="black" cx="444.245" cy="-90" rx="36.2938" ry="18"/>
<text text-anchor="middle" x="444.245" y="-86.3" font-family="Times,serif" font-size="14.00">Temp4</text>
</g>
<!-- Call0&#45;&gt;Temp4 -->
<g id="edge9" class="edge"><title>Call0&#45;&gt;Temp4</title>
<path fill="none" stroke="black" d="M371.224,-147.17C384.3,-137.112 402.234,-123.316 417.057,-111.914"/>
<polygon fill="black" stroke="black" points="419.572,-114.395 425.364,-105.524 415.304,-108.847 419.572,-114.395"/>
</g>
<!-- Function0: QS@Sort -->
<g id="node11" class="node"><title>Function0: QS@Sort</title>
<ellipse fill="none" stroke="black" cx="213.245" cy="-90" rx="85.2851" ry="18"/>
<text text-anchor="middle" x="213.245" y="-86.3" font-family="Times,serif" font-size="14.00">Function0: QS@Sort</text>
</g>
<!-- Call0&#45;&gt;Function0: QS@Sort -->
<g id="edge7" class="edge"><title>Call0&#45;&gt;Function0: QS@Sort</title>
<path fill="none" stroke="black" d="M331.062,-149.908C310.392,-139.574 279.069,-123.912 253.914,-111.334"/>
<polygon fill="black" stroke="black" points="255.466,-108.197 244.957,-106.856 252.336,-114.458 255.466,-108.197"/>
</g>
<!-- Temp5: T29 -->
<g id="node10" class="node"><title>Temp5: T29</title>
<ellipse fill="none" stroke="black" cx="444.245" cy="-18" rx="55.4913" ry="18"/>
<text text-anchor="middle" x="444.245" y="-14.3" font-family="Times,serif" font-size="14.00">Temp5: T29</text>
</g>
<!-- Temp4&#45;&gt;Temp5: T29 -->
<g id="edge6" class="edge"><title>Temp4&#45;&gt;Temp5: T29</title>
<path fill="none" stroke="black" d="M444.245,-71.6966C444.245,-63.9827 444.245,-54.7125 444.245,-46.1124"/>
<polygon fill="black" stroke="black" points="447.745,-46.1043 444.245,-36.1043 440.745,-46.1044 447.745,-46.1043"/>
</g>
</g>
</svg>
