<?xml version="1.0" encoding="UTF-8" standalone="no"?>
<!DOCTYPE svg PUBLIC "-//W3C//DTD SVG 1.1//EN"
 "http://www.w3.org/Graphics/SVG/1.1/DTD/svg11.dtd">
<!-- Generated by graphviz version 2.38.0 (20140413.2041)
 -->
<!-- Title: %3 Pages: 1 -->
<svg width="748pt" height="404pt"
 viewBox="0.00 0.00 748.14 404.00" xmlns="http://www.w3.org/2000/svg" xmlns:xlink="http://www.w3.org/1999/xlink">
<g id="graph0" class="graph" transform="scale(1 1) rotate(0) translate(4 400)">
<title>%3</title>
<polygon fill="white" stroke="none" points="-4,4 -4,-400 744.141,-400 744.141,4 -4,4"/>
<!-- AddConst2 -->
<g id="node1" class="node"><title>AddConst2</title>
<ellipse fill="none" stroke="black" cx="586.645" cy="-234" rx="50.8918" ry="18"/>
<text text-anchor="middle" x="586.645" y="-230.3" font-family="Times,serif" font-size="14.00">AddConst2</text>
</g>
<!-- NullExp2 -->
<g id="node2" class="node"><title>NullExp2</title>
<ellipse fill="none" stroke="black" cx="586.645" cy="-162" rx="44.6926" ry="18"/>
<text text-anchor="middle" x="586.645" y="-158.3" font-family="Times,serif" font-size="14.00">NullExp2</text>
</g>
<!-- AddConst2&#45;&gt;NullExp2 -->
<g id="edge1" class="edge"><title>AddConst2&#45;&gt;NullExp2</title>
<path fill="none" stroke="black" d="M586.645,-215.697C586.645,-207.983 586.645,-198.712 586.645,-190.112"/>
<polygon fill="black" stroke="black" points="590.145,-190.104 586.645,-180.104 583.145,-190.104 590.145,-190.104"/>
</g>
<!-- Value5: 1 -->
<g id="node3" class="node"><title>Value5: 1</title>
<ellipse fill="none" stroke="black" cx="694.645" cy="-162" rx="45.4919" ry="18"/>
<text text-anchor="middle" x="694.645" y="-158.3" font-family="Times,serif" font-size="14.00">Value5: 1</text>
</g>
<!-- AddConst2&#45;&gt;Value5: 1 -->
<g id="edge2" class="edge"><title>AddConst2&#45;&gt;Value5: 1</title>
<path fill="none" stroke="black" d="M609.814,-217.983C625.437,-207.857 646.238,-194.375 663.332,-183.296"/>
<polygon fill="black" stroke="black" points="665.398,-186.128 671.886,-177.752 661.59,-180.254 665.398,-186.128"/>
</g>
<!-- AddConst0 -->
<g id="node4" class="node"><title>AddConst0</title>
<ellipse fill="none" stroke="black" cx="172.645" cy="-162" rx="50.8918" ry="18"/>
<text text-anchor="middle" x="172.645" y="-158.3" font-family="Times,serif" font-size="14.00">AddConst0</text>
</g>
<!-- NullExp0 -->
<g id="node5" class="node"><title>NullExp0</title>
<ellipse fill="none" stroke="black" cx="167.645" cy="-90" rx="44.6926" ry="18"/>
<text text-anchor="middle" x="167.645" y="-86.3" font-family="Times,serif" font-size="14.00">NullExp0</text>
</g>
<!-- AddConst0&#45;&gt;NullExp0 -->
<g id="edge3" class="edge"><title>AddConst0&#45;&gt;NullExp0</title>
<path fill="none" stroke="black" d="M171.409,-143.697C170.858,-135.983 170.196,-126.712 169.582,-118.112"/>
<polygon fill="black" stroke="black" points="173.071,-117.83 168.867,-108.104 166.089,-118.328 173.071,-117.83"/>
</g>
<!-- Value0: 36 -->
<g id="node6" class="node"><title>Value0: 36</title>
<ellipse fill="none" stroke="black" cx="280.645" cy="-90" rx="50.0912" ry="18"/>
<text text-anchor="middle" x="280.645" y="-86.3" font-family="Times,serif" font-size="14.00">Value0: 36</text>
</g>
<!-- AddConst0&#45;&gt;Value0: 36 -->
<g id="edge4" class="edge"><title>AddConst0&#45;&gt;Value0: 36</title>
<path fill="none" stroke="black" d="M195.814,-145.983C211.331,-135.926 231.957,-122.557 248.985,-111.521"/>
<polygon fill="black" stroke="black" points="251.027,-114.368 257.515,-105.992 247.22,-108.494 251.027,-114.368"/>
</g>
<!-- Add0 -->
<g id="node7" class="node"><title>Add0</title>
<ellipse fill="none" stroke="black" cx="172.645" cy="-234" rx="30.5947" ry="18"/>
<text text-anchor="middle" x="172.645" y="-230.3" font-family="Times,serif" font-size="14.00">Add0</text>
</g>
<!-- Add0&#45;&gt;AddConst0 -->
<g id="edge6" class="edge"><title>Add0&#45;&gt;AddConst0</title>
<path fill="none" stroke="black" d="M172.645,-215.697C172.645,-207.983 172.645,-198.712 172.645,-190.112"/>
<polygon fill="black" stroke="black" points="176.145,-190.104 172.645,-180.104 169.145,-190.104 176.145,-190.104"/>
</g>
<!-- Temp0 -->
<g id="node8" class="node"><title>Temp0</title>
<ellipse fill="none" stroke="black" cx="53.6453" cy="-162" rx="36.2938" ry="18"/>
<text text-anchor="middle" x="53.6453" y="-158.3" font-family="Times,serif" font-size="14.00">Temp0</text>
</g>
<!-- Add0&#45;&gt;Temp0 -->
<g id="edge5" class="edge"><title>Add0&#45;&gt;Temp0</title>
<path fill="none" stroke="black" d="M151.644,-220.647C133.278,-209.843 106.334,-193.993 85.3443,-181.646"/>
<polygon fill="black" stroke="black" points="86.8583,-178.476 76.4643,-176.423 83.3091,-184.51 86.8583,-178.476"/>
</g>
<!-- Temp1: $fp -->
<g id="node9" class="node"><title>Temp1: $fp</title>
<ellipse fill="none" stroke="black" cx="52.6453" cy="-90" rx="52.7911" ry="18"/>
<text text-anchor="middle" x="52.6453" y="-86.3" font-family="Times,serif" font-size="14.00">Temp1: $fp</text>
</g>
<!-- Temp0&#45;&gt;Temp1: $fp -->
<g id="edge7" class="edge"><title>Temp0&#45;&gt;Temp1: $fp</title>
<path fill="none" stroke="black" d="M53.3981,-143.697C53.2879,-135.983 53.1555,-126.712 53.0326,-118.112"/>
<polygon fill="black" stroke="black" points="56.5323,-118.053 52.8897,-108.104 49.533,-118.153 56.5323,-118.053"/>
</g>
<!-- Load1 -->
<g id="node10" class="node"><title>Load1</title>
<ellipse fill="none" stroke="black" cx="471.645" cy="-234" rx="33.2948" ry="18"/>
<text text-anchor="middle" x="471.645" y="-230.3" font-family="Times,serif" font-size="14.00">Load1</text>
</g>
<!-- Add1 -->
<g id="node11" class="node"><title>Add1</title>
<ellipse fill="none" stroke="black" cx="384.645" cy="-162" rx="30.5947" ry="18"/>
<text text-anchor="middle" x="384.645" y="-158.3" font-family="Times,serif" font-size="14.00">Add1</text>
</g>
<!-- Load1&#45;&gt;Add1 -->
<g id="edge8" class="edge"><title>Load1&#45;&gt;Add1</title>
<path fill="none" stroke="black" d="M453.619,-218.496C440.971,-208.319 423.886,-194.573 409.885,-183.308"/>
<polygon fill="black" stroke="black" points="412.04,-180.55 402.055,-177.008 407.652,-186.004 412.04,-180.55"/>
</g>
<!-- Value4: 0 -->
<g id="node12" class="node"><title>Value4: 0</title>
<ellipse fill="none" stroke="black" cx="478.645" cy="-162" rx="45.4919" ry="18"/>
<text text-anchor="middle" x="478.645" y="-158.3" font-family="Times,serif" font-size="14.00">Value4: 0</text>
</g>
<!-- Load1&#45;&gt;Value4: 0 -->
<g id="edge9" class="edge"><title>Load1&#45;&gt;Value4: 0</title>
<path fill="none" stroke="black" d="M473.376,-215.697C474.147,-207.983 475.074,-198.712 475.934,-190.112"/>
<polygon fill="black" stroke="black" points="479.422,-190.403 476.935,-180.104 472.457,-189.706 479.422,-190.403"/>
</g>
<!-- Temp2 -->
<g id="node13" class="node"><title>Temp2</title>
<ellipse fill="none" stroke="black" cx="384.645" cy="-90" rx="36.2938" ry="18"/>
<text text-anchor="middle" x="384.645" y="-86.3" font-family="Times,serif" font-size="14.00">Temp2</text>
</g>
<!-- Add1&#45;&gt;Temp2 -->
<g id="edge15" class="edge"><title>Add1&#45;&gt;Temp2</title>
<path fill="none" stroke="black" d="M384.645,-143.697C384.645,-135.983 384.645,-126.712 384.645,-118.112"/>
<polygon fill="black" stroke="black" points="388.145,-118.104 384.645,-108.104 381.145,-118.104 388.145,-118.104"/>
</g>
<!-- AddConst1 -->
<g id="node19" class="node"><title>AddConst1</title>
<ellipse fill="none" stroke="black" cx="494.645" cy="-90" rx="50.8918" ry="18"/>
<text text-anchor="middle" x="494.645" y="-86.3" font-family="Times,serif" font-size="14.00">AddConst1</text>
</g>
<!-- Add1&#45;&gt;AddConst1 -->
<g id="edge16" class="edge"><title>Add1&#45;&gt;AddConst1</title>
<path fill="none" stroke="black" d="M404.565,-148.324C420.707,-138.052 443.766,-123.378 462.513,-111.448"/>
<polygon fill="black" stroke="black" points="464.493,-114.336 471.051,-106.015 460.735,-108.431 464.493,-114.336"/>
</g>
<!-- Temp3: $fp -->
<g id="node14" class="node"><title>Temp3: $fp</title>
<ellipse fill="none" stroke="black" cx="379.645" cy="-18" rx="52.7911" ry="18"/>
<text text-anchor="middle" x="379.645" y="-14.3" font-family="Times,serif" font-size="14.00">Temp3: $fp</text>
</g>
<!-- Temp2&#45;&gt;Temp3: $fp -->
<g id="edge10" class="edge"><title>Temp2&#45;&gt;Temp3: $fp</title>
<path fill="none" stroke="black" d="M383.409,-71.6966C382.858,-63.9827 382.196,-54.7125 381.582,-46.1124"/>
<polygon fill="black" stroke="black" points="385.071,-45.8295 380.867,-36.1043 378.089,-46.3283 385.071,-45.8295"/>
</g>
<!-- Store0 -->
<g id="node15" class="node"><title>Store0</title>
<ellipse fill="none" stroke="black" cx="373.645" cy="-378" rx="33.5952" ry="18"/>
<text text-anchor="middle" x="373.645" y="-374.3" font-family="Times,serif" font-size="14.00">Store0</text>
</g>
<!-- Load0 -->
<g id="node16" class="node"><title>Load0</title>
<ellipse fill="none" stroke="black" cx="270.645" cy="-306" rx="33.2948" ry="18"/>
<text text-anchor="middle" x="270.645" y="-302.3" font-family="Times,serif" font-size="14.00">Load0</text>
</g>
<!-- Store0&#45;&gt;Load0 -->
<g id="edge11" class="edge"><title>Store0&#45;&gt;Load0</title>
<path fill="none" stroke="black" d="M353.296,-363.17C337.819,-352.652 316.33,-338.048 299.143,-326.367"/>
<polygon fill="black" stroke="black" points="300.84,-323.289 290.602,-320.563 296.906,-329.079 300.84,-323.289"/>
</g>
<!-- Value2: 36 -->
<g id="node17" class="node"><title>Value2: 36</title>
<ellipse fill="none" stroke="black" cx="373.645" cy="-306" rx="50.0912" ry="18"/>
<text text-anchor="middle" x="373.645" y="-302.3" font-family="Times,serif" font-size="14.00">Value2: 36</text>
</g>
<!-- Store0&#45;&gt;Value2: 36 -->
<g id="edge12" class="edge"><title>Store0&#45;&gt;Value2: 36</title>
<path fill="none" stroke="black" d="M367.767,-360.055C366.949,-352.346 366.707,-343.027 367.04,-334.364"/>
<polygon fill="black" stroke="black" points="370.54,-334.491 367.733,-324.275 363.556,-334.012 370.54,-334.491"/>
</g>
<!-- Store0&#45;&gt;Value2: 36 -->
<g id="edge14" class="edge"><title>Store0&#45;&gt;Value2: 36</title>
<path fill="none" stroke="black" d="M379.524,-360.055C380.342,-352.346 380.584,-343.027 380.25,-334.364"/>
<polygon fill="black" stroke="black" points="383.735,-334.012 379.558,-324.275 376.751,-334.491 383.735,-334.012"/>
</g>
<!-- Sub0 -->
<g id="node18" class="node"><title>Sub0</title>
<ellipse fill="none" stroke="black" cx="471.645" cy="-306" rx="28.6953" ry="18"/>
<text text-anchor="middle" x="471.645" y="-302.3" font-family="Times,serif" font-size="14.00">Sub0</text>
</g>
<!-- Store0&#45;&gt;Sub0 -->
<g id="edge13" class="edge"><title>Store0&#45;&gt;Sub0</title>
<path fill="none" stroke="black" d="M393.007,-363.17C407.922,-352.516 428.707,-337.67 445.162,-325.917"/>
<polygon fill="black" stroke="black" points="447.215,-328.751 453.318,-320.091 443.147,-323.055 447.215,-328.751"/>
</g>
<!-- Load0&#45;&gt;Add0 -->
<g id="edge19" class="edge"><title>Load0&#45;&gt;Add0</title>
<path fill="none" stroke="black" d="M251.284,-291.17C236.463,-280.584 215.848,-265.859 199.444,-254.142"/>
<polygon fill="black" stroke="black" points="201.474,-251.29 191.302,-248.326 197.405,-256.987 201.474,-251.29"/>
</g>
<!-- Value1: 0 -->
<g id="node22" class="node"><title>Value1: 0</title>
<ellipse fill="none" stroke="black" cx="270.645" cy="-234" rx="45.4919" ry="18"/>
<text text-anchor="middle" x="270.645" y="-230.3" font-family="Times,serif" font-size="14.00">Value1: 0</text>
</g>
<!-- Load0&#45;&gt;Value1: 0 -->
<g id="edge20" class="edge"><title>Load0&#45;&gt;Value1: 0</title>
<path fill="none" stroke="black" d="M270.645,-287.697C270.645,-279.983 270.645,-270.712 270.645,-262.112"/>
<polygon fill="black" stroke="black" points="274.145,-262.104 270.645,-252.104 267.145,-262.104 274.145,-262.104"/>
</g>
<!-- Sub0&#45;&gt;AddConst2 -->
<g id="edge22" class="edge"><title>Sub0&#45;&gt;AddConst2</title>
<path fill="none" stroke="black" d="M491.415,-292.967C508.421,-282.615 533.31,-267.465 553.379,-255.249"/>
<polygon fill="black" stroke="black" points="555.209,-258.233 561.931,-250.044 551.569,-252.253 555.209,-258.233"/>
</g>
<!-- Sub0&#45;&gt;Load1 -->
<g id="edge21" class="edge"><title>Sub0&#45;&gt;Load1</title>
<path fill="none" stroke="black" d="M471.645,-287.697C471.645,-279.983 471.645,-270.712 471.645,-262.112"/>
<polygon fill="black" stroke="black" points="475.145,-262.104 471.645,-252.104 468.145,-262.104 475.145,-262.104"/>
</g>
<!-- NullExp1 -->
<g id="node20" class="node"><title>NullExp1</title>
<ellipse fill="none" stroke="black" cx="494.645" cy="-18" rx="44.6926" ry="18"/>
<text text-anchor="middle" x="494.645" y="-14.3" font-family="Times,serif" font-size="14.00">NullExp1</text>
</g>
<!-- AddConst1&#45;&gt;NullExp1 -->
<g id="edge17" class="edge"><title>AddConst1&#45;&gt;NullExp1</title>
<path fill="none" stroke="black" d="M494.645,-71.6966C494.645,-63.9827 494.645,-54.7125 494.645,-46.1124"/>
<polygon fill="black" stroke="black" points="498.145,-46.1043 494.645,-36.1043 491.145,-46.1044 498.145,-46.1043"/>
</g>
<!-- Value3: 36 -->
<g id="node21" class="node"><title>Value3: 36</title>
<ellipse fill="none" stroke="black" cx="607.645" cy="-18" rx="50.0912" ry="18"/>
<text text-anchor="middle" x="607.645" y="-14.3" font-family="Times,serif" font-size="14.00">Value3: 36</text>
</g>
<!-- AddConst1&#45;&gt;Value3: 36 -->
<g id="edge18" class="edge"><title>AddConst1&#45;&gt;Value3: 36</title>
<path fill="none" stroke="black" d="M518.887,-73.9832C535.122,-63.9257 556.703,-50.5573 574.519,-39.5209"/>
<polygon fill="black" stroke="black" points="576.786,-42.2335 583.444,-33.9919 573.1,-36.2827 576.786,-42.2335"/>
</g>
</g>
</svg>
