<?xml version="1.0" encoding="UTF-8" standalone="no"?>
<!DOCTYPE svg PUBLIC "-//W3C//DTD SVG 1.1//EN"
 "http://www.w3.org/Graphics/SVG/1.1/DTD/svg11.dtd">
<!-- Generated by graphviz version 2.38.0 (20140413.2041)
 -->
<!-- Title: %3 Pages: 1 -->
<svg width="465pt" height="260pt"
 viewBox="0.00 0.00 464.59 260.00" xmlns="http://www.w3.org/2000/svg" xmlns:xlink="http://www.w3.org/1999/xlink">
<g id="graph0" class="graph" transform="scale(1 1) rotate(0) translate(4 256)">
<title>%3</title>
<polygon fill="white" stroke="none" points="-4,4 -4,-256 460.589,-256 460.589,4 -4,4"/>
<!-- Call0 -->
<g id="node1" class="node"><title>Call0</title>
<ellipse fill="none" stroke="black" cx="239.795" cy="-162" rx="29.795" ry="18"/>
<text text-anchor="middle" x="239.795" y="-158.3" font-family="Times,serif" font-size="14.00">Call0</text>
</g>
<!-- Function0: Tree@GetLeft -->
<g id="node2" class="node"><title>Function0: Tree@GetLeft</title>
<ellipse fill="none" stroke="black" cx="239.795" cy="-90" rx="102.882" ry="18"/>
<text text-anchor="middle" x="239.795" y="-86.3" font-family="Times,serif" font-size="14.00">Function0: Tree@GetLeft</text>
</g>
<!-- Call0&#45;&gt;Function0: Tree@GetLeft -->
<g id="edge1" class="edge"><title>Call0&#45;&gt;Function0: Tree@GetLeft</title>
<path fill="none" stroke="black" d="M239.795,-143.697C239.795,-135.983 239.795,-126.712 239.795,-118.112"/>
<polygon fill="black" stroke="black" points="243.295,-118.104 239.795,-108.104 236.295,-118.104 243.295,-118.104"/>
</g>
<!-- Temp2 -->
<g id="node3" class="node"><title>Temp2</title>
<ellipse fill="none" stroke="black" cx="396.795" cy="-90" rx="36.2938" ry="18"/>
<text text-anchor="middle" x="396.795" y="-86.3" font-family="Times,serif" font-size="14.00">Temp2</text>
</g>
<!-- Call0&#45;&gt;Temp2 -->
<g id="edge2" class="edge"><title>Call0&#45;&gt;Temp2</title>
<path fill="none" stroke="black" d="M263.299,-150.52C289.312,-138.922 331.515,-120.105 361.502,-106.736"/>
<polygon fill="black" stroke="black" points="363.064,-109.871 370.772,-102.602 360.214,-103.478 363.064,-109.871"/>
</g>
<!-- Temp3: T166 -->
<g id="node6" class="node"><title>Temp3: T166</title>
<ellipse fill="none" stroke="black" cx="396.795" cy="-18" rx="59.5901" ry="18"/>
<text text-anchor="middle" x="396.795" y="-14.3" font-family="Times,serif" font-size="14.00">Temp3: T166</text>
</g>
<!-- Temp2&#45;&gt;Temp3: T166 -->
<g id="edge5" class="edge"><title>Temp2&#45;&gt;Temp3: T166</title>
<path fill="none" stroke="black" d="M396.795,-71.6966C396.795,-63.9827 396.795,-54.7125 396.795,-46.1124"/>
<polygon fill="black" stroke="black" points="400.295,-46.1043 396.795,-36.1043 393.295,-46.1044 400.295,-46.1043"/>
</g>
<!-- MoveRegister0 -->
<g id="node4" class="node"><title>MoveRegister0</title>
<ellipse fill="none" stroke="black" cx="173.795" cy="-234" rx="65.7887" ry="18"/>
<text text-anchor="middle" x="173.795" y="-230.3" font-family="Times,serif" font-size="14.00">MoveRegister0</text>
</g>
<!-- MoveRegister0&#45;&gt;Call0 -->
<g id="edge4" class="edge"><title>MoveRegister0&#45;&gt;Call0</title>
<path fill="none" stroke="black" d="M189.436,-216.411C198.184,-207.132 209.208,-195.441 218.709,-185.363"/>
<polygon fill="black" stroke="black" points="221.302,-187.715 225.616,-178.038 216.209,-182.913 221.302,-187.715"/>
</g>
<!-- Temp0 -->
<g id="node5" class="node"><title>Temp0</title>
<ellipse fill="none" stroke="black" cx="107.795" cy="-162" rx="36.2938" ry="18"/>
<text text-anchor="middle" x="107.795" y="-158.3" font-family="Times,serif" font-size="14.00">Temp0</text>
</g>
<!-- MoveRegister0&#45;&gt;Temp0 -->
<g id="edge3" class="edge"><title>MoveRegister0&#45;&gt;Temp0</title>
<path fill="none" stroke="black" d="M158.154,-216.411C149.611,-207.351 138.9,-195.99 129.554,-186.078"/>
<polygon fill="black" stroke="black" points="131.826,-183.386 122.419,-178.511 126.733,-188.188 131.826,-183.386"/>
</g>
<!-- Temp1: T167 -->
<g id="node7" class="node"><title>Temp1: T167</title>
<ellipse fill="none" stroke="black" cx="59.7947" cy="-90" rx="59.5901" ry="18"/>
<text text-anchor="middle" x="59.7947" y="-86.3" font-family="Times,serif" font-size="14.00">Temp1: T167</text>
</g>
<!-- Temp0&#45;&gt;Temp1: T167 -->
<g id="edge6" class="edge"><title>Temp0&#45;&gt;Temp1: T167</title>
<path fill="none" stroke="black" d="M96.6619,-144.765C90.8945,-136.354 83.7195,-125.89 77.2362,-116.436"/>
<polygon fill="black" stroke="black" points="80.0787,-114.392 71.5368,-108.124 74.3056,-118.351 80.0787,-114.392"/>
</g>
</g>
</svg>
