<?xml version="1.0" encoding="UTF-8" standalone="no"?>
<!DOCTYPE svg PUBLIC "-//W3C//DTD SVG 1.1//EN"
 "http://www.w3.org/Graphics/SVG/1.1/DTD/svg11.dtd">
<!-- Generated by graphviz version 2.38.0 (20140413.2041)
 -->
<!-- Title: %3 Pages: 1 -->
<svg width="671pt" height="332pt"
 viewBox="0.00 0.00 671.14 332.00" xmlns="http://www.w3.org/2000/svg" xmlns:xlink="http://www.w3.org/1999/xlink">
<g id="graph0" class="graph" transform="scale(1 1) rotate(0) translate(4 328)">
<title>%3</title>
<polygon fill="white" stroke="none" points="-4,4 -4,-328 667.141,-328 667.141,4 -4,4"/>
<!-- AddConst1 -->
<g id="node1" class="node"><title>AddConst1</title>
<ellipse fill="none" stroke="black" cx="509.645" cy="-90" rx="50.8918" ry="18"/>
<text text-anchor="middle" x="509.645" y="-86.3" font-family="Times,serif" font-size="14.00">AddConst1</text>
</g>
<!-- NullExp1 -->
<g id="node2" class="node"><title>NullExp1</title>
<ellipse fill="none" stroke="black" cx="509.645" cy="-18" rx="44.6926" ry="18"/>
<text text-anchor="middle" x="509.645" y="-14.3" font-family="Times,serif" font-size="14.00">NullExp1</text>
</g>
<!-- AddConst1&#45;&gt;NullExp1 -->
<g id="edge1" class="edge"><title>AddConst1&#45;&gt;NullExp1</title>
<path fill="none" stroke="black" d="M509.645,-71.6966C509.645,-63.9827 509.645,-54.7125 509.645,-46.1124"/>
<polygon fill="black" stroke="black" points="513.145,-46.1043 509.645,-36.1043 506.145,-46.1044 513.145,-46.1043"/>
</g>
<!-- Value3: 8 -->
<g id="node3" class="node"><title>Value3: 8</title>
<ellipse fill="none" stroke="black" cx="617.645" cy="-18" rx="45.4919" ry="18"/>
<text text-anchor="middle" x="617.645" y="-14.3" font-family="Times,serif" font-size="14.00">Value3: 8</text>
</g>
<!-- AddConst1&#45;&gt;Value3: 8 -->
<g id="edge2" class="edge"><title>AddConst1&#45;&gt;Value3: 8</title>
<path fill="none" stroke="black" d="M532.814,-73.9832C548.437,-63.8573 569.238,-50.3753 586.332,-39.2959"/>
<polygon fill="black" stroke="black" points="588.398,-42.1277 594.886,-33.7517 584.59,-36.2536 588.398,-42.1277"/>
</g>
<!-- Add1 -->
<g id="node4" class="node"><title>Add1</title>
<ellipse fill="none" stroke="black" cx="406.645" cy="-162" rx="30.5947" ry="18"/>
<text text-anchor="middle" x="406.645" y="-158.3" font-family="Times,serif" font-size="14.00">Add1</text>
</g>
<!-- Add1&#45;&gt;AddConst1 -->
<g id="edge4" class="edge"><title>Add1&#45;&gt;AddConst1</title>
<path fill="none" stroke="black" d="M426.019,-147.834C440.807,-137.783 461.479,-123.734 478.57,-112.119"/>
<polygon fill="black" stroke="black" points="480.828,-114.817 487.131,-106.301 476.893,-109.027 480.828,-114.817"/>
</g>
<!-- Temp2 -->
<g id="node5" class="node"><title>Temp2</title>
<ellipse fill="none" stroke="black" cx="399.645" cy="-90" rx="36.2938" ry="18"/>
<text text-anchor="middle" x="399.645" y="-86.3" font-family="Times,serif" font-size="14.00">Temp2</text>
</g>
<!-- Add1&#45;&gt;Temp2 -->
<g id="edge3" class="edge"><title>Add1&#45;&gt;Temp2</title>
<path fill="none" stroke="black" d="M404.915,-143.697C404.144,-135.983 403.217,-126.712 402.357,-118.112"/>
<polygon fill="black" stroke="black" points="405.834,-117.706 401.356,-108.104 398.868,-118.403 405.834,-117.706"/>
</g>
<!-- Temp3: $fp -->
<g id="node6" class="node"><title>Temp3: $fp</title>
<ellipse fill="none" stroke="black" cx="394.645" cy="-18" rx="52.7911" ry="18"/>
<text text-anchor="middle" x="394.645" y="-14.3" font-family="Times,serif" font-size="14.00">Temp3: $fp</text>
</g>
<!-- Temp2&#45;&gt;Temp3: $fp -->
<g id="edge5" class="edge"><title>Temp2&#45;&gt;Temp3: $fp</title>
<path fill="none" stroke="black" d="M398.409,-71.6966C397.858,-63.9827 397.196,-54.7125 396.582,-46.1124"/>
<polygon fill="black" stroke="black" points="400.071,-45.8295 395.867,-36.1043 393.089,-46.3283 400.071,-45.8295"/>
</g>
<!-- Load1 -->
<g id="node7" class="node"><title>Load1</title>
<ellipse fill="none" stroke="black" cx="419.645" cy="-234" rx="33.2948" ry="18"/>
<text text-anchor="middle" x="419.645" y="-230.3" font-family="Times,serif" font-size="14.00">Load1</text>
</g>
<!-- Load1&#45;&gt;Add1 -->
<g id="edge6" class="edge"><title>Load1&#45;&gt;Add1</title>
<path fill="none" stroke="black" d="M416.498,-216.055C415.067,-208.346 413.336,-199.027 411.727,-190.364"/>
<polygon fill="black" stroke="black" points="415.121,-189.468 409.854,-180.275 408.238,-190.746 415.121,-189.468"/>
</g>
<!-- Value4: 0 -->
<g id="node8" class="node"><title>Value4: 0</title>
<ellipse fill="none" stroke="black" cx="500.645" cy="-162" rx="45.4919" ry="18"/>
<text text-anchor="middle" x="500.645" y="-158.3" font-family="Times,serif" font-size="14.00">Value4: 0</text>
</g>
<!-- Load1&#45;&gt;Value4: 0 -->
<g id="edge7" class="edge"><title>Load1&#45;&gt;Value4: 0</title>
<path fill="none" stroke="black" d="M436.823,-218.155C447.871,-208.608 462.43,-196.025 474.853,-185.29"/>
<polygon fill="black" stroke="black" points="477.372,-187.738 482.65,-178.552 472.795,-182.442 477.372,-187.738"/>
</g>
<!-- Store0 -->
<g id="node9" class="node"><title>Store0</title>
<ellipse fill="none" stroke="black" cx="322.645" cy="-306" rx="33.5952" ry="18"/>
<text text-anchor="middle" x="322.645" y="-302.3" font-family="Times,serif" font-size="14.00">Store0</text>
</g>
<!-- Store0&#45;&gt;Load1 -->
<g id="edge10" class="edge"><title>Store0&#45;&gt;Load1</title>
<path fill="none" stroke="black" d="M341.809,-291.17C356.158,-280.816 375.993,-266.502 392.049,-254.915"/>
<polygon fill="black" stroke="black" points="394.46,-257.491 400.521,-248.801 390.364,-251.815 394.46,-257.491"/>
</g>
<!-- Load0 -->
<g id="node10" class="node"><title>Load0</title>
<ellipse fill="none" stroke="black" cx="225.645" cy="-234" rx="33.2948" ry="18"/>
<text text-anchor="middle" x="225.645" y="-230.3" font-family="Times,serif" font-size="14.00">Load0</text>
</g>
<!-- Store0&#45;&gt;Load0 -->
<g id="edge8" class="edge"><title>Store0&#45;&gt;Load0</title>
<path fill="none" stroke="black" d="M303.481,-291.17C289.133,-280.816 269.298,-266.502 253.242,-254.915"/>
<polygon fill="black" stroke="black" points="254.927,-251.815 244.77,-248.801 250.83,-257.491 254.927,-251.815"/>
</g>
<!-- Value2: 4 -->
<g id="node11" class="node"><title>Value2: 4</title>
<ellipse fill="none" stroke="black" cx="322.645" cy="-234" rx="45.4919" ry="18"/>
<text text-anchor="middle" x="322.645" y="-230.3" font-family="Times,serif" font-size="14.00">Value2: 4</text>
</g>
<!-- Store0&#45;&gt;Value2: 4 -->
<g id="edge9" class="edge"><title>Store0&#45;&gt;Value2: 4</title>
<path fill="none" stroke="black" d="M316.767,-288.055C315.949,-280.346 315.707,-271.027 316.04,-262.364"/>
<polygon fill="black" stroke="black" points="319.54,-262.491 316.733,-252.275 312.556,-262.012 319.54,-262.491"/>
</g>
<!-- Store0&#45;&gt;Value2: 4 -->
<g id="edge11" class="edge"><title>Store0&#45;&gt;Value2: 4</title>
<path fill="none" stroke="black" d="M328.524,-288.055C329.342,-280.346 329.584,-271.027 329.25,-262.364"/>
<polygon fill="black" stroke="black" points="332.735,-262.012 328.558,-252.275 325.751,-262.491 332.735,-262.012"/>
</g>
<!-- Add0 -->
<g id="node14" class="node"><title>Add0</title>
<ellipse fill="none" stroke="black" cx="135.645" cy="-162" rx="30.5947" ry="18"/>
<text text-anchor="middle" x="135.645" y="-158.3" font-family="Times,serif" font-size="14.00">Add0</text>
</g>
<!-- Load0&#45;&gt;Add0 -->
<g id="edge17" class="edge"><title>Load0&#45;&gt;Add0</title>
<path fill="none" stroke="black" d="M207.432,-218.834C194.294,-208.615 176.365,-194.671 161.712,-183.274"/>
<polygon fill="black" stroke="black" points="163.566,-180.282 153.524,-176.906 159.269,-185.808 163.566,-180.282"/>
</g>
<!-- Value1: 0 -->
<g id="node18" class="node"><title>Value1: 0</title>
<ellipse fill="none" stroke="black" cx="229.645" cy="-162" rx="45.4919" ry="18"/>
<text text-anchor="middle" x="229.645" y="-158.3" font-family="Times,serif" font-size="14.00">Value1: 0</text>
</g>
<!-- Load0&#45;&gt;Value1: 0 -->
<g id="edge18" class="edge"><title>Load0&#45;&gt;Value1: 0</title>
<path fill="none" stroke="black" d="M226.634,-215.697C227.075,-207.983 227.605,-198.712 228.096,-190.112"/>
<polygon fill="black" stroke="black" points="231.592,-190.288 228.668,-180.104 224.603,-189.888 231.592,-190.288"/>
</g>
<!-- Temp0 -->
<g id="node12" class="node"><title>Temp0</title>
<ellipse fill="none" stroke="black" cx="57.6453" cy="-90" rx="36.2938" ry="18"/>
<text text-anchor="middle" x="57.6453" y="-86.3" font-family="Times,serif" font-size="14.00">Temp0</text>
</g>
<!-- Temp1: $fp -->
<g id="node13" class="node"><title>Temp1: $fp</title>
<ellipse fill="none" stroke="black" cx="52.6453" cy="-18" rx="52.7911" ry="18"/>
<text text-anchor="middle" x="52.6453" y="-14.3" font-family="Times,serif" font-size="14.00">Temp1: $fp</text>
</g>
<!-- Temp0&#45;&gt;Temp1: $fp -->
<g id="edge12" class="edge"><title>Temp0&#45;&gt;Temp1: $fp</title>
<path fill="none" stroke="black" d="M56.4094,-71.6966C55.8584,-63.9827 55.1962,-54.7125 54.5819,-46.1124"/>
<polygon fill="black" stroke="black" points="58.0707,-45.8295 53.8671,-36.1043 51.0885,-46.3283 58.0707,-45.8295"/>
</g>
<!-- Add0&#45;&gt;Temp0 -->
<g id="edge13" class="edge"><title>Add0&#45;&gt;Temp0</title>
<path fill="none" stroke="black" d="M119.484,-146.496C108.722,-136.838 94.3781,-123.965 82.2145,-113.049"/>
<polygon fill="black" stroke="black" points="84.3758,-110.286 74.5957,-106.212 79.7005,-115.496 84.3758,-110.286"/>
</g>
<!-- AddConst0 -->
<g id="node15" class="node"><title>AddConst0</title>
<ellipse fill="none" stroke="black" cx="167.645" cy="-90" rx="50.8918" ry="18"/>
<text text-anchor="middle" x="167.645" y="-86.3" font-family="Times,serif" font-size="14.00">AddConst0</text>
</g>
<!-- Add0&#45;&gt;AddConst0 -->
<g id="edge14" class="edge"><title>Add0&#45;&gt;AddConst0</title>
<path fill="none" stroke="black" d="M143.229,-144.411C146.96,-136.249 151.545,-126.22 155.73,-117.065"/>
<polygon fill="black" stroke="black" points="158.919,-118.506 159.894,-107.956 152.553,-115.596 158.919,-118.506"/>
</g>
<!-- NullExp0 -->
<g id="node16" class="node"><title>NullExp0</title>
<ellipse fill="none" stroke="black" cx="167.645" cy="-18" rx="44.6926" ry="18"/>
<text text-anchor="middle" x="167.645" y="-14.3" font-family="Times,serif" font-size="14.00">NullExp0</text>
</g>
<!-- AddConst0&#45;&gt;NullExp0 -->
<g id="edge15" class="edge"><title>AddConst0&#45;&gt;NullExp0</title>
<path fill="none" stroke="black" d="M167.645,-71.6966C167.645,-63.9827 167.645,-54.7125 167.645,-46.1124"/>
<polygon fill="black" stroke="black" points="171.145,-46.1043 167.645,-36.1043 164.145,-46.1044 171.145,-46.1043"/>
</g>
<!-- Value0: 4 -->
<g id="node17" class="node"><title>Value0: 4</title>
<ellipse fill="none" stroke="black" cx="275.645" cy="-18" rx="45.4919" ry="18"/>
<text text-anchor="middle" x="275.645" y="-14.3" font-family="Times,serif" font-size="14.00">Value0: 4</text>
</g>
<!-- AddConst0&#45;&gt;Value0: 4 -->
<g id="edge16" class="edge"><title>AddConst0&#45;&gt;Value0: 4</title>
<path fill="none" stroke="black" d="M190.814,-73.9832C206.437,-63.8573 227.238,-50.3753 244.332,-39.2959"/>
<polygon fill="black" stroke="black" points="246.398,-42.1277 252.886,-33.7517 242.59,-36.2536 246.398,-42.1277"/>
</g>
</g>
</svg>
