<?xml version="1.0" encoding="UTF-8" standalone="no"?>
<!DOCTYPE svg PUBLIC "-//W3C//DTD SVG 1.1//EN"
 "http://www.w3.org/Graphics/SVG/1.1/DTD/svg11.dtd">
<!-- Generated by graphviz version 2.38.0 (20140413.2041)
 -->
<!-- Title: %3 Pages: 1 -->
<svg width="734pt" height="260pt"
 viewBox="0.00 0.00 733.59 260.00" xmlns="http://www.w3.org/2000/svg" xmlns:xlink="http://www.w3.org/1999/xlink">
<g id="graph0" class="graph" transform="scale(1 1) rotate(0) translate(4 256)">
<title>%3</title>
<polygon fill="white" stroke="none" points="-4,4 -4,-256 729.589,-256 729.589,4 -4,4"/>
<!-- Temp6 -->
<g id="node1" class="node"><title>Temp6</title>
<ellipse fill="none" stroke="black" cx="641.795" cy="-90" rx="36.2938" ry="18"/>
<text text-anchor="middle" x="641.795" y="-86.3" font-family="Times,serif" font-size="14.00">Temp6</text>
</g>
<!-- Temp7: T252 -->
<g id="node2" class="node"><title>Temp7: T252</title>
<ellipse fill="none" stroke="black" cx="665.795" cy="-18" rx="59.5901" ry="18"/>
<text text-anchor="middle" x="665.795" y="-14.3" font-family="Times,serif" font-size="14.00">Temp7: T252</text>
</g>
<!-- Temp6&#45;&gt;Temp7: T252 -->
<g id="edge1" class="edge"><title>Temp6&#45;&gt;Temp7: T252</title>
<path fill="none" stroke="black" d="M647.604,-72.055C650.306,-64.1762 653.583,-54.6165 656.608,-45.794"/>
<polygon fill="black" stroke="black" points="659.939,-46.8699 659.872,-36.2753 653.318,-44.5996 659.939,-46.8699"/>
</g>
<!-- Temp0 -->
<g id="node3" class="node"><title>Temp0</title>
<ellipse fill="none" stroke="black" cx="206.795" cy="-162" rx="36.2938" ry="18"/>
<text text-anchor="middle" x="206.795" y="-158.3" font-family="Times,serif" font-size="14.00">Temp0</text>
</g>
<!-- Temp1: T253 -->
<g id="node4" class="node"><title>Temp1: T253</title>
<ellipse fill="none" stroke="black" cx="59.7947" cy="-90" rx="59.5901" ry="18"/>
<text text-anchor="middle" x="59.7947" y="-86.3" font-family="Times,serif" font-size="14.00">Temp1: T253</text>
</g>
<!-- Temp0&#45;&gt;Temp1: T253 -->
<g id="edge2" class="edge"><title>Temp0&#45;&gt;Temp1: T253</title>
<path fill="none" stroke="black" d="M181.524,-148.967C159.007,-138.244 125.675,-122.372 99.5812,-109.946"/>
<polygon fill="black" stroke="black" points="100.862,-106.679 90.3285,-105.54 97.8523,-112.999 100.862,-106.679"/>
</g>
<!-- Temp2 -->
<g id="node5" class="node"><title>Temp2</title>
<ellipse fill="none" stroke="black" cx="436.795" cy="-90" rx="36.2938" ry="18"/>
<text text-anchor="middle" x="436.795" y="-86.3" font-family="Times,serif" font-size="14.00">Temp2</text>
</g>
<!-- Temp3: T250 -->
<g id="node6" class="node"><title>Temp3: T250</title>
<ellipse fill="none" stroke="black" cx="389.795" cy="-18" rx="59.5901" ry="18"/>
<text text-anchor="middle" x="389.795" y="-14.3" font-family="Times,serif" font-size="14.00">Temp3: T250</text>
</g>
<!-- Temp2&#45;&gt;Temp3: T250 -->
<g id="edge3" class="edge"><title>Temp2&#45;&gt;Temp3: T250</title>
<path fill="none" stroke="black" d="M425.894,-72.7646C420.247,-64.3538 413.221,-53.8904 406.873,-44.4356"/>
<polygon fill="black" stroke="black" points="409.772,-42.4751 401.292,-36.1239 403.961,-46.3772 409.772,-42.4751"/>
</g>
<!-- MoveRegister0 -->
<g id="node7" class="node"><title>MoveRegister0</title>
<ellipse fill="none" stroke="black" cx="321.795" cy="-234" rx="65.7887" ry="18"/>
<text text-anchor="middle" x="321.795" y="-230.3" font-family="Times,serif" font-size="14.00">MoveRegister0</text>
</g>
<!-- MoveRegister0&#45;&gt;Temp0 -->
<g id="edge4" class="edge"><title>MoveRegister0&#45;&gt;Temp0</title>
<path fill="none" stroke="black" d="M295.986,-217.291C278.686,-206.76 255.819,-192.841 237.57,-181.733"/>
<polygon fill="black" stroke="black" points="239.389,-178.743 229.027,-176.533 235.75,-184.722 239.389,-178.743"/>
</g>
<!-- Call0 -->
<g id="node8" class="node"><title>Call0</title>
<ellipse fill="none" stroke="black" cx="436.795" cy="-162" rx="29.795" ry="18"/>
<text text-anchor="middle" x="436.795" y="-158.3" font-family="Times,serif" font-size="14.00">Call0</text>
</g>
<!-- MoveRegister0&#45;&gt;Call0 -->
<g id="edge5" class="edge"><title>MoveRegister0&#45;&gt;Call0</title>
<path fill="none" stroke="black" d="M347.603,-217.291C365.473,-206.413 389.281,-191.921 407.805,-180.646"/>
<polygon fill="black" stroke="black" points="409.702,-183.589 416.424,-175.399 406.063,-177.609 409.702,-183.589"/>
</g>
<!-- Call0&#45;&gt;Temp6 -->
<g id="edge10" class="edge"><title>Call0&#45;&gt;Temp6</title>
<path fill="none" stroke="black" d="M462.344,-152.276C497.643,-140.222 561.637,-118.371 602.897,-104.282"/>
<polygon fill="black" stroke="black" points="604.278,-107.509 612.61,-100.965 602.016,-100.885 604.278,-107.509"/>
</g>
<!-- Call0&#45;&gt;Temp2 -->
<g id="edge8" class="edge"><title>Call0&#45;&gt;Temp2</title>
<path fill="none" stroke="black" d="M436.795,-143.697C436.795,-135.983 436.795,-126.712 436.795,-118.112"/>
<polygon fill="black" stroke="black" points="440.295,-118.104 436.795,-108.104 433.295,-118.104 440.295,-118.104"/>
</g>
<!-- Temp4 -->
<g id="node9" class="node"><title>Temp4</title>
<ellipse fill="none" stroke="black" cx="527.795" cy="-90" rx="36.2938" ry="18"/>
<text text-anchor="middle" x="527.795" y="-86.3" font-family="Times,serif" font-size="14.00">Temp4</text>
</g>
<!-- Call0&#45;&gt;Temp4 -->
<g id="edge9" class="edge"><title>Call0&#45;&gt;Temp4</title>
<path fill="none" stroke="black" d="M454.773,-147.17C467.85,-137.112 485.784,-123.316 500.606,-111.914"/>
<polygon fill="black" stroke="black" points="503.121,-114.395 508.914,-105.524 498.853,-108.847 503.121,-114.395"/>
</g>
<!-- Function0: Element@Compare -->
<g id="node11" class="node"><title>Function0: Element@Compare</title>
<ellipse fill="none" stroke="black" cx="259.795" cy="-90" rx="122.379" ry="18"/>
<text text-anchor="middle" x="259.795" y="-86.3" font-family="Times,serif" font-size="14.00">Function0: Element@Compare</text>
</g>
<!-- Call0&#45;&gt;Function0: Element@Compare -->
<g id="edge7" class="edge"><title>Call0&#45;&gt;Function0: Element@Compare</title>
<path fill="none" stroke="black" d="M412.555,-151.414C386.272,-141.019 343.584,-124.137 310.006,-110.857"/>
<polygon fill="black" stroke="black" points="310.939,-107.463 300.353,-107.04 308.365,-113.972 310.939,-107.463"/>
</g>
<!-- Temp5: T251 -->
<g id="node10" class="node"><title>Temp5: T251</title>
<ellipse fill="none" stroke="black" cx="527.795" cy="-18" rx="59.5901" ry="18"/>
<text text-anchor="middle" x="527.795" y="-14.3" font-family="Times,serif" font-size="14.00">Temp5: T251</text>
</g>
<!-- Temp4&#45;&gt;Temp5: T251 -->
<g id="edge6" class="edge"><title>Temp4&#45;&gt;Temp5: T251</title>
<path fill="none" stroke="black" d="M527.795,-71.6966C527.795,-63.9827 527.795,-54.7125 527.795,-46.1124"/>
<polygon fill="black" stroke="black" points="531.295,-46.1043 527.795,-36.1043 524.295,-46.1044 531.295,-46.1043"/>
</g>
</g>
</svg>
