<?xml version="1.0" encoding="UTF-8" standalone="no"?>
<!DOCTYPE svg PUBLIC "-//W3C//DTD SVG 1.1//EN"
 "http://www.w3.org/Graphics/SVG/1.1/DTD/svg11.dtd">
<!-- Generated by graphviz version 2.38.0 (20140413.2041)
 -->
<!-- Title: %3 Pages: 1 -->
<svg width="344pt" height="188pt"
 viewBox="0.00 0.00 344.29 188.00" xmlns="http://www.w3.org/2000/svg" xmlns:xlink="http://www.w3.org/1999/xlink">
<g id="graph0" class="graph" transform="scale(1 1) rotate(0) translate(4 184)">
<title>%3</title>
<polygon fill="white" stroke="none" points="-4,4 -4,-184 340.291,-184 340.291,4 -4,4"/>
<!-- CJump0 -->
<g id="node1" class="node"><title>CJump0</title>
<ellipse fill="none" stroke="black" cx="129.795" cy="-162" rx="40.0939" ry="18"/>
<text text-anchor="middle" x="129.795" y="-158.3" font-family="Times,serif" font-size="14.00">CJump0</text>
</g>
<!-- Temp0 -->
<g id="node2" class="node"><title>Temp0</title>
<ellipse fill="none" stroke="black" cx="68.7947" cy="-90" rx="36.2938" ry="18"/>
<text text-anchor="middle" x="68.7947" y="-86.3" font-family="Times,serif" font-size="14.00">Temp0</text>
</g>
<!-- CJump0&#45;&gt;Temp0 -->
<g id="edge1" class="edge"><title>CJump0&#45;&gt;Temp0</title>
<path fill="none" stroke="black" d="M115.647,-144.765C107.871,-135.841 98.0815,-124.608 89.4645,-114.719"/>
<polygon fill="black" stroke="black" points="92.0744,-112.387 82.8659,-107.147 86.797,-116.986 92.0744,-112.387"/>
</g>
<!-- AddConst0 -->
<g id="node3" class="node"><title>AddConst0</title>
<ellipse fill="none" stroke="black" cx="182.795" cy="-90" rx="50.8918" ry="18"/>
<text text-anchor="middle" x="182.795" y="-86.3" font-family="Times,serif" font-size="14.00">AddConst0</text>
</g>
<!-- CJump0&#45;&gt;AddConst0 -->
<g id="edge2" class="edge"><title>CJump0&#45;&gt;AddConst0</title>
<path fill="none" stroke="black" d="M142.087,-144.765C148.615,-136.143 156.776,-125.365 164.073,-115.727"/>
<polygon fill="black" stroke="black" points="166.955,-117.719 170.201,-107.633 161.374,-113.493 166.955,-117.719"/>
</g>
<!-- Temp1: T239 -->
<g id="node6" class="node"><title>Temp1: T239</title>
<ellipse fill="none" stroke="black" cx="59.7947" cy="-18" rx="59.5901" ry="18"/>
<text text-anchor="middle" x="59.7947" y="-14.3" font-family="Times,serif" font-size="14.00">Temp1: T239</text>
</g>
<!-- Temp0&#45;&gt;Temp1: T239 -->
<g id="edge5" class="edge"><title>Temp0&#45;&gt;Temp1: T239</title>
<path fill="none" stroke="black" d="M66.57,-71.6966C65.5782,-63.9827 64.3863,-54.7125 63.2806,-46.1124"/>
<polygon fill="black" stroke="black" points="66.7406,-45.5763 61.9938,-36.1043 59.7977,-46.469 66.7406,-45.5763"/>
</g>
<!-- NullExp0 -->
<g id="node4" class="node"><title>NullExp0</title>
<ellipse fill="none" stroke="black" cx="182.795" cy="-18" rx="44.6926" ry="18"/>
<text text-anchor="middle" x="182.795" y="-14.3" font-family="Times,serif" font-size="14.00">NullExp0</text>
</g>
<!-- AddConst0&#45;&gt;NullExp0 -->
<g id="edge3" class="edge"><title>AddConst0&#45;&gt;NullExp0</title>
<path fill="none" stroke="black" d="M182.795,-71.6966C182.795,-63.9827 182.795,-54.7125 182.795,-46.1124"/>
<polygon fill="black" stroke="black" points="186.295,-46.1043 182.795,-36.1043 179.295,-46.1044 186.295,-46.1043"/>
</g>
<!-- Value0: 0 -->
<g id="node5" class="node"><title>Value0: 0</title>
<ellipse fill="none" stroke="black" cx="290.795" cy="-18" rx="45.4919" ry="18"/>
<text text-anchor="middle" x="290.795" y="-14.3" font-family="Times,serif" font-size="14.00">Value0: 0</text>
</g>
<!-- AddConst0&#45;&gt;Value0: 0 -->
<g id="edge4" class="edge"><title>AddConst0&#45;&gt;Value0: 0</title>
<path fill="none" stroke="black" d="M205.963,-73.9832C221.586,-63.8573 242.387,-50.3753 259.481,-39.2959"/>
<polygon fill="black" stroke="black" points="261.547,-42.1277 268.035,-33.7517 257.74,-36.2536 261.547,-42.1277"/>
</g>
</g>
</svg>
