<?xml version="1.0" encoding="UTF-8" standalone="no"?>
<!DOCTYPE svg PUBLIC "-//W3C//DTD SVG 1.1//EN"
 "http://www.w3.org/Graphics/SVG/1.1/DTD/svg11.dtd">
<!-- Generated by graphviz version 2.38.0 (20140413.2041)
 -->
<!-- Title: %3 Pages: 1 -->
<svg width="521pt" height="260pt"
 viewBox="0.00 0.00 520.59 260.00" xmlns="http://www.w3.org/2000/svg" xmlns:xlink="http://www.w3.org/1999/xlink">
<g id="graph0" class="graph" transform="scale(1 1) rotate(0) translate(4 256)">
<title>%3</title>
<polygon fill="white" stroke="none" points="-4,4 -4,-256 516.589,-256 516.589,4 -4,4"/>
<!-- Call0 -->
<g id="node1" class="node"><title>Call0</title>
<ellipse fill="none" stroke="black" cx="267.795" cy="-162" rx="29.795" ry="18"/>
<text text-anchor="middle" x="267.795" y="-158.3" font-family="Times,serif" font-size="14.00">Call0</text>
</g>
<!-- Function0: Element@GetMarried -->
<g id="node2" class="node"><title>Function0: Element@GetMarried</title>
<ellipse fill="none" stroke="black" cx="267.795" cy="-90" rx="130.777" ry="18"/>
<text text-anchor="middle" x="267.795" y="-86.3" font-family="Times,serif" font-size="14.00">Function0: Element@GetMarried</text>
</g>
<!-- Call0&#45;&gt;Function0: Element@GetMarried -->
<g id="edge1" class="edge"><title>Call0&#45;&gt;Function0: Element@GetMarried</title>
<path fill="none" stroke="black" d="M267.795,-143.697C267.795,-135.983 267.795,-126.712 267.795,-118.112"/>
<polygon fill="black" stroke="black" points="271.295,-118.104 267.795,-108.104 264.295,-118.104 271.295,-118.104"/>
</g>
<!-- Temp2 -->
<g id="node3" class="node"><title>Temp2</title>
<ellipse fill="none" stroke="black" cx="452.795" cy="-90" rx="36.2938" ry="18"/>
<text text-anchor="middle" x="452.795" y="-86.3" font-family="Times,serif" font-size="14.00">Temp2</text>
</g>
<!-- Call0&#45;&gt;Temp2 -->
<g id="edge2" class="edge"><title>Call0&#45;&gt;Temp2</title>
<path fill="none" stroke="black" d="M292.361,-151.705C323.85,-139.79 378.747,-119.018 415.429,-105.138"/>
<polygon fill="black" stroke="black" points="416.683,-108.406 424.797,-101.594 414.205,-101.859 416.683,-108.406"/>
</g>
<!-- Temp3: T254 -->
<g id="node6" class="node"><title>Temp3: T254</title>
<ellipse fill="none" stroke="black" cx="452.795" cy="-18" rx="59.5901" ry="18"/>
<text text-anchor="middle" x="452.795" y="-14.3" font-family="Times,serif" font-size="14.00">Temp3: T254</text>
</g>
<!-- Temp2&#45;&gt;Temp3: T254 -->
<g id="edge5" class="edge"><title>Temp2&#45;&gt;Temp3: T254</title>
<path fill="none" stroke="black" d="M452.795,-71.6966C452.795,-63.9827 452.795,-54.7125 452.795,-46.1124"/>
<polygon fill="black" stroke="black" points="456.295,-46.1043 452.795,-36.1043 449.295,-46.1044 456.295,-46.1043"/>
</g>
<!-- MoveRegister0 -->
<g id="node4" class="node"><title>MoveRegister0</title>
<ellipse fill="none" stroke="black" cx="194.795" cy="-234" rx="65.7887" ry="18"/>
<text text-anchor="middle" x="194.795" y="-230.3" font-family="Times,serif" font-size="14.00">MoveRegister0</text>
</g>
<!-- MoveRegister0&#45;&gt;Call0 -->
<g id="edge4" class="edge"><title>MoveRegister0&#45;&gt;Call0</title>
<path fill="none" stroke="black" d="M212.095,-216.411C222.001,-206.911 234.546,-194.882 245.222,-184.646"/>
<polygon fill="black" stroke="black" points="247.804,-187.018 252.6,-177.57 242.959,-181.965 247.804,-187.018"/>
</g>
<!-- Temp0 -->
<g id="node5" class="node"><title>Temp0</title>
<ellipse fill="none" stroke="black" cx="121.795" cy="-162" rx="36.2938" ry="18"/>
<text text-anchor="middle" x="121.795" y="-158.3" font-family="Times,serif" font-size="14.00">Temp0</text>
</g>
<!-- MoveRegister0&#45;&gt;Temp0 -->
<g id="edge3" class="edge"><title>MoveRegister0&#45;&gt;Temp0</title>
<path fill="none" stroke="black" d="M177.495,-216.411C167.859,-207.172 155.728,-195.539 145.249,-185.491"/>
<polygon fill="black" stroke="black" points="147.611,-182.906 137.97,-178.511 142.766,-187.958 147.611,-182.906"/>
</g>
<!-- Temp1: T255 -->
<g id="node7" class="node"><title>Temp1: T255</title>
<ellipse fill="none" stroke="black" cx="59.7947" cy="-90" rx="59.5901" ry="18"/>
<text text-anchor="middle" x="59.7947" y="-86.3" font-family="Times,serif" font-size="14.00">Temp1: T255</text>
</g>
<!-- Temp0&#45;&gt;Temp1: T255 -->
<g id="edge6" class="edge"><title>Temp0&#45;&gt;Temp1: T255</title>
<path fill="none" stroke="black" d="M107.726,-145.116C99.9451,-136.331 90.1115,-125.229 81.3791,-115.37"/>
<polygon fill="black" stroke="black" points="83.9228,-112.963 74.6723,-107.797 78.6827,-117.604 83.9228,-112.963"/>
</g>
</g>
</svg>
