<?xml version="1.0" encoding="UTF-8" standalone="no"?>
<!DOCTYPE svg PUBLIC "-//W3C//DTD SVG 1.1//EN"
 "http://www.w3.org/Graphics/SVG/1.1/DTD/svg11.dtd">
<!-- Generated by graphviz version 2.38.0 (20140413.2041)
 -->
<!-- Title: %3 Pages: 1 -->
<svg width="577pt" height="476pt"
 viewBox="0.00 0.00 576.69 476.00" xmlns="http://www.w3.org/2000/svg" xmlns:xlink="http://www.w3.org/1999/xlink">
<g id="graph0" class="graph" transform="scale(1 1) rotate(0) translate(4 472)">
<title>%3</title>
<polygon fill="white" stroke="none" points="-4,4 -4,-472 572.686,-472 572.686,4 -4,4"/>
<!-- ExpConst1 -->
<g id="node1" class="node"><title>ExpConst1</title>
<ellipse fill="none" stroke="black" cx="518.641" cy="-234" rx="50.0912" ry="18"/>
<text text-anchor="middle" x="518.641" y="-230.3" font-family="Times,serif" font-size="14.00">ExpConst1</text>
</g>
<!-- Value1: 1 -->
<g id="node2" class="node"><title>Value1: 1</title>
<ellipse fill="none" stroke="black" cx="518.641" cy="-162" rx="45.4919" ry="18"/>
<text text-anchor="middle" x="518.641" y="-158.3" font-family="Times,serif" font-size="14.00">Value1: 1</text>
</g>
<!-- ExpConst1&#45;&gt;Value1: 1 -->
<g id="edge1" class="edge"><title>ExpConst1&#45;&gt;Value1: 1</title>
<path fill="none" stroke="black" d="M518.641,-215.697C518.641,-207.983 518.641,-198.712 518.641,-190.112"/>
<polygon fill="black" stroke="black" points="522.141,-190.104 518.641,-180.104 515.141,-190.104 522.141,-190.104"/>
</g>
<!-- StatMove1 -->
<g id="node3" class="node"><title>StatMove1</title>
<ellipse fill="none" stroke="black" cx="400.641" cy="-306" rx="50.0912" ry="18"/>
<text text-anchor="middle" x="400.641" y="-302.3" font-family="Times,serif" font-size="14.00">StatMove1</text>
</g>
<!-- StatMove1&#45;&gt;ExpConst1 -->
<g id="edge3" class="edge"><title>StatMove1&#45;&gt;ExpConst1</title>
<path fill="none" stroke="black" d="M425.377,-290.326C442.763,-280.012 466.223,-266.095 485.264,-254.8"/>
<polygon fill="black" stroke="black" points="487.122,-257.767 493.937,-249.655 483.55,-251.747 487.122,-257.767"/>
</g>
<!-- ExpTemp2 -->
<g id="node4" class="node"><title>ExpTemp2</title>
<ellipse fill="none" stroke="black" cx="400.641" cy="-234" rx="50.0912" ry="18"/>
<text text-anchor="middle" x="400.641" y="-230.3" font-family="Times,serif" font-size="14.00">ExpTemp2</text>
</g>
<!-- StatMove1&#45;&gt;ExpTemp2 -->
<g id="edge2" class="edge"><title>StatMove1&#45;&gt;ExpTemp2</title>
<path fill="none" stroke="black" d="M400.641,-287.697C400.641,-279.983 400.641,-270.712 400.641,-262.112"/>
<polygon fill="black" stroke="black" points="404.141,-262.104 400.641,-252.104 397.141,-262.104 404.141,-262.104"/>
</g>
<!-- Temp2: $rv -->
<g id="node5" class="node"><title>Temp2: $rv</title>
<ellipse fill="none" stroke="black" cx="401.641" cy="-162" rx="52.7911" ry="18"/>
<text text-anchor="middle" x="401.641" y="-158.3" font-family="Times,serif" font-size="14.00">Temp2: $rv</text>
</g>
<!-- ExpTemp2&#45;&gt;Temp2: $rv -->
<g id="edge4" class="edge"><title>ExpTemp2&#45;&gt;Temp2: $rv</title>
<path fill="none" stroke="black" d="M400.888,-215.697C400.998,-207.983 401.131,-198.712 401.253,-190.112"/>
<polygon fill="black" stroke="black" points="404.753,-190.153 401.396,-180.104 397.754,-190.053 404.753,-190.153"/>
</g>
<!-- StatSeq1 -->
<g id="node6" class="node"><title>StatSeq1</title>
<ellipse fill="none" stroke="black" cx="277.641" cy="-378" rx="42.4939" ry="18"/>
<text text-anchor="middle" x="277.641" y="-374.3" font-family="Times,serif" font-size="14.00">StatSeq1</text>
</g>
<!-- StatSeq1&#45;&gt;StatMove1 -->
<g id="edge6" class="edge"><title>StatSeq1&#45;&gt;StatMove1</title>
<path fill="none" stroke="black" d="M301.942,-363.17C320.36,-352.688 345.907,-338.149 366.396,-326.489"/>
<polygon fill="black" stroke="black" points="368.16,-329.512 375.12,-321.524 364.698,-323.428 368.16,-329.512"/>
</g>
<!-- StatMove0 -->
<g id="node7" class="node"><title>StatMove0</title>
<ellipse fill="none" stroke="black" cx="277.641" cy="-306" rx="50.0912" ry="18"/>
<text text-anchor="middle" x="277.641" y="-302.3" font-family="Times,serif" font-size="14.00">StatMove0</text>
</g>
<!-- StatSeq1&#45;&gt;StatMove0 -->
<g id="edge5" class="edge"><title>StatSeq1&#45;&gt;StatMove0</title>
<path fill="none" stroke="black" d="M277.641,-359.697C277.641,-351.983 277.641,-342.712 277.641,-334.112"/>
<polygon fill="black" stroke="black" points="281.141,-334.104 277.641,-324.104 274.141,-334.104 281.141,-334.104"/>
</g>
<!-- ExpMem0 -->
<g id="node8" class="node"><title>ExpMem0</title>
<ellipse fill="none" stroke="black" cx="111.641" cy="-234" rx="48.9926" ry="18"/>
<text text-anchor="middle" x="111.641" y="-230.3" font-family="Times,serif" font-size="14.00">ExpMem0</text>
</g>
<!-- StatMove0&#45;&gt;ExpMem0 -->
<g id="edge15" class="edge"><title>StatMove0&#45;&gt;ExpMem0</title>
<path fill="none" stroke="black" d="M246.417,-291.834C219.669,-280.554 180.976,-264.238 151.903,-251.978"/>
<polygon fill="black" stroke="black" points="153.017,-248.65 142.443,-247.989 150.297,-255.1 153.017,-248.65"/>
</g>
<!-- ExpMem2 -->
<g id="node10" class="node"><title>ExpMem2</title>
<ellipse fill="none" stroke="black" cx="277.641" cy="-234" rx="48.9926" ry="18"/>
<text text-anchor="middle" x="277.641" y="-230.3" font-family="Times,serif" font-size="14.00">ExpMem2</text>
</g>
<!-- StatMove0&#45;&gt;ExpMem2 -->
<g id="edge16" class="edge"><title>StatMove0&#45;&gt;ExpMem2</title>
<path fill="none" stroke="black" d="M277.641,-287.697C277.641,-279.983 277.641,-270.712 277.641,-262.112"/>
<polygon fill="black" stroke="black" points="281.141,-262.104 277.641,-252.104 274.141,-262.104 281.141,-262.104"/>
</g>
<!-- ExpMem1 -->
<g id="node9" class="node"><title>ExpMem1</title>
<ellipse fill="none" stroke="black" cx="109.641" cy="-162" rx="48.9926" ry="18"/>
<text text-anchor="middle" x="109.641" y="-158.3" font-family="Times,serif" font-size="14.00">ExpMem1</text>
</g>
<!-- ExpMem0&#45;&gt;ExpMem1 -->
<g id="edge7" class="edge"><title>ExpMem0&#45;&gt;ExpMem1</title>
<path fill="none" stroke="black" d="M111.146,-215.697C110.926,-207.983 110.661,-198.712 110.415,-190.112"/>
<polygon fill="black" stroke="black" points="113.914,-190 110.129,-180.104 106.917,-190.2 113.914,-190"/>
</g>
<!-- ExpTemp0 -->
<g id="node12" class="node"><title>ExpTemp0</title>
<ellipse fill="none" stroke="black" cx="85.6407" cy="-90" rx="50.0912" ry="18"/>
<text text-anchor="middle" x="85.6407" y="-86.3" font-family="Times,serif" font-size="14.00">ExpTemp0</text>
</g>
<!-- ExpMem1&#45;&gt;ExpTemp0 -->
<g id="edge13" class="edge"><title>ExpMem1&#45;&gt;ExpTemp0</title>
<path fill="none" stroke="black" d="M103.831,-144.055C101.13,-136.176 97.8521,-126.617 94.8272,-117.794"/>
<polygon fill="black" stroke="black" points="98.1178,-116.6 91.5637,-108.275 91.4962,-118.87 98.1178,-116.6"/>
</g>
<!-- ExpBinary0 -->
<g id="node11" class="node"><title>ExpBinary0</title>
<ellipse fill="none" stroke="black" cx="277.641" cy="-162" rx="53.0913" ry="18"/>
<text text-anchor="middle" x="277.641" y="-158.3" font-family="Times,serif" font-size="14.00">ExpBinary0</text>
</g>
<!-- ExpMem2&#45;&gt;ExpBinary0 -->
<g id="edge8" class="edge"><title>ExpMem2&#45;&gt;ExpBinary0</title>
<path fill="none" stroke="black" d="M277.641,-215.697C277.641,-207.983 277.641,-198.712 277.641,-190.112"/>
<polygon fill="black" stroke="black" points="281.141,-190.104 277.641,-180.104 274.141,-190.104 281.141,-190.104"/>
</g>
<!-- ExpConst0 -->
<g id="node17" class="node"><title>ExpConst0</title>
<ellipse fill="none" stroke="black" cx="403.641" cy="-90" rx="50.0912" ry="18"/>
<text text-anchor="middle" x="403.641" y="-86.3" font-family="Times,serif" font-size="14.00">ExpConst0</text>
</g>
<!-- ExpBinary0&#45;&gt;ExpConst0 -->
<g id="edge19" class="edge"><title>ExpBinary0&#45;&gt;ExpConst0</title>
<path fill="none" stroke="black" d="M304.054,-146.326C322.828,-135.896 348.235,-121.781 368.687,-110.419"/>
<polygon fill="black" stroke="black" points="370.652,-113.331 377.693,-105.415 367.252,-107.212 370.652,-113.331"/>
</g>
<!-- ExpTemp1 -->
<g id="node19" class="node"><title>ExpTemp1</title>
<ellipse fill="none" stroke="black" cx="205.641" cy="-90" rx="50.0912" ry="18"/>
<text text-anchor="middle" x="205.641" y="-86.3" font-family="Times,serif" font-size="14.00">ExpTemp1</text>
</g>
<!-- ExpBinary0&#45;&gt;ExpTemp1 -->
<g id="edge17" class="edge"><title>ExpBinary0&#45;&gt;ExpTemp1</title>
<path fill="none" stroke="black" d="M260.941,-144.765C251.582,-135.665 239.75,-124.162 229.435,-114.134"/>
<polygon fill="black" stroke="black" points="231.859,-111.609 222.249,-107.147 226.98,-116.628 231.859,-111.609"/>
</g>
<!-- Plus0 -->
<g id="node20" class="node"><title>Plus0</title>
<ellipse fill="none" stroke="black" cx="304.641" cy="-90" rx="30.5947" ry="18"/>
<text text-anchor="middle" x="304.641" y="-86.3" font-family="Times,serif" font-size="14.00">Plus0</text>
</g>
<!-- ExpBinary0&#45;&gt;Plus0 -->
<g id="edge18" class="edge"><title>ExpBinary0&#45;&gt;Plus0</title>
<path fill="none" stroke="black" d="M284.177,-144.055C287.261,-136.059 291.013,-126.331 294.458,-117.4"/>
<polygon fill="black" stroke="black" points="297.832,-118.379 298.165,-107.789 291.301,-115.859 297.832,-118.379"/>
</g>
<!-- Temp0: $fp -->
<g id="node13" class="node"><title>Temp0: $fp</title>
<ellipse fill="none" stroke="black" cx="84.6407" cy="-18" rx="52.7911" ry="18"/>
<text text-anchor="middle" x="84.6407" y="-14.3" font-family="Times,serif" font-size="14.00">Temp0: $fp</text>
</g>
<!-- ExpTemp0&#45;&gt;Temp0: $fp -->
<g id="edge9" class="edge"><title>ExpTemp0&#45;&gt;Temp0: $fp</title>
<path fill="none" stroke="black" d="M85.3935,-71.6966C85.2833,-63.9827 85.1509,-54.7125 85.028,-46.1124"/>
<polygon fill="black" stroke="black" points="88.5276,-46.0533 84.8851,-36.1043 81.5284,-46.1533 88.5276,-46.0533"/>
</g>
<!-- StatSeq0 -->
<g id="node14" class="node"><title>StatSeq0</title>
<ellipse fill="none" stroke="black" cx="206.641" cy="-450" rx="42.4939" ry="18"/>
<text text-anchor="middle" x="206.641" y="-446.3" font-family="Times,serif" font-size="14.00">StatSeq0</text>
</g>
<!-- StatSeq0&#45;&gt;StatSeq1 -->
<g id="edge11" class="edge"><title>StatSeq0&#45;&gt;StatSeq1</title>
<path fill="none" stroke="black" d="M222.752,-433.116C232.102,-423.897 244.041,-412.127 254.394,-401.919"/>
<polygon fill="black" stroke="black" points="256.93,-404.334 261.593,-394.821 252.015,-399.35 256.93,-404.334"/>
</g>
<!-- StatLabel0 -->
<g id="node15" class="node"><title>StatLabel0</title>
<ellipse fill="none" stroke="black" cx="136.641" cy="-378" rx="48.9926" ry="18"/>
<text text-anchor="middle" x="136.641" y="-374.3" font-family="Times,serif" font-size="14.00">StatLabel0</text>
</g>
<!-- StatSeq0&#45;&gt;StatLabel0 -->
<g id="edge10" class="edge"><title>StatSeq0&#45;&gt;StatLabel0</title>
<path fill="none" stroke="black" d="M190.757,-433.116C181.756,-424.116 170.323,-412.682 160.287,-402.646"/>
<polygon fill="black" stroke="black" points="162.494,-399.903 152.948,-395.307 157.544,-404.853 162.494,-399.903"/>
</g>
<!-- Label0: Tree::SetHas_Left -->
<g id="node16" class="node"><title>Label0: Tree::SetHas_Left</title>
<ellipse fill="none" stroke="black" cx="104.641" cy="-306" rx="104.782" ry="18"/>
<text text-anchor="middle" x="104.641" y="-302.3" font-family="Times,serif" font-size="14.00">Label0: Tree::SetHas_Left</text>
</g>
<!-- StatLabel0&#45;&gt;Label0: Tree::SetHas_Left -->
<g id="edge12" class="edge"><title>StatLabel0&#45;&gt;Label0: Tree::SetHas_Left</title>
<path fill="none" stroke="black" d="M128.894,-360.055C125.254,-352.091 120.828,-342.411 116.759,-333.51"/>
<polygon fill="black" stroke="black" points="119.879,-331.915 112.538,-324.275 113.512,-334.825 119.879,-331.915"/>
</g>
<!-- Value0: 4 -->
<g id="node18" class="node"><title>Value0: 4</title>
<ellipse fill="none" stroke="black" cx="403.641" cy="-18" rx="45.4919" ry="18"/>
<text text-anchor="middle" x="403.641" y="-14.3" font-family="Times,serif" font-size="14.00">Value0: 4</text>
</g>
<!-- ExpConst0&#45;&gt;Value0: 4 -->
<g id="edge14" class="edge"><title>ExpConst0&#45;&gt;Value0: 4</title>
<path fill="none" stroke="black" d="M403.641,-71.6966C403.641,-63.9827 403.641,-54.7125 403.641,-46.1124"/>
<polygon fill="black" stroke="black" points="407.141,-46.1043 403.641,-36.1043 400.141,-46.1044 407.141,-46.1043"/>
</g>
<!-- Temp1: $fp -->
<g id="node21" class="node"><title>Temp1: $fp</title>
<ellipse fill="none" stroke="black" cx="207.641" cy="-18" rx="52.7911" ry="18"/>
<text text-anchor="middle" x="207.641" y="-14.3" font-family="Times,serif" font-size="14.00">Temp1: $fp</text>
</g>
<!-- ExpTemp1&#45;&gt;Temp1: $fp -->
<g id="edge20" class="edge"><title>ExpTemp1&#45;&gt;Temp1: $fp</title>
<path fill="none" stroke="black" d="M206.135,-71.6966C206.355,-63.9827 206.62,-54.7125 206.866,-46.1124"/>
<polygon fill="black" stroke="black" points="210.365,-46.2002 207.152,-36.1043 203.368,-46.0003 210.365,-46.2002"/>
</g>
</g>
</svg>
