<?xml version="1.0" encoding="UTF-8" standalone="no"?>
<!DOCTYPE svg PUBLIC "-//W3C//DTD SVG 1.1//EN"
 "http://www.w3.org/Graphics/SVG/1.1/DTD/svg11.dtd">
<!-- Generated by graphviz version 2.38.0 (20140413.2041)
 -->
<!-- Title: %3 Pages: 1 -->
<svg width="468pt" height="404pt"
 viewBox="0.00 0.00 468.29 404.00" xmlns="http://www.w3.org/2000/svg" xmlns:xlink="http://www.w3.org/1999/xlink">
<g id="graph0" class="graph" transform="scale(1 1) rotate(0) translate(4 400)">
<title>%3</title>
<polygon fill="white" stroke="none" points="-4,4 -4,-400 464.286,-400 464.286,4 -4,4"/>
<!-- ExpMem0 -->
<g id="node1" class="node"><title>ExpMem0</title>
<ellipse fill="none" stroke="black" cx="405.591" cy="-234" rx="48.9926" ry="18"/>
<text text-anchor="middle" x="405.591" y="-230.3" font-family="Times,serif" font-size="14.00">ExpMem0</text>
</g>
<!-- ExpMem1 -->
<g id="node2" class="node"><title>ExpMem1</title>
<ellipse fill="none" stroke="black" cx="409.591" cy="-162" rx="48.9926" ry="18"/>
<text text-anchor="middle" x="409.591" y="-158.3" font-family="Times,serif" font-size="14.00">ExpMem1</text>
</g>
<!-- ExpMem0&#45;&gt;ExpMem1 -->
<g id="edge1" class="edge"><title>ExpMem0&#45;&gt;ExpMem1</title>
<path fill="none" stroke="black" d="M406.579,-215.697C407.02,-207.983 407.55,-198.712 408.041,-190.112"/>
<polygon fill="black" stroke="black" points="411.537,-190.288 408.613,-180.104 404.548,-189.888 411.537,-190.288"/>
</g>
<!-- ExpTemp1 -->
<g id="node3" class="node"><title>ExpTemp1</title>
<ellipse fill="none" stroke="black" cx="409.591" cy="-90" rx="50.0912" ry="18"/>
<text text-anchor="middle" x="409.591" y="-86.3" font-family="Times,serif" font-size="14.00">ExpTemp1</text>
</g>
<!-- ExpMem1&#45;&gt;ExpTemp1 -->
<g id="edge2" class="edge"><title>ExpMem1&#45;&gt;ExpTemp1</title>
<path fill="none" stroke="black" d="M409.591,-143.697C409.591,-135.983 409.591,-126.712 409.591,-118.112"/>
<polygon fill="black" stroke="black" points="413.091,-118.104 409.591,-108.104 406.091,-118.104 413.091,-118.104"/>
</g>
<!-- Temp1: FP -->
<g id="node4" class="node"><title>Temp1: FP</title>
<ellipse fill="none" stroke="black" cx="409.591" cy="-18" rx="50.8918" ry="18"/>
<text text-anchor="middle" x="409.591" y="-14.3" font-family="Times,serif" font-size="14.00">Temp1: FP</text>
</g>
<!-- ExpTemp1&#45;&gt;Temp1: FP -->
<g id="edge3" class="edge"><title>ExpTemp1&#45;&gt;Temp1: FP</title>
<path fill="none" stroke="black" d="M409.591,-71.6966C409.591,-63.9827 409.591,-54.7125 409.591,-46.1124"/>
<polygon fill="black" stroke="black" points="413.091,-46.1043 409.591,-36.1043 406.091,-46.1044 413.091,-46.1043"/>
</g>
<!-- StatLabel0 -->
<g id="node5" class="node"><title>StatLabel0</title>
<ellipse fill="none" stroke="black" cx="135.591" cy="-306" rx="48.9926" ry="18"/>
<text text-anchor="middle" x="135.591" y="-302.3" font-family="Times,serif" font-size="14.00">StatLabel0</text>
</g>
<!-- Label0: Tree::GetHas_Left -->
<g id="node6" class="node"><title>Label0: Tree::GetHas_Left</title>
<ellipse fill="none" stroke="black" cx="106.591" cy="-234" rx="106.681" ry="18"/>
<text text-anchor="middle" x="106.591" y="-230.3" font-family="Times,serif" font-size="14.00">Label0: Tree::GetHas_Left</text>
</g>
<!-- StatLabel0&#45;&gt;Label0: Tree::GetHas_Left -->
<g id="edge4" class="edge"><title>StatLabel0&#45;&gt;Label0: Tree::GetHas_Left</title>
<path fill="none" stroke="black" d="M128.57,-288.055C125.306,-280.176 121.346,-270.617 117.691,-261.794"/>
<polygon fill="black" stroke="black" points="120.808,-260.174 113.747,-252.275 114.341,-262.853 120.808,-260.174"/>
</g>
<!-- StatSeq0 -->
<g id="node7" class="node"><title>StatSeq0</title>
<ellipse fill="none" stroke="black" cx="208.591" cy="-378" rx="42.4939" ry="18"/>
<text text-anchor="middle" x="208.591" y="-374.3" font-family="Times,serif" font-size="14.00">StatSeq0</text>
</g>
<!-- StatSeq0&#45;&gt;StatLabel0 -->
<g id="edge5" class="edge"><title>StatSeq0&#45;&gt;StatLabel0</title>
<path fill="none" stroke="black" d="M192.026,-361.116C182.48,-351.962 170.31,-340.293 159.717,-330.135"/>
<polygon fill="black" stroke="black" points="161.983,-327.459 152.343,-323.064 157.138,-332.511 161.983,-327.459"/>
</g>
<!-- StatMove0 -->
<g id="node8" class="node"><title>StatMove0</title>
<ellipse fill="none" stroke="black" cx="281.591" cy="-306" rx="50.0912" ry="18"/>
<text text-anchor="middle" x="281.591" y="-302.3" font-family="Times,serif" font-size="14.00">StatMove0</text>
</g>
<!-- StatSeq0&#45;&gt;StatMove0 -->
<g id="edge6" class="edge"><title>StatSeq0&#45;&gt;StatMove0</title>
<path fill="none" stroke="black" d="M225.155,-361.116C234.701,-351.962 246.871,-340.293 257.464,-330.135"/>
<polygon fill="black" stroke="black" points="260.043,-332.511 264.839,-323.064 255.198,-327.459 260.043,-332.511"/>
</g>
<!-- StatMove0&#45;&gt;ExpMem0 -->
<g id="edge9" class="edge"><title>StatMove0&#45;&gt;ExpMem0</title>
<path fill="none" stroke="black" d="M307.283,-290.496C325.738,-280.078 350.82,-265.919 371.029,-254.51"/>
<polygon fill="black" stroke="black" points="372.943,-257.449 379.931,-249.485 369.502,-251.354 372.943,-257.449"/>
</g>
<!-- ExpTemp0 -->
<g id="node9" class="node"><title>ExpTemp0</title>
<ellipse fill="none" stroke="black" cx="281.591" cy="-234" rx="50.0912" ry="18"/>
<text text-anchor="middle" x="281.591" y="-230.3" font-family="Times,serif" font-size="14.00">ExpTemp0</text>
</g>
<!-- StatMove0&#45;&gt;ExpTemp0 -->
<g id="edge8" class="edge"><title>StatMove0&#45;&gt;ExpTemp0</title>
<path fill="none" stroke="black" d="M281.591,-287.697C281.591,-279.983 281.591,-270.712 281.591,-262.112"/>
<polygon fill="black" stroke="black" points="285.091,-262.104 281.591,-252.104 278.091,-262.104 285.091,-262.104"/>
</g>
<!-- Temp0: RetVal -->
<g id="node10" class="node"><title>Temp0: RetVal</title>
<ellipse fill="none" stroke="black" cx="277.591" cy="-162" rx="65.7887" ry="18"/>
<text text-anchor="middle" x="277.591" y="-158.3" font-family="Times,serif" font-size="14.00">Temp0: RetVal</text>
</g>
<!-- ExpTemp0&#45;&gt;Temp0: RetVal -->
<g id="edge7" class="edge"><title>ExpTemp0&#45;&gt;Temp0: RetVal</title>
<path fill="none" stroke="black" d="M280.602,-215.697C280.161,-207.983 279.631,-198.712 279.14,-190.112"/>
<polygon fill="black" stroke="black" points="282.633,-189.888 278.568,-180.104 275.644,-190.288 282.633,-189.888"/>
</g>
</g>
</svg>
