<?xml version="1.0" encoding="UTF-8" standalone="no"?>
<!DOCTYPE svg PUBLIC "-//W3C//DTD SVG 1.1//EN"
 "http://www.w3.org/Graphics/SVG/1.1/DTD/svg11.dtd">
<!-- Generated by graphviz version 2.38.0 (20140413.2041)
 -->
<!-- Title: %3 Pages: 1 -->
<svg width="1270pt" height="692pt"
 viewBox="0.00 0.00 1270.29 692.00" xmlns="http://www.w3.org/2000/svg" xmlns:xlink="http://www.w3.org/1999/xlink">
<g id="graph0" class="graph" transform="scale(1 1) rotate(0) translate(4 688)">
<title>%3</title>
<polygon fill="white" stroke="none" points="-4,4 -4,-688 1266.29,-688 1266.29,4 -4,4"/>
<!-- StatMove2 -->
<g id="node1" class="node"><title>StatMove2</title>
<ellipse fill="none" stroke="black" cx="977.245" cy="-522" rx="50.0912" ry="18"/>
<text text-anchor="middle" x="977.245" y="-518.3" font-family="Times,serif" font-size="14.00">StatMove2</text>
</g>
<!-- ExpTemp4 -->
<g id="node2" class="node"><title>ExpTemp4</title>
<ellipse fill="none" stroke="black" cx="977.245" cy="-450" rx="50.0912" ry="18"/>
<text text-anchor="middle" x="977.245" y="-446.3" font-family="Times,serif" font-size="14.00">ExpTemp4</text>
</g>
<!-- StatMove2&#45;&gt;ExpTemp4 -->
<g id="edge1" class="edge"><title>StatMove2&#45;&gt;ExpTemp4</title>
<path fill="none" stroke="black" d="M977.245,-503.697C977.245,-495.983 977.245,-486.712 977.245,-478.112"/>
<polygon fill="black" stroke="black" points="980.745,-478.104 977.245,-468.104 973.745,-478.104 980.745,-478.104"/>
</g>
<!-- ExpCall5 -->
<g id="node3" class="node"><title>ExpCall5</title>
<ellipse fill="none" stroke="black" cx="1092.25" cy="-450" rx="44.393" ry="18"/>
<text text-anchor="middle" x="1092.25" y="-446.3" font-family="Times,serif" font-size="14.00">ExpCall5</text>
</g>
<!-- StatMove2&#45;&gt;ExpCall5 -->
<g id="edge2" class="edge"><title>StatMove2&#45;&gt;ExpCall5</title>
<path fill="none" stroke="black" d="M1001.63,-506.155C1018.63,-495.808 1041.49,-481.897 1059.99,-470.634"/>
<polygon fill="black" stroke="black" points="1061.96,-473.534 1068.68,-465.345 1058.32,-467.555 1061.96,-473.534"/>
</g>
<!-- Temp4: T41 -->
<g id="node4" class="node"><title>Temp4: T41</title>
<ellipse fill="none" stroke="black" cx="977.245" cy="-378" rx="55.4913" ry="18"/>
<text text-anchor="middle" x="977.245" y="-374.3" font-family="Times,serif" font-size="14.00">Temp4: T41</text>
</g>
<!-- ExpTemp4&#45;&gt;Temp4: T41 -->
<g id="edge3" class="edge"><title>ExpTemp4&#45;&gt;Temp4: T41</title>
<path fill="none" stroke="black" d="M977.245,-431.697C977.245,-423.983 977.245,-414.712 977.245,-406.112"/>
<polygon fill="black" stroke="black" points="980.745,-406.104 977.245,-396.104 973.745,-406.104 980.745,-406.104"/>
</g>
<!-- Value4: 1 -->
<g id="node42" class="node"><title>Value4: 1</title>
<ellipse fill="none" stroke="black" cx="1096.25" cy="-378" rx="45.4919" ry="18"/>
<text text-anchor="middle" x="1096.25" y="-374.3" font-family="Times,serif" font-size="14.00">Value4: 1</text>
</g>
<!-- ExpCall5&#45;&gt;Value4: 1 -->
<g id="edge41" class="edge"><title>ExpCall5&#45;&gt;Value4: 1</title>
<path fill="none" stroke="black" d="M1093.23,-431.697C1093.67,-423.983 1094.2,-414.712 1094.7,-406.112"/>
<polygon fill="black" stroke="black" points="1098.19,-406.288 1095.27,-396.104 1091.2,-405.888 1098.19,-406.288"/>
</g>
<!-- StatSeq1 -->
<g id="node5" class="node"><title>StatSeq1</title>
<ellipse fill="none" stroke="black" cx="799.245" cy="-594" rx="42.4939" ry="18"/>
<text text-anchor="middle" x="799.245" y="-590.3" font-family="Times,serif" font-size="14.00">StatSeq1</text>
</g>
<!-- StatSeq1&#45;&gt;StatMove2 -->
<g id="edge5" class="edge"><title>StatSeq1&#45;&gt;StatMove2</title>
<path fill="none" stroke="black" d="M829.44,-581.125C858.475,-569.708 902.621,-552.346 935.111,-539.57"/>
<polygon fill="black" stroke="black" points="936.764,-542.68 944.79,-535.763 934.202,-536.166 936.764,-542.68"/>
</g>
<!-- StatSeq2 -->
<g id="node6" class="node"><title>StatSeq2</title>
<ellipse fill="none" stroke="black" cx="799.245" cy="-522" rx="42.4939" ry="18"/>
<text text-anchor="middle" x="799.245" y="-518.3" font-family="Times,serif" font-size="14.00">StatSeq2</text>
</g>
<!-- StatSeq1&#45;&gt;StatSeq2 -->
<g id="edge4" class="edge"><title>StatSeq1&#45;&gt;StatSeq2</title>
<path fill="none" stroke="black" d="M799.245,-575.697C799.245,-567.983 799.245,-558.712 799.245,-550.112"/>
<polygon fill="black" stroke="black" points="802.745,-550.104 799.245,-540.104 795.745,-550.104 802.745,-550.104"/>
</g>
<!-- StatMove0 -->
<g id="node35" class="node"><title>StatMove0</title>
<ellipse fill="none" stroke="black" cx="444.245" cy="-450" rx="50.0912" ry="18"/>
<text text-anchor="middle" x="444.245" y="-446.3" font-family="Times,serif" font-size="14.00">StatMove0</text>
</g>
<!-- StatSeq2&#45;&gt;StatMove0 -->
<g id="edge34" class="edge"><title>StatSeq2&#45;&gt;StatMove0</title>
<path fill="none" stroke="black" d="M767.904,-509.738C761.454,-507.651 754.67,-505.621 748.245,-504 663.048,-482.502 562.238,-466.796 500.79,-458.284"/>
<polygon fill="black" stroke="black" points="500.914,-454.769 490.532,-456.88 499.965,-461.704 500.914,-454.769"/>
</g>
<!-- StatMove1 -->
<g id="node38" class="node"><title>StatMove1</title>
<ellipse fill="none" stroke="black" cx="799.245" cy="-450" rx="50.0912" ry="18"/>
<text text-anchor="middle" x="799.245" y="-446.3" font-family="Times,serif" font-size="14.00">StatMove1</text>
</g>
<!-- StatSeq2&#45;&gt;StatMove1 -->
<g id="edge35" class="edge"><title>StatSeq2&#45;&gt;StatMove1</title>
<path fill="none" stroke="black" d="M799.245,-503.697C799.245,-495.983 799.245,-486.712 799.245,-478.112"/>
<polygon fill="black" stroke="black" points="802.745,-478.104 799.245,-468.104 795.745,-478.104 802.745,-478.104"/>
</g>
<!-- ExpList0 -->
<g id="node7" class="node"><title>ExpList0</title>
<ellipse fill="none" stroke="black" cx="1091.25" cy="-306" rx="42.7926" ry="18"/>
<text text-anchor="middle" x="1091.25" y="-302.3" font-family="Times,serif" font-size="14.00">ExpList0</text>
</g>
<!-- ExpMem2 -->
<g id="node8" class="node"><title>ExpMem2</title>
<ellipse fill="none" stroke="black" cx="1119.25" cy="-234" rx="48.9926" ry="18"/>
<text text-anchor="middle" x="1119.25" y="-230.3" font-family="Times,serif" font-size="14.00">ExpMem2</text>
</g>
<!-- ExpList0&#45;&gt;ExpMem2 -->
<g id="edge6" class="edge"><title>ExpList0&#45;&gt;ExpMem2</title>
<path fill="none" stroke="black" d="M1098.02,-288.055C1101.17,-280.176 1105,-270.617 1108.53,-261.794"/>
<polygon fill="black" stroke="black" points="1111.87,-262.86 1112.33,-252.275 1105.37,-260.26 1111.87,-262.86"/>
</g>
<!-- ExpBinary3 -->
<g id="node29" class="node"><title>ExpBinary3</title>
<ellipse fill="none" stroke="black" cx="1119.25" cy="-162" rx="53.0913" ry="18"/>
<text text-anchor="middle" x="1119.25" y="-158.3" font-family="Times,serif" font-size="14.00">ExpBinary3</text>
</g>
<!-- ExpMem2&#45;&gt;ExpBinary3 -->
<g id="edge26" class="edge"><title>ExpMem2&#45;&gt;ExpBinary3</title>
<path fill="none" stroke="black" d="M1119.25,-215.697C1119.25,-207.983 1119.25,-198.712 1119.25,-190.112"/>
<polygon fill="black" stroke="black" points="1122.75,-190.104 1119.25,-180.104 1115.75,-190.104 1122.75,-190.104"/>
</g>
<!-- ExpBinary1 -->
<g id="node9" class="node"><title>ExpBinary1</title>
<ellipse fill="none" stroke="black" cx="444.245" cy="-378" rx="53.0913" ry="18"/>
<text text-anchor="middle" x="444.245" y="-374.3" font-family="Times,serif" font-size="14.00">ExpBinary1</text>
</g>
<!-- ExpTemp1 -->
<g id="node10" class="node"><title>ExpTemp1</title>
<ellipse fill="none" stroke="black" cx="345.245" cy="-306" rx="50.0912" ry="18"/>
<text text-anchor="middle" x="345.245" y="-302.3" font-family="Times,serif" font-size="14.00">ExpTemp1</text>
</g>
<!-- ExpBinary1&#45;&gt;ExpTemp1 -->
<g id="edge7" class="edge"><title>ExpBinary1&#45;&gt;ExpTemp1</title>
<path fill="none" stroke="black" d="M422.274,-361.465C408.464,-351.7 390.463,-338.972 375.336,-328.276"/>
<polygon fill="black" stroke="black" points="377,-325.167 366.814,-322.251 372.959,-330.882 377,-325.167"/>
</g>
<!-- Plus1 -->
<g id="node11" class="node"><title>Plus1</title>
<ellipse fill="none" stroke="black" cx="444.245" cy="-306" rx="30.5947" ry="18"/>
<text text-anchor="middle" x="444.245" y="-302.3" font-family="Times,serif" font-size="14.00">Plus1</text>
</g>
<!-- ExpBinary1&#45;&gt;Plus1 -->
<g id="edge8" class="edge"><title>ExpBinary1&#45;&gt;Plus1</title>
<path fill="none" stroke="black" d="M444.245,-359.697C444.245,-351.983 444.245,-342.712 444.245,-334.112"/>
<polygon fill="black" stroke="black" points="447.745,-334.104 444.245,-324.104 440.745,-334.104 447.745,-334.104"/>
</g>
<!-- ExpCall1 -->
<g id="node12" class="node"><title>ExpCall1</title>
<ellipse fill="none" stroke="black" cx="537.245" cy="-306" rx="44.393" ry="18"/>
<text text-anchor="middle" x="537.245" y="-302.3" font-family="Times,serif" font-size="14.00">ExpCall1</text>
</g>
<!-- ExpBinary1&#45;&gt;ExpCall1 -->
<g id="edge9" class="edge"><title>ExpBinary1&#45;&gt;ExpCall1</title>
<path fill="none" stroke="black" d="M465.348,-361.116C478.219,-351.429 494.833,-338.923 508.848,-328.374"/>
<polygon fill="black" stroke="black" points="511.297,-330.912 517.182,-322.101 507.087,-325.319 511.297,-330.912"/>
</g>
<!-- Temp1: T40 -->
<g id="node21" class="node"><title>Temp1: T40</title>
<ellipse fill="none" stroke="black" cx="364.245" cy="-234" rx="55.4913" ry="18"/>
<text text-anchor="middle" x="364.245" y="-230.3" font-family="Times,serif" font-size="14.00">Temp1: T40</text>
</g>
<!-- ExpTemp1&#45;&gt;Temp1: T40 -->
<g id="edge15" class="edge"><title>ExpTemp1&#45;&gt;Temp1: T40</title>
<path fill="none" stroke="black" d="M349.844,-288.055C351.96,-280.261 354.522,-270.822 356.895,-262.079"/>
<polygon fill="black" stroke="black" points="360.314,-262.843 359.556,-252.275 353.559,-261.009 360.314,-262.843"/>
</g>
<!-- Value1: 0 -->
<g id="node34" class="node"><title>Value1: 0</title>
<ellipse fill="none" stroke="black" cx="501.245" cy="-234" rx="45.4919" ry="18"/>
<text text-anchor="middle" x="501.245" y="-230.3" font-family="Times,serif" font-size="14.00">Value1: 0</text>
</g>
<!-- ExpCall1&#45;&gt;Value1: 0 -->
<g id="edge27" class="edge"><title>ExpCall1&#45;&gt;Value1: 0</title>
<path fill="none" stroke="black" d="M528.531,-288.055C524.33,-279.887 519.2,-269.912 514.526,-260.824"/>
<polygon fill="black" stroke="black" points="517.565,-259.081 509.879,-251.789 511.34,-262.283 517.565,-259.081"/>
</g>
<!-- ExpMem0 -->
<g id="node13" class="node"><title>ExpMem0</title>
<ellipse fill="none" stroke="black" cx="274.245" cy="-378" rx="48.9926" ry="18"/>
<text text-anchor="middle" x="274.245" y="-374.3" font-family="Times,serif" font-size="14.00">ExpMem0</text>
</g>
<!-- ExpBinary0 -->
<g id="node14" class="node"><title>ExpBinary0</title>
<ellipse fill="none" stroke="black" cx="216.245" cy="-306" rx="53.0913" ry="18"/>
<text text-anchor="middle" x="216.245" y="-302.3" font-family="Times,serif" font-size="14.00">ExpBinary0</text>
</g>
<!-- ExpMem0&#45;&gt;ExpBinary0 -->
<g id="edge10" class="edge"><title>ExpMem0&#45;&gt;ExpBinary0</title>
<path fill="none" stroke="black" d="M260.5,-360.411C253.277,-351.693 244.288,-340.845 236.303,-331.208"/>
<polygon fill="black" stroke="black" points="238.967,-328.937 229.892,-323.47 233.577,-333.403 238.967,-328.937"/>
</g>
<!-- ExpTemp0 -->
<g id="node27" class="node"><title>ExpTemp0</title>
<ellipse fill="none" stroke="black" cx="55.2451" cy="-234" rx="50.0912" ry="18"/>
<text text-anchor="middle" x="55.2451" y="-230.3" font-family="Times,serif" font-size="14.00">ExpTemp0</text>
</g>
<!-- ExpBinary0&#45;&gt;ExpTemp0 -->
<g id="edge31" class="edge"><title>ExpBinary0&#45;&gt;ExpTemp0</title>
<path fill="none" stroke="black" d="M184.82,-291.337C159.198,-280.197 122.85,-264.393 95.1691,-252.358"/>
<polygon fill="black" stroke="black" points="96.3376,-249.05 85.7713,-248.272 93.5464,-255.469 96.3376,-249.05"/>
</g>
<!-- ExpCall0 -->
<g id="node32" class="node"><title>ExpCall0</title>
<ellipse fill="none" stroke="black" cx="247.245" cy="-234" rx="44.393" ry="18"/>
<text text-anchor="middle" x="247.245" y="-230.3" font-family="Times,serif" font-size="14.00">ExpCall0</text>
</g>
<!-- ExpBinary0&#45;&gt;ExpCall0 -->
<g id="edge33" class="edge"><title>ExpBinary0&#45;&gt;ExpCall0</title>
<path fill="none" stroke="black" d="M223.749,-288.055C227.329,-279.973 231.691,-270.121 235.681,-261.112"/>
<polygon fill="black" stroke="black" points="238.961,-262.35 239.81,-251.789 232.56,-259.515 238.961,-262.35"/>
</g>
<!-- Plus0 -->
<g id="node37" class="node"><title>Plus0</title>
<ellipse fill="none" stroke="black" cx="154.245" cy="-234" rx="30.5947" ry="18"/>
<text text-anchor="middle" x="154.245" y="-230.3" font-family="Times,serif" font-size="14.00">Plus0</text>
</g>
<!-- ExpBinary0&#45;&gt;Plus0 -->
<g id="edge32" class="edge"><title>ExpBinary0&#45;&gt;Plus0</title>
<path fill="none" stroke="black" d="M201.552,-288.411C193.527,-279.351 183.465,-267.99 174.686,-258.078"/>
<polygon fill="black" stroke="black" points="177.234,-255.676 167.983,-250.511 171.994,-260.317 177.234,-255.676"/>
</g>
<!-- ExpBinary2 -->
<g id="node15" class="node"><title>ExpBinary2</title>
<ellipse fill="none" stroke="black" cx="741.245" cy="-306" rx="53.0913" ry="18"/>
<text text-anchor="middle" x="741.245" y="-302.3" font-family="Times,serif" font-size="14.00">ExpBinary2</text>
</g>
<!-- ExpTemp2 -->
<g id="node16" class="node"><title>ExpTemp2</title>
<ellipse fill="none" stroke="black" cx="615.245" cy="-234" rx="50.0912" ry="18"/>
<text text-anchor="middle" x="615.245" y="-230.3" font-family="Times,serif" font-size="14.00">ExpTemp2</text>
</g>
<!-- ExpBinary2&#45;&gt;ExpTemp2 -->
<g id="edge11" class="edge"><title>ExpBinary2&#45;&gt;ExpTemp2</title>
<path fill="none" stroke="black" d="M714.831,-290.326C696.058,-279.896 670.651,-265.781 650.199,-254.419"/>
<polygon fill="black" stroke="black" points="651.634,-251.212 641.192,-249.415 648.234,-257.331 651.634,-251.212"/>
</g>
<!-- Plus2 -->
<g id="node17" class="node"><title>Plus2</title>
<ellipse fill="none" stroke="black" cx="714.245" cy="-234" rx="30.5947" ry="18"/>
<text text-anchor="middle" x="714.245" y="-230.3" font-family="Times,serif" font-size="14.00">Plus2</text>
</g>
<!-- ExpBinary2&#45;&gt;Plus2 -->
<g id="edge12" class="edge"><title>ExpBinary2&#45;&gt;Plus2</title>
<path fill="none" stroke="black" d="M734.709,-288.055C731.625,-280.059 727.873,-270.331 724.428,-261.4"/>
<polygon fill="black" stroke="black" points="727.585,-259.859 720.721,-251.789 721.054,-262.379 727.585,-259.859"/>
</g>
<!-- ExpCall2 -->
<g id="node18" class="node"><title>ExpCall2</title>
<ellipse fill="none" stroke="black" cx="807.245" cy="-234" rx="44.393" ry="18"/>
<text text-anchor="middle" x="807.245" y="-230.3" font-family="Times,serif" font-size="14.00">ExpCall2</text>
</g>
<!-- ExpBinary2&#45;&gt;ExpCall2 -->
<g id="edge13" class="edge"><title>ExpBinary2&#45;&gt;ExpCall2</title>
<path fill="none" stroke="black" d="M756.886,-288.411C765.308,-279.479 775.839,-268.31 785.09,-258.498"/>
<polygon fill="black" stroke="black" points="787.857,-260.665 792.171,-250.988 782.764,-255.863 787.857,-260.665"/>
</g>
<!-- Temp2: T40 -->
<g id="node39" class="node"><title>Temp2: T40</title>
<ellipse fill="none" stroke="black" cx="615.245" cy="-162" rx="55.4913" ry="18"/>
<text text-anchor="middle" x="615.245" y="-158.3" font-family="Times,serif" font-size="14.00">Temp2: T40</text>
</g>
<!-- ExpTemp2&#45;&gt;Temp2: T40 -->
<g id="edge36" class="edge"><title>ExpTemp2&#45;&gt;Temp2: T40</title>
<path fill="none" stroke="black" d="M615.245,-215.697C615.245,-207.983 615.245,-198.712 615.245,-190.112"/>
<polygon fill="black" stroke="black" points="618.745,-190.104 615.245,-180.104 611.745,-190.104 618.745,-190.104"/>
</g>
<!-- Value2: 8 -->
<g id="node36" class="node"><title>Value2: 8</title>
<ellipse fill="none" stroke="black" cx="807.245" cy="-162" rx="45.4919" ry="18"/>
<text text-anchor="middle" x="807.245" y="-158.3" font-family="Times,serif" font-size="14.00">Value2: 8</text>
</g>
<!-- ExpCall2&#45;&gt;Value2: 8 -->
<g id="edge30" class="edge"><title>ExpCall2&#45;&gt;Value2: 8</title>
<path fill="none" stroke="black" d="M807.245,-215.697C807.245,-207.983 807.245,-198.712 807.245,-190.112"/>
<polygon fill="black" stroke="black" points="810.745,-190.104 807.245,-180.104 803.745,-190.104 810.745,-190.104"/>
</g>
<!-- StatLabel0 -->
<g id="node19" class="node"><title>StatLabel0</title>
<ellipse fill="none" stroke="black" cx="676.245" cy="-594" rx="48.9926" ry="18"/>
<text text-anchor="middle" x="676.245" y="-590.3" font-family="Times,serif" font-size="14.00">StatLabel0</text>
</g>
<!-- Label0: Tree::Print -->
<g id="node20" class="node"><title>Label0: Tree::Print</title>
<ellipse fill="none" stroke="black" cx="661.245" cy="-522" rx="77.9862" ry="18"/>
<text text-anchor="middle" x="661.245" y="-518.3" font-family="Times,serif" font-size="14.00">Label0: Tree::Print</text>
</g>
<!-- StatLabel0&#45;&gt;Label0: Tree::Print -->
<g id="edge14" class="edge"><title>StatLabel0&#45;&gt;Label0: Tree::Print</title>
<path fill="none" stroke="black" d="M672.537,-575.697C670.884,-567.983 668.898,-558.712 667.055,-550.112"/>
<polygon fill="black" stroke="black" points="670.428,-549.149 664.91,-540.104 663.583,-550.616 670.428,-549.149"/>
</g>
<!-- ExpCall3 -->
<g id="node22" class="node"><title>ExpCall3</title>
<ellipse fill="none" stroke="black" cx="860.245" cy="-378" rx="44.393" ry="18"/>
<text text-anchor="middle" x="860.245" y="-374.3" font-family="Times,serif" font-size="14.00">ExpCall3</text>
</g>
<!-- ExpCall3&#45;&gt;ExpList0 -->
<g id="edge17" class="edge"><title>ExpCall3&#45;&gt;ExpList0</title>
<path fill="none" stroke="black" d="M893.856,-366.102C900.285,-364.051 906.967,-361.941 913.245,-360 958.86,-345.895 1011.26,-330.375 1047.33,-319.796"/>
<polygon fill="black" stroke="black" points="1048.44,-323.118 1057.06,-316.948 1046.48,-316.4 1048.44,-323.118"/>
</g>
<!-- ExpName0 -->
<g id="node23" class="node"><title>ExpName0</title>
<ellipse fill="none" stroke="black" cx="925.245" cy="-306" rx="50.8918" ry="18"/>
<text text-anchor="middle" x="925.245" y="-302.3" font-family="Times,serif" font-size="14.00">ExpName0</text>
</g>
<!-- ExpCall3&#45;&gt;ExpName0 -->
<g id="edge16" class="edge"><title>ExpCall3&#45;&gt;ExpName0</title>
<path fill="none" stroke="black" d="M875.321,-360.765C883.488,-351.969 893.74,-340.928 902.826,-331.144"/>
<polygon fill="black" stroke="black" points="905.56,-333.343 909.8,-323.633 900.43,-328.58 905.56,-333.343"/>
</g>
<!-- Label1: Tree::RecPrint -->
<g id="node41" class="node"><title>Label1: Tree::RecPrint</title>
<ellipse fill="none" stroke="black" cx="961.245" cy="-234" rx="91.784" ry="18"/>
<text text-anchor="middle" x="961.245" y="-230.3" font-family="Times,serif" font-size="14.00">Label1: Tree::RecPrint</text>
</g>
<!-- ExpName0&#45;&gt;Label1: Tree::RecPrint -->
<g id="edge40" class="edge"><title>ExpName0&#45;&gt;Label1: Tree::RecPrint</title>
<path fill="none" stroke="black" d="M933.96,-288.055C938.099,-280.007 943.14,-270.205 947.757,-261.226"/>
<polygon fill="black" stroke="black" points="950.9,-262.769 952.361,-252.275 944.675,-259.567 950.9,-262.769"/>
</g>
<!-- StatSeq0 -->
<g id="node24" class="node"><title>StatSeq0</title>
<ellipse fill="none" stroke="black" cx="737.245" cy="-666" rx="42.4939" ry="18"/>
<text text-anchor="middle" x="737.245" y="-662.3" font-family="Times,serif" font-size="14.00">StatSeq0</text>
</g>
<!-- StatSeq0&#45;&gt;StatSeq1 -->
<g id="edge19" class="edge"><title>StatSeq0&#45;&gt;StatSeq1</title>
<path fill="none" stroke="black" d="M751.625,-648.765C759.528,-639.841 769.478,-628.608 778.236,-618.719"/>
<polygon fill="black" stroke="black" points="780.933,-620.954 784.943,-611.147 775.693,-616.313 780.933,-620.954"/>
</g>
<!-- StatSeq0&#45;&gt;StatLabel0 -->
<g id="edge18" class="edge"><title>StatSeq0&#45;&gt;StatLabel0</title>
<path fill="none" stroke="black" d="M723.097,-648.765C715.508,-640.056 706.002,-629.147 697.538,-619.435"/>
<polygon fill="black" stroke="black" points="699.948,-616.873 690.74,-611.633 694.671,-621.472 699.948,-616.873"/>
</g>
<!-- ExpTemp3 -->
<g id="node25" class="node"><title>ExpTemp3</title>
<ellipse fill="none" stroke="black" cx="1020.25" cy="-90" rx="50.0912" ry="18"/>
<text text-anchor="middle" x="1020.25" y="-86.3" font-family="Times,serif" font-size="14.00">ExpTemp3</text>
</g>
<!-- Temp3: T40 -->
<g id="node26" class="node"><title>Temp3: T40</title>
<ellipse fill="none" stroke="black" cx="1020.25" cy="-18" rx="55.4913" ry="18"/>
<text text-anchor="middle" x="1020.25" y="-14.3" font-family="Times,serif" font-size="14.00">Temp3: T40</text>
</g>
<!-- ExpTemp3&#45;&gt;Temp3: T40 -->
<g id="edge20" class="edge"><title>ExpTemp3&#45;&gt;Temp3: T40</title>
<path fill="none" stroke="black" d="M1020.25,-71.6966C1020.25,-63.9827 1020.25,-54.7125 1020.25,-46.1124"/>
<polygon fill="black" stroke="black" points="1023.75,-46.1043 1020.25,-36.1043 1016.75,-46.1044 1023.75,-46.1043"/>
</g>
<!-- Temp0: T40 -->
<g id="node28" class="node"><title>Temp0: T40</title>
<ellipse fill="none" stroke="black" cx="55.2451" cy="-162" rx="55.4913" ry="18"/>
<text text-anchor="middle" x="55.2451" y="-158.3" font-family="Times,serif" font-size="14.00">Temp0: T40</text>
</g>
<!-- ExpTemp0&#45;&gt;Temp0: T40 -->
<g id="edge21" class="edge"><title>ExpTemp0&#45;&gt;Temp0: T40</title>
<path fill="none" stroke="black" d="M55.2451,-215.697C55.2451,-207.983 55.2451,-198.712 55.2451,-190.112"/>
<polygon fill="black" stroke="black" points="58.7452,-190.104 55.2451,-180.104 51.7452,-190.104 58.7452,-190.104"/>
</g>
<!-- ExpBinary3&#45;&gt;ExpTemp3 -->
<g id="edge22" class="edge"><title>ExpBinary3&#45;&gt;ExpTemp3</title>
<path fill="none" stroke="black" d="M1097.27,-145.465C1083.46,-135.7 1065.46,-122.972 1050.34,-112.276"/>
<polygon fill="black" stroke="black" points="1052,-109.167 1041.81,-106.251 1047.96,-114.882 1052,-109.167"/>
</g>
<!-- Plus3 -->
<g id="node30" class="node"><title>Plus3</title>
<ellipse fill="none" stroke="black" cx="1119.25" cy="-90" rx="30.5947" ry="18"/>
<text text-anchor="middle" x="1119.25" y="-86.3" font-family="Times,serif" font-size="14.00">Plus3</text>
</g>
<!-- ExpBinary3&#45;&gt;Plus3 -->
<g id="edge23" class="edge"><title>ExpBinary3&#45;&gt;Plus3</title>
<path fill="none" stroke="black" d="M1119.25,-143.697C1119.25,-135.983 1119.25,-126.712 1119.25,-118.112"/>
<polygon fill="black" stroke="black" points="1122.75,-118.104 1119.25,-108.104 1115.75,-118.104 1122.75,-118.104"/>
</g>
<!-- ExpCall4 -->
<g id="node31" class="node"><title>ExpCall4</title>
<ellipse fill="none" stroke="black" cx="1212.25" cy="-90" rx="44.393" ry="18"/>
<text text-anchor="middle" x="1212.25" y="-86.3" font-family="Times,serif" font-size="14.00">ExpCall4</text>
</g>
<!-- ExpBinary3&#45;&gt;ExpCall4 -->
<g id="edge24" class="edge"><title>ExpBinary3&#45;&gt;ExpCall4</title>
<path fill="none" stroke="black" d="M1140.35,-145.116C1153.22,-135.429 1169.83,-122.923 1183.85,-112.374"/>
<polygon fill="black" stroke="black" points="1186.3,-114.912 1192.18,-106.101 1182.09,-109.319 1186.3,-114.912"/>
</g>
<!-- Value3: 12 -->
<g id="node43" class="node"><title>Value3: 12</title>
<ellipse fill="none" stroke="black" cx="1212.25" cy="-18" rx="50.0912" ry="18"/>
<text text-anchor="middle" x="1212.25" y="-14.3" font-family="Times,serif" font-size="14.00">Value3: 12</text>
</g>
<!-- ExpCall4&#45;&gt;Value3: 12 -->
<g id="edge42" class="edge"><title>ExpCall4&#45;&gt;Value3: 12</title>
<path fill="none" stroke="black" d="M1212.25,-71.6966C1212.25,-63.9827 1212.25,-54.7125 1212.25,-46.1124"/>
<polygon fill="black" stroke="black" points="1215.75,-46.1043 1212.25,-36.1043 1208.75,-46.1044 1215.75,-46.1043"/>
</g>
<!-- Value0: 12 -->
<g id="node33" class="node"><title>Value0: 12</title>
<ellipse fill="none" stroke="black" cx="247.245" cy="-162" rx="50.0912" ry="18"/>
<text text-anchor="middle" x="247.245" y="-158.3" font-family="Times,serif" font-size="14.00">Value0: 12</text>
</g>
<!-- ExpCall0&#45;&gt;Value0: 12 -->
<g id="edge25" class="edge"><title>ExpCall0&#45;&gt;Value0: 12</title>
<path fill="none" stroke="black" d="M247.245,-215.697C247.245,-207.983 247.245,-198.712 247.245,-190.112"/>
<polygon fill="black" stroke="black" points="250.745,-190.104 247.245,-180.104 243.745,-190.104 250.745,-190.104"/>
</g>
<!-- StatMove0&#45;&gt;ExpBinary1 -->
<g id="edge29" class="edge"><title>StatMove0&#45;&gt;ExpBinary1</title>
<path fill="none" stroke="black" d="M444.245,-431.697C444.245,-423.983 444.245,-414.712 444.245,-406.112"/>
<polygon fill="black" stroke="black" points="447.745,-406.104 444.245,-396.104 440.745,-406.104 447.745,-406.104"/>
</g>
<!-- StatMove0&#45;&gt;ExpMem0 -->
<g id="edge28" class="edge"><title>StatMove0&#45;&gt;ExpMem0</title>
<path fill="none" stroke="black" d="M412.668,-435.998C385.115,-424.652 344.968,-408.121 314.998,-395.78"/>
<polygon fill="black" stroke="black" points="316.233,-392.504 305.653,-391.933 313.567,-398.977 316.233,-392.504"/>
</g>
<!-- StatMove1&#45;&gt;ExpCall3 -->
<g id="edge39" class="edge"><title>StatMove1&#45;&gt;ExpCall3</title>
<path fill="none" stroke="black" d="M813.701,-432.411C821.298,-423.693 830.751,-412.845 839.15,-403.208"/>
<polygon fill="black" stroke="black" points="841.962,-405.309 845.893,-395.47 836.684,-400.71 841.962,-405.309"/>
</g>
<!-- ExpMem1 -->
<g id="node40" class="node"><title>ExpMem1</title>
<ellipse fill="none" stroke="black" cx="744.245" cy="-378" rx="48.9926" ry="18"/>
<text text-anchor="middle" x="744.245" y="-374.3" font-family="Times,serif" font-size="14.00">ExpMem1</text>
</g>
<!-- StatMove1&#45;&gt;ExpMem1 -->
<g id="edge38" class="edge"><title>StatMove1&#45;&gt;ExpMem1</title>
<path fill="none" stroke="black" d="M786.211,-432.411C779.43,-423.781 771.008,-413.062 763.493,-403.497"/>
<polygon fill="black" stroke="black" points="766.116,-401.171 757.186,-395.47 760.612,-405.496 766.116,-401.171"/>
</g>
<!-- ExpMem1&#45;&gt;ExpBinary2 -->
<g id="edge37" class="edge"><title>ExpMem1&#45;&gt;ExpBinary2</title>
<path fill="none" stroke="black" d="M743.504,-359.697C743.173,-351.983 742.776,-342.712 742.407,-334.112"/>
<polygon fill="black" stroke="black" points="745.903,-333.945 741.978,-324.104 738.91,-334.245 745.903,-333.945"/>
</g>
</g>
</svg>
