<?xml version="1.0" encoding="UTF-8" standalone="no"?>
<!DOCTYPE svg PUBLIC "-//W3C//DTD SVG 1.1//EN"
 "http://www.w3.org/Graphics/SVG/1.1/DTD/svg11.dtd">
<!-- Generated by graphviz version 2.38.0 (20140413.2041)
 -->
<!-- Title: %3 Pages: 1 -->
<svg width="1365pt" height="764pt"
 viewBox="0.00 0.00 1365.19 764.00" xmlns="http://www.w3.org/2000/svg" xmlns:xlink="http://www.w3.org/1999/xlink">
<g id="graph0" class="graph" transform="scale(1 1) rotate(0) translate(4 760)">
<title>%3</title>
<polygon fill="white" stroke="none" points="-4,4 -4,-760 1361.19,-760 1361.19,4 -4,4"/>
<!-- StatMove3 -->
<g id="node1" class="node"><title>StatMove3</title>
<ellipse fill="none" stroke="black" cx="1182.7" cy="-594" rx="50.0912" ry="18"/>
<text text-anchor="middle" x="1182.7" y="-590.3" font-family="Times,serif" font-size="14.00">StatMove3</text>
</g>
<!-- ExpTemp4 -->
<g id="node2" class="node"><title>ExpTemp4</title>
<ellipse fill="none" stroke="black" cx="1182.7" cy="-522" rx="50.0912" ry="18"/>
<text text-anchor="middle" x="1182.7" y="-518.3" font-family="Times,serif" font-size="14.00">ExpTemp4</text>
</g>
<!-- StatMove3&#45;&gt;ExpTemp4 -->
<g id="edge1" class="edge"><title>StatMove3&#45;&gt;ExpTemp4</title>
<path fill="none" stroke="black" d="M1182.7,-575.697C1182.7,-567.983 1182.7,-558.712 1182.7,-550.112"/>
<polygon fill="black" stroke="black" points="1186.2,-550.104 1182.7,-540.104 1179.2,-550.104 1186.2,-550.104"/>
</g>
<!-- ExpCall9 -->
<g id="node3" class="node"><title>ExpCall9</title>
<ellipse fill="none" stroke="black" cx="1302.7" cy="-522" rx="44.393" ry="18"/>
<text text-anchor="middle" x="1302.7" y="-518.3" font-family="Times,serif" font-size="14.00">ExpCall9</text>
</g>
<!-- StatMove3&#45;&gt;ExpCall9 -->
<g id="edge2" class="edge"><title>StatMove3&#45;&gt;ExpCall9</title>
<path fill="none" stroke="black" d="M1207.85,-578.326C1225.77,-567.874 1250.03,-553.721 1269.53,-542.346"/>
<polygon fill="black" stroke="black" points="1271.52,-545.239 1278.39,-537.177 1267.99,-539.192 1271.52,-545.239"/>
</g>
<!-- Temp4: RetVal -->
<g id="node4" class="node"><title>Temp4: RetVal</title>
<ellipse fill="none" stroke="black" cx="1182.7" cy="-450" rx="65.7887" ry="18"/>
<text text-anchor="middle" x="1182.7" y="-446.3" font-family="Times,serif" font-size="14.00">Temp4: RetVal</text>
</g>
<!-- ExpTemp4&#45;&gt;Temp4: RetVal -->
<g id="edge3" class="edge"><title>ExpTemp4&#45;&gt;Temp4: RetVal</title>
<path fill="none" stroke="black" d="M1182.7,-503.697C1182.7,-495.983 1182.7,-486.712 1182.7,-478.112"/>
<polygon fill="black" stroke="black" points="1186.2,-478.104 1182.7,-468.104 1179.2,-478.104 1186.2,-478.104"/>
</g>
<!-- Value9: 1 -->
<g id="node37" class="node"><title>Value9: 1</title>
<ellipse fill="none" stroke="black" cx="1311.7" cy="-450" rx="45.4919" ry="18"/>
<text text-anchor="middle" x="1311.7" y="-446.3" font-family="Times,serif" font-size="14.00">Value9: 1</text>
</g>
<!-- ExpCall9&#45;&gt;Value9: 1 -->
<g id="edge31" class="edge"><title>ExpCall9&#45;&gt;Value9: 1</title>
<path fill="none" stroke="black" d="M1304.92,-503.697C1305.91,-495.983 1307.1,-486.712 1308.21,-478.112"/>
<polygon fill="black" stroke="black" points="1311.69,-478.469 1309.5,-468.104 1304.75,-477.576 1311.69,-478.469"/>
</g>
<!-- StatSeq1 -->
<g id="node5" class="node"><title>StatSeq1</title>
<ellipse fill="none" stroke="black" cx="989.696" cy="-666" rx="42.4939" ry="18"/>
<text text-anchor="middle" x="989.696" y="-662.3" font-family="Times,serif" font-size="14.00">StatSeq1</text>
</g>
<!-- StatSeq1&#45;&gt;StatMove3 -->
<g id="edge5" class="edge"><title>StatSeq1&#45;&gt;StatMove3</title>
<path fill="none" stroke="black" d="M1020.7,-653.753C1052.75,-642.131 1103.03,-623.892 1139.08,-610.819"/>
<polygon fill="black" stroke="black" points="1140.63,-613.979 1148.84,-607.279 1138.25,-607.398 1140.63,-613.979"/>
</g>
<!-- StatSeq2 -->
<g id="node6" class="node"><title>StatSeq2</title>
<ellipse fill="none" stroke="black" cx="989.696" cy="-594" rx="42.4939" ry="18"/>
<text text-anchor="middle" x="989.696" y="-590.3" font-family="Times,serif" font-size="14.00">StatSeq2</text>
</g>
<!-- StatSeq1&#45;&gt;StatSeq2 -->
<g id="edge4" class="edge"><title>StatSeq1&#45;&gt;StatSeq2</title>
<path fill="none" stroke="black" d="M989.696,-647.697C989.696,-639.983 989.696,-630.712 989.696,-622.112"/>
<polygon fill="black" stroke="black" points="993.196,-622.104 989.696,-612.104 986.196,-622.104 993.196,-622.104"/>
</g>
<!-- StatSeq3 -->
<g id="node17" class="node"><title>StatSeq3</title>
<ellipse fill="none" stroke="black" cx="989.696" cy="-522" rx="42.4939" ry="18"/>
<text text-anchor="middle" x="989.696" y="-518.3" font-family="Times,serif" font-size="14.00">StatSeq3</text>
</g>
<!-- StatSeq2&#45;&gt;StatSeq3 -->
<g id="edge49" class="edge"><title>StatSeq2&#45;&gt;StatSeq3</title>
<path fill="none" stroke="black" d="M989.696,-575.697C989.696,-567.983 989.696,-558.712 989.696,-550.112"/>
<polygon fill="black" stroke="black" points="993.196,-550.104 989.696,-540.104 986.196,-550.104 993.196,-550.104"/>
</g>
<!-- StatMove0 -->
<g id="node21" class="node"><title>StatMove0</title>
<ellipse fill="none" stroke="black" cx="551.696" cy="-522" rx="50.0912" ry="18"/>
<text text-anchor="middle" x="551.696" y="-518.3" font-family="Times,serif" font-size="14.00">StatMove0</text>
</g>
<!-- StatSeq2&#45;&gt;StatMove0 -->
<g id="edge48" class="edge"><title>StatSeq2&#45;&gt;StatMove0</title>
<path fill="none" stroke="black" d="M958.327,-581.743C951.584,-579.606 944.452,-577.555 937.696,-576 823.269,-549.665 686.547,-534.676 610.375,-527.754"/>
<polygon fill="black" stroke="black" points="610.31,-524.234 600.038,-526.83 609.687,-531.206 610.31,-524.234"/>
</g>
<!-- StatMove2 -->
<g id="node7" class="node"><title>StatMove2</title>
<ellipse fill="none" stroke="black" cx="1048.7" cy="-450" rx="50.0912" ry="18"/>
<text text-anchor="middle" x="1048.7" y="-446.3" font-family="Times,serif" font-size="14.00">StatMove2</text>
</g>
<!-- ExpMem5 -->
<g id="node8" class="node"><title>ExpMem5</title>
<ellipse fill="none" stroke="black" cx="1048.7" cy="-378" rx="48.9926" ry="18"/>
<text text-anchor="middle" x="1048.7" y="-374.3" font-family="Times,serif" font-size="14.00">ExpMem5</text>
</g>
<!-- StatMove2&#45;&gt;ExpMem5 -->
<g id="edge6" class="edge"><title>StatMove2&#45;&gt;ExpMem5</title>
<path fill="none" stroke="black" d="M1048.7,-431.697C1048.7,-423.983 1048.7,-414.712 1048.7,-406.112"/>
<polygon fill="black" stroke="black" points="1052.2,-406.104 1048.7,-396.104 1045.2,-406.104 1052.2,-406.104"/>
</g>
<!-- ExpCall8 -->
<g id="node9" class="node"><title>ExpCall8</title>
<ellipse fill="none" stroke="black" cx="1162.7" cy="-378" rx="44.393" ry="18"/>
<text text-anchor="middle" x="1162.7" y="-374.3" font-family="Times,serif" font-size="14.00">ExpCall8</text>
</g>
<!-- StatMove2&#45;&gt;ExpCall8 -->
<g id="edge7" class="edge"><title>StatMove2&#45;&gt;ExpCall8</title>
<path fill="none" stroke="black" d="M1072.87,-434.155C1089.72,-423.808 1112.38,-409.897 1130.72,-398.634"/>
<polygon fill="black" stroke="black" points="1132.64,-401.56 1139.33,-393.345 1128.98,-395.595 1132.64,-401.56"/>
</g>
<!-- ExpBinary5 -->
<g id="node10" class="node"><title>ExpBinary5</title>
<ellipse fill="none" stroke="black" cx="1048.7" cy="-306" rx="53.0913" ry="18"/>
<text text-anchor="middle" x="1048.7" y="-302.3" font-family="Times,serif" font-size="14.00">ExpBinary5</text>
</g>
<!-- ExpMem5&#45;&gt;ExpBinary5 -->
<g id="edge15" class="edge"><title>ExpMem5&#45;&gt;ExpBinary5</title>
<path fill="none" stroke="black" d="M1048.7,-359.697C1048.7,-351.983 1048.7,-342.712 1048.7,-334.112"/>
<polygon fill="black" stroke="black" points="1052.2,-334.104 1048.7,-324.104 1045.2,-334.104 1052.2,-334.104"/>
</g>
<!-- Value8: 0 -->
<g id="node32" class="node"><title>Value8: 0</title>
<ellipse fill="none" stroke="black" cx="1165.7" cy="-306" rx="45.4919" ry="18"/>
<text text-anchor="middle" x="1165.7" y="-302.3" font-family="Times,serif" font-size="14.00">Value8: 0</text>
</g>
<!-- ExpCall8&#45;&gt;Value8: 0 -->
<g id="edge27" class="edge"><title>ExpCall8&#45;&gt;Value8: 0</title>
<path fill="none" stroke="black" d="M1163.44,-359.697C1163.77,-351.983 1164.16,-342.712 1164.53,-334.112"/>
<polygon fill="black" stroke="black" points="1168.03,-334.245 1164.96,-324.104 1161.04,-333.945 1168.03,-334.245"/>
</g>
<!-- ExpMem6 -->
<g id="node11" class="node"><title>ExpMem6</title>
<ellipse fill="none" stroke="black" cx="1020.7" cy="-234" rx="48.9926" ry="18"/>
<text text-anchor="middle" x="1020.7" y="-230.3" font-family="Times,serif" font-size="14.00">ExpMem6</text>
</g>
<!-- ExpBinary5&#45;&gt;ExpMem6 -->
<g id="edge8" class="edge"><title>ExpBinary5&#45;&gt;ExpMem6</title>
<path fill="none" stroke="black" d="M1041.92,-288.055C1038.77,-280.176 1034.94,-270.617 1031.41,-261.794"/>
<polygon fill="black" stroke="black" points="1034.57,-260.26 1027.61,-252.275 1028.07,-262.86 1034.57,-260.26"/>
</g>
<!-- Plus6 -->
<g id="node12" class="node"><title>Plus6</title>
<ellipse fill="none" stroke="black" cx="1117.7" cy="-234" rx="30.5947" ry="18"/>
<text text-anchor="middle" x="1117.7" y="-230.3" font-family="Times,serif" font-size="14.00">Plus6</text>
</g>
<!-- ExpBinary5&#45;&gt;Plus6 -->
<g id="edge9" class="edge"><title>ExpBinary5&#45;&gt;Plus6</title>
<path fill="none" stroke="black" d="M1064.7,-288.765C1073.84,-279.496 1085.43,-267.734 1095.44,-257.576"/>
<polygon fill="black" stroke="black" points="1098.2,-259.768 1102.72,-250.189 1093.21,-254.854 1098.2,-259.768"/>
</g>
<!-- ExpCall7 -->
<g id="node13" class="node"><title>ExpCall7</title>
<ellipse fill="none" stroke="black" cx="1210.7" cy="-234" rx="44.393" ry="18"/>
<text text-anchor="middle" x="1210.7" y="-230.3" font-family="Times,serif" font-size="14.00">ExpCall7</text>
</g>
<!-- ExpBinary5&#45;&gt;ExpCall7 -->
<g id="edge10" class="edge"><title>ExpBinary5&#45;&gt;ExpCall7</title>
<path fill="none" stroke="black" d="M1080.32,-291.337C1106.59,-279.983 1144.08,-263.786 1172.12,-251.67"/>
<polygon fill="black" stroke="black" points="1173.81,-254.749 1181.61,-247.57 1171.04,-248.324 1173.81,-254.749"/>
</g>
<!-- ExpBinary6 -->
<g id="node14" class="node"><title>ExpBinary6</title>
<ellipse fill="none" stroke="black" cx="1023.7" cy="-162" rx="53.0913" ry="18"/>
<text text-anchor="middle" x="1023.7" y="-158.3" font-family="Times,serif" font-size="14.00">ExpBinary6</text>
</g>
<!-- ExpMem6&#45;&gt;ExpBinary6 -->
<g id="edge11" class="edge"><title>ExpMem6&#45;&gt;ExpBinary6</title>
<path fill="none" stroke="black" d="M1021.44,-215.697C1021.77,-207.983 1022.16,-198.712 1022.53,-190.112"/>
<polygon fill="black" stroke="black" points="1026.03,-190.245 1022.96,-180.104 1019.04,-189.945 1026.03,-190.245"/>
</g>
<!-- Value7: 12 -->
<g id="node24" class="node"><title>Value7: 12</title>
<ellipse fill="none" stroke="black" cx="1210.7" cy="-162" rx="50.0912" ry="18"/>
<text text-anchor="middle" x="1210.7" y="-158.3" font-family="Times,serif" font-size="14.00">Value7: 12</text>
</g>
<!-- ExpCall7&#45;&gt;Value7: 12 -->
<g id="edge20" class="edge"><title>ExpCall7&#45;&gt;Value7: 12</title>
<path fill="none" stroke="black" d="M1210.7,-215.697C1210.7,-207.983 1210.7,-198.712 1210.7,-190.112"/>
<polygon fill="black" stroke="black" points="1214.2,-190.104 1210.7,-180.104 1207.2,-190.104 1214.2,-190.104"/>
</g>
<!-- ExpTemp3 -->
<g id="node15" class="node"><title>ExpTemp3</title>
<ellipse fill="none" stroke="black" cx="924.696" cy="-90" rx="50.0912" ry="18"/>
<text text-anchor="middle" x="924.696" y="-86.3" font-family="Times,serif" font-size="14.00">ExpTemp3</text>
</g>
<!-- ExpBinary6&#45;&gt;ExpTemp3 -->
<g id="edge23" class="edge"><title>ExpBinary6&#45;&gt;ExpTemp3</title>
<path fill="none" stroke="black" d="M1001.72,-145.465C987.915,-135.7 969.914,-122.972 954.786,-112.276"/>
<polygon fill="black" stroke="black" points="956.451,-109.167 946.265,-106.251 952.409,-114.882 956.451,-109.167"/>
</g>
<!-- Plus5 -->
<g id="node29" class="node"><title>Plus5</title>
<ellipse fill="none" stroke="black" cx="1023.7" cy="-90" rx="30.5947" ry="18"/>
<text text-anchor="middle" x="1023.7" y="-86.3" font-family="Times,serif" font-size="14.00">Plus5</text>
</g>
<!-- ExpBinary6&#45;&gt;Plus5 -->
<g id="edge24" class="edge"><title>ExpBinary6&#45;&gt;Plus5</title>
<path fill="none" stroke="black" d="M1023.7,-143.697C1023.7,-135.983 1023.7,-126.712 1023.7,-118.112"/>
<polygon fill="black" stroke="black" points="1027.2,-118.104 1023.7,-108.104 1020.2,-118.104 1027.2,-118.104"/>
</g>
<!-- ExpCall6 -->
<g id="node30" class="node"><title>ExpCall6</title>
<ellipse fill="none" stroke="black" cx="1116.7" cy="-90" rx="44.393" ry="18"/>
<text text-anchor="middle" x="1116.7" y="-86.3" font-family="Times,serif" font-size="14.00">ExpCall6</text>
</g>
<!-- ExpBinary6&#45;&gt;ExpCall6 -->
<g id="edge25" class="edge"><title>ExpBinary6&#45;&gt;ExpCall6</title>
<path fill="none" stroke="black" d="M1044.8,-145.116C1057.67,-135.429 1074.28,-122.923 1088.3,-112.374"/>
<polygon fill="black" stroke="black" points="1090.75,-114.912 1096.63,-106.101 1086.54,-109.319 1090.75,-114.912"/>
</g>
<!-- Temp3: FP -->
<g id="node16" class="node"><title>Temp3: FP</title>
<ellipse fill="none" stroke="black" cx="924.696" cy="-18" rx="50.8918" ry="18"/>
<text text-anchor="middle" x="924.696" y="-14.3" font-family="Times,serif" font-size="14.00">Temp3: FP</text>
</g>
<!-- ExpTemp3&#45;&gt;Temp3: FP -->
<g id="edge12" class="edge"><title>ExpTemp3&#45;&gt;Temp3: FP</title>
<path fill="none" stroke="black" d="M924.696,-71.6966C924.696,-63.9827 924.696,-54.7125 924.696,-46.1124"/>
<polygon fill="black" stroke="black" points="928.196,-46.1043 924.696,-36.1043 921.196,-46.1044 928.196,-46.1043"/>
</g>
<!-- StatSeq3&#45;&gt;StatMove2 -->
<g id="edge14" class="edge"><title>StatSeq3&#45;&gt;StatMove2</title>
<path fill="none" stroke="black" d="M1003.38,-504.765C1010.72,-496.056 1019.91,-485.147 1028.1,-475.435"/>
<polygon fill="black" stroke="black" points="1030.91,-477.535 1034.68,-467.633 1025.55,-473.024 1030.91,-477.535"/>
</g>
<!-- StatMove1 -->
<g id="node18" class="node"><title>StatMove1</title>
<ellipse fill="none" stroke="black" cx="930.696" cy="-450" rx="50.0912" ry="18"/>
<text text-anchor="middle" x="930.696" y="-446.3" font-family="Times,serif" font-size="14.00">StatMove1</text>
</g>
<!-- StatSeq3&#45;&gt;StatMove1 -->
<g id="edge13" class="edge"><title>StatSeq3&#45;&gt;StatMove1</title>
<path fill="none" stroke="black" d="M976.011,-504.765C968.671,-496.056 959.476,-485.147 951.291,-475.435"/>
<polygon fill="black" stroke="black" points="953.836,-473.024 944.715,-467.633 948.484,-477.535 953.836,-473.024"/>
</g>
<!-- ExpMem3 -->
<g id="node19" class="node"><title>ExpMem3</title>
<ellipse fill="none" stroke="black" cx="817.696" cy="-378" rx="48.9926" ry="18"/>
<text text-anchor="middle" x="817.696" y="-374.3" font-family="Times,serif" font-size="14.00">ExpMem3</text>
</g>
<!-- StatMove1&#45;&gt;ExpMem3 -->
<g id="edge16" class="edge"><title>StatMove1&#45;&gt;ExpMem3</title>
<path fill="none" stroke="black" d="M906.731,-434.155C890.401,-424.039 868.571,-410.515 850.613,-399.391"/>
<polygon fill="black" stroke="black" points="851.97,-396.115 841.625,-393.824 848.283,-402.065 851.97,-396.115"/>
</g>
<!-- ExpCall5 -->
<g id="node20" class="node"><title>ExpCall5</title>
<ellipse fill="none" stroke="black" cx="931.696" cy="-378" rx="44.393" ry="18"/>
<text text-anchor="middle" x="931.696" y="-374.3" font-family="Times,serif" font-size="14.00">ExpCall5</text>
</g>
<!-- StatMove1&#45;&gt;ExpCall5 -->
<g id="edge17" class="edge"><title>StatMove1&#45;&gt;ExpCall5</title>
<path fill="none" stroke="black" d="M930.943,-431.697C931.053,-423.983 931.185,-414.712 931.308,-406.112"/>
<polygon fill="black" stroke="black" points="934.808,-406.153 931.451,-396.104 927.809,-406.053 934.808,-406.153"/>
</g>
<!-- ExpBinary3 -->
<g id="node38" class="node"><title>ExpBinary3</title>
<ellipse fill="none" stroke="black" cx="814.696" cy="-306" rx="53.0913" ry="18"/>
<text text-anchor="middle" x="814.696" y="-302.3" font-family="Times,serif" font-size="14.00">ExpBinary3</text>
</g>
<!-- ExpMem3&#45;&gt;ExpBinary3 -->
<g id="edge32" class="edge"><title>ExpMem3&#45;&gt;ExpBinary3</title>
<path fill="none" stroke="black" d="M816.954,-359.697C816.623,-351.983 816.226,-342.712 815.857,-334.112"/>
<polygon fill="black" stroke="black" points="819.354,-333.945 815.429,-324.104 812.36,-334.245 819.354,-333.945"/>
</g>
<!-- Value5: 0 -->
<g id="node60" class="node"><title>Value5: 0</title>
<ellipse fill="none" stroke="black" cx="931.696" cy="-306" rx="45.4919" ry="18"/>
<text text-anchor="middle" x="931.696" y="-302.3" font-family="Times,serif" font-size="14.00">Value5: 0</text>
</g>
<!-- ExpCall5&#45;&gt;Value5: 0 -->
<g id="edge59" class="edge"><title>ExpCall5&#45;&gt;Value5: 0</title>
<path fill="none" stroke="black" d="M931.696,-359.697C931.696,-351.983 931.696,-342.712 931.696,-334.112"/>
<polygon fill="black" stroke="black" points="935.196,-334.104 931.696,-324.104 928.196,-334.104 935.196,-334.104"/>
</g>
<!-- ExpMem0 -->
<g id="node22" class="node"><title>ExpMem0</title>
<ellipse fill="none" stroke="black" cx="341.696" cy="-450" rx="48.9926" ry="18"/>
<text text-anchor="middle" x="341.696" y="-446.3" font-family="Times,serif" font-size="14.00">ExpMem0</text>
</g>
<!-- StatMove0&#45;&gt;ExpMem0 -->
<g id="edge18" class="edge"><title>StatMove0&#45;&gt;ExpMem0</title>
<path fill="none" stroke="black" d="M516.072,-509.125C480.408,-497.238 425.417,-478.907 386.744,-466.016"/>
<polygon fill="black" stroke="black" points="387.387,-462.541 376.793,-462.699 385.173,-469.182 387.387,-462.541"/>
</g>
<!-- ExpMem2 -->
<g id="node23" class="node"><title>ExpMem2</title>
<ellipse fill="none" stroke="black" cx="551.696" cy="-450" rx="48.9926" ry="18"/>
<text text-anchor="middle" x="551.696" y="-446.3" font-family="Times,serif" font-size="14.00">ExpMem2</text>
</g>
<!-- StatMove0&#45;&gt;ExpMem2 -->
<g id="edge19" class="edge"><title>StatMove0&#45;&gt;ExpMem2</title>
<path fill="none" stroke="black" d="M551.696,-503.697C551.696,-495.983 551.696,-486.712 551.696,-478.112"/>
<polygon fill="black" stroke="black" points="555.196,-478.104 551.696,-468.104 548.196,-478.104 555.196,-478.104"/>
</g>
<!-- ExpBinary0 -->
<g id="node31" class="node"><title>ExpBinary0</title>
<ellipse fill="none" stroke="black" cx="293.696" cy="-378" rx="53.0913" ry="18"/>
<text text-anchor="middle" x="293.696" y="-374.3" font-family="Times,serif" font-size="14.00">ExpBinary0</text>
</g>
<!-- ExpMem0&#45;&gt;ExpBinary0 -->
<g id="edge26" class="edge"><title>ExpMem0&#45;&gt;ExpBinary0</title>
<path fill="none" stroke="black" d="M330.32,-432.411C324.606,-424.077 317.556,-413.797 311.173,-404.488"/>
<polygon fill="black" stroke="black" points="313.865,-402.224 305.323,-395.956 308.091,-406.183 313.865,-402.224"/>
</g>
<!-- ExpBinary2 -->
<g id="node40" class="node"><title>ExpBinary2</title>
<ellipse fill="none" stroke="black" cx="551.696" cy="-378" rx="53.0913" ry="18"/>
<text text-anchor="middle" x="551.696" y="-374.3" font-family="Times,serif" font-size="14.00">ExpBinary2</text>
</g>
<!-- ExpMem2&#45;&gt;ExpBinary2 -->
<g id="edge40" class="edge"><title>ExpMem2&#45;&gt;ExpBinary2</title>
<path fill="none" stroke="black" d="M551.696,-431.697C551.696,-423.983 551.696,-414.712 551.696,-406.112"/>
<polygon fill="black" stroke="black" points="555.196,-406.104 551.696,-396.104 548.196,-406.104 555.196,-406.104"/>
</g>
<!-- ExpCall2 -->
<g id="node25" class="node"><title>ExpCall2</title>
<ellipse fill="none" stroke="black" cx="644.696" cy="-306" rx="44.393" ry="18"/>
<text text-anchor="middle" x="644.696" y="-302.3" font-family="Times,serif" font-size="14.00">ExpCall2</text>
</g>
<!-- Value2: 4 -->
<g id="node26" class="node"><title>Value2: 4</title>
<ellipse fill="none" stroke="black" cx="605.696" cy="-234" rx="45.4919" ry="18"/>
<text text-anchor="middle" x="605.696" y="-230.3" font-family="Times,serif" font-size="14.00">Value2: 4</text>
</g>
<!-- ExpCall2&#45;&gt;Value2: 4 -->
<g id="edge21" class="edge"><title>ExpCall2&#45;&gt;Value2: 4</title>
<path fill="none" stroke="black" d="M635.255,-288.055C630.656,-279.801 625.029,-269.701 619.924,-260.538"/>
<polygon fill="black" stroke="black" points="622.974,-258.821 615.049,-251.789 616.859,-262.228 622.974,-258.821"/>
</g>
<!-- ExpCall1 -->
<g id="node27" class="node"><title>ExpCall1</title>
<ellipse fill="none" stroke="black" cx="339.696" cy="-306" rx="44.393" ry="18"/>
<text text-anchor="middle" x="339.696" y="-302.3" font-family="Times,serif" font-size="14.00">ExpCall1</text>
</g>
<!-- Value1: 4 -->
<g id="node28" class="node"><title>Value1: 4</title>
<ellipse fill="none" stroke="black" cx="338.696" cy="-234" rx="45.4919" ry="18"/>
<text text-anchor="middle" x="338.696" y="-230.3" font-family="Times,serif" font-size="14.00">Value1: 4</text>
</g>
<!-- ExpCall1&#45;&gt;Value1: 4 -->
<g id="edge22" class="edge"><title>ExpCall1&#45;&gt;Value1: 4</title>
<path fill="none" stroke="black" d="M339.448,-287.697C339.338,-279.983 339.206,-270.712 339.083,-262.112"/>
<polygon fill="black" stroke="black" points="342.582,-262.053 338.94,-252.104 335.583,-262.153 342.582,-262.053"/>
</g>
<!-- Value6: 0 -->
<g id="node56" class="node"><title>Value6: 0</title>
<ellipse fill="none" stroke="black" cx="1116.7" cy="-18" rx="45.4919" ry="18"/>
<text text-anchor="middle" x="1116.7" y="-14.3" font-family="Times,serif" font-size="14.00">Value6: 0</text>
</g>
<!-- ExpCall6&#45;&gt;Value6: 0 -->
<g id="edge51" class="edge"><title>ExpCall6&#45;&gt;Value6: 0</title>
<path fill="none" stroke="black" d="M1116.7,-71.6966C1116.7,-63.9827 1116.7,-54.7125 1116.7,-46.1124"/>
<polygon fill="black" stroke="black" points="1120.2,-46.1043 1116.7,-36.1043 1113.2,-46.1044 1120.2,-46.1043"/>
</g>
<!-- ExpBinary0&#45;&gt;ExpCall1 -->
<g id="edge57" class="edge"><title>ExpBinary0&#45;&gt;ExpCall1</title>
<path fill="none" stroke="black" d="M304.831,-360.055C310.312,-351.715 317.03,-341.491 323.102,-332.252"/>
<polygon fill="black" stroke="black" points="326.096,-334.068 328.663,-323.789 320.246,-330.224 326.096,-334.068"/>
</g>
<!-- ExpMem1 -->
<g id="node39" class="node"><title>ExpMem1</title>
<ellipse fill="none" stroke="black" cx="149.696" cy="-306" rx="48.9926" ry="18"/>
<text text-anchor="middle" x="149.696" y="-302.3" font-family="Times,serif" font-size="14.00">ExpMem1</text>
</g>
<!-- ExpBinary0&#45;&gt;ExpMem1 -->
<g id="edge55" class="edge"><title>ExpBinary0&#45;&gt;ExpMem1</title>
<path fill="none" stroke="black" d="M264.555,-362.834C242.354,-352.042 211.606,-337.095 187.51,-325.382"/>
<polygon fill="black" stroke="black" points="188.825,-322.13 178.301,-320.906 185.765,-328.425 188.825,-322.13"/>
</g>
<!-- Plus1 -->
<g id="node59" class="node"><title>Plus1</title>
<ellipse fill="none" stroke="black" cx="246.696" cy="-306" rx="30.5947" ry="18"/>
<text text-anchor="middle" x="246.696" y="-302.3" font-family="Times,serif" font-size="14.00">Plus1</text>
</g>
<!-- ExpBinary0&#45;&gt;Plus1 -->
<g id="edge56" class="edge"><title>ExpBinary0&#45;&gt;Plus1</title>
<path fill="none" stroke="black" d="M282.318,-360.055C276.636,-351.592 269.651,-341.19 263.377,-331.845"/>
<polygon fill="black" stroke="black" points="266.125,-329.658 257.644,-323.307 260.313,-333.56 266.125,-329.658"/>
</g>
<!-- ExpBinary1 -->
<g id="node33" class="node"><title>ExpBinary1</title>
<ellipse fill="none" stroke="black" cx="149.696" cy="-234" rx="53.0913" ry="18"/>
<text text-anchor="middle" x="149.696" y="-230.3" font-family="Times,serif" font-size="14.00">ExpBinary1</text>
</g>
<!-- ExpTemp0 -->
<g id="node34" class="node"><title>ExpTemp0</title>
<ellipse fill="none" stroke="black" cx="50.6955" cy="-162" rx="50.0912" ry="18"/>
<text text-anchor="middle" x="50.6955" y="-158.3" font-family="Times,serif" font-size="14.00">ExpTemp0</text>
</g>
<!-- ExpBinary1&#45;&gt;ExpTemp0 -->
<g id="edge28" class="edge"><title>ExpBinary1&#45;&gt;ExpTemp0</title>
<path fill="none" stroke="black" d="M127.724,-217.465C113.915,-207.7 95.9136,-194.972 80.7861,-184.276"/>
<polygon fill="black" stroke="black" points="82.4506,-181.167 72.2648,-178.251 78.4092,-186.882 82.4506,-181.167"/>
</g>
<!-- Plus0 -->
<g id="node35" class="node"><title>Plus0</title>
<ellipse fill="none" stroke="black" cx="149.696" cy="-162" rx="30.5947" ry="18"/>
<text text-anchor="middle" x="149.696" y="-158.3" font-family="Times,serif" font-size="14.00">Plus0</text>
</g>
<!-- ExpBinary1&#45;&gt;Plus0 -->
<g id="edge29" class="edge"><title>ExpBinary1&#45;&gt;Plus0</title>
<path fill="none" stroke="black" d="M149.696,-215.697C149.696,-207.983 149.696,-198.712 149.696,-190.112"/>
<polygon fill="black" stroke="black" points="153.196,-190.104 149.696,-180.104 146.196,-190.104 153.196,-190.104"/>
</g>
<!-- ExpCall0 -->
<g id="node36" class="node"><title>ExpCall0</title>
<ellipse fill="none" stroke="black" cx="242.696" cy="-162" rx="44.393" ry="18"/>
<text text-anchor="middle" x="242.696" y="-158.3" font-family="Times,serif" font-size="14.00">ExpCall0</text>
</g>
<!-- ExpBinary1&#45;&gt;ExpCall0 -->
<g id="edge30" class="edge"><title>ExpBinary1&#45;&gt;ExpCall0</title>
<path fill="none" stroke="black" d="M170.799,-217.116C183.669,-207.429 200.284,-194.923 214.299,-184.374"/>
<polygon fill="black" stroke="black" points="216.747,-186.912 222.632,-178.101 212.538,-181.319 216.747,-186.912"/>
</g>
<!-- Temp0: FP -->
<g id="node45" class="node"><title>Temp0: FP</title>
<ellipse fill="none" stroke="black" cx="50.6955" cy="-90" rx="50.8918" ry="18"/>
<text text-anchor="middle" x="50.6955" y="-86.3" font-family="Times,serif" font-size="14.00">Temp0: FP</text>
</g>
<!-- ExpTemp0&#45;&gt;Temp0: FP -->
<g id="edge38" class="edge"><title>ExpTemp0&#45;&gt;Temp0: FP</title>
<path fill="none" stroke="black" d="M50.6955,-143.697C50.6955,-135.983 50.6955,-126.712 50.6955,-118.112"/>
<polygon fill="black" stroke="black" points="54.1956,-118.104 50.6955,-108.104 47.1956,-118.104 54.1956,-118.104"/>
</g>
<!-- Value0: 0 -->
<g id="node46" class="node"><title>Value0: 0</title>
<ellipse fill="none" stroke="black" cx="242.696" cy="-90" rx="45.4919" ry="18"/>
<text text-anchor="middle" x="242.696" y="-86.3" font-family="Times,serif" font-size="14.00">Value0: 0</text>
</g>
<!-- ExpCall0&#45;&gt;Value0: 0 -->
<g id="edge39" class="edge"><title>ExpCall0&#45;&gt;Value0: 0</title>
<path fill="none" stroke="black" d="M242.696,-143.697C242.696,-135.983 242.696,-126.712 242.696,-118.112"/>
<polygon fill="black" stroke="black" points="246.196,-118.104 242.696,-108.104 239.196,-118.104 246.196,-118.104"/>
</g>
<!-- ExpMem4 -->
<g id="node47" class="node"><title>ExpMem4</title>
<ellipse fill="none" stroke="black" cx="717.696" cy="-234" rx="48.9926" ry="18"/>
<text text-anchor="middle" x="717.696" y="-230.3" font-family="Times,serif" font-size="14.00">ExpMem4</text>
</g>
<!-- ExpBinary3&#45;&gt;ExpMem4 -->
<g id="edge41" class="edge"><title>ExpBinary3&#45;&gt;ExpMem4</title>
<path fill="none" stroke="black" d="M793.168,-289.465C779.637,-279.7 762,-266.972 747.178,-256.276"/>
<polygon fill="black" stroke="black" points="748.986,-253.265 738.829,-250.251 744.89,-258.941 748.986,-253.265"/>
</g>
<!-- Plus4 -->
<g id="node48" class="node"><title>Plus4</title>
<ellipse fill="none" stroke="black" cx="814.696" cy="-234" rx="30.5947" ry="18"/>
<text text-anchor="middle" x="814.696" y="-230.3" font-family="Times,serif" font-size="14.00">Plus4</text>
</g>
<!-- ExpBinary3&#45;&gt;Plus4 -->
<g id="edge42" class="edge"><title>ExpBinary3&#45;&gt;Plus4</title>
<path fill="none" stroke="black" d="M814.696,-287.697C814.696,-279.983 814.696,-270.712 814.696,-262.112"/>
<polygon fill="black" stroke="black" points="818.196,-262.104 814.696,-252.104 811.196,-262.104 818.196,-262.104"/>
</g>
<!-- ExpCall4 -->
<g id="node49" class="node"><title>ExpCall4</title>
<ellipse fill="none" stroke="black" cx="907.696" cy="-234" rx="44.393" ry="18"/>
<text text-anchor="middle" x="907.696" y="-230.3" font-family="Times,serif" font-size="14.00">ExpCall4</text>
</g>
<!-- ExpBinary3&#45;&gt;ExpCall4 -->
<g id="edge43" class="edge"><title>ExpBinary3&#45;&gt;ExpCall4</title>
<path fill="none" stroke="black" d="M835.799,-289.116C848.669,-279.429 865.284,-266.923 879.299,-256.374"/>
<polygon fill="black" stroke="black" points="881.747,-258.912 887.632,-250.101 877.538,-253.319 881.747,-258.912"/>
</g>
<!-- ExpMem1&#45;&gt;ExpBinary1 -->
<g id="edge33" class="edge"><title>ExpMem1&#45;&gt;ExpBinary1</title>
<path fill="none" stroke="black" d="M149.696,-287.697C149.696,-279.983 149.696,-270.712 149.696,-262.112"/>
<polygon fill="black" stroke="black" points="153.196,-262.104 149.696,-252.104 146.196,-262.104 153.196,-262.104"/>
</g>
<!-- ExpBinary2&#45;&gt;ExpCall2 -->
<g id="edge36" class="edge"><title>ExpBinary2&#45;&gt;ExpCall2</title>
<path fill="none" stroke="black" d="M572.799,-361.116C585.669,-351.429 602.284,-338.923 616.299,-328.374"/>
<polygon fill="black" stroke="black" points="618.747,-330.912 624.632,-322.101 614.538,-325.319 618.747,-330.912"/>
</g>
<!-- ExpTemp1 -->
<g id="node41" class="node"><title>ExpTemp1</title>
<ellipse fill="none" stroke="black" cx="452.696" cy="-306" rx="50.0912" ry="18"/>
<text text-anchor="middle" x="452.696" y="-302.3" font-family="Times,serif" font-size="14.00">ExpTemp1</text>
</g>
<!-- ExpBinary2&#45;&gt;ExpTemp1 -->
<g id="edge34" class="edge"><title>ExpBinary2&#45;&gt;ExpTemp1</title>
<path fill="none" stroke="black" d="M529.724,-361.465C515.915,-351.7 497.914,-338.972 482.786,-328.276"/>
<polygon fill="black" stroke="black" points="484.451,-325.167 474.265,-322.251 480.409,-330.882 484.451,-325.167"/>
</g>
<!-- Plus2 -->
<g id="node42" class="node"><title>Plus2</title>
<ellipse fill="none" stroke="black" cx="551.696" cy="-306" rx="30.5947" ry="18"/>
<text text-anchor="middle" x="551.696" y="-302.3" font-family="Times,serif" font-size="14.00">Plus2</text>
</g>
<!-- ExpBinary2&#45;&gt;Plus2 -->
<g id="edge35" class="edge"><title>ExpBinary2&#45;&gt;Plus2</title>
<path fill="none" stroke="black" d="M551.696,-359.697C551.696,-351.983 551.696,-342.712 551.696,-334.112"/>
<polygon fill="black" stroke="black" points="555.196,-334.104 551.696,-324.104 548.196,-334.104 555.196,-334.104"/>
</g>
<!-- Temp1: FP -->
<g id="node51" class="node"><title>Temp1: FP</title>
<ellipse fill="none" stroke="black" cx="452.696" cy="-234" rx="50.8918" ry="18"/>
<text text-anchor="middle" x="452.696" y="-230.3" font-family="Times,serif" font-size="14.00">Temp1: FP</text>
</g>
<!-- ExpTemp1&#45;&gt;Temp1: FP -->
<g id="edge46" class="edge"><title>ExpTemp1&#45;&gt;Temp1: FP</title>
<path fill="none" stroke="black" d="M452.696,-287.697C452.696,-279.983 452.696,-270.712 452.696,-262.112"/>
<polygon fill="black" stroke="black" points="456.196,-262.104 452.696,-252.104 449.196,-262.104 456.196,-262.104"/>
</g>
<!-- StatLabel0 -->
<g id="node43" class="node"><title>StatLabel0</title>
<ellipse fill="none" stroke="black" cx="868.696" cy="-666" rx="48.9926" ry="18"/>
<text text-anchor="middle" x="868.696" y="-662.3" font-family="Times,serif" font-size="14.00">StatLabel0</text>
</g>
<!-- Label0: Tree::Init -->
<g id="node44" class="node"><title>Label0: Tree::Init</title>
<ellipse fill="none" stroke="black" cx="855.696" cy="-594" rx="73.387" ry="18"/>
<text text-anchor="middle" x="855.696" y="-590.3" font-family="Times,serif" font-size="14.00">Label0: Tree::Init</text>
</g>
<!-- StatLabel0&#45;&gt;Label0: Tree::Init -->
<g id="edge37" class="edge"><title>StatLabel0&#45;&gt;Label0: Tree::Init</title>
<path fill="none" stroke="black" d="M865.482,-647.697C864.049,-639.983 862.328,-630.712 860.731,-622.112"/>
<polygon fill="black" stroke="black" points="864.139,-621.297 858.872,-612.104 857.257,-622.575 864.139,-621.297"/>
</g>
<!-- ExpBinary4 -->
<g id="node57" class="node"><title>ExpBinary4</title>
<ellipse fill="none" stroke="black" cx="717.696" cy="-162" rx="53.0913" ry="18"/>
<text text-anchor="middle" x="717.696" y="-158.3" font-family="Times,serif" font-size="14.00">ExpBinary4</text>
</g>
<!-- ExpMem4&#45;&gt;ExpBinary4 -->
<g id="edge58" class="edge"><title>ExpMem4&#45;&gt;ExpBinary4</title>
<path fill="none" stroke="black" d="M717.696,-215.697C717.696,-207.983 717.696,-198.712 717.696,-190.112"/>
<polygon fill="black" stroke="black" points="721.196,-190.104 717.696,-180.104 714.196,-190.104 721.196,-190.104"/>
</g>
<!-- Value4: 0 -->
<g id="node61" class="node"><title>Value4: 0</title>
<ellipse fill="none" stroke="black" cx="906.696" cy="-162" rx="45.4919" ry="18"/>
<text text-anchor="middle" x="906.696" y="-158.3" font-family="Times,serif" font-size="14.00">Value4: 0</text>
</g>
<!-- ExpCall4&#45;&gt;Value4: 0 -->
<g id="edge60" class="edge"><title>ExpCall4&#45;&gt;Value4: 0</title>
<path fill="none" stroke="black" d="M907.448,-215.697C907.338,-207.983 907.206,-198.712 907.083,-190.112"/>
<polygon fill="black" stroke="black" points="910.582,-190.053 906.94,-180.104 903.583,-190.153 910.582,-190.053"/>
</g>
<!-- StatSeq0 -->
<g id="node50" class="node"><title>StatSeq0</title>
<ellipse fill="none" stroke="black" cx="928.696" cy="-738" rx="42.4939" ry="18"/>
<text text-anchor="middle" x="928.696" y="-734.3" font-family="Times,serif" font-size="14.00">StatSeq0</text>
</g>
<!-- StatSeq0&#45;&gt;StatSeq1 -->
<g id="edge45" class="edge"><title>StatSeq0&#45;&gt;StatSeq1</title>
<path fill="none" stroke="black" d="M942.843,-720.765C950.619,-711.841 960.409,-700.608 969.026,-690.719"/>
<polygon fill="black" stroke="black" points="971.693,-692.986 975.624,-683.147 966.416,-688.387 971.693,-692.986"/>
</g>
<!-- StatSeq0&#45;&gt;StatLabel0 -->
<g id="edge44" class="edge"><title>StatSeq0&#45;&gt;StatLabel0</title>
<path fill="none" stroke="black" d="M914.779,-720.765C907.315,-712.056 897.964,-701.147 889.64,-691.435"/>
<polygon fill="black" stroke="black" points="892.118,-688.948 882.953,-683.633 886.803,-693.504 892.118,-688.948"/>
</g>
<!-- ExpCall3 -->
<g id="node52" class="node"><title>ExpCall3</title>
<ellipse fill="none" stroke="black" cx="810.696" cy="-90" rx="44.393" ry="18"/>
<text text-anchor="middle" x="810.696" y="-86.3" font-family="Times,serif" font-size="14.00">ExpCall3</text>
</g>
<!-- Value3: 0 -->
<g id="node53" class="node"><title>Value3: 0</title>
<ellipse fill="none" stroke="black" cx="810.696" cy="-18" rx="45.4919" ry="18"/>
<text text-anchor="middle" x="810.696" y="-14.3" font-family="Times,serif" font-size="14.00">Value3: 0</text>
</g>
<!-- ExpCall3&#45;&gt;Value3: 0 -->
<g id="edge47" class="edge"><title>ExpCall3&#45;&gt;Value3: 0</title>
<path fill="none" stroke="black" d="M810.696,-71.6966C810.696,-63.9827 810.696,-54.7125 810.696,-46.1124"/>
<polygon fill="black" stroke="black" points="814.196,-46.1043 810.696,-36.1043 807.196,-46.1044 814.196,-46.1043"/>
</g>
<!-- ExpTemp2 -->
<g id="node54" class="node"><title>ExpTemp2</title>
<ellipse fill="none" stroke="black" cx="618.696" cy="-90" rx="50.0912" ry="18"/>
<text text-anchor="middle" x="618.696" y="-86.3" font-family="Times,serif" font-size="14.00">ExpTemp2</text>
</g>
<!-- Temp2: FP -->
<g id="node55" class="node"><title>Temp2: FP</title>
<ellipse fill="none" stroke="black" cx="618.696" cy="-18" rx="50.8918" ry="18"/>
<text text-anchor="middle" x="618.696" y="-14.3" font-family="Times,serif" font-size="14.00">Temp2: FP</text>
</g>
<!-- ExpTemp2&#45;&gt;Temp2: FP -->
<g id="edge50" class="edge"><title>ExpTemp2&#45;&gt;Temp2: FP</title>
<path fill="none" stroke="black" d="M618.696,-71.6966C618.696,-63.9827 618.696,-54.7125 618.696,-46.1124"/>
<polygon fill="black" stroke="black" points="622.196,-46.1043 618.696,-36.1043 615.196,-46.1044 622.196,-46.1043"/>
</g>
<!-- ExpBinary4&#45;&gt;ExpCall3 -->
<g id="edge54" class="edge"><title>ExpBinary4&#45;&gt;ExpCall3</title>
<path fill="none" stroke="black" d="M738.799,-145.116C751.669,-135.429 768.284,-122.923 782.299,-112.374"/>
<polygon fill="black" stroke="black" points="784.747,-114.912 790.632,-106.101 780.538,-109.319 784.747,-114.912"/>
</g>
<!-- ExpBinary4&#45;&gt;ExpTemp2 -->
<g id="edge52" class="edge"><title>ExpBinary4&#45;&gt;ExpTemp2</title>
<path fill="none" stroke="black" d="M695.724,-145.465C681.915,-135.7 663.914,-122.972 648.786,-112.276"/>
<polygon fill="black" stroke="black" points="650.451,-109.167 640.265,-106.251 646.409,-114.882 650.451,-109.167"/>
</g>
<!-- Plus3 -->
<g id="node58" class="node"><title>Plus3</title>
<ellipse fill="none" stroke="black" cx="717.696" cy="-90" rx="30.5947" ry="18"/>
<text text-anchor="middle" x="717.696" y="-86.3" font-family="Times,serif" font-size="14.00">Plus3</text>
</g>
<!-- ExpBinary4&#45;&gt;Plus3 -->
<g id="edge53" class="edge"><title>ExpBinary4&#45;&gt;Plus3</title>
<path fill="none" stroke="black" d="M717.696,-143.697C717.696,-135.983 717.696,-126.712 717.696,-118.112"/>
<polygon fill="black" stroke="black" points="721.196,-118.104 717.696,-108.104 714.196,-118.104 721.196,-118.104"/>
</g>
</g>
</svg>
