<?xml version="1.0" encoding="UTF-8" standalone="no"?>
<!DOCTYPE svg PUBLIC "-//W3C//DTD SVG 1.1//EN"
 "http://www.w3.org/Graphics/SVG/1.1/DTD/svg11.dtd">
<!-- Generated by graphviz version 2.38.0 (20140413.2041)
 -->
<!-- Title: %3 Pages: 1 -->
<svg width="461pt" height="404pt"
 viewBox="0.00 0.00 461.24 404.00" xmlns="http://www.w3.org/2000/svg" xmlns:xlink="http://www.w3.org/1999/xlink">
<g id="graph0" class="graph" transform="scale(1 1) rotate(0) translate(4 400)">
<title>%3</title>
<polygon fill="white" stroke="none" points="-4,4 -4,-400 457.236,-400 457.236,4 -4,4"/>
<!-- ExpMem0 -->
<g id="node1" class="node"><title>ExpMem0</title>
<ellipse fill="none" stroke="black" cx="399.591" cy="-234" rx="48.9926" ry="18"/>
<text text-anchor="middle" x="399.591" y="-230.3" font-family="Times,serif" font-size="14.00">ExpMem0</text>
</g>
<!-- ExpMem1 -->
<g id="node2" class="node"><title>ExpMem1</title>
<ellipse fill="none" stroke="black" cx="400.591" cy="-162" rx="48.9926" ry="18"/>
<text text-anchor="middle" x="400.591" y="-158.3" font-family="Times,serif" font-size="14.00">ExpMem1</text>
</g>
<!-- ExpMem0&#45;&gt;ExpMem1 -->
<g id="edge1" class="edge"><title>ExpMem0&#45;&gt;ExpMem1</title>
<path fill="none" stroke="black" d="M399.838,-215.697C399.948,-207.983 400.08,-198.712 400.203,-190.112"/>
<polygon fill="black" stroke="black" points="403.703,-190.153 400.346,-180.104 396.704,-190.053 403.703,-190.153"/>
</g>
<!-- ExpTemp1 -->
<g id="node3" class="node"><title>ExpTemp1</title>
<ellipse fill="none" stroke="black" cx="400.591" cy="-90" rx="50.0912" ry="18"/>
<text text-anchor="middle" x="400.591" y="-86.3" font-family="Times,serif" font-size="14.00">ExpTemp1</text>
</g>
<!-- ExpMem1&#45;&gt;ExpTemp1 -->
<g id="edge2" class="edge"><title>ExpMem1&#45;&gt;ExpTemp1</title>
<path fill="none" stroke="black" d="M400.591,-143.697C400.591,-135.983 400.591,-126.712 400.591,-118.112"/>
<polygon fill="black" stroke="black" points="404.091,-118.104 400.591,-108.104 397.091,-118.104 404.091,-118.104"/>
</g>
<!-- Temp1: $fp -->
<g id="node4" class="node"><title>Temp1: $fp</title>
<ellipse fill="none" stroke="black" cx="400.591" cy="-18" rx="52.7911" ry="18"/>
<text text-anchor="middle" x="400.591" y="-14.3" font-family="Times,serif" font-size="14.00">Temp1: $fp</text>
</g>
<!-- ExpTemp1&#45;&gt;Temp1: $fp -->
<g id="edge3" class="edge"><title>ExpTemp1&#45;&gt;Temp1: $fp</title>
<path fill="none" stroke="black" d="M400.591,-71.6966C400.591,-63.9827 400.591,-54.7125 400.591,-46.1124"/>
<polygon fill="black" stroke="black" points="404.091,-46.1043 400.591,-36.1043 397.091,-46.1044 404.091,-46.1043"/>
</g>
<!-- StatLabel0 -->
<g id="node5" class="node"><title>StatLabel0</title>
<ellipse fill="none" stroke="black" cx="135.591" cy="-306" rx="48.9926" ry="18"/>
<text text-anchor="middle" x="135.591" y="-302.3" font-family="Times,serif" font-size="14.00">StatLabel0</text>
</g>
<!-- Label0: Tree::GetHas_Left -->
<g id="node6" class="node"><title>Label0: Tree::GetHas_Left</title>
<ellipse fill="none" stroke="black" cx="106.591" cy="-234" rx="106.681" ry="18"/>
<text text-anchor="middle" x="106.591" y="-230.3" font-family="Times,serif" font-size="14.00">Label0: Tree::GetHas_Left</text>
</g>
<!-- StatLabel0&#45;&gt;Label0: Tree::GetHas_Left -->
<g id="edge4" class="edge"><title>StatLabel0&#45;&gt;Label0: Tree::GetHas_Left</title>
<path fill="none" stroke="black" d="M128.57,-288.055C125.306,-280.176 121.346,-270.617 117.691,-261.794"/>
<polygon fill="black" stroke="black" points="120.808,-260.174 113.747,-252.275 114.341,-262.853 120.808,-260.174"/>
</g>
<!-- StatSeq0 -->
<g id="node7" class="node"><title>StatSeq0</title>
<ellipse fill="none" stroke="black" cx="208.591" cy="-378" rx="42.4939" ry="18"/>
<text text-anchor="middle" x="208.591" y="-374.3" font-family="Times,serif" font-size="14.00">StatSeq0</text>
</g>
<!-- StatSeq0&#45;&gt;StatLabel0 -->
<g id="edge5" class="edge"><title>StatSeq0&#45;&gt;StatLabel0</title>
<path fill="none" stroke="black" d="M192.026,-361.116C182.48,-351.962 170.31,-340.293 159.717,-330.135"/>
<polygon fill="black" stroke="black" points="161.983,-327.459 152.343,-323.064 157.138,-332.511 161.983,-327.459"/>
</g>
<!-- StatMove0 -->
<g id="node8" class="node"><title>StatMove0</title>
<ellipse fill="none" stroke="black" cx="281.591" cy="-306" rx="50.0912" ry="18"/>
<text text-anchor="middle" x="281.591" y="-302.3" font-family="Times,serif" font-size="14.00">StatMove0</text>
</g>
<!-- StatSeq0&#45;&gt;StatMove0 -->
<g id="edge6" class="edge"><title>StatSeq0&#45;&gt;StatMove0</title>
<path fill="none" stroke="black" d="M225.155,-361.116C234.701,-351.962 246.871,-340.293 257.464,-330.135"/>
<polygon fill="black" stroke="black" points="260.043,-332.511 264.839,-323.064 255.198,-327.459 260.043,-332.511"/>
</g>
<!-- StatMove0&#45;&gt;ExpMem0 -->
<g id="edge9" class="edge"><title>StatMove0&#45;&gt;ExpMem0</title>
<path fill="none" stroke="black" d="M306.327,-290.326C323.713,-280.012 347.173,-266.095 366.214,-254.8"/>
<polygon fill="black" stroke="black" points="368.072,-257.767 374.886,-249.655 364.5,-251.747 368.072,-257.767"/>
</g>
<!-- ExpTemp0 -->
<g id="node9" class="node"><title>ExpTemp0</title>
<ellipse fill="none" stroke="black" cx="281.591" cy="-234" rx="50.0912" ry="18"/>
<text text-anchor="middle" x="281.591" y="-230.3" font-family="Times,serif" font-size="14.00">ExpTemp0</text>
</g>
<!-- StatMove0&#45;&gt;ExpTemp0 -->
<g id="edge8" class="edge"><title>StatMove0&#45;&gt;ExpTemp0</title>
<path fill="none" stroke="black" d="M281.591,-287.697C281.591,-279.983 281.591,-270.712 281.591,-262.112"/>
<polygon fill="black" stroke="black" points="285.091,-262.104 281.591,-252.104 278.091,-262.104 285.091,-262.104"/>
</g>
<!-- Temp0: $rv -->
<g id="node10" class="node"><title>Temp0: $rv</title>
<ellipse fill="none" stroke="black" cx="281.591" cy="-162" rx="52.7911" ry="18"/>
<text text-anchor="middle" x="281.591" y="-158.3" font-family="Times,serif" font-size="14.00">Temp0: $rv</text>
</g>
<!-- ExpTemp0&#45;&gt;Temp0: $rv -->
<g id="edge7" class="edge"><title>ExpTemp0&#45;&gt;Temp0: $rv</title>
<path fill="none" stroke="black" d="M281.591,-215.697C281.591,-207.983 281.591,-198.712 281.591,-190.112"/>
<polygon fill="black" stroke="black" points="285.091,-190.104 281.591,-180.104 278.091,-190.104 285.091,-190.104"/>
</g>
</g>
</svg>
