<?xml version="1.0" encoding="UTF-8" standalone="no"?>
<!DOCTYPE svg PUBLIC "-//W3C//DTD SVG 1.1//EN"
 "http://www.w3.org/Graphics/SVG/1.1/DTD/svg11.dtd">
<!-- Generated by graphviz version 2.38.0 (20140413.2041)
 -->
<!-- Title: %3 Pages: 1 -->
<svg width="516pt" height="548pt"
 viewBox="0.00 0.00 515.89 548.00" xmlns="http://www.w3.org/2000/svg" xmlns:xlink="http://www.w3.org/1999/xlink">
<g id="graph0" class="graph" transform="scale(1 1) rotate(0) translate(4 544)">
<title>%3</title>
<polygon fill="white" stroke="none" points="-4,4 -4,-544 511.888,-544 511.888,4 -4,4"/>
<!-- StatMove0 -->
<g id="node1" class="node"><title>StatMove0</title>
<ellipse fill="none" stroke="black" cx="244.392" cy="-450" rx="50.0912" ry="18"/>
<text text-anchor="middle" x="244.392" y="-446.3" font-family="Times,serif" font-size="14.00">StatMove0</text>
</g>
<!-- ExpTemp0 -->
<g id="node2" class="node"><title>ExpTemp0</title>
<ellipse fill="none" stroke="black" cx="244.392" cy="-378" rx="50.0912" ry="18"/>
<text text-anchor="middle" x="244.392" y="-374.3" font-family="Times,serif" font-size="14.00">ExpTemp0</text>
</g>
<!-- StatMove0&#45;&gt;ExpTemp0 -->
<g id="edge1" class="edge"><title>StatMove0&#45;&gt;ExpTemp0</title>
<path fill="none" stroke="black" d="M244.392,-431.697C244.392,-423.983 244.392,-414.712 244.392,-406.112"/>
<polygon fill="black" stroke="black" points="247.892,-406.104 244.392,-396.104 240.892,-406.104 247.892,-406.104"/>
</g>
<!-- ExpMem0 -->
<g id="node3" class="node"><title>ExpMem0</title>
<ellipse fill="none" stroke="black" cx="366.392" cy="-378" rx="48.9926" ry="18"/>
<text text-anchor="middle" x="366.392" y="-374.3" font-family="Times,serif" font-size="14.00">ExpMem0</text>
</g>
<!-- StatMove0&#45;&gt;ExpMem0 -->
<g id="edge2" class="edge"><title>StatMove0&#45;&gt;ExpMem0</title>
<path fill="none" stroke="black" d="M269.967,-434.326C288.024,-423.965 312.417,-409.969 332.151,-398.646"/>
<polygon fill="black" stroke="black" points="333.919,-401.668 340.851,-393.655 330.435,-395.596 333.919,-401.668"/>
</g>
<!-- Temp0: T15 -->
<g id="node9" class="node"><title>Temp0: T15</title>
<ellipse fill="none" stroke="black" cx="242.392" cy="-306" rx="55.4913" ry="18"/>
<text text-anchor="middle" x="242.392" y="-302.3" font-family="Times,serif" font-size="14.00">Temp0: T15</text>
</g>
<!-- ExpTemp0&#45;&gt;Temp0: T15 -->
<g id="edge7" class="edge"><title>ExpTemp0&#45;&gt;Temp0: T15</title>
<path fill="none" stroke="black" d="M243.898,-359.697C243.677,-351.983 243.413,-342.712 243.167,-334.112"/>
<polygon fill="black" stroke="black" points="246.665,-334 242.881,-324.104 239.668,-334.2 246.665,-334"/>
</g>
<!-- ExpBinary0 -->
<g id="node4" class="node"><title>ExpBinary0</title>
<ellipse fill="none" stroke="black" cx="369.392" cy="-306" rx="53.0913" ry="18"/>
<text text-anchor="middle" x="369.392" y="-302.3" font-family="Times,serif" font-size="14.00">ExpBinary0</text>
</g>
<!-- ExpMem0&#45;&gt;ExpBinary0 -->
<g id="edge12" class="edge"><title>ExpMem0&#45;&gt;ExpBinary0</title>
<path fill="none" stroke="black" d="M367.134,-359.697C367.464,-351.983 367.862,-342.712 368.23,-334.112"/>
<polygon fill="black" stroke="black" points="371.728,-334.245 368.659,-324.104 364.734,-333.945 371.728,-334.245"/>
</g>
<!-- ExpMem1 -->
<g id="node5" class="node"><title>ExpMem1</title>
<ellipse fill="none" stroke="black" cx="272.392" cy="-234" rx="48.9926" ry="18"/>
<text text-anchor="middle" x="272.392" y="-230.3" font-family="Times,serif" font-size="14.00">ExpMem1</text>
</g>
<!-- ExpBinary0&#45;&gt;ExpMem1 -->
<g id="edge3" class="edge"><title>ExpBinary0&#45;&gt;ExpMem1</title>
<path fill="none" stroke="black" d="M347.865,-289.465C334.334,-279.7 316.697,-266.972 301.875,-256.276"/>
<polygon fill="black" stroke="black" points="303.683,-253.265 293.526,-250.251 299.587,-258.941 303.683,-253.265"/>
</g>
<!-- Plus1 -->
<g id="node6" class="node"><title>Plus1</title>
<ellipse fill="none" stroke="black" cx="369.392" cy="-234" rx="30.5947" ry="18"/>
<text text-anchor="middle" x="369.392" y="-230.3" font-family="Times,serif" font-size="14.00">Plus1</text>
</g>
<!-- ExpBinary0&#45;&gt;Plus1 -->
<g id="edge4" class="edge"><title>ExpBinary0&#45;&gt;Plus1</title>
<path fill="none" stroke="black" d="M369.392,-287.697C369.392,-279.983 369.392,-270.712 369.392,-262.112"/>
<polygon fill="black" stroke="black" points="372.892,-262.104 369.392,-252.104 365.892,-262.104 372.892,-262.104"/>
</g>
<!-- ExpCall1 -->
<g id="node7" class="node"><title>ExpCall1</title>
<ellipse fill="none" stroke="black" cx="462.392" cy="-234" rx="44.393" ry="18"/>
<text text-anchor="middle" x="462.392" y="-230.3" font-family="Times,serif" font-size="14.00">ExpCall1</text>
</g>
<!-- ExpBinary0&#45;&gt;ExpCall1 -->
<g id="edge5" class="edge"><title>ExpBinary0&#45;&gt;ExpCall1</title>
<path fill="none" stroke="black" d="M390.495,-289.116C403.366,-279.429 419.98,-266.923 433.995,-256.374"/>
<polygon fill="black" stroke="black" points="436.444,-258.912 442.329,-250.101 432.234,-253.319 436.444,-258.912"/>
</g>
<!-- ExpBinary1 -->
<g id="node15" class="node"><title>ExpBinary1</title>
<ellipse fill="none" stroke="black" cx="272.392" cy="-162" rx="53.0913" ry="18"/>
<text text-anchor="middle" x="272.392" y="-158.3" font-family="Times,serif" font-size="14.00">ExpBinary1</text>
</g>
<!-- ExpMem1&#45;&gt;ExpBinary1 -->
<g id="edge17" class="edge"><title>ExpMem1&#45;&gt;ExpBinary1</title>
<path fill="none" stroke="black" d="M272.392,-215.697C272.392,-207.983 272.392,-198.712 272.392,-190.112"/>
<polygon fill="black" stroke="black" points="275.892,-190.104 272.392,-180.104 268.892,-190.104 275.892,-190.104"/>
</g>
<!-- Value1: 4 -->
<g id="node8" class="node"><title>Value1: 4</title>
<ellipse fill="none" stroke="black" cx="462.392" cy="-162" rx="45.4919" ry="18"/>
<text text-anchor="middle" x="462.392" y="-158.3" font-family="Times,serif" font-size="14.00">Value1: 4</text>
</g>
<!-- ExpCall1&#45;&gt;Value1: 4 -->
<g id="edge6" class="edge"><title>ExpCall1&#45;&gt;Value1: 4</title>
<path fill="none" stroke="black" d="M462.392,-215.697C462.392,-207.983 462.392,-198.712 462.392,-190.112"/>
<polygon fill="black" stroke="black" points="465.892,-190.104 462.392,-180.104 458.892,-190.104 465.892,-190.104"/>
</g>
<!-- StatSeq0 -->
<g id="node10" class="node"><title>StatSeq0</title>
<ellipse fill="none" stroke="black" cx="176.392" cy="-522" rx="42.4939" ry="18"/>
<text text-anchor="middle" x="176.392" y="-518.3" font-family="Times,serif" font-size="14.00">StatSeq0</text>
</g>
<!-- StatSeq0&#45;&gt;StatMove0 -->
<g id="edge9" class="edge"><title>StatSeq0&#45;&gt;StatMove0</title>
<path fill="none" stroke="black" d="M191.822,-505.116C200.566,-496.116 211.672,-484.682 221.422,-474.646"/>
<polygon fill="black" stroke="black" points="224.094,-476.919 228.551,-467.307 219.073,-472.041 224.094,-476.919"/>
</g>
<!-- StatLabel0 -->
<g id="node11" class="node"><title>StatLabel0</title>
<ellipse fill="none" stroke="black" cx="108.392" cy="-450" rx="48.9926" ry="18"/>
<text text-anchor="middle" x="108.392" y="-446.3" font-family="Times,serif" font-size="14.00">StatLabel0</text>
</g>
<!-- StatSeq0&#45;&gt;StatLabel0 -->
<g id="edge8" class="edge"><title>StatSeq0&#45;&gt;StatLabel0</title>
<path fill="none" stroke="black" d="M160.962,-505.116C152.219,-496.116 141.112,-484.682 131.363,-474.646"/>
<polygon fill="black" stroke="black" points="133.712,-472.041 124.233,-467.307 128.691,-476.919 133.712,-472.041"/>
</g>
<!-- Label0: Tree::GetKey -->
<g id="node12" class="node"><title>Label0: Tree::GetKey</title>
<ellipse fill="none" stroke="black" cx="88.3922" cy="-378" rx="88.2844" ry="18"/>
<text text-anchor="middle" x="88.3922" y="-374.3" font-family="Times,serif" font-size="14.00">Label0: Tree::GetKey</text>
</g>
<!-- StatLabel0&#45;&gt;Label0: Tree::GetKey -->
<g id="edge10" class="edge"><title>StatLabel0&#45;&gt;Label0: Tree::GetKey</title>
<path fill="none" stroke="black" d="M103.551,-432.055C101.324,-424.261 98.627,-414.822 96.129,-406.079"/>
<polygon fill="black" stroke="black" points="99.4406,-404.929 93.328,-396.275 92.7099,-406.852 99.4406,-404.929"/>
</g>
<!-- ExpTemp1 -->
<g id="node13" class="node"><title>ExpTemp1</title>
<ellipse fill="none" stroke="black" cx="173.392" cy="-90" rx="50.0912" ry="18"/>
<text text-anchor="middle" x="173.392" y="-86.3" font-family="Times,serif" font-size="14.00">ExpTemp1</text>
</g>
<!-- Temp1: T14 -->
<g id="node14" class="node"><title>Temp1: T14</title>
<ellipse fill="none" stroke="black" cx="173.392" cy="-18" rx="55.4913" ry="18"/>
<text text-anchor="middle" x="173.392" y="-14.3" font-family="Times,serif" font-size="14.00">Temp1: T14</text>
</g>
<!-- ExpTemp1&#45;&gt;Temp1: T14 -->
<g id="edge11" class="edge"><title>ExpTemp1&#45;&gt;Temp1: T14</title>
<path fill="none" stroke="black" d="M173.392,-71.6966C173.392,-63.9827 173.392,-54.7125 173.392,-46.1124"/>
<polygon fill="black" stroke="black" points="176.892,-46.1043 173.392,-36.1043 169.892,-46.1044 176.892,-46.1043"/>
</g>
<!-- ExpBinary1&#45;&gt;ExpTemp1 -->
<g id="edge13" class="edge"><title>ExpBinary1&#45;&gt;ExpTemp1</title>
<path fill="none" stroke="black" d="M250.421,-145.465C236.611,-135.7 218.61,-122.972 203.483,-112.276"/>
<polygon fill="black" stroke="black" points="205.147,-109.167 194.961,-106.251 201.106,-114.882 205.147,-109.167"/>
</g>
<!-- Plus0 -->
<g id="node16" class="node"><title>Plus0</title>
<ellipse fill="none" stroke="black" cx="272.392" cy="-90" rx="30.5947" ry="18"/>
<text text-anchor="middle" x="272.392" y="-86.3" font-family="Times,serif" font-size="14.00">Plus0</text>
</g>
<!-- ExpBinary1&#45;&gt;Plus0 -->
<g id="edge14" class="edge"><title>ExpBinary1&#45;&gt;Plus0</title>
<path fill="none" stroke="black" d="M272.392,-143.697C272.392,-135.983 272.392,-126.712 272.392,-118.112"/>
<polygon fill="black" stroke="black" points="275.892,-118.104 272.392,-108.104 268.892,-118.104 275.892,-118.104"/>
</g>
<!-- ExpCall0 -->
<g id="node17" class="node"><title>ExpCall0</title>
<ellipse fill="none" stroke="black" cx="365.392" cy="-90" rx="44.393" ry="18"/>
<text text-anchor="middle" x="365.392" y="-86.3" font-family="Times,serif" font-size="14.00">ExpCall0</text>
</g>
<!-- ExpBinary1&#45;&gt;ExpCall0 -->
<g id="edge15" class="edge"><title>ExpBinary1&#45;&gt;ExpCall0</title>
<path fill="none" stroke="black" d="M293.495,-145.116C306.366,-135.429 322.98,-122.923 336.995,-112.374"/>
<polygon fill="black" stroke="black" points="339.444,-114.912 345.329,-106.101 335.234,-109.319 339.444,-114.912"/>
</g>
<!-- Value0: 0 -->
<g id="node18" class="node"><title>Value0: 0</title>
<ellipse fill="none" stroke="black" cx="365.392" cy="-18" rx="45.4919" ry="18"/>
<text text-anchor="middle" x="365.392" y="-14.3" font-family="Times,serif" font-size="14.00">Value0: 0</text>
</g>
<!-- ExpCall0&#45;&gt;Value0: 0 -->
<g id="edge16" class="edge"><title>ExpCall0&#45;&gt;Value0: 0</title>
<path fill="none" stroke="black" d="M365.392,-71.6966C365.392,-63.9827 365.392,-54.7125 365.392,-46.1124"/>
<polygon fill="black" stroke="black" points="368.892,-46.1043 365.392,-36.1043 361.892,-46.1044 368.892,-46.1043"/>
</g>
</g>
</svg>
