<?xml version="1.0" encoding="UTF-8" standalone="no"?>
<!DOCTYPE svg PUBLIC "-//W3C//DTD SVG 1.1//EN"
 "http://www.w3.org/Graphics/SVG/1.1/DTD/svg11.dtd">
<!-- Generated by graphviz version 2.38.0 (20140413.2041)
 -->
<!-- Title: %3 Pages: 1 -->
<svg width="553pt" height="548pt"
 viewBox="0.00 0.00 553.09 548.00" xmlns="http://www.w3.org/2000/svg" xmlns:xlink="http://www.w3.org/1999/xlink">
<g id="graph0" class="graph" transform="scale(1 1) rotate(0) translate(4 544)">
<title>%3</title>
<polygon fill="white" stroke="none" points="-4,4 -4,-544 549.087,-544 549.087,4 -4,4"/>
<!-- StatMove0 -->
<g id="node1" class="node"><title>StatMove0</title>
<ellipse fill="none" stroke="black" cx="281.591" cy="-450" rx="50.0912" ry="18"/>
<text text-anchor="middle" x="281.591" y="-446.3" font-family="Times,serif" font-size="14.00">StatMove0</text>
</g>
<!-- ExpTemp0 -->
<g id="node2" class="node"><title>ExpTemp0</title>
<ellipse fill="none" stroke="black" cx="281.591" cy="-378" rx="50.0912" ry="18"/>
<text text-anchor="middle" x="281.591" y="-374.3" font-family="Times,serif" font-size="14.00">ExpTemp0</text>
</g>
<!-- StatMove0&#45;&gt;ExpTemp0 -->
<g id="edge1" class="edge"><title>StatMove0&#45;&gt;ExpTemp0</title>
<path fill="none" stroke="black" d="M281.591,-431.697C281.591,-423.983 281.591,-414.712 281.591,-406.112"/>
<polygon fill="black" stroke="black" points="285.091,-406.104 281.591,-396.104 278.091,-406.104 285.091,-406.104"/>
</g>
<!-- ExpMem0 -->
<g id="node3" class="node"><title>ExpMem0</title>
<ellipse fill="none" stroke="black" cx="403.591" cy="-378" rx="48.9926" ry="18"/>
<text text-anchor="middle" x="403.591" y="-374.3" font-family="Times,serif" font-size="14.00">ExpMem0</text>
</g>
<!-- StatMove0&#45;&gt;ExpMem0 -->
<g id="edge2" class="edge"><title>StatMove0&#45;&gt;ExpMem0</title>
<path fill="none" stroke="black" d="M307.166,-434.326C325.222,-423.965 349.616,-409.969 369.35,-398.646"/>
<polygon fill="black" stroke="black" points="371.117,-401.668 378.049,-393.655 367.633,-395.596 371.117,-401.668"/>
</g>
<!-- Temp0: T21 -->
<g id="node9" class="node"><title>Temp0: T21</title>
<ellipse fill="none" stroke="black" cx="279.591" cy="-306" rx="55.4913" ry="18"/>
<text text-anchor="middle" x="279.591" y="-302.3" font-family="Times,serif" font-size="14.00">Temp0: T21</text>
</g>
<!-- ExpTemp0&#45;&gt;Temp0: T21 -->
<g id="edge7" class="edge"><title>ExpTemp0&#45;&gt;Temp0: T21</title>
<path fill="none" stroke="black" d="M281.096,-359.697C280.876,-351.983 280.611,-342.712 280.365,-334.112"/>
<polygon fill="black" stroke="black" points="283.864,-334 280.079,-324.104 276.866,-334.2 283.864,-334"/>
</g>
<!-- ExpBinary0 -->
<g id="node4" class="node"><title>ExpBinary0</title>
<ellipse fill="none" stroke="black" cx="406.591" cy="-306" rx="53.0913" ry="18"/>
<text text-anchor="middle" x="406.591" y="-302.3" font-family="Times,serif" font-size="14.00">ExpBinary0</text>
</g>
<!-- ExpMem0&#45;&gt;ExpBinary0 -->
<g id="edge12" class="edge"><title>ExpMem0&#45;&gt;ExpBinary0</title>
<path fill="none" stroke="black" d="M404.332,-359.697C404.663,-351.983 405.06,-342.712 405.429,-334.112"/>
<polygon fill="black" stroke="black" points="408.926,-334.245 405.857,-324.104 401.932,-333.945 408.926,-334.245"/>
</g>
<!-- ExpMem1 -->
<g id="node5" class="node"><title>ExpMem1</title>
<ellipse fill="none" stroke="black" cx="309.591" cy="-234" rx="48.9926" ry="18"/>
<text text-anchor="middle" x="309.591" y="-230.3" font-family="Times,serif" font-size="14.00">ExpMem1</text>
</g>
<!-- ExpBinary0&#45;&gt;ExpMem1 -->
<g id="edge3" class="edge"><title>ExpBinary0&#45;&gt;ExpMem1</title>
<path fill="none" stroke="black" d="M385.063,-289.465C371.532,-279.7 353.895,-266.972 339.073,-256.276"/>
<polygon fill="black" stroke="black" points="340.881,-253.265 330.724,-250.251 336.785,-258.941 340.881,-253.265"/>
</g>
<!-- Plus1 -->
<g id="node6" class="node"><title>Plus1</title>
<ellipse fill="none" stroke="black" cx="406.591" cy="-234" rx="30.5947" ry="18"/>
<text text-anchor="middle" x="406.591" y="-230.3" font-family="Times,serif" font-size="14.00">Plus1</text>
</g>
<!-- ExpBinary0&#45;&gt;Plus1 -->
<g id="edge4" class="edge"><title>ExpBinary0&#45;&gt;Plus1</title>
<path fill="none" stroke="black" d="M406.591,-287.697C406.591,-279.983 406.591,-270.712 406.591,-262.112"/>
<polygon fill="black" stroke="black" points="410.091,-262.104 406.591,-252.104 403.091,-262.104 410.091,-262.104"/>
</g>
<!-- ExpCall1 -->
<g id="node7" class="node"><title>ExpCall1</title>
<ellipse fill="none" stroke="black" cx="499.591" cy="-234" rx="44.393" ry="18"/>
<text text-anchor="middle" x="499.591" y="-230.3" font-family="Times,serif" font-size="14.00">ExpCall1</text>
</g>
<!-- ExpBinary0&#45;&gt;ExpCall1 -->
<g id="edge5" class="edge"><title>ExpBinary0&#45;&gt;ExpCall1</title>
<path fill="none" stroke="black" d="M427.694,-289.116C440.564,-279.429 457.179,-266.923 471.194,-256.374"/>
<polygon fill="black" stroke="black" points="473.642,-258.912 479.527,-250.101 469.433,-253.319 473.642,-258.912"/>
</g>
<!-- ExpBinary1 -->
<g id="node15" class="node"><title>ExpBinary1</title>
<ellipse fill="none" stroke="black" cx="309.591" cy="-162" rx="53.0913" ry="18"/>
<text text-anchor="middle" x="309.591" y="-158.3" font-family="Times,serif" font-size="14.00">ExpBinary1</text>
</g>
<!-- ExpMem1&#45;&gt;ExpBinary1 -->
<g id="edge17" class="edge"><title>ExpMem1&#45;&gt;ExpBinary1</title>
<path fill="none" stroke="black" d="M309.591,-215.697C309.591,-207.983 309.591,-198.712 309.591,-190.112"/>
<polygon fill="black" stroke="black" points="313.091,-190.104 309.591,-180.104 306.091,-190.104 313.091,-190.104"/>
</g>
<!-- Value1: 0 -->
<g id="node8" class="node"><title>Value1: 0</title>
<ellipse fill="none" stroke="black" cx="499.591" cy="-162" rx="45.4919" ry="18"/>
<text text-anchor="middle" x="499.591" y="-158.3" font-family="Times,serif" font-size="14.00">Value1: 0</text>
</g>
<!-- ExpCall1&#45;&gt;Value1: 0 -->
<g id="edge6" class="edge"><title>ExpCall1&#45;&gt;Value1: 0</title>
<path fill="none" stroke="black" d="M499.591,-215.697C499.591,-207.983 499.591,-198.712 499.591,-190.112"/>
<polygon fill="black" stroke="black" points="503.091,-190.104 499.591,-180.104 496.091,-190.104 503.091,-190.104"/>
</g>
<!-- StatSeq0 -->
<g id="node10" class="node"><title>StatSeq0</title>
<ellipse fill="none" stroke="black" cx="208.591" cy="-522" rx="42.4939" ry="18"/>
<text text-anchor="middle" x="208.591" y="-518.3" font-family="Times,serif" font-size="14.00">StatSeq0</text>
</g>
<!-- StatSeq0&#45;&gt;StatMove0 -->
<g id="edge9" class="edge"><title>StatSeq0&#45;&gt;StatMove0</title>
<path fill="none" stroke="black" d="M225.155,-505.116C234.701,-495.962 246.871,-484.293 257.464,-474.135"/>
<polygon fill="black" stroke="black" points="260.043,-476.511 264.839,-467.064 255.198,-471.459 260.043,-476.511"/>
</g>
<!-- StatLabel0 -->
<g id="node11" class="node"><title>StatLabel0</title>
<ellipse fill="none" stroke="black" cx="135.591" cy="-450" rx="48.9926" ry="18"/>
<text text-anchor="middle" x="135.591" y="-446.3" font-family="Times,serif" font-size="14.00">StatLabel0</text>
</g>
<!-- StatSeq0&#45;&gt;StatLabel0 -->
<g id="edge8" class="edge"><title>StatSeq0&#45;&gt;StatLabel0</title>
<path fill="none" stroke="black" d="M192.026,-505.116C182.48,-495.962 170.31,-484.293 159.717,-474.135"/>
<polygon fill="black" stroke="black" points="161.983,-471.459 152.343,-467.064 157.138,-476.511 161.983,-471.459"/>
</g>
<!-- Label0: Tree::GetHas_Left -->
<g id="node12" class="node"><title>Label0: Tree::GetHas_Left</title>
<ellipse fill="none" stroke="black" cx="106.591" cy="-378" rx="106.681" ry="18"/>
<text text-anchor="middle" x="106.591" y="-374.3" font-family="Times,serif" font-size="14.00">Label0: Tree::GetHas_Left</text>
</g>
<!-- StatLabel0&#45;&gt;Label0: Tree::GetHas_Left -->
<g id="edge10" class="edge"><title>StatLabel0&#45;&gt;Label0: Tree::GetHas_Left</title>
<path fill="none" stroke="black" d="M128.57,-432.055C125.306,-424.176 121.346,-414.617 117.691,-405.794"/>
<polygon fill="black" stroke="black" points="120.808,-404.174 113.747,-396.275 114.341,-406.853 120.808,-404.174"/>
</g>
<!-- ExpTemp1 -->
<g id="node13" class="node"><title>ExpTemp1</title>
<ellipse fill="none" stroke="black" cx="210.591" cy="-90" rx="50.0912" ry="18"/>
<text text-anchor="middle" x="210.591" y="-86.3" font-family="Times,serif" font-size="14.00">ExpTemp1</text>
</g>
<!-- Temp1: T20 -->
<g id="node14" class="node"><title>Temp1: T20</title>
<ellipse fill="none" stroke="black" cx="210.591" cy="-18" rx="55.4913" ry="18"/>
<text text-anchor="middle" x="210.591" y="-14.3" font-family="Times,serif" font-size="14.00">Temp1: T20</text>
</g>
<!-- ExpTemp1&#45;&gt;Temp1: T20 -->
<g id="edge11" class="edge"><title>ExpTemp1&#45;&gt;Temp1: T20</title>
<path fill="none" stroke="black" d="M210.591,-71.6966C210.591,-63.9827 210.591,-54.7125 210.591,-46.1124"/>
<polygon fill="black" stroke="black" points="214.091,-46.1043 210.591,-36.1043 207.091,-46.1044 214.091,-46.1043"/>
</g>
<!-- ExpBinary1&#45;&gt;ExpTemp1 -->
<g id="edge13" class="edge"><title>ExpBinary1&#45;&gt;ExpTemp1</title>
<path fill="none" stroke="black" d="M287.619,-145.465C273.81,-135.7 255.809,-122.972 240.681,-112.276"/>
<polygon fill="black" stroke="black" points="242.346,-109.167 232.16,-106.251 238.304,-114.882 242.346,-109.167"/>
</g>
<!-- Plus0 -->
<g id="node16" class="node"><title>Plus0</title>
<ellipse fill="none" stroke="black" cx="309.591" cy="-90" rx="30.5947" ry="18"/>
<text text-anchor="middle" x="309.591" y="-86.3" font-family="Times,serif" font-size="14.00">Plus0</text>
</g>
<!-- ExpBinary1&#45;&gt;Plus0 -->
<g id="edge14" class="edge"><title>ExpBinary1&#45;&gt;Plus0</title>
<path fill="none" stroke="black" d="M309.591,-143.697C309.591,-135.983 309.591,-126.712 309.591,-118.112"/>
<polygon fill="black" stroke="black" points="313.091,-118.104 309.591,-108.104 306.091,-118.104 313.091,-118.104"/>
</g>
<!-- ExpCall0 -->
<g id="node17" class="node"><title>ExpCall0</title>
<ellipse fill="none" stroke="black" cx="402.591" cy="-90" rx="44.393" ry="18"/>
<text text-anchor="middle" x="402.591" y="-86.3" font-family="Times,serif" font-size="14.00">ExpCall0</text>
</g>
<!-- ExpBinary1&#45;&gt;ExpCall0 -->
<g id="edge15" class="edge"><title>ExpBinary1&#45;&gt;ExpCall0</title>
<path fill="none" stroke="black" d="M330.694,-145.116C343.564,-135.429 360.179,-122.923 374.194,-112.374"/>
<polygon fill="black" stroke="black" points="376.642,-114.912 382.527,-106.101 372.433,-109.319 376.642,-114.912"/>
</g>
<!-- Value0: 0 -->
<g id="node18" class="node"><title>Value0: 0</title>
<ellipse fill="none" stroke="black" cx="402.591" cy="-18" rx="45.4919" ry="18"/>
<text text-anchor="middle" x="402.591" y="-14.3" font-family="Times,serif" font-size="14.00">Value0: 0</text>
</g>
<!-- ExpCall0&#45;&gt;Value0: 0 -->
<g id="edge16" class="edge"><title>ExpCall0&#45;&gt;Value0: 0</title>
<path fill="none" stroke="black" d="M402.591,-71.6966C402.591,-63.9827 402.591,-54.7125 402.591,-46.1124"/>
<polygon fill="black" stroke="black" points="406.091,-46.1043 402.591,-36.1043 399.091,-46.1044 406.091,-46.1043"/>
</g>
</g>
</svg>
