<?xml version="1.0" encoding="UTF-8" standalone="no"?>
<!DOCTYPE svg PUBLIC "-//W3C//DTD SVG 1.1//EN"
 "http://www.w3.org/Graphics/SVG/1.1/DTD/svg11.dtd">
<!-- Generated by graphviz version 2.38.0 (20140413.2041)
 -->
<!-- Title: %3 Pages: 1 -->
<svg width="1342pt" height="692pt"
 viewBox="0.00 0.00 1341.69 692.00" xmlns="http://www.w3.org/2000/svg" xmlns:xlink="http://www.w3.org/1999/xlink">
<g id="graph0" class="graph" transform="scale(1 1) rotate(0) translate(4 688)">
<title>%3</title>
<polygon fill="white" stroke="none" points="-4,4 -4,-688 1337.69,-688 1337.69,4 -4,4"/>
<!-- ExpConst3 -->
<g id="node1" class="node"><title>ExpConst3</title>
<ellipse fill="none" stroke="black" cx="1056.65" cy="-450" rx="50.0912" ry="18"/>
<text text-anchor="middle" x="1056.65" y="-446.3" font-family="Times,serif" font-size="14.00">ExpConst3</text>
</g>
<!-- Value3: 1 -->
<g id="node2" class="node"><title>Value3: 1</title>
<ellipse fill="none" stroke="black" cx="1056.65" cy="-378" rx="45.4919" ry="18"/>
<text text-anchor="middle" x="1056.65" y="-374.3" font-family="Times,serif" font-size="14.00">Value3: 1</text>
</g>
<!-- ExpConst3&#45;&gt;Value3: 1 -->
<g id="edge1" class="edge"><title>ExpConst3&#45;&gt;Value3: 1</title>
<path fill="none" stroke="black" d="M1056.65,-431.697C1056.65,-423.983 1056.65,-414.712 1056.65,-406.112"/>
<polygon fill="black" stroke="black" points="1060.15,-406.104 1056.65,-396.104 1053.15,-406.104 1060.15,-406.104"/>
</g>
<!-- StatMove2 -->
<g id="node3" class="node"><title>StatMove2</title>
<ellipse fill="none" stroke="black" cx="938.645" cy="-522" rx="50.0912" ry="18"/>
<text text-anchor="middle" x="938.645" y="-518.3" font-family="Times,serif" font-size="14.00">StatMove2</text>
</g>
<!-- StatMove2&#45;&gt;ExpConst3 -->
<g id="edge3" class="edge"><title>StatMove2&#45;&gt;ExpConst3</title>
<path fill="none" stroke="black" d="M963.382,-506.326C980.768,-496.012 1004.23,-482.095 1023.27,-470.8"/>
<polygon fill="black" stroke="black" points="1025.13,-473.767 1031.94,-465.655 1021.55,-467.747 1025.13,-473.767"/>
</g>
<!-- ExpTemp5 -->
<g id="node4" class="node"><title>ExpTemp5</title>
<ellipse fill="none" stroke="black" cx="938.645" cy="-450" rx="50.0912" ry="18"/>
<text text-anchor="middle" x="938.645" y="-446.3" font-family="Times,serif" font-size="14.00">ExpTemp5</text>
</g>
<!-- StatMove2&#45;&gt;ExpTemp5 -->
<g id="edge2" class="edge"><title>StatMove2&#45;&gt;ExpTemp5</title>
<path fill="none" stroke="black" d="M938.645,-503.697C938.645,-495.983 938.645,-486.712 938.645,-478.112"/>
<polygon fill="black" stroke="black" points="942.145,-478.104 938.645,-468.104 935.145,-478.104 942.145,-478.104"/>
</g>
<!-- Temp5: $rv -->
<g id="node24" class="node"><title>Temp5: $rv</title>
<ellipse fill="none" stroke="black" cx="939.645" cy="-378" rx="52.7911" ry="18"/>
<text text-anchor="middle" x="939.645" y="-374.3" font-family="Times,serif" font-size="14.00">Temp5: $rv</text>
</g>
<!-- ExpTemp5&#45;&gt;Temp5: $rv -->
<g id="edge15" class="edge"><title>ExpTemp5&#45;&gt;Temp5: $rv</title>
<path fill="none" stroke="black" d="M938.893,-431.697C939.003,-423.983 939.135,-414.712 939.258,-406.112"/>
<polygon fill="black" stroke="black" points="942.758,-406.153 939.401,-396.104 935.758,-406.053 942.758,-406.153"/>
</g>
<!-- ExpConst2 -->
<g id="node5" class="node"><title>ExpConst2</title>
<ellipse fill="none" stroke="black" cx="1283.65" cy="-90" rx="50.0912" ry="18"/>
<text text-anchor="middle" x="1283.65" y="-86.3" font-family="Times,serif" font-size="14.00">ExpConst2</text>
</g>
<!-- Value2: 12 -->
<g id="node6" class="node"><title>Value2: 12</title>
<ellipse fill="none" stroke="black" cx="1283.65" cy="-18" rx="50.0912" ry="18"/>
<text text-anchor="middle" x="1283.65" y="-14.3" font-family="Times,serif" font-size="14.00">Value2: 12</text>
</g>
<!-- ExpConst2&#45;&gt;Value2: 12 -->
<g id="edge4" class="edge"><title>ExpConst2&#45;&gt;Value2: 12</title>
<path fill="none" stroke="black" d="M1283.65,-71.6966C1283.65,-63.9827 1283.65,-54.7125 1283.65,-46.1124"/>
<polygon fill="black" stroke="black" points="1287.15,-46.1043 1283.65,-36.1043 1280.15,-46.1044 1287.15,-46.1043"/>
</g>
<!-- StatSeq2 -->
<g id="node7" class="node"><title>StatSeq2</title>
<ellipse fill="none" stroke="black" cx="691.645" cy="-522" rx="42.4939" ry="18"/>
<text text-anchor="middle" x="691.645" y="-518.3" font-family="Times,serif" font-size="14.00">StatSeq2</text>
</g>
<!-- StatMove0 -->
<g id="node8" class="node"><title>StatMove0</title>
<ellipse fill="none" stroke="black" cx="371.645" cy="-450" rx="50.0912" ry="18"/>
<text text-anchor="middle" x="371.645" y="-446.3" font-family="Times,serif" font-size="14.00">StatMove0</text>
</g>
<!-- StatSeq2&#45;&gt;StatMove0 -->
<g id="edge5" class="edge"><title>StatSeq2&#45;&gt;StatMove0</title>
<path fill="none" stroke="black" d="M660.276,-509.848C653.828,-507.753 647.052,-505.692 640.645,-504 567.577,-484.708 481.675,-468.96 426.962,-459.78"/>
<polygon fill="black" stroke="black" points="427.223,-456.275 416.784,-458.088 426.075,-463.18 427.223,-456.275"/>
</g>
<!-- StatMove1 -->
<g id="node9" class="node"><title>StatMove1</title>
<ellipse fill="none" stroke="black" cx="691.645" cy="-450" rx="50.0912" ry="18"/>
<text text-anchor="middle" x="691.645" y="-446.3" font-family="Times,serif" font-size="14.00">StatMove1</text>
</g>
<!-- StatSeq2&#45;&gt;StatMove1 -->
<g id="edge6" class="edge"><title>StatSeq2&#45;&gt;StatMove1</title>
<path fill="none" stroke="black" d="M691.645,-503.697C691.645,-495.983 691.645,-486.712 691.645,-478.112"/>
<polygon fill="black" stroke="black" points="695.145,-478.104 691.645,-468.104 688.145,-478.104 695.145,-478.104"/>
</g>
<!-- ExpMem1 -->
<g id="node10" class="node"><title>ExpMem1</title>
<ellipse fill="none" stroke="black" cx="371.645" cy="-378" rx="48.9926" ry="18"/>
<text text-anchor="middle" x="371.645" y="-374.3" font-family="Times,serif" font-size="14.00">ExpMem1</text>
</g>
<!-- StatMove0&#45;&gt;ExpMem1 -->
<g id="edge22" class="edge"><title>StatMove0&#45;&gt;ExpMem1</title>
<path fill="none" stroke="black" d="M371.645,-431.697C371.645,-423.983 371.645,-414.712 371.645,-406.112"/>
<polygon fill="black" stroke="black" points="375.145,-406.104 371.645,-396.104 368.145,-406.104 375.145,-406.104"/>
</g>
<!-- ExpMem0 -->
<g id="node14" class="node"><title>ExpMem0</title>
<ellipse fill="none" stroke="black" cx="204.645" cy="-378" rx="48.9926" ry="18"/>
<text text-anchor="middle" x="204.645" y="-374.3" font-family="Times,serif" font-size="14.00">ExpMem0</text>
</g>
<!-- StatMove0&#45;&gt;ExpMem0 -->
<g id="edge21" class="edge"><title>StatMove0&#45;&gt;ExpMem0</title>
<path fill="none" stroke="black" d="M340.234,-435.834C313.324,-424.554 274.398,-408.238 245.15,-395.978"/>
<polygon fill="black" stroke="black" points="246.209,-392.627 235.633,-391.989 243.503,-399.083 246.209,-392.627"/>
</g>
<!-- ExpMem2 -->
<g id="node36" class="node"><title>ExpMem2</title>
<ellipse fill="none" stroke="black" cx="638.645" cy="-378" rx="48.9926" ry="18"/>
<text text-anchor="middle" x="638.645" y="-374.3" font-family="Times,serif" font-size="14.00">ExpMem2</text>
</g>
<!-- StatMove1&#45;&gt;ExpMem2 -->
<g id="edge31" class="edge"><title>StatMove1&#45;&gt;ExpMem2</title>
<path fill="none" stroke="black" d="M679.085,-432.411C672.551,-423.781 664.435,-413.062 657.193,-403.497"/>
<polygon fill="black" stroke="black" points="659.942,-401.33 651.115,-395.47 654.361,-405.555 659.942,-401.33"/>
</g>
<!-- ExpCall0 -->
<g id="node37" class="node"><title>ExpCall0</title>
<ellipse fill="none" stroke="black" cx="824.645" cy="-378" rx="44.393" ry="18"/>
<text text-anchor="middle" x="824.645" y="-374.3" font-family="Times,serif" font-size="14.00">ExpCall0</text>
</g>
<!-- StatMove1&#45;&gt;ExpCall0 -->
<g id="edge32" class="edge"><title>StatMove1&#45;&gt;ExpCall0</title>
<path fill="none" stroke="black" d="M718.881,-434.666C739.229,-423.956 767.219,-409.224 789.294,-397.606"/>
<polygon fill="black" stroke="black" points="791.134,-400.593 798.353,-392.838 787.873,-394.399 791.134,-400.593"/>
</g>
<!-- ExpTemp1 -->
<g id="node11" class="node"><title>ExpTemp1</title>
<ellipse fill="none" stroke="black" cx="371.645" cy="-306" rx="50.0912" ry="18"/>
<text text-anchor="middle" x="371.645" y="-302.3" font-family="Times,serif" font-size="14.00">ExpTemp1</text>
</g>
<!-- ExpMem1&#45;&gt;ExpTemp1 -->
<g id="edge7" class="edge"><title>ExpMem1&#45;&gt;ExpTemp1</title>
<path fill="none" stroke="black" d="M371.645,-359.697C371.645,-351.983 371.645,-342.712 371.645,-334.112"/>
<polygon fill="black" stroke="black" points="375.145,-334.104 371.645,-324.104 368.145,-334.104 375.145,-334.104"/>
</g>
<!-- Temp1: $fp -->
<g id="node25" class="node"><title>Temp1: $fp</title>
<ellipse fill="none" stroke="black" cx="371.645" cy="-234" rx="52.7911" ry="18"/>
<text text-anchor="middle" x="371.645" y="-230.3" font-family="Times,serif" font-size="14.00">Temp1: $fp</text>
</g>
<!-- ExpTemp1&#45;&gt;Temp1: $fp -->
<g id="edge16" class="edge"><title>ExpTemp1&#45;&gt;Temp1: $fp</title>
<path fill="none" stroke="black" d="M371.645,-287.697C371.645,-279.983 371.645,-270.712 371.645,-262.112"/>
<polygon fill="black" stroke="black" points="375.145,-262.104 371.645,-252.104 368.145,-262.104 375.145,-262.104"/>
</g>
<!-- ExpConst0 -->
<g id="node12" class="node"><title>ExpConst0</title>
<ellipse fill="none" stroke="black" cx="250.645" cy="-234" rx="50.0912" ry="18"/>
<text text-anchor="middle" x="250.645" y="-230.3" font-family="Times,serif" font-size="14.00">ExpConst0</text>
</g>
<!-- Value0: 12 -->
<g id="node13" class="node"><title>Value0: 12</title>
<ellipse fill="none" stroke="black" cx="250.645" cy="-162" rx="50.0912" ry="18"/>
<text text-anchor="middle" x="250.645" y="-158.3" font-family="Times,serif" font-size="14.00">Value0: 12</text>
</g>
<!-- ExpConst0&#45;&gt;Value0: 12 -->
<g id="edge8" class="edge"><title>ExpConst0&#45;&gt;Value0: 12</title>
<path fill="none" stroke="black" d="M250.645,-215.697C250.645,-207.983 250.645,-198.712 250.645,-190.112"/>
<polygon fill="black" stroke="black" points="254.145,-190.104 250.645,-180.104 247.145,-190.104 254.145,-190.104"/>
</g>
<!-- ExpBinary0 -->
<g id="node15" class="node"><title>ExpBinary0</title>
<ellipse fill="none" stroke="black" cx="201.645" cy="-306" rx="53.0913" ry="18"/>
<text text-anchor="middle" x="201.645" y="-302.3" font-family="Times,serif" font-size="14.00">ExpBinary0</text>
</g>
<!-- ExpMem0&#45;&gt;ExpBinary0 -->
<g id="edge9" class="edge"><title>ExpMem0&#45;&gt;ExpBinary0</title>
<path fill="none" stroke="black" d="M203.904,-359.697C203.573,-351.983 203.176,-342.712 202.807,-334.112"/>
<polygon fill="black" stroke="black" points="206.303,-333.945 202.378,-324.104 199.31,-334.245 206.303,-333.945"/>
</g>
<!-- ExpBinary0&#45;&gt;ExpConst0 -->
<g id="edge26" class="edge"><title>ExpBinary0&#45;&gt;ExpConst0</title>
<path fill="none" stroke="black" d="M213.258,-288.411C219.151,-279.992 226.436,-269.585 233.005,-260.201"/>
<polygon fill="black" stroke="black" points="235.909,-262.156 238.776,-251.956 230.174,-258.141 235.909,-262.156"/>
</g>
<!-- ExpTemp0 -->
<g id="node29" class="node"><title>ExpTemp0</title>
<ellipse fill="none" stroke="black" cx="52.6453" cy="-234" rx="50.0912" ry="18"/>
<text text-anchor="middle" x="52.6453" y="-230.3" font-family="Times,serif" font-size="14.00">ExpTemp0</text>
</g>
<!-- ExpBinary0&#45;&gt;ExpTemp0 -->
<g id="edge24" class="edge"><title>ExpBinary0&#45;&gt;ExpTemp0</title>
<path fill="none" stroke="black" d="M171.851,-291.003C148.657,-280.106 116.289,-264.9 91.1339,-253.082"/>
<polygon fill="black" stroke="black" points="92.4194,-249.819 81.8802,-248.734 89.4429,-256.155 92.4194,-249.819"/>
</g>
<!-- Plus0 -->
<g id="node33" class="node"><title>Plus0</title>
<ellipse fill="none" stroke="black" cx="151.645" cy="-234" rx="30.5947" ry="18"/>
<text text-anchor="middle" x="151.645" y="-230.3" font-family="Times,serif" font-size="14.00">Plus0</text>
</g>
<!-- ExpBinary0&#45;&gt;Plus0 -->
<g id="edge25" class="edge"><title>ExpBinary0&#45;&gt;Plus0</title>
<path fill="none" stroke="black" d="M189.796,-288.411C183.605,-279.744 175.91,-268.971 169.056,-259.375"/>
<polygon fill="black" stroke="black" points="171.726,-257.091 163.065,-250.988 166.03,-261.16 171.726,-257.091"/>
</g>
<!-- ExpBinary1 -->
<g id="node16" class="node"><title>ExpBinary1</title>
<ellipse fill="none" stroke="black" cx="600.645" cy="-306" rx="53.0913" ry="18"/>
<text text-anchor="middle" x="600.645" y="-302.3" font-family="Times,serif" font-size="14.00">ExpBinary1</text>
</g>
<!-- ExpTemp2 -->
<g id="node17" class="node"><title>ExpTemp2</title>
<ellipse fill="none" stroke="black" cx="492.645" cy="-234" rx="50.0912" ry="18"/>
<text text-anchor="middle" x="492.645" y="-230.3" font-family="Times,serif" font-size="14.00">ExpTemp2</text>
</g>
<!-- ExpBinary1&#45;&gt;ExpTemp2 -->
<g id="edge10" class="edge"><title>ExpBinary1&#45;&gt;ExpTemp2</title>
<path fill="none" stroke="black" d="M577.211,-289.811C561.785,-279.813 541.396,-266.598 524.504,-255.649"/>
<polygon fill="black" stroke="black" points="526.329,-252.661 516.034,-250.159 522.522,-258.535 526.329,-252.661"/>
</g>
<!-- Plus1 -->
<g id="node18" class="node"><title>Plus1</title>
<ellipse fill="none" stroke="black" cx="591.645" cy="-234" rx="30.5947" ry="18"/>
<text text-anchor="middle" x="591.645" y="-230.3" font-family="Times,serif" font-size="14.00">Plus1</text>
</g>
<!-- ExpBinary1&#45;&gt;Plus1 -->
<g id="edge11" class="edge"><title>ExpBinary1&#45;&gt;Plus1</title>
<path fill="none" stroke="black" d="M598.421,-287.697C597.429,-279.983 596.237,-270.712 595.131,-262.112"/>
<polygon fill="black" stroke="black" points="598.591,-261.576 593.844,-252.104 591.648,-262.469 598.591,-261.576"/>
</g>
<!-- ExpConst1 -->
<g id="node19" class="node"><title>ExpConst1</title>
<ellipse fill="none" stroke="black" cx="690.645" cy="-234" rx="50.0912" ry="18"/>
<text text-anchor="middle" x="690.645" y="-230.3" font-family="Times,serif" font-size="14.00">ExpConst1</text>
</g>
<!-- ExpBinary1&#45;&gt;ExpConst1 -->
<g id="edge12" class="edge"><title>ExpBinary1&#45;&gt;ExpConst1</title>
<path fill="none" stroke="black" d="M621.068,-289.116C633.351,-279.562 649.159,-267.267 662.602,-256.812"/>
<polygon fill="black" stroke="black" points="664.869,-259.482 670.614,-250.58 660.571,-253.957 664.869,-259.482"/>
</g>
<!-- Temp2: $fp -->
<g id="node34" class="node"><title>Temp2: $fp</title>
<ellipse fill="none" stroke="black" cx="492.645" cy="-162" rx="52.7911" ry="18"/>
<text text-anchor="middle" x="492.645" y="-158.3" font-family="Times,serif" font-size="14.00">Temp2: $fp</text>
</g>
<!-- ExpTemp2&#45;&gt;Temp2: $fp -->
<g id="edge27" class="edge"><title>ExpTemp2&#45;&gt;Temp2: $fp</title>
<path fill="none" stroke="black" d="M492.645,-215.697C492.645,-207.983 492.645,-198.712 492.645,-190.112"/>
<polygon fill="black" stroke="black" points="496.145,-190.104 492.645,-180.104 489.145,-190.104 496.145,-190.104"/>
</g>
<!-- Value1: 8 -->
<g id="node35" class="node"><title>Value1: 8</title>
<ellipse fill="none" stroke="black" cx="690.645" cy="-162" rx="45.4919" ry="18"/>
<text text-anchor="middle" x="690.645" y="-158.3" font-family="Times,serif" font-size="14.00">Value1: 8</text>
</g>
<!-- ExpConst1&#45;&gt;Value1: 8 -->
<g id="edge30" class="edge"><title>ExpConst1&#45;&gt;Value1: 8</title>
<path fill="none" stroke="black" d="M690.645,-215.697C690.645,-207.983 690.645,-198.712 690.645,-190.112"/>
<polygon fill="black" stroke="black" points="694.145,-190.104 690.645,-180.104 687.145,-190.104 694.145,-190.104"/>
</g>
<!-- ExpMem3 -->
<g id="node20" class="node"><title>ExpMem3</title>
<ellipse fill="none" stroke="black" cx="1015.65" cy="-234" rx="48.9926" ry="18"/>
<text text-anchor="middle" x="1015.65" y="-230.3" font-family="Times,serif" font-size="14.00">ExpMem3</text>
</g>
<!-- ExpTemp3 -->
<g id="node21" class="node"><title>ExpTemp3</title>
<ellipse fill="none" stroke="black" cx="1013.65" cy="-162" rx="50.0912" ry="18"/>
<text text-anchor="middle" x="1013.65" y="-158.3" font-family="Times,serif" font-size="14.00">ExpTemp3</text>
</g>
<!-- ExpMem3&#45;&gt;ExpTemp3 -->
<g id="edge13" class="edge"><title>ExpMem3&#45;&gt;ExpTemp3</title>
<path fill="none" stroke="black" d="M1015.15,-215.697C1014.93,-207.983 1014.67,-198.712 1014.42,-190.112"/>
<polygon fill="black" stroke="black" points="1017.92,-190 1014.13,-180.104 1010.92,-190.2 1017.92,-190"/>
</g>
<!-- Temp3: $fp -->
<g id="node28" class="node"><title>Temp3: $fp</title>
<ellipse fill="none" stroke="black" cx="964.645" cy="-90" rx="52.7911" ry="18"/>
<text text-anchor="middle" x="964.645" y="-86.3" font-family="Times,serif" font-size="14.00">Temp3: $fp</text>
</g>
<!-- ExpTemp3&#45;&gt;Temp3: $fp -->
<g id="edge19" class="edge"><title>ExpTemp3&#45;&gt;Temp3: $fp</title>
<path fill="none" stroke="black" d="M1002.03,-144.411C996.139,-135.992 988.855,-125.585 982.286,-116.201"/>
<polygon fill="black" stroke="black" points="985.117,-114.141 976.515,-107.956 979.382,-118.156 985.117,-114.141"/>
</g>
<!-- StatLabel0 -->
<g id="node22" class="node"><title>StatLabel0</title>
<ellipse fill="none" stroke="black" cx="566.645" cy="-594" rx="48.9926" ry="18"/>
<text text-anchor="middle" x="566.645" y="-590.3" font-family="Times,serif" font-size="14.00">StatLabel0</text>
</g>
<!-- Label0: Tree@Print -->
<g id="node23" class="node"><title>Label0: Tree@Print</title>
<ellipse fill="none" stroke="black" cx="550.645" cy="-522" rx="81.4863" ry="18"/>
<text text-anchor="middle" x="550.645" y="-518.3" font-family="Times,serif" font-size="14.00">Label0: Tree@Print</text>
</g>
<!-- StatLabel0&#45;&gt;Label0: Tree@Print -->
<g id="edge14" class="edge"><title>StatLabel0&#45;&gt;Label0: Tree@Print</title>
<path fill="none" stroke="black" d="M562.772,-576.055C560.991,-568.261 558.833,-558.822 556.835,-550.079"/>
<polygon fill="black" stroke="black" points="560.234,-549.244 554.594,-540.275 553.41,-550.804 560.234,-549.244"/>
</g>
<!-- StatSeq0 -->
<g id="node26" class="node"><title>StatSeq0</title>
<ellipse fill="none" stroke="black" cx="628.645" cy="-666" rx="42.4939" ry="18"/>
<text text-anchor="middle" x="628.645" y="-662.3" font-family="Times,serif" font-size="14.00">StatSeq0</text>
</g>
<!-- StatSeq0&#45;&gt;StatLabel0 -->
<g id="edge17" class="edge"><title>StatSeq0&#45;&gt;StatLabel0</title>
<path fill="none" stroke="black" d="M614.265,-648.765C606.475,-639.969 596.696,-628.928 588.03,-619.144"/>
<polygon fill="black" stroke="black" points="590.628,-616.799 581.378,-611.633 585.388,-621.44 590.628,-616.799"/>
</g>
<!-- StatSeq1 -->
<g id="node27" class="node"><title>StatSeq1</title>
<ellipse fill="none" stroke="black" cx="691.645" cy="-594" rx="42.4939" ry="18"/>
<text text-anchor="middle" x="691.645" y="-590.3" font-family="Times,serif" font-size="14.00">StatSeq1</text>
</g>
<!-- StatSeq0&#45;&gt;StatSeq1 -->
<g id="edge18" class="edge"><title>StatSeq0&#45;&gt;StatSeq1</title>
<path fill="none" stroke="black" d="M643.257,-648.765C651.288,-639.841 661.398,-628.608 670.298,-618.719"/>
<polygon fill="black" stroke="black" points="673.025,-620.922 677.113,-611.147 667.822,-616.239 673.025,-620.922"/>
</g>
<!-- StatSeq1&#45;&gt;StatMove2 -->
<g id="edge29" class="edge"><title>StatSeq1&#45;&gt;StatMove2</title>
<path fill="none" stroke="black" d="M725.73,-583.34C768.569,-571.2 842.344,-550.292 890.815,-536.555"/>
<polygon fill="black" stroke="black" points="891.788,-539.917 900.455,-533.823 889.879,-533.183 891.788,-539.917"/>
</g>
<!-- StatSeq1&#45;&gt;StatSeq2 -->
<g id="edge28" class="edge"><title>StatSeq1&#45;&gt;StatSeq2</title>
<path fill="none" stroke="black" d="M691.645,-575.697C691.645,-567.983 691.645,-558.712 691.645,-550.112"/>
<polygon fill="black" stroke="black" points="695.145,-550.104 691.645,-540.104 688.145,-550.104 695.145,-550.104"/>
</g>
<!-- Temp0: $fp -->
<g id="node30" class="node"><title>Temp0: $fp</title>
<ellipse fill="none" stroke="black" cx="52.6453" cy="-162" rx="52.7911" ry="18"/>
<text text-anchor="middle" x="52.6453" y="-158.3" font-family="Times,serif" font-size="14.00">Temp0: $fp</text>
</g>
<!-- ExpTemp0&#45;&gt;Temp0: $fp -->
<g id="edge20" class="edge"><title>ExpTemp0&#45;&gt;Temp0: $fp</title>
<path fill="none" stroke="black" d="M52.6453,-215.697C52.6453,-207.983 52.6453,-198.712 52.6453,-190.112"/>
<polygon fill="black" stroke="black" points="56.1454,-190.104 52.6453,-180.104 49.1454,-190.104 56.1454,-190.104"/>
</g>
<!-- ExpMem4 -->
<g id="node31" class="node"><title>ExpMem4</title>
<ellipse fill="none" stroke="black" cx="1133.65" cy="-234" rx="48.9926" ry="18"/>
<text text-anchor="middle" x="1133.65" y="-230.3" font-family="Times,serif" font-size="14.00">ExpMem4</text>
</g>
<!-- ExpBinary2 -->
<g id="node32" class="node"><title>ExpBinary2</title>
<ellipse fill="none" stroke="black" cx="1134.65" cy="-162" rx="53.0913" ry="18"/>
<text text-anchor="middle" x="1134.65" y="-158.3" font-family="Times,serif" font-size="14.00">ExpBinary2</text>
</g>
<!-- ExpMem4&#45;&gt;ExpBinary2 -->
<g id="edge23" class="edge"><title>ExpMem4&#45;&gt;ExpBinary2</title>
<path fill="none" stroke="black" d="M1133.89,-215.697C1134,-207.983 1134.14,-198.712 1134.26,-190.112"/>
<polygon fill="black" stroke="black" points="1137.76,-190.153 1134.4,-180.104 1130.76,-190.053 1137.76,-190.153"/>
</g>
<!-- ExpBinary2&#45;&gt;ExpConst2 -->
<g id="edge40" class="edge"><title>ExpBinary2&#45;&gt;ExpConst2</title>
<path fill="none" stroke="black" d="M1164.44,-147.003C1187.63,-136.106 1220,-120.9 1245.16,-109.082"/>
<polygon fill="black" stroke="black" points="1246.85,-112.155 1254.41,-104.734 1243.87,-105.819 1246.85,-112.155"/>
</g>
<!-- ExpTemp4 -->
<g id="node41" class="node"><title>ExpTemp4</title>
<ellipse fill="none" stroke="black" cx="1085.65" cy="-90" rx="50.0912" ry="18"/>
<text text-anchor="middle" x="1085.65" y="-86.3" font-family="Times,serif" font-size="14.00">ExpTemp4</text>
</g>
<!-- ExpBinary2&#45;&gt;ExpTemp4 -->
<g id="edge38" class="edge"><title>ExpBinary2&#45;&gt;ExpTemp4</title>
<path fill="none" stroke="black" d="M1123.03,-144.411C1117.14,-135.992 1109.85,-125.585 1103.29,-116.201"/>
<polygon fill="black" stroke="black" points="1106.12,-114.141 1097.51,-107.956 1100.38,-118.156 1106.12,-114.141"/>
</g>
<!-- Plus2 -->
<g id="node43" class="node"><title>Plus2</title>
<ellipse fill="none" stroke="black" cx="1184.65" cy="-90" rx="30.5947" ry="18"/>
<text text-anchor="middle" x="1184.65" y="-86.3" font-family="Times,serif" font-size="14.00">Plus2</text>
</g>
<!-- ExpBinary2&#45;&gt;Plus2 -->
<g id="edge39" class="edge"><title>ExpBinary2&#45;&gt;Plus2</title>
<path fill="none" stroke="black" d="M1146.49,-144.411C1152.69,-135.744 1160.38,-124.971 1167.23,-115.375"/>
<polygon fill="black" stroke="black" points="1170.26,-117.16 1173.23,-106.988 1164.56,-113.091 1170.26,-117.16"/>
</g>
<!-- ExpMem2&#45;&gt;ExpBinary1 -->
<g id="edge34" class="edge"><title>ExpMem2&#45;&gt;ExpBinary1</title>
<path fill="none" stroke="black" d="M629.447,-360.055C625.012,-351.887 619.597,-341.912 614.664,-332.824"/>
<polygon fill="black" stroke="black" points="617.606,-330.908 609.759,-323.789 611.454,-334.247 617.606,-330.908"/>
</g>
<!-- ExpName0 -->
<g id="node38" class="node"><title>ExpName0</title>
<ellipse fill="none" stroke="black" cx="834.645" cy="-306" rx="50.8918" ry="18"/>
<text text-anchor="middle" x="834.645" y="-302.3" font-family="Times,serif" font-size="14.00">ExpName0</text>
</g>
<!-- ExpCall0&#45;&gt;ExpName0 -->
<g id="edge35" class="edge"><title>ExpCall0&#45;&gt;ExpName0</title>
<path fill="none" stroke="black" d="M827.117,-359.697C828.219,-351.983 829.544,-342.712 830.772,-334.112"/>
<polygon fill="black" stroke="black" points="834.252,-334.499 832.202,-324.104 827.323,-333.509 834.252,-334.499"/>
</g>
<!-- ExpList0 -->
<g id="node40" class="node"><title>ExpList0</title>
<ellipse fill="none" stroke="black" cx="1015.65" cy="-306" rx="42.7926" ry="18"/>
<text text-anchor="middle" x="1015.65" y="-302.3" font-family="Times,serif" font-size="14.00">ExpList0</text>
</g>
<!-- ExpCall0&#45;&gt;ExpList0 -->
<g id="edge36" class="edge"><title>ExpCall0&#45;&gt;ExpList0</title>
<path fill="none" stroke="black" d="M856.614,-365.284C889.133,-353.366 939.638,-334.856 974.984,-321.902"/>
<polygon fill="black" stroke="black" points="976.339,-325.133 984.524,-318.406 973.93,-318.561 976.339,-325.133"/>
</g>
<!-- Label1: Tree@RecPrint -->
<g id="node39" class="node"><title>Label1: Tree@RecPrint</title>
<ellipse fill="none" stroke="black" cx="853.645" cy="-234" rx="94.7833" ry="18"/>
<text text-anchor="middle" x="853.645" y="-230.3" font-family="Times,serif" font-size="14.00">Label1: Tree@RecPrint</text>
</g>
<!-- ExpName0&#45;&gt;Label1: Tree@RecPrint -->
<g id="edge33" class="edge"><title>ExpName0&#45;&gt;Label1: Tree@RecPrint</title>
<path fill="none" stroke="black" d="M839.245,-288.055C841.36,-280.261 843.922,-270.822 846.295,-262.079"/>
<polygon fill="black" stroke="black" points="849.715,-262.843 848.956,-252.275 842.959,-261.009 849.715,-262.843"/>
</g>
<!-- ExpList0&#45;&gt;ExpMem3 -->
<g id="edge41" class="edge"><title>ExpList0&#45;&gt;ExpMem3</title>
<path fill="none" stroke="black" d="M1015.65,-287.697C1015.65,-279.983 1015.65,-270.712 1015.65,-262.112"/>
<polygon fill="black" stroke="black" points="1019.15,-262.104 1015.65,-252.104 1012.15,-262.104 1019.15,-262.104"/>
</g>
<!-- ExpList0&#45;&gt;ExpMem4 -->
<g id="edge42" class="edge"><title>ExpList0&#45;&gt;ExpMem4</title>
<path fill="none" stroke="black" d="M1039.52,-290.834C1056.97,-280.488 1080.84,-266.323 1100.19,-254.849"/>
<polygon fill="black" stroke="black" points="1102.17,-257.739 1108.99,-249.626 1098.6,-251.718 1102.17,-257.739"/>
</g>
<!-- Temp4: $fp -->
<g id="node42" class="node"><title>Temp4: $fp</title>
<ellipse fill="none" stroke="black" cx="1085.65" cy="-18" rx="52.7911" ry="18"/>
<text text-anchor="middle" x="1085.65" y="-14.3" font-family="Times,serif" font-size="14.00">Temp4: $fp</text>
</g>
<!-- ExpTemp4&#45;&gt;Temp4: $fp -->
<g id="edge37" class="edge"><title>ExpTemp4&#45;&gt;Temp4: $fp</title>
<path fill="none" stroke="black" d="M1085.65,-71.6966C1085.65,-63.9827 1085.65,-54.7125 1085.65,-46.1124"/>
<polygon fill="black" stroke="black" points="1089.15,-46.1043 1085.65,-36.1043 1082.15,-46.1044 1089.15,-46.1043"/>
</g>
</g>
</svg>
