<?xml version="1.0" encoding="UTF-8" standalone="no"?>
<!DOCTYPE svg PUBLIC "-//W3C//DTD SVG 1.1//EN"
 "http://www.w3.org/Graphics/SVG/1.1/DTD/svg11.dtd">
<!-- Generated by graphviz version 2.38.0 (20140413.2041)
 -->
<!-- Title: %3 Pages: 1 -->
<svg width="560pt" height="548pt"
 viewBox="0.00 0.00 560.09 548.00" xmlns="http://www.w3.org/2000/svg" xmlns:xlink="http://www.w3.org/1999/xlink">
<g id="graph0" class="graph" transform="scale(1 1) rotate(0) translate(4 544)">
<title>%3</title>
<polygon fill="white" stroke="none" points="-4,4 -4,-544 556.087,-544 556.087,4 -4,4"/>
<!-- StatMove0 -->
<g id="node1" class="node"><title>StatMove0</title>
<ellipse fill="none" stroke="black" cx="281.591" cy="-450" rx="50.0912" ry="18"/>
<text text-anchor="middle" x="281.591" y="-446.3" font-family="Times,serif" font-size="14.00">StatMove0</text>
</g>
<!-- ExpTemp0 -->
<g id="node2" class="node"><title>ExpTemp0</title>
<ellipse fill="none" stroke="black" cx="281.591" cy="-378" rx="50.0912" ry="18"/>
<text text-anchor="middle" x="281.591" y="-374.3" font-family="Times,serif" font-size="14.00">ExpTemp0</text>
</g>
<!-- StatMove0&#45;&gt;ExpTemp0 -->
<g id="edge1" class="edge"><title>StatMove0&#45;&gt;ExpTemp0</title>
<path fill="none" stroke="black" d="M281.591,-431.697C281.591,-423.983 281.591,-414.712 281.591,-406.112"/>
<polygon fill="black" stroke="black" points="285.091,-406.104 281.591,-396.104 278.091,-406.104 285.091,-406.104"/>
</g>
<!-- ExpMem0 -->
<g id="node3" class="node"><title>ExpMem0</title>
<ellipse fill="none" stroke="black" cx="408.591" cy="-378" rx="48.9926" ry="18"/>
<text text-anchor="middle" x="408.591" y="-374.3" font-family="Times,serif" font-size="14.00">ExpMem0</text>
</g>
<!-- StatMove0&#45;&gt;ExpMem0 -->
<g id="edge2" class="edge"><title>StatMove0&#45;&gt;ExpMem0</title>
<path fill="none" stroke="black" d="M307.905,-434.496C326.892,-424.031 352.727,-409.791 373.473,-398.356"/>
<polygon fill="black" stroke="black" points="375.241,-401.378 382.31,-393.485 371.862,-395.247 375.241,-401.378"/>
</g>
<!-- Temp0: RetVal -->
<g id="node9" class="node"><title>Temp0: RetVal</title>
<ellipse fill="none" stroke="black" cx="276.591" cy="-306" rx="65.7887" ry="18"/>
<text text-anchor="middle" x="276.591" y="-302.3" font-family="Times,serif" font-size="14.00">Temp0: RetVal</text>
</g>
<!-- ExpTemp0&#45;&gt;Temp0: RetVal -->
<g id="edge7" class="edge"><title>ExpTemp0&#45;&gt;Temp0: RetVal</title>
<path fill="none" stroke="black" d="M280.355,-359.697C279.804,-351.983 279.141,-342.712 278.527,-334.112"/>
<polygon fill="black" stroke="black" points="282.016,-333.83 277.812,-324.104 275.034,-334.328 282.016,-333.83"/>
</g>
<!-- ExpBinary0 -->
<g id="node4" class="node"><title>ExpBinary0</title>
<ellipse fill="none" stroke="black" cx="413.591" cy="-306" rx="53.0913" ry="18"/>
<text text-anchor="middle" x="413.591" y="-302.3" font-family="Times,serif" font-size="14.00">ExpBinary0</text>
</g>
<!-- ExpMem0&#45;&gt;ExpBinary0 -->
<g id="edge12" class="edge"><title>ExpMem0&#45;&gt;ExpBinary0</title>
<path fill="none" stroke="black" d="M409.826,-359.697C410.377,-351.983 411.04,-342.712 411.654,-334.112"/>
<polygon fill="black" stroke="black" points="415.147,-334.328 412.369,-324.104 408.165,-333.83 415.147,-334.328"/>
</g>
<!-- ExpMem1 -->
<g id="node5" class="node"><title>ExpMem1</title>
<ellipse fill="none" stroke="black" cx="316.591" cy="-234" rx="48.9926" ry="18"/>
<text text-anchor="middle" x="316.591" y="-230.3" font-family="Times,serif" font-size="14.00">ExpMem1</text>
</g>
<!-- ExpBinary0&#45;&gt;ExpMem1 -->
<g id="edge3" class="edge"><title>ExpBinary0&#45;&gt;ExpMem1</title>
<path fill="none" stroke="black" d="M392.063,-289.465C378.532,-279.7 360.895,-266.972 346.073,-256.276"/>
<polygon fill="black" stroke="black" points="347.881,-253.265 337.724,-250.251 343.785,-258.941 347.881,-253.265"/>
</g>
<!-- Plus1 -->
<g id="node6" class="node"><title>Plus1</title>
<ellipse fill="none" stroke="black" cx="413.591" cy="-234" rx="30.5947" ry="18"/>
<text text-anchor="middle" x="413.591" y="-230.3" font-family="Times,serif" font-size="14.00">Plus1</text>
</g>
<!-- ExpBinary0&#45;&gt;Plus1 -->
<g id="edge4" class="edge"><title>ExpBinary0&#45;&gt;Plus1</title>
<path fill="none" stroke="black" d="M413.591,-287.697C413.591,-279.983 413.591,-270.712 413.591,-262.112"/>
<polygon fill="black" stroke="black" points="417.091,-262.104 413.591,-252.104 410.091,-262.104 417.091,-262.104"/>
</g>
<!-- ExpCall1 -->
<g id="node7" class="node"><title>ExpCall1</title>
<ellipse fill="none" stroke="black" cx="506.591" cy="-234" rx="44.393" ry="18"/>
<text text-anchor="middle" x="506.591" y="-230.3" font-family="Times,serif" font-size="14.00">ExpCall1</text>
</g>
<!-- ExpBinary0&#45;&gt;ExpCall1 -->
<g id="edge5" class="edge"><title>ExpBinary0&#45;&gt;ExpCall1</title>
<path fill="none" stroke="black" d="M434.694,-289.116C447.564,-279.429 464.179,-266.923 478.194,-256.374"/>
<polygon fill="black" stroke="black" points="480.642,-258.912 486.527,-250.101 476.433,-253.319 480.642,-258.912"/>
</g>
<!-- ExpBinary1 -->
<g id="node15" class="node"><title>ExpBinary1</title>
<ellipse fill="none" stroke="black" cx="316.591" cy="-162" rx="53.0913" ry="18"/>
<text text-anchor="middle" x="316.591" y="-158.3" font-family="Times,serif" font-size="14.00">ExpBinary1</text>
</g>
<!-- ExpMem1&#45;&gt;ExpBinary1 -->
<g id="edge17" class="edge"><title>ExpMem1&#45;&gt;ExpBinary1</title>
<path fill="none" stroke="black" d="M316.591,-215.697C316.591,-207.983 316.591,-198.712 316.591,-190.112"/>
<polygon fill="black" stroke="black" points="320.091,-190.104 316.591,-180.104 313.091,-190.104 320.091,-190.104"/>
</g>
<!-- Value1: 0 -->
<g id="node8" class="node"><title>Value1: 0</title>
<ellipse fill="none" stroke="black" cx="506.591" cy="-162" rx="45.4919" ry="18"/>
<text text-anchor="middle" x="506.591" y="-158.3" font-family="Times,serif" font-size="14.00">Value1: 0</text>
</g>
<!-- ExpCall1&#45;&gt;Value1: 0 -->
<g id="edge6" class="edge"><title>ExpCall1&#45;&gt;Value1: 0</title>
<path fill="none" stroke="black" d="M506.591,-215.697C506.591,-207.983 506.591,-198.712 506.591,-190.112"/>
<polygon fill="black" stroke="black" points="510.091,-190.104 506.591,-180.104 503.091,-190.104 510.091,-190.104"/>
</g>
<!-- StatSeq0 -->
<g id="node10" class="node"><title>StatSeq0</title>
<ellipse fill="none" stroke="black" cx="208.591" cy="-522" rx="42.4939" ry="18"/>
<text text-anchor="middle" x="208.591" y="-518.3" font-family="Times,serif" font-size="14.00">StatSeq0</text>
</g>
<!-- StatSeq0&#45;&gt;StatMove0 -->
<g id="edge9" class="edge"><title>StatSeq0&#45;&gt;StatMove0</title>
<path fill="none" stroke="black" d="M225.155,-505.116C234.701,-495.962 246.871,-484.293 257.464,-474.135"/>
<polygon fill="black" stroke="black" points="260.043,-476.511 264.839,-467.064 255.198,-471.459 260.043,-476.511"/>
</g>
<!-- StatLabel0 -->
<g id="node11" class="node"><title>StatLabel0</title>
<ellipse fill="none" stroke="black" cx="135.591" cy="-450" rx="48.9926" ry="18"/>
<text text-anchor="middle" x="135.591" y="-446.3" font-family="Times,serif" font-size="14.00">StatLabel0</text>
</g>
<!-- StatSeq0&#45;&gt;StatLabel0 -->
<g id="edge8" class="edge"><title>StatSeq0&#45;&gt;StatLabel0</title>
<path fill="none" stroke="black" d="M192.026,-505.116C182.48,-495.962 170.31,-484.293 159.717,-474.135"/>
<polygon fill="black" stroke="black" points="161.983,-471.459 152.343,-467.064 157.138,-476.511 161.983,-471.459"/>
</g>
<!-- Label0: Tree::GetHas_Left -->
<g id="node12" class="node"><title>Label0: Tree::GetHas_Left</title>
<ellipse fill="none" stroke="black" cx="106.591" cy="-378" rx="106.681" ry="18"/>
<text text-anchor="middle" x="106.591" y="-374.3" font-family="Times,serif" font-size="14.00">Label0: Tree::GetHas_Left</text>
</g>
<!-- StatLabel0&#45;&gt;Label0: Tree::GetHas_Left -->
<g id="edge10" class="edge"><title>StatLabel0&#45;&gt;Label0: Tree::GetHas_Left</title>
<path fill="none" stroke="black" d="M128.57,-432.055C125.306,-424.176 121.346,-414.617 117.691,-405.794"/>
<polygon fill="black" stroke="black" points="120.808,-404.174 113.747,-396.275 114.341,-406.853 120.808,-404.174"/>
</g>
<!-- ExpTemp1 -->
<g id="node13" class="node"><title>ExpTemp1</title>
<ellipse fill="none" stroke="black" cx="217.591" cy="-90" rx="50.0912" ry="18"/>
<text text-anchor="middle" x="217.591" y="-86.3" font-family="Times,serif" font-size="14.00">ExpTemp1</text>
</g>
<!-- Temp1: FP -->
<g id="node14" class="node"><title>Temp1: FP</title>
<ellipse fill="none" stroke="black" cx="217.591" cy="-18" rx="50.8918" ry="18"/>
<text text-anchor="middle" x="217.591" y="-14.3" font-family="Times,serif" font-size="14.00">Temp1: FP</text>
</g>
<!-- ExpTemp1&#45;&gt;Temp1: FP -->
<g id="edge11" class="edge"><title>ExpTemp1&#45;&gt;Temp1: FP</title>
<path fill="none" stroke="black" d="M217.591,-71.6966C217.591,-63.9827 217.591,-54.7125 217.591,-46.1124"/>
<polygon fill="black" stroke="black" points="221.091,-46.1043 217.591,-36.1043 214.091,-46.1044 221.091,-46.1043"/>
</g>
<!-- ExpBinary1&#45;&gt;ExpTemp1 -->
<g id="edge13" class="edge"><title>ExpBinary1&#45;&gt;ExpTemp1</title>
<path fill="none" stroke="black" d="M294.619,-145.465C280.81,-135.7 262.809,-122.972 247.681,-112.276"/>
<polygon fill="black" stroke="black" points="249.346,-109.167 239.16,-106.251 245.304,-114.882 249.346,-109.167"/>
</g>
<!-- Plus0 -->
<g id="node16" class="node"><title>Plus0</title>
<ellipse fill="none" stroke="black" cx="316.591" cy="-90" rx="30.5947" ry="18"/>
<text text-anchor="middle" x="316.591" y="-86.3" font-family="Times,serif" font-size="14.00">Plus0</text>
</g>
<!-- ExpBinary1&#45;&gt;Plus0 -->
<g id="edge14" class="edge"><title>ExpBinary1&#45;&gt;Plus0</title>
<path fill="none" stroke="black" d="M316.591,-143.697C316.591,-135.983 316.591,-126.712 316.591,-118.112"/>
<polygon fill="black" stroke="black" points="320.091,-118.104 316.591,-108.104 313.091,-118.104 320.091,-118.104"/>
</g>
<!-- ExpCall0 -->
<g id="node17" class="node"><title>ExpCall0</title>
<ellipse fill="none" stroke="black" cx="409.591" cy="-90" rx="44.393" ry="18"/>
<text text-anchor="middle" x="409.591" y="-86.3" font-family="Times,serif" font-size="14.00">ExpCall0</text>
</g>
<!-- ExpBinary1&#45;&gt;ExpCall0 -->
<g id="edge15" class="edge"><title>ExpBinary1&#45;&gt;ExpCall0</title>
<path fill="none" stroke="black" d="M337.694,-145.116C350.564,-135.429 367.179,-122.923 381.194,-112.374"/>
<polygon fill="black" stroke="black" points="383.642,-114.912 389.527,-106.101 379.433,-109.319 383.642,-114.912"/>
</g>
<!-- Value0: 0 -->
<g id="node18" class="node"><title>Value0: 0</title>
<ellipse fill="none" stroke="black" cx="409.591" cy="-18" rx="45.4919" ry="18"/>
<text text-anchor="middle" x="409.591" y="-14.3" font-family="Times,serif" font-size="14.00">Value0: 0</text>
</g>
<!-- ExpCall0&#45;&gt;Value0: 0 -->
<g id="edge16" class="edge"><title>ExpCall0&#45;&gt;Value0: 0</title>
<path fill="none" stroke="black" d="M409.591,-71.6966C409.591,-63.9827 409.591,-54.7125 409.591,-46.1124"/>
<polygon fill="black" stroke="black" points="413.091,-46.1043 409.591,-36.1043 406.091,-46.1044 413.091,-46.1043"/>
</g>
</g>
</svg>
