<?xml version="1.0" encoding="UTF-8" standalone="no"?>
<!DOCTYPE svg PUBLIC "-//W3C//DTD SVG 1.1//EN"
 "http://www.w3.org/Graphics/SVG/1.1/DTD/svg11.dtd">
<!-- Generated by graphviz version 2.38.0 (20140413.2041)
 -->
<!-- Title: %3 Pages: 1 -->
<svg width="523pt" height="476pt"
 viewBox="0.00 0.00 523.44 476.00" xmlns="http://www.w3.org/2000/svg" xmlns:xlink="http://www.w3.org/1999/xlink">
<g id="graph0" class="graph" transform="scale(1 1) rotate(0) translate(4 472)">
<title>%3</title>
<polygon fill="white" stroke="none" points="-4,4 -4,-472 519.438,-472 519.438,4 -4,4"/>
<!-- ExpMem0 -->
<g id="node1" class="node"><title>ExpMem0</title>
<ellipse fill="none" stroke="black" cx="364.392" cy="-306" rx="48.9926" ry="18"/>
<text text-anchor="middle" x="364.392" y="-302.3" font-family="Times,serif" font-size="14.00">ExpMem0</text>
</g>
<!-- ExpBinary0 -->
<g id="node2" class="node"><title>ExpBinary0</title>
<ellipse fill="none" stroke="black" cx="366.392" cy="-234" rx="53.0913" ry="18"/>
<text text-anchor="middle" x="366.392" y="-230.3" font-family="Times,serif" font-size="14.00">ExpBinary0</text>
</g>
<!-- ExpMem0&#45;&gt;ExpBinary0 -->
<g id="edge1" class="edge"><title>ExpMem0&#45;&gt;ExpBinary0</title>
<path fill="none" stroke="black" d="M364.887,-287.697C365.107,-279.983 365.372,-270.712 365.618,-262.112"/>
<polygon fill="black" stroke="black" points="369.116,-262.2 365.903,-252.104 362.119,-262 369.116,-262.2"/>
</g>
<!-- ExpMem1 -->
<g id="node3" class="node"><title>ExpMem1</title>
<ellipse fill="none" stroke="black" cx="269.392" cy="-162" rx="48.9926" ry="18"/>
<text text-anchor="middle" x="269.392" y="-158.3" font-family="Times,serif" font-size="14.00">ExpMem1</text>
</g>
<!-- ExpBinary0&#45;&gt;ExpMem1 -->
<g id="edge9" class="edge"><title>ExpBinary0&#45;&gt;ExpMem1</title>
<path fill="none" stroke="black" d="M344.865,-217.465C331.334,-207.7 313.697,-194.972 298.875,-184.276"/>
<polygon fill="black" stroke="black" points="300.683,-181.265 290.526,-178.251 296.587,-186.941 300.683,-181.265"/>
</g>
<!-- ExpConst0 -->
<g id="node6" class="node"><title>ExpConst0</title>
<ellipse fill="none" stroke="black" cx="465.392" cy="-162" rx="50.0912" ry="18"/>
<text text-anchor="middle" x="465.392" y="-158.3" font-family="Times,serif" font-size="14.00">ExpConst0</text>
</g>
<!-- ExpBinary0&#45;&gt;ExpConst0 -->
<g id="edge11" class="edge"><title>ExpBinary0&#45;&gt;ExpConst0</title>
<path fill="none" stroke="black" d="M388.363,-217.465C402.173,-207.7 420.174,-194.972 435.302,-184.276"/>
<polygon fill="black" stroke="black" points="437.678,-186.882 443.823,-178.251 433.637,-181.167 437.678,-186.882"/>
</g>
<!-- Plus0 -->
<g id="node14" class="node"><title>Plus0</title>
<ellipse fill="none" stroke="black" cx="366.392" cy="-162" rx="30.5947" ry="18"/>
<text text-anchor="middle" x="366.392" y="-158.3" font-family="Times,serif" font-size="14.00">Plus0</text>
</g>
<!-- ExpBinary0&#45;&gt;Plus0 -->
<g id="edge10" class="edge"><title>ExpBinary0&#45;&gt;Plus0</title>
<path fill="none" stroke="black" d="M366.392,-215.697C366.392,-207.983 366.392,-198.712 366.392,-190.112"/>
<polygon fill="black" stroke="black" points="369.892,-190.104 366.392,-180.104 362.892,-190.104 369.892,-190.104"/>
</g>
<!-- ExpTemp1 -->
<g id="node4" class="node"><title>ExpTemp1</title>
<ellipse fill="none" stroke="black" cx="269.392" cy="-90" rx="50.0912" ry="18"/>
<text text-anchor="middle" x="269.392" y="-86.3" font-family="Times,serif" font-size="14.00">ExpTemp1</text>
</g>
<!-- ExpMem1&#45;&gt;ExpTemp1 -->
<g id="edge2" class="edge"><title>ExpMem1&#45;&gt;ExpTemp1</title>
<path fill="none" stroke="black" d="M269.392,-143.697C269.392,-135.983 269.392,-126.712 269.392,-118.112"/>
<polygon fill="black" stroke="black" points="272.892,-118.104 269.392,-108.104 265.892,-118.104 272.892,-118.104"/>
</g>
<!-- Temp1: $fp -->
<g id="node5" class="node"><title>Temp1: $fp</title>
<ellipse fill="none" stroke="black" cx="269.392" cy="-18" rx="52.7911" ry="18"/>
<text text-anchor="middle" x="269.392" y="-14.3" font-family="Times,serif" font-size="14.00">Temp1: $fp</text>
</g>
<!-- ExpTemp1&#45;&gt;Temp1: $fp -->
<g id="edge3" class="edge"><title>ExpTemp1&#45;&gt;Temp1: $fp</title>
<path fill="none" stroke="black" d="M269.392,-71.6966C269.392,-63.9827 269.392,-54.7125 269.392,-46.1124"/>
<polygon fill="black" stroke="black" points="272.892,-46.1043 269.392,-36.1043 265.892,-46.1044 272.892,-46.1043"/>
</g>
<!-- Value0: 4 -->
<g id="node7" class="node"><title>Value0: 4</title>
<ellipse fill="none" stroke="black" cx="465.392" cy="-90" rx="45.4919" ry="18"/>
<text text-anchor="middle" x="465.392" y="-86.3" font-family="Times,serif" font-size="14.00">Value0: 4</text>
</g>
<!-- ExpConst0&#45;&gt;Value0: 4 -->
<g id="edge4" class="edge"><title>ExpConst0&#45;&gt;Value0: 4</title>
<path fill="none" stroke="black" d="M465.392,-143.697C465.392,-135.983 465.392,-126.712 465.392,-118.112"/>
<polygon fill="black" stroke="black" points="468.892,-118.104 465.392,-108.104 461.892,-118.104 468.892,-118.104"/>
</g>
<!-- StatLabel0 -->
<g id="node8" class="node"><title>StatLabel0</title>
<ellipse fill="none" stroke="black" cx="108.392" cy="-378" rx="48.9926" ry="18"/>
<text text-anchor="middle" x="108.392" y="-374.3" font-family="Times,serif" font-size="14.00">StatLabel0</text>
</g>
<!-- Label0: Tree::GetKey -->
<g id="node9" class="node"><title>Label0: Tree::GetKey</title>
<ellipse fill="none" stroke="black" cx="88.3922" cy="-306" rx="88.2844" ry="18"/>
<text text-anchor="middle" x="88.3922" y="-302.3" font-family="Times,serif" font-size="14.00">Label0: Tree::GetKey</text>
</g>
<!-- StatLabel0&#45;&gt;Label0: Tree::GetKey -->
<g id="edge5" class="edge"><title>StatLabel0&#45;&gt;Label0: Tree::GetKey</title>
<path fill="none" stroke="black" d="M103.551,-360.055C101.324,-352.261 98.627,-342.822 96.129,-334.079"/>
<polygon fill="black" stroke="black" points="99.4406,-332.929 93.328,-324.275 92.7099,-334.852 99.4406,-332.929"/>
</g>
<!-- StatSeq0 -->
<g id="node10" class="node"><title>StatSeq0</title>
<ellipse fill="none" stroke="black" cx="176.392" cy="-450" rx="42.4939" ry="18"/>
<text text-anchor="middle" x="176.392" y="-446.3" font-family="Times,serif" font-size="14.00">StatSeq0</text>
</g>
<!-- StatSeq0&#45;&gt;StatLabel0 -->
<g id="edge6" class="edge"><title>StatSeq0&#45;&gt;StatLabel0</title>
<path fill="none" stroke="black" d="M160.962,-433.116C152.219,-424.116 141.112,-412.682 131.363,-402.646"/>
<polygon fill="black" stroke="black" points="133.712,-400.041 124.233,-395.307 128.691,-404.919 133.712,-400.041"/>
</g>
<!-- StatMove0 -->
<g id="node11" class="node"><title>StatMove0</title>
<ellipse fill="none" stroke="black" cx="244.392" cy="-378" rx="50.0912" ry="18"/>
<text text-anchor="middle" x="244.392" y="-374.3" font-family="Times,serif" font-size="14.00">StatMove0</text>
</g>
<!-- StatSeq0&#45;&gt;StatMove0 -->
<g id="edge7" class="edge"><title>StatSeq0&#45;&gt;StatMove0</title>
<path fill="none" stroke="black" d="M191.822,-433.116C200.566,-424.116 211.672,-412.682 221.422,-402.646"/>
<polygon fill="black" stroke="black" points="224.094,-404.919 228.551,-395.307 219.073,-400.041 224.094,-404.919"/>
</g>
<!-- StatMove0&#45;&gt;ExpMem0 -->
<g id="edge13" class="edge"><title>StatMove0&#45;&gt;ExpMem0</title>
<path fill="none" stroke="black" d="M269.548,-362.326C287.228,-352.012 311.086,-338.095 330.45,-326.8"/>
<polygon fill="black" stroke="black" points="332.395,-329.717 339.269,-321.655 328.868,-323.671 332.395,-329.717"/>
</g>
<!-- ExpTemp0 -->
<g id="node12" class="node"><title>ExpTemp0</title>
<ellipse fill="none" stroke="black" cx="244.392" cy="-306" rx="50.0912" ry="18"/>
<text text-anchor="middle" x="244.392" y="-302.3" font-family="Times,serif" font-size="14.00">ExpTemp0</text>
</g>
<!-- StatMove0&#45;&gt;ExpTemp0 -->
<g id="edge12" class="edge"><title>StatMove0&#45;&gt;ExpTemp0</title>
<path fill="none" stroke="black" d="M244.392,-359.697C244.392,-351.983 244.392,-342.712 244.392,-334.112"/>
<polygon fill="black" stroke="black" points="247.892,-334.104 244.392,-324.104 240.892,-334.104 247.892,-334.104"/>
</g>
<!-- Temp0: $rv -->
<g id="node13" class="node"><title>Temp0: $rv</title>
<ellipse fill="none" stroke="black" cx="242.392" cy="-234" rx="52.7911" ry="18"/>
<text text-anchor="middle" x="242.392" y="-230.3" font-family="Times,serif" font-size="14.00">Temp0: $rv</text>
</g>
<!-- ExpTemp0&#45;&gt;Temp0: $rv -->
<g id="edge8" class="edge"><title>ExpTemp0&#45;&gt;Temp0: $rv</title>
<path fill="none" stroke="black" d="M243.898,-287.697C243.677,-279.983 243.413,-270.712 243.167,-262.112"/>
<polygon fill="black" stroke="black" points="246.665,-262 242.881,-252.104 239.668,-262.2 246.665,-262"/>
</g>
</g>
</svg>
