<?xml version="1.0" encoding="UTF-8" standalone="no"?>
<!DOCTYPE svg PUBLIC "-//W3C//DTD SVG 1.1//EN"
 "http://www.w3.org/Graphics/SVG/1.1/DTD/svg11.dtd">
<!-- Generated by graphviz version 2.38.0 (20140413.2041)
 -->
<!-- Title: %3 Pages: 1 -->
<svg width="1360pt" height="548pt"
 viewBox="0.00 0.00 1359.69 548.00" xmlns="http://www.w3.org/2000/svg" xmlns:xlink="http://www.w3.org/1999/xlink">
<g id="graph0" class="graph" transform="scale(1 1) rotate(0) translate(4 544)">
<title>%3</title>
<polygon fill="white" stroke="none" points="-4,4 -4,-544 1355.69,-544 1355.69,4 -4,4"/>
<!-- ExpConst3 -->
<g id="node1" class="node"><title>ExpConst3</title>
<ellipse fill="none" stroke="black" cx="1301.65" cy="-378" rx="50.0912" ry="18"/>
<text text-anchor="middle" x="1301.65" y="-374.3" font-family="Times,serif" font-size="14.00">ExpConst3</text>
</g>
<!-- Value3: 1 -->
<g id="node2" class="node"><title>Value3: 1</title>
<ellipse fill="none" stroke="black" cx="1301.65" cy="-306" rx="45.4919" ry="18"/>
<text text-anchor="middle" x="1301.65" y="-302.3" font-family="Times,serif" font-size="14.00">Value3: 1</text>
</g>
<!-- ExpConst3&#45;&gt;Value3: 1 -->
<g id="edge1" class="edge"><title>ExpConst3&#45;&gt;Value3: 1</title>
<path fill="none" stroke="black" d="M1301.65,-359.697C1301.65,-351.983 1301.65,-342.712 1301.65,-334.112"/>
<polygon fill="black" stroke="black" points="1305.15,-334.104 1301.65,-324.104 1298.15,-334.104 1305.15,-334.104"/>
</g>
<!-- StatMove3 -->
<g id="node3" class="node"><title>StatMove3</title>
<ellipse fill="none" stroke="black" cx="1183.65" cy="-450" rx="50.0912" ry="18"/>
<text text-anchor="middle" x="1183.65" y="-446.3" font-family="Times,serif" font-size="14.00">StatMove3</text>
</g>
<!-- StatMove3&#45;&gt;ExpConst3 -->
<g id="edge3" class="edge"><title>StatMove3&#45;&gt;ExpConst3</title>
<path fill="none" stroke="black" d="M1208.38,-434.326C1225.77,-424.012 1249.23,-410.095 1268.27,-398.8"/>
<polygon fill="black" stroke="black" points="1270.13,-401.767 1276.94,-393.655 1266.55,-395.747 1270.13,-401.767"/>
</g>
<!-- ExpTemp7 -->
<g id="node4" class="node"><title>ExpTemp7</title>
<ellipse fill="none" stroke="black" cx="1183.65" cy="-378" rx="50.0912" ry="18"/>
<text text-anchor="middle" x="1183.65" y="-374.3" font-family="Times,serif" font-size="14.00">ExpTemp7</text>
</g>
<!-- StatMove3&#45;&gt;ExpTemp7 -->
<g id="edge2" class="edge"><title>StatMove3&#45;&gt;ExpTemp7</title>
<path fill="none" stroke="black" d="M1183.65,-431.697C1183.65,-423.983 1183.65,-414.712 1183.65,-406.112"/>
<polygon fill="black" stroke="black" points="1187.15,-406.104 1183.65,-396.104 1180.15,-406.104 1187.15,-406.104"/>
</g>
<!-- Temp7: $rv -->
<g id="node40" class="node"><title>Temp7: $rv</title>
<ellipse fill="none" stroke="black" cx="1184.65" cy="-306" rx="52.7911" ry="18"/>
<text text-anchor="middle" x="1184.65" y="-302.3" font-family="Times,serif" font-size="14.00">Temp7: $rv</text>
</g>
<!-- ExpTemp7&#45;&gt;Temp7: $rv -->
<g id="edge36" class="edge"><title>ExpTemp7&#45;&gt;Temp7: $rv</title>
<path fill="none" stroke="black" d="M1183.89,-359.697C1184,-351.983 1184.14,-342.712 1184.26,-334.112"/>
<polygon fill="black" stroke="black" points="1187.76,-334.153 1184.4,-324.104 1180.76,-334.053 1187.76,-334.153"/>
</g>
<!-- ExpTemp6 -->
<g id="node5" class="node"><title>ExpTemp6</title>
<ellipse fill="none" stroke="black" cx="1053.65" cy="-378" rx="50.0912" ry="18"/>
<text text-anchor="middle" x="1053.65" y="-374.3" font-family="Times,serif" font-size="14.00">ExpTemp6</text>
</g>
<!-- Temp6: T47 -->
<g id="node6" class="node"><title>Temp6: T47</title>
<ellipse fill="none" stroke="black" cx="1058.65" cy="-306" rx="55.4913" ry="18"/>
<text text-anchor="middle" x="1058.65" y="-302.3" font-family="Times,serif" font-size="14.00">Temp6: T47</text>
</g>
<!-- ExpTemp6&#45;&gt;Temp6: T47 -->
<g id="edge4" class="edge"><title>ExpTemp6&#45;&gt;Temp6: T47</title>
<path fill="none" stroke="black" d="M1054.88,-359.697C1055.43,-351.983 1056.09,-342.712 1056.71,-334.112"/>
<polygon fill="black" stroke="black" points="1060.2,-334.328 1057.42,-324.104 1053.22,-333.83 1060.2,-334.328"/>
</g>
<!-- StatMove2 -->
<g id="node7" class="node"><title>StatMove2</title>
<ellipse fill="none" stroke="black" cx="931.645" cy="-450" rx="50.0912" ry="18"/>
<text text-anchor="middle" x="931.645" y="-446.3" font-family="Times,serif" font-size="14.00">StatMove2</text>
</g>
<!-- StatMove2&#45;&gt;ExpTemp6 -->
<g id="edge6" class="edge"><title>StatMove2&#45;&gt;ExpTemp6</title>
<path fill="none" stroke="black" d="M957.221,-434.326C975.277,-423.965 999.671,-409.969 1019.4,-398.646"/>
<polygon fill="black" stroke="black" points="1021.17,-401.668 1028.1,-393.655 1017.69,-395.596 1021.17,-401.668"/>
</g>
<!-- ExpMem4 -->
<g id="node8" class="node"><title>ExpMem4</title>
<ellipse fill="none" stroke="black" cx="931.645" cy="-378" rx="48.9926" ry="18"/>
<text text-anchor="middle" x="931.645" y="-374.3" font-family="Times,serif" font-size="14.00">ExpMem4</text>
</g>
<!-- StatMove2&#45;&gt;ExpMem4 -->
<g id="edge5" class="edge"><title>StatMove2&#45;&gt;ExpMem4</title>
<path fill="none" stroke="black" d="M931.645,-431.697C931.645,-423.983 931.645,-414.712 931.645,-406.112"/>
<polygon fill="black" stroke="black" points="935.145,-406.104 931.645,-396.104 928.145,-406.104 935.145,-406.104"/>
</g>
<!-- ExpBinary2 -->
<g id="node31" class="node"><title>ExpBinary2</title>
<ellipse fill="none" stroke="black" cx="931.645" cy="-306" rx="53.0913" ry="18"/>
<text text-anchor="middle" x="931.645" y="-302.3" font-family="Times,serif" font-size="14.00">ExpBinary2</text>
</g>
<!-- ExpMem4&#45;&gt;ExpBinary2 -->
<g id="edge25" class="edge"><title>ExpMem4&#45;&gt;ExpBinary2</title>
<path fill="none" stroke="black" d="M931.645,-359.697C931.645,-351.983 931.645,-342.712 931.645,-334.112"/>
<polygon fill="black" stroke="black" points="935.145,-334.104 931.645,-324.104 928.145,-334.104 935.145,-334.104"/>
</g>
<!-- ExpConst2 -->
<g id="node9" class="node"><title>ExpConst2</title>
<ellipse fill="none" stroke="black" cx="1129.65" cy="-234" rx="50.0912" ry="18"/>
<text text-anchor="middle" x="1129.65" y="-230.3" font-family="Times,serif" font-size="14.00">ExpConst2</text>
</g>
<!-- Value2: 8 -->
<g id="node10" class="node"><title>Value2: 8</title>
<ellipse fill="none" stroke="black" cx="1129.65" cy="-162" rx="45.4919" ry="18"/>
<text text-anchor="middle" x="1129.65" y="-158.3" font-family="Times,serif" font-size="14.00">Value2: 8</text>
</g>
<!-- ExpConst2&#45;&gt;Value2: 8 -->
<g id="edge7" class="edge"><title>ExpConst2&#45;&gt;Value2: 8</title>
<path fill="none" stroke="black" d="M1129.65,-215.697C1129.65,-207.983 1129.65,-198.712 1129.65,-190.112"/>
<polygon fill="black" stroke="black" points="1133.15,-190.104 1129.65,-180.104 1126.15,-190.104 1133.15,-190.104"/>
</g>
<!-- ExpMem1 -->
<g id="node11" class="node"><title>ExpMem1</title>
<ellipse fill="none" stroke="black" cx="383.645" cy="-378" rx="48.9926" ry="18"/>
<text text-anchor="middle" x="383.645" y="-374.3" font-family="Times,serif" font-size="14.00">ExpMem1</text>
</g>
<!-- ExpTemp1 -->
<g id="node12" class="node"><title>ExpTemp1</title>
<ellipse fill="none" stroke="black" cx="371.645" cy="-306" rx="50.0912" ry="18"/>
<text text-anchor="middle" x="371.645" y="-302.3" font-family="Times,serif" font-size="14.00">ExpTemp1</text>
</g>
<!-- ExpMem1&#45;&gt;ExpTemp1 -->
<g id="edge8" class="edge"><title>ExpMem1&#45;&gt;ExpTemp1</title>
<path fill="none" stroke="black" d="M380.679,-359.697C379.357,-351.983 377.767,-342.712 376.293,-334.112"/>
<polygon fill="black" stroke="black" points="379.717,-333.369 374.578,-324.104 372.818,-334.552 379.717,-333.369"/>
</g>
<!-- Temp1: $fp -->
<g id="node45" class="node"><title>Temp1: $fp</title>
<ellipse fill="none" stroke="black" cx="371.645" cy="-234" rx="52.7911" ry="18"/>
<text text-anchor="middle" x="371.645" y="-230.3" font-family="Times,serif" font-size="14.00">Temp1: $fp</text>
</g>
<!-- ExpTemp1&#45;&gt;Temp1: $fp -->
<g id="edge44" class="edge"><title>ExpTemp1&#45;&gt;Temp1: $fp</title>
<path fill="none" stroke="black" d="M371.645,-287.697C371.645,-279.983 371.645,-270.712 371.645,-262.112"/>
<polygon fill="black" stroke="black" points="375.145,-262.104 371.645,-252.104 368.145,-262.104 375.145,-262.104"/>
</g>
<!-- ExpConst0 -->
<g id="node13" class="node"><title>ExpConst0</title>
<ellipse fill="none" stroke="black" cx="250.645" cy="-234" rx="50.0912" ry="18"/>
<text text-anchor="middle" x="250.645" y="-230.3" font-family="Times,serif" font-size="14.00">ExpConst0</text>
</g>
<!-- Value0: 12 -->
<g id="node14" class="node"><title>Value0: 12</title>
<ellipse fill="none" stroke="black" cx="250.645" cy="-162" rx="50.0912" ry="18"/>
<text text-anchor="middle" x="250.645" y="-158.3" font-family="Times,serif" font-size="14.00">Value0: 12</text>
</g>
<!-- ExpConst0&#45;&gt;Value0: 12 -->
<g id="edge9" class="edge"><title>ExpConst0&#45;&gt;Value0: 12</title>
<path fill="none" stroke="black" d="M250.645,-215.697C250.645,-207.983 250.645,-198.712 250.645,-190.112"/>
<polygon fill="black" stroke="black" points="254.145,-190.104 250.645,-180.104 247.145,-190.104 254.145,-190.104"/>
</g>
<!-- ExpMem0 -->
<g id="node15" class="node"><title>ExpMem0</title>
<ellipse fill="none" stroke="black" cx="268.645" cy="-378" rx="48.9926" ry="18"/>
<text text-anchor="middle" x="268.645" y="-374.3" font-family="Times,serif" font-size="14.00">ExpMem0</text>
</g>
<!-- ExpBinary0 -->
<g id="node16" class="node"><title>ExpBinary0</title>
<ellipse fill="none" stroke="black" cx="200.645" cy="-306" rx="53.0913" ry="18"/>
<text text-anchor="middle" x="200.645" y="-302.3" font-family="Times,serif" font-size="14.00">ExpBinary0</text>
</g>
<!-- ExpMem0&#45;&gt;ExpBinary0 -->
<g id="edge10" class="edge"><title>ExpMem0&#45;&gt;ExpBinary0</title>
<path fill="none" stroke="black" d="M252.874,-360.765C244.245,-351.882 233.392,-340.709 223.818,-330.854"/>
<polygon fill="black" stroke="black" points="226.282,-328.367 216.803,-323.633 221.261,-333.245 226.282,-328.367"/>
</g>
<!-- ExpBinary0&#45;&gt;ExpConst0 -->
<g id="edge28" class="edge"><title>ExpBinary0&#45;&gt;ExpConst0</title>
<path fill="none" stroke="black" d="M212.495,-288.411C218.509,-279.992 225.942,-269.585 232.645,-260.201"/>
<polygon fill="black" stroke="black" points="235.569,-262.128 238.534,-251.956 229.873,-258.059 235.569,-262.128"/>
</g>
<!-- ExpTemp0 -->
<g id="node29" class="node"><title>ExpTemp0</title>
<ellipse fill="none" stroke="black" cx="52.6453" cy="-234" rx="50.0912" ry="18"/>
<text text-anchor="middle" x="52.6453" y="-230.3" font-family="Times,serif" font-size="14.00">ExpTemp0</text>
</g>
<!-- ExpBinary0&#45;&gt;ExpTemp0 -->
<g id="edge26" class="edge"><title>ExpBinary0&#45;&gt;ExpTemp0</title>
<path fill="none" stroke="black" d="M171.051,-291.003C148.013,-280.106 115.862,-264.9 90.8756,-253.082"/>
<polygon fill="black" stroke="black" points="92.2203,-249.846 81.684,-248.734 89.2274,-256.174 92.2203,-249.846"/>
</g>
<!-- Plus0 -->
<g id="node32" class="node"><title>Plus0</title>
<ellipse fill="none" stroke="black" cx="151.645" cy="-234" rx="30.5947" ry="18"/>
<text text-anchor="middle" x="151.645" y="-230.3" font-family="Times,serif" font-size="14.00">Plus0</text>
</g>
<!-- ExpBinary0&#45;&gt;Plus0 -->
<g id="edge27" class="edge"><title>ExpBinary0&#45;&gt;Plus0</title>
<path fill="none" stroke="black" d="M189.033,-288.411C182.966,-279.744 175.425,-268.971 168.708,-259.375"/>
<polygon fill="black" stroke="black" points="171.439,-257.173 162.837,-250.988 165.704,-261.188 171.439,-257.173"/>
</g>
<!-- ExpBinary1 -->
<g id="node17" class="node"><title>ExpBinary1</title>
<ellipse fill="none" stroke="black" cx="814.645" cy="-162" rx="53.0913" ry="18"/>
<text text-anchor="middle" x="814.645" y="-158.3" font-family="Times,serif" font-size="14.00">ExpBinary1</text>
</g>
<!-- ExpTemp4 -->
<g id="node18" class="node"><title>ExpTemp4</title>
<ellipse fill="none" stroke="black" cx="740.645" cy="-90" rx="50.0912" ry="18"/>
<text text-anchor="middle" x="740.645" y="-86.3" font-family="Times,serif" font-size="14.00">ExpTemp4</text>
</g>
<!-- ExpBinary1&#45;&gt;ExpTemp4 -->
<g id="edge11" class="edge"><title>ExpBinary1&#45;&gt;ExpTemp4</title>
<path fill="none" stroke="black" d="M797.482,-144.765C787.862,-135.665 775.702,-124.162 765.101,-114.134"/>
<polygon fill="black" stroke="black" points="767.385,-111.477 757.715,-107.147 762.575,-116.562 767.385,-111.477"/>
</g>
<!-- Plus1 -->
<g id="node19" class="node"><title>Plus1</title>
<ellipse fill="none" stroke="black" cx="839.645" cy="-90" rx="30.5947" ry="18"/>
<text text-anchor="middle" x="839.645" y="-86.3" font-family="Times,serif" font-size="14.00">Plus1</text>
</g>
<!-- ExpBinary1&#45;&gt;Plus1 -->
<g id="edge12" class="edge"><title>ExpBinary1&#45;&gt;Plus1</title>
<path fill="none" stroke="black" d="M820.697,-144.055C823.553,-136.059 827.027,-126.331 830.217,-117.4"/>
<polygon fill="black" stroke="black" points="833.582,-118.384 833.649,-107.789 826.99,-116.029 833.582,-118.384"/>
</g>
<!-- ExpConst1 -->
<g id="node20" class="node"><title>ExpConst1</title>
<ellipse fill="none" stroke="black" cx="938.645" cy="-90" rx="50.0912" ry="18"/>
<text text-anchor="middle" x="938.645" y="-86.3" font-family="Times,serif" font-size="14.00">ExpConst1</text>
</g>
<!-- ExpBinary1&#45;&gt;ExpConst1 -->
<g id="edge13" class="edge"><title>ExpBinary1&#45;&gt;ExpConst1</title>
<path fill="none" stroke="black" d="M840.943,-146.155C859.314,-135.784 884.03,-121.831 904.006,-110.554"/>
<polygon fill="black" stroke="black" points="905.824,-113.548 912.811,-105.584 902.382,-107.452 905.824,-113.548"/>
</g>
<!-- Temp4: $fp -->
<g id="node41" class="node"><title>Temp4: $fp</title>
<ellipse fill="none" stroke="black" cx="740.645" cy="-18" rx="52.7911" ry="18"/>
<text text-anchor="middle" x="740.645" y="-14.3" font-family="Times,serif" font-size="14.00">Temp4: $fp</text>
</g>
<!-- ExpTemp4&#45;&gt;Temp4: $fp -->
<g id="edge37" class="edge"><title>ExpTemp4&#45;&gt;Temp4: $fp</title>
<path fill="none" stroke="black" d="M740.645,-71.6966C740.645,-63.9827 740.645,-54.7125 740.645,-46.1124"/>
<polygon fill="black" stroke="black" points="744.145,-46.1043 740.645,-36.1043 737.145,-46.1044 744.145,-46.1043"/>
</g>
<!-- Value1: 12 -->
<g id="node34" class="node"><title>Value1: 12</title>
<ellipse fill="none" stroke="black" cx="938.645" cy="-18" rx="50.0912" ry="18"/>
<text text-anchor="middle" x="938.645" y="-14.3" font-family="Times,serif" font-size="14.00">Value1: 12</text>
</g>
<!-- ExpConst1&#45;&gt;Value1: 12 -->
<g id="edge31" class="edge"><title>ExpConst1&#45;&gt;Value1: 12</title>
<path fill="none" stroke="black" d="M938.645,-71.6966C938.645,-63.9827 938.645,-54.7125 938.645,-46.1124"/>
<polygon fill="black" stroke="black" points="942.145,-46.1043 938.645,-36.1043 935.145,-46.1044 942.145,-46.1043"/>
</g>
<!-- ExpMem3 -->
<g id="node21" class="node"><title>ExpMem3</title>
<ellipse fill="none" stroke="black" cx="814.645" cy="-234" rx="48.9926" ry="18"/>
<text text-anchor="middle" x="814.645" y="-230.3" font-family="Times,serif" font-size="14.00">ExpMem3</text>
</g>
<!-- ExpMem3&#45;&gt;ExpBinary1 -->
<g id="edge14" class="edge"><title>ExpMem3&#45;&gt;ExpBinary1</title>
<path fill="none" stroke="black" d="M814.645,-215.697C814.645,-207.983 814.645,-198.712 814.645,-190.112"/>
<polygon fill="black" stroke="black" points="818.145,-190.104 814.645,-180.104 811.145,-190.104 818.145,-190.104"/>
</g>
<!-- ExpTemp2 -->
<g id="node22" class="node"><title>ExpTemp2</title>
<ellipse fill="none" stroke="black" cx="500.645" cy="-378" rx="50.0912" ry="18"/>
<text text-anchor="middle" x="500.645" y="-374.3" font-family="Times,serif" font-size="14.00">ExpTemp2</text>
</g>
<!-- Temp2: T47 -->
<g id="node23" class="node"><title>Temp2: T47</title>
<ellipse fill="none" stroke="black" cx="494.645" cy="-306" rx="55.4913" ry="18"/>
<text text-anchor="middle" x="494.645" y="-302.3" font-family="Times,serif" font-size="14.00">Temp2: T47</text>
</g>
<!-- ExpTemp2&#45;&gt;Temp2: T47 -->
<g id="edge15" class="edge"><title>ExpTemp2&#45;&gt;Temp2: T47</title>
<path fill="none" stroke="black" d="M499.162,-359.697C498.501,-351.983 497.706,-342.712 496.969,-334.112"/>
<polygon fill="black" stroke="black" points="500.453,-333.769 496.111,-324.104 493.478,-334.367 500.453,-333.769"/>
</g>
<!-- StatLabel0 -->
<g id="node24" class="node"><title>StatLabel0</title>
<ellipse fill="none" stroke="black" cx="193.645" cy="-450" rx="48.9926" ry="18"/>
<text text-anchor="middle" x="193.645" y="-446.3" font-family="Times,serif" font-size="14.00">StatLabel0</text>
</g>
<!-- Label0: Tree@Print -->
<g id="node25" class="node"><title>Label0: Tree@Print</title>
<ellipse fill="none" stroke="black" cx="120.645" cy="-378" rx="81.4863" ry="18"/>
<text text-anchor="middle" x="120.645" y="-374.3" font-family="Times,serif" font-size="14.00">Label0: Tree@Print</text>
</g>
<!-- StatLabel0&#45;&gt;Label0: Tree@Print -->
<g id="edge16" class="edge"><title>StatLabel0&#45;&gt;Label0: Tree@Print</title>
<path fill="none" stroke="black" d="M176.714,-432.765C167.36,-423.795 155.571,-412.49 145.219,-402.564"/>
<polygon fill="black" stroke="black" points="147.632,-400.028 137.992,-395.633 142.787,-405.081 147.632,-400.028"/>
</g>
<!-- StatList0 -->
<g id="node26" class="node"><title>StatList0</title>
<ellipse fill="none" stroke="black" cx="559.645" cy="-522" rx="42.4939" ry="18"/>
<text text-anchor="middle" x="559.645" y="-518.3" font-family="Times,serif" font-size="14.00">StatList0</text>
</g>
<!-- StatList0&#45;&gt;StatMove3 -->
<g id="edge21" class="edge"><title>StatList0&#45;&gt;StatMove3</title>
<path fill="none" stroke="black" d="M600.107,-516.461C707.807,-504.379 1001.75,-471.405 1126.47,-457.414"/>
<polygon fill="black" stroke="black" points="1127.03,-460.873 1136.58,-456.28 1126.25,-453.917 1127.03,-460.873"/>
</g>
<!-- StatList0&#45;&gt;StatMove2 -->
<g id="edge20" class="edge"><title>StatList0&#45;&gt;StatMove2</title>
<path fill="none" stroke="black" d="M597.708,-513.838C664.342,-501.299 802.263,-475.346 878.353,-461.028"/>
<polygon fill="black" stroke="black" points="879.035,-464.461 888.216,-459.172 877.741,-457.582 879.035,-464.461"/>
</g>
<!-- StatList0&#45;&gt;StatLabel0 -->
<g id="edge17" class="edge"><title>StatList0&#45;&gt;StatLabel0</title>
<path fill="none" stroke="black" d="M521.855,-513.772C456.18,-501.212 320.865,-475.332 246.123,-461.037"/>
<polygon fill="black" stroke="black" points="246.471,-457.54 235.992,-459.099 245.156,-464.415 246.471,-457.54"/>
</g>
<!-- StatMove0 -->
<g id="node27" class="node"><title>StatMove0</title>
<ellipse fill="none" stroke="black" cx="383.645" cy="-450" rx="50.0912" ry="18"/>
<text text-anchor="middle" x="383.645" y="-446.3" font-family="Times,serif" font-size="14.00">StatMove0</text>
</g>
<!-- StatList0&#45;&gt;StatMove0 -->
<g id="edge18" class="edge"><title>StatList0&#45;&gt;StatMove0</title>
<path fill="none" stroke="black" d="M529.789,-509.125C501.17,-497.743 457.701,-480.454 425.605,-467.689"/>
<polygon fill="black" stroke="black" points="426.624,-464.327 416.039,-463.884 424.037,-470.832 426.624,-464.327"/>
</g>
<!-- StatMove1 -->
<g id="node28" class="node"><title>StatMove1</title>
<ellipse fill="none" stroke="black" cx="559.645" cy="-450" rx="50.0912" ry="18"/>
<text text-anchor="middle" x="559.645" y="-446.3" font-family="Times,serif" font-size="14.00">StatMove1</text>
</g>
<!-- StatList0&#45;&gt;StatMove1 -->
<g id="edge19" class="edge"><title>StatList0&#45;&gt;StatMove1</title>
<path fill="none" stroke="black" d="M559.645,-503.697C559.645,-495.983 559.645,-486.712 559.645,-478.112"/>
<polygon fill="black" stroke="black" points="563.145,-478.104 559.645,-468.104 556.145,-478.104 563.145,-478.104"/>
</g>
<!-- StatMove0&#45;&gt;ExpMem1 -->
<g id="edge24" class="edge"><title>StatMove0&#45;&gt;ExpMem1</title>
<path fill="none" stroke="black" d="M383.645,-431.697C383.645,-423.983 383.645,-414.712 383.645,-406.112"/>
<polygon fill="black" stroke="black" points="387.145,-406.104 383.645,-396.104 380.145,-406.104 387.145,-406.104"/>
</g>
<!-- StatMove0&#45;&gt;ExpMem0 -->
<g id="edge23" class="edge"><title>StatMove0&#45;&gt;ExpMem0</title>
<path fill="none" stroke="black" d="M359.257,-434.155C342.485,-423.946 320.013,-410.267 301.644,-399.086"/>
<polygon fill="black" stroke="black" points="303.361,-396.034 292.999,-393.824 299.721,-402.013 303.361,-396.034"/>
</g>
<!-- StatMove1&#45;&gt;ExpTemp2 -->
<g id="edge29" class="edge"><title>StatMove1&#45;&gt;ExpTemp2</title>
<path fill="none" stroke="black" d="M545.663,-432.411C538.315,-423.693 529.172,-412.845 521.049,-403.208"/>
<polygon fill="black" stroke="black" points="523.648,-400.861 514.527,-395.47 518.296,-405.372 523.648,-400.861"/>
</g>
<!-- ExpCall0 -->
<g id="node33" class="node"><title>ExpCall0</title>
<ellipse fill="none" stroke="black" cx="618.645" cy="-378" rx="44.393" ry="18"/>
<text text-anchor="middle" x="618.645" y="-374.3" font-family="Times,serif" font-size="14.00">ExpCall0</text>
</g>
<!-- StatMove1&#45;&gt;ExpCall0 -->
<g id="edge30" class="edge"><title>StatMove1&#45;&gt;ExpCall0</title>
<path fill="none" stroke="black" d="M573.628,-432.411C580.975,-423.693 590.118,-412.845 598.242,-403.208"/>
<polygon fill="black" stroke="black" points="600.995,-405.372 604.764,-395.47 595.643,-400.861 600.995,-405.372"/>
</g>
<!-- Temp0: $fp -->
<g id="node30" class="node"><title>Temp0: $fp</title>
<ellipse fill="none" stroke="black" cx="52.6453" cy="-162" rx="52.7911" ry="18"/>
<text text-anchor="middle" x="52.6453" y="-158.3" font-family="Times,serif" font-size="14.00">Temp0: $fp</text>
</g>
<!-- ExpTemp0&#45;&gt;Temp0: $fp -->
<g id="edge22" class="edge"><title>ExpTemp0&#45;&gt;Temp0: $fp</title>
<path fill="none" stroke="black" d="M52.6453,-215.697C52.6453,-207.983 52.6453,-198.712 52.6453,-190.112"/>
<polygon fill="black" stroke="black" points="56.1454,-190.104 52.6453,-180.104 49.1454,-190.104 56.1454,-190.104"/>
</g>
<!-- ExpBinary2&#45;&gt;ExpConst2 -->
<g id="edge40" class="edge"><title>ExpBinary2&#45;&gt;ExpConst2</title>
<path fill="none" stroke="black" d="M967.044,-292.485C1000.19,-280.767 1049.83,-263.217 1085.54,-250.593"/>
<polygon fill="black" stroke="black" points="1086.95,-253.805 1095.22,-247.172 1084.62,-247.205 1086.95,-253.805"/>
</g>
<!-- ExpTemp5 -->
<g id="node42" class="node"><title>ExpTemp5</title>
<ellipse fill="none" stroke="black" cx="931.645" cy="-234" rx="50.0912" ry="18"/>
<text text-anchor="middle" x="931.645" y="-230.3" font-family="Times,serif" font-size="14.00">ExpTemp5</text>
</g>
<!-- ExpBinary2&#45;&gt;ExpTemp5 -->
<g id="edge38" class="edge"><title>ExpBinary2&#45;&gt;ExpTemp5</title>
<path fill="none" stroke="black" d="M931.645,-287.697C931.645,-279.983 931.645,-270.712 931.645,-262.112"/>
<polygon fill="black" stroke="black" points="935.145,-262.104 931.645,-252.104 928.145,-262.104 935.145,-262.104"/>
</g>
<!-- Plus2 -->
<g id="node43" class="node"><title>Plus2</title>
<ellipse fill="none" stroke="black" cx="1030.65" cy="-234" rx="30.5947" ry="18"/>
<text text-anchor="middle" x="1030.65" y="-230.3" font-family="Times,serif" font-size="14.00">Plus2</text>
</g>
<!-- ExpBinary2&#45;&gt;Plus2 -->
<g id="edge39" class="edge"><title>ExpBinary2&#45;&gt;Plus2</title>
<path fill="none" stroke="black" d="M953.617,-289.465C968.324,-279.065 987.786,-265.304 1003.47,-254.217"/>
<polygon fill="black" stroke="black" points="1005.59,-257.001 1011.74,-248.37 1001.55,-251.286 1005.59,-257.001"/>
</g>
<!-- ExpName0 -->
<g id="node35" class="node"><title>ExpName0</title>
<ellipse fill="none" stroke="black" cx="618.645" cy="-306" rx="50.8918" ry="18"/>
<text text-anchor="middle" x="618.645" y="-302.3" font-family="Times,serif" font-size="14.00">ExpName0</text>
</g>
<!-- ExpCall0&#45;&gt;ExpName0 -->
<g id="edge34" class="edge"><title>ExpCall0&#45;&gt;ExpName0</title>
<path fill="none" stroke="black" d="M618.645,-359.697C618.645,-351.983 618.645,-342.712 618.645,-334.112"/>
<polygon fill="black" stroke="black" points="622.145,-334.104 618.645,-324.104 615.145,-334.104 622.145,-334.104"/>
</g>
<!-- ExpList0 -->
<g id="node39" class="node"><title>ExpList0</title>
<ellipse fill="none" stroke="black" cx="730.645" cy="-306" rx="42.7926" ry="18"/>
<text text-anchor="middle" x="730.645" y="-302.3" font-family="Times,serif" font-size="14.00">ExpList0</text>
</g>
<!-- ExpCall0&#45;&gt;ExpList0 -->
<g id="edge35" class="edge"><title>ExpCall0&#45;&gt;ExpList0</title>
<path fill="none" stroke="black" d="M641.852,-362.496C658.371,-352.172 680.768,-338.174 698.934,-326.819"/>
<polygon fill="black" stroke="black" points="700.844,-329.753 707.469,-321.485 697.134,-323.818 700.844,-329.753"/>
</g>
<!-- Label1: Tree@RecPrint -->
<g id="node36" class="node"><title>Label1: Tree@RecPrint</title>
<ellipse fill="none" stroke="black" cx="537.645" cy="-234" rx="94.7833" ry="18"/>
<text text-anchor="middle" x="537.645" y="-230.3" font-family="Times,serif" font-size="14.00">Label1: Tree@RecPrint</text>
</g>
<!-- ExpName0&#45;&gt;Label1: Tree@RecPrint -->
<g id="edge32" class="edge"><title>ExpName0&#45;&gt;Label1: Tree@RecPrint</title>
<path fill="none" stroke="black" d="M600.265,-289.116C589.798,-280.07 576.487,-268.567 564.832,-258.494"/>
<polygon fill="black" stroke="black" points="566.937,-255.688 557.082,-251.797 562.36,-260.984 566.937,-255.688"/>
</g>
<!-- ExpMem2 -->
<g id="node37" class="node"><title>ExpMem2</title>
<ellipse fill="none" stroke="black" cx="699.645" cy="-234" rx="48.9926" ry="18"/>
<text text-anchor="middle" x="699.645" y="-230.3" font-family="Times,serif" font-size="14.00">ExpMem2</text>
</g>
<!-- ExpTemp3 -->
<g id="node38" class="node"><title>ExpTemp3</title>
<ellipse fill="none" stroke="black" cx="668.645" cy="-162" rx="50.0912" ry="18"/>
<text text-anchor="middle" x="668.645" y="-158.3" font-family="Times,serif" font-size="14.00">ExpTemp3</text>
</g>
<!-- ExpMem2&#45;&gt;ExpTemp3 -->
<g id="edge33" class="edge"><title>ExpMem2&#45;&gt;ExpTemp3</title>
<path fill="none" stroke="black" d="M692.141,-216.055C688.614,-208.091 684.327,-198.411 680.385,-189.51"/>
<polygon fill="black" stroke="black" points="683.545,-188.002 676.296,-180.275 677.145,-190.836 683.545,-188.002"/>
</g>
<!-- Temp3: $fp -->
<g id="node44" class="node"><title>Temp3: $fp</title>
<ellipse fill="none" stroke="black" cx="619.645" cy="-90" rx="52.7911" ry="18"/>
<text text-anchor="middle" x="619.645" y="-86.3" font-family="Times,serif" font-size="14.00">Temp3: $fp</text>
</g>
<!-- ExpTemp3&#45;&gt;Temp3: $fp -->
<g id="edge41" class="edge"><title>ExpTemp3&#45;&gt;Temp3: $fp</title>
<path fill="none" stroke="black" d="M657.033,-144.411C651.139,-135.992 643.855,-125.585 637.286,-116.201"/>
<polygon fill="black" stroke="black" points="640.117,-114.141 631.515,-107.956 634.382,-118.156 640.117,-114.141"/>
</g>
<!-- ExpList0&#45;&gt;ExpMem3 -->
<g id="edge43" class="edge"><title>ExpList0&#45;&gt;ExpMem3</title>
<path fill="none" stroke="black" d="M749.288,-289.465C760.627,-280.015 775.298,-267.79 787.866,-257.316"/>
<polygon fill="black" stroke="black" points="790.323,-259.825 795.765,-250.734 785.842,-254.447 790.323,-259.825"/>
</g>
<!-- ExpList0&#45;&gt;ExpMem2 -->
<g id="edge42" class="edge"><title>ExpList0&#45;&gt;ExpMem2</title>
<path fill="none" stroke="black" d="M723.141,-288.055C719.614,-280.091 715.327,-270.411 711.385,-261.51"/>
<polygon fill="black" stroke="black" points="714.545,-260.002 707.296,-252.275 708.145,-262.836 714.545,-260.002"/>
</g>
<!-- Temp5: $fp -->
<g id="node46" class="node"><title>Temp5: $fp</title>
<ellipse fill="none" stroke="black" cx="938.645" cy="-162" rx="52.7911" ry="18"/>
<text text-anchor="middle" x="938.645" y="-158.3" font-family="Times,serif" font-size="14.00">Temp5: $fp</text>
</g>
<!-- ExpTemp5&#45;&gt;Temp5: $fp -->
<g id="edge45" class="edge"><title>ExpTemp5&#45;&gt;Temp5: $fp</title>
<path fill="none" stroke="black" d="M933.376,-215.697C934.147,-207.983 935.074,-198.712 935.934,-190.112"/>
<polygon fill="black" stroke="black" points="939.422,-190.403 936.935,-180.104 932.457,-189.706 939.422,-190.403"/>
</g>
</g>
</svg>
