<?xml version="1.0" encoding="UTF-8" standalone="no"?>
<!DOCTYPE svg PUBLIC "-//W3C//DTD SVG 1.1//EN"
 "http://www.w3.org/Graphics/SVG/1.1/DTD/svg11.dtd">
<!-- Generated by graphviz version 2.38.0 (20140413.2041)
 -->
<!-- Title: %3 Pages: 1 -->
<svg width="650pt" height="1196pt"
 viewBox="0.00 0.00 649.64 1196.00" xmlns="http://www.w3.org/2000/svg" xmlns:xlink="http://www.w3.org/1999/xlink">
<g id="graph0" class="graph" transform="scale(1 1) rotate(0) translate(4 1192)">
<title>%3</title>
<polygon fill="white" stroke="none" points="-4,4 -4,-1192 645.636,-1192 645.636,4 -4,4"/>
<!-- StatExp0 -->
<g id="node1" class="node"><title>StatExp0</title>
<ellipse fill="none" stroke="black" cx="261.591" cy="-1098" rx="42.7926" ry="18"/>
<text text-anchor="middle" x="261.591" y="-1094.3" font-family="Times,serif" font-size="14.00">StatExp0</text>
</g>
<!-- ExpEseq0 -->
<g id="node2" class="node"><title>ExpEseq0</title>
<ellipse fill="none" stroke="black" cx="277.591" cy="-1026" rx="46.2923" ry="18"/>
<text text-anchor="middle" x="277.591" y="-1022.3" font-family="Times,serif" font-size="14.00">ExpEseq0</text>
</g>
<!-- StatExp0&#45;&gt;ExpEseq0 -->
<g id="edge1" class="edge"><title>StatExp0&#45;&gt;ExpEseq0</title>
<path fill="none" stroke="black" d="M265.464,-1080.05C267.245,-1072.26 269.403,-1062.82 271.401,-1054.08"/>
<polygon fill="black" stroke="black" points="274.826,-1054.8 273.642,-1044.28 268.002,-1053.24 274.826,-1054.8"/>
</g>
<!-- StatMove0 -->
<g id="node3" class="node"><title>StatMove0</title>
<ellipse fill="none" stroke="black" cx="218.591" cy="-954" rx="50.0912" ry="18"/>
<text text-anchor="middle" x="218.591" y="-950.3" font-family="Times,serif" font-size="14.00">StatMove0</text>
</g>
<!-- ExpEseq0&#45;&gt;StatMove0 -->
<g id="edge2" class="edge"><title>ExpEseq0&#45;&gt;StatMove0</title>
<path fill="none" stroke="black" d="M263.906,-1008.76C256.566,-1000.06 247.371,-989.147 239.186,-979.435"/>
<polygon fill="black" stroke="black" points="241.731,-977.024 232.61,-971.633 236.379,-981.535 241.731,-977.024"/>
</g>
<!-- ExpTemp5 -->
<g id="node4" class="node"><title>ExpTemp5</title>
<ellipse fill="none" stroke="black" cx="336.591" cy="-954" rx="50.0912" ry="18"/>
<text text-anchor="middle" x="336.591" y="-950.3" font-family="Times,serif" font-size="14.00">ExpTemp5</text>
</g>
<!-- ExpEseq0&#45;&gt;ExpTemp5 -->
<g id="edge3" class="edge"><title>ExpEseq0&#45;&gt;ExpTemp5</title>
<path fill="none" stroke="black" d="M291.275,-1008.76C298.615,-1000.06 307.81,-989.147 315.995,-979.435"/>
<polygon fill="black" stroke="black" points="318.802,-981.535 322.571,-971.633 313.45,-977.024 318.802,-981.535"/>
</g>
<!-- ExpCall0 -->
<g id="node18" class="node"><title>ExpCall0</title>
<ellipse fill="none" stroke="black" cx="219.591" cy="-882" rx="44.393" ry="18"/>
<text text-anchor="middle" x="219.591" y="-878.3" font-family="Times,serif" font-size="14.00">ExpCall0</text>
</g>
<!-- StatMove0&#45;&gt;ExpCall0 -->
<g id="edge37" class="edge"><title>StatMove0&#45;&gt;ExpCall0</title>
<path fill="none" stroke="black" d="M218.838,-935.697C218.948,-927.983 219.08,-918.712 219.203,-910.112"/>
<polygon fill="black" stroke="black" points="222.703,-910.153 219.346,-900.104 215.704,-910.053 222.703,-910.153"/>
</g>
<!-- ExpTemp0 -->
<g id="node25" class="node"><title>ExpTemp0</title>
<ellipse fill="none" stroke="black" cx="101.591" cy="-882" rx="50.0912" ry="18"/>
<text text-anchor="middle" x="101.591" y="-878.3" font-family="Times,serif" font-size="14.00">ExpTemp0</text>
</g>
<!-- StatMove0&#45;&gt;ExpTemp0 -->
<g id="edge36" class="edge"><title>StatMove0&#45;&gt;ExpTemp0</title>
<path fill="none" stroke="black" d="M193.778,-938.155C176.715,-927.946 153.851,-914.267 135.163,-903.086"/>
<polygon fill="black" stroke="black" points="136.746,-899.955 126.367,-897.824 133.152,-905.962 136.746,-899.955"/>
</g>
<!-- Temp5: T77 -->
<g id="node34" class="node"><title>Temp5: T77</title>
<ellipse fill="none" stroke="black" cx="336.591" cy="-882" rx="55.4913" ry="18"/>
<text text-anchor="middle" x="336.591" y="-878.3" font-family="Times,serif" font-size="14.00">Temp5: T77</text>
</g>
<!-- ExpTemp5&#45;&gt;Temp5: T77 -->
<g id="edge25" class="edge"><title>ExpTemp5&#45;&gt;Temp5: T77</title>
<path fill="none" stroke="black" d="M336.591,-935.697C336.591,-927.983 336.591,-918.712 336.591,-910.112"/>
<polygon fill="black" stroke="black" points="340.091,-910.104 336.591,-900.104 333.091,-910.104 340.091,-910.104"/>
</g>
<!-- ExpList0 -->
<g id="node5" class="node"><title>ExpList0</title>
<ellipse fill="none" stroke="black" cx="335.591" cy="-810" rx="42.7926" ry="18"/>
<text text-anchor="middle" x="335.591" y="-806.3" font-family="Times,serif" font-size="14.00">ExpList0</text>
</g>
<!-- ExpEseq1 -->
<g id="node6" class="node"><title>ExpEseq1</title>
<ellipse fill="none" stroke="black" cx="338.591" cy="-738" rx="46.2923" ry="18"/>
<text text-anchor="middle" x="338.591" y="-734.3" font-family="Times,serif" font-size="14.00">ExpEseq1</text>
</g>
<!-- ExpList0&#45;&gt;ExpEseq1 -->
<g id="edge4" class="edge"><title>ExpList0&#45;&gt;ExpEseq1</title>
<path fill="none" stroke="black" d="M336.332,-791.697C336.663,-783.983 337.06,-774.712 337.429,-766.112"/>
<polygon fill="black" stroke="black" points="340.926,-766.245 337.857,-756.104 333.932,-765.945 340.926,-766.245"/>
</g>
<!-- ExpTemp4 -->
<g id="node7" class="node"><title>ExpTemp4</title>
<ellipse fill="none" stroke="black" cx="397.591" cy="-666" rx="50.0912" ry="18"/>
<text text-anchor="middle" x="397.591" y="-662.3" font-family="Times,serif" font-size="14.00">ExpTemp4</text>
</g>
<!-- ExpEseq1&#45;&gt;ExpTemp4 -->
<g id="edge39" class="edge"><title>ExpEseq1&#45;&gt;ExpTemp4</title>
<path fill="none" stroke="black" d="M352.275,-720.765C359.615,-712.056 368.81,-701.147 376.995,-691.435"/>
<polygon fill="black" stroke="black" points="379.802,-693.535 383.571,-683.633 374.45,-689.024 379.802,-693.535"/>
</g>
<!-- StatMove1 -->
<g id="node11" class="node"><title>StatMove1</title>
<ellipse fill="none" stroke="black" cx="279.591" cy="-666" rx="50.0912" ry="18"/>
<text text-anchor="middle" x="279.591" y="-662.3" font-family="Times,serif" font-size="14.00">StatMove1</text>
</g>
<!-- ExpEseq1&#45;&gt;StatMove1 -->
<g id="edge38" class="edge"><title>ExpEseq1&#45;&gt;StatMove1</title>
<path fill="none" stroke="black" d="M324.906,-720.765C317.566,-712.056 308.371,-701.147 300.186,-691.435"/>
<polygon fill="black" stroke="black" points="302.731,-689.024 293.61,-683.633 297.379,-693.535 302.731,-689.024"/>
</g>
<!-- Temp4: T76 -->
<g id="node8" class="node"><title>Temp4: T76</title>
<ellipse fill="none" stroke="black" cx="397.591" cy="-594" rx="55.4913" ry="18"/>
<text text-anchor="middle" x="397.591" y="-590.3" font-family="Times,serif" font-size="14.00">Temp4: T76</text>
</g>
<!-- ExpTemp4&#45;&gt;Temp4: T76 -->
<g id="edge5" class="edge"><title>ExpTemp4&#45;&gt;Temp4: T76</title>
<path fill="none" stroke="black" d="M397.591,-647.697C397.591,-639.983 397.591,-630.712 397.591,-622.112"/>
<polygon fill="black" stroke="black" points="401.091,-622.104 397.591,-612.104 394.091,-622.104 401.091,-622.104"/>
</g>
<!-- ExpName1 -->
<g id="node9" class="node"><title>ExpName1</title>
<ellipse fill="none" stroke="black" cx="280.591" cy="-522" rx="50.8918" ry="18"/>
<text text-anchor="middle" x="280.591" y="-518.3" font-family="Times,serif" font-size="14.00">ExpName1</text>
</g>
<!-- Label2: BT@Start -->
<g id="node10" class="node"><title>Label2: BT@Start</title>
<ellipse fill="none" stroke="black" cx="273.591" cy="-450" rx="76.0865" ry="18"/>
<text text-anchor="middle" x="273.591" y="-446.3" font-family="Times,serif" font-size="14.00">Label2: BT@Start</text>
</g>
<!-- ExpName1&#45;&gt;Label2: BT@Start -->
<g id="edge6" class="edge"><title>ExpName1&#45;&gt;Label2: BT@Start</title>
<path fill="none" stroke="black" d="M278.86,-503.697C278.089,-495.983 277.162,-486.712 276.302,-478.112"/>
<polygon fill="black" stroke="black" points="279.779,-477.706 275.301,-468.104 272.813,-478.403 279.779,-477.706"/>
</g>
<!-- ExpTemp1 -->
<g id="node12" class="node"><title>ExpTemp1</title>
<ellipse fill="none" stroke="black" cx="162.591" cy="-594" rx="50.0912" ry="18"/>
<text text-anchor="middle" x="162.591" y="-590.3" font-family="Times,serif" font-size="14.00">ExpTemp1</text>
</g>
<!-- StatMove1&#45;&gt;ExpTemp1 -->
<g id="edge7" class="edge"><title>StatMove1&#45;&gt;ExpTemp1</title>
<path fill="none" stroke="black" d="M254.778,-650.155C237.715,-639.946 214.851,-626.267 196.163,-615.086"/>
<polygon fill="black" stroke="black" points="197.746,-611.955 187.367,-609.824 194.152,-617.962 197.746,-611.955"/>
</g>
<!-- ExpCall1 -->
<g id="node13" class="node"><title>ExpCall1</title>
<ellipse fill="none" stroke="black" cx="280.591" cy="-594" rx="44.393" ry="18"/>
<text text-anchor="middle" x="280.591" y="-590.3" font-family="Times,serif" font-size="14.00">ExpCall1</text>
</g>
<!-- StatMove1&#45;&gt;ExpCall1 -->
<g id="edge8" class="edge"><title>StatMove1&#45;&gt;ExpCall1</title>
<path fill="none" stroke="black" d="M279.838,-647.697C279.948,-639.983 280.08,-630.712 280.203,-622.112"/>
<polygon fill="black" stroke="black" points="283.703,-622.153 280.346,-612.104 276.704,-622.053 283.703,-622.153"/>
</g>
<!-- Temp1: T76 -->
<g id="node35" class="node"><title>Temp1: T76</title>
<ellipse fill="none" stroke="black" cx="156.591" cy="-522" rx="55.4913" ry="18"/>
<text text-anchor="middle" x="156.591" y="-518.3" font-family="Times,serif" font-size="14.00">Temp1: T76</text>
</g>
<!-- ExpTemp1&#45;&gt;Temp1: T76 -->
<g id="edge26" class="edge"><title>ExpTemp1&#45;&gt;Temp1: T76</title>
<path fill="none" stroke="black" d="M161.107,-575.697C160.446,-567.983 159.652,-558.712 158.914,-550.112"/>
<polygon fill="black" stroke="black" points="162.398,-549.769 158.057,-540.104 155.424,-550.367 162.398,-549.769"/>
</g>
<!-- ExpCall1&#45;&gt;ExpName1 -->
<g id="edge18" class="edge"><title>ExpCall1&#45;&gt;ExpName1</title>
<path fill="none" stroke="black" d="M280.591,-575.697C280.591,-567.983 280.591,-558.712 280.591,-550.112"/>
<polygon fill="black" stroke="black" points="284.091,-550.104 280.591,-540.104 277.091,-550.104 284.091,-550.104"/>
</g>
<!-- ExpList1 -->
<g id="node16" class="node"><title>ExpList1</title>
<ellipse fill="none" stroke="black" cx="406.591" cy="-522" rx="42.7926" ry="18"/>
<text text-anchor="middle" x="406.591" y="-518.3" font-family="Times,serif" font-size="14.00">ExpList1</text>
</g>
<!-- ExpCall1&#45;&gt;ExpList1 -->
<g id="edge19" class="edge"><title>ExpCall1&#45;&gt;ExpList1</title>
<path fill="none" stroke="black" d="M305.786,-579.003C325.054,-568.298 351.809,-553.434 372.913,-541.71"/>
<polygon fill="black" stroke="black" points="374.827,-544.651 381.868,-536.734 371.427,-538.531 374.827,-544.651"/>
</g>
<!-- ExpConst1 -->
<g id="node14" class="node"><title>ExpConst1</title>
<ellipse fill="none" stroke="black" cx="591.591" cy="-90" rx="50.0912" ry="18"/>
<text text-anchor="middle" x="591.591" y="-86.3" font-family="Times,serif" font-size="14.00">ExpConst1</text>
</g>
<!-- Value1: 4 -->
<g id="node15" class="node"><title>Value1: 4</title>
<ellipse fill="none" stroke="black" cx="591.591" cy="-18" rx="45.4919" ry="18"/>
<text text-anchor="middle" x="591.591" y="-14.3" font-family="Times,serif" font-size="14.00">Value1: 4</text>
</g>
<!-- ExpConst1&#45;&gt;Value1: 4 -->
<g id="edge9" class="edge"><title>ExpConst1&#45;&gt;Value1: 4</title>
<path fill="none" stroke="black" d="M591.591,-71.6966C591.591,-63.9827 591.591,-54.7125 591.591,-46.1124"/>
<polygon fill="black" stroke="black" points="595.091,-46.1043 591.591,-36.1043 588.091,-46.1044 595.091,-46.1043"/>
</g>
<!-- ExpEseq2 -->
<g id="node17" class="node"><title>ExpEseq2</title>
<ellipse fill="none" stroke="black" cx="413.591" cy="-450" rx="46.2923" ry="18"/>
<text text-anchor="middle" x="413.591" y="-446.3" font-family="Times,serif" font-size="14.00">ExpEseq2</text>
</g>
<!-- ExpList1&#45;&gt;ExpEseq2 -->
<g id="edge10" class="edge"><title>ExpList1&#45;&gt;ExpEseq2</title>
<path fill="none" stroke="black" d="M408.321,-503.697C409.092,-495.983 410.019,-486.712 410.879,-478.112"/>
<polygon fill="black" stroke="black" points="414.368,-478.403 411.88,-468.104 407.402,-477.706 414.368,-478.403"/>
</g>
<!-- ExpTemp3 -->
<g id="node23" class="node"><title>ExpTemp3</title>
<ellipse fill="none" stroke="black" cx="472.591" cy="-378" rx="50.0912" ry="18"/>
<text text-anchor="middle" x="472.591" y="-374.3" font-family="Times,serif" font-size="14.00">ExpTemp3</text>
</g>
<!-- ExpEseq2&#45;&gt;ExpTemp3 -->
<g id="edge35" class="edge"><title>ExpEseq2&#45;&gt;ExpTemp3</title>
<path fill="none" stroke="black" d="M427.275,-432.765C434.615,-424.056 443.81,-413.147 451.995,-403.435"/>
<polygon fill="black" stroke="black" points="454.802,-405.535 458.571,-395.633 449.45,-401.024 454.802,-405.535"/>
</g>
<!-- StatMove2 -->
<g id="node33" class="node"><title>StatMove2</title>
<ellipse fill="none" stroke="black" cx="354.591" cy="-378" rx="50.0912" ry="18"/>
<text text-anchor="middle" x="354.591" y="-374.3" font-family="Times,serif" font-size="14.00">StatMove2</text>
</g>
<!-- ExpEseq2&#45;&gt;StatMove2 -->
<g id="edge34" class="edge"><title>ExpEseq2&#45;&gt;StatMove2</title>
<path fill="none" stroke="black" d="M399.906,-432.765C392.566,-424.056 383.371,-413.147 375.186,-403.435"/>
<polygon fill="black" stroke="black" points="377.731,-401.024 368.61,-395.633 372.379,-405.535 377.731,-401.024"/>
</g>
<!-- ExpCall0&#45;&gt;ExpList0 -->
<g id="edge12" class="edge"><title>ExpCall0&#45;&gt;ExpList0</title>
<path fill="none" stroke="black" d="M243.345,-866.666C260.626,-856.237 284.226,-841.996 303.229,-830.529"/>
<polygon fill="black" stroke="black" points="305.115,-833.479 311.868,-825.315 301.498,-827.485 305.115,-833.479"/>
</g>
<!-- ExpName0 -->
<g id="node19" class="node"><title>ExpName0</title>
<ellipse fill="none" stroke="black" cx="219.591" cy="-810" rx="50.8918" ry="18"/>
<text text-anchor="middle" x="219.591" y="-806.3" font-family="Times,serif" font-size="14.00">ExpName0</text>
</g>
<!-- ExpCall0&#45;&gt;ExpName0 -->
<g id="edge11" class="edge"><title>ExpCall0&#45;&gt;ExpName0</title>
<path fill="none" stroke="black" d="M219.591,-863.697C219.591,-855.983 219.591,-846.712 219.591,-838.112"/>
<polygon fill="black" stroke="black" points="223.091,-838.104 219.591,-828.104 216.091,-838.104 223.091,-838.104"/>
</g>
<!-- Label1: print -->
<g id="node20" class="node"><title>Label1: print</title>
<ellipse fill="none" stroke="black" cx="217.591" cy="-738" rx="56.59" ry="18"/>
<text text-anchor="middle" x="217.591" y="-734.3" font-family="Times,serif" font-size="14.00">Label1: print</text>
</g>
<!-- ExpName0&#45;&gt;Label1: print -->
<g id="edge13" class="edge"><title>ExpName0&#45;&gt;Label1: print</title>
<path fill="none" stroke="black" d="M219.096,-791.697C218.876,-783.983 218.611,-774.712 218.365,-766.112"/>
<polygon fill="black" stroke="black" points="221.864,-766 218.079,-756.104 214.866,-766.2 221.864,-766"/>
</g>
<!-- StatLabel0 -->
<g id="node21" class="node"><title>StatLabel0</title>
<ellipse fill="none" stroke="black" cx="136.591" cy="-1098" rx="48.9926" ry="18"/>
<text text-anchor="middle" x="136.591" y="-1094.3" font-family="Times,serif" font-size="14.00">StatLabel0</text>
</g>
<!-- Label0: BinaryTree@main -->
<g id="node22" class="node"><title>Label0: BinaryTree@main</title>
<ellipse fill="none" stroke="black" cx="106.591" cy="-1026" rx="106.681" ry="18"/>
<text text-anchor="middle" x="106.591" y="-1022.3" font-family="Times,serif" font-size="14.00">Label0: BinaryTree@main</text>
</g>
<!-- StatLabel0&#45;&gt;Label0: BinaryTree@main -->
<g id="edge14" class="edge"><title>StatLabel0&#45;&gt;Label0: BinaryTree@main</title>
<path fill="none" stroke="black" d="M129.328,-1080.05C125.915,-1072.09 121.767,-1062.41 117.952,-1053.51"/>
<polygon fill="black" stroke="black" points="121.151,-1052.09 113.994,-1044.28 114.716,-1054.85 121.151,-1052.09"/>
</g>
<!-- Temp3: T75 -->
<g id="node24" class="node"><title>Temp3: T75</title>
<ellipse fill="none" stroke="black" cx="472.591" cy="-306" rx="55.4913" ry="18"/>
<text text-anchor="middle" x="472.591" y="-302.3" font-family="Times,serif" font-size="14.00">Temp3: T75</text>
</g>
<!-- ExpTemp3&#45;&gt;Temp3: T75 -->
<g id="edge15" class="edge"><title>ExpTemp3&#45;&gt;Temp3: T75</title>
<path fill="none" stroke="black" d="M472.591,-359.697C472.591,-351.983 472.591,-342.712 472.591,-334.112"/>
<polygon fill="black" stroke="black" points="476.091,-334.104 472.591,-324.104 469.091,-334.104 476.091,-334.104"/>
</g>
<!-- Temp0: T77 -->
<g id="node26" class="node"><title>Temp0: T77</title>
<ellipse fill="none" stroke="black" cx="95.5905" cy="-810" rx="55.4913" ry="18"/>
<text text-anchor="middle" x="95.5905" y="-806.3" font-family="Times,serif" font-size="14.00">Temp0: T77</text>
</g>
<!-- ExpTemp0&#45;&gt;Temp0: T77 -->
<g id="edge16" class="edge"><title>ExpTemp0&#45;&gt;Temp0: T77</title>
<path fill="none" stroke="black" d="M100.107,-863.697C99.4462,-855.983 98.6516,-846.712 97.9145,-838.112"/>
<polygon fill="black" stroke="black" points="101.398,-837.769 97.0566,-828.104 94.4235,-838.367 101.398,-837.769"/>
</g>
<!-- ExpList2 -->
<g id="node27" class="node"><title>ExpList2</title>
<ellipse fill="none" stroke="black" cx="479.591" cy="-234" rx="42.7926" ry="18"/>
<text text-anchor="middle" x="479.591" y="-230.3" font-family="Times,serif" font-size="14.00">ExpList2</text>
</g>
<!-- ExpBinary0 -->
<g id="node28" class="node"><title>ExpBinary0</title>
<ellipse fill="none" stroke="black" cx="485.591" cy="-162" rx="53.0913" ry="18"/>
<text text-anchor="middle" x="485.591" y="-158.3" font-family="Times,serif" font-size="14.00">ExpBinary0</text>
</g>
<!-- ExpList2&#45;&gt;ExpBinary0 -->
<g id="edge17" class="edge"><title>ExpList2&#45;&gt;ExpBinary0</title>
<path fill="none" stroke="black" d="M481.074,-215.697C481.735,-207.983 482.529,-198.712 483.267,-190.112"/>
<polygon fill="black" stroke="black" points="486.758,-190.367 484.124,-180.104 479.783,-189.769 486.758,-190.367"/>
</g>
<!-- ExpBinary0&#45;&gt;ExpConst1 -->
<g id="edge33" class="edge"><title>ExpBinary0&#45;&gt;ExpConst1</title>
<path fill="none" stroke="black" d="M508.853,-145.638C523.868,-135.723 543.59,-122.698 560.013,-111.853"/>
<polygon fill="black" stroke="black" points="562.331,-114.517 568.747,-106.085 558.474,-108.675 562.331,-114.517"/>
</g>
<!-- ExpConst0 -->
<g id="node38" class="node"><title>ExpConst0</title>
<ellipse fill="none" stroke="black" cx="379.591" cy="-90" rx="50.0912" ry="18"/>
<text text-anchor="middle" x="379.591" y="-86.3" font-family="Times,serif" font-size="14.00">ExpConst0</text>
</g>
<!-- ExpBinary0&#45;&gt;ExpConst0 -->
<g id="edge31" class="edge"><title>ExpBinary0&#45;&gt;ExpConst0</title>
<path fill="none" stroke="black" d="M462.328,-145.638C447.314,-135.723 427.591,-122.698 411.168,-111.853"/>
<polygon fill="black" stroke="black" points="412.707,-108.675 402.434,-106.085 408.85,-114.517 412.707,-108.675"/>
</g>
<!-- Times0 -->
<g id="node40" class="node"><title>Times0</title>
<ellipse fill="none" stroke="black" cx="485.591" cy="-90" rx="37.8943" ry="18"/>
<text text-anchor="middle" x="485.591" y="-86.3" font-family="Times,serif" font-size="14.00">Times0</text>
</g>
<!-- ExpBinary0&#45;&gt;Times0 -->
<g id="edge32" class="edge"><title>ExpBinary0&#45;&gt;Times0</title>
<path fill="none" stroke="black" d="M485.591,-143.697C485.591,-135.983 485.591,-126.712 485.591,-118.112"/>
<polygon fill="black" stroke="black" points="489.091,-118.104 485.591,-108.104 482.091,-118.104 489.091,-118.104"/>
</g>
<!-- ExpCall2 -->
<g id="node29" class="node"><title>ExpCall2</title>
<ellipse fill="none" stroke="black" cx="355.591" cy="-306" rx="44.393" ry="18"/>
<text text-anchor="middle" x="355.591" y="-302.3" font-family="Times,serif" font-size="14.00">ExpCall2</text>
</g>
<!-- ExpCall2&#45;&gt;ExpList2 -->
<g id="edge21" class="edge"><title>ExpCall2&#45;&gt;ExpList2</title>
<path fill="none" stroke="black" d="M380.386,-291.003C399.225,-280.368 425.337,-265.627 446.042,-253.939"/>
<polygon fill="black" stroke="black" points="447.851,-256.937 454.838,-248.973 444.409,-250.841 447.851,-256.937"/>
</g>
<!-- ExpName2 -->
<g id="node30" class="node"><title>ExpName2</title>
<ellipse fill="none" stroke="black" cx="355.591" cy="-234" rx="50.8918" ry="18"/>
<text text-anchor="middle" x="355.591" y="-230.3" font-family="Times,serif" font-size="14.00">ExpName2</text>
</g>
<!-- ExpCall2&#45;&gt;ExpName2 -->
<g id="edge20" class="edge"><title>ExpCall2&#45;&gt;ExpName2</title>
<path fill="none" stroke="black" d="M355.591,-287.697C355.591,-279.983 355.591,-270.712 355.591,-262.112"/>
<polygon fill="black" stroke="black" points="359.091,-262.104 355.591,-252.104 352.091,-262.104 359.091,-262.104"/>
</g>
<!-- Label3: malloc -->
<g id="node37" class="node"><title>Label3: malloc</title>
<ellipse fill="none" stroke="black" cx="349.591" cy="-162" rx="64.189" ry="18"/>
<text text-anchor="middle" x="349.591" y="-158.3" font-family="Times,serif" font-size="14.00">Label3: malloc</text>
</g>
<!-- ExpName2&#45;&gt;Label3: malloc -->
<g id="edge29" class="edge"><title>ExpName2&#45;&gt;Label3: malloc</title>
<path fill="none" stroke="black" d="M354.107,-215.697C353.446,-207.983 352.652,-198.712 351.914,-190.112"/>
<polygon fill="black" stroke="black" points="355.398,-189.769 351.057,-180.104 348.424,-190.367 355.398,-189.769"/>
</g>
<!-- ExpTemp2 -->
<g id="node31" class="node"><title>ExpTemp2</title>
<ellipse fill="none" stroke="black" cx="237.591" cy="-306" rx="50.0912" ry="18"/>
<text text-anchor="middle" x="237.591" y="-302.3" font-family="Times,serif" font-size="14.00">ExpTemp2</text>
</g>
<!-- Temp2: T75 -->
<g id="node32" class="node"><title>Temp2: T75</title>
<ellipse fill="none" stroke="black" cx="231.591" cy="-234" rx="55.4913" ry="18"/>
<text text-anchor="middle" x="231.591" y="-230.3" font-family="Times,serif" font-size="14.00">Temp2: T75</text>
</g>
<!-- ExpTemp2&#45;&gt;Temp2: T75 -->
<g id="edge22" class="edge"><title>ExpTemp2&#45;&gt;Temp2: T75</title>
<path fill="none" stroke="black" d="M236.107,-287.697C235.446,-279.983 234.652,-270.712 233.914,-262.112"/>
<polygon fill="black" stroke="black" points="237.398,-261.769 233.057,-252.104 230.424,-262.367 237.398,-261.769"/>
</g>
<!-- StatMove2&#45;&gt;ExpCall2 -->
<g id="edge24" class="edge"><title>StatMove2&#45;&gt;ExpCall2</title>
<path fill="none" stroke="black" d="M354.838,-359.697C354.948,-351.983 355.08,-342.712 355.203,-334.112"/>
<polygon fill="black" stroke="black" points="358.703,-334.153 355.346,-324.104 351.704,-334.053 358.703,-334.153"/>
</g>
<!-- StatMove2&#45;&gt;ExpTemp2 -->
<g id="edge23" class="edge"><title>StatMove2&#45;&gt;ExpTemp2</title>
<path fill="none" stroke="black" d="M329.778,-362.155C312.715,-351.946 289.851,-338.267 271.163,-327.086"/>
<polygon fill="black" stroke="black" points="272.746,-323.955 262.367,-321.824 269.152,-329.962 272.746,-323.955"/>
</g>
<!-- StatSeq0 -->
<g id="node36" class="node"><title>StatSeq0</title>
<ellipse fill="none" stroke="black" cx="198.591" cy="-1170" rx="42.4939" ry="18"/>
<text text-anchor="middle" x="198.591" y="-1166.3" font-family="Times,serif" font-size="14.00">StatSeq0</text>
</g>
<!-- StatSeq0&#45;&gt;StatExp0 -->
<g id="edge28" class="edge"><title>StatSeq0&#45;&gt;StatExp0</title>
<path fill="none" stroke="black" d="M213.202,-1152.76C221.233,-1143.84 231.343,-1132.61 240.243,-1122.72"/>
<polygon fill="black" stroke="black" points="242.97,-1124.92 247.058,-1115.15 237.767,-1120.24 242.97,-1124.92"/>
</g>
<!-- StatSeq0&#45;&gt;StatLabel0 -->
<g id="edge27" class="edge"><title>StatSeq0&#45;&gt;StatLabel0</title>
<path fill="none" stroke="black" d="M184.211,-1152.76C176.42,-1143.97 166.641,-1132.93 157.975,-1123.14"/>
<polygon fill="black" stroke="black" points="160.573,-1120.8 151.323,-1115.63 155.333,-1125.44 160.573,-1120.8"/>
</g>
<!-- Value0: 0 -->
<g id="node39" class="node"><title>Value0: 0</title>
<ellipse fill="none" stroke="black" cx="379.591" cy="-18" rx="45.4919" ry="18"/>
<text text-anchor="middle" x="379.591" y="-14.3" font-family="Times,serif" font-size="14.00">Value0: 0</text>
</g>
<!-- ExpConst0&#45;&gt;Value0: 0 -->
<g id="edge30" class="edge"><title>ExpConst0&#45;&gt;Value0: 0</title>
<path fill="none" stroke="black" d="M379.591,-71.6966C379.591,-63.9827 379.591,-54.7125 379.591,-46.1124"/>
<polygon fill="black" stroke="black" points="383.091,-46.1043 379.591,-36.1043 376.091,-46.1044 383.091,-46.1043"/>
</g>
</g>
</svg>
