<?xml version="1.0" encoding="UTF-8" standalone="no"?>
<!DOCTYPE svg PUBLIC "-//W3C//DTD SVG 1.1//EN"
 "http://www.w3.org/Graphics/SVG/1.1/DTD/svg11.dtd">
<!-- Generated by graphviz version 2.38.0 (20140413.2041)
 -->
<!-- Title: %3 Pages: 1 -->
<svg width="1107pt" height="764pt"
 viewBox="0.00 0.00 1106.69 764.00" xmlns="http://www.w3.org/2000/svg" xmlns:xlink="http://www.w3.org/1999/xlink">
<g id="graph0" class="graph" transform="scale(1 1) rotate(0) translate(4 760)">
<title>%3</title>
<polygon fill="white" stroke="none" points="-4,4 -4,-760 1102.69,-760 1102.69,4 -4,4"/>
<!-- ExpConst3 -->
<g id="node1" class="node"><title>ExpConst3</title>
<ellipse fill="none" stroke="black" cx="1041.65" cy="-522" rx="50.0912" ry="18"/>
<text text-anchor="middle" x="1041.65" y="-518.3" font-family="Times,serif" font-size="14.00">ExpConst3</text>
</g>
<!-- Value3: 1 -->
<g id="node2" class="node"><title>Value3: 1</title>
<ellipse fill="none" stroke="black" cx="1041.65" cy="-450" rx="45.4919" ry="18"/>
<text text-anchor="middle" x="1041.65" y="-446.3" font-family="Times,serif" font-size="14.00">Value3: 1</text>
</g>
<!-- ExpConst3&#45;&gt;Value3: 1 -->
<g id="edge1" class="edge"><title>ExpConst3&#45;&gt;Value3: 1</title>
<path fill="none" stroke="black" d="M1041.65,-503.697C1041.65,-495.983 1041.65,-486.712 1041.65,-478.112"/>
<polygon fill="black" stroke="black" points="1045.15,-478.104 1041.65,-468.104 1038.15,-478.104 1045.15,-478.104"/>
</g>
<!-- StatMove3 -->
<g id="node3" class="node"><title>StatMove3</title>
<ellipse fill="none" stroke="black" cx="923.645" cy="-594" rx="50.0912" ry="18"/>
<text text-anchor="middle" x="923.645" y="-590.3" font-family="Times,serif" font-size="14.00">StatMove3</text>
</g>
<!-- StatMove3&#45;&gt;ExpConst3 -->
<g id="edge3" class="edge"><title>StatMove3&#45;&gt;ExpConst3</title>
<path fill="none" stroke="black" d="M948.382,-578.326C965.768,-568.012 989.228,-554.095 1008.27,-542.8"/>
<polygon fill="black" stroke="black" points="1010.13,-545.767 1016.94,-537.655 1006.55,-539.747 1010.13,-545.767"/>
</g>
<!-- ExpTemp7 -->
<g id="node4" class="node"><title>ExpTemp7</title>
<ellipse fill="none" stroke="black" cx="923.645" cy="-522" rx="50.0912" ry="18"/>
<text text-anchor="middle" x="923.645" y="-518.3" font-family="Times,serif" font-size="14.00">ExpTemp7</text>
</g>
<!-- StatMove3&#45;&gt;ExpTemp7 -->
<g id="edge2" class="edge"><title>StatMove3&#45;&gt;ExpTemp7</title>
<path fill="none" stroke="black" d="M923.645,-575.697C923.645,-567.983 923.645,-558.712 923.645,-550.112"/>
<polygon fill="black" stroke="black" points="927.145,-550.104 923.645,-540.104 920.145,-550.104 927.145,-550.104"/>
</g>
<!-- Temp7: $rv -->
<g id="node48" class="node"><title>Temp7: $rv</title>
<ellipse fill="none" stroke="black" cx="924.645" cy="-450" rx="52.7911" ry="18"/>
<text text-anchor="middle" x="924.645" y="-446.3" font-family="Times,serif" font-size="14.00">Temp7: $rv</text>
</g>
<!-- ExpTemp7&#45;&gt;Temp7: $rv -->
<g id="edge45" class="edge"><title>ExpTemp7&#45;&gt;Temp7: $rv</title>
<path fill="none" stroke="black" d="M923.893,-503.697C924.003,-495.983 924.135,-486.712 924.258,-478.112"/>
<polygon fill="black" stroke="black" points="927.758,-478.153 924.401,-468.104 920.758,-478.053 927.758,-478.153"/>
</g>
<!-- ExpTemp6 -->
<g id="node5" class="node"><title>ExpTemp6</title>
<ellipse fill="none" stroke="black" cx="967.645" cy="-378" rx="50.0912" ry="18"/>
<text text-anchor="middle" x="967.645" y="-374.3" font-family="Times,serif" font-size="14.00">ExpTemp6</text>
</g>
<!-- Temp6: T47 -->
<g id="node6" class="node"><title>Temp6: T47</title>
<ellipse fill="none" stroke="black" cx="977.645" cy="-306" rx="55.4913" ry="18"/>
<text text-anchor="middle" x="977.645" y="-302.3" font-family="Times,serif" font-size="14.00">Temp6: T47</text>
</g>
<!-- ExpTemp6&#45;&gt;Temp6: T47 -->
<g id="edge4" class="edge"><title>ExpTemp6&#45;&gt;Temp6: T47</title>
<path fill="none" stroke="black" d="M970.117,-359.697C971.219,-351.983 972.544,-342.712 973.772,-334.112"/>
<polygon fill="black" stroke="black" points="977.252,-334.499 975.202,-324.104 970.323,-333.509 977.252,-334.499"/>
</g>
<!-- StatMove2 -->
<g id="node7" class="node"><title>StatMove2</title>
<ellipse fill="none" stroke="black" cx="803.645" cy="-450" rx="50.0912" ry="18"/>
<text text-anchor="middle" x="803.645" y="-446.3" font-family="Times,serif" font-size="14.00">StatMove2</text>
</g>
<!-- StatMove2&#45;&gt;ExpTemp6 -->
<g id="edge6" class="edge"><title>StatMove2&#45;&gt;ExpTemp6</title>
<path fill="none" stroke="black" d="M834.878,-435.669C861.097,-424.478 898.73,-408.415 927.239,-396.246"/>
<polygon fill="black" stroke="black" points="928.705,-399.426 936.528,-392.282 925.957,-392.988 928.705,-399.426"/>
</g>
<!-- ExpMem4 -->
<g id="node8" class="node"><title>ExpMem4</title>
<ellipse fill="none" stroke="black" cx="831.645" cy="-378" rx="48.9926" ry="18"/>
<text text-anchor="middle" x="831.645" y="-374.3" font-family="Times,serif" font-size="14.00">ExpMem4</text>
</g>
<!-- StatMove2&#45;&gt;ExpMem4 -->
<g id="edge5" class="edge"><title>StatMove2&#45;&gt;ExpMem4</title>
<path fill="none" stroke="black" d="M810.423,-432.055C813.575,-424.176 817.399,-414.617 820.928,-405.794"/>
<polygon fill="black" stroke="black" points="824.271,-406.86 824.735,-396.275 817.772,-404.26 824.271,-406.86"/>
</g>
<!-- ExpBinary2 -->
<g id="node11" class="node"><title>ExpBinary2</title>
<ellipse fill="none" stroke="black" cx="850.645" cy="-306" rx="53.0913" ry="18"/>
<text text-anchor="middle" x="850.645" y="-302.3" font-family="Times,serif" font-size="14.00">ExpBinary2</text>
</g>
<!-- ExpMem4&#45;&gt;ExpBinary2 -->
<g id="edge31" class="edge"><title>ExpMem4&#45;&gt;ExpBinary2</title>
<path fill="none" stroke="black" d="M836.245,-360.055C838.36,-352.261 840.922,-342.822 843.295,-334.079"/>
<polygon fill="black" stroke="black" points="846.715,-334.843 845.956,-324.275 839.959,-333.009 846.715,-334.843"/>
</g>
<!-- ExpConst2 -->
<g id="node9" class="node"><title>ExpConst2</title>
<ellipse fill="none" stroke="black" cx="1048.65" cy="-234" rx="50.0912" ry="18"/>
<text text-anchor="middle" x="1048.65" y="-230.3" font-family="Times,serif" font-size="14.00">ExpConst2</text>
</g>
<!-- Value2: 8 -->
<g id="node10" class="node"><title>Value2: 8</title>
<ellipse fill="none" stroke="black" cx="1048.65" cy="-162" rx="45.4919" ry="18"/>
<text text-anchor="middle" x="1048.65" y="-158.3" font-family="Times,serif" font-size="14.00">Value2: 8</text>
</g>
<!-- ExpConst2&#45;&gt;Value2: 8 -->
<g id="edge7" class="edge"><title>ExpConst2&#45;&gt;Value2: 8</title>
<path fill="none" stroke="black" d="M1048.65,-215.697C1048.65,-207.983 1048.65,-198.712 1048.65,-190.112"/>
<polygon fill="black" stroke="black" points="1052.15,-190.104 1048.65,-180.104 1045.15,-190.104 1052.15,-190.104"/>
</g>
<!-- ExpBinary2&#45;&gt;ExpConst2 -->
<g id="edge10" class="edge"><title>ExpBinary2&#45;&gt;ExpConst2</title>
<path fill="none" stroke="black" d="M886.044,-292.485C919.19,-280.767 968.831,-263.217 1004.54,-250.593"/>
<polygon fill="black" stroke="black" points="1005.95,-253.805 1014.22,-247.172 1003.62,-247.205 1005.95,-253.805"/>
</g>
<!-- ExpTemp5 -->
<g id="node12" class="node"><title>ExpTemp5</title>
<ellipse fill="none" stroke="black" cx="850.645" cy="-234" rx="50.0912" ry="18"/>
<text text-anchor="middle" x="850.645" y="-230.3" font-family="Times,serif" font-size="14.00">ExpTemp5</text>
</g>
<!-- ExpBinary2&#45;&gt;ExpTemp5 -->
<g id="edge8" class="edge"><title>ExpBinary2&#45;&gt;ExpTemp5</title>
<path fill="none" stroke="black" d="M850.645,-287.697C850.645,-279.983 850.645,-270.712 850.645,-262.112"/>
<polygon fill="black" stroke="black" points="854.145,-262.104 850.645,-252.104 847.145,-262.104 854.145,-262.104"/>
</g>
<!-- Plus2 -->
<g id="node13" class="node"><title>Plus2</title>
<ellipse fill="none" stroke="black" cx="949.645" cy="-234" rx="30.5947" ry="18"/>
<text text-anchor="middle" x="949.645" y="-230.3" font-family="Times,serif" font-size="14.00">Plus2</text>
</g>
<!-- ExpBinary2&#45;&gt;Plus2 -->
<g id="edge9" class="edge"><title>ExpBinary2&#45;&gt;Plus2</title>
<path fill="none" stroke="black" d="M872.617,-289.465C887.324,-279.065 906.786,-265.304 922.468,-254.217"/>
<polygon fill="black" stroke="black" points="924.592,-257.001 930.736,-248.37 920.551,-251.286 924.592,-257.001"/>
</g>
<!-- Temp5: $fp -->
<g id="node30" class="node"><title>Temp5: $fp</title>
<ellipse fill="none" stroke="black" cx="857.645" cy="-162" rx="52.7911" ry="18"/>
<text text-anchor="middle" x="857.645" y="-158.3" font-family="Times,serif" font-size="14.00">Temp5: $fp</text>
</g>
<!-- ExpTemp5&#45;&gt;Temp5: $fp -->
<g id="edge21" class="edge"><title>ExpTemp5&#45;&gt;Temp5: $fp</title>
<path fill="none" stroke="black" d="M852.376,-215.697C853.147,-207.983 854.074,-198.712 854.934,-190.112"/>
<polygon fill="black" stroke="black" points="858.422,-190.403 855.935,-180.104 851.457,-189.706 858.422,-190.403"/>
</g>
<!-- StatSeq2 -->
<g id="node14" class="node"><title>StatSeq2</title>
<ellipse fill="none" stroke="black" cx="689.645" cy="-594" rx="42.4939" ry="18"/>
<text text-anchor="middle" x="689.645" y="-590.3" font-family="Times,serif" font-size="14.00">StatSeq2</text>
</g>
<!-- StatMove0 -->
<g id="node15" class="node"><title>StatMove0</title>
<ellipse fill="none" stroke="black" cx="371.645" cy="-522" rx="50.0912" ry="18"/>
<text text-anchor="middle" x="371.645" y="-518.3" font-family="Times,serif" font-size="14.00">StatMove0</text>
</g>
<!-- StatSeq2&#45;&gt;StatMove0 -->
<g id="edge11" class="edge"><title>StatSeq2&#45;&gt;StatMove0</title>
<path fill="none" stroke="black" d="M658.274,-581.855C651.827,-579.759 645.051,-577.696 638.645,-576 566.114,-556.794 480.852,-541.025 426.548,-531.817"/>
<polygon fill="black" stroke="black" points="426.888,-528.325 416.446,-530.12 425.728,-535.229 426.888,-528.325"/>
</g>
<!-- StatSeq3 -->
<g id="node16" class="node"><title>StatSeq3</title>
<ellipse fill="none" stroke="black" cx="689.645" cy="-522" rx="42.4939" ry="18"/>
<text text-anchor="middle" x="689.645" y="-518.3" font-family="Times,serif" font-size="14.00">StatSeq3</text>
</g>
<!-- StatSeq2&#45;&gt;StatSeq3 -->
<g id="edge12" class="edge"><title>StatSeq2&#45;&gt;StatSeq3</title>
<path fill="none" stroke="black" d="M689.645,-575.697C689.645,-567.983 689.645,-558.712 689.645,-550.112"/>
<polygon fill="black" stroke="black" points="693.145,-550.104 689.645,-540.104 686.145,-550.104 693.145,-550.104"/>
</g>
<!-- ExpMem1 -->
<g id="node17" class="node"><title>ExpMem1</title>
<ellipse fill="none" stroke="black" cx="371.645" cy="-450" rx="48.9926" ry="18"/>
<text text-anchor="middle" x="371.645" y="-446.3" font-family="Times,serif" font-size="14.00">ExpMem1</text>
</g>
<!-- StatMove0&#45;&gt;ExpMem1 -->
<g id="edge28" class="edge"><title>StatMove0&#45;&gt;ExpMem1</title>
<path fill="none" stroke="black" d="M371.645,-503.697C371.645,-495.983 371.645,-486.712 371.645,-478.112"/>
<polygon fill="black" stroke="black" points="375.145,-478.104 371.645,-468.104 368.145,-478.104 375.145,-478.104"/>
</g>
<!-- ExpMem0 -->
<g id="node21" class="node"><title>ExpMem0</title>
<ellipse fill="none" stroke="black" cx="204.645" cy="-450" rx="48.9926" ry="18"/>
<text text-anchor="middle" x="204.645" y="-446.3" font-family="Times,serif" font-size="14.00">ExpMem0</text>
</g>
<!-- StatMove0&#45;&gt;ExpMem0 -->
<g id="edge27" class="edge"><title>StatMove0&#45;&gt;ExpMem0</title>
<path fill="none" stroke="black" d="M340.234,-507.834C313.324,-496.554 274.398,-480.238 245.15,-467.978"/>
<polygon fill="black" stroke="black" points="246.209,-464.627 235.633,-463.989 243.503,-471.083 246.209,-464.627"/>
</g>
<!-- StatSeq3&#45;&gt;StatMove2 -->
<g id="edge30" class="edge"><title>StatSeq3&#45;&gt;StatMove2</title>
<path fill="none" stroke="black" d="M712.715,-506.834C729.377,-496.604 752.12,-482.639 770.692,-471.234"/>
<polygon fill="black" stroke="black" points="772.739,-474.085 779.43,-465.869 769.076,-468.119 772.739,-474.085"/>
</g>
<!-- StatMove1 -->
<g id="node38" class="node"><title>StatMove1</title>
<ellipse fill="none" stroke="black" cx="630.645" cy="-450" rx="50.0912" ry="18"/>
<text text-anchor="middle" x="630.645" y="-446.3" font-family="Times,serif" font-size="14.00">StatMove1</text>
</g>
<!-- StatSeq3&#45;&gt;StatMove1 -->
<g id="edge29" class="edge"><title>StatSeq3&#45;&gt;StatMove1</title>
<path fill="none" stroke="black" d="M675.961,-504.765C668.621,-496.056 659.426,-485.147 651.241,-475.435"/>
<polygon fill="black" stroke="black" points="653.786,-473.024 644.665,-467.633 648.433,-477.535 653.786,-473.024"/>
</g>
<!-- ExpTemp1 -->
<g id="node18" class="node"><title>ExpTemp1</title>
<ellipse fill="none" stroke="black" cx="371.645" cy="-378" rx="50.0912" ry="18"/>
<text text-anchor="middle" x="371.645" y="-374.3" font-family="Times,serif" font-size="14.00">ExpTemp1</text>
</g>
<!-- ExpMem1&#45;&gt;ExpTemp1 -->
<g id="edge13" class="edge"><title>ExpMem1&#45;&gt;ExpTemp1</title>
<path fill="none" stroke="black" d="M371.645,-431.697C371.645,-423.983 371.645,-414.712 371.645,-406.112"/>
<polygon fill="black" stroke="black" points="375.145,-406.104 371.645,-396.104 368.145,-406.104 375.145,-406.104"/>
</g>
<!-- Temp1: $fp -->
<g id="node31" class="node"><title>Temp1: $fp</title>
<ellipse fill="none" stroke="black" cx="371.645" cy="-306" rx="52.7911" ry="18"/>
<text text-anchor="middle" x="371.645" y="-302.3" font-family="Times,serif" font-size="14.00">Temp1: $fp</text>
</g>
<!-- ExpTemp1&#45;&gt;Temp1: $fp -->
<g id="edge22" class="edge"><title>ExpTemp1&#45;&gt;Temp1: $fp</title>
<path fill="none" stroke="black" d="M371.645,-359.697C371.645,-351.983 371.645,-342.712 371.645,-334.112"/>
<polygon fill="black" stroke="black" points="375.145,-334.104 371.645,-324.104 368.145,-334.104 375.145,-334.104"/>
</g>
<!-- ExpConst0 -->
<g id="node19" class="node"><title>ExpConst0</title>
<ellipse fill="none" stroke="black" cx="250.645" cy="-306" rx="50.0912" ry="18"/>
<text text-anchor="middle" x="250.645" y="-302.3" font-family="Times,serif" font-size="14.00">ExpConst0</text>
</g>
<!-- Value0: 12 -->
<g id="node20" class="node"><title>Value0: 12</title>
<ellipse fill="none" stroke="black" cx="250.645" cy="-234" rx="50.0912" ry="18"/>
<text text-anchor="middle" x="250.645" y="-230.3" font-family="Times,serif" font-size="14.00">Value0: 12</text>
</g>
<!-- ExpConst0&#45;&gt;Value0: 12 -->
<g id="edge14" class="edge"><title>ExpConst0&#45;&gt;Value0: 12</title>
<path fill="none" stroke="black" d="M250.645,-287.697C250.645,-279.983 250.645,-270.712 250.645,-262.112"/>
<polygon fill="black" stroke="black" points="254.145,-262.104 250.645,-252.104 247.145,-262.104 254.145,-262.104"/>
</g>
<!-- ExpBinary0 -->
<g id="node22" class="node"><title>ExpBinary0</title>
<ellipse fill="none" stroke="black" cx="201.645" cy="-378" rx="53.0913" ry="18"/>
<text text-anchor="middle" x="201.645" y="-374.3" font-family="Times,serif" font-size="14.00">ExpBinary0</text>
</g>
<!-- ExpMem0&#45;&gt;ExpBinary0 -->
<g id="edge15" class="edge"><title>ExpMem0&#45;&gt;ExpBinary0</title>
<path fill="none" stroke="black" d="M203.904,-431.697C203.573,-423.983 203.176,-414.712 202.807,-406.112"/>
<polygon fill="black" stroke="black" points="206.303,-405.945 202.378,-396.104 199.31,-406.245 206.303,-405.945"/>
</g>
<!-- ExpBinary0&#45;&gt;ExpConst0 -->
<g id="edge34" class="edge"><title>ExpBinary0&#45;&gt;ExpConst0</title>
<path fill="none" stroke="black" d="M213.258,-360.411C219.151,-351.992 226.436,-341.585 233.005,-332.201"/>
<polygon fill="black" stroke="black" points="235.909,-334.156 238.776,-323.956 230.174,-330.141 235.909,-334.156"/>
</g>
<!-- ExpTemp0 -->
<g id="node36" class="node"><title>ExpTemp0</title>
<ellipse fill="none" stroke="black" cx="52.6453" cy="-306" rx="50.0912" ry="18"/>
<text text-anchor="middle" x="52.6453" y="-302.3" font-family="Times,serif" font-size="14.00">ExpTemp0</text>
</g>
<!-- ExpBinary0&#45;&gt;ExpTemp0 -->
<g id="edge32" class="edge"><title>ExpBinary0&#45;&gt;ExpTemp0</title>
<path fill="none" stroke="black" d="M171.851,-363.003C148.657,-352.106 116.289,-336.9 91.1339,-325.082"/>
<polygon fill="black" stroke="black" points="92.4194,-321.819 81.8802,-320.734 89.4429,-328.155 92.4194,-321.819"/>
</g>
<!-- Plus0 -->
<g id="node39" class="node"><title>Plus0</title>
<ellipse fill="none" stroke="black" cx="151.645" cy="-306" rx="30.5947" ry="18"/>
<text text-anchor="middle" x="151.645" y="-302.3" font-family="Times,serif" font-size="14.00">Plus0</text>
</g>
<!-- ExpBinary0&#45;&gt;Plus0 -->
<g id="edge33" class="edge"><title>ExpBinary0&#45;&gt;Plus0</title>
<path fill="none" stroke="black" d="M189.796,-360.411C183.605,-351.744 175.91,-340.971 169.056,-331.375"/>
<polygon fill="black" stroke="black" points="171.726,-329.091 163.065,-322.988 166.03,-333.16 171.726,-329.091"/>
</g>
<!-- ExpBinary1 -->
<g id="node23" class="node"><title>ExpBinary1</title>
<ellipse fill="none" stroke="black" cx="733.645" cy="-162" rx="53.0913" ry="18"/>
<text text-anchor="middle" x="733.645" y="-158.3" font-family="Times,serif" font-size="14.00">ExpBinary1</text>
</g>
<!-- ExpTemp4 -->
<g id="node24" class="node"><title>ExpTemp4</title>
<ellipse fill="none" stroke="black" cx="684.645" cy="-90" rx="50.0912" ry="18"/>
<text text-anchor="middle" x="684.645" y="-86.3" font-family="Times,serif" font-size="14.00">ExpTemp4</text>
</g>
<!-- ExpBinary1&#45;&gt;ExpTemp4 -->
<g id="edge16" class="edge"><title>ExpBinary1&#45;&gt;ExpTemp4</title>
<path fill="none" stroke="black" d="M722.033,-144.411C716.139,-135.992 708.855,-125.585 702.286,-116.201"/>
<polygon fill="black" stroke="black" points="705.117,-114.141 696.515,-107.956 699.382,-118.156 705.117,-114.141"/>
</g>
<!-- Plus1 -->
<g id="node25" class="node"><title>Plus1</title>
<ellipse fill="none" stroke="black" cx="783.645" cy="-90" rx="30.5947" ry="18"/>
<text text-anchor="middle" x="783.645" y="-86.3" font-family="Times,serif" font-size="14.00">Plus1</text>
</g>
<!-- ExpBinary1&#45;&gt;Plus1 -->
<g id="edge17" class="edge"><title>ExpBinary1&#45;&gt;Plus1</title>
<path fill="none" stroke="black" d="M745.495,-144.411C751.685,-135.744 759.38,-124.971 766.234,-115.375"/>
<polygon fill="black" stroke="black" points="769.261,-117.16 772.225,-106.988 763.565,-113.091 769.261,-117.16"/>
</g>
<!-- ExpConst1 -->
<g id="node26" class="node"><title>ExpConst1</title>
<ellipse fill="none" stroke="black" cx="882.645" cy="-90" rx="50.0912" ry="18"/>
<text text-anchor="middle" x="882.645" y="-86.3" font-family="Times,serif" font-size="14.00">ExpConst1</text>
</g>
<!-- ExpBinary1&#45;&gt;ExpConst1 -->
<g id="edge18" class="edge"><title>ExpBinary1&#45;&gt;ExpConst1</title>
<path fill="none" stroke="black" d="M763.44,-147.003C786.634,-136.106 819.001,-120.9 844.157,-109.082"/>
<polygon fill="black" stroke="black" points="845.848,-112.155 853.41,-104.734 842.871,-105.819 845.848,-112.155"/>
</g>
<!-- Temp4: $fp -->
<g id="node49" class="node"><title>Temp4: $fp</title>
<ellipse fill="none" stroke="black" cx="684.645" cy="-18" rx="52.7911" ry="18"/>
<text text-anchor="middle" x="684.645" y="-14.3" font-family="Times,serif" font-size="14.00">Temp4: $fp</text>
</g>
<!-- ExpTemp4&#45;&gt;Temp4: $fp -->
<g id="edge46" class="edge"><title>ExpTemp4&#45;&gt;Temp4: $fp</title>
<path fill="none" stroke="black" d="M684.645,-71.6966C684.645,-63.9827 684.645,-54.7125 684.645,-46.1124"/>
<polygon fill="black" stroke="black" points="688.145,-46.1043 684.645,-36.1043 681.145,-46.1044 688.145,-46.1043"/>
</g>
<!-- Value1: 12 -->
<g id="node43" class="node"><title>Value1: 12</title>
<ellipse fill="none" stroke="black" cx="882.645" cy="-18" rx="50.0912" ry="18"/>
<text text-anchor="middle" x="882.645" y="-14.3" font-family="Times,serif" font-size="14.00">Value1: 12</text>
</g>
<!-- ExpConst1&#45;&gt;Value1: 12 -->
<g id="edge40" class="edge"><title>ExpConst1&#45;&gt;Value1: 12</title>
<path fill="none" stroke="black" d="M882.645,-71.6966C882.645,-63.9827 882.645,-54.7125 882.645,-46.1124"/>
<polygon fill="black" stroke="black" points="886.145,-46.1043 882.645,-36.1043 879.145,-46.1044 886.145,-46.1043"/>
</g>
<!-- ExpMem3 -->
<g id="node27" class="node"><title>ExpMem3</title>
<ellipse fill="none" stroke="black" cx="733.645" cy="-234" rx="48.9926" ry="18"/>
<text text-anchor="middle" x="733.645" y="-230.3" font-family="Times,serif" font-size="14.00">ExpMem3</text>
</g>
<!-- ExpMem3&#45;&gt;ExpBinary1 -->
<g id="edge19" class="edge"><title>ExpMem3&#45;&gt;ExpBinary1</title>
<path fill="none" stroke="black" d="M733.645,-215.697C733.645,-207.983 733.645,-198.712 733.645,-190.112"/>
<polygon fill="black" stroke="black" points="737.145,-190.104 733.645,-180.104 730.145,-190.104 737.145,-190.104"/>
</g>
<!-- StatLabel0 -->
<g id="node28" class="node"><title>StatLabel0</title>
<ellipse fill="none" stroke="black" cx="564.645" cy="-666" rx="48.9926" ry="18"/>
<text text-anchor="middle" x="564.645" y="-662.3" font-family="Times,serif" font-size="14.00">StatLabel0</text>
</g>
<!-- Label0: Tree@Print -->
<g id="node29" class="node"><title>Label0: Tree@Print</title>
<ellipse fill="none" stroke="black" cx="548.645" cy="-594" rx="81.4863" ry="18"/>
<text text-anchor="middle" x="548.645" y="-590.3" font-family="Times,serif" font-size="14.00">Label0: Tree@Print</text>
</g>
<!-- StatLabel0&#45;&gt;Label0: Tree@Print -->
<g id="edge20" class="edge"><title>StatLabel0&#45;&gt;Label0: Tree@Print</title>
<path fill="none" stroke="black" d="M560.772,-648.055C558.991,-640.261 556.833,-630.822 554.835,-622.079"/>
<polygon fill="black" stroke="black" points="558.234,-621.244 552.594,-612.275 551.41,-622.804 558.234,-621.244"/>
</g>
<!-- StatSeq0 -->
<g id="node32" class="node"><title>StatSeq0</title>
<ellipse fill="none" stroke="black" cx="626.645" cy="-738" rx="42.4939" ry="18"/>
<text text-anchor="middle" x="626.645" y="-734.3" font-family="Times,serif" font-size="14.00">StatSeq0</text>
</g>
<!-- StatSeq0&#45;&gt;StatLabel0 -->
<g id="edge23" class="edge"><title>StatSeq0&#45;&gt;StatLabel0</title>
<path fill="none" stroke="black" d="M612.265,-720.765C604.475,-711.969 594.696,-700.928 586.03,-691.144"/>
<polygon fill="black" stroke="black" points="588.628,-688.799 579.378,-683.633 583.388,-693.44 588.628,-688.799"/>
</g>
<!-- StatSeq1 -->
<g id="node33" class="node"><title>StatSeq1</title>
<ellipse fill="none" stroke="black" cx="689.645" cy="-666" rx="42.4939" ry="18"/>
<text text-anchor="middle" x="689.645" y="-662.3" font-family="Times,serif" font-size="14.00">StatSeq1</text>
</g>
<!-- StatSeq0&#45;&gt;StatSeq1 -->
<g id="edge24" class="edge"><title>StatSeq0&#45;&gt;StatSeq1</title>
<path fill="none" stroke="black" d="M641.257,-720.765C649.288,-711.841 659.398,-700.608 668.298,-690.719"/>
<polygon fill="black" stroke="black" points="671.025,-692.922 675.113,-683.147 665.822,-688.239 671.025,-692.922"/>
</g>
<!-- StatSeq1&#45;&gt;StatMove3 -->
<g id="edge39" class="edge"><title>StatSeq1&#45;&gt;StatMove3</title>
<path fill="none" stroke="black" d="M723.172,-654.971C763.437,-642.926 831.224,-622.647 876.686,-609.048"/>
<polygon fill="black" stroke="black" points="877.735,-612.387 886.313,-606.168 875.729,-605.681 877.735,-612.387"/>
</g>
<!-- StatSeq1&#45;&gt;StatSeq2 -->
<g id="edge38" class="edge"><title>StatSeq1&#45;&gt;StatSeq2</title>
<path fill="none" stroke="black" d="M689.645,-647.697C689.645,-639.983 689.645,-630.712 689.645,-622.112"/>
<polygon fill="black" stroke="black" points="693.145,-622.104 689.645,-612.104 686.145,-622.104 693.145,-622.104"/>
</g>
<!-- ExpTemp3 -->
<g id="node34" class="node"><title>ExpTemp3</title>
<ellipse fill="none" stroke="black" cx="612.645" cy="-162" rx="50.0912" ry="18"/>
<text text-anchor="middle" x="612.645" y="-158.3" font-family="Times,serif" font-size="14.00">ExpTemp3</text>
</g>
<!-- Temp3: $fp -->
<g id="node35" class="node"><title>Temp3: $fp</title>
<ellipse fill="none" stroke="black" cx="563.645" cy="-90" rx="52.7911" ry="18"/>
<text text-anchor="middle" x="563.645" y="-86.3" font-family="Times,serif" font-size="14.00">Temp3: $fp</text>
</g>
<!-- ExpTemp3&#45;&gt;Temp3: $fp -->
<g id="edge25" class="edge"><title>ExpTemp3&#45;&gt;Temp3: $fp</title>
<path fill="none" stroke="black" d="M601.033,-144.411C595.139,-135.992 587.855,-125.585 581.286,-116.201"/>
<polygon fill="black" stroke="black" points="584.117,-114.141 575.515,-107.956 578.382,-118.156 584.117,-114.141"/>
</g>
<!-- Temp0: $fp -->
<g id="node37" class="node"><title>Temp0: $fp</title>
<ellipse fill="none" stroke="black" cx="52.6453" cy="-234" rx="52.7911" ry="18"/>
<text text-anchor="middle" x="52.6453" y="-230.3" font-family="Times,serif" font-size="14.00">Temp0: $fp</text>
</g>
<!-- ExpTemp0&#45;&gt;Temp0: $fp -->
<g id="edge26" class="edge"><title>ExpTemp0&#45;&gt;Temp0: $fp</title>
<path fill="none" stroke="black" d="M52.6453,-287.697C52.6453,-279.983 52.6453,-270.712 52.6453,-262.112"/>
<polygon fill="black" stroke="black" points="56.1454,-262.104 52.6453,-252.104 49.1454,-262.104 56.1454,-262.104"/>
</g>
<!-- ExpTemp2 -->
<g id="node40" class="node"><title>ExpTemp2</title>
<ellipse fill="none" stroke="black" cx="507.645" cy="-378" rx="50.0912" ry="18"/>
<text text-anchor="middle" x="507.645" y="-374.3" font-family="Times,serif" font-size="14.00">ExpTemp2</text>
</g>
<!-- StatMove1&#45;&gt;ExpTemp2 -->
<g id="edge36" class="edge"><title>StatMove1&#45;&gt;ExpTemp2</title>
<path fill="none" stroke="black" d="M605.16,-434.496C586.976,-424.147 562.306,-410.107 542.329,-398.739"/>
<polygon fill="black" stroke="black" points="543.944,-395.631 533.522,-393.726 540.481,-401.714 543.944,-395.631"/>
</g>
<!-- ExpCall0 -->
<g id="node42" class="node"><title>ExpCall0</title>
<ellipse fill="none" stroke="black" cx="630.645" cy="-378" rx="44.393" ry="18"/>
<text text-anchor="middle" x="630.645" y="-374.3" font-family="Times,serif" font-size="14.00">ExpCall0</text>
</g>
<!-- StatMove1&#45;&gt;ExpCall0 -->
<g id="edge37" class="edge"><title>StatMove1&#45;&gt;ExpCall0</title>
<path fill="none" stroke="black" d="M630.645,-431.697C630.645,-423.983 630.645,-414.712 630.645,-406.112"/>
<polygon fill="black" stroke="black" points="634.145,-406.104 630.645,-396.104 627.145,-406.104 634.145,-406.104"/>
</g>
<!-- Temp2: T47 -->
<g id="node41" class="node"><title>Temp2: T47</title>
<ellipse fill="none" stroke="black" cx="497.645" cy="-306" rx="55.4913" ry="18"/>
<text text-anchor="middle" x="497.645" y="-302.3" font-family="Times,serif" font-size="14.00">Temp2: T47</text>
</g>
<!-- ExpTemp2&#45;&gt;Temp2: T47 -->
<g id="edge35" class="edge"><title>ExpTemp2&#45;&gt;Temp2: T47</title>
<path fill="none" stroke="black" d="M505.173,-359.697C504.071,-351.983 502.747,-342.712 501.519,-334.112"/>
<polygon fill="black" stroke="black" points="504.968,-333.509 500.089,-324.104 498.038,-334.499 504.968,-333.509"/>
</g>
<!-- ExpName0 -->
<g id="node44" class="node"><title>ExpName0</title>
<ellipse fill="none" stroke="black" cx="621.645" cy="-306" rx="50.8918" ry="18"/>
<text text-anchor="middle" x="621.645" y="-302.3" font-family="Times,serif" font-size="14.00">ExpName0</text>
</g>
<!-- ExpCall0&#45;&gt;ExpName0 -->
<g id="edge43" class="edge"><title>ExpCall0&#45;&gt;ExpName0</title>
<path fill="none" stroke="black" d="M628.421,-359.697C627.429,-351.983 626.237,-342.712 625.131,-334.112"/>
<polygon fill="black" stroke="black" points="628.591,-333.576 623.844,-324.104 621.648,-334.469 628.591,-333.576"/>
</g>
<!-- ExpList0 -->
<g id="node47" class="node"><title>ExpList0</title>
<ellipse fill="none" stroke="black" cx="733.645" cy="-306" rx="42.7926" ry="18"/>
<text text-anchor="middle" x="733.645" y="-302.3" font-family="Times,serif" font-size="14.00">ExpList0</text>
</g>
<!-- ExpCall0&#45;&gt;ExpList0 -->
<g id="edge44" class="edge"><title>ExpCall0&#45;&gt;ExpList0</title>
<path fill="none" stroke="black" d="M652.489,-362.155C667.237,-352.132 686.908,-338.763 703.189,-327.698"/>
<polygon fill="black" stroke="black" points="705.53,-330.34 711.833,-321.824 701.595,-324.55 705.53,-330.34"/>
</g>
<!-- Label1: Tree@RecPrint -->
<g id="node45" class="node"><title>Label1: Tree@RecPrint</title>
<ellipse fill="none" stroke="black" cx="456.645" cy="-234" rx="94.7833" ry="18"/>
<text text-anchor="middle" x="456.645" y="-230.3" font-family="Times,serif" font-size="14.00">Label1: Tree@RecPrint</text>
</g>
<!-- ExpName0&#45;&gt;Label1: Tree@RecPrint -->
<g id="edge41" class="edge"><title>ExpName0&#45;&gt;Label1: Tree@RecPrint</title>
<path fill="none" stroke="black" d="M590.222,-291.669C565.548,-281.201 530.824,-266.47 502.965,-254.651"/>
<polygon fill="black" stroke="black" points="503.998,-251.287 493.425,-250.604 501.264,-257.731 503.998,-251.287"/>
</g>
<!-- ExpMem2 -->
<g id="node46" class="node"><title>ExpMem2</title>
<ellipse fill="none" stroke="black" cx="618.645" cy="-234" rx="48.9926" ry="18"/>
<text text-anchor="middle" x="618.645" y="-230.3" font-family="Times,serif" font-size="14.00">ExpMem2</text>
</g>
<!-- ExpMem2&#45;&gt;ExpTemp3 -->
<g id="edge42" class="edge"><title>ExpMem2&#45;&gt;ExpTemp3</title>
<path fill="none" stroke="black" d="M617.162,-215.697C616.501,-207.983 615.706,-198.712 614.969,-190.112"/>
<polygon fill="black" stroke="black" points="618.453,-189.769 614.111,-180.104 611.478,-190.367 618.453,-189.769"/>
</g>
<!-- ExpList0&#45;&gt;ExpMem3 -->
<g id="edge48" class="edge"><title>ExpList0&#45;&gt;ExpMem3</title>
<path fill="none" stroke="black" d="M733.645,-287.697C733.645,-279.983 733.645,-270.712 733.645,-262.112"/>
<polygon fill="black" stroke="black" points="737.145,-262.104 733.645,-252.104 730.145,-262.104 737.145,-262.104"/>
</g>
<!-- ExpList0&#45;&gt;ExpMem2 -->
<g id="edge47" class="edge"><title>ExpList0&#45;&gt;ExpMem2</title>
<path fill="none" stroke="black" d="M710.373,-290.834C693.489,-280.557 670.414,-266.511 651.632,-255.079"/>
<polygon fill="black" stroke="black" points="653.435,-252.079 643.073,-249.869 649.796,-258.059 653.435,-252.079"/>
</g>
</g>
</svg>
