<?xml version="1.0" encoding="UTF-8" standalone="no"?>
<!DOCTYPE svg PUBLIC "-//W3C//DTD SVG 1.1//EN"
 "http://www.w3.org/Graphics/SVG/1.1/DTD/svg11.dtd">
<!-- Generated by graphviz version 2.38.0 (20140413.2041)
 -->
<!-- Title: %3 Pages: 1 -->
<svg width="453pt" height="764pt"
 viewBox="0.00 0.00 452.94 764.00" xmlns="http://www.w3.org/2000/svg" xmlns:xlink="http://www.w3.org/1999/xlink">
<g id="graph0" class="graph" transform="scale(1 1) rotate(0) translate(4 760)">
<title>%3</title>
<polygon fill="white" stroke="none" points="-4,4 -4,-760 448.936,-760 448.936,4 -4,4"/>
<!-- ExpEseq0 -->
<g id="node1" class="node"><title>ExpEseq0</title>
<ellipse fill="none" stroke="black" cx="269.691" cy="-594" rx="46.2923" ry="18"/>
<text text-anchor="middle" x="269.691" y="-590.3" font-family="Times,serif" font-size="14.00">ExpEseq0</text>
</g>
<!-- StatMove0 -->
<g id="node2" class="node"><title>StatMove0</title>
<ellipse fill="none" stroke="black" cx="210.691" cy="-522" rx="50.0912" ry="18"/>
<text text-anchor="middle" x="210.691" y="-518.3" font-family="Times,serif" font-size="14.00">StatMove0</text>
</g>
<!-- ExpEseq0&#45;&gt;StatMove0 -->
<g id="edge1" class="edge"><title>ExpEseq0&#45;&gt;StatMove0</title>
<path fill="none" stroke="black" d="M256.007,-576.765C248.667,-568.056 239.472,-557.147 231.286,-547.435"/>
<polygon fill="black" stroke="black" points="233.831,-545.024 224.71,-539.633 228.479,-549.535 233.831,-545.024"/>
</g>
<!-- ExpTemp3 -->
<g id="node3" class="node"><title>ExpTemp3</title>
<ellipse fill="none" stroke="black" cx="328.691" cy="-522" rx="50.0912" ry="18"/>
<text text-anchor="middle" x="328.691" y="-518.3" font-family="Times,serif" font-size="14.00">ExpTemp3</text>
</g>
<!-- ExpEseq0&#45;&gt;ExpTemp3 -->
<g id="edge2" class="edge"><title>ExpEseq0&#45;&gt;ExpTemp3</title>
<path fill="none" stroke="black" d="M283.375,-576.765C290.715,-568.056 299.91,-557.147 308.096,-547.435"/>
<polygon fill="black" stroke="black" points="310.903,-549.535 314.671,-539.633 305.55,-545.024 310.903,-549.535"/>
</g>
<!-- ExpTemp0 -->
<g id="node8" class="node"><title>ExpTemp0</title>
<ellipse fill="none" stroke="black" cx="93.6909" cy="-450" rx="50.0912" ry="18"/>
<text text-anchor="middle" x="93.6909" y="-446.3" font-family="Times,serif" font-size="14.00">ExpTemp0</text>
</g>
<!-- StatMove0&#45;&gt;ExpTemp0 -->
<g id="edge6" class="edge"><title>StatMove0&#45;&gt;ExpTemp0</title>
<path fill="none" stroke="black" d="M185.878,-506.155C168.815,-495.946 145.952,-482.267 127.263,-471.086"/>
<polygon fill="black" stroke="black" points="128.846,-467.955 118.468,-465.824 125.252,-473.962 128.846,-467.955"/>
</g>
<!-- ExpCall0 -->
<g id="node9" class="node"><title>ExpCall0</title>
<ellipse fill="none" stroke="black" cx="211.691" cy="-450" rx="44.393" ry="18"/>
<text text-anchor="middle" x="211.691" y="-446.3" font-family="Times,serif" font-size="14.00">ExpCall0</text>
</g>
<!-- StatMove0&#45;&gt;ExpCall0 -->
<g id="edge7" class="edge"><title>StatMove0&#45;&gt;ExpCall0</title>
<path fill="none" stroke="black" d="M210.938,-503.697C211.048,-495.983 211.181,-486.712 211.304,-478.112"/>
<polygon fill="black" stroke="black" points="214.803,-478.153 211.447,-468.104 207.804,-478.053 214.803,-478.153"/>
</g>
<!-- Temp3: T85 -->
<g id="node16" class="node"><title>Temp3: T85</title>
<ellipse fill="none" stroke="black" cx="328.691" cy="-450" rx="55.4913" ry="18"/>
<text text-anchor="middle" x="328.691" y="-446.3" font-family="Times,serif" font-size="14.00">Temp3: T85</text>
</g>
<!-- ExpTemp3&#45;&gt;Temp3: T85 -->
<g id="edge13" class="edge"><title>ExpTemp3&#45;&gt;Temp3: T85</title>
<path fill="none" stroke="black" d="M328.691,-503.697C328.691,-495.983 328.691,-486.712 328.691,-478.112"/>
<polygon fill="black" stroke="black" points="332.191,-478.104 328.691,-468.104 325.191,-478.104 332.191,-478.104"/>
</g>
<!-- ExpTemp2 -->
<g id="node4" class="node"><title>ExpTemp2</title>
<ellipse fill="none" stroke="black" cx="389.691" cy="-234" rx="50.0912" ry="18"/>
<text text-anchor="middle" x="389.691" y="-230.3" font-family="Times,serif" font-size="14.00">ExpTemp2</text>
</g>
<!-- Temp2: T84 -->
<g id="node5" class="node"><title>Temp2: T84</title>
<ellipse fill="none" stroke="black" cx="389.691" cy="-162" rx="55.4913" ry="18"/>
<text text-anchor="middle" x="389.691" y="-158.3" font-family="Times,serif" font-size="14.00">Temp2: T84</text>
</g>
<!-- ExpTemp2&#45;&gt;Temp2: T84 -->
<g id="edge3" class="edge"><title>ExpTemp2&#45;&gt;Temp2: T84</title>
<path fill="none" stroke="black" d="M389.691,-215.697C389.691,-207.983 389.691,-198.712 389.691,-190.112"/>
<polygon fill="black" stroke="black" points="393.191,-190.104 389.691,-180.104 386.191,-190.104 393.191,-190.104"/>
</g>
<!-- ExpEseq1 -->
<g id="node6" class="node"><title>ExpEseq1</title>
<ellipse fill="none" stroke="black" cx="330.691" cy="-306" rx="46.2923" ry="18"/>
<text text-anchor="middle" x="330.691" y="-302.3" font-family="Times,serif" font-size="14.00">ExpEseq1</text>
</g>
<!-- ExpEseq1&#45;&gt;ExpTemp2 -->
<g id="edge5" class="edge"><title>ExpEseq1&#45;&gt;ExpTemp2</title>
<path fill="none" stroke="black" d="M344.375,-288.765C351.715,-280.056 360.91,-269.147 369.096,-259.435"/>
<polygon fill="black" stroke="black" points="371.903,-261.535 375.671,-251.633 366.55,-257.024 371.903,-261.535"/>
</g>
<!-- StatMove1 -->
<g id="node7" class="node"><title>StatMove1</title>
<ellipse fill="none" stroke="black" cx="271.691" cy="-234" rx="50.0912" ry="18"/>
<text text-anchor="middle" x="271.691" y="-230.3" font-family="Times,serif" font-size="14.00">StatMove1</text>
</g>
<!-- ExpEseq1&#45;&gt;StatMove1 -->
<g id="edge4" class="edge"><title>ExpEseq1&#45;&gt;StatMove1</title>
<path fill="none" stroke="black" d="M317.007,-288.765C309.667,-280.056 300.472,-269.147 292.286,-259.435"/>
<polygon fill="black" stroke="black" points="294.831,-257.024 285.71,-251.633 289.479,-261.535 294.831,-257.024"/>
</g>
<!-- ExpCall1 -->
<g id="node11" class="node"><title>ExpCall1</title>
<ellipse fill="none" stroke="black" cx="272.691" cy="-162" rx="44.393" ry="18"/>
<text text-anchor="middle" x="272.691" y="-158.3" font-family="Times,serif" font-size="14.00">ExpCall1</text>
</g>
<!-- StatMove1&#45;&gt;ExpCall1 -->
<g id="edge22" class="edge"><title>StatMove1&#45;&gt;ExpCall1</title>
<path fill="none" stroke="black" d="M271.938,-215.697C272.048,-207.983 272.181,-198.712 272.304,-190.112"/>
<polygon fill="black" stroke="black" points="275.803,-190.153 272.447,-180.104 268.804,-190.053 275.803,-190.153"/>
</g>
<!-- ExpTemp1 -->
<g id="node22" class="node"><title>ExpTemp1</title>
<ellipse fill="none" stroke="black" cx="154.691" cy="-162" rx="50.0912" ry="18"/>
<text text-anchor="middle" x="154.691" y="-158.3" font-family="Times,serif" font-size="14.00">ExpTemp1</text>
</g>
<!-- StatMove1&#45;&gt;ExpTemp1 -->
<g id="edge21" class="edge"><title>StatMove1&#45;&gt;ExpTemp1</title>
<path fill="none" stroke="black" d="M246.878,-218.155C229.815,-207.946 206.952,-194.267 188.263,-183.086"/>
<polygon fill="black" stroke="black" points="189.846,-179.955 179.468,-177.824 186.252,-185.962 189.846,-179.955"/>
</g>
<!-- Temp0: T85 -->
<g id="node15" class="node"><title>Temp0: T85</title>
<ellipse fill="none" stroke="black" cx="87.6909" cy="-378" rx="55.4913" ry="18"/>
<text text-anchor="middle" x="87.6909" y="-374.3" font-family="Times,serif" font-size="14.00">Temp0: T85</text>
</g>
<!-- ExpTemp0&#45;&gt;Temp0: T85 -->
<g id="edge12" class="edge"><title>ExpTemp0&#45;&gt;Temp0: T85</title>
<path fill="none" stroke="black" d="M92.2077,-431.697C91.5465,-423.983 90.752,-414.712 90.0148,-406.112"/>
<polygon fill="black" stroke="black" points="93.4983,-405.769 89.157,-396.104 86.5239,-406.367 93.4983,-405.769"/>
</g>
<!-- ExpList0 -->
<g id="node10" class="node"><title>ExpList0</title>
<ellipse fill="none" stroke="black" cx="327.691" cy="-378" rx="42.7926" ry="18"/>
<text text-anchor="middle" x="327.691" y="-374.3" font-family="Times,serif" font-size="14.00">ExpList0</text>
</g>
<!-- ExpCall0&#45;&gt;ExpList0 -->
<g id="edge19" class="edge"><title>ExpCall0&#45;&gt;ExpList0</title>
<path fill="none" stroke="black" d="M235.445,-434.666C252.726,-424.237 276.326,-409.996 295.329,-398.529"/>
<polygon fill="black" stroke="black" points="297.215,-401.479 303.968,-393.315 293.598,-395.485 297.215,-401.479"/>
</g>
<!-- ExpName0 -->
<g id="node20" class="node"><title>ExpName0</title>
<ellipse fill="none" stroke="black" cx="211.691" cy="-378" rx="50.8918" ry="18"/>
<text text-anchor="middle" x="211.691" y="-374.3" font-family="Times,serif" font-size="14.00">ExpName0</text>
</g>
<!-- ExpCall0&#45;&gt;ExpName0 -->
<g id="edge18" class="edge"><title>ExpCall0&#45;&gt;ExpName0</title>
<path fill="none" stroke="black" d="M211.691,-431.697C211.691,-423.983 211.691,-414.712 211.691,-406.112"/>
<polygon fill="black" stroke="black" points="215.191,-406.104 211.691,-396.104 208.191,-406.104 215.191,-406.104"/>
</g>
<!-- ExpList0&#45;&gt;ExpEseq1 -->
<g id="edge8" class="edge"><title>ExpList0&#45;&gt;ExpEseq1</title>
<path fill="none" stroke="black" d="M328.432,-359.697C328.763,-351.983 329.16,-342.712 329.529,-334.112"/>
<polygon fill="black" stroke="black" points="333.026,-334.245 329.958,-324.104 326.033,-333.945 333.026,-334.245"/>
</g>
<!-- ExpName1 -->
<g id="node12" class="node"><title>ExpName1</title>
<ellipse fill="none" stroke="black" cx="272.691" cy="-90" rx="50.8918" ry="18"/>
<text text-anchor="middle" x="272.691" y="-86.3" font-family="Times,serif" font-size="14.00">ExpName1</text>
</g>
<!-- ExpCall1&#45;&gt;ExpName1 -->
<g id="edge9" class="edge"><title>ExpCall1&#45;&gt;ExpName1</title>
<path fill="none" stroke="black" d="M272.691,-143.697C272.691,-135.983 272.691,-126.712 272.691,-118.112"/>
<polygon fill="black" stroke="black" points="276.191,-118.104 272.691,-108.104 269.191,-118.104 276.191,-118.104"/>
</g>
<!-- ExpList1 -->
<g id="node13" class="node"><title>ExpList1</title>
<ellipse fill="none" stroke="black" cx="384.691" cy="-90" rx="42.7926" ry="18"/>
<text text-anchor="middle" x="384.691" y="-86.3" font-family="Times,serif" font-size="14.00">ExpList1</text>
</g>
<!-- ExpCall1&#45;&gt;ExpList1 -->
<g id="edge10" class="edge"><title>ExpCall1&#45;&gt;ExpList1</title>
<path fill="none" stroke="black" d="M295.897,-146.496C312.416,-136.172 334.813,-122.174 352.98,-110.819"/>
<polygon fill="black" stroke="black" points="354.889,-113.753 361.514,-105.485 351.179,-107.818 354.889,-113.753"/>
</g>
<!-- Label2: BT::Start -->
<g id="node24" class="node"><title>Label2: BT::Start</title>
<ellipse fill="none" stroke="black" cx="272.691" cy="-18" rx="72.5877" ry="18"/>
<text text-anchor="middle" x="272.691" y="-14.3" font-family="Times,serif" font-size="14.00">Label2: BT::Start</text>
</g>
<!-- ExpName1&#45;&gt;Label2: BT::Start -->
<g id="edge23" class="edge"><title>ExpName1&#45;&gt;Label2: BT::Start</title>
<path fill="none" stroke="black" d="M272.691,-71.6966C272.691,-63.9827 272.691,-54.7125 272.691,-46.1124"/>
<polygon fill="black" stroke="black" points="276.191,-46.1043 272.691,-36.1043 269.191,-46.1044 276.191,-46.1043"/>
</g>
<!-- StatExp0 -->
<g id="node14" class="node"><title>StatExp0</title>
<ellipse fill="none" stroke="black" cx="254.691" cy="-666" rx="42.7926" ry="18"/>
<text text-anchor="middle" x="254.691" y="-662.3" font-family="Times,serif" font-size="14.00">StatExp0</text>
</g>
<!-- StatExp0&#45;&gt;ExpEseq0 -->
<g id="edge11" class="edge"><title>StatExp0&#45;&gt;ExpEseq0</title>
<path fill="none" stroke="black" d="M258.322,-648.055C259.992,-640.261 262.015,-630.822 263.888,-622.079"/>
<polygon fill="black" stroke="black" points="267.316,-622.787 265.989,-612.275 260.471,-621.32 267.316,-622.787"/>
</g>
<!-- StatSeq0 -->
<g id="node17" class="node"><title>StatSeq0</title>
<ellipse fill="none" stroke="black" cx="192.691" cy="-738" rx="42.4939" ry="18"/>
<text text-anchor="middle" x="192.691" y="-734.3" font-family="Times,serif" font-size="14.00">StatSeq0</text>
</g>
<!-- StatSeq0&#45;&gt;StatExp0 -->
<g id="edge15" class="edge"><title>StatSeq0&#45;&gt;StatExp0</title>
<path fill="none" stroke="black" d="M207.071,-720.765C214.974,-711.841 224.924,-700.608 233.682,-690.719"/>
<polygon fill="black" stroke="black" points="236.379,-692.954 240.389,-683.147 231.139,-688.313 236.379,-692.954"/>
</g>
<!-- StatLabel0 -->
<g id="node18" class="node"><title>StatLabel0</title>
<ellipse fill="none" stroke="black" cx="130.691" cy="-666" rx="48.9926" ry="18"/>
<text text-anchor="middle" x="130.691" y="-662.3" font-family="Times,serif" font-size="14.00">StatLabel0</text>
</g>
<!-- StatSeq0&#45;&gt;StatLabel0 -->
<g id="edge14" class="edge"><title>StatSeq0&#45;&gt;StatLabel0</title>
<path fill="none" stroke="black" d="M178.311,-720.765C170.52,-711.969 160.742,-700.928 152.076,-691.144"/>
<polygon fill="black" stroke="black" points="154.674,-688.799 145.423,-683.633 149.434,-693.44 154.674,-688.799"/>
</g>
<!-- Label0: BinaryTree::main -->
<g id="node19" class="node"><title>Label0: BinaryTree::main</title>
<ellipse fill="none" stroke="black" cx="102.691" cy="-594" rx="102.882" ry="18"/>
<text text-anchor="middle" x="102.691" y="-590.3" font-family="Times,serif" font-size="14.00">Label0: BinaryTree::main</text>
</g>
<!-- StatLabel0&#45;&gt;Label0: BinaryTree::main -->
<g id="edge16" class="edge"><title>StatLabel0&#45;&gt;Label0: BinaryTree::main</title>
<path fill="none" stroke="black" d="M123.913,-648.055C120.761,-640.176 116.937,-630.617 113.409,-621.794"/>
<polygon fill="black" stroke="black" points="116.565,-620.26 109.601,-612.275 110.065,-622.86 116.565,-620.26"/>
</g>
<!-- Label1: print -->
<g id="node21" class="node"><title>Label1: print</title>
<ellipse fill="none" stroke="black" cx="209.691" cy="-306" rx="56.59" ry="18"/>
<text text-anchor="middle" x="209.691" y="-302.3" font-family="Times,serif" font-size="14.00">Label1: print</text>
</g>
<!-- ExpName0&#45;&gt;Label1: print -->
<g id="edge17" class="edge"><title>ExpName0&#45;&gt;Label1: print</title>
<path fill="none" stroke="black" d="M211.197,-359.697C210.976,-351.983 210.711,-342.712 210.466,-334.112"/>
<polygon fill="black" stroke="black" points="213.964,-334 210.18,-324.104 206.967,-334.2 213.964,-334"/>
</g>
<!-- Temp1: T84 -->
<g id="node23" class="node"><title>Temp1: T84</title>
<ellipse fill="none" stroke="black" cx="148.691" cy="-90" rx="55.4913" ry="18"/>
<text text-anchor="middle" x="148.691" y="-86.3" font-family="Times,serif" font-size="14.00">Temp1: T84</text>
</g>
<!-- ExpTemp1&#45;&gt;Temp1: T84 -->
<g id="edge20" class="edge"><title>ExpTemp1&#45;&gt;Temp1: T84</title>
<path fill="none" stroke="black" d="M153.208,-143.697C152.547,-135.983 151.752,-126.712 151.015,-118.112"/>
<polygon fill="black" stroke="black" points="154.498,-117.769 150.157,-108.104 147.524,-118.367 154.498,-117.769"/>
</g>
</g>
</svg>
