<?xml version="1.0" encoding="UTF-8" standalone="no"?>
<!DOCTYPE svg PUBLIC "-//W3C//DTD SVG 1.1//EN"
 "http://www.w3.org/Graphics/SVG/1.1/DTD/svg11.dtd">
<!-- Generated by graphviz version 2.38.0 (20140413.2041)
 -->
<!-- Title: %3 Pages: 1 -->
<svg width="2252pt" height="764pt"
 viewBox="0.00 0.00 2251.54 764.00" xmlns="http://www.w3.org/2000/svg" xmlns:xlink="http://www.w3.org/1999/xlink">
<g id="graph0" class="graph" transform="scale(1 1) rotate(0) translate(4 760)">
<title>%3</title>
<polygon fill="white" stroke="none" points="-4,4 -4,-760 2247.54,-760 2247.54,4 -4,4"/>
<!-- StatMove4 -->
<g id="node1" class="node"><title>StatMove4</title>
<ellipse fill="none" stroke="black" cx="1209.65" cy="-594" rx="50.0912" ry="18"/>
<text text-anchor="middle" x="1209.65" y="-590.3" font-family="Times,serif" font-size="14.00">StatMove4</text>
</g>
<!-- ExpTemp5 -->
<g id="node2" class="node"><title>ExpTemp5</title>
<ellipse fill="none" stroke="black" cx="1209.65" cy="-522" rx="50.0912" ry="18"/>
<text text-anchor="middle" x="1209.65" y="-518.3" font-family="Times,serif" font-size="14.00">ExpTemp5</text>
</g>
<!-- StatMove4&#45;&gt;ExpTemp5 -->
<g id="edge1" class="edge"><title>StatMove4&#45;&gt;ExpTemp5</title>
<path fill="none" stroke="black" d="M1209.65,-575.697C1209.65,-567.983 1209.65,-558.712 1209.65,-550.112"/>
<polygon fill="black" stroke="black" points="1213.15,-550.104 1209.65,-540.104 1206.15,-550.104 1213.15,-550.104"/>
</g>
<!-- ExpConst6 -->
<g id="node3" class="node"><title>ExpConst6</title>
<ellipse fill="none" stroke="black" cx="1327.65" cy="-522" rx="50.0912" ry="18"/>
<text text-anchor="middle" x="1327.65" y="-518.3" font-family="Times,serif" font-size="14.00">ExpConst6</text>
</g>
<!-- StatMove4&#45;&gt;ExpConst6 -->
<g id="edge2" class="edge"><title>StatMove4&#45;&gt;ExpConst6</title>
<path fill="none" stroke="black" d="M1234.38,-578.326C1251.77,-568.012 1275.23,-554.095 1294.27,-542.8"/>
<polygon fill="black" stroke="black" points="1296.13,-545.767 1302.94,-537.655 1292.55,-539.747 1296.13,-545.767"/>
</g>
<!-- Temp5: $rv -->
<g id="node44" class="node"><title>Temp5: $rv</title>
<ellipse fill="none" stroke="black" cx="1210.65" cy="-450" rx="52.7911" ry="18"/>
<text text-anchor="middle" x="1210.65" y="-446.3" font-family="Times,serif" font-size="14.00">Temp5: $rv</text>
</g>
<!-- ExpTemp5&#45;&gt;Temp5: $rv -->
<g id="edge34" class="edge"><title>ExpTemp5&#45;&gt;Temp5: $rv</title>
<path fill="none" stroke="black" d="M1209.89,-503.697C1210,-495.983 1210.14,-486.712 1210.26,-478.112"/>
<polygon fill="black" stroke="black" points="1213.76,-478.153 1210.4,-468.104 1206.76,-478.053 1213.76,-478.153"/>
</g>
<!-- Value6: 0 -->
<g id="node45" class="node"><title>Value6: 0</title>
<ellipse fill="none" stroke="black" cx="1327.65" cy="-450" rx="45.4919" ry="18"/>
<text text-anchor="middle" x="1327.65" y="-446.3" font-family="Times,serif" font-size="14.00">Value6: 0</text>
</g>
<!-- ExpConst6&#45;&gt;Value6: 0 -->
<g id="edge35" class="edge"><title>ExpConst6&#45;&gt;Value6: 0</title>
<path fill="none" stroke="black" d="M1327.65,-503.697C1327.65,-495.983 1327.65,-486.712 1327.65,-478.112"/>
<polygon fill="black" stroke="black" points="1331.15,-478.104 1327.65,-468.104 1324.15,-478.104 1331.15,-478.104"/>
</g>
<!-- ExpCall2 -->
<g id="node4" class="node"><title>ExpCall2</title>
<ellipse fill="none" stroke="black" cx="1177.65" cy="-306" rx="44.393" ry="18"/>
<text text-anchor="middle" x="1177.65" y="-302.3" font-family="Times,serif" font-size="14.00">ExpCall2</text>
</g>
<!-- ExpName2 -->
<g id="node5" class="node"><title>ExpName2</title>
<ellipse fill="none" stroke="black" cx="1124.65" cy="-234" rx="50.8918" ry="18"/>
<text text-anchor="middle" x="1124.65" y="-230.3" font-family="Times,serif" font-size="14.00">ExpName2</text>
</g>
<!-- ExpCall2&#45;&gt;ExpName2 -->
<g id="edge3" class="edge"><title>ExpCall2&#45;&gt;ExpName2</title>
<path fill="none" stroke="black" d="M1165.09,-288.411C1158.55,-279.781 1150.44,-269.062 1143.19,-259.497"/>
<polygon fill="black" stroke="black" points="1145.94,-257.33 1137.12,-251.47 1140.36,-261.555 1145.94,-257.33"/>
</g>
<!-- ExpList2 -->
<g id="node6" class="node"><title>ExpList2</title>
<ellipse fill="none" stroke="black" cx="1236.65" cy="-234" rx="42.7926" ry="18"/>
<text text-anchor="middle" x="1236.65" y="-230.3" font-family="Times,serif" font-size="14.00">ExpList2</text>
</g>
<!-- ExpCall2&#45;&gt;ExpList2 -->
<g id="edge4" class="edge"><title>ExpCall2&#45;&gt;ExpList2</title>
<path fill="none" stroke="black" d="M1191.33,-288.765C1198.78,-279.93 1208.13,-268.83 1216.41,-259.014"/>
<polygon fill="black" stroke="black" points="1219.27,-261.049 1223.04,-251.147 1213.91,-256.538 1219.27,-261.049"/>
</g>
<!-- Label3: print -->
<g id="node43" class="node"><title>Label3: print</title>
<ellipse fill="none" stroke="black" cx="1111.65" cy="-162" rx="56.59" ry="18"/>
<text text-anchor="middle" x="1111.65" y="-158.3" font-family="Times,serif" font-size="14.00">Label3: print</text>
</g>
<!-- ExpName2&#45;&gt;Label3: print -->
<g id="edge33" class="edge"><title>ExpName2&#45;&gt;Label3: print</title>
<path fill="none" stroke="black" d="M1121.43,-215.697C1120,-207.983 1118.28,-198.712 1116.68,-190.112"/>
<polygon fill="black" stroke="black" points="1120.09,-189.297 1114.82,-180.104 1113.21,-190.575 1120.09,-189.297"/>
</g>
<!-- ExpConst3 -->
<g id="node56" class="node"><title>ExpConst3</title>
<ellipse fill="none" stroke="black" cx="1236.65" cy="-162" rx="50.0912" ry="18"/>
<text text-anchor="middle" x="1236.65" y="-158.3" font-family="Times,serif" font-size="14.00">ExpConst3</text>
</g>
<!-- ExpList2&#45;&gt;ExpConst3 -->
<g id="edge51" class="edge"><title>ExpList2&#45;&gt;ExpConst3</title>
<path fill="none" stroke="black" d="M1236.65,-215.697C1236.65,-207.983 1236.65,-198.712 1236.65,-190.112"/>
<polygon fill="black" stroke="black" points="1240.15,-190.104 1236.65,-180.104 1233.15,-190.104 1240.15,-190.104"/>
</g>
<!-- ExpTemp2 -->
<g id="node7" class="node"><title>ExpTemp2</title>
<ellipse fill="none" stroke="black" cx="625.645" cy="-234" rx="50.0912" ry="18"/>
<text text-anchor="middle" x="625.645" y="-230.3" font-family="Times,serif" font-size="14.00">ExpTemp2</text>
</g>
<!-- Temp2: $fp -->
<g id="node8" class="node"><title>Temp2: $fp</title>
<ellipse fill="none" stroke="black" cx="664.645" cy="-162" rx="52.7911" ry="18"/>
<text text-anchor="middle" x="664.645" y="-158.3" font-family="Times,serif" font-size="14.00">Temp2: $fp</text>
</g>
<!-- ExpTemp2&#45;&gt;Temp2: $fp -->
<g id="edge5" class="edge"><title>ExpTemp2&#45;&gt;Temp2: $fp</title>
<path fill="none" stroke="black" d="M635.086,-216.055C639.685,-207.801 645.312,-197.701 650.417,-188.538"/>
<polygon fill="black" stroke="black" points="653.482,-190.228 655.291,-179.789 647.367,-186.821 653.482,-190.228"/>
</g>
<!-- StatSeq2 -->
<g id="node9" class="node"><title>StatSeq2</title>
<ellipse fill="none" stroke="black" cx="1081.65" cy="-594" rx="42.4939" ry="18"/>
<text text-anchor="middle" x="1081.65" y="-590.3" font-family="Times,serif" font-size="14.00">StatSeq2</text>
</g>
<!-- StatMove0 -->
<g id="node10" class="node"><title>StatMove0</title>
<ellipse fill="none" stroke="black" cx="487.645" cy="-522" rx="50.0912" ry="18"/>
<text text-anchor="middle" x="487.645" y="-518.3" font-family="Times,serif" font-size="14.00">StatMove0</text>
</g>
<!-- StatSeq2&#45;&gt;StatMove0 -->
<g id="edge6" class="edge"><title>StatSeq2&#45;&gt;StatMove0</title>
<path fill="none" stroke="black" d="M1050.94,-581.531C1044.32,-579.408 1037.31,-577.417 1030.65,-576 857.773,-539.24 648.432,-527.91 547.624,-524.469"/>
<polygon fill="black" stroke="black" points="547.737,-520.971 537.628,-524.141 547.508,-527.967 547.737,-520.971"/>
</g>
<!-- StatSeq3 -->
<g id="node11" class="node"><title>StatSeq3</title>
<ellipse fill="none" stroke="black" cx="1081.65" cy="-522" rx="42.4939" ry="18"/>
<text text-anchor="middle" x="1081.65" y="-518.3" font-family="Times,serif" font-size="14.00">StatSeq3</text>
</g>
<!-- StatSeq2&#45;&gt;StatSeq3 -->
<g id="edge7" class="edge"><title>StatSeq2&#45;&gt;StatSeq3</title>
<path fill="none" stroke="black" d="M1081.65,-575.697C1081.65,-567.983 1081.65,-558.712 1081.65,-550.112"/>
<polygon fill="black" stroke="black" points="1085.15,-550.104 1081.65,-540.104 1078.15,-550.104 1085.15,-550.104"/>
</g>
<!-- ExpMem0 -->
<g id="node34" class="node"><title>ExpMem0</title>
<ellipse fill="none" stroke="black" cx="287.645" cy="-450" rx="48.9926" ry="18"/>
<text text-anchor="middle" x="287.645" y="-446.3" font-family="Times,serif" font-size="14.00">ExpMem0</text>
</g>
<!-- StatMove0&#45;&gt;ExpMem0 -->
<g id="edge24" class="edge"><title>StatMove0&#45;&gt;ExpMem0</title>
<path fill="none" stroke="black" d="M452.808,-508.807C419.152,-497.027 368.053,-479.143 331.612,-466.388"/>
<polygon fill="black" stroke="black" points="332.345,-462.937 321.75,-462.937 330.032,-469.544 332.345,-462.937"/>
</g>
<!-- ExpCall0 -->
<g id="node35" class="node"><title>ExpCall0</title>
<ellipse fill="none" stroke="black" cx="487.645" cy="-450" rx="44.393" ry="18"/>
<text text-anchor="middle" x="487.645" y="-446.3" font-family="Times,serif" font-size="14.00">ExpCall0</text>
</g>
<!-- StatMove0&#45;&gt;ExpCall0 -->
<g id="edge25" class="edge"><title>StatMove0&#45;&gt;ExpCall0</title>
<path fill="none" stroke="black" d="M487.645,-503.697C487.645,-495.983 487.645,-486.712 487.645,-478.112"/>
<polygon fill="black" stroke="black" points="491.145,-478.104 487.645,-468.104 484.145,-478.104 491.145,-478.104"/>
</g>
<!-- StatMove1 -->
<g id="node18" class="node"><title>StatMove1</title>
<ellipse fill="none" stroke="black" cx="973.645" cy="-450" rx="50.0912" ry="18"/>
<text text-anchor="middle" x="973.645" y="-446.3" font-family="Times,serif" font-size="14.00">StatMove1</text>
</g>
<!-- StatSeq3&#45;&gt;StatMove1 -->
<g id="edge48" class="edge"><title>StatSeq3&#45;&gt;StatMove1</title>
<path fill="none" stroke="black" d="M1059.27,-506.496C1043.8,-496.47 1022.99,-482.98 1005.75,-471.811"/>
<polygon fill="black" stroke="black" points="1007.41,-468.714 997.115,-466.212 1003.6,-474.588 1007.41,-468.714"/>
</g>
<!-- StatSeq4 -->
<g id="node38" class="node"><title>StatSeq4</title>
<ellipse fill="none" stroke="black" cx="1097.65" cy="-450" rx="42.4939" ry="18"/>
<text text-anchor="middle" x="1097.65" y="-446.3" font-family="Times,serif" font-size="14.00">StatSeq4</text>
</g>
<!-- StatSeq3&#45;&gt;StatSeq4 -->
<g id="edge49" class="edge"><title>StatSeq3&#45;&gt;StatSeq4</title>
<path fill="none" stroke="black" d="M1085.52,-504.055C1087.3,-496.261 1089.46,-486.822 1091.46,-478.079"/>
<polygon fill="black" stroke="black" points="1094.88,-478.804 1093.7,-468.275 1088.06,-477.244 1094.88,-478.804"/>
</g>
<!-- ExpCall1 -->
<g id="node12" class="node"><title>ExpCall1</title>
<ellipse fill="none" stroke="black" cx="973.645" cy="-378" rx="44.393" ry="18"/>
<text text-anchor="middle" x="973.645" y="-374.3" font-family="Times,serif" font-size="14.00">ExpCall1</text>
</g>
<!-- ExpName1 -->
<g id="node13" class="node"><title>ExpName1</title>
<ellipse fill="none" stroke="black" cx="960.645" cy="-306" rx="50.8918" ry="18"/>
<text text-anchor="middle" x="960.645" y="-302.3" font-family="Times,serif" font-size="14.00">ExpName1</text>
</g>
<!-- ExpCall1&#45;&gt;ExpName1 -->
<g id="edge8" class="edge"><title>ExpCall1&#45;&gt;ExpName1</title>
<path fill="none" stroke="black" d="M970.432,-359.697C968.999,-351.983 967.278,-342.712 965.68,-334.112"/>
<polygon fill="black" stroke="black" points="969.089,-333.297 963.822,-324.104 962.207,-334.575 969.089,-333.297"/>
</g>
<!-- ExpList1 -->
<g id="node14" class="node"><title>ExpList1</title>
<ellipse fill="none" stroke="black" cx="1072.65" cy="-306" rx="42.7926" ry="18"/>
<text text-anchor="middle" x="1072.65" y="-302.3" font-family="Times,serif" font-size="14.00">ExpList1</text>
</g>
<!-- ExpCall1&#45;&gt;ExpList1 -->
<g id="edge9" class="edge"><title>ExpCall1&#45;&gt;ExpList1</title>
<path fill="none" stroke="black" d="M994.641,-362.155C1008.82,-352.132 1027.72,-338.763 1043.37,-327.698"/>
<polygon fill="black" stroke="black" points="1045.54,-330.455 1051.68,-321.824 1041.49,-324.739 1045.54,-330.455"/>
</g>
<!-- Label2: BBS@Print -->
<g id="node17" class="node"><title>Label2: BBS@Print</title>
<ellipse fill="none" stroke="black" cx="973.645" cy="-234" rx="81.7856" ry="18"/>
<text text-anchor="middle" x="973.645" y="-230.3" font-family="Times,serif" font-size="14.00">Label2: BBS@Print</text>
</g>
<!-- ExpName1&#45;&gt;Label2: BBS@Print -->
<g id="edge11" class="edge"><title>ExpName1&#45;&gt;Label2: BBS@Print</title>
<path fill="none" stroke="black" d="M963.859,-287.697C965.291,-279.983 967.013,-270.712 968.61,-262.112"/>
<polygon fill="black" stroke="black" points="972.084,-262.575 970.469,-252.104 965.202,-261.297 972.084,-262.575"/>
</g>
<!-- ExpList0 -->
<g id="node15" class="node"><title>ExpList0</title>
<ellipse fill="none" stroke="black" cx="531.645" cy="-378" rx="42.7926" ry="18"/>
<text text-anchor="middle" x="531.645" y="-374.3" font-family="Times,serif" font-size="14.00">ExpList0</text>
</g>
<!-- ExpMem1 -->
<g id="node16" class="node"><title>ExpMem1</title>
<ellipse fill="none" stroke="black" cx="539.645" cy="-306" rx="48.9926" ry="18"/>
<text text-anchor="middle" x="539.645" y="-302.3" font-family="Times,serif" font-size="14.00">ExpMem1</text>
</g>
<!-- ExpList0&#45;&gt;ExpMem1 -->
<g id="edge10" class="edge"><title>ExpList0&#45;&gt;ExpMem1</title>
<path fill="none" stroke="black" d="M533.623,-359.697C534.504,-351.983 535.564,-342.712 536.547,-334.112"/>
<polygon fill="black" stroke="black" points="540.032,-334.437 537.691,-324.104 533.078,-333.642 540.032,-334.437"/>
</g>
<!-- ExpBinary1 -->
<g id="node46" class="node"><title>ExpBinary1</title>
<ellipse fill="none" stroke="black" cx="455.645" cy="-234" rx="53.0913" ry="18"/>
<text text-anchor="middle" x="455.645" y="-230.3" font-family="Times,serif" font-size="14.00">ExpBinary1</text>
</g>
<!-- ExpMem1&#45;&gt;ExpBinary1 -->
<g id="edge36" class="edge"><title>ExpMem1&#45;&gt;ExpBinary1</title>
<path fill="none" stroke="black" d="M520.584,-289.116C509.308,-279.718 494.848,-267.669 482.437,-257.326"/>
<polygon fill="black" stroke="black" points="484.554,-254.534 474.631,-250.821 480.072,-259.912 484.554,-254.534"/>
</g>
<!-- StatMove1&#45;&gt;ExpCall1 -->
<g id="edge13" class="edge"><title>StatMove1&#45;&gt;ExpCall1</title>
<path fill="none" stroke="black" d="M973.645,-431.697C973.645,-423.983 973.645,-414.712 973.645,-406.112"/>
<polygon fill="black" stroke="black" points="977.145,-406.104 973.645,-396.104 970.145,-406.104 977.145,-406.104"/>
</g>
<!-- ExpMem2 -->
<g id="node19" class="node"><title>ExpMem2</title>
<ellipse fill="none" stroke="black" cx="800.645" cy="-378" rx="48.9926" ry="18"/>
<text text-anchor="middle" x="800.645" y="-374.3" font-family="Times,serif" font-size="14.00">ExpMem2</text>
</g>
<!-- StatMove1&#45;&gt;ExpMem2 -->
<g id="edge12" class="edge"><title>StatMove1&#45;&gt;ExpMem2</title>
<path fill="none" stroke="black" d="M941.511,-435.998C913.384,-424.617 872.359,-408.017 841.829,-395.664"/>
<polygon fill="black" stroke="black" points="842.898,-392.321 832.316,-391.815 840.273,-398.81 842.898,-392.321"/>
</g>
<!-- ExpBinary2 -->
<g id="node36" class="node"><title>ExpBinary2</title>
<ellipse fill="none" stroke="black" cx="774.645" cy="-306" rx="53.0913" ry="18"/>
<text text-anchor="middle" x="774.645" y="-302.3" font-family="Times,serif" font-size="14.00">ExpBinary2</text>
</g>
<!-- ExpMem2&#45;&gt;ExpBinary2 -->
<g id="edge26" class="edge"><title>ExpMem2&#45;&gt;ExpBinary2</title>
<path fill="none" stroke="black" d="M794.351,-360.055C791.425,-352.176 787.874,-342.617 784.597,-333.794"/>
<polygon fill="black" stroke="black" points="787.825,-332.431 781.062,-324.275 781.263,-334.868 787.825,-332.431"/>
</g>
<!-- StatSeq5 -->
<g id="node20" class="node"><title>StatSeq5</title>
<ellipse fill="none" stroke="black" cx="1534.65" cy="-378" rx="42.4939" ry="18"/>
<text text-anchor="middle" x="1534.65" y="-374.3" font-family="Times,serif" font-size="14.00">StatSeq5</text>
</g>
<!-- StatMove2 -->
<g id="node21" class="node"><title>StatMove2</title>
<ellipse fill="none" stroke="black" cx="1534.65" cy="-306" rx="50.0912" ry="18"/>
<text text-anchor="middle" x="1534.65" y="-302.3" font-family="Times,serif" font-size="14.00">StatMove2</text>
</g>
<!-- StatSeq5&#45;&gt;StatMove2 -->
<g id="edge14" class="edge"><title>StatSeq5&#45;&gt;StatMove2</title>
<path fill="none" stroke="black" d="M1534.65,-359.697C1534.65,-351.983 1534.65,-342.712 1534.65,-334.112"/>
<polygon fill="black" stroke="black" points="1538.15,-334.104 1534.65,-324.104 1531.15,-334.104 1538.15,-334.104"/>
</g>
<!-- StatMove3 -->
<g id="node22" class="node"><title>StatMove3</title>
<ellipse fill="none" stroke="black" cx="1903.65" cy="-306" rx="50.0912" ry="18"/>
<text text-anchor="middle" x="1903.65" y="-302.3" font-family="Times,serif" font-size="14.00">StatMove3</text>
</g>
<!-- StatSeq5&#45;&gt;StatMove3 -->
<g id="edge15" class="edge"><title>StatSeq5&#45;&gt;StatMove3</title>
<path fill="none" stroke="black" d="M1572.4,-369.838C1638.36,-357.325 1774.75,-331.452 1850.32,-317.116"/>
<polygon fill="black" stroke="black" points="1851.39,-320.475 1860.57,-315.172 1850.09,-313.597 1851.39,-320.475"/>
</g>
<!-- ExpCall3 -->
<g id="node47" class="node"><title>ExpCall3</title>
<ellipse fill="none" stroke="black" cx="1595.65" cy="-234" rx="44.393" ry="18"/>
<text text-anchor="middle" x="1595.65" y="-230.3" font-family="Times,serif" font-size="14.00">ExpCall3</text>
</g>
<!-- StatMove2&#45;&gt;ExpCall3 -->
<g id="edge66" class="edge"><title>StatMove2&#45;&gt;ExpCall3</title>
<path fill="none" stroke="black" d="M1549.1,-288.411C1556.7,-279.693 1566.15,-268.845 1574.55,-259.208"/>
<polygon fill="black" stroke="black" points="1577.36,-261.309 1581.29,-251.47 1572.08,-256.71 1577.36,-261.309"/>
</g>
<!-- ExpMem3 -->
<g id="node70" class="node"><title>ExpMem3</title>
<ellipse fill="none" stroke="black" cx="1479.65" cy="-234" rx="48.9926" ry="18"/>
<text text-anchor="middle" x="1479.65" y="-230.3" font-family="Times,serif" font-size="14.00">ExpMem3</text>
</g>
<!-- StatMove2&#45;&gt;ExpMem3 -->
<g id="edge65" class="edge"><title>StatMove2&#45;&gt;ExpMem3</title>
<path fill="none" stroke="black" d="M1521.61,-288.411C1514.83,-279.781 1506.41,-269.062 1498.89,-259.497"/>
<polygon fill="black" stroke="black" points="1501.52,-257.171 1492.59,-251.47 1496.01,-261.496 1501.52,-257.171"/>
</g>
<!-- ExpMem4 -->
<g id="node32" class="node"><title>ExpMem4</title>
<ellipse fill="none" stroke="black" cx="1903.65" cy="-234" rx="48.9926" ry="18"/>
<text text-anchor="middle" x="1903.65" y="-230.3" font-family="Times,serif" font-size="14.00">ExpMem4</text>
</g>
<!-- StatMove3&#45;&gt;ExpMem4 -->
<g id="edge73" class="edge"><title>StatMove3&#45;&gt;ExpMem4</title>
<path fill="none" stroke="black" d="M1903.65,-287.697C1903.65,-279.983 1903.65,-270.712 1903.65,-262.112"/>
<polygon fill="black" stroke="black" points="1907.15,-262.104 1903.65,-252.104 1900.15,-262.104 1907.15,-262.104"/>
</g>
<!-- ExpCall4 -->
<g id="node61" class="node"><title>ExpCall4</title>
<ellipse fill="none" stroke="black" cx="2088.65" cy="-234" rx="44.393" ry="18"/>
<text text-anchor="middle" x="2088.65" y="-230.3" font-family="Times,serif" font-size="14.00">ExpCall4</text>
</g>
<!-- StatMove3&#45;&gt;ExpCall4 -->
<g id="edge74" class="edge"><title>StatMove3&#45;&gt;ExpCall4</title>
<path fill="none" stroke="black" d="M1936.72,-292.485C1967.84,-280.71 2014.53,-263.045 2047.92,-250.408"/>
<polygon fill="black" stroke="black" points="2049.28,-253.636 2057.4,-246.823 2046.81,-247.089 2049.28,-253.636"/>
</g>
<!-- ExpConst1 -->
<g id="node23" class="node"><title>ExpConst1</title>
<ellipse fill="none" stroke="black" cx="543.645" cy="-162" rx="50.0912" ry="18"/>
<text text-anchor="middle" x="543.645" y="-158.3" font-family="Times,serif" font-size="14.00">ExpConst1</text>
</g>
<!-- Value1: 4 -->
<g id="node24" class="node"><title>Value1: 4</title>
<ellipse fill="none" stroke="black" cx="543.645" cy="-90" rx="45.4919" ry="18"/>
<text text-anchor="middle" x="543.645" y="-86.3" font-family="Times,serif" font-size="14.00">Value1: 4</text>
</g>
<!-- ExpConst1&#45;&gt;Value1: 4 -->
<g id="edge16" class="edge"><title>ExpConst1&#45;&gt;Value1: 4</title>
<path fill="none" stroke="black" d="M543.645,-143.697C543.645,-135.983 543.645,-126.712 543.645,-118.112"/>
<polygon fill="black" stroke="black" points="547.145,-118.104 543.645,-108.104 540.145,-118.104 547.145,-118.104"/>
</g>
<!-- StatSeq1 -->
<g id="node25" class="node"><title>StatSeq1</title>
<ellipse fill="none" stroke="black" cx="1081.65" cy="-666" rx="42.4939" ry="18"/>
<text text-anchor="middle" x="1081.65" y="-662.3" font-family="Times,serif" font-size="14.00">StatSeq1</text>
</g>
<!-- StatSeq1&#45;&gt;StatMove4 -->
<g id="edge18" class="edge"><title>StatSeq1&#45;&gt;StatMove4</title>
<path fill="none" stroke="black" d="M1106.63,-651.337C1125.98,-640.754 1153.03,-625.961 1174.56,-614.189"/>
<polygon fill="black" stroke="black" points="1176.31,-617.219 1183.4,-609.35 1172.95,-611.078 1176.31,-617.219"/>
</g>
<!-- StatSeq1&#45;&gt;StatSeq2 -->
<g id="edge17" class="edge"><title>StatSeq1&#45;&gt;StatSeq2</title>
<path fill="none" stroke="black" d="M1081.65,-647.697C1081.65,-639.983 1081.65,-630.712 1081.65,-622.112"/>
<polygon fill="black" stroke="black" points="1085.15,-622.104 1081.65,-612.104 1078.15,-622.104 1085.15,-622.104"/>
</g>
<!-- ExpBinary0 -->
<g id="node26" class="node"><title>ExpBinary0</title>
<ellipse fill="none" stroke="black" cx="201.645" cy="-378" rx="53.0913" ry="18"/>
<text text-anchor="middle" x="201.645" y="-374.3" font-family="Times,serif" font-size="14.00">ExpBinary0</text>
</g>
<!-- ExpTemp0 -->
<g id="node27" class="node"><title>ExpTemp0</title>
<ellipse fill="none" stroke="black" cx="52.6453" cy="-306" rx="50.0912" ry="18"/>
<text text-anchor="middle" x="52.6453" y="-302.3" font-family="Times,serif" font-size="14.00">ExpTemp0</text>
</g>
<!-- ExpBinary0&#45;&gt;ExpTemp0 -->
<g id="edge19" class="edge"><title>ExpBinary0&#45;&gt;ExpTemp0</title>
<path fill="none" stroke="black" d="M171.851,-363.003C148.657,-352.106 116.289,-336.9 91.1339,-325.082"/>
<polygon fill="black" stroke="black" points="92.4194,-321.819 81.8802,-320.734 89.4429,-328.155 92.4194,-321.819"/>
</g>
<!-- Plus0 -->
<g id="node28" class="node"><title>Plus0</title>
<ellipse fill="none" stroke="black" cx="151.645" cy="-306" rx="30.5947" ry="18"/>
<text text-anchor="middle" x="151.645" y="-302.3" font-family="Times,serif" font-size="14.00">Plus0</text>
</g>
<!-- ExpBinary0&#45;&gt;Plus0 -->
<g id="edge20" class="edge"><title>ExpBinary0&#45;&gt;Plus0</title>
<path fill="none" stroke="black" d="M189.796,-360.411C183.605,-351.744 175.91,-340.971 169.056,-331.375"/>
<polygon fill="black" stroke="black" points="171.726,-329.091 163.065,-322.988 166.03,-333.16 171.726,-329.091"/>
</g>
<!-- ExpConst0 -->
<g id="node29" class="node"><title>ExpConst0</title>
<ellipse fill="none" stroke="black" cx="250.645" cy="-306" rx="50.0912" ry="18"/>
<text text-anchor="middle" x="250.645" y="-302.3" font-family="Times,serif" font-size="14.00">ExpConst0</text>
</g>
<!-- ExpBinary0&#45;&gt;ExpConst0 -->
<g id="edge21" class="edge"><title>ExpBinary0&#45;&gt;ExpConst0</title>
<path fill="none" stroke="black" d="M213.258,-360.411C219.151,-351.992 226.436,-341.585 233.005,-332.201"/>
<polygon fill="black" stroke="black" points="235.909,-334.156 238.776,-323.956 230.174,-330.141 235.909,-334.156"/>
</g>
<!-- Temp0: $fp -->
<g id="node40" class="node"><title>Temp0: $fp</title>
<ellipse fill="none" stroke="black" cx="52.6453" cy="-234" rx="52.7911" ry="18"/>
<text text-anchor="middle" x="52.6453" y="-230.3" font-family="Times,serif" font-size="14.00">Temp0: $fp</text>
</g>
<!-- ExpTemp0&#45;&gt;Temp0: $fp -->
<g id="edge31" class="edge"><title>ExpTemp0&#45;&gt;Temp0: $fp</title>
<path fill="none" stroke="black" d="M52.6453,-287.697C52.6453,-279.983 52.6453,-270.712 52.6453,-262.112"/>
<polygon fill="black" stroke="black" points="56.1454,-262.104 52.6453,-252.104 49.1454,-262.104 56.1454,-262.104"/>
</g>
<!-- Value0: 12 -->
<g id="node74" class="node"><title>Value0: 12</title>
<ellipse fill="none" stroke="black" cx="250.645" cy="-234" rx="50.0912" ry="18"/>
<text text-anchor="middle" x="250.645" y="-230.3" font-family="Times,serif" font-size="14.00">Value0: 12</text>
</g>
<!-- ExpConst0&#45;&gt;Value0: 12 -->
<g id="edge69" class="edge"><title>ExpConst0&#45;&gt;Value0: 12</title>
<path fill="none" stroke="black" d="M250.645,-287.697C250.645,-279.983 250.645,-270.712 250.645,-262.112"/>
<polygon fill="black" stroke="black" points="254.145,-262.104 250.645,-252.104 247.145,-262.104 254.145,-262.104"/>
</g>
<!-- ExpName4 -->
<g id="node30" class="node"><title>ExpName4</title>
<ellipse fill="none" stroke="black" cx="2088.65" cy="-162" rx="50.8918" ry="18"/>
<text text-anchor="middle" x="2088.65" y="-158.3" font-family="Times,serif" font-size="14.00">ExpName4</text>
</g>
<!-- Label5: BBS@Print -->
<g id="node31" class="node"><title>Label5: BBS@Print</title>
<ellipse fill="none" stroke="black" cx="2152.65" cy="-90" rx="81.7856" ry="18"/>
<text text-anchor="middle" x="2152.65" y="-86.3" font-family="Times,serif" font-size="14.00">Label5: BBS@Print</text>
</g>
<!-- ExpName4&#45;&gt;Label5: BBS@Print -->
<g id="edge22" class="edge"><title>ExpName4&#45;&gt;Label5: BBS@Print</title>
<path fill="none" stroke="black" d="M2103.49,-144.765C2111.41,-136.096 2121.33,-125.248 2130.18,-115.57"/>
<polygon fill="black" stroke="black" points="2132.82,-117.866 2136.99,-108.124 2127.66,-113.143 2132.82,-117.866"/>
</g>
<!-- ExpBinary4 -->
<g id="node33" class="node"><title>ExpBinary4</title>
<ellipse fill="none" stroke="black" cx="1903.65" cy="-162" rx="53.0913" ry="18"/>
<text text-anchor="middle" x="1903.65" y="-158.3" font-family="Times,serif" font-size="14.00">ExpBinary4</text>
</g>
<!-- ExpMem4&#45;&gt;ExpBinary4 -->
<g id="edge23" class="edge"><title>ExpMem4&#45;&gt;ExpBinary4</title>
<path fill="none" stroke="black" d="M1903.65,-215.697C1903.65,-207.983 1903.65,-198.712 1903.65,-190.112"/>
<polygon fill="black" stroke="black" points="1907.15,-190.104 1903.65,-180.104 1900.15,-190.104 1907.15,-190.104"/>
</g>
<!-- ExpConst5 -->
<g id="node68" class="node"><title>ExpConst5</title>
<ellipse fill="none" stroke="black" cx="2002.65" cy="-90" rx="50.0912" ry="18"/>
<text text-anchor="middle" x="2002.65" y="-86.3" font-family="Times,serif" font-size="14.00">ExpConst5</text>
</g>
<!-- ExpBinary4&#45;&gt;ExpConst5 -->
<g id="edge72" class="edge"><title>ExpBinary4&#45;&gt;ExpConst5</title>
<path fill="none" stroke="black" d="M1925.62,-145.465C1939.43,-135.7 1957.43,-122.972 1972.55,-112.276"/>
<polygon fill="black" stroke="black" points="1974.93,-114.882 1981.08,-106.251 1970.89,-109.167 1974.93,-114.882"/>
</g>
<!-- ExpTemp4 -->
<g id="node72" class="node"><title>ExpTemp4</title>
<ellipse fill="none" stroke="black" cx="1804.65" cy="-90" rx="50.0912" ry="18"/>
<text text-anchor="middle" x="1804.65" y="-86.3" font-family="Times,serif" font-size="14.00">ExpTemp4</text>
</g>
<!-- ExpBinary4&#45;&gt;ExpTemp4 -->
<g id="edge70" class="edge"><title>ExpBinary4&#45;&gt;ExpTemp4</title>
<path fill="none" stroke="black" d="M1881.67,-145.465C1867.86,-135.7 1849.86,-122.972 1834.74,-112.276"/>
<polygon fill="black" stroke="black" points="1836.4,-109.167 1826.21,-106.251 1832.36,-114.882 1836.4,-109.167"/>
</g>
<!-- Plus4 -->
<g id="node75" class="node"><title>Plus4</title>
<ellipse fill="none" stroke="black" cx="1903.65" cy="-90" rx="30.5947" ry="18"/>
<text text-anchor="middle" x="1903.65" y="-86.3" font-family="Times,serif" font-size="14.00">Plus4</text>
</g>
<!-- ExpBinary4&#45;&gt;Plus4 -->
<g id="edge71" class="edge"><title>ExpBinary4&#45;&gt;Plus4</title>
<path fill="none" stroke="black" d="M1903.65,-143.697C1903.65,-135.983 1903.65,-126.712 1903.65,-118.112"/>
<polygon fill="black" stroke="black" points="1907.15,-118.104 1903.65,-108.104 1900.15,-118.104 1907.15,-118.104"/>
</g>
<!-- ExpMem0&#45;&gt;ExpBinary0 -->
<g id="edge42" class="edge"><title>ExpMem0&#45;&gt;ExpBinary0</title>
<path fill="none" stroke="black" d="M268.131,-433.116C256.585,-423.718 241.781,-411.669 229.075,-401.326"/>
<polygon fill="black" stroke="black" points="231.048,-398.419 221.083,-394.821 226.629,-403.848 231.048,-398.419"/>
</g>
<!-- ExpCall0&#45;&gt;ExpList0 -->
<g id="edge28" class="edge"><title>ExpCall0&#45;&gt;ExpList0</title>
<path fill="none" stroke="black" d="M498.073,-432.411C503.388,-423.955 509.963,-413.494 515.882,-404.078"/>
<polygon fill="black" stroke="black" points="518.934,-405.799 521.293,-395.47 513.008,-402.074 518.934,-405.799"/>
</g>
<!-- ExpName0 -->
<g id="node37" class="node"><title>ExpName0</title>
<ellipse fill="none" stroke="black" cx="403.645" cy="-378" rx="50.8918" ry="18"/>
<text text-anchor="middle" x="403.645" y="-374.3" font-family="Times,serif" font-size="14.00">ExpName0</text>
</g>
<!-- ExpCall0&#45;&gt;ExpName0 -->
<g id="edge27" class="edge"><title>ExpCall0&#45;&gt;ExpName0</title>
<path fill="none" stroke="black" d="M469.003,-433.465C457.663,-424.015 442.993,-411.79 430.425,-401.316"/>
<polygon fill="black" stroke="black" points="432.449,-398.447 422.526,-394.734 427.968,-403.825 432.449,-398.447"/>
</g>
<!-- ExpBinary2&#45;&gt;ExpTemp2 -->
<g id="edge44" class="edge"><title>ExpBinary2&#45;&gt;ExpTemp2</title>
<path fill="none" stroke="black" d="M744.851,-291.003C721.657,-280.106 689.289,-264.9 664.134,-253.082"/>
<polygon fill="black" stroke="black" points="665.419,-249.819 654.88,-248.734 662.443,-256.155 665.419,-249.819"/>
</g>
<!-- Plus2 -->
<g id="node53" class="node"><title>Plus2</title>
<ellipse fill="none" stroke="black" cx="724.645" cy="-234" rx="30.5947" ry="18"/>
<text text-anchor="middle" x="724.645" y="-230.3" font-family="Times,serif" font-size="14.00">Plus2</text>
</g>
<!-- ExpBinary2&#45;&gt;Plus2 -->
<g id="edge45" class="edge"><title>ExpBinary2&#45;&gt;Plus2</title>
<path fill="none" stroke="black" d="M762.796,-288.411C756.605,-279.744 748.91,-268.971 742.056,-259.375"/>
<polygon fill="black" stroke="black" points="744.726,-257.091 736.065,-250.988 739.03,-261.16 744.726,-257.091"/>
</g>
<!-- ExpConst2 -->
<g id="node54" class="node"><title>ExpConst2</title>
<ellipse fill="none" stroke="black" cx="823.645" cy="-234" rx="50.0912" ry="18"/>
<text text-anchor="middle" x="823.645" y="-230.3" font-family="Times,serif" font-size="14.00">ExpConst2</text>
</g>
<!-- ExpBinary2&#45;&gt;ExpConst2 -->
<g id="edge46" class="edge"><title>ExpBinary2&#45;&gt;ExpConst2</title>
<path fill="none" stroke="black" d="M786.258,-288.411C792.151,-279.992 799.436,-269.585 806.005,-260.201"/>
<polygon fill="black" stroke="black" points="808.909,-262.156 811.776,-251.956 803.174,-258.141 808.909,-262.156"/>
</g>
<!-- Label1: BBS@Init -->
<g id="node55" class="node"><title>Label1: BBS@Init</title>
<ellipse fill="none" stroke="black" cx="395.645" cy="-306" rx="77.1866" ry="18"/>
<text text-anchor="middle" x="395.645" y="-302.3" font-family="Times,serif" font-size="14.00">Label1: BBS@Init</text>
</g>
<!-- ExpName0&#45;&gt;Label1: BBS@Init -->
<g id="edge47" class="edge"><title>ExpName0&#45;&gt;Label1: BBS@Init</title>
<path fill="none" stroke="black" d="M401.668,-359.697C400.786,-351.983 399.727,-342.712 398.744,-334.112"/>
<polygon fill="black" stroke="black" points="402.213,-333.642 397.6,-324.104 395.258,-334.437 402.213,-333.642"/>
</g>
<!-- StatSeq4&#45;&gt;StatSeq5 -->
<g id="edge30" class="edge"><title>StatSeq4&#45;&gt;StatSeq5</title>
<path fill="none" stroke="black" d="M1128.67,-437.643C1135.2,-435.538 1142.1,-433.526 1148.65,-432 1266.77,-404.454 1408.8,-389.494 1483.29,-383.003"/>
<polygon fill="black" stroke="black" points="1483.67,-386.482 1493.34,-382.143 1483.08,-379.508 1483.67,-386.482"/>
</g>
<!-- StatExp0 -->
<g id="node39" class="node"><title>StatExp0</title>
<ellipse fill="none" stroke="black" cx="1124.65" cy="-378" rx="42.7926" ry="18"/>
<text text-anchor="middle" x="1124.65" y="-374.3" font-family="Times,serif" font-size="14.00">StatExp0</text>
</g>
<!-- StatSeq4&#45;&gt;StatExp0 -->
<g id="edge29" class="edge"><title>StatSeq4&#45;&gt;StatExp0</title>
<path fill="none" stroke="black" d="M1104.18,-432.055C1107.22,-424.176 1110.91,-414.617 1114.31,-405.794"/>
<polygon fill="black" stroke="black" points="1117.65,-406.865 1117.98,-396.275 1111.12,-404.346 1117.65,-406.865"/>
</g>
<!-- StatExp0&#45;&gt;ExpCall2 -->
<g id="edge54" class="edge"><title>StatExp0&#45;&gt;ExpCall2</title>
<path fill="none" stroke="black" d="M1137.21,-360.411C1143.74,-351.781 1151.86,-341.062 1159.1,-331.497"/>
<polygon fill="black" stroke="black" points="1161.93,-333.555 1165.18,-323.47 1156.35,-329.33 1161.93,-333.555"/>
</g>
<!-- ExpTemp1 -->
<g id="node41" class="node"><title>ExpTemp1</title>
<ellipse fill="none" stroke="black" cx="345.645" cy="-162" rx="50.0912" ry="18"/>
<text text-anchor="middle" x="345.645" y="-158.3" font-family="Times,serif" font-size="14.00">ExpTemp1</text>
</g>
<!-- Temp1: $fp -->
<g id="node42" class="node"><title>Temp1: $fp</title>
<ellipse fill="none" stroke="black" cx="345.645" cy="-90" rx="52.7911" ry="18"/>
<text text-anchor="middle" x="345.645" y="-86.3" font-family="Times,serif" font-size="14.00">Temp1: $fp</text>
</g>
<!-- ExpTemp1&#45;&gt;Temp1: $fp -->
<g id="edge32" class="edge"><title>ExpTemp1&#45;&gt;Temp1: $fp</title>
<path fill="none" stroke="black" d="M345.645,-143.697C345.645,-135.983 345.645,-126.712 345.645,-118.112"/>
<polygon fill="black" stroke="black" points="349.145,-118.104 345.645,-108.104 342.145,-118.104 349.145,-118.104"/>
</g>
<!-- ExpBinary1&#45;&gt;ExpConst1 -->
<g id="edge41" class="edge"><title>ExpBinary1&#45;&gt;ExpConst1</title>
<path fill="none" stroke="black" d="M475.614,-217.116C487.624,-207.562 503.081,-195.267 516.225,-184.812"/>
<polygon fill="black" stroke="black" points="518.412,-187.544 524.059,-178.58 514.054,-182.066 518.412,-187.544"/>
</g>
<!-- ExpBinary1&#45;&gt;ExpTemp1 -->
<g id="edge39" class="edge"><title>ExpBinary1&#45;&gt;ExpTemp1</title>
<path fill="none" stroke="black" d="M431.777,-217.811C415.957,-207.744 395.014,-194.417 377.741,-183.425"/>
<polygon fill="black" stroke="black" points="379.405,-180.335 369.089,-177.919 375.647,-186.24 379.405,-180.335"/>
</g>
<!-- Plus1 -->
<g id="node50" class="node"><title>Plus1</title>
<ellipse fill="none" stroke="black" cx="444.645" cy="-162" rx="30.5947" ry="18"/>
<text text-anchor="middle" x="444.645" y="-158.3" font-family="Times,serif" font-size="14.00">Plus1</text>
</g>
<!-- ExpBinary1&#45;&gt;Plus1 -->
<g id="edge40" class="edge"><title>ExpBinary1&#45;&gt;Plus1</title>
<path fill="none" stroke="black" d="M452.926,-215.697C451.714,-207.983 450.257,-198.712 448.906,-190.112"/>
<polygon fill="black" stroke="black" points="452.343,-189.44 447.333,-180.104 445.428,-190.526 452.343,-189.44"/>
</g>
<!-- ExpName3 -->
<g id="node48" class="node"><title>ExpName3</title>
<ellipse fill="none" stroke="black" cx="1595.65" cy="-162" rx="50.8918" ry="18"/>
<text text-anchor="middle" x="1595.65" y="-158.3" font-family="Times,serif" font-size="14.00">ExpName3</text>
</g>
<!-- ExpCall3&#45;&gt;ExpName3 -->
<g id="edge37" class="edge"><title>ExpCall3&#45;&gt;ExpName3</title>
<path fill="none" stroke="black" d="M1595.65,-215.697C1595.65,-207.983 1595.65,-198.712 1595.65,-190.112"/>
<polygon fill="black" stroke="black" points="1599.15,-190.104 1595.65,-180.104 1592.15,-190.104 1599.15,-190.104"/>
</g>
<!-- ExpList3 -->
<g id="node49" class="node"><title>ExpList3</title>
<ellipse fill="none" stroke="black" cx="1707.65" cy="-162" rx="42.7926" ry="18"/>
<text text-anchor="middle" x="1707.65" y="-158.3" font-family="Times,serif" font-size="14.00">ExpList3</text>
</g>
<!-- ExpCall3&#45;&gt;ExpList3 -->
<g id="edge38" class="edge"><title>ExpCall3&#45;&gt;ExpList3</title>
<path fill="none" stroke="black" d="M1618.85,-218.496C1635.37,-208.172 1657.77,-194.174 1675.93,-182.819"/>
<polygon fill="black" stroke="black" points="1677.84,-185.753 1684.47,-177.485 1674.13,-179.818 1677.84,-185.753"/>
</g>
<!-- Label4: BBS@Sort -->
<g id="node71" class="node"><title>Label4: BBS@Sort</title>
<ellipse fill="none" stroke="black" cx="1657.65" cy="-90" rx="79.0865" ry="18"/>
<text text-anchor="middle" x="1657.65" y="-86.3" font-family="Times,serif" font-size="14.00">Label4: BBS@Sort</text>
</g>
<!-- ExpName3&#45;&gt;Label4: BBS@Sort -->
<g id="edge67" class="edge"><title>ExpName3&#45;&gt;Label4: BBS@Sort</title>
<path fill="none" stroke="black" d="M1610.34,-144.411C1617.95,-135.82 1627.39,-125.159 1635.83,-115.627"/>
<polygon fill="black" stroke="black" points="1638.62,-117.763 1642.63,-107.956 1633.38,-113.121 1638.62,-117.763"/>
</g>
<!-- StatLabel0 -->
<g id="node51" class="node"><title>StatLabel0</title>
<ellipse fill="none" stroke="black" cx="956.645" cy="-666" rx="48.9926" ry="18"/>
<text text-anchor="middle" x="956.645" y="-662.3" font-family="Times,serif" font-size="14.00">StatLabel0</text>
</g>
<!-- Label0: BBS@Start -->
<g id="node52" class="node"><title>Label0: BBS@Start</title>
<ellipse fill="none" stroke="black" cx="940.645" cy="-594" rx="81.4863" ry="18"/>
<text text-anchor="middle" x="940.645" y="-590.3" font-family="Times,serif" font-size="14.00">Label0: BBS@Start</text>
</g>
<!-- StatLabel0&#45;&gt;Label0: BBS@Start -->
<g id="edge43" class="edge"><title>StatLabel0&#45;&gt;Label0: BBS@Start</title>
<path fill="none" stroke="black" d="M952.772,-648.055C950.991,-640.261 948.833,-630.822 946.835,-622.079"/>
<polygon fill="black" stroke="black" points="950.234,-621.244 944.594,-612.275 943.41,-622.804 950.234,-621.244"/>
</g>
<!-- Value2: 12 -->
<g id="node65" class="node"><title>Value2: 12</title>
<ellipse fill="none" stroke="black" cx="823.645" cy="-162" rx="50.0912" ry="18"/>
<text text-anchor="middle" x="823.645" y="-158.3" font-family="Times,serif" font-size="14.00">Value2: 12</text>
</g>
<!-- ExpConst2&#45;&gt;Value2: 12 -->
<g id="edge59" class="edge"><title>ExpConst2&#45;&gt;Value2: 12</title>
<path fill="none" stroke="black" d="M823.645,-215.697C823.645,-207.983 823.645,-198.712 823.645,-190.112"/>
<polygon fill="black" stroke="black" points="827.145,-190.104 823.645,-180.104 820.145,-190.104 827.145,-190.104"/>
</g>
<!-- Value3: 99999 -->
<g id="node57" class="node"><title>Value3: 99999</title>
<ellipse fill="none" stroke="black" cx="1181.65" cy="-90" rx="63.0888" ry="18"/>
<text text-anchor="middle" x="1181.65" y="-86.3" font-family="Times,serif" font-size="14.00">Value3: 99999</text>
</g>
<!-- ExpConst3&#45;&gt;Value3: 99999 -->
<g id="edge50" class="edge"><title>ExpConst3&#45;&gt;Value3: 99999</title>
<path fill="none" stroke="black" d="M1223.61,-144.411C1216.93,-135.906 1208.65,-125.372 1201.22,-115.914"/>
<polygon fill="black" stroke="black" points="1203.9,-113.657 1194.97,-107.956 1198.39,-117.982 1203.9,-113.657"/>
</g>
<!-- StatSeq0 -->
<g id="node58" class="node"><title>StatSeq0</title>
<ellipse fill="none" stroke="black" cx="1018.65" cy="-738" rx="42.4939" ry="18"/>
<text text-anchor="middle" x="1018.65" y="-734.3" font-family="Times,serif" font-size="14.00">StatSeq0</text>
</g>
<!-- StatSeq0&#45;&gt;StatSeq1 -->
<g id="edge53" class="edge"><title>StatSeq0&#45;&gt;StatSeq1</title>
<path fill="none" stroke="black" d="M1033.26,-720.765C1041.29,-711.841 1051.4,-700.608 1060.3,-690.719"/>
<polygon fill="black" stroke="black" points="1063.02,-692.922 1067.11,-683.147 1057.82,-688.239 1063.02,-692.922"/>
</g>
<!-- StatSeq0&#45;&gt;StatLabel0 -->
<g id="edge52" class="edge"><title>StatSeq0&#45;&gt;StatLabel0</title>
<path fill="none" stroke="black" d="M1004.27,-720.765C996.475,-711.969 986.696,-700.928 978.03,-691.144"/>
<polygon fill="black" stroke="black" points="980.628,-688.799 971.378,-683.633 975.388,-693.44 980.628,-688.799"/>
</g>
<!-- ExpConst4 -->
<g id="node59" class="node"><title>ExpConst4</title>
<ellipse fill="none" stroke="black" cx="1510.65" cy="-90" rx="50.0912" ry="18"/>
<text text-anchor="middle" x="1510.65" y="-86.3" font-family="Times,serif" font-size="14.00">ExpConst4</text>
</g>
<!-- Value4: 12 -->
<g id="node60" class="node"><title>Value4: 12</title>
<ellipse fill="none" stroke="black" cx="1510.65" cy="-18" rx="50.0912" ry="18"/>
<text text-anchor="middle" x="1510.65" y="-14.3" font-family="Times,serif" font-size="14.00">Value4: 12</text>
</g>
<!-- ExpConst4&#45;&gt;Value4: 12 -->
<g id="edge55" class="edge"><title>ExpConst4&#45;&gt;Value4: 12</title>
<path fill="none" stroke="black" d="M1510.65,-71.6966C1510.65,-63.9827 1510.65,-54.7125 1510.65,-46.1124"/>
<polygon fill="black" stroke="black" points="1514.15,-46.1043 1510.65,-36.1043 1507.15,-46.1044 1514.15,-46.1043"/>
</g>
<!-- ExpCall4&#45;&gt;ExpName4 -->
<g id="edge56" class="edge"><title>ExpCall4&#45;&gt;ExpName4</title>
<path fill="none" stroke="black" d="M2088.65,-215.697C2088.65,-207.983 2088.65,-198.712 2088.65,-190.112"/>
<polygon fill="black" stroke="black" points="2092.15,-190.104 2088.65,-180.104 2085.15,-190.104 2092.15,-190.104"/>
</g>
<!-- ExpList4 -->
<g id="node62" class="node"><title>ExpList4</title>
<ellipse fill="none" stroke="black" cx="2200.65" cy="-162" rx="42.7926" ry="18"/>
<text text-anchor="middle" x="2200.65" y="-158.3" font-family="Times,serif" font-size="14.00">ExpList4</text>
</g>
<!-- ExpCall4&#45;&gt;ExpList4 -->
<g id="edge57" class="edge"><title>ExpCall4&#45;&gt;ExpList4</title>
<path fill="none" stroke="black" d="M2111.85,-218.496C2128.37,-208.172 2150.77,-194.174 2168.93,-182.819"/>
<polygon fill="black" stroke="black" points="2170.84,-185.753 2177.47,-177.485 2167.13,-179.818 2170.84,-185.753"/>
</g>
<!-- ExpTemp3 -->
<g id="node63" class="node"><title>ExpTemp3</title>
<ellipse fill="none" stroke="black" cx="1312.65" cy="-90" rx="50.0912" ry="18"/>
<text text-anchor="middle" x="1312.65" y="-86.3" font-family="Times,serif" font-size="14.00">ExpTemp3</text>
</g>
<!-- Temp3: $fp -->
<g id="node64" class="node"><title>Temp3: $fp</title>
<ellipse fill="none" stroke="black" cx="1312.65" cy="-18" rx="52.7911" ry="18"/>
<text text-anchor="middle" x="1312.65" y="-14.3" font-family="Times,serif" font-size="14.00">Temp3: $fp</text>
</g>
<!-- ExpTemp3&#45;&gt;Temp3: $fp -->
<g id="edge58" class="edge"><title>ExpTemp3&#45;&gt;Temp3: $fp</title>
<path fill="none" stroke="black" d="M1312.65,-71.6966C1312.65,-63.9827 1312.65,-54.7125 1312.65,-46.1124"/>
<polygon fill="black" stroke="black" points="1316.15,-46.1043 1312.65,-36.1043 1309.15,-46.1044 1316.15,-46.1043"/>
</g>
<!-- ExpBinary3 -->
<g id="node66" class="node"><title>ExpBinary3</title>
<ellipse fill="none" stroke="black" cx="1461.65" cy="-162" rx="53.0913" ry="18"/>
<text text-anchor="middle" x="1461.65" y="-158.3" font-family="Times,serif" font-size="14.00">ExpBinary3</text>
</g>
<!-- ExpBinary3&#45;&gt;ExpConst4 -->
<g id="edge62" class="edge"><title>ExpBinary3&#45;&gt;ExpConst4</title>
<path fill="none" stroke="black" d="M1473.26,-144.411C1479.15,-135.992 1486.44,-125.585 1493,-116.201"/>
<polygon fill="black" stroke="black" points="1495.91,-118.156 1498.78,-107.956 1490.17,-114.141 1495.91,-118.156"/>
</g>
<!-- ExpBinary3&#45;&gt;ExpTemp3 -->
<g id="edge60" class="edge"><title>ExpBinary3&#45;&gt;ExpTemp3</title>
<path fill="none" stroke="black" d="M1431.85,-147.003C1408.66,-136.106 1376.29,-120.9 1351.13,-109.082"/>
<polygon fill="black" stroke="black" points="1352.42,-105.819 1341.88,-104.734 1349.44,-112.155 1352.42,-105.819"/>
</g>
<!-- Plus3 -->
<g id="node67" class="node"><title>Plus3</title>
<ellipse fill="none" stroke="black" cx="1411.65" cy="-90" rx="30.5947" ry="18"/>
<text text-anchor="middle" x="1411.65" y="-86.3" font-family="Times,serif" font-size="14.00">Plus3</text>
</g>
<!-- ExpBinary3&#45;&gt;Plus3 -->
<g id="edge61" class="edge"><title>ExpBinary3&#45;&gt;Plus3</title>
<path fill="none" stroke="black" d="M1449.8,-144.411C1443.61,-135.744 1435.91,-124.971 1429.06,-115.375"/>
<polygon fill="black" stroke="black" points="1431.73,-113.091 1423.07,-106.988 1426.03,-117.16 1431.73,-113.091"/>
</g>
<!-- Value5: 12 -->
<g id="node69" class="node"><title>Value5: 12</title>
<ellipse fill="none" stroke="black" cx="2002.65" cy="-18" rx="50.0912" ry="18"/>
<text text-anchor="middle" x="2002.65" y="-14.3" font-family="Times,serif" font-size="14.00">Value5: 12</text>
</g>
<!-- ExpConst5&#45;&gt;Value5: 12 -->
<g id="edge63" class="edge"><title>ExpConst5&#45;&gt;Value5: 12</title>
<path fill="none" stroke="black" d="M2002.65,-71.6966C2002.65,-63.9827 2002.65,-54.7125 2002.65,-46.1124"/>
<polygon fill="black" stroke="black" points="2006.15,-46.1043 2002.65,-36.1043 1999.15,-46.1044 2006.15,-46.1043"/>
</g>
<!-- ExpMem3&#45;&gt;ExpBinary3 -->
<g id="edge64" class="edge"><title>ExpMem3&#45;&gt;ExpBinary3</title>
<path fill="none" stroke="black" d="M1475.29,-216.055C1473.28,-208.261 1470.86,-198.822 1468.61,-190.079"/>
<polygon fill="black" stroke="black" points="1471.97,-189.089 1466.09,-180.275 1465.19,-190.832 1471.97,-189.089"/>
</g>
<!-- Temp4: $fp -->
<g id="node73" class="node"><title>Temp4: $fp</title>
<ellipse fill="none" stroke="black" cx="1804.65" cy="-18" rx="52.7911" ry="18"/>
<text text-anchor="middle" x="1804.65" y="-14.3" font-family="Times,serif" font-size="14.00">Temp4: $fp</text>
</g>
<!-- ExpTemp4&#45;&gt;Temp4: $fp -->
<g id="edge68" class="edge"><title>ExpTemp4&#45;&gt;Temp4: $fp</title>
<path fill="none" stroke="black" d="M1804.65,-71.6966C1804.65,-63.9827 1804.65,-54.7125 1804.65,-46.1124"/>
<polygon fill="black" stroke="black" points="1808.15,-46.1043 1804.65,-36.1043 1801.15,-46.1044 1808.15,-46.1043"/>
</g>
</g>
</svg>
