<?xml version="1.0" encoding="UTF-8" standalone="no"?>
<!DOCTYPE svg PUBLIC "-//W3C//DTD SVG 1.1//EN"
 "http://www.w3.org/Graphics/SVG/1.1/DTD/svg11.dtd">
<!-- Generated by graphviz version 2.38.0 (20140413.2041)
 -->
<!-- Title: %3 Pages: 1 -->
<svg width="2183pt" height="764pt"
 viewBox="0.00 0.00 2182.59 764.00" xmlns="http://www.w3.org/2000/svg" xmlns:xlink="http://www.w3.org/1999/xlink">
<g id="graph0" class="graph" transform="scale(1 1) rotate(0) translate(4 760)">
<title>%3</title>
<polygon fill="white" stroke="none" points="-4,4 -4,-760 2178.59,-760 2178.59,4 -4,4"/>
<!-- ExpCall11 -->
<g id="node1" class="node"><title>ExpCall11</title>
<ellipse fill="none" stroke="black" cx="1312.7" cy="-522" rx="48.1917" ry="18"/>
<text text-anchor="middle" x="1312.7" y="-518.3" font-family="Times,serif" font-size="14.00">ExpCall11</text>
</g>
<!-- Value6: 0 -->
<g id="node2" class="node"><title>Value6: 0</title>
<ellipse fill="none" stroke="black" cx="1319.7" cy="-450" rx="45.4919" ry="18"/>
<text text-anchor="middle" x="1319.7" y="-446.3" font-family="Times,serif" font-size="14.00">Value6: 0</text>
</g>
<!-- ExpCall11&#45;&gt;Value6: 0 -->
<g id="edge1" class="edge"><title>ExpCall11&#45;&gt;Value6: 0</title>
<path fill="none" stroke="black" d="M1314.43,-503.697C1315.2,-495.983 1316.12,-486.712 1316.98,-478.112"/>
<polygon fill="black" stroke="black" points="1320.47,-478.403 1317.99,-468.104 1313.51,-477.706 1320.47,-478.403"/>
</g>
<!-- StatMove4 -->
<g id="node3" class="node"><title>StatMove4</title>
<ellipse fill="none" stroke="black" cx="1190.7" cy="-594" rx="50.0912" ry="18"/>
<text text-anchor="middle" x="1190.7" y="-590.3" font-family="Times,serif" font-size="14.00">StatMove4</text>
</g>
<!-- StatMove4&#45;&gt;ExpCall11 -->
<g id="edge3" class="edge"><title>StatMove4&#45;&gt;ExpCall11</title>
<path fill="none" stroke="black" d="M1216.27,-578.326C1234.45,-567.896 1259.05,-553.781 1278.85,-542.419"/>
<polygon fill="black" stroke="black" points="1280.64,-545.428 1287.57,-537.415 1277.16,-539.356 1280.64,-545.428"/>
</g>
<!-- ExpTemp5 -->
<g id="node4" class="node"><title>ExpTemp5</title>
<ellipse fill="none" stroke="black" cx="1190.7" cy="-522" rx="50.0912" ry="18"/>
<text text-anchor="middle" x="1190.7" y="-518.3" font-family="Times,serif" font-size="14.00">ExpTemp5</text>
</g>
<!-- StatMove4&#45;&gt;ExpTemp5 -->
<g id="edge2" class="edge"><title>StatMove4&#45;&gt;ExpTemp5</title>
<path fill="none" stroke="black" d="M1190.7,-575.697C1190.7,-567.983 1190.7,-558.712 1190.7,-550.112"/>
<polygon fill="black" stroke="black" points="1194.2,-550.104 1190.7,-540.104 1187.2,-550.104 1194.2,-550.104"/>
</g>
<!-- Temp5: RetVal -->
<g id="node51" class="node"><title>Temp5: RetVal</title>
<ellipse fill="none" stroke="black" cx="1190.7" cy="-450" rx="65.7887" ry="18"/>
<text text-anchor="middle" x="1190.7" y="-446.3" font-family="Times,serif" font-size="14.00">Temp5: RetVal</text>
</g>
<!-- ExpTemp5&#45;&gt;Temp5: RetVal -->
<g id="edge39" class="edge"><title>ExpTemp5&#45;&gt;Temp5: RetVal</title>
<path fill="none" stroke="black" d="M1190.7,-503.697C1190.7,-495.983 1190.7,-486.712 1190.7,-478.112"/>
<polygon fill="black" stroke="black" points="1194.2,-478.104 1190.7,-468.104 1187.2,-478.104 1194.2,-478.104"/>
</g>
<!-- ExpCall4 -->
<g id="node5" class="node"><title>ExpCall4</title>
<ellipse fill="none" stroke="black" cx="940.696" cy="-378" rx="44.393" ry="18"/>
<text text-anchor="middle" x="940.696" y="-374.3" font-family="Times,serif" font-size="14.00">ExpCall4</text>
</g>
<!-- ExpName1 -->
<g id="node6" class="node"><title>ExpName1</title>
<ellipse fill="none" stroke="black" cx="927.696" cy="-306" rx="50.8918" ry="18"/>
<text text-anchor="middle" x="927.696" y="-302.3" font-family="Times,serif" font-size="14.00">ExpName1</text>
</g>
<!-- ExpCall4&#45;&gt;ExpName1 -->
<g id="edge4" class="edge"><title>ExpCall4&#45;&gt;ExpName1</title>
<path fill="none" stroke="black" d="M937.482,-359.697C936.049,-351.983 934.328,-342.712 932.731,-334.112"/>
<polygon fill="black" stroke="black" points="936.139,-333.297 930.872,-324.104 929.257,-334.575 936.139,-333.297"/>
</g>
<!-- ExpList1 -->
<g id="node7" class="node"><title>ExpList1</title>
<ellipse fill="none" stroke="black" cx="1039.7" cy="-306" rx="42.7926" ry="18"/>
<text text-anchor="middle" x="1039.7" y="-302.3" font-family="Times,serif" font-size="14.00">ExpList1</text>
</g>
<!-- ExpCall4&#45;&gt;ExpList1 -->
<g id="edge5" class="edge"><title>ExpCall4&#45;&gt;ExpList1</title>
<path fill="none" stroke="black" d="M961.691,-362.155C975.866,-352.132 994.773,-338.763 1010.42,-327.698"/>
<polygon fill="black" stroke="black" points="1012.59,-330.455 1018.73,-321.824 1008.54,-324.739 1012.59,-330.455"/>
</g>
<!-- Label2: BBS::Print -->
<g id="node11" class="node"><title>Label2: BBS::Print</title>
<ellipse fill="none" stroke="black" cx="936.696" cy="-234" rx="78.7863" ry="18"/>
<text text-anchor="middle" x="936.696" y="-230.3" font-family="Times,serif" font-size="14.00">Label2: BBS::Print</text>
</g>
<!-- ExpName1&#45;&gt;Label2: BBS::Print -->
<g id="edge8" class="edge"><title>ExpName1&#45;&gt;Label2: BBS::Print</title>
<path fill="none" stroke="black" d="M929.92,-287.697C930.912,-279.983 932.104,-270.712 933.21,-262.112"/>
<polygon fill="black" stroke="black" points="936.692,-262.469 934.496,-252.104 929.75,-261.576 936.692,-262.469"/>
</g>
<!-- ExpCall5 -->
<g id="node8" class="node"><title>ExpCall5</title>
<ellipse fill="none" stroke="black" cx="1144.7" cy="-306" rx="44.393" ry="18"/>
<text text-anchor="middle" x="1144.7" y="-302.3" font-family="Times,serif" font-size="14.00">ExpCall5</text>
</g>
<!-- ExpName2 -->
<g id="node9" class="node"><title>ExpName2</title>
<ellipse fill="none" stroke="black" cx="1083.7" cy="-234" rx="50.8918" ry="18"/>
<text text-anchor="middle" x="1083.7" y="-230.3" font-family="Times,serif" font-size="14.00">ExpName2</text>
</g>
<!-- ExpCall5&#45;&gt;ExpName2 -->
<g id="edge6" class="edge"><title>ExpCall5&#45;&gt;ExpName2</title>
<path fill="none" stroke="black" d="M1130.55,-288.765C1122.96,-280.056 1113.45,-269.147 1104.99,-259.435"/>
<polygon fill="black" stroke="black" points="1107.4,-256.873 1098.19,-251.633 1102.12,-261.472 1107.4,-256.873"/>
</g>
<!-- ExpList2 -->
<g id="node10" class="node"><title>ExpList2</title>
<ellipse fill="none" stroke="black" cx="1195.7" cy="-234" rx="42.7926" ry="18"/>
<text text-anchor="middle" x="1195.7" y="-230.3" font-family="Times,serif" font-size="14.00">ExpList2</text>
</g>
<!-- ExpCall5&#45;&gt;ExpList2 -->
<g id="edge7" class="edge"><title>ExpCall5&#45;&gt;ExpList2</title>
<path fill="none" stroke="black" d="M1156.78,-288.411C1163.01,-279.868 1170.72,-269.278 1177.64,-259.787"/>
<polygon fill="black" stroke="black" points="1180.64,-261.613 1183.7,-251.47 1174.98,-257.491 1180.64,-261.613"/>
</g>
<!-- Label3: print -->
<g id="node50" class="node"><title>Label3: print</title>
<ellipse fill="none" stroke="black" cx="1076.7" cy="-162" rx="56.59" ry="18"/>
<text text-anchor="middle" x="1076.7" y="-158.3" font-family="Times,serif" font-size="14.00">Label3: print</text>
</g>
<!-- ExpName2&#45;&gt;Label3: print -->
<g id="edge38" class="edge"><title>ExpName2&#45;&gt;Label3: print</title>
<path fill="none" stroke="black" d="M1081.97,-215.697C1081.19,-207.983 1080.27,-198.712 1079.41,-190.112"/>
<polygon fill="black" stroke="black" points="1082.88,-189.706 1078.41,-180.104 1075.92,-190.403 1082.88,-189.706"/>
</g>
<!-- ExpCall6 -->
<g id="node61" class="node"><title>ExpCall6</title>
<ellipse fill="none" stroke="black" cx="1195.7" cy="-162" rx="44.393" ry="18"/>
<text text-anchor="middle" x="1195.7" y="-158.3" font-family="Times,serif" font-size="14.00">ExpCall6</text>
</g>
<!-- ExpList2&#45;&gt;ExpCall6 -->
<g id="edge58" class="edge"><title>ExpList2&#45;&gt;ExpCall6</title>
<path fill="none" stroke="black" d="M1195.7,-215.697C1195.7,-207.983 1195.7,-198.712 1195.7,-190.112"/>
<polygon fill="black" stroke="black" points="1199.2,-190.104 1195.7,-180.104 1192.2,-190.104 1199.2,-190.104"/>
</g>
<!-- StatMove1 -->
<g id="node12" class="node"><title>StatMove1</title>
<ellipse fill="none" stroke="black" cx="940.696" cy="-450" rx="50.0912" ry="18"/>
<text text-anchor="middle" x="940.696" y="-446.3" font-family="Times,serif" font-size="14.00">StatMove1</text>
</g>
<!-- StatMove1&#45;&gt;ExpCall4 -->
<g id="edge10" class="edge"><title>StatMove1&#45;&gt;ExpCall4</title>
<path fill="none" stroke="black" d="M940.696,-431.697C940.696,-423.983 940.696,-414.712 940.696,-406.112"/>
<polygon fill="black" stroke="black" points="944.196,-406.104 940.696,-396.104 937.196,-406.104 944.196,-406.104"/>
</g>
<!-- ExpMem2 -->
<g id="node13" class="node"><title>ExpMem2</title>
<ellipse fill="none" stroke="black" cx="770.696" cy="-378" rx="48.9926" ry="18"/>
<text text-anchor="middle" x="770.696" y="-374.3" font-family="Times,serif" font-size="14.00">ExpMem2</text>
</g>
<!-- StatMove1&#45;&gt;ExpMem2 -->
<g id="edge9" class="edge"><title>StatMove1&#45;&gt;ExpMem2</title>
<path fill="none" stroke="black" d="M909.118,-435.998C881.565,-424.652 841.418,-408.121 811.448,-395.78"/>
<polygon fill="black" stroke="black" points="812.683,-392.504 802.104,-391.933 810.018,-398.977 812.683,-392.504"/>
</g>
<!-- ExpBinary2 -->
<g id="node40" class="node"><title>ExpBinary2</title>
<ellipse fill="none" stroke="black" cx="749.696" cy="-306" rx="53.0913" ry="18"/>
<text text-anchor="middle" x="749.696" y="-302.3" font-family="Times,serif" font-size="14.00">ExpBinary2</text>
</g>
<!-- ExpMem2&#45;&gt;ExpBinary2 -->
<g id="edge29" class="edge"><title>ExpMem2&#45;&gt;ExpBinary2</title>
<path fill="none" stroke="black" d="M765.612,-360.055C763.274,-352.261 760.442,-342.822 757.819,-334.079"/>
<polygon fill="black" stroke="black" points="761.104,-332.848 754.878,-324.275 754.399,-334.859 761.104,-332.848"/>
</g>
<!-- StatSeq5 -->
<g id="node14" class="node"><title>StatSeq5</title>
<ellipse fill="none" stroke="black" cx="1483.7" cy="-378" rx="42.4939" ry="18"/>
<text text-anchor="middle" x="1483.7" y="-374.3" font-family="Times,serif" font-size="14.00">StatSeq5</text>
</g>
<!-- StatMove2 -->
<g id="node15" class="node"><title>StatMove2</title>
<ellipse fill="none" stroke="black" cx="1483.7" cy="-306" rx="50.0912" ry="18"/>
<text text-anchor="middle" x="1483.7" y="-302.3" font-family="Times,serif" font-size="14.00">StatMove2</text>
</g>
<!-- StatSeq5&#45;&gt;StatMove2 -->
<g id="edge11" class="edge"><title>StatSeq5&#45;&gt;StatMove2</title>
<path fill="none" stroke="black" d="M1483.7,-359.697C1483.7,-351.983 1483.7,-342.712 1483.7,-334.112"/>
<polygon fill="black" stroke="black" points="1487.2,-334.104 1483.7,-324.104 1480.2,-334.104 1487.2,-334.104"/>
</g>
<!-- StatMove3 -->
<g id="node16" class="node"><title>StatMove3</title>
<ellipse fill="none" stroke="black" cx="1841.7" cy="-306" rx="50.0912" ry="18"/>
<text text-anchor="middle" x="1841.7" y="-302.3" font-family="Times,serif" font-size="14.00">StatMove3</text>
</g>
<!-- StatSeq5&#45;&gt;StatMove3 -->
<g id="edge12" class="edge"><title>StatSeq5&#45;&gt;StatMove3</title>
<path fill="none" stroke="black" d="M1521.33,-369.641C1585.37,-357.119 1715.69,-331.639 1788.84,-317.335"/>
<polygon fill="black" stroke="black" points="1789.63,-320.747 1798.77,-315.393 1788.28,-313.877 1789.63,-320.747"/>
</g>
<!-- ExpCall8 -->
<g id="node57" class="node"><title>ExpCall8</title>
<ellipse fill="none" stroke="black" cx="1544.7" cy="-234" rx="44.393" ry="18"/>
<text text-anchor="middle" x="1544.7" y="-230.3" font-family="Times,serif" font-size="14.00">ExpCall8</text>
</g>
<!-- StatMove2&#45;&gt;ExpCall8 -->
<g id="edge68" class="edge"><title>StatMove2&#45;&gt;ExpCall8</title>
<path fill="none" stroke="black" d="M1498.15,-288.411C1505.75,-279.693 1515.2,-268.845 1523.6,-259.208"/>
<polygon fill="black" stroke="black" points="1526.41,-261.309 1530.34,-251.47 1521.13,-256.71 1526.41,-261.309"/>
</g>
<!-- ExpMem3 -->
<g id="node72" class="node"><title>ExpMem3</title>
<ellipse fill="none" stroke="black" cx="1428.7" cy="-234" rx="48.9926" ry="18"/>
<text text-anchor="middle" x="1428.7" y="-230.3" font-family="Times,serif" font-size="14.00">ExpMem3</text>
</g>
<!-- StatMove2&#45;&gt;ExpMem3 -->
<g id="edge67" class="edge"><title>StatMove2&#45;&gt;ExpMem3</title>
<path fill="none" stroke="black" d="M1470.66,-288.411C1463.88,-279.781 1455.46,-269.062 1447.94,-259.497"/>
<polygon fill="black" stroke="black" points="1450.57,-257.171 1441.64,-251.47 1445.06,-261.496 1450.57,-257.171"/>
</g>
<!-- ExpMem4 -->
<g id="node32" class="node"><title>ExpMem4</title>
<ellipse fill="none" stroke="black" cx="1841.7" cy="-234" rx="48.9926" ry="18"/>
<text text-anchor="middle" x="1841.7" y="-230.3" font-family="Times,serif" font-size="14.00">ExpMem4</text>
</g>
<!-- StatMove3&#45;&gt;ExpMem4 -->
<g id="edge71" class="edge"><title>StatMove3&#45;&gt;ExpMem4</title>
<path fill="none" stroke="black" d="M1841.7,-287.697C1841.7,-279.983 1841.7,-270.712 1841.7,-262.112"/>
<polygon fill="black" stroke="black" points="1845.2,-262.104 1841.7,-252.104 1838.2,-262.104 1845.2,-262.104"/>
</g>
<!-- ExpCall10 -->
<g id="node68" class="node"><title>ExpCall10</title>
<ellipse fill="none" stroke="black" cx="2019.7" cy="-234" rx="48.1917" ry="18"/>
<text text-anchor="middle" x="2019.7" y="-230.3" font-family="Times,serif" font-size="14.00">ExpCall10</text>
</g>
<!-- StatMove3&#45;&gt;ExpCall10 -->
<g id="edge72" class="edge"><title>StatMove3&#45;&gt;ExpCall10</title>
<path fill="none" stroke="black" d="M1874.34,-292.161C1903.63,-280.643 1946.75,-263.686 1978.42,-251.232"/>
<polygon fill="black" stroke="black" points="1979.83,-254.439 1987.85,-247.522 1977.27,-247.925 1979.83,-254.439"/>
</g>
<!-- ExpTemp2 -->
<g id="node17" class="node"><title>ExpTemp2</title>
<ellipse fill="none" stroke="black" cx="603.696" cy="-234" rx="50.0912" ry="18"/>
<text text-anchor="middle" x="603.696" y="-230.3" font-family="Times,serif" font-size="14.00">ExpTemp2</text>
</g>
<!-- Temp2: FP -->
<g id="node18" class="node"><title>Temp2: FP</title>
<ellipse fill="none" stroke="black" cx="640.696" cy="-162" rx="50.8918" ry="18"/>
<text text-anchor="middle" x="640.696" y="-158.3" font-family="Times,serif" font-size="14.00">Temp2: FP</text>
</g>
<!-- ExpTemp2&#45;&gt;Temp2: FP -->
<g id="edge13" class="edge"><title>ExpTemp2&#45;&gt;Temp2: FP</title>
<path fill="none" stroke="black" d="M612.652,-216.055C616.97,-207.887 622.242,-197.912 627.045,-188.824"/>
<polygon fill="black" stroke="black" points="630.243,-190.266 631.821,-179.789 624.054,-186.994 630.243,-190.266"/>
</g>
<!-- StatSeq2 -->
<g id="node19" class="node"><title>StatSeq2</title>
<ellipse fill="none" stroke="black" cx="1048.7" cy="-594" rx="42.4939" ry="18"/>
<text text-anchor="middle" x="1048.7" y="-590.3" font-family="Times,serif" font-size="14.00">StatSeq2</text>
</g>
<!-- StatMove0 -->
<g id="node20" class="node"><title>StatMove0</title>
<ellipse fill="none" stroke="black" cx="470.696" cy="-522" rx="50.0912" ry="18"/>
<text text-anchor="middle" x="470.696" y="-518.3" font-family="Times,serif" font-size="14.00">StatMove0</text>
</g>
<!-- StatSeq2&#45;&gt;StatMove0 -->
<g id="edge14" class="edge"><title>StatSeq2&#45;&gt;StatMove0</title>
<path fill="none" stroke="black" d="M1017.98,-581.546C1011.37,-579.422 1004.36,-577.427 997.696,-576 830.959,-540.288 629.259,-528.504 530.736,-524.721"/>
<polygon fill="black" stroke="black" points="530.792,-521.22 520.67,-524.348 530.533,-528.216 530.792,-521.22"/>
</g>
<!-- StatSeq3 -->
<g id="node21" class="node"><title>StatSeq3</title>
<ellipse fill="none" stroke="black" cx="1048.7" cy="-522" rx="42.4939" ry="18"/>
<text text-anchor="middle" x="1048.7" y="-518.3" font-family="Times,serif" font-size="14.00">StatSeq3</text>
</g>
<!-- StatSeq2&#45;&gt;StatSeq3 -->
<g id="edge15" class="edge"><title>StatSeq2&#45;&gt;StatSeq3</title>
<path fill="none" stroke="black" d="M1048.7,-575.697C1048.7,-567.983 1048.7,-558.712 1048.7,-550.112"/>
<polygon fill="black" stroke="black" points="1052.2,-550.104 1048.7,-540.104 1045.2,-550.104 1052.2,-550.104"/>
</g>
<!-- ExpMem0 -->
<g id="node36" class="node"><title>ExpMem0</title>
<ellipse fill="none" stroke="black" cx="277.696" cy="-450" rx="48.9926" ry="18"/>
<text text-anchor="middle" x="277.696" y="-446.3" font-family="Times,serif" font-size="14.00">ExpMem0</text>
</g>
<!-- StatMove0&#45;&gt;ExpMem0 -->
<g id="edge24" class="edge"><title>StatMove0&#45;&gt;ExpMem0</title>
<path fill="none" stroke="black" d="M436.635,-508.647C404.29,-496.915 355.542,-479.235 320.567,-466.549"/>
<polygon fill="black" stroke="black" points="321.687,-463.232 311.092,-463.113 319.3,-469.813 321.687,-463.232"/>
</g>
<!-- ExpCall1 -->
<g id="node37" class="node"><title>ExpCall1</title>
<ellipse fill="none" stroke="black" cx="470.696" cy="-450" rx="44.393" ry="18"/>
<text text-anchor="middle" x="470.696" y="-446.3" font-family="Times,serif" font-size="14.00">ExpCall1</text>
</g>
<!-- StatMove0&#45;&gt;ExpCall1 -->
<g id="edge25" class="edge"><title>StatMove0&#45;&gt;ExpCall1</title>
<path fill="none" stroke="black" d="M470.696,-503.697C470.696,-495.983 470.696,-486.712 470.696,-478.112"/>
<polygon fill="black" stroke="black" points="474.196,-478.104 470.696,-468.104 467.196,-478.104 474.196,-478.104"/>
</g>
<!-- StatSeq3&#45;&gt;StatMove1 -->
<g id="edge52" class="edge"><title>StatSeq3&#45;&gt;StatMove1</title>
<path fill="none" stroke="black" d="M1026.32,-506.496C1010.85,-496.47 990.036,-482.98 972.803,-471.811"/>
<polygon fill="black" stroke="black" points="974.46,-468.714 964.165,-466.212 970.653,-474.588 974.46,-468.714"/>
</g>
<!-- StatSeq4 -->
<g id="node42" class="node"><title>StatSeq4</title>
<ellipse fill="none" stroke="black" cx="1064.7" cy="-450" rx="42.4939" ry="18"/>
<text text-anchor="middle" x="1064.7" y="-446.3" font-family="Times,serif" font-size="14.00">StatSeq4</text>
</g>
<!-- StatSeq3&#45;&gt;StatSeq4 -->
<g id="edge53" class="edge"><title>StatSeq3&#45;&gt;StatSeq4</title>
<path fill="none" stroke="black" d="M1052.57,-504.055C1054.35,-496.261 1056.51,-486.822 1058.51,-478.079"/>
<polygon fill="black" stroke="black" points="1061.93,-478.804 1060.75,-468.275 1055.11,-477.244 1061.93,-478.804"/>
</g>
<!-- ExpMem1 -->
<g id="node22" class="node"><title>ExpMem1</title>
<ellipse fill="none" stroke="black" cx="518.696" cy="-306" rx="48.9926" ry="18"/>
<text text-anchor="middle" x="518.696" y="-302.3" font-family="Times,serif" font-size="14.00">ExpMem1</text>
</g>
<!-- ExpBinary1 -->
<g id="node23" class="node"><title>ExpBinary1</title>
<ellipse fill="none" stroke="black" cx="440.696" cy="-234" rx="53.0913" ry="18"/>
<text text-anchor="middle" x="440.696" y="-230.3" font-family="Times,serif" font-size="14.00">ExpBinary1</text>
</g>
<!-- ExpMem1&#45;&gt;ExpBinary1 -->
<g id="edge16" class="edge"><title>ExpMem1&#45;&gt;ExpBinary1</title>
<path fill="none" stroke="black" d="M500.996,-289.116C490.697,-279.874 477.54,-268.066 466.145,-257.84"/>
<polygon fill="black" stroke="black" points="468.375,-255.138 458.595,-251.064 463.7,-260.348 468.375,-255.138"/>
</g>
<!-- ExpCall2 -->
<g id="node28" class="node"><title>ExpCall2</title>
<ellipse fill="none" stroke="black" cx="527.696" cy="-162" rx="44.393" ry="18"/>
<text text-anchor="middle" x="527.696" y="-158.3" font-family="Times,serif" font-size="14.00">ExpCall2</text>
</g>
<!-- ExpBinary1&#45;&gt;ExpCall2 -->
<g id="edge47" class="edge"><title>ExpBinary1&#45;&gt;ExpCall2</title>
<path fill="none" stroke="black" d="M460.437,-217.116C472.281,-207.586 487.515,-195.329 500.489,-184.89"/>
<polygon fill="black" stroke="black" points="503.033,-187.336 508.63,-178.34 498.645,-181.882 503.033,-187.336"/>
</g>
<!-- ExpTemp1 -->
<g id="node48" class="node"><title>ExpTemp1</title>
<ellipse fill="none" stroke="black" cx="335.696" cy="-162" rx="50.0912" ry="18"/>
<text text-anchor="middle" x="335.696" y="-158.3" font-family="Times,serif" font-size="14.00">ExpTemp1</text>
</g>
<!-- ExpBinary1&#45;&gt;ExpTemp1 -->
<g id="edge45" class="edge"><title>ExpBinary1&#45;&gt;ExpTemp1</title>
<path fill="none" stroke="black" d="M417.653,-217.638C402.78,-207.723 383.243,-194.698 366.975,-183.853"/>
<polygon fill="black" stroke="black" points="368.585,-180.72 358.323,-178.085 364.702,-186.545 368.585,-180.72"/>
</g>
<!-- Plus1 -->
<g id="node56" class="node"><title>Plus1</title>
<ellipse fill="none" stroke="black" cx="434.696" cy="-162" rx="30.5947" ry="18"/>
<text text-anchor="middle" x="434.696" y="-158.3" font-family="Times,serif" font-size="14.00">Plus1</text>
</g>
<!-- ExpBinary1&#45;&gt;Plus1 -->
<g id="edge46" class="edge"><title>ExpBinary1&#45;&gt;Plus1</title>
<path fill="none" stroke="black" d="M439.212,-215.697C438.551,-207.983 437.757,-198.712 437.019,-190.112"/>
<polygon fill="black" stroke="black" points="440.503,-189.769 436.162,-180.104 433.528,-190.367 440.503,-189.769"/>
</g>
<!-- ExpBinary0 -->
<g id="node24" class="node"><title>ExpBinary0</title>
<ellipse fill="none" stroke="black" cx="196.696" cy="-378" rx="53.0913" ry="18"/>
<text text-anchor="middle" x="196.696" y="-374.3" font-family="Times,serif" font-size="14.00">ExpBinary0</text>
</g>
<!-- ExpTemp0 -->
<g id="node25" class="node"><title>ExpTemp0</title>
<ellipse fill="none" stroke="black" cx="50.6955" cy="-306" rx="50.0912" ry="18"/>
<text text-anchor="middle" x="50.6955" y="-302.3" font-family="Times,serif" font-size="14.00">ExpTemp0</text>
</g>
<!-- ExpBinary0&#45;&gt;ExpTemp0 -->
<g id="edge17" class="edge"><title>ExpBinary0&#45;&gt;ExpTemp0</title>
<path fill="none" stroke="black" d="M167.15,-362.834C144.641,-352.042 113.466,-337.095 89.035,-325.382"/>
<polygon fill="black" stroke="black" points="90.2289,-322.073 79.6986,-320.906 87.2026,-328.385 90.2289,-322.073"/>
</g>
<!-- Plus0 -->
<g id="node26" class="node"><title>Plus0</title>
<ellipse fill="none" stroke="black" cx="149.696" cy="-306" rx="30.5947" ry="18"/>
<text text-anchor="middle" x="149.696" y="-302.3" font-family="Times,serif" font-size="14.00">Plus0</text>
</g>
<!-- ExpBinary0&#45;&gt;Plus0 -->
<g id="edge18" class="edge"><title>ExpBinary0&#45;&gt;Plus0</title>
<path fill="none" stroke="black" d="M185.318,-360.055C179.636,-351.592 172.651,-341.19 166.377,-331.845"/>
<polygon fill="black" stroke="black" points="169.125,-329.658 160.644,-323.307 163.313,-333.56 169.125,-329.658"/>
</g>
<!-- ExpCall0 -->
<g id="node27" class="node"><title>ExpCall0</title>
<ellipse fill="none" stroke="black" cx="242.696" cy="-306" rx="44.393" ry="18"/>
<text text-anchor="middle" x="242.696" y="-302.3" font-family="Times,serif" font-size="14.00">ExpCall0</text>
</g>
<!-- ExpBinary0&#45;&gt;ExpCall0 -->
<g id="edge19" class="edge"><title>ExpBinary0&#45;&gt;ExpCall0</title>
<path fill="none" stroke="black" d="M207.831,-360.055C213.312,-351.715 220.03,-341.491 226.102,-332.252"/>
<polygon fill="black" stroke="black" points="229.096,-334.068 231.663,-323.789 223.246,-330.224 229.096,-334.068"/>
</g>
<!-- Temp0: FP -->
<g id="node44" class="node"><title>Temp0: FP</title>
<ellipse fill="none" stroke="black" cx="50.6955" cy="-234" rx="50.8918" ry="18"/>
<text text-anchor="middle" x="50.6955" y="-230.3" font-family="Times,serif" font-size="14.00">Temp0: FP</text>
</g>
<!-- ExpTemp0&#45;&gt;Temp0: FP -->
<g id="edge33" class="edge"><title>ExpTemp0&#45;&gt;Temp0: FP</title>
<path fill="none" stroke="black" d="M50.6955,-287.697C50.6955,-279.983 50.6955,-270.712 50.6955,-262.112"/>
<polygon fill="black" stroke="black" points="54.1956,-262.104 50.6955,-252.104 47.1956,-262.104 54.1956,-262.104"/>
</g>
<!-- Value0: 12 -->
<g id="node41" class="node"><title>Value0: 12</title>
<ellipse fill="none" stroke="black" cx="242.696" cy="-234" rx="50.0912" ry="18"/>
<text text-anchor="middle" x="242.696" y="-230.3" font-family="Times,serif" font-size="14.00">Value0: 12</text>
</g>
<!-- ExpCall0&#45;&gt;Value0: 12 -->
<g id="edge30" class="edge"><title>ExpCall0&#45;&gt;Value0: 12</title>
<path fill="none" stroke="black" d="M242.696,-287.697C242.696,-279.983 242.696,-270.712 242.696,-262.112"/>
<polygon fill="black" stroke="black" points="246.196,-262.104 242.696,-252.104 239.196,-262.104 246.196,-262.104"/>
</g>
<!-- Value1: 4 -->
<g id="node29" class="node"><title>Value1: 4</title>
<ellipse fill="none" stroke="black" cx="527.696" cy="-90" rx="45.4919" ry="18"/>
<text text-anchor="middle" x="527.696" y="-86.3" font-family="Times,serif" font-size="14.00">Value1: 4</text>
</g>
<!-- ExpCall2&#45;&gt;Value1: 4 -->
<g id="edge20" class="edge"><title>ExpCall2&#45;&gt;Value1: 4</title>
<path fill="none" stroke="black" d="M527.696,-143.697C527.696,-135.983 527.696,-126.712 527.696,-118.112"/>
<polygon fill="black" stroke="black" points="531.196,-118.104 527.696,-108.104 524.196,-118.104 531.196,-118.104"/>
</g>
<!-- ExpCall7 -->
<g id="node30" class="node"><title>ExpCall7</title>
<ellipse fill="none" stroke="black" cx="1460.7" cy="-90" rx="44.393" ry="18"/>
<text text-anchor="middle" x="1460.7" y="-86.3" font-family="Times,serif" font-size="14.00">ExpCall7</text>
</g>
<!-- Value4: 12 -->
<g id="node31" class="node"><title>Value4: 12</title>
<ellipse fill="none" stroke="black" cx="1460.7" cy="-18" rx="50.0912" ry="18"/>
<text text-anchor="middle" x="1460.7" y="-14.3" font-family="Times,serif" font-size="14.00">Value4: 12</text>
</g>
<!-- ExpCall7&#45;&gt;Value4: 12 -->
<g id="edge21" class="edge"><title>ExpCall7&#45;&gt;Value4: 12</title>
<path fill="none" stroke="black" d="M1460.7,-71.6966C1460.7,-63.9827 1460.7,-54.7125 1460.7,-46.1124"/>
<polygon fill="black" stroke="black" points="1464.2,-46.1043 1460.7,-36.1043 1457.2,-46.1044 1464.2,-46.1043"/>
</g>
<!-- ExpBinary4 -->
<g id="node33" class="node"><title>ExpBinary4</title>
<ellipse fill="none" stroke="black" cx="1841.7" cy="-162" rx="53.0913" ry="18"/>
<text text-anchor="middle" x="1841.7" y="-158.3" font-family="Times,serif" font-size="14.00">ExpBinary4</text>
</g>
<!-- ExpMem4&#45;&gt;ExpBinary4 -->
<g id="edge22" class="edge"><title>ExpMem4&#45;&gt;ExpBinary4</title>
<path fill="none" stroke="black" d="M1841.7,-215.697C1841.7,-207.983 1841.7,-198.712 1841.7,-190.112"/>
<polygon fill="black" stroke="black" points="1845.2,-190.104 1841.7,-180.104 1838.2,-190.104 1845.2,-190.104"/>
</g>
<!-- ExpTemp4 -->
<g id="node63" class="node"><title>ExpTemp4</title>
<ellipse fill="none" stroke="black" cx="1742.7" cy="-90" rx="50.0912" ry="18"/>
<text text-anchor="middle" x="1742.7" y="-86.3" font-family="Times,serif" font-size="14.00">ExpTemp4</text>
</g>
<!-- ExpBinary4&#45;&gt;ExpTemp4 -->
<g id="edge55" class="edge"><title>ExpBinary4&#45;&gt;ExpTemp4</title>
<path fill="none" stroke="black" d="M1819.72,-145.465C1805.91,-135.7 1787.91,-122.972 1772.79,-112.276"/>
<polygon fill="black" stroke="black" points="1774.45,-109.167 1764.26,-106.251 1770.41,-114.882 1774.45,-109.167"/>
</g>
<!-- Plus4 -->
<g id="node64" class="node"><title>Plus4</title>
<ellipse fill="none" stroke="black" cx="1841.7" cy="-90" rx="30.5947" ry="18"/>
<text text-anchor="middle" x="1841.7" y="-86.3" font-family="Times,serif" font-size="14.00">Plus4</text>
</g>
<!-- ExpBinary4&#45;&gt;Plus4 -->
<g id="edge56" class="edge"><title>ExpBinary4&#45;&gt;Plus4</title>
<path fill="none" stroke="black" d="M1841.7,-143.697C1841.7,-135.983 1841.7,-126.712 1841.7,-118.112"/>
<polygon fill="black" stroke="black" points="1845.2,-118.104 1841.7,-108.104 1838.2,-118.104 1845.2,-118.104"/>
</g>
<!-- ExpCall9 -->
<g id="node65" class="node"><title>ExpCall9</title>
<ellipse fill="none" stroke="black" cx="1934.7" cy="-90" rx="44.393" ry="18"/>
<text text-anchor="middle" x="1934.7" y="-86.3" font-family="Times,serif" font-size="14.00">ExpCall9</text>
</g>
<!-- ExpBinary4&#45;&gt;ExpCall9 -->
<g id="edge57" class="edge"><title>ExpBinary4&#45;&gt;ExpCall9</title>
<path fill="none" stroke="black" d="M1862.8,-145.116C1875.67,-135.429 1892.28,-122.923 1906.3,-112.374"/>
<polygon fill="black" stroke="black" points="1908.75,-114.912 1914.63,-106.101 1904.54,-109.319 1908.75,-114.912"/>
</g>
<!-- ExpName4 -->
<g id="node34" class="node"><title>ExpName4</title>
<ellipse fill="none" stroke="black" cx="2019.7" cy="-162" rx="50.8918" ry="18"/>
<text text-anchor="middle" x="2019.7" y="-158.3" font-family="Times,serif" font-size="14.00">ExpName4</text>
</g>
<!-- Label5: BBS::Print -->
<g id="node35" class="node"><title>Label5: BBS::Print</title>
<ellipse fill="none" stroke="black" cx="2075.7" cy="-90" rx="78.7863" ry="18"/>
<text text-anchor="middle" x="2075.7" y="-86.3" font-family="Times,serif" font-size="14.00">Label5: BBS::Print</text>
</g>
<!-- ExpName4&#45;&gt;Label5: BBS::Print -->
<g id="edge23" class="edge"><title>ExpName4&#45;&gt;Label5: BBS::Print</title>
<path fill="none" stroke="black" d="M2032.97,-144.411C2039.77,-135.906 2048.2,-125.372 2055.76,-115.914"/>
<polygon fill="black" stroke="black" points="2058.62,-117.951 2062.13,-107.956 2053.15,-113.578 2058.62,-117.951"/>
</g>
<!-- ExpMem0&#45;&gt;ExpBinary0 -->
<g id="edge50" class="edge"><title>ExpMem0&#45;&gt;ExpBinary0</title>
<path fill="none" stroke="black" d="M259.315,-433.116C248.621,-423.874 234.957,-412.066 223.124,-401.84"/>
<polygon fill="black" stroke="black" points="225.138,-398.954 215.283,-395.064 220.561,-404.25 225.138,-398.954"/>
</g>
<!-- ExpList0 -->
<g id="node38" class="node"><title>ExpList0</title>
<ellipse fill="none" stroke="black" cx="511.696" cy="-378" rx="42.7926" ry="18"/>
<text text-anchor="middle" x="511.696" y="-374.3" font-family="Times,serif" font-size="14.00">ExpList0</text>
</g>
<!-- ExpCall1&#45;&gt;ExpList0 -->
<g id="edge28" class="edge"><title>ExpCall1&#45;&gt;ExpList0</title>
<path fill="none" stroke="black" d="M480.412,-432.411C485.243,-424.163 491.19,-414.009 496.598,-404.777"/>
<polygon fill="black" stroke="black" points="499.73,-406.354 501.764,-395.956 493.69,-402.816 499.73,-406.354"/>
</g>
<!-- ExpName0 -->
<g id="node39" class="node"><title>ExpName0</title>
<ellipse fill="none" stroke="black" cx="385.696" cy="-378" rx="50.8918" ry="18"/>
<text text-anchor="middle" x="385.696" y="-374.3" font-family="Times,serif" font-size="14.00">ExpName0</text>
</g>
<!-- ExpCall1&#45;&gt;ExpName0 -->
<g id="edge27" class="edge"><title>ExpCall1&#45;&gt;ExpName0</title>
<path fill="none" stroke="black" d="M451.831,-433.465C440.357,-424.015 425.512,-411.79 412.794,-401.316"/>
<polygon fill="black" stroke="black" points="414.745,-398.389 404.801,-394.734 410.295,-403.793 414.745,-398.389"/>
</g>
<!-- ExpList0&#45;&gt;ExpMem1 -->
<g id="edge26" class="edge"><title>ExpList0&#45;&gt;ExpMem1</title>
<path fill="none" stroke="black" d="M513.426,-359.697C514.197,-351.983 515.124,-342.712 515.984,-334.112"/>
<polygon fill="black" stroke="black" points="519.473,-334.403 516.985,-324.104 512.507,-333.706 519.473,-334.403"/>
</g>
<!-- Label1: BBS::Init -->
<g id="node60" class="node"><title>Label1: BBS::Init</title>
<ellipse fill="none" stroke="black" cx="378.696" cy="-306" rx="73.387" ry="18"/>
<text text-anchor="middle" x="378.696" y="-302.3" font-family="Times,serif" font-size="14.00">Label1: BBS::Init</text>
</g>
<!-- ExpName0&#45;&gt;Label1: BBS::Init -->
<g id="edge51" class="edge"><title>ExpName0&#45;&gt;Label1: BBS::Init</title>
<path fill="none" stroke="black" d="M383.965,-359.697C383.194,-351.983 382.267,-342.712 381.407,-334.112"/>
<polygon fill="black" stroke="black" points="384.884,-333.706 380.406,-324.104 377.918,-334.403 384.884,-333.706"/>
</g>
<!-- ExpBinary2&#45;&gt;ExpTemp2 -->
<g id="edge41" class="edge"><title>ExpBinary2&#45;&gt;ExpTemp2</title>
<path fill="none" stroke="black" d="M720.15,-290.834C697.641,-280.042 666.466,-265.095 642.035,-253.382"/>
<polygon fill="black" stroke="black" points="643.229,-250.073 632.699,-248.906 640.203,-256.385 643.229,-250.073"/>
</g>
<!-- Plus2 -->
<g id="node53" class="node"><title>Plus2</title>
<ellipse fill="none" stroke="black" cx="702.696" cy="-234" rx="30.5947" ry="18"/>
<text text-anchor="middle" x="702.696" y="-230.3" font-family="Times,serif" font-size="14.00">Plus2</text>
</g>
<!-- ExpBinary2&#45;&gt;Plus2 -->
<g id="edge42" class="edge"><title>ExpBinary2&#45;&gt;Plus2</title>
<path fill="none" stroke="black" d="M738.318,-288.055C732.636,-279.592 725.651,-269.19 719.377,-259.845"/>
<polygon fill="black" stroke="black" points="722.125,-257.658 713.644,-251.307 716.313,-261.56 722.125,-257.658"/>
</g>
<!-- ExpCall3 -->
<g id="node54" class="node"><title>ExpCall3</title>
<ellipse fill="none" stroke="black" cx="795.696" cy="-234" rx="44.393" ry="18"/>
<text text-anchor="middle" x="795.696" y="-230.3" font-family="Times,serif" font-size="14.00">ExpCall3</text>
</g>
<!-- ExpBinary2&#45;&gt;ExpCall3 -->
<g id="edge43" class="edge"><title>ExpBinary2&#45;&gt;ExpCall3</title>
<path fill="none" stroke="black" d="M760.831,-288.055C766.312,-279.715 773.03,-269.491 779.102,-260.252"/>
<polygon fill="black" stroke="black" points="782.096,-262.068 784.663,-251.789 776.246,-258.224 782.096,-262.068"/>
</g>
<!-- StatSeq4&#45;&gt;StatSeq5 -->
<g id="edge32" class="edge"><title>StatSeq4&#45;&gt;StatSeq5</title>
<path fill="none" stroke="black" d="M1095.73,-437.676C1102.26,-435.569 1109.16,-433.548 1115.7,-432 1227.2,-405.61 1361.02,-390.334 1432.58,-383.449"/>
<polygon fill="black" stroke="black" points="1433.05,-386.92 1442.68,-382.493 1432.4,-379.951 1433.05,-386.92"/>
</g>
<!-- StatExp0 -->
<g id="node43" class="node"><title>StatExp0</title>
<ellipse fill="none" stroke="black" cx="1091.7" cy="-378" rx="42.7926" ry="18"/>
<text text-anchor="middle" x="1091.7" y="-374.3" font-family="Times,serif" font-size="14.00">StatExp0</text>
</g>
<!-- StatSeq4&#45;&gt;StatExp0 -->
<g id="edge31" class="edge"><title>StatSeq4&#45;&gt;StatExp0</title>
<path fill="none" stroke="black" d="M1071.23,-432.055C1074.27,-424.176 1077.96,-414.617 1081.36,-405.794"/>
<polygon fill="black" stroke="black" points="1084.7,-406.865 1085.03,-396.275 1078.17,-404.346 1084.7,-406.865"/>
</g>
<!-- StatExp0&#45;&gt;ExpCall5 -->
<g id="edge34" class="edge"><title>StatExp0&#45;&gt;ExpCall5</title>
<path fill="none" stroke="black" d="M1104.26,-360.411C1110.79,-351.781 1118.91,-341.062 1126.15,-331.497"/>
<polygon fill="black" stroke="black" points="1128.98,-333.555 1132.23,-323.47 1123.4,-329.33 1128.98,-333.555"/>
</g>
<!-- StatSeq0 -->
<g id="node45" class="node"><title>StatSeq0</title>
<ellipse fill="none" stroke="black" cx="986.696" cy="-738" rx="42.4939" ry="18"/>
<text text-anchor="middle" x="986.696" y="-734.3" font-family="Times,serif" font-size="14.00">StatSeq0</text>
</g>
<!-- StatLabel0 -->
<g id="node46" class="node"><title>StatLabel0</title>
<ellipse fill="none" stroke="black" cx="925.696" cy="-666" rx="48.9926" ry="18"/>
<text text-anchor="middle" x="925.696" y="-662.3" font-family="Times,serif" font-size="14.00">StatLabel0</text>
</g>
<!-- StatSeq0&#45;&gt;StatLabel0 -->
<g id="edge35" class="edge"><title>StatSeq0&#45;&gt;StatLabel0</title>
<path fill="none" stroke="black" d="M972.548,-720.765C964.959,-712.056 955.452,-701.147 946.989,-691.435"/>
<polygon fill="black" stroke="black" points="949.399,-688.873 940.19,-683.633 944.121,-693.472 949.399,-688.873"/>
</g>
<!-- StatSeq1 -->
<g id="node47" class="node"><title>StatSeq1</title>
<ellipse fill="none" stroke="black" cx="1048.7" cy="-666" rx="42.4939" ry="18"/>
<text text-anchor="middle" x="1048.7" y="-662.3" font-family="Times,serif" font-size="14.00">StatSeq1</text>
</g>
<!-- StatSeq0&#45;&gt;StatSeq1 -->
<g id="edge36" class="edge"><title>StatSeq0&#45;&gt;StatSeq1</title>
<path fill="none" stroke="black" d="M1001.08,-720.765C1008.98,-711.841 1018.93,-700.608 1027.69,-690.719"/>
<polygon fill="black" stroke="black" points="1030.38,-692.954 1034.39,-683.147 1025.14,-688.313 1030.38,-692.954"/>
</g>
<!-- Label0: BBS::Start -->
<g id="node52" class="node"><title>Label0: BBS::Start</title>
<ellipse fill="none" stroke="black" cx="910.696" cy="-594" rx="77.9862" ry="18"/>
<text text-anchor="middle" x="910.696" y="-590.3" font-family="Times,serif" font-size="14.00">Label0: BBS::Start</text>
</g>
<!-- StatLabel0&#45;&gt;Label0: BBS::Start -->
<g id="edge40" class="edge"><title>StatLabel0&#45;&gt;Label0: BBS::Start</title>
<path fill="none" stroke="black" d="M921.988,-647.697C920.335,-639.983 918.348,-630.712 916.505,-622.112"/>
<polygon fill="black" stroke="black" points="919.878,-621.149 914.361,-612.104 913.034,-622.616 919.878,-621.149"/>
</g>
<!-- StatSeq1&#45;&gt;StatMove4 -->
<g id="edge74" class="edge"><title>StatSeq1&#45;&gt;StatMove4</title>
<path fill="none" stroke="black" d="M1075.4,-651.834C1097.35,-641.017 1128.68,-625.569 1153.15,-613.508"/>
<polygon fill="black" stroke="black" points="1154.74,-616.629 1162.16,-609.068 1151.64,-610.35 1154.74,-616.629"/>
</g>
<!-- StatSeq1&#45;&gt;StatSeq2 -->
<g id="edge73" class="edge"><title>StatSeq1&#45;&gt;StatSeq2</title>
<path fill="none" stroke="black" d="M1048.7,-647.697C1048.7,-639.983 1048.7,-630.712 1048.7,-622.112"/>
<polygon fill="black" stroke="black" points="1052.2,-622.104 1048.7,-612.104 1045.2,-622.104 1052.2,-622.104"/>
</g>
<!-- Temp1: FP -->
<g id="node49" class="node"><title>Temp1: FP</title>
<ellipse fill="none" stroke="black" cx="335.696" cy="-90" rx="50.8918" ry="18"/>
<text text-anchor="middle" x="335.696" y="-86.3" font-family="Times,serif" font-size="14.00">Temp1: FP</text>
</g>
<!-- ExpTemp1&#45;&gt;Temp1: FP -->
<g id="edge37" class="edge"><title>ExpTemp1&#45;&gt;Temp1: FP</title>
<path fill="none" stroke="black" d="M335.696,-143.697C335.696,-135.983 335.696,-126.712 335.696,-118.112"/>
<polygon fill="black" stroke="black" points="339.196,-118.104 335.696,-108.104 332.196,-118.104 339.196,-118.104"/>
</g>
<!-- Value2: 12 -->
<g id="node55" class="node"><title>Value2: 12</title>
<ellipse fill="none" stroke="black" cx="795.696" cy="-162" rx="50.0912" ry="18"/>
<text text-anchor="middle" x="795.696" y="-158.3" font-family="Times,serif" font-size="14.00">Value2: 12</text>
</g>
<!-- ExpCall3&#45;&gt;Value2: 12 -->
<g id="edge44" class="edge"><title>ExpCall3&#45;&gt;Value2: 12</title>
<path fill="none" stroke="black" d="M795.696,-215.697C795.696,-207.983 795.696,-198.712 795.696,-190.112"/>
<polygon fill="black" stroke="black" points="799.196,-190.104 795.696,-180.104 792.196,-190.104 799.196,-190.104"/>
</g>
<!-- ExpName3 -->
<g id="node58" class="node"><title>ExpName3</title>
<ellipse fill="none" stroke="black" cx="1544.7" cy="-162" rx="50.8918" ry="18"/>
<text text-anchor="middle" x="1544.7" y="-158.3" font-family="Times,serif" font-size="14.00">ExpName3</text>
</g>
<!-- ExpCall8&#45;&gt;ExpName3 -->
<g id="edge48" class="edge"><title>ExpCall8&#45;&gt;ExpName3</title>
<path fill="none" stroke="black" d="M1544.7,-215.697C1544.7,-207.983 1544.7,-198.712 1544.7,-190.112"/>
<polygon fill="black" stroke="black" points="1548.2,-190.104 1544.7,-180.104 1541.2,-190.104 1548.2,-190.104"/>
</g>
<!-- ExpList3 -->
<g id="node59" class="node"><title>ExpList3</title>
<ellipse fill="none" stroke="black" cx="1656.7" cy="-162" rx="42.7926" ry="18"/>
<text text-anchor="middle" x="1656.7" y="-158.3" font-family="Times,serif" font-size="14.00">ExpList3</text>
</g>
<!-- ExpCall8&#45;&gt;ExpList3 -->
<g id="edge49" class="edge"><title>ExpCall8&#45;&gt;ExpList3</title>
<path fill="none" stroke="black" d="M1567.9,-218.496C1584.42,-208.172 1606.82,-194.174 1624.98,-182.819"/>
<polygon fill="black" stroke="black" points="1626.89,-185.753 1633.52,-177.485 1623.18,-179.818 1626.89,-185.753"/>
</g>
<!-- Label4: BBS::Sort -->
<g id="node74" class="node"><title>Label4: BBS::Sort</title>
<ellipse fill="none" stroke="black" cx="1598.7" cy="-90" rx="76.0865" ry="18"/>
<text text-anchor="middle" x="1598.7" y="-86.3" font-family="Times,serif" font-size="14.00">Label4: BBS::Sort</text>
</g>
<!-- ExpName3&#45;&gt;Label4: BBS::Sort -->
<g id="edge69" class="edge"><title>ExpName3&#45;&gt;Label4: BBS::Sort</title>
<path fill="none" stroke="black" d="M1557.49,-144.411C1564.05,-135.906 1572.18,-125.372 1579.48,-115.914"/>
<polygon fill="black" stroke="black" points="1582.28,-118.012 1585.61,-107.956 1576.74,-113.736 1582.28,-118.012"/>
</g>
<!-- Value3: 99999 -->
<g id="node62" class="node"><title>Value3: 99999</title>
<ellipse fill="none" stroke="black" cx="1137.7" cy="-90" rx="63.0888" ry="18"/>
<text text-anchor="middle" x="1137.7" y="-86.3" font-family="Times,serif" font-size="14.00">Value3: 99999</text>
</g>
<!-- ExpCall6&#45;&gt;Value3: 99999 -->
<g id="edge54" class="edge"><title>ExpCall6&#45;&gt;Value3: 99999</title>
<path fill="none" stroke="black" d="M1182.24,-144.765C1175.03,-136.056 1165.99,-125.147 1157.94,-115.435"/>
<polygon fill="black" stroke="black" points="1160.55,-113.101 1151.48,-107.633 1155.16,-117.567 1160.55,-113.101"/>
</g>
<!-- Temp4: FP -->
<g id="node75" class="node"><title>Temp4: FP</title>
<ellipse fill="none" stroke="black" cx="1742.7" cy="-18" rx="50.8918" ry="18"/>
<text text-anchor="middle" x="1742.7" y="-14.3" font-family="Times,serif" font-size="14.00">Temp4: FP</text>
</g>
<!-- ExpTemp4&#45;&gt;Temp4: FP -->
<g id="edge70" class="edge"><title>ExpTemp4&#45;&gt;Temp4: FP</title>
<path fill="none" stroke="black" d="M1742.7,-71.6966C1742.7,-63.9827 1742.7,-54.7125 1742.7,-46.1124"/>
<polygon fill="black" stroke="black" points="1746.2,-46.1043 1742.7,-36.1043 1739.2,-46.1044 1746.2,-46.1043"/>
</g>
<!-- Value5: 12 -->
<g id="node73" class="node"><title>Value5: 12</title>
<ellipse fill="none" stroke="black" cx="1934.7" cy="-18" rx="50.0912" ry="18"/>
<text text-anchor="middle" x="1934.7" y="-14.3" font-family="Times,serif" font-size="14.00">Value5: 12</text>
</g>
<!-- ExpCall9&#45;&gt;Value5: 12 -->
<g id="edge66" class="edge"><title>ExpCall9&#45;&gt;Value5: 12</title>
<path fill="none" stroke="black" d="M1934.7,-71.6966C1934.7,-63.9827 1934.7,-54.7125 1934.7,-46.1124"/>
<polygon fill="black" stroke="black" points="1938.2,-46.1043 1934.7,-36.1043 1931.2,-46.1044 1938.2,-46.1043"/>
</g>
<!-- ExpTemp3 -->
<g id="node66" class="node"><title>ExpTemp3</title>
<ellipse fill="none" stroke="black" cx="1268.7" cy="-90" rx="50.0912" ry="18"/>
<text text-anchor="middle" x="1268.7" y="-86.3" font-family="Times,serif" font-size="14.00">ExpTemp3</text>
</g>
<!-- Temp3: FP -->
<g id="node67" class="node"><title>Temp3: FP</title>
<ellipse fill="none" stroke="black" cx="1268.7" cy="-18" rx="50.8918" ry="18"/>
<text text-anchor="middle" x="1268.7" y="-14.3" font-family="Times,serif" font-size="14.00">Temp3: FP</text>
</g>
<!-- ExpTemp3&#45;&gt;Temp3: FP -->
<g id="edge59" class="edge"><title>ExpTemp3&#45;&gt;Temp3: FP</title>
<path fill="none" stroke="black" d="M1268.7,-71.6966C1268.7,-63.9827 1268.7,-54.7125 1268.7,-46.1124"/>
<polygon fill="black" stroke="black" points="1272.2,-46.1043 1268.7,-36.1043 1265.2,-46.1044 1272.2,-46.1043"/>
</g>
<!-- ExpCall10&#45;&gt;ExpName4 -->
<g id="edge60" class="edge"><title>ExpCall10&#45;&gt;ExpName4</title>
<path fill="none" stroke="black" d="M2019.7,-215.697C2019.7,-207.983 2019.7,-198.712 2019.7,-190.112"/>
<polygon fill="black" stroke="black" points="2023.2,-190.104 2019.7,-180.104 2016.2,-190.104 2023.2,-190.104"/>
</g>
<!-- ExpList4 -->
<g id="node69" class="node"><title>ExpList4</title>
<ellipse fill="none" stroke="black" cx="2131.7" cy="-162" rx="42.7926" ry="18"/>
<text text-anchor="middle" x="2131.7" y="-158.3" font-family="Times,serif" font-size="14.00">ExpList4</text>
</g>
<!-- ExpCall10&#45;&gt;ExpList4 -->
<g id="edge61" class="edge"><title>ExpCall10&#45;&gt;ExpList4</title>
<path fill="none" stroke="black" d="M2043.45,-218.155C2059.85,-207.902 2081.86,-194.149 2099.79,-182.942"/>
<polygon fill="black" stroke="black" points="2102.12,-185.613 2108.74,-177.345 2098.41,-179.677 2102.12,-185.613"/>
</g>
<!-- ExpBinary3 -->
<g id="node70" class="node"><title>ExpBinary3</title>
<ellipse fill="none" stroke="black" cx="1414.7" cy="-162" rx="53.0913" ry="18"/>
<text text-anchor="middle" x="1414.7" y="-158.3" font-family="Times,serif" font-size="14.00">ExpBinary3</text>
</g>
<!-- ExpBinary3&#45;&gt;ExpCall7 -->
<g id="edge64" class="edge"><title>ExpBinary3&#45;&gt;ExpCall7</title>
<path fill="none" stroke="black" d="M1425.83,-144.055C1431.31,-135.715 1438.03,-125.491 1444.1,-116.252"/>
<polygon fill="black" stroke="black" points="1447.1,-118.068 1449.66,-107.789 1441.25,-114.224 1447.1,-118.068"/>
</g>
<!-- ExpBinary3&#45;&gt;ExpTemp3 -->
<g id="edge62" class="edge"><title>ExpBinary3&#45;&gt;ExpTemp3</title>
<path fill="none" stroke="black" d="M1385.15,-146.834C1362.64,-136.042 1331.47,-121.095 1307.04,-109.382"/>
<polygon fill="black" stroke="black" points="1308.23,-106.073 1297.7,-104.906 1305.2,-112.385 1308.23,-106.073"/>
</g>
<!-- Plus3 -->
<g id="node71" class="node"><title>Plus3</title>
<ellipse fill="none" stroke="black" cx="1367.7" cy="-90" rx="30.5947" ry="18"/>
<text text-anchor="middle" x="1367.7" y="-86.3" font-family="Times,serif" font-size="14.00">Plus3</text>
</g>
<!-- ExpBinary3&#45;&gt;Plus3 -->
<g id="edge63" class="edge"><title>ExpBinary3&#45;&gt;Plus3</title>
<path fill="none" stroke="black" d="M1403.32,-144.055C1397.64,-135.592 1390.65,-125.19 1384.38,-115.845"/>
<polygon fill="black" stroke="black" points="1387.12,-113.658 1378.64,-107.307 1381.31,-117.56 1387.12,-113.658"/>
</g>
<!-- ExpMem3&#45;&gt;ExpBinary3 -->
<g id="edge65" class="edge"><title>ExpMem3&#45;&gt;ExpBinary3</title>
<path fill="none" stroke="black" d="M1425.23,-215.697C1423.69,-207.983 1421.84,-198.712 1420.12,-190.112"/>
<polygon fill="black" stroke="black" points="1423.51,-189.224 1418.12,-180.104 1416.65,-190.597 1423.51,-189.224"/>
</g>
</g>
</svg>
