<?xml version="1.0" encoding="UTF-8" standalone="no"?>
<!DOCTYPE svg PUBLIC "-//W3C//DTD SVG 1.1//EN"
 "http://www.w3.org/Graphics/SVG/1.1/DTD/svg11.dtd">
<!-- Generated by graphviz version 2.38.0 (20140413.2041)
 -->
<!-- Title: %3 Pages: 1 -->
<svg width="2196pt" height="764pt"
 viewBox="0.00 0.00 2195.54 764.00" xmlns="http://www.w3.org/2000/svg" xmlns:xlink="http://www.w3.org/1999/xlink">
<g id="graph0" class="graph" transform="scale(1 1) rotate(0) translate(4 760)">
<title>%3</title>
<polygon fill="white" stroke="none" points="-4,4 -4,-760 2191.54,-760 2191.54,4 -4,4"/>
<!-- StatMove4 -->
<g id="node1" class="node"><title>StatMove4</title>
<ellipse fill="none" stroke="black" cx="1165.65" cy="-594" rx="50.0912" ry="18"/>
<text text-anchor="middle" x="1165.65" y="-590.3" font-family="Times,serif" font-size="14.00">StatMove4</text>
</g>
<!-- ExpTemp5 -->
<g id="node2" class="node"><title>ExpTemp5</title>
<ellipse fill="none" stroke="black" cx="1165.65" cy="-522" rx="50.0912" ry="18"/>
<text text-anchor="middle" x="1165.65" y="-518.3" font-family="Times,serif" font-size="14.00">ExpTemp5</text>
</g>
<!-- StatMove4&#45;&gt;ExpTemp5 -->
<g id="edge1" class="edge"><title>StatMove4&#45;&gt;ExpTemp5</title>
<path fill="none" stroke="black" d="M1165.65,-575.697C1165.65,-567.983 1165.65,-558.712 1165.65,-550.112"/>
<polygon fill="black" stroke="black" points="1169.15,-550.104 1165.65,-540.104 1162.15,-550.104 1169.15,-550.104"/>
</g>
<!-- ExpConst6 -->
<g id="node3" class="node"><title>ExpConst6</title>
<ellipse fill="none" stroke="black" cx="1283.65" cy="-522" rx="50.0912" ry="18"/>
<text text-anchor="middle" x="1283.65" y="-518.3" font-family="Times,serif" font-size="14.00">ExpConst6</text>
</g>
<!-- StatMove4&#45;&gt;ExpConst6 -->
<g id="edge2" class="edge"><title>StatMove4&#45;&gt;ExpConst6</title>
<path fill="none" stroke="black" d="M1190.38,-578.326C1207.77,-568.012 1231.23,-554.095 1250.27,-542.8"/>
<polygon fill="black" stroke="black" points="1252.13,-545.767 1258.94,-537.655 1248.55,-539.747 1252.13,-545.767"/>
</g>
<!-- Temp5: $rv -->
<g id="node44" class="node"><title>Temp5: $rv</title>
<ellipse fill="none" stroke="black" cx="1166.65" cy="-450" rx="52.7911" ry="18"/>
<text text-anchor="middle" x="1166.65" y="-446.3" font-family="Times,serif" font-size="14.00">Temp5: $rv</text>
</g>
<!-- ExpTemp5&#45;&gt;Temp5: $rv -->
<g id="edge34" class="edge"><title>ExpTemp5&#45;&gt;Temp5: $rv</title>
<path fill="none" stroke="black" d="M1165.89,-503.697C1166,-495.983 1166.14,-486.712 1166.26,-478.112"/>
<polygon fill="black" stroke="black" points="1169.76,-478.153 1166.4,-468.104 1162.76,-478.053 1169.76,-478.153"/>
</g>
<!-- Value6: 0 -->
<g id="node45" class="node"><title>Value6: 0</title>
<ellipse fill="none" stroke="black" cx="1283.65" cy="-450" rx="45.4919" ry="18"/>
<text text-anchor="middle" x="1283.65" y="-446.3" font-family="Times,serif" font-size="14.00">Value6: 0</text>
</g>
<!-- ExpConst6&#45;&gt;Value6: 0 -->
<g id="edge35" class="edge"><title>ExpConst6&#45;&gt;Value6: 0</title>
<path fill="none" stroke="black" d="M1283.65,-503.697C1283.65,-495.983 1283.65,-486.712 1283.65,-478.112"/>
<polygon fill="black" stroke="black" points="1287.15,-478.104 1283.65,-468.104 1280.15,-478.104 1287.15,-478.104"/>
</g>
<!-- ExpCall2 -->
<g id="node4" class="node"><title>ExpCall2</title>
<ellipse fill="none" stroke="black" cx="1133.65" cy="-306" rx="44.393" ry="18"/>
<text text-anchor="middle" x="1133.65" y="-302.3" font-family="Times,serif" font-size="14.00">ExpCall2</text>
</g>
<!-- ExpName2 -->
<g id="node5" class="node"><title>ExpName2</title>
<ellipse fill="none" stroke="black" cx="1075.65" cy="-234" rx="50.8918" ry="18"/>
<text text-anchor="middle" x="1075.65" y="-230.3" font-family="Times,serif" font-size="14.00">ExpName2</text>
</g>
<!-- ExpCall2&#45;&gt;ExpName2 -->
<g id="edge3" class="edge"><title>ExpCall2&#45;&gt;ExpName2</title>
<path fill="none" stroke="black" d="M1120.19,-288.765C1112.98,-280.056 1103.94,-269.147 1095.89,-259.435"/>
<polygon fill="black" stroke="black" points="1098.5,-257.101 1089.43,-251.633 1093.11,-261.567 1098.5,-257.101"/>
</g>
<!-- ExpList2 -->
<g id="node6" class="node"><title>ExpList2</title>
<ellipse fill="none" stroke="black" cx="1187.65" cy="-234" rx="42.7926" ry="18"/>
<text text-anchor="middle" x="1187.65" y="-230.3" font-family="Times,serif" font-size="14.00">ExpList2</text>
</g>
<!-- ExpCall2&#45;&gt;ExpList2 -->
<g id="edge4" class="edge"><title>ExpCall2&#45;&gt;ExpList2</title>
<path fill="none" stroke="black" d="M1146.44,-288.411C1153.1,-279.781 1161.37,-269.062 1168.75,-259.497"/>
<polygon fill="black" stroke="black" points="1171.6,-261.526 1174.94,-251.47 1166.06,-257.25 1171.6,-261.526"/>
</g>
<!-- Label3: print -->
<g id="node43" class="node"><title>Label3: print</title>
<ellipse fill="none" stroke="black" cx="1062.65" cy="-162" rx="56.59" ry="18"/>
<text text-anchor="middle" x="1062.65" y="-158.3" font-family="Times,serif" font-size="14.00">Label3: print</text>
</g>
<!-- ExpName2&#45;&gt;Label3: print -->
<g id="edge33" class="edge"><title>ExpName2&#45;&gt;Label3: print</title>
<path fill="none" stroke="black" d="M1072.43,-215.697C1071,-207.983 1069.28,-198.712 1067.68,-190.112"/>
<polygon fill="black" stroke="black" points="1071.09,-189.297 1065.82,-180.104 1064.21,-190.575 1071.09,-189.297"/>
</g>
<!-- ExpConst3 -->
<g id="node56" class="node"><title>ExpConst3</title>
<ellipse fill="none" stroke="black" cx="1187.65" cy="-162" rx="50.0912" ry="18"/>
<text text-anchor="middle" x="1187.65" y="-158.3" font-family="Times,serif" font-size="14.00">ExpConst3</text>
</g>
<!-- ExpList2&#45;&gt;ExpConst3 -->
<g id="edge51" class="edge"><title>ExpList2&#45;&gt;ExpConst3</title>
<path fill="none" stroke="black" d="M1187.65,-215.697C1187.65,-207.983 1187.65,-198.712 1187.65,-190.112"/>
<polygon fill="black" stroke="black" points="1191.15,-190.104 1187.65,-180.104 1184.15,-190.104 1191.15,-190.104"/>
</g>
<!-- ExpTemp2 -->
<g id="node7" class="node"><title>ExpTemp2</title>
<ellipse fill="none" stroke="black" cx="583.645" cy="-234" rx="50.0912" ry="18"/>
<text text-anchor="middle" x="583.645" y="-230.3" font-family="Times,serif" font-size="14.00">ExpTemp2</text>
</g>
<!-- Temp2: $fp -->
<g id="node8" class="node"><title>Temp2: $fp</title>
<ellipse fill="none" stroke="black" cx="622.645" cy="-162" rx="52.7911" ry="18"/>
<text text-anchor="middle" x="622.645" y="-158.3" font-family="Times,serif" font-size="14.00">Temp2: $fp</text>
</g>
<!-- ExpTemp2&#45;&gt;Temp2: $fp -->
<g id="edge5" class="edge"><title>ExpTemp2&#45;&gt;Temp2: $fp</title>
<path fill="none" stroke="black" d="M593.086,-216.055C597.685,-207.801 603.312,-197.701 608.417,-188.538"/>
<polygon fill="black" stroke="black" points="611.482,-190.228 613.291,-179.789 605.367,-186.821 611.482,-190.228"/>
</g>
<!-- StatSeq2 -->
<g id="node9" class="node"><title>StatSeq2</title>
<ellipse fill="none" stroke="black" cx="1037.65" cy="-594" rx="42.4939" ry="18"/>
<text text-anchor="middle" x="1037.65" y="-590.3" font-family="Times,serif" font-size="14.00">StatSeq2</text>
</g>
<!-- StatMove0 -->
<g id="node10" class="node"><title>StatMove0</title>
<ellipse fill="none" stroke="black" cx="482.645" cy="-522" rx="50.0912" ry="18"/>
<text text-anchor="middle" x="482.645" y="-518.3" font-family="Times,serif" font-size="14.00">StatMove0</text>
</g>
<!-- StatSeq2&#45;&gt;StatMove0 -->
<g id="edge6" class="edge"><title>StatSeq2&#45;&gt;StatMove0</title>
<path fill="none" stroke="black" d="M1006.93,-581.569C1000.31,-579.444 993.304,-577.442 986.645,-576 828.387,-541.728 637.188,-529.341 542.207,-525.085"/>
<polygon fill="black" stroke="black" points="542.356,-521.588 532.214,-524.652 542.053,-528.582 542.356,-521.588"/>
</g>
<!-- StatSeq3 -->
<g id="node11" class="node"><title>StatSeq3</title>
<ellipse fill="none" stroke="black" cx="1037.65" cy="-522" rx="42.4939" ry="18"/>
<text text-anchor="middle" x="1037.65" y="-518.3" font-family="Times,serif" font-size="14.00">StatSeq3</text>
</g>
<!-- StatSeq2&#45;&gt;StatSeq3 -->
<g id="edge7" class="edge"><title>StatSeq2&#45;&gt;StatSeq3</title>
<path fill="none" stroke="black" d="M1037.65,-575.697C1037.65,-567.983 1037.65,-558.712 1037.65,-550.112"/>
<polygon fill="black" stroke="black" points="1041.15,-550.104 1037.65,-540.104 1034.15,-550.104 1041.15,-550.104"/>
</g>
<!-- ExpMem0 -->
<g id="node34" class="node"><title>ExpMem0</title>
<ellipse fill="none" stroke="black" cx="286.645" cy="-450" rx="48.9926" ry="18"/>
<text text-anchor="middle" x="286.645" y="-446.3" font-family="Times,serif" font-size="14.00">ExpMem0</text>
</g>
<!-- StatMove0&#45;&gt;ExpMem0 -->
<g id="edge24" class="edge"><title>StatMove0&#45;&gt;ExpMem0</title>
<path fill="none" stroke="black" d="M448.505,-508.807C415.622,-497.063 365.749,-479.251 330.059,-466.505"/>
<polygon fill="black" stroke="black" points="330.989,-463.121 320.395,-463.053 328.635,-469.713 330.989,-463.121"/>
</g>
<!-- ExpCall0 -->
<g id="node35" class="node"><title>ExpCall0</title>
<ellipse fill="none" stroke="black" cx="482.645" cy="-450" rx="44.393" ry="18"/>
<text text-anchor="middle" x="482.645" y="-446.3" font-family="Times,serif" font-size="14.00">ExpCall0</text>
</g>
<!-- StatMove0&#45;&gt;ExpCall0 -->
<g id="edge25" class="edge"><title>StatMove0&#45;&gt;ExpCall0</title>
<path fill="none" stroke="black" d="M482.645,-503.697C482.645,-495.983 482.645,-486.712 482.645,-478.112"/>
<polygon fill="black" stroke="black" points="486.145,-478.104 482.645,-468.104 479.145,-478.104 486.145,-478.104"/>
</g>
<!-- StatMove1 -->
<g id="node18" class="node"><title>StatMove1</title>
<ellipse fill="none" stroke="black" cx="929.645" cy="-450" rx="50.0912" ry="18"/>
<text text-anchor="middle" x="929.645" y="-446.3" font-family="Times,serif" font-size="14.00">StatMove1</text>
</g>
<!-- StatSeq3&#45;&gt;StatMove1 -->
<g id="edge48" class="edge"><title>StatSeq3&#45;&gt;StatMove1</title>
<path fill="none" stroke="black" d="M1015.27,-506.496C999.799,-496.47 978.986,-482.98 961.753,-471.811"/>
<polygon fill="black" stroke="black" points="963.41,-468.714 953.115,-466.212 959.603,-474.588 963.41,-468.714"/>
</g>
<!-- StatSeq4 -->
<g id="node38" class="node"><title>StatSeq4</title>
<ellipse fill="none" stroke="black" cx="1053.65" cy="-450" rx="42.4939" ry="18"/>
<text text-anchor="middle" x="1053.65" y="-446.3" font-family="Times,serif" font-size="14.00">StatSeq4</text>
</g>
<!-- StatSeq3&#45;&gt;StatSeq4 -->
<g id="edge49" class="edge"><title>StatSeq3&#45;&gt;StatSeq4</title>
<path fill="none" stroke="black" d="M1041.52,-504.055C1043.3,-496.261 1045.46,-486.822 1047.46,-478.079"/>
<polygon fill="black" stroke="black" points="1050.88,-478.804 1049.7,-468.275 1044.06,-477.244 1050.88,-478.804"/>
</g>
<!-- ExpCall1 -->
<g id="node12" class="node"><title>ExpCall1</title>
<ellipse fill="none" stroke="black" cx="929.645" cy="-378" rx="44.393" ry="18"/>
<text text-anchor="middle" x="929.645" y="-374.3" font-family="Times,serif" font-size="14.00">ExpCall1</text>
</g>
<!-- ExpName1 -->
<g id="node13" class="node"><title>ExpName1</title>
<ellipse fill="none" stroke="black" cx="916.645" cy="-306" rx="50.8918" ry="18"/>
<text text-anchor="middle" x="916.645" y="-302.3" font-family="Times,serif" font-size="14.00">ExpName1</text>
</g>
<!-- ExpCall1&#45;&gt;ExpName1 -->
<g id="edge8" class="edge"><title>ExpCall1&#45;&gt;ExpName1</title>
<path fill="none" stroke="black" d="M926.432,-359.697C924.999,-351.983 923.278,-342.712 921.68,-334.112"/>
<polygon fill="black" stroke="black" points="925.089,-333.297 919.822,-324.104 918.207,-334.575 925.089,-333.297"/>
</g>
<!-- ExpList1 -->
<g id="node14" class="node"><title>ExpList1</title>
<ellipse fill="none" stroke="black" cx="1028.65" cy="-306" rx="42.7926" ry="18"/>
<text text-anchor="middle" x="1028.65" y="-302.3" font-family="Times,serif" font-size="14.00">ExpList1</text>
</g>
<!-- ExpCall1&#45;&gt;ExpList1 -->
<g id="edge9" class="edge"><title>ExpCall1&#45;&gt;ExpList1</title>
<path fill="none" stroke="black" d="M950.641,-362.155C964.816,-352.132 983.723,-338.763 999.372,-327.698"/>
<polygon fill="black" stroke="black" points="1001.54,-330.455 1007.68,-321.824 997.494,-324.739 1001.54,-330.455"/>
</g>
<!-- Label2: BBS::Print -->
<g id="node17" class="node"><title>Label2: BBS::Print</title>
<ellipse fill="none" stroke="black" cx="928.645" cy="-234" rx="78.7863" ry="18"/>
<text text-anchor="middle" x="928.645" y="-230.3" font-family="Times,serif" font-size="14.00">Label2: BBS::Print</text>
</g>
<!-- ExpName1&#45;&gt;Label2: BBS::Print -->
<g id="edge11" class="edge"><title>ExpName1&#45;&gt;Label2: BBS::Print</title>
<path fill="none" stroke="black" d="M919.612,-287.697C920.934,-279.983 922.523,-270.712 923.997,-262.112"/>
<polygon fill="black" stroke="black" points="927.473,-262.552 925.713,-252.104 920.574,-261.369 927.473,-262.552"/>
</g>
<!-- ExpList0 -->
<g id="node15" class="node"><title>ExpList0</title>
<ellipse fill="none" stroke="black" cx="524.645" cy="-378" rx="42.7926" ry="18"/>
<text text-anchor="middle" x="524.645" y="-374.3" font-family="Times,serif" font-size="14.00">ExpList0</text>
</g>
<!-- ExpMem1 -->
<g id="node16" class="node"><title>ExpMem1</title>
<ellipse fill="none" stroke="black" cx="531.645" cy="-306" rx="48.9926" ry="18"/>
<text text-anchor="middle" x="531.645" y="-302.3" font-family="Times,serif" font-size="14.00">ExpMem1</text>
</g>
<!-- ExpList0&#45;&gt;ExpMem1 -->
<g id="edge10" class="edge"><title>ExpList0&#45;&gt;ExpMem1</title>
<path fill="none" stroke="black" d="M526.376,-359.697C527.147,-351.983 528.074,-342.712 528.934,-334.112"/>
<polygon fill="black" stroke="black" points="532.422,-334.403 529.935,-324.104 525.457,-333.706 532.422,-334.403"/>
</g>
<!-- ExpBinary1 -->
<g id="node46" class="node"><title>ExpBinary1</title>
<ellipse fill="none" stroke="black" cx="451.645" cy="-234" rx="53.0913" ry="18"/>
<text text-anchor="middle" x="451.645" y="-230.3" font-family="Times,serif" font-size="14.00">ExpBinary1</text>
</g>
<!-- ExpMem1&#45;&gt;ExpBinary1 -->
<g id="edge36" class="edge"><title>ExpMem1&#45;&gt;ExpBinary1</title>
<path fill="none" stroke="black" d="M513.492,-289.116C502.929,-279.874 489.435,-268.066 477.748,-257.84"/>
<polygon fill="black" stroke="black" points="479.834,-255.015 470.004,-251.064 475.225,-260.283 479.834,-255.015"/>
</g>
<!-- StatMove1&#45;&gt;ExpCall1 -->
<g id="edge13" class="edge"><title>StatMove1&#45;&gt;ExpCall1</title>
<path fill="none" stroke="black" d="M929.645,-431.697C929.645,-423.983 929.645,-414.712 929.645,-406.112"/>
<polygon fill="black" stroke="black" points="933.145,-406.104 929.645,-396.104 926.145,-406.104 933.145,-406.104"/>
</g>
<!-- ExpMem2 -->
<g id="node19" class="node"><title>ExpMem2</title>
<ellipse fill="none" stroke="black" cx="756.645" cy="-378" rx="48.9926" ry="18"/>
<text text-anchor="middle" x="756.645" y="-374.3" font-family="Times,serif" font-size="14.00">ExpMem2</text>
</g>
<!-- StatMove1&#45;&gt;ExpMem2 -->
<g id="edge12" class="edge"><title>StatMove1&#45;&gt;ExpMem2</title>
<path fill="none" stroke="black" d="M897.511,-435.998C869.384,-424.617 828.359,-408.017 797.829,-395.664"/>
<polygon fill="black" stroke="black" points="798.898,-392.321 788.316,-391.815 796.273,-398.81 798.898,-392.321"/>
</g>
<!-- ExpBinary2 -->
<g id="node36" class="node"><title>ExpBinary2</title>
<ellipse fill="none" stroke="black" cx="732.645" cy="-306" rx="53.0913" ry="18"/>
<text text-anchor="middle" x="732.645" y="-302.3" font-family="Times,serif" font-size="14.00">ExpBinary2</text>
</g>
<!-- ExpMem2&#45;&gt;ExpBinary2 -->
<g id="edge26" class="edge"><title>ExpMem2&#45;&gt;ExpBinary2</title>
<path fill="none" stroke="black" d="M750.836,-360.055C748.134,-352.176 744.857,-342.617 741.832,-333.794"/>
<polygon fill="black" stroke="black" points="745.122,-332.6 738.568,-324.275 738.501,-334.87 745.122,-332.6"/>
</g>
<!-- StatSeq5 -->
<g id="node20" class="node"><title>StatSeq5</title>
<ellipse fill="none" stroke="black" cx="1525.65" cy="-378" rx="42.4939" ry="18"/>
<text text-anchor="middle" x="1525.65" y="-374.3" font-family="Times,serif" font-size="14.00">StatSeq5</text>
</g>
<!-- StatMove2 -->
<g id="node21" class="node"><title>StatMove2</title>
<ellipse fill="none" stroke="black" cx="1525.65" cy="-306" rx="50.0912" ry="18"/>
<text text-anchor="middle" x="1525.65" y="-302.3" font-family="Times,serif" font-size="14.00">StatMove2</text>
</g>
<!-- StatSeq5&#45;&gt;StatMove2 -->
<g id="edge14" class="edge"><title>StatSeq5&#45;&gt;StatMove2</title>
<path fill="none" stroke="black" d="M1525.65,-359.697C1525.65,-351.983 1525.65,-342.712 1525.65,-334.112"/>
<polygon fill="black" stroke="black" points="1529.15,-334.104 1525.65,-324.104 1522.15,-334.104 1529.15,-334.104"/>
</g>
<!-- StatMove3 -->
<g id="node22" class="node"><title>StatMove3</title>
<ellipse fill="none" stroke="black" cx="1848.65" cy="-306" rx="50.0912" ry="18"/>
<text text-anchor="middle" x="1848.65" y="-302.3" font-family="Times,serif" font-size="14.00">StatMove3</text>
</g>
<!-- StatSeq5&#45;&gt;StatMove3 -->
<g id="edge15" class="edge"><title>StatSeq5&#45;&gt;StatMove3</title>
<path fill="none" stroke="black" d="M1562.38,-369.038C1619.83,-356.589 1731.12,-332.471 1796.73,-318.251"/>
<polygon fill="black" stroke="black" points="1797.82,-321.596 1806.85,-316.057 1796.34,-314.755 1797.82,-321.596"/>
</g>
<!-- ExpCall3 -->
<g id="node47" class="node"><title>ExpCall3</title>
<ellipse fill="none" stroke="black" cx="1597.65" cy="-234" rx="44.393" ry="18"/>
<text text-anchor="middle" x="1597.65" y="-230.3" font-family="Times,serif" font-size="14.00">ExpCall3</text>
</g>
<!-- StatMove2&#45;&gt;ExpCall3 -->
<g id="edge66" class="edge"><title>StatMove2&#45;&gt;ExpCall3</title>
<path fill="none" stroke="black" d="M1542.34,-288.765C1551.7,-279.665 1563.54,-268.162 1573.85,-258.134"/>
<polygon fill="black" stroke="black" points="1576.31,-260.628 1581.04,-251.147 1571.43,-255.609 1576.31,-260.628"/>
</g>
<!-- ExpMem3 -->
<g id="node70" class="node"><title>ExpMem3</title>
<ellipse fill="none" stroke="black" cx="1470.65" cy="-234" rx="48.9926" ry="18"/>
<text text-anchor="middle" x="1470.65" y="-230.3" font-family="Times,serif" font-size="14.00">ExpMem3</text>
</g>
<!-- StatMove2&#45;&gt;ExpMem3 -->
<g id="edge65" class="edge"><title>StatMove2&#45;&gt;ExpMem3</title>
<path fill="none" stroke="black" d="M1512.61,-288.411C1505.83,-279.781 1497.41,-269.062 1489.89,-259.497"/>
<polygon fill="black" stroke="black" points="1492.52,-257.171 1483.59,-251.47 1487.01,-261.496 1492.52,-257.171"/>
</g>
<!-- ExpMem4 -->
<g id="node32" class="node"><title>ExpMem4</title>
<ellipse fill="none" stroke="black" cx="1848.65" cy="-234" rx="48.9926" ry="18"/>
<text text-anchor="middle" x="1848.65" y="-230.3" font-family="Times,serif" font-size="14.00">ExpMem4</text>
</g>
<!-- StatMove3&#45;&gt;ExpMem4 -->
<g id="edge73" class="edge"><title>StatMove3&#45;&gt;ExpMem4</title>
<path fill="none" stroke="black" d="M1848.65,-287.697C1848.65,-279.983 1848.65,-270.712 1848.65,-262.112"/>
<polygon fill="black" stroke="black" points="1852.15,-262.104 1848.65,-252.104 1845.15,-262.104 1852.15,-262.104"/>
</g>
<!-- ExpCall4 -->
<g id="node61" class="node"><title>ExpCall4</title>
<ellipse fill="none" stroke="black" cx="2032.65" cy="-234" rx="44.393" ry="18"/>
<text text-anchor="middle" x="2032.65" y="-230.3" font-family="Times,serif" font-size="14.00">ExpCall4</text>
</g>
<!-- StatMove3&#45;&gt;ExpCall4 -->
<g id="edge74" class="edge"><title>StatMove3&#45;&gt;ExpCall4</title>
<path fill="none" stroke="black" d="M1881.97,-292.324C1912.88,-280.562 1958.97,-263.028 1992.03,-250.451"/>
<polygon fill="black" stroke="black" points="1993.31,-253.709 2001.41,-246.882 1990.82,-247.166 1993.31,-253.709"/>
</g>
<!-- ExpConst1 -->
<g id="node23" class="node"><title>ExpConst1</title>
<ellipse fill="none" stroke="black" cx="501.645" cy="-162" rx="50.0912" ry="18"/>
<text text-anchor="middle" x="501.645" y="-158.3" font-family="Times,serif" font-size="14.00">ExpConst1</text>
</g>
<!-- Value1: 4 -->
<g id="node24" class="node"><title>Value1: 4</title>
<ellipse fill="none" stroke="black" cx="501.645" cy="-90" rx="45.4919" ry="18"/>
<text text-anchor="middle" x="501.645" y="-86.3" font-family="Times,serif" font-size="14.00">Value1: 4</text>
</g>
<!-- ExpConst1&#45;&gt;Value1: 4 -->
<g id="edge16" class="edge"><title>ExpConst1&#45;&gt;Value1: 4</title>
<path fill="none" stroke="black" d="M501.645,-143.697C501.645,-135.983 501.645,-126.712 501.645,-118.112"/>
<polygon fill="black" stroke="black" points="505.145,-118.104 501.645,-108.104 498.145,-118.104 505.145,-118.104"/>
</g>
<!-- StatSeq1 -->
<g id="node25" class="node"><title>StatSeq1</title>
<ellipse fill="none" stroke="black" cx="1037.65" cy="-666" rx="42.4939" ry="18"/>
<text text-anchor="middle" x="1037.65" y="-662.3" font-family="Times,serif" font-size="14.00">StatSeq1</text>
</g>
<!-- StatSeq1&#45;&gt;StatMove4 -->
<g id="edge18" class="edge"><title>StatSeq1&#45;&gt;StatMove4</title>
<path fill="none" stroke="black" d="M1062.63,-651.337C1081.98,-640.754 1109.03,-625.961 1130.56,-614.189"/>
<polygon fill="black" stroke="black" points="1132.31,-617.219 1139.4,-609.35 1128.95,-611.078 1132.31,-617.219"/>
</g>
<!-- StatSeq1&#45;&gt;StatSeq2 -->
<g id="edge17" class="edge"><title>StatSeq1&#45;&gt;StatSeq2</title>
<path fill="none" stroke="black" d="M1037.65,-647.697C1037.65,-639.983 1037.65,-630.712 1037.65,-622.112"/>
<polygon fill="black" stroke="black" points="1041.15,-622.104 1037.65,-612.104 1034.15,-622.104 1041.15,-622.104"/>
</g>
<!-- ExpBinary0 -->
<g id="node26" class="node"><title>ExpBinary0</title>
<ellipse fill="none" stroke="black" cx="201.645" cy="-378" rx="53.0913" ry="18"/>
<text text-anchor="middle" x="201.645" y="-374.3" font-family="Times,serif" font-size="14.00">ExpBinary0</text>
</g>
<!-- ExpTemp0 -->
<g id="node27" class="node"><title>ExpTemp0</title>
<ellipse fill="none" stroke="black" cx="52.6453" cy="-306" rx="50.0912" ry="18"/>
<text text-anchor="middle" x="52.6453" y="-302.3" font-family="Times,serif" font-size="14.00">ExpTemp0</text>
</g>
<!-- ExpBinary0&#45;&gt;ExpTemp0 -->
<g id="edge19" class="edge"><title>ExpBinary0&#45;&gt;ExpTemp0</title>
<path fill="none" stroke="black" d="M171.851,-363.003C148.657,-352.106 116.289,-336.9 91.1339,-325.082"/>
<polygon fill="black" stroke="black" points="92.4194,-321.819 81.8802,-320.734 89.4429,-328.155 92.4194,-321.819"/>
</g>
<!-- Plus0 -->
<g id="node28" class="node"><title>Plus0</title>
<ellipse fill="none" stroke="black" cx="151.645" cy="-306" rx="30.5947" ry="18"/>
<text text-anchor="middle" x="151.645" y="-302.3" font-family="Times,serif" font-size="14.00">Plus0</text>
</g>
<!-- ExpBinary0&#45;&gt;Plus0 -->
<g id="edge20" class="edge"><title>ExpBinary0&#45;&gt;Plus0</title>
<path fill="none" stroke="black" d="M189.796,-360.411C183.605,-351.744 175.91,-340.971 169.056,-331.375"/>
<polygon fill="black" stroke="black" points="171.726,-329.091 163.065,-322.988 166.03,-333.16 171.726,-329.091"/>
</g>
<!-- ExpConst0 -->
<g id="node29" class="node"><title>ExpConst0</title>
<ellipse fill="none" stroke="black" cx="250.645" cy="-306" rx="50.0912" ry="18"/>
<text text-anchor="middle" x="250.645" y="-302.3" font-family="Times,serif" font-size="14.00">ExpConst0</text>
</g>
<!-- ExpBinary0&#45;&gt;ExpConst0 -->
<g id="edge21" class="edge"><title>ExpBinary0&#45;&gt;ExpConst0</title>
<path fill="none" stroke="black" d="M213.258,-360.411C219.151,-351.992 226.436,-341.585 233.005,-332.201"/>
<polygon fill="black" stroke="black" points="235.909,-334.156 238.776,-323.956 230.174,-330.141 235.909,-334.156"/>
</g>
<!-- Temp0: $fp -->
<g id="node40" class="node"><title>Temp0: $fp</title>
<ellipse fill="none" stroke="black" cx="52.6453" cy="-234" rx="52.7911" ry="18"/>
<text text-anchor="middle" x="52.6453" y="-230.3" font-family="Times,serif" font-size="14.00">Temp0: $fp</text>
</g>
<!-- ExpTemp0&#45;&gt;Temp0: $fp -->
<g id="edge31" class="edge"><title>ExpTemp0&#45;&gt;Temp0: $fp</title>
<path fill="none" stroke="black" d="M52.6453,-287.697C52.6453,-279.983 52.6453,-270.712 52.6453,-262.112"/>
<polygon fill="black" stroke="black" points="56.1454,-262.104 52.6453,-252.104 49.1454,-262.104 56.1454,-262.104"/>
</g>
<!-- Value0: 12 -->
<g id="node74" class="node"><title>Value0: 12</title>
<ellipse fill="none" stroke="black" cx="250.645" cy="-234" rx="50.0912" ry="18"/>
<text text-anchor="middle" x="250.645" y="-230.3" font-family="Times,serif" font-size="14.00">Value0: 12</text>
</g>
<!-- ExpConst0&#45;&gt;Value0: 12 -->
<g id="edge69" class="edge"><title>ExpConst0&#45;&gt;Value0: 12</title>
<path fill="none" stroke="black" d="M250.645,-287.697C250.645,-279.983 250.645,-270.712 250.645,-262.112"/>
<polygon fill="black" stroke="black" points="254.145,-262.104 250.645,-252.104 247.145,-262.104 254.145,-262.104"/>
</g>
<!-- ExpName4 -->
<g id="node30" class="node"><title>ExpName4</title>
<ellipse fill="none" stroke="black" cx="2032.65" cy="-162" rx="50.8918" ry="18"/>
<text text-anchor="middle" x="2032.65" y="-158.3" font-family="Times,serif" font-size="14.00">ExpName4</text>
</g>
<!-- Label5: BBS::Print -->
<g id="node31" class="node"><title>Label5: BBS::Print</title>
<ellipse fill="none" stroke="black" cx="2094.65" cy="-90" rx="78.7863" ry="18"/>
<text text-anchor="middle" x="2094.65" y="-86.3" font-family="Times,serif" font-size="14.00">Label5: BBS::Print</text>
</g>
<!-- ExpName4&#45;&gt;Label5: BBS::Print -->
<g id="edge22" class="edge"><title>ExpName4&#45;&gt;Label5: BBS::Print</title>
<path fill="none" stroke="black" d="M2047.34,-144.411C2054.95,-135.82 2064.39,-125.159 2072.83,-115.627"/>
<polygon fill="black" stroke="black" points="2075.62,-117.763 2079.63,-107.956 2070.38,-113.121 2075.62,-117.763"/>
</g>
<!-- ExpBinary4 -->
<g id="node33" class="node"><title>ExpBinary4</title>
<ellipse fill="none" stroke="black" cx="1848.65" cy="-162" rx="53.0913" ry="18"/>
<text text-anchor="middle" x="1848.65" y="-158.3" font-family="Times,serif" font-size="14.00">ExpBinary4</text>
</g>
<!-- ExpMem4&#45;&gt;ExpBinary4 -->
<g id="edge23" class="edge"><title>ExpMem4&#45;&gt;ExpBinary4</title>
<path fill="none" stroke="black" d="M1848.65,-215.697C1848.65,-207.983 1848.65,-198.712 1848.65,-190.112"/>
<polygon fill="black" stroke="black" points="1852.15,-190.104 1848.65,-180.104 1845.15,-190.104 1852.15,-190.104"/>
</g>
<!-- ExpConst5 -->
<g id="node68" class="node"><title>ExpConst5</title>
<ellipse fill="none" stroke="black" cx="1947.65" cy="-90" rx="50.0912" ry="18"/>
<text text-anchor="middle" x="1947.65" y="-86.3" font-family="Times,serif" font-size="14.00">ExpConst5</text>
</g>
<!-- ExpBinary4&#45;&gt;ExpConst5 -->
<g id="edge72" class="edge"><title>ExpBinary4&#45;&gt;ExpConst5</title>
<path fill="none" stroke="black" d="M1870.62,-145.465C1884.43,-135.7 1902.43,-122.972 1917.55,-112.276"/>
<polygon fill="black" stroke="black" points="1919.93,-114.882 1926.08,-106.251 1915.89,-109.167 1919.93,-114.882"/>
</g>
<!-- ExpTemp4 -->
<g id="node72" class="node"><title>ExpTemp4</title>
<ellipse fill="none" stroke="black" cx="1749.65" cy="-90" rx="50.0912" ry="18"/>
<text text-anchor="middle" x="1749.65" y="-86.3" font-family="Times,serif" font-size="14.00">ExpTemp4</text>
</g>
<!-- ExpBinary4&#45;&gt;ExpTemp4 -->
<g id="edge70" class="edge"><title>ExpBinary4&#45;&gt;ExpTemp4</title>
<path fill="none" stroke="black" d="M1826.67,-145.465C1812.86,-135.7 1794.86,-122.972 1779.74,-112.276"/>
<polygon fill="black" stroke="black" points="1781.4,-109.167 1771.21,-106.251 1777.36,-114.882 1781.4,-109.167"/>
</g>
<!-- Plus4 -->
<g id="node75" class="node"><title>Plus4</title>
<ellipse fill="none" stroke="black" cx="1848.65" cy="-90" rx="30.5947" ry="18"/>
<text text-anchor="middle" x="1848.65" y="-86.3" font-family="Times,serif" font-size="14.00">Plus4</text>
</g>
<!-- ExpBinary4&#45;&gt;Plus4 -->
<g id="edge71" class="edge"><title>ExpBinary4&#45;&gt;Plus4</title>
<path fill="none" stroke="black" d="M1848.65,-143.697C1848.65,-135.983 1848.65,-126.712 1848.65,-118.112"/>
<polygon fill="black" stroke="black" points="1852.15,-118.104 1848.65,-108.104 1845.15,-118.104 1852.15,-118.104"/>
</g>
<!-- ExpMem0&#45;&gt;ExpBinary0 -->
<g id="edge42" class="edge"><title>ExpMem0&#45;&gt;ExpBinary0</title>
<path fill="none" stroke="black" d="M267.358,-433.116C255.946,-423.718 241.315,-411.669 228.756,-401.326"/>
<polygon fill="black" stroke="black" points="230.801,-398.477 220.857,-394.821 226.351,-403.88 230.801,-398.477"/>
</g>
<!-- ExpCall0&#45;&gt;ExpList0 -->
<g id="edge28" class="edge"><title>ExpCall0&#45;&gt;ExpList0</title>
<path fill="none" stroke="black" d="M492.599,-432.411C497.547,-424.163 503.64,-414.009 509.179,-404.777"/>
<polygon fill="black" stroke="black" points="512.328,-406.332 514.472,-395.956 506.325,-402.73 512.328,-406.332"/>
</g>
<!-- ExpName0 -->
<g id="node37" class="node"><title>ExpName0</title>
<ellipse fill="none" stroke="black" cx="398.645" cy="-378" rx="50.8918" ry="18"/>
<text text-anchor="middle" x="398.645" y="-374.3" font-family="Times,serif" font-size="14.00">ExpName0</text>
</g>
<!-- ExpCall0&#45;&gt;ExpName0 -->
<g id="edge27" class="edge"><title>ExpCall0&#45;&gt;ExpName0</title>
<path fill="none" stroke="black" d="M464.003,-433.465C452.663,-424.015 437.993,-411.79 425.425,-401.316"/>
<polygon fill="black" stroke="black" points="427.449,-398.447 417.526,-394.734 422.968,-403.825 427.449,-398.447"/>
</g>
<!-- ExpBinary2&#45;&gt;ExpTemp2 -->
<g id="edge44" class="edge"><title>ExpBinary2&#45;&gt;ExpTemp2</title>
<path fill="none" stroke="black" d="M702.851,-291.003C679.657,-280.106 647.289,-264.9 622.134,-253.082"/>
<polygon fill="black" stroke="black" points="623.419,-249.819 612.88,-248.734 620.443,-256.155 623.419,-249.819"/>
</g>
<!-- Plus2 -->
<g id="node53" class="node"><title>Plus2</title>
<ellipse fill="none" stroke="black" cx="682.645" cy="-234" rx="30.5947" ry="18"/>
<text text-anchor="middle" x="682.645" y="-230.3" font-family="Times,serif" font-size="14.00">Plus2</text>
</g>
<!-- ExpBinary2&#45;&gt;Plus2 -->
<g id="edge45" class="edge"><title>ExpBinary2&#45;&gt;Plus2</title>
<path fill="none" stroke="black" d="M720.796,-288.411C714.605,-279.744 706.91,-268.971 700.056,-259.375"/>
<polygon fill="black" stroke="black" points="702.726,-257.091 694.065,-250.988 697.03,-261.16 702.726,-257.091"/>
</g>
<!-- ExpConst2 -->
<g id="node54" class="node"><title>ExpConst2</title>
<ellipse fill="none" stroke="black" cx="781.645" cy="-234" rx="50.0912" ry="18"/>
<text text-anchor="middle" x="781.645" y="-230.3" font-family="Times,serif" font-size="14.00">ExpConst2</text>
</g>
<!-- ExpBinary2&#45;&gt;ExpConst2 -->
<g id="edge46" class="edge"><title>ExpBinary2&#45;&gt;ExpConst2</title>
<path fill="none" stroke="black" d="M744.258,-288.411C750.151,-279.992 757.436,-269.585 764.005,-260.201"/>
<polygon fill="black" stroke="black" points="766.909,-262.156 769.776,-251.956 761.174,-258.141 766.909,-262.156"/>
</g>
<!-- Label1: BBS::Init -->
<g id="node55" class="node"><title>Label1: BBS::Init</title>
<ellipse fill="none" stroke="black" cx="391.645" cy="-306" rx="73.387" ry="18"/>
<text text-anchor="middle" x="391.645" y="-302.3" font-family="Times,serif" font-size="14.00">Label1: BBS::Init</text>
</g>
<!-- ExpName0&#45;&gt;Label1: BBS::Init -->
<g id="edge47" class="edge"><title>ExpName0&#45;&gt;Label1: BBS::Init</title>
<path fill="none" stroke="black" d="M396.915,-359.697C396.144,-351.983 395.217,-342.712 394.357,-334.112"/>
<polygon fill="black" stroke="black" points="397.834,-333.706 393.356,-324.104 390.868,-334.403 397.834,-333.706"/>
</g>
<!-- StatSeq4&#45;&gt;StatSeq5 -->
<g id="edge30" class="edge"><title>StatSeq4&#45;&gt;StatSeq5</title>
<path fill="none" stroke="black" d="M1084.66,-437.586C1091.19,-435.486 1098.09,-433.489 1104.65,-432 1235.61,-402.233 1393.56,-387.984 1473.64,-382.247"/>
<polygon fill="black" stroke="black" points="1474.21,-385.715 1483.94,-381.525 1473.72,-378.732 1474.21,-385.715"/>
</g>
<!-- StatExp0 -->
<g id="node39" class="node"><title>StatExp0</title>
<ellipse fill="none" stroke="black" cx="1080.65" cy="-378" rx="42.7926" ry="18"/>
<text text-anchor="middle" x="1080.65" y="-374.3" font-family="Times,serif" font-size="14.00">StatExp0</text>
</g>
<!-- StatSeq4&#45;&gt;StatExp0 -->
<g id="edge29" class="edge"><title>StatSeq4&#45;&gt;StatExp0</title>
<path fill="none" stroke="black" d="M1060.18,-432.055C1063.22,-424.176 1066.91,-414.617 1070.31,-405.794"/>
<polygon fill="black" stroke="black" points="1073.65,-406.865 1073.98,-396.275 1067.12,-404.346 1073.65,-406.865"/>
</g>
<!-- StatExp0&#45;&gt;ExpCall2 -->
<g id="edge54" class="edge"><title>StatExp0&#45;&gt;ExpCall2</title>
<path fill="none" stroke="black" d="M1093.21,-360.411C1099.74,-351.781 1107.86,-341.062 1115.1,-331.497"/>
<polygon fill="black" stroke="black" points="1117.93,-333.555 1121.18,-323.47 1112.35,-329.33 1117.93,-333.555"/>
</g>
<!-- ExpTemp1 -->
<g id="node41" class="node"><title>ExpTemp1</title>
<ellipse fill="none" stroke="black" cx="303.645" cy="-162" rx="50.0912" ry="18"/>
<text text-anchor="middle" x="303.645" y="-158.3" font-family="Times,serif" font-size="14.00">ExpTemp1</text>
</g>
<!-- Temp1: $fp -->
<g id="node42" class="node"><title>Temp1: $fp</title>
<ellipse fill="none" stroke="black" cx="303.645" cy="-90" rx="52.7911" ry="18"/>
<text text-anchor="middle" x="303.645" y="-86.3" font-family="Times,serif" font-size="14.00">Temp1: $fp</text>
</g>
<!-- ExpTemp1&#45;&gt;Temp1: $fp -->
<g id="edge32" class="edge"><title>ExpTemp1&#45;&gt;Temp1: $fp</title>
<path fill="none" stroke="black" d="M303.645,-143.697C303.645,-135.983 303.645,-126.712 303.645,-118.112"/>
<polygon fill="black" stroke="black" points="307.145,-118.104 303.645,-108.104 300.145,-118.104 307.145,-118.104"/>
</g>
<!-- ExpBinary1&#45;&gt;ExpConst1 -->
<g id="edge41" class="edge"><title>ExpBinary1&#45;&gt;ExpConst1</title>
<path fill="none" stroke="black" d="M463.495,-216.411C469.509,-207.992 476.942,-197.585 483.645,-188.201"/>
<polygon fill="black" stroke="black" points="486.569,-190.128 489.534,-179.956 480.873,-186.059 486.569,-190.128"/>
</g>
<!-- ExpBinary1&#45;&gt;ExpTemp1 -->
<g id="edge39" class="edge"><title>ExpBinary1&#45;&gt;ExpTemp1</title>
<path fill="none" stroke="black" d="M422.051,-219.003C399.013,-208.106 366.862,-192.9 341.876,-181.082"/>
<polygon fill="black" stroke="black" points="343.22,-177.846 332.684,-176.734 340.227,-184.174 343.22,-177.846"/>
</g>
<!-- Plus1 -->
<g id="node50" class="node"><title>Plus1</title>
<ellipse fill="none" stroke="black" cx="402.645" cy="-162" rx="30.5947" ry="18"/>
<text text-anchor="middle" x="402.645" y="-158.3" font-family="Times,serif" font-size="14.00">Plus1</text>
</g>
<!-- ExpBinary1&#45;&gt;Plus1 -->
<g id="edge40" class="edge"><title>ExpBinary1&#45;&gt;Plus1</title>
<path fill="none" stroke="black" d="M440.033,-216.411C433.966,-207.744 426.425,-196.971 419.708,-187.375"/>
<polygon fill="black" stroke="black" points="422.439,-185.173 413.837,-178.988 416.704,-189.188 422.439,-185.173"/>
</g>
<!-- ExpName3 -->
<g id="node48" class="node"><title>ExpName3</title>
<ellipse fill="none" stroke="black" cx="1597.65" cy="-162" rx="50.8918" ry="18"/>
<text text-anchor="middle" x="1597.65" y="-158.3" font-family="Times,serif" font-size="14.00">ExpName3</text>
</g>
<!-- ExpCall3&#45;&gt;ExpName3 -->
<g id="edge37" class="edge"><title>ExpCall3&#45;&gt;ExpName3</title>
<path fill="none" stroke="black" d="M1597.65,-215.697C1597.65,-207.983 1597.65,-198.712 1597.65,-190.112"/>
<polygon fill="black" stroke="black" points="1601.15,-190.104 1597.65,-180.104 1594.15,-190.104 1601.15,-190.104"/>
</g>
<!-- ExpList3 -->
<g id="node49" class="node"><title>ExpList3</title>
<ellipse fill="none" stroke="black" cx="1709.65" cy="-162" rx="42.7926" ry="18"/>
<text text-anchor="middle" x="1709.65" y="-158.3" font-family="Times,serif" font-size="14.00">ExpList3</text>
</g>
<!-- ExpCall3&#45;&gt;ExpList3 -->
<g id="edge38" class="edge"><title>ExpCall3&#45;&gt;ExpList3</title>
<path fill="none" stroke="black" d="M1620.85,-218.496C1637.37,-208.172 1659.77,-194.174 1677.93,-182.819"/>
<polygon fill="black" stroke="black" points="1679.84,-185.753 1686.47,-177.485 1676.13,-179.818 1679.84,-185.753"/>
</g>
<!-- Label4: BBS::Sort -->
<g id="node71" class="node"><title>Label4: BBS::Sort</title>
<ellipse fill="none" stroke="black" cx="1605.65" cy="-90" rx="76.0865" ry="18"/>
<text text-anchor="middle" x="1605.65" y="-86.3" font-family="Times,serif" font-size="14.00">Label4: BBS::Sort</text>
</g>
<!-- ExpName3&#45;&gt;Label4: BBS::Sort -->
<g id="edge67" class="edge"><title>ExpName3&#45;&gt;Label4: BBS::Sort</title>
<path fill="none" stroke="black" d="M1599.62,-143.697C1600.5,-135.983 1601.56,-126.712 1602.55,-118.112"/>
<polygon fill="black" stroke="black" points="1606.03,-118.437 1603.69,-108.104 1599.08,-117.642 1606.03,-118.437"/>
</g>
<!-- StatLabel0 -->
<g id="node51" class="node"><title>StatLabel0</title>
<ellipse fill="none" stroke="black" cx="914.645" cy="-666" rx="48.9926" ry="18"/>
<text text-anchor="middle" x="914.645" y="-662.3" font-family="Times,serif" font-size="14.00">StatLabel0</text>
</g>
<!-- Label0: BBS::Start -->
<g id="node52" class="node"><title>Label0: BBS::Start</title>
<ellipse fill="none" stroke="black" cx="899.645" cy="-594" rx="77.9862" ry="18"/>
<text text-anchor="middle" x="899.645" y="-590.3" font-family="Times,serif" font-size="14.00">Label0: BBS::Start</text>
</g>
<!-- StatLabel0&#45;&gt;Label0: BBS::Start -->
<g id="edge43" class="edge"><title>StatLabel0&#45;&gt;Label0: BBS::Start</title>
<path fill="none" stroke="black" d="M910.937,-647.697C909.284,-639.983 907.298,-630.712 905.455,-622.112"/>
<polygon fill="black" stroke="black" points="908.828,-621.149 903.311,-612.104 901.984,-622.616 908.828,-621.149"/>
</g>
<!-- Value2: 12 -->
<g id="node65" class="node"><title>Value2: 12</title>
<ellipse fill="none" stroke="black" cx="781.645" cy="-162" rx="50.0912" ry="18"/>
<text text-anchor="middle" x="781.645" y="-158.3" font-family="Times,serif" font-size="14.00">Value2: 12</text>
</g>
<!-- ExpConst2&#45;&gt;Value2: 12 -->
<g id="edge59" class="edge"><title>ExpConst2&#45;&gt;Value2: 12</title>
<path fill="none" stroke="black" d="M781.645,-215.697C781.645,-207.983 781.645,-198.712 781.645,-190.112"/>
<polygon fill="black" stroke="black" points="785.145,-190.104 781.645,-180.104 778.145,-190.104 785.145,-190.104"/>
</g>
<!-- Value3: 99999 -->
<g id="node57" class="node"><title>Value3: 99999</title>
<ellipse fill="none" stroke="black" cx="1132.65" cy="-90" rx="63.0888" ry="18"/>
<text text-anchor="middle" x="1132.65" y="-86.3" font-family="Times,serif" font-size="14.00">Value3: 99999</text>
</g>
<!-- ExpConst3&#45;&gt;Value3: 99999 -->
<g id="edge50" class="edge"><title>ExpConst3&#45;&gt;Value3: 99999</title>
<path fill="none" stroke="black" d="M1174.61,-144.411C1167.93,-135.906 1159.65,-125.372 1152.22,-115.914"/>
<polygon fill="black" stroke="black" points="1154.9,-113.657 1145.97,-107.956 1149.39,-117.982 1154.9,-113.657"/>
</g>
<!-- StatSeq0 -->
<g id="node58" class="node"><title>StatSeq0</title>
<ellipse fill="none" stroke="black" cx="975.645" cy="-738" rx="42.4939" ry="18"/>
<text text-anchor="middle" x="975.645" y="-734.3" font-family="Times,serif" font-size="14.00">StatSeq0</text>
</g>
<!-- StatSeq0&#45;&gt;StatSeq1 -->
<g id="edge53" class="edge"><title>StatSeq0&#45;&gt;StatSeq1</title>
<path fill="none" stroke="black" d="M990.025,-720.765C997.929,-711.841 1007.88,-700.608 1016.64,-690.719"/>
<polygon fill="black" stroke="black" points="1019.33,-692.954 1023.34,-683.147 1014.09,-688.313 1019.33,-692.954"/>
</g>
<!-- StatSeq0&#45;&gt;StatLabel0 -->
<g id="edge52" class="edge"><title>StatSeq0&#45;&gt;StatLabel0</title>
<path fill="none" stroke="black" d="M961.497,-720.765C953.908,-712.056 944.402,-701.147 935.939,-691.435"/>
<polygon fill="black" stroke="black" points="938.349,-688.873 929.14,-683.633 933.071,-693.472 938.349,-688.873"/>
</g>
<!-- ExpConst4 -->
<g id="node59" class="node"><title>ExpConst4</title>
<ellipse fill="none" stroke="black" cx="1461.65" cy="-90" rx="50.0912" ry="18"/>
<text text-anchor="middle" x="1461.65" y="-86.3" font-family="Times,serif" font-size="14.00">ExpConst4</text>
</g>
<!-- Value4: 12 -->
<g id="node60" class="node"><title>Value4: 12</title>
<ellipse fill="none" stroke="black" cx="1461.65" cy="-18" rx="50.0912" ry="18"/>
<text text-anchor="middle" x="1461.65" y="-14.3" font-family="Times,serif" font-size="14.00">Value4: 12</text>
</g>
<!-- ExpConst4&#45;&gt;Value4: 12 -->
<g id="edge55" class="edge"><title>ExpConst4&#45;&gt;Value4: 12</title>
<path fill="none" stroke="black" d="M1461.65,-71.6966C1461.65,-63.9827 1461.65,-54.7125 1461.65,-46.1124"/>
<polygon fill="black" stroke="black" points="1465.15,-46.1043 1461.65,-36.1043 1458.15,-46.1044 1465.15,-46.1043"/>
</g>
<!-- ExpCall4&#45;&gt;ExpName4 -->
<g id="edge56" class="edge"><title>ExpCall4&#45;&gt;ExpName4</title>
<path fill="none" stroke="black" d="M2032.65,-215.697C2032.65,-207.983 2032.65,-198.712 2032.65,-190.112"/>
<polygon fill="black" stroke="black" points="2036.15,-190.104 2032.65,-180.104 2029.15,-190.104 2036.15,-190.104"/>
</g>
<!-- ExpList4 -->
<g id="node62" class="node"><title>ExpList4</title>
<ellipse fill="none" stroke="black" cx="2144.65" cy="-162" rx="42.7926" ry="18"/>
<text text-anchor="middle" x="2144.65" y="-158.3" font-family="Times,serif" font-size="14.00">ExpList4</text>
</g>
<!-- ExpCall4&#45;&gt;ExpList4 -->
<g id="edge57" class="edge"><title>ExpCall4&#45;&gt;ExpList4</title>
<path fill="none" stroke="black" d="M2055.85,-218.496C2072.37,-208.172 2094.77,-194.174 2112.93,-182.819"/>
<polygon fill="black" stroke="black" points="2114.84,-185.753 2121.47,-177.485 2111.13,-179.818 2114.84,-185.753"/>
</g>
<!-- ExpTemp3 -->
<g id="node63" class="node"><title>ExpTemp3</title>
<ellipse fill="none" stroke="black" cx="1263.65" cy="-90" rx="50.0912" ry="18"/>
<text text-anchor="middle" x="1263.65" y="-86.3" font-family="Times,serif" font-size="14.00">ExpTemp3</text>
</g>
<!-- Temp3: $fp -->
<g id="node64" class="node"><title>Temp3: $fp</title>
<ellipse fill="none" stroke="black" cx="1263.65" cy="-18" rx="52.7911" ry="18"/>
<text text-anchor="middle" x="1263.65" y="-14.3" font-family="Times,serif" font-size="14.00">Temp3: $fp</text>
</g>
<!-- ExpTemp3&#45;&gt;Temp3: $fp -->
<g id="edge58" class="edge"><title>ExpTemp3&#45;&gt;Temp3: $fp</title>
<path fill="none" stroke="black" d="M1263.65,-71.6966C1263.65,-63.9827 1263.65,-54.7125 1263.65,-46.1124"/>
<polygon fill="black" stroke="black" points="1267.15,-46.1043 1263.65,-36.1043 1260.15,-46.1044 1267.15,-46.1043"/>
</g>
<!-- ExpBinary3 -->
<g id="node66" class="node"><title>ExpBinary3</title>
<ellipse fill="none" stroke="black" cx="1412.65" cy="-162" rx="53.0913" ry="18"/>
<text text-anchor="middle" x="1412.65" y="-158.3" font-family="Times,serif" font-size="14.00">ExpBinary3</text>
</g>
<!-- ExpBinary3&#45;&gt;ExpConst4 -->
<g id="edge62" class="edge"><title>ExpBinary3&#45;&gt;ExpConst4</title>
<path fill="none" stroke="black" d="M1424.26,-144.411C1430.15,-135.992 1437.44,-125.585 1444,-116.201"/>
<polygon fill="black" stroke="black" points="1446.91,-118.156 1449.78,-107.956 1441.17,-114.141 1446.91,-118.156"/>
</g>
<!-- ExpBinary3&#45;&gt;ExpTemp3 -->
<g id="edge60" class="edge"><title>ExpBinary3&#45;&gt;ExpTemp3</title>
<path fill="none" stroke="black" d="M1382.85,-147.003C1359.66,-136.106 1327.29,-120.9 1302.13,-109.082"/>
<polygon fill="black" stroke="black" points="1303.42,-105.819 1292.88,-104.734 1300.44,-112.155 1303.42,-105.819"/>
</g>
<!-- Plus3 -->
<g id="node67" class="node"><title>Plus3</title>
<ellipse fill="none" stroke="black" cx="1362.65" cy="-90" rx="30.5947" ry="18"/>
<text text-anchor="middle" x="1362.65" y="-86.3" font-family="Times,serif" font-size="14.00">Plus3</text>
</g>
<!-- ExpBinary3&#45;&gt;Plus3 -->
<g id="edge61" class="edge"><title>ExpBinary3&#45;&gt;Plus3</title>
<path fill="none" stroke="black" d="M1400.8,-144.411C1394.61,-135.744 1386.91,-124.971 1380.06,-115.375"/>
<polygon fill="black" stroke="black" points="1382.73,-113.091 1374.07,-106.988 1377.03,-117.16 1382.73,-113.091"/>
</g>
<!-- Value5: 12 -->
<g id="node69" class="node"><title>Value5: 12</title>
<ellipse fill="none" stroke="black" cx="1947.65" cy="-18" rx="50.0912" ry="18"/>
<text text-anchor="middle" x="1947.65" y="-14.3" font-family="Times,serif" font-size="14.00">Value5: 12</text>
</g>
<!-- ExpConst5&#45;&gt;Value5: 12 -->
<g id="edge63" class="edge"><title>ExpConst5&#45;&gt;Value5: 12</title>
<path fill="none" stroke="black" d="M1947.65,-71.6966C1947.65,-63.9827 1947.65,-54.7125 1947.65,-46.1124"/>
<polygon fill="black" stroke="black" points="1951.15,-46.1043 1947.65,-36.1043 1944.15,-46.1044 1951.15,-46.1043"/>
</g>
<!-- ExpMem3&#45;&gt;ExpBinary3 -->
<g id="edge64" class="edge"><title>ExpMem3&#45;&gt;ExpBinary3</title>
<path fill="none" stroke="black" d="M1456.9,-216.411C1449.68,-207.693 1440.69,-196.845 1432.7,-187.208"/>
<polygon fill="black" stroke="black" points="1435.37,-184.937 1426.29,-179.47 1429.98,-189.403 1435.37,-184.937"/>
</g>
<!-- Temp4: $fp -->
<g id="node73" class="node"><title>Temp4: $fp</title>
<ellipse fill="none" stroke="black" cx="1749.65" cy="-18" rx="52.7911" ry="18"/>
<text text-anchor="middle" x="1749.65" y="-14.3" font-family="Times,serif" font-size="14.00">Temp4: $fp</text>
</g>
<!-- ExpTemp4&#45;&gt;Temp4: $fp -->
<g id="edge68" class="edge"><title>ExpTemp4&#45;&gt;Temp4: $fp</title>
<path fill="none" stroke="black" d="M1749.65,-71.6966C1749.65,-63.9827 1749.65,-54.7125 1749.65,-46.1124"/>
<polygon fill="black" stroke="black" points="1753.15,-46.1043 1749.65,-36.1043 1746.15,-46.1044 1753.15,-46.1043"/>
</g>
</g>
</svg>
