<?xml version="1.0" encoding="UTF-8" standalone="no"?>
<!DOCTYPE svg PUBLIC "-//W3C//DTD SVG 1.1//EN"
 "http://www.w3.org/Graphics/SVG/1.1/DTD/svg11.dtd">
<!-- Generated by graphviz version 2.38.0 (20140413.2041)
 -->
<!-- Title: %3 Pages: 1 -->
<svg width="536pt" height="764pt"
 viewBox="0.00 0.00 536.29 764.00" xmlns="http://www.w3.org/2000/svg" xmlns:xlink="http://www.w3.org/1999/xlink">
<g id="graph0" class="graph" transform="scale(1 1) rotate(0) translate(4 760)">
<title>%3</title>
<polygon fill="white" stroke="none" points="-4,4 -4,-760 532.286,-760 532.286,4 -4,4"/>
<!-- ExpTemp2 -->
<g id="node1" class="node"><title>ExpTemp2</title>
<ellipse fill="none" stroke="black" cx="429.591" cy="-306" rx="50.0912" ry="18"/>
<text text-anchor="middle" x="429.591" y="-302.3" font-family="Times,serif" font-size="14.00">ExpTemp2</text>
</g>
<!-- Temp2: T1 -->
<g id="node2" class="node"><title>Temp2: T1</title>
<ellipse fill="none" stroke="black" cx="429.591" cy="-234" rx="50.8918" ry="18"/>
<text text-anchor="middle" x="429.591" y="-230.3" font-family="Times,serif" font-size="14.00">Temp2: T1</text>
</g>
<!-- ExpTemp2&#45;&gt;Temp2: T1 -->
<g id="edge1" class="edge"><title>ExpTemp2&#45;&gt;Temp2: T1</title>
<path fill="none" stroke="black" d="M429.591,-287.697C429.591,-279.983 429.591,-270.712 429.591,-262.112"/>
<polygon fill="black" stroke="black" points="433.091,-262.104 429.591,-252.104 426.091,-262.104 433.091,-262.104"/>
</g>
<!-- ExpEseq0 -->
<g id="node3" class="node"><title>ExpEseq0</title>
<ellipse fill="none" stroke="black" cx="370.591" cy="-378" rx="46.2923" ry="18"/>
<text text-anchor="middle" x="370.591" y="-374.3" font-family="Times,serif" font-size="14.00">ExpEseq0</text>
</g>
<!-- ExpEseq0&#45;&gt;ExpTemp2 -->
<g id="edge3" class="edge"><title>ExpEseq0&#45;&gt;ExpTemp2</title>
<path fill="none" stroke="black" d="M384.275,-360.765C391.615,-352.056 400.81,-341.147 408.995,-331.435"/>
<polygon fill="black" stroke="black" points="411.802,-333.535 415.571,-323.633 406.45,-329.024 411.802,-333.535"/>
</g>
<!-- StatMove1 -->
<g id="node4" class="node"><title>StatMove1</title>
<ellipse fill="none" stroke="black" cx="311.591" cy="-306" rx="50.0912" ry="18"/>
<text text-anchor="middle" x="311.591" y="-302.3" font-family="Times,serif" font-size="14.00">StatMove1</text>
</g>
<!-- ExpEseq0&#45;&gt;StatMove1 -->
<g id="edge2" class="edge"><title>ExpEseq0&#45;&gt;StatMove1</title>
<path fill="none" stroke="black" d="M356.906,-360.765C349.566,-352.056 340.371,-341.147 332.186,-331.435"/>
<polygon fill="black" stroke="black" points="334.731,-329.024 325.61,-323.633 329.379,-333.535 334.731,-329.024"/>
</g>
<!-- ExpCall1 -->
<g id="node11" class="node"><title>ExpCall1</title>
<ellipse fill="none" stroke="black" cx="314.591" cy="-234" rx="44.393" ry="18"/>
<text text-anchor="middle" x="314.591" y="-230.3" font-family="Times,serif" font-size="14.00">ExpCall1</text>
</g>
<!-- StatMove1&#45;&gt;ExpCall1 -->
<g id="edge24" class="edge"><title>StatMove1&#45;&gt;ExpCall1</title>
<path fill="none" stroke="black" d="M312.332,-287.697C312.663,-279.983 313.06,-270.712 313.429,-262.112"/>
<polygon fill="black" stroke="black" points="316.926,-262.245 313.857,-252.104 309.932,-261.945 316.926,-262.245"/>
</g>
<!-- ExpTemp1 -->
<g id="node24" class="node"><title>ExpTemp1</title>
<ellipse fill="none" stroke="black" cx="198.591" cy="-234" rx="50.0912" ry="18"/>
<text text-anchor="middle" x="198.591" y="-230.3" font-family="Times,serif" font-size="14.00">ExpTemp1</text>
</g>
<!-- StatMove1&#45;&gt;ExpTemp1 -->
<g id="edge23" class="edge"><title>StatMove1&#45;&gt;ExpTemp1</title>
<path fill="none" stroke="black" d="M287.626,-290.155C271.296,-280.039 249.466,-266.515 231.508,-255.391"/>
<polygon fill="black" stroke="black" points="232.865,-252.115 222.52,-249.824 229.178,-258.065 232.865,-252.115"/>
</g>
<!-- ExpConst0 -->
<g id="node5" class="node"><title>ExpConst0</title>
<ellipse fill="none" stroke="black" cx="454.591" cy="-90" rx="50.0912" ry="18"/>
<text text-anchor="middle" x="454.591" y="-86.3" font-family="Times,serif" font-size="14.00">ExpConst0</text>
</g>
<!-- Value0: 10 -->
<g id="node6" class="node"><title>Value0: 10</title>
<ellipse fill="none" stroke="black" cx="454.591" cy="-18" rx="50.0912" ry="18"/>
<text text-anchor="middle" x="454.591" y="-14.3" font-family="Times,serif" font-size="14.00">Value0: 10</text>
</g>
<!-- ExpConst0&#45;&gt;Value0: 10 -->
<g id="edge4" class="edge"><title>ExpConst0&#45;&gt;Value0: 10</title>
<path fill="none" stroke="black" d="M454.591,-71.6966C454.591,-63.9827 454.591,-54.7125 454.591,-46.1124"/>
<polygon fill="black" stroke="black" points="458.091,-46.1043 454.591,-36.1043 451.091,-46.1044 458.091,-46.1043"/>
</g>
<!-- StatMove0 -->
<g id="node7" class="node"><title>StatMove0</title>
<ellipse fill="none" stroke="black" cx="281.591" cy="-594" rx="50.0912" ry="18"/>
<text text-anchor="middle" x="281.591" y="-590.3" font-family="Times,serif" font-size="14.00">StatMove0</text>
</g>
<!-- ExpTemp0 -->
<g id="node8" class="node"><title>ExpTemp0</title>
<ellipse fill="none" stroke="black" cx="166.591" cy="-522" rx="50.0912" ry="18"/>
<text text-anchor="middle" x="166.591" y="-518.3" font-family="Times,serif" font-size="14.00">ExpTemp0</text>
</g>
<!-- StatMove0&#45;&gt;ExpTemp0 -->
<g id="edge5" class="edge"><title>StatMove0&#45;&gt;ExpTemp0</title>
<path fill="none" stroke="black" d="M257.202,-578.155C240.431,-567.946 217.958,-554.267 199.589,-543.086"/>
<polygon fill="black" stroke="black" points="201.306,-540.034 190.944,-537.824 197.666,-546.013 201.306,-540.034"/>
</g>
<!-- ExpCall0 -->
<g id="node9" class="node"><title>ExpCall0</title>
<ellipse fill="none" stroke="black" cx="281.591" cy="-522" rx="44.393" ry="18"/>
<text text-anchor="middle" x="281.591" y="-518.3" font-family="Times,serif" font-size="14.00">ExpCall0</text>
</g>
<!-- StatMove0&#45;&gt;ExpCall0 -->
<g id="edge6" class="edge"><title>StatMove0&#45;&gt;ExpCall0</title>
<path fill="none" stroke="black" d="M281.591,-575.697C281.591,-567.983 281.591,-558.712 281.591,-550.112"/>
<polygon fill="black" stroke="black" points="285.091,-550.104 281.591,-540.104 278.091,-550.104 285.091,-550.104"/>
</g>
<!-- Temp0: T2 -->
<g id="node16" class="node"><title>Temp0: T2</title>
<ellipse fill="none" stroke="black" cx="134.591" cy="-450" rx="50.8918" ry="18"/>
<text text-anchor="middle" x="134.591" y="-446.3" font-family="Times,serif" font-size="14.00">Temp0: T2</text>
</g>
<!-- ExpTemp0&#45;&gt;Temp0: T2 -->
<g id="edge11" class="edge"><title>ExpTemp0&#45;&gt;Temp0: T2</title>
<path fill="none" stroke="black" d="M158.844,-504.055C155.204,-496.091 150.778,-486.411 146.709,-477.51"/>
<polygon fill="black" stroke="black" points="149.829,-475.915 142.488,-468.275 143.462,-478.825 149.829,-475.915"/>
</g>
<!-- ExpList0 -->
<g id="node10" class="node"><title>ExpList0</title>
<ellipse fill="none" stroke="black" cx="365.591" cy="-450" rx="42.7926" ry="18"/>
<text text-anchor="middle" x="365.591" y="-446.3" font-family="Times,serif" font-size="14.00">ExpList0</text>
</g>
<!-- ExpCall0&#45;&gt;ExpList0 -->
<g id="edge20" class="edge"><title>ExpCall0&#45;&gt;ExpList0</title>
<path fill="none" stroke="black" d="M300.233,-505.465C311.652,-495.949 326.448,-483.619 339.074,-473.097"/>
<polygon fill="black" stroke="black" points="341.559,-475.583 347,-466.492 337.077,-470.205 341.559,-475.583"/>
</g>
<!-- ExpName0 -->
<g id="node22" class="node"><title>ExpName0</title>
<ellipse fill="none" stroke="black" cx="253.591" cy="-450" rx="50.8918" ry="18"/>
<text text-anchor="middle" x="253.591" y="-446.3" font-family="Times,serif" font-size="14.00">ExpName0</text>
</g>
<!-- ExpCall0&#45;&gt;ExpName0 -->
<g id="edge19" class="edge"><title>ExpCall0&#45;&gt;ExpName0</title>
<path fill="none" stroke="black" d="M274.813,-504.055C271.661,-496.176 267.837,-486.617 264.308,-477.794"/>
<polygon fill="black" stroke="black" points="267.464,-476.26 260.501,-468.275 260.965,-478.86 267.464,-476.26"/>
</g>
<!-- ExpList0&#45;&gt;ExpEseq0 -->
<g id="edge7" class="edge"><title>ExpList0&#45;&gt;ExpEseq0</title>
<path fill="none" stroke="black" d="M366.826,-431.697C367.377,-423.983 368.04,-414.712 368.654,-406.112"/>
<polygon fill="black" stroke="black" points="372.147,-406.328 369.369,-396.104 365.165,-405.83 372.147,-406.328"/>
</g>
<!-- ExpName1 -->
<g id="node12" class="node"><title>ExpName1</title>
<ellipse fill="none" stroke="black" cx="314.591" cy="-162" rx="50.8918" ry="18"/>
<text text-anchor="middle" x="314.591" y="-158.3" font-family="Times,serif" font-size="14.00">ExpName1</text>
</g>
<!-- ExpCall1&#45;&gt;ExpName1 -->
<g id="edge8" class="edge"><title>ExpCall1&#45;&gt;ExpName1</title>
<path fill="none" stroke="black" d="M314.591,-215.697C314.591,-207.983 314.591,-198.712 314.591,-190.112"/>
<polygon fill="black" stroke="black" points="318.091,-190.104 314.591,-180.104 311.091,-190.104 318.091,-190.104"/>
</g>
<!-- ExpList1 -->
<g id="node13" class="node"><title>ExpList1</title>
<ellipse fill="none" stroke="black" cx="444.591" cy="-162" rx="42.7926" ry="18"/>
<text text-anchor="middle" x="444.591" y="-158.3" font-family="Times,serif" font-size="14.00">ExpList1</text>
</g>
<!-- ExpCall1&#45;&gt;ExpList1 -->
<g id="edge9" class="edge"><title>ExpCall1&#45;&gt;ExpList1</title>
<path fill="none" stroke="black" d="M340.274,-219.17C360.216,-208.432 388.067,-193.436 409.975,-181.639"/>
<polygon fill="black" stroke="black" points="411.815,-184.624 418.96,-176.801 408.496,-178.46 411.815,-184.624"/>
</g>
<!-- Label2: BBS@Start -->
<g id="node26" class="node"><title>Label2: BBS@Start</title>
<ellipse fill="none" stroke="black" cx="305.591" cy="-90" rx="81.4863" ry="18"/>
<text text-anchor="middle" x="305.591" y="-86.3" font-family="Times,serif" font-size="14.00">Label2: BBS@Start</text>
</g>
<!-- ExpName1&#45;&gt;Label2: BBS@Start -->
<g id="edge25" class="edge"><title>ExpName1&#45;&gt;Label2: BBS@Start</title>
<path fill="none" stroke="black" d="M312.366,-143.697C311.374,-135.983 310.182,-126.712 309.076,-118.112"/>
<polygon fill="black" stroke="black" points="312.536,-117.576 307.79,-108.104 305.594,-118.469 312.536,-117.576"/>
</g>
<!-- ExpList1&#45;&gt;ExpConst0 -->
<g id="edge22" class="edge"><title>ExpList1&#45;&gt;ExpConst0</title>
<path fill="none" stroke="black" d="M447.062,-143.697C448.164,-135.983 449.489,-126.712 450.717,-118.112"/>
<polygon fill="black" stroke="black" points="454.198,-118.499 452.147,-108.104 447.268,-117.509 454.198,-118.499"/>
</g>
<!-- StatExp0 -->
<g id="node14" class="node"><title>StatExp0</title>
<ellipse fill="none" stroke="black" cx="392.591" cy="-594" rx="42.7926" ry="18"/>
<text text-anchor="middle" x="392.591" y="-590.3" font-family="Times,serif" font-size="14.00">StatExp0</text>
</g>
<!-- ExpTemp3 -->
<g id="node15" class="node"><title>ExpTemp3</title>
<ellipse fill="none" stroke="black" cx="449.591" cy="-522" rx="50.0912" ry="18"/>
<text text-anchor="middle" x="449.591" y="-518.3" font-family="Times,serif" font-size="14.00">ExpTemp3</text>
</g>
<!-- StatExp0&#45;&gt;ExpTemp3 -->
<g id="edge10" class="edge"><title>StatExp0&#45;&gt;ExpTemp3</title>
<path fill="none" stroke="black" d="M405.811,-576.765C412.902,-568.056 421.785,-557.147 429.693,-547.435"/>
<polygon fill="black" stroke="black" points="432.446,-549.598 436.046,-539.633 427.018,-545.178 432.446,-549.598"/>
</g>
<!-- Temp3: T2 -->
<g id="node17" class="node"><title>Temp3: T2</title>
<ellipse fill="none" stroke="black" cx="477.591" cy="-450" rx="50.8918" ry="18"/>
<text text-anchor="middle" x="477.591" y="-446.3" font-family="Times,serif" font-size="14.00">Temp3: T2</text>
</g>
<!-- ExpTemp3&#45;&gt;Temp3: T2 -->
<g id="edge12" class="edge"><title>ExpTemp3&#45;&gt;Temp3: T2</title>
<path fill="none" stroke="black" d="M456.369,-504.055C459.52,-496.176 463.344,-486.617 466.873,-477.794"/>
<polygon fill="black" stroke="black" points="470.216,-478.86 470.68,-468.275 463.717,-476.26 470.216,-478.86"/>
</g>
<!-- StatSeq0 -->
<g id="node18" class="node"><title>StatSeq0</title>
<ellipse fill="none" stroke="black" cx="210.591" cy="-738" rx="42.4939" ry="18"/>
<text text-anchor="middle" x="210.591" y="-734.3" font-family="Times,serif" font-size="14.00">StatSeq0</text>
</g>
<!-- StatLabel0 -->
<g id="node19" class="node"><title>StatLabel0</title>
<ellipse fill="none" stroke="black" cx="139.591" cy="-666" rx="48.9926" ry="18"/>
<text text-anchor="middle" x="139.591" y="-662.3" font-family="Times,serif" font-size="14.00">StatLabel0</text>
</g>
<!-- StatSeq0&#45;&gt;StatLabel0 -->
<g id="edge13" class="edge"><title>StatSeq0&#45;&gt;StatLabel0</title>
<path fill="none" stroke="black" d="M194.48,-721.116C185.261,-712.027 173.526,-700.458 163.275,-690.351"/>
<polygon fill="black" stroke="black" points="165.709,-687.835 156.13,-683.307 160.794,-692.82 165.709,-687.835"/>
</g>
<!-- StatSeq1 -->
<g id="node20" class="node"><title>StatSeq1</title>
<ellipse fill="none" stroke="black" cx="281.591" cy="-666" rx="42.4939" ry="18"/>
<text text-anchor="middle" x="281.591" y="-662.3" font-family="Times,serif" font-size="14.00">StatSeq1</text>
</g>
<!-- StatSeq0&#45;&gt;StatSeq1 -->
<g id="edge14" class="edge"><title>StatSeq0&#45;&gt;StatSeq1</title>
<path fill="none" stroke="black" d="M226.702,-721.116C236.052,-711.897 247.99,-700.127 258.344,-689.919"/>
<polygon fill="black" stroke="black" points="260.88,-692.334 265.543,-682.821 255.965,-687.35 260.88,-692.334"/>
</g>
<!-- Label0: BubbleSort@main -->
<g id="node21" class="node"><title>Label0: BubbleSort@main</title>
<ellipse fill="none" stroke="black" cx="106.591" cy="-594" rx="106.681" ry="18"/>
<text text-anchor="middle" x="106.591" y="-590.3" font-family="Times,serif" font-size="14.00">Label0: BubbleSort@main</text>
</g>
<!-- StatLabel0&#45;&gt;Label0: BubbleSort@main -->
<g id="edge15" class="edge"><title>StatLabel0&#45;&gt;Label0: BubbleSort@main</title>
<path fill="none" stroke="black" d="M131.602,-648.055C127.848,-640.091 123.284,-630.411 119.088,-621.51"/>
<polygon fill="black" stroke="black" points="122.165,-619.828 114.735,-612.275 115.833,-622.813 122.165,-619.828"/>
</g>
<!-- StatSeq1&#45;&gt;StatMove0 -->
<g id="edge17" class="edge"><title>StatSeq1&#45;&gt;StatMove0</title>
<path fill="none" stroke="black" d="M281.591,-647.697C281.591,-639.983 281.591,-630.712 281.591,-622.112"/>
<polygon fill="black" stroke="black" points="285.091,-622.104 281.591,-612.104 278.091,-622.104 285.091,-622.104"/>
</g>
<!-- StatSeq1&#45;&gt;StatExp0 -->
<g id="edge18" class="edge"><title>StatSeq1&#45;&gt;StatExp0</title>
<path fill="none" stroke="black" d="M304.321,-650.666C320.782,-640.285 343.235,-626.125 361.377,-614.685"/>
<polygon fill="black" stroke="black" points="363.299,-617.61 369.891,-609.315 359.565,-611.689 363.299,-617.61"/>
</g>
<!-- Label1: print -->
<g id="node23" class="node"><title>Label1: print</title>
<ellipse fill="none" stroke="black" cx="249.591" cy="-378" rx="56.59" ry="18"/>
<text text-anchor="middle" x="249.591" y="-374.3" font-family="Times,serif" font-size="14.00">Label1: print</text>
</g>
<!-- ExpName0&#45;&gt;Label1: print -->
<g id="edge16" class="edge"><title>ExpName0&#45;&gt;Label1: print</title>
<path fill="none" stroke="black" d="M252.602,-431.697C252.161,-423.983 251.631,-414.712 251.14,-406.112"/>
<polygon fill="black" stroke="black" points="254.633,-405.888 250.568,-396.104 247.644,-406.288 254.633,-405.888"/>
</g>
<!-- Temp1: T1 -->
<g id="node25" class="node"><title>Temp1: T1</title>
<ellipse fill="none" stroke="black" cx="195.591" cy="-162" rx="50.8918" ry="18"/>
<text text-anchor="middle" x="195.591" y="-158.3" font-family="Times,serif" font-size="14.00">Temp1: T1</text>
</g>
<!-- ExpTemp1&#45;&gt;Temp1: T1 -->
<g id="edge21" class="edge"><title>ExpTemp1&#45;&gt;Temp1: T1</title>
<path fill="none" stroke="black" d="M197.849,-215.697C197.518,-207.983 197.121,-198.712 196.753,-190.112"/>
<polygon fill="black" stroke="black" points="200.249,-189.945 196.324,-180.104 193.255,-190.245 200.249,-189.945"/>
</g>
</g>
</svg>
