<?xml version="1.0" encoding="UTF-8" standalone="no"?>
<!DOCTYPE svg PUBLIC "-//W3C//DTD SVG 1.1//EN"
 "http://www.w3.org/Graphics/SVG/1.1/DTD/svg11.dtd">
<!-- Generated by graphviz version 2.38.0 (20140413.2041)
 -->
<!-- Title: %3 Pages: 1 -->
<svg width="735pt" height="1052pt"
 viewBox="0.00 0.00 734.64 1052.00" xmlns="http://www.w3.org/2000/svg" xmlns:xlink="http://www.w3.org/1999/xlink">
<g id="graph0" class="graph" transform="scale(1 1) rotate(0) translate(4 1048)">
<title>%3</title>
<polygon fill="white" stroke="none" points="-4,4 -4,-1048 730.636,-1048 730.636,4 -4,4"/>
<!-- StatExp0 -->
<g id="node1" class="node"><title>StatExp0</title>
<ellipse fill="none" stroke="black" cx="497.591" cy="-954" rx="42.7926" ry="18"/>
<text text-anchor="middle" x="497.591" y="-950.3" font-family="Times,serif" font-size="14.00">StatExp0</text>
</g>
<!-- ExpTemp5 -->
<g id="node2" class="node"><title>ExpTemp5</title>
<ellipse fill="none" stroke="black" cx="533.591" cy="-882" rx="50.0912" ry="18"/>
<text text-anchor="middle" x="533.591" y="-878.3" font-family="Times,serif" font-size="14.00">ExpTemp5</text>
</g>
<!-- StatExp0&#45;&gt;ExpTemp5 -->
<g id="edge1" class="edge"><title>StatExp0&#45;&gt;ExpTemp5</title>
<path fill="none" stroke="black" d="M506.305,-936.055C510.506,-927.887 515.636,-917.912 520.309,-908.824"/>
<polygon fill="black" stroke="black" points="523.495,-910.283 524.956,-899.789 517.27,-907.081 523.495,-910.283"/>
</g>
<!-- Temp5: T3 -->
<g id="node32" class="node"><title>Temp5: T3</title>
<ellipse fill="none" stroke="black" cx="589.591" cy="-810" rx="50.8918" ry="18"/>
<text text-anchor="middle" x="589.591" y="-806.3" font-family="Times,serif" font-size="14.00">Temp5: T3</text>
</g>
<!-- ExpTemp5&#45;&gt;Temp5: T3 -->
<g id="edge26" class="edge"><title>ExpTemp5&#45;&gt;Temp5: T3</title>
<path fill="none" stroke="black" d="M546.862,-864.411C553.766,-855.781 562.341,-845.062 569.993,-835.497"/>
<polygon fill="black" stroke="black" points="572.901,-837.465 576.415,-827.47 567.435,-833.092 572.901,-837.465"/>
</g>
<!-- ExpList0 -->
<g id="node3" class="node"><title>ExpList0</title>
<ellipse fill="none" stroke="black" cx="477.591" cy="-810" rx="42.7926" ry="18"/>
<text text-anchor="middle" x="477.591" y="-806.3" font-family="Times,serif" font-size="14.00">ExpList0</text>
</g>
<!-- ExpEseq0 -->
<g id="node4" class="node"><title>ExpEseq0</title>
<ellipse fill="none" stroke="black" cx="482.591" cy="-738" rx="46.2923" ry="18"/>
<text text-anchor="middle" x="482.591" y="-734.3" font-family="Times,serif" font-size="14.00">ExpEseq0</text>
</g>
<!-- ExpList0&#45;&gt;ExpEseq0 -->
<g id="edge2" class="edge"><title>ExpList0&#45;&gt;ExpEseq0</title>
<path fill="none" stroke="black" d="M478.826,-791.697C479.377,-783.983 480.04,-774.712 480.654,-766.112"/>
<polygon fill="black" stroke="black" points="484.147,-766.328 481.369,-756.104 477.165,-765.83 484.147,-766.328"/>
</g>
<!-- ExpTemp4 -->
<g id="node5" class="node"><title>ExpTemp4</title>
<ellipse fill="none" stroke="black" cx="541.591" cy="-666" rx="50.0912" ry="18"/>
<text text-anchor="middle" x="541.591" y="-662.3" font-family="Times,serif" font-size="14.00">ExpTemp4</text>
</g>
<!-- ExpEseq0&#45;&gt;ExpTemp4 -->
<g id="edge5" class="edge"><title>ExpEseq0&#45;&gt;ExpTemp4</title>
<path fill="none" stroke="black" d="M496.275,-720.765C503.615,-712.056 512.81,-701.147 520.995,-691.435"/>
<polygon fill="black" stroke="black" points="523.802,-693.535 527.571,-683.633 518.45,-689.024 523.802,-693.535"/>
</g>
<!-- StatMove1 -->
<g id="node7" class="node"><title>StatMove1</title>
<ellipse fill="none" stroke="black" cx="423.591" cy="-666" rx="50.0912" ry="18"/>
<text text-anchor="middle" x="423.591" y="-662.3" font-family="Times,serif" font-size="14.00">StatMove1</text>
</g>
<!-- ExpEseq0&#45;&gt;StatMove1 -->
<g id="edge4" class="edge"><title>ExpEseq0&#45;&gt;StatMove1</title>
<path fill="none" stroke="black" d="M468.906,-720.765C461.566,-712.056 452.371,-701.147 444.186,-691.435"/>
<polygon fill="black" stroke="black" points="446.731,-689.024 437.61,-683.633 441.379,-693.535 446.731,-689.024"/>
</g>
<!-- Temp4: T2 -->
<g id="node6" class="node"><title>Temp4: T2</title>
<ellipse fill="none" stroke="black" cx="541.591" cy="-594" rx="50.8918" ry="18"/>
<text text-anchor="middle" x="541.591" y="-590.3" font-family="Times,serif" font-size="14.00">Temp4: T2</text>
</g>
<!-- ExpTemp4&#45;&gt;Temp4: T2 -->
<g id="edge3" class="edge"><title>ExpTemp4&#45;&gt;Temp4: T2</title>
<path fill="none" stroke="black" d="M541.591,-647.697C541.591,-639.983 541.591,-630.712 541.591,-622.112"/>
<polygon fill="black" stroke="black" points="545.091,-622.104 541.591,-612.104 538.091,-622.104 545.091,-622.104"/>
</g>
<!-- ExpTemp1 -->
<g id="node10" class="node"><title>ExpTemp1</title>
<ellipse fill="none" stroke="black" cx="310.591" cy="-594" rx="50.0912" ry="18"/>
<text text-anchor="middle" x="310.591" y="-590.3" font-family="Times,serif" font-size="14.00">ExpTemp1</text>
</g>
<!-- StatMove1&#45;&gt;ExpTemp1 -->
<g id="edge7" class="edge"><title>StatMove1&#45;&gt;ExpTemp1</title>
<path fill="none" stroke="black" d="M399.626,-650.155C383.296,-640.039 361.466,-626.515 343.508,-615.391"/>
<polygon fill="black" stroke="black" points="344.865,-612.115 334.52,-609.824 341.178,-618.065 344.865,-612.115"/>
</g>
<!-- ExpCall1 -->
<g id="node11" class="node"><title>ExpCall1</title>
<ellipse fill="none" stroke="black" cx="426.591" cy="-594" rx="44.393" ry="18"/>
<text text-anchor="middle" x="426.591" y="-590.3" font-family="Times,serif" font-size="14.00">ExpCall1</text>
</g>
<!-- StatMove1&#45;&gt;ExpCall1 -->
<g id="edge8" class="edge"><title>StatMove1&#45;&gt;ExpCall1</title>
<path fill="none" stroke="black" d="M424.332,-647.697C424.663,-639.983 425.06,-630.712 425.429,-622.112"/>
<polygon fill="black" stroke="black" points="428.926,-622.245 425.857,-612.104 421.932,-621.945 428.926,-622.245"/>
</g>
<!-- ExpName1 -->
<g id="node8" class="node"><title>ExpName1</title>
<ellipse fill="none" stroke="black" cx="426.591" cy="-522" rx="50.8918" ry="18"/>
<text text-anchor="middle" x="426.591" y="-518.3" font-family="Times,serif" font-size="14.00">ExpName1</text>
</g>
<!-- Label2: BBS@Start -->
<g id="node9" class="node"><title>Label2: BBS@Start</title>
<ellipse fill="none" stroke="black" cx="410.591" cy="-450" rx="81.4863" ry="18"/>
<text text-anchor="middle" x="410.591" y="-446.3" font-family="Times,serif" font-size="14.00">Label2: BBS@Start</text>
</g>
<!-- ExpName1&#45;&gt;Label2: BBS@Start -->
<g id="edge6" class="edge"><title>ExpName1&#45;&gt;Label2: BBS@Start</title>
<path fill="none" stroke="black" d="M422.635,-503.697C420.872,-495.983 418.753,-486.712 416.788,-478.112"/>
<polygon fill="black" stroke="black" points="420.14,-477.073 414.5,-468.104 413.316,-478.633 420.14,-477.073"/>
</g>
<!-- Temp1: T2 -->
<g id="node33" class="node"><title>Temp1: T2</title>
<ellipse fill="none" stroke="black" cx="307.591" cy="-522" rx="50.8918" ry="18"/>
<text text-anchor="middle" x="307.591" y="-518.3" font-family="Times,serif" font-size="14.00">Temp1: T2</text>
</g>
<!-- ExpTemp1&#45;&gt;Temp1: T2 -->
<g id="edge27" class="edge"><title>ExpTemp1&#45;&gt;Temp1: T2</title>
<path fill="none" stroke="black" d="M309.849,-575.697C309.518,-567.983 309.121,-558.712 308.753,-550.112"/>
<polygon fill="black" stroke="black" points="312.249,-549.945 308.324,-540.104 305.255,-550.245 312.249,-549.945"/>
</g>
<!-- ExpCall1&#45;&gt;ExpName1 -->
<g id="edge21" class="edge"><title>ExpCall1&#45;&gt;ExpName1</title>
<path fill="none" stroke="black" d="M426.591,-575.697C426.591,-567.983 426.591,-558.712 426.591,-550.112"/>
<polygon fill="black" stroke="black" points="430.091,-550.104 426.591,-540.104 423.091,-550.104 430.091,-550.104"/>
</g>
<!-- ExpList1 -->
<g id="node14" class="node"><title>ExpList1</title>
<ellipse fill="none" stroke="black" cx="555.591" cy="-522" rx="42.7926" ry="18"/>
<text text-anchor="middle" x="555.591" y="-518.3" font-family="Times,serif" font-size="14.00">ExpList1</text>
</g>
<!-- ExpCall1&#45;&gt;ExpList1 -->
<g id="edge22" class="edge"><title>ExpCall1&#45;&gt;ExpList1</title>
<path fill="none" stroke="black" d="M452.077,-579.17C471.865,-568.432 499.502,-553.436 521.241,-541.639"/>
<polygon fill="black" stroke="black" points="523.037,-544.647 530.157,-536.801 519.699,-538.494 523.037,-544.647"/>
</g>
<!-- ExpConst1 -->
<g id="node12" class="node"><title>ExpConst1</title>
<ellipse fill="none" stroke="black" cx="676.591" cy="-90" rx="50.0912" ry="18"/>
<text text-anchor="middle" x="676.591" y="-86.3" font-family="Times,serif" font-size="14.00">ExpConst1</text>
</g>
<!-- Value1: 4 -->
<g id="node13" class="node"><title>Value1: 4</title>
<ellipse fill="none" stroke="black" cx="676.591" cy="-18" rx="45.4919" ry="18"/>
<text text-anchor="middle" x="676.591" y="-14.3" font-family="Times,serif" font-size="14.00">Value1: 4</text>
</g>
<!-- ExpConst1&#45;&gt;Value1: 4 -->
<g id="edge9" class="edge"><title>ExpConst1&#45;&gt;Value1: 4</title>
<path fill="none" stroke="black" d="M676.591,-71.6966C676.591,-63.9827 676.591,-54.7125 676.591,-46.1124"/>
<polygon fill="black" stroke="black" points="680.091,-46.1043 676.591,-36.1043 673.091,-46.1044 680.091,-46.1043"/>
</g>
<!-- ExpEseq1 -->
<g id="node15" class="node"><title>ExpEseq1</title>
<ellipse fill="none" stroke="black" cx="555.591" cy="-450" rx="46.2923" ry="18"/>
<text text-anchor="middle" x="555.591" y="-446.3" font-family="Times,serif" font-size="14.00">ExpEseq1</text>
</g>
<!-- ExpList1&#45;&gt;ExpEseq1 -->
<g id="edge10" class="edge"><title>ExpList1&#45;&gt;ExpEseq1</title>
<path fill="none" stroke="black" d="M555.591,-503.697C555.591,-495.983 555.591,-486.712 555.591,-478.112"/>
<polygon fill="black" stroke="black" points="559.091,-478.104 555.591,-468.104 552.091,-478.104 559.091,-478.104"/>
</g>
<!-- ExpConst2 -->
<g id="node16" class="node"><title>ExpConst2</title>
<ellipse fill="none" stroke="black" cx="671.591" cy="-450" rx="50.0912" ry="18"/>
<text text-anchor="middle" x="671.591" y="-446.3" font-family="Times,serif" font-size="14.00">ExpConst2</text>
</g>
<!-- ExpList1&#45;&gt;ExpConst2 -->
<g id="edge11" class="edge"><title>ExpList1&#45;&gt;ExpConst2</title>
<path fill="none" stroke="black" d="M579.065,-506.834C596.096,-496.557 619.372,-482.511 638.317,-471.079"/>
<polygon fill="black" stroke="black" points="640.196,-474.033 646.95,-465.869 636.58,-468.039 640.196,-474.033"/>
</g>
<!-- StatMove2 -->
<g id="node30" class="node"><title>StatMove2</title>
<ellipse fill="none" stroke="black" cx="437.591" cy="-378" rx="50.0912" ry="18"/>
<text text-anchor="middle" x="437.591" y="-374.3" font-family="Times,serif" font-size="14.00">StatMove2</text>
</g>
<!-- ExpEseq1&#45;&gt;StatMove2 -->
<g id="edge35" class="edge"><title>ExpEseq1&#45;&gt;StatMove2</title>
<path fill="none" stroke="black" d="M531.141,-434.496C513.774,-424.194 490.242,-410.234 471.124,-398.893"/>
<polygon fill="black" stroke="black" points="472.801,-395.818 462.415,-393.726 469.23,-401.839 472.801,-395.818"/>
</g>
<!-- ExpTemp3 -->
<g id="node39" class="node"><title>ExpTemp3</title>
<ellipse fill="none" stroke="black" cx="555.591" cy="-378" rx="50.0912" ry="18"/>
<text text-anchor="middle" x="555.591" y="-374.3" font-family="Times,serif" font-size="14.00">ExpTemp3</text>
</g>
<!-- ExpEseq1&#45;&gt;ExpTemp3 -->
<g id="edge36" class="edge"><title>ExpEseq1&#45;&gt;ExpTemp3</title>
<path fill="none" stroke="black" d="M555.591,-431.697C555.591,-423.983 555.591,-414.712 555.591,-406.112"/>
<polygon fill="black" stroke="black" points="559.091,-406.104 555.591,-396.104 552.091,-406.104 559.091,-406.104"/>
</g>
<!-- Value2: 10 -->
<g id="node41" class="node"><title>Value2: 10</title>
<ellipse fill="none" stroke="black" cx="673.591" cy="-378" rx="50.0912" ry="18"/>
<text text-anchor="middle" x="673.591" y="-374.3" font-family="Times,serif" font-size="14.00">Value2: 10</text>
</g>
<!-- ExpConst2&#45;&gt;Value2: 10 -->
<g id="edge40" class="edge"><title>ExpConst2&#45;&gt;Value2: 10</title>
<path fill="none" stroke="black" d="M672.085,-431.697C672.305,-423.983 672.57,-414.712 672.816,-406.112"/>
<polygon fill="black" stroke="black" points="676.315,-406.2 673.102,-396.104 669.318,-406 676.315,-406.2"/>
</g>
<!-- ExpCall0 -->
<g id="node17" class="node"><title>ExpCall0</title>
<ellipse fill="none" stroke="black" cx="393.591" cy="-882" rx="44.393" ry="18"/>
<text text-anchor="middle" x="393.591" y="-878.3" font-family="Times,serif" font-size="14.00">ExpCall0</text>
</g>
<!-- ExpCall0&#45;&gt;ExpList0 -->
<g id="edge13" class="edge"><title>ExpCall0&#45;&gt;ExpList0</title>
<path fill="none" stroke="black" d="M412.233,-865.465C423.652,-855.949 438.448,-843.619 451.074,-833.097"/>
<polygon fill="black" stroke="black" points="453.559,-835.583 459,-826.492 449.077,-830.205 453.559,-835.583"/>
</g>
<!-- ExpName0 -->
<g id="node18" class="node"><title>ExpName0</title>
<ellipse fill="none" stroke="black" cx="365.591" cy="-810" rx="50.8918" ry="18"/>
<text text-anchor="middle" x="365.591" y="-806.3" font-family="Times,serif" font-size="14.00">ExpName0</text>
</g>
<!-- ExpCall0&#45;&gt;ExpName0 -->
<g id="edge12" class="edge"><title>ExpCall0&#45;&gt;ExpName0</title>
<path fill="none" stroke="black" d="M386.813,-864.055C383.661,-856.176 379.837,-846.617 376.308,-837.794"/>
<polygon fill="black" stroke="black" points="379.464,-836.26 372.501,-828.275 372.965,-838.86 379.464,-836.26"/>
</g>
<!-- Label1: print -->
<g id="node19" class="node"><title>Label1: print</title>
<ellipse fill="none" stroke="black" cx="361.591" cy="-738" rx="56.59" ry="18"/>
<text text-anchor="middle" x="361.591" y="-734.3" font-family="Times,serif" font-size="14.00">Label1: print</text>
</g>
<!-- ExpName0&#45;&gt;Label1: print -->
<g id="edge14" class="edge"><title>ExpName0&#45;&gt;Label1: print</title>
<path fill="none" stroke="black" d="M364.602,-791.697C364.161,-783.983 363.631,-774.712 363.14,-766.112"/>
<polygon fill="black" stroke="black" points="366.633,-765.888 362.568,-756.104 359.644,-766.288 366.633,-765.888"/>
</g>
<!-- StatLabel0 -->
<g id="node20" class="node"><title>StatLabel0</title>
<ellipse fill="none" stroke="black" cx="170.591" cy="-954" rx="48.9926" ry="18"/>
<text text-anchor="middle" x="170.591" y="-950.3" font-family="Times,serif" font-size="14.00">StatLabel0</text>
</g>
<!-- Label0: BubbleSort@main -->
<g id="node21" class="node"><title>Label0: BubbleSort@main</title>
<ellipse fill="none" stroke="black" cx="106.591" cy="-882" rx="106.681" ry="18"/>
<text text-anchor="middle" x="106.591" y="-878.3" font-family="Times,serif" font-size="14.00">Label0: BubbleSort@main</text>
</g>
<!-- StatLabel0&#45;&gt;Label0: BubbleSort@main -->
<g id="edge15" class="edge"><title>StatLabel0&#45;&gt;Label0: BubbleSort@main</title>
<path fill="none" stroke="black" d="M155.747,-936.765C147.821,-928.096 137.903,-917.248 129.055,-907.57"/>
<polygon fill="black" stroke="black" points="131.578,-905.143 122.247,-900.124 126.411,-909.866 131.578,-905.143"/>
</g>
<!-- StatList0 -->
<g id="node22" class="node"><title>StatList0</title>
<ellipse fill="none" stroke="black" cx="316.591" cy="-1026" rx="42.4939" ry="18"/>
<text text-anchor="middle" x="316.591" y="-1022.3" font-family="Times,serif" font-size="14.00">StatList0</text>
</g>
<!-- StatList0&#45;&gt;StatExp0 -->
<g id="edge18" class="edge"><title>StatList0&#45;&gt;StatExp0</title>
<path fill="none" stroke="black" d="M346.886,-1013.28C377.296,-1001.52 424.303,-983.343 457.725,-970.418"/>
<polygon fill="black" stroke="black" points="459.132,-973.626 467.196,-966.755 456.607,-967.097 459.132,-973.626"/>
</g>
<!-- StatList0&#45;&gt;StatLabel0 -->
<g id="edge16" class="edge"><title>StatList0&#45;&gt;StatLabel0</title>
<path fill="none" stroke="black" d="M289.471,-1012C266.657,-1001.06 233.788,-985.3 208.391,-973.124"/>
<polygon fill="black" stroke="black" points="209.591,-969.817 199.06,-968.65 206.564,-976.129 209.591,-969.817"/>
</g>
<!-- StatMove0 -->
<g id="node23" class="node"><title>StatMove0</title>
<ellipse fill="none" stroke="black" cx="316.591" cy="-954" rx="50.0912" ry="18"/>
<text text-anchor="middle" x="316.591" y="-950.3" font-family="Times,serif" font-size="14.00">StatMove0</text>
</g>
<!-- StatList0&#45;&gt;StatMove0 -->
<g id="edge17" class="edge"><title>StatList0&#45;&gt;StatMove0</title>
<path fill="none" stroke="black" d="M316.591,-1007.7C316.591,-999.983 316.591,-990.712 316.591,-982.112"/>
<polygon fill="black" stroke="black" points="320.091,-982.104 316.591,-972.104 313.091,-982.104 320.091,-982.104"/>
</g>
<!-- StatMove0&#45;&gt;ExpCall0 -->
<g id="edge34" class="edge"><title>StatMove0&#45;&gt;ExpCall0</title>
<path fill="none" stroke="black" d="M334.063,-937.116C344.302,-927.808 357.403,-915.898 368.706,-905.622"/>
<polygon fill="black" stroke="black" points="371.142,-908.138 376.187,-898.821 366.433,-902.958 371.142,-908.138"/>
</g>
<!-- ExpTemp0 -->
<g id="node24" class="node"><title>ExpTemp0</title>
<ellipse fill="none" stroke="black" cx="281.591" cy="-882" rx="50.0912" ry="18"/>
<text text-anchor="middle" x="281.591" y="-878.3" font-family="Times,serif" font-size="14.00">ExpTemp0</text>
</g>
<!-- StatMove0&#45;&gt;ExpTemp0 -->
<g id="edge33" class="edge"><title>StatMove0&#45;&gt;ExpTemp0</title>
<path fill="none" stroke="black" d="M308.118,-936.055C304.034,-927.887 299.046,-917.912 294.503,-908.824"/>
<polygon fill="black" stroke="black" points="297.588,-907.168 289.985,-899.789 291.327,-910.299 297.588,-907.168"/>
</g>
<!-- Temp0: T3 -->
<g id="node25" class="node"><title>Temp0: T3</title>
<ellipse fill="none" stroke="black" cx="246.591" cy="-810" rx="50.8918" ry="18"/>
<text text-anchor="middle" x="246.591" y="-806.3" font-family="Times,serif" font-size="14.00">Temp0: T3</text>
</g>
<!-- ExpTemp0&#45;&gt;Temp0: T3 -->
<g id="edge19" class="edge"><title>ExpTemp0&#45;&gt;Temp0: T3</title>
<path fill="none" stroke="black" d="M273.118,-864.055C269.034,-855.887 264.046,-845.912 259.503,-836.824"/>
<polygon fill="black" stroke="black" points="262.588,-835.168 254.985,-827.789 256.327,-838.299 262.588,-835.168"/>
</g>
<!-- ExpList2 -->
<g id="node26" class="node"><title>ExpList2</title>
<ellipse fill="none" stroke="black" cx="564.591" cy="-234" rx="42.7926" ry="18"/>
<text text-anchor="middle" x="564.591" y="-230.3" font-family="Times,serif" font-size="14.00">ExpList2</text>
</g>
<!-- ExpBinary0 -->
<g id="node27" class="node"><title>ExpBinary0</title>
<ellipse fill="none" stroke="black" cx="570.591" cy="-162" rx="53.0913" ry="18"/>
<text text-anchor="middle" x="570.591" y="-158.3" font-family="Times,serif" font-size="14.00">ExpBinary0</text>
</g>
<!-- ExpList2&#45;&gt;ExpBinary0 -->
<g id="edge20" class="edge"><title>ExpList2&#45;&gt;ExpBinary0</title>
<path fill="none" stroke="black" d="M566.074,-215.697C566.735,-207.983 567.529,-198.712 568.267,-190.112"/>
<polygon fill="black" stroke="black" points="571.758,-190.367 569.124,-180.104 564.783,-189.769 571.758,-190.367"/>
</g>
<!-- ExpBinary0&#45;&gt;ExpConst1 -->
<g id="edge32" class="edge"><title>ExpBinary0&#45;&gt;ExpConst1</title>
<path fill="none" stroke="black" d="M593.853,-145.638C608.868,-135.723 628.59,-122.698 645.013,-111.853"/>
<polygon fill="black" stroke="black" points="647.331,-114.517 653.747,-106.085 643.474,-108.675 647.331,-114.517"/>
</g>
<!-- ExpConst0 -->
<g id="node36" class="node"><title>ExpConst0</title>
<ellipse fill="none" stroke="black" cx="464.591" cy="-90" rx="50.0912" ry="18"/>
<text text-anchor="middle" x="464.591" y="-86.3" font-family="Times,serif" font-size="14.00">ExpConst0</text>
</g>
<!-- ExpBinary0&#45;&gt;ExpConst0 -->
<g id="edge30" class="edge"><title>ExpBinary0&#45;&gt;ExpConst0</title>
<path fill="none" stroke="black" d="M547.328,-145.638C532.314,-135.723 512.591,-122.698 496.168,-111.853"/>
<polygon fill="black" stroke="black" points="497.707,-108.675 487.434,-106.085 493.85,-114.517 497.707,-108.675"/>
</g>
<!-- Times0 -->
<g id="node38" class="node"><title>Times0</title>
<ellipse fill="none" stroke="black" cx="570.591" cy="-90" rx="37.8943" ry="18"/>
<text text-anchor="middle" x="570.591" y="-86.3" font-family="Times,serif" font-size="14.00">Times0</text>
</g>
<!-- ExpBinary0&#45;&gt;Times0 -->
<g id="edge31" class="edge"><title>ExpBinary0&#45;&gt;Times0</title>
<path fill="none" stroke="black" d="M570.591,-143.697C570.591,-135.983 570.591,-126.712 570.591,-118.112"/>
<polygon fill="black" stroke="black" points="574.091,-118.104 570.591,-108.104 567.091,-118.104 574.091,-118.104"/>
</g>
<!-- ExpTemp2 -->
<g id="node28" class="node"><title>ExpTemp2</title>
<ellipse fill="none" stroke="black" cx="324.591" cy="-306" rx="50.0912" ry="18"/>
<text text-anchor="middle" x="324.591" y="-302.3" font-family="Times,serif" font-size="14.00">ExpTemp2</text>
</g>
<!-- Temp2: T1 -->
<g id="node29" class="node"><title>Temp2: T1</title>
<ellipse fill="none" stroke="black" cx="321.591" cy="-234" rx="50.8918" ry="18"/>
<text text-anchor="middle" x="321.591" y="-230.3" font-family="Times,serif" font-size="14.00">Temp2: T1</text>
</g>
<!-- ExpTemp2&#45;&gt;Temp2: T1 -->
<g id="edge23" class="edge"><title>ExpTemp2&#45;&gt;Temp2: T1</title>
<path fill="none" stroke="black" d="M323.849,-287.697C323.518,-279.983 323.121,-270.712 322.753,-262.112"/>
<polygon fill="black" stroke="black" points="326.249,-261.945 322.324,-252.104 319.255,-262.245 326.249,-261.945"/>
</g>
<!-- StatMove2&#45;&gt;ExpTemp2 -->
<g id="edge24" class="edge"><title>StatMove2&#45;&gt;ExpTemp2</title>
<path fill="none" stroke="black" d="M413.626,-362.155C397.296,-352.039 375.466,-338.515 357.508,-327.391"/>
<polygon fill="black" stroke="black" points="358.865,-324.115 348.52,-321.824 355.178,-330.065 358.865,-324.115"/>
</g>
<!-- ExpCall2 -->
<g id="node31" class="node"><title>ExpCall2</title>
<ellipse fill="none" stroke="black" cx="440.591" cy="-306" rx="44.393" ry="18"/>
<text text-anchor="middle" x="440.591" y="-302.3" font-family="Times,serif" font-size="14.00">ExpCall2</text>
</g>
<!-- StatMove2&#45;&gt;ExpCall2 -->
<g id="edge25" class="edge"><title>StatMove2&#45;&gt;ExpCall2</title>
<path fill="none" stroke="black" d="M438.332,-359.697C438.663,-351.983 439.06,-342.712 439.429,-334.112"/>
<polygon fill="black" stroke="black" points="442.926,-334.245 439.857,-324.104 435.932,-333.945 442.926,-334.245"/>
</g>
<!-- ExpCall2&#45;&gt;ExpList2 -->
<g id="edge39" class="edge"><title>ExpCall2&#45;&gt;ExpList2</title>
<path fill="none" stroke="black" d="M465.386,-291.003C484.225,-280.368 510.337,-265.627 531.042,-253.939"/>
<polygon fill="black" stroke="black" points="532.851,-256.937 539.838,-248.973 529.409,-250.841 532.851,-256.937"/>
</g>
<!-- ExpName2 -->
<g id="node34" class="node"><title>ExpName2</title>
<ellipse fill="none" stroke="black" cx="440.591" cy="-234" rx="50.8918" ry="18"/>
<text text-anchor="middle" x="440.591" y="-230.3" font-family="Times,serif" font-size="14.00">ExpName2</text>
</g>
<!-- ExpCall2&#45;&gt;ExpName2 -->
<g id="edge38" class="edge"><title>ExpCall2&#45;&gt;ExpName2</title>
<path fill="none" stroke="black" d="M440.591,-287.697C440.591,-279.983 440.591,-270.712 440.591,-262.112"/>
<polygon fill="black" stroke="black" points="444.091,-262.104 440.591,-252.104 437.091,-262.104 444.091,-262.104"/>
</g>
<!-- Label3: malloc -->
<g id="node35" class="node"><title>Label3: malloc</title>
<ellipse fill="none" stroke="black" cx="434.591" cy="-162" rx="64.189" ry="18"/>
<text text-anchor="middle" x="434.591" y="-158.3" font-family="Times,serif" font-size="14.00">Label3: malloc</text>
</g>
<!-- ExpName2&#45;&gt;Label3: malloc -->
<g id="edge28" class="edge"><title>ExpName2&#45;&gt;Label3: malloc</title>
<path fill="none" stroke="black" d="M439.107,-215.697C438.446,-207.983 437.652,-198.712 436.914,-190.112"/>
<polygon fill="black" stroke="black" points="440.398,-189.769 436.057,-180.104 433.424,-190.367 440.398,-189.769"/>
</g>
<!-- Value0: 2 -->
<g id="node37" class="node"><title>Value0: 2</title>
<ellipse fill="none" stroke="black" cx="464.591" cy="-18" rx="45.4919" ry="18"/>
<text text-anchor="middle" x="464.591" y="-14.3" font-family="Times,serif" font-size="14.00">Value0: 2</text>
</g>
<!-- ExpConst0&#45;&gt;Value0: 2 -->
<g id="edge29" class="edge"><title>ExpConst0&#45;&gt;Value0: 2</title>
<path fill="none" stroke="black" d="M464.591,-71.6966C464.591,-63.9827 464.591,-54.7125 464.591,-46.1124"/>
<polygon fill="black" stroke="black" points="468.091,-46.1043 464.591,-36.1043 461.091,-46.1044 468.091,-46.1043"/>
</g>
<!-- Temp3: T1 -->
<g id="node40" class="node"><title>Temp3: T1</title>
<ellipse fill="none" stroke="black" cx="555.591" cy="-306" rx="50.8918" ry="18"/>
<text text-anchor="middle" x="555.591" y="-302.3" font-family="Times,serif" font-size="14.00">Temp3: T1</text>
</g>
<!-- ExpTemp3&#45;&gt;Temp3: T1 -->
<g id="edge37" class="edge"><title>ExpTemp3&#45;&gt;Temp3: T1</title>
<path fill="none" stroke="black" d="M555.591,-359.697C555.591,-351.983 555.591,-342.712 555.591,-334.112"/>
<polygon fill="black" stroke="black" points="559.091,-334.104 555.591,-324.104 552.091,-334.104 559.091,-334.104"/>
</g>
</g>
</svg>
