<?xml version="1.0" encoding="UTF-8" standalone="no"?>
<!DOCTYPE svg PUBLIC "-//W3C//DTD SVG 1.1//EN"
 "http://www.w3.org/Graphics/SVG/1.1/DTD/svg11.dtd">
<!-- Generated by graphviz version 2.38.0 (20140413.2041)
 -->
<!-- Title: %3 Pages: 1 -->
<svg width="648pt" height="692pt"
 viewBox="0.00 0.00 648.29 692.00" xmlns="http://www.w3.org/2000/svg" xmlns:xlink="http://www.w3.org/1999/xlink">
<g id="graph0" class="graph" transform="scale(1 1) rotate(0) translate(4 688)">
<title>%3</title>
<polygon fill="white" stroke="none" points="-4,4 -4,-688 644.286,-688 644.286,4 -4,4"/>
<!-- ExpTemp3 -->
<g id="node1" class="node"><title>ExpTemp3</title>
<ellipse fill="none" stroke="black" cx="561.591" cy="-522" rx="50.0912" ry="18"/>
<text text-anchor="middle" x="561.591" y="-518.3" font-family="Times,serif" font-size="14.00">ExpTemp3</text>
</g>
<!-- Temp3: T2 -->
<g id="node2" class="node"><title>Temp3: T2</title>
<ellipse fill="none" stroke="black" cx="589.591" cy="-450" rx="50.8918" ry="18"/>
<text text-anchor="middle" x="589.591" y="-446.3" font-family="Times,serif" font-size="14.00">Temp3: T2</text>
</g>
<!-- ExpTemp3&#45;&gt;Temp3: T2 -->
<g id="edge1" class="edge"><title>ExpTemp3&#45;&gt;Temp3: T2</title>
<path fill="none" stroke="black" d="M568.369,-504.055C571.52,-496.176 575.344,-486.617 578.873,-477.794"/>
<polygon fill="black" stroke="black" points="582.216,-478.86 582.68,-468.275 575.717,-476.26 582.216,-478.86"/>
</g>
<!-- ExpTemp2 -->
<g id="node3" class="node"><title>ExpTemp2</title>
<ellipse fill="none" stroke="black" cx="541.591" cy="-306" rx="50.0912" ry="18"/>
<text text-anchor="middle" x="541.591" y="-302.3" font-family="Times,serif" font-size="14.00">ExpTemp2</text>
</g>
<!-- Temp2: T1 -->
<g id="node4" class="node"><title>Temp2: T1</title>
<ellipse fill="none" stroke="black" cx="541.591" cy="-234" rx="50.8918" ry="18"/>
<text text-anchor="middle" x="541.591" y="-230.3" font-family="Times,serif" font-size="14.00">Temp2: T1</text>
</g>
<!-- ExpTemp2&#45;&gt;Temp2: T1 -->
<g id="edge2" class="edge"><title>ExpTemp2&#45;&gt;Temp2: T1</title>
<path fill="none" stroke="black" d="M541.591,-287.697C541.591,-279.983 541.591,-270.712 541.591,-262.112"/>
<polygon fill="black" stroke="black" points="545.091,-262.104 541.591,-252.104 538.091,-262.104 545.091,-262.104"/>
</g>
<!-- ExpEseq0 -->
<g id="node5" class="node"><title>ExpEseq0</title>
<ellipse fill="none" stroke="black" cx="482.591" cy="-378" rx="46.2923" ry="18"/>
<text text-anchor="middle" x="482.591" y="-374.3" font-family="Times,serif" font-size="14.00">ExpEseq0</text>
</g>
<!-- ExpEseq0&#45;&gt;ExpTemp2 -->
<g id="edge4" class="edge"><title>ExpEseq0&#45;&gt;ExpTemp2</title>
<path fill="none" stroke="black" d="M496.275,-360.765C503.615,-352.056 512.81,-341.147 520.995,-331.435"/>
<polygon fill="black" stroke="black" points="523.802,-333.535 527.571,-323.633 518.45,-329.024 523.802,-333.535"/>
</g>
<!-- StatMove1 -->
<g id="node6" class="node"><title>StatMove1</title>
<ellipse fill="none" stroke="black" cx="423.591" cy="-306" rx="50.0912" ry="18"/>
<text text-anchor="middle" x="423.591" y="-302.3" font-family="Times,serif" font-size="14.00">StatMove1</text>
</g>
<!-- ExpEseq0&#45;&gt;StatMove1 -->
<g id="edge3" class="edge"><title>ExpEseq0&#45;&gt;StatMove1</title>
<path fill="none" stroke="black" d="M468.906,-360.765C461.566,-352.056 452.371,-341.147 444.186,-331.435"/>
<polygon fill="black" stroke="black" points="446.731,-329.024 437.61,-323.633 441.379,-333.535 446.731,-329.024"/>
</g>
<!-- ExpCall1 -->
<g id="node13" class="node"><title>ExpCall1</title>
<ellipse fill="none" stroke="black" cx="426.591" cy="-234" rx="44.393" ry="18"/>
<text text-anchor="middle" x="426.591" y="-230.3" font-family="Times,serif" font-size="14.00">ExpCall1</text>
</g>
<!-- StatMove1&#45;&gt;ExpCall1 -->
<g id="edge23" class="edge"><title>StatMove1&#45;&gt;ExpCall1</title>
<path fill="none" stroke="black" d="M424.332,-287.697C424.663,-279.983 425.06,-270.712 425.429,-262.112"/>
<polygon fill="black" stroke="black" points="428.926,-262.245 425.857,-252.104 421.932,-261.945 428.926,-262.245"/>
</g>
<!-- ExpTemp1 -->
<g id="node23" class="node"><title>ExpTemp1</title>
<ellipse fill="none" stroke="black" cx="310.591" cy="-234" rx="50.0912" ry="18"/>
<text text-anchor="middle" x="310.591" y="-230.3" font-family="Times,serif" font-size="14.00">ExpTemp1</text>
</g>
<!-- StatMove1&#45;&gt;ExpTemp1 -->
<g id="edge22" class="edge"><title>StatMove1&#45;&gt;ExpTemp1</title>
<path fill="none" stroke="black" d="M399.626,-290.155C383.296,-280.039 361.466,-266.515 343.508,-255.391"/>
<polygon fill="black" stroke="black" points="344.865,-252.115 334.52,-249.824 341.178,-258.065 344.865,-252.115"/>
</g>
<!-- ExpConst0 -->
<g id="node7" class="node"><title>ExpConst0</title>
<ellipse fill="none" stroke="black" cx="566.591" cy="-90" rx="50.0912" ry="18"/>
<text text-anchor="middle" x="566.591" y="-86.3" font-family="Times,serif" font-size="14.00">ExpConst0</text>
</g>
<!-- Value0: 10 -->
<g id="node8" class="node"><title>Value0: 10</title>
<ellipse fill="none" stroke="black" cx="566.591" cy="-18" rx="50.0912" ry="18"/>
<text text-anchor="middle" x="566.591" y="-14.3" font-family="Times,serif" font-size="14.00">Value0: 10</text>
</g>
<!-- ExpConst0&#45;&gt;Value0: 10 -->
<g id="edge5" class="edge"><title>ExpConst0&#45;&gt;Value0: 10</title>
<path fill="none" stroke="black" d="M566.591,-71.6966C566.591,-63.9827 566.591,-54.7125 566.591,-46.1124"/>
<polygon fill="black" stroke="black" points="570.091,-46.1043 566.591,-36.1043 563.091,-46.1044 570.091,-46.1043"/>
</g>
<!-- StatMove0 -->
<g id="node9" class="node"><title>StatMove0</title>
<ellipse fill="none" stroke="black" cx="309.591" cy="-594" rx="50.0912" ry="18"/>
<text text-anchor="middle" x="309.591" y="-590.3" font-family="Times,serif" font-size="14.00">StatMove0</text>
</g>
<!-- ExpTemp0 -->
<g id="node10" class="node"><title>ExpTemp0</title>
<ellipse fill="none" stroke="black" cx="281.591" cy="-522" rx="50.0912" ry="18"/>
<text text-anchor="middle" x="281.591" y="-518.3" font-family="Times,serif" font-size="14.00">ExpTemp0</text>
</g>
<!-- StatMove0&#45;&gt;ExpTemp0 -->
<g id="edge6" class="edge"><title>StatMove0&#45;&gt;ExpTemp0</title>
<path fill="none" stroke="black" d="M302.813,-576.055C299.661,-568.176 295.837,-558.617 292.308,-549.794"/>
<polygon fill="black" stroke="black" points="295.464,-548.26 288.501,-540.275 288.965,-550.86 295.464,-548.26"/>
</g>
<!-- ExpCall0 -->
<g id="node11" class="node"><title>ExpCall0</title>
<ellipse fill="none" stroke="black" cx="393.591" cy="-522" rx="44.393" ry="18"/>
<text text-anchor="middle" x="393.591" y="-518.3" font-family="Times,serif" font-size="14.00">ExpCall0</text>
</g>
<!-- StatMove0&#45;&gt;ExpCall0 -->
<g id="edge7" class="edge"><title>StatMove0&#45;&gt;ExpCall0</title>
<path fill="none" stroke="black" d="M328.651,-577.116C340.008,-567.652 354.592,-555.499 367.061,-545.108"/>
<polygon fill="black" stroke="black" points="369.453,-547.671 374.894,-538.58 364.972,-542.293 369.453,-547.671"/>
</g>
<!-- Temp0: T2 -->
<g id="node17" class="node"><title>Temp0: T2</title>
<ellipse fill="none" stroke="black" cx="246.591" cy="-450" rx="50.8918" ry="18"/>
<text text-anchor="middle" x="246.591" y="-446.3" font-family="Times,serif" font-size="14.00">Temp0: T2</text>
</g>
<!-- ExpTemp0&#45;&gt;Temp0: T2 -->
<g id="edge12" class="edge"><title>ExpTemp0&#45;&gt;Temp0: T2</title>
<path fill="none" stroke="black" d="M273.118,-504.055C269.034,-495.887 264.046,-485.912 259.503,-476.824"/>
<polygon fill="black" stroke="black" points="262.588,-475.168 254.985,-467.789 256.327,-478.299 262.588,-475.168"/>
</g>
<!-- ExpList0 -->
<g id="node12" class="node"><title>ExpList0</title>
<ellipse fill="none" stroke="black" cx="477.591" cy="-450" rx="42.7926" ry="18"/>
<text text-anchor="middle" x="477.591" y="-446.3" font-family="Times,serif" font-size="14.00">ExpList0</text>
</g>
<!-- ExpCall0&#45;&gt;ExpList0 -->
<g id="edge19" class="edge"><title>ExpCall0&#45;&gt;ExpList0</title>
<path fill="none" stroke="black" d="M412.233,-505.465C423.652,-495.949 438.448,-483.619 451.074,-473.097"/>
<polygon fill="black" stroke="black" points="453.559,-475.583 459,-466.492 449.077,-470.205 453.559,-475.583"/>
</g>
<!-- ExpName0 -->
<g id="node21" class="node"><title>ExpName0</title>
<ellipse fill="none" stroke="black" cx="365.591" cy="-450" rx="50.8918" ry="18"/>
<text text-anchor="middle" x="365.591" y="-446.3" font-family="Times,serif" font-size="14.00">ExpName0</text>
</g>
<!-- ExpCall0&#45;&gt;ExpName0 -->
<g id="edge18" class="edge"><title>ExpCall0&#45;&gt;ExpName0</title>
<path fill="none" stroke="black" d="M386.813,-504.055C383.661,-496.176 379.837,-486.617 376.308,-477.794"/>
<polygon fill="black" stroke="black" points="379.464,-476.26 372.501,-468.275 372.965,-478.86 379.464,-476.26"/>
</g>
<!-- ExpList0&#45;&gt;ExpEseq0 -->
<g id="edge8" class="edge"><title>ExpList0&#45;&gt;ExpEseq0</title>
<path fill="none" stroke="black" d="M478.826,-431.697C479.377,-423.983 480.04,-414.712 480.654,-406.112"/>
<polygon fill="black" stroke="black" points="484.147,-406.328 481.369,-396.104 477.165,-405.83 484.147,-406.328"/>
</g>
<!-- ExpName1 -->
<g id="node14" class="node"><title>ExpName1</title>
<ellipse fill="none" stroke="black" cx="426.591" cy="-162" rx="50.8918" ry="18"/>
<text text-anchor="middle" x="426.591" y="-158.3" font-family="Times,serif" font-size="14.00">ExpName1</text>
</g>
<!-- ExpCall1&#45;&gt;ExpName1 -->
<g id="edge9" class="edge"><title>ExpCall1&#45;&gt;ExpName1</title>
<path fill="none" stroke="black" d="M426.591,-215.697C426.591,-207.983 426.591,-198.712 426.591,-190.112"/>
<polygon fill="black" stroke="black" points="430.091,-190.104 426.591,-180.104 423.091,-190.104 430.091,-190.104"/>
</g>
<!-- ExpList1 -->
<g id="node15" class="node"><title>ExpList1</title>
<ellipse fill="none" stroke="black" cx="556.591" cy="-162" rx="42.7926" ry="18"/>
<text text-anchor="middle" x="556.591" y="-158.3" font-family="Times,serif" font-size="14.00">ExpList1</text>
</g>
<!-- ExpCall1&#45;&gt;ExpList1 -->
<g id="edge10" class="edge"><title>ExpCall1&#45;&gt;ExpList1</title>
<path fill="none" stroke="black" d="M452.274,-219.17C472.216,-208.432 500.067,-193.436 521.975,-181.639"/>
<polygon fill="black" stroke="black" points="523.815,-184.624 530.96,-176.801 520.496,-178.46 523.815,-184.624"/>
</g>
<!-- Label2: BBS@Start -->
<g id="node25" class="node"><title>Label2: BBS@Start</title>
<ellipse fill="none" stroke="black" cx="417.591" cy="-90" rx="81.4863" ry="18"/>
<text text-anchor="middle" x="417.591" y="-86.3" font-family="Times,serif" font-size="14.00">Label2: BBS@Start</text>
</g>
<!-- ExpName1&#45;&gt;Label2: BBS@Start -->
<g id="edge24" class="edge"><title>ExpName1&#45;&gt;Label2: BBS@Start</title>
<path fill="none" stroke="black" d="M424.366,-143.697C423.374,-135.983 422.182,-126.712 421.076,-118.112"/>
<polygon fill="black" stroke="black" points="424.536,-117.576 419.79,-108.104 417.594,-118.469 424.536,-117.576"/>
</g>
<!-- ExpList1&#45;&gt;ExpConst0 -->
<g id="edge21" class="edge"><title>ExpList1&#45;&gt;ExpConst0</title>
<path fill="none" stroke="black" d="M559.062,-143.697C560.164,-135.983 561.489,-126.712 562.717,-118.112"/>
<polygon fill="black" stroke="black" points="566.198,-118.499 564.147,-108.104 559.268,-117.509 566.198,-118.499"/>
</g>
<!-- StatExp0 -->
<g id="node16" class="node"><title>StatExp0</title>
<ellipse fill="none" stroke="black" cx="476.591" cy="-594" rx="42.7926" ry="18"/>
<text text-anchor="middle" x="476.591" y="-590.3" font-family="Times,serif" font-size="14.00">StatExp0</text>
</g>
<!-- StatExp0&#45;&gt;ExpTemp3 -->
<g id="edge11" class="edge"><title>StatExp0&#45;&gt;ExpTemp3</title>
<path fill="none" stroke="black" d="M495.455,-577.465C506.929,-568.015 521.775,-555.79 534.492,-545.316"/>
<polygon fill="black" stroke="black" points="536.991,-547.793 542.485,-538.734 532.541,-542.389 536.991,-547.793"/>
</g>
<!-- StatList0 -->
<g id="node18" class="node"><title>StatList0</title>
<ellipse fill="none" stroke="black" cx="309.591" cy="-666" rx="42.4939" ry="18"/>
<text text-anchor="middle" x="309.591" y="-662.3" font-family="Times,serif" font-size="14.00">StatList0</text>
</g>
<!-- StatList0&#45;&gt;StatMove0 -->
<g id="edge14" class="edge"><title>StatList0&#45;&gt;StatMove0</title>
<path fill="none" stroke="black" d="M309.591,-647.697C309.591,-639.983 309.591,-630.712 309.591,-622.112"/>
<polygon fill="black" stroke="black" points="313.091,-622.104 309.591,-612.104 306.091,-622.104 313.091,-622.104"/>
</g>
<!-- StatList0&#45;&gt;StatExp0 -->
<g id="edge15" class="edge"><title>StatList0&#45;&gt;StatExp0</title>
<path fill="none" stroke="black" d="M338.68,-652.807C366.169,-641.284 407.595,-623.92 437.869,-611.231"/>
<polygon fill="black" stroke="black" points="439.405,-614.382 447.274,-607.288 436.699,-607.926 439.405,-614.382"/>
</g>
<!-- StatLabel0 -->
<g id="node19" class="node"><title>StatLabel0</title>
<ellipse fill="none" stroke="black" cx="163.591" cy="-594" rx="48.9926" ry="18"/>
<text text-anchor="middle" x="163.591" y="-590.3" font-family="Times,serif" font-size="14.00">StatLabel0</text>
</g>
<!-- StatList0&#45;&gt;StatLabel0 -->
<g id="edge13" class="edge"><title>StatList0&#45;&gt;StatLabel0</title>
<path fill="none" stroke="black" d="M282.471,-651.998C259.657,-641.059 226.788,-625.3 201.391,-613.124"/>
<polygon fill="black" stroke="black" points="202.591,-609.817 192.06,-608.65 199.564,-616.129 202.591,-609.817"/>
</g>
<!-- Label0: BubbleSort@main -->
<g id="node20" class="node"><title>Label0: BubbleSort@main</title>
<ellipse fill="none" stroke="black" cx="106.591" cy="-522" rx="106.681" ry="18"/>
<text text-anchor="middle" x="106.591" y="-518.3" font-family="Times,serif" font-size="14.00">Label0: BubbleSort@main</text>
</g>
<!-- StatLabel0&#45;&gt;Label0: BubbleSort@main -->
<g id="edge16" class="edge"><title>StatLabel0&#45;&gt;Label0: BubbleSort@main</title>
<path fill="none" stroke="black" d="M150.082,-576.411C143.157,-567.906 134.579,-557.372 126.877,-547.914"/>
<polygon fill="black" stroke="black" points="129.426,-545.501 120.398,-539.956 123.998,-549.921 129.426,-545.501"/>
</g>
<!-- Label1: print -->
<g id="node22" class="node"><title>Label1: print</title>
<ellipse fill="none" stroke="black" cx="361.591" cy="-378" rx="56.59" ry="18"/>
<text text-anchor="middle" x="361.591" y="-374.3" font-family="Times,serif" font-size="14.00">Label1: print</text>
</g>
<!-- ExpName0&#45;&gt;Label1: print -->
<g id="edge17" class="edge"><title>ExpName0&#45;&gt;Label1: print</title>
<path fill="none" stroke="black" d="M364.602,-431.697C364.161,-423.983 363.631,-414.712 363.14,-406.112"/>
<polygon fill="black" stroke="black" points="366.633,-405.888 362.568,-396.104 359.644,-406.288 366.633,-405.888"/>
</g>
<!-- Temp1: T1 -->
<g id="node24" class="node"><title>Temp1: T1</title>
<ellipse fill="none" stroke="black" cx="307.591" cy="-162" rx="50.8918" ry="18"/>
<text text-anchor="middle" x="307.591" y="-158.3" font-family="Times,serif" font-size="14.00">Temp1: T1</text>
</g>
<!-- ExpTemp1&#45;&gt;Temp1: T1 -->
<g id="edge20" class="edge"><title>ExpTemp1&#45;&gt;Temp1: T1</title>
<path fill="none" stroke="black" d="M309.849,-215.697C309.518,-207.983 309.121,-198.712 308.753,-190.112"/>
<polygon fill="black" stroke="black" points="312.249,-189.945 308.324,-180.104 305.255,-190.245 312.249,-189.945"/>
</g>
</g>
</svg>
