<?xml version="1.0" encoding="UTF-8" standalone="no"?>
<!DOCTYPE svg PUBLIC "-//W3C//DTD SVG 1.1//EN"
 "http://www.w3.org/Graphics/SVG/1.1/DTD/svg11.dtd">
<!-- Generated by graphviz version 2.38.0 (20140413.2041)
 -->
<!-- Title: %3 Pages: 1 -->
<svg width="675pt" height="476pt"
 viewBox="0.00 0.00 674.59 476.00" xmlns="http://www.w3.org/2000/svg" xmlns:xlink="http://www.w3.org/1999/xlink">
<g id="graph0" class="graph" transform="scale(1 1) rotate(0) translate(4 472)">
<title>%3</title>
<polygon fill="white" stroke="none" points="-4,4 -4,-472 670.591,-472 670.591,4 -4,4"/>
<!-- ExpConst1 -->
<g id="node1" class="node"><title>ExpConst1</title>
<ellipse fill="none" stroke="black" cx="563.645" cy="-162" rx="50.0912" ry="18"/>
<text text-anchor="middle" x="563.645" y="-158.3" font-family="Times,serif" font-size="14.00">ExpConst1</text>
</g>
<!-- Value1: 4 -->
<g id="node2" class="node"><title>Value1: 4</title>
<ellipse fill="none" stroke="black" cx="563.645" cy="-90" rx="45.4919" ry="18"/>
<text text-anchor="middle" x="563.645" y="-86.3" font-family="Times,serif" font-size="14.00">Value1: 4</text>
</g>
<!-- ExpConst1&#45;&gt;Value1: 4 -->
<g id="edge1" class="edge"><title>ExpConst1&#45;&gt;Value1: 4</title>
<path fill="none" stroke="black" d="M563.645,-143.697C563.645,-135.983 563.645,-126.712 563.645,-118.112"/>
<polygon fill="black" stroke="black" points="567.145,-118.104 563.645,-108.104 560.145,-118.104 567.145,-118.104"/>
</g>
<!-- StatCJump0 -->
<g id="node3" class="node"><title>StatCJump0</title>
<ellipse fill="none" stroke="black" cx="307.645" cy="-378" rx="53.8905" ry="18"/>
<text text-anchor="middle" x="307.645" y="-374.3" font-family="Times,serif" font-size="14.00">StatCJump0</text>
</g>
<!-- LT0 -->
<g id="node4" class="node"><title>LT0</title>
<ellipse fill="none" stroke="black" cx="156.645" cy="-306" rx="27" ry="18"/>
<text text-anchor="middle" x="156.645" y="-302.3" font-family="Times,serif" font-size="14.00">LT0</text>
</g>
<!-- StatCJump0&#45;&gt;LT0 -->
<g id="edge2" class="edge"><title>StatCJump0&#45;&gt;LT0</title>
<path fill="none" stroke="black" d="M276.859,-362.906C253.679,-352.271 221.134,-337.291 192.645,-324 190.86,-323.167 189.026,-322.309 187.177,-321.442"/>
<polygon fill="black" stroke="black" points="188.489,-318.191 177.95,-317.101 185.509,-324.525 188.489,-318.191"/>
</g>
<!-- ExpMem0 -->
<g id="node5" class="node"><title>ExpMem0</title>
<ellipse fill="none" stroke="black" cx="250.645" cy="-306" rx="48.9926" ry="18"/>
<text text-anchor="middle" x="250.645" y="-302.3" font-family="Times,serif" font-size="14.00">ExpMem0</text>
</g>
<!-- StatCJump0&#45;&gt;ExpMem0 -->
<g id="edge3" class="edge"><title>StatCJump0&#45;&gt;ExpMem0</title>
<path fill="none" stroke="black" d="M294.137,-360.411C287.109,-351.781 278.382,-341.062 270.593,-331.497"/>
<polygon fill="black" stroke="black" points="273.085,-329.014 264.057,-323.47 267.657,-333.434 273.085,-329.014"/>
</g>
<!-- ExpMem1 -->
<g id="node6" class="node"><title>ExpMem1</title>
<ellipse fill="none" stroke="black" cx="365.645" cy="-306" rx="48.9926" ry="18"/>
<text text-anchor="middle" x="365.645" y="-302.3" font-family="Times,serif" font-size="14.00">ExpMem1</text>
</g>
<!-- StatCJump0&#45;&gt;ExpMem1 -->
<g id="edge4" class="edge"><title>StatCJump0&#45;&gt;ExpMem1</title>
<path fill="none" stroke="black" d="M321.391,-360.411C328.614,-351.693 337.602,-340.845 345.588,-331.208"/>
<polygon fill="black" stroke="black" points="348.314,-333.403 351.999,-323.47 342.924,-328.937 348.314,-333.403"/>
</g>
<!-- Label1: L13 -->
<g id="node7" class="node"><title>Label1: L13</title>
<ellipse fill="none" stroke="black" cx="486.645" cy="-306" rx="53.8905" ry="18"/>
<text text-anchor="middle" x="486.645" y="-302.3" font-family="Times,serif" font-size="14.00">Label1: L13</text>
</g>
<!-- StatCJump0&#45;&gt;Label1: L13 -->
<g id="edge5" class="edge"><title>StatCJump0&#45;&gt;Label1: L13</title>
<path fill="none" stroke="black" d="M341.314,-363.834C370.316,-352.492 412.341,-336.057 443.748,-323.776"/>
<polygon fill="black" stroke="black" points="445.089,-327.009 453.128,-320.107 442.54,-320.49 445.089,-327.009"/>
</g>
<!-- Label2: L14 -->
<g id="node8" class="node"><title>Label2: L14</title>
<ellipse fill="none" stroke="black" cx="612.645" cy="-306" rx="53.8905" ry="18"/>
<text text-anchor="middle" x="612.645" y="-302.3" font-family="Times,serif" font-size="14.00">Label2: L14</text>
</g>
<!-- StatCJump0&#45;&gt;Label2: L14 -->
<g id="edge6" class="edge"><title>StatCJump0&#45;&gt;Label2: L14</title>
<path fill="none" stroke="black" d="M352.396,-367.87C401.079,-357.782 481.124,-340.738 549.645,-324 553.793,-322.987 558.085,-321.904 562.388,-320.793"/>
<polygon fill="black" stroke="black" points="563.604,-324.092 572.389,-318.171 561.829,-317.321 563.604,-324.092"/>
</g>
<!-- ExpBinary0 -->
<g id="node15" class="node"><title>ExpBinary0</title>
<ellipse fill="none" stroke="black" cx="200.645" cy="-234" rx="53.0913" ry="18"/>
<text text-anchor="middle" x="200.645" y="-230.3" font-family="Times,serif" font-size="14.00">ExpBinary0</text>
</g>
<!-- ExpMem0&#45;&gt;ExpBinary0 -->
<g id="edge18" class="edge"><title>ExpMem0&#45;&gt;ExpBinary0</title>
<path fill="none" stroke="black" d="M238.796,-288.411C232.782,-279.992 225.349,-269.585 218.646,-260.201"/>
<polygon fill="black" stroke="black" points="221.417,-258.059 212.757,-251.956 215.721,-262.128 221.417,-258.059"/>
</g>
<!-- ExpBinary1 -->
<g id="node12" class="node"><title>ExpBinary1</title>
<ellipse fill="none" stroke="black" cx="415.645" cy="-234" rx="53.0913" ry="18"/>
<text text-anchor="middle" x="415.645" y="-230.3" font-family="Times,serif" font-size="14.00">ExpBinary1</text>
</g>
<!-- ExpMem1&#45;&gt;ExpBinary1 -->
<g id="edge10" class="edge"><title>ExpMem1&#45;&gt;ExpBinary1</title>
<path fill="none" stroke="black" d="M377.495,-288.411C383.509,-279.992 390.942,-269.585 397.645,-260.201"/>
<polygon fill="black" stroke="black" points="400.569,-262.128 403.534,-251.956 394.873,-258.059 400.569,-262.128"/>
</g>
<!-- StatList0 -->
<g id="node9" class="node"><title>StatList0</title>
<ellipse fill="none" stroke="black" cx="228.645" cy="-450" rx="42.4939" ry="18"/>
<text text-anchor="middle" x="228.645" y="-446.3" font-family="Times,serif" font-size="14.00">StatList0</text>
</g>
<!-- StatList0&#45;&gt;StatCJump0 -->
<g id="edge8" class="edge"><title>StatList0&#45;&gt;StatCJump0</title>
<path fill="none" stroke="black" d="M246.178,-433.465C256.667,-424.17 270.187,-412.191 281.875,-401.835"/>
<polygon fill="black" stroke="black" points="284.451,-404.229 289.614,-394.977 279.808,-398.989 284.451,-404.229"/>
</g>
<!-- StatLabel0 -->
<g id="node10" class="node"><title>StatLabel0</title>
<ellipse fill="none" stroke="black" cx="150.645" cy="-378" rx="48.9926" ry="18"/>
<text text-anchor="middle" x="150.645" y="-374.3" font-family="Times,serif" font-size="14.00">StatLabel0</text>
</g>
<!-- StatList0&#45;&gt;StatLabel0 -->
<g id="edge7" class="edge"><title>StatList0&#45;&gt;StatLabel0</title>
<path fill="none" stroke="black" d="M211.335,-433.465C200.978,-424.17 187.63,-412.191 176.09,-401.835"/>
<polygon fill="black" stroke="black" points="178.229,-399.051 168.448,-394.977 173.553,-404.261 178.229,-399.051"/>
</g>
<!-- Label0: L12 -->
<g id="node11" class="node"><title>Label0: L12</title>
<ellipse fill="none" stroke="black" cx="57.6453" cy="-306" rx="53.8905" ry="18"/>
<text text-anchor="middle" x="57.6453" y="-302.3" font-family="Times,serif" font-size="14.00">Label0: L12</text>
</g>
<!-- StatLabel0&#45;&gt;Label0: L12 -->
<g id="edge9" class="edge"><title>StatLabel0&#45;&gt;Label0: L12</title>
<path fill="none" stroke="black" d="M130.006,-361.465C117.331,-351.925 100.899,-339.557 86.8974,-329.018"/>
<polygon fill="black" stroke="black" points="88.6435,-325.951 78.5489,-322.734 84.4338,-331.544 88.6435,-325.951"/>
</g>
<!-- ExpBinary1&#45;&gt;ExpConst1 -->
<g id="edge21" class="edge"><title>ExpBinary1&#45;&gt;ExpConst1</title>
<path fill="none" stroke="black" d="M445.24,-219.003C468.278,-208.106 500.429,-192.9 525.415,-181.082"/>
<polygon fill="black" stroke="black" points="527.063,-184.174 534.607,-176.734 524.07,-177.846 527.063,-184.174"/>
</g>
<!-- ExpMem2 -->
<g id="node19" class="node"><title>ExpMem2</title>
<ellipse fill="none" stroke="black" cx="367.645" cy="-162" rx="48.9926" ry="18"/>
<text text-anchor="middle" x="367.645" y="-158.3" font-family="Times,serif" font-size="14.00">ExpMem2</text>
</g>
<!-- ExpBinary1&#45;&gt;ExpMem2 -->
<g id="edge19" class="edge"><title>ExpBinary1&#45;&gt;ExpMem2</title>
<path fill="none" stroke="black" d="M404.27,-216.411C398.556,-208.077 391.506,-197.797 385.123,-188.488"/>
<polygon fill="black" stroke="black" points="387.814,-186.224 379.272,-179.956 382.041,-190.183 387.814,-186.224"/>
</g>
<!-- Plus1 -->
<g id="node22" class="node"><title>Plus1</title>
<ellipse fill="none" stroke="black" cx="464.645" cy="-162" rx="30.5947" ry="18"/>
<text text-anchor="middle" x="464.645" y="-158.3" font-family="Times,serif" font-size="14.00">Plus1</text>
</g>
<!-- ExpBinary1&#45;&gt;Plus1 -->
<g id="edge20" class="edge"><title>ExpBinary1&#45;&gt;Plus1</title>
<path fill="none" stroke="black" d="M427.258,-216.411C433.325,-207.744 440.866,-196.971 447.583,-187.375"/>
<polygon fill="black" stroke="black" points="450.586,-189.188 453.454,-178.988 444.852,-185.173 450.586,-189.188"/>
</g>
<!-- ExpConst0 -->
<g id="node13" class="node"><title>ExpConst0</title>
<ellipse fill="none" stroke="black" cx="250.645" cy="-162" rx="50.0912" ry="18"/>
<text text-anchor="middle" x="250.645" y="-158.3" font-family="Times,serif" font-size="14.00">ExpConst0</text>
</g>
<!-- Value0: 24 -->
<g id="node14" class="node"><title>Value0: 24</title>
<ellipse fill="none" stroke="black" cx="249.645" cy="-90" rx="50.0912" ry="18"/>
<text text-anchor="middle" x="249.645" y="-86.3" font-family="Times,serif" font-size="14.00">Value0: 24</text>
</g>
<!-- ExpConst0&#45;&gt;Value0: 24 -->
<g id="edge11" class="edge"><title>ExpConst0&#45;&gt;Value0: 24</title>
<path fill="none" stroke="black" d="M250.398,-143.697C250.288,-135.983 250.156,-126.712 250.033,-118.112"/>
<polygon fill="black" stroke="black" points="253.532,-118.053 249.89,-108.104 246.533,-118.153 253.532,-118.053"/>
</g>
<!-- ExpBinary0&#45;&gt;ExpConst0 -->
<g id="edge14" class="edge"><title>ExpBinary0&#45;&gt;ExpConst0</title>
<path fill="none" stroke="black" d="M212.495,-216.411C218.509,-207.992 225.942,-197.585 232.645,-188.201"/>
<polygon fill="black" stroke="black" points="235.569,-190.128 238.534,-179.956 229.873,-186.059 235.569,-190.128"/>
</g>
<!-- ExpTemp0 -->
<g id="node16" class="node"><title>ExpTemp0</title>
<ellipse fill="none" stroke="black" cx="52.6453" cy="-162" rx="50.0912" ry="18"/>
<text text-anchor="middle" x="52.6453" y="-158.3" font-family="Times,serif" font-size="14.00">ExpTemp0</text>
</g>
<!-- ExpBinary0&#45;&gt;ExpTemp0 -->
<g id="edge12" class="edge"><title>ExpBinary0&#45;&gt;ExpTemp0</title>
<path fill="none" stroke="black" d="M171.051,-219.003C148.013,-208.106 115.862,-192.9 90.8756,-181.082"/>
<polygon fill="black" stroke="black" points="92.2203,-177.846 81.684,-176.734 89.2274,-184.174 92.2203,-177.846"/>
</g>
<!-- Plus0 -->
<g id="node17" class="node"><title>Plus0</title>
<ellipse fill="none" stroke="black" cx="151.645" cy="-162" rx="30.5947" ry="18"/>
<text text-anchor="middle" x="151.645" y="-158.3" font-family="Times,serif" font-size="14.00">Plus0</text>
</g>
<!-- ExpBinary0&#45;&gt;Plus0 -->
<g id="edge13" class="edge"><title>ExpBinary0&#45;&gt;Plus0</title>
<path fill="none" stroke="black" d="M189.033,-216.411C182.966,-207.744 175.425,-196.971 168.708,-187.375"/>
<polygon fill="black" stroke="black" points="171.439,-185.173 162.837,-178.988 165.704,-189.188 171.439,-185.173"/>
</g>
<!-- Temp0: $fp -->
<g id="node18" class="node"><title>Temp0: $fp</title>
<ellipse fill="none" stroke="black" cx="52.6453" cy="-90" rx="52.7911" ry="18"/>
<text text-anchor="middle" x="52.6453" y="-86.3" font-family="Times,serif" font-size="14.00">Temp0: $fp</text>
</g>
<!-- ExpTemp0&#45;&gt;Temp0: $fp -->
<g id="edge15" class="edge"><title>ExpTemp0&#45;&gt;Temp0: $fp</title>
<path fill="none" stroke="black" d="M52.6453,-143.697C52.6453,-135.983 52.6453,-126.712 52.6453,-118.112"/>
<polygon fill="black" stroke="black" points="56.1454,-118.104 52.6453,-108.104 49.1454,-118.104 56.1454,-118.104"/>
</g>
<!-- ExpTemp1 -->
<g id="node20" class="node"><title>ExpTemp1</title>
<ellipse fill="none" stroke="black" cx="367.645" cy="-90" rx="50.0912" ry="18"/>
<text text-anchor="middle" x="367.645" y="-86.3" font-family="Times,serif" font-size="14.00">ExpTemp1</text>
</g>
<!-- ExpMem2&#45;&gt;ExpTemp1 -->
<g id="edge16" class="edge"><title>ExpMem2&#45;&gt;ExpTemp1</title>
<path fill="none" stroke="black" d="M367.645,-143.697C367.645,-135.983 367.645,-126.712 367.645,-118.112"/>
<polygon fill="black" stroke="black" points="371.145,-118.104 367.645,-108.104 364.145,-118.104 371.145,-118.104"/>
</g>
<!-- Temp1: $fp -->
<g id="node21" class="node"><title>Temp1: $fp</title>
<ellipse fill="none" stroke="black" cx="367.645" cy="-18" rx="52.7911" ry="18"/>
<text text-anchor="middle" x="367.645" y="-14.3" font-family="Times,serif" font-size="14.00">Temp1: $fp</text>
</g>
<!-- ExpTemp1&#45;&gt;Temp1: $fp -->
<g id="edge17" class="edge"><title>ExpTemp1&#45;&gt;Temp1: $fp</title>
<path fill="none" stroke="black" d="M367.645,-71.6966C367.645,-63.9827 367.645,-54.7125 367.645,-46.1124"/>
<polygon fill="black" stroke="black" points="371.145,-46.1043 367.645,-36.1043 364.145,-46.1044 371.145,-46.1043"/>
</g>
</g>
</svg>
