<?xml version="1.0" encoding="UTF-8" standalone="no"?>
<!DOCTYPE svg PUBLIC "-//W3C//DTD SVG 1.1//EN"
 "http://www.w3.org/Graphics/SVG/1.1/DTD/svg11.dtd">
<!-- Generated by graphviz version 2.38.0 (20140413.2041)
 -->
<!-- Title: %3 Pages: 1 -->
<svg width="1040pt" height="692pt"
 viewBox="0.00 0.00 1040.19 692.00" xmlns="http://www.w3.org/2000/svg" xmlns:xlink="http://www.w3.org/1999/xlink">
<g id="graph0" class="graph" transform="scale(1 1) rotate(0) translate(4 688)">
<title>%3</title>
<polygon fill="white" stroke="none" points="-4,4 -4,-688 1036.19,-688 1036.19,4 -4,4"/>
<!-- ExpConst3 -->
<g id="node1" class="node"><title>ExpConst3</title>
<ellipse fill="none" stroke="black" cx="843.545" cy="-450" rx="50.0912" ry="18"/>
<text text-anchor="middle" x="843.545" y="-446.3" font-family="Times,serif" font-size="14.00">ExpConst3</text>
</g>
<!-- Value3: 0 -->
<g id="node2" class="node"><title>Value3: 0</title>
<ellipse fill="none" stroke="black" cx="843.545" cy="-378" rx="45.4919" ry="18"/>
<text text-anchor="middle" x="843.545" y="-374.3" font-family="Times,serif" font-size="14.00">Value3: 0</text>
</g>
<!-- ExpConst3&#45;&gt;Value3: 0 -->
<g id="edge1" class="edge"><title>ExpConst3&#45;&gt;Value3: 0</title>
<path fill="none" stroke="black" d="M843.545,-431.697C843.545,-423.983 843.545,-414.712 843.545,-406.112"/>
<polygon fill="black" stroke="black" points="847.045,-406.104 843.545,-396.104 840.045,-406.104 847.045,-406.104"/>
</g>
<!-- StatMove1 -->
<g id="node3" class="node"><title>StatMove1</title>
<ellipse fill="none" stroke="black" cx="725.545" cy="-522" rx="50.0912" ry="18"/>
<text text-anchor="middle" x="725.545" y="-518.3" font-family="Times,serif" font-size="14.00">StatMove1</text>
</g>
<!-- StatMove1&#45;&gt;ExpConst3 -->
<g id="edge3" class="edge"><title>StatMove1&#45;&gt;ExpConst3</title>
<path fill="none" stroke="black" d="M750.282,-506.326C767.667,-496.012 791.127,-482.095 810.168,-470.8"/>
<polygon fill="black" stroke="black" points="812.026,-473.767 818.841,-465.655 808.455,-467.747 812.026,-473.767"/>
</g>
<!-- ExpTemp3 -->
<g id="node4" class="node"><title>ExpTemp3</title>
<ellipse fill="none" stroke="black" cx="725.545" cy="-450" rx="50.0912" ry="18"/>
<text text-anchor="middle" x="725.545" y="-446.3" font-family="Times,serif" font-size="14.00">ExpTemp3</text>
</g>
<!-- StatMove1&#45;&gt;ExpTemp3 -->
<g id="edge2" class="edge"><title>StatMove1&#45;&gt;ExpTemp3</title>
<path fill="none" stroke="black" d="M725.545,-503.697C725.545,-495.983 725.545,-486.712 725.545,-478.112"/>
<polygon fill="black" stroke="black" points="729.045,-478.104 725.545,-468.104 722.045,-478.104 729.045,-478.104"/>
</g>
<!-- Temp3: $rv -->
<g id="node5" class="node"><title>Temp3: $rv</title>
<ellipse fill="none" stroke="black" cx="726.545" cy="-378" rx="52.7911" ry="18"/>
<text text-anchor="middle" x="726.545" y="-374.3" font-family="Times,serif" font-size="14.00">Temp3: $rv</text>
</g>
<!-- ExpTemp3&#45;&gt;Temp3: $rv -->
<g id="edge4" class="edge"><title>ExpTemp3&#45;&gt;Temp3: $rv</title>
<path fill="none" stroke="black" d="M725.792,-431.697C725.902,-423.983 726.035,-414.712 726.158,-406.112"/>
<polygon fill="black" stroke="black" points="729.657,-406.153 726.301,-396.104 722.658,-406.053 729.657,-406.153"/>
</g>
<!-- ExpBinary0 -->
<g id="node6" class="node"><title>ExpBinary0</title>
<ellipse fill="none" stroke="black" cx="419.545" cy="-306" rx="53.0913" ry="18"/>
<text text-anchor="middle" x="419.545" y="-302.3" font-family="Times,serif" font-size="14.00">ExpBinary0</text>
</g>
<!-- ExpTemp0 -->
<g id="node7" class="node"><title>ExpTemp0</title>
<ellipse fill="none" stroke="black" cx="302.545" cy="-234" rx="50.0912" ry="18"/>
<text text-anchor="middle" x="302.545" y="-230.3" font-family="Times,serif" font-size="14.00">ExpTemp0</text>
</g>
<!-- ExpBinary0&#45;&gt;ExpTemp0 -->
<g id="edge5" class="edge"><title>ExpBinary0&#45;&gt;ExpTemp0</title>
<path fill="none" stroke="black" d="M394.446,-289.983C377.365,-279.764 354.573,-266.128 335.96,-254.992"/>
<polygon fill="black" stroke="black" points="337.58,-251.882 327.201,-249.752 333.986,-257.889 337.58,-251.882"/>
</g>
<!-- Plus0 -->
<g id="node8" class="node"><title>Plus0</title>
<ellipse fill="none" stroke="black" cx="401.545" cy="-234" rx="30.5947" ry="18"/>
<text text-anchor="middle" x="401.545" y="-230.3" font-family="Times,serif" font-size="14.00">Plus0</text>
</g>
<!-- ExpBinary0&#45;&gt;Plus0 -->
<g id="edge6" class="edge"><title>ExpBinary0&#45;&gt;Plus0</title>
<path fill="none" stroke="black" d="M415.188,-288.055C413.184,-280.261 410.756,-270.822 408.508,-262.079"/>
<polygon fill="black" stroke="black" points="411.867,-261.089 405.987,-252.275 405.088,-262.832 411.867,-261.089"/>
</g>
<!-- ExpConst1 -->
<g id="node9" class="node"><title>ExpConst1</title>
<ellipse fill="none" stroke="black" cx="500.545" cy="-234" rx="50.0912" ry="18"/>
<text text-anchor="middle" x="500.545" y="-230.3" font-family="Times,serif" font-size="14.00">ExpConst1</text>
</g>
<!-- ExpBinary0&#45;&gt;ExpConst1 -->
<g id="edge7" class="edge"><title>ExpBinary0&#45;&gt;ExpConst1</title>
<path fill="none" stroke="black" d="M438.332,-288.765C449.04,-279.511 462.623,-267.772 474.364,-257.626"/>
<polygon fill="black" stroke="black" points="476.862,-260.093 482.14,-250.906 472.285,-254.796 476.862,-260.093"/>
</g>
<!-- Temp0: $fp -->
<g id="node10" class="node"><title>Temp0: $fp</title>
<ellipse fill="none" stroke="black" cx="304.545" cy="-162" rx="52.7911" ry="18"/>
<text text-anchor="middle" x="304.545" y="-158.3" font-family="Times,serif" font-size="14.00">Temp0: $fp</text>
</g>
<!-- ExpTemp0&#45;&gt;Temp0: $fp -->
<g id="edge8" class="edge"><title>ExpTemp0&#45;&gt;Temp0: $fp</title>
<path fill="none" stroke="black" d="M303.039,-215.697C303.26,-207.983 303.525,-198.712 303.77,-190.112"/>
<polygon fill="black" stroke="black" points="307.269,-190.2 304.056,-180.104 300.272,-190 307.269,-190.2"/>
</g>
<!-- Value1: 12 -->
<g id="node30" class="node"><title>Value1: 12</title>
<ellipse fill="none" stroke="black" cx="500.545" cy="-162" rx="50.0912" ry="18"/>
<text text-anchor="middle" x="500.545" y="-158.3" font-family="Times,serif" font-size="14.00">Value1: 12</text>
</g>
<!-- ExpConst1&#45;&gt;Value1: 12 -->
<g id="edge24" class="edge"><title>ExpConst1&#45;&gt;Value1: 12</title>
<path fill="none" stroke="black" d="M500.545,-215.697C500.545,-207.983 500.545,-198.712 500.545,-190.112"/>
<polygon fill="black" stroke="black" points="504.045,-190.104 500.545,-180.104 497.045,-190.104 504.045,-190.104"/>
</g>
<!-- StatExp0 -->
<g id="node11" class="node"><title>StatExp0</title>
<ellipse fill="none" stroke="black" cx="317.545" cy="-450" rx="42.7926" ry="18"/>
<text text-anchor="middle" x="317.545" y="-446.3" font-family="Times,serif" font-size="14.00">StatExp0</text>
</g>
<!-- ExpCall0 -->
<g id="node12" class="node"><title>ExpCall0</title>
<ellipse fill="none" stroke="black" cx="181.545" cy="-378" rx="44.393" ry="18"/>
<text text-anchor="middle" x="181.545" y="-374.3" font-family="Times,serif" font-size="14.00">ExpCall0</text>
</g>
<!-- StatExp0&#45;&gt;ExpCall0 -->
<g id="edge9" class="edge"><title>StatExp0&#45;&gt;ExpCall0</title>
<path fill="none" stroke="black" d="M291.323,-435.503C270.292,-424.679 240.557,-409.374 217.337,-397.423"/>
<polygon fill="black" stroke="black" points="218.644,-394.159 208.151,-392.694 215.44,-400.383 218.644,-394.159"/>
</g>
<!-- ExpList0 -->
<g id="node13" class="node"><title>ExpList0</title>
<ellipse fill="none" stroke="black" cx="181.545" cy="-306" rx="42.7926" ry="18"/>
<text text-anchor="middle" x="181.545" y="-302.3" font-family="Times,serif" font-size="14.00">ExpList0</text>
</g>
<!-- ExpCall0&#45;&gt;ExpList0 -->
<g id="edge20" class="edge"><title>ExpCall0&#45;&gt;ExpList0</title>
<path fill="none" stroke="black" d="M181.545,-359.697C181.545,-351.983 181.545,-342.712 181.545,-334.112"/>
<polygon fill="black" stroke="black" points="185.045,-334.104 181.545,-324.104 178.045,-334.104 185.045,-334.104"/>
</g>
<!-- ExpName0 -->
<g id="node27" class="node"><title>ExpName0</title>
<ellipse fill="none" stroke="black" cx="63.545" cy="-306" rx="50.8918" ry="18"/>
<text text-anchor="middle" x="63.545" y="-302.3" font-family="Times,serif" font-size="14.00">ExpName0</text>
</g>
<!-- ExpCall0&#45;&gt;ExpName0 -->
<g id="edge19" class="edge"><title>ExpCall0&#45;&gt;ExpName0</title>
<path fill="none" stroke="black" d="M157.666,-362.834C140.341,-352.557 116.664,-338.511 97.3925,-327.079"/>
<polygon fill="black" stroke="black" points="98.9966,-323.961 88.6103,-321.869 95.4252,-329.982 98.9966,-323.961"/>
</g>
<!-- ExpConst0 -->
<g id="node14" class="node"><title>ExpConst0</title>
<ellipse fill="none" stroke="black" cx="181.545" cy="-234" rx="50.0912" ry="18"/>
<text text-anchor="middle" x="181.545" y="-230.3" font-family="Times,serif" font-size="14.00">ExpConst0</text>
</g>
<!-- ExpList0&#45;&gt;ExpConst0 -->
<g id="edge10" class="edge"><title>ExpList0&#45;&gt;ExpConst0</title>
<path fill="none" stroke="black" d="M181.545,-287.697C181.545,-279.983 181.545,-270.712 181.545,-262.112"/>
<polygon fill="black" stroke="black" points="185.045,-262.104 181.545,-252.104 178.045,-262.104 185.045,-262.104"/>
</g>
<!-- Value0: 333 -->
<g id="node18" class="node"><title>Value0: 333</title>
<ellipse fill="none" stroke="black" cx="179.545" cy="-162" rx="53.8905" ry="18"/>
<text text-anchor="middle" x="179.545" y="-158.3" font-family="Times,serif" font-size="14.00">Value0: 333</text>
</g>
<!-- ExpConst0&#45;&gt;Value0: 333 -->
<g id="edge13" class="edge"><title>ExpConst0&#45;&gt;Value0: 333</title>
<path fill="none" stroke="black" d="M181.051,-215.697C180.83,-207.983 180.565,-198.712 180.32,-190.112"/>
<polygon fill="black" stroke="black" points="183.818,-190 180.034,-180.104 176.821,-190.2 183.818,-190"/>
</g>
<!-- ExpCall1 -->
<g id="node15" class="node"><title>ExpCall1</title>
<ellipse fill="none" stroke="black" cx="611.545" cy="-378" rx="44.393" ry="18"/>
<text text-anchor="middle" x="611.545" y="-374.3" font-family="Times,serif" font-size="14.00">ExpCall1</text>
</g>
<!-- ExpName1 -->
<g id="node16" class="node"><title>ExpName1</title>
<ellipse fill="none" stroke="black" cx="620.545" cy="-306" rx="50.8918" ry="18"/>
<text text-anchor="middle" x="620.545" y="-302.3" font-family="Times,serif" font-size="14.00">ExpName1</text>
</g>
<!-- ExpCall1&#45;&gt;ExpName1 -->
<g id="edge11" class="edge"><title>ExpCall1&#45;&gt;ExpName1</title>
<path fill="none" stroke="black" d="M613.77,-359.697C614.761,-351.983 615.953,-342.712 617.059,-334.112"/>
<polygon fill="black" stroke="black" points="620.542,-334.469 618.346,-324.104 613.599,-333.576 620.542,-334.469"/>
</g>
<!-- ExpList1 -->
<g id="node17" class="node"><title>ExpList1</title>
<ellipse fill="none" stroke="black" cx="810.545" cy="-306" rx="42.7926" ry="18"/>
<text text-anchor="middle" x="810.545" y="-302.3" font-family="Times,serif" font-size="14.00">ExpList1</text>
</g>
<!-- ExpCall1&#45;&gt;ExpList1 -->
<g id="edge12" class="edge"><title>ExpCall1&#45;&gt;ExpList1</title>
<path fill="none" stroke="black" d="M643.961,-365.597C678.133,-353.577 732.064,-334.606 769.257,-321.523"/>
<polygon fill="black" stroke="black" points="770.529,-324.786 778.801,-318.166 768.207,-318.183 770.529,-324.786"/>
</g>
<!-- Label2: Visitor@visit -->
<g id="node31" class="node"><title>Label2: Visitor@visit</title>
<ellipse fill="none" stroke="black" cx="656.545" cy="-234" rx="87.9851" ry="18"/>
<text text-anchor="middle" x="656.545" y="-230.3" font-family="Times,serif" font-size="14.00">Label2: Visitor@visit</text>
</g>
<!-- ExpName1&#45;&gt;Label2: Visitor@visit -->
<g id="edge25" class="edge"><title>ExpName1&#45;&gt;Label2: Visitor@visit</title>
<path fill="none" stroke="black" d="M629.26,-288.055C633.399,-280.007 638.44,-270.205 643.057,-261.226"/>
<polygon fill="black" stroke="black" points="646.2,-262.769 647.661,-252.275 639.974,-259.567 646.2,-262.769"/>
</g>
<!-- ExpMem1 -->
<g id="node19" class="node"><title>ExpMem1</title>
<ellipse fill="none" stroke="black" cx="810.545" cy="-234" rx="48.9926" ry="18"/>
<text text-anchor="middle" x="810.545" y="-230.3" font-family="Times,serif" font-size="14.00">ExpMem1</text>
</g>
<!-- ExpList1&#45;&gt;ExpMem1 -->
<g id="edge26" class="edge"><title>ExpList1&#45;&gt;ExpMem1</title>
<path fill="none" stroke="black" d="M810.545,-287.697C810.545,-279.983 810.545,-270.712 810.545,-262.112"/>
<polygon fill="black" stroke="black" points="814.045,-262.104 810.545,-252.104 807.045,-262.104 814.045,-262.104"/>
</g>
<!-- ExpMem2 -->
<g id="node25" class="node"><title>ExpMem2</title>
<ellipse fill="none" stroke="black" cx="928.545" cy="-234" rx="48.9926" ry="18"/>
<text text-anchor="middle" x="928.545" y="-230.3" font-family="Times,serif" font-size="14.00">ExpMem2</text>
</g>
<!-- ExpList1&#45;&gt;ExpMem2 -->
<g id="edge27" class="edge"><title>ExpList1&#45;&gt;ExpMem2</title>
<path fill="none" stroke="black" d="M834.424,-290.834C851.865,-280.488 875.744,-266.323 895.085,-254.849"/>
<polygon fill="black" stroke="black" points="897.074,-257.739 903.889,-249.626 893.503,-251.718 897.074,-257.739"/>
</g>
<!-- ExpBinary1 -->
<g id="node20" class="node"><title>ExpBinary1</title>
<ellipse fill="none" stroke="black" cx="784.545" cy="-162" rx="53.0913" ry="18"/>
<text text-anchor="middle" x="784.545" y="-158.3" font-family="Times,serif" font-size="14.00">ExpBinary1</text>
</g>
<!-- ExpMem1&#45;&gt;ExpBinary1 -->
<g id="edge14" class="edge"><title>ExpMem1&#45;&gt;ExpBinary1</title>
<path fill="none" stroke="black" d="M804.251,-216.055C801.325,-208.176 797.774,-198.617 794.497,-189.794"/>
<polygon fill="black" stroke="black" points="797.724,-188.431 790.962,-180.275 791.162,-190.868 797.724,-188.431"/>
</g>
<!-- ExpTemp1 -->
<g id="node33" class="node"><title>ExpTemp1</title>
<ellipse fill="none" stroke="black" cx="660.545" cy="-90" rx="50.0912" ry="18"/>
<text text-anchor="middle" x="660.545" y="-86.3" font-family="Times,serif" font-size="14.00">ExpTemp1</text>
</g>
<!-- ExpBinary1&#45;&gt;ExpTemp1 -->
<g id="edge29" class="edge"><title>ExpBinary1&#45;&gt;ExpTemp1</title>
<path fill="none" stroke="black" d="M758.248,-146.155C739.876,-135.784 715.16,-121.831 695.184,-110.554"/>
<polygon fill="black" stroke="black" points="696.808,-107.452 686.379,-105.584 693.367,-113.548 696.808,-107.452"/>
</g>
<!-- Plus1 -->
<g id="node34" class="node"><title>Plus1</title>
<ellipse fill="none" stroke="black" cx="759.545" cy="-90" rx="30.5947" ry="18"/>
<text text-anchor="middle" x="759.545" y="-86.3" font-family="Times,serif" font-size="14.00">Plus1</text>
</g>
<!-- ExpBinary1&#45;&gt;Plus1 -->
<g id="edge30" class="edge"><title>ExpBinary1&#45;&gt;Plus1</title>
<path fill="none" stroke="black" d="M778.493,-144.055C775.637,-136.059 772.163,-126.331 768.973,-117.4"/>
<polygon fill="black" stroke="black" points="772.201,-116.029 765.541,-107.789 765.608,-118.384 772.201,-116.029"/>
</g>
<!-- ExpConst2 -->
<g id="node35" class="node"><title>ExpConst2</title>
<ellipse fill="none" stroke="black" cx="858.545" cy="-90" rx="50.0912" ry="18"/>
<text text-anchor="middle" x="858.545" y="-86.3" font-family="Times,serif" font-size="14.00">ExpConst2</text>
</g>
<!-- ExpBinary1&#45;&gt;ExpConst2 -->
<g id="edge31" class="edge"><title>ExpBinary1&#45;&gt;ExpConst2</title>
<path fill="none" stroke="black" d="M801.708,-144.765C811.328,-135.665 823.488,-124.162 834.089,-114.134"/>
<polygon fill="black" stroke="black" points="836.615,-116.562 841.475,-107.147 831.805,-111.477 836.615,-116.562"/>
</g>
<!-- StatLabel0 -->
<g id="node21" class="node"><title>StatLabel0</title>
<ellipse fill="none" stroke="black" cx="353.545" cy="-594" rx="48.9926" ry="18"/>
<text text-anchor="middle" x="353.545" y="-590.3" font-family="Times,serif" font-size="14.00">StatLabel0</text>
</g>
<!-- Label0: Tree@accept -->
<g id="node22" class="node"><title>Label0: Tree@accept</title>
<ellipse fill="none" stroke="black" cx="334.545" cy="-522" rx="87.1846" ry="18"/>
<text text-anchor="middle" x="334.545" y="-518.3" font-family="Times,serif" font-size="14.00">Label0: Tree@accept</text>
</g>
<!-- StatLabel0&#45;&gt;Label0: Tree@accept -->
<g id="edge15" class="edge"><title>StatLabel0&#45;&gt;Label0: Tree@accept</title>
<path fill="none" stroke="black" d="M348.946,-576.055C346.83,-568.261 344.268,-558.822 341.895,-550.079"/>
<polygon fill="black" stroke="black" points="345.231,-549.009 339.234,-540.275 338.476,-550.843 345.231,-549.009"/>
</g>
<!-- StatSeq2 -->
<g id="node23" class="node"><title>StatSeq2</title>
<ellipse fill="none" stroke="black" cx="481.545" cy="-522" rx="42.4939" ry="18"/>
<text text-anchor="middle" x="481.545" y="-518.3" font-family="Times,serif" font-size="14.00">StatSeq2</text>
</g>
<!-- StatSeq2&#45;&gt;StatExp0 -->
<g id="edge16" class="edge"><title>StatSeq2&#45;&gt;StatExp0</title>
<path fill="none" stroke="black" d="M452.603,-508.647C425.752,-497.186 385.601,-480.048 356.053,-467.436"/>
<polygon fill="black" stroke="black" points="357.045,-464.054 346.473,-463.347 354.297,-470.492 357.045,-464.054"/>
</g>
<!-- StatMove0 -->
<g id="node24" class="node"><title>StatMove0</title>
<ellipse fill="none" stroke="black" cx="481.545" cy="-450" rx="50.0912" ry="18"/>
<text text-anchor="middle" x="481.545" y="-446.3" font-family="Times,serif" font-size="14.00">StatMove0</text>
</g>
<!-- StatSeq2&#45;&gt;StatMove0 -->
<g id="edge17" class="edge"><title>StatSeq2&#45;&gt;StatMove0</title>
<path fill="none" stroke="black" d="M481.545,-503.697C481.545,-495.983 481.545,-486.712 481.545,-478.112"/>
<polygon fill="black" stroke="black" points="485.045,-478.104 481.545,-468.104 478.045,-478.104 485.045,-478.104"/>
</g>
<!-- StatMove0&#45;&gt;ExpCall1 -->
<g id="edge33" class="edge"><title>StatMove0&#45;&gt;ExpCall1</title>
<path fill="none" stroke="black" d="M508.166,-434.666C528.056,-423.956 555.414,-409.224 576.991,-397.606"/>
<polygon fill="black" stroke="black" points="578.7,-400.661 585.845,-392.838 575.381,-394.498 578.7,-400.661"/>
</g>
<!-- ExpMem0 -->
<g id="node32" class="node"><title>ExpMem0</title>
<ellipse fill="none" stroke="black" cx="428.545" cy="-378" rx="48.9926" ry="18"/>
<text text-anchor="middle" x="428.545" y="-374.3" font-family="Times,serif" font-size="14.00">ExpMem0</text>
</g>
<!-- StatMove0&#45;&gt;ExpMem0 -->
<g id="edge32" class="edge"><title>StatMove0&#45;&gt;ExpMem0</title>
<path fill="none" stroke="black" d="M468.985,-432.411C462.45,-423.781 454.335,-413.062 447.093,-403.497"/>
<polygon fill="black" stroke="black" points="449.842,-401.33 441.015,-395.47 444.261,-405.555 449.842,-401.33"/>
</g>
<!-- ExpTemp2 -->
<g id="node26" class="node"><title>ExpTemp2</title>
<ellipse fill="none" stroke="black" cx="954.545" cy="-162" rx="50.0912" ry="18"/>
<text text-anchor="middle" x="954.545" y="-158.3" font-family="Times,serif" font-size="14.00">ExpTemp2</text>
</g>
<!-- ExpMem2&#45;&gt;ExpTemp2 -->
<g id="edge18" class="edge"><title>ExpMem2&#45;&gt;ExpTemp2</title>
<path fill="none" stroke="black" d="M934.839,-216.055C937.765,-208.176 941.316,-198.617 944.593,-189.794"/>
<polygon fill="black" stroke="black" points="947.928,-190.868 948.128,-180.275 941.366,-188.431 947.928,-190.868"/>
</g>
<!-- Temp2: $fp -->
<g id="node39" class="node"><title>Temp2: $fp</title>
<ellipse fill="none" stroke="black" cx="979.545" cy="-90" rx="52.7911" ry="18"/>
<text text-anchor="middle" x="979.545" y="-86.3" font-family="Times,serif" font-size="14.00">Temp2: $fp</text>
</g>
<!-- ExpTemp2&#45;&gt;Temp2: $fp -->
<g id="edge38" class="edge"><title>ExpTemp2&#45;&gt;Temp2: $fp</title>
<path fill="none" stroke="black" d="M960.597,-144.055C963.411,-136.176 966.825,-126.617 969.976,-117.794"/>
<polygon fill="black" stroke="black" points="973.308,-118.87 973.375,-108.275 966.716,-116.516 973.308,-118.87"/>
</g>
<!-- Label1: print -->
<g id="node28" class="node"><title>Label1: print</title>
<ellipse fill="none" stroke="black" cx="56.545" cy="-234" rx="56.59" ry="18"/>
<text text-anchor="middle" x="56.545" y="-230.3" font-family="Times,serif" font-size="14.00">Label1: print</text>
</g>
<!-- ExpName0&#45;&gt;Label1: print -->
<g id="edge21" class="edge"><title>ExpName0&#45;&gt;Label1: print</title>
<path fill="none" stroke="black" d="M61.8146,-287.697C61.0433,-279.983 60.1162,-270.712 59.2562,-262.112"/>
<polygon fill="black" stroke="black" points="62.7332,-261.706 58.2554,-252.104 55.7679,-262.403 62.7332,-261.706"/>
</g>
<!-- StatSeq1 -->
<g id="node29" class="node"><title>StatSeq1</title>
<ellipse fill="none" stroke="black" cx="481.545" cy="-594" rx="42.4939" ry="18"/>
<text text-anchor="middle" x="481.545" y="-590.3" font-family="Times,serif" font-size="14.00">StatSeq1</text>
</g>
<!-- StatSeq1&#45;&gt;StatMove1 -->
<g id="edge23" class="edge"><title>StatSeq1&#45;&gt;StatMove1</title>
<path fill="none" stroke="black" d="M515.472,-583.267C557.649,-571.167 629.895,-550.441 677.688,-536.73"/>
<polygon fill="black" stroke="black" points="678.848,-540.038 687.495,-533.916 676.918,-533.309 678.848,-540.038"/>
</g>
<!-- StatSeq1&#45;&gt;StatSeq2 -->
<g id="edge22" class="edge"><title>StatSeq1&#45;&gt;StatSeq2</title>
<path fill="none" stroke="black" d="M481.545,-575.697C481.545,-567.983 481.545,-558.712 481.545,-550.112"/>
<polygon fill="black" stroke="black" points="485.045,-550.104 481.545,-540.104 478.045,-550.104 485.045,-550.104"/>
</g>
<!-- ExpMem0&#45;&gt;ExpBinary0 -->
<g id="edge28" class="edge"><title>ExpMem0&#45;&gt;ExpBinary0</title>
<path fill="none" stroke="black" d="M426.32,-359.697C425.328,-351.983 424.137,-342.712 423.031,-334.112"/>
<polygon fill="black" stroke="black" points="426.491,-333.576 421.744,-324.104 419.548,-334.469 426.491,-333.576"/>
</g>
<!-- Temp1: $fp -->
<g id="node37" class="node"><title>Temp1: $fp</title>
<ellipse fill="none" stroke="black" cx="660.545" cy="-18" rx="52.7911" ry="18"/>
<text text-anchor="middle" x="660.545" y="-14.3" font-family="Times,serif" font-size="14.00">Temp1: $fp</text>
</g>
<!-- ExpTemp1&#45;&gt;Temp1: $fp -->
<g id="edge36" class="edge"><title>ExpTemp1&#45;&gt;Temp1: $fp</title>
<path fill="none" stroke="black" d="M660.545,-71.6966C660.545,-63.9827 660.545,-54.7125 660.545,-46.1124"/>
<polygon fill="black" stroke="black" points="664.045,-46.1043 660.545,-36.1043 657.045,-46.1044 664.045,-46.1043"/>
</g>
<!-- Value2: 4 -->
<g id="node38" class="node"><title>Value2: 4</title>
<ellipse fill="none" stroke="black" cx="858.545" cy="-18" rx="45.4919" ry="18"/>
<text text-anchor="middle" x="858.545" y="-14.3" font-family="Times,serif" font-size="14.00">Value2: 4</text>
</g>
<!-- ExpConst2&#45;&gt;Value2: 4 -->
<g id="edge37" class="edge"><title>ExpConst2&#45;&gt;Value2: 4</title>
<path fill="none" stroke="black" d="M858.545,-71.6966C858.545,-63.9827 858.545,-54.7125 858.545,-46.1124"/>
<polygon fill="black" stroke="black" points="862.045,-46.1043 858.545,-36.1043 855.045,-46.1044 862.045,-46.1043"/>
</g>
<!-- StatSeq0 -->
<g id="node36" class="node"><title>StatSeq0</title>
<ellipse fill="none" stroke="black" cx="417.545" cy="-666" rx="42.4939" ry="18"/>
<text text-anchor="middle" x="417.545" y="-662.3" font-family="Times,serif" font-size="14.00">StatSeq0</text>
</g>
<!-- StatSeq0&#45;&gt;StatLabel0 -->
<g id="edge34" class="edge"><title>StatSeq0&#45;&gt;StatLabel0</title>
<path fill="none" stroke="black" d="M402.701,-648.765C394.659,-639.969 384.565,-628.928 375.62,-619.144"/>
<polygon fill="black" stroke="black" points="378.083,-616.652 368.753,-611.633 372.917,-621.375 378.083,-616.652"/>
</g>
<!-- StatSeq0&#45;&gt;StatSeq1 -->
<g id="edge35" class="edge"><title>StatSeq0&#45;&gt;StatSeq1</title>
<path fill="none" stroke="black" d="M432.389,-648.765C440.547,-639.841 450.818,-628.608 459.859,-618.719"/>
<polygon fill="black" stroke="black" points="462.617,-620.889 466.782,-611.147 457.451,-616.166 462.617,-620.889"/>
</g>
</g>
</svg>
