<?xml version="1.0" encoding="UTF-8" standalone="no"?>
<!DOCTYPE svg PUBLIC "-//W3C//DTD SVG 1.1//EN"
 "http://www.w3.org/Graphics/SVG/1.1/DTD/svg11.dtd">
<!-- Generated by graphviz version 2.38.0 (20140413.2041)
 -->
<!-- Title: %3 Pages: 1 -->
<svg width="698pt" height="404pt"
 viewBox="0.00 0.00 697.59 404.00" xmlns="http://www.w3.org/2000/svg" xmlns:xlink="http://www.w3.org/1999/xlink">
<g id="graph0" class="graph" transform="scale(1 1) rotate(0) translate(4 400)">
<title>%3</title>
<polygon fill="white" stroke="none" points="-4,4 -4,-400 693.586,-400 693.586,4 -4,4"/>
<!-- ExpConst1 -->
<g id="node1" class="node"><title>ExpConst1</title>
<ellipse fill="none" stroke="black" cx="639.54" cy="-234" rx="50.0912" ry="18"/>
<text text-anchor="middle" x="639.54" y="-230.3" font-family="Times,serif" font-size="14.00">ExpConst1</text>
</g>
<!-- Value1: 1 -->
<g id="node2" class="node"><title>Value1: 1</title>
<ellipse fill="none" stroke="black" cx="639.54" cy="-162" rx="45.4919" ry="18"/>
<text text-anchor="middle" x="639.54" y="-158.3" font-family="Times,serif" font-size="14.00">Value1: 1</text>
</g>
<!-- ExpConst1&#45;&gt;Value1: 1 -->
<g id="edge1" class="edge"><title>ExpConst1&#45;&gt;Value1: 1</title>
<path fill="none" stroke="black" d="M639.54,-215.697C639.54,-207.983 639.54,-198.712 639.54,-190.112"/>
<polygon fill="black" stroke="black" points="643.04,-190.104 639.54,-180.104 636.04,-190.104 643.04,-190.104"/>
</g>
<!-- StatMove1 -->
<g id="node3" class="node"><title>StatMove1</title>
<ellipse fill="none" stroke="black" cx="521.54" cy="-306" rx="50.0912" ry="18"/>
<text text-anchor="middle" x="521.54" y="-302.3" font-family="Times,serif" font-size="14.00">StatMove1</text>
</g>
<!-- StatMove1&#45;&gt;ExpConst1 -->
<g id="edge3" class="edge"><title>StatMove1&#45;&gt;ExpConst1</title>
<path fill="none" stroke="black" d="M546.277,-290.326C563.663,-280.012 587.123,-266.095 606.164,-254.8"/>
<polygon fill="black" stroke="black" points="608.021,-257.767 614.836,-249.655 604.45,-251.747 608.021,-257.767"/>
</g>
<!-- ExpTemp2 -->
<g id="node4" class="node"><title>ExpTemp2</title>
<ellipse fill="none" stroke="black" cx="521.54" cy="-234" rx="50.0912" ry="18"/>
<text text-anchor="middle" x="521.54" y="-230.3" font-family="Times,serif" font-size="14.00">ExpTemp2</text>
</g>
<!-- StatMove1&#45;&gt;ExpTemp2 -->
<g id="edge2" class="edge"><title>StatMove1&#45;&gt;ExpTemp2</title>
<path fill="none" stroke="black" d="M521.54,-287.697C521.54,-279.983 521.54,-270.712 521.54,-262.112"/>
<polygon fill="black" stroke="black" points="525.04,-262.104 521.54,-252.104 518.04,-262.104 525.04,-262.104"/>
</g>
<!-- Temp2: $rv -->
<g id="node5" class="node"><title>Temp2: $rv</title>
<ellipse fill="none" stroke="black" cx="522.54" cy="-162" rx="52.7911" ry="18"/>
<text text-anchor="middle" x="522.54" y="-158.3" font-family="Times,serif" font-size="14.00">Temp2: $rv</text>
</g>
<!-- ExpTemp2&#45;&gt;Temp2: $rv -->
<g id="edge4" class="edge"><title>ExpTemp2&#45;&gt;Temp2: $rv</title>
<path fill="none" stroke="black" d="M521.788,-215.697C521.898,-207.983 522.03,-198.712 522.153,-190.112"/>
<polygon fill="black" stroke="black" points="525.653,-190.153 522.296,-180.104 518.653,-190.053 525.653,-190.153"/>
</g>
<!-- ExpMem0 -->
<g id="node6" class="node"><title>ExpMem0</title>
<ellipse fill="none" stroke="black" cx="283.54" cy="-234" rx="48.9926" ry="18"/>
<text text-anchor="middle" x="283.54" y="-230.3" font-family="Times,serif" font-size="14.00">ExpMem0</text>
</g>
<!-- ExpMem1 -->
<g id="node7" class="node"><title>ExpMem1</title>
<ellipse fill="none" stroke="black" cx="254.54" cy="-162" rx="48.9926" ry="18"/>
<text text-anchor="middle" x="254.54" y="-158.3" font-family="Times,serif" font-size="14.00">ExpMem1</text>
</g>
<!-- ExpMem0&#45;&gt;ExpMem1 -->
<g id="edge5" class="edge"><title>ExpMem0&#45;&gt;ExpMem1</title>
<path fill="none" stroke="black" d="M276.52,-216.055C273.256,-208.176 269.296,-198.617 265.641,-189.794"/>
<polygon fill="black" stroke="black" points="268.758,-188.174 261.697,-180.275 262.291,-190.853 268.758,-188.174"/>
</g>
<!-- ExpTemp0 -->
<g id="node10" class="node"><title>ExpTemp0</title>
<ellipse fill="none" stroke="black" cx="205.54" cy="-90" rx="50.0912" ry="18"/>
<text text-anchor="middle" x="205.54" y="-86.3" font-family="Times,serif" font-size="14.00">ExpTemp0</text>
</g>
<!-- ExpMem1&#45;&gt;ExpTemp0 -->
<g id="edge12" class="edge"><title>ExpMem1&#45;&gt;ExpTemp0</title>
<path fill="none" stroke="black" d="M242.928,-144.411C237.034,-135.992 229.75,-125.585 223.181,-116.201"/>
<polygon fill="black" stroke="black" points="226.012,-114.141 217.41,-107.956 220.277,-118.156 226.012,-114.141"/>
</g>
<!-- ExpMem2 -->
<g id="node8" class="node"><title>ExpMem2</title>
<ellipse fill="none" stroke="black" cx="398.54" cy="-234" rx="48.9926" ry="18"/>
<text text-anchor="middle" x="398.54" y="-230.3" font-family="Times,serif" font-size="14.00">ExpMem2</text>
</g>
<!-- ExpBinary0 -->
<g id="node9" class="node"><title>ExpBinary0</title>
<ellipse fill="none" stroke="black" cx="398.54" cy="-162" rx="53.0913" ry="18"/>
<text text-anchor="middle" x="398.54" y="-158.3" font-family="Times,serif" font-size="14.00">ExpBinary0</text>
</g>
<!-- ExpMem2&#45;&gt;ExpBinary0 -->
<g id="edge6" class="edge"><title>ExpMem2&#45;&gt;ExpBinary0</title>
<path fill="none" stroke="black" d="M398.54,-215.697C398.54,-207.983 398.54,-198.712 398.54,-190.112"/>
<polygon fill="black" stroke="black" points="402.04,-190.104 398.54,-180.104 395.04,-190.104 402.04,-190.104"/>
</g>
<!-- ExpConst0 -->
<g id="node16" class="node"><title>ExpConst0</title>
<ellipse fill="none" stroke="black" cx="522.54" cy="-90" rx="50.0912" ry="18"/>
<text text-anchor="middle" x="522.54" y="-86.3" font-family="Times,serif" font-size="14.00">ExpConst0</text>
</g>
<!-- ExpBinary0&#45;&gt;ExpConst0 -->
<g id="edge18" class="edge"><title>ExpBinary0&#45;&gt;ExpConst0</title>
<path fill="none" stroke="black" d="M424.838,-146.155C443.209,-135.784 467.926,-121.831 487.902,-110.554"/>
<polygon fill="black" stroke="black" points="489.719,-113.548 496.706,-105.584 486.277,-107.452 489.719,-113.548"/>
</g>
<!-- ExpTemp1 -->
<g id="node18" class="node"><title>ExpTemp1</title>
<ellipse fill="none" stroke="black" cx="324.54" cy="-90" rx="50.0912" ry="18"/>
<text text-anchor="middle" x="324.54" y="-86.3" font-family="Times,serif" font-size="14.00">ExpTemp1</text>
</g>
<!-- ExpBinary0&#45;&gt;ExpTemp1 -->
<g id="edge16" class="edge"><title>ExpBinary0&#45;&gt;ExpTemp1</title>
<path fill="none" stroke="black" d="M381.377,-144.765C371.757,-135.665 359.597,-124.162 348.996,-114.134"/>
<polygon fill="black" stroke="black" points="351.28,-111.477 341.61,-107.147 346.47,-116.562 351.28,-111.477"/>
</g>
<!-- Plus0 -->
<g id="node19" class="node"><title>Plus0</title>
<ellipse fill="none" stroke="black" cx="423.54" cy="-90" rx="30.5947" ry="18"/>
<text text-anchor="middle" x="423.54" y="-86.3" font-family="Times,serif" font-size="14.00">Plus0</text>
</g>
<!-- ExpBinary0&#45;&gt;Plus0 -->
<g id="edge17" class="edge"><title>ExpBinary0&#45;&gt;Plus0</title>
<path fill="none" stroke="black" d="M404.592,-144.055C407.448,-136.059 410.922,-126.331 414.112,-117.4"/>
<polygon fill="black" stroke="black" points="417.477,-118.384 417.544,-107.789 410.885,-116.029 417.477,-118.384"/>
</g>
<!-- Temp0: $fp -->
<g id="node11" class="node"><title>Temp0: $fp</title>
<ellipse fill="none" stroke="black" cx="203.54" cy="-18" rx="52.7911" ry="18"/>
<text text-anchor="middle" x="203.54" y="-14.3" font-family="Times,serif" font-size="14.00">Temp0: $fp</text>
</g>
<!-- ExpTemp0&#45;&gt;Temp0: $fp -->
<g id="edge7" class="edge"><title>ExpTemp0&#45;&gt;Temp0: $fp</title>
<path fill="none" stroke="black" d="M205.046,-71.6966C204.826,-63.9827 204.561,-54.7125 204.315,-46.1124"/>
<polygon fill="black" stroke="black" points="207.813,-46.0003 204.029,-36.1043 200.816,-46.2002 207.813,-46.0003"/>
</g>
<!-- StatList0 -->
<g id="node12" class="node"><title>StatList0</title>
<ellipse fill="none" stroke="black" cx="340.54" cy="-378" rx="42.4939" ry="18"/>
<text text-anchor="middle" x="340.54" y="-374.3" font-family="Times,serif" font-size="14.00">StatList0</text>
</g>
<!-- StatList0&#45;&gt;StatMove1 -->
<g id="edge10" class="edge"><title>StatList0&#45;&gt;StatMove1</title>
<path fill="none" stroke="black" d="M370.836,-365.284C400.513,-353.806 445.997,-336.216 479.236,-323.361"/>
<polygon fill="black" stroke="black" points="480.629,-326.575 488.694,-319.703 478.104,-320.046 480.629,-326.575"/>
</g>
<!-- StatLabel0 -->
<g id="node13" class="node"><title>StatLabel0</title>
<ellipse fill="none" stroke="black" cx="194.54" cy="-306" rx="48.9926" ry="18"/>
<text text-anchor="middle" x="194.54" y="-302.3" font-family="Times,serif" font-size="14.00">StatLabel0</text>
</g>
<!-- StatList0&#45;&gt;StatLabel0 -->
<g id="edge8" class="edge"><title>StatList0&#45;&gt;StatLabel0</title>
<path fill="none" stroke="black" d="M313.421,-363.998C290.607,-353.059 257.738,-337.3 232.341,-325.124"/>
<polygon fill="black" stroke="black" points="233.54,-321.817 223.01,-320.65 230.514,-328.129 233.54,-321.817"/>
</g>
<!-- StatMove0 -->
<g id="node14" class="node"><title>StatMove0</title>
<ellipse fill="none" stroke="black" cx="340.54" cy="-306" rx="50.0912" ry="18"/>
<text text-anchor="middle" x="340.54" y="-302.3" font-family="Times,serif" font-size="14.00">StatMove0</text>
</g>
<!-- StatList0&#45;&gt;StatMove0 -->
<g id="edge9" class="edge"><title>StatList0&#45;&gt;StatMove0</title>
<path fill="none" stroke="black" d="M340.54,-359.697C340.54,-351.983 340.54,-342.712 340.54,-334.112"/>
<polygon fill="black" stroke="black" points="344.04,-334.104 340.54,-324.104 337.04,-334.104 344.04,-334.104"/>
</g>
<!-- Label0: Tree@SetHas_Left -->
<g id="node15" class="node"><title>Label0: Tree@SetHas_Left</title>
<ellipse fill="none" stroke="black" cx="108.54" cy="-234" rx="108.581" ry="18"/>
<text text-anchor="middle" x="108.54" y="-230.3" font-family="Times,serif" font-size="14.00">Label0: Tree@SetHas_Left</text>
</g>
<!-- StatLabel0&#45;&gt;Label0: Tree@SetHas_Left -->
<g id="edge11" class="edge"><title>StatLabel0&#45;&gt;Label0: Tree@SetHas_Left</title>
<path fill="none" stroke="black" d="M175.026,-289.116C163.805,-279.983 149.508,-268.346 137.048,-258.204"/>
<polygon fill="black" stroke="black" points="139.142,-255.396 129.177,-251.797 134.723,-260.825 139.142,-255.396"/>
</g>
<!-- StatMove0&#45;&gt;ExpMem0 -->
<g id="edge14" class="edge"><title>StatMove0&#45;&gt;ExpMem0</title>
<path fill="none" stroke="black" d="M327.032,-288.411C320.005,-279.781 311.277,-269.062 303.488,-259.497"/>
<polygon fill="black" stroke="black" points="305.98,-257.014 296.952,-251.47 300.552,-261.434 305.98,-257.014"/>
</g>
<!-- StatMove0&#45;&gt;ExpMem2 -->
<g id="edge15" class="edge"><title>StatMove0&#45;&gt;ExpMem2</title>
<path fill="none" stroke="black" d="M354.286,-288.411C361.509,-279.693 370.497,-268.845 378.483,-259.208"/>
<polygon fill="black" stroke="black" points="381.209,-261.403 384.894,-251.47 375.819,-256.937 381.209,-261.403"/>
</g>
<!-- Value0: 4 -->
<g id="node17" class="node"><title>Value0: 4</title>
<ellipse fill="none" stroke="black" cx="522.54" cy="-18" rx="45.4919" ry="18"/>
<text text-anchor="middle" x="522.54" y="-14.3" font-family="Times,serif" font-size="14.00">Value0: 4</text>
</g>
<!-- ExpConst0&#45;&gt;Value0: 4 -->
<g id="edge13" class="edge"><title>ExpConst0&#45;&gt;Value0: 4</title>
<path fill="none" stroke="black" d="M522.54,-71.6966C522.54,-63.9827 522.54,-54.7125 522.54,-46.1124"/>
<polygon fill="black" stroke="black" points="526.04,-46.1043 522.54,-36.1043 519.04,-46.1044 526.04,-46.1043"/>
</g>
<!-- Temp1: $fp -->
<g id="node20" class="node"><title>Temp1: $fp</title>
<ellipse fill="none" stroke="black" cx="326.54" cy="-18" rx="52.7911" ry="18"/>
<text text-anchor="middle" x="326.54" y="-14.3" font-family="Times,serif" font-size="14.00">Temp1: $fp</text>
</g>
<!-- ExpTemp1&#45;&gt;Temp1: $fp -->
<g id="edge19" class="edge"><title>ExpTemp1&#45;&gt;Temp1: $fp</title>
<path fill="none" stroke="black" d="M325.035,-71.6966C325.255,-63.9827 325.52,-54.7125 325.766,-46.1124"/>
<polygon fill="black" stroke="black" points="329.265,-46.2002 326.052,-36.1043 322.267,-46.0003 329.265,-46.2002"/>
</g>
</g>
</svg>
