<?xml version="1.0" encoding="UTF-8" standalone="no"?>
<!DOCTYPE svg PUBLIC "-//W3C//DTD SVG 1.1//EN"
 "http://www.w3.org/Graphics/SVG/1.1/DTD/svg11.dtd">
<!-- Generated by graphviz version 2.38.0 (20140413.2041)
 -->
<!-- Title: %3 Pages: 1 -->
<svg width="852pt" height="404pt"
 viewBox="0.00 0.00 851.73 404.00" xmlns="http://www.w3.org/2000/svg" xmlns:xlink="http://www.w3.org/1999/xlink">
<g id="graph0" class="graph" transform="scale(1 1) rotate(0) translate(4 400)">
<title>%3</title>
<polygon fill="white" stroke="none" points="-4,4 -4,-400 847.734,-400 847.734,4 -4,4"/>
<!-- StatJump0 -->
<g id="node1" class="node"><title>StatJump0</title>
<ellipse fill="none" stroke="black" cx="703.54" cy="-306" rx="48.1917" ry="18"/>
<text text-anchor="middle" x="703.54" y="-302.3" font-family="Times,serif" font-size="14.00">StatJump0</text>
</g>
<!-- Label1: epilogue -->
<g id="node2" class="node"><title>Label1: epilogue</title>
<ellipse fill="none" stroke="black" cx="773.54" cy="-234" rx="70.3881" ry="18"/>
<text text-anchor="middle" x="773.54" y="-230.3" font-family="Times,serif" font-size="14.00">Label1: epilogue</text>
</g>
<!-- StatJump0&#45;&gt;Label1: epilogue -->
<g id="edge1" class="edge"><title>StatJump0&#45;&gt;Label1: epilogue</title>
<path fill="none" stroke="black" d="M719.776,-288.765C728.659,-279.882 739.831,-268.709 749.687,-258.854"/>
<polygon fill="black" stroke="black" points="752.311,-261.179 756.907,-251.633 747.361,-256.23 752.311,-261.179"/>
</g>
<!-- ExpConst1 -->
<g id="node3" class="node"><title>ExpConst1</title>
<ellipse fill="none" stroke="black" cx="635.54" cy="-234" rx="50.0912" ry="18"/>
<text text-anchor="middle" x="635.54" y="-230.3" font-family="Times,serif" font-size="14.00">ExpConst1</text>
</g>
<!-- Value1: 1 -->
<g id="node4" class="node"><title>Value1: 1</title>
<ellipse fill="none" stroke="black" cx="637.54" cy="-162" rx="45.4919" ry="18"/>
<text text-anchor="middle" x="637.54" y="-158.3" font-family="Times,serif" font-size="14.00">Value1: 1</text>
</g>
<!-- ExpConst1&#45;&gt;Value1: 1 -->
<g id="edge2" class="edge"><title>ExpConst1&#45;&gt;Value1: 1</title>
<path fill="none" stroke="black" d="M636.035,-215.697C636.255,-207.983 636.52,-198.712 636.766,-190.112"/>
<polygon fill="black" stroke="black" points="640.265,-190.2 637.052,-180.104 633.267,-190 640.265,-190.2"/>
</g>
<!-- StatMove1 -->
<g id="node5" class="node"><title>StatMove1</title>
<ellipse fill="none" stroke="black" cx="517.54" cy="-306" rx="50.0912" ry="18"/>
<text text-anchor="middle" x="517.54" y="-302.3" font-family="Times,serif" font-size="14.00">StatMove1</text>
</g>
<!-- StatMove1&#45;&gt;ExpConst1 -->
<g id="edge4" class="edge"><title>StatMove1&#45;&gt;ExpConst1</title>
<path fill="none" stroke="black" d="M542.277,-290.326C559.663,-280.012 583.123,-266.095 602.164,-254.8"/>
<polygon fill="black" stroke="black" points="604.021,-257.767 610.836,-249.655 600.45,-251.747 604.021,-257.767"/>
</g>
<!-- ExpTemp2 -->
<g id="node6" class="node"><title>ExpTemp2</title>
<ellipse fill="none" stroke="black" cx="517.54" cy="-234" rx="50.0912" ry="18"/>
<text text-anchor="middle" x="517.54" y="-230.3" font-family="Times,serif" font-size="14.00">ExpTemp2</text>
</g>
<!-- StatMove1&#45;&gt;ExpTemp2 -->
<g id="edge3" class="edge"><title>StatMove1&#45;&gt;ExpTemp2</title>
<path fill="none" stroke="black" d="M517.54,-287.697C517.54,-279.983 517.54,-270.712 517.54,-262.112"/>
<polygon fill="black" stroke="black" points="521.04,-262.104 517.54,-252.104 514.04,-262.104 521.04,-262.104"/>
</g>
<!-- Temp2: $rv -->
<g id="node7" class="node"><title>Temp2: $rv</title>
<ellipse fill="none" stroke="black" cx="521.54" cy="-162" rx="52.7911" ry="18"/>
<text text-anchor="middle" x="521.54" y="-158.3" font-family="Times,serif" font-size="14.00">Temp2: $rv</text>
</g>
<!-- ExpTemp2&#45;&gt;Temp2: $rv -->
<g id="edge5" class="edge"><title>ExpTemp2&#45;&gt;Temp2: $rv</title>
<path fill="none" stroke="black" d="M518.529,-215.697C518.97,-207.983 519.5,-198.712 519.991,-190.112"/>
<polygon fill="black" stroke="black" points="523.487,-190.288 520.563,-180.104 516.498,-189.888 523.487,-190.288"/>
</g>
<!-- ExpMem0 -->
<g id="node8" class="node"><title>ExpMem0</title>
<ellipse fill="none" stroke="black" cx="283.54" cy="-234" rx="48.9926" ry="18"/>
<text text-anchor="middle" x="283.54" y="-230.3" font-family="Times,serif" font-size="14.00">ExpMem0</text>
</g>
<!-- ExpMem1 -->
<g id="node9" class="node"><title>ExpMem1</title>
<ellipse fill="none" stroke="black" cx="253.54" cy="-162" rx="48.9926" ry="18"/>
<text text-anchor="middle" x="253.54" y="-158.3" font-family="Times,serif" font-size="14.00">ExpMem1</text>
</g>
<!-- ExpMem0&#45;&gt;ExpMem1 -->
<g id="edge6" class="edge"><title>ExpMem0&#45;&gt;ExpMem1</title>
<path fill="none" stroke="black" d="M276.278,-216.055C272.865,-208.091 268.716,-198.411 264.902,-189.51"/>
<polygon fill="black" stroke="black" points="268.1,-188.088 260.944,-180.275 261.666,-190.845 268.1,-188.088"/>
</g>
<!-- ExpTemp0 -->
<g id="node12" class="node"><title>ExpTemp0</title>
<ellipse fill="none" stroke="black" cx="204.54" cy="-90" rx="50.0912" ry="18"/>
<text text-anchor="middle" x="204.54" y="-86.3" font-family="Times,serif" font-size="14.00">ExpTemp0</text>
</g>
<!-- ExpMem1&#45;&gt;ExpTemp0 -->
<g id="edge14" class="edge"><title>ExpMem1&#45;&gt;ExpTemp0</title>
<path fill="none" stroke="black" d="M241.928,-144.411C236.034,-135.992 228.75,-125.585 222.181,-116.201"/>
<polygon fill="black" stroke="black" points="225.012,-114.141 216.41,-107.956 219.277,-118.156 225.012,-114.141"/>
</g>
<!-- ExpMem2 -->
<g id="node10" class="node"><title>ExpMem2</title>
<ellipse fill="none" stroke="black" cx="398.54" cy="-234" rx="48.9926" ry="18"/>
<text text-anchor="middle" x="398.54" y="-230.3" font-family="Times,serif" font-size="14.00">ExpMem2</text>
</g>
<!-- ExpBinary0 -->
<g id="node11" class="node"><title>ExpBinary0</title>
<ellipse fill="none" stroke="black" cx="397.54" cy="-162" rx="53.0913" ry="18"/>
<text text-anchor="middle" x="397.54" y="-158.3" font-family="Times,serif" font-size="14.00">ExpBinary0</text>
</g>
<!-- ExpMem2&#45;&gt;ExpBinary0 -->
<g id="edge7" class="edge"><title>ExpMem2&#45;&gt;ExpBinary0</title>
<path fill="none" stroke="black" d="M398.293,-215.697C398.183,-207.983 398.051,-198.712 397.928,-190.112"/>
<polygon fill="black" stroke="black" points="401.427,-190.053 397.785,-180.104 394.428,-190.153 401.427,-190.053"/>
</g>
<!-- ExpConst0 -->
<g id="node18" class="node"><title>ExpConst0</title>
<ellipse fill="none" stroke="black" cx="521.54" cy="-90" rx="50.0912" ry="18"/>
<text text-anchor="middle" x="521.54" y="-86.3" font-family="Times,serif" font-size="14.00">ExpConst0</text>
</g>
<!-- ExpBinary0&#45;&gt;ExpConst0 -->
<g id="edge20" class="edge"><title>ExpBinary0&#45;&gt;ExpConst0</title>
<path fill="none" stroke="black" d="M423.838,-146.155C442.209,-135.784 466.926,-121.831 486.902,-110.554"/>
<polygon fill="black" stroke="black" points="488.719,-113.548 495.706,-105.584 485.277,-107.452 488.719,-113.548"/>
</g>
<!-- ExpTemp1 -->
<g id="node20" class="node"><title>ExpTemp1</title>
<ellipse fill="none" stroke="black" cx="323.54" cy="-90" rx="50.0912" ry="18"/>
<text text-anchor="middle" x="323.54" y="-86.3" font-family="Times,serif" font-size="14.00">ExpTemp1</text>
</g>
<!-- ExpBinary0&#45;&gt;ExpTemp1 -->
<g id="edge18" class="edge"><title>ExpBinary0&#45;&gt;ExpTemp1</title>
<path fill="none" stroke="black" d="M380.377,-144.765C370.757,-135.665 358.597,-124.162 347.996,-114.134"/>
<polygon fill="black" stroke="black" points="350.28,-111.477 340.61,-107.147 345.47,-116.562 350.28,-111.477"/>
</g>
<!-- Plus0 -->
<g id="node21" class="node"><title>Plus0</title>
<ellipse fill="none" stroke="black" cx="422.54" cy="-90" rx="30.5947" ry="18"/>
<text text-anchor="middle" x="422.54" y="-86.3" font-family="Times,serif" font-size="14.00">Plus0</text>
</g>
<!-- ExpBinary0&#45;&gt;Plus0 -->
<g id="edge19" class="edge"><title>ExpBinary0&#45;&gt;Plus0</title>
<path fill="none" stroke="black" d="M403.592,-144.055C406.448,-136.059 409.922,-126.331 413.112,-117.4"/>
<polygon fill="black" stroke="black" points="416.477,-118.384 416.544,-107.789 409.885,-116.029 416.477,-118.384"/>
</g>
<!-- Temp0: $fp -->
<g id="node13" class="node"><title>Temp0: $fp</title>
<ellipse fill="none" stroke="black" cx="202.54" cy="-18" rx="52.7911" ry="18"/>
<text text-anchor="middle" x="202.54" y="-14.3" font-family="Times,serif" font-size="14.00">Temp0: $fp</text>
</g>
<!-- ExpTemp0&#45;&gt;Temp0: $fp -->
<g id="edge8" class="edge"><title>ExpTemp0&#45;&gt;Temp0: $fp</title>
<path fill="none" stroke="black" d="M204.046,-71.6966C203.826,-63.9827 203.561,-54.7125 203.315,-46.1124"/>
<polygon fill="black" stroke="black" points="206.813,-46.0003 203.029,-36.1043 199.816,-46.2002 206.813,-46.0003"/>
</g>
<!-- StatList0 -->
<g id="node14" class="node"><title>StatList0</title>
<ellipse fill="none" stroke="black" cx="457.54" cy="-378" rx="42.4939" ry="18"/>
<text text-anchor="middle" x="457.54" y="-374.3" font-family="Times,serif" font-size="14.00">StatList0</text>
</g>
<!-- StatList0&#45;&gt;StatJump0 -->
<g id="edge12" class="edge"><title>StatList0&#45;&gt;StatJump0</title>
<path fill="none" stroke="black" d="M491.746,-367.267C534.638,-355.062 608.376,-334.079 656.542,-320.373"/>
<polygon fill="black" stroke="black" points="657.752,-323.668 666.412,-317.565 655.836,-316.936 657.752,-323.668"/>
</g>
<!-- StatList0&#45;&gt;StatMove1 -->
<g id="edge11" class="edge"><title>StatList0&#45;&gt;StatMove1</title>
<path fill="none" stroke="black" d="M471.456,-360.765C478.921,-352.056 488.272,-341.147 496.596,-331.435"/>
<polygon fill="black" stroke="black" points="499.433,-333.504 503.283,-323.633 494.118,-328.948 499.433,-333.504"/>
</g>
<!-- StatLabel0 -->
<g id="node15" class="node"><title>StatLabel0</title>
<ellipse fill="none" stroke="black" cx="195.54" cy="-306" rx="48.9926" ry="18"/>
<text text-anchor="middle" x="195.54" y="-302.3" font-family="Times,serif" font-size="14.00">StatLabel0</text>
</g>
<!-- StatList0&#45;&gt;StatLabel0 -->
<g id="edge9" class="edge"><title>StatList0&#45;&gt;StatLabel0</title>
<path fill="none" stroke="black" d="M422.749,-367.705C376.814,-355.432 295.705,-333.761 243.846,-319.906"/>
<polygon fill="black" stroke="black" points="244.447,-316.444 233.883,-317.244 242.641,-323.207 244.447,-316.444"/>
</g>
<!-- StatMove0 -->
<g id="node16" class="node"><title>StatMove0</title>
<ellipse fill="none" stroke="black" cx="398.54" cy="-306" rx="50.0912" ry="18"/>
<text text-anchor="middle" x="398.54" y="-302.3" font-family="Times,serif" font-size="14.00">StatMove0</text>
</g>
<!-- StatList0&#45;&gt;StatMove0 -->
<g id="edge10" class="edge"><title>StatList0&#45;&gt;StatMove0</title>
<path fill="none" stroke="black" d="M443.856,-360.765C436.516,-352.056 427.321,-341.147 419.136,-331.435"/>
<polygon fill="black" stroke="black" points="421.681,-329.024 412.56,-323.633 416.328,-333.535 421.681,-329.024"/>
</g>
<!-- Label0: Tree@SetHas_Left -->
<g id="node17" class="node"><title>Label0: Tree@SetHas_Left</title>
<ellipse fill="none" stroke="black" cx="108.54" cy="-234" rx="108.581" ry="18"/>
<text text-anchor="middle" x="108.54" y="-230.3" font-family="Times,serif" font-size="14.00">Label0: Tree@SetHas_Left</text>
</g>
<!-- StatLabel0&#45;&gt;Label0: Tree@SetHas_Left -->
<g id="edge13" class="edge"><title>StatLabel0&#45;&gt;Label0: Tree@SetHas_Left</title>
<path fill="none" stroke="black" d="M176.232,-289.465C164.816,-280.279 150.141,-268.471 137.374,-258.199"/>
<polygon fill="black" stroke="black" points="139.299,-255.256 129.313,-251.714 134.911,-260.71 139.299,-255.256"/>
</g>
<!-- StatMove0&#45;&gt;ExpMem0 -->
<g id="edge16" class="edge"><title>StatMove0&#45;&gt;ExpMem0</title>
<path fill="none" stroke="black" d="M374.152,-290.155C357.38,-279.946 334.908,-266.267 316.539,-255.086"/>
<polygon fill="black" stroke="black" points="318.256,-252.034 307.894,-249.824 314.616,-258.013 318.256,-252.034"/>
</g>
<!-- StatMove0&#45;&gt;ExpMem2 -->
<g id="edge17" class="edge"><title>StatMove0&#45;&gt;ExpMem2</title>
<path fill="none" stroke="black" d="M398.54,-287.697C398.54,-279.983 398.54,-270.712 398.54,-262.112"/>
<polygon fill="black" stroke="black" points="402.04,-262.104 398.54,-252.104 395.04,-262.104 402.04,-262.104"/>
</g>
<!-- Value0: 4 -->
<g id="node19" class="node"><title>Value0: 4</title>
<ellipse fill="none" stroke="black" cx="521.54" cy="-18" rx="45.4919" ry="18"/>
<text text-anchor="middle" x="521.54" y="-14.3" font-family="Times,serif" font-size="14.00">Value0: 4</text>
</g>
<!-- ExpConst0&#45;&gt;Value0: 4 -->
<g id="edge15" class="edge"><title>ExpConst0&#45;&gt;Value0: 4</title>
<path fill="none" stroke="black" d="M521.54,-71.6966C521.54,-63.9827 521.54,-54.7125 521.54,-46.1124"/>
<polygon fill="black" stroke="black" points="525.04,-46.1043 521.54,-36.1043 518.04,-46.1044 525.04,-46.1043"/>
</g>
<!-- Temp1: $fp -->
<g id="node22" class="node"><title>Temp1: $fp</title>
<ellipse fill="none" stroke="black" cx="325.54" cy="-18" rx="52.7911" ry="18"/>
<text text-anchor="middle" x="325.54" y="-14.3" font-family="Times,serif" font-size="14.00">Temp1: $fp</text>
</g>
<!-- ExpTemp1&#45;&gt;Temp1: $fp -->
<g id="edge21" class="edge"><title>ExpTemp1&#45;&gt;Temp1: $fp</title>
<path fill="none" stroke="black" d="M324.035,-71.6966C324.255,-63.9827 324.52,-54.7125 324.766,-46.1124"/>
<polygon fill="black" stroke="black" points="328.265,-46.2002 325.052,-36.1043 321.267,-46.0003 328.265,-46.2002"/>
</g>
</g>
</svg>
