<?xml version="1.0" encoding="UTF-8" standalone="no"?>
<!DOCTYPE svg PUBLIC "-//W3C//DTD SVG 1.1//EN"
 "http://www.w3.org/Graphics/SVG/1.1/DTD/svg11.dtd">
<!-- Generated by graphviz version 2.38.0 (20140413.2041)
 -->
<!-- Title: %3 Pages: 1 -->
<svg width="327pt" height="260pt"
 viewBox="0.00 0.00 327.29 260.00" xmlns="http://www.w3.org/2000/svg" xmlns:xlink="http://www.w3.org/1999/xlink">
<g id="graph0" class="graph" transform="scale(1 1) rotate(0) translate(4 256)">
<title>%3</title>
<polygon fill="white" stroke="none" points="-4,4 -4,-256 323.291,-256 323.291,4 -4,4"/>
<!-- Load0 -->
<g id="node1" class="node"><title>Load0</title>
<ellipse fill="none" stroke="black" cx="173.795" cy="-162" rx="33.2948" ry="18"/>
<text text-anchor="middle" x="173.795" y="-158.3" font-family="Times,serif" font-size="14.00">Load0</text>
</g>
<!-- Temp2 -->
<g id="node2" class="node"><title>Temp2</title>
<ellipse fill="none" stroke="black" cx="173.795" cy="-90" rx="36.2938" ry="18"/>
<text text-anchor="middle" x="173.795" y="-86.3" font-family="Times,serif" font-size="14.00">Temp2</text>
</g>
<!-- Load0&#45;&gt;Temp2 -->
<g id="edge1" class="edge"><title>Load0&#45;&gt;Temp2</title>
<path fill="none" stroke="black" d="M173.795,-143.697C173.795,-135.983 173.795,-126.712 173.795,-118.112"/>
<polygon fill="black" stroke="black" points="177.295,-118.104 173.795,-108.104 170.295,-118.104 177.295,-118.104"/>
</g>
<!-- Value0: 0 -->
<g id="node3" class="node"><title>Value0: 0</title>
<ellipse fill="none" stroke="black" cx="273.795" cy="-90" rx="45.4919" ry="18"/>
<text text-anchor="middle" x="273.795" y="-86.3" font-family="Times,serif" font-size="14.00">Value0: 0</text>
</g>
<!-- Load0&#45;&gt;Value0: 0 -->
<g id="edge2" class="edge"><title>Load0&#45;&gt;Value0: 0</title>
<path fill="none" stroke="black" d="M193.551,-147.17C207.863,-137.152 227.47,-123.427 243.72,-112.052"/>
<polygon fill="black" stroke="black" points="246.163,-114.615 252.348,-106.013 242.148,-108.88 246.163,-114.615"/>
</g>
<!-- Temp3: $fp -->
<g id="node6" class="node"><title>Temp3: $fp</title>
<ellipse fill="none" stroke="black" cx="173.795" cy="-18" rx="52.7911" ry="18"/>
<text text-anchor="middle" x="173.795" y="-14.3" font-family="Times,serif" font-size="14.00">Temp3: $fp</text>
</g>
<!-- Temp2&#45;&gt;Temp3: $fp -->
<g id="edge5" class="edge"><title>Temp2&#45;&gt;Temp3: $fp</title>
<path fill="none" stroke="black" d="M173.795,-71.6966C173.795,-63.9827 173.795,-54.7125 173.795,-46.1124"/>
<polygon fill="black" stroke="black" points="177.295,-46.1043 173.795,-36.1043 170.295,-46.1044 177.295,-46.1043"/>
</g>
<!-- MoveRegister0 -->
<g id="node4" class="node"><title>MoveRegister0</title>
<ellipse fill="none" stroke="black" cx="122.795" cy="-234" rx="65.7887" ry="18"/>
<text text-anchor="middle" x="122.795" y="-230.3" font-family="Times,serif" font-size="14.00">MoveRegister0</text>
</g>
<!-- MoveRegister0&#45;&gt;Load0 -->
<g id="edge4" class="edge"><title>MoveRegister0&#45;&gt;Load0</title>
<path fill="none" stroke="black" d="M135.14,-216.055C141.37,-207.505 149.041,-196.975 155.904,-187.556"/>
<polygon fill="black" stroke="black" points="158.854,-189.45 161.914,-179.307 153.196,-185.328 158.854,-189.45"/>
</g>
<!-- Temp0 -->
<g id="node5" class="node"><title>Temp0</title>
<ellipse fill="none" stroke="black" cx="72.7947" cy="-162" rx="36.2938" ry="18"/>
<text text-anchor="middle" x="72.7947" y="-158.3" font-family="Times,serif" font-size="14.00">Temp0</text>
</g>
<!-- MoveRegister0&#45;&gt;Temp0 -->
<g id="edge3" class="edge"><title>MoveRegister0&#45;&gt;Temp0</title>
<path fill="none" stroke="black" d="M110.691,-216.055C104.584,-207.505 97.0625,-196.975 90.3347,-187.556"/>
<polygon fill="black" stroke="black" points="93.103,-185.41 84.4426,-179.307 87.4069,-189.479 93.103,-185.41"/>
</g>
<!-- Temp1: T343 -->
<g id="node7" class="node"><title>Temp1: T343</title>
<ellipse fill="none" stroke="black" cx="59.7947" cy="-90" rx="59.5901" ry="18"/>
<text text-anchor="middle" x="59.7947" y="-86.3" font-family="Times,serif" font-size="14.00">Temp1: T343</text>
</g>
<!-- Temp0&#45;&gt;Temp1: T343 -->
<g id="edge6" class="edge"><title>Temp0&#45;&gt;Temp1: T343</title>
<path fill="none" stroke="black" d="M69.6478,-144.055C68.216,-136.346 66.4854,-127.027 64.8766,-118.364"/>
<polygon fill="black" stroke="black" points="68.2701,-117.468 63.003,-108.275 61.3878,-118.746 68.2701,-117.468"/>
</g>
</g>
</svg>
