<?xml version="1.0" encoding="UTF-8" standalone="no"?>
<!DOCTYPE svg PUBLIC "-//W3C//DTD SVG 1.1//EN"
 "http://www.w3.org/Graphics/SVG/1.1/DTD/svg11.dtd">
<!-- Generated by graphviz version 2.38.0 (20140413.2041)
 -->
<!-- Title: %3 Pages: 1 -->
<svg width="730pt" height="260pt"
 viewBox="0.00 0.00 729.59 260.00" xmlns="http://www.w3.org/2000/svg" xmlns:xlink="http://www.w3.org/1999/xlink">
<g id="graph0" class="graph" transform="scale(1 1) rotate(0) translate(4 256)">
<title>%3</title>
<polygon fill="white" stroke="none" points="-4,4 -4,-256 725.589,-256 725.589,4 -4,4"/>
<!-- Temp6 -->
<g id="node1" class="node"><title>Temp6</title>
<ellipse fill="none" stroke="black" cx="637.795" cy="-90" rx="36.2938" ry="18"/>
<text text-anchor="middle" x="637.795" y="-86.3" font-family="Times,serif" font-size="14.00">Temp6</text>
</g>
<!-- Temp7: T325 -->
<g id="node2" class="node"><title>Temp7: T325</title>
<ellipse fill="none" stroke="black" cx="661.795" cy="-18" rx="59.5901" ry="18"/>
<text text-anchor="middle" x="661.795" y="-14.3" font-family="Times,serif" font-size="14.00">Temp7: T325</text>
</g>
<!-- Temp6&#45;&gt;Temp7: T325 -->
<g id="edge1" class="edge"><title>Temp6&#45;&gt;Temp7: T325</title>
<path fill="none" stroke="black" d="M643.604,-72.055C646.306,-64.1762 649.583,-54.6165 652.608,-45.794"/>
<polygon fill="black" stroke="black" points="655.939,-46.8699 655.872,-36.2753 649.318,-44.5996 655.939,-46.8699"/>
</g>
<!-- Temp0 -->
<g id="node3" class="node"><title>Temp0</title>
<ellipse fill="none" stroke="black" cx="204.795" cy="-162" rx="36.2938" ry="18"/>
<text text-anchor="middle" x="204.795" y="-158.3" font-family="Times,serif" font-size="14.00">Temp0</text>
</g>
<!-- Temp1: T326 -->
<g id="node4" class="node"><title>Temp1: T326</title>
<ellipse fill="none" stroke="black" cx="59.7947" cy="-90" rx="59.5901" ry="18"/>
<text text-anchor="middle" x="59.7947" y="-86.3" font-family="Times,serif" font-size="14.00">Temp1: T326</text>
</g>
<!-- Temp0&#45;&gt;Temp1: T326 -->
<g id="edge2" class="edge"><title>Temp0&#45;&gt;Temp1: T326</title>
<path fill="none" stroke="black" d="M179.538,-148.807C157.352,-138.097 124.713,-122.34 99.1125,-109.981"/>
<polygon fill="black" stroke="black" points="100.559,-106.793 90.0315,-105.597 97.5154,-113.097 100.559,-106.793"/>
</g>
<!-- Temp2 -->
<g id="node5" class="node"><title>Temp2</title>
<ellipse fill="none" stroke="black" cx="432.795" cy="-90" rx="36.2938" ry="18"/>
<text text-anchor="middle" x="432.795" y="-86.3" font-family="Times,serif" font-size="14.00">Temp2</text>
</g>
<!-- Temp3: T323 -->
<g id="node6" class="node"><title>Temp3: T323</title>
<ellipse fill="none" stroke="black" cx="385.795" cy="-18" rx="59.5901" ry="18"/>
<text text-anchor="middle" x="385.795" y="-14.3" font-family="Times,serif" font-size="14.00">Temp3: T323</text>
</g>
<!-- Temp2&#45;&gt;Temp3: T323 -->
<g id="edge3" class="edge"><title>Temp2&#45;&gt;Temp3: T323</title>
<path fill="none" stroke="black" d="M421.894,-72.7646C416.247,-64.3538 409.221,-53.8904 402.873,-44.4356"/>
<polygon fill="black" stroke="black" points="405.772,-42.4751 397.292,-36.1239 399.961,-46.3772 405.772,-42.4751"/>
</g>
<!-- MoveRegister0 -->
<g id="node7" class="node"><title>MoveRegister0</title>
<ellipse fill="none" stroke="black" cx="318.795" cy="-234" rx="65.7887" ry="18"/>
<text text-anchor="middle" x="318.795" y="-230.3" font-family="Times,serif" font-size="14.00">MoveRegister0</text>
</g>
<!-- MoveRegister0&#45;&gt;Temp0 -->
<g id="edge4" class="edge"><title>MoveRegister0&#45;&gt;Temp0</title>
<path fill="none" stroke="black" d="M293.211,-217.291C276.217,-206.856 253.804,-193.094 235.797,-182.037"/>
<polygon fill="black" stroke="black" points="237.187,-178.783 226.834,-176.533 233.524,-184.748 237.187,-178.783"/>
</g>
<!-- Call0 -->
<g id="node8" class="node"><title>Call0</title>
<ellipse fill="none" stroke="black" cx="432.795" cy="-162" rx="29.795" ry="18"/>
<text text-anchor="middle" x="432.795" y="-158.3" font-family="Times,serif" font-size="14.00">Call0</text>
</g>
<!-- MoveRegister0&#45;&gt;Call0 -->
<g id="edge5" class="edge"><title>MoveRegister0&#45;&gt;Call0</title>
<path fill="none" stroke="black" d="M344.379,-217.291C362.093,-206.413 385.694,-191.921 404.057,-180.646"/>
<polygon fill="black" stroke="black" points="405.911,-183.615 412.601,-175.399 402.248,-177.649 405.911,-183.615"/>
</g>
<!-- Call0&#45;&gt;Temp6 -->
<g id="edge10" class="edge"><title>Call0&#45;&gt;Temp6</title>
<path fill="none" stroke="black" d="M458.344,-152.276C493.643,-140.222 557.637,-118.371 598.897,-104.282"/>
<polygon fill="black" stroke="black" points="600.278,-107.509 608.61,-100.965 598.016,-100.885 600.278,-107.509"/>
</g>
<!-- Call0&#45;&gt;Temp2 -->
<g id="edge8" class="edge"><title>Call0&#45;&gt;Temp2</title>
<path fill="none" stroke="black" d="M432.795,-143.697C432.795,-135.983 432.795,-126.712 432.795,-118.112"/>
<polygon fill="black" stroke="black" points="436.295,-118.104 432.795,-108.104 429.295,-118.104 436.295,-118.104"/>
</g>
<!-- Temp4 -->
<g id="node9" class="node"><title>Temp4</title>
<ellipse fill="none" stroke="black" cx="523.795" cy="-90" rx="36.2938" ry="18"/>
<text text-anchor="middle" x="523.795" y="-86.3" font-family="Times,serif" font-size="14.00">Temp4</text>
</g>
<!-- Call0&#45;&gt;Temp4 -->
<g id="edge9" class="edge"><title>Call0&#45;&gt;Temp4</title>
<path fill="none" stroke="black" d="M450.773,-147.17C463.85,-137.112 481.784,-123.316 496.606,-111.914"/>
<polygon fill="black" stroke="black" points="499.121,-114.395 504.914,-105.524 494.853,-108.847 499.121,-114.395"/>
</g>
<!-- Function0: Tree@RemoveLeft -->
<g id="node11" class="node"><title>Function0: Tree@RemoveLeft</title>
<ellipse fill="none" stroke="black" cx="257.795" cy="-90" rx="120.479" ry="18"/>
<text text-anchor="middle" x="257.795" y="-86.3" font-family="Times,serif" font-size="14.00">Function0: Tree@RemoveLeft</text>
</g>
<!-- Call0&#45;&gt;Function0: Tree@RemoveLeft -->
<g id="edge7" class="edge"><title>Call0&#45;&gt;Function0: Tree@RemoveLeft</title>
<path fill="none" stroke="black" d="M408.462,-151.267C382.476,-140.873 340.576,-124.112 307.55,-110.902"/>
<polygon fill="black" stroke="black" points="308.638,-107.568 298.053,-107.103 306.038,-114.067 308.638,-107.568"/>
</g>
<!-- Temp5: T324 -->
<g id="node10" class="node"><title>Temp5: T324</title>
<ellipse fill="none" stroke="black" cx="523.795" cy="-18" rx="59.5901" ry="18"/>
<text text-anchor="middle" x="523.795" y="-14.3" font-family="Times,serif" font-size="14.00">Temp5: T324</text>
</g>
<!-- Temp4&#45;&gt;Temp5: T324 -->
<g id="edge6" class="edge"><title>Temp4&#45;&gt;Temp5: T324</title>
<path fill="none" stroke="black" d="M523.795,-71.6966C523.795,-63.9827 523.795,-54.7125 523.795,-46.1124"/>
<polygon fill="black" stroke="black" points="527.295,-46.1043 523.795,-36.1043 520.295,-46.1044 527.295,-46.1043"/>
</g>
</g>
</svg>
