<?xml version="1.0" encoding="UTF-8" standalone="no"?>
<!DOCTYPE svg PUBLIC "-//W3C//DTD SVG 1.1//EN"
 "http://www.w3.org/Graphics/SVG/1.1/DTD/svg11.dtd">
<!-- Generated by graphviz version 2.38.0 (20140413.2041)
 -->
<!-- Title: %3 Pages: 1 -->
<svg width="3475pt" height="404pt"
 viewBox="0.00 0.00 3474.58 404.00" xmlns="http://www.w3.org/2000/svg" xmlns:xlink="http://www.w3.org/1999/xlink">
<g id="graph0" class="graph" transform="scale(1 1) rotate(0) translate(4 400)">
<title>%3</title>
<polygon fill="white" stroke="none" points="-4,4 -4,-400 3470.58,-400 3470.58,4 -4,4"/>
<!-- ExpTemp9 -->
<g id="node1" class="node"><title>ExpTemp9</title>
<ellipse fill="none" stroke="black" cx="1769.39" cy="-234" rx="50.0912" ry="18"/>
<text text-anchor="middle" x="1769.39" y="-230.3" font-family="Times,serif" font-size="14.00">ExpTemp9</text>
</g>
<!-- Temp9: T14 -->
<g id="node2" class="node"><title>Temp9: T14</title>
<ellipse fill="none" stroke="black" cx="1763.39" cy="-162" rx="55.4913" ry="18"/>
<text text-anchor="middle" x="1763.39" y="-158.3" font-family="Times,serif" font-size="14.00">Temp9: T14</text>
</g>
<!-- ExpTemp9&#45;&gt;Temp9: T14 -->
<g id="edge1" class="edge"><title>ExpTemp9&#45;&gt;Temp9: T14</title>
<path fill="none" stroke="black" d="M1767.91,-215.697C1767.25,-207.983 1766.45,-198.712 1765.71,-190.112"/>
<polygon fill="black" stroke="black" points="1769.2,-189.769 1764.86,-180.104 1762.22,-190.367 1769.2,-189.769"/>
</g>
<!-- ExpBinary0 -->
<g id="node3" class="node"><title>ExpBinary0</title>
<ellipse fill="none" stroke="black" cx="1534.39" cy="-234" rx="53.0913" ry="18"/>
<text text-anchor="middle" x="1534.39" y="-230.3" font-family="Times,serif" font-size="14.00">ExpBinary0</text>
</g>
<!-- ExpConst0 -->
<g id="node4" class="node"><title>ExpConst0</title>
<ellipse fill="none" stroke="black" cx="1428.39" cy="-162" rx="50.0912" ry="18"/>
<text text-anchor="middle" x="1428.39" y="-158.3" font-family="Times,serif" font-size="14.00">ExpConst0</text>
</g>
<!-- ExpBinary0&#45;&gt;ExpConst0 -->
<g id="edge2" class="edge"><title>ExpBinary0&#45;&gt;ExpConst0</title>
<path fill="none" stroke="black" d="M1511.13,-217.638C1496.11,-207.723 1476.39,-194.698 1459.97,-183.853"/>
<polygon fill="black" stroke="black" points="1461.51,-180.675 1451.23,-178.085 1457.65,-186.517 1461.51,-180.675"/>
</g>
<!-- Times0 -->
<g id="node5" class="node"><title>Times0</title>
<ellipse fill="none" stroke="black" cx="1534.39" cy="-162" rx="37.8943" ry="18"/>
<text text-anchor="middle" x="1534.39" y="-158.3" font-family="Times,serif" font-size="14.00">Times0</text>
</g>
<!-- ExpBinary0&#45;&gt;Times0 -->
<g id="edge3" class="edge"><title>ExpBinary0&#45;&gt;Times0</title>
<path fill="none" stroke="black" d="M1534.39,-215.697C1534.39,-207.983 1534.39,-198.712 1534.39,-190.112"/>
<polygon fill="black" stroke="black" points="1537.89,-190.104 1534.39,-180.104 1530.89,-190.104 1537.89,-190.104"/>
</g>
<!-- ExpConst1 -->
<g id="node6" class="node"><title>ExpConst1</title>
<ellipse fill="none" stroke="black" cx="1640.39" cy="-162" rx="50.0912" ry="18"/>
<text text-anchor="middle" x="1640.39" y="-158.3" font-family="Times,serif" font-size="14.00">ExpConst1</text>
</g>
<!-- ExpBinary0&#45;&gt;ExpConst1 -->
<g id="edge4" class="edge"><title>ExpBinary0&#45;&gt;ExpConst1</title>
<path fill="none" stroke="black" d="M1557.65,-217.638C1572.67,-207.723 1592.39,-194.698 1608.81,-183.853"/>
<polygon fill="black" stroke="black" points="1611.13,-186.517 1617.55,-178.085 1607.27,-180.675 1611.13,-186.517"/>
</g>
<!-- Value0: 2 -->
<g id="node9" class="node"><title>Value0: 2</title>
<ellipse fill="none" stroke="black" cx="1428.39" cy="-90" rx="45.4919" ry="18"/>
<text text-anchor="middle" x="1428.39" y="-86.3" font-family="Times,serif" font-size="14.00">Value0: 2</text>
</g>
<!-- ExpConst0&#45;&gt;Value0: 2 -->
<g id="edge6" class="edge"><title>ExpConst0&#45;&gt;Value0: 2</title>
<path fill="none" stroke="black" d="M1428.39,-143.697C1428.39,-135.983 1428.39,-126.712 1428.39,-118.112"/>
<polygon fill="black" stroke="black" points="1431.89,-118.104 1428.39,-108.104 1424.89,-118.104 1431.89,-118.104"/>
</g>
<!-- Value1: 4 -->
<g id="node12" class="node"><title>Value1: 4</title>
<ellipse fill="none" stroke="black" cx="1640.39" cy="-90" rx="45.4919" ry="18"/>
<text text-anchor="middle" x="1640.39" y="-86.3" font-family="Times,serif" font-size="14.00">Value1: 4</text>
</g>
<!-- ExpConst1&#45;&gt;Value1: 4 -->
<g id="edge9" class="edge"><title>ExpConst1&#45;&gt;Value1: 4</title>
<path fill="none" stroke="black" d="M1640.39,-143.697C1640.39,-135.983 1640.39,-126.712 1640.39,-118.112"/>
<polygon fill="black" stroke="black" points="1643.89,-118.104 1640.39,-108.104 1636.89,-118.104 1643.89,-118.104"/>
</g>
<!-- ExpTemp12 -->
<g id="node7" class="node"><title>ExpTemp12</title>
<ellipse fill="none" stroke="black" cx="2376.39" cy="-234" rx="54.6905" ry="18"/>
<text text-anchor="middle" x="2376.39" y="-230.3" font-family="Times,serif" font-size="14.00">ExpTemp12</text>
</g>
<!-- Temp12: T17 -->
<g id="node8" class="node"><title>Temp12: T17</title>
<ellipse fill="none" stroke="black" cx="2376.39" cy="-162" rx="59.5901" ry="18"/>
<text text-anchor="middle" x="2376.39" y="-158.3" font-family="Times,serif" font-size="14.00">Temp12: T17</text>
</g>
<!-- ExpTemp12&#45;&gt;Temp12: T17 -->
<g id="edge5" class="edge"><title>ExpTemp12&#45;&gt;Temp12: T17</title>
<path fill="none" stroke="black" d="M2376.39,-215.697C2376.39,-207.983 2376.39,-198.712 2376.39,-190.112"/>
<polygon fill="black" stroke="black" points="2379.89,-190.104 2376.39,-180.104 2372.89,-190.104 2379.89,-190.104"/>
</g>
<!-- StatMove5 -->
<g id="node10" class="node"><title>StatMove5</title>
<ellipse fill="none" stroke="black" cx="1828.39" cy="-306" rx="50.0912" ry="18"/>
<text text-anchor="middle" x="1828.39" y="-302.3" font-family="Times,serif" font-size="14.00">StatMove5</text>
</g>
<!-- StatMove5&#45;&gt;ExpTemp9 -->
<g id="edge7" class="edge"><title>StatMove5&#45;&gt;ExpTemp9</title>
<path fill="none" stroke="black" d="M1814.41,-288.411C1807.06,-279.693 1797.92,-268.845 1789.79,-259.208"/>
<polygon fill="black" stroke="black" points="1792.39,-256.861 1783.27,-251.47 1787.04,-261.372 1792.39,-256.861"/>
</g>
<!-- ExpCall0 -->
<g id="node11" class="node"><title>ExpCall0</title>
<ellipse fill="none" stroke="black" cx="1887.39" cy="-234" rx="44.393" ry="18"/>
<text text-anchor="middle" x="1887.39" y="-230.3" font-family="Times,serif" font-size="14.00">ExpCall0</text>
</g>
<!-- StatMove5&#45;&gt;ExpCall0 -->
<g id="edge8" class="edge"><title>StatMove5&#45;&gt;ExpCall0</title>
<path fill="none" stroke="black" d="M1842.37,-288.411C1849.72,-279.693 1858.86,-268.845 1866.99,-259.208"/>
<polygon fill="black" stroke="black" points="1869.74,-261.372 1873.51,-251.47 1864.39,-256.861 1869.74,-261.372"/>
</g>
<!-- ExpName0 -->
<g id="node26" class="node"><title>ExpName0</title>
<ellipse fill="none" stroke="black" cx="1887.39" cy="-162" rx="50.8918" ry="18"/>
<text text-anchor="middle" x="1887.39" y="-158.3" font-family="Times,serif" font-size="14.00">ExpName0</text>
</g>
<!-- ExpCall0&#45;&gt;ExpName0 -->
<g id="edge47" class="edge"><title>ExpCall0&#45;&gt;ExpName0</title>
<path fill="none" stroke="black" d="M1887.39,-215.697C1887.39,-207.983 1887.39,-198.712 1887.39,-190.112"/>
<polygon fill="black" stroke="black" points="1890.89,-190.104 1887.39,-180.104 1883.89,-190.104 1890.89,-190.104"/>
</g>
<!-- ExpList0 -->
<g id="node57" class="node"><title>ExpList0</title>
<ellipse fill="none" stroke="black" cx="1999.39" cy="-162" rx="42.7926" ry="18"/>
<text text-anchor="middle" x="1999.39" y="-158.3" font-family="Times,serif" font-size="14.00">ExpList0</text>
</g>
<!-- ExpCall0&#45;&gt;ExpList0 -->
<g id="edge48" class="edge"><title>ExpCall0&#45;&gt;ExpList0</title>
<path fill="none" stroke="black" d="M1910.6,-218.496C1927.12,-208.172 1949.51,-194.174 1967.68,-182.819"/>
<polygon fill="black" stroke="black" points="1969.59,-185.753 1976.21,-177.485 1965.88,-179.818 1969.59,-185.753"/>
</g>
<!-- StatMove4 -->
<g id="node13" class="node"><title>StatMove4</title>
<ellipse fill="none" stroke="black" cx="1534.39" cy="-306" rx="50.0912" ry="18"/>
<text text-anchor="middle" x="1534.39" y="-302.3" font-family="Times,serif" font-size="14.00">StatMove4</text>
</g>
<!-- StatMove4&#45;&gt;ExpBinary0 -->
<g id="edge11" class="edge"><title>StatMove4&#45;&gt;ExpBinary0</title>
<path fill="none" stroke="black" d="M1534.39,-287.697C1534.39,-279.983 1534.39,-270.712 1534.39,-262.112"/>
<polygon fill="black" stroke="black" points="1537.89,-262.104 1534.39,-252.104 1530.89,-262.104 1537.89,-262.104"/>
</g>
<!-- ExpTemp8 -->
<g id="node14" class="node"><title>ExpTemp8</title>
<ellipse fill="none" stroke="black" cx="1359.39" cy="-234" rx="50.0912" ry="18"/>
<text text-anchor="middle" x="1359.39" y="-230.3" font-family="Times,serif" font-size="14.00">ExpTemp8</text>
</g>
<!-- StatMove4&#45;&gt;ExpTemp8 -->
<g id="edge10" class="edge"><title>StatMove4&#45;&gt;ExpTemp8</title>
<path fill="none" stroke="black" d="M1502.29,-292.161C1473.89,-280.8 1432.26,-264.146 1401.24,-251.742"/>
<polygon fill="black" stroke="black" points="1402.16,-248.34 1391.58,-247.876 1399.56,-254.84 1402.16,-248.34"/>
</g>
<!-- Temp8: T13 -->
<g id="node22" class="node"><title>Temp8: T13</title>
<ellipse fill="none" stroke="black" cx="1305.39" cy="-162" rx="55.4913" ry="18"/>
<text text-anchor="middle" x="1305.39" y="-158.3" font-family="Times,serif" font-size="14.00">Temp8: T13</text>
</g>
<!-- ExpTemp8&#45;&gt;Temp8: T13 -->
<g id="edge17" class="edge"><title>ExpTemp8&#45;&gt;Temp8: T13</title>
<path fill="none" stroke="black" d="M1346.59,-216.411C1340.03,-207.906 1331.91,-197.372 1324.61,-187.914"/>
<polygon fill="black" stroke="black" points="1327.35,-185.736 1318.47,-179.956 1321.81,-190.012 1327.35,-185.736"/>
</g>
<!-- StatMove7 -->
<g id="node15" class="node"><title>StatMove7</title>
<ellipse fill="none" stroke="black" cx="2376.39" cy="-306" rx="50.0912" ry="18"/>
<text text-anchor="middle" x="2376.39" y="-302.3" font-family="Times,serif" font-size="14.00">StatMove7</text>
</g>
<!-- StatMove7&#45;&gt;ExpTemp12 -->
<g id="edge12" class="edge"><title>StatMove7&#45;&gt;ExpTemp12</title>
<path fill="none" stroke="black" d="M2376.39,-287.697C2376.39,-279.983 2376.39,-270.712 2376.39,-262.112"/>
<polygon fill="black" stroke="black" points="2379.89,-262.104 2376.39,-252.104 2372.89,-262.104 2379.89,-262.104"/>
</g>
<!-- ExpCall1 -->
<g id="node16" class="node"><title>ExpCall1</title>
<ellipse fill="none" stroke="black" cx="2504.39" cy="-234" rx="44.393" ry="18"/>
<text text-anchor="middle" x="2504.39" y="-230.3" font-family="Times,serif" font-size="14.00">ExpCall1</text>
</g>
<!-- StatMove7&#45;&gt;ExpCall1 -->
<g id="edge13" class="edge"><title>StatMove7&#45;&gt;ExpCall1</title>
<path fill="none" stroke="black" d="M2402.6,-290.666C2422.1,-280.004 2448.88,-265.356 2470.08,-253.762"/>
<polygon fill="black" stroke="black" points="2471.99,-256.707 2479.09,-248.838 2468.63,-250.566 2471.99,-256.707"/>
</g>
<!-- ExpList1 -->
<g id="node17" class="node"><title>ExpList1</title>
<ellipse fill="none" stroke="black" cx="2616.39" cy="-162" rx="42.7926" ry="18"/>
<text text-anchor="middle" x="2616.39" y="-158.3" font-family="Times,serif" font-size="14.00">ExpList1</text>
</g>
<!-- ExpCall1&#45;&gt;ExpList1 -->
<g id="edge61" class="edge"><title>ExpCall1&#45;&gt;ExpList1</title>
<path fill="none" stroke="black" d="M2527.6,-218.496C2544.12,-208.172 2566.51,-194.174 2584.68,-182.819"/>
<polygon fill="black" stroke="black" points="2586.59,-185.753 2593.21,-177.485 2582.88,-179.818 2586.59,-185.753"/>
</g>
<!-- ExpName1 -->
<g id="node68" class="node"><title>ExpName1</title>
<ellipse fill="none" stroke="black" cx="2504.39" cy="-162" rx="50.8918" ry="18"/>
<text text-anchor="middle" x="2504.39" y="-158.3" font-family="Times,serif" font-size="14.00">ExpName1</text>
</g>
<!-- ExpCall1&#45;&gt;ExpName1 -->
<g id="edge60" class="edge"><title>ExpCall1&#45;&gt;ExpName1</title>
<path fill="none" stroke="black" d="M2504.39,-215.697C2504.39,-207.983 2504.39,-198.712 2504.39,-190.112"/>
<polygon fill="black" stroke="black" points="2507.89,-190.104 2504.39,-180.104 2500.89,-190.104 2507.89,-190.104"/>
</g>
<!-- ExpTemp13 -->
<g id="node18" class="node"><title>ExpTemp13</title>
<ellipse fill="none" stroke="black" cx="2616.39" cy="-90" rx="54.6905" ry="18"/>
<text text-anchor="middle" x="2616.39" y="-86.3" font-family="Times,serif" font-size="14.00">ExpTemp13</text>
</g>
<!-- ExpList1&#45;&gt;ExpTemp13 -->
<g id="edge14" class="edge"><title>ExpList1&#45;&gt;ExpTemp13</title>
<path fill="none" stroke="black" d="M2616.39,-143.697C2616.39,-135.983 2616.39,-126.712 2616.39,-118.112"/>
<polygon fill="black" stroke="black" points="2619.89,-118.104 2616.39,-108.104 2612.89,-118.104 2619.89,-118.104"/>
</g>
<!-- ExpTemp14 -->
<g id="node19" class="node"><title>ExpTemp14</title>
<ellipse fill="none" stroke="black" cx="2746.39" cy="-90" rx="54.6905" ry="18"/>
<text text-anchor="middle" x="2746.39" y="-86.3" font-family="Times,serif" font-size="14.00">ExpTemp14</text>
</g>
<!-- ExpList1&#45;&gt;ExpTemp14 -->
<g id="edge15" class="edge"><title>ExpList1&#45;&gt;ExpTemp14</title>
<path fill="none" stroke="black" d="M2641.76,-147.337C2661.16,-136.893 2688.17,-122.349 2709.89,-110.656"/>
<polygon fill="black" stroke="black" points="2711.69,-113.661 2718.83,-105.839 2708.37,-107.498 2711.69,-113.661"/>
</g>
<!-- Temp13: T15 -->
<g id="node71" class="node"><title>Temp13: T15</title>
<ellipse fill="none" stroke="black" cx="2611.39" cy="-18" rx="59.5901" ry="18"/>
<text text-anchor="middle" x="2611.39" y="-14.3" font-family="Times,serif" font-size="14.00">Temp13: T15</text>
</g>
<!-- ExpTemp13&#45;&gt;Temp13: T15 -->
<g id="edge62" class="edge"><title>ExpTemp13&#45;&gt;Temp13: T15</title>
<path fill="none" stroke="black" d="M2615.15,-71.6966C2614.6,-63.9827 2613.94,-54.7125 2613.33,-46.1124"/>
<polygon fill="black" stroke="black" points="2616.82,-45.8295 2612.61,-36.1043 2609.83,-46.3283 2616.82,-45.8295"/>
</g>
<!-- Temp14: T16 -->
<g id="node37" class="node"><title>Temp14: T16</title>
<ellipse fill="none" stroke="black" cx="2749.39" cy="-18" rx="59.5901" ry="18"/>
<text text-anchor="middle" x="2749.39" y="-14.3" font-family="Times,serif" font-size="14.00">Temp14: T16</text>
</g>
<!-- ExpTemp14&#45;&gt;Temp14: T16 -->
<g id="edge26" class="edge"><title>ExpTemp14&#45;&gt;Temp14: T16</title>
<path fill="none" stroke="black" d="M2747.13,-71.6966C2747.46,-63.9827 2747.86,-54.7125 2748.23,-46.1124"/>
<polygon fill="black" stroke="black" points="2751.73,-46.2451 2748.66,-36.1043 2744.73,-45.9453 2751.73,-46.2451"/>
</g>
<!-- ExpTemp18 -->
<g id="node20" class="node"><title>ExpTemp18</title>
<ellipse fill="none" stroke="black" cx="3261.39" cy="-90" rx="54.6905" ry="18"/>
<text text-anchor="middle" x="3261.39" y="-86.3" font-family="Times,serif" font-size="14.00">ExpTemp18</text>
</g>
<!-- Temp18: T18 -->
<g id="node21" class="node"><title>Temp18: T18</title>
<ellipse fill="none" stroke="black" cx="3261.39" cy="-18" rx="59.5901" ry="18"/>
<text text-anchor="middle" x="3261.39" y="-14.3" font-family="Times,serif" font-size="14.00">Temp18: T18</text>
</g>
<!-- ExpTemp18&#45;&gt;Temp18: T18 -->
<g id="edge16" class="edge"><title>ExpTemp18&#45;&gt;Temp18: T18</title>
<path fill="none" stroke="black" d="M3261.39,-71.6966C3261.39,-63.9827 3261.39,-54.7125 3261.39,-46.1124"/>
<polygon fill="black" stroke="black" points="3264.89,-46.1043 3261.39,-36.1043 3257.89,-46.1044 3264.89,-46.1043"/>
</g>
<!-- StatMove1 -->
<g id="node23" class="node"><title>StatMove1</title>
<ellipse fill="none" stroke="black" cx="665.39" cy="-306" rx="50.0912" ry="18"/>
<text text-anchor="middle" x="665.39" y="-302.3" font-family="Times,serif" font-size="14.00">StatMove1</text>
</g>
<!-- ExpTemp2 -->
<g id="node24" class="node"><title>ExpTemp2</title>
<ellipse fill="none" stroke="black" cx="542.39" cy="-234" rx="50.0912" ry="18"/>
<text text-anchor="middle" x="542.39" y="-230.3" font-family="Times,serif" font-size="14.00">ExpTemp2</text>
</g>
<!-- StatMove1&#45;&gt;ExpTemp2 -->
<g id="edge18" class="edge"><title>StatMove1&#45;&gt;ExpTemp2</title>
<path fill="none" stroke="black" d="M639.904,-290.496C621.72,-280.147 597.05,-266.107 577.074,-254.739"/>
<polygon fill="black" stroke="black" points="578.688,-251.631 568.266,-249.726 575.226,-257.714 578.688,-251.631"/>
</g>
<!-- ExpTemp3 -->
<g id="node25" class="node"><title>ExpTemp3</title>
<ellipse fill="none" stroke="black" cx="665.39" cy="-234" rx="50.0912" ry="18"/>
<text text-anchor="middle" x="665.39" y="-230.3" font-family="Times,serif" font-size="14.00">ExpTemp3</text>
</g>
<!-- StatMove1&#45;&gt;ExpTemp3 -->
<g id="edge19" class="edge"><title>StatMove1&#45;&gt;ExpTemp3</title>
<path fill="none" stroke="black" d="M665.39,-287.697C665.39,-279.983 665.39,-270.712 665.39,-262.112"/>
<polygon fill="black" stroke="black" points="668.89,-262.104 665.39,-252.104 661.89,-262.104 668.89,-262.104"/>
</g>
<!-- Temp2: T17 -->
<g id="node54" class="node"><title>Temp2: T17</title>
<ellipse fill="none" stroke="black" cx="537.39" cy="-162" rx="55.4913" ry="18"/>
<text text-anchor="middle" x="537.39" y="-158.3" font-family="Times,serif" font-size="14.00">Temp2: T17</text>
</g>
<!-- ExpTemp2&#45;&gt;Temp2: T17 -->
<g id="edge45" class="edge"><title>ExpTemp2&#45;&gt;Temp2: T17</title>
<path fill="none" stroke="black" d="M541.154,-215.697C540.603,-207.983 539.941,-198.712 539.326,-190.112"/>
<polygon fill="black" stroke="black" points="542.815,-189.83 538.612,-180.104 535.833,-190.328 542.815,-189.83"/>
</g>
<!-- Temp3: T11 -->
<g id="node53" class="node"><title>Temp3: T11</title>
<ellipse fill="none" stroke="black" cx="665.39" cy="-162" rx="55.4913" ry="18"/>
<text text-anchor="middle" x="665.39" y="-158.3" font-family="Times,serif" font-size="14.00">Temp3: T11</text>
</g>
<!-- ExpTemp3&#45;&gt;Temp3: T11 -->
<g id="edge44" class="edge"><title>ExpTemp3&#45;&gt;Temp3: T11</title>
<path fill="none" stroke="black" d="M665.39,-215.697C665.39,-207.983 665.39,-198.712 665.39,-190.112"/>
<polygon fill="black" stroke="black" points="668.89,-190.104 665.39,-180.104 661.89,-190.104 668.89,-190.104"/>
</g>
<!-- Label1: malloc -->
<g id="node27" class="node"><title>Label1: malloc</title>
<ellipse fill="none" stroke="black" cx="1875.39" cy="-90" rx="64.189" ry="18"/>
<text text-anchor="middle" x="1875.39" y="-86.3" font-family="Times,serif" font-size="14.00">Label1: malloc</text>
</g>
<!-- ExpName0&#45;&gt;Label1: malloc -->
<g id="edge20" class="edge"><title>ExpName0&#45;&gt;Label1: malloc</title>
<path fill="none" stroke="black" d="M1884.42,-143.697C1883.1,-135.983 1881.51,-126.712 1880.04,-118.112"/>
<polygon fill="black" stroke="black" points="1883.46,-117.369 1878.32,-108.104 1876.56,-118.552 1883.46,-117.369"/>
</g>
<!-- ExpTemp4 -->
<g id="node28" class="node"><title>ExpTemp4</title>
<ellipse fill="none" stroke="black" cx="798.39" cy="-234" rx="50.0912" ry="18"/>
<text text-anchor="middle" x="798.39" y="-230.3" font-family="Times,serif" font-size="14.00">ExpTemp4</text>
</g>
<!-- Temp4: T15 -->
<g id="node29" class="node"><title>Temp4: T15</title>
<ellipse fill="none" stroke="black" cx="793.39" cy="-162" rx="55.4913" ry="18"/>
<text text-anchor="middle" x="793.39" y="-158.3" font-family="Times,serif" font-size="14.00">Temp4: T15</text>
</g>
<!-- ExpTemp4&#45;&gt;Temp4: T15 -->
<g id="edge21" class="edge"><title>ExpTemp4&#45;&gt;Temp4: T15</title>
<path fill="none" stroke="black" d="M797.154,-215.697C796.603,-207.983 795.941,-198.712 795.326,-190.112"/>
<polygon fill="black" stroke="black" points="798.815,-189.83 794.612,-180.104 791.833,-190.328 798.815,-189.83"/>
</g>
<!-- StatMove3 -->
<g id="node30" class="node"><title>StatMove3</title>
<ellipse fill="none" stroke="black" cx="1177.39" cy="-306" rx="50.0912" ry="18"/>
<text text-anchor="middle" x="1177.39" y="-302.3" font-family="Times,serif" font-size="14.00">StatMove3</text>
</g>
<!-- ExpTemp6 -->
<g id="node31" class="node"><title>ExpTemp6</title>
<ellipse fill="none" stroke="black" cx="1054.39" cy="-234" rx="50.0912" ry="18"/>
<text text-anchor="middle" x="1054.39" y="-230.3" font-family="Times,serif" font-size="14.00">ExpTemp6</text>
</g>
<!-- StatMove3&#45;&gt;ExpTemp6 -->
<g id="edge22" class="edge"><title>StatMove3&#45;&gt;ExpTemp6</title>
<path fill="none" stroke="black" d="M1151.9,-290.496C1133.72,-280.147 1109.05,-266.107 1089.07,-254.739"/>
<polygon fill="black" stroke="black" points="1090.69,-251.631 1080.27,-249.726 1087.23,-257.714 1090.69,-251.631"/>
</g>
<!-- ExpTemp7 -->
<g id="node32" class="node"><title>ExpTemp7</title>
<ellipse fill="none" stroke="black" cx="1177.39" cy="-234" rx="50.0912" ry="18"/>
<text text-anchor="middle" x="1177.39" y="-230.3" font-family="Times,serif" font-size="14.00">ExpTemp7</text>
</g>
<!-- StatMove3&#45;&gt;ExpTemp7 -->
<g id="edge23" class="edge"><title>StatMove3&#45;&gt;ExpTemp7</title>
<path fill="none" stroke="black" d="M1177.39,-287.697C1177.39,-279.983 1177.39,-270.712 1177.39,-262.112"/>
<polygon fill="black" stroke="black" points="1180.89,-262.104 1177.39,-252.104 1173.89,-262.104 1180.89,-262.104"/>
</g>
<!-- Temp6: T14 -->
<g id="node60" class="node"><title>Temp6: T14</title>
<ellipse fill="none" stroke="black" cx="1049.39" cy="-162" rx="55.4913" ry="18"/>
<text text-anchor="middle" x="1049.39" y="-158.3" font-family="Times,serif" font-size="14.00">Temp6: T14</text>
</g>
<!-- ExpTemp6&#45;&gt;Temp6: T14 -->
<g id="edge51" class="edge"><title>ExpTemp6&#45;&gt;Temp6: T14</title>
<path fill="none" stroke="black" d="M1053.15,-215.697C1052.6,-207.983 1051.94,-198.712 1051.33,-190.112"/>
<polygon fill="black" stroke="black" points="1054.82,-189.83 1050.61,-180.104 1047.83,-190.328 1054.82,-189.83"/>
</g>
<!-- Temp7: T10 -->
<g id="node40" class="node"><title>Temp7: T10</title>
<ellipse fill="none" stroke="black" cx="1177.39" cy="-162" rx="55.4913" ry="18"/>
<text text-anchor="middle" x="1177.39" y="-158.3" font-family="Times,serif" font-size="14.00">Temp7: T10</text>
</g>
<!-- ExpTemp7&#45;&gt;Temp7: T10 -->
<g id="edge28" class="edge"><title>ExpTemp7&#45;&gt;Temp7: T10</title>
<path fill="none" stroke="black" d="M1177.39,-215.697C1177.39,-207.983 1177.39,-198.712 1177.39,-190.112"/>
<polygon fill="black" stroke="black" points="1180.89,-190.104 1177.39,-180.104 1173.89,-190.104 1180.89,-190.104"/>
</g>
<!-- ExpTemp5 -->
<g id="node33" class="node"><title>ExpTemp5</title>
<ellipse fill="none" stroke="black" cx="921.39" cy="-234" rx="50.0912" ry="18"/>
<text text-anchor="middle" x="921.39" y="-230.3" font-family="Times,serif" font-size="14.00">ExpTemp5</text>
</g>
<!-- Temp5: T10 -->
<g id="node34" class="node"><title>Temp5: T10</title>
<ellipse fill="none" stroke="black" cx="921.39" cy="-162" rx="55.4913" ry="18"/>
<text text-anchor="middle" x="921.39" y="-158.3" font-family="Times,serif" font-size="14.00">Temp5: T10</text>
</g>
<!-- ExpTemp5&#45;&gt;Temp5: T10 -->
<g id="edge24" class="edge"><title>ExpTemp5&#45;&gt;Temp5: T10</title>
<path fill="none" stroke="black" d="M921.39,-215.697C921.39,-207.983 921.39,-198.712 921.39,-190.112"/>
<polygon fill="black" stroke="black" points="924.89,-190.104 921.39,-180.104 917.89,-190.104 924.89,-190.104"/>
</g>
<!-- ExpTemp1 -->
<g id="node35" class="node"><title>ExpTemp1</title>
<ellipse fill="none" stroke="black" cx="414.39" cy="-234" rx="50.0912" ry="18"/>
<text text-anchor="middle" x="414.39" y="-230.3" font-family="Times,serif" font-size="14.00">ExpTemp1</text>
</g>
<!-- Temp1: T12 -->
<g id="node36" class="node"><title>Temp1: T12</title>
<ellipse fill="none" stroke="black" cx="409.39" cy="-162" rx="55.4913" ry="18"/>
<text text-anchor="middle" x="409.39" y="-158.3" font-family="Times,serif" font-size="14.00">Temp1: T12</text>
</g>
<!-- ExpTemp1&#45;&gt;Temp1: T12 -->
<g id="edge25" class="edge"><title>ExpTemp1&#45;&gt;Temp1: T12</title>
<path fill="none" stroke="black" d="M413.154,-215.697C412.603,-207.983 411.941,-198.712 411.326,-190.112"/>
<polygon fill="black" stroke="black" points="414.815,-189.83 410.612,-180.104 407.833,-190.328 414.815,-189.83"/>
</g>
<!-- ExpName2 -->
<g id="node38" class="node"><title>ExpName2</title>
<ellipse fill="none" stroke="black" cx="3141.39" cy="-162" rx="50.8918" ry="18"/>
<text text-anchor="middle" x="3141.39" y="-158.3" font-family="Times,serif" font-size="14.00">ExpName2</text>
</g>
<!-- Label3: print -->
<g id="node39" class="node"><title>Label3: print</title>
<ellipse fill="none" stroke="black" cx="3132.39" cy="-90" rx="56.59" ry="18"/>
<text text-anchor="middle" x="3132.39" y="-86.3" font-family="Times,serif" font-size="14.00">Label3: print</text>
</g>
<!-- ExpName2&#45;&gt;Label3: print -->
<g id="edge27" class="edge"><title>ExpName2&#45;&gt;Label3: print</title>
<path fill="none" stroke="black" d="M3139.17,-143.697C3138.17,-135.983 3136.98,-126.712 3135.88,-118.112"/>
<polygon fill="black" stroke="black" points="3139.34,-117.576 3134.59,-108.104 3132.39,-118.469 3139.34,-117.576"/>
</g>
<!-- ExpTemp0 -->
<g id="node41" class="node"><title>ExpTemp0</title>
<ellipse fill="none" stroke="black" cx="296.39" cy="-234" rx="50.0912" ry="18"/>
<text text-anchor="middle" x="296.39" y="-230.3" font-family="Times,serif" font-size="14.00">ExpTemp0</text>
</g>
<!-- Temp0: T19 -->
<g id="node42" class="node"><title>Temp0: T19</title>
<ellipse fill="none" stroke="black" cx="281.39" cy="-162" rx="55.4913" ry="18"/>
<text text-anchor="middle" x="281.39" y="-158.3" font-family="Times,serif" font-size="14.00">Temp0: T19</text>
</g>
<!-- ExpTemp0&#45;&gt;Temp0: T19 -->
<g id="edge29" class="edge"><title>ExpTemp0&#45;&gt;Temp0: T19</title>
<path fill="none" stroke="black" d="M292.682,-215.697C291.029,-207.983 289.043,-198.712 287.2,-190.112"/>
<polygon fill="black" stroke="black" points="290.573,-189.149 285.055,-180.104 283.728,-190.616 290.573,-189.149"/>
</g>
<!-- StatList0 -->
<g id="node43" class="node"><title>StatList0</title>
<ellipse fill="none" stroke="black" cx="1828.39" cy="-378" rx="42.4939" ry="18"/>
<text text-anchor="middle" x="1828.39" y="-374.3" font-family="Times,serif" font-size="14.00">StatList0</text>
</g>
<!-- StatList0&#45;&gt;StatMove5 -->
<g id="edge36" class="edge"><title>StatList0&#45;&gt;StatMove5</title>
<path fill="none" stroke="black" d="M1828.39,-359.697C1828.39,-351.983 1828.39,-342.712 1828.39,-334.112"/>
<polygon fill="black" stroke="black" points="1831.89,-334.104 1828.39,-324.104 1824.89,-334.104 1831.89,-334.104"/>
</g>
<!-- StatList0&#45;&gt;StatMove4 -->
<g id="edge35" class="edge"><title>StatList0&#45;&gt;StatMove4</title>
<path fill="none" stroke="black" d="M1792.34,-368.417C1740.3,-356.027 1643.92,-333.079 1584.84,-319.013"/>
<polygon fill="black" stroke="black" points="1585.52,-315.576 1574.98,-316.664 1583.9,-322.385 1585.52,-315.576"/>
</g>
<!-- StatList0&#45;&gt;StatMove7 -->
<g id="edge38" class="edge"><title>StatList0&#45;&gt;StatMove7</title>
<path fill="none" stroke="black" d="M1868.24,-371.909C1964.26,-359.645 2208.64,-328.428 2319.8,-314.229"/>
<polygon fill="black" stroke="black" points="2320.34,-317.688 2329.81,-312.95 2319.45,-310.745 2320.34,-317.688"/>
</g>
<!-- StatList0&#45;&gt;StatMove1 -->
<g id="edge32" class="edge"><title>StatList0&#45;&gt;StatMove1</title>
<path fill="none" stroke="black" d="M1786.46,-375.169C1652.03,-369.197 1219.68,-349.211 862.39,-324 815.553,-320.695 762.528,-316.069 723.299,-312.477"/>
<polygon fill="black" stroke="black" points="723.405,-308.972 713.126,-311.54 722.763,-315.942 723.405,-308.972"/>
</g>
<!-- StatList0&#45;&gt;StatMove3 -->
<g id="edge34" class="edge"><title>StatList0&#45;&gt;StatMove3</title>
<path fill="none" stroke="black" d="M1787.67,-372.621C1675.87,-360.6 1363.95,-327.06 1234.66,-313.158"/>
<polygon fill="black" stroke="black" points="1234.88,-309.662 1224.57,-312.073 1234.13,-316.622 1234.88,-309.662"/>
</g>
<!-- StatLabel0 -->
<g id="node44" class="node"><title>StatLabel0</title>
<ellipse fill="none" stroke="black" cx="206.39" cy="-306" rx="48.9926" ry="18"/>
<text text-anchor="middle" x="206.39" y="-302.3" font-family="Times,serif" font-size="14.00">StatLabel0</text>
</g>
<!-- StatList0&#45;&gt;StatLabel0 -->
<g id="edge30" class="edge"><title>StatList0&#45;&gt;StatLabel0</title>
<path fill="none" stroke="black" d="M1786.14,-376.679C1610.47,-375.092 920.612,-366.349 355.39,-324 324.173,-321.661 289.412,-317.769 261.322,-314.299"/>
<polygon fill="black" stroke="black" points="261.651,-310.813 251.294,-313.043 260.781,-317.759 261.651,-310.813"/>
</g>
<!-- StatMove0 -->
<g id="node45" class="node"><title>StatMove0</title>
<ellipse fill="none" stroke="black" cx="414.39" cy="-306" rx="50.0912" ry="18"/>
<text text-anchor="middle" x="414.39" y="-302.3" font-family="Times,serif" font-size="14.00">StatMove0</text>
</g>
<!-- StatList0&#45;&gt;StatMove0 -->
<g id="edge31" class="edge"><title>StatList0&#45;&gt;StatMove0</title>
<path fill="none" stroke="black" d="M1786.41,-375.864C1630.31,-371.493 1068.58,-354.469 606.39,-324 561.37,-321.032 510.516,-316.475 472.46,-312.826"/>
<polygon fill="black" stroke="black" points="472.371,-309.301 462.081,-311.823 471.697,-316.269 472.371,-309.301"/>
</g>
<!-- StatMove2 -->
<g id="node46" class="node"><title>StatMove2</title>
<ellipse fill="none" stroke="black" cx="921.39" cy="-306" rx="50.0912" ry="18"/>
<text text-anchor="middle" x="921.39" y="-302.3" font-family="Times,serif" font-size="14.00">StatMove2</text>
</g>
<!-- StatList0&#45;&gt;StatMove2 -->
<g id="edge33" class="edge"><title>StatList0&#45;&gt;StatMove2</title>
<path fill="none" stroke="black" d="M1786.76,-374.062C1677.27,-366.297 1372.2,-344.424 1118.39,-324 1071.74,-320.247 1018.92,-315.67 979.717,-312.211"/>
<polygon fill="black" stroke="black" points="979.818,-308.707 969.549,-311.312 979.201,-315.68 979.818,-308.707"/>
</g>
<!-- StatMove6 -->
<g id="node47" class="node"><title>StatMove6</title>
<ellipse fill="none" stroke="black" cx="2120.39" cy="-306" rx="50.0912" ry="18"/>
<text text-anchor="middle" x="2120.39" y="-302.3" font-family="Times,serif" font-size="14.00">StatMove6</text>
</g>
<!-- StatList0&#45;&gt;StatMove6 -->
<g id="edge37" class="edge"><title>StatList0&#45;&gt;StatMove6</title>
<path fill="none" stroke="black" d="M1864.19,-368.417C1915.73,-356.062 2011.07,-333.207 2069.79,-319.13"/>
<polygon fill="black" stroke="black" points="2070.69,-322.514 2079.6,-316.779 2069.06,-315.707 2070.69,-322.514"/>
</g>
<!-- StatMove8 -->
<g id="node48" class="node"><title>StatMove8</title>
<ellipse fill="none" stroke="black" cx="2737.39" cy="-306" rx="50.0912" ry="18"/>
<text text-anchor="middle" x="2737.39" y="-302.3" font-family="Times,serif" font-size="14.00">StatMove8</text>
</g>
<!-- StatList0&#45;&gt;StatMove8 -->
<g id="edge39" class="edge"><title>StatList0&#45;&gt;StatMove8</title>
<path fill="none" stroke="black" d="M1869.51,-373.833C2015.39,-362.599 2508.48,-324.628 2678.89,-311.505"/>
<polygon fill="black" stroke="black" points="2679.22,-314.99 2688.92,-310.733 2678.68,-308.011 2679.22,-314.99"/>
</g>
<!-- StatMove9 -->
<g id="node49" class="node"><title>StatMove9</title>
<ellipse fill="none" stroke="black" cx="3013.39" cy="-306" rx="50.0912" ry="18"/>
<text text-anchor="middle" x="3013.39" y="-302.3" font-family="Times,serif" font-size="14.00">StatMove9</text>
</g>
<!-- StatList0&#45;&gt;StatMove9 -->
<g id="edge40" class="edge"><title>StatList0&#45;&gt;StatMove9</title>
<path fill="none" stroke="black" d="M1870.4,-375.053C2005.09,-368.735 2438.27,-347.829 2796.39,-324 2850.15,-320.423 2911.33,-315.558 2955,-311.948"/>
<polygon fill="black" stroke="black" points="2955.47,-315.421 2965.15,-311.106 2954.89,-308.445 2955.47,-315.421"/>
</g>
<!-- StatExp0 -->
<g id="node50" class="node"><title>StatExp0</title>
<ellipse fill="none" stroke="black" cx="3166.39" cy="-306" rx="42.7926" ry="18"/>
<text text-anchor="middle" x="3166.39" y="-302.3" font-family="Times,serif" font-size="14.00">StatExp0</text>
</g>
<!-- StatList0&#45;&gt;StatExp0 -->
<g id="edge41" class="edge"><title>StatList0&#45;&gt;StatExp0</title>
<path fill="none" stroke="black" d="M1870.7,-377.283C2029.28,-377.902 2603.22,-376.173 3072.39,-324 3087.66,-322.302 3104.18,-319.608 3119.06,-316.86"/>
<polygon fill="black" stroke="black" points="3119.88,-320.265 3129.05,-314.96 3118.58,-313.388 3119.88,-320.265"/>
</g>
<!-- StatJump0 -->
<g id="node51" class="node"><title>StatJump0</title>
<ellipse fill="none" stroke="black" cx="3359.39" cy="-306" rx="48.1917" ry="18"/>
<text text-anchor="middle" x="3359.39" y="-302.3" font-family="Times,serif" font-size="14.00">StatJump0</text>
</g>
<!-- StatList0&#45;&gt;StatJump0 -->
<g id="edge42" class="edge"><title>StatList0&#45;&gt;StatJump0</title>
<path fill="none" stroke="black" d="M1870.54,-376.651C2039.94,-374.982 2687.56,-366.05 3218.39,-324 3247.14,-321.722 3279.06,-317.977 3305.24,-314.581"/>
<polygon fill="black" stroke="black" points="3305.89,-318.026 3315.34,-313.251 3304.97,-311.086 3305.89,-318.026"/>
</g>
<!-- Label0: BinarySearch@main -->
<g id="node52" class="node"><title>Label0: BinarySearch@main</title>
<ellipse fill="none" stroke="black" cx="114.39" cy="-234" rx="114.28" ry="18"/>
<text text-anchor="middle" x="114.39" y="-230.3" font-family="Times,serif" font-size="14.00">Label0: BinarySearch@main</text>
</g>
<!-- StatLabel0&#45;&gt;Label0: BinarySearch@main -->
<g id="edge43" class="edge"><title>StatLabel0&#45;&gt;Label0: BinarySearch@main</title>
<path fill="none" stroke="black" d="M185.972,-289.465C173.785,-280.192 158.085,-268.246 144.495,-257.906"/>
<polygon fill="black" stroke="black" points="146.434,-254.984 136.357,-251.714 142.196,-260.555 146.434,-254.984"/>
</g>
<!-- StatMove0&#45;&gt;ExpTemp1 -->
<g id="edge65" class="edge"><title>StatMove0&#45;&gt;ExpTemp1</title>
<path fill="none" stroke="black" d="M414.39,-287.697C414.39,-279.983 414.39,-270.712 414.39,-262.112"/>
<polygon fill="black" stroke="black" points="417.89,-262.104 414.39,-252.104 410.89,-262.104 417.89,-262.104"/>
</g>
<!-- StatMove0&#45;&gt;ExpTemp0 -->
<g id="edge64" class="edge"><title>StatMove0&#45;&gt;ExpTemp0</title>
<path fill="none" stroke="black" d="M389.653,-290.326C372.267,-280.012 348.807,-266.095 329.766,-254.8"/>
<polygon fill="black" stroke="black" points="331.48,-251.747 321.094,-249.655 327.909,-257.767 331.48,-251.747"/>
</g>
<!-- StatMove2&#45;&gt;ExpTemp4 -->
<g id="edge71" class="edge"><title>StatMove2&#45;&gt;ExpTemp4</title>
<path fill="none" stroke="black" d="M895.904,-290.496C877.72,-280.147 853.05,-266.107 833.074,-254.739"/>
<polygon fill="black" stroke="black" points="834.688,-251.631 824.266,-249.726 831.226,-257.714 834.688,-251.631"/>
</g>
<!-- StatMove2&#45;&gt;ExpTemp5 -->
<g id="edge72" class="edge"><title>StatMove2&#45;&gt;ExpTemp5</title>
<path fill="none" stroke="black" d="M921.39,-287.697C921.39,-279.983 921.39,-270.712 921.39,-262.112"/>
<polygon fill="black" stroke="black" points="924.89,-262.104 921.39,-252.104 917.89,-262.104 924.89,-262.104"/>
</g>
<!-- ExpTemp11 -->
<g id="node61" class="node"><title>ExpTemp11</title>
<ellipse fill="none" stroke="black" cx="2120.39" cy="-234" rx="54.6905" ry="18"/>
<text text-anchor="middle" x="2120.39" y="-230.3" font-family="Times,serif" font-size="14.00">ExpTemp11</text>
</g>
<!-- StatMove6&#45;&gt;ExpTemp11 -->
<g id="edge52" class="edge"><title>StatMove6&#45;&gt;ExpTemp11</title>
<path fill="none" stroke="black" d="M2120.39,-287.697C2120.39,-279.983 2120.39,-270.712 2120.39,-262.112"/>
<polygon fill="black" stroke="black" points="2123.89,-262.104 2120.39,-252.104 2116.89,-262.104 2123.89,-262.104"/>
</g>
<!-- ExpConst2 -->
<g id="node62" class="node"><title>ExpConst2</title>
<ellipse fill="none" stroke="black" cx="2246.39" cy="-234" rx="50.0912" ry="18"/>
<text text-anchor="middle" x="2246.39" y="-230.3" font-family="Times,serif" font-size="14.00">ExpConst2</text>
</g>
<!-- StatMove6&#45;&gt;ExpConst2 -->
<g id="edge53" class="edge"><title>StatMove6&#45;&gt;ExpConst2</title>
<path fill="none" stroke="black" d="M2146.5,-290.496C2165.33,-280.031 2190.97,-265.791 2211.55,-254.356"/>
<polygon fill="black" stroke="black" points="2213.27,-257.401 2220.32,-249.485 2209.87,-251.282 2213.27,-257.401"/>
</g>
<!-- ExpTemp15 -->
<g id="node66" class="node"><title>ExpTemp15</title>
<ellipse fill="none" stroke="black" cx="2737.39" cy="-234" rx="54.6905" ry="18"/>
<text text-anchor="middle" x="2737.39" y="-230.3" font-family="Times,serif" font-size="14.00">ExpTemp15</text>
</g>
<!-- StatMove8&#45;&gt;ExpTemp15 -->
<g id="edge66" class="edge"><title>StatMove8&#45;&gt;ExpTemp15</title>
<path fill="none" stroke="black" d="M2737.39,-287.697C2737.39,-279.983 2737.39,-270.712 2737.39,-262.112"/>
<polygon fill="black" stroke="black" points="2740.89,-262.104 2737.39,-252.104 2733.89,-262.104 2740.89,-262.104"/>
</g>
<!-- ExpTemp16 -->
<g id="node72" class="node"><title>ExpTemp16</title>
<ellipse fill="none" stroke="black" cx="2870.39" cy="-234" rx="54.6905" ry="18"/>
<text text-anchor="middle" x="2870.39" y="-230.3" font-family="Times,serif" font-size="14.00">ExpTemp16</text>
</g>
<!-- StatMove8&#45;&gt;ExpTemp16 -->
<g id="edge67" class="edge"><title>StatMove8&#45;&gt;ExpTemp16</title>
<path fill="none" stroke="black" d="M2764.63,-290.666C2784.57,-280.166 2811.87,-265.8 2833.73,-254.293"/>
<polygon fill="black" stroke="black" points="2835.51,-257.311 2842.73,-249.556 2832.25,-251.116 2835.51,-257.311"/>
</g>
<!-- ExpTemp17 -->
<g id="node58" class="node"><title>ExpTemp17</title>
<ellipse fill="none" stroke="black" cx="3013.39" cy="-234" rx="54.6905" ry="18"/>
<text text-anchor="middle" x="3013.39" y="-230.3" font-family="Times,serif" font-size="14.00">ExpTemp17</text>
</g>
<!-- StatMove9&#45;&gt;ExpTemp17 -->
<g id="edge68" class="edge"><title>StatMove9&#45;&gt;ExpTemp17</title>
<path fill="none" stroke="black" d="M3013.39,-287.697C3013.39,-279.983 3013.39,-270.712 3013.39,-262.112"/>
<polygon fill="black" stroke="black" points="3016.89,-262.104 3013.39,-252.104 3009.89,-262.104 3016.89,-262.104"/>
</g>
<!-- ExpCall2 -->
<g id="node64" class="node"><title>ExpCall2</title>
<ellipse fill="none" stroke="black" cx="3136.39" cy="-234" rx="44.393" ry="18"/>
<text text-anchor="middle" x="3136.39" y="-230.3" font-family="Times,serif" font-size="14.00">ExpCall2</text>
</g>
<!-- StatMove9&#45;&gt;ExpCall2 -->
<g id="edge69" class="edge"><title>StatMove9&#45;&gt;ExpCall2</title>
<path fill="none" stroke="black" d="M3038.88,-290.496C3057.43,-279.939 3082.73,-265.541 3102.91,-254.055"/>
<polygon fill="black" stroke="black" points="3104.82,-256.996 3111.78,-249.008 3101.35,-250.912 3104.82,-256.996"/>
</g>
<!-- ExpTemp19 -->
<g id="node74" class="node"><title>ExpTemp19</title>
<ellipse fill="none" stroke="black" cx="3253.39" cy="-234" rx="54.6905" ry="18"/>
<text text-anchor="middle" x="3253.39" y="-230.3" font-family="Times,serif" font-size="14.00">ExpTemp19</text>
</g>
<!-- StatExp0&#45;&gt;ExpTemp19 -->
<g id="edge75" class="edge"><title>StatExp0&#45;&gt;ExpTemp19</title>
<path fill="none" stroke="black" d="M3185.27,-289.811C3197.1,-280.288 3212.57,-267.846 3225.77,-257.224"/>
<polygon fill="black" stroke="black" points="3228.05,-259.884 3233.64,-250.888 3223.66,-254.43 3228.05,-259.884"/>
</g>
<!-- Label4: epilogue -->
<g id="node70" class="node"><title>Label4: epilogue</title>
<ellipse fill="none" stroke="black" cx="3396.39" cy="-234" rx="70.3881" ry="18"/>
<text text-anchor="middle" x="3396.39" y="-230.3" font-family="Times,serif" font-size="14.00">Label4: epilogue</text>
</g>
<!-- StatJump0&#45;&gt;Label4: epilogue -->
<g id="edge59" class="edge"><title>StatJump0&#45;&gt;Label4: epilogue</title>
<path fill="none" stroke="black" d="M3368.35,-288.055C3372.6,-280.007 3377.78,-270.205 3382.53,-261.226"/>
<polygon fill="black" stroke="black" points="3385.68,-262.752 3387.26,-252.275 3379.49,-259.481 3385.68,-262.752"/>
</g>
<!-- ExpTemp10 -->
<g id="node55" class="node"><title>ExpTemp10</title>
<ellipse fill="none" stroke="black" cx="2012.39" cy="-90" rx="54.6905" ry="18"/>
<text text-anchor="middle" x="2012.39" y="-86.3" font-family="Times,serif" font-size="14.00">ExpTemp10</text>
</g>
<!-- Temp10: T13 -->
<g id="node56" class="node"><title>Temp10: T13</title>
<ellipse fill="none" stroke="black" cx="2012.39" cy="-18" rx="59.5901" ry="18"/>
<text text-anchor="middle" x="2012.39" y="-14.3" font-family="Times,serif" font-size="14.00">Temp10: T13</text>
</g>
<!-- ExpTemp10&#45;&gt;Temp10: T13 -->
<g id="edge46" class="edge"><title>ExpTemp10&#45;&gt;Temp10: T13</title>
<path fill="none" stroke="black" d="M2012.39,-71.6966C2012.39,-63.9827 2012.39,-54.7125 2012.39,-46.1124"/>
<polygon fill="black" stroke="black" points="2015.89,-46.1043 2012.39,-36.1043 2008.89,-46.1044 2015.89,-46.1043"/>
</g>
<!-- ExpList0&#45;&gt;ExpTemp10 -->
<g id="edge50" class="edge"><title>ExpList0&#45;&gt;ExpTemp10</title>
<path fill="none" stroke="black" d="M2002.6,-143.697C2004.04,-135.983 2005.76,-126.712 2007.35,-118.112"/>
<polygon fill="black" stroke="black" points="2010.83,-118.575 2009.21,-108.104 2003.95,-117.297 2010.83,-118.575"/>
</g>
<!-- Temp17: T19 -->
<g id="node59" class="node"><title>Temp17: T19</title>
<ellipse fill="none" stroke="black" cx="3013.39" cy="-162" rx="59.5901" ry="18"/>
<text text-anchor="middle" x="3013.39" y="-158.3" font-family="Times,serif" font-size="14.00">Temp17: T19</text>
</g>
<!-- ExpTemp17&#45;&gt;Temp17: T19 -->
<g id="edge49" class="edge"><title>ExpTemp17&#45;&gt;Temp17: T19</title>
<path fill="none" stroke="black" d="M3013.39,-215.697C3013.39,-207.983 3013.39,-198.712 3013.39,-190.112"/>
<polygon fill="black" stroke="black" points="3016.89,-190.104 3013.39,-180.104 3009.89,-190.104 3016.89,-190.104"/>
</g>
<!-- Temp11: T16 -->
<g id="node76" class="node"><title>Temp11: T16</title>
<ellipse fill="none" stroke="black" cx="2120.39" cy="-162" rx="59.5901" ry="18"/>
<text text-anchor="middle" x="2120.39" y="-158.3" font-family="Times,serif" font-size="14.00">Temp11: T16</text>
</g>
<!-- ExpTemp11&#45;&gt;Temp11: T16 -->
<g id="edge74" class="edge"><title>ExpTemp11&#45;&gt;Temp11: T16</title>
<path fill="none" stroke="black" d="M2120.39,-215.697C2120.39,-207.983 2120.39,-198.712 2120.39,-190.112"/>
<polygon fill="black" stroke="black" points="2123.89,-190.104 2120.39,-180.104 2116.89,-190.104 2123.89,-190.104"/>
</g>
<!-- Value2: 20 -->
<g id="node63" class="node"><title>Value2: 20</title>
<ellipse fill="none" stroke="black" cx="2248.39" cy="-162" rx="50.0912" ry="18"/>
<text text-anchor="middle" x="2248.39" y="-158.3" font-family="Times,serif" font-size="14.00">Value2: 20</text>
</g>
<!-- ExpConst2&#45;&gt;Value2: 20 -->
<g id="edge54" class="edge"><title>ExpConst2&#45;&gt;Value2: 20</title>
<path fill="none" stroke="black" d="M2246.88,-215.697C2247.1,-207.983 2247.37,-198.712 2247.62,-190.112"/>
<polygon fill="black" stroke="black" points="2251.11,-190.2 2247.9,-180.104 2244.12,-190 2251.11,-190.2"/>
</g>
<!-- ExpCall2&#45;&gt;ExpName2 -->
<g id="edge55" class="edge"><title>ExpCall2&#45;&gt;ExpName2</title>
<path fill="none" stroke="black" d="M3137.63,-215.697C3138.18,-207.983 3138.84,-198.712 3139.45,-190.112"/>
<polygon fill="black" stroke="black" points="3142.95,-190.328 3140.17,-180.104 3135.96,-189.83 3142.95,-190.328"/>
</g>
<!-- ExpList2 -->
<g id="node65" class="node"><title>ExpList2</title>
<ellipse fill="none" stroke="black" cx="3253.39" cy="-162" rx="42.7926" ry="18"/>
<text text-anchor="middle" x="3253.39" y="-158.3" font-family="Times,serif" font-size="14.00">ExpList2</text>
</g>
<!-- ExpCall2&#45;&gt;ExpList2 -->
<g id="edge56" class="edge"><title>ExpCall2&#45;&gt;ExpList2</title>
<path fill="none" stroke="black" d="M3160.35,-218.666C3177.89,-208.168 3201.9,-193.807 3221.13,-182.301"/>
<polygon fill="black" stroke="black" points="3223.08,-185.214 3229.86,-177.076 3219.48,-179.207 3223.08,-185.214"/>
</g>
<!-- ExpList2&#45;&gt;ExpTemp18 -->
<g id="edge70" class="edge"><title>ExpList2&#45;&gt;ExpTemp18</title>
<path fill="none" stroke="black" d="M3255.37,-143.697C3256.25,-135.983 3257.31,-126.712 3258.29,-118.112"/>
<polygon fill="black" stroke="black" points="3261.78,-118.437 3259.44,-108.104 3254.82,-117.642 3261.78,-118.437"/>
</g>
<!-- Temp15: T18 -->
<g id="node67" class="node"><title>Temp15: T18</title>
<ellipse fill="none" stroke="black" cx="2737.39" cy="-162" rx="59.5901" ry="18"/>
<text text-anchor="middle" x="2737.39" y="-158.3" font-family="Times,serif" font-size="14.00">Temp15: T18</text>
</g>
<!-- ExpTemp15&#45;&gt;Temp15: T18 -->
<g id="edge57" class="edge"><title>ExpTemp15&#45;&gt;Temp15: T18</title>
<path fill="none" stroke="black" d="M2737.39,-215.697C2737.39,-207.983 2737.39,-198.712 2737.39,-190.112"/>
<polygon fill="black" stroke="black" points="2740.89,-190.104 2737.39,-180.104 2733.89,-190.104 2740.89,-190.104"/>
</g>
<!-- Label2: BS@Start -->
<g id="node69" class="node"><title>Label2: BS@Start</title>
<ellipse fill="none" stroke="black" cx="2468.39" cy="-90" rx="75.2868" ry="18"/>
<text text-anchor="middle" x="2468.39" y="-86.3" font-family="Times,serif" font-size="14.00">Label2: BS@Start</text>
</g>
<!-- ExpName1&#45;&gt;Label2: BS@Start -->
<g id="edge58" class="edge"><title>ExpName1&#45;&gt;Label2: BS@Start</title>
<path fill="none" stroke="black" d="M2495.68,-144.055C2491.54,-136.007 2486.5,-126.205 2481.88,-117.226"/>
<polygon fill="black" stroke="black" points="2484.96,-115.567 2477.27,-108.275 2478.74,-118.769 2484.96,-115.567"/>
</g>
<!-- Temp16: T11 -->
<g id="node73" class="node"><title>Temp16: T11</title>
<ellipse fill="none" stroke="black" cx="2875.39" cy="-162" rx="59.5901" ry="18"/>
<text text-anchor="middle" x="2875.39" y="-158.3" font-family="Times,serif" font-size="14.00">Temp16: T11</text>
</g>
<!-- ExpTemp16&#45;&gt;Temp16: T11 -->
<g id="edge63" class="edge"><title>ExpTemp16&#45;&gt;Temp16: T11</title>
<path fill="none" stroke="black" d="M2871.63,-215.697C2872.18,-207.983 2872.84,-198.712 2873.45,-190.112"/>
<polygon fill="black" stroke="black" points="2876.95,-190.328 2874.17,-180.104 2869.96,-189.83 2876.95,-190.328"/>
</g>
<!-- Temp19: T12 -->
<g id="node75" class="node"><title>Temp19: T12</title>
<ellipse fill="none" stroke="black" cx="3374.39" cy="-162" rx="59.5901" ry="18"/>
<text text-anchor="middle" x="3374.39" y="-158.3" font-family="Times,serif" font-size="14.00">Temp19: T12</text>
</g>
<!-- ExpTemp19&#45;&gt;Temp19: T12 -->
<g id="edge73" class="edge"><title>ExpTemp19&#45;&gt;Temp19: T12</title>
<path fill="none" stroke="black" d="M3279.35,-217.983C3296.85,-207.857 3320.16,-194.374 3339.31,-183.294"/>
<polygon fill="black" stroke="black" points="3341.15,-186.271 3348.06,-178.233 3337.65,-180.211 3341.15,-186.271"/>
</g>
</g>
</svg>
