<?xml version="1.0" encoding="UTF-8" standalone="no"?>
<!DOCTYPE svg PUBLIC "-//W3C//DTD SVG 1.1//EN"
 "http://www.w3.org/Graphics/SVG/1.1/DTD/svg11.dtd">
<!-- Generated by graphviz version 2.38.0 (20140413.2041)
 -->
<!-- Title: %3 Pages: 1 -->
<svg width="3386pt" height="404pt"
 viewBox="0.00 0.00 3385.78 404.00" xmlns="http://www.w3.org/2000/svg" xmlns:xlink="http://www.w3.org/1999/xlink">
<g id="graph0" class="graph" transform="scale(1 1) rotate(0) translate(4 400)">
<title>%3</title>
<polygon fill="white" stroke="none" points="-4,4 -4,-400 3381.78,-400 3381.78,4 -4,4"/>
<!-- ExpTemp9 -->
<g id="node1" class="node"><title>ExpTemp9</title>
<ellipse fill="none" stroke="black" cx="1693.59" cy="-234" rx="50.0912" ry="18"/>
<text text-anchor="middle" x="1693.59" y="-230.3" font-family="Times,serif" font-size="14.00">ExpTemp9</text>
</g>
<!-- Temp9: T8 -->
<g id="node2" class="node"><title>Temp9: T8</title>
<ellipse fill="none" stroke="black" cx="1689.59" cy="-162" rx="50.8918" ry="18"/>
<text text-anchor="middle" x="1689.59" y="-158.3" font-family="Times,serif" font-size="14.00">Temp9: T8</text>
</g>
<!-- ExpTemp9&#45;&gt;Temp9: T8 -->
<g id="edge1" class="edge"><title>ExpTemp9&#45;&gt;Temp9: T8</title>
<path fill="none" stroke="black" d="M1692.6,-215.697C1692.16,-207.983 1691.63,-198.712 1691.14,-190.112"/>
<polygon fill="black" stroke="black" points="1694.63,-189.888 1690.57,-180.104 1687.64,-190.288 1694.63,-189.888"/>
</g>
<!-- ExpBinary0 -->
<g id="node3" class="node"><title>ExpBinary0</title>
<ellipse fill="none" stroke="black" cx="1464.59" cy="-234" rx="53.0913" ry="18"/>
<text text-anchor="middle" x="1464.59" y="-230.3" font-family="Times,serif" font-size="14.00">ExpBinary0</text>
</g>
<!-- ExpConst0 -->
<g id="node4" class="node"><title>ExpConst0</title>
<ellipse fill="none" stroke="black" cx="1358.59" cy="-162" rx="50.0912" ry="18"/>
<text text-anchor="middle" x="1358.59" y="-158.3" font-family="Times,serif" font-size="14.00">ExpConst0</text>
</g>
<!-- ExpBinary0&#45;&gt;ExpConst0 -->
<g id="edge2" class="edge"><title>ExpBinary0&#45;&gt;ExpConst0</title>
<path fill="none" stroke="black" d="M1441.33,-217.638C1426.31,-207.723 1406.59,-194.698 1390.17,-183.853"/>
<polygon fill="black" stroke="black" points="1391.71,-180.675 1381.43,-178.085 1387.85,-186.517 1391.71,-180.675"/>
</g>
<!-- Times0 -->
<g id="node5" class="node"><title>Times0</title>
<ellipse fill="none" stroke="black" cx="1464.59" cy="-162" rx="37.8943" ry="18"/>
<text text-anchor="middle" x="1464.59" y="-158.3" font-family="Times,serif" font-size="14.00">Times0</text>
</g>
<!-- ExpBinary0&#45;&gt;Times0 -->
<g id="edge3" class="edge"><title>ExpBinary0&#45;&gt;Times0</title>
<path fill="none" stroke="black" d="M1464.59,-215.697C1464.59,-207.983 1464.59,-198.712 1464.59,-190.112"/>
<polygon fill="black" stroke="black" points="1468.09,-190.104 1464.59,-180.104 1461.09,-190.104 1468.09,-190.104"/>
</g>
<!-- ExpConst1 -->
<g id="node6" class="node"><title>ExpConst1</title>
<ellipse fill="none" stroke="black" cx="1570.59" cy="-162" rx="50.0912" ry="18"/>
<text text-anchor="middle" x="1570.59" y="-158.3" font-family="Times,serif" font-size="14.00">ExpConst1</text>
</g>
<!-- ExpBinary0&#45;&gt;ExpConst1 -->
<g id="edge4" class="edge"><title>ExpBinary0&#45;&gt;ExpConst1</title>
<path fill="none" stroke="black" d="M1487.85,-217.638C1502.87,-207.723 1522.59,-194.698 1539.01,-183.853"/>
<polygon fill="black" stroke="black" points="1541.33,-186.517 1547.75,-178.085 1537.47,-180.675 1541.33,-186.517"/>
</g>
<!-- Value0: 2 -->
<g id="node9" class="node"><title>Value0: 2</title>
<ellipse fill="none" stroke="black" cx="1358.59" cy="-90" rx="45.4919" ry="18"/>
<text text-anchor="middle" x="1358.59" y="-86.3" font-family="Times,serif" font-size="14.00">Value0: 2</text>
</g>
<!-- ExpConst0&#45;&gt;Value0: 2 -->
<g id="edge6" class="edge"><title>ExpConst0&#45;&gt;Value0: 2</title>
<path fill="none" stroke="black" d="M1358.59,-143.697C1358.59,-135.983 1358.59,-126.712 1358.59,-118.112"/>
<polygon fill="black" stroke="black" points="1362.09,-118.104 1358.59,-108.104 1355.09,-118.104 1362.09,-118.104"/>
</g>
<!-- Value1: 4 -->
<g id="node12" class="node"><title>Value1: 4</title>
<ellipse fill="none" stroke="black" cx="1570.59" cy="-90" rx="45.4919" ry="18"/>
<text text-anchor="middle" x="1570.59" y="-86.3" font-family="Times,serif" font-size="14.00">Value1: 4</text>
</g>
<!-- ExpConst1&#45;&gt;Value1: 4 -->
<g id="edge9" class="edge"><title>ExpConst1&#45;&gt;Value1: 4</title>
<path fill="none" stroke="black" d="M1570.59,-143.697C1570.59,-135.983 1570.59,-126.712 1570.59,-118.112"/>
<polygon fill="black" stroke="black" points="1574.09,-118.104 1570.59,-108.104 1567.09,-118.104 1574.09,-118.104"/>
</g>
<!-- ExpTemp12 -->
<g id="node7" class="node"><title>ExpTemp12</title>
<ellipse fill="none" stroke="black" cx="2297.59" cy="-234" rx="54.6905" ry="18"/>
<text text-anchor="middle" x="2297.59" y="-230.3" font-family="Times,serif" font-size="14.00">ExpTemp12</text>
</g>
<!-- Temp12: T11 -->
<g id="node8" class="node"><title>Temp12: T11</title>
<ellipse fill="none" stroke="black" cx="2297.59" cy="-162" rx="59.5901" ry="18"/>
<text text-anchor="middle" x="2297.59" y="-158.3" font-family="Times,serif" font-size="14.00">Temp12: T11</text>
</g>
<!-- ExpTemp12&#45;&gt;Temp12: T11 -->
<g id="edge5" class="edge"><title>ExpTemp12&#45;&gt;Temp12: T11</title>
<path fill="none" stroke="black" d="M2297.59,-215.697C2297.59,-207.983 2297.59,-198.712 2297.59,-190.112"/>
<polygon fill="black" stroke="black" points="2301.09,-190.104 2297.59,-180.104 2294.09,-190.104 2301.09,-190.104"/>
</g>
<!-- StatMove5 -->
<g id="node10" class="node"><title>StatMove5</title>
<ellipse fill="none" stroke="black" cx="1750.59" cy="-306" rx="50.0912" ry="18"/>
<text text-anchor="middle" x="1750.59" y="-302.3" font-family="Times,serif" font-size="14.00">StatMove5</text>
</g>
<!-- StatMove5&#45;&gt;ExpTemp9 -->
<g id="edge7" class="edge"><title>StatMove5&#45;&gt;ExpTemp9</title>
<path fill="none" stroke="black" d="M1737.08,-288.411C1730.05,-279.781 1721.33,-269.062 1713.54,-259.497"/>
<polygon fill="black" stroke="black" points="1716.03,-257.014 1707,-251.47 1710.6,-261.434 1716.03,-257.014"/>
</g>
<!-- ExpCall0 -->
<g id="node11" class="node"><title>ExpCall0</title>
<ellipse fill="none" stroke="black" cx="1808.59" cy="-234" rx="44.393" ry="18"/>
<text text-anchor="middle" x="1808.59" y="-230.3" font-family="Times,serif" font-size="14.00">ExpCall0</text>
</g>
<!-- StatMove5&#45;&gt;ExpCall0 -->
<g id="edge8" class="edge"><title>StatMove5&#45;&gt;ExpCall0</title>
<path fill="none" stroke="black" d="M1764.34,-288.411C1771.56,-279.693 1780.55,-268.845 1788.53,-259.208"/>
<polygon fill="black" stroke="black" points="1791.26,-261.403 1794.94,-251.47 1785.87,-256.937 1791.26,-261.403"/>
</g>
<!-- ExpName0 -->
<g id="node26" class="node"><title>ExpName0</title>
<ellipse fill="none" stroke="black" cx="1808.59" cy="-162" rx="50.8918" ry="18"/>
<text text-anchor="middle" x="1808.59" y="-158.3" font-family="Times,serif" font-size="14.00">ExpName0</text>
</g>
<!-- ExpCall0&#45;&gt;ExpName0 -->
<g id="edge47" class="edge"><title>ExpCall0&#45;&gt;ExpName0</title>
<path fill="none" stroke="black" d="M1808.59,-215.697C1808.59,-207.983 1808.59,-198.712 1808.59,-190.112"/>
<polygon fill="black" stroke="black" points="1812.09,-190.104 1808.59,-180.104 1805.09,-190.104 1812.09,-190.104"/>
</g>
<!-- ExpList0 -->
<g id="node57" class="node"><title>ExpList0</title>
<ellipse fill="none" stroke="black" cx="1920.59" cy="-162" rx="42.7926" ry="18"/>
<text text-anchor="middle" x="1920.59" y="-158.3" font-family="Times,serif" font-size="14.00">ExpList0</text>
</g>
<!-- ExpCall0&#45;&gt;ExpList0 -->
<g id="edge48" class="edge"><title>ExpCall0&#45;&gt;ExpList0</title>
<path fill="none" stroke="black" d="M1831.8,-218.496C1848.32,-208.172 1870.71,-194.174 1888.88,-182.819"/>
<polygon fill="black" stroke="black" points="1890.79,-185.753 1897.41,-177.485 1887.08,-179.818 1890.79,-185.753"/>
</g>
<!-- StatMove4 -->
<g id="node13" class="node"><title>StatMove4</title>
<ellipse fill="none" stroke="black" cx="1464.59" cy="-306" rx="50.0912" ry="18"/>
<text text-anchor="middle" x="1464.59" y="-302.3" font-family="Times,serif" font-size="14.00">StatMove4</text>
</g>
<!-- StatMove4&#45;&gt;ExpBinary0 -->
<g id="edge11" class="edge"><title>StatMove4&#45;&gt;ExpBinary0</title>
<path fill="none" stroke="black" d="M1464.59,-287.697C1464.59,-279.983 1464.59,-270.712 1464.59,-262.112"/>
<polygon fill="black" stroke="black" points="1468.09,-262.104 1464.59,-252.104 1461.09,-262.104 1468.09,-262.104"/>
</g>
<!-- ExpTemp8 -->
<g id="node14" class="node"><title>ExpTemp8</title>
<ellipse fill="none" stroke="black" cx="1291.59" cy="-234" rx="50.0912" ry="18"/>
<text text-anchor="middle" x="1291.59" y="-230.3" font-family="Times,serif" font-size="14.00">ExpTemp8</text>
</g>
<!-- StatMove4&#45;&gt;ExpTemp8 -->
<g id="edge10" class="edge"><title>StatMove4&#45;&gt;ExpTemp8</title>
<path fill="none" stroke="black" d="M1432.46,-291.998C1404.42,-280.652 1363.56,-264.121 1333.06,-251.78"/>
<polygon fill="black" stroke="black" points="1334.14,-248.439 1323.55,-247.933 1331.51,-254.928 1334.14,-248.439"/>
</g>
<!-- Temp8: T7 -->
<g id="node22" class="node"><title>Temp8: T7</title>
<ellipse fill="none" stroke="black" cx="1239.59" cy="-162" rx="50.8918" ry="18"/>
<text text-anchor="middle" x="1239.59" y="-158.3" font-family="Times,serif" font-size="14.00">Temp8: T7</text>
</g>
<!-- ExpTemp8&#45;&gt;Temp8: T7 -->
<g id="edge17" class="edge"><title>ExpTemp8&#45;&gt;Temp8: T7</title>
<path fill="none" stroke="black" d="M1279.27,-216.411C1272.92,-207.868 1265.05,-197.278 1258,-187.787"/>
<polygon fill="black" stroke="black" points="1260.6,-185.41 1251.83,-179.47 1254.98,-189.585 1260.6,-185.41"/>
</g>
<!-- StatMove7 -->
<g id="node15" class="node"><title>StatMove7</title>
<ellipse fill="none" stroke="black" cx="2297.59" cy="-306" rx="50.0912" ry="18"/>
<text text-anchor="middle" x="2297.59" y="-302.3" font-family="Times,serif" font-size="14.00">StatMove7</text>
</g>
<!-- StatMove7&#45;&gt;ExpTemp12 -->
<g id="edge12" class="edge"><title>StatMove7&#45;&gt;ExpTemp12</title>
<path fill="none" stroke="black" d="M2297.59,-287.697C2297.59,-279.983 2297.59,-270.712 2297.59,-262.112"/>
<polygon fill="black" stroke="black" points="2301.09,-262.104 2297.59,-252.104 2294.09,-262.104 2301.09,-262.104"/>
</g>
<!-- ExpCall1 -->
<g id="node16" class="node"><title>ExpCall1</title>
<ellipse fill="none" stroke="black" cx="2425.59" cy="-234" rx="44.393" ry="18"/>
<text text-anchor="middle" x="2425.59" y="-230.3" font-family="Times,serif" font-size="14.00">ExpCall1</text>
</g>
<!-- StatMove7&#45;&gt;ExpCall1 -->
<g id="edge13" class="edge"><title>StatMove7&#45;&gt;ExpCall1</title>
<path fill="none" stroke="black" d="M2323.8,-290.666C2343.3,-280.004 2370.08,-265.356 2391.28,-253.762"/>
<polygon fill="black" stroke="black" points="2393.19,-256.707 2400.29,-248.838 2389.83,-250.566 2393.19,-256.707"/>
</g>
<!-- ExpList1 -->
<g id="node17" class="node"><title>ExpList1</title>
<ellipse fill="none" stroke="black" cx="2537.59" cy="-162" rx="42.7926" ry="18"/>
<text text-anchor="middle" x="2537.59" y="-158.3" font-family="Times,serif" font-size="14.00">ExpList1</text>
</g>
<!-- ExpCall1&#45;&gt;ExpList1 -->
<g id="edge61" class="edge"><title>ExpCall1&#45;&gt;ExpList1</title>
<path fill="none" stroke="black" d="M2448.8,-218.496C2465.32,-208.172 2487.71,-194.174 2505.88,-182.819"/>
<polygon fill="black" stroke="black" points="2507.79,-185.753 2514.41,-177.485 2504.08,-179.818 2507.79,-185.753"/>
</g>
<!-- ExpName1 -->
<g id="node68" class="node"><title>ExpName1</title>
<ellipse fill="none" stroke="black" cx="2425.59" cy="-162" rx="50.8918" ry="18"/>
<text text-anchor="middle" x="2425.59" y="-158.3" font-family="Times,serif" font-size="14.00">ExpName1</text>
</g>
<!-- ExpCall1&#45;&gt;ExpName1 -->
<g id="edge60" class="edge"><title>ExpCall1&#45;&gt;ExpName1</title>
<path fill="none" stroke="black" d="M2425.59,-215.697C2425.59,-207.983 2425.59,-198.712 2425.59,-190.112"/>
<polygon fill="black" stroke="black" points="2429.09,-190.104 2425.59,-180.104 2422.09,-190.104 2429.09,-190.104"/>
</g>
<!-- ExpTemp13 -->
<g id="node18" class="node"><title>ExpTemp13</title>
<ellipse fill="none" stroke="black" cx="2537.59" cy="-90" rx="54.6905" ry="18"/>
<text text-anchor="middle" x="2537.59" y="-86.3" font-family="Times,serif" font-size="14.00">ExpTemp13</text>
</g>
<!-- ExpList1&#45;&gt;ExpTemp13 -->
<g id="edge14" class="edge"><title>ExpList1&#45;&gt;ExpTemp13</title>
<path fill="none" stroke="black" d="M2537.59,-143.697C2537.59,-135.983 2537.59,-126.712 2537.59,-118.112"/>
<polygon fill="black" stroke="black" points="2541.09,-118.104 2537.59,-108.104 2534.09,-118.104 2541.09,-118.104"/>
</g>
<!-- ExpTemp14 -->
<g id="node19" class="node"><title>ExpTemp14</title>
<ellipse fill="none" stroke="black" cx="2666.59" cy="-90" rx="54.6905" ry="18"/>
<text text-anchor="middle" x="2666.59" y="-86.3" font-family="Times,serif" font-size="14.00">ExpTemp14</text>
</g>
<!-- ExpList1&#45;&gt;ExpTemp14 -->
<g id="edge15" class="edge"><title>ExpList1&#45;&gt;ExpTemp14</title>
<path fill="none" stroke="black" d="M2562.77,-147.337C2582.02,-136.893 2608.82,-122.349 2630.37,-110.656"/>
<polygon fill="black" stroke="black" points="2632.13,-113.684 2639.25,-105.839 2628.79,-107.532 2632.13,-113.684"/>
</g>
<!-- Temp13: T9 -->
<g id="node71" class="node"><title>Temp13: T9</title>
<ellipse fill="none" stroke="black" cx="2534.59" cy="-18" rx="55.4913" ry="18"/>
<text text-anchor="middle" x="2534.59" y="-14.3" font-family="Times,serif" font-size="14.00">Temp13: T9</text>
</g>
<!-- ExpTemp13&#45;&gt;Temp13: T9 -->
<g id="edge62" class="edge"><title>ExpTemp13&#45;&gt;Temp13: T9</title>
<path fill="none" stroke="black" d="M2536.85,-71.6966C2536.52,-63.9827 2536.12,-54.7125 2535.75,-46.1124"/>
<polygon fill="black" stroke="black" points="2539.25,-45.9453 2535.32,-36.1043 2532.26,-46.2451 2539.25,-45.9453"/>
</g>
<!-- Temp14: T10 -->
<g id="node37" class="node"><title>Temp14: T10</title>
<ellipse fill="none" stroke="black" cx="2667.59" cy="-18" rx="59.5901" ry="18"/>
<text text-anchor="middle" x="2667.59" y="-14.3" font-family="Times,serif" font-size="14.00">Temp14: T10</text>
</g>
<!-- ExpTemp14&#45;&gt;Temp14: T10 -->
<g id="edge26" class="edge"><title>ExpTemp14&#45;&gt;Temp14: T10</title>
<path fill="none" stroke="black" d="M2666.84,-71.6966C2666.95,-63.9827 2667.08,-54.7125 2667.2,-46.1124"/>
<polygon fill="black" stroke="black" points="2670.7,-46.1533 2667.35,-36.1043 2663.7,-46.0533 2670.7,-46.1533"/>
</g>
<!-- ExpTemp18 -->
<g id="node20" class="node"><title>ExpTemp18</title>
<ellipse fill="none" stroke="black" cx="3172.59" cy="-90" rx="54.6905" ry="18"/>
<text text-anchor="middle" x="3172.59" y="-86.3" font-family="Times,serif" font-size="14.00">ExpTemp18</text>
</g>
<!-- Temp18: T12 -->
<g id="node21" class="node"><title>Temp18: T12</title>
<ellipse fill="none" stroke="black" cx="3172.59" cy="-18" rx="59.5901" ry="18"/>
<text text-anchor="middle" x="3172.59" y="-14.3" font-family="Times,serif" font-size="14.00">Temp18: T12</text>
</g>
<!-- ExpTemp18&#45;&gt;Temp18: T12 -->
<g id="edge16" class="edge"><title>ExpTemp18&#45;&gt;Temp18: T12</title>
<path fill="none" stroke="black" d="M3172.59,-71.6966C3172.59,-63.9827 3172.59,-54.7125 3172.59,-46.1124"/>
<polygon fill="black" stroke="black" points="3176.09,-46.1043 3172.59,-36.1043 3169.09,-46.1044 3176.09,-46.1043"/>
</g>
<!-- StatMove1 -->
<g id="node23" class="node"><title>StatMove1</title>
<ellipse fill="none" stroke="black" cx="644.591" cy="-306" rx="50.0912" ry="18"/>
<text text-anchor="middle" x="644.591" y="-302.3" font-family="Times,serif" font-size="14.00">StatMove1</text>
</g>
<!-- ExpTemp2 -->
<g id="node24" class="node"><title>ExpTemp2</title>
<ellipse fill="none" stroke="black" cx="523.591" cy="-234" rx="50.0912" ry="18"/>
<text text-anchor="middle" x="523.591" y="-230.3" font-family="Times,serif" font-size="14.00">ExpTemp2</text>
</g>
<!-- StatMove1&#45;&gt;ExpTemp2 -->
<g id="edge18" class="edge"><title>StatMove1&#45;&gt;ExpTemp2</title>
<path fill="none" stroke="black" d="M619.225,-290.326C601.397,-280.012 577.341,-266.095 557.816,-254.8"/>
<polygon fill="black" stroke="black" points="559.331,-251.633 548.923,-249.655 555.826,-257.692 559.331,-251.633"/>
</g>
<!-- ExpTemp3 -->
<g id="node25" class="node"><title>ExpTemp3</title>
<ellipse fill="none" stroke="black" cx="644.591" cy="-234" rx="50.0912" ry="18"/>
<text text-anchor="middle" x="644.591" y="-230.3" font-family="Times,serif" font-size="14.00">ExpTemp3</text>
</g>
<!-- StatMove1&#45;&gt;ExpTemp3 -->
<g id="edge19" class="edge"><title>StatMove1&#45;&gt;ExpTemp3</title>
<path fill="none" stroke="black" d="M644.591,-287.697C644.591,-279.983 644.591,-270.712 644.591,-262.112"/>
<polygon fill="black" stroke="black" points="648.091,-262.104 644.591,-252.104 641.091,-262.104 648.091,-262.104"/>
</g>
<!-- Temp2: T11 -->
<g id="node54" class="node"><title>Temp2: T11</title>
<ellipse fill="none" stroke="black" cx="520.591" cy="-162" rx="55.4913" ry="18"/>
<text text-anchor="middle" x="520.591" y="-158.3" font-family="Times,serif" font-size="14.00">Temp2: T11</text>
</g>
<!-- ExpTemp2&#45;&gt;Temp2: T11 -->
<g id="edge45" class="edge"><title>ExpTemp2&#45;&gt;Temp2: T11</title>
<path fill="none" stroke="black" d="M522.849,-215.697C522.518,-207.983 522.121,-198.712 521.753,-190.112"/>
<polygon fill="black" stroke="black" points="525.249,-189.945 521.324,-180.104 518.255,-190.245 525.249,-189.945"/>
</g>
<!-- Temp3: T5 -->
<g id="node53" class="node"><title>Temp3: T5</title>
<ellipse fill="none" stroke="black" cx="644.591" cy="-162" rx="50.8918" ry="18"/>
<text text-anchor="middle" x="644.591" y="-158.3" font-family="Times,serif" font-size="14.00">Temp3: T5</text>
</g>
<!-- ExpTemp3&#45;&gt;Temp3: T5 -->
<g id="edge44" class="edge"><title>ExpTemp3&#45;&gt;Temp3: T5</title>
<path fill="none" stroke="black" d="M644.591,-215.697C644.591,-207.983 644.591,-198.712 644.591,-190.112"/>
<polygon fill="black" stroke="black" points="648.091,-190.104 644.591,-180.104 641.091,-190.104 648.091,-190.104"/>
</g>
<!-- Label1: malloc -->
<g id="node27" class="node"><title>Label1: malloc</title>
<ellipse fill="none" stroke="black" cx="1796.59" cy="-90" rx="64.189" ry="18"/>
<text text-anchor="middle" x="1796.59" y="-86.3" font-family="Times,serif" font-size="14.00">Label1: malloc</text>
</g>
<!-- ExpName0&#45;&gt;Label1: malloc -->
<g id="edge20" class="edge"><title>ExpName0&#45;&gt;Label1: malloc</title>
<path fill="none" stroke="black" d="M1805.62,-143.697C1804.3,-135.983 1802.71,-126.712 1801.24,-118.112"/>
<polygon fill="black" stroke="black" points="1804.66,-117.369 1799.52,-108.104 1797.76,-118.552 1804.66,-117.369"/>
</g>
<!-- ExpTemp4 -->
<g id="node28" class="node"><title>ExpTemp4</title>
<ellipse fill="none" stroke="black" cx="764.591" cy="-234" rx="50.0912" ry="18"/>
<text text-anchor="middle" x="764.591" y="-230.3" font-family="Times,serif" font-size="14.00">ExpTemp4</text>
</g>
<!-- Temp4: T9 -->
<g id="node29" class="node"><title>Temp4: T9</title>
<ellipse fill="none" stroke="black" cx="763.591" cy="-162" rx="50.8918" ry="18"/>
<text text-anchor="middle" x="763.591" y="-158.3" font-family="Times,serif" font-size="14.00">Temp4: T9</text>
</g>
<!-- ExpTemp4&#45;&gt;Temp4: T9 -->
<g id="edge21" class="edge"><title>ExpTemp4&#45;&gt;Temp4: T9</title>
<path fill="none" stroke="black" d="M764.343,-215.697C764.233,-207.983 764.101,-198.712 763.978,-190.112"/>
<polygon fill="black" stroke="black" points="767.477,-190.053 763.835,-180.104 760.478,-190.153 767.477,-190.053"/>
</g>
<!-- StatMove3 -->
<g id="node30" class="node"><title>StatMove3</title>
<ellipse fill="none" stroke="black" cx="1120.59" cy="-306" rx="50.0912" ry="18"/>
<text text-anchor="middle" x="1120.59" y="-302.3" font-family="Times,serif" font-size="14.00">StatMove3</text>
</g>
<!-- ExpTemp6 -->
<g id="node31" class="node"><title>ExpTemp6</title>
<ellipse fill="none" stroke="black" cx="1002.59" cy="-234" rx="50.0912" ry="18"/>
<text text-anchor="middle" x="1002.59" y="-230.3" font-family="Times,serif" font-size="14.00">ExpTemp6</text>
</g>
<!-- StatMove3&#45;&gt;ExpTemp6 -->
<g id="edge22" class="edge"><title>StatMove3&#45;&gt;ExpTemp6</title>
<path fill="none" stroke="black" d="M1095.85,-290.326C1078.47,-280.012 1055.01,-266.095 1035.97,-254.8"/>
<polygon fill="black" stroke="black" points="1037.68,-251.747 1027.29,-249.655 1034.11,-257.767 1037.68,-251.747"/>
</g>
<!-- ExpTemp7 -->
<g id="node32" class="node"><title>ExpTemp7</title>
<ellipse fill="none" stroke="black" cx="1120.59" cy="-234" rx="50.0912" ry="18"/>
<text text-anchor="middle" x="1120.59" y="-230.3" font-family="Times,serif" font-size="14.00">ExpTemp7</text>
</g>
<!-- StatMove3&#45;&gt;ExpTemp7 -->
<g id="edge23" class="edge"><title>StatMove3&#45;&gt;ExpTemp7</title>
<path fill="none" stroke="black" d="M1120.59,-287.697C1120.59,-279.983 1120.59,-270.712 1120.59,-262.112"/>
<polygon fill="black" stroke="black" points="1124.09,-262.104 1120.59,-252.104 1117.09,-262.104 1124.09,-262.104"/>
</g>
<!-- Temp6: T8 -->
<g id="node60" class="node"><title>Temp6: T8</title>
<ellipse fill="none" stroke="black" cx="1001.59" cy="-162" rx="50.8918" ry="18"/>
<text text-anchor="middle" x="1001.59" y="-158.3" font-family="Times,serif" font-size="14.00">Temp6: T8</text>
</g>
<!-- ExpTemp6&#45;&gt;Temp6: T8 -->
<g id="edge51" class="edge"><title>ExpTemp6&#45;&gt;Temp6: T8</title>
<path fill="none" stroke="black" d="M1002.34,-215.697C1002.23,-207.983 1002.1,-198.712 1001.98,-190.112"/>
<polygon fill="black" stroke="black" points="1005.48,-190.053 1001.83,-180.104 998.478,-190.153 1005.48,-190.053"/>
</g>
<!-- Temp7: T4 -->
<g id="node40" class="node"><title>Temp7: T4</title>
<ellipse fill="none" stroke="black" cx="1120.59" cy="-162" rx="50.8918" ry="18"/>
<text text-anchor="middle" x="1120.59" y="-158.3" font-family="Times,serif" font-size="14.00">Temp7: T4</text>
</g>
<!-- ExpTemp7&#45;&gt;Temp7: T4 -->
<g id="edge28" class="edge"><title>ExpTemp7&#45;&gt;Temp7: T4</title>
<path fill="none" stroke="black" d="M1120.59,-215.697C1120.59,-207.983 1120.59,-198.712 1120.59,-190.112"/>
<polygon fill="black" stroke="black" points="1124.09,-190.104 1120.59,-180.104 1117.09,-190.104 1124.09,-190.104"/>
</g>
<!-- ExpTemp5 -->
<g id="node33" class="node"><title>ExpTemp5</title>
<ellipse fill="none" stroke="black" cx="882.591" cy="-234" rx="50.0912" ry="18"/>
<text text-anchor="middle" x="882.591" y="-230.3" font-family="Times,serif" font-size="14.00">ExpTemp5</text>
</g>
<!-- Temp5: T4 -->
<g id="node34" class="node"><title>Temp5: T4</title>
<ellipse fill="none" stroke="black" cx="882.591" cy="-162" rx="50.8918" ry="18"/>
<text text-anchor="middle" x="882.591" y="-158.3" font-family="Times,serif" font-size="14.00">Temp5: T4</text>
</g>
<!-- ExpTemp5&#45;&gt;Temp5: T4 -->
<g id="edge24" class="edge"><title>ExpTemp5&#45;&gt;Temp5: T4</title>
<path fill="none" stroke="black" d="M882.591,-215.697C882.591,-207.983 882.591,-198.712 882.591,-190.112"/>
<polygon fill="black" stroke="black" points="886.091,-190.104 882.591,-180.104 879.091,-190.104 886.091,-190.104"/>
</g>
<!-- ExpTemp1 -->
<g id="node35" class="node"><title>ExpTemp1</title>
<ellipse fill="none" stroke="black" cx="399.591" cy="-234" rx="50.0912" ry="18"/>
<text text-anchor="middle" x="399.591" y="-230.3" font-family="Times,serif" font-size="14.00">ExpTemp1</text>
</g>
<!-- Temp1: T6 -->
<g id="node36" class="node"><title>Temp1: T6</title>
<ellipse fill="none" stroke="black" cx="396.591" cy="-162" rx="50.8918" ry="18"/>
<text text-anchor="middle" x="396.591" y="-158.3" font-family="Times,serif" font-size="14.00">Temp1: T6</text>
</g>
<!-- ExpTemp1&#45;&gt;Temp1: T6 -->
<g id="edge25" class="edge"><title>ExpTemp1&#45;&gt;Temp1: T6</title>
<path fill="none" stroke="black" d="M398.849,-215.697C398.518,-207.983 398.121,-198.712 397.753,-190.112"/>
<polygon fill="black" stroke="black" points="401.249,-189.945 397.324,-180.104 394.255,-190.245 401.249,-189.945"/>
</g>
<!-- ExpName2 -->
<g id="node38" class="node"><title>ExpName2</title>
<ellipse fill="none" stroke="black" cx="3052.59" cy="-162" rx="50.8918" ry="18"/>
<text text-anchor="middle" x="3052.59" y="-158.3" font-family="Times,serif" font-size="14.00">ExpName2</text>
</g>
<!-- Label3: print -->
<g id="node39" class="node"><title>Label3: print</title>
<ellipse fill="none" stroke="black" cx="3043.59" cy="-90" rx="56.59" ry="18"/>
<text text-anchor="middle" x="3043.59" y="-86.3" font-family="Times,serif" font-size="14.00">Label3: print</text>
</g>
<!-- ExpName2&#45;&gt;Label3: print -->
<g id="edge27" class="edge"><title>ExpName2&#45;&gt;Label3: print</title>
<path fill="none" stroke="black" d="M3050.37,-143.697C3049.37,-135.983 3048.18,-126.712 3047.08,-118.112"/>
<polygon fill="black" stroke="black" points="3050.54,-117.576 3045.79,-108.104 3043.59,-118.469 3050.54,-117.576"/>
</g>
<!-- ExpTemp0 -->
<g id="node41" class="node"><title>ExpTemp0</title>
<ellipse fill="none" stroke="black" cx="281.591" cy="-234" rx="50.0912" ry="18"/>
<text text-anchor="middle" x="281.591" y="-230.3" font-family="Times,serif" font-size="14.00">ExpTemp0</text>
</g>
<!-- Temp0: T13 -->
<g id="node42" class="node"><title>Temp0: T13</title>
<ellipse fill="none" stroke="black" cx="272.591" cy="-162" rx="55.4913" ry="18"/>
<text text-anchor="middle" x="272.591" y="-158.3" font-family="Times,serif" font-size="14.00">Temp0: T13</text>
</g>
<!-- ExpTemp0&#45;&gt;Temp0: T13 -->
<g id="edge29" class="edge"><title>ExpTemp0&#45;&gt;Temp0: T13</title>
<path fill="none" stroke="black" d="M279.366,-215.697C278.374,-207.983 277.182,-198.712 276.076,-190.112"/>
<polygon fill="black" stroke="black" points="279.536,-189.576 274.79,-180.104 272.594,-190.469 279.536,-189.576"/>
</g>
<!-- StatList0 -->
<g id="node43" class="node"><title>StatList0</title>
<ellipse fill="none" stroke="black" cx="1750.59" cy="-378" rx="42.4939" ry="18"/>
<text text-anchor="middle" x="1750.59" y="-374.3" font-family="Times,serif" font-size="14.00">StatList0</text>
</g>
<!-- StatList0&#45;&gt;StatMove5 -->
<g id="edge36" class="edge"><title>StatList0&#45;&gt;StatMove5</title>
<path fill="none" stroke="black" d="M1750.59,-359.697C1750.59,-351.983 1750.59,-342.712 1750.59,-334.112"/>
<polygon fill="black" stroke="black" points="1754.09,-334.104 1750.59,-324.104 1747.09,-334.104 1754.09,-334.104"/>
</g>
<!-- StatList0&#45;&gt;StatMove4 -->
<g id="edge35" class="edge"><title>StatList0&#45;&gt;StatMove4</title>
<path fill="none" stroke="black" d="M1714.95,-368.276C1664.52,-355.933 1572.11,-333.316 1514.77,-319.281"/>
<polygon fill="black" stroke="black" points="1515.38,-315.828 1504.83,-316.85 1513.72,-322.627 1515.38,-315.828"/>
</g>
<!-- StatList0&#45;&gt;StatMove7 -->
<g id="edge38" class="edge"><title>StatList0&#45;&gt;StatMove7</title>
<path fill="none" stroke="black" d="M1790.37,-371.909C1886.21,-359.645 2130.15,-328.428 2241.1,-314.229"/>
<polygon fill="black" stroke="black" points="2241.62,-317.691 2251.1,-312.95 2240.74,-310.747 2241.62,-317.691"/>
</g>
<!-- StatList0&#45;&gt;StatMove1 -->
<g id="edge32" class="edge"><title>StatList0&#45;&gt;StatMove1</title>
<path fill="none" stroke="black" d="M1708.51,-375.158C1577.43,-369.3 1164.75,-349.944 823.591,-324 782.937,-320.908 737.174,-316.547 702.096,-313.015"/>
<polygon fill="black" stroke="black" points="702.337,-309.522 692.035,-311.996 701.632,-316.486 702.337,-309.522"/>
</g>
<!-- StatList0&#45;&gt;StatMove3 -->
<g id="edge34" class="edge"><title>StatList0&#45;&gt;StatMove3</title>
<path fill="none" stroke="black" d="M1710.22,-372.515C1601.79,-360.466 1303.9,-327.367 1177.98,-313.377"/>
<polygon fill="black" stroke="black" points="1178.1,-309.869 1167.78,-312.243 1177.33,-316.826 1178.1,-309.869"/>
</g>
<!-- StatLabel0 -->
<g id="node44" class="node"><title>StatLabel0</title>
<ellipse fill="none" stroke="black" cx="194.591" cy="-306" rx="48.9926" ry="18"/>
<text text-anchor="middle" x="194.591" y="-302.3" font-family="Times,serif" font-size="14.00">StatLabel0</text>
</g>
<!-- StatList0&#45;&gt;StatLabel0 -->
<g id="edge30" class="edge"><title>StatList0&#45;&gt;StatLabel0</title>
<path fill="none" stroke="black" d="M1708.42,-376.62C1537.51,-374.827 879.758,-365.459 340.591,-324 310.471,-321.684 276.989,-317.875 249.694,-314.449"/>
<polygon fill="black" stroke="black" points="249.917,-310.949 239.555,-313.158 249.033,-317.893 249.917,-310.949"/>
</g>
<!-- StatMove0 -->
<g id="node45" class="node"><title>StatMove0</title>
<ellipse fill="none" stroke="black" cx="399.591" cy="-306" rx="50.0912" ry="18"/>
<text text-anchor="middle" x="399.591" y="-302.3" font-family="Times,serif" font-size="14.00">StatMove0</text>
</g>
<!-- StatList0&#45;&gt;StatMove0 -->
<g id="edge31" class="edge"><title>StatList0&#45;&gt;StatMove0</title>
<path fill="none" stroke="black" d="M1708.5,-375.78C1556.83,-371.238 1024.17,-354.003 585.591,-324 542.418,-321.047 493.71,-316.553 456.972,-312.927"/>
<polygon fill="black" stroke="black" points="457.239,-309.436 446.941,-311.929 456.546,-316.402 457.239,-309.436"/>
</g>
<!-- StatMove2 -->
<g id="node46" class="node"><title>StatMove2</title>
<ellipse fill="none" stroke="black" cx="882.591" cy="-306" rx="50.0912" ry="18"/>
<text text-anchor="middle" x="882.591" y="-302.3" font-family="Times,serif" font-size="14.00">StatMove2</text>
</g>
<!-- StatList0&#45;&gt;StatMove2 -->
<g id="edge33" class="edge"><title>StatList0&#45;&gt;StatMove2</title>
<path fill="none" stroke="black" d="M1709.02,-374.063C1601.76,-366.429 1306.93,-345.084 1061.59,-324 1020.97,-320.509 975.205,-316.155 940.119,-312.728"/>
<polygon fill="black" stroke="black" points="940.35,-309.234 930.056,-311.741 939.667,-316.2 940.35,-309.234"/>
</g>
<!-- StatMove6 -->
<g id="node47" class="node"><title>StatMove6</title>
<ellipse fill="none" stroke="black" cx="2041.59" cy="-306" rx="50.0912" ry="18"/>
<text text-anchor="middle" x="2041.59" y="-302.3" font-family="Times,serif" font-size="14.00">StatMove6</text>
</g>
<!-- StatList0&#45;&gt;StatMove6 -->
<g id="edge37" class="edge"><title>StatList0&#45;&gt;StatMove6</title>
<path fill="none" stroke="black" d="M1786.56,-368.346C1838.03,-355.967 1932.88,-333.151 1991.28,-319.103"/>
<polygon fill="black" stroke="black" points="1992.12,-322.499 2001.03,-316.757 1990.49,-315.693 1992.12,-322.499"/>
</g>
<!-- StatMove8 -->
<g id="node48" class="node"><title>StatMove8</title>
<ellipse fill="none" stroke="black" cx="2658.59" cy="-306" rx="50.0912" ry="18"/>
<text text-anchor="middle" x="2658.59" y="-302.3" font-family="Times,serif" font-size="14.00">StatMove8</text>
</g>
<!-- StatList0&#45;&gt;StatMove8 -->
<g id="edge39" class="edge"><title>StatList0&#45;&gt;StatMove8</title>
<path fill="none" stroke="black" d="M1791.96,-373.81C1938.08,-362.546 2430.17,-324.609 2600.21,-311.5"/>
<polygon fill="black" stroke="black" points="2600.52,-314.987 2610.22,-310.729 2599.99,-308.008 2600.52,-314.987"/>
</g>
<!-- StatMove9 -->
<g id="node49" class="node"><title>StatMove9</title>
<ellipse fill="none" stroke="black" cx="2924.59" cy="-306" rx="50.0912" ry="18"/>
<text text-anchor="middle" x="2924.59" y="-302.3" font-family="Times,serif" font-size="14.00">StatMove9</text>
</g>
<!-- StatList0&#45;&gt;StatMove9 -->
<g id="edge40" class="edge"><title>StatList0&#45;&gt;StatMove9</title>
<path fill="none" stroke="black" d="M1792.56,-375.108C1927.12,-368.955 2359.88,-348.487 2717.59,-324 2767.83,-320.561 2824.87,-315.814 2866.33,-312.211"/>
<polygon fill="black" stroke="black" points="2866.86,-315.677 2876.52,-311.32 2866.25,-308.704 2866.86,-315.677"/>
</g>
<!-- StatExp0 -->
<g id="node50" class="node"><title>StatExp0</title>
<ellipse fill="none" stroke="black" cx="3077.59" cy="-306" rx="42.7926" ry="18"/>
<text text-anchor="middle" x="3077.59" y="-302.3" font-family="Times,serif" font-size="14.00">StatExp0</text>
</g>
<!-- StatList0&#45;&gt;StatExp0 -->
<g id="edge41" class="edge"><title>StatList0&#45;&gt;StatExp0</title>
<path fill="none" stroke="black" d="M1793.07,-377.261C1951,-377.788 2519.11,-375.741 2983.59,-324 2998.86,-322.299 3015.38,-319.604 3030.26,-316.856"/>
<polygon fill="black" stroke="black" points="3031.08,-320.262 3040.25,-314.957 3029.78,-313.385 3031.08,-320.262"/>
</g>
<!-- StatJump0 -->
<g id="node51" class="node"><title>StatJump0</title>
<ellipse fill="none" stroke="black" cx="3270.59" cy="-306" rx="48.1917" ry="18"/>
<text text-anchor="middle" x="3270.59" y="-302.3" font-family="Times,serif" font-size="14.00">StatJump0</text>
</g>
<!-- StatList0&#45;&gt;StatJump0 -->
<g id="edge42" class="edge"><title>StatList0&#45;&gt;StatJump0</title>
<path fill="none" stroke="black" d="M1792.98,-376.631C1961.93,-374.892 2603.56,-365.75 3129.59,-324 3158.34,-321.718 3190.26,-317.972 3216.44,-314.577"/>
<polygon fill="black" stroke="black" points="3217.09,-318.022 3226.55,-313.247 3216.17,-311.082 3217.09,-318.022"/>
</g>
<!-- Label0: BubbleSort@main -->
<g id="node52" class="node"><title>Label0: BubbleSort@main</title>
<ellipse fill="none" stroke="black" cx="106.591" cy="-234" rx="106.681" ry="18"/>
<text text-anchor="middle" x="106.591" y="-230.3" font-family="Times,serif" font-size="14.00">Label0: BubbleSort@main</text>
</g>
<!-- StatLabel0&#45;&gt;Label0: BubbleSort@main -->
<g id="edge43" class="edge"><title>StatLabel0&#45;&gt;Label0: BubbleSort@main</title>
<path fill="none" stroke="black" d="M175.06,-289.465C163.513,-280.279 148.669,-268.471 135.755,-258.199"/>
<polygon fill="black" stroke="black" points="137.607,-255.2 127.602,-251.714 133.25,-260.678 137.607,-255.2"/>
</g>
<!-- StatMove0&#45;&gt;ExpTemp1 -->
<g id="edge65" class="edge"><title>StatMove0&#45;&gt;ExpTemp1</title>
<path fill="none" stroke="black" d="M399.591,-287.697C399.591,-279.983 399.591,-270.712 399.591,-262.112"/>
<polygon fill="black" stroke="black" points="403.091,-262.104 399.591,-252.104 396.091,-262.104 403.091,-262.104"/>
</g>
<!-- StatMove0&#45;&gt;ExpTemp0 -->
<g id="edge64" class="edge"><title>StatMove0&#45;&gt;ExpTemp0</title>
<path fill="none" stroke="black" d="M374.854,-290.326C357.468,-280.012 334.008,-266.095 314.967,-254.8"/>
<polygon fill="black" stroke="black" points="316.681,-251.747 306.295,-249.655 313.109,-257.767 316.681,-251.747"/>
</g>
<!-- StatMove2&#45;&gt;ExpTemp4 -->
<g id="edge71" class="edge"><title>StatMove2&#45;&gt;ExpTemp4</title>
<path fill="none" stroke="black" d="M857.854,-290.326C840.468,-280.012 817.008,-266.095 797.967,-254.8"/>
<polygon fill="black" stroke="black" points="799.681,-251.747 789.295,-249.655 796.109,-257.767 799.681,-251.747"/>
</g>
<!-- StatMove2&#45;&gt;ExpTemp5 -->
<g id="edge72" class="edge"><title>StatMove2&#45;&gt;ExpTemp5</title>
<path fill="none" stroke="black" d="M882.591,-287.697C882.591,-279.983 882.591,-270.712 882.591,-262.112"/>
<polygon fill="black" stroke="black" points="886.091,-262.104 882.591,-252.104 879.091,-262.104 886.091,-262.104"/>
</g>
<!-- ExpTemp11 -->
<g id="node61" class="node"><title>ExpTemp11</title>
<ellipse fill="none" stroke="black" cx="2041.59" cy="-234" rx="54.6905" ry="18"/>
<text text-anchor="middle" x="2041.59" y="-230.3" font-family="Times,serif" font-size="14.00">ExpTemp11</text>
</g>
<!-- StatMove6&#45;&gt;ExpTemp11 -->
<g id="edge52" class="edge"><title>StatMove6&#45;&gt;ExpTemp11</title>
<path fill="none" stroke="black" d="M2041.59,-287.697C2041.59,-279.983 2041.59,-270.712 2041.59,-262.112"/>
<polygon fill="black" stroke="black" points="2045.09,-262.104 2041.59,-252.104 2038.09,-262.104 2045.09,-262.104"/>
</g>
<!-- ExpConst2 -->
<g id="node62" class="node"><title>ExpConst2</title>
<ellipse fill="none" stroke="black" cx="2167.59" cy="-234" rx="50.0912" ry="18"/>
<text text-anchor="middle" x="2167.59" y="-230.3" font-family="Times,serif" font-size="14.00">ExpConst2</text>
</g>
<!-- StatMove6&#45;&gt;ExpConst2 -->
<g id="edge53" class="edge"><title>StatMove6&#45;&gt;ExpConst2</title>
<path fill="none" stroke="black" d="M2067.7,-290.496C2086.53,-280.031 2112.17,-265.791 2132.75,-254.356"/>
<polygon fill="black" stroke="black" points="2134.47,-257.401 2141.52,-249.485 2131.08,-251.282 2134.47,-257.401"/>
</g>
<!-- ExpTemp15 -->
<g id="node66" class="node"><title>ExpTemp15</title>
<ellipse fill="none" stroke="black" cx="2658.59" cy="-234" rx="54.6905" ry="18"/>
<text text-anchor="middle" x="2658.59" y="-230.3" font-family="Times,serif" font-size="14.00">ExpTemp15</text>
</g>
<!-- StatMove8&#45;&gt;ExpTemp15 -->
<g id="edge66" class="edge"><title>StatMove8&#45;&gt;ExpTemp15</title>
<path fill="none" stroke="black" d="M2658.59,-287.697C2658.59,-279.983 2658.59,-270.712 2658.59,-262.112"/>
<polygon fill="black" stroke="black" points="2662.09,-262.104 2658.59,-252.104 2655.09,-262.104 2662.09,-262.104"/>
</g>
<!-- ExpTemp16 -->
<g id="node72" class="node"><title>ExpTemp16</title>
<ellipse fill="none" stroke="black" cx="2788.59" cy="-234" rx="54.6905" ry="18"/>
<text text-anchor="middle" x="2788.59" y="-230.3" font-family="Times,serif" font-size="14.00">ExpTemp16</text>
</g>
<!-- StatMove8&#45;&gt;ExpTemp16 -->
<g id="edge67" class="edge"><title>StatMove8&#45;&gt;ExpTemp16</title>
<path fill="none" stroke="black" d="M2685.21,-290.666C2704.49,-280.282 2730.8,-266.119 2752.05,-254.677"/>
<polygon fill="black" stroke="black" points="2753.96,-257.62 2761.11,-249.798 2750.64,-251.457 2753.96,-257.62"/>
</g>
<!-- ExpTemp17 -->
<g id="node58" class="node"><title>ExpTemp17</title>
<ellipse fill="none" stroke="black" cx="2924.59" cy="-234" rx="54.6905" ry="18"/>
<text text-anchor="middle" x="2924.59" y="-230.3" font-family="Times,serif" font-size="14.00">ExpTemp17</text>
</g>
<!-- StatMove9&#45;&gt;ExpTemp17 -->
<g id="edge68" class="edge"><title>StatMove9&#45;&gt;ExpTemp17</title>
<path fill="none" stroke="black" d="M2924.59,-287.697C2924.59,-279.983 2924.59,-270.712 2924.59,-262.112"/>
<polygon fill="black" stroke="black" points="2928.09,-262.104 2924.59,-252.104 2921.09,-262.104 2928.09,-262.104"/>
</g>
<!-- ExpCall2 -->
<g id="node64" class="node"><title>ExpCall2</title>
<ellipse fill="none" stroke="black" cx="3047.59" cy="-234" rx="44.393" ry="18"/>
<text text-anchor="middle" x="3047.59" y="-230.3" font-family="Times,serif" font-size="14.00">ExpCall2</text>
</g>
<!-- StatMove9&#45;&gt;ExpCall2 -->
<g id="edge69" class="edge"><title>StatMove9&#45;&gt;ExpCall2</title>
<path fill="none" stroke="black" d="M2950.08,-290.496C2968.63,-279.939 2993.93,-265.541 3014.11,-254.055"/>
<polygon fill="black" stroke="black" points="3016.02,-256.996 3022.98,-249.008 3012.55,-250.912 3016.02,-256.996"/>
</g>
<!-- ExpTemp19 -->
<g id="node74" class="node"><title>ExpTemp19</title>
<ellipse fill="none" stroke="black" cx="3164.59" cy="-234" rx="54.6905" ry="18"/>
<text text-anchor="middle" x="3164.59" y="-230.3" font-family="Times,serif" font-size="14.00">ExpTemp19</text>
</g>
<!-- StatExp0&#45;&gt;ExpTemp19 -->
<g id="edge75" class="edge"><title>StatExp0&#45;&gt;ExpTemp19</title>
<path fill="none" stroke="black" d="M3096.47,-289.811C3108.3,-280.288 3123.77,-267.846 3136.97,-257.224"/>
<polygon fill="black" stroke="black" points="3139.25,-259.884 3144.84,-250.888 3134.86,-254.43 3139.25,-259.884"/>
</g>
<!-- Label4: epilogue -->
<g id="node70" class="node"><title>Label4: epilogue</title>
<ellipse fill="none" stroke="black" cx="3307.59" cy="-234" rx="70.3881" ry="18"/>
<text text-anchor="middle" x="3307.59" y="-230.3" font-family="Times,serif" font-size="14.00">Label4: epilogue</text>
</g>
<!-- StatJump0&#45;&gt;Label4: epilogue -->
<g id="edge59" class="edge"><title>StatJump0&#45;&gt;Label4: epilogue</title>
<path fill="none" stroke="black" d="M3279.55,-288.055C3283.8,-280.007 3288.98,-270.205 3293.73,-261.226"/>
<polygon fill="black" stroke="black" points="3296.88,-262.752 3298.46,-252.275 3290.69,-259.481 3296.88,-262.752"/>
</g>
<!-- ExpTemp10 -->
<g id="node55" class="node"><title>ExpTemp10</title>
<ellipse fill="none" stroke="black" cx="1933.59" cy="-90" rx="54.6905" ry="18"/>
<text text-anchor="middle" x="1933.59" y="-86.3" font-family="Times,serif" font-size="14.00">ExpTemp10</text>
</g>
<!-- Temp10: T7 -->
<g id="node56" class="node"><title>Temp10: T7</title>
<ellipse fill="none" stroke="black" cx="1933.59" cy="-18" rx="55.4913" ry="18"/>
<text text-anchor="middle" x="1933.59" y="-14.3" font-family="Times,serif" font-size="14.00">Temp10: T7</text>
</g>
<!-- ExpTemp10&#45;&gt;Temp10: T7 -->
<g id="edge46" class="edge"><title>ExpTemp10&#45;&gt;Temp10: T7</title>
<path fill="none" stroke="black" d="M1933.59,-71.6966C1933.59,-63.9827 1933.59,-54.7125 1933.59,-46.1124"/>
<polygon fill="black" stroke="black" points="1937.09,-46.1043 1933.59,-36.1043 1930.09,-46.1044 1937.09,-46.1043"/>
</g>
<!-- ExpList0&#45;&gt;ExpTemp10 -->
<g id="edge50" class="edge"><title>ExpList0&#45;&gt;ExpTemp10</title>
<path fill="none" stroke="black" d="M1923.8,-143.697C1925.24,-135.983 1926.96,-126.712 1928.56,-118.112"/>
<polygon fill="black" stroke="black" points="1932.03,-118.575 1930.41,-108.104 1925.15,-117.297 1932.03,-118.575"/>
</g>
<!-- Temp17: T13 -->
<g id="node59" class="node"><title>Temp17: T13</title>
<ellipse fill="none" stroke="black" cx="2924.59" cy="-162" rx="59.5901" ry="18"/>
<text text-anchor="middle" x="2924.59" y="-158.3" font-family="Times,serif" font-size="14.00">Temp17: T13</text>
</g>
<!-- ExpTemp17&#45;&gt;Temp17: T13 -->
<g id="edge49" class="edge"><title>ExpTemp17&#45;&gt;Temp17: T13</title>
<path fill="none" stroke="black" d="M2924.59,-215.697C2924.59,-207.983 2924.59,-198.712 2924.59,-190.112"/>
<polygon fill="black" stroke="black" points="2928.09,-190.104 2924.59,-180.104 2921.09,-190.104 2928.09,-190.104"/>
</g>
<!-- Temp11: T10 -->
<g id="node76" class="node"><title>Temp11: T10</title>
<ellipse fill="none" stroke="black" cx="2041.59" cy="-162" rx="59.5901" ry="18"/>
<text text-anchor="middle" x="2041.59" y="-158.3" font-family="Times,serif" font-size="14.00">Temp11: T10</text>
</g>
<!-- ExpTemp11&#45;&gt;Temp11: T10 -->
<g id="edge74" class="edge"><title>ExpTemp11&#45;&gt;Temp11: T10</title>
<path fill="none" stroke="black" d="M2041.59,-215.697C2041.59,-207.983 2041.59,-198.712 2041.59,-190.112"/>
<polygon fill="black" stroke="black" points="2045.09,-190.104 2041.59,-180.104 2038.09,-190.104 2045.09,-190.104"/>
</g>
<!-- Value2: 10 -->
<g id="node63" class="node"><title>Value2: 10</title>
<ellipse fill="none" stroke="black" cx="2169.59" cy="-162" rx="50.0912" ry="18"/>
<text text-anchor="middle" x="2169.59" y="-158.3" font-family="Times,serif" font-size="14.00">Value2: 10</text>
</g>
<!-- ExpConst2&#45;&gt;Value2: 10 -->
<g id="edge54" class="edge"><title>ExpConst2&#45;&gt;Value2: 10</title>
<path fill="none" stroke="black" d="M2168.08,-215.697C2168.31,-207.983 2168.57,-198.712 2168.82,-190.112"/>
<polygon fill="black" stroke="black" points="2172.31,-190.2 2169.1,-180.104 2165.32,-190 2172.31,-190.2"/>
</g>
<!-- ExpCall2&#45;&gt;ExpName2 -->
<g id="edge55" class="edge"><title>ExpCall2&#45;&gt;ExpName2</title>
<path fill="none" stroke="black" d="M3048.83,-215.697C3049.38,-207.983 3050.04,-198.712 3050.65,-190.112"/>
<polygon fill="black" stroke="black" points="3054.15,-190.328 3051.37,-180.104 3047.17,-189.83 3054.15,-190.328"/>
</g>
<!-- ExpList2 -->
<g id="node65" class="node"><title>ExpList2</title>
<ellipse fill="none" stroke="black" cx="3164.59" cy="-162" rx="42.7926" ry="18"/>
<text text-anchor="middle" x="3164.59" y="-158.3" font-family="Times,serif" font-size="14.00">ExpList2</text>
</g>
<!-- ExpCall2&#45;&gt;ExpList2 -->
<g id="edge56" class="edge"><title>ExpCall2&#45;&gt;ExpList2</title>
<path fill="none" stroke="black" d="M3071.55,-218.666C3089.09,-208.168 3113.1,-193.807 3132.33,-182.301"/>
<polygon fill="black" stroke="black" points="3134.28,-185.214 3141.06,-177.076 3130.68,-179.207 3134.28,-185.214"/>
</g>
<!-- ExpList2&#45;&gt;ExpTemp18 -->
<g id="edge70" class="edge"><title>ExpList2&#45;&gt;ExpTemp18</title>
<path fill="none" stroke="black" d="M3166.57,-143.697C3167.45,-135.983 3168.51,-126.712 3169.49,-118.112"/>
<polygon fill="black" stroke="black" points="3172.98,-118.437 3170.64,-108.104 3166.02,-117.642 3172.98,-118.437"/>
</g>
<!-- Temp15: T12 -->
<g id="node67" class="node"><title>Temp15: T12</title>
<ellipse fill="none" stroke="black" cx="2658.59" cy="-162" rx="59.5901" ry="18"/>
<text text-anchor="middle" x="2658.59" y="-158.3" font-family="Times,serif" font-size="14.00">Temp15: T12</text>
</g>
<!-- ExpTemp15&#45;&gt;Temp15: T12 -->
<g id="edge57" class="edge"><title>ExpTemp15&#45;&gt;Temp15: T12</title>
<path fill="none" stroke="black" d="M2658.59,-215.697C2658.59,-207.983 2658.59,-198.712 2658.59,-190.112"/>
<polygon fill="black" stroke="black" points="2662.09,-190.104 2658.59,-180.104 2655.09,-190.104 2662.09,-190.104"/>
</g>
<!-- Label2: BBS@Start -->
<g id="node69" class="node"><title>Label2: BBS@Start</title>
<ellipse fill="none" stroke="black" cx="2383.59" cy="-90" rx="81.4863" ry="18"/>
<text text-anchor="middle" x="2383.59" y="-86.3" font-family="Times,serif" font-size="14.00">Label2: BBS@Start</text>
</g>
<!-- ExpName1&#45;&gt;Label2: BBS@Start -->
<g id="edge58" class="edge"><title>ExpName1&#45;&gt;Label2: BBS@Start</title>
<path fill="none" stroke="black" d="M2415.42,-144.055C2410.54,-135.922 2404.59,-125.998 2399.16,-116.943"/>
<polygon fill="black" stroke="black" points="2402.1,-115.049 2393.96,-108.275 2396.1,-118.651 2402.1,-115.049"/>
</g>
<!-- Temp16: T5 -->
<g id="node73" class="node"><title>Temp16: T5</title>
<ellipse fill="none" stroke="black" cx="2791.59" cy="-162" rx="55.4913" ry="18"/>
<text text-anchor="middle" x="2791.59" y="-158.3" font-family="Times,serif" font-size="14.00">Temp16: T5</text>
</g>
<!-- ExpTemp16&#45;&gt;Temp16: T5 -->
<g id="edge63" class="edge"><title>ExpTemp16&#45;&gt;Temp16: T5</title>
<path fill="none" stroke="black" d="M2789.33,-215.697C2789.66,-207.983 2790.06,-198.712 2790.43,-190.112"/>
<polygon fill="black" stroke="black" points="2793.93,-190.245 2790.86,-180.104 2786.93,-189.945 2793.93,-190.245"/>
</g>
<!-- Temp19: T6 -->
<g id="node75" class="node"><title>Temp19: T6</title>
<ellipse fill="none" stroke="black" cx="3280.59" cy="-162" rx="55.4913" ry="18"/>
<text text-anchor="middle" x="3280.59" y="-158.3" font-family="Times,serif" font-size="14.00">Temp19: T6</text>
</g>
<!-- ExpTemp19&#45;&gt;Temp19: T6 -->
<g id="edge73" class="edge"><title>ExpTemp19&#45;&gt;Temp19: T6</title>
<path fill="none" stroke="black" d="M3189.76,-217.811C3206.48,-207.721 3228.63,-194.355 3246.87,-183.348"/>
<polygon fill="black" stroke="black" points="3248.72,-186.323 3255.47,-178.159 3245.1,-180.329 3248.72,-186.323"/>
</g>
</g>
</svg>
