<?xml version="1.0" encoding="UTF-8" standalone="no"?>
<!DOCTYPE svg PUBLIC "-//W3C//DTD SVG 1.1//EN"
 "http://www.w3.org/Graphics/SVG/1.1/DTD/svg11.dtd">
<!-- Generated by graphviz version 2.38.0 (20140413.2041)
 -->
<!-- Title: %3 Pages: 1 -->
<svg width="2021pt" height="404pt"
 viewBox="0.00 0.00 2020.59 404.00" xmlns="http://www.w3.org/2000/svg" xmlns:xlink="http://www.w3.org/1999/xlink">
<g id="graph0" class="graph" transform="scale(1 1) rotate(0) translate(4 400)">
<title>%3</title>
<polygon fill="white" stroke="none" points="-4,4 -4,-400 2016.59,-400 2016.59,4 -4,4"/>
<!-- ExpList0 -->
<g id="node1" class="node"><title>ExpList0</title>
<ellipse fill="none" stroke="black" cx="1639.65" cy="-162" rx="42.7926" ry="18"/>
<text text-anchor="middle" x="1639.65" y="-158.3" font-family="Times,serif" font-size="14.00">ExpList0</text>
</g>
<!-- ExpTemp9 -->
<g id="node2" class="node"><title>ExpTemp9</title>
<ellipse fill="none" stroke="black" cx="1687.65" cy="-90" rx="50.0912" ry="18"/>
<text text-anchor="middle" x="1687.65" y="-86.3" font-family="Times,serif" font-size="14.00">ExpTemp9</text>
</g>
<!-- ExpList0&#45;&gt;ExpTemp9 -->
<g id="edge1" class="edge"><title>ExpList0&#45;&gt;ExpTemp9</title>
<path fill="none" stroke="black" d="M1651.02,-144.411C1656.74,-136.077 1663.78,-125.797 1670.17,-116.488"/>
<polygon fill="black" stroke="black" points="1673.25,-118.183 1676.02,-107.956 1667.48,-114.224 1673.25,-118.183"/>
</g>
<!-- Temp9: T335 -->
<g id="node3" class="node"><title>Temp9: T335</title>
<ellipse fill="none" stroke="black" cx="1687.65" cy="-18" rx="59.5901" ry="18"/>
<text text-anchor="middle" x="1687.65" y="-14.3" font-family="Times,serif" font-size="14.00">Temp9: T335</text>
</g>
<!-- ExpTemp9&#45;&gt;Temp9: T335 -->
<g id="edge2" class="edge"><title>ExpTemp9&#45;&gt;Temp9: T335</title>
<path fill="none" stroke="black" d="M1687.65,-71.6966C1687.65,-63.9827 1687.65,-54.7125 1687.65,-46.1124"/>
<polygon fill="black" stroke="black" points="1691.15,-46.1043 1687.65,-36.1043 1684.15,-46.1044 1691.15,-46.1043"/>
</g>
<!-- ExpName0 -->
<g id="node4" class="node"><title>ExpName0</title>
<ellipse fill="none" stroke="black" cx="1527.65" cy="-162" rx="50.8918" ry="18"/>
<text text-anchor="middle" x="1527.65" y="-158.3" font-family="Times,serif" font-size="14.00">ExpName0</text>
</g>
<!-- Label1: Tree@GetLeft -->
<g id="node5" class="node"><title>Label1: Tree@GetLeft</title>
<ellipse fill="none" stroke="black" cx="1527.65" cy="-90" rx="91.784" ry="18"/>
<text text-anchor="middle" x="1527.65" y="-86.3" font-family="Times,serif" font-size="14.00">Label1: Tree@GetLeft</text>
</g>
<!-- ExpName0&#45;&gt;Label1: Tree@GetLeft -->
<g id="edge3" class="edge"><title>ExpName0&#45;&gt;Label1: Tree@GetLeft</title>
<path fill="none" stroke="black" d="M1527.65,-143.697C1527.65,-135.983 1527.65,-126.712 1527.65,-118.112"/>
<polygon fill="black" stroke="black" points="1531.15,-118.104 1527.65,-108.104 1524.15,-118.104 1531.15,-118.104"/>
</g>
<!-- ExpMem3 -->
<g id="node6" class="node"><title>ExpMem3</title>
<ellipse fill="none" stroke="black" cx="1261.65" cy="-234" rx="48.9926" ry="18"/>
<text text-anchor="middle" x="1261.65" y="-230.3" font-family="Times,serif" font-size="14.00">ExpMem3</text>
</g>
<!-- ExpBinary3 -->
<g id="node7" class="node"><title>ExpBinary3</title>
<ellipse fill="none" stroke="black" cx="1268.65" cy="-162" rx="53.0913" ry="18"/>
<text text-anchor="middle" x="1268.65" y="-158.3" font-family="Times,serif" font-size="14.00">ExpBinary3</text>
</g>
<!-- ExpMem3&#45;&gt;ExpBinary3 -->
<g id="edge4" class="edge"><title>ExpMem3&#45;&gt;ExpBinary3</title>
<path fill="none" stroke="black" d="M1263.38,-215.697C1264.15,-207.983 1265.07,-198.712 1265.93,-190.112"/>
<polygon fill="black" stroke="black" points="1269.42,-190.403 1266.93,-180.104 1262.46,-189.706 1269.42,-190.403"/>
</g>
<!-- ExpConst3 -->
<g id="node8" class="node"><title>ExpConst3</title>
<ellipse fill="none" stroke="black" cx="1367.65" cy="-90" rx="50.0912" ry="18"/>
<text text-anchor="middle" x="1367.65" y="-86.3" font-family="Times,serif" font-size="14.00">ExpConst3</text>
</g>
<!-- ExpBinary3&#45;&gt;ExpConst3 -->
<g id="edge8" class="edge"><title>ExpBinary3&#45;&gt;ExpConst3</title>
<path fill="none" stroke="black" d="M1290.62,-145.465C1304.43,-135.7 1322.43,-122.972 1337.55,-112.276"/>
<polygon fill="black" stroke="black" points="1339.93,-114.882 1346.08,-106.251 1335.89,-109.167 1339.93,-114.882"/>
</g>
<!-- ExpTemp7 -->
<g id="node10" class="node"><title>ExpTemp7</title>
<ellipse fill="none" stroke="black" cx="1169.65" cy="-90" rx="50.0912" ry="18"/>
<text text-anchor="middle" x="1169.65" y="-86.3" font-family="Times,serif" font-size="14.00">ExpTemp7</text>
</g>
<!-- ExpBinary3&#45;&gt;ExpTemp7 -->
<g id="edge6" class="edge"><title>ExpBinary3&#45;&gt;ExpTemp7</title>
<path fill="none" stroke="black" d="M1246.67,-145.465C1232.86,-135.7 1214.86,-122.972 1199.74,-112.276"/>
<polygon fill="black" stroke="black" points="1201.4,-109.167 1191.21,-106.251 1197.36,-114.882 1201.4,-109.167"/>
</g>
<!-- Plus3 -->
<g id="node11" class="node"><title>Plus3</title>
<ellipse fill="none" stroke="black" cx="1268.65" cy="-90" rx="30.5947" ry="18"/>
<text text-anchor="middle" x="1268.65" y="-86.3" font-family="Times,serif" font-size="14.00">Plus3</text>
</g>
<!-- ExpBinary3&#45;&gt;Plus3 -->
<g id="edge7" class="edge"><title>ExpBinary3&#45;&gt;Plus3</title>
<path fill="none" stroke="black" d="M1268.65,-143.697C1268.65,-135.983 1268.65,-126.712 1268.65,-118.112"/>
<polygon fill="black" stroke="black" points="1272.15,-118.104 1268.65,-108.104 1265.15,-118.104 1272.15,-118.104"/>
</g>
<!-- Value3: 20 -->
<g id="node9" class="node"><title>Value3: 20</title>
<ellipse fill="none" stroke="black" cx="1367.65" cy="-18" rx="50.0912" ry="18"/>
<text text-anchor="middle" x="1367.65" y="-14.3" font-family="Times,serif" font-size="14.00">Value3: 20</text>
</g>
<!-- ExpConst3&#45;&gt;Value3: 20 -->
<g id="edge5" class="edge"><title>ExpConst3&#45;&gt;Value3: 20</title>
<path fill="none" stroke="black" d="M1367.65,-71.6966C1367.65,-63.9827 1367.65,-54.7125 1367.65,-46.1124"/>
<polygon fill="black" stroke="black" points="1371.15,-46.1043 1367.65,-36.1043 1364.15,-46.1044 1371.15,-46.1043"/>
</g>
<!-- Temp7: $fp -->
<g id="node52" class="node"><title>Temp7: $fp</title>
<ellipse fill="none" stroke="black" cx="1169.65" cy="-18" rx="52.7911" ry="18"/>
<text text-anchor="middle" x="1169.65" y="-14.3" font-family="Times,serif" font-size="14.00">Temp7: $fp</text>
</g>
<!-- ExpTemp7&#45;&gt;Temp7: $fp -->
<g id="edge50" class="edge"><title>ExpTemp7&#45;&gt;Temp7: $fp</title>
<path fill="none" stroke="black" d="M1169.65,-71.6966C1169.65,-63.9827 1169.65,-54.7125 1169.65,-46.1124"/>
<polygon fill="black" stroke="black" points="1173.15,-46.1043 1169.65,-36.1043 1166.15,-46.1044 1173.15,-46.1043"/>
</g>
<!-- StatMove5 -->
<g id="node12" class="node"><title>StatMove5</title>
<ellipse fill="none" stroke="black" cx="1704.65" cy="-306" rx="50.0912" ry="18"/>
<text text-anchor="middle" x="1704.65" y="-302.3" font-family="Times,serif" font-size="14.00">StatMove5</text>
</g>
<!-- ExpTemp10 -->
<g id="node13" class="node"><title>ExpTemp10</title>
<ellipse fill="none" stroke="black" cx="1704.65" cy="-234" rx="54.6905" ry="18"/>
<text text-anchor="middle" x="1704.65" y="-230.3" font-family="Times,serif" font-size="14.00">ExpTemp10</text>
</g>
<!-- StatMove5&#45;&gt;ExpTemp10 -->
<g id="edge9" class="edge"><title>StatMove5&#45;&gt;ExpTemp10</title>
<path fill="none" stroke="black" d="M1704.65,-287.697C1704.65,-279.983 1704.65,-270.712 1704.65,-262.112"/>
<polygon fill="black" stroke="black" points="1708.15,-262.104 1704.65,-252.104 1701.15,-262.104 1708.15,-262.104"/>
</g>
<!-- ExpTemp11 -->
<g id="node14" class="node"><title>ExpTemp11</title>
<ellipse fill="none" stroke="black" cx="1831.65" cy="-234" rx="54.6905" ry="18"/>
<text text-anchor="middle" x="1831.65" y="-230.3" font-family="Times,serif" font-size="14.00">ExpTemp11</text>
</g>
<!-- StatMove5&#45;&gt;ExpTemp11 -->
<g id="edge10" class="edge"><title>StatMove5&#45;&gt;ExpTemp11</title>
<path fill="none" stroke="black" d="M1730.96,-290.496C1749.82,-280.101 1775.44,-265.981 1796.11,-254.585"/>
<polygon fill="black" stroke="black" points="1797.86,-257.619 1804.93,-249.726 1794.48,-251.488 1797.86,-257.619"/>
</g>
<!-- Temp10: T337 -->
<g id="node44" class="node"><title>Temp10: T337</title>
<ellipse fill="none" stroke="black" cx="1764.65" cy="-162" rx="63.8893" ry="18"/>
<text text-anchor="middle" x="1764.65" y="-158.3" font-family="Times,serif" font-size="14.00">Temp10: T337</text>
</g>
<!-- ExpTemp10&#45;&gt;Temp10: T337 -->
<g id="edge42" class="edge"><title>ExpTemp10&#45;&gt;Temp10: T337</title>
<path fill="none" stroke="black" d="M1718.86,-216.411C1726.23,-207.82 1735.37,-197.159 1743.54,-187.627"/>
<polygon fill="black" stroke="black" points="1746.26,-189.827 1750.11,-179.956 1740.95,-185.271 1746.26,-189.827"/>
</g>
<!-- Temp11: T323 -->
<g id="node59" class="node"><title>Temp11: T323</title>
<ellipse fill="none" stroke="black" cx="1909.65" cy="-162" rx="63.8893" ry="18"/>
<text text-anchor="middle" x="1909.65" y="-158.3" font-family="Times,serif" font-size="14.00">Temp11: T323</text>
</g>
<!-- ExpTemp11&#45;&gt;Temp11: T323 -->
<g id="edge56" class="edge"><title>ExpTemp11&#45;&gt;Temp11: T323</title>
<path fill="none" stroke="black" d="M1849.74,-216.765C1859.8,-207.73 1872.51,-196.326 1883.63,-186.349"/>
<polygon fill="black" stroke="black" points="1886.28,-188.674 1891.38,-179.39 1881.6,-183.464 1886.28,-188.674"/>
</g>
<!-- ExpConst1 -->
<g id="node15" class="node"><title>ExpConst1</title>
<ellipse fill="none" stroke="black" cx="567.645" cy="-90" rx="50.0912" ry="18"/>
<text text-anchor="middle" x="567.645" y="-86.3" font-family="Times,serif" font-size="14.00">ExpConst1</text>
</g>
<!-- Value1: 20 -->
<g id="node16" class="node"><title>Value1: 20</title>
<ellipse fill="none" stroke="black" cx="566.645" cy="-18" rx="50.0912" ry="18"/>
<text text-anchor="middle" x="566.645" y="-14.3" font-family="Times,serif" font-size="14.00">Value1: 20</text>
</g>
<!-- ExpConst1&#45;&gt;Value1: 20 -->
<g id="edge11" class="edge"><title>ExpConst1&#45;&gt;Value1: 20</title>
<path fill="none" stroke="black" d="M567.398,-71.6966C567.288,-63.9827 567.156,-54.7125 567.033,-46.1124"/>
<polygon fill="black" stroke="black" points="570.532,-46.0533 566.89,-36.1043 563.533,-46.1533 570.532,-46.0533"/>
</g>
<!-- ExpTemp8 -->
<g id="node17" class="node"><title>ExpTemp8</title>
<ellipse fill="none" stroke="black" cx="1399.65" cy="-234" rx="50.0912" ry="18"/>
<text text-anchor="middle" x="1399.65" y="-230.3" font-family="Times,serif" font-size="14.00">ExpTemp8</text>
</g>
<!-- Temp8: T336 -->
<g id="node18" class="node"><title>Temp8: T336</title>
<ellipse fill="none" stroke="black" cx="1399.65" cy="-162" rx="59.5901" ry="18"/>
<text text-anchor="middle" x="1399.65" y="-158.3" font-family="Times,serif" font-size="14.00">Temp8: T336</text>
</g>
<!-- ExpTemp8&#45;&gt;Temp8: T336 -->
<g id="edge12" class="edge"><title>ExpTemp8&#45;&gt;Temp8: T336</title>
<path fill="none" stroke="black" d="M1399.65,-215.697C1399.65,-207.983 1399.65,-198.712 1399.65,-190.112"/>
<polygon fill="black" stroke="black" points="1403.15,-190.104 1399.65,-180.104 1396.15,-190.104 1403.15,-190.104"/>
</g>
<!-- StatMove1 -->
<g id="node19" class="node"><title>StatMove1</title>
<ellipse fill="none" stroke="black" cx="730.645" cy="-306" rx="50.0912" ry="18"/>
<text text-anchor="middle" x="730.645" y="-302.3" font-family="Times,serif" font-size="14.00">StatMove1</text>
</g>
<!-- ExpTemp2 -->
<g id="node20" class="node"><title>ExpTemp2</title>
<ellipse fill="none" stroke="black" cx="606.645" cy="-234" rx="50.0912" ry="18"/>
<text text-anchor="middle" x="606.645" y="-230.3" font-family="Times,serif" font-size="14.00">ExpTemp2</text>
</g>
<!-- StatMove1&#45;&gt;ExpTemp2 -->
<g id="edge13" class="edge"><title>StatMove1&#45;&gt;ExpTemp2</title>
<path fill="none" stroke="black" d="M704.952,-290.496C686.497,-280.078 661.416,-265.919 641.206,-254.51"/>
<polygon fill="black" stroke="black" points="642.734,-251.354 632.305,-249.485 639.293,-257.449 642.734,-251.354"/>
</g>
<!-- ExpMem2 -->
<g id="node21" class="node"><title>ExpMem2</title>
<ellipse fill="none" stroke="black" cx="730.645" cy="-234" rx="48.9926" ry="18"/>
<text text-anchor="middle" x="730.645" y="-230.3" font-family="Times,serif" font-size="14.00">ExpMem2</text>
</g>
<!-- StatMove1&#45;&gt;ExpMem2 -->
<g id="edge14" class="edge"><title>StatMove1&#45;&gt;ExpMem2</title>
<path fill="none" stroke="black" d="M730.645,-287.697C730.645,-279.983 730.645,-270.712 730.645,-262.112"/>
<polygon fill="black" stroke="black" points="734.145,-262.104 730.645,-252.104 727.145,-262.104 734.145,-262.104"/>
</g>
<!-- Temp2: T337 -->
<g id="node45" class="node"><title>Temp2: T337</title>
<ellipse fill="none" stroke="black" cx="599.645" cy="-162" rx="59.5901" ry="18"/>
<text text-anchor="middle" x="599.645" y="-158.3" font-family="Times,serif" font-size="14.00">Temp2: T337</text>
</g>
<!-- ExpTemp2&#45;&gt;Temp2: T337 -->
<g id="edge43" class="edge"><title>ExpTemp2&#45;&gt;Temp2: T337</title>
<path fill="none" stroke="black" d="M604.915,-215.697C604.144,-207.983 603.217,-198.712 602.357,-190.112"/>
<polygon fill="black" stroke="black" points="605.834,-189.706 601.356,-180.104 598.868,-190.403 605.834,-189.706"/>
</g>
<!-- ExpBinary2 -->
<g id="node42" class="node"><title>ExpBinary2</title>
<ellipse fill="none" stroke="black" cx="730.645" cy="-162" rx="53.0913" ry="18"/>
<text text-anchor="middle" x="730.645" y="-158.3" font-family="Times,serif" font-size="14.00">ExpBinary2</text>
</g>
<!-- ExpMem2&#45;&gt;ExpBinary2 -->
<g id="edge36" class="edge"><title>ExpMem2&#45;&gt;ExpBinary2</title>
<path fill="none" stroke="black" d="M730.645,-215.697C730.645,-207.983 730.645,-198.712 730.645,-190.112"/>
<polygon fill="black" stroke="black" points="734.145,-190.104 730.645,-180.104 727.145,-190.104 734.145,-190.104"/>
</g>
<!-- ExpBinary1 -->
<g id="node22" class="node"><title>ExpBinary1</title>
<ellipse fill="none" stroke="black" cx="468.645" cy="-162" rx="53.0913" ry="18"/>
<text text-anchor="middle" x="468.645" y="-158.3" font-family="Times,serif" font-size="14.00">ExpBinary1</text>
</g>
<!-- ExpBinary1&#45;&gt;ExpConst1 -->
<g id="edge17" class="edge"><title>ExpBinary1&#45;&gt;ExpConst1</title>
<path fill="none" stroke="black" d="M490.617,-145.465C504.426,-135.7 522.427,-122.972 537.555,-112.276"/>
<polygon fill="black" stroke="black" points="539.932,-114.882 546.076,-106.251 535.89,-109.167 539.932,-114.882"/>
</g>
<!-- ExpTemp1 -->
<g id="node23" class="node"><title>ExpTemp1</title>
<ellipse fill="none" stroke="black" cx="369.645" cy="-90" rx="50.0912" ry="18"/>
<text text-anchor="middle" x="369.645" y="-86.3" font-family="Times,serif" font-size="14.00">ExpTemp1</text>
</g>
<!-- ExpBinary1&#45;&gt;ExpTemp1 -->
<g id="edge15" class="edge"><title>ExpBinary1&#45;&gt;ExpTemp1</title>
<path fill="none" stroke="black" d="M446.674,-145.465C432.864,-135.7 414.863,-122.972 399.736,-112.276"/>
<polygon fill="black" stroke="black" points="401.4,-109.167 391.215,-106.251 397.359,-114.882 401.4,-109.167"/>
</g>
<!-- Plus1 -->
<g id="node24" class="node"><title>Plus1</title>
<ellipse fill="none" stroke="black" cx="468.645" cy="-90" rx="30.5947" ry="18"/>
<text text-anchor="middle" x="468.645" y="-86.3" font-family="Times,serif" font-size="14.00">Plus1</text>
</g>
<!-- ExpBinary1&#45;&gt;Plus1 -->
<g id="edge16" class="edge"><title>ExpBinary1&#45;&gt;Plus1</title>
<path fill="none" stroke="black" d="M468.645,-143.697C468.645,-135.983 468.645,-126.712 468.645,-118.112"/>
<polygon fill="black" stroke="black" points="472.145,-118.104 468.645,-108.104 465.145,-118.104 472.145,-118.104"/>
</g>
<!-- Temp1: $fp -->
<g id="node57" class="node"><title>Temp1: $fp</title>
<ellipse fill="none" stroke="black" cx="370.645" cy="-18" rx="52.7911" ry="18"/>
<text text-anchor="middle" x="370.645" y="-14.3" font-family="Times,serif" font-size="14.00">Temp1: $fp</text>
</g>
<!-- ExpTemp1&#45;&gt;Temp1: $fp -->
<g id="edge54" class="edge"><title>ExpTemp1&#45;&gt;Temp1: $fp</title>
<path fill="none" stroke="black" d="M369.893,-71.6966C370.003,-63.9827 370.135,-54.7125 370.258,-46.1124"/>
<polygon fill="black" stroke="black" points="373.758,-46.1533 370.401,-36.1043 366.758,-46.0533 373.758,-46.1533"/>
</g>
<!-- StatMove4 -->
<g id="node25" class="node"><title>StatMove4</title>
<ellipse fill="none" stroke="black" cx="1399.65" cy="-306" rx="50.0912" ry="18"/>
<text text-anchor="middle" x="1399.65" y="-302.3" font-family="Times,serif" font-size="14.00">StatMove4</text>
</g>
<!-- StatMove4&#45;&gt;ExpTemp8 -->
<g id="edge18" class="edge"><title>StatMove4&#45;&gt;ExpTemp8</title>
<path fill="none" stroke="black" d="M1399.65,-287.697C1399.65,-279.983 1399.65,-270.712 1399.65,-262.112"/>
<polygon fill="black" stroke="black" points="1403.15,-262.104 1399.65,-252.104 1396.15,-262.104 1403.15,-262.104"/>
</g>
<!-- ExpCall0 -->
<g id="node26" class="node"><title>ExpCall0</title>
<ellipse fill="none" stroke="black" cx="1527.65" cy="-234" rx="44.393" ry="18"/>
<text text-anchor="middle" x="1527.65" y="-230.3" font-family="Times,serif" font-size="14.00">ExpCall0</text>
</g>
<!-- StatMove4&#45;&gt;ExpCall0 -->
<g id="edge19" class="edge"><title>StatMove4&#45;&gt;ExpCall0</title>
<path fill="none" stroke="black" d="M1425.86,-290.666C1445.35,-280.004 1472.14,-265.356 1493.34,-253.762"/>
<polygon fill="black" stroke="black" points="1495.25,-256.707 1502.34,-248.838 1491.89,-250.566 1495.25,-256.707"/>
</g>
<!-- ExpCall0&#45;&gt;ExpList0 -->
<g id="edge35" class="edge"><title>ExpCall0&#45;&gt;ExpList0</title>
<path fill="none" stroke="black" d="M1550.85,-218.496C1567.37,-208.172 1589.77,-194.174 1607.93,-182.819"/>
<polygon fill="black" stroke="black" points="1609.84,-185.753 1616.47,-177.485 1606.13,-179.818 1609.84,-185.753"/>
</g>
<!-- ExpCall0&#45;&gt;ExpName0 -->
<g id="edge34" class="edge"><title>ExpCall0&#45;&gt;ExpName0</title>
<path fill="none" stroke="black" d="M1527.65,-215.697C1527.65,-207.983 1527.65,-198.712 1527.65,-190.112"/>
<polygon fill="black" stroke="black" points="1531.15,-190.104 1527.65,-180.104 1524.15,-190.104 1531.15,-190.104"/>
</g>
<!-- ExpMem0 -->
<g id="node27" class="node"><title>ExpMem0</title>
<ellipse fill="none" stroke="black" cx="360.645" cy="-234" rx="48.9926" ry="18"/>
<text text-anchor="middle" x="360.645" y="-230.3" font-family="Times,serif" font-size="14.00">ExpMem0</text>
</g>
<!-- ExpBinary0 -->
<g id="node28" class="node"><title>ExpBinary0</title>
<ellipse fill="none" stroke="black" cx="200.645" cy="-162" rx="53.0913" ry="18"/>
<text text-anchor="middle" x="200.645" y="-158.3" font-family="Times,serif" font-size="14.00">ExpBinary0</text>
</g>
<!-- ExpMem0&#45;&gt;ExpBinary0 -->
<g id="edge20" class="edge"><title>ExpMem0&#45;&gt;ExpBinary0</title>
<path fill="none" stroke="black" d="M330.551,-219.834C305.367,-208.816 269.198,-192.992 241.416,-180.837"/>
<polygon fill="black" stroke="black" points="242.536,-177.507 231.971,-176.705 239.73,-183.92 242.536,-177.507"/>
</g>
<!-- ExpConst0 -->
<g id="node29" class="node"><title>ExpConst0</title>
<ellipse fill="none" stroke="black" cx="250.645" cy="-90" rx="50.0912" ry="18"/>
<text text-anchor="middle" x="250.645" y="-86.3" font-family="Times,serif" font-size="14.00">ExpConst0</text>
</g>
<!-- ExpBinary0&#45;&gt;ExpConst0 -->
<g id="edge41" class="edge"><title>ExpBinary0&#45;&gt;ExpConst0</title>
<path fill="none" stroke="black" d="M212.495,-144.411C218.509,-135.992 225.942,-125.585 232.645,-116.201"/>
<polygon fill="black" stroke="black" points="235.569,-118.128 238.534,-107.956 229.873,-114.059 235.569,-118.128"/>
</g>
<!-- ExpTemp0 -->
<g id="node39" class="node"><title>ExpTemp0</title>
<ellipse fill="none" stroke="black" cx="52.6453" cy="-90" rx="50.0912" ry="18"/>
<text text-anchor="middle" x="52.6453" y="-86.3" font-family="Times,serif" font-size="14.00">ExpTemp0</text>
</g>
<!-- ExpBinary0&#45;&gt;ExpTemp0 -->
<g id="edge39" class="edge"><title>ExpBinary0&#45;&gt;ExpTemp0</title>
<path fill="none" stroke="black" d="M171.051,-147.003C148.013,-136.106 115.862,-120.9 90.8756,-109.082"/>
<polygon fill="black" stroke="black" points="92.2203,-105.846 81.684,-104.734 89.2274,-112.174 92.2203,-105.846"/>
</g>
<!-- Plus0 -->
<g id="node43" class="node"><title>Plus0</title>
<ellipse fill="none" stroke="black" cx="151.645" cy="-90" rx="30.5947" ry="18"/>
<text text-anchor="middle" x="151.645" y="-86.3" font-family="Times,serif" font-size="14.00">Plus0</text>
</g>
<!-- ExpBinary0&#45;&gt;Plus0 -->
<g id="edge40" class="edge"><title>ExpBinary0&#45;&gt;Plus0</title>
<path fill="none" stroke="black" d="M189.033,-144.411C182.966,-135.744 175.425,-124.971 168.708,-115.375"/>
<polygon fill="black" stroke="black" points="171.439,-113.173 162.837,-106.988 165.704,-117.188 171.439,-113.173"/>
</g>
<!-- Value0: 28 -->
<g id="node30" class="node"><title>Value0: 28</title>
<ellipse fill="none" stroke="black" cx="249.645" cy="-18" rx="50.0912" ry="18"/>
<text text-anchor="middle" x="249.645" y="-14.3" font-family="Times,serif" font-size="14.00">Value0: 28</text>
</g>
<!-- ExpConst0&#45;&gt;Value0: 28 -->
<g id="edge21" class="edge"><title>ExpConst0&#45;&gt;Value0: 28</title>
<path fill="none" stroke="black" d="M250.398,-71.6966C250.288,-63.9827 250.156,-54.7125 250.033,-46.1124"/>
<polygon fill="black" stroke="black" points="253.532,-46.0533 249.89,-36.1043 246.533,-46.1533 253.532,-46.0533"/>
</g>
<!-- ExpMem1 -->
<g id="node31" class="node"><title>ExpMem1</title>
<ellipse fill="none" stroke="black" cx="475.645" cy="-234" rx="48.9926" ry="18"/>
<text text-anchor="middle" x="475.645" y="-230.3" font-family="Times,serif" font-size="14.00">ExpMem1</text>
</g>
<!-- ExpMem1&#45;&gt;ExpBinary1 -->
<g id="edge22" class="edge"><title>ExpMem1&#45;&gt;ExpBinary1</title>
<path fill="none" stroke="black" d="M473.915,-215.697C473.144,-207.983 472.217,-198.712 471.357,-190.112"/>
<polygon fill="black" stroke="black" points="474.834,-189.706 470.356,-180.104 467.868,-190.403 474.834,-189.706"/>
</g>
<!-- StatLabel0 -->
<g id="node32" class="node"><title>StatLabel0</title>
<ellipse fill="none" stroke="black" cx="299.645" cy="-306" rx="48.9926" ry="18"/>
<text text-anchor="middle" x="299.645" y="-302.3" font-family="Times,serif" font-size="14.00">StatLabel0</text>
</g>
<!-- Label0: L18 -->
<g id="node33" class="node"><title>Label0: L18</title>
<ellipse fill="none" stroke="black" cx="239.645" cy="-234" rx="53.8905" ry="18"/>
<text text-anchor="middle" x="239.645" y="-230.3" font-family="Times,serif" font-size="14.00">Label0: L18</text>
</g>
<!-- StatLabel0&#45;&gt;Label0: L18 -->
<g id="edge23" class="edge"><title>StatLabel0&#45;&gt;Label0: L18</title>
<path fill="none" stroke="black" d="M285.426,-288.411C277.954,-279.693 268.656,-268.845 260.395,-259.208"/>
<polygon fill="black" stroke="black" points="262.928,-256.785 253.762,-251.47 257.613,-261.34 262.928,-256.785"/>
</g>
<!-- StatList0 -->
<g id="node34" class="node"><title>StatList0</title>
<ellipse fill="none" stroke="black" cx="1068.65" cy="-378" rx="42.4939" ry="18"/>
<text text-anchor="middle" x="1068.65" y="-374.3" font-family="Times,serif" font-size="14.00">StatList0</text>
</g>
<!-- StatList0&#45;&gt;StatMove5 -->
<g id="edge30" class="edge"><title>StatList0&#45;&gt;StatMove5</title>
<path fill="none" stroke="black" d="M1109.4,-372.515C1219,-360.452 1520.33,-327.287 1647.17,-313.326"/>
<polygon fill="black" stroke="black" points="1647.89,-316.768 1657.45,-312.195 1647.13,-309.81 1647.89,-316.768"/>
</g>
<!-- StatList0&#45;&gt;StatMove1 -->
<g id="edge26" class="edge"><title>StatList0&#45;&gt;StatMove1</title>
<path fill="none" stroke="black" d="M1031.51,-369.309C971.235,-356.826 851.943,-332.121 783.059,-317.855"/>
<polygon fill="black" stroke="black" points="783.365,-314.344 772.863,-315.743 781.946,-321.199 783.365,-314.344"/>
</g>
<!-- StatList0&#45;&gt;StatMove4 -->
<g id="edge29" class="edge"><title>StatList0&#45;&gt;StatMove4</title>
<path fill="none" stroke="black" d="M1105.65,-369.174C1164.7,-356.686 1280.42,-332.214 1347.72,-317.98"/>
<polygon fill="black" stroke="black" points="1348.63,-321.366 1357.69,-315.872 1347.18,-314.517 1348.63,-321.366"/>
</g>
<!-- StatList0&#45;&gt;StatLabel0 -->
<g id="edge24" class="edge"><title>StatList0&#45;&gt;StatLabel0</title>
<path fill="none" stroke="black" d="M1026.98,-374.53C923.514,-368.196 646.572,-350.023 416.645,-324 395.977,-321.661 373.339,-318.51 353.529,-315.556"/>
<polygon fill="black" stroke="black" points="353.863,-312.067 343.452,-314.035 352.818,-318.989 353.863,-312.067"/>
</g>
<!-- StatMove0 -->
<g id="node35" class="node"><title>StatMove0</title>
<ellipse fill="none" stroke="black" cx="475.645" cy="-306" rx="50.0912" ry="18"/>
<text text-anchor="middle" x="475.645" y="-302.3" font-family="Times,serif" font-size="14.00">StatMove0</text>
</g>
<!-- StatList0&#45;&gt;StatMove0 -->
<g id="edge25" class="edge"><title>StatList0&#45;&gt;StatMove0</title>
<path fill="none" stroke="black" d="M1028.35,-372.244C925.26,-360.074 651.673,-327.779 532.481,-313.709"/>
<polygon fill="black" stroke="black" points="532.802,-310.223 522.46,-312.526 531.981,-317.174 532.802,-310.223"/>
</g>
<!-- StatMove2 -->
<g id="node36" class="node"><title>StatMove2</title>
<ellipse fill="none" stroke="black" cx="999.645" cy="-306" rx="50.0912" ry="18"/>
<text text-anchor="middle" x="999.645" y="-302.3" font-family="Times,serif" font-size="14.00">StatMove2</text>
</g>
<!-- StatList0&#45;&gt;StatMove2 -->
<g id="edge27" class="edge"><title>StatList0&#45;&gt;StatMove2</title>
<path fill="none" stroke="black" d="M1052.99,-361.116C1044.12,-352.116 1032.85,-340.682 1022.95,-330.646"/>
<polygon fill="black" stroke="black" points="1025.23,-327.972 1015.72,-323.307 1020.25,-332.886 1025.23,-327.972"/>
</g>
<!-- StatMove3 -->
<g id="node37" class="node"><title>StatMove3</title>
<ellipse fill="none" stroke="black" cx="1137.65" cy="-306" rx="50.0912" ry="18"/>
<text text-anchor="middle" x="1137.65" y="-302.3" font-family="Times,serif" font-size="14.00">StatMove3</text>
</g>
<!-- StatList0&#45;&gt;StatMove3 -->
<g id="edge28" class="edge"><title>StatList0&#45;&gt;StatMove3</title>
<path fill="none" stroke="black" d="M1084.3,-361.116C1093.17,-352.116 1104.44,-340.682 1114.34,-330.646"/>
<polygon fill="black" stroke="black" points="1117.04,-332.886 1121.57,-323.307 1112.06,-327.972 1117.04,-332.886"/>
</g>
<!-- StatJump0 -->
<g id="node38" class="node"><title>StatJump0</title>
<ellipse fill="none" stroke="black" cx="1889.65" cy="-306" rx="48.1917" ry="18"/>
<text text-anchor="middle" x="1889.65" y="-302.3" font-family="Times,serif" font-size="14.00">StatJump0</text>
</g>
<!-- StatList0&#45;&gt;StatJump0 -->
<g id="edge31" class="edge"><title>StatList0&#45;&gt;StatJump0</title>
<path fill="none" stroke="black" d="M1110.24,-374.672C1218.23,-368.446 1516.34,-350.091 1763.65,-324 1787.35,-321.5 1813.47,-318.085 1835.75,-314.971"/>
<polygon fill="black" stroke="black" points="1836.28,-318.431 1845.7,-313.566 1835.3,-311.499 1836.28,-318.431"/>
</g>
<!-- StatMove0&#45;&gt;ExpMem0 -->
<g id="edge37" class="edge"><title>StatMove0&#45;&gt;ExpMem0</title>
<path fill="none" stroke="black" d="M451.257,-290.155C434.485,-279.946 412.013,-266.267 393.644,-255.086"/>
<polygon fill="black" stroke="black" points="395.361,-252.034 384.999,-249.824 391.721,-258.013 395.361,-252.034"/>
</g>
<!-- StatMove0&#45;&gt;ExpMem1 -->
<g id="edge38" class="edge"><title>StatMove0&#45;&gt;ExpMem1</title>
<path fill="none" stroke="black" d="M475.645,-287.697C475.645,-279.983 475.645,-270.712 475.645,-262.112"/>
<polygon fill="black" stroke="black" points="479.145,-262.104 475.645,-252.104 472.145,-262.104 479.145,-262.104"/>
</g>
<!-- ExpTemp4 -->
<g id="node46" class="node"><title>ExpTemp4</title>
<ellipse fill="none" stroke="black" cx="871.645" cy="-234" rx="50.0912" ry="18"/>
<text text-anchor="middle" x="871.645" y="-230.3" font-family="Times,serif" font-size="14.00">ExpTemp4</text>
</g>
<!-- StatMove2&#45;&gt;ExpTemp4 -->
<g id="edge44" class="edge"><title>StatMove2&#45;&gt;ExpTemp4</title>
<path fill="none" stroke="black" d="M973.434,-290.666C954.32,-280.213 928.2,-265.929 907.206,-254.447"/>
<polygon fill="black" stroke="black" points="908.715,-251.283 898.262,-249.556 905.356,-257.425 908.715,-251.283"/>
</g>
<!-- ExpTemp5 -->
<g id="node47" class="node"><title>ExpTemp5</title>
<ellipse fill="none" stroke="black" cx="999.645" cy="-234" rx="50.0912" ry="18"/>
<text text-anchor="middle" x="999.645" y="-230.3" font-family="Times,serif" font-size="14.00">ExpTemp5</text>
</g>
<!-- StatMove2&#45;&gt;ExpTemp5 -->
<g id="edge45" class="edge"><title>StatMove2&#45;&gt;ExpTemp5</title>
<path fill="none" stroke="black" d="M999.645,-287.697C999.645,-279.983 999.645,-270.712 999.645,-262.112"/>
<polygon fill="black" stroke="black" points="1003.15,-262.104 999.645,-252.104 996.145,-262.104 1003.15,-262.104"/>
</g>
<!-- StatMove3&#45;&gt;ExpMem3 -->
<g id="edge58" class="edge"><title>StatMove3&#45;&gt;ExpMem3</title>
<path fill="none" stroke="black" d="M1163.34,-290.496C1181.79,-280.078 1206.87,-265.919 1227.08,-254.51"/>
<polygon fill="black" stroke="black" points="1229,-257.449 1235.99,-249.485 1225.56,-251.354 1229,-257.449"/>
</g>
<!-- ExpTemp6 -->
<g id="node55" class="node"><title>ExpTemp6</title>
<ellipse fill="none" stroke="black" cx="1137.65" cy="-234" rx="50.0912" ry="18"/>
<text text-anchor="middle" x="1137.65" y="-230.3" font-family="Times,serif" font-size="14.00">ExpTemp6</text>
</g>
<!-- StatMove3&#45;&gt;ExpTemp6 -->
<g id="edge57" class="edge"><title>StatMove3&#45;&gt;ExpTemp6</title>
<path fill="none" stroke="black" d="M1137.65,-287.697C1137.65,-279.983 1137.65,-270.712 1137.65,-262.112"/>
<polygon fill="black" stroke="black" points="1141.15,-262.104 1137.65,-252.104 1134.15,-262.104 1141.15,-262.104"/>
</g>
<!-- Label2: L20 -->
<g id="node41" class="node"><title>Label2: L20</title>
<ellipse fill="none" stroke="black" cx="1958.65" cy="-234" rx="53.8905" ry="18"/>
<text text-anchor="middle" x="1958.65" y="-230.3" font-family="Times,serif" font-size="14.00">Label2: L20</text>
</g>
<!-- StatJump0&#45;&gt;Label2: L20 -->
<g id="edge33" class="edge"><title>StatJump0&#45;&gt;Label2: L20</title>
<path fill="none" stroke="black" d="M1905.65,-288.765C1914.4,-279.882 1925.42,-268.709 1935.13,-258.854"/>
<polygon fill="black" stroke="black" points="1937.72,-261.212 1942.25,-251.633 1932.74,-256.298 1937.72,-261.212"/>
</g>
<!-- Temp0: $fp -->
<g id="node40" class="node"><title>Temp0: $fp</title>
<ellipse fill="none" stroke="black" cx="52.6453" cy="-18" rx="52.7911" ry="18"/>
<text text-anchor="middle" x="52.6453" y="-14.3" font-family="Times,serif" font-size="14.00">Temp0: $fp</text>
</g>
<!-- ExpTemp0&#45;&gt;Temp0: $fp -->
<g id="edge32" class="edge"><title>ExpTemp0&#45;&gt;Temp0: $fp</title>
<path fill="none" stroke="black" d="M52.6453,-71.6966C52.6453,-63.9827 52.6453,-54.7125 52.6453,-46.1124"/>
<polygon fill="black" stroke="black" points="56.1454,-46.1043 52.6453,-36.1043 49.1454,-46.1044 56.1454,-46.1043"/>
</g>
<!-- ExpTemp3 -->
<g id="node48" class="node"><title>ExpTemp3</title>
<ellipse fill="none" stroke="black" cx="686.645" cy="-90" rx="50.0912" ry="18"/>
<text text-anchor="middle" x="686.645" y="-86.3" font-family="Times,serif" font-size="14.00">ExpTemp3</text>
</g>
<!-- ExpBinary2&#45;&gt;ExpTemp3 -->
<g id="edge47" class="edge"><title>ExpBinary2&#45;&gt;ExpTemp3</title>
<path fill="none" stroke="black" d="M719.994,-144.055C714.806,-135.801 708.458,-125.701 702.698,-116.538"/>
<polygon fill="black" stroke="black" points="705.483,-114.393 697.198,-107.789 699.557,-118.118 705.483,-114.393"/>
</g>
<!-- Plus2 -->
<g id="node50" class="node"><title>Plus2</title>
<ellipse fill="none" stroke="black" cx="785.645" cy="-90" rx="30.5947" ry="18"/>
<text text-anchor="middle" x="785.645" y="-86.3" font-family="Times,serif" font-size="14.00">Plus2</text>
</g>
<!-- ExpBinary2&#45;&gt;Plus2 -->
<g id="edge48" class="edge"><title>ExpBinary2&#45;&gt;Plus2</title>
<path fill="none" stroke="black" d="M743.68,-144.411C750.657,-135.53 759.372,-124.439 767.049,-114.668"/>
<polygon fill="black" stroke="black" points="770.032,-116.536 773.458,-106.511 764.528,-112.212 770.032,-116.536"/>
</g>
<!-- ExpConst2 -->
<g id="node51" class="node"><title>ExpConst2</title>
<ellipse fill="none" stroke="black" cx="884.645" cy="-90" rx="50.0912" ry="18"/>
<text text-anchor="middle" x="884.645" y="-86.3" font-family="Times,serif" font-size="14.00">ExpConst2</text>
</g>
<!-- ExpBinary2&#45;&gt;ExpConst2 -->
<g id="edge49" class="edge"><title>ExpBinary2&#45;&gt;ExpConst2</title>
<path fill="none" stroke="black" d="M761.071,-147.17C785.272,-136.17 819.306,-120.7 845.531,-108.779"/>
<polygon fill="black" stroke="black" points="847.152,-111.887 854.807,-104.563 844.255,-105.515 847.152,-111.887"/>
</g>
<!-- Temp4: T336 -->
<g id="node53" class="node"><title>Temp4: T336</title>
<ellipse fill="none" stroke="black" cx="861.645" cy="-162" rx="59.5901" ry="18"/>
<text text-anchor="middle" x="861.645" y="-158.3" font-family="Times,serif" font-size="14.00">Temp4: T336</text>
</g>
<!-- ExpTemp4&#45;&gt;Temp4: T336 -->
<g id="edge51" class="edge"><title>ExpTemp4&#45;&gt;Temp4: T336</title>
<path fill="none" stroke="black" d="M869.173,-215.697C868.071,-207.983 866.747,-198.712 865.519,-190.112"/>
<polygon fill="black" stroke="black" points="868.968,-189.509 864.089,-180.104 862.038,-190.499 868.968,-189.509"/>
</g>
<!-- Temp5: T323 -->
<g id="node58" class="node"><title>Temp5: T323</title>
<ellipse fill="none" stroke="black" cx="999.645" cy="-162" rx="59.5901" ry="18"/>
<text text-anchor="middle" x="999.645" y="-158.3" font-family="Times,serif" font-size="14.00">Temp5: T323</text>
</g>
<!-- ExpTemp5&#45;&gt;Temp5: T323 -->
<g id="edge55" class="edge"><title>ExpTemp5&#45;&gt;Temp5: T323</title>
<path fill="none" stroke="black" d="M999.645,-215.697C999.645,-207.983 999.645,-198.712 999.645,-190.112"/>
<polygon fill="black" stroke="black" points="1003.15,-190.104 999.645,-180.104 996.145,-190.104 1003.15,-190.104"/>
</g>
<!-- Temp3: $fp -->
<g id="node49" class="node"><title>Temp3: $fp</title>
<ellipse fill="none" stroke="black" cx="687.645" cy="-18" rx="52.7911" ry="18"/>
<text text-anchor="middle" x="687.645" y="-14.3" font-family="Times,serif" font-size="14.00">Temp3: $fp</text>
</g>
<!-- ExpTemp3&#45;&gt;Temp3: $fp -->
<g id="edge46" class="edge"><title>ExpTemp3&#45;&gt;Temp3: $fp</title>
<path fill="none" stroke="black" d="M686.893,-71.6966C687.003,-63.9827 687.135,-54.7125 687.258,-46.1124"/>
<polygon fill="black" stroke="black" points="690.758,-46.1533 687.401,-36.1043 683.758,-46.0533 690.758,-46.1533"/>
</g>
<!-- Value2: 20 -->
<g id="node54" class="node"><title>Value2: 20</title>
<ellipse fill="none" stroke="black" cx="884.645" cy="-18" rx="50.0912" ry="18"/>
<text text-anchor="middle" x="884.645" y="-14.3" font-family="Times,serif" font-size="14.00">Value2: 20</text>
</g>
<!-- ExpConst2&#45;&gt;Value2: 20 -->
<g id="edge52" class="edge"><title>ExpConst2&#45;&gt;Value2: 20</title>
<path fill="none" stroke="black" d="M884.645,-71.6966C884.645,-63.9827 884.645,-54.7125 884.645,-46.1124"/>
<polygon fill="black" stroke="black" points="888.145,-46.1043 884.645,-36.1043 881.145,-46.1044 888.145,-46.1043"/>
</g>
<!-- Temp6: T335 -->
<g id="node56" class="node"><title>Temp6: T335</title>
<ellipse fill="none" stroke="black" cx="1137.65" cy="-162" rx="59.5901" ry="18"/>
<text text-anchor="middle" x="1137.65" y="-158.3" font-family="Times,serif" font-size="14.00">Temp6: T335</text>
</g>
<!-- ExpTemp6&#45;&gt;Temp6: T335 -->
<g id="edge53" class="edge"><title>ExpTemp6&#45;&gt;Temp6: T335</title>
<path fill="none" stroke="black" d="M1137.65,-215.697C1137.65,-207.983 1137.65,-198.712 1137.65,-190.112"/>
<polygon fill="black" stroke="black" points="1141.15,-190.104 1137.65,-180.104 1134.15,-190.104 1141.15,-190.104"/>
</g>
</g>
</svg>
