<?xml version="1.0" encoding="UTF-8" standalone="no"?>
<!DOCTYPE svg PUBLIC "-//W3C//DTD SVG 1.1//EN"
 "http://www.w3.org/Graphics/SVG/1.1/DTD/svg11.dtd">
<!-- Generated by graphviz version 2.38.0 (20140413.2041)
 -->
<!-- Title: %3 Pages: 1 -->
<svg width="2376pt" height="404pt"
 viewBox="0.00 0.00 2375.59 404.00" xmlns="http://www.w3.org/2000/svg" xmlns:xlink="http://www.w3.org/1999/xlink">
<g id="graph0" class="graph" transform="scale(1 1) rotate(0) translate(4 400)">
<title>%3</title>
<polygon fill="white" stroke="none" points="-4,4 -4,-400 2371.59,-400 2371.59,4 -4,4"/>
<!-- ExpTemp13 -->
<g id="node1" class="node"><title>ExpTemp13</title>
<ellipse fill="none" stroke="black" cx="2186.65" cy="-234" rx="54.6905" ry="18"/>
<text text-anchor="middle" x="2186.65" y="-230.3" font-family="Times,serif" font-size="14.00">ExpTemp13</text>
</g>
<!-- Temp13: T404 -->
<g id="node2" class="node"><title>Temp13: T404</title>
<ellipse fill="none" stroke="black" cx="2266.65" cy="-162" rx="63.8893" ry="18"/>
<text text-anchor="middle" x="2266.65" y="-158.3" font-family="Times,serif" font-size="14.00">Temp13: T404</text>
</g>
<!-- ExpTemp13&#45;&gt;Temp13: T404 -->
<g id="edge1" class="edge"><title>ExpTemp13&#45;&gt;Temp13: T404</title>
<path fill="none" stroke="black" d="M2205.2,-216.765C2215.63,-207.642 2228.81,-196.105 2240.29,-186.059"/>
<polygon fill="black" stroke="black" points="2242.69,-188.609 2247.91,-179.39 2238.08,-183.341 2242.69,-188.609"/>
</g>
<!-- StatMove6 -->
<g id="node3" class="node"><title>StatMove6</title>
<ellipse fill="none" stroke="black" cx="2059.65" cy="-306" rx="50.0912" ry="18"/>
<text text-anchor="middle" x="2059.65" y="-302.3" font-family="Times,serif" font-size="14.00">StatMove6</text>
</g>
<!-- StatMove6&#45;&gt;ExpTemp13 -->
<g id="edge3" class="edge"><title>StatMove6&#45;&gt;ExpTemp13</title>
<path fill="none" stroke="black" d="M2085.96,-290.496C2104.82,-280.101 2130.44,-265.981 2151.11,-254.585"/>
<polygon fill="black" stroke="black" points="2152.86,-257.619 2159.93,-249.726 2149.48,-251.488 2152.86,-257.619"/>
</g>
<!-- ExpTemp12 -->
<g id="node4" class="node"><title>ExpTemp12</title>
<ellipse fill="none" stroke="black" cx="2059.65" cy="-234" rx="54.6905" ry="18"/>
<text text-anchor="middle" x="2059.65" y="-230.3" font-family="Times,serif" font-size="14.00">ExpTemp12</text>
</g>
<!-- StatMove6&#45;&gt;ExpTemp12 -->
<g id="edge2" class="edge"><title>StatMove6&#45;&gt;ExpTemp12</title>
<path fill="none" stroke="black" d="M2059.65,-287.697C2059.65,-279.983 2059.65,-270.712 2059.65,-262.112"/>
<polygon fill="black" stroke="black" points="2063.15,-262.104 2059.65,-252.104 2056.15,-262.104 2063.15,-262.104"/>
</g>
<!-- Temp12: T426 -->
<g id="node47" class="node"><title>Temp12: T426</title>
<ellipse fill="none" stroke="black" cx="2121.65" cy="-162" rx="63.8893" ry="18"/>
<text text-anchor="middle" x="2121.65" y="-158.3" font-family="Times,serif" font-size="14.00">Temp12: T426</text>
</g>
<!-- ExpTemp12&#45;&gt;Temp12: T426 -->
<g id="edge43" class="edge"><title>ExpTemp12&#45;&gt;Temp12: T426</title>
<path fill="none" stroke="black" d="M2074.34,-216.411C2081.95,-207.82 2091.39,-197.159 2099.83,-187.627"/>
<polygon fill="black" stroke="black" points="2102.62,-189.763 2106.63,-179.956 2097.38,-185.121 2102.62,-189.763"/>
</g>
<!-- ExpList0 -->
<g id="node5" class="node"><title>ExpList0</title>
<ellipse fill="none" stroke="black" cx="1996.65" cy="-162" rx="42.7926" ry="18"/>
<text text-anchor="middle" x="1996.65" y="-158.3" font-family="Times,serif" font-size="14.00">ExpList0</text>
</g>
<!-- ExpTemp11 -->
<g id="node6" class="node"><title>ExpTemp11</title>
<ellipse fill="none" stroke="black" cx="2006.65" cy="-90" rx="54.6905" ry="18"/>
<text text-anchor="middle" x="2006.65" y="-86.3" font-family="Times,serif" font-size="14.00">ExpTemp11</text>
</g>
<!-- ExpList0&#45;&gt;ExpTemp11 -->
<g id="edge4" class="edge"><title>ExpList0&#45;&gt;ExpTemp11</title>
<path fill="none" stroke="black" d="M1999.12,-143.697C2000.22,-135.983 2001.54,-126.712 2002.77,-118.112"/>
<polygon fill="black" stroke="black" points="2006.25,-118.499 2004.2,-108.104 1999.32,-117.509 2006.25,-118.499"/>
</g>
<!-- Temp11: T424 -->
<g id="node64" class="node"><title>Temp11: T424</title>
<ellipse fill="none" stroke="black" cx="2006.65" cy="-18" rx="63.8893" ry="18"/>
<text text-anchor="middle" x="2006.65" y="-14.3" font-family="Times,serif" font-size="14.00">Temp11: T424</text>
</g>
<!-- ExpTemp11&#45;&gt;Temp11: T424 -->
<g id="edge61" class="edge"><title>ExpTemp11&#45;&gt;Temp11: T424</title>
<path fill="none" stroke="black" d="M2006.65,-71.6966C2006.65,-63.9827 2006.65,-54.7125 2006.65,-46.1124"/>
<polygon fill="black" stroke="black" points="2010.15,-46.1043 2006.65,-36.1043 2003.15,-46.1044 2010.15,-46.1043"/>
</g>
<!-- ExpTemp9 -->
<g id="node7" class="node"><title>ExpTemp9</title>
<ellipse fill="none" stroke="black" cx="1749.65" cy="-234" rx="50.0912" ry="18"/>
<text text-anchor="middle" x="1749.65" y="-230.3" font-family="Times,serif" font-size="14.00">ExpTemp9</text>
</g>
<!-- Temp9: T425 -->
<g id="node8" class="node"><title>Temp9: T425</title>
<ellipse fill="none" stroke="black" cx="1749.65" cy="-162" rx="59.5901" ry="18"/>
<text text-anchor="middle" x="1749.65" y="-158.3" font-family="Times,serif" font-size="14.00">Temp9: T425</text>
</g>
<!-- ExpTemp9&#45;&gt;Temp9: T425 -->
<g id="edge5" class="edge"><title>ExpTemp9&#45;&gt;Temp9: T425</title>
<path fill="none" stroke="black" d="M1749.65,-215.697C1749.65,-207.983 1749.65,-198.712 1749.65,-190.112"/>
<polygon fill="black" stroke="black" points="1753.15,-190.104 1749.65,-180.104 1746.15,-190.104 1753.15,-190.104"/>
</g>
<!-- ExpMem3 -->
<g id="node9" class="node"><title>ExpMem3</title>
<ellipse fill="none" stroke="black" cx="1611.65" cy="-234" rx="48.9926" ry="18"/>
<text text-anchor="middle" x="1611.65" y="-230.3" font-family="Times,serif" font-size="14.00">ExpMem3</text>
</g>
<!-- ExpBinary3 -->
<g id="node10" class="node"><title>ExpBinary3</title>
<ellipse fill="none" stroke="black" cx="1618.65" cy="-162" rx="53.0913" ry="18"/>
<text text-anchor="middle" x="1618.65" y="-158.3" font-family="Times,serif" font-size="14.00">ExpBinary3</text>
</g>
<!-- ExpMem3&#45;&gt;ExpBinary3 -->
<g id="edge6" class="edge"><title>ExpMem3&#45;&gt;ExpBinary3</title>
<path fill="none" stroke="black" d="M1613.38,-215.697C1614.15,-207.983 1615.07,-198.712 1615.93,-190.112"/>
<polygon fill="black" stroke="black" points="1619.42,-190.403 1616.93,-180.104 1612.46,-189.706 1619.42,-190.403"/>
</g>
<!-- ExpConst3 -->
<g id="node11" class="node"><title>ExpConst3</title>
<ellipse fill="none" stroke="black" cx="1717.65" cy="-90" rx="50.0912" ry="18"/>
<text text-anchor="middle" x="1717.65" y="-86.3" font-family="Times,serif" font-size="14.00">ExpConst3</text>
</g>
<!-- ExpBinary3&#45;&gt;ExpConst3 -->
<g id="edge10" class="edge"><title>ExpBinary3&#45;&gt;ExpConst3</title>
<path fill="none" stroke="black" d="M1640.62,-145.465C1654.43,-135.7 1672.43,-122.972 1687.55,-112.276"/>
<polygon fill="black" stroke="black" points="1689.93,-114.882 1696.08,-106.251 1685.89,-109.167 1689.93,-114.882"/>
</g>
<!-- ExpTemp8 -->
<g id="node13" class="node"><title>ExpTemp8</title>
<ellipse fill="none" stroke="black" cx="1519.65" cy="-90" rx="50.0912" ry="18"/>
<text text-anchor="middle" x="1519.65" y="-86.3" font-family="Times,serif" font-size="14.00">ExpTemp8</text>
</g>
<!-- ExpBinary3&#45;&gt;ExpTemp8 -->
<g id="edge8" class="edge"><title>ExpBinary3&#45;&gt;ExpTemp8</title>
<path fill="none" stroke="black" d="M1596.67,-145.465C1582.86,-135.7 1564.86,-122.972 1549.74,-112.276"/>
<polygon fill="black" stroke="black" points="1551.4,-109.167 1541.21,-106.251 1547.36,-114.882 1551.4,-109.167"/>
</g>
<!-- Plus3 -->
<g id="node14" class="node"><title>Plus3</title>
<ellipse fill="none" stroke="black" cx="1618.65" cy="-90" rx="30.5947" ry="18"/>
<text text-anchor="middle" x="1618.65" y="-86.3" font-family="Times,serif" font-size="14.00">Plus3</text>
</g>
<!-- ExpBinary3&#45;&gt;Plus3 -->
<g id="edge9" class="edge"><title>ExpBinary3&#45;&gt;Plus3</title>
<path fill="none" stroke="black" d="M1618.65,-143.697C1618.65,-135.983 1618.65,-126.712 1618.65,-118.112"/>
<polygon fill="black" stroke="black" points="1622.15,-118.104 1618.65,-108.104 1615.15,-118.104 1622.15,-118.104"/>
</g>
<!-- Value3: 20 -->
<g id="node12" class="node"><title>Value3: 20</title>
<ellipse fill="none" stroke="black" cx="1717.65" cy="-18" rx="50.0912" ry="18"/>
<text text-anchor="middle" x="1717.65" y="-14.3" font-family="Times,serif" font-size="14.00">Value3: 20</text>
</g>
<!-- ExpConst3&#45;&gt;Value3: 20 -->
<g id="edge7" class="edge"><title>ExpConst3&#45;&gt;Value3: 20</title>
<path fill="none" stroke="black" d="M1717.65,-71.6966C1717.65,-63.9827 1717.65,-54.7125 1717.65,-46.1124"/>
<polygon fill="black" stroke="black" points="1721.15,-46.1043 1717.65,-36.1043 1714.15,-46.1044 1721.15,-46.1043"/>
</g>
<!-- Temp8: $fp -->
<g id="node21" class="node"><title>Temp8: $fp</title>
<ellipse fill="none" stroke="black" cx="1519.65" cy="-18" rx="52.7911" ry="18"/>
<text text-anchor="middle" x="1519.65" y="-14.3" font-family="Times,serif" font-size="14.00">Temp8: $fp</text>
</g>
<!-- ExpTemp8&#45;&gt;Temp8: $fp -->
<g id="edge15" class="edge"><title>ExpTemp8&#45;&gt;Temp8: $fp</title>
<path fill="none" stroke="black" d="M1519.65,-71.6966C1519.65,-63.9827 1519.65,-54.7125 1519.65,-46.1124"/>
<polygon fill="black" stroke="black" points="1523.15,-46.1043 1519.65,-36.1043 1516.15,-46.1044 1523.15,-46.1043"/>
</g>
<!-- ExpName0 -->
<g id="node15" class="node"><title>ExpName0</title>
<ellipse fill="none" stroke="black" cx="1298.65" cy="-234" rx="50.8918" ry="18"/>
<text text-anchor="middle" x="1298.65" y="-230.3" font-family="Times,serif" font-size="14.00">ExpName0</text>
</g>
<!-- Label1: Tree@GetRight -->
<g id="node16" class="node"><title>Label1: Tree@GetRight</title>
<ellipse fill="none" stroke="black" cx="1312.65" cy="-162" rx="96.6831" ry="18"/>
<text text-anchor="middle" x="1312.65" y="-158.3" font-family="Times,serif" font-size="14.00">Label1: Tree@GetRight</text>
</g>
<!-- ExpName0&#45;&gt;Label1: Tree@GetRight -->
<g id="edge11" class="edge"><title>ExpName0&#45;&gt;Label1: Tree@GetRight</title>
<path fill="none" stroke="black" d="M1302.11,-215.697C1303.65,-207.983 1305.5,-198.712 1307.22,-190.112"/>
<polygon fill="black" stroke="black" points="1310.7,-190.597 1309.22,-180.104 1303.83,-189.224 1310.7,-190.597"/>
</g>
<!-- StatMove5 -->
<g id="node17" class="node"><title>StatMove5</title>
<ellipse fill="none" stroke="black" cx="1749.65" cy="-306" rx="50.0912" ry="18"/>
<text text-anchor="middle" x="1749.65" y="-302.3" font-family="Times,serif" font-size="14.00">StatMove5</text>
</g>
<!-- StatMove5&#45;&gt;ExpTemp9 -->
<g id="edge12" class="edge"><title>StatMove5&#45;&gt;ExpTemp9</title>
<path fill="none" stroke="black" d="M1749.65,-287.697C1749.65,-279.983 1749.65,-270.712 1749.65,-262.112"/>
<polygon fill="black" stroke="black" points="1753.15,-262.104 1749.65,-252.104 1746.15,-262.104 1753.15,-262.104"/>
</g>
<!-- ExpCall0 -->
<g id="node18" class="node"><title>ExpCall0</title>
<ellipse fill="none" stroke="black" cx="1881.65" cy="-234" rx="44.393" ry="18"/>
<text text-anchor="middle" x="1881.65" y="-230.3" font-family="Times,serif" font-size="14.00">ExpCall0</text>
</g>
<!-- StatMove5&#45;&gt;ExpCall0 -->
<g id="edge13" class="edge"><title>StatMove5&#45;&gt;ExpCall0</title>
<path fill="none" stroke="black" d="M1776.68,-290.666C1796.87,-279.956 1824.65,-265.224 1846.56,-253.606"/>
<polygon fill="black" stroke="black" points="1848.36,-256.615 1855.55,-248.838 1845.08,-250.431 1848.36,-256.615"/>
</g>
<!-- ExpCall0&#45;&gt;ExpList0 -->
<g id="edge39" class="edge"><title>ExpCall0&#45;&gt;ExpList0</title>
<path fill="none" stroke="black" d="M1905.19,-218.666C1922.33,-208.237 1945.72,-193.996 1964.56,-182.529"/>
<polygon fill="black" stroke="black" points="1966.41,-185.505 1973.13,-177.315 1962.77,-179.525 1966.41,-185.505"/>
</g>
<!-- ExpTemp10 -->
<g id="node45" class="node"><title>ExpTemp10</title>
<ellipse fill="none" stroke="black" cx="1881.65" cy="-162" rx="54.6905" ry="18"/>
<text text-anchor="middle" x="1881.65" y="-158.3" font-family="Times,serif" font-size="14.00">ExpTemp10</text>
</g>
<!-- ExpCall0&#45;&gt;ExpTemp10 -->
<g id="edge38" class="edge"><title>ExpCall0&#45;&gt;ExpTemp10</title>
<path fill="none" stroke="black" d="M1881.65,-215.697C1881.65,-207.983 1881.65,-198.712 1881.65,-190.112"/>
<polygon fill="black" stroke="black" points="1885.15,-190.104 1881.65,-180.104 1878.15,-190.104 1885.15,-190.104"/>
</g>
<!-- ExpConst1 -->
<g id="node19" class="node"><title>ExpConst1</title>
<ellipse fill="none" stroke="black" cx="567.645" cy="-90" rx="50.0912" ry="18"/>
<text text-anchor="middle" x="567.645" y="-86.3" font-family="Times,serif" font-size="14.00">ExpConst1</text>
</g>
<!-- Value1: 20 -->
<g id="node20" class="node"><title>Value1: 20</title>
<ellipse fill="none" stroke="black" cx="566.645" cy="-18" rx="50.0912" ry="18"/>
<text text-anchor="middle" x="566.645" y="-14.3" font-family="Times,serif" font-size="14.00">Value1: 20</text>
</g>
<!-- ExpConst1&#45;&gt;Value1: 20 -->
<g id="edge14" class="edge"><title>ExpConst1&#45;&gt;Value1: 20</title>
<path fill="none" stroke="black" d="M567.398,-71.6966C567.288,-63.9827 567.156,-54.7125 567.033,-46.1124"/>
<polygon fill="black" stroke="black" points="570.532,-46.0533 566.89,-36.1043 563.533,-46.1533 570.532,-46.0533"/>
</g>
<!-- StatMove1 -->
<g id="node22" class="node"><title>StatMove1</title>
<ellipse fill="none" stroke="black" cx="730.645" cy="-306" rx="50.0912" ry="18"/>
<text text-anchor="middle" x="730.645" y="-302.3" font-family="Times,serif" font-size="14.00">StatMove1</text>
</g>
<!-- ExpTemp2 -->
<g id="node23" class="node"><title>ExpTemp2</title>
<ellipse fill="none" stroke="black" cx="606.645" cy="-234" rx="50.0912" ry="18"/>
<text text-anchor="middle" x="606.645" y="-230.3" font-family="Times,serif" font-size="14.00">ExpTemp2</text>
</g>
<!-- StatMove1&#45;&gt;ExpTemp2 -->
<g id="edge16" class="edge"><title>StatMove1&#45;&gt;ExpTemp2</title>
<path fill="none" stroke="black" d="M704.952,-290.496C686.497,-280.078 661.416,-265.919 641.206,-254.51"/>
<polygon fill="black" stroke="black" points="642.734,-251.354 632.305,-249.485 639.293,-257.449 642.734,-251.354"/>
</g>
<!-- ExpMem2 -->
<g id="node24" class="node"><title>ExpMem2</title>
<ellipse fill="none" stroke="black" cx="730.645" cy="-234" rx="48.9926" ry="18"/>
<text text-anchor="middle" x="730.645" y="-230.3" font-family="Times,serif" font-size="14.00">ExpMem2</text>
</g>
<!-- StatMove1&#45;&gt;ExpMem2 -->
<g id="edge17" class="edge"><title>StatMove1&#45;&gt;ExpMem2</title>
<path fill="none" stroke="black" d="M730.645,-287.697C730.645,-279.983 730.645,-270.712 730.645,-262.112"/>
<polygon fill="black" stroke="black" points="734.145,-262.104 730.645,-252.104 727.145,-262.104 734.145,-262.104"/>
</g>
<!-- Temp2: T426 -->
<g id="node50" class="node"><title>Temp2: T426</title>
<ellipse fill="none" stroke="black" cx="599.645" cy="-162" rx="59.5901" ry="18"/>
<text text-anchor="middle" x="599.645" y="-158.3" font-family="Times,serif" font-size="14.00">Temp2: T426</text>
</g>
<!-- ExpTemp2&#45;&gt;Temp2: T426 -->
<g id="edge48" class="edge"><title>ExpTemp2&#45;&gt;Temp2: T426</title>
<path fill="none" stroke="black" d="M604.915,-215.697C604.144,-207.983 603.217,-198.712 602.357,-190.112"/>
<polygon fill="black" stroke="black" points="605.834,-189.706 601.356,-180.104 598.868,-190.403 605.834,-189.706"/>
</g>
<!-- ExpBinary2 -->
<g id="node46" class="node"><title>ExpBinary2</title>
<ellipse fill="none" stroke="black" cx="730.645" cy="-162" rx="53.0913" ry="18"/>
<text text-anchor="middle" x="730.645" y="-158.3" font-family="Times,serif" font-size="14.00">ExpBinary2</text>
</g>
<!-- ExpMem2&#45;&gt;ExpBinary2 -->
<g id="edge40" class="edge"><title>ExpMem2&#45;&gt;ExpBinary2</title>
<path fill="none" stroke="black" d="M730.645,-215.697C730.645,-207.983 730.645,-198.712 730.645,-190.112"/>
<polygon fill="black" stroke="black" points="734.145,-190.104 730.645,-180.104 727.145,-190.104 734.145,-190.104"/>
</g>
<!-- ExpBinary1 -->
<g id="node25" class="node"><title>ExpBinary1</title>
<ellipse fill="none" stroke="black" cx="468.645" cy="-162" rx="53.0913" ry="18"/>
<text text-anchor="middle" x="468.645" y="-158.3" font-family="Times,serif" font-size="14.00">ExpBinary1</text>
</g>
<!-- ExpBinary1&#45;&gt;ExpConst1 -->
<g id="edge20" class="edge"><title>ExpBinary1&#45;&gt;ExpConst1</title>
<path fill="none" stroke="black" d="M490.617,-145.465C504.426,-135.7 522.427,-122.972 537.555,-112.276"/>
<polygon fill="black" stroke="black" points="539.932,-114.882 546.076,-106.251 535.89,-109.167 539.932,-114.882"/>
</g>
<!-- ExpTemp1 -->
<g id="node26" class="node"><title>ExpTemp1</title>
<ellipse fill="none" stroke="black" cx="369.645" cy="-90" rx="50.0912" ry="18"/>
<text text-anchor="middle" x="369.645" y="-86.3" font-family="Times,serif" font-size="14.00">ExpTemp1</text>
</g>
<!-- ExpBinary1&#45;&gt;ExpTemp1 -->
<g id="edge18" class="edge"><title>ExpBinary1&#45;&gt;ExpTemp1</title>
<path fill="none" stroke="black" d="M446.674,-145.465C432.864,-135.7 414.863,-122.972 399.736,-112.276"/>
<polygon fill="black" stroke="black" points="401.4,-109.167 391.215,-106.251 397.359,-114.882 401.4,-109.167"/>
</g>
<!-- Plus1 -->
<g id="node27" class="node"><title>Plus1</title>
<ellipse fill="none" stroke="black" cx="468.645" cy="-90" rx="30.5947" ry="18"/>
<text text-anchor="middle" x="468.645" y="-86.3" font-family="Times,serif" font-size="14.00">Plus1</text>
</g>
<!-- ExpBinary1&#45;&gt;Plus1 -->
<g id="edge19" class="edge"><title>ExpBinary1&#45;&gt;Plus1</title>
<path fill="none" stroke="black" d="M468.645,-143.697C468.645,-135.983 468.645,-126.712 468.645,-118.112"/>
<polygon fill="black" stroke="black" points="472.145,-118.104 468.645,-108.104 465.145,-118.104 472.145,-118.104"/>
</g>
<!-- Temp1: $fp -->
<g id="node62" class="node"><title>Temp1: $fp</title>
<ellipse fill="none" stroke="black" cx="370.645" cy="-18" rx="52.7911" ry="18"/>
<text text-anchor="middle" x="370.645" y="-14.3" font-family="Times,serif" font-size="14.00">Temp1: $fp</text>
</g>
<!-- ExpTemp1&#45;&gt;Temp1: $fp -->
<g id="edge59" class="edge"><title>ExpTemp1&#45;&gt;Temp1: $fp</title>
<path fill="none" stroke="black" d="M369.893,-71.6966C370.003,-63.9827 370.135,-54.7125 370.258,-46.1124"/>
<polygon fill="black" stroke="black" points="373.758,-46.1533 370.401,-36.1043 366.758,-46.0533 373.758,-46.1533"/>
</g>
<!-- StatMove4 -->
<g id="node28" class="node"><title>StatMove4</title>
<ellipse fill="none" stroke="black" cx="1487.65" cy="-306" rx="50.0912" ry="18"/>
<text text-anchor="middle" x="1487.65" y="-302.3" font-family="Times,serif" font-size="14.00">StatMove4</text>
</g>
<!-- StatMove4&#45;&gt;ExpMem3 -->
<g id="edge22" class="edge"><title>StatMove4&#45;&gt;ExpMem3</title>
<path fill="none" stroke="black" d="M1513.34,-290.496C1531.79,-280.078 1556.87,-265.919 1577.08,-254.51"/>
<polygon fill="black" stroke="black" points="1579,-257.449 1585.99,-249.485 1575.56,-251.354 1579,-257.449"/>
</g>
<!-- ExpTemp7 -->
<g id="node29" class="node"><title>ExpTemp7</title>
<ellipse fill="none" stroke="black" cx="1487.65" cy="-234" rx="50.0912" ry="18"/>
<text text-anchor="middle" x="1487.65" y="-230.3" font-family="Times,serif" font-size="14.00">ExpTemp7</text>
</g>
<!-- StatMove4&#45;&gt;ExpTemp7 -->
<g id="edge21" class="edge"><title>StatMove4&#45;&gt;ExpTemp7</title>
<path fill="none" stroke="black" d="M1487.65,-287.697C1487.65,-279.983 1487.65,-270.712 1487.65,-262.112"/>
<polygon fill="black" stroke="black" points="1491.15,-262.104 1487.65,-252.104 1484.15,-262.104 1491.15,-262.104"/>
</g>
<!-- Temp7: T424 -->
<g id="node57" class="node"><title>Temp7: T424</title>
<ellipse fill="none" stroke="black" cx="1487.65" cy="-162" rx="59.5901" ry="18"/>
<text text-anchor="middle" x="1487.65" y="-158.3" font-family="Times,serif" font-size="14.00">Temp7: T424</text>
</g>
<!-- ExpTemp7&#45;&gt;Temp7: T424 -->
<g id="edge55" class="edge"><title>ExpTemp7&#45;&gt;Temp7: T424</title>
<path fill="none" stroke="black" d="M1487.65,-215.697C1487.65,-207.983 1487.65,-198.712 1487.65,-190.112"/>
<polygon fill="black" stroke="black" points="1491.15,-190.104 1487.65,-180.104 1484.15,-190.104 1491.15,-190.104"/>
</g>
<!-- ExpMem0 -->
<g id="node30" class="node"><title>ExpMem0</title>
<ellipse fill="none" stroke="black" cx="360.645" cy="-234" rx="48.9926" ry="18"/>
<text text-anchor="middle" x="360.645" y="-230.3" font-family="Times,serif" font-size="14.00">ExpMem0</text>
</g>
<!-- ExpBinary0 -->
<g id="node31" class="node"><title>ExpBinary0</title>
<ellipse fill="none" stroke="black" cx="201.645" cy="-162" rx="53.0913" ry="18"/>
<text text-anchor="middle" x="201.645" y="-158.3" font-family="Times,serif" font-size="14.00">ExpBinary0</text>
</g>
<!-- ExpMem0&#45;&gt;ExpBinary0 -->
<g id="edge23" class="edge"><title>ExpMem0&#45;&gt;ExpBinary0</title>
<path fill="none" stroke="black" d="M330.364,-219.669C305.379,-208.669 269.699,-192.961 242.239,-180.872"/>
<polygon fill="black" stroke="black" points="243.463,-177.586 232.9,-176.76 240.642,-183.993 243.463,-177.586"/>
</g>
<!-- ExpConst0 -->
<g id="node32" class="node"><title>ExpConst0</title>
<ellipse fill="none" stroke="black" cx="250.645" cy="-90" rx="50.0912" ry="18"/>
<text text-anchor="middle" x="250.645" y="-86.3" font-family="Times,serif" font-size="14.00">ExpConst0</text>
</g>
<!-- ExpBinary0&#45;&gt;ExpConst0 -->
<g id="edge46" class="edge"><title>ExpBinary0&#45;&gt;ExpConst0</title>
<path fill="none" stroke="black" d="M213.258,-144.411C219.151,-135.992 226.436,-125.585 233.005,-116.201"/>
<polygon fill="black" stroke="black" points="235.909,-118.156 238.776,-107.956 230.174,-114.141 235.909,-118.156"/>
</g>
<!-- ExpTemp0 -->
<g id="node42" class="node"><title>ExpTemp0</title>
<ellipse fill="none" stroke="black" cx="52.6453" cy="-90" rx="50.0912" ry="18"/>
<text text-anchor="middle" x="52.6453" y="-86.3" font-family="Times,serif" font-size="14.00">ExpTemp0</text>
</g>
<!-- ExpBinary0&#45;&gt;ExpTemp0 -->
<g id="edge44" class="edge"><title>ExpBinary0&#45;&gt;ExpTemp0</title>
<path fill="none" stroke="black" d="M171.851,-147.003C148.657,-136.106 116.289,-120.9 91.1339,-109.082"/>
<polygon fill="black" stroke="black" points="92.4194,-105.819 81.8802,-104.734 89.4429,-112.155 92.4194,-105.819"/>
</g>
<!-- Plus0 -->
<g id="node48" class="node"><title>Plus0</title>
<ellipse fill="none" stroke="black" cx="151.645" cy="-90" rx="30.5947" ry="18"/>
<text text-anchor="middle" x="151.645" y="-86.3" font-family="Times,serif" font-size="14.00">Plus0</text>
</g>
<!-- ExpBinary0&#45;&gt;Plus0 -->
<g id="edge45" class="edge"><title>ExpBinary0&#45;&gt;Plus0</title>
<path fill="none" stroke="black" d="M189.796,-144.411C183.605,-135.744 175.91,-124.971 169.056,-115.375"/>
<polygon fill="black" stroke="black" points="171.726,-113.091 163.065,-106.988 166.03,-117.16 171.726,-113.091"/>
</g>
<!-- Value0: 28 -->
<g id="node33" class="node"><title>Value0: 28</title>
<ellipse fill="none" stroke="black" cx="249.645" cy="-18" rx="50.0912" ry="18"/>
<text text-anchor="middle" x="249.645" y="-14.3" font-family="Times,serif" font-size="14.00">Value0: 28</text>
</g>
<!-- ExpConst0&#45;&gt;Value0: 28 -->
<g id="edge24" class="edge"><title>ExpConst0&#45;&gt;Value0: 28</title>
<path fill="none" stroke="black" d="M250.398,-71.6966C250.288,-63.9827 250.156,-54.7125 250.033,-46.1124"/>
<polygon fill="black" stroke="black" points="253.532,-46.0533 249.89,-36.1043 246.533,-46.1533 253.532,-46.0533"/>
</g>
<!-- ExpMem1 -->
<g id="node34" class="node"><title>ExpMem1</title>
<ellipse fill="none" stroke="black" cx="475.645" cy="-234" rx="48.9926" ry="18"/>
<text text-anchor="middle" x="475.645" y="-230.3" font-family="Times,serif" font-size="14.00">ExpMem1</text>
</g>
<!-- ExpMem1&#45;&gt;ExpBinary1 -->
<g id="edge25" class="edge"><title>ExpMem1&#45;&gt;ExpBinary1</title>
<path fill="none" stroke="black" d="M473.915,-215.697C473.144,-207.983 472.217,-198.712 471.357,-190.112"/>
<polygon fill="black" stroke="black" points="474.834,-189.706 470.356,-180.104 467.868,-190.403 474.834,-189.706"/>
</g>
<!-- StatLabel0 -->
<g id="node35" class="node"><title>StatLabel0</title>
<ellipse fill="none" stroke="black" cx="299.645" cy="-306" rx="48.9926" ry="18"/>
<text text-anchor="middle" x="299.645" y="-302.3" font-family="Times,serif" font-size="14.00">StatLabel0</text>
</g>
<!-- Label0: L21 -->
<g id="node36" class="node"><title>Label0: L21</title>
<ellipse fill="none" stroke="black" cx="239.645" cy="-234" rx="53.8905" ry="18"/>
<text text-anchor="middle" x="239.645" y="-230.3" font-family="Times,serif" font-size="14.00">Label0: L21</text>
</g>
<!-- StatLabel0&#45;&gt;Label0: L21 -->
<g id="edge26" class="edge"><title>StatLabel0&#45;&gt;Label0: L21</title>
<path fill="none" stroke="black" d="M285.426,-288.411C277.954,-279.693 268.656,-268.845 260.395,-259.208"/>
<polygon fill="black" stroke="black" points="262.928,-256.785 253.762,-251.47 257.613,-261.34 262.928,-256.785"/>
</g>
<!-- StatList0 -->
<g id="node37" class="node"><title>StatList0</title>
<ellipse fill="none" stroke="black" cx="1224.65" cy="-378" rx="42.4939" ry="18"/>
<text text-anchor="middle" x="1224.65" y="-374.3" font-family="Times,serif" font-size="14.00">StatList0</text>
</g>
<!-- StatList0&#45;&gt;StatMove6 -->
<g id="edge34" class="edge"><title>StatList0&#45;&gt;StatMove6</title>
<path fill="none" stroke="black" d="M1265.77,-373.553C1402.52,-362.088 1842.33,-325.218 2001.48,-311.876"/>
<polygon fill="black" stroke="black" points="2001.88,-315.355 2011.55,-311.032 2001.29,-308.38 2001.88,-315.355"/>
</g>
<!-- StatList0&#45;&gt;StatMove5 -->
<g id="edge33" class="edge"><title>StatList0&#45;&gt;StatMove5</title>
<path fill="none" stroke="black" d="M1264.54,-371.681C1357.15,-359.333 1586.93,-328.696 1693.59,-314.474"/>
<polygon fill="black" stroke="black" points="1694.07,-317.941 1703.52,-313.15 1693.15,-311.002 1694.07,-317.941"/>
</g>
<!-- StatList0&#45;&gt;StatMove1 -->
<g id="edge29" class="edge"><title>StatList0&#45;&gt;StatMove1</title>
<path fill="none" stroke="black" d="M1185.05,-371.39C1097.51,-358.985 887.287,-329.196 786.447,-314.907"/>
<polygon fill="black" stroke="black" points="786.846,-311.429 776.454,-313.491 785.864,-318.36 786.846,-311.429"/>
</g>
<!-- StatList0&#45;&gt;StatMove4 -->
<g id="edge32" class="edge"><title>StatList0&#45;&gt;StatMove4</title>
<path fill="none" stroke="black" d="M1259.57,-367.705C1305.64,-355.441 1386.97,-333.795 1439.04,-319.938"/>
<polygon fill="black" stroke="black" points="1439.96,-323.315 1448.72,-317.36 1438.16,-316.55 1439.96,-323.315"/>
</g>
<!-- StatList0&#45;&gt;StatLabel0 -->
<g id="edge27" class="edge"><title>StatList0&#45;&gt;StatLabel0</title>
<path fill="none" stroke="black" d="M1182.49,-375.407C1062.48,-370.621 708.841,-354.763 416.645,-324 395.873,-321.813 373.127,-318.679 353.26,-315.695"/>
<polygon fill="black" stroke="black" points="353.572,-312.203 343.158,-314.155 352.516,-319.123 353.572,-312.203"/>
</g>
<!-- StatMove0 -->
<g id="node38" class="node"><title>StatMove0</title>
<ellipse fill="none" stroke="black" cx="475.645" cy="-306" rx="50.0912" ry="18"/>
<text text-anchor="middle" x="475.645" y="-302.3" font-family="Times,serif" font-size="14.00">StatMove0</text>
</g>
<!-- StatList0&#45;&gt;StatMove0 -->
<g id="edge28" class="edge"><title>StatList0&#45;&gt;StatMove0</title>
<path fill="none" stroke="black" d="M1183.84,-373.187C1058.63,-361.485 679.553,-326.057 533.699,-312.426"/>
<polygon fill="black" stroke="black" points="533.889,-308.928 523.607,-311.482 533.238,-315.898 533.889,-308.928"/>
</g>
<!-- StatMove2 -->
<g id="node39" class="node"><title>StatMove2</title>
<ellipse fill="none" stroke="black" cx="999.645" cy="-306" rx="50.0912" ry="18"/>
<text text-anchor="middle" x="999.645" y="-302.3" font-family="Times,serif" font-size="14.00">StatMove2</text>
</g>
<!-- StatList0&#45;&gt;StatMove2 -->
<g id="edge30" class="edge"><title>StatList0&#45;&gt;StatMove2</title>
<path fill="none" stroke="black" d="M1191.45,-366.671C1153,-354.711 1089.42,-334.929 1046.08,-321.447"/>
<polygon fill="black" stroke="black" points="1046.94,-318.047 1036.35,-318.418 1044.86,-324.731 1046.94,-318.047"/>
</g>
<!-- StatMove3 -->
<g id="node40" class="node"><title>StatMove3</title>
<ellipse fill="none" stroke="black" cx="1224.65" cy="-306" rx="50.0912" ry="18"/>
<text text-anchor="middle" x="1224.65" y="-302.3" font-family="Times,serif" font-size="14.00">StatMove3</text>
</g>
<!-- StatList0&#45;&gt;StatMove3 -->
<g id="edge31" class="edge"><title>StatList0&#45;&gt;StatMove3</title>
<path fill="none" stroke="black" d="M1224.65,-359.697C1224.65,-351.983 1224.65,-342.712 1224.65,-334.112"/>
<polygon fill="black" stroke="black" points="1228.15,-334.104 1224.65,-324.104 1221.15,-334.104 1228.15,-334.104"/>
</g>
<!-- StatJump0 -->
<g id="node41" class="node"><title>StatJump0</title>
<ellipse fill="none" stroke="black" cx="2244.65" cy="-306" rx="48.1917" ry="18"/>
<text text-anchor="middle" x="2244.65" y="-302.3" font-family="Times,serif" font-size="14.00">StatJump0</text>
</g>
<!-- StatList0&#45;&gt;StatJump0 -->
<g id="edge35" class="edge"><title>StatList0&#45;&gt;StatJump0</title>
<path fill="none" stroke="black" d="M1266.62,-375.629C1394.65,-371.209 1791.34,-355.737 2118.65,-324 2142.46,-321.691 2168.7,-318.289 2191.04,-315.134"/>
<polygon fill="black" stroke="black" points="2191.6,-318.589 2201,-313.707 2190.61,-311.66 2191.6,-318.589"/>
</g>
<!-- StatMove0&#45;&gt;ExpMem0 -->
<g id="edge41" class="edge"><title>StatMove0&#45;&gt;ExpMem0</title>
<path fill="none" stroke="black" d="M451.257,-290.155C434.485,-279.946 412.013,-266.267 393.644,-255.086"/>
<polygon fill="black" stroke="black" points="395.361,-252.034 384.999,-249.824 391.721,-258.013 395.361,-252.034"/>
</g>
<!-- StatMove0&#45;&gt;ExpMem1 -->
<g id="edge42" class="edge"><title>StatMove0&#45;&gt;ExpMem1</title>
<path fill="none" stroke="black" d="M475.645,-287.697C475.645,-279.983 475.645,-270.712 475.645,-262.112"/>
<polygon fill="black" stroke="black" points="479.145,-262.104 475.645,-252.104 472.145,-262.104 479.145,-262.104"/>
</g>
<!-- ExpTemp4 -->
<g id="node51" class="node"><title>ExpTemp4</title>
<ellipse fill="none" stroke="black" cx="871.645" cy="-234" rx="50.0912" ry="18"/>
<text text-anchor="middle" x="871.645" y="-230.3" font-family="Times,serif" font-size="14.00">ExpTemp4</text>
</g>
<!-- StatMove2&#45;&gt;ExpTemp4 -->
<g id="edge49" class="edge"><title>StatMove2&#45;&gt;ExpTemp4</title>
<path fill="none" stroke="black" d="M973.434,-290.666C954.32,-280.213 928.2,-265.929 907.206,-254.447"/>
<polygon fill="black" stroke="black" points="908.715,-251.283 898.262,-249.556 905.356,-257.425 908.715,-251.283"/>
</g>
<!-- ExpTemp5 -->
<g id="node52" class="node"><title>ExpTemp5</title>
<ellipse fill="none" stroke="black" cx="999.645" cy="-234" rx="50.0912" ry="18"/>
<text text-anchor="middle" x="999.645" y="-230.3" font-family="Times,serif" font-size="14.00">ExpTemp5</text>
</g>
<!-- StatMove2&#45;&gt;ExpTemp5 -->
<g id="edge50" class="edge"><title>StatMove2&#45;&gt;ExpTemp5</title>
<path fill="none" stroke="black" d="M999.645,-287.697C999.645,-279.983 999.645,-270.712 999.645,-262.112"/>
<polygon fill="black" stroke="black" points="1003.15,-262.104 999.645,-252.104 996.145,-262.104 1003.15,-262.104"/>
</g>
<!-- StatMove3&#45;&gt;ExpName0 -->
<g id="edge63" class="edge"><title>StatMove3&#45;&gt;ExpName0</title>
<path fill="none" stroke="black" d="M1241.81,-288.765C1251.43,-279.665 1263.59,-268.162 1274.19,-258.134"/>
<polygon fill="black" stroke="black" points="1276.72,-260.562 1281.58,-251.147 1271.91,-255.477 1276.72,-260.562"/>
</g>
<!-- ExpTemp6 -->
<g id="node60" class="node"><title>ExpTemp6</title>
<ellipse fill="none" stroke="black" cx="1151.65" cy="-234" rx="50.0912" ry="18"/>
<text text-anchor="middle" x="1151.65" y="-230.3" font-family="Times,serif" font-size="14.00">ExpTemp6</text>
</g>
<!-- StatMove3&#45;&gt;ExpTemp6 -->
<g id="edge62" class="edge"><title>StatMove3&#45;&gt;ExpTemp6</title>
<path fill="none" stroke="black" d="M1207.71,-288.765C1198.22,-279.665 1186.23,-268.162 1175.77,-258.134"/>
<polygon fill="black" stroke="black" points="1178.12,-255.542 1168.48,-251.147 1173.28,-260.595 1178.12,-255.542"/>
</g>
<!-- Label2: L23 -->
<g id="node44" class="node"><title>Label2: L23</title>
<ellipse fill="none" stroke="black" cx="2313.65" cy="-234" rx="53.8905" ry="18"/>
<text text-anchor="middle" x="2313.65" y="-230.3" font-family="Times,serif" font-size="14.00">Label2: L23</text>
</g>
<!-- StatJump0&#45;&gt;Label2: L23 -->
<g id="edge37" class="edge"><title>StatJump0&#45;&gt;Label2: L23</title>
<path fill="none" stroke="black" d="M2260.65,-288.765C2269.4,-279.882 2280.42,-268.709 2290.13,-258.854"/>
<polygon fill="black" stroke="black" points="2292.72,-261.212 2297.25,-251.633 2287.74,-256.298 2292.72,-261.212"/>
</g>
<!-- Temp0: $fp -->
<g id="node43" class="node"><title>Temp0: $fp</title>
<ellipse fill="none" stroke="black" cx="52.6453" cy="-18" rx="52.7911" ry="18"/>
<text text-anchor="middle" x="52.6453" y="-14.3" font-family="Times,serif" font-size="14.00">Temp0: $fp</text>
</g>
<!-- ExpTemp0&#45;&gt;Temp0: $fp -->
<g id="edge36" class="edge"><title>ExpTemp0&#45;&gt;Temp0: $fp</title>
<path fill="none" stroke="black" d="M52.6453,-71.6966C52.6453,-63.9827 52.6453,-54.7125 52.6453,-46.1124"/>
<polygon fill="black" stroke="black" points="56.1454,-46.1043 52.6453,-36.1043 49.1454,-46.1044 56.1454,-46.1043"/>
</g>
<!-- Temp10: T423 -->
<g id="node49" class="node"><title>Temp10: T423</title>
<ellipse fill="none" stroke="black" cx="1870.65" cy="-90" rx="63.8893" ry="18"/>
<text text-anchor="middle" x="1870.65" y="-86.3" font-family="Times,serif" font-size="14.00">Temp10: T423</text>
</g>
<!-- ExpTemp10&#45;&gt;Temp10: T423 -->
<g id="edge47" class="edge"><title>ExpTemp10&#45;&gt;Temp10: T423</title>
<path fill="none" stroke="black" d="M1878.93,-143.697C1877.71,-135.983 1876.26,-126.712 1874.91,-118.112"/>
<polygon fill="black" stroke="black" points="1878.34,-117.44 1873.33,-108.104 1871.43,-118.526 1878.34,-117.44"/>
</g>
<!-- ExpTemp3 -->
<g id="node53" class="node"><title>ExpTemp3</title>
<ellipse fill="none" stroke="black" cx="686.645" cy="-90" rx="50.0912" ry="18"/>
<text text-anchor="middle" x="686.645" y="-86.3" font-family="Times,serif" font-size="14.00">ExpTemp3</text>
</g>
<!-- ExpBinary2&#45;&gt;ExpTemp3 -->
<g id="edge52" class="edge"><title>ExpBinary2&#45;&gt;ExpTemp3</title>
<path fill="none" stroke="black" d="M719.994,-144.055C714.806,-135.801 708.458,-125.701 702.698,-116.538"/>
<polygon fill="black" stroke="black" points="705.483,-114.393 697.198,-107.789 699.557,-118.118 705.483,-114.393"/>
</g>
<!-- Plus2 -->
<g id="node55" class="node"><title>Plus2</title>
<ellipse fill="none" stroke="black" cx="785.645" cy="-90" rx="30.5947" ry="18"/>
<text text-anchor="middle" x="785.645" y="-86.3" font-family="Times,serif" font-size="14.00">Plus2</text>
</g>
<!-- ExpBinary2&#45;&gt;Plus2 -->
<g id="edge53" class="edge"><title>ExpBinary2&#45;&gt;Plus2</title>
<path fill="none" stroke="black" d="M743.68,-144.411C750.657,-135.53 759.372,-124.439 767.049,-114.668"/>
<polygon fill="black" stroke="black" points="770.032,-116.536 773.458,-106.511 764.528,-112.212 770.032,-116.536"/>
</g>
<!-- ExpConst2 -->
<g id="node56" class="node"><title>ExpConst2</title>
<ellipse fill="none" stroke="black" cx="884.645" cy="-90" rx="50.0912" ry="18"/>
<text text-anchor="middle" x="884.645" y="-86.3" font-family="Times,serif" font-size="14.00">ExpConst2</text>
</g>
<!-- ExpBinary2&#45;&gt;ExpConst2 -->
<g id="edge54" class="edge"><title>ExpBinary2&#45;&gt;ExpConst2</title>
<path fill="none" stroke="black" d="M761.071,-147.17C785.272,-136.17 819.306,-120.7 845.531,-108.779"/>
<polygon fill="black" stroke="black" points="847.152,-111.887 854.807,-104.563 844.255,-105.515 847.152,-111.887"/>
</g>
<!-- Temp4: T425 -->
<g id="node58" class="node"><title>Temp4: T425</title>
<ellipse fill="none" stroke="black" cx="861.645" cy="-162" rx="59.5901" ry="18"/>
<text text-anchor="middle" x="861.645" y="-158.3" font-family="Times,serif" font-size="14.00">Temp4: T425</text>
</g>
<!-- ExpTemp4&#45;&gt;Temp4: T425 -->
<g id="edge56" class="edge"><title>ExpTemp4&#45;&gt;Temp4: T425</title>
<path fill="none" stroke="black" d="M869.173,-215.697C868.071,-207.983 866.747,-198.712 865.519,-190.112"/>
<polygon fill="black" stroke="black" points="868.968,-189.509 864.089,-180.104 862.038,-190.499 868.968,-189.509"/>
</g>
<!-- Temp5: T404 -->
<g id="node63" class="node"><title>Temp5: T404</title>
<ellipse fill="none" stroke="black" cx="999.645" cy="-162" rx="59.5901" ry="18"/>
<text text-anchor="middle" x="999.645" y="-158.3" font-family="Times,serif" font-size="14.00">Temp5: T404</text>
</g>
<!-- ExpTemp5&#45;&gt;Temp5: T404 -->
<g id="edge60" class="edge"><title>ExpTemp5&#45;&gt;Temp5: T404</title>
<path fill="none" stroke="black" d="M999.645,-215.697C999.645,-207.983 999.645,-198.712 999.645,-190.112"/>
<polygon fill="black" stroke="black" points="1003.15,-190.104 999.645,-180.104 996.145,-190.104 1003.15,-190.104"/>
</g>
<!-- Temp3: $fp -->
<g id="node54" class="node"><title>Temp3: $fp</title>
<ellipse fill="none" stroke="black" cx="687.645" cy="-18" rx="52.7911" ry="18"/>
<text text-anchor="middle" x="687.645" y="-14.3" font-family="Times,serif" font-size="14.00">Temp3: $fp</text>
</g>
<!-- ExpTemp3&#45;&gt;Temp3: $fp -->
<g id="edge51" class="edge"><title>ExpTemp3&#45;&gt;Temp3: $fp</title>
<path fill="none" stroke="black" d="M686.893,-71.6966C687.003,-63.9827 687.135,-54.7125 687.258,-46.1124"/>
<polygon fill="black" stroke="black" points="690.758,-46.1533 687.401,-36.1043 683.758,-46.0533 690.758,-46.1533"/>
</g>
<!-- Value2: 20 -->
<g id="node59" class="node"><title>Value2: 20</title>
<ellipse fill="none" stroke="black" cx="884.645" cy="-18" rx="50.0912" ry="18"/>
<text text-anchor="middle" x="884.645" y="-14.3" font-family="Times,serif" font-size="14.00">Value2: 20</text>
</g>
<!-- ExpConst2&#45;&gt;Value2: 20 -->
<g id="edge57" class="edge"><title>ExpConst2&#45;&gt;Value2: 20</title>
<path fill="none" stroke="black" d="M884.645,-71.6966C884.645,-63.9827 884.645,-54.7125 884.645,-46.1124"/>
<polygon fill="black" stroke="black" points="888.145,-46.1043 884.645,-36.1043 881.145,-46.1044 888.145,-46.1043"/>
</g>
<!-- Temp6: T423 -->
<g id="node61" class="node"><title>Temp6: T423</title>
<ellipse fill="none" stroke="black" cx="1137.65" cy="-162" rx="59.5901" ry="18"/>
<text text-anchor="middle" x="1137.65" y="-158.3" font-family="Times,serif" font-size="14.00">Temp6: T423</text>
</g>
<!-- ExpTemp6&#45;&gt;Temp6: T423 -->
<g id="edge58" class="edge"><title>ExpTemp6&#45;&gt;Temp6: T423</title>
<path fill="none" stroke="black" d="M1148.18,-215.697C1146.64,-207.983 1144.79,-198.712 1143.07,-190.112"/>
<polygon fill="black" stroke="black" points="1146.46,-189.224 1141.07,-180.104 1139.6,-190.597 1146.46,-189.224"/>
</g>
</g>
</svg>
