<?xml version="1.0" encoding="UTF-8" standalone="no"?>
<!DOCTYPE svg PUBLIC "-//W3C//DTD SVG 1.1//EN"
 "http://www.w3.org/Graphics/SVG/1.1/DTD/svg11.dtd">
<!-- Generated by graphviz version 2.38.0 (20140413.2041)
 -->
<!-- Title: %3 Pages: 1 -->
<svg width="118pt" height="188pt"
 viewBox="0.00 0.00 118.49 188.00" xmlns="http://www.w3.org/2000/svg" xmlns:xlink="http://www.w3.org/1999/xlink">
<g id="graph0" class="graph" transform="scale(1 1) rotate(0) translate(4 184)">
<title>%3</title>
<polygon fill="white" stroke="none" points="-4,4 -4,-184 114.49,-184 114.49,4 -4,4"/>
<!-- ExpStat0 -->
<g id="node1" class="node"><title>ExpStat0</title>
<ellipse fill="none" stroke="black" cx="55.2451" cy="-162" rx="42.7926" ry="18"/>
<text text-anchor="middle" x="55.2451" y="-158.3" font-family="Times,serif" font-size="14.00">ExpStat0</text>
</g>
<!-- Temp0 -->
<g id="node2" class="node"><title>Temp0</title>
<ellipse fill="none" stroke="black" cx="55.2451" cy="-90" rx="36.2938" ry="18"/>
<text text-anchor="middle" x="55.2451" y="-86.3" font-family="Times,serif" font-size="14.00">Temp0</text>
</g>
<!-- ExpStat0&#45;&gt;Temp0 -->
<g id="edge1" class="edge"><title>ExpStat0&#45;&gt;Temp0</title>
<path fill="none" stroke="black" d="M55.2451,-143.697C55.2451,-135.983 55.2451,-126.712 55.2451,-118.112"/>
<polygon fill="black" stroke="black" points="58.7452,-118.104 55.2451,-108.104 51.7452,-118.104 58.7452,-118.104"/>
</g>
<!-- Temp1: T16 -->
<g id="node3" class="node"><title>Temp1: T16</title>
<ellipse fill="none" stroke="black" cx="55.2451" cy="-18" rx="55.4913" ry="18"/>
<text text-anchor="middle" x="55.2451" y="-14.3" font-family="Times,serif" font-size="14.00">Temp1: T16</text>
</g>
<!-- Temp0&#45;&gt;Temp1: T16 -->
<g id="edge2" class="edge"><title>Temp0&#45;&gt;Temp1: T16</title>
<path fill="none" stroke="black" d="M55.2451,-71.6966C55.2451,-63.9827 55.2451,-54.7125 55.2451,-46.1124"/>
<polygon fill="black" stroke="black" points="58.7452,-46.1043 55.2451,-36.1043 51.7452,-46.1044 58.7452,-46.1043"/>
</g>
</g>
</svg>
