<?xml version="1.0" encoding="UTF-8" standalone="no"?>
<!DOCTYPE svg PUBLIC "-//W3C//DTD SVG 1.1//EN"
 "http://www.w3.org/Graphics/SVG/1.1/DTD/svg11.dtd">
<!-- Generated by graphviz version 2.38.0 (20140413.2041)
 -->
<!-- Title: %3 Pages: 1 -->
<svg width="541pt" height="260pt"
 viewBox="0.00 0.00 541.49 260.00" xmlns="http://www.w3.org/2000/svg" xmlns:xlink="http://www.w3.org/1999/xlink">
<g id="graph0" class="graph" transform="scale(1 1) rotate(0) translate(4 256)">
<title>%3</title>
<polygon fill="white" stroke="none" points="-4,4 -4,-256 537.49,-256 537.49,4 -4,4"/>
<!-- Temp0 -->
<g id="node1" class="node"><title>Temp0</title>
<ellipse fill="none" stroke="black" cx="165.245" cy="-162" rx="36.2938" ry="18"/>
<text text-anchor="middle" x="165.245" y="-158.3" font-family="Times,serif" font-size="14.00">Temp0</text>
</g>
<!-- Temp1: T21 -->
<g id="node2" class="node"><title>Temp1: T21</title>
<ellipse fill="none" stroke="black" cx="55.2451" cy="-90" rx="55.4913" ry="18"/>
<text text-anchor="middle" x="55.2451" y="-86.3" font-family="Times,serif" font-size="14.00">Temp1: T21</text>
</g>
<!-- Temp0&#45;&gt;Temp1: T21 -->
<g id="edge1" class="edge"><title>Temp0&#45;&gt;Temp1: T21</title>
<path fill="none" stroke="black" d="M143.775,-147.337C127.87,-137.216 105.917,-123.246 87.8512,-111.749"/>
<polygon fill="black" stroke="black" points="89.654,-108.748 79.3383,-106.332 85.8959,-114.654 89.654,-108.748"/>
</g>
<!-- Temp2 -->
<g id="node3" class="node"><title>Temp2</title>
<ellipse fill="none" stroke="black" cx="360.245" cy="-90" rx="36.2938" ry="18"/>
<text text-anchor="middle" x="360.245" y="-86.3" font-family="Times,serif" font-size="14.00">Temp2</text>
</g>
<!-- Temp3: T19 -->
<g id="node4" class="node"><title>Temp3: T19</title>
<ellipse fill="none" stroke="black" cx="350.245" cy="-18" rx="55.4913" ry="18"/>
<text text-anchor="middle" x="350.245" y="-14.3" font-family="Times,serif" font-size="14.00">Temp3: T19</text>
</g>
<!-- Temp2&#45;&gt;Temp3: T19 -->
<g id="edge2" class="edge"><title>Temp2&#45;&gt;Temp3: T19</title>
<path fill="none" stroke="black" d="M357.773,-71.6966C356.671,-63.9827 355.347,-54.7125 354.118,-46.1124"/>
<polygon fill="black" stroke="black" points="357.568,-45.5088 352.689,-36.1043 350.638,-46.4988 357.568,-45.5088"/>
</g>
<!-- MoveRegister0 -->
<g id="node5" class="node"><title>MoveRegister0</title>
<ellipse fill="none" stroke="black" cx="226.245" cy="-234" rx="65.7887" ry="18"/>
<text text-anchor="middle" x="226.245" y="-230.3" font-family="Times,serif" font-size="14.00">MoveRegister0</text>
</g>
<!-- MoveRegister0&#45;&gt;Temp0 -->
<g id="edge3" class="edge"><title>MoveRegister0&#45;&gt;Temp0</title>
<path fill="none" stroke="black" d="M211.789,-216.411C204.082,-207.567 194.465,-196.531 185.976,-186.789"/>
<polygon fill="black" stroke="black" points="188.386,-184.228 179.178,-178.988 183.109,-188.827 188.386,-184.228"/>
</g>
<!-- Call0 -->
<g id="node6" class="node"><title>Call0</title>
<ellipse fill="none" stroke="black" cx="288.245" cy="-162" rx="29.795" ry="18"/>
<text text-anchor="middle" x="288.245" y="-158.3" font-family="Times,serif" font-size="14.00">Call0</text>
</g>
<!-- MoveRegister0&#45;&gt;Call0 -->
<g id="edge4" class="edge"><title>MoveRegister0&#45;&gt;Call0</title>
<path fill="none" stroke="black" d="M240.938,-216.411C248.963,-207.351 259.025,-195.99 267.805,-186.078"/>
<polygon fill="black" stroke="black" points="270.497,-188.317 274.507,-178.511 265.256,-183.676 270.497,-188.317"/>
</g>
<!-- Call0&#45;&gt;Temp2 -->
<g id="edge7" class="edge"><title>Call0&#45;&gt;Temp2</title>
<path fill="none" stroke="black" d="M303.514,-146.155C313.308,-136.633 326.206,-124.093 337.23,-113.376"/>
<polygon fill="black" stroke="black" points="339.77,-115.788 344.5,-106.308 334.89,-110.769 339.77,-115.788"/>
</g>
<!-- Temp4 -->
<g id="node7" class="node"><title>Temp4</title>
<ellipse fill="none" stroke="black" cx="469.245" cy="-90" rx="36.2938" ry="18"/>
<text text-anchor="middle" x="469.245" y="-86.3" font-family="Times,serif" font-size="14.00">Temp4</text>
</g>
<!-- Call0&#45;&gt;Temp4 -->
<g id="edge8" class="edge"><title>Call0&#45;&gt;Temp4</title>
<path fill="none" stroke="black" d="M312.656,-151.559C343.262,-139.723 396.042,-119.311 431.777,-105.491"/>
<polygon fill="black" stroke="black" points="433.307,-108.651 441.371,-101.78 430.782,-102.123 433.307,-108.651"/>
</g>
<!-- Function0: BBS@Init -->
<g id="node9" class="node"><title>Function0: BBS@Init</title>
<ellipse fill="none" stroke="black" cx="217.245" cy="-90" rx="88.2844" ry="18"/>
<text text-anchor="middle" x="217.245" y="-86.3" font-family="Times,serif" font-size="14.00">Function0: BBS@Init</text>
</g>
<!-- Call0&#45;&gt;Function0: BBS@Init -->
<g id="edge6" class="edge"><title>Call0&#45;&gt;Function0: BBS@Init</title>
<path fill="none" stroke="black" d="M273.188,-146.155C264.016,-137.112 252.083,-125.347 241.595,-115.007"/>
<polygon fill="black" stroke="black" points="243.852,-112.317 234.274,-107.789 238.938,-117.302 243.852,-112.317"/>
</g>
<!-- Temp5: T20 -->
<g id="node8" class="node"><title>Temp5: T20</title>
<ellipse fill="none" stroke="black" cx="478.245" cy="-18" rx="55.4913" ry="18"/>
<text text-anchor="middle" x="478.245" y="-14.3" font-family="Times,serif" font-size="14.00">Temp5: T20</text>
</g>
<!-- Temp4&#45;&gt;Temp5: T20 -->
<g id="edge5" class="edge"><title>Temp4&#45;&gt;Temp5: T20</title>
<path fill="none" stroke="black" d="M471.47,-71.6966C472.462,-63.9827 473.653,-54.7125 474.759,-46.1124"/>
<polygon fill="black" stroke="black" points="478.242,-46.469 476.046,-36.1043 471.299,-45.5763 478.242,-46.469"/>
</g>
</g>
</svg>
