<?xml version="1.0" encoding="UTF-8" standalone="no"?>
<!DOCTYPE svg PUBLIC "-//W3C//DTD SVG 1.1//EN"
 "http://www.w3.org/Graphics/SVG/1.1/DTD/svg11.dtd">
<!-- Generated by graphviz version 2.38.0 (20140413.2041)
 -->
<!-- Title: %3 Pages: 1 -->
<svg width="2035pt" height="404pt"
 viewBox="0.00 0.00 2034.89 404.00" xmlns="http://www.w3.org/2000/svg" xmlns:xlink="http://www.w3.org/1999/xlink">
<g id="graph0" class="graph" transform="scale(1 1) rotate(0) translate(4 400)">
<title>%3</title>
<polygon fill="white" stroke="none" points="-4,4 -4,-400 2030.89,-400 2030.89,4 -4,4"/>
<!-- ExpConst1 -->
<g id="node1" class="node"><title>ExpConst1</title>
<ellipse fill="none" stroke="black" cx="1732.95" cy="-234" rx="50.0912" ry="18"/>
<text text-anchor="middle" x="1732.95" y="-230.3" font-family="Times,serif" font-size="14.00">ExpConst1</text>
</g>
<!-- Value1: 0 -->
<g id="node2" class="node"><title>Value1: 0</title>
<ellipse fill="none" stroke="black" cx="1732.95" cy="-162" rx="45.4919" ry="18"/>
<text text-anchor="middle" x="1732.95" y="-158.3" font-family="Times,serif" font-size="14.00">Value1: 0</text>
</g>
<!-- ExpConst1&#45;&gt;Value1: 0 -->
<g id="edge1" class="edge"><title>ExpConst1&#45;&gt;Value1: 0</title>
<path fill="none" stroke="black" d="M1732.95,-215.697C1732.95,-207.983 1732.95,-198.712 1732.95,-190.112"/>
<polygon fill="black" stroke="black" points="1736.45,-190.104 1732.95,-180.104 1729.45,-190.104 1736.45,-190.104"/>
</g>
<!-- ExpCall0 -->
<g id="node3" class="node"><title>ExpCall0</title>
<ellipse fill="none" stroke="black" cx="1377.95" cy="-234" rx="44.393" ry="18"/>
<text text-anchor="middle" x="1377.95" y="-230.3" font-family="Times,serif" font-size="14.00">ExpCall0</text>
</g>
<!-- ExpTemp7 -->
<g id="node4" class="node"><title>ExpTemp7</title>
<ellipse fill="none" stroke="black" cx="1377.95" cy="-162" rx="50.0912" ry="18"/>
<text text-anchor="middle" x="1377.95" y="-158.3" font-family="Times,serif" font-size="14.00">ExpTemp7</text>
</g>
<!-- ExpCall0&#45;&gt;ExpTemp7 -->
<g id="edge2" class="edge"><title>ExpCall0&#45;&gt;ExpTemp7</title>
<path fill="none" stroke="black" d="M1377.95,-215.697C1377.95,-207.983 1377.95,-198.712 1377.95,-190.112"/>
<polygon fill="black" stroke="black" points="1381.45,-190.104 1377.95,-180.104 1374.45,-190.104 1381.45,-190.104"/>
</g>
<!-- ExpList0 -->
<g id="node5" class="node"><title>ExpList0</title>
<ellipse fill="none" stroke="black" cx="1488.95" cy="-162" rx="42.7926" ry="18"/>
<text text-anchor="middle" x="1488.95" y="-158.3" font-family="Times,serif" font-size="14.00">ExpList0</text>
</g>
<!-- ExpCall0&#45;&gt;ExpList0 -->
<g id="edge3" class="edge"><title>ExpCall0&#45;&gt;ExpList0</title>
<path fill="none" stroke="black" d="M1400.94,-218.496C1417.17,-208.266 1439.11,-194.428 1457.03,-183.13"/>
<polygon fill="black" stroke="black" points="1459.38,-185.78 1465.98,-177.485 1455.65,-179.859 1459.38,-185.78"/>
</g>
<!-- Temp7: T101 -->
<g id="node34" class="node"><title>Temp7: T101</title>
<ellipse fill="none" stroke="black" cx="1360.95" cy="-90" rx="59.5901" ry="18"/>
<text text-anchor="middle" x="1360.95" y="-86.3" font-family="Times,serif" font-size="14.00">Temp7: T101</text>
</g>
<!-- ExpTemp7&#45;&gt;Temp7: T101 -->
<g id="edge30" class="edge"><title>ExpTemp7&#45;&gt;Temp7: T101</title>
<path fill="none" stroke="black" d="M1373.83,-144.055C1371.94,-136.261 1369.64,-126.822 1367.52,-118.079"/>
<polygon fill="black" stroke="black" points="1370.9,-117.167 1365.14,-108.275 1364.1,-118.819 1370.9,-117.167"/>
</g>
<!-- ExpTemp8 -->
<g id="node11" class="node"><title>ExpTemp8</title>
<ellipse fill="none" stroke="black" cx="1488.95" cy="-90" rx="50.0912" ry="18"/>
<text text-anchor="middle" x="1488.95" y="-86.3" font-family="Times,serif" font-size="14.00">ExpTemp8</text>
</g>
<!-- ExpList0&#45;&gt;ExpTemp8 -->
<g id="edge40" class="edge"><title>ExpList0&#45;&gt;ExpTemp8</title>
<path fill="none" stroke="black" d="M1488.95,-143.697C1488.95,-135.983 1488.95,-126.712 1488.95,-118.112"/>
<polygon fill="black" stroke="black" points="1492.45,-118.104 1488.95,-108.104 1485.45,-118.104 1492.45,-118.104"/>
</g>
<!-- ExpTemp9 -->
<g id="node42" class="node"><title>ExpTemp9</title>
<ellipse fill="none" stroke="black" cx="1616.95" cy="-90" rx="50.0912" ry="18"/>
<text text-anchor="middle" x="1616.95" y="-86.3" font-family="Times,serif" font-size="14.00">ExpTemp9</text>
</g>
<!-- ExpList0&#45;&gt;ExpTemp9 -->
<g id="edge41" class="edge"><title>ExpList0&#45;&gt;ExpTemp9</title>
<path fill="none" stroke="black" d="M1513.93,-147.337C1533.28,-136.754 1560.33,-121.961 1581.86,-110.189"/>
<polygon fill="black" stroke="black" points="1583.61,-113.219 1590.7,-105.35 1580.25,-107.078 1583.61,-113.219"/>
</g>
<!-- StatCJump0 -->
<g id="node6" class="node"><title>StatCJump0</title>
<ellipse fill="none" stroke="black" cx="1670.95" cy="-306" rx="53.8905" ry="18"/>
<text text-anchor="middle" x="1670.95" y="-302.3" font-family="Times,serif" font-size="14.00">StatCJump0</text>
</g>
<!-- StatCJump0&#45;&gt;ExpConst1 -->
<g id="edge6" class="edge"><title>StatCJump0&#45;&gt;ExpConst1</title>
<path fill="none" stroke="black" d="M1685.64,-288.411C1693.36,-279.693 1702.97,-268.845 1711.5,-259.208"/>
<polygon fill="black" stroke="black" points="1714.35,-261.276 1718.36,-251.47 1709.11,-256.635 1714.35,-261.276"/>
</g>
<!-- NE0 -->
<g id="node7" class="node"><title>NE0</title>
<ellipse fill="none" stroke="black" cx="1509.95" cy="-234" rx="27" ry="18"/>
<text text-anchor="middle" x="1509.95" y="-230.3" font-family="Times,serif" font-size="14.00">NE0</text>
</g>
<!-- StatCJump0&#45;&gt;NE0 -->
<g id="edge4" class="edge"><title>StatCJump0&#45;&gt;NE0</title>
<path fill="none" stroke="black" d="M1638.42,-291.628C1613.1,-281.119 1577.14,-265.971 1545.95,-252 1544.15,-251.195 1542.3,-250.358 1540.45,-249.507"/>
<polygon fill="black" stroke="black" points="1541.74,-246.25 1531.2,-245.21 1538.79,-252.598 1541.74,-246.25"/>
</g>
<!-- ExpTemp10 -->
<g id="node8" class="node"><title>ExpTemp10</title>
<ellipse fill="none" stroke="black" cx="1609.95" cy="-234" rx="54.6905" ry="18"/>
<text text-anchor="middle" x="1609.95" y="-230.3" font-family="Times,serif" font-size="14.00">ExpTemp10</text>
</g>
<!-- StatCJump0&#45;&gt;ExpTemp10 -->
<g id="edge5" class="edge"><title>StatCJump0&#45;&gt;ExpTemp10</title>
<path fill="none" stroke="black" d="M1656.49,-288.411C1648.89,-279.693 1639.44,-268.845 1631.04,-259.208"/>
<polygon fill="black" stroke="black" points="1633.51,-256.71 1624.3,-251.47 1628.23,-261.309 1633.51,-256.71"/>
</g>
<!-- Label2: L9 -->
<g id="node9" class="node"><title>Label2: L9</title>
<ellipse fill="none" stroke="black" cx="1850.95" cy="-234" rx="50.0912" ry="18"/>
<text text-anchor="middle" x="1850.95" y="-230.3" font-family="Times,serif" font-size="14.00">Label2: L9</text>
</g>
<!-- StatCJump0&#45;&gt;Label2: L9 -->
<g id="edge7" class="edge"><title>StatCJump0&#45;&gt;Label2: L9</title>
<path fill="none" stroke="black" d="M1704.8,-291.834C1734.24,-280.384 1777.03,-263.745 1808.7,-251.427"/>
<polygon fill="black" stroke="black" points="1810.1,-254.64 1818.15,-247.753 1807.56,-248.116 1810.1,-254.64"/>
</g>
<!-- Label3: L10 -->
<g id="node10" class="node"><title>Label3: L10</title>
<ellipse fill="none" stroke="black" cx="1972.95" cy="-234" rx="53.8905" ry="18"/>
<text text-anchor="middle" x="1972.95" y="-230.3" font-family="Times,serif" font-size="14.00">Label3: L10</text>
</g>
<!-- StatCJump0&#45;&gt;Label3: L10 -->
<g id="edge8" class="edge"><title>StatCJump0&#45;&gt;Label3: L10</title>
<path fill="none" stroke="black" d="M1715.57,-295.735C1763.69,-285.599 1842.46,-268.578 1909.95,-252 1914.09,-250.981 1918.38,-249.894 1922.69,-248.781"/>
<polygon fill="black" stroke="black" points="1923.9,-252.08 1932.69,-246.155 1922.12,-245.31 1923.9,-252.08"/>
</g>
<!-- Temp10: T40 -->
<g id="node18" class="node"><title>Temp10: T40</title>
<ellipse fill="none" stroke="black" cx="1609.95" cy="-162" rx="59.5901" ry="18"/>
<text text-anchor="middle" x="1609.95" y="-158.3" font-family="Times,serif" font-size="14.00">Temp10: T40</text>
</g>
<!-- ExpTemp10&#45;&gt;Temp10: T40 -->
<g id="edge13" class="edge"><title>ExpTemp10&#45;&gt;Temp10: T40</title>
<path fill="none" stroke="black" d="M1609.95,-215.697C1609.95,-207.983 1609.95,-198.712 1609.95,-190.112"/>
<polygon fill="black" stroke="black" points="1613.45,-190.104 1609.95,-180.104 1606.45,-190.104 1613.45,-190.104"/>
</g>
<!-- Temp8: T102 -->
<g id="node12" class="node"><title>Temp8: T102</title>
<ellipse fill="none" stroke="black" cx="1483.95" cy="-18" rx="59.5901" ry="18"/>
<text text-anchor="middle" x="1483.95" y="-14.3" font-family="Times,serif" font-size="14.00">Temp8: T102</text>
</g>
<!-- ExpTemp8&#45;&gt;Temp8: T102 -->
<g id="edge9" class="edge"><title>ExpTemp8&#45;&gt;Temp8: T102</title>
<path fill="none" stroke="black" d="M1487.71,-71.6966C1487.16,-63.9827 1486.5,-54.7125 1485.88,-46.1124"/>
<polygon fill="black" stroke="black" points="1489.37,-45.8295 1485.17,-36.1043 1482.39,-46.3283 1489.37,-45.8295"/>
</g>
<!-- StatMove1 -->
<g id="node13" class="node"><title>StatMove1</title>
<ellipse fill="none" stroke="black" cx="543.945" cy="-306" rx="50.0912" ry="18"/>
<text text-anchor="middle" x="543.945" y="-302.3" font-family="Times,serif" font-size="14.00">StatMove1</text>
</g>
<!-- ExpTemp2 -->
<g id="node14" class="node"><title>ExpTemp2</title>
<ellipse fill="none" stroke="black" cx="421.945" cy="-234" rx="50.0912" ry="18"/>
<text text-anchor="middle" x="421.945" y="-230.3" font-family="Times,serif" font-size="14.00">ExpTemp2</text>
</g>
<!-- StatMove1&#45;&gt;ExpTemp2 -->
<g id="edge10" class="edge"><title>StatMove1&#45;&gt;ExpTemp2</title>
<path fill="none" stroke="black" d="M518.37,-290.326C500.314,-279.965 475.92,-265.969 456.186,-254.646"/>
<polygon fill="black" stroke="black" points="457.902,-251.596 447.487,-249.655 454.419,-257.668 457.902,-251.596"/>
</g>
<!-- ExpMem0 -->
<g id="node15" class="node"><title>ExpMem0</title>
<ellipse fill="none" stroke="black" cx="543.945" cy="-234" rx="48.9926" ry="18"/>
<text text-anchor="middle" x="543.945" y="-230.3" font-family="Times,serif" font-size="14.00">ExpMem0</text>
</g>
<!-- StatMove1&#45;&gt;ExpMem0 -->
<g id="edge11" class="edge"><title>StatMove1&#45;&gt;ExpMem0</title>
<path fill="none" stroke="black" d="M543.945,-287.697C543.945,-279.983 543.945,-270.712 543.945,-262.112"/>
<polygon fill="black" stroke="black" points="547.445,-262.104 543.945,-252.104 540.445,-262.104 547.445,-262.104"/>
</g>
<!-- Temp2: T102 -->
<g id="node19" class="node"><title>Temp2: T102</title>
<ellipse fill="none" stroke="black" cx="415.945" cy="-162" rx="59.5901" ry="18"/>
<text text-anchor="middle" x="415.945" y="-158.3" font-family="Times,serif" font-size="14.00">Temp2: T102</text>
</g>
<!-- ExpTemp2&#45;&gt;Temp2: T102 -->
<g id="edge14" class="edge"><title>ExpTemp2&#45;&gt;Temp2: T102</title>
<path fill="none" stroke="black" d="M420.462,-215.697C419.801,-207.983 419.006,-198.712 418.269,-190.112"/>
<polygon fill="black" stroke="black" points="421.753,-189.769 417.411,-180.104 414.778,-190.367 421.753,-189.769"/>
</g>
<!-- ExpTemp3 -->
<g id="node16" class="node"><title>ExpTemp3</title>
<ellipse fill="none" stroke="black" cx="543.945" cy="-162" rx="50.0912" ry="18"/>
<text text-anchor="middle" x="543.945" y="-158.3" font-family="Times,serif" font-size="14.00">ExpTemp3</text>
</g>
<!-- ExpMem0&#45;&gt;ExpTemp3 -->
<g id="edge37" class="edge"><title>ExpMem0&#45;&gt;ExpTemp3</title>
<path fill="none" stroke="black" d="M543.945,-215.697C543.945,-207.983 543.945,-198.712 543.945,-190.112"/>
<polygon fill="black" stroke="black" points="547.445,-190.104 543.945,-180.104 540.445,-190.104 547.445,-190.104"/>
</g>
<!-- Temp3: $fp -->
<g id="node17" class="node"><title>Temp3: $fp</title>
<ellipse fill="none" stroke="black" cx="543.945" cy="-90" rx="52.7911" ry="18"/>
<text text-anchor="middle" x="543.945" y="-86.3" font-family="Times,serif" font-size="14.00">Temp3: $fp</text>
</g>
<!-- ExpTemp3&#45;&gt;Temp3: $fp -->
<g id="edge12" class="edge"><title>ExpTemp3&#45;&gt;Temp3: $fp</title>
<path fill="none" stroke="black" d="M543.945,-143.697C543.945,-135.983 543.945,-126.712 543.945,-118.112"/>
<polygon fill="black" stroke="black" points="547.445,-118.104 543.945,-108.104 540.445,-118.104 547.445,-118.104"/>
</g>
<!-- StatMove2 -->
<g id="node20" class="node"><title>StatMove2</title>
<ellipse fill="none" stroke="black" cx="751.945" cy="-306" rx="50.0912" ry="18"/>
<text text-anchor="middle" x="751.945" y="-302.3" font-family="Times,serif" font-size="14.00">StatMove2</text>
</g>
<!-- ExpTemp4 -->
<g id="node21" class="node"><title>ExpTemp4</title>
<ellipse fill="none" stroke="black" cx="681.945" cy="-234" rx="50.0912" ry="18"/>
<text text-anchor="middle" x="681.945" y="-230.3" font-family="Times,serif" font-size="14.00">ExpTemp4</text>
</g>
<!-- StatMove2&#45;&gt;ExpTemp4 -->
<g id="edge15" class="edge"><title>StatMove2&#45;&gt;ExpTemp4</title>
<path fill="none" stroke="black" d="M735.71,-288.765C726.698,-279.753 715.33,-268.385 705.371,-258.426"/>
<polygon fill="black" stroke="black" points="707.639,-255.744 698.093,-251.147 702.689,-260.693 707.639,-255.744"/>
</g>
<!-- ExpName0 -->
<g id="node22" class="node"><title>ExpName0</title>
<ellipse fill="none" stroke="black" cx="821.945" cy="-234" rx="50.8918" ry="18"/>
<text text-anchor="middle" x="821.945" y="-230.3" font-family="Times,serif" font-size="14.00">ExpName0</text>
</g>
<!-- StatMove2&#45;&gt;ExpName0 -->
<g id="edge16" class="edge"><title>StatMove2&#45;&gt;ExpName0</title>
<path fill="none" stroke="black" d="M768.181,-288.765C777.192,-279.753 788.56,-268.385 798.519,-258.426"/>
<polygon fill="black" stroke="black" points="801.202,-260.693 805.798,-251.147 796.252,-255.744 801.202,-260.693"/>
</g>
<!-- Temp4: T101 -->
<g id="node33" class="node"><title>Temp4: T101</title>
<ellipse fill="none" stroke="black" cx="671.945" cy="-162" rx="59.5901" ry="18"/>
<text text-anchor="middle" x="671.945" y="-158.3" font-family="Times,serif" font-size="14.00">Temp4: T101</text>
</g>
<!-- ExpTemp4&#45;&gt;Temp4: T101 -->
<g id="edge29" class="edge"><title>ExpTemp4&#45;&gt;Temp4: T101</title>
<path fill="none" stroke="black" d="M679.473,-215.697C678.371,-207.983 677.047,-198.712 675.818,-190.112"/>
<polygon fill="black" stroke="black" points="679.268,-189.509 674.389,-180.104 672.338,-190.499 679.268,-189.509"/>
</g>
<!-- Label1: BS@Search -->
<g id="node32" class="node"><title>Label1: BS@Search</title>
<ellipse fill="none" stroke="black" cx="832.945" cy="-162" rx="83.3857" ry="18"/>
<text text-anchor="middle" x="832.945" y="-158.3" font-family="Times,serif" font-size="14.00">Label1: BS@Search</text>
</g>
<!-- ExpName0&#45;&gt;Label1: BS@Search -->
<g id="edge28" class="edge"><title>ExpName0&#45;&gt;Label1: BS@Search</title>
<path fill="none" stroke="black" d="M824.664,-215.697C825.877,-207.983 827.333,-198.712 828.685,-190.112"/>
<polygon fill="black" stroke="black" points="832.162,-190.526 830.257,-180.104 825.247,-189.44 832.162,-190.526"/>
</g>
<!-- StatLabel0 -->
<g id="node23" class="node"><title>StatLabel0</title>
<ellipse fill="none" stroke="black" cx="115.945" cy="-306" rx="48.9926" ry="18"/>
<text text-anchor="middle" x="115.945" y="-302.3" font-family="Times,serif" font-size="14.00">StatLabel0</text>
</g>
<!-- Label0: L14 -->
<g id="node24" class="node"><title>Label0: L14</title>
<ellipse fill="none" stroke="black" cx="53.9452" cy="-234" rx="53.8905" ry="18"/>
<text text-anchor="middle" x="53.9452" y="-230.3" font-family="Times,serif" font-size="14.00">Label0: L14</text>
</g>
<!-- StatLabel0&#45;&gt;Label0: L14 -->
<g id="edge17" class="edge"><title>StatLabel0&#45;&gt;Label0: L14</title>
<path fill="none" stroke="black" d="M101.565,-288.765C93.7748,-279.969 83.996,-268.928 75.3299,-259.144"/>
<polygon fill="black" stroke="black" points="77.9281,-256.799 68.6777,-251.633 72.688,-261.44 77.9281,-256.799"/>
</g>
<!-- StatList0 -->
<g id="node25" class="node"><title>StatList0</title>
<ellipse fill="none" stroke="black" cx="751.945" cy="-378" rx="42.4939" ry="18"/>
<text text-anchor="middle" x="751.945" y="-374.3" font-family="Times,serif" font-size="14.00">StatList0</text>
</g>
<!-- StatList0&#45;&gt;StatCJump0 -->
<g id="edge24" class="edge"><title>StatList0&#45;&gt;StatCJump0</title>
<path fill="none" stroke="black" d="M793.218,-373.856C939.525,-362.712 1433.98,-325.049 1608.95,-311.722"/>
<polygon fill="black" stroke="black" points="1609.32,-315.204 1619.03,-310.955 1608.79,-308.224 1609.32,-315.204"/>
</g>
<!-- StatList0&#45;&gt;StatMove1 -->
<g id="edge20" class="edge"><title>StatList0&#45;&gt;StatMove1</title>
<path fill="none" stroke="black" d="M719.901,-366.216C684.813,-354.407 628.292,-335.386 588.806,-322.097"/>
<polygon fill="black" stroke="black" points="589.752,-318.723 579.158,-318.85 587.519,-325.357 589.752,-318.723"/>
</g>
<!-- StatList0&#45;&gt;StatMove2 -->
<g id="edge21" class="edge"><title>StatList0&#45;&gt;StatMove2</title>
<path fill="none" stroke="black" d="M751.945,-359.697C751.945,-351.983 751.945,-342.712 751.945,-334.112"/>
<polygon fill="black" stroke="black" points="755.445,-334.104 751.945,-324.104 748.445,-334.104 755.445,-334.104"/>
</g>
<!-- StatList0&#45;&gt;StatLabel0 -->
<g id="edge18" class="edge"><title>StatList0&#45;&gt;StatLabel0</title>
<path fill="none" stroke="black" d="M711,-373.36C623.494,-365.459 411.819,-345.691 234.945,-324 213.769,-321.403 190.529,-318.169 170.251,-315.221"/>
<polygon fill="black" stroke="black" points="170.652,-311.743 160.251,-313.756 169.637,-318.669 170.652,-311.743"/>
</g>
<!-- StatMove0 -->
<g id="node26" class="node"><title>StatMove0</title>
<ellipse fill="none" stroke="black" cx="293.945" cy="-306" rx="50.0912" ry="18"/>
<text text-anchor="middle" x="293.945" y="-302.3" font-family="Times,serif" font-size="14.00">StatMove0</text>
</g>
<!-- StatList0&#45;&gt;StatMove0 -->
<g id="edge19" class="edge"><title>StatList0&#45;&gt;StatMove0</title>
<path fill="none" stroke="black" d="M712.896,-371.032C631.475,-358.587 443.353,-329.835 349.412,-315.477"/>
<polygon fill="black" stroke="black" points="349.669,-311.976 339.255,-313.925 348.611,-318.896 349.669,-311.976"/>
</g>
<!-- StatMove3 -->
<g id="node27" class="node"><title>StatMove3</title>
<ellipse fill="none" stroke="black" cx="993.945" cy="-306" rx="50.0912" ry="18"/>
<text text-anchor="middle" x="993.945" y="-302.3" font-family="Times,serif" font-size="14.00">StatMove3</text>
</g>
<!-- StatList0&#45;&gt;StatMove3 -->
<g id="edge22" class="edge"><title>StatList0&#45;&gt;StatMove3</title>
<path fill="none" stroke="black" d="M785.849,-367.193C827.747,-355.074 899.283,-334.382 946.587,-320.699"/>
<polygon fill="black" stroke="black" points="947.66,-324.032 956.294,-317.891 945.715,-317.307 947.66,-324.032"/>
</g>
<!-- StatMove4 -->
<g id="node28" class="node"><title>StatMove4</title>
<ellipse fill="none" stroke="black" cx="1249.95" cy="-306" rx="50.0912" ry="18"/>
<text text-anchor="middle" x="1249.95" y="-302.3" font-family="Times,serif" font-size="14.00">StatMove4</text>
</g>
<!-- StatList0&#45;&gt;StatMove4 -->
<g id="edge23" class="edge"><title>StatList0&#45;&gt;StatMove4</title>
<path fill="none" stroke="black" d="M791.439,-371.449C879.515,-359.068 1092.24,-329.167 1193.96,-314.87"/>
<polygon fill="black" stroke="black" points="1194.62,-318.312 1204.03,-313.454 1193.64,-311.38 1194.62,-318.312"/>
</g>
<!-- ExpTemp0 -->
<g id="node29" class="node"><title>ExpTemp0</title>
<ellipse fill="none" stroke="black" cx="175.945" cy="-234" rx="50.0912" ry="18"/>
<text text-anchor="middle" x="175.945" y="-230.3" font-family="Times,serif" font-size="14.00">ExpTemp0</text>
</g>
<!-- StatMove0&#45;&gt;ExpTemp0 -->
<g id="edge26" class="edge"><title>StatMove0&#45;&gt;ExpTemp0</title>
<path fill="none" stroke="black" d="M269.209,-290.326C251.823,-280.012 228.363,-266.095 209.322,-254.8"/>
<polygon fill="black" stroke="black" points="211.036,-251.747 200.649,-249.655 207.464,-257.767 211.036,-251.747"/>
</g>
<!-- ExpTemp1 -->
<g id="node31" class="node"><title>ExpTemp1</title>
<ellipse fill="none" stroke="black" cx="293.945" cy="-234" rx="50.0912" ry="18"/>
<text text-anchor="middle" x="293.945" y="-230.3" font-family="Times,serif" font-size="14.00">ExpTemp1</text>
</g>
<!-- StatMove0&#45;&gt;ExpTemp1 -->
<g id="edge27" class="edge"><title>StatMove0&#45;&gt;ExpTemp1</title>
<path fill="none" stroke="black" d="M293.945,-287.697C293.945,-279.983 293.945,-270.712 293.945,-262.112"/>
<polygon fill="black" stroke="black" points="297.445,-262.104 293.945,-252.104 290.445,-262.104 297.445,-262.104"/>
</g>
<!-- ExpTemp5 -->
<g id="node36" class="node"><title>ExpTemp5</title>
<ellipse fill="none" stroke="black" cx="993.945" cy="-234" rx="50.0912" ry="18"/>
<text text-anchor="middle" x="993.945" y="-230.3" font-family="Times,serif" font-size="14.00">ExpTemp5</text>
</g>
<!-- StatMove3&#45;&gt;ExpTemp5 -->
<g id="edge33" class="edge"><title>StatMove3&#45;&gt;ExpTemp5</title>
<path fill="none" stroke="black" d="M993.945,-287.697C993.945,-279.983 993.945,-270.712 993.945,-262.112"/>
<polygon fill="black" stroke="black" points="997.445,-262.104 993.945,-252.104 990.445,-262.104 997.445,-262.104"/>
</g>
<!-- ExpConst0 -->
<g id="node38" class="node"><title>ExpConst0</title>
<ellipse fill="none" stroke="black" cx="1116.95" cy="-234" rx="50.0912" ry="18"/>
<text text-anchor="middle" x="1116.95" y="-230.3" font-family="Times,serif" font-size="14.00">ExpConst0</text>
</g>
<!-- StatMove3&#45;&gt;ExpConst0 -->
<g id="edge34" class="edge"><title>StatMove3&#45;&gt;ExpConst0</title>
<path fill="none" stroke="black" d="M1019.43,-290.496C1037.62,-280.147 1062.29,-266.107 1082.26,-254.739"/>
<polygon fill="black" stroke="black" points="1084.11,-257.714 1091.07,-249.726 1080.65,-251.631 1084.11,-257.714"/>
</g>
<!-- StatMove4&#45;&gt;ExpCall0 -->
<g id="edge39" class="edge"><title>StatMove4&#45;&gt;ExpCall0</title>
<path fill="none" stroke="black" d="M1276.16,-290.666C1295.65,-280.004 1322.44,-265.356 1343.64,-253.762"/>
<polygon fill="black" stroke="black" points="1345.55,-256.707 1352.64,-248.838 1342.19,-250.566 1345.55,-256.707"/>
</g>
<!-- ExpTemp6 -->
<g id="node40" class="node"><title>ExpTemp6</title>
<ellipse fill="none" stroke="black" cx="1249.95" cy="-234" rx="50.0912" ry="18"/>
<text text-anchor="middle" x="1249.95" y="-230.3" font-family="Times,serif" font-size="14.00">ExpTemp6</text>
</g>
<!-- StatMove4&#45;&gt;ExpTemp6 -->
<g id="edge38" class="edge"><title>StatMove4&#45;&gt;ExpTemp6</title>
<path fill="none" stroke="black" d="M1249.95,-287.697C1249.95,-279.983 1249.95,-270.712 1249.95,-262.112"/>
<polygon fill="black" stroke="black" points="1253.45,-262.104 1249.95,-252.104 1246.45,-262.104 1253.45,-262.104"/>
</g>
<!-- Temp0: T104 -->
<g id="node30" class="node"><title>Temp0: T104</title>
<ellipse fill="none" stroke="black" cx="149.945" cy="-162" rx="59.5901" ry="18"/>
<text text-anchor="middle" x="149.945" y="-158.3" font-family="Times,serif" font-size="14.00">Temp0: T104</text>
</g>
<!-- ExpTemp0&#45;&gt;Temp0: T104 -->
<g id="edge25" class="edge"><title>ExpTemp0&#45;&gt;Temp0: T104</title>
<path fill="none" stroke="black" d="M169.651,-216.055C166.725,-208.176 163.174,-198.617 159.897,-189.794"/>
<polygon fill="black" stroke="black" points="163.125,-188.431 156.362,-180.275 156.563,-190.868 163.125,-188.431"/>
</g>
<!-- Temp1: T40 -->
<g id="node35" class="node"><title>Temp1: T40</title>
<ellipse fill="none" stroke="black" cx="282.945" cy="-162" rx="55.4913" ry="18"/>
<text text-anchor="middle" x="282.945" y="-158.3" font-family="Times,serif" font-size="14.00">Temp1: T40</text>
</g>
<!-- ExpTemp1&#45;&gt;Temp1: T40 -->
<g id="edge31" class="edge"><title>ExpTemp1&#45;&gt;Temp1: T40</title>
<path fill="none" stroke="black" d="M291.226,-215.697C290.014,-207.983 288.557,-198.712 287.206,-190.112"/>
<polygon fill="black" stroke="black" points="290.643,-189.44 285.633,-180.104 283.728,-190.526 290.643,-189.44"/>
</g>
<!-- Temp5: T103 -->
<g id="node37" class="node"><title>Temp5: T103</title>
<ellipse fill="none" stroke="black" cx="993.945" cy="-162" rx="59.5901" ry="18"/>
<text text-anchor="middle" x="993.945" y="-158.3" font-family="Times,serif" font-size="14.00">Temp5: T103</text>
</g>
<!-- ExpTemp5&#45;&gt;Temp5: T103 -->
<g id="edge32" class="edge"><title>ExpTemp5&#45;&gt;Temp5: T103</title>
<path fill="none" stroke="black" d="M993.945,-215.697C993.945,-207.983 993.945,-198.712 993.945,-190.112"/>
<polygon fill="black" stroke="black" points="997.445,-190.104 993.945,-180.104 990.445,-190.104 997.445,-190.104"/>
</g>
<!-- Value0: 37 -->
<g id="node39" class="node"><title>Value0: 37</title>
<ellipse fill="none" stroke="black" cx="1121.95" cy="-162" rx="50.0912" ry="18"/>
<text text-anchor="middle" x="1121.95" y="-158.3" font-family="Times,serif" font-size="14.00">Value0: 37</text>
</g>
<!-- ExpConst0&#45;&gt;Value0: 37 -->
<g id="edge35" class="edge"><title>ExpConst0&#45;&gt;Value0: 37</title>
<path fill="none" stroke="black" d="M1118.18,-215.697C1118.73,-207.983 1119.39,-198.712 1120.01,-190.112"/>
<polygon fill="black" stroke="black" points="1123.5,-190.328 1120.72,-180.104 1116.52,-189.83 1123.5,-190.328"/>
</g>
<!-- Temp6: T104 -->
<g id="node41" class="node"><title>Temp6: T104</title>
<ellipse fill="none" stroke="black" cx="1249.95" cy="-162" rx="59.5901" ry="18"/>
<text text-anchor="middle" x="1249.95" y="-158.3" font-family="Times,serif" font-size="14.00">Temp6: T104</text>
</g>
<!-- ExpTemp6&#45;&gt;Temp6: T104 -->
<g id="edge36" class="edge"><title>ExpTemp6&#45;&gt;Temp6: T104</title>
<path fill="none" stroke="black" d="M1249.95,-215.697C1249.95,-207.983 1249.95,-198.712 1249.95,-190.112"/>
<polygon fill="black" stroke="black" points="1253.45,-190.104 1249.95,-180.104 1246.45,-190.104 1253.45,-190.104"/>
</g>
<!-- Temp9: T103 -->
<g id="node43" class="node"><title>Temp9: T103</title>
<ellipse fill="none" stroke="black" cx="1621.95" cy="-18" rx="59.5901" ry="18"/>
<text text-anchor="middle" x="1621.95" y="-14.3" font-family="Times,serif" font-size="14.00">Temp9: T103</text>
</g>
<!-- ExpTemp9&#45;&gt;Temp9: T103 -->
<g id="edge42" class="edge"><title>ExpTemp9&#45;&gt;Temp9: T103</title>
<path fill="none" stroke="black" d="M1618.18,-71.6966C1618.73,-63.9827 1619.39,-54.7125 1620.01,-46.1124"/>
<polygon fill="black" stroke="black" points="1623.5,-46.3283 1620.72,-36.1043 1616.52,-45.8295 1623.5,-46.3283"/>
</g>
</g>
</svg>
