<?xml version="1.0" encoding="UTF-8" standalone="no"?>
<!DOCTYPE svg PUBLIC "-//W3C//DTD SVG 1.1//EN"
 "http://www.w3.org/Graphics/SVG/1.1/DTD/svg11.dtd">
<!-- Generated by graphviz version 2.38.0 (20140413.2041)
 -->
<!-- Title: %3 Pages: 1 -->
<svg width="1688pt" height="404pt"
 viewBox="0.00 0.00 1688.09 404.00" xmlns="http://www.w3.org/2000/svg" xmlns:xlink="http://www.w3.org/1999/xlink">
<g id="graph0" class="graph" transform="scale(1 1) rotate(0) translate(4 400)">
<title>%3</title>
<polygon fill="white" stroke="none" points="-4,4 -4,-400 1684.09,-400 1684.09,4 -4,4"/>
<!-- StatCJump0 -->
<g id="node1" class="node"><title>StatCJump0</title>
<ellipse fill="none" stroke="black" cx="1335.05" cy="-306" rx="53.8905" ry="18"/>
<text text-anchor="middle" x="1335.05" y="-302.3" font-family="Times,serif" font-size="14.00">StatCJump0</text>
</g>
<!-- NE0 -->
<g id="node2" class="node"><title>NE0</title>
<ellipse fill="none" stroke="black" cx="1181.05" cy="-234" rx="27" ry="18"/>
<text text-anchor="middle" x="1181.05" y="-230.3" font-family="Times,serif" font-size="14.00">NE0</text>
</g>
<!-- StatCJump0&#45;&gt;NE0 -->
<g id="edge1" class="edge"><title>StatCJump0&#45;&gt;NE0</title>
<path fill="none" stroke="black" d="M1303.92,-291.212C1280.08,-280.608 1246.42,-265.53 1217.05,-252 1215.26,-251.176 1213.42,-250.324 1211.57,-249.462"/>
<polygon fill="black" stroke="black" points="1212.87,-246.21 1202.33,-245.135 1209.9,-252.548 1212.87,-246.21"/>
</g>
<!-- ExpTemp8 -->
<g id="node3" class="node"><title>ExpTemp8</title>
<ellipse fill="none" stroke="black" cx="1276.05" cy="-234" rx="50.0912" ry="18"/>
<text text-anchor="middle" x="1276.05" y="-230.3" font-family="Times,serif" font-size="14.00">ExpTemp8</text>
</g>
<!-- StatCJump0&#45;&gt;ExpTemp8 -->
<g id="edge2" class="edge"><title>StatCJump0&#45;&gt;ExpTemp8</title>
<path fill="none" stroke="black" d="M1321.06,-288.411C1313.72,-279.693 1304.57,-268.845 1296.45,-259.208"/>
<polygon fill="black" stroke="black" points="1299.05,-256.861 1289.93,-251.47 1293.7,-261.372 1299.05,-256.861"/>
</g>
<!-- ExpConst1 -->
<g id="node4" class="node"><title>ExpConst1</title>
<ellipse fill="none" stroke="black" cx="1394.05" cy="-234" rx="50.0912" ry="18"/>
<text text-anchor="middle" x="1394.05" y="-230.3" font-family="Times,serif" font-size="14.00">ExpConst1</text>
</g>
<!-- StatCJump0&#45;&gt;ExpConst1 -->
<g id="edge3" class="edge"><title>StatCJump0&#45;&gt;ExpConst1</title>
<path fill="none" stroke="black" d="M1349.03,-288.411C1356.38,-279.693 1365.52,-268.845 1373.64,-259.208"/>
<polygon fill="black" stroke="black" points="1376.4,-261.372 1380.16,-251.47 1371.04,-256.861 1376.4,-261.372"/>
</g>
<!-- Label2: L0 -->
<g id="node5" class="node"><title>Label2: L0</title>
<ellipse fill="none" stroke="black" cx="1512.05" cy="-234" rx="50.0912" ry="18"/>
<text text-anchor="middle" x="1512.05" y="-230.3" font-family="Times,serif" font-size="14.00">Label2: L0</text>
</g>
<!-- StatCJump0&#45;&gt;Label2: L0 -->
<g id="edge4" class="edge"><title>StatCJump0&#45;&gt;Label2: L0</title>
<path fill="none" stroke="black" d="M1368.34,-291.834C1397.07,-280.469 1438.74,-263.992 1469.81,-251.702"/>
<polygon fill="black" stroke="black" points="1471.49,-254.803 1479.5,-247.871 1468.91,-248.294 1471.49,-254.803"/>
</g>
<!-- Label3: L1 -->
<g id="node6" class="node"><title>Label3: L1</title>
<ellipse fill="none" stroke="black" cx="1630.05" cy="-234" rx="50.0912" ry="18"/>
<text text-anchor="middle" x="1630.05" y="-230.3" font-family="Times,serif" font-size="14.00">Label3: L1</text>
</g>
<!-- StatCJump0&#45;&gt;Label3: L1 -->
<g id="edge5" class="edge"><title>StatCJump0&#45;&gt;Label3: L1</title>
<path fill="none" stroke="black" d="M1379.6,-295.822C1427.19,-285.826 1504.74,-268.982 1571.05,-252 1574.89,-251.016 1578.86,-249.96 1582.84,-248.872"/>
<polygon fill="black" stroke="black" points="1583.99,-252.184 1592.68,-246.129 1582.11,-245.441 1583.99,-252.184"/>
</g>
<!-- Temp8: T43 -->
<g id="node37" class="node"><title>Temp8: T43</title>
<ellipse fill="none" stroke="black" cx="1276.05" cy="-162" rx="55.4913" ry="18"/>
<text text-anchor="middle" x="1276.05" y="-158.3" font-family="Times,serif" font-size="14.00">Temp8: T43</text>
</g>
<!-- ExpTemp8&#45;&gt;Temp8: T43 -->
<g id="edge33" class="edge"><title>ExpTemp8&#45;&gt;Temp8: T43</title>
<path fill="none" stroke="black" d="M1276.05,-215.697C1276.05,-207.983 1276.05,-198.712 1276.05,-190.112"/>
<polygon fill="black" stroke="black" points="1279.55,-190.104 1276.05,-180.104 1272.55,-190.104 1279.55,-190.104"/>
</g>
<!-- Value1: 0 -->
<g id="node35" class="node"><title>Value1: 0</title>
<ellipse fill="none" stroke="black" cx="1395.05" cy="-162" rx="45.4919" ry="18"/>
<text text-anchor="middle" x="1395.05" y="-158.3" font-family="Times,serif" font-size="14.00">Value1: 0</text>
</g>
<!-- ExpConst1&#45;&gt;Value1: 0 -->
<g id="edge30" class="edge"><title>ExpConst1&#45;&gt;Value1: 0</title>
<path fill="none" stroke="black" d="M1394.29,-215.697C1394.4,-207.983 1394.54,-198.712 1394.66,-190.112"/>
<polygon fill="black" stroke="black" points="1398.16,-190.153 1394.8,-180.104 1391.16,-190.053 1398.16,-190.153"/>
</g>
<!-- ExpList0 -->
<g id="node7" class="node"><title>ExpList0</title>
<ellipse fill="none" stroke="black" cx="1160.05" cy="-162" rx="42.7926" ry="18"/>
<text text-anchor="middle" x="1160.05" y="-158.3" font-family="Times,serif" font-size="14.00">ExpList0</text>
</g>
<!-- ExpTemp6 -->
<g id="node8" class="node"><title>ExpTemp6</title>
<ellipse fill="none" stroke="black" cx="1160.05" cy="-90" rx="50.0912" ry="18"/>
<text text-anchor="middle" x="1160.05" y="-86.3" font-family="Times,serif" font-size="14.00">ExpTemp6</text>
</g>
<!-- ExpList0&#45;&gt;ExpTemp6 -->
<g id="edge6" class="edge"><title>ExpList0&#45;&gt;ExpTemp6</title>
<path fill="none" stroke="black" d="M1160.05,-143.697C1160.05,-135.983 1160.05,-126.712 1160.05,-118.112"/>
<polygon fill="black" stroke="black" points="1163.55,-118.104 1160.05,-108.104 1156.55,-118.104 1163.55,-118.104"/>
</g>
<!-- ExpTemp7 -->
<g id="node9" class="node"><title>ExpTemp7</title>
<ellipse fill="none" stroke="black" cx="1288.05" cy="-90" rx="50.0912" ry="18"/>
<text text-anchor="middle" x="1288.05" y="-86.3" font-family="Times,serif" font-size="14.00">ExpTemp7</text>
</g>
<!-- ExpList0&#45;&gt;ExpTemp7 -->
<g id="edge7" class="edge"><title>ExpList0&#45;&gt;ExpTemp7</title>
<path fill="none" stroke="black" d="M1185.03,-147.337C1204.38,-136.754 1231.43,-121.961 1252.96,-110.189"/>
<polygon fill="black" stroke="black" points="1254.71,-113.219 1261.8,-105.35 1251.35,-107.078 1254.71,-113.219"/>
</g>
<!-- Temp6: T102 -->
<g id="node10" class="node"><title>Temp6: T102</title>
<ellipse fill="none" stroke="black" cx="1155.05" cy="-18" rx="59.5901" ry="18"/>
<text text-anchor="middle" x="1155.05" y="-14.3" font-family="Times,serif" font-size="14.00">Temp6: T102</text>
</g>
<!-- ExpTemp6&#45;&gt;Temp6: T102 -->
<g id="edge8" class="edge"><title>ExpTemp6&#45;&gt;Temp6: T102</title>
<path fill="none" stroke="black" d="M1158.81,-71.6966C1158.26,-63.9827 1157.6,-54.7125 1156.98,-46.1124"/>
<polygon fill="black" stroke="black" points="1160.47,-45.8295 1156.27,-36.1043 1153.49,-46.3283 1160.47,-45.8295"/>
</g>
<!-- Temp7: T103 -->
<g id="node11" class="node"><title>Temp7: T103</title>
<ellipse fill="none" stroke="black" cx="1293.05" cy="-18" rx="59.5901" ry="18"/>
<text text-anchor="middle" x="1293.05" y="-14.3" font-family="Times,serif" font-size="14.00">Temp7: T103</text>
</g>
<!-- ExpTemp7&#45;&gt;Temp7: T103 -->
<g id="edge9" class="edge"><title>ExpTemp7&#45;&gt;Temp7: T103</title>
<path fill="none" stroke="black" d="M1289.28,-71.6966C1289.83,-63.9827 1290.49,-54.7125 1291.11,-46.1124"/>
<polygon fill="black" stroke="black" points="1294.6,-46.3283 1291.82,-36.1043 1287.62,-45.8295 1294.6,-46.3283"/>
</g>
<!-- ExpName0 -->
<g id="node12" class="node"><title>ExpName0</title>
<ellipse fill="none" stroke="black" cx="1048.05" cy="-162" rx="50.8918" ry="18"/>
<text text-anchor="middle" x="1048.05" y="-158.3" font-family="Times,serif" font-size="14.00">ExpName0</text>
</g>
<!-- Label1: BS@Search -->
<g id="node13" class="node"><title>Label1: BS@Search</title>
<ellipse fill="none" stroke="black" cx="1009.05" cy="-90" rx="83.3857" ry="18"/>
<text text-anchor="middle" x="1009.05" y="-86.3" font-family="Times,serif" font-size="14.00">Label1: BS@Search</text>
</g>
<!-- ExpName0&#45;&gt;Label1: BS@Search -->
<g id="edge10" class="edge"><title>ExpName0&#45;&gt;Label1: BS@Search</title>
<path fill="none" stroke="black" d="M1038.6,-144.055C1034.12,-136.007 1028.66,-126.205 1023.66,-117.226"/>
<polygon fill="black" stroke="black" points="1026.59,-115.308 1018.67,-108.275 1020.48,-118.714 1026.59,-115.308"/>
</g>
<!-- StatMove3 -->
<g id="node14" class="node"><title>StatMove3</title>
<ellipse fill="none" stroke="black" cx="920.046" cy="-306" rx="50.0912" ry="18"/>
<text text-anchor="middle" x="920.046" y="-302.3" font-family="Times,serif" font-size="14.00">StatMove3</text>
</g>
<!-- ExpTemp5 -->
<g id="node15" class="node"><title>ExpTemp5</title>
<ellipse fill="none" stroke="black" cx="920.046" cy="-234" rx="50.0912" ry="18"/>
<text text-anchor="middle" x="920.046" y="-230.3" font-family="Times,serif" font-size="14.00">ExpTemp5</text>
</g>
<!-- StatMove3&#45;&gt;ExpTemp5 -->
<g id="edge11" class="edge"><title>StatMove3&#45;&gt;ExpTemp5</title>
<path fill="none" stroke="black" d="M920.046,-287.697C920.046,-279.983 920.046,-270.712 920.046,-262.112"/>
<polygon fill="black" stroke="black" points="923.546,-262.104 920.046,-252.104 916.546,-262.104 923.546,-262.104"/>
</g>
<!-- ExpCall0 -->
<g id="node16" class="node"><title>ExpCall0</title>
<ellipse fill="none" stroke="black" cx="1048.05" cy="-234" rx="44.393" ry="18"/>
<text text-anchor="middle" x="1048.05" y="-230.3" font-family="Times,serif" font-size="14.00">ExpCall0</text>
</g>
<!-- StatMove3&#45;&gt;ExpCall0 -->
<g id="edge12" class="edge"><title>StatMove3&#45;&gt;ExpCall0</title>
<path fill="none" stroke="black" d="M946.257,-290.666C965.753,-280.004 992.538,-265.356 1013.74,-253.762"/>
<polygon fill="black" stroke="black" points="1015.65,-256.707 1022.74,-248.838 1012.29,-250.566 1015.65,-256.707"/>
</g>
<!-- Temp5: T104 -->
<g id="node17" class="node"><title>Temp5: T104</title>
<ellipse fill="none" stroke="black" cx="920.046" cy="-162" rx="59.5901" ry="18"/>
<text text-anchor="middle" x="920.046" y="-158.3" font-family="Times,serif" font-size="14.00">Temp5: T104</text>
</g>
<!-- ExpTemp5&#45;&gt;Temp5: T104 -->
<g id="edge13" class="edge"><title>ExpTemp5&#45;&gt;Temp5: T104</title>
<path fill="none" stroke="black" d="M920.046,-215.697C920.046,-207.983 920.046,-198.712 920.046,-190.112"/>
<polygon fill="black" stroke="black" points="923.546,-190.104 920.046,-180.104 916.546,-190.104 923.546,-190.104"/>
</g>
<!-- ExpCall0&#45;&gt;ExpList0 -->
<g id="edge36" class="edge"><title>ExpCall0&#45;&gt;ExpList0</title>
<path fill="none" stroke="black" d="M1071.25,-218.496C1087.77,-208.172 1110.17,-194.174 1128.33,-182.819"/>
<polygon fill="black" stroke="black" points="1130.24,-185.753 1136.87,-177.485 1126.53,-179.818 1130.24,-185.753"/>
</g>
<!-- ExpCall0&#45;&gt;ExpName0 -->
<g id="edge35" class="edge"><title>ExpCall0&#45;&gt;ExpName0</title>
<path fill="none" stroke="black" d="M1048.05,-215.697C1048.05,-207.983 1048.05,-198.712 1048.05,-190.112"/>
<polygon fill="black" stroke="black" points="1051.55,-190.104 1048.05,-180.104 1044.55,-190.104 1051.55,-190.104"/>
</g>
<!-- ExpConst0 -->
<g id="node18" class="node"><title>ExpConst0</title>
<ellipse fill="none" stroke="black" cx="787.046" cy="-234" rx="50.0912" ry="18"/>
<text text-anchor="middle" x="787.046" y="-230.3" font-family="Times,serif" font-size="14.00">ExpConst0</text>
</g>
<!-- Value0: 50 -->
<g id="node19" class="node"><title>Value0: 50</title>
<ellipse fill="none" stroke="black" cx="792.046" cy="-162" rx="50.0912" ry="18"/>
<text text-anchor="middle" x="792.046" y="-158.3" font-family="Times,serif" font-size="14.00">Value0: 50</text>
</g>
<!-- ExpConst0&#45;&gt;Value0: 50 -->
<g id="edge14" class="edge"><title>ExpConst0&#45;&gt;Value0: 50</title>
<path fill="none" stroke="black" d="M788.282,-215.697C788.833,-207.983 789.495,-198.712 790.109,-190.112"/>
<polygon fill="black" stroke="black" points="793.602,-190.328 790.824,-180.104 786.62,-189.83 793.602,-190.328"/>
</g>
<!-- StatMove0 -->
<g id="node20" class="node"><title>StatMove0</title>
<ellipse fill="none" stroke="black" cx="286.046" cy="-306" rx="50.0912" ry="18"/>
<text text-anchor="middle" x="286.046" y="-302.3" font-family="Times,serif" font-size="14.00">StatMove0</text>
</g>
<!-- ExpTemp0 -->
<g id="node21" class="node"><title>ExpTemp0</title>
<ellipse fill="none" stroke="black" cx="168.046" cy="-234" rx="50.0912" ry="18"/>
<text text-anchor="middle" x="168.046" y="-230.3" font-family="Times,serif" font-size="14.00">ExpTemp0</text>
</g>
<!-- StatMove0&#45;&gt;ExpTemp0 -->
<g id="edge15" class="edge"><title>StatMove0&#45;&gt;ExpTemp0</title>
<path fill="none" stroke="black" d="M261.309,-290.326C243.923,-280.012 220.463,-266.095 201.422,-254.8"/>
<polygon fill="black" stroke="black" points="203.136,-251.747 192.75,-249.655 199.564,-257.767 203.136,-251.747"/>
</g>
<!-- ExpTemp1 -->
<g id="node22" class="node"><title>ExpTemp1</title>
<ellipse fill="none" stroke="black" cx="286.046" cy="-234" rx="50.0912" ry="18"/>
<text text-anchor="middle" x="286.046" y="-230.3" font-family="Times,serif" font-size="14.00">ExpTemp1</text>
</g>
<!-- StatMove0&#45;&gt;ExpTemp1 -->
<g id="edge16" class="edge"><title>StatMove0&#45;&gt;ExpTemp1</title>
<path fill="none" stroke="black" d="M286.046,-287.697C286.046,-279.983 286.046,-270.712 286.046,-262.112"/>
<polygon fill="black" stroke="black" points="289.546,-262.104 286.046,-252.104 282.546,-262.104 289.546,-262.104"/>
</g>
<!-- Temp0: T104 -->
<g id="node23" class="node"><title>Temp0: T104</title>
<ellipse fill="none" stroke="black" cx="142.046" cy="-162" rx="59.5901" ry="18"/>
<text text-anchor="middle" x="142.046" y="-158.3" font-family="Times,serif" font-size="14.00">Temp0: T104</text>
</g>
<!-- ExpTemp0&#45;&gt;Temp0: T104 -->
<g id="edge17" class="edge"><title>ExpTemp0&#45;&gt;Temp0: T104</title>
<path fill="none" stroke="black" d="M161.752,-216.055C158.825,-208.176 155.275,-198.617 151.998,-189.794"/>
<polygon fill="black" stroke="black" points="155.225,-188.431 148.462,-180.275 148.663,-190.868 155.225,-188.431"/>
</g>
<!-- Temp1: T43 -->
<g id="node34" class="node"><title>Temp1: T43</title>
<ellipse fill="none" stroke="black" cx="275.046" cy="-162" rx="55.4913" ry="18"/>
<text text-anchor="middle" x="275.046" y="-158.3" font-family="Times,serif" font-size="14.00">Temp1: T43</text>
</g>
<!-- ExpTemp1&#45;&gt;Temp1: T43 -->
<g id="edge29" class="edge"><title>ExpTemp1&#45;&gt;Temp1: T43</title>
<path fill="none" stroke="black" d="M283.326,-215.697C282.114,-207.983 280.658,-198.712 279.306,-190.112"/>
<polygon fill="black" stroke="black" points="282.743,-189.44 277.733,-180.104 275.828,-190.526 282.743,-189.44"/>
</g>
<!-- StatList0 -->
<g id="node24" class="node"><title>StatList0</title>
<ellipse fill="none" stroke="black" cx="600.046" cy="-378" rx="42.4939" ry="18"/>
<text text-anchor="middle" x="600.046" y="-374.3" font-family="Times,serif" font-size="14.00">StatList0</text>
</g>
<!-- StatList0&#45;&gt;StatCJump0 -->
<g id="edge23" class="edge"><title>StatList0&#45;&gt;StatCJump0</title>
<path fill="none" stroke="black" d="M640.873,-373.112C763.338,-361.448 1128.09,-326.71 1273.86,-312.827"/>
<polygon fill="black" stroke="black" points="1274.35,-316.297 1283.97,-311.864 1273.68,-309.328 1274.35,-316.297"/>
</g>
<!-- StatList0&#45;&gt;StatMove3 -->
<g id="edge22" class="edge"><title>StatList0&#45;&gt;StatMove3</title>
<path fill="none" stroke="black" d="M636.754,-368.97C693.71,-356.511 803.554,-332.482 868.459,-318.285"/>
<polygon fill="black" stroke="black" points="869.454,-321.65 878.475,-316.094 867.958,-314.811 869.454,-321.65"/>
</g>
<!-- StatList0&#45;&gt;StatMove0 -->
<g id="edge19" class="edge"><title>StatList0&#45;&gt;StatMove0</title>
<path fill="none" stroke="black" d="M563.411,-368.833C507.515,-356.372 400.747,-332.57 337.223,-318.409"/>
<polygon fill="black" stroke="black" points="337.935,-314.982 327.413,-316.222 336.412,-321.814 337.935,-314.982"/>
</g>
<!-- StatLabel0 -->
<g id="node25" class="node"><title>StatLabel0</title>
<ellipse fill="none" stroke="black" cx="110.046" cy="-306" rx="48.9926" ry="18"/>
<text text-anchor="middle" x="110.046" y="-302.3" font-family="Times,serif" font-size="14.00">StatLabel0</text>
</g>
<!-- StatList0&#45;&gt;StatLabel0 -->
<g id="edge18" class="edge"><title>StatList0&#45;&gt;StatLabel0</title>
<path fill="none" stroke="black" d="M560.566,-371.432C492.485,-361.821 348.599,-341.467 227.046,-324 206.63,-321.066 184.215,-317.817 164.516,-314.951"/>
<polygon fill="black" stroke="black" points="164.887,-311.468 154.487,-313.491 163.879,-318.395 164.887,-311.468"/>
</g>
<!-- StatMove1 -->
<g id="node26" class="node"><title>StatMove1</title>
<ellipse fill="none" stroke="black" cx="536.046" cy="-306" rx="50.0912" ry="18"/>
<text text-anchor="middle" x="536.046" y="-302.3" font-family="Times,serif" font-size="14.00">StatMove1</text>
</g>
<!-- StatList0&#45;&gt;StatMove1 -->
<g id="edge20" class="edge"><title>StatList0&#45;&gt;StatMove1</title>
<path fill="none" stroke="black" d="M585.202,-360.765C577.16,-351.969 567.066,-340.928 558.12,-331.144"/>
<polygon fill="black" stroke="black" points="560.584,-328.652 551.253,-323.633 555.418,-333.375 560.584,-328.652"/>
</g>
<!-- StatMove2 -->
<g id="node27" class="node"><title>StatMove2</title>
<ellipse fill="none" stroke="black" cx="664.046" cy="-306" rx="50.0912" ry="18"/>
<text text-anchor="middle" x="664.046" y="-302.3" font-family="Times,serif" font-size="14.00">StatMove2</text>
</g>
<!-- StatList0&#45;&gt;StatMove2 -->
<g id="edge21" class="edge"><title>StatList0&#45;&gt;StatMove2</title>
<path fill="none" stroke="black" d="M614.889,-360.765C622.931,-351.969 633.025,-340.928 641.971,-331.144"/>
<polygon fill="black" stroke="black" points="644.673,-333.375 648.838,-323.633 639.507,-328.652 644.673,-333.375"/>
</g>
<!-- Label0: L5 -->
<g id="node28" class="node"><title>Label0: L5</title>
<ellipse fill="none" stroke="black" cx="50.0456" cy="-234" rx="50.0912" ry="18"/>
<text text-anchor="middle" x="50.0456" y="-230.3" font-family="Times,serif" font-size="14.00">Label0: L5</text>
</g>
<!-- StatLabel0&#45;&gt;Label0: L5 -->
<g id="edge24" class="edge"><title>StatLabel0&#45;&gt;Label0: L5</title>
<path fill="none" stroke="black" d="M95.8264,-288.411C88.3541,-279.693 79.0559,-268.845 70.795,-259.208"/>
<polygon fill="black" stroke="black" points="73.328,-256.785 64.1627,-251.47 68.0132,-261.34 73.328,-256.785"/>
</g>
<!-- ExpTemp2 -->
<g id="node30" class="node"><title>ExpTemp2</title>
<ellipse fill="none" stroke="black" cx="414.046" cy="-234" rx="50.0912" ry="18"/>
<text text-anchor="middle" x="414.046" y="-230.3" font-family="Times,serif" font-size="14.00">ExpTemp2</text>
</g>
<!-- StatMove1&#45;&gt;ExpTemp2 -->
<g id="edge31" class="edge"><title>StatMove1&#45;&gt;ExpTemp2</title>
<path fill="none" stroke="black" d="M510.47,-290.326C492.414,-279.965 468.02,-265.969 448.287,-254.646"/>
<polygon fill="black" stroke="black" points="450.003,-251.596 439.587,-249.655 446.519,-257.668 450.003,-251.596"/>
</g>
<!-- ExpMem0 -->
<g id="node36" class="node"><title>ExpMem0</title>
<ellipse fill="none" stroke="black" cx="536.046" cy="-234" rx="48.9926" ry="18"/>
<text text-anchor="middle" x="536.046" y="-230.3" font-family="Times,serif" font-size="14.00">ExpMem0</text>
</g>
<!-- StatMove1&#45;&gt;ExpMem0 -->
<g id="edge32" class="edge"><title>StatMove1&#45;&gt;ExpMem0</title>
<path fill="none" stroke="black" d="M536.046,-287.697C536.046,-279.983 536.046,-270.712 536.046,-262.112"/>
<polygon fill="black" stroke="black" points="539.546,-262.104 536.046,-252.104 532.546,-262.104 539.546,-262.104"/>
</g>
<!-- StatMove2&#45;&gt;ExpConst0 -->
<g id="edge26" class="edge"><title>StatMove2&#45;&gt;ExpConst0</title>
<path fill="none" stroke="black" d="M689.531,-290.496C707.715,-280.147 732.385,-266.107 752.362,-254.739"/>
<polygon fill="black" stroke="black" points="754.209,-257.714 761.169,-249.726 750.747,-251.631 754.209,-257.714"/>
</g>
<!-- ExpTemp4 -->
<g id="node29" class="node"><title>ExpTemp4</title>
<ellipse fill="none" stroke="black" cx="664.046" cy="-234" rx="50.0912" ry="18"/>
<text text-anchor="middle" x="664.046" y="-230.3" font-family="Times,serif" font-size="14.00">ExpTemp4</text>
</g>
<!-- StatMove2&#45;&gt;ExpTemp4 -->
<g id="edge25" class="edge"><title>StatMove2&#45;&gt;ExpTemp4</title>
<path fill="none" stroke="black" d="M664.046,-287.697C664.046,-279.983 664.046,-270.712 664.046,-262.112"/>
<polygon fill="black" stroke="black" points="667.546,-262.104 664.046,-252.104 660.546,-262.104 667.546,-262.104"/>
</g>
<!-- Temp4: T103 -->
<g id="node38" class="node"><title>Temp4: T103</title>
<ellipse fill="none" stroke="black" cx="664.046" cy="-162" rx="59.5901" ry="18"/>
<text text-anchor="middle" x="664.046" y="-158.3" font-family="Times,serif" font-size="14.00">Temp4: T103</text>
</g>
<!-- ExpTemp4&#45;&gt;Temp4: T103 -->
<g id="edge37" class="edge"><title>ExpTemp4&#45;&gt;Temp4: T103</title>
<path fill="none" stroke="black" d="M664.046,-215.697C664.046,-207.983 664.046,-198.712 664.046,-190.112"/>
<polygon fill="black" stroke="black" points="667.546,-190.104 664.046,-180.104 660.546,-190.104 667.546,-190.104"/>
</g>
<!-- Temp2: T102 -->
<g id="node31" class="node"><title>Temp2: T102</title>
<ellipse fill="none" stroke="black" cx="408.046" cy="-162" rx="59.5901" ry="18"/>
<text text-anchor="middle" x="408.046" y="-158.3" font-family="Times,serif" font-size="14.00">Temp2: T102</text>
</g>
<!-- ExpTemp2&#45;&gt;Temp2: T102 -->
<g id="edge27" class="edge"><title>ExpTemp2&#45;&gt;Temp2: T102</title>
<path fill="none" stroke="black" d="M412.562,-215.697C411.901,-207.983 411.107,-198.712 410.369,-190.112"/>
<polygon fill="black" stroke="black" points="413.853,-189.769 409.512,-180.104 406.879,-190.367 413.853,-189.769"/>
</g>
<!-- ExpTemp3 -->
<g id="node32" class="node"><title>ExpTemp3</title>
<ellipse fill="none" stroke="black" cx="536.046" cy="-162" rx="50.0912" ry="18"/>
<text text-anchor="middle" x="536.046" y="-158.3" font-family="Times,serif" font-size="14.00">ExpTemp3</text>
</g>
<!-- Temp3: $fp -->
<g id="node33" class="node"><title>Temp3: $fp</title>
<ellipse fill="none" stroke="black" cx="536.046" cy="-90" rx="52.7911" ry="18"/>
<text text-anchor="middle" x="536.046" y="-86.3" font-family="Times,serif" font-size="14.00">Temp3: $fp</text>
</g>
<!-- ExpTemp3&#45;&gt;Temp3: $fp -->
<g id="edge28" class="edge"><title>ExpTemp3&#45;&gt;Temp3: $fp</title>
<path fill="none" stroke="black" d="M536.046,-143.697C536.046,-135.983 536.046,-126.712 536.046,-118.112"/>
<polygon fill="black" stroke="black" points="539.546,-118.104 536.046,-108.104 532.546,-118.104 539.546,-118.104"/>
</g>
<!-- ExpMem0&#45;&gt;ExpTemp3 -->
<g id="edge34" class="edge"><title>ExpMem0&#45;&gt;ExpTemp3</title>
<path fill="none" stroke="black" d="M536.046,-215.697C536.046,-207.983 536.046,-198.712 536.046,-190.112"/>
<polygon fill="black" stroke="black" points="539.546,-190.104 536.046,-180.104 532.546,-190.104 539.546,-190.104"/>
</g>
</g>
</svg>
