<?xml version="1.0" encoding="UTF-8" standalone="no"?>
<!DOCTYPE svg PUBLIC "-//W3C//DTD SVG 1.1//EN"
 "http://www.w3.org/Graphics/SVG/1.1/DTD/svg11.dtd">
<!-- Generated by graphviz version 2.38.0 (20140413.2041)
 -->
<!-- Title: %3 Pages: 1 -->
<svg width="502pt" height="260pt"
 viewBox="0.00 0.00 502.24 260.00" xmlns="http://www.w3.org/2000/svg" xmlns:xlink="http://www.w3.org/1999/xlink">
<g id="graph0" class="graph" transform="scale(1 1) rotate(0) translate(4 256)">
<title>%3</title>
<polygon fill="white" stroke="none" points="-4,4 -4,-256 498.239,-256 498.239,4 -4,4"/>
<!-- StatJump0 -->
<g id="node1" class="node"><title>StatJump0</title>
<ellipse fill="none" stroke="black" cx="389.046" cy="-162" rx="48.1917" ry="18"/>
<text text-anchor="middle" x="389.046" y="-158.3" font-family="Times,serif" font-size="14.00">StatJump0</text>
</g>
<!-- Label1: epilogue -->
<g id="node2" class="node"><title>Label1: epilogue</title>
<ellipse fill="none" stroke="black" cx="424.046" cy="-90" rx="70.3881" ry="18"/>
<text text-anchor="middle" x="424.046" y="-86.3" font-family="Times,serif" font-size="14.00">Label1: epilogue</text>
</g>
<!-- StatJump0&#45;&gt;Label1: epilogue -->
<g id="edge1" class="edge"><title>StatJump0&#45;&gt;Label1: epilogue</title>
<path fill="none" stroke="black" d="M397.518,-144.055C401.542,-136.007 406.443,-126.205 410.933,-117.226"/>
<polygon fill="black" stroke="black" points="414.066,-118.785 415.408,-108.275 407.805,-115.654 414.066,-118.785"/>
</g>
<!-- ExpConst0 -->
<g id="node3" class="node"><title>ExpConst0</title>
<ellipse fill="none" stroke="black" cx="286.046" cy="-90" rx="50.0912" ry="18"/>
<text text-anchor="middle" x="286.046" y="-86.3" font-family="Times,serif" font-size="14.00">ExpConst0</text>
</g>
<!-- Value0: 999 -->
<g id="node4" class="node"><title>Value0: 999</title>
<ellipse fill="none" stroke="black" cx="290.046" cy="-18" rx="53.8905" ry="18"/>
<text text-anchor="middle" x="290.046" y="-14.3" font-family="Times,serif" font-size="14.00">Value0: 999</text>
</g>
<!-- ExpConst0&#45;&gt;Value0: 999 -->
<g id="edge2" class="edge"><title>ExpConst0&#45;&gt;Value0: 999</title>
<path fill="none" stroke="black" d="M287.034,-71.6966C287.475,-63.9827 288.005,-54.7125 288.496,-46.1124"/>
<polygon fill="black" stroke="black" points="291.992,-46.2878 289.068,-36.1043 285.003,-45.8883 291.992,-46.2878"/>
</g>
<!-- StatLabel0 -->
<g id="node5" class="node"><title>StatLabel0</title>
<ellipse fill="none" stroke="black" cx="86.0456" cy="-162" rx="48.9926" ry="18"/>
<text text-anchor="middle" x="86.0456" y="-158.3" font-family="Times,serif" font-size="14.00">StatLabel0</text>
</g>
<!-- Label0: L2 -->
<g id="node6" class="node"><title>Label0: L2</title>
<ellipse fill="none" stroke="black" cx="50.0456" cy="-90" rx="50.0912" ry="18"/>
<text text-anchor="middle" x="50.0456" y="-86.3" font-family="Times,serif" font-size="14.00">Label0: L2</text>
</g>
<!-- StatLabel0&#45;&gt;Label0: L2 -->
<g id="edge3" class="edge"><title>StatLabel0&#45;&gt;Label0: L2</title>
<path fill="none" stroke="black" d="M77.331,-144.055C73.1301,-135.887 68.0001,-125.912 63.3267,-116.824"/>
<polygon fill="black" stroke="black" points="66.3659,-115.081 58.6799,-107.789 60.1409,-118.283 66.3659,-115.081"/>
</g>
<!-- StatList0 -->
<g id="node7" class="node"><title>StatList0</title>
<ellipse fill="none" stroke="black" cx="203.046" cy="-234" rx="42.4939" ry="18"/>
<text text-anchor="middle" x="203.046" y="-230.3" font-family="Times,serif" font-size="14.00">StatList0</text>
</g>
<!-- StatList0&#45;&gt;StatJump0 -->
<g id="edge6" class="edge"><title>StatList0&#45;&gt;StatJump0</title>
<path fill="none" stroke="black" d="M233.76,-221.441C264.563,-209.848 312.238,-191.906 346.637,-178.96"/>
<polygon fill="black" stroke="black" points="348.281,-182.081 356.407,-175.283 345.815,-175.53 348.281,-182.081"/>
</g>
<!-- StatList0&#45;&gt;StatLabel0 -->
<g id="edge4" class="edge"><title>StatList0&#45;&gt;StatLabel0</title>
<path fill="none" stroke="black" d="M179.65,-219.003C162.379,-208.67 138.631,-194.461 119.377,-182.942"/>
<polygon fill="black" stroke="black" points="120.989,-179.828 110.61,-177.697 117.395,-185.835 120.989,-179.828"/>
</g>
<!-- StatMove0 -->
<g id="node8" class="node"><title>StatMove0</title>
<ellipse fill="none" stroke="black" cx="203.046" cy="-162" rx="50.0912" ry="18"/>
<text text-anchor="middle" x="203.046" y="-158.3" font-family="Times,serif" font-size="14.00">StatMove0</text>
</g>
<!-- StatList0&#45;&gt;StatMove0 -->
<g id="edge5" class="edge"><title>StatList0&#45;&gt;StatMove0</title>
<path fill="none" stroke="black" d="M203.046,-215.697C203.046,-207.983 203.046,-198.712 203.046,-190.112"/>
<polygon fill="black" stroke="black" points="206.546,-190.104 203.046,-180.104 199.546,-190.104 206.546,-190.104"/>
</g>
<!-- StatMove0&#45;&gt;ExpConst0 -->
<g id="edge9" class="edge"><title>StatMove0&#45;&gt;ExpConst0</title>
<path fill="none" stroke="black" d="M221.88,-145.116C233.022,-135.718 247.31,-123.669 259.573,-113.326"/>
<polygon fill="black" stroke="black" points="261.898,-115.944 267.286,-106.821 257.385,-110.593 261.898,-115.944"/>
</g>
<!-- ExpTemp0 -->
<g id="node9" class="node"><title>ExpTemp0</title>
<ellipse fill="none" stroke="black" cx="168.046" cy="-90" rx="50.0912" ry="18"/>
<text text-anchor="middle" x="168.046" y="-86.3" font-family="Times,serif" font-size="14.00">ExpTemp0</text>
</g>
<!-- StatMove0&#45;&gt;ExpTemp0 -->
<g id="edge8" class="edge"><title>StatMove0&#45;&gt;ExpTemp0</title>
<path fill="none" stroke="black" d="M194.573,-144.055C190.489,-135.887 185.501,-125.912 180.958,-116.824"/>
<polygon fill="black" stroke="black" points="184.043,-115.168 176.44,-107.789 177.782,-118.299 184.043,-115.168"/>
</g>
<!-- Temp0: $rv -->
<g id="node10" class="node"><title>Temp0: $rv</title>
<ellipse fill="none" stroke="black" cx="165.046" cy="-18" rx="52.7911" ry="18"/>
<text text-anchor="middle" x="165.046" y="-14.3" font-family="Times,serif" font-size="14.00">Temp0: $rv</text>
</g>
<!-- ExpTemp0&#45;&gt;Temp0: $rv -->
<g id="edge7" class="edge"><title>ExpTemp0&#45;&gt;Temp0: $rv</title>
<path fill="none" stroke="black" d="M167.304,-71.6966C166.973,-63.9827 166.576,-54.7125 166.208,-46.1124"/>
<polygon fill="black" stroke="black" points="169.704,-45.9453 165.779,-36.1043 162.71,-46.2451 169.704,-45.9453"/>
</g>
</g>
</svg>
