<?xml version="1.0" encoding="UTF-8" standalone="no"?>
<!DOCTYPE svg PUBLIC "-//W3C//DTD SVG 1.1//EN"
 "http://www.w3.org/Graphics/SVG/1.1/DTD/svg11.dtd">
<!-- Generated by graphviz version 2.38.0 (20140413.2041)
 -->
<!-- Title: %3 Pages: 1 -->
<svg width="1070pt" height="404pt"
 viewBox="0.00 0.00 1070.19 404.00" xmlns="http://www.w3.org/2000/svg" xmlns:xlink="http://www.w3.org/1999/xlink">
<g id="graph0" class="graph" transform="scale(1 1) rotate(0) translate(4 400)">
<title>%3</title>
<polygon fill="white" stroke="none" points="-4,4 -4,-400 1066.19,-400 1066.19,4 -4,4"/>
<!-- StatJump0 -->
<g id="node1" class="node"><title>StatJump0</title>
<ellipse fill="none" stroke="black" cx="969.945" cy="-306" rx="48.1917" ry="18"/>
<text text-anchor="middle" x="969.945" y="-302.3" font-family="Times,serif" font-size="14.00">StatJump0</text>
</g>
<!-- Label2: L23 -->
<g id="node2" class="node"><title>Label2: L23</title>
<ellipse fill="none" stroke="black" cx="1006.95" cy="-234" rx="53.8905" ry="18"/>
<text text-anchor="middle" x="1006.95" y="-230.3" font-family="Times,serif" font-size="14.00">Label2: L23</text>
</g>
<!-- StatJump0&#45;&gt;Label2: L23 -->
<g id="edge1" class="edge"><title>StatJump0&#45;&gt;Label2: L23</title>
<path fill="none" stroke="black" d="M978.902,-288.055C983.219,-279.887 988.492,-269.912 993.295,-260.824"/>
<polygon fill="black" stroke="black" points="996.492,-262.266 998.071,-251.789 990.304,-258.994 996.492,-262.266"/>
</g>
<!-- ExpTemp5 -->
<g id="node3" class="node"><title>ExpTemp5</title>
<ellipse fill="none" stroke="black" cx="884.945" cy="-234" rx="50.0912" ry="18"/>
<text text-anchor="middle" x="884.945" y="-230.3" font-family="Times,serif" font-size="14.00">ExpTemp5</text>
</g>
<!-- Temp5: T23 -->
<g id="node4" class="node"><title>Temp5: T23</title>
<ellipse fill="none" stroke="black" cx="1006.95" cy="-162" rx="55.4913" ry="18"/>
<text text-anchor="middle" x="1006.95" y="-158.3" font-family="Times,serif" font-size="14.00">Temp5: T23</text>
</g>
<!-- ExpTemp5&#45;&gt;Temp5: T23 -->
<g id="edge2" class="edge"><title>ExpTemp5&#45;&gt;Temp5: T23</title>
<path fill="none" stroke="black" d="M910.52,-218.326C928.456,-208.035 952.643,-194.157 972.306,-182.875"/>
<polygon fill="black" stroke="black" points="974.052,-185.909 980.984,-177.896 970.568,-179.837 974.052,-185.909"/>
</g>
<!-- ExpList0 -->
<g id="node5" class="node"><title>ExpList0</title>
<ellipse fill="none" stroke="black" cx="890.945" cy="-162" rx="42.7926" ry="18"/>
<text text-anchor="middle" x="890.945" y="-158.3" font-family="Times,serif" font-size="14.00">ExpList0</text>
</g>
<!-- ExpTemp4 -->
<g id="node6" class="node"><title>ExpTemp4</title>
<ellipse fill="none" stroke="black" cx="896.945" cy="-90" rx="50.0912" ry="18"/>
<text text-anchor="middle" x="896.945" y="-86.3" font-family="Times,serif" font-size="14.00">ExpTemp4</text>
</g>
<!-- ExpList0&#45;&gt;ExpTemp4 -->
<g id="edge3" class="edge"><title>ExpList0&#45;&gt;ExpTemp4</title>
<path fill="none" stroke="black" d="M892.428,-143.697C893.09,-135.983 893.884,-126.712 894.621,-118.112"/>
<polygon fill="black" stroke="black" points="898.112,-118.367 895.479,-108.104 891.138,-117.769 898.112,-118.367"/>
</g>
<!-- Temp4: T56 -->
<g id="node7" class="node"><title>Temp4: T56</title>
<ellipse fill="none" stroke="black" cx="896.945" cy="-18" rx="55.4913" ry="18"/>
<text text-anchor="middle" x="896.945" y="-14.3" font-family="Times,serif" font-size="14.00">Temp4: T56</text>
</g>
<!-- ExpTemp4&#45;&gt;Temp4: T56 -->
<g id="edge4" class="edge"><title>ExpTemp4&#45;&gt;Temp4: T56</title>
<path fill="none" stroke="black" d="M896.945,-71.6966C896.945,-63.9827 896.945,-54.7125 896.945,-46.1124"/>
<polygon fill="black" stroke="black" points="900.445,-46.1043 896.945,-36.1043 893.445,-46.1044 900.445,-46.1043"/>
</g>
<!-- ExpCall0 -->
<g id="node8" class="node"><title>ExpCall0</title>
<ellipse fill="none" stroke="black" cx="772.945" cy="-234" rx="44.393" ry="18"/>
<text text-anchor="middle" x="772.945" y="-230.3" font-family="Times,serif" font-size="14.00">ExpCall0</text>
</g>
<!-- ExpCall0&#45;&gt;ExpList0 -->
<g id="edge6" class="edge"><title>ExpCall0&#45;&gt;ExpList0</title>
<path fill="none" stroke="black" d="M796.824,-218.834C814.498,-208.35 838.782,-193.944 858.256,-182.392"/>
<polygon fill="black" stroke="black" points="860.287,-185.257 867.102,-177.144 856.715,-179.236 860.287,-185.257"/>
</g>
<!-- ExpName0 -->
<g id="node9" class="node"><title>ExpName0</title>
<ellipse fill="none" stroke="black" cx="778.945" cy="-162" rx="50.8918" ry="18"/>
<text text-anchor="middle" x="778.945" y="-158.3" font-family="Times,serif" font-size="14.00">ExpName0</text>
</g>
<!-- ExpCall0&#45;&gt;ExpName0 -->
<g id="edge5" class="edge"><title>ExpCall0&#45;&gt;ExpName0</title>
<path fill="none" stroke="black" d="M774.428,-215.697C775.09,-207.983 775.884,-198.712 776.621,-190.112"/>
<polygon fill="black" stroke="black" points="780.112,-190.367 777.479,-180.104 773.138,-189.769 780.112,-190.367"/>
</g>
<!-- Label1: print -->
<g id="node10" class="node"><title>Label1: print</title>
<ellipse fill="none" stroke="black" cx="771.945" cy="-90" rx="56.59" ry="18"/>
<text text-anchor="middle" x="771.945" y="-86.3" font-family="Times,serif" font-size="14.00">Label1: print</text>
</g>
<!-- ExpName0&#45;&gt;Label1: print -->
<g id="edge7" class="edge"><title>ExpName0&#45;&gt;Label1: print</title>
<path fill="none" stroke="black" d="M777.215,-143.697C776.443,-135.983 775.516,-126.712 774.656,-118.112"/>
<polygon fill="black" stroke="black" points="778.133,-117.706 773.656,-108.104 771.168,-118.403 778.133,-117.706"/>
</g>
<!-- StatMove0 -->
<g id="node11" class="node"><title>StatMove0</title>
<ellipse fill="none" stroke="black" cx="293.945" cy="-306" rx="50.0912" ry="18"/>
<text text-anchor="middle" x="293.945" y="-302.3" font-family="Times,serif" font-size="14.00">StatMove0</text>
</g>
<!-- ExpTemp0 -->
<g id="node12" class="node"><title>ExpTemp0</title>
<ellipse fill="none" stroke="black" cx="175.945" cy="-234" rx="50.0912" ry="18"/>
<text text-anchor="middle" x="175.945" y="-230.3" font-family="Times,serif" font-size="14.00">ExpTemp0</text>
</g>
<!-- StatMove0&#45;&gt;ExpTemp0 -->
<g id="edge8" class="edge"><title>StatMove0&#45;&gt;ExpTemp0</title>
<path fill="none" stroke="black" d="M269.209,-290.326C251.823,-280.012 228.363,-266.095 209.322,-254.8"/>
<polygon fill="black" stroke="black" points="211.036,-251.747 200.649,-249.655 207.464,-257.767 211.036,-251.747"/>
</g>
<!-- ExpTemp1 -->
<g id="node13" class="node"><title>ExpTemp1</title>
<ellipse fill="none" stroke="black" cx="293.945" cy="-234" rx="50.0912" ry="18"/>
<text text-anchor="middle" x="293.945" y="-230.3" font-family="Times,serif" font-size="14.00">ExpTemp1</text>
</g>
<!-- StatMove0&#45;&gt;ExpTemp1 -->
<g id="edge9" class="edge"><title>StatMove0&#45;&gt;ExpTemp1</title>
<path fill="none" stroke="black" d="M293.945,-287.697C293.945,-279.983 293.945,-270.712 293.945,-262.112"/>
<polygon fill="black" stroke="black" points="297.445,-262.104 293.945,-252.104 290.445,-262.104 297.445,-262.104"/>
</g>
<!-- Temp0: T57 -->
<g id="node15" class="node"><title>Temp0: T57</title>
<ellipse fill="none" stroke="black" cx="160.945" cy="-162" rx="55.4913" ry="18"/>
<text text-anchor="middle" x="160.945" y="-158.3" font-family="Times,serif" font-size="14.00">Temp0: T57</text>
</g>
<!-- ExpTemp0&#45;&gt;Temp0: T57 -->
<g id="edge11" class="edge"><title>ExpTemp0&#45;&gt;Temp0: T57</title>
<path fill="none" stroke="black" d="M172.237,-215.697C170.584,-207.983 168.598,-198.712 166.755,-190.112"/>
<polygon fill="black" stroke="black" points="170.128,-189.149 164.61,-180.104 163.283,-190.616 170.128,-189.149"/>
</g>
<!-- Temp1: T23 -->
<g id="node25" class="node"><title>Temp1: T23</title>
<ellipse fill="none" stroke="black" cx="288.945" cy="-162" rx="55.4913" ry="18"/>
<text text-anchor="middle" x="288.945" y="-158.3" font-family="Times,serif" font-size="14.00">Temp1: T23</text>
</g>
<!-- ExpTemp1&#45;&gt;Temp1: T23 -->
<g id="edge21" class="edge"><title>ExpTemp1&#45;&gt;Temp1: T23</title>
<path fill="none" stroke="black" d="M292.709,-215.697C292.158,-207.983 291.496,-198.712 290.882,-190.112"/>
<polygon fill="black" stroke="black" points="294.371,-189.83 290.167,-180.104 287.388,-190.328 294.371,-189.83"/>
</g>
<!-- StatExp0 -->
<g id="node14" class="node"><title>StatExp0</title>
<ellipse fill="none" stroke="black" cx="824.945" cy="-306" rx="42.7926" ry="18"/>
<text text-anchor="middle" x="824.945" y="-302.3" font-family="Times,serif" font-size="14.00">StatExp0</text>
</g>
<!-- StatExp0&#45;&gt;ExpTemp5 -->
<g id="edge10" class="edge"><title>StatExp0&#45;&gt;ExpTemp5</title>
<path fill="none" stroke="black" d="M838.861,-288.765C846.326,-280.056 855.677,-269.147 864.001,-259.435"/>
<polygon fill="black" stroke="black" points="866.837,-261.504 870.688,-251.633 861.523,-256.948 866.837,-261.504"/>
</g>
<!-- StatList0 -->
<g id="node16" class="node"><title>StatList0</title>
<ellipse fill="none" stroke="black" cx="594.945" cy="-378" rx="42.4939" ry="18"/>
<text text-anchor="middle" x="594.945" y="-374.3" font-family="Times,serif" font-size="14.00">StatList0</text>
</g>
<!-- StatList0&#45;&gt;StatJump0 -->
<g id="edge17" class="edge"><title>StatList0&#45;&gt;StatJump0</title>
<path fill="none" stroke="black" d="M632.966,-369.903C700.504,-357.296 841.47,-330.982 917.932,-316.709"/>
<polygon fill="black" stroke="black" points="918.641,-320.137 927.828,-314.862 917.356,-313.256 918.641,-320.137"/>
</g>
<!-- StatList0&#45;&gt;StatMove0 -->
<g id="edge13" class="edge"><title>StatList0&#45;&gt;StatMove0</title>
<path fill="none" stroke="black" d="M558.638,-368.556C505.278,-356.147 405.46,-332.934 344.819,-318.831"/>
<polygon fill="black" stroke="black" points="345.237,-315.335 334.704,-316.479 343.652,-322.153 345.237,-315.335"/>
</g>
<!-- StatList0&#45;&gt;StatExp0 -->
<g id="edge16" class="edge"><title>StatList0&#45;&gt;StatExp0</title>
<path fill="none" stroke="black" d="M628.389,-366.821C668.814,-354.518 736.938,-333.785 781.421,-320.246"/>
<polygon fill="black" stroke="black" points="782.538,-323.565 791.086,-317.305 780.5,-316.868 782.538,-323.565"/>
</g>
<!-- StatLabel0 -->
<g id="node17" class="node"><title>StatLabel0</title>
<ellipse fill="none" stroke="black" cx="115.945" cy="-306" rx="48.9926" ry="18"/>
<text text-anchor="middle" x="115.945" y="-302.3" font-family="Times,serif" font-size="14.00">StatLabel0</text>
</g>
<!-- StatList0&#45;&gt;StatLabel0 -->
<g id="edge12" class="edge"><title>StatList0&#45;&gt;StatLabel0</title>
<path fill="none" stroke="black" d="M555.747,-371.272C470.506,-358.815 268.117,-329.238 170.483,-314.97"/>
<polygon fill="black" stroke="black" points="170.922,-311.497 160.521,-313.514 169.91,-318.424 170.922,-311.497"/>
</g>
<!-- StatMove1 -->
<g id="node18" class="node"><title>StatMove1</title>
<ellipse fill="none" stroke="black" cx="535.945" cy="-306" rx="50.0912" ry="18"/>
<text text-anchor="middle" x="535.945" y="-302.3" font-family="Times,serif" font-size="14.00">StatMove1</text>
</g>
<!-- StatList0&#45;&gt;StatMove1 -->
<g id="edge14" class="edge"><title>StatList0&#45;&gt;StatMove1</title>
<path fill="none" stroke="black" d="M581.261,-360.765C573.921,-352.056 564.726,-341.147 556.54,-331.435"/>
<polygon fill="black" stroke="black" points="559.086,-329.024 549.965,-323.633 553.733,-333.535 559.086,-329.024"/>
</g>
<!-- StatMove2 -->
<g id="node19" class="node"><title>StatMove2</title>
<ellipse fill="none" stroke="black" cx="654.945" cy="-306" rx="50.0912" ry="18"/>
<text text-anchor="middle" x="654.945" y="-302.3" font-family="Times,serif" font-size="14.00">StatMove2</text>
</g>
<!-- StatList0&#45;&gt;StatMove2 -->
<g id="edge15" class="edge"><title>StatList0&#45;&gt;StatMove2</title>
<path fill="none" stroke="black" d="M608.861,-360.765C616.326,-352.056 625.677,-341.147 634.001,-331.435"/>
<polygon fill="black" stroke="black" points="636.837,-333.504 640.688,-323.633 631.523,-328.948 636.837,-333.504"/>
</g>
<!-- Label0: L21 -->
<g id="node20" class="node"><title>Label0: L21</title>
<ellipse fill="none" stroke="black" cx="53.9452" cy="-234" rx="53.8905" ry="18"/>
<text text-anchor="middle" x="53.9452" y="-230.3" font-family="Times,serif" font-size="14.00">Label0: L21</text>
</g>
<!-- StatLabel0&#45;&gt;Label0: L21 -->
<g id="edge18" class="edge"><title>StatLabel0&#45;&gt;Label0: L21</title>
<path fill="none" stroke="black" d="M101.565,-288.765C93.7748,-279.969 83.996,-268.928 75.3299,-259.144"/>
<polygon fill="black" stroke="black" points="77.9281,-256.799 68.6777,-251.633 72.688,-261.44 77.9281,-256.799"/>
</g>
<!-- ExpConst0 -->
<g id="node21" class="node"><title>ExpConst0</title>
<ellipse fill="none" stroke="black" cx="535.945" cy="-234" rx="50.0912" ry="18"/>
<text text-anchor="middle" x="535.945" y="-230.3" font-family="Times,serif" font-size="14.00">ExpConst0</text>
</g>
<!-- StatMove1&#45;&gt;ExpConst0 -->
<g id="edge23" class="edge"><title>StatMove1&#45;&gt;ExpConst0</title>
<path fill="none" stroke="black" d="M535.945,-287.697C535.945,-279.983 535.945,-270.712 535.945,-262.112"/>
<polygon fill="black" stroke="black" points="539.445,-262.104 535.945,-252.104 532.445,-262.104 539.445,-262.104"/>
</g>
<!-- ExpTemp2 -->
<g id="node26" class="node"><title>ExpTemp2</title>
<ellipse fill="none" stroke="black" cx="416.945" cy="-234" rx="50.0912" ry="18"/>
<text text-anchor="middle" x="416.945" y="-230.3" font-family="Times,serif" font-size="14.00">ExpTemp2</text>
</g>
<!-- StatMove1&#45;&gt;ExpTemp2 -->
<g id="edge22" class="edge"><title>StatMove1&#45;&gt;ExpTemp2</title>
<path fill="none" stroke="black" d="M510.999,-290.326C493.466,-280.012 469.807,-266.095 450.605,-254.8"/>
<polygon fill="black" stroke="black" points="452.253,-251.708 441.859,-249.655 448.703,-257.742 452.253,-251.708"/>
</g>
<!-- StatMove2&#45;&gt;ExpCall0 -->
<g id="edge26" class="edge"><title>StatMove2&#45;&gt;ExpCall0</title>
<path fill="none" stroke="black" d="M679.682,-290.326C697.301,-279.874 721.159,-265.721 740.333,-254.346"/>
<polygon fill="black" stroke="black" points="742.232,-257.289 749.047,-249.177 738.661,-251.269 742.232,-257.289"/>
</g>
<!-- ExpTemp3 -->
<g id="node23" class="node"><title>ExpTemp3</title>
<ellipse fill="none" stroke="black" cx="654.945" cy="-234" rx="50.0912" ry="18"/>
<text text-anchor="middle" x="654.945" y="-230.3" font-family="Times,serif" font-size="14.00">ExpTemp3</text>
</g>
<!-- StatMove2&#45;&gt;ExpTemp3 -->
<g id="edge25" class="edge"><title>StatMove2&#45;&gt;ExpTemp3</title>
<path fill="none" stroke="black" d="M654.945,-287.697C654.945,-279.983 654.945,-270.712 654.945,-262.112"/>
<polygon fill="black" stroke="black" points="658.445,-262.104 654.945,-252.104 651.445,-262.104 658.445,-262.104"/>
</g>
<!-- Value0: 1 -->
<g id="node22" class="node"><title>Value0: 1</title>
<ellipse fill="none" stroke="black" cx="535.945" cy="-162" rx="45.4919" ry="18"/>
<text text-anchor="middle" x="535.945" y="-158.3" font-family="Times,serif" font-size="14.00">Value0: 1</text>
</g>
<!-- ExpConst0&#45;&gt;Value0: 1 -->
<g id="edge19" class="edge"><title>ExpConst0&#45;&gt;Value0: 1</title>
<path fill="none" stroke="black" d="M535.945,-215.697C535.945,-207.983 535.945,-198.712 535.945,-190.112"/>
<polygon fill="black" stroke="black" points="539.445,-190.104 535.945,-180.104 532.445,-190.104 539.445,-190.104"/>
</g>
<!-- Temp3: T57 -->
<g id="node24" class="node"><title>Temp3: T57</title>
<ellipse fill="none" stroke="black" cx="654.945" cy="-162" rx="55.4913" ry="18"/>
<text text-anchor="middle" x="654.945" y="-158.3" font-family="Times,serif" font-size="14.00">Temp3: T57</text>
</g>
<!-- ExpTemp3&#45;&gt;Temp3: T57 -->
<g id="edge20" class="edge"><title>ExpTemp3&#45;&gt;Temp3: T57</title>
<path fill="none" stroke="black" d="M654.945,-215.697C654.945,-207.983 654.945,-198.712 654.945,-190.112"/>
<polygon fill="black" stroke="black" points="658.445,-190.104 654.945,-180.104 651.445,-190.104 658.445,-190.104"/>
</g>
<!-- Temp2: T56 -->
<g id="node27" class="node"><title>Temp2: T56</title>
<ellipse fill="none" stroke="black" cx="416.945" cy="-162" rx="55.4913" ry="18"/>
<text text-anchor="middle" x="416.945" y="-158.3" font-family="Times,serif" font-size="14.00">Temp2: T56</text>
</g>
<!-- ExpTemp2&#45;&gt;Temp2: T56 -->
<g id="edge24" class="edge"><title>ExpTemp2&#45;&gt;Temp2: T56</title>
<path fill="none" stroke="black" d="M416.945,-215.697C416.945,-207.983 416.945,-198.712 416.945,-190.112"/>
<polygon fill="black" stroke="black" points="420.445,-190.104 416.945,-180.104 413.445,-190.104 420.445,-190.104"/>
</g>
</g>
</svg>
