<?xml version="1.0" encoding="UTF-8" standalone="no"?>
<!DOCTYPE svg PUBLIC "-//W3C//DTD SVG 1.1//EN"
 "http://www.w3.org/Graphics/SVG/1.1/DTD/svg11.dtd">
<!-- Generated by graphviz version 2.38.0 (20140413.2041)
 -->
<!-- Title: %3 Pages: 1 -->
<svg width="2019pt" height="404pt"
 viewBox="0.00 0.00 2019.09 404.00" xmlns="http://www.w3.org/2000/svg" xmlns:xlink="http://www.w3.org/1999/xlink">
<g id="graph0" class="graph" transform="scale(1 1) rotate(0) translate(4 400)">
<title>%3</title>
<polygon fill="white" stroke="none" points="-4,4 -4,-400 2015.09,-400 2015.09,4 -4,4"/>
<!-- ExpConst1 -->
<g id="node1" class="node"><title>ExpConst1</title>
<ellipse fill="none" stroke="black" cx="1725.05" cy="-234" rx="50.0912" ry="18"/>
<text text-anchor="middle" x="1725.05" y="-230.3" font-family="Times,serif" font-size="14.00">ExpConst1</text>
</g>
<!-- Value1: 0 -->
<g id="node2" class="node"><title>Value1: 0</title>
<ellipse fill="none" stroke="black" cx="1725.05" cy="-162" rx="45.4919" ry="18"/>
<text text-anchor="middle" x="1725.05" y="-158.3" font-family="Times,serif" font-size="14.00">Value1: 0</text>
</g>
<!-- ExpConst1&#45;&gt;Value1: 0 -->
<g id="edge1" class="edge"><title>ExpConst1&#45;&gt;Value1: 0</title>
<path fill="none" stroke="black" d="M1725.05,-215.697C1725.05,-207.983 1725.05,-198.712 1725.05,-190.112"/>
<polygon fill="black" stroke="black" points="1728.55,-190.104 1725.05,-180.104 1721.55,-190.104 1728.55,-190.104"/>
</g>
<!-- ExpCall0 -->
<g id="node3" class="node"><title>ExpCall0</title>
<ellipse fill="none" stroke="black" cx="1370.05" cy="-234" rx="44.393" ry="18"/>
<text text-anchor="middle" x="1370.05" y="-230.3" font-family="Times,serif" font-size="14.00">ExpCall0</text>
</g>
<!-- ExpTemp7 -->
<g id="node4" class="node"><title>ExpTemp7</title>
<ellipse fill="none" stroke="black" cx="1370.05" cy="-162" rx="50.0912" ry="18"/>
<text text-anchor="middle" x="1370.05" y="-158.3" font-family="Times,serif" font-size="14.00">ExpTemp7</text>
</g>
<!-- ExpCall0&#45;&gt;ExpTemp7 -->
<g id="edge2" class="edge"><title>ExpCall0&#45;&gt;ExpTemp7</title>
<path fill="none" stroke="black" d="M1370.05,-215.697C1370.05,-207.983 1370.05,-198.712 1370.05,-190.112"/>
<polygon fill="black" stroke="black" points="1373.55,-190.104 1370.05,-180.104 1366.55,-190.104 1373.55,-190.104"/>
</g>
<!-- ExpList0 -->
<g id="node5" class="node"><title>ExpList0</title>
<ellipse fill="none" stroke="black" cx="1481.05" cy="-162" rx="42.7926" ry="18"/>
<text text-anchor="middle" x="1481.05" y="-158.3" font-family="Times,serif" font-size="14.00">ExpList0</text>
</g>
<!-- ExpCall0&#45;&gt;ExpList0 -->
<g id="edge3" class="edge"><title>ExpCall0&#45;&gt;ExpList0</title>
<path fill="none" stroke="black" d="M1393.04,-218.496C1409.27,-208.266 1431.21,-194.428 1449.13,-183.13"/>
<polygon fill="black" stroke="black" points="1451.48,-185.78 1458.08,-177.485 1447.75,-179.859 1451.48,-185.78"/>
</g>
<!-- Temp7: T121 -->
<g id="node34" class="node"><title>Temp7: T121</title>
<ellipse fill="none" stroke="black" cx="1353.05" cy="-90" rx="59.5901" ry="18"/>
<text text-anchor="middle" x="1353.05" y="-86.3" font-family="Times,serif" font-size="14.00">Temp7: T121</text>
</g>
<!-- ExpTemp7&#45;&gt;Temp7: T121 -->
<g id="edge30" class="edge"><title>ExpTemp7&#45;&gt;Temp7: T121</title>
<path fill="none" stroke="black" d="M1365.93,-144.055C1364.04,-136.261 1361.75,-126.822 1359.62,-118.079"/>
<polygon fill="black" stroke="black" points="1363,-117.167 1357.24,-108.275 1356.2,-118.819 1363,-117.167"/>
</g>
<!-- ExpTemp8 -->
<g id="node11" class="node"><title>ExpTemp8</title>
<ellipse fill="none" stroke="black" cx="1481.05" cy="-90" rx="50.0912" ry="18"/>
<text text-anchor="middle" x="1481.05" y="-86.3" font-family="Times,serif" font-size="14.00">ExpTemp8</text>
</g>
<!-- ExpList0&#45;&gt;ExpTemp8 -->
<g id="edge40" class="edge"><title>ExpList0&#45;&gt;ExpTemp8</title>
<path fill="none" stroke="black" d="M1481.05,-143.697C1481.05,-135.983 1481.05,-126.712 1481.05,-118.112"/>
<polygon fill="black" stroke="black" points="1484.55,-118.104 1481.05,-108.104 1477.55,-118.104 1484.55,-118.104"/>
</g>
<!-- ExpTemp9 -->
<g id="node42" class="node"><title>ExpTemp9</title>
<ellipse fill="none" stroke="black" cx="1609.05" cy="-90" rx="50.0912" ry="18"/>
<text text-anchor="middle" x="1609.05" y="-86.3" font-family="Times,serif" font-size="14.00">ExpTemp9</text>
</g>
<!-- ExpList0&#45;&gt;ExpTemp9 -->
<g id="edge41" class="edge"><title>ExpList0&#45;&gt;ExpTemp9</title>
<path fill="none" stroke="black" d="M1506.03,-147.337C1525.38,-136.754 1552.43,-121.961 1573.96,-110.189"/>
<polygon fill="black" stroke="black" points="1575.71,-113.219 1582.8,-105.35 1572.35,-107.078 1575.71,-113.219"/>
</g>
<!-- StatCJump0 -->
<g id="node6" class="node"><title>StatCJump0</title>
<ellipse fill="none" stroke="black" cx="1663.05" cy="-306" rx="53.8905" ry="18"/>
<text text-anchor="middle" x="1663.05" y="-302.3" font-family="Times,serif" font-size="14.00">StatCJump0</text>
</g>
<!-- StatCJump0&#45;&gt;ExpConst1 -->
<g id="edge6" class="edge"><title>StatCJump0&#45;&gt;ExpConst1</title>
<path fill="none" stroke="black" d="M1677.74,-288.411C1685.46,-279.693 1695.07,-268.845 1703.6,-259.208"/>
<polygon fill="black" stroke="black" points="1706.45,-261.276 1710.46,-251.47 1701.21,-256.635 1706.45,-261.276"/>
</g>
<!-- NE0 -->
<g id="node7" class="node"><title>NE0</title>
<ellipse fill="none" stroke="black" cx="1502.05" cy="-234" rx="27" ry="18"/>
<text text-anchor="middle" x="1502.05" y="-230.3" font-family="Times,serif" font-size="14.00">NE0</text>
</g>
<!-- StatCJump0&#45;&gt;NE0 -->
<g id="edge4" class="edge"><title>StatCJump0&#45;&gt;NE0</title>
<path fill="none" stroke="black" d="M1630.52,-291.628C1605.2,-281.119 1569.24,-265.971 1538.05,-252 1536.25,-251.195 1534.4,-250.358 1532.55,-249.507"/>
<polygon fill="black" stroke="black" points="1533.84,-246.25 1523.3,-245.21 1530.89,-252.598 1533.84,-246.25"/>
</g>
<!-- ExpTemp10 -->
<g id="node8" class="node"><title>ExpTemp10</title>
<ellipse fill="none" stroke="black" cx="1602.05" cy="-234" rx="54.6905" ry="18"/>
<text text-anchor="middle" x="1602.05" y="-230.3" font-family="Times,serif" font-size="14.00">ExpTemp10</text>
</g>
<!-- StatCJump0&#45;&gt;ExpTemp10 -->
<g id="edge5" class="edge"><title>StatCJump0&#45;&gt;ExpTemp10</title>
<path fill="none" stroke="black" d="M1648.59,-288.411C1640.99,-279.693 1631.54,-268.845 1623.14,-259.208"/>
<polygon fill="black" stroke="black" points="1625.61,-256.71 1616.4,-251.47 1620.33,-261.309 1625.61,-256.71"/>
</g>
<!-- Label2: L3 -->
<g id="node9" class="node"><title>Label2: L3</title>
<ellipse fill="none" stroke="black" cx="1843.05" cy="-234" rx="50.0912" ry="18"/>
<text text-anchor="middle" x="1843.05" y="-230.3" font-family="Times,serif" font-size="14.00">Label2: L3</text>
</g>
<!-- StatCJump0&#45;&gt;Label2: L3 -->
<g id="edge7" class="edge"><title>StatCJump0&#45;&gt;Label2: L3</title>
<path fill="none" stroke="black" d="M1696.9,-291.834C1726.34,-280.384 1769.13,-263.745 1800.81,-251.427"/>
<polygon fill="black" stroke="black" points="1802.2,-254.64 1810.25,-247.753 1799.66,-248.116 1802.2,-254.64"/>
</g>
<!-- Label3: L4 -->
<g id="node10" class="node"><title>Label3: L4</title>
<ellipse fill="none" stroke="black" cx="1961.05" cy="-234" rx="50.0912" ry="18"/>
<text text-anchor="middle" x="1961.05" y="-230.3" font-family="Times,serif" font-size="14.00">Label3: L4</text>
</g>
<!-- StatCJump0&#45;&gt;Label3: L4 -->
<g id="edge8" class="edge"><title>StatCJump0&#45;&gt;Label3: L4</title>
<path fill="none" stroke="black" d="M1708.17,-295.868C1756.38,-285.909 1834.91,-269.098 1902.05,-252 1905.89,-251.022 1909.86,-249.969 1913.84,-248.884"/>
<polygon fill="black" stroke="black" points="1914.99,-252.196 1923.69,-246.144 1913.12,-245.452 1914.99,-252.196"/>
</g>
<!-- Temp10: T46 -->
<g id="node18" class="node"><title>Temp10: T46</title>
<ellipse fill="none" stroke="black" cx="1602.05" cy="-162" rx="59.5901" ry="18"/>
<text text-anchor="middle" x="1602.05" y="-158.3" font-family="Times,serif" font-size="14.00">Temp10: T46</text>
</g>
<!-- ExpTemp10&#45;&gt;Temp10: T46 -->
<g id="edge13" class="edge"><title>ExpTemp10&#45;&gt;Temp10: T46</title>
<path fill="none" stroke="black" d="M1602.05,-215.697C1602.05,-207.983 1602.05,-198.712 1602.05,-190.112"/>
<polygon fill="black" stroke="black" points="1605.55,-190.104 1602.05,-180.104 1598.55,-190.104 1605.55,-190.104"/>
</g>
<!-- Temp8: T122 -->
<g id="node12" class="node"><title>Temp8: T122</title>
<ellipse fill="none" stroke="black" cx="1476.05" cy="-18" rx="59.5901" ry="18"/>
<text text-anchor="middle" x="1476.05" y="-14.3" font-family="Times,serif" font-size="14.00">Temp8: T122</text>
</g>
<!-- ExpTemp8&#45;&gt;Temp8: T122 -->
<g id="edge9" class="edge"><title>ExpTemp8&#45;&gt;Temp8: T122</title>
<path fill="none" stroke="black" d="M1479.81,-71.6966C1479.26,-63.9827 1478.6,-54.7125 1477.98,-46.1124"/>
<polygon fill="black" stroke="black" points="1481.47,-45.8295 1477.27,-36.1043 1474.49,-46.3283 1481.47,-45.8295"/>
</g>
<!-- StatMove1 -->
<g id="node13" class="node"><title>StatMove1</title>
<ellipse fill="none" stroke="black" cx="536.046" cy="-306" rx="50.0912" ry="18"/>
<text text-anchor="middle" x="536.046" y="-302.3" font-family="Times,serif" font-size="14.00">StatMove1</text>
</g>
<!-- ExpTemp2 -->
<g id="node14" class="node"><title>ExpTemp2</title>
<ellipse fill="none" stroke="black" cx="414.046" cy="-234" rx="50.0912" ry="18"/>
<text text-anchor="middle" x="414.046" y="-230.3" font-family="Times,serif" font-size="14.00">ExpTemp2</text>
</g>
<!-- StatMove1&#45;&gt;ExpTemp2 -->
<g id="edge10" class="edge"><title>StatMove1&#45;&gt;ExpTemp2</title>
<path fill="none" stroke="black" d="M510.47,-290.326C492.414,-279.965 468.02,-265.969 448.287,-254.646"/>
<polygon fill="black" stroke="black" points="450.003,-251.596 439.587,-249.655 446.519,-257.668 450.003,-251.596"/>
</g>
<!-- ExpMem0 -->
<g id="node15" class="node"><title>ExpMem0</title>
<ellipse fill="none" stroke="black" cx="536.046" cy="-234" rx="48.9926" ry="18"/>
<text text-anchor="middle" x="536.046" y="-230.3" font-family="Times,serif" font-size="14.00">ExpMem0</text>
</g>
<!-- StatMove1&#45;&gt;ExpMem0 -->
<g id="edge11" class="edge"><title>StatMove1&#45;&gt;ExpMem0</title>
<path fill="none" stroke="black" d="M536.046,-287.697C536.046,-279.983 536.046,-270.712 536.046,-262.112"/>
<polygon fill="black" stroke="black" points="539.546,-262.104 536.046,-252.104 532.546,-262.104 539.546,-262.104"/>
</g>
<!-- Temp2: T122 -->
<g id="node19" class="node"><title>Temp2: T122</title>
<ellipse fill="none" stroke="black" cx="408.046" cy="-162" rx="59.5901" ry="18"/>
<text text-anchor="middle" x="408.046" y="-158.3" font-family="Times,serif" font-size="14.00">Temp2: T122</text>
</g>
<!-- ExpTemp2&#45;&gt;Temp2: T122 -->
<g id="edge14" class="edge"><title>ExpTemp2&#45;&gt;Temp2: T122</title>
<path fill="none" stroke="black" d="M412.562,-215.697C411.901,-207.983 411.107,-198.712 410.369,-190.112"/>
<polygon fill="black" stroke="black" points="413.853,-189.769 409.512,-180.104 406.879,-190.367 413.853,-189.769"/>
</g>
<!-- ExpTemp3 -->
<g id="node16" class="node"><title>ExpTemp3</title>
<ellipse fill="none" stroke="black" cx="536.046" cy="-162" rx="50.0912" ry="18"/>
<text text-anchor="middle" x="536.046" y="-158.3" font-family="Times,serif" font-size="14.00">ExpTemp3</text>
</g>
<!-- ExpMem0&#45;&gt;ExpTemp3 -->
<g id="edge37" class="edge"><title>ExpMem0&#45;&gt;ExpTemp3</title>
<path fill="none" stroke="black" d="M536.046,-215.697C536.046,-207.983 536.046,-198.712 536.046,-190.112"/>
<polygon fill="black" stroke="black" points="539.546,-190.104 536.046,-180.104 532.546,-190.104 539.546,-190.104"/>
</g>
<!-- Temp3: $fp -->
<g id="node17" class="node"><title>Temp3: $fp</title>
<ellipse fill="none" stroke="black" cx="536.046" cy="-90" rx="52.7911" ry="18"/>
<text text-anchor="middle" x="536.046" y="-86.3" font-family="Times,serif" font-size="14.00">Temp3: $fp</text>
</g>
<!-- ExpTemp3&#45;&gt;Temp3: $fp -->
<g id="edge12" class="edge"><title>ExpTemp3&#45;&gt;Temp3: $fp</title>
<path fill="none" stroke="black" d="M536.046,-143.697C536.046,-135.983 536.046,-126.712 536.046,-118.112"/>
<polygon fill="black" stroke="black" points="539.546,-118.104 536.046,-108.104 532.546,-118.104 539.546,-118.104"/>
</g>
<!-- StatMove2 -->
<g id="node20" class="node"><title>StatMove2</title>
<ellipse fill="none" stroke="black" cx="744.046" cy="-306" rx="50.0912" ry="18"/>
<text text-anchor="middle" x="744.046" y="-302.3" font-family="Times,serif" font-size="14.00">StatMove2</text>
</g>
<!-- ExpTemp4 -->
<g id="node21" class="node"><title>ExpTemp4</title>
<ellipse fill="none" stroke="black" cx="674.046" cy="-234" rx="50.0912" ry="18"/>
<text text-anchor="middle" x="674.046" y="-230.3" font-family="Times,serif" font-size="14.00">ExpTemp4</text>
</g>
<!-- StatMove2&#45;&gt;ExpTemp4 -->
<g id="edge15" class="edge"><title>StatMove2&#45;&gt;ExpTemp4</title>
<path fill="none" stroke="black" d="M727.81,-288.765C718.799,-279.753 707.431,-268.385 697.472,-258.426"/>
<polygon fill="black" stroke="black" points="699.739,-255.744 690.193,-251.147 694.789,-260.693 699.739,-255.744"/>
</g>
<!-- ExpName0 -->
<g id="node22" class="node"><title>ExpName0</title>
<ellipse fill="none" stroke="black" cx="814.046" cy="-234" rx="50.8918" ry="18"/>
<text text-anchor="middle" x="814.046" y="-230.3" font-family="Times,serif" font-size="14.00">ExpName0</text>
</g>
<!-- StatMove2&#45;&gt;ExpName0 -->
<g id="edge16" class="edge"><title>StatMove2&#45;&gt;ExpName0</title>
<path fill="none" stroke="black" d="M760.281,-288.765C769.293,-279.753 780.66,-268.385 790.619,-258.426"/>
<polygon fill="black" stroke="black" points="793.302,-260.693 797.898,-251.147 788.352,-255.744 793.302,-260.693"/>
</g>
<!-- Temp4: T121 -->
<g id="node33" class="node"><title>Temp4: T121</title>
<ellipse fill="none" stroke="black" cx="664.046" cy="-162" rx="59.5901" ry="18"/>
<text text-anchor="middle" x="664.046" y="-158.3" font-family="Times,serif" font-size="14.00">Temp4: T121</text>
</g>
<!-- ExpTemp4&#45;&gt;Temp4: T121 -->
<g id="edge29" class="edge"><title>ExpTemp4&#45;&gt;Temp4: T121</title>
<path fill="none" stroke="black" d="M671.574,-215.697C670.472,-207.983 669.147,-198.712 667.919,-190.112"/>
<polygon fill="black" stroke="black" points="671.368,-189.509 666.489,-180.104 664.439,-190.499 671.368,-189.509"/>
</g>
<!-- Label1: BS@Search -->
<g id="node32" class="node"><title>Label1: BS@Search</title>
<ellipse fill="none" stroke="black" cx="825.046" cy="-162" rx="83.3857" ry="18"/>
<text text-anchor="middle" x="825.046" y="-158.3" font-family="Times,serif" font-size="14.00">Label1: BS@Search</text>
</g>
<!-- ExpName0&#45;&gt;Label1: BS@Search -->
<g id="edge28" class="edge"><title>ExpName0&#45;&gt;Label1: BS@Search</title>
<path fill="none" stroke="black" d="M816.765,-215.697C817.977,-207.983 819.434,-198.712 820.785,-190.112"/>
<polygon fill="black" stroke="black" points="824.263,-190.526 822.358,-180.104 817.348,-189.44 824.263,-190.526"/>
</g>
<!-- StatLabel0 -->
<g id="node23" class="node"><title>StatLabel0</title>
<ellipse fill="none" stroke="black" cx="110.046" cy="-306" rx="48.9926" ry="18"/>
<text text-anchor="middle" x="110.046" y="-302.3" font-family="Times,serif" font-size="14.00">StatLabel0</text>
</g>
<!-- Label0: L8 -->
<g id="node24" class="node"><title>Label0: L8</title>
<ellipse fill="none" stroke="black" cx="50.0456" cy="-234" rx="50.0912" ry="18"/>
<text text-anchor="middle" x="50.0456" y="-230.3" font-family="Times,serif" font-size="14.00">Label0: L8</text>
</g>
<!-- StatLabel0&#45;&gt;Label0: L8 -->
<g id="edge17" class="edge"><title>StatLabel0&#45;&gt;Label0: L8</title>
<path fill="none" stroke="black" d="M95.8264,-288.411C88.3541,-279.693 79.0559,-268.845 70.795,-259.208"/>
<polygon fill="black" stroke="black" points="73.328,-256.785 64.1627,-251.47 68.0132,-261.34 73.328,-256.785"/>
</g>
<!-- StatList0 -->
<g id="node25" class="node"><title>StatList0</title>
<ellipse fill="none" stroke="black" cx="744.046" cy="-378" rx="42.4939" ry="18"/>
<text text-anchor="middle" x="744.046" y="-374.3" font-family="Times,serif" font-size="14.00">StatList0</text>
</g>
<!-- StatList0&#45;&gt;StatCJump0 -->
<g id="edge24" class="edge"><title>StatList0&#45;&gt;StatCJump0</title>
<path fill="none" stroke="black" d="M785.318,-373.856C931.626,-362.712 1426.08,-325.049 1601.05,-311.722"/>
<polygon fill="black" stroke="black" points="1601.42,-315.204 1611.13,-310.955 1600.89,-308.224 1601.42,-315.204"/>
</g>
<!-- StatList0&#45;&gt;StatMove1 -->
<g id="edge20" class="edge"><title>StatList0&#45;&gt;StatMove1</title>
<path fill="none" stroke="black" d="M712.001,-366.216C676.914,-354.407 620.392,-335.386 580.906,-322.097"/>
<polygon fill="black" stroke="black" points="581.852,-318.723 571.258,-318.85 579.62,-325.357 581.852,-318.723"/>
</g>
<!-- StatList0&#45;&gt;StatMove2 -->
<g id="edge21" class="edge"><title>StatList0&#45;&gt;StatMove2</title>
<path fill="none" stroke="black" d="M744.046,-359.697C744.046,-351.983 744.046,-342.712 744.046,-334.112"/>
<polygon fill="black" stroke="black" points="747.546,-334.104 744.046,-324.104 740.546,-334.104 747.546,-334.104"/>
</g>
<!-- StatList0&#45;&gt;StatLabel0 -->
<g id="edge18" class="edge"><title>StatList0&#45;&gt;StatLabel0</title>
<path fill="none" stroke="black" d="M703.097,-373.393C615.583,-365.555 403.893,-345.903 227.046,-324 206.49,-321.454 183.96,-318.274 164.207,-315.355"/>
<polygon fill="black" stroke="black" points="164.562,-311.869 154.155,-313.857 163.53,-318.793 164.562,-311.869"/>
</g>
<!-- StatMove0 -->
<g id="node26" class="node"><title>StatMove0</title>
<ellipse fill="none" stroke="black" cx="286.046" cy="-306" rx="50.0912" ry="18"/>
<text text-anchor="middle" x="286.046" y="-302.3" font-family="Times,serif" font-size="14.00">StatMove0</text>
</g>
<!-- StatList0&#45;&gt;StatMove0 -->
<g id="edge19" class="edge"><title>StatList0&#45;&gt;StatMove0</title>
<path fill="none" stroke="black" d="M704.997,-371.032C623.575,-358.587 435.453,-329.835 341.512,-315.477"/>
<polygon fill="black" stroke="black" points="341.769,-311.976 331.355,-313.925 340.711,-318.896 341.769,-311.976"/>
</g>
<!-- StatMove3 -->
<g id="node27" class="node"><title>StatMove3</title>
<ellipse fill="none" stroke="black" cx="986.046" cy="-306" rx="50.0912" ry="18"/>
<text text-anchor="middle" x="986.046" y="-302.3" font-family="Times,serif" font-size="14.00">StatMove3</text>
</g>
<!-- StatList0&#45;&gt;StatMove3 -->
<g id="edge22" class="edge"><title>StatList0&#45;&gt;StatMove3</title>
<path fill="none" stroke="black" d="M777.949,-367.193C819.847,-355.074 891.384,-334.382 938.687,-320.699"/>
<polygon fill="black" stroke="black" points="939.761,-324.032 948.394,-317.891 937.816,-317.307 939.761,-324.032"/>
</g>
<!-- StatMove4 -->
<g id="node28" class="node"><title>StatMove4</title>
<ellipse fill="none" stroke="black" cx="1242.05" cy="-306" rx="50.0912" ry="18"/>
<text text-anchor="middle" x="1242.05" y="-302.3" font-family="Times,serif" font-size="14.00">StatMove4</text>
</g>
<!-- StatList0&#45;&gt;StatMove4 -->
<g id="edge23" class="edge"><title>StatList0&#45;&gt;StatMove4</title>
<path fill="none" stroke="black" d="M783.539,-371.449C871.616,-359.068 1084.34,-329.167 1186.06,-314.87"/>
<polygon fill="black" stroke="black" points="1186.72,-318.312 1196.13,-313.454 1185.74,-311.38 1186.72,-318.312"/>
</g>
<!-- ExpTemp0 -->
<g id="node29" class="node"><title>ExpTemp0</title>
<ellipse fill="none" stroke="black" cx="168.046" cy="-234" rx="50.0912" ry="18"/>
<text text-anchor="middle" x="168.046" y="-230.3" font-family="Times,serif" font-size="14.00">ExpTemp0</text>
</g>
<!-- StatMove0&#45;&gt;ExpTemp0 -->
<g id="edge26" class="edge"><title>StatMove0&#45;&gt;ExpTemp0</title>
<path fill="none" stroke="black" d="M261.309,-290.326C243.923,-280.012 220.463,-266.095 201.422,-254.8"/>
<polygon fill="black" stroke="black" points="203.136,-251.747 192.75,-249.655 199.564,-257.767 203.136,-251.747"/>
</g>
<!-- ExpTemp1 -->
<g id="node31" class="node"><title>ExpTemp1</title>
<ellipse fill="none" stroke="black" cx="286.046" cy="-234" rx="50.0912" ry="18"/>
<text text-anchor="middle" x="286.046" y="-230.3" font-family="Times,serif" font-size="14.00">ExpTemp1</text>
</g>
<!-- StatMove0&#45;&gt;ExpTemp1 -->
<g id="edge27" class="edge"><title>StatMove0&#45;&gt;ExpTemp1</title>
<path fill="none" stroke="black" d="M286.046,-287.697C286.046,-279.983 286.046,-270.712 286.046,-262.112"/>
<polygon fill="black" stroke="black" points="289.546,-262.104 286.046,-252.104 282.546,-262.104 289.546,-262.104"/>
</g>
<!-- ExpTemp5 -->
<g id="node36" class="node"><title>ExpTemp5</title>
<ellipse fill="none" stroke="black" cx="986.046" cy="-234" rx="50.0912" ry="18"/>
<text text-anchor="middle" x="986.046" y="-230.3" font-family="Times,serif" font-size="14.00">ExpTemp5</text>
</g>
<!-- StatMove3&#45;&gt;ExpTemp5 -->
<g id="edge33" class="edge"><title>StatMove3&#45;&gt;ExpTemp5</title>
<path fill="none" stroke="black" d="M986.046,-287.697C986.046,-279.983 986.046,-270.712 986.046,-262.112"/>
<polygon fill="black" stroke="black" points="989.546,-262.104 986.046,-252.104 982.546,-262.104 989.546,-262.104"/>
</g>
<!-- ExpConst0 -->
<g id="node38" class="node"><title>ExpConst0</title>
<ellipse fill="none" stroke="black" cx="1109.05" cy="-234" rx="50.0912" ry="18"/>
<text text-anchor="middle" x="1109.05" y="-230.3" font-family="Times,serif" font-size="14.00">ExpConst0</text>
</g>
<!-- StatMove3&#45;&gt;ExpConst0 -->
<g id="edge34" class="edge"><title>StatMove3&#45;&gt;ExpConst0</title>
<path fill="none" stroke="black" d="M1011.53,-290.496C1029.72,-280.147 1054.39,-266.107 1074.36,-254.739"/>
<polygon fill="black" stroke="black" points="1076.21,-257.714 1083.17,-249.726 1072.75,-251.631 1076.21,-257.714"/>
</g>
<!-- StatMove4&#45;&gt;ExpCall0 -->
<g id="edge39" class="edge"><title>StatMove4&#45;&gt;ExpCall0</title>
<path fill="none" stroke="black" d="M1268.26,-290.666C1287.75,-280.004 1314.54,-265.356 1335.74,-253.762"/>
<polygon fill="black" stroke="black" points="1337.65,-256.707 1344.74,-248.838 1334.29,-250.566 1337.65,-256.707"/>
</g>
<!-- ExpTemp6 -->
<g id="node40" class="node"><title>ExpTemp6</title>
<ellipse fill="none" stroke="black" cx="1242.05" cy="-234" rx="50.0912" ry="18"/>
<text text-anchor="middle" x="1242.05" y="-230.3" font-family="Times,serif" font-size="14.00">ExpTemp6</text>
</g>
<!-- StatMove4&#45;&gt;ExpTemp6 -->
<g id="edge38" class="edge"><title>StatMove4&#45;&gt;ExpTemp6</title>
<path fill="none" stroke="black" d="M1242.05,-287.697C1242.05,-279.983 1242.05,-270.712 1242.05,-262.112"/>
<polygon fill="black" stroke="black" points="1245.55,-262.104 1242.05,-252.104 1238.55,-262.104 1245.55,-262.104"/>
</g>
<!-- Temp0: T124 -->
<g id="node30" class="node"><title>Temp0: T124</title>
<ellipse fill="none" stroke="black" cx="142.046" cy="-162" rx="59.5901" ry="18"/>
<text text-anchor="middle" x="142.046" y="-158.3" font-family="Times,serif" font-size="14.00">Temp0: T124</text>
</g>
<!-- ExpTemp0&#45;&gt;Temp0: T124 -->
<g id="edge25" class="edge"><title>ExpTemp0&#45;&gt;Temp0: T124</title>
<path fill="none" stroke="black" d="M161.752,-216.055C158.825,-208.176 155.275,-198.617 151.998,-189.794"/>
<polygon fill="black" stroke="black" points="155.225,-188.431 148.462,-180.275 148.663,-190.868 155.225,-188.431"/>
</g>
<!-- Temp1: T46 -->
<g id="node35" class="node"><title>Temp1: T46</title>
<ellipse fill="none" stroke="black" cx="275.046" cy="-162" rx="55.4913" ry="18"/>
<text text-anchor="middle" x="275.046" y="-158.3" font-family="Times,serif" font-size="14.00">Temp1: T46</text>
</g>
<!-- ExpTemp1&#45;&gt;Temp1: T46 -->
<g id="edge31" class="edge"><title>ExpTemp1&#45;&gt;Temp1: T46</title>
<path fill="none" stroke="black" d="M283.326,-215.697C282.114,-207.983 280.658,-198.712 279.306,-190.112"/>
<polygon fill="black" stroke="black" points="282.743,-189.44 277.733,-180.104 275.828,-190.526 282.743,-189.44"/>
</g>
<!-- Temp5: T123 -->
<g id="node37" class="node"><title>Temp5: T123</title>
<ellipse fill="none" stroke="black" cx="986.046" cy="-162" rx="59.5901" ry="18"/>
<text text-anchor="middle" x="986.046" y="-158.3" font-family="Times,serif" font-size="14.00">Temp5: T123</text>
</g>
<!-- ExpTemp5&#45;&gt;Temp5: T123 -->
<g id="edge32" class="edge"><title>ExpTemp5&#45;&gt;Temp5: T123</title>
<path fill="none" stroke="black" d="M986.046,-215.697C986.046,-207.983 986.046,-198.712 986.046,-190.112"/>
<polygon fill="black" stroke="black" points="989.546,-190.104 986.046,-180.104 982.546,-190.104 989.546,-190.104"/>
</g>
<!-- Value0: 39 -->
<g id="node39" class="node"><title>Value0: 39</title>
<ellipse fill="none" stroke="black" cx="1114.05" cy="-162" rx="50.0912" ry="18"/>
<text text-anchor="middle" x="1114.05" y="-158.3" font-family="Times,serif" font-size="14.00">Value0: 39</text>
</g>
<!-- ExpConst0&#45;&gt;Value0: 39 -->
<g id="edge35" class="edge"><title>ExpConst0&#45;&gt;Value0: 39</title>
<path fill="none" stroke="black" d="M1110.28,-215.697C1110.83,-207.983 1111.49,-198.712 1112.11,-190.112"/>
<polygon fill="black" stroke="black" points="1115.6,-190.328 1112.82,-180.104 1108.62,-189.83 1115.6,-190.328"/>
</g>
<!-- Temp6: T124 -->
<g id="node41" class="node"><title>Temp6: T124</title>
<ellipse fill="none" stroke="black" cx="1242.05" cy="-162" rx="59.5901" ry="18"/>
<text text-anchor="middle" x="1242.05" y="-158.3" font-family="Times,serif" font-size="14.00">Temp6: T124</text>
</g>
<!-- ExpTemp6&#45;&gt;Temp6: T124 -->
<g id="edge36" class="edge"><title>ExpTemp6&#45;&gt;Temp6: T124</title>
<path fill="none" stroke="black" d="M1242.05,-215.697C1242.05,-207.983 1242.05,-198.712 1242.05,-190.112"/>
<polygon fill="black" stroke="black" points="1245.55,-190.104 1242.05,-180.104 1238.55,-190.104 1245.55,-190.104"/>
</g>
<!-- Temp9: T123 -->
<g id="node43" class="node"><title>Temp9: T123</title>
<ellipse fill="none" stroke="black" cx="1614.05" cy="-18" rx="59.5901" ry="18"/>
<text text-anchor="middle" x="1614.05" y="-14.3" font-family="Times,serif" font-size="14.00">Temp9: T123</text>
</g>
<!-- ExpTemp9&#45;&gt;Temp9: T123 -->
<g id="edge42" class="edge"><title>ExpTemp9&#45;&gt;Temp9: T123</title>
<path fill="none" stroke="black" d="M1610.28,-71.6966C1610.83,-63.9827 1611.49,-54.7125 1612.11,-46.1124"/>
<polygon fill="black" stroke="black" points="1615.6,-46.3283 1612.82,-36.1043 1608.62,-45.8295 1615.6,-46.3283"/>
</g>
</g>
</svg>
