<?xml version="1.0" encoding="UTF-8" standalone="no"?>
<!DOCTYPE svg PUBLIC "-//W3C//DTD SVG 1.1//EN"
 "http://www.w3.org/Graphics/SVG/1.1/DTD/svg11.dtd">
<!-- Generated by graphviz version 2.38.0 (20140413.2041)
 -->
<!-- Title: %3 Pages: 1 -->
<svg width="1687pt" height="404pt"
 viewBox="0.00 0.00 1686.89 404.00" xmlns="http://www.w3.org/2000/svg" xmlns:xlink="http://www.w3.org/1999/xlink">
<g id="graph0" class="graph" transform="scale(1 1) rotate(0) translate(4 400)">
<title>%3</title>
<polygon fill="white" stroke="none" points="-4,4 -4,-400 1682.89,-400 1682.89,4 -4,4"/>
<!-- StatCJump0 -->
<g id="node1" class="node"><title>StatCJump0</title>
<ellipse fill="none" stroke="black" cx="1317.95" cy="-306" rx="53.8905" ry="18"/>
<text text-anchor="middle" x="1317.95" y="-302.3" font-family="Times,serif" font-size="14.00">StatCJump0</text>
</g>
<!-- NE0 -->
<g id="node2" class="node"><title>NE0</title>
<ellipse fill="none" stroke="black" cx="1163.95" cy="-234" rx="27" ry="18"/>
<text text-anchor="middle" x="1163.95" y="-230.3" font-family="Times,serif" font-size="14.00">NE0</text>
</g>
<!-- StatCJump0&#45;&gt;NE0 -->
<g id="edge1" class="edge"><title>StatCJump0&#45;&gt;NE0</title>
<path fill="none" stroke="black" d="M1286.82,-291.212C1262.98,-280.608 1229.32,-265.53 1199.95,-252 1198.16,-251.176 1196.32,-250.324 1194.47,-249.462"/>
<polygon fill="black" stroke="black" points="1195.77,-246.21 1185.23,-245.135 1192.8,-252.548 1195.77,-246.21"/>
</g>
<!-- ExpTemp8 -->
<g id="node3" class="node"><title>ExpTemp8</title>
<ellipse fill="none" stroke="black" cx="1258.95" cy="-234" rx="50.0912" ry="18"/>
<text text-anchor="middle" x="1258.95" y="-230.3" font-family="Times,serif" font-size="14.00">ExpTemp8</text>
</g>
<!-- StatCJump0&#45;&gt;ExpTemp8 -->
<g id="edge2" class="edge"><title>StatCJump0&#45;&gt;ExpTemp8</title>
<path fill="none" stroke="black" d="M1303.96,-288.411C1296.62,-279.693 1287.47,-268.845 1279.35,-259.208"/>
<polygon fill="black" stroke="black" points="1281.95,-256.861 1272.83,-251.47 1276.6,-261.372 1281.95,-256.861"/>
</g>
<!-- ExpConst1 -->
<g id="node4" class="node"><title>ExpConst1</title>
<ellipse fill="none" stroke="black" cx="1376.95" cy="-234" rx="50.0912" ry="18"/>
<text text-anchor="middle" x="1376.95" y="-230.3" font-family="Times,serif" font-size="14.00">ExpConst1</text>
</g>
<!-- StatCJump0&#45;&gt;ExpConst1 -->
<g id="edge3" class="edge"><title>StatCJump0&#45;&gt;ExpConst1</title>
<path fill="none" stroke="black" d="M1331.93,-288.411C1339.28,-279.693 1348.42,-268.845 1356.54,-259.208"/>
<polygon fill="black" stroke="black" points="1359.29,-261.372 1363.06,-251.47 1353.94,-256.861 1359.29,-261.372"/>
</g>
<!-- Label2: L18 -->
<g id="node5" class="node"><title>Label2: L18</title>
<ellipse fill="none" stroke="black" cx="1498.95" cy="-234" rx="53.8905" ry="18"/>
<text text-anchor="middle" x="1498.95" y="-230.3" font-family="Times,serif" font-size="14.00">Label2: L18</text>
</g>
<!-- StatCJump0&#45;&gt;Label2: L18 -->
<g id="edge4" class="edge"><title>StatCJump0&#45;&gt;Label2: L18</title>
<path fill="none" stroke="black" d="M1351.99,-291.834C1381.32,-280.492 1423.81,-264.057 1455.57,-251.776"/>
<polygon fill="black" stroke="black" points="1456.99,-254.979 1465.05,-248.107 1454.46,-248.45 1456.99,-254.979"/>
</g>
<!-- Label3: L19 -->
<g id="node6" class="node"><title>Label3: L19</title>
<ellipse fill="none" stroke="black" cx="1624.95" cy="-234" rx="53.8905" ry="18"/>
<text text-anchor="middle" x="1624.95" y="-230.3" font-family="Times,serif" font-size="14.00">Label3: L19</text>
</g>
<!-- StatCJump0&#45;&gt;Label3: L19 -->
<g id="edge5" class="edge"><title>StatCJump0&#45;&gt;Label3: L19</title>
<path fill="none" stroke="black" d="M1363.07,-295.898C1412.16,-285.834 1492.87,-268.811 1561.95,-252 1566.09,-250.99 1570.39,-249.91 1574.69,-248.801"/>
<polygon fill="black" stroke="black" points="1575.9,-252.101 1584.69,-246.181 1574.13,-245.329 1575.9,-252.101"/>
</g>
<!-- Temp8: T25 -->
<g id="node37" class="node"><title>Temp8: T25</title>
<ellipse fill="none" stroke="black" cx="1258.95" cy="-162" rx="55.4913" ry="18"/>
<text text-anchor="middle" x="1258.95" y="-158.3" font-family="Times,serif" font-size="14.00">Temp8: T25</text>
</g>
<!-- ExpTemp8&#45;&gt;Temp8: T25 -->
<g id="edge33" class="edge"><title>ExpTemp8&#45;&gt;Temp8: T25</title>
<path fill="none" stroke="black" d="M1258.95,-215.697C1258.95,-207.983 1258.95,-198.712 1258.95,-190.112"/>
<polygon fill="black" stroke="black" points="1262.45,-190.104 1258.95,-180.104 1255.45,-190.104 1262.45,-190.104"/>
</g>
<!-- Value1: 0 -->
<g id="node35" class="node"><title>Value1: 0</title>
<ellipse fill="none" stroke="black" cx="1377.95" cy="-162" rx="45.4919" ry="18"/>
<text text-anchor="middle" x="1377.95" y="-158.3" font-family="Times,serif" font-size="14.00">Value1: 0</text>
</g>
<!-- ExpConst1&#45;&gt;Value1: 0 -->
<g id="edge30" class="edge"><title>ExpConst1&#45;&gt;Value1: 0</title>
<path fill="none" stroke="black" d="M1377.19,-215.697C1377.3,-207.983 1377.44,-198.712 1377.56,-190.112"/>
<polygon fill="black" stroke="black" points="1381.06,-190.153 1377.7,-180.104 1374.06,-190.053 1381.06,-190.153"/>
</g>
<!-- ExpList0 -->
<g id="node7" class="node"><title>ExpList0</title>
<ellipse fill="none" stroke="black" cx="1142.95" cy="-162" rx="42.7926" ry="18"/>
<text text-anchor="middle" x="1142.95" y="-158.3" font-family="Times,serif" font-size="14.00">ExpList0</text>
</g>
<!-- ExpTemp6 -->
<g id="node8" class="node"><title>ExpTemp6</title>
<ellipse fill="none" stroke="black" cx="1142.95" cy="-90" rx="50.0912" ry="18"/>
<text text-anchor="middle" x="1142.95" y="-86.3" font-family="Times,serif" font-size="14.00">ExpTemp6</text>
</g>
<!-- ExpList0&#45;&gt;ExpTemp6 -->
<g id="edge6" class="edge"><title>ExpList0&#45;&gt;ExpTemp6</title>
<path fill="none" stroke="black" d="M1142.95,-143.697C1142.95,-135.983 1142.95,-126.712 1142.95,-118.112"/>
<polygon fill="black" stroke="black" points="1146.45,-118.104 1142.95,-108.104 1139.45,-118.104 1146.45,-118.104"/>
</g>
<!-- ExpTemp7 -->
<g id="node9" class="node"><title>ExpTemp7</title>
<ellipse fill="none" stroke="black" cx="1265.95" cy="-90" rx="50.0912" ry="18"/>
<text text-anchor="middle" x="1265.95" y="-86.3" font-family="Times,serif" font-size="14.00">ExpTemp7</text>
</g>
<!-- ExpList0&#45;&gt;ExpTemp7 -->
<g id="edge7" class="edge"><title>ExpList0&#45;&gt;ExpTemp7</title>
<path fill="none" stroke="black" d="M1167.54,-147.003C1185.78,-136.623 1210.89,-122.333 1231.18,-110.785"/>
<polygon fill="black" stroke="black" points="1233.16,-113.685 1240.12,-105.697 1229.7,-107.601 1233.16,-113.685"/>
</g>
<!-- Temp6: T60 -->
<g id="node10" class="node"><title>Temp6: T60</title>
<ellipse fill="none" stroke="black" cx="1140.95" cy="-18" rx="55.4913" ry="18"/>
<text text-anchor="middle" x="1140.95" y="-14.3" font-family="Times,serif" font-size="14.00">Temp6: T60</text>
</g>
<!-- ExpTemp6&#45;&gt;Temp6: T60 -->
<g id="edge8" class="edge"><title>ExpTemp6&#45;&gt;Temp6: T60</title>
<path fill="none" stroke="black" d="M1142.45,-71.6966C1142.23,-63.9827 1141.97,-54.7125 1141.72,-46.1124"/>
<polygon fill="black" stroke="black" points="1145.22,-46.0003 1141.43,-36.1043 1138.22,-46.2002 1145.22,-46.0003"/>
</g>
<!-- Temp7: T61 -->
<g id="node11" class="node"><title>Temp7: T61</title>
<ellipse fill="none" stroke="black" cx="1268.95" cy="-18" rx="55.4913" ry="18"/>
<text text-anchor="middle" x="1268.95" y="-14.3" font-family="Times,serif" font-size="14.00">Temp7: T61</text>
</g>
<!-- ExpTemp7&#45;&gt;Temp7: T61 -->
<g id="edge9" class="edge"><title>ExpTemp7&#45;&gt;Temp7: T61</title>
<path fill="none" stroke="black" d="M1266.69,-71.6966C1267.02,-63.9827 1267.41,-54.7125 1267.78,-46.1124"/>
<polygon fill="black" stroke="black" points="1271.28,-46.2451 1268.21,-36.1043 1264.29,-45.9453 1271.28,-46.2451"/>
</g>
<!-- ExpName0 -->
<g id="node12" class="node"><title>ExpName0</title>
<ellipse fill="none" stroke="black" cx="1030.95" cy="-162" rx="50.8918" ry="18"/>
<text text-anchor="middle" x="1030.95" y="-158.3" font-family="Times,serif" font-size="14.00">ExpName0</text>
</g>
<!-- Label1: BS@Search -->
<g id="node13" class="node"><title>Label1: BS@Search</title>
<ellipse fill="none" stroke="black" cx="991.945" cy="-90" rx="83.3857" ry="18"/>
<text text-anchor="middle" x="991.945" y="-86.3" font-family="Times,serif" font-size="14.00">Label1: BS@Search</text>
</g>
<!-- ExpName0&#45;&gt;Label1: BS@Search -->
<g id="edge10" class="edge"><title>ExpName0&#45;&gt;Label1: BS@Search</title>
<path fill="none" stroke="black" d="M1021.5,-144.055C1017.02,-136.007 1011.56,-126.205 1006.56,-117.226"/>
<polygon fill="black" stroke="black" points="1009.49,-115.308 1001.57,-108.275 1003.38,-118.714 1009.49,-115.308"/>
</g>
<!-- StatMove3 -->
<g id="node14" class="node"><title>StatMove3</title>
<ellipse fill="none" stroke="black" cx="906.945" cy="-306" rx="50.0912" ry="18"/>
<text text-anchor="middle" x="906.945" y="-302.3" font-family="Times,serif" font-size="14.00">StatMove3</text>
</g>
<!-- ExpTemp5 -->
<g id="node15" class="node"><title>ExpTemp5</title>
<ellipse fill="none" stroke="black" cx="906.945" cy="-234" rx="50.0912" ry="18"/>
<text text-anchor="middle" x="906.945" y="-230.3" font-family="Times,serif" font-size="14.00">ExpTemp5</text>
</g>
<!-- StatMove3&#45;&gt;ExpTemp5 -->
<g id="edge11" class="edge"><title>StatMove3&#45;&gt;ExpTemp5</title>
<path fill="none" stroke="black" d="M906.945,-287.697C906.945,-279.983 906.945,-270.712 906.945,-262.112"/>
<polygon fill="black" stroke="black" points="910.445,-262.104 906.945,-252.104 903.445,-262.104 910.445,-262.104"/>
</g>
<!-- ExpCall0 -->
<g id="node16" class="node"><title>ExpCall0</title>
<ellipse fill="none" stroke="black" cx="1030.95" cy="-234" rx="44.393" ry="18"/>
<text text-anchor="middle" x="1030.95" y="-230.3" font-family="Times,serif" font-size="14.00">ExpCall0</text>
</g>
<!-- StatMove3&#45;&gt;ExpCall0 -->
<g id="edge12" class="edge"><title>StatMove3&#45;&gt;ExpCall0</title>
<path fill="none" stroke="black" d="M932.638,-290.496C951.339,-279.939 976.845,-265.541 997.19,-254.055"/>
<polygon fill="black" stroke="black" points="999.144,-256.972 1006.13,-249.008 995.703,-250.876 999.144,-256.972"/>
</g>
<!-- Temp5: T62 -->
<g id="node17" class="node"><title>Temp5: T62</title>
<ellipse fill="none" stroke="black" cx="906.945" cy="-162" rx="55.4913" ry="18"/>
<text text-anchor="middle" x="906.945" y="-158.3" font-family="Times,serif" font-size="14.00">Temp5: T62</text>
</g>
<!-- ExpTemp5&#45;&gt;Temp5: T62 -->
<g id="edge13" class="edge"><title>ExpTemp5&#45;&gt;Temp5: T62</title>
<path fill="none" stroke="black" d="M906.945,-215.697C906.945,-207.983 906.945,-198.712 906.945,-190.112"/>
<polygon fill="black" stroke="black" points="910.445,-190.104 906.945,-180.104 903.445,-190.104 910.445,-190.104"/>
</g>
<!-- ExpCall0&#45;&gt;ExpList0 -->
<g id="edge36" class="edge"><title>ExpCall0&#45;&gt;ExpList0</title>
<path fill="none" stroke="black" d="M1054.15,-218.496C1070.67,-208.172 1093.07,-194.174 1111.23,-182.819"/>
<polygon fill="black" stroke="black" points="1113.14,-185.753 1119.77,-177.485 1109.43,-179.818 1113.14,-185.753"/>
</g>
<!-- ExpCall0&#45;&gt;ExpName0 -->
<g id="edge35" class="edge"><title>ExpCall0&#45;&gt;ExpName0</title>
<path fill="none" stroke="black" d="M1030.95,-215.697C1030.95,-207.983 1030.95,-198.712 1030.95,-190.112"/>
<polygon fill="black" stroke="black" points="1034.45,-190.104 1030.95,-180.104 1027.45,-190.104 1034.45,-190.104"/>
</g>
<!-- ExpConst0 -->
<g id="node18" class="node"><title>ExpConst0</title>
<ellipse fill="none" stroke="black" cx="781.945" cy="-234" rx="50.0912" ry="18"/>
<text text-anchor="middle" x="781.945" y="-230.3" font-family="Times,serif" font-size="14.00">ExpConst0</text>
</g>
<!-- Value0: 19 -->
<g id="node19" class="node"><title>Value0: 19</title>
<ellipse fill="none" stroke="black" cx="783.945" cy="-162" rx="50.0912" ry="18"/>
<text text-anchor="middle" x="783.945" y="-158.3" font-family="Times,serif" font-size="14.00">Value0: 19</text>
</g>
<!-- ExpConst0&#45;&gt;Value0: 19 -->
<g id="edge14" class="edge"><title>ExpConst0&#45;&gt;Value0: 19</title>
<path fill="none" stroke="black" d="M782.44,-215.697C782.66,-207.983 782.925,-198.712 783.171,-190.112"/>
<polygon fill="black" stroke="black" points="786.669,-190.2 783.457,-180.104 779.672,-190 786.669,-190.2"/>
</g>
<!-- StatMove0 -->
<g id="node20" class="node"><title>StatMove0</title>
<ellipse fill="none" stroke="black" cx="293.945" cy="-306" rx="50.0912" ry="18"/>
<text text-anchor="middle" x="293.945" y="-302.3" font-family="Times,serif" font-size="14.00">StatMove0</text>
</g>
<!-- ExpTemp0 -->
<g id="node21" class="node"><title>ExpTemp0</title>
<ellipse fill="none" stroke="black" cx="175.945" cy="-234" rx="50.0912" ry="18"/>
<text text-anchor="middle" x="175.945" y="-230.3" font-family="Times,serif" font-size="14.00">ExpTemp0</text>
</g>
<!-- StatMove0&#45;&gt;ExpTemp0 -->
<g id="edge15" class="edge"><title>StatMove0&#45;&gt;ExpTemp0</title>
<path fill="none" stroke="black" d="M269.209,-290.326C251.823,-280.012 228.363,-266.095 209.322,-254.8"/>
<polygon fill="black" stroke="black" points="211.036,-251.747 200.649,-249.655 207.464,-257.767 211.036,-251.747"/>
</g>
<!-- ExpTemp1 -->
<g id="node22" class="node"><title>ExpTemp1</title>
<ellipse fill="none" stroke="black" cx="293.945" cy="-234" rx="50.0912" ry="18"/>
<text text-anchor="middle" x="293.945" y="-230.3" font-family="Times,serif" font-size="14.00">ExpTemp1</text>
</g>
<!-- StatMove0&#45;&gt;ExpTemp1 -->
<g id="edge16" class="edge"><title>StatMove0&#45;&gt;ExpTemp1</title>
<path fill="none" stroke="black" d="M293.945,-287.697C293.945,-279.983 293.945,-270.712 293.945,-262.112"/>
<polygon fill="black" stroke="black" points="297.445,-262.104 293.945,-252.104 290.445,-262.104 297.445,-262.104"/>
</g>
<!-- Temp0: T62 -->
<g id="node23" class="node"><title>Temp0: T62</title>
<ellipse fill="none" stroke="black" cx="158.945" cy="-162" rx="55.4913" ry="18"/>
<text text-anchor="middle" x="158.945" y="-158.3" font-family="Times,serif" font-size="14.00">Temp0: T62</text>
</g>
<!-- ExpTemp0&#45;&gt;Temp0: T62 -->
<g id="edge17" class="edge"><title>ExpTemp0&#45;&gt;Temp0: T62</title>
<path fill="none" stroke="black" d="M171.83,-216.055C169.937,-208.261 167.645,-198.822 165.522,-190.079"/>
<polygon fill="black" stroke="black" points="168.902,-189.167 163.141,-180.275 162.1,-190.819 168.902,-189.167"/>
</g>
<!-- Temp1: T25 -->
<g id="node34" class="node"><title>Temp1: T25</title>
<ellipse fill="none" stroke="black" cx="286.945" cy="-162" rx="55.4913" ry="18"/>
<text text-anchor="middle" x="286.945" y="-158.3" font-family="Times,serif" font-size="14.00">Temp1: T25</text>
</g>
<!-- ExpTemp1&#45;&gt;Temp1: T25 -->
<g id="edge29" class="edge"><title>ExpTemp1&#45;&gt;Temp1: T25</title>
<path fill="none" stroke="black" d="M292.215,-215.697C291.443,-207.983 290.516,-198.712 289.656,-190.112"/>
<polygon fill="black" stroke="black" points="293.133,-189.706 288.656,-180.104 286.168,-190.403 293.133,-189.706"/>
</g>
<!-- StatList0 -->
<g id="node24" class="node"><title>StatList0</title>
<ellipse fill="none" stroke="black" cx="598.945" cy="-378" rx="42.4939" ry="18"/>
<text text-anchor="middle" x="598.945" y="-374.3" font-family="Times,serif" font-size="14.00">StatList0</text>
</g>
<!-- StatList0&#45;&gt;StatCJump0 -->
<g id="edge23" class="edge"><title>StatList0&#45;&gt;StatCJump0</title>
<path fill="none" stroke="black" d="M639.662,-373.036C759.791,-361.34 1113.27,-326.927 1256.56,-312.976"/>
<polygon fill="black" stroke="black" points="1257.3,-316.42 1266.92,-311.968 1256.63,-309.453 1257.3,-316.42"/>
</g>
<!-- StatList0&#45;&gt;StatMove3 -->
<g id="edge22" class="edge"><title>StatList0&#45;&gt;StatMove3</title>
<path fill="none" stroke="black" d="M635.486,-368.695C690.204,-356.259 793.629,-332.754 855.816,-318.62"/>
<polygon fill="black" stroke="black" points="856.827,-321.98 865.803,-316.351 855.276,-315.154 856.827,-321.98"/>
</g>
<!-- StatList0&#45;&gt;StatMove0 -->
<g id="edge19" class="edge"><title>StatList0&#45;&gt;StatMove0</title>
<path fill="none" stroke="black" d="M562.76,-368.695C508.65,-356.277 406.441,-332.819 344.832,-318.679"/>
<polygon fill="black" stroke="black" points="345.465,-315.233 334.935,-316.408 343.899,-322.056 345.465,-315.233"/>
</g>
<!-- StatLabel0 -->
<g id="node25" class="node"><title>StatLabel0</title>
<ellipse fill="none" stroke="black" cx="115.945" cy="-306" rx="48.9926" ry="18"/>
<text text-anchor="middle" x="115.945" y="-302.3" font-family="Times,serif" font-size="14.00">StatLabel0</text>
</g>
<!-- StatList0&#45;&gt;StatLabel0 -->
<g id="edge18" class="edge"><title>StatList0&#45;&gt;StatLabel0</title>
<path fill="none" stroke="black" d="M559.419,-371.272C473.358,-358.799 268.871,-329.163 170.565,-314.916"/>
<polygon fill="black" stroke="black" points="170.936,-311.433 160.537,-313.463 169.932,-318.361 170.936,-311.433"/>
</g>
<!-- StatMove1 -->
<g id="node26" class="node"><title>StatMove1</title>
<ellipse fill="none" stroke="black" cx="537.945" cy="-306" rx="50.0912" ry="18"/>
<text text-anchor="middle" x="537.945" y="-302.3" font-family="Times,serif" font-size="14.00">StatMove1</text>
</g>
<!-- StatList0&#45;&gt;StatMove1 -->
<g id="edge20" class="edge"><title>StatList0&#45;&gt;StatMove1</title>
<path fill="none" stroke="black" d="M584.797,-360.765C577.208,-352.056 567.702,-341.147 559.239,-331.435"/>
<polygon fill="black" stroke="black" points="561.649,-328.873 552.44,-323.633 556.371,-333.472 561.649,-328.873"/>
</g>
<!-- StatMove2 -->
<g id="node27" class="node"><title>StatMove2</title>
<ellipse fill="none" stroke="black" cx="660.945" cy="-306" rx="50.0912" ry="18"/>
<text text-anchor="middle" x="660.945" y="-302.3" font-family="Times,serif" font-size="14.00">StatMove2</text>
</g>
<!-- StatList0&#45;&gt;StatMove2 -->
<g id="edge21" class="edge"><title>StatList0&#45;&gt;StatMove2</title>
<path fill="none" stroke="black" d="M613.325,-360.765C621.116,-351.969 630.894,-340.928 639.561,-331.144"/>
<polygon fill="black" stroke="black" points="642.202,-333.44 646.213,-323.633 636.962,-328.799 642.202,-333.44"/>
</g>
<!-- Label0: L23 -->
<g id="node28" class="node"><title>Label0: L23</title>
<ellipse fill="none" stroke="black" cx="53.9452" cy="-234" rx="53.8905" ry="18"/>
<text text-anchor="middle" x="53.9452" y="-230.3" font-family="Times,serif" font-size="14.00">Label0: L23</text>
</g>
<!-- StatLabel0&#45;&gt;Label0: L23 -->
<g id="edge24" class="edge"><title>StatLabel0&#45;&gt;Label0: L23</title>
<path fill="none" stroke="black" d="M101.565,-288.765C93.7748,-279.969 83.996,-268.928 75.3299,-259.144"/>
<polygon fill="black" stroke="black" points="77.9281,-256.799 68.6777,-251.633 72.688,-261.44 77.9281,-256.799"/>
</g>
<!-- ExpTemp2 -->
<g id="node30" class="node"><title>ExpTemp2</title>
<ellipse fill="none" stroke="black" cx="417.945" cy="-234" rx="50.0912" ry="18"/>
<text text-anchor="middle" x="417.945" y="-230.3" font-family="Times,serif" font-size="14.00">ExpTemp2</text>
</g>
<!-- StatMove1&#45;&gt;ExpTemp2 -->
<g id="edge31" class="edge"><title>StatMove1&#45;&gt;ExpTemp2</title>
<path fill="none" stroke="black" d="M512.789,-290.326C495.109,-280.012 471.251,-266.095 451.887,-254.8"/>
<polygon fill="black" stroke="black" points="453.469,-251.671 443.068,-249.655 449.942,-257.717 453.469,-251.671"/>
</g>
<!-- ExpMem0 -->
<g id="node36" class="node"><title>ExpMem0</title>
<ellipse fill="none" stroke="black" cx="537.945" cy="-234" rx="48.9926" ry="18"/>
<text text-anchor="middle" x="537.945" y="-230.3" font-family="Times,serif" font-size="14.00">ExpMem0</text>
</g>
<!-- StatMove1&#45;&gt;ExpMem0 -->
<g id="edge32" class="edge"><title>StatMove1&#45;&gt;ExpMem0</title>
<path fill="none" stroke="black" d="M537.945,-287.697C537.945,-279.983 537.945,-270.712 537.945,-262.112"/>
<polygon fill="black" stroke="black" points="541.445,-262.104 537.945,-252.104 534.445,-262.104 541.445,-262.104"/>
</g>
<!-- StatMove2&#45;&gt;ExpConst0 -->
<g id="edge26" class="edge"><title>StatMove2&#45;&gt;ExpConst0</title>
<path fill="none" stroke="black" d="M686.311,-290.326C704.138,-280.012 728.195,-266.095 747.72,-254.8"/>
<polygon fill="black" stroke="black" points="749.71,-257.692 756.613,-249.655 746.204,-251.633 749.71,-257.692"/>
</g>
<!-- ExpTemp4 -->
<g id="node29" class="node"><title>ExpTemp4</title>
<ellipse fill="none" stroke="black" cx="660.945" cy="-234" rx="50.0912" ry="18"/>
<text text-anchor="middle" x="660.945" y="-230.3" font-family="Times,serif" font-size="14.00">ExpTemp4</text>
</g>
<!-- StatMove2&#45;&gt;ExpTemp4 -->
<g id="edge25" class="edge"><title>StatMove2&#45;&gt;ExpTemp4</title>
<path fill="none" stroke="black" d="M660.945,-287.697C660.945,-279.983 660.945,-270.712 660.945,-262.112"/>
<polygon fill="black" stroke="black" points="664.445,-262.104 660.945,-252.104 657.445,-262.104 664.445,-262.104"/>
</g>
<!-- Temp4: T61 -->
<g id="node38" class="node"><title>Temp4: T61</title>
<ellipse fill="none" stroke="black" cx="660.945" cy="-162" rx="55.4913" ry="18"/>
<text text-anchor="middle" x="660.945" y="-158.3" font-family="Times,serif" font-size="14.00">Temp4: T61</text>
</g>
<!-- ExpTemp4&#45;&gt;Temp4: T61 -->
<g id="edge37" class="edge"><title>ExpTemp4&#45;&gt;Temp4: T61</title>
<path fill="none" stroke="black" d="M660.945,-215.697C660.945,-207.983 660.945,-198.712 660.945,-190.112"/>
<polygon fill="black" stroke="black" points="664.445,-190.104 660.945,-180.104 657.445,-190.104 664.445,-190.104"/>
</g>
<!-- Temp2: T60 -->
<g id="node31" class="node"><title>Temp2: T60</title>
<ellipse fill="none" stroke="black" cx="414.945" cy="-162" rx="55.4913" ry="18"/>
<text text-anchor="middle" x="414.945" y="-158.3" font-family="Times,serif" font-size="14.00">Temp2: T60</text>
</g>
<!-- ExpTemp2&#45;&gt;Temp2: T60 -->
<g id="edge27" class="edge"><title>ExpTemp2&#45;&gt;Temp2: T60</title>
<path fill="none" stroke="black" d="M417.204,-215.697C416.873,-207.983 416.476,-198.712 416.107,-190.112"/>
<polygon fill="black" stroke="black" points="419.603,-189.945 415.678,-180.104 412.61,-190.245 419.603,-189.945"/>
</g>
<!-- ExpTemp3 -->
<g id="node32" class="node"><title>ExpTemp3</title>
<ellipse fill="none" stroke="black" cx="537.945" cy="-162" rx="50.0912" ry="18"/>
<text text-anchor="middle" x="537.945" y="-158.3" font-family="Times,serif" font-size="14.00">ExpTemp3</text>
</g>
<!-- Temp3: $fp -->
<g id="node33" class="node"><title>Temp3: $fp</title>
<ellipse fill="none" stroke="black" cx="537.945" cy="-90" rx="52.7911" ry="18"/>
<text text-anchor="middle" x="537.945" y="-86.3" font-family="Times,serif" font-size="14.00">Temp3: $fp</text>
</g>
<!-- ExpTemp3&#45;&gt;Temp3: $fp -->
<g id="edge28" class="edge"><title>ExpTemp3&#45;&gt;Temp3: $fp</title>
<path fill="none" stroke="black" d="M537.945,-143.697C537.945,-135.983 537.945,-126.712 537.945,-118.112"/>
<polygon fill="black" stroke="black" points="541.445,-118.104 537.945,-108.104 534.445,-118.104 541.445,-118.104"/>
</g>
<!-- ExpMem0&#45;&gt;ExpTemp3 -->
<g id="edge34" class="edge"><title>ExpMem0&#45;&gt;ExpTemp3</title>
<path fill="none" stroke="black" d="M537.945,-215.697C537.945,-207.983 537.945,-198.712 537.945,-190.112"/>
<polygon fill="black" stroke="black" points="541.445,-190.104 537.945,-180.104 534.445,-190.104 541.445,-190.104"/>
</g>
</g>
</svg>
