<?xml version="1.0" encoding="UTF-8" standalone="no"?>
<!DOCTYPE svg PUBLIC "-//W3C//DTD SVG 1.1//EN"
 "http://www.w3.org/Graphics/SVG/1.1/DTD/svg11.dtd">
<!-- Generated by graphviz version 2.38.0 (20140413.2041)
 -->
<!-- Title: %3 Pages: 1 -->
<svg width="1339pt" height="404pt"
 viewBox="0.00 0.00 1339.29 404.00" xmlns="http://www.w3.org/2000/svg" xmlns:xlink="http://www.w3.org/1999/xlink">
<g id="graph0" class="graph" transform="scale(1 1) rotate(0) translate(4 400)">
<title>%3</title>
<polygon fill="white" stroke="none" points="-4,4 -4,-400 1335.29,-400 1335.29,4 -4,4"/>
<!-- ExpList0 -->
<g id="node1" class="node"><title>ExpList0</title>
<ellipse fill="none" stroke="black" cx="1160.05" cy="-162" rx="42.7926" ry="18"/>
<text text-anchor="middle" x="1160.05" y="-158.3" font-family="Times,serif" font-size="14.00">ExpList0</text>
</g>
<!-- ExpTemp6 -->
<g id="node2" class="node"><title>ExpTemp6</title>
<ellipse fill="none" stroke="black" cx="1169.05" cy="-90" rx="50.0912" ry="18"/>
<text text-anchor="middle" x="1169.05" y="-86.3" font-family="Times,serif" font-size="14.00">ExpTemp6</text>
</g>
<!-- ExpList0&#45;&gt;ExpTemp6 -->
<g id="edge1" class="edge"><title>ExpList0&#45;&gt;ExpTemp6</title>
<path fill="none" stroke="black" d="M1162.27,-143.697C1163.26,-135.983 1164.45,-126.712 1165.56,-118.112"/>
<polygon fill="black" stroke="black" points="1169.04,-118.469 1166.85,-108.104 1162.1,-117.576 1169.04,-118.469"/>
</g>
<!-- Temp6: T129 -->
<g id="node3" class="node"><title>Temp6: T129</title>
<ellipse fill="none" stroke="black" cx="1169.05" cy="-18" rx="59.5901" ry="18"/>
<text text-anchor="middle" x="1169.05" y="-14.3" font-family="Times,serif" font-size="14.00">Temp6: T129</text>
</g>
<!-- ExpTemp6&#45;&gt;Temp6: T129 -->
<g id="edge2" class="edge"><title>ExpTemp6&#45;&gt;Temp6: T129</title>
<path fill="none" stroke="black" d="M1169.05,-71.6966C1169.05,-63.9827 1169.05,-54.7125 1169.05,-46.1124"/>
<polygon fill="black" stroke="black" points="1172.55,-46.1043 1169.05,-36.1043 1165.55,-46.1044 1172.55,-46.1043"/>
</g>
<!-- StatJump0 -->
<g id="node4" class="node"><title>StatJump0</title>
<ellipse fill="none" stroke="black" cx="1236.05" cy="-306" rx="48.1917" ry="18"/>
<text text-anchor="middle" x="1236.05" y="-302.3" font-family="Times,serif" font-size="14.00">StatJump0</text>
</g>
<!-- Label2: L5 -->
<g id="node5" class="node"><title>Label2: L5</title>
<ellipse fill="none" stroke="black" cx="1271.05" cy="-234" rx="50.0912" ry="18"/>
<text text-anchor="middle" x="1271.05" y="-230.3" font-family="Times,serif" font-size="14.00">Label2: L5</text>
</g>
<!-- StatJump0&#45;&gt;Label2: L5 -->
<g id="edge3" class="edge"><title>StatJump0&#45;&gt;Label2: L5</title>
<path fill="none" stroke="black" d="M1244.52,-288.055C1248.6,-279.887 1253.59,-269.912 1258.13,-260.824"/>
<polygon fill="black" stroke="black" points="1261.31,-262.299 1262.65,-251.789 1255.05,-259.168 1261.31,-262.299"/>
</g>
<!-- ExpTemp5 -->
<g id="node6" class="node"><title>ExpTemp5</title>
<ellipse fill="none" stroke="black" cx="1049.05" cy="-162" rx="50.0912" ry="18"/>
<text text-anchor="middle" x="1049.05" y="-158.3" font-family="Times,serif" font-size="14.00">ExpTemp5</text>
</g>
<!-- Temp5: T128 -->
<g id="node7" class="node"><title>Temp5: T128</title>
<ellipse fill="none" stroke="black" cx="1041.05" cy="-90" rx="59.5901" ry="18"/>
<text text-anchor="middle" x="1041.05" y="-86.3" font-family="Times,serif" font-size="14.00">Temp5: T128</text>
</g>
<!-- ExpTemp5&#45;&gt;Temp5: T128 -->
<g id="edge4" class="edge"><title>ExpTemp5&#45;&gt;Temp5: T128</title>
<path fill="none" stroke="black" d="M1047.07,-143.697C1046.19,-135.983 1045.13,-126.712 1044.14,-118.112"/>
<polygon fill="black" stroke="black" points="1047.61,-117.642 1043,-108.104 1040.66,-118.437 1047.61,-117.642"/>
</g>
<!-- StatMove3 -->
<g id="node8" class="node"><title>StatMove3</title>
<ellipse fill="none" stroke="black" cx="921.046" cy="-306" rx="50.0912" ry="18"/>
<text text-anchor="middle" x="921.046" y="-302.3" font-family="Times,serif" font-size="14.00">StatMove3</text>
</g>
<!-- ExpTemp4 -->
<g id="node9" class="node"><title>ExpTemp4</title>
<ellipse fill="none" stroke="black" cx="921.046" cy="-234" rx="50.0912" ry="18"/>
<text text-anchor="middle" x="921.046" y="-230.3" font-family="Times,serif" font-size="14.00">ExpTemp4</text>
</g>
<!-- StatMove3&#45;&gt;ExpTemp4 -->
<g id="edge5" class="edge"><title>StatMove3&#45;&gt;ExpTemp4</title>
<path fill="none" stroke="black" d="M921.046,-287.697C921.046,-279.983 921.046,-270.712 921.046,-262.112"/>
<polygon fill="black" stroke="black" points="924.546,-262.104 921.046,-252.104 917.546,-262.104 924.546,-262.104"/>
</g>
<!-- ExpCall0 -->
<g id="node10" class="node"><title>ExpCall0</title>
<ellipse fill="none" stroke="black" cx="1041.05" cy="-234" rx="44.393" ry="18"/>
<text text-anchor="middle" x="1041.05" y="-230.3" font-family="Times,serif" font-size="14.00">ExpCall0</text>
</g>
<!-- StatMove3&#45;&gt;ExpCall0 -->
<g id="edge6" class="edge"><title>StatMove3&#45;&gt;ExpCall0</title>
<path fill="none" stroke="black" d="M946.201,-290.326C964.119,-279.874 988.381,-265.721 1007.88,-254.346"/>
<polygon fill="black" stroke="black" points="1009.87,-257.239 1016.74,-249.177 1006.34,-251.192 1009.87,-257.239"/>
</g>
<!-- Temp4: T130 -->
<g id="node11" class="node"><title>Temp4: T130</title>
<ellipse fill="none" stroke="black" cx="921.046" cy="-162" rx="59.5901" ry="18"/>
<text text-anchor="middle" x="921.046" y="-158.3" font-family="Times,serif" font-size="14.00">Temp4: T130</text>
</g>
<!-- ExpTemp4&#45;&gt;Temp4: T130 -->
<g id="edge9" class="edge"><title>ExpTemp4&#45;&gt;Temp4: T130</title>
<path fill="none" stroke="black" d="M921.046,-215.697C921.046,-207.983 921.046,-198.712 921.046,-190.112"/>
<polygon fill="black" stroke="black" points="924.546,-190.104 921.046,-180.104 917.546,-190.104 924.546,-190.104"/>
</g>
<!-- ExpCall0&#45;&gt;ExpList0 -->
<g id="edge8" class="edge"><title>ExpCall0&#45;&gt;ExpList0</title>
<path fill="none" stroke="black" d="M1065.13,-218.834C1083.03,-208.303 1107.66,-193.814 1127.35,-182.235"/>
<polygon fill="black" stroke="black" points="1129.16,-185.232 1136,-177.144 1125.61,-179.198 1129.16,-185.232"/>
</g>
<!-- ExpCall0&#45;&gt;ExpTemp5 -->
<g id="edge7" class="edge"><title>ExpCall0&#45;&gt;ExpTemp5</title>
<path fill="none" stroke="black" d="M1043.02,-215.697C1043.9,-207.983 1044.96,-198.712 1045.95,-190.112"/>
<polygon fill="black" stroke="black" points="1049.43,-190.437 1047.09,-180.104 1042.48,-189.642 1049.43,-190.437"/>
</g>
<!-- ExpConst0 -->
<g id="node12" class="node"><title>ExpConst0</title>
<ellipse fill="none" stroke="black" cx="797.046" cy="-234" rx="50.0912" ry="18"/>
<text text-anchor="middle" x="797.046" y="-230.3" font-family="Times,serif" font-size="14.00">ExpConst0</text>
</g>
<!-- Value0: 0 -->
<g id="node13" class="node"><title>Value0: 0</title>
<ellipse fill="none" stroke="black" cx="798.046" cy="-162" rx="45.4919" ry="18"/>
<text text-anchor="middle" x="798.046" y="-158.3" font-family="Times,serif" font-size="14.00">Value0: 0</text>
</g>
<!-- ExpConst0&#45;&gt;Value0: 0 -->
<g id="edge10" class="edge"><title>ExpConst0&#45;&gt;Value0: 0</title>
<path fill="none" stroke="black" d="M797.293,-215.697C797.403,-207.983 797.535,-198.712 797.658,-190.112"/>
<polygon fill="black" stroke="black" points="801.158,-190.153 797.801,-180.104 794.159,-190.053 801.158,-190.153"/>
</g>
<!-- StatMove0 -->
<g id="node14" class="node"><title>StatMove0</title>
<ellipse fill="none" stroke="black" cx="286.046" cy="-306" rx="50.0912" ry="18"/>
<text text-anchor="middle" x="286.046" y="-302.3" font-family="Times,serif" font-size="14.00">StatMove0</text>
</g>
<!-- ExpTemp0 -->
<g id="node15" class="node"><title>ExpTemp0</title>
<ellipse fill="none" stroke="black" cx="168.046" cy="-234" rx="50.0912" ry="18"/>
<text text-anchor="middle" x="168.046" y="-230.3" font-family="Times,serif" font-size="14.00">ExpTemp0</text>
</g>
<!-- StatMove0&#45;&gt;ExpTemp0 -->
<g id="edge11" class="edge"><title>StatMove0&#45;&gt;ExpTemp0</title>
<path fill="none" stroke="black" d="M261.309,-290.326C243.923,-280.012 220.463,-266.095 201.422,-254.8"/>
<polygon fill="black" stroke="black" points="203.136,-251.747 192.75,-249.655 199.564,-257.767 203.136,-251.747"/>
</g>
<!-- ExpTemp1 -->
<g id="node16" class="node"><title>ExpTemp1</title>
<ellipse fill="none" stroke="black" cx="286.046" cy="-234" rx="50.0912" ry="18"/>
<text text-anchor="middle" x="286.046" y="-230.3" font-family="Times,serif" font-size="14.00">ExpTemp1</text>
</g>
<!-- StatMove0&#45;&gt;ExpTemp1 -->
<g id="edge12" class="edge"><title>StatMove0&#45;&gt;ExpTemp1</title>
<path fill="none" stroke="black" d="M286.046,-287.697C286.046,-279.983 286.046,-270.712 286.046,-262.112"/>
<polygon fill="black" stroke="black" points="289.546,-262.104 286.046,-252.104 282.546,-262.104 289.546,-262.104"/>
</g>
<!-- Temp0: T130 -->
<g id="node19" class="node"><title>Temp0: T130</title>
<ellipse fill="none" stroke="black" cx="141.046" cy="-162" rx="59.5901" ry="18"/>
<text text-anchor="middle" x="141.046" y="-158.3" font-family="Times,serif" font-size="14.00">Temp0: T130</text>
</g>
<!-- ExpTemp0&#45;&gt;Temp0: T130 -->
<g id="edge14" class="edge"><title>ExpTemp0&#45;&gt;Temp0: T130</title>
<path fill="none" stroke="black" d="M161.51,-216.055C158.471,-208.176 154.783,-198.617 151.38,-189.794"/>
<polygon fill="black" stroke="black" points="154.573,-188.346 147.709,-180.275 148.042,-190.865 154.573,-188.346"/>
</g>
<!-- Temp1: T48 -->
<g id="node27" class="node"><title>Temp1: T48</title>
<ellipse fill="none" stroke="black" cx="274.046" cy="-162" rx="55.4913" ry="18"/>
<text text-anchor="middle" x="274.046" y="-158.3" font-family="Times,serif" font-size="14.00">Temp1: T48</text>
</g>
<!-- ExpTemp1&#45;&gt;Temp1: T48 -->
<g id="edge24" class="edge"><title>ExpTemp1&#45;&gt;Temp1: T48</title>
<path fill="none" stroke="black" d="M283.079,-215.697C281.757,-207.983 280.168,-198.712 278.693,-190.112"/>
<polygon fill="black" stroke="black" points="282.117,-189.369 276.978,-180.104 275.218,-190.552 282.117,-189.369"/>
</g>
<!-- StatExp0 -->
<g id="node17" class="node"><title>StatExp0</title>
<ellipse fill="none" stroke="black" cx="1092.05" cy="-306" rx="42.7926" ry="18"/>
<text text-anchor="middle" x="1092.05" y="-302.3" font-family="Times,serif" font-size="14.00">StatExp0</text>
</g>
<!-- ExpTemp7 -->
<g id="node18" class="node"><title>ExpTemp7</title>
<ellipse fill="none" stroke="black" cx="1153.05" cy="-234" rx="50.0912" ry="18"/>
<text text-anchor="middle" x="1153.05" y="-230.3" font-family="Times,serif" font-size="14.00">ExpTemp7</text>
</g>
<!-- StatExp0&#45;&gt;ExpTemp7 -->
<g id="edge13" class="edge"><title>StatExp0&#45;&gt;ExpTemp7</title>
<path fill="none" stroke="black" d="M1106.19,-288.765C1113.78,-280.056 1123.29,-269.147 1131.75,-259.435"/>
<polygon fill="black" stroke="black" points="1134.62,-261.472 1138.55,-251.633 1129.34,-256.873 1134.62,-261.472"/>
</g>
<!-- Temp7: T48 -->
<g id="node31" class="node"><title>Temp7: T48</title>
<ellipse fill="none" stroke="black" cx="1276.05" cy="-162" rx="55.4913" ry="18"/>
<text text-anchor="middle" x="1276.05" y="-158.3" font-family="Times,serif" font-size="14.00">Temp7: T48</text>
</g>
<!-- ExpTemp7&#45;&gt;Temp7: T48 -->
<g id="edge30" class="edge"><title>ExpTemp7&#45;&gt;Temp7: T48</title>
<path fill="none" stroke="black" d="M1178.53,-218.496C1196.59,-208.217 1221.05,-194.296 1240.96,-182.968"/>
<polygon fill="black" stroke="black" points="1242.78,-185.957 1249.74,-177.968 1239.32,-179.873 1242.78,-185.957"/>
</g>
<!-- StatList0 -->
<g id="node20" class="node"><title>StatList0</title>
<ellipse fill="none" stroke="black" cx="737.046" cy="-378" rx="42.4939" ry="18"/>
<text text-anchor="middle" x="737.046" y="-374.3" font-family="Times,serif" font-size="14.00">StatList0</text>
</g>
<!-- StatList0&#45;&gt;StatJump0 -->
<g id="edge21" class="edge"><title>StatList0&#45;&gt;StatJump0</title>
<path fill="none" stroke="black" d="M777.296,-372.478C850.473,-364.098 1010.13,-345.077 1144.05,-324 1157.22,-321.927 1171.4,-319.436 1184.59,-317.008"/>
<polygon fill="black" stroke="black" points="1185.26,-320.443 1194.45,-315.171 1183.98,-313.562 1185.26,-320.443"/>
</g>
<!-- StatList0&#45;&gt;StatMove3 -->
<g id="edge19" class="edge"><title>StatList0&#45;&gt;StatMove3</title>
<path fill="none" stroke="black" d="M767.429,-365.441C797.623,-353.954 844.202,-336.234 878.156,-323.317"/>
<polygon fill="black" stroke="black" points="879.712,-326.469 887.814,-319.642 877.223,-319.927 879.712,-326.469"/>
</g>
<!-- StatList0&#45;&gt;StatMove0 -->
<g id="edge16" class="edge"><title>StatList0&#45;&gt;StatMove0</title>
<path fill="none" stroke="black" d="M697.811,-370.91C617.354,-358.423 433.497,-329.886 341.136,-315.551"/>
<polygon fill="black" stroke="black" points="341.564,-312.075 331.145,-314 340.49,-318.992 341.564,-312.075"/>
</g>
<!-- StatList0&#45;&gt;StatExp0 -->
<g id="edge20" class="edge"><title>StatList0&#45;&gt;StatExp0</title>
<path fill="none" stroke="black" d="M774.701,-369.575C839.586,-356.781 972.369,-330.598 1043.88,-316.497"/>
<polygon fill="black" stroke="black" points="1044.84,-319.876 1053.97,-314.507 1043.49,-313.008 1044.84,-319.876"/>
</g>
<!-- StatLabel0 -->
<g id="node21" class="node"><title>StatLabel0</title>
<ellipse fill="none" stroke="black" cx="110.046" cy="-306" rx="48.9926" ry="18"/>
<text text-anchor="middle" x="110.046" y="-302.3" font-family="Times,serif" font-size="14.00">StatLabel0</text>
</g>
<!-- StatList0&#45;&gt;StatLabel0 -->
<g id="edge15" class="edge"><title>StatList0&#45;&gt;StatLabel0</title>
<path fill="none" stroke="black" d="M695.995,-373.306C609.27,-365.377 401.067,-345.676 227.046,-324 206.492,-321.44 183.963,-318.257 164.209,-315.339"/>
<polygon fill="black" stroke="black" points="164.564,-311.854 154.157,-313.843 163.533,-318.777 164.564,-311.854"/>
</g>
<!-- StatMove1 -->
<g id="node22" class="node"><title>StatMove1</title>
<ellipse fill="none" stroke="black" cx="541.046" cy="-306" rx="50.0912" ry="18"/>
<text text-anchor="middle" x="541.046" y="-302.3" font-family="Times,serif" font-size="14.00">StatMove1</text>
</g>
<!-- StatList0&#45;&gt;StatMove1 -->
<g id="edge17" class="edge"><title>StatList0&#45;&gt;StatMove1</title>
<path fill="none" stroke="black" d="M705.555,-365.753C672.873,-354.081 621.508,-335.736 584.871,-322.652"/>
<polygon fill="black" stroke="black" points="586.021,-319.346 575.426,-319.279 583.666,-325.938 586.021,-319.346"/>
</g>
<!-- StatMove2 -->
<g id="node23" class="node"><title>StatMove2</title>
<ellipse fill="none" stroke="black" cx="737.046" cy="-306" rx="50.0912" ry="18"/>
<text text-anchor="middle" x="737.046" y="-302.3" font-family="Times,serif" font-size="14.00">StatMove2</text>
</g>
<!-- StatList0&#45;&gt;StatMove2 -->
<g id="edge18" class="edge"><title>StatList0&#45;&gt;StatMove2</title>
<path fill="none" stroke="black" d="M737.046,-359.697C737.046,-351.983 737.046,-342.712 737.046,-334.112"/>
<polygon fill="black" stroke="black" points="740.546,-334.104 737.046,-324.104 733.546,-334.104 740.546,-334.104"/>
</g>
<!-- Label0: L4 -->
<g id="node24" class="node"><title>Label0: L4</title>
<ellipse fill="none" stroke="black" cx="50.0456" cy="-234" rx="50.0912" ry="18"/>
<text text-anchor="middle" x="50.0456" y="-230.3" font-family="Times,serif" font-size="14.00">Label0: L4</text>
</g>
<!-- StatLabel0&#45;&gt;Label0: L4 -->
<g id="edge22" class="edge"><title>StatLabel0&#45;&gt;Label0: L4</title>
<path fill="none" stroke="black" d="M95.8264,-288.411C88.3541,-279.693 79.0559,-268.845 70.795,-259.208"/>
<polygon fill="black" stroke="black" points="73.328,-256.785 64.1627,-251.47 68.0132,-261.34 73.328,-256.785"/>
</g>
<!-- ExpTemp2 -->
<g id="node28" class="node"><title>ExpTemp2</title>
<ellipse fill="none" stroke="black" cx="415.046" cy="-234" rx="50.0912" ry="18"/>
<text text-anchor="middle" x="415.046" y="-230.3" font-family="Times,serif" font-size="14.00">ExpTemp2</text>
</g>
<!-- StatMove1&#45;&gt;ExpTemp2 -->
<g id="edge25" class="edge"><title>StatMove1&#45;&gt;ExpTemp2</title>
<path fill="none" stroke="black" d="M514.938,-290.496C496.101,-280.031 470.47,-265.791 449.887,-254.356"/>
<polygon fill="black" stroke="black" points="451.561,-251.282 441.119,-249.485 448.161,-257.401 451.561,-251.282"/>
</g>
<!-- ExpName0 -->
<g id="node29" class="node"><title>ExpName0</title>
<ellipse fill="none" stroke="black" cx="541.046" cy="-234" rx="50.8918" ry="18"/>
<text text-anchor="middle" x="541.046" y="-230.3" font-family="Times,serif" font-size="14.00">ExpName0</text>
</g>
<!-- StatMove1&#45;&gt;ExpName0 -->
<g id="edge26" class="edge"><title>StatMove1&#45;&gt;ExpName0</title>
<path fill="none" stroke="black" d="M541.046,-287.697C541.046,-279.983 541.046,-270.712 541.046,-262.112"/>
<polygon fill="black" stroke="black" points="544.546,-262.104 541.046,-252.104 537.546,-262.104 544.546,-262.104"/>
</g>
<!-- StatMove2&#45;&gt;ExpConst0 -->
<g id="edge29" class="edge"><title>StatMove2&#45;&gt;ExpConst0</title>
<path fill="none" stroke="black" d="M751.265,-288.411C758.737,-279.693 768.035,-268.845 776.296,-259.208"/>
<polygon fill="black" stroke="black" points="779.078,-261.34 782.928,-251.47 773.763,-256.785 779.078,-261.34"/>
</g>
<!-- ExpTemp3 -->
<g id="node25" class="node"><title>ExpTemp3</title>
<ellipse fill="none" stroke="black" cx="677.046" cy="-234" rx="50.0912" ry="18"/>
<text text-anchor="middle" x="677.046" y="-230.3" font-family="Times,serif" font-size="14.00">ExpTemp3</text>
</g>
<!-- StatMove2&#45;&gt;ExpTemp3 -->
<g id="edge28" class="edge"><title>StatMove2&#45;&gt;ExpTemp3</title>
<path fill="none" stroke="black" d="M722.826,-288.411C715.354,-279.693 706.056,-268.845 697.795,-259.208"/>
<polygon fill="black" stroke="black" points="700.328,-256.785 691.163,-251.47 695.013,-261.34 700.328,-256.785"/>
</g>
<!-- Temp3: T129 -->
<g id="node26" class="node"><title>Temp3: T129</title>
<ellipse fill="none" stroke="black" cx="675.046" cy="-162" rx="59.5901" ry="18"/>
<text text-anchor="middle" x="675.046" y="-158.3" font-family="Times,serif" font-size="14.00">Temp3: T129</text>
</g>
<!-- ExpTemp3&#45;&gt;Temp3: T129 -->
<g id="edge23" class="edge"><title>ExpTemp3&#45;&gt;Temp3: T129</title>
<path fill="none" stroke="black" d="M676.551,-215.697C676.331,-207.983 676.066,-198.712 675.82,-190.112"/>
<polygon fill="black" stroke="black" points="679.319,-190 675.534,-180.104 672.321,-190.2 679.319,-190"/>
</g>
<!-- Temp2: T128 -->
<g id="node30" class="node"><title>Temp2: T128</title>
<ellipse fill="none" stroke="black" cx="407.046" cy="-162" rx="59.5901" ry="18"/>
<text text-anchor="middle" x="407.046" y="-158.3" font-family="Times,serif" font-size="14.00">Temp2: T128</text>
</g>
<!-- ExpTemp2&#45;&gt;Temp2: T128 -->
<g id="edge27" class="edge"><title>ExpTemp2&#45;&gt;Temp2: T128</title>
<path fill="none" stroke="black" d="M413.068,-215.697C412.186,-207.983 411.127,-198.712 410.144,-190.112"/>
<polygon fill="black" stroke="black" points="413.613,-189.642 409,-180.104 406.659,-190.437 413.613,-189.642"/>
</g>
<!-- Label1: print -->
<g id="node32" class="node"><title>Label1: print</title>
<ellipse fill="none" stroke="black" cx="541.046" cy="-162" rx="56.59" ry="18"/>
<text text-anchor="middle" x="541.046" y="-158.3" font-family="Times,serif" font-size="14.00">Label1: print</text>
</g>
<!-- ExpName0&#45;&gt;Label1: print -->
<g id="edge31" class="edge"><title>ExpName0&#45;&gt;Label1: print</title>
<path fill="none" stroke="black" d="M541.046,-215.697C541.046,-207.983 541.046,-198.712 541.046,-190.112"/>
<polygon fill="black" stroke="black" points="544.546,-190.104 541.046,-180.104 537.546,-190.104 544.546,-190.104"/>
</g>
</g>
</svg>
