<?xml version="1.0" encoding="UTF-8" standalone="no"?>
<!DOCTYPE svg PUBLIC "-//W3C//DTD SVG 1.1//EN"
 "http://www.w3.org/Graphics/SVG/1.1/DTD/svg11.dtd">
<!-- Generated by graphviz version 2.38.0 (20140413.2041)
 -->
<!-- Title: %3 Pages: 1 -->
<svg width="1062pt" height="404pt"
 viewBox="0.00 0.00 1062.29 404.00" xmlns="http://www.w3.org/2000/svg" xmlns:xlink="http://www.w3.org/1999/xlink">
<g id="graph0" class="graph" transform="scale(1 1) rotate(0) translate(4 400)">
<title>%3</title>
<polygon fill="white" stroke="none" points="-4,4 -4,-400 1058.29,-400 1058.29,4 -4,4"/>
<!-- StatJump0 -->
<g id="node1" class="node"><title>StatJump0</title>
<ellipse fill="none" stroke="black" cx="960.046" cy="-306" rx="48.1917" ry="18"/>
<text text-anchor="middle" x="960.046" y="-302.3" font-family="Times,serif" font-size="14.00">StatJump0</text>
</g>
<!-- Label2: L5 -->
<g id="node2" class="node"><title>Label2: L5</title>
<ellipse fill="none" stroke="black" cx="995.046" cy="-234" rx="50.0912" ry="18"/>
<text text-anchor="middle" x="995.046" y="-230.3" font-family="Times,serif" font-size="14.00">Label2: L5</text>
</g>
<!-- StatJump0&#45;&gt;Label2: L5 -->
<g id="edge1" class="edge"><title>StatJump0&#45;&gt;Label2: L5</title>
<path fill="none" stroke="black" d="M968.518,-288.055C972.602,-279.887 977.59,-269.912 982.133,-260.824"/>
<polygon fill="black" stroke="black" points="985.309,-262.299 986.651,-251.789 979.048,-259.168 985.309,-262.299"/>
</g>
<!-- ExpTemp5 -->
<g id="node3" class="node"><title>ExpTemp5</title>
<ellipse fill="none" stroke="black" cx="877.046" cy="-234" rx="50.0912" ry="18"/>
<text text-anchor="middle" x="877.046" y="-230.3" font-family="Times,serif" font-size="14.00">ExpTemp5</text>
</g>
<!-- Temp5: T41 -->
<g id="node4" class="node"><title>Temp5: T41</title>
<ellipse fill="none" stroke="black" cx="999.046" cy="-162" rx="55.4913" ry="18"/>
<text text-anchor="middle" x="999.046" y="-158.3" font-family="Times,serif" font-size="14.00">Temp5: T41</text>
</g>
<!-- ExpTemp5&#45;&gt;Temp5: T41 -->
<g id="edge2" class="edge"><title>ExpTemp5&#45;&gt;Temp5: T41</title>
<path fill="none" stroke="black" d="M902.621,-218.326C920.556,-208.035 944.744,-194.157 964.407,-182.875"/>
<polygon fill="black" stroke="black" points="966.152,-185.909 973.084,-177.896 962.668,-179.837 966.152,-185.909"/>
</g>
<!-- ExpList0 -->
<g id="node5" class="node"><title>ExpList0</title>
<ellipse fill="none" stroke="black" cx="883.046" cy="-162" rx="42.7926" ry="18"/>
<text text-anchor="middle" x="883.046" y="-158.3" font-family="Times,serif" font-size="14.00">ExpList0</text>
</g>
<!-- ExpTemp4 -->
<g id="node6" class="node"><title>ExpTemp4</title>
<ellipse fill="none" stroke="black" cx="889.046" cy="-90" rx="50.0912" ry="18"/>
<text text-anchor="middle" x="889.046" y="-86.3" font-family="Times,serif" font-size="14.00">ExpTemp4</text>
</g>
<!-- ExpList0&#45;&gt;ExpTemp4 -->
<g id="edge3" class="edge"><title>ExpList0&#45;&gt;ExpTemp4</title>
<path fill="none" stroke="black" d="M884.529,-143.697C885.19,-135.983 885.984,-126.712 886.722,-118.112"/>
<polygon fill="black" stroke="black" points="890.213,-118.367 887.579,-108.104 883.238,-117.769 890.213,-118.367"/>
</g>
<!-- Temp4: T98 -->
<g id="node7" class="node"><title>Temp4: T98</title>
<ellipse fill="none" stroke="black" cx="889.046" cy="-18" rx="55.4913" ry="18"/>
<text text-anchor="middle" x="889.046" y="-14.3" font-family="Times,serif" font-size="14.00">Temp4: T98</text>
</g>
<!-- ExpTemp4&#45;&gt;Temp4: T98 -->
<g id="edge4" class="edge"><title>ExpTemp4&#45;&gt;Temp4: T98</title>
<path fill="none" stroke="black" d="M889.046,-71.6966C889.046,-63.9827 889.046,-54.7125 889.046,-46.1124"/>
<polygon fill="black" stroke="black" points="892.546,-46.1043 889.046,-36.1043 885.546,-46.1044 892.546,-46.1043"/>
</g>
<!-- ExpCall0 -->
<g id="node8" class="node"><title>ExpCall0</title>
<ellipse fill="none" stroke="black" cx="765.046" cy="-234" rx="44.393" ry="18"/>
<text text-anchor="middle" x="765.046" y="-230.3" font-family="Times,serif" font-size="14.00">ExpCall0</text>
</g>
<!-- ExpCall0&#45;&gt;ExpList0 -->
<g id="edge6" class="edge"><title>ExpCall0&#45;&gt;ExpList0</title>
<path fill="none" stroke="black" d="M788.925,-218.834C806.598,-208.35 830.882,-193.944 850.357,-182.392"/>
<polygon fill="black" stroke="black" points="852.387,-185.257 859.202,-177.144 848.816,-179.236 852.387,-185.257"/>
</g>
<!-- ExpName0 -->
<g id="node9" class="node"><title>ExpName0</title>
<ellipse fill="none" stroke="black" cx="771.046" cy="-162" rx="50.8918" ry="18"/>
<text text-anchor="middle" x="771.046" y="-158.3" font-family="Times,serif" font-size="14.00">ExpName0</text>
</g>
<!-- ExpCall0&#45;&gt;ExpName0 -->
<g id="edge5" class="edge"><title>ExpCall0&#45;&gt;ExpName0</title>
<path fill="none" stroke="black" d="M766.529,-215.697C767.19,-207.983 767.984,-198.712 768.722,-190.112"/>
<polygon fill="black" stroke="black" points="772.213,-190.367 769.579,-180.104 765.238,-189.769 772.213,-190.367"/>
</g>
<!-- Label1: print -->
<g id="node10" class="node"><title>Label1: print</title>
<ellipse fill="none" stroke="black" cx="764.046" cy="-90" rx="56.59" ry="18"/>
<text text-anchor="middle" x="764.046" y="-86.3" font-family="Times,serif" font-size="14.00">Label1: print</text>
</g>
<!-- ExpName0&#45;&gt;Label1: print -->
<g id="edge7" class="edge"><title>ExpName0&#45;&gt;Label1: print</title>
<path fill="none" stroke="black" d="M769.315,-143.697C768.544,-135.983 767.617,-126.712 766.757,-118.112"/>
<polygon fill="black" stroke="black" points="770.234,-117.706 765.756,-108.104 763.268,-118.403 770.234,-117.706"/>
</g>
<!-- StatMove0 -->
<g id="node11" class="node"><title>StatMove0</title>
<ellipse fill="none" stroke="black" cx="286.046" cy="-306" rx="50.0912" ry="18"/>
<text text-anchor="middle" x="286.046" y="-302.3" font-family="Times,serif" font-size="14.00">StatMove0</text>
</g>
<!-- ExpTemp0 -->
<g id="node12" class="node"><title>ExpTemp0</title>
<ellipse fill="none" stroke="black" cx="168.046" cy="-234" rx="50.0912" ry="18"/>
<text text-anchor="middle" x="168.046" y="-230.3" font-family="Times,serif" font-size="14.00">ExpTemp0</text>
</g>
<!-- StatMove0&#45;&gt;ExpTemp0 -->
<g id="edge8" class="edge"><title>StatMove0&#45;&gt;ExpTemp0</title>
<path fill="none" stroke="black" d="M261.309,-290.326C243.923,-280.012 220.463,-266.095 201.422,-254.8"/>
<polygon fill="black" stroke="black" points="203.136,-251.747 192.75,-249.655 199.564,-257.767 203.136,-251.747"/>
</g>
<!-- ExpTemp1 -->
<g id="node13" class="node"><title>ExpTemp1</title>
<ellipse fill="none" stroke="black" cx="286.046" cy="-234" rx="50.0912" ry="18"/>
<text text-anchor="middle" x="286.046" y="-230.3" font-family="Times,serif" font-size="14.00">ExpTemp1</text>
</g>
<!-- StatMove0&#45;&gt;ExpTemp1 -->
<g id="edge9" class="edge"><title>StatMove0&#45;&gt;ExpTemp1</title>
<path fill="none" stroke="black" d="M286.046,-287.697C286.046,-279.983 286.046,-270.712 286.046,-262.112"/>
<polygon fill="black" stroke="black" points="289.546,-262.104 286.046,-252.104 282.546,-262.104 289.546,-262.104"/>
</g>
<!-- Temp0: T99 -->
<g id="node15" class="node"><title>Temp0: T99</title>
<ellipse fill="none" stroke="black" cx="153.046" cy="-162" rx="55.4913" ry="18"/>
<text text-anchor="middle" x="153.046" y="-158.3" font-family="Times,serif" font-size="14.00">Temp0: T99</text>
</g>
<!-- ExpTemp0&#45;&gt;Temp0: T99 -->
<g id="edge11" class="edge"><title>ExpTemp0&#45;&gt;Temp0: T99</title>
<path fill="none" stroke="black" d="M164.338,-215.697C162.685,-207.983 160.698,-198.712 158.855,-190.112"/>
<polygon fill="black" stroke="black" points="162.228,-189.149 156.711,-180.104 155.384,-190.616 162.228,-189.149"/>
</g>
<!-- Temp1: T41 -->
<g id="node25" class="node"><title>Temp1: T41</title>
<ellipse fill="none" stroke="black" cx="281.046" cy="-162" rx="55.4913" ry="18"/>
<text text-anchor="middle" x="281.046" y="-158.3" font-family="Times,serif" font-size="14.00">Temp1: T41</text>
</g>
<!-- ExpTemp1&#45;&gt;Temp1: T41 -->
<g id="edge21" class="edge"><title>ExpTemp1&#45;&gt;Temp1: T41</title>
<path fill="none" stroke="black" d="M284.81,-215.697C284.259,-207.983 283.596,-198.712 282.982,-190.112"/>
<polygon fill="black" stroke="black" points="286.471,-189.83 282.267,-180.104 279.489,-190.328 286.471,-189.83"/>
</g>
<!-- StatExp0 -->
<g id="node14" class="node"><title>StatExp0</title>
<ellipse fill="none" stroke="black" cx="817.046" cy="-306" rx="42.7926" ry="18"/>
<text text-anchor="middle" x="817.046" y="-302.3" font-family="Times,serif" font-size="14.00">StatExp0</text>
</g>
<!-- StatExp0&#45;&gt;ExpTemp5 -->
<g id="edge10" class="edge"><title>StatExp0&#45;&gt;ExpTemp5</title>
<path fill="none" stroke="black" d="M830.962,-288.765C838.426,-280.056 847.777,-269.147 856.101,-259.435"/>
<polygon fill="black" stroke="black" points="858.938,-261.504 862.788,-251.633 853.623,-256.948 858.938,-261.504"/>
</g>
<!-- StatList0 -->
<g id="node16" class="node"><title>StatList0</title>
<ellipse fill="none" stroke="black" cx="587.046" cy="-378" rx="42.4939" ry="18"/>
<text text-anchor="middle" x="587.046" y="-374.3" font-family="Times,serif" font-size="14.00">StatList0</text>
</g>
<!-- StatList0&#45;&gt;StatJump0 -->
<g id="edge17" class="edge"><title>StatList0&#45;&gt;StatJump0</title>
<path fill="none" stroke="black" d="M624.863,-369.903C692.042,-357.296 832.256,-330.982 908.31,-316.709"/>
<polygon fill="black" stroke="black" points="908.971,-320.146 918.153,-314.862 907.679,-313.266 908.971,-320.146"/>
</g>
<!-- StatList0&#45;&gt;StatMove0 -->
<g id="edge13" class="edge"><title>StatList0&#45;&gt;StatMove0</title>
<path fill="none" stroke="black" d="M550.738,-368.556C497.379,-356.147 397.56,-332.934 336.919,-318.831"/>
<polygon fill="black" stroke="black" points="337.338,-315.335 326.805,-316.479 335.752,-322.153 337.338,-315.335"/>
</g>
<!-- StatList0&#45;&gt;StatExp0 -->
<g id="edge16" class="edge"><title>StatList0&#45;&gt;StatExp0</title>
<path fill="none" stroke="black" d="M620.49,-366.821C660.914,-354.518 729.039,-333.785 773.522,-320.246"/>
<polygon fill="black" stroke="black" points="774.639,-323.565 783.186,-317.305 772.601,-316.868 774.639,-323.565"/>
</g>
<!-- StatLabel0 -->
<g id="node17" class="node"><title>StatLabel0</title>
<ellipse fill="none" stroke="black" cx="110.046" cy="-306" rx="48.9926" ry="18"/>
<text text-anchor="middle" x="110.046" y="-302.3" font-family="Times,serif" font-size="14.00">StatLabel0</text>
</g>
<!-- StatList0&#45;&gt;StatLabel0 -->
<g id="edge12" class="edge"><title>StatList0&#45;&gt;StatLabel0</title>
<path fill="none" stroke="black" d="M547.605,-371.212C462.558,-358.731 261.774,-329.266 164.607,-315.007"/>
<polygon fill="black" stroke="black" points="165.092,-311.541 154.69,-313.552 164.076,-318.467 165.092,-311.541"/>
</g>
<!-- StatMove1 -->
<g id="node18" class="node"><title>StatMove1</title>
<ellipse fill="none" stroke="black" cx="528.046" cy="-306" rx="50.0912" ry="18"/>
<text text-anchor="middle" x="528.046" y="-302.3" font-family="Times,serif" font-size="14.00">StatMove1</text>
</g>
<!-- StatList0&#45;&gt;StatMove1 -->
<g id="edge14" class="edge"><title>StatList0&#45;&gt;StatMove1</title>
<path fill="none" stroke="black" d="M573.361,-360.765C566.021,-352.056 556.826,-341.147 548.641,-331.435"/>
<polygon fill="black" stroke="black" points="551.186,-329.024 542.065,-323.633 545.834,-333.535 551.186,-329.024"/>
</g>
<!-- StatMove2 -->
<g id="node19" class="node"><title>StatMove2</title>
<ellipse fill="none" stroke="black" cx="647.046" cy="-306" rx="50.0912" ry="18"/>
<text text-anchor="middle" x="647.046" y="-302.3" font-family="Times,serif" font-size="14.00">StatMove2</text>
</g>
<!-- StatList0&#45;&gt;StatMove2 -->
<g id="edge15" class="edge"><title>StatList0&#45;&gt;StatMove2</title>
<path fill="none" stroke="black" d="M600.962,-360.765C608.426,-352.056 617.777,-341.147 626.101,-331.435"/>
<polygon fill="black" stroke="black" points="628.938,-333.504 632.788,-323.633 623.623,-328.948 628.938,-333.504"/>
</g>
<!-- Label0: L3 -->
<g id="node20" class="node"><title>Label0: L3</title>
<ellipse fill="none" stroke="black" cx="50.0456" cy="-234" rx="50.0912" ry="18"/>
<text text-anchor="middle" x="50.0456" y="-230.3" font-family="Times,serif" font-size="14.00">Label0: L3</text>
</g>
<!-- StatLabel0&#45;&gt;Label0: L3 -->
<g id="edge18" class="edge"><title>StatLabel0&#45;&gt;Label0: L3</title>
<path fill="none" stroke="black" d="M95.8264,-288.411C88.3541,-279.693 79.0559,-268.845 70.795,-259.208"/>
<polygon fill="black" stroke="black" points="73.328,-256.785 64.1627,-251.47 68.0132,-261.34 73.328,-256.785"/>
</g>
<!-- ExpConst0 -->
<g id="node21" class="node"><title>ExpConst0</title>
<ellipse fill="none" stroke="black" cx="528.046" cy="-234" rx="50.0912" ry="18"/>
<text text-anchor="middle" x="528.046" y="-230.3" font-family="Times,serif" font-size="14.00">ExpConst0</text>
</g>
<!-- StatMove1&#45;&gt;ExpConst0 -->
<g id="edge23" class="edge"><title>StatMove1&#45;&gt;ExpConst0</title>
<path fill="none" stroke="black" d="M528.046,-287.697C528.046,-279.983 528.046,-270.712 528.046,-262.112"/>
<polygon fill="black" stroke="black" points="531.546,-262.104 528.046,-252.104 524.546,-262.104 531.546,-262.104"/>
</g>
<!-- ExpTemp2 -->
<g id="node26" class="node"><title>ExpTemp2</title>
<ellipse fill="none" stroke="black" cx="409.046" cy="-234" rx="50.0912" ry="18"/>
<text text-anchor="middle" x="409.046" y="-230.3" font-family="Times,serif" font-size="14.00">ExpTemp2</text>
</g>
<!-- StatMove1&#45;&gt;ExpTemp2 -->
<g id="edge22" class="edge"><title>StatMove1&#45;&gt;ExpTemp2</title>
<path fill="none" stroke="black" d="M503.099,-290.326C485.566,-280.012 461.907,-266.095 442.705,-254.8"/>
<polygon fill="black" stroke="black" points="444.353,-251.708 433.959,-249.655 440.804,-257.742 444.353,-251.708"/>
</g>
<!-- StatMove2&#45;&gt;ExpCall0 -->
<g id="edge26" class="edge"><title>StatMove2&#45;&gt;ExpCall0</title>
<path fill="none" stroke="black" d="M671.782,-290.326C689.401,-279.874 713.259,-265.721 732.433,-254.346"/>
<polygon fill="black" stroke="black" points="734.333,-257.289 741.148,-249.177 730.761,-251.269 734.333,-257.289"/>
</g>
<!-- ExpTemp3 -->
<g id="node23" class="node"><title>ExpTemp3</title>
<ellipse fill="none" stroke="black" cx="647.046" cy="-234" rx="50.0912" ry="18"/>
<text text-anchor="middle" x="647.046" y="-230.3" font-family="Times,serif" font-size="14.00">ExpTemp3</text>
</g>
<!-- StatMove2&#45;&gt;ExpTemp3 -->
<g id="edge25" class="edge"><title>StatMove2&#45;&gt;ExpTemp3</title>
<path fill="none" stroke="black" d="M647.046,-287.697C647.046,-279.983 647.046,-270.712 647.046,-262.112"/>
<polygon fill="black" stroke="black" points="650.546,-262.104 647.046,-252.104 643.546,-262.104 650.546,-262.104"/>
</g>
<!-- Value0: 1 -->
<g id="node22" class="node"><title>Value0: 1</title>
<ellipse fill="none" stroke="black" cx="528.046" cy="-162" rx="45.4919" ry="18"/>
<text text-anchor="middle" x="528.046" y="-158.3" font-family="Times,serif" font-size="14.00">Value0: 1</text>
</g>
<!-- ExpConst0&#45;&gt;Value0: 1 -->
<g id="edge19" class="edge"><title>ExpConst0&#45;&gt;Value0: 1</title>
<path fill="none" stroke="black" d="M528.046,-215.697C528.046,-207.983 528.046,-198.712 528.046,-190.112"/>
<polygon fill="black" stroke="black" points="531.546,-190.104 528.046,-180.104 524.546,-190.104 531.546,-190.104"/>
</g>
<!-- Temp3: T99 -->
<g id="node24" class="node"><title>Temp3: T99</title>
<ellipse fill="none" stroke="black" cx="647.046" cy="-162" rx="55.4913" ry="18"/>
<text text-anchor="middle" x="647.046" y="-158.3" font-family="Times,serif" font-size="14.00">Temp3: T99</text>
</g>
<!-- ExpTemp3&#45;&gt;Temp3: T99 -->
<g id="edge20" class="edge"><title>ExpTemp3&#45;&gt;Temp3: T99</title>
<path fill="none" stroke="black" d="M647.046,-215.697C647.046,-207.983 647.046,-198.712 647.046,-190.112"/>
<polygon fill="black" stroke="black" points="650.546,-190.104 647.046,-180.104 643.546,-190.104 650.546,-190.104"/>
</g>
<!-- Temp2: T98 -->
<g id="node27" class="node"><title>Temp2: T98</title>
<ellipse fill="none" stroke="black" cx="409.046" cy="-162" rx="55.4913" ry="18"/>
<text text-anchor="middle" x="409.046" y="-158.3" font-family="Times,serif" font-size="14.00">Temp2: T98</text>
</g>
<!-- ExpTemp2&#45;&gt;Temp2: T98 -->
<g id="edge24" class="edge"><title>ExpTemp2&#45;&gt;Temp2: T98</title>
<path fill="none" stroke="black" d="M409.046,-215.697C409.046,-207.983 409.046,-198.712 409.046,-190.112"/>
<polygon fill="black" stroke="black" points="412.546,-190.104 409.046,-180.104 405.546,-190.104 412.546,-190.104"/>
</g>
</g>
</svg>
