<?xml version="1.0" encoding="UTF-8" standalone="no"?>
<!DOCTYPE svg PUBLIC "-//W3C//DTD SVG 1.1//EN"
 "http://www.w3.org/Graphics/SVG/1.1/DTD/svg11.dtd">
<!-- Generated by graphviz version 2.38.0 (20140413.2041)
 -->
<!-- Title: %3 Pages: 1 -->
<svg width="326pt" height="260pt"
 viewBox="0.00 0.00 326.39 260.00" xmlns="http://www.w3.org/2000/svg" xmlns:xlink="http://www.w3.org/1999/xlink">
<g id="graph0" class="graph" transform="scale(1 1) rotate(0) translate(4 256)">
<title>%3</title>
<polygon fill="white" stroke="none" points="-4,4 -4,-256 322.391,-256 322.391,4 -4,4"/>
<!-- Temp0 -->
<g id="node1" class="node"><title>Temp0</title>
<ellipse fill="none" stroke="black" cx="59.6955" cy="-162" rx="36.2938" ry="18"/>
<text text-anchor="middle" x="59.6955" y="-158.3" font-family="Times,serif" font-size="14.00">Temp0</text>
</g>
<!-- Temp1: T8 -->
<g id="node2" class="node"><title>Temp1: T8</title>
<ellipse fill="none" stroke="black" cx="50.6955" cy="-90" rx="50.8918" ry="18"/>
<text text-anchor="middle" x="50.6955" y="-86.3" font-family="Times,serif" font-size="14.00">Temp1: T8</text>
</g>
<!-- Temp0&#45;&gt;Temp1: T8 -->
<g id="edge1" class="edge"><title>Temp0&#45;&gt;Temp1: T8</title>
<path fill="none" stroke="black" d="M57.4708,-143.697C56.479,-135.983 55.2871,-126.712 54.1814,-118.112"/>
<polygon fill="black" stroke="black" points="57.6414,-117.576 52.8946,-108.104 50.6985,-118.469 57.6414,-117.576"/>
</g>
<!-- Temp2 -->
<g id="node3" class="node"><title>Temp2</title>
<ellipse fill="none" stroke="black" cx="155.696" cy="-90" rx="36.2938" ry="18"/>
<text text-anchor="middle" x="155.696" y="-86.3" font-family="Times,serif" font-size="14.00">Temp2</text>
</g>
<!-- Temp3: T4 -->
<g id="node4" class="node"><title>Temp3: T4</title>
<ellipse fill="none" stroke="black" cx="148.696" cy="-18" rx="50.8918" ry="18"/>
<text text-anchor="middle" x="148.696" y="-14.3" font-family="Times,serif" font-size="14.00">Temp3: T4</text>
</g>
<!-- Temp2&#45;&gt;Temp3: T4 -->
<g id="edge2" class="edge"><title>Temp2&#45;&gt;Temp3: T4</title>
<path fill="none" stroke="black" d="M153.965,-71.6966C153.194,-63.9827 152.267,-54.7125 151.407,-46.1124"/>
<polygon fill="black" stroke="black" points="154.884,-45.7064 150.406,-36.1043 147.918,-46.403 154.884,-45.7064"/>
</g>
<!-- MoveRegister0 -->
<g id="node5" class="node"><title>MoveRegister0</title>
<ellipse fill="none" stroke="black" cx="107.696" cy="-234" rx="65.7887" ry="18"/>
<text text-anchor="middle" x="107.696" y="-230.3" font-family="Times,serif" font-size="14.00">MoveRegister0</text>
</g>
<!-- MoveRegister0&#45;&gt;Temp0 -->
<g id="edge3" class="edge"><title>MoveRegister0&#45;&gt;Temp0</title>
<path fill="none" stroke="black" d="M96.076,-216.055C90.2131,-207.505 82.9926,-196.975 76.5339,-187.556"/>
<polygon fill="black" stroke="black" points="79.4193,-185.575 70.8774,-179.307 73.6462,-189.534 79.4193,-185.575"/>
</g>
<!-- Mult0 -->
<g id="node6" class="node"><title>Mult0</title>
<ellipse fill="none" stroke="black" cx="155.696" cy="-162" rx="32.4942" ry="18"/>
<text text-anchor="middle" x="155.696" y="-158.3" font-family="Times,serif" font-size="14.00">Mult0</text>
</g>
<!-- MoveRegister0&#45;&gt;Mult0 -->
<g id="edge4" class="edge"><title>MoveRegister0&#45;&gt;Mult0</title>
<path fill="none" stroke="black" d="M119.315,-216.055C125.178,-207.505 132.398,-196.975 138.857,-187.556"/>
<polygon fill="black" stroke="black" points="141.745,-189.534 144.514,-179.307 135.972,-185.575 141.745,-189.534"/>
</g>
<!-- Mult0&#45;&gt;Temp2 -->
<g id="edge6" class="edge"><title>Mult0&#45;&gt;Temp2</title>
<path fill="none" stroke="black" d="M155.696,-143.697C155.696,-135.983 155.696,-126.712 155.696,-118.112"/>
<polygon fill="black" stroke="black" points="159.196,-118.104 155.696,-108.104 152.196,-118.104 159.196,-118.104"/>
</g>
<!-- Temp4 -->
<g id="node7" class="node"><title>Temp4</title>
<ellipse fill="none" stroke="black" cx="260.696" cy="-90" rx="36.2938" ry="18"/>
<text text-anchor="middle" x="260.696" y="-86.3" font-family="Times,serif" font-size="14.00">Temp4</text>
</g>
<!-- Mult0&#45;&gt;Temp4 -->
<g id="edge7" class="edge"><title>Mult0&#45;&gt;Temp4</title>
<path fill="none" stroke="black" d="M175.941,-147.503C191.571,-137.083 213.429,-122.511 231.032,-110.776"/>
<polygon fill="black" stroke="black" points="233.415,-113.394 239.794,-104.934 229.532,-107.569 233.415,-113.394"/>
</g>
<!-- Temp5: T0 -->
<g id="node8" class="node"><title>Temp5: T0</title>
<ellipse fill="none" stroke="black" cx="267.696" cy="-18" rx="50.8918" ry="18"/>
<text text-anchor="middle" x="267.696" y="-14.3" font-family="Times,serif" font-size="14.00">Temp5: T0</text>
</g>
<!-- Temp4&#45;&gt;Temp5: T0 -->
<g id="edge5" class="edge"><title>Temp4&#45;&gt;Temp5: T0</title>
<path fill="none" stroke="black" d="M262.426,-71.6966C263.197,-63.9827 264.124,-54.7125 264.984,-46.1124"/>
<polygon fill="black" stroke="black" points="268.473,-46.403 265.985,-36.1043 261.507,-45.7064 268.473,-46.403"/>
</g>
</g>
</svg>
