<?xml version="1.0" encoding="UTF-8" standalone="no"?>
<!DOCTYPE svg PUBLIC "-//W3C//DTD SVG 1.1//EN"
 "http://www.w3.org/Graphics/SVG/1.1/DTD/svg11.dtd">
<!-- Generated by graphviz version 2.38.0 (20140413.2041)
 -->
<!-- Title: %3 Pages: 1 -->
<svg width="645pt" height="404pt"
 viewBox="0.00 0.00 645.14 404.00" xmlns="http://www.w3.org/2000/svg" xmlns:xlink="http://www.w3.org/1999/xlink">
<g id="graph0" class="graph" transform="scale(1 1) rotate(0) translate(4 400)">
<title>%3</title>
<polygon fill="white" stroke="none" points="-4,4 -4,-400 641.141,-400 641.141,4 -4,4"/>
<!-- Load3 -->
<g id="node1" class="node"><title>Load3</title>
<ellipse fill="none" stroke="black" cx="491.645" cy="-234" rx="33.2948" ry="18"/>
<text text-anchor="middle" x="491.645" y="-230.3" font-family="Times,serif" font-size="14.00">Load3</text>
</g>
<!-- Load4 -->
<g id="node2" class="node"><title>Load4</title>
<ellipse fill="none" stroke="black" cx="491.645" cy="-162" rx="33.2948" ry="18"/>
<text text-anchor="middle" x="491.645" y="-158.3" font-family="Times,serif" font-size="14.00">Load4</text>
</g>
<!-- Load3&#45;&gt;Load4 -->
<g id="edge1" class="edge"><title>Load3&#45;&gt;Load4</title>
<path fill="none" stroke="black" d="M491.645,-215.697C491.645,-207.983 491.645,-198.712 491.645,-190.112"/>
<polygon fill="black" stroke="black" points="495.145,-190.104 491.645,-180.104 488.145,-190.104 495.145,-190.104"/>
</g>
<!-- Value6: 0 -->
<g id="node3" class="node"><title>Value6: 0</title>
<ellipse fill="none" stroke="black" cx="588.645" cy="-162" rx="45.4919" ry="18"/>
<text text-anchor="middle" x="588.645" y="-158.3" font-family="Times,serif" font-size="14.00">Value6: 0</text>
</g>
<!-- Load3&#45;&gt;Value6: 0 -->
<g id="edge2" class="edge"><title>Load3&#45;&gt;Value6: 0</title>
<path fill="none" stroke="black" d="M510.809,-219.17C524.692,-209.152 543.711,-195.427 559.473,-184.052"/>
<polygon fill="black" stroke="black" points="561.781,-186.703 567.842,-178.013 557.685,-181.026 561.781,-186.703"/>
</g>
<!-- Temp4 -->
<g id="node4" class="node"><title>Temp4</title>
<ellipse fill="none" stroke="black" cx="491.645" cy="-90" rx="36.2938" ry="18"/>
<text text-anchor="middle" x="491.645" y="-86.3" font-family="Times,serif" font-size="14.00">Temp4</text>
</g>
<!-- Load4&#45;&gt;Temp4 -->
<g id="edge3" class="edge"><title>Load4&#45;&gt;Temp4</title>
<path fill="none" stroke="black" d="M491.645,-143.697C491.645,-135.983 491.645,-126.712 491.645,-118.112"/>
<polygon fill="black" stroke="black" points="495.145,-118.104 491.645,-108.104 488.145,-118.104 495.145,-118.104"/>
</g>
<!-- Value5: 0 -->
<g id="node5" class="node"><title>Value5: 0</title>
<ellipse fill="none" stroke="black" cx="591.645" cy="-90" rx="45.4919" ry="18"/>
<text text-anchor="middle" x="591.645" y="-86.3" font-family="Times,serif" font-size="14.00">Value5: 0</text>
</g>
<!-- Load4&#45;&gt;Value5: 0 -->
<g id="edge4" class="edge"><title>Load4&#45;&gt;Value5: 0</title>
<path fill="none" stroke="black" d="M511.402,-147.17C525.714,-137.152 545.321,-123.427 561.571,-112.052"/>
<polygon fill="black" stroke="black" points="564.013,-114.615 570.199,-106.013 559.999,-108.88 564.013,-114.615"/>
</g>
<!-- Temp5: $fp -->
<g id="node13" class="node"><title>Temp5: $fp</title>
<ellipse fill="none" stroke="black" cx="497.645" cy="-18" rx="52.7911" ry="18"/>
<text text-anchor="middle" x="497.645" y="-14.3" font-family="Times,serif" font-size="14.00">Temp5: $fp</text>
</g>
<!-- Temp4&#45;&gt;Temp5: $fp -->
<g id="edge13" class="edge"><title>Temp4&#45;&gt;Temp5: $fp</title>
<path fill="none" stroke="black" d="M493.128,-71.6966C493.79,-63.9827 494.584,-54.7125 495.321,-46.1124"/>
<polygon fill="black" stroke="black" points="498.812,-46.3667 496.179,-36.1043 491.838,-45.7689 498.812,-46.3667"/>
</g>
<!-- Store0 -->
<g id="node6" class="node"><title>Store0</title>
<ellipse fill="none" stroke="black" cx="300.645" cy="-378" rx="33.5952" ry="18"/>
<text text-anchor="middle" x="300.645" y="-374.3" font-family="Times,serif" font-size="14.00">Store0</text>
</g>
<!-- Load0 -->
<g id="node7" class="node"><title>Load0</title>
<ellipse fill="none" stroke="black" cx="203.645" cy="-306" rx="33.2948" ry="18"/>
<text text-anchor="middle" x="203.645" y="-302.3" font-family="Times,serif" font-size="14.00">Load0</text>
</g>
<!-- Store0&#45;&gt;Load0 -->
<g id="edge5" class="edge"><title>Store0&#45;&gt;Load0</title>
<path fill="none" stroke="black" d="M281.481,-363.17C267.133,-352.816 247.298,-338.502 231.242,-326.915"/>
<polygon fill="black" stroke="black" points="232.927,-323.815 222.77,-320.801 228.83,-329.491 232.927,-323.815"/>
</g>
<!-- Value2: 0 -->
<g id="node8" class="node"><title>Value2: 0</title>
<ellipse fill="none" stroke="black" cx="300.645" cy="-306" rx="45.4919" ry="18"/>
<text text-anchor="middle" x="300.645" y="-302.3" font-family="Times,serif" font-size="14.00">Value2: 0</text>
</g>
<!-- Store0&#45;&gt;Value2: 0 -->
<g id="edge6" class="edge"><title>Store0&#45;&gt;Value2: 0</title>
<path fill="none" stroke="black" d="M294.767,-360.055C293.949,-352.346 293.707,-343.027 294.04,-334.364"/>
<polygon fill="black" stroke="black" points="297.54,-334.491 294.733,-324.275 290.556,-334.012 297.54,-334.491"/>
</g>
<!-- Store0&#45;&gt;Value2: 0 -->
<g id="edge8" class="edge"><title>Store0&#45;&gt;Value2: 0</title>
<path fill="none" stroke="black" d="M306.524,-360.055C307.342,-352.346 307.584,-343.027 307.25,-334.364"/>
<polygon fill="black" stroke="black" points="310.735,-334.012 306.558,-324.275 303.751,-334.491 310.735,-334.012"/>
</g>
<!-- Mult0 -->
<g id="node9" class="node"><title>Mult0</title>
<ellipse fill="none" stroke="black" cx="396.645" cy="-306" rx="32.4942" ry="18"/>
<text text-anchor="middle" x="396.645" y="-302.3" font-family="Times,serif" font-size="14.00">Mult0</text>
</g>
<!-- Store0&#45;&gt;Mult0 -->
<g id="edge7" class="edge"><title>Store0&#45;&gt;Mult0</title>
<path fill="none" stroke="black" d="M320.072,-362.834C334.218,-352.52 353.569,-338.41 369.278,-326.955"/>
<polygon fill="black" stroke="black" points="371.557,-329.625 377.575,-320.906 367.433,-323.969 371.557,-329.625"/>
</g>
<!-- Load1 -->
<g id="node10" class="node"><title>Load1</title>
<ellipse fill="none" stroke="black" cx="143.645" cy="-234" rx="33.2948" ry="18"/>
<text text-anchor="middle" x="143.645" y="-230.3" font-family="Times,serif" font-size="14.00">Load1</text>
</g>
<!-- Load0&#45;&gt;Load1 -->
<g id="edge9" class="edge"><title>Load0&#45;&gt;Load1</title>
<path fill="none" stroke="black" d="M190.329,-289.465C182.593,-280.439 172.685,-268.88 163.99,-258.735"/>
<polygon fill="black" stroke="black" points="166.505,-256.292 157.34,-250.977 161.191,-260.848 166.505,-256.292"/>
</g>
<!-- Value1: 0 -->
<g id="node11" class="node"><title>Value1: 0</title>
<ellipse fill="none" stroke="black" cx="240.645" cy="-234" rx="45.4919" ry="18"/>
<text text-anchor="middle" x="240.645" y="-230.3" font-family="Times,serif" font-size="14.00">Value1: 0</text>
</g>
<!-- Load0&#45;&gt;Value1: 0 -->
<g id="edge10" class="edge"><title>Load0&#45;&gt;Value1: 0</title>
<path fill="none" stroke="black" d="M212.414,-288.411C216.728,-280.249 222.029,-270.22 226.868,-261.065"/>
<polygon fill="black" stroke="black" points="230.104,-262.433 231.683,-251.956 223.915,-259.162 230.104,-262.433"/>
</g>
<!-- Mult0&#45;&gt;Load3 -->
<g id="edge12" class="edge"><title>Mult0&#45;&gt;Load3</title>
<path fill="none" stroke="black" d="M415.414,-291.17C429.376,-280.883 448.641,-266.687 464.311,-255.141"/>
<polygon fill="black" stroke="black" points="466.616,-257.79 472.59,-249.041 462.463,-252.155 466.616,-257.79"/>
</g>
<!-- Load2 -->
<g id="node12" class="node"><title>Load2</title>
<ellipse fill="none" stroke="black" cx="386.645" cy="-234" rx="33.2948" ry="18"/>
<text text-anchor="middle" x="386.645" y="-230.3" font-family="Times,serif" font-size="14.00">Load2</text>
</g>
<!-- Mult0&#45;&gt;Load2 -->
<g id="edge11" class="edge"><title>Mult0&#45;&gt;Load2</title>
<path fill="none" stroke="black" d="M394.173,-287.697C393.071,-279.983 391.747,-270.712 390.519,-262.112"/>
<polygon fill="black" stroke="black" points="393.968,-261.509 389.089,-252.104 387.038,-262.499 393.968,-261.509"/>
</g>
<!-- Temp0 -->
<g id="node14" class="node"><title>Temp0</title>
<ellipse fill="none" stroke="black" cx="52.6453" cy="-162" rx="36.2938" ry="18"/>
<text text-anchor="middle" x="52.6453" y="-158.3" font-family="Times,serif" font-size="14.00">Temp0</text>
</g>
<!-- Load1&#45;&gt;Temp0 -->
<g id="edge15" class="edge"><title>Load1&#45;&gt;Temp0</title>
<path fill="none" stroke="black" d="M125.23,-218.834C112.206,-208.816 94.5265,-195.216 79.8769,-183.947"/>
<polygon fill="black" stroke="black" points="81.7198,-180.949 71.6596,-177.626 77.4518,-186.498 81.7198,-180.949"/>
</g>
<!-- Value0: 0 -->
<g id="node16" class="node"><title>Value0: 0</title>
<ellipse fill="none" stroke="black" cx="152.645" cy="-162" rx="45.4919" ry="18"/>
<text text-anchor="middle" x="152.645" y="-158.3" font-family="Times,serif" font-size="14.00">Value0: 0</text>
</g>
<!-- Load1&#45;&gt;Value0: 0 -->
<g id="edge16" class="edge"><title>Load1&#45;&gt;Value0: 0</title>
<path fill="none" stroke="black" d="M145.87,-215.697C146.862,-207.983 148.054,-198.712 149.159,-190.112"/>
<polygon fill="black" stroke="black" points="152.642,-190.469 150.446,-180.104 145.699,-189.576 152.642,-190.469"/>
</g>
<!-- Add0 -->
<g id="node19" class="node"><title>Add0</title>
<ellipse fill="none" stroke="black" cx="276.645" cy="-162" rx="30.5947" ry="18"/>
<text text-anchor="middle" x="276.645" y="-158.3" font-family="Times,serif" font-size="14.00">Add0</text>
</g>
<!-- Load2&#45;&gt;Add0 -->
<g id="edge18" class="edge"><title>Load2&#45;&gt;Add0</title>
<path fill="none" stroke="black" d="M365.955,-219.834C348.87,-208.961 324.431,-193.409 305.436,-181.321"/>
<polygon fill="black" stroke="black" points="307.187,-178.287 296.871,-175.871 303.429,-184.193 307.187,-178.287"/>
</g>
<!-- Value4: 0 -->
<g id="node20" class="node"><title>Value4: 0</title>
<ellipse fill="none" stroke="black" cx="386.645" cy="-162" rx="45.4919" ry="18"/>
<text text-anchor="middle" x="386.645" y="-158.3" font-family="Times,serif" font-size="14.00">Value4: 0</text>
</g>
<!-- Load2&#45;&gt;Value4: 0 -->
<g id="edge19" class="edge"><title>Load2&#45;&gt;Value4: 0</title>
<path fill="none" stroke="black" d="M386.645,-215.697C386.645,-207.983 386.645,-198.712 386.645,-190.112"/>
<polygon fill="black" stroke="black" points="390.145,-190.104 386.645,-180.104 383.145,-190.104 390.145,-190.104"/>
</g>
<!-- Temp1: $fp -->
<g id="node15" class="node"><title>Temp1: $fp</title>
<ellipse fill="none" stroke="black" cx="52.6453" cy="-90" rx="52.7911" ry="18"/>
<text text-anchor="middle" x="52.6453" y="-86.3" font-family="Times,serif" font-size="14.00">Temp1: $fp</text>
</g>
<!-- Temp0&#45;&gt;Temp1: $fp -->
<g id="edge14" class="edge"><title>Temp0&#45;&gt;Temp1: $fp</title>
<path fill="none" stroke="black" d="M52.6453,-143.697C52.6453,-135.983 52.6453,-126.712 52.6453,-118.112"/>
<polygon fill="black" stroke="black" points="56.1454,-118.104 52.6453,-108.104 49.1454,-118.104 56.1454,-118.104"/>
</g>
<!-- Temp2 -->
<g id="node17" class="node"><title>Temp2</title>
<ellipse fill="none" stroke="black" cx="164.645" cy="-90" rx="36.2938" ry="18"/>
<text text-anchor="middle" x="164.645" y="-86.3" font-family="Times,serif" font-size="14.00">Temp2</text>
</g>
<!-- Temp3: $fp -->
<g id="node18" class="node"><title>Temp3: $fp</title>
<ellipse fill="none" stroke="black" cx="158.645" cy="-18" rx="52.7911" ry="18"/>
<text text-anchor="middle" x="158.645" y="-14.3" font-family="Times,serif" font-size="14.00">Temp3: $fp</text>
</g>
<!-- Temp2&#45;&gt;Temp3: $fp -->
<g id="edge17" class="edge"><title>Temp2&#45;&gt;Temp3: $fp</title>
<path fill="none" stroke="black" d="M163.162,-71.6966C162.501,-63.9827 161.706,-54.7125 160.969,-46.1124"/>
<polygon fill="black" stroke="black" points="164.453,-45.7689 160.111,-36.1043 157.478,-46.3667 164.453,-45.7689"/>
</g>
<!-- Add0&#45;&gt;Temp2 -->
<g id="edge20" class="edge"><title>Add0&#45;&gt;Temp2</title>
<path fill="none" stroke="black" d="M256.363,-148.324C239.198,-137.595 214.349,-122.065 194.844,-109.874"/>
<polygon fill="black" stroke="black" points="196.64,-106.87 186.305,-104.538 192.93,-112.806 196.64,-106.87"/>
</g>
<!-- AddConst0 -->
<g id="node21" class="node"><title>AddConst0</title>
<ellipse fill="none" stroke="black" cx="276.645" cy="-90" rx="50.8918" ry="18"/>
<text text-anchor="middle" x="276.645" y="-86.3" font-family="Times,serif" font-size="14.00">AddConst0</text>
</g>
<!-- Add0&#45;&gt;AddConst0 -->
<g id="edge21" class="edge"><title>Add0&#45;&gt;AddConst0</title>
<path fill="none" stroke="black" d="M276.645,-143.697C276.645,-135.983 276.645,-126.712 276.645,-118.112"/>
<polygon fill="black" stroke="black" points="280.145,-118.104 276.645,-108.104 273.145,-118.104 280.145,-118.104"/>
</g>
<!-- NullExp0 -->
<g id="node22" class="node"><title>NullExp0</title>
<ellipse fill="none" stroke="black" cx="273.645" cy="-18" rx="44.6926" ry="18"/>
<text text-anchor="middle" x="273.645" y="-14.3" font-family="Times,serif" font-size="14.00">NullExp0</text>
</g>
<!-- AddConst0&#45;&gt;NullExp0 -->
<g id="edge22" class="edge"><title>AddConst0&#45;&gt;NullExp0</title>
<path fill="none" stroke="black" d="M275.904,-71.6966C275.573,-63.9827 275.176,-54.7125 274.807,-46.1124"/>
<polygon fill="black" stroke="black" points="278.303,-45.9453 274.378,-36.1043 271.31,-46.2451 278.303,-45.9453"/>
</g>
<!-- Value3: 4 -->
<g id="node23" class="node"><title>Value3: 4</title>
<ellipse fill="none" stroke="black" cx="381.645" cy="-18" rx="45.4919" ry="18"/>
<text text-anchor="middle" x="381.645" y="-14.3" font-family="Times,serif" font-size="14.00">Value3: 4</text>
</g>
<!-- AddConst0&#45;&gt;Value3: 4 -->
<g id="edge23" class="edge"><title>AddConst0&#45;&gt;Value3: 4</title>
<path fill="none" stroke="black" d="M299.429,-73.811C314.391,-63.8364 334.154,-50.661 350.554,-39.7277"/>
<polygon fill="black" stroke="black" points="352.888,-42.3781 359.267,-33.9188 349.005,-36.5537 352.888,-42.3781"/>
</g>
</g>
</svg>
