<?xml version="1.0" encoding="UTF-8" standalone="no"?>
<!DOCTYPE svg PUBLIC "-//W3C//DTD SVG 1.1//EN"
 "http://www.w3.org/Graphics/SVG/1.1/DTD/svg11.dtd">
<!-- Generated by graphviz version 2.38.0 (20140413.2041)
 -->
<!-- Title: %3 Pages: 1 -->
<svg width="754pt" height="404pt"
 viewBox="0.00 0.00 754.14 404.00" xmlns="http://www.w3.org/2000/svg" xmlns:xlink="http://www.w3.org/1999/xlink">
<g id="graph0" class="graph" transform="scale(1 1) rotate(0) translate(4 400)">
<title>%3</title>
<polygon fill="white" stroke="none" points="-4,4 -4,-400 750.141,-400 750.141,4 -4,4"/>
<!-- AddConst1 -->
<g id="node1" class="node"><title>AddConst1</title>
<ellipse fill="none" stroke="black" cx="592.645" cy="-162" rx="50.8918" ry="18"/>
<text text-anchor="middle" x="592.645" y="-158.3" font-family="Times,serif" font-size="14.00">AddConst1</text>
</g>
<!-- NullExp1 -->
<g id="node2" class="node"><title>NullExp1</title>
<ellipse fill="none" stroke="black" cx="592.645" cy="-90" rx="44.6926" ry="18"/>
<text text-anchor="middle" x="592.645" y="-86.3" font-family="Times,serif" font-size="14.00">NullExp1</text>
</g>
<!-- AddConst1&#45;&gt;NullExp1 -->
<g id="edge1" class="edge"><title>AddConst1&#45;&gt;NullExp1</title>
<path fill="none" stroke="black" d="M592.645,-143.697C592.645,-135.983 592.645,-126.712 592.645,-118.112"/>
<polygon fill="black" stroke="black" points="596.145,-118.104 592.645,-108.104 589.145,-118.104 596.145,-118.104"/>
</g>
<!-- Value4: 4 -->
<g id="node3" class="node"><title>Value4: 4</title>
<ellipse fill="none" stroke="black" cx="700.645" cy="-90" rx="45.4919" ry="18"/>
<text text-anchor="middle" x="700.645" y="-86.3" font-family="Times,serif" font-size="14.00">Value4: 4</text>
</g>
<!-- AddConst1&#45;&gt;Value4: 4 -->
<g id="edge2" class="edge"><title>AddConst1&#45;&gt;Value4: 4</title>
<path fill="none" stroke="black" d="M615.814,-145.983C631.437,-135.857 652.238,-122.375 669.332,-111.296"/>
<polygon fill="black" stroke="black" points="671.398,-114.128 677.886,-105.752 667.59,-108.254 671.398,-114.128"/>
</g>
<!-- Add1 -->
<g id="node4" class="node"><title>Add1</title>
<ellipse fill="none" stroke="black" cx="480.645" cy="-234" rx="30.5947" ry="18"/>
<text text-anchor="middle" x="480.645" y="-230.3" font-family="Times,serif" font-size="14.00">Add1</text>
</g>
<!-- Add1&#45;&gt;AddConst1 -->
<g id="edge4" class="edge"><title>Add1&#45;&gt;AddConst1</title>
<path fill="none" stroke="black" d="M500.928,-220.324C517.362,-210.052 540.841,-195.378 559.929,-183.448"/>
<polygon fill="black" stroke="black" points="561.997,-186.283 568.622,-178.015 558.287,-180.347 561.997,-186.283"/>
</g>
<!-- Load2 -->
<g id="node5" class="node"><title>Load2</title>
<ellipse fill="none" stroke="black" cx="480.645" cy="-162" rx="33.2948" ry="18"/>
<text text-anchor="middle" x="480.645" y="-158.3" font-family="Times,serif" font-size="14.00">Load2</text>
</g>
<!-- Add1&#45;&gt;Load2 -->
<g id="edge3" class="edge"><title>Add1&#45;&gt;Load2</title>
<path fill="none" stroke="black" d="M480.645,-215.697C480.645,-207.983 480.645,-198.712 480.645,-190.112"/>
<polygon fill="black" stroke="black" points="484.145,-190.104 480.645,-180.104 477.145,-190.104 484.145,-190.104"/>
</g>
<!-- Temp2 -->
<g id="node6" class="node"><title>Temp2</title>
<ellipse fill="none" stroke="black" cx="384.645" cy="-90" rx="36.2938" ry="18"/>
<text text-anchor="middle" x="384.645" y="-86.3" font-family="Times,serif" font-size="14.00">Temp2</text>
</g>
<!-- Load2&#45;&gt;Temp2 -->
<g id="edge8" class="edge"><title>Load2&#45;&gt;Temp2</title>
<path fill="none" stroke="black" d="M461.679,-147.17C447.663,-136.95 428.357,-122.873 412.578,-111.368"/>
<polygon fill="black" stroke="black" points="414.374,-108.345 404.232,-105.282 410.25,-114.001 414.374,-108.345"/>
</g>
<!-- Value3: 0 -->
<g id="node10" class="node"><title>Value3: 0</title>
<ellipse fill="none" stroke="black" cx="484.645" cy="-90" rx="45.4919" ry="18"/>
<text text-anchor="middle" x="484.645" y="-86.3" font-family="Times,serif" font-size="14.00">Value3: 0</text>
</g>
<!-- Load2&#45;&gt;Value3: 0 -->
<g id="edge9" class="edge"><title>Load2&#45;&gt;Value3: 0</title>
<path fill="none" stroke="black" d="M481.634,-143.697C482.075,-135.983 482.605,-126.712 483.096,-118.112"/>
<polygon fill="black" stroke="black" points="486.592,-118.288 483.668,-108.104 479.603,-117.888 486.592,-118.288"/>
</g>
<!-- Temp3: $fp -->
<g id="node7" class="node"><title>Temp3: $fp</title>
<ellipse fill="none" stroke="black" cx="384.645" cy="-18" rx="52.7911" ry="18"/>
<text text-anchor="middle" x="384.645" y="-14.3" font-family="Times,serif" font-size="14.00">Temp3: $fp</text>
</g>
<!-- Temp2&#45;&gt;Temp3: $fp -->
<g id="edge5" class="edge"><title>Temp2&#45;&gt;Temp3: $fp</title>
<path fill="none" stroke="black" d="M384.645,-71.6966C384.645,-63.9827 384.645,-54.7125 384.645,-46.1124"/>
<polygon fill="black" stroke="black" points="388.145,-46.1043 384.645,-36.1043 381.145,-46.1044 388.145,-46.1043"/>
</g>
<!-- Load1 -->
<g id="node8" class="node"><title>Load1</title>
<ellipse fill="none" stroke="black" cx="480.645" cy="-306" rx="33.2948" ry="18"/>
<text text-anchor="middle" x="480.645" y="-302.3" font-family="Times,serif" font-size="14.00">Load1</text>
</g>
<!-- Load1&#45;&gt;Add1 -->
<g id="edge6" class="edge"><title>Load1&#45;&gt;Add1</title>
<path fill="none" stroke="black" d="M480.645,-287.697C480.645,-279.983 480.645,-270.712 480.645,-262.112"/>
<polygon fill="black" stroke="black" points="484.145,-262.104 480.645,-252.104 477.145,-262.104 484.145,-262.104"/>
</g>
<!-- Value5: 0 -->
<g id="node9" class="node"><title>Value5: 0</title>
<ellipse fill="none" stroke="black" cx="574.645" cy="-234" rx="45.4919" ry="18"/>
<text text-anchor="middle" x="574.645" y="-230.3" font-family="Times,serif" font-size="14.00">Value5: 0</text>
</g>
<!-- Load1&#45;&gt;Value5: 0 -->
<g id="edge7" class="edge"><title>Load1&#45;&gt;Value5: 0</title>
<path fill="none" stroke="black" d="M499.668,-290.834C513.066,-280.857 531.233,-267.328 546.329,-256.086"/>
<polygon fill="black" stroke="black" points="548.42,-258.893 554.35,-250.114 544.239,-253.279 548.42,-258.893"/>
</g>
<!-- Store0 -->
<g id="node11" class="node"><title>Store0</title>
<ellipse fill="none" stroke="black" cx="378.645" cy="-378" rx="33.5952" ry="18"/>
<text text-anchor="middle" x="378.645" y="-374.3" font-family="Times,serif" font-size="14.00">Store0</text>
</g>
<!-- Store0&#45;&gt;Load1 -->
<g id="edge12" class="edge"><title>Store0&#45;&gt;Load1</title>
<path fill="none" stroke="black" d="M398.797,-363.17C414.124,-352.652 435.404,-338.048 452.424,-326.367"/>
<polygon fill="black" stroke="black" points="454.618,-329.107 460.882,-320.563 450.657,-323.335 454.618,-329.107"/>
</g>
<!-- Load0 -->
<g id="node12" class="node"><title>Load0</title>
<ellipse fill="none" stroke="black" cx="275.645" cy="-306" rx="33.2948" ry="18"/>
<text text-anchor="middle" x="275.645" y="-302.3" font-family="Times,serif" font-size="14.00">Load0</text>
</g>
<!-- Store0&#45;&gt;Load0 -->
<g id="edge10" class="edge"><title>Store0&#45;&gt;Load0</title>
<path fill="none" stroke="black" d="M358.296,-363.17C342.819,-352.652 321.33,-338.048 304.143,-326.367"/>
<polygon fill="black" stroke="black" points="305.84,-323.289 295.602,-320.563 301.906,-329.079 305.84,-323.289"/>
</g>
<!-- Value2: 28 -->
<g id="node13" class="node"><title>Value2: 28</title>
<ellipse fill="none" stroke="black" cx="378.645" cy="-306" rx="50.0912" ry="18"/>
<text text-anchor="middle" x="378.645" y="-302.3" font-family="Times,serif" font-size="14.00">Value2: 28</text>
</g>
<!-- Store0&#45;&gt;Value2: 28 -->
<g id="edge11" class="edge"><title>Store0&#45;&gt;Value2: 28</title>
<path fill="none" stroke="black" d="M372.767,-360.055C371.949,-352.346 371.707,-343.027 372.04,-334.364"/>
<polygon fill="black" stroke="black" points="375.54,-334.491 372.733,-324.275 368.556,-334.012 375.54,-334.491"/>
</g>
<!-- Store0&#45;&gt;Value2: 28 -->
<g id="edge13" class="edge"><title>Store0&#45;&gt;Value2: 28</title>
<path fill="none" stroke="black" d="M384.524,-360.055C385.342,-352.346 385.584,-343.027 385.25,-334.364"/>
<polygon fill="black" stroke="black" points="388.735,-334.012 384.558,-324.275 381.751,-334.491 388.735,-334.012"/>
</g>
<!-- Add0 -->
<g id="node16" class="node"><title>Add0</title>
<ellipse fill="none" stroke="black" cx="173.645" cy="-234" rx="30.5947" ry="18"/>
<text text-anchor="middle" x="173.645" y="-230.3" font-family="Times,serif" font-size="14.00">Add0</text>
</g>
<!-- Load0&#45;&gt;Add0 -->
<g id="edge19" class="edge"><title>Load0&#45;&gt;Add0</title>
<path fill="none" stroke="black" d="M255.979,-291.503C240.499,-280.88 218.732,-265.942 201.467,-254.093"/>
<polygon fill="black" stroke="black" points="203.131,-250.991 192.906,-248.218 199.17,-256.762 203.131,-250.991"/>
</g>
<!-- Value1: 0 -->
<g id="node20" class="node"><title>Value1: 0</title>
<ellipse fill="none" stroke="black" cx="275.645" cy="-234" rx="45.4919" ry="18"/>
<text text-anchor="middle" x="275.645" y="-230.3" font-family="Times,serif" font-size="14.00">Value1: 0</text>
</g>
<!-- Load0&#45;&gt;Value1: 0 -->
<g id="edge20" class="edge"><title>Load0&#45;&gt;Value1: 0</title>
<path fill="none" stroke="black" d="M275.645,-287.697C275.645,-279.983 275.645,-270.712 275.645,-262.112"/>
<polygon fill="black" stroke="black" points="279.145,-262.104 275.645,-252.104 272.145,-262.104 279.145,-262.104"/>
</g>
<!-- Temp0 -->
<g id="node14" class="node"><title>Temp0</title>
<ellipse fill="none" stroke="black" cx="53.6453" cy="-162" rx="36.2938" ry="18"/>
<text text-anchor="middle" x="53.6453" y="-158.3" font-family="Times,serif" font-size="14.00">Temp0</text>
</g>
<!-- Temp1: $fp -->
<g id="node15" class="node"><title>Temp1: $fp</title>
<ellipse fill="none" stroke="black" cx="52.6453" cy="-90" rx="52.7911" ry="18"/>
<text text-anchor="middle" x="52.6453" y="-86.3" font-family="Times,serif" font-size="14.00">Temp1: $fp</text>
</g>
<!-- Temp0&#45;&gt;Temp1: $fp -->
<g id="edge14" class="edge"><title>Temp0&#45;&gt;Temp1: $fp</title>
<path fill="none" stroke="black" d="M53.3981,-143.697C53.2879,-135.983 53.1555,-126.712 53.0326,-118.112"/>
<polygon fill="black" stroke="black" points="56.5323,-118.053 52.8897,-108.104 49.533,-118.153 56.5323,-118.053"/>
</g>
<!-- Add0&#45;&gt;Temp0 -->
<g id="edge15" class="edge"><title>Add0&#45;&gt;Temp0</title>
<path fill="none" stroke="black" d="M152.743,-220.807C134.058,-209.908 106.414,-193.782 85.0674,-181.33"/>
<polygon fill="black" stroke="black" points="86.75,-178.259 76.3487,-176.244 83.2229,-184.306 86.75,-178.259"/>
</g>
<!-- AddConst0 -->
<g id="node17" class="node"><title>AddConst0</title>
<ellipse fill="none" stroke="black" cx="173.645" cy="-162" rx="50.8918" ry="18"/>
<text text-anchor="middle" x="173.645" y="-158.3" font-family="Times,serif" font-size="14.00">AddConst0</text>
</g>
<!-- Add0&#45;&gt;AddConst0 -->
<g id="edge16" class="edge"><title>Add0&#45;&gt;AddConst0</title>
<path fill="none" stroke="black" d="M173.645,-215.697C173.645,-207.983 173.645,-198.712 173.645,-190.112"/>
<polygon fill="black" stroke="black" points="177.145,-190.104 173.645,-180.104 170.145,-190.104 177.145,-190.104"/>
</g>
<!-- NullExp0 -->
<g id="node18" class="node"><title>NullExp0</title>
<ellipse fill="none" stroke="black" cx="167.645" cy="-90" rx="44.6926" ry="18"/>
<text text-anchor="middle" x="167.645" y="-86.3" font-family="Times,serif" font-size="14.00">NullExp0</text>
</g>
<!-- AddConst0&#45;&gt;NullExp0 -->
<g id="edge17" class="edge"><title>AddConst0&#45;&gt;NullExp0</title>
<path fill="none" stroke="black" d="M172.162,-143.697C171.501,-135.983 170.706,-126.712 169.969,-118.112"/>
<polygon fill="black" stroke="black" points="173.453,-117.769 169.111,-108.104 166.478,-118.367 173.453,-117.769"/>
</g>
<!-- Value0: 28 -->
<g id="node19" class="node"><title>Value0: 28</title>
<ellipse fill="none" stroke="black" cx="280.645" cy="-90" rx="50.0912" ry="18"/>
<text text-anchor="middle" x="280.645" y="-86.3" font-family="Times,serif" font-size="14.00">Value0: 28</text>
</g>
<!-- AddConst0&#45;&gt;Value0: 28 -->
<g id="edge18" class="edge"><title>AddConst0&#45;&gt;Value0: 28</title>
<path fill="none" stroke="black" d="M196.863,-145.811C212.146,-135.813 232.346,-122.598 249.082,-111.649"/>
<polygon fill="black" stroke="black" points="251.021,-114.563 257.473,-106.159 247.189,-108.705 251.021,-114.563"/>
</g>
</g>
</svg>
