<?xml version="1.0" encoding="UTF-8" standalone="no"?>
<!DOCTYPE svg PUBLIC "-//W3C//DTD SVG 1.1//EN"
 "http://www.w3.org/Graphics/SVG/1.1/DTD/svg11.dtd">
<!-- Generated by graphviz version 2.38.0 (20140413.2041)
 -->
<!-- Title: %3 Pages: 1 -->
<svg width="610pt" height="404pt"
 viewBox="0.00 0.00 610.48 404.00" xmlns="http://www.w3.org/2000/svg" xmlns:xlink="http://www.w3.org/1999/xlink">
<g id="graph0" class="graph" transform="scale(1 1) rotate(0) translate(4 400)">
<title>%3</title>
<polygon fill="white" stroke="none" points="-4,4 -4,-400 606.484,-400 606.484,4 -4,4"/>
<!-- ExpMem0 -->
<g id="node1" class="node"><title>ExpMem0</title>
<ellipse fill="none" stroke="black" cx="395.291" cy="-234" rx="48.9926" ry="18"/>
<text text-anchor="middle" x="395.291" y="-230.3" font-family="Times,serif" font-size="14.00">ExpMem0</text>
</g>
<!-- ExpMem1 -->
<g id="node2" class="node"><title>ExpMem1</title>
<ellipse fill="none" stroke="black" cx="396.291" cy="-162" rx="48.9926" ry="18"/>
<text text-anchor="middle" x="396.291" y="-158.3" font-family="Times,serif" font-size="14.00">ExpMem1</text>
</g>
<!-- ExpMem0&#45;&gt;ExpMem1 -->
<g id="edge1" class="edge"><title>ExpMem0&#45;&gt;ExpMem1</title>
<path fill="none" stroke="black" d="M395.538,-215.697C395.648,-207.983 395.78,-198.712 395.903,-190.112"/>
<polygon fill="black" stroke="black" points="399.403,-190.153 396.046,-180.104 392.404,-190.053 399.403,-190.153"/>
</g>
<!-- ExpTemp1 -->
<g id="node3" class="node"><title>ExpTemp1</title>
<ellipse fill="none" stroke="black" cx="396.291" cy="-90" rx="50.0912" ry="18"/>
<text text-anchor="middle" x="396.291" y="-86.3" font-family="Times,serif" font-size="14.00">ExpTemp1</text>
</g>
<!-- ExpMem1&#45;&gt;ExpTemp1 -->
<g id="edge2" class="edge"><title>ExpMem1&#45;&gt;ExpTemp1</title>
<path fill="none" stroke="black" d="M396.291,-143.697C396.291,-135.983 396.291,-126.712 396.291,-118.112"/>
<polygon fill="black" stroke="black" points="399.791,-118.104 396.291,-108.104 392.791,-118.104 399.791,-118.104"/>
</g>
<!-- Temp1: $fp -->
<g id="node4" class="node"><title>Temp1: $fp</title>
<ellipse fill="none" stroke="black" cx="396.291" cy="-18" rx="52.7911" ry="18"/>
<text text-anchor="middle" x="396.291" y="-14.3" font-family="Times,serif" font-size="14.00">Temp1: $fp</text>
</g>
<!-- ExpTemp1&#45;&gt;Temp1: $fp -->
<g id="edge3" class="edge"><title>ExpTemp1&#45;&gt;Temp1: $fp</title>
<path fill="none" stroke="black" d="M396.291,-71.6966C396.291,-63.9827 396.291,-54.7125 396.291,-46.1124"/>
<polygon fill="black" stroke="black" points="399.791,-46.1043 396.291,-36.1043 392.791,-46.1044 399.791,-46.1043"/>
</g>
<!-- StatJump0 -->
<g id="node5" class="node"><title>StatJump0</title>
<ellipse fill="none" stroke="black" cx="497.291" cy="-306" rx="48.1917" ry="18"/>
<text text-anchor="middle" x="497.291" y="-302.3" font-family="Times,serif" font-size="14.00">StatJump0</text>
</g>
<!-- Label1: epilogue -->
<g id="node6" class="node"><title>Label1: epilogue</title>
<ellipse fill="none" stroke="black" cx="532.291" cy="-234" rx="70.3881" ry="18"/>
<text text-anchor="middle" x="532.291" y="-230.3" font-family="Times,serif" font-size="14.00">Label1: epilogue</text>
</g>
<!-- StatJump0&#45;&gt;Label1: epilogue -->
<g id="edge4" class="edge"><title>StatJump0&#45;&gt;Label1: epilogue</title>
<path fill="none" stroke="black" d="M505.763,-288.055C509.787,-280.007 514.688,-270.205 519.178,-261.226"/>
<polygon fill="black" stroke="black" points="522.311,-262.785 523.653,-252.275 516.05,-259.654 522.311,-262.785"/>
</g>
<!-- StatLabel0 -->
<g id="node7" class="node"><title>StatLabel0</title>
<ellipse fill="none" stroke="black" cx="167.291" cy="-306" rx="48.9926" ry="18"/>
<text text-anchor="middle" x="167.291" y="-302.3" font-family="Times,serif" font-size="14.00">StatLabel0</text>
</g>
<!-- Label0: Element@GetAge -->
<g id="node8" class="node"><title>Label0: Element@GetAge</title>
<ellipse fill="none" stroke="black" cx="105.291" cy="-234" rx="105.082" ry="18"/>
<text text-anchor="middle" x="105.291" y="-230.3" font-family="Times,serif" font-size="14.00">Label0: Element@GetAge</text>
</g>
<!-- StatLabel0&#45;&gt;Label0: Element@GetAge -->
<g id="edge5" class="edge"><title>StatLabel0&#45;&gt;Label0: Element@GetAge</title>
<path fill="none" stroke="black" d="M152.911,-288.765C145.309,-280.182 135.815,-269.462 127.308,-259.858"/>
<polygon fill="black" stroke="black" points="129.708,-257.289 120.458,-252.124 124.468,-261.93 129.708,-257.289"/>
</g>
<!-- StatList0 -->
<g id="node9" class="node"><title>StatList0</title>
<ellipse fill="none" stroke="black" cx="312.291" cy="-378" rx="42.4939" ry="18"/>
<text text-anchor="middle" x="312.291" y="-374.3" font-family="Times,serif" font-size="14.00">StatList0</text>
</g>
<!-- StatList0&#45;&gt;StatJump0 -->
<g id="edge8" class="edge"><title>StatList0&#45;&gt;StatJump0</title>
<path fill="none" stroke="black" d="M342.84,-365.441C373.477,-353.848 420.896,-335.906 455.11,-322.96"/>
<polygon fill="black" stroke="black" points="456.714,-326.096 464.828,-319.283 454.236,-319.549 456.714,-326.096"/>
</g>
<!-- StatList0&#45;&gt;StatLabel0 -->
<g id="edge6" class="edge"><title>StatList0&#45;&gt;StatLabel0</title>
<path fill="none" stroke="black" d="M285.357,-363.998C262.772,-353.094 230.264,-337.401 205.075,-325.241"/>
<polygon fill="black" stroke="black" points="206.343,-321.966 195.816,-320.771 203.3,-328.27 206.343,-321.966"/>
</g>
<!-- StatMove0 -->
<g id="node10" class="node"><title>StatMove0</title>
<ellipse fill="none" stroke="black" cx="312.291" cy="-306" rx="50.0912" ry="18"/>
<text text-anchor="middle" x="312.291" y="-302.3" font-family="Times,serif" font-size="14.00">StatMove0</text>
</g>
<!-- StatList0&#45;&gt;StatMove0 -->
<g id="edge7" class="edge"><title>StatList0&#45;&gt;StatMove0</title>
<path fill="none" stroke="black" d="M312.291,-359.697C312.291,-351.983 312.291,-342.712 312.291,-334.112"/>
<polygon fill="black" stroke="black" points="315.791,-334.104 312.291,-324.104 308.791,-334.104 315.791,-334.104"/>
</g>
<!-- StatMove0&#45;&gt;ExpMem0 -->
<g id="edge11" class="edge"><title>StatMove0&#45;&gt;ExpMem0</title>
<path fill="none" stroke="black" d="M331.125,-289.116C342.267,-279.718 356.555,-267.669 368.818,-257.326"/>
<polygon fill="black" stroke="black" points="371.143,-259.944 376.531,-250.821 366.63,-254.593 371.143,-259.944"/>
</g>
<!-- ExpTemp0 -->
<g id="node11" class="node"><title>ExpTemp0</title>
<ellipse fill="none" stroke="black" cx="278.291" cy="-234" rx="50.0912" ry="18"/>
<text text-anchor="middle" x="278.291" y="-230.3" font-family="Times,serif" font-size="14.00">ExpTemp0</text>
</g>
<!-- StatMove0&#45;&gt;ExpTemp0 -->
<g id="edge10" class="edge"><title>StatMove0&#45;&gt;ExpTemp0</title>
<path fill="none" stroke="black" d="M304.06,-288.055C300.093,-279.887 295.248,-269.912 290.834,-260.824"/>
<polygon fill="black" stroke="black" points="293.963,-259.255 286.445,-251.789 287.666,-262.313 293.963,-259.255"/>
</g>
<!-- Temp0: $rv -->
<g id="node12" class="node"><title>Temp0: $rv</title>
<ellipse fill="none" stroke="black" cx="277.291" cy="-162" rx="52.7911" ry="18"/>
<text text-anchor="middle" x="277.291" y="-158.3" font-family="Times,serif" font-size="14.00">Temp0: $rv</text>
</g>
<!-- ExpTemp0&#45;&gt;Temp0: $rv -->
<g id="edge9" class="edge"><title>ExpTemp0&#45;&gt;Temp0: $rv</title>
<path fill="none" stroke="black" d="M278.043,-215.697C277.933,-207.983 277.801,-198.712 277.678,-190.112"/>
<polygon fill="black" stroke="black" points="281.178,-190.053 277.535,-180.104 274.178,-190.153 281.178,-190.053"/>
</g>
</g>
</svg>
