<?xml version="1.0" encoding="UTF-8" standalone="no"?>
<!DOCTYPE svg PUBLIC "-//W3C//DTD SVG 1.1//EN"
 "http://www.w3.org/Graphics/SVG/1.1/DTD/svg11.dtd">
<!-- Generated by graphviz version 2.38.0 (20140413.2041)
 -->
<!-- Title: %3 Pages: 1 -->
<svg width="1791pt" height="476pt"
 viewBox="0.00 0.00 1790.84 476.00" xmlns="http://www.w3.org/2000/svg" xmlns:xlink="http://www.w3.org/1999/xlink">
<g id="graph0" class="graph" transform="scale(1 1) rotate(0) translate(4 472)">
<title>%3</title>
<polygon fill="white" stroke="none" points="-4,4 -4,-472 1786.84,-472 1786.84,4 -4,4"/>
<!-- StatMove3 -->
<g id="node1" class="node"><title>StatMove3</title>
<ellipse fill="none" stroke="black" cx="1456.65" cy="-378" rx="50.0912" ry="18"/>
<text text-anchor="middle" x="1456.65" y="-374.3" font-family="Times,serif" font-size="14.00">StatMove3</text>
</g>
<!-- ExpTemp6 -->
<g id="node2" class="node"><title>ExpTemp6</title>
<ellipse fill="none" stroke="black" cx="1456.65" cy="-306" rx="50.0912" ry="18"/>
<text text-anchor="middle" x="1456.65" y="-302.3" font-family="Times,serif" font-size="14.00">ExpTemp6</text>
</g>
<!-- StatMove3&#45;&gt;ExpTemp6 -->
<g id="edge1" class="edge"><title>StatMove3&#45;&gt;ExpTemp6</title>
<path fill="none" stroke="black" d="M1456.65,-359.697C1456.65,-351.983 1456.65,-342.712 1456.65,-334.112"/>
<polygon fill="black" stroke="black" points="1460.15,-334.104 1456.65,-324.104 1453.15,-334.104 1460.15,-334.104"/>
</g>
<!-- ExpConst5 -->
<g id="node3" class="node"><title>ExpConst5</title>
<ellipse fill="none" stroke="black" cx="1574.65" cy="-306" rx="50.0912" ry="18"/>
<text text-anchor="middle" x="1574.65" y="-302.3" font-family="Times,serif" font-size="14.00">ExpConst5</text>
</g>
<!-- StatMove3&#45;&gt;ExpConst5 -->
<g id="edge2" class="edge"><title>StatMove3&#45;&gt;ExpConst5</title>
<path fill="none" stroke="black" d="M1481.38,-362.326C1498.77,-352.012 1522.23,-338.095 1541.27,-326.8"/>
<polygon fill="black" stroke="black" points="1543.13,-329.767 1549.94,-321.655 1539.55,-323.747 1543.13,-329.767"/>
</g>
<!-- Temp6: $rv -->
<g id="node4" class="node"><title>Temp6: $rv</title>
<ellipse fill="none" stroke="black" cx="1509.65" cy="-234" rx="52.7911" ry="18"/>
<text text-anchor="middle" x="1509.65" y="-230.3" font-family="Times,serif" font-size="14.00">Temp6: $rv</text>
</g>
<!-- ExpTemp6&#45;&gt;Temp6: $rv -->
<g id="edge3" class="edge"><title>ExpTemp6&#45;&gt;Temp6: $rv</title>
<path fill="none" stroke="black" d="M1469.21,-288.411C1475.58,-279.992 1483.46,-269.585 1490.56,-260.201"/>
<polygon fill="black" stroke="black" points="1493.56,-262.042 1496.81,-251.956 1487.98,-257.816 1493.56,-262.042"/>
</g>
<!-- Value5: 1 -->
<g id="node16" class="node"><title>Value5: 1</title>
<ellipse fill="none" stroke="black" cx="1625.65" cy="-234" rx="45.4919" ry="18"/>
<text text-anchor="middle" x="1625.65" y="-230.3" font-family="Times,serif" font-size="14.00">Value5: 1</text>
</g>
<!-- ExpConst5&#45;&gt;Value5: 1 -->
<g id="edge12" class="edge"><title>ExpConst5&#45;&gt;Value5: 1</title>
<path fill="none" stroke="black" d="M1586.73,-288.411C1592.96,-279.868 1600.67,-269.278 1607.59,-259.787"/>
<polygon fill="black" stroke="black" points="1610.59,-261.613 1613.65,-251.47 1604.93,-257.491 1610.59,-261.613"/>
</g>
<!-- ExpConst4 -->
<g id="node5" class="node"><title>ExpConst4</title>
<ellipse fill="none" stroke="black" cx="1629.65" cy="-162" rx="50.0912" ry="18"/>
<text text-anchor="middle" x="1629.65" y="-158.3" font-family="Times,serif" font-size="14.00">ExpConst4</text>
</g>
<!-- Value4: 12 -->
<g id="node6" class="node"><title>Value4: 12</title>
<ellipse fill="none" stroke="black" cx="1629.65" cy="-90" rx="50.0912" ry="18"/>
<text text-anchor="middle" x="1629.65" y="-86.3" font-family="Times,serif" font-size="14.00">Value4: 12</text>
</g>
<!-- ExpConst4&#45;&gt;Value4: 12 -->
<g id="edge4" class="edge"><title>ExpConst4&#45;&gt;Value4: 12</title>
<path fill="none" stroke="black" d="M1629.65,-143.697C1629.65,-135.983 1629.65,-126.712 1629.65,-118.112"/>
<polygon fill="black" stroke="black" points="1633.15,-118.104 1629.65,-108.104 1626.15,-118.104 1633.15,-118.104"/>
</g>
<!-- ExpBinary4 -->
<g id="node7" class="node"><title>ExpBinary4</title>
<ellipse fill="none" stroke="black" cx="1385.65" cy="-234" rx="53.0913" ry="18"/>
<text text-anchor="middle" x="1385.65" y="-230.3" font-family="Times,serif" font-size="14.00">ExpBinary4</text>
</g>
<!-- ExpBinary4&#45;&gt;ExpConst4 -->
<g id="edge7" class="edge"><title>ExpBinary4&#45;&gt;ExpConst4</title>
<path fill="none" stroke="black" d="M1424.99,-221.748C1462.44,-211.031 1520.39,-194.438 1570.65,-180 1574.4,-178.921 1578.29,-177.803 1582.19,-176.679"/>
<polygon fill="black" stroke="black" points="1583.24,-180.021 1591.88,-173.891 1581.3,-173.294 1583.24,-180.021"/>
</g>
<!-- ExpTemp5 -->
<g id="node8" class="node"><title>ExpTemp5</title>
<ellipse fill="none" stroke="black" cx="1431.65" cy="-162" rx="50.0912" ry="18"/>
<text text-anchor="middle" x="1431.65" y="-158.3" font-family="Times,serif" font-size="14.00">ExpTemp5</text>
</g>
<!-- ExpBinary4&#45;&gt;ExpTemp5 -->
<g id="edge5" class="edge"><title>ExpBinary4&#45;&gt;ExpTemp5</title>
<path fill="none" stroke="black" d="M1396.78,-216.055C1402.26,-207.715 1408.98,-197.491 1415.05,-188.252"/>
<polygon fill="black" stroke="black" points="1418.05,-190.068 1420.61,-179.789 1412.2,-186.224 1418.05,-190.068"/>
</g>
<!-- Plus4 -->
<g id="node9" class="node"><title>Plus4</title>
<ellipse fill="none" stroke="black" cx="1530.65" cy="-162" rx="30.5947" ry="18"/>
<text text-anchor="middle" x="1530.65" y="-158.3" font-family="Times,serif" font-size="14.00">Plus4</text>
</g>
<!-- ExpBinary4&#45;&gt;Plus4 -->
<g id="edge6" class="edge"><title>ExpBinary4&#45;&gt;Plus4</title>
<path fill="none" stroke="black" d="M1414.99,-218.834C1439.2,-207.145 1473.52,-190.579 1498.48,-178.53"/>
<polygon fill="black" stroke="black" points="1500.06,-181.652 1507.54,-174.152 1497.02,-175.348 1500.06,-181.652"/>
</g>
<!-- Temp5: $fp -->
<g id="node19" class="node"><title>Temp5: $fp</title>
<ellipse fill="none" stroke="black" cx="1431.65" cy="-90" rx="52.7911" ry="18"/>
<text text-anchor="middle" x="1431.65" y="-86.3" font-family="Times,serif" font-size="14.00">Temp5: $fp</text>
</g>
<!-- ExpTemp5&#45;&gt;Temp5: $fp -->
<g id="edge16" class="edge"><title>ExpTemp5&#45;&gt;Temp5: $fp</title>
<path fill="none" stroke="black" d="M1431.65,-143.697C1431.65,-135.983 1431.65,-126.712 1431.65,-118.112"/>
<polygon fill="black" stroke="black" points="1435.15,-118.104 1431.65,-108.104 1428.15,-118.104 1435.15,-118.104"/>
</g>
<!-- StatMove2 -->
<g id="node10" class="node"><title>StatMove2</title>
<ellipse fill="none" stroke="black" cx="1214.65" cy="-378" rx="50.0912" ry="18"/>
<text text-anchor="middle" x="1214.65" y="-374.3" font-family="Times,serif" font-size="14.00">StatMove2</text>
</g>
<!-- ExpMem6 -->
<g id="node11" class="node"><title>ExpMem6</title>
<ellipse fill="none" stroke="black" cx="1214.65" cy="-306" rx="48.9926" ry="18"/>
<text text-anchor="middle" x="1214.65" y="-302.3" font-family="Times,serif" font-size="14.00">ExpMem6</text>
</g>
<!-- StatMove2&#45;&gt;ExpMem6 -->
<g id="edge8" class="edge"><title>StatMove2&#45;&gt;ExpMem6</title>
<path fill="none" stroke="black" d="M1214.65,-359.697C1214.65,-351.983 1214.65,-342.712 1214.65,-334.112"/>
<polygon fill="black" stroke="black" points="1218.15,-334.104 1214.65,-324.104 1211.15,-334.104 1218.15,-334.104"/>
</g>
<!-- ExpMem8 -->
<g id="node12" class="node"><title>ExpMem8</title>
<ellipse fill="none" stroke="black" cx="1334.65" cy="-306" rx="48.9926" ry="18"/>
<text text-anchor="middle" x="1334.65" y="-302.3" font-family="Times,serif" font-size="14.00">ExpMem8</text>
</g>
<!-- StatMove2&#45;&gt;ExpMem8 -->
<g id="edge9" class="edge"><title>StatMove2&#45;&gt;ExpMem8</title>
<path fill="none" stroke="black" d="M1239.8,-362.326C1257.48,-352.012 1281.34,-338.095 1300.7,-326.8"/>
<polygon fill="black" stroke="black" points="1302.65,-329.717 1309.52,-321.655 1299.12,-323.671 1302.65,-329.717"/>
</g>
<!-- ExpBinary3 -->
<g id="node13" class="node"><title>ExpBinary3</title>
<ellipse fill="none" stroke="black" cx="1214.65" cy="-234" rx="53.0913" ry="18"/>
<text text-anchor="middle" x="1214.65" y="-230.3" font-family="Times,serif" font-size="14.00">ExpBinary3</text>
</g>
<!-- ExpMem6&#45;&gt;ExpBinary3 -->
<g id="edge10" class="edge"><title>ExpMem6&#45;&gt;ExpBinary3</title>
<path fill="none" stroke="black" d="M1214.65,-287.697C1214.65,-279.983 1214.65,-270.712 1214.65,-262.112"/>
<polygon fill="black" stroke="black" points="1218.15,-262.104 1214.65,-252.104 1211.15,-262.104 1218.15,-262.104"/>
</g>
<!-- ExpMem8&#45;&gt;ExpBinary4 -->
<g id="edge45" class="edge"><title>ExpMem8&#45;&gt;ExpBinary4</title>
<path fill="none" stroke="black" d="M1346.73,-288.411C1352.87,-279.992 1360.45,-269.585 1367.28,-260.201"/>
<polygon fill="black" stroke="black" points="1370.23,-262.1 1373.29,-251.956 1364.57,-257.978 1370.23,-262.1"/>
</g>
<!-- ExpConst3 -->
<g id="node14" class="node"><title>ExpConst3</title>
<ellipse fill="none" stroke="black" cx="1313.65" cy="-162" rx="50.0912" ry="18"/>
<text text-anchor="middle" x="1313.65" y="-158.3" font-family="Times,serif" font-size="14.00">ExpConst3</text>
</g>
<!-- ExpBinary3&#45;&gt;ExpConst3 -->
<g id="edge15" class="edge"><title>ExpBinary3&#45;&gt;ExpConst3</title>
<path fill="none" stroke="black" d="M1236.62,-217.465C1250.43,-207.7 1268.43,-194.972 1283.55,-184.276"/>
<polygon fill="black" stroke="black" points="1285.93,-186.882 1292.08,-178.251 1281.89,-181.167 1285.93,-186.882"/>
</g>
<!-- ExpMem7 -->
<g id="node17" class="node"><title>ExpMem7</title>
<ellipse fill="none" stroke="black" cx="1117.65" cy="-162" rx="48.9926" ry="18"/>
<text text-anchor="middle" x="1117.65" y="-158.3" font-family="Times,serif" font-size="14.00">ExpMem7</text>
</g>
<!-- ExpBinary3&#45;&gt;ExpMem7 -->
<g id="edge13" class="edge"><title>ExpBinary3&#45;&gt;ExpMem7</title>
<path fill="none" stroke="black" d="M1193.12,-217.465C1179.59,-207.7 1161.95,-194.972 1147.13,-184.276"/>
<polygon fill="black" stroke="black" points="1148.94,-181.265 1138.78,-178.251 1144.84,-186.941 1148.94,-181.265"/>
</g>
<!-- Plus3 -->
<g id="node18" class="node"><title>Plus3</title>
<ellipse fill="none" stroke="black" cx="1214.65" cy="-162" rx="30.5947" ry="18"/>
<text text-anchor="middle" x="1214.65" y="-158.3" font-family="Times,serif" font-size="14.00">Plus3</text>
</g>
<!-- ExpBinary3&#45;&gt;Plus3 -->
<g id="edge14" class="edge"><title>ExpBinary3&#45;&gt;Plus3</title>
<path fill="none" stroke="black" d="M1214.65,-215.697C1214.65,-207.983 1214.65,-198.712 1214.65,-190.112"/>
<polygon fill="black" stroke="black" points="1218.15,-190.104 1214.65,-180.104 1211.15,-190.104 1218.15,-190.104"/>
</g>
<!-- Value3: 4 -->
<g id="node15" class="node"><title>Value3: 4</title>
<ellipse fill="none" stroke="black" cx="1313.65" cy="-90" rx="45.4919" ry="18"/>
<text text-anchor="middle" x="1313.65" y="-86.3" font-family="Times,serif" font-size="14.00">Value3: 4</text>
</g>
<!-- ExpConst3&#45;&gt;Value3: 4 -->
<g id="edge11" class="edge"><title>ExpConst3&#45;&gt;Value3: 4</title>
<path fill="none" stroke="black" d="M1313.65,-143.697C1313.65,-135.983 1313.65,-126.712 1313.65,-118.112"/>
<polygon fill="black" stroke="black" points="1317.15,-118.104 1313.65,-108.104 1310.15,-118.104 1317.15,-118.104"/>
</g>
<!-- ExpTemp4 -->
<g id="node34" class="node"><title>ExpTemp4</title>
<ellipse fill="none" stroke="black" cx="1117.65" cy="-90" rx="50.0912" ry="18"/>
<text text-anchor="middle" x="1117.65" y="-86.3" font-family="Times,serif" font-size="14.00">ExpTemp4</text>
</g>
<!-- ExpMem7&#45;&gt;ExpTemp4 -->
<g id="edge29" class="edge"><title>ExpMem7&#45;&gt;ExpTemp4</title>
<path fill="none" stroke="black" d="M1117.65,-143.697C1117.65,-135.983 1117.65,-126.712 1117.65,-118.112"/>
<polygon fill="black" stroke="black" points="1121.15,-118.104 1117.65,-108.104 1114.15,-118.104 1121.15,-118.104"/>
</g>
<!-- ExpTemp1 -->
<g id="node20" class="node"><title>ExpTemp1</title>
<ellipse fill="none" stroke="black" cx="173.645" cy="-162" rx="50.0912" ry="18"/>
<text text-anchor="middle" x="173.645" y="-158.3" font-family="Times,serif" font-size="14.00">ExpTemp1</text>
</g>
<!-- Temp1: $fp -->
<g id="node21" class="node"><title>Temp1: $fp</title>
<ellipse fill="none" stroke="black" cx="175.645" cy="-90" rx="52.7911" ry="18"/>
<text text-anchor="middle" x="175.645" y="-86.3" font-family="Times,serif" font-size="14.00">Temp1: $fp</text>
</g>
<!-- ExpTemp1&#45;&gt;Temp1: $fp -->
<g id="edge17" class="edge"><title>ExpTemp1&#45;&gt;Temp1: $fp</title>
<path fill="none" stroke="black" d="M174.14,-143.697C174.36,-135.983 174.625,-126.712 174.871,-118.112"/>
<polygon fill="black" stroke="black" points="178.37,-118.2 175.157,-108.104 171.372,-118 178.37,-118.2"/>
</g>
<!-- StatMove0 -->
<g id="node22" class="node"><title>StatMove0</title>
<ellipse fill="none" stroke="black" cx="372.645" cy="-378" rx="50.0912" ry="18"/>
<text text-anchor="middle" x="372.645" y="-374.3" font-family="Times,serif" font-size="14.00">StatMove0</text>
</g>
<!-- ExpMem0 -->
<g id="node23" class="node"><title>ExpMem0</title>
<ellipse fill="none" stroke="black" cx="257.645" cy="-306" rx="48.9926" ry="18"/>
<text text-anchor="middle" x="257.645" y="-302.3" font-family="Times,serif" font-size="14.00">ExpMem0</text>
</g>
<!-- StatMove0&#45;&gt;ExpMem0 -->
<g id="edge18" class="edge"><title>StatMove0&#45;&gt;ExpMem0</title>
<path fill="none" stroke="black" d="M348.257,-362.155C331.485,-351.946 309.013,-338.267 290.644,-327.086"/>
<polygon fill="black" stroke="black" points="292.361,-324.034 281.999,-321.824 288.721,-330.013 292.361,-324.034"/>
</g>
<!-- ExpMem2 -->
<g id="node24" class="node"><title>ExpMem2</title>
<ellipse fill="none" stroke="black" cx="372.645" cy="-306" rx="48.9926" ry="18"/>
<text text-anchor="middle" x="372.645" y="-302.3" font-family="Times,serif" font-size="14.00">ExpMem2</text>
</g>
<!-- StatMove0&#45;&gt;ExpMem2 -->
<g id="edge19" class="edge"><title>StatMove0&#45;&gt;ExpMem2</title>
<path fill="none" stroke="black" d="M372.645,-359.697C372.645,-351.983 372.645,-342.712 372.645,-334.112"/>
<polygon fill="black" stroke="black" points="376.145,-334.104 372.645,-324.104 369.145,-334.104 376.145,-334.104"/>
</g>
<!-- ExpMem1 -->
<g id="node27" class="node"><title>ExpMem1</title>
<ellipse fill="none" stroke="black" cx="101.645" cy="-234" rx="48.9926" ry="18"/>
<text text-anchor="middle" x="101.645" y="-230.3" font-family="Times,serif" font-size="14.00">ExpMem1</text>
</g>
<!-- ExpMem0&#45;&gt;ExpMem1 -->
<g id="edge33" class="edge"><title>ExpMem0&#45;&gt;ExpMem1</title>
<path fill="none" stroke="black" d="M227.936,-291.669C203.184,-280.562 167.737,-264.656 140.693,-252.522"/>
<polygon fill="black" stroke="black" points="142.066,-249.301 131.51,-248.401 139.2,-255.688 142.066,-249.301"/>
</g>
<!-- ExpBinary0 -->
<g id="node37" class="node"><title>ExpBinary0</title>
<ellipse fill="none" stroke="black" cx="321.645" cy="-234" rx="53.0913" ry="18"/>
<text text-anchor="middle" x="321.645" y="-230.3" font-family="Times,serif" font-size="14.00">ExpBinary0</text>
</g>
<!-- ExpMem2&#45;&gt;ExpBinary0 -->
<g id="edge32" class="edge"><title>ExpMem2&#45;&gt;ExpBinary0</title>
<path fill="none" stroke="black" d="M360.559,-288.411C354.425,-279.992 346.843,-269.585 340.006,-260.201"/>
<polygon fill="black" stroke="black" points="342.717,-257.978 333.999,-251.956 337.059,-262.1 342.717,-257.978"/>
</g>
<!-- ExpConst0 -->
<g id="node25" class="node"><title>ExpConst0</title>
<ellipse fill="none" stroke="black" cx="371.645" cy="-162" rx="50.0912" ry="18"/>
<text text-anchor="middle" x="371.645" y="-158.3" font-family="Times,serif" font-size="14.00">ExpConst0</text>
</g>
<!-- Value0: 4 -->
<g id="node26" class="node"><title>Value0: 4</title>
<ellipse fill="none" stroke="black" cx="371.645" cy="-90" rx="45.4919" ry="18"/>
<text text-anchor="middle" x="371.645" y="-86.3" font-family="Times,serif" font-size="14.00">Value0: 4</text>
</g>
<!-- ExpConst0&#45;&gt;Value0: 4 -->
<g id="edge20" class="edge"><title>ExpConst0&#45;&gt;Value0: 4</title>
<path fill="none" stroke="black" d="M371.645,-143.697C371.645,-135.983 371.645,-126.712 371.645,-118.112"/>
<polygon fill="black" stroke="black" points="375.145,-118.104 371.645,-108.104 368.145,-118.104 375.145,-118.104"/>
</g>
<!-- ExpTemp0 -->
<g id="node28" class="node"><title>ExpTemp0</title>
<ellipse fill="none" stroke="black" cx="53.6453" cy="-162" rx="50.0912" ry="18"/>
<text text-anchor="middle" x="53.6453" y="-158.3" font-family="Times,serif" font-size="14.00">ExpTemp0</text>
</g>
<!-- ExpMem1&#45;&gt;ExpTemp0 -->
<g id="edge21" class="edge"><title>ExpMem1&#45;&gt;ExpTemp0</title>
<path fill="none" stroke="black" d="M90.27,-216.411C84.5556,-208.077 77.5062,-197.797 71.123,-188.488"/>
<polygon fill="black" stroke="black" points="73.8143,-186.224 65.2724,-179.956 68.0412,-190.183 73.8143,-186.224"/>
</g>
<!-- Temp0: $fp -->
<g id="node35" class="node"><title>Temp0: $fp</title>
<ellipse fill="none" stroke="black" cx="52.6453" cy="-90" rx="52.7911" ry="18"/>
<text text-anchor="middle" x="52.6453" y="-86.3" font-family="Times,serif" font-size="14.00">Temp0: $fp</text>
</g>
<!-- ExpTemp0&#45;&gt;Temp0: $fp -->
<g id="edge30" class="edge"><title>ExpTemp0&#45;&gt;Temp0: $fp</title>
<path fill="none" stroke="black" d="M53.3981,-143.697C53.2879,-135.983 53.1555,-126.712 53.0326,-118.112"/>
<polygon fill="black" stroke="black" points="56.5323,-118.053 52.8897,-108.104 49.533,-118.153 56.5323,-118.053"/>
</g>
<!-- StatLabel0 -->
<g id="node29" class="node"><title>StatLabel0</title>
<ellipse fill="none" stroke="black" cx="178.645" cy="-378" rx="48.9926" ry="18"/>
<text text-anchor="middle" x="178.645" y="-374.3" font-family="Times,serif" font-size="14.00">StatLabel0</text>
</g>
<!-- Label0: Element@Init -->
<g id="node30" class="node"><title>Label0: Element@Init</title>
<ellipse fill="none" stroke="black" cx="100.645" cy="-306" rx="90.1842" ry="18"/>
<text text-anchor="middle" x="100.645" y="-302.3" font-family="Times,serif" font-size="14.00">Label0: Element@Init</text>
</g>
<!-- StatLabel0&#45;&gt;Label0: Element@Init -->
<g id="edge22" class="edge"><title>StatLabel0&#45;&gt;Label0: Element@Init</title>
<path fill="none" stroke="black" d="M160.946,-361.116C150.866,-352.07 138.049,-340.567 126.825,-330.494"/>
<polygon fill="black" stroke="black" points="129.143,-327.872 119.362,-323.797 124.467,-333.081 129.143,-327.872"/>
</g>
<!-- StatList0 -->
<g id="node31" class="node"><title>StatList0</title>
<ellipse fill="none" stroke="black" cx="1057.65" cy="-450" rx="42.4939" ry="18"/>
<text text-anchor="middle" x="1057.65" y="-446.3" font-family="Times,serif" font-size="14.00">StatList0</text>
</g>
<!-- StatList0&#45;&gt;StatMove3 -->
<g id="edge27" class="edge"><title>StatList0&#45;&gt;StatMove3</title>
<path fill="none" stroke="black" d="M1095.9,-442.288C1167.26,-429.769 1320.83,-402.827 1402.69,-388.466"/>
<polygon fill="black" stroke="black" points="1403.54,-391.87 1412.79,-386.694 1402.33,-384.975 1403.54,-391.87"/>
</g>
<!-- StatList0&#45;&gt;StatMove2 -->
<g id="edge26" class="edge"><title>StatList0&#45;&gt;StatMove2</title>
<path fill="none" stroke="black" d="M1085.71,-436.485C1110.57,-425.404 1147.12,-409.109 1174.96,-396.695"/>
<polygon fill="black" stroke="black" points="1176.7,-399.749 1184.41,-392.481 1173.85,-393.356 1176.7,-399.749"/>
</g>
<!-- StatList0&#45;&gt;StatMove0 -->
<g id="edge24" class="edge"><title>StatList0&#45;&gt;StatMove0</title>
<path fill="none" stroke="black" d="M1017.1,-444.857C900.856,-432.978 566.099,-398.769 430.607,-384.923"/>
<polygon fill="black" stroke="black" points="430.735,-381.418 420.431,-383.883 430.023,-388.382 430.735,-381.418"/>
</g>
<!-- StatList0&#45;&gt;StatLabel0 -->
<g id="edge23" class="edge"><title>StatList0&#45;&gt;StatLabel0</title>
<path fill="none" stroke="black" d="M1016.04,-446.828C902.987,-440.757 580.729,-422.31 313.645,-396 287.315,-393.406 258.184,-389.828 233.743,-386.623"/>
<polygon fill="black" stroke="black" points="233.95,-383.12 223.577,-385.277 233.031,-390.06 233.95,-383.12"/>
</g>
<!-- StatMove1 -->
<g id="node32" class="node"><title>StatMove1</title>
<ellipse fill="none" stroke="black" cx="901.645" cy="-378" rx="50.0912" ry="18"/>
<text text-anchor="middle" x="901.645" y="-374.3" font-family="Times,serif" font-size="14.00">StatMove1</text>
</g>
<!-- StatList0&#45;&gt;StatMove1 -->
<g id="edge25" class="edge"><title>StatList0&#45;&gt;StatMove1</title>
<path fill="none" stroke="black" d="M1029.39,-436.324C1004.73,-425.257 968.682,-409.081 941.161,-396.731"/>
<polygon fill="black" stroke="black" points="942.371,-393.438 931.815,-392.538 939.505,-399.825 942.371,-393.438"/>
</g>
<!-- StatJump0 -->
<g id="node33" class="node"><title>StatJump0</title>
<ellipse fill="none" stroke="black" cx="1642.65" cy="-378" rx="48.1917" ry="18"/>
<text text-anchor="middle" x="1642.65" y="-374.3" font-family="Times,serif" font-size="14.00">StatJump0</text>
</g>
<!-- StatList0&#45;&gt;StatJump0 -->
<g id="edge28" class="edge"><title>StatList0&#45;&gt;StatJump0</title>
<path fill="none" stroke="black" d="M1098.11,-444.563C1177.99,-435.75 1361.55,-415.227 1515.65,-396 1539.48,-393.026 1565.8,-389.537 1588.27,-386.496"/>
<polygon fill="black" stroke="black" points="1588.86,-389.948 1598.3,-385.134 1587.92,-383.012 1588.86,-389.948"/>
</g>
<!-- ExpMem3 -->
<g id="node42" class="node"><title>ExpMem3</title>
<ellipse fill="none" stroke="black" cx="686.645" cy="-306" rx="48.9926" ry="18"/>
<text text-anchor="middle" x="686.645" y="-302.3" font-family="Times,serif" font-size="14.00">ExpMem3</text>
</g>
<!-- StatMove1&#45;&gt;ExpMem3 -->
<g id="edge51" class="edge"><title>StatMove1&#45;&gt;ExpMem3</title>
<path fill="none" stroke="black" d="M865.659,-365.284C828.852,-353.3 771.573,-334.651 731.757,-321.687"/>
<polygon fill="black" stroke="black" points="732.626,-318.29 722.033,-318.522 730.459,-324.946 732.626,-318.29"/>
</g>
<!-- ExpMem5 -->
<g id="node54" class="node"><title>ExpMem5</title>
<ellipse fill="none" stroke="black" cx="901.645" cy="-306" rx="48.9926" ry="18"/>
<text text-anchor="middle" x="901.645" y="-302.3" font-family="Times,serif" font-size="14.00">ExpMem5</text>
</g>
<!-- StatMove1&#45;&gt;ExpMem5 -->
<g id="edge52" class="edge"><title>StatMove1&#45;&gt;ExpMem5</title>
<path fill="none" stroke="black" d="M901.645,-359.697C901.645,-351.983 901.645,-342.712 901.645,-334.112"/>
<polygon fill="black" stroke="black" points="905.145,-334.104 901.645,-324.104 898.145,-334.104 905.145,-334.104"/>
</g>
<!-- Label1: epilogue -->
<g id="node36" class="node"><title>Label1: epilogue</title>
<ellipse fill="none" stroke="black" cx="1712.65" cy="-306" rx="70.3881" ry="18"/>
<text text-anchor="middle" x="1712.65" y="-302.3" font-family="Times,serif" font-size="14.00">Label1: epilogue</text>
</g>
<!-- StatJump0&#45;&gt;Label1: epilogue -->
<g id="edge31" class="edge"><title>StatJump0&#45;&gt;Label1: epilogue</title>
<path fill="none" stroke="black" d="M1658.88,-360.765C1667.76,-351.882 1678.94,-340.709 1688.79,-330.854"/>
<polygon fill="black" stroke="black" points="1691.42,-333.179 1696.01,-323.633 1686.47,-328.23 1691.42,-333.179"/>
</g>
<!-- Temp4: $fp -->
<g id="node52" class="node"><title>Temp4: $fp</title>
<ellipse fill="none" stroke="black" cx="1117.65" cy="-18" rx="52.7911" ry="18"/>
<text text-anchor="middle" x="1117.65" y="-14.3" font-family="Times,serif" font-size="14.00">Temp4: $fp</text>
</g>
<!-- ExpTemp4&#45;&gt;Temp4: $fp -->
<g id="edge49" class="edge"><title>ExpTemp4&#45;&gt;Temp4: $fp</title>
<path fill="none" stroke="black" d="M1117.65,-71.6966C1117.65,-63.9827 1117.65,-54.7125 1117.65,-46.1124"/>
<polygon fill="black" stroke="black" points="1121.15,-46.1043 1117.65,-36.1043 1114.15,-46.1044 1121.15,-46.1043"/>
</g>
<!-- ExpBinary0&#45;&gt;ExpTemp1 -->
<g id="edge39" class="edge"><title>ExpBinary0&#45;&gt;ExpTemp1</title>
<path fill="none" stroke="black" d="M292.051,-219.003C269.013,-208.106 236.862,-192.9 211.876,-181.082"/>
<polygon fill="black" stroke="black" points="213.22,-177.846 202.684,-176.734 210.227,-184.174 213.22,-177.846"/>
</g>
<!-- ExpBinary0&#45;&gt;ExpConst0 -->
<g id="edge41" class="edge"><title>ExpBinary0&#45;&gt;ExpConst0</title>
<path fill="none" stroke="black" d="M333.495,-216.411C339.509,-207.992 346.942,-197.585 353.645,-188.201"/>
<polygon fill="black" stroke="black" points="356.569,-190.128 359.534,-179.956 350.873,-186.059 356.569,-190.128"/>
</g>
<!-- Plus0 -->
<g id="node45" class="node"><title>Plus0</title>
<ellipse fill="none" stroke="black" cx="272.645" cy="-162" rx="30.5947" ry="18"/>
<text text-anchor="middle" x="272.645" y="-158.3" font-family="Times,serif" font-size="14.00">Plus0</text>
</g>
<!-- ExpBinary0&#45;&gt;Plus0 -->
<g id="edge40" class="edge"><title>ExpBinary0&#45;&gt;Plus0</title>
<path fill="none" stroke="black" d="M310.033,-216.411C303.966,-207.744 296.425,-196.971 289.708,-187.375"/>
<polygon fill="black" stroke="black" points="292.439,-185.173 283.837,-178.988 286.704,-189.188 292.439,-185.173"/>
</g>
<!-- ExpBinary1 -->
<g id="node38" class="node"><title>ExpBinary1</title>
<ellipse fill="none" stroke="black" cx="634.645" cy="-234" rx="53.0913" ry="18"/>
<text text-anchor="middle" x="634.645" y="-230.3" font-family="Times,serif" font-size="14.00">ExpBinary1</text>
</g>
<!-- ExpMem4 -->
<g id="node39" class="node"><title>ExpMem4</title>
<ellipse fill="none" stroke="black" cx="488.645" cy="-162" rx="48.9926" ry="18"/>
<text text-anchor="middle" x="488.645" y="-158.3" font-family="Times,serif" font-size="14.00">ExpMem4</text>
</g>
<!-- ExpBinary1&#45;&gt;ExpMem4 -->
<g id="edge34" class="edge"><title>ExpBinary1&#45;&gt;ExpMem4</title>
<path fill="none" stroke="black" d="M605.1,-218.834C582.344,-207.924 550.729,-192.766 526.182,-180.997"/>
<polygon fill="black" stroke="black" points="527.683,-177.835 517.153,-176.668 524.657,-184.147 527.683,-177.835"/>
</g>
<!-- Plus1 -->
<g id="node40" class="node"><title>Plus1</title>
<ellipse fill="none" stroke="black" cx="585.645" cy="-162" rx="30.5947" ry="18"/>
<text text-anchor="middle" x="585.645" y="-158.3" font-family="Times,serif" font-size="14.00">Plus1</text>
</g>
<!-- ExpBinary1&#45;&gt;Plus1 -->
<g id="edge35" class="edge"><title>ExpBinary1&#45;&gt;Plus1</title>
<path fill="none" stroke="black" d="M623.033,-216.411C616.966,-207.744 609.425,-196.971 602.708,-187.375"/>
<polygon fill="black" stroke="black" points="605.439,-185.173 596.837,-178.988 599.704,-189.188 605.439,-185.173"/>
</g>
<!-- ExpConst1 -->
<g id="node41" class="node"><title>ExpConst1</title>
<ellipse fill="none" stroke="black" cx="684.645" cy="-162" rx="50.0912" ry="18"/>
<text text-anchor="middle" x="684.645" y="-158.3" font-family="Times,serif" font-size="14.00">ExpConst1</text>
</g>
<!-- ExpBinary1&#45;&gt;ExpConst1 -->
<g id="edge36" class="edge"><title>ExpBinary1&#45;&gt;ExpConst1</title>
<path fill="none" stroke="black" d="M646.495,-216.411C652.509,-207.992 659.942,-197.585 666.645,-188.201"/>
<polygon fill="black" stroke="black" points="669.569,-190.128 672.534,-179.956 663.873,-186.059 669.569,-190.128"/>
</g>
<!-- ExpTemp2 -->
<g id="node43" class="node"><title>ExpTemp2</title>
<ellipse fill="none" stroke="black" cx="488.645" cy="-90" rx="50.0912" ry="18"/>
<text text-anchor="middle" x="488.645" y="-86.3" font-family="Times,serif" font-size="14.00">ExpTemp2</text>
</g>
<!-- ExpMem4&#45;&gt;ExpTemp2 -->
<g id="edge42" class="edge"><title>ExpMem4&#45;&gt;ExpTemp2</title>
<path fill="none" stroke="black" d="M488.645,-143.697C488.645,-135.983 488.645,-126.712 488.645,-118.112"/>
<polygon fill="black" stroke="black" points="492.145,-118.104 488.645,-108.104 485.145,-118.104 492.145,-118.104"/>
</g>
<!-- Value1: 8 -->
<g id="node46" class="node"><title>Value1: 8</title>
<ellipse fill="none" stroke="black" cx="684.645" cy="-90" rx="45.4919" ry="18"/>
<text text-anchor="middle" x="684.645" y="-86.3" font-family="Times,serif" font-size="14.00">Value1: 8</text>
</g>
<!-- ExpConst1&#45;&gt;Value1: 8 -->
<g id="edge43" class="edge"><title>ExpConst1&#45;&gt;Value1: 8</title>
<path fill="none" stroke="black" d="M684.645,-143.697C684.645,-135.983 684.645,-126.712 684.645,-118.112"/>
<polygon fill="black" stroke="black" points="688.145,-118.104 684.645,-108.104 681.145,-118.104 688.145,-118.104"/>
</g>
<!-- ExpMem3&#45;&gt;ExpBinary1 -->
<g id="edge37" class="edge"><title>ExpMem3&#45;&gt;ExpBinary1</title>
<path fill="none" stroke="black" d="M674.322,-288.411C668.068,-279.992 660.337,-269.585 653.366,-260.201"/>
<polygon fill="black" stroke="black" points="656.014,-257.897 647.241,-251.956 650.395,-262.071 656.014,-257.897"/>
</g>
<!-- Temp2: $fp -->
<g id="node44" class="node"><title>Temp2: $fp</title>
<ellipse fill="none" stroke="black" cx="488.645" cy="-18" rx="52.7911" ry="18"/>
<text text-anchor="middle" x="488.645" y="-14.3" font-family="Times,serif" font-size="14.00">Temp2: $fp</text>
</g>
<!-- ExpTemp2&#45;&gt;Temp2: $fp -->
<g id="edge38" class="edge"><title>ExpTemp2&#45;&gt;Temp2: $fp</title>
<path fill="none" stroke="black" d="M488.645,-71.6966C488.645,-63.9827 488.645,-54.7125 488.645,-46.1124"/>
<polygon fill="black" stroke="black" points="492.145,-46.1043 488.645,-36.1043 485.145,-46.1044 492.145,-46.1043"/>
</g>
<!-- ExpTemp3 -->
<g id="node47" class="node"><title>ExpTemp3</title>
<ellipse fill="none" stroke="black" cx="802.645" cy="-162" rx="50.0912" ry="18"/>
<text text-anchor="middle" x="802.645" y="-158.3" font-family="Times,serif" font-size="14.00">ExpTemp3</text>
</g>
<!-- Temp3: $fp -->
<g id="node48" class="node"><title>Temp3: $fp</title>
<ellipse fill="none" stroke="black" cx="802.645" cy="-90" rx="52.7911" ry="18"/>
<text text-anchor="middle" x="802.645" y="-86.3" font-family="Times,serif" font-size="14.00">Temp3: $fp</text>
</g>
<!-- ExpTemp3&#45;&gt;Temp3: $fp -->
<g id="edge44" class="edge"><title>ExpTemp3&#45;&gt;Temp3: $fp</title>
<path fill="none" stroke="black" d="M802.645,-143.697C802.645,-135.983 802.645,-126.712 802.645,-118.112"/>
<polygon fill="black" stroke="black" points="806.145,-118.104 802.645,-108.104 799.145,-118.104 806.145,-118.104"/>
</g>
<!-- ExpBinary2 -->
<g id="node49" class="node"><title>ExpBinary2</title>
<ellipse fill="none" stroke="black" cx="901.645" cy="-234" rx="53.0913" ry="18"/>
<text text-anchor="middle" x="901.645" y="-230.3" font-family="Times,serif" font-size="14.00">ExpBinary2</text>
</g>
<!-- ExpBinary2&#45;&gt;ExpTemp3 -->
<g id="edge46" class="edge"><title>ExpBinary2&#45;&gt;ExpTemp3</title>
<path fill="none" stroke="black" d="M879.674,-217.465C865.864,-207.7 847.863,-194.972 832.736,-184.276"/>
<polygon fill="black" stroke="black" points="834.4,-181.167 824.215,-178.251 830.359,-186.882 834.4,-181.167"/>
</g>
<!-- Plus2 -->
<g id="node50" class="node"><title>Plus2</title>
<ellipse fill="none" stroke="black" cx="901.645" cy="-162" rx="30.5947" ry="18"/>
<text text-anchor="middle" x="901.645" y="-158.3" font-family="Times,serif" font-size="14.00">Plus2</text>
</g>
<!-- ExpBinary2&#45;&gt;Plus2 -->
<g id="edge47" class="edge"><title>ExpBinary2&#45;&gt;Plus2</title>
<path fill="none" stroke="black" d="M901.645,-215.697C901.645,-207.983 901.645,-198.712 901.645,-190.112"/>
<polygon fill="black" stroke="black" points="905.145,-190.104 901.645,-180.104 898.145,-190.104 905.145,-190.104"/>
</g>
<!-- ExpConst2 -->
<g id="node51" class="node"><title>ExpConst2</title>
<ellipse fill="none" stroke="black" cx="1000.65" cy="-162" rx="50.0912" ry="18"/>
<text text-anchor="middle" x="1000.65" y="-158.3" font-family="Times,serif" font-size="14.00">ExpConst2</text>
</g>
<!-- ExpBinary2&#45;&gt;ExpConst2 -->
<g id="edge48" class="edge"><title>ExpBinary2&#45;&gt;ExpConst2</title>
<path fill="none" stroke="black" d="M923.617,-217.465C937.426,-207.7 955.427,-194.972 970.555,-184.276"/>
<polygon fill="black" stroke="black" points="972.932,-186.882 979.076,-178.251 968.89,-181.167 972.932,-186.882"/>
</g>
<!-- Value2: 8 -->
<g id="node53" class="node"><title>Value2: 8</title>
<ellipse fill="none" stroke="black" cx="1000.65" cy="-90" rx="45.4919" ry="18"/>
<text text-anchor="middle" x="1000.65" y="-86.3" font-family="Times,serif" font-size="14.00">Value2: 8</text>
</g>
<!-- ExpConst2&#45;&gt;Value2: 8 -->
<g id="edge50" class="edge"><title>ExpConst2&#45;&gt;Value2: 8</title>
<path fill="none" stroke="black" d="M1000.65,-143.697C1000.65,-135.983 1000.65,-126.712 1000.65,-118.112"/>
<polygon fill="black" stroke="black" points="1004.15,-118.104 1000.65,-108.104 997.145,-118.104 1004.15,-118.104"/>
</g>
<!-- ExpMem5&#45;&gt;ExpBinary2 -->
<g id="edge53" class="edge"><title>ExpMem5&#45;&gt;ExpBinary2</title>
<path fill="none" stroke="black" d="M901.645,-287.697C901.645,-279.983 901.645,-270.712 901.645,-262.112"/>
<polygon fill="black" stroke="black" points="905.145,-262.104 901.645,-252.104 898.145,-262.104 905.145,-262.104"/>
</g>
</g>
</svg>
