<?xml version="1.0" encoding="UTF-8" standalone="no"?>
<!DOCTYPE svg PUBLIC "-//W3C//DTD SVG 1.1//EN"
 "http://www.w3.org/Graphics/SVG/1.1/DTD/svg11.dtd">
<!-- Generated by graphviz version 2.38.0 (20140413.2041)
 -->
<!-- Title: %3 Pages: 1 -->
<svg width="629pt" height="620pt"
 viewBox="0.00 0.00 629.14 620.00" xmlns="http://www.w3.org/2000/svg" xmlns:xlink="http://www.w3.org/1999/xlink">
<g id="graph0" class="graph" transform="scale(1 1) rotate(0) translate(4 616)">
<title>%3</title>
<polygon fill="white" stroke="none" points="-4,4 -4,-616 625.141,-616 625.141,4 -4,4"/>
<!-- Load0 -->
<g id="node1" class="node"><title>Load0</title>
<ellipse fill="none" stroke="black" cx="300.645" cy="-522" rx="33.2948" ry="18"/>
<text text-anchor="middle" x="300.645" y="-518.3" font-family="Times,serif" font-size="14.00">Load0</text>
</g>
<!-- Add0 -->
<g id="node2" class="node"><title>Add0</title>
<ellipse fill="none" stroke="black" cx="300.645" cy="-450" rx="30.5947" ry="18"/>
<text text-anchor="middle" x="300.645" y="-446.3" font-family="Times,serif" font-size="14.00">Add0</text>
</g>
<!-- Load0&#45;&gt;Add0 -->
<g id="edge1" class="edge"><title>Load0&#45;&gt;Add0</title>
<path fill="none" stroke="black" d="M300.645,-503.697C300.645,-495.983 300.645,-486.712 300.645,-478.112"/>
<polygon fill="black" stroke="black" points="304.145,-478.104 300.645,-468.104 297.145,-478.104 304.145,-478.104"/>
</g>
<!-- Value6: 0 -->
<g id="node3" class="node"><title>Value6: 0</title>
<ellipse fill="none" stroke="black" cx="394.645" cy="-450" rx="45.4919" ry="18"/>
<text text-anchor="middle" x="394.645" y="-446.3" font-family="Times,serif" font-size="14.00">Value6: 0</text>
</g>
<!-- Load0&#45;&gt;Value6: 0 -->
<g id="edge2" class="edge"><title>Load0&#45;&gt;Value6: 0</title>
<path fill="none" stroke="black" d="M319.668,-506.834C333.066,-496.857 351.233,-483.328 366.329,-472.086"/>
<polygon fill="black" stroke="black" points="368.42,-474.893 374.35,-466.114 364.239,-469.279 368.42,-474.893"/>
</g>
<!-- Mult0 -->
<g id="node7" class="node"><title>Mult0</title>
<ellipse fill="none" stroke="black" cx="349.645" cy="-378" rx="32.4942" ry="18"/>
<text text-anchor="middle" x="349.645" y="-374.3" font-family="Times,serif" font-size="14.00">Mult0</text>
</g>
<!-- Add0&#45;&gt;Mult0 -->
<g id="edge21" class="edge"><title>Add0&#45;&gt;Mult0</title>
<path fill="none" stroke="black" d="M311.764,-433.116C317.879,-424.38 325.598,-413.353 332.471,-403.535"/>
<polygon fill="black" stroke="black" points="335.363,-405.506 338.23,-395.307 329.628,-401.492 335.363,-405.506"/>
</g>
<!-- Load1 -->
<g id="node13" class="node"><title>Load1</title>
<ellipse fill="none" stroke="black" cx="253.645" cy="-378" rx="33.2948" ry="18"/>
<text text-anchor="middle" x="253.645" y="-374.3" font-family="Times,serif" font-size="14.00">Load1</text>
</g>
<!-- Add0&#45;&gt;Load1 -->
<g id="edge20" class="edge"><title>Add0&#45;&gt;Load1</title>
<path fill="none" stroke="black" d="M289.98,-433.116C284.174,-424.469 276.86,-413.575 270.319,-403.833"/>
<polygon fill="black" stroke="black" points="273.074,-401.658 264.594,-395.307 267.263,-405.56 273.074,-401.658"/>
</g>
<!-- AddConst2 -->
<g id="node4" class="node"><title>AddConst2</title>
<ellipse fill="none" stroke="black" cx="467.645" cy="-306" rx="50.8918" ry="18"/>
<text text-anchor="middle" x="467.645" y="-302.3" font-family="Times,serif" font-size="14.00">AddConst2</text>
</g>
<!-- NullExp2 -->
<g id="node5" class="node"><title>NullExp2</title>
<ellipse fill="none" stroke="black" cx="467.645" cy="-234" rx="44.6926" ry="18"/>
<text text-anchor="middle" x="467.645" y="-230.3" font-family="Times,serif" font-size="14.00">NullExp2</text>
</g>
<!-- AddConst2&#45;&gt;NullExp2 -->
<g id="edge3" class="edge"><title>AddConst2&#45;&gt;NullExp2</title>
<path fill="none" stroke="black" d="M467.645,-287.697C467.645,-279.983 467.645,-270.712 467.645,-262.112"/>
<polygon fill="black" stroke="black" points="471.145,-262.104 467.645,-252.104 464.145,-262.104 471.145,-262.104"/>
</g>
<!-- Value5: 4 -->
<g id="node6" class="node"><title>Value5: 4</title>
<ellipse fill="none" stroke="black" cx="575.645" cy="-234" rx="45.4919" ry="18"/>
<text text-anchor="middle" x="575.645" y="-230.3" font-family="Times,serif" font-size="14.00">Value5: 4</text>
</g>
<!-- AddConst2&#45;&gt;Value5: 4 -->
<g id="edge4" class="edge"><title>AddConst2&#45;&gt;Value5: 4</title>
<path fill="none" stroke="black" d="M490.814,-289.983C506.437,-279.857 527.238,-266.375 544.332,-255.296"/>
<polygon fill="black" stroke="black" points="546.398,-258.128 552.886,-249.752 542.59,-252.254 546.398,-258.128"/>
</g>
<!-- Mult0&#45;&gt;AddConst2 -->
<g id="edge6" class="edge"><title>Mult0&#45;&gt;AddConst2</title>
<path fill="none" stroke="black" d="M371.014,-364.324C388.602,-353.89 413.846,-338.915 434.122,-326.887"/>
<polygon fill="black" stroke="black" points="435.941,-329.877 442.756,-321.765 432.369,-323.857 435.941,-329.877"/>
</g>
<!-- Add1 -->
<g id="node8" class="node"><title>Add1</title>
<ellipse fill="none" stroke="black" cx="349.645" cy="-306" rx="30.5947" ry="18"/>
<text text-anchor="middle" x="349.645" y="-302.3" font-family="Times,serif" font-size="14.00">Add1</text>
</g>
<!-- Mult0&#45;&gt;Add1 -->
<g id="edge5" class="edge"><title>Mult0&#45;&gt;Add1</title>
<path fill="none" stroke="black" d="M349.645,-359.697C349.645,-351.983 349.645,-342.712 349.645,-334.112"/>
<polygon fill="black" stroke="black" points="353.145,-334.104 349.645,-324.104 346.145,-334.104 353.145,-334.104"/>
</g>
<!-- Load3 -->
<g id="node9" class="node"><title>Load3</title>
<ellipse fill="none" stroke="black" cx="249.645" cy="-234" rx="33.2948" ry="18"/>
<text text-anchor="middle" x="249.645" y="-230.3" font-family="Times,serif" font-size="14.00">Load3</text>
</g>
<!-- Add1&#45;&gt;Load3 -->
<g id="edge7" class="edge"><title>Add1&#45;&gt;Load3</title>
<path fill="none" stroke="black" d="M330.364,-291.503C315.382,-281.015 294.391,-266.322 277.57,-254.548"/>
<polygon fill="black" stroke="black" points="279.408,-251.561 269.208,-248.694 275.394,-257.296 279.408,-251.561"/>
</g>
<!-- AddConst1 -->
<g id="node10" class="node"><title>AddConst1</title>
<ellipse fill="none" stroke="black" cx="353.645" cy="-234" rx="50.8918" ry="18"/>
<text text-anchor="middle" x="353.645" y="-230.3" font-family="Times,serif" font-size="14.00">AddConst1</text>
</g>
<!-- Add1&#45;&gt;AddConst1 -->
<g id="edge8" class="edge"><title>Add1&#45;&gt;AddConst1</title>
<path fill="none" stroke="black" d="M350.634,-287.697C351.075,-279.983 351.605,-270.712 352.096,-262.112"/>
<polygon fill="black" stroke="black" points="355.592,-262.288 352.668,-252.104 348.603,-261.888 355.592,-262.288"/>
</g>
<!-- Add2 -->
<g id="node21" class="node"><title>Add2</title>
<ellipse fill="none" stroke="black" cx="154.645" cy="-162" rx="30.5947" ry="18"/>
<text text-anchor="middle" x="154.645" y="-158.3" font-family="Times,serif" font-size="14.00">Add2</text>
</g>
<!-- Load3&#45;&gt;Add2 -->
<g id="edge26" class="edge"><title>Load3&#45;&gt;Add2</title>
<path fill="none" stroke="black" d="M230.421,-218.834C216.331,-208.453 197.023,-194.225 181.423,-182.731"/>
<polygon fill="black" stroke="black" points="183.322,-179.782 173.195,-176.668 179.169,-185.418 183.322,-179.782"/>
</g>
<!-- Value3: 0 -->
<g id="node28" class="node"><title>Value3: 0</title>
<ellipse fill="none" stroke="black" cx="248.645" cy="-162" rx="45.4919" ry="18"/>
<text text-anchor="middle" x="248.645" y="-158.3" font-family="Times,serif" font-size="14.00">Value3: 0</text>
</g>
<!-- Load3&#45;&gt;Value3: 0 -->
<g id="edge27" class="edge"><title>Load3&#45;&gt;Value3: 0</title>
<path fill="none" stroke="black" d="M249.398,-215.697C249.288,-207.983 249.156,-198.712 249.033,-190.112"/>
<polygon fill="black" stroke="black" points="252.532,-190.053 248.89,-180.104 245.533,-190.153 252.532,-190.053"/>
</g>
<!-- NullExp1 -->
<g id="node26" class="node"><title>NullExp1</title>
<ellipse fill="none" stroke="black" cx="356.645" cy="-162" rx="44.6926" ry="18"/>
<text text-anchor="middle" x="356.645" y="-158.3" font-family="Times,serif" font-size="14.00">NullExp1</text>
</g>
<!-- AddConst1&#45;&gt;NullExp1 -->
<g id="edge24" class="edge"><title>AddConst1&#45;&gt;NullExp1</title>
<path fill="none" stroke="black" d="M354.387,-215.697C354.717,-207.983 355.115,-198.712 355.483,-190.112"/>
<polygon fill="black" stroke="black" points="358.981,-190.245 355.912,-180.104 351.987,-189.945 358.981,-190.245"/>
</g>
<!-- Value4: 1 -->
<g id="node27" class="node"><title>Value4: 1</title>
<ellipse fill="none" stroke="black" cx="464.645" cy="-162" rx="45.4919" ry="18"/>
<text text-anchor="middle" x="464.645" y="-158.3" font-family="Times,serif" font-size="14.00">Value4: 1</text>
</g>
<!-- AddConst1&#45;&gt;Value4: 1 -->
<g id="edge25" class="edge"><title>AddConst1&#45;&gt;Value4: 1</title>
<path fill="none" stroke="black" d="M377.458,-217.983C393.515,-207.857 414.893,-194.375 432.462,-183.296"/>
<polygon fill="black" stroke="black" points="434.662,-186.046 441.253,-177.752 430.928,-180.125 434.662,-186.046"/>
</g>
<!-- MoveRegister0 -->
<g id="node11" class="node"><title>MoveRegister0</title>
<ellipse fill="none" stroke="black" cx="252.645" cy="-594" rx="65.7887" ry="18"/>
<text text-anchor="middle" x="252.645" y="-590.3" font-family="Times,serif" font-size="14.00">MoveRegister0</text>
</g>
<!-- MoveRegister0&#45;&gt;Load0 -->
<g id="edge10" class="edge"><title>MoveRegister0&#45;&gt;Load0</title>
<path fill="none" stroke="black" d="M264.265,-576.055C270.128,-567.505 277.348,-556.975 283.807,-547.556"/>
<polygon fill="black" stroke="black" points="286.695,-549.534 289.463,-539.307 280.922,-545.575 286.695,-549.534"/>
</g>
<!-- Temp0 -->
<g id="node12" class="node"><title>Temp0</title>
<ellipse fill="none" stroke="black" cx="204.645" cy="-522" rx="36.2938" ry="18"/>
<text text-anchor="middle" x="204.645" y="-518.3" font-family="Times,serif" font-size="14.00">Temp0</text>
</g>
<!-- MoveRegister0&#45;&gt;Temp0 -->
<g id="edge9" class="edge"><title>MoveRegister0&#45;&gt;Temp0</title>
<path fill="none" stroke="black" d="M241.026,-576.055C235.163,-567.505 227.942,-556.975 221.484,-547.556"/>
<polygon fill="black" stroke="black" points="224.369,-545.575 215.827,-539.307 218.596,-549.534 224.369,-545.575"/>
</g>
<!-- Temp1: T55 -->
<g id="node18" class="node"><title>Temp1: T55</title>
<ellipse fill="none" stroke="black" cx="196.645" cy="-450" rx="55.4913" ry="18"/>
<text text-anchor="middle" x="196.645" y="-446.3" font-family="Times,serif" font-size="14.00">Temp1: T55</text>
</g>
<!-- Temp0&#45;&gt;Temp1: T55 -->
<g id="edge14" class="edge"><title>Temp0&#45;&gt;Temp1: T55</title>
<path fill="none" stroke="black" d="M202.668,-503.697C201.786,-495.983 200.727,-486.712 199.744,-478.112"/>
<polygon fill="black" stroke="black" points="203.213,-477.642 198.6,-468.104 196.258,-478.437 203.213,-477.642"/>
</g>
<!-- Load2 -->
<g id="node14" class="node"><title>Load2</title>
<ellipse fill="none" stroke="black" cx="152.645" cy="-306" rx="33.2948" ry="18"/>
<text text-anchor="middle" x="152.645" y="-302.3" font-family="Times,serif" font-size="14.00">Load2</text>
</g>
<!-- Load1&#45;&gt;Load2 -->
<g id="edge11" class="edge"><title>Load1&#45;&gt;Load2</title>
<path fill="none" stroke="black" d="M233.691,-363.17C218.515,-352.652 197.443,-338.048 180.59,-326.367"/>
<polygon fill="black" stroke="black" points="182.427,-323.383 172.215,-320.563 178.44,-329.136 182.427,-323.383"/>
</g>
<!-- Value1: 0 -->
<g id="node15" class="node"><title>Value1: 0</title>
<ellipse fill="none" stroke="black" cx="253.645" cy="-306" rx="45.4919" ry="18"/>
<text text-anchor="middle" x="253.645" y="-302.3" font-family="Times,serif" font-size="14.00">Value1: 0</text>
</g>
<!-- Load1&#45;&gt;Value1: 0 -->
<g id="edge12" class="edge"><title>Load1&#45;&gt;Value1: 0</title>
<path fill="none" stroke="black" d="M253.645,-359.697C253.645,-351.983 253.645,-342.712 253.645,-334.112"/>
<polygon fill="black" stroke="black" points="257.145,-334.104 253.645,-324.104 250.145,-334.104 257.145,-334.104"/>
</g>
<!-- Temp2 -->
<g id="node16" class="node"><title>Temp2</title>
<ellipse fill="none" stroke="black" cx="52.6453" cy="-234" rx="36.2938" ry="18"/>
<text text-anchor="middle" x="52.6453" y="-230.3" font-family="Times,serif" font-size="14.00">Temp2</text>
</g>
<!-- Load2&#45;&gt;Temp2 -->
<g id="edge18" class="edge"><title>Load2&#45;&gt;Temp2</title>
<path fill="none" stroke="black" d="M132.889,-291.17C118.056,-280.788 97.537,-266.424 80.961,-254.821"/>
<polygon fill="black" stroke="black" points="82.9028,-251.908 72.7033,-249.041 78.8886,-257.643 82.9028,-251.908"/>
</g>
<!-- Value0: 0 -->
<g id="node23" class="node"><title>Value0: 0</title>
<ellipse fill="none" stroke="black" cx="152.645" cy="-234" rx="45.4919" ry="18"/>
<text text-anchor="middle" x="152.645" y="-230.3" font-family="Times,serif" font-size="14.00">Value0: 0</text>
</g>
<!-- Load2&#45;&gt;Value0: 0 -->
<g id="edge19" class="edge"><title>Load2&#45;&gt;Value0: 0</title>
<path fill="none" stroke="black" d="M152.645,-287.697C152.645,-279.983 152.645,-270.712 152.645,-262.112"/>
<polygon fill="black" stroke="black" points="156.145,-262.104 152.645,-252.104 149.145,-262.104 156.145,-262.104"/>
</g>
<!-- Temp3: $fp -->
<g id="node17" class="node"><title>Temp3: $fp</title>
<ellipse fill="none" stroke="black" cx="52.6453" cy="-162" rx="52.7911" ry="18"/>
<text text-anchor="middle" x="52.6453" y="-158.3" font-family="Times,serif" font-size="14.00">Temp3: $fp</text>
</g>
<!-- Temp2&#45;&gt;Temp3: $fp -->
<g id="edge13" class="edge"><title>Temp2&#45;&gt;Temp3: $fp</title>
<path fill="none" stroke="black" d="M52.6453,-215.697C52.6453,-207.983 52.6453,-198.712 52.6453,-190.112"/>
<polygon fill="black" stroke="black" points="56.1454,-190.104 52.6453,-180.104 49.1454,-190.104 56.1454,-190.104"/>
</g>
<!-- Temp4 -->
<g id="node19" class="node"><title>Temp4</title>
<ellipse fill="none" stroke="black" cx="97.6453" cy="-90" rx="36.2938" ry="18"/>
<text text-anchor="middle" x="97.6453" y="-86.3" font-family="Times,serif" font-size="14.00">Temp4</text>
</g>
<!-- Temp5: $fp -->
<g id="node20" class="node"><title>Temp5: $fp</title>
<ellipse fill="none" stroke="black" cx="92.6453" cy="-18" rx="52.7911" ry="18"/>
<text text-anchor="middle" x="92.6453" y="-14.3" font-family="Times,serif" font-size="14.00">Temp5: $fp</text>
</g>
<!-- Temp4&#45;&gt;Temp5: $fp -->
<g id="edge15" class="edge"><title>Temp4&#45;&gt;Temp5: $fp</title>
<path fill="none" stroke="black" d="M96.4094,-71.6966C95.8584,-63.9827 95.1962,-54.7125 94.5819,-46.1124"/>
<polygon fill="black" stroke="black" points="98.0707,-45.8295 93.8671,-36.1043 91.0885,-46.3283 98.0707,-45.8295"/>
</g>
<!-- Add2&#45;&gt;Temp4 -->
<g id="edge16" class="edge"><title>Add2&#45;&gt;Temp4</title>
<path fill="none" stroke="black" d="M141.995,-145.465C134.645,-136.439 125.233,-124.88 116.972,-114.735"/>
<polygon fill="black" stroke="black" points="119.684,-112.522 110.655,-106.977 114.256,-116.942 119.684,-112.522"/>
</g>
<!-- AddConst0 -->
<g id="node22" class="node"><title>AddConst0</title>
<ellipse fill="none" stroke="black" cx="207.645" cy="-90" rx="50.8918" ry="18"/>
<text text-anchor="middle" x="207.645" y="-86.3" font-family="Times,serif" font-size="14.00">AddConst0</text>
</g>
<!-- Add2&#45;&gt;AddConst0 -->
<g id="edge17" class="edge"><title>Add2&#45;&gt;AddConst0</title>
<path fill="none" stroke="black" d="M166.672,-145.116C173.191,-136.505 181.397,-125.667 188.75,-115.957"/>
<polygon fill="black" stroke="black" points="191.681,-117.883 194.927,-107.797 186.101,-113.657 191.681,-117.883"/>
</g>
<!-- NullExp0 -->
<g id="node24" class="node"><title>NullExp0</title>
<ellipse fill="none" stroke="black" cx="207.645" cy="-18" rx="44.6926" ry="18"/>
<text text-anchor="middle" x="207.645" y="-14.3" font-family="Times,serif" font-size="14.00">NullExp0</text>
</g>
<!-- AddConst0&#45;&gt;NullExp0 -->
<g id="edge22" class="edge"><title>AddConst0&#45;&gt;NullExp0</title>
<path fill="none" stroke="black" d="M207.645,-71.6966C207.645,-63.9827 207.645,-54.7125 207.645,-46.1124"/>
<polygon fill="black" stroke="black" points="211.145,-46.1043 207.645,-36.1043 204.145,-46.1044 211.145,-46.1043"/>
</g>
<!-- Value2: 8 -->
<g id="node25" class="node"><title>Value2: 8</title>
<ellipse fill="none" stroke="black" cx="315.645" cy="-18" rx="45.4919" ry="18"/>
<text text-anchor="middle" x="315.645" y="-14.3" font-family="Times,serif" font-size="14.00">Value2: 8</text>
</g>
<!-- AddConst0&#45;&gt;Value2: 8 -->
<g id="edge23" class="edge"><title>AddConst0&#45;&gt;Value2: 8</title>
<path fill="none" stroke="black" d="M230.814,-73.9832C246.437,-63.8573 267.238,-50.3753 284.332,-39.2959"/>
<polygon fill="black" stroke="black" points="286.398,-42.1277 292.886,-33.7517 282.59,-36.2536 286.398,-42.1277"/>
</g>
</g>
</svg>
