<?xml version="1.0" encoding="UTF-8" standalone="no"?>
<!DOCTYPE svg PUBLIC "-//W3C//DTD SVG 1.1//EN"
 "http://www.w3.org/Graphics/SVG/1.1/DTD/svg11.dtd">
<!-- Generated by graphviz version 2.38.0 (20140413.2041)
 -->
<!-- Title: %3 Pages: 1 -->
<svg width="818pt" height="260pt"
 viewBox="0.00 0.00 817.59 260.00" xmlns="http://www.w3.org/2000/svg" xmlns:xlink="http://www.w3.org/1999/xlink">
<g id="graph0" class="graph" transform="scale(1 1) rotate(0) translate(4 256)">
<title>%3</title>
<polygon fill="white" stroke="none" points="-4,4 -4,-256 813.589,-256 813.589,4 -4,4"/>
<!-- Temp8 -->
<g id="node1" class="node"><title>Temp8</title>
<ellipse fill="none" stroke="black" cx="725.795" cy="-90" rx="36.2938" ry="18"/>
<text text-anchor="middle" x="725.795" y="-86.3" font-family="Times,serif" font-size="14.00">Temp8</text>
</g>
<!-- Temp9: T127 -->
<g id="node2" class="node"><title>Temp9: T127</title>
<ellipse fill="none" stroke="black" cx="749.795" cy="-18" rx="59.5901" ry="18"/>
<text text-anchor="middle" x="749.795" y="-14.3" font-family="Times,serif" font-size="14.00">Temp9: T127</text>
</g>
<!-- Temp8&#45;&gt;Temp9: T127 -->
<g id="edge1" class="edge"><title>Temp8&#45;&gt;Temp9: T127</title>
<path fill="none" stroke="black" d="M731.604,-72.055C734.306,-64.1762 737.583,-54.6165 740.608,-45.794"/>
<polygon fill="black" stroke="black" points="743.939,-46.8699 743.872,-36.2753 737.318,-44.5996 743.939,-46.8699"/>
</g>
<!-- Temp6 -->
<g id="node3" class="node"><title>Temp6</title>
<ellipse fill="none" stroke="black" cx="599.795" cy="-90" rx="36.2938" ry="18"/>
<text text-anchor="middle" x="599.795" y="-86.3" font-family="Times,serif" font-size="14.00">Temp6</text>
</g>
<!-- Temp7: T126 -->
<g id="node4" class="node"><title>Temp7: T126</title>
<ellipse fill="none" stroke="black" cx="611.795" cy="-18" rx="59.5901" ry="18"/>
<text text-anchor="middle" x="611.795" y="-14.3" font-family="Times,serif" font-size="14.00">Temp7: T126</text>
</g>
<!-- Temp6&#45;&gt;Temp7: T126 -->
<g id="edge2" class="edge"><title>Temp6&#45;&gt;Temp7: T126</title>
<path fill="none" stroke="black" d="M602.7,-72.055C604.021,-64.3456 605.619,-55.0269 607.104,-46.3642"/>
<polygon fill="black" stroke="black" points="610.593,-46.7229 608.833,-36.2753 603.694,-45.5401 610.593,-46.7229"/>
</g>
<!-- Temp0 -->
<g id="node5" class="node"><title>Temp0</title>
<ellipse fill="none" stroke="black" cx="230.795" cy="-162" rx="36.2938" ry="18"/>
<text text-anchor="middle" x="230.795" y="-158.3" font-family="Times,serif" font-size="14.00">Temp0</text>
</g>
<!-- Temp1: T128 -->
<g id="node6" class="node"><title>Temp1: T128</title>
<ellipse fill="none" stroke="black" cx="59.7947" cy="-90" rx="59.5901" ry="18"/>
<text text-anchor="middle" x="59.7947" y="-86.3" font-family="Times,serif" font-size="14.00">Temp1: T128</text>
</g>
<!-- Temp0&#45;&gt;Temp1: T128 -->
<g id="edge3" class="edge"><title>Temp0&#45;&gt;Temp1: T128</title>
<path fill="none" stroke="black" d="M203.699,-149.908C176.73,-138.868 134.91,-121.749 103.289,-108.805"/>
<polygon fill="black" stroke="black" points="104.412,-105.482 93.8312,-104.933 101.76,-111.961 104.412,-105.482"/>
</g>
<!-- Temp2 -->
<g id="node7" class="node"><title>Temp2</title>
<ellipse fill="none" stroke="black" cx="394.795" cy="-90" rx="36.2938" ry="18"/>
<text text-anchor="middle" x="394.795" y="-86.3" font-family="Times,serif" font-size="14.00">Temp2</text>
</g>
<!-- Temp3: T124 -->
<g id="node8" class="node"><title>Temp3: T124</title>
<ellipse fill="none" stroke="black" cx="335.795" cy="-18" rx="59.5901" ry="18"/>
<text text-anchor="middle" x="335.795" y="-14.3" font-family="Times,serif" font-size="14.00">Temp3: T124</text>
</g>
<!-- Temp2&#45;&gt;Temp3: T124 -->
<g id="edge4" class="edge"><title>Temp2&#45;&gt;Temp3: T124</title>
<path fill="none" stroke="black" d="M381.407,-73.1159C374.076,-64.4181 364.83,-53.4483 356.582,-43.6627"/>
<polygon fill="black" stroke="black" points="359.073,-41.188 349.952,-35.7973 353.721,-45.6993 359.073,-41.188"/>
</g>
<!-- MoveRegister0 -->
<g id="node9" class="node"><title>MoveRegister0</title>
<ellipse fill="none" stroke="black" cx="334.795" cy="-234" rx="65.7887" ry="18"/>
<text text-anchor="middle" x="334.795" y="-230.3" font-family="Times,serif" font-size="14.00">MoveRegister0</text>
</g>
<!-- MoveRegister0&#45;&gt;Temp0 -->
<g id="edge5" class="edge"><title>MoveRegister0&#45;&gt;Temp0</title>
<path fill="none" stroke="black" d="M311.195,-217.116C296.026,-206.905 276.204,-193.564 260.038,-182.683"/>
<polygon fill="black" stroke="black" points="261.736,-179.607 251.486,-176.927 257.827,-185.414 261.736,-179.607"/>
</g>
<!-- Call0 -->
<g id="node10" class="node"><title>Call0</title>
<ellipse fill="none" stroke="black" cx="439.795" cy="-162" rx="29.795" ry="18"/>
<text text-anchor="middle" x="439.795" y="-158.3" font-family="Times,serif" font-size="14.00">Call0</text>
</g>
<!-- MoveRegister0&#45;&gt;Call0 -->
<g id="edge6" class="edge"><title>MoveRegister0&#45;&gt;Call0</title>
<path fill="none" stroke="black" d="M358.621,-217.116C374.345,-206.633 395.019,-192.85 411.568,-181.818"/>
<polygon fill="black" stroke="black" points="413.901,-184.469 420.28,-176.01 410.018,-178.645 413.901,-184.469"/>
</g>
<!-- Call0&#45;&gt;Temp8 -->
<g id="edge12" class="edge"><title>Call0&#45;&gt;Temp8</title>
<path fill="none" stroke="black" d="M466.959,-154.351C517.046,-142.092 624.261,-115.851 683.787,-101.282"/>
<polygon fill="black" stroke="black" points="684.737,-104.652 693.619,-98.8753 683.073,-97.8531 684.737,-104.652"/>
</g>
<!-- Call0&#45;&gt;Temp6 -->
<g id="edge11" class="edge"><title>Call0&#45;&gt;Temp6</title>
<path fill="none" stroke="black" d="M463.403,-150.671C489.915,-139.072 533.239,-120.118 563.938,-106.687"/>
<polygon fill="black" stroke="black" points="565.666,-109.752 573.424,-102.537 562.86,-103.339 565.666,-109.752"/>
</g>
<!-- Call0&#45;&gt;Temp2 -->
<g id="edge9" class="edge"><title>Call0&#45;&gt;Temp2</title>
<path fill="none" stroke="black" d="M429.358,-144.765C423.927,-136.317 417.166,-125.799 411.067,-116.312"/>
<polygon fill="black" stroke="black" points="413.839,-114.153 405.488,-107.633 407.951,-117.938 413.839,-114.153"/>
</g>
<!-- Temp4 -->
<g id="node11" class="node"><title>Temp4</title>
<ellipse fill="none" stroke="black" cx="485.795" cy="-90" rx="36.2938" ry="18"/>
<text text-anchor="middle" x="485.795" y="-86.3" font-family="Times,serif" font-size="14.00">Temp4</text>
</g>
<!-- Call0&#45;&gt;Temp4 -->
<g id="edge10" class="edge"><title>Call0&#45;&gt;Temp4</title>
<path fill="none" stroke="black" d="M450.233,-145.116C455.915,-136.469 463.074,-125.575 469.476,-115.833"/>
<polygon fill="black" stroke="black" points="472.512,-117.586 475.079,-107.307 466.662,-113.742 472.512,-117.586"/>
</g>
<!-- Function0: Element@Init -->
<g id="node13" class="node"><title>Function0: Element@Init</title>
<ellipse fill="none" stroke="black" cx="238.795" cy="-90" rx="101.282" ry="18"/>
<text text-anchor="middle" x="238.795" y="-86.3" font-family="Times,serif" font-size="14.00">Function0: Element@Init</text>
</g>
<!-- Call0&#45;&gt;Function0: Element@Init -->
<g id="edge8" class="edge"><title>Call0&#45;&gt;Function0: Element@Init</title>
<path fill="none" stroke="black" d="M414.338,-152.134C383.857,-141.519 331.978,-123.452 292.5,-109.704"/>
<polygon fill="black" stroke="black" points="293.346,-106.292 282.752,-106.308 291.044,-112.903 293.346,-106.292"/>
</g>
<!-- Temp5: T125 -->
<g id="node12" class="node"><title>Temp5: T125</title>
<ellipse fill="none" stroke="black" cx="473.795" cy="-18" rx="59.5901" ry="18"/>
<text text-anchor="middle" x="473.795" y="-14.3" font-family="Times,serif" font-size="14.00">Temp5: T125</text>
</g>
<!-- Temp4&#45;&gt;Temp5: T125 -->
<g id="edge7" class="edge"><title>Temp4&#45;&gt;Temp5: T125</title>
<path fill="none" stroke="black" d="M482.89,-72.055C481.568,-64.3456 479.971,-55.0269 478.486,-46.3642"/>
<polygon fill="black" stroke="black" points="481.896,-45.5401 476.756,-36.2753 474.996,-46.7229 481.896,-45.5401"/>
</g>
</g>
</svg>
