<?xml version="1.0" encoding="UTF-8" standalone="no"?>
<!DOCTYPE svg PUBLIC "-//W3C//DTD SVG 1.1//EN"
 "http://www.w3.org/Graphics/SVG/1.1/DTD/svg11.dtd">
<!-- Generated by graphviz version 2.38.0 (20140413.2041)
 -->
<!-- Title: %3 Pages: 1 -->
<svg width="572pt" height="260pt"
 viewBox="0.00 0.00 571.59 260.00" xmlns="http://www.w3.org/2000/svg" xmlns:xlink="http://www.w3.org/1999/xlink">
<g id="graph0" class="graph" transform="scale(1 1) rotate(0) translate(4 256)">
<title>%3</title>
<polygon fill="white" stroke="none" points="-4,4 -4,-256 567.589,-256 567.589,4 -4,4"/>
<!-- Temp0 -->
<g id="node1" class="node"><title>Temp0</title>
<ellipse fill="none" stroke="black" cx="176.795" cy="-162" rx="36.2938" ry="18"/>
<text text-anchor="middle" x="176.795" y="-158.3" font-family="Times,serif" font-size="14.00">Temp0</text>
</g>
<!-- Temp1: T132 -->
<g id="node2" class="node"><title>Temp1: T132</title>
<ellipse fill="none" stroke="black" cx="59.7947" cy="-90" rx="59.5901" ry="18"/>
<text text-anchor="middle" x="59.7947" y="-86.3" font-family="Times,serif" font-size="14.00">Temp1: T132</text>
</g>
<!-- Temp0&#45;&gt;Temp1: T132 -->
<g id="edge1" class="edge"><title>Temp0&#45;&gt;Temp1: T132</title>
<path fill="none" stroke="black" d="M154.512,-147.669C137.494,-137.487 113.733,-123.271 94.2672,-111.625"/>
<polygon fill="black" stroke="black" points="96.0439,-108.609 85.6655,-106.478 92.45,-114.616 96.0439,-108.609"/>
</g>
<!-- Temp2 -->
<g id="node3" class="node"><title>Temp2</title>
<ellipse fill="none" stroke="black" cx="377.795" cy="-90" rx="36.2938" ry="18"/>
<text text-anchor="middle" x="377.795" y="-86.3" font-family="Times,serif" font-size="14.00">Temp2</text>
</g>
<!-- Temp3: T130 -->
<g id="node4" class="node"><title>Temp3: T130</title>
<ellipse fill="none" stroke="black" cx="365.795" cy="-18" rx="59.5901" ry="18"/>
<text text-anchor="middle" x="365.795" y="-14.3" font-family="Times,serif" font-size="14.00">Temp3: T130</text>
</g>
<!-- Temp2&#45;&gt;Temp3: T130 -->
<g id="edge2" class="edge"><title>Temp2&#45;&gt;Temp3: T130</title>
<path fill="none" stroke="black" d="M374.89,-72.055C373.568,-64.3456 371.971,-55.0269 370.486,-46.3642"/>
<polygon fill="black" stroke="black" points="373.896,-45.5401 368.756,-36.2753 366.996,-46.7229 373.896,-45.5401"/>
</g>
<!-- MoveRegister0 -->
<g id="node5" class="node"><title>MoveRegister0</title>
<ellipse fill="none" stroke="black" cx="239.795" cy="-234" rx="65.7887" ry="18"/>
<text text-anchor="middle" x="239.795" y="-230.3" font-family="Times,serif" font-size="14.00">MoveRegister0</text>
</g>
<!-- MoveRegister0&#45;&gt;Temp0 -->
<g id="edge3" class="edge"><title>MoveRegister0&#45;&gt;Temp0</title>
<path fill="none" stroke="black" d="M224.865,-216.411C216.825,-207.479 206.773,-196.31 197.943,-186.498"/>
<polygon fill="black" stroke="black" points="200.475,-184.08 191.184,-178.988 195.272,-188.762 200.475,-184.08"/>
</g>
<!-- Call0 -->
<g id="node6" class="node"><title>Call0</title>
<ellipse fill="none" stroke="black" cx="303.795" cy="-162" rx="29.795" ry="18"/>
<text text-anchor="middle" x="303.795" y="-158.3" font-family="Times,serif" font-size="14.00">Call0</text>
</g>
<!-- MoveRegister0&#45;&gt;Call0 -->
<g id="edge4" class="edge"><title>MoveRegister0&#45;&gt;Call0</title>
<path fill="none" stroke="black" d="M254.962,-216.411C263.362,-207.223 273.925,-195.67 283.077,-185.66"/>
<polygon fill="black" stroke="black" points="285.881,-187.78 290.045,-178.038 280.715,-183.057 285.881,-187.78"/>
</g>
<!-- Call0&#45;&gt;Temp2 -->
<g id="edge7" class="edge"><title>Call0&#45;&gt;Temp2</title>
<path fill="none" stroke="black" d="M319.128,-146.496C329.24,-136.93 342.687,-124.21 354.155,-113.362"/>
<polygon fill="black" stroke="black" points="356.854,-115.627 361.714,-106.212 352.044,-110.541 356.854,-115.627"/>
</g>
<!-- Temp4 -->
<g id="node7" class="node"><title>Temp4</title>
<ellipse fill="none" stroke="black" cx="491.795" cy="-90" rx="36.2938" ry="18"/>
<text text-anchor="middle" x="491.795" y="-86.3" font-family="Times,serif" font-size="14.00">Temp4</text>
</g>
<!-- Call0&#45;&gt;Temp4 -->
<g id="edge8" class="edge"><title>Call0&#45;&gt;Temp4</title>
<path fill="none" stroke="black" d="M328.76,-151.705C360.851,-139.756 416.866,-118.899 454.143,-105.019"/>
<polygon fill="black" stroke="black" points="455.507,-108.246 463.657,-101.477 453.064,-101.686 455.507,-108.246"/>
</g>
<!-- Function0: List@Insert -->
<g id="node9" class="node"><title>Function0: List@Insert</title>
<ellipse fill="none" stroke="black" cx="230.795" cy="-90" rx="92.8835" ry="18"/>
<text text-anchor="middle" x="230.795" y="-86.3" font-family="Times,serif" font-size="14.00">Function0: List@Insert</text>
</g>
<!-- Call0&#45;&gt;Function0: List@Insert -->
<g id="edge6" class="edge"><title>Call0&#45;&gt;Function0: List@Insert</title>
<path fill="none" stroke="black" d="M288.313,-146.155C278.883,-137.112 266.614,-125.347 255.831,-115.007"/>
<polygon fill="black" stroke="black" points="257.944,-112.184 248.303,-107.789 253.099,-117.236 257.944,-112.184"/>
</g>
<!-- Temp5: T131 -->
<g id="node8" class="node"><title>Temp5: T131</title>
<ellipse fill="none" stroke="black" cx="503.795" cy="-18" rx="59.5901" ry="18"/>
<text text-anchor="middle" x="503.795" y="-14.3" font-family="Times,serif" font-size="14.00">Temp5: T131</text>
</g>
<!-- Temp4&#45;&gt;Temp5: T131 -->
<g id="edge5" class="edge"><title>Temp4&#45;&gt;Temp5: T131</title>
<path fill="none" stroke="black" d="M494.7,-72.055C496.021,-64.3456 497.619,-55.0269 499.104,-46.3642"/>
<polygon fill="black" stroke="black" points="502.593,-46.7229 500.833,-36.2753 495.694,-45.5401 502.593,-46.7229"/>
</g>
</g>
</svg>
