<?xml version="1.0" encoding="UTF-8" standalone="no"?>
<!DOCTYPE svg PUBLIC "-//W3C//DTD SVG 1.1//EN"
 "http://www.w3.org/Graphics/SVG/1.1/DTD/svg11.dtd">
<!-- Generated by graphviz version 2.38.0 (20140413.2041)
 -->
<!-- Title: %3 Pages: 1 -->
<svg width="441pt" height="260pt"
 viewBox="0.00 0.00 440.59 260.00" xmlns="http://www.w3.org/2000/svg" xmlns:xlink="http://www.w3.org/1999/xlink">
<g id="graph0" class="graph" transform="scale(1 1) rotate(0) translate(4 256)">
<title>%3</title>
<polygon fill="white" stroke="none" points="-4,4 -4,-256 436.589,-256 436.589,4 -4,4"/>
<!-- Call0 -->
<g id="node1" class="node"><title>Call0</title>
<ellipse fill="none" stroke="black" cx="227.795" cy="-162" rx="29.795" ry="18"/>
<text text-anchor="middle" x="227.795" y="-158.3" font-family="Times,serif" font-size="14.00">Call0</text>
</g>
<!-- Function0: List@Print -->
<g id="node2" class="node"><title>Function0: List@Print</title>
<ellipse fill="none" stroke="black" cx="227.795" cy="-90" rx="90.1842" ry="18"/>
<text text-anchor="middle" x="227.795" y="-86.3" font-family="Times,serif" font-size="14.00">Function0: List@Print</text>
</g>
<!-- Call0&#45;&gt;Function0: List@Print -->
<g id="edge1" class="edge"><title>Call0&#45;&gt;Function0: List@Print</title>
<path fill="none" stroke="black" d="M227.795,-143.697C227.795,-135.983 227.795,-126.712 227.795,-118.112"/>
<polygon fill="black" stroke="black" points="231.295,-118.104 227.795,-108.104 224.295,-118.104 231.295,-118.104"/>
</g>
<!-- Temp2 -->
<g id="node3" class="node"><title>Temp2</title>
<ellipse fill="none" stroke="black" cx="372.795" cy="-90" rx="36.2938" ry="18"/>
<text text-anchor="middle" x="372.795" y="-86.3" font-family="Times,serif" font-size="14.00">Temp2</text>
</g>
<!-- Call0&#45;&gt;Temp2 -->
<g id="edge2" class="edge"><title>Call0&#45;&gt;Temp2</title>
<path fill="none" stroke="black" d="M250.451,-150.062C273.964,-138.712 311.032,-120.816 338.21,-107.696"/>
<polygon fill="black" stroke="black" points="339.888,-110.773 347.372,-103.273 336.845,-104.469 339.888,-110.773"/>
</g>
<!-- Temp3: T134 -->
<g id="node6" class="node"><title>Temp3: T134</title>
<ellipse fill="none" stroke="black" cx="372.795" cy="-18" rx="59.5901" ry="18"/>
<text text-anchor="middle" x="372.795" y="-14.3" font-family="Times,serif" font-size="14.00">Temp3: T134</text>
</g>
<!-- Temp2&#45;&gt;Temp3: T134 -->
<g id="edge5" class="edge"><title>Temp2&#45;&gt;Temp3: T134</title>
<path fill="none" stroke="black" d="M372.795,-71.6966C372.795,-63.9827 372.795,-54.7125 372.795,-46.1124"/>
<polygon fill="black" stroke="black" points="376.295,-46.1043 372.795,-36.1043 369.295,-46.1044 376.295,-46.1043"/>
</g>
<!-- MoveRegister0 -->
<g id="node4" class="node"><title>MoveRegister0</title>
<ellipse fill="none" stroke="black" cx="164.795" cy="-234" rx="65.7887" ry="18"/>
<text text-anchor="middle" x="164.795" y="-230.3" font-family="Times,serif" font-size="14.00">MoveRegister0</text>
</g>
<!-- MoveRegister0&#45;&gt;Call0 -->
<g id="edge4" class="edge"><title>MoveRegister0&#45;&gt;Call0</title>
<path fill="none" stroke="black" d="M179.725,-216.411C187.879,-207.351 198.104,-195.99 207.025,-186.078"/>
<polygon fill="black" stroke="black" points="209.747,-188.285 213.835,-178.511 204.544,-183.602 209.747,-188.285"/>
</g>
<!-- Temp0 -->
<g id="node5" class="node"><title>Temp0</title>
<ellipse fill="none" stroke="black" cx="101.795" cy="-162" rx="36.2938" ry="18"/>
<text text-anchor="middle" x="101.795" y="-158.3" font-family="Times,serif" font-size="14.00">Temp0</text>
</g>
<!-- MoveRegister0&#45;&gt;Temp0 -->
<g id="edge3" class="edge"><title>MoveRegister0&#45;&gt;Temp0</title>
<path fill="none" stroke="black" d="M149.865,-216.411C141.825,-207.479 131.773,-196.31 122.943,-186.498"/>
<polygon fill="black" stroke="black" points="125.475,-184.08 116.184,-178.988 120.272,-188.762 125.475,-184.08"/>
</g>
<!-- Temp1: T135 -->
<g id="node7" class="node"><title>Temp1: T135</title>
<ellipse fill="none" stroke="black" cx="59.7947" cy="-90" rx="59.5901" ry="18"/>
<text text-anchor="middle" x="59.7947" y="-86.3" font-family="Times,serif" font-size="14.00">Temp1: T135</text>
</g>
<!-- Temp0&#45;&gt;Temp1: T135 -->
<g id="edge6" class="edge"><title>Temp0&#45;&gt;Temp1: T135</title>
<path fill="none" stroke="black" d="M91.8413,-144.411C86.8927,-136.163 80.8,-126.009 75.2606,-116.777"/>
<polygon fill="black" stroke="black" points="78.1147,-114.73 69.9684,-107.956 72.1122,-118.332 78.1147,-114.73"/>
</g>
</g>
</svg>
