<?xml version="1.0" encoding="UTF-8" standalone="no"?>
<!DOCTYPE svg PUBLIC "-//W3C//DTD SVG 1.1//EN"
 "http://www.w3.org/Graphics/SVG/1.1/DTD/svg11.dtd">
<!-- Generated by graphviz version 2.38.0 (20140413.2041)
 -->
<!-- Title: %3 Pages: 1 -->
<svg width="579pt" height="260pt"
 viewBox="0.00 0.00 578.59 260.00" xmlns="http://www.w3.org/2000/svg" xmlns:xlink="http://www.w3.org/1999/xlink">
<g id="graph0" class="graph" transform="scale(1 1) rotate(0) translate(4 256)">
<title>%3</title>
<polygon fill="white" stroke="none" points="-4,4 -4,-256 574.589,-256 574.589,4 -4,4"/>
<!-- Temp0 -->
<g id="node1" class="node"><title>Temp0</title>
<ellipse fill="none" stroke="black" cx="179.795" cy="-162" rx="36.2938" ry="18"/>
<text text-anchor="middle" x="179.795" y="-158.3" font-family="Times,serif" font-size="14.00">Temp0</text>
</g>
<!-- Temp1: T150 -->
<g id="node2" class="node"><title>Temp1: T150</title>
<ellipse fill="none" stroke="black" cx="59.7947" cy="-90" rx="59.5901" ry="18"/>
<text text-anchor="middle" x="59.7947" y="-86.3" font-family="Times,serif" font-size="14.00">Temp1: T150</text>
</g>
<!-- Temp0&#45;&gt;Temp1: T150 -->
<g id="edge1" class="edge"><title>Temp0&#45;&gt;Temp1: T150</title>
<path fill="none" stroke="black" d="M157.224,-147.834C139.679,-137.599 115.024,-123.217 94.907,-111.482"/>
<polygon fill="black" stroke="black" points="96.4263,-108.316 86.0249,-106.301 92.8991,-114.363 96.4263,-108.316"/>
</g>
<!-- Temp2 -->
<g id="node3" class="node"><title>Temp2</title>
<ellipse fill="none" stroke="black" cx="384.795" cy="-90" rx="36.2938" ry="18"/>
<text text-anchor="middle" x="384.795" y="-86.3" font-family="Times,serif" font-size="14.00">Temp2</text>
</g>
<!-- Temp3: T148 -->
<g id="node4" class="node"><title>Temp3: T148</title>
<ellipse fill="none" stroke="black" cx="372.795" cy="-18" rx="59.5901" ry="18"/>
<text text-anchor="middle" x="372.795" y="-14.3" font-family="Times,serif" font-size="14.00">Temp3: T148</text>
</g>
<!-- Temp2&#45;&gt;Temp3: T148 -->
<g id="edge2" class="edge"><title>Temp2&#45;&gt;Temp3: T148</title>
<path fill="none" stroke="black" d="M381.89,-72.055C380.568,-64.3456 378.971,-55.0269 377.486,-46.3642"/>
<polygon fill="black" stroke="black" points="380.896,-45.5401 375.756,-36.2753 373.996,-46.7229 380.896,-45.5401"/>
</g>
<!-- MoveRegister0 -->
<g id="node5" class="node"><title>MoveRegister0</title>
<ellipse fill="none" stroke="black" cx="243.795" cy="-234" rx="65.7887" ry="18"/>
<text text-anchor="middle" x="243.795" y="-230.3" font-family="Times,serif" font-size="14.00">MoveRegister0</text>
</g>
<!-- MoveRegister0&#45;&gt;Temp0 -->
<g id="edge3" class="edge"><title>MoveRegister0&#45;&gt;Temp0</title>
<path fill="none" stroke="black" d="M228.628,-216.411C220.461,-207.479 210.249,-196.31 201.278,-186.498"/>
<polygon fill="black" stroke="black" points="203.743,-184.007 194.412,-178.988 198.577,-188.73 203.743,-184.007"/>
</g>
<!-- Call0 -->
<g id="node6" class="node"><title>Call0</title>
<ellipse fill="none" stroke="black" cx="308.795" cy="-162" rx="29.795" ry="18"/>
<text text-anchor="middle" x="308.795" y="-158.3" font-family="Times,serif" font-size="14.00">Call0</text>
</g>
<!-- MoveRegister0&#45;&gt;Call0 -->
<g id="edge4" class="edge"><title>MoveRegister0&#45;&gt;Call0</title>
<path fill="none" stroke="black" d="M259.199,-216.411C267.73,-207.223 278.459,-195.67 287.753,-185.66"/>
<polygon fill="black" stroke="black" points="290.591,-187.748 294.831,-178.038 285.461,-182.985 290.591,-187.748"/>
</g>
<!-- Call0&#45;&gt;Temp2 -->
<g id="edge7" class="edge"><title>Call0&#45;&gt;Temp2</title>
<path fill="none" stroke="black" d="M324.542,-146.496C335.028,-136.838 349.004,-123.965 360.855,-113.049"/>
<polygon fill="black" stroke="black" points="363.295,-115.561 368.279,-106.212 358.552,-110.412 363.295,-115.561"/>
</g>
<!-- Temp4 -->
<g id="node7" class="node"><title>Temp4</title>
<ellipse fill="none" stroke="black" cx="498.795" cy="-90" rx="36.2938" ry="18"/>
<text text-anchor="middle" x="498.795" y="-86.3" font-family="Times,serif" font-size="14.00">Temp4</text>
</g>
<!-- Call0&#45;&gt;Temp4 -->
<g id="edge8" class="edge"><title>Call0&#45;&gt;Temp4</title>
<path fill="none" stroke="black" d="M333.634,-151.849C366.044,-139.908 423.071,-118.898 460.896,-104.963"/>
<polygon fill="black" stroke="black" points="462.372,-108.149 470.545,-101.408 459.952,-101.581 462.372,-108.149"/>
</g>
<!-- Function0: List@Delete -->
<g id="node9" class="node"><title>Function0: List@Delete</title>
<ellipse fill="none" stroke="black" cx="233.795" cy="-90" rx="96.3833" ry="18"/>
<text text-anchor="middle" x="233.795" y="-86.3" font-family="Times,serif" font-size="14.00">Function0: List@Delete</text>
</g>
<!-- Call0&#45;&gt;Function0: List@Delete -->
<g id="edge6" class="edge"><title>Call0&#45;&gt;Function0: List@Delete</title>
<path fill="none" stroke="black" d="M293.255,-146.496C283.424,-137.32 270.484,-125.243 259.187,-114.699"/>
<polygon fill="black" stroke="black" points="261.385,-111.963 251.686,-107.699 256.609,-117.081 261.385,-111.963"/>
</g>
<!-- Temp5: T149 -->
<g id="node8" class="node"><title>Temp5: T149</title>
<ellipse fill="none" stroke="black" cx="510.795" cy="-18" rx="59.5901" ry="18"/>
<text text-anchor="middle" x="510.795" y="-14.3" font-family="Times,serif" font-size="14.00">Temp5: T149</text>
</g>
<!-- Temp4&#45;&gt;Temp5: T149 -->
<g id="edge5" class="edge"><title>Temp4&#45;&gt;Temp5: T149</title>
<path fill="none" stroke="black" d="M501.7,-72.055C503.021,-64.3456 504.619,-55.0269 506.104,-46.3642"/>
<polygon fill="black" stroke="black" points="509.593,-46.7229 507.833,-36.2753 502.694,-45.5401 509.593,-46.7229"/>
</g>
</g>
</svg>
