<?xml version="1.0" encoding="UTF-8" standalone="no"?>
<!DOCTYPE svg PUBLIC "-//W3C//DTD SVG 1.1//EN"
 "http://www.w3.org/Graphics/SVG/1.1/DTD/svg11.dtd">
<!-- Generated by graphviz version 2.38.0 (20140413.2041)
 -->
<!-- Title: %3 Pages: 1 -->
<svg width="549pt" height="260pt"
 viewBox="0.00 0.00 549.49 260.00" xmlns="http://www.w3.org/2000/svg" xmlns:xlink="http://www.w3.org/1999/xlink">
<g id="graph0" class="graph" transform="scale(1 1) rotate(0) translate(4 256)">
<title>%3</title>
<polygon fill="white" stroke="none" points="-4,4 -4,-256 545.49,-256 545.49,4 -4,4"/>
<!-- Temp0 -->
<g id="node1" class="node"><title>Temp0</title>
<ellipse fill="none" stroke="black" cx="169.245" cy="-162" rx="36.2938" ry="18"/>
<text text-anchor="middle" x="169.245" y="-158.3" font-family="Times,serif" font-size="14.00">Temp0</text>
</g>
<!-- Temp1: T59 -->
<g id="node2" class="node"><title>Temp1: T59</title>
<ellipse fill="none" stroke="black" cx="55.2451" cy="-90" rx="55.4913" ry="18"/>
<text text-anchor="middle" x="55.2451" y="-86.3" font-family="Times,serif" font-size="14.00">Temp1: T59</text>
</g>
<!-- Temp0&#45;&gt;Temp1: T59 -->
<g id="edge1" class="edge"><title>Temp0&#45;&gt;Temp1: T59</title>
<path fill="none" stroke="black" d="M147.265,-147.503C130.62,-137.283 107.47,-123.068 88.5545,-111.453"/>
<polygon fill="black" stroke="black" points="90.2819,-108.407 79.9287,-106.157 86.619,-114.372 90.2819,-108.407"/>
</g>
<!-- Temp2 -->
<g id="node3" class="node"><title>Temp2</title>
<ellipse fill="none" stroke="black" cx="368.245" cy="-90" rx="36.2938" ry="18"/>
<text text-anchor="middle" x="368.245" y="-86.3" font-family="Times,serif" font-size="14.00">Temp2</text>
</g>
<!-- Temp3: T57 -->
<g id="node4" class="node"><title>Temp3: T57</title>
<ellipse fill="none" stroke="black" cx="358.245" cy="-18" rx="55.4913" ry="18"/>
<text text-anchor="middle" x="358.245" y="-14.3" font-family="Times,serif" font-size="14.00">Temp3: T57</text>
</g>
<!-- Temp2&#45;&gt;Temp3: T57 -->
<g id="edge2" class="edge"><title>Temp2&#45;&gt;Temp3: T57</title>
<path fill="none" stroke="black" d="M365.773,-71.6966C364.671,-63.9827 363.347,-54.7125 362.118,-46.1124"/>
<polygon fill="black" stroke="black" points="365.568,-45.5088 360.689,-36.1043 358.638,-46.4988 365.568,-45.5088"/>
</g>
<!-- MoveRegister0 -->
<g id="node5" class="node"><title>MoveRegister0</title>
<ellipse fill="none" stroke="black" cx="231.245" cy="-234" rx="65.7887" ry="18"/>
<text text-anchor="middle" x="231.245" y="-230.3" font-family="Times,serif" font-size="14.00">MoveRegister0</text>
</g>
<!-- MoveRegister0&#45;&gt;Temp0 -->
<g id="edge3" class="edge"><title>MoveRegister0&#45;&gt;Temp0</title>
<path fill="none" stroke="black" d="M216.552,-216.411C208.64,-207.479 198.748,-196.31 190.057,-186.498"/>
<polygon fill="black" stroke="black" points="192.656,-184.153 183.406,-178.988 187.416,-188.795 192.656,-184.153"/>
</g>
<!-- Call0 -->
<g id="node6" class="node"><title>Call0</title>
<ellipse fill="none" stroke="black" cx="294.245" cy="-162" rx="29.795" ry="18"/>
<text text-anchor="middle" x="294.245" y="-158.3" font-family="Times,serif" font-size="14.00">Call0</text>
</g>
<!-- MoveRegister0&#45;&gt;Call0 -->
<g id="edge4" class="edge"><title>MoveRegister0&#45;&gt;Call0</title>
<path fill="none" stroke="black" d="M246.175,-216.411C254.329,-207.351 264.554,-195.99 273.475,-186.078"/>
<polygon fill="black" stroke="black" points="276.197,-188.285 280.285,-178.511 270.994,-183.602 276.197,-188.285"/>
</g>
<!-- Call0&#45;&gt;Temp2 -->
<g id="edge7" class="edge"><title>Call0&#45;&gt;Temp2</title>
<path fill="none" stroke="black" d="M309.578,-146.496C319.691,-136.93 333.137,-124.21 344.606,-113.362"/>
<polygon fill="black" stroke="black" points="347.304,-115.627 352.164,-106.212 342.494,-110.541 347.304,-115.627"/>
</g>
<!-- Temp4 -->
<g id="node7" class="node"><title>Temp4</title>
<ellipse fill="none" stroke="black" cx="477.245" cy="-90" rx="36.2938" ry="18"/>
<text text-anchor="middle" x="477.245" y="-86.3" font-family="Times,serif" font-size="14.00">Temp4</text>
</g>
<!-- Call0&#45;&gt;Temp4 -->
<g id="edge8" class="edge"><title>Call0&#45;&gt;Temp4</title>
<path fill="none" stroke="black" d="M318.925,-151.559C349.959,-139.689 403.541,-119.193 439.675,-105.371"/>
<polygon fill="black" stroke="black" points="441.281,-108.504 449.37,-101.662 438.78,-101.966 441.281,-108.504"/>
</g>
<!-- Function0: List@Insert -->
<g id="node9" class="node"><title>Function0: List@Insert</title>
<ellipse fill="none" stroke="black" cx="221.245" cy="-90" rx="92.8835" ry="18"/>
<text text-anchor="middle" x="221.245" y="-86.3" font-family="Times,serif" font-size="14.00">Function0: List@Insert</text>
</g>
<!-- Call0&#45;&gt;Function0: List@Insert -->
<g id="edge6" class="edge"><title>Call0&#45;&gt;Function0: List@Insert</title>
<path fill="none" stroke="black" d="M278.764,-146.155C269.334,-137.112 257.065,-125.347 246.281,-115.007"/>
<polygon fill="black" stroke="black" points="248.394,-112.184 238.754,-107.789 243.549,-117.236 248.394,-112.184"/>
</g>
<!-- Temp5: T58 -->
<g id="node8" class="node"><title>Temp5: T58</title>
<ellipse fill="none" stroke="black" cx="486.245" cy="-18" rx="55.4913" ry="18"/>
<text text-anchor="middle" x="486.245" y="-14.3" font-family="Times,serif" font-size="14.00">Temp5: T58</text>
</g>
<!-- Temp4&#45;&gt;Temp5: T58 -->
<g id="edge5" class="edge"><title>Temp4&#45;&gt;Temp5: T58</title>
<path fill="none" stroke="black" d="M479.47,-71.6966C480.462,-63.9827 481.653,-54.7125 482.759,-46.1124"/>
<polygon fill="black" stroke="black" points="486.242,-46.469 484.046,-36.1043 479.299,-45.5763 486.242,-46.469"/>
</g>
</g>
</svg>
