<?xml version="1.0" encoding="UTF-8" standalone="no"?>
<!DOCTYPE svg PUBLIC "-//W3C//DTD SVG 1.1//EN"
 "http://www.w3.org/Graphics/SVG/1.1/DTD/svg11.dtd">
<!-- Generated by graphviz version 2.38.0 (20140413.2041)
 -->
<!-- Title: %3 Pages: 1 -->
<svg width="246pt" height="188pt"
 viewBox="0.00 0.00 246.49 188.00" xmlns="http://www.w3.org/2000/svg" xmlns:xlink="http://www.w3.org/1999/xlink">
<g id="graph0" class="graph" transform="scale(1 1) rotate(0) translate(4 184)">
<title>%3</title>
<polygon fill="white" stroke="none" points="-4,4 -4,-184 242.49,-184 242.49,4 -4,4"/>
<!-- MoveRegister0 -->
<g id="node1" class="node"><title>MoveRegister0</title>
<ellipse fill="none" stroke="black" cx="118.245" cy="-162" rx="65.7887" ry="18"/>
<text text-anchor="middle" x="118.245" y="-158.3" font-family="Times,serif" font-size="14.00">MoveRegister0</text>
</g>
<!-- Temp0 -->
<g id="node2" class="node"><title>Temp0</title>
<ellipse fill="none" stroke="black" cx="64.2451" cy="-90" rx="36.2938" ry="18"/>
<text text-anchor="middle" x="64.2451" y="-86.3" font-family="Times,serif" font-size="14.00">Temp0</text>
</g>
<!-- MoveRegister0&#45;&gt;Temp0 -->
<g id="edge1" class="edge"><title>MoveRegister0&#45;&gt;Temp0</title>
<path fill="none" stroke="black" d="M105.173,-144.055C98.51,-135.418 90.2884,-124.76 82.9662,-115.268"/>
<polygon fill="black" stroke="black" points="85.7041,-113.087 76.8248,-107.307 80.1616,-117.363 85.7041,-113.087"/>
</g>
<!-- Temp2 -->
<g id="node3" class="node"><title>Temp2</title>
<ellipse fill="none" stroke="black" cx="173.245" cy="-90" rx="36.2938" ry="18"/>
<text text-anchor="middle" x="173.245" y="-86.3" font-family="Times,serif" font-size="14.00">Temp2</text>
</g>
<!-- MoveRegister0&#45;&gt;Temp2 -->
<g id="edge2" class="edge"><title>MoveRegister0&#45;&gt;Temp2</title>
<path fill="none" stroke="black" d="M131.559,-144.055C138.346,-135.418 146.719,-124.76 154.177,-115.268"/>
<polygon fill="black" stroke="black" points="157.006,-117.333 160.432,-107.307 151.502,-113.008 157.006,-117.333"/>
</g>
<!-- Temp1: T91 -->
<g id="node5" class="node"><title>Temp1: T91</title>
<ellipse fill="none" stroke="black" cx="55.2451" cy="-18" rx="55.4913" ry="18"/>
<text text-anchor="middle" x="55.2451" y="-14.3" font-family="Times,serif" font-size="14.00">Temp1: T91</text>
</g>
<!-- Temp0&#45;&gt;Temp1: T91 -->
<g id="edge4" class="edge"><title>Temp0&#45;&gt;Temp1: T91</title>
<path fill="none" stroke="black" d="M62.0204,-71.6966C61.0286,-63.9827 59.8367,-54.7125 58.731,-46.1124"/>
<polygon fill="black" stroke="black" points="62.191,-45.5763 57.4442,-36.1043 55.2481,-46.469 62.191,-45.5763"/>
</g>
<!-- Temp3: T15 -->
<g id="node4" class="node"><title>Temp3: T15</title>
<ellipse fill="none" stroke="black" cx="183.245" cy="-18" rx="55.4913" ry="18"/>
<text text-anchor="middle" x="183.245" y="-14.3" font-family="Times,serif" font-size="14.00">Temp3: T15</text>
</g>
<!-- Temp2&#45;&gt;Temp3: T15 -->
<g id="edge3" class="edge"><title>Temp2&#45;&gt;Temp3: T15</title>
<path fill="none" stroke="black" d="M175.717,-71.6966C176.819,-63.9827 178.143,-54.7125 179.372,-46.1124"/>
<polygon fill="black" stroke="black" points="182.852,-46.4988 180.802,-36.1043 175.922,-45.5088 182.852,-46.4988"/>
</g>
</g>
</svg>
