<?xml version="1.0" encoding="UTF-8" standalone="no"?>
<!DOCTYPE svg PUBLIC "-//W3C//DTD SVG 1.1//EN"
 "http://www.w3.org/Graphics/SVG/1.1/DTD/svg11.dtd">
<!-- Generated by graphviz version 2.38.0 (20140413.2041)
 -->
<!-- Title: %3 Pages: 1 -->
<svg width="1789pt" height="476pt"
 viewBox="0.00 0.00 1788.84 476.00" xmlns="http://www.w3.org/2000/svg" xmlns:xlink="http://www.w3.org/1999/xlink">
<g id="graph0" class="graph" transform="scale(1 1) rotate(0) translate(4 472)">
<title>%3</title>
<polygon fill="white" stroke="none" points="-4,4 -4,-472 1784.84,-472 1784.84,4 -4,4"/>
<!-- StatMove3 -->
<g id="node1" class="node"><title>StatMove3</title>
<ellipse fill="none" stroke="black" cx="1454.65" cy="-378" rx="50.0912" ry="18"/>
<text text-anchor="middle" x="1454.65" y="-374.3" font-family="Times,serif" font-size="14.00">StatMove3</text>
</g>
<!-- ExpTemp6 -->
<g id="node2" class="node"><title>ExpTemp6</title>
<ellipse fill="none" stroke="black" cx="1454.65" cy="-306" rx="50.0912" ry="18"/>
<text text-anchor="middle" x="1454.65" y="-302.3" font-family="Times,serif" font-size="14.00">ExpTemp6</text>
</g>
<!-- StatMove3&#45;&gt;ExpTemp6 -->
<g id="edge1" class="edge"><title>StatMove3&#45;&gt;ExpTemp6</title>
<path fill="none" stroke="black" d="M1454.65,-359.697C1454.65,-351.983 1454.65,-342.712 1454.65,-334.112"/>
<polygon fill="black" stroke="black" points="1458.15,-334.104 1454.65,-324.104 1451.15,-334.104 1458.15,-334.104"/>
</g>
<!-- ExpConst5 -->
<g id="node3" class="node"><title>ExpConst5</title>
<ellipse fill="none" stroke="black" cx="1572.65" cy="-306" rx="50.0912" ry="18"/>
<text text-anchor="middle" x="1572.65" y="-302.3" font-family="Times,serif" font-size="14.00">ExpConst5</text>
</g>
<!-- StatMove3&#45;&gt;ExpConst5 -->
<g id="edge2" class="edge"><title>StatMove3&#45;&gt;ExpConst5</title>
<path fill="none" stroke="black" d="M1479.38,-362.326C1496.77,-352.012 1520.23,-338.095 1539.27,-326.8"/>
<polygon fill="black" stroke="black" points="1541.13,-329.767 1547.94,-321.655 1537.55,-323.747 1541.13,-329.767"/>
</g>
<!-- Temp6: $rv -->
<g id="node4" class="node"><title>Temp6: $rv</title>
<ellipse fill="none" stroke="black" cx="1507.65" cy="-234" rx="52.7911" ry="18"/>
<text text-anchor="middle" x="1507.65" y="-230.3" font-family="Times,serif" font-size="14.00">Temp6: $rv</text>
</g>
<!-- ExpTemp6&#45;&gt;Temp6: $rv -->
<g id="edge3" class="edge"><title>ExpTemp6&#45;&gt;Temp6: $rv</title>
<path fill="none" stroke="black" d="M1467.21,-288.411C1473.58,-279.992 1481.46,-269.585 1488.56,-260.201"/>
<polygon fill="black" stroke="black" points="1491.56,-262.042 1494.81,-251.956 1485.98,-257.816 1491.56,-262.042"/>
</g>
<!-- Value5: 1 -->
<g id="node16" class="node"><title>Value5: 1</title>
<ellipse fill="none" stroke="black" cx="1623.65" cy="-234" rx="45.4919" ry="18"/>
<text text-anchor="middle" x="1623.65" y="-230.3" font-family="Times,serif" font-size="14.00">Value5: 1</text>
</g>
<!-- ExpConst5&#45;&gt;Value5: 1 -->
<g id="edge12" class="edge"><title>ExpConst5&#45;&gt;Value5: 1</title>
<path fill="none" stroke="black" d="M1584.73,-288.411C1590.96,-279.868 1598.67,-269.278 1605.59,-259.787"/>
<polygon fill="black" stroke="black" points="1608.59,-261.613 1611.65,-251.47 1602.93,-257.491 1608.59,-261.613"/>
</g>
<!-- ExpConst4 -->
<g id="node5" class="node"><title>ExpConst4</title>
<ellipse fill="none" stroke="black" cx="1627.65" cy="-162" rx="50.0912" ry="18"/>
<text text-anchor="middle" x="1627.65" y="-158.3" font-family="Times,serif" font-size="14.00">ExpConst4</text>
</g>
<!-- Value4: 8 -->
<g id="node6" class="node"><title>Value4: 8</title>
<ellipse fill="none" stroke="black" cx="1627.65" cy="-90" rx="45.4919" ry="18"/>
<text text-anchor="middle" x="1627.65" y="-86.3" font-family="Times,serif" font-size="14.00">Value4: 8</text>
</g>
<!-- ExpConst4&#45;&gt;Value4: 8 -->
<g id="edge4" class="edge"><title>ExpConst4&#45;&gt;Value4: 8</title>
<path fill="none" stroke="black" d="M1627.65,-143.697C1627.65,-135.983 1627.65,-126.712 1627.65,-118.112"/>
<polygon fill="black" stroke="black" points="1631.15,-118.104 1627.65,-108.104 1624.15,-118.104 1631.15,-118.104"/>
</g>
<!-- ExpBinary4 -->
<g id="node7" class="node"><title>ExpBinary4</title>
<ellipse fill="none" stroke="black" cx="1383.65" cy="-234" rx="53.0913" ry="18"/>
<text text-anchor="middle" x="1383.65" y="-230.3" font-family="Times,serif" font-size="14.00">ExpBinary4</text>
</g>
<!-- ExpBinary4&#45;&gt;ExpConst4 -->
<g id="edge7" class="edge"><title>ExpBinary4&#45;&gt;ExpConst4</title>
<path fill="none" stroke="black" d="M1422.99,-221.748C1460.44,-211.031 1518.39,-194.438 1568.65,-180 1572.4,-178.921 1576.29,-177.803 1580.19,-176.679"/>
<polygon fill="black" stroke="black" points="1581.24,-180.021 1589.88,-173.891 1579.3,-173.294 1581.24,-180.021"/>
</g>
<!-- ExpTemp5 -->
<g id="node8" class="node"><title>ExpTemp5</title>
<ellipse fill="none" stroke="black" cx="1429.65" cy="-162" rx="50.0912" ry="18"/>
<text text-anchor="middle" x="1429.65" y="-158.3" font-family="Times,serif" font-size="14.00">ExpTemp5</text>
</g>
<!-- ExpBinary4&#45;&gt;ExpTemp5 -->
<g id="edge5" class="edge"><title>ExpBinary4&#45;&gt;ExpTemp5</title>
<path fill="none" stroke="black" d="M1394.78,-216.055C1400.26,-207.715 1406.98,-197.491 1413.05,-188.252"/>
<polygon fill="black" stroke="black" points="1416.05,-190.068 1418.61,-179.789 1410.2,-186.224 1416.05,-190.068"/>
</g>
<!-- Plus4 -->
<g id="node9" class="node"><title>Plus4</title>
<ellipse fill="none" stroke="black" cx="1528.65" cy="-162" rx="30.5947" ry="18"/>
<text text-anchor="middle" x="1528.65" y="-158.3" font-family="Times,serif" font-size="14.00">Plus4</text>
</g>
<!-- ExpBinary4&#45;&gt;Plus4 -->
<g id="edge6" class="edge"><title>ExpBinary4&#45;&gt;Plus4</title>
<path fill="none" stroke="black" d="M1412.99,-218.834C1437.2,-207.145 1471.52,-190.579 1496.48,-178.53"/>
<polygon fill="black" stroke="black" points="1498.06,-181.652 1505.54,-174.152 1495.02,-175.348 1498.06,-181.652"/>
</g>
<!-- Temp5: $fp -->
<g id="node27" class="node"><title>Temp5: $fp</title>
<ellipse fill="none" stroke="black" cx="1429.65" cy="-90" rx="52.7911" ry="18"/>
<text text-anchor="middle" x="1429.65" y="-86.3" font-family="Times,serif" font-size="14.00">Temp5: $fp</text>
</g>
<!-- ExpTemp5&#45;&gt;Temp5: $fp -->
<g id="edge21" class="edge"><title>ExpTemp5&#45;&gt;Temp5: $fp</title>
<path fill="none" stroke="black" d="M1429.65,-143.697C1429.65,-135.983 1429.65,-126.712 1429.65,-118.112"/>
<polygon fill="black" stroke="black" points="1433.15,-118.104 1429.65,-108.104 1426.15,-118.104 1433.15,-118.104"/>
</g>
<!-- StatMove2 -->
<g id="node10" class="node"><title>StatMove2</title>
<ellipse fill="none" stroke="black" cx="1212.65" cy="-378" rx="50.0912" ry="18"/>
<text text-anchor="middle" x="1212.65" y="-374.3" font-family="Times,serif" font-size="14.00">StatMove2</text>
</g>
<!-- ExpMem6 -->
<g id="node11" class="node"><title>ExpMem6</title>
<ellipse fill="none" stroke="black" cx="1212.65" cy="-306" rx="48.9926" ry="18"/>
<text text-anchor="middle" x="1212.65" y="-302.3" font-family="Times,serif" font-size="14.00">ExpMem6</text>
</g>
<!-- StatMove2&#45;&gt;ExpMem6 -->
<g id="edge8" class="edge"><title>StatMove2&#45;&gt;ExpMem6</title>
<path fill="none" stroke="black" d="M1212.65,-359.697C1212.65,-351.983 1212.65,-342.712 1212.65,-334.112"/>
<polygon fill="black" stroke="black" points="1216.15,-334.104 1212.65,-324.104 1209.15,-334.104 1216.15,-334.104"/>
</g>
<!-- ExpMem8 -->
<g id="node12" class="node"><title>ExpMem8</title>
<ellipse fill="none" stroke="black" cx="1332.65" cy="-306" rx="48.9926" ry="18"/>
<text text-anchor="middle" x="1332.65" y="-302.3" font-family="Times,serif" font-size="14.00">ExpMem8</text>
</g>
<!-- StatMove2&#45;&gt;ExpMem8 -->
<g id="edge9" class="edge"><title>StatMove2&#45;&gt;ExpMem8</title>
<path fill="none" stroke="black" d="M1237.8,-362.326C1255.48,-352.012 1279.34,-338.095 1298.7,-326.8"/>
<polygon fill="black" stroke="black" points="1300.65,-329.717 1307.52,-321.655 1297.12,-323.671 1300.65,-329.717"/>
</g>
<!-- ExpBinary3 -->
<g id="node13" class="node"><title>ExpBinary3</title>
<ellipse fill="none" stroke="black" cx="1212.65" cy="-234" rx="53.0913" ry="18"/>
<text text-anchor="middle" x="1212.65" y="-230.3" font-family="Times,serif" font-size="14.00">ExpBinary3</text>
</g>
<!-- ExpMem6&#45;&gt;ExpBinary3 -->
<g id="edge10" class="edge"><title>ExpMem6&#45;&gt;ExpBinary3</title>
<path fill="none" stroke="black" d="M1212.65,-287.697C1212.65,-279.983 1212.65,-270.712 1212.65,-262.112"/>
<polygon fill="black" stroke="black" points="1216.15,-262.104 1212.65,-252.104 1209.15,-262.104 1216.15,-262.104"/>
</g>
<!-- ExpMem8&#45;&gt;ExpBinary4 -->
<g id="edge45" class="edge"><title>ExpMem8&#45;&gt;ExpBinary4</title>
<path fill="none" stroke="black" d="M1344.73,-288.411C1350.87,-279.992 1358.45,-269.585 1365.28,-260.201"/>
<polygon fill="black" stroke="black" points="1368.23,-262.1 1371.29,-251.956 1362.57,-257.978 1368.23,-262.1"/>
</g>
<!-- ExpConst3 -->
<g id="node14" class="node"><title>ExpConst3</title>
<ellipse fill="none" stroke="black" cx="1311.65" cy="-162" rx="50.0912" ry="18"/>
<text text-anchor="middle" x="1311.65" y="-158.3" font-family="Times,serif" font-size="14.00">ExpConst3</text>
</g>
<!-- ExpBinary3&#45;&gt;ExpConst3 -->
<g id="edge15" class="edge"><title>ExpBinary3&#45;&gt;ExpConst3</title>
<path fill="none" stroke="black" d="M1234.62,-217.465C1248.43,-207.7 1266.43,-194.972 1281.55,-184.276"/>
<polygon fill="black" stroke="black" points="1283.93,-186.882 1290.08,-178.251 1279.89,-181.167 1283.93,-186.882"/>
</g>
<!-- ExpMem7 -->
<g id="node17" class="node"><title>ExpMem7</title>
<ellipse fill="none" stroke="black" cx="1115.65" cy="-162" rx="48.9926" ry="18"/>
<text text-anchor="middle" x="1115.65" y="-158.3" font-family="Times,serif" font-size="14.00">ExpMem7</text>
</g>
<!-- ExpBinary3&#45;&gt;ExpMem7 -->
<g id="edge13" class="edge"><title>ExpBinary3&#45;&gt;ExpMem7</title>
<path fill="none" stroke="black" d="M1191.12,-217.465C1177.59,-207.7 1159.95,-194.972 1145.13,-184.276"/>
<polygon fill="black" stroke="black" points="1146.94,-181.265 1136.78,-178.251 1142.84,-186.941 1146.94,-181.265"/>
</g>
<!-- Plus3 -->
<g id="node18" class="node"><title>Plus3</title>
<ellipse fill="none" stroke="black" cx="1212.65" cy="-162" rx="30.5947" ry="18"/>
<text text-anchor="middle" x="1212.65" y="-158.3" font-family="Times,serif" font-size="14.00">Plus3</text>
</g>
<!-- ExpBinary3&#45;&gt;Plus3 -->
<g id="edge14" class="edge"><title>ExpBinary3&#45;&gt;Plus3</title>
<path fill="none" stroke="black" d="M1212.65,-215.697C1212.65,-207.983 1212.65,-198.712 1212.65,-190.112"/>
<polygon fill="black" stroke="black" points="1216.15,-190.104 1212.65,-180.104 1209.15,-190.104 1216.15,-190.104"/>
</g>
<!-- Value3: 8 -->
<g id="node15" class="node"><title>Value3: 8</title>
<ellipse fill="none" stroke="black" cx="1311.65" cy="-90" rx="45.4919" ry="18"/>
<text text-anchor="middle" x="1311.65" y="-86.3" font-family="Times,serif" font-size="14.00">Value3: 8</text>
</g>
<!-- ExpConst3&#45;&gt;Value3: 8 -->
<g id="edge11" class="edge"><title>ExpConst3&#45;&gt;Value3: 8</title>
<path fill="none" stroke="black" d="M1311.65,-143.697C1311.65,-135.983 1311.65,-126.712 1311.65,-118.112"/>
<polygon fill="black" stroke="black" points="1315.15,-118.104 1311.65,-108.104 1308.15,-118.104 1315.15,-118.104"/>
</g>
<!-- ExpTemp4 -->
<g id="node40" class="node"><title>ExpTemp4</title>
<ellipse fill="none" stroke="black" cx="1115.65" cy="-90" rx="50.0912" ry="18"/>
<text text-anchor="middle" x="1115.65" y="-86.3" font-family="Times,serif" font-size="14.00">ExpTemp4</text>
</g>
<!-- ExpMem7&#45;&gt;ExpTemp4 -->
<g id="edge34" class="edge"><title>ExpMem7&#45;&gt;ExpTemp4</title>
<path fill="none" stroke="black" d="M1115.65,-143.697C1115.65,-135.983 1115.65,-126.712 1115.65,-118.112"/>
<polygon fill="black" stroke="black" points="1119.15,-118.104 1115.65,-108.104 1112.15,-118.104 1119.15,-118.104"/>
</g>
<!-- ExpBinary1 -->
<g id="node19" class="node"><title>ExpBinary1</title>
<ellipse fill="none" stroke="black" cx="539.645" cy="-234" rx="53.0913" ry="18"/>
<text text-anchor="middle" x="539.645" y="-230.3" font-family="Times,serif" font-size="14.00">ExpBinary1</text>
</g>
<!-- ExpTemp1 -->
<g id="node20" class="node"><title>ExpTemp1</title>
<ellipse fill="none" stroke="black" cx="366.645" cy="-162" rx="50.0912" ry="18"/>
<text text-anchor="middle" x="366.645" y="-158.3" font-family="Times,serif" font-size="14.00">ExpTemp1</text>
</g>
<!-- ExpBinary1&#45;&gt;ExpTemp1 -->
<g id="edge16" class="edge"><title>ExpBinary1&#45;&gt;ExpTemp1</title>
<path fill="none" stroke="black" d="M506.698,-219.669C478.656,-208.322 438.233,-191.966 408.016,-179.74"/>
<polygon fill="black" stroke="black" points="409.176,-176.433 398.593,-175.927 406.55,-182.922 409.176,-176.433"/>
</g>
<!-- Plus1 -->
<g id="node21" class="node"><title>Plus1</title>
<ellipse fill="none" stroke="black" cx="465.645" cy="-162" rx="30.5947" ry="18"/>
<text text-anchor="middle" x="465.645" y="-158.3" font-family="Times,serif" font-size="14.00">Plus1</text>
</g>
<!-- ExpBinary1&#45;&gt;Plus1 -->
<g id="edge17" class="edge"><title>ExpBinary1&#45;&gt;Plus1</title>
<path fill="none" stroke="black" d="M522.482,-216.765C512.45,-207.275 499.655,-195.172 488.747,-184.853"/>
<polygon fill="black" stroke="black" points="490.873,-182.046 481.203,-177.717 486.063,-187.132 490.873,-182.046"/>
</g>
<!-- ExpConst1 -->
<g id="node22" class="node"><title>ExpConst1</title>
<ellipse fill="none" stroke="black" cx="564.645" cy="-162" rx="50.0912" ry="18"/>
<text text-anchor="middle" x="564.645" y="-158.3" font-family="Times,serif" font-size="14.00">ExpConst1</text>
</g>
<!-- ExpBinary1&#45;&gt;ExpConst1 -->
<g id="edge18" class="edge"><title>ExpBinary1&#45;&gt;ExpConst1</title>
<path fill="none" stroke="black" d="M545.697,-216.055C548.511,-208.176 551.925,-198.617 555.076,-189.794"/>
<polygon fill="black" stroke="black" points="558.408,-190.87 558.476,-180.275 551.816,-188.516 558.408,-190.87"/>
</g>
<!-- Temp1: $fp -->
<g id="node28" class="node"><title>Temp1: $fp</title>
<ellipse fill="none" stroke="black" cx="366.645" cy="-90" rx="52.7911" ry="18"/>
<text text-anchor="middle" x="366.645" y="-86.3" font-family="Times,serif" font-size="14.00">Temp1: $fp</text>
</g>
<!-- ExpTemp1&#45;&gt;Temp1: $fp -->
<g id="edge22" class="edge"><title>ExpTemp1&#45;&gt;Temp1: $fp</title>
<path fill="none" stroke="black" d="M366.645,-143.697C366.645,-135.983 366.645,-126.712 366.645,-118.112"/>
<polygon fill="black" stroke="black" points="370.145,-118.104 366.645,-108.104 363.145,-118.104 370.145,-118.104"/>
</g>
<!-- Value1: 12 -->
<g id="node43" class="node"><title>Value1: 12</title>
<ellipse fill="none" stroke="black" cx="561.645" cy="-90" rx="50.0912" ry="18"/>
<text text-anchor="middle" x="561.645" y="-86.3" font-family="Times,serif" font-size="14.00">Value1: 12</text>
</g>
<!-- ExpConst1&#45;&gt;Value1: 12 -->
<g id="edge38" class="edge"><title>ExpConst1&#45;&gt;Value1: 12</title>
<path fill="none" stroke="black" d="M563.904,-143.697C563.573,-135.983 563.176,-126.712 562.807,-118.112"/>
<polygon fill="black" stroke="black" points="566.303,-117.945 562.378,-108.104 559.31,-118.245 566.303,-117.945"/>
</g>
<!-- ExpMem0 -->
<g id="node23" class="node"><title>ExpMem0</title>
<ellipse fill="none" stroke="black" cx="464.645" cy="-306" rx="48.9926" ry="18"/>
<text text-anchor="middle" x="464.645" y="-302.3" font-family="Times,serif" font-size="14.00">ExpMem0</text>
</g>
<!-- ExpBinary0 -->
<g id="node24" class="node"><title>ExpBinary0</title>
<ellipse fill="none" stroke="black" cx="199.645" cy="-234" rx="53.0913" ry="18"/>
<text text-anchor="middle" x="199.645" y="-230.3" font-family="Times,serif" font-size="14.00">ExpBinary0</text>
</g>
<!-- ExpMem0&#45;&gt;ExpBinary0 -->
<g id="edge19" class="edge"><title>ExpMem0&#45;&gt;ExpBinary0</title>
<path fill="none" stroke="black" d="M427.881,-294.017C420.844,-291.973 413.526,-289.889 406.645,-288 353.821,-273.501 293.066,-258.095 251.104,-247.652"/>
<polygon fill="black" stroke="black" points="251.936,-244.252 241.387,-245.239 250.249,-251.046 251.936,-244.252"/>
</g>
<!-- ExpConst0 -->
<g id="node31" class="node"><title>ExpConst0</title>
<ellipse fill="none" stroke="black" cx="248.645" cy="-162" rx="50.0912" ry="18"/>
<text text-anchor="middle" x="248.645" y="-158.3" font-family="Times,serif" font-size="14.00">ExpConst0</text>
</g>
<!-- ExpBinary0&#45;&gt;ExpConst0 -->
<g id="edge42" class="edge"><title>ExpBinary0&#45;&gt;ExpConst0</title>
<path fill="none" stroke="black" d="M211.258,-216.411C217.151,-207.992 224.436,-197.585 231.005,-188.201"/>
<polygon fill="black" stroke="black" points="233.909,-190.156 236.776,-179.956 228.174,-186.141 233.909,-190.156"/>
</g>
<!-- ExpMem1 -->
<g id="node33" class="node"><title>ExpMem1</title>
<ellipse fill="none" stroke="black" cx="52.6453" cy="-162" rx="48.9926" ry="18"/>
<text text-anchor="middle" x="52.6453" y="-158.3" font-family="Times,serif" font-size="14.00">ExpMem1</text>
</g>
<!-- ExpBinary0&#45;&gt;ExpMem1 -->
<g id="edge40" class="edge"><title>ExpBinary0&#45;&gt;ExpMem1</title>
<path fill="none" stroke="black" d="M169.898,-218.834C146.985,-207.924 115.154,-192.766 90.439,-180.997"/>
<polygon fill="black" stroke="black" points="91.8817,-177.807 81.3483,-176.668 88.8721,-184.127 91.8817,-177.807"/>
</g>
<!-- Plus0 -->
<g id="node46" class="node"><title>Plus0</title>
<ellipse fill="none" stroke="black" cx="149.645" cy="-162" rx="30.5947" ry="18"/>
<text text-anchor="middle" x="149.645" y="-158.3" font-family="Times,serif" font-size="14.00">Plus0</text>
</g>
<!-- ExpBinary0&#45;&gt;Plus0 -->
<g id="edge41" class="edge"><title>ExpBinary0&#45;&gt;Plus0</title>
<path fill="none" stroke="black" d="M187.796,-216.411C181.605,-207.744 173.91,-196.971 167.056,-187.375"/>
<polygon fill="black" stroke="black" points="169.726,-185.091 161.065,-178.988 164.03,-189.16 169.726,-185.091"/>
</g>
<!-- ExpMem3 -->
<g id="node25" class="node"><title>ExpMem3</title>
<ellipse fill="none" stroke="black" cx="733.645" cy="-306" rx="48.9926" ry="18"/>
<text text-anchor="middle" x="733.645" y="-302.3" font-family="Times,serif" font-size="14.00">ExpMem3</text>
</g>
<!-- ExpMem4 -->
<g id="node26" class="node"><title>ExpMem4</title>
<ellipse fill="none" stroke="black" cx="707.645" cy="-234" rx="48.9926" ry="18"/>
<text text-anchor="middle" x="707.645" y="-230.3" font-family="Times,serif" font-size="14.00">ExpMem4</text>
</g>
<!-- ExpMem3&#45;&gt;ExpMem4 -->
<g id="edge20" class="edge"><title>ExpMem3&#45;&gt;ExpMem4</title>
<path fill="none" stroke="black" d="M727.351,-288.055C724.425,-280.176 720.874,-270.617 717.597,-261.794"/>
<polygon fill="black" stroke="black" points="720.825,-260.431 714.062,-252.275 714.263,-262.868 720.825,-260.431"/>
</g>
<!-- ExpTemp2 -->
<g id="node44" class="node"><title>ExpTemp2</title>
<ellipse fill="none" stroke="black" cx="682.645" cy="-162" rx="50.0912" ry="18"/>
<text text-anchor="middle" x="682.645" y="-158.3" font-family="Times,serif" font-size="14.00">ExpTemp2</text>
</g>
<!-- ExpMem4&#45;&gt;ExpTemp2 -->
<g id="edge43" class="edge"><title>ExpMem4&#45;&gt;ExpTemp2</title>
<path fill="none" stroke="black" d="M701.594,-216.055C698.78,-208.176 695.366,-198.617 692.215,-189.794"/>
<polygon fill="black" stroke="black" points="695.475,-188.516 688.815,-180.275 688.882,-190.87 695.475,-188.516"/>
</g>
<!-- StatMove0 -->
<g id="node29" class="node"><title>StatMove0</title>
<ellipse fill="none" stroke="black" cx="579.645" cy="-378" rx="50.0912" ry="18"/>
<text text-anchor="middle" x="579.645" y="-374.3" font-family="Times,serif" font-size="14.00">StatMove0</text>
</g>
<!-- StatMove0&#45;&gt;ExpMem0 -->
<g id="edge23" class="edge"><title>StatMove0&#45;&gt;ExpMem0</title>
<path fill="none" stroke="black" d="M555.257,-362.155C538.485,-351.946 516.013,-338.267 497.644,-327.086"/>
<polygon fill="black" stroke="black" points="499.361,-324.034 488.999,-321.824 495.721,-330.013 499.361,-324.034"/>
</g>
<!-- ExpMem2 -->
<g id="node30" class="node"><title>ExpMem2</title>
<ellipse fill="none" stroke="black" cx="579.645" cy="-306" rx="48.9926" ry="18"/>
<text text-anchor="middle" x="579.645" y="-302.3" font-family="Times,serif" font-size="14.00">ExpMem2</text>
</g>
<!-- StatMove0&#45;&gt;ExpMem2 -->
<g id="edge24" class="edge"><title>StatMove0&#45;&gt;ExpMem2</title>
<path fill="none" stroke="black" d="M579.645,-359.697C579.645,-351.983 579.645,-342.712 579.645,-334.112"/>
<polygon fill="black" stroke="black" points="583.145,-334.104 579.645,-324.104 576.145,-334.104 583.145,-334.104"/>
</g>
<!-- ExpMem2&#45;&gt;ExpBinary1 -->
<g id="edge37" class="edge"><title>ExpMem2&#45;&gt;ExpBinary1</title>
<path fill="none" stroke="black" d="M569.962,-288.055C565.246,-279.801 559.475,-269.701 554.238,-260.538"/>
<polygon fill="black" stroke="black" points="557.239,-258.735 549.239,-251.789 551.162,-262.208 557.239,-258.735"/>
</g>
<!-- Value0: 4 -->
<g id="node32" class="node"><title>Value0: 4</title>
<ellipse fill="none" stroke="black" cx="248.645" cy="-90" rx="45.4919" ry="18"/>
<text text-anchor="middle" x="248.645" y="-86.3" font-family="Times,serif" font-size="14.00">Value0: 4</text>
</g>
<!-- ExpConst0&#45;&gt;Value0: 4 -->
<g id="edge25" class="edge"><title>ExpConst0&#45;&gt;Value0: 4</title>
<path fill="none" stroke="black" d="M248.645,-143.697C248.645,-135.983 248.645,-126.712 248.645,-118.112"/>
<polygon fill="black" stroke="black" points="252.145,-118.104 248.645,-108.104 245.145,-118.104 252.145,-118.104"/>
</g>
<!-- ExpTemp0 -->
<g id="node34" class="node"><title>ExpTemp0</title>
<ellipse fill="none" stroke="black" cx="52.6453" cy="-90" rx="50.0912" ry="18"/>
<text text-anchor="middle" x="52.6453" y="-86.3" font-family="Times,serif" font-size="14.00">ExpTemp0</text>
</g>
<!-- ExpMem1&#45;&gt;ExpTemp0 -->
<g id="edge26" class="edge"><title>ExpMem1&#45;&gt;ExpTemp0</title>
<path fill="none" stroke="black" d="M52.6453,-143.697C52.6453,-135.983 52.6453,-126.712 52.6453,-118.112"/>
<polygon fill="black" stroke="black" points="56.1454,-118.104 52.6453,-108.104 49.1454,-118.104 56.1454,-118.104"/>
</g>
<!-- Temp0: $fp -->
<g id="node41" class="node"><title>Temp0: $fp</title>
<ellipse fill="none" stroke="black" cx="52.6453" cy="-18" rx="52.7911" ry="18"/>
<text text-anchor="middle" x="52.6453" y="-14.3" font-family="Times,serif" font-size="14.00">Temp0: $fp</text>
</g>
<!-- ExpTemp0&#45;&gt;Temp0: $fp -->
<g id="edge35" class="edge"><title>ExpTemp0&#45;&gt;Temp0: $fp</title>
<path fill="none" stroke="black" d="M52.6453,-71.6966C52.6453,-63.9827 52.6453,-54.7125 52.6453,-46.1124"/>
<polygon fill="black" stroke="black" points="56.1454,-46.1043 52.6453,-36.1043 49.1454,-46.1044 56.1454,-46.1043"/>
</g>
<!-- StatLabel0 -->
<g id="node35" class="node"><title>StatLabel0</title>
<ellipse fill="none" stroke="black" cx="384.645" cy="-378" rx="48.9926" ry="18"/>
<text text-anchor="middle" x="384.645" y="-374.3" font-family="Times,serif" font-size="14.00">StatLabel0</text>
</g>
<!-- Label0: List@InitNew -->
<g id="node36" class="node"><title>Label0: List@InitNew</title>
<ellipse fill="none" stroke="black" cx="306.645" cy="-306" rx="90.9839" ry="18"/>
<text text-anchor="middle" x="306.645" y="-302.3" font-family="Times,serif" font-size="14.00">Label0: List@InitNew</text>
</g>
<!-- StatLabel0&#45;&gt;Label0: List@InitNew -->
<g id="edge27" class="edge"><title>StatLabel0&#45;&gt;Label0: List@InitNew</title>
<path fill="none" stroke="black" d="M366.946,-361.116C356.866,-352.07 344.049,-340.567 332.825,-330.494"/>
<polygon fill="black" stroke="black" points="335.143,-327.872 325.362,-323.797 330.467,-333.081 335.143,-327.872"/>
</g>
<!-- StatList0 -->
<g id="node37" class="node"><title>StatList0</title>
<ellipse fill="none" stroke="black" cx="1055.65" cy="-450" rx="42.4939" ry="18"/>
<text text-anchor="middle" x="1055.65" y="-446.3" font-family="Times,serif" font-size="14.00">StatList0</text>
</g>
<!-- StatList0&#45;&gt;StatMove3 -->
<g id="edge32" class="edge"><title>StatList0&#45;&gt;StatMove3</title>
<path fill="none" stroke="black" d="M1093.9,-442.288C1165.26,-429.769 1318.83,-402.827 1400.69,-388.466"/>
<polygon fill="black" stroke="black" points="1401.54,-391.87 1410.79,-386.694 1400.33,-384.975 1401.54,-391.87"/>
</g>
<!-- StatList0&#45;&gt;StatMove2 -->
<g id="edge31" class="edge"><title>StatList0&#45;&gt;StatMove2</title>
<path fill="none" stroke="black" d="M1083.71,-436.485C1108.57,-425.404 1145.12,-409.109 1172.96,-396.695"/>
<polygon fill="black" stroke="black" points="1174.7,-399.749 1182.41,-392.481 1171.85,-393.356 1174.7,-399.749"/>
</g>
<!-- StatList0&#45;&gt;StatMove0 -->
<g id="edge29" class="edge"><title>StatList0&#45;&gt;StatMove0</title>
<path fill="none" stroke="black" d="M1016.29,-443.212C931.742,-430.779 732.577,-401.49 635.203,-387.17"/>
<polygon fill="black" stroke="black" points="635.66,-383.7 625.257,-385.708 634.641,-390.625 635.66,-383.7"/>
</g>
<!-- StatList0&#45;&gt;StatLabel0 -->
<g id="edge28" class="edge"><title>StatList0&#45;&gt;StatLabel0</title>
<path fill="none" stroke="black" d="M1014.67,-445.301C925.015,-437.13 704.767,-416.624 520.645,-396 494.161,-393.033 464.819,-389.409 440.189,-386.269"/>
<polygon fill="black" stroke="black" points="440.308,-382.756 429.944,-384.957 439.418,-389.699 440.308,-382.756"/>
</g>
<!-- StatMove1 -->
<g id="node38" class="node"><title>StatMove1</title>
<ellipse fill="none" stroke="black" cx="899.645" cy="-378" rx="50.0912" ry="18"/>
<text text-anchor="middle" x="899.645" y="-374.3" font-family="Times,serif" font-size="14.00">StatMove1</text>
</g>
<!-- StatList0&#45;&gt;StatMove1 -->
<g id="edge30" class="edge"><title>StatList0&#45;&gt;StatMove1</title>
<path fill="none" stroke="black" d="M1027.39,-436.324C1002.73,-425.257 966.682,-409.081 939.161,-396.731"/>
<polygon fill="black" stroke="black" points="940.371,-393.438 929.815,-392.538 937.505,-399.825 940.371,-393.438"/>
</g>
<!-- StatJump0 -->
<g id="node39" class="node"><title>StatJump0</title>
<ellipse fill="none" stroke="black" cx="1640.65" cy="-378" rx="48.1917" ry="18"/>
<text text-anchor="middle" x="1640.65" y="-374.3" font-family="Times,serif" font-size="14.00">StatJump0</text>
</g>
<!-- StatList0&#45;&gt;StatJump0 -->
<g id="edge33" class="edge"><title>StatList0&#45;&gt;StatJump0</title>
<path fill="none" stroke="black" d="M1096.11,-444.563C1175.99,-435.75 1359.55,-415.227 1513.65,-396 1537.48,-393.026 1563.8,-389.537 1586.27,-386.496"/>
<polygon fill="black" stroke="black" points="1586.86,-389.948 1596.3,-385.134 1585.92,-383.012 1586.86,-389.948"/>
</g>
<!-- StatMove1&#45;&gt;ExpMem3 -->
<g id="edge51" class="edge"><title>StatMove1&#45;&gt;ExpMem3</title>
<path fill="none" stroke="black" d="M868.422,-363.834C841.674,-352.554 802.98,-336.238 773.907,-323.978"/>
<polygon fill="black" stroke="black" points="775.022,-320.65 764.448,-319.989 772.302,-327.1 775.022,-320.65"/>
</g>
<!-- ExpMem5 -->
<g id="node54" class="node"><title>ExpMem5</title>
<ellipse fill="none" stroke="black" cx="899.645" cy="-306" rx="48.9926" ry="18"/>
<text text-anchor="middle" x="899.645" y="-302.3" font-family="Times,serif" font-size="14.00">ExpMem5</text>
</g>
<!-- StatMove1&#45;&gt;ExpMem5 -->
<g id="edge52" class="edge"><title>StatMove1&#45;&gt;ExpMem5</title>
<path fill="none" stroke="black" d="M899.645,-359.697C899.645,-351.983 899.645,-342.712 899.645,-334.112"/>
<polygon fill="black" stroke="black" points="903.145,-334.104 899.645,-324.104 896.145,-334.104 903.145,-334.104"/>
</g>
<!-- Label1: epilogue -->
<g id="node42" class="node"><title>Label1: epilogue</title>
<ellipse fill="none" stroke="black" cx="1710.65" cy="-306" rx="70.3881" ry="18"/>
<text text-anchor="middle" x="1710.65" y="-302.3" font-family="Times,serif" font-size="14.00">Label1: epilogue</text>
</g>
<!-- StatJump0&#45;&gt;Label1: epilogue -->
<g id="edge36" class="edge"><title>StatJump0&#45;&gt;Label1: epilogue</title>
<path fill="none" stroke="black" d="M1656.88,-360.765C1665.76,-351.882 1676.94,-340.709 1686.79,-330.854"/>
<polygon fill="black" stroke="black" points="1689.42,-333.179 1694.01,-323.633 1684.47,-328.23 1689.42,-333.179"/>
</g>
<!-- Temp4: $fp -->
<g id="node52" class="node"><title>Temp4: $fp</title>
<ellipse fill="none" stroke="black" cx="1115.65" cy="-18" rx="52.7911" ry="18"/>
<text text-anchor="middle" x="1115.65" y="-14.3" font-family="Times,serif" font-size="14.00">Temp4: $fp</text>
</g>
<!-- ExpTemp4&#45;&gt;Temp4: $fp -->
<g id="edge49" class="edge"><title>ExpTemp4&#45;&gt;Temp4: $fp</title>
<path fill="none" stroke="black" d="M1115.65,-71.6966C1115.65,-63.9827 1115.65,-54.7125 1115.65,-46.1124"/>
<polygon fill="black" stroke="black" points="1119.15,-46.1043 1115.65,-36.1043 1112.15,-46.1044 1119.15,-46.1043"/>
</g>
<!-- Temp2: $fp -->
<g id="node45" class="node"><title>Temp2: $fp</title>
<ellipse fill="none" stroke="black" cx="682.645" cy="-90" rx="52.7911" ry="18"/>
<text text-anchor="middle" x="682.645" y="-86.3" font-family="Times,serif" font-size="14.00">Temp2: $fp</text>
</g>
<!-- ExpTemp2&#45;&gt;Temp2: $fp -->
<g id="edge39" class="edge"><title>ExpTemp2&#45;&gt;Temp2: $fp</title>
<path fill="none" stroke="black" d="M682.645,-143.697C682.645,-135.983 682.645,-126.712 682.645,-118.112"/>
<polygon fill="black" stroke="black" points="686.145,-118.104 682.645,-108.104 679.145,-118.104 686.145,-118.104"/>
</g>
<!-- ExpTemp3 -->
<g id="node47" class="node"><title>ExpTemp3</title>
<ellipse fill="none" stroke="black" cx="800.645" cy="-162" rx="50.0912" ry="18"/>
<text text-anchor="middle" x="800.645" y="-158.3" font-family="Times,serif" font-size="14.00">ExpTemp3</text>
</g>
<!-- Temp3: $fp -->
<g id="node48" class="node"><title>Temp3: $fp</title>
<ellipse fill="none" stroke="black" cx="805.645" cy="-90" rx="52.7911" ry="18"/>
<text text-anchor="middle" x="805.645" y="-86.3" font-family="Times,serif" font-size="14.00">Temp3: $fp</text>
</g>
<!-- ExpTemp3&#45;&gt;Temp3: $fp -->
<g id="edge44" class="edge"><title>ExpTemp3&#45;&gt;Temp3: $fp</title>
<path fill="none" stroke="black" d="M801.881,-143.697C802.432,-135.983 803.094,-126.712 803.709,-118.112"/>
<polygon fill="black" stroke="black" points="807.202,-118.328 804.424,-108.104 800.22,-117.83 807.202,-118.328"/>
</g>
<!-- ExpBinary2 -->
<g id="node49" class="node"><title>ExpBinary2</title>
<ellipse fill="none" stroke="black" cx="899.645" cy="-234" rx="53.0913" ry="18"/>
<text text-anchor="middle" x="899.645" y="-230.3" font-family="Times,serif" font-size="14.00">ExpBinary2</text>
</g>
<!-- ExpBinary2&#45;&gt;ExpTemp3 -->
<g id="edge46" class="edge"><title>ExpBinary2&#45;&gt;ExpTemp3</title>
<path fill="none" stroke="black" d="M877.674,-217.465C863.864,-207.7 845.863,-194.972 830.736,-184.276"/>
<polygon fill="black" stroke="black" points="832.4,-181.167 822.215,-178.251 828.359,-186.882 832.4,-181.167"/>
</g>
<!-- Plus2 -->
<g id="node50" class="node"><title>Plus2</title>
<ellipse fill="none" stroke="black" cx="899.645" cy="-162" rx="30.5947" ry="18"/>
<text text-anchor="middle" x="899.645" y="-158.3" font-family="Times,serif" font-size="14.00">Plus2</text>
</g>
<!-- ExpBinary2&#45;&gt;Plus2 -->
<g id="edge47" class="edge"><title>ExpBinary2&#45;&gt;Plus2</title>
<path fill="none" stroke="black" d="M899.645,-215.697C899.645,-207.983 899.645,-198.712 899.645,-190.112"/>
<polygon fill="black" stroke="black" points="903.145,-190.104 899.645,-180.104 896.145,-190.104 903.145,-190.104"/>
</g>
<!-- ExpConst2 -->
<g id="node51" class="node"><title>ExpConst2</title>
<ellipse fill="none" stroke="black" cx="998.645" cy="-162" rx="50.0912" ry="18"/>
<text text-anchor="middle" x="998.645" y="-158.3" font-family="Times,serif" font-size="14.00">ExpConst2</text>
</g>
<!-- ExpBinary2&#45;&gt;ExpConst2 -->
<g id="edge48" class="edge"><title>ExpBinary2&#45;&gt;ExpConst2</title>
<path fill="none" stroke="black" d="M921.617,-217.465C935.426,-207.7 953.427,-194.972 968.555,-184.276"/>
<polygon fill="black" stroke="black" points="970.932,-186.882 977.076,-178.251 966.89,-181.167 970.932,-186.882"/>
</g>
<!-- Value2: 4 -->
<g id="node53" class="node"><title>Value2: 4</title>
<ellipse fill="none" stroke="black" cx="998.645" cy="-90" rx="45.4919" ry="18"/>
<text text-anchor="middle" x="998.645" y="-86.3" font-family="Times,serif" font-size="14.00">Value2: 4</text>
</g>
<!-- ExpConst2&#45;&gt;Value2: 4 -->
<g id="edge50" class="edge"><title>ExpConst2&#45;&gt;Value2: 4</title>
<path fill="none" stroke="black" d="M998.645,-143.697C998.645,-135.983 998.645,-126.712 998.645,-118.112"/>
<polygon fill="black" stroke="black" points="1002.15,-118.104 998.645,-108.104 995.145,-118.104 1002.15,-118.104"/>
</g>
<!-- ExpMem5&#45;&gt;ExpBinary2 -->
<g id="edge53" class="edge"><title>ExpMem5&#45;&gt;ExpBinary2</title>
<path fill="none" stroke="black" d="M899.645,-287.697C899.645,-279.983 899.645,-270.712 899.645,-262.112"/>
<polygon fill="black" stroke="black" points="903.145,-262.104 899.645,-252.104 896.145,-262.104 903.145,-262.104"/>
</g>
</g>
</svg>
