<?xml version="1.0" encoding="UTF-8" standalone="no"?>
<!DOCTYPE svg PUBLIC "-//W3C//DTD SVG 1.1//EN"
 "http://www.w3.org/Graphics/SVG/1.1/DTD/svg11.dtd">
<!-- Generated by graphviz version 2.38.0 (20140413.2041)
 -->
<!-- Title: %3 Pages: 1 -->
<svg width="1440pt" height="404pt"
 viewBox="0.00 0.00 1440.14 404.00" xmlns="http://www.w3.org/2000/svg" xmlns:xlink="http://www.w3.org/1999/xlink">
<g id="graph0" class="graph" transform="scale(1 1) rotate(0) translate(4 400)">
<title>%3</title>
<polygon fill="white" stroke="none" points="-4,4 -4,-400 1436.14,-400 1436.14,4 -4,4"/>
<!-- StatMove3 -->
<g id="node1" class="node"><title>StatMove3</title>
<ellipse fill="none" stroke="black" cx="1105.95" cy="-306" rx="50.0912" ry="18"/>
<text text-anchor="middle" x="1105.95" y="-302.3" font-family="Times,serif" font-size="14.00">StatMove3</text>
</g>
<!-- ExpTemp6 -->
<g id="node2" class="node"><title>ExpTemp6</title>
<ellipse fill="none" stroke="black" cx="1105.95" cy="-234" rx="50.0912" ry="18"/>
<text text-anchor="middle" x="1105.95" y="-230.3" font-family="Times,serif" font-size="14.00">ExpTemp6</text>
</g>
<!-- StatMove3&#45;&gt;ExpTemp6 -->
<g id="edge1" class="edge"><title>StatMove3&#45;&gt;ExpTemp6</title>
<path fill="none" stroke="black" d="M1105.95,-287.697C1105.95,-279.983 1105.95,-270.712 1105.95,-262.112"/>
<polygon fill="black" stroke="black" points="1109.45,-262.104 1105.95,-252.104 1102.45,-262.104 1109.45,-262.104"/>
</g>
<!-- ExpConst1 -->
<g id="node3" class="node"><title>ExpConst1</title>
<ellipse fill="none" stroke="black" cx="1223.95" cy="-234" rx="50.0912" ry="18"/>
<text text-anchor="middle" x="1223.95" y="-230.3" font-family="Times,serif" font-size="14.00">ExpConst1</text>
</g>
<!-- StatMove3&#45;&gt;ExpConst1 -->
<g id="edge2" class="edge"><title>StatMove3&#45;&gt;ExpConst1</title>
<path fill="none" stroke="black" d="M1130.68,-290.326C1148.07,-280.012 1171.53,-266.095 1190.57,-254.8"/>
<polygon fill="black" stroke="black" points="1192.43,-257.767 1199.24,-249.655 1188.85,-251.747 1192.43,-257.767"/>
</g>
<!-- Temp6: $rv -->
<g id="node4" class="node"><title>Temp6: $rv</title>
<ellipse fill="none" stroke="black" cx="1136.95" cy="-162" rx="52.7911" ry="18"/>
<text text-anchor="middle" x="1136.95" y="-158.3" font-family="Times,serif" font-size="14.00">Temp6: $rv</text>
</g>
<!-- ExpTemp6&#45;&gt;Temp6: $rv -->
<g id="edge3" class="edge"><title>ExpTemp6&#45;&gt;Temp6: $rv</title>
<path fill="none" stroke="black" d="M1113.45,-216.055C1116.98,-208.091 1121.26,-198.411 1125.21,-189.51"/>
<polygon fill="black" stroke="black" points="1128.45,-190.836 1129.29,-180.275 1122.05,-188.002 1128.45,-190.836"/>
</g>
<!-- Value1: 0 -->
<g id="node30" class="node"><title>Value1: 0</title>
<ellipse fill="none" stroke="black" cx="1252.95" cy="-162" rx="45.4919" ry="18"/>
<text text-anchor="middle" x="1252.95" y="-158.3" font-family="Times,serif" font-size="14.00">Value1: 0</text>
</g>
<!-- ExpConst1&#45;&gt;Value1: 0 -->
<g id="edge26" class="edge"><title>ExpConst1&#45;&gt;Value1: 0</title>
<path fill="none" stroke="black" d="M1230.97,-216.055C1234.31,-207.973 1238.39,-198.121 1242.13,-189.112"/>
<polygon fill="black" stroke="black" points="1245.4,-190.367 1245.99,-179.789 1238.93,-187.688 1245.4,-190.367"/>
</g>
<!-- StatJump0 -->
<g id="node5" class="node"><title>StatJump0</title>
<ellipse fill="none" stroke="black" cx="1291.95" cy="-306" rx="48.1917" ry="18"/>
<text text-anchor="middle" x="1291.95" y="-302.3" font-family="Times,serif" font-size="14.00">StatJump0</text>
</g>
<!-- Label2: epilogue -->
<g id="node6" class="node"><title>Label2: epilogue</title>
<ellipse fill="none" stroke="black" cx="1361.95" cy="-234" rx="70.3881" ry="18"/>
<text text-anchor="middle" x="1361.95" y="-230.3" font-family="Times,serif" font-size="14.00">Label2: epilogue</text>
</g>
<!-- StatJump0&#45;&gt;Label2: epilogue -->
<g id="edge4" class="edge"><title>StatJump0&#45;&gt;Label2: epilogue</title>
<path fill="none" stroke="black" d="M1308.18,-288.765C1317.06,-279.882 1328.24,-268.709 1338.09,-258.854"/>
<polygon fill="black" stroke="black" points="1340.72,-261.179 1345.31,-251.633 1335.77,-256.23 1340.72,-261.179"/>
</g>
<!-- ExpTemp5 -->
<g id="node7" class="node"><title>ExpTemp5</title>
<ellipse fill="none" stroke="black" cx="931.945" cy="-234" rx="50.0912" ry="18"/>
<text text-anchor="middle" x="931.945" y="-230.3" font-family="Times,serif" font-size="14.00">ExpTemp5</text>
</g>
<!-- Temp5: T1 -->
<g id="node8" class="node"><title>Temp5: T1</title>
<ellipse fill="none" stroke="black" cx="1015.95" cy="-162" rx="50.8918" ry="18"/>
<text text-anchor="middle" x="1015.95" y="-158.3" font-family="Times,serif" font-size="14.00">Temp5: T1</text>
</g>
<!-- ExpTemp5&#45;&gt;Temp5: T1 -->
<g id="edge5" class="edge"><title>ExpTemp5&#45;&gt;Temp5: T1</title>
<path fill="none" stroke="black" d="M951.006,-217.116C962.283,-207.718 976.743,-195.669 989.154,-185.326"/>
<polygon fill="black" stroke="black" points="991.518,-187.912 996.96,-178.821 987.037,-182.534 991.518,-187.912"/>
</g>
<!-- ExpList0 -->
<g id="node9" class="node"><title>ExpList0</title>
<ellipse fill="none" stroke="black" cx="903.945" cy="-162" rx="42.7926" ry="18"/>
<text text-anchor="middle" x="903.945" y="-158.3" font-family="Times,serif" font-size="14.00">ExpList0</text>
</g>
<!-- ExpTemp4 -->
<g id="node10" class="node"><title>ExpTemp4</title>
<ellipse fill="none" stroke="black" cx="909.945" cy="-90" rx="50.0912" ry="18"/>
<text text-anchor="middle" x="909.945" y="-86.3" font-family="Times,serif" font-size="14.00">ExpTemp4</text>
</g>
<!-- ExpList0&#45;&gt;ExpTemp4 -->
<g id="edge6" class="edge"><title>ExpList0&#45;&gt;ExpTemp4</title>
<path fill="none" stroke="black" d="M905.428,-143.697C906.09,-135.983 906.884,-126.712 907.621,-118.112"/>
<polygon fill="black" stroke="black" points="911.112,-118.367 908.479,-108.104 904.138,-117.769 911.112,-118.367"/>
</g>
<!-- Temp4: T4 -->
<g id="node11" class="node"><title>Temp4: T4</title>
<ellipse fill="none" stroke="black" cx="909.945" cy="-18" rx="50.8918" ry="18"/>
<text text-anchor="middle" x="909.945" y="-14.3" font-family="Times,serif" font-size="14.00">Temp4: T4</text>
</g>
<!-- ExpTemp4&#45;&gt;Temp4: T4 -->
<g id="edge7" class="edge"><title>ExpTemp4&#45;&gt;Temp4: T4</title>
<path fill="none" stroke="black" d="M909.945,-71.6966C909.945,-63.9827 909.945,-54.7125 909.945,-46.1124"/>
<polygon fill="black" stroke="black" points="913.445,-46.1043 909.945,-36.1043 906.445,-46.1044 913.445,-46.1043"/>
</g>
<!-- ExpCall0 -->
<g id="node12" class="node"><title>ExpCall0</title>
<ellipse fill="none" stroke="black" cx="791.945" cy="-234" rx="44.393" ry="18"/>
<text text-anchor="middle" x="791.945" y="-230.3" font-family="Times,serif" font-size="14.00">ExpCall0</text>
</g>
<!-- ExpCall0&#45;&gt;ExpList0 -->
<g id="edge9" class="edge"><title>ExpCall0&#45;&gt;ExpList0</title>
<path fill="none" stroke="black" d="M815.152,-218.496C831.671,-208.172 854.067,-194.174 872.234,-182.819"/>
<polygon fill="black" stroke="black" points="874.143,-185.753 880.768,-177.485 870.433,-179.818 874.143,-185.753"/>
</g>
<!-- ExpName0 -->
<g id="node13" class="node"><title>ExpName0</title>
<ellipse fill="none" stroke="black" cx="791.945" cy="-162" rx="50.8918" ry="18"/>
<text text-anchor="middle" x="791.945" y="-158.3" font-family="Times,serif" font-size="14.00">ExpName0</text>
</g>
<!-- ExpCall0&#45;&gt;ExpName0 -->
<g id="edge8" class="edge"><title>ExpCall0&#45;&gt;ExpName0</title>
<path fill="none" stroke="black" d="M791.945,-215.697C791.945,-207.983 791.945,-198.712 791.945,-190.112"/>
<polygon fill="black" stroke="black" points="795.445,-190.104 791.945,-180.104 788.445,-190.104 795.445,-190.104"/>
</g>
<!-- Label1: print -->
<g id="node14" class="node"><title>Label1: print</title>
<ellipse fill="none" stroke="black" cx="784.945" cy="-90" rx="56.59" ry="18"/>
<text text-anchor="middle" x="784.945" y="-86.3" font-family="Times,serif" font-size="14.00">Label1: print</text>
</g>
<!-- ExpName0&#45;&gt;Label1: print -->
<g id="edge10" class="edge"><title>ExpName0&#45;&gt;Label1: print</title>
<path fill="none" stroke="black" d="M790.215,-143.697C789.443,-135.983 788.516,-126.712 787.656,-118.112"/>
<polygon fill="black" stroke="black" points="791.133,-117.706 786.656,-108.104 784.168,-118.403 791.133,-117.706"/>
</g>
<!-- StatMove0 -->
<g id="node15" class="node"><title>StatMove0</title>
<ellipse fill="none" stroke="black" cx="293.945" cy="-306" rx="50.0912" ry="18"/>
<text text-anchor="middle" x="293.945" y="-302.3" font-family="Times,serif" font-size="14.00">StatMove0</text>
</g>
<!-- ExpTemp0 -->
<g id="node16" class="node"><title>ExpTemp0</title>
<ellipse fill="none" stroke="black" cx="175.945" cy="-234" rx="50.0912" ry="18"/>
<text text-anchor="middle" x="175.945" y="-230.3" font-family="Times,serif" font-size="14.00">ExpTemp0</text>
</g>
<!-- StatMove0&#45;&gt;ExpTemp0 -->
<g id="edge11" class="edge"><title>StatMove0&#45;&gt;ExpTemp0</title>
<path fill="none" stroke="black" d="M269.209,-290.326C251.823,-280.012 228.363,-266.095 209.322,-254.8"/>
<polygon fill="black" stroke="black" points="211.036,-251.747 200.649,-249.655 207.464,-257.767 211.036,-251.747"/>
</g>
<!-- ExpTemp1 -->
<g id="node17" class="node"><title>ExpTemp1</title>
<ellipse fill="none" stroke="black" cx="293.945" cy="-234" rx="50.0912" ry="18"/>
<text text-anchor="middle" x="293.945" y="-230.3" font-family="Times,serif" font-size="14.00">ExpTemp1</text>
</g>
<!-- StatMove0&#45;&gt;ExpTemp1 -->
<g id="edge12" class="edge"><title>StatMove0&#45;&gt;ExpTemp1</title>
<path fill="none" stroke="black" d="M293.945,-287.697C293.945,-279.983 293.945,-270.712 293.945,-262.112"/>
<polygon fill="black" stroke="black" points="297.445,-262.104 293.945,-252.104 290.445,-262.104 297.445,-262.104"/>
</g>
<!-- Temp0: T5 -->
<g id="node19" class="node"><title>Temp0: T5</title>
<ellipse fill="none" stroke="black" cx="170.945" cy="-162" rx="50.8918" ry="18"/>
<text text-anchor="middle" x="170.945" y="-158.3" font-family="Times,serif" font-size="14.00">Temp0: T5</text>
</g>
<!-- ExpTemp0&#45;&gt;Temp0: T5 -->
<g id="edge14" class="edge"><title>ExpTemp0&#45;&gt;Temp0: T5</title>
<path fill="none" stroke="black" d="M174.709,-215.697C174.158,-207.983 173.496,-198.712 172.882,-190.112"/>
<polygon fill="black" stroke="black" points="176.371,-189.83 172.167,-180.104 169.388,-190.328 176.371,-189.83"/>
</g>
<!-- Temp1: T1 -->
<g id="node29" class="node"><title>Temp1: T1</title>
<ellipse fill="none" stroke="black" cx="289.945" cy="-162" rx="50.8918" ry="18"/>
<text text-anchor="middle" x="289.945" y="-158.3" font-family="Times,serif" font-size="14.00">Temp1: T1</text>
</g>
<!-- ExpTemp1&#45;&gt;Temp1: T1 -->
<g id="edge25" class="edge"><title>ExpTemp1&#45;&gt;Temp1: T1</title>
<path fill="none" stroke="black" d="M292.956,-215.697C292.516,-207.983 291.986,-198.712 291.494,-190.112"/>
<polygon fill="black" stroke="black" points="294.987,-189.888 290.923,-180.104 287.999,-190.288 294.987,-189.888"/>
</g>
<!-- StatExp0 -->
<g id="node18" class="node"><title>StatExp0</title>
<ellipse fill="none" stroke="black" cx="859.945" cy="-306" rx="42.7926" ry="18"/>
<text text-anchor="middle" x="859.945" y="-302.3" font-family="Times,serif" font-size="14.00">StatExp0</text>
</g>
<!-- StatExp0&#45;&gt;ExpTemp5 -->
<g id="edge13" class="edge"><title>StatExp0&#45;&gt;ExpTemp5</title>
<path fill="none" stroke="black" d="M876.283,-289.116C885.631,-280.027 897.531,-268.458 907.927,-258.351"/>
<polygon fill="black" stroke="black" points="910.442,-260.787 915.172,-251.307 905.563,-255.768 910.442,-260.787"/>
</g>
<!-- StatList0 -->
<g id="node20" class="node"><title>StatList0</title>
<ellipse fill="none" stroke="black" cx="711.945" cy="-378" rx="42.4939" ry="18"/>
<text text-anchor="middle" x="711.945" y="-374.3" font-family="Times,serif" font-size="14.00">StatList0</text>
</g>
<!-- StatList0&#45;&gt;StatMove3 -->
<g id="edge20" class="edge"><title>StatList0&#45;&gt;StatMove3</title>
<path fill="none" stroke="black" d="M750.082,-370.225C820.551,-357.705 971.325,-330.917 1052.15,-316.558"/>
<polygon fill="black" stroke="black" points="1052.89,-319.981 1062.12,-314.786 1051.66,-313.089 1052.89,-319.981"/>
</g>
<!-- StatList0&#45;&gt;StatJump0 -->
<g id="edge21" class="edge"><title>StatList0&#45;&gt;StatJump0</title>
<path fill="none" stroke="black" d="M752.272,-372.509C831.436,-363.643 1012.72,-343.092 1164.95,-324 1188.78,-321.011 1215.09,-317.52 1237.56,-314.481"/>
<polygon fill="black" stroke="black" points="1238.16,-317.933 1247.59,-313.12 1237.21,-310.997 1238.16,-317.933"/>
</g>
<!-- StatList0&#45;&gt;StatMove0 -->
<g id="edge16" class="edge"><title>StatList0&#45;&gt;StatMove0</title>
<path fill="none" stroke="black" d="M673.37,-370.54C598.695,-358.035 434.205,-330.489 348.417,-316.122"/>
<polygon fill="black" stroke="black" points="348.798,-312.637 338.357,-314.437 347.641,-319.541 348.798,-312.637"/>
</g>
<!-- StatList0&#45;&gt;StatExp0 -->
<g id="edge19" class="edge"><title>StatList0&#45;&gt;StatExp0</title>
<path fill="none" stroke="black" d="M739.091,-364.161C762.725,-352.982 797.192,-336.68 823.276,-324.344"/>
<polygon fill="black" stroke="black" points="824.927,-327.434 832.471,-319.995 821.934,-321.106 824.927,-327.434"/>
</g>
<!-- StatLabel0 -->
<g id="node21" class="node"><title>StatLabel0</title>
<ellipse fill="none" stroke="black" cx="115.945" cy="-306" rx="48.9926" ry="18"/>
<text text-anchor="middle" x="115.945" y="-302.3" font-family="Times,serif" font-size="14.00">StatLabel0</text>
</g>
<!-- StatList0&#45;&gt;StatLabel0 -->
<g id="edge15" class="edge"><title>StatList0&#45;&gt;StatLabel0</title>
<path fill="none" stroke="black" d="M671.375,-372.924C589.016,-364.555 396.336,-344.489 234.945,-324 213.781,-321.313 190.543,-318.061 170.263,-315.124"/>
<polygon fill="black" stroke="black" points="170.662,-311.645 160.262,-313.667 169.652,-318.572 170.662,-311.645"/>
</g>
<!-- StatMove1 -->
<g id="node22" class="node"><title>StatMove1</title>
<ellipse fill="none" stroke="black" cx="540.945" cy="-306" rx="50.0912" ry="18"/>
<text text-anchor="middle" x="540.945" y="-302.3" font-family="Times,serif" font-size="14.00">StatMove1</text>
</g>
<!-- StatList0&#45;&gt;StatMove1 -->
<g id="edge17" class="edge"><title>StatList0&#45;&gt;StatMove1</title>
<path fill="none" stroke="black" d="M682.549,-364.967C654.976,-353.679 613.466,-336.687 582.508,-324.014"/>
<polygon fill="black" stroke="black" points="583.439,-320.613 572.858,-320.064 580.787,-327.091 583.439,-320.613"/>
</g>
<!-- StatMove2 -->
<g id="node23" class="node"><title>StatMove2</title>
<ellipse fill="none" stroke="black" cx="711.945" cy="-306" rx="50.0912" ry="18"/>
<text text-anchor="middle" x="711.945" y="-302.3" font-family="Times,serif" font-size="14.00">StatMove2</text>
</g>
<!-- StatList0&#45;&gt;StatMove2 -->
<g id="edge18" class="edge"><title>StatList0&#45;&gt;StatMove2</title>
<path fill="none" stroke="black" d="M711.945,-359.697C711.945,-351.983 711.945,-342.712 711.945,-334.112"/>
<polygon fill="black" stroke="black" points="715.445,-334.104 711.945,-324.104 708.445,-334.104 715.445,-334.104"/>
</g>
<!-- Label0: L50 -->
<g id="node24" class="node"><title>Label0: L50</title>
<ellipse fill="none" stroke="black" cx="53.9452" cy="-234" rx="53.8905" ry="18"/>
<text text-anchor="middle" x="53.9452" y="-230.3" font-family="Times,serif" font-size="14.00">Label0: L50</text>
</g>
<!-- StatLabel0&#45;&gt;Label0: L50 -->
<g id="edge22" class="edge"><title>StatLabel0&#45;&gt;Label0: L50</title>
<path fill="none" stroke="black" d="M101.565,-288.765C93.7748,-279.969 83.996,-268.928 75.3299,-259.144"/>
<polygon fill="black" stroke="black" points="77.9281,-256.799 68.6777,-251.633 72.688,-261.44 77.9281,-256.799"/>
</g>
<!-- ExpConst0 -->
<g id="node25" class="node"><title>ExpConst0</title>
<ellipse fill="none" stroke="black" cx="540.945" cy="-234" rx="50.0912" ry="18"/>
<text text-anchor="middle" x="540.945" y="-230.3" font-family="Times,serif" font-size="14.00">ExpConst0</text>
</g>
<!-- StatMove1&#45;&gt;ExpConst0 -->
<g id="edge28" class="edge"><title>StatMove1&#45;&gt;ExpConst0</title>
<path fill="none" stroke="black" d="M540.945,-287.697C540.945,-279.983 540.945,-270.712 540.945,-262.112"/>
<polygon fill="black" stroke="black" points="544.445,-262.104 540.945,-252.104 537.445,-262.104 544.445,-262.104"/>
</g>
<!-- ExpTemp2 -->
<g id="node31" class="node"><title>ExpTemp2</title>
<ellipse fill="none" stroke="black" cx="415.945" cy="-234" rx="50.0912" ry="18"/>
<text text-anchor="middle" x="415.945" y="-230.3" font-family="Times,serif" font-size="14.00">ExpTemp2</text>
</g>
<!-- StatMove1&#45;&gt;ExpTemp2 -->
<g id="edge27" class="edge"><title>StatMove1&#45;&gt;ExpTemp2</title>
<path fill="none" stroke="black" d="M515.045,-290.496C496.441,-280.078 471.157,-265.919 450.785,-254.51"/>
<polygon fill="black" stroke="black" points="452.247,-251.318 441.812,-249.485 448.827,-257.425 452.247,-251.318"/>
</g>
<!-- StatMove2&#45;&gt;ExpCall0 -->
<g id="edge31" class="edge"><title>StatMove2&#45;&gt;ExpCall0</title>
<path fill="none" stroke="black" d="M730.098,-289.116C740.811,-279.742 754.539,-267.73 766.339,-257.405"/>
<polygon fill="black" stroke="black" points="768.918,-259.799 774.139,-250.58 764.309,-254.531 768.918,-259.799"/>
</g>
<!-- ExpTemp3 -->
<g id="node27" class="node"><title>ExpTemp3</title>
<ellipse fill="none" stroke="black" cx="675.945" cy="-234" rx="50.0912" ry="18"/>
<text text-anchor="middle" x="675.945" y="-230.3" font-family="Times,serif" font-size="14.00">ExpTemp3</text>
</g>
<!-- StatMove2&#45;&gt;ExpTemp3 -->
<g id="edge30" class="edge"><title>StatMove2&#45;&gt;ExpTemp3</title>
<path fill="none" stroke="black" d="M703.231,-288.055C699.03,-279.887 693.9,-269.912 689.226,-260.824"/>
<polygon fill="black" stroke="black" points="692.266,-259.081 684.58,-251.789 686.041,-262.283 692.266,-259.081"/>
</g>
<!-- Value0: 99999 -->
<g id="node26" class="node"><title>Value0: 99999</title>
<ellipse fill="none" stroke="black" cx="540.945" cy="-162" rx="63.0888" ry="18"/>
<text text-anchor="middle" x="540.945" y="-158.3" font-family="Times,serif" font-size="14.00">Value0: 99999</text>
</g>
<!-- ExpConst0&#45;&gt;Value0: 99999 -->
<g id="edge23" class="edge"><title>ExpConst0&#45;&gt;Value0: 99999</title>
<path fill="none" stroke="black" d="M540.945,-215.697C540.945,-207.983 540.945,-198.712 540.945,-190.112"/>
<polygon fill="black" stroke="black" points="544.445,-190.104 540.945,-180.104 537.445,-190.104 544.445,-190.104"/>
</g>
<!-- Temp3: T5 -->
<g id="node28" class="node"><title>Temp3: T5</title>
<ellipse fill="none" stroke="black" cx="672.945" cy="-162" rx="50.8918" ry="18"/>
<text text-anchor="middle" x="672.945" y="-158.3" font-family="Times,serif" font-size="14.00">Temp3: T5</text>
</g>
<!-- ExpTemp3&#45;&gt;Temp3: T5 -->
<g id="edge24" class="edge"><title>ExpTemp3&#45;&gt;Temp3: T5</title>
<path fill="none" stroke="black" d="M675.204,-215.697C674.873,-207.983 674.476,-198.712 674.107,-190.112"/>
<polygon fill="black" stroke="black" points="677.603,-189.945 673.678,-180.104 670.61,-190.245 677.603,-189.945"/>
</g>
<!-- Temp2: T4 -->
<g id="node32" class="node"><title>Temp2: T4</title>
<ellipse fill="none" stroke="black" cx="408.945" cy="-162" rx="50.8918" ry="18"/>
<text text-anchor="middle" x="408.945" y="-158.3" font-family="Times,serif" font-size="14.00">Temp2: T4</text>
</g>
<!-- ExpTemp2&#45;&gt;Temp2: T4 -->
<g id="edge29" class="edge"><title>ExpTemp2&#45;&gt;Temp2: T4</title>
<path fill="none" stroke="black" d="M414.215,-215.697C413.443,-207.983 412.516,-198.712 411.656,-190.112"/>
<polygon fill="black" stroke="black" points="415.133,-189.706 410.656,-180.104 408.168,-190.403 415.133,-189.706"/>
</g>
</g>
</svg>
