<?xml version="1.0" encoding="UTF-8" standalone="no"?>
<!DOCTYPE svg PUBLIC "-//W3C//DTD SVG 1.1//EN"
 "http://www.w3.org/Graphics/SVG/1.1/DTD/svg11.dtd">
<!-- Generated by graphviz version 2.38.0 (20140413.2041)
 -->
<!-- Title: %3 Pages: 1 -->
<svg width="2237pt" height="980pt"
 viewBox="0.00 0.00 2236.99 980.00" xmlns="http://www.w3.org/2000/svg" xmlns:xlink="http://www.w3.org/1999/xlink">
<g id="graph0" class="graph" transform="scale(1 1) rotate(0) translate(4 976)">
<title>%3</title>
<polygon fill="white" stroke="none" points="-4,4 -4,-976 2232.99,-976 2232.99,4 -4,4"/>
<!-- MethDeclList0 -->
<g id="node1" class="node"><title>MethDeclList0</title>
<ellipse fill="none" stroke="black" cx="703.495" cy="-738" rx="64.189" ry="18"/>
<text text-anchor="middle" x="703.495" y="-734.3" font-family="Times,serif" font-size="14.00">MethDeclList0</text>
</g>
<!-- MethDecl0 -->
<g id="node2" class="node"><title>MethDecl0</title>
<ellipse fill="none" stroke="black" cx="772.495" cy="-666" rx="50.8918" ry="18"/>
<text text-anchor="middle" x="772.495" y="-662.3" font-family="Times,serif" font-size="14.00">MethDecl0</text>
</g>
<!-- MethDeclList0&#45;&gt;MethDecl0 -->
<g id="edge1" class="edge"><title>MethDeclList0&#45;&gt;MethDecl0</title>
<path fill="none" stroke="black" d="M719.847,-720.411C728.612,-711.519 739.561,-700.411 749.201,-690.631"/>
<polygon fill="black" stroke="black" points="751.733,-693.049 756.26,-683.47 746.747,-688.135 751.733,-693.049"/>
</g>
<!-- StatList1 -->
<g id="node3" class="node"><title>StatList1</title>
<ellipse fill="none" stroke="black" cx="1102.49" cy="-594" rx="42.4939" ry="18"/>
<text text-anchor="middle" x="1102.49" y="-590.3" font-family="Times,serif" font-size="14.00">StatList1</text>
</g>
<!-- MethDecl0&#45;&gt;StatList1 -->
<g id="edge63" class="edge"><title>MethDecl0&#45;&gt;StatList1</title>
<path fill="none" stroke="black" d="M816.38,-656.847C868.708,-646.965 958.739,-629.46 1035.49,-612 1042.65,-610.371 1050.22,-608.55 1057.59,-606.721"/>
<polygon fill="black" stroke="black" points="1058.61,-610.073 1067.45,-604.24 1056.9,-603.284 1058.61,-610.073"/>
</g>
<!-- VarDeclList1 -->
<g id="node58" class="node"><title>VarDeclList1</title>
<ellipse fill="none" stroke="black" cx="968.495" cy="-594" rx="58.4896" ry="18"/>
<text text-anchor="middle" x="968.495" y="-590.3" font-family="Times,serif" font-size="14.00">VarDeclList1</text>
</g>
<!-- MethDecl0&#45;&gt;VarDeclList1 -->
<g id="edge62" class="edge"><title>MethDecl0&#45;&gt;VarDeclList1</title>
<path fill="none" stroke="black" d="M807.085,-652.647C839.129,-641.202 887.026,-624.096 922.325,-611.489"/>
<polygon fill="black" stroke="black" points="923.684,-614.72 931.924,-608.061 921.329,-608.128 923.684,-614.72"/>
</g>
<!-- AccessModPublic0 -->
<g id="node61" class="node"><title>AccessModPublic0</title>
<ellipse fill="none" stroke="black" cx="443.495" cy="-594" rx="79.0865" ry="18"/>
<text text-anchor="middle" x="443.495" y="-590.3" font-family="Times,serif" font-size="14.00">AccessModPublic0</text>
</g>
<!-- MethDecl0&#45;&gt;AccessModPublic0 -->
<g id="edge58" class="edge"><title>MethDecl0&#45;&gt;AccessModPublic0</title>
<path fill="none" stroke="black" d="M730.157,-655.992C674.114,-644.068 574.732,-622.923 508.974,-608.932"/>
<polygon fill="black" stroke="black" points="509.632,-605.494 499.123,-606.836 508.175,-612.34 509.632,-605.494"/>
</g>
<!-- TypeModInt0 -->
<g id="node62" class="node"><title>TypeModInt0</title>
<ellipse fill="none" stroke="black" cx="600.495" cy="-594" rx="59.5901" ry="18"/>
<text text-anchor="middle" x="600.495" y="-590.3" font-family="Times,serif" font-size="14.00">TypeModInt0</text>
</g>
<!-- MethDecl0&#45;&gt;TypeModInt0 -->
<g id="edge59" class="edge"><title>MethDecl0&#45;&gt;TypeModInt0</title>
<path fill="none" stroke="black" d="M740.546,-651.998C713.37,-640.938 674.085,-624.95 644.034,-612.72"/>
<polygon fill="black" stroke="black" points="645.211,-609.42 634.629,-608.892 642.572,-615.903 645.211,-609.42"/>
</g>
<!-- ExpId5 -->
<g id="node63" class="node"><title>ExpId5</title>
<ellipse fill="none" stroke="black" cx="714.495" cy="-594" rx="36.2938" ry="18"/>
<text text-anchor="middle" x="714.495" y="-590.3" font-family="Times,serif" font-size="14.00">ExpId5</text>
</g>
<!-- MethDecl0&#45;&gt;ExpId5 -->
<g id="edge60" class="edge"><title>MethDecl0&#45;&gt;ExpId5</title>
<path fill="none" stroke="black" d="M758.75,-648.411C751.422,-639.567 742.277,-628.531 734.206,-618.789"/>
<polygon fill="black" stroke="black" points="736.817,-616.455 727.742,-610.988 731.427,-620.921 736.817,-616.455"/>
</g>
<!-- MethArgList0 -->
<g id="node64" class="node"><title>MethArgList0</title>
<ellipse fill="none" stroke="black" cx="830.495" cy="-594" rx="61.99" ry="18"/>
<text text-anchor="middle" x="830.495" y="-590.3" font-family="Times,serif" font-size="14.00">MethArgList0</text>
</g>
<!-- MethDecl0&#45;&gt;MethArgList0 -->
<g id="edge61" class="edge"><title>MethDecl0&#45;&gt;MethArgList0</title>
<path fill="none" stroke="black" d="M786.24,-648.411C793.287,-639.906 802.015,-629.372 809.852,-619.914"/>
<polygon fill="black" stroke="black" points="812.76,-621.89 816.445,-611.956 807.37,-617.423 812.76,-621.89"/>
</g>
<!-- ExpId14 -->
<g id="node65" class="node"><title>ExpId14</title>
<ellipse fill="none" stroke="black" cx="1244.49" cy="-594" rx="40.8928" ry="18"/>
<text text-anchor="middle" x="1244.49" y="-590.3" font-family="Times,serif" font-size="14.00">ExpId14</text>
</g>
<!-- MethDecl0&#45;&gt;ExpId14 -->
<g id="edge64" class="edge"><title>MethDecl0&#45;&gt;ExpId14</title>
<path fill="none" stroke="black" d="M819.524,-659.172C891.571,-650.084 1033.53,-631.539 1153.49,-612 1167.92,-609.651 1183.58,-606.826 1197.77,-604.159"/>
<polygon fill="black" stroke="black" points="1198.64,-607.557 1207.81,-602.254 1197.34,-600.68 1198.64,-607.557"/>
</g>
<!-- StatConditional0 -->
<g id="node4" class="node"><title>StatConditional0</title>
<ellipse fill="none" stroke="black" cx="1117.49" cy="-522" rx="70.3881" ry="18"/>
<text text-anchor="middle" x="1117.49" y="-518.3" font-family="Times,serif" font-size="14.00">StatConditional0</text>
</g>
<!-- StatList1&#45;&gt;StatConditional0 -->
<g id="edge2" class="edge"><title>StatList1&#45;&gt;StatConditional0</title>
<path fill="none" stroke="black" d="M1106.13,-576.055C1107.8,-568.261 1109.82,-558.822 1111.69,-550.079"/>
<polygon fill="black" stroke="black" points="1115.12,-550.787 1113.79,-540.275 1108.28,-549.32 1115.12,-550.787"/>
</g>
<!-- StatAssignId1 -->
<g id="node12" class="node"><title>StatAssignId1</title>
<ellipse fill="none" stroke="black" cx="1580.49" cy="-450" rx="60.3893" ry="18"/>
<text text-anchor="middle" x="1580.49" y="-446.3" font-family="Times,serif" font-size="14.00">StatAssignId1</text>
</g>
<!-- StatConditional0&#45;&gt;StatAssignId1 -->
<g id="edge20" class="edge"><title>StatConditional0&#45;&gt;StatAssignId1</title>
<path fill="none" stroke="black" d="M1168.38,-509.465C1177.71,-507.517 1187.38,-505.608 1196.49,-504 1307.81,-484.369 1438.35,-467.684 1514.98,-458.529"/>
<polygon fill="black" stroke="black" points="1515.45,-461.997 1524.97,-457.341 1514.62,-455.046 1515.45,-461.997"/>
</g>
<!-- StatAssignId0 -->
<g id="node17" class="node"><title>StatAssignId0</title>
<ellipse fill="none" stroke="black" cx="1331.49" cy="-450" rx="60.3893" ry="18"/>
<text text-anchor="middle" x="1331.49" y="-446.3" font-family="Times,serif" font-size="14.00">StatAssignId0</text>
</g>
<!-- StatConditional0&#45;&gt;StatAssignId0 -->
<g id="edge19" class="edge"><title>StatConditional0&#45;&gt;StatAssignId0</title>
<path fill="none" stroke="black" d="M1159.01,-507.42C1194.38,-495.851 1245.26,-479.207 1282.6,-466.995"/>
<polygon fill="black" stroke="black" points="1283.84,-470.269 1292.26,-463.834 1281.67,-463.616 1283.84,-470.269"/>
</g>
<!-- ExpBinary0 -->
<g id="node24" class="node"><title>ExpBinary0</title>
<ellipse fill="none" stroke="black" cx="1117.49" cy="-450" rx="53.0913" ry="18"/>
<text text-anchor="middle" x="1117.49" y="-446.3" font-family="Times,serif" font-size="14.00">ExpBinary0</text>
</g>
<!-- StatConditional0&#45;&gt;ExpBinary0 -->
<g id="edge18" class="edge"><title>StatConditional0&#45;&gt;ExpBinary0</title>
<path fill="none" stroke="black" d="M1117.49,-503.697C1117.49,-495.983 1117.49,-486.712 1117.49,-478.112"/>
<polygon fill="black" stroke="black" points="1120.99,-478.104 1117.49,-468.104 1113.99,-478.104 1120.99,-478.104"/>
</g>
<!-- ExpList1 -->
<g id="node5" class="node"><title>ExpList1</title>
<ellipse fill="none" stroke="black" cx="2043.49" cy="-234" rx="42.7926" ry="18"/>
<text text-anchor="middle" x="2043.49" y="-230.3" font-family="Times,serif" font-size="14.00">ExpList1</text>
</g>
<!-- ExpBinary2 -->
<g id="node6" class="node"><title>ExpBinary2</title>
<ellipse fill="none" stroke="black" cx="2055.49" cy="-162" rx="53.0913" ry="18"/>
<text text-anchor="middle" x="2055.49" y="-158.3" font-family="Times,serif" font-size="14.00">ExpBinary2</text>
</g>
<!-- ExpList1&#45;&gt;ExpBinary2 -->
<g id="edge3" class="edge"><title>ExpList1&#45;&gt;ExpBinary2</title>
<path fill="none" stroke="black" d="M2046.46,-215.697C2047.78,-207.983 2049.37,-198.712 2050.85,-190.112"/>
<polygon fill="black" stroke="black" points="2054.32,-190.552 2052.56,-180.104 2047.42,-189.369 2054.32,-190.552"/>
</g>
<!-- ExpId13 -->
<g id="node7" class="node"><title>ExpId13</title>
<ellipse fill="none" stroke="black" cx="1958.49" cy="-90" rx="40.8928" ry="18"/>
<text text-anchor="middle" x="1958.49" y="-86.3" font-family="Times,serif" font-size="14.00">ExpId13</text>
</g>
<!-- ExpBinary2&#45;&gt;ExpId13 -->
<g id="edge4" class="edge"><title>ExpBinary2&#45;&gt;ExpId13</title>
<path fill="none" stroke="black" d="M2033.97,-145.465C2020.25,-135.566 2002.31,-122.621 1987.37,-111.835"/>
<polygon fill="black" stroke="black" points="1989.12,-108.787 1978.97,-105.773 1985.03,-114.463 1989.12,-108.787"/>
</g>
<!-- Minus0 -->
<g id="node8" class="node"><title>Minus0</title>
<ellipse fill="none" stroke="black" cx="2055.49" cy="-90" rx="38.1938" ry="18"/>
<text text-anchor="middle" x="2055.49" y="-86.3" font-family="Times,serif" font-size="14.00">Minus0</text>
</g>
<!-- ExpBinary2&#45;&gt;Minus0 -->
<g id="edge5" class="edge"><title>ExpBinary2&#45;&gt;Minus0</title>
<path fill="none" stroke="black" d="M2055.49,-143.697C2055.49,-135.983 2055.49,-126.712 2055.49,-118.112"/>
<polygon fill="black" stroke="black" points="2058.99,-118.104 2055.49,-108.104 2051.99,-118.104 2058.99,-118.104"/>
</g>
<!-- ExpNumber3 -->
<g id="node9" class="node"><title>ExpNumber3</title>
<ellipse fill="none" stroke="black" cx="2170.49" cy="-90" rx="58.4896" ry="18"/>
<text text-anchor="middle" x="2170.49" y="-86.3" font-family="Times,serif" font-size="14.00">ExpNumber3</text>
</g>
<!-- ExpBinary2&#45;&gt;ExpNumber3 -->
<g id="edge6" class="edge"><title>ExpBinary2&#45;&gt;ExpNumber3</title>
<path fill="none" stroke="black" d="M2080.17,-145.983C2096.46,-136.063 2118.05,-122.92 2136.04,-111.973"/>
<polygon fill="black" stroke="black" points="2138.35,-114.665 2145.07,-106.476 2134.71,-108.686 2138.35,-114.665"/>
</g>
<!-- Id13: num -->
<g id="node43" class="node"><title>Id13: num</title>
<ellipse fill="none" stroke="black" cx="1958.49" cy="-18" rx="48.1917" ry="18"/>
<text text-anchor="middle" x="1958.49" y="-14.3" font-family="Times,serif" font-size="14.00">Id13: num</text>
</g>
<!-- ExpId13&#45;&gt;Id13: num -->
<g id="edge34" class="edge"><title>ExpId13&#45;&gt;Id13: num</title>
<path fill="none" stroke="black" d="M1958.49,-71.6966C1958.49,-63.9827 1958.49,-54.7125 1958.49,-46.1124"/>
<polygon fill="black" stroke="black" points="1961.99,-46.1043 1958.49,-36.1043 1954.99,-46.1044 1961.99,-46.1043"/>
</g>
<!-- Value3: 1 -->
<g id="node20" class="node"><title>Value3: 1</title>
<ellipse fill="none" stroke="black" cx="2170.49" cy="-18" rx="45.4919" ry="18"/>
<text text-anchor="middle" x="2170.49" y="-14.3" font-family="Times,serif" font-size="14.00">Value3: 1</text>
</g>
<!-- ExpNumber3&#45;&gt;Value3: 1 -->
<g id="edge14" class="edge"><title>ExpNumber3&#45;&gt;Value3: 1</title>
<path fill="none" stroke="black" d="M2170.49,-71.6966C2170.49,-63.9827 2170.49,-54.7125 2170.49,-46.1124"/>
<polygon fill="black" stroke="black" points="2173.99,-46.1043 2170.49,-36.1043 2166.99,-46.1044 2173.99,-46.1043"/>
</g>
<!-- ExpId12 -->
<g id="node10" class="node"><title>ExpId12</title>
<ellipse fill="none" stroke="black" cx="1918.49" cy="-234" rx="40.8928" ry="18"/>
<text text-anchor="middle" x="1918.49" y="-230.3" font-family="Times,serif" font-size="14.00">ExpId12</text>
</g>
<!-- Id12: ComputeFac -->
<g id="node11" class="node"><title>Id12: ComputeFac</title>
<ellipse fill="none" stroke="black" cx="1906.49" cy="-162" rx="77.1866" ry="18"/>
<text text-anchor="middle" x="1906.49" y="-158.3" font-family="Times,serif" font-size="14.00">Id12: ComputeFac</text>
</g>
<!-- ExpId12&#45;&gt;Id12: ComputeFac -->
<g id="edge7" class="edge"><title>ExpId12&#45;&gt;Id12: ComputeFac</title>
<path fill="none" stroke="black" d="M1915.53,-215.697C1914.21,-207.983 1912.62,-198.712 1911.14,-190.112"/>
<polygon fill="black" stroke="black" points="1914.57,-189.369 1909.43,-180.104 1907.67,-190.552 1914.57,-189.369"/>
</g>
<!-- ExpId10 -->
<g id="node13" class="node"><title>ExpId10</title>
<ellipse fill="none" stroke="black" cx="1580.49" cy="-378" rx="40.8928" ry="18"/>
<text text-anchor="middle" x="1580.49" y="-374.3" font-family="Times,serif" font-size="14.00">ExpId10</text>
</g>
<!-- StatAssignId1&#45;&gt;ExpId10 -->
<g id="edge8" class="edge"><title>StatAssignId1&#45;&gt;ExpId10</title>
<path fill="none" stroke="black" d="M1580.49,-431.697C1580.49,-423.983 1580.49,-414.712 1580.49,-406.112"/>
<polygon fill="black" stroke="black" points="1583.99,-406.104 1580.49,-396.104 1576.99,-406.104 1583.99,-406.104"/>
</g>
<!-- ExpBinary1 -->
<g id="node14" class="node"><title>ExpBinary1</title>
<ellipse fill="none" stroke="black" cx="1752.49" cy="-378" rx="53.0913" ry="18"/>
<text text-anchor="middle" x="1752.49" y="-374.3" font-family="Times,serif" font-size="14.00">ExpBinary1</text>
</g>
<!-- StatAssignId1&#45;&gt;ExpBinary1 -->
<g id="edge9" class="edge"><title>StatAssignId1&#45;&gt;ExpBinary1</title>
<path fill="none" stroke="black" d="M1614.89,-435.003C1642.37,-423.819 1681.01,-408.095 1710.34,-396.154"/>
<polygon fill="black" stroke="black" points="1711.97,-399.273 1719.91,-392.262 1709.33,-392.789 1711.97,-399.273"/>
</g>
<!-- Id10: num_aux -->
<g id="node33" class="node"><title>Id10: num_aux</title>
<ellipse fill="none" stroke="black" cx="1580.49" cy="-306" rx="64.9885" ry="18"/>
<text text-anchor="middle" x="1580.49" y="-302.3" font-family="Times,serif" font-size="14.00">Id10: num_aux</text>
</g>
<!-- ExpId10&#45;&gt;Id10: num_aux -->
<g id="edge27" class="edge"><title>ExpId10&#45;&gt;Id10: num_aux</title>
<path fill="none" stroke="black" d="M1580.49,-359.697C1580.49,-351.983 1580.49,-342.712 1580.49,-334.112"/>
<polygon fill="black" stroke="black" points="1583.99,-334.104 1580.49,-324.104 1576.99,-334.104 1583.99,-334.104"/>
</g>
<!-- ExpId11 -->
<g id="node21" class="node"><title>ExpId11</title>
<ellipse fill="none" stroke="black" cx="1704.49" cy="-306" rx="40.8928" ry="18"/>
<text text-anchor="middle" x="1704.49" y="-302.3" font-family="Times,serif" font-size="14.00">ExpId11</text>
</g>
<!-- ExpBinary1&#45;&gt;ExpId11 -->
<g id="edge15" class="edge"><title>ExpBinary1&#45;&gt;ExpId11</title>
<path fill="none" stroke="black" d="M1741.12,-360.411C1735.26,-351.868 1728,-341.278 1721.49,-331.787"/>
<polygon fill="black" stroke="black" points="1724.33,-329.738 1715.79,-323.47 1718.56,-333.697 1724.33,-329.738"/>
</g>
<!-- Times0 -->
<g id="node22" class="node"><title>Times0</title>
<ellipse fill="none" stroke="black" cx="1801.49" cy="-306" rx="37.8943" ry="18"/>
<text text-anchor="middle" x="1801.49" y="-302.3" font-family="Times,serif" font-size="14.00">Times0</text>
</g>
<!-- ExpBinary1&#45;&gt;Times0 -->
<g id="edge16" class="edge"><title>ExpBinary1&#45;&gt;Times0</title>
<path fill="none" stroke="black" d="M1764.11,-360.411C1770.09,-351.868 1777.5,-341.278 1784.14,-331.787"/>
<polygon fill="black" stroke="black" points="1787.1,-333.669 1789.97,-323.47 1781.36,-329.655 1787.1,-333.669"/>
</g>
<!-- ExpMethod1 -->
<g id="node23" class="node"><title>ExpMethod1</title>
<ellipse fill="none" stroke="black" cx="1916.49" cy="-306" rx="57.3905" ry="18"/>
<text text-anchor="middle" x="1916.49" y="-302.3" font-family="Times,serif" font-size="14.00">ExpMethod1</text>
</g>
<!-- ExpBinary1&#45;&gt;ExpMethod1 -->
<g id="edge17" class="edge"><title>ExpBinary1&#45;&gt;ExpMethod1</title>
<path fill="none" stroke="black" d="M1784.12,-363.503C1809.87,-352.51 1846.46,-336.894 1874.64,-324.865"/>
<polygon fill="black" stroke="black" points="1876.03,-328.079 1883.85,-320.934 1873.28,-321.641 1876.03,-328.079"/>
</g>
<!-- ExpNumber2 -->
<g id="node15" class="node"><title>ExpNumber2</title>
<ellipse fill="none" stroke="black" cx="1449.49" cy="-378" rx="58.4896" ry="18"/>
<text text-anchor="middle" x="1449.49" y="-374.3" font-family="Times,serif" font-size="14.00">ExpNumber2</text>
</g>
<!-- Value2: 1 -->
<g id="node16" class="node"><title>Value2: 1</title>
<ellipse fill="none" stroke="black" cx="1452.49" cy="-306" rx="45.4919" ry="18"/>
<text text-anchor="middle" x="1452.49" y="-302.3" font-family="Times,serif" font-size="14.00">Value2: 1</text>
</g>
<!-- ExpNumber2&#45;&gt;Value2: 1 -->
<g id="edge10" class="edge"><title>ExpNumber2&#45;&gt;Value2: 1</title>
<path fill="none" stroke="black" d="M1450.24,-359.697C1450.57,-351.983 1450.96,-342.712 1451.33,-334.112"/>
<polygon fill="black" stroke="black" points="1454.83,-334.245 1451.76,-324.104 1447.84,-333.945 1454.83,-334.245"/>
</g>
<!-- StatAssignId0&#45;&gt;ExpNumber2 -->
<g id="edge12" class="edge"><title>StatAssignId0&#45;&gt;ExpNumber2</title>
<path fill="none" stroke="black" d="M1357.39,-433.638C1374.3,-423.608 1396.57,-410.397 1414.97,-399.478"/>
<polygon fill="black" stroke="black" points="1416.84,-402.438 1423.66,-394.326 1413.27,-396.418 1416.84,-402.438"/>
</g>
<!-- ExpId9 -->
<g id="node18" class="node"><title>ExpId9</title>
<ellipse fill="none" stroke="black" cx="1331.49" cy="-378" rx="36.2938" ry="18"/>
<text text-anchor="middle" x="1331.49" y="-374.3" font-family="Times,serif" font-size="14.00">ExpId9</text>
</g>
<!-- StatAssignId0&#45;&gt;ExpId9 -->
<g id="edge11" class="edge"><title>StatAssignId0&#45;&gt;ExpId9</title>
<path fill="none" stroke="black" d="M1331.49,-431.697C1331.49,-423.983 1331.49,-414.712 1331.49,-406.112"/>
<polygon fill="black" stroke="black" points="1334.99,-406.104 1331.49,-396.104 1327.99,-406.104 1334.99,-406.104"/>
</g>
<!-- Id9: num_aux -->
<g id="node19" class="node"><title>Id9: num_aux</title>
<ellipse fill="none" stroke="black" cx="1328.49" cy="-306" rx="60.3893" ry="18"/>
<text text-anchor="middle" x="1328.49" y="-302.3" font-family="Times,serif" font-size="14.00">Id9: num_aux</text>
</g>
<!-- ExpId9&#45;&gt;Id9: num_aux -->
<g id="edge13" class="edge"><title>ExpId9&#45;&gt;Id9: num_aux</title>
<path fill="none" stroke="black" d="M1330.75,-359.697C1330.42,-351.983 1330.03,-342.712 1329.66,-334.112"/>
<polygon fill="black" stroke="black" points="1333.15,-333.945 1329.23,-324.104 1326.16,-334.245 1333.15,-333.945"/>
</g>
<!-- Id11: num -->
<g id="node57" class="node"><title>Id11: num</title>
<ellipse fill="none" stroke="black" cx="1703.49" cy="-234" rx="48.1917" ry="18"/>
<text text-anchor="middle" x="1703.49" y="-230.3" font-family="Times,serif" font-size="14.00">Id11: num</text>
</g>
<!-- ExpId11&#45;&gt;Id11: num -->
<g id="edge48" class="edge"><title>ExpId11&#45;&gt;Id11: num</title>
<path fill="none" stroke="black" d="M1704.25,-287.697C1704.14,-279.983 1704,-270.712 1703.88,-262.112"/>
<polygon fill="black" stroke="black" points="1707.38,-262.053 1703.74,-252.104 1700.38,-262.153 1707.38,-262.053"/>
</g>
<!-- ExpMethod1&#45;&gt;ExpList1 -->
<g id="edge44" class="edge"><title>ExpMethod1&#45;&gt;ExpList1</title>
<path fill="none" stroke="black" d="M1943.74,-289.983C1963.04,-279.345 1989.06,-265.003 2009.69,-253.634"/>
<polygon fill="black" stroke="black" points="2011.38,-256.696 2018.45,-248.804 2008,-250.566 2011.38,-256.696"/>
</g>
<!-- ExpMethod1&#45;&gt;ExpId12 -->
<g id="edge43" class="edge"><title>ExpMethod1&#45;&gt;ExpId12</title>
<path fill="none" stroke="black" d="M1916.99,-287.697C1917.21,-279.983 1917.47,-270.712 1917.72,-262.112"/>
<polygon fill="black" stroke="black" points="1921.22,-262.2 1918.01,-252.104 1914.22,-262 1921.22,-262.2"/>
</g>
<!-- ExpThis0 -->
<g id="node54" class="node"><title>ExpThis0</title>
<ellipse fill="none" stroke="black" cx="1814.49" cy="-234" rx="44.6926" ry="18"/>
<text text-anchor="middle" x="1814.49" y="-230.3" font-family="Times,serif" font-size="14.00">ExpThis0</text>
</g>
<!-- ExpMethod1&#45;&gt;ExpThis0 -->
<g id="edge42" class="edge"><title>ExpMethod1&#45;&gt;ExpThis0</title>
<path fill="none" stroke="black" d="M1893.86,-289.465C1879.4,-279.541 1860.48,-266.556 1844.74,-255.755"/>
<polygon fill="black" stroke="black" points="1846.59,-252.784 1836.37,-250.011 1842.63,-258.556 1846.59,-252.784"/>
</g>
<!-- ExpNumber1 -->
<g id="node25" class="node"><title>ExpNumber1</title>
<ellipse fill="none" stroke="black" cx="1218.49" cy="-378" rx="58.4896" ry="18"/>
<text text-anchor="middle" x="1218.49" y="-374.3" font-family="Times,serif" font-size="14.00">ExpNumber1</text>
</g>
<!-- ExpBinary0&#45;&gt;ExpNumber1 -->
<g id="edge25" class="edge"><title>ExpBinary0&#45;&gt;ExpNumber1</title>
<path fill="none" stroke="black" d="M1139.91,-433.465C1153.8,-423.835 1171.86,-411.323 1187.16,-400.72"/>
<polygon fill="black" stroke="black" points="1189.57,-403.307 1195.79,-394.734 1185.58,-397.554 1189.57,-403.307"/>
</g>
<!-- ExpId8 -->
<g id="node29" class="node"><title>ExpId8</title>
<ellipse fill="none" stroke="black" cx="1024.49" cy="-378" rx="36.2938" ry="18"/>
<text text-anchor="middle" x="1024.49" y="-374.3" font-family="Times,serif" font-size="14.00">ExpId8</text>
</g>
<!-- ExpBinary0&#45;&gt;ExpId8 -->
<g id="edge23" class="edge"><title>ExpBinary0&#45;&gt;ExpId8</title>
<path fill="none" stroke="black" d="M1096.39,-433.116C1083.13,-423.135 1065.9,-410.162 1051.62,-399.42"/>
<polygon fill="black" stroke="black" points="1053.71,-396.61 1043.62,-393.393 1049.5,-402.203 1053.71,-396.61"/>
</g>
<!-- Less0 -->
<g id="node30" class="node"><title>Less0</title>
<ellipse fill="none" stroke="black" cx="1110.49" cy="-378" rx="31.3957" ry="18"/>
<text text-anchor="middle" x="1110.49" y="-374.3" font-family="Times,serif" font-size="14.00">Less0</text>
</g>
<!-- ExpBinary0&#45;&gt;Less0 -->
<g id="edge24" class="edge"><title>ExpBinary0&#45;&gt;Less0</title>
<path fill="none" stroke="black" d="M1115.76,-431.697C1114.99,-423.983 1114.07,-414.712 1113.21,-406.112"/>
<polygon fill="black" stroke="black" points="1116.68,-405.706 1112.21,-396.104 1109.72,-406.403 1116.68,-405.706"/>
</g>
<!-- Value1: 1 -->
<g id="node26" class="node"><title>Value1: 1</title>
<ellipse fill="none" stroke="black" cx="1204.49" cy="-306" rx="45.4919" ry="18"/>
<text text-anchor="middle" x="1204.49" y="-302.3" font-family="Times,serif" font-size="14.00">Value1: 1</text>
</g>
<!-- ExpNumber1&#45;&gt;Value1: 1 -->
<g id="edge21" class="edge"><title>ExpNumber1&#45;&gt;Value1: 1</title>
<path fill="none" stroke="black" d="M1215.03,-359.697C1213.49,-351.983 1211.64,-342.712 1209.92,-334.112"/>
<polygon fill="black" stroke="black" points="1213.31,-333.224 1207.92,-324.104 1206.44,-334.597 1213.31,-333.224"/>
</g>
<!-- ClassDeclList0 -->
<g id="node27" class="node"><title>ClassDeclList0</title>
<ellipse fill="none" stroke="black" cx="380.495" cy="-882" rx="64.189" ry="18"/>
<text text-anchor="middle" x="380.495" y="-878.3" font-family="Times,serif" font-size="14.00">ClassDeclList0</text>
</g>
<!-- ClassDecl0 -->
<g id="node28" class="node"><title>ClassDecl0</title>
<ellipse fill="none" stroke="black" cx="407.495" cy="-810" rx="50.8918" ry="18"/>
<text text-anchor="middle" x="407.495" y="-806.3" font-family="Times,serif" font-size="14.00">ClassDecl0</text>
</g>
<!-- ClassDeclList0&#45;&gt;ClassDecl0 -->
<g id="edge22" class="edge"><title>ClassDeclList0&#45;&gt;ClassDecl0</title>
<path fill="none" stroke="black" d="M387.031,-864.055C390.07,-856.176 393.757,-846.617 397.16,-837.794"/>
<polygon fill="black" stroke="black" points="400.498,-838.865 400.831,-828.275 393.967,-836.346 400.498,-838.865"/>
</g>
<!-- ClassDecl0&#45;&gt;MethDeclList0 -->
<g id="edge57" class="edge"><title>ClassDecl0&#45;&gt;MethDeclList0</title>
<path fill="none" stroke="black" d="M448.652,-799.267C500.084,-787.104 588.376,-766.224 646.343,-752.516"/>
<polygon fill="black" stroke="black" points="647.16,-755.919 656.086,-750.212 645.549,-749.107 647.16,-755.919"/>
</g>
<!-- ExpId4 -->
<g id="node46" class="node"><title>ExpId4</title>
<ellipse fill="none" stroke="black" cx="385.495" cy="-738" rx="36.2938" ry="18"/>
<text text-anchor="middle" x="385.495" y="-734.3" font-family="Times,serif" font-size="14.00">ExpId4</text>
</g>
<!-- ClassDecl0&#45;&gt;ExpId4 -->
<g id="edge55" class="edge"><title>ClassDecl0&#45;&gt;ExpId4</title>
<path fill="none" stroke="black" d="M402.169,-792.055C399.72,-784.261 396.753,-774.822 394.005,-766.079"/>
<polygon fill="black" stroke="black" points="397.262,-764.766 390.924,-756.275 390.584,-766.865 397.262,-764.766"/>
</g>
<!-- VarDeclList0 -->
<g id="node60" class="node"><title>VarDeclList0</title>
<ellipse fill="none" stroke="black" cx="498.495" cy="-738" rx="58.4896" ry="18"/>
<text text-anchor="middle" x="498.495" y="-734.3" font-family="Times,serif" font-size="14.00">VarDeclList0</text>
</g>
<!-- ClassDecl0&#45;&gt;VarDeclList0 -->
<g id="edge56" class="edge"><title>ClassDecl0&#45;&gt;VarDeclList0</title>
<path fill="none" stroke="black" d="M427.691,-793.465C440.006,-783.992 455.947,-771.729 469.584,-761.239"/>
<polygon fill="black" stroke="black" points="471.932,-763.848 477.725,-754.977 467.664,-758.3 471.932,-763.848"/>
</g>
<!-- Id8: num -->
<g id="node55" class="node"><title>Id8: num</title>
<ellipse fill="none" stroke="black" cx="1024.49" cy="-306" rx="43.5923" ry="18"/>
<text text-anchor="middle" x="1024.49" y="-302.3" font-family="Times,serif" font-size="14.00">Id8: num</text>
</g>
<!-- ExpId8&#45;&gt;Id8: num -->
<g id="edge45" class="edge"><title>ExpId8&#45;&gt;Id8: num</title>
<path fill="none" stroke="black" d="M1024.49,-359.697C1024.49,-351.983 1024.49,-342.712 1024.49,-334.112"/>
<polygon fill="black" stroke="black" points="1027.99,-334.104 1024.49,-324.104 1020.99,-334.104 1027.99,-334.104"/>
</g>
<!-- ExpNumber0 -->
<g id="node31" class="node"><title>ExpNumber0</title>
<ellipse fill="none" stroke="black" cx="355.495" cy="-522" rx="58.4896" ry="18"/>
<text text-anchor="middle" x="355.495" y="-518.3" font-family="Times,serif" font-size="14.00">ExpNumber0</text>
</g>
<!-- Value0: 10 -->
<g id="node32" class="node"><title>Value0: 10</title>
<ellipse fill="none" stroke="black" cx="355.495" cy="-450" rx="50.0912" ry="18"/>
<text text-anchor="middle" x="355.495" y="-446.3" font-family="Times,serif" font-size="14.00">Value0: 10</text>
</g>
<!-- ExpNumber0&#45;&gt;Value0: 10 -->
<g id="edge26" class="edge"><title>ExpNumber0&#45;&gt;Value0: 10</title>
<path fill="none" stroke="black" d="M355.495,-503.697C355.495,-495.983 355.495,-486.712 355.495,-478.112"/>
<polygon fill="black" stroke="black" points="358.995,-478.104 355.495,-468.104 351.995,-478.104 358.995,-478.104"/>
</g>
<!-- StatPrint0 -->
<g id="node34" class="node"><title>StatPrint0</title>
<ellipse fill="none" stroke="black" cx="262.495" cy="-738" rx="46.2923" ry="18"/>
<text text-anchor="middle" x="262.495" y="-734.3" font-family="Times,serif" font-size="14.00">StatPrint0</text>
</g>
<!-- ExpMethod0 -->
<g id="node35" class="node"><title>ExpMethod0</title>
<ellipse fill="none" stroke="black" cx="234.495" cy="-666" rx="57.3905" ry="18"/>
<text text-anchor="middle" x="234.495" y="-662.3" font-family="Times,serif" font-size="14.00">ExpMethod0</text>
</g>
<!-- StatPrint0&#45;&gt;ExpMethod0 -->
<g id="edge28" class="edge"><title>StatPrint0&#45;&gt;ExpMethod0</title>
<path fill="none" stroke="black" d="M255.717,-720.055C252.565,-712.176 248.741,-702.617 245.212,-693.794"/>
<polygon fill="black" stroke="black" points="248.369,-692.26 241.405,-684.275 241.869,-694.86 248.369,-692.26"/>
</g>
<!-- ExpNewId0 -->
<g id="node40" class="node"><title>ExpNewId0</title>
<ellipse fill="none" stroke="black" cx="88.4948" cy="-594" rx="53.0913" ry="18"/>
<text text-anchor="middle" x="88.4948" y="-590.3" font-family="Times,serif" font-size="14.00">ExpNewId0</text>
</g>
<!-- ExpMethod0&#45;&gt;ExpNewId0 -->
<g id="edge52" class="edge"><title>ExpMethod0&#45;&gt;ExpNewId0</title>
<path fill="none" stroke="black" d="M204.244,-650.496C181.975,-639.819 151.513,-625.214 127.428,-613.667"/>
<polygon fill="black" stroke="black" points="128.738,-610.413 118.208,-609.246 125.712,-616.725 128.738,-610.413"/>
</g>
<!-- ExpList0 -->
<g id="node42" class="node"><title>ExpList0</title>
<ellipse fill="none" stroke="black" cx="303.495" cy="-594" rx="42.7926" ry="18"/>
<text text-anchor="middle" x="303.495" y="-590.3" font-family="Times,serif" font-size="14.00">ExpList0</text>
</g>
<!-- ExpMethod0&#45;&gt;ExpList0 -->
<g id="edge54" class="edge"><title>ExpMethod0&#45;&gt;ExpList0</title>
<path fill="none" stroke="black" d="M250.847,-648.411C259.739,-639.39 270.879,-628.088 280.62,-618.207"/>
<polygon fill="black" stroke="black" points="283.208,-620.567 287.735,-610.988 278.222,-615.653 283.208,-620.567"/>
</g>
<!-- ExpId3 -->
<g id="node44" class="node"><title>ExpId3</title>
<ellipse fill="none" stroke="black" cx="206.495" cy="-594" rx="36.2938" ry="18"/>
<text text-anchor="middle" x="206.495" y="-590.3" font-family="Times,serif" font-size="14.00">ExpId3</text>
</g>
<!-- ExpMethod0&#45;&gt;ExpId3 -->
<g id="edge53" class="edge"><title>ExpMethod0&#45;&gt;ExpId3</title>
<path fill="none" stroke="black" d="M227.717,-648.055C224.484,-639.973 220.543,-630.121 216.939,-621.112"/>
<polygon fill="black" stroke="black" points="220.174,-619.774 213.21,-611.789 213.675,-622.374 220.174,-619.774"/>
</g>
<!-- ExpId7 -->
<g id="node36" class="node"><title>ExpId7</title>
<ellipse fill="none" stroke="black" cx="1009.49" cy="-450" rx="36.2938" ry="18"/>
<text text-anchor="middle" x="1009.49" y="-446.3" font-family="Times,serif" font-size="14.00">ExpId7</text>
</g>
<!-- Id7: num_aux -->
<g id="node37" class="node"><title>Id7: num_aux</title>
<ellipse fill="none" stroke="black" cx="909.495" cy="-378" rx="60.3893" ry="18"/>
<text text-anchor="middle" x="909.495" y="-374.3" font-family="Times,serif" font-size="14.00">Id7: num_aux</text>
</g>
<!-- ExpId7&#45;&gt;Id7: num_aux -->
<g id="edge29" class="edge"><title>ExpId7&#45;&gt;Id7: num_aux</title>
<path fill="none" stroke="black" d="M989.258,-434.834C975.294,-425.059 956.459,-411.875 940.599,-400.773"/>
<polygon fill="black" stroke="black" points="942.343,-397.721 932.143,-394.854 938.329,-403.456 942.343,-397.721"/>
</g>
<!-- VarDecl0 -->
<g id="node38" class="node"><title>VarDecl0</title>
<ellipse fill="none" stroke="black" cx="968.495" cy="-522" rx="44.6926" ry="18"/>
<text text-anchor="middle" x="968.495" y="-518.3" font-family="Times,serif" font-size="14.00">VarDecl0</text>
</g>
<!-- VarDecl0&#45;&gt;ExpId7 -->
<g id="edge31" class="edge"><title>VarDecl0&#45;&gt;ExpId7</title>
<path fill="none" stroke="black" d="M978.211,-504.411C983.113,-496.042 989.165,-485.71 994.635,-476.37"/>
<polygon fill="black" stroke="black" points="997.814,-477.868 999.848,-467.47 991.774,-474.33 997.814,-477.868"/>
</g>
<!-- TypeModInt2 -->
<g id="node39" class="node"><title>TypeModInt2</title>
<ellipse fill="none" stroke="black" cx="895.495" cy="-450" rx="59.5901" ry="18"/>
<text text-anchor="middle" x="895.495" y="-446.3" font-family="Times,serif" font-size="14.00">TypeModInt2</text>
</g>
<!-- VarDecl0&#45;&gt;TypeModInt2 -->
<g id="edge30" class="edge"><title>VarDecl0&#45;&gt;TypeModInt2</title>
<path fill="none" stroke="black" d="M951.93,-505.116C942.452,-496.027 930.387,-484.458 919.847,-474.351"/>
<polygon fill="black" stroke="black" points="922.141,-471.702 912.501,-467.307 917.296,-476.754 922.141,-471.702"/>
</g>
<!-- ExpId2 -->
<g id="node41" class="node"><title>ExpId2</title>
<ellipse fill="none" stroke="black" cx="79.4948" cy="-522" rx="36.2938" ry="18"/>
<text text-anchor="middle" x="79.4948" y="-518.3" font-family="Times,serif" font-size="14.00">ExpId2</text>
</g>
<!-- ExpNewId0&#45;&gt;ExpId2 -->
<g id="edge32" class="edge"><title>ExpNewId0&#45;&gt;ExpId2</title>
<path fill="none" stroke="black" d="M86.2701,-575.697C85.2783,-567.983 84.0864,-558.712 82.9807,-550.112"/>
<polygon fill="black" stroke="black" points="86.4407,-549.576 81.6939,-540.104 79.4978,-550.469 86.4407,-549.576"/>
</g>
<!-- Id2: Fac -->
<g id="node56" class="node"><title>Id2: Fac</title>
<ellipse fill="none" stroke="black" cx="79.4948" cy="-450" rx="40.0939" ry="18"/>
<text text-anchor="middle" x="79.4948" y="-446.3" font-family="Times,serif" font-size="14.00">Id2: Fac</text>
</g>
<!-- ExpId2&#45;&gt;Id2: Fac -->
<g id="edge46" class="edge"><title>ExpId2&#45;&gt;Id2: Fac</title>
<path fill="none" stroke="black" d="M79.4948,-503.697C79.4948,-495.983 79.4948,-486.712 79.4948,-478.112"/>
<polygon fill="black" stroke="black" points="82.9949,-478.104 79.4948,-468.104 75.9949,-478.104 82.9949,-478.104"/>
</g>
<!-- ExpList0&#45;&gt;ExpNumber0 -->
<g id="edge33" class="edge"><title>ExpList0&#45;&gt;ExpNumber0</title>
<path fill="none" stroke="black" d="M315.818,-576.411C322.073,-567.992 329.803,-557.585 336.774,-548.201"/>
<polygon fill="black" stroke="black" points="339.745,-550.071 342.899,-539.956 334.126,-545.897 339.745,-550.071"/>
</g>
<!-- Id3: ComputeFac -->
<g id="node45" class="node"><title>Id3: ComputeFac</title>
<ellipse fill="none" stroke="black" cx="206.495" cy="-522" rx="72.5877" ry="18"/>
<text text-anchor="middle" x="206.495" y="-518.3" font-family="Times,serif" font-size="14.00">Id3: ComputeFac</text>
</g>
<!-- ExpId3&#45;&gt;Id3: ComputeFac -->
<g id="edge35" class="edge"><title>ExpId3&#45;&gt;Id3: ComputeFac</title>
<path fill="none" stroke="black" d="M206.495,-575.697C206.495,-567.983 206.495,-558.712 206.495,-550.112"/>
<polygon fill="black" stroke="black" points="209.995,-550.104 206.495,-540.104 202.995,-550.104 209.995,-550.104"/>
</g>
<!-- Id4: Fac -->
<g id="node47" class="node"><title>Id4: Fac</title>
<ellipse fill="none" stroke="black" cx="385.495" cy="-666" rx="40.0939" ry="18"/>
<text text-anchor="middle" x="385.495" y="-662.3" font-family="Times,serif" font-size="14.00">Id4: Fac</text>
</g>
<!-- ExpId4&#45;&gt;Id4: Fac -->
<g id="edge36" class="edge"><title>ExpId4&#45;&gt;Id4: Fac</title>
<path fill="none" stroke="black" d="M385.495,-719.697C385.495,-711.983 385.495,-702.712 385.495,-694.112"/>
<polygon fill="black" stroke="black" points="388.995,-694.104 385.495,-684.104 381.995,-694.104 388.995,-694.104"/>
</g>
<!-- MainClass0 -->
<g id="node48" class="node"><title>MainClass0</title>
<ellipse fill="none" stroke="black" cx="191.495" cy="-882" rx="53.0913" ry="18"/>
<text text-anchor="middle" x="191.495" y="-878.3" font-family="Times,serif" font-size="14.00">MainClass0</text>
</g>
<!-- ExpId0 -->
<g id="node49" class="node"><title>ExpId0</title>
<ellipse fill="none" stroke="black" cx="66.4948" cy="-810" rx="36.2938" ry="18"/>
<text text-anchor="middle" x="66.4948" y="-806.3" font-family="Times,serif" font-size="14.00">ExpId0</text>
</g>
<!-- MainClass0&#45;&gt;ExpId0 -->
<g id="edge37" class="edge"><title>MainClass0&#45;&gt;ExpId0</title>
<path fill="none" stroke="black" d="M165.291,-866.326C145.834,-855.43 119.195,-840.512 98.4819,-828.913"/>
<polygon fill="black" stroke="black" points="100.153,-825.837 89.718,-824.005 96.7329,-831.945 100.153,-825.837"/>
</g>
<!-- ExpId1 -->
<g id="node50" class="node"><title>ExpId1</title>
<ellipse fill="none" stroke="black" cx="165.495" cy="-810" rx="36.2938" ry="18"/>
<text text-anchor="middle" x="165.495" y="-806.3" font-family="Times,serif" font-size="14.00">ExpId1</text>
</g>
<!-- MainClass0&#45;&gt;ExpId1 -->
<g id="edge38" class="edge"><title>MainClass0&#45;&gt;ExpId1</title>
<path fill="none" stroke="black" d="M185.201,-864.055C182.231,-856.059 178.618,-846.331 175.3,-837.4"/>
<polygon fill="black" stroke="black" points="178.494,-835.945 171.731,-827.789 171.932,-838.382 178.494,-835.945"/>
</g>
<!-- StatList0 -->
<g id="node51" class="node"><title>StatList0</title>
<ellipse fill="none" stroke="black" cx="262.495" cy="-810" rx="42.4939" ry="18"/>
<text text-anchor="middle" x="262.495" y="-806.3" font-family="Times,serif" font-size="14.00">StatList0</text>
</g>
<!-- MainClass0&#45;&gt;StatList0 -->
<g id="edge39" class="edge"><title>MainClass0&#45;&gt;StatList0</title>
<path fill="none" stroke="black" d="M207.962,-864.765C217.102,-855.753 228.633,-844.385 238.734,-834.426"/>
<polygon fill="black" stroke="black" points="241.453,-836.66 246.117,-827.147 236.538,-831.676 241.453,-836.66"/>
</g>
<!-- Id0: Factorial -->
<g id="node52" class="node"><title>Id0: Factorial</title>
<ellipse fill="none" stroke="black" cx="58.4948" cy="-738" rx="58.4896" ry="18"/>
<text text-anchor="middle" x="58.4948" y="-734.3" font-family="Times,serif" font-size="14.00">Id0: Factorial</text>
</g>
<!-- ExpId0&#45;&gt;Id0: Factorial -->
<g id="edge40" class="edge"><title>ExpId0&#45;&gt;Id0: Factorial</title>
<path fill="none" stroke="black" d="M64.5173,-791.697C63.6357,-783.983 62.5762,-774.712 61.5934,-766.112"/>
<polygon fill="black" stroke="black" points="65.0625,-765.642 60.4496,-756.104 58.1078,-766.437 65.0625,-765.642"/>
</g>
<!-- Id1: a -->
<g id="node53" class="node"><title>Id1: a</title>
<ellipse fill="none" stroke="black" cx="166.495" cy="-738" rx="31.3957" ry="18"/>
<text text-anchor="middle" x="166.495" y="-734.3" font-family="Times,serif" font-size="14.00">Id1: a</text>
</g>
<!-- ExpId1&#45;&gt;Id1: a -->
<g id="edge41" class="edge"><title>ExpId1&#45;&gt;Id1: a</title>
<path fill="none" stroke="black" d="M165.742,-791.697C165.852,-783.983 165.985,-774.712 166.107,-766.112"/>
<polygon fill="black" stroke="black" points="169.607,-766.153 166.25,-756.104 162.608,-766.053 169.607,-766.153"/>
</g>
<!-- StatList0&#45;&gt;StatPrint0 -->
<g id="edge47" class="edge"><title>StatList0&#45;&gt;StatPrint0</title>
<path fill="none" stroke="black" d="M262.495,-791.697C262.495,-783.983 262.495,-774.712 262.495,-766.112"/>
<polygon fill="black" stroke="black" points="265.995,-766.104 262.495,-756.104 258.995,-766.104 265.995,-766.104"/>
</g>
<!-- VarDeclList1&#45;&gt;VarDecl0 -->
<g id="edge49" class="edge"><title>VarDeclList1&#45;&gt;VarDecl0</title>
<path fill="none" stroke="black" d="M968.495,-575.697C968.495,-567.983 968.495,-558.712 968.495,-550.112"/>
<polygon fill="black" stroke="black" points="971.995,-550.104 968.495,-540.104 964.995,-550.104 971.995,-550.104"/>
</g>
<!-- Program0 -->
<g id="node59" class="node"><title>Program0</title>
<ellipse fill="none" stroke="black" cx="285.495" cy="-954" rx="46.2923" ry="18"/>
<text text-anchor="middle" x="285.495" y="-950.3" font-family="Times,serif" font-size="14.00">Program0</text>
</g>
<!-- Program0&#45;&gt;ClassDeclList0 -->
<g id="edge51" class="edge"><title>Program0&#45;&gt;ClassDeclList0</title>
<path fill="none" stroke="black" d="M306.108,-937.811C319.064,-928.265 335.998,-915.787 350.436,-905.149"/>
<polygon fill="black" stroke="black" points="352.625,-907.883 358.599,-899.134 348.472,-902.248 352.625,-907.883"/>
</g>
<!-- Program0&#45;&gt;MainClass0 -->
<g id="edge50" class="edge"><title>Program0&#45;&gt;MainClass0</title>
<path fill="none" stroke="black" d="M265.098,-937.811C252.099,-928.13 235.05,-915.435 220.635,-904.7"/>
<polygon fill="black" stroke="black" points="222.613,-901.81 212.502,-898.644 218.432,-907.424 222.613,-901.81"/>
</g>
<!-- Id5: ComputeFac -->
<g id="node70" class="node"><title>Id5: ComputeFac</title>
<ellipse fill="none" stroke="black" cx="659.495" cy="-522" rx="72.5877" ry="18"/>
<text text-anchor="middle" x="659.495" y="-518.3" font-family="Times,serif" font-size="14.00">Id5: ComputeFac</text>
</g>
<!-- ExpId5&#45;&gt;Id5: ComputeFac -->
<g id="edge69" class="edge"><title>ExpId5&#45;&gt;Id5: ComputeFac</title>
<path fill="none" stroke="black" d="M701.738,-576.765C695.063,-568.268 686.741,-557.677 679.253,-548.146"/>
<polygon fill="black" stroke="black" points="681.88,-545.825 672.949,-540.124 676.375,-550.15 681.88,-545.825"/>
</g>
<!-- MethArg0 -->
<g id="node66" class="node"><title>MethArg0</title>
<ellipse fill="none" stroke="black" cx="798.495" cy="-522" rx="48.1917" ry="18"/>
<text text-anchor="middle" x="798.495" y="-518.3" font-family="Times,serif" font-size="14.00">MethArg0</text>
</g>
<!-- MethArgList0&#45;&gt;MethArg0 -->
<g id="edge67" class="edge"><title>MethArgList0&#45;&gt;MethArg0</title>
<path fill="none" stroke="black" d="M822.749,-576.055C819.054,-567.973 814.55,-558.121 810.432,-549.112"/>
<polygon fill="black" stroke="black" points="813.511,-547.429 806.17,-539.789 807.144,-550.339 813.511,-547.429"/>
</g>
<!-- Id14: num_aux -->
<g id="node69" class="node"><title>Id14: num_aux</title>
<ellipse fill="none" stroke="black" cx="1270.49" cy="-522" rx="64.9885" ry="18"/>
<text text-anchor="middle" x="1270.49" y="-518.3" font-family="Times,serif" font-size="14.00">Id14: num_aux</text>
</g>
<!-- ExpId14&#45;&gt;Id14: num_aux -->
<g id="edge68" class="edge"><title>ExpId14&#45;&gt;Id14: num_aux</title>
<path fill="none" stroke="black" d="M1250.79,-576.055C1253.72,-568.176 1257.27,-558.617 1260.54,-549.794"/>
<polygon fill="black" stroke="black" points="1263.88,-550.868 1264.08,-540.275 1257.32,-548.431 1263.88,-550.868"/>
</g>
<!-- TypeModInt1 -->
<g id="node67" class="node"><title>TypeModInt1</title>
<ellipse fill="none" stroke="black" cx="667.495" cy="-450" rx="59.5901" ry="18"/>
<text text-anchor="middle" x="667.495" y="-446.3" font-family="Times,serif" font-size="14.00">TypeModInt1</text>
</g>
<!-- MethArg0&#45;&gt;TypeModInt1 -->
<g id="edge65" class="edge"><title>MethArg0&#45;&gt;TypeModInt1</title>
<path fill="none" stroke="black" d="M771.985,-506.834C752.621,-496.488 726.11,-482.321 704.637,-470.847"/>
<polygon fill="black" stroke="black" points="706.248,-467.74 695.779,-466.114 702.949,-473.913 706.248,-467.74"/>
</g>
<!-- ExpId6 -->
<g id="node68" class="node"><title>ExpId6</title>
<ellipse fill="none" stroke="black" cx="781.495" cy="-450" rx="36.2938" ry="18"/>
<text text-anchor="middle" x="781.495" y="-446.3" font-family="Times,serif" font-size="14.00">ExpId6</text>
</g>
<!-- MethArg0&#45;&gt;ExpId6 -->
<g id="edge66" class="edge"><title>MethArg0&#45;&gt;ExpId6</title>
<path fill="none" stroke="black" d="M794.38,-504.055C792.487,-496.261 790.194,-486.822 788.071,-478.079"/>
<polygon fill="black" stroke="black" points="791.451,-477.167 785.69,-468.275 784.649,-478.819 791.451,-477.167"/>
</g>
<!-- Id6: num -->
<g id="node71" class="node"><title>Id6: num</title>
<ellipse fill="none" stroke="black" cx="781.495" cy="-378" rx="43.5923" ry="18"/>
<text text-anchor="middle" x="781.495" y="-374.3" font-family="Times,serif" font-size="14.00">Id6: num</text>
</g>
<!-- ExpId6&#45;&gt;Id6: num -->
<g id="edge70" class="edge"><title>ExpId6&#45;&gt;Id6: num</title>
<path fill="none" stroke="black" d="M781.495,-431.697C781.495,-423.983 781.495,-414.712 781.495,-406.112"/>
<polygon fill="black" stroke="black" points="784.995,-406.104 781.495,-396.104 777.995,-406.104 784.995,-406.104"/>
</g>
</g>
</svg>
