<?xml version="1.0" encoding="UTF-8" standalone="no"?>
<!DOCTYPE svg PUBLIC "-//W3C//DTD SVG 1.1//EN"
 "http://www.w3.org/Graphics/SVG/1.1/DTD/svg11.dtd">
<!-- Generated by graphviz version 2.38.0 (20140413.2041)
 -->
<!-- Title: %3 Pages: 1 -->
<svg width="473pt" height="836pt"
 viewBox="0.00 0.00 473.29 836.00" xmlns="http://www.w3.org/2000/svg" xmlns:xlink="http://www.w3.org/1999/xlink">
<g id="graph0" class="graph" transform="scale(1 1) rotate(0) translate(4 832)">
<title>%3</title>
<polygon fill="white" stroke="none" points="-4,4 -4,-832 469.287,-832 469.287,4 -4,4"/>
<!-- ExpEseq0 -->
<g id="node1" class="node"><title>ExpEseq0</title>
<ellipse fill="none" stroke="black" cx="252.242" cy="-666" rx="46.2923" ry="18"/>
<text text-anchor="middle" x="252.242" y="-662.3" font-family="Times,serif" font-size="14.00">ExpEseq0</text>
</g>
<!-- StatMove0 -->
<g id="node2" class="node"><title>StatMove0</title>
<ellipse fill="none" stroke="black" cx="193.242" cy="-594" rx="50.0912" ry="18"/>
<text text-anchor="middle" x="193.242" y="-590.3" font-family="Times,serif" font-size="14.00">StatMove0</text>
</g>
<!-- ExpEseq0&#45;&gt;StatMove0 -->
<g id="edge1" class="edge"><title>ExpEseq0&#45;&gt;StatMove0</title>
<path fill="none" stroke="black" d="M238.558,-648.765C231.217,-640.056 222.022,-629.147 213.837,-619.435"/>
<polygon fill="black" stroke="black" points="216.382,-617.024 207.261,-611.633 211.03,-621.535 216.382,-617.024"/>
</g>
<!-- ExpTemp3 -->
<g id="node3" class="node"><title>ExpTemp3</title>
<ellipse fill="none" stroke="black" cx="311.242" cy="-594" rx="50.0912" ry="18"/>
<text text-anchor="middle" x="311.242" y="-590.3" font-family="Times,serif" font-size="14.00">ExpTemp3</text>
</g>
<!-- ExpEseq0&#45;&gt;ExpTemp3 -->
<g id="edge2" class="edge"><title>ExpEseq0&#45;&gt;ExpTemp3</title>
<path fill="none" stroke="black" d="M265.926,-648.765C273.266,-640.056 282.461,-629.147 290.646,-619.435"/>
<polygon fill="black" stroke="black" points="293.454,-621.535 297.222,-611.633 288.101,-617.024 293.454,-621.535"/>
</g>
<!-- ExpTemp0 -->
<g id="node10" class="node"><title>ExpTemp0</title>
<ellipse fill="none" stroke="black" cx="80.2416" cy="-522" rx="50.0912" ry="18"/>
<text text-anchor="middle" x="80.2416" y="-518.3" font-family="Times,serif" font-size="14.00">ExpTemp0</text>
</g>
<!-- StatMove0&#45;&gt;ExpTemp0 -->
<g id="edge7" class="edge"><title>StatMove0&#45;&gt;ExpTemp0</title>
<path fill="none" stroke="black" d="M169.277,-578.155C152.947,-568.039 131.117,-554.515 113.159,-543.391"/>
<polygon fill="black" stroke="black" points="114.516,-540.115 104.171,-537.824 110.829,-546.065 114.516,-540.115"/>
</g>
<!-- ExpCall0 -->
<g id="node11" class="node"><title>ExpCall0</title>
<ellipse fill="none" stroke="black" cx="196.242" cy="-522" rx="44.393" ry="18"/>
<text text-anchor="middle" x="196.242" y="-518.3" font-family="Times,serif" font-size="14.00">ExpCall0</text>
</g>
<!-- StatMove0&#45;&gt;ExpCall0 -->
<g id="edge8" class="edge"><title>StatMove0&#45;&gt;ExpCall0</title>
<path fill="none" stroke="black" d="M193.983,-575.697C194.314,-567.983 194.711,-558.712 195.08,-550.112"/>
<polygon fill="black" stroke="black" points="198.577,-550.245 195.509,-540.104 191.584,-549.945 198.577,-550.245"/>
</g>
<!-- Temp3: T2 -->
<g id="node18" class="node"><title>Temp3: T2</title>
<ellipse fill="none" stroke="black" cx="311.242" cy="-522" rx="50.8918" ry="18"/>
<text text-anchor="middle" x="311.242" y="-518.3" font-family="Times,serif" font-size="14.00">Temp3: T2</text>
</g>
<!-- ExpTemp3&#45;&gt;Temp3: T2 -->
<g id="edge14" class="edge"><title>ExpTemp3&#45;&gt;Temp3: T2</title>
<path fill="none" stroke="black" d="M311.242,-575.697C311.242,-567.983 311.242,-558.712 311.242,-550.112"/>
<polygon fill="black" stroke="black" points="314.742,-550.104 311.242,-540.104 307.742,-550.104 314.742,-550.104"/>
</g>
<!-- ExpTemp2 -->
<g id="node4" class="node"><title>ExpTemp2</title>
<ellipse fill="none" stroke="black" cx="374.242" cy="-306" rx="50.0912" ry="18"/>
<text text-anchor="middle" x="374.242" y="-302.3" font-family="Times,serif" font-size="14.00">ExpTemp2</text>
</g>
<!-- Temp2: T1 -->
<g id="node5" class="node"><title>Temp2: T1</title>
<ellipse fill="none" stroke="black" cx="374.242" cy="-234" rx="50.8918" ry="18"/>
<text text-anchor="middle" x="374.242" y="-230.3" font-family="Times,serif" font-size="14.00">Temp2: T1</text>
</g>
<!-- ExpTemp2&#45;&gt;Temp2: T1 -->
<g id="edge3" class="edge"><title>ExpTemp2&#45;&gt;Temp2: T1</title>
<path fill="none" stroke="black" d="M374.242,-287.697C374.242,-279.983 374.242,-270.712 374.242,-262.112"/>
<polygon fill="black" stroke="black" points="377.742,-262.104 374.242,-252.104 370.742,-262.104 377.742,-262.104"/>
</g>
<!-- ExpEseq1 -->
<g id="node6" class="node"><title>ExpEseq1</title>
<ellipse fill="none" stroke="black" cx="315.242" cy="-378" rx="46.2923" ry="18"/>
<text text-anchor="middle" x="315.242" y="-374.3" font-family="Times,serif" font-size="14.00">ExpEseq1</text>
</g>
<!-- ExpEseq1&#45;&gt;ExpTemp2 -->
<g id="edge5" class="edge"><title>ExpEseq1&#45;&gt;ExpTemp2</title>
<path fill="none" stroke="black" d="M328.926,-360.765C336.266,-352.056 345.461,-341.147 353.646,-331.435"/>
<polygon fill="black" stroke="black" points="356.454,-333.535 360.222,-323.633 351.101,-329.024 356.454,-333.535"/>
</g>
<!-- StatMove1 -->
<g id="node7" class="node"><title>StatMove1</title>
<ellipse fill="none" stroke="black" cx="256.242" cy="-306" rx="50.0912" ry="18"/>
<text text-anchor="middle" x="256.242" y="-302.3" font-family="Times,serif" font-size="14.00">StatMove1</text>
</g>
<!-- ExpEseq1&#45;&gt;StatMove1 -->
<g id="edge4" class="edge"><title>ExpEseq1&#45;&gt;StatMove1</title>
<path fill="none" stroke="black" d="M301.558,-360.765C294.217,-352.056 285.022,-341.147 276.837,-331.435"/>
<polygon fill="black" stroke="black" points="279.382,-329.024 270.261,-323.633 274.03,-333.535 279.382,-329.024"/>
</g>
<!-- ExpCall1 -->
<g id="node13" class="node"><title>ExpCall1</title>
<ellipse fill="none" stroke="black" cx="259.242" cy="-234" rx="44.393" ry="18"/>
<text text-anchor="middle" x="259.242" y="-230.3" font-family="Times,serif" font-size="14.00">ExpCall1</text>
</g>
<!-- StatMove1&#45;&gt;ExpCall1 -->
<g id="edge24" class="edge"><title>StatMove1&#45;&gt;ExpCall1</title>
<path fill="none" stroke="black" d="M256.983,-287.697C257.314,-279.983 257.711,-270.712 258.08,-262.112"/>
<polygon fill="black" stroke="black" points="261.577,-262.245 258.509,-252.104 254.584,-261.945 261.577,-262.245"/>
</g>
<!-- ExpTemp1 -->
<g id="node24" class="node"><title>ExpTemp1</title>
<ellipse fill="none" stroke="black" cx="143.242" cy="-234" rx="50.0912" ry="18"/>
<text text-anchor="middle" x="143.242" y="-230.3" font-family="Times,serif" font-size="14.00">ExpTemp1</text>
</g>
<!-- StatMove1&#45;&gt;ExpTemp1 -->
<g id="edge23" class="edge"><title>StatMove1&#45;&gt;ExpTemp1</title>
<path fill="none" stroke="black" d="M232.277,-290.155C215.947,-280.039 194.117,-266.515 176.159,-255.391"/>
<polygon fill="black" stroke="black" points="177.516,-252.115 167.171,-249.824 173.829,-258.065 177.516,-252.115"/>
</g>
<!-- ExpConst0 -->
<g id="node8" class="node"><title>ExpConst0</title>
<ellipse fill="none" stroke="black" cx="415.242" cy="-90" rx="50.0912" ry="18"/>
<text text-anchor="middle" x="415.242" y="-86.3" font-family="Times,serif" font-size="14.00">ExpConst0</text>
</g>
<!-- Value0: 10 -->
<g id="node9" class="node"><title>Value0: 10</title>
<ellipse fill="none" stroke="black" cx="415.242" cy="-18" rx="50.0912" ry="18"/>
<text text-anchor="middle" x="415.242" y="-14.3" font-family="Times,serif" font-size="14.00">Value0: 10</text>
</g>
<!-- ExpConst0&#45;&gt;Value0: 10 -->
<g id="edge6" class="edge"><title>ExpConst0&#45;&gt;Value0: 10</title>
<path fill="none" stroke="black" d="M415.242,-71.6966C415.242,-63.9827 415.242,-54.7125 415.242,-46.1124"/>
<polygon fill="black" stroke="black" points="418.742,-46.1043 415.242,-36.1043 411.742,-46.1044 418.742,-46.1043"/>
</g>
<!-- Temp0: T2 -->
<g id="node17" class="node"><title>Temp0: T2</title>
<ellipse fill="none" stroke="black" cx="77.2416" cy="-450" rx="50.8918" ry="18"/>
<text text-anchor="middle" x="77.2416" y="-446.3" font-family="Times,serif" font-size="14.00">Temp0: T2</text>
</g>
<!-- ExpTemp0&#45;&gt;Temp0: T2 -->
<g id="edge13" class="edge"><title>ExpTemp0&#45;&gt;Temp0: T2</title>
<path fill="none" stroke="black" d="M79.5001,-503.697C79.1695,-495.983 78.7722,-486.712 78.4036,-478.112"/>
<polygon fill="black" stroke="black" points="81.8997,-477.945 77.9747,-468.104 74.9062,-478.245 81.8997,-477.945"/>
</g>
<!-- ExpList0 -->
<g id="node12" class="node"><title>ExpList0</title>
<ellipse fill="none" stroke="black" cx="312.242" cy="-450" rx="42.7926" ry="18"/>
<text text-anchor="middle" x="312.242" y="-446.3" font-family="Times,serif" font-size="14.00">ExpList0</text>
</g>
<!-- ExpCall0&#45;&gt;ExpList0 -->
<g id="edge20" class="edge"><title>ExpCall0&#45;&gt;ExpList0</title>
<path fill="none" stroke="black" d="M219.996,-506.666C237.277,-496.237 260.877,-481.996 279.88,-470.529"/>
<polygon fill="black" stroke="black" points="281.766,-473.479 288.519,-465.315 278.149,-467.485 281.766,-473.479"/>
</g>
<!-- ExpName0 -->
<g id="node22" class="node"><title>ExpName0</title>
<ellipse fill="none" stroke="black" cx="196.242" cy="-450" rx="50.8918" ry="18"/>
<text text-anchor="middle" x="196.242" y="-446.3" font-family="Times,serif" font-size="14.00">ExpName0</text>
</g>
<!-- ExpCall0&#45;&gt;ExpName0 -->
<g id="edge19" class="edge"><title>ExpCall0&#45;&gt;ExpName0</title>
<path fill="none" stroke="black" d="M196.242,-503.697C196.242,-495.983 196.242,-486.712 196.242,-478.112"/>
<polygon fill="black" stroke="black" points="199.742,-478.104 196.242,-468.104 192.742,-478.104 199.742,-478.104"/>
</g>
<!-- ExpList0&#45;&gt;ExpEseq1 -->
<g id="edge9" class="edge"><title>ExpList0&#45;&gt;ExpEseq1</title>
<path fill="none" stroke="black" d="M312.983,-431.697C313.314,-423.983 313.711,-414.712 314.08,-406.112"/>
<polygon fill="black" stroke="black" points="317.577,-406.245 314.509,-396.104 310.584,-405.945 317.577,-406.245"/>
</g>
<!-- ExpName1 -->
<g id="node14" class="node"><title>ExpName1</title>
<ellipse fill="none" stroke="black" cx="259.242" cy="-162" rx="50.8918" ry="18"/>
<text text-anchor="middle" x="259.242" y="-158.3" font-family="Times,serif" font-size="14.00">ExpName1</text>
</g>
<!-- ExpCall1&#45;&gt;ExpName1 -->
<g id="edge10" class="edge"><title>ExpCall1&#45;&gt;ExpName1</title>
<path fill="none" stroke="black" d="M259.242,-215.697C259.242,-207.983 259.242,-198.712 259.242,-190.112"/>
<polygon fill="black" stroke="black" points="262.742,-190.104 259.242,-180.104 255.742,-190.104 262.742,-190.104"/>
</g>
<!-- ExpList1 -->
<g id="node15" class="node"><title>ExpList1</title>
<ellipse fill="none" stroke="black" cx="400.242" cy="-162" rx="42.7926" ry="18"/>
<text text-anchor="middle" x="400.242" y="-158.3" font-family="Times,serif" font-size="14.00">ExpList1</text>
</g>
<!-- ExpCall1&#45;&gt;ExpList1 -->
<g id="edge11" class="edge"><title>ExpCall1&#45;&gt;ExpList1</title>
<path fill="none" stroke="black" d="M286.095,-219.669C308.244,-208.673 339.869,-192.972 364.217,-180.885"/>
<polygon fill="black" stroke="black" points="366.088,-183.863 373.489,-176.282 362.975,-177.593 366.088,-183.863"/>
</g>
<!-- Label2: Fac::ComputeFac -->
<g id="node26" class="node"><title>Label2: Fac::ComputeFac</title>
<ellipse fill="none" stroke="black" cx="244.242" cy="-90" rx="102.882" ry="18"/>
<text text-anchor="middle" x="244.242" y="-86.3" font-family="Times,serif" font-size="14.00">Label2: Fac::ComputeFac</text>
</g>
<!-- ExpName1&#45;&gt;Label2: Fac::ComputeFac -->
<g id="edge25" class="edge"><title>ExpName1&#45;&gt;Label2: Fac::ComputeFac</title>
<path fill="none" stroke="black" d="M255.534,-143.697C253.881,-135.983 251.894,-126.712 250.051,-118.112"/>
<polygon fill="black" stroke="black" points="253.425,-117.149 247.907,-108.104 246.58,-118.616 253.425,-117.149"/>
</g>
<!-- ExpList1&#45;&gt;ExpConst0 -->
<g id="edge22" class="edge"><title>ExpList1&#45;&gt;ExpConst0</title>
<path fill="none" stroke="black" d="M403.873,-144.055C405.543,-136.261 407.566,-126.822 409.439,-118.079"/>
<polygon fill="black" stroke="black" points="412.867,-118.787 411.54,-108.275 406.022,-117.32 412.867,-118.787"/>
</g>
<!-- StatExp0 -->
<g id="node16" class="node"><title>StatExp0</title>
<ellipse fill="none" stroke="black" cx="240.242" cy="-738" rx="42.7926" ry="18"/>
<text text-anchor="middle" x="240.242" y="-734.3" font-family="Times,serif" font-size="14.00">StatExp0</text>
</g>
<!-- StatExp0&#45;&gt;ExpEseq0 -->
<g id="edge12" class="edge"><title>StatExp0&#45;&gt;ExpEseq0</title>
<path fill="none" stroke="black" d="M243.208,-719.697C244.53,-711.983 246.12,-702.712 247.594,-694.112"/>
<polygon fill="black" stroke="black" points="251.069,-694.552 249.309,-684.104 244.17,-693.369 251.069,-694.552"/>
</g>
<!-- StatSeq0 -->
<g id="node19" class="node"><title>StatSeq0</title>
<ellipse fill="none" stroke="black" cx="179.242" cy="-810" rx="42.4939" ry="18"/>
<text text-anchor="middle" x="179.242" y="-806.3" font-family="Times,serif" font-size="14.00">StatSeq0</text>
</g>
<!-- StatSeq0&#45;&gt;StatExp0 -->
<g id="edge16" class="edge"><title>StatSeq0&#45;&gt;StatExp0</title>
<path fill="none" stroke="black" d="M193.39,-792.765C201.166,-783.841 210.955,-772.608 219.572,-762.719"/>
<polygon fill="black" stroke="black" points="222.239,-764.986 226.17,-755.147 216.962,-760.387 222.239,-764.986"/>
</g>
<!-- StatLabel0 -->
<g id="node20" class="node"><title>StatLabel0</title>
<ellipse fill="none" stroke="black" cx="118.242" cy="-738" rx="48.9926" ry="18"/>
<text text-anchor="middle" x="118.242" y="-734.3" font-family="Times,serif" font-size="14.00">StatLabel0</text>
</g>
<!-- StatSeq0&#45;&gt;StatLabel0 -->
<g id="edge15" class="edge"><title>StatSeq0&#45;&gt;StatLabel0</title>
<path fill="none" stroke="black" d="M165.094,-792.765C157.505,-784.056 147.998,-773.147 139.535,-763.435"/>
<polygon fill="black" stroke="black" points="141.945,-760.873 132.736,-755.633 136.668,-765.472 141.945,-760.873"/>
</g>
<!-- Label0: Factorial::main -->
<g id="node21" class="node"><title>Label0: Factorial::main</title>
<ellipse fill="none" stroke="black" cx="94.2416" cy="-666" rx="94.4839" ry="18"/>
<text text-anchor="middle" x="94.2416" y="-662.3" font-family="Times,serif" font-size="14.00">Label0: Factorial::main</text>
</g>
<!-- StatLabel0&#45;&gt;Label0: Factorial::main -->
<g id="edge17" class="edge"><title>StatLabel0&#45;&gt;Label0: Factorial::main</title>
<path fill="none" stroke="black" d="M112.432,-720.055C109.731,-712.176 106.453,-702.617 103.428,-693.794"/>
<polygon fill="black" stroke="black" points="106.719,-692.6 100.165,-684.275 100.097,-694.87 106.719,-692.6"/>
</g>
<!-- Label1: print -->
<g id="node23" class="node"><title>Label1: print</title>
<ellipse fill="none" stroke="black" cx="194.242" cy="-378" rx="56.59" ry="18"/>
<text text-anchor="middle" x="194.242" y="-374.3" font-family="Times,serif" font-size="14.00">Label1: print</text>
</g>
<!-- ExpName0&#45;&gt;Label1: print -->
<g id="edge18" class="edge"><title>ExpName0&#45;&gt;Label1: print</title>
<path fill="none" stroke="black" d="M195.747,-431.697C195.527,-423.983 195.262,-414.712 195.016,-406.112"/>
<polygon fill="black" stroke="black" points="198.515,-406 194.73,-396.104 191.517,-406.2 198.515,-406"/>
</g>
<!-- Temp1: T1 -->
<g id="node25" class="node"><title>Temp1: T1</title>
<ellipse fill="none" stroke="black" cx="140.242" cy="-162" rx="50.8918" ry="18"/>
<text text-anchor="middle" x="140.242" y="-158.3" font-family="Times,serif" font-size="14.00">Temp1: T1</text>
</g>
<!-- ExpTemp1&#45;&gt;Temp1: T1 -->
<g id="edge21" class="edge"><title>ExpTemp1&#45;&gt;Temp1: T1</title>
<path fill="none" stroke="black" d="M142.5,-215.697C142.169,-207.983 141.772,-198.712 141.404,-190.112"/>
<polygon fill="black" stroke="black" points="144.9,-189.945 140.975,-180.104 137.906,-190.245 144.9,-189.945"/>
</g>
</g>
</svg>
