<?xml version="1.0" encoding="UTF-8" standalone="no"?>
<!DOCTYPE svg PUBLIC "-//W3C//DTD SVG 1.1//EN"
 "http://www.w3.org/Graphics/SVG/1.1/DTD/svg11.dtd">
<!-- Generated by graphviz version 2.38.0 (20140413.2041)
 -->
<!-- Title: %3 Pages: 1 -->
<svg width="871pt" height="620pt"
 viewBox="0.00 0.00 871.19 620.00" xmlns="http://www.w3.org/2000/svg" xmlns:xlink="http://www.w3.org/1999/xlink">
<g id="graph0" class="graph" transform="scale(1 1) rotate(0) translate(4 616)">
<title>%3</title>
<polygon fill="white" stroke="none" points="-4,4 -4,-616 867.19,-616 867.19,4 -4,4"/>
<!-- ExpConst2 -->
<g id="node1" class="node"><title>ExpConst2</title>
<ellipse fill="none" stroke="black" cx="812.545" cy="-378" rx="50.0912" ry="18"/>
<text text-anchor="middle" x="812.545" y="-374.3" font-family="Times,serif" font-size="14.00">ExpConst2</text>
</g>
<!-- Value2: 0 -->
<g id="node2" class="node"><title>Value2: 0</title>
<ellipse fill="none" stroke="black" cx="812.545" cy="-306" rx="45.4919" ry="18"/>
<text text-anchor="middle" x="812.545" y="-302.3" font-family="Times,serif" font-size="14.00">Value2: 0</text>
</g>
<!-- ExpConst2&#45;&gt;Value2: 0 -->
<g id="edge1" class="edge"><title>ExpConst2&#45;&gt;Value2: 0</title>
<path fill="none" stroke="black" d="M812.545,-359.697C812.545,-351.983 812.545,-342.712 812.545,-334.112"/>
<polygon fill="black" stroke="black" points="816.045,-334.104 812.545,-324.104 809.045,-334.104 816.045,-334.104"/>
</g>
<!-- ExpTemp2 -->
<g id="node3" class="node"><title>ExpTemp2</title>
<ellipse fill="none" stroke="black" cx="694.545" cy="-378" rx="50.0912" ry="18"/>
<text text-anchor="middle" x="694.545" y="-374.3" font-family="Times,serif" font-size="14.00">ExpTemp2</text>
</g>
<!-- Temp2: $rv -->
<g id="node4" class="node"><title>Temp2: $rv</title>
<ellipse fill="none" stroke="black" cx="695.545" cy="-306" rx="52.7911" ry="18"/>
<text text-anchor="middle" x="695.545" y="-302.3" font-family="Times,serif" font-size="14.00">Temp2: $rv</text>
</g>
<!-- ExpTemp2&#45;&gt;Temp2: $rv -->
<g id="edge2" class="edge"><title>ExpTemp2&#45;&gt;Temp2: $rv</title>
<path fill="none" stroke="black" d="M694.792,-359.697C694.902,-351.983 695.035,-342.712 695.158,-334.112"/>
<polygon fill="black" stroke="black" points="698.657,-334.153 695.301,-324.104 691.658,-334.053 698.657,-334.153"/>
</g>
<!-- ExpTemp1 -->
<g id="node5" class="node"><title>ExpTemp1</title>
<ellipse fill="none" stroke="black" cx="810.545" cy="-90" rx="50.0912" ry="18"/>
<text text-anchor="middle" x="810.545" y="-86.3" font-family="Times,serif" font-size="14.00">ExpTemp1</text>
</g>
<!-- Temp1: $fp -->
<g id="node6" class="node"><title>Temp1: $fp</title>
<ellipse fill="none" stroke="black" cx="810.545" cy="-18" rx="52.7911" ry="18"/>
<text text-anchor="middle" x="810.545" y="-14.3" font-family="Times,serif" font-size="14.00">Temp1: $fp</text>
</g>
<!-- ExpTemp1&#45;&gt;Temp1: $fp -->
<g id="edge3" class="edge"><title>ExpTemp1&#45;&gt;Temp1: $fp</title>
<path fill="none" stroke="black" d="M810.545,-71.6966C810.545,-63.9827 810.545,-54.7125 810.545,-46.1124"/>
<polygon fill="black" stroke="black" points="814.045,-46.1043 810.545,-36.1043 807.045,-46.1044 814.045,-46.1043"/>
</g>
<!-- StatMove0 -->
<g id="node7" class="node"><title>StatMove0</title>
<ellipse fill="none" stroke="black" cx="517.545" cy="-378" rx="50.0912" ry="18"/>
<text text-anchor="middle" x="517.545" y="-374.3" font-family="Times,serif" font-size="14.00">StatMove0</text>
</g>
<!-- ExpMem0 -->
<g id="node8" class="node"><title>ExpMem0</title>
<ellipse fill="none" stroke="black" cx="464.545" cy="-306" rx="48.9926" ry="18"/>
<text text-anchor="middle" x="464.545" y="-302.3" font-family="Times,serif" font-size="14.00">ExpMem0</text>
</g>
<!-- StatMove0&#45;&gt;ExpMem0 -->
<g id="edge4" class="edge"><title>StatMove0&#45;&gt;ExpMem0</title>
<path fill="none" stroke="black" d="M504.985,-360.411C498.45,-351.781 490.335,-341.062 483.093,-331.497"/>
<polygon fill="black" stroke="black" points="485.842,-329.33 477.015,-323.47 480.261,-333.555 485.842,-329.33"/>
</g>
<!-- ExpCall1 -->
<g id="node9" class="node"><title>ExpCall1</title>
<ellipse fill="none" stroke="black" cx="580.545" cy="-306" rx="44.393" ry="18"/>
<text text-anchor="middle" x="580.545" y="-302.3" font-family="Times,serif" font-size="14.00">ExpCall1</text>
</g>
<!-- StatMove0&#45;&gt;ExpCall1 -->
<g id="edge5" class="edge"><title>StatMove0&#45;&gt;ExpCall1</title>
<path fill="none" stroke="black" d="M532.157,-360.765C540.188,-351.841 550.298,-340.608 559.198,-330.719"/>
<polygon fill="black" stroke="black" points="561.924,-332.922 566.012,-323.147 556.721,-328.239 561.924,-332.922"/>
</g>
<!-- ExpBinary0 -->
<g id="node10" class="node"><title>ExpBinary0</title>
<ellipse fill="none" stroke="black" cx="428.545" cy="-234" rx="53.0913" ry="18"/>
<text text-anchor="middle" x="428.545" y="-230.3" font-family="Times,serif" font-size="14.00">ExpBinary0</text>
</g>
<!-- ExpMem0&#45;&gt;ExpBinary0 -->
<g id="edge6" class="edge"><title>ExpMem0&#45;&gt;ExpBinary0</title>
<path fill="none" stroke="black" d="M455.83,-288.055C451.63,-279.887 446.5,-269.912 441.826,-260.824"/>
<polygon fill="black" stroke="black" points="444.865,-259.081 437.179,-251.789 438.64,-262.283 444.865,-259.081"/>
</g>
<!-- ExpList1 -->
<g id="node12" class="node"><title>ExpList1</title>
<ellipse fill="none" stroke="black" cx="782.545" cy="-234" rx="42.7926" ry="18"/>
<text text-anchor="middle" x="782.545" y="-230.3" font-family="Times,serif" font-size="14.00">ExpList1</text>
</g>
<!-- ExpCall1&#45;&gt;ExpList1 -->
<g id="edge25" class="edge"><title>ExpCall1&#45;&gt;ExpList1</title>
<path fill="none" stroke="black" d="M613,-293.753C647.705,-281.727 702.856,-262.615 740.778,-249.474"/>
<polygon fill="black" stroke="black" points="742.202,-252.685 750.504,-246.103 739.91,-246.071 742.202,-252.685"/>
</g>
<!-- ExpName1 -->
<g id="node14" class="node"><title>ExpName1</title>
<ellipse fill="none" stroke="black" cx="616.545" cy="-234" rx="50.8918" ry="18"/>
<text text-anchor="middle" x="616.545" y="-230.3" font-family="Times,serif" font-size="14.00">ExpName1</text>
</g>
<!-- ExpCall1&#45;&gt;ExpName1 -->
<g id="edge24" class="edge"><title>ExpCall1&#45;&gt;ExpName1</title>
<path fill="none" stroke="black" d="M589.26,-288.055C593.46,-279.887 598.59,-269.912 603.264,-260.824"/>
<polygon fill="black" stroke="black" points="606.45,-262.283 607.911,-251.789 600.225,-259.081 606.45,-262.283"/>
</g>
<!-- ExpConst1 -->
<g id="node16" class="node"><title>ExpConst1</title>
<ellipse fill="none" stroke="black" cx="500.545" cy="-162" rx="50.0912" ry="18"/>
<text text-anchor="middle" x="500.545" y="-158.3" font-family="Times,serif" font-size="14.00">ExpConst1</text>
</g>
<!-- ExpBinary0&#45;&gt;ExpConst1 -->
<g id="edge31" class="edge"><title>ExpBinary0&#45;&gt;ExpConst1</title>
<path fill="none" stroke="black" d="M445.244,-216.765C454.604,-207.665 466.435,-196.162 476.75,-186.134"/>
<polygon fill="black" stroke="black" points="479.206,-188.628 483.936,-179.147 474.327,-183.609 479.206,-188.628"/>
</g>
<!-- ExpTemp0 -->
<g id="node30" class="node"><title>ExpTemp0</title>
<ellipse fill="none" stroke="black" cx="302.545" cy="-162" rx="50.0912" ry="18"/>
<text text-anchor="middle" x="302.545" y="-158.3" font-family="Times,serif" font-size="14.00">ExpTemp0</text>
</g>
<!-- ExpBinary0&#45;&gt;ExpTemp0 -->
<g id="edge29" class="edge"><title>ExpBinary0&#45;&gt;ExpTemp0</title>
<path fill="none" stroke="black" d="M402.131,-218.326C383.358,-207.896 357.951,-193.781 337.499,-182.419"/>
<polygon fill="black" stroke="black" points="338.934,-179.212 328.492,-177.415 335.534,-185.331 338.934,-179.212"/>
</g>
<!-- Plus0 -->
<g id="node32" class="node"><title>Plus0</title>
<ellipse fill="none" stroke="black" cx="401.545" cy="-162" rx="30.5947" ry="18"/>
<text text-anchor="middle" x="401.545" y="-158.3" font-family="Times,serif" font-size="14.00">Plus0</text>
</g>
<!-- ExpBinary0&#45;&gt;Plus0 -->
<g id="edge30" class="edge"><title>ExpBinary0&#45;&gt;Plus0</title>
<path fill="none" stroke="black" d="M422.009,-216.055C418.925,-208.059 415.173,-198.331 411.728,-189.4"/>
<polygon fill="black" stroke="black" points="414.885,-187.859 408.021,-179.789 408.354,-190.379 414.885,-187.859"/>
</g>
<!-- StatMove1 -->
<g id="node11" class="node"><title>StatMove1</title>
<ellipse fill="none" stroke="black" cx="694.545" cy="-450" rx="50.0912" ry="18"/>
<text text-anchor="middle" x="694.545" y="-446.3" font-family="Times,serif" font-size="14.00">StatMove1</text>
</g>
<!-- StatMove1&#45;&gt;ExpConst2 -->
<g id="edge8" class="edge"><title>StatMove1&#45;&gt;ExpConst2</title>
<path fill="none" stroke="black" d="M719.282,-434.326C736.667,-424.012 760.127,-410.095 779.168,-398.8"/>
<polygon fill="black" stroke="black" points="781.026,-401.767 787.841,-393.655 777.455,-395.747 781.026,-401.767"/>
</g>
<!-- StatMove1&#45;&gt;ExpTemp2 -->
<g id="edge7" class="edge"><title>StatMove1&#45;&gt;ExpTemp2</title>
<path fill="none" stroke="black" d="M694.545,-431.697C694.545,-423.983 694.545,-414.712 694.545,-406.112"/>
<polygon fill="black" stroke="black" points="698.045,-406.104 694.545,-396.104 691.045,-406.104 698.045,-406.104"/>
</g>
<!-- ExpMem1 -->
<g id="node13" class="node"><title>ExpMem1</title>
<ellipse fill="none" stroke="black" cx="810.545" cy="-162" rx="48.9926" ry="18"/>
<text text-anchor="middle" x="810.545" y="-158.3" font-family="Times,serif" font-size="14.00">ExpMem1</text>
</g>
<!-- ExpList1&#45;&gt;ExpMem1 -->
<g id="edge9" class="edge"><title>ExpList1&#45;&gt;ExpMem1</title>
<path fill="none" stroke="black" d="M789.323,-216.055C792.475,-208.176 796.298,-198.617 799.827,-189.794"/>
<polygon fill="black" stroke="black" points="803.171,-190.86 803.635,-180.275 796.671,-188.26 803.171,-190.86"/>
</g>
<!-- ExpMem1&#45;&gt;ExpTemp1 -->
<g id="edge22" class="edge"><title>ExpMem1&#45;&gt;ExpTemp1</title>
<path fill="none" stroke="black" d="M810.545,-143.697C810.545,-135.983 810.545,-126.712 810.545,-118.112"/>
<polygon fill="black" stroke="black" points="814.045,-118.104 810.545,-108.104 807.045,-118.104 814.045,-118.104"/>
</g>
<!-- Label2: Visitor@visit -->
<g id="node15" class="node"><title>Label2: Visitor@visit</title>
<ellipse fill="none" stroke="black" cx="656.545" cy="-162" rx="87.9851" ry="18"/>
<text text-anchor="middle" x="656.545" y="-158.3" font-family="Times,serif" font-size="14.00">Label2: Visitor@visit</text>
</g>
<!-- ExpName1&#45;&gt;Label2: Visitor@visit -->
<g id="edge10" class="edge"><title>ExpName1&#45;&gt;Label2: Visitor@visit</title>
<path fill="none" stroke="black" d="M626.228,-216.055C630.827,-208.007 636.428,-198.205 641.559,-189.226"/>
<polygon fill="black" stroke="black" points="644.751,-190.694 646.673,-180.275 638.673,-187.221 644.751,-190.694"/>
</g>
<!-- Value1: 12 -->
<g id="node17" class="node"><title>Value1: 12</title>
<ellipse fill="none" stroke="black" cx="500.545" cy="-90" rx="50.0912" ry="18"/>
<text text-anchor="middle" x="500.545" y="-86.3" font-family="Times,serif" font-size="14.00">Value1: 12</text>
</g>
<!-- ExpConst1&#45;&gt;Value1: 12 -->
<g id="edge11" class="edge"><title>ExpConst1&#45;&gt;Value1: 12</title>
<path fill="none" stroke="black" d="M500.545,-143.697C500.545,-135.983 500.545,-126.712 500.545,-118.112"/>
<polygon fill="black" stroke="black" points="504.045,-118.104 500.545,-108.104 497.045,-118.104 504.045,-118.104"/>
</g>
<!-- ExpName0 -->
<g id="node18" class="node"><title>ExpName0</title>
<ellipse fill="none" stroke="black" cx="63.545" cy="-234" rx="50.8918" ry="18"/>
<text text-anchor="middle" x="63.545" y="-230.3" font-family="Times,serif" font-size="14.00">ExpName0</text>
</g>
<!-- Label1: print -->
<g id="node19" class="node"><title>Label1: print</title>
<ellipse fill="none" stroke="black" cx="56.545" cy="-162" rx="56.59" ry="18"/>
<text text-anchor="middle" x="56.545" y="-158.3" font-family="Times,serif" font-size="14.00">Label1: print</text>
</g>
<!-- ExpName0&#45;&gt;Label1: print -->
<g id="edge12" class="edge"><title>ExpName0&#45;&gt;Label1: print</title>
<path fill="none" stroke="black" d="M61.8146,-215.697C61.0433,-207.983 60.1162,-198.712 59.2562,-190.112"/>
<polygon fill="black" stroke="black" points="62.7332,-189.706 58.2554,-180.104 55.7679,-190.403 62.7332,-189.706"/>
</g>
<!-- StatSeq0 -->
<g id="node20" class="node"><title>StatSeq0</title>
<ellipse fill="none" stroke="black" cx="453.545" cy="-594" rx="42.4939" ry="18"/>
<text text-anchor="middle" x="453.545" y="-590.3" font-family="Times,serif" font-size="14.00">StatSeq0</text>
</g>
<!-- StatLabel0 -->
<g id="node21" class="node"><title>StatLabel0</title>
<ellipse fill="none" stroke="black" cx="389.545" cy="-522" rx="48.9926" ry="18"/>
<text text-anchor="middle" x="389.545" y="-518.3" font-family="Times,serif" font-size="14.00">StatLabel0</text>
</g>
<!-- StatSeq0&#45;&gt;StatLabel0 -->
<g id="edge13" class="edge"><title>StatSeq0&#45;&gt;StatLabel0</title>
<path fill="none" stroke="black" d="M438.701,-576.765C430.659,-567.969 420.565,-556.928 411.62,-547.144"/>
<polygon fill="black" stroke="black" points="414.083,-544.652 404.753,-539.633 408.917,-549.375 414.083,-544.652"/>
</g>
<!-- StatSeq1 -->
<g id="node22" class="node"><title>StatSeq1</title>
<ellipse fill="none" stroke="black" cx="517.545" cy="-522" rx="42.4939" ry="18"/>
<text text-anchor="middle" x="517.545" y="-518.3" font-family="Times,serif" font-size="14.00">StatSeq1</text>
</g>
<!-- StatSeq0&#45;&gt;StatSeq1 -->
<g id="edge14" class="edge"><title>StatSeq0&#45;&gt;StatSeq1</title>
<path fill="none" stroke="black" d="M468.389,-576.765C476.547,-567.841 486.818,-556.608 495.859,-546.719"/>
<polygon fill="black" stroke="black" points="498.617,-548.889 502.782,-539.147 493.451,-544.166 498.617,-548.889"/>
</g>
<!-- Label0: Tree@accept -->
<g id="node27" class="node"><title>Label0: Tree@accept</title>
<ellipse fill="none" stroke="black" cx="370.545" cy="-450" rx="87.1846" ry="18"/>
<text text-anchor="middle" x="370.545" y="-446.3" font-family="Times,serif" font-size="14.00">Label0: Tree@accept</text>
</g>
<!-- StatLabel0&#45;&gt;Label0: Tree@accept -->
<g id="edge21" class="edge"><title>StatLabel0&#45;&gt;Label0: Tree@accept</title>
<path fill="none" stroke="black" d="M384.946,-504.055C382.83,-496.261 380.268,-486.822 377.895,-478.079"/>
<polygon fill="black" stroke="black" points="381.231,-477.009 375.234,-468.275 374.476,-478.843 381.231,-477.009"/>
</g>
<!-- StatSeq1&#45;&gt;StatMove1 -->
<g id="edge16" class="edge"><title>StatSeq1&#45;&gt;StatMove1</title>
<path fill="none" stroke="black" d="M547.571,-509.125C576.442,-497.708 620.341,-480.346 652.647,-467.57"/>
<polygon fill="black" stroke="black" points="654.26,-470.696 662.272,-463.763 651.685,-464.186 654.26,-470.696"/>
</g>
<!-- StatSeq2 -->
<g id="node23" class="node"><title>StatSeq2</title>
<ellipse fill="none" stroke="black" cx="517.545" cy="-450" rx="42.4939" ry="18"/>
<text text-anchor="middle" x="517.545" y="-446.3" font-family="Times,serif" font-size="14.00">StatSeq2</text>
</g>
<!-- StatSeq1&#45;&gt;StatSeq2 -->
<g id="edge15" class="edge"><title>StatSeq1&#45;&gt;StatSeq2</title>
<path fill="none" stroke="black" d="M517.545,-503.697C517.545,-495.983 517.545,-486.712 517.545,-478.112"/>
<polygon fill="black" stroke="black" points="521.045,-478.104 517.545,-468.104 514.045,-478.104 521.045,-478.104"/>
</g>
<!-- StatSeq2&#45;&gt;StatMove0 -->
<g id="edge20" class="edge"><title>StatSeq2&#45;&gt;StatMove0</title>
<path fill="none" stroke="black" d="M517.545,-431.697C517.545,-423.983 517.545,-414.712 517.545,-406.112"/>
<polygon fill="black" stroke="black" points="521.045,-406.104 517.545,-396.104 514.045,-406.104 521.045,-406.104"/>
</g>
<!-- StatExp0 -->
<g id="node26" class="node"><title>StatExp0</title>
<ellipse fill="none" stroke="black" cx="353.545" cy="-378" rx="42.7926" ry="18"/>
<text text-anchor="middle" x="353.545" y="-374.3" font-family="Times,serif" font-size="14.00">StatExp0</text>
</g>
<!-- StatSeq2&#45;&gt;StatExp0 -->
<g id="edge19" class="edge"><title>StatSeq2&#45;&gt;StatExp0</title>
<path fill="none" stroke="black" d="M488.603,-436.647C461.752,-425.186 421.601,-408.048 392.053,-395.436"/>
<polygon fill="black" stroke="black" points="393.045,-392.054 382.473,-391.347 390.297,-398.492 393.045,-392.054"/>
</g>
<!-- ExpCall0 -->
<g id="node24" class="node"><title>ExpCall0</title>
<ellipse fill="none" stroke="black" cx="181.545" cy="-306" rx="44.393" ry="18"/>
<text text-anchor="middle" x="181.545" y="-302.3" font-family="Times,serif" font-size="14.00">ExpCall0</text>
</g>
<!-- ExpCall0&#45;&gt;ExpName0 -->
<g id="edge17" class="edge"><title>ExpCall0&#45;&gt;ExpName0</title>
<path fill="none" stroke="black" d="M157.666,-290.834C140.341,-280.557 116.664,-266.511 97.3925,-255.079"/>
<polygon fill="black" stroke="black" points="98.9966,-251.961 88.6103,-249.869 95.4252,-257.982 98.9966,-251.961"/>
</g>
<!-- ExpList0 -->
<g id="node25" class="node"><title>ExpList0</title>
<ellipse fill="none" stroke="black" cx="181.545" cy="-234" rx="42.7926" ry="18"/>
<text text-anchor="middle" x="181.545" y="-230.3" font-family="Times,serif" font-size="14.00">ExpList0</text>
</g>
<!-- ExpCall0&#45;&gt;ExpList0 -->
<g id="edge18" class="edge"><title>ExpCall0&#45;&gt;ExpList0</title>
<path fill="none" stroke="black" d="M181.545,-287.697C181.545,-279.983 181.545,-270.712 181.545,-262.112"/>
<polygon fill="black" stroke="black" points="185.045,-262.104 181.545,-252.104 178.045,-262.104 185.045,-262.104"/>
</g>
<!-- ExpConst0 -->
<g id="node28" class="node"><title>ExpConst0</title>
<ellipse fill="none" stroke="black" cx="181.545" cy="-162" rx="50.0912" ry="18"/>
<text text-anchor="middle" x="181.545" y="-158.3" font-family="Times,serif" font-size="14.00">ExpConst0</text>
</g>
<!-- ExpList0&#45;&gt;ExpConst0 -->
<g id="edge26" class="edge"><title>ExpList0&#45;&gt;ExpConst0</title>
<path fill="none" stroke="black" d="M181.545,-215.697C181.545,-207.983 181.545,-198.712 181.545,-190.112"/>
<polygon fill="black" stroke="black" points="185.045,-190.104 181.545,-180.104 178.045,-190.104 185.045,-190.104"/>
</g>
<!-- StatExp0&#45;&gt;ExpCall0 -->
<g id="edge27" class="edge"><title>StatExp0&#45;&gt;ExpCall0</title>
<path fill="none" stroke="black" d="M323.585,-364.807C295.15,-353.234 252.237,-335.77 221.022,-323.066"/>
<polygon fill="black" stroke="black" points="222.321,-319.816 211.739,-319.288 219.682,-326.3 222.321,-319.816"/>
</g>
<!-- Value0: 333 -->
<g id="node29" class="node"><title>Value0: 333</title>
<ellipse fill="none" stroke="black" cx="179.545" cy="-90" rx="53.8905" ry="18"/>
<text text-anchor="middle" x="179.545" y="-86.3" font-family="Times,serif" font-size="14.00">Value0: 333</text>
</g>
<!-- ExpConst0&#45;&gt;Value0: 333 -->
<g id="edge23" class="edge"><title>ExpConst0&#45;&gt;Value0: 333</title>
<path fill="none" stroke="black" d="M181.051,-143.697C180.83,-135.983 180.565,-126.712 180.32,-118.112"/>
<polygon fill="black" stroke="black" points="183.818,-118 180.034,-108.104 176.821,-118.2 183.818,-118"/>
</g>
<!-- Temp0: $fp -->
<g id="node31" class="node"><title>Temp0: $fp</title>
<ellipse fill="none" stroke="black" cx="304.545" cy="-90" rx="52.7911" ry="18"/>
<text text-anchor="middle" x="304.545" y="-86.3" font-family="Times,serif" font-size="14.00">Temp0: $fp</text>
</g>
<!-- ExpTemp0&#45;&gt;Temp0: $fp -->
<g id="edge28" class="edge"><title>ExpTemp0&#45;&gt;Temp0: $fp</title>
<path fill="none" stroke="black" d="M303.039,-143.697C303.26,-135.983 303.525,-126.712 303.77,-118.112"/>
<polygon fill="black" stroke="black" points="307.269,-118.2 304.056,-108.104 300.272,-118 307.269,-118.2"/>
</g>
</g>
</svg>
