<?xml version="1.0" encoding="UTF-8" standalone="no"?>
<!DOCTYPE svg PUBLIC "-//W3C//DTD SVG 1.1//EN"
 "http://www.w3.org/Graphics/SVG/1.1/DTD/svg11.dtd">
<!-- Generated by graphviz version 2.38.0 (20140413.2041)
 -->
<!-- Title: %3 Pages: 1 -->
<svg width="530pt" height="548pt"
 viewBox="0.00 0.00 529.99 548.00" xmlns="http://www.w3.org/2000/svg" xmlns:xlink="http://www.w3.org/1999/xlink">
<g id="graph0" class="graph" transform="scale(1 1) rotate(0) translate(4 544)">
<title>%3</title>
<polygon fill="white" stroke="none" points="-4,4 -4,-544 525.987,-544 525.987,4 -4,4"/>
<!-- StatMove0 -->
<g id="node1" class="node"><title>StatMove0</title>
<ellipse fill="none" stroke="black" cx="253.942" cy="-450" rx="50.0912" ry="18"/>
<text text-anchor="middle" x="253.942" y="-446.3" font-family="Times,serif" font-size="14.00">StatMove0</text>
</g>
<!-- ExpTemp0 -->
<g id="node2" class="node"><title>ExpTemp0</title>
<ellipse fill="none" stroke="black" cx="253.942" cy="-378" rx="50.0912" ry="18"/>
<text text-anchor="middle" x="253.942" y="-374.3" font-family="Times,serif" font-size="14.00">ExpTemp0</text>
</g>
<!-- StatMove0&#45;&gt;ExpTemp0 -->
<g id="edge1" class="edge"><title>StatMove0&#45;&gt;ExpTemp0</title>
<path fill="none" stroke="black" d="M253.942,-431.697C253.942,-423.983 253.942,-414.712 253.942,-406.112"/>
<polygon fill="black" stroke="black" points="257.442,-406.104 253.942,-396.104 250.442,-406.104 257.442,-406.104"/>
</g>
<!-- ExpMem0 -->
<g id="node3" class="node"><title>ExpMem0</title>
<ellipse fill="none" stroke="black" cx="375.942" cy="-378" rx="48.9926" ry="18"/>
<text text-anchor="middle" x="375.942" y="-374.3" font-family="Times,serif" font-size="14.00">ExpMem0</text>
</g>
<!-- StatMove0&#45;&gt;ExpMem0 -->
<g id="edge2" class="edge"><title>StatMove0&#45;&gt;ExpMem0</title>
<path fill="none" stroke="black" d="M279.517,-434.326C297.573,-423.965 321.967,-409.969 341.701,-398.646"/>
<polygon fill="black" stroke="black" points="343.468,-401.668 350.4,-393.655 339.985,-395.596 343.468,-401.668"/>
</g>
<!-- Temp0: T11 -->
<g id="node9" class="node"><title>Temp0: T11</title>
<ellipse fill="none" stroke="black" cx="251.942" cy="-306" rx="55.4913" ry="18"/>
<text text-anchor="middle" x="251.942" y="-302.3" font-family="Times,serif" font-size="14.00">Temp0: T11</text>
</g>
<!-- ExpTemp0&#45;&gt;Temp0: T11 -->
<g id="edge7" class="edge"><title>ExpTemp0&#45;&gt;Temp0: T11</title>
<path fill="none" stroke="black" d="M253.447,-359.697C253.227,-351.983 252.962,-342.712 252.716,-334.112"/>
<polygon fill="black" stroke="black" points="256.215,-334 252.43,-324.104 249.218,-334.2 256.215,-334"/>
</g>
<!-- ExpBinary0 -->
<g id="node4" class="node"><title>ExpBinary0</title>
<ellipse fill="none" stroke="black" cx="378.942" cy="-306" rx="53.0913" ry="18"/>
<text text-anchor="middle" x="378.942" y="-302.3" font-family="Times,serif" font-size="14.00">ExpBinary0</text>
</g>
<!-- ExpMem0&#45;&gt;ExpBinary0 -->
<g id="edge12" class="edge"><title>ExpMem0&#45;&gt;ExpBinary0</title>
<path fill="none" stroke="black" d="M376.683,-359.697C377.014,-351.983 377.411,-342.712 377.78,-334.112"/>
<polygon fill="black" stroke="black" points="381.277,-334.245 378.209,-324.104 374.284,-333.945 381.277,-334.245"/>
</g>
<!-- ExpMem1 -->
<g id="node5" class="node"><title>ExpMem1</title>
<ellipse fill="none" stroke="black" cx="281.942" cy="-234" rx="48.9926" ry="18"/>
<text text-anchor="middle" x="281.942" y="-230.3" font-family="Times,serif" font-size="14.00">ExpMem1</text>
</g>
<!-- ExpBinary0&#45;&gt;ExpMem1 -->
<g id="edge3" class="edge"><title>ExpBinary0&#45;&gt;ExpMem1</title>
<path fill="none" stroke="black" d="M357.414,-289.465C343.884,-279.7 326.246,-266.972 311.424,-256.276"/>
<polygon fill="black" stroke="black" points="313.232,-253.265 303.075,-250.251 309.136,-258.941 313.232,-253.265"/>
</g>
<!-- Plus1 -->
<g id="node6" class="node"><title>Plus1</title>
<ellipse fill="none" stroke="black" cx="378.942" cy="-234" rx="30.5947" ry="18"/>
<text text-anchor="middle" x="378.942" y="-230.3" font-family="Times,serif" font-size="14.00">Plus1</text>
</g>
<!-- ExpBinary0&#45;&gt;Plus1 -->
<g id="edge4" class="edge"><title>ExpBinary0&#45;&gt;Plus1</title>
<path fill="none" stroke="black" d="M378.942,-287.697C378.942,-279.983 378.942,-270.712 378.942,-262.112"/>
<polygon fill="black" stroke="black" points="382.442,-262.104 378.942,-252.104 375.442,-262.104 382.442,-262.104"/>
</g>
<!-- ExpCall1 -->
<g id="node7" class="node"><title>ExpCall1</title>
<ellipse fill="none" stroke="black" cx="471.942" cy="-234" rx="44.393" ry="18"/>
<text text-anchor="middle" x="471.942" y="-230.3" font-family="Times,serif" font-size="14.00">ExpCall1</text>
</g>
<!-- ExpBinary0&#45;&gt;ExpCall1 -->
<g id="edge5" class="edge"><title>ExpBinary0&#45;&gt;ExpCall1</title>
<path fill="none" stroke="black" d="M400.045,-289.116C412.915,-279.429 429.53,-266.923 443.545,-256.374"/>
<polygon fill="black" stroke="black" points="445.994,-258.912 451.878,-250.101 441.784,-253.319 445.994,-258.912"/>
</g>
<!-- ExpBinary1 -->
<g id="node15" class="node"><title>ExpBinary1</title>
<ellipse fill="none" stroke="black" cx="281.942" cy="-162" rx="53.0913" ry="18"/>
<text text-anchor="middle" x="281.942" y="-158.3" font-family="Times,serif" font-size="14.00">ExpBinary1</text>
</g>
<!-- ExpMem1&#45;&gt;ExpBinary1 -->
<g id="edge17" class="edge"><title>ExpMem1&#45;&gt;ExpBinary1</title>
<path fill="none" stroke="black" d="M281.942,-215.697C281.942,-207.983 281.942,-198.712 281.942,-190.112"/>
<polygon fill="black" stroke="black" points="285.442,-190.104 281.942,-180.104 278.442,-190.104 285.442,-190.104"/>
</g>
<!-- Value1: 20 -->
<g id="node8" class="node"><title>Value1: 20</title>
<ellipse fill="none" stroke="black" cx="471.942" cy="-162" rx="50.0912" ry="18"/>
<text text-anchor="middle" x="471.942" y="-158.3" font-family="Times,serif" font-size="14.00">Value1: 20</text>
</g>
<!-- ExpCall1&#45;&gt;Value1: 20 -->
<g id="edge6" class="edge"><title>ExpCall1&#45;&gt;Value1: 20</title>
<path fill="none" stroke="black" d="M471.942,-215.697C471.942,-207.983 471.942,-198.712 471.942,-190.112"/>
<polygon fill="black" stroke="black" points="475.442,-190.104 471.942,-180.104 468.442,-190.104 475.442,-190.104"/>
</g>
<!-- StatSeq0 -->
<g id="node10" class="node"><title>StatSeq0</title>
<ellipse fill="none" stroke="black" cx="183.942" cy="-522" rx="42.4939" ry="18"/>
<text text-anchor="middle" x="183.942" y="-518.3" font-family="Times,serif" font-size="14.00">StatSeq0</text>
</g>
<!-- StatSeq0&#45;&gt;StatMove0 -->
<g id="edge9" class="edge"><title>StatSeq0&#45;&gt;StatMove0</title>
<path fill="none" stroke="black" d="M199.826,-505.116C208.826,-496.116 220.259,-484.682 230.296,-474.646"/>
<polygon fill="black" stroke="black" points="233.039,-476.853 237.635,-467.307 228.089,-471.903 233.039,-476.853"/>
</g>
<!-- StatLabel0 -->
<g id="node11" class="node"><title>StatLabel0</title>
<ellipse fill="none" stroke="black" cx="114.942" cy="-450" rx="48.9926" ry="18"/>
<text text-anchor="middle" x="114.942" y="-446.3" font-family="Times,serif" font-size="14.00">StatLabel0</text>
</g>
<!-- StatSeq0&#45;&gt;StatLabel0 -->
<g id="edge8" class="edge"><title>StatSeq0&#45;&gt;StatLabel0</title>
<path fill="none" stroke="black" d="M168.285,-505.116C159.413,-496.116 148.143,-484.682 138.25,-474.646"/>
<polygon fill="black" stroke="black" points="140.528,-471.972 131.016,-467.307 135.543,-476.886 140.528,-471.972"/>
</g>
<!-- Label0: Tree::GetRight -->
<g id="node12" class="node"><title>Label0: Tree::GetRight</title>
<ellipse fill="none" stroke="black" cx="92.9418" cy="-378" rx="92.8835" ry="18"/>
<text text-anchor="middle" x="92.9418" y="-374.3" font-family="Times,serif" font-size="14.00">Label0: Tree::GetRight</text>
</g>
<!-- StatLabel0&#45;&gt;Label0: Tree::GetRight -->
<g id="edge10" class="edge"><title>StatLabel0&#45;&gt;Label0: Tree::GetRight</title>
<path fill="none" stroke="black" d="M109.616,-432.055C107.167,-424.261 104.2,-414.822 101.452,-406.079"/>
<polygon fill="black" stroke="black" points="104.708,-404.766 98.3711,-396.275 98.0305,-406.865 104.708,-404.766"/>
</g>
<!-- ExpTemp1 -->
<g id="node13" class="node"><title>ExpTemp1</title>
<ellipse fill="none" stroke="black" cx="182.942" cy="-90" rx="50.0912" ry="18"/>
<text text-anchor="middle" x="182.942" y="-86.3" font-family="Times,serif" font-size="14.00">ExpTemp1</text>
</g>
<!-- Temp1: T10 -->
<g id="node14" class="node"><title>Temp1: T10</title>
<ellipse fill="none" stroke="black" cx="182.942" cy="-18" rx="55.4913" ry="18"/>
<text text-anchor="middle" x="182.942" y="-14.3" font-family="Times,serif" font-size="14.00">Temp1: T10</text>
</g>
<!-- ExpTemp1&#45;&gt;Temp1: T10 -->
<g id="edge11" class="edge"><title>ExpTemp1&#45;&gt;Temp1: T10</title>
<path fill="none" stroke="black" d="M182.942,-71.6966C182.942,-63.9827 182.942,-54.7125 182.942,-46.1124"/>
<polygon fill="black" stroke="black" points="186.442,-46.1043 182.942,-36.1043 179.442,-46.1044 186.442,-46.1043"/>
</g>
<!-- ExpBinary1&#45;&gt;ExpTemp1 -->
<g id="edge13" class="edge"><title>ExpBinary1&#45;&gt;ExpTemp1</title>
<path fill="none" stroke="black" d="M259.97,-145.465C246.161,-135.7 228.16,-122.972 213.032,-112.276"/>
<polygon fill="black" stroke="black" points="214.697,-109.167 204.511,-106.251 210.655,-114.882 214.697,-109.167"/>
</g>
<!-- Plus0 -->
<g id="node16" class="node"><title>Plus0</title>
<ellipse fill="none" stroke="black" cx="281.942" cy="-90" rx="30.5947" ry="18"/>
<text text-anchor="middle" x="281.942" y="-86.3" font-family="Times,serif" font-size="14.00">Plus0</text>
</g>
<!-- ExpBinary1&#45;&gt;Plus0 -->
<g id="edge14" class="edge"><title>ExpBinary1&#45;&gt;Plus0</title>
<path fill="none" stroke="black" d="M281.942,-143.697C281.942,-135.983 281.942,-126.712 281.942,-118.112"/>
<polygon fill="black" stroke="black" points="285.442,-118.104 281.942,-108.104 278.442,-118.104 285.442,-118.104"/>
</g>
<!-- ExpCall0 -->
<g id="node17" class="node"><title>ExpCall0</title>
<ellipse fill="none" stroke="black" cx="374.942" cy="-90" rx="44.393" ry="18"/>
<text text-anchor="middle" x="374.942" y="-86.3" font-family="Times,serif" font-size="14.00">ExpCall0</text>
</g>
<!-- ExpBinary1&#45;&gt;ExpCall0 -->
<g id="edge15" class="edge"><title>ExpBinary1&#45;&gt;ExpCall0</title>
<path fill="none" stroke="black" d="M303.045,-145.116C315.915,-135.429 332.53,-122.923 346.545,-112.374"/>
<polygon fill="black" stroke="black" points="348.994,-114.912 354.878,-106.101 344.784,-109.319 348.994,-114.912"/>
</g>
<!-- Value0: 0 -->
<g id="node18" class="node"><title>Value0: 0</title>
<ellipse fill="none" stroke="black" cx="374.942" cy="-18" rx="45.4919" ry="18"/>
<text text-anchor="middle" x="374.942" y="-14.3" font-family="Times,serif" font-size="14.00">Value0: 0</text>
</g>
<!-- ExpCall0&#45;&gt;Value0: 0 -->
<g id="edge16" class="edge"><title>ExpCall0&#45;&gt;Value0: 0</title>
<path fill="none" stroke="black" d="M374.942,-71.6966C374.942,-63.9827 374.942,-54.7125 374.942,-46.1124"/>
<polygon fill="black" stroke="black" points="378.442,-46.1043 374.942,-36.1043 371.442,-46.1044 378.442,-46.1043"/>
</g>
</g>
</svg>
