<?xml version="1.0" encoding="UTF-8" standalone="no"?>
<!DOCTYPE svg PUBLIC "-//W3C//DTD SVG 1.1//EN"
 "http://www.w3.org/Graphics/SVG/1.1/DTD/svg11.dtd">
<!-- Generated by graphviz version 2.38.0 (20140413.2041)
 -->
<!-- Title: %3 Pages: 1 -->
<svg width="934pt" height="620pt"
 viewBox="0.00 0.00 934.04 620.00" xmlns="http://www.w3.org/2000/svg" xmlns:xlink="http://www.w3.org/1999/xlink">
<g id="graph0" class="graph" transform="scale(1 1) rotate(0) translate(4 616)">
<title>%3</title>
<polygon fill="white" stroke="none" points="-4,4 -4,-616 930.041,-616 930.041,4 -4,4"/>
<!-- ExpTemp0 -->
<g id="node1" class="node"><title>ExpTemp0</title>
<ellipse fill="none" stroke="black" cx="292.545" cy="-162" rx="50.0912" ry="18"/>
<text text-anchor="middle" x="292.545" y="-158.3" font-family="Times,serif" font-size="14.00">ExpTemp0</text>
</g>
<!-- Temp0: FP -->
<g id="node2" class="node"><title>Temp0: FP</title>
<ellipse fill="none" stroke="black" cx="295.545" cy="-90" rx="50.8918" ry="18"/>
<text text-anchor="middle" x="295.545" y="-86.3" font-family="Times,serif" font-size="14.00">Temp0: FP</text>
</g>
<!-- ExpTemp0&#45;&gt;Temp0: FP -->
<g id="edge1" class="edge"><title>ExpTemp0&#45;&gt;Temp0: FP</title>
<path fill="none" stroke="black" d="M293.287,-143.697C293.617,-135.983 294.014,-126.712 294.383,-118.112"/>
<polygon fill="black" stroke="black" points="297.88,-118.245 294.812,-108.104 290.887,-117.945 297.88,-118.245"/>
</g>
<!-- ExpList0 -->
<g id="node3" class="node"><title>ExpList0</title>
<ellipse fill="none" stroke="black" cx="175.545" cy="-234" rx="42.7926" ry="18"/>
<text text-anchor="middle" x="175.545" y="-230.3" font-family="Times,serif" font-size="14.00">ExpList0</text>
</g>
<!-- ExpCall1 -->
<g id="node4" class="node"><title>ExpCall1</title>
<ellipse fill="none" stroke="black" cx="175.545" cy="-162" rx="44.393" ry="18"/>
<text text-anchor="middle" x="175.545" y="-158.3" font-family="Times,serif" font-size="14.00">ExpCall1</text>
</g>
<!-- ExpList0&#45;&gt;ExpCall1 -->
<g id="edge2" class="edge"><title>ExpList0&#45;&gt;ExpCall1</title>
<path fill="none" stroke="black" d="M175.545,-215.697C175.545,-207.983 175.545,-198.712 175.545,-190.112"/>
<polygon fill="black" stroke="black" points="179.045,-190.104 175.545,-180.104 172.045,-190.104 179.045,-190.104"/>
</g>
<!-- Value0: 333 -->
<g id="node5" class="node"><title>Value0: 333</title>
<ellipse fill="none" stroke="black" cx="172.545" cy="-90" rx="53.8905" ry="18"/>
<text text-anchor="middle" x="172.545" y="-86.3" font-family="Times,serif" font-size="14.00">Value0: 333</text>
</g>
<!-- ExpCall1&#45;&gt;Value0: 333 -->
<g id="edge3" class="edge"><title>ExpCall1&#45;&gt;Value0: 333</title>
<path fill="none" stroke="black" d="M174.803,-143.697C174.473,-135.983 174.076,-126.712 173.707,-118.112"/>
<polygon fill="black" stroke="black" points="177.203,-117.945 173.278,-108.104 170.21,-118.245 177.203,-117.945"/>
</g>
<!-- ExpBinary0 -->
<g id="node6" class="node"><title>ExpBinary0</title>
<ellipse fill="none" stroke="black" cx="417.545" cy="-234" rx="53.0913" ry="18"/>
<text text-anchor="middle" x="417.545" y="-230.3" font-family="Times,serif" font-size="14.00">ExpBinary0</text>
</g>
<!-- ExpBinary0&#45;&gt;ExpTemp0 -->
<g id="edge4" class="edge"><title>ExpBinary0&#45;&gt;ExpTemp0</title>
<path fill="none" stroke="black" d="M391.341,-218.326C372.841,-207.965 347.847,-193.969 327.628,-182.646"/>
<polygon fill="black" stroke="black" points="329.15,-179.487 318.715,-177.655 325.73,-185.595 329.15,-179.487"/>
</g>
<!-- Plus0 -->
<g id="node7" class="node"><title>Plus0</title>
<ellipse fill="none" stroke="black" cx="391.545" cy="-162" rx="30.5947" ry="18"/>
<text text-anchor="middle" x="391.545" y="-158.3" font-family="Times,serif" font-size="14.00">Plus0</text>
</g>
<!-- ExpBinary0&#45;&gt;Plus0 -->
<g id="edge5" class="edge"><title>ExpBinary0&#45;&gt;Plus0</title>
<path fill="none" stroke="black" d="M411.251,-216.055C408.281,-208.059 404.668,-198.331 401.351,-189.4"/>
<polygon fill="black" stroke="black" points="404.544,-187.945 397.781,-179.789 397.982,-190.382 404.544,-187.945"/>
</g>
<!-- ExpCall2 -->
<g id="node8" class="node"><title>ExpCall2</title>
<ellipse fill="none" stroke="black" cx="484.545" cy="-162" rx="44.393" ry="18"/>
<text text-anchor="middle" x="484.545" y="-158.3" font-family="Times,serif" font-size="14.00">ExpCall2</text>
</g>
<!-- ExpBinary0&#45;&gt;ExpCall2 -->
<g id="edge6" class="edge"><title>ExpBinary0&#45;&gt;ExpCall2</title>
<path fill="none" stroke="black" d="M433.085,-216.765C441.71,-207.753 452.591,-196.385 462.123,-186.426"/>
<polygon fill="black" stroke="black" points="464.704,-188.792 469.09,-179.147 459.647,-183.951 464.704,-188.792"/>
</g>
<!-- Value1: 12 -->
<g id="node19" class="node"><title>Value1: 12</title>
<ellipse fill="none" stroke="black" cx="484.545" cy="-90" rx="50.0912" ry="18"/>
<text text-anchor="middle" x="484.545" y="-86.3" font-family="Times,serif" font-size="14.00">Value1: 12</text>
</g>
<!-- ExpCall2&#45;&gt;Value1: 12 -->
<g id="edge15" class="edge"><title>ExpCall2&#45;&gt;Value1: 12</title>
<path fill="none" stroke="black" d="M484.545,-143.697C484.545,-135.983 484.545,-126.712 484.545,-118.112"/>
<polygon fill="black" stroke="black" points="488.045,-118.104 484.545,-108.104 481.045,-118.104 488.045,-118.104"/>
</g>
<!-- StatLabel0 -->
<g id="node9" class="node"><title>StatLabel0</title>
<ellipse fill="none" stroke="black" cx="378.545" cy="-522" rx="48.9926" ry="18"/>
<text text-anchor="middle" x="378.545" y="-518.3" font-family="Times,serif" font-size="14.00">StatLabel0</text>
</g>
<!-- Label0: Tree::accept -->
<g id="node10" class="node"><title>Label0: Tree::accept</title>
<ellipse fill="none" stroke="black" cx="361.545" cy="-450" rx="83.3857" ry="18"/>
<text text-anchor="middle" x="361.545" y="-446.3" font-family="Times,serif" font-size="14.00">Label0: Tree::accept</text>
</g>
<!-- StatLabel0&#45;&gt;Label0: Tree::accept -->
<g id="edge7" class="edge"><title>StatLabel0&#45;&gt;Label0: Tree::accept</title>
<path fill="none" stroke="black" d="M374.43,-504.055C372.537,-496.261 370.245,-486.822 368.121,-478.079"/>
<polygon fill="black" stroke="black" points="371.502,-477.167 365.74,-468.275 364.699,-478.819 371.502,-477.167"/>
</g>
<!-- StatSeq2 -->
<g id="node11" class="node"><title>StatSeq2</title>
<ellipse fill="none" stroke="black" cx="504.545" cy="-450" rx="42.4939" ry="18"/>
<text text-anchor="middle" x="504.545" y="-446.3" font-family="Times,serif" font-size="14.00">StatSeq2</text>
</g>
<!-- StatExp0 -->
<g id="node12" class="node"><title>StatExp0</title>
<ellipse fill="none" stroke="black" cx="343.545" cy="-378" rx="42.7926" ry="18"/>
<text text-anchor="middle" x="343.545" y="-374.3" font-family="Times,serif" font-size="14.00">StatExp0</text>
</g>
<!-- StatSeq2&#45;&gt;StatExp0 -->
<g id="edge8" class="edge"><title>StatSeq2&#45;&gt;StatExp0</title>
<path fill="none" stroke="black" d="M476.132,-436.647C449.854,-425.221 410.599,-408.154 381.617,-395.553"/>
<polygon fill="black" stroke="black" points="382.782,-392.243 372.215,-391.465 379.991,-398.662 382.782,-392.243"/>
</g>
<!-- StatMove0 -->
<g id="node13" class="node"><title>StatMove0</title>
<ellipse fill="none" stroke="black" cx="504.545" cy="-378" rx="50.0912" ry="18"/>
<text text-anchor="middle" x="504.545" y="-374.3" font-family="Times,serif" font-size="14.00">StatMove0</text>
</g>
<!-- StatSeq2&#45;&gt;StatMove0 -->
<g id="edge9" class="edge"><title>StatSeq2&#45;&gt;StatMove0</title>
<path fill="none" stroke="black" d="M504.545,-431.697C504.545,-423.983 504.545,-414.712 504.545,-406.112"/>
<polygon fill="black" stroke="black" points="508.045,-406.104 504.545,-396.104 501.045,-406.104 508.045,-406.104"/>
</g>
<!-- ExpCall0 -->
<g id="node14" class="node"><title>ExpCall0</title>
<ellipse fill="none" stroke="black" cx="175.545" cy="-306" rx="44.393" ry="18"/>
<text text-anchor="middle" x="175.545" y="-302.3" font-family="Times,serif" font-size="14.00">ExpCall0</text>
</g>
<!-- StatExp0&#45;&gt;ExpCall0 -->
<g id="edge32" class="edge"><title>StatExp0&#45;&gt;ExpCall0</title>
<path fill="none" stroke="black" d="M314.282,-364.807C286.712,-353.32 245.209,-336.027 214.779,-323.348"/>
<polygon fill="black" stroke="black" points="215.897,-320.022 205.32,-319.406 213.205,-326.483 215.897,-320.022"/>
</g>
<!-- ExpMem0 -->
<g id="node20" class="node"><title>ExpMem0</title>
<ellipse fill="none" stroke="black" cx="449.545" cy="-306" rx="48.9926" ry="18"/>
<text text-anchor="middle" x="449.545" y="-302.3" font-family="Times,serif" font-size="14.00">ExpMem0</text>
</g>
<!-- StatMove0&#45;&gt;ExpMem0 -->
<g id="edge16" class="edge"><title>StatMove0&#45;&gt;ExpMem0</title>
<path fill="none" stroke="black" d="M491.511,-360.411C484.73,-351.781 476.308,-341.062 468.793,-331.497"/>
<polygon fill="black" stroke="black" points="471.416,-329.171 462.486,-323.47 465.912,-333.496 471.416,-329.171"/>
</g>
<!-- ExpCall3 -->
<g id="node21" class="node"><title>ExpCall3</title>
<ellipse fill="none" stroke="black" cx="565.545" cy="-306" rx="44.393" ry="18"/>
<text text-anchor="middle" x="565.545" y="-302.3" font-family="Times,serif" font-size="14.00">ExpCall3</text>
</g>
<!-- StatMove0&#45;&gt;ExpCall3 -->
<g id="edge17" class="edge"><title>StatMove0&#45;&gt;ExpCall3</title>
<path fill="none" stroke="black" d="M519.001,-360.411C526.598,-351.693 536.051,-340.845 544.45,-331.208"/>
<polygon fill="black" stroke="black" points="547.261,-333.309 551.193,-323.47 541.984,-328.71 547.261,-333.309"/>
</g>
<!-- ExpCall0&#45;&gt;ExpList0 -->
<g id="edge11" class="edge"><title>ExpCall0&#45;&gt;ExpList0</title>
<path fill="none" stroke="black" d="M175.545,-287.697C175.545,-279.983 175.545,-270.712 175.545,-262.112"/>
<polygon fill="black" stroke="black" points="179.045,-262.104 175.545,-252.104 172.045,-262.104 179.045,-262.104"/>
</g>
<!-- ExpName0 -->
<g id="node15" class="node"><title>ExpName0</title>
<ellipse fill="none" stroke="black" cx="60.545" cy="-234" rx="50.8918" ry="18"/>
<text text-anchor="middle" x="60.545" y="-230.3" font-family="Times,serif" font-size="14.00">ExpName0</text>
</g>
<!-- ExpCall0&#45;&gt;ExpName0 -->
<g id="edge10" class="edge"><title>ExpCall0&#45;&gt;ExpName0</title>
<path fill="none" stroke="black" d="M151.996,-290.666C135.167,-280.422 112.294,-266.499 93.633,-255.141"/>
<polygon fill="black" stroke="black" points="95.2174,-252.008 84.8555,-249.798 91.5777,-257.987 95.2174,-252.008"/>
</g>
<!-- Label1: print -->
<g id="node18" class="node"><title>Label1: print</title>
<ellipse fill="none" stroke="black" cx="56.545" cy="-162" rx="56.59" ry="18"/>
<text text-anchor="middle" x="56.545" y="-158.3" font-family="Times,serif" font-size="14.00">Label1: print</text>
</g>
<!-- ExpName0&#45;&gt;Label1: print -->
<g id="edge14" class="edge"><title>ExpName0&#45;&gt;Label1: print</title>
<path fill="none" stroke="black" d="M59.5562,-215.697C59.1154,-207.983 58.5857,-198.712 58.0943,-190.112"/>
<polygon fill="black" stroke="black" points="61.5873,-189.888 57.5224,-180.104 54.5987,-190.288 61.5873,-189.888"/>
</g>
<!-- StatSeq1 -->
<g id="node16" class="node"><title>StatSeq1</title>
<ellipse fill="none" stroke="black" cx="504.545" cy="-522" rx="42.4939" ry="18"/>
<text text-anchor="middle" x="504.545" y="-518.3" font-family="Times,serif" font-size="14.00">StatSeq1</text>
</g>
<!-- StatSeq1&#45;&gt;StatSeq2 -->
<g id="edge12" class="edge"><title>StatSeq1&#45;&gt;StatSeq2</title>
<path fill="none" stroke="black" d="M504.545,-503.697C504.545,-495.983 504.545,-486.712 504.545,-478.112"/>
<polygon fill="black" stroke="black" points="508.045,-478.104 504.545,-468.104 501.045,-478.104 508.045,-478.104"/>
</g>
<!-- StatMove1 -->
<g id="node17" class="node"><title>StatMove1</title>
<ellipse fill="none" stroke="black" cx="693.545" cy="-450" rx="50.0912" ry="18"/>
<text text-anchor="middle" x="693.545" y="-446.3" font-family="Times,serif" font-size="14.00">StatMove1</text>
</g>
<!-- StatSeq1&#45;&gt;StatMove1 -->
<g id="edge13" class="edge"><title>StatSeq1&#45;&gt;StatMove1</title>
<path fill="none" stroke="black" d="M535.332,-509.597C566.597,-498.018 615.278,-479.988 650.385,-466.985"/>
<polygon fill="black" stroke="black" points="651.739,-470.216 659.901,-463.461 649.308,-463.652 651.739,-470.216"/>
</g>
<!-- ExpTemp2 -->
<g id="node29" class="node"><title>ExpTemp2</title>
<ellipse fill="none" stroke="black" cx="693.545" cy="-378" rx="50.0912" ry="18"/>
<text text-anchor="middle" x="693.545" y="-374.3" font-family="Times,serif" font-size="14.00">ExpTemp2</text>
</g>
<!-- StatMove1&#45;&gt;ExpTemp2 -->
<g id="edge24" class="edge"><title>StatMove1&#45;&gt;ExpTemp2</title>
<path fill="none" stroke="black" d="M693.545,-431.697C693.545,-423.983 693.545,-414.712 693.545,-406.112"/>
<polygon fill="black" stroke="black" points="697.045,-406.104 693.545,-396.104 690.045,-406.104 697.045,-406.104"/>
</g>
<!-- ExpCall5 -->
<g id="node30" class="node"><title>ExpCall5</title>
<ellipse fill="none" stroke="black" cx="813.545" cy="-378" rx="44.393" ry="18"/>
<text text-anchor="middle" x="813.545" y="-374.3" font-family="Times,serif" font-size="14.00">ExpCall5</text>
</g>
<!-- StatMove1&#45;&gt;ExpCall5 -->
<g id="edge25" class="edge"><title>StatMove1&#45;&gt;ExpCall5</title>
<path fill="none" stroke="black" d="M718.701,-434.326C736.619,-423.874 760.881,-409.721 780.38,-398.346"/>
<polygon fill="black" stroke="black" points="782.368,-401.239 789.242,-393.177 778.841,-395.192 782.368,-401.239"/>
</g>
<!-- ExpMem0&#45;&gt;ExpBinary0 -->
<g id="edge22" class="edge"><title>ExpMem0&#45;&gt;ExpBinary0</title>
<path fill="none" stroke="black" d="M441.799,-288.055C438.158,-280.091 433.733,-270.411 429.664,-261.51"/>
<polygon fill="black" stroke="black" points="432.783,-259.915 425.442,-252.275 426.417,-262.825 432.783,-259.915"/>
</g>
<!-- ExpName1 -->
<g id="node26" class="node"><title>ExpName1</title>
<ellipse fill="none" stroke="black" cx="598.545" cy="-234" rx="50.8918" ry="18"/>
<text text-anchor="middle" x="598.545" y="-230.3" font-family="Times,serif" font-size="14.00">ExpName1</text>
</g>
<!-- ExpCall3&#45;&gt;ExpName1 -->
<g id="edge28" class="edge"><title>ExpCall3&#45;&gt;ExpName1</title>
<path fill="none" stroke="black" d="M573.533,-288.055C577.344,-279.973 581.988,-270.121 586.235,-261.112"/>
<polygon fill="black" stroke="black" points="589.532,-262.327 590.63,-251.789 583.2,-259.342 589.532,-262.327"/>
</g>
<!-- ExpList1 -->
<g id="node28" class="node"><title>ExpList1</title>
<ellipse fill="none" stroke="black" cx="761.545" cy="-234" rx="42.7926" ry="18"/>
<text text-anchor="middle" x="761.545" y="-230.3" font-family="Times,serif" font-size="14.00">ExpList1</text>
</g>
<!-- ExpCall3&#45;&gt;ExpList1 -->
<g id="edge29" class="edge"><title>ExpCall3&#45;&gt;ExpList1</title>
<path fill="none" stroke="black" d="M597.91,-293.441C631.304,-281.515 683.515,-262.868 719.952,-249.855"/>
<polygon fill="black" stroke="black" points="721.542,-253.004 729.782,-246.344 719.187,-246.411 721.542,-253.004"/>
</g>
<!-- ExpBinary1 -->
<g id="node22" class="node"><title>ExpBinary1</title>
<ellipse fill="none" stroke="black" cx="787.545" cy="-162" rx="53.0913" ry="18"/>
<text text-anchor="middle" x="787.545" y="-158.3" font-family="Times,serif" font-size="14.00">ExpBinary1</text>
</g>
<!-- ExpTemp1 -->
<g id="node23" class="node"><title>ExpTemp1</title>
<ellipse fill="none" stroke="black" cx="688.545" cy="-90" rx="50.0912" ry="18"/>
<text text-anchor="middle" x="688.545" y="-86.3" font-family="Times,serif" font-size="14.00">ExpTemp1</text>
</g>
<!-- ExpBinary1&#45;&gt;ExpTemp1 -->
<g id="edge18" class="edge"><title>ExpBinary1&#45;&gt;ExpTemp1</title>
<path fill="none" stroke="black" d="M765.574,-145.465C751.764,-135.7 733.763,-122.972 718.636,-112.276"/>
<polygon fill="black" stroke="black" points="720.3,-109.167 710.114,-106.251 716.259,-114.882 720.3,-109.167"/>
</g>
<!-- Plus1 -->
<g id="node24" class="node"><title>Plus1</title>
<ellipse fill="none" stroke="black" cx="787.545" cy="-90" rx="30.5947" ry="18"/>
<text text-anchor="middle" x="787.545" y="-86.3" font-family="Times,serif" font-size="14.00">Plus1</text>
</g>
<!-- ExpBinary1&#45;&gt;Plus1 -->
<g id="edge19" class="edge"><title>ExpBinary1&#45;&gt;Plus1</title>
<path fill="none" stroke="black" d="M787.545,-143.697C787.545,-135.983 787.545,-126.712 787.545,-118.112"/>
<polygon fill="black" stroke="black" points="791.045,-118.104 787.545,-108.104 784.045,-118.104 791.045,-118.104"/>
</g>
<!-- ExpCall4 -->
<g id="node25" class="node"><title>ExpCall4</title>
<ellipse fill="none" stroke="black" cx="880.545" cy="-90" rx="44.393" ry="18"/>
<text text-anchor="middle" x="880.545" y="-86.3" font-family="Times,serif" font-size="14.00">ExpCall4</text>
</g>
<!-- ExpBinary1&#45;&gt;ExpCall4 -->
<g id="edge20" class="edge"><title>ExpBinary1&#45;&gt;ExpCall4</title>
<path fill="none" stroke="black" d="M808.648,-145.116C821.518,-135.429 838.133,-122.923 852.148,-112.374"/>
<polygon fill="black" stroke="black" points="854.597,-114.912 860.482,-106.101 850.387,-109.319 854.597,-114.912"/>
</g>
<!-- Temp1: FP -->
<g id="node32" class="node"><title>Temp1: FP</title>
<ellipse fill="none" stroke="black" cx="688.545" cy="-18" rx="50.8918" ry="18"/>
<text text-anchor="middle" x="688.545" y="-14.3" font-family="Times,serif" font-size="14.00">Temp1: FP</text>
</g>
<!-- ExpTemp1&#45;&gt;Temp1: FP -->
<g id="edge30" class="edge"><title>ExpTemp1&#45;&gt;Temp1: FP</title>
<path fill="none" stroke="black" d="M688.545,-71.6966C688.545,-63.9827 688.545,-54.7125 688.545,-46.1124"/>
<polygon fill="black" stroke="black" points="692.045,-46.1043 688.545,-36.1043 685.045,-46.1044 692.045,-46.1043"/>
</g>
<!-- Value2: 0 -->
<g id="node34" class="node"><title>Value2: 0</title>
<ellipse fill="none" stroke="black" cx="880.545" cy="-18" rx="45.4919" ry="18"/>
<text text-anchor="middle" x="880.545" y="-14.3" font-family="Times,serif" font-size="14.00">Value2: 0</text>
</g>
<!-- ExpCall4&#45;&gt;Value2: 0 -->
<g id="edge33" class="edge"><title>ExpCall4&#45;&gt;Value2: 0</title>
<path fill="none" stroke="black" d="M880.545,-71.6966C880.545,-63.9827 880.545,-54.7125 880.545,-46.1124"/>
<polygon fill="black" stroke="black" points="884.045,-46.1043 880.545,-36.1043 877.045,-46.1044 884.045,-46.1043"/>
</g>
<!-- Label2: Visitor::visit -->
<g id="node27" class="node"><title>Label2: Visitor::visit</title>
<ellipse fill="none" stroke="black" cx="631.545" cy="-162" rx="84.485" ry="18"/>
<text text-anchor="middle" x="631.545" y="-158.3" font-family="Times,serif" font-size="14.00">Label2: Visitor::visit</text>
</g>
<!-- ExpName1&#45;&gt;Label2: Visitor::visit -->
<g id="edge21" class="edge"><title>ExpName1&#45;&gt;Label2: Visitor::visit</title>
<path fill="none" stroke="black" d="M606.533,-216.055C610.288,-208.091 614.851,-198.411 619.048,-189.51"/>
<polygon fill="black" stroke="black" points="622.303,-190.813 623.401,-180.275 615.971,-187.828 622.303,-190.813"/>
</g>
<!-- ExpList1&#45;&gt;ExpBinary1 -->
<g id="edge23" class="edge"><title>ExpList1&#45;&gt;ExpBinary1</title>
<path fill="none" stroke="black" d="M767.839,-216.055C770.765,-208.176 774.316,-198.617 777.593,-189.794"/>
<polygon fill="black" stroke="black" points="780.928,-190.868 781.128,-180.275 774.366,-188.431 780.928,-190.868"/>
</g>
<!-- Temp2: RetVal -->
<g id="node35" class="node"><title>Temp2: RetVal</title>
<ellipse fill="none" stroke="black" cx="693.545" cy="-306" rx="65.7887" ry="18"/>
<text text-anchor="middle" x="693.545" y="-302.3" font-family="Times,serif" font-size="14.00">Temp2: RetVal</text>
</g>
<!-- ExpTemp2&#45;&gt;Temp2: RetVal -->
<g id="edge34" class="edge"><title>ExpTemp2&#45;&gt;Temp2: RetVal</title>
<path fill="none" stroke="black" d="M693.545,-359.697C693.545,-351.983 693.545,-342.712 693.545,-334.112"/>
<polygon fill="black" stroke="black" points="697.045,-334.104 693.545,-324.104 690.045,-334.104 697.045,-334.104"/>
</g>
<!-- Value3: 0 -->
<g id="node33" class="node"><title>Value3: 0</title>
<ellipse fill="none" stroke="black" cx="822.545" cy="-306" rx="45.4919" ry="18"/>
<text text-anchor="middle" x="822.545" y="-302.3" font-family="Times,serif" font-size="14.00">Value3: 0</text>
</g>
<!-- ExpCall5&#45;&gt;Value3: 0 -->
<g id="edge31" class="edge"><title>ExpCall5&#45;&gt;Value3: 0</title>
<path fill="none" stroke="black" d="M815.77,-359.697C816.761,-351.983 817.953,-342.712 819.059,-334.112"/>
<polygon fill="black" stroke="black" points="822.542,-334.469 820.346,-324.104 815.599,-333.576 822.542,-334.469"/>
</g>
<!-- StatSeq0 -->
<g id="node31" class="node"><title>StatSeq0</title>
<ellipse fill="none" stroke="black" cx="441.545" cy="-594" rx="42.4939" ry="18"/>
<text text-anchor="middle" x="441.545" y="-590.3" font-family="Times,serif" font-size="14.00">StatSeq0</text>
</g>
<!-- StatSeq0&#45;&gt;StatLabel0 -->
<g id="edge26" class="edge"><title>StatSeq0&#45;&gt;StatLabel0</title>
<path fill="none" stroke="black" d="M426.933,-576.765C419.017,-567.969 409.08,-556.928 400.275,-547.144"/>
<polygon fill="black" stroke="black" points="402.806,-544.725 393.515,-539.633 397.603,-549.408 402.806,-544.725"/>
</g>
<!-- StatSeq0&#45;&gt;StatSeq1 -->
<g id="edge27" class="edge"><title>StatSeq0&#45;&gt;StatSeq1</title>
<path fill="none" stroke="black" d="M456.157,-576.765C464.188,-567.841 474.298,-556.608 483.198,-546.719"/>
<polygon fill="black" stroke="black" points="485.924,-548.922 490.012,-539.147 480.721,-544.239 485.924,-548.922"/>
</g>
</g>
</svg>
