<?xml version="1.0" encoding="UTF-8" standalone="no"?>
<!DOCTYPE svg PUBLIC "-//W3C//DTD SVG 1.1//EN"
 "http://www.w3.org/Graphics/SVG/1.1/DTD/svg11.dtd">
<!-- Generated by graphviz version 2.38.0 (20140413.2041)
 -->
<!-- Title: %3 Pages: 1 -->
<svg width="566pt" height="548pt"
 viewBox="0.00 0.00 566.19 548.00" xmlns="http://www.w3.org/2000/svg" xmlns:xlink="http://www.w3.org/1999/xlink">
<g id="graph0" class="graph" transform="scale(1 1) rotate(0) translate(4 544)">
<title>%3</title>
<polygon fill="white" stroke="none" points="-4,4 -4,-544 562.186,-544 562.186,4 -4,4"/>
<!-- StatMove0 -->
<g id="node1" class="node"><title>StatMove0</title>
<ellipse fill="none" stroke="black" cx="290.14" cy="-450" rx="50.0912" ry="18"/>
<text text-anchor="middle" x="290.14" y="-446.3" font-family="Times,serif" font-size="14.00">StatMove0</text>
</g>
<!-- ExpTemp0 -->
<g id="node2" class="node"><title>ExpTemp0</title>
<ellipse fill="none" stroke="black" cx="290.14" cy="-378" rx="50.0912" ry="18"/>
<text text-anchor="middle" x="290.14" y="-374.3" font-family="Times,serif" font-size="14.00">ExpTemp0</text>
</g>
<!-- StatMove0&#45;&gt;ExpTemp0 -->
<g id="edge1" class="edge"><title>StatMove0&#45;&gt;ExpTemp0</title>
<path fill="none" stroke="black" d="M290.14,-431.697C290.14,-423.983 290.14,-414.712 290.14,-406.112"/>
<polygon fill="black" stroke="black" points="293.64,-406.104 290.14,-396.104 286.64,-406.104 293.64,-406.104"/>
</g>
<!-- ExpMem0 -->
<g id="node3" class="node"><title>ExpMem0</title>
<ellipse fill="none" stroke="black" cx="412.14" cy="-378" rx="48.9926" ry="18"/>
<text text-anchor="middle" x="412.14" y="-374.3" font-family="Times,serif" font-size="14.00">ExpMem0</text>
</g>
<!-- StatMove0&#45;&gt;ExpMem0 -->
<g id="edge2" class="edge"><title>StatMove0&#45;&gt;ExpMem0</title>
<path fill="none" stroke="black" d="M315.715,-434.326C333.772,-423.965 358.165,-409.969 377.899,-398.646"/>
<polygon fill="black" stroke="black" points="379.667,-401.668 386.599,-393.655 376.183,-395.596 379.667,-401.668"/>
</g>
<!-- Temp0: T19 -->
<g id="node9" class="node"><title>Temp0: T19</title>
<ellipse fill="none" stroke="black" cx="288.14" cy="-306" rx="55.4913" ry="18"/>
<text text-anchor="middle" x="288.14" y="-302.3" font-family="Times,serif" font-size="14.00">Temp0: T19</text>
</g>
<!-- ExpTemp0&#45;&gt;Temp0: T19 -->
<g id="edge7" class="edge"><title>ExpTemp0&#45;&gt;Temp0: T19</title>
<path fill="none" stroke="black" d="M289.646,-359.697C289.425,-351.983 289.16,-342.712 288.915,-334.112"/>
<polygon fill="black" stroke="black" points="292.413,-334 288.629,-324.104 285.416,-334.2 292.413,-334"/>
</g>
<!-- ExpBinary0 -->
<g id="node4" class="node"><title>ExpBinary0</title>
<ellipse fill="none" stroke="black" cx="415.14" cy="-306" rx="53.0913" ry="18"/>
<text text-anchor="middle" x="415.14" y="-302.3" font-family="Times,serif" font-size="14.00">ExpBinary0</text>
</g>
<!-- ExpMem0&#45;&gt;ExpBinary0 -->
<g id="edge12" class="edge"><title>ExpMem0&#45;&gt;ExpBinary0</title>
<path fill="none" stroke="black" d="M412.882,-359.697C413.212,-351.983 413.61,-342.712 413.978,-334.112"/>
<polygon fill="black" stroke="black" points="417.476,-334.245 414.407,-324.104 410.482,-333.945 417.476,-334.245"/>
</g>
<!-- ExpMem1 -->
<g id="node5" class="node"><title>ExpMem1</title>
<ellipse fill="none" stroke="black" cx="318.14" cy="-234" rx="48.9926" ry="18"/>
<text text-anchor="middle" x="318.14" y="-230.3" font-family="Times,serif" font-size="14.00">ExpMem1</text>
</g>
<!-- ExpBinary0&#45;&gt;ExpMem1 -->
<g id="edge3" class="edge"><title>ExpBinary0&#45;&gt;ExpMem1</title>
<path fill="none" stroke="black" d="M393.613,-289.465C380.082,-279.7 362.445,-266.972 347.623,-256.276"/>
<polygon fill="black" stroke="black" points="349.431,-253.265 339.274,-250.251 345.335,-258.941 349.431,-253.265"/>
</g>
<!-- Plus1 -->
<g id="node6" class="node"><title>Plus1</title>
<ellipse fill="none" stroke="black" cx="415.14" cy="-234" rx="30.5947" ry="18"/>
<text text-anchor="middle" x="415.14" y="-230.3" font-family="Times,serif" font-size="14.00">Plus1</text>
</g>
<!-- ExpBinary0&#45;&gt;Plus1 -->
<g id="edge4" class="edge"><title>ExpBinary0&#45;&gt;Plus1</title>
<path fill="none" stroke="black" d="M415.14,-287.697C415.14,-279.983 415.14,-270.712 415.14,-262.112"/>
<polygon fill="black" stroke="black" points="418.64,-262.104 415.14,-252.104 411.64,-262.104 418.64,-262.104"/>
</g>
<!-- ExpCall1 -->
<g id="node7" class="node"><title>ExpCall1</title>
<ellipse fill="none" stroke="black" cx="508.14" cy="-234" rx="44.393" ry="18"/>
<text text-anchor="middle" x="508.14" y="-230.3" font-family="Times,serif" font-size="14.00">ExpCall1</text>
</g>
<!-- ExpBinary0&#45;&gt;ExpCall1 -->
<g id="edge5" class="edge"><title>ExpBinary0&#45;&gt;ExpCall1</title>
<path fill="none" stroke="black" d="M436.243,-289.116C449.114,-279.429 465.728,-266.923 479.743,-256.374"/>
<polygon fill="black" stroke="black" points="482.192,-258.912 488.077,-250.101 477.982,-253.319 482.192,-258.912"/>
</g>
<!-- ExpBinary1 -->
<g id="node15" class="node"><title>ExpBinary1</title>
<ellipse fill="none" stroke="black" cx="318.14" cy="-162" rx="53.0913" ry="18"/>
<text text-anchor="middle" x="318.14" y="-158.3" font-family="Times,serif" font-size="14.00">ExpBinary1</text>
</g>
<!-- ExpMem1&#45;&gt;ExpBinary1 -->
<g id="edge17" class="edge"><title>ExpMem1&#45;&gt;ExpBinary1</title>
<path fill="none" stroke="black" d="M318.14,-215.697C318.14,-207.983 318.14,-198.712 318.14,-190.112"/>
<polygon fill="black" stroke="black" points="321.64,-190.104 318.14,-180.104 314.64,-190.104 321.64,-190.104"/>
</g>
<!-- Value1: 12 -->
<g id="node8" class="node"><title>Value1: 12</title>
<ellipse fill="none" stroke="black" cx="508.14" cy="-162" rx="50.0912" ry="18"/>
<text text-anchor="middle" x="508.14" y="-158.3" font-family="Times,serif" font-size="14.00">Value1: 12</text>
</g>
<!-- ExpCall1&#45;&gt;Value1: 12 -->
<g id="edge6" class="edge"><title>ExpCall1&#45;&gt;Value1: 12</title>
<path fill="none" stroke="black" d="M508.14,-215.697C508.14,-207.983 508.14,-198.712 508.14,-190.112"/>
<polygon fill="black" stroke="black" points="511.64,-190.104 508.14,-180.104 504.64,-190.104 511.64,-190.104"/>
</g>
<!-- StatSeq0 -->
<g id="node10" class="node"><title>StatSeq0</title>
<ellipse fill="none" stroke="black" cx="216.14" cy="-522" rx="42.4939" ry="18"/>
<text text-anchor="middle" x="216.14" y="-518.3" font-family="Times,serif" font-size="14.00">StatSeq0</text>
</g>
<!-- StatSeq0&#45;&gt;StatMove0 -->
<g id="edge9" class="edge"><title>StatSeq0&#45;&gt;StatMove0</title>
<path fill="none" stroke="black" d="M232.932,-505.116C242.608,-495.962 254.945,-484.293 265.683,-474.135"/>
<polygon fill="black" stroke="black" points="268.299,-476.478 273.159,-467.064 263.489,-471.393 268.299,-476.478"/>
</g>
<!-- StatLabel0 -->
<g id="node11" class="node"><title>StatLabel0</title>
<ellipse fill="none" stroke="black" cx="142.14" cy="-450" rx="48.9926" ry="18"/>
<text text-anchor="middle" x="142.14" y="-446.3" font-family="Times,serif" font-size="14.00">StatLabel0</text>
</g>
<!-- StatSeq0&#45;&gt;StatLabel0 -->
<g id="edge8" class="edge"><title>StatSeq0&#45;&gt;StatLabel0</title>
<path fill="none" stroke="black" d="M199.348,-505.116C189.672,-495.962 177.335,-484.293 166.597,-474.135"/>
<polygon fill="black" stroke="black" points="168.792,-471.393 159.122,-467.064 163.981,-476.478 168.792,-471.393"/>
</g>
<!-- Label0: Tree::GetHas_Right -->
<g id="node12" class="node"><title>Label0: Tree::GetHas_Right</title>
<ellipse fill="none" stroke="black" cx="111.14" cy="-378" rx="111.28" ry="18"/>
<text text-anchor="middle" x="111.14" y="-374.3" font-family="Times,serif" font-size="14.00">Label0: Tree::GetHas_Right</text>
</g>
<!-- StatLabel0&#45;&gt;Label0: Tree::GetHas_Right -->
<g id="edge10" class="edge"><title>StatLabel0&#45;&gt;Label0: Tree::GetHas_Right</title>
<path fill="none" stroke="black" d="M134.636,-432.055C131.109,-424.091 126.822,-414.411 122.88,-405.51"/>
<polygon fill="black" stroke="black" points="126.04,-404.002 118.791,-396.275 119.64,-406.836 126.04,-404.002"/>
</g>
<!-- ExpTemp1 -->
<g id="node13" class="node"><title>ExpTemp1</title>
<ellipse fill="none" stroke="black" cx="219.14" cy="-90" rx="50.0912" ry="18"/>
<text text-anchor="middle" x="219.14" y="-86.3" font-family="Times,serif" font-size="14.00">ExpTemp1</text>
</g>
<!-- Temp1: T18 -->
<g id="node14" class="node"><title>Temp1: T18</title>
<ellipse fill="none" stroke="black" cx="219.14" cy="-18" rx="55.4913" ry="18"/>
<text text-anchor="middle" x="219.14" y="-14.3" font-family="Times,serif" font-size="14.00">Temp1: T18</text>
</g>
<!-- ExpTemp1&#45;&gt;Temp1: T18 -->
<g id="edge11" class="edge"><title>ExpTemp1&#45;&gt;Temp1: T18</title>
<path fill="none" stroke="black" d="M219.14,-71.6966C219.14,-63.9827 219.14,-54.7125 219.14,-46.1124"/>
<polygon fill="black" stroke="black" points="222.64,-46.1043 219.14,-36.1043 215.64,-46.1044 222.64,-46.1043"/>
</g>
<!-- ExpBinary1&#45;&gt;ExpTemp1 -->
<g id="edge13" class="edge"><title>ExpBinary1&#45;&gt;ExpTemp1</title>
<path fill="none" stroke="black" d="M296.169,-145.465C282.359,-135.7 264.358,-122.972 249.231,-112.276"/>
<polygon fill="black" stroke="black" points="250.895,-109.167 240.709,-106.251 246.854,-114.882 250.895,-109.167"/>
</g>
<!-- Plus0 -->
<g id="node16" class="node"><title>Plus0</title>
<ellipse fill="none" stroke="black" cx="318.14" cy="-90" rx="30.5947" ry="18"/>
<text text-anchor="middle" x="318.14" y="-86.3" font-family="Times,serif" font-size="14.00">Plus0</text>
</g>
<!-- ExpBinary1&#45;&gt;Plus0 -->
<g id="edge14" class="edge"><title>ExpBinary1&#45;&gt;Plus0</title>
<path fill="none" stroke="black" d="M318.14,-143.697C318.14,-135.983 318.14,-126.712 318.14,-118.112"/>
<polygon fill="black" stroke="black" points="321.64,-118.104 318.14,-108.104 314.64,-118.104 321.64,-118.104"/>
</g>
<!-- ExpCall0 -->
<g id="node17" class="node"><title>ExpCall0</title>
<ellipse fill="none" stroke="black" cx="411.14" cy="-90" rx="44.393" ry="18"/>
<text text-anchor="middle" x="411.14" y="-86.3" font-family="Times,serif" font-size="14.00">ExpCall0</text>
</g>
<!-- ExpBinary1&#45;&gt;ExpCall0 -->
<g id="edge15" class="edge"><title>ExpBinary1&#45;&gt;ExpCall0</title>
<path fill="none" stroke="black" d="M339.243,-145.116C352.114,-135.429 368.728,-122.923 382.743,-112.374"/>
<polygon fill="black" stroke="black" points="385.192,-114.912 391.077,-106.101 380.982,-109.319 385.192,-114.912"/>
</g>
<!-- Value0: 0 -->
<g id="node18" class="node"><title>Value0: 0</title>
<ellipse fill="none" stroke="black" cx="411.14" cy="-18" rx="45.4919" ry="18"/>
<text text-anchor="middle" x="411.14" y="-14.3" font-family="Times,serif" font-size="14.00">Value0: 0</text>
</g>
<!-- ExpCall0&#45;&gt;Value0: 0 -->
<g id="edge16" class="edge"><title>ExpCall0&#45;&gt;Value0: 0</title>
<path fill="none" stroke="black" d="M411.14,-71.6966C411.14,-63.9827 411.14,-54.7125 411.14,-46.1124"/>
<polygon fill="black" stroke="black" points="414.64,-46.1043 411.14,-36.1043 407.64,-46.1044 414.64,-46.1043"/>
</g>
</g>
</svg>
