<?xml version="1.0" encoding="UTF-8" standalone="no"?>
<!DOCTYPE svg PUBLIC "-//W3C//DTD SVG 1.1//EN"
 "http://www.w3.org/Graphics/SVG/1.1/DTD/svg11.dtd">
<!-- Generated by graphviz version 2.38.0 (20140413.2041)
 -->
<!-- Title: %3 Pages: 1 -->
<svg width="530pt" height="404pt"
 viewBox="0.00 0.00 529.99 404.00" xmlns="http://www.w3.org/2000/svg" xmlns:xlink="http://www.w3.org/1999/xlink">
<g id="graph0" class="graph" transform="scale(1 1) rotate(0) translate(4 400)">
<title>%3</title>
<polygon fill="white" stroke="none" points="-4,4 -4,-400 525.987,-400 525.987,4 -4,4"/>
<!-- ExpMem0 -->
<g id="node1" class="node"><title>ExpMem0</title>
<ellipse fill="none" stroke="black" cx="375.942" cy="-234" rx="48.9926" ry="18"/>
<text text-anchor="middle" x="375.942" y="-230.3" font-family="Times,serif" font-size="14.00">ExpMem0</text>
</g>
<!-- ExpBinary0 -->
<g id="node2" class="node"><title>ExpBinary0</title>
<ellipse fill="none" stroke="black" cx="378.942" cy="-162" rx="53.0913" ry="18"/>
<text text-anchor="middle" x="378.942" y="-158.3" font-family="Times,serif" font-size="14.00">ExpBinary0</text>
</g>
<!-- ExpMem0&#45;&gt;ExpBinary0 -->
<g id="edge1" class="edge"><title>ExpMem0&#45;&gt;ExpBinary0</title>
<path fill="none" stroke="black" d="M376.683,-215.697C377.014,-207.983 377.411,-198.712 377.78,-190.112"/>
<polygon fill="black" stroke="black" points="381.277,-190.245 378.209,-180.104 374.284,-189.945 381.277,-190.245"/>
</g>
<!-- ExpCall0 -->
<g id="node3" class="node"><title>ExpCall0</title>
<ellipse fill="none" stroke="black" cx="471.942" cy="-90" rx="44.393" ry="18"/>
<text text-anchor="middle" x="471.942" y="-86.3" font-family="Times,serif" font-size="14.00">ExpCall0</text>
</g>
<!-- ExpBinary0&#45;&gt;ExpCall0 -->
<g id="edge10" class="edge"><title>ExpBinary0&#45;&gt;ExpCall0</title>
<path fill="none" stroke="black" d="M400.045,-145.116C412.915,-135.429 429.53,-122.923 443.545,-112.374"/>
<polygon fill="black" stroke="black" points="445.994,-114.912 451.878,-106.101 441.784,-109.319 445.994,-114.912"/>
</g>
<!-- ExpTemp1 -->
<g id="node5" class="node"><title>ExpTemp1</title>
<ellipse fill="none" stroke="black" cx="279.942" cy="-90" rx="50.0912" ry="18"/>
<text text-anchor="middle" x="279.942" y="-86.3" font-family="Times,serif" font-size="14.00">ExpTemp1</text>
</g>
<!-- ExpBinary0&#45;&gt;ExpTemp1 -->
<g id="edge8" class="edge"><title>ExpBinary0&#45;&gt;ExpTemp1</title>
<path fill="none" stroke="black" d="M356.97,-145.465C343.161,-135.7 325.16,-122.972 310.032,-112.276"/>
<polygon fill="black" stroke="black" points="311.697,-109.167 301.511,-106.251 307.655,-114.882 311.697,-109.167"/>
</g>
<!-- Plus0 -->
<g id="node13" class="node"><title>Plus0</title>
<ellipse fill="none" stroke="black" cx="378.942" cy="-90" rx="30.5947" ry="18"/>
<text text-anchor="middle" x="378.942" y="-86.3" font-family="Times,serif" font-size="14.00">Plus0</text>
</g>
<!-- ExpBinary0&#45;&gt;Plus0 -->
<g id="edge9" class="edge"><title>ExpBinary0&#45;&gt;Plus0</title>
<path fill="none" stroke="black" d="M378.942,-143.697C378.942,-135.983 378.942,-126.712 378.942,-118.112"/>
<polygon fill="black" stroke="black" points="382.442,-118.104 378.942,-108.104 375.442,-118.104 382.442,-118.104"/>
</g>
<!-- Value0: 24 -->
<g id="node4" class="node"><title>Value0: 24</title>
<ellipse fill="none" stroke="black" cx="471.942" cy="-18" rx="50.0912" ry="18"/>
<text text-anchor="middle" x="471.942" y="-14.3" font-family="Times,serif" font-size="14.00">Value0: 24</text>
</g>
<!-- ExpCall0&#45;&gt;Value0: 24 -->
<g id="edge2" class="edge"><title>ExpCall0&#45;&gt;Value0: 24</title>
<path fill="none" stroke="black" d="M471.942,-71.6966C471.942,-63.9827 471.942,-54.7125 471.942,-46.1124"/>
<polygon fill="black" stroke="black" points="475.442,-46.1043 471.942,-36.1043 468.442,-46.1044 475.442,-46.1043"/>
</g>
<!-- Temp1: T10 -->
<g id="node6" class="node"><title>Temp1: T10</title>
<ellipse fill="none" stroke="black" cx="279.942" cy="-18" rx="55.4913" ry="18"/>
<text text-anchor="middle" x="279.942" y="-14.3" font-family="Times,serif" font-size="14.00">Temp1: T10</text>
</g>
<!-- ExpTemp1&#45;&gt;Temp1: T10 -->
<g id="edge3" class="edge"><title>ExpTemp1&#45;&gt;Temp1: T10</title>
<path fill="none" stroke="black" d="M279.942,-71.6966C279.942,-63.9827 279.942,-54.7125 279.942,-46.1124"/>
<polygon fill="black" stroke="black" points="283.442,-46.1043 279.942,-36.1043 276.442,-46.1044 283.442,-46.1043"/>
</g>
<!-- StatLabel0 -->
<g id="node7" class="node"><title>StatLabel0</title>
<ellipse fill="none" stroke="black" cx="114.942" cy="-306" rx="48.9926" ry="18"/>
<text text-anchor="middle" x="114.942" y="-302.3" font-family="Times,serif" font-size="14.00">StatLabel0</text>
</g>
<!-- Label0: Tree::GetRight -->
<g id="node8" class="node"><title>Label0: Tree::GetRight</title>
<ellipse fill="none" stroke="black" cx="92.9418" cy="-234" rx="92.8835" ry="18"/>
<text text-anchor="middle" x="92.9418" y="-230.3" font-family="Times,serif" font-size="14.00">Label0: Tree::GetRight</text>
</g>
<!-- StatLabel0&#45;&gt;Label0: Tree::GetRight -->
<g id="edge4" class="edge"><title>StatLabel0&#45;&gt;Label0: Tree::GetRight</title>
<path fill="none" stroke="black" d="M109.616,-288.055C107.167,-280.261 104.2,-270.822 101.452,-262.079"/>
<polygon fill="black" stroke="black" points="104.708,-260.766 98.3711,-252.275 98.0305,-262.865 104.708,-260.766"/>
</g>
<!-- StatSeq0 -->
<g id="node9" class="node"><title>StatSeq0</title>
<ellipse fill="none" stroke="black" cx="183.942" cy="-378" rx="42.4939" ry="18"/>
<text text-anchor="middle" x="183.942" y="-374.3" font-family="Times,serif" font-size="14.00">StatSeq0</text>
</g>
<!-- StatSeq0&#45;&gt;StatLabel0 -->
<g id="edge5" class="edge"><title>StatSeq0&#45;&gt;StatLabel0</title>
<path fill="none" stroke="black" d="M168.285,-361.116C159.413,-352.116 148.143,-340.682 138.25,-330.646"/>
<polygon fill="black" stroke="black" points="140.528,-327.972 131.016,-323.307 135.543,-332.886 140.528,-327.972"/>
</g>
<!-- StatMove0 -->
<g id="node10" class="node"><title>StatMove0</title>
<ellipse fill="none" stroke="black" cx="253.942" cy="-306" rx="50.0912" ry="18"/>
<text text-anchor="middle" x="253.942" y="-302.3" font-family="Times,serif" font-size="14.00">StatMove0</text>
</g>
<!-- StatSeq0&#45;&gt;StatMove0 -->
<g id="edge6" class="edge"><title>StatSeq0&#45;&gt;StatMove0</title>
<path fill="none" stroke="black" d="M199.826,-361.116C208.826,-352.116 220.259,-340.682 230.296,-330.646"/>
<polygon fill="black" stroke="black" points="233.039,-332.853 237.635,-323.307 228.089,-327.903 233.039,-332.853"/>
</g>
<!-- StatMove0&#45;&gt;ExpMem0 -->
<g id="edge12" class="edge"><title>StatMove0&#45;&gt;ExpMem0</title>
<path fill="none" stroke="black" d="M279.517,-290.326C297.573,-279.965 321.967,-265.969 341.701,-254.646"/>
<polygon fill="black" stroke="black" points="343.468,-257.668 350.4,-249.655 339.985,-251.596 343.468,-257.668"/>
</g>
<!-- ExpTemp0 -->
<g id="node11" class="node"><title>ExpTemp0</title>
<ellipse fill="none" stroke="black" cx="253.942" cy="-234" rx="50.0912" ry="18"/>
<text text-anchor="middle" x="253.942" y="-230.3" font-family="Times,serif" font-size="14.00">ExpTemp0</text>
</g>
<!-- StatMove0&#45;&gt;ExpTemp0 -->
<g id="edge11" class="edge"><title>StatMove0&#45;&gt;ExpTemp0</title>
<path fill="none" stroke="black" d="M253.942,-287.697C253.942,-279.983 253.942,-270.712 253.942,-262.112"/>
<polygon fill="black" stroke="black" points="257.442,-262.104 253.942,-252.104 250.442,-262.104 257.442,-262.104"/>
</g>
<!-- Temp0: T11 -->
<g id="node12" class="node"><title>Temp0: T11</title>
<ellipse fill="none" stroke="black" cx="251.942" cy="-162" rx="55.4913" ry="18"/>
<text text-anchor="middle" x="251.942" y="-158.3" font-family="Times,serif" font-size="14.00">Temp0: T11</text>
</g>
<!-- ExpTemp0&#45;&gt;Temp0: T11 -->
<g id="edge7" class="edge"><title>ExpTemp0&#45;&gt;Temp0: T11</title>
<path fill="none" stroke="black" d="M253.447,-215.697C253.227,-207.983 252.962,-198.712 252.716,-190.112"/>
<polygon fill="black" stroke="black" points="256.215,-190 252.43,-180.104 249.218,-190.2 256.215,-190"/>
</g>
</g>
</svg>
