<?xml version="1.0" encoding="UTF-8" standalone="no"?>
<!DOCTYPE svg PUBLIC "-//W3C//DTD SVG 1.1//EN"
 "http://www.w3.org/Graphics/SVG/1.1/DTD/svg11.dtd">
<!-- Generated by graphviz version 2.38.0 (20140413.2041)
 -->
<!-- Title: %3 Pages: 1 -->
<svg width="437pt" height="476pt"
 viewBox="0.00 0.00 437.24 476.00" xmlns="http://www.w3.org/2000/svg" xmlns:xlink="http://www.w3.org/1999/xlink">
<g id="graph0" class="graph" transform="scale(1 1) rotate(0) translate(4 472)">
<title>%3</title>
<polygon fill="white" stroke="none" points="-4,4 -4,-472 433.237,-472 433.237,4 -4,4"/>
<!-- ExpList0 -->
<g id="node1" class="node"><title>ExpList0</title>
<ellipse fill="none" stroke="black" cx="328.341" cy="-234" rx="42.7926" ry="18"/>
<text text-anchor="middle" x="328.341" y="-230.3" font-family="Times,serif" font-size="14.00">ExpList0</text>
</g>
<!-- ExpCall1 -->
<g id="node2" class="node"><title>ExpCall1</title>
<ellipse fill="none" stroke="black" cx="330.341" cy="-162" rx="44.393" ry="18"/>
<text text-anchor="middle" x="330.341" y="-158.3" font-family="Times,serif" font-size="14.00">ExpCall1</text>
</g>
<!-- ExpList0&#45;&gt;ExpCall1 -->
<g id="edge1" class="edge"><title>ExpList0&#45;&gt;ExpCall1</title>
<path fill="none" stroke="black" d="M328.835,-215.697C329.056,-207.983 329.32,-198.712 329.566,-190.112"/>
<polygon fill="black" stroke="black" points="333.065,-190.2 329.852,-180.104 326.068,-190 333.065,-190.2"/>
</g>
<!-- ExpName1 -->
<g id="node3" class="node"><title>ExpName1</title>
<ellipse fill="none" stroke="black" cx="274.341" cy="-90" rx="50.8918" ry="18"/>
<text text-anchor="middle" x="274.341" y="-86.3" font-family="Times,serif" font-size="14.00">ExpName1</text>
</g>
<!-- ExpCall1&#45;&gt;ExpName1 -->
<g id="edge2" class="edge"><title>ExpCall1&#45;&gt;ExpName1</title>
<path fill="none" stroke="black" d="M317.353,-144.765C310.455,-136.143 301.833,-125.365 294.122,-115.727"/>
<polygon fill="black" stroke="black" points="296.628,-113.256 287.648,-107.633 291.161,-117.629 296.628,-113.256"/>
</g>
<!-- ExpList1 -->
<g id="node4" class="node"><title>ExpList1</title>
<ellipse fill="none" stroke="black" cx="386.341" cy="-90" rx="42.7926" ry="18"/>
<text text-anchor="middle" x="386.341" y="-86.3" font-family="Times,serif" font-size="14.00">ExpList1</text>
</g>
<!-- ExpCall1&#45;&gt;ExpList1 -->
<g id="edge3" class="edge"><title>ExpCall1&#45;&gt;ExpList1</title>
<path fill="none" stroke="black" d="M343.329,-144.765C350.226,-136.143 358.849,-125.365 366.559,-115.727"/>
<polygon fill="black" stroke="black" points="369.52,-117.629 373.034,-107.633 364.054,-113.256 369.52,-117.629"/>
</g>
<!-- Label2: TV::Start -->
<g id="node5" class="node"><title>Label2: TV::Start</title>
<ellipse fill="none" stroke="black" cx="274.341" cy="-18" rx="73.387" ry="18"/>
<text text-anchor="middle" x="274.341" y="-14.3" font-family="Times,serif" font-size="14.00">Label2: TV::Start</text>
</g>
<!-- ExpName1&#45;&gt;Label2: TV::Start -->
<g id="edge4" class="edge"><title>ExpName1&#45;&gt;Label2: TV::Start</title>
<path fill="none" stroke="black" d="M274.341,-71.6966C274.341,-63.9827 274.341,-54.7125 274.341,-46.1124"/>
<polygon fill="black" stroke="black" points="277.841,-46.1043 274.341,-36.1043 270.841,-46.1044 277.841,-46.1043"/>
</g>
<!-- StatExp0 -->
<g id="node6" class="node"><title>StatExp0</title>
<ellipse fill="none" stroke="black" cx="255.341" cy="-378" rx="42.7926" ry="18"/>
<text text-anchor="middle" x="255.341" y="-374.3" font-family="Times,serif" font-size="14.00">StatExp0</text>
</g>
<!-- ExpCall0 -->
<g id="node7" class="node"><title>ExpCall0</title>
<ellipse fill="none" stroke="black" cx="269.341" cy="-306" rx="44.393" ry="18"/>
<text text-anchor="middle" x="269.341" y="-302.3" font-family="Times,serif" font-size="14.00">ExpCall0</text>
</g>
<!-- StatExp0&#45;&gt;ExpCall0 -->
<g id="edge5" class="edge"><title>StatExp0&#45;&gt;ExpCall0</title>
<path fill="none" stroke="black" d="M258.73,-360.055C260.272,-352.346 262.135,-343.027 263.868,-334.364"/>
<polygon fill="black" stroke="black" points="267.357,-334.768 265.886,-324.275 260.492,-333.395 267.357,-334.768"/>
</g>
<!-- ExpCall0&#45;&gt;ExpList0 -->
<g id="edge8" class="edge"><title>ExpCall0&#45;&gt;ExpList0</title>
<path fill="none" stroke="black" d="M283.025,-288.765C290.471,-279.93 299.827,-268.83 308.101,-259.014"/>
<polygon fill="black" stroke="black" points="310.962,-261.049 314.731,-251.147 305.61,-256.538 310.962,-261.049"/>
</g>
<!-- ExpName0 -->
<g id="node10" class="node"><title>ExpName0</title>
<ellipse fill="none" stroke="black" cx="213.341" cy="-234" rx="50.8918" ry="18"/>
<text text-anchor="middle" x="213.341" y="-230.3" font-family="Times,serif" font-size="14.00">ExpName0</text>
</g>
<!-- ExpCall0&#45;&gt;ExpName0 -->
<g id="edge7" class="edge"><title>ExpCall0&#45;&gt;ExpName0</title>
<path fill="none" stroke="black" d="M256.353,-288.765C249.455,-280.143 240.833,-269.365 233.122,-259.727"/>
<polygon fill="black" stroke="black" points="235.628,-257.256 226.648,-251.633 230.161,-261.629 235.628,-257.256"/>
</g>
<!-- StatLabel0 -->
<g id="node8" class="node"><title>StatLabel0</title>
<ellipse fill="none" stroke="black" cx="131.341" cy="-378" rx="48.9926" ry="18"/>
<text text-anchor="middle" x="131.341" y="-374.3" font-family="Times,serif" font-size="14.00">StatLabel0</text>
</g>
<!-- Label0: TreeVisitor::main -->
<g id="node9" class="node"><title>Label0: TreeVisitor::main</title>
<ellipse fill="none" stroke="black" cx="103.341" cy="-306" rx="103.182" ry="18"/>
<text text-anchor="middle" x="103.341" y="-302.3" font-family="Times,serif" font-size="14.00">Label0: TreeVisitor::main</text>
</g>
<!-- StatLabel0&#45;&gt;Label0: TreeVisitor::main -->
<g id="edge6" class="edge"><title>StatLabel0&#45;&gt;Label0: TreeVisitor::main</title>
<path fill="none" stroke="black" d="M124.563,-360.055C121.411,-352.176 117.587,-342.617 114.058,-333.794"/>
<polygon fill="black" stroke="black" points="117.215,-332.26 110.251,-324.275 110.715,-334.86 117.215,-332.26"/>
</g>
<!-- Label1: print -->
<g id="node12" class="node"><title>Label1: print</title>
<ellipse fill="none" stroke="black" cx="211.341" cy="-162" rx="56.59" ry="18"/>
<text text-anchor="middle" x="211.341" y="-158.3" font-family="Times,serif" font-size="14.00">Label1: print</text>
</g>
<!-- ExpName0&#45;&gt;Label1: print -->
<g id="edge11" class="edge"><title>ExpName0&#45;&gt;Label1: print</title>
<path fill="none" stroke="black" d="M212.846,-215.697C212.626,-207.983 212.361,-198.712 212.115,-190.112"/>
<polygon fill="black" stroke="black" points="215.614,-190 211.83,-180.104 208.617,-190.2 215.614,-190"/>
</g>
<!-- StatSeq0 -->
<g id="node11" class="node"><title>StatSeq0</title>
<ellipse fill="none" stroke="black" cx="193.341" cy="-450" rx="42.4939" ry="18"/>
<text text-anchor="middle" x="193.341" y="-446.3" font-family="Times,serif" font-size="14.00">StatSeq0</text>
</g>
<!-- StatSeq0&#45;&gt;StatExp0 -->
<g id="edge10" class="edge"><title>StatSeq0&#45;&gt;StatExp0</title>
<path fill="none" stroke="black" d="M207.721,-432.765C215.624,-423.841 225.574,-412.608 234.332,-402.719"/>
<polygon fill="black" stroke="black" points="237.029,-404.954 241.039,-395.147 231.788,-400.313 237.029,-404.954"/>
</g>
<!-- StatSeq0&#45;&gt;StatLabel0 -->
<g id="edge9" class="edge"><title>StatSeq0&#45;&gt;StatLabel0</title>
<path fill="none" stroke="black" d="M178.961,-432.765C171.17,-423.969 161.392,-412.928 152.726,-403.144"/>
<polygon fill="black" stroke="black" points="155.324,-400.799 146.073,-395.633 150.084,-405.44 155.324,-400.799"/>
</g>
</g>
</svg>
