<?xml version="1.0" encoding="UTF-8" standalone="no"?>
<!DOCTYPE svg PUBLIC "-//W3C//DTD SVG 1.1//EN"
 "http://www.w3.org/Graphics/SVG/1.1/DTD/svg11.dtd">
<!-- Generated by graphviz version 2.38.0 (20140413.2041)
 -->
<!-- Title: %3 Pages: 1 -->
<svg width="443pt" height="476pt"
 viewBox="0.00 0.00 443.49 476.00" xmlns="http://www.w3.org/2000/svg" xmlns:xlink="http://www.w3.org/1999/xlink">
<g id="graph0" class="graph" transform="scale(1 1) rotate(0) translate(4 472)">
<title>%3</title>
<polygon fill="white" stroke="none" points="-4,4 -4,-472 439.487,-472 439.487,4 -4,4"/>
<!-- ExpList0 -->
<g id="node1" class="node"><title>ExpList0</title>
<ellipse fill="none" stroke="black" cx="334.591" cy="-234" rx="42.7926" ry="18"/>
<text text-anchor="middle" x="334.591" y="-230.3" font-family="Times,serif" font-size="14.00">ExpList0</text>
</g>
<!-- ExpCall1 -->
<g id="node2" class="node"><title>ExpCall1</title>
<ellipse fill="none" stroke="black" cx="336.591" cy="-162" rx="44.393" ry="18"/>
<text text-anchor="middle" x="336.591" y="-158.3" font-family="Times,serif" font-size="14.00">ExpCall1</text>
</g>
<!-- ExpList0&#45;&gt;ExpCall1 -->
<g id="edge1" class="edge"><title>ExpList0&#45;&gt;ExpCall1</title>
<path fill="none" stroke="black" d="M335.085,-215.697C335.305,-207.983 335.57,-198.712 335.816,-190.112"/>
<polygon fill="black" stroke="black" points="339.315,-190.2 336.102,-180.104 332.318,-190 339.315,-190.2"/>
</g>
<!-- ExpName1 -->
<g id="node3" class="node"><title>ExpName1</title>
<ellipse fill="none" stroke="black" cx="280.591" cy="-90" rx="50.8918" ry="18"/>
<text text-anchor="middle" x="280.591" y="-86.3" font-family="Times,serif" font-size="14.00">ExpName1</text>
</g>
<!-- ExpCall1&#45;&gt;ExpName1 -->
<g id="edge2" class="edge"><title>ExpCall1&#45;&gt;ExpName1</title>
<path fill="none" stroke="black" d="M323.602,-144.765C316.705,-136.143 308.082,-125.365 300.372,-115.727"/>
<polygon fill="black" stroke="black" points="302.877,-113.256 293.897,-107.633 297.411,-117.629 302.877,-113.256"/>
</g>
<!-- ExpList1 -->
<g id="node4" class="node"><title>ExpList1</title>
<ellipse fill="none" stroke="black" cx="392.591" cy="-90" rx="42.7926" ry="18"/>
<text text-anchor="middle" x="392.591" y="-86.3" font-family="Times,serif" font-size="14.00">ExpList1</text>
</g>
<!-- ExpCall1&#45;&gt;ExpList1 -->
<g id="edge3" class="edge"><title>ExpCall1&#45;&gt;ExpList1</title>
<path fill="none" stroke="black" d="M349.579,-144.765C356.476,-136.143 365.099,-125.365 372.809,-115.727"/>
<polygon fill="black" stroke="black" points="375.77,-117.629 379.284,-107.633 370.304,-113.256 375.77,-117.629"/>
</g>
<!-- Label2: TV@Start -->
<g id="node5" class="node"><title>Label2: TV@Start</title>
<ellipse fill="none" stroke="black" cx="280.591" cy="-18" rx="76.8869" ry="18"/>
<text text-anchor="middle" x="280.591" y="-14.3" font-family="Times,serif" font-size="14.00">Label2: TV@Start</text>
</g>
<!-- ExpName1&#45;&gt;Label2: TV@Start -->
<g id="edge4" class="edge"><title>ExpName1&#45;&gt;Label2: TV@Start</title>
<path fill="none" stroke="black" d="M280.591,-71.6966C280.591,-63.9827 280.591,-54.7125 280.591,-46.1124"/>
<polygon fill="black" stroke="black" points="284.091,-46.1043 280.591,-36.1043 277.091,-46.1044 284.091,-46.1043"/>
</g>
<!-- StatExp0 -->
<g id="node6" class="node"><title>StatExp0</title>
<ellipse fill="none" stroke="black" cx="260.591" cy="-378" rx="42.7926" ry="18"/>
<text text-anchor="middle" x="260.591" y="-374.3" font-family="Times,serif" font-size="14.00">StatExp0</text>
</g>
<!-- ExpCall0 -->
<g id="node7" class="node"><title>ExpCall0</title>
<ellipse fill="none" stroke="black" cx="275.591" cy="-306" rx="44.393" ry="18"/>
<text text-anchor="middle" x="275.591" y="-302.3" font-family="Times,serif" font-size="14.00">ExpCall0</text>
</g>
<!-- StatExp0&#45;&gt;ExpCall0 -->
<g id="edge5" class="edge"><title>StatExp0&#45;&gt;ExpCall0</title>
<path fill="none" stroke="black" d="M264.222,-360.055C265.892,-352.261 267.914,-342.822 269.788,-334.079"/>
<polygon fill="black" stroke="black" points="273.216,-334.787 271.889,-324.275 266.371,-333.32 273.216,-334.787"/>
</g>
<!-- ExpCall0&#45;&gt;ExpList0 -->
<g id="edge8" class="edge"><title>ExpCall0&#45;&gt;ExpList0</title>
<path fill="none" stroke="black" d="M289.275,-288.765C296.721,-279.93 306.077,-268.83 314.351,-259.014"/>
<polygon fill="black" stroke="black" points="317.212,-261.049 320.981,-251.147 311.86,-256.538 317.212,-261.049"/>
</g>
<!-- ExpName0 -->
<g id="node10" class="node"><title>ExpName0</title>
<ellipse fill="none" stroke="black" cx="219.591" cy="-234" rx="50.8918" ry="18"/>
<text text-anchor="middle" x="219.591" y="-230.3" font-family="Times,serif" font-size="14.00">ExpName0</text>
</g>
<!-- ExpCall0&#45;&gt;ExpName0 -->
<g id="edge7" class="edge"><title>ExpCall0&#45;&gt;ExpName0</title>
<path fill="none" stroke="black" d="M262.602,-288.765C255.705,-280.143 247.082,-269.365 239.372,-259.727"/>
<polygon fill="black" stroke="black" points="241.877,-257.256 232.897,-251.633 236.411,-261.629 241.877,-257.256"/>
</g>
<!-- StatLabel0 -->
<g id="node8" class="node"><title>StatLabel0</title>
<ellipse fill="none" stroke="black" cx="135.591" cy="-378" rx="48.9926" ry="18"/>
<text text-anchor="middle" x="135.591" y="-374.3" font-family="Times,serif" font-size="14.00">StatLabel0</text>
</g>
<!-- Label0: TreeVisitor@main -->
<g id="node9" class="node"><title>Label0: TreeVisitor@main</title>
<ellipse fill="none" stroke="black" cx="106.591" cy="-306" rx="106.681" ry="18"/>
<text text-anchor="middle" x="106.591" y="-302.3" font-family="Times,serif" font-size="14.00">Label0: TreeVisitor@main</text>
</g>
<!-- StatLabel0&#45;&gt;Label0: TreeVisitor@main -->
<g id="edge6" class="edge"><title>StatLabel0&#45;&gt;Label0: TreeVisitor@main</title>
<path fill="none" stroke="black" d="M128.57,-360.055C125.306,-352.176 121.346,-342.617 117.691,-333.794"/>
<polygon fill="black" stroke="black" points="120.808,-332.174 113.747,-324.275 114.341,-334.853 120.808,-332.174"/>
</g>
<!-- Label1: print -->
<g id="node12" class="node"><title>Label1: print</title>
<ellipse fill="none" stroke="black" cx="217.591" cy="-162" rx="56.59" ry="18"/>
<text text-anchor="middle" x="217.591" y="-158.3" font-family="Times,serif" font-size="14.00">Label1: print</text>
</g>
<!-- ExpName0&#45;&gt;Label1: print -->
<g id="edge11" class="edge"><title>ExpName0&#45;&gt;Label1: print</title>
<path fill="none" stroke="black" d="M219.096,-215.697C218.876,-207.983 218.611,-198.712 218.365,-190.112"/>
<polygon fill="black" stroke="black" points="221.864,-190 218.079,-180.104 214.866,-190.2 221.864,-190"/>
</g>
<!-- StatSeq0 -->
<g id="node11" class="node"><title>StatSeq0</title>
<ellipse fill="none" stroke="black" cx="197.591" cy="-450" rx="42.4939" ry="18"/>
<text text-anchor="middle" x="197.591" y="-446.3" font-family="Times,serif" font-size="14.00">StatSeq0</text>
</g>
<!-- StatSeq0&#45;&gt;StatExp0 -->
<g id="edge10" class="edge"><title>StatSeq0&#45;&gt;StatExp0</title>
<path fill="none" stroke="black" d="M212.202,-432.765C220.233,-423.841 230.343,-412.608 239.243,-402.719"/>
<polygon fill="black" stroke="black" points="241.97,-404.922 246.058,-395.147 236.767,-400.239 241.97,-404.922"/>
</g>
<!-- StatSeq0&#45;&gt;StatLabel0 -->
<g id="edge9" class="edge"><title>StatSeq0&#45;&gt;StatLabel0</title>
<path fill="none" stroke="black" d="M183.211,-432.765C175.42,-423.969 165.641,-412.928 156.975,-403.144"/>
<polygon fill="black" stroke="black" points="159.573,-400.799 150.323,-395.633 154.333,-405.44 159.573,-400.799"/>
</g>
</g>
</svg>
