<?xml version="1.0" encoding="UTF-8" standalone="no"?>
<!DOCTYPE svg PUBLIC "-//W3C//DTD SVG 1.1//EN"
 "http://www.w3.org/Graphics/SVG/1.1/DTD/svg11.dtd">
<!-- Generated by graphviz version 2.38.0 (20140413.2041)
 -->
<!-- Title: %3 Pages: 1 -->
<svg width="1379pt" height="764pt"
 viewBox="0.00 0.00 1379.19 764.00" xmlns="http://www.w3.org/2000/svg" xmlns:xlink="http://www.w3.org/1999/xlink">
<g id="graph0" class="graph" transform="scale(1 1) rotate(0) translate(4 760)">
<title>%3</title>
<polygon fill="white" stroke="none" points="-4,4 -4,-760 1375.19,-760 1375.19,4 -4,4"/>
<!-- ExpConst9 -->
<g id="node1" class="node"><title>ExpConst9</title>
<ellipse fill="none" stroke="black" cx="1319.7" cy="-522" rx="50.0912" ry="18"/>
<text text-anchor="middle" x="1319.7" y="-518.3" font-family="Times,serif" font-size="14.00">ExpConst9</text>
</g>
<!-- Value9: 1 -->
<g id="node2" class="node"><title>Value9: 1</title>
<ellipse fill="none" stroke="black" cx="1325.7" cy="-450" rx="45.4919" ry="18"/>
<text text-anchor="middle" x="1325.7" y="-446.3" font-family="Times,serif" font-size="14.00">Value9: 1</text>
</g>
<!-- ExpConst9&#45;&gt;Value9: 1 -->
<g id="edge1" class="edge"><title>ExpConst9&#45;&gt;Value9: 1</title>
<path fill="none" stroke="black" d="M1321.18,-503.697C1321.84,-495.983 1322.63,-486.712 1323.37,-478.112"/>
<polygon fill="black" stroke="black" points="1326.86,-478.367 1324.23,-468.104 1319.89,-477.769 1326.86,-478.367"/>
</g>
<!-- StatMove3 -->
<g id="node3" class="node"><title>StatMove3</title>
<ellipse fill="none" stroke="black" cx="1196.7" cy="-594" rx="50.0912" ry="18"/>
<text text-anchor="middle" x="1196.7" y="-590.3" font-family="Times,serif" font-size="14.00">StatMove3</text>
</g>
<!-- StatMove3&#45;&gt;ExpConst9 -->
<g id="edge3" class="edge"><title>StatMove3&#45;&gt;ExpConst9</title>
<path fill="none" stroke="black" d="M1222.18,-578.496C1240.37,-568.147 1265.04,-554.107 1285.01,-542.739"/>
<polygon fill="black" stroke="black" points="1286.86,-545.714 1293.82,-537.726 1283.4,-539.631 1286.86,-545.714"/>
</g>
<!-- ExpTemp4 -->
<g id="node4" class="node"><title>ExpTemp4</title>
<ellipse fill="none" stroke="black" cx="1196.7" cy="-522" rx="50.0912" ry="18"/>
<text text-anchor="middle" x="1196.7" y="-518.3" font-family="Times,serif" font-size="14.00">ExpTemp4</text>
</g>
<!-- StatMove3&#45;&gt;ExpTemp4 -->
<g id="edge2" class="edge"><title>StatMove3&#45;&gt;ExpTemp4</title>
<path fill="none" stroke="black" d="M1196.7,-575.697C1196.7,-567.983 1196.7,-558.712 1196.7,-550.112"/>
<polygon fill="black" stroke="black" points="1200.2,-550.104 1196.7,-540.104 1193.2,-550.104 1200.2,-550.104"/>
</g>
<!-- Temp4: RetVal -->
<g id="node5" class="node"><title>Temp4: RetVal</title>
<ellipse fill="none" stroke="black" cx="1196.7" cy="-450" rx="65.7887" ry="18"/>
<text text-anchor="middle" x="1196.7" y="-446.3" font-family="Times,serif" font-size="14.00">Temp4: RetVal</text>
</g>
<!-- ExpTemp4&#45;&gt;Temp4: RetVal -->
<g id="edge4" class="edge"><title>ExpTemp4&#45;&gt;Temp4: RetVal</title>
<path fill="none" stroke="black" d="M1196.7,-503.697C1196.7,-495.983 1196.7,-486.712 1196.7,-478.112"/>
<polygon fill="black" stroke="black" points="1200.2,-478.104 1196.7,-468.104 1193.2,-478.104 1200.2,-478.104"/>
</g>
<!-- ExpConst8 -->
<g id="node6" class="node"><title>ExpConst8</title>
<ellipse fill="none" stroke="black" cx="1179.7" cy="-378" rx="50.0912" ry="18"/>
<text text-anchor="middle" x="1179.7" y="-374.3" font-family="Times,serif" font-size="14.00">ExpConst8</text>
</g>
<!-- Value8: 0 -->
<g id="node7" class="node"><title>Value8: 0</title>
<ellipse fill="none" stroke="black" cx="1179.7" cy="-306" rx="45.4919" ry="18"/>
<text text-anchor="middle" x="1179.7" y="-302.3" font-family="Times,serif" font-size="14.00">Value8: 0</text>
</g>
<!-- ExpConst8&#45;&gt;Value8: 0 -->
<g id="edge5" class="edge"><title>ExpConst8&#45;&gt;Value8: 0</title>
<path fill="none" stroke="black" d="M1179.7,-359.697C1179.7,-351.983 1179.7,-342.712 1179.7,-334.112"/>
<polygon fill="black" stroke="black" points="1183.2,-334.104 1179.7,-324.104 1176.2,-334.104 1183.2,-334.104"/>
</g>
<!-- StatMove2 -->
<g id="node8" class="node"><title>StatMove2</title>
<ellipse fill="none" stroke="black" cx="1062.7" cy="-450" rx="50.0912" ry="18"/>
<text text-anchor="middle" x="1062.7" y="-446.3" font-family="Times,serif" font-size="14.00">StatMove2</text>
</g>
<!-- StatMove2&#45;&gt;ExpConst8 -->
<g id="edge7" class="edge"><title>StatMove2&#45;&gt;ExpConst8</title>
<path fill="none" stroke="black" d="M1087.51,-434.155C1104.57,-423.946 1127.43,-410.267 1146.12,-399.086"/>
<polygon fill="black" stroke="black" points="1148.13,-401.962 1154.92,-393.824 1144.54,-395.955 1148.13,-401.962"/>
</g>
<!-- ExpMem5 -->
<g id="node9" class="node"><title>ExpMem5</title>
<ellipse fill="none" stroke="black" cx="1062.7" cy="-378" rx="48.9926" ry="18"/>
<text text-anchor="middle" x="1062.7" y="-374.3" font-family="Times,serif" font-size="14.00">ExpMem5</text>
</g>
<!-- StatMove2&#45;&gt;ExpMem5 -->
<g id="edge6" class="edge"><title>StatMove2&#45;&gt;ExpMem5</title>
<path fill="none" stroke="black" d="M1062.7,-431.697C1062.7,-423.983 1062.7,-414.712 1062.7,-406.112"/>
<polygon fill="black" stroke="black" points="1066.2,-406.104 1062.7,-396.104 1059.2,-406.104 1066.2,-406.104"/>
</g>
<!-- ExpBinary5 -->
<g id="node10" class="node"><title>ExpBinary5</title>
<ellipse fill="none" stroke="black" cx="1062.7" cy="-306" rx="53.0913" ry="18"/>
<text text-anchor="middle" x="1062.7" y="-302.3" font-family="Times,serif" font-size="14.00">ExpBinary5</text>
</g>
<!-- ExpMem5&#45;&gt;ExpBinary5 -->
<g id="edge15" class="edge"><title>ExpMem5&#45;&gt;ExpBinary5</title>
<path fill="none" stroke="black" d="M1062.7,-359.697C1062.7,-351.983 1062.7,-342.712 1062.7,-334.112"/>
<polygon fill="black" stroke="black" points="1066.2,-334.104 1062.7,-324.104 1059.2,-334.104 1066.2,-334.104"/>
</g>
<!-- ExpMem6 -->
<g id="node11" class="node"><title>ExpMem6</title>
<ellipse fill="none" stroke="black" cx="1045.7" cy="-234" rx="48.9926" ry="18"/>
<text text-anchor="middle" x="1045.7" y="-230.3" font-family="Times,serif" font-size="14.00">ExpMem6</text>
</g>
<!-- ExpBinary5&#45;&gt;ExpMem6 -->
<g id="edge8" class="edge"><title>ExpBinary5&#45;&gt;ExpMem6</title>
<path fill="none" stroke="black" d="M1058.49,-287.697C1056.6,-279.898 1054.32,-270.509 1052.21,-261.829"/>
<polygon fill="black" stroke="black" points="1055.61,-260.996 1049.85,-252.104 1048.81,-262.648 1055.61,-260.996"/>
</g>
<!-- Plus6 -->
<g id="node12" class="node"><title>Plus6</title>
<ellipse fill="none" stroke="black" cx="1142.7" cy="-234" rx="30.5947" ry="18"/>
<text text-anchor="middle" x="1142.7" y="-230.3" font-family="Times,serif" font-size="14.00">Plus6</text>
</g>
<!-- ExpBinary5&#45;&gt;Plus6 -->
<g id="edge9" class="edge"><title>ExpBinary5&#45;&gt;Plus6</title>
<path fill="none" stroke="black" d="M1081.25,-288.765C1092.35,-279.051 1106.58,-266.6 1118.55,-256.127"/>
<polygon fill="black" stroke="black" points="1121.19,-258.469 1126.41,-249.25 1116.58,-253.201 1121.19,-258.469"/>
</g>
<!-- ExpConst7 -->
<g id="node13" class="node"><title>ExpConst7</title>
<ellipse fill="none" stroke="black" cx="1241.7" cy="-234" rx="50.0912" ry="18"/>
<text text-anchor="middle" x="1241.7" y="-230.3" font-family="Times,serif" font-size="14.00">ExpConst7</text>
</g>
<!-- ExpBinary5&#45;&gt;ExpConst7 -->
<g id="edge10" class="edge"><title>ExpBinary5&#45;&gt;ExpConst7</title>
<path fill="none" stroke="black" d="M1096.36,-291.834C1125.64,-280.384 1168.19,-263.745 1199.69,-251.427"/>
<polygon fill="black" stroke="black" points="1201.05,-254.655 1209.08,-247.753 1198.5,-248.136 1201.05,-254.655"/>
</g>
<!-- ExpBinary6 -->
<g id="node14" class="node"><title>ExpBinary6</title>
<ellipse fill="none" stroke="black" cx="1045.7" cy="-162" rx="53.0913" ry="18"/>
<text text-anchor="middle" x="1045.7" y="-158.3" font-family="Times,serif" font-size="14.00">ExpBinary6</text>
</g>
<!-- ExpMem6&#45;&gt;ExpBinary6 -->
<g id="edge11" class="edge"><title>ExpMem6&#45;&gt;ExpBinary6</title>
<path fill="none" stroke="black" d="M1045.7,-215.697C1045.7,-207.983 1045.7,-198.712 1045.7,-190.112"/>
<polygon fill="black" stroke="black" points="1049.2,-190.104 1045.7,-180.104 1042.2,-190.104 1049.2,-190.104"/>
</g>
<!-- Value7: 12 -->
<g id="node52" class="node"><title>Value7: 12</title>
<ellipse fill="none" stroke="black" cx="1241.7" cy="-162" rx="50.0912" ry="18"/>
<text text-anchor="middle" x="1241.7" y="-158.3" font-family="Times,serif" font-size="14.00">Value7: 12</text>
</g>
<!-- ExpConst7&#45;&gt;Value7: 12 -->
<g id="edge47" class="edge"><title>ExpConst7&#45;&gt;Value7: 12</title>
<path fill="none" stroke="black" d="M1241.7,-215.697C1241.7,-207.983 1241.7,-198.712 1241.7,-190.112"/>
<polygon fill="black" stroke="black" points="1245.2,-190.104 1241.7,-180.104 1238.2,-190.104 1245.2,-190.104"/>
</g>
<!-- ExpTemp3 -->
<g id="node15" class="node"><title>ExpTemp3</title>
<ellipse fill="none" stroke="black" cx="947.696" cy="-90" rx="50.0912" ry="18"/>
<text text-anchor="middle" x="947.696" y="-86.3" font-family="Times,serif" font-size="14.00">ExpTemp3</text>
</g>
<!-- ExpBinary6&#45;&gt;ExpTemp3 -->
<g id="edge20" class="edge"><title>ExpBinary6&#45;&gt;ExpTemp3</title>
<path fill="none" stroke="black" d="M1023.95,-145.465C1010.37,-135.768 992.702,-123.148 977.792,-112.498"/>
<polygon fill="black" stroke="black" points="979.556,-109.456 969.384,-106.492 975.487,-115.152 979.556,-109.456"/>
</g>
<!-- Plus5 -->
<g id="node24" class="node"><title>Plus5</title>
<ellipse fill="none" stroke="black" cx="1046.7" cy="-90" rx="30.5947" ry="18"/>
<text text-anchor="middle" x="1046.7" y="-86.3" font-family="Times,serif" font-size="14.00">Plus5</text>
</g>
<!-- ExpBinary6&#45;&gt;Plus5 -->
<g id="edge21" class="edge"><title>ExpBinary6&#45;&gt;Plus5</title>
<path fill="none" stroke="black" d="M1045.94,-143.697C1046.05,-135.983 1046.19,-126.712 1046.31,-118.112"/>
<polygon fill="black" stroke="black" points="1049.81,-118.153 1046.45,-108.104 1042.81,-118.053 1049.81,-118.153"/>
</g>
<!-- ExpConst6 -->
<g id="node25" class="node"><title>ExpConst6</title>
<ellipse fill="none" stroke="black" cx="1145.7" cy="-90" rx="50.0912" ry="18"/>
<text text-anchor="middle" x="1145.7" y="-86.3" font-family="Times,serif" font-size="14.00">ExpConst6</text>
</g>
<!-- ExpBinary6&#45;&gt;ExpConst6 -->
<g id="edge22" class="edge"><title>ExpBinary6&#45;&gt;ExpConst6</title>
<path fill="none" stroke="black" d="M1067.89,-145.465C1081.84,-135.7 1100.02,-122.972 1115.3,-112.276"/>
<polygon fill="black" stroke="black" points="1117.72,-114.853 1123.91,-106.251 1113.71,-109.118 1117.72,-114.853"/>
</g>
<!-- Temp3: FP -->
<g id="node16" class="node"><title>Temp3: FP</title>
<ellipse fill="none" stroke="black" cx="947.696" cy="-18" rx="50.8918" ry="18"/>
<text text-anchor="middle" x="947.696" y="-14.3" font-family="Times,serif" font-size="14.00">Temp3: FP</text>
</g>
<!-- ExpTemp3&#45;&gt;Temp3: FP -->
<g id="edge12" class="edge"><title>ExpTemp3&#45;&gt;Temp3: FP</title>
<path fill="none" stroke="black" d="M947.696,-71.6966C947.696,-63.9827 947.696,-54.7125 947.696,-46.1124"/>
<polygon fill="black" stroke="black" points="951.196,-46.1043 947.696,-36.1043 944.196,-46.1044 951.196,-46.1043"/>
</g>
<!-- StatSeq3 -->
<g id="node17" class="node"><title>StatSeq3</title>
<ellipse fill="none" stroke="black" cx="1003.7" cy="-522" rx="42.4939" ry="18"/>
<text text-anchor="middle" x="1003.7" y="-518.3" font-family="Times,serif" font-size="14.00">StatSeq3</text>
</g>
<!-- StatSeq3&#45;&gt;StatMove2 -->
<g id="edge14" class="edge"><title>StatSeq3&#45;&gt;StatMove2</title>
<path fill="none" stroke="black" d="M1017.38,-504.765C1024.72,-496.056 1033.91,-485.147 1042.1,-475.435"/>
<polygon fill="black" stroke="black" points="1044.91,-477.535 1048.68,-467.633 1039.55,-473.024 1044.91,-477.535"/>
</g>
<!-- StatMove1 -->
<g id="node18" class="node"><title>StatMove1</title>
<ellipse fill="none" stroke="black" cx="944.696" cy="-450" rx="50.0912" ry="18"/>
<text text-anchor="middle" x="944.696" y="-446.3" font-family="Times,serif" font-size="14.00">StatMove1</text>
</g>
<!-- StatSeq3&#45;&gt;StatMove1 -->
<g id="edge13" class="edge"><title>StatSeq3&#45;&gt;StatMove1</title>
<path fill="none" stroke="black" d="M990.011,-504.765C982.671,-496.056 973.476,-485.147 965.291,-475.435"/>
<polygon fill="black" stroke="black" points="967.836,-473.024 958.715,-467.633 962.484,-477.535 967.836,-473.024"/>
</g>
<!-- ExpMem3 -->
<g id="node19" class="node"><title>ExpMem3</title>
<ellipse fill="none" stroke="black" cx="828.696" cy="-378" rx="48.9926" ry="18"/>
<text text-anchor="middle" x="828.696" y="-374.3" font-family="Times,serif" font-size="14.00">ExpMem3</text>
</g>
<!-- StatMove1&#45;&gt;ExpMem3 -->
<g id="edge16" class="edge"><title>StatMove1&#45;&gt;ExpMem3</title>
<path fill="none" stroke="black" d="M920.095,-434.155C903.178,-423.946 880.51,-410.267 861.981,-399.086"/>
<polygon fill="black" stroke="black" points="863.631,-395.994 853.261,-393.824 860.014,-401.987 863.631,-395.994"/>
</g>
<!-- ExpConst5 -->
<g id="node20" class="node"><title>ExpConst5</title>
<ellipse fill="none" stroke="black" cx="945.696" cy="-378" rx="50.0912" ry="18"/>
<text text-anchor="middle" x="945.696" y="-374.3" font-family="Times,serif" font-size="14.00">ExpConst5</text>
</g>
<!-- StatMove1&#45;&gt;ExpConst5 -->
<g id="edge17" class="edge"><title>StatMove1&#45;&gt;ExpConst5</title>
<path fill="none" stroke="black" d="M944.943,-431.697C945.053,-423.983 945.185,-414.712 945.308,-406.112"/>
<polygon fill="black" stroke="black" points="948.808,-406.153 945.451,-396.104 941.809,-406.053 948.808,-406.153"/>
</g>
<!-- ExpBinary3 -->
<g id="node31" class="node"><title>ExpBinary3</title>
<ellipse fill="none" stroke="black" cx="828.696" cy="-306" rx="53.0913" ry="18"/>
<text text-anchor="middle" x="828.696" y="-302.3" font-family="Times,serif" font-size="14.00">ExpBinary3</text>
</g>
<!-- ExpMem3&#45;&gt;ExpBinary3 -->
<g id="edge27" class="edge"><title>ExpMem3&#45;&gt;ExpBinary3</title>
<path fill="none" stroke="black" d="M828.696,-359.697C828.696,-351.983 828.696,-342.712 828.696,-334.112"/>
<polygon fill="black" stroke="black" points="832.196,-334.104 828.696,-324.104 825.196,-334.104 832.196,-334.104"/>
</g>
<!-- Value5: 0 -->
<g id="node38" class="node"><title>Value5: 0</title>
<ellipse fill="none" stroke="black" cx="945.696" cy="-306" rx="45.4919" ry="18"/>
<text text-anchor="middle" x="945.696" y="-302.3" font-family="Times,serif" font-size="14.00">Value5: 0</text>
</g>
<!-- ExpConst5&#45;&gt;Value5: 0 -->
<g id="edge33" class="edge"><title>ExpConst5&#45;&gt;Value5: 0</title>
<path fill="none" stroke="black" d="M945.696,-359.697C945.696,-351.983 945.696,-342.712 945.696,-334.112"/>
<polygon fill="black" stroke="black" points="949.196,-334.104 945.696,-324.104 942.196,-334.104 949.196,-334.104"/>
</g>
<!-- StatMove0 -->
<g id="node21" class="node"><title>StatMove0</title>
<ellipse fill="none" stroke="black" cx="562.696" cy="-522" rx="50.0912" ry="18"/>
<text text-anchor="middle" x="562.696" y="-518.3" font-family="Times,serif" font-size="14.00">StatMove0</text>
</g>
<!-- ExpMem0 -->
<g id="node22" class="node"><title>ExpMem0</title>
<ellipse fill="none" stroke="black" cx="347.696" cy="-450" rx="48.9926" ry="18"/>
<text text-anchor="middle" x="347.696" y="-446.3" font-family="Times,serif" font-size="14.00">ExpMem0</text>
</g>
<!-- StatMove0&#45;&gt;ExpMem0 -->
<g id="edge18" class="edge"><title>StatMove0&#45;&gt;ExpMem0</title>
<path fill="none" stroke="black" d="M526.709,-509.284C489.902,-497.3 432.623,-478.651 392.807,-465.687"/>
<polygon fill="black" stroke="black" points="393.676,-462.29 383.084,-462.522 391.509,-468.946 393.676,-462.29"/>
</g>
<!-- ExpMem2 -->
<g id="node23" class="node"><title>ExpMem2</title>
<ellipse fill="none" stroke="black" cx="562.696" cy="-450" rx="48.9926" ry="18"/>
<text text-anchor="middle" x="562.696" y="-446.3" font-family="Times,serif" font-size="14.00">ExpMem2</text>
</g>
<!-- StatMove0&#45;&gt;ExpMem2 -->
<g id="edge19" class="edge"><title>StatMove0&#45;&gt;ExpMem2</title>
<path fill="none" stroke="black" d="M562.696,-503.697C562.696,-495.983 562.696,-486.712 562.696,-478.112"/>
<polygon fill="black" stroke="black" points="566.196,-478.104 562.696,-468.104 559.196,-478.104 566.196,-478.104"/>
</g>
<!-- ExpBinary0 -->
<g id="node26" class="node"><title>ExpBinary0</title>
<ellipse fill="none" stroke="black" cx="296.696" cy="-378" rx="53.0913" ry="18"/>
<text text-anchor="middle" x="296.696" y="-374.3" font-family="Times,serif" font-size="14.00">ExpBinary0</text>
</g>
<!-- ExpMem0&#45;&gt;ExpBinary0 -->
<g id="edge23" class="edge"><title>ExpMem0&#45;&gt;ExpBinary0</title>
<path fill="none" stroke="black" d="M335.609,-432.411C329.475,-423.992 321.893,-413.585 315.056,-404.201"/>
<polygon fill="black" stroke="black" points="317.767,-401.978 309.049,-395.956 312.109,-406.1 317.767,-401.978"/>
</g>
<!-- ExpBinary2 -->
<g id="node37" class="node"><title>ExpBinary2</title>
<ellipse fill="none" stroke="black" cx="562.696" cy="-378" rx="53.0913" ry="18"/>
<text text-anchor="middle" x="562.696" y="-374.3" font-family="Times,serif" font-size="14.00">ExpBinary2</text>
</g>
<!-- ExpMem2&#45;&gt;ExpBinary2 -->
<g id="edge32" class="edge"><title>ExpMem2&#45;&gt;ExpBinary2</title>
<path fill="none" stroke="black" d="M562.696,-431.697C562.696,-423.983 562.696,-414.712 562.696,-406.112"/>
<polygon fill="black" stroke="black" points="566.196,-406.104 562.696,-396.104 559.196,-406.104 566.196,-406.104"/>
</g>
<!-- Value6: 0 -->
<g id="node55" class="node"><title>Value6: 0</title>
<ellipse fill="none" stroke="black" cx="1145.7" cy="-18" rx="45.4919" ry="18"/>
<text text-anchor="middle" x="1145.7" y="-14.3" font-family="Times,serif" font-size="14.00">Value6: 0</text>
</g>
<!-- ExpConst6&#45;&gt;Value6: 0 -->
<g id="edge49" class="edge"><title>ExpConst6&#45;&gt;Value6: 0</title>
<path fill="none" stroke="black" d="M1145.7,-71.6966C1145.7,-63.9827 1145.7,-54.7125 1145.7,-46.1124"/>
<polygon fill="black" stroke="black" points="1149.2,-46.1043 1145.7,-36.1043 1142.2,-46.1044 1149.2,-46.1043"/>
</g>
<!-- ExpMem1 -->
<g id="node32" class="node"><title>ExpMem1</title>
<ellipse fill="none" stroke="black" cx="149.696" cy="-306" rx="48.9926" ry="18"/>
<text text-anchor="middle" x="149.696" y="-302.3" font-family="Times,serif" font-size="14.00">ExpMem1</text>
</g>
<!-- ExpBinary0&#45;&gt;ExpMem1 -->
<g id="edge56" class="edge"><title>ExpBinary0&#45;&gt;ExpMem1</title>
<path fill="none" stroke="black" d="M266.948,-362.834C244.036,-351.924 212.205,-336.766 187.489,-324.997"/>
<polygon fill="black" stroke="black" points="188.932,-321.807 178.398,-320.668 185.922,-328.127 188.932,-321.807"/>
</g>
<!-- ExpConst1 -->
<g id="node44" class="node"><title>ExpConst1</title>
<ellipse fill="none" stroke="black" cx="345.696" cy="-306" rx="50.0912" ry="18"/>
<text text-anchor="middle" x="345.696" y="-302.3" font-family="Times,serif" font-size="14.00">ExpConst1</text>
</g>
<!-- ExpBinary0&#45;&gt;ExpConst1 -->
<g id="edge58" class="edge"><title>ExpBinary0&#45;&gt;ExpConst1</title>
<path fill="none" stroke="black" d="M308.308,-360.411C314.201,-351.992 321.486,-341.585 328.055,-332.201"/>
<polygon fill="black" stroke="black" points="330.959,-334.156 333.826,-323.956 325.224,-330.141 330.959,-334.156"/>
</g>
<!-- Plus1 -->
<g id="node60" class="node"><title>Plus1</title>
<ellipse fill="none" stroke="black" cx="246.696" cy="-306" rx="30.5947" ry="18"/>
<text text-anchor="middle" x="246.696" y="-302.3" font-family="Times,serif" font-size="14.00">Plus1</text>
</g>
<!-- ExpBinary0&#45;&gt;Plus1 -->
<g id="edge57" class="edge"><title>ExpBinary0&#45;&gt;Plus1</title>
<path fill="none" stroke="black" d="M284.846,-360.411C278.655,-351.744 270.961,-340.971 264.107,-331.375"/>
<polygon fill="black" stroke="black" points="266.776,-329.091 258.116,-322.988 261.08,-333.16 266.776,-329.091"/>
</g>
<!-- ExpBinary1 -->
<g id="node27" class="node"><title>ExpBinary1</title>
<ellipse fill="none" stroke="black" cx="149.696" cy="-234" rx="53.0913" ry="18"/>
<text text-anchor="middle" x="149.696" y="-230.3" font-family="Times,serif" font-size="14.00">ExpBinary1</text>
</g>
<!-- ExpTemp0 -->
<g id="node28" class="node"><title>ExpTemp0</title>
<ellipse fill="none" stroke="black" cx="50.6955" cy="-162" rx="50.0912" ry="18"/>
<text text-anchor="middle" x="50.6955" y="-158.3" font-family="Times,serif" font-size="14.00">ExpTemp0</text>
</g>
<!-- ExpBinary1&#45;&gt;ExpTemp0 -->
<g id="edge24" class="edge"><title>ExpBinary1&#45;&gt;ExpTemp0</title>
<path fill="none" stroke="black" d="M127.724,-217.465C113.915,-207.7 95.9136,-194.972 80.7861,-184.276"/>
<polygon fill="black" stroke="black" points="82.4506,-181.167 72.2648,-178.251 78.4092,-186.882 82.4506,-181.167"/>
</g>
<!-- Plus0 -->
<g id="node29" class="node"><title>Plus0</title>
<ellipse fill="none" stroke="black" cx="149.696" cy="-162" rx="30.5947" ry="18"/>
<text text-anchor="middle" x="149.696" y="-158.3" font-family="Times,serif" font-size="14.00">Plus0</text>
</g>
<!-- ExpBinary1&#45;&gt;Plus0 -->
<g id="edge25" class="edge"><title>ExpBinary1&#45;&gt;Plus0</title>
<path fill="none" stroke="black" d="M149.696,-215.697C149.696,-207.983 149.696,-198.712 149.696,-190.112"/>
<polygon fill="black" stroke="black" points="153.196,-190.104 149.696,-180.104 146.196,-190.104 153.196,-190.104"/>
</g>
<!-- ExpConst0 -->
<g id="node30" class="node"><title>ExpConst0</title>
<ellipse fill="none" stroke="black" cx="248.696" cy="-162" rx="50.0912" ry="18"/>
<text text-anchor="middle" x="248.696" y="-158.3" font-family="Times,serif" font-size="14.00">ExpConst0</text>
</g>
<!-- ExpBinary1&#45;&gt;ExpConst0 -->
<g id="edge26" class="edge"><title>ExpBinary1&#45;&gt;ExpConst0</title>
<path fill="none" stroke="black" d="M171.667,-217.465C185.476,-207.7 203.477,-194.972 218.605,-184.276"/>
<polygon fill="black" stroke="black" points="220.982,-186.882 227.126,-178.251 216.94,-181.167 220.982,-186.882"/>
</g>
<!-- Temp0: FP -->
<g id="node36" class="node"><title>Temp0: FP</title>
<ellipse fill="none" stroke="black" cx="50.6955" cy="-90" rx="50.8918" ry="18"/>
<text text-anchor="middle" x="50.6955" y="-86.3" font-family="Times,serif" font-size="14.00">Temp0: FP</text>
</g>
<!-- ExpTemp0&#45;&gt;Temp0: FP -->
<g id="edge31" class="edge"><title>ExpTemp0&#45;&gt;Temp0: FP</title>
<path fill="none" stroke="black" d="M50.6955,-143.697C50.6955,-135.983 50.6955,-126.712 50.6955,-118.112"/>
<polygon fill="black" stroke="black" points="54.1956,-118.104 50.6955,-108.104 47.1956,-118.104 54.1956,-118.104"/>
</g>
<!-- Value0: 0 -->
<g id="node33" class="node"><title>Value0: 0</title>
<ellipse fill="none" stroke="black" cx="248.696" cy="-90" rx="45.4919" ry="18"/>
<text text-anchor="middle" x="248.696" y="-86.3" font-family="Times,serif" font-size="14.00">Value0: 0</text>
</g>
<!-- ExpConst0&#45;&gt;Value0: 0 -->
<g id="edge29" class="edge"><title>ExpConst0&#45;&gt;Value0: 0</title>
<path fill="none" stroke="black" d="M248.696,-143.697C248.696,-135.983 248.696,-126.712 248.696,-118.112"/>
<polygon fill="black" stroke="black" points="252.196,-118.104 248.696,-108.104 245.196,-118.104 252.196,-118.104"/>
</g>
<!-- ExpMem4 -->
<g id="node39" class="node"><title>ExpMem4</title>
<ellipse fill="none" stroke="black" cx="731.696" cy="-234" rx="48.9926" ry="18"/>
<text text-anchor="middle" x="731.696" y="-230.3" font-family="Times,serif" font-size="14.00">ExpMem4</text>
</g>
<!-- ExpBinary3&#45;&gt;ExpMem4 -->
<g id="edge34" class="edge"><title>ExpBinary3&#45;&gt;ExpMem4</title>
<path fill="none" stroke="black" d="M807.168,-289.465C793.637,-279.7 776,-266.972 761.178,-256.276"/>
<polygon fill="black" stroke="black" points="762.986,-253.265 752.829,-250.251 758.89,-258.941 762.986,-253.265"/>
</g>
<!-- Plus4 -->
<g id="node40" class="node"><title>Plus4</title>
<ellipse fill="none" stroke="black" cx="828.696" cy="-234" rx="30.5947" ry="18"/>
<text text-anchor="middle" x="828.696" y="-230.3" font-family="Times,serif" font-size="14.00">Plus4</text>
</g>
<!-- ExpBinary3&#45;&gt;Plus4 -->
<g id="edge35" class="edge"><title>ExpBinary3&#45;&gt;Plus4</title>
<path fill="none" stroke="black" d="M828.696,-287.697C828.696,-279.983 828.696,-270.712 828.696,-262.112"/>
<polygon fill="black" stroke="black" points="832.196,-262.104 828.696,-252.104 825.196,-262.104 832.196,-262.104"/>
</g>
<!-- ExpConst4 -->
<g id="node41" class="node"><title>ExpConst4</title>
<ellipse fill="none" stroke="black" cx="927.696" cy="-234" rx="50.0912" ry="18"/>
<text text-anchor="middle" x="927.696" y="-230.3" font-family="Times,serif" font-size="14.00">ExpConst4</text>
</g>
<!-- ExpBinary3&#45;&gt;ExpConst4 -->
<g id="edge36" class="edge"><title>ExpBinary3&#45;&gt;ExpConst4</title>
<path fill="none" stroke="black" d="M850.667,-289.465C864.476,-279.7 882.477,-266.972 897.605,-256.276"/>
<polygon fill="black" stroke="black" points="899.982,-258.882 906.126,-250.251 895.94,-253.167 899.982,-258.882"/>
</g>
<!-- ExpMem1&#45;&gt;ExpBinary1 -->
<g id="edge28" class="edge"><title>ExpMem1&#45;&gt;ExpBinary1</title>
<path fill="none" stroke="black" d="M149.696,-287.697C149.696,-279.983 149.696,-270.712 149.696,-262.112"/>
<polygon fill="black" stroke="black" points="153.196,-262.104 149.696,-252.104 146.196,-262.104 153.196,-262.104"/>
</g>
<!-- StatLabel0 -->
<g id="node34" class="node"><title>StatLabel0</title>
<ellipse fill="none" stroke="black" cx="882.696" cy="-666" rx="48.9926" ry="18"/>
<text text-anchor="middle" x="882.696" y="-662.3" font-family="Times,serif" font-size="14.00">StatLabel0</text>
</g>
<!-- Label0: Tree::Init -->
<g id="node35" class="node"><title>Label0: Tree::Init</title>
<ellipse fill="none" stroke="black" cx="869.696" cy="-594" rx="73.387" ry="18"/>
<text text-anchor="middle" x="869.696" y="-590.3" font-family="Times,serif" font-size="14.00">Label0: Tree::Init</text>
</g>
<!-- StatLabel0&#45;&gt;Label0: Tree::Init -->
<g id="edge30" class="edge"><title>StatLabel0&#45;&gt;Label0: Tree::Init</title>
<path fill="none" stroke="black" d="M879.482,-647.697C878.049,-639.983 876.328,-630.712 874.731,-622.112"/>
<polygon fill="black" stroke="black" points="878.139,-621.297 872.872,-612.104 871.257,-622.575 878.139,-621.297"/>
</g>
<!-- ExpTemp1 -->
<g id="node47" class="node"><title>ExpTemp1</title>
<ellipse fill="none" stroke="black" cx="463.696" cy="-306" rx="50.0912" ry="18"/>
<text text-anchor="middle" x="463.696" y="-302.3" font-family="Times,serif" font-size="14.00">ExpTemp1</text>
</g>
<!-- ExpBinary2&#45;&gt;ExpTemp1 -->
<g id="edge43" class="edge"><title>ExpBinary2&#45;&gt;ExpTemp1</title>
<path fill="none" stroke="black" d="M540.724,-361.465C526.915,-351.7 508.914,-338.972 493.786,-328.276"/>
<polygon fill="black" stroke="black" points="495.451,-325.167 485.265,-322.251 491.409,-330.882 495.451,-325.167"/>
</g>
<!-- Plus2 -->
<g id="node49" class="node"><title>Plus2</title>
<ellipse fill="none" stroke="black" cx="562.696" cy="-306" rx="30.5947" ry="18"/>
<text text-anchor="middle" x="562.696" y="-302.3" font-family="Times,serif" font-size="14.00">Plus2</text>
</g>
<!-- ExpBinary2&#45;&gt;Plus2 -->
<g id="edge44" class="edge"><title>ExpBinary2&#45;&gt;Plus2</title>
<path fill="none" stroke="black" d="M562.696,-359.697C562.696,-351.983 562.696,-342.712 562.696,-334.112"/>
<polygon fill="black" stroke="black" points="566.196,-334.104 562.696,-324.104 559.196,-334.104 566.196,-334.104"/>
</g>
<!-- ExpConst2 -->
<g id="node50" class="node"><title>ExpConst2</title>
<ellipse fill="none" stroke="black" cx="661.696" cy="-306" rx="50.0912" ry="18"/>
<text text-anchor="middle" x="661.696" y="-302.3" font-family="Times,serif" font-size="14.00">ExpConst2</text>
</g>
<!-- ExpBinary2&#45;&gt;ExpConst2 -->
<g id="edge45" class="edge"><title>ExpBinary2&#45;&gt;ExpConst2</title>
<path fill="none" stroke="black" d="M584.667,-361.465C598.476,-351.7 616.477,-338.972 631.605,-328.276"/>
<polygon fill="black" stroke="black" points="633.982,-330.882 640.126,-322.251 629.94,-325.167 633.982,-330.882"/>
</g>
<!-- ExpBinary4 -->
<g id="node58" class="node"><title>ExpBinary4</title>
<ellipse fill="none" stroke="black" cx="730.696" cy="-162" rx="53.0913" ry="18"/>
<text text-anchor="middle" x="730.696" y="-158.3" font-family="Times,serif" font-size="14.00">ExpBinary4</text>
</g>
<!-- ExpMem4&#45;&gt;ExpBinary4 -->
<g id="edge59" class="edge"><title>ExpMem4&#45;&gt;ExpBinary4</title>
<path fill="none" stroke="black" d="M731.448,-215.697C731.338,-207.983 731.206,-198.712 731.083,-190.112"/>
<polygon fill="black" stroke="black" points="734.582,-190.053 730.94,-180.104 727.583,-190.153 734.582,-190.053"/>
</g>
<!-- Value4: 0 -->
<g id="node61" class="node"><title>Value4: 0</title>
<ellipse fill="none" stroke="black" cx="927.696" cy="-162" rx="45.4919" ry="18"/>
<text text-anchor="middle" x="927.696" y="-158.3" font-family="Times,serif" font-size="14.00">Value4: 0</text>
</g>
<!-- ExpConst4&#45;&gt;Value4: 0 -->
<g id="edge60" class="edge"><title>ExpConst4&#45;&gt;Value4: 0</title>
<path fill="none" stroke="black" d="M927.696,-215.697C927.696,-207.983 927.696,-198.712 927.696,-190.112"/>
<polygon fill="black" stroke="black" points="931.196,-190.104 927.696,-180.104 924.196,-190.104 931.196,-190.104"/>
</g>
<!-- StatSeq1 -->
<g id="node42" class="node"><title>StatSeq1</title>
<ellipse fill="none" stroke="black" cx="1003.7" cy="-666" rx="42.4939" ry="18"/>
<text text-anchor="middle" x="1003.7" y="-662.3" font-family="Times,serif" font-size="14.00">StatSeq1</text>
</g>
<!-- StatSeq1&#45;&gt;StatMove3 -->
<g id="edge38" class="edge"><title>StatSeq1&#45;&gt;StatMove3</title>
<path fill="none" stroke="black" d="M1034.7,-653.753C1066.75,-642.131 1117.03,-623.892 1153.08,-610.819"/>
<polygon fill="black" stroke="black" points="1154.63,-613.979 1162.84,-607.279 1152.25,-607.398 1154.63,-613.979"/>
</g>
<!-- StatSeq2 -->
<g id="node43" class="node"><title>StatSeq2</title>
<ellipse fill="none" stroke="black" cx="1003.7" cy="-594" rx="42.4939" ry="18"/>
<text text-anchor="middle" x="1003.7" y="-590.3" font-family="Times,serif" font-size="14.00">StatSeq2</text>
</g>
<!-- StatSeq1&#45;&gt;StatSeq2 -->
<g id="edge37" class="edge"><title>StatSeq1&#45;&gt;StatSeq2</title>
<path fill="none" stroke="black" d="M1003.7,-647.697C1003.7,-639.983 1003.7,-630.712 1003.7,-622.112"/>
<polygon fill="black" stroke="black" points="1007.2,-622.104 1003.7,-612.104 1000.2,-622.104 1007.2,-622.104"/>
</g>
<!-- StatSeq2&#45;&gt;StatSeq3 -->
<g id="edge51" class="edge"><title>StatSeq2&#45;&gt;StatSeq3</title>
<path fill="none" stroke="black" d="M1003.7,-575.697C1003.7,-567.983 1003.7,-558.712 1003.7,-550.112"/>
<polygon fill="black" stroke="black" points="1007.2,-550.104 1003.7,-540.104 1000.2,-550.104 1007.2,-550.104"/>
</g>
<!-- StatSeq2&#45;&gt;StatMove0 -->
<g id="edge50" class="edge"><title>StatSeq2&#45;&gt;StatMove0</title>
<path fill="none" stroke="black" d="M972.329,-581.737C965.585,-579.601 958.453,-577.552 951.696,-576 836.224,-549.487 698.217,-534.544 621.516,-527.682"/>
<polygon fill="black" stroke="black" points="621.377,-524.156 611.109,-526.767 620.764,-531.129 621.377,-524.156"/>
</g>
<!-- Value1: 4 -->
<g id="node45" class="node"><title>Value1: 4</title>
<ellipse fill="none" stroke="black" cx="345.696" cy="-234" rx="45.4919" ry="18"/>
<text text-anchor="middle" x="345.696" y="-230.3" font-family="Times,serif" font-size="14.00">Value1: 4</text>
</g>
<!-- ExpConst1&#45;&gt;Value1: 4 -->
<g id="edge39" class="edge"><title>ExpConst1&#45;&gt;Value1: 4</title>
<path fill="none" stroke="black" d="M345.696,-287.697C345.696,-279.983 345.696,-270.712 345.696,-262.112"/>
<polygon fill="black" stroke="black" points="349.196,-262.104 345.696,-252.104 342.196,-262.104 349.196,-262.104"/>
</g>
<!-- StatSeq0 -->
<g id="node46" class="node"><title>StatSeq0</title>
<ellipse fill="none" stroke="black" cx="942.696" cy="-738" rx="42.4939" ry="18"/>
<text text-anchor="middle" x="942.696" y="-734.3" font-family="Times,serif" font-size="14.00">StatSeq0</text>
</g>
<!-- StatSeq0&#45;&gt;StatLabel0 -->
<g id="edge40" class="edge"><title>StatSeq0&#45;&gt;StatLabel0</title>
<path fill="none" stroke="black" d="M928.779,-720.765C921.315,-712.056 911.964,-701.147 903.64,-691.435"/>
<polygon fill="black" stroke="black" points="906.118,-688.948 896.953,-683.633 900.803,-693.504 906.118,-688.948"/>
</g>
<!-- StatSeq0&#45;&gt;StatSeq1 -->
<g id="edge41" class="edge"><title>StatSeq0&#45;&gt;StatSeq1</title>
<path fill="none" stroke="black" d="M956.843,-720.765C964.619,-711.841 974.409,-700.608 983.026,-690.719"/>
<polygon fill="black" stroke="black" points="985.693,-692.986 989.624,-683.147 980.416,-688.387 985.693,-692.986"/>
</g>
<!-- Temp1: FP -->
<g id="node48" class="node"><title>Temp1: FP</title>
<ellipse fill="none" stroke="black" cx="463.696" cy="-234" rx="50.8918" ry="18"/>
<text text-anchor="middle" x="463.696" y="-230.3" font-family="Times,serif" font-size="14.00">Temp1: FP</text>
</g>
<!-- ExpTemp1&#45;&gt;Temp1: FP -->
<g id="edge42" class="edge"><title>ExpTemp1&#45;&gt;Temp1: FP</title>
<path fill="none" stroke="black" d="M463.696,-287.697C463.696,-279.983 463.696,-270.712 463.696,-262.112"/>
<polygon fill="black" stroke="black" points="467.196,-262.104 463.696,-252.104 460.196,-262.104 467.196,-262.104"/>
</g>
<!-- Value2: 4 -->
<g id="node51" class="node"><title>Value2: 4</title>
<ellipse fill="none" stroke="black" cx="619.696" cy="-234" rx="45.4919" ry="18"/>
<text text-anchor="middle" x="619.696" y="-230.3" font-family="Times,serif" font-size="14.00">Value2: 4</text>
</g>
<!-- ExpConst2&#45;&gt;Value2: 4 -->
<g id="edge46" class="edge"><title>ExpConst2&#45;&gt;Value2: 4</title>
<path fill="none" stroke="black" d="M651.528,-288.055C646.576,-279.801 640.516,-269.701 635.018,-260.538"/>
<polygon fill="black" stroke="black" points="637.915,-258.563 629.769,-251.789 631.913,-262.165 637.915,-258.563"/>
</g>
<!-- ExpConst3 -->
<g id="node53" class="node"><title>ExpConst3</title>
<ellipse fill="none" stroke="black" cx="829.696" cy="-90" rx="50.0912" ry="18"/>
<text text-anchor="middle" x="829.696" y="-86.3" font-family="Times,serif" font-size="14.00">ExpConst3</text>
</g>
<!-- Value3: 0 -->
<g id="node54" class="node"><title>Value3: 0</title>
<ellipse fill="none" stroke="black" cx="829.696" cy="-18" rx="45.4919" ry="18"/>
<text text-anchor="middle" x="829.696" y="-14.3" font-family="Times,serif" font-size="14.00">Value3: 0</text>
</g>
<!-- ExpConst3&#45;&gt;Value3: 0 -->
<g id="edge48" class="edge"><title>ExpConst3&#45;&gt;Value3: 0</title>
<path fill="none" stroke="black" d="M829.696,-71.6966C829.696,-63.9827 829.696,-54.7125 829.696,-46.1124"/>
<polygon fill="black" stroke="black" points="833.196,-46.1043 829.696,-36.1043 826.196,-46.1044 833.196,-46.1043"/>
</g>
<!-- ExpTemp2 -->
<g id="node56" class="node"><title>ExpTemp2</title>
<ellipse fill="none" stroke="black" cx="631.696" cy="-90" rx="50.0912" ry="18"/>
<text text-anchor="middle" x="631.696" y="-86.3" font-family="Times,serif" font-size="14.00">ExpTemp2</text>
</g>
<!-- Temp2: FP -->
<g id="node57" class="node"><title>Temp2: FP</title>
<ellipse fill="none" stroke="black" cx="631.696" cy="-18" rx="50.8918" ry="18"/>
<text text-anchor="middle" x="631.696" y="-14.3" font-family="Times,serif" font-size="14.00">Temp2: FP</text>
</g>
<!-- ExpTemp2&#45;&gt;Temp2: FP -->
<g id="edge52" class="edge"><title>ExpTemp2&#45;&gt;Temp2: FP</title>
<path fill="none" stroke="black" d="M631.696,-71.6966C631.696,-63.9827 631.696,-54.7125 631.696,-46.1124"/>
<polygon fill="black" stroke="black" points="635.196,-46.1043 631.696,-36.1043 628.196,-46.1044 635.196,-46.1043"/>
</g>
<!-- ExpBinary4&#45;&gt;ExpConst3 -->
<g id="edge55" class="edge"><title>ExpBinary4&#45;&gt;ExpConst3</title>
<path fill="none" stroke="black" d="M752.667,-145.465C766.476,-135.7 784.477,-122.972 799.605,-112.276"/>
<polygon fill="black" stroke="black" points="801.982,-114.882 808.126,-106.251 797.94,-109.167 801.982,-114.882"/>
</g>
<!-- ExpBinary4&#45;&gt;ExpTemp2 -->
<g id="edge53" class="edge"><title>ExpBinary4&#45;&gt;ExpTemp2</title>
<path fill="none" stroke="black" d="M708.724,-145.465C694.915,-135.7 676.914,-122.972 661.786,-112.276"/>
<polygon fill="black" stroke="black" points="663.451,-109.167 653.265,-106.251 659.409,-114.882 663.451,-109.167"/>
</g>
<!-- Plus3 -->
<g id="node59" class="node"><title>Plus3</title>
<ellipse fill="none" stroke="black" cx="730.696" cy="-90" rx="30.5947" ry="18"/>
<text text-anchor="middle" x="730.696" y="-86.3" font-family="Times,serif" font-size="14.00">Plus3</text>
</g>
<!-- ExpBinary4&#45;&gt;Plus3 -->
<g id="edge54" class="edge"><title>ExpBinary4&#45;&gt;Plus3</title>
<path fill="none" stroke="black" d="M730.696,-143.697C730.696,-135.983 730.696,-126.712 730.696,-118.112"/>
<polygon fill="black" stroke="black" points="734.196,-118.104 730.696,-108.104 727.196,-118.104 734.196,-118.104"/>
</g>
</g>
</svg>
