<?xml version="1.0" encoding="UTF-8" standalone="no"?>
<!DOCTYPE svg PUBLIC "-//W3C//DTD SVG 1.1//EN"
 "http://www.w3.org/Graphics/SVG/1.1/DTD/svg11.dtd">
<!-- Generated by graphviz version 2.38.0 (20140413.2041)
 -->
<!-- Title: %3 Pages: 1 -->
<svg width="1813pt" height="980pt"
 viewBox="0.00 0.00 1813.34 980.00" xmlns="http://www.w3.org/2000/svg" xmlns:xlink="http://www.w3.org/1999/xlink">
<g id="graph0" class="graph" transform="scale(1 1) rotate(0) translate(4 976)">
<title>%3</title>
<polygon fill="white" stroke="none" points="-4,4 -4,-976 1809.34,-976 1809.34,4 -4,4"/>
<!-- ExpConst3 -->
<g id="node1" class="node"><title>ExpConst3</title>
<ellipse fill="none" stroke="black" cx="1044.65" cy="-738" rx="50.0912" ry="18"/>
<text text-anchor="middle" x="1044.65" y="-734.3" font-family="Times,serif" font-size="14.00">ExpConst3</text>
</g>
<!-- Value3: 1 -->
<g id="node2" class="node"><title>Value3: 1</title>
<ellipse fill="none" stroke="black" cx="1044.65" cy="-666" rx="45.4919" ry="18"/>
<text text-anchor="middle" x="1044.65" y="-662.3" font-family="Times,serif" font-size="14.00">Value3: 1</text>
</g>
<!-- ExpConst3&#45;&gt;Value3: 1 -->
<g id="edge1" class="edge"><title>ExpConst3&#45;&gt;Value3: 1</title>
<path fill="none" stroke="black" d="M1044.65,-719.697C1044.65,-711.983 1044.65,-702.712 1044.65,-694.112"/>
<polygon fill="black" stroke="black" points="1048.15,-694.104 1044.65,-684.104 1041.15,-694.104 1048.15,-694.104"/>
</g>
<!-- ExpTemp17 -->
<g id="node3" class="node"><title>ExpTemp17</title>
<ellipse fill="none" stroke="black" cx="921.645" cy="-738" rx="54.6905" ry="18"/>
<text text-anchor="middle" x="921.645" y="-734.3" font-family="Times,serif" font-size="14.00">ExpTemp17</text>
</g>
<!-- Temp17: $rv -->
<g id="node4" class="node"><title>Temp17: $rv</title>
<ellipse fill="none" stroke="black" cx="922.645" cy="-666" rx="57.3905" ry="18"/>
<text text-anchor="middle" x="922.645" y="-662.3" font-family="Times,serif" font-size="14.00">Temp17: $rv</text>
</g>
<!-- ExpTemp17&#45;&gt;Temp17: $rv -->
<g id="edge2" class="edge"><title>ExpTemp17&#45;&gt;Temp17: $rv</title>
<path fill="none" stroke="black" d="M921.893,-719.697C922.003,-711.983 922.135,-702.712 922.258,-694.112"/>
<polygon fill="black" stroke="black" points="925.758,-694.153 922.401,-684.104 918.758,-694.053 925.758,-694.153"/>
</g>
<!-- StatSeq1 -->
<g id="node5" class="node"><title>StatSeq1</title>
<ellipse fill="none" stroke="black" cx="687.645" cy="-882" rx="42.4939" ry="18"/>
<text text-anchor="middle" x="687.645" y="-878.3" font-family="Times,serif" font-size="14.00">StatSeq1</text>
</g>
<!-- StatSeq2 -->
<g id="node6" class="node"><title>StatSeq2</title>
<ellipse fill="none" stroke="black" cx="687.645" cy="-810" rx="42.4939" ry="18"/>
<text text-anchor="middle" x="687.645" y="-806.3" font-family="Times,serif" font-size="14.00">StatSeq2</text>
</g>
<!-- StatSeq1&#45;&gt;StatSeq2 -->
<g id="edge3" class="edge"><title>StatSeq1&#45;&gt;StatSeq2</title>
<path fill="none" stroke="black" d="M687.645,-863.697C687.645,-855.983 687.645,-846.712 687.645,-838.112"/>
<polygon fill="black" stroke="black" points="691.145,-838.104 687.645,-828.104 684.145,-838.104 691.145,-838.104"/>
</g>
<!-- StatMove8 -->
<g id="node7" class="node"><title>StatMove8</title>
<ellipse fill="none" stroke="black" cx="921.645" cy="-810" rx="50.0912" ry="18"/>
<text text-anchor="middle" x="921.645" y="-806.3" font-family="Times,serif" font-size="14.00">StatMove8</text>
</g>
<!-- StatSeq1&#45;&gt;StatMove8 -->
<g id="edge4" class="edge"><title>StatSeq1&#45;&gt;StatMove8</title>
<path fill="none" stroke="black" d="M721.172,-870.971C761.437,-858.926 829.224,-838.647 874.686,-825.048"/>
<polygon fill="black" stroke="black" points="875.735,-828.387 884.313,-822.168 873.729,-821.681 875.735,-828.387"/>
</g>
<!-- StatSeq3 -->
<g id="node41" class="node"><title>StatSeq3</title>
<ellipse fill="none" stroke="black" cx="687.645" cy="-738" rx="42.4939" ry="18"/>
<text text-anchor="middle" x="687.645" y="-734.3" font-family="Times,serif" font-size="14.00">StatSeq3</text>
</g>
<!-- StatSeq2&#45;&gt;StatSeq3 -->
<g id="edge58" class="edge"><title>StatSeq2&#45;&gt;StatSeq3</title>
<path fill="none" stroke="black" d="M687.645,-791.697C687.645,-783.983 687.645,-774.712 687.645,-766.112"/>
<polygon fill="black" stroke="black" points="691.145,-766.104 687.645,-756.104 684.145,-766.104 691.145,-766.104"/>
</g>
<!-- StatMove0 -->
<g id="node43" class="node"><title>StatMove0</title>
<ellipse fill="none" stroke="black" cx="371.645" cy="-738" rx="50.0912" ry="18"/>
<text text-anchor="middle" x="371.645" y="-734.3" font-family="Times,serif" font-size="14.00">StatMove0</text>
</g>
<!-- StatSeq2&#45;&gt;StatMove0 -->
<g id="edge57" class="edge"><title>StatSeq2&#45;&gt;StatMove0</title>
<path fill="none" stroke="black" d="M656.272,-797.862C649.825,-795.766 643.05,-793.701 636.645,-792 564.863,-772.937 480.529,-757.184 426.613,-747.937"/>
<polygon fill="black" stroke="black" points="427.024,-744.457 416.579,-746.231 425.851,-751.358 427.024,-744.457"/>
</g>
<!-- StatMove8&#45;&gt;ExpConst3 -->
<g id="edge31" class="edge"><title>StatMove8&#45;&gt;ExpConst3</title>
<path fill="none" stroke="black" d="M947.131,-794.496C965.315,-784.147 989.985,-770.107 1009.96,-758.739"/>
<polygon fill="black" stroke="black" points="1011.81,-761.714 1018.77,-753.726 1008.35,-755.631 1011.81,-761.714"/>
</g>
<!-- StatMove8&#45;&gt;ExpTemp17 -->
<g id="edge30" class="edge"><title>StatMove8&#45;&gt;ExpTemp17</title>
<path fill="none" stroke="black" d="M921.645,-791.697C921.645,-783.983 921.645,-774.712 921.645,-766.112"/>
<polygon fill="black" stroke="black" points="925.145,-766.104 921.645,-756.104 918.145,-766.104 925.145,-766.104"/>
</g>
<!-- ExpTemp16 -->
<g id="node8" class="node"><title>ExpTemp16</title>
<ellipse fill="none" stroke="black" cx="1554.65" cy="-522" rx="54.6905" ry="18"/>
<text text-anchor="middle" x="1554.65" y="-518.3" font-family="Times,serif" font-size="14.00">ExpTemp16</text>
</g>
<!-- Temp16: T181 -->
<g id="node9" class="node"><title>Temp16: T181</title>
<ellipse fill="none" stroke="black" cx="1563.65" cy="-450" rx="63.8893" ry="18"/>
<text text-anchor="middle" x="1563.65" y="-446.3" font-family="Times,serif" font-size="14.00">Temp16: T181</text>
</g>
<!-- ExpTemp16&#45;&gt;Temp16: T181 -->
<g id="edge5" class="edge"><title>ExpTemp16&#45;&gt;Temp16: T181</title>
<path fill="none" stroke="black" d="M1556.87,-503.697C1557.86,-495.983 1559.05,-486.712 1560.16,-478.112"/>
<polygon fill="black" stroke="black" points="1563.64,-478.469 1561.45,-468.104 1556.7,-477.576 1563.64,-478.469"/>
</g>
<!-- StatMove7 -->
<g id="node10" class="node"><title>StatMove7</title>
<ellipse fill="none" stroke="black" cx="1418.65" cy="-594" rx="50.0912" ry="18"/>
<text text-anchor="middle" x="1418.65" y="-590.3" font-family="Times,serif" font-size="14.00">StatMove7</text>
</g>
<!-- StatMove7&#45;&gt;ExpTemp16 -->
<g id="edge7" class="edge"><title>StatMove7&#45;&gt;ExpTemp16</title>
<path fill="none" stroke="black" d="M1446.17,-578.834C1466.63,-568.301 1494.79,-553.809 1517.29,-542.229"/>
<polygon fill="black" stroke="black" points="1518.94,-545.315 1526.23,-537.626 1515.74,-539.091 1518.94,-545.315"/>
</g>
<!-- ExpTemp15 -->
<g id="node11" class="node"><title>ExpTemp15</title>
<ellipse fill="none" stroke="black" cx="1418.65" cy="-522" rx="54.6905" ry="18"/>
<text text-anchor="middle" x="1418.65" y="-518.3" font-family="Times,serif" font-size="14.00">ExpTemp15</text>
</g>
<!-- StatMove7&#45;&gt;ExpTemp15 -->
<g id="edge6" class="edge"><title>StatMove7&#45;&gt;ExpTemp15</title>
<path fill="none" stroke="black" d="M1418.65,-575.697C1418.65,-567.983 1418.65,-558.712 1418.65,-550.112"/>
<polygon fill="black" stroke="black" points="1422.15,-550.104 1418.65,-540.104 1415.15,-550.104 1422.15,-550.104"/>
</g>
<!-- Temp15: T186 -->
<g id="node79" class="node"><title>Temp15: T186</title>
<ellipse fill="none" stroke="black" cx="1418.65" cy="-450" rx="63.8893" ry="18"/>
<text text-anchor="middle" x="1418.65" y="-446.3" font-family="Times,serif" font-size="14.00">Temp15: T186</text>
</g>
<!-- ExpTemp15&#45;&gt;Temp15: T186 -->
<g id="edge78" class="edge"><title>ExpTemp15&#45;&gt;Temp15: T186</title>
<path fill="none" stroke="black" d="M1418.65,-503.697C1418.65,-495.983 1418.65,-486.712 1418.65,-478.112"/>
<polygon fill="black" stroke="black" points="1422.15,-478.104 1418.65,-468.104 1415.15,-478.104 1422.15,-478.104"/>
</g>
<!-- StatSeq5 -->
<g id="node12" class="node"><title>StatSeq5</title>
<ellipse fill="none" stroke="black" cx="837.645" cy="-594" rx="42.4939" ry="18"/>
<text text-anchor="middle" x="837.645" y="-590.3" font-family="Times,serif" font-size="14.00">StatSeq5</text>
</g>
<!-- StatMove2 -->
<g id="node13" class="node"><title>StatMove2</title>
<ellipse fill="none" stroke="black" cx="837.645" cy="-522" rx="50.0912" ry="18"/>
<text text-anchor="middle" x="837.645" y="-518.3" font-family="Times,serif" font-size="14.00">StatMove2</text>
</g>
<!-- StatSeq5&#45;&gt;StatMove2 -->
<g id="edge8" class="edge"><title>StatSeq5&#45;&gt;StatMove2</title>
<path fill="none" stroke="black" d="M837.645,-575.697C837.645,-567.983 837.645,-558.712 837.645,-550.112"/>
<polygon fill="black" stroke="black" points="841.145,-550.104 837.645,-540.104 834.145,-550.104 841.145,-550.104"/>
</g>
<!-- StatSeq6 -->
<g id="node14" class="node"><title>StatSeq6</title>
<ellipse fill="none" stroke="black" cx="1051.65" cy="-522" rx="42.4939" ry="18"/>
<text text-anchor="middle" x="1051.65" y="-518.3" font-family="Times,serif" font-size="14.00">StatSeq6</text>
</g>
<!-- StatSeq5&#45;&gt;StatSeq6 -->
<g id="edge9" class="edge"><title>StatSeq5&#45;&gt;StatSeq6</title>
<path fill="none" stroke="black" d="M870.147,-582.369C907.414,-570.179 968.615,-550.159 1009.51,-536.782"/>
<polygon fill="black" stroke="black" points="1010.77,-540.052 1019.19,-533.617 1008.6,-533.399 1010.77,-540.052"/>
</g>
<!-- ExpTemp5 -->
<g id="node20" class="node"><title>ExpTemp5</title>
<ellipse fill="none" stroke="black" cx="868.645" cy="-450" rx="50.0912" ry="18"/>
<text text-anchor="middle" x="868.645" y="-446.3" font-family="Times,serif" font-size="14.00">ExpTemp5</text>
</g>
<!-- StatMove2&#45;&gt;ExpTemp5 -->
<g id="edge21" class="edge"><title>StatMove2&#45;&gt;ExpTemp5</title>
<path fill="none" stroke="black" d="M845.15,-504.055C848.676,-496.091 852.963,-486.411 856.905,-477.51"/>
<polygon fill="black" stroke="black" points="860.146,-478.836 860.995,-468.275 853.745,-476.002 860.146,-478.836"/>
</g>
<!-- ExpTemp4 -->
<g id="node26" class="node"><title>ExpTemp4</title>
<ellipse fill="none" stroke="black" cx="750.645" cy="-450" rx="50.0912" ry="18"/>
<text text-anchor="middle" x="750.645" y="-446.3" font-family="Times,serif" font-size="14.00">ExpTemp4</text>
</g>
<!-- StatMove2&#45;&gt;ExpTemp4 -->
<g id="edge20" class="edge"><title>StatMove2&#45;&gt;ExpTemp4</title>
<path fill="none" stroke="black" d="M817.904,-505.116C806.224,-495.718 791.248,-483.669 778.394,-473.326"/>
<polygon fill="black" stroke="black" points="780.294,-470.363 770.309,-466.821 775.906,-475.817 780.294,-470.363"/>
</g>
<!-- StatSeq7 -->
<g id="node58" class="node"><title>StatSeq7</title>
<ellipse fill="none" stroke="black" cx="1051.65" cy="-450" rx="42.4939" ry="18"/>
<text text-anchor="middle" x="1051.65" y="-446.3" font-family="Times,serif" font-size="14.00">StatSeq7</text>
</g>
<!-- StatSeq6&#45;&gt;StatSeq7 -->
<g id="edge45" class="edge"><title>StatSeq6&#45;&gt;StatSeq7</title>
<path fill="none" stroke="black" d="M1051.65,-503.697C1051.65,-495.983 1051.65,-486.712 1051.65,-478.112"/>
<polygon fill="black" stroke="black" points="1055.15,-478.104 1051.65,-468.104 1048.15,-478.104 1055.15,-478.104"/>
</g>
<!-- StatMove6 -->
<g id="node59" class="node"><title>StatMove6</title>
<ellipse fill="none" stroke="black" cx="1286.65" cy="-450" rx="50.0912" ry="18"/>
<text text-anchor="middle" x="1286.65" y="-446.3" font-family="Times,serif" font-size="14.00">StatMove6</text>
</g>
<!-- StatSeq6&#45;&gt;StatMove6 -->
<g id="edge46" class="edge"><title>StatSeq6&#45;&gt;StatMove6</title>
<path fill="none" stroke="black" d="M1085.32,-510.971C1125.75,-498.926 1193.83,-478.647 1239.48,-465.048"/>
<polygon fill="black" stroke="black" points="1240.57,-468.377 1249.15,-462.168 1238.57,-461.668 1240.57,-468.377"/>
</g>
<!-- StatMove1 -->
<g id="node15" class="node"><title>StatMove1</title>
<ellipse fill="none" stroke="black" cx="632.645" cy="-666" rx="50.0912" ry="18"/>
<text text-anchor="middle" x="632.645" y="-662.3" font-family="Times,serif" font-size="14.00">StatMove1</text>
</g>
<!-- ExpTemp2 -->
<g id="node16" class="node"><title>ExpTemp2</title>
<ellipse fill="none" stroke="black" cx="508.645" cy="-594" rx="50.0912" ry="18"/>
<text text-anchor="middle" x="508.645" y="-590.3" font-family="Times,serif" font-size="14.00">ExpTemp2</text>
</g>
<!-- StatMove1&#45;&gt;ExpTemp2 -->
<g id="edge10" class="edge"><title>StatMove1&#45;&gt;ExpTemp2</title>
<path fill="none" stroke="black" d="M606.952,-650.496C588.497,-640.078 563.416,-625.919 543.206,-614.51"/>
<polygon fill="black" stroke="black" points="544.734,-611.354 534.305,-609.485 541.293,-617.449 544.734,-611.354"/>
</g>
<!-- ExpMem2 -->
<g id="node17" class="node"><title>ExpMem2</title>
<ellipse fill="none" stroke="black" cx="632.645" cy="-594" rx="48.9926" ry="18"/>
<text text-anchor="middle" x="632.645" y="-590.3" font-family="Times,serif" font-size="14.00">ExpMem2</text>
</g>
<!-- StatMove1&#45;&gt;ExpMem2 -->
<g id="edge11" class="edge"><title>StatMove1&#45;&gt;ExpMem2</title>
<path fill="none" stroke="black" d="M632.645,-647.697C632.645,-639.983 632.645,-630.712 632.645,-622.112"/>
<polygon fill="black" stroke="black" points="636.145,-622.104 632.645,-612.104 629.145,-622.104 636.145,-622.104"/>
</g>
<!-- Temp2: T186 -->
<g id="node33" class="node"><title>Temp2: T186</title>
<ellipse fill="none" stroke="black" cx="501.645" cy="-522" rx="59.5901" ry="18"/>
<text text-anchor="middle" x="501.645" y="-518.3" font-family="Times,serif" font-size="14.00">Temp2: T186</text>
</g>
<!-- ExpTemp2&#45;&gt;Temp2: T186 -->
<g id="edge22" class="edge"><title>ExpTemp2&#45;&gt;Temp2: T186</title>
<path fill="none" stroke="black" d="M506.915,-575.697C506.144,-567.983 505.217,-558.712 504.357,-550.112"/>
<polygon fill="black" stroke="black" points="507.834,-549.706 503.356,-540.104 500.868,-550.403 507.834,-549.706"/>
</g>
<!-- ExpBinary1 -->
<g id="node48" class="node"><title>ExpBinary1</title>
<ellipse fill="none" stroke="black" cx="632.645" cy="-522" rx="53.0913" ry="18"/>
<text text-anchor="middle" x="632.645" y="-518.3" font-family="Times,serif" font-size="14.00">ExpBinary1</text>
</g>
<!-- ExpMem2&#45;&gt;ExpBinary1 -->
<g id="edge35" class="edge"><title>ExpMem2&#45;&gt;ExpBinary1</title>
<path fill="none" stroke="black" d="M632.645,-575.697C632.645,-567.983 632.645,-558.712 632.645,-550.112"/>
<polygon fill="black" stroke="black" points="636.145,-550.104 632.645,-540.104 629.145,-550.104 636.145,-550.104"/>
</g>
<!-- ExpTemp8 -->
<g id="node18" class="node"><title>ExpTemp8</title>
<ellipse fill="none" stroke="black" cx="972.645" cy="-234" rx="50.0912" ry="18"/>
<text text-anchor="middle" x="972.645" y="-230.3" font-family="Times,serif" font-size="14.00">ExpTemp8</text>
</g>
<!-- Temp8: T182 -->
<g id="node19" class="node"><title>Temp8: T182</title>
<ellipse fill="none" stroke="black" cx="918.645" cy="-162" rx="59.5901" ry="18"/>
<text text-anchor="middle" x="918.645" y="-158.3" font-family="Times,serif" font-size="14.00">Temp8: T182</text>
</g>
<!-- ExpTemp8&#45;&gt;Temp8: T182 -->
<g id="edge12" class="edge"><title>ExpTemp8&#45;&gt;Temp8: T182</title>
<path fill="none" stroke="black" d="M959.848,-216.411C953.287,-207.906 945.161,-197.372 937.865,-187.914"/>
<polygon fill="black" stroke="black" points="940.605,-185.736 931.726,-179.956 935.063,-190.012 940.605,-185.736"/>
</g>
<!-- Temp5: T181 -->
<g id="node21" class="node"><title>Temp5: T181</title>
<ellipse fill="none" stroke="black" cx="868.645" cy="-378" rx="59.5901" ry="18"/>
<text text-anchor="middle" x="868.645" y="-374.3" font-family="Times,serif" font-size="14.00">Temp5: T181</text>
</g>
<!-- ExpTemp5&#45;&gt;Temp5: T181 -->
<g id="edge13" class="edge"><title>ExpTemp5&#45;&gt;Temp5: T181</title>
<path fill="none" stroke="black" d="M868.645,-431.697C868.645,-423.983 868.645,-414.712 868.645,-406.112"/>
<polygon fill="black" stroke="black" points="872.145,-406.104 868.645,-396.104 865.145,-406.104 872.145,-406.104"/>
</g>
<!-- ExpTemp1 -->
<g id="node22" class="node"><title>ExpTemp1</title>
<ellipse fill="none" stroke="black" cx="371.645" cy="-594" rx="50.0912" ry="18"/>
<text text-anchor="middle" x="371.645" y="-590.3" font-family="Times,serif" font-size="14.00">ExpTemp1</text>
</g>
<!-- Temp1: $fp -->
<g id="node23" class="node"><title>Temp1: $fp</title>
<ellipse fill="none" stroke="black" cx="371.645" cy="-522" rx="52.7911" ry="18"/>
<text text-anchor="middle" x="371.645" y="-518.3" font-family="Times,serif" font-size="14.00">Temp1: $fp</text>
</g>
<!-- ExpTemp1&#45;&gt;Temp1: $fp -->
<g id="edge14" class="edge"><title>ExpTemp1&#45;&gt;Temp1: $fp</title>
<path fill="none" stroke="black" d="M371.645,-575.697C371.645,-567.983 371.645,-558.712 371.645,-550.112"/>
<polygon fill="black" stroke="black" points="375.145,-550.104 371.645,-540.104 368.145,-550.104 375.145,-550.104"/>
</g>
<!-- ExpTemp14 -->
<g id="node24" class="node"><title>ExpTemp14</title>
<ellipse fill="none" stroke="black" cx="1737.65" cy="-234" rx="54.6905" ry="18"/>
<text text-anchor="middle" x="1737.65" y="-230.3" font-family="Times,serif" font-size="14.00">ExpTemp14</text>
</g>
<!-- Temp14: T184 -->
<g id="node25" class="node"><title>Temp14: T184</title>
<ellipse fill="none" stroke="black" cx="1741.65" cy="-162" rx="63.8893" ry="18"/>
<text text-anchor="middle" x="1741.65" y="-158.3" font-family="Times,serif" font-size="14.00">Temp14: T184</text>
</g>
<!-- ExpTemp14&#45;&gt;Temp14: T184 -->
<g id="edge15" class="edge"><title>ExpTemp14&#45;&gt;Temp14: T184</title>
<path fill="none" stroke="black" d="M1738.63,-215.697C1739.07,-207.983 1739.6,-198.712 1740.1,-190.112"/>
<polygon fill="black" stroke="black" points="1743.59,-190.288 1740.67,-180.104 1736.6,-189.888 1743.59,-190.288"/>
</g>
<!-- Temp4: T185 -->
<g id="node27" class="node"><title>Temp4: T185</title>
<ellipse fill="none" stroke="black" cx="730.645" cy="-378" rx="59.5901" ry="18"/>
<text text-anchor="middle" x="730.645" y="-374.3" font-family="Times,serif" font-size="14.00">Temp4: T185</text>
</g>
<!-- ExpTemp4&#45;&gt;Temp4: T185 -->
<g id="edge16" class="edge"><title>ExpTemp4&#45;&gt;Temp4: T185</title>
<path fill="none" stroke="black" d="M745.804,-432.055C743.577,-424.261 740.88,-414.822 738.382,-406.079"/>
<polygon fill="black" stroke="black" points="741.694,-404.929 735.581,-396.275 734.963,-406.852 741.694,-404.929"/>
</g>
<!-- ExpConst1 -->
<g id="node28" class="node"><title>ExpConst1</title>
<ellipse fill="none" stroke="black" cx="632.645" cy="-450" rx="50.0912" ry="18"/>
<text text-anchor="middle" x="632.645" y="-446.3" font-family="Times,serif" font-size="14.00">ExpConst1</text>
</g>
<!-- Value1: 12 -->
<g id="node29" class="node"><title>Value1: 12</title>
<ellipse fill="none" stroke="black" cx="602.645" cy="-378" rx="50.0912" ry="18"/>
<text text-anchor="middle" x="602.645" y="-374.3" font-family="Times,serif" font-size="14.00">Value1: 12</text>
</g>
<!-- ExpConst1&#45;&gt;Value1: 12 -->
<g id="edge17" class="edge"><title>ExpConst1&#45;&gt;Value1: 12</title>
<path fill="none" stroke="black" d="M625.383,-432.055C621.97,-424.091 617.821,-414.411 614.007,-405.51"/>
<polygon fill="black" stroke="black" points="617.205,-404.088 610.049,-396.275 610.771,-406.845 617.205,-404.088"/>
</g>
<!-- StatMove5 -->
<g id="node30" class="node"><title>StatMove5</title>
<ellipse fill="none" stroke="black" cx="1207.65" cy="-306" rx="50.0912" ry="18"/>
<text text-anchor="middle" x="1207.65" y="-302.3" font-family="Times,serif" font-size="14.00">StatMove5</text>
</g>
<!-- ExpTemp9 -->
<g id="node31" class="node"><title>ExpTemp9</title>
<ellipse fill="none" stroke="black" cx="1215.65" cy="-234" rx="50.0912" ry="18"/>
<text text-anchor="middle" x="1215.65" y="-230.3" font-family="Times,serif" font-size="14.00">ExpTemp9</text>
</g>
<!-- StatMove5&#45;&gt;ExpTemp9 -->
<g id="edge18" class="edge"><title>StatMove5&#45;&gt;ExpTemp9</title>
<path fill="none" stroke="black" d="M1209.62,-287.697C1210.5,-279.983 1211.56,-270.712 1212.55,-262.112"/>
<polygon fill="black" stroke="black" points="1216.03,-262.437 1213.69,-252.104 1209.08,-261.642 1216.03,-262.437"/>
</g>
<!-- ExpMem4 -->
<g id="node32" class="node"><title>ExpMem4</title>
<ellipse fill="none" stroke="black" cx="1334.65" cy="-234" rx="48.9926" ry="18"/>
<text text-anchor="middle" x="1334.65" y="-230.3" font-family="Times,serif" font-size="14.00">ExpMem4</text>
</g>
<!-- StatMove5&#45;&gt;ExpMem4 -->
<g id="edge19" class="edge"><title>StatMove5&#45;&gt;ExpMem4</title>
<path fill="none" stroke="black" d="M1233.96,-290.496C1252.95,-280.031 1278.78,-265.791 1299.53,-254.356"/>
<polygon fill="black" stroke="black" points="1301.3,-257.378 1308.36,-249.485 1297.92,-251.247 1301.3,-257.378"/>
</g>
<!-- Temp9: T184 -->
<g id="node71" class="node"><title>Temp9: T184</title>
<ellipse fill="none" stroke="black" cx="1264.65" cy="-162" rx="59.5901" ry="18"/>
<text text-anchor="middle" x="1264.65" y="-158.3" font-family="Times,serif" font-size="14.00">Temp9: T184</text>
</g>
<!-- ExpTemp9&#45;&gt;Temp9: T184 -->
<g id="edge66" class="edge"><title>ExpTemp9&#45;&gt;Temp9: T184</title>
<path fill="none" stroke="black" d="M1227.26,-216.411C1233.15,-207.992 1240.44,-197.585 1247,-188.201"/>
<polygon fill="black" stroke="black" points="1249.91,-190.156 1252.78,-179.956 1244.17,-186.141 1249.91,-190.156"/>
</g>
<!-- ExpBinary2 -->
<g id="node40" class="node"><title>ExpBinary2</title>
<ellipse fill="none" stroke="black" cx="1395.65" cy="-162" rx="53.0913" ry="18"/>
<text text-anchor="middle" x="1395.65" y="-158.3" font-family="Times,serif" font-size="14.00">ExpBinary2</text>
</g>
<!-- ExpMem4&#45;&gt;ExpBinary2 -->
<g id="edge27" class="edge"><title>ExpMem4&#45;&gt;ExpBinary2</title>
<path fill="none" stroke="black" d="M1348.79,-216.765C1356.38,-208.056 1365.89,-197.147 1374.35,-187.435"/>
<polygon fill="black" stroke="black" points="1377.22,-189.472 1381.15,-179.633 1371.94,-184.873 1377.22,-189.472"/>
</g>
<!-- ExpTemp10 -->
<g id="node34" class="node"><title>ExpTemp10</title>
<ellipse fill="none" stroke="black" cx="1292.65" cy="-90" rx="54.6905" ry="18"/>
<text text-anchor="middle" x="1292.65" y="-86.3" font-family="Times,serif" font-size="14.00">ExpTemp10</text>
</g>
<!-- Temp10: $fp -->
<g id="node35" class="node"><title>Temp10: $fp</title>
<ellipse fill="none" stroke="black" cx="1292.65" cy="-18" rx="57.3905" ry="18"/>
<text text-anchor="middle" x="1292.65" y="-14.3" font-family="Times,serif" font-size="14.00">Temp10: $fp</text>
</g>
<!-- ExpTemp10&#45;&gt;Temp10: $fp -->
<g id="edge23" class="edge"><title>ExpTemp10&#45;&gt;Temp10: $fp</title>
<path fill="none" stroke="black" d="M1292.65,-71.6966C1292.65,-63.9827 1292.65,-54.7125 1292.65,-46.1124"/>
<polygon fill="black" stroke="black" points="1296.15,-46.1043 1292.65,-36.1043 1289.15,-46.1044 1296.15,-46.1043"/>
</g>
<!-- ExpBinary0 -->
<g id="node36" class="node"><title>ExpBinary0</title>
<ellipse fill="none" stroke="black" cx="201.645" cy="-594" rx="53.0913" ry="18"/>
<text text-anchor="middle" x="201.645" y="-590.3" font-family="Times,serif" font-size="14.00">ExpBinary0</text>
</g>
<!-- ExpTemp0 -->
<g id="node37" class="node"><title>ExpTemp0</title>
<ellipse fill="none" stroke="black" cx="52.6453" cy="-522" rx="50.0912" ry="18"/>
<text text-anchor="middle" x="52.6453" y="-518.3" font-family="Times,serif" font-size="14.00">ExpTemp0</text>
</g>
<!-- ExpBinary0&#45;&gt;ExpTemp0 -->
<g id="edge24" class="edge"><title>ExpBinary0&#45;&gt;ExpTemp0</title>
<path fill="none" stroke="black" d="M171.851,-579.003C148.657,-568.106 116.289,-552.9 91.1339,-541.082"/>
<polygon fill="black" stroke="black" points="92.4194,-537.819 81.8802,-536.734 89.4429,-544.155 92.4194,-537.819"/>
</g>
<!-- Plus0 -->
<g id="node38" class="node"><title>Plus0</title>
<ellipse fill="none" stroke="black" cx="151.645" cy="-522" rx="30.5947" ry="18"/>
<text text-anchor="middle" x="151.645" y="-518.3" font-family="Times,serif" font-size="14.00">Plus0</text>
</g>
<!-- ExpBinary0&#45;&gt;Plus0 -->
<g id="edge25" class="edge"><title>ExpBinary0&#45;&gt;Plus0</title>
<path fill="none" stroke="black" d="M189.796,-576.411C183.605,-567.744 175.91,-556.971 169.056,-547.375"/>
<polygon fill="black" stroke="black" points="171.726,-545.091 163.065,-538.988 166.03,-549.16 171.726,-545.091"/>
</g>
<!-- ExpConst0 -->
<g id="node39" class="node"><title>ExpConst0</title>
<ellipse fill="none" stroke="black" cx="250.645" cy="-522" rx="50.0912" ry="18"/>
<text text-anchor="middle" x="250.645" y="-518.3" font-family="Times,serif" font-size="14.00">ExpConst0</text>
</g>
<!-- ExpBinary0&#45;&gt;ExpConst0 -->
<g id="edge26" class="edge"><title>ExpBinary0&#45;&gt;ExpConst0</title>
<path fill="none" stroke="black" d="M213.258,-576.411C219.151,-567.992 226.436,-557.585 233.005,-548.201"/>
<polygon fill="black" stroke="black" points="235.909,-550.156 238.776,-539.956 230.174,-546.141 235.909,-550.156"/>
</g>
<!-- Temp0: $fp -->
<g id="node53" class="node"><title>Temp0: $fp</title>
<ellipse fill="none" stroke="black" cx="52.6453" cy="-450" rx="52.7911" ry="18"/>
<text text-anchor="middle" x="52.6453" y="-446.3" font-family="Times,serif" font-size="14.00">Temp0: $fp</text>
</g>
<!-- ExpTemp0&#45;&gt;Temp0: $fp -->
<g id="edge41" class="edge"><title>ExpTemp0&#45;&gt;Temp0: $fp</title>
<path fill="none" stroke="black" d="M52.6453,-503.697C52.6453,-495.983 52.6453,-486.712 52.6453,-478.112"/>
<polygon fill="black" stroke="black" points="56.1454,-478.104 52.6453,-468.104 49.1454,-478.104 56.1454,-478.104"/>
</g>
<!-- Value0: 8 -->
<g id="node63" class="node"><title>Value0: 8</title>
<ellipse fill="none" stroke="black" cx="250.645" cy="-450" rx="45.4919" ry="18"/>
<text text-anchor="middle" x="250.645" y="-446.3" font-family="Times,serif" font-size="14.00">Value0: 8</text>
</g>
<!-- ExpConst0&#45;&gt;Value0: 8 -->
<g id="edge55" class="edge"><title>ExpConst0&#45;&gt;Value0: 8</title>
<path fill="none" stroke="black" d="M250.645,-503.697C250.645,-495.983 250.645,-486.712 250.645,-478.112"/>
<polygon fill="black" stroke="black" points="254.145,-478.104 250.645,-468.104 247.145,-478.104 254.145,-478.104"/>
</g>
<!-- ExpBinary2&#45;&gt;ExpTemp10 -->
<g id="edge68" class="edge"><title>ExpBinary2&#45;&gt;ExpTemp10</title>
<path fill="none" stroke="black" d="M1373.04,-145.638C1358.65,-135.859 1339.81,-123.054 1323.99,-112.3"/>
<polygon fill="black" stroke="black" points="1325.79,-109.294 1315.55,-106.568 1321.86,-115.084 1325.79,-109.294"/>
</g>
<!-- Plus2 -->
<g id="node73" class="node"><title>Plus2</title>
<ellipse fill="none" stroke="black" cx="1395.65" cy="-90" rx="30.5947" ry="18"/>
<text text-anchor="middle" x="1395.65" y="-86.3" font-family="Times,serif" font-size="14.00">Plus2</text>
</g>
<!-- ExpBinary2&#45;&gt;Plus2 -->
<g id="edge69" class="edge"><title>ExpBinary2&#45;&gt;Plus2</title>
<path fill="none" stroke="black" d="M1395.65,-143.697C1395.65,-135.983 1395.65,-126.712 1395.65,-118.112"/>
<polygon fill="black" stroke="black" points="1399.15,-118.104 1395.65,-108.104 1392.15,-118.104 1399.15,-118.104"/>
</g>
<!-- ExpConst2 -->
<g id="node74" class="node"><title>ExpConst2</title>
<ellipse fill="none" stroke="black" cx="1494.65" cy="-90" rx="50.0912" ry="18"/>
<text text-anchor="middle" x="1494.65" y="-86.3" font-family="Times,serif" font-size="14.00">ExpConst2</text>
</g>
<!-- ExpBinary2&#45;&gt;ExpConst2 -->
<g id="edge70" class="edge"><title>ExpBinary2&#45;&gt;ExpConst2</title>
<path fill="none" stroke="black" d="M1417.62,-145.465C1431.43,-135.7 1449.43,-122.972 1464.55,-112.276"/>
<polygon fill="black" stroke="black" points="1466.93,-114.882 1473.08,-106.251 1462.89,-109.167 1466.93,-114.882"/>
</g>
<!-- StatSeq3&#45;&gt;StatMove1 -->
<g id="edge28" class="edge"><title>StatSeq3&#45;&gt;StatMove1</title>
<path fill="none" stroke="black" d="M674.889,-720.765C668.115,-712.143 659.646,-701.365 652.073,-691.727"/>
<polygon fill="black" stroke="black" points="654.645,-689.334 645.714,-683.633 649.141,-693.659 654.645,-689.334"/>
</g>
<!-- StatSeq4 -->
<g id="node42" class="node"><title>StatSeq4</title>
<ellipse fill="none" stroke="black" cx="805.645" cy="-666" rx="42.4939" ry="18"/>
<text text-anchor="middle" x="805.645" y="-662.3" font-family="Times,serif" font-size="14.00">StatSeq4</text>
</g>
<!-- StatSeq3&#45;&gt;StatSeq4 -->
<g id="edge29" class="edge"><title>StatSeq3&#45;&gt;StatSeq4</title>
<path fill="none" stroke="black" d="M711.241,-723.003C729.088,-712.415 753.794,-697.759 773.455,-686.096"/>
<polygon fill="black" stroke="black" points="775.276,-689.085 782.091,-680.973 771.704,-683.065 775.276,-689.085"/>
</g>
<!-- StatSeq4&#45;&gt;StatMove7 -->
<g id="edge39" class="edge"><title>StatSeq4&#45;&gt;StatMove7</title>
<path fill="none" stroke="black" d="M836.35,-653.514C842.967,-651.393 849.979,-649.406 856.645,-648 1036.73,-610.013 1255.04,-599.238 1358.58,-596.192"/>
<polygon fill="black" stroke="black" points="1358.94,-599.684 1368.84,-595.905 1358.74,-592.687 1358.94,-599.684"/>
</g>
<!-- StatSeq4&#45;&gt;StatSeq5 -->
<g id="edge38" class="edge"><title>StatSeq4&#45;&gt;StatSeq5</title>
<path fill="none" stroke="black" d="M813.392,-648.055C817.086,-639.973 821.59,-630.121 825.709,-621.112"/>
<polygon fill="black" stroke="black" points="828.996,-622.339 829.97,-611.789 822.63,-619.429 828.996,-622.339"/>
</g>
<!-- ExpMem0 -->
<g id="node44" class="node"><title>ExpMem0</title>
<ellipse fill="none" stroke="black" cx="204.645" cy="-666" rx="48.9926" ry="18"/>
<text text-anchor="middle" x="204.645" y="-662.3" font-family="Times,serif" font-size="14.00">ExpMem0</text>
</g>
<!-- StatMove0&#45;&gt;ExpMem0 -->
<g id="edge32" class="edge"><title>StatMove0&#45;&gt;ExpMem0</title>
<path fill="none" stroke="black" d="M340.234,-723.834C313.324,-712.554 274.398,-696.238 245.15,-683.978"/>
<polygon fill="black" stroke="black" points="246.209,-680.627 235.633,-679.989 243.503,-687.083 246.209,-680.627"/>
</g>
<!-- ExpMem1 -->
<g id="node45" class="node"><title>ExpMem1</title>
<ellipse fill="none" stroke="black" cx="371.645" cy="-666" rx="48.9926" ry="18"/>
<text text-anchor="middle" x="371.645" y="-662.3" font-family="Times,serif" font-size="14.00">ExpMem1</text>
</g>
<!-- StatMove0&#45;&gt;ExpMem1 -->
<g id="edge33" class="edge"><title>StatMove0&#45;&gt;ExpMem1</title>
<path fill="none" stroke="black" d="M371.645,-719.697C371.645,-711.983 371.645,-702.712 371.645,-694.112"/>
<polygon fill="black" stroke="black" points="375.145,-694.104 371.645,-684.104 368.145,-694.104 375.145,-694.104"/>
</g>
<!-- ExpMem0&#45;&gt;ExpBinary0 -->
<g id="edge52" class="edge"><title>ExpMem0&#45;&gt;ExpBinary0</title>
<path fill="none" stroke="black" d="M203.904,-647.697C203.573,-639.983 203.176,-630.712 202.807,-622.112"/>
<polygon fill="black" stroke="black" points="206.303,-621.945 202.378,-612.104 199.31,-622.245 206.303,-621.945"/>
</g>
<!-- ExpMem1&#45;&gt;ExpTemp1 -->
<g id="edge56" class="edge"><title>ExpMem1&#45;&gt;ExpTemp1</title>
<path fill="none" stroke="black" d="M371.645,-647.697C371.645,-639.983 371.645,-630.712 371.645,-622.112"/>
<polygon fill="black" stroke="black" points="375.145,-622.104 371.645,-612.104 368.145,-622.104 375.145,-622.104"/>
</g>
<!-- ExpTemp12 -->
<g id="node46" class="node"><title>ExpTemp12</title>
<ellipse fill="none" stroke="black" cx="1475.65" cy="-306" rx="54.6905" ry="18"/>
<text text-anchor="middle" x="1475.65" y="-302.3" font-family="Times,serif" font-size="14.00">ExpTemp12</text>
</g>
<!-- Temp12: T182 -->
<g id="node47" class="node"><title>Temp12: T182</title>
<ellipse fill="none" stroke="black" cx="1465.65" cy="-234" rx="63.8893" ry="18"/>
<text text-anchor="middle" x="1465.65" y="-230.3" font-family="Times,serif" font-size="14.00">Temp12: T182</text>
</g>
<!-- ExpTemp12&#45;&gt;Temp12: T182 -->
<g id="edge34" class="edge"><title>ExpTemp12&#45;&gt;Temp12: T182</title>
<path fill="none" stroke="black" d="M1473.17,-287.697C1472.07,-279.983 1470.75,-270.712 1469.52,-262.112"/>
<polygon fill="black" stroke="black" points="1472.97,-261.509 1468.09,-252.104 1466.04,-262.499 1472.97,-261.509"/>
</g>
<!-- ExpBinary1&#45;&gt;ExpConst1 -->
<g id="edge51" class="edge"><title>ExpBinary1&#45;&gt;ExpConst1</title>
<path fill="none" stroke="black" d="M632.645,-503.697C632.645,-495.983 632.645,-486.712 632.645,-478.112"/>
<polygon fill="black" stroke="black" points="636.145,-478.104 632.645,-468.104 629.145,-478.104 636.145,-478.104"/>
</g>
<!-- ExpTemp3 -->
<g id="node54" class="node"><title>ExpTemp3</title>
<ellipse fill="none" stroke="black" cx="434.645" cy="-450" rx="50.0912" ry="18"/>
<text text-anchor="middle" x="434.645" y="-446.3" font-family="Times,serif" font-size="14.00">ExpTemp3</text>
</g>
<!-- ExpBinary1&#45;&gt;ExpTemp3 -->
<g id="edge49" class="edge"><title>ExpBinary1&#45;&gt;ExpTemp3</title>
<path fill="none" stroke="black" d="M597.247,-508.485C564.101,-496.767 514.46,-479.217 478.751,-466.593"/>
<polygon fill="black" stroke="black" points="479.669,-463.205 469.074,-463.172 477.336,-469.805 479.669,-463.205"/>
</g>
<!-- Plus1 -->
<g id="node61" class="node"><title>Plus1</title>
<ellipse fill="none" stroke="black" cx="533.645" cy="-450" rx="30.5947" ry="18"/>
<text text-anchor="middle" x="533.645" y="-446.3" font-family="Times,serif" font-size="14.00">Plus1</text>
</g>
<!-- ExpBinary1&#45;&gt;Plus1 -->
<g id="edge50" class="edge"><title>ExpBinary1&#45;&gt;Plus1</title>
<path fill="none" stroke="black" d="M610.674,-505.465C595.966,-495.065 576.504,-481.304 560.823,-470.217"/>
<polygon fill="black" stroke="black" points="562.74,-467.286 552.554,-464.37 558.699,-473.001 562.74,-467.286"/>
</g>
<!-- ExpCall0 -->
<g id="node49" class="node"><title>ExpCall0</title>
<ellipse fill="none" stroke="black" cx="1475.65" cy="-378" rx="44.393" ry="18"/>
<text text-anchor="middle" x="1475.65" y="-374.3" font-family="Times,serif" font-size="14.00">ExpCall0</text>
</g>
<!-- ExpCall0&#45;&gt;ExpTemp12 -->
<g id="edge36" class="edge"><title>ExpCall0&#45;&gt;ExpTemp12</title>
<path fill="none" stroke="black" d="M1475.65,-359.697C1475.65,-351.983 1475.65,-342.712 1475.65,-334.112"/>
<polygon fill="black" stroke="black" points="1479.15,-334.104 1475.65,-324.104 1472.15,-334.104 1479.15,-334.104"/>
</g>
<!-- ExpList0 -->
<g id="node50" class="node"><title>ExpList0</title>
<ellipse fill="none" stroke="black" cx="1601.65" cy="-306" rx="42.7926" ry="18"/>
<text text-anchor="middle" x="1601.65" y="-302.3" font-family="Times,serif" font-size="14.00">ExpList0</text>
</g>
<!-- ExpCall0&#45;&gt;ExpList0 -->
<g id="edge37" class="edge"><title>ExpCall0&#45;&gt;ExpList0</title>
<path fill="none" stroke="black" d="M1500.84,-363.003C1520.11,-352.298 1546.86,-337.434 1567.97,-325.71"/>
<polygon fill="black" stroke="black" points="1569.88,-328.651 1576.92,-320.734 1566.48,-322.531 1569.88,-328.651"/>
</g>
<!-- ExpList0&#45;&gt;ExpTemp14 -->
<g id="edge77" class="edge"><title>ExpList0&#45;&gt;ExpTemp14</title>
<path fill="none" stroke="black" d="M1627.87,-291.503C1648.36,-280.958 1677.1,-266.161 1700.04,-254.354"/>
<polygon fill="black" stroke="black" points="1701.87,-257.352 1709.16,-249.664 1698.66,-251.128 1701.87,-257.352"/>
</g>
<!-- ExpTemp13 -->
<g id="node77" class="node"><title>ExpTemp13</title>
<ellipse fill="none" stroke="black" cx="1601.65" cy="-234" rx="54.6905" ry="18"/>
<text text-anchor="middle" x="1601.65" y="-230.3" font-family="Times,serif" font-size="14.00">ExpTemp13</text>
</g>
<!-- ExpList0&#45;&gt;ExpTemp13 -->
<g id="edge76" class="edge"><title>ExpList0&#45;&gt;ExpTemp13</title>
<path fill="none" stroke="black" d="M1601.65,-287.697C1601.65,-279.983 1601.65,-270.712 1601.65,-262.112"/>
<polygon fill="black" stroke="black" points="1605.15,-262.104 1601.65,-252.104 1598.15,-262.104 1605.15,-262.104"/>
</g>
<!-- ExpTemp7 -->
<g id="node51" class="node"><title>ExpTemp7</title>
<ellipse fill="none" stroke="black" cx="854.645" cy="-234" rx="50.0912" ry="18"/>
<text text-anchor="middle" x="854.645" y="-230.3" font-family="Times,serif" font-size="14.00">ExpTemp7</text>
</g>
<!-- Temp7: $fp -->
<g id="node52" class="node"><title>Temp7: $fp</title>
<ellipse fill="none" stroke="black" cx="788.645" cy="-162" rx="52.7911" ry="18"/>
<text text-anchor="middle" x="788.645" y="-158.3" font-family="Times,serif" font-size="14.00">Temp7: $fp</text>
</g>
<!-- ExpTemp7&#45;&gt;Temp7: $fp -->
<g id="edge40" class="edge"><title>ExpTemp7&#45;&gt;Temp7: $fp</title>
<path fill="none" stroke="black" d="M839.338,-216.765C831.045,-207.969 820.635,-196.928 811.41,-187.144"/>
<polygon fill="black" stroke="black" points="813.735,-184.508 804.328,-179.633 808.642,-189.31 813.735,-184.508"/>
</g>
<!-- Temp3: $fp -->
<g id="node55" class="node"><title>Temp3: $fp</title>
<ellipse fill="none" stroke="black" cx="434.645" cy="-378" rx="52.7911" ry="18"/>
<text text-anchor="middle" x="434.645" y="-374.3" font-family="Times,serif" font-size="14.00">Temp3: $fp</text>
</g>
<!-- ExpTemp3&#45;&gt;Temp3: $fp -->
<g id="edge42" class="edge"><title>ExpTemp3&#45;&gt;Temp3: $fp</title>
<path fill="none" stroke="black" d="M434.645,-431.697C434.645,-423.983 434.645,-414.712 434.645,-406.112"/>
<polygon fill="black" stroke="black" points="438.145,-406.104 434.645,-396.104 431.145,-406.104 438.145,-406.104"/>
</g>
<!-- StatSeq8 -->
<g id="node56" class="node"><title>StatSeq8</title>
<ellipse fill="none" stroke="black" cx="1106.65" cy="-378" rx="42.4939" ry="18"/>
<text text-anchor="middle" x="1106.65" y="-374.3" font-family="Times,serif" font-size="14.00">StatSeq8</text>
</g>
<!-- StatSeq8&#45;&gt;StatMove5 -->
<g id="edge44" class="edge"><title>StatSeq8&#45;&gt;StatMove5</title>
<path fill="none" stroke="black" d="M1128.06,-362.155C1142.33,-352.267 1161.29,-339.124 1177.13,-328.148"/>
<polygon fill="black" stroke="black" points="1179.33,-330.881 1185.56,-322.308 1175.35,-325.127 1179.33,-330.881"/>
</g>
<!-- StatMove4 -->
<g id="node57" class="node"><title>StatMove4</title>
<ellipse fill="none" stroke="black" cx="1089.65" cy="-306" rx="50.0912" ry="18"/>
<text text-anchor="middle" x="1089.65" y="-302.3" font-family="Times,serif" font-size="14.00">StatMove4</text>
</g>
<!-- StatSeq8&#45;&gt;StatMove4 -->
<g id="edge43" class="edge"><title>StatSeq8&#45;&gt;StatMove4</title>
<path fill="none" stroke="black" d="M1102.53,-360.055C1100.64,-352.261 1098.34,-342.822 1096.22,-334.079"/>
<polygon fill="black" stroke="black" points="1099.6,-333.167 1093.84,-324.275 1092.8,-334.819 1099.6,-333.167"/>
</g>
<!-- StatMove4&#45;&gt;ExpTemp8 -->
<g id="edge53" class="edge"><title>StatMove4&#45;&gt;ExpTemp8</title>
<path fill="none" stroke="black" d="M1064.83,-290.155C1047.77,-279.946 1024.91,-266.267 1006.22,-255.086"/>
<polygon fill="black" stroke="black" points="1007.8,-251.955 997.422,-249.824 1004.21,-257.962 1007.8,-251.955"/>
</g>
<!-- ExpName0 -->
<g id="node62" class="node"><title>ExpName0</title>
<ellipse fill="none" stroke="black" cx="1091.65" cy="-234" rx="50.8918" ry="18"/>
<text text-anchor="middle" x="1091.65" y="-230.3" font-family="Times,serif" font-size="14.00">ExpName0</text>
</g>
<!-- StatMove4&#45;&gt;ExpName0 -->
<g id="edge54" class="edge"><title>StatMove4&#45;&gt;ExpName0</title>
<path fill="none" stroke="black" d="M1090.14,-287.697C1090.36,-279.983 1090.62,-270.712 1090.87,-262.112"/>
<polygon fill="black" stroke="black" points="1094.37,-262.2 1091.16,-252.104 1087.37,-262 1094.37,-262.2"/>
</g>
<!-- StatSeq7&#45;&gt;StatSeq8 -->
<g id="edge48" class="edge"><title>StatSeq7&#45;&gt;StatSeq8</title>
<path fill="none" stroke="black" d="M1064.4,-432.765C1071.18,-424.143 1079.64,-413.365 1087.22,-403.727"/>
<polygon fill="black" stroke="black" points="1090.15,-405.659 1093.58,-395.633 1084.65,-401.334 1090.15,-405.659"/>
</g>
<!-- StatMove3 -->
<g id="node60" class="node"><title>StatMove3</title>
<ellipse fill="none" stroke="black" cx="996.645" cy="-378" rx="50.0912" ry="18"/>
<text text-anchor="middle" x="996.645" y="-374.3" font-family="Times,serif" font-size="14.00">StatMove3</text>
</g>
<!-- StatSeq7&#45;&gt;StatMove3 -->
<g id="edge47" class="edge"><title>StatSeq7&#45;&gt;StatMove3</title>
<path fill="none" stroke="black" d="M1038.89,-432.765C1032.11,-424.143 1023.65,-413.365 1016.07,-403.727"/>
<polygon fill="black" stroke="black" points="1018.64,-401.334 1009.71,-395.633 1013.14,-405.659 1018.64,-401.334"/>
</g>
<!-- StatMove6&#45;&gt;ExpCall0 -->
<g id="edge74" class="edge"><title>StatMove6&#45;&gt;ExpCall0</title>
<path fill="none" stroke="black" d="M1320.43,-436.485C1352.33,-424.674 1400.21,-406.938 1434.35,-394.293"/>
<polygon fill="black" stroke="black" points="1435.87,-397.463 1444.03,-390.708 1433.44,-390.899 1435.87,-397.463"/>
</g>
<!-- ExpTemp11 -->
<g id="node68" class="node"><title>ExpTemp11</title>
<ellipse fill="none" stroke="black" cx="1304.65" cy="-378" rx="54.6905" ry="18"/>
<text text-anchor="middle" x="1304.65" y="-374.3" font-family="Times,serif" font-size="14.00">ExpTemp11</text>
</g>
<!-- StatMove6&#45;&gt;ExpTemp11 -->
<g id="edge73" class="edge"><title>StatMove6&#45;&gt;ExpTemp11</title>
<path fill="none" stroke="black" d="M1291,-432.055C1293.01,-424.261 1295.43,-414.822 1297.68,-406.079"/>
<polygon fill="black" stroke="black" points="1301.1,-406.832 1300.2,-396.275 1294.32,-405.089 1301.1,-406.832"/>
</g>
<!-- ExpTemp6 -->
<g id="node64" class="node"><title>ExpTemp6</title>
<ellipse fill="none" stroke="black" cx="772.645" cy="-306" rx="50.0912" ry="18"/>
<text text-anchor="middle" x="772.645" y="-302.3" font-family="Times,serif" font-size="14.00">ExpTemp6</text>
</g>
<!-- StatMove3&#45;&gt;ExpTemp6 -->
<g id="edge59" class="edge"><title>StatMove3&#45;&gt;ExpTemp6</title>
<path fill="none" stroke="black" d="M960.157,-365.597C921.595,-353.547 860.677,-334.51 818.801,-321.424"/>
<polygon fill="black" stroke="black" points="819.707,-318.04 809.118,-318.398 817.619,-324.721 819.707,-318.04"/>
</g>
<!-- ExpMem3 -->
<g id="node65" class="node"><title>ExpMem3</title>
<ellipse fill="none" stroke="black" cx="944.645" cy="-306" rx="48.9926" ry="18"/>
<text text-anchor="middle" x="944.645" y="-302.3" font-family="Times,serif" font-size="14.00">ExpMem3</text>
</g>
<!-- StatMove3&#45;&gt;ExpMem3 -->
<g id="edge60" class="edge"><title>StatMove3&#45;&gt;ExpMem3</title>
<path fill="none" stroke="black" d="M984.322,-360.411C977.976,-351.868 970.109,-341.278 963.059,-331.787"/>
<polygon fill="black" stroke="black" points="965.653,-329.41 956.88,-323.47 960.034,-333.585 965.653,-329.41"/>
</g>
<!-- Label1: Tree@RecPrint -->
<g id="node70" class="node"><title>Label1: Tree@RecPrint</title>
<ellipse fill="none" stroke="black" cx="1091.65" cy="-162" rx="94.7833" ry="18"/>
<text text-anchor="middle" x="1091.65" y="-158.3" font-family="Times,serif" font-size="14.00">Label1: Tree@RecPrint</text>
</g>
<!-- ExpName0&#45;&gt;Label1: Tree@RecPrint -->
<g id="edge65" class="edge"><title>ExpName0&#45;&gt;Label1: Tree@RecPrint</title>
<path fill="none" stroke="black" d="M1091.65,-215.697C1091.65,-207.983 1091.65,-198.712 1091.65,-190.112"/>
<polygon fill="black" stroke="black" points="1095.15,-190.104 1091.65,-180.104 1088.15,-190.104 1095.15,-190.104"/>
</g>
<!-- Temp6: T183 -->
<g id="node76" class="node"><title>Temp6: T183</title>
<ellipse fill="none" stroke="black" cx="726.645" cy="-234" rx="59.5901" ry="18"/>
<text text-anchor="middle" x="726.645" y="-230.3" font-family="Times,serif" font-size="14.00">Temp6: T183</text>
</g>
<!-- ExpTemp6&#45;&gt;Temp6: T183 -->
<g id="edge72" class="edge"><title>ExpTemp6&#45;&gt;Temp6: T183</title>
<path fill="none" stroke="black" d="M761.744,-288.411C756.268,-280.077 749.512,-269.797 743.395,-260.488"/>
<polygon fill="black" stroke="black" points="746.205,-258.391 737.788,-251.956 740.355,-262.235 746.205,-258.391"/>
</g>
<!-- ExpMem3&#45;&gt;ExpTemp7 -->
<g id="edge64" class="edge"><title>ExpMem3&#45;&gt;ExpTemp7</title>
<path fill="none" stroke="black" d="M924.671,-289.465C912.406,-279.925 896.504,-267.557 882.954,-257.018"/>
<polygon fill="black" stroke="black" points="884.917,-254.111 874.875,-250.734 880.619,-259.636 884.917,-254.111"/>
</g>
<!-- StatSeq0 -->
<g id="node66" class="node"><title>StatSeq0</title>
<ellipse fill="none" stroke="black" cx="624.645" cy="-954" rx="42.4939" ry="18"/>
<text text-anchor="middle" x="624.645" y="-950.3" font-family="Times,serif" font-size="14.00">StatSeq0</text>
</g>
<!-- StatSeq0&#45;&gt;StatSeq1 -->
<g id="edge62" class="edge"><title>StatSeq0&#45;&gt;StatSeq1</title>
<path fill="none" stroke="black" d="M639.257,-936.765C647.288,-927.841 657.398,-916.608 666.298,-906.719"/>
<polygon fill="black" stroke="black" points="669.025,-908.922 673.113,-899.147 663.822,-904.239 669.025,-908.922"/>
</g>
<!-- StatLabel0 -->
<g id="node67" class="node"><title>StatLabel0</title>
<ellipse fill="none" stroke="black" cx="562.645" cy="-882" rx="48.9926" ry="18"/>
<text text-anchor="middle" x="562.645" y="-878.3" font-family="Times,serif" font-size="14.00">StatLabel0</text>
</g>
<!-- StatSeq0&#45;&gt;StatLabel0 -->
<g id="edge61" class="edge"><title>StatSeq0&#45;&gt;StatLabel0</title>
<path fill="none" stroke="black" d="M610.265,-936.765C602.475,-927.969 592.696,-916.928 584.03,-907.144"/>
<polygon fill="black" stroke="black" points="586.628,-904.799 577.378,-899.633 581.388,-909.44 586.628,-904.799"/>
</g>
<!-- Label0: Tree@Print -->
<g id="node72" class="node"><title>Label0: Tree@Print</title>
<ellipse fill="none" stroke="black" cx="546.645" cy="-810" rx="81.4863" ry="18"/>
<text text-anchor="middle" x="546.645" y="-806.3" font-family="Times,serif" font-size="14.00">Label0: Tree@Print</text>
</g>
<!-- StatLabel0&#45;&gt;Label0: Tree@Print -->
<g id="edge67" class="edge"><title>StatLabel0&#45;&gt;Label0: Tree@Print</title>
<path fill="none" stroke="black" d="M558.772,-864.055C556.991,-856.261 554.833,-846.822 552.835,-838.079"/>
<polygon fill="black" stroke="black" points="556.234,-837.244 550.594,-828.275 549.41,-838.804 556.234,-837.244"/>
</g>
<!-- Temp11: T185 -->
<g id="node69" class="node"><title>Temp11: T185</title>
<ellipse fill="none" stroke="black" cx="1339.65" cy="-306" rx="63.8893" ry="18"/>
<text text-anchor="middle" x="1339.65" y="-302.3" font-family="Times,serif" font-size="14.00">Temp11: T185</text>
</g>
<!-- ExpTemp11&#45;&gt;Temp11: T185 -->
<g id="edge63" class="edge"><title>ExpTemp11&#45;&gt;Temp11: T185</title>
<path fill="none" stroke="black" d="M1313.12,-360.055C1317.14,-352.007 1322.04,-342.205 1326.53,-333.226"/>
<polygon fill="black" stroke="black" points="1329.67,-334.785 1331.01,-324.275 1323.4,-331.654 1329.67,-334.785"/>
</g>
<!-- Value2: 8 -->
<g id="node75" class="node"><title>Value2: 8</title>
<ellipse fill="none" stroke="black" cx="1494.65" cy="-18" rx="45.4919" ry="18"/>
<text text-anchor="middle" x="1494.65" y="-14.3" font-family="Times,serif" font-size="14.00">Value2: 8</text>
</g>
<!-- ExpConst2&#45;&gt;Value2: 8 -->
<g id="edge71" class="edge"><title>ExpConst2&#45;&gt;Value2: 8</title>
<path fill="none" stroke="black" d="M1494.65,-71.6966C1494.65,-63.9827 1494.65,-54.7125 1494.65,-46.1124"/>
<polygon fill="black" stroke="black" points="1498.15,-46.1043 1494.65,-36.1043 1491.15,-46.1044 1498.15,-46.1043"/>
</g>
<!-- Temp13: T183 -->
<g id="node78" class="node"><title>Temp13: T183</title>
<ellipse fill="none" stroke="black" cx="1596.65" cy="-162" rx="63.8893" ry="18"/>
<text text-anchor="middle" x="1596.65" y="-158.3" font-family="Times,serif" font-size="14.00">Temp13: T183</text>
</g>
<!-- ExpTemp13&#45;&gt;Temp13: T183 -->
<g id="edge75" class="edge"><title>ExpTemp13&#45;&gt;Temp13: T183</title>
<path fill="none" stroke="black" d="M1600.41,-215.697C1599.86,-207.983 1599.2,-198.712 1598.58,-190.112"/>
<polygon fill="black" stroke="black" points="1602.07,-189.83 1597.87,-180.104 1595.09,-190.328 1602.07,-189.83"/>
</g>
</g>
</svg>
