<?xml version="1.0" encoding="UTF-8" standalone="no"?>
<!DOCTYPE svg PUBLIC "-//W3C//DTD SVG 1.1//EN"
 "http://www.w3.org/Graphics/SVG/1.1/DTD/svg11.dtd">
<!-- Generated by graphviz version 2.38.0 (20140413.2041)
 -->
<!-- Title: %3 Pages: 1 -->
<svg width="767pt" height="1052pt"
 viewBox="0.00 0.00 766.64 1052.00" xmlns="http://www.w3.org/2000/svg" xmlns:xlink="http://www.w3.org/1999/xlink">
<g id="graph0" class="graph" transform="scale(1 1) rotate(0) translate(4 1048)">
<title>%3</title>
<polygon fill="white" stroke="none" points="-4,4 -4,-1048 762.636,-1048 762.636,4 -4,4"/>
<!-- StatExp0 -->
<g id="node1" class="node"><title>StatExp0</title>
<ellipse fill="none" stroke="black" cx="478.591" cy="-954" rx="42.7926" ry="18"/>
<text text-anchor="middle" x="478.591" y="-950.3" font-family="Times,serif" font-size="14.00">StatExp0</text>
</g>
<!-- ExpTemp5 -->
<g id="node2" class="node"><title>ExpTemp5</title>
<ellipse fill="none" stroke="black" cx="507.591" cy="-882" rx="50.0912" ry="18"/>
<text text-anchor="middle" x="507.591" y="-878.3" font-family="Times,serif" font-size="14.00">ExpTemp5</text>
</g>
<!-- StatExp0&#45;&gt;ExpTemp5 -->
<g id="edge1" class="edge"><title>StatExp0&#45;&gt;ExpTemp5</title>
<path fill="none" stroke="black" d="M485.611,-936.055C488.875,-928.176 492.835,-918.617 496.49,-909.794"/>
<polygon fill="black" stroke="black" points="499.84,-910.853 500.434,-900.275 493.373,-908.174 499.84,-910.853"/>
</g>
<!-- Temp5: T28 -->
<g id="node32" class="node"><title>Temp5: T28</title>
<ellipse fill="none" stroke="black" cx="565.591" cy="-810" rx="55.4913" ry="18"/>
<text text-anchor="middle" x="565.591" y="-806.3" font-family="Times,serif" font-size="14.00">Temp5: T28</text>
</g>
<!-- ExpTemp5&#45;&gt;Temp5: T28 -->
<g id="edge25" class="edge"><title>ExpTemp5&#45;&gt;Temp5: T28</title>
<path fill="none" stroke="black" d="M521.336,-864.411C528.559,-855.693 537.547,-844.845 545.533,-835.208"/>
<polygon fill="black" stroke="black" points="548.259,-837.403 551.944,-827.47 542.869,-832.937 548.259,-837.403"/>
</g>
<!-- ExpList0 -->
<g id="node3" class="node"><title>ExpList0</title>
<ellipse fill="none" stroke="black" cx="449.591" cy="-810" rx="42.7926" ry="18"/>
<text text-anchor="middle" x="449.591" y="-806.3" font-family="Times,serif" font-size="14.00">ExpList0</text>
</g>
<!-- ExpEseq0 -->
<g id="node4" class="node"><title>ExpEseq0</title>
<ellipse fill="none" stroke="black" cx="454.591" cy="-738" rx="46.2923" ry="18"/>
<text text-anchor="middle" x="454.591" y="-734.3" font-family="Times,serif" font-size="14.00">ExpEseq0</text>
</g>
<!-- ExpList0&#45;&gt;ExpEseq0 -->
<g id="edge2" class="edge"><title>ExpList0&#45;&gt;ExpEseq0</title>
<path fill="none" stroke="black" d="M450.826,-791.697C451.377,-783.983 452.04,-774.712 452.654,-766.112"/>
<polygon fill="black" stroke="black" points="456.147,-766.328 453.369,-756.104 449.165,-765.83 456.147,-766.328"/>
</g>
<!-- ExpTemp4 -->
<g id="node5" class="node"><title>ExpTemp4</title>
<ellipse fill="none" stroke="black" cx="513.591" cy="-666" rx="50.0912" ry="18"/>
<text text-anchor="middle" x="513.591" y="-662.3" font-family="Times,serif" font-size="14.00">ExpTemp4</text>
</g>
<!-- ExpEseq0&#45;&gt;ExpTemp4 -->
<g id="edge38" class="edge"><title>ExpEseq0&#45;&gt;ExpTemp4</title>
<path fill="none" stroke="black" d="M468.275,-720.765C475.615,-712.056 484.81,-701.147 492.995,-691.435"/>
<polygon fill="black" stroke="black" points="495.802,-693.535 499.571,-683.633 490.45,-689.024 495.802,-693.535"/>
</g>
<!-- StatMove1 -->
<g id="node9" class="node"><title>StatMove1</title>
<ellipse fill="none" stroke="black" cx="395.591" cy="-666" rx="50.0912" ry="18"/>
<text text-anchor="middle" x="395.591" y="-662.3" font-family="Times,serif" font-size="14.00">StatMove1</text>
</g>
<!-- ExpEseq0&#45;&gt;StatMove1 -->
<g id="edge37" class="edge"><title>ExpEseq0&#45;&gt;StatMove1</title>
<path fill="none" stroke="black" d="M440.906,-720.765C433.566,-712.056 424.371,-701.147 416.186,-691.435"/>
<polygon fill="black" stroke="black" points="418.731,-689.024 409.61,-683.633 413.379,-693.535 418.731,-689.024"/>
</g>
<!-- Temp4: T27 -->
<g id="node6" class="node"><title>Temp4: T27</title>
<ellipse fill="none" stroke="black" cx="513.591" cy="-594" rx="55.4913" ry="18"/>
<text text-anchor="middle" x="513.591" y="-590.3" font-family="Times,serif" font-size="14.00">Temp4: T27</text>
</g>
<!-- ExpTemp4&#45;&gt;Temp4: T27 -->
<g id="edge3" class="edge"><title>ExpTemp4&#45;&gt;Temp4: T27</title>
<path fill="none" stroke="black" d="M513.591,-647.697C513.591,-639.983 513.591,-630.712 513.591,-622.112"/>
<polygon fill="black" stroke="black" points="517.091,-622.104 513.591,-612.104 510.091,-622.104 517.091,-622.104"/>
</g>
<!-- ExpName1 -->
<g id="node7" class="node"><title>ExpName1</title>
<ellipse fill="none" stroke="black" cx="396.591" cy="-522" rx="50.8918" ry="18"/>
<text text-anchor="middle" x="396.591" y="-518.3" font-family="Times,serif" font-size="14.00">ExpName1</text>
</g>
<!-- Label2: TV@Start -->
<g id="node8" class="node"><title>Label2: TV@Start</title>
<ellipse fill="none" stroke="black" cx="389.591" cy="-450" rx="76.8869" ry="18"/>
<text text-anchor="middle" x="389.591" y="-446.3" font-family="Times,serif" font-size="14.00">Label2: TV@Start</text>
</g>
<!-- ExpName1&#45;&gt;Label2: TV@Start -->
<g id="edge4" class="edge"><title>ExpName1&#45;&gt;Label2: TV@Start</title>
<path fill="none" stroke="black" d="M394.86,-503.697C394.089,-495.983 393.162,-486.712 392.302,-478.112"/>
<polygon fill="black" stroke="black" points="395.779,-477.706 391.301,-468.104 388.813,-478.403 395.779,-477.706"/>
</g>
<!-- ExpTemp1 -->
<g id="node10" class="node"><title>ExpTemp1</title>
<ellipse fill="none" stroke="black" cx="278.591" cy="-594" rx="50.0912" ry="18"/>
<text text-anchor="middle" x="278.591" y="-590.3" font-family="Times,serif" font-size="14.00">ExpTemp1</text>
</g>
<!-- StatMove1&#45;&gt;ExpTemp1 -->
<g id="edge5" class="edge"><title>StatMove1&#45;&gt;ExpTemp1</title>
<path fill="none" stroke="black" d="M370.778,-650.155C353.715,-639.946 330.851,-626.267 312.163,-615.086"/>
<polygon fill="black" stroke="black" points="313.746,-611.955 303.367,-609.824 310.152,-617.962 313.746,-611.955"/>
</g>
<!-- ExpCall1 -->
<g id="node11" class="node"><title>ExpCall1</title>
<ellipse fill="none" stroke="black" cx="396.591" cy="-594" rx="44.393" ry="18"/>
<text text-anchor="middle" x="396.591" y="-590.3" font-family="Times,serif" font-size="14.00">ExpCall1</text>
</g>
<!-- StatMove1&#45;&gt;ExpCall1 -->
<g id="edge6" class="edge"><title>StatMove1&#45;&gt;ExpCall1</title>
<path fill="none" stroke="black" d="M395.838,-647.697C395.948,-639.983 396.08,-630.712 396.203,-622.112"/>
<polygon fill="black" stroke="black" points="399.703,-622.153 396.346,-612.104 392.704,-622.053 399.703,-622.153"/>
</g>
<!-- Temp1: T27 -->
<g id="node33" class="node"><title>Temp1: T27</title>
<ellipse fill="none" stroke="black" cx="272.591" cy="-522" rx="55.4913" ry="18"/>
<text text-anchor="middle" x="272.591" y="-518.3" font-family="Times,serif" font-size="14.00">Temp1: T27</text>
</g>
<!-- ExpTemp1&#45;&gt;Temp1: T27 -->
<g id="edge26" class="edge"><title>ExpTemp1&#45;&gt;Temp1: T27</title>
<path fill="none" stroke="black" d="M277.107,-575.697C276.446,-567.983 275.652,-558.712 274.914,-550.112"/>
<polygon fill="black" stroke="black" points="278.398,-549.769 274.057,-540.104 271.424,-550.367 278.398,-549.769"/>
</g>
<!-- ExpCall1&#45;&gt;ExpName1 -->
<g id="edge18" class="edge"><title>ExpCall1&#45;&gt;ExpName1</title>
<path fill="none" stroke="black" d="M396.591,-575.697C396.591,-567.983 396.591,-558.712 396.591,-550.112"/>
<polygon fill="black" stroke="black" points="400.091,-550.104 396.591,-540.104 393.091,-550.104 400.091,-550.104"/>
</g>
<!-- ExpList1 -->
<g id="node14" class="node"><title>ExpList1</title>
<ellipse fill="none" stroke="black" cx="522.591" cy="-522" rx="42.7926" ry="18"/>
<text text-anchor="middle" x="522.591" y="-518.3" font-family="Times,serif" font-size="14.00">ExpList1</text>
</g>
<!-- ExpCall1&#45;&gt;ExpList1 -->
<g id="edge19" class="edge"><title>ExpCall1&#45;&gt;ExpList1</title>
<path fill="none" stroke="black" d="M421.786,-579.003C441.054,-568.298 467.809,-553.434 488.913,-541.71"/>
<polygon fill="black" stroke="black" points="490.827,-544.651 497.868,-536.734 487.427,-538.531 490.827,-544.651"/>
</g>
<!-- ExpConst1 -->
<g id="node12" class="node"><title>ExpConst1</title>
<ellipse fill="none" stroke="black" cx="708.591" cy="-90" rx="50.0912" ry="18"/>
<text text-anchor="middle" x="708.591" y="-86.3" font-family="Times,serif" font-size="14.00">ExpConst1</text>
</g>
<!-- Value1: 4 -->
<g id="node13" class="node"><title>Value1: 4</title>
<ellipse fill="none" stroke="black" cx="708.591" cy="-18" rx="45.4919" ry="18"/>
<text text-anchor="middle" x="708.591" y="-14.3" font-family="Times,serif" font-size="14.00">Value1: 4</text>
</g>
<!-- ExpConst1&#45;&gt;Value1: 4 -->
<g id="edge7" class="edge"><title>ExpConst1&#45;&gt;Value1: 4</title>
<path fill="none" stroke="black" d="M708.591,-71.6966C708.591,-63.9827 708.591,-54.7125 708.591,-46.1124"/>
<polygon fill="black" stroke="black" points="712.091,-46.1043 708.591,-36.1043 705.091,-46.1044 712.091,-46.1043"/>
</g>
<!-- ExpEseq1 -->
<g id="node15" class="node"><title>ExpEseq1</title>
<ellipse fill="none" stroke="black" cx="530.591" cy="-450" rx="46.2923" ry="18"/>
<text text-anchor="middle" x="530.591" y="-446.3" font-family="Times,serif" font-size="14.00">ExpEseq1</text>
</g>
<!-- ExpList1&#45;&gt;ExpEseq1 -->
<g id="edge8" class="edge"><title>ExpList1&#45;&gt;ExpEseq1</title>
<path fill="none" stroke="black" d="M524.568,-503.697C525.45,-495.983 526.509,-486.712 527.492,-478.112"/>
<polygon fill="black" stroke="black" points="530.978,-478.437 528.636,-468.104 524.023,-477.642 530.978,-478.437"/>
</g>
<!-- StatMove2 -->
<g id="node31" class="node"><title>StatMove2</title>
<ellipse fill="none" stroke="black" cx="471.591" cy="-378" rx="50.0912" ry="18"/>
<text text-anchor="middle" x="471.591" y="-374.3" font-family="Times,serif" font-size="14.00">StatMove2</text>
</g>
<!-- ExpEseq1&#45;&gt;StatMove2 -->
<g id="edge34" class="edge"><title>ExpEseq1&#45;&gt;StatMove2</title>
<path fill="none" stroke="black" d="M516.906,-432.765C509.566,-424.056 500.371,-413.147 492.186,-403.435"/>
<polygon fill="black" stroke="black" points="494.731,-401.024 485.61,-395.633 489.379,-405.535 494.731,-401.024"/>
</g>
<!-- ExpTemp3 -->
<g id="node38" class="node"><title>ExpTemp3</title>
<ellipse fill="none" stroke="black" cx="589.591" cy="-378" rx="50.0912" ry="18"/>
<text text-anchor="middle" x="589.591" y="-374.3" font-family="Times,serif" font-size="14.00">ExpTemp3</text>
</g>
<!-- ExpEseq1&#45;&gt;ExpTemp3 -->
<g id="edge35" class="edge"><title>ExpEseq1&#45;&gt;ExpTemp3</title>
<path fill="none" stroke="black" d="M544.275,-432.765C551.615,-424.056 560.81,-413.147 568.995,-403.435"/>
<polygon fill="black" stroke="black" points="571.802,-405.535 575.571,-395.633 566.45,-401.024 571.802,-405.535"/>
</g>
<!-- ExpCall0 -->
<g id="node16" class="node"><title>ExpCall0</title>
<ellipse fill="none" stroke="black" cx="393.591" cy="-882" rx="44.393" ry="18"/>
<text text-anchor="middle" x="393.591" y="-878.3" font-family="Times,serif" font-size="14.00">ExpCall0</text>
</g>
<!-- ExpCall0&#45;&gt;ExpList0 -->
<g id="edge10" class="edge"><title>ExpCall0&#45;&gt;ExpList0</title>
<path fill="none" stroke="black" d="M406.579,-864.765C413.476,-856.143 422.099,-845.365 429.809,-835.727"/>
<polygon fill="black" stroke="black" points="432.77,-837.629 436.284,-827.633 427.304,-833.256 432.77,-837.629"/>
</g>
<!-- ExpName0 -->
<g id="node17" class="node"><title>ExpName0</title>
<ellipse fill="none" stroke="black" cx="337.591" cy="-810" rx="50.8918" ry="18"/>
<text text-anchor="middle" x="337.591" y="-806.3" font-family="Times,serif" font-size="14.00">ExpName0</text>
</g>
<!-- ExpCall0&#45;&gt;ExpName0 -->
<g id="edge9" class="edge"><title>ExpCall0&#45;&gt;ExpName0</title>
<path fill="none" stroke="black" d="M380.602,-864.765C373.705,-856.143 365.082,-845.365 357.372,-835.727"/>
<polygon fill="black" stroke="black" points="359.877,-833.256 350.897,-827.633 354.411,-837.629 359.877,-833.256"/>
</g>
<!-- Label1: print -->
<g id="node18" class="node"><title>Label1: print</title>
<ellipse fill="none" stroke="black" cx="333.591" cy="-738" rx="56.59" ry="18"/>
<text text-anchor="middle" x="333.591" y="-734.3" font-family="Times,serif" font-size="14.00">Label1: print</text>
</g>
<!-- ExpName0&#45;&gt;Label1: print -->
<g id="edge11" class="edge"><title>ExpName0&#45;&gt;Label1: print</title>
<path fill="none" stroke="black" d="M336.602,-791.697C336.161,-783.983 335.631,-774.712 335.14,-766.112"/>
<polygon fill="black" stroke="black" points="338.633,-765.888 334.568,-756.104 331.644,-766.288 338.633,-765.888"/>
</g>
<!-- StatLabel0 -->
<g id="node19" class="node"><title>StatLabel0</title>
<ellipse fill="none" stroke="black" cx="164.591" cy="-954" rx="48.9926" ry="18"/>
<text text-anchor="middle" x="164.591" y="-950.3" font-family="Times,serif" font-size="14.00">StatLabel0</text>
</g>
<!-- Label0: TreeVisitor@main -->
<g id="node20" class="node"><title>Label0: TreeVisitor@main</title>
<ellipse fill="none" stroke="black" cx="106.591" cy="-882" rx="106.681" ry="18"/>
<text text-anchor="middle" x="106.591" y="-878.3" font-family="Times,serif" font-size="14.00">Label0: TreeVisitor@main</text>
</g>
<!-- StatLabel0&#45;&gt;Label0: TreeVisitor@main -->
<g id="edge12" class="edge"><title>StatLabel0&#45;&gt;Label0: TreeVisitor@main</title>
<path fill="none" stroke="black" d="M150.845,-936.411C143.798,-927.906 135.071,-917.372 127.233,-907.914"/>
<polygon fill="black" stroke="black" points="129.715,-905.423 120.64,-899.956 124.325,-909.89 129.715,-905.423"/>
</g>
<!-- StatList0 -->
<g id="node21" class="node"><title>StatList0</title>
<ellipse fill="none" stroke="black" cx="310.591" cy="-1026" rx="42.4939" ry="18"/>
<text text-anchor="middle" x="310.591" y="-1022.3" font-family="Times,serif" font-size="14.00">StatList0</text>
</g>
<!-- StatList0&#45;&gt;StatExp0 -->
<g id="edge15" class="edge"><title>StatList0&#45;&gt;StatExp0</title>
<path fill="none" stroke="black" d="M339.854,-1012.81C367.508,-1001.28 409.182,-983.92 439.637,-971.231"/>
<polygon fill="black" stroke="black" points="441.214,-974.365 449.099,-967.288 438.522,-967.904 441.214,-974.365"/>
</g>
<!-- StatList0&#45;&gt;StatLabel0 -->
<g id="edge13" class="edge"><title>StatList0&#45;&gt;StatLabel0</title>
<path fill="none" stroke="black" d="M283.471,-1012C260.657,-1001.06 227.788,-985.3 202.391,-973.124"/>
<polygon fill="black" stroke="black" points="203.591,-969.817 193.06,-968.65 200.564,-976.129 203.591,-969.817"/>
</g>
<!-- StatMove0 -->
<g id="node22" class="node"><title>StatMove0</title>
<ellipse fill="none" stroke="black" cx="310.591" cy="-954" rx="50.0912" ry="18"/>
<text text-anchor="middle" x="310.591" y="-950.3" font-family="Times,serif" font-size="14.00">StatMove0</text>
</g>
<!-- StatList0&#45;&gt;StatMove0 -->
<g id="edge14" class="edge"><title>StatList0&#45;&gt;StatMove0</title>
<path fill="none" stroke="black" d="M310.591,-1007.7C310.591,-999.983 310.591,-990.712 310.591,-982.112"/>
<polygon fill="black" stroke="black" points="314.091,-982.104 310.591,-972.104 307.091,-982.104 314.091,-982.104"/>
</g>
<!-- StatMove0&#45;&gt;ExpCall0 -->
<g id="edge33" class="edge"><title>StatMove0&#45;&gt;ExpCall0</title>
<path fill="none" stroke="black" d="M329.425,-937.116C340.646,-927.652 355.056,-915.499 367.377,-905.108"/>
<polygon fill="black" stroke="black" points="369.729,-907.703 375.117,-898.58 365.216,-902.352 369.729,-907.703"/>
</g>
<!-- ExpTemp0 -->
<g id="node23" class="node"><title>ExpTemp0</title>
<ellipse fill="none" stroke="black" cx="281.591" cy="-882" rx="50.0912" ry="18"/>
<text text-anchor="middle" x="281.591" y="-878.3" font-family="Times,serif" font-size="14.00">ExpTemp0</text>
</g>
<!-- StatMove0&#45;&gt;ExpTemp0 -->
<g id="edge32" class="edge"><title>StatMove0&#45;&gt;ExpTemp0</title>
<path fill="none" stroke="black" d="M303.57,-936.055C300.306,-928.176 296.346,-918.617 292.691,-909.794"/>
<polygon fill="black" stroke="black" points="295.808,-908.174 288.747,-900.275 289.341,-910.853 295.808,-908.174"/>
</g>
<!-- Temp0: T28 -->
<g id="node24" class="node"><title>Temp0: T28</title>
<ellipse fill="none" stroke="black" cx="213.591" cy="-810" rx="55.4913" ry="18"/>
<text text-anchor="middle" x="213.591" y="-806.3" font-family="Times,serif" font-size="14.00">Temp0: T28</text>
</g>
<!-- ExpTemp0&#45;&gt;Temp0: T28 -->
<g id="edge16" class="edge"><title>ExpTemp0&#45;&gt;Temp0: T28</title>
<path fill="none" stroke="black" d="M265.819,-864.765C257.19,-855.882 246.337,-844.709 236.763,-834.854"/>
<polygon fill="black" stroke="black" points="239.227,-832.367 229.749,-827.633 234.206,-837.245 239.227,-832.367"/>
</g>
<!-- ExpList2 -->
<g id="node25" class="node"><title>ExpList2</title>
<ellipse fill="none" stroke="black" cx="596.591" cy="-234" rx="42.7926" ry="18"/>
<text text-anchor="middle" x="596.591" y="-230.3" font-family="Times,serif" font-size="14.00">ExpList2</text>
</g>
<!-- ExpBinary0 -->
<g id="node26" class="node"><title>ExpBinary0</title>
<ellipse fill="none" stroke="black" cx="602.591" cy="-162" rx="53.0913" ry="18"/>
<text text-anchor="middle" x="602.591" y="-158.3" font-family="Times,serif" font-size="14.00">ExpBinary0</text>
</g>
<!-- ExpList2&#45;&gt;ExpBinary0 -->
<g id="edge17" class="edge"><title>ExpList2&#45;&gt;ExpBinary0</title>
<path fill="none" stroke="black" d="M598.074,-215.697C598.735,-207.983 599.529,-198.712 600.267,-190.112"/>
<polygon fill="black" stroke="black" points="603.758,-190.367 601.124,-180.104 596.783,-189.769 603.758,-190.367"/>
</g>
<!-- ExpBinary0&#45;&gt;ExpConst1 -->
<g id="edge31" class="edge"><title>ExpBinary0&#45;&gt;ExpConst1</title>
<path fill="none" stroke="black" d="M625.853,-145.638C640.868,-135.723 660.59,-122.698 677.013,-111.853"/>
<polygon fill="black" stroke="black" points="679.331,-114.517 685.747,-106.085 675.474,-108.675 679.331,-114.517"/>
</g>
<!-- ExpConst0 -->
<g id="node35" class="node"><title>ExpConst0</title>
<ellipse fill="none" stroke="black" cx="496.591" cy="-90" rx="50.0912" ry="18"/>
<text text-anchor="middle" x="496.591" y="-86.3" font-family="Times,serif" font-size="14.00">ExpConst0</text>
</g>
<!-- ExpBinary0&#45;&gt;ExpConst0 -->
<g id="edge29" class="edge"><title>ExpBinary0&#45;&gt;ExpConst0</title>
<path fill="none" stroke="black" d="M579.328,-145.638C564.314,-135.723 544.591,-122.698 528.168,-111.853"/>
<polygon fill="black" stroke="black" points="529.707,-108.675 519.434,-106.085 525.85,-114.517 529.707,-108.675"/>
</g>
<!-- Times0 -->
<g id="node37" class="node"><title>Times0</title>
<ellipse fill="none" stroke="black" cx="602.591" cy="-90" rx="37.8943" ry="18"/>
<text text-anchor="middle" x="602.591" y="-86.3" font-family="Times,serif" font-size="14.00">Times0</text>
</g>
<!-- ExpBinary0&#45;&gt;Times0 -->
<g id="edge30" class="edge"><title>ExpBinary0&#45;&gt;Times0</title>
<path fill="none" stroke="black" d="M602.591,-143.697C602.591,-135.983 602.591,-126.712 602.591,-118.112"/>
<polygon fill="black" stroke="black" points="606.091,-118.104 602.591,-108.104 599.091,-118.104 606.091,-118.104"/>
</g>
<!-- ExpCall2 -->
<g id="node27" class="node"><title>ExpCall2</title>
<ellipse fill="none" stroke="black" cx="472.591" cy="-306" rx="44.393" ry="18"/>
<text text-anchor="middle" x="472.591" y="-302.3" font-family="Times,serif" font-size="14.00">ExpCall2</text>
</g>
<!-- ExpCall2&#45;&gt;ExpList2 -->
<g id="edge21" class="edge"><title>ExpCall2&#45;&gt;ExpList2</title>
<path fill="none" stroke="black" d="M497.386,-291.003C516.225,-280.368 542.337,-265.627 563.042,-253.939"/>
<polygon fill="black" stroke="black" points="564.851,-256.937 571.838,-248.973 561.409,-250.841 564.851,-256.937"/>
</g>
<!-- ExpName2 -->
<g id="node28" class="node"><title>ExpName2</title>
<ellipse fill="none" stroke="black" cx="472.591" cy="-234" rx="50.8918" ry="18"/>
<text text-anchor="middle" x="472.591" y="-230.3" font-family="Times,serif" font-size="14.00">ExpName2</text>
</g>
<!-- ExpCall2&#45;&gt;ExpName2 -->
<g id="edge20" class="edge"><title>ExpCall2&#45;&gt;ExpName2</title>
<path fill="none" stroke="black" d="M472.591,-287.697C472.591,-279.983 472.591,-270.712 472.591,-262.112"/>
<polygon fill="black" stroke="black" points="476.091,-262.104 472.591,-252.104 469.091,-262.104 476.091,-262.104"/>
</g>
<!-- Label3: malloc -->
<g id="node34" class="node"><title>Label3: malloc</title>
<ellipse fill="none" stroke="black" cx="466.591" cy="-162" rx="64.189" ry="18"/>
<text text-anchor="middle" x="466.591" y="-158.3" font-family="Times,serif" font-size="14.00">Label3: malloc</text>
</g>
<!-- ExpName2&#45;&gt;Label3: malloc -->
<g id="edge27" class="edge"><title>ExpName2&#45;&gt;Label3: malloc</title>
<path fill="none" stroke="black" d="M471.107,-215.697C470.446,-207.983 469.652,-198.712 468.914,-190.112"/>
<polygon fill="black" stroke="black" points="472.398,-189.769 468.057,-180.104 465.424,-190.367 472.398,-189.769"/>
</g>
<!-- ExpTemp2 -->
<g id="node29" class="node"><title>ExpTemp2</title>
<ellipse fill="none" stroke="black" cx="354.591" cy="-306" rx="50.0912" ry="18"/>
<text text-anchor="middle" x="354.591" y="-302.3" font-family="Times,serif" font-size="14.00">ExpTemp2</text>
</g>
<!-- Temp2: T26 -->
<g id="node30" class="node"><title>Temp2: T26</title>
<ellipse fill="none" stroke="black" cx="348.591" cy="-234" rx="55.4913" ry="18"/>
<text text-anchor="middle" x="348.591" y="-230.3" font-family="Times,serif" font-size="14.00">Temp2: T26</text>
</g>
<!-- ExpTemp2&#45;&gt;Temp2: T26 -->
<g id="edge22" class="edge"><title>ExpTemp2&#45;&gt;Temp2: T26</title>
<path fill="none" stroke="black" d="M353.107,-287.697C352.446,-279.983 351.652,-270.712 350.914,-262.112"/>
<polygon fill="black" stroke="black" points="354.398,-261.769 350.057,-252.104 347.424,-262.367 354.398,-261.769"/>
</g>
<!-- StatMove2&#45;&gt;ExpCall2 -->
<g id="edge24" class="edge"><title>StatMove2&#45;&gt;ExpCall2</title>
<path fill="none" stroke="black" d="M471.838,-359.697C471.948,-351.983 472.08,-342.712 472.203,-334.112"/>
<polygon fill="black" stroke="black" points="475.703,-334.153 472.346,-324.104 468.704,-334.053 475.703,-334.153"/>
</g>
<!-- StatMove2&#45;&gt;ExpTemp2 -->
<g id="edge23" class="edge"><title>StatMove2&#45;&gt;ExpTemp2</title>
<path fill="none" stroke="black" d="M446.778,-362.155C429.715,-351.946 406.851,-338.267 388.163,-327.086"/>
<polygon fill="black" stroke="black" points="389.746,-323.955 379.367,-321.824 386.152,-329.962 389.746,-323.955"/>
</g>
<!-- Value0: 0 -->
<g id="node36" class="node"><title>Value0: 0</title>
<ellipse fill="none" stroke="black" cx="496.591" cy="-18" rx="45.4919" ry="18"/>
<text text-anchor="middle" x="496.591" y="-14.3" font-family="Times,serif" font-size="14.00">Value0: 0</text>
</g>
<!-- ExpConst0&#45;&gt;Value0: 0 -->
<g id="edge28" class="edge"><title>ExpConst0&#45;&gt;Value0: 0</title>
<path fill="none" stroke="black" d="M496.591,-71.6966C496.591,-63.9827 496.591,-54.7125 496.591,-46.1124"/>
<polygon fill="black" stroke="black" points="500.091,-46.1043 496.591,-36.1043 493.091,-46.1044 500.091,-46.1043"/>
</g>
<!-- Temp3: T26 -->
<g id="node39" class="node"><title>Temp3: T26</title>
<ellipse fill="none" stroke="black" cx="589.591" cy="-306" rx="55.4913" ry="18"/>
<text text-anchor="middle" x="589.591" y="-302.3" font-family="Times,serif" font-size="14.00">Temp3: T26</text>
</g>
<!-- ExpTemp3&#45;&gt;Temp3: T26 -->
<g id="edge36" class="edge"><title>ExpTemp3&#45;&gt;Temp3: T26</title>
<path fill="none" stroke="black" d="M589.591,-359.697C589.591,-351.983 589.591,-342.712 589.591,-334.112"/>
<polygon fill="black" stroke="black" points="593.091,-334.104 589.591,-324.104 586.091,-334.104 593.091,-334.104"/>
</g>
</g>
</svg>
