<?xml version="1.0" encoding="UTF-8" standalone="no"?>
<!DOCTYPE svg PUBLIC "-//W3C//DTD SVG 1.1//EN"
 "http://www.w3.org/Graphics/SVG/1.1/DTD/svg11.dtd">
<!-- Generated by graphviz version 2.38.0 (20140413.2041)
 -->
<!-- Title: %3 Pages: 1 -->
<svg width="1234pt" height="836pt"
 viewBox="0.00 0.00 1233.69 836.00" xmlns="http://www.w3.org/2000/svg" xmlns:xlink="http://www.w3.org/1999/xlink">
<g id="graph0" class="graph" transform="scale(1 1) rotate(0) translate(4 832)">
<title>%3</title>
<polygon fill="white" stroke="none" points="-4,4 -4,-832 1229.69,-832 1229.69,4 -4,4"/>
<!-- ExpConst3 -->
<g id="node1" class="node"><title>ExpConst3</title>
<ellipse fill="none" stroke="black" cx="1029.65" cy="-594" rx="50.0912" ry="18"/>
<text text-anchor="middle" x="1029.65" y="-590.3" font-family="Times,serif" font-size="14.00">ExpConst3</text>
</g>
<!-- Value3: 1 -->
<g id="node2" class="node"><title>Value3: 1</title>
<ellipse fill="none" stroke="black" cx="1029.65" cy="-522" rx="45.4919" ry="18"/>
<text text-anchor="middle" x="1029.65" y="-518.3" font-family="Times,serif" font-size="14.00">Value3: 1</text>
</g>
<!-- ExpConst3&#45;&gt;Value3: 1 -->
<g id="edge1" class="edge"><title>ExpConst3&#45;&gt;Value3: 1</title>
<path fill="none" stroke="black" d="M1029.65,-575.697C1029.65,-567.983 1029.65,-558.712 1029.65,-550.112"/>
<polygon fill="black" stroke="black" points="1033.15,-550.104 1029.65,-540.104 1026.15,-550.104 1033.15,-550.104"/>
</g>
<!-- StatMove3 -->
<g id="node3" class="node"><title>StatMove3</title>
<ellipse fill="none" stroke="black" cx="911.645" cy="-666" rx="50.0912" ry="18"/>
<text text-anchor="middle" x="911.645" y="-662.3" font-family="Times,serif" font-size="14.00">StatMove3</text>
</g>
<!-- StatMove3&#45;&gt;ExpConst3 -->
<g id="edge3" class="edge"><title>StatMove3&#45;&gt;ExpConst3</title>
<path fill="none" stroke="black" d="M936.382,-650.326C953.768,-640.012 977.228,-626.095 996.269,-614.8"/>
<polygon fill="black" stroke="black" points="998.126,-617.767 1004.94,-609.655 994.555,-611.747 998.126,-617.767"/>
</g>
<!-- ExpTemp6 -->
<g id="node4" class="node"><title>ExpTemp6</title>
<ellipse fill="none" stroke="black" cx="911.645" cy="-594" rx="50.0912" ry="18"/>
<text text-anchor="middle" x="911.645" y="-590.3" font-family="Times,serif" font-size="14.00">ExpTemp6</text>
</g>
<!-- StatMove3&#45;&gt;ExpTemp6 -->
<g id="edge2" class="edge"><title>StatMove3&#45;&gt;ExpTemp6</title>
<path fill="none" stroke="black" d="M911.645,-647.697C911.645,-639.983 911.645,-630.712 911.645,-622.112"/>
<polygon fill="black" stroke="black" points="915.145,-622.104 911.645,-612.104 908.145,-622.104 915.145,-622.104"/>
</g>
<!-- Temp6: $rv -->
<g id="node5" class="node"><title>Temp6: $rv</title>
<ellipse fill="none" stroke="black" cx="912.645" cy="-522" rx="52.7911" ry="18"/>
<text text-anchor="middle" x="912.645" y="-518.3" font-family="Times,serif" font-size="14.00">Temp6: $rv</text>
</g>
<!-- ExpTemp6&#45;&gt;Temp6: $rv -->
<g id="edge4" class="edge"><title>ExpTemp6&#45;&gt;Temp6: $rv</title>
<path fill="none" stroke="black" d="M911.893,-575.697C912.003,-567.983 912.135,-558.712 912.258,-550.112"/>
<polygon fill="black" stroke="black" points="915.758,-550.153 912.401,-540.104 908.758,-550.053 915.758,-550.153"/>
</g>
<!-- ExpEseq0 -->
<g id="node6" class="node"><title>ExpEseq0</title>
<ellipse fill="none" stroke="black" cx="795.645" cy="-522" rx="46.2923" ry="18"/>
<text text-anchor="middle" x="795.645" y="-518.3" font-family="Times,serif" font-size="14.00">ExpEseq0</text>
</g>
<!-- StatMove2 -->
<g id="node7" class="node"><title>StatMove2</title>
<ellipse fill="none" stroke="black" cx="808.645" cy="-450" rx="50.0912" ry="18"/>
<text text-anchor="middle" x="808.645" y="-446.3" font-family="Times,serif" font-size="14.00">StatMove2</text>
</g>
<!-- ExpEseq0&#45;&gt;StatMove2 -->
<g id="edge5" class="edge"><title>ExpEseq0&#45;&gt;StatMove2</title>
<path fill="none" stroke="black" d="M798.859,-503.697C800.291,-495.983 802.013,-486.712 803.61,-478.112"/>
<polygon fill="black" stroke="black" points="807.084,-478.575 805.469,-468.104 800.202,-477.297 807.084,-478.575"/>
</g>
<!-- ExpTemp5 -->
<g id="node8" class="node"><title>ExpTemp5</title>
<ellipse fill="none" stroke="black" cx="981.645" cy="-450" rx="50.0912" ry="18"/>
<text text-anchor="middle" x="981.645" y="-446.3" font-family="Times,serif" font-size="14.00">ExpTemp5</text>
</g>
<!-- ExpEseq0&#45;&gt;ExpTemp5 -->
<g id="edge6" class="edge"><title>ExpEseq0&#45;&gt;ExpTemp5</title>
<path fill="none" stroke="black" d="M827.62,-508.967C858.249,-497.439 904.691,-479.961 938.569,-467.211"/>
<polygon fill="black" stroke="black" points="940.081,-470.382 948.208,-463.584 937.616,-463.831 940.081,-470.382"/>
</g>
<!-- ExpTemp3 -->
<g id="node31" class="node"><title>ExpTemp3</title>
<ellipse fill="none" stroke="black" cx="808.645" cy="-378" rx="50.0912" ry="18"/>
<text text-anchor="middle" x="808.645" y="-374.3" font-family="Times,serif" font-size="14.00">ExpTemp3</text>
</g>
<!-- StatMove2&#45;&gt;ExpTemp3 -->
<g id="edge30" class="edge"><title>StatMove2&#45;&gt;ExpTemp3</title>
<path fill="none" stroke="black" d="M808.645,-431.697C808.645,-423.983 808.645,-414.712 808.645,-406.112"/>
<polygon fill="black" stroke="black" points="812.145,-406.104 808.645,-396.104 805.145,-406.104 812.145,-406.104"/>
</g>
<!-- ExpCall0 -->
<g id="node37" class="node"><title>ExpCall0</title>
<ellipse fill="none" stroke="black" cx="926.645" cy="-378" rx="44.393" ry="18"/>
<text text-anchor="middle" x="926.645" y="-374.3" font-family="Times,serif" font-size="14.00">ExpCall0</text>
</g>
<!-- StatMove2&#45;&gt;ExpCall0 -->
<g id="edge31" class="edge"><title>StatMove2&#45;&gt;ExpCall0</title>
<path fill="none" stroke="black" d="M833.382,-434.326C851.001,-423.874 874.859,-409.721 894.033,-398.346"/>
<polygon fill="black" stroke="black" points="895.933,-401.289 902.747,-393.177 892.361,-395.269 895.933,-401.289"/>
</g>
<!-- Temp5: T97 -->
<g id="node27" class="node"><title>Temp5: T97</title>
<ellipse fill="none" stroke="black" cx="1043.65" cy="-378" rx="55.4913" ry="18"/>
<text text-anchor="middle" x="1043.65" y="-374.3" font-family="Times,serif" font-size="14.00">Temp5: T97</text>
</g>
<!-- ExpTemp5&#45;&gt;Temp5: T97 -->
<g id="edge18" class="edge"><title>ExpTemp5&#45;&gt;Temp5: T97</title>
<path fill="none" stroke="black" d="M996.338,-432.411C1004.06,-423.693 1013.67,-412.845 1022.2,-403.208"/>
<polygon fill="black" stroke="black" points="1025.05,-405.276 1029.06,-395.47 1019.81,-400.635 1025.05,-405.276"/>
</g>
<!-- ExpList0 -->
<g id="node9" class="node"><title>ExpList0</title>
<ellipse fill="none" stroke="black" cx="1064.65" cy="-306" rx="42.7926" ry="18"/>
<text text-anchor="middle" x="1064.65" y="-302.3" font-family="Times,serif" font-size="14.00">ExpList0</text>
</g>
<!-- ExpMem3 -->
<g id="node10" class="node"><title>ExpMem3</title>
<ellipse fill="none" stroke="black" cx="1076.65" cy="-234" rx="48.9926" ry="18"/>
<text text-anchor="middle" x="1076.65" y="-230.3" font-family="Times,serif" font-size="14.00">ExpMem3</text>
</g>
<!-- ExpList0&#45;&gt;ExpMem3 -->
<g id="edge7" class="edge"><title>ExpList0&#45;&gt;ExpMem3</title>
<path fill="none" stroke="black" d="M1067.61,-287.697C1068.93,-279.983 1070.52,-270.712 1072,-262.112"/>
<polygon fill="black" stroke="black" points="1075.47,-262.552 1073.71,-252.104 1068.57,-261.369 1075.47,-262.552"/>
</g>
<!-- ExpBinary2 -->
<g id="node11" class="node"><title>ExpBinary2</title>
<ellipse fill="none" stroke="black" cx="1076.65" cy="-162" rx="53.0913" ry="18"/>
<text text-anchor="middle" x="1076.65" y="-158.3" font-family="Times,serif" font-size="14.00">ExpBinary2</text>
</g>
<!-- ExpMem3&#45;&gt;ExpBinary2 -->
<g id="edge8" class="edge"><title>ExpMem3&#45;&gt;ExpBinary2</title>
<path fill="none" stroke="black" d="M1076.65,-215.697C1076.65,-207.983 1076.65,-198.712 1076.65,-190.112"/>
<polygon fill="black" stroke="black" points="1080.15,-190.104 1076.65,-180.104 1073.15,-190.104 1080.15,-190.104"/>
</g>
<!-- ExpTemp4 -->
<g id="node42" class="node"><title>ExpTemp4</title>
<ellipse fill="none" stroke="black" cx="977.645" cy="-90" rx="50.0912" ry="18"/>
<text text-anchor="middle" x="977.645" y="-86.3" font-family="Times,serif" font-size="14.00">ExpTemp4</text>
</g>
<!-- ExpBinary2&#45;&gt;ExpTemp4 -->
<g id="edge42" class="edge"><title>ExpBinary2&#45;&gt;ExpTemp4</title>
<path fill="none" stroke="black" d="M1054.67,-145.465C1040.86,-135.7 1022.86,-122.972 1007.74,-112.276"/>
<polygon fill="black" stroke="black" points="1009.4,-109.167 999.215,-106.251 1005.36,-114.882 1009.4,-109.167"/>
</g>
<!-- Plus2 -->
<g id="node44" class="node"><title>Plus2</title>
<ellipse fill="none" stroke="black" cx="1076.65" cy="-90" rx="30.5947" ry="18"/>
<text text-anchor="middle" x="1076.65" y="-86.3" font-family="Times,serif" font-size="14.00">Plus2</text>
</g>
<!-- ExpBinary2&#45;&gt;Plus2 -->
<g id="edge43" class="edge"><title>ExpBinary2&#45;&gt;Plus2</title>
<path fill="none" stroke="black" d="M1076.65,-143.697C1076.65,-135.983 1076.65,-126.712 1076.65,-118.112"/>
<polygon fill="black" stroke="black" points="1080.15,-118.104 1076.65,-108.104 1073.15,-118.104 1080.15,-118.104"/>
</g>
<!-- ExpConst2 -->
<g id="node45" class="node"><title>ExpConst2</title>
<ellipse fill="none" stroke="black" cx="1175.65" cy="-90" rx="50.0912" ry="18"/>
<text text-anchor="middle" x="1175.65" y="-86.3" font-family="Times,serif" font-size="14.00">ExpConst2</text>
</g>
<!-- ExpBinary2&#45;&gt;ExpConst2 -->
<g id="edge44" class="edge"><title>ExpBinary2&#45;&gt;ExpConst2</title>
<path fill="none" stroke="black" d="M1098.62,-145.465C1112.43,-135.7 1130.43,-122.972 1145.55,-112.276"/>
<polygon fill="black" stroke="black" points="1147.93,-114.882 1154.08,-106.251 1143.89,-109.167 1147.93,-114.882"/>
</g>
<!-- StatSeq2 -->
<g id="node12" class="node"><title>StatSeq2</title>
<ellipse fill="none" stroke="black" cx="685.645" cy="-666" rx="42.4939" ry="18"/>
<text text-anchor="middle" x="685.645" y="-662.3" font-family="Times,serif" font-size="14.00">StatSeq2</text>
</g>
<!-- StatMove0 -->
<g id="node13" class="node"><title>StatMove0</title>
<ellipse fill="none" stroke="black" cx="371.645" cy="-594" rx="50.0912" ry="18"/>
<text text-anchor="middle" x="371.645" y="-590.3" font-family="Times,serif" font-size="14.00">StatMove0</text>
</g>
<!-- StatSeq2&#45;&gt;StatMove0 -->
<g id="edge9" class="edge"><title>StatSeq2&#45;&gt;StatMove0</title>
<path fill="none" stroke="black" d="M654.27,-653.87C647.823,-651.773 641.049,-649.705 634.645,-648 563.398,-629.023 479.702,-613.25 426.195,-603.975"/>
<polygon fill="black" stroke="black" points="426.685,-600.508 416.237,-602.263 425.5,-607.407 426.685,-600.508"/>
</g>
<!-- StatMove1 -->
<g id="node14" class="node"><title>StatMove1</title>
<ellipse fill="none" stroke="black" cx="685.645" cy="-594" rx="50.0912" ry="18"/>
<text text-anchor="middle" x="685.645" y="-590.3" font-family="Times,serif" font-size="14.00">StatMove1</text>
</g>
<!-- StatSeq2&#45;&gt;StatMove1 -->
<g id="edge10" class="edge"><title>StatSeq2&#45;&gt;StatMove1</title>
<path fill="none" stroke="black" d="M685.645,-647.697C685.645,-639.983 685.645,-630.712 685.645,-622.112"/>
<polygon fill="black" stroke="black" points="689.145,-622.104 685.645,-612.104 682.145,-622.104 689.145,-622.104"/>
</g>
<!-- ExpMem1 -->
<g id="node15" class="node"><title>ExpMem1</title>
<ellipse fill="none" stroke="black" cx="371.645" cy="-522" rx="48.9926" ry="18"/>
<text text-anchor="middle" x="371.645" y="-518.3" font-family="Times,serif" font-size="14.00">ExpMem1</text>
</g>
<!-- StatMove0&#45;&gt;ExpMem1 -->
<g id="edge25" class="edge"><title>StatMove0&#45;&gt;ExpMem1</title>
<path fill="none" stroke="black" d="M371.645,-575.697C371.645,-567.983 371.645,-558.712 371.645,-550.112"/>
<polygon fill="black" stroke="black" points="375.145,-550.104 371.645,-540.104 368.145,-550.104 375.145,-550.104"/>
</g>
<!-- ExpMem0 -->
<g id="node19" class="node"><title>ExpMem0</title>
<ellipse fill="none" stroke="black" cx="204.645" cy="-522" rx="48.9926" ry="18"/>
<text text-anchor="middle" x="204.645" y="-518.3" font-family="Times,serif" font-size="14.00">ExpMem0</text>
</g>
<!-- StatMove0&#45;&gt;ExpMem0 -->
<g id="edge24" class="edge"><title>StatMove0&#45;&gt;ExpMem0</title>
<path fill="none" stroke="black" d="M340.234,-579.834C313.324,-568.554 274.398,-552.238 245.15,-539.978"/>
<polygon fill="black" stroke="black" points="246.209,-536.627 235.633,-535.989 243.503,-543.083 246.209,-536.627"/>
</g>
<!-- StatMove1&#45;&gt;ExpEseq0 -->
<g id="edge36" class="edge"><title>StatMove1&#45;&gt;ExpEseq0</title>
<path fill="none" stroke="black" d="M709.243,-577.983C725.155,-567.857 746.341,-554.375 763.752,-543.296"/>
<polygon fill="black" stroke="black" points="765.907,-546.073 772.464,-537.752 762.148,-540.168 765.907,-546.073"/>
</g>
<!-- ExpMem2 -->
<g id="node39" class="node"><title>ExpMem2</title>
<ellipse fill="none" stroke="black" cx="630.645" cy="-522" rx="48.9926" ry="18"/>
<text text-anchor="middle" x="630.645" y="-518.3" font-family="Times,serif" font-size="14.00">ExpMem2</text>
</g>
<!-- StatMove1&#45;&gt;ExpMem2 -->
<g id="edge35" class="edge"><title>StatMove1&#45;&gt;ExpMem2</title>
<path fill="none" stroke="black" d="M672.611,-576.411C665.83,-567.781 657.408,-557.062 649.893,-547.497"/>
<polygon fill="black" stroke="black" points="652.516,-545.171 643.586,-539.47 647.012,-549.496 652.516,-545.171"/>
</g>
<!-- ExpTemp1 -->
<g id="node16" class="node"><title>ExpTemp1</title>
<ellipse fill="none" stroke="black" cx="371.645" cy="-450" rx="50.0912" ry="18"/>
<text text-anchor="middle" x="371.645" y="-446.3" font-family="Times,serif" font-size="14.00">ExpTemp1</text>
</g>
<!-- ExpMem1&#45;&gt;ExpTemp1 -->
<g id="edge11" class="edge"><title>ExpMem1&#45;&gt;ExpTemp1</title>
<path fill="none" stroke="black" d="M371.645,-503.697C371.645,-495.983 371.645,-486.712 371.645,-478.112"/>
<polygon fill="black" stroke="black" points="375.145,-478.104 371.645,-468.104 368.145,-478.104 375.145,-478.104"/>
</g>
<!-- Temp1: $fp -->
<g id="node28" class="node"><title>Temp1: $fp</title>
<ellipse fill="none" stroke="black" cx="371.645" cy="-378" rx="52.7911" ry="18"/>
<text text-anchor="middle" x="371.645" y="-374.3" font-family="Times,serif" font-size="14.00">Temp1: $fp</text>
</g>
<!-- ExpTemp1&#45;&gt;Temp1: $fp -->
<g id="edge19" class="edge"><title>ExpTemp1&#45;&gt;Temp1: $fp</title>
<path fill="none" stroke="black" d="M371.645,-431.697C371.645,-423.983 371.645,-414.712 371.645,-406.112"/>
<polygon fill="black" stroke="black" points="375.145,-406.104 371.645,-396.104 368.145,-406.104 375.145,-406.104"/>
</g>
<!-- ExpConst0 -->
<g id="node17" class="node"><title>ExpConst0</title>
<ellipse fill="none" stroke="black" cx="250.645" cy="-378" rx="50.0912" ry="18"/>
<text text-anchor="middle" x="250.645" y="-374.3" font-family="Times,serif" font-size="14.00">ExpConst0</text>
</g>
<!-- Value0: 8 -->
<g id="node18" class="node"><title>Value0: 8</title>
<ellipse fill="none" stroke="black" cx="250.645" cy="-306" rx="45.4919" ry="18"/>
<text text-anchor="middle" x="250.645" y="-302.3" font-family="Times,serif" font-size="14.00">Value0: 8</text>
</g>
<!-- ExpConst0&#45;&gt;Value0: 8 -->
<g id="edge12" class="edge"><title>ExpConst0&#45;&gt;Value0: 8</title>
<path fill="none" stroke="black" d="M250.645,-359.697C250.645,-351.983 250.645,-342.712 250.645,-334.112"/>
<polygon fill="black" stroke="black" points="254.145,-334.104 250.645,-324.104 247.145,-334.104 254.145,-334.104"/>
</g>
<!-- ExpBinary0 -->
<g id="node20" class="node"><title>ExpBinary0</title>
<ellipse fill="none" stroke="black" cx="201.645" cy="-450" rx="53.0913" ry="18"/>
<text text-anchor="middle" x="201.645" y="-446.3" font-family="Times,serif" font-size="14.00">ExpBinary0</text>
</g>
<!-- ExpMem0&#45;&gt;ExpBinary0 -->
<g id="edge13" class="edge"><title>ExpMem0&#45;&gt;ExpBinary0</title>
<path fill="none" stroke="black" d="M203.904,-503.697C203.573,-495.983 203.176,-486.712 202.807,-478.112"/>
<polygon fill="black" stroke="black" points="206.303,-477.945 202.378,-468.104 199.31,-478.245 206.303,-477.945"/>
</g>
<!-- ExpBinary0&#45;&gt;ExpConst0 -->
<g id="edge28" class="edge"><title>ExpBinary0&#45;&gt;ExpConst0</title>
<path fill="none" stroke="black" d="M213.258,-432.411C219.151,-423.992 226.436,-413.585 233.005,-404.201"/>
<polygon fill="black" stroke="black" points="235.909,-406.156 238.776,-395.956 230.174,-402.141 235.909,-406.156"/>
</g>
<!-- ExpTemp0 -->
<g id="node33" class="node"><title>ExpTemp0</title>
<ellipse fill="none" stroke="black" cx="52.6453" cy="-378" rx="50.0912" ry="18"/>
<text text-anchor="middle" x="52.6453" y="-374.3" font-family="Times,serif" font-size="14.00">ExpTemp0</text>
</g>
<!-- ExpBinary0&#45;&gt;ExpTemp0 -->
<g id="edge26" class="edge"><title>ExpBinary0&#45;&gt;ExpTemp0</title>
<path fill="none" stroke="black" d="M171.851,-435.003C148.657,-424.106 116.289,-408.9 91.1339,-397.082"/>
<polygon fill="black" stroke="black" points="92.4194,-393.819 81.8802,-392.734 89.4429,-400.155 92.4194,-393.819"/>
</g>
<!-- Plus0 -->
<g id="node35" class="node"><title>Plus0</title>
<ellipse fill="none" stroke="black" cx="151.645" cy="-378" rx="30.5947" ry="18"/>
<text text-anchor="middle" x="151.645" y="-374.3" font-family="Times,serif" font-size="14.00">Plus0</text>
</g>
<!-- ExpBinary0&#45;&gt;Plus0 -->
<g id="edge27" class="edge"><title>ExpBinary0&#45;&gt;Plus0</title>
<path fill="none" stroke="black" d="M189.796,-432.411C183.605,-423.744 175.91,-412.971 169.056,-403.375"/>
<polygon fill="black" stroke="black" points="171.726,-401.091 163.065,-394.988 166.03,-405.16 171.726,-401.091"/>
</g>
<!-- ExpBinary1 -->
<g id="node21" class="node"><title>ExpBinary1</title>
<ellipse fill="none" stroke="black" cx="604.645" cy="-450" rx="53.0913" ry="18"/>
<text text-anchor="middle" x="604.645" y="-446.3" font-family="Times,serif" font-size="14.00">ExpBinary1</text>
</g>
<!-- ExpTemp2 -->
<g id="node22" class="node"><title>ExpTemp2</title>
<ellipse fill="none" stroke="black" cx="492.645" cy="-378" rx="50.0912" ry="18"/>
<text text-anchor="middle" x="492.645" y="-374.3" font-family="Times,serif" font-size="14.00">ExpTemp2</text>
</g>
<!-- ExpBinary1&#45;&gt;ExpTemp2 -->
<g id="edge14" class="edge"><title>ExpBinary1&#45;&gt;ExpTemp2</title>
<path fill="none" stroke="black" d="M580.343,-433.811C564.236,-423.744 542.912,-410.417 525.325,-399.425"/>
<polygon fill="black" stroke="black" points="526.85,-396.251 516.515,-393.919 523.14,-402.187 526.85,-396.251"/>
</g>
<!-- Plus1 -->
<g id="node23" class="node"><title>Plus1</title>
<ellipse fill="none" stroke="black" cx="591.645" cy="-378" rx="30.5947" ry="18"/>
<text text-anchor="middle" x="591.645" y="-374.3" font-family="Times,serif" font-size="14.00">Plus1</text>
</g>
<!-- ExpBinary1&#45;&gt;Plus1 -->
<g id="edge15" class="edge"><title>ExpBinary1&#45;&gt;Plus1</title>
<path fill="none" stroke="black" d="M601.432,-431.697C599.999,-423.983 598.278,-414.712 596.68,-406.112"/>
<polygon fill="black" stroke="black" points="600.089,-405.297 594.822,-396.104 593.207,-406.575 600.089,-405.297"/>
</g>
<!-- ExpConst1 -->
<g id="node24" class="node"><title>ExpConst1</title>
<ellipse fill="none" stroke="black" cx="690.645" cy="-378" rx="50.0912" ry="18"/>
<text text-anchor="middle" x="690.645" y="-374.3" font-family="Times,serif" font-size="14.00">ExpConst1</text>
</g>
<!-- ExpBinary1&#45;&gt;ExpConst1 -->
<g id="edge16" class="edge"><title>ExpBinary1&#45;&gt;ExpConst1</title>
<path fill="none" stroke="black" d="M624.16,-433.116C635.705,-423.718 650.509,-411.669 663.216,-401.326"/>
<polygon fill="black" stroke="black" points="665.662,-403.848 671.208,-394.821 661.243,-398.419 665.662,-403.848"/>
</g>
<!-- Temp2: $fp -->
<g id="node36" class="node"><title>Temp2: $fp</title>
<ellipse fill="none" stroke="black" cx="492.645" cy="-306" rx="52.7911" ry="18"/>
<text text-anchor="middle" x="492.645" y="-302.3" font-family="Times,serif" font-size="14.00">Temp2: $fp</text>
</g>
<!-- ExpTemp2&#45;&gt;Temp2: $fp -->
<g id="edge29" class="edge"><title>ExpTemp2&#45;&gt;Temp2: $fp</title>
<path fill="none" stroke="black" d="M492.645,-359.697C492.645,-351.983 492.645,-342.712 492.645,-334.112"/>
<polygon fill="black" stroke="black" points="496.145,-334.104 492.645,-324.104 489.145,-334.104 496.145,-334.104"/>
</g>
<!-- Value1: 12 -->
<g id="node38" class="node"><title>Value1: 12</title>
<ellipse fill="none" stroke="black" cx="682.645" cy="-306" rx="50.0912" ry="18"/>
<text text-anchor="middle" x="682.645" y="-302.3" font-family="Times,serif" font-size="14.00">Value1: 12</text>
</g>
<!-- ExpConst1&#45;&gt;Value1: 12 -->
<g id="edge34" class="edge"><title>ExpConst1&#45;&gt;Value1: 12</title>
<path fill="none" stroke="black" d="M688.668,-359.697C687.786,-351.983 686.727,-342.712 685.744,-334.112"/>
<polygon fill="black" stroke="black" points="689.213,-333.642 684.6,-324.104 682.258,-334.437 689.213,-333.642"/>
</g>
<!-- StatLabel0 -->
<g id="node25" class="node"><title>StatLabel0</title>
<ellipse fill="none" stroke="black" cx="562.645" cy="-738" rx="48.9926" ry="18"/>
<text text-anchor="middle" x="562.645" y="-734.3" font-family="Times,serif" font-size="14.00">StatLabel0</text>
</g>
<!-- Label0: Tree::Print -->
<g id="node26" class="node"><title>Label0: Tree::Print</title>
<ellipse fill="none" stroke="black" cx="547.645" cy="-666" rx="77.9862" ry="18"/>
<text text-anchor="middle" x="547.645" y="-662.3" font-family="Times,serif" font-size="14.00">Label0: Tree::Print</text>
</g>
<!-- StatLabel0&#45;&gt;Label0: Tree::Print -->
<g id="edge17" class="edge"><title>StatLabel0&#45;&gt;Label0: Tree::Print</title>
<path fill="none" stroke="black" d="M558.937,-719.697C557.284,-711.983 555.298,-702.712 553.455,-694.112"/>
<polygon fill="black" stroke="black" points="556.828,-693.149 551.311,-684.104 549.984,-694.616 556.828,-693.149"/>
</g>
<!-- StatSeq0 -->
<g id="node29" class="node"><title>StatSeq0</title>
<ellipse fill="none" stroke="black" cx="623.645" cy="-810" rx="42.4939" ry="18"/>
<text text-anchor="middle" x="623.645" y="-806.3" font-family="Times,serif" font-size="14.00">StatSeq0</text>
</g>
<!-- StatSeq0&#45;&gt;StatLabel0 -->
<g id="edge20" class="edge"><title>StatSeq0&#45;&gt;StatLabel0</title>
<path fill="none" stroke="black" d="M609.497,-792.765C601.908,-784.056 592.402,-773.147 583.939,-763.435"/>
<polygon fill="black" stroke="black" points="586.349,-760.873 577.14,-755.633 581.071,-765.472 586.349,-760.873"/>
</g>
<!-- StatSeq1 -->
<g id="node30" class="node"><title>StatSeq1</title>
<ellipse fill="none" stroke="black" cx="685.645" cy="-738" rx="42.4939" ry="18"/>
<text text-anchor="middle" x="685.645" y="-734.3" font-family="Times,serif" font-size="14.00">StatSeq1</text>
</g>
<!-- StatSeq0&#45;&gt;StatSeq1 -->
<g id="edge21" class="edge"><title>StatSeq0&#45;&gt;StatSeq1</title>
<path fill="none" stroke="black" d="M638.025,-792.765C645.929,-783.841 655.878,-772.608 664.637,-762.719"/>
<polygon fill="black" stroke="black" points="667.333,-764.954 671.343,-755.147 662.093,-760.313 667.333,-764.954"/>
</g>
<!-- StatSeq1&#45;&gt;StatMove3 -->
<g id="edge33" class="edge"><title>StatSeq1&#45;&gt;StatMove3</title>
<path fill="none" stroke="black" d="M718.992,-726.671C757.608,-714.711 821.475,-694.929 865.001,-681.447"/>
<polygon fill="black" stroke="black" points="866.264,-684.72 874.78,-678.418 864.192,-678.034 866.264,-684.72"/>
</g>
<!-- StatSeq1&#45;&gt;StatSeq2 -->
<g id="edge32" class="edge"><title>StatSeq1&#45;&gt;StatSeq2</title>
<path fill="none" stroke="black" d="M685.645,-719.697C685.645,-711.983 685.645,-702.712 685.645,-694.112"/>
<polygon fill="black" stroke="black" points="689.145,-694.104 685.645,-684.104 682.145,-694.104 689.145,-694.104"/>
</g>
<!-- Temp3: T97 -->
<g id="node32" class="node"><title>Temp3: T97</title>
<ellipse fill="none" stroke="black" cx="805.645" cy="-306" rx="55.4913" ry="18"/>
<text text-anchor="middle" x="805.645" y="-302.3" font-family="Times,serif" font-size="14.00">Temp3: T97</text>
</g>
<!-- ExpTemp3&#45;&gt;Temp3: T97 -->
<g id="edge22" class="edge"><title>ExpTemp3&#45;&gt;Temp3: T97</title>
<path fill="none" stroke="black" d="M807.904,-359.697C807.573,-351.983 807.176,-342.712 806.807,-334.112"/>
<polygon fill="black" stroke="black" points="810.303,-333.945 806.378,-324.104 803.31,-334.245 810.303,-333.945"/>
</g>
<!-- Temp0: $fp -->
<g id="node34" class="node"><title>Temp0: $fp</title>
<ellipse fill="none" stroke="black" cx="52.6453" cy="-306" rx="52.7911" ry="18"/>
<text text-anchor="middle" x="52.6453" y="-302.3" font-family="Times,serif" font-size="14.00">Temp0: $fp</text>
</g>
<!-- ExpTemp0&#45;&gt;Temp0: $fp -->
<g id="edge23" class="edge"><title>ExpTemp0&#45;&gt;Temp0: $fp</title>
<path fill="none" stroke="black" d="M52.6453,-359.697C52.6453,-351.983 52.6453,-342.712 52.6453,-334.112"/>
<polygon fill="black" stroke="black" points="56.1454,-334.104 52.6453,-324.104 49.1454,-334.104 56.1454,-334.104"/>
</g>
<!-- ExpCall0&#45;&gt;ExpList0 -->
<g id="edge40" class="edge"><title>ExpCall0&#45;&gt;ExpList0</title>
<path fill="none" stroke="black" d="M953.253,-363.503C974.826,-352.56 1005.43,-337.039 1029.1,-325.032"/>
<polygon fill="black" stroke="black" points="1030.78,-328.1 1038.12,-320.455 1027.62,-321.858 1030.78,-328.1"/>
</g>
<!-- ExpName0 -->
<g id="node40" class="node"><title>ExpName0</title>
<ellipse fill="none" stroke="black" cx="929.645" cy="-306" rx="50.8918" ry="18"/>
<text text-anchor="middle" x="929.645" y="-302.3" font-family="Times,serif" font-size="14.00">ExpName0</text>
</g>
<!-- ExpCall0&#45;&gt;ExpName0 -->
<g id="edge39" class="edge"><title>ExpCall0&#45;&gt;ExpName0</title>
<path fill="none" stroke="black" d="M927.387,-359.697C927.717,-351.983 928.115,-342.712 928.483,-334.112"/>
<polygon fill="black" stroke="black" points="931.981,-334.245 928.912,-324.104 924.987,-333.945 931.981,-334.245"/>
</g>
<!-- ExpMem2&#45;&gt;ExpBinary1 -->
<g id="edge38" class="edge"><title>ExpMem2&#45;&gt;ExpBinary1</title>
<path fill="none" stroke="black" d="M624.351,-504.055C621.425,-496.176 617.874,-486.617 614.597,-477.794"/>
<polygon fill="black" stroke="black" points="617.825,-476.431 611.062,-468.275 611.263,-478.868 617.825,-476.431"/>
</g>
<!-- Label1: Tree::RecPrint -->
<g id="node41" class="node"><title>Label1: Tree::RecPrint</title>
<ellipse fill="none" stroke="black" cx="918.645" cy="-234" rx="91.784" ry="18"/>
<text text-anchor="middle" x="918.645" y="-230.3" font-family="Times,serif" font-size="14.00">Label1: Tree::RecPrint</text>
</g>
<!-- ExpName0&#45;&gt;Label1: Tree::RecPrint -->
<g id="edge37" class="edge"><title>ExpName0&#45;&gt;Label1: Tree::RecPrint</title>
<path fill="none" stroke="black" d="M926.926,-287.697C925.714,-279.983 924.257,-270.712 922.906,-262.112"/>
<polygon fill="black" stroke="black" points="926.343,-261.44 921.333,-252.104 919.428,-262.526 926.343,-261.44"/>
</g>
<!-- Temp4: $fp -->
<g id="node43" class="node"><title>Temp4: $fp</title>
<ellipse fill="none" stroke="black" cx="977.645" cy="-18" rx="52.7911" ry="18"/>
<text text-anchor="middle" x="977.645" y="-14.3" font-family="Times,serif" font-size="14.00">Temp4: $fp</text>
</g>
<!-- ExpTemp4&#45;&gt;Temp4: $fp -->
<g id="edge41" class="edge"><title>ExpTemp4&#45;&gt;Temp4: $fp</title>
<path fill="none" stroke="black" d="M977.645,-71.6966C977.645,-63.9827 977.645,-54.7125 977.645,-46.1124"/>
<polygon fill="black" stroke="black" points="981.145,-46.1043 977.645,-36.1043 974.145,-46.1044 981.145,-46.1043"/>
</g>
<!-- Value2: 8 -->
<g id="node46" class="node"><title>Value2: 8</title>
<ellipse fill="none" stroke="black" cx="1175.65" cy="-18" rx="45.4919" ry="18"/>
<text text-anchor="middle" x="1175.65" y="-14.3" font-family="Times,serif" font-size="14.00">Value2: 8</text>
</g>
<!-- ExpConst2&#45;&gt;Value2: 8 -->
<g id="edge45" class="edge"><title>ExpConst2&#45;&gt;Value2: 8</title>
<path fill="none" stroke="black" d="M1175.65,-71.6966C1175.65,-63.9827 1175.65,-54.7125 1175.65,-46.1124"/>
<polygon fill="black" stroke="black" points="1179.15,-46.1043 1175.65,-36.1043 1172.15,-46.1044 1179.15,-46.1043"/>
</g>
</g>
</svg>
