<?xml version="1.0" encoding="UTF-8" standalone="no"?>
<!DOCTYPE svg PUBLIC "-//W3C//DTD SVG 1.1//EN"
 "http://www.w3.org/Graphics/SVG/1.1/DTD/svg11.dtd">
<!-- Generated by graphviz version 2.38.0 (20140413.2041)
 -->
<!-- Title: %3 Pages: 1 -->
<svg width="715pt" height="476pt"
 viewBox="0.00 0.00 714.69 476.00" xmlns="http://www.w3.org/2000/svg" xmlns:xlink="http://www.w3.org/1999/xlink">
<g id="graph0" class="graph" transform="scale(1 1) rotate(0) translate(4 472)">
<title>%3</title>
<polygon fill="white" stroke="none" points="-4,4 -4,-472 710.691,-472 710.691,4 -4,4"/>
<!-- ExpConst2 -->
<g id="node1" class="node"><title>ExpConst2</title>
<ellipse fill="none" stroke="black" cx="656.645" cy="-306" rx="50.0912" ry="18"/>
<text text-anchor="middle" x="656.645" y="-302.3" font-family="Times,serif" font-size="14.00">ExpConst2</text>
</g>
<!-- Value2: 1 -->
<g id="node2" class="node"><title>Value2: 1</title>
<ellipse fill="none" stroke="black" cx="656.645" cy="-234" rx="45.4919" ry="18"/>
<text text-anchor="middle" x="656.645" y="-230.3" font-family="Times,serif" font-size="14.00">Value2: 1</text>
</g>
<!-- ExpConst2&#45;&gt;Value2: 1 -->
<g id="edge1" class="edge"><title>ExpConst2&#45;&gt;Value2: 1</title>
<path fill="none" stroke="black" d="M656.645,-287.697C656.645,-279.983 656.645,-270.712 656.645,-262.112"/>
<polygon fill="black" stroke="black" points="660.145,-262.104 656.645,-252.104 653.145,-262.104 660.145,-262.104"/>
</g>
<!-- ExpTemp2 -->
<g id="node3" class="node"><title>ExpTemp2</title>
<ellipse fill="none" stroke="black" cx="538.645" cy="-306" rx="50.0912" ry="18"/>
<text text-anchor="middle" x="538.645" y="-302.3" font-family="Times,serif" font-size="14.00">ExpTemp2</text>
</g>
<!-- Temp2: $rv -->
<g id="node4" class="node"><title>Temp2: $rv</title>
<ellipse fill="none" stroke="black" cx="539.645" cy="-234" rx="52.7911" ry="18"/>
<text text-anchor="middle" x="539.645" y="-230.3" font-family="Times,serif" font-size="14.00">Temp2: $rv</text>
</g>
<!-- ExpTemp2&#45;&gt;Temp2: $rv -->
<g id="edge2" class="edge"><title>ExpTemp2&#45;&gt;Temp2: $rv</title>
<path fill="none" stroke="black" d="M538.893,-287.697C539.003,-279.983 539.135,-270.712 539.258,-262.112"/>
<polygon fill="black" stroke="black" points="542.758,-262.153 539.401,-252.104 535.758,-262.053 542.758,-262.153"/>
</g>
<!-- StatMove1 -->
<g id="node5" class="node"><title>StatMove1</title>
<ellipse fill="none" stroke="black" cx="538.645" cy="-378" rx="50.0912" ry="18"/>
<text text-anchor="middle" x="538.645" y="-374.3" font-family="Times,serif" font-size="14.00">StatMove1</text>
</g>
<!-- StatMove1&#45;&gt;ExpConst2 -->
<g id="edge4" class="edge"><title>StatMove1&#45;&gt;ExpConst2</title>
<path fill="none" stroke="black" d="M563.382,-362.326C580.768,-352.012 604.228,-338.095 623.269,-326.8"/>
<polygon fill="black" stroke="black" points="625.126,-329.767 631.941,-321.655 621.555,-323.747 625.126,-329.767"/>
</g>
<!-- StatMove1&#45;&gt;ExpTemp2 -->
<g id="edge3" class="edge"><title>StatMove1&#45;&gt;ExpTemp2</title>
<path fill="none" stroke="black" d="M538.645,-359.697C538.645,-351.983 538.645,-342.712 538.645,-334.112"/>
<polygon fill="black" stroke="black" points="542.145,-334.104 538.645,-324.104 535.145,-334.104 542.145,-334.104"/>
</g>
<!-- ExpConst1 -->
<g id="node6" class="node"><title>ExpConst1</title>
<ellipse fill="none" stroke="black" cx="564.645" cy="-162" rx="50.0912" ry="18"/>
<text text-anchor="middle" x="564.645" y="-158.3" font-family="Times,serif" font-size="14.00">ExpConst1</text>
</g>
<!-- Value1: 4 -->
<g id="node7" class="node"><title>Value1: 4</title>
<ellipse fill="none" stroke="black" cx="564.645" cy="-90" rx="45.4919" ry="18"/>
<text text-anchor="middle" x="564.645" y="-86.3" font-family="Times,serif" font-size="14.00">Value1: 4</text>
</g>
<!-- ExpConst1&#45;&gt;Value1: 4 -->
<g id="edge5" class="edge"><title>ExpConst1&#45;&gt;Value1: 4</title>
<path fill="none" stroke="black" d="M564.645,-143.697C564.645,-135.983 564.645,-126.712 564.645,-118.112"/>
<polygon fill="black" stroke="black" points="568.145,-118.104 564.645,-108.104 561.145,-118.104 568.145,-118.104"/>
</g>
<!-- ExpMem2 -->
<g id="node8" class="node"><title>ExpMem2</title>
<ellipse fill="none" stroke="black" cx="415.645" cy="-306" rx="48.9926" ry="18"/>
<text text-anchor="middle" x="415.645" y="-302.3" font-family="Times,serif" font-size="14.00">ExpMem2</text>
</g>
<!-- ExpBinary1 -->
<g id="node9" class="node"><title>ExpBinary1</title>
<ellipse fill="none" stroke="black" cx="415.645" cy="-234" rx="53.0913" ry="18"/>
<text text-anchor="middle" x="415.645" y="-230.3" font-family="Times,serif" font-size="14.00">ExpBinary1</text>
</g>
<!-- ExpMem2&#45;&gt;ExpBinary1 -->
<g id="edge6" class="edge"><title>ExpMem2&#45;&gt;ExpBinary1</title>
<path fill="none" stroke="black" d="M415.645,-287.697C415.645,-279.983 415.645,-270.712 415.645,-262.112"/>
<polygon fill="black" stroke="black" points="419.145,-262.104 415.645,-252.104 412.145,-262.104 419.145,-262.104"/>
</g>
<!-- ExpBinary1&#45;&gt;ExpConst1 -->
<g id="edge23" class="edge"><title>ExpBinary1&#45;&gt;ExpConst1</title>
<path fill="none" stroke="black" d="M445.44,-219.003C468.634,-208.106 501.001,-192.9 526.157,-181.082"/>
<polygon fill="black" stroke="black" points="527.848,-184.155 535.41,-176.734 524.871,-177.819 527.848,-184.155"/>
</g>
<!-- ExpTemp1 -->
<g id="node22" class="node"><title>ExpTemp1</title>
<ellipse fill="none" stroke="black" cx="366.645" cy="-162" rx="50.0912" ry="18"/>
<text text-anchor="middle" x="366.645" y="-158.3" font-family="Times,serif" font-size="14.00">ExpTemp1</text>
</g>
<!-- ExpBinary1&#45;&gt;ExpTemp1 -->
<g id="edge21" class="edge"><title>ExpBinary1&#45;&gt;ExpTemp1</title>
<path fill="none" stroke="black" d="M404.033,-216.411C398.139,-207.992 390.855,-197.585 384.286,-188.201"/>
<polygon fill="black" stroke="black" points="387.117,-186.141 378.515,-179.956 381.382,-190.156 387.117,-186.141"/>
</g>
<!-- Plus1 -->
<g id="node24" class="node"><title>Plus1</title>
<ellipse fill="none" stroke="black" cx="465.645" cy="-162" rx="30.5947" ry="18"/>
<text text-anchor="middle" x="465.645" y="-158.3" font-family="Times,serif" font-size="14.00">Plus1</text>
</g>
<!-- ExpBinary1&#45;&gt;Plus1 -->
<g id="edge22" class="edge"><title>ExpBinary1&#45;&gt;Plus1</title>
<path fill="none" stroke="black" d="M427.495,-216.411C433.685,-207.744 441.38,-196.971 448.234,-187.375"/>
<polygon fill="black" stroke="black" points="451.261,-189.16 454.225,-178.988 445.565,-185.091 451.261,-189.16"/>
</g>
<!-- ExpTemp0 -->
<g id="node10" class="node"><title>ExpTemp0</title>
<ellipse fill="none" stroke="black" cx="52.6453" cy="-90" rx="50.0912" ry="18"/>
<text text-anchor="middle" x="52.6453" y="-86.3" font-family="Times,serif" font-size="14.00">ExpTemp0</text>
</g>
<!-- Temp0: $fp -->
<g id="node11" class="node"><title>Temp0: $fp</title>
<ellipse fill="none" stroke="black" cx="52.6453" cy="-18" rx="52.7911" ry="18"/>
<text text-anchor="middle" x="52.6453" y="-14.3" font-family="Times,serif" font-size="14.00">Temp0: $fp</text>
</g>
<!-- ExpTemp0&#45;&gt;Temp0: $fp -->
<g id="edge7" class="edge"><title>ExpTemp0&#45;&gt;Temp0: $fp</title>
<path fill="none" stroke="black" d="M52.6453,-71.6966C52.6453,-63.9827 52.6453,-54.7125 52.6453,-46.1124"/>
<polygon fill="black" stroke="black" points="56.1454,-46.1043 52.6453,-36.1043 49.1454,-46.1044 56.1454,-46.1043"/>
</g>
<!-- StatList0 -->
<g id="node12" class="node"><title>StatList0</title>
<ellipse fill="none" stroke="black" cx="357.645" cy="-450" rx="42.4939" ry="18"/>
<text text-anchor="middle" x="357.645" y="-446.3" font-family="Times,serif" font-size="14.00">StatList0</text>
</g>
<!-- StatList0&#45;&gt;StatMove1 -->
<g id="edge10" class="edge"><title>StatList0&#45;&gt;StatMove1</title>
<path fill="none" stroke="black" d="M387.941,-437.284C417.618,-425.806 463.102,-408.216 496.341,-395.361"/>
<polygon fill="black" stroke="black" points="497.734,-398.575 505.799,-391.703 495.209,-392.046 497.734,-398.575"/>
</g>
<!-- StatLabel0 -->
<g id="node13" class="node"><title>StatLabel0</title>
<ellipse fill="none" stroke="black" cx="220.645" cy="-378" rx="48.9926" ry="18"/>
<text text-anchor="middle" x="220.645" y="-374.3" font-family="Times,serif" font-size="14.00">StatLabel0</text>
</g>
<!-- StatList0&#45;&gt;StatLabel0 -->
<g id="edge8" class="edge"><title>StatList0&#45;&gt;StatLabel0</title>
<path fill="none" stroke="black" d="M331.554,-435.669C310.445,-424.883 280.476,-409.571 257.012,-397.582"/>
<polygon fill="black" stroke="black" points="258.545,-394.435 248.048,-393.001 255.36,-400.668 258.545,-394.435"/>
</g>
<!-- StatMove0 -->
<g id="node14" class="node"><title>StatMove0</title>
<ellipse fill="none" stroke="black" cx="357.645" cy="-378" rx="50.0912" ry="18"/>
<text text-anchor="middle" x="357.645" y="-374.3" font-family="Times,serif" font-size="14.00">StatMove0</text>
</g>
<!-- StatList0&#45;&gt;StatMove0 -->
<g id="edge9" class="edge"><title>StatList0&#45;&gt;StatMove0</title>
<path fill="none" stroke="black" d="M357.645,-431.697C357.645,-423.983 357.645,-414.712 357.645,-406.112"/>
<polygon fill="black" stroke="black" points="361.145,-406.104 357.645,-396.104 354.145,-406.104 361.145,-406.104"/>
</g>
<!-- Label0: Tree@SetKey -->
<g id="node15" class="node"><title>Label0: Tree@SetKey</title>
<ellipse fill="none" stroke="black" cx="143.645" cy="-306" rx="90.1842" ry="18"/>
<text text-anchor="middle" x="143.645" y="-302.3" font-family="Times,serif" font-size="14.00">Label0: Tree@SetKey</text>
</g>
<!-- StatLabel0&#45;&gt;Label0: Tree@SetKey -->
<g id="edge11" class="edge"><title>StatLabel0&#45;&gt;Label0: Tree@SetKey</title>
<path fill="none" stroke="black" d="M203.173,-361.116C193.318,-352.157 180.812,-340.788 169.809,-330.785"/>
<polygon fill="black" stroke="black" points="171.876,-327.934 162.122,-323.797 167.167,-333.114 171.876,-327.934"/>
</g>
<!-- StatMove0&#45;&gt;ExpMem2 -->
<g id="edge18" class="edge"><title>StatMove0&#45;&gt;ExpMem2</title>
<path fill="none" stroke="black" d="M371.391,-360.411C378.614,-351.693 387.602,-340.845 395.588,-331.208"/>
<polygon fill="black" stroke="black" points="398.314,-333.403 401.999,-323.47 392.924,-328.937 398.314,-333.403"/>
</g>
<!-- ExpMem0 -->
<g id="node21" class="node"><title>ExpMem0</title>
<ellipse fill="none" stroke="black" cx="300.645" cy="-306" rx="48.9926" ry="18"/>
<text text-anchor="middle" x="300.645" y="-302.3" font-family="Times,serif" font-size="14.00">ExpMem0</text>
</g>
<!-- StatMove0&#45;&gt;ExpMem0 -->
<g id="edge17" class="edge"><title>StatMove0&#45;&gt;ExpMem0</title>
<path fill="none" stroke="black" d="M344.137,-360.411C337.109,-351.781 328.382,-341.062 320.593,-331.497"/>
<polygon fill="black" stroke="black" points="323.085,-329.014 314.057,-323.47 317.657,-333.434 323.085,-329.014"/>
</g>
<!-- ExpMem1 -->
<g id="node16" class="node"><title>ExpMem1</title>
<ellipse fill="none" stroke="black" cx="52.6453" cy="-162" rx="48.9926" ry="18"/>
<text text-anchor="middle" x="52.6453" y="-158.3" font-family="Times,serif" font-size="14.00">ExpMem1</text>
</g>
<!-- ExpMem1&#45;&gt;ExpTemp0 -->
<g id="edge12" class="edge"><title>ExpMem1&#45;&gt;ExpTemp0</title>
<path fill="none" stroke="black" d="M52.6453,-143.697C52.6453,-135.983 52.6453,-126.712 52.6453,-118.112"/>
<polygon fill="black" stroke="black" points="56.1454,-118.104 52.6453,-108.104 49.1454,-118.104 56.1454,-118.104"/>
</g>
<!-- ExpConst0 -->
<g id="node17" class="node"><title>ExpConst0</title>
<ellipse fill="none" stroke="black" cx="248.645" cy="-162" rx="50.0912" ry="18"/>
<text text-anchor="middle" x="248.645" y="-158.3" font-family="Times,serif" font-size="14.00">ExpConst0</text>
</g>
<!-- Value0: 4 -->
<g id="node18" class="node"><title>Value0: 4</title>
<ellipse fill="none" stroke="black" cx="248.645" cy="-90" rx="45.4919" ry="18"/>
<text text-anchor="middle" x="248.645" y="-86.3" font-family="Times,serif" font-size="14.00">Value0: 4</text>
</g>
<!-- ExpConst0&#45;&gt;Value0: 4 -->
<g id="edge13" class="edge"><title>ExpConst0&#45;&gt;Value0: 4</title>
<path fill="none" stroke="black" d="M248.645,-143.697C248.645,-135.983 248.645,-126.712 248.645,-118.112"/>
<polygon fill="black" stroke="black" points="252.145,-118.104 248.645,-108.104 245.145,-118.104 252.145,-118.104"/>
</g>
<!-- ExpBinary0 -->
<g id="node19" class="node"><title>ExpBinary0</title>
<ellipse fill="none" stroke="black" cx="198.645" cy="-234" rx="53.0913" ry="18"/>
<text text-anchor="middle" x="198.645" y="-230.3" font-family="Times,serif" font-size="14.00">ExpBinary0</text>
</g>
<!-- ExpBinary0&#45;&gt;ExpMem1 -->
<g id="edge14" class="edge"><title>ExpBinary0&#45;&gt;ExpMem1</title>
<path fill="none" stroke="black" d="M169.1,-218.834C146.344,-207.924 114.729,-192.766 90.1819,-180.997"/>
<polygon fill="black" stroke="black" points="91.6834,-177.835 81.153,-176.668 88.657,-184.147 91.6834,-177.835"/>
</g>
<!-- ExpBinary0&#45;&gt;ExpConst0 -->
<g id="edge16" class="edge"><title>ExpBinary0&#45;&gt;ExpConst0</title>
<path fill="none" stroke="black" d="M210.495,-216.411C216.509,-207.992 223.942,-197.585 230.645,-188.201"/>
<polygon fill="black" stroke="black" points="233.569,-190.128 236.534,-179.956 227.873,-186.059 233.569,-190.128"/>
</g>
<!-- Plus0 -->
<g id="node20" class="node"><title>Plus0</title>
<ellipse fill="none" stroke="black" cx="149.645" cy="-162" rx="30.5947" ry="18"/>
<text text-anchor="middle" x="149.645" y="-158.3" font-family="Times,serif" font-size="14.00">Plus0</text>
</g>
<!-- ExpBinary0&#45;&gt;Plus0 -->
<g id="edge15" class="edge"><title>ExpBinary0&#45;&gt;Plus0</title>
<path fill="none" stroke="black" d="M187.033,-216.411C180.966,-207.744 173.425,-196.971 166.708,-187.375"/>
<polygon fill="black" stroke="black" points="169.439,-185.173 160.837,-178.988 163.704,-189.188 169.439,-185.173"/>
</g>
<!-- ExpMem0&#45;&gt;ExpBinary0 -->
<g id="edge20" class="edge"><title>ExpMem0&#45;&gt;ExpBinary0</title>
<path fill="none" stroke="black" d="M278.513,-289.811C264.176,-279.972 245.301,-267.019 229.501,-256.175"/>
<polygon fill="black" stroke="black" points="231.312,-253.174 221.087,-250.401 227.352,-258.945 231.312,-253.174"/>
</g>
<!-- Temp1: $fp -->
<g id="node23" class="node"><title>Temp1: $fp</title>
<ellipse fill="none" stroke="black" cx="366.645" cy="-90" rx="52.7911" ry="18"/>
<text text-anchor="middle" x="366.645" y="-86.3" font-family="Times,serif" font-size="14.00">Temp1: $fp</text>
</g>
<!-- ExpTemp1&#45;&gt;Temp1: $fp -->
<g id="edge19" class="edge"><title>ExpTemp1&#45;&gt;Temp1: $fp</title>
<path fill="none" stroke="black" d="M366.645,-143.697C366.645,-135.983 366.645,-126.712 366.645,-118.112"/>
<polygon fill="black" stroke="black" points="370.145,-118.104 366.645,-108.104 363.145,-118.104 370.145,-118.104"/>
</g>
</g>
</svg>
