<?xml version="1.0" encoding="UTF-8" standalone="no"?>
<!DOCTYPE svg PUBLIC "-//W3C//DTD SVG 1.1//EN"
 "http://www.w3.org/Graphics/SVG/1.1/DTD/svg11.dtd">
<!-- Generated by graphviz version 2.38.0 (20140413.2041)
 -->
<!-- Title: %3 Pages: 1 -->
<svg width="1058pt" height="764pt"
 viewBox="0.00 0.00 1057.89 764.00" xmlns="http://www.w3.org/2000/svg" xmlns:xlink="http://www.w3.org/1999/xlink">
<g id="graph0" class="graph" transform="scale(1 1) rotate(0) translate(4 760)">
<title>%3</title>
<polygon fill="white" stroke="none" points="-4,4 -4,-760 1053.89,-760 1053.89,4 -4,4"/>
<!-- ExpConst2 -->
<g id="node1" class="node"><title>ExpConst2</title>
<ellipse fill="none" stroke="black" cx="956.245" cy="-522" rx="50.0912" ry="18"/>
<text text-anchor="middle" x="956.245" y="-518.3" font-family="Times,serif" font-size="14.00">ExpConst2</text>
</g>
<!-- Value2: 0 -->
<g id="node2" class="node"><title>Value2: 0</title>
<ellipse fill="none" stroke="black" cx="956.245" cy="-450" rx="45.4919" ry="18"/>
<text text-anchor="middle" x="956.245" y="-446.3" font-family="Times,serif" font-size="14.00">Value2: 0</text>
</g>
<!-- ExpConst2&#45;&gt;Value2: 0 -->
<g id="edge1" class="edge"><title>ExpConst2&#45;&gt;Value2: 0</title>
<path fill="none" stroke="black" d="M956.245,-503.697C956.245,-495.983 956.245,-486.712 956.245,-478.112"/>
<polygon fill="black" stroke="black" points="959.745,-478.104 956.245,-468.104 952.745,-478.104 959.745,-478.104"/>
</g>
<!-- StatMove3 -->
<g id="node3" class="node"><title>StatMove3</title>
<ellipse fill="none" stroke="black" cx="838.245" cy="-594" rx="50.0912" ry="18"/>
<text text-anchor="middle" x="838.245" y="-590.3" font-family="Times,serif" font-size="14.00">StatMove3</text>
</g>
<!-- StatMove3&#45;&gt;ExpConst2 -->
<g id="edge3" class="edge"><title>StatMove3&#45;&gt;ExpConst2</title>
<path fill="none" stroke="black" d="M862.982,-578.326C880.367,-568.012 903.828,-554.095 922.869,-542.8"/>
<polygon fill="black" stroke="black" points="924.726,-545.767 931.541,-537.655 921.155,-539.747 924.726,-545.767"/>
</g>
<!-- ExpTemp6 -->
<g id="node4" class="node"><title>ExpTemp6</title>
<ellipse fill="none" stroke="black" cx="838.245" cy="-522" rx="50.0912" ry="18"/>
<text text-anchor="middle" x="838.245" y="-518.3" font-family="Times,serif" font-size="14.00">ExpTemp6</text>
</g>
<!-- StatMove3&#45;&gt;ExpTemp6 -->
<g id="edge2" class="edge"><title>StatMove3&#45;&gt;ExpTemp6</title>
<path fill="none" stroke="black" d="M838.245,-575.697C838.245,-567.983 838.245,-558.712 838.245,-550.112"/>
<polygon fill="black" stroke="black" points="841.745,-550.104 838.245,-540.104 834.745,-550.104 841.745,-550.104"/>
</g>
<!-- Temp6: $rv -->
<g id="node5" class="node"><title>Temp6: $rv</title>
<ellipse fill="none" stroke="black" cx="839.245" cy="-450" rx="52.7911" ry="18"/>
<text text-anchor="middle" x="839.245" y="-446.3" font-family="Times,serif" font-size="14.00">Temp6: $rv</text>
</g>
<!-- ExpTemp6&#45;&gt;Temp6: $rv -->
<g id="edge4" class="edge"><title>ExpTemp6&#45;&gt;Temp6: $rv</title>
<path fill="none" stroke="black" d="M838.492,-503.697C838.602,-495.983 838.735,-486.712 838.858,-478.112"/>
<polygon fill="black" stroke="black" points="842.357,-478.153 839.001,-468.104 835.358,-478.053 842.357,-478.153"/>
</g>
<!-- ExpMem1 -->
<g id="node6" class="node"><title>ExpMem1</title>
<ellipse fill="none" stroke="black" cx="997.245" cy="-162" rx="48.9926" ry="18"/>
<text text-anchor="middle" x="997.245" y="-158.3" font-family="Times,serif" font-size="14.00">ExpMem1</text>
</g>
<!-- ExpTemp4 -->
<g id="node7" class="node"><title>ExpTemp4</title>
<ellipse fill="none" stroke="black" cx="997.245" cy="-90" rx="50.0912" ry="18"/>
<text text-anchor="middle" x="997.245" y="-86.3" font-family="Times,serif" font-size="14.00">ExpTemp4</text>
</g>
<!-- ExpMem1&#45;&gt;ExpTemp4 -->
<g id="edge5" class="edge"><title>ExpMem1&#45;&gt;ExpTemp4</title>
<path fill="none" stroke="black" d="M997.245,-143.697C997.245,-135.983 997.245,-126.712 997.245,-118.112"/>
<polygon fill="black" stroke="black" points="1000.75,-118.104 997.245,-108.104 993.745,-118.104 1000.75,-118.104"/>
</g>
<!-- Temp4: $fp -->
<g id="node18" class="node"><title>Temp4: $fp</title>
<ellipse fill="none" stroke="black" cx="997.245" cy="-18" rx="52.7911" ry="18"/>
<text text-anchor="middle" x="997.245" y="-14.3" font-family="Times,serif" font-size="14.00">Temp4: $fp</text>
</g>
<!-- ExpTemp4&#45;&gt;Temp4: $fp -->
<g id="edge13" class="edge"><title>ExpTemp4&#45;&gt;Temp4: $fp</title>
<path fill="none" stroke="black" d="M997.245,-71.6966C997.245,-63.9827 997.245,-54.7125 997.245,-46.1124"/>
<polygon fill="black" stroke="black" points="1000.75,-46.1043 997.245,-36.1043 993.745,-46.1044 1000.75,-46.1043"/>
</g>
<!-- ExpEseq0 -->
<g id="node8" class="node"><title>ExpEseq0</title>
<ellipse fill="none" stroke="black" cx="297.245" cy="-450" rx="46.2923" ry="18"/>
<text text-anchor="middle" x="297.245" y="-446.3" font-family="Times,serif" font-size="14.00">ExpEseq0</text>
</g>
<!-- StatMove0 -->
<g id="node9" class="node"><title>StatMove0</title>
<ellipse fill="none" stroke="black" cx="179.245" cy="-378" rx="50.0912" ry="18"/>
<text text-anchor="middle" x="179.245" y="-374.3" font-family="Times,serif" font-size="14.00">StatMove0</text>
</g>
<!-- ExpEseq0&#45;&gt;StatMove0 -->
<g id="edge6" class="edge"><title>ExpEseq0&#45;&gt;StatMove0</title>
<path fill="none" stroke="black" d="M272.795,-434.496C255.429,-424.194 231.896,-410.234 212.778,-398.893"/>
<polygon fill="black" stroke="black" points="214.456,-395.818 204.069,-393.726 210.884,-401.839 214.456,-395.818"/>
</g>
<!-- ExpTemp1 -->
<g id="node10" class="node"><title>ExpTemp1</title>
<ellipse fill="none" stroke="black" cx="297.245" cy="-378" rx="50.0912" ry="18"/>
<text text-anchor="middle" x="297.245" y="-374.3" font-family="Times,serif" font-size="14.00">ExpTemp1</text>
</g>
<!-- ExpEseq0&#45;&gt;ExpTemp1 -->
<g id="edge7" class="edge"><title>ExpEseq0&#45;&gt;ExpTemp1</title>
<path fill="none" stroke="black" d="M297.245,-431.697C297.245,-423.983 297.245,-414.712 297.245,-406.112"/>
<polygon fill="black" stroke="black" points="300.745,-406.104 297.245,-396.104 293.745,-406.104 300.745,-406.104"/>
</g>
<!-- ExpCall0 -->
<g id="node16" class="node"><title>ExpCall0</title>
<ellipse fill="none" stroke="black" cx="179.245" cy="-306" rx="44.393" ry="18"/>
<text text-anchor="middle" x="179.245" y="-302.3" font-family="Times,serif" font-size="14.00">ExpCall0</text>
</g>
<!-- StatMove0&#45;&gt;ExpCall0 -->
<g id="edge27" class="edge"><title>StatMove0&#45;&gt;ExpCall0</title>
<path fill="none" stroke="black" d="M179.245,-359.697C179.245,-351.983 179.245,-342.712 179.245,-334.112"/>
<polygon fill="black" stroke="black" points="182.745,-334.104 179.245,-324.104 175.745,-334.104 182.745,-334.104"/>
</g>
<!-- ExpTemp0 -->
<g id="node30" class="node"><title>ExpTemp0</title>
<ellipse fill="none" stroke="black" cx="61.2451" cy="-306" rx="50.0912" ry="18"/>
<text text-anchor="middle" x="61.2451" y="-302.3" font-family="Times,serif" font-size="14.00">ExpTemp0</text>
</g>
<!-- StatMove0&#45;&gt;ExpTemp0 -->
<g id="edge26" class="edge"><title>StatMove0&#45;&gt;ExpTemp0</title>
<path fill="none" stroke="black" d="M154.508,-362.326C137.123,-352.012 113.663,-338.095 94.6216,-326.8"/>
<polygon fill="black" stroke="black" points="96.3355,-323.747 85.9492,-321.655 92.764,-329.767 96.3355,-323.747"/>
</g>
<!-- Temp1: T64 -->
<g id="node25" class="node"><title>Temp1: T64</title>
<ellipse fill="none" stroke="black" cx="296.245" cy="-306" rx="55.4913" ry="18"/>
<text text-anchor="middle" x="296.245" y="-302.3" font-family="Times,serif" font-size="14.00">Temp1: T64</text>
</g>
<!-- ExpTemp1&#45;&gt;Temp1: T64 -->
<g id="edge18" class="edge"><title>ExpTemp1&#45;&gt;Temp1: T64</title>
<path fill="none" stroke="black" d="M296.998,-359.697C296.888,-351.983 296.755,-342.712 296.632,-334.112"/>
<polygon fill="black" stroke="black" points="300.132,-334.053 296.489,-324.104 293.133,-334.153 300.132,-334.053"/>
</g>
<!-- ExpList0 -->
<g id="node11" class="node"><title>ExpList0</title>
<ellipse fill="none" stroke="black" cx="295.245" cy="-234" rx="42.7926" ry="18"/>
<text text-anchor="middle" x="295.245" y="-230.3" font-family="Times,serif" font-size="14.00">ExpList0</text>
</g>
<!-- ExpConst0 -->
<g id="node12" class="node"><title>ExpConst0</title>
<ellipse fill="none" stroke="black" cx="301.245" cy="-162" rx="50.0912" ry="18"/>
<text text-anchor="middle" x="301.245" y="-158.3" font-family="Times,serif" font-size="14.00">ExpConst0</text>
</g>
<!-- ExpList0&#45;&gt;ExpConst0 -->
<g id="edge8" class="edge"><title>ExpList0&#45;&gt;ExpConst0</title>
<path fill="none" stroke="black" d="M296.728,-215.697C297.389,-207.983 298.184,-198.712 298.921,-190.112"/>
<polygon fill="black" stroke="black" points="302.412,-190.367 299.779,-180.104 295.438,-189.769 302.412,-190.367"/>
</g>
<!-- Value0: 333 -->
<g id="node20" class="node"><title>Value0: 333</title>
<ellipse fill="none" stroke="black" cx="301.245" cy="-90" rx="53.8905" ry="18"/>
<text text-anchor="middle" x="301.245" y="-86.3" font-family="Times,serif" font-size="14.00">Value0: 333</text>
</g>
<!-- ExpConst0&#45;&gt;Value0: 333 -->
<g id="edge15" class="edge"><title>ExpConst0&#45;&gt;Value0: 333</title>
<path fill="none" stroke="black" d="M301.245,-143.697C301.245,-135.983 301.245,-126.712 301.245,-118.112"/>
<polygon fill="black" stroke="black" points="304.745,-118.104 301.245,-108.104 297.745,-118.104 304.745,-118.104"/>
</g>
<!-- ExpCall1 -->
<g id="node13" class="node"><title>ExpCall1</title>
<ellipse fill="none" stroke="black" cx="853.245" cy="-306" rx="44.393" ry="18"/>
<text text-anchor="middle" x="853.245" y="-302.3" font-family="Times,serif" font-size="14.00">ExpCall1</text>
</g>
<!-- ExpName1 -->
<g id="node14" class="node"><title>ExpName1</title>
<ellipse fill="none" stroke="black" cx="856.245" cy="-234" rx="50.8918" ry="18"/>
<text text-anchor="middle" x="856.245" y="-230.3" font-family="Times,serif" font-size="14.00">ExpName1</text>
</g>
<!-- ExpCall1&#45;&gt;ExpName1 -->
<g id="edge9" class="edge"><title>ExpCall1&#45;&gt;ExpName1</title>
<path fill="none" stroke="black" d="M853.987,-287.697C854.317,-279.983 854.715,-270.712 855.083,-262.112"/>
<polygon fill="black" stroke="black" points="858.581,-262.245 855.512,-252.104 851.587,-261.945 858.581,-262.245"/>
</g>
<!-- ExpList1 -->
<g id="node15" class="node"><title>ExpList1</title>
<ellipse fill="none" stroke="black" cx="987.245" cy="-234" rx="42.7926" ry="18"/>
<text text-anchor="middle" x="987.245" y="-230.3" font-family="Times,serif" font-size="14.00">ExpList1</text>
</g>
<!-- ExpCall1&#45;&gt;ExpList1 -->
<g id="edge10" class="edge"><title>ExpCall1&#45;&gt;ExpList1</title>
<path fill="none" stroke="black" d="M879.4,-291.337C900.152,-280.497 929.357,-265.24 952.143,-253.337"/>
<polygon fill="black" stroke="black" points="953.913,-256.361 961.156,-248.628 950.672,-250.156 953.913,-256.361"/>
</g>
<!-- Label2: Visitor::visit -->
<g id="node44" class="node"><title>Label2: Visitor::visit</title>
<ellipse fill="none" stroke="black" cx="846.245" cy="-162" rx="84.485" ry="18"/>
<text text-anchor="middle" x="846.245" y="-158.3" font-family="Times,serif" font-size="14.00">Label2: Visitor::visit</text>
</g>
<!-- ExpName1&#45;&gt;Label2: Visitor::visit -->
<g id="edge41" class="edge"><title>ExpName1&#45;&gt;Label2: Visitor::visit</title>
<path fill="none" stroke="black" d="M853.773,-215.697C852.671,-207.983 851.347,-198.712 850.118,-190.112"/>
<polygon fill="black" stroke="black" points="853.568,-189.509 848.689,-180.104 846.638,-190.499 853.568,-189.509"/>
</g>
<!-- ExpList1&#45;&gt;ExpMem1 -->
<g id="edge42" class="edge"><title>ExpList1&#45;&gt;ExpMem1</title>
<path fill="none" stroke="black" d="M989.717,-215.697C990.819,-207.983 992.143,-198.712 993.372,-190.112"/>
<polygon fill="black" stroke="black" points="996.852,-190.499 994.802,-180.104 989.922,-189.509 996.852,-190.499"/>
</g>
<!-- ExpCall0&#45;&gt;ExpList0 -->
<g id="edge12" class="edge"><title>ExpCall0&#45;&gt;ExpList0</title>
<path fill="none" stroke="black" d="M202.999,-290.666C220.28,-280.237 243.88,-265.996 262.883,-254.529"/>
<polygon fill="black" stroke="black" points="264.769,-257.479 271.523,-249.315 261.152,-251.485 264.769,-257.479"/>
</g>
<!-- ExpName0 -->
<g id="node17" class="node"><title>ExpName0</title>
<ellipse fill="none" stroke="black" cx="179.245" cy="-234" rx="50.8918" ry="18"/>
<text text-anchor="middle" x="179.245" y="-230.3" font-family="Times,serif" font-size="14.00">ExpName0</text>
</g>
<!-- ExpCall0&#45;&gt;ExpName0 -->
<g id="edge11" class="edge"><title>ExpCall0&#45;&gt;ExpName0</title>
<path fill="none" stroke="black" d="M179.245,-287.697C179.245,-279.983 179.245,-270.712 179.245,-262.112"/>
<polygon fill="black" stroke="black" points="182.745,-262.104 179.245,-252.104 175.745,-262.104 182.745,-262.104"/>
</g>
<!-- Label1: print -->
<g id="node19" class="node"><title>Label1: print</title>
<ellipse fill="none" stroke="black" cx="176.245" cy="-162" rx="56.59" ry="18"/>
<text text-anchor="middle" x="176.245" y="-158.3" font-family="Times,serif" font-size="14.00">Label1: print</text>
</g>
<!-- ExpName0&#45;&gt;Label1: print -->
<g id="edge14" class="edge"><title>ExpName0&#45;&gt;Label1: print</title>
<path fill="none" stroke="black" d="M178.504,-215.697C178.173,-207.983 177.776,-198.712 177.407,-190.112"/>
<polygon fill="black" stroke="black" points="180.903,-189.945 176.978,-180.104 173.91,-190.245 180.903,-189.945"/>
</g>
<!-- StatLabel0 -->
<g id="node21" class="node"><title>StatLabel0</title>
<ellipse fill="none" stroke="black" cx="486.245" cy="-666" rx="48.9926" ry="18"/>
<text text-anchor="middle" x="486.245" y="-662.3" font-family="Times,serif" font-size="14.00">StatLabel0</text>
</g>
<!-- Label0: Tree::accept -->
<g id="node22" class="node"><title>Label0: Tree::accept</title>
<ellipse fill="none" stroke="black" cx="469.245" cy="-594" rx="83.3857" ry="18"/>
<text text-anchor="middle" x="469.245" y="-590.3" font-family="Times,serif" font-size="14.00">Label0: Tree::accept</text>
</g>
<!-- StatLabel0&#45;&gt;Label0: Tree::accept -->
<g id="edge16" class="edge"><title>StatLabel0&#45;&gt;Label0: Tree::accept</title>
<path fill="none" stroke="black" d="M482.13,-648.055C480.237,-640.261 477.945,-630.822 475.821,-622.079"/>
<polygon fill="black" stroke="black" points="479.202,-621.167 473.441,-612.275 472.399,-622.819 479.202,-621.167"/>
</g>
<!-- ExpTemp5 -->
<g id="node23" class="node"><title>ExpTemp5</title>
<ellipse fill="none" stroke="black" cx="908.245" cy="-378" rx="50.0912" ry="18"/>
<text text-anchor="middle" x="908.245" y="-374.3" font-family="Times,serif" font-size="14.00">ExpTemp5</text>
</g>
<!-- Temp5: T65 -->
<g id="node24" class="node"><title>Temp5: T65</title>
<ellipse fill="none" stroke="black" cx="970.245" cy="-306" rx="55.4913" ry="18"/>
<text text-anchor="middle" x="970.245" y="-302.3" font-family="Times,serif" font-size="14.00">Temp5: T65</text>
</g>
<!-- ExpTemp5&#45;&gt;Temp5: T65 -->
<g id="edge17" class="edge"><title>ExpTemp5&#45;&gt;Temp5: T65</title>
<path fill="none" stroke="black" d="M922.938,-360.411C930.66,-351.693 940.268,-340.845 948.804,-331.208"/>
<polygon fill="black" stroke="black" points="951.647,-333.276 955.657,-323.47 946.407,-328.635 951.647,-333.276"/>
</g>
<!-- StatSeq0 -->
<g id="node26" class="node"><title>StatSeq0</title>
<ellipse fill="none" stroke="black" cx="549.245" cy="-738" rx="42.4939" ry="18"/>
<text text-anchor="middle" x="549.245" y="-734.3" font-family="Times,serif" font-size="14.00">StatSeq0</text>
</g>
<!-- StatSeq0&#45;&gt;StatLabel0 -->
<g id="edge19" class="edge"><title>StatSeq0&#45;&gt;StatLabel0</title>
<path fill="none" stroke="black" d="M534.633,-720.765C526.717,-711.969 516.781,-700.928 507.975,-691.144"/>
<polygon fill="black" stroke="black" points="510.506,-688.725 501.215,-683.633 505.303,-693.408 510.506,-688.725"/>
</g>
<!-- StatSeq1 -->
<g id="node27" class="node"><title>StatSeq1</title>
<ellipse fill="none" stroke="black" cx="612.245" cy="-666" rx="42.4939" ry="18"/>
<text text-anchor="middle" x="612.245" y="-662.3" font-family="Times,serif" font-size="14.00">StatSeq1</text>
</g>
<!-- StatSeq0&#45;&gt;StatSeq1 -->
<g id="edge20" class="edge"><title>StatSeq0&#45;&gt;StatSeq1</title>
<path fill="none" stroke="black" d="M563.857,-720.765C571.888,-711.841 581.998,-700.608 590.898,-690.719"/>
<polygon fill="black" stroke="black" points="593.624,-692.922 597.713,-683.147 588.421,-688.239 593.624,-692.922"/>
</g>
<!-- StatSeq1&#45;&gt;StatMove3 -->
<g id="edge37" class="edge"><title>StatSeq1&#45;&gt;StatMove3</title>
<path fill="none" stroke="black" d="M645.592,-654.671C684.208,-642.711 748.075,-622.929 791.601,-609.447"/>
<polygon fill="black" stroke="black" points="792.863,-612.72 801.38,-606.418 790.792,-606.034 792.863,-612.72"/>
</g>
<!-- StatSeq2 -->
<g id="node35" class="node"><title>StatSeq2</title>
<ellipse fill="none" stroke="black" cx="612.245" cy="-594" rx="42.4939" ry="18"/>
<text text-anchor="middle" x="612.245" y="-590.3" font-family="Times,serif" font-size="14.00">StatSeq2</text>
</g>
<!-- StatSeq1&#45;&gt;StatSeq2 -->
<g id="edge36" class="edge"><title>StatSeq1&#45;&gt;StatSeq2</title>
<path fill="none" stroke="black" d="M612.245,-647.697C612.245,-639.983 612.245,-630.712 612.245,-622.112"/>
<polygon fill="black" stroke="black" points="615.745,-622.104 612.245,-612.104 608.745,-622.104 615.745,-622.104"/>
</g>
<!-- ExpTemp3 -->
<g id="node28" class="node"><title>ExpTemp3</title>
<ellipse fill="none" stroke="black" cx="735.245" cy="-306" rx="50.0912" ry="18"/>
<text text-anchor="middle" x="735.245" y="-302.3" font-family="Times,serif" font-size="14.00">ExpTemp3</text>
</g>
<!-- Temp3: T65 -->
<g id="node29" class="node"><title>Temp3: T65</title>
<ellipse fill="none" stroke="black" cx="732.245" cy="-234" rx="55.4913" ry="18"/>
<text text-anchor="middle" x="732.245" y="-230.3" font-family="Times,serif" font-size="14.00">Temp3: T65</text>
</g>
<!-- ExpTemp3&#45;&gt;Temp3: T65 -->
<g id="edge21" class="edge"><title>ExpTemp3&#45;&gt;Temp3: T65</title>
<path fill="none" stroke="black" d="M734.504,-287.697C734.173,-279.983 733.776,-270.712 733.407,-262.112"/>
<polygon fill="black" stroke="black" points="736.903,-261.945 732.978,-252.104 729.91,-262.245 736.903,-261.945"/>
</g>
<!-- Temp0: T64 -->
<g id="node31" class="node"><title>Temp0: T64</title>
<ellipse fill="none" stroke="black" cx="55.2451" cy="-234" rx="55.4913" ry="18"/>
<text text-anchor="middle" x="55.2451" y="-230.3" font-family="Times,serif" font-size="14.00">Temp0: T64</text>
</g>
<!-- ExpTemp0&#45;&gt;Temp0: T64 -->
<g id="edge22" class="edge"><title>ExpTemp0&#45;&gt;Temp0: T64</title>
<path fill="none" stroke="black" d="M59.762,-287.697C59.1008,-279.983 58.3062,-270.712 57.569,-262.112"/>
<polygon fill="black" stroke="black" points="61.0525,-261.769 56.7112,-252.104 54.0781,-262.367 61.0525,-261.769"/>
</g>
<!-- StatExp0 -->
<g id="node32" class="node"><title>StatExp0</title>
<ellipse fill="none" stroke="black" cx="446.245" cy="-522" rx="42.7926" ry="18"/>
<text text-anchor="middle" x="446.245" y="-518.3" font-family="Times,serif" font-size="14.00">StatExp0</text>
</g>
<!-- StatExp0&#45;&gt;ExpEseq0 -->
<g id="edge23" class="edge"><title>StatExp0&#45;&gt;ExpEseq0</title>
<path fill="none" stroke="black" d="M418.569,-507.998C394.958,-496.905 360.795,-480.856 334.734,-468.612"/>
<polygon fill="black" stroke="black" points="336.072,-465.374 325.533,-464.29 333.096,-471.71 336.072,-465.374"/>
</g>
<!-- ExpEseq1 -->
<g id="node33" class="node"><title>ExpEseq1</title>
<ellipse fill="none" stroke="black" cx="722.245" cy="-450" rx="46.2923" ry="18"/>
<text text-anchor="middle" x="722.245" y="-446.3" font-family="Times,serif" font-size="14.00">ExpEseq1</text>
</g>
<!-- ExpEseq1&#45;&gt;ExpTemp5 -->
<g id="edge25" class="edge"><title>ExpEseq1&#45;&gt;ExpTemp5</title>
<path fill="none" stroke="black" d="M754.22,-436.967C784.849,-425.439 831.291,-407.961 865.169,-395.211"/>
<polygon fill="black" stroke="black" points="866.681,-398.382 874.807,-391.584 864.215,-391.831 866.681,-398.382"/>
</g>
<!-- StatMove2 -->
<g id="node34" class="node"><title>StatMove2</title>
<ellipse fill="none" stroke="black" cx="735.245" cy="-378" rx="50.0912" ry="18"/>
<text text-anchor="middle" x="735.245" y="-374.3" font-family="Times,serif" font-size="14.00">StatMove2</text>
</g>
<!-- ExpEseq1&#45;&gt;StatMove2 -->
<g id="edge24" class="edge"><title>ExpEseq1&#45;&gt;StatMove2</title>
<path fill="none" stroke="black" d="M725.459,-431.697C726.891,-423.983 728.613,-414.712 730.21,-406.112"/>
<polygon fill="black" stroke="black" points="733.684,-406.575 732.069,-396.104 726.801,-405.297 733.684,-406.575"/>
</g>
<!-- StatMove2&#45;&gt;ExpCall1 -->
<g id="edge32" class="edge"><title>StatMove2&#45;&gt;ExpCall1</title>
<path fill="none" stroke="black" d="M759.982,-362.326C777.601,-351.874 801.458,-337.721 820.633,-326.346"/>
<polygon fill="black" stroke="black" points="822.532,-329.289 829.347,-321.177 818.961,-323.269 822.532,-329.289"/>
</g>
<!-- StatMove2&#45;&gt;ExpTemp3 -->
<g id="edge31" class="edge"><title>StatMove2&#45;&gt;ExpTemp3</title>
<path fill="none" stroke="black" d="M735.245,-359.697C735.245,-351.983 735.245,-342.712 735.245,-334.112"/>
<polygon fill="black" stroke="black" points="738.745,-334.104 735.245,-324.104 731.745,-334.104 738.745,-334.104"/>
</g>
<!-- StatSeq2&#45;&gt;StatExp0 -->
<g id="edge28" class="edge"><title>StatSeq2&#45;&gt;StatExp0</title>
<path fill="none" stroke="black" d="M583.33,-580.807C556.005,-569.284 514.827,-551.92 484.735,-539.231"/>
<polygon fill="black" stroke="black" points="485.96,-535.949 475.386,-535.288 483.24,-542.399 485.96,-535.949"/>
</g>
<!-- StatMove1 -->
<g id="node36" class="node"><title>StatMove1</title>
<ellipse fill="none" stroke="black" cx="612.245" cy="-522" rx="50.0912" ry="18"/>
<text text-anchor="middle" x="612.245" y="-518.3" font-family="Times,serif" font-size="14.00">StatMove1</text>
</g>
<!-- StatSeq2&#45;&gt;StatMove1 -->
<g id="edge29" class="edge"><title>StatSeq2&#45;&gt;StatMove1</title>
<path fill="none" stroke="black" d="M612.245,-575.697C612.245,-567.983 612.245,-558.712 612.245,-550.112"/>
<polygon fill="black" stroke="black" points="615.745,-550.104 612.245,-540.104 608.745,-550.104 615.745,-550.104"/>
</g>
<!-- StatMove1&#45;&gt;ExpEseq1 -->
<g id="edge40" class="edge"><title>StatMove1&#45;&gt;ExpEseq1</title>
<path fill="none" stroke="black" d="M635.843,-505.983C651.755,-495.857 672.941,-482.375 690.351,-471.296"/>
<polygon fill="black" stroke="black" points="692.506,-474.073 699.064,-465.752 688.748,-468.168 692.506,-474.073"/>
</g>
<!-- ExpMem0 -->
<g id="node43" class="node"><title>ExpMem0</title>
<ellipse fill="none" stroke="black" cx="557.245" cy="-450" rx="48.9926" ry="18"/>
<text text-anchor="middle" x="557.245" y="-446.3" font-family="Times,serif" font-size="14.00">ExpMem0</text>
</g>
<!-- StatMove1&#45;&gt;ExpMem0 -->
<g id="edge39" class="edge"><title>StatMove1&#45;&gt;ExpMem0</title>
<path fill="none" stroke="black" d="M599.211,-504.411C592.43,-495.781 584.008,-485.062 576.493,-475.497"/>
<polygon fill="black" stroke="black" points="579.116,-473.171 570.186,-467.47 573.612,-477.496 579.116,-473.171"/>
</g>
<!-- ExpTemp2 -->
<g id="node37" class="node"><title>ExpTemp2</title>
<ellipse fill="none" stroke="black" cx="419.245" cy="-306" rx="50.0912" ry="18"/>
<text text-anchor="middle" x="419.245" y="-302.3" font-family="Times,serif" font-size="14.00">ExpTemp2</text>
</g>
<!-- Temp2: $fp -->
<g id="node38" class="node"><title>Temp2: $fp</title>
<ellipse fill="none" stroke="black" cx="419.245" cy="-234" rx="52.7911" ry="18"/>
<text text-anchor="middle" x="419.245" y="-230.3" font-family="Times,serif" font-size="14.00">Temp2: $fp</text>
</g>
<!-- ExpTemp2&#45;&gt;Temp2: $fp -->
<g id="edge30" class="edge"><title>ExpTemp2&#45;&gt;Temp2: $fp</title>
<path fill="none" stroke="black" d="M419.245,-287.697C419.245,-279.983 419.245,-270.712 419.245,-262.112"/>
<polygon fill="black" stroke="black" points="422.745,-262.104 419.245,-252.104 415.745,-262.104 422.745,-262.104"/>
</g>
<!-- ExpBinary0 -->
<g id="node39" class="node"><title>ExpBinary0</title>
<ellipse fill="none" stroke="black" cx="531.245" cy="-378" rx="53.0913" ry="18"/>
<text text-anchor="middle" x="531.245" y="-374.3" font-family="Times,serif" font-size="14.00">ExpBinary0</text>
</g>
<!-- ExpBinary0&#45;&gt;ExpTemp2 -->
<g id="edge33" class="edge"><title>ExpBinary0&#45;&gt;ExpTemp2</title>
<path fill="none" stroke="black" d="M506.943,-361.811C490.836,-351.744 469.512,-338.417 451.924,-327.425"/>
<polygon fill="black" stroke="black" points="453.45,-324.251 443.115,-321.919 449.74,-330.187 453.45,-324.251"/>
</g>
<!-- Plus0 -->
<g id="node40" class="node"><title>Plus0</title>
<ellipse fill="none" stroke="black" cx="518.245" cy="-306" rx="30.5947" ry="18"/>
<text text-anchor="middle" x="518.245" y="-302.3" font-family="Times,serif" font-size="14.00">Plus0</text>
</g>
<!-- ExpBinary0&#45;&gt;Plus0 -->
<g id="edge34" class="edge"><title>ExpBinary0&#45;&gt;Plus0</title>
<path fill="none" stroke="black" d="M528.032,-359.697C526.599,-351.983 524.877,-342.712 523.28,-334.112"/>
<polygon fill="black" stroke="black" points="526.689,-333.297 521.422,-324.104 519.806,-334.575 526.689,-333.297"/>
</g>
<!-- ExpConst1 -->
<g id="node41" class="node"><title>ExpConst1</title>
<ellipse fill="none" stroke="black" cx="617.245" cy="-306" rx="50.0912" ry="18"/>
<text text-anchor="middle" x="617.245" y="-302.3" font-family="Times,serif" font-size="14.00">ExpConst1</text>
</g>
<!-- ExpBinary0&#45;&gt;ExpConst1 -->
<g id="edge35" class="edge"><title>ExpBinary0&#45;&gt;ExpConst1</title>
<path fill="none" stroke="black" d="M550.76,-361.116C562.305,-351.718 577.109,-339.669 589.816,-329.326"/>
<polygon fill="black" stroke="black" points="592.261,-331.848 597.808,-322.821 587.842,-326.419 592.261,-331.848"/>
</g>
<!-- Value1: 12 -->
<g id="node42" class="node"><title>Value1: 12</title>
<ellipse fill="none" stroke="black" cx="609.245" cy="-234" rx="50.0912" ry="18"/>
<text text-anchor="middle" x="609.245" y="-230.3" font-family="Times,serif" font-size="14.00">Value1: 12</text>
</g>
<!-- ExpConst1&#45;&gt;Value1: 12 -->
<g id="edge38" class="edge"><title>ExpConst1&#45;&gt;Value1: 12</title>
<path fill="none" stroke="black" d="M615.268,-287.697C614.386,-279.983 613.327,-270.712 612.344,-262.112"/>
<polygon fill="black" stroke="black" points="615.813,-261.642 611.2,-252.104 608.858,-262.437 615.813,-261.642"/>
</g>
<!-- ExpMem0&#45;&gt;ExpBinary0 -->
<g id="edge43" class="edge"><title>ExpMem0&#45;&gt;ExpBinary0</title>
<path fill="none" stroke="black" d="M550.951,-432.055C548.025,-424.176 544.474,-414.617 541.197,-405.794"/>
<polygon fill="black" stroke="black" points="544.425,-404.431 537.662,-396.275 537.863,-406.868 544.425,-404.431"/>
</g>
</g>
</svg>
