<?xml version="1.0" encoding="UTF-8" standalone="no"?>
<!DOCTYPE svg PUBLIC "-//W3C//DTD SVG 1.1//EN"
 "http://www.w3.org/Graphics/SVG/1.1/DTD/svg11.dtd">
<!-- Generated by graphviz version 2.38.0 (20140413.2041)
 -->
<!-- Title: %3 Pages: 1 -->
<svg width="550pt" height="476pt"
 viewBox="0.00 0.00 550.29 476.00" xmlns="http://www.w3.org/2000/svg" xmlns:xlink="http://www.w3.org/1999/xlink">
<g id="graph0" class="graph" transform="scale(1 1) rotate(0) translate(4 472)">
<title>%3</title>
<polygon fill="white" stroke="none" points="-4,4 -4,-472 546.291,-472 546.291,4 -4,4"/>
<!-- StatJump0 -->
<g id="node1" class="node"><title>StatJump0</title>
<ellipse fill="none" stroke="black" cx="413.645" cy="-378" rx="48.1917" ry="18"/>
<text text-anchor="middle" x="413.645" y="-374.3" font-family="Times,serif" font-size="14.00">StatJump0</text>
</g>
<!-- Label1: L5 -->
<g id="node2" class="node"><title>Label1: L5</title>
<ellipse fill="none" stroke="black" cx="445.645" cy="-306" rx="50.0912" ry="18"/>
<text text-anchor="middle" x="445.645" y="-302.3" font-family="Times,serif" font-size="14.00">Label1: L5</text>
</g>
<!-- StatJump0&#45;&gt;Label1: L5 -->
<g id="edge1" class="edge"><title>StatJump0&#45;&gt;Label1: L5</title>
<path fill="none" stroke="black" d="M421.392,-360.055C425.086,-351.973 429.59,-342.121 433.709,-333.112"/>
<polygon fill="black" stroke="black" points="436.996,-334.339 437.97,-323.789 430.63,-331.429 436.996,-334.339"/>
</g>
<!-- ExpMem4 -->
<g id="node3" class="node"><title>ExpMem4</title>
<ellipse fill="none" stroke="black" cx="486.645" cy="-162" rx="48.9926" ry="18"/>
<text text-anchor="middle" x="486.645" y="-158.3" font-family="Times,serif" font-size="14.00">ExpMem4</text>
</g>
<!-- ExpTemp2 -->
<g id="node4" class="node"><title>ExpTemp2</title>
<ellipse fill="none" stroke="black" cx="489.645" cy="-90" rx="50.0912" ry="18"/>
<text text-anchor="middle" x="489.645" y="-86.3" font-family="Times,serif" font-size="14.00">ExpTemp2</text>
</g>
<!-- ExpMem4&#45;&gt;ExpTemp2 -->
<g id="edge2" class="edge"><title>ExpMem4&#45;&gt;ExpTemp2</title>
<path fill="none" stroke="black" d="M487.387,-143.697C487.717,-135.983 488.115,-126.712 488.483,-118.112"/>
<polygon fill="black" stroke="black" points="491.981,-118.245 488.912,-108.104 484.987,-117.945 491.981,-118.245"/>
</g>
<!-- Temp2: $fp -->
<g id="node5" class="node"><title>Temp2: $fp</title>
<ellipse fill="none" stroke="black" cx="489.645" cy="-18" rx="52.7911" ry="18"/>
<text text-anchor="middle" x="489.645" y="-14.3" font-family="Times,serif" font-size="14.00">Temp2: $fp</text>
</g>
<!-- ExpTemp2&#45;&gt;Temp2: $fp -->
<g id="edge3" class="edge"><title>ExpTemp2&#45;&gt;Temp2: $fp</title>
<path fill="none" stroke="black" d="M489.645,-71.6966C489.645,-63.9827 489.645,-54.7125 489.645,-46.1124"/>
<polygon fill="black" stroke="black" points="493.145,-46.1043 489.645,-36.1043 486.145,-46.1044 493.145,-46.1043"/>
</g>
<!-- ExpBinary0 -->
<g id="node6" class="node"><title>ExpBinary0</title>
<ellipse fill="none" stroke="black" cx="324.645" cy="-306" rx="53.0913" ry="18"/>
<text text-anchor="middle" x="324.645" y="-302.3" font-family="Times,serif" font-size="14.00">ExpBinary0</text>
</g>
<!-- ExpMem2 -->
<g id="node7" class="node"><title>ExpMem2</title>
<ellipse fill="none" stroke="black" cx="272.645" cy="-234" rx="48.9926" ry="18"/>
<text text-anchor="middle" x="272.645" y="-230.3" font-family="Times,serif" font-size="14.00">ExpMem2</text>
</g>
<!-- ExpBinary0&#45;&gt;ExpMem2 -->
<g id="edge4" class="edge"><title>ExpBinary0&#45;&gt;ExpMem2</title>
<path fill="none" stroke="black" d="M312.322,-288.411C305.976,-279.868 298.109,-269.278 291.059,-259.787"/>
<polygon fill="black" stroke="black" points="293.653,-257.41 284.88,-251.47 288.034,-261.585 293.653,-257.41"/>
</g>
<!-- Times0 -->
<g id="node8" class="node"><title>Times0</title>
<ellipse fill="none" stroke="black" cx="376.645" cy="-234" rx="37.8943" ry="18"/>
<text text-anchor="middle" x="376.645" y="-230.3" font-family="Times,serif" font-size="14.00">Times0</text>
</g>
<!-- ExpBinary0&#45;&gt;Times0 -->
<g id="edge5" class="edge"><title>ExpBinary0&#45;&gt;Times0</title>
<path fill="none" stroke="black" d="M336.969,-288.411C343.315,-279.868 351.181,-269.278 358.232,-259.787"/>
<polygon fill="black" stroke="black" points="361.257,-261.585 364.411,-251.47 355.638,-257.41 361.257,-261.585"/>
</g>
<!-- ExpMem3 -->
<g id="node9" class="node"><title>ExpMem3</title>
<ellipse fill="none" stroke="black" cx="482.645" cy="-234" rx="48.9926" ry="18"/>
<text text-anchor="middle" x="482.645" y="-230.3" font-family="Times,serif" font-size="14.00">ExpMem3</text>
</g>
<!-- ExpBinary0&#45;&gt;ExpMem3 -->
<g id="edge6" class="edge"><title>ExpBinary0&#45;&gt;ExpMem3</title>
<path fill="none" stroke="black" d="M355.861,-291.17C380.961,-280.05 416.369,-264.363 443.39,-252.392"/>
<polygon fill="black" stroke="black" points="444.841,-255.577 452.566,-248.326 442.006,-249.177 444.841,-255.577"/>
</g>
<!-- ExpBinary1 -->
<g id="node10" class="node"><title>ExpBinary1</title>
<ellipse fill="none" stroke="black" cx="272.645" cy="-162" rx="53.0913" ry="18"/>
<text text-anchor="middle" x="272.645" y="-158.3" font-family="Times,serif" font-size="14.00">ExpBinary1</text>
</g>
<!-- ExpMem2&#45;&gt;ExpBinary1 -->
<g id="edge7" class="edge"><title>ExpMem2&#45;&gt;ExpBinary1</title>
<path fill="none" stroke="black" d="M272.645,-215.697C272.645,-207.983 272.645,-198.712 272.645,-190.112"/>
<polygon fill="black" stroke="black" points="276.145,-190.104 272.645,-180.104 269.145,-190.104 276.145,-190.104"/>
</g>
<!-- ExpMem3&#45;&gt;ExpMem4 -->
<g id="edge18" class="edge"><title>ExpMem3&#45;&gt;ExpMem4</title>
<path fill="none" stroke="black" d="M483.634,-215.697C484.075,-207.983 484.605,-198.712 485.096,-190.112"/>
<polygon fill="black" stroke="black" points="488.592,-190.288 485.668,-180.104 481.603,-189.888 488.592,-190.288"/>
</g>
<!-- ExpConst0 -->
<g id="node18" class="node"><title>ExpConst0</title>
<ellipse fill="none" stroke="black" cx="371.645" cy="-90" rx="50.0912" ry="18"/>
<text text-anchor="middle" x="371.645" y="-86.3" font-family="Times,serif" font-size="14.00">ExpConst0</text>
</g>
<!-- ExpBinary1&#45;&gt;ExpConst0 -->
<g id="edge22" class="edge"><title>ExpBinary1&#45;&gt;ExpConst0</title>
<path fill="none" stroke="black" d="M294.617,-145.465C308.426,-135.7 326.427,-122.972 341.555,-112.276"/>
<polygon fill="black" stroke="black" points="343.932,-114.882 350.076,-106.251 339.89,-109.167 343.932,-114.882"/>
</g>
<!-- ExpTemp1 -->
<g id="node21" class="node"><title>ExpTemp1</title>
<ellipse fill="none" stroke="black" cx="173.645" cy="-90" rx="50.0912" ry="18"/>
<text text-anchor="middle" x="173.645" y="-86.3" font-family="Times,serif" font-size="14.00">ExpTemp1</text>
</g>
<!-- ExpBinary1&#45;&gt;ExpTemp1 -->
<g id="edge20" class="edge"><title>ExpBinary1&#45;&gt;ExpTemp1</title>
<path fill="none" stroke="black" d="M250.674,-145.465C236.864,-135.7 218.863,-122.972 203.736,-112.276"/>
<polygon fill="black" stroke="black" points="205.4,-109.167 195.215,-106.251 201.359,-114.882 205.4,-109.167"/>
</g>
<!-- Plus0 -->
<g id="node23" class="node"><title>Plus0</title>
<ellipse fill="none" stroke="black" cx="272.645" cy="-90" rx="30.5947" ry="18"/>
<text text-anchor="middle" x="272.645" y="-86.3" font-family="Times,serif" font-size="14.00">Plus0</text>
</g>
<!-- ExpBinary1&#45;&gt;Plus0 -->
<g id="edge21" class="edge"><title>ExpBinary1&#45;&gt;Plus0</title>
<path fill="none" stroke="black" d="M272.645,-143.697C272.645,-135.983 272.645,-126.712 272.645,-118.112"/>
<polygon fill="black" stroke="black" points="276.145,-118.104 272.645,-108.104 269.145,-118.104 276.145,-118.104"/>
</g>
<!-- ExpTemp0 -->
<g id="node11" class="node"><title>ExpTemp0</title>
<ellipse fill="none" stroke="black" cx="102.645" cy="-162" rx="50.0912" ry="18"/>
<text text-anchor="middle" x="102.645" y="-158.3" font-family="Times,serif" font-size="14.00">ExpTemp0</text>
</g>
<!-- Temp0: $fp -->
<g id="node12" class="node"><title>Temp0: $fp</title>
<ellipse fill="none" stroke="black" cx="52.6453" cy="-90" rx="52.7911" ry="18"/>
<text text-anchor="middle" x="52.6453" y="-86.3" font-family="Times,serif" font-size="14.00">Temp0: $fp</text>
</g>
<!-- ExpTemp0&#45;&gt;Temp0: $fp -->
<g id="edge8" class="edge"><title>ExpTemp0&#45;&gt;Temp0: $fp</title>
<path fill="none" stroke="black" d="M90.796,-144.411C84.7821,-135.992 77.3489,-125.585 70.6458,-116.201"/>
<polygon fill="black" stroke="black" points="73.4174,-114.059 64.7569,-107.956 67.7213,-118.128 73.4174,-114.059"/>
</g>
<!-- StatList0 -->
<g id="node13" class="node"><title>StatList0</title>
<ellipse fill="none" stroke="black" cx="235.645" cy="-450" rx="42.4939" ry="18"/>
<text text-anchor="middle" x="235.645" y="-446.3" font-family="Times,serif" font-size="14.00">StatList0</text>
</g>
<!-- StatList0&#45;&gt;StatJump0 -->
<g id="edge11" class="edge"><title>StatList0&#45;&gt;StatJump0</title>
<path fill="none" stroke="black" d="M265.841,-437.125C295.055,-425.637 339.569,-408.131 372.113,-395.333"/>
<polygon fill="black" stroke="black" points="373.773,-398.441 381.798,-391.524 371.211,-391.927 373.773,-398.441"/>
</g>
<!-- StatLabel0 -->
<g id="node14" class="node"><title>StatLabel0</title>
<ellipse fill="none" stroke="black" cx="118.645" cy="-378" rx="48.9926" ry="18"/>
<text text-anchor="middle" x="118.645" y="-374.3" font-family="Times,serif" font-size="14.00">StatLabel0</text>
</g>
<!-- StatList0&#45;&gt;StatLabel0 -->
<g id="edge9" class="edge"><title>StatList0&#45;&gt;StatLabel0</title>
<path fill="none" stroke="black" d="M212.25,-435.003C194.979,-424.67 171.23,-410.461 151.976,-398.942"/>
<polygon fill="black" stroke="black" points="153.589,-395.828 143.21,-393.697 149.995,-401.835 153.589,-395.828"/>
</g>
<!-- StatMove0 -->
<g id="node15" class="node"><title>StatMove0</title>
<ellipse fill="none" stroke="black" cx="235.645" cy="-378" rx="50.0912" ry="18"/>
<text text-anchor="middle" x="235.645" y="-374.3" font-family="Times,serif" font-size="14.00">StatMove0</text>
</g>
<!-- StatList0&#45;&gt;StatMove0 -->
<g id="edge10" class="edge"><title>StatList0&#45;&gt;StatMove0</title>
<path fill="none" stroke="black" d="M235.645,-431.697C235.645,-423.983 235.645,-414.712 235.645,-406.112"/>
<polygon fill="black" stroke="black" points="239.145,-406.104 235.645,-396.104 232.145,-406.104 239.145,-406.104"/>
</g>
<!-- Label0: L4 -->
<g id="node16" class="node"><title>Label0: L4</title>
<ellipse fill="none" stroke="black" cx="87.6453" cy="-306" rx="50.0912" ry="18"/>
<text text-anchor="middle" x="87.6453" y="-302.3" font-family="Times,serif" font-size="14.00">Label0: L4</text>
</g>
<!-- StatLabel0&#45;&gt;Label0: L4 -->
<g id="edge12" class="edge"><title>StatLabel0&#45;&gt;Label0: L4</title>
<path fill="none" stroke="black" d="M111.141,-360.055C107.614,-352.091 103.327,-342.411 99.3853,-333.51"/>
<polygon fill="black" stroke="black" points="102.545,-332.002 95.2958,-324.275 96.1449,-334.836 102.545,-332.002"/>
</g>
<!-- StatMove0&#45;&gt;ExpBinary0 -->
<g id="edge16" class="edge"><title>StatMove0&#45;&gt;ExpBinary0</title>
<path fill="none" stroke="black" d="M255.841,-361.116C267.903,-351.629 283.401,-339.439 296.634,-329.031"/>
<polygon fill="black" stroke="black" points="298.833,-331.754 304.53,-322.821 294.506,-326.252 298.833,-331.754"/>
</g>
<!-- ExpMem0 -->
<g id="node20" class="node"><title>ExpMem0</title>
<ellipse fill="none" stroke="black" cx="204.645" cy="-306" rx="48.9926" ry="18"/>
<text text-anchor="middle" x="204.645" y="-302.3" font-family="Times,serif" font-size="14.00">ExpMem0</text>
</g>
<!-- StatMove0&#45;&gt;ExpMem0 -->
<g id="edge15" class="edge"><title>StatMove0&#45;&gt;ExpMem0</title>
<path fill="none" stroke="black" d="M228.141,-360.055C224.614,-352.091 220.327,-342.411 216.385,-333.51"/>
<polygon fill="black" stroke="black" points="219.545,-332.002 212.296,-324.275 213.145,-334.836 219.545,-332.002"/>
</g>
<!-- ExpMem1 -->
<g id="node17" class="node"><title>ExpMem1</title>
<ellipse fill="none" stroke="black" cx="130.645" cy="-234" rx="48.9926" ry="18"/>
<text text-anchor="middle" x="130.645" y="-230.3" font-family="Times,serif" font-size="14.00">ExpMem1</text>
</g>
<!-- ExpMem1&#45;&gt;ExpTemp0 -->
<g id="edge13" class="edge"><title>ExpMem1&#45;&gt;ExpTemp0</title>
<path fill="none" stroke="black" d="M123.867,-216.055C120.716,-208.176 116.892,-198.617 113.363,-189.794"/>
<polygon fill="black" stroke="black" points="116.519,-188.26 109.555,-180.275 110.02,-190.86 116.519,-188.26"/>
</g>
<!-- Value0: 4 -->
<g id="node19" class="node"><title>Value0: 4</title>
<ellipse fill="none" stroke="black" cx="371.645" cy="-18" rx="45.4919" ry="18"/>
<text text-anchor="middle" x="371.645" y="-14.3" font-family="Times,serif" font-size="14.00">Value0: 4</text>
</g>
<!-- ExpConst0&#45;&gt;Value0: 4 -->
<g id="edge14" class="edge"><title>ExpConst0&#45;&gt;Value0: 4</title>
<path fill="none" stroke="black" d="M371.645,-71.6966C371.645,-63.9827 371.645,-54.7125 371.645,-46.1124"/>
<polygon fill="black" stroke="black" points="375.145,-46.1043 371.645,-36.1043 368.145,-46.1044 375.145,-46.1043"/>
</g>
<!-- ExpMem0&#45;&gt;ExpMem1 -->
<g id="edge19" class="edge"><title>ExpMem0&#45;&gt;ExpMem1</title>
<path fill="none" stroke="black" d="M187.482,-288.765C177.794,-279.6 165.528,-267.998 154.874,-257.919"/>
<polygon fill="black" stroke="black" points="157.13,-255.235 147.46,-250.906 152.32,-260.321 157.13,-255.235"/>
</g>
<!-- Temp1: $fp -->
<g id="node22" class="node"><title>Temp1: $fp</title>
<ellipse fill="none" stroke="black" cx="173.645" cy="-18" rx="52.7911" ry="18"/>
<text text-anchor="middle" x="173.645" y="-14.3" font-family="Times,serif" font-size="14.00">Temp1: $fp</text>
</g>
<!-- ExpTemp1&#45;&gt;Temp1: $fp -->
<g id="edge17" class="edge"><title>ExpTemp1&#45;&gt;Temp1: $fp</title>
<path fill="none" stroke="black" d="M173.645,-71.6966C173.645,-63.9827 173.645,-54.7125 173.645,-46.1124"/>
<polygon fill="black" stroke="black" points="177.145,-46.1043 173.645,-36.1043 170.145,-46.1044 177.145,-46.1043"/>
</g>
</g>
</svg>
