<?xml version="1.0" encoding="UTF-8" standalone="no"?>
<!DOCTYPE svg PUBLIC "-//W3C//DTD SVG 1.1//EN"
 "http://www.w3.org/Graphics/SVG/1.1/DTD/svg11.dtd">
<!-- Generated by graphviz version 2.38.0 (20140413.2041)
 -->
<!-- Title: %3 Pages: 1 -->
<svg width="652pt" height="260pt"
 viewBox="0.00 0.00 652.09 260.00" xmlns="http://www.w3.org/2000/svg" xmlns:xlink="http://www.w3.org/1999/xlink">
<g id="graph0" class="graph" transform="scale(1 1) rotate(0) translate(4 256)">
<title>%3</title>
<polygon fill="white" stroke="none" points="-4,4 -4,-256 648.091,-256 648.091,4 -4,4"/>
<!-- ExpConst1 -->
<g id="node1" class="node"><title>ExpConst1</title>
<ellipse fill="none" stroke="black" cx="358.046" cy="-90" rx="50.0912" ry="18"/>
<text text-anchor="middle" x="358.046" y="-86.3" font-family="Times,serif" font-size="14.00">ExpConst1</text>
</g>
<!-- Value1: 0 -->
<g id="node2" class="node"><title>Value1: 0</title>
<ellipse fill="none" stroke="black" cx="358.046" cy="-18" rx="45.4919" ry="18"/>
<text text-anchor="middle" x="358.046" y="-14.3" font-family="Times,serif" font-size="14.00">Value1: 0</text>
</g>
<!-- ExpConst1&#45;&gt;Value1: 0 -->
<g id="edge1" class="edge"><title>ExpConst1&#45;&gt;Value1: 0</title>
<path fill="none" stroke="black" d="M358.046,-71.6966C358.046,-63.9827 358.046,-54.7125 358.046,-46.1124"/>
<polygon fill="black" stroke="black" points="361.546,-46.1043 358.046,-36.1043 354.546,-46.1044 361.546,-46.1043"/>
</g>
<!-- StatCJump0 -->
<g id="node3" class="node"><title>StatCJump0</title>
<ellipse fill="none" stroke="black" cx="299.046" cy="-162" rx="53.8905" ry="18"/>
<text text-anchor="middle" x="299.046" y="-158.3" font-family="Times,serif" font-size="14.00">StatCJump0</text>
</g>
<!-- StatCJump0&#45;&gt;ExpConst1 -->
<g id="edge4" class="edge"><title>StatCJump0&#45;&gt;ExpConst1</title>
<path fill="none" stroke="black" d="M313.028,-144.411C320.375,-135.693 329.519,-124.845 337.642,-115.208"/>
<polygon fill="black" stroke="black" points="340.395,-117.372 344.164,-107.47 335.043,-112.861 340.395,-117.372"/>
</g>
<!-- NE0 -->
<g id="node4" class="node"><title>NE0</title>
<ellipse fill="none" stroke="black" cx="145.046" cy="-90" rx="27" ry="18"/>
<text text-anchor="middle" x="145.046" y="-86.3" font-family="Times,serif" font-size="14.00">NE0</text>
</g>
<!-- StatCJump0&#45;&gt;NE0 -->
<g id="edge2" class="edge"><title>StatCJump0&#45;&gt;NE0</title>
<path fill="none" stroke="black" d="M267.917,-147.212C244.083,-136.608 210.418,-121.53 181.046,-108 179.256,-107.176 177.419,-106.324 175.567,-105.462"/>
<polygon fill="black" stroke="black" points="176.875,-102.21 166.335,-101.135 173.904,-108.548 176.875,-102.21"/>
</g>
<!-- ExpConst0 -->
<g id="node5" class="node"><title>ExpConst0</title>
<ellipse fill="none" stroke="black" cx="240.046" cy="-90" rx="50.0912" ry="18"/>
<text text-anchor="middle" x="240.046" y="-86.3" font-family="Times,serif" font-size="14.00">ExpConst0</text>
</g>
<!-- StatCJump0&#45;&gt;ExpConst0 -->
<g id="edge3" class="edge"><title>StatCJump0&#45;&gt;ExpConst0</title>
<path fill="none" stroke="black" d="M285.063,-144.411C277.716,-135.693 268.572,-124.845 260.449,-115.208"/>
<polygon fill="black" stroke="black" points="263.048,-112.861 253.927,-107.47 257.696,-117.372 263.048,-112.861"/>
</g>
<!-- Label1: L1 -->
<g id="node6" class="node"><title>Label1: L1</title>
<ellipse fill="none" stroke="black" cx="476.046" cy="-90" rx="50.0912" ry="18"/>
<text text-anchor="middle" x="476.046" y="-86.3" font-family="Times,serif" font-size="14.00">Label1: L1</text>
</g>
<!-- StatCJump0&#45;&gt;Label1: L1 -->
<g id="edge5" class="edge"><title>StatCJump0&#45;&gt;Label1: L1</title>
<path fill="none" stroke="black" d="M332.338,-147.834C361.073,-136.469 402.737,-119.992 433.813,-107.702"/>
<polygon fill="black" stroke="black" points="435.489,-110.803 443.501,-103.871 432.914,-104.294 435.489,-110.803"/>
</g>
<!-- Label2: L2 -->
<g id="node7" class="node"><title>Label2: L2</title>
<ellipse fill="none" stroke="black" cx="594.046" cy="-90" rx="50.0912" ry="18"/>
<text text-anchor="middle" x="594.046" y="-86.3" font-family="Times,serif" font-size="14.00">Label2: L2</text>
</g>
<!-- StatCJump0&#45;&gt;Label2: L2 -->
<g id="edge6" class="edge"><title>StatCJump0&#45;&gt;Label2: L2</title>
<path fill="none" stroke="black" d="M343.601,-151.822C391.192,-141.826 468.738,-124.982 535.046,-108 538.886,-107.016 542.855,-105.96 546.835,-104.872"/>
<polygon fill="black" stroke="black" points="547.99,-108.184 556.684,-102.129 546.111,-101.441 547.99,-108.184"/>
</g>
<!-- Value0: 1 -->
<g id="node11" class="node"><title>Value0: 1</title>
<ellipse fill="none" stroke="black" cx="240.046" cy="-18" rx="45.4919" ry="18"/>
<text text-anchor="middle" x="240.046" y="-14.3" font-family="Times,serif" font-size="14.00">Value0: 1</text>
</g>
<!-- ExpConst0&#45;&gt;Value0: 1 -->
<g id="edge10" class="edge"><title>ExpConst0&#45;&gt;Value0: 1</title>
<path fill="none" stroke="black" d="M240.046,-71.6966C240.046,-63.9827 240.046,-54.7125 240.046,-46.1124"/>
<polygon fill="black" stroke="black" points="243.546,-46.1043 240.046,-36.1043 236.546,-46.1044 243.546,-46.1043"/>
</g>
<!-- StatLabel0 -->
<g id="node8" class="node"><title>StatLabel0</title>
<ellipse fill="none" stroke="black" cx="144.046" cy="-162" rx="48.9926" ry="18"/>
<text text-anchor="middle" x="144.046" y="-158.3" font-family="Times,serif" font-size="14.00">StatLabel0</text>
</g>
<!-- Label0: L0 -->
<g id="node9" class="node"><title>Label0: L0</title>
<ellipse fill="none" stroke="black" cx="50.0456" cy="-90" rx="50.0912" ry="18"/>
<text text-anchor="middle" x="50.0456" y="-86.3" font-family="Times,serif" font-size="14.00">Label0: L0</text>
</g>
<!-- StatLabel0&#45;&gt;Label0: L0 -->
<g id="edge7" class="edge"><title>StatLabel0&#45;&gt;Label0: L0</title>
<path fill="none" stroke="black" d="M123.184,-145.465C110.162,-135.768 93.2154,-123.148 78.914,-112.498"/>
<polygon fill="black" stroke="black" points="80.9598,-109.657 70.8489,-106.492 76.7789,-115.272 80.9598,-109.657"/>
</g>
<!-- StatList0 -->
<g id="node10" class="node"><title>StatList0</title>
<ellipse fill="none" stroke="black" cx="221.046" cy="-234" rx="42.4939" ry="18"/>
<text text-anchor="middle" x="221.046" y="-230.3" font-family="Times,serif" font-size="14.00">StatList0</text>
</g>
<!-- StatList0&#45;&gt;StatCJump0 -->
<g id="edge9" class="edge"><title>StatList0&#45;&gt;StatCJump0</title>
<path fill="none" stroke="black" d="M238.356,-217.465C248.64,-208.236 261.873,-196.36 273.357,-186.054"/>
<polygon fill="black" stroke="black" points="275.865,-188.506 280.97,-179.222 271.19,-183.296 275.865,-188.506"/>
</g>
<!-- StatList0&#45;&gt;StatLabel0 -->
<g id="edge8" class="edge"><title>StatList0&#45;&gt;StatLabel0</title>
<path fill="none" stroke="black" d="M203.957,-217.465C193.733,-208.17 180.556,-196.191 169.164,-185.835"/>
<polygon fill="black" stroke="black" points="171.374,-183.114 161.62,-178.977 166.665,-188.294 171.374,-183.114"/>
</g>
</g>
</svg>
