<?xml version="1.0" encoding="UTF-8" standalone="no"?>
<!DOCTYPE svg PUBLIC "-//W3C//DTD SVG 1.1//EN"
 "http://www.w3.org/Graphics/SVG/1.1/DTD/svg11.dtd">
<!-- Generated by graphviz version 2.38.0 (20140413.2041)
 -->
<!-- Title: %3 Pages: 1 -->
<svg width="348pt" height="404pt"
 viewBox="0.00 0.00 347.69 404.00" xmlns="http://www.w3.org/2000/svg" xmlns:xlink="http://www.w3.org/1999/xlink">
<g id="graph0" class="graph" transform="scale(1 1) rotate(0) translate(4 400)">
<title>%3</title>
<polygon fill="white" stroke="none" points="-4,4 -4,-400 343.691,-400 343.691,4 -4,4"/>
<!-- ExpMem0 -->
<g id="node1" class="node"><title>ExpMem0</title>
<ellipse fill="none" stroke="black" cx="286.046" cy="-234" rx="48.9926" ry="18"/>
<text text-anchor="middle" x="286.046" y="-230.3" font-family="Times,serif" font-size="14.00">ExpMem0</text>
</g>
<!-- ExpMem1 -->
<g id="node2" class="node"><title>ExpMem1</title>
<ellipse fill="none" stroke="black" cx="287.046" cy="-162" rx="48.9926" ry="18"/>
<text text-anchor="middle" x="287.046" y="-158.3" font-family="Times,serif" font-size="14.00">ExpMem1</text>
</g>
<!-- ExpMem0&#45;&gt;ExpMem1 -->
<g id="edge1" class="edge"><title>ExpMem0&#45;&gt;ExpMem1</title>
<path fill="none" stroke="black" d="M286.293,-215.697C286.403,-207.983 286.535,-198.712 286.658,-190.112"/>
<polygon fill="black" stroke="black" points="290.158,-190.153 286.801,-180.104 283.159,-190.053 290.158,-190.153"/>
</g>
<!-- ExpTemp1 -->
<g id="node3" class="node"><title>ExpTemp1</title>
<ellipse fill="none" stroke="black" cx="287.046" cy="-90" rx="50.0912" ry="18"/>
<text text-anchor="middle" x="287.046" y="-86.3" font-family="Times,serif" font-size="14.00">ExpTemp1</text>
</g>
<!-- ExpMem1&#45;&gt;ExpTemp1 -->
<g id="edge2" class="edge"><title>ExpMem1&#45;&gt;ExpTemp1</title>
<path fill="none" stroke="black" d="M287.046,-143.697C287.046,-135.983 287.046,-126.712 287.046,-118.112"/>
<polygon fill="black" stroke="black" points="290.546,-118.104 287.046,-108.104 283.546,-118.104 290.546,-118.104"/>
</g>
<!-- Temp1: $fp -->
<g id="node4" class="node"><title>Temp1: $fp</title>
<ellipse fill="none" stroke="black" cx="287.046" cy="-18" rx="52.7911" ry="18"/>
<text text-anchor="middle" x="287.046" y="-14.3" font-family="Times,serif" font-size="14.00">Temp1: $fp</text>
</g>
<!-- ExpTemp1&#45;&gt;Temp1: $fp -->
<g id="edge3" class="edge"><title>ExpTemp1&#45;&gt;Temp1: $fp</title>
<path fill="none" stroke="black" d="M287.046,-71.6966C287.046,-63.9827 287.046,-54.7125 287.046,-46.1124"/>
<polygon fill="black" stroke="black" points="290.546,-46.1043 287.046,-36.1043 283.546,-46.1044 290.546,-46.1043"/>
</g>
<!-- StatLabel0 -->
<g id="node5" class="node"><title>StatLabel0</title>
<ellipse fill="none" stroke="black" cx="51.0456" cy="-306" rx="48.9926" ry="18"/>
<text text-anchor="middle" x="51.0456" y="-302.3" font-family="Times,serif" font-size="14.00">StatLabel0</text>
</g>
<!-- Label0: L2 -->
<g id="node6" class="node"><title>Label0: L2</title>
<ellipse fill="none" stroke="black" cx="50.0456" cy="-234" rx="50.0912" ry="18"/>
<text text-anchor="middle" x="50.0456" y="-230.3" font-family="Times,serif" font-size="14.00">Label0: L2</text>
</g>
<!-- StatLabel0&#45;&gt;Label0: L2 -->
<g id="edge4" class="edge"><title>StatLabel0&#45;&gt;Label0: L2</title>
<path fill="none" stroke="black" d="M50.7984,-287.697C50.6882,-279.983 50.5557,-270.712 50.4329,-262.112"/>
<polygon fill="black" stroke="black" points="53.9325,-262.053 50.2899,-252.104 46.9332,-262.153 53.9325,-262.053"/>
</g>
<!-- StatList0 -->
<g id="node7" class="node"><title>StatList0</title>
<ellipse fill="none" stroke="black" cx="109.046" cy="-378" rx="42.4939" ry="18"/>
<text text-anchor="middle" x="109.046" y="-374.3" font-family="Times,serif" font-size="14.00">StatList0</text>
</g>
<!-- StatList0&#45;&gt;StatLabel0 -->
<g id="edge5" class="edge"><title>StatList0&#45;&gt;StatLabel0</title>
<path fill="none" stroke="black" d="M95.5934,-360.765C88.3776,-352.056 79.3386,-341.147 71.2917,-331.435"/>
<polygon fill="black" stroke="black" points="73.9028,-329.101 64.8275,-323.633 68.5126,-333.567 73.9028,-329.101"/>
</g>
<!-- StatMove0 -->
<g id="node8" class="node"><title>StatMove0</title>
<ellipse fill="none" stroke="black" cx="168.046" cy="-306" rx="50.0912" ry="18"/>
<text text-anchor="middle" x="168.046" y="-302.3" font-family="Times,serif" font-size="14.00">StatMove0</text>
</g>
<!-- StatList0&#45;&gt;StatMove0 -->
<g id="edge6" class="edge"><title>StatList0&#45;&gt;StatMove0</title>
<path fill="none" stroke="black" d="M122.73,-360.765C130.07,-352.056 139.265,-341.147 147.45,-331.435"/>
<polygon fill="black" stroke="black" points="150.257,-333.535 154.026,-323.633 144.905,-329.024 150.257,-333.535"/>
</g>
<!-- StatMove0&#45;&gt;ExpMem0 -->
<g id="edge9" class="edge"><title>StatMove0&#45;&gt;ExpMem0</title>
<path fill="none" stroke="black" d="M192.782,-290.326C210.168,-280.012 233.628,-266.095 252.669,-254.8"/>
<polygon fill="black" stroke="black" points="254.527,-257.767 261.341,-249.655 250.955,-251.747 254.527,-257.767"/>
</g>
<!-- ExpTemp0 -->
<g id="node9" class="node"><title>ExpTemp0</title>
<ellipse fill="none" stroke="black" cx="168.046" cy="-234" rx="50.0912" ry="18"/>
<text text-anchor="middle" x="168.046" y="-230.3" font-family="Times,serif" font-size="14.00">ExpTemp0</text>
</g>
<!-- StatMove0&#45;&gt;ExpTemp0 -->
<g id="edge8" class="edge"><title>StatMove0&#45;&gt;ExpTemp0</title>
<path fill="none" stroke="black" d="M168.046,-287.697C168.046,-279.983 168.046,-270.712 168.046,-262.112"/>
<polygon fill="black" stroke="black" points="171.546,-262.104 168.046,-252.104 164.546,-262.104 171.546,-262.104"/>
</g>
<!-- Temp0: $rv -->
<g id="node10" class="node"><title>Temp0: $rv</title>
<ellipse fill="none" stroke="black" cx="168.046" cy="-162" rx="52.7911" ry="18"/>
<text text-anchor="middle" x="168.046" y="-158.3" font-family="Times,serif" font-size="14.00">Temp0: $rv</text>
</g>
<!-- ExpTemp0&#45;&gt;Temp0: $rv -->
<g id="edge7" class="edge"><title>ExpTemp0&#45;&gt;Temp0: $rv</title>
<path fill="none" stroke="black" d="M168.046,-215.697C168.046,-207.983 168.046,-198.712 168.046,-190.112"/>
<polygon fill="black" stroke="black" points="171.546,-190.104 168.046,-180.104 164.546,-190.104 171.546,-190.104"/>
</g>
</g>
</svg>
