<?xml version="1.0" encoding="UTF-8" standalone="no"?>
<!DOCTYPE svg PUBLIC "-//W3C//DTD SVG 1.1//EN"
 "http://www.w3.org/Graphics/SVG/1.1/DTD/svg11.dtd">
<!-- Generated by graphviz version 2.38.0 (20140413.2041)
 -->
<!-- Title: %3 Pages: 1 -->
<svg width="1156pt" height="404pt"
 viewBox="0.00 0.00 1156.34 404.00" xmlns="http://www.w3.org/2000/svg" xmlns:xlink="http://www.w3.org/1999/xlink">
<g id="graph0" class="graph" transform="scale(1 1) rotate(0) translate(4 400)">
<title>%3</title>
<polygon fill="white" stroke="none" points="-4,4 -4,-400 1152.34,-400 1152.34,4 -4,4"/>
<!-- StatJump0 -->
<g id="node1" class="node"><title>StatJump0</title>
<ellipse fill="none" stroke="black" cx="1036.14" cy="-306" rx="48.1917" ry="18"/>
<text text-anchor="middle" x="1036.14" y="-302.3" font-family="Times,serif" font-size="14.00">StatJump0</text>
</g>
<!-- Label2: epilogue -->
<g id="node2" class="node"><title>Label2: epilogue</title>
<ellipse fill="none" stroke="black" cx="1078.14" cy="-234" rx="70.3881" ry="18"/>
<text text-anchor="middle" x="1078.14" y="-230.3" font-family="Times,serif" font-size="14.00">Label2: epilogue</text>
</g>
<!-- StatJump0&#45;&gt;Label2: epilogue -->
<g id="edge1" class="edge"><title>StatJump0&#45;&gt;Label2: epilogue</title>
<path fill="none" stroke="black" d="M1046.31,-288.055C1051.19,-279.922 1057.14,-269.998 1062.58,-260.943"/>
<polygon fill="black" stroke="black" points="1065.63,-262.651 1067.78,-252.275 1059.63,-259.049 1065.63,-262.651"/>
</g>
<!-- ExpTemp5 -->
<g id="node3" class="node"><title>ExpTemp5</title>
<ellipse fill="none" stroke="black" cx="940.142" cy="-234" rx="50.0912" ry="18"/>
<text text-anchor="middle" x="940.142" y="-230.3" font-family="Times,serif" font-size="14.00">ExpTemp5</text>
</g>
<!-- Temp5: T0 -->
<g id="node4" class="node"><title>Temp5: T0</title>
<ellipse fill="none" stroke="black" cx="1055.14" cy="-162" rx="50.8918" ry="18"/>
<text text-anchor="middle" x="1055.14" y="-158.3" font-family="Times,serif" font-size="14.00">Temp5: T0</text>
</g>
<!-- ExpTemp5&#45;&gt;Temp5: T0 -->
<g id="edge2" class="edge"><title>ExpTemp5&#45;&gt;Temp5: T0</title>
<path fill="none" stroke="black" d="M964.531,-218.155C981.302,-207.946 1003.78,-194.267 1022.14,-183.086"/>
<polygon fill="black" stroke="black" points="1024.07,-186.013 1030.79,-177.824 1020.43,-180.034 1024.07,-186.013"/>
</g>
<!-- ExpList0 -->
<g id="node5" class="node"><title>ExpList0</title>
<ellipse fill="none" stroke="black" cx="943.142" cy="-162" rx="42.7926" ry="18"/>
<text text-anchor="middle" x="943.142" y="-158.3" font-family="Times,serif" font-size="14.00">ExpList0</text>
</g>
<!-- ExpTemp4 -->
<g id="node6" class="node"><title>ExpTemp4</title>
<ellipse fill="none" stroke="black" cx="949.142" cy="-90" rx="50.0912" ry="18"/>
<text text-anchor="middle" x="949.142" y="-86.3" font-family="Times,serif" font-size="14.00">ExpTemp4</text>
</g>
<!-- ExpList0&#45;&gt;ExpTemp4 -->
<g id="edge3" class="edge"><title>ExpList0&#45;&gt;ExpTemp4</title>
<path fill="none" stroke="black" d="M944.626,-143.697C945.287,-135.983 946.081,-126.712 946.819,-118.112"/>
<polygon fill="black" stroke="black" points="950.309,-118.367 947.676,-108.104 943.335,-117.769 950.309,-118.367"/>
</g>
<!-- Temp4: T1 -->
<g id="node7" class="node"><title>Temp4: T1</title>
<ellipse fill="none" stroke="black" cx="949.142" cy="-18" rx="50.8918" ry="18"/>
<text text-anchor="middle" x="949.142" y="-14.3" font-family="Times,serif" font-size="14.00">Temp4: T1</text>
</g>
<!-- ExpTemp4&#45;&gt;Temp4: T1 -->
<g id="edge4" class="edge"><title>ExpTemp4&#45;&gt;Temp4: T1</title>
<path fill="none" stroke="black" d="M949.142,-71.6966C949.142,-63.9827 949.142,-54.7125 949.142,-46.1124"/>
<polygon fill="black" stroke="black" points="952.643,-46.1043 949.142,-36.1043 945.643,-46.1044 952.643,-46.1043"/>
</g>
<!-- ExpCall0 -->
<g id="node8" class="node"><title>ExpCall0</title>
<ellipse fill="none" stroke="black" cx="828.142" cy="-234" rx="44.393" ry="18"/>
<text text-anchor="middle" x="828.142" y="-230.3" font-family="Times,serif" font-size="14.00">ExpCall0</text>
</g>
<!-- ExpCall0&#45;&gt;ExpList0 -->
<g id="edge6" class="edge"><title>ExpCall0&#45;&gt;ExpList0</title>
<path fill="none" stroke="black" d="M851.692,-218.666C868.824,-208.237 892.22,-193.996 911.06,-182.529"/>
<polygon fill="black" stroke="black" points="912.902,-185.505 919.624,-177.315 909.263,-179.525 912.902,-185.505"/>
</g>
<!-- ExpName0 -->
<g id="node9" class="node"><title>ExpName0</title>
<ellipse fill="none" stroke="black" cx="831.142" cy="-162" rx="50.8918" ry="18"/>
<text text-anchor="middle" x="831.142" y="-158.3" font-family="Times,serif" font-size="14.00">ExpName0</text>
</g>
<!-- ExpCall0&#45;&gt;ExpName0 -->
<g id="edge5" class="edge"><title>ExpCall0&#45;&gt;ExpName0</title>
<path fill="none" stroke="black" d="M828.884,-215.697C829.215,-207.983 829.612,-198.712 829.98,-190.112"/>
<polygon fill="black" stroke="black" points="833.478,-190.245 830.409,-180.104 826.484,-189.945 833.478,-190.245"/>
</g>
<!-- Label1: print -->
<g id="node10" class="node"><title>Label1: print</title>
<ellipse fill="none" stroke="black" cx="824.142" cy="-90" rx="56.59" ry="18"/>
<text text-anchor="middle" x="824.142" y="-86.3" font-family="Times,serif" font-size="14.00">Label1: print</text>
</g>
<!-- ExpName0&#45;&gt;Label1: print -->
<g id="edge7" class="edge"><title>ExpName0&#45;&gt;Label1: print</title>
<path fill="none" stroke="black" d="M829.412,-143.697C828.641,-135.983 827.714,-126.712 826.854,-118.112"/>
<polygon fill="black" stroke="black" points="830.331,-117.706 825.853,-108.104 823.365,-118.403 830.331,-117.706"/>
</g>
<!-- StatMove0 -->
<g id="node11" class="node"><title>StatMove0</title>
<ellipse fill="none" stroke="black" cx="356.142" cy="-306" rx="50.0912" ry="18"/>
<text text-anchor="middle" x="356.142" y="-302.3" font-family="Times,serif" font-size="14.00">StatMove0</text>
</g>
<!-- ExpTemp0 -->
<g id="node12" class="node"><title>ExpTemp0</title>
<ellipse fill="none" stroke="black" cx="238.142" cy="-234" rx="50.0912" ry="18"/>
<text text-anchor="middle" x="238.142" y="-230.3" font-family="Times,serif" font-size="14.00">ExpTemp0</text>
</g>
<!-- StatMove0&#45;&gt;ExpTemp0 -->
<g id="edge8" class="edge"><title>StatMove0&#45;&gt;ExpTemp0</title>
<path fill="none" stroke="black" d="M331.406,-290.326C314.02,-280.012 290.56,-266.095 271.519,-254.8"/>
<polygon fill="black" stroke="black" points="273.233,-251.747 262.847,-249.655 269.661,-257.767 273.233,-251.747"/>
</g>
<!-- ExpTemp1 -->
<g id="node13" class="node"><title>ExpTemp1</title>
<ellipse fill="none" stroke="black" cx="356.142" cy="-234" rx="50.0912" ry="18"/>
<text text-anchor="middle" x="356.142" y="-230.3" font-family="Times,serif" font-size="14.00">ExpTemp1</text>
</g>
<!-- StatMove0&#45;&gt;ExpTemp1 -->
<g id="edge9" class="edge"><title>StatMove0&#45;&gt;ExpTemp1</title>
<path fill="none" stroke="black" d="M356.142,-287.697C356.142,-279.983 356.142,-270.712 356.142,-262.112"/>
<polygon fill="black" stroke="black" points="359.643,-262.104 356.142,-252.104 352.643,-262.104 359.643,-262.104"/>
</g>
<!-- Temp0: T2 -->
<g id="node15" class="node"><title>Temp0: T2</title>
<ellipse fill="none" stroke="black" cx="236.142" cy="-162" rx="50.8918" ry="18"/>
<text text-anchor="middle" x="236.142" y="-158.3" font-family="Times,serif" font-size="14.00">Temp0: T2</text>
</g>
<!-- ExpTemp0&#45;&gt;Temp0: T2 -->
<g id="edge11" class="edge"><title>ExpTemp0&#45;&gt;Temp0: T2</title>
<path fill="none" stroke="black" d="M237.648,-215.697C237.428,-207.983 237.163,-198.712 236.917,-190.112"/>
<polygon fill="black" stroke="black" points="240.415,-190 236.631,-180.104 233.418,-190.2 240.415,-190"/>
</g>
<!-- Temp1: T0 -->
<g id="node25" class="node"><title>Temp1: T0</title>
<ellipse fill="none" stroke="black" cx="355.142" cy="-162" rx="50.8918" ry="18"/>
<text text-anchor="middle" x="355.142" y="-158.3" font-family="Times,serif" font-size="14.00">Temp1: T0</text>
</g>
<!-- ExpTemp1&#45;&gt;Temp1: T0 -->
<g id="edge21" class="edge"><title>ExpTemp1&#45;&gt;Temp1: T0</title>
<path fill="none" stroke="black" d="M355.895,-215.697C355.785,-207.983 355.653,-198.712 355.53,-190.112"/>
<polygon fill="black" stroke="black" points="359.029,-190.053 355.387,-180.104 352.03,-190.153 359.029,-190.053"/>
</g>
<!-- StatExp0 -->
<g id="node14" class="node"><title>StatExp0</title>
<ellipse fill="none" stroke="black" cx="883.142" cy="-306" rx="42.7926" ry="18"/>
<text text-anchor="middle" x="883.142" y="-302.3" font-family="Times,serif" font-size="14.00">StatExp0</text>
</g>
<!-- StatExp0&#45;&gt;ExpTemp5 -->
<g id="edge10" class="edge"><title>StatExp0&#45;&gt;ExpTemp5</title>
<path fill="none" stroke="black" d="M896.363,-288.765C903.454,-280.056 912.337,-269.147 920.245,-259.435"/>
<polygon fill="black" stroke="black" points="922.998,-261.598 926.598,-251.633 917.57,-257.178 922.998,-261.598"/>
</g>
<!-- StatList0 -->
<g id="node16" class="node"><title>StatList0</title>
<ellipse fill="none" stroke="black" cx="652.142" cy="-378" rx="42.4939" ry="18"/>
<text text-anchor="middle" x="652.142" y="-374.3" font-family="Times,serif" font-size="14.00">StatList0</text>
</g>
<!-- StatList0&#45;&gt;StatJump0 -->
<g id="edge17" class="edge"><title>StatList0&#45;&gt;StatJump0</title>
<path fill="none" stroke="black" d="M690.366,-370.032C759.446,-357.439 905.174,-330.875 983.576,-316.582"/>
<polygon fill="black" stroke="black" points="984.506,-319.971 993.716,-314.734 983.251,-313.084 984.506,-319.971"/>
</g>
<!-- StatList0&#45;&gt;StatMove0 -->
<g id="edge13" class="edge"><title>StatList0&#45;&gt;StatMove0</title>
<path fill="none" stroke="black" d="M616.143,-368.487C563.856,-356.121 466.655,-333.135 407.052,-319.039"/>
<polygon fill="black" stroke="black" points="407.638,-315.582 397.101,-316.686 406.027,-322.394 407.638,-315.582"/>
</g>
<!-- StatList0&#45;&gt;StatExp0 -->
<g id="edge16" class="edge"><title>StatList0&#45;&gt;StatExp0</title>
<path fill="none" stroke="black" d="M685.732,-366.821C726.448,-354.483 795.145,-333.666 839.813,-320.13"/>
<polygon fill="black" stroke="black" points="840.957,-323.441 849.513,-317.191 838.927,-316.741 840.957,-323.441"/>
</g>
<!-- StatLabel0 -->
<g id="node17" class="node"><title>StatLabel0</title>
<ellipse fill="none" stroke="black" cx="162.142" cy="-306" rx="48.9926" ry="18"/>
<text text-anchor="middle" x="162.142" y="-302.3" font-family="Times,serif" font-size="14.00">StatLabel0</text>
</g>
<!-- StatList0&#45;&gt;StatLabel0 -->
<g id="edge12" class="edge"><title>StatList0&#45;&gt;StatLabel0</title>
<path fill="none" stroke="black" d="M612.459,-371.331C525.209,-358.867 316.559,-329.059 216.919,-314.825"/>
<polygon fill="black" stroke="black" points="217.155,-311.323 206.76,-313.374 216.165,-318.253 217.155,-311.323"/>
</g>
<!-- StatMove1 -->
<g id="node18" class="node"><title>StatMove1</title>
<ellipse fill="none" stroke="black" cx="593.142" cy="-306" rx="50.0912" ry="18"/>
<text text-anchor="middle" x="593.142" y="-302.3" font-family="Times,serif" font-size="14.00">StatMove1</text>
</g>
<!-- StatList0&#45;&gt;StatMove1 -->
<g id="edge14" class="edge"><title>StatList0&#45;&gt;StatMove1</title>
<path fill="none" stroke="black" d="M638.458,-360.765C631.118,-352.056 621.923,-341.147 613.738,-331.435"/>
<polygon fill="black" stroke="black" points="616.283,-329.024 607.162,-323.633 610.931,-333.535 616.283,-329.024"/>
</g>
<!-- StatMove2 -->
<g id="node19" class="node"><title>StatMove2</title>
<ellipse fill="none" stroke="black" cx="712.142" cy="-306" rx="50.0912" ry="18"/>
<text text-anchor="middle" x="712.142" y="-302.3" font-family="Times,serif" font-size="14.00">StatMove2</text>
</g>
<!-- StatList0&#45;&gt;StatMove2 -->
<g id="edge15" class="edge"><title>StatList0&#45;&gt;StatMove2</title>
<path fill="none" stroke="black" d="M666.058,-360.765C673.523,-352.056 682.874,-341.147 691.198,-331.435"/>
<polygon fill="black" stroke="black" points="694.035,-333.504 697.885,-323.633 688.72,-328.948 694.035,-333.504"/>
</g>
<!-- Label0: Main@main -->
<g id="node20" class="node"><title>Label0: Main@main</title>
<ellipse fill="none" stroke="black" cx="85.1424" cy="-234" rx="85.2851" ry="18"/>
<text text-anchor="middle" x="85.1424" y="-230.3" font-family="Times,serif" font-size="14.00">Label0: Main@main</text>
</g>
<!-- StatLabel0&#45;&gt;Label0: Main@main -->
<g id="edge18" class="edge"><title>StatLabel0&#45;&gt;Label0: Main@main</title>
<path fill="none" stroke="black" d="M144.67,-289.116C134.815,-280.157 122.309,-268.788 111.306,-258.785"/>
<polygon fill="black" stroke="black" points="113.373,-255.934 103.62,-251.797 108.665,-261.114 113.373,-255.934"/>
</g>
<!-- ExpConst0 -->
<g id="node21" class="node"><title>ExpConst0</title>
<ellipse fill="none" stroke="black" cx="593.142" cy="-234" rx="50.0912" ry="18"/>
<text text-anchor="middle" x="593.142" y="-230.3" font-family="Times,serif" font-size="14.00">ExpConst0</text>
</g>
<!-- StatMove1&#45;&gt;ExpConst0 -->
<g id="edge23" class="edge"><title>StatMove1&#45;&gt;ExpConst0</title>
<path fill="none" stroke="black" d="M593.142,-287.697C593.142,-279.983 593.142,-270.712 593.142,-262.112"/>
<polygon fill="black" stroke="black" points="596.643,-262.104 593.142,-252.104 589.643,-262.104 596.643,-262.104"/>
</g>
<!-- ExpTemp2 -->
<g id="node26" class="node"><title>ExpTemp2</title>
<ellipse fill="none" stroke="black" cx="475.142" cy="-234" rx="50.0912" ry="18"/>
<text text-anchor="middle" x="475.142" y="-230.3" font-family="Times,serif" font-size="14.00">ExpTemp2</text>
</g>
<!-- StatMove1&#45;&gt;ExpTemp2 -->
<g id="edge22" class="edge"><title>StatMove1&#45;&gt;ExpTemp2</title>
<path fill="none" stroke="black" d="M568.406,-290.326C551.02,-280.012 527.56,-266.095 508.519,-254.8"/>
<polygon fill="black" stroke="black" points="510.233,-251.747 499.847,-249.655 506.661,-257.767 510.233,-251.747"/>
</g>
<!-- StatMove2&#45;&gt;ExpCall0 -->
<g id="edge26" class="edge"><title>StatMove2&#45;&gt;ExpCall0</title>
<path fill="none" stroke="black" d="M736.743,-290.155C753.889,-279.808 776.942,-265.897 795.606,-254.634"/>
<polygon fill="black" stroke="black" points="797.617,-257.508 804.371,-249.345 794,-251.515 797.617,-257.508"/>
</g>
<!-- ExpTemp3 -->
<g id="node23" class="node"><title>ExpTemp3</title>
<ellipse fill="none" stroke="black" cx="712.142" cy="-234" rx="50.0912" ry="18"/>
<text text-anchor="middle" x="712.142" y="-230.3" font-family="Times,serif" font-size="14.00">ExpTemp3</text>
</g>
<!-- StatMove2&#45;&gt;ExpTemp3 -->
<g id="edge25" class="edge"><title>StatMove2&#45;&gt;ExpTemp3</title>
<path fill="none" stroke="black" d="M712.142,-287.697C712.142,-279.983 712.142,-270.712 712.142,-262.112"/>
<polygon fill="black" stroke="black" points="715.643,-262.104 712.142,-252.104 708.643,-262.104 715.643,-262.104"/>
</g>
<!-- Value0: 10 -->
<g id="node22" class="node"><title>Value0: 10</title>
<ellipse fill="none" stroke="black" cx="593.142" cy="-162" rx="50.0912" ry="18"/>
<text text-anchor="middle" x="593.142" y="-158.3" font-family="Times,serif" font-size="14.00">Value0: 10</text>
</g>
<!-- ExpConst0&#45;&gt;Value0: 10 -->
<g id="edge19" class="edge"><title>ExpConst0&#45;&gt;Value0: 10</title>
<path fill="none" stroke="black" d="M593.142,-215.697C593.142,-207.983 593.142,-198.712 593.142,-190.112"/>
<polygon fill="black" stroke="black" points="596.643,-190.104 593.142,-180.104 589.643,-190.104 596.643,-190.104"/>
</g>
<!-- Temp3: T2 -->
<g id="node24" class="node"><title>Temp3: T2</title>
<ellipse fill="none" stroke="black" cx="712.142" cy="-162" rx="50.8918" ry="18"/>
<text text-anchor="middle" x="712.142" y="-158.3" font-family="Times,serif" font-size="14.00">Temp3: T2</text>
</g>
<!-- ExpTemp3&#45;&gt;Temp3: T2 -->
<g id="edge20" class="edge"><title>ExpTemp3&#45;&gt;Temp3: T2</title>
<path fill="none" stroke="black" d="M712.142,-215.697C712.142,-207.983 712.142,-198.712 712.142,-190.112"/>
<polygon fill="black" stroke="black" points="715.643,-190.104 712.142,-180.104 708.643,-190.104 715.643,-190.104"/>
</g>
<!-- Temp2: T1 -->
<g id="node27" class="node"><title>Temp2: T1</title>
<ellipse fill="none" stroke="black" cx="474.142" cy="-162" rx="50.8918" ry="18"/>
<text text-anchor="middle" x="474.142" y="-158.3" font-family="Times,serif" font-size="14.00">Temp2: T1</text>
</g>
<!-- ExpTemp2&#45;&gt;Temp2: T1 -->
<g id="edge24" class="edge"><title>ExpTemp2&#45;&gt;Temp2: T1</title>
<path fill="none" stroke="black" d="M474.895,-215.697C474.785,-207.983 474.653,-198.712 474.53,-190.112"/>
<polygon fill="black" stroke="black" points="478.029,-190.053 474.387,-180.104 471.03,-190.153 478.029,-190.053"/>
</g>
</g>
</svg>
