<?xml version="1.0" encoding="UTF-8" standalone="no"?>
<!DOCTYPE svg PUBLIC "-//W3C//DTD SVG 1.1//EN"
 "http://www.w3.org/Graphics/SVG/1.1/DTD/svg11.dtd">
<!-- Generated by graphviz version 2.38.0 (20140413.2041)
 -->
<!-- Title: %3 Pages: 1 -->
<svg width="1404pt" height="404pt"
 viewBox="0.00 0.00 1404.34 404.00" xmlns="http://www.w3.org/2000/svg" xmlns:xlink="http://www.w3.org/1999/xlink">
<g id="graph0" class="graph" transform="scale(1 1) rotate(0) translate(4 400)">
<title>%3</title>
<polygon fill="white" stroke="none" points="-4,4 -4,-400 1400.34,-400 1400.34,4 -4,4"/>
<!-- ExpList0 -->
<g id="node1" class="node"><title>ExpList0</title>
<ellipse fill="none" stroke="black" cx="1191.14" cy="-162" rx="42.7926" ry="18"/>
<text text-anchor="middle" x="1191.14" y="-158.3" font-family="Times,serif" font-size="14.00">ExpList0</text>
</g>
<!-- ExpTemp6 -->
<g id="node2" class="node"><title>ExpTemp6</title>
<ellipse fill="none" stroke="black" cx="1195.14" cy="-90" rx="50.0912" ry="18"/>
<text text-anchor="middle" x="1195.14" y="-86.3" font-family="Times,serif" font-size="14.00">ExpTemp6</text>
</g>
<!-- ExpList0&#45;&gt;ExpTemp6 -->
<g id="edge1" class="edge"><title>ExpList0&#45;&gt;ExpTemp6</title>
<path fill="none" stroke="black" d="M1192.13,-143.697C1192.57,-135.983 1193.1,-126.712 1193.59,-118.112"/>
<polygon fill="black" stroke="black" points="1197.09,-118.288 1194.17,-108.104 1190.1,-117.888 1197.09,-118.288"/>
</g>
<!-- Temp6: T2 -->
<g id="node3" class="node"><title>Temp6: T2</title>
<ellipse fill="none" stroke="black" cx="1195.14" cy="-18" rx="50.8918" ry="18"/>
<text text-anchor="middle" x="1195.14" y="-14.3" font-family="Times,serif" font-size="14.00">Temp6: T2</text>
</g>
<!-- ExpTemp6&#45;&gt;Temp6: T2 -->
<g id="edge2" class="edge"><title>ExpTemp6&#45;&gt;Temp6: T2</title>
<path fill="none" stroke="black" d="M1195.14,-71.6966C1195.14,-63.9827 1195.14,-54.7125 1195.14,-46.1124"/>
<polygon fill="black" stroke="black" points="1198.64,-46.1043 1195.14,-36.1043 1191.64,-46.1044 1198.64,-46.1043"/>
</g>
<!-- StatJump0 -->
<g id="node4" class="node"><title>StatJump0</title>
<ellipse fill="none" stroke="black" cx="1282.14" cy="-306" rx="48.1917" ry="18"/>
<text text-anchor="middle" x="1282.14" y="-302.3" font-family="Times,serif" font-size="14.00">StatJump0</text>
</g>
<!-- Label2: epilogue -->
<g id="node5" class="node"><title>Label2: epilogue</title>
<ellipse fill="none" stroke="black" cx="1326.14" cy="-234" rx="70.3881" ry="18"/>
<text text-anchor="middle" x="1326.14" y="-230.3" font-family="Times,serif" font-size="14.00">Label2: epilogue</text>
</g>
<!-- StatJump0&#45;&gt;Label2: epilogue -->
<g id="edge3" class="edge"><title>StatJump0&#45;&gt;Label2: epilogue</title>
<path fill="none" stroke="black" d="M1292.57,-288.411C1297.81,-280.077 1304.27,-269.797 1310.12,-260.488"/>
<polygon fill="black" stroke="black" points="1313.13,-262.285 1315.48,-251.956 1307.2,-258.56 1313.13,-262.285"/>
</g>
<!-- ExpTemp5 -->
<g id="node6" class="node"><title>ExpTemp5</title>
<ellipse fill="none" stroke="black" cx="1080.14" cy="-162" rx="50.0912" ry="18"/>
<text text-anchor="middle" x="1080.14" y="-158.3" font-family="Times,serif" font-size="14.00">ExpTemp5</text>
</g>
<!-- Temp5: T1 -->
<g id="node7" class="node"><title>Temp5: T1</title>
<ellipse fill="none" stroke="black" cx="1076.14" cy="-90" rx="50.8918" ry="18"/>
<text text-anchor="middle" x="1076.14" y="-86.3" font-family="Times,serif" font-size="14.00">Temp5: T1</text>
</g>
<!-- ExpTemp5&#45;&gt;Temp5: T1 -->
<g id="edge4" class="edge"><title>ExpTemp5&#45;&gt;Temp5: T1</title>
<path fill="none" stroke="black" d="M1079.15,-143.697C1078.71,-135.983 1078.18,-126.712 1077.69,-118.112"/>
<polygon fill="black" stroke="black" points="1081.18,-117.888 1077.12,-108.104 1074.2,-118.288 1081.18,-117.888"/>
</g>
<!-- StatMove3 -->
<g id="node8" class="node"><title>StatMove3</title>
<ellipse fill="none" stroke="black" cx="961.142" cy="-306" rx="50.0912" ry="18"/>
<text text-anchor="middle" x="961.142" y="-302.3" font-family="Times,serif" font-size="14.00">StatMove3</text>
</g>
<!-- ExpTemp4 -->
<g id="node9" class="node"><title>ExpTemp4</title>
<ellipse fill="none" stroke="black" cx="961.142" cy="-234" rx="50.0912" ry="18"/>
<text text-anchor="middle" x="961.142" y="-230.3" font-family="Times,serif" font-size="14.00">ExpTemp4</text>
</g>
<!-- StatMove3&#45;&gt;ExpTemp4 -->
<g id="edge5" class="edge"><title>StatMove3&#45;&gt;ExpTemp4</title>
<path fill="none" stroke="black" d="M961.142,-287.697C961.142,-279.983 961.142,-270.712 961.142,-262.112"/>
<polygon fill="black" stroke="black" points="964.643,-262.104 961.142,-252.104 957.643,-262.104 964.643,-262.104"/>
</g>
<!-- ExpCall0 -->
<g id="node10" class="node"><title>ExpCall0</title>
<ellipse fill="none" stroke="black" cx="1076.14" cy="-234" rx="44.393" ry="18"/>
<text text-anchor="middle" x="1076.14" y="-230.3" font-family="Times,serif" font-size="14.00">ExpCall0</text>
</g>
<!-- StatMove3&#45;&gt;ExpCall0 -->
<g id="edge6" class="edge"><title>StatMove3&#45;&gt;ExpCall0</title>
<path fill="none" stroke="black" d="M985.531,-290.155C1002.53,-279.808 1025.38,-265.897 1043.89,-254.634"/>
<polygon fill="black" stroke="black" points="1045.85,-257.534 1052.58,-249.345 1042.21,-251.555 1045.85,-257.534"/>
</g>
<!-- Temp4: T3 -->
<g id="node11" class="node"><title>Temp4: T3</title>
<ellipse fill="none" stroke="black" cx="961.142" cy="-162" rx="50.8918" ry="18"/>
<text text-anchor="middle" x="961.142" y="-158.3" font-family="Times,serif" font-size="14.00">Temp4: T3</text>
</g>
<!-- ExpTemp4&#45;&gt;Temp4: T3 -->
<g id="edge9" class="edge"><title>ExpTemp4&#45;&gt;Temp4: T3</title>
<path fill="none" stroke="black" d="M961.142,-215.697C961.142,-207.983 961.142,-198.712 961.142,-190.112"/>
<polygon fill="black" stroke="black" points="964.643,-190.104 961.142,-180.104 957.643,-190.104 964.643,-190.104"/>
</g>
<!-- ExpCall0&#45;&gt;ExpList0 -->
<g id="edge8" class="edge"><title>ExpCall0&#45;&gt;ExpList0</title>
<path fill="none" stroke="black" d="M1099.69,-218.666C1116.82,-208.237 1140.22,-193.996 1159.06,-182.529"/>
<polygon fill="black" stroke="black" points="1160.9,-185.505 1167.62,-177.315 1157.26,-179.525 1160.9,-185.505"/>
</g>
<!-- ExpCall0&#45;&gt;ExpTemp5 -->
<g id="edge7" class="edge"><title>ExpCall0&#45;&gt;ExpTemp5</title>
<path fill="none" stroke="black" d="M1077.13,-215.697C1077.57,-207.983 1078.1,-198.712 1078.59,-190.112"/>
<polygon fill="black" stroke="black" points="1082.09,-190.288 1079.17,-180.104 1075.1,-189.888 1082.09,-190.288"/>
</g>
<!-- ExpConst0 -->
<g id="node12" class="node"><title>ExpConst0</title>
<ellipse fill="none" stroke="black" cx="842.142" cy="-234" rx="50.0912" ry="18"/>
<text text-anchor="middle" x="842.142" y="-230.3" font-family="Times,serif" font-size="14.00">ExpConst0</text>
</g>
<!-- Value0: 10 -->
<g id="node13" class="node"><title>Value0: 10</title>
<ellipse fill="none" stroke="black" cx="842.142" cy="-162" rx="50.0912" ry="18"/>
<text text-anchor="middle" x="842.142" y="-158.3" font-family="Times,serif" font-size="14.00">Value0: 10</text>
</g>
<!-- ExpConst0&#45;&gt;Value0: 10 -->
<g id="edge10" class="edge"><title>ExpConst0&#45;&gt;Value0: 10</title>
<path fill="none" stroke="black" d="M842.142,-215.697C842.142,-207.983 842.142,-198.712 842.142,-190.112"/>
<polygon fill="black" stroke="black" points="845.643,-190.104 842.142,-180.104 838.643,-190.104 845.643,-190.104"/>
</g>
<!-- StatMove0 -->
<g id="node14" class="node"><title>StatMove0</title>
<ellipse fill="none" stroke="black" cx="356.142" cy="-306" rx="50.0912" ry="18"/>
<text text-anchor="middle" x="356.142" y="-302.3" font-family="Times,serif" font-size="14.00">StatMove0</text>
</g>
<!-- ExpTemp0 -->
<g id="node15" class="node"><title>ExpTemp0</title>
<ellipse fill="none" stroke="black" cx="238.142" cy="-234" rx="50.0912" ry="18"/>
<text text-anchor="middle" x="238.142" y="-230.3" font-family="Times,serif" font-size="14.00">ExpTemp0</text>
</g>
<!-- StatMove0&#45;&gt;ExpTemp0 -->
<g id="edge11" class="edge"><title>StatMove0&#45;&gt;ExpTemp0</title>
<path fill="none" stroke="black" d="M331.406,-290.326C314.02,-280.012 290.56,-266.095 271.519,-254.8"/>
<polygon fill="black" stroke="black" points="273.233,-251.747 262.847,-249.655 269.661,-257.767 273.233,-251.747"/>
</g>
<!-- ExpTemp1 -->
<g id="node16" class="node"><title>ExpTemp1</title>
<ellipse fill="none" stroke="black" cx="356.142" cy="-234" rx="50.0912" ry="18"/>
<text text-anchor="middle" x="356.142" y="-230.3" font-family="Times,serif" font-size="14.00">ExpTemp1</text>
</g>
<!-- StatMove0&#45;&gt;ExpTemp1 -->
<g id="edge12" class="edge"><title>StatMove0&#45;&gt;ExpTemp1</title>
<path fill="none" stroke="black" d="M356.142,-287.697C356.142,-279.983 356.142,-270.712 356.142,-262.112"/>
<polygon fill="black" stroke="black" points="359.643,-262.104 356.142,-252.104 352.643,-262.104 359.643,-262.104"/>
</g>
<!-- Temp0: T3 -->
<g id="node19" class="node"><title>Temp0: T3</title>
<ellipse fill="none" stroke="black" cx="235.142" cy="-162" rx="50.8918" ry="18"/>
<text text-anchor="middle" x="235.142" y="-158.3" font-family="Times,serif" font-size="14.00">Temp0: T3</text>
</g>
<!-- ExpTemp0&#45;&gt;Temp0: T3 -->
<g id="edge14" class="edge"><title>ExpTemp0&#45;&gt;Temp0: T3</title>
<path fill="none" stroke="black" d="M237.401,-215.697C237.07,-207.983 236.673,-198.712 236.304,-190.112"/>
<polygon fill="black" stroke="black" points="239.801,-189.945 235.875,-180.104 232.807,-190.245 239.801,-189.945"/>
</g>
<!-- Temp1: T0 -->
<g id="node27" class="node"><title>Temp1: T0</title>
<ellipse fill="none" stroke="black" cx="354.142" cy="-162" rx="50.8918" ry="18"/>
<text text-anchor="middle" x="354.142" y="-158.3" font-family="Times,serif" font-size="14.00">Temp1: T0</text>
</g>
<!-- ExpTemp1&#45;&gt;Temp1: T0 -->
<g id="edge24" class="edge"><title>ExpTemp1&#45;&gt;Temp1: T0</title>
<path fill="none" stroke="black" d="M355.648,-215.697C355.428,-207.983 355.163,-198.712 354.917,-190.112"/>
<polygon fill="black" stroke="black" points="358.415,-190 354.631,-180.104 351.418,-190.2 358.415,-190"/>
</g>
<!-- StatExp0 -->
<g id="node17" class="node"><title>StatExp0</title>
<ellipse fill="none" stroke="black" cx="1130.14" cy="-306" rx="42.7926" ry="18"/>
<text text-anchor="middle" x="1130.14" y="-302.3" font-family="Times,serif" font-size="14.00">StatExp0</text>
</g>
<!-- ExpTemp7 -->
<g id="node18" class="node"><title>ExpTemp7</title>
<ellipse fill="none" stroke="black" cx="1188.14" cy="-234" rx="50.0912" ry="18"/>
<text text-anchor="middle" x="1188.14" y="-230.3" font-family="Times,serif" font-size="14.00">ExpTemp7</text>
</g>
<!-- StatExp0&#45;&gt;ExpTemp7 -->
<g id="edge13" class="edge"><title>StatExp0&#45;&gt;ExpTemp7</title>
<path fill="none" stroke="black" d="M1143.59,-288.765C1150.81,-280.056 1159.85,-269.147 1167.9,-259.435"/>
<polygon fill="black" stroke="black" points="1170.68,-261.567 1174.36,-251.633 1165.29,-257.101 1170.68,-261.567"/>
</g>
<!-- Temp7: T0 -->
<g id="node31" class="node"><title>Temp7: T0</title>
<ellipse fill="none" stroke="black" cx="1303.14" cy="-162" rx="50.8918" ry="18"/>
<text text-anchor="middle" x="1303.14" y="-158.3" font-family="Times,serif" font-size="14.00">Temp7: T0</text>
</g>
<!-- ExpTemp7&#45;&gt;Temp7: T0 -->
<g id="edge30" class="edge"><title>ExpTemp7&#45;&gt;Temp7: T0</title>
<path fill="none" stroke="black" d="M1212.53,-218.155C1229.3,-207.946 1251.78,-194.267 1270.14,-183.086"/>
<polygon fill="black" stroke="black" points="1272.07,-186.013 1278.79,-177.824 1268.43,-180.034 1272.07,-186.013"/>
</g>
<!-- StatList0 -->
<g id="node20" class="node"><title>StatList0</title>
<ellipse fill="none" stroke="black" cx="782.142" cy="-378" rx="42.4939" ry="18"/>
<text text-anchor="middle" x="782.142" y="-374.3" font-family="Times,serif" font-size="14.00">StatList0</text>
</g>
<!-- StatList0&#45;&gt;StatJump0 -->
<g id="edge21" class="edge"><title>StatList0&#45;&gt;StatJump0</title>
<path fill="none" stroke="black" d="M822.237,-372.181C894.36,-363.403 1050.71,-343.872 1182.14,-324 1197.42,-321.69 1213.98,-318.966 1229.14,-316.383"/>
<polygon fill="black" stroke="black" points="1230.11,-319.767 1239.37,-314.625 1228.93,-312.868 1230.11,-319.767"/>
</g>
<!-- StatList0&#45;&gt;StatMove3 -->
<g id="edge19" class="edge"><title>StatList0&#45;&gt;StatMove3</title>
<path fill="none" stroke="black" d="M812.103,-365.284C841.452,-353.806 886.434,-336.216 919.305,-323.361"/>
<polygon fill="black" stroke="black" points="920.62,-326.605 928.659,-319.703 918.071,-320.086 920.62,-326.605"/>
</g>
<!-- StatList0&#45;&gt;StatMove0 -->
<g id="edge16" class="edge"><title>StatList0&#45;&gt;StatMove0</title>
<path fill="none" stroke="black" d="M743.208,-370.602C667.044,-358.087 498.171,-330.338 410.831,-315.986"/>
<polygon fill="black" stroke="black" points="411.286,-312.514 400.85,-314.346 410.151,-319.422 411.286,-312.514"/>
</g>
<!-- StatList0&#45;&gt;StatExp0 -->
<g id="edge20" class="edge"><title>StatList0&#45;&gt;StatExp0</title>
<path fill="none" stroke="black" d="M819.715,-369.442C883.37,-356.638 1012.31,-330.702 1082.31,-316.621"/>
<polygon fill="black" stroke="black" points="1083.09,-320.036 1092.2,-314.632 1081.71,-313.173 1083.09,-320.036"/>
</g>
<!-- StatLabel0 -->
<g id="node21" class="node"><title>StatLabel0</title>
<ellipse fill="none" stroke="black" cx="162.142" cy="-306" rx="48.9926" ry="18"/>
<text text-anchor="middle" x="162.142" y="-302.3" font-family="Times,serif" font-size="14.00">StatLabel0</text>
</g>
<!-- StatList0&#45;&gt;StatLabel0 -->
<g id="edge15" class="edge"><title>StatList0&#45;&gt;StatLabel0</title>
<path fill="none" stroke="black" d="M741.558,-372.793C658.227,-364.103 461.813,-343.364 297.142,-324 270.969,-320.922 241.969,-317.298 217.578,-314.189"/>
<polygon fill="black" stroke="black" points="217.791,-310.688 207.428,-312.891 216.903,-317.631 217.791,-310.688"/>
</g>
<!-- StatMove1 -->
<g id="node22" class="node"><title>StatMove1</title>
<ellipse fill="none" stroke="black" cx="598.142" cy="-306" rx="50.0912" ry="18"/>
<text text-anchor="middle" x="598.142" y="-302.3" font-family="Times,serif" font-size="14.00">StatMove1</text>
</g>
<!-- StatList0&#45;&gt;StatMove1 -->
<g id="edge17" class="edge"><title>StatList0&#45;&gt;StatMove1</title>
<path fill="none" stroke="black" d="M751.759,-365.441C721.565,-353.954 674.986,-336.234 641.032,-323.317"/>
<polygon fill="black" stroke="black" points="641.965,-319.927 631.374,-319.642 639.476,-326.469 641.965,-319.927"/>
</g>
<!-- StatMove2 -->
<g id="node23" class="node"><title>StatMove2</title>
<ellipse fill="none" stroke="black" cx="782.142" cy="-306" rx="50.0912" ry="18"/>
<text text-anchor="middle" x="782.142" y="-302.3" font-family="Times,serif" font-size="14.00">StatMove2</text>
</g>
<!-- StatList0&#45;&gt;StatMove2 -->
<g id="edge18" class="edge"><title>StatList0&#45;&gt;StatMove2</title>
<path fill="none" stroke="black" d="M782.142,-359.697C782.142,-351.983 782.142,-342.712 782.142,-334.112"/>
<polygon fill="black" stroke="black" points="785.643,-334.104 782.142,-324.104 778.643,-334.104 785.643,-334.104"/>
</g>
<!-- Label0: Main@main -->
<g id="node24" class="node"><title>Label0: Main@main</title>
<ellipse fill="none" stroke="black" cx="85.1424" cy="-234" rx="85.2851" ry="18"/>
<text text-anchor="middle" x="85.1424" y="-230.3" font-family="Times,serif" font-size="14.00">Label0: Main@main</text>
</g>
<!-- StatLabel0&#45;&gt;Label0: Main@main -->
<g id="edge22" class="edge"><title>StatLabel0&#45;&gt;Label0: Main@main</title>
<path fill="none" stroke="black" d="M144.67,-289.116C134.815,-280.157 122.309,-268.788 111.306,-258.785"/>
<polygon fill="black" stroke="black" points="113.373,-255.934 103.62,-251.797 108.665,-261.114 113.373,-255.934"/>
</g>
<!-- ExpTemp2 -->
<g id="node28" class="node"><title>ExpTemp2</title>
<ellipse fill="none" stroke="black" cx="476.142" cy="-234" rx="50.0912" ry="18"/>
<text text-anchor="middle" x="476.142" y="-230.3" font-family="Times,serif" font-size="14.00">ExpTemp2</text>
</g>
<!-- StatMove1&#45;&gt;ExpTemp2 -->
<g id="edge25" class="edge"><title>StatMove1&#45;&gt;ExpTemp2</title>
<path fill="none" stroke="black" d="M572.567,-290.326C554.511,-279.965 530.117,-265.969 510.383,-254.646"/>
<polygon fill="black" stroke="black" points="512.1,-251.596 501.684,-249.655 508.616,-257.668 512.1,-251.596"/>
</g>
<!-- ExpName0 -->
<g id="node29" class="node"><title>ExpName0</title>
<ellipse fill="none" stroke="black" cx="598.142" cy="-234" rx="50.8918" ry="18"/>
<text text-anchor="middle" x="598.142" y="-230.3" font-family="Times,serif" font-size="14.00">ExpName0</text>
</g>
<!-- StatMove1&#45;&gt;ExpName0 -->
<g id="edge26" class="edge"><title>StatMove1&#45;&gt;ExpName0</title>
<path fill="none" stroke="black" d="M598.142,-287.697C598.142,-279.983 598.142,-270.712 598.142,-262.112"/>
<polygon fill="black" stroke="black" points="601.643,-262.104 598.142,-252.104 594.643,-262.104 601.643,-262.104"/>
</g>
<!-- StatMove2&#45;&gt;ExpConst0 -->
<g id="edge29" class="edge"><title>StatMove2&#45;&gt;ExpConst0</title>
<path fill="none" stroke="black" d="M796.362,-288.411C803.834,-279.693 813.132,-268.845 821.393,-259.208"/>
<polygon fill="black" stroke="black" points="824.175,-261.34 828.025,-251.47 818.86,-256.785 824.175,-261.34"/>
</g>
<!-- ExpTemp3 -->
<g id="node25" class="node"><title>ExpTemp3</title>
<ellipse fill="none" stroke="black" cx="723.142" cy="-234" rx="50.0912" ry="18"/>
<text text-anchor="middle" x="723.142" y="-230.3" font-family="Times,serif" font-size="14.00">ExpTemp3</text>
</g>
<!-- StatMove2&#45;&gt;ExpTemp3 -->
<g id="edge28" class="edge"><title>StatMove2&#45;&gt;ExpTemp3</title>
<path fill="none" stroke="black" d="M768.16,-288.411C760.813,-279.693 751.669,-268.845 743.546,-259.208"/>
<polygon fill="black" stroke="black" points="746.145,-256.861 737.024,-251.47 740.793,-261.372 746.145,-256.861"/>
</g>
<!-- Temp3: T2 -->
<g id="node26" class="node"><title>Temp3: T2</title>
<ellipse fill="none" stroke="black" cx="723.142" cy="-162" rx="50.8918" ry="18"/>
<text text-anchor="middle" x="723.142" y="-158.3" font-family="Times,serif" font-size="14.00">Temp3: T2</text>
</g>
<!-- ExpTemp3&#45;&gt;Temp3: T2 -->
<g id="edge23" class="edge"><title>ExpTemp3&#45;&gt;Temp3: T2</title>
<path fill="none" stroke="black" d="M723.142,-215.697C723.142,-207.983 723.142,-198.712 723.142,-190.112"/>
<polygon fill="black" stroke="black" points="726.643,-190.104 723.142,-180.104 719.643,-190.104 726.643,-190.104"/>
</g>
<!-- Temp2: T1 -->
<g id="node30" class="node"><title>Temp2: T1</title>
<ellipse fill="none" stroke="black" cx="473.142" cy="-162" rx="50.8918" ry="18"/>
<text text-anchor="middle" x="473.142" y="-158.3" font-family="Times,serif" font-size="14.00">Temp2: T1</text>
</g>
<!-- ExpTemp2&#45;&gt;Temp2: T1 -->
<g id="edge27" class="edge"><title>ExpTemp2&#45;&gt;Temp2: T1</title>
<path fill="none" stroke="black" d="M475.401,-215.697C475.07,-207.983 474.673,-198.712 474.304,-190.112"/>
<polygon fill="black" stroke="black" points="477.801,-189.945 473.875,-180.104 470.807,-190.245 477.801,-189.945"/>
</g>
<!-- Label1: print -->
<g id="node32" class="node"><title>Label1: print</title>
<ellipse fill="none" stroke="black" cx="598.142" cy="-162" rx="56.59" ry="18"/>
<text text-anchor="middle" x="598.142" y="-158.3" font-family="Times,serif" font-size="14.00">Label1: print</text>
</g>
<!-- ExpName0&#45;&gt;Label1: print -->
<g id="edge31" class="edge"><title>ExpName0&#45;&gt;Label1: print</title>
<path fill="none" stroke="black" d="M598.142,-215.697C598.142,-207.983 598.142,-198.712 598.142,-190.112"/>
<polygon fill="black" stroke="black" points="601.643,-190.104 598.142,-180.104 594.643,-190.104 601.643,-190.104"/>
</g>
</g>
</svg>
