<?xml version="1.0" encoding="UTF-8" standalone="no"?>
<!DOCTYPE svg PUBLIC "-//W3C//DTD SVG 1.1//EN"
 "http://www.w3.org/Graphics/SVG/1.1/DTD/svg11.dtd">
<!-- Generated by graphviz version 2.38.0 (20140413.2041)
 -->
<!-- Title: %3 Pages: 1 -->
<svg width="3354pt" height="404pt"
 viewBox="0.00 0.00 3354.34 404.00" xmlns="http://www.w3.org/2000/svg" xmlns:xlink="http://www.w3.org/1999/xlink">
<g id="graph0" class="graph" transform="scale(1 1) rotate(0) translate(4 400)">
<title>%3</title>
<polygon fill="white" stroke="none" points="-4,4 -4,-400 3350.34,-400 3350.34,4 -4,4"/>
<!-- StatExp0 -->
<g id="node1" class="node"><title>StatExp0</title>
<ellipse fill="none" stroke="black" cx="3140.09" cy="-306" rx="42.7926" ry="18"/>
<text text-anchor="middle" x="3140.09" y="-302.3" font-family="Times,serif" font-size="14.00">StatExp0</text>
</g>
<!-- ExpTemp19 -->
<g id="node2" class="node"><title>ExpTemp19</title>
<ellipse fill="none" stroke="black" cx="3235.09" cy="-234" rx="54.6905" ry="18"/>
<text text-anchor="middle" x="3235.09" y="-230.3" font-family="Times,serif" font-size="14.00">ExpTemp19</text>
</g>
<!-- StatExp0&#45;&gt;ExpTemp19 -->
<g id="edge1" class="edge"><title>StatExp0&#45;&gt;ExpTemp19</title>
<path fill="none" stroke="black" d="M3160.7,-289.811C3173.84,-280.13 3191.07,-267.435 3205.64,-256.7"/>
<polygon fill="black" stroke="black" points="3207.88,-259.394 3213.86,-250.644 3203.73,-253.758 3207.88,-259.394"/>
</g>
<!-- Temp19: T6 -->
<g id="node3" class="node"><title>Temp19: T6</title>
<ellipse fill="none" stroke="black" cx="3291.09" cy="-162" rx="55.4913" ry="18"/>
<text text-anchor="middle" x="3291.09" y="-158.3" font-family="Times,serif" font-size="14.00">Temp19: T6</text>
</g>
<!-- ExpTemp19&#45;&gt;Temp19: T6 -->
<g id="edge2" class="edge"><title>ExpTemp19&#45;&gt;Temp19: T6</title>
<path fill="none" stroke="black" d="M3248.36,-216.411C3255.17,-207.906 3263.59,-197.372 3271.16,-187.914"/>
<polygon fill="black" stroke="black" points="3274.01,-189.951 3277.52,-179.956 3268.54,-185.578 3274.01,-189.951"/>
</g>
<!-- ExpList2 -->
<g id="node4" class="node"><title>ExpList2</title>
<ellipse fill="none" stroke="black" cx="3175.09" cy="-162" rx="42.7926" ry="18"/>
<text text-anchor="middle" x="3175.09" y="-158.3" font-family="Times,serif" font-size="14.00">ExpList2</text>
</g>
<!-- ExpTemp18 -->
<g id="node5" class="node"><title>ExpTemp18</title>
<ellipse fill="none" stroke="black" cx="3183.09" cy="-90" rx="54.6905" ry="18"/>
<text text-anchor="middle" x="3183.09" y="-86.3" font-family="Times,serif" font-size="14.00">ExpTemp18</text>
</g>
<!-- ExpList2&#45;&gt;ExpTemp18 -->
<g id="edge3" class="edge"><title>ExpList2&#45;&gt;ExpTemp18</title>
<path fill="none" stroke="black" d="M3177.07,-143.697C3177.95,-135.983 3179.01,-126.712 3179.99,-118.112"/>
<polygon fill="black" stroke="black" points="3183.48,-118.437 3181.14,-108.104 3176.52,-117.642 3183.48,-118.437"/>
</g>
<!-- Temp18: T12 -->
<g id="node69" class="node"><title>Temp18: T12</title>
<ellipse fill="none" stroke="black" cx="3183.09" cy="-18" rx="59.5901" ry="18"/>
<text text-anchor="middle" x="3183.09" y="-14.3" font-family="Times,serif" font-size="14.00">Temp18: T12</text>
</g>
<!-- ExpTemp18&#45;&gt;Temp18: T12 -->
<g id="edge67" class="edge"><title>ExpTemp18&#45;&gt;Temp18: T12</title>
<path fill="none" stroke="black" d="M3183.09,-71.6966C3183.09,-63.9827 3183.09,-54.7125 3183.09,-46.1124"/>
<polygon fill="black" stroke="black" points="3186.59,-46.1043 3183.09,-36.1043 3179.59,-46.1044 3186.59,-46.1043"/>
</g>
<!-- StatMove9 -->
<g id="node6" class="node"><title>StatMove9</title>
<ellipse fill="none" stroke="black" cx="2935.09" cy="-306" rx="50.0912" ry="18"/>
<text text-anchor="middle" x="2935.09" y="-302.3" font-family="Times,serif" font-size="14.00">StatMove9</text>
</g>
<!-- ExpTemp17 -->
<g id="node7" class="node"><title>ExpTemp17</title>
<ellipse fill="none" stroke="black" cx="2935.09" cy="-234" rx="54.6905" ry="18"/>
<text text-anchor="middle" x="2935.09" y="-230.3" font-family="Times,serif" font-size="14.00">ExpTemp17</text>
</g>
<!-- StatMove9&#45;&gt;ExpTemp17 -->
<g id="edge4" class="edge"><title>StatMove9&#45;&gt;ExpTemp17</title>
<path fill="none" stroke="black" d="M2935.09,-287.697C2935.09,-279.983 2935.09,-270.712 2935.09,-262.112"/>
<polygon fill="black" stroke="black" points="2938.59,-262.104 2935.09,-252.104 2931.59,-262.104 2938.59,-262.104"/>
</g>
<!-- ExpCall2 -->
<g id="node8" class="node"><title>ExpCall2</title>
<ellipse fill="none" stroke="black" cx="3063.09" cy="-234" rx="44.393" ry="18"/>
<text text-anchor="middle" x="3063.09" y="-230.3" font-family="Times,serif" font-size="14.00">ExpCall2</text>
</g>
<!-- StatMove9&#45;&gt;ExpCall2 -->
<g id="edge5" class="edge"><title>StatMove9&#45;&gt;ExpCall2</title>
<path fill="none" stroke="black" d="M2961.3,-290.666C2980.8,-280.004 3007.58,-265.356 3028.78,-253.762"/>
<polygon fill="black" stroke="black" points="3030.69,-256.707 3037.79,-248.838 3027.33,-250.566 3030.69,-256.707"/>
</g>
<!-- Temp17: T13 -->
<g id="node27" class="node"><title>Temp17: T13</title>
<ellipse fill="none" stroke="black" cx="2935.09" cy="-162" rx="59.5901" ry="18"/>
<text text-anchor="middle" x="2935.09" y="-158.3" font-family="Times,serif" font-size="14.00">Temp17: T13</text>
</g>
<!-- ExpTemp17&#45;&gt;Temp17: T13 -->
<g id="edge20" class="edge"><title>ExpTemp17&#45;&gt;Temp17: T13</title>
<path fill="none" stroke="black" d="M2935.09,-215.697C2935.09,-207.983 2935.09,-198.712 2935.09,-190.112"/>
<polygon fill="black" stroke="black" points="2938.59,-190.104 2935.09,-180.104 2931.59,-190.104 2938.59,-190.104"/>
</g>
<!-- ExpCall2&#45;&gt;ExpList2 -->
<g id="edge14" class="edge"><title>ExpCall2&#45;&gt;ExpList2</title>
<path fill="none" stroke="black" d="M3086.3,-218.496C3102.82,-208.172 3125.21,-194.174 3143.38,-182.819"/>
<polygon fill="black" stroke="black" points="3145.29,-185.753 3151.91,-177.485 3141.58,-179.818 3145.29,-185.753"/>
</g>
<!-- ExpName2 -->
<g id="node19" class="node"><title>ExpName2</title>
<ellipse fill="none" stroke="black" cx="3063.09" cy="-162" rx="50.8918" ry="18"/>
<text text-anchor="middle" x="3063.09" y="-158.3" font-family="Times,serif" font-size="14.00">ExpName2</text>
</g>
<!-- ExpCall2&#45;&gt;ExpName2 -->
<g id="edge13" class="edge"><title>ExpCall2&#45;&gt;ExpName2</title>
<path fill="none" stroke="black" d="M3063.09,-215.697C3063.09,-207.983 3063.09,-198.712 3063.09,-190.112"/>
<polygon fill="black" stroke="black" points="3066.59,-190.104 3063.09,-180.104 3059.59,-190.104 3066.59,-190.104"/>
</g>
<!-- StatMove8 -->
<g id="node9" class="node"><title>StatMove8</title>
<ellipse fill="none" stroke="black" cx="2669.09" cy="-306" rx="50.0912" ry="18"/>
<text text-anchor="middle" x="2669.09" y="-302.3" font-family="Times,serif" font-size="14.00">StatMove8</text>
</g>
<!-- ExpTemp15 -->
<g id="node10" class="node"><title>ExpTemp15</title>
<ellipse fill="none" stroke="black" cx="2669.09" cy="-234" rx="54.6905" ry="18"/>
<text text-anchor="middle" x="2669.09" y="-230.3" font-family="Times,serif" font-size="14.00">ExpTemp15</text>
</g>
<!-- StatMove8&#45;&gt;ExpTemp15 -->
<g id="edge6" class="edge"><title>StatMove8&#45;&gt;ExpTemp15</title>
<path fill="none" stroke="black" d="M2669.09,-287.697C2669.09,-279.983 2669.09,-270.712 2669.09,-262.112"/>
<polygon fill="black" stroke="black" points="2672.59,-262.104 2669.09,-252.104 2665.59,-262.104 2672.59,-262.104"/>
</g>
<!-- ExpTemp16 -->
<g id="node11" class="node"><title>ExpTemp16</title>
<ellipse fill="none" stroke="black" cx="2799.09" cy="-234" rx="54.6905" ry="18"/>
<text text-anchor="middle" x="2799.09" y="-230.3" font-family="Times,serif" font-size="14.00">ExpTemp16</text>
</g>
<!-- StatMove8&#45;&gt;ExpTemp16 -->
<g id="edge7" class="edge"><title>StatMove8&#45;&gt;ExpTemp16</title>
<path fill="none" stroke="black" d="M2695.71,-290.666C2714.99,-280.282 2741.3,-266.119 2762.55,-254.677"/>
<polygon fill="black" stroke="black" points="2764.46,-257.62 2771.61,-249.798 2761.14,-251.457 2764.46,-257.62"/>
</g>
<!-- Temp15: T12 -->
<g id="node24" class="node"><title>Temp15: T12</title>
<ellipse fill="none" stroke="black" cx="2669.09" cy="-162" rx="59.5901" ry="18"/>
<text text-anchor="middle" x="2669.09" y="-158.3" font-family="Times,serif" font-size="14.00">Temp15: T12</text>
</g>
<!-- ExpTemp15&#45;&gt;Temp15: T12 -->
<g id="edge18" class="edge"><title>ExpTemp15&#45;&gt;Temp15: T12</title>
<path fill="none" stroke="black" d="M2669.09,-215.697C2669.09,-207.983 2669.09,-198.712 2669.09,-190.112"/>
<polygon fill="black" stroke="black" points="2672.59,-190.104 2669.09,-180.104 2665.59,-190.104 2672.59,-190.104"/>
</g>
<!-- Temp16: T5 -->
<g id="node12" class="node"><title>Temp16: T5</title>
<ellipse fill="none" stroke="black" cx="2802.09" cy="-162" rx="55.4913" ry="18"/>
<text text-anchor="middle" x="2802.09" y="-158.3" font-family="Times,serif" font-size="14.00">Temp16: T5</text>
</g>
<!-- ExpTemp16&#45;&gt;Temp16: T5 -->
<g id="edge8" class="edge"><title>ExpTemp16&#45;&gt;Temp16: T5</title>
<path fill="none" stroke="black" d="M2799.83,-215.697C2800.16,-207.983 2800.56,-198.712 2800.93,-190.112"/>
<polygon fill="black" stroke="black" points="2804.43,-190.245 2801.36,-180.104 2797.43,-189.945 2804.43,-190.245"/>
</g>
<!-- ExpTemp13 -->
<g id="node13" class="node"><title>ExpTemp13</title>
<ellipse fill="none" stroke="black" cx="2548.09" cy="-90" rx="54.6905" ry="18"/>
<text text-anchor="middle" x="2548.09" y="-86.3" font-family="Times,serif" font-size="14.00">ExpTemp13</text>
</g>
<!-- Temp13: T9 -->
<g id="node14" class="node"><title>Temp13: T9</title>
<ellipse fill="none" stroke="black" cx="2545.09" cy="-18" rx="55.4913" ry="18"/>
<text text-anchor="middle" x="2545.09" y="-14.3" font-family="Times,serif" font-size="14.00">Temp13: T9</text>
</g>
<!-- ExpTemp13&#45;&gt;Temp13: T9 -->
<g id="edge9" class="edge"><title>ExpTemp13&#45;&gt;Temp13: T9</title>
<path fill="none" stroke="black" d="M2547.35,-71.6966C2547.02,-63.9827 2546.62,-54.7125 2546.25,-46.1124"/>
<polygon fill="black" stroke="black" points="2549.75,-45.9453 2545.82,-36.1043 2542.75,-46.2451 2549.75,-45.9453"/>
</g>
<!-- ExpCall1 -->
<g id="node15" class="node"><title>ExpCall1</title>
<ellipse fill="none" stroke="black" cx="2436.09" cy="-234" rx="44.393" ry="18"/>
<text text-anchor="middle" x="2436.09" y="-230.3" font-family="Times,serif" font-size="14.00">ExpCall1</text>
</g>
<!-- ExpName1 -->
<g id="node16" class="node"><title>ExpName1</title>
<ellipse fill="none" stroke="black" cx="2436.09" cy="-162" rx="50.8918" ry="18"/>
<text text-anchor="middle" x="2436.09" y="-158.3" font-family="Times,serif" font-size="14.00">ExpName1</text>
</g>
<!-- ExpCall1&#45;&gt;ExpName1 -->
<g id="edge10" class="edge"><title>ExpCall1&#45;&gt;ExpName1</title>
<path fill="none" stroke="black" d="M2436.09,-215.697C2436.09,-207.983 2436.09,-198.712 2436.09,-190.112"/>
<polygon fill="black" stroke="black" points="2439.59,-190.104 2436.09,-180.104 2432.59,-190.104 2439.59,-190.104"/>
</g>
<!-- ExpList1 -->
<g id="node17" class="node"><title>ExpList1</title>
<ellipse fill="none" stroke="black" cx="2548.09" cy="-162" rx="42.7926" ry="18"/>
<text text-anchor="middle" x="2548.09" y="-158.3" font-family="Times,serif" font-size="14.00">ExpList1</text>
</g>
<!-- ExpCall1&#45;&gt;ExpList1 -->
<g id="edge11" class="edge"><title>ExpCall1&#45;&gt;ExpList1</title>
<path fill="none" stroke="black" d="M2459.3,-218.496C2475.82,-208.172 2498.21,-194.174 2516.38,-182.819"/>
<polygon fill="black" stroke="black" points="2518.29,-185.753 2524.91,-177.485 2514.58,-179.818 2518.29,-185.753"/>
</g>
<!-- Label2: LS@Start -->
<g id="node18" class="node"><title>Label2: LS@Start</title>
<ellipse fill="none" stroke="black" cx="2400.09" cy="-90" rx="75.2868" ry="18"/>
<text text-anchor="middle" x="2400.09" y="-86.3" font-family="Times,serif" font-size="14.00">Label2: LS@Start</text>
</g>
<!-- ExpName1&#45;&gt;Label2: LS@Start -->
<g id="edge12" class="edge"><title>ExpName1&#45;&gt;Label2: LS@Start</title>
<path fill="none" stroke="black" d="M2427.38,-144.055C2423.24,-136.007 2418.2,-126.205 2413.58,-117.226"/>
<polygon fill="black" stroke="black" points="2416.66,-115.567 2408.97,-108.275 2410.44,-118.769 2416.66,-115.567"/>
</g>
<!-- ExpList1&#45;&gt;ExpTemp13 -->
<g id="edge58" class="edge"><title>ExpList1&#45;&gt;ExpTemp13</title>
<path fill="none" stroke="black" d="M2548.09,-143.697C2548.09,-135.983 2548.09,-126.712 2548.09,-118.112"/>
<polygon fill="black" stroke="black" points="2551.59,-118.104 2548.09,-108.104 2544.59,-118.104 2551.59,-118.104"/>
</g>
<!-- ExpTemp14 -->
<g id="node51" class="node"><title>ExpTemp14</title>
<ellipse fill="none" stroke="black" cx="2677.09" cy="-90" rx="54.6905" ry="18"/>
<text text-anchor="middle" x="2677.09" y="-86.3" font-family="Times,serif" font-size="14.00">ExpTemp14</text>
</g>
<!-- ExpList1&#45;&gt;ExpTemp14 -->
<g id="edge59" class="edge"><title>ExpList1&#45;&gt;ExpTemp14</title>
<path fill="none" stroke="black" d="M2573.27,-147.337C2592.52,-136.893 2619.32,-122.349 2640.87,-110.656"/>
<polygon fill="black" stroke="black" points="2642.62,-113.684 2649.74,-105.839 2639.29,-107.532 2642.62,-113.684"/>
</g>
<!-- Label3: print -->
<g id="node50" class="node"><title>Label3: print</title>
<ellipse fill="none" stroke="black" cx="3054.09" cy="-90" rx="56.59" ry="18"/>
<text text-anchor="middle" x="3054.09" y="-86.3" font-family="Times,serif" font-size="14.00">Label3: print</text>
</g>
<!-- ExpName2&#45;&gt;Label3: print -->
<g id="edge44" class="edge"><title>ExpName2&#45;&gt;Label3: print</title>
<path fill="none" stroke="black" d="M3060.87,-143.697C3059.87,-135.983 3058.68,-126.712 3057.58,-118.112"/>
<polygon fill="black" stroke="black" points="3061.04,-117.576 3056.29,-108.104 3054.09,-118.469 3061.04,-117.576"/>
</g>
<!-- ExpConst2 -->
<g id="node20" class="node"><title>ExpConst2</title>
<ellipse fill="none" stroke="black" cx="2177.09" cy="-234" rx="50.0912" ry="18"/>
<text text-anchor="middle" x="2177.09" y="-230.3" font-family="Times,serif" font-size="14.00">ExpConst2</text>
</g>
<!-- Value2: 10 -->
<g id="node21" class="node"><title>Value2: 10</title>
<ellipse fill="none" stroke="black" cx="2180.09" cy="-162" rx="50.0912" ry="18"/>
<text text-anchor="middle" x="2180.09" y="-158.3" font-family="Times,serif" font-size="14.00">Value2: 10</text>
</g>
<!-- ExpConst2&#45;&gt;Value2: 10 -->
<g id="edge15" class="edge"><title>ExpConst2&#45;&gt;Value2: 10</title>
<path fill="none" stroke="black" d="M2177.83,-215.697C2178.16,-207.983 2178.56,-198.712 2178.93,-190.112"/>
<polygon fill="black" stroke="black" points="2182.43,-190.245 2179.36,-180.104 2175.43,-189.945 2182.43,-190.245"/>
</g>
<!-- StatMove6 -->
<g id="node22" class="node"><title>StatMove6</title>
<ellipse fill="none" stroke="black" cx="2052.09" cy="-306" rx="50.0912" ry="18"/>
<text text-anchor="middle" x="2052.09" y="-302.3" font-family="Times,serif" font-size="14.00">StatMove6</text>
</g>
<!-- StatMove6&#45;&gt;ExpConst2 -->
<g id="edge17" class="edge"><title>StatMove6&#45;&gt;ExpConst2</title>
<path fill="none" stroke="black" d="M2077.99,-290.496C2096.59,-280.078 2121.88,-265.919 2142.25,-254.51"/>
<polygon fill="black" stroke="black" points="2144.21,-257.425 2151.22,-249.485 2140.79,-251.318 2144.21,-257.425"/>
</g>
<!-- ExpTemp11 -->
<g id="node23" class="node"><title>ExpTemp11</title>
<ellipse fill="none" stroke="black" cx="2052.09" cy="-234" rx="54.6905" ry="18"/>
<text text-anchor="middle" x="2052.09" y="-230.3" font-family="Times,serif" font-size="14.00">ExpTemp11</text>
</g>
<!-- StatMove6&#45;&gt;ExpTemp11 -->
<g id="edge16" class="edge"><title>StatMove6&#45;&gt;ExpTemp11</title>
<path fill="none" stroke="black" d="M2052.09,-287.697C2052.09,-279.983 2052.09,-270.712 2052.09,-262.112"/>
<polygon fill="black" stroke="black" points="2055.59,-262.104 2052.09,-252.104 2048.59,-262.104 2055.59,-262.104"/>
</g>
<!-- Temp11: T10 -->
<g id="node57" class="node"><title>Temp11: T10</title>
<ellipse fill="none" stroke="black" cx="2052.09" cy="-162" rx="59.5901" ry="18"/>
<text text-anchor="middle" x="2052.09" y="-158.3" font-family="Times,serif" font-size="14.00">Temp11: T10</text>
</g>
<!-- ExpTemp11&#45;&gt;Temp11: T10 -->
<g id="edge49" class="edge"><title>ExpTemp11&#45;&gt;Temp11: T10</title>
<path fill="none" stroke="black" d="M2052.09,-215.697C2052.09,-207.983 2052.09,-198.712 2052.09,-190.112"/>
<polygon fill="black" stroke="black" points="2055.59,-190.104 2052.09,-180.104 2048.59,-190.104 2055.59,-190.104"/>
</g>
<!-- ExpList0 -->
<g id="node25" class="node"><title>ExpList0</title>
<ellipse fill="none" stroke="black" cx="1931.09" cy="-162" rx="42.7926" ry="18"/>
<text text-anchor="middle" x="1931.09" y="-158.3" font-family="Times,serif" font-size="14.00">ExpList0</text>
</g>
<!-- ExpTemp10 -->
<g id="node26" class="node"><title>ExpTemp10</title>
<ellipse fill="none" stroke="black" cx="1944.09" cy="-90" rx="54.6905" ry="18"/>
<text text-anchor="middle" x="1944.09" y="-86.3" font-family="Times,serif" font-size="14.00">ExpTemp10</text>
</g>
<!-- ExpList0&#45;&gt;ExpTemp10 -->
<g id="edge19" class="edge"><title>ExpList0&#45;&gt;ExpTemp10</title>
<path fill="none" stroke="black" d="M1934.3,-143.697C1935.74,-135.983 1937.46,-126.712 1939.05,-118.112"/>
<polygon fill="black" stroke="black" points="1942.53,-118.575 1940.91,-108.104 1935.65,-117.297 1942.53,-118.575"/>
</g>
<!-- Temp10: T7 -->
<g id="node33" class="node"><title>Temp10: T7</title>
<ellipse fill="none" stroke="black" cx="1944.09" cy="-18" rx="55.4913" ry="18"/>
<text text-anchor="middle" x="1944.09" y="-14.3" font-family="Times,serif" font-size="14.00">Temp10: T7</text>
</g>
<!-- ExpTemp10&#45;&gt;Temp10: T7 -->
<g id="edge25" class="edge"><title>ExpTemp10&#45;&gt;Temp10: T7</title>
<path fill="none" stroke="black" d="M1944.09,-71.6966C1944.09,-63.9827 1944.09,-54.7125 1944.09,-46.1124"/>
<polygon fill="black" stroke="black" points="1947.59,-46.1043 1944.09,-36.1043 1940.59,-46.1044 1947.59,-46.1043"/>
</g>
<!-- ExpCall0 -->
<g id="node28" class="node"><title>ExpCall0</title>
<ellipse fill="none" stroke="black" cx="1819.09" cy="-234" rx="44.393" ry="18"/>
<text text-anchor="middle" x="1819.09" y="-230.3" font-family="Times,serif" font-size="14.00">ExpCall0</text>
</g>
<!-- ExpCall0&#45;&gt;ExpList0 -->
<g id="edge22" class="edge"><title>ExpCall0&#45;&gt;ExpList0</title>
<path fill="none" stroke="black" d="M1842.3,-218.496C1858.82,-208.172 1881.21,-194.174 1899.38,-182.819"/>
<polygon fill="black" stroke="black" points="1901.29,-185.753 1907.91,-177.485 1897.58,-179.818 1901.29,-185.753"/>
</g>
<!-- ExpName0 -->
<g id="node29" class="node"><title>ExpName0</title>
<ellipse fill="none" stroke="black" cx="1819.09" cy="-162" rx="50.8918" ry="18"/>
<text text-anchor="middle" x="1819.09" y="-158.3" font-family="Times,serif" font-size="14.00">ExpName0</text>
</g>
<!-- ExpCall0&#45;&gt;ExpName0 -->
<g id="edge21" class="edge"><title>ExpCall0&#45;&gt;ExpName0</title>
<path fill="none" stroke="black" d="M1819.09,-215.697C1819.09,-207.983 1819.09,-198.712 1819.09,-190.112"/>
<polygon fill="black" stroke="black" points="1822.59,-190.104 1819.09,-180.104 1815.59,-190.104 1822.59,-190.104"/>
</g>
<!-- Label1: malloc -->
<g id="node61" class="node"><title>Label1: malloc</title>
<ellipse fill="none" stroke="black" cx="1807.09" cy="-90" rx="64.189" ry="18"/>
<text text-anchor="middle" x="1807.09" y="-86.3" font-family="Times,serif" font-size="14.00">Label1: malloc</text>
</g>
<!-- ExpName0&#45;&gt;Label1: malloc -->
<g id="edge54" class="edge"><title>ExpName0&#45;&gt;Label1: malloc</title>
<path fill="none" stroke="black" d="M1816.12,-143.697C1814.8,-135.983 1813.21,-126.712 1811.74,-118.112"/>
<polygon fill="black" stroke="black" points="1815.16,-117.369 1810.02,-108.104 1808.26,-118.552 1815.16,-117.369"/>
</g>
<!-- StatMove2 -->
<g id="node30" class="node"><title>StatMove2</title>
<ellipse fill="none" stroke="black" cx="893.09" cy="-306" rx="50.0912" ry="18"/>
<text text-anchor="middle" x="893.09" y="-302.3" font-family="Times,serif" font-size="14.00">StatMove2</text>
</g>
<!-- ExpTemp4 -->
<g id="node31" class="node"><title>ExpTemp4</title>
<ellipse fill="none" stroke="black" cx="774.09" cy="-234" rx="50.0912" ry="18"/>
<text text-anchor="middle" x="774.09" y="-230.3" font-family="Times,serif" font-size="14.00">ExpTemp4</text>
</g>
<!-- StatMove2&#45;&gt;ExpTemp4 -->
<g id="edge23" class="edge"><title>StatMove2&#45;&gt;ExpTemp4</title>
<path fill="none" stroke="black" d="M868.144,-290.326C850.611,-280.012 826.952,-266.095 807.749,-254.8"/>
<polygon fill="black" stroke="black" points="809.397,-251.708 799.003,-249.655 805.848,-257.742 809.397,-251.708"/>
</g>
<!-- ExpTemp5 -->
<g id="node32" class="node"><title>ExpTemp5</title>
<ellipse fill="none" stroke="black" cx="893.09" cy="-234" rx="50.0912" ry="18"/>
<text text-anchor="middle" x="893.09" y="-230.3" font-family="Times,serif" font-size="14.00">ExpTemp5</text>
</g>
<!-- StatMove2&#45;&gt;ExpTemp5 -->
<g id="edge24" class="edge"><title>StatMove2&#45;&gt;ExpTemp5</title>
<path fill="none" stroke="black" d="M893.09,-287.697C893.09,-279.983 893.09,-270.712 893.09,-262.112"/>
<polygon fill="black" stroke="black" points="896.59,-262.104 893.09,-252.104 889.59,-262.104 896.59,-262.104"/>
</g>
<!-- Temp4: T9 -->
<g id="node59" class="node"><title>Temp4: T9</title>
<ellipse fill="none" stroke="black" cx="774.09" cy="-162" rx="50.8918" ry="18"/>
<text text-anchor="middle" x="774.09" y="-158.3" font-family="Times,serif" font-size="14.00">Temp4: T9</text>
</g>
<!-- ExpTemp4&#45;&gt;Temp4: T9 -->
<g id="edge52" class="edge"><title>ExpTemp4&#45;&gt;Temp4: T9</title>
<path fill="none" stroke="black" d="M774.09,-215.697C774.09,-207.983 774.09,-198.712 774.09,-190.112"/>
<polygon fill="black" stroke="black" points="777.59,-190.104 774.09,-180.104 770.59,-190.104 777.59,-190.104"/>
</g>
<!-- Temp5: T4 -->
<g id="node54" class="node"><title>Temp5: T4</title>
<ellipse fill="none" stroke="black" cx="893.09" cy="-162" rx="50.8918" ry="18"/>
<text text-anchor="middle" x="893.09" y="-158.3" font-family="Times,serif" font-size="14.00">Temp5: T4</text>
</g>
<!-- ExpTemp5&#45;&gt;Temp5: T4 -->
<g id="edge47" class="edge"><title>ExpTemp5&#45;&gt;Temp5: T4</title>
<path fill="none" stroke="black" d="M893.09,-215.697C893.09,-207.983 893.09,-198.712 893.09,-190.112"/>
<polygon fill="black" stroke="black" points="896.59,-190.104 893.09,-180.104 889.59,-190.104 896.59,-190.104"/>
</g>
<!-- ExpTemp2 -->
<g id="node34" class="node"><title>ExpTemp2</title>
<ellipse fill="none" stroke="black" cx="534.09" cy="-234" rx="50.0912" ry="18"/>
<text text-anchor="middle" x="534.09" y="-230.3" font-family="Times,serif" font-size="14.00">ExpTemp2</text>
</g>
<!-- Temp2: T11 -->
<g id="node35" class="node"><title>Temp2: T11</title>
<ellipse fill="none" stroke="black" cx="531.09" cy="-162" rx="55.4913" ry="18"/>
<text text-anchor="middle" x="531.09" y="-158.3" font-family="Times,serif" font-size="14.00">Temp2: T11</text>
</g>
<!-- ExpTemp2&#45;&gt;Temp2: T11 -->
<g id="edge26" class="edge"><title>ExpTemp2&#45;&gt;Temp2: T11</title>
<path fill="none" stroke="black" d="M533.348,-215.697C533.018,-207.983 532.62,-198.712 532.252,-190.112"/>
<polygon fill="black" stroke="black" points="535.748,-189.945 531.823,-180.104 528.754,-190.245 535.748,-189.945"/>
</g>
<!-- ExpTemp3 -->
<g id="node36" class="node"><title>ExpTemp3</title>
<ellipse fill="none" stroke="black" cx="655.09" cy="-234" rx="50.0912" ry="18"/>
<text text-anchor="middle" x="655.09" y="-230.3" font-family="Times,serif" font-size="14.00">ExpTemp3</text>
</g>
<!-- Temp3: T5 -->
<g id="node37" class="node"><title>Temp3: T5</title>
<ellipse fill="none" stroke="black" cx="655.09" cy="-162" rx="50.8918" ry="18"/>
<text text-anchor="middle" x="655.09" y="-158.3" font-family="Times,serif" font-size="14.00">Temp3: T5</text>
</g>
<!-- ExpTemp3&#45;&gt;Temp3: T5 -->
<g id="edge27" class="edge"><title>ExpTemp3&#45;&gt;Temp3: T5</title>
<path fill="none" stroke="black" d="M655.09,-215.697C655.09,-207.983 655.09,-198.712 655.09,-190.112"/>
<polygon fill="black" stroke="black" points="658.59,-190.104 655.09,-180.104 651.59,-190.104 658.59,-190.104"/>
</g>
<!-- StatLabel0 -->
<g id="node38" class="node"><title>StatLabel0</title>
<ellipse fill="none" stroke="black" cx="204.09" cy="-306" rx="48.9926" ry="18"/>
<text text-anchor="middle" x="204.09" y="-302.3" font-family="Times,serif" font-size="14.00">StatLabel0</text>
</g>
<!-- Label0: LinearSearch@main -->
<g id="node39" class="node"><title>Label0: LinearSearch@main</title>
<ellipse fill="none" stroke="black" cx="113.09" cy="-234" rx="113.18" ry="18"/>
<text text-anchor="middle" x="113.09" y="-230.3" font-family="Times,serif" font-size="14.00">Label0: LinearSearch@main</text>
</g>
<!-- StatLabel0&#45;&gt;Label0: LinearSearch@main -->
<g id="edge28" class="edge"><title>StatLabel0&#45;&gt;Label0: LinearSearch@main</title>
<path fill="none" stroke="black" d="M183.894,-289.465C171.839,-280.192 156.31,-268.246 142.868,-257.906"/>
<polygon fill="black" stroke="black" points="144.878,-255.037 134.818,-251.714 140.61,-260.585 144.878,-255.037"/>
</g>
<!-- StatList0 -->
<g id="node40" class="node"><title>StatList0</title>
<ellipse fill="none" stroke="black" cx="1587.09" cy="-378" rx="42.4939" ry="18"/>
<text text-anchor="middle" x="1587.09" y="-374.3" font-family="Times,serif" font-size="14.00">StatList0</text>
</g>
<!-- StatList0&#45;&gt;StatExp0 -->
<g id="edge40" class="edge"><title>StatList0&#45;&gt;StatExp0</title>
<path fill="none" stroke="black" d="M1629.46,-376.613C1800.47,-374.798 2456.37,-365.369 2994.09,-324 3026.04,-321.542 3061.78,-317.405 3089.9,-313.827"/>
<polygon fill="black" stroke="black" points="3090.42,-317.289 3099.89,-312.539 3089.53,-310.346 3090.42,-317.289"/>
</g>
<!-- StatList0&#45;&gt;StatMove9 -->
<g id="edge39" class="edge"><title>StatList0&#45;&gt;StatMove9</title>
<path fill="none" stroke="black" d="M1629.08,-375.588C1778.62,-370.447 2299.15,-351.567 2728.09,-324 2778.35,-320.77 2835.38,-316.005 2876.83,-312.34"/>
<polygon fill="black" stroke="black" points="2877.37,-315.806 2887.02,-311.434 2876.75,-308.834 2877.37,-315.806"/>
</g>
<!-- StatList0&#45;&gt;StatMove8 -->
<g id="edge38" class="edge"><title>StatList0&#45;&gt;StatMove8</title>
<path fill="none" stroke="black" d="M1628.51,-374.32C1794.93,-363.554 2415.25,-323.422 2610.12,-310.815"/>
<polygon fill="black" stroke="black" points="2610.41,-314.304 2620.17,-310.165 2609.96,-307.318 2610.41,-314.304"/>
</g>
<!-- StatList0&#45;&gt;StatMove6 -->
<g id="edge36" class="edge"><title>StatList0&#45;&gt;StatMove6</title>
<path fill="none" stroke="black" d="M1626.33,-371.092C1709.04,-358.642 1901.45,-329.677 1996.67,-315.342"/>
<polygon fill="black" stroke="black" points="1997.32,-318.785 2006.69,-313.835 1996.28,-311.863 1997.32,-318.785"/>
</g>
<!-- StatList0&#45;&gt;StatMove2 -->
<g id="edge32" class="edge"><title>StatList0&#45;&gt;StatMove2</title>
<path fill="none" stroke="black" d="M1546.52,-372.908C1428.98,-361.052 1087.85,-326.645 950.948,-312.836"/>
<polygon fill="black" stroke="black" points="950.973,-309.321 940.672,-311.799 950.27,-316.285 950.973,-309.321"/>
</g>
<!-- StatList0&#45;&gt;StatLabel0 -->
<g id="edge29" class="edge"><title>StatList0&#45;&gt;StatLabel0</title>
<path fill="none" stroke="black" d="M1544.94,-376.269C1387.59,-373.313 819.659,-360.59 353.09,-324 321.997,-321.562 287.379,-317.683 259.341,-314.246"/>
<polygon fill="black" stroke="black" points="259.683,-310.762 249.328,-313.003 258.821,-317.708 259.683,-310.762"/>
</g>
<!-- StatMove0 -->
<g id="node41" class="node"><title>StatMove0</title>
<ellipse fill="none" stroke="black" cx="412.09" cy="-306" rx="50.0912" ry="18"/>
<text text-anchor="middle" x="412.09" y="-302.3" font-family="Times,serif" font-size="14.00">StatMove0</text>
</g>
<!-- StatList0&#45;&gt;StatMove0 -->
<g id="edge30" class="edge"><title>StatList0&#45;&gt;StatMove0</title>
<path fill="none" stroke="black" d="M1545.04,-375.334C1408.21,-369.789 963.394,-350.78 596.09,-324 553.865,-320.921 506.275,-316.499 470.075,-312.937"/>
<polygon fill="black" stroke="black" points="470,-309.412 459.703,-311.909 469.309,-316.378 470,-309.412"/>
</g>
<!-- StatMove1 -->
<g id="node42" class="node"><title>StatMove1</title>
<ellipse fill="none" stroke="black" cx="655.09" cy="-306" rx="50.0912" ry="18"/>
<text text-anchor="middle" x="655.09" y="-302.3" font-family="Times,serif" font-size="14.00">StatMove1</text>
</g>
<!-- StatList0&#45;&gt;StatMove1 -->
<g id="edge31" class="edge"><title>StatList0&#45;&gt;StatMove1</title>
<path fill="none" stroke="black" d="M1545.43,-374.426C1431.49,-367.309 1105.1,-346.403 834.09,-324 793.458,-320.641 747.694,-316.285 712.61,-312.823"/>
<polygon fill="black" stroke="black" points="712.845,-309.329 702.548,-311.826 712.154,-316.295 712.845,-309.329"/>
</g>
<!-- StatMove3 -->
<g id="node43" class="node"><title>StatMove3</title>
<ellipse fill="none" stroke="black" cx="1131.09" cy="-306" rx="50.0912" ry="18"/>
<text text-anchor="middle" x="1131.09" y="-302.3" font-family="Times,serif" font-size="14.00">StatMove3</text>
</g>
<!-- StatList0&#45;&gt;StatMove3 -->
<g id="edge33" class="edge"><title>StatList0&#45;&gt;StatMove3</title>
<path fill="none" stroke="black" d="M1547.82,-370.971C1466.5,-358.489 1279.53,-329.787 1186.19,-315.459"/>
<polygon fill="black" stroke="black" points="1186.52,-311.968 1176.1,-313.91 1185.46,-318.887 1186.52,-311.968"/>
</g>
<!-- StatMove4 -->
<g id="node44" class="node"><title>StatMove4</title>
<ellipse fill="none" stroke="black" cx="1475.09" cy="-306" rx="50.0912" ry="18"/>
<text text-anchor="middle" x="1475.09" y="-302.3" font-family="Times,serif" font-size="14.00">StatMove4</text>
</g>
<!-- StatList0&#45;&gt;StatMove4 -->
<g id="edge34" class="edge"><title>StatList0&#45;&gt;StatMove4</title>
<path fill="none" stroke="black" d="M1564.15,-362.666C1547.88,-352.491 1525.79,-338.686 1507.68,-327.37"/>
<polygon fill="black" stroke="black" points="1509.49,-324.373 1499.16,-322.041 1505.78,-330.309 1509.49,-324.373"/>
</g>
<!-- StatMove5 -->
<g id="node45" class="node"><title>StatMove5</title>
<ellipse fill="none" stroke="black" cx="1700.09" cy="-306" rx="50.0912" ry="18"/>
<text text-anchor="middle" x="1700.09" y="-302.3" font-family="Times,serif" font-size="14.00">StatMove5</text>
</g>
<!-- StatList0&#45;&gt;StatMove5 -->
<g id="edge35" class="edge"><title>StatList0&#45;&gt;StatMove5</title>
<path fill="none" stroke="black" d="M1609.96,-362.834C1626.47,-352.604 1649.02,-338.639 1667.43,-327.234"/>
<polygon fill="black" stroke="black" points="1669.43,-330.111 1676.09,-321.869 1665.74,-324.16 1669.43,-330.111"/>
</g>
<!-- StatMove7 -->
<g id="node46" class="node"><title>StatMove7</title>
<ellipse fill="none" stroke="black" cx="2308.09" cy="-306" rx="50.0912" ry="18"/>
<text text-anchor="middle" x="2308.09" y="-302.3" font-family="Times,serif" font-size="14.00">StatMove7</text>
</g>
<!-- StatList0&#45;&gt;StatMove7 -->
<g id="edge37" class="edge"><title>StatList0&#45;&gt;StatMove7</title>
<path fill="none" stroke="black" d="M1627.92,-373.036C1749.4,-361.242 2108.85,-326.344 2250.13,-312.627"/>
<polygon fill="black" stroke="black" points="2250.71,-316.088 2260.32,-311.638 2250.03,-309.121 2250.71,-316.088"/>
</g>
<!-- ExpTemp0 -->
<g id="node47" class="node"><title>ExpTemp0</title>
<ellipse fill="none" stroke="black" cx="294.09" cy="-234" rx="50.0912" ry="18"/>
<text text-anchor="middle" x="294.09" y="-230.3" font-family="Times,serif" font-size="14.00">ExpTemp0</text>
</g>
<!-- StatMove0&#45;&gt;ExpTemp0 -->
<g id="edge42" class="edge"><title>StatMove0&#45;&gt;ExpTemp0</title>
<path fill="none" stroke="black" d="M387.353,-290.326C369.968,-280.012 346.508,-266.095 327.467,-254.8"/>
<polygon fill="black" stroke="black" points="329.18,-251.747 318.794,-249.655 325.609,-257.767 329.18,-251.747"/>
</g>
<!-- ExpTemp1 -->
<g id="node49" class="node"><title>ExpTemp1</title>
<ellipse fill="none" stroke="black" cx="412.09" cy="-234" rx="50.0912" ry="18"/>
<text text-anchor="middle" x="412.09" y="-230.3" font-family="Times,serif" font-size="14.00">ExpTemp1</text>
</g>
<!-- StatMove0&#45;&gt;ExpTemp1 -->
<g id="edge43" class="edge"><title>StatMove0&#45;&gt;ExpTemp1</title>
<path fill="none" stroke="black" d="M412.09,-287.697C412.09,-279.983 412.09,-270.712 412.09,-262.112"/>
<polygon fill="black" stroke="black" points="415.59,-262.104 412.09,-252.104 408.59,-262.104 415.59,-262.104"/>
</g>
<!-- StatMove1&#45;&gt;ExpTemp2 -->
<g id="edge55" class="edge"><title>StatMove1&#45;&gt;ExpTemp2</title>
<path fill="none" stroke="black" d="M629.724,-290.326C611.897,-280.012 587.84,-266.095 568.315,-254.8"/>
<polygon fill="black" stroke="black" points="569.831,-251.633 559.422,-249.655 566.325,-257.692 569.831,-251.633"/>
</g>
<!-- StatMove1&#45;&gt;ExpTemp3 -->
<g id="edge56" class="edge"><title>StatMove1&#45;&gt;ExpTemp3</title>
<path fill="none" stroke="black" d="M655.09,-287.697C655.09,-279.983 655.09,-270.712 655.09,-262.112"/>
<polygon fill="black" stroke="black" points="658.59,-262.104 655.09,-252.104 651.59,-262.104 658.59,-262.104"/>
</g>
<!-- ExpTemp6 -->
<g id="node55" class="node"><title>ExpTemp6</title>
<ellipse fill="none" stroke="black" cx="1012.09" cy="-234" rx="50.0912" ry="18"/>
<text text-anchor="middle" x="1012.09" y="-230.3" font-family="Times,serif" font-size="14.00">ExpTemp6</text>
</g>
<!-- StatMove3&#45;&gt;ExpTemp6 -->
<g id="edge50" class="edge"><title>StatMove3&#45;&gt;ExpTemp6</title>
<path fill="none" stroke="black" d="M1106.14,-290.326C1088.61,-280.012 1064.95,-266.095 1045.75,-254.8"/>
<polygon fill="black" stroke="black" points="1047.4,-251.708 1037,-249.655 1043.85,-257.742 1047.4,-251.708"/>
</g>
<!-- ExpTemp7 -->
<g id="node58" class="node"><title>ExpTemp7</title>
<ellipse fill="none" stroke="black" cx="1131.09" cy="-234" rx="50.0912" ry="18"/>
<text text-anchor="middle" x="1131.09" y="-230.3" font-family="Times,serif" font-size="14.00">ExpTemp7</text>
</g>
<!-- StatMove3&#45;&gt;ExpTemp7 -->
<g id="edge51" class="edge"><title>StatMove3&#45;&gt;ExpTemp7</title>
<path fill="none" stroke="black" d="M1131.09,-287.697C1131.09,-279.983 1131.09,-270.712 1131.09,-262.112"/>
<polygon fill="black" stroke="black" points="1134.59,-262.104 1131.09,-252.104 1127.59,-262.104 1134.59,-262.104"/>
</g>
<!-- ExpTemp8 -->
<g id="node62" class="node"><title>ExpTemp8</title>
<ellipse fill="none" stroke="black" cx="1302.09" cy="-234" rx="50.0912" ry="18"/>
<text text-anchor="middle" x="1302.09" y="-230.3" font-family="Times,serif" font-size="14.00">ExpTemp8</text>
</g>
<!-- StatMove4&#45;&gt;ExpTemp8 -->
<g id="edge62" class="edge"><title>StatMove4&#45;&gt;ExpTemp8</title>
<path fill="none" stroke="black" d="M1442.96,-291.998C1414.92,-280.652 1374.06,-264.121 1343.56,-251.78"/>
<polygon fill="black" stroke="black" points="1344.64,-248.439 1334.05,-247.933 1342.01,-254.928 1344.64,-248.439"/>
</g>
<!-- ExpBinary0 -->
<g id="node65" class="node"><title>ExpBinary0</title>
<ellipse fill="none" stroke="black" cx="1475.09" cy="-234" rx="53.0913" ry="18"/>
<text text-anchor="middle" x="1475.09" y="-230.3" font-family="Times,serif" font-size="14.00">ExpBinary0</text>
</g>
<!-- StatMove4&#45;&gt;ExpBinary0 -->
<g id="edge63" class="edge"><title>StatMove4&#45;&gt;ExpBinary0</title>
<path fill="none" stroke="black" d="M1475.09,-287.697C1475.09,-279.983 1475.09,-270.712 1475.09,-262.112"/>
<polygon fill="black" stroke="black" points="1478.59,-262.104 1475.09,-252.104 1471.59,-262.104 1478.59,-262.104"/>
</g>
<!-- StatMove5&#45;&gt;ExpCall0 -->
<g id="edge66" class="edge"><title>StatMove5&#45;&gt;ExpCall0</title>
<path fill="none" stroke="black" d="M1725.04,-290.326C1742.8,-279.874 1766.86,-265.721 1786.2,-254.346"/>
<polygon fill="black" stroke="black" points="1788.14,-257.264 1794.99,-249.177 1784.6,-251.23 1788.14,-257.264"/>
</g>
<!-- ExpTemp9 -->
<g id="node68" class="node"><title>ExpTemp9</title>
<ellipse fill="none" stroke="black" cx="1700.09" cy="-234" rx="50.0912" ry="18"/>
<text text-anchor="middle" x="1700.09" y="-230.3" font-family="Times,serif" font-size="14.00">ExpTemp9</text>
</g>
<!-- StatMove5&#45;&gt;ExpTemp9 -->
<g id="edge65" class="edge"><title>StatMove5&#45;&gt;ExpTemp9</title>
<path fill="none" stroke="black" d="M1700.09,-287.697C1700.09,-279.983 1700.09,-270.712 1700.09,-262.112"/>
<polygon fill="black" stroke="black" points="1703.59,-262.104 1700.09,-252.104 1696.59,-262.104 1703.59,-262.104"/>
</g>
<!-- StatMove7&#45;&gt;ExpCall1 -->
<g id="edge61" class="edge"><title>StatMove7&#45;&gt;ExpCall1</title>
<path fill="none" stroke="black" d="M2334.3,-290.666C2353.8,-280.004 2380.58,-265.356 2401.78,-253.762"/>
<polygon fill="black" stroke="black" points="2403.69,-256.707 2410.79,-248.838 2400.33,-250.566 2403.69,-256.707"/>
</g>
<!-- ExpTemp12 -->
<g id="node64" class="node"><title>ExpTemp12</title>
<ellipse fill="none" stroke="black" cx="2308.09" cy="-234" rx="54.6905" ry="18"/>
<text text-anchor="middle" x="2308.09" y="-230.3" font-family="Times,serif" font-size="14.00">ExpTemp12</text>
</g>
<!-- StatMove7&#45;&gt;ExpTemp12 -->
<g id="edge60" class="edge"><title>StatMove7&#45;&gt;ExpTemp12</title>
<path fill="none" stroke="black" d="M2308.09,-287.697C2308.09,-279.983 2308.09,-270.712 2308.09,-262.112"/>
<polygon fill="black" stroke="black" points="2311.59,-262.104 2308.09,-252.104 2304.59,-262.104 2311.59,-262.104"/>
</g>
<!-- Temp0: T13 -->
<g id="node48" class="node"><title>Temp0: T13</title>
<ellipse fill="none" stroke="black" cx="283.09" cy="-162" rx="55.4913" ry="18"/>
<text text-anchor="middle" x="283.09" y="-158.3" font-family="Times,serif" font-size="14.00">Temp0: T13</text>
</g>
<!-- ExpTemp0&#45;&gt;Temp0: T13 -->
<g id="edge41" class="edge"><title>ExpTemp0&#45;&gt;Temp0: T13</title>
<path fill="none" stroke="black" d="M291.371,-215.697C290.159,-207.983 288.702,-198.712 287.35,-190.112"/>
<polygon fill="black" stroke="black" points="290.788,-189.44 285.778,-180.104 283.873,-190.526 290.788,-189.44"/>
</g>
<!-- Temp1: T6 -->
<g id="node53" class="node"><title>Temp1: T6</title>
<ellipse fill="none" stroke="black" cx="407.09" cy="-162" rx="50.8918" ry="18"/>
<text text-anchor="middle" x="407.09" y="-158.3" font-family="Times,serif" font-size="14.00">Temp1: T6</text>
</g>
<!-- ExpTemp1&#45;&gt;Temp1: T6 -->
<g id="edge46" class="edge"><title>ExpTemp1&#45;&gt;Temp1: T6</title>
<path fill="none" stroke="black" d="M410.854,-215.697C410.303,-207.983 409.641,-198.712 409.027,-190.112"/>
<polygon fill="black" stroke="black" points="412.515,-189.83 408.312,-180.104 405.533,-190.328 412.515,-189.83"/>
</g>
<!-- Temp14: T10 -->
<g id="node52" class="node"><title>Temp14: T10</title>
<ellipse fill="none" stroke="black" cx="2678.09" cy="-18" rx="59.5901" ry="18"/>
<text text-anchor="middle" x="2678.09" y="-14.3" font-family="Times,serif" font-size="14.00">Temp14: T10</text>
</g>
<!-- ExpTemp14&#45;&gt;Temp14: T10 -->
<g id="edge45" class="edge"><title>ExpTemp14&#45;&gt;Temp14: T10</title>
<path fill="none" stroke="black" d="M2677.34,-71.6966C2677.45,-63.9827 2677.58,-54.7125 2677.7,-46.1124"/>
<polygon fill="black" stroke="black" points="2681.2,-46.1533 2677.85,-36.1043 2674.2,-46.0533 2681.2,-46.1533"/>
</g>
<!-- Temp6: T8 -->
<g id="node56" class="node"><title>Temp6: T8</title>
<ellipse fill="none" stroke="black" cx="1012.09" cy="-162" rx="50.8918" ry="18"/>
<text text-anchor="middle" x="1012.09" y="-158.3" font-family="Times,serif" font-size="14.00">Temp6: T8</text>
</g>
<!-- ExpTemp6&#45;&gt;Temp6: T8 -->
<g id="edge48" class="edge"><title>ExpTemp6&#45;&gt;Temp6: T8</title>
<path fill="none" stroke="black" d="M1012.09,-215.697C1012.09,-207.983 1012.09,-198.712 1012.09,-190.112"/>
<polygon fill="black" stroke="black" points="1015.59,-190.104 1012.09,-180.104 1008.59,-190.104 1015.59,-190.104"/>
</g>
<!-- Temp7: T4 -->
<g id="node60" class="node"><title>Temp7: T4</title>
<ellipse fill="none" stroke="black" cx="1131.09" cy="-162" rx="50.8918" ry="18"/>
<text text-anchor="middle" x="1131.09" y="-158.3" font-family="Times,serif" font-size="14.00">Temp7: T4</text>
</g>
<!-- ExpTemp7&#45;&gt;Temp7: T4 -->
<g id="edge53" class="edge"><title>ExpTemp7&#45;&gt;Temp7: T4</title>
<path fill="none" stroke="black" d="M1131.09,-215.697C1131.09,-207.983 1131.09,-198.712 1131.09,-190.112"/>
<polygon fill="black" stroke="black" points="1134.59,-190.104 1131.09,-180.104 1127.59,-190.104 1134.59,-190.104"/>
</g>
<!-- Temp8: T7 -->
<g id="node63" class="node"><title>Temp8: T7</title>
<ellipse fill="none" stroke="black" cx="1250.09" cy="-162" rx="50.8918" ry="18"/>
<text text-anchor="middle" x="1250.09" y="-158.3" font-family="Times,serif" font-size="14.00">Temp8: T7</text>
</g>
<!-- ExpTemp8&#45;&gt;Temp8: T7 -->
<g id="edge57" class="edge"><title>ExpTemp8&#45;&gt;Temp8: T7</title>
<path fill="none" stroke="black" d="M1289.77,-216.411C1283.42,-207.868 1275.55,-197.278 1268.5,-187.787"/>
<polygon fill="black" stroke="black" points="1271.1,-185.41 1262.32,-179.47 1265.48,-189.585 1271.1,-185.41"/>
</g>
<!-- Temp12: T11 -->
<g id="node72" class="node"><title>Temp12: T11</title>
<ellipse fill="none" stroke="black" cx="2308.09" cy="-162" rx="59.5901" ry="18"/>
<text text-anchor="middle" x="2308.09" y="-158.3" font-family="Times,serif" font-size="14.00">Temp12: T11</text>
</g>
<!-- ExpTemp12&#45;&gt;Temp12: T11 -->
<g id="edge69" class="edge"><title>ExpTemp12&#45;&gt;Temp12: T11</title>
<path fill="none" stroke="black" d="M2308.09,-215.697C2308.09,-207.983 2308.09,-198.712 2308.09,-190.112"/>
<polygon fill="black" stroke="black" points="2311.59,-190.104 2308.09,-180.104 2304.59,-190.104 2311.59,-190.104"/>
</g>
<!-- ExpConst1 -->
<g id="node66" class="node"><title>ExpConst1</title>
<ellipse fill="none" stroke="black" cx="1581.09" cy="-162" rx="50.0912" ry="18"/>
<text text-anchor="middle" x="1581.09" y="-158.3" font-family="Times,serif" font-size="14.00">ExpConst1</text>
</g>
<!-- ExpBinary0&#45;&gt;ExpConst1 -->
<g id="edge72" class="edge"><title>ExpBinary0&#45;&gt;ExpConst1</title>
<path fill="none" stroke="black" d="M1498.35,-217.638C1513.37,-207.723 1533.09,-194.698 1549.51,-183.853"/>
<polygon fill="black" stroke="black" points="1551.83,-186.517 1558.25,-178.085 1547.97,-180.675 1551.83,-186.517"/>
</g>
<!-- ExpConst0 -->
<g id="node70" class="node"><title>ExpConst0</title>
<ellipse fill="none" stroke="black" cx="1369.09" cy="-162" rx="50.0912" ry="18"/>
<text text-anchor="middle" x="1369.09" y="-158.3" font-family="Times,serif" font-size="14.00">ExpConst0</text>
</g>
<!-- ExpBinary0&#45;&gt;ExpConst0 -->
<g id="edge70" class="edge"><title>ExpBinary0&#45;&gt;ExpConst0</title>
<path fill="none" stroke="black" d="M1451.83,-217.638C1436.81,-207.723 1417.09,-194.698 1400.67,-183.853"/>
<polygon fill="black" stroke="black" points="1402.21,-180.675 1391.93,-178.085 1398.35,-186.517 1402.21,-180.675"/>
</g>
<!-- Times0 -->
<g id="node73" class="node"><title>Times0</title>
<ellipse fill="none" stroke="black" cx="1475.09" cy="-162" rx="37.8943" ry="18"/>
<text text-anchor="middle" x="1475.09" y="-158.3" font-family="Times,serif" font-size="14.00">Times0</text>
</g>
<!-- ExpBinary0&#45;&gt;Times0 -->
<g id="edge71" class="edge"><title>ExpBinary0&#45;&gt;Times0</title>
<path fill="none" stroke="black" d="M1475.09,-215.697C1475.09,-207.983 1475.09,-198.712 1475.09,-190.112"/>
<polygon fill="black" stroke="black" points="1478.59,-190.104 1475.09,-180.104 1471.59,-190.104 1478.59,-190.104"/>
</g>
<!-- Value1: 4 -->
<g id="node67" class="node"><title>Value1: 4</title>
<ellipse fill="none" stroke="black" cx="1581.09" cy="-90" rx="45.4919" ry="18"/>
<text text-anchor="middle" x="1581.09" y="-86.3" font-family="Times,serif" font-size="14.00">Value1: 4</text>
</g>
<!-- ExpConst1&#45;&gt;Value1: 4 -->
<g id="edge64" class="edge"><title>ExpConst1&#45;&gt;Value1: 4</title>
<path fill="none" stroke="black" d="M1581.09,-143.697C1581.09,-135.983 1581.09,-126.712 1581.09,-118.112"/>
<polygon fill="black" stroke="black" points="1584.59,-118.104 1581.09,-108.104 1577.59,-118.104 1584.59,-118.104"/>
</g>
<!-- Temp9: T8 -->
<g id="node74" class="node"><title>Temp9: T8</title>
<ellipse fill="none" stroke="black" cx="1700.09" cy="-162" rx="50.8918" ry="18"/>
<text text-anchor="middle" x="1700.09" y="-158.3" font-family="Times,serif" font-size="14.00">Temp9: T8</text>
</g>
<!-- ExpTemp9&#45;&gt;Temp9: T8 -->
<g id="edge73" class="edge"><title>ExpTemp9&#45;&gt;Temp9: T8</title>
<path fill="none" stroke="black" d="M1700.09,-215.697C1700.09,-207.983 1700.09,-198.712 1700.09,-190.112"/>
<polygon fill="black" stroke="black" points="1703.59,-190.104 1700.09,-180.104 1696.59,-190.104 1703.59,-190.104"/>
</g>
<!-- Value0: 2 -->
<g id="node71" class="node"><title>Value0: 2</title>
<ellipse fill="none" stroke="black" cx="1369.09" cy="-90" rx="45.4919" ry="18"/>
<text text-anchor="middle" x="1369.09" y="-86.3" font-family="Times,serif" font-size="14.00">Value0: 2</text>
</g>
<!-- ExpConst0&#45;&gt;Value0: 2 -->
<g id="edge68" class="edge"><title>ExpConst0&#45;&gt;Value0: 2</title>
<path fill="none" stroke="black" d="M1369.09,-143.697C1369.09,-135.983 1369.09,-126.712 1369.09,-118.112"/>
<polygon fill="black" stroke="black" points="1372.59,-118.104 1369.09,-108.104 1365.59,-118.104 1372.59,-118.104"/>
</g>
</g>
</svg>
