<?xml version="1.0" encoding="UTF-8" standalone="no"?>
<!DOCTYPE svg PUBLIC "-//W3C//DTD SVG 1.1//EN"
 "http://www.w3.org/Graphics/SVG/1.1/DTD/svg11.dtd">
<!-- Generated by graphviz version 2.38.0 (20140413.2041)
 -->
<!-- Title: %3 Pages: 1 -->
<svg width="913pt" height="404pt"
 viewBox="0.00 0.00 912.89 404.00" xmlns="http://www.w3.org/2000/svg" xmlns:xlink="http://www.w3.org/1999/xlink">
<g id="graph0" class="graph" transform="scale(1 1) rotate(0) translate(4 400)">
<title>%3</title>
<polygon fill="white" stroke="none" points="-4,4 -4,-400 908.89,-400 908.89,4 -4,4"/>
<!-- ExpConst3 -->
<g id="node1" class="node"><title>ExpConst3</title>
<ellipse fill="none" stroke="black" cx="602.945" cy="-234" rx="50.0912" ry="18"/>
<text text-anchor="middle" x="602.945" y="-230.3" font-family="Times,serif" font-size="14.00">ExpConst3</text>
</g>
<!-- Value3: 0 -->
<g id="node2" class="node"><title>Value3: 0</title>
<ellipse fill="none" stroke="black" cx="602.945" cy="-162" rx="45.4919" ry="18"/>
<text text-anchor="middle" x="602.945" y="-158.3" font-family="Times,serif" font-size="14.00">Value3: 0</text>
</g>
<!-- ExpConst3&#45;&gt;Value3: 0 -->
<g id="edge1" class="edge"><title>ExpConst3&#45;&gt;Value3: 0</title>
<path fill="none" stroke="black" d="M602.945,-215.697C602.945,-207.983 602.945,-198.712 602.945,-190.112"/>
<polygon fill="black" stroke="black" points="606.445,-190.104 602.945,-180.104 599.445,-190.104 606.445,-190.104"/>
</g>
<!-- ExpConst2 -->
<g id="node3" class="node"><title>ExpConst2</title>
<ellipse fill="none" stroke="black" cx="586.945" cy="-90" rx="50.0912" ry="18"/>
<text text-anchor="middle" x="586.945" y="-86.3" font-family="Times,serif" font-size="14.00">ExpConst2</text>
</g>
<!-- Value2: 12 -->
<g id="node4" class="node"><title>Value2: 12</title>
<ellipse fill="none" stroke="black" cx="586.945" cy="-18" rx="50.0912" ry="18"/>
<text text-anchor="middle" x="586.945" y="-14.3" font-family="Times,serif" font-size="14.00">Value2: 12</text>
</g>
<!-- ExpConst2&#45;&gt;Value2: 12 -->
<g id="edge2" class="edge"><title>ExpConst2&#45;&gt;Value2: 12</title>
<path fill="none" stroke="black" d="M586.945,-71.6966C586.945,-63.9827 586.945,-54.7125 586.945,-46.1124"/>
<polygon fill="black" stroke="black" points="590.445,-46.1043 586.945,-36.1043 583.445,-46.1044 590.445,-46.1043"/>
</g>
<!-- ExpBinary0 -->
<g id="node5" class="node"><title>ExpBinary0</title>
<ellipse fill="none" stroke="black" cx="172.945" cy="-162" rx="53.0913" ry="18"/>
<text text-anchor="middle" x="172.945" y="-158.3" font-family="Times,serif" font-size="14.00">ExpBinary0</text>
</g>
<!-- ExpTemp0 -->
<g id="node6" class="node"><title>ExpTemp0</title>
<ellipse fill="none" stroke="black" cx="71.9452" cy="-90" rx="50.0912" ry="18"/>
<text text-anchor="middle" x="71.9452" y="-86.3" font-family="Times,serif" font-size="14.00">ExpTemp0</text>
</g>
<!-- ExpBinary0&#45;&gt;ExpTemp0 -->
<g id="edge3" class="edge"><title>ExpBinary0&#45;&gt;ExpTemp0</title>
<path fill="none" stroke="black" d="M150.53,-145.465C136.31,-135.609 117.733,-122.734 102.212,-111.977"/>
<polygon fill="black" stroke="black" points="104.163,-109.071 93.9502,-106.251 100.176,-114.824 104.163,-109.071"/>
</g>
<!-- Plus0 -->
<g id="node7" class="node"><title>Plus0</title>
<ellipse fill="none" stroke="black" cx="170.945" cy="-90" rx="30.5947" ry="18"/>
<text text-anchor="middle" x="170.945" y="-86.3" font-family="Times,serif" font-size="14.00">Plus0</text>
</g>
<!-- ExpBinary0&#45;&gt;Plus0 -->
<g id="edge4" class="edge"><title>ExpBinary0&#45;&gt;Plus0</title>
<path fill="none" stroke="black" d="M172.451,-143.697C172.23,-135.983 171.966,-126.712 171.72,-118.112"/>
<polygon fill="black" stroke="black" points="175.218,-118 171.434,-108.104 168.221,-118.2 175.218,-118"/>
</g>
<!-- ExpConst0 -->
<g id="node8" class="node"><title>ExpConst0</title>
<ellipse fill="none" stroke="black" cx="269.945" cy="-90" rx="50.0912" ry="18"/>
<text text-anchor="middle" x="269.945" y="-86.3" font-family="Times,serif" font-size="14.00">ExpConst0</text>
</g>
<!-- ExpBinary0&#45;&gt;ExpConst0 -->
<g id="edge5" class="edge"><title>ExpBinary0&#45;&gt;ExpConst0</title>
<path fill="none" stroke="black" d="M194.473,-145.465C207.91,-135.768 225.398,-123.148 240.155,-112.498"/>
<polygon fill="black" stroke="black" points="242.417,-115.182 248.478,-106.492 238.321,-109.506 242.417,-115.182"/>
</g>
<!-- Temp0: $fp -->
<g id="node12" class="node"><title>Temp0: $fp</title>
<ellipse fill="none" stroke="black" cx="71.9452" cy="-18" rx="52.7911" ry="18"/>
<text text-anchor="middle" x="71.9452" y="-14.3" font-family="Times,serif" font-size="14.00">Temp0: $fp</text>
</g>
<!-- ExpTemp0&#45;&gt;Temp0: $fp -->
<g id="edge8" class="edge"><title>ExpTemp0&#45;&gt;Temp0: $fp</title>
<path fill="none" stroke="black" d="M71.9452,-71.6966C71.9452,-63.9827 71.9452,-54.7125 71.9452,-46.1124"/>
<polygon fill="black" stroke="black" points="75.4453,-46.1043 71.9452,-36.1043 68.4453,-46.1044 75.4453,-46.1043"/>
</g>
<!-- Value0: 36 -->
<g id="node19" class="node"><title>Value0: 36</title>
<ellipse fill="none" stroke="black" cx="268.945" cy="-18" rx="50.0912" ry="18"/>
<text text-anchor="middle" x="268.945" y="-14.3" font-family="Times,serif" font-size="14.00">Value0: 36</text>
</g>
<!-- ExpConst0&#45;&gt;Value0: 36 -->
<g id="edge14" class="edge"><title>ExpConst0&#45;&gt;Value0: 36</title>
<path fill="none" stroke="black" d="M269.698,-71.6966C269.588,-63.9827 269.455,-54.7125 269.333,-46.1124"/>
<polygon fill="black" stroke="black" points="272.832,-46.0533 269.19,-36.1043 265.833,-46.1533 272.832,-46.0533"/>
</g>
<!-- StatMove0 -->
<g id="node9" class="node"><title>StatMove0</title>
<ellipse fill="none" stroke="black" cx="232.945" cy="-306" rx="50.0912" ry="18"/>
<text text-anchor="middle" x="232.945" y="-302.3" font-family="Times,serif" font-size="14.00">StatMove0</text>
</g>
<!-- ExpMem0 -->
<g id="node10" class="node"><title>ExpMem0</title>
<ellipse fill="none" stroke="black" cx="174.945" cy="-234" rx="48.9926" ry="18"/>
<text text-anchor="middle" x="174.945" y="-230.3" font-family="Times,serif" font-size="14.00">ExpMem0</text>
</g>
<!-- StatMove0&#45;&gt;ExpMem0 -->
<g id="edge6" class="edge"><title>StatMove0&#45;&gt;ExpMem0</title>
<path fill="none" stroke="black" d="M219.2,-288.411C211.977,-279.693 202.989,-268.845 195.003,-259.208"/>
<polygon fill="black" stroke="black" points="197.667,-256.937 188.592,-251.47 192.277,-261.403 197.667,-256.937"/>
</g>
<!-- ExpConst1 -->
<g id="node11" class="node"><title>ExpConst1</title>
<ellipse fill="none" stroke="black" cx="291.945" cy="-234" rx="50.0912" ry="18"/>
<text text-anchor="middle" x="291.945" y="-230.3" font-family="Times,serif" font-size="14.00">ExpConst1</text>
</g>
<!-- StatMove0&#45;&gt;ExpConst1 -->
<g id="edge7" class="edge"><title>StatMove0&#45;&gt;ExpConst1</title>
<path fill="none" stroke="black" d="M246.927,-288.411C254.275,-279.693 263.418,-268.845 271.542,-259.208"/>
<polygon fill="black" stroke="black" points="274.295,-261.372 278.063,-251.47 268.942,-256.861 274.295,-261.372"/>
</g>
<!-- ExpMem0&#45;&gt;ExpBinary0 -->
<g id="edge18" class="edge"><title>ExpMem0&#45;&gt;ExpBinary0</title>
<path fill="none" stroke="black" d="M174.451,-215.697C174.23,-207.983 173.966,-198.712 173.72,-190.112"/>
<polygon fill="black" stroke="black" points="177.218,-190 173.434,-180.104 170.221,-190.2 177.218,-190"/>
</g>
<!-- Value1: 1 -->
<g id="node22" class="node"><title>Value1: 1</title>
<ellipse fill="none" stroke="black" cx="291.945" cy="-162" rx="45.4919" ry="18"/>
<text text-anchor="middle" x="291.945" y="-158.3" font-family="Times,serif" font-size="14.00">Value1: 1</text>
</g>
<!-- ExpConst1&#45;&gt;Value1: 1 -->
<g id="edge19" class="edge"><title>ExpConst1&#45;&gt;Value1: 1</title>
<path fill="none" stroke="black" d="M291.945,-215.697C291.945,-207.983 291.945,-198.712 291.945,-190.112"/>
<polygon fill="black" stroke="black" points="295.445,-190.104 291.945,-180.104 288.445,-190.104 295.445,-190.104"/>
</g>
<!-- StatList0 -->
<g id="node13" class="node"><title>StatList0</title>
<ellipse fill="none" stroke="black" cx="232.945" cy="-378" rx="42.4939" ry="18"/>
<text text-anchor="middle" x="232.945" y="-374.3" font-family="Times,serif" font-size="14.00">StatList0</text>
</g>
<!-- StatList0&#45;&gt;StatMove0 -->
<g id="edge10" class="edge"><title>StatList0&#45;&gt;StatMove0</title>
<path fill="none" stroke="black" d="M232.945,-359.697C232.945,-351.983 232.945,-342.712 232.945,-334.112"/>
<polygon fill="black" stroke="black" points="236.445,-334.104 232.945,-324.104 229.445,-334.104 236.445,-334.104"/>
</g>
<!-- StatLabel0 -->
<g id="node14" class="node"><title>StatLabel0</title>
<ellipse fill="none" stroke="black" cx="113.945" cy="-306" rx="48.9926" ry="18"/>
<text text-anchor="middle" x="113.945" y="-302.3" font-family="Times,serif" font-size="14.00">StatLabel0</text>
</g>
<!-- StatList0&#45;&gt;StatLabel0 -->
<g id="edge9" class="edge"><title>StatList0&#45;&gt;StatLabel0</title>
<path fill="none" stroke="black" d="M209.15,-363.003C191.504,-352.623 167.21,-338.333 147.58,-326.785"/>
<polygon fill="black" stroke="black" points="149.324,-323.75 138.93,-321.697 145.775,-329.784 149.324,-323.75"/>
</g>
<!-- StatCJump0 -->
<g id="node15" class="node"><title>StatCJump0</title>
<ellipse fill="none" stroke="black" cx="543.945" cy="-306" rx="53.8905" ry="18"/>
<text text-anchor="middle" x="543.945" y="-302.3" font-family="Times,serif" font-size="14.00">StatCJump0</text>
</g>
<!-- StatList0&#45;&gt;StatCJump0 -->
<g id="edge11" class="edge"><title>StatList0&#45;&gt;StatCJump0</title>
<path fill="none" stroke="black" d="M269.535,-368.764C324.252,-356.449 427.691,-333.167 490.758,-318.971"/>
<polygon fill="black" stroke="black" points="491.532,-322.385 500.52,-316.774 489.995,-315.556 491.532,-322.385"/>
</g>
<!-- Label0: L27 -->
<g id="node16" class="node"><title>Label0: L27</title>
<ellipse fill="none" stroke="black" cx="53.9452" cy="-234" rx="53.8905" ry="18"/>
<text text-anchor="middle" x="53.9452" y="-230.3" font-family="Times,serif" font-size="14.00">Label0: L27</text>
</g>
<!-- StatLabel0&#45;&gt;Label0: L27 -->
<g id="edge12" class="edge"><title>StatLabel0&#45;&gt;Label0: L27</title>
<path fill="none" stroke="black" d="M99.7261,-288.411C92.2538,-279.693 82.9556,-268.845 74.6947,-259.208"/>
<polygon fill="black" stroke="black" points="77.2277,-256.785 68.0623,-251.47 71.9129,-261.34 77.2277,-256.785"/>
</g>
<!-- StatCJump0&#45;&gt;ExpConst3 -->
<g id="edge22" class="edge"><title>StatCJump0&#45;&gt;ExpConst3</title>
<path fill="none" stroke="black" d="M557.927,-288.411C565.275,-279.693 574.418,-268.845 582.542,-259.208"/>
<polygon fill="black" stroke="black" points="585.295,-261.372 589.063,-251.47 579.942,-256.861 585.295,-261.372"/>
</g>
<!-- ExpMem1 -->
<g id="node17" class="node"><title>ExpMem1</title>
<ellipse fill="none" stroke="black" cx="485.945" cy="-234" rx="48.9926" ry="18"/>
<text text-anchor="middle" x="485.945" y="-230.3" font-family="Times,serif" font-size="14.00">ExpMem1</text>
</g>
<!-- StatCJump0&#45;&gt;ExpMem1 -->
<g id="edge21" class="edge"><title>StatCJump0&#45;&gt;ExpMem1</title>
<path fill="none" stroke="black" d="M530.2,-288.411C522.977,-279.693 513.989,-268.845 506.003,-259.208"/>
<polygon fill="black" stroke="black" points="508.667,-256.937 499.592,-251.47 503.277,-261.403 508.667,-256.937"/>
</g>
<!-- LT0 -->
<g id="node23" class="node"><title>LT0</title>
<ellipse fill="none" stroke="black" cx="391.945" cy="-234" rx="27" ry="18"/>
<text text-anchor="middle" x="391.945" y="-230.3" font-family="Times,serif" font-size="14.00">LT0</text>
</g>
<!-- StatCJump0&#45;&gt;LT0 -->
<g id="edge20" class="edge"><title>StatCJump0&#45;&gt;LT0</title>
<path fill="none" stroke="black" d="M513.368,-291.156C489.95,-280.523 456.861,-265.433 427.945,-252 426.159,-251.17 424.324,-250.314 422.473,-249.449"/>
<polygon fill="black" stroke="black" points="423.784,-246.197 413.245,-245.112 420.807,-252.533 423.784,-246.197"/>
</g>
<!-- Label1: L24 -->
<g id="node24" class="node"><title>Label1: L24</title>
<ellipse fill="none" stroke="black" cx="724.945" cy="-234" rx="53.8905" ry="18"/>
<text text-anchor="middle" x="724.945" y="-230.3" font-family="Times,serif" font-size="14.00">Label1: L24</text>
</g>
<!-- StatCJump0&#45;&gt;Label1: L24 -->
<g id="edge23" class="edge"><title>StatCJump0&#45;&gt;Label1: L24</title>
<path fill="none" stroke="black" d="M577.99,-291.834C607.316,-280.492 649.811,-264.057 681.569,-251.776"/>
<polygon fill="black" stroke="black" points="682.989,-254.979 691.053,-248.107 680.464,-248.45 682.989,-254.979"/>
</g>
<!-- Label2: L25 -->
<g id="node25" class="node"><title>Label2: L25</title>
<ellipse fill="none" stroke="black" cx="850.945" cy="-234" rx="53.8905" ry="18"/>
<text text-anchor="middle" x="850.945" y="-230.3" font-family="Times,serif" font-size="14.00">Label2: L25</text>
</g>
<!-- StatCJump0&#45;&gt;Label2: L25 -->
<g id="edge24" class="edge"><title>StatCJump0&#45;&gt;Label2: L25</title>
<path fill="none" stroke="black" d="M589.07,-295.898C638.159,-285.834 718.869,-268.811 787.945,-252 792.094,-250.99 796.386,-249.91 800.69,-248.801"/>
<polygon fill="black" stroke="black" points="801.905,-252.101 810.692,-246.181 800.131,-245.329 801.905,-252.101"/>
</g>
<!-- ExpBinary1 -->
<g id="node18" class="node"><title>ExpBinary1</title>
<ellipse fill="none" stroke="black" cx="485.945" cy="-162" rx="53.0913" ry="18"/>
<text text-anchor="middle" x="485.945" y="-158.3" font-family="Times,serif" font-size="14.00">ExpBinary1</text>
</g>
<!-- ExpMem1&#45;&gt;ExpBinary1 -->
<g id="edge13" class="edge"><title>ExpMem1&#45;&gt;ExpBinary1</title>
<path fill="none" stroke="black" d="M485.945,-215.697C485.945,-207.983 485.945,-198.712 485.945,-190.112"/>
<polygon fill="black" stroke="black" points="489.445,-190.104 485.945,-180.104 482.445,-190.104 489.445,-190.104"/>
</g>
<!-- ExpBinary1&#45;&gt;ExpConst2 -->
<g id="edge17" class="edge"><title>ExpBinary1&#45;&gt;ExpConst2</title>
<path fill="none" stroke="black" d="M508.36,-145.465C522.581,-135.609 541.157,-122.734 556.679,-111.977"/>
<polygon fill="black" stroke="black" points="558.715,-114.824 564.94,-106.251 554.727,-109.071 558.715,-114.824"/>
</g>
<!-- ExpTemp1 -->
<g id="node20" class="node"><title>ExpTemp1</title>
<ellipse fill="none" stroke="black" cx="388.945" cy="-90" rx="50.0912" ry="18"/>
<text text-anchor="middle" x="388.945" y="-86.3" font-family="Times,serif" font-size="14.00">ExpTemp1</text>
</g>
<!-- ExpBinary1&#45;&gt;ExpTemp1 -->
<g id="edge15" class="edge"><title>ExpBinary1&#45;&gt;ExpTemp1</title>
<path fill="none" stroke="black" d="M464.418,-145.465C450.98,-135.768 433.493,-123.148 418.735,-112.498"/>
<polygon fill="black" stroke="black" points="420.57,-109.506 410.412,-106.492 416.473,-115.182 420.57,-109.506"/>
</g>
<!-- Plus1 -->
<g id="node21" class="node"><title>Plus1</title>
<ellipse fill="none" stroke="black" cx="487.945" cy="-90" rx="30.5947" ry="18"/>
<text text-anchor="middle" x="487.945" y="-86.3" font-family="Times,serif" font-size="14.00">Plus1</text>
</g>
<!-- ExpBinary1&#45;&gt;Plus1 -->
<g id="edge16" class="edge"><title>ExpBinary1&#45;&gt;Plus1</title>
<path fill="none" stroke="black" d="M486.44,-143.697C486.66,-135.983 486.925,-126.712 487.171,-118.112"/>
<polygon fill="black" stroke="black" points="490.669,-118.2 487.457,-108.104 483.672,-118 490.669,-118.2"/>
</g>
<!-- Temp1: $fp -->
<g id="node26" class="node"><title>Temp1: $fp</title>
<ellipse fill="none" stroke="black" cx="389.945" cy="-18" rx="52.7911" ry="18"/>
<text text-anchor="middle" x="389.945" y="-14.3" font-family="Times,serif" font-size="14.00">Temp1: $fp</text>
</g>
<!-- ExpTemp1&#45;&gt;Temp1: $fp -->
<g id="edge25" class="edge"><title>ExpTemp1&#45;&gt;Temp1: $fp</title>
<path fill="none" stroke="black" d="M389.192,-71.6966C389.303,-63.9827 389.435,-54.7125 389.558,-46.1124"/>
<polygon fill="black" stroke="black" points="393.058,-46.1533 389.701,-36.1043 386.058,-46.0533 393.058,-46.1533"/>
</g>
</g>
</svg>
