<?xml version="1.0" encoding="UTF-8" standalone="no"?>
<!DOCTYPE svg PUBLIC "-//W3C//DTD SVG 1.1//EN"
 "http://www.w3.org/Graphics/SVG/1.1/DTD/svg11.dtd">
<!-- Generated by graphviz version 2.38.0 (20140413.2041)
 -->
<!-- Title: %3 Pages: 1 -->
<svg width="1908pt" height="404pt"
 viewBox="0.00 0.00 1907.89 404.00" xmlns="http://www.w3.org/2000/svg" xmlns:xlink="http://www.w3.org/1999/xlink">
<g id="graph0" class="graph" transform="scale(1 1) rotate(0) translate(4 400)">
<title>%3</title>
<polygon fill="white" stroke="none" points="-4,4 -4,-400 1903.89,-400 1903.89,4 -4,4"/>
<!-- ExpList0 -->
<g id="node1" class="node"><title>ExpList0</title>
<ellipse fill="none" stroke="black" cx="1526.95" cy="-162" rx="42.7926" ry="18"/>
<text text-anchor="middle" x="1526.95" y="-158.3" font-family="Times,serif" font-size="14.00">ExpList0</text>
</g>
<!-- ExpTemp9 -->
<g id="node2" class="node"><title>ExpTemp9</title>
<ellipse fill="none" stroke="black" cx="1534.95" cy="-90" rx="50.0912" ry="18"/>
<text text-anchor="middle" x="1534.95" y="-86.3" font-family="Times,serif" font-size="14.00">ExpTemp9</text>
</g>
<!-- ExpList0&#45;&gt;ExpTemp9 -->
<g id="edge1" class="edge"><title>ExpList0&#45;&gt;ExpTemp9</title>
<path fill="none" stroke="black" d="M1528.92,-143.697C1529.8,-135.983 1530.86,-126.712 1531.85,-118.112"/>
<polygon fill="black" stroke="black" points="1535.33,-118.437 1532.99,-108.104 1528.38,-117.642 1535.33,-118.437"/>
</g>
<!-- Temp9: T250 -->
<g id="node3" class="node"><title>Temp9: T250</title>
<ellipse fill="none" stroke="black" cx="1534.95" cy="-18" rx="59.5901" ry="18"/>
<text text-anchor="middle" x="1534.95" y="-14.3" font-family="Times,serif" font-size="14.00">Temp9: T250</text>
</g>
<!-- ExpTemp9&#45;&gt;Temp9: T250 -->
<g id="edge2" class="edge"><title>ExpTemp9&#45;&gt;Temp9: T250</title>
<path fill="none" stroke="black" d="M1534.95,-71.6966C1534.95,-63.9827 1534.95,-54.7125 1534.95,-46.1124"/>
<polygon fill="black" stroke="black" points="1538.45,-46.1043 1534.95,-36.1043 1531.45,-46.1044 1538.45,-46.1043"/>
</g>
<!-- StatJump0 -->
<g id="node4" class="node"><title>StatJump0</title>
<ellipse fill="none" stroke="black" cx="1776.95" cy="-306" rx="48.1917" ry="18"/>
<text text-anchor="middle" x="1776.95" y="-302.3" font-family="Times,serif" font-size="14.00">StatJump0</text>
</g>
<!-- Label2: L26 -->
<g id="node5" class="node"><title>Label2: L26</title>
<ellipse fill="none" stroke="black" cx="1845.95" cy="-234" rx="53.8905" ry="18"/>
<text text-anchor="middle" x="1845.95" y="-230.3" font-family="Times,serif" font-size="14.00">Label2: L26</text>
</g>
<!-- StatJump0&#45;&gt;Label2: L26 -->
<g id="edge3" class="edge"><title>StatJump0&#45;&gt;Label2: L26</title>
<path fill="none" stroke="black" d="M1792.95,-288.765C1801.7,-279.882 1812.72,-268.709 1822.43,-258.854"/>
<polygon fill="black" stroke="black" points="1825.02,-261.212 1829.55,-251.633 1820.04,-256.298 1825.02,-261.212"/>
</g>
<!-- ExpCall0 -->
<g id="node6" class="node"><title>ExpCall0</title>
<ellipse fill="none" stroke="black" cx="1415.95" cy="-234" rx="44.393" ry="18"/>
<text text-anchor="middle" x="1415.95" y="-230.3" font-family="Times,serif" font-size="14.00">ExpCall0</text>
</g>
<!-- ExpCall0&#45;&gt;ExpList0 -->
<g id="edge5" class="edge"><title>ExpCall0&#45;&gt;ExpList0</title>
<path fill="none" stroke="black" d="M1438.94,-218.496C1455.17,-208.266 1477.11,-194.428 1495.03,-183.13"/>
<polygon fill="black" stroke="black" points="1497.38,-185.78 1503.98,-177.485 1493.65,-179.859 1497.38,-185.78"/>
</g>
<!-- ExpTemp8 -->
<g id="node7" class="node"><title>ExpTemp8</title>
<ellipse fill="none" stroke="black" cx="1415.95" cy="-162" rx="50.0912" ry="18"/>
<text text-anchor="middle" x="1415.95" y="-158.3" font-family="Times,serif" font-size="14.00">ExpTemp8</text>
</g>
<!-- ExpCall0&#45;&gt;ExpTemp8 -->
<g id="edge4" class="edge"><title>ExpCall0&#45;&gt;ExpTemp8</title>
<path fill="none" stroke="black" d="M1415.95,-215.697C1415.95,-207.983 1415.95,-198.712 1415.95,-190.112"/>
<polygon fill="black" stroke="black" points="1419.45,-190.104 1415.95,-180.104 1412.45,-190.104 1419.45,-190.104"/>
</g>
<!-- Temp8: T249 -->
<g id="node8" class="node"><title>Temp8: T249</title>
<ellipse fill="none" stroke="black" cx="1406.95" cy="-90" rx="59.5901" ry="18"/>
<text text-anchor="middle" x="1406.95" y="-86.3" font-family="Times,serif" font-size="14.00">Temp8: T249</text>
</g>
<!-- ExpTemp8&#45;&gt;Temp8: T249 -->
<g id="edge6" class="edge"><title>ExpTemp8&#45;&gt;Temp8: T249</title>
<path fill="none" stroke="black" d="M1413.72,-143.697C1412.73,-135.983 1411.54,-126.712 1410.43,-118.112"/>
<polygon fill="black" stroke="black" points="1413.89,-117.576 1409.14,-108.104 1406.95,-118.469 1413.89,-117.576"/>
</g>
<!-- StatMove1 -->
<g id="node9" class="node"><title>StatMove1</title>
<ellipse fill="none" stroke="black" cx="549.945" cy="-306" rx="50.0912" ry="18"/>
<text text-anchor="middle" x="549.945" y="-302.3" font-family="Times,serif" font-size="14.00">StatMove1</text>
</g>
<!-- ExpTemp2 -->
<g id="node10" class="node"><title>ExpTemp2</title>
<ellipse fill="none" stroke="black" cx="421.945" cy="-234" rx="50.0912" ry="18"/>
<text text-anchor="middle" x="421.945" y="-230.3" font-family="Times,serif" font-size="14.00">ExpTemp2</text>
</g>
<!-- StatMove1&#45;&gt;ExpTemp2 -->
<g id="edge7" class="edge"><title>StatMove1&#45;&gt;ExpTemp2</title>
<path fill="none" stroke="black" d="M523.734,-290.666C504.62,-280.213 478.5,-265.929 457.506,-254.447"/>
<polygon fill="black" stroke="black" points="459.015,-251.283 448.562,-249.556 455.656,-257.425 459.015,-251.283"/>
</g>
<!-- ExpTemp3 -->
<g id="node11" class="node"><title>ExpTemp3</title>
<ellipse fill="none" stroke="black" cx="549.945" cy="-234" rx="50.0912" ry="18"/>
<text text-anchor="middle" x="549.945" y="-230.3" font-family="Times,serif" font-size="14.00">ExpTemp3</text>
</g>
<!-- StatMove1&#45;&gt;ExpTemp3 -->
<g id="edge8" class="edge"><title>StatMove1&#45;&gt;ExpTemp3</title>
<path fill="none" stroke="black" d="M549.945,-287.697C549.945,-279.983 549.945,-270.712 549.945,-262.112"/>
<polygon fill="black" stroke="black" points="553.445,-262.104 549.945,-252.104 546.445,-262.104 553.445,-262.104"/>
</g>
<!-- Temp2: T251 -->
<g id="node21" class="node"><title>Temp2: T251</title>
<ellipse fill="none" stroke="black" cx="411.945" cy="-162" rx="59.5901" ry="18"/>
<text text-anchor="middle" x="411.945" y="-158.3" font-family="Times,serif" font-size="14.00">Temp2: T251</text>
</g>
<!-- ExpTemp2&#45;&gt;Temp2: T251 -->
<g id="edge16" class="edge"><title>ExpTemp2&#45;&gt;Temp2: T251</title>
<path fill="none" stroke="black" d="M419.473,-215.697C418.371,-207.983 417.047,-198.712 415.818,-190.112"/>
<polygon fill="black" stroke="black" points="419.268,-189.509 414.389,-180.104 412.338,-190.499 419.268,-189.509"/>
</g>
<!-- Temp3: T237 -->
<g id="node40" class="node"><title>Temp3: T237</title>
<ellipse fill="none" stroke="black" cx="549.945" cy="-162" rx="59.5901" ry="18"/>
<text text-anchor="middle" x="549.945" y="-158.3" font-family="Times,serif" font-size="14.00">Temp3: T237</text>
</g>
<!-- ExpTemp3&#45;&gt;Temp3: T237 -->
<g id="edge36" class="edge"><title>ExpTemp3&#45;&gt;Temp3: T237</title>
<path fill="none" stroke="black" d="M549.945,-215.697C549.945,-207.983 549.945,-198.712 549.945,-190.112"/>
<polygon fill="black" stroke="black" points="553.445,-190.104 549.945,-180.104 546.445,-190.104 553.445,-190.104"/>
</g>
<!-- StatMove5 -->
<g id="node12" class="node"><title>StatMove5</title>
<ellipse fill="none" stroke="black" cx="1591.95" cy="-306" rx="50.0912" ry="18"/>
<text text-anchor="middle" x="1591.95" y="-302.3" font-family="Times,serif" font-size="14.00">StatMove5</text>
</g>
<!-- ExpTemp10 -->
<g id="node13" class="node"><title>ExpTemp10</title>
<ellipse fill="none" stroke="black" cx="1591.95" cy="-234" rx="54.6905" ry="18"/>
<text text-anchor="middle" x="1591.95" y="-230.3" font-family="Times,serif" font-size="14.00">ExpTemp10</text>
</g>
<!-- StatMove5&#45;&gt;ExpTemp10 -->
<g id="edge9" class="edge"><title>StatMove5&#45;&gt;ExpTemp10</title>
<path fill="none" stroke="black" d="M1591.95,-287.697C1591.95,-279.983 1591.95,-270.712 1591.95,-262.112"/>
<polygon fill="black" stroke="black" points="1595.45,-262.104 1591.95,-252.104 1588.45,-262.104 1595.45,-262.104"/>
</g>
<!-- ExpTemp11 -->
<g id="node14" class="node"><title>ExpTemp11</title>
<ellipse fill="none" stroke="black" cx="1718.95" cy="-234" rx="54.6905" ry="18"/>
<text text-anchor="middle" x="1718.95" y="-230.3" font-family="Times,serif" font-size="14.00">ExpTemp11</text>
</g>
<!-- StatMove5&#45;&gt;ExpTemp11 -->
<g id="edge10" class="edge"><title>StatMove5&#45;&gt;ExpTemp11</title>
<path fill="none" stroke="black" d="M1618.26,-290.496C1637.12,-280.101 1662.74,-265.981 1683.41,-254.585"/>
<polygon fill="black" stroke="black" points="1685.16,-257.619 1692.23,-249.726 1681.78,-251.488 1685.16,-257.619"/>
</g>
<!-- Temp10: T252 -->
<g id="node20" class="node"><title>Temp10: T252</title>
<ellipse fill="none" stroke="black" cx="1651.95" cy="-162" rx="63.8893" ry="18"/>
<text text-anchor="middle" x="1651.95" y="-158.3" font-family="Times,serif" font-size="14.00">Temp10: T252</text>
</g>
<!-- ExpTemp10&#45;&gt;Temp10: T252 -->
<g id="edge15" class="edge"><title>ExpTemp10&#45;&gt;Temp10: T252</title>
<path fill="none" stroke="black" d="M1606.16,-216.411C1613.53,-207.82 1622.67,-197.159 1630.84,-187.627"/>
<polygon fill="black" stroke="black" points="1633.56,-189.827 1637.41,-179.956 1628.25,-185.271 1633.56,-189.827"/>
</g>
<!-- Temp11: T237 -->
<g id="node48" class="node"><title>Temp11: T237</title>
<ellipse fill="none" stroke="black" cx="1796.95" cy="-162" rx="63.8893" ry="18"/>
<text text-anchor="middle" x="1796.95" y="-158.3" font-family="Times,serif" font-size="14.00">Temp11: T237</text>
</g>
<!-- ExpTemp11&#45;&gt;Temp11: T237 -->
<g id="edge42" class="edge"><title>ExpTemp11&#45;&gt;Temp11: T237</title>
<path fill="none" stroke="black" d="M1737.04,-216.765C1747.1,-207.73 1759.81,-196.326 1770.93,-186.349"/>
<polygon fill="black" stroke="black" points="1773.58,-188.674 1778.68,-179.39 1768.9,-183.464 1773.58,-188.674"/>
</g>
<!-- ExpConst1 -->
<g id="node15" class="node"><title>ExpConst1</title>
<ellipse fill="none" stroke="black" cx="1255.95" cy="-90" rx="50.0912" ry="18"/>
<text text-anchor="middle" x="1255.95" y="-86.3" font-family="Times,serif" font-size="14.00">ExpConst1</text>
</g>
<!-- Value1: 44 -->
<g id="node16" class="node"><title>Value1: 44</title>
<ellipse fill="none" stroke="black" cx="1255.95" cy="-18" rx="50.0912" ry="18"/>
<text text-anchor="middle" x="1255.95" y="-14.3" font-family="Times,serif" font-size="14.00">Value1: 44</text>
</g>
<!-- ExpConst1&#45;&gt;Value1: 44 -->
<g id="edge11" class="edge"><title>ExpConst1&#45;&gt;Value1: 44</title>
<path fill="none" stroke="black" d="M1255.95,-71.6966C1255.95,-63.9827 1255.95,-54.7125 1255.95,-46.1124"/>
<polygon fill="black" stroke="black" points="1259.45,-46.1043 1255.95,-36.1043 1252.45,-46.1044 1259.45,-46.1043"/>
</g>
<!-- ExpBinary1 -->
<g id="node17" class="node"><title>ExpBinary1</title>
<ellipse fill="none" stroke="black" cx="1156.95" cy="-162" rx="53.0913" ry="18"/>
<text text-anchor="middle" x="1156.95" y="-158.3" font-family="Times,serif" font-size="14.00">ExpBinary1</text>
</g>
<!-- ExpBinary1&#45;&gt;ExpConst1 -->
<g id="edge14" class="edge"><title>ExpBinary1&#45;&gt;ExpConst1</title>
<path fill="none" stroke="black" d="M1178.92,-145.465C1192.73,-135.7 1210.73,-122.972 1225.85,-112.276"/>
<polygon fill="black" stroke="black" points="1228.23,-114.882 1234.38,-106.251 1224.19,-109.167 1228.23,-114.882"/>
</g>
<!-- ExpTemp6 -->
<g id="node18" class="node"><title>ExpTemp6</title>
<ellipse fill="none" stroke="black" cx="1057.95" cy="-90" rx="50.0912" ry="18"/>
<text text-anchor="middle" x="1057.95" y="-86.3" font-family="Times,serif" font-size="14.00">ExpTemp6</text>
</g>
<!-- ExpBinary1&#45;&gt;ExpTemp6 -->
<g id="edge12" class="edge"><title>ExpBinary1&#45;&gt;ExpTemp6</title>
<path fill="none" stroke="black" d="M1134.97,-145.465C1121.16,-135.7 1103.16,-122.972 1088.04,-112.276"/>
<polygon fill="black" stroke="black" points="1089.7,-109.167 1079.51,-106.251 1085.66,-114.882 1089.7,-109.167"/>
</g>
<!-- Plus1 -->
<g id="node19" class="node"><title>Plus1</title>
<ellipse fill="none" stroke="black" cx="1156.95" cy="-90" rx="30.5947" ry="18"/>
<text text-anchor="middle" x="1156.95" y="-86.3" font-family="Times,serif" font-size="14.00">Plus1</text>
</g>
<!-- ExpBinary1&#45;&gt;Plus1 -->
<g id="edge13" class="edge"><title>ExpBinary1&#45;&gt;Plus1</title>
<path fill="none" stroke="black" d="M1156.95,-143.697C1156.95,-135.983 1156.95,-126.712 1156.95,-118.112"/>
<polygon fill="black" stroke="black" points="1160.45,-118.104 1156.95,-108.104 1153.45,-118.104 1160.45,-118.104"/>
</g>
<!-- Temp6: $fp -->
<g id="node49" class="node"><title>Temp6: $fp</title>
<ellipse fill="none" stroke="black" cx="1057.95" cy="-18" rx="52.7911" ry="18"/>
<text text-anchor="middle" x="1057.95" y="-14.3" font-family="Times,serif" font-size="14.00">Temp6: $fp</text>
</g>
<!-- ExpTemp6&#45;&gt;Temp6: $fp -->
<g id="edge45" class="edge"><title>ExpTemp6&#45;&gt;Temp6: $fp</title>
<path fill="none" stroke="black" d="M1057.95,-71.6966C1057.95,-63.9827 1057.95,-54.7125 1057.95,-46.1124"/>
<polygon fill="black" stroke="black" points="1061.45,-46.1043 1057.95,-36.1043 1054.45,-46.1044 1061.45,-46.1043"/>
</g>
<!-- StatMove2 -->
<g id="node22" class="node"><title>StatMove2</title>
<ellipse fill="none" stroke="black" cx="856.945" cy="-306" rx="50.0912" ry="18"/>
<text text-anchor="middle" x="856.945" y="-302.3" font-family="Times,serif" font-size="14.00">StatMove2</text>
</g>
<!-- ExpTemp4 -->
<g id="node23" class="node"><title>ExpTemp4</title>
<ellipse fill="none" stroke="black" cx="712.945" cy="-234" rx="50.0912" ry="18"/>
<text text-anchor="middle" x="712.945" y="-230.3" font-family="Times,serif" font-size="14.00">ExpTemp4</text>
</g>
<!-- StatMove2&#45;&gt;ExpTemp4 -->
<g id="edge17" class="edge"><title>StatMove2&#45;&gt;ExpTemp4</title>
<path fill="none" stroke="black" d="M828.495,-291.17C806.353,-280.407 775.409,-265.365 751.116,-253.555"/>
<polygon fill="black" stroke="black" points="752.353,-250.265 741.829,-249.041 749.292,-256.56 752.353,-250.265"/>
</g>
<!-- ExpName0 -->
<g id="node24" class="node"><title>ExpName0</title>
<ellipse fill="none" stroke="black" cx="856.945" cy="-234" rx="50.8918" ry="18"/>
<text text-anchor="middle" x="856.945" y="-230.3" font-family="Times,serif" font-size="14.00">ExpName0</text>
</g>
<!-- StatMove2&#45;&gt;ExpName0 -->
<g id="edge18" class="edge"><title>StatMove2&#45;&gt;ExpName0</title>
<path fill="none" stroke="black" d="M856.945,-287.697C856.945,-279.983 856.945,-270.712 856.945,-262.112"/>
<polygon fill="black" stroke="black" points="860.445,-262.104 856.945,-252.104 853.445,-262.104 860.445,-262.104"/>
</g>
<!-- Temp4: T249 -->
<g id="node42" class="node"><title>Temp4: T249</title>
<ellipse fill="none" stroke="black" cx="687.945" cy="-162" rx="59.5901" ry="18"/>
<text text-anchor="middle" x="687.945" y="-158.3" font-family="Times,serif" font-size="14.00">Temp4: T249</text>
</g>
<!-- ExpTemp4&#45;&gt;Temp4: T249 -->
<g id="edge38" class="edge"><title>ExpTemp4&#45;&gt;Temp4: T249</title>
<path fill="none" stroke="black" d="M706.893,-216.055C704.08,-208.176 700.665,-198.617 697.515,-189.794"/>
<polygon fill="black" stroke="black" points="700.774,-188.516 694.115,-180.275 694.182,-190.87 700.774,-188.516"/>
</g>
<!-- Label1: List@GetNext -->
<g id="node41" class="node"><title>Label1: List@GetNext</title>
<ellipse fill="none" stroke="black" cx="856.945" cy="-162" rx="91.784" ry="18"/>
<text text-anchor="middle" x="856.945" y="-158.3" font-family="Times,serif" font-size="14.00">Label1: List@GetNext</text>
</g>
<!-- ExpName0&#45;&gt;Label1: List@GetNext -->
<g id="edge37" class="edge"><title>ExpName0&#45;&gt;Label1: List@GetNext</title>
<path fill="none" stroke="black" d="M856.945,-215.697C856.945,-207.983 856.945,-198.712 856.945,-190.112"/>
<polygon fill="black" stroke="black" points="860.445,-190.104 856.945,-180.104 853.445,-190.104 860.445,-190.104"/>
</g>
<!-- ExpConst0 -->
<g id="node25" class="node"><title>ExpConst0</title>
<ellipse fill="none" stroke="black" cx="379.945" cy="-90" rx="50.0912" ry="18"/>
<text text-anchor="middle" x="379.945" y="-86.3" font-family="Times,serif" font-size="14.00">ExpConst0</text>
</g>
<!-- Value0: 32 -->
<g id="node26" class="node"><title>Value0: 32</title>
<ellipse fill="none" stroke="black" cx="379.945" cy="-18" rx="50.0912" ry="18"/>
<text text-anchor="middle" x="379.945" y="-14.3" font-family="Times,serif" font-size="14.00">Value0: 32</text>
</g>
<!-- ExpConst0&#45;&gt;Value0: 32 -->
<g id="edge19" class="edge"><title>ExpConst0&#45;&gt;Value0: 32</title>
<path fill="none" stroke="black" d="M379.945,-71.6966C379.945,-63.9827 379.945,-54.7125 379.945,-46.1124"/>
<polygon fill="black" stroke="black" points="383.445,-46.1043 379.945,-36.1043 376.445,-46.1044 383.445,-46.1043"/>
</g>
<!-- ExpMem1 -->
<g id="node27" class="node"><title>ExpMem1</title>
<ellipse fill="none" stroke="black" cx="1149.95" cy="-234" rx="48.9926" ry="18"/>
<text text-anchor="middle" x="1149.95" y="-230.3" font-family="Times,serif" font-size="14.00">ExpMem1</text>
</g>
<!-- ExpMem1&#45;&gt;ExpBinary1 -->
<g id="edge20" class="edge"><title>ExpMem1&#45;&gt;ExpBinary1</title>
<path fill="none" stroke="black" d="M1151.68,-215.697C1152.45,-207.983 1153.37,-198.712 1154.23,-190.112"/>
<polygon fill="black" stroke="black" points="1157.72,-190.403 1155.23,-180.104 1150.76,-189.706 1157.72,-190.403"/>
</g>
<!-- StatLabel0 -->
<g id="node28" class="node"><title>StatLabel0</title>
<ellipse fill="none" stroke="black" cx="114.945" cy="-306" rx="48.9926" ry="18"/>
<text text-anchor="middle" x="114.945" y="-302.3" font-family="Times,serif" font-size="14.00">StatLabel0</text>
</g>
<!-- Label0: L24 -->
<g id="node29" class="node"><title>Label0: L24</title>
<ellipse fill="none" stroke="black" cx="53.9452" cy="-234" rx="53.8905" ry="18"/>
<text text-anchor="middle" x="53.9452" y="-230.3" font-family="Times,serif" font-size="14.00">Label0: L24</text>
</g>
<!-- StatLabel0&#45;&gt;Label0: L24 -->
<g id="edge21" class="edge"><title>StatLabel0&#45;&gt;Label0: L24</title>
<path fill="none" stroke="black" d="M100.797,-288.765C93.2083,-280.056 83.7016,-269.147 75.2386,-259.435"/>
<polygon fill="black" stroke="black" points="77.6485,-256.873 68.44,-251.633 72.3712,-261.472 77.6485,-256.873"/>
</g>
<!-- StatList0 -->
<g id="node30" class="node"><title>StatList0</title>
<ellipse fill="none" stroke="black" cx="940.945" cy="-378" rx="42.4939" ry="18"/>
<text text-anchor="middle" x="940.945" y="-374.3" font-family="Times,serif" font-size="14.00">StatList0</text>
</g>
<!-- StatList0&#45;&gt;StatJump0 -->
<g id="edge29" class="edge"><title>StatList0&#45;&gt;StatJump0</title>
<path fill="none" stroke="black" d="M982.637,-374.758C1092.28,-368.675 1397.7,-350.512 1650.95,-324 1674.65,-321.519 1700.77,-318.107 1723.05,-314.99"/>
<polygon fill="black" stroke="black" points="1723.59,-318.45 1733,-313.584 1722.61,-311.518 1723.59,-318.45"/>
</g>
<!-- StatList0&#45;&gt;StatMove1 -->
<g id="edge24" class="edge"><title>StatList0&#45;&gt;StatMove1</title>
<path fill="none" stroke="black" d="M902.743,-370.161C832.717,-357.624 683.651,-330.937 603.532,-316.594"/>
<polygon fill="black" stroke="black" points="604.102,-313.14 593.642,-314.823 602.869,-320.031 604.102,-313.14"/>
</g>
<!-- StatList0&#45;&gt;StatMove5 -->
<g id="edge28" class="edge"><title>StatList0&#45;&gt;StatMove5</title>
<path fill="none" stroke="black" d="M981.668,-372.621C1093.46,-360.6 1405.38,-327.06 1534.67,-313.158"/>
<polygon fill="black" stroke="black" points="1535.2,-316.622 1544.77,-312.073 1534.45,-309.662 1535.2,-316.622"/>
</g>
<!-- StatList0&#45;&gt;StatMove2 -->
<g id="edge25" class="edge"><title>StatList0&#45;&gt;StatMove2</title>
<path fill="none" stroke="black" d="M922.303,-361.465C910.963,-352.015 896.293,-339.79 883.725,-329.316"/>
<polygon fill="black" stroke="black" points="885.749,-326.447 875.826,-322.734 881.267,-331.825 885.749,-326.447"/>
</g>
<!-- StatList0&#45;&gt;StatLabel0 -->
<g id="edge22" class="edge"><title>StatList0&#45;&gt;StatLabel0</title>
<path fill="none" stroke="black" d="M899.02,-374.841C789.471,-368.988 485.712,-351.389 233.945,-324 212.647,-321.683 189.295,-318.491 168.96,-315.498"/>
<polygon fill="black" stroke="black" points="169.344,-312.016 158.937,-314.003 168.311,-318.939 169.344,-312.016"/>
</g>
<!-- StatMove0 -->
<g id="node31" class="node"><title>StatMove0</title>
<ellipse fill="none" stroke="black" cx="292.945" cy="-306" rx="50.0912" ry="18"/>
<text text-anchor="middle" x="292.945" y="-302.3" font-family="Times,serif" font-size="14.00">StatMove0</text>
</g>
<!-- StatList0&#45;&gt;StatMove0 -->
<g id="edge23" class="edge"><title>StatList0&#45;&gt;StatMove0</title>
<path fill="none" stroke="black" d="M900.41,-372.621C789.264,-360.615 479.4,-327.142 350.421,-313.209"/>
<polygon fill="black" stroke="black" points="350.666,-309.715 340.348,-312.121 349.914,-316.675 350.666,-309.715"/>
</g>
<!-- StatMove3 -->
<g id="node32" class="node"><title>StatMove3</title>
<ellipse fill="none" stroke="black" cx="1025.95" cy="-306" rx="50.0912" ry="18"/>
<text text-anchor="middle" x="1025.95" y="-302.3" font-family="Times,serif" font-size="14.00">StatMove3</text>
</g>
<!-- StatList0&#45;&gt;StatMove3 -->
<g id="edge26" class="edge"><title>StatList0&#45;&gt;StatMove3</title>
<path fill="none" stroke="black" d="M959.809,-361.465C971.284,-352.015 986.129,-339.79 998.847,-329.316"/>
<polygon fill="black" stroke="black" points="1001.35,-331.793 1006.84,-322.734 996.895,-326.389 1001.35,-331.793"/>
</g>
<!-- StatMove4 -->
<g id="node33" class="node"><title>StatMove4</title>
<ellipse fill="none" stroke="black" cx="1287.95" cy="-306" rx="50.0912" ry="18"/>
<text text-anchor="middle" x="1287.95" y="-302.3" font-family="Times,serif" font-size="14.00">StatMove4</text>
</g>
<!-- StatList0&#45;&gt;StatMove4 -->
<g id="edge27" class="edge"><title>StatList0&#45;&gt;StatMove4</title>
<path fill="none" stroke="black" d="M978.41,-369.442C1040.46,-356.924 1164.73,-331.856 1235.48,-317.583"/>
<polygon fill="black" stroke="black" points="1236.41,-320.967 1245.52,-315.559 1235.02,-314.105 1236.41,-320.967"/>
</g>
<!-- ExpTemp0 -->
<g id="node34" class="node"><title>ExpTemp0</title>
<ellipse fill="none" stroke="black" cx="175.945" cy="-234" rx="50.0912" ry="18"/>
<text text-anchor="middle" x="175.945" y="-230.3" font-family="Times,serif" font-size="14.00">ExpTemp0</text>
</g>
<!-- StatMove0&#45;&gt;ExpTemp0 -->
<g id="edge34" class="edge"><title>StatMove0&#45;&gt;ExpTemp0</title>
<path fill="none" stroke="black" d="M268.133,-290.155C251.069,-279.946 228.206,-266.267 209.517,-255.086"/>
<polygon fill="black" stroke="black" points="211.101,-251.955 200.722,-249.824 207.507,-257.962 211.101,-251.955"/>
</g>
<!-- ExpMem0 -->
<g id="node39" class="node"><title>ExpMem0</title>
<ellipse fill="none" stroke="black" cx="292.945" cy="-234" rx="48.9926" ry="18"/>
<text text-anchor="middle" x="292.945" y="-230.3" font-family="Times,serif" font-size="14.00">ExpMem0</text>
</g>
<!-- StatMove0&#45;&gt;ExpMem0 -->
<g id="edge35" class="edge"><title>StatMove0&#45;&gt;ExpMem0</title>
<path fill="none" stroke="black" d="M292.945,-287.697C292.945,-279.983 292.945,-270.712 292.945,-262.112"/>
<polygon fill="black" stroke="black" points="296.445,-262.104 292.945,-252.104 289.445,-262.104 296.445,-262.104"/>
</g>
<!-- StatMove3&#45;&gt;ExpMem1 -->
<g id="edge44" class="edge"><title>StatMove3&#45;&gt;ExpMem1</title>
<path fill="none" stroke="black" d="M1051.64,-290.496C1070.09,-280.078 1095.17,-265.919 1115.38,-254.51"/>
<polygon fill="black" stroke="black" points="1117.3,-257.449 1124.29,-249.485 1113.86,-251.354 1117.3,-257.449"/>
</g>
<!-- ExpTemp5 -->
<g id="node46" class="node"><title>ExpTemp5</title>
<ellipse fill="none" stroke="black" cx="1025.95" cy="-234" rx="50.0912" ry="18"/>
<text text-anchor="middle" x="1025.95" y="-230.3" font-family="Times,serif" font-size="14.00">ExpTemp5</text>
</g>
<!-- StatMove3&#45;&gt;ExpTemp5 -->
<g id="edge43" class="edge"><title>StatMove3&#45;&gt;ExpTemp5</title>
<path fill="none" stroke="black" d="M1025.95,-287.697C1025.95,-279.983 1025.95,-270.712 1025.95,-262.112"/>
<polygon fill="black" stroke="black" points="1029.45,-262.104 1025.95,-252.104 1022.45,-262.104 1029.45,-262.104"/>
</g>
<!-- StatMove4&#45;&gt;ExpCall0 -->
<g id="edge48" class="edge"><title>StatMove4&#45;&gt;ExpCall0</title>
<path fill="none" stroke="black" d="M1314.16,-290.666C1333.65,-280.004 1360.44,-265.356 1381.64,-253.762"/>
<polygon fill="black" stroke="black" points="1383.55,-256.707 1390.64,-248.838 1380.19,-250.566 1383.55,-256.707"/>
</g>
<!-- ExpTemp7 -->
<g id="node43" class="node"><title>ExpTemp7</title>
<ellipse fill="none" stroke="black" cx="1287.95" cy="-234" rx="50.0912" ry="18"/>
<text text-anchor="middle" x="1287.95" y="-230.3" font-family="Times,serif" font-size="14.00">ExpTemp7</text>
</g>
<!-- StatMove4&#45;&gt;ExpTemp7 -->
<g id="edge47" class="edge"><title>StatMove4&#45;&gt;ExpTemp7</title>
<path fill="none" stroke="black" d="M1287.95,-287.697C1287.95,-279.983 1287.95,-270.712 1287.95,-262.112"/>
<polygon fill="black" stroke="black" points="1291.45,-262.104 1287.95,-252.104 1284.45,-262.104 1291.45,-262.104"/>
</g>
<!-- Temp0: T252 -->
<g id="node35" class="node"><title>Temp0: T252</title>
<ellipse fill="none" stroke="black" cx="149.945" cy="-162" rx="59.5901" ry="18"/>
<text text-anchor="middle" x="149.945" y="-158.3" font-family="Times,serif" font-size="14.00">Temp0: T252</text>
</g>
<!-- ExpTemp0&#45;&gt;Temp0: T252 -->
<g id="edge30" class="edge"><title>ExpTemp0&#45;&gt;Temp0: T252</title>
<path fill="none" stroke="black" d="M169.651,-216.055C166.725,-208.176 163.174,-198.617 159.897,-189.794"/>
<polygon fill="black" stroke="black" points="163.125,-188.431 156.362,-180.275 156.563,-190.868 163.125,-188.431"/>
</g>
<!-- ExpBinary0 -->
<g id="node36" class="node"><title>ExpBinary0</title>
<ellipse fill="none" stroke="black" cx="280.945" cy="-162" rx="53.0913" ry="18"/>
<text text-anchor="middle" x="280.945" y="-158.3" font-family="Times,serif" font-size="14.00">ExpBinary0</text>
</g>
<!-- ExpBinary0&#45;&gt;ExpConst0 -->
<g id="edge33" class="edge"><title>ExpBinary0&#45;&gt;ExpConst0</title>
<path fill="none" stroke="black" d="M302.917,-145.465C316.726,-135.7 334.727,-122.972 349.855,-112.276"/>
<polygon fill="black" stroke="black" points="352.231,-114.882 358.376,-106.251 348.19,-109.167 352.231,-114.882"/>
</g>
<!-- ExpTemp1 -->
<g id="node37" class="node"><title>ExpTemp1</title>
<ellipse fill="none" stroke="black" cx="181.945" cy="-90" rx="50.0912" ry="18"/>
<text text-anchor="middle" x="181.945" y="-86.3" font-family="Times,serif" font-size="14.00">ExpTemp1</text>
</g>
<!-- ExpBinary0&#45;&gt;ExpTemp1 -->
<g id="edge31" class="edge"><title>ExpBinary0&#45;&gt;ExpTemp1</title>
<path fill="none" stroke="black" d="M258.974,-145.465C245.164,-135.7 227.163,-122.972 212.036,-112.276"/>
<polygon fill="black" stroke="black" points="213.7,-109.167 203.514,-106.251 209.659,-114.882 213.7,-109.167"/>
</g>
<!-- Plus0 -->
<g id="node38" class="node"><title>Plus0</title>
<ellipse fill="none" stroke="black" cx="280.945" cy="-90" rx="30.5947" ry="18"/>
<text text-anchor="middle" x="280.945" y="-86.3" font-family="Times,serif" font-size="14.00">Plus0</text>
</g>
<!-- ExpBinary0&#45;&gt;Plus0 -->
<g id="edge32" class="edge"><title>ExpBinary0&#45;&gt;Plus0</title>
<path fill="none" stroke="black" d="M280.945,-143.697C280.945,-135.983 280.945,-126.712 280.945,-118.112"/>
<polygon fill="black" stroke="black" points="284.445,-118.104 280.945,-108.104 277.445,-118.104 284.445,-118.104"/>
</g>
<!-- Temp1: $fp -->
<g id="node45" class="node"><title>Temp1: $fp</title>
<ellipse fill="none" stroke="black" cx="181.945" cy="-18" rx="52.7911" ry="18"/>
<text text-anchor="middle" x="181.945" y="-14.3" font-family="Times,serif" font-size="14.00">Temp1: $fp</text>
</g>
<!-- ExpTemp1&#45;&gt;Temp1: $fp -->
<g id="edge40" class="edge"><title>ExpTemp1&#45;&gt;Temp1: $fp</title>
<path fill="none" stroke="black" d="M181.945,-71.6966C181.945,-63.9827 181.945,-54.7125 181.945,-46.1124"/>
<polygon fill="black" stroke="black" points="185.445,-46.1043 181.945,-36.1043 178.445,-46.1044 185.445,-46.1043"/>
</g>
<!-- ExpMem0&#45;&gt;ExpBinary0 -->
<g id="edge46" class="edge"><title>ExpMem0&#45;&gt;ExpBinary0</title>
<path fill="none" stroke="black" d="M289.979,-215.697C288.657,-207.983 287.067,-198.712 285.593,-190.112"/>
<polygon fill="black" stroke="black" points="289.017,-189.369 283.877,-180.104 282.117,-190.552 289.017,-189.369"/>
</g>
<!-- Temp7: T251 -->
<g id="node44" class="node"><title>Temp7: T251</title>
<ellipse fill="none" stroke="black" cx="1287.95" cy="-162" rx="59.5901" ry="18"/>
<text text-anchor="middle" x="1287.95" y="-158.3" font-family="Times,serif" font-size="14.00">Temp7: T251</text>
</g>
<!-- ExpTemp7&#45;&gt;Temp7: T251 -->
<g id="edge39" class="edge"><title>ExpTemp7&#45;&gt;Temp7: T251</title>
<path fill="none" stroke="black" d="M1287.95,-215.697C1287.95,-207.983 1287.95,-198.712 1287.95,-190.112"/>
<polygon fill="black" stroke="black" points="1291.45,-190.104 1287.95,-180.104 1284.45,-190.104 1291.45,-190.104"/>
</g>
<!-- Temp5: T250 -->
<g id="node47" class="node"><title>Temp5: T250</title>
<ellipse fill="none" stroke="black" cx="1025.95" cy="-162" rx="59.5901" ry="18"/>
<text text-anchor="middle" x="1025.95" y="-158.3" font-family="Times,serif" font-size="14.00">Temp5: T250</text>
</g>
<!-- ExpTemp5&#45;&gt;Temp5: T250 -->
<g id="edge41" class="edge"><title>ExpTemp5&#45;&gt;Temp5: T250</title>
<path fill="none" stroke="black" d="M1025.95,-215.697C1025.95,-207.983 1025.95,-198.712 1025.95,-190.112"/>
<polygon fill="black" stroke="black" points="1029.45,-190.104 1025.95,-180.104 1022.45,-190.104 1029.45,-190.104"/>
</g>
</g>
</svg>
