<?xml version="1.0" encoding="UTF-8" standalone="no"?>
<!DOCTYPE svg PUBLIC "-//W3C//DTD SVG 1.1//EN"
 "http://www.w3.org/Graphics/SVG/1.1/DTD/svg11.dtd">
<!-- Generated by graphviz version 2.38.0 (20140413.2041)
 -->
<!-- Title: %3 Pages: 1 -->
<svg width="739pt" height="404pt"
 viewBox="0.00 0.00 739.14 404.00" xmlns="http://www.w3.org/2000/svg" xmlns:xlink="http://www.w3.org/1999/xlink">
<g id="graph0" class="graph" transform="scale(1 1) rotate(0) translate(4 400)">
<title>%3</title>
<polygon fill="white" stroke="none" points="-4,4 -4,-400 735.141,-400 735.141,4 -4,4"/>
<!-- AddConst2 -->
<g id="node1" class="node"><title>AddConst2</title>
<ellipse fill="none" stroke="black" cx="577.645" cy="-234" rx="50.8918" ry="18"/>
<text text-anchor="middle" x="577.645" y="-230.3" font-family="Times,serif" font-size="14.00">AddConst2</text>
</g>
<!-- NullExp2 -->
<g id="node2" class="node"><title>NullExp2</title>
<ellipse fill="none" stroke="black" cx="577.645" cy="-162" rx="44.6926" ry="18"/>
<text text-anchor="middle" x="577.645" y="-158.3" font-family="Times,serif" font-size="14.00">NullExp2</text>
</g>
<!-- AddConst2&#45;&gt;NullExp2 -->
<g id="edge1" class="edge"><title>AddConst2&#45;&gt;NullExp2</title>
<path fill="none" stroke="black" d="M577.645,-215.697C577.645,-207.983 577.645,-198.712 577.645,-190.112"/>
<polygon fill="black" stroke="black" points="581.145,-190.104 577.645,-180.104 574.145,-190.104 581.145,-190.104"/>
</g>
<!-- Value5: 1 -->
<g id="node3" class="node"><title>Value5: 1</title>
<ellipse fill="none" stroke="black" cx="685.645" cy="-162" rx="45.4919" ry="18"/>
<text text-anchor="middle" x="685.645" y="-158.3" font-family="Times,serif" font-size="14.00">Value5: 1</text>
</g>
<!-- AddConst2&#45;&gt;Value5: 1 -->
<g id="edge2" class="edge"><title>AddConst2&#45;&gt;Value5: 1</title>
<path fill="none" stroke="black" d="M600.814,-217.983C616.437,-207.857 637.238,-194.375 654.332,-183.296"/>
<polygon fill="black" stroke="black" points="656.398,-186.128 662.886,-177.752 652.59,-180.254 656.398,-186.128"/>
</g>
<!-- Load0 -->
<g id="node4" class="node"><title>Load0</title>
<ellipse fill="none" stroke="black" cx="268.645" cy="-306" rx="33.2948" ry="18"/>
<text text-anchor="middle" x="268.645" y="-302.3" font-family="Times,serif" font-size="14.00">Load0</text>
</g>
<!-- Add0 -->
<g id="node5" class="node"><title>Add0</title>
<ellipse fill="none" stroke="black" cx="171.645" cy="-234" rx="30.5947" ry="18"/>
<text text-anchor="middle" x="171.645" y="-230.3" font-family="Times,serif" font-size="14.00">Add0</text>
</g>
<!-- Load0&#45;&gt;Add0 -->
<g id="edge3" class="edge"><title>Load0&#45;&gt;Add0</title>
<path fill="none" stroke="black" d="M249.481,-291.17C235.04,-280.749 215.04,-266.316 198.929,-254.69"/>
<polygon fill="black" stroke="black" points="200.597,-251.577 190.44,-248.563 196.5,-257.253 200.597,-251.577"/>
</g>
<!-- Value1: 0 -->
<g id="node6" class="node"><title>Value1: 0</title>
<ellipse fill="none" stroke="black" cx="268.645" cy="-234" rx="45.4919" ry="18"/>
<text text-anchor="middle" x="268.645" y="-230.3" font-family="Times,serif" font-size="14.00">Value1: 0</text>
</g>
<!-- Load0&#45;&gt;Value1: 0 -->
<g id="edge4" class="edge"><title>Load0&#45;&gt;Value1: 0</title>
<path fill="none" stroke="black" d="M268.645,-287.697C268.645,-279.983 268.645,-270.712 268.645,-262.112"/>
<polygon fill="black" stroke="black" points="272.145,-262.104 268.645,-252.104 265.145,-262.104 272.145,-262.104"/>
</g>
<!-- AddConst0 -->
<g id="node7" class="node"><title>AddConst0</title>
<ellipse fill="none" stroke="black" cx="171.645" cy="-162" rx="50.8918" ry="18"/>
<text text-anchor="middle" x="171.645" y="-158.3" font-family="Times,serif" font-size="14.00">AddConst0</text>
</g>
<!-- Add0&#45;&gt;AddConst0 -->
<g id="edge8" class="edge"><title>Add0&#45;&gt;AddConst0</title>
<path fill="none" stroke="black" d="M171.645,-215.697C171.645,-207.983 171.645,-198.712 171.645,-190.112"/>
<polygon fill="black" stroke="black" points="175.145,-190.104 171.645,-180.104 168.145,-190.104 175.145,-190.104"/>
</g>
<!-- Temp0 -->
<g id="node10" class="node"><title>Temp0</title>
<ellipse fill="none" stroke="black" cx="53.6453" cy="-162" rx="36.2938" ry="18"/>
<text text-anchor="middle" x="53.6453" y="-158.3" font-family="Times,serif" font-size="14.00">Temp0</text>
</g>
<!-- Add0&#45;&gt;Temp0 -->
<g id="edge7" class="edge"><title>Add0&#45;&gt;Temp0</title>
<path fill="none" stroke="black" d="M150.821,-220.647C132.609,-209.843 105.891,-193.993 85.0779,-181.646"/>
<polygon fill="black" stroke="black" points="86.6588,-178.515 76.2726,-176.423 83.0874,-184.535 86.6588,-178.515"/>
</g>
<!-- NullExp0 -->
<g id="node8" class="node"><title>NullExp0</title>
<ellipse fill="none" stroke="black" cx="167.645" cy="-90" rx="44.6926" ry="18"/>
<text text-anchor="middle" x="167.645" y="-86.3" font-family="Times,serif" font-size="14.00">NullExp0</text>
</g>
<!-- AddConst0&#45;&gt;NullExp0 -->
<g id="edge5" class="edge"><title>AddConst0&#45;&gt;NullExp0</title>
<path fill="none" stroke="black" d="M170.657,-143.697C170.216,-135.983 169.686,-126.712 169.195,-118.112"/>
<polygon fill="black" stroke="black" points="172.688,-117.888 168.623,-108.104 165.699,-118.288 172.688,-117.888"/>
</g>
<!-- Value0: 8 -->
<g id="node9" class="node"><title>Value0: 8</title>
<ellipse fill="none" stroke="black" cx="275.645" cy="-90" rx="45.4919" ry="18"/>
<text text-anchor="middle" x="275.645" y="-86.3" font-family="Times,serif" font-size="14.00">Value0: 8</text>
</g>
<!-- AddConst0&#45;&gt;Value0: 8 -->
<g id="edge6" class="edge"><title>AddConst0&#45;&gt;Value0: 8</title>
<path fill="none" stroke="black" d="M194.212,-145.811C209.031,-135.836 228.606,-122.661 244.85,-111.728"/>
<polygon fill="black" stroke="black" points="247.139,-114.406 253.48,-105.919 243.23,-108.599 247.139,-114.406"/>
</g>
<!-- Temp1: $fp -->
<g id="node11" class="node"><title>Temp1: $fp</title>
<ellipse fill="none" stroke="black" cx="52.6453" cy="-90" rx="52.7911" ry="18"/>
<text text-anchor="middle" x="52.6453" y="-86.3" font-family="Times,serif" font-size="14.00">Temp1: $fp</text>
</g>
<!-- Temp0&#45;&gt;Temp1: $fp -->
<g id="edge9" class="edge"><title>Temp0&#45;&gt;Temp1: $fp</title>
<path fill="none" stroke="black" d="M53.3981,-143.697C53.2879,-135.983 53.1555,-126.712 53.0326,-118.112"/>
<polygon fill="black" stroke="black" points="56.5323,-118.053 52.8897,-108.104 49.533,-118.153 56.5323,-118.053"/>
</g>
<!-- Load1 -->
<g id="node12" class="node"><title>Load1</title>
<ellipse fill="none" stroke="black" cx="462.645" cy="-234" rx="33.2948" ry="18"/>
<text text-anchor="middle" x="462.645" y="-230.3" font-family="Times,serif" font-size="14.00">Load1</text>
</g>
<!-- Add2 -->
<g id="node13" class="node"><title>Add2</title>
<ellipse fill="none" stroke="black" cx="375.645" cy="-162" rx="30.5947" ry="18"/>
<text text-anchor="middle" x="375.645" y="-158.3" font-family="Times,serif" font-size="14.00">Add2</text>
</g>
<!-- Load1&#45;&gt;Add2 -->
<g id="edge10" class="edge"><title>Load1&#45;&gt;Add2</title>
<path fill="none" stroke="black" d="M444.619,-218.496C431.971,-208.319 414.886,-194.573 400.885,-183.308"/>
<polygon fill="black" stroke="black" points="403.04,-180.55 393.055,-177.008 398.652,-186.004 403.04,-180.55"/>
</g>
<!-- Value4: 0 -->
<g id="node14" class="node"><title>Value4: 0</title>
<ellipse fill="none" stroke="black" cx="469.645" cy="-162" rx="45.4919" ry="18"/>
<text text-anchor="middle" x="469.645" y="-158.3" font-family="Times,serif" font-size="14.00">Value4: 0</text>
</g>
<!-- Load1&#45;&gt;Value4: 0 -->
<g id="edge11" class="edge"><title>Load1&#45;&gt;Value4: 0</title>
<path fill="none" stroke="black" d="M464.376,-215.697C465.147,-207.983 466.074,-198.712 466.934,-190.112"/>
<polygon fill="black" stroke="black" points="470.422,-190.403 467.935,-180.104 463.457,-189.706 470.422,-190.403"/>
</g>
<!-- Temp2 -->
<g id="node15" class="node"><title>Temp2</title>
<ellipse fill="none" stroke="black" cx="375.645" cy="-90" rx="36.2938" ry="18"/>
<text text-anchor="middle" x="375.645" y="-86.3" font-family="Times,serif" font-size="14.00">Temp2</text>
</g>
<!-- Add2&#45;&gt;Temp2 -->
<g id="edge13" class="edge"><title>Add2&#45;&gt;Temp2</title>
<path fill="none" stroke="black" d="M375.645,-143.697C375.645,-135.983 375.645,-126.712 375.645,-118.112"/>
<polygon fill="black" stroke="black" points="379.145,-118.104 375.645,-108.104 372.145,-118.104 379.145,-118.104"/>
</g>
<!-- AddConst1 -->
<g id="node17" class="node"><title>AddConst1</title>
<ellipse fill="none" stroke="black" cx="485.645" cy="-90" rx="50.8918" ry="18"/>
<text text-anchor="middle" x="485.645" y="-86.3" font-family="Times,serif" font-size="14.00">AddConst1</text>
</g>
<!-- Add2&#45;&gt;AddConst1 -->
<g id="edge14" class="edge"><title>Add2&#45;&gt;AddConst1</title>
<path fill="none" stroke="black" d="M395.565,-148.324C411.707,-138.052 434.766,-123.378 453.513,-111.448"/>
<polygon fill="black" stroke="black" points="455.493,-114.336 462.051,-106.015 451.735,-108.431 455.493,-114.336"/>
</g>
<!-- Temp3: $fp -->
<g id="node16" class="node"><title>Temp3: $fp</title>
<ellipse fill="none" stroke="black" cx="370.645" cy="-18" rx="52.7911" ry="18"/>
<text text-anchor="middle" x="370.645" y="-14.3" font-family="Times,serif" font-size="14.00">Temp3: $fp</text>
</g>
<!-- Temp2&#45;&gt;Temp3: $fp -->
<g id="edge12" class="edge"><title>Temp2&#45;&gt;Temp3: $fp</title>
<path fill="none" stroke="black" d="M374.409,-71.6966C373.858,-63.9827 373.196,-54.7125 372.582,-46.1124"/>
<polygon fill="black" stroke="black" points="376.071,-45.8295 371.867,-36.1043 369.089,-46.3283 376.071,-45.8295"/>
</g>
<!-- NullExp1 -->
<g id="node18" class="node"><title>NullExp1</title>
<ellipse fill="none" stroke="black" cx="485.645" cy="-18" rx="44.6926" ry="18"/>
<text text-anchor="middle" x="485.645" y="-14.3" font-family="Times,serif" font-size="14.00">NullExp1</text>
</g>
<!-- AddConst1&#45;&gt;NullExp1 -->
<g id="edge15" class="edge"><title>AddConst1&#45;&gt;NullExp1</title>
<path fill="none" stroke="black" d="M485.645,-71.6966C485.645,-63.9827 485.645,-54.7125 485.645,-46.1124"/>
<polygon fill="black" stroke="black" points="489.145,-46.1043 485.645,-36.1043 482.145,-46.1044 489.145,-46.1043"/>
</g>
<!-- Value3: 8 -->
<g id="node19" class="node"><title>Value3: 8</title>
<ellipse fill="none" stroke="black" cx="593.645" cy="-18" rx="45.4919" ry="18"/>
<text text-anchor="middle" x="593.645" y="-14.3" font-family="Times,serif" font-size="14.00">Value3: 8</text>
</g>
<!-- AddConst1&#45;&gt;Value3: 8 -->
<g id="edge16" class="edge"><title>AddConst1&#45;&gt;Value3: 8</title>
<path fill="none" stroke="black" d="M508.814,-73.9832C524.437,-63.8573 545.238,-50.3753 562.332,-39.2959"/>
<polygon fill="black" stroke="black" points="564.398,-42.1277 570.886,-33.7517 560.59,-36.2536 564.398,-42.1277"/>
</g>
<!-- Store0 -->
<g id="node20" class="node"><title>Store0</title>
<ellipse fill="none" stroke="black" cx="366.645" cy="-378" rx="33.5952" ry="18"/>
<text text-anchor="middle" x="366.645" y="-374.3" font-family="Times,serif" font-size="14.00">Store0</text>
</g>
<!-- Store0&#45;&gt;Load0 -->
<g id="edge17" class="edge"><title>Store0&#45;&gt;Load0</title>
<path fill="none" stroke="black" d="M347.284,-363.17C332.787,-352.816 312.748,-338.502 296.526,-326.915"/>
<polygon fill="black" stroke="black" points="298.138,-323.765 287.967,-320.801 294.07,-329.462 298.138,-323.765"/>
</g>
<!-- Value2: 8 -->
<g id="node21" class="node"><title>Value2: 8</title>
<ellipse fill="none" stroke="black" cx="366.645" cy="-306" rx="45.4919" ry="18"/>
<text text-anchor="middle" x="366.645" y="-302.3" font-family="Times,serif" font-size="14.00">Value2: 8</text>
</g>
<!-- Store0&#45;&gt;Value2: 8 -->
<g id="edge18" class="edge"><title>Store0&#45;&gt;Value2: 8</title>
<path fill="none" stroke="black" d="M360.767,-360.055C359.949,-352.346 359.707,-343.027 360.04,-334.364"/>
<polygon fill="black" stroke="black" points="363.54,-334.491 360.733,-324.275 356.556,-334.012 363.54,-334.491"/>
</g>
<!-- Store0&#45;&gt;Value2: 8 -->
<g id="edge20" class="edge"><title>Store0&#45;&gt;Value2: 8</title>
<path fill="none" stroke="black" d="M372.524,-360.055C373.342,-352.346 373.584,-343.027 373.25,-334.364"/>
<polygon fill="black" stroke="black" points="376.735,-334.012 372.558,-324.275 369.751,-334.491 376.735,-334.012"/>
</g>
<!-- Add1 -->
<g id="node22" class="node"><title>Add1</title>
<ellipse fill="none" stroke="black" cx="462.645" cy="-306" rx="30.5947" ry="18"/>
<text text-anchor="middle" x="462.645" y="-302.3" font-family="Times,serif" font-size="14.00">Add1</text>
</g>
<!-- Store0&#45;&gt;Add1 -->
<g id="edge19" class="edge"><title>Store0&#45;&gt;Add1</title>
<path fill="none" stroke="black" d="M386.072,-362.834C400.403,-352.385 420.076,-338.04 435.892,-326.507"/>
<polygon fill="black" stroke="black" points="438.206,-329.152 444.224,-320.432 434.082,-323.496 438.206,-329.152"/>
</g>
<!-- Add1&#45;&gt;AddConst2 -->
<g id="edge22" class="edge"><title>Add1&#45;&gt;AddConst2</title>
<path fill="none" stroke="black" d="M483.205,-292.485C500.237,-282.118 524.767,-267.187 544.558,-255.14"/>
<polygon fill="black" stroke="black" points="546.552,-258.024 553.274,-249.834 542.913,-252.044 546.552,-258.024"/>
</g>
<!-- Add1&#45;&gt;Load1 -->
<g id="edge21" class="edge"><title>Add1&#45;&gt;Load1</title>
<path fill="none" stroke="black" d="M462.645,-287.697C462.645,-279.983 462.645,-270.712 462.645,-262.112"/>
<polygon fill="black" stroke="black" points="466.145,-262.104 462.645,-252.104 459.145,-262.104 466.145,-262.104"/>
</g>
</g>
</svg>
