<?xml version="1.0" encoding="UTF-8" standalone="no"?>
<!DOCTYPE svg PUBLIC "-//W3C//DTD SVG 1.1//EN"
 "http://www.w3.org/Graphics/SVG/1.1/DTD/svg11.dtd">
<!-- Generated by graphviz version 2.38.0 (20140413.2041)
 -->
<!-- Title: %3 Pages: 1 -->
<svg width="745pt" height="404pt"
 viewBox="0.00 0.00 745.14 404.00" xmlns="http://www.w3.org/2000/svg" xmlns:xlink="http://www.w3.org/1999/xlink">
<g id="graph0" class="graph" transform="scale(1 1) rotate(0) translate(4 400)">
<title>%3</title>
<polygon fill="white" stroke="none" points="-4,4 -4,-400 741.141,-400 741.141,4 -4,4"/>
<!-- AddConst1 -->
<g id="node1" class="node"><title>AddConst1</title>
<ellipse fill="none" stroke="black" cx="583.645" cy="-162" rx="50.8918" ry="18"/>
<text text-anchor="middle" x="583.645" y="-158.3" font-family="Times,serif" font-size="14.00">AddConst1</text>
</g>
<!-- NullExp1 -->
<g id="node2" class="node"><title>NullExp1</title>
<ellipse fill="none" stroke="black" cx="583.645" cy="-90" rx="44.6926" ry="18"/>
<text text-anchor="middle" x="583.645" y="-86.3" font-family="Times,serif" font-size="14.00">NullExp1</text>
</g>
<!-- AddConst1&#45;&gt;NullExp1 -->
<g id="edge1" class="edge"><title>AddConst1&#45;&gt;NullExp1</title>
<path fill="none" stroke="black" d="M583.645,-143.697C583.645,-135.983 583.645,-126.712 583.645,-118.112"/>
<polygon fill="black" stroke="black" points="587.145,-118.104 583.645,-108.104 580.145,-118.104 587.145,-118.104"/>
</g>
<!-- Value3: 4 -->
<g id="node3" class="node"><title>Value3: 4</title>
<ellipse fill="none" stroke="black" cx="691.645" cy="-90" rx="45.4919" ry="18"/>
<text text-anchor="middle" x="691.645" y="-86.3" font-family="Times,serif" font-size="14.00">Value3: 4</text>
</g>
<!-- AddConst1&#45;&gt;Value3: 4 -->
<g id="edge2" class="edge"><title>AddConst1&#45;&gt;Value3: 4</title>
<path fill="none" stroke="black" d="M606.814,-145.983C622.437,-135.857 643.238,-122.375 660.332,-111.296"/>
<polygon fill="black" stroke="black" points="662.398,-114.128 668.886,-105.752 658.59,-108.254 662.398,-114.128"/>
</g>
<!-- Add1 -->
<g id="node4" class="node"><title>Add1</title>
<ellipse fill="none" stroke="black" cx="419.645" cy="-234" rx="30.5947" ry="18"/>
<text text-anchor="middle" x="419.645" y="-230.3" font-family="Times,serif" font-size="14.00">Add1</text>
</g>
<!-- Add1&#45;&gt;AddConst1 -->
<g id="edge4" class="edge"><title>Add1&#45;&gt;AddConst1</title>
<path fill="none" stroke="black" d="M443.844,-222.671C470.006,-211.505 512.14,-193.521 543.322,-180.211"/>
<polygon fill="black" stroke="black" points="544.794,-183.388 552.617,-176.244 542.046,-176.95 544.794,-183.388"/>
</g>
<!-- Load2 -->
<g id="node5" class="node"><title>Load2</title>
<ellipse fill="none" stroke="black" cx="419.645" cy="-162" rx="33.2948" ry="18"/>
<text text-anchor="middle" x="419.645" y="-158.3" font-family="Times,serif" font-size="14.00">Load2</text>
</g>
<!-- Add1&#45;&gt;Load2 -->
<g id="edge3" class="edge"><title>Add1&#45;&gt;Load2</title>
<path fill="none" stroke="black" d="M419.645,-215.697C419.645,-207.983 419.645,-198.712 419.645,-190.112"/>
<polygon fill="black" stroke="black" points="423.145,-190.104 419.645,-180.104 416.145,-190.104 423.145,-190.104"/>
</g>
<!-- Temp2 -->
<g id="node8" class="node"><title>Temp2</title>
<ellipse fill="none" stroke="black" cx="375.645" cy="-90" rx="36.2938" ry="18"/>
<text text-anchor="middle" x="375.645" y="-86.3" font-family="Times,serif" font-size="14.00">Temp2</text>
</g>
<!-- Load2&#45;&gt;Temp2 -->
<g id="edge7" class="edge"><title>Load2&#45;&gt;Temp2</title>
<path fill="none" stroke="black" d="M409.44,-144.765C404.13,-136.317 397.519,-125.799 391.556,-116.312"/>
<polygon fill="black" stroke="black" points="394.386,-114.237 386.101,-107.633 388.459,-117.962 394.386,-114.237"/>
</g>
<!-- Value2: 0 -->
<g id="node9" class="node"><title>Value2: 0</title>
<ellipse fill="none" stroke="black" cx="475.645" cy="-90" rx="45.4919" ry="18"/>
<text text-anchor="middle" x="475.645" y="-86.3" font-family="Times,serif" font-size="14.00">Value2: 0</text>
</g>
<!-- Load2&#45;&gt;Value2: 0 -->
<g id="edge8" class="edge"><title>Load2&#45;&gt;Value2: 0</title>
<path fill="none" stroke="black" d="M432.353,-145.116C439.412,-136.292 448.341,-125.13 456.255,-115.238"/>
<polygon fill="black" stroke="black" points="459.086,-117.302 462.6,-107.307 453.62,-112.929 459.086,-117.302"/>
</g>
<!-- Load1 -->
<g id="node6" class="node"><title>Load1</title>
<ellipse fill="none" stroke="black" cx="419.645" cy="-306" rx="33.2948" ry="18"/>
<text text-anchor="middle" x="419.645" y="-302.3" font-family="Times,serif" font-size="14.00">Load1</text>
</g>
<!-- Load1&#45;&gt;Add1 -->
<g id="edge5" class="edge"><title>Load1&#45;&gt;Add1</title>
<path fill="none" stroke="black" d="M419.645,-287.697C419.645,-279.983 419.645,-270.712 419.645,-262.112"/>
<polygon fill="black" stroke="black" points="423.145,-262.104 419.645,-252.104 416.145,-262.104 423.145,-262.104"/>
</g>
<!-- Value4: 0 -->
<g id="node7" class="node"><title>Value4: 0</title>
<ellipse fill="none" stroke="black" cx="513.645" cy="-234" rx="45.4919" ry="18"/>
<text text-anchor="middle" x="513.645" y="-230.3" font-family="Times,serif" font-size="14.00">Value4: 0</text>
</g>
<!-- Load1&#45;&gt;Value4: 0 -->
<g id="edge6" class="edge"><title>Load1&#45;&gt;Value4: 0</title>
<path fill="none" stroke="black" d="M438.668,-290.834C452.066,-280.857 470.233,-267.328 485.329,-256.086"/>
<polygon fill="black" stroke="black" points="487.42,-258.893 493.35,-250.114 483.239,-253.279 487.42,-258.893"/>
</g>
<!-- Temp3: $fp -->
<g id="node10" class="node"><title>Temp3: $fp</title>
<ellipse fill="none" stroke="black" cx="375.645" cy="-18" rx="52.7911" ry="18"/>
<text text-anchor="middle" x="375.645" y="-14.3" font-family="Times,serif" font-size="14.00">Temp3: $fp</text>
</g>
<!-- Temp2&#45;&gt;Temp3: $fp -->
<g id="edge9" class="edge"><title>Temp2&#45;&gt;Temp3: $fp</title>
<path fill="none" stroke="black" d="M375.645,-71.6966C375.645,-63.9827 375.645,-54.7125 375.645,-46.1124"/>
<polygon fill="black" stroke="black" points="379.145,-46.1043 375.645,-36.1043 372.145,-46.1044 379.145,-46.1043"/>
</g>
<!-- CJump0 -->
<g id="node11" class="node"><title>CJump0</title>
<ellipse fill="none" stroke="black" cx="367.645" cy="-378" rx="40.0939" ry="18"/>
<text text-anchor="middle" x="367.645" y="-374.3" font-family="Times,serif" font-size="14.00">CJump0</text>
</g>
<!-- CJump0&#45;&gt;Load1 -->
<g id="edge11" class="edge"><title>CJump0&#45;&gt;Load1</title>
<path fill="none" stroke="black" d="M379.706,-360.765C386.203,-352.018 394.35,-341.052 401.588,-331.308"/>
<polygon fill="black" stroke="black" points="404.497,-333.262 407.65,-323.147 398.877,-329.088 404.497,-333.262"/>
</g>
<!-- Load0 -->
<g id="node12" class="node"><title>Load0</title>
<ellipse fill="none" stroke="black" cx="316.645" cy="-306" rx="33.2948" ry="18"/>
<text text-anchor="middle" x="316.645" y="-302.3" font-family="Times,serif" font-size="14.00">Load0</text>
</g>
<!-- CJump0&#45;&gt;Load0 -->
<g id="edge10" class="edge"><title>CJump0&#45;&gt;Load0</title>
<path fill="none" stroke="black" d="M355.817,-360.765C349.444,-352.018 341.455,-341.052 334.356,-331.308"/>
<polygon fill="black" stroke="black" points="337.127,-329.169 328.41,-323.147 331.47,-333.291 337.127,-329.169"/>
</g>
<!-- Add0 -->
<g id="node15" class="node"><title>Add0</title>
<ellipse fill="none" stroke="black" cx="204.645" cy="-234" rx="30.5947" ry="18"/>
<text text-anchor="middle" x="204.645" y="-230.3" font-family="Times,serif" font-size="14.00">Add0</text>
</g>
<!-- Load0&#45;&gt;Add0 -->
<g id="edge17" class="edge"><title>Load0&#45;&gt;Add0</title>
<path fill="none" stroke="black" d="M295.579,-291.834C278.074,-280.893 252.986,-265.213 233.595,-253.093"/>
<polygon fill="black" stroke="black" points="235.198,-249.968 224.863,-247.636 231.488,-255.904 235.198,-249.968"/>
</g>
<!-- Value1: 0 -->
<g id="node19" class="node"><title>Value1: 0</title>
<ellipse fill="none" stroke="black" cx="316.645" cy="-234" rx="45.4919" ry="18"/>
<text text-anchor="middle" x="316.645" y="-230.3" font-family="Times,serif" font-size="14.00">Value1: 0</text>
</g>
<!-- Load0&#45;&gt;Value1: 0 -->
<g id="edge18" class="edge"><title>Load0&#45;&gt;Value1: 0</title>
<path fill="none" stroke="black" d="M316.645,-287.697C316.645,-279.983 316.645,-270.712 316.645,-262.112"/>
<polygon fill="black" stroke="black" points="320.145,-262.104 316.645,-252.104 313.145,-262.104 320.145,-262.104"/>
</g>
<!-- Temp0 -->
<g id="node13" class="node"><title>Temp0</title>
<ellipse fill="none" stroke="black" cx="62.6453" cy="-162" rx="36.2938" ry="18"/>
<text text-anchor="middle" x="62.6453" y="-158.3" font-family="Times,serif" font-size="14.00">Temp0</text>
</g>
<!-- Temp1: $fp -->
<g id="node14" class="node"><title>Temp1: $fp</title>
<ellipse fill="none" stroke="black" cx="52.6453" cy="-90" rx="52.7911" ry="18"/>
<text text-anchor="middle" x="52.6453" y="-86.3" font-family="Times,serif" font-size="14.00">Temp1: $fp</text>
</g>
<!-- Temp0&#45;&gt;Temp1: $fp -->
<g id="edge12" class="edge"><title>Temp0&#45;&gt;Temp1: $fp</title>
<path fill="none" stroke="black" d="M60.1734,-143.697C59.0714,-135.983 57.7471,-126.712 56.5185,-118.112"/>
<polygon fill="black" stroke="black" points="59.9679,-117.509 55.0888,-108.104 53.0383,-118.499 59.9679,-117.509"/>
</g>
<!-- Add0&#45;&gt;Temp0 -->
<g id="edge13" class="edge"><title>Add0&#45;&gt;Temp0</title>
<path fill="none" stroke="black" d="M181.831,-221.753C158.928,-210.463 123.361,-192.93 97.0367,-179.954"/>
<polygon fill="black" stroke="black" points="98.3139,-176.681 87.797,-175.399 95.2188,-182.96 98.3139,-176.681"/>
</g>
<!-- AddConst0 -->
<g id="node16" class="node"><title>AddConst0</title>
<ellipse fill="none" stroke="black" cx="204.645" cy="-162" rx="50.8918" ry="18"/>
<text text-anchor="middle" x="204.645" y="-158.3" font-family="Times,serif" font-size="14.00">AddConst0</text>
</g>
<!-- Add0&#45;&gt;AddConst0 -->
<g id="edge14" class="edge"><title>Add0&#45;&gt;AddConst0</title>
<path fill="none" stroke="black" d="M204.645,-215.697C204.645,-207.983 204.645,-198.712 204.645,-190.112"/>
<polygon fill="black" stroke="black" points="208.145,-190.104 204.645,-180.104 201.145,-190.104 208.145,-190.104"/>
</g>
<!-- NullExp0 -->
<g id="node17" class="node"><title>NullExp0</title>
<ellipse fill="none" stroke="black" cx="167.645" cy="-90" rx="44.6926" ry="18"/>
<text text-anchor="middle" x="167.645" y="-86.3" font-family="Times,serif" font-size="14.00">NullExp0</text>
</g>
<!-- AddConst0&#45;&gt;NullExp0 -->
<g id="edge15" class="edge"><title>AddConst0&#45;&gt;NullExp0</title>
<path fill="none" stroke="black" d="M195.689,-144.055C191.371,-135.887 186.099,-125.912 181.295,-116.824"/>
<polygon fill="black" stroke="black" points="184.287,-114.994 176.52,-107.789 178.098,-118.266 184.287,-114.994"/>
</g>
<!-- Value0: 8 -->
<g id="node18" class="node"><title>Value0: 8</title>
<ellipse fill="none" stroke="black" cx="275.645" cy="-90" rx="45.4919" ry="18"/>
<text text-anchor="middle" x="275.645" y="-86.3" font-family="Times,serif" font-size="14.00">Value0: 8</text>
</g>
<!-- AddConst0&#45;&gt;Value0: 8 -->
<g id="edge16" class="edge"><title>AddConst0&#45;&gt;Value0: 8</title>
<path fill="none" stroke="black" d="M221.113,-144.765C230.253,-135.753 241.783,-124.385 251.885,-114.426"/>
<polygon fill="black" stroke="black" points="254.604,-116.66 259.267,-107.147 249.689,-111.676 254.604,-116.66"/>
</g>
</g>
</svg>
