<?xml version="1.0" encoding="UTF-8" standalone="no"?>
<!DOCTYPE svg PUBLIC "-//W3C//DTD SVG 1.1//EN"
 "http://www.w3.org/Graphics/SVG/1.1/DTD/svg11.dtd">
<!-- Generated by graphviz version 2.38.0 (20140413.2041)
 -->
<!-- Title: %3 Pages: 1 -->
<svg width="2147pt" height="692pt"
 viewBox="0.00 0.00 2146.79 692.00" xmlns="http://www.w3.org/2000/svg" xmlns:xlink="http://www.w3.org/1999/xlink">
<g id="graph0" class="graph" transform="scale(1 1) rotate(0) translate(4 688)">
<title>%3</title>
<polygon fill="white" stroke="none" points="-4,4 -4,-688 2142.79,-688 2142.79,4 -4,4"/>
<!-- ExpNumber1 -->
<g id="node1" class="node"><title>ExpNumber1</title>
<ellipse fill="none" stroke="black" cx="2080.3" cy="-306" rx="58.4896" ry="18"/>
<text text-anchor="middle" x="2080.3" y="-302.3" font-family="Times,serif" font-size="14.00">ExpNumber1</text>
</g>
<!-- Value1: 0 -->
<g id="node2" class="node"><title>Value1: 0</title>
<ellipse fill="none" stroke="black" cx="2080.3" cy="-234" rx="45.4919" ry="18"/>
<text text-anchor="middle" x="2080.3" y="-230.3" font-family="Times,serif" font-size="14.00">Value1: 0</text>
</g>
<!-- ExpNumber1&#45;&gt;Value1: 0 -->
<g id="edge1" class="edge"><title>ExpNumber1&#45;&gt;Value1: 0</title>
<path fill="none" stroke="black" d="M2080.3,-287.697C2080.3,-279.983 2080.3,-270.712 2080.3,-262.112"/>
<polygon fill="black" stroke="black" points="2083.8,-262.104 2080.3,-252.104 2076.8,-262.104 2083.8,-262.104"/>
</g>
<!-- MethArgList1 -->
<g id="node3" class="node"><title>MethArgList1</title>
<ellipse fill="none" stroke="black" cx="1704.3" cy="-306" rx="61.99" ry="18"/>
<text text-anchor="middle" x="1704.3" y="-302.3" font-family="Times,serif" font-size="14.00">MethArgList1</text>
</g>
<!-- MethArg0 -->
<g id="node4" class="node"><title>MethArg0</title>
<ellipse fill="none" stroke="black" cx="1700.3" cy="-234" rx="48.1917" ry="18"/>
<text text-anchor="middle" x="1700.3" y="-230.3" font-family="Times,serif" font-size="14.00">MethArg0</text>
</g>
<!-- MethArgList1&#45;&gt;MethArg0 -->
<g id="edge2" class="edge"><title>MethArgList1&#45;&gt;MethArg0</title>
<path fill="none" stroke="black" d="M1703.31,-287.697C1702.87,-279.983 1702.34,-270.712 1701.84,-262.112"/>
<polygon fill="black" stroke="black" points="1705.34,-261.888 1701.27,-252.104 1698.35,-262.288 1705.34,-261.888"/>
</g>
<!-- MethArg1 -->
<g id="node5" class="node"><title>MethArg1</title>
<ellipse fill="none" stroke="black" cx="1814.3" cy="-234" rx="48.1917" ry="18"/>
<text text-anchor="middle" x="1814.3" y="-230.3" font-family="Times,serif" font-size="14.00">MethArg1</text>
</g>
<!-- MethArgList1&#45;&gt;MethArg1 -->
<g id="edge3" class="edge"><title>MethArgList1&#45;&gt;MethArg1</title>
<path fill="none" stroke="black" d="M1728.71,-289.465C1744.55,-279.381 1765.37,-266.136 1782.5,-255.232"/>
<polygon fill="black" stroke="black" points="1784.52,-258.095 1791.08,-249.773 1780.76,-252.189 1784.52,-258.095"/>
</g>
<!-- ExpId9 -->
<g id="node6" class="node"><title>ExpId9</title>
<ellipse fill="none" stroke="black" cx="1700.3" cy="-162" rx="36.2938" ry="18"/>
<text text-anchor="middle" x="1700.3" y="-158.3" font-family="Times,serif" font-size="14.00">ExpId9</text>
</g>
<!-- MethArg0&#45;&gt;ExpId9 -->
<g id="edge6" class="edge"><title>MethArg0&#45;&gt;ExpId9</title>
<path fill="none" stroke="black" d="M1700.3,-215.697C1700.3,-207.983 1700.3,-198.712 1700.3,-190.112"/>
<polygon fill="black" stroke="black" points="1703.8,-190.104 1700.3,-180.104 1696.8,-190.104 1703.8,-190.104"/>
</g>
<!-- TypeModId0 -->
<g id="node8" class="node"><title>TypeModId0</title>
<ellipse fill="none" stroke="black" cx="1588.3" cy="-162" rx="57.6901" ry="18"/>
<text text-anchor="middle" x="1588.3" y="-158.3" font-family="Times,serif" font-size="14.00">TypeModId0</text>
</g>
<!-- MethArg0&#45;&gt;TypeModId0 -->
<g id="edge5" class="edge"><title>MethArg0&#45;&gt;TypeModId0</title>
<path fill="none" stroke="black" d="M1676.54,-218.155C1660.58,-208.176 1639.3,-194.88 1621.65,-183.844"/>
<polygon fill="black" stroke="black" points="1623.12,-180.64 1612.79,-178.308 1619.41,-186.576 1623.12,-180.64"/>
</g>
<!-- ExpId11 -->
<g id="node10" class="node"><title>ExpId11</title>
<ellipse fill="none" stroke="black" cx="1930.3" cy="-162" rx="40.8928" ry="18"/>
<text text-anchor="middle" x="1930.3" y="-158.3" font-family="Times,serif" font-size="14.00">ExpId11</text>
</g>
<!-- MethArg1&#45;&gt;ExpId11 -->
<g id="edge30" class="edge"><title>MethArg1&#45;&gt;ExpId11</title>
<path fill="none" stroke="black" d="M1838.61,-218.326C1856.05,-207.805 1879.7,-193.533 1898.61,-182.121"/>
<polygon fill="black" stroke="black" points="1900.44,-185.103 1907.2,-176.94 1896.83,-179.11 1900.44,-185.103"/>
</g>
<!-- TypeModId1 -->
<g id="node40" class="node"><title>TypeModId1</title>
<ellipse fill="none" stroke="black" cx="1813.3" cy="-162" rx="57.6901" ry="18"/>
<text text-anchor="middle" x="1813.3" y="-158.3" font-family="Times,serif" font-size="14.00">TypeModId1</text>
</g>
<!-- MethArg1&#45;&gt;TypeModId1 -->
<g id="edge29" class="edge"><title>MethArg1&#45;&gt;TypeModId1</title>
<path fill="none" stroke="black" d="M1814.05,-215.697C1813.94,-207.983 1813.81,-198.712 1813.68,-190.112"/>
<polygon fill="black" stroke="black" points="1817.18,-190.053 1813.54,-180.104 1810.18,-190.153 1817.18,-190.053"/>
</g>
<!-- Id9: n -->
<g id="node7" class="node"><title>Id9: n</title>
<ellipse fill="none" stroke="black" cx="1700.3" cy="-90" rx="31.6951" ry="18"/>
<text text-anchor="middle" x="1700.3" y="-86.3" font-family="Times,serif" font-size="14.00">Id9: n</text>
</g>
<!-- ExpId9&#45;&gt;Id9: n -->
<g id="edge4" class="edge"><title>ExpId9&#45;&gt;Id9: n</title>
<path fill="none" stroke="black" d="M1700.3,-143.697C1700.3,-135.983 1700.3,-126.712 1700.3,-118.112"/>
<polygon fill="black" stroke="black" points="1703.8,-118.104 1700.3,-108.104 1696.8,-118.104 1703.8,-118.104"/>
</g>
<!-- ExpId8 -->
<g id="node9" class="node"><title>ExpId8</title>
<ellipse fill="none" stroke="black" cx="1588.3" cy="-90" rx="36.2938" ry="18"/>
<text text-anchor="middle" x="1588.3" y="-86.3" font-family="Times,serif" font-size="14.00">ExpId8</text>
</g>
<!-- TypeModId0&#45;&gt;ExpId8 -->
<g id="edge7" class="edge"><title>TypeModId0&#45;&gt;ExpId8</title>
<path fill="none" stroke="black" d="M1588.3,-143.697C1588.3,-135.983 1588.3,-126.712 1588.3,-118.112"/>
<polygon fill="black" stroke="black" points="1591.8,-118.104 1588.3,-108.104 1584.8,-118.104 1591.8,-118.104"/>
</g>
<!-- Id8: Tree -->
<g id="node44" class="node"><title>Id8: Tree</title>
<ellipse fill="none" stroke="black" cx="1588.3" cy="-18" rx="43.5923" ry="18"/>
<text text-anchor="middle" x="1588.3" y="-14.3" font-family="Times,serif" font-size="14.00">Id8: Tree</text>
</g>
<!-- ExpId8&#45;&gt;Id8: Tree -->
<g id="edge39" class="edge"><title>ExpId8&#45;&gt;Id8: Tree</title>
<path fill="none" stroke="black" d="M1588.3,-71.6966C1588.3,-63.9827 1588.3,-54.7125 1588.3,-46.1124"/>
<polygon fill="black" stroke="black" points="1591.8,-46.1043 1588.3,-36.1043 1584.8,-46.1044 1591.8,-46.1043"/>
</g>
<!-- Id11: n -->
<g id="node11" class="node"><title>Id11: n</title>
<ellipse fill="none" stroke="black" cx="1930.3" cy="-90" rx="36.2938" ry="18"/>
<text text-anchor="middle" x="1930.3" y="-86.3" font-family="Times,serif" font-size="14.00">Id11: n</text>
</g>
<!-- ExpId11&#45;&gt;Id11: n -->
<g id="edge8" class="edge"><title>ExpId11&#45;&gt;Id11: n</title>
<path fill="none" stroke="black" d="M1930.3,-143.697C1930.3,-135.983 1930.3,-126.712 1930.3,-118.112"/>
<polygon fill="black" stroke="black" points="1933.8,-118.104 1930.3,-108.104 1926.8,-118.104 1933.8,-118.104"/>
</g>
<!-- Program0 -->
<g id="node12" class="node"><title>Program0</title>
<ellipse fill="none" stroke="black" cx="403.295" cy="-666" rx="46.2923" ry="18"/>
<text text-anchor="middle" x="403.295" y="-662.3" font-family="Times,serif" font-size="14.00">Program0</text>
</g>
<!-- MainClass0 -->
<g id="node13" class="node"><title>MainClass0</title>
<ellipse fill="none" stroke="black" cx="248.295" cy="-594" rx="53.0913" ry="18"/>
<text text-anchor="middle" x="248.295" y="-590.3" font-family="Times,serif" font-size="14.00">MainClass0</text>
</g>
<!-- Program0&#45;&gt;MainClass0 -->
<g id="edge9" class="edge"><title>Program0&#45;&gt;MainClass0</title>
<path fill="none" stroke="black" d="M374.141,-651.834C349.823,-640.851 314.931,-625.093 288.052,-612.955"/>
<polygon fill="black" stroke="black" points="289.464,-609.752 278.91,-608.826 286.583,-616.132 289.464,-609.752"/>
</g>
<!-- ClassDeclList0 -->
<g id="node14" class="node"><title>ClassDeclList0</title>
<ellipse fill="none" stroke="black" cx="644.295" cy="-594" rx="64.189" ry="18"/>
<text text-anchor="middle" x="644.295" y="-590.3" font-family="Times,serif" font-size="14.00">ClassDeclList0</text>
</g>
<!-- Program0&#45;&gt;ClassDeclList0 -->
<g id="edge10" class="edge"><title>Program0&#45;&gt;ClassDeclList0</title>
<path fill="none" stroke="black" d="M439.115,-654.596C479.428,-642.887 545.308,-623.751 591.516,-610.33"/>
<polygon fill="black" stroke="black" points="592.725,-613.624 601.351,-607.473 590.772,-606.902 592.725,-613.624"/>
</g>
<!-- StatList0 -->
<g id="node15" class="node"><title>StatList0</title>
<ellipse fill="none" stroke="black" cx="297.295" cy="-522" rx="42.4939" ry="18"/>
<text text-anchor="middle" x="297.295" y="-518.3" font-family="Times,serif" font-size="14.00">StatList0</text>
</g>
<!-- MainClass0&#45;&gt;StatList0 -->
<g id="edge19" class="edge"><title>MainClass0&#45;&gt;StatList0</title>
<path fill="none" stroke="black" d="M259.908,-576.411C265.888,-567.868 273.3,-557.278 279.944,-547.787"/>
<polygon fill="black" stroke="black" points="282.899,-549.669 285.766,-539.47 277.164,-545.655 282.899,-549.669"/>
</g>
<!-- ExpId0 -->
<g id="node26" class="node"><title>ExpId0</title>
<ellipse fill="none" stroke="black" cx="97.2953" cy="-522" rx="36.2938" ry="18"/>
<text text-anchor="middle" x="97.2953" y="-518.3" font-family="Times,serif" font-size="14.00">ExpId0</text>
</g>
<!-- MainClass0&#45;&gt;ExpId0 -->
<g id="edge17" class="edge"><title>MainClass0&#45;&gt;ExpId0</title>
<path fill="none" stroke="black" d="M218.101,-579.003C193.266,-567.49 158.052,-551.165 132.046,-539.11"/>
<polygon fill="black" stroke="black" points="133.463,-535.909 122.918,-534.878 130.519,-542.26 133.463,-535.909"/>
</g>
<!-- ExpId1 -->
<g id="node27" class="node"><title>ExpId1</title>
<ellipse fill="none" stroke="black" cx="200.295" cy="-522" rx="36.2938" ry="18"/>
<text text-anchor="middle" x="200.295" y="-518.3" font-family="Times,serif" font-size="14.00">ExpId1</text>
</g>
<!-- MainClass0&#45;&gt;ExpId1 -->
<g id="edge18" class="edge"><title>MainClass0&#45;&gt;ExpId1</title>
<path fill="none" stroke="black" d="M236.92,-576.411C231.062,-567.868 223.801,-557.278 217.292,-547.787"/>
<polygon fill="black" stroke="black" points="220.131,-545.738 211.589,-539.47 214.358,-549.697 220.131,-545.738"/>
</g>
<!-- ClassDecl0 -->
<g id="node28" class="node"><title>ClassDecl0</title>
<ellipse fill="none" stroke="black" cx="644.295" cy="-522" rx="50.8918" ry="18"/>
<text text-anchor="middle" x="644.295" y="-518.3" font-family="Times,serif" font-size="14.00">ClassDecl0</text>
</g>
<!-- ClassDeclList0&#45;&gt;ClassDecl0 -->
<g id="edge20" class="edge"><title>ClassDeclList0&#45;&gt;ClassDecl0</title>
<path fill="none" stroke="black" d="M644.295,-575.697C644.295,-567.983 644.295,-558.712 644.295,-550.112"/>
<polygon fill="black" stroke="black" points="647.795,-550.104 644.295,-540.104 640.795,-550.104 647.795,-550.104"/>
</g>
<!-- ClassDecl1 -->
<g id="node29" class="node"><title>ClassDecl1</title>
<ellipse fill="none" stroke="black" cx="1176.3" cy="-522" rx="50.8918" ry="18"/>
<text text-anchor="middle" x="1176.3" y="-518.3" font-family="Times,serif" font-size="14.00">ClassDecl1</text>
</g>
<!-- ClassDeclList0&#45;&gt;ClassDecl1 -->
<g id="edge21" class="edge"><title>ClassDeclList0&#45;&gt;ClassDecl1</title>
<path fill="none" stroke="black" d="M701.229,-585.509C803.463,-572.057 1017,-543.959 1119.29,-530.501"/>
<polygon fill="black" stroke="black" points="1119.97,-533.942 1129.43,-529.167 1119.06,-527.001 1119.97,-533.942"/>
</g>
<!-- StatPrint0 -->
<g id="node16" class="node"><title>StatPrint0</title>
<ellipse fill="none" stroke="black" cx="296.295" cy="-450" rx="46.2923" ry="18"/>
<text text-anchor="middle" x="296.295" y="-446.3" font-family="Times,serif" font-size="14.00">StatPrint0</text>
</g>
<!-- StatList0&#45;&gt;StatPrint0 -->
<g id="edge11" class="edge"><title>StatList0&#45;&gt;StatPrint0</title>
<path fill="none" stroke="black" d="M297.048,-503.697C296.938,-495.983 296.805,-486.712 296.683,-478.112"/>
<polygon fill="black" stroke="black" points="300.182,-478.053 296.54,-468.104 293.183,-478.153 300.182,-478.053"/>
</g>
<!-- ExpMethod0 -->
<g id="node23" class="node"><title>ExpMethod0</title>
<ellipse fill="none" stroke="black" cx="209.295" cy="-378" rx="57.3905" ry="18"/>
<text text-anchor="middle" x="209.295" y="-374.3" font-family="Times,serif" font-size="14.00">ExpMethod0</text>
</g>
<!-- StatPrint0&#45;&gt;ExpMethod0 -->
<g id="edge15" class="edge"><title>StatPrint0&#45;&gt;ExpMethod0</title>
<path fill="none" stroke="black" d="M276.987,-433.465C265.325,-424.081 250.26,-411.96 237.305,-401.536"/>
<polygon fill="black" stroke="black" points="239.138,-398.519 229.153,-394.977 234.75,-403.973 239.138,-398.519"/>
</g>
<!-- ExpNumber0 -->
<g id="node17" class="node"><title>ExpNumber0</title>
<ellipse fill="none" stroke="black" cx="1161.3" cy="-306" rx="58.4896" ry="18"/>
<text text-anchor="middle" x="1161.3" y="-302.3" font-family="Times,serif" font-size="14.00">ExpNumber0</text>
</g>
<!-- Value0: 0 -->
<g id="node18" class="node"><title>Value0: 0</title>
<ellipse fill="none" stroke="black" cx="1161.3" cy="-234" rx="45.4919" ry="18"/>
<text text-anchor="middle" x="1161.3" y="-230.3" font-family="Times,serif" font-size="14.00">Value0: 0</text>
</g>
<!-- ExpNumber0&#45;&gt;Value0: 0 -->
<g id="edge12" class="edge"><title>ExpNumber0&#45;&gt;Value0: 0</title>
<path fill="none" stroke="black" d="M1161.3,-287.697C1161.3,-279.983 1161.3,-270.712 1161.3,-262.112"/>
<polygon fill="black" stroke="black" points="1164.8,-262.104 1161.3,-252.104 1157.8,-262.104 1164.8,-262.104"/>
</g>
<!-- ExpId7 -->
<g id="node19" class="node"><title>ExpId7</title>
<ellipse fill="none" stroke="black" cx="1588.3" cy="-306" rx="36.2938" ry="18"/>
<text text-anchor="middle" x="1588.3" y="-302.3" font-family="Times,serif" font-size="14.00">ExpId7</text>
</g>
<!-- Id7: visit -->
<g id="node20" class="node"><title>Id7: visit</title>
<ellipse fill="none" stroke="black" cx="1588.3" cy="-234" rx="42.4939" ry="18"/>
<text text-anchor="middle" x="1588.3" y="-230.3" font-family="Times,serif" font-size="14.00">Id7: visit</text>
</g>
<!-- ExpId7&#45;&gt;Id7: visit -->
<g id="edge13" class="edge"><title>ExpId7&#45;&gt;Id7: visit</title>
<path fill="none" stroke="black" d="M1588.3,-287.697C1588.3,-279.983 1588.3,-270.712 1588.3,-262.112"/>
<polygon fill="black" stroke="black" points="1591.8,-262.104 1588.3,-252.104 1584.8,-262.104 1591.8,-262.104"/>
</g>
<!-- ExpId10 -->
<g id="node21" class="node"><title>ExpId10</title>
<ellipse fill="none" stroke="black" cx="1813.3" cy="-90" rx="40.8928" ry="18"/>
<text text-anchor="middle" x="1813.3" y="-86.3" font-family="Times,serif" font-size="14.00">ExpId10</text>
</g>
<!-- Id10: Tree -->
<g id="node22" class="node"><title>Id10: Tree</title>
<ellipse fill="none" stroke="black" cx="1813.3" cy="-18" rx="48.1917" ry="18"/>
<text text-anchor="middle" x="1813.3" y="-14.3" font-family="Times,serif" font-size="14.00">Id10: Tree</text>
</g>
<!-- ExpId10&#45;&gt;Id10: Tree -->
<g id="edge14" class="edge"><title>ExpId10&#45;&gt;Id10: Tree</title>
<path fill="none" stroke="black" d="M1813.3,-71.6966C1813.3,-63.9827 1813.3,-54.7125 1813.3,-46.1124"/>
<polygon fill="black" stroke="black" points="1816.8,-46.1043 1813.3,-36.1043 1809.8,-46.1044 1816.8,-46.1043"/>
</g>
<!-- ExpNewId0 -->
<g id="node24" class="node"><title>ExpNewId0</title>
<ellipse fill="none" stroke="black" cx="53.2953" cy="-306" rx="53.0913" ry="18"/>
<text text-anchor="middle" x="53.2953" y="-302.3" font-family="Times,serif" font-size="14.00">ExpNewId0</text>
</g>
<!-- ExpMethod0&#45;&gt;ExpNewId0 -->
<g id="edge31" class="edge"><title>ExpMethod0&#45;&gt;ExpNewId0</title>
<path fill="none" stroke="black" d="M177.726,-362.834C153.383,-351.911 119.554,-336.732 93.3128,-324.957"/>
<polygon fill="black" stroke="black" points="94.5763,-321.687 84.0198,-320.787 91.7105,-328.074 94.5763,-321.687"/>
</g>
<!-- ExpId3 -->
<g id="node36" class="node"><title>ExpId3</title>
<ellipse fill="none" stroke="black" cx="161.295" cy="-306" rx="36.2938" ry="18"/>
<text text-anchor="middle" x="161.295" y="-302.3" font-family="Times,serif" font-size="14.00">ExpId3</text>
</g>
<!-- ExpMethod0&#45;&gt;ExpId3 -->
<g id="edge32" class="edge"><title>ExpMethod0&#45;&gt;ExpId3</title>
<path fill="none" stroke="black" d="M197.676,-360.055C191.813,-351.505 184.592,-340.975 178.134,-331.556"/>
<polygon fill="black" stroke="black" points="181.019,-329.575 172.477,-323.307 175.246,-333.534 181.019,-329.575"/>
</g>
<!-- ExpList0 -->
<g id="node41" class="node"><title>ExpList0</title>
<ellipse fill="none" stroke="black" cx="258.295" cy="-306" rx="42.7926" ry="18"/>
<text text-anchor="middle" x="258.295" y="-302.3" font-family="Times,serif" font-size="14.00">ExpList0</text>
</g>
<!-- ExpMethod0&#45;&gt;ExpList0 -->
<g id="edge33" class="edge"><title>ExpMethod0&#45;&gt;ExpList0</title>
<path fill="none" stroke="black" d="M221.157,-360.055C226.995,-351.715 234.152,-341.491 240.619,-332.252"/>
<polygon fill="black" stroke="black" points="243.676,-333.988 246.543,-323.789 237.941,-329.974 243.676,-333.988"/>
</g>
<!-- ExpId2 -->
<g id="node25" class="node"><title>ExpId2</title>
<ellipse fill="none" stroke="black" cx="53.2953" cy="-234" rx="36.2938" ry="18"/>
<text text-anchor="middle" x="53.2953" y="-230.3" font-family="Times,serif" font-size="14.00">ExpId2</text>
</g>
<!-- ExpNewId0&#45;&gt;ExpId2 -->
<g id="edge16" class="edge"><title>ExpNewId0&#45;&gt;ExpId2</title>
<path fill="none" stroke="black" d="M53.2953,-287.697C53.2953,-279.983 53.2953,-270.712 53.2953,-262.112"/>
<polygon fill="black" stroke="black" points="56.7954,-262.104 53.2953,-252.104 49.7954,-262.104 56.7954,-262.104"/>
</g>
<!-- Id2: TV -->
<g id="node43" class="node"><title>Id2: TV</title>
<ellipse fill="none" stroke="black" cx="53.2953" cy="-162" rx="38.9931" ry="18"/>
<text text-anchor="middle" x="53.2953" y="-158.3" font-family="Times,serif" font-size="14.00">Id2: TV</text>
</g>
<!-- ExpId2&#45;&gt;Id2: TV -->
<g id="edge38" class="edge"><title>ExpId2&#45;&gt;Id2: TV</title>
<path fill="none" stroke="black" d="M53.2953,-215.697C53.2953,-207.983 53.2953,-198.712 53.2953,-190.112"/>
<polygon fill="black" stroke="black" points="56.7954,-190.104 53.2953,-180.104 49.7954,-190.104 56.7954,-190.104"/>
</g>
<!-- Id0: TreeVisitor -->
<g id="node54" class="node"><title>Id0: TreeVisitor</title>
<ellipse fill="none" stroke="black" cx="84.2953" cy="-450" rx="67.6881" ry="18"/>
<text text-anchor="middle" x="84.2953" y="-446.3" font-family="Times,serif" font-size="14.00">Id0: TreeVisitor</text>
</g>
<!-- ExpId0&#45;&gt;Id0: TreeVisitor -->
<g id="edge50" class="edge"><title>ExpId0&#45;&gt;Id0: TreeVisitor</title>
<path fill="none" stroke="black" d="M94.1483,-504.055C92.7166,-496.346 90.986,-487.027 89.3772,-478.364"/>
<polygon fill="black" stroke="black" points="92.7707,-477.468 87.5035,-468.275 85.8884,-478.746 92.7707,-477.468"/>
</g>
<!-- Id1: a -->
<g id="node30" class="node"><title>Id1: a</title>
<ellipse fill="none" stroke="black" cx="201.295" cy="-450" rx="31.3957" ry="18"/>
<text text-anchor="middle" x="201.295" y="-446.3" font-family="Times,serif" font-size="14.00">Id1: a</text>
</g>
<!-- ExpId1&#45;&gt;Id1: a -->
<g id="edge22" class="edge"><title>ExpId1&#45;&gt;Id1: a</title>
<path fill="none" stroke="black" d="M200.542,-503.697C200.653,-495.983 200.785,-486.712 200.908,-478.112"/>
<polygon fill="black" stroke="black" points="204.408,-478.153 201.051,-468.104 197.408,-478.053 204.408,-478.153"/>
</g>
<!-- MethDeclList0 -->
<g id="node31" class="node"><title>MethDeclList0</title>
<ellipse fill="none" stroke="black" cx="785.295" cy="-450" rx="64.189" ry="18"/>
<text text-anchor="middle" x="785.295" y="-446.3" font-family="Times,serif" font-size="14.00">MethDeclList0</text>
</g>
<!-- ClassDecl0&#45;&gt;MethDeclList0 -->
<g id="edge36" class="edge"><title>ClassDecl0&#45;&gt;MethDeclList0</title>
<path fill="none" stroke="black" d="M672.49,-507.003C693.632,-496.506 722.83,-482.011 746.223,-470.397"/>
<polygon fill="black" stroke="black" points="747.799,-473.523 755.2,-465.941 744.687,-467.253 747.799,-473.523"/>
</g>
<!-- ExpId4 -->
<g id="node38" class="node"><title>ExpId4</title>
<ellipse fill="none" stroke="black" cx="531.295" cy="-450" rx="36.2938" ry="18"/>
<text text-anchor="middle" x="531.295" y="-446.3" font-family="Times,serif" font-size="14.00">ExpId4</text>
</g>
<!-- ClassDecl0&#45;&gt;ExpId4 -->
<g id="edge34" class="edge"><title>ClassDecl0&#45;&gt;ExpId4</title>
<path fill="none" stroke="black" d="M620.054,-505.983C603,-495.419 580.05,-481.202 561.76,-469.872"/>
<polygon fill="black" stroke="black" points="563.545,-466.861 553.201,-464.57 559.859,-472.812 563.545,-466.861"/>
</g>
<!-- VarDeclList0 -->
<g id="node42" class="node"><title>VarDeclList0</title>
<ellipse fill="none" stroke="black" cx="644.295" cy="-450" rx="58.4896" ry="18"/>
<text text-anchor="middle" x="644.295" y="-446.3" font-family="Times,serif" font-size="14.00">VarDeclList0</text>
</g>
<!-- ClassDecl0&#45;&gt;VarDeclList0 -->
<g id="edge35" class="edge"><title>ClassDecl0&#45;&gt;VarDeclList0</title>
<path fill="none" stroke="black" d="M644.295,-503.697C644.295,-495.983 644.295,-486.712 644.295,-478.112"/>
<polygon fill="black" stroke="black" points="647.795,-478.104 644.295,-468.104 640.795,-478.104 647.795,-478.104"/>
</g>
<!-- ExpId6 -->
<g id="node33" class="node"><title>ExpId6</title>
<ellipse fill="none" stroke="black" cx="1120.3" cy="-450" rx="36.2938" ry="18"/>
<text text-anchor="middle" x="1120.3" y="-446.3" font-family="Times,serif" font-size="14.00">ExpId6</text>
</g>
<!-- ClassDecl1&#45;&gt;ExpId6 -->
<g id="edge24" class="edge"><title>ClassDecl1&#45;&gt;ExpId6</title>
<path fill="none" stroke="black" d="M1163.02,-504.411C1156.02,-495.655 1147.3,-484.751 1139.56,-475.082"/>
<polygon fill="black" stroke="black" points="1142.07,-472.61 1133.09,-466.988 1136.6,-476.983 1142.07,-472.61"/>
</g>
<!-- VarDeclList2 -->
<g id="node34" class="node"><title>VarDeclList2</title>
<ellipse fill="none" stroke="black" cx="1233.3" cy="-450" rx="58.4896" ry="18"/>
<text text-anchor="middle" x="1233.3" y="-446.3" font-family="Times,serif" font-size="14.00">VarDeclList2</text>
</g>
<!-- ClassDecl1&#45;&gt;VarDeclList2 -->
<g id="edge25" class="edge"><title>ClassDecl1&#45;&gt;VarDeclList2</title>
<path fill="none" stroke="black" d="M1189.8,-504.411C1196.73,-495.906 1205.31,-485.372 1213.01,-475.914"/>
<polygon fill="black" stroke="black" points="1215.89,-477.921 1219.49,-467.956 1210.46,-473.501 1215.89,-477.921"/>
</g>
<!-- MethDeclList1 -->
<g id="node35" class="node"><title>MethDeclList1</title>
<ellipse fill="none" stroke="black" cx="1510.3" cy="-450" rx="64.189" ry="18"/>
<text text-anchor="middle" x="1510.3" y="-446.3" font-family="Times,serif" font-size="14.00">MethDeclList1</text>
</g>
<!-- ClassDecl1&#45;&gt;MethDeclList1 -->
<g id="edge26" class="edge"><title>ClassDecl1&#45;&gt;MethDeclList1</title>
<path fill="none" stroke="black" d="M1218.94,-512.063C1277.65,-499.758 1383.68,-477.537 1450.35,-463.563"/>
<polygon fill="black" stroke="black" points="1451.23,-466.956 1460.3,-461.479 1449.79,-460.105 1451.23,-466.956"/>
</g>
<!-- MethDecl0 -->
<g id="node32" class="node"><title>MethDecl0</title>
<ellipse fill="none" stroke="black" cx="785.295" cy="-378" rx="50.8918" ry="18"/>
<text text-anchor="middle" x="785.295" y="-374.3" font-family="Times,serif" font-size="14.00">MethDecl0</text>
</g>
<!-- MethDeclList0&#45;&gt;MethDecl0 -->
<g id="edge23" class="edge"><title>MethDeclList0&#45;&gt;MethDecl0</title>
<path fill="none" stroke="black" d="M785.295,-431.697C785.295,-423.983 785.295,-414.712 785.295,-406.112"/>
<polygon fill="black" stroke="black" points="788.795,-406.104 785.295,-396.104 781.795,-406.104 788.795,-406.104"/>
</g>
<!-- MethDecl0&#45;&gt;ExpNumber0 -->
<g id="edge47" class="edge"><title>MethDecl0&#45;&gt;ExpNumber0</title>
<path fill="none" stroke="black" d="M831.159,-370.202C891.512,-361.006 1000.78,-343.495 1093.3,-324 1098.23,-322.96 1103.35,-321.812 1108.46,-320.617"/>
<polygon fill="black" stroke="black" points="1109.33,-324.008 1118.24,-318.278 1107.7,-317.2 1109.33,-324.008"/>
</g>
<!-- AccessModPublic0 -->
<g id="node46" class="node"><title>AccessModPublic0</title>
<ellipse fill="none" stroke="black" cx="398.295" cy="-306" rx="79.0865" ry="18"/>
<text text-anchor="middle" x="398.295" y="-302.3" font-family="Times,serif" font-size="14.00">AccessModPublic0</text>
</g>
<!-- MethDecl0&#45;&gt;AccessModPublic0 -->
<g id="edge41" class="edge"><title>MethDecl0&#45;&gt;AccessModPublic0</title>
<path fill="none" stroke="black" d="M740.678,-369.312C682.208,-359.186 576.492,-340.705 486.295,-324 479.819,-322.801 473.079,-321.533 466.338,-320.253"/>
<polygon fill="black" stroke="black" points="466.973,-316.811 456.494,-318.374 465.661,-323.687 466.973,-316.811"/>
</g>
<!-- TypeModInt0 -->
<g id="node47" class="node"><title>TypeModInt0</title>
<ellipse fill="none" stroke="black" cx="555.295" cy="-306" rx="59.5901" ry="18"/>
<text text-anchor="middle" x="555.295" y="-302.3" font-family="Times,serif" font-size="14.00">TypeModInt0</text>
</g>
<!-- MethDecl0&#45;&gt;TypeModInt0 -->
<g id="edge42" class="edge"><title>MethDecl0&#45;&gt;TypeModInt0</title>
<path fill="none" stroke="black" d="M748.086,-365.675C709.398,-353.901 648.598,-335.396 605.635,-322.321"/>
<polygon fill="black" stroke="black" points="606.525,-318.933 595.939,-319.37 604.487,-325.63 606.525,-318.933"/>
</g>
<!-- ExpId5 -->
<g id="node48" class="node"><title>ExpId5</title>
<ellipse fill="none" stroke="black" cx="669.295" cy="-306" rx="36.2938" ry="18"/>
<text text-anchor="middle" x="669.295" y="-302.3" font-family="Times,serif" font-size="14.00">ExpId5</text>
</g>
<!-- MethDecl0&#45;&gt;ExpId5 -->
<g id="edge43" class="edge"><title>MethDecl0&#45;&gt;ExpId5</title>
<path fill="none" stroke="black" d="M760.695,-362.155C743.011,-351.484 719.045,-337.021 700.09,-325.583"/>
<polygon fill="black" stroke="black" points="701.877,-322.574 691.507,-320.404 698.26,-328.567 701.877,-322.574"/>
</g>
<!-- MethArgList0 -->
<g id="node49" class="node"><title>MethArgList0</title>
<ellipse fill="none" stroke="black" cx="785.295" cy="-306" rx="61.99" ry="18"/>
<text text-anchor="middle" x="785.295" y="-302.3" font-family="Times,serif" font-size="14.00">MethArgList0</text>
</g>
<!-- MethDecl0&#45;&gt;MethArgList0 -->
<g id="edge44" class="edge"><title>MethDecl0&#45;&gt;MethArgList0</title>
<path fill="none" stroke="black" d="M785.295,-359.697C785.295,-351.983 785.295,-342.712 785.295,-334.112"/>
<polygon fill="black" stroke="black" points="788.795,-334.104 785.295,-324.104 781.795,-334.104 788.795,-334.104"/>
</g>
<!-- VarDeclList1 -->
<g id="node50" class="node"><title>VarDeclList1</title>
<ellipse fill="none" stroke="black" cx="923.295" cy="-306" rx="58.4896" ry="18"/>
<text text-anchor="middle" x="923.295" y="-302.3" font-family="Times,serif" font-size="14.00">VarDeclList1</text>
</g>
<!-- MethDecl0&#45;&gt;VarDeclList1 -->
<g id="edge45" class="edge"><title>MethDecl0&#45;&gt;VarDeclList1</title>
<path fill="none" stroke="black" d="M813.222,-362.834C833.849,-352.371 862.177,-338.002 884.93,-326.461"/>
<polygon fill="black" stroke="black" points="886.647,-329.514 893.982,-321.869 883.48,-323.272 886.647,-329.514"/>
</g>
<!-- StatList1 -->
<g id="node51" class="node"><title>StatList1</title>
<ellipse fill="none" stroke="black" cx="1042.3" cy="-306" rx="42.4939" ry="18"/>
<text text-anchor="middle" x="1042.3" y="-302.3" font-family="Times,serif" font-size="14.00">StatList1</text>
</g>
<!-- MethDecl0&#45;&gt;StatList1 -->
<g id="edge46" class="edge"><title>MethDecl0&#45;&gt;StatList1</title>
<path fill="none" stroke="black" d="M826.343,-367.195C867.878,-357.084 933.843,-340.508 990.295,-324 993.633,-323.024 997.079,-321.98 1000.53,-320.906"/>
<polygon fill="black" stroke="black" points="1001.74,-324.195 1010.22,-317.837 999.626,-317.523 1001.74,-324.195"/>
</g>
<!-- Id6: Visitor -->
<g id="node53" class="node"><title>Id6: Visitor</title>
<ellipse fill="none" stroke="black" cx="1120.3" cy="-378" rx="51.9908" ry="18"/>
<text text-anchor="middle" x="1120.3" y="-374.3" font-family="Times,serif" font-size="14.00">Id6: Visitor</text>
</g>
<!-- ExpId6&#45;&gt;Id6: Visitor -->
<g id="edge49" class="edge"><title>ExpId6&#45;&gt;Id6: Visitor</title>
<path fill="none" stroke="black" d="M1120.3,-431.697C1120.3,-423.983 1120.3,-414.712 1120.3,-406.112"/>
<polygon fill="black" stroke="black" points="1123.8,-406.104 1120.3,-396.104 1116.8,-406.104 1123.8,-406.104"/>
</g>
<!-- MethDecl1 -->
<g id="node45" class="node"><title>MethDecl1</title>
<ellipse fill="none" stroke="black" cx="1646.3" cy="-378" rx="50.8918" ry="18"/>
<text text-anchor="middle" x="1646.3" y="-374.3" font-family="Times,serif" font-size="14.00">MethDecl1</text>
</g>
<!-- MethDeclList1&#45;&gt;MethDecl1 -->
<g id="edge40" class="edge"><title>MethDeclList1&#45;&gt;MethDecl1</title>
<path fill="none" stroke="black" d="M1539.81,-433.811C1560.31,-423.256 1587.78,-409.116 1609.69,-397.843"/>
<polygon fill="black" stroke="black" points="1611.41,-400.894 1618.7,-393.205 1608.2,-394.67 1611.41,-400.894"/>
</g>
<!-- Id3: Start -->
<g id="node37" class="node"><title>Id3: Start</title>
<ellipse fill="none" stroke="black" cx="161.295" cy="-234" rx="44.393" ry="18"/>
<text text-anchor="middle" x="161.295" y="-230.3" font-family="Times,serif" font-size="14.00">Id3: Start</text>
</g>
<!-- ExpId3&#45;&gt;Id3: Start -->
<g id="edge27" class="edge"><title>ExpId3&#45;&gt;Id3: Start</title>
<path fill="none" stroke="black" d="M161.295,-287.697C161.295,-279.983 161.295,-270.712 161.295,-262.112"/>
<polygon fill="black" stroke="black" points="164.795,-262.104 161.295,-252.104 157.795,-262.104 164.795,-262.104"/>
</g>
<!-- Id4: TV -->
<g id="node39" class="node"><title>Id4: TV</title>
<ellipse fill="none" stroke="black" cx="531.295" cy="-378" rx="38.9931" ry="18"/>
<text text-anchor="middle" x="531.295" y="-374.3" font-family="Times,serif" font-size="14.00">Id4: TV</text>
</g>
<!-- ExpId4&#45;&gt;Id4: TV -->
<g id="edge28" class="edge"><title>ExpId4&#45;&gt;Id4: TV</title>
<path fill="none" stroke="black" d="M531.295,-431.697C531.295,-423.983 531.295,-414.712 531.295,-406.112"/>
<polygon fill="black" stroke="black" points="534.795,-406.104 531.295,-396.104 527.795,-406.104 534.795,-406.104"/>
</g>
<!-- TypeModId1&#45;&gt;ExpId10 -->
<g id="edge37" class="edge"><title>TypeModId1&#45;&gt;ExpId10</title>
<path fill="none" stroke="black" d="M1813.3,-143.697C1813.3,-135.983 1813.3,-126.712 1813.3,-118.112"/>
<polygon fill="black" stroke="black" points="1816.8,-118.104 1813.3,-108.104 1809.8,-118.104 1816.8,-118.104"/>
</g>
<!-- MethDecl1&#45;&gt;ExpNumber1 -->
<g id="edge57" class="edge"><title>MethDecl1&#45;&gt;ExpNumber1</title>
<path fill="none" stroke="black" d="M1693.93,-371.663C1764.02,-363.458 1898.9,-346.324 2012.3,-324 2017.32,-323.012 2022.52,-321.889 2027.72,-320.704"/>
<polygon fill="black" stroke="black" points="2028.71,-324.065 2037.64,-318.364 2027.1,-317.252 2028.71,-324.065"/>
</g>
<!-- MethDecl1&#45;&gt;MethArgList1 -->
<g id="edge54" class="edge"><title>MethDecl1&#45;&gt;MethArgList1</title>
<path fill="none" stroke="black" d="M1660.04,-360.411C1667.09,-351.906 1675.82,-341.372 1683.65,-331.914"/>
<polygon fill="black" stroke="black" points="1686.56,-333.89 1690.25,-323.956 1681.17,-329.423 1686.56,-333.89"/>
</g>
<!-- MethDecl1&#45;&gt;ExpId7 -->
<g id="edge53" class="edge"><title>MethDecl1&#45;&gt;ExpId7</title>
<path fill="none" stroke="black" d="M1632.55,-360.411C1625.22,-351.567 1616.08,-340.531 1608.01,-330.789"/>
<polygon fill="black" stroke="black" points="1610.62,-328.455 1601.54,-322.988 1605.23,-332.921 1610.62,-328.455"/>
</g>
<!-- AccessModPublic1 -->
<g id="node55" class="node"><title>AccessModPublic1</title>
<ellipse fill="none" stroke="black" cx="1317.3" cy="-306" rx="79.0865" ry="18"/>
<text text-anchor="middle" x="1317.3" y="-302.3" font-family="Times,serif" font-size="14.00">AccessModPublic1</text>
</g>
<!-- MethDecl1&#45;&gt;AccessModPublic1 -->
<g id="edge51" class="edge"><title>MethDecl1&#45;&gt;AccessModPublic1</title>
<path fill="none" stroke="black" d="M1603.96,-367.992C1547.91,-356.068 1448.53,-334.923 1382.77,-320.932"/>
<polygon fill="black" stroke="black" points="1383.43,-317.494 1372.92,-318.836 1381.98,-324.34 1383.43,-317.494"/>
</g>
<!-- TypeModInt1 -->
<g id="node56" class="node"><title>TypeModInt1</title>
<ellipse fill="none" stroke="black" cx="1474.3" cy="-306" rx="59.5901" ry="18"/>
<text text-anchor="middle" x="1474.3" y="-302.3" font-family="Times,serif" font-size="14.00">TypeModInt1</text>
</g>
<!-- MethDecl1&#45;&gt;TypeModInt1 -->
<g id="edge52" class="edge"><title>MethDecl1&#45;&gt;TypeModInt1</title>
<path fill="none" stroke="black" d="M1614.35,-363.998C1587.17,-352.938 1547.89,-336.95 1517.83,-324.72"/>
<polygon fill="black" stroke="black" points="1519.01,-321.42 1508.43,-320.892 1516.37,-327.903 1519.01,-321.42"/>
</g>
<!-- VarDeclList3 -->
<g id="node57" class="node"><title>VarDeclList3</title>
<ellipse fill="none" stroke="black" cx="1842.3" cy="-306" rx="58.4896" ry="18"/>
<text text-anchor="middle" x="1842.3" y="-302.3" font-family="Times,serif" font-size="14.00">VarDeclList3</text>
</g>
<!-- MethDecl1&#45;&gt;VarDeclList3 -->
<g id="edge55" class="edge"><title>MethDecl1&#45;&gt;VarDeclList3</title>
<path fill="none" stroke="black" d="M1680.88,-364.647C1712.93,-353.202 1760.83,-336.096 1796.13,-323.489"/>
<polygon fill="black" stroke="black" points="1797.48,-326.72 1805.72,-320.061 1795.13,-320.128 1797.48,-326.72"/>
</g>
<!-- StatList2 -->
<g id="node58" class="node"><title>StatList2</title>
<ellipse fill="none" stroke="black" cx="1961.3" cy="-306" rx="42.4939" ry="18"/>
<text text-anchor="middle" x="1961.3" y="-302.3" font-family="Times,serif" font-size="14.00">StatList2</text>
</g>
<!-- MethDecl1&#45;&gt;StatList2 -->
<g id="edge56" class="edge"><title>MethDecl1&#45;&gt;StatList2</title>
<path fill="none" stroke="black" d="M1691.34,-369.579C1744.01,-360.521 1833.62,-343.921 1909.3,-324 1912.71,-323.102 1916.22,-322.107 1919.74,-321.063"/>
<polygon fill="black" stroke="black" points="1921.05,-324.32 1929.57,-318.024 1918.98,-317.632 1921.05,-324.32"/>
</g>
<!-- Id5: Start -->
<g id="node52" class="node"><title>Id5: Start</title>
<ellipse fill="none" stroke="black" cx="669.295" cy="-234" rx="44.393" ry="18"/>
<text text-anchor="middle" x="669.295" y="-230.3" font-family="Times,serif" font-size="14.00">Id5: Start</text>
</g>
<!-- ExpId5&#45;&gt;Id5: Start -->
<g id="edge48" class="edge"><title>ExpId5&#45;&gt;Id5: Start</title>
<path fill="none" stroke="black" d="M669.295,-287.697C669.295,-279.983 669.295,-270.712 669.295,-262.112"/>
<polygon fill="black" stroke="black" points="672.795,-262.104 669.295,-252.104 665.795,-262.104 672.795,-262.104"/>
</g>
</g>
</svg>
