<?xml version="1.0" encoding="UTF-8" standalone="no"?>
<!DOCTYPE svg PUBLIC "-//W3C//DTD SVG 1.1//EN"
 "http://www.w3.org/Graphics/SVG/1.1/DTD/svg11.dtd">
<!-- Generated by graphviz version 2.38.0 (20140413.2041)
 -->
<!-- Title: %3 Pages: 1 -->
<svg width="2873pt" height="404pt"
 viewBox="0.00 0.00 2872.84 404.00" xmlns="http://www.w3.org/2000/svg" xmlns:xlink="http://www.w3.org/1999/xlink">
<g id="graph0" class="graph" transform="scale(1 1) rotate(0) translate(4 400)">
<title>%3</title>
<polygon fill="white" stroke="none" points="-4,4 -4,-400 2868.84,-400 2868.84,4 -4,4"/>
<!-- ExpConst3 -->
<g id="node1" class="node"><title>ExpConst3</title>
<ellipse fill="none" stroke="black" cx="2656.65" cy="-234" rx="50.0912" ry="18"/>
<text text-anchor="middle" x="2656.65" y="-230.3" font-family="Times,serif" font-size="14.00">ExpConst3</text>
</g>
<!-- Value3: 1 -->
<g id="node2" class="node"><title>Value3: 1</title>
<ellipse fill="none" stroke="black" cx="2666.65" cy="-162" rx="45.4919" ry="18"/>
<text text-anchor="middle" x="2666.65" y="-158.3" font-family="Times,serif" font-size="14.00">Value3: 1</text>
</g>
<!-- ExpConst3&#45;&gt;Value3: 1 -->
<g id="edge1" class="edge"><title>ExpConst3&#45;&gt;Value3: 1</title>
<path fill="none" stroke="black" d="M2659.12,-215.697C2660.22,-207.983 2661.54,-198.712 2662.77,-190.112"/>
<polygon fill="black" stroke="black" points="2666.25,-190.499 2664.2,-180.104 2659.32,-189.509 2666.25,-190.499"/>
</g>
<!-- StatMove8 -->
<g id="node3" class="node"><title>StatMove8</title>
<ellipse fill="none" stroke="black" cx="2533.65" cy="-306" rx="50.0912" ry="18"/>
<text text-anchor="middle" x="2533.65" y="-302.3" font-family="Times,serif" font-size="14.00">StatMove8</text>
</g>
<!-- StatMove8&#45;&gt;ExpConst3 -->
<g id="edge3" class="edge"><title>StatMove8&#45;&gt;ExpConst3</title>
<path fill="none" stroke="black" d="M2559.13,-290.496C2577.32,-280.147 2601.99,-266.107 2621.96,-254.739"/>
<polygon fill="black" stroke="black" points="2623.81,-257.714 2630.77,-249.726 2620.35,-251.631 2623.81,-257.714"/>
</g>
<!-- ExpTemp17 -->
<g id="node4" class="node"><title>ExpTemp17</title>
<ellipse fill="none" stroke="black" cx="2533.65" cy="-234" rx="54.6905" ry="18"/>
<text text-anchor="middle" x="2533.65" y="-230.3" font-family="Times,serif" font-size="14.00">ExpTemp17</text>
</g>
<!-- StatMove8&#45;&gt;ExpTemp17 -->
<g id="edge2" class="edge"><title>StatMove8&#45;&gt;ExpTemp17</title>
<path fill="none" stroke="black" d="M2533.65,-287.697C2533.65,-279.983 2533.65,-270.712 2533.65,-262.112"/>
<polygon fill="black" stroke="black" points="2537.15,-262.104 2533.65,-252.104 2530.15,-262.104 2537.15,-262.104"/>
</g>
<!-- Temp17: $rv -->
<g id="node57" class="node"><title>Temp17: $rv</title>
<ellipse fill="none" stroke="black" cx="2545.65" cy="-162" rx="57.3905" ry="18"/>
<text text-anchor="middle" x="2545.65" y="-158.3" font-family="Times,serif" font-size="14.00">Temp17: $rv</text>
</g>
<!-- ExpTemp17&#45;&gt;Temp17: $rv -->
<g id="edge46" class="edge"><title>ExpTemp17&#45;&gt;Temp17: $rv</title>
<path fill="none" stroke="black" d="M2536.61,-215.697C2537.93,-207.983 2539.52,-198.712 2541,-190.112"/>
<polygon fill="black" stroke="black" points="2544.47,-190.552 2542.71,-180.104 2537.57,-189.369 2544.47,-190.552"/>
</g>
<!-- ExpTemp15 -->
<g id="node5" class="node"><title>ExpTemp15</title>
<ellipse fill="none" stroke="black" cx="2261.65" cy="-234" rx="54.6905" ry="18"/>
<text text-anchor="middle" x="2261.65" y="-230.3" font-family="Times,serif" font-size="14.00">ExpTemp15</text>
</g>
<!-- Temp15: T186 -->
<g id="node6" class="node"><title>Temp15: T186</title>
<ellipse fill="none" stroke="black" cx="2261.65" cy="-162" rx="63.8893" ry="18"/>
<text text-anchor="middle" x="2261.65" y="-158.3" font-family="Times,serif" font-size="14.00">Temp15: T186</text>
</g>
<!-- ExpTemp15&#45;&gt;Temp15: T186 -->
<g id="edge4" class="edge"><title>ExpTemp15&#45;&gt;Temp15: T186</title>
<path fill="none" stroke="black" d="M2261.65,-215.697C2261.65,-207.983 2261.65,-198.712 2261.65,-190.112"/>
<polygon fill="black" stroke="black" points="2265.15,-190.104 2261.65,-180.104 2258.15,-190.104 2265.15,-190.104"/>
</g>
<!-- ExpList0 -->
<g id="node7" class="node"><title>ExpList0</title>
<ellipse fill="none" stroke="black" cx="2136.65" cy="-162" rx="42.7926" ry="18"/>
<text text-anchor="middle" x="2136.65" y="-158.3" font-family="Times,serif" font-size="14.00">ExpList0</text>
</g>
<!-- ExpTemp13 -->
<g id="node8" class="node"><title>ExpTemp13</title>
<ellipse fill="none" stroke="black" cx="2136.65" cy="-90" rx="54.6905" ry="18"/>
<text text-anchor="middle" x="2136.65" y="-86.3" font-family="Times,serif" font-size="14.00">ExpTemp13</text>
</g>
<!-- ExpList0&#45;&gt;ExpTemp13 -->
<g id="edge5" class="edge"><title>ExpList0&#45;&gt;ExpTemp13</title>
<path fill="none" stroke="black" d="M2136.65,-143.697C2136.65,-135.983 2136.65,-126.712 2136.65,-118.112"/>
<polygon fill="black" stroke="black" points="2140.15,-118.104 2136.65,-108.104 2133.15,-118.104 2140.15,-118.104"/>
</g>
<!-- ExpTemp14 -->
<g id="node9" class="node"><title>ExpTemp14</title>
<ellipse fill="none" stroke="black" cx="2272.65" cy="-90" rx="54.6905" ry="18"/>
<text text-anchor="middle" x="2272.65" y="-86.3" font-family="Times,serif" font-size="14.00">ExpTemp14</text>
</g>
<!-- ExpList0&#45;&gt;ExpTemp14 -->
<g id="edge6" class="edge"><title>ExpList0&#45;&gt;ExpTemp14</title>
<path fill="none" stroke="black" d="M2162.87,-147.503C2183.36,-136.958 2212.1,-122.161 2235.04,-110.354"/>
<polygon fill="black" stroke="black" points="2236.87,-113.352 2244.16,-105.664 2233.66,-107.128 2236.87,-113.352"/>
</g>
<!-- Temp13: T183 -->
<g id="node12" class="node"><title>Temp13: T183</title>
<ellipse fill="none" stroke="black" cx="2131.65" cy="-18" rx="63.8893" ry="18"/>
<text text-anchor="middle" x="2131.65" y="-14.3" font-family="Times,serif" font-size="14.00">Temp13: T183</text>
</g>
<!-- ExpTemp13&#45;&gt;Temp13: T183 -->
<g id="edge8" class="edge"><title>ExpTemp13&#45;&gt;Temp13: T183</title>
<path fill="none" stroke="black" d="M2135.41,-71.6966C2134.86,-63.9827 2134.2,-54.7125 2133.58,-46.1124"/>
<polygon fill="black" stroke="black" points="2137.07,-45.8295 2132.87,-36.1043 2130.09,-46.3283 2137.07,-45.8295"/>
</g>
<!-- Temp14: T184 -->
<g id="node66" class="node"><title>Temp14: T184</title>
<ellipse fill="none" stroke="black" cx="2276.65" cy="-18" rx="63.8893" ry="18"/>
<text text-anchor="middle" x="2276.65" y="-14.3" font-family="Times,serif" font-size="14.00">Temp14: T184</text>
</g>
<!-- ExpTemp14&#45;&gt;Temp14: T184 -->
<g id="edge64" class="edge"><title>ExpTemp14&#45;&gt;Temp14: T184</title>
<path fill="none" stroke="black" d="M2273.63,-71.6966C2274.07,-63.9827 2274.6,-54.7125 2275.1,-46.1124"/>
<polygon fill="black" stroke="black" points="2278.59,-46.2878 2275.67,-36.1043 2271.6,-45.8883 2278.59,-46.2878"/>
</g>
<!-- ExpTemp16 -->
<g id="node10" class="node"><title>ExpTemp16</title>
<ellipse fill="none" stroke="black" cx="2397.65" cy="-234" rx="54.6905" ry="18"/>
<text text-anchor="middle" x="2397.65" y="-230.3" font-family="Times,serif" font-size="14.00">ExpTemp16</text>
</g>
<!-- Temp16: T181 -->
<g id="node11" class="node"><title>Temp16: T181</title>
<ellipse fill="none" stroke="black" cx="2406.65" cy="-162" rx="63.8893" ry="18"/>
<text text-anchor="middle" x="2406.65" y="-158.3" font-family="Times,serif" font-size="14.00">Temp16: T181</text>
</g>
<!-- ExpTemp16&#45;&gt;Temp16: T181 -->
<g id="edge7" class="edge"><title>ExpTemp16&#45;&gt;Temp16: T181</title>
<path fill="none" stroke="black" d="M2399.87,-215.697C2400.86,-207.983 2402.05,-198.712 2403.16,-190.112"/>
<polygon fill="black" stroke="black" points="2406.64,-190.469 2404.45,-180.104 2399.7,-189.576 2406.64,-190.469"/>
</g>
<!-- StatMove6 -->
<g id="node13" class="node"><title>StatMove6</title>
<ellipse fill="none" stroke="black" cx="1885.65" cy="-306" rx="50.0912" ry="18"/>
<text text-anchor="middle" x="1885.65" y="-302.3" font-family="Times,serif" font-size="14.00">StatMove6</text>
</g>
<!-- ExpTemp11 -->
<g id="node14" class="node"><title>ExpTemp11</title>
<ellipse fill="none" stroke="black" cx="1885.65" cy="-234" rx="54.6905" ry="18"/>
<text text-anchor="middle" x="1885.65" y="-230.3" font-family="Times,serif" font-size="14.00">ExpTemp11</text>
</g>
<!-- StatMove6&#45;&gt;ExpTemp11 -->
<g id="edge9" class="edge"><title>StatMove6&#45;&gt;ExpTemp11</title>
<path fill="none" stroke="black" d="M1885.65,-287.697C1885.65,-279.983 1885.65,-270.712 1885.65,-262.112"/>
<polygon fill="black" stroke="black" points="1889.15,-262.104 1885.65,-252.104 1882.15,-262.104 1889.15,-262.104"/>
</g>
<!-- ExpCall0 -->
<g id="node15" class="node"><title>ExpCall0</title>
<ellipse fill="none" stroke="black" cx="2021.65" cy="-234" rx="44.393" ry="18"/>
<text text-anchor="middle" x="2021.65" y="-230.3" font-family="Times,serif" font-size="14.00">ExpCall0</text>
</g>
<!-- StatMove6&#45;&gt;ExpCall0 -->
<g id="edge10" class="edge"><title>StatMove6&#45;&gt;ExpCall0</title>
<path fill="none" stroke="black" d="M1913.17,-290.834C1934.18,-280.02 1963.3,-265.033 1986.07,-253.309"/>
<polygon fill="black" stroke="black" points="1987.8,-256.357 1995.09,-248.668 1984.6,-250.133 1987.8,-256.357"/>
</g>
<!-- Temp11: T185 -->
<g id="node71" class="node"><title>Temp11: T185</title>
<ellipse fill="none" stroke="black" cx="1885.65" cy="-162" rx="63.8893" ry="18"/>
<text text-anchor="middle" x="1885.65" y="-158.3" font-family="Times,serif" font-size="14.00">Temp11: T185</text>
</g>
<!-- ExpTemp11&#45;&gt;Temp11: T185 -->
<g id="edge68" class="edge"><title>ExpTemp11&#45;&gt;Temp11: T185</title>
<path fill="none" stroke="black" d="M1885.65,-215.697C1885.65,-207.983 1885.65,-198.712 1885.65,-190.112"/>
<polygon fill="black" stroke="black" points="1889.15,-190.104 1885.65,-180.104 1882.15,-190.104 1889.15,-190.104"/>
</g>
<!-- ExpCall0&#45;&gt;ExpList0 -->
<g id="edge48" class="edge"><title>ExpCall0&#45;&gt;ExpList0</title>
<path fill="none" stroke="black" d="M2045.19,-218.666C2062.33,-208.237 2085.72,-193.996 2104.56,-182.529"/>
<polygon fill="black" stroke="black" points="2106.41,-185.505 2113.13,-177.315 2102.77,-179.525 2106.41,-185.505"/>
</g>
<!-- ExpTemp12 -->
<g id="node58" class="node"><title>ExpTemp12</title>
<ellipse fill="none" stroke="black" cx="2021.65" cy="-162" rx="54.6905" ry="18"/>
<text text-anchor="middle" x="2021.65" y="-158.3" font-family="Times,serif" font-size="14.00">ExpTemp12</text>
</g>
<!-- ExpCall0&#45;&gt;ExpTemp12 -->
<g id="edge47" class="edge"><title>ExpCall0&#45;&gt;ExpTemp12</title>
<path fill="none" stroke="black" d="M2021.65,-215.697C2021.65,-207.983 2021.65,-198.712 2021.65,-190.112"/>
<polygon fill="black" stroke="black" points="2025.15,-190.104 2021.65,-180.104 2018.15,-190.104 2025.15,-190.104"/>
</g>
<!-- ExpConst2 -->
<g id="node16" class="node"><title>ExpConst2</title>
<ellipse fill="none" stroke="black" cx="1849.65" cy="-90" rx="50.0912" ry="18"/>
<text text-anchor="middle" x="1849.65" y="-86.3" font-family="Times,serif" font-size="14.00">ExpConst2</text>
</g>
<!-- Value2: 8 -->
<g id="node17" class="node"><title>Value2: 8</title>
<ellipse fill="none" stroke="black" cx="1849.65" cy="-18" rx="45.4919" ry="18"/>
<text text-anchor="middle" x="1849.65" y="-14.3" font-family="Times,serif" font-size="14.00">Value2: 8</text>
</g>
<!-- ExpConst2&#45;&gt;Value2: 8 -->
<g id="edge11" class="edge"><title>ExpConst2&#45;&gt;Value2: 8</title>
<path fill="none" stroke="black" d="M1849.65,-71.6966C1849.65,-63.9827 1849.65,-54.7125 1849.65,-46.1124"/>
<polygon fill="black" stroke="black" points="1853.15,-46.1043 1849.65,-36.1043 1846.15,-46.1044 1853.15,-46.1043"/>
</g>
<!-- ExpBinary2 -->
<g id="node18" class="node"><title>ExpBinary2</title>
<ellipse fill="none" stroke="black" cx="1750.65" cy="-162" rx="53.0913" ry="18"/>
<text text-anchor="middle" x="1750.65" y="-158.3" font-family="Times,serif" font-size="14.00">ExpBinary2</text>
</g>
<!-- ExpBinary2&#45;&gt;ExpConst2 -->
<g id="edge14" class="edge"><title>ExpBinary2&#45;&gt;ExpConst2</title>
<path fill="none" stroke="black" d="M1772.62,-145.465C1786.43,-135.7 1804.43,-122.972 1819.55,-112.276"/>
<polygon fill="black" stroke="black" points="1821.93,-114.882 1828.08,-106.251 1817.89,-109.167 1821.93,-114.882"/>
</g>
<!-- ExpTemp10 -->
<g id="node19" class="node"><title>ExpTemp10</title>
<ellipse fill="none" stroke="black" cx="1647.65" cy="-90" rx="54.6905" ry="18"/>
<text text-anchor="middle" x="1647.65" y="-86.3" font-family="Times,serif" font-size="14.00">ExpTemp10</text>
</g>
<!-- ExpBinary2&#45;&gt;ExpTemp10 -->
<g id="edge12" class="edge"><title>ExpBinary2&#45;&gt;ExpTemp10</title>
<path fill="none" stroke="black" d="M1728.04,-145.638C1713.65,-135.859 1694.81,-123.054 1678.99,-112.3"/>
<polygon fill="black" stroke="black" points="1680.79,-109.294 1670.55,-106.568 1676.86,-115.084 1680.79,-109.294"/>
</g>
<!-- Plus2 -->
<g id="node20" class="node"><title>Plus2</title>
<ellipse fill="none" stroke="black" cx="1750.65" cy="-90" rx="30.5947" ry="18"/>
<text text-anchor="middle" x="1750.65" y="-86.3" font-family="Times,serif" font-size="14.00">Plus2</text>
</g>
<!-- ExpBinary2&#45;&gt;Plus2 -->
<g id="edge13" class="edge"><title>ExpBinary2&#45;&gt;Plus2</title>
<path fill="none" stroke="black" d="M1750.65,-143.697C1750.65,-135.983 1750.65,-126.712 1750.65,-118.112"/>
<polygon fill="black" stroke="black" points="1754.15,-118.104 1750.65,-108.104 1747.15,-118.104 1754.15,-118.104"/>
</g>
<!-- Temp10: $fp -->
<g id="node40" class="node"><title>Temp10: $fp</title>
<ellipse fill="none" stroke="black" cx="1647.65" cy="-18" rx="57.3905" ry="18"/>
<text text-anchor="middle" x="1647.65" y="-14.3" font-family="Times,serif" font-size="14.00">Temp10: $fp</text>
</g>
<!-- ExpTemp10&#45;&gt;Temp10: $fp -->
<g id="edge28" class="edge"><title>ExpTemp10&#45;&gt;Temp10: $fp</title>
<path fill="none" stroke="black" d="M1647.65,-71.6966C1647.65,-63.9827 1647.65,-54.7125 1647.65,-46.1124"/>
<polygon fill="black" stroke="black" points="1651.15,-46.1043 1647.65,-36.1043 1644.15,-46.1044 1651.15,-46.1043"/>
</g>
<!-- ExpTemp9 -->
<g id="node21" class="node"><title>ExpTemp9</title>
<ellipse fill="none" stroke="black" cx="1619.65" cy="-234" rx="50.0912" ry="18"/>
<text text-anchor="middle" x="1619.65" y="-230.3" font-family="Times,serif" font-size="14.00">ExpTemp9</text>
</g>
<!-- Temp9: T184 -->
<g id="node22" class="node"><title>Temp9: T184</title>
<ellipse fill="none" stroke="black" cx="1619.65" cy="-162" rx="59.5901" ry="18"/>
<text text-anchor="middle" x="1619.65" y="-158.3" font-family="Times,serif" font-size="14.00">Temp9: T184</text>
</g>
<!-- ExpTemp9&#45;&gt;Temp9: T184 -->
<g id="edge15" class="edge"><title>ExpTemp9&#45;&gt;Temp9: T184</title>
<path fill="none" stroke="black" d="M1619.65,-215.697C1619.65,-207.983 1619.65,-198.712 1619.65,-190.112"/>
<polygon fill="black" stroke="black" points="1623.15,-190.104 1619.65,-180.104 1616.15,-190.104 1623.15,-190.104"/>
</g>
<!-- ExpName0 -->
<g id="node23" class="node"><title>ExpName0</title>
<ellipse fill="none" stroke="black" cx="1433.65" cy="-234" rx="50.8918" ry="18"/>
<text text-anchor="middle" x="1433.65" y="-230.3" font-family="Times,serif" font-size="14.00">ExpName0</text>
</g>
<!-- Label1: Tree@RecPrint -->
<g id="node24" class="node"><title>Label1: Tree@RecPrint</title>
<ellipse fill="none" stroke="black" cx="1446.65" cy="-162" rx="94.7833" ry="18"/>
<text text-anchor="middle" x="1446.65" y="-158.3" font-family="Times,serif" font-size="14.00">Label1: Tree@RecPrint</text>
</g>
<!-- ExpName0&#45;&gt;Label1: Tree@RecPrint -->
<g id="edge16" class="edge"><title>ExpName0&#45;&gt;Label1: Tree@RecPrint</title>
<path fill="none" stroke="black" d="M1436.86,-215.697C1438.29,-207.983 1440.01,-198.712 1441.61,-190.112"/>
<polygon fill="black" stroke="black" points="1445.08,-190.575 1443.47,-180.104 1438.2,-189.297 1445.08,-190.575"/>
</g>
<!-- ExpMem1 -->
<g id="node25" class="node"><title>ExpMem1</title>
<ellipse fill="none" stroke="black" cx="358.645" cy="-234" rx="48.9926" ry="18"/>
<text text-anchor="middle" x="358.645" y="-230.3" font-family="Times,serif" font-size="14.00">ExpMem1</text>
</g>
<!-- ExpTemp1 -->
<g id="node26" class="node"><title>ExpTemp1</title>
<ellipse fill="none" stroke="black" cx="351.645" cy="-162" rx="50.0912" ry="18"/>
<text text-anchor="middle" x="351.645" y="-158.3" font-family="Times,serif" font-size="14.00">ExpTemp1</text>
</g>
<!-- ExpMem1&#45;&gt;ExpTemp1 -->
<g id="edge17" class="edge"><title>ExpMem1&#45;&gt;ExpTemp1</title>
<path fill="none" stroke="black" d="M356.915,-215.697C356.144,-207.983 355.217,-198.712 354.357,-190.112"/>
<polygon fill="black" stroke="black" points="357.834,-189.706 353.356,-180.104 350.868,-190.403 357.834,-189.706"/>
</g>
<!-- Temp1: $fp -->
<g id="node67" class="node"><title>Temp1: $fp</title>
<ellipse fill="none" stroke="black" cx="371.645" cy="-90" rx="52.7911" ry="18"/>
<text text-anchor="middle" x="371.645" y="-86.3" font-family="Times,serif" font-size="14.00">Temp1: $fp</text>
</g>
<!-- ExpTemp1&#45;&gt;Temp1: $fp -->
<g id="edge65" class="edge"><title>ExpTemp1&#45;&gt;Temp1: $fp</title>
<path fill="none" stroke="black" d="M356.487,-144.055C358.714,-136.261 361.41,-126.822 363.909,-118.079"/>
<polygon fill="black" stroke="black" points="367.328,-118.852 366.71,-108.275 360.597,-116.929 367.328,-118.852"/>
</g>
<!-- ExpConst0 -->
<g id="node27" class="node"><title>ExpConst0</title>
<ellipse fill="none" stroke="black" cx="250.645" cy="-90" rx="50.0912" ry="18"/>
<text text-anchor="middle" x="250.645" y="-86.3" font-family="Times,serif" font-size="14.00">ExpConst0</text>
</g>
<!-- Value0: 8 -->
<g id="node28" class="node"><title>Value0: 8</title>
<ellipse fill="none" stroke="black" cx="250.645" cy="-18" rx="45.4919" ry="18"/>
<text text-anchor="middle" x="250.645" y="-14.3" font-family="Times,serif" font-size="14.00">Value0: 8</text>
</g>
<!-- ExpConst0&#45;&gt;Value0: 8 -->
<g id="edge18" class="edge"><title>ExpConst0&#45;&gt;Value0: 8</title>
<path fill="none" stroke="black" d="M250.645,-71.6966C250.645,-63.9827 250.645,-54.7125 250.645,-46.1124"/>
<polygon fill="black" stroke="black" points="254.145,-46.1043 250.645,-36.1043 247.145,-46.1044 254.145,-46.1043"/>
</g>
<!-- StatMove7 -->
<g id="node29" class="node"><title>StatMove7</title>
<ellipse fill="none" stroke="black" cx="2261.65" cy="-306" rx="50.0912" ry="18"/>
<text text-anchor="middle" x="2261.65" y="-302.3" font-family="Times,serif" font-size="14.00">StatMove7</text>
</g>
<!-- StatMove7&#45;&gt;ExpTemp15 -->
<g id="edge19" class="edge"><title>StatMove7&#45;&gt;ExpTemp15</title>
<path fill="none" stroke="black" d="M2261.65,-287.697C2261.65,-279.983 2261.65,-270.712 2261.65,-262.112"/>
<polygon fill="black" stroke="black" points="2265.15,-262.104 2261.65,-252.104 2258.15,-262.104 2265.15,-262.104"/>
</g>
<!-- StatMove7&#45;&gt;ExpTemp16 -->
<g id="edge20" class="edge"><title>StatMove7&#45;&gt;ExpTemp16</title>
<path fill="none" stroke="black" d="M2289.17,-290.834C2309.63,-280.301 2337.79,-265.809 2360.29,-254.229"/>
<polygon fill="black" stroke="black" points="2361.94,-257.315 2369.23,-249.626 2358.74,-251.091 2361.94,-257.315"/>
</g>
<!-- StatMove4 -->
<g id="node30" class="node"><title>StatMove4</title>
<ellipse fill="none" stroke="black" cx="1366.65" cy="-306" rx="50.0912" ry="18"/>
<text text-anchor="middle" x="1366.65" y="-302.3" font-family="Times,serif" font-size="14.00">StatMove4</text>
</g>
<!-- StatMove4&#45;&gt;ExpName0 -->
<g id="edge22" class="edge"><title>StatMove4&#45;&gt;ExpName0</title>
<path fill="none" stroke="black" d="M1382.18,-288.765C1390.81,-279.753 1401.69,-268.385 1411.22,-258.426"/>
<polygon fill="black" stroke="black" points="1413.8,-260.792 1418.19,-251.147 1408.75,-255.951 1413.8,-260.792"/>
</g>
<!-- ExpTemp8 -->
<g id="node31" class="node"><title>ExpTemp8</title>
<ellipse fill="none" stroke="black" cx="1300.65" cy="-234" rx="50.0912" ry="18"/>
<text text-anchor="middle" x="1300.65" y="-230.3" font-family="Times,serif" font-size="14.00">ExpTemp8</text>
</g>
<!-- StatMove4&#45;&gt;ExpTemp8 -->
<g id="edge21" class="edge"><title>StatMove4&#45;&gt;ExpTemp8</title>
<path fill="none" stroke="black" d="M1351.34,-288.765C1342.84,-279.753 1332.12,-268.385 1322.73,-258.426"/>
<polygon fill="black" stroke="black" points="1325.28,-256.022 1315.87,-251.147 1320.18,-260.824 1325.28,-256.022"/>
</g>
<!-- Temp8: T182 -->
<g id="node63" class="node"><title>Temp8: T182</title>
<ellipse fill="none" stroke="black" cx="1273.65" cy="-162" rx="59.5901" ry="18"/>
<text text-anchor="middle" x="1273.65" y="-158.3" font-family="Times,serif" font-size="14.00">Temp8: T182</text>
</g>
<!-- ExpTemp8&#45;&gt;Temp8: T182 -->
<g id="edge57" class="edge"><title>ExpTemp8&#45;&gt;Temp8: T182</title>
<path fill="none" stroke="black" d="M1294.11,-216.055C1291.07,-208.176 1287.38,-198.617 1283.98,-189.794"/>
<polygon fill="black" stroke="black" points="1287.17,-188.346 1280.31,-180.275 1280.64,-190.865 1287.17,-188.346"/>
</g>
<!-- ExpMem0 -->
<g id="node32" class="node"><title>ExpMem0</title>
<ellipse fill="none" stroke="black" cx="243.645" cy="-234" rx="48.9926" ry="18"/>
<text text-anchor="middle" x="243.645" y="-230.3" font-family="Times,serif" font-size="14.00">ExpMem0</text>
</g>
<!-- ExpBinary0 -->
<g id="node33" class="node"><title>ExpBinary0</title>
<ellipse fill="none" stroke="black" cx="181.645" cy="-162" rx="53.0913" ry="18"/>
<text text-anchor="middle" x="181.645" y="-158.3" font-family="Times,serif" font-size="14.00">ExpBinary0</text>
</g>
<!-- ExpMem0&#45;&gt;ExpBinary0 -->
<g id="edge23" class="edge"><title>ExpMem0&#45;&gt;ExpBinary0</title>
<path fill="none" stroke="black" d="M229.265,-216.765C221.475,-207.969 211.696,-196.928 203.03,-187.144"/>
<polygon fill="black" stroke="black" points="205.628,-184.799 196.378,-179.633 200.388,-189.44 205.628,-184.799"/>
</g>
<!-- ExpBinary0&#45;&gt;ExpConst0 -->
<g id="edge56" class="edge"><title>ExpBinary0&#45;&gt;ExpConst0</title>
<path fill="none" stroke="black" d="M197.649,-144.765C206.532,-135.753 217.737,-124.385 227.554,-114.426"/>
<polygon fill="black" stroke="black" points="230.201,-116.726 234.729,-107.147 225.216,-111.812 230.201,-116.726"/>
</g>
<!-- ExpTemp0 -->
<g id="node54" class="node"><title>ExpTemp0</title>
<ellipse fill="none" stroke="black" cx="52.6453" cy="-90" rx="50.0912" ry="18"/>
<text text-anchor="middle" x="52.6453" y="-86.3" font-family="Times,serif" font-size="14.00">ExpTemp0</text>
</g>
<!-- ExpBinary0&#45;&gt;ExpTemp0 -->
<g id="edge54" class="edge"><title>ExpBinary0&#45;&gt;ExpTemp0</title>
<path fill="none" stroke="black" d="M154.603,-146.326C135.296,-135.849 109.136,-121.654 88.1489,-110.265"/>
<polygon fill="black" stroke="black" points="89.6691,-107.108 79.2105,-105.415 86.3305,-113.261 89.6691,-107.108"/>
</g>
<!-- Plus0 -->
<g id="node62" class="node"><title>Plus0</title>
<ellipse fill="none" stroke="black" cx="151.645" cy="-90" rx="30.5947" ry="18"/>
<text text-anchor="middle" x="151.645" y="-86.3" font-family="Times,serif" font-size="14.00">Plus0</text>
</g>
<!-- ExpBinary0&#45;&gt;Plus0 -->
<g id="edge55" class="edge"><title>ExpBinary0&#45;&gt;Plus0</title>
<path fill="none" stroke="black" d="M174.383,-144.055C170.919,-135.973 166.697,-126.121 162.836,-117.112"/>
<polygon fill="black" stroke="black" points="165.997,-115.602 158.841,-107.789 159.563,-118.359 165.997,-115.602"/>
</g>
<!-- ExpBinary1 -->
<g id="node34" class="node"><title>ExpBinary1</title>
<ellipse fill="none" stroke="black" cx="610.645" cy="-162" rx="53.0913" ry="18"/>
<text text-anchor="middle" x="610.645" y="-158.3" font-family="Times,serif" font-size="14.00">ExpBinary1</text>
</g>
<!-- ExpTemp3 -->
<g id="node35" class="node"><title>ExpTemp3</title>
<ellipse fill="none" stroke="black" cx="511.645" cy="-90" rx="50.0912" ry="18"/>
<text text-anchor="middle" x="511.645" y="-86.3" font-family="Times,serif" font-size="14.00">ExpTemp3</text>
</g>
<!-- ExpBinary1&#45;&gt;ExpTemp3 -->
<g id="edge24" class="edge"><title>ExpBinary1&#45;&gt;ExpTemp3</title>
<path fill="none" stroke="black" d="M588.674,-145.465C574.864,-135.7 556.863,-122.972 541.736,-112.276"/>
<polygon fill="black" stroke="black" points="543.4,-109.167 533.215,-106.251 539.359,-114.882 543.4,-109.167"/>
</g>
<!-- Plus1 -->
<g id="node36" class="node"><title>Plus1</title>
<ellipse fill="none" stroke="black" cx="610.645" cy="-90" rx="30.5947" ry="18"/>
<text text-anchor="middle" x="610.645" y="-86.3" font-family="Times,serif" font-size="14.00">Plus1</text>
</g>
<!-- ExpBinary1&#45;&gt;Plus1 -->
<g id="edge25" class="edge"><title>ExpBinary1&#45;&gt;Plus1</title>
<path fill="none" stroke="black" d="M610.645,-143.697C610.645,-135.983 610.645,-126.712 610.645,-118.112"/>
<polygon fill="black" stroke="black" points="614.145,-118.104 610.645,-108.104 607.145,-118.104 614.145,-118.104"/>
</g>
<!-- ExpConst1 -->
<g id="node37" class="node"><title>ExpConst1</title>
<ellipse fill="none" stroke="black" cx="709.645" cy="-90" rx="50.0912" ry="18"/>
<text text-anchor="middle" x="709.645" y="-86.3" font-family="Times,serif" font-size="14.00">ExpConst1</text>
</g>
<!-- ExpBinary1&#45;&gt;ExpConst1 -->
<g id="edge26" class="edge"><title>ExpBinary1&#45;&gt;ExpConst1</title>
<path fill="none" stroke="black" d="M632.617,-145.465C646.426,-135.7 664.427,-122.972 679.555,-112.276"/>
<polygon fill="black" stroke="black" points="681.932,-114.882 688.076,-106.251 677.89,-109.167 681.932,-114.882"/>
</g>
<!-- Temp3: $fp -->
<g id="node65" class="node"><title>Temp3: $fp</title>
<ellipse fill="none" stroke="black" cx="511.645" cy="-18" rx="52.7911" ry="18"/>
<text text-anchor="middle" x="511.645" y="-14.3" font-family="Times,serif" font-size="14.00">Temp3: $fp</text>
</g>
<!-- ExpTemp3&#45;&gt;Temp3: $fp -->
<g id="edge63" class="edge"><title>ExpTemp3&#45;&gt;Temp3: $fp</title>
<path fill="none" stroke="black" d="M511.645,-71.6966C511.645,-63.9827 511.645,-54.7125 511.645,-46.1124"/>
<polygon fill="black" stroke="black" points="515.145,-46.1043 511.645,-36.1043 508.145,-46.1044 515.145,-46.1043"/>
</g>
<!-- Value1: 12 -->
<g id="node64" class="node"><title>Value1: 12</title>
<ellipse fill="none" stroke="black" cx="709.645" cy="-18" rx="50.0912" ry="18"/>
<text text-anchor="middle" x="709.645" y="-14.3" font-family="Times,serif" font-size="14.00">Value1: 12</text>
</g>
<!-- ExpConst1&#45;&gt;Value1: 12 -->
<g id="edge62" class="edge"><title>ExpConst1&#45;&gt;Value1: 12</title>
<path fill="none" stroke="black" d="M709.645,-71.6966C709.645,-63.9827 709.645,-54.7125 709.645,-46.1124"/>
<polygon fill="black" stroke="black" points="713.145,-46.1043 709.645,-36.1043 706.145,-46.1044 713.145,-46.1043"/>
</g>
<!-- ExpMem3 -->
<g id="node38" class="node"><title>ExpMem3</title>
<ellipse fill="none" stroke="black" cx="1145.65" cy="-234" rx="48.9926" ry="18"/>
<text text-anchor="middle" x="1145.65" y="-230.3" font-family="Times,serif" font-size="14.00">ExpMem3</text>
</g>
<!-- ExpTemp7 -->
<g id="node39" class="node"><title>ExpTemp7</title>
<ellipse fill="none" stroke="black" cx="1145.65" cy="-162" rx="50.0912" ry="18"/>
<text text-anchor="middle" x="1145.65" y="-158.3" font-family="Times,serif" font-size="14.00">ExpTemp7</text>
</g>
<!-- ExpMem3&#45;&gt;ExpTemp7 -->
<g id="edge27" class="edge"><title>ExpMem3&#45;&gt;ExpTemp7</title>
<path fill="none" stroke="black" d="M1145.65,-215.697C1145.65,-207.983 1145.65,-198.712 1145.65,-190.112"/>
<polygon fill="black" stroke="black" points="1149.15,-190.104 1145.65,-180.104 1142.15,-190.104 1149.15,-190.104"/>
</g>
<!-- Temp7: $fp -->
<g id="node73" class="node"><title>Temp7: $fp</title>
<ellipse fill="none" stroke="black" cx="1145.65" cy="-90" rx="52.7911" ry="18"/>
<text text-anchor="middle" x="1145.65" y="-86.3" font-family="Times,serif" font-size="14.00">Temp7: $fp</text>
</g>
<!-- ExpTemp7&#45;&gt;Temp7: $fp -->
<g id="edge72" class="edge"><title>ExpTemp7&#45;&gt;Temp7: $fp</title>
<path fill="none" stroke="black" d="M1145.65,-143.697C1145.65,-135.983 1145.65,-126.712 1145.65,-118.112"/>
<polygon fill="black" stroke="black" points="1149.15,-118.104 1145.65,-108.104 1142.15,-118.104 1149.15,-118.104"/>
</g>
<!-- ExpTemp2 -->
<g id="node41" class="node"><title>ExpTemp2</title>
<ellipse fill="none" stroke="black" cx="487.645" cy="-234" rx="50.0912" ry="18"/>
<text text-anchor="middle" x="487.645" y="-230.3" font-family="Times,serif" font-size="14.00">ExpTemp2</text>
</g>
<!-- Temp2: T186 -->
<g id="node42" class="node"><title>Temp2: T186</title>
<ellipse fill="none" stroke="black" cx="479.645" cy="-162" rx="59.5901" ry="18"/>
<text text-anchor="middle" x="479.645" y="-158.3" font-family="Times,serif" font-size="14.00">Temp2: T186</text>
</g>
<!-- ExpTemp2&#45;&gt;Temp2: T186 -->
<g id="edge29" class="edge"><title>ExpTemp2&#45;&gt;Temp2: T186</title>
<path fill="none" stroke="black" d="M485.668,-215.697C484.786,-207.983 483.727,-198.712 482.744,-190.112"/>
<polygon fill="black" stroke="black" points="486.213,-189.642 481.6,-180.104 479.258,-190.437 486.213,-189.642"/>
</g>
<!-- StatMove2 -->
<g id="node43" class="node"><title>StatMove2</title>
<ellipse fill="none" stroke="black" cx="879.645" cy="-306" rx="50.0912" ry="18"/>
<text text-anchor="middle" x="879.645" y="-302.3" font-family="Times,serif" font-size="14.00">StatMove2</text>
</g>
<!-- ExpTemp4 -->
<g id="node44" class="node"><title>ExpTemp4</title>
<ellipse fill="none" stroke="black" cx="751.645" cy="-234" rx="50.0912" ry="18"/>
<text text-anchor="middle" x="751.645" y="-230.3" font-family="Times,serif" font-size="14.00">ExpTemp4</text>
</g>
<!-- StatMove2&#45;&gt;ExpTemp4 -->
<g id="edge30" class="edge"><title>StatMove2&#45;&gt;ExpTemp4</title>
<path fill="none" stroke="black" d="M853.434,-290.666C834.32,-280.213 808.2,-265.929 787.206,-254.447"/>
<polygon fill="black" stroke="black" points="788.715,-251.283 778.262,-249.556 785.356,-257.425 788.715,-251.283"/>
</g>
<!-- ExpTemp5 -->
<g id="node45" class="node"><title>ExpTemp5</title>
<ellipse fill="none" stroke="black" cx="879.645" cy="-234" rx="50.0912" ry="18"/>
<text text-anchor="middle" x="879.645" y="-230.3" font-family="Times,serif" font-size="14.00">ExpTemp5</text>
</g>
<!-- StatMove2&#45;&gt;ExpTemp5 -->
<g id="edge31" class="edge"><title>StatMove2&#45;&gt;ExpTemp5</title>
<path fill="none" stroke="black" d="M879.645,-287.697C879.645,-279.983 879.645,-270.712 879.645,-262.112"/>
<polygon fill="black" stroke="black" points="883.145,-262.104 879.645,-252.104 876.145,-262.104 883.145,-262.104"/>
</g>
<!-- Temp4: T185 -->
<g id="node72" class="node"><title>Temp4: T185</title>
<ellipse fill="none" stroke="black" cx="741.645" cy="-162" rx="59.5901" ry="18"/>
<text text-anchor="middle" x="741.645" y="-158.3" font-family="Times,serif" font-size="14.00">Temp4: T185</text>
</g>
<!-- ExpTemp4&#45;&gt;Temp4: T185 -->
<g id="edge71" class="edge"><title>ExpTemp4&#45;&gt;Temp4: T185</title>
<path fill="none" stroke="black" d="M749.173,-215.697C748.071,-207.983 746.747,-198.712 745.519,-190.112"/>
<polygon fill="black" stroke="black" points="748.968,-189.509 744.089,-180.104 742.038,-190.499 748.968,-189.509"/>
</g>
<!-- Temp5: T181 -->
<g id="node68" class="node"><title>Temp5: T181</title>
<ellipse fill="none" stroke="black" cx="879.645" cy="-162" rx="59.5901" ry="18"/>
<text text-anchor="middle" x="879.645" y="-158.3" font-family="Times,serif" font-size="14.00">Temp5: T181</text>
</g>
<!-- ExpTemp5&#45;&gt;Temp5: T181 -->
<g id="edge66" class="edge"><title>ExpTemp5&#45;&gt;Temp5: T181</title>
<path fill="none" stroke="black" d="M879.645,-215.697C879.645,-207.983 879.645,-198.712 879.645,-190.112"/>
<polygon fill="black" stroke="black" points="883.145,-190.104 879.645,-180.104 876.145,-190.104 883.145,-190.104"/>
</g>
<!-- StatLabel0 -->
<g id="node46" class="node"><title>StatLabel0</title>
<ellipse fill="none" stroke="black" cx="168.645" cy="-306" rx="48.9926" ry="18"/>
<text text-anchor="middle" x="168.645" y="-302.3" font-family="Times,serif" font-size="14.00">StatLabel0</text>
</g>
<!-- Label0: Tree@Print -->
<g id="node47" class="node"><title>Label0: Tree@Print</title>
<ellipse fill="none" stroke="black" cx="95.6453" cy="-234" rx="81.4863" ry="18"/>
<text text-anchor="middle" x="95.6453" y="-230.3" font-family="Times,serif" font-size="14.00">Label0: Tree@Print</text>
</g>
<!-- StatLabel0&#45;&gt;Label0: Tree@Print -->
<g id="edge32" class="edge"><title>StatLabel0&#45;&gt;Label0: Tree@Print</title>
<path fill="none" stroke="black" d="M151.714,-288.765C142.36,-279.795 130.571,-268.49 120.219,-258.564"/>
<polygon fill="black" stroke="black" points="122.632,-256.028 112.992,-251.633 117.787,-261.081 122.632,-256.028"/>
</g>
<!-- StatList0 -->
<g id="node48" class="node"><title>StatList0</title>
<ellipse fill="none" stroke="black" cx="1366.65" cy="-378" rx="42.4939" ry="18"/>
<text text-anchor="middle" x="1366.65" y="-374.3" font-family="Times,serif" font-size="14.00">StatList0</text>
</g>
<!-- StatList0&#45;&gt;StatMove8 -->
<g id="edge42" class="edge"><title>StatList0&#45;&gt;StatMove8</title>
<path fill="none" stroke="black" d="M1408.51,-375.036C1541.79,-368.705 1968.13,-347.856 2320.65,-324 2372.96,-320.46 2432.44,-315.646 2475.22,-312.045"/>
<polygon fill="black" stroke="black" points="2475.78,-315.51 2485.45,-311.18 2475.19,-308.535 2475.78,-315.51"/>
</g>
<!-- StatList0&#45;&gt;StatMove6 -->
<g id="edge40" class="edge"><title>StatList0&#45;&gt;StatMove6</title>
<path fill="none" stroke="black" d="M1406.51,-371.623C1498.05,-359.277 1723.53,-328.865 1829.24,-314.608"/>
<polygon fill="black" stroke="black" points="1829.95,-318.044 1839.39,-313.238 1829.01,-311.106 1829.95,-318.044"/>
</g>
<!-- StatList0&#45;&gt;StatMove7 -->
<g id="edge41" class="edge"><title>StatList0&#45;&gt;StatMove7</title>
<path fill="none" stroke="black" d="M1407.72,-373.787C1551.8,-362.519 2034.56,-324.761 2203.03,-311.584"/>
<polygon fill="black" stroke="black" points="2203.5,-315.059 2213.2,-310.789 2202.95,-308.08 2203.5,-315.059"/>
</g>
<!-- StatList0&#45;&gt;StatMove4 -->
<g id="edge38" class="edge"><title>StatList0&#45;&gt;StatMove4</title>
<path fill="none" stroke="black" d="M1366.65,-359.697C1366.65,-351.983 1366.65,-342.712 1366.65,-334.112"/>
<polygon fill="black" stroke="black" points="1370.15,-334.104 1366.65,-324.104 1363.15,-334.104 1370.15,-334.104"/>
</g>
<!-- StatList0&#45;&gt;StatMove2 -->
<g id="edge36" class="edge"><title>StatList0&#45;&gt;StatMove2</title>
<path fill="none" stroke="black" d="M1327.2,-371.331C1240.93,-358.93 1035.21,-329.36 935.593,-315.042"/>
<polygon fill="black" stroke="black" points="935.823,-311.539 925.426,-313.58 934.827,-318.468 935.823,-311.539"/>
</g>
<!-- StatList0&#45;&gt;StatLabel0 -->
<g id="edge33" class="edge"><title>StatList0&#45;&gt;StatLabel0</title>
<path fill="none" stroke="black" d="M1324.37,-376.106C1180.58,-372.81 697.28,-359.62 299.645,-324 274.375,-321.736 246.482,-318.254 222.951,-315.03"/>
<polygon fill="black" stroke="black" points="223.201,-311.531 212.814,-313.62 222.237,-318.464 223.201,-311.531"/>
</g>
<!-- StatMove0 -->
<g id="node49" class="node"><title>StatMove0</title>
<ellipse fill="none" stroke="black" cx="358.645" cy="-306" rx="50.0912" ry="18"/>
<text text-anchor="middle" x="358.645" y="-302.3" font-family="Times,serif" font-size="14.00">StatMove0</text>
</g>
<!-- StatList0&#45;&gt;StatMove0 -->
<g id="edge34" class="edge"><title>StatList0&#45;&gt;StatMove0</title>
<path fill="none" stroke="black" d="M1325.06,-374.633C1205.06,-367.731 847.833,-346.672 551.645,-324 506.427,-320.539 455.306,-316.008 417.042,-312.494"/>
<polygon fill="black" stroke="black" points="416.885,-308.965 406.606,-311.532 416.242,-315.936 416.885,-308.965"/>
</g>
<!-- StatMove1 -->
<g id="node50" class="node"><title>StatMove1</title>
<ellipse fill="none" stroke="black" cx="610.645" cy="-306" rx="50.0912" ry="18"/>
<text text-anchor="middle" x="610.645" y="-302.3" font-family="Times,serif" font-size="14.00">StatMove1</text>
</g>
<!-- StatList0&#45;&gt;StatMove1 -->
<g id="edge35" class="edge"><title>StatList0&#45;&gt;StatMove1</title>
<path fill="none" stroke="black" d="M1325.73,-373.212C1199.49,-361.523 815.759,-325.992 668.778,-312.383"/>
<polygon fill="black" stroke="black" points="668.892,-308.878 658.611,-311.441 668.246,-315.848 668.892,-308.878"/>
</g>
<!-- StatMove3 -->
<g id="node51" class="node"><title>StatMove3</title>
<ellipse fill="none" stroke="black" cx="1145.65" cy="-306" rx="50.0912" ry="18"/>
<text text-anchor="middle" x="1145.65" y="-302.3" font-family="Times,serif" font-size="14.00">StatMove3</text>
</g>
<!-- StatList0&#45;&gt;StatMove3 -->
<g id="edge37" class="edge"><title>StatList0&#45;&gt;StatMove3</title>
<path fill="none" stroke="black" d="M1333.56,-366.52C1295.88,-354.586 1234.07,-335.007 1191.69,-321.586"/>
<polygon fill="black" stroke="black" points="1192.49,-318.167 1181.9,-318.484 1190.38,-324.84 1192.49,-318.167"/>
</g>
<!-- StatMove5 -->
<g id="node52" class="node"><title>StatMove5</title>
<ellipse fill="none" stroke="black" cx="1619.65" cy="-306" rx="50.0912" ry="18"/>
<text text-anchor="middle" x="1619.65" y="-302.3" font-family="Times,serif" font-size="14.00">StatMove5</text>
</g>
<!-- StatList0&#45;&gt;StatMove5 -->
<g id="edge39" class="edge"><title>StatList0&#45;&gt;StatMove5</title>
<path fill="none" stroke="black" d="M1401.03,-367.487C1445.02,-355.316 1521.46,-334.166 1571.29,-320.378"/>
<polygon fill="black" stroke="black" points="1572.49,-323.678 1581.2,-317.638 1570.63,-316.931 1572.49,-323.678"/>
</g>
<!-- StatJump0 -->
<g id="node53" class="node"><title>StatJump0</title>
<ellipse fill="none" stroke="black" cx="2721.65" cy="-306" rx="48.1917" ry="18"/>
<text text-anchor="middle" x="2721.65" y="-302.3" font-family="Times,serif" font-size="14.00">StatJump0</text>
</g>
<!-- StatList0&#45;&gt;StatJump0 -->
<g id="edge43" class="edge"><title>StatList0&#45;&gt;StatJump0</title>
<path fill="none" stroke="black" d="M1408.81,-376.518C1565.6,-374.441 2129.7,-364.432 2592.65,-324 2617.54,-321.826 2645.01,-318.356 2668.18,-315.116"/>
<polygon fill="black" stroke="black" points="2668.75,-318.57 2678.16,-313.698 2667.77,-311.64 2668.75,-318.57"/>
</g>
<!-- StatMove0&#45;&gt;ExpMem1 -->
<g id="edge51" class="edge"><title>StatMove0&#45;&gt;ExpMem1</title>
<path fill="none" stroke="black" d="M358.645,-287.697C358.645,-279.983 358.645,-270.712 358.645,-262.112"/>
<polygon fill="black" stroke="black" points="362.145,-262.104 358.645,-252.104 355.145,-262.104 362.145,-262.104"/>
</g>
<!-- StatMove0&#45;&gt;ExpMem0 -->
<g id="edge50" class="edge"><title>StatMove0&#45;&gt;ExpMem0</title>
<path fill="none" stroke="black" d="M334.257,-290.155C317.485,-279.946 295.013,-266.267 276.644,-255.086"/>
<polygon fill="black" stroke="black" points="278.361,-252.034 267.999,-249.824 274.721,-258.013 278.361,-252.034"/>
</g>
<!-- StatMove1&#45;&gt;ExpTemp2 -->
<g id="edge58" class="edge"><title>StatMove1&#45;&gt;ExpTemp2</title>
<path fill="none" stroke="black" d="M585.16,-290.496C566.976,-280.147 542.306,-266.107 522.329,-254.739"/>
<polygon fill="black" stroke="black" points="523.944,-251.631 513.522,-249.726 520.481,-257.714 523.944,-251.631"/>
</g>
<!-- ExpMem2 -->
<g id="node59" class="node"><title>ExpMem2</title>
<ellipse fill="none" stroke="black" cx="610.645" cy="-234" rx="48.9926" ry="18"/>
<text text-anchor="middle" x="610.645" y="-230.3" font-family="Times,serif" font-size="14.00">ExpMem2</text>
</g>
<!-- StatMove1&#45;&gt;ExpMem2 -->
<g id="edge59" class="edge"><title>StatMove1&#45;&gt;ExpMem2</title>
<path fill="none" stroke="black" d="M610.645,-287.697C610.645,-279.983 610.645,-270.712 610.645,-262.112"/>
<polygon fill="black" stroke="black" points="614.145,-262.104 610.645,-252.104 607.145,-262.104 614.145,-262.104"/>
</g>
<!-- StatMove3&#45;&gt;ExpMem3 -->
<g id="edge70" class="edge"><title>StatMove3&#45;&gt;ExpMem3</title>
<path fill="none" stroke="black" d="M1145.65,-287.697C1145.65,-279.983 1145.65,-270.712 1145.65,-262.112"/>
<polygon fill="black" stroke="black" points="1149.15,-262.104 1145.65,-252.104 1142.15,-262.104 1149.15,-262.104"/>
</g>
<!-- ExpTemp6 -->
<g id="node69" class="node"><title>ExpTemp6</title>
<ellipse fill="none" stroke="black" cx="1023.65" cy="-234" rx="50.0912" ry="18"/>
<text text-anchor="middle" x="1023.65" y="-230.3" font-family="Times,serif" font-size="14.00">ExpTemp6</text>
</g>
<!-- StatMove3&#45;&gt;ExpTemp6 -->
<g id="edge69" class="edge"><title>StatMove3&#45;&gt;ExpTemp6</title>
<path fill="none" stroke="black" d="M1120.07,-290.326C1102.01,-279.965 1077.62,-265.969 1057.89,-254.646"/>
<polygon fill="black" stroke="black" points="1059.6,-251.596 1049.19,-249.655 1056.12,-257.668 1059.6,-251.596"/>
</g>
<!-- StatMove5&#45;&gt;ExpTemp9 -->
<g id="edge60" class="edge"><title>StatMove5&#45;&gt;ExpTemp9</title>
<path fill="none" stroke="black" d="M1619.65,-287.697C1619.65,-279.983 1619.65,-270.712 1619.65,-262.112"/>
<polygon fill="black" stroke="black" points="1623.15,-262.104 1619.65,-252.104 1616.15,-262.104 1623.15,-262.104"/>
</g>
<!-- ExpMem4 -->
<g id="node61" class="node"><title>ExpMem4</title>
<ellipse fill="none" stroke="black" cx="1743.65" cy="-234" rx="48.9926" ry="18"/>
<text text-anchor="middle" x="1743.65" y="-230.3" font-family="Times,serif" font-size="14.00">ExpMem4</text>
</g>
<!-- StatMove5&#45;&gt;ExpMem4 -->
<g id="edge61" class="edge"><title>StatMove5&#45;&gt;ExpMem4</title>
<path fill="none" stroke="black" d="M1645.34,-290.496C1663.79,-280.078 1688.87,-265.919 1709.08,-254.51"/>
<polygon fill="black" stroke="black" points="1711,-257.449 1717.99,-249.485 1707.56,-251.354 1711,-257.449"/>
</g>
<!-- Label2: epilogue -->
<g id="node56" class="node"><title>Label2: epilogue</title>
<ellipse fill="none" stroke="black" cx="2794.65" cy="-234" rx="70.3881" ry="18"/>
<text text-anchor="middle" x="2794.65" y="-230.3" font-family="Times,serif" font-size="14.00">Label2: epilogue</text>
</g>
<!-- StatJump0&#45;&gt;Label2: epilogue -->
<g id="edge45" class="edge"><title>StatJump0&#45;&gt;Label2: epilogue</title>
<path fill="none" stroke="black" d="M2738.58,-288.765C2747.93,-279.795 2759.72,-268.49 2770.07,-258.564"/>
<polygon fill="black" stroke="black" points="2772.5,-261.081 2777.3,-251.633 2767.66,-256.028 2772.5,-261.081"/>
</g>
<!-- Temp0: $fp -->
<g id="node55" class="node"><title>Temp0: $fp</title>
<ellipse fill="none" stroke="black" cx="52.6453" cy="-18" rx="52.7911" ry="18"/>
<text text-anchor="middle" x="52.6453" y="-14.3" font-family="Times,serif" font-size="14.00">Temp0: $fp</text>
</g>
<!-- ExpTemp0&#45;&gt;Temp0: $fp -->
<g id="edge44" class="edge"><title>ExpTemp0&#45;&gt;Temp0: $fp</title>
<path fill="none" stroke="black" d="M52.6453,-71.6966C52.6453,-63.9827 52.6453,-54.7125 52.6453,-46.1124"/>
<polygon fill="black" stroke="black" points="56.1454,-46.1043 52.6453,-36.1043 49.1454,-46.1044 56.1454,-46.1043"/>
</g>
<!-- Temp12: T182 -->
<g id="node60" class="node"><title>Temp12: T182</title>
<ellipse fill="none" stroke="black" cx="2000.65" cy="-90" rx="63.8893" ry="18"/>
<text text-anchor="middle" x="2000.65" y="-86.3" font-family="Times,serif" font-size="14.00">Temp12: T182</text>
</g>
<!-- ExpTemp12&#45;&gt;Temp12: T182 -->
<g id="edge52" class="edge"><title>ExpTemp12&#45;&gt;Temp12: T182</title>
<path fill="none" stroke="black" d="M2016.56,-144.055C2014.22,-136.261 2011.39,-126.822 2008.77,-118.079"/>
<polygon fill="black" stroke="black" points="2012.05,-116.848 2005.83,-108.275 2005.35,-118.859 2012.05,-116.848"/>
</g>
<!-- ExpMem2&#45;&gt;ExpBinary1 -->
<g id="edge49" class="edge"><title>ExpMem2&#45;&gt;ExpBinary1</title>
<path fill="none" stroke="black" d="M610.645,-215.697C610.645,-207.983 610.645,-198.712 610.645,-190.112"/>
<polygon fill="black" stroke="black" points="614.145,-190.104 610.645,-180.104 607.145,-190.104 614.145,-190.104"/>
</g>
<!-- ExpMem4&#45;&gt;ExpBinary2 -->
<g id="edge53" class="edge"><title>ExpMem4&#45;&gt;ExpBinary2</title>
<path fill="none" stroke="black" d="M1745.38,-215.697C1746.15,-207.983 1747.07,-198.712 1747.93,-190.112"/>
<polygon fill="black" stroke="black" points="1751.42,-190.403 1748.93,-180.104 1744.46,-189.706 1751.42,-190.403"/>
</g>
<!-- Temp6: T183 -->
<g id="node70" class="node"><title>Temp6: T183</title>
<ellipse fill="none" stroke="black" cx="1017.65" cy="-162" rx="59.5901" ry="18"/>
<text text-anchor="middle" x="1017.65" y="-158.3" font-family="Times,serif" font-size="14.00">Temp6: T183</text>
</g>
<!-- ExpTemp6&#45;&gt;Temp6: T183 -->
<g id="edge67" class="edge"><title>ExpTemp6&#45;&gt;Temp6: T183</title>
<path fill="none" stroke="black" d="M1022.16,-215.697C1021.5,-207.983 1020.71,-198.712 1019.97,-190.112"/>
<polygon fill="black" stroke="black" points="1023.45,-189.769 1019.11,-180.104 1016.48,-190.367 1023.45,-189.769"/>
</g>
</g>
</svg>
