<?xml version="1.0" encoding="UTF-8" standalone="no"?>
<!DOCTYPE svg PUBLIC "-//W3C//DTD SVG 1.1//EN"
 "http://www.w3.org/Graphics/SVG/1.1/DTD/svg11.dtd">
<!-- Generated by graphviz version 2.38.0 (20140413.2041)
 -->
<!-- Title: %3 Pages: 1 -->
<svg width="871pt" height="476pt"
 viewBox="0.00 0.00 870.84 476.00" xmlns="http://www.w3.org/2000/svg" xmlns:xlink="http://www.w3.org/1999/xlink">
<g id="graph0" class="graph" transform="scale(1 1) rotate(0) translate(4 472)">
<title>%3</title>
<polygon fill="white" stroke="none" points="-4,4 -4,-472 866.839,-472 866.839,4 -4,4"/>
<!-- StatJump0 -->
<g id="node1" class="node"><title>StatJump0</title>
<ellipse fill="none" stroke="black" cx="722.645" cy="-378" rx="48.1917" ry="18"/>
<text text-anchor="middle" x="722.645" y="-374.3" font-family="Times,serif" font-size="14.00">StatJump0</text>
</g>
<!-- Label1: epilogue -->
<g id="node2" class="node"><title>Label1: epilogue</title>
<ellipse fill="none" stroke="black" cx="792.645" cy="-306" rx="70.3881" ry="18"/>
<text text-anchor="middle" x="792.645" y="-302.3" font-family="Times,serif" font-size="14.00">Label1: epilogue</text>
</g>
<!-- StatJump0&#45;&gt;Label1: epilogue -->
<g id="edge1" class="edge"><title>StatJump0&#45;&gt;Label1: epilogue</title>
<path fill="none" stroke="black" d="M738.881,-360.765C747.764,-351.882 758.936,-340.709 768.792,-330.854"/>
<polygon fill="black" stroke="black" points="771.416,-333.179 776.012,-323.633 766.466,-328.23 771.416,-333.179"/>
</g>
<!-- ExpConst2 -->
<g id="node3" class="node"><title>ExpConst2</title>
<ellipse fill="none" stroke="black" cx="654.645" cy="-306" rx="50.0912" ry="18"/>
<text text-anchor="middle" x="654.645" y="-302.3" font-family="Times,serif" font-size="14.00">ExpConst2</text>
</g>
<!-- Value2: 1 -->
<g id="node4" class="node"><title>Value2: 1</title>
<ellipse fill="none" stroke="black" cx="656.645" cy="-234" rx="45.4919" ry="18"/>
<text text-anchor="middle" x="656.645" y="-230.3" font-family="Times,serif" font-size="14.00">Value2: 1</text>
</g>
<!-- ExpConst2&#45;&gt;Value2: 1 -->
<g id="edge2" class="edge"><title>ExpConst2&#45;&gt;Value2: 1</title>
<path fill="none" stroke="black" d="M655.14,-287.697C655.36,-279.983 655.625,-270.712 655.871,-262.112"/>
<polygon fill="black" stroke="black" points="659.37,-262.2 656.157,-252.104 652.372,-262 659.37,-262.2"/>
</g>
<!-- ExpTemp2 -->
<g id="node5" class="node"><title>ExpTemp2</title>
<ellipse fill="none" stroke="black" cx="536.645" cy="-306" rx="50.0912" ry="18"/>
<text text-anchor="middle" x="536.645" y="-302.3" font-family="Times,serif" font-size="14.00">ExpTemp2</text>
</g>
<!-- Temp2: $rv -->
<g id="node6" class="node"><title>Temp2: $rv</title>
<ellipse fill="none" stroke="black" cx="540.645" cy="-234" rx="52.7911" ry="18"/>
<text text-anchor="middle" x="540.645" y="-230.3" font-family="Times,serif" font-size="14.00">Temp2: $rv</text>
</g>
<!-- ExpTemp2&#45;&gt;Temp2: $rv -->
<g id="edge3" class="edge"><title>ExpTemp2&#45;&gt;Temp2: $rv</title>
<path fill="none" stroke="black" d="M537.634,-287.697C538.075,-279.983 538.605,-270.712 539.096,-262.112"/>
<polygon fill="black" stroke="black" points="542.592,-262.288 539.668,-252.104 535.603,-261.888 542.592,-262.288"/>
</g>
<!-- StatMove1 -->
<g id="node7" class="node"><title>StatMove1</title>
<ellipse fill="none" stroke="black" cx="536.645" cy="-378" rx="50.0912" ry="18"/>
<text text-anchor="middle" x="536.645" y="-374.3" font-family="Times,serif" font-size="14.00">StatMove1</text>
</g>
<!-- StatMove1&#45;&gt;ExpConst2 -->
<g id="edge5" class="edge"><title>StatMove1&#45;&gt;ExpConst2</title>
<path fill="none" stroke="black" d="M561.382,-362.326C578.768,-352.012 602.228,-338.095 621.269,-326.8"/>
<polygon fill="black" stroke="black" points="623.126,-329.767 629.941,-321.655 619.555,-323.747 623.126,-329.767"/>
</g>
<!-- StatMove1&#45;&gt;ExpTemp2 -->
<g id="edge4" class="edge"><title>StatMove1&#45;&gt;ExpTemp2</title>
<path fill="none" stroke="black" d="M536.645,-359.697C536.645,-351.983 536.645,-342.712 536.645,-334.112"/>
<polygon fill="black" stroke="black" points="540.145,-334.104 536.645,-324.104 533.145,-334.104 540.145,-334.104"/>
</g>
<!-- ExpConst1 -->
<g id="node8" class="node"><title>ExpConst1</title>
<ellipse fill="none" stroke="black" cx="565.645" cy="-162" rx="50.0912" ry="18"/>
<text text-anchor="middle" x="565.645" y="-158.3" font-family="Times,serif" font-size="14.00">ExpConst1</text>
</g>
<!-- Value1: 4 -->
<g id="node9" class="node"><title>Value1: 4</title>
<ellipse fill="none" stroke="black" cx="565.645" cy="-90" rx="45.4919" ry="18"/>
<text text-anchor="middle" x="565.645" y="-86.3" font-family="Times,serif" font-size="14.00">Value1: 4</text>
</g>
<!-- ExpConst1&#45;&gt;Value1: 4 -->
<g id="edge6" class="edge"><title>ExpConst1&#45;&gt;Value1: 4</title>
<path fill="none" stroke="black" d="M565.645,-143.697C565.645,-135.983 565.645,-126.712 565.645,-118.112"/>
<polygon fill="black" stroke="black" points="569.145,-118.104 565.645,-108.104 562.145,-118.104 569.145,-118.104"/>
</g>
<!-- ExpMem2 -->
<g id="node10" class="node"><title>ExpMem2</title>
<ellipse fill="none" stroke="black" cx="417.645" cy="-306" rx="48.9926" ry="18"/>
<text text-anchor="middle" x="417.645" y="-302.3" font-family="Times,serif" font-size="14.00">ExpMem2</text>
</g>
<!-- ExpBinary1 -->
<g id="node11" class="node"><title>ExpBinary1</title>
<ellipse fill="none" stroke="black" cx="416.645" cy="-234" rx="53.0913" ry="18"/>
<text text-anchor="middle" x="416.645" y="-230.3" font-family="Times,serif" font-size="14.00">ExpBinary1</text>
</g>
<!-- ExpMem2&#45;&gt;ExpBinary1 -->
<g id="edge7" class="edge"><title>ExpMem2&#45;&gt;ExpBinary1</title>
<path fill="none" stroke="black" d="M417.398,-287.697C417.288,-279.983 417.156,-270.712 417.033,-262.112"/>
<polygon fill="black" stroke="black" points="420.532,-262.053 416.89,-252.104 413.533,-262.153 420.532,-262.053"/>
</g>
<!-- ExpBinary1&#45;&gt;ExpConst1 -->
<g id="edge25" class="edge"><title>ExpBinary1&#45;&gt;ExpConst1</title>
<path fill="none" stroke="black" d="M446.44,-219.003C469.634,-208.106 502.001,-192.9 527.157,-181.082"/>
<polygon fill="black" stroke="black" points="528.848,-184.155 536.41,-176.734 525.871,-177.819 528.848,-184.155"/>
</g>
<!-- ExpTemp1 -->
<g id="node24" class="node"><title>ExpTemp1</title>
<ellipse fill="none" stroke="black" cx="367.645" cy="-162" rx="50.0912" ry="18"/>
<text text-anchor="middle" x="367.645" y="-158.3" font-family="Times,serif" font-size="14.00">ExpTemp1</text>
</g>
<!-- ExpBinary1&#45;&gt;ExpTemp1 -->
<g id="edge23" class="edge"><title>ExpBinary1&#45;&gt;ExpTemp1</title>
<path fill="none" stroke="black" d="M405.033,-216.411C399.139,-207.992 391.855,-197.585 385.286,-188.201"/>
<polygon fill="black" stroke="black" points="388.117,-186.141 379.515,-179.956 382.382,-190.156 388.117,-186.141"/>
</g>
<!-- Plus1 -->
<g id="node26" class="node"><title>Plus1</title>
<ellipse fill="none" stroke="black" cx="466.645" cy="-162" rx="30.5947" ry="18"/>
<text text-anchor="middle" x="466.645" y="-158.3" font-family="Times,serif" font-size="14.00">Plus1</text>
</g>
<!-- ExpBinary1&#45;&gt;Plus1 -->
<g id="edge24" class="edge"><title>ExpBinary1&#45;&gt;Plus1</title>
<path fill="none" stroke="black" d="M428.495,-216.411C434.685,-207.744 442.38,-196.971 449.234,-187.375"/>
<polygon fill="black" stroke="black" points="452.261,-189.16 455.225,-178.988 446.565,-185.091 452.261,-189.16"/>
</g>
<!-- ExpTemp0 -->
<g id="node12" class="node"><title>ExpTemp0</title>
<ellipse fill="none" stroke="black" cx="52.6453" cy="-90" rx="50.0912" ry="18"/>
<text text-anchor="middle" x="52.6453" y="-86.3" font-family="Times,serif" font-size="14.00">ExpTemp0</text>
</g>
<!-- Temp0: $fp -->
<g id="node13" class="node"><title>Temp0: $fp</title>
<ellipse fill="none" stroke="black" cx="52.6453" cy="-18" rx="52.7911" ry="18"/>
<text text-anchor="middle" x="52.6453" y="-14.3" font-family="Times,serif" font-size="14.00">Temp0: $fp</text>
</g>
<!-- ExpTemp0&#45;&gt;Temp0: $fp -->
<g id="edge8" class="edge"><title>ExpTemp0&#45;&gt;Temp0: $fp</title>
<path fill="none" stroke="black" d="M52.6453,-71.6966C52.6453,-63.9827 52.6453,-54.7125 52.6453,-46.1124"/>
<polygon fill="black" stroke="black" points="56.1454,-46.1043 52.6453,-36.1043 49.1454,-46.1044 56.1454,-46.1043"/>
</g>
<!-- StatList0 -->
<g id="node14" class="node"><title>StatList0</title>
<ellipse fill="none" stroke="black" cx="476.645" cy="-450" rx="42.4939" ry="18"/>
<text text-anchor="middle" x="476.645" y="-446.3" font-family="Times,serif" font-size="14.00">StatList0</text>
</g>
<!-- StatList0&#45;&gt;StatJump0 -->
<g id="edge12" class="edge"><title>StatList0&#45;&gt;StatJump0</title>
<path fill="none" stroke="black" d="M510.851,-439.267C553.743,-427.062 627.481,-406.079 675.647,-392.373"/>
<polygon fill="black" stroke="black" points="676.857,-395.668 685.517,-389.565 674.941,-388.936 676.857,-395.668"/>
</g>
<!-- StatList0&#45;&gt;StatMove1 -->
<g id="edge11" class="edge"><title>StatList0&#45;&gt;StatMove1</title>
<path fill="none" stroke="black" d="M490.561,-432.765C498.026,-424.056 507.377,-413.147 515.701,-403.435"/>
<polygon fill="black" stroke="black" points="518.538,-405.504 522.388,-395.633 513.223,-400.948 518.538,-405.504"/>
</g>
<!-- StatLabel0 -->
<g id="node15" class="node"><title>StatLabel0</title>
<ellipse fill="none" stroke="black" cx="220.645" cy="-378" rx="48.9926" ry="18"/>
<text text-anchor="middle" x="220.645" y="-374.3" font-family="Times,serif" font-size="14.00">StatLabel0</text>
</g>
<!-- StatList0&#45;&gt;StatLabel0 -->
<g id="edge9" class="edge"><title>StatList0&#45;&gt;StatLabel0</title>
<path fill="none" stroke="black" d="M442.12,-439.559C397.338,-427.314 318.992,-405.892 268.495,-392.084"/>
<polygon fill="black" stroke="black" points="269.354,-388.69 258.785,-389.429 267.508,-395.443 269.354,-388.69"/>
</g>
<!-- StatMove0 -->
<g id="node16" class="node"><title>StatMove0</title>
<ellipse fill="none" stroke="black" cx="417.645" cy="-378" rx="50.0912" ry="18"/>
<text text-anchor="middle" x="417.645" y="-374.3" font-family="Times,serif" font-size="14.00">StatMove0</text>
</g>
<!-- StatList0&#45;&gt;StatMove0 -->
<g id="edge10" class="edge"><title>StatList0&#45;&gt;StatMove0</title>
<path fill="none" stroke="black" d="M462.961,-432.765C455.621,-424.056 446.426,-413.147 438.241,-403.435"/>
<polygon fill="black" stroke="black" points="440.786,-401.024 431.665,-395.633 435.433,-405.535 440.786,-401.024"/>
</g>
<!-- Label0: Tree@SetRight -->
<g id="node17" class="node"><title>Label0: Tree@SetRight</title>
<ellipse fill="none" stroke="black" cx="140.645" cy="-306" rx="94.7833" ry="18"/>
<text text-anchor="middle" x="140.645" y="-302.3" font-family="Times,serif" font-size="14.00">Label0: Tree@SetRight</text>
</g>
<!-- StatLabel0&#45;&gt;Label0: Tree@SetRight -->
<g id="edge13" class="edge"><title>StatLabel0&#45;&gt;Label0: Tree@SetRight</title>
<path fill="none" stroke="black" d="M202.492,-361.116C192.154,-352.07 179.008,-340.567 167.496,-330.494"/>
<polygon fill="black" stroke="black" points="169.673,-327.748 159.842,-323.797 165.063,-333.016 169.673,-327.748"/>
</g>
<!-- StatMove0&#45;&gt;ExpMem2 -->
<g id="edge20" class="edge"><title>StatMove0&#45;&gt;ExpMem2</title>
<path fill="none" stroke="black" d="M417.645,-359.697C417.645,-351.983 417.645,-342.712 417.645,-334.112"/>
<polygon fill="black" stroke="black" points="421.145,-334.104 417.645,-324.104 414.145,-334.104 421.145,-334.104"/>
</g>
<!-- ExpMem0 -->
<g id="node23" class="node"><title>ExpMem0</title>
<ellipse fill="none" stroke="black" cx="302.645" cy="-306" rx="48.9926" ry="18"/>
<text text-anchor="middle" x="302.645" y="-302.3" font-family="Times,serif" font-size="14.00">ExpMem0</text>
</g>
<!-- StatMove0&#45;&gt;ExpMem0 -->
<g id="edge19" class="edge"><title>StatMove0&#45;&gt;ExpMem0</title>
<path fill="none" stroke="black" d="M393.257,-362.155C376.485,-351.946 354.013,-338.267 335.644,-327.086"/>
<polygon fill="black" stroke="black" points="337.361,-324.034 326.999,-321.824 333.721,-330.013 337.361,-324.034"/>
</g>
<!-- ExpMem1 -->
<g id="node18" class="node"><title>ExpMem1</title>
<ellipse fill="none" stroke="black" cx="52.6453" cy="-162" rx="48.9926" ry="18"/>
<text text-anchor="middle" x="52.6453" y="-158.3" font-family="Times,serif" font-size="14.00">ExpMem1</text>
</g>
<!-- ExpMem1&#45;&gt;ExpTemp0 -->
<g id="edge14" class="edge"><title>ExpMem1&#45;&gt;ExpTemp0</title>
<path fill="none" stroke="black" d="M52.6453,-143.697C52.6453,-135.983 52.6453,-126.712 52.6453,-118.112"/>
<polygon fill="black" stroke="black" points="56.1454,-118.104 52.6453,-108.104 49.1454,-118.104 56.1454,-118.104"/>
</g>
<!-- ExpConst0 -->
<g id="node19" class="node"><title>ExpConst0</title>
<ellipse fill="none" stroke="black" cx="248.645" cy="-162" rx="50.0912" ry="18"/>
<text text-anchor="middle" x="248.645" y="-158.3" font-family="Times,serif" font-size="14.00">ExpConst0</text>
</g>
<!-- Value0: 20 -->
<g id="node20" class="node"><title>Value0: 20</title>
<ellipse fill="none" stroke="black" cx="247.645" cy="-90" rx="50.0912" ry="18"/>
<text text-anchor="middle" x="247.645" y="-86.3" font-family="Times,serif" font-size="14.00">Value0: 20</text>
</g>
<!-- ExpConst0&#45;&gt;Value0: 20 -->
<g id="edge15" class="edge"><title>ExpConst0&#45;&gt;Value0: 20</title>
<path fill="none" stroke="black" d="M248.398,-143.697C248.288,-135.983 248.156,-126.712 248.033,-118.112"/>
<polygon fill="black" stroke="black" points="251.532,-118.053 247.89,-108.104 244.533,-118.153 251.532,-118.053"/>
</g>
<!-- ExpBinary0 -->
<g id="node21" class="node"><title>ExpBinary0</title>
<ellipse fill="none" stroke="black" cx="198.645" cy="-234" rx="53.0913" ry="18"/>
<text text-anchor="middle" x="198.645" y="-230.3" font-family="Times,serif" font-size="14.00">ExpBinary0</text>
</g>
<!-- ExpBinary0&#45;&gt;ExpMem1 -->
<g id="edge16" class="edge"><title>ExpBinary0&#45;&gt;ExpMem1</title>
<path fill="none" stroke="black" d="M169.1,-218.834C146.344,-207.924 114.729,-192.766 90.1819,-180.997"/>
<polygon fill="black" stroke="black" points="91.6834,-177.835 81.153,-176.668 88.657,-184.147 91.6834,-177.835"/>
</g>
<!-- ExpBinary0&#45;&gt;ExpConst0 -->
<g id="edge18" class="edge"><title>ExpBinary0&#45;&gt;ExpConst0</title>
<path fill="none" stroke="black" d="M210.495,-216.411C216.509,-207.992 223.942,-197.585 230.645,-188.201"/>
<polygon fill="black" stroke="black" points="233.569,-190.128 236.534,-179.956 227.873,-186.059 233.569,-190.128"/>
</g>
<!-- Plus0 -->
<g id="node22" class="node"><title>Plus0</title>
<ellipse fill="none" stroke="black" cx="149.645" cy="-162" rx="30.5947" ry="18"/>
<text text-anchor="middle" x="149.645" y="-158.3" font-family="Times,serif" font-size="14.00">Plus0</text>
</g>
<!-- ExpBinary0&#45;&gt;Plus0 -->
<g id="edge17" class="edge"><title>ExpBinary0&#45;&gt;Plus0</title>
<path fill="none" stroke="black" d="M187.033,-216.411C180.966,-207.744 173.425,-196.971 166.708,-187.375"/>
<polygon fill="black" stroke="black" points="169.439,-185.173 160.837,-178.988 163.704,-189.188 169.439,-185.173"/>
</g>
<!-- ExpMem0&#45;&gt;ExpBinary0 -->
<g id="edge22" class="edge"><title>ExpMem0&#45;&gt;ExpBinary0</title>
<path fill="none" stroke="black" d="M280.335,-289.983C265.731,-280.154 246.428,-267.161 230.253,-256.274"/>
<polygon fill="black" stroke="black" points="231.889,-253.156 221.639,-250.476 227.98,-258.964 231.889,-253.156"/>
</g>
<!-- Temp1: $fp -->
<g id="node25" class="node"><title>Temp1: $fp</title>
<ellipse fill="none" stroke="black" cx="368.645" cy="-90" rx="52.7911" ry="18"/>
<text text-anchor="middle" x="368.645" y="-86.3" font-family="Times,serif" font-size="14.00">Temp1: $fp</text>
</g>
<!-- ExpTemp1&#45;&gt;Temp1: $fp -->
<g id="edge21" class="edge"><title>ExpTemp1&#45;&gt;Temp1: $fp</title>
<path fill="none" stroke="black" d="M367.893,-143.697C368.003,-135.983 368.135,-126.712 368.258,-118.112"/>
<polygon fill="black" stroke="black" points="371.758,-118.153 368.401,-108.104 364.758,-118.053 371.758,-118.153"/>
</g>
</g>
</svg>
