<?xml version="1.0" encoding="UTF-8" standalone="no"?>
<!DOCTYPE svg PUBLIC "-//W3C//DTD SVG 1.1//EN"
 "http://www.w3.org/Graphics/SVG/1.1/DTD/svg11.dtd">
<!-- Generated by graphviz version 2.38.0 (20140413.2041)
 -->
<!-- Title: %3 Pages: 1 -->
<svg width="1830pt" height="692pt"
 viewBox="0.00 0.00 1829.99 692.00" xmlns="http://www.w3.org/2000/svg" xmlns:xlink="http://www.w3.org/1999/xlink">
<g id="graph0" class="graph" transform="scale(1 1) rotate(0) translate(4 688)">
<title>%3</title>
<polygon fill="white" stroke="none" points="-4,4 -4,-688 1825.99,-688 1825.99,4 -4,4"/>
<!-- ExpBinary5 -->
<g id="node1" class="node"><title>ExpBinary5</title>
<ellipse fill="none" stroke="black" cx="1528.95" cy="-522" rx="53.0913" ry="18"/>
<text text-anchor="middle" x="1528.95" y="-518.3" font-family="Times,serif" font-size="14.00">ExpBinary5</text>
</g>
<!-- ExpMem5 -->
<g id="node2" class="node"><title>ExpMem5</title>
<ellipse fill="none" stroke="black" cx="1528.95" cy="-450" rx="48.9926" ry="18"/>
<text text-anchor="middle" x="1528.95" y="-446.3" font-family="Times,serif" font-size="14.00">ExpMem5</text>
</g>
<!-- ExpBinary5&#45;&gt;ExpMem5 -->
<g id="edge1" class="edge"><title>ExpBinary5&#45;&gt;ExpMem5</title>
<path fill="none" stroke="black" d="M1528.95,-503.697C1528.95,-495.983 1528.95,-486.712 1528.95,-478.112"/>
<polygon fill="black" stroke="black" points="1532.45,-478.104 1528.95,-468.104 1525.45,-478.104 1532.45,-478.104"/>
</g>
<!-- Plus5 -->
<g id="node3" class="node"><title>Plus5</title>
<ellipse fill="none" stroke="black" cx="1625.95" cy="-450" rx="30.5947" ry="18"/>
<text text-anchor="middle" x="1625.95" y="-446.3" font-family="Times,serif" font-size="14.00">Plus5</text>
</g>
<!-- ExpBinary5&#45;&gt;Plus5 -->
<g id="edge2" class="edge"><title>ExpBinary5&#45;&gt;Plus5</title>
<path fill="none" stroke="black" d="M1550.47,-505.465C1564.75,-495.162 1583.6,-481.559 1598.89,-470.525"/>
<polygon fill="black" stroke="black" points="1601.36,-473.06 1607.42,-464.37 1597.26,-467.384 1601.36,-473.06"/>
</g>
<!-- ExpConst5 -->
<g id="node4" class="node"><title>ExpConst5</title>
<ellipse fill="none" stroke="black" cx="1725.95" cy="-450" rx="50.0912" ry="18"/>
<text text-anchor="middle" x="1725.95" y="-446.3" font-family="Times,serif" font-size="14.00">ExpConst5</text>
</g>
<!-- ExpBinary5&#45;&gt;ExpConst5 -->
<g id="edge3" class="edge"><title>ExpBinary5&#45;&gt;ExpConst5</title>
<path fill="none" stroke="black" d="M1564.16,-508.485C1597.14,-496.767 1646.53,-479.217 1682.06,-466.593"/>
<polygon fill="black" stroke="black" points="1683.44,-469.818 1691.69,-463.172 1681.1,-463.222 1683.44,-469.818"/>
</g>
<!-- ExpBinary6 -->
<g id="node23" class="node"><title>ExpBinary6</title>
<ellipse fill="none" stroke="black" cx="1612.95" cy="-378" rx="53.0913" ry="18"/>
<text text-anchor="middle" x="1612.95" y="-374.3" font-family="Times,serif" font-size="14.00">ExpBinary6</text>
</g>
<!-- ExpMem5&#45;&gt;ExpBinary6 -->
<g id="edge27" class="edge"><title>ExpMem5&#45;&gt;ExpBinary6</title>
<path fill="none" stroke="black" d="M1548.01,-433.116C1559.28,-423.718 1573.74,-411.669 1586.15,-401.326"/>
<polygon fill="black" stroke="black" points="1588.52,-403.912 1593.96,-394.821 1584.04,-398.534 1588.52,-403.912"/>
</g>
<!-- Value5: 1 -->
<g id="node52" class="node"><title>Value5: 1</title>
<ellipse fill="none" stroke="black" cx="1729.95" cy="-378" rx="45.4919" ry="18"/>
<text text-anchor="middle" x="1729.95" y="-374.3" font-family="Times,serif" font-size="14.00">Value5: 1</text>
</g>
<!-- ExpConst5&#45;&gt;Value5: 1 -->
<g id="edge47" class="edge"><title>ExpConst5&#45;&gt;Value5: 1</title>
<path fill="none" stroke="black" d="M1726.93,-431.697C1727.37,-423.983 1727.9,-414.712 1728.4,-406.112"/>
<polygon fill="black" stroke="black" points="1731.89,-406.288 1728.97,-396.104 1724.9,-405.888 1731.89,-406.288"/>
</g>
<!-- ExpConst3 -->
<g id="node5" class="node"><title>ExpConst3</title>
<ellipse fill="none" stroke="black" cx="1491.95" cy="-378" rx="50.0912" ry="18"/>
<text text-anchor="middle" x="1491.95" y="-374.3" font-family="Times,serif" font-size="14.00">ExpConst3</text>
</g>
<!-- Value3: 8 -->
<g id="node6" class="node"><title>Value3: 8</title>
<ellipse fill="none" stroke="black" cx="1451.95" cy="-306" rx="45.4919" ry="18"/>
<text text-anchor="middle" x="1451.95" y="-302.3" font-family="Times,serif" font-size="14.00">Value3: 8</text>
</g>
<!-- ExpConst3&#45;&gt;Value3: 8 -->
<g id="edge4" class="edge"><title>ExpConst3&#45;&gt;Value3: 8</title>
<path fill="none" stroke="black" d="M1482.26,-360.055C1477.55,-351.801 1471.77,-341.701 1466.54,-332.538"/>
<polygon fill="black" stroke="black" points="1469.54,-330.735 1461.54,-323.789 1463.46,-334.208 1469.54,-330.735"/>
</g>
<!-- ExpBinary4 -->
<g id="node7" class="node"><title>ExpBinary4</title>
<ellipse fill="none" stroke="black" cx="1406.95" cy="-450" rx="53.0913" ry="18"/>
<text text-anchor="middle" x="1406.95" y="-446.3" font-family="Times,serif" font-size="14.00">ExpBinary4</text>
</g>
<!-- ExpBinary4&#45;&gt;ExpConst3 -->
<g id="edge7" class="edge"><title>ExpBinary4&#45;&gt;ExpConst3</title>
<path fill="none" stroke="black" d="M1426.23,-433.116C1437.64,-423.718 1452.28,-411.669 1464.83,-401.326"/>
<polygon fill="black" stroke="black" points="1467.24,-403.88 1472.73,-394.821 1462.79,-398.477 1467.24,-403.88"/>
</g>
<!-- ExpTemp10 -->
<g id="node8" class="node"><title>ExpTemp10</title>
<ellipse fill="none" stroke="black" cx="1289.95" cy="-378" rx="54.6905" ry="18"/>
<text text-anchor="middle" x="1289.95" y="-374.3" font-family="Times,serif" font-size="14.00">ExpTemp10</text>
</g>
<!-- ExpBinary4&#45;&gt;ExpTemp10 -->
<g id="edge5" class="edge"><title>ExpBinary4&#45;&gt;ExpTemp10</title>
<path fill="none" stroke="black" d="M1381.85,-433.983C1365,-423.902 1342.59,-410.496 1324.12,-399.444"/>
<polygon fill="black" stroke="black" points="1325.79,-396.364 1315.41,-394.233 1322.19,-402.371 1325.79,-396.364"/>
</g>
<!-- Plus3 -->
<g id="node9" class="node"><title>Plus3</title>
<ellipse fill="none" stroke="black" cx="1392.95" cy="-378" rx="30.5947" ry="18"/>
<text text-anchor="middle" x="1392.95" y="-374.3" font-family="Times,serif" font-size="14.00">Plus3</text>
</g>
<!-- ExpBinary4&#45;&gt;Plus3 -->
<g id="edge6" class="edge"><title>ExpBinary4&#45;&gt;Plus3</title>
<path fill="none" stroke="black" d="M1403.48,-431.697C1401.94,-423.983 1400.09,-414.712 1398.37,-406.112"/>
<polygon fill="black" stroke="black" points="1401.76,-405.224 1396.37,-396.104 1394.9,-406.597 1401.76,-405.224"/>
</g>
<!-- Temp10: $fp -->
<g id="node33" class="node"><title>Temp10: $fp</title>
<ellipse fill="none" stroke="black" cx="1291.95" cy="-306" rx="57.3905" ry="18"/>
<text text-anchor="middle" x="1291.95" y="-302.3" font-family="Times,serif" font-size="14.00">Temp10: $fp</text>
</g>
<!-- ExpTemp10&#45;&gt;Temp10: $fp -->
<g id="edge25" class="edge"><title>ExpTemp10&#45;&gt;Temp10: $fp</title>
<path fill="none" stroke="black" d="M1290.44,-359.697C1290.66,-351.983 1290.92,-342.712 1291.17,-334.112"/>
<polygon fill="black" stroke="black" points="1294.67,-334.2 1291.46,-324.104 1287.67,-334 1294.67,-334.2"/>
</g>
<!-- ExpConst4 -->
<g id="node10" class="node"><title>ExpConst4</title>
<ellipse fill="none" stroke="black" cx="1771.95" cy="-306" rx="50.0912" ry="18"/>
<text text-anchor="middle" x="1771.95" y="-302.3" font-family="Times,serif" font-size="14.00">ExpConst4</text>
</g>
<!-- Value4: 8 -->
<g id="node11" class="node"><title>Value4: 8</title>
<ellipse fill="none" stroke="black" cx="1771.95" cy="-234" rx="45.4919" ry="18"/>
<text text-anchor="middle" x="1771.95" y="-230.3" font-family="Times,serif" font-size="14.00">Value4: 8</text>
</g>
<!-- ExpConst4&#45;&gt;Value4: 8 -->
<g id="edge8" class="edge"><title>ExpConst4&#45;&gt;Value4: 8</title>
<path fill="none" stroke="black" d="M1771.95,-287.697C1771.95,-279.983 1771.95,-270.712 1771.95,-262.112"/>
<polygon fill="black" stroke="black" points="1775.45,-262.104 1771.95,-252.104 1768.45,-262.104 1775.45,-262.104"/>
</g>
<!-- StatExp0 -->
<g id="node12" class="node"><title>StatExp0</title>
<ellipse fill="none" stroke="black" cx="1159.95" cy="-594" rx="42.7926" ry="18"/>
<text text-anchor="middle" x="1159.95" y="-590.3" font-family="Times,serif" font-size="14.00">StatExp0</text>
</g>
<!-- ExpTemp9 -->
<g id="node13" class="node"><title>ExpTemp9</title>
<ellipse fill="none" stroke="black" cx="1222.95" cy="-522" rx="50.0912" ry="18"/>
<text text-anchor="middle" x="1222.95" y="-518.3" font-family="Times,serif" font-size="14.00">ExpTemp9</text>
</g>
<!-- StatExp0&#45;&gt;ExpTemp9 -->
<g id="edge9" class="edge"><title>StatExp0&#45;&gt;ExpTemp9</title>
<path fill="none" stroke="black" d="M1174.56,-576.765C1182.47,-567.969 1192.41,-556.928 1201.22,-547.144"/>
<polygon fill="black" stroke="black" points="1203.89,-549.408 1207.98,-539.633 1198.68,-544.725 1203.89,-549.408"/>
</g>
<!-- Temp9: T43 -->
<g id="node14" class="node"><title>Temp9: T43</title>
<ellipse fill="none" stroke="black" cx="1279.95" cy="-450" rx="55.4913" ry="18"/>
<text text-anchor="middle" x="1279.95" y="-446.3" font-family="Times,serif" font-size="14.00">Temp9: T43</text>
</g>
<!-- ExpTemp9&#45;&gt;Temp9: T43 -->
<g id="edge10" class="edge"><title>ExpTemp9&#45;&gt;Temp9: T43</title>
<path fill="none" stroke="black" d="M1236.45,-504.411C1243.48,-495.781 1252.21,-485.062 1260,-475.497"/>
<polygon fill="black" stroke="black" points="1262.93,-477.434 1266.53,-467.47 1257.51,-473.014 1262.93,-477.434"/>
</g>
<!-- ExpList0 -->
<g id="node15" class="node"><title>ExpList0</title>
<ellipse fill="none" stroke="black" cx="1163.95" cy="-450" rx="42.7926" ry="18"/>
<text text-anchor="middle" x="1163.95" y="-446.3" font-family="Times,serif" font-size="14.00">ExpList0</text>
</g>
<!-- ExpTemp8 -->
<g id="node16" class="node"><title>ExpTemp8</title>
<ellipse fill="none" stroke="black" cx="1163.95" cy="-378" rx="50.0912" ry="18"/>
<text text-anchor="middle" x="1163.95" y="-374.3" font-family="Times,serif" font-size="14.00">ExpTemp8</text>
</g>
<!-- ExpList0&#45;&gt;ExpTemp8 -->
<g id="edge11" class="edge"><title>ExpList0&#45;&gt;ExpTemp8</title>
<path fill="none" stroke="black" d="M1163.95,-431.697C1163.95,-423.983 1163.95,-414.712 1163.95,-406.112"/>
<polygon fill="black" stroke="black" points="1167.45,-406.104 1163.95,-396.104 1160.45,-406.104 1167.45,-406.104"/>
</g>
<!-- Temp8: T45 -->
<g id="node36" class="node"><title>Temp8: T45</title>
<ellipse fill="none" stroke="black" cx="1161.95" cy="-306" rx="55.4913" ry="18"/>
<text text-anchor="middle" x="1161.95" y="-302.3" font-family="Times,serif" font-size="14.00">Temp8: T45</text>
</g>
<!-- ExpTemp8&#45;&gt;Temp8: T45 -->
<g id="edge28" class="edge"><title>ExpTemp8&#45;&gt;Temp8: T45</title>
<path fill="none" stroke="black" d="M1163.45,-359.697C1163.23,-351.983 1162.97,-342.712 1162.72,-334.112"/>
<polygon fill="black" stroke="black" points="1166.22,-334 1162.43,-324.104 1159.22,-334.2 1166.22,-334"/>
</g>
<!-- ExpTemp11 -->
<g id="node17" class="node"><title>ExpTemp11</title>
<ellipse fill="none" stroke="black" cx="1569.95" cy="-306" rx="54.6905" ry="18"/>
<text text-anchor="middle" x="1569.95" y="-302.3" font-family="Times,serif" font-size="14.00">ExpTemp11</text>
</g>
<!-- Temp11: $fp -->
<g id="node18" class="node"><title>Temp11: $fp</title>
<ellipse fill="none" stroke="black" cx="1569.95" cy="-234" rx="57.3905" ry="18"/>
<text text-anchor="middle" x="1569.95" y="-230.3" font-family="Times,serif" font-size="14.00">Temp11: $fp</text>
</g>
<!-- ExpTemp11&#45;&gt;Temp11: $fp -->
<g id="edge12" class="edge"><title>ExpTemp11&#45;&gt;Temp11: $fp</title>
<path fill="none" stroke="black" d="M1569.95,-287.697C1569.95,-279.983 1569.95,-270.712 1569.95,-262.112"/>
<polygon fill="black" stroke="black" points="1573.45,-262.104 1569.95,-252.104 1566.45,-262.104 1573.45,-262.104"/>
</g>
<!-- StatMove3 -->
<g id="node19" class="node"><title>StatMove3</title>
<ellipse fill="none" stroke="black" cx="929.945" cy="-594" rx="50.0912" ry="18"/>
<text text-anchor="middle" x="929.945" y="-590.3" font-family="Times,serif" font-size="14.00">StatMove3</text>
</g>
<!-- ExpTemp6 -->
<g id="node20" class="node"><title>ExpTemp6</title>
<ellipse fill="none" stroke="black" cx="929.945" cy="-522" rx="50.0912" ry="18"/>
<text text-anchor="middle" x="929.945" y="-518.3" font-family="Times,serif" font-size="14.00">ExpTemp6</text>
</g>
<!-- StatMove3&#45;&gt;ExpTemp6 -->
<g id="edge13" class="edge"><title>StatMove3&#45;&gt;ExpTemp6</title>
<path fill="none" stroke="black" d="M929.945,-575.697C929.945,-567.983 929.945,-558.712 929.945,-550.112"/>
<polygon fill="black" stroke="black" points="933.445,-550.104 929.945,-540.104 926.445,-550.104 933.445,-550.104"/>
</g>
<!-- ExpCall0 -->
<g id="node21" class="node"><title>ExpCall0</title>
<ellipse fill="none" stroke="black" cx="1052.95" cy="-522" rx="44.393" ry="18"/>
<text text-anchor="middle" x="1052.95" y="-518.3" font-family="Times,serif" font-size="14.00">ExpCall0</text>
</g>
<!-- StatMove3&#45;&gt;ExpCall0 -->
<g id="edge14" class="edge"><title>StatMove3&#45;&gt;ExpCall0</title>
<path fill="none" stroke="black" d="M955.431,-578.496C973.981,-567.939 999.281,-553.541 1019.46,-542.055"/>
<polygon fill="black" stroke="black" points="1021.37,-544.996 1028.33,-537.008 1017.91,-538.912 1021.37,-544.996"/>
</g>
<!-- Temp6: T46 -->
<g id="node22" class="node"><title>Temp6: T46</title>
<ellipse fill="none" stroke="black" cx="929.945" cy="-450" rx="55.4913" ry="18"/>
<text text-anchor="middle" x="929.945" y="-446.3" font-family="Times,serif" font-size="14.00">Temp6: T46</text>
</g>
<!-- ExpTemp6&#45;&gt;Temp6: T46 -->
<g id="edge15" class="edge"><title>ExpTemp6&#45;&gt;Temp6: T46</title>
<path fill="none" stroke="black" d="M929.945,-503.697C929.945,-495.983 929.945,-486.712 929.945,-478.112"/>
<polygon fill="black" stroke="black" points="933.445,-478.104 929.945,-468.104 926.445,-478.104 933.445,-478.104"/>
</g>
<!-- ExpCall0&#45;&gt;ExpList0 -->
<g id="edge45" class="edge"><title>ExpCall0&#45;&gt;ExpList0</title>
<path fill="none" stroke="black" d="M1075.94,-506.496C1092.17,-496.266 1114.11,-482.428 1132.03,-471.13"/>
<polygon fill="black" stroke="black" points="1134.38,-473.78 1140.98,-465.485 1130.65,-467.859 1134.38,-473.78"/>
</g>
<!-- ExpTemp7 -->
<g id="node49" class="node"><title>ExpTemp7</title>
<ellipse fill="none" stroke="black" cx="1052.95" cy="-450" rx="50.0912" ry="18"/>
<text text-anchor="middle" x="1052.95" y="-446.3" font-family="Times,serif" font-size="14.00">ExpTemp7</text>
</g>
<!-- ExpCall0&#45;&gt;ExpTemp7 -->
<g id="edge44" class="edge"><title>ExpCall0&#45;&gt;ExpTemp7</title>
<path fill="none" stroke="black" d="M1052.95,-503.697C1052.95,-495.983 1052.95,-486.712 1052.95,-478.112"/>
<polygon fill="black" stroke="black" points="1056.45,-478.104 1052.95,-468.104 1049.45,-478.104 1056.45,-478.104"/>
</g>
<!-- ExpBinary6&#45;&gt;ExpConst4 -->
<g id="edge18" class="edge"><title>ExpBinary6&#45;&gt;ExpConst4</title>
<path fill="none" stroke="black" d="M1643.98,-363.337C1669.2,-352.233 1704.95,-336.494 1732.25,-324.474"/>
<polygon fill="black" stroke="black" points="1733.79,-327.623 1741.53,-320.391 1730.97,-321.217 1733.79,-327.623"/>
</g>
<!-- ExpBinary6&#45;&gt;ExpTemp11 -->
<g id="edge16" class="edge"><title>ExpBinary6&#45;&gt;ExpTemp11</title>
<path fill="none" stroke="black" d="M1602.54,-360.055C1597.47,-351.801 1591.26,-341.701 1585.63,-332.538"/>
<polygon fill="black" stroke="black" points="1588.47,-330.478 1580.26,-323.789 1582.51,-334.142 1588.47,-330.478"/>
</g>
<!-- Plus4 -->
<g id="node24" class="node"><title>Plus4</title>
<ellipse fill="none" stroke="black" cx="1672.95" cy="-306" rx="30.5947" ry="18"/>
<text text-anchor="middle" x="1672.95" y="-302.3" font-family="Times,serif" font-size="14.00">Plus4</text>
</g>
<!-- ExpBinary6&#45;&gt;Plus4 -->
<g id="edge17" class="edge"><title>ExpBinary6&#45;&gt;Plus4</title>
<path fill="none" stroke="black" d="M1627.16,-360.411C1634.85,-351.441 1644.48,-340.215 1652.91,-330.373"/>
<polygon fill="black" stroke="black" points="1655.8,-332.381 1659.65,-322.511 1650.48,-327.826 1655.8,-332.381"/>
</g>
<!-- StatMove4 -->
<g id="node25" class="node"><title>StatMove4</title>
<ellipse fill="none" stroke="black" cx="1406.95" cy="-594" rx="50.0912" ry="18"/>
<text text-anchor="middle" x="1406.95" y="-590.3" font-family="Times,serif" font-size="14.00">StatMove4</text>
</g>
<!-- StatMove4&#45;&gt;ExpBinary5 -->
<g id="edge20" class="edge"><title>StatMove4&#45;&gt;ExpBinary5</title>
<path fill="none" stroke="black" d="M1432.52,-578.326C1450.46,-568.035 1474.64,-554.157 1494.31,-542.875"/>
<polygon fill="black" stroke="black" points="1496.05,-545.909 1502.98,-537.896 1492.57,-539.837 1496.05,-545.909"/>
</g>
<!-- ExpMem4 -->
<g id="node26" class="node"><title>ExpMem4</title>
<ellipse fill="none" stroke="black" cx="1406.95" cy="-522" rx="48.9926" ry="18"/>
<text text-anchor="middle" x="1406.95" y="-518.3" font-family="Times,serif" font-size="14.00">ExpMem4</text>
</g>
<!-- StatMove4&#45;&gt;ExpMem4 -->
<g id="edge19" class="edge"><title>StatMove4&#45;&gt;ExpMem4</title>
<path fill="none" stroke="black" d="M1406.95,-575.697C1406.95,-567.983 1406.95,-558.712 1406.95,-550.112"/>
<polygon fill="black" stroke="black" points="1410.45,-550.104 1406.95,-540.104 1403.45,-550.104 1410.45,-550.104"/>
</g>
<!-- ExpMem4&#45;&gt;ExpBinary4 -->
<g id="edge60" class="edge"><title>ExpMem4&#45;&gt;ExpBinary4</title>
<path fill="none" stroke="black" d="M1406.95,-503.697C1406.95,-495.983 1406.95,-486.712 1406.95,-478.112"/>
<polygon fill="black" stroke="black" points="1410.45,-478.104 1406.95,-468.104 1403.45,-478.104 1410.45,-478.104"/>
</g>
<!-- ExpMem0 -->
<g id="node27" class="node"><title>ExpMem0</title>
<ellipse fill="none" stroke="black" cx="802.945" cy="-522" rx="48.9926" ry="18"/>
<text text-anchor="middle" x="802.945" y="-518.3" font-family="Times,serif" font-size="14.00">ExpMem0</text>
</g>
<!-- ExpBinary0 -->
<g id="node28" class="node"><title>ExpBinary0</title>
<ellipse fill="none" stroke="black" cx="802.945" cy="-450" rx="53.0913" ry="18"/>
<text text-anchor="middle" x="802.945" y="-446.3" font-family="Times,serif" font-size="14.00">ExpBinary0</text>
</g>
<!-- ExpMem0&#45;&gt;ExpBinary0 -->
<g id="edge21" class="edge"><title>ExpMem0&#45;&gt;ExpBinary0</title>
<path fill="none" stroke="black" d="M802.945,-503.697C802.945,-495.983 802.945,-486.712 802.945,-478.112"/>
<polygon fill="black" stroke="black" points="806.445,-478.104 802.945,-468.104 799.445,-478.104 806.445,-478.104"/>
</g>
<!-- ExpMem1 -->
<g id="node63" class="node"><title>ExpMem1</title>
<ellipse fill="none" stroke="black" cx="672.945" cy="-378" rx="48.9926" ry="18"/>
<text text-anchor="middle" x="672.945" y="-374.3" font-family="Times,serif" font-size="14.00">ExpMem1</text>
</g>
<!-- ExpBinary0&#45;&gt;ExpMem1 -->
<g id="edge61" class="edge"><title>ExpBinary0&#45;&gt;ExpMem1</title>
<path fill="none" stroke="black" d="M775.693,-434.326C756.106,-423.779 729.522,-409.464 708.302,-398.038"/>
<polygon fill="black" stroke="black" points="709.738,-394.836 699.273,-393.177 706.419,-400.999 709.738,-394.836"/>
</g>
<!-- Plus0 -->
<g id="node65" class="node"><title>Plus0</title>
<ellipse fill="none" stroke="black" cx="802.945" cy="-378" rx="30.5947" ry="18"/>
<text text-anchor="middle" x="802.945" y="-374.3" font-family="Times,serif" font-size="14.00">Plus0</text>
</g>
<!-- ExpBinary0&#45;&gt;Plus0 -->
<g id="edge62" class="edge"><title>ExpBinary0&#45;&gt;Plus0</title>
<path fill="none" stroke="black" d="M802.945,-431.697C802.945,-423.983 802.945,-414.712 802.945,-406.112"/>
<polygon fill="black" stroke="black" points="806.445,-406.104 802.945,-396.104 799.445,-406.104 806.445,-406.104"/>
</g>
<!-- ExpBinary1 -->
<g id="node66" class="node"><title>ExpBinary1</title>
<ellipse fill="none" stroke="black" cx="909.945" cy="-378" rx="53.0913" ry="18"/>
<text text-anchor="middle" x="909.945" y="-374.3" font-family="Times,serif" font-size="14.00">ExpBinary1</text>
</g>
<!-- ExpBinary0&#45;&gt;ExpBinary1 -->
<g id="edge63" class="edge"><title>ExpBinary0&#45;&gt;ExpBinary1</title>
<path fill="none" stroke="black" d="M826.427,-433.638C841.479,-423.791 861.22,-410.876 877.729,-400.076"/>
<polygon fill="black" stroke="black" points="880.066,-402.73 886.518,-394.326 876.234,-396.872 880.066,-402.73"/>
</g>
<!-- ExpName0 -->
<g id="node29" class="node"><title>ExpName0</title>
<ellipse fill="none" stroke="black" cx="545.945" cy="-522" rx="50.8918" ry="18"/>
<text text-anchor="middle" x="545.945" y="-518.3" font-family="Times,serif" font-size="14.00">ExpName0</text>
</g>
<!-- Label1: print -->
<g id="node30" class="node"><title>Label1: print</title>
<ellipse fill="none" stroke="black" cx="545.945" cy="-450" rx="56.59" ry="18"/>
<text text-anchor="middle" x="545.945" y="-446.3" font-family="Times,serif" font-size="14.00">Label1: print</text>
</g>
<!-- ExpName0&#45;&gt;Label1: print -->
<g id="edge22" class="edge"><title>ExpName0&#45;&gt;Label1: print</title>
<path fill="none" stroke="black" d="M545.945,-503.697C545.945,-495.983 545.945,-486.712 545.945,-478.112"/>
<polygon fill="black" stroke="black" points="549.445,-478.104 545.945,-468.104 542.445,-478.104 549.445,-478.104"/>
</g>
<!-- StatMove2 -->
<g id="node31" class="node"><title>StatMove2</title>
<ellipse fill="none" stroke="black" cx="802.945" cy="-594" rx="50.0912" ry="18"/>
<text text-anchor="middle" x="802.945" y="-590.3" font-family="Times,serif" font-size="14.00">StatMove2</text>
</g>
<!-- StatMove2&#45;&gt;ExpMem0 -->
<g id="edge24" class="edge"><title>StatMove2&#45;&gt;ExpMem0</title>
<path fill="none" stroke="black" d="M802.945,-575.697C802.945,-567.983 802.945,-558.712 802.945,-550.112"/>
<polygon fill="black" stroke="black" points="806.445,-550.104 802.945,-540.104 799.445,-550.104 806.445,-550.104"/>
</g>
<!-- ExpTemp3 -->
<g id="node32" class="node"><title>ExpTemp3</title>
<ellipse fill="none" stroke="black" cx="680.945" cy="-522" rx="50.0912" ry="18"/>
<text text-anchor="middle" x="680.945" y="-518.3" font-family="Times,serif" font-size="14.00">ExpTemp3</text>
</g>
<!-- StatMove2&#45;&gt;ExpTemp3 -->
<g id="edge23" class="edge"><title>StatMove2&#45;&gt;ExpTemp3</title>
<path fill="none" stroke="black" d="M777.37,-578.326C759.314,-567.965 734.92,-553.969 715.186,-542.646"/>
<polygon fill="black" stroke="black" points="716.902,-539.596 706.487,-537.655 713.419,-545.668 716.902,-539.596"/>
</g>
<!-- Temp3: T45 -->
<g id="node40" class="node"><title>Temp3: T45</title>
<ellipse fill="none" stroke="black" cx="675.945" cy="-450" rx="55.4913" ry="18"/>
<text text-anchor="middle" x="675.945" y="-446.3" font-family="Times,serif" font-size="14.00">Temp3: T45</text>
</g>
<!-- ExpTemp3&#45;&gt;Temp3: T45 -->
<g id="edge32" class="edge"><title>ExpTemp3&#45;&gt;Temp3: T45</title>
<path fill="none" stroke="black" d="M679.709,-503.697C679.158,-495.983 678.496,-486.712 677.882,-478.112"/>
<polygon fill="black" stroke="black" points="681.371,-477.83 677.167,-468.104 674.388,-478.328 681.371,-477.83"/>
</g>
<!-- ExpTemp2 -->
<g id="node34" class="node"><title>ExpTemp2</title>
<ellipse fill="none" stroke="black" cx="421.945" cy="-522" rx="50.0912" ry="18"/>
<text text-anchor="middle" x="421.945" y="-518.3" font-family="Times,serif" font-size="14.00">ExpTemp2</text>
</g>
<!-- Temp2: T44 -->
<g id="node35" class="node"><title>Temp2: T44</title>
<ellipse fill="none" stroke="black" cx="415.945" cy="-450" rx="55.4913" ry="18"/>
<text text-anchor="middle" x="415.945" y="-446.3" font-family="Times,serif" font-size="14.00">Temp2: T44</text>
</g>
<!-- ExpTemp2&#45;&gt;Temp2: T44 -->
<g id="edge26" class="edge"><title>ExpTemp2&#45;&gt;Temp2: T44</title>
<path fill="none" stroke="black" d="M420.462,-503.697C419.801,-495.983 419.006,-486.712 418.269,-478.112"/>
<polygon fill="black" stroke="black" points="421.753,-477.769 417.411,-468.104 414.778,-478.367 421.753,-477.769"/>
</g>
<!-- StatMove1 -->
<g id="node37" class="node"><title>StatMove1</title>
<ellipse fill="none" stroke="black" cx="545.945" cy="-594" rx="50.0912" ry="18"/>
<text text-anchor="middle" x="545.945" y="-590.3" font-family="Times,serif" font-size="14.00">StatMove1</text>
</g>
<!-- StatMove1&#45;&gt;ExpName0 -->
<g id="edge30" class="edge"><title>StatMove1&#45;&gt;ExpName0</title>
<path fill="none" stroke="black" d="M545.945,-575.697C545.945,-567.983 545.945,-558.712 545.945,-550.112"/>
<polygon fill="black" stroke="black" points="549.445,-550.104 545.945,-540.104 542.445,-550.104 549.445,-550.104"/>
</g>
<!-- StatMove1&#45;&gt;ExpTemp2 -->
<g id="edge29" class="edge"><title>StatMove1&#45;&gt;ExpTemp2</title>
<path fill="none" stroke="black" d="M520.252,-578.496C501.797,-568.078 476.716,-553.919 456.506,-542.51"/>
<polygon fill="black" stroke="black" points="458.034,-539.354 447.605,-537.485 454.593,-545.449 458.034,-539.354"/>
</g>
<!-- ExpConst1 -->
<g id="node38" class="node"><title>ExpConst1</title>
<ellipse fill="none" stroke="black" cx="912.945" cy="-234" rx="50.0912" ry="18"/>
<text text-anchor="middle" x="912.945" y="-230.3" font-family="Times,serif" font-size="14.00">ExpConst1</text>
</g>
<!-- Value1: 1 -->
<g id="node39" class="node"><title>Value1: 1</title>
<ellipse fill="none" stroke="black" cx="912.945" cy="-162" rx="45.4919" ry="18"/>
<text text-anchor="middle" x="912.945" y="-158.3" font-family="Times,serif" font-size="14.00">Value1: 1</text>
</g>
<!-- ExpConst1&#45;&gt;Value1: 1 -->
<g id="edge31" class="edge"><title>ExpConst1&#45;&gt;Value1: 1</title>
<path fill="none" stroke="black" d="M912.945,-215.697C912.945,-207.983 912.945,-198.712 912.945,-190.112"/>
<polygon fill="black" stroke="black" points="916.445,-190.104 912.945,-180.104 909.445,-190.104 916.445,-190.104"/>
</g>
<!-- StatLabel0 -->
<g id="node41" class="node"><title>StatLabel0</title>
<ellipse fill="none" stroke="black" cx="115.945" cy="-594" rx="48.9926" ry="18"/>
<text text-anchor="middle" x="115.945" y="-590.3" font-family="Times,serif" font-size="14.00">StatLabel0</text>
</g>
<!-- Label0: L10 -->
<g id="node42" class="node"><title>Label0: L10</title>
<ellipse fill="none" stroke="black" cx="53.9452" cy="-522" rx="53.8905" ry="18"/>
<text text-anchor="middle" x="53.9452" y="-518.3" font-family="Times,serif" font-size="14.00">Label0: L10</text>
</g>
<!-- StatLabel0&#45;&gt;Label0: L10 -->
<g id="edge33" class="edge"><title>StatLabel0&#45;&gt;Label0: L10</title>
<path fill="none" stroke="black" d="M101.565,-576.765C93.7748,-567.969 83.996,-556.928 75.3299,-547.144"/>
<polygon fill="black" stroke="black" points="77.9281,-544.799 68.6777,-539.633 72.688,-549.44 77.9281,-544.799"/>
</g>
<!-- StatList0 -->
<g id="node43" class="node"><title>StatList0</title>
<ellipse fill="none" stroke="black" cx="865.945" cy="-666" rx="42.4939" ry="18"/>
<text text-anchor="middle" x="865.945" y="-662.3" font-family="Times,serif" font-size="14.00">StatList0</text>
</g>
<!-- StatList0&#45;&gt;StatExp0 -->
<g id="edge39" class="edge"><title>StatList0&#45;&gt;StatExp0</title>
<path fill="none" stroke="black" d="M901.995,-656.417C955.336,-643.716 1055.27,-619.922 1113.86,-605.972"/>
<polygon fill="black" stroke="black" points="1114.68,-609.375 1123.6,-603.654 1113.06,-602.565 1114.68,-609.375"/>
</g>
<!-- StatList0&#45;&gt;StatMove3 -->
<g id="edge38" class="edge"><title>StatList0&#45;&gt;StatMove3</title>
<path fill="none" stroke="black" d="M880.789,-648.765C888.831,-639.969 898.925,-628.928 907.871,-619.144"/>
<polygon fill="black" stroke="black" points="910.573,-621.375 914.738,-611.633 905.407,-616.652 910.573,-621.375"/>
</g>
<!-- StatList0&#45;&gt;StatMove4 -->
<g id="edge40" class="edge"><title>StatList0&#45;&gt;StatMove4</title>
<path fill="none" stroke="black" d="M905.726,-659.853C1000.64,-647.572 1240.6,-616.523 1350.46,-602.309"/>
<polygon fill="black" stroke="black" points="1351.21,-605.741 1360.67,-600.987 1350.31,-598.799 1351.21,-605.741"/>
</g>
<!-- StatList0&#45;&gt;StatMove2 -->
<g id="edge37" class="edge"><title>StatList0&#45;&gt;StatMove2</title>
<path fill="none" stroke="black" d="M851.333,-648.765C843.417,-639.969 833.481,-628.928 824.675,-619.144"/>
<polygon fill="black" stroke="black" points="827.206,-616.725 817.915,-611.633 822.003,-621.408 827.206,-616.725"/>
</g>
<!-- StatList0&#45;&gt;StatMove1 -->
<g id="edge36" class="edge"><title>StatList0&#45;&gt;StatMove1</title>
<path fill="none" stroke="black" d="M829.237,-656.97C772.281,-644.511 662.436,-620.482 597.532,-606.285"/>
<polygon fill="black" stroke="black" points="598.033,-602.811 587.516,-604.094 596.537,-609.65 598.033,-602.811"/>
</g>
<!-- StatList0&#45;&gt;StatLabel0 -->
<g id="edge34" class="edge"><title>StatList0&#45;&gt;StatLabel0</title>
<path fill="none" stroke="black" d="M824.52,-662.357C723.535,-655.732 456.693,-637.13 234.945,-612 213.658,-609.588 190.307,-606.376 169.972,-603.395"/>
<polygon fill="black" stroke="black" points="170.352,-599.913 159.947,-601.908 169.326,-606.837 170.352,-599.913"/>
</g>
<!-- StatMove0 -->
<g id="node44" class="node"><title>StatMove0</title>
<ellipse fill="none" stroke="black" cx="293.945" cy="-594" rx="50.0912" ry="18"/>
<text text-anchor="middle" x="293.945" y="-590.3" font-family="Times,serif" font-size="14.00">StatMove0</text>
</g>
<!-- StatList0&#45;&gt;StatMove0 -->
<g id="edge35" class="edge"><title>StatList0&#45;&gt;StatMove0</title>
<path fill="none" stroke="black" d="M825.723,-660.078C725.751,-647.843 465.778,-616.029 350.457,-601.916"/>
<polygon fill="black" stroke="black" points="350.77,-598.428 340.419,-600.687 349.92,-605.376 350.77,-598.428"/>
</g>
<!-- StatJump0 -->
<g id="node45" class="node"><title>StatJump0</title>
<ellipse fill="none" stroke="black" cx="1584.95" cy="-594" rx="48.1917" ry="18"/>
<text text-anchor="middle" x="1584.95" y="-590.3" font-family="Times,serif" font-size="14.00">StatJump0</text>
</g>
<!-- StatList0&#45;&gt;StatJump0 -->
<g id="edge41" class="edge"><title>StatList0&#45;&gt;StatJump0</title>
<path fill="none" stroke="black" d="M907.486,-662.104C1005.1,-655.131 1256.62,-636.179 1465.95,-612 1487.4,-609.521 1510.97,-606.268 1531.42,-603.271"/>
<polygon fill="black" stroke="black" points="1532.12,-606.706 1541.5,-601.779 1531.09,-599.782 1532.12,-606.706"/>
</g>
<!-- ExpTemp0 -->
<g id="node46" class="node"><title>ExpTemp0</title>
<ellipse fill="none" stroke="black" cx="175.945" cy="-522" rx="50.0912" ry="18"/>
<text text-anchor="middle" x="175.945" y="-518.3" font-family="Times,serif" font-size="14.00">ExpTemp0</text>
</g>
<!-- StatMove0&#45;&gt;ExpTemp0 -->
<g id="edge51" class="edge"><title>StatMove0&#45;&gt;ExpTemp0</title>
<path fill="none" stroke="black" d="M269.209,-578.326C251.823,-568.012 228.363,-554.095 209.322,-542.8"/>
<polygon fill="black" stroke="black" points="211.036,-539.747 200.649,-537.655 207.464,-545.767 211.036,-539.747"/>
</g>
<!-- ExpTemp1 -->
<g id="node57" class="node"><title>ExpTemp1</title>
<ellipse fill="none" stroke="black" cx="293.945" cy="-522" rx="50.0912" ry="18"/>
<text text-anchor="middle" x="293.945" y="-518.3" font-family="Times,serif" font-size="14.00">ExpTemp1</text>
</g>
<!-- StatMove0&#45;&gt;ExpTemp1 -->
<g id="edge52" class="edge"><title>StatMove0&#45;&gt;ExpTemp1</title>
<path fill="none" stroke="black" d="M293.945,-575.697C293.945,-567.983 293.945,-558.712 293.945,-550.112"/>
<polygon fill="black" stroke="black" points="297.445,-550.104 293.945,-540.104 290.445,-550.104 297.445,-550.104"/>
</g>
<!-- Label2: L9 -->
<g id="node48" class="node"><title>Label2: L9</title>
<ellipse fill="none" stroke="black" cx="1649.95" cy="-522" rx="50.0912" ry="18"/>
<text text-anchor="middle" x="1649.95" y="-518.3" font-family="Times,serif" font-size="14.00">Label2: L9</text>
</g>
<!-- StatJump0&#45;&gt;Label2: L9 -->
<g id="edge43" class="edge"><title>StatJump0&#45;&gt;Label2: L9</title>
<path fill="none" stroke="black" d="M1600.02,-576.765C1608.19,-567.969 1618.44,-556.928 1627.53,-547.144"/>
<polygon fill="black" stroke="black" points="1630.26,-549.343 1634.5,-539.633 1625.13,-544.58 1630.26,-549.343"/>
</g>
<!-- Temp0: T46 -->
<g id="node47" class="node"><title>Temp0: T46</title>
<ellipse fill="none" stroke="black" cx="159.945" cy="-450" rx="55.4913" ry="18"/>
<text text-anchor="middle" x="159.945" y="-446.3" font-family="Times,serif" font-size="14.00">Temp0: T46</text>
</g>
<!-- ExpTemp0&#45;&gt;Temp0: T46 -->
<g id="edge42" class="edge"><title>ExpTemp0&#45;&gt;Temp0: T46</title>
<path fill="none" stroke="black" d="M171.99,-503.697C170.227,-495.983 168.108,-486.712 166.142,-478.112"/>
<polygon fill="black" stroke="black" points="169.495,-477.073 163.855,-468.104 162.671,-478.633 169.495,-477.073"/>
</g>
<!-- Temp7: T44 -->
<g id="node58" class="node"><title>Temp7: T44</title>
<ellipse fill="none" stroke="black" cx="1040.95" cy="-378" rx="55.4913" ry="18"/>
<text text-anchor="middle" x="1040.95" y="-374.3" font-family="Times,serif" font-size="14.00">Temp7: T44</text>
</g>
<!-- ExpTemp7&#45;&gt;Temp7: T44 -->
<g id="edge53" class="edge"><title>ExpTemp7&#45;&gt;Temp7: T44</title>
<path fill="none" stroke="black" d="M1049.98,-431.697C1048.66,-423.983 1047.07,-414.712 1045.59,-406.112"/>
<polygon fill="black" stroke="black" points="1049.02,-405.369 1043.88,-396.104 1042.12,-406.552 1049.02,-405.369"/>
</g>
<!-- ExpMem2 -->
<g id="node50" class="node"><title>ExpMem2</title>
<ellipse fill="none" stroke="black" cx="625.945" cy="-306" rx="48.9926" ry="18"/>
<text text-anchor="middle" x="625.945" y="-302.3" font-family="Times,serif" font-size="14.00">ExpMem2</text>
</g>
<!-- ExpTemp4 -->
<g id="node51" class="node"><title>ExpTemp4</title>
<ellipse fill="none" stroke="black" cx="596.945" cy="-234" rx="50.0912" ry="18"/>
<text text-anchor="middle" x="596.945" y="-230.3" font-family="Times,serif" font-size="14.00">ExpTemp4</text>
</g>
<!-- ExpMem2&#45;&gt;ExpTemp4 -->
<g id="edge46" class="edge"><title>ExpMem2&#45;&gt;ExpTemp4</title>
<path fill="none" stroke="black" d="M618.925,-288.055C615.661,-280.176 611.701,-270.617 608.046,-261.794"/>
<polygon fill="black" stroke="black" points="611.163,-260.174 604.102,-252.275 604.696,-262.853 611.163,-260.174"/>
</g>
<!-- Temp4: $fp -->
<g id="node59" class="node"><title>Temp4: $fp</title>
<ellipse fill="none" stroke="black" cx="594.945" cy="-162" rx="52.7911" ry="18"/>
<text text-anchor="middle" x="594.945" y="-158.3" font-family="Times,serif" font-size="14.00">Temp4: $fp</text>
</g>
<!-- ExpTemp4&#45;&gt;Temp4: $fp -->
<g id="edge54" class="edge"><title>ExpTemp4&#45;&gt;Temp4: $fp</title>
<path fill="none" stroke="black" d="M596.451,-215.697C596.23,-207.983 595.966,-198.712 595.72,-190.112"/>
<polygon fill="black" stroke="black" points="599.218,-190 595.434,-180.104 592.221,-190.2 599.218,-190"/>
</g>
<!-- ExpBinary3 -->
<g id="node53" class="node"><title>ExpBinary3</title>
<ellipse fill="none" stroke="black" cx="718.945" cy="-162" rx="53.0913" ry="18"/>
<text text-anchor="middle" x="718.945" y="-158.3" font-family="Times,serif" font-size="14.00">ExpBinary3</text>
</g>
<!-- ExpTemp5 -->
<g id="node54" class="node"><title>ExpTemp5</title>
<ellipse fill="none" stroke="black" cx="619.945" cy="-90" rx="50.0912" ry="18"/>
<text text-anchor="middle" x="619.945" y="-86.3" font-family="Times,serif" font-size="14.00">ExpTemp5</text>
</g>
<!-- ExpBinary3&#45;&gt;ExpTemp5 -->
<g id="edge48" class="edge"><title>ExpBinary3&#45;&gt;ExpTemp5</title>
<path fill="none" stroke="black" d="M696.974,-145.465C683.164,-135.7 665.163,-122.972 650.036,-112.276"/>
<polygon fill="black" stroke="black" points="651.7,-109.167 641.514,-106.251 647.659,-114.882 651.7,-109.167"/>
</g>
<!-- Plus1 -->
<g id="node55" class="node"><title>Plus1</title>
<ellipse fill="none" stroke="black" cx="718.945" cy="-90" rx="30.5947" ry="18"/>
<text text-anchor="middle" x="718.945" y="-86.3" font-family="Times,serif" font-size="14.00">Plus1</text>
</g>
<!-- ExpBinary3&#45;&gt;Plus1 -->
<g id="edge49" class="edge"><title>ExpBinary3&#45;&gt;Plus1</title>
<path fill="none" stroke="black" d="M718.945,-143.697C718.945,-135.983 718.945,-126.712 718.945,-118.112"/>
<polygon fill="black" stroke="black" points="722.445,-118.104 718.945,-108.104 715.445,-118.104 722.445,-118.104"/>
</g>
<!-- ExpConst0 -->
<g id="node56" class="node"><title>ExpConst0</title>
<ellipse fill="none" stroke="black" cx="817.945" cy="-90" rx="50.0912" ry="18"/>
<text text-anchor="middle" x="817.945" y="-86.3" font-family="Times,serif" font-size="14.00">ExpConst0</text>
</g>
<!-- ExpBinary3&#45;&gt;ExpConst0 -->
<g id="edge50" class="edge"><title>ExpBinary3&#45;&gt;ExpConst0</title>
<path fill="none" stroke="black" d="M740.917,-145.465C754.726,-135.7 772.727,-122.972 787.855,-112.276"/>
<polygon fill="black" stroke="black" points="790.231,-114.882 796.376,-106.251 786.19,-109.167 790.231,-114.882"/>
</g>
<!-- Temp5: $fp -->
<g id="node68" class="node"><title>Temp5: $fp</title>
<ellipse fill="none" stroke="black" cx="619.945" cy="-18" rx="52.7911" ry="18"/>
<text text-anchor="middle" x="619.945" y="-14.3" font-family="Times,serif" font-size="14.00">Temp5: $fp</text>
</g>
<!-- ExpTemp5&#45;&gt;Temp5: $fp -->
<g id="edge65" class="edge"><title>ExpTemp5&#45;&gt;Temp5: $fp</title>
<path fill="none" stroke="black" d="M619.945,-71.6966C619.945,-63.9827 619.945,-54.7125 619.945,-46.1124"/>
<polygon fill="black" stroke="black" points="623.445,-46.1043 619.945,-36.1043 616.445,-46.1044 623.445,-46.1043"/>
</g>
<!-- Value0: 8 -->
<g id="node64" class="node"><title>Value0: 8</title>
<ellipse fill="none" stroke="black" cx="817.945" cy="-18" rx="45.4919" ry="18"/>
<text text-anchor="middle" x="817.945" y="-14.3" font-family="Times,serif" font-size="14.00">Value0: 8</text>
</g>
<!-- ExpConst0&#45;&gt;Value0: 8 -->
<g id="edge59" class="edge"><title>ExpConst0&#45;&gt;Value0: 8</title>
<path fill="none" stroke="black" d="M817.945,-71.6966C817.945,-63.9827 817.945,-54.7125 817.945,-46.1124"/>
<polygon fill="black" stroke="black" points="821.445,-46.1043 817.945,-36.1043 814.445,-46.1044 821.445,-46.1043"/>
</g>
<!-- Temp1: T43 -->
<g id="node67" class="node"><title>Temp1: T43</title>
<ellipse fill="none" stroke="black" cx="287.945" cy="-450" rx="55.4913" ry="18"/>
<text text-anchor="middle" x="287.945" y="-446.3" font-family="Times,serif" font-size="14.00">Temp1: T43</text>
</g>
<!-- ExpTemp1&#45;&gt;Temp1: T43 -->
<g id="edge64" class="edge"><title>ExpTemp1&#45;&gt;Temp1: T43</title>
<path fill="none" stroke="black" d="M292.462,-503.697C291.801,-495.983 291.006,-486.712 290.269,-478.112"/>
<polygon fill="black" stroke="black" points="293.753,-477.769 289.411,-468.104 286.778,-478.367 293.753,-477.769"/>
</g>
<!-- ExpBinary2 -->
<g id="node60" class="node"><title>ExpBinary2</title>
<ellipse fill="none" stroke="black" cx="812.945" cy="-306" rx="53.0913" ry="18"/>
<text text-anchor="middle" x="812.945" y="-302.3" font-family="Times,serif" font-size="14.00">ExpBinary2</text>
</g>
<!-- ExpBinary2&#45;&gt;ExpConst1 -->
<g id="edge57" class="edge"><title>ExpBinary2&#45;&gt;ExpConst1</title>
<path fill="none" stroke="black" d="M835.138,-289.465C849.088,-279.7 867.27,-266.972 882.551,-256.276"/>
<polygon fill="black" stroke="black" points="884.973,-258.853 891.158,-250.251 880.959,-253.118 884.973,-258.853"/>
</g>
<!-- ExpMem3 -->
<g id="node61" class="node"><title>ExpMem3</title>
<ellipse fill="none" stroke="black" cx="716.945" cy="-234" rx="48.9926" ry="18"/>
<text text-anchor="middle" x="716.945" y="-230.3" font-family="Times,serif" font-size="14.00">ExpMem3</text>
</g>
<!-- ExpBinary2&#45;&gt;ExpMem3 -->
<g id="edge55" class="edge"><title>ExpBinary2&#45;&gt;ExpMem3</title>
<path fill="none" stroke="black" d="M791.64,-289.465C778.341,-279.768 761.034,-267.148 746.428,-256.498"/>
<polygon fill="black" stroke="black" points="748.333,-253.556 738.191,-250.492 744.209,-259.212 748.333,-253.556"/>
</g>
<!-- Plus2 -->
<g id="node62" class="node"><title>Plus2</title>
<ellipse fill="none" stroke="black" cx="813.945" cy="-234" rx="30.5947" ry="18"/>
<text text-anchor="middle" x="813.945" y="-230.3" font-family="Times,serif" font-size="14.00">Plus2</text>
</g>
<!-- ExpBinary2&#45;&gt;Plus2 -->
<g id="edge56" class="edge"><title>ExpBinary2&#45;&gt;Plus2</title>
<path fill="none" stroke="black" d="M813.192,-287.697C813.303,-279.983 813.435,-270.712 813.558,-262.112"/>
<polygon fill="black" stroke="black" points="817.058,-262.153 813.701,-252.104 810.058,-262.053 817.058,-262.153"/>
</g>
<!-- ExpMem3&#45;&gt;ExpBinary3 -->
<g id="edge66" class="edge"><title>ExpMem3&#45;&gt;ExpBinary3</title>
<path fill="none" stroke="black" d="M717.44,-215.697C717.66,-207.983 717.925,-198.712 718.171,-190.112"/>
<polygon fill="black" stroke="black" points="721.669,-190.2 718.457,-180.104 714.672,-190 721.669,-190.2"/>
</g>
<!-- ExpMem1&#45;&gt;ExpMem2 -->
<g id="edge58" class="edge"><title>ExpMem1&#45;&gt;ExpMem2</title>
<path fill="none" stroke="black" d="M661.807,-360.411C656.211,-352.077 649.309,-341.797 643.059,-332.488"/>
<polygon fill="black" stroke="black" points="645.81,-330.307 637.33,-323.956 639.999,-334.209 645.81,-330.307"/>
</g>
<!-- ExpBinary1&#45;&gt;ExpBinary2 -->
<g id="edge67" class="edge"><title>ExpBinary1&#45;&gt;ExpBinary2</title>
<path fill="none" stroke="black" d="M888.418,-361.465C874.98,-351.768 857.493,-339.148 842.735,-328.498"/>
<polygon fill="black" stroke="black" points="844.57,-325.506 834.412,-322.492 840.473,-331.182 844.57,-325.506"/>
</g>
<!-- Times0 -->
<g id="node69" class="node"><title>Times0</title>
<ellipse fill="none" stroke="black" cx="921.945" cy="-306" rx="37.8943" ry="18"/>
<text text-anchor="middle" x="921.945" y="-302.3" font-family="Times,serif" font-size="14.00">Times0</text>
</g>
<!-- ExpBinary1&#45;&gt;Times0 -->
<g id="edge68" class="edge"><title>ExpBinary1&#45;&gt;Times0</title>
<path fill="none" stroke="black" d="M912.912,-359.697C914.234,-351.983 915.823,-342.712 917.297,-334.112"/>
<polygon fill="black" stroke="black" points="920.773,-334.552 919.013,-324.104 913.874,-333.369 920.773,-334.552"/>
</g>
<!-- ExpConst2 -->
<g id="node70" class="node"><title>ExpConst2</title>
<ellipse fill="none" stroke="black" cx="1027.95" cy="-306" rx="50.0912" ry="18"/>
<text text-anchor="middle" x="1027.95" y="-302.3" font-family="Times,serif" font-size="14.00">ExpConst2</text>
</g>
<!-- ExpBinary1&#45;&gt;ExpConst2 -->
<g id="edge69" class="edge"><title>ExpBinary1&#45;&gt;ExpConst2</title>
<path fill="none" stroke="black" d="M935.259,-361.983C952.485,-351.764 975.473,-338.128 994.245,-326.992"/>
<polygon fill="black" stroke="black" points="996.263,-329.864 1003.08,-321.752 992.692,-323.844 996.263,-329.864"/>
</g>
<!-- Value2: 4 -->
<g id="node71" class="node"><title>Value2: 4</title>
<ellipse fill="none" stroke="black" cx="1027.95" cy="-234" rx="45.4919" ry="18"/>
<text text-anchor="middle" x="1027.95" y="-230.3" font-family="Times,serif" font-size="14.00">Value2: 4</text>
</g>
<!-- ExpConst2&#45;&gt;Value2: 4 -->
<g id="edge70" class="edge"><title>ExpConst2&#45;&gt;Value2: 4</title>
<path fill="none" stroke="black" d="M1027.95,-287.697C1027.95,-279.983 1027.95,-270.712 1027.95,-262.112"/>
<polygon fill="black" stroke="black" points="1031.45,-262.104 1027.95,-252.104 1024.45,-262.104 1031.45,-262.104"/>
</g>
</g>
</svg>
