<?xml version="1.0" encoding="UTF-8" standalone="no"?>
<!DOCTYPE svg PUBLIC "-//W3C//DTD SVG 1.1//EN"
 "http://www.w3.org/Graphics/SVG/1.1/DTD/svg11.dtd">
<!-- Generated by graphviz version 2.38.0 (20140413.2041)
 -->
<!-- Title: %3 Pages: 1 -->
<svg width="1511pt" height="404pt"
 viewBox="0.00 0.00 1510.89 404.00" xmlns="http://www.w3.org/2000/svg" xmlns:xlink="http://www.w3.org/1999/xlink">
<g id="graph0" class="graph" transform="scale(1 1) rotate(0) translate(4 400)">
<title>%3</title>
<polygon fill="white" stroke="none" points="-4,4 -4,-400 1506.89,-400 1506.89,4 -4,4"/>
<!-- ExpTemp9 -->
<g id="node1" class="node"><title>ExpTemp9</title>
<ellipse fill="none" stroke="black" cx="1326.95" cy="-234" rx="50.0912" ry="18"/>
<text text-anchor="middle" x="1326.95" y="-230.3" font-family="Times,serif" font-size="14.00">ExpTemp9</text>
</g>
<!-- Temp9: T2 -->
<g id="node2" class="node"><title>Temp9: T2</title>
<ellipse fill="none" stroke="black" cx="1390.95" cy="-162" rx="50.8918" ry="18"/>
<text text-anchor="middle" x="1390.95" y="-158.3" font-family="Times,serif" font-size="14.00">Temp9: T2</text>
</g>
<!-- ExpTemp9&#45;&gt;Temp9: T2 -->
<g id="edge1" class="edge"><title>ExpTemp9&#45;&gt;Temp9: T2</title>
<path fill="none" stroke="black" d="M1341.79,-216.765C1349.83,-207.969 1359.93,-196.928 1368.87,-187.144"/>
<polygon fill="black" stroke="black" points="1371.57,-189.375 1375.74,-179.633 1366.41,-184.652 1371.57,-189.375"/>
</g>
<!-- ExpList0 -->
<g id="node3" class="node"><title>ExpList0</title>
<ellipse fill="none" stroke="black" cx="1150.95" cy="-162" rx="42.7926" ry="18"/>
<text text-anchor="middle" x="1150.95" y="-158.3" font-family="Times,serif" font-size="14.00">ExpList0</text>
</g>
<!-- ExpTemp7 -->
<g id="node4" class="node"><title>ExpTemp7</title>
<ellipse fill="none" stroke="black" cx="1198.95" cy="-90" rx="50.0912" ry="18"/>
<text text-anchor="middle" x="1198.95" y="-86.3" font-family="Times,serif" font-size="14.00">ExpTemp7</text>
</g>
<!-- ExpList0&#45;&gt;ExpTemp7 -->
<g id="edge2" class="edge"><title>ExpList0&#45;&gt;ExpTemp7</title>
<path fill="none" stroke="black" d="M1162.32,-144.411C1168.03,-136.077 1175.08,-125.797 1181.47,-116.488"/>
<polygon fill="black" stroke="black" points="1184.55,-118.183 1187.32,-107.956 1178.78,-114.224 1184.55,-118.183"/>
</g>
<!-- Temp7: T10 -->
<g id="node44" class="node"><title>Temp7: T10</title>
<ellipse fill="none" stroke="black" cx="1198.95" cy="-18" rx="55.4913" ry="18"/>
<text text-anchor="middle" x="1198.95" y="-14.3" font-family="Times,serif" font-size="14.00">Temp7: T10</text>
</g>
<!-- ExpTemp7&#45;&gt;Temp7: T10 -->
<g id="edge43" class="edge"><title>ExpTemp7&#45;&gt;Temp7: T10</title>
<path fill="none" stroke="black" d="M1198.95,-71.6966C1198.95,-63.9827 1198.95,-54.7125 1198.95,-46.1124"/>
<polygon fill="black" stroke="black" points="1202.45,-46.1043 1198.95,-36.1043 1195.45,-46.1044 1202.45,-46.1043"/>
</g>
<!-- ExpTemp8 -->
<g id="node5" class="node"><title>ExpTemp8</title>
<ellipse fill="none" stroke="black" cx="1208.95" cy="-234" rx="50.0912" ry="18"/>
<text text-anchor="middle" x="1208.95" y="-230.3" font-family="Times,serif" font-size="14.00">ExpTemp8</text>
</g>
<!-- Temp8: T12 -->
<g id="node6" class="node"><title>Temp8: T12</title>
<ellipse fill="none" stroke="black" cx="1266.95" cy="-162" rx="55.4913" ry="18"/>
<text text-anchor="middle" x="1266.95" y="-158.3" font-family="Times,serif" font-size="14.00">Temp8: T12</text>
</g>
<!-- ExpTemp8&#45;&gt;Temp8: T12 -->
<g id="edge3" class="edge"><title>ExpTemp8&#45;&gt;Temp8: T12</title>
<path fill="none" stroke="black" d="M1222.69,-216.411C1229.91,-207.693 1238.9,-196.845 1246.89,-187.208"/>
<polygon fill="black" stroke="black" points="1249.61,-189.403 1253.3,-179.47 1244.22,-184.937 1249.61,-189.403"/>
</g>
<!-- StatMove1 -->
<g id="node7" class="node"><title>StatMove1</title>
<ellipse fill="none" stroke="black" cx="536.945" cy="-306" rx="50.0912" ry="18"/>
<text text-anchor="middle" x="536.945" y="-302.3" font-family="Times,serif" font-size="14.00">StatMove1</text>
</g>
<!-- ExpTemp2 -->
<g id="node8" class="node"><title>ExpTemp2</title>
<ellipse fill="none" stroke="black" cx="415.945" cy="-234" rx="50.0912" ry="18"/>
<text text-anchor="middle" x="415.945" y="-230.3" font-family="Times,serif" font-size="14.00">ExpTemp2</text>
</g>
<!-- StatMove1&#45;&gt;ExpTemp2 -->
<g id="edge4" class="edge"><title>StatMove1&#45;&gt;ExpTemp2</title>
<path fill="none" stroke="black" d="M511.58,-290.326C493.752,-280.012 469.695,-266.095 450.17,-254.8"/>
<polygon fill="black" stroke="black" points="451.686,-251.633 441.277,-249.655 448.181,-257.692 451.686,-251.633"/>
</g>
<!-- ExpTemp3 -->
<g id="node9" class="node"><title>ExpTemp3</title>
<ellipse fill="none" stroke="black" cx="536.945" cy="-234" rx="50.0912" ry="18"/>
<text text-anchor="middle" x="536.945" y="-230.3" font-family="Times,serif" font-size="14.00">ExpTemp3</text>
</g>
<!-- StatMove1&#45;&gt;ExpTemp3 -->
<g id="edge5" class="edge"><title>StatMove1&#45;&gt;ExpTemp3</title>
<path fill="none" stroke="black" d="M536.945,-287.697C536.945,-279.983 536.945,-270.712 536.945,-262.112"/>
<polygon fill="black" stroke="black" points="540.445,-262.104 536.945,-252.104 533.445,-262.104 540.445,-262.104"/>
</g>
<!-- Temp2: T11 -->
<g id="node18" class="node"><title>Temp2: T11</title>
<ellipse fill="none" stroke="black" cx="412.945" cy="-162" rx="55.4913" ry="18"/>
<text text-anchor="middle" x="412.945" y="-158.3" font-family="Times,serif" font-size="14.00">Temp2: T11</text>
</g>
<!-- ExpTemp2&#45;&gt;Temp2: T11 -->
<g id="edge13" class="edge"><title>ExpTemp2&#45;&gt;Temp2: T11</title>
<path fill="none" stroke="black" d="M415.204,-215.697C414.873,-207.983 414.476,-198.712 414.107,-190.112"/>
<polygon fill="black" stroke="black" points="417.603,-189.945 413.678,-180.104 410.61,-190.245 417.603,-189.945"/>
</g>
<!-- Temp3: T2 -->
<g id="node34" class="node"><title>Temp3: T2</title>
<ellipse fill="none" stroke="black" cx="536.945" cy="-162" rx="50.8918" ry="18"/>
<text text-anchor="middle" x="536.945" y="-158.3" font-family="Times,serif" font-size="14.00">Temp3: T2</text>
</g>
<!-- ExpTemp3&#45;&gt;Temp3: T2 -->
<g id="edge32" class="edge"><title>ExpTemp3&#45;&gt;Temp3: T2</title>
<path fill="none" stroke="black" d="M536.945,-215.697C536.945,-207.983 536.945,-198.712 536.945,-190.112"/>
<polygon fill="black" stroke="black" points="540.445,-190.104 536.945,-180.104 533.445,-190.104 540.445,-190.104"/>
</g>
<!-- ExpConst1 -->
<g id="node10" class="node"><title>ExpConst1</title>
<ellipse fill="none" stroke="black" cx="878.945" cy="-90" rx="50.0912" ry="18"/>
<text text-anchor="middle" x="878.945" y="-86.3" font-family="Times,serif" font-size="14.00">ExpConst1</text>
</g>
<!-- Value1: 16 -->
<g id="node11" class="node"><title>Value1: 16</title>
<ellipse fill="none" stroke="black" cx="878.945" cy="-18" rx="50.0912" ry="18"/>
<text text-anchor="middle" x="878.945" y="-14.3" font-family="Times,serif" font-size="14.00">Value1: 16</text>
</g>
<!-- ExpConst1&#45;&gt;Value1: 16 -->
<g id="edge6" class="edge"><title>ExpConst1&#45;&gt;Value1: 16</title>
<path fill="none" stroke="black" d="M878.945,-71.6966C878.945,-63.9827 878.945,-54.7125 878.945,-46.1124"/>
<polygon fill="black" stroke="black" points="882.445,-46.1043 878.945,-36.1043 875.445,-46.1044 882.445,-46.1043"/>
</g>
<!-- StatMove4 -->
<g id="node12" class="node"><title>StatMove4</title>
<ellipse fill="none" stroke="black" cx="1208.95" cy="-306" rx="50.0912" ry="18"/>
<text text-anchor="middle" x="1208.95" y="-302.3" font-family="Times,serif" font-size="14.00">StatMove4</text>
</g>
<!-- StatMove4&#45;&gt;ExpTemp9 -->
<g id="edge8" class="edge"><title>StatMove4&#45;&gt;ExpTemp9</title>
<path fill="none" stroke="black" d="M1233.68,-290.326C1251.07,-280.012 1274.53,-266.095 1293.57,-254.8"/>
<polygon fill="black" stroke="black" points="1295.43,-257.767 1302.24,-249.655 1291.85,-251.747 1295.43,-257.767"/>
</g>
<!-- StatMove4&#45;&gt;ExpTemp8 -->
<g id="edge7" class="edge"><title>StatMove4&#45;&gt;ExpTemp8</title>
<path fill="none" stroke="black" d="M1208.95,-287.697C1208.95,-279.983 1208.95,-270.712 1208.95,-262.112"/>
<polygon fill="black" stroke="black" points="1212.45,-262.104 1208.95,-252.104 1205.45,-262.104 1212.45,-262.104"/>
</g>
<!-- ExpMem0 -->
<g id="node13" class="node"><title>ExpMem0</title>
<ellipse fill="none" stroke="black" cx="292.945" cy="-234" rx="48.9926" ry="18"/>
<text text-anchor="middle" x="292.945" y="-230.3" font-family="Times,serif" font-size="14.00">ExpMem0</text>
</g>
<!-- ExpBinary0 -->
<g id="node14" class="node"><title>ExpBinary0</title>
<ellipse fill="none" stroke="black" cx="285.945" cy="-162" rx="53.0913" ry="18"/>
<text text-anchor="middle" x="285.945" y="-158.3" font-family="Times,serif" font-size="14.00">ExpBinary0</text>
</g>
<!-- ExpMem0&#45;&gt;ExpBinary0 -->
<g id="edge9" class="edge"><title>ExpMem0&#45;&gt;ExpBinary0</title>
<path fill="none" stroke="black" d="M291.215,-215.697C290.443,-207.983 289.516,-198.712 288.656,-190.112"/>
<polygon fill="black" stroke="black" points="292.133,-189.706 287.656,-180.104 285.168,-190.403 292.133,-189.706"/>
</g>
<!-- ExpConst0 -->
<g id="node22" class="node"><title>ExpConst0</title>
<ellipse fill="none" stroke="black" cx="384.945" cy="-90" rx="50.0912" ry="18"/>
<text text-anchor="middle" x="384.945" y="-86.3" font-family="Times,serif" font-size="14.00">ExpConst0</text>
</g>
<!-- ExpBinary0&#45;&gt;ExpConst0 -->
<g id="edge29" class="edge"><title>ExpBinary0&#45;&gt;ExpConst0</title>
<path fill="none" stroke="black" d="M307.917,-145.465C321.726,-135.7 339.727,-122.972 354.855,-112.276"/>
<polygon fill="black" stroke="black" points="357.231,-114.882 363.376,-106.251 353.19,-109.167 357.231,-114.882"/>
</g>
<!-- ExpTemp1 -->
<g id="node32" class="node"><title>ExpTemp1</title>
<ellipse fill="none" stroke="black" cx="186.945" cy="-90" rx="50.0912" ry="18"/>
<text text-anchor="middle" x="186.945" y="-86.3" font-family="Times,serif" font-size="14.00">ExpTemp1</text>
</g>
<!-- ExpBinary0&#45;&gt;ExpTemp1 -->
<g id="edge27" class="edge"><title>ExpBinary0&#45;&gt;ExpTemp1</title>
<path fill="none" stroke="black" d="M263.974,-145.465C250.164,-135.7 232.163,-122.972 217.036,-112.276"/>
<polygon fill="black" stroke="black" points="218.7,-109.167 208.514,-106.251 214.659,-114.882 218.7,-109.167"/>
</g>
<!-- Plus0 -->
<g id="node33" class="node"><title>Plus0</title>
<ellipse fill="none" stroke="black" cx="285.945" cy="-90" rx="30.5947" ry="18"/>
<text text-anchor="middle" x="285.945" y="-86.3" font-family="Times,serif" font-size="14.00">Plus0</text>
</g>
<!-- ExpBinary0&#45;&gt;Plus0 -->
<g id="edge28" class="edge"><title>ExpBinary0&#45;&gt;Plus0</title>
<path fill="none" stroke="black" d="M285.945,-143.697C285.945,-135.983 285.945,-126.712 285.945,-118.112"/>
<polygon fill="black" stroke="black" points="289.445,-118.104 285.945,-108.104 282.445,-118.104 289.445,-118.104"/>
</g>
<!-- ExpBinary1 -->
<g id="node15" class="node"><title>ExpBinary1</title>
<ellipse fill="none" stroke="black" cx="787.945" cy="-162" rx="53.0913" ry="18"/>
<text text-anchor="middle" x="787.945" y="-158.3" font-family="Times,serif" font-size="14.00">ExpBinary1</text>
</g>
<!-- ExpBinary1&#45;&gt;ExpConst1 -->
<g id="edge12" class="edge"><title>ExpBinary1&#45;&gt;ExpConst1</title>
<path fill="none" stroke="black" d="M808.595,-145.116C821.014,-135.562 836.998,-123.267 850.59,-112.812"/>
<polygon fill="black" stroke="black" points="852.899,-115.451 858.691,-106.58 848.631,-109.903 852.899,-115.451"/>
</g>
<!-- ExpTemp5 -->
<g id="node16" class="node"><title>ExpTemp5</title>
<ellipse fill="none" stroke="black" cx="680.945" cy="-90" rx="50.0912" ry="18"/>
<text text-anchor="middle" x="680.945" y="-86.3" font-family="Times,serif" font-size="14.00">ExpTemp5</text>
</g>
<!-- ExpBinary1&#45;&gt;ExpTemp5 -->
<g id="edge10" class="edge"><title>ExpBinary1&#45;&gt;ExpTemp5</title>
<path fill="none" stroke="black" d="M764.464,-145.638C749.307,-135.723 729.398,-122.698 712.82,-111.853"/>
<polygon fill="black" stroke="black" points="714.289,-108.631 704.004,-106.085 710.456,-114.489 714.289,-108.631"/>
</g>
<!-- Plus1 -->
<g id="node17" class="node"><title>Plus1</title>
<ellipse fill="none" stroke="black" cx="779.945" cy="-90" rx="30.5947" ry="18"/>
<text text-anchor="middle" x="779.945" y="-86.3" font-family="Times,serif" font-size="14.00">Plus1</text>
</g>
<!-- ExpBinary1&#45;&gt;Plus1 -->
<g id="edge11" class="edge"><title>ExpBinary1&#45;&gt;Plus1</title>
<path fill="none" stroke="black" d="M785.968,-143.697C785.086,-135.983 784.027,-126.712 783.044,-118.112"/>
<polygon fill="black" stroke="black" points="786.513,-117.642 781.9,-108.104 779.558,-118.437 786.513,-117.642"/>
</g>
<!-- Temp5: $fp -->
<g id="node39" class="node"><title>Temp5: $fp</title>
<ellipse fill="none" stroke="black" cx="680.945" cy="-18" rx="52.7911" ry="18"/>
<text text-anchor="middle" x="680.945" y="-14.3" font-family="Times,serif" font-size="14.00">Temp5: $fp</text>
</g>
<!-- ExpTemp5&#45;&gt;Temp5: $fp -->
<g id="edge37" class="edge"><title>ExpTemp5&#45;&gt;Temp5: $fp</title>
<path fill="none" stroke="black" d="M680.945,-71.6966C680.945,-63.9827 680.945,-54.7125 680.945,-46.1124"/>
<polygon fill="black" stroke="black" points="684.445,-46.1043 680.945,-36.1043 677.445,-46.1044 684.445,-46.1043"/>
</g>
<!-- StatMove2 -->
<g id="node19" class="node"><title>StatMove2</title>
<ellipse fill="none" stroke="black" cx="722.945" cy="-306" rx="50.0912" ry="18"/>
<text text-anchor="middle" x="722.945" y="-302.3" font-family="Times,serif" font-size="14.00">StatMove2</text>
</g>
<!-- ExpTemp4 -->
<g id="node20" class="node"><title>ExpTemp4</title>
<ellipse fill="none" stroke="black" cx="662.945" cy="-234" rx="50.0912" ry="18"/>
<text text-anchor="middle" x="662.945" y="-230.3" font-family="Times,serif" font-size="14.00">ExpTemp4</text>
</g>
<!-- StatMove2&#45;&gt;ExpTemp4 -->
<g id="edge14" class="edge"><title>StatMove2&#45;&gt;ExpTemp4</title>
<path fill="none" stroke="black" d="M708.726,-288.411C701.254,-279.693 691.956,-268.845 683.695,-259.208"/>
<polygon fill="black" stroke="black" points="686.228,-256.785 677.062,-251.47 680.913,-261.34 686.228,-256.785"/>
</g>
<!-- ExpMem1 -->
<g id="node21" class="node"><title>ExpMem1</title>
<ellipse fill="none" stroke="black" cx="782.945" cy="-234" rx="48.9926" ry="18"/>
<text text-anchor="middle" x="782.945" y="-230.3" font-family="Times,serif" font-size="14.00">ExpMem1</text>
</g>
<!-- StatMove2&#45;&gt;ExpMem1 -->
<g id="edge15" class="edge"><title>StatMove2&#45;&gt;ExpMem1</title>
<path fill="none" stroke="black" d="M737.164,-288.411C744.637,-279.693 753.935,-268.845 762.196,-259.208"/>
<polygon fill="black" stroke="black" points="764.978,-261.34 768.828,-251.47 759.663,-256.785 764.978,-261.34"/>
</g>
<!-- Temp4: T10 -->
<g id="node43" class="node"><title>Temp4: T10</title>
<ellipse fill="none" stroke="black" cx="660.945" cy="-162" rx="55.4913" ry="18"/>
<text text-anchor="middle" x="660.945" y="-158.3" font-family="Times,serif" font-size="14.00">Temp4: T10</text>
</g>
<!-- ExpTemp4&#45;&gt;Temp4: T10 -->
<g id="edge42" class="edge"><title>ExpTemp4&#45;&gt;Temp4: T10</title>
<path fill="none" stroke="black" d="M662.451,-215.697C662.23,-207.983 661.966,-198.712 661.72,-190.112"/>
<polygon fill="black" stroke="black" points="665.218,-190 661.434,-180.104 658.221,-190.2 665.218,-190"/>
</g>
<!-- ExpMem1&#45;&gt;ExpBinary1 -->
<g id="edge17" class="edge"><title>ExpMem1&#45;&gt;ExpBinary1</title>
<path fill="none" stroke="black" d="M784.181,-215.697C784.732,-207.983 785.394,-198.712 786.009,-190.112"/>
<polygon fill="black" stroke="black" points="789.502,-190.328 786.723,-180.104 782.52,-189.83 789.502,-190.328"/>
</g>
<!-- Value0: 16 -->
<g id="node23" class="node"><title>Value0: 16</title>
<ellipse fill="none" stroke="black" cx="384.945" cy="-18" rx="50.0912" ry="18"/>
<text text-anchor="middle" x="384.945" y="-14.3" font-family="Times,serif" font-size="14.00">Value0: 16</text>
</g>
<!-- ExpConst0&#45;&gt;Value0: 16 -->
<g id="edge16" class="edge"><title>ExpConst0&#45;&gt;Value0: 16</title>
<path fill="none" stroke="black" d="M384.945,-71.6966C384.945,-63.9827 384.945,-54.7125 384.945,-46.1124"/>
<polygon fill="black" stroke="black" points="388.445,-46.1043 384.945,-36.1043 381.445,-46.1044 388.445,-46.1043"/>
</g>
<!-- StatLabel0 -->
<g id="node24" class="node"><title>StatLabel0</title>
<ellipse fill="none" stroke="black" cx="114.945" cy="-306" rx="48.9926" ry="18"/>
<text text-anchor="middle" x="114.945" y="-302.3" font-family="Times,serif" font-size="14.00">StatLabel0</text>
</g>
<!-- Label0: L55 -->
<g id="node25" class="node"><title>Label0: L55</title>
<ellipse fill="none" stroke="black" cx="53.9452" cy="-234" rx="53.8905" ry="18"/>
<text text-anchor="middle" x="53.9452" y="-230.3" font-family="Times,serif" font-size="14.00">Label0: L55</text>
</g>
<!-- StatLabel0&#45;&gt;Label0: L55 -->
<g id="edge18" class="edge"><title>StatLabel0&#45;&gt;Label0: L55</title>
<path fill="none" stroke="black" d="M100.797,-288.765C93.2083,-280.056 83.7016,-269.147 75.2386,-259.435"/>
<polygon fill="black" stroke="black" points="77.6485,-256.873 68.44,-251.633 72.3712,-261.472 77.6485,-256.873"/>
</g>
<!-- StatList0 -->
<g id="node26" class="node"><title>StatList0</title>
<ellipse fill="none" stroke="black" cx="722.945" cy="-378" rx="42.4939" ry="18"/>
<text text-anchor="middle" x="722.945" y="-374.3" font-family="Times,serif" font-size="14.00">StatList0</text>
</g>
<!-- StatList0&#45;&gt;StatMove1 -->
<g id="edge21" class="edge"><title>StatList0&#45;&gt;StatMove1</title>
<path fill="none" stroke="black" d="M692.231,-365.441C661.616,-353.919 614.334,-336.125 579.984,-323.197"/>
<polygon fill="black" stroke="black" points="580.81,-319.769 570.218,-319.522 578.345,-326.32 580.81,-319.769"/>
</g>
<!-- StatList0&#45;&gt;StatMove4 -->
<g id="edge24" class="edge"><title>StatList0&#45;&gt;StatMove4</title>
<path fill="none" stroke="black" d="M762.305,-371.331C848.406,-358.93 1053.7,-329.36 1153.11,-315.042"/>
<polygon fill="black" stroke="black" points="1153.86,-318.47 1163.26,-313.58 1152.86,-311.542 1153.86,-318.47"/>
</g>
<!-- StatList0&#45;&gt;StatMove2 -->
<g id="edge22" class="edge"><title>StatList0&#45;&gt;StatMove2</title>
<path fill="none" stroke="black" d="M722.945,-359.697C722.945,-351.983 722.945,-342.712 722.945,-334.112"/>
<polygon fill="black" stroke="black" points="726.445,-334.104 722.945,-324.104 719.445,-334.104 726.445,-334.104"/>
</g>
<!-- StatList0&#45;&gt;StatLabel0 -->
<g id="edge19" class="edge"><title>StatList0&#45;&gt;StatLabel0</title>
<path fill="none" stroke="black" d="M681.997,-373.036C597.925,-364.793 399.799,-344.829 233.945,-324 212.777,-321.342 189.539,-318.095 169.259,-315.155"/>
<polygon fill="black" stroke="black" points="169.659,-311.676 159.258,-313.695 168.648,-318.603 169.659,-311.676"/>
</g>
<!-- StatMove0 -->
<g id="node27" class="node"><title>StatMove0</title>
<ellipse fill="none" stroke="black" cx="292.945" cy="-306" rx="50.0912" ry="18"/>
<text text-anchor="middle" x="292.945" y="-302.3" font-family="Times,serif" font-size="14.00">StatMove0</text>
</g>
<!-- StatList0&#45;&gt;StatMove0 -->
<g id="edge20" class="edge"><title>StatList0&#45;&gt;StatMove0</title>
<path fill="none" stroke="black" d="M684.027,-370.665C607.167,-358.152 435.723,-330.243 347.582,-315.894"/>
<polygon fill="black" stroke="black" points="347.948,-312.408 337.515,-314.256 346.823,-319.317 347.948,-312.408"/>
</g>
<!-- StatMove3 -->
<g id="node28" class="node"><title>StatMove3</title>
<ellipse fill="none" stroke="black" cx="914.945" cy="-306" rx="50.0912" ry="18"/>
<text text-anchor="middle" x="914.945" y="-302.3" font-family="Times,serif" font-size="14.00">StatMove3</text>
</g>
<!-- StatList0&#45;&gt;StatMove3 -->
<g id="edge23" class="edge"><title>StatList0&#45;&gt;StatMove3</title>
<path fill="none" stroke="black" d="M754.221,-365.597C786.079,-353.982 835.738,-335.878 871.427,-322.866"/>
<polygon fill="black" stroke="black" points="872.9,-326.055 881.096,-319.341 870.502,-319.478 872.9,-326.055"/>
</g>
<!-- StatJump0 -->
<g id="node29" class="node"><title>StatJump0</title>
<ellipse fill="none" stroke="black" cx="1386.95" cy="-306" rx="48.1917" ry="18"/>
<text text-anchor="middle" x="1386.95" y="-302.3" font-family="Times,serif" font-size="14.00">StatJump0</text>
</g>
<!-- StatList0&#45;&gt;StatJump0 -->
<g id="edge25" class="edge"><title>StatList0&#45;&gt;StatJump0</title>
<path fill="none" stroke="black" d="M764.034,-373.64C854.978,-366.062 1080.11,-346.538 1267.95,-324 1289.31,-321.437 1312.76,-318.182 1333.16,-315.207"/>
<polygon fill="black" stroke="black" points="1333.82,-318.647 1343.21,-313.728 1332.8,-311.721 1333.82,-318.647"/>
</g>
<!-- StatMove0&#45;&gt;ExpMem0 -->
<g id="edge31" class="edge"><title>StatMove0&#45;&gt;ExpMem0</title>
<path fill="none" stroke="black" d="M292.945,-287.697C292.945,-279.983 292.945,-270.712 292.945,-262.112"/>
<polygon fill="black" stroke="black" points="296.445,-262.104 292.945,-252.104 289.445,-262.104 296.445,-262.104"/>
</g>
<!-- ExpTemp0 -->
<g id="node30" class="node"><title>ExpTemp0</title>
<ellipse fill="none" stroke="black" cx="175.945" cy="-234" rx="50.0912" ry="18"/>
<text text-anchor="middle" x="175.945" y="-230.3" font-family="Times,serif" font-size="14.00">ExpTemp0</text>
</g>
<!-- StatMove0&#45;&gt;ExpTemp0 -->
<g id="edge30" class="edge"><title>StatMove0&#45;&gt;ExpTemp0</title>
<path fill="none" stroke="black" d="M268.133,-290.155C251.069,-279.946 228.206,-266.267 209.517,-255.086"/>
<polygon fill="black" stroke="black" points="211.101,-251.955 200.722,-249.824 207.507,-257.962 211.101,-251.955"/>
</g>
<!-- ExpCall0 -->
<g id="node36" class="node"><title>ExpCall0</title>
<ellipse fill="none" stroke="black" cx="1038.95" cy="-234" rx="44.393" ry="18"/>
<text text-anchor="middle" x="1038.95" y="-230.3" font-family="Times,serif" font-size="14.00">ExpCall0</text>
</g>
<!-- StatMove3&#45;&gt;ExpCall0 -->
<g id="edge40" class="edge"><title>StatMove3&#45;&gt;ExpCall0</title>
<path fill="none" stroke="black" d="M940.638,-290.496C959.339,-279.939 984.845,-265.541 1005.19,-254.055"/>
<polygon fill="black" stroke="black" points="1007.14,-256.972 1014.13,-249.008 1003.7,-250.876 1007.14,-256.972"/>
</g>
<!-- ExpTemp6 -->
<g id="node40" class="node"><title>ExpTemp6</title>
<ellipse fill="none" stroke="black" cx="914.945" cy="-234" rx="50.0912" ry="18"/>
<text text-anchor="middle" x="914.945" y="-230.3" font-family="Times,serif" font-size="14.00">ExpTemp6</text>
</g>
<!-- StatMove3&#45;&gt;ExpTemp6 -->
<g id="edge39" class="edge"><title>StatMove3&#45;&gt;ExpTemp6</title>
<path fill="none" stroke="black" d="M914.945,-287.697C914.945,-279.983 914.945,-270.712 914.945,-262.112"/>
<polygon fill="black" stroke="black" points="918.445,-262.104 914.945,-252.104 911.445,-262.104 918.445,-262.104"/>
</g>
<!-- Label2: L57 -->
<g id="node35" class="node"><title>Label2: L57</title>
<ellipse fill="none" stroke="black" cx="1448.95" cy="-234" rx="53.8905" ry="18"/>
<text text-anchor="middle" x="1448.95" y="-230.3" font-family="Times,serif" font-size="14.00">Label2: L57</text>
</g>
<!-- StatJump0&#45;&gt;Label2: L57 -->
<g id="edge33" class="edge"><title>StatJump0&#45;&gt;Label2: L57</title>
<path fill="none" stroke="black" d="M1401.33,-288.765C1409.12,-279.969 1418.89,-268.928 1427.56,-259.144"/>
<polygon fill="black" stroke="black" points="1430.2,-261.44 1434.21,-251.633 1424.96,-256.799 1430.2,-261.44"/>
</g>
<!-- Temp0: T12 -->
<g id="node31" class="node"><title>Temp0: T12</title>
<ellipse fill="none" stroke="black" cx="158.945" cy="-162" rx="55.4913" ry="18"/>
<text text-anchor="middle" x="158.945" y="-158.3" font-family="Times,serif" font-size="14.00">Temp0: T12</text>
</g>
<!-- ExpTemp0&#45;&gt;Temp0: T12 -->
<g id="edge26" class="edge"><title>ExpTemp0&#45;&gt;Temp0: T12</title>
<path fill="none" stroke="black" d="M171.83,-216.055C169.937,-208.261 167.645,-198.822 165.522,-190.079"/>
<polygon fill="black" stroke="black" points="168.902,-189.167 163.141,-180.275 162.1,-190.819 168.902,-189.167"/>
</g>
<!-- Temp1: $fp -->
<g id="node38" class="node"><title>Temp1: $fp</title>
<ellipse fill="none" stroke="black" cx="186.945" cy="-18" rx="52.7911" ry="18"/>
<text text-anchor="middle" x="186.945" y="-14.3" font-family="Times,serif" font-size="14.00">Temp1: $fp</text>
</g>
<!-- ExpTemp1&#45;&gt;Temp1: $fp -->
<g id="edge36" class="edge"><title>ExpTemp1&#45;&gt;Temp1: $fp</title>
<path fill="none" stroke="black" d="M186.945,-71.6966C186.945,-63.9827 186.945,-54.7125 186.945,-46.1124"/>
<polygon fill="black" stroke="black" points="190.445,-46.1043 186.945,-36.1043 183.445,-46.1044 190.445,-46.1043"/>
</g>
<!-- ExpCall0&#45;&gt;ExpList0 -->
<g id="edge35" class="edge"><title>ExpCall0&#45;&gt;ExpList0</title>
<path fill="none" stroke="black" d="M1062.15,-218.496C1078.67,-208.172 1101.07,-194.174 1119.23,-182.819"/>
<polygon fill="black" stroke="black" points="1121.14,-185.753 1127.77,-177.485 1117.43,-179.818 1121.14,-185.753"/>
</g>
<!-- ExpName0 -->
<g id="node37" class="node"><title>ExpName0</title>
<ellipse fill="none" stroke="black" cx="1038.95" cy="-162" rx="50.8918" ry="18"/>
<text text-anchor="middle" x="1038.95" y="-158.3" font-family="Times,serif" font-size="14.00">ExpName0</text>
</g>
<!-- ExpCall0&#45;&gt;ExpName0 -->
<g id="edge34" class="edge"><title>ExpCall0&#45;&gt;ExpName0</title>
<path fill="none" stroke="black" d="M1038.95,-215.697C1038.95,-207.983 1038.95,-198.712 1038.95,-190.112"/>
<polygon fill="black" stroke="black" points="1042.45,-190.104 1038.95,-180.104 1035.45,-190.104 1042.45,-190.104"/>
</g>
<!-- Label1: Tree@GetLeft -->
<g id="node42" class="node"><title>Label1: Tree@GetLeft</title>
<ellipse fill="none" stroke="black" cx="1038.95" cy="-90" rx="91.784" ry="18"/>
<text text-anchor="middle" x="1038.95" y="-86.3" font-family="Times,serif" font-size="14.00">Label1: Tree@GetLeft</text>
</g>
<!-- ExpName0&#45;&gt;Label1: Tree@GetLeft -->
<g id="edge41" class="edge"><title>ExpName0&#45;&gt;Label1: Tree@GetLeft</title>
<path fill="none" stroke="black" d="M1038.95,-143.697C1038.95,-135.983 1038.95,-126.712 1038.95,-118.112"/>
<polygon fill="black" stroke="black" points="1042.45,-118.104 1038.95,-108.104 1035.45,-118.104 1042.45,-118.104"/>
</g>
<!-- Temp6: T11 -->
<g id="node41" class="node"><title>Temp6: T11</title>
<ellipse fill="none" stroke="black" cx="914.945" cy="-162" rx="55.4913" ry="18"/>
<text text-anchor="middle" x="914.945" y="-158.3" font-family="Times,serif" font-size="14.00">Temp6: T11</text>
</g>
<!-- ExpTemp6&#45;&gt;Temp6: T11 -->
<g id="edge38" class="edge"><title>ExpTemp6&#45;&gt;Temp6: T11</title>
<path fill="none" stroke="black" d="M914.945,-215.697C914.945,-207.983 914.945,-198.712 914.945,-190.112"/>
<polygon fill="black" stroke="black" points="918.445,-190.104 914.945,-180.104 911.445,-190.104 918.445,-190.104"/>
</g>
</g>
</svg>
