<?xml version="1.0" encoding="UTF-8" standalone="no"?>
<!DOCTYPE svg PUBLIC "-//W3C//DTD SVG 1.1//EN"
 "http://www.w3.org/Graphics/SVG/1.1/DTD/svg11.dtd">
<!-- Generated by graphviz version 2.38.0 (20140413.2041)
 -->
<!-- Title: %3 Pages: 1 -->
<svg width="1440pt" height="404pt"
 viewBox="0.00 0.00 1439.89 404.00" xmlns="http://www.w3.org/2000/svg" xmlns:xlink="http://www.w3.org/1999/xlink">
<g id="graph0" class="graph" transform="scale(1 1) rotate(0) translate(4 400)">
<title>%3</title>
<polygon fill="white" stroke="none" points="-4,4 -4,-400 1435.89,-400 1435.89,4 -4,4"/>
<!-- ExpTemp6 -->
<g id="node1" class="node"><title>ExpTemp6</title>
<ellipse fill="none" stroke="black" cx="1011.95" cy="-234" rx="50.0912" ry="18"/>
<text text-anchor="middle" x="1011.95" y="-230.3" font-family="Times,serif" font-size="14.00">ExpTemp6</text>
</g>
<!-- Temp6: T3 -->
<g id="node2" class="node"><title>Temp6: T3</title>
<ellipse fill="none" stroke="black" cx="1013.95" cy="-162" rx="50.8918" ry="18"/>
<text text-anchor="middle" x="1013.95" y="-158.3" font-family="Times,serif" font-size="14.00">Temp6: T3</text>
</g>
<!-- ExpTemp6&#45;&gt;Temp6: T3 -->
<g id="edge1" class="edge"><title>ExpTemp6&#45;&gt;Temp6: T3</title>
<path fill="none" stroke="black" d="M1012.44,-215.697C1012.66,-207.983 1012.92,-198.712 1013.17,-190.112"/>
<polygon fill="black" stroke="black" points="1016.67,-190.2 1013.46,-180.104 1009.67,-190 1016.67,-190.2"/>
</g>
<!-- StatCJump0 -->
<g id="node3" class="node"><title>StatCJump0</title>
<ellipse fill="none" stroke="black" cx="1070.95" cy="-306" rx="53.8905" ry="18"/>
<text text-anchor="middle" x="1070.95" y="-302.3" font-family="Times,serif" font-size="14.00">StatCJump0</text>
</g>
<!-- StatCJump0&#45;&gt;ExpTemp6 -->
<g id="edge3" class="edge"><title>StatCJump0&#45;&gt;ExpTemp6</title>
<path fill="none" stroke="black" d="M1056.96,-288.411C1049.62,-279.693 1040.47,-268.845 1032.35,-259.208"/>
<polygon fill="black" stroke="black" points="1034.95,-256.861 1025.83,-251.47 1029.6,-261.372 1034.95,-256.861"/>
</g>
<!-- NE0 -->
<g id="node4" class="node"><title>NE0</title>
<ellipse fill="none" stroke="black" cx="916.945" cy="-234" rx="27" ry="18"/>
<text text-anchor="middle" x="916.945" y="-230.3" font-family="Times,serif" font-size="14.00">NE0</text>
</g>
<!-- StatCJump0&#45;&gt;NE0 -->
<g id="edge2" class="edge"><title>StatCJump0&#45;&gt;NE0</title>
<path fill="none" stroke="black" d="M1039.82,-291.212C1015.98,-280.608 982.318,-265.53 952.945,-252 951.156,-251.176 949.319,-250.324 947.467,-249.462"/>
<polygon fill="black" stroke="black" points="948.774,-246.21 938.234,-245.135 945.804,-252.548 948.774,-246.21"/>
</g>
<!-- ExpConst1 -->
<g id="node5" class="node"><title>ExpConst1</title>
<ellipse fill="none" stroke="black" cx="1129.95" cy="-234" rx="50.0912" ry="18"/>
<text text-anchor="middle" x="1129.95" y="-230.3" font-family="Times,serif" font-size="14.00">ExpConst1</text>
</g>
<!-- StatCJump0&#45;&gt;ExpConst1 -->
<g id="edge4" class="edge"><title>StatCJump0&#45;&gt;ExpConst1</title>
<path fill="none" stroke="black" d="M1084.93,-288.411C1092.28,-279.693 1101.42,-268.845 1109.54,-259.208"/>
<polygon fill="black" stroke="black" points="1112.29,-261.372 1116.06,-251.47 1106.94,-256.861 1112.29,-261.372"/>
</g>
<!-- Label2: L58 -->
<g id="node6" class="node"><title>Label2: L58</title>
<ellipse fill="none" stroke="black" cx="1251.95" cy="-234" rx="53.8905" ry="18"/>
<text text-anchor="middle" x="1251.95" y="-230.3" font-family="Times,serif" font-size="14.00">Label2: L58</text>
</g>
<!-- StatCJump0&#45;&gt;Label2: L58 -->
<g id="edge5" class="edge"><title>StatCJump0&#45;&gt;Label2: L58</title>
<path fill="none" stroke="black" d="M1104.99,-291.834C1134.32,-280.492 1176.81,-264.057 1208.57,-251.776"/>
<polygon fill="black" stroke="black" points="1209.99,-254.979 1218.05,-248.107 1207.46,-248.45 1209.99,-254.979"/>
</g>
<!-- Label3: L59 -->
<g id="node7" class="node"><title>Label3: L59</title>
<ellipse fill="none" stroke="black" cx="1377.95" cy="-234" rx="53.8905" ry="18"/>
<text text-anchor="middle" x="1377.95" y="-230.3" font-family="Times,serif" font-size="14.00">Label3: L59</text>
</g>
<!-- StatCJump0&#45;&gt;Label3: L59 -->
<g id="edge6" class="edge"><title>StatCJump0&#45;&gt;Label3: L59</title>
<path fill="none" stroke="black" d="M1116.07,-295.898C1165.16,-285.834 1245.87,-268.811 1314.95,-252 1319.09,-250.99 1323.39,-249.91 1327.69,-248.801"/>
<polygon fill="black" stroke="black" points="1328.9,-252.101 1337.69,-246.181 1327.13,-245.329 1328.9,-252.101"/>
</g>
<!-- Value1: 0 -->
<g id="node35" class="node"><title>Value1: 0</title>
<ellipse fill="none" stroke="black" cx="1129.95" cy="-162" rx="45.4919" ry="18"/>
<text text-anchor="middle" x="1129.95" y="-158.3" font-family="Times,serif" font-size="14.00">Value1: 0</text>
</g>
<!-- ExpConst1&#45;&gt;Value1: 0 -->
<g id="edge32" class="edge"><title>ExpConst1&#45;&gt;Value1: 0</title>
<path fill="none" stroke="black" d="M1129.95,-215.697C1129.95,-207.983 1129.95,-198.712 1129.95,-190.112"/>
<polygon fill="black" stroke="black" points="1133.45,-190.104 1129.95,-180.104 1126.45,-190.104 1133.45,-190.104"/>
</g>
<!-- ExpList0 -->
<g id="node8" class="node"><title>ExpList0</title>
<ellipse fill="none" stroke="black" cx="901.945" cy="-162" rx="42.7926" ry="18"/>
<text text-anchor="middle" x="901.945" y="-158.3" font-family="Times,serif" font-size="14.00">ExpList0</text>
</g>
<!-- ExpTemp5 -->
<g id="node9" class="node"><title>ExpTemp5</title>
<ellipse fill="none" stroke="black" cx="971.945" cy="-90" rx="50.0912" ry="18"/>
<text text-anchor="middle" x="971.945" y="-86.3" font-family="Times,serif" font-size="14.00">ExpTemp5</text>
</g>
<!-- ExpList0&#45;&gt;ExpTemp5 -->
<g id="edge7" class="edge"><title>ExpList0&#45;&gt;ExpTemp5</title>
<path fill="none" stroke="black" d="M917.829,-145.116C926.83,-136.116 938.263,-124.682 948.299,-114.646"/>
<polygon fill="black" stroke="black" points="951.042,-116.853 955.638,-107.307 946.092,-111.903 951.042,-116.853"/>
</g>
<!-- Temp5: T13 -->
<g id="node10" class="node"><title>Temp5: T13</title>
<ellipse fill="none" stroke="black" cx="971.945" cy="-18" rx="55.4913" ry="18"/>
<text text-anchor="middle" x="971.945" y="-14.3" font-family="Times,serif" font-size="14.00">Temp5: T13</text>
</g>
<!-- ExpTemp5&#45;&gt;Temp5: T13 -->
<g id="edge8" class="edge"><title>ExpTemp5&#45;&gt;Temp5: T13</title>
<path fill="none" stroke="black" d="M971.945,-71.6966C971.945,-63.9827 971.945,-54.7125 971.945,-46.1124"/>
<polygon fill="black" stroke="black" points="975.445,-46.1043 971.945,-36.1043 968.445,-46.1044 975.445,-46.1043"/>
</g>
<!-- ExpName0 -->
<g id="node11" class="node"><title>ExpName0</title>
<ellipse fill="none" stroke="black" cx="789.945" cy="-162" rx="50.8918" ry="18"/>
<text text-anchor="middle" x="789.945" y="-158.3" font-family="Times,serif" font-size="14.00">ExpName0</text>
</g>
<!-- Label1: Tree@GetHas_Right -->
<g id="node12" class="node"><title>Label1: Tree@GetHas_Right</title>
<ellipse fill="none" stroke="black" cx="789.945" cy="-90" rx="114.28" ry="18"/>
<text text-anchor="middle" x="789.945" y="-86.3" font-family="Times,serif" font-size="14.00">Label1: Tree@GetHas_Right</text>
</g>
<!-- ExpName0&#45;&gt;Label1: Tree@GetHas_Right -->
<g id="edge9" class="edge"><title>ExpName0&#45;&gt;Label1: Tree@GetHas_Right</title>
<path fill="none" stroke="black" d="M789.945,-143.697C789.945,-135.983 789.945,-126.712 789.945,-118.112"/>
<polygon fill="black" stroke="black" points="793.445,-118.104 789.945,-108.104 786.445,-118.104 793.445,-118.104"/>
</g>
<!-- ExpCall0 -->
<g id="node13" class="node"><title>ExpCall0</title>
<ellipse fill="none" stroke="black" cx="789.945" cy="-234" rx="44.393" ry="18"/>
<text text-anchor="middle" x="789.945" y="-230.3" font-family="Times,serif" font-size="14.00">ExpCall0</text>
</g>
<!-- ExpCall0&#45;&gt;ExpList0 -->
<g id="edge11" class="edge"><title>ExpCall0&#45;&gt;ExpList0</title>
<path fill="none" stroke="black" d="M813.152,-218.496C829.671,-208.172 852.067,-194.174 870.234,-182.819"/>
<polygon fill="black" stroke="black" points="872.143,-185.753 878.768,-177.485 868.433,-179.818 872.143,-185.753"/>
</g>
<!-- ExpCall0&#45;&gt;ExpName0 -->
<g id="edge10" class="edge"><title>ExpCall0&#45;&gt;ExpName0</title>
<path fill="none" stroke="black" d="M789.945,-215.697C789.945,-207.983 789.945,-198.712 789.945,-190.112"/>
<polygon fill="black" stroke="black" points="793.445,-190.104 789.945,-180.104 786.445,-190.104 793.445,-190.104"/>
</g>
<!-- ExpTemp4 -->
<g id="node14" class="node"><title>ExpTemp4</title>
<ellipse fill="none" stroke="black" cx="665.945" cy="-234" rx="50.0912" ry="18"/>
<text text-anchor="middle" x="665.945" y="-230.3" font-family="Times,serif" font-size="14.00">ExpTemp4</text>
</g>
<!-- Temp4: T14 -->
<g id="node15" class="node"><title>Temp4: T14</title>
<ellipse fill="none" stroke="black" cx="665.945" cy="-162" rx="55.4913" ry="18"/>
<text text-anchor="middle" x="665.945" y="-158.3" font-family="Times,serif" font-size="14.00">Temp4: T14</text>
</g>
<!-- ExpTemp4&#45;&gt;Temp4: T14 -->
<g id="edge12" class="edge"><title>ExpTemp4&#45;&gt;Temp4: T14</title>
<path fill="none" stroke="black" d="M665.945,-215.697C665.945,-207.983 665.945,-198.712 665.945,-190.112"/>
<polygon fill="black" stroke="black" points="669.445,-190.104 665.945,-180.104 662.445,-190.104 669.445,-190.104"/>
</g>
<!-- ExpMem0 -->
<g id="node16" class="node"><title>ExpMem0</title>
<ellipse fill="none" stroke="black" cx="535.945" cy="-234" rx="48.9926" ry="18"/>
<text text-anchor="middle" x="535.945" y="-230.3" font-family="Times,serif" font-size="14.00">ExpMem0</text>
</g>
<!-- ExpBinary0 -->
<g id="node17" class="node"><title>ExpBinary0</title>
<ellipse fill="none" stroke="black" cx="538.945" cy="-162" rx="53.0913" ry="18"/>
<text text-anchor="middle" x="538.945" y="-158.3" font-family="Times,serif" font-size="14.00">ExpBinary0</text>
</g>
<!-- ExpMem0&#45;&gt;ExpBinary0 -->
<g id="edge13" class="edge"><title>ExpMem0&#45;&gt;ExpBinary0</title>
<path fill="none" stroke="black" d="M536.687,-215.697C537.017,-207.983 537.415,-198.712 537.783,-190.112"/>
<polygon fill="black" stroke="black" points="541.281,-190.245 538.212,-180.104 534.287,-189.945 541.281,-190.245"/>
</g>
<!-- ExpTemp3 -->
<g id="node21" class="node"><title>ExpTemp3</title>
<ellipse fill="none" stroke="black" cx="409.945" cy="-90" rx="50.0912" ry="18"/>
<text text-anchor="middle" x="409.945" y="-86.3" font-family="Times,serif" font-size="14.00">ExpTemp3</text>
</g>
<!-- ExpBinary0&#45;&gt;ExpTemp3 -->
<g id="edge16" class="edge"><title>ExpBinary0&#45;&gt;ExpTemp3</title>
<path fill="none" stroke="black" d="M511.903,-146.326C492.595,-135.849 466.436,-121.654 445.449,-110.265"/>
<polygon fill="black" stroke="black" points="446.969,-107.108 436.51,-105.415 443.63,-113.261 446.969,-107.108"/>
</g>
<!-- Plus0 -->
<g id="node22" class="node"><title>Plus0</title>
<ellipse fill="none" stroke="black" cx="508.945" cy="-90" rx="30.5947" ry="18"/>
<text text-anchor="middle" x="508.945" y="-86.3" font-family="Times,serif" font-size="14.00">Plus0</text>
</g>
<!-- ExpBinary0&#45;&gt;Plus0 -->
<g id="edge17" class="edge"><title>ExpBinary0&#45;&gt;Plus0</title>
<path fill="none" stroke="black" d="M531.683,-144.055C528.219,-135.973 523.997,-126.121 520.136,-117.112"/>
<polygon fill="black" stroke="black" points="523.297,-115.602 516.14,-107.789 516.863,-118.359 523.297,-115.602"/>
</g>
<!-- ExpConst0 -->
<g id="node23" class="node"><title>ExpConst0</title>
<ellipse fill="none" stroke="black" cx="607.945" cy="-90" rx="50.0912" ry="18"/>
<text text-anchor="middle" x="607.945" y="-86.3" font-family="Times,serif" font-size="14.00">ExpConst0</text>
</g>
<!-- ExpBinary0&#45;&gt;ExpConst0 -->
<g id="edge18" class="edge"><title>ExpBinary0&#45;&gt;ExpConst0</title>
<path fill="none" stroke="black" d="M554.949,-144.765C563.831,-135.753 575.037,-124.385 584.854,-114.426"/>
<polygon fill="black" stroke="black" points="587.501,-116.726 592.029,-107.147 582.516,-111.812 587.501,-116.726"/>
</g>
<!-- StatMove0 -->
<g id="node18" class="node"><title>StatMove0</title>
<ellipse fill="none" stroke="black" cx="293.945" cy="-306" rx="50.0912" ry="18"/>
<text text-anchor="middle" x="293.945" y="-302.3" font-family="Times,serif" font-size="14.00">StatMove0</text>
</g>
<!-- ExpTemp0 -->
<g id="node19" class="node"><title>ExpTemp0</title>
<ellipse fill="none" stroke="black" cx="175.945" cy="-234" rx="50.0912" ry="18"/>
<text text-anchor="middle" x="175.945" y="-230.3" font-family="Times,serif" font-size="14.00">ExpTemp0</text>
</g>
<!-- StatMove0&#45;&gt;ExpTemp0 -->
<g id="edge14" class="edge"><title>StatMove0&#45;&gt;ExpTemp0</title>
<path fill="none" stroke="black" d="M269.209,-290.326C251.823,-280.012 228.363,-266.095 209.322,-254.8"/>
<polygon fill="black" stroke="black" points="211.036,-251.747 200.649,-249.655 207.464,-257.767 211.036,-251.747"/>
</g>
<!-- ExpTemp1 -->
<g id="node20" class="node"><title>ExpTemp1</title>
<ellipse fill="none" stroke="black" cx="293.945" cy="-234" rx="50.0912" ry="18"/>
<text text-anchor="middle" x="293.945" y="-230.3" font-family="Times,serif" font-size="14.00">ExpTemp1</text>
</g>
<!-- StatMove0&#45;&gt;ExpTemp1 -->
<g id="edge15" class="edge"><title>StatMove0&#45;&gt;ExpTemp1</title>
<path fill="none" stroke="black" d="M293.945,-287.697C293.945,-279.983 293.945,-270.712 293.945,-262.112"/>
<polygon fill="black" stroke="black" points="297.445,-262.104 293.945,-252.104 290.445,-262.104 297.445,-262.104"/>
</g>
<!-- Temp0: T14 -->
<g id="node24" class="node"><title>Temp0: T14</title>
<ellipse fill="none" stroke="black" cx="163.945" cy="-162" rx="55.4913" ry="18"/>
<text text-anchor="middle" x="163.945" y="-158.3" font-family="Times,serif" font-size="14.00">Temp0: T14</text>
</g>
<!-- ExpTemp0&#45;&gt;Temp0: T14 -->
<g id="edge19" class="edge"><title>ExpTemp0&#45;&gt;Temp0: T14</title>
<path fill="none" stroke="black" d="M172.979,-215.697C171.657,-207.983 170.067,-198.712 168.593,-190.112"/>
<polygon fill="black" stroke="black" points="172.017,-189.369 166.877,-180.104 165.117,-190.552 172.017,-189.369"/>
</g>
<!-- Temp1: T3 -->
<g id="node34" class="node"><title>Temp1: T3</title>
<ellipse fill="none" stroke="black" cx="287.945" cy="-162" rx="50.8918" ry="18"/>
<text text-anchor="middle" x="287.945" y="-158.3" font-family="Times,serif" font-size="14.00">Temp1: T3</text>
</g>
<!-- ExpTemp1&#45;&gt;Temp1: T3 -->
<g id="edge31" class="edge"><title>ExpTemp1&#45;&gt;Temp1: T3</title>
<path fill="none" stroke="black" d="M292.462,-215.697C291.801,-207.983 291.006,-198.712 290.269,-190.112"/>
<polygon fill="black" stroke="black" points="293.753,-189.769 289.411,-180.104 286.778,-190.367 293.753,-189.769"/>
</g>
<!-- Temp3: $fp -->
<g id="node32" class="node"><title>Temp3: $fp</title>
<ellipse fill="none" stroke="black" cx="409.945" cy="-18" rx="52.7911" ry="18"/>
<text text-anchor="middle" x="409.945" y="-14.3" font-family="Times,serif" font-size="14.00">Temp3: $fp</text>
</g>
<!-- ExpTemp3&#45;&gt;Temp3: $fp -->
<g id="edge29" class="edge"><title>ExpTemp3&#45;&gt;Temp3: $fp</title>
<path fill="none" stroke="black" d="M409.945,-71.6966C409.945,-63.9827 409.945,-54.7125 409.945,-46.1124"/>
<polygon fill="black" stroke="black" points="413.445,-46.1043 409.945,-36.1043 406.445,-46.1044 413.445,-46.1043"/>
</g>
<!-- Value0: 16 -->
<g id="node33" class="node"><title>Value0: 16</title>
<ellipse fill="none" stroke="black" cx="607.945" cy="-18" rx="50.0912" ry="18"/>
<text text-anchor="middle" x="607.945" y="-14.3" font-family="Times,serif" font-size="14.00">Value0: 16</text>
</g>
<!-- ExpConst0&#45;&gt;Value0: 16 -->
<g id="edge30" class="edge"><title>ExpConst0&#45;&gt;Value0: 16</title>
<path fill="none" stroke="black" d="M607.945,-71.6966C607.945,-63.9827 607.945,-54.7125 607.945,-46.1124"/>
<polygon fill="black" stroke="black" points="611.445,-46.1043 607.945,-36.1043 604.445,-46.1044 611.445,-46.1043"/>
</g>
<!-- StatList0 -->
<g id="node25" class="node"><title>StatList0</title>
<ellipse fill="none" stroke="black" cx="414.945" cy="-378" rx="42.4939" ry="18"/>
<text text-anchor="middle" x="414.945" y="-374.3" font-family="Times,serif" font-size="14.00">StatList0</text>
</g>
<!-- StatList0&#45;&gt;StatCJump0 -->
<g id="edge24" class="edge"><title>StatList0&#45;&gt;StatCJump0</title>
<path fill="none" stroke="black" d="M455.486,-372.674C566.836,-360.792 877.854,-327.604 1010.15,-313.488"/>
<polygon fill="black" stroke="black" points="1010.54,-316.965 1020.11,-312.424 1009.8,-310.005 1010.54,-316.965"/>
</g>
<!-- StatList0&#45;&gt;StatMove0 -->
<g id="edge21" class="edge"><title>StatList0&#45;&gt;StatMove0</title>
<path fill="none" stroke="black" d="M390.75,-363.003C372.808,-352.623 348.106,-338.333 328.146,-326.785"/>
<polygon fill="black" stroke="black" points="329.759,-323.675 319.35,-321.697 326.253,-329.734 329.759,-323.675"/>
</g>
<!-- StatLabel0 -->
<g id="node26" class="node"><title>StatLabel0</title>
<ellipse fill="none" stroke="black" cx="115.945" cy="-306" rx="48.9926" ry="18"/>
<text text-anchor="middle" x="115.945" y="-302.3" font-family="Times,serif" font-size="14.00">StatLabel0</text>
</g>
<!-- StatList0&#45;&gt;StatLabel0 -->
<g id="edge20" class="edge"><title>StatList0&#45;&gt;StatLabel0</title>
<path fill="none" stroke="black" d="M378.879,-368.556C325.727,-356.113 226.169,-332.805 165.981,-318.714"/>
<polygon fill="black" stroke="black" points="166.482,-315.237 155.947,-316.365 164.886,-322.052 166.482,-315.237"/>
</g>
<!-- StatMove1 -->
<g id="node27" class="node"><title>StatMove1</title>
<ellipse fill="none" stroke="black" cx="414.945" cy="-306" rx="50.0912" ry="18"/>
<text text-anchor="middle" x="414.945" y="-302.3" font-family="Times,serif" font-size="14.00">StatMove1</text>
</g>
<!-- StatList0&#45;&gt;StatMove1 -->
<g id="edge22" class="edge"><title>StatList0&#45;&gt;StatMove1</title>
<path fill="none" stroke="black" d="M414.945,-359.697C414.945,-351.983 414.945,-342.712 414.945,-334.112"/>
<polygon fill="black" stroke="black" points="418.445,-334.104 414.945,-324.104 411.445,-334.104 418.445,-334.104"/>
</g>
<!-- StatMove2 -->
<g id="node28" class="node"><title>StatMove2</title>
<ellipse fill="none" stroke="black" cx="665.945" cy="-306" rx="50.0912" ry="18"/>
<text text-anchor="middle" x="665.945" y="-302.3" font-family="Times,serif" font-size="14.00">StatMove2</text>
</g>
<!-- StatList0&#45;&gt;StatMove2 -->
<g id="edge23" class="edge"><title>StatList0&#45;&gt;StatMove2</title>
<path fill="none" stroke="black" d="M449.319,-367.414C492.906,-355.258 568.308,-334.229 617.658,-320.466"/>
<polygon fill="black" stroke="black" points="618.776,-323.788 627.468,-317.731 616.895,-317.046 618.776,-323.788"/>
</g>
<!-- Label0: L61 -->
<g id="node29" class="node"><title>Label0: L61</title>
<ellipse fill="none" stroke="black" cx="53.9452" cy="-234" rx="53.8905" ry="18"/>
<text text-anchor="middle" x="53.9452" y="-230.3" font-family="Times,serif" font-size="14.00">Label0: L61</text>
</g>
<!-- StatLabel0&#45;&gt;Label0: L61 -->
<g id="edge25" class="edge"><title>StatLabel0&#45;&gt;Label0: L61</title>
<path fill="none" stroke="black" d="M101.565,-288.765C93.7748,-279.969 83.996,-268.928 75.3299,-259.144"/>
<polygon fill="black" stroke="black" points="77.9281,-256.799 68.6777,-251.633 72.688,-261.44 77.9281,-256.799"/>
</g>
<!-- StatMove1&#45;&gt;ExpMem0 -->
<g id="edge34" class="edge"><title>StatMove1&#45;&gt;ExpMem0</title>
<path fill="none" stroke="black" d="M440.311,-290.326C458.138,-280.012 482.195,-266.095 501.72,-254.8"/>
<polygon fill="black" stroke="black" points="503.71,-257.692 510.613,-249.655 500.204,-251.633 503.71,-257.692"/>
</g>
<!-- ExpTemp2 -->
<g id="node30" class="node"><title>ExpTemp2</title>
<ellipse fill="none" stroke="black" cx="413.945" cy="-234" rx="50.0912" ry="18"/>
<text text-anchor="middle" x="413.945" y="-230.3" font-family="Times,serif" font-size="14.00">ExpTemp2</text>
</g>
<!-- StatMove1&#45;&gt;ExpTemp2 -->
<g id="edge33" class="edge"><title>StatMove1&#45;&gt;ExpTemp2</title>
<path fill="none" stroke="black" d="M414.698,-287.697C414.588,-279.983 414.455,-270.712 414.333,-262.112"/>
<polygon fill="black" stroke="black" points="417.832,-262.053 414.19,-252.104 410.833,-262.153 417.832,-262.053"/>
</g>
<!-- StatMove2&#45;&gt;ExpCall0 -->
<g id="edge27" class="edge"><title>StatMove2&#45;&gt;ExpCall0</title>
<path fill="none" stroke="black" d="M691.638,-290.496C710.339,-279.939 735.845,-265.541 756.19,-254.055"/>
<polygon fill="black" stroke="black" points="758.144,-256.972 765.131,-249.008 754.703,-250.876 758.144,-256.972"/>
</g>
<!-- StatMove2&#45;&gt;ExpTemp4 -->
<g id="edge26" class="edge"><title>StatMove2&#45;&gt;ExpTemp4</title>
<path fill="none" stroke="black" d="M665.945,-287.697C665.945,-279.983 665.945,-270.712 665.945,-262.112"/>
<polygon fill="black" stroke="black" points="669.445,-262.104 665.945,-252.104 662.445,-262.104 669.445,-262.104"/>
</g>
<!-- Temp2: T13 -->
<g id="node31" class="node"><title>Temp2: T13</title>
<ellipse fill="none" stroke="black" cx="411.945" cy="-162" rx="55.4913" ry="18"/>
<text text-anchor="middle" x="411.945" y="-158.3" font-family="Times,serif" font-size="14.00">Temp2: T13</text>
</g>
<!-- ExpTemp2&#45;&gt;Temp2: T13 -->
<g id="edge28" class="edge"><title>ExpTemp2&#45;&gt;Temp2: T13</title>
<path fill="none" stroke="black" d="M413.451,-215.697C413.23,-207.983 412.966,-198.712 412.72,-190.112"/>
<polygon fill="black" stroke="black" points="416.218,-190 412.434,-180.104 409.221,-190.2 416.218,-190"/>
</g>
</g>
</svg>
