<?xml version="1.0" encoding="UTF-8" standalone="no"?>
<!DOCTYPE svg PUBLIC "-//W3C//DTD SVG 1.1//EN"
 "http://www.w3.org/Graphics/SVG/1.1/DTD/svg11.dtd">
<!-- Generated by graphviz version 2.38.0 (20140413.2041)
 -->
<!-- Title: %3 Pages: 1 -->
<svg width="1799pt" height="404pt"
 viewBox="0.00 0.00 1798.89 404.00" xmlns="http://www.w3.org/2000/svg" xmlns:xlink="http://www.w3.org/1999/xlink">
<g id="graph0" class="graph" transform="scale(1 1) rotate(0) translate(4 400)">
<title>%3</title>
<polygon fill="white" stroke="none" points="-4,4 -4,-400 1794.89,-400 1794.89,4 -4,4"/>
<!-- ExpConst1 -->
<g id="node1" class="node"><title>ExpConst1</title>
<ellipse fill="none" stroke="black" cx="1488.95" cy="-234" rx="50.0912" ry="18"/>
<text text-anchor="middle" x="1488.95" y="-230.3" font-family="Times,serif" font-size="14.00">ExpConst1</text>
</g>
<!-- Value1: 0 -->
<g id="node2" class="node"><title>Value1: 0</title>
<ellipse fill="none" stroke="black" cx="1488.95" cy="-162" rx="45.4919" ry="18"/>
<text text-anchor="middle" x="1488.95" y="-158.3" font-family="Times,serif" font-size="14.00">Value1: 0</text>
</g>
<!-- ExpConst1&#45;&gt;Value1: 0 -->
<g id="edge1" class="edge"><title>ExpConst1&#45;&gt;Value1: 0</title>
<path fill="none" stroke="black" d="M1488.95,-215.697C1488.95,-207.983 1488.95,-198.712 1488.95,-190.112"/>
<polygon fill="black" stroke="black" points="1492.45,-190.104 1488.95,-180.104 1485.45,-190.104 1492.45,-190.104"/>
</g>
<!-- ExpName0 -->
<g id="node3" class="node"><title>ExpName0</title>
<ellipse fill="none" stroke="black" cx="584.945" cy="-234" rx="50.8918" ry="18"/>
<text text-anchor="middle" x="584.945" y="-230.3" font-family="Times,serif" font-size="14.00">ExpName0</text>
</g>
<!-- Label1: Tree@GetHas_Right -->
<g id="node4" class="node"><title>Label1: Tree@GetHas_Right</title>
<ellipse fill="none" stroke="black" cx="584.945" cy="-162" rx="114.28" ry="18"/>
<text text-anchor="middle" x="584.945" y="-158.3" font-family="Times,serif" font-size="14.00">Label1: Tree@GetHas_Right</text>
</g>
<!-- ExpName0&#45;&gt;Label1: Tree@GetHas_Right -->
<g id="edge2" class="edge"><title>ExpName0&#45;&gt;Label1: Tree@GetHas_Right</title>
<path fill="none" stroke="black" d="M584.945,-215.697C584.945,-207.983 584.945,-198.712 584.945,-190.112"/>
<polygon fill="black" stroke="black" points="588.445,-190.104 584.945,-180.104 581.445,-190.104 588.445,-190.104"/>
</g>
<!-- StatMove2 -->
<g id="node5" class="node"><title>StatMove2</title>
<ellipse fill="none" stroke="black" cx="772.945" cy="-306" rx="50.0912" ry="18"/>
<text text-anchor="middle" x="772.945" y="-302.3" font-family="Times,serif" font-size="14.00">StatMove2</text>
</g>
<!-- ExpTemp3 -->
<g id="node6" class="node"><title>ExpTemp3</title>
<ellipse fill="none" stroke="black" cx="772.945" cy="-234" rx="50.0912" ry="18"/>
<text text-anchor="middle" x="772.945" y="-230.3" font-family="Times,serif" font-size="14.00">ExpTemp3</text>
</g>
<!-- StatMove2&#45;&gt;ExpTemp3 -->
<g id="edge3" class="edge"><title>StatMove2&#45;&gt;ExpTemp3</title>
<path fill="none" stroke="black" d="M772.945,-287.697C772.945,-279.983 772.945,-270.712 772.945,-262.112"/>
<polygon fill="black" stroke="black" points="776.445,-262.104 772.945,-252.104 769.445,-262.104 776.445,-262.104"/>
</g>
<!-- ExpMem0 -->
<g id="node7" class="node"><title>ExpMem0</title>
<ellipse fill="none" stroke="black" cx="894.945" cy="-234" rx="48.9926" ry="18"/>
<text text-anchor="middle" x="894.945" y="-230.3" font-family="Times,serif" font-size="14.00">ExpMem0</text>
</g>
<!-- StatMove2&#45;&gt;ExpMem0 -->
<g id="edge4" class="edge"><title>StatMove2&#45;&gt;ExpMem0</title>
<path fill="none" stroke="black" d="M798.52,-290.326C816.577,-279.965 840.97,-265.969 860.704,-254.646"/>
<polygon fill="black" stroke="black" points="862.472,-257.668 869.404,-249.655 858.988,-251.596 862.472,-257.668"/>
</g>
<!-- Temp3: T17 -->
<g id="node10" class="node"><title>Temp3: T17</title>
<ellipse fill="none" stroke="black" cx="772.945" cy="-162" rx="55.4913" ry="18"/>
<text text-anchor="middle" x="772.945" y="-158.3" font-family="Times,serif" font-size="14.00">Temp3: T17</text>
</g>
<!-- ExpTemp3&#45;&gt;Temp3: T17 -->
<g id="edge6" class="edge"><title>ExpTemp3&#45;&gt;Temp3: T17</title>
<path fill="none" stroke="black" d="M772.945,-215.697C772.945,-207.983 772.945,-198.712 772.945,-190.112"/>
<polygon fill="black" stroke="black" points="776.445,-190.104 772.945,-180.104 769.445,-190.104 776.445,-190.104"/>
</g>
<!-- ExpBinary0 -->
<g id="node28" class="node"><title>ExpBinary0</title>
<ellipse fill="none" stroke="black" cx="899.945" cy="-162" rx="53.0913" ry="18"/>
<text text-anchor="middle" x="899.945" y="-158.3" font-family="Times,serif" font-size="14.00">ExpBinary0</text>
</g>
<!-- ExpMem0&#45;&gt;ExpBinary0 -->
<g id="edge25" class="edge"><title>ExpMem0&#45;&gt;ExpBinary0</title>
<path fill="none" stroke="black" d="M896.181,-215.697C896.732,-207.983 897.394,-198.712 898.009,-190.112"/>
<polygon fill="black" stroke="black" points="901.502,-190.328 898.723,-180.104 894.52,-189.83 901.502,-190.328"/>
</g>
<!-- ExpTemp2 -->
<g id="node8" class="node"><title>ExpTemp2</title>
<ellipse fill="none" stroke="black" cx="431.945" cy="-234" rx="50.0912" ry="18"/>
<text text-anchor="middle" x="431.945" y="-230.3" font-family="Times,serif" font-size="14.00">ExpTemp2</text>
</g>
<!-- Temp2: T16 -->
<g id="node9" class="node"><title>Temp2: T16</title>
<ellipse fill="none" stroke="black" cx="396.945" cy="-162" rx="55.4913" ry="18"/>
<text text-anchor="middle" x="396.945" y="-158.3" font-family="Times,serif" font-size="14.00">Temp2: T16</text>
</g>
<!-- ExpTemp2&#45;&gt;Temp2: T16 -->
<g id="edge5" class="edge"><title>ExpTemp2&#45;&gt;Temp2: T16</title>
<path fill="none" stroke="black" d="M423.473,-216.055C419.449,-208.007 414.548,-198.205 410.058,-189.226"/>
<polygon fill="black" stroke="black" points="413.186,-187.654 405.583,-180.275 406.925,-190.785 413.186,-187.654"/>
</g>
<!-- StatLabel0 -->
<g id="node11" class="node"><title>StatLabel0</title>
<ellipse fill="none" stroke="black" cx="115.945" cy="-306" rx="48.9926" ry="18"/>
<text text-anchor="middle" x="115.945" y="-302.3" font-family="Times,serif" font-size="14.00">StatLabel0</text>
</g>
<!-- Label0: L61 -->
<g id="node12" class="node"><title>Label0: L61</title>
<ellipse fill="none" stroke="black" cx="53.9452" cy="-234" rx="53.8905" ry="18"/>
<text text-anchor="middle" x="53.9452" y="-230.3" font-family="Times,serif" font-size="14.00">Label0: L61</text>
</g>
<!-- StatLabel0&#45;&gt;Label0: L61 -->
<g id="edge7" class="edge"><title>StatLabel0&#45;&gt;Label0: L61</title>
<path fill="none" stroke="black" d="M101.565,-288.765C93.7748,-279.969 83.996,-268.928 75.3299,-259.144"/>
<polygon fill="black" stroke="black" points="77.9281,-256.799 68.6777,-251.633 72.688,-261.44 77.9281,-256.799"/>
</g>
<!-- StatList0 -->
<g id="node13" class="node"><title>StatList0</title>
<ellipse fill="none" stroke="black" cx="678.945" cy="-378" rx="42.4939" ry="18"/>
<text text-anchor="middle" x="678.945" y="-374.3" font-family="Times,serif" font-size="14.00">StatList0</text>
</g>
<!-- StatList0&#45;&gt;StatMove2 -->
<g id="edge11" class="edge"><title>StatList0&#45;&gt;StatMove2</title>
<path fill="none" stroke="black" d="M699.342,-361.811C712.432,-352.063 729.627,-339.258 744.105,-328.477"/>
<polygon fill="black" stroke="black" points="746.334,-331.181 752.264,-322.401 742.153,-325.567 746.334,-331.181"/>
</g>
<!-- StatList0&#45;&gt;StatLabel0 -->
<g id="edge8" class="edge"><title>StatList0&#45;&gt;StatLabel0</title>
<path fill="none" stroke="black" d="M638.502,-372.489C560.421,-363.709 383.501,-343.475 234.945,-324 213.792,-321.227 190.556,-317.958 170.275,-315.031"/>
<polygon fill="black" stroke="black" points="170.672,-311.552 160.273,-313.581 169.667,-318.479 170.672,-311.552"/>
</g>
<!-- StatMove0 -->
<g id="node14" class="node"><title>StatMove0</title>
<ellipse fill="none" stroke="black" cx="293.945" cy="-306" rx="50.0912" ry="18"/>
<text text-anchor="middle" x="293.945" y="-302.3" font-family="Times,serif" font-size="14.00">StatMove0</text>
</g>
<!-- StatList0&#45;&gt;StatMove0 -->
<g id="edge9" class="edge"><title>StatList0&#45;&gt;StatMove0</title>
<path fill="none" stroke="black" d="M640.976,-370.097C572.167,-357.586 426.686,-331.135 347.7,-316.774"/>
<polygon fill="black" stroke="black" points="347.94,-313.26 337.476,-314.915 346.688,-320.147 347.94,-313.26"/>
</g>
<!-- StatMove1 -->
<g id="node15" class="node"><title>StatMove1</title>
<ellipse fill="none" stroke="black" cx="584.945" cy="-306" rx="50.0912" ry="18"/>
<text text-anchor="middle" x="584.945" y="-302.3" font-family="Times,serif" font-size="14.00">StatMove1</text>
</g>
<!-- StatList0&#45;&gt;StatMove1 -->
<g id="edge10" class="edge"><title>StatList0&#45;&gt;StatMove1</title>
<path fill="none" stroke="black" d="M658.549,-361.811C645.459,-352.063 628.264,-339.258 613.786,-328.477"/>
<polygon fill="black" stroke="black" points="615.738,-325.567 605.627,-322.401 611.557,-331.181 615.738,-325.567"/>
</g>
<!-- StatMove3 -->
<g id="node16" class="node"><title>StatMove3</title>
<ellipse fill="none" stroke="black" cx="1026.95" cy="-306" rx="50.0912" ry="18"/>
<text text-anchor="middle" x="1026.95" y="-302.3" font-family="Times,serif" font-size="14.00">StatMove3</text>
</g>
<!-- StatList0&#45;&gt;StatMove3 -->
<g id="edge12" class="edge"><title>StatList0&#45;&gt;StatMove3</title>
<path fill="none" stroke="black" d="M716.518,-369.442C778.749,-356.924 903.375,-331.856 974.331,-317.583"/>
<polygon fill="black" stroke="black" points="975.283,-320.962 984.396,-315.559 973.903,-314.099 975.283,-320.962"/>
</g>
<!-- StatCJump0 -->
<g id="node17" class="node"><title>StatCJump0</title>
<ellipse fill="none" stroke="black" cx="1429.95" cy="-306" rx="53.8905" ry="18"/>
<text text-anchor="middle" x="1429.95" y="-302.3" font-family="Times,serif" font-size="14.00">StatCJump0</text>
</g>
<!-- StatList0&#45;&gt;StatCJump0 -->
<g id="edge13" class="edge"><title>StatList0&#45;&gt;StatCJump0</title>
<path fill="none" stroke="black" d="M719.856,-373.187C844.428,-361.576 1219.63,-326.604 1368.3,-312.746"/>
<polygon fill="black" stroke="black" points="1368.97,-316.198 1378.61,-311.785 1368.33,-309.228 1368.97,-316.198"/>
</g>
<!-- ExpTemp0 -->
<g id="node18" class="node"><title>ExpTemp0</title>
<ellipse fill="none" stroke="black" cx="175.945" cy="-234" rx="50.0912" ry="18"/>
<text text-anchor="middle" x="175.945" y="-230.3" font-family="Times,serif" font-size="14.00">ExpTemp0</text>
</g>
<!-- StatMove0&#45;&gt;ExpTemp0 -->
<g id="edge15" class="edge"><title>StatMove0&#45;&gt;ExpTemp0</title>
<path fill="none" stroke="black" d="M269.209,-290.326C251.823,-280.012 228.363,-266.095 209.322,-254.8"/>
<polygon fill="black" stroke="black" points="211.036,-251.747 200.649,-249.655 207.464,-257.767 211.036,-251.747"/>
</g>
<!-- ExpTemp1 -->
<g id="node20" class="node"><title>ExpTemp1</title>
<ellipse fill="none" stroke="black" cx="293.945" cy="-234" rx="50.0912" ry="18"/>
<text text-anchor="middle" x="293.945" y="-230.3" font-family="Times,serif" font-size="14.00">ExpTemp1</text>
</g>
<!-- StatMove0&#45;&gt;ExpTemp1 -->
<g id="edge16" class="edge"><title>StatMove0&#45;&gt;ExpTemp1</title>
<path fill="none" stroke="black" d="M293.945,-287.697C293.945,-279.983 293.945,-270.712 293.945,-262.112"/>
<polygon fill="black" stroke="black" points="297.445,-262.104 293.945,-252.104 290.445,-262.104 297.445,-262.104"/>
</g>
<!-- StatMove1&#45;&gt;ExpName0 -->
<g id="edge33" class="edge"><title>StatMove1&#45;&gt;ExpName0</title>
<path fill="none" stroke="black" d="M584.945,-287.697C584.945,-279.983 584.945,-270.712 584.945,-262.112"/>
<polygon fill="black" stroke="black" points="588.445,-262.104 584.945,-252.104 581.445,-262.104 588.445,-262.104"/>
</g>
<!-- StatMove1&#45;&gt;ExpTemp2 -->
<g id="edge32" class="edge"><title>StatMove1&#45;&gt;ExpTemp2</title>
<path fill="none" stroke="black" d="M555.082,-291.337C531.072,-280.352 497.15,-264.832 470.988,-252.863"/>
<polygon fill="black" stroke="black" points="472.283,-249.606 461.733,-248.628 469.37,-255.972 472.283,-249.606"/>
</g>
<!-- ExpCall0 -->
<g id="node25" class="node"><title>ExpCall0</title>
<ellipse fill="none" stroke="black" cx="1149.95" cy="-234" rx="44.393" ry="18"/>
<text text-anchor="middle" x="1149.95" y="-230.3" font-family="Times,serif" font-size="14.00">ExpCall0</text>
</g>
<!-- StatMove3&#45;&gt;ExpCall0 -->
<g id="edge29" class="edge"><title>StatMove3&#45;&gt;ExpCall0</title>
<path fill="none" stroke="black" d="M1052.43,-290.496C1070.98,-279.939 1096.28,-265.541 1116.46,-254.055"/>
<polygon fill="black" stroke="black" points="1118.37,-256.996 1125.33,-249.008 1114.91,-250.912 1118.37,-256.996"/>
</g>
<!-- ExpTemp5 -->
<g id="node33" class="node"><title>ExpTemp5</title>
<ellipse fill="none" stroke="black" cx="1026.95" cy="-234" rx="50.0912" ry="18"/>
<text text-anchor="middle" x="1026.95" y="-230.3" font-family="Times,serif" font-size="14.00">ExpTemp5</text>
</g>
<!-- StatMove3&#45;&gt;ExpTemp5 -->
<g id="edge28" class="edge"><title>StatMove3&#45;&gt;ExpTemp5</title>
<path fill="none" stroke="black" d="M1026.95,-287.697C1026.95,-279.983 1026.95,-270.712 1026.95,-262.112"/>
<polygon fill="black" stroke="black" points="1030.45,-262.104 1026.95,-252.104 1023.45,-262.104 1030.45,-262.104"/>
</g>
<!-- StatCJump0&#45;&gt;ExpConst1 -->
<g id="edge37" class="edge"><title>StatCJump0&#45;&gt;ExpConst1</title>
<path fill="none" stroke="black" d="M1443.93,-288.411C1451.28,-279.693 1460.42,-268.845 1468.54,-259.208"/>
<polygon fill="black" stroke="black" points="1471.29,-261.372 1475.06,-251.47 1465.94,-256.861 1471.29,-261.372"/>
</g>
<!-- ExpTemp8 -->
<g id="node36" class="node"><title>ExpTemp8</title>
<ellipse fill="none" stroke="black" cx="1370.95" cy="-234" rx="50.0912" ry="18"/>
<text text-anchor="middle" x="1370.95" y="-230.3" font-family="Times,serif" font-size="14.00">ExpTemp8</text>
</g>
<!-- StatCJump0&#45;&gt;ExpTemp8 -->
<g id="edge36" class="edge"><title>StatCJump0&#45;&gt;ExpTemp8</title>
<path fill="none" stroke="black" d="M1415.96,-288.411C1408.62,-279.693 1399.47,-268.845 1391.35,-259.208"/>
<polygon fill="black" stroke="black" points="1393.95,-256.861 1384.83,-251.47 1388.6,-261.372 1393.95,-256.861"/>
</g>
<!-- NE0 -->
<g id="node38" class="node"><title>NE0</title>
<ellipse fill="none" stroke="black" cx="1275.95" cy="-234" rx="27" ry="18"/>
<text text-anchor="middle" x="1275.95" y="-230.3" font-family="Times,serif" font-size="14.00">NE0</text>
</g>
<!-- StatCJump0&#45;&gt;NE0 -->
<g id="edge35" class="edge"><title>StatCJump0&#45;&gt;NE0</title>
<path fill="none" stroke="black" d="M1398.82,-291.212C1374.98,-280.608 1341.32,-265.53 1311.95,-252 1310.16,-251.176 1308.32,-250.324 1306.47,-249.462"/>
<polygon fill="black" stroke="black" points="1307.77,-246.21 1297.23,-245.135 1304.8,-252.548 1307.77,-246.21"/>
</g>
<!-- Label2: L58 -->
<g id="node39" class="node"><title>Label2: L58</title>
<ellipse fill="none" stroke="black" cx="1610.95" cy="-234" rx="53.8905" ry="18"/>
<text text-anchor="middle" x="1610.95" y="-230.3" font-family="Times,serif" font-size="14.00">Label2: L58</text>
</g>
<!-- StatCJump0&#45;&gt;Label2: L58 -->
<g id="edge38" class="edge"><title>StatCJump0&#45;&gt;Label2: L58</title>
<path fill="none" stroke="black" d="M1463.99,-291.834C1493.32,-280.492 1535.81,-264.057 1567.57,-251.776"/>
<polygon fill="black" stroke="black" points="1568.99,-254.979 1577.05,-248.107 1566.46,-248.45 1568.99,-254.979"/>
</g>
<!-- Label3: L59 -->
<g id="node40" class="node"><title>Label3: L59</title>
<ellipse fill="none" stroke="black" cx="1736.95" cy="-234" rx="53.8905" ry="18"/>
<text text-anchor="middle" x="1736.95" y="-230.3" font-family="Times,serif" font-size="14.00">Label3: L59</text>
</g>
<!-- StatCJump0&#45;&gt;Label3: L59 -->
<g id="edge39" class="edge"><title>StatCJump0&#45;&gt;Label3: L59</title>
<path fill="none" stroke="black" d="M1475.07,-295.898C1524.16,-285.834 1604.87,-268.811 1673.95,-252 1678.09,-250.99 1682.39,-249.91 1686.69,-248.801"/>
<polygon fill="black" stroke="black" points="1687.9,-252.101 1696.69,-246.181 1686.13,-245.329 1687.9,-252.101"/>
</g>
<!-- Temp0: T18 -->
<g id="node19" class="node"><title>Temp0: T18</title>
<ellipse fill="none" stroke="black" cx="148.945" cy="-162" rx="55.4913" ry="18"/>
<text text-anchor="middle" x="148.945" y="-158.3" font-family="Times,serif" font-size="14.00">Temp0: T18</text>
</g>
<!-- ExpTemp0&#45;&gt;Temp0: T18 -->
<g id="edge14" class="edge"><title>ExpTemp0&#45;&gt;Temp0: T18</title>
<path fill="none" stroke="black" d="M169.409,-216.055C166.37,-208.176 162.683,-198.617 159.28,-189.794"/>
<polygon fill="black" stroke="black" points="162.473,-188.346 155.609,-180.275 155.942,-190.865 162.473,-188.346"/>
</g>
<!-- Temp1: T3 -->
<g id="node32" class="node"><title>Temp1: T3</title>
<ellipse fill="none" stroke="black" cx="272.945" cy="-162" rx="50.8918" ry="18"/>
<text text-anchor="middle" x="272.945" y="-158.3" font-family="Times,serif" font-size="14.00">Temp1: T3</text>
</g>
<!-- ExpTemp1&#45;&gt;Temp1: T3 -->
<g id="edge26" class="edge"><title>ExpTemp1&#45;&gt;Temp1: T3</title>
<path fill="none" stroke="black" d="M288.862,-216.055C286.523,-208.261 283.692,-198.822 281.069,-190.079"/>
<polygon fill="black" stroke="black" points="284.354,-188.848 278.128,-180.275 277.649,-190.859 284.354,-188.848"/>
</g>
<!-- ExpTemp7 -->
<g id="node21" class="node"><title>ExpTemp7</title>
<ellipse fill="none" stroke="black" cx="1266.95" cy="-90" rx="50.0912" ry="18"/>
<text text-anchor="middle" x="1266.95" y="-86.3" font-family="Times,serif" font-size="14.00">ExpTemp7</text>
</g>
<!-- Temp7: T17 -->
<g id="node22" class="node"><title>Temp7: T17</title>
<ellipse fill="none" stroke="black" cx="1266.95" cy="-18" rx="55.4913" ry="18"/>
<text text-anchor="middle" x="1266.95" y="-14.3" font-family="Times,serif" font-size="14.00">Temp7: T17</text>
</g>
<!-- ExpTemp7&#45;&gt;Temp7: T17 -->
<g id="edge17" class="edge"><title>ExpTemp7&#45;&gt;Temp7: T17</title>
<path fill="none" stroke="black" d="M1266.95,-71.6966C1266.95,-63.9827 1266.95,-54.7125 1266.95,-46.1124"/>
<polygon fill="black" stroke="black" points="1270.45,-46.1043 1266.95,-36.1043 1263.45,-46.1044 1270.45,-46.1043"/>
</g>
<!-- ExpTemp4 -->
<g id="node23" class="node"><title>ExpTemp4</title>
<ellipse fill="none" stroke="black" cx="800.945" cy="-90" rx="50.0912" ry="18"/>
<text text-anchor="middle" x="800.945" y="-86.3" font-family="Times,serif" font-size="14.00">ExpTemp4</text>
</g>
<!-- Temp4: $fp -->
<g id="node24" class="node"><title>Temp4: $fp</title>
<ellipse fill="none" stroke="black" cx="800.945" cy="-18" rx="52.7911" ry="18"/>
<text text-anchor="middle" x="800.945" y="-14.3" font-family="Times,serif" font-size="14.00">Temp4: $fp</text>
</g>
<!-- ExpTemp4&#45;&gt;Temp4: $fp -->
<g id="edge18" class="edge"><title>ExpTemp4&#45;&gt;Temp4: $fp</title>
<path fill="none" stroke="black" d="M800.945,-71.6966C800.945,-63.9827 800.945,-54.7125 800.945,-46.1124"/>
<polygon fill="black" stroke="black" points="804.445,-46.1043 800.945,-36.1043 797.445,-46.1044 804.445,-46.1043"/>
</g>
<!-- ExpTemp6 -->
<g id="node26" class="node"><title>ExpTemp6</title>
<ellipse fill="none" stroke="black" cx="1149.95" cy="-162" rx="50.0912" ry="18"/>
<text text-anchor="middle" x="1149.95" y="-158.3" font-family="Times,serif" font-size="14.00">ExpTemp6</text>
</g>
<!-- ExpCall0&#45;&gt;ExpTemp6 -->
<g id="edge19" class="edge"><title>ExpCall0&#45;&gt;ExpTemp6</title>
<path fill="none" stroke="black" d="M1149.95,-215.697C1149.95,-207.983 1149.95,-198.712 1149.95,-190.112"/>
<polygon fill="black" stroke="black" points="1153.45,-190.104 1149.95,-180.104 1146.45,-190.104 1153.45,-190.104"/>
</g>
<!-- ExpList0 -->
<g id="node27" class="node"><title>ExpList0</title>
<ellipse fill="none" stroke="black" cx="1260.95" cy="-162" rx="42.7926" ry="18"/>
<text text-anchor="middle" x="1260.95" y="-158.3" font-family="Times,serif" font-size="14.00">ExpList0</text>
</g>
<!-- ExpCall0&#45;&gt;ExpList0 -->
<g id="edge20" class="edge"><title>ExpCall0&#45;&gt;ExpList0</title>
<path fill="none" stroke="black" d="M1172.94,-218.496C1189.17,-208.266 1211.11,-194.428 1229.03,-183.13"/>
<polygon fill="black" stroke="black" points="1231.38,-185.78 1237.98,-177.485 1227.65,-179.859 1231.38,-185.78"/>
</g>
<!-- Temp6: T16 -->
<g id="node35" class="node"><title>Temp6: T16</title>
<ellipse fill="none" stroke="black" cx="1143.95" cy="-90" rx="55.4913" ry="18"/>
<text text-anchor="middle" x="1143.95" y="-86.3" font-family="Times,serif" font-size="14.00">Temp6: T16</text>
</g>
<!-- ExpTemp6&#45;&gt;Temp6: T16 -->
<g id="edge30" class="edge"><title>ExpTemp6&#45;&gt;Temp6: T16</title>
<path fill="none" stroke="black" d="M1148.46,-143.697C1147.8,-135.983 1147.01,-126.712 1146.27,-118.112"/>
<polygon fill="black" stroke="black" points="1149.75,-117.769 1145.41,-108.104 1142.78,-118.367 1149.75,-117.769"/>
</g>
<!-- ExpList0&#45;&gt;ExpTemp7 -->
<g id="edge31" class="edge"><title>ExpList0&#45;&gt;ExpTemp7</title>
<path fill="none" stroke="black" d="M1262.43,-143.697C1263.09,-135.983 1263.88,-126.712 1264.62,-118.112"/>
<polygon fill="black" stroke="black" points="1268.11,-118.367 1265.48,-108.104 1261.14,-117.769 1268.11,-118.367"/>
</g>
<!-- ExpBinary0&#45;&gt;ExpTemp4 -->
<g id="edge21" class="edge"><title>ExpBinary0&#45;&gt;ExpTemp4</title>
<path fill="none" stroke="black" d="M877.974,-145.465C864.164,-135.7 846.163,-122.972 831.036,-112.276"/>
<polygon fill="black" stroke="black" points="832.7,-109.167 822.514,-106.251 828.659,-114.882 832.7,-109.167"/>
</g>
<!-- Plus0 -->
<g id="node29" class="node"><title>Plus0</title>
<ellipse fill="none" stroke="black" cx="899.945" cy="-90" rx="30.5947" ry="18"/>
<text text-anchor="middle" x="899.945" y="-86.3" font-family="Times,serif" font-size="14.00">Plus0</text>
</g>
<!-- ExpBinary0&#45;&gt;Plus0 -->
<g id="edge22" class="edge"><title>ExpBinary0&#45;&gt;Plus0</title>
<path fill="none" stroke="black" d="M899.945,-143.697C899.945,-135.983 899.945,-126.712 899.945,-118.112"/>
<polygon fill="black" stroke="black" points="903.445,-118.104 899.945,-108.104 896.445,-118.104 903.445,-118.104"/>
</g>
<!-- ExpConst0 -->
<g id="node30" class="node"><title>ExpConst0</title>
<ellipse fill="none" stroke="black" cx="998.945" cy="-90" rx="50.0912" ry="18"/>
<text text-anchor="middle" x="998.945" y="-86.3" font-family="Times,serif" font-size="14.00">ExpConst0</text>
</g>
<!-- ExpBinary0&#45;&gt;ExpConst0 -->
<g id="edge23" class="edge"><title>ExpBinary0&#45;&gt;ExpConst0</title>
<path fill="none" stroke="black" d="M921.917,-145.465C935.726,-135.7 953.727,-122.972 968.855,-112.276"/>
<polygon fill="black" stroke="black" points="971.231,-114.882 977.376,-106.251 967.19,-109.167 971.231,-114.882"/>
</g>
<!-- Value0: 16 -->
<g id="node31" class="node"><title>Value0: 16</title>
<ellipse fill="none" stroke="black" cx="998.945" cy="-18" rx="50.0912" ry="18"/>
<text text-anchor="middle" x="998.945" y="-14.3" font-family="Times,serif" font-size="14.00">Value0: 16</text>
</g>
<!-- ExpConst0&#45;&gt;Value0: 16 -->
<g id="edge24" class="edge"><title>ExpConst0&#45;&gt;Value0: 16</title>
<path fill="none" stroke="black" d="M998.945,-71.6966C998.945,-63.9827 998.945,-54.7125 998.945,-46.1124"/>
<polygon fill="black" stroke="black" points="1002.45,-46.1043 998.945,-36.1043 995.445,-46.1044 1002.45,-46.1043"/>
</g>
<!-- Temp5: T18 -->
<g id="node34" class="node"><title>Temp5: T18</title>
<ellipse fill="none" stroke="black" cx="1026.95" cy="-162" rx="55.4913" ry="18"/>
<text text-anchor="middle" x="1026.95" y="-158.3" font-family="Times,serif" font-size="14.00">Temp5: T18</text>
</g>
<!-- ExpTemp5&#45;&gt;Temp5: T18 -->
<g id="edge27" class="edge"><title>ExpTemp5&#45;&gt;Temp5: T18</title>
<path fill="none" stroke="black" d="M1026.95,-215.697C1026.95,-207.983 1026.95,-198.712 1026.95,-190.112"/>
<polygon fill="black" stroke="black" points="1030.45,-190.104 1026.95,-180.104 1023.45,-190.104 1030.45,-190.104"/>
</g>
<!-- Temp8: T3 -->
<g id="node37" class="node"><title>Temp8: T3</title>
<ellipse fill="none" stroke="black" cx="1372.95" cy="-162" rx="50.8918" ry="18"/>
<text text-anchor="middle" x="1372.95" y="-158.3" font-family="Times,serif" font-size="14.00">Temp8: T3</text>
</g>
<!-- ExpTemp8&#45;&gt;Temp8: T3 -->
<g id="edge34" class="edge"><title>ExpTemp8&#45;&gt;Temp8: T3</title>
<path fill="none" stroke="black" d="M1371.44,-215.697C1371.66,-207.983 1371.92,-198.712 1372.17,-190.112"/>
<polygon fill="black" stroke="black" points="1375.67,-190.2 1372.46,-180.104 1368.67,-190 1375.67,-190.2"/>
</g>
</g>
</svg>
