<?xml version="1.0" encoding="UTF-8" standalone="no"?>
<!DOCTYPE svg PUBLIC "-//W3C//DTD SVG 1.1//EN"
 "http://www.w3.org/Graphics/SVG/1.1/DTD/svg11.dtd">
<!-- Generated by graphviz version 2.38.0 (20140413.2041)
 -->
<!-- Title: %3 Pages: 1 -->
<svg width="2288pt" height="404pt"
 viewBox="0.00 0.00 2287.89 404.00" xmlns="http://www.w3.org/2000/svg" xmlns:xlink="http://www.w3.org/1999/xlink">
<g id="graph0" class="graph" transform="scale(1 1) rotate(0) translate(4 400)">
<title>%3</title>
<polygon fill="white" stroke="none" points="-4,4 -4,-400 2283.89,-400 2283.89,4 -4,4"/>
<!-- ExpMem3 -->
<g id="node1" class="node"><title>ExpMem3</title>
<ellipse fill="none" stroke="black" cx="1978.95" cy="-234" rx="48.9926" ry="18"/>
<text text-anchor="middle" x="1978.95" y="-230.3" font-family="Times,serif" font-size="14.00">ExpMem3</text>
</g>
<!-- ExpBinary3 -->
<g id="node2" class="node"><title>ExpBinary3</title>
<ellipse fill="none" stroke="black" cx="2022.95" cy="-162" rx="53.0913" ry="18"/>
<text text-anchor="middle" x="2022.95" y="-158.3" font-family="Times,serif" font-size="14.00">ExpBinary3</text>
</g>
<!-- ExpMem3&#45;&gt;ExpBinary3 -->
<g id="edge1" class="edge"><title>ExpMem3&#45;&gt;ExpBinary3</title>
<path fill="none" stroke="black" d="M1989.37,-216.411C1994.61,-208.077 2001.07,-197.797 2006.92,-188.488"/>
<polygon fill="black" stroke="black" points="2009.93,-190.285 2012.29,-179.956 2004,-186.56 2009.93,-190.285"/>
</g>
<!-- ExpConst3 -->
<g id="node3" class="node"><title>ExpConst3</title>
<ellipse fill="none" stroke="black" cx="2198.95" cy="-90" rx="50.0912" ry="18"/>
<text text-anchor="middle" x="2198.95" y="-86.3" font-family="Times,serif" font-size="14.00">ExpConst3</text>
</g>
<!-- ExpBinary3&#45;&gt;ExpConst3 -->
<g id="edge5" class="edge"><title>ExpBinary3&#45;&gt;ExpConst3</title>
<path fill="none" stroke="black" d="M2056.05,-147.834C2084.62,-136.469 2126.05,-119.992 2156.95,-107.702"/>
<polygon fill="black" stroke="black" points="2158.59,-110.819 2166.58,-103.871 2156,-104.314 2158.59,-110.819"/>
</g>
<!-- ExpTemp13 -->
<g id="node5" class="node"><title>ExpTemp13</title>
<ellipse fill="none" stroke="black" cx="1996.95" cy="-90" rx="54.6905" ry="18"/>
<text text-anchor="middle" x="1996.95" y="-86.3" font-family="Times,serif" font-size="14.00">ExpTemp13</text>
</g>
<!-- ExpBinary3&#45;&gt;ExpTemp13 -->
<g id="edge3" class="edge"><title>ExpBinary3&#45;&gt;ExpTemp13</title>
<path fill="none" stroke="black" d="M2016.65,-144.055C2013.72,-136.176 2010.17,-126.617 2006.9,-117.794"/>
<polygon fill="black" stroke="black" points="2010.12,-116.431 2003.36,-108.275 2003.56,-118.868 2010.12,-116.431"/>
</g>
<!-- Plus3 -->
<g id="node6" class="node"><title>Plus3</title>
<ellipse fill="none" stroke="black" cx="2099.95" cy="-90" rx="30.5947" ry="18"/>
<text text-anchor="middle" x="2099.95" y="-86.3" font-family="Times,serif" font-size="14.00">Plus3</text>
</g>
<!-- ExpBinary3&#45;&gt;Plus3 -->
<g id="edge4" class="edge"><title>ExpBinary3&#45;&gt;Plus3</title>
<path fill="none" stroke="black" d="M2040.8,-144.765C2051.42,-135.117 2065,-122.769 2076.47,-112.339"/>
<polygon fill="black" stroke="black" points="2078.97,-114.799 2084.01,-105.483 2074.26,-109.62 2078.97,-114.799"/>
</g>
<!-- Value3: 12 -->
<g id="node4" class="node"><title>Value3: 12</title>
<ellipse fill="none" stroke="black" cx="2198.95" cy="-18" rx="50.0912" ry="18"/>
<text text-anchor="middle" x="2198.95" y="-14.3" font-family="Times,serif" font-size="14.00">Value3: 12</text>
</g>
<!-- ExpConst3&#45;&gt;Value3: 12 -->
<g id="edge2" class="edge"><title>ExpConst3&#45;&gt;Value3: 12</title>
<path fill="none" stroke="black" d="M2198.95,-71.6966C2198.95,-63.9827 2198.95,-54.7125 2198.95,-46.1124"/>
<polygon fill="black" stroke="black" points="2202.45,-46.1043 2198.95,-36.1043 2195.45,-46.1044 2202.45,-46.1043"/>
</g>
<!-- Temp13: $fp -->
<g id="node7" class="node"><title>Temp13: $fp</title>
<ellipse fill="none" stroke="black" cx="1996.95" cy="-18" rx="57.3905" ry="18"/>
<text text-anchor="middle" x="1996.95" y="-14.3" font-family="Times,serif" font-size="14.00">Temp13: $fp</text>
</g>
<!-- ExpTemp13&#45;&gt;Temp13: $fp -->
<g id="edge6" class="edge"><title>ExpTemp13&#45;&gt;Temp13: $fp</title>
<path fill="none" stroke="black" d="M1996.95,-71.6966C1996.95,-63.9827 1996.95,-54.7125 1996.95,-46.1124"/>
<polygon fill="black" stroke="black" points="2000.45,-46.1043 1996.95,-36.1043 1993.45,-46.1044 2000.45,-46.1043"/>
</g>
<!-- ExpConst2 -->
<g id="node8" class="node"><title>ExpConst2</title>
<ellipse fill="none" stroke="black" cx="1873.95" cy="-90" rx="50.0912" ry="18"/>
<text text-anchor="middle" x="1873.95" y="-86.3" font-family="Times,serif" font-size="14.00">ExpConst2</text>
</g>
<!-- Value2: 4 -->
<g id="node9" class="node"><title>Value2: 4</title>
<ellipse fill="none" stroke="black" cx="1873.95" cy="-18" rx="45.4919" ry="18"/>
<text text-anchor="middle" x="1873.95" y="-14.3" font-family="Times,serif" font-size="14.00">Value2: 4</text>
</g>
<!-- ExpConst2&#45;&gt;Value2: 4 -->
<g id="edge7" class="edge"><title>ExpConst2&#45;&gt;Value2: 4</title>
<path fill="none" stroke="black" d="M1873.95,-71.6966C1873.95,-63.9827 1873.95,-54.7125 1873.95,-46.1124"/>
<polygon fill="black" stroke="black" points="1877.45,-46.1043 1873.95,-36.1043 1870.45,-46.1044 1877.45,-46.1043"/>
</g>
<!-- ExpBinary2 -->
<g id="node10" class="node"><title>ExpBinary2</title>
<ellipse fill="none" stroke="black" cx="1847.95" cy="-162" rx="53.0913" ry="18"/>
<text text-anchor="middle" x="1847.95" y="-158.3" font-family="Times,serif" font-size="14.00">ExpBinary2</text>
</g>
<!-- ExpBinary2&#45;&gt;ExpConst2 -->
<g id="edge10" class="edge"><title>ExpBinary2&#45;&gt;ExpConst2</title>
<path fill="none" stroke="black" d="M1854.24,-144.055C1857.17,-136.176 1860.72,-126.617 1863.99,-117.794"/>
<polygon fill="black" stroke="black" points="1867.33,-118.868 1867.53,-108.275 1860.77,-116.431 1867.33,-118.868"/>
</g>
<!-- ExpTemp12 -->
<g id="node11" class="node"><title>ExpTemp12</title>
<ellipse fill="none" stroke="black" cx="1671.95" cy="-90" rx="54.6905" ry="18"/>
<text text-anchor="middle" x="1671.95" y="-86.3" font-family="Times,serif" font-size="14.00">ExpTemp12</text>
</g>
<!-- ExpBinary2&#45;&gt;ExpTemp12 -->
<g id="edge8" class="edge"><title>ExpBinary2&#45;&gt;ExpTemp12</title>
<path fill="none" stroke="black" d="M1814.84,-147.834C1786.63,-136.612 1745.88,-120.406 1715.11,-108.168"/>
<polygon fill="black" stroke="black" points="1716.08,-104.789 1705.5,-104.345 1713.5,-111.293 1716.08,-104.789"/>
</g>
<!-- Plus2 -->
<g id="node12" class="node"><title>Plus2</title>
<ellipse fill="none" stroke="black" cx="1774.95" cy="-90" rx="30.5947" ry="18"/>
<text text-anchor="middle" x="1774.95" y="-86.3" font-family="Times,serif" font-size="14.00">Plus2</text>
</g>
<!-- ExpBinary2&#45;&gt;Plus2 -->
<g id="edge9" class="edge"><title>ExpBinary2&#45;&gt;Plus2</title>
<path fill="none" stroke="black" d="M1831.01,-144.765C1821.12,-135.275 1808.5,-123.172 1797.73,-112.853"/>
<polygon fill="black" stroke="black" points="1799.93,-110.112 1790.29,-105.717 1795.09,-115.164 1799.93,-110.112"/>
</g>
<!-- Temp12: $fp -->
<g id="node51" class="node"><title>Temp12: $fp</title>
<ellipse fill="none" stroke="black" cx="1671.95" cy="-18" rx="57.3905" ry="18"/>
<text text-anchor="middle" x="1671.95" y="-14.3" font-family="Times,serif" font-size="14.00">Temp12: $fp</text>
</g>
<!-- ExpTemp12&#45;&gt;Temp12: $fp -->
<g id="edge46" class="edge"><title>ExpTemp12&#45;&gt;Temp12: $fp</title>
<path fill="none" stroke="black" d="M1671.95,-71.6966C1671.95,-63.9827 1671.95,-54.7125 1671.95,-46.1124"/>
<polygon fill="black" stroke="black" points="1675.45,-46.1043 1671.95,-36.1043 1668.45,-46.1044 1675.45,-46.1043"/>
</g>
<!-- ExpList0 -->
<g id="node13" class="node"><title>ExpList0</title>
<ellipse fill="none" stroke="black" cx="1443.95" cy="-162" rx="42.7926" ry="18"/>
<text text-anchor="middle" x="1443.95" y="-158.3" font-family="Times,serif" font-size="14.00">ExpList0</text>
</g>
<!-- ExpTemp9 -->
<g id="node14" class="node"><title>ExpTemp9</title>
<ellipse fill="none" stroke="black" cx="1447.95" cy="-90" rx="50.0912" ry="18"/>
<text text-anchor="middle" x="1447.95" y="-86.3" font-family="Times,serif" font-size="14.00">ExpTemp9</text>
</g>
<!-- ExpList0&#45;&gt;ExpTemp9 -->
<g id="edge11" class="edge"><title>ExpList0&#45;&gt;ExpTemp9</title>
<path fill="none" stroke="black" d="M1444.93,-143.697C1445.37,-135.983 1445.9,-126.712 1446.4,-118.112"/>
<polygon fill="black" stroke="black" points="1449.89,-118.288 1446.97,-108.104 1442.9,-117.888 1449.89,-118.288"/>
</g>
<!-- Temp9: T6 -->
<g id="node15" class="node"><title>Temp9: T6</title>
<ellipse fill="none" stroke="black" cx="1447.95" cy="-18" rx="50.8918" ry="18"/>
<text text-anchor="middle" x="1447.95" y="-14.3" font-family="Times,serif" font-size="14.00">Temp9: T6</text>
</g>
<!-- ExpTemp9&#45;&gt;Temp9: T6 -->
<g id="edge12" class="edge"><title>ExpTemp9&#45;&gt;Temp9: T6</title>
<path fill="none" stroke="black" d="M1447.95,-71.6966C1447.95,-63.9827 1447.95,-54.7125 1447.95,-46.1124"/>
<polygon fill="black" stroke="black" points="1451.45,-46.1043 1447.95,-36.1043 1444.45,-46.1044 1451.45,-46.1043"/>
</g>
<!-- ExpMem2 -->
<g id="node16" class="node"><title>ExpMem2</title>
<ellipse fill="none" stroke="black" cx="1863.95" cy="-234" rx="48.9926" ry="18"/>
<text text-anchor="middle" x="1863.95" y="-230.3" font-family="Times,serif" font-size="14.00">ExpMem2</text>
</g>
<!-- ExpMem2&#45;&gt;ExpBinary2 -->
<g id="edge13" class="edge"><title>ExpMem2&#45;&gt;ExpBinary2</title>
<path fill="none" stroke="black" d="M1860.07,-216.055C1858.29,-208.261 1856.13,-198.822 1854.13,-190.079"/>
<polygon fill="black" stroke="black" points="1857.53,-189.244 1851.89,-180.275 1850.71,-190.804 1857.53,-189.244"/>
</g>
<!-- ExpCall0 -->
<g id="node17" class="node"><title>ExpCall0</title>
<ellipse fill="none" stroke="black" cx="1332.95" cy="-234" rx="44.393" ry="18"/>
<text text-anchor="middle" x="1332.95" y="-230.3" font-family="Times,serif" font-size="14.00">ExpCall0</text>
</g>
<!-- ExpCall0&#45;&gt;ExpList0 -->
<g id="edge15" class="edge"><title>ExpCall0&#45;&gt;ExpList0</title>
<path fill="none" stroke="black" d="M1355.94,-218.496C1372.17,-208.266 1394.11,-194.428 1412.03,-183.13"/>
<polygon fill="black" stroke="black" points="1414.38,-185.78 1420.98,-177.485 1410.65,-179.859 1414.38,-185.78"/>
</g>
<!-- ExpTemp8 -->
<g id="node18" class="node"><title>ExpTemp8</title>
<ellipse fill="none" stroke="black" cx="1332.95" cy="-162" rx="50.0912" ry="18"/>
<text text-anchor="middle" x="1332.95" y="-158.3" font-family="Times,serif" font-size="14.00">ExpTemp8</text>
</g>
<!-- ExpCall0&#45;&gt;ExpTemp8 -->
<g id="edge14" class="edge"><title>ExpCall0&#45;&gt;ExpTemp8</title>
<path fill="none" stroke="black" d="M1332.95,-215.697C1332.95,-207.983 1332.95,-198.712 1332.95,-190.112"/>
<polygon fill="black" stroke="black" points="1336.45,-190.104 1332.95,-180.104 1329.45,-190.104 1336.45,-190.104"/>
</g>
<!-- Temp8: T5 -->
<g id="node23" class="node"><title>Temp8: T5</title>
<ellipse fill="none" stroke="black" cx="1328.95" cy="-90" rx="50.8918" ry="18"/>
<text text-anchor="middle" x="1328.95" y="-86.3" font-family="Times,serif" font-size="14.00">Temp8: T5</text>
</g>
<!-- ExpTemp8&#45;&gt;Temp8: T5 -->
<g id="edge21" class="edge"><title>ExpTemp8&#45;&gt;Temp8: T5</title>
<path fill="none" stroke="black" d="M1331.96,-143.697C1331.52,-135.983 1330.99,-126.712 1330.49,-118.112"/>
<polygon fill="black" stroke="black" points="1333.99,-117.888 1329.92,-108.104 1327,-118.288 1333.99,-117.888"/>
</g>
<!-- StatCJump0 -->
<g id="node19" class="node"><title>StatCJump0</title>
<ellipse fill="none" stroke="black" cx="1920.95" cy="-306" rx="53.8905" ry="18"/>
<text text-anchor="middle" x="1920.95" y="-302.3" font-family="Times,serif" font-size="14.00">StatCJump0</text>
</g>
<!-- StatCJump0&#45;&gt;ExpMem3 -->
<g id="edge18" class="edge"><title>StatCJump0&#45;&gt;ExpMem3</title>
<path fill="none" stroke="black" d="M1934.69,-288.411C1941.91,-279.693 1950.9,-268.845 1958.89,-259.208"/>
<polygon fill="black" stroke="black" points="1961.61,-261.403 1965.3,-251.47 1956.22,-256.937 1961.61,-261.403"/>
</g>
<!-- StatCJump0&#45;&gt;ExpMem2 -->
<g id="edge17" class="edge"><title>StatCJump0&#45;&gt;ExpMem2</title>
<path fill="none" stroke="black" d="M1907.44,-288.411C1900.41,-279.781 1891.68,-269.062 1883.89,-259.497"/>
<polygon fill="black" stroke="black" points="1886.38,-257.014 1877.36,-251.47 1880.96,-261.434 1886.38,-257.014"/>
</g>
<!-- LT0 -->
<g id="node20" class="node"><title>LT0</title>
<ellipse fill="none" stroke="black" cx="1769.95" cy="-234" rx="27" ry="18"/>
<text text-anchor="middle" x="1769.95" y="-230.3" font-family="Times,serif" font-size="14.00">LT0</text>
</g>
<!-- StatCJump0&#45;&gt;LT0 -->
<g id="edge16" class="edge"><title>StatCJump0&#45;&gt;LT0</title>
<path fill="none" stroke="black" d="M1890.16,-290.906C1866.98,-280.271 1834.43,-265.291 1805.95,-252 1804.16,-251.167 1802.33,-250.309 1800.48,-249.442"/>
<polygon fill="black" stroke="black" points="1801.79,-246.191 1791.25,-245.101 1798.81,-252.525 1801.79,-246.191"/>
</g>
<!-- Label2: L64 -->
<g id="node21" class="node"><title>Label2: L64</title>
<ellipse fill="none" stroke="black" cx="2099.95" cy="-234" rx="53.8905" ry="18"/>
<text text-anchor="middle" x="2099.95" y="-230.3" font-family="Times,serif" font-size="14.00">Label2: L64</text>
</g>
<!-- StatCJump0&#45;&gt;Label2: L64 -->
<g id="edge19" class="edge"><title>StatCJump0&#45;&gt;Label2: L64</title>
<path fill="none" stroke="black" d="M1954.61,-291.834C1983.62,-280.492 2025.64,-264.057 2057.05,-251.776"/>
<polygon fill="black" stroke="black" points="2058.39,-255.009 2066.43,-248.107 2055.84,-248.49 2058.39,-255.009"/>
</g>
<!-- Label3: L65 -->
<g id="node22" class="node"><title>Label3: L65</title>
<ellipse fill="none" stroke="black" cx="2225.95" cy="-234" rx="53.8905" ry="18"/>
<text text-anchor="middle" x="2225.95" y="-230.3" font-family="Times,serif" font-size="14.00">Label3: L65</text>
</g>
<!-- StatCJump0&#45;&gt;Label3: L65 -->
<g id="edge20" class="edge"><title>StatCJump0&#45;&gt;Label3: L65</title>
<path fill="none" stroke="black" d="M1965.7,-295.87C2014.38,-285.782 2094.42,-268.738 2162.95,-252 2167.09,-250.987 2171.38,-249.904 2175.69,-248.793"/>
<polygon fill="black" stroke="black" points="2176.9,-252.092 2185.69,-246.171 2175.13,-245.321 2176.9,-252.092"/>
</g>
<!-- StatMove1 -->
<g id="node24" class="node"><title>StatMove1</title>
<ellipse fill="none" stroke="black" cx="530.945" cy="-306" rx="50.0912" ry="18"/>
<text text-anchor="middle" x="530.945" y="-302.3" font-family="Times,serif" font-size="14.00">StatMove1</text>
</g>
<!-- ExpTemp2 -->
<g id="node25" class="node"><title>ExpTemp2</title>
<ellipse fill="none" stroke="black" cx="412.945" cy="-234" rx="50.0912" ry="18"/>
<text text-anchor="middle" x="412.945" y="-230.3" font-family="Times,serif" font-size="14.00">ExpTemp2</text>
</g>
<!-- StatMove1&#45;&gt;ExpTemp2 -->
<g id="edge22" class="edge"><title>StatMove1&#45;&gt;ExpTemp2</title>
<path fill="none" stroke="black" d="M506.209,-290.326C488.823,-280.012 465.363,-266.095 446.322,-254.8"/>
<polygon fill="black" stroke="black" points="448.036,-251.747 437.649,-249.655 444.464,-257.767 448.036,-251.747"/>
</g>
<!-- ExpTemp3 -->
<g id="node26" class="node"><title>ExpTemp3</title>
<ellipse fill="none" stroke="black" cx="530.945" cy="-234" rx="50.0912" ry="18"/>
<text text-anchor="middle" x="530.945" y="-230.3" font-family="Times,serif" font-size="14.00">ExpTemp3</text>
</g>
<!-- StatMove1&#45;&gt;ExpTemp3 -->
<g id="edge23" class="edge"><title>StatMove1&#45;&gt;ExpTemp3</title>
<path fill="none" stroke="black" d="M530.945,-287.697C530.945,-279.983 530.945,-270.712 530.945,-262.112"/>
<polygon fill="black" stroke="black" points="534.445,-262.104 530.945,-252.104 527.445,-262.104 534.445,-262.104"/>
</g>
<!-- Temp2: T7 -->
<g id="node36" class="node"><title>Temp2: T7</title>
<ellipse fill="none" stroke="black" cx="411.945" cy="-162" rx="50.8918" ry="18"/>
<text text-anchor="middle" x="411.945" y="-158.3" font-family="Times,serif" font-size="14.00">Temp2: T7</text>
</g>
<!-- ExpTemp2&#45;&gt;Temp2: T7 -->
<g id="edge31" class="edge"><title>ExpTemp2&#45;&gt;Temp2: T7</title>
<path fill="none" stroke="black" d="M412.698,-215.697C412.588,-207.983 412.455,-198.712 412.333,-190.112"/>
<polygon fill="black" stroke="black" points="415.832,-190.053 412.19,-180.104 408.833,-190.153 415.832,-190.053"/>
</g>
<!-- Temp3: T0 -->
<g id="node56" class="node"><title>Temp3: T0</title>
<ellipse fill="none" stroke="black" cx="530.945" cy="-162" rx="50.8918" ry="18"/>
<text text-anchor="middle" x="530.945" y="-158.3" font-family="Times,serif" font-size="14.00">Temp3: T0</text>
</g>
<!-- ExpTemp3&#45;&gt;Temp3: T0 -->
<g id="edge52" class="edge"><title>ExpTemp3&#45;&gt;Temp3: T0</title>
<path fill="none" stroke="black" d="M530.945,-215.697C530.945,-207.983 530.945,-198.712 530.945,-190.112"/>
<polygon fill="black" stroke="black" points="534.445,-190.104 530.945,-180.104 527.445,-190.104 534.445,-190.104"/>
</g>
<!-- StatMove5 -->
<g id="node27" class="node"><title>StatMove5</title>
<ellipse fill="none" stroke="black" cx="1542.95" cy="-306" rx="50.0912" ry="18"/>
<text text-anchor="middle" x="1542.95" y="-302.3" font-family="Times,serif" font-size="14.00">StatMove5</text>
</g>
<!-- ExpTemp10 -->
<g id="node28" class="node"><title>ExpTemp10</title>
<ellipse fill="none" stroke="black" cx="1542.95" cy="-234" rx="54.6905" ry="18"/>
<text text-anchor="middle" x="1542.95" y="-230.3" font-family="Times,serif" font-size="14.00">ExpTemp10</text>
</g>
<!-- StatMove5&#45;&gt;ExpTemp10 -->
<g id="edge24" class="edge"><title>StatMove5&#45;&gt;ExpTemp10</title>
<path fill="none" stroke="black" d="M1542.95,-287.697C1542.95,-279.983 1542.95,-270.712 1542.95,-262.112"/>
<polygon fill="black" stroke="black" points="1546.45,-262.104 1542.95,-252.104 1539.45,-262.104 1546.45,-262.104"/>
</g>
<!-- ExpTemp11 -->
<g id="node29" class="node"><title>ExpTemp11</title>
<ellipse fill="none" stroke="black" cx="1669.95" cy="-234" rx="54.6905" ry="18"/>
<text text-anchor="middle" x="1669.95" y="-230.3" font-family="Times,serif" font-size="14.00">ExpTemp11</text>
</g>
<!-- StatMove5&#45;&gt;ExpTemp11 -->
<g id="edge25" class="edge"><title>StatMove5&#45;&gt;ExpTemp11</title>
<path fill="none" stroke="black" d="M1569.26,-290.496C1588.12,-280.101 1613.74,-265.981 1634.41,-254.585"/>
<polygon fill="black" stroke="black" points="1636.16,-257.619 1643.23,-249.726 1632.78,-251.488 1636.16,-257.619"/>
</g>
<!-- Temp10: T8 -->
<g id="node35" class="node"><title>Temp10: T8</title>
<ellipse fill="none" stroke="black" cx="1559.95" cy="-162" rx="55.4913" ry="18"/>
<text text-anchor="middle" x="1559.95" y="-158.3" font-family="Times,serif" font-size="14.00">Temp10: T8</text>
</g>
<!-- ExpTemp10&#45;&gt;Temp10: T8 -->
<g id="edge30" class="edge"><title>ExpTemp10&#45;&gt;Temp10: T8</title>
<path fill="none" stroke="black" d="M1547.15,-215.697C1549.04,-207.898 1551.32,-198.509 1553.43,-189.829"/>
<polygon fill="black" stroke="black" points="1556.83,-190.648 1555.79,-180.104 1550.03,-188.996 1556.83,-190.648"/>
</g>
<!-- Temp11: T0 -->
<g id="node64" class="node"><title>Temp11: T0</title>
<ellipse fill="none" stroke="black" cx="1687.95" cy="-162" rx="55.4913" ry="18"/>
<text text-anchor="middle" x="1687.95" y="-158.3" font-family="Times,serif" font-size="14.00">Temp11: T0</text>
</g>
<!-- ExpTemp11&#45;&gt;Temp11: T0 -->
<g id="edge58" class="edge"><title>ExpTemp11&#45;&gt;Temp11: T0</title>
<path fill="none" stroke="black" d="M1674.3,-216.055C1676.31,-208.261 1678.73,-198.822 1680.98,-190.079"/>
<polygon fill="black" stroke="black" points="1684.4,-190.832 1683.5,-180.275 1677.62,-189.089 1684.4,-190.832"/>
</g>
<!-- ExpConst1 -->
<g id="node30" class="node"><title>ExpConst1</title>
<ellipse fill="none" stroke="black" cx="1190.95" cy="-90" rx="50.0912" ry="18"/>
<text text-anchor="middle" x="1190.95" y="-86.3" font-family="Times,serif" font-size="14.00">ExpConst1</text>
</g>
<!-- Value1: 16 -->
<g id="node31" class="node"><title>Value1: 16</title>
<ellipse fill="none" stroke="black" cx="1190.95" cy="-18" rx="50.0912" ry="18"/>
<text text-anchor="middle" x="1190.95" y="-14.3" font-family="Times,serif" font-size="14.00">Value1: 16</text>
</g>
<!-- ExpConst1&#45;&gt;Value1: 16 -->
<g id="edge26" class="edge"><title>ExpConst1&#45;&gt;Value1: 16</title>
<path fill="none" stroke="black" d="M1190.95,-71.6966C1190.95,-63.9827 1190.95,-54.7125 1190.95,-46.1124"/>
<polygon fill="black" stroke="black" points="1194.45,-46.1043 1190.95,-36.1043 1187.45,-46.1044 1194.45,-46.1043"/>
</g>
<!-- ExpBinary1 -->
<g id="node32" class="node"><title>ExpBinary1</title>
<ellipse fill="none" stroke="black" cx="1091.95" cy="-162" rx="53.0913" ry="18"/>
<text text-anchor="middle" x="1091.95" y="-158.3" font-family="Times,serif" font-size="14.00">ExpBinary1</text>
</g>
<!-- ExpBinary1&#45;&gt;ExpConst1 -->
<g id="edge29" class="edge"><title>ExpBinary1&#45;&gt;ExpConst1</title>
<path fill="none" stroke="black" d="M1113.92,-145.465C1127.73,-135.7 1145.73,-122.972 1160.85,-112.276"/>
<polygon fill="black" stroke="black" points="1163.23,-114.882 1169.38,-106.251 1159.19,-109.167 1163.23,-114.882"/>
</g>
<!-- ExpTemp6 -->
<g id="node33" class="node"><title>ExpTemp6</title>
<ellipse fill="none" stroke="black" cx="992.945" cy="-90" rx="50.0912" ry="18"/>
<text text-anchor="middle" x="992.945" y="-86.3" font-family="Times,serif" font-size="14.00">ExpTemp6</text>
</g>
<!-- ExpBinary1&#45;&gt;ExpTemp6 -->
<g id="edge27" class="edge"><title>ExpBinary1&#45;&gt;ExpTemp6</title>
<path fill="none" stroke="black" d="M1069.97,-145.465C1056.16,-135.7 1038.16,-122.972 1023.04,-112.276"/>
<polygon fill="black" stroke="black" points="1024.7,-109.167 1014.51,-106.251 1020.66,-114.882 1024.7,-109.167"/>
</g>
<!-- Plus1 -->
<g id="node34" class="node"><title>Plus1</title>
<ellipse fill="none" stroke="black" cx="1091.95" cy="-90" rx="30.5947" ry="18"/>
<text text-anchor="middle" x="1091.95" y="-86.3" font-family="Times,serif" font-size="14.00">Plus1</text>
</g>
<!-- ExpBinary1&#45;&gt;Plus1 -->
<g id="edge28" class="edge"><title>ExpBinary1&#45;&gt;Plus1</title>
<path fill="none" stroke="black" d="M1091.95,-143.697C1091.95,-135.983 1091.95,-126.712 1091.95,-118.112"/>
<polygon fill="black" stroke="black" points="1095.45,-118.104 1091.95,-108.104 1088.45,-118.104 1095.45,-118.104"/>
</g>
<!-- Temp6: $fp -->
<g id="node65" class="node"><title>Temp6: $fp</title>
<ellipse fill="none" stroke="black" cx="992.945" cy="-18" rx="52.7911" ry="18"/>
<text text-anchor="middle" x="992.945" y="-14.3" font-family="Times,serif" font-size="14.00">Temp6: $fp</text>
</g>
<!-- ExpTemp6&#45;&gt;Temp6: $fp -->
<g id="edge61" class="edge"><title>ExpTemp6&#45;&gt;Temp6: $fp</title>
<path fill="none" stroke="black" d="M992.945,-71.6966C992.945,-63.9827 992.945,-54.7125 992.945,-46.1124"/>
<polygon fill="black" stroke="black" points="996.445,-46.1043 992.945,-36.1043 989.445,-46.1044 996.445,-46.1043"/>
</g>
<!-- StatMove2 -->
<g id="node37" class="node"><title>StatMove2</title>
<ellipse fill="none" stroke="black" cx="809.945" cy="-306" rx="50.0912" ry="18"/>
<text text-anchor="middle" x="809.945" y="-302.3" font-family="Times,serif" font-size="14.00">StatMove2</text>
</g>
<!-- ExpTemp4 -->
<g id="node38" class="node"><title>ExpTemp4</title>
<ellipse fill="none" stroke="black" cx="669.945" cy="-234" rx="50.0912" ry="18"/>
<text text-anchor="middle" x="669.945" y="-230.3" font-family="Times,serif" font-size="14.00">ExpTemp4</text>
</g>
<!-- StatMove2&#45;&gt;ExpTemp4 -->
<g id="edge32" class="edge"><title>StatMove2&#45;&gt;ExpTemp4</title>
<path fill="none" stroke="black" d="M781.951,-291.003C760.394,-280.225 730.405,-265.23 706.882,-253.468"/>
<polygon fill="black" stroke="black" points="708.401,-250.315 697.891,-248.973 705.27,-256.576 708.401,-250.315"/>
</g>
<!-- ExpName0 -->
<g id="node39" class="node"><title>ExpName0</title>
<ellipse fill="none" stroke="black" cx="809.945" cy="-234" rx="50.8918" ry="18"/>
<text text-anchor="middle" x="809.945" y="-230.3" font-family="Times,serif" font-size="14.00">ExpName0</text>
</g>
<!-- StatMove2&#45;&gt;ExpName0 -->
<g id="edge33" class="edge"><title>StatMove2&#45;&gt;ExpName0</title>
<path fill="none" stroke="black" d="M809.945,-287.697C809.945,-279.983 809.945,-270.712 809.945,-262.112"/>
<polygon fill="black" stroke="black" points="813.445,-262.104 809.945,-252.104 806.445,-262.104 813.445,-262.104"/>
</g>
<!-- Temp4: T5 -->
<g id="node58" class="node"><title>Temp4: T5</title>
<ellipse fill="none" stroke="black" cx="649.945" cy="-162" rx="50.8918" ry="18"/>
<text text-anchor="middle" x="649.945" y="-158.3" font-family="Times,serif" font-size="14.00">Temp4: T5</text>
</g>
<!-- ExpTemp4&#45;&gt;Temp4: T5 -->
<g id="edge54" class="edge"><title>ExpTemp4&#45;&gt;Temp4: T5</title>
<path fill="none" stroke="black" d="M665.104,-216.055C662.877,-208.261 660.18,-198.822 657.682,-190.079"/>
<polygon fill="black" stroke="black" points="660.994,-188.929 654.881,-180.275 654.263,-190.852 660.994,-188.929"/>
</g>
<!-- Label1: Tree@GetKey -->
<g id="node57" class="node"><title>Label1: Tree@GetKey</title>
<ellipse fill="none" stroke="black" cx="809.945" cy="-162" rx="91.784" ry="18"/>
<text text-anchor="middle" x="809.945" y="-158.3" font-family="Times,serif" font-size="14.00">Label1: Tree@GetKey</text>
</g>
<!-- ExpName0&#45;&gt;Label1: Tree@GetKey -->
<g id="edge53" class="edge"><title>ExpName0&#45;&gt;Label1: Tree@GetKey</title>
<path fill="none" stroke="black" d="M809.945,-215.697C809.945,-207.983 809.945,-198.712 809.945,-190.112"/>
<polygon fill="black" stroke="black" points="813.445,-190.104 809.945,-180.104 806.445,-190.104 813.445,-190.104"/>
</g>
<!-- ExpConst0 -->
<g id="node40" class="node"><title>ExpConst0</title>
<ellipse fill="none" stroke="black" cx="388.945" cy="-90" rx="50.0912" ry="18"/>
<text text-anchor="middle" x="388.945" y="-86.3" font-family="Times,serif" font-size="14.00">ExpConst0</text>
</g>
<!-- Value0: 12 -->
<g id="node41" class="node"><title>Value0: 12</title>
<ellipse fill="none" stroke="black" cx="388.945" cy="-18" rx="50.0912" ry="18"/>
<text text-anchor="middle" x="388.945" y="-14.3" font-family="Times,serif" font-size="14.00">Value0: 12</text>
</g>
<!-- ExpConst0&#45;&gt;Value0: 12 -->
<g id="edge34" class="edge"><title>ExpConst0&#45;&gt;Value0: 12</title>
<path fill="none" stroke="black" d="M388.945,-71.6966C388.945,-63.9827 388.945,-54.7125 388.945,-46.1124"/>
<polygon fill="black" stroke="black" points="392.445,-46.1043 388.945,-36.1043 385.445,-46.1044 392.445,-46.1043"/>
</g>
<!-- ExpMem1 -->
<g id="node42" class="node"><title>ExpMem1</title>
<ellipse fill="none" stroke="black" cx="1088.95" cy="-234" rx="48.9926" ry="18"/>
<text text-anchor="middle" x="1088.95" y="-230.3" font-family="Times,serif" font-size="14.00">ExpMem1</text>
</g>
<!-- ExpMem1&#45;&gt;ExpBinary1 -->
<g id="edge35" class="edge"><title>ExpMem1&#45;&gt;ExpBinary1</title>
<path fill="none" stroke="black" d="M1089.69,-215.697C1090.02,-207.983 1090.41,-198.712 1090.78,-190.112"/>
<polygon fill="black" stroke="black" points="1094.28,-190.245 1091.21,-180.104 1087.29,-189.945 1094.28,-190.245"/>
</g>
<!-- StatLabel0 -->
<g id="node43" class="node"><title>StatLabel0</title>
<ellipse fill="none" stroke="black" cx="114.945" cy="-306" rx="48.9926" ry="18"/>
<text text-anchor="middle" x="114.945" y="-302.3" font-family="Times,serif" font-size="14.00">StatLabel0</text>
</g>
<!-- Label0: L68 -->
<g id="node44" class="node"><title>Label0: L68</title>
<ellipse fill="none" stroke="black" cx="53.9452" cy="-234" rx="53.8905" ry="18"/>
<text text-anchor="middle" x="53.9452" y="-230.3" font-family="Times,serif" font-size="14.00">Label0: L68</text>
</g>
<!-- StatLabel0&#45;&gt;Label0: L68 -->
<g id="edge36" class="edge"><title>StatLabel0&#45;&gt;Label0: L68</title>
<path fill="none" stroke="black" d="M100.797,-288.765C93.2083,-280.056 83.7016,-269.147 75.2386,-259.435"/>
<polygon fill="black" stroke="black" points="77.6485,-256.873 68.44,-251.633 72.3712,-261.472 77.6485,-256.873"/>
</g>
<!-- StatList0 -->
<g id="node45" class="node"><title>StatList0</title>
<ellipse fill="none" stroke="black" cx="889.945" cy="-378" rx="42.4939" ry="18"/>
<text text-anchor="middle" x="889.945" y="-374.3" font-family="Times,serif" font-size="14.00">StatList0</text>
</g>
<!-- StatList0&#45;&gt;StatCJump0 -->
<g id="edge44" class="edge"><title>StatList0&#45;&gt;StatCJump0</title>
<path fill="none" stroke="black" d="M931.318,-374.191C1090.84,-363.36 1666.6,-324.269 1858.34,-311.251"/>
<polygon fill="black" stroke="black" points="1858.79,-314.728 1868.53,-310.559 1858.31,-307.745 1858.79,-314.728"/>
</g>
<!-- StatList0&#45;&gt;StatMove1 -->
<g id="edge39" class="edge"><title>StatList0&#45;&gt;StatMove1</title>
<path fill="none" stroke="black" d="M852.204,-369.641C787.986,-357.119 657.306,-331.639 583.948,-317.335"/>
<polygon fill="black" stroke="black" points="584.476,-313.872 573.99,-315.393 583.136,-320.742 584.476,-313.872"/>
</g>
<!-- StatList0&#45;&gt;StatMove5 -->
<g id="edge43" class="edge"><title>StatList0&#45;&gt;StatMove5</title>
<path fill="none" stroke="black" d="M930.3,-372.674C1041.98,-360.703 1355.42,-327.102 1485.37,-313.171"/>
<polygon fill="black" stroke="black" points="1485.95,-316.63 1495.52,-312.084 1485.21,-309.67 1485.95,-316.63"/>
</g>
<!-- StatList0&#45;&gt;StatMove2 -->
<g id="edge40" class="edge"><title>StatList0&#45;&gt;StatMove2</title>
<path fill="none" stroke="black" d="M872.191,-361.465C861.569,-352.17 847.878,-340.191 836.042,-329.835"/>
<polygon fill="black" stroke="black" points="838.035,-326.928 828.205,-322.977 833.426,-332.196 838.035,-326.928"/>
</g>
<!-- StatList0&#45;&gt;StatLabel0 -->
<g id="edge37" class="edge"><title>StatList0&#45;&gt;StatLabel0</title>
<path fill="none" stroke="black" d="M848.415,-374.531C744.619,-368.169 465.594,-349.88 233.945,-324 212.654,-321.621 189.303,-318.417 168.968,-315.431"/>
<polygon fill="black" stroke="black" points="169.349,-311.949 158.943,-313.942 168.32,-318.873 169.349,-311.949"/>
</g>
<!-- StatMove0 -->
<g id="node46" class="node"><title>StatMove0</title>
<ellipse fill="none" stroke="black" cx="292.945" cy="-306" rx="50.0912" ry="18"/>
<text text-anchor="middle" x="292.945" y="-302.3" font-family="Times,serif" font-size="14.00">StatMove0</text>
</g>
<!-- StatList0&#45;&gt;StatMove0 -->
<g id="edge38" class="edge"><title>StatList0&#45;&gt;StatMove0</title>
<path fill="none" stroke="black" d="M849.847,-372.298C746.33,-360.161 469.851,-327.743 349.845,-313.672"/>
<polygon fill="black" stroke="black" points="350.098,-310.177 339.759,-312.489 349.283,-317.13 350.098,-310.177"/>
</g>
<!-- StatMove3 -->
<g id="node47" class="node"><title>StatMove3</title>
<ellipse fill="none" stroke="black" cx="969.945" cy="-306" rx="50.0912" ry="18"/>
<text text-anchor="middle" x="969.945" y="-302.3" font-family="Times,serif" font-size="14.00">StatMove3</text>
</g>
<!-- StatList0&#45;&gt;StatMove3 -->
<g id="edge41" class="edge"><title>StatList0&#45;&gt;StatMove3</title>
<path fill="none" stroke="black" d="M907.7,-361.465C918.322,-352.17 932.013,-340.191 943.848,-329.835"/>
<polygon fill="black" stroke="black" points="946.465,-332.196 951.686,-322.977 941.855,-326.928 946.465,-332.196"/>
</g>
<!-- StatMove4 -->
<g id="node48" class="node"><title>StatMove4</title>
<ellipse fill="none" stroke="black" cx="1213.95" cy="-306" rx="50.0912" ry="18"/>
<text text-anchor="middle" x="1213.95" y="-302.3" font-family="Times,serif" font-size="14.00">StatMove4</text>
</g>
<!-- StatList0&#45;&gt;StatMove4 -->
<g id="edge42" class="edge"><title>StatList0&#45;&gt;StatMove4</title>
<path fill="none" stroke="black" d="M926.797,-369.038C984.497,-356.572 1096.36,-332.405 1162.14,-318.193"/>
<polygon fill="black" stroke="black" points="1163.25,-321.534 1172.28,-316.001 1161.77,-314.692 1163.25,-321.534"/>
</g>
<!-- ExpTemp0 -->
<g id="node49" class="node"><title>ExpTemp0</title>
<ellipse fill="none" stroke="black" cx="175.945" cy="-234" rx="50.0912" ry="18"/>
<text text-anchor="middle" x="175.945" y="-230.3" font-family="Times,serif" font-size="14.00">ExpTemp0</text>
</g>
<!-- StatMove0&#45;&gt;ExpTemp0 -->
<g id="edge50" class="edge"><title>StatMove0&#45;&gt;ExpTemp0</title>
<path fill="none" stroke="black" d="M268.133,-290.155C251.069,-279.946 228.206,-266.267 209.517,-255.086"/>
<polygon fill="black" stroke="black" points="211.101,-251.955 200.722,-249.824 207.507,-257.962 211.101,-251.955"/>
</g>
<!-- ExpMem0 -->
<g id="node55" class="node"><title>ExpMem0</title>
<ellipse fill="none" stroke="black" cx="292.945" cy="-234" rx="48.9926" ry="18"/>
<text text-anchor="middle" x="292.945" y="-230.3" font-family="Times,serif" font-size="14.00">ExpMem0</text>
</g>
<!-- StatMove0&#45;&gt;ExpMem0 -->
<g id="edge51" class="edge"><title>StatMove0&#45;&gt;ExpMem0</title>
<path fill="none" stroke="black" d="M292.945,-287.697C292.945,-279.983 292.945,-270.712 292.945,-262.112"/>
<polygon fill="black" stroke="black" points="296.445,-262.104 292.945,-252.104 289.445,-262.104 296.445,-262.104"/>
</g>
<!-- StatMove3&#45;&gt;ExpMem1 -->
<g id="edge60" class="edge"><title>StatMove3&#45;&gt;ExpMem1</title>
<path fill="none" stroke="black" d="M994.892,-290.326C1012.42,-280.012 1036.08,-266.095 1055.29,-254.8"/>
<polygon fill="black" stroke="black" points="1057.19,-257.742 1064.03,-249.655 1053.64,-251.708 1057.19,-257.742"/>
</g>
<!-- ExpTemp5 -->
<g id="node62" class="node"><title>ExpTemp5</title>
<ellipse fill="none" stroke="black" cx="969.945" cy="-234" rx="50.0912" ry="18"/>
<text text-anchor="middle" x="969.945" y="-230.3" font-family="Times,serif" font-size="14.00">ExpTemp5</text>
</g>
<!-- StatMove3&#45;&gt;ExpTemp5 -->
<g id="edge59" class="edge"><title>StatMove3&#45;&gt;ExpTemp5</title>
<path fill="none" stroke="black" d="M969.945,-287.697C969.945,-279.983 969.945,-270.712 969.945,-262.112"/>
<polygon fill="black" stroke="black" points="973.445,-262.104 969.945,-252.104 966.445,-262.104 973.445,-262.104"/>
</g>
<!-- StatMove4&#45;&gt;ExpCall0 -->
<g id="edge64" class="edge"><title>StatMove4&#45;&gt;ExpCall0</title>
<path fill="none" stroke="black" d="M1238.89,-290.326C1256.66,-279.874 1280.72,-265.721 1300.06,-254.346"/>
<polygon fill="black" stroke="black" points="1302,-257.264 1308.84,-249.177 1298.45,-251.23 1302,-257.264"/>
</g>
<!-- ExpTemp7 -->
<g id="node59" class="node"><title>ExpTemp7</title>
<ellipse fill="none" stroke="black" cx="1213.95" cy="-234" rx="50.0912" ry="18"/>
<text text-anchor="middle" x="1213.95" y="-230.3" font-family="Times,serif" font-size="14.00">ExpTemp7</text>
</g>
<!-- StatMove4&#45;&gt;ExpTemp7 -->
<g id="edge63" class="edge"><title>StatMove4&#45;&gt;ExpTemp7</title>
<path fill="none" stroke="black" d="M1213.95,-287.697C1213.95,-279.983 1213.95,-270.712 1213.95,-262.112"/>
<polygon fill="black" stroke="black" points="1217.45,-262.104 1213.95,-252.104 1210.45,-262.104 1217.45,-262.104"/>
</g>
<!-- Temp0: T8 -->
<g id="node50" class="node"><title>Temp0: T8</title>
<ellipse fill="none" stroke="black" cx="167.945" cy="-162" rx="50.8918" ry="18"/>
<text text-anchor="middle" x="167.945" y="-158.3" font-family="Times,serif" font-size="14.00">Temp0: T8</text>
</g>
<!-- ExpTemp0&#45;&gt;Temp0: T8 -->
<g id="edge45" class="edge"><title>ExpTemp0&#45;&gt;Temp0: T8</title>
<path fill="none" stroke="black" d="M173.968,-215.697C173.086,-207.983 172.027,-198.712 171.044,-190.112"/>
<polygon fill="black" stroke="black" points="174.513,-189.642 169.9,-180.104 167.558,-190.437 174.513,-189.642"/>
</g>
<!-- ExpBinary0 -->
<g id="node52" class="node"><title>ExpBinary0</title>
<ellipse fill="none" stroke="black" cx="289.945" cy="-162" rx="53.0913" ry="18"/>
<text text-anchor="middle" x="289.945" y="-158.3" font-family="Times,serif" font-size="14.00">ExpBinary0</text>
</g>
<!-- ExpBinary0&#45;&gt;ExpConst0 -->
<g id="edge49" class="edge"><title>ExpBinary0&#45;&gt;ExpConst0</title>
<path fill="none" stroke="black" d="M311.917,-145.465C325.726,-135.7 343.727,-122.972 358.855,-112.276"/>
<polygon fill="black" stroke="black" points="361.231,-114.882 367.376,-106.251 357.19,-109.167 361.231,-114.882"/>
</g>
<!-- ExpTemp1 -->
<g id="node53" class="node"><title>ExpTemp1</title>
<ellipse fill="none" stroke="black" cx="190.945" cy="-90" rx="50.0912" ry="18"/>
<text text-anchor="middle" x="190.945" y="-86.3" font-family="Times,serif" font-size="14.00">ExpTemp1</text>
</g>
<!-- ExpBinary0&#45;&gt;ExpTemp1 -->
<g id="edge47" class="edge"><title>ExpBinary0&#45;&gt;ExpTemp1</title>
<path fill="none" stroke="black" d="M267.974,-145.465C254.164,-135.7 236.163,-122.972 221.036,-112.276"/>
<polygon fill="black" stroke="black" points="222.7,-109.167 212.514,-106.251 218.659,-114.882 222.7,-109.167"/>
</g>
<!-- Plus0 -->
<g id="node54" class="node"><title>Plus0</title>
<ellipse fill="none" stroke="black" cx="289.945" cy="-90" rx="30.5947" ry="18"/>
<text text-anchor="middle" x="289.945" y="-86.3" font-family="Times,serif" font-size="14.00">Plus0</text>
</g>
<!-- ExpBinary0&#45;&gt;Plus0 -->
<g id="edge48" class="edge"><title>ExpBinary0&#45;&gt;Plus0</title>
<path fill="none" stroke="black" d="M289.945,-143.697C289.945,-135.983 289.945,-126.712 289.945,-118.112"/>
<polygon fill="black" stroke="black" points="293.445,-118.104 289.945,-108.104 286.445,-118.104 293.445,-118.104"/>
</g>
<!-- Temp1: $fp -->
<g id="node61" class="node"><title>Temp1: $fp</title>
<ellipse fill="none" stroke="black" cx="190.945" cy="-18" rx="52.7911" ry="18"/>
<text text-anchor="middle" x="190.945" y="-14.3" font-family="Times,serif" font-size="14.00">Temp1: $fp</text>
</g>
<!-- ExpTemp1&#45;&gt;Temp1: $fp -->
<g id="edge56" class="edge"><title>ExpTemp1&#45;&gt;Temp1: $fp</title>
<path fill="none" stroke="black" d="M190.945,-71.6966C190.945,-63.9827 190.945,-54.7125 190.945,-46.1124"/>
<polygon fill="black" stroke="black" points="194.445,-46.1043 190.945,-36.1043 187.445,-46.1044 194.445,-46.1043"/>
</g>
<!-- ExpMem0&#45;&gt;ExpBinary0 -->
<g id="edge62" class="edge"><title>ExpMem0&#45;&gt;ExpBinary0</title>
<path fill="none" stroke="black" d="M292.204,-215.697C291.873,-207.983 291.476,-198.712 291.107,-190.112"/>
<polygon fill="black" stroke="black" points="294.603,-189.945 290.678,-180.104 287.61,-190.245 294.603,-189.945"/>
</g>
<!-- Temp7: T7 -->
<g id="node60" class="node"><title>Temp7: T7</title>
<ellipse fill="none" stroke="black" cx="1213.95" cy="-162" rx="50.8918" ry="18"/>
<text text-anchor="middle" x="1213.95" y="-158.3" font-family="Times,serif" font-size="14.00">Temp7: T7</text>
</g>
<!-- ExpTemp7&#45;&gt;Temp7: T7 -->
<g id="edge55" class="edge"><title>ExpTemp7&#45;&gt;Temp7: T7</title>
<path fill="none" stroke="black" d="M1213.95,-215.697C1213.95,-207.983 1213.95,-198.712 1213.95,-190.112"/>
<polygon fill="black" stroke="black" points="1217.45,-190.104 1213.95,-180.104 1210.45,-190.104 1217.45,-190.104"/>
</g>
<!-- Temp5: T6 -->
<g id="node63" class="node"><title>Temp5: T6</title>
<ellipse fill="none" stroke="black" cx="969.945" cy="-162" rx="50.8918" ry="18"/>
<text text-anchor="middle" x="969.945" y="-158.3" font-family="Times,serif" font-size="14.00">Temp5: T6</text>
</g>
<!-- ExpTemp5&#45;&gt;Temp5: T6 -->
<g id="edge57" class="edge"><title>ExpTemp5&#45;&gt;Temp5: T6</title>
<path fill="none" stroke="black" d="M969.945,-215.697C969.945,-207.983 969.945,-198.712 969.945,-190.112"/>
<polygon fill="black" stroke="black" points="973.445,-190.104 969.945,-180.104 966.445,-190.104 973.445,-190.104"/>
</g>
</g>
</svg>
