<?xml version="1.0" encoding="UTF-8" standalone="no"?>
<!DOCTYPE svg PUBLIC "-//W3C//DTD SVG 1.1//EN"
 "http://www.w3.org/Graphics/SVG/1.1/DTD/svg11.dtd">
<!-- Generated by graphviz version 2.38.0 (20140413.2041)
 -->
<!-- Title: %3 Pages: 1 -->
<svg width="1943pt" height="404pt"
 viewBox="0.00 0.00 1942.89 404.00" xmlns="http://www.w3.org/2000/svg" xmlns:xlink="http://www.w3.org/1999/xlink">
<g id="graph0" class="graph" transform="scale(1 1) rotate(0) translate(4 400)">
<title>%3</title>
<polygon fill="white" stroke="none" points="-4,4 -4,-400 1938.89,-400 1938.89,4 -4,4"/>
<!-- ExpMem3 -->
<g id="node1" class="node"><title>ExpMem3</title>
<ellipse fill="none" stroke="black" cx="1633.95" cy="-234" rx="48.9926" ry="18"/>
<text text-anchor="middle" x="1633.95" y="-230.3" font-family="Times,serif" font-size="14.00">ExpMem3</text>
</g>
<!-- ExpBinary3 -->
<g id="node2" class="node"><title>ExpBinary3</title>
<ellipse fill="none" stroke="black" cx="1688.95" cy="-162" rx="53.0913" ry="18"/>
<text text-anchor="middle" x="1688.95" y="-158.3" font-family="Times,serif" font-size="14.00">ExpBinary3</text>
</g>
<!-- ExpMem3&#45;&gt;ExpBinary3 -->
<g id="edge1" class="edge"><title>ExpMem3&#45;&gt;ExpBinary3</title>
<path fill="none" stroke="black" d="M1646.98,-216.411C1653.76,-207.781 1662.18,-197.062 1669.7,-187.497"/>
<polygon fill="black" stroke="black" points="1672.58,-189.496 1676,-179.47 1667.07,-185.171 1672.58,-189.496"/>
</g>
<!-- ExpConst3 -->
<g id="node3" class="node"><title>ExpConst3</title>
<ellipse fill="none" stroke="black" cx="1849.95" cy="-90" rx="50.0912" ry="18"/>
<text text-anchor="middle" x="1849.95" y="-86.3" font-family="Times,serif" font-size="14.00">ExpConst3</text>
</g>
<!-- ExpBinary3&#45;&gt;ExpConst3 -->
<g id="edge5" class="edge"><title>ExpBinary3&#45;&gt;ExpConst3</title>
<path fill="none" stroke="black" d="M1720.37,-147.337C1745.99,-136.197 1782.34,-120.393 1810.02,-108.358"/>
<polygon fill="black" stroke="black" points="1811.64,-111.469 1819.42,-104.272 1808.85,-105.05 1811.64,-111.469"/>
</g>
<!-- ExpTemp11 -->
<g id="node5" class="node"><title>ExpTemp11</title>
<ellipse fill="none" stroke="black" cx="1647.95" cy="-90" rx="54.6905" ry="18"/>
<text text-anchor="middle" x="1647.95" y="-86.3" font-family="Times,serif" font-size="14.00">ExpTemp11</text>
</g>
<!-- ExpBinary3&#45;&gt;ExpTemp11 -->
<g id="edge3" class="edge"><title>ExpBinary3&#45;&gt;ExpTemp11</title>
<path fill="none" stroke="black" d="M1679.02,-144.055C1674.19,-135.801 1668.27,-125.701 1662.9,-116.538"/>
<polygon fill="black" stroke="black" points="1665.85,-114.649 1657.78,-107.789 1659.81,-118.187 1665.85,-114.649"/>
</g>
<!-- Plus3 -->
<g id="node6" class="node"><title>Plus3</title>
<ellipse fill="none" stroke="black" cx="1750.95" cy="-90" rx="30.5947" ry="18"/>
<text text-anchor="middle" x="1750.95" y="-86.3" font-family="Times,serif" font-size="14.00">Plus3</text>
</g>
<!-- ExpBinary3&#45;&gt;Plus3 -->
<g id="edge4" class="edge"><title>ExpBinary3&#45;&gt;Plus3</title>
<path fill="none" stroke="black" d="M1703.64,-144.411C1711.66,-135.351 1721.73,-123.99 1730.5,-114.078"/>
<polygon fill="black" stroke="black" points="1733.2,-116.317 1737.21,-106.511 1727.96,-111.676 1733.2,-116.317"/>
</g>
<!-- Value3: 12 -->
<g id="node4" class="node"><title>Value3: 12</title>
<ellipse fill="none" stroke="black" cx="1849.95" cy="-18" rx="50.0912" ry="18"/>
<text text-anchor="middle" x="1849.95" y="-14.3" font-family="Times,serif" font-size="14.00">Value3: 12</text>
</g>
<!-- ExpConst3&#45;&gt;Value3: 12 -->
<g id="edge2" class="edge"><title>ExpConst3&#45;&gt;Value3: 12</title>
<path fill="none" stroke="black" d="M1849.95,-71.6966C1849.95,-63.9827 1849.95,-54.7125 1849.95,-46.1124"/>
<polygon fill="black" stroke="black" points="1853.45,-46.1043 1849.95,-36.1043 1846.45,-46.1044 1853.45,-46.1043"/>
</g>
<!-- Temp11: $fp -->
<g id="node57" class="node"><title>Temp11: $fp</title>
<ellipse fill="none" stroke="black" cx="1647.95" cy="-18" rx="57.3905" ry="18"/>
<text text-anchor="middle" x="1647.95" y="-14.3" font-family="Times,serif" font-size="14.00">Temp11: $fp</text>
</g>
<!-- ExpTemp11&#45;&gt;Temp11: $fp -->
<g id="edge54" class="edge"><title>ExpTemp11&#45;&gt;Temp11: $fp</title>
<path fill="none" stroke="black" d="M1647.95,-71.6966C1647.95,-63.9827 1647.95,-54.7125 1647.95,-46.1124"/>
<polygon fill="black" stroke="black" points="1651.45,-46.1043 1647.95,-36.1043 1644.45,-46.1044 1651.45,-46.1043"/>
</g>
<!-- ExpConst2 -->
<g id="node7" class="node"><title>ExpConst2</title>
<ellipse fill="none" stroke="black" cx="1524.95" cy="-90" rx="50.0912" ry="18"/>
<text text-anchor="middle" x="1524.95" y="-86.3" font-family="Times,serif" font-size="14.00">ExpConst2</text>
</g>
<!-- Value2: 4 -->
<g id="node8" class="node"><title>Value2: 4</title>
<ellipse fill="none" stroke="black" cx="1524.95" cy="-18" rx="45.4919" ry="18"/>
<text text-anchor="middle" x="1524.95" y="-14.3" font-family="Times,serif" font-size="14.00">Value2: 4</text>
</g>
<!-- ExpConst2&#45;&gt;Value2: 4 -->
<g id="edge6" class="edge"><title>ExpConst2&#45;&gt;Value2: 4</title>
<path fill="none" stroke="black" d="M1524.95,-71.6966C1524.95,-63.9827 1524.95,-54.7125 1524.95,-46.1124"/>
<polygon fill="black" stroke="black" points="1528.45,-46.1043 1524.95,-36.1043 1521.45,-46.1044 1528.45,-46.1043"/>
</g>
<!-- ExpBinary2 -->
<g id="node9" class="node"><title>ExpBinary2</title>
<ellipse fill="none" stroke="black" cx="1513.95" cy="-162" rx="53.0913" ry="18"/>
<text text-anchor="middle" x="1513.95" y="-158.3" font-family="Times,serif" font-size="14.00">ExpBinary2</text>
</g>
<!-- ExpBinary2&#45;&gt;ExpConst2 -->
<g id="edge9" class="edge"><title>ExpBinary2&#45;&gt;ExpConst2</title>
<path fill="none" stroke="black" d="M1516.66,-143.697C1517.88,-135.983 1519.33,-126.712 1520.68,-118.112"/>
<polygon fill="black" stroke="black" points="1524.16,-118.526 1522.26,-108.104 1517.25,-117.44 1524.16,-118.526"/>
</g>
<!-- ExpTemp10 -->
<g id="node10" class="node"><title>ExpTemp10</title>
<ellipse fill="none" stroke="black" cx="1322.95" cy="-90" rx="54.6905" ry="18"/>
<text text-anchor="middle" x="1322.95" y="-86.3" font-family="Times,serif" font-size="14.00">ExpTemp10</text>
</g>
<!-- ExpBinary2&#45;&gt;ExpTemp10 -->
<g id="edge7" class="edge"><title>ExpBinary2&#45;&gt;ExpTemp10</title>
<path fill="none" stroke="black" d="M1478.91,-148.161C1447.64,-136.701 1401.68,-119.857 1367.75,-107.421"/>
<polygon fill="black" stroke="black" points="1368.67,-104.031 1358.08,-103.876 1366.26,-110.603 1368.67,-104.031"/>
</g>
<!-- Plus2 -->
<g id="node11" class="node"><title>Plus2</title>
<ellipse fill="none" stroke="black" cx="1425.95" cy="-90" rx="30.5947" ry="18"/>
<text text-anchor="middle" x="1425.95" y="-86.3" font-family="Times,serif" font-size="14.00">Plus2</text>
</g>
<!-- ExpBinary2&#45;&gt;Plus2 -->
<g id="edge8" class="edge"><title>ExpBinary2&#45;&gt;Plus2</title>
<path fill="none" stroke="black" d="M1493.98,-145.116C1481.38,-135.095 1464.99,-122.057 1451.45,-111.29"/>
<polygon fill="black" stroke="black" points="1453.46,-108.413 1443.45,-104.927 1449.1,-113.891 1453.46,-108.413"/>
</g>
<!-- Temp10: $fp -->
<g id="node34" class="node"><title>Temp10: $fp</title>
<ellipse fill="none" stroke="black" cx="1322.95" cy="-18" rx="57.3905" ry="18"/>
<text text-anchor="middle" x="1322.95" y="-14.3" font-family="Times,serif" font-size="14.00">Temp10: $fp</text>
</g>
<!-- ExpTemp10&#45;&gt;Temp10: $fp -->
<g id="edge27" class="edge"><title>ExpTemp10&#45;&gt;Temp10: $fp</title>
<path fill="none" stroke="black" d="M1322.95,-71.6966C1322.95,-63.9827 1322.95,-54.7125 1322.95,-46.1124"/>
<polygon fill="black" stroke="black" points="1326.45,-46.1043 1322.95,-36.1043 1319.45,-46.1044 1326.45,-46.1043"/>
</g>
<!-- ExpTemp9 -->
<g id="node12" class="node"><title>ExpTemp9</title>
<ellipse fill="none" stroke="black" cx="1329.95" cy="-234" rx="50.0912" ry="18"/>
<text text-anchor="middle" x="1329.95" y="-230.3" font-family="Times,serif" font-size="14.00">ExpTemp9</text>
</g>
<!-- Temp9: T0 -->
<g id="node13" class="node"><title>Temp9: T0</title>
<ellipse fill="none" stroke="black" cx="1355.95" cy="-162" rx="50.8918" ry="18"/>
<text text-anchor="middle" x="1355.95" y="-158.3" font-family="Times,serif" font-size="14.00">Temp9: T0</text>
</g>
<!-- ExpTemp9&#45;&gt;Temp9: T0 -->
<g id="edge10" class="edge"><title>ExpTemp9&#45;&gt;Temp9: T0</title>
<path fill="none" stroke="black" d="M1336.24,-216.055C1339.17,-208.176 1342.72,-198.617 1345.99,-189.794"/>
<polygon fill="black" stroke="black" points="1349.33,-190.868 1349.53,-180.275 1342.77,-188.431 1349.33,-190.868"/>
</g>
<!-- ExpList0 -->
<g id="node14" class="node"><title>ExpList0</title>
<ellipse fill="none" stroke="black" cx="1124.95" cy="-162" rx="42.7926" ry="18"/>
<text text-anchor="middle" x="1124.95" y="-158.3" font-family="Times,serif" font-size="14.00">ExpList0</text>
</g>
<!-- ExpTemp7 -->
<g id="node15" class="node"><title>ExpTemp7</title>
<ellipse fill="none" stroke="black" cx="1172.95" cy="-90" rx="50.0912" ry="18"/>
<text text-anchor="middle" x="1172.95" y="-86.3" font-family="Times,serif" font-size="14.00">ExpTemp7</text>
</g>
<!-- ExpList0&#45;&gt;ExpTemp7 -->
<g id="edge11" class="edge"><title>ExpList0&#45;&gt;ExpTemp7</title>
<path fill="none" stroke="black" d="M1136.32,-144.411C1142.03,-136.077 1149.08,-125.797 1155.47,-116.488"/>
<polygon fill="black" stroke="black" points="1158.55,-118.183 1161.32,-107.956 1152.78,-114.224 1158.55,-118.183"/>
</g>
<!-- Temp7: T5 -->
<g id="node60" class="node"><title>Temp7: T5</title>
<ellipse fill="none" stroke="black" cx="1172.95" cy="-18" rx="50.8918" ry="18"/>
<text text-anchor="middle" x="1172.95" y="-14.3" font-family="Times,serif" font-size="14.00">Temp7: T5</text>
</g>
<!-- ExpTemp7&#45;&gt;Temp7: T5 -->
<g id="edge59" class="edge"><title>ExpTemp7&#45;&gt;Temp7: T5</title>
<path fill="none" stroke="black" d="M1172.95,-71.6966C1172.95,-63.9827 1172.95,-54.7125 1172.95,-46.1124"/>
<polygon fill="black" stroke="black" points="1176.45,-46.1043 1172.95,-36.1043 1169.45,-46.1044 1176.45,-46.1043"/>
</g>
<!-- StatCJump0 -->
<g id="node16" class="node"><title>StatCJump0</title>
<ellipse fill="none" stroke="black" cx="1575.95" cy="-306" rx="53.8905" ry="18"/>
<text text-anchor="middle" x="1575.95" y="-302.3" font-family="Times,serif" font-size="14.00">StatCJump0</text>
</g>
<!-- StatCJump0&#45;&gt;ExpMem3 -->
<g id="edge14" class="edge"><title>StatCJump0&#45;&gt;ExpMem3</title>
<path fill="none" stroke="black" d="M1589.69,-288.411C1596.91,-279.693 1605.9,-268.845 1613.89,-259.208"/>
<polygon fill="black" stroke="black" points="1616.61,-261.403 1620.3,-251.47 1611.22,-256.937 1616.61,-261.403"/>
</g>
<!-- LT0 -->
<g id="node17" class="node"><title>LT0</title>
<ellipse fill="none" stroke="black" cx="1424.95" cy="-234" rx="27" ry="18"/>
<text text-anchor="middle" x="1424.95" y="-230.3" font-family="Times,serif" font-size="14.00">LT0</text>
</g>
<!-- StatCJump0&#45;&gt;LT0 -->
<g id="edge12" class="edge"><title>StatCJump0&#45;&gt;LT0</title>
<path fill="none" stroke="black" d="M1545.16,-290.906C1521.98,-280.271 1489.43,-265.291 1460.95,-252 1459.16,-251.167 1457.33,-250.309 1455.48,-249.442"/>
<polygon fill="black" stroke="black" points="1456.79,-246.191 1446.25,-245.101 1453.81,-252.525 1456.79,-246.191"/>
</g>
<!-- ExpMem2 -->
<g id="node18" class="node"><title>ExpMem2</title>
<ellipse fill="none" stroke="black" cx="1518.95" cy="-234" rx="48.9926" ry="18"/>
<text text-anchor="middle" x="1518.95" y="-230.3" font-family="Times,serif" font-size="14.00">ExpMem2</text>
</g>
<!-- StatCJump0&#45;&gt;ExpMem2 -->
<g id="edge13" class="edge"><title>StatCJump0&#45;&gt;ExpMem2</title>
<path fill="none" stroke="black" d="M1562.44,-288.411C1555.41,-279.781 1546.68,-269.062 1538.89,-259.497"/>
<polygon fill="black" stroke="black" points="1541.38,-257.014 1532.36,-251.47 1535.96,-261.434 1541.38,-257.014"/>
</g>
<!-- Label2: L64 -->
<g id="node19" class="node"><title>Label2: L64</title>
<ellipse fill="none" stroke="black" cx="1754.95" cy="-234" rx="53.8905" ry="18"/>
<text text-anchor="middle" x="1754.95" y="-230.3" font-family="Times,serif" font-size="14.00">Label2: L64</text>
</g>
<!-- StatCJump0&#45;&gt;Label2: L64 -->
<g id="edge15" class="edge"><title>StatCJump0&#45;&gt;Label2: L64</title>
<path fill="none" stroke="black" d="M1609.61,-291.834C1638.62,-280.492 1680.64,-264.057 1712.05,-251.776"/>
<polygon fill="black" stroke="black" points="1713.39,-255.009 1721.43,-248.107 1710.84,-248.49 1713.39,-255.009"/>
</g>
<!-- Label3: L65 -->
<g id="node20" class="node"><title>Label3: L65</title>
<ellipse fill="none" stroke="black" cx="1880.95" cy="-234" rx="53.8905" ry="18"/>
<text text-anchor="middle" x="1880.95" y="-230.3" font-family="Times,serif" font-size="14.00">Label3: L65</text>
</g>
<!-- StatCJump0&#45;&gt;Label3: L65 -->
<g id="edge16" class="edge"><title>StatCJump0&#45;&gt;Label3: L65</title>
<path fill="none" stroke="black" d="M1620.7,-295.87C1669.38,-285.782 1749.42,-268.738 1817.95,-252 1822.09,-250.987 1826.38,-249.904 1830.69,-248.793"/>
<polygon fill="black" stroke="black" points="1831.9,-252.092 1840.69,-246.171 1830.13,-245.321 1831.9,-252.092"/>
</g>
<!-- ExpMem2&#45;&gt;ExpBinary2 -->
<g id="edge48" class="edge"><title>ExpMem2&#45;&gt;ExpBinary2</title>
<path fill="none" stroke="black" d="M1517.71,-215.697C1517.16,-207.983 1516.5,-198.712 1515.88,-190.112"/>
<polygon fill="black" stroke="black" points="1519.37,-189.83 1515.17,-180.104 1512.39,-190.328 1519.37,-189.83"/>
</g>
<!-- ExpTemp8 -->
<g id="node21" class="node"><title>ExpTemp8</title>
<ellipse fill="none" stroke="black" cx="1211.95" cy="-234" rx="50.0912" ry="18"/>
<text text-anchor="middle" x="1211.95" y="-230.3" font-family="Times,serif" font-size="14.00">ExpTemp8</text>
</g>
<!-- Temp8: T7 -->
<g id="node22" class="node"><title>Temp8: T7</title>
<ellipse fill="none" stroke="black" cx="1236.95" cy="-162" rx="50.8918" ry="18"/>
<text text-anchor="middle" x="1236.95" y="-158.3" font-family="Times,serif" font-size="14.00">Temp8: T7</text>
</g>
<!-- ExpTemp8&#45;&gt;Temp8: T7 -->
<g id="edge17" class="edge"><title>ExpTemp8&#45;&gt;Temp8: T7</title>
<path fill="none" stroke="black" d="M1218,-216.055C1220.81,-208.176 1224.23,-198.617 1227.38,-189.794"/>
<polygon fill="black" stroke="black" points="1230.71,-190.87 1230.78,-180.275 1224.12,-188.516 1230.71,-190.87"/>
</g>
<!-- StatMove1 -->
<g id="node23" class="node"><title>StatMove1</title>
<ellipse fill="none" stroke="black" cx="530.945" cy="-306" rx="50.0912" ry="18"/>
<text text-anchor="middle" x="530.945" y="-302.3" font-family="Times,serif" font-size="14.00">StatMove1</text>
</g>
<!-- ExpTemp2 -->
<g id="node24" class="node"><title>ExpTemp2</title>
<ellipse fill="none" stroke="black" cx="412.945" cy="-234" rx="50.0912" ry="18"/>
<text text-anchor="middle" x="412.945" y="-230.3" font-family="Times,serif" font-size="14.00">ExpTemp2</text>
</g>
<!-- StatMove1&#45;&gt;ExpTemp2 -->
<g id="edge18" class="edge"><title>StatMove1&#45;&gt;ExpTemp2</title>
<path fill="none" stroke="black" d="M506.209,-290.326C488.823,-280.012 465.363,-266.095 446.322,-254.8"/>
<polygon fill="black" stroke="black" points="448.036,-251.747 437.649,-249.655 444.464,-257.767 448.036,-251.747"/>
</g>
<!-- ExpTemp3 -->
<g id="node25" class="node"><title>ExpTemp3</title>
<ellipse fill="none" stroke="black" cx="530.945" cy="-234" rx="50.0912" ry="18"/>
<text text-anchor="middle" x="530.945" y="-230.3" font-family="Times,serif" font-size="14.00">ExpTemp3</text>
</g>
<!-- StatMove1&#45;&gt;ExpTemp3 -->
<g id="edge19" class="edge"><title>StatMove1&#45;&gt;ExpTemp3</title>
<path fill="none" stroke="black" d="M530.945,-287.697C530.945,-279.983 530.945,-270.712 530.945,-262.112"/>
<polygon fill="black" stroke="black" points="534.445,-262.104 530.945,-252.104 527.445,-262.104 534.445,-262.104"/>
</g>
<!-- Temp2: T6 -->
<g id="node35" class="node"><title>Temp2: T6</title>
<ellipse fill="none" stroke="black" cx="411.945" cy="-162" rx="50.8918" ry="18"/>
<text text-anchor="middle" x="411.945" y="-158.3" font-family="Times,serif" font-size="14.00">Temp2: T6</text>
</g>
<!-- ExpTemp2&#45;&gt;Temp2: T6 -->
<g id="edge28" class="edge"><title>ExpTemp2&#45;&gt;Temp2: T6</title>
<path fill="none" stroke="black" d="M412.698,-215.697C412.588,-207.983 412.455,-198.712 412.333,-190.112"/>
<polygon fill="black" stroke="black" points="415.832,-190.053 412.19,-180.104 408.833,-190.153 415.832,-190.053"/>
</g>
<!-- Temp3: T0 -->
<g id="node50" class="node"><title>Temp3: T0</title>
<ellipse fill="none" stroke="black" cx="530.945" cy="-162" rx="50.8918" ry="18"/>
<text text-anchor="middle" x="530.945" y="-158.3" font-family="Times,serif" font-size="14.00">Temp3: T0</text>
</g>
<!-- ExpTemp3&#45;&gt;Temp3: T0 -->
<g id="edge47" class="edge"><title>ExpTemp3&#45;&gt;Temp3: T0</title>
<path fill="none" stroke="black" d="M530.945,-215.697C530.945,-207.983 530.945,-198.712 530.945,-190.112"/>
<polygon fill="black" stroke="black" points="534.445,-190.104 530.945,-180.104 527.445,-190.104 534.445,-190.104"/>
</g>
<!-- ExpConst1 -->
<g id="node26" class="node"><title>ExpConst1</title>
<ellipse fill="none" stroke="black" cx="852.945" cy="-90" rx="50.0912" ry="18"/>
<text text-anchor="middle" x="852.945" y="-86.3" font-family="Times,serif" font-size="14.00">ExpConst1</text>
</g>
<!-- Value1: 16 -->
<g id="node27" class="node"><title>Value1: 16</title>
<ellipse fill="none" stroke="black" cx="852.945" cy="-18" rx="50.0912" ry="18"/>
<text text-anchor="middle" x="852.945" y="-14.3" font-family="Times,serif" font-size="14.00">Value1: 16</text>
</g>
<!-- ExpConst1&#45;&gt;Value1: 16 -->
<g id="edge20" class="edge"><title>ExpConst1&#45;&gt;Value1: 16</title>
<path fill="none" stroke="black" d="M852.945,-71.6966C852.945,-63.9827 852.945,-54.7125 852.945,-46.1124"/>
<polygon fill="black" stroke="black" points="856.445,-46.1043 852.945,-36.1043 849.445,-46.1044 856.445,-46.1043"/>
</g>
<!-- StatMove4 -->
<g id="node28" class="node"><title>StatMove4</title>
<ellipse fill="none" stroke="black" cx="1211.95" cy="-306" rx="50.0912" ry="18"/>
<text text-anchor="middle" x="1211.95" y="-302.3" font-family="Times,serif" font-size="14.00">StatMove4</text>
</g>
<!-- StatMove4&#45;&gt;ExpTemp9 -->
<g id="edge22" class="edge"><title>StatMove4&#45;&gt;ExpTemp9</title>
<path fill="none" stroke="black" d="M1236.68,-290.326C1254.07,-280.012 1277.53,-266.095 1296.57,-254.8"/>
<polygon fill="black" stroke="black" points="1298.43,-257.767 1305.24,-249.655 1294.85,-251.747 1298.43,-257.767"/>
</g>
<!-- StatMove4&#45;&gt;ExpTemp8 -->
<g id="edge21" class="edge"><title>StatMove4&#45;&gt;ExpTemp8</title>
<path fill="none" stroke="black" d="M1211.95,-287.697C1211.95,-279.983 1211.95,-270.712 1211.95,-262.112"/>
<polygon fill="black" stroke="black" points="1215.45,-262.104 1211.95,-252.104 1208.45,-262.104 1215.45,-262.104"/>
</g>
<!-- ExpMem0 -->
<g id="node29" class="node"><title>ExpMem0</title>
<ellipse fill="none" stroke="black" cx="292.945" cy="-234" rx="48.9926" ry="18"/>
<text text-anchor="middle" x="292.945" y="-230.3" font-family="Times,serif" font-size="14.00">ExpMem0</text>
</g>
<!-- ExpBinary0 -->
<g id="node30" class="node"><title>ExpBinary0</title>
<ellipse fill="none" stroke="black" cx="289.945" cy="-162" rx="53.0913" ry="18"/>
<text text-anchor="middle" x="289.945" y="-158.3" font-family="Times,serif" font-size="14.00">ExpBinary0</text>
</g>
<!-- ExpMem0&#45;&gt;ExpBinary0 -->
<g id="edge23" class="edge"><title>ExpMem0&#45;&gt;ExpBinary0</title>
<path fill="none" stroke="black" d="M292.204,-215.697C291.873,-207.983 291.476,-198.712 291.107,-190.112"/>
<polygon fill="black" stroke="black" points="294.603,-189.945 290.678,-180.104 287.61,-190.245 294.603,-189.945"/>
</g>
<!-- ExpConst0 -->
<g id="node39" class="node"><title>ExpConst0</title>
<ellipse fill="none" stroke="black" cx="388.945" cy="-90" rx="50.0912" ry="18"/>
<text text-anchor="middle" x="388.945" y="-86.3" font-family="Times,serif" font-size="14.00">ExpConst0</text>
</g>
<!-- ExpBinary0&#45;&gt;ExpConst0 -->
<g id="edge44" class="edge"><title>ExpBinary0&#45;&gt;ExpConst0</title>
<path fill="none" stroke="black" d="M311.917,-145.465C325.726,-135.7 343.727,-122.972 358.855,-112.276"/>
<polygon fill="black" stroke="black" points="361.231,-114.882 367.376,-106.251 357.19,-109.167 361.231,-114.882"/>
</g>
<!-- ExpTemp1 -->
<g id="node48" class="node"><title>ExpTemp1</title>
<ellipse fill="none" stroke="black" cx="190.945" cy="-90" rx="50.0912" ry="18"/>
<text text-anchor="middle" x="190.945" y="-86.3" font-family="Times,serif" font-size="14.00">ExpTemp1</text>
</g>
<!-- ExpBinary0&#45;&gt;ExpTemp1 -->
<g id="edge42" class="edge"><title>ExpBinary0&#45;&gt;ExpTemp1</title>
<path fill="none" stroke="black" d="M267.974,-145.465C254.164,-135.7 236.163,-122.972 221.036,-112.276"/>
<polygon fill="black" stroke="black" points="222.7,-109.167 212.514,-106.251 218.659,-114.882 222.7,-109.167"/>
</g>
<!-- Plus0 -->
<g id="node49" class="node"><title>Plus0</title>
<ellipse fill="none" stroke="black" cx="289.945" cy="-90" rx="30.5947" ry="18"/>
<text text-anchor="middle" x="289.945" y="-86.3" font-family="Times,serif" font-size="14.00">Plus0</text>
</g>
<!-- ExpBinary0&#45;&gt;Plus0 -->
<g id="edge43" class="edge"><title>ExpBinary0&#45;&gt;Plus0</title>
<path fill="none" stroke="black" d="M289.945,-143.697C289.945,-135.983 289.945,-126.712 289.945,-118.112"/>
<polygon fill="black" stroke="black" points="293.445,-118.104 289.945,-108.104 286.445,-118.104 293.445,-118.104"/>
</g>
<!-- ExpBinary1 -->
<g id="node31" class="node"><title>ExpBinary1</title>
<ellipse fill="none" stroke="black" cx="771.945" cy="-162" rx="53.0913" ry="18"/>
<text text-anchor="middle" x="771.945" y="-158.3" font-family="Times,serif" font-size="14.00">ExpBinary1</text>
</g>
<!-- ExpBinary1&#45;&gt;ExpConst1 -->
<g id="edge26" class="edge"><title>ExpBinary1&#45;&gt;ExpConst1</title>
<path fill="none" stroke="black" d="M790.732,-144.765C801.44,-135.511 815.023,-123.772 826.764,-113.626"/>
<polygon fill="black" stroke="black" points="829.262,-116.093 834.54,-106.906 824.685,-110.796 829.262,-116.093"/>
</g>
<!-- ExpTemp5 -->
<g id="node32" class="node"><title>ExpTemp5</title>
<ellipse fill="none" stroke="black" cx="654.945" cy="-90" rx="50.0912" ry="18"/>
<text text-anchor="middle" x="654.945" y="-86.3" font-family="Times,serif" font-size="14.00">ExpTemp5</text>
</g>
<!-- ExpBinary1&#45;&gt;ExpTemp5 -->
<g id="edge24" class="edge"><title>ExpBinary1&#45;&gt;ExpTemp5</title>
<path fill="none" stroke="black" d="M746.846,-145.983C729.766,-135.764 706.973,-122.128 688.36,-110.992"/>
<polygon fill="black" stroke="black" points="689.98,-107.882 679.602,-105.752 686.386,-113.889 689.98,-107.882"/>
</g>
<!-- Plus1 -->
<g id="node33" class="node"><title>Plus1</title>
<ellipse fill="none" stroke="black" cx="753.945" cy="-90" rx="30.5947" ry="18"/>
<text text-anchor="middle" x="753.945" y="-86.3" font-family="Times,serif" font-size="14.00">Plus1</text>
</g>
<!-- ExpBinary1&#45;&gt;Plus1 -->
<g id="edge25" class="edge"><title>ExpBinary1&#45;&gt;Plus1</title>
<path fill="none" stroke="black" d="M767.588,-144.055C765.584,-136.261 763.157,-126.822 760.908,-118.079"/>
<polygon fill="black" stroke="black" points="764.268,-117.089 758.387,-108.275 757.488,-118.832 764.268,-117.089"/>
</g>
<!-- Temp5: $fp -->
<g id="node54" class="node"><title>Temp5: $fp</title>
<ellipse fill="none" stroke="black" cx="654.945" cy="-18" rx="52.7911" ry="18"/>
<text text-anchor="middle" x="654.945" y="-14.3" font-family="Times,serif" font-size="14.00">Temp5: $fp</text>
</g>
<!-- ExpTemp5&#45;&gt;Temp5: $fp -->
<g id="edge52" class="edge"><title>ExpTemp5&#45;&gt;Temp5: $fp</title>
<path fill="none" stroke="black" d="M654.945,-71.6966C654.945,-63.9827 654.945,-54.7125 654.945,-46.1124"/>
<polygon fill="black" stroke="black" points="658.445,-46.1043 654.945,-36.1043 651.445,-46.1044 658.445,-46.1043"/>
</g>
<!-- StatMove2 -->
<g id="node36" class="node"><title>StatMove2</title>
<ellipse fill="none" stroke="black" cx="709.945" cy="-306" rx="50.0912" ry="18"/>
<text text-anchor="middle" x="709.945" y="-302.3" font-family="Times,serif" font-size="14.00">StatMove2</text>
</g>
<!-- ExpTemp4 -->
<g id="node37" class="node"><title>ExpTemp4</title>
<ellipse fill="none" stroke="black" cx="650.945" cy="-234" rx="50.0912" ry="18"/>
<text text-anchor="middle" x="650.945" y="-230.3" font-family="Times,serif" font-size="14.00">ExpTemp4</text>
</g>
<!-- StatMove2&#45;&gt;ExpTemp4 -->
<g id="edge29" class="edge"><title>StatMove2&#45;&gt;ExpTemp4</title>
<path fill="none" stroke="black" d="M695.963,-288.411C688.615,-279.693 679.472,-268.845 671.349,-259.208"/>
<polygon fill="black" stroke="black" points="673.948,-256.861 664.827,-251.47 668.596,-261.372 673.948,-256.861"/>
</g>
<!-- ExpMem1 -->
<g id="node38" class="node"><title>ExpMem1</title>
<ellipse fill="none" stroke="black" cx="769.945" cy="-234" rx="48.9926" ry="18"/>
<text text-anchor="middle" x="769.945" y="-230.3" font-family="Times,serif" font-size="14.00">ExpMem1</text>
</g>
<!-- StatMove2&#45;&gt;ExpMem1 -->
<g id="edge30" class="edge"><title>StatMove2&#45;&gt;ExpMem1</title>
<path fill="none" stroke="black" d="M724.164,-288.411C731.637,-279.693 740.935,-268.845 749.196,-259.208"/>
<polygon fill="black" stroke="black" points="751.978,-261.34 755.828,-251.47 746.663,-256.785 751.978,-261.34"/>
</g>
<!-- Temp4: T5 -->
<g id="node59" class="node"><title>Temp4: T5</title>
<ellipse fill="none" stroke="black" cx="649.945" cy="-162" rx="50.8918" ry="18"/>
<text text-anchor="middle" x="649.945" y="-158.3" font-family="Times,serif" font-size="14.00">Temp4: T5</text>
</g>
<!-- ExpTemp4&#45;&gt;Temp4: T5 -->
<g id="edge58" class="edge"><title>ExpTemp4&#45;&gt;Temp4: T5</title>
<path fill="none" stroke="black" d="M650.698,-215.697C650.588,-207.983 650.455,-198.712 650.333,-190.112"/>
<polygon fill="black" stroke="black" points="653.832,-190.053 650.19,-180.104 646.833,-190.153 653.832,-190.053"/>
</g>
<!-- ExpMem1&#45;&gt;ExpBinary1 -->
<g id="edge32" class="edge"><title>ExpMem1&#45;&gt;ExpBinary1</title>
<path fill="none" stroke="black" d="M770.44,-215.697C770.66,-207.983 770.925,-198.712 771.171,-190.112"/>
<polygon fill="black" stroke="black" points="774.669,-190.2 771.457,-180.104 767.672,-190 774.669,-190.2"/>
</g>
<!-- Value0: 12 -->
<g id="node40" class="node"><title>Value0: 12</title>
<ellipse fill="none" stroke="black" cx="388.945" cy="-18" rx="50.0912" ry="18"/>
<text text-anchor="middle" x="388.945" y="-14.3" font-family="Times,serif" font-size="14.00">Value0: 12</text>
</g>
<!-- ExpConst0&#45;&gt;Value0: 12 -->
<g id="edge31" class="edge"><title>ExpConst0&#45;&gt;Value0: 12</title>
<path fill="none" stroke="black" d="M388.945,-71.6966C388.945,-63.9827 388.945,-54.7125 388.945,-46.1124"/>
<polygon fill="black" stroke="black" points="392.445,-46.1043 388.945,-36.1043 385.445,-46.1044 392.445,-46.1043"/>
</g>
<!-- StatLabel0 -->
<g id="node41" class="node"><title>StatLabel0</title>
<ellipse fill="none" stroke="black" cx="114.945" cy="-306" rx="48.9926" ry="18"/>
<text text-anchor="middle" x="114.945" y="-302.3" font-family="Times,serif" font-size="14.00">StatLabel0</text>
</g>
<!-- Label0: L68 -->
<g id="node42" class="node"><title>Label0: L68</title>
<ellipse fill="none" stroke="black" cx="53.9452" cy="-234" rx="53.8905" ry="18"/>
<text text-anchor="middle" x="53.9452" y="-230.3" font-family="Times,serif" font-size="14.00">Label0: L68</text>
</g>
<!-- StatLabel0&#45;&gt;Label0: L68 -->
<g id="edge33" class="edge"><title>StatLabel0&#45;&gt;Label0: L68</title>
<path fill="none" stroke="black" d="M100.797,-288.765C93.2083,-280.056 83.7016,-269.147 75.2386,-259.435"/>
<polygon fill="black" stroke="black" points="77.6485,-256.873 68.44,-251.633 72.3712,-261.472 77.6485,-256.873"/>
</g>
<!-- StatList0 -->
<g id="node43" class="node"><title>StatList0</title>
<ellipse fill="none" stroke="black" cx="709.945" cy="-378" rx="42.4939" ry="18"/>
<text text-anchor="middle" x="709.945" y="-374.3" font-family="Times,serif" font-size="14.00">StatList0</text>
</g>
<!-- StatList0&#45;&gt;StatCJump0 -->
<g id="edge40" class="edge"><title>StatList0&#45;&gt;StatCJump0</title>
<path fill="none" stroke="black" d="M751.132,-373.671C890.813,-362.38 1347.09,-325.499 1514.03,-312.004"/>
<polygon fill="black" stroke="black" points="1514.45,-315.482 1524.13,-311.188 1513.88,-308.505 1514.45,-315.482"/>
</g>
<!-- StatList0&#45;&gt;StatMove1 -->
<g id="edge36" class="edge"><title>StatList0&#45;&gt;StatMove1</title>
<path fill="none" stroke="black" d="M679.985,-365.284C650.636,-353.806 605.654,-336.216 572.783,-323.361"/>
<polygon fill="black" stroke="black" points="574.017,-320.086 563.429,-319.703 571.467,-326.605 574.017,-320.086"/>
</g>
<!-- StatList0&#45;&gt;StatMove4 -->
<g id="edge39" class="edge"><title>StatList0&#45;&gt;StatMove4</title>
<path fill="none" stroke="black" d="M749.756,-371.449C838.652,-359.053 1053.52,-329.092 1155.89,-314.816"/>
<polygon fill="black" stroke="black" points="1156.61,-318.25 1166.03,-313.402 1155.65,-311.317 1156.61,-318.25"/>
</g>
<!-- StatList0&#45;&gt;StatMove2 -->
<g id="edge37" class="edge"><title>StatList0&#45;&gt;StatMove2</title>
<path fill="none" stroke="black" d="M709.945,-359.697C709.945,-351.983 709.945,-342.712 709.945,-334.112"/>
<polygon fill="black" stroke="black" points="713.445,-334.104 709.945,-324.104 706.445,-334.104 713.445,-334.104"/>
</g>
<!-- StatList0&#45;&gt;StatLabel0 -->
<g id="edge34" class="edge"><title>StatList0&#45;&gt;StatLabel0</title>
<path fill="none" stroke="black" d="M669.144,-372.888C586.782,-364.492 394.793,-344.439 233.945,-324 212.781,-321.311 189.543,-318.058 169.263,-315.121"/>
<polygon fill="black" stroke="black" points="169.662,-311.643 159.262,-313.664 168.653,-318.569 169.662,-311.643"/>
</g>
<!-- StatMove0 -->
<g id="node44" class="node"><title>StatMove0</title>
<ellipse fill="none" stroke="black" cx="292.945" cy="-306" rx="50.0912" ry="18"/>
<text text-anchor="middle" x="292.945" y="-302.3" font-family="Times,serif" font-size="14.00">StatMove0</text>
</g>
<!-- StatList0&#45;&gt;StatMove0 -->
<g id="edge35" class="edge"><title>StatList0&#45;&gt;StatMove0</title>
<path fill="none" stroke="black" d="M671.462,-370.54C596.966,-358.035 432.87,-330.489 347.287,-316.122"/>
<polygon fill="black" stroke="black" points="347.692,-312.641 337.251,-314.437 346.533,-319.545 347.692,-312.641"/>
</g>
<!-- StatMove3 -->
<g id="node45" class="node"><title>StatMove3</title>
<ellipse fill="none" stroke="black" cx="893.945" cy="-306" rx="50.0912" ry="18"/>
<text text-anchor="middle" x="893.945" y="-302.3" font-family="Times,serif" font-size="14.00">StatMove3</text>
</g>
<!-- StatList0&#45;&gt;StatMove3 -->
<g id="edge38" class="edge"><title>StatList0&#45;&gt;StatMove3</title>
<path fill="none" stroke="black" d="M740.329,-365.441C770.522,-353.954 817.102,-336.234 851.056,-323.317"/>
<polygon fill="black" stroke="black" points="852.612,-326.469 860.714,-319.642 850.123,-319.927 852.612,-326.469"/>
</g>
<!-- StatMove0&#45;&gt;ExpMem0 -->
<g id="edge46" class="edge"><title>StatMove0&#45;&gt;ExpMem0</title>
<path fill="none" stroke="black" d="M292.945,-287.697C292.945,-279.983 292.945,-270.712 292.945,-262.112"/>
<polygon fill="black" stroke="black" points="296.445,-262.104 292.945,-252.104 289.445,-262.104 296.445,-262.104"/>
</g>
<!-- ExpTemp0 -->
<g id="node46" class="node"><title>ExpTemp0</title>
<ellipse fill="none" stroke="black" cx="175.945" cy="-234" rx="50.0912" ry="18"/>
<text text-anchor="middle" x="175.945" y="-230.3" font-family="Times,serif" font-size="14.00">ExpTemp0</text>
</g>
<!-- StatMove0&#45;&gt;ExpTemp0 -->
<g id="edge45" class="edge"><title>StatMove0&#45;&gt;ExpTemp0</title>
<path fill="none" stroke="black" d="M268.133,-290.155C251.069,-279.946 228.206,-266.267 209.517,-255.086"/>
<polygon fill="black" stroke="black" points="211.101,-251.955 200.722,-249.824 207.507,-257.962 211.101,-251.955"/>
</g>
<!-- ExpCall0 -->
<g id="node51" class="node"><title>ExpCall0</title>
<ellipse fill="none" stroke="black" cx="1012.95" cy="-234" rx="44.393" ry="18"/>
<text text-anchor="middle" x="1012.95" y="-230.3" font-family="Times,serif" font-size="14.00">ExpCall0</text>
</g>
<!-- StatMove3&#45;&gt;ExpCall0 -->
<g id="edge56" class="edge"><title>StatMove3&#45;&gt;ExpCall0</title>
<path fill="none" stroke="black" d="M918.892,-290.326C936.66,-279.874 960.72,-265.721 980.057,-254.346"/>
<polygon fill="black" stroke="black" points="982,-257.264 988.845,-249.177 978.451,-251.23 982,-257.264"/>
</g>
<!-- ExpTemp6 -->
<g id="node55" class="node"><title>ExpTemp6</title>
<ellipse fill="none" stroke="black" cx="893.945" cy="-234" rx="50.0912" ry="18"/>
<text text-anchor="middle" x="893.945" y="-230.3" font-family="Times,serif" font-size="14.00">ExpTemp6</text>
</g>
<!-- StatMove3&#45;&gt;ExpTemp6 -->
<g id="edge55" class="edge"><title>StatMove3&#45;&gt;ExpTemp6</title>
<path fill="none" stroke="black" d="M893.945,-287.697C893.945,-279.983 893.945,-270.712 893.945,-262.112"/>
<polygon fill="black" stroke="black" points="897.445,-262.104 893.945,-252.104 890.445,-262.104 897.445,-262.104"/>
</g>
<!-- Temp0: T7 -->
<g id="node47" class="node"><title>Temp0: T7</title>
<ellipse fill="none" stroke="black" cx="167.945" cy="-162" rx="50.8918" ry="18"/>
<text text-anchor="middle" x="167.945" y="-158.3" font-family="Times,serif" font-size="14.00">Temp0: T7</text>
</g>
<!-- ExpTemp0&#45;&gt;Temp0: T7 -->
<g id="edge41" class="edge"><title>ExpTemp0&#45;&gt;Temp0: T7</title>
<path fill="none" stroke="black" d="M173.968,-215.697C173.086,-207.983 172.027,-198.712 171.044,-190.112"/>
<polygon fill="black" stroke="black" points="174.513,-189.642 169.9,-180.104 167.558,-190.437 174.513,-189.642"/>
</g>
<!-- Temp1: $fp -->
<g id="node53" class="node"><title>Temp1: $fp</title>
<ellipse fill="none" stroke="black" cx="190.945" cy="-18" rx="52.7911" ry="18"/>
<text text-anchor="middle" x="190.945" y="-14.3" font-family="Times,serif" font-size="14.00">Temp1: $fp</text>
</g>
<!-- ExpTemp1&#45;&gt;Temp1: $fp -->
<g id="edge51" class="edge"><title>ExpTemp1&#45;&gt;Temp1: $fp</title>
<path fill="none" stroke="black" d="M190.945,-71.6966C190.945,-63.9827 190.945,-54.7125 190.945,-46.1124"/>
<polygon fill="black" stroke="black" points="194.445,-46.1043 190.945,-36.1043 187.445,-46.1044 194.445,-46.1043"/>
</g>
<!-- ExpCall0&#45;&gt;ExpList0 -->
<g id="edge50" class="edge"><title>ExpCall0&#45;&gt;ExpList0</title>
<path fill="none" stroke="black" d="M1036.15,-218.496C1052.67,-208.172 1075.07,-194.174 1093.23,-182.819"/>
<polygon fill="black" stroke="black" points="1095.14,-185.753 1101.77,-177.485 1091.43,-179.818 1095.14,-185.753"/>
</g>
<!-- ExpName0 -->
<g id="node52" class="node"><title>ExpName0</title>
<ellipse fill="none" stroke="black" cx="1012.95" cy="-162" rx="50.8918" ry="18"/>
<text text-anchor="middle" x="1012.95" y="-158.3" font-family="Times,serif" font-size="14.00">ExpName0</text>
</g>
<!-- ExpCall0&#45;&gt;ExpName0 -->
<g id="edge49" class="edge"><title>ExpCall0&#45;&gt;ExpName0</title>
<path fill="none" stroke="black" d="M1012.95,-215.697C1012.95,-207.983 1012.95,-198.712 1012.95,-190.112"/>
<polygon fill="black" stroke="black" points="1016.45,-190.104 1012.95,-180.104 1009.45,-190.104 1016.45,-190.104"/>
</g>
<!-- Label1: Tree@GetKey -->
<g id="node58" class="node"><title>Label1: Tree@GetKey</title>
<ellipse fill="none" stroke="black" cx="1012.95" cy="-90" rx="91.784" ry="18"/>
<text text-anchor="middle" x="1012.95" y="-86.3" font-family="Times,serif" font-size="14.00">Label1: Tree@GetKey</text>
</g>
<!-- ExpName0&#45;&gt;Label1: Tree@GetKey -->
<g id="edge57" class="edge"><title>ExpName0&#45;&gt;Label1: Tree@GetKey</title>
<path fill="none" stroke="black" d="M1012.95,-143.697C1012.95,-135.983 1012.95,-126.712 1012.95,-118.112"/>
<polygon fill="black" stroke="black" points="1016.45,-118.104 1012.95,-108.104 1009.45,-118.104 1016.45,-118.104"/>
</g>
<!-- Temp6: T6 -->
<g id="node56" class="node"><title>Temp6: T6</title>
<ellipse fill="none" stroke="black" cx="893.945" cy="-162" rx="50.8918" ry="18"/>
<text text-anchor="middle" x="893.945" y="-158.3" font-family="Times,serif" font-size="14.00">Temp6: T6</text>
</g>
<!-- ExpTemp6&#45;&gt;Temp6: T6 -->
<g id="edge53" class="edge"><title>ExpTemp6&#45;&gt;Temp6: T6</title>
<path fill="none" stroke="black" d="M893.945,-215.697C893.945,-207.983 893.945,-198.712 893.945,-190.112"/>
<polygon fill="black" stroke="black" points="897.445,-190.104 893.945,-180.104 890.445,-190.104 897.445,-190.104"/>
</g>
</g>
</svg>
