<?xml version="1.0" encoding="UTF-8" standalone="no"?>
<!DOCTYPE svg PUBLIC "-//W3C//DTD SVG 1.1//EN"
 "http://www.w3.org/Graphics/SVG/1.1/DTD/svg11.dtd">
<!-- Generated by graphviz version 2.38.0 (20140413.2041)
 -->
<!-- Title: %3 Pages: 1 -->
<svg width="1868pt" height="404pt"
 viewBox="0.00 0.00 1867.89 404.00" xmlns="http://www.w3.org/2000/svg" xmlns:xlink="http://www.w3.org/1999/xlink">
<g id="graph0" class="graph" transform="scale(1 1) rotate(0) translate(4 400)">
<title>%3</title>
<polygon fill="white" stroke="none" points="-4,4 -4,-400 1863.89,-400 1863.89,4 -4,4"/>
<!-- ExpList0 -->
<g id="node1" class="node"><title>ExpList0</title>
<ellipse fill="none" stroke="black" cx="1488.95" cy="-162" rx="42.7926" ry="18"/>
<text text-anchor="middle" x="1488.95" y="-158.3" font-family="Times,serif" font-size="14.00">ExpList0</text>
</g>
<!-- ExpTemp9 -->
<g id="node2" class="node"><title>ExpTemp9</title>
<ellipse fill="none" stroke="black" cx="1494.95" cy="-90" rx="50.0912" ry="18"/>
<text text-anchor="middle" x="1494.95" y="-86.3" font-family="Times,serif" font-size="14.00">ExpTemp9</text>
</g>
<!-- ExpList0&#45;&gt;ExpTemp9 -->
<g id="edge1" class="edge"><title>ExpList0&#45;&gt;ExpTemp9</title>
<path fill="none" stroke="black" d="M1490.43,-143.697C1491.09,-135.983 1491.88,-126.712 1492.62,-118.112"/>
<polygon fill="black" stroke="black" points="1496.11,-118.367 1493.48,-108.104 1489.14,-117.769 1496.11,-118.367"/>
</g>
<!-- Temp9: T20 -->
<g id="node3" class="node"><title>Temp9: T20</title>
<ellipse fill="none" stroke="black" cx="1494.95" cy="-18" rx="55.4913" ry="18"/>
<text text-anchor="middle" x="1494.95" y="-14.3" font-family="Times,serif" font-size="14.00">Temp9: T20</text>
</g>
<!-- ExpTemp9&#45;&gt;Temp9: T20 -->
<g id="edge2" class="edge"><title>ExpTemp9&#45;&gt;Temp9: T20</title>
<path fill="none" stroke="black" d="M1494.95,-71.6966C1494.95,-63.9827 1494.95,-54.7125 1494.95,-46.1124"/>
<polygon fill="black" stroke="black" points="1498.45,-46.1043 1494.95,-36.1043 1491.45,-46.1044 1498.45,-46.1043"/>
</g>
<!-- StatJump0 -->
<g id="node4" class="node"><title>StatJump0</title>
<ellipse fill="none" stroke="black" cx="1736.95" cy="-306" rx="48.1917" ry="18"/>
<text text-anchor="middle" x="1736.95" y="-302.3" font-family="Times,serif" font-size="14.00">StatJump0</text>
</g>
<!-- Label2: L60 -->
<g id="node5" class="node"><title>Label2: L60</title>
<ellipse fill="none" stroke="black" cx="1805.95" cy="-234" rx="53.8905" ry="18"/>
<text text-anchor="middle" x="1805.95" y="-230.3" font-family="Times,serif" font-size="14.00">Label2: L60</text>
</g>
<!-- StatJump0&#45;&gt;Label2: L60 -->
<g id="edge3" class="edge"><title>StatJump0&#45;&gt;Label2: L60</title>
<path fill="none" stroke="black" d="M1752.95,-288.765C1761.7,-279.882 1772.72,-268.709 1782.43,-258.854"/>
<polygon fill="black" stroke="black" points="1785.02,-261.212 1789.55,-251.633 1780.04,-256.298 1785.02,-261.212"/>
</g>
<!-- ExpCall0 -->
<g id="node6" class="node"><title>ExpCall0</title>
<ellipse fill="none" stroke="black" cx="1377.95" cy="-234" rx="44.393" ry="18"/>
<text text-anchor="middle" x="1377.95" y="-230.3" font-family="Times,serif" font-size="14.00">ExpCall0</text>
</g>
<!-- ExpCall0&#45;&gt;ExpList0 -->
<g id="edge5" class="edge"><title>ExpCall0&#45;&gt;ExpList0</title>
<path fill="none" stroke="black" d="M1400.94,-218.496C1417.17,-208.266 1439.11,-194.428 1457.03,-183.13"/>
<polygon fill="black" stroke="black" points="1459.38,-185.78 1465.98,-177.485 1455.65,-179.859 1459.38,-185.78"/>
</g>
<!-- ExpTemp8 -->
<g id="node7" class="node"><title>ExpTemp8</title>
<ellipse fill="none" stroke="black" cx="1377.95" cy="-162" rx="50.0912" ry="18"/>
<text text-anchor="middle" x="1377.95" y="-158.3" font-family="Times,serif" font-size="14.00">ExpTemp8</text>
</g>
<!-- ExpCall0&#45;&gt;ExpTemp8 -->
<g id="edge4" class="edge"><title>ExpCall0&#45;&gt;ExpTemp8</title>
<path fill="none" stroke="black" d="M1377.95,-215.697C1377.95,-207.983 1377.95,-198.712 1377.95,-190.112"/>
<polygon fill="black" stroke="black" points="1381.45,-190.104 1377.95,-180.104 1374.45,-190.104 1381.45,-190.104"/>
</g>
<!-- Temp8: T19 -->
<g id="node8" class="node"><title>Temp8: T19</title>
<ellipse fill="none" stroke="black" cx="1371.95" cy="-90" rx="55.4913" ry="18"/>
<text text-anchor="middle" x="1371.95" y="-86.3" font-family="Times,serif" font-size="14.00">Temp8: T19</text>
</g>
<!-- ExpTemp8&#45;&gt;Temp8: T19 -->
<g id="edge6" class="edge"><title>ExpTemp8&#45;&gt;Temp8: T19</title>
<path fill="none" stroke="black" d="M1376.46,-143.697C1375.8,-135.983 1375.01,-126.712 1374.27,-118.112"/>
<polygon fill="black" stroke="black" points="1377.75,-117.769 1373.41,-108.104 1370.78,-118.367 1377.75,-117.769"/>
</g>
<!-- StatMove1 -->
<g id="node9" class="node"><title>StatMove1</title>
<ellipse fill="none" stroke="black" cx="536.945" cy="-306" rx="50.0912" ry="18"/>
<text text-anchor="middle" x="536.945" y="-302.3" font-family="Times,serif" font-size="14.00">StatMove1</text>
</g>
<!-- ExpTemp2 -->
<g id="node10" class="node"><title>ExpTemp2</title>
<ellipse fill="none" stroke="black" cx="415.945" cy="-234" rx="50.0912" ry="18"/>
<text text-anchor="middle" x="415.945" y="-230.3" font-family="Times,serif" font-size="14.00">ExpTemp2</text>
</g>
<!-- StatMove1&#45;&gt;ExpTemp2 -->
<g id="edge7" class="edge"><title>StatMove1&#45;&gt;ExpTemp2</title>
<path fill="none" stroke="black" d="M511.58,-290.326C493.752,-280.012 469.695,-266.095 450.17,-254.8"/>
<polygon fill="black" stroke="black" points="451.686,-251.633 441.277,-249.655 448.181,-257.692 451.686,-251.633"/>
</g>
<!-- ExpTemp3 -->
<g id="node11" class="node"><title>ExpTemp3</title>
<ellipse fill="none" stroke="black" cx="536.945" cy="-234" rx="50.0912" ry="18"/>
<text text-anchor="middle" x="536.945" y="-230.3" font-family="Times,serif" font-size="14.00">ExpTemp3</text>
</g>
<!-- StatMove1&#45;&gt;ExpTemp3 -->
<g id="edge8" class="edge"><title>StatMove1&#45;&gt;ExpTemp3</title>
<path fill="none" stroke="black" d="M536.945,-287.697C536.945,-279.983 536.945,-270.712 536.945,-262.112"/>
<polygon fill="black" stroke="black" points="540.445,-262.104 536.945,-252.104 533.445,-262.104 540.445,-262.104"/>
</g>
<!-- Temp2: T21 -->
<g id="node21" class="node"><title>Temp2: T21</title>
<ellipse fill="none" stroke="black" cx="412.945" cy="-162" rx="55.4913" ry="18"/>
<text text-anchor="middle" x="412.945" y="-158.3" font-family="Times,serif" font-size="14.00">Temp2: T21</text>
</g>
<!-- ExpTemp2&#45;&gt;Temp2: T21 -->
<g id="edge16" class="edge"><title>ExpTemp2&#45;&gt;Temp2: T21</title>
<path fill="none" stroke="black" d="M415.204,-215.697C414.873,-207.983 414.476,-198.712 414.107,-190.112"/>
<polygon fill="black" stroke="black" points="417.603,-189.945 413.678,-180.104 410.61,-190.245 417.603,-189.945"/>
</g>
<!-- Temp3: T4 -->
<g id="node40" class="node"><title>Temp3: T4</title>
<ellipse fill="none" stroke="black" cx="536.945" cy="-162" rx="50.8918" ry="18"/>
<text text-anchor="middle" x="536.945" y="-158.3" font-family="Times,serif" font-size="14.00">Temp3: T4</text>
</g>
<!-- ExpTemp3&#45;&gt;Temp3: T4 -->
<g id="edge36" class="edge"><title>ExpTemp3&#45;&gt;Temp3: T4</title>
<path fill="none" stroke="black" d="M536.945,-215.697C536.945,-207.983 536.945,-198.712 536.945,-190.112"/>
<polygon fill="black" stroke="black" points="540.445,-190.104 536.945,-180.104 533.445,-190.104 540.445,-190.104"/>
</g>
<!-- StatMove5 -->
<g id="node12" class="node"><title>StatMove5</title>
<ellipse fill="none" stroke="black" cx="1551.95" cy="-306" rx="50.0912" ry="18"/>
<text text-anchor="middle" x="1551.95" y="-302.3" font-family="Times,serif" font-size="14.00">StatMove5</text>
</g>
<!-- ExpTemp10 -->
<g id="node13" class="node"><title>ExpTemp10</title>
<ellipse fill="none" stroke="black" cx="1551.95" cy="-234" rx="54.6905" ry="18"/>
<text text-anchor="middle" x="1551.95" y="-230.3" font-family="Times,serif" font-size="14.00">ExpTemp10</text>
</g>
<!-- StatMove5&#45;&gt;ExpTemp10 -->
<g id="edge9" class="edge"><title>StatMove5&#45;&gt;ExpTemp10</title>
<path fill="none" stroke="black" d="M1551.95,-287.697C1551.95,-279.983 1551.95,-270.712 1551.95,-262.112"/>
<polygon fill="black" stroke="black" points="1555.45,-262.104 1551.95,-252.104 1548.45,-262.104 1555.45,-262.104"/>
</g>
<!-- ExpTemp11 -->
<g id="node14" class="node"><title>ExpTemp11</title>
<ellipse fill="none" stroke="black" cx="1678.95" cy="-234" rx="54.6905" ry="18"/>
<text text-anchor="middle" x="1678.95" y="-230.3" font-family="Times,serif" font-size="14.00">ExpTemp11</text>
</g>
<!-- StatMove5&#45;&gt;ExpTemp11 -->
<g id="edge10" class="edge"><title>StatMove5&#45;&gt;ExpTemp11</title>
<path fill="none" stroke="black" d="M1578.26,-290.496C1597.12,-280.101 1622.74,-265.981 1643.41,-254.585"/>
<polygon fill="black" stroke="black" points="1645.16,-257.619 1652.23,-249.726 1641.78,-251.488 1645.16,-257.619"/>
</g>
<!-- Temp10: T22 -->
<g id="node20" class="node"><title>Temp10: T22</title>
<ellipse fill="none" stroke="black" cx="1609.95" cy="-162" rx="59.5901" ry="18"/>
<text text-anchor="middle" x="1609.95" y="-158.3" font-family="Times,serif" font-size="14.00">Temp10: T22</text>
</g>
<!-- ExpTemp10&#45;&gt;Temp10: T22 -->
<g id="edge15" class="edge"><title>ExpTemp10&#45;&gt;Temp10: T22</title>
<path fill="none" stroke="black" d="M1565.69,-216.411C1572.74,-207.906 1581.47,-197.372 1589.3,-187.914"/>
<polygon fill="black" stroke="black" points="1592.21,-189.89 1595.9,-179.956 1586.82,-185.423 1592.21,-189.89"/>
</g>
<!-- Temp11: T4 -->
<g id="node48" class="node"><title>Temp11: T4</title>
<ellipse fill="none" stroke="black" cx="1742.95" cy="-162" rx="55.4913" ry="18"/>
<text text-anchor="middle" x="1742.95" y="-158.3" font-family="Times,serif" font-size="14.00">Temp11: T4</text>
</g>
<!-- ExpTemp11&#45;&gt;Temp11: T4 -->
<g id="edge42" class="edge"><title>ExpTemp11&#45;&gt;Temp11: T4</title>
<path fill="none" stroke="black" d="M1694.11,-216.411C1702.16,-207.606 1712.2,-196.628 1721.08,-186.919"/>
<polygon fill="black" stroke="black" points="1723.72,-189.212 1727.89,-179.47 1718.56,-184.489 1723.72,-189.212"/>
</g>
<!-- ExpConst1 -->
<g id="node15" class="node"><title>ExpConst1</title>
<ellipse fill="none" stroke="black" cx="1226.95" cy="-90" rx="50.0912" ry="18"/>
<text text-anchor="middle" x="1226.95" y="-86.3" font-family="Times,serif" font-size="14.00">ExpConst1</text>
</g>
<!-- Value1: 16 -->
<g id="node16" class="node"><title>Value1: 16</title>
<ellipse fill="none" stroke="black" cx="1226.95" cy="-18" rx="50.0912" ry="18"/>
<text text-anchor="middle" x="1226.95" y="-14.3" font-family="Times,serif" font-size="14.00">Value1: 16</text>
</g>
<!-- ExpConst1&#45;&gt;Value1: 16 -->
<g id="edge11" class="edge"><title>ExpConst1&#45;&gt;Value1: 16</title>
<path fill="none" stroke="black" d="M1226.95,-71.6966C1226.95,-63.9827 1226.95,-54.7125 1226.95,-46.1124"/>
<polygon fill="black" stroke="black" points="1230.45,-46.1043 1226.95,-36.1043 1223.45,-46.1044 1230.45,-46.1043"/>
</g>
<!-- ExpBinary1 -->
<g id="node17" class="node"><title>ExpBinary1</title>
<ellipse fill="none" stroke="black" cx="1127.95" cy="-162" rx="53.0913" ry="18"/>
<text text-anchor="middle" x="1127.95" y="-158.3" font-family="Times,serif" font-size="14.00">ExpBinary1</text>
</g>
<!-- ExpBinary1&#45;&gt;ExpConst1 -->
<g id="edge14" class="edge"><title>ExpBinary1&#45;&gt;ExpConst1</title>
<path fill="none" stroke="black" d="M1149.92,-145.465C1163.73,-135.7 1181.73,-122.972 1196.85,-112.276"/>
<polygon fill="black" stroke="black" points="1199.23,-114.882 1205.38,-106.251 1195.19,-109.167 1199.23,-114.882"/>
</g>
<!-- ExpTemp6 -->
<g id="node18" class="node"><title>ExpTemp6</title>
<ellipse fill="none" stroke="black" cx="1028.95" cy="-90" rx="50.0912" ry="18"/>
<text text-anchor="middle" x="1028.95" y="-86.3" font-family="Times,serif" font-size="14.00">ExpTemp6</text>
</g>
<!-- ExpBinary1&#45;&gt;ExpTemp6 -->
<g id="edge12" class="edge"><title>ExpBinary1&#45;&gt;ExpTemp6</title>
<path fill="none" stroke="black" d="M1105.97,-145.465C1092.16,-135.7 1074.16,-122.972 1059.04,-112.276"/>
<polygon fill="black" stroke="black" points="1060.7,-109.167 1050.51,-106.251 1056.66,-114.882 1060.7,-109.167"/>
</g>
<!-- Plus1 -->
<g id="node19" class="node"><title>Plus1</title>
<ellipse fill="none" stroke="black" cx="1127.95" cy="-90" rx="30.5947" ry="18"/>
<text text-anchor="middle" x="1127.95" y="-86.3" font-family="Times,serif" font-size="14.00">Plus1</text>
</g>
<!-- ExpBinary1&#45;&gt;Plus1 -->
<g id="edge13" class="edge"><title>ExpBinary1&#45;&gt;Plus1</title>
<path fill="none" stroke="black" d="M1127.95,-143.697C1127.95,-135.983 1127.95,-126.712 1127.95,-118.112"/>
<polygon fill="black" stroke="black" points="1131.45,-118.104 1127.95,-108.104 1124.45,-118.104 1131.45,-118.104"/>
</g>
<!-- Temp6: $fp -->
<g id="node49" class="node"><title>Temp6: $fp</title>
<ellipse fill="none" stroke="black" cx="1028.95" cy="-18" rx="52.7911" ry="18"/>
<text text-anchor="middle" x="1028.95" y="-14.3" font-family="Times,serif" font-size="14.00">Temp6: $fp</text>
</g>
<!-- ExpTemp6&#45;&gt;Temp6: $fp -->
<g id="edge45" class="edge"><title>ExpTemp6&#45;&gt;Temp6: $fp</title>
<path fill="none" stroke="black" d="M1028.95,-71.6966C1028.95,-63.9827 1028.95,-54.7125 1028.95,-46.1124"/>
<polygon fill="black" stroke="black" points="1032.45,-46.1043 1028.95,-36.1043 1025.45,-46.1044 1032.45,-46.1043"/>
</g>
<!-- StatMove2 -->
<g id="node22" class="node"><title>StatMove2</title>
<ellipse fill="none" stroke="black" cx="830.945" cy="-306" rx="50.0912" ry="18"/>
<text text-anchor="middle" x="830.945" y="-302.3" font-family="Times,serif" font-size="14.00">StatMove2</text>
</g>
<!-- ExpTemp4 -->
<g id="node23" class="node"><title>ExpTemp4</title>
<ellipse fill="none" stroke="black" cx="685.945" cy="-234" rx="50.0912" ry="18"/>
<text text-anchor="middle" x="685.945" y="-230.3" font-family="Times,serif" font-size="14.00">ExpTemp4</text>
</g>
<!-- StatMove2&#45;&gt;ExpTemp4 -->
<g id="edge17" class="edge"><title>StatMove2&#45;&gt;ExpTemp4</title>
<path fill="none" stroke="black" d="M802.298,-291.17C779.757,-280.288 748.157,-265.033 723.577,-253.167"/>
<polygon fill="black" stroke="black" points="725.06,-249.997 714.533,-248.801 722.017,-256.3 725.06,-249.997"/>
</g>
<!-- ExpName0 -->
<g id="node24" class="node"><title>ExpName0</title>
<ellipse fill="none" stroke="black" cx="830.945" cy="-234" rx="50.8918" ry="18"/>
<text text-anchor="middle" x="830.945" y="-230.3" font-family="Times,serif" font-size="14.00">ExpName0</text>
</g>
<!-- StatMove2&#45;&gt;ExpName0 -->
<g id="edge18" class="edge"><title>StatMove2&#45;&gt;ExpName0</title>
<path fill="none" stroke="black" d="M830.945,-287.697C830.945,-279.983 830.945,-270.712 830.945,-262.112"/>
<polygon fill="black" stroke="black" points="834.445,-262.104 830.945,-252.104 827.445,-262.104 834.445,-262.104"/>
</g>
<!-- Temp4: T19 -->
<g id="node42" class="node"><title>Temp4: T19</title>
<ellipse fill="none" stroke="black" cx="660.945" cy="-162" rx="55.4913" ry="18"/>
<text text-anchor="middle" x="660.945" y="-158.3" font-family="Times,serif" font-size="14.00">Temp4: T19</text>
</g>
<!-- ExpTemp4&#45;&gt;Temp4: T19 -->
<g id="edge38" class="edge"><title>ExpTemp4&#45;&gt;Temp4: T19</title>
<path fill="none" stroke="black" d="M679.893,-216.055C677.08,-208.176 673.665,-198.617 670.515,-189.794"/>
<polygon fill="black" stroke="black" points="673.774,-188.516 667.115,-180.275 667.182,-190.87 673.774,-188.516"/>
</g>
<!-- Label1: Tree@GetRight -->
<g id="node41" class="node"><title>Label1: Tree@GetRight</title>
<ellipse fill="none" stroke="black" cx="830.945" cy="-162" rx="96.6831" ry="18"/>
<text text-anchor="middle" x="830.945" y="-158.3" font-family="Times,serif" font-size="14.00">Label1: Tree@GetRight</text>
</g>
<!-- ExpName0&#45;&gt;Label1: Tree@GetRight -->
<g id="edge37" class="edge"><title>ExpName0&#45;&gt;Label1: Tree@GetRight</title>
<path fill="none" stroke="black" d="M830.945,-215.697C830.945,-207.983 830.945,-198.712 830.945,-190.112"/>
<polygon fill="black" stroke="black" points="834.445,-190.104 830.945,-180.104 827.445,-190.104 834.445,-190.104"/>
</g>
<!-- ExpConst0 -->
<g id="node25" class="node"><title>ExpConst0</title>
<ellipse fill="none" stroke="black" cx="384.945" cy="-90" rx="50.0912" ry="18"/>
<text text-anchor="middle" x="384.945" y="-86.3" font-family="Times,serif" font-size="14.00">ExpConst0</text>
</g>
<!-- Value0: 16 -->
<g id="node26" class="node"><title>Value0: 16</title>
<ellipse fill="none" stroke="black" cx="384.945" cy="-18" rx="50.0912" ry="18"/>
<text text-anchor="middle" x="384.945" y="-14.3" font-family="Times,serif" font-size="14.00">Value0: 16</text>
</g>
<!-- ExpConst0&#45;&gt;Value0: 16 -->
<g id="edge19" class="edge"><title>ExpConst0&#45;&gt;Value0: 16</title>
<path fill="none" stroke="black" d="M384.945,-71.6966C384.945,-63.9827 384.945,-54.7125 384.945,-46.1124"/>
<polygon fill="black" stroke="black" points="388.445,-46.1043 384.945,-36.1043 381.445,-46.1044 388.445,-46.1043"/>
</g>
<!-- ExpMem1 -->
<g id="node27" class="node"><title>ExpMem1</title>
<ellipse fill="none" stroke="black" cx="1122.95" cy="-234" rx="48.9926" ry="18"/>
<text text-anchor="middle" x="1122.95" y="-230.3" font-family="Times,serif" font-size="14.00">ExpMem1</text>
</g>
<!-- ExpMem1&#45;&gt;ExpBinary1 -->
<g id="edge20" class="edge"><title>ExpMem1&#45;&gt;ExpBinary1</title>
<path fill="none" stroke="black" d="M1124.18,-215.697C1124.73,-207.983 1125.39,-198.712 1126.01,-190.112"/>
<polygon fill="black" stroke="black" points="1129.5,-190.328 1126.72,-180.104 1122.52,-189.83 1129.5,-190.328"/>
</g>
<!-- StatLabel0 -->
<g id="node28" class="node"><title>StatLabel0</title>
<ellipse fill="none" stroke="black" cx="114.945" cy="-306" rx="48.9926" ry="18"/>
<text text-anchor="middle" x="114.945" y="-302.3" font-family="Times,serif" font-size="14.00">StatLabel0</text>
</g>
<!-- Label0: L58 -->
<g id="node29" class="node"><title>Label0: L58</title>
<ellipse fill="none" stroke="black" cx="53.9452" cy="-234" rx="53.8905" ry="18"/>
<text text-anchor="middle" x="53.9452" y="-230.3" font-family="Times,serif" font-size="14.00">Label0: L58</text>
</g>
<!-- StatLabel0&#45;&gt;Label0: L58 -->
<g id="edge21" class="edge"><title>StatLabel0&#45;&gt;Label0: L58</title>
<path fill="none" stroke="black" d="M100.797,-288.765C93.2083,-280.056 83.7016,-269.147 75.2386,-259.435"/>
<polygon fill="black" stroke="black" points="77.6485,-256.873 68.44,-251.633 72.3712,-261.472 77.6485,-256.873"/>
</g>
<!-- StatList0 -->
<g id="node30" class="node"><title>StatList0</title>
<ellipse fill="none" stroke="black" cx="915.945" cy="-378" rx="42.4939" ry="18"/>
<text text-anchor="middle" x="915.945" y="-374.3" font-family="Times,serif" font-size="14.00">StatList0</text>
</g>
<!-- StatList0&#45;&gt;StatJump0 -->
<g id="edge29" class="edge"><title>StatList0&#45;&gt;StatJump0</title>
<path fill="none" stroke="black" d="M957.54,-374.672C1065.53,-368.446 1363.64,-350.091 1610.95,-324 1634.64,-321.5 1660.77,-318.085 1683.05,-314.971"/>
<polygon fill="black" stroke="black" points="1683.58,-318.431 1693,-313.566 1682.6,-311.499 1683.58,-318.431"/>
</g>
<!-- StatList0&#45;&gt;StatMove1 -->
<g id="edge24" class="edge"><title>StatList0&#45;&gt;StatMove1</title>
<path fill="none" stroke="black" d="M877.87,-369.968C810.053,-357.442 668.195,-331.241 590.552,-316.901"/>
<polygon fill="black" stroke="black" points="590.964,-313.418 580.495,-315.043 589.693,-320.302 590.964,-313.418"/>
</g>
<!-- StatList0&#45;&gt;StatMove5 -->
<g id="edge28" class="edge"><title>StatList0&#45;&gt;StatMove5</title>
<path fill="none" stroke="black" d="M956.697,-372.515C1066.3,-360.452 1367.63,-327.287 1494.47,-313.326"/>
<polygon fill="black" stroke="black" points="1495.19,-316.768 1504.75,-312.195 1494.43,-309.81 1495.19,-316.768"/>
</g>
<!-- StatList0&#45;&gt;StatMove2 -->
<g id="edge25" class="edge"><title>StatList0&#45;&gt;StatMove2</title>
<path fill="none" stroke="black" d="M897.081,-361.465C885.606,-352.015 870.761,-339.79 858.044,-329.316"/>
<polygon fill="black" stroke="black" points="859.995,-326.389 850.051,-322.734 855.545,-331.793 859.995,-326.389"/>
</g>
<!-- StatList0&#45;&gt;StatLabel0 -->
<g id="edge22" class="edge"><title>StatList0&#45;&gt;StatLabel0</title>
<path fill="none" stroke="black" d="M874.341,-374.702C767.697,-368.609 475.939,-350.66 233.945,-324 212.65,-321.654 189.298,-318.456 168.964,-315.466"/>
<polygon fill="black" stroke="black" points="169.346,-311.985 158.94,-313.974 168.315,-318.908 169.346,-311.985"/>
</g>
<!-- StatMove0 -->
<g id="node31" class="node"><title>StatMove0</title>
<ellipse fill="none" stroke="black" cx="292.945" cy="-306" rx="50.0912" ry="18"/>
<text text-anchor="middle" x="292.945" y="-302.3" font-family="Times,serif" font-size="14.00">StatMove0</text>
</g>
<!-- StatList0&#45;&gt;StatMove0 -->
<g id="edge23" class="edge"><title>StatList0&#45;&gt;StatMove0</title>
<path fill="none" stroke="black" d="M875.548,-372.461C768.021,-360.379 474.553,-327.405 350.03,-313.414"/>
<polygon fill="black" stroke="black" points="350.265,-309.919 339.937,-312.28 349.484,-316.875 350.265,-309.919"/>
</g>
<!-- StatMove3 -->
<g id="node32" class="node"><title>StatMove3</title>
<ellipse fill="none" stroke="black" cx="1000.95" cy="-306" rx="50.0912" ry="18"/>
<text text-anchor="middle" x="1000.95" y="-302.3" font-family="Times,serif" font-size="14.00">StatMove3</text>
</g>
<!-- StatList0&#45;&gt;StatMove3 -->
<g id="edge26" class="edge"><title>StatList0&#45;&gt;StatMove3</title>
<path fill="none" stroke="black" d="M934.809,-361.465C946.284,-352.015 961.129,-339.79 973.847,-329.316"/>
<polygon fill="black" stroke="black" points="976.345,-331.793 981.84,-322.734 971.895,-326.389 976.345,-331.793"/>
</g>
<!-- StatMove4 -->
<g id="node33" class="node"><title>StatMove4</title>
<ellipse fill="none" stroke="black" cx="1254.95" cy="-306" rx="50.0912" ry="18"/>
<text text-anchor="middle" x="1254.95" y="-302.3" font-family="Times,serif" font-size="14.00">StatMove4</text>
</g>
<!-- StatList0&#45;&gt;StatMove4 -->
<g id="edge27" class="edge"><title>StatList0&#45;&gt;StatMove4</title>
<path fill="none" stroke="black" d="M953.194,-369.309C1013.77,-356.801 1133.78,-332.019 1202.8,-317.767"/>
<polygon fill="black" stroke="black" points="1203.52,-321.193 1212.6,-315.743 1202.1,-314.338 1203.52,-321.193"/>
</g>
<!-- ExpTemp0 -->
<g id="node34" class="node"><title>ExpTemp0</title>
<ellipse fill="none" stroke="black" cx="175.945" cy="-234" rx="50.0912" ry="18"/>
<text text-anchor="middle" x="175.945" y="-230.3" font-family="Times,serif" font-size="14.00">ExpTemp0</text>
</g>
<!-- StatMove0&#45;&gt;ExpTemp0 -->
<g id="edge34" class="edge"><title>StatMove0&#45;&gt;ExpTemp0</title>
<path fill="none" stroke="black" d="M268.133,-290.155C251.069,-279.946 228.206,-266.267 209.517,-255.086"/>
<polygon fill="black" stroke="black" points="211.101,-251.955 200.722,-249.824 207.507,-257.962 211.101,-251.955"/>
</g>
<!-- ExpMem0 -->
<g id="node39" class="node"><title>ExpMem0</title>
<ellipse fill="none" stroke="black" cx="292.945" cy="-234" rx="48.9926" ry="18"/>
<text text-anchor="middle" x="292.945" y="-230.3" font-family="Times,serif" font-size="14.00">ExpMem0</text>
</g>
<!-- StatMove0&#45;&gt;ExpMem0 -->
<g id="edge35" class="edge"><title>StatMove0&#45;&gt;ExpMem0</title>
<path fill="none" stroke="black" d="M292.945,-287.697C292.945,-279.983 292.945,-270.712 292.945,-262.112"/>
<polygon fill="black" stroke="black" points="296.445,-262.104 292.945,-252.104 289.445,-262.104 296.445,-262.104"/>
</g>
<!-- StatMove3&#45;&gt;ExpMem1 -->
<g id="edge44" class="edge"><title>StatMove3&#45;&gt;ExpMem1</title>
<path fill="none" stroke="black" d="M1026.52,-290.326C1044.58,-279.965 1068.97,-265.969 1088.7,-254.646"/>
<polygon fill="black" stroke="black" points="1090.47,-257.668 1097.4,-249.655 1086.99,-251.596 1090.47,-257.668"/>
</g>
<!-- ExpTemp5 -->
<g id="node46" class="node"><title>ExpTemp5</title>
<ellipse fill="none" stroke="black" cx="1000.95" cy="-234" rx="50.0912" ry="18"/>
<text text-anchor="middle" x="1000.95" y="-230.3" font-family="Times,serif" font-size="14.00">ExpTemp5</text>
</g>
<!-- StatMove3&#45;&gt;ExpTemp5 -->
<g id="edge43" class="edge"><title>StatMove3&#45;&gt;ExpTemp5</title>
<path fill="none" stroke="black" d="M1000.95,-287.697C1000.95,-279.983 1000.95,-270.712 1000.95,-262.112"/>
<polygon fill="black" stroke="black" points="1004.45,-262.104 1000.95,-252.104 997.445,-262.104 1004.45,-262.104"/>
</g>
<!-- StatMove4&#45;&gt;ExpCall0 -->
<g id="edge48" class="edge"><title>StatMove4&#45;&gt;ExpCall0</title>
<path fill="none" stroke="black" d="M1280.43,-290.496C1298.98,-279.939 1324.28,-265.541 1344.46,-254.055"/>
<polygon fill="black" stroke="black" points="1346.37,-256.996 1353.33,-249.008 1342.91,-250.912 1346.37,-256.996"/>
</g>
<!-- ExpTemp7 -->
<g id="node43" class="node"><title>ExpTemp7</title>
<ellipse fill="none" stroke="black" cx="1254.95" cy="-234" rx="50.0912" ry="18"/>
<text text-anchor="middle" x="1254.95" y="-230.3" font-family="Times,serif" font-size="14.00">ExpTemp7</text>
</g>
<!-- StatMove4&#45;&gt;ExpTemp7 -->
<g id="edge47" class="edge"><title>StatMove4&#45;&gt;ExpTemp7</title>
<path fill="none" stroke="black" d="M1254.95,-287.697C1254.95,-279.983 1254.95,-270.712 1254.95,-262.112"/>
<polygon fill="black" stroke="black" points="1258.45,-262.104 1254.95,-252.104 1251.45,-262.104 1258.45,-262.104"/>
</g>
<!-- Temp0: T22 -->
<g id="node35" class="node"><title>Temp0: T22</title>
<ellipse fill="none" stroke="black" cx="158.945" cy="-162" rx="55.4913" ry="18"/>
<text text-anchor="middle" x="158.945" y="-158.3" font-family="Times,serif" font-size="14.00">Temp0: T22</text>
</g>
<!-- ExpTemp0&#45;&gt;Temp0: T22 -->
<g id="edge30" class="edge"><title>ExpTemp0&#45;&gt;Temp0: T22</title>
<path fill="none" stroke="black" d="M171.83,-216.055C169.937,-208.261 167.645,-198.822 165.522,-190.079"/>
<polygon fill="black" stroke="black" points="168.902,-189.167 163.141,-180.275 162.1,-190.819 168.902,-189.167"/>
</g>
<!-- ExpBinary0 -->
<g id="node36" class="node"><title>ExpBinary0</title>
<ellipse fill="none" stroke="black" cx="285.945" cy="-162" rx="53.0913" ry="18"/>
<text text-anchor="middle" x="285.945" y="-158.3" font-family="Times,serif" font-size="14.00">ExpBinary0</text>
</g>
<!-- ExpBinary0&#45;&gt;ExpConst0 -->
<g id="edge33" class="edge"><title>ExpBinary0&#45;&gt;ExpConst0</title>
<path fill="none" stroke="black" d="M307.917,-145.465C321.726,-135.7 339.727,-122.972 354.855,-112.276"/>
<polygon fill="black" stroke="black" points="357.231,-114.882 363.376,-106.251 353.19,-109.167 357.231,-114.882"/>
</g>
<!-- ExpTemp1 -->
<g id="node37" class="node"><title>ExpTemp1</title>
<ellipse fill="none" stroke="black" cx="186.945" cy="-90" rx="50.0912" ry="18"/>
<text text-anchor="middle" x="186.945" y="-86.3" font-family="Times,serif" font-size="14.00">ExpTemp1</text>
</g>
<!-- ExpBinary0&#45;&gt;ExpTemp1 -->
<g id="edge31" class="edge"><title>ExpBinary0&#45;&gt;ExpTemp1</title>
<path fill="none" stroke="black" d="M263.974,-145.465C250.164,-135.7 232.163,-122.972 217.036,-112.276"/>
<polygon fill="black" stroke="black" points="218.7,-109.167 208.514,-106.251 214.659,-114.882 218.7,-109.167"/>
</g>
<!-- Plus0 -->
<g id="node38" class="node"><title>Plus0</title>
<ellipse fill="none" stroke="black" cx="285.945" cy="-90" rx="30.5947" ry="18"/>
<text text-anchor="middle" x="285.945" y="-86.3" font-family="Times,serif" font-size="14.00">Plus0</text>
</g>
<!-- ExpBinary0&#45;&gt;Plus0 -->
<g id="edge32" class="edge"><title>ExpBinary0&#45;&gt;Plus0</title>
<path fill="none" stroke="black" d="M285.945,-143.697C285.945,-135.983 285.945,-126.712 285.945,-118.112"/>
<polygon fill="black" stroke="black" points="289.445,-118.104 285.945,-108.104 282.445,-118.104 289.445,-118.104"/>
</g>
<!-- Temp1: $fp -->
<g id="node45" class="node"><title>Temp1: $fp</title>
<ellipse fill="none" stroke="black" cx="186.945" cy="-18" rx="52.7911" ry="18"/>
<text text-anchor="middle" x="186.945" y="-14.3" font-family="Times,serif" font-size="14.00">Temp1: $fp</text>
</g>
<!-- ExpTemp1&#45;&gt;Temp1: $fp -->
<g id="edge40" class="edge"><title>ExpTemp1&#45;&gt;Temp1: $fp</title>
<path fill="none" stroke="black" d="M186.945,-71.6966C186.945,-63.9827 186.945,-54.7125 186.945,-46.1124"/>
<polygon fill="black" stroke="black" points="190.445,-46.1043 186.945,-36.1043 183.445,-46.1044 190.445,-46.1043"/>
</g>
<!-- ExpMem0&#45;&gt;ExpBinary0 -->
<g id="edge46" class="edge"><title>ExpMem0&#45;&gt;ExpBinary0</title>
<path fill="none" stroke="black" d="M291.215,-215.697C290.443,-207.983 289.516,-198.712 288.656,-190.112"/>
<polygon fill="black" stroke="black" points="292.133,-189.706 287.656,-180.104 285.168,-190.403 292.133,-189.706"/>
</g>
<!-- Temp7: T21 -->
<g id="node44" class="node"><title>Temp7: T21</title>
<ellipse fill="none" stroke="black" cx="1254.95" cy="-162" rx="55.4913" ry="18"/>
<text text-anchor="middle" x="1254.95" y="-158.3" font-family="Times,serif" font-size="14.00">Temp7: T21</text>
</g>
<!-- ExpTemp7&#45;&gt;Temp7: T21 -->
<g id="edge39" class="edge"><title>ExpTemp7&#45;&gt;Temp7: T21</title>
<path fill="none" stroke="black" d="M1254.95,-215.697C1254.95,-207.983 1254.95,-198.712 1254.95,-190.112"/>
<polygon fill="black" stroke="black" points="1258.45,-190.104 1254.95,-180.104 1251.45,-190.104 1258.45,-190.104"/>
</g>
<!-- Temp5: T20 -->
<g id="node47" class="node"><title>Temp5: T20</title>
<ellipse fill="none" stroke="black" cx="1000.95" cy="-162" rx="55.4913" ry="18"/>
<text text-anchor="middle" x="1000.95" y="-158.3" font-family="Times,serif" font-size="14.00">Temp5: T20</text>
</g>
<!-- ExpTemp5&#45;&gt;Temp5: T20 -->
<g id="edge41" class="edge"><title>ExpTemp5&#45;&gt;Temp5: T20</title>
<path fill="none" stroke="black" d="M1000.95,-215.697C1000.95,-207.983 1000.95,-198.712 1000.95,-190.112"/>
<polygon fill="black" stroke="black" points="1004.45,-190.104 1000.95,-180.104 997.445,-190.104 1004.45,-190.104"/>
</g>
</g>
</svg>
