<?xml version="1.0" encoding="UTF-8" standalone="no"?>
<!DOCTYPE svg PUBLIC "-//W3C//DTD SVG 1.1//EN"
 "http://www.w3.org/Graphics/SVG/1.1/DTD/svg11.dtd">
<!-- Generated by graphviz version 2.38.0 (20140413.2041)
 -->
<!-- Title: %3 Pages: 1 -->
<svg width="529pt" height="260pt"
 viewBox="0.00 0.00 529.49 260.00" xmlns="http://www.w3.org/2000/svg" xmlns:xlink="http://www.w3.org/1999/xlink">
<g id="graph0" class="graph" transform="scale(1 1) rotate(0) translate(4 256)">
<title>%3</title>
<polygon fill="white" stroke="none" points="-4,4 -4,-256 525.49,-256 525.49,4 -4,4"/>
<!-- Temp0 -->
<g id="node1" class="node"><title>Temp0</title>
<ellipse fill="none" stroke="black" cx="159.245" cy="-162" rx="36.2938" ry="18"/>
<text text-anchor="middle" x="159.245" y="-158.3" font-family="Times,serif" font-size="14.00">Temp0</text>
</g>
<!-- Temp1: T48 -->
<g id="node2" class="node"><title>Temp1: T48</title>
<ellipse fill="none" stroke="black" cx="55.2451" cy="-90" rx="55.4913" ry="18"/>
<text text-anchor="middle" x="55.2451" y="-86.3" font-family="Times,serif" font-size="14.00">Temp1: T48</text>
</g>
<!-- Temp0&#45;&gt;Temp1: T48 -->
<g id="edge1" class="edge"><title>Temp0&#45;&gt;Temp1: T48</title>
<path fill="none" stroke="black" d="M138.199,-146.834C123.44,-136.901 103.451,-123.447 86.7932,-112.234"/>
<polygon fill="black" stroke="black" points="88.6813,-109.286 78.431,-106.606 84.7726,-115.093 88.6813,-109.286"/>
</g>
<!-- Temp2 -->
<g id="node3" class="node"><title>Temp2</title>
<ellipse fill="none" stroke="black" cx="348.245" cy="-90" rx="36.2938" ry="18"/>
<text text-anchor="middle" x="348.245" y="-86.3" font-family="Times,serif" font-size="14.00">Temp2</text>
</g>
<!-- Temp3: T46 -->
<g id="node4" class="node"><title>Temp3: T46</title>
<ellipse fill="none" stroke="black" cx="338.245" cy="-18" rx="55.4913" ry="18"/>
<text text-anchor="middle" x="338.245" y="-14.3" font-family="Times,serif" font-size="14.00">Temp3: T46</text>
</g>
<!-- Temp2&#45;&gt;Temp3: T46 -->
<g id="edge2" class="edge"><title>Temp2&#45;&gt;Temp3: T46</title>
<path fill="none" stroke="black" d="M345.773,-71.6966C344.671,-63.9827 343.347,-54.7125 342.118,-46.1124"/>
<polygon fill="black" stroke="black" points="345.568,-45.5088 340.689,-36.1043 338.638,-46.4988 345.568,-45.5088"/>
</g>
<!-- MoveRegister0 -->
<g id="node5" class="node"><title>MoveRegister0</title>
<ellipse fill="none" stroke="black" cx="219.245" cy="-234" rx="65.7887" ry="18"/>
<text text-anchor="middle" x="219.245" y="-230.3" font-family="Times,serif" font-size="14.00">MoveRegister0</text>
</g>
<!-- MoveRegister0&#45;&gt;Temp0 -->
<g id="edge3" class="edge"><title>MoveRegister0&#45;&gt;Temp0</title>
<path fill="none" stroke="black" d="M205.026,-216.411C197.445,-207.567 187.986,-196.531 179.636,-186.789"/>
<polygon fill="black" stroke="black" points="182.115,-184.303 172.949,-178.988 176.8,-188.858 182.115,-184.303"/>
</g>
<!-- Call0 -->
<g id="node6" class="node"><title>Call0</title>
<ellipse fill="none" stroke="black" cx="279.245" cy="-162" rx="29.795" ry="18"/>
<text text-anchor="middle" x="279.245" y="-158.3" font-family="Times,serif" font-size="14.00">Call0</text>
</g>
<!-- MoveRegister0&#45;&gt;Call0 -->
<g id="edge4" class="edge"><title>MoveRegister0&#45;&gt;Call0</title>
<path fill="none" stroke="black" d="M233.464,-216.411C241.153,-207.441 250.775,-196.215 259.211,-186.373"/>
<polygon fill="black" stroke="black" points="262.1,-188.381 265.95,-178.511 256.785,-183.826 262.1,-188.381"/>
</g>
<!-- Call0&#45;&gt;Temp2 -->
<g id="edge7" class="edge"><title>Call0&#45;&gt;Temp2</title>
<path fill="none" stroke="black" d="M293.878,-146.155C303.046,-136.854 315.053,-124.673 325.451,-114.124"/>
<polygon fill="black" stroke="black" points="328.147,-116.375 332.674,-106.797 323.161,-111.461 328.147,-116.375"/>
</g>
<!-- Temp4 -->
<g id="node7" class="node"><title>Temp4</title>
<ellipse fill="none" stroke="black" cx="457.245" cy="-90" rx="36.2938" ry="18"/>
<text text-anchor="middle" x="457.245" y="-86.3" font-family="Times,serif" font-size="14.00">Temp4</text>
</g>
<!-- Call0&#45;&gt;Temp4 -->
<g id="edge8" class="edge"><title>Call0&#45;&gt;Temp4</title>
<path fill="none" stroke="black" d="M303.622,-151.414C333.735,-139.571 385.263,-119.308 420.259,-105.545"/>
<polygon fill="black" stroke="black" points="421.635,-108.765 429.66,-101.848 419.073,-102.251 421.635,-108.765"/>
</g>
<!-- Function0: BS@Init -->
<g id="node9" class="node"><title>Function0: BS@Init</title>
<ellipse fill="none" stroke="black" cx="211.245" cy="-90" rx="82.5854" ry="18"/>
<text text-anchor="middle" x="211.245" y="-86.3" font-family="Times,serif" font-size="14.00">Function0: BS@Init</text>
</g>
<!-- Call0&#45;&gt;Function0: BS@Init -->
<g id="edge6" class="edge"><title>Call0&#45;&gt;Function0: BS@Init</title>
<path fill="none" stroke="black" d="M264.824,-146.155C256.04,-137.112 244.611,-125.347 234.566,-115.007"/>
<polygon fill="black" stroke="black" points="237.033,-112.523 227.554,-107.789 232.012,-117.401 237.033,-112.523"/>
</g>
<!-- Temp5: T47 -->
<g id="node8" class="node"><title>Temp5: T47</title>
<ellipse fill="none" stroke="black" cx="466.245" cy="-18" rx="55.4913" ry="18"/>
<text text-anchor="middle" x="466.245" y="-14.3" font-family="Times,serif" font-size="14.00">Temp5: T47</text>
</g>
<!-- Temp4&#45;&gt;Temp5: T47 -->
<g id="edge5" class="edge"><title>Temp4&#45;&gt;Temp5: T47</title>
<path fill="none" stroke="black" d="M459.47,-71.6966C460.462,-63.9827 461.653,-54.7125 462.759,-46.1124"/>
<polygon fill="black" stroke="black" points="466.242,-46.469 464.046,-36.1043 459.299,-45.5763 466.242,-46.469"/>
</g>
</g>
</svg>
