<?xml version="1.0" encoding="UTF-8" standalone="no"?>
<!DOCTYPE svg PUBLIC "-//W3C//DTD SVG 1.1//EN"
 "http://www.w3.org/Graphics/SVG/1.1/DTD/svg11.dtd">
<!-- Generated by graphviz version 2.38.0 (20140413.2041)
 -->
<!-- Title: %3 Pages: 1 -->
<svg width="575pt" height="260pt"
 viewBox="0.00 0.00 574.59 260.00" xmlns="http://www.w3.org/2000/svg" xmlns:xlink="http://www.w3.org/1999/xlink">
<g id="graph0" class="graph" transform="scale(1 1) rotate(0) translate(4 256)">
<title>%3</title>
<polygon fill="white" stroke="none" points="-4,4 -4,-256 570.589,-256 570.589,4 -4,4"/>
<!-- Temp0 -->
<g id="node1" class="node"><title>Temp0</title>
<ellipse fill="none" stroke="black" cx="177.795" cy="-162" rx="36.2938" ry="18"/>
<text text-anchor="middle" x="177.795" y="-158.3" font-family="Times,serif" font-size="14.00">Temp0</text>
</g>
<!-- Temp1: T104 -->
<g id="node2" class="node"><title>Temp1: T104</title>
<ellipse fill="none" stroke="black" cx="59.7947" cy="-90" rx="59.5901" ry="18"/>
<text text-anchor="middle" x="59.7947" y="-86.3" font-family="Times,serif" font-size="14.00">Temp1: T104</text>
</g>
<!-- Temp0&#45;&gt;Temp1: T104 -->
<g id="edge1" class="edge"><title>Temp0&#45;&gt;Temp1: T104</title>
<path fill="none" stroke="black" d="M155.322,-147.669C138.158,-137.487 114.194,-123.271 94.5618,-111.625"/>
<polygon fill="black" stroke="black" points="96.2729,-108.57 85.8867,-106.478 92.7015,-114.591 96.2729,-108.57"/>
</g>
<!-- Temp2 -->
<g id="node3" class="node"><title>Temp2</title>
<ellipse fill="none" stroke="black" cx="380.795" cy="-90" rx="36.2938" ry="18"/>
<text text-anchor="middle" x="380.795" y="-86.3" font-family="Times,serif" font-size="14.00">Temp2</text>
</g>
<!-- Temp3: T102 -->
<g id="node4" class="node"><title>Temp3: T102</title>
<ellipse fill="none" stroke="black" cx="368.795" cy="-18" rx="59.5901" ry="18"/>
<text text-anchor="middle" x="368.795" y="-14.3" font-family="Times,serif" font-size="14.00">Temp3: T102</text>
</g>
<!-- Temp2&#45;&gt;Temp3: T102 -->
<g id="edge2" class="edge"><title>Temp2&#45;&gt;Temp3: T102</title>
<path fill="none" stroke="black" d="M377.89,-72.055C376.568,-64.3456 374.971,-55.0269 373.486,-46.3642"/>
<polygon fill="black" stroke="black" points="376.896,-45.5401 371.756,-36.2753 369.996,-46.7229 376.896,-45.5401"/>
</g>
<!-- MoveRegister0 -->
<g id="node5" class="node"><title>MoveRegister0</title>
<ellipse fill="none" stroke="black" cx="241.795" cy="-234" rx="65.7887" ry="18"/>
<text text-anchor="middle" x="241.795" y="-230.3" font-family="Times,serif" font-size="14.00">MoveRegister0</text>
</g>
<!-- MoveRegister0&#45;&gt;Temp0 -->
<g id="edge3" class="edge"><title>MoveRegister0&#45;&gt;Temp0</title>
<path fill="none" stroke="black" d="M226.628,-216.411C218.461,-207.479 208.249,-196.31 199.278,-186.498"/>
<polygon fill="black" stroke="black" points="201.743,-184.007 192.412,-178.988 196.577,-188.73 201.743,-184.007"/>
</g>
<!-- Call0 -->
<g id="node6" class="node"><title>Call0</title>
<ellipse fill="none" stroke="black" cx="305.795" cy="-162" rx="29.795" ry="18"/>
<text text-anchor="middle" x="305.795" y="-158.3" font-family="Times,serif" font-size="14.00">Call0</text>
</g>
<!-- MoveRegister0&#45;&gt;Call0 -->
<g id="edge4" class="edge"><title>MoveRegister0&#45;&gt;Call0</title>
<path fill="none" stroke="black" d="M256.962,-216.411C265.362,-207.223 275.925,-195.67 285.077,-185.66"/>
<polygon fill="black" stroke="black" points="287.881,-187.78 292.045,-178.038 282.715,-183.057 287.881,-187.78"/>
</g>
<!-- Call0&#45;&gt;Temp2 -->
<g id="edge7" class="edge"><title>Call0&#45;&gt;Temp2</title>
<path fill="none" stroke="black" d="M321.335,-146.496C331.683,-136.838 345.475,-123.965 357.17,-113.049"/>
<polygon fill="black" stroke="black" points="359.574,-115.594 364.496,-106.212 354.798,-110.476 359.574,-115.594"/>
</g>
<!-- Temp4 -->
<g id="node7" class="node"><title>Temp4</title>
<ellipse fill="none" stroke="black" cx="494.795" cy="-90" rx="36.2938" ry="18"/>
<text text-anchor="middle" x="494.795" y="-86.3" font-family="Times,serif" font-size="14.00">Temp4</text>
</g>
<!-- Call0&#45;&gt;Temp4 -->
<g id="edge8" class="edge"><title>Call0&#45;&gt;Temp4</title>
<path fill="none" stroke="black" d="M330.503,-151.849C362.651,-139.942 419.147,-119.018 456.774,-105.082"/>
<polygon fill="black" stroke="black" points="458.216,-108.28 466.378,-101.525 455.785,-101.716 458.216,-108.28"/>
</g>
<!-- Function0: BS@Search -->
<g id="node9" class="node"><title>Function0: BS@Search</title>
<ellipse fill="none" stroke="black" cx="231.795" cy="-90" rx="94.4839" ry="18"/>
<text text-anchor="middle" x="231.795" y="-86.3" font-family="Times,serif" font-size="14.00">Function0: BS@Search</text>
</g>
<!-- Call0&#45;&gt;Function0: BS@Search -->
<g id="edge6" class="edge"><title>Call0&#45;&gt;Function0: BS@Search</title>
<path fill="none" stroke="black" d="M290.462,-146.496C280.762,-137.32 267.995,-125.243 256.848,-114.699"/>
<polygon fill="black" stroke="black" points="259.117,-112.028 249.448,-107.699 254.307,-117.113 259.117,-112.028"/>
</g>
<!-- Temp5: T103 -->
<g id="node8" class="node"><title>Temp5: T103</title>
<ellipse fill="none" stroke="black" cx="506.795" cy="-18" rx="59.5901" ry="18"/>
<text text-anchor="middle" x="506.795" y="-14.3" font-family="Times,serif" font-size="14.00">Temp5: T103</text>
</g>
<!-- Temp4&#45;&gt;Temp5: T103 -->
<g id="edge5" class="edge"><title>Temp4&#45;&gt;Temp5: T103</title>
<path fill="none" stroke="black" d="M497.7,-72.055C499.021,-64.3456 500.619,-55.0269 502.104,-46.3642"/>
<polygon fill="black" stroke="black" points="505.593,-46.7229 503.833,-36.2753 498.694,-45.5401 505.593,-46.7229"/>
</g>
</g>
</svg>
