<?xml version="1.0" encoding="UTF-8" standalone="no"?>
<!DOCTYPE svg PUBLIC "-//W3C//DTD SVG 1.1//EN"
 "http://www.w3.org/Graphics/SVG/1.1/DTD/svg11.dtd">
<!-- Generated by graphviz version 2.38.0 (20140413.2041)
 -->
<!-- Title: %3 Pages: 1 -->
<svg width="2143pt" height="548pt"
 viewBox="0.00 0.00 2142.79 548.00" xmlns="http://www.w3.org/2000/svg" xmlns:xlink="http://www.w3.org/1999/xlink">
<g id="graph0" class="graph" transform="scale(1 1) rotate(0) translate(4 544)">
<title>%3</title>
<polygon fill="white" stroke="none" points="-4,4 -4,-544 2138.79,-544 2138.79,4 -4,4"/>
<!-- ExpNumber1 -->
<g id="node1" class="node"><title>ExpNumber1</title>
<ellipse fill="none" stroke="black" cx="2076.3" cy="-162" rx="58.4896" ry="18"/>
<text text-anchor="middle" x="2076.3" y="-158.3" font-family="Times,serif" font-size="14.00">ExpNumber1</text>
</g>
<!-- Value1: 0 -->
<g id="node2" class="node"><title>Value1: 0</title>
<ellipse fill="none" stroke="black" cx="2076.3" cy="-90" rx="45.4919" ry="18"/>
<text text-anchor="middle" x="2076.3" y="-86.3" font-family="Times,serif" font-size="14.00">Value1: 0</text>
</g>
<!-- ExpNumber1&#45;&gt;Value1: 0 -->
<g id="edge1" class="edge"><title>ExpNumber1&#45;&gt;Value1: 0</title>
<path fill="none" stroke="black" d="M2076.3,-143.697C2076.3,-135.983 2076.3,-126.712 2076.3,-118.112"/>
<polygon fill="black" stroke="black" points="2079.8,-118.104 2076.3,-108.104 2072.8,-118.104 2079.8,-118.104"/>
</g>
<!-- Program0 -->
<g id="node3" class="node"><title>Program0</title>
<ellipse fill="none" stroke="black" cx="403.295" cy="-522" rx="46.2923" ry="18"/>
<text text-anchor="middle" x="403.295" y="-518.3" font-family="Times,serif" font-size="14.00">Program0</text>
</g>
<!-- MainClass0 -->
<g id="node4" class="node"><title>MainClass0</title>
<ellipse fill="none" stroke="black" cx="248.295" cy="-450" rx="53.0913" ry="18"/>
<text text-anchor="middle" x="248.295" y="-446.3" font-family="Times,serif" font-size="14.00">MainClass0</text>
</g>
<!-- Program0&#45;&gt;MainClass0 -->
<g id="edge2" class="edge"><title>Program0&#45;&gt;MainClass0</title>
<path fill="none" stroke="black" d="M374.141,-507.834C349.823,-496.851 314.931,-481.093 288.052,-468.955"/>
<polygon fill="black" stroke="black" points="289.464,-465.752 278.91,-464.826 286.583,-472.132 289.464,-465.752"/>
</g>
<!-- ClassDeclList0 -->
<g id="node5" class="node"><title>ClassDeclList0</title>
<ellipse fill="none" stroke="black" cx="644.295" cy="-450" rx="64.189" ry="18"/>
<text text-anchor="middle" x="644.295" y="-446.3" font-family="Times,serif" font-size="14.00">ClassDeclList0</text>
</g>
<!-- Program0&#45;&gt;ClassDeclList0 -->
<g id="edge3" class="edge"><title>Program0&#45;&gt;ClassDeclList0</title>
<path fill="none" stroke="black" d="M439.115,-510.596C479.428,-498.887 545.308,-479.751 591.516,-466.33"/>
<polygon fill="black" stroke="black" points="592.725,-469.624 601.351,-463.473 590.772,-462.902 592.725,-469.624"/>
</g>
<!-- StatList0 -->
<g id="node6" class="node"><title>StatList0</title>
<ellipse fill="none" stroke="black" cx="297.295" cy="-378" rx="42.4939" ry="18"/>
<text text-anchor="middle" x="297.295" y="-374.3" font-family="Times,serif" font-size="14.00">StatList0</text>
</g>
<!-- MainClass0&#45;&gt;StatList0 -->
<g id="edge11" class="edge"><title>MainClass0&#45;&gt;StatList0</title>
<path fill="none" stroke="black" d="M259.908,-432.411C265.888,-423.868 273.3,-413.278 279.944,-403.787"/>
<polygon fill="black" stroke="black" points="282.899,-405.669 285.766,-395.47 277.164,-401.655 282.899,-405.669"/>
</g>
<!-- ExpId0 -->
<g id="node15" class="node"><title>ExpId0</title>
<ellipse fill="none" stroke="black" cx="97.2953" cy="-378" rx="36.2938" ry="18"/>
<text text-anchor="middle" x="97.2953" y="-374.3" font-family="Times,serif" font-size="14.00">ExpId0</text>
</g>
<!-- MainClass0&#45;&gt;ExpId0 -->
<g id="edge9" class="edge"><title>MainClass0&#45;&gt;ExpId0</title>
<path fill="none" stroke="black" d="M218.101,-435.003C193.266,-423.49 158.052,-407.165 132.046,-395.11"/>
<polygon fill="black" stroke="black" points="133.463,-391.909 122.918,-390.878 130.519,-398.26 133.463,-391.909"/>
</g>
<!-- ExpId1 -->
<g id="node16" class="node"><title>ExpId1</title>
<ellipse fill="none" stroke="black" cx="200.295" cy="-378" rx="36.2938" ry="18"/>
<text text-anchor="middle" x="200.295" y="-374.3" font-family="Times,serif" font-size="14.00">ExpId1</text>
</g>
<!-- MainClass0&#45;&gt;ExpId1 -->
<g id="edge10" class="edge"><title>MainClass0&#45;&gt;ExpId1</title>
<path fill="none" stroke="black" d="M236.92,-432.411C231.062,-423.868 223.801,-413.278 217.292,-403.787"/>
<polygon fill="black" stroke="black" points="220.131,-401.738 211.589,-395.47 214.358,-405.697 220.131,-401.738"/>
</g>
<!-- ClassDecl0 -->
<g id="node17" class="node"><title>ClassDecl0</title>
<ellipse fill="none" stroke="black" cx="644.295" cy="-378" rx="50.8918" ry="18"/>
<text text-anchor="middle" x="644.295" y="-374.3" font-family="Times,serif" font-size="14.00">ClassDecl0</text>
</g>
<!-- ClassDeclList0&#45;&gt;ClassDecl0 -->
<g id="edge12" class="edge"><title>ClassDeclList0&#45;&gt;ClassDecl0</title>
<path fill="none" stroke="black" d="M644.295,-431.697C644.295,-423.983 644.295,-414.712 644.295,-406.112"/>
<polygon fill="black" stroke="black" points="647.795,-406.104 644.295,-396.104 640.795,-406.104 647.795,-406.104"/>
</g>
<!-- ClassDecl1 -->
<g id="node18" class="node"><title>ClassDecl1</title>
<ellipse fill="none" stroke="black" cx="1174.3" cy="-378" rx="50.8918" ry="18"/>
<text text-anchor="middle" x="1174.3" y="-374.3" font-family="Times,serif" font-size="14.00">ClassDecl1</text>
</g>
<!-- ClassDeclList0&#45;&gt;ClassDecl1 -->
<g id="edge13" class="edge"><title>ClassDeclList0&#45;&gt;ClassDecl1</title>
<path fill="none" stroke="black" d="M701.266,-441.476C803.236,-428.008 1015.78,-399.937 1117.57,-386.492"/>
<polygon fill="black" stroke="black" points="1118.2,-389.939 1127.66,-385.16 1117.28,-383 1118.2,-389.939"/>
</g>
<!-- StatPrint0 -->
<g id="node7" class="node"><title>StatPrint0</title>
<ellipse fill="none" stroke="black" cx="296.295" cy="-306" rx="46.2923" ry="18"/>
<text text-anchor="middle" x="296.295" y="-302.3" font-family="Times,serif" font-size="14.00">StatPrint0</text>
</g>
<!-- StatList0&#45;&gt;StatPrint0 -->
<g id="edge4" class="edge"><title>StatList0&#45;&gt;StatPrint0</title>
<path fill="none" stroke="black" d="M297.048,-359.697C296.938,-351.983 296.805,-342.712 296.683,-334.112"/>
<polygon fill="black" stroke="black" points="300.182,-334.053 296.54,-324.104 293.183,-334.153 300.182,-334.053"/>
</g>
<!-- ExpMethod0 -->
<g id="node12" class="node"><title>ExpMethod0</title>
<ellipse fill="none" stroke="black" cx="209.295" cy="-234" rx="57.3905" ry="18"/>
<text text-anchor="middle" x="209.295" y="-230.3" font-family="Times,serif" font-size="14.00">ExpMethod0</text>
</g>
<!-- StatPrint0&#45;&gt;ExpMethod0 -->
<g id="edge7" class="edge"><title>StatPrint0&#45;&gt;ExpMethod0</title>
<path fill="none" stroke="black" d="M276.987,-289.465C265.325,-280.081 250.26,-267.96 237.305,-257.536"/>
<polygon fill="black" stroke="black" points="239.138,-254.519 229.153,-250.977 234.75,-259.973 239.138,-254.519"/>
</g>
<!-- ExpNumber0 -->
<g id="node8" class="node"><title>ExpNumber0</title>
<ellipse fill="none" stroke="black" cx="1161.3" cy="-162" rx="58.4896" ry="18"/>
<text text-anchor="middle" x="1161.3" y="-158.3" font-family="Times,serif" font-size="14.00">ExpNumber0</text>
</g>
<!-- Value0: 0 -->
<g id="node9" class="node"><title>Value0: 0</title>
<ellipse fill="none" stroke="black" cx="1161.3" cy="-90" rx="45.4919" ry="18"/>
<text text-anchor="middle" x="1161.3" y="-86.3" font-family="Times,serif" font-size="14.00">Value0: 0</text>
</g>
<!-- ExpNumber0&#45;&gt;Value0: 0 -->
<g id="edge5" class="edge"><title>ExpNumber0&#45;&gt;Value0: 0</title>
<path fill="none" stroke="black" d="M1161.3,-143.697C1161.3,-135.983 1161.3,-126.712 1161.3,-118.112"/>
<polygon fill="black" stroke="black" points="1164.8,-118.104 1161.3,-108.104 1157.8,-118.104 1164.8,-118.104"/>
</g>
<!-- ExpId7 -->
<g id="node10" class="node"><title>ExpId7</title>
<ellipse fill="none" stroke="black" cx="1472.3" cy="-90" rx="36.2938" ry="18"/>
<text text-anchor="middle" x="1472.3" y="-86.3" font-family="Times,serif" font-size="14.00">ExpId7</text>
</g>
<!-- Id7: TV2 -->
<g id="node11" class="node"><title>Id7: TV2</title>
<ellipse fill="none" stroke="black" cx="1472.3" cy="-18" rx="43.5923" ry="18"/>
<text text-anchor="middle" x="1472.3" y="-14.3" font-family="Times,serif" font-size="14.00">Id7: TV2</text>
</g>
<!-- ExpId7&#45;&gt;Id7: TV2 -->
<g id="edge6" class="edge"><title>ExpId7&#45;&gt;Id7: TV2</title>
<path fill="none" stroke="black" d="M1472.3,-71.6966C1472.3,-63.9827 1472.3,-54.7125 1472.3,-46.1124"/>
<polygon fill="black" stroke="black" points="1475.8,-46.1043 1472.3,-36.1043 1468.8,-46.1044 1475.8,-46.1043"/>
</g>
<!-- ExpNewId0 -->
<g id="node13" class="node"><title>ExpNewId0</title>
<ellipse fill="none" stroke="black" cx="53.2953" cy="-162" rx="53.0913" ry="18"/>
<text text-anchor="middle" x="53.2953" y="-158.3" font-family="Times,serif" font-size="14.00">ExpNewId0</text>
</g>
<!-- ExpMethod0&#45;&gt;ExpNewId0 -->
<g id="edge24" class="edge"><title>ExpMethod0&#45;&gt;ExpNewId0</title>
<path fill="none" stroke="black" d="M177.726,-218.834C153.383,-207.911 119.554,-192.732 93.3128,-180.957"/>
<polygon fill="black" stroke="black" points="94.5763,-177.687 84.0198,-176.787 91.7105,-184.074 94.5763,-177.687"/>
</g>
<!-- ExpId3 -->
<g id="node29" class="node"><title>ExpId3</title>
<ellipse fill="none" stroke="black" cx="161.295" cy="-162" rx="36.2938" ry="18"/>
<text text-anchor="middle" x="161.295" y="-158.3" font-family="Times,serif" font-size="14.00">ExpId3</text>
</g>
<!-- ExpMethod0&#45;&gt;ExpId3 -->
<g id="edge25" class="edge"><title>ExpMethod0&#45;&gt;ExpId3</title>
<path fill="none" stroke="black" d="M197.676,-216.055C191.813,-207.505 184.592,-196.975 178.134,-187.556"/>
<polygon fill="black" stroke="black" points="181.019,-185.575 172.477,-179.307 175.246,-189.534 181.019,-185.575"/>
</g>
<!-- ExpList0 -->
<g id="node33" class="node"><title>ExpList0</title>
<ellipse fill="none" stroke="black" cx="258.295" cy="-162" rx="42.7926" ry="18"/>
<text text-anchor="middle" x="258.295" y="-158.3" font-family="Times,serif" font-size="14.00">ExpList0</text>
</g>
<!-- ExpMethod0&#45;&gt;ExpList0 -->
<g id="edge26" class="edge"><title>ExpMethod0&#45;&gt;ExpList0</title>
<path fill="none" stroke="black" d="M221.157,-216.055C226.995,-207.715 234.152,-197.491 240.619,-188.252"/>
<polygon fill="black" stroke="black" points="243.676,-189.988 246.543,-179.789 237.941,-185.974 243.676,-189.988"/>
</g>
<!-- ExpId2 -->
<g id="node14" class="node"><title>ExpId2</title>
<ellipse fill="none" stroke="black" cx="53.2953" cy="-90" rx="36.2938" ry="18"/>
<text text-anchor="middle" x="53.2953" y="-86.3" font-family="Times,serif" font-size="14.00">ExpId2</text>
</g>
<!-- ExpNewId0&#45;&gt;ExpId2 -->
<g id="edge8" class="edge"><title>ExpNewId0&#45;&gt;ExpId2</title>
<path fill="none" stroke="black" d="M53.2953,-143.697C53.2953,-135.983 53.2953,-126.712 53.2953,-118.112"/>
<polygon fill="black" stroke="black" points="56.7954,-118.104 53.2953,-108.104 49.7954,-118.104 56.7954,-118.104"/>
</g>
<!-- Id2: TV -->
<g id="node24" class="node"><title>Id2: TV</title>
<ellipse fill="none" stroke="black" cx="53.2953" cy="-18" rx="38.9931" ry="18"/>
<text text-anchor="middle" x="53.2953" y="-14.3" font-family="Times,serif" font-size="14.00">Id2: TV</text>
</g>
<!-- ExpId2&#45;&gt;Id2: TV -->
<g id="edge17" class="edge"><title>ExpId2&#45;&gt;Id2: TV</title>
<path fill="none" stroke="black" d="M53.2953,-71.6966C53.2953,-63.9827 53.2953,-54.7125 53.2953,-46.1124"/>
<polygon fill="black" stroke="black" points="56.7954,-46.1043 53.2953,-36.1043 49.7954,-46.1044 56.7954,-46.1043"/>
</g>
<!-- Id0: TreeVisitor -->
<g id="node44" class="node"><title>Id0: TreeVisitor</title>
<ellipse fill="none" stroke="black" cx="84.2953" cy="-306" rx="67.6881" ry="18"/>
<text text-anchor="middle" x="84.2953" y="-302.3" font-family="Times,serif" font-size="14.00">Id0: TreeVisitor</text>
</g>
<!-- ExpId0&#45;&gt;Id0: TreeVisitor -->
<g id="edge40" class="edge"><title>ExpId0&#45;&gt;Id0: TreeVisitor</title>
<path fill="none" stroke="black" d="M94.1483,-360.055C92.7166,-352.346 90.986,-343.027 89.3772,-334.364"/>
<polygon fill="black" stroke="black" points="92.7707,-333.468 87.5035,-324.275 85.8884,-334.746 92.7707,-333.468"/>
</g>
<!-- Id1: a -->
<g id="node19" class="node"><title>Id1: a</title>
<ellipse fill="none" stroke="black" cx="201.295" cy="-306" rx="31.3957" ry="18"/>
<text text-anchor="middle" x="201.295" y="-302.3" font-family="Times,serif" font-size="14.00">Id1: a</text>
</g>
<!-- ExpId1&#45;&gt;Id1: a -->
<g id="edge14" class="edge"><title>ExpId1&#45;&gt;Id1: a</title>
<path fill="none" stroke="black" d="M200.542,-359.697C200.653,-351.983 200.785,-342.712 200.908,-334.112"/>
<polygon fill="black" stroke="black" points="204.408,-334.153 201.051,-324.104 197.408,-334.053 204.408,-334.153"/>
</g>
<!-- MethDeclList0 -->
<g id="node20" class="node"><title>MethDeclList0</title>
<ellipse fill="none" stroke="black" cx="785.295" cy="-306" rx="64.189" ry="18"/>
<text text-anchor="middle" x="785.295" y="-302.3" font-family="Times,serif" font-size="14.00">MethDeclList0</text>
</g>
<!-- ClassDecl0&#45;&gt;MethDeclList0 -->
<g id="edge29" class="edge"><title>ClassDecl0&#45;&gt;MethDeclList0</title>
<path fill="none" stroke="black" d="M672.49,-363.003C693.632,-352.506 722.83,-338.011 746.223,-326.397"/>
<polygon fill="black" stroke="black" points="747.799,-329.523 755.2,-321.941 744.687,-323.253 747.799,-329.523"/>
</g>
<!-- ExpId4 -->
<g id="node31" class="node"><title>ExpId4</title>
<ellipse fill="none" stroke="black" cx="531.295" cy="-306" rx="36.2938" ry="18"/>
<text text-anchor="middle" x="531.295" y="-302.3" font-family="Times,serif" font-size="14.00">ExpId4</text>
</g>
<!-- ClassDecl0&#45;&gt;ExpId4 -->
<g id="edge27" class="edge"><title>ClassDecl0&#45;&gt;ExpId4</title>
<path fill="none" stroke="black" d="M620.054,-361.983C603,-351.419 580.05,-337.202 561.76,-325.872"/>
<polygon fill="black" stroke="black" points="563.545,-322.861 553.201,-320.57 559.859,-328.812 563.545,-322.861"/>
</g>
<!-- VarDeclList0 -->
<g id="node34" class="node"><title>VarDeclList0</title>
<ellipse fill="none" stroke="black" cx="644.295" cy="-306" rx="58.4896" ry="18"/>
<text text-anchor="middle" x="644.295" y="-302.3" font-family="Times,serif" font-size="14.00">VarDeclList0</text>
</g>
<!-- ClassDecl0&#45;&gt;VarDeclList0 -->
<g id="edge28" class="edge"><title>ClassDecl0&#45;&gt;VarDeclList0</title>
<path fill="none" stroke="black" d="M644.295,-359.697C644.295,-351.983 644.295,-342.712 644.295,-334.112"/>
<polygon fill="black" stroke="black" points="647.795,-334.104 644.295,-324.104 640.795,-334.104 647.795,-334.104"/>
</g>
<!-- ExpId6 -->
<g id="node25" class="node"><title>ExpId6</title>
<ellipse fill="none" stroke="black" cx="1118.3" cy="-306" rx="36.2938" ry="18"/>
<text text-anchor="middle" x="1118.3" y="-302.3" font-family="Times,serif" font-size="14.00">ExpId6</text>
</g>
<!-- ClassDecl1&#45;&gt;ExpId6 -->
<g id="edge18" class="edge"><title>ClassDecl1&#45;&gt;ExpId6</title>
<path fill="none" stroke="black" d="M1161.02,-360.411C1154.02,-351.655 1145.3,-340.751 1137.56,-331.082"/>
<polygon fill="black" stroke="black" points="1140.07,-328.61 1131.09,-322.988 1134.6,-332.983 1140.07,-328.61"/>
</g>
<!-- VarDeclList2 -->
<g id="node26" class="node"><title>VarDeclList2</title>
<ellipse fill="none" stroke="black" cx="1231.3" cy="-306" rx="58.4896" ry="18"/>
<text text-anchor="middle" x="1231.3" y="-302.3" font-family="Times,serif" font-size="14.00">VarDeclList2</text>
</g>
<!-- ClassDecl1&#45;&gt;VarDeclList2 -->
<g id="edge19" class="edge"><title>ClassDecl1&#45;&gt;VarDeclList2</title>
<path fill="none" stroke="black" d="M1187.8,-360.411C1194.73,-351.906 1203.31,-341.372 1211.01,-331.914"/>
<polygon fill="black" stroke="black" points="1213.89,-333.921 1217.49,-323.956 1208.46,-329.501 1213.89,-333.921"/>
</g>
<!-- MethDeclList1 -->
<g id="node27" class="node"><title>MethDeclList1</title>
<ellipse fill="none" stroke="black" cx="1507.3" cy="-306" rx="64.189" ry="18"/>
<text text-anchor="middle" x="1507.3" y="-302.3" font-family="Times,serif" font-size="14.00">MethDeclList1</text>
</g>
<!-- ClassDecl1&#45;&gt;MethDeclList1 -->
<g id="edge20" class="edge"><title>ClassDecl1&#45;&gt;MethDeclList1</title>
<path fill="none" stroke="black" d="M1216.81,-368.063C1275.35,-355.758 1381.06,-333.537 1447.53,-319.563"/>
<polygon fill="black" stroke="black" points="1448.38,-322.961 1457.45,-317.479 1446.94,-316.111 1448.38,-322.961"/>
</g>
<!-- MethDecl0 -->
<g id="node21" class="node"><title>MethDecl0</title>
<ellipse fill="none" stroke="black" cx="785.295" cy="-234" rx="50.8918" ry="18"/>
<text text-anchor="middle" x="785.295" y="-230.3" font-family="Times,serif" font-size="14.00">MethDecl0</text>
</g>
<!-- MethDeclList0&#45;&gt;MethDecl0 -->
<g id="edge15" class="edge"><title>MethDeclList0&#45;&gt;MethDecl0</title>
<path fill="none" stroke="black" d="M785.295,-287.697C785.295,-279.983 785.295,-270.712 785.295,-262.112"/>
<polygon fill="black" stroke="black" points="788.795,-262.104 785.295,-252.104 781.795,-262.104 788.795,-262.104"/>
</g>
<!-- MethDecl0&#45;&gt;ExpNumber0 -->
<g id="edge37" class="edge"><title>MethDecl0&#45;&gt;ExpNumber0</title>
<path fill="none" stroke="black" d="M831.159,-226.202C891.512,-217.006 1000.78,-199.495 1093.3,-180 1098.23,-178.96 1103.35,-177.812 1108.46,-176.617"/>
<polygon fill="black" stroke="black" points="1109.33,-180.008 1118.24,-174.278 1107.7,-173.2 1109.33,-180.008"/>
</g>
<!-- AccessModPublic0 -->
<g id="node36" class="node"><title>AccessModPublic0</title>
<ellipse fill="none" stroke="black" cx="398.295" cy="-162" rx="79.0865" ry="18"/>
<text text-anchor="middle" x="398.295" y="-158.3" font-family="Times,serif" font-size="14.00">AccessModPublic0</text>
</g>
<!-- MethDecl0&#45;&gt;AccessModPublic0 -->
<g id="edge31" class="edge"><title>MethDecl0&#45;&gt;AccessModPublic0</title>
<path fill="none" stroke="black" d="M740.678,-225.312C682.208,-215.186 576.492,-196.705 486.295,-180 479.819,-178.801 473.079,-177.533 466.338,-176.253"/>
<polygon fill="black" stroke="black" points="466.973,-172.811 456.494,-174.374 465.661,-179.687 466.973,-172.811"/>
</g>
<!-- TypeModInt0 -->
<g id="node37" class="node"><title>TypeModInt0</title>
<ellipse fill="none" stroke="black" cx="555.295" cy="-162" rx="59.5901" ry="18"/>
<text text-anchor="middle" x="555.295" y="-158.3" font-family="Times,serif" font-size="14.00">TypeModInt0</text>
</g>
<!-- MethDecl0&#45;&gt;TypeModInt0 -->
<g id="edge32" class="edge"><title>MethDecl0&#45;&gt;TypeModInt0</title>
<path fill="none" stroke="black" d="M748.086,-221.675C709.398,-209.901 648.598,-191.396 605.635,-178.321"/>
<polygon fill="black" stroke="black" points="606.525,-174.933 595.939,-175.37 604.487,-181.63 606.525,-174.933"/>
</g>
<!-- ExpId5 -->
<g id="node38" class="node"><title>ExpId5</title>
<ellipse fill="none" stroke="black" cx="669.295" cy="-162" rx="36.2938" ry="18"/>
<text text-anchor="middle" x="669.295" y="-158.3" font-family="Times,serif" font-size="14.00">ExpId5</text>
</g>
<!-- MethDecl0&#45;&gt;ExpId5 -->
<g id="edge33" class="edge"><title>MethDecl0&#45;&gt;ExpId5</title>
<path fill="none" stroke="black" d="M760.695,-218.155C743.011,-207.484 719.045,-193.021 700.09,-181.583"/>
<polygon fill="black" stroke="black" points="701.877,-178.574 691.507,-176.404 698.26,-184.567 701.877,-178.574"/>
</g>
<!-- MethArgList0 -->
<g id="node39" class="node"><title>MethArgList0</title>
<ellipse fill="none" stroke="black" cx="785.295" cy="-162" rx="61.99" ry="18"/>
<text text-anchor="middle" x="785.295" y="-158.3" font-family="Times,serif" font-size="14.00">MethArgList0</text>
</g>
<!-- MethDecl0&#45;&gt;MethArgList0 -->
<g id="edge34" class="edge"><title>MethDecl0&#45;&gt;MethArgList0</title>
<path fill="none" stroke="black" d="M785.295,-215.697C785.295,-207.983 785.295,-198.712 785.295,-190.112"/>
<polygon fill="black" stroke="black" points="788.795,-190.104 785.295,-180.104 781.795,-190.104 788.795,-190.104"/>
</g>
<!-- VarDeclList1 -->
<g id="node40" class="node"><title>VarDeclList1</title>
<ellipse fill="none" stroke="black" cx="923.295" cy="-162" rx="58.4896" ry="18"/>
<text text-anchor="middle" x="923.295" y="-158.3" font-family="Times,serif" font-size="14.00">VarDeclList1</text>
</g>
<!-- MethDecl0&#45;&gt;VarDeclList1 -->
<g id="edge35" class="edge"><title>MethDecl0&#45;&gt;VarDeclList1</title>
<path fill="none" stroke="black" d="M813.222,-218.834C833.849,-208.371 862.177,-194.002 884.93,-182.461"/>
<polygon fill="black" stroke="black" points="886.647,-185.514 893.982,-177.869 883.48,-179.272 886.647,-185.514"/>
</g>
<!-- StatList1 -->
<g id="node41" class="node"><title>StatList1</title>
<ellipse fill="none" stroke="black" cx="1042.3" cy="-162" rx="42.4939" ry="18"/>
<text text-anchor="middle" x="1042.3" y="-158.3" font-family="Times,serif" font-size="14.00">StatList1</text>
</g>
<!-- MethDecl0&#45;&gt;StatList1 -->
<g id="edge36" class="edge"><title>MethDecl0&#45;&gt;StatList1</title>
<path fill="none" stroke="black" d="M826.343,-223.195C867.878,-213.084 933.843,-196.508 990.295,-180 993.633,-179.024 997.079,-177.98 1000.53,-176.906"/>
<polygon fill="black" stroke="black" points="1001.74,-180.195 1010.22,-173.837 999.626,-173.523 1001.74,-180.195"/>
</g>
<!-- ExpId8 -->
<g id="node22" class="node"><title>ExpId8</title>
<ellipse fill="none" stroke="black" cx="1584.3" cy="-162" rx="36.2938" ry="18"/>
<text text-anchor="middle" x="1584.3" y="-158.3" font-family="Times,serif" font-size="14.00">ExpId8</text>
</g>
<!-- Id8: visit -->
<g id="node23" class="node"><title>Id8: visit</title>
<ellipse fill="none" stroke="black" cx="1584.3" cy="-90" rx="42.4939" ry="18"/>
<text text-anchor="middle" x="1584.3" y="-86.3" font-family="Times,serif" font-size="14.00">Id8: visit</text>
</g>
<!-- ExpId8&#45;&gt;Id8: visit -->
<g id="edge16" class="edge"><title>ExpId8&#45;&gt;Id8: visit</title>
<path fill="none" stroke="black" d="M1584.3,-143.697C1584.3,-135.983 1584.3,-126.712 1584.3,-118.112"/>
<polygon fill="black" stroke="black" points="1587.8,-118.104 1584.3,-108.104 1580.8,-118.104 1587.8,-118.104"/>
</g>
<!-- Id6: Visitor -->
<g id="node43" class="node"><title>Id6: Visitor</title>
<ellipse fill="none" stroke="black" cx="1118.3" cy="-234" rx="51.9908" ry="18"/>
<text text-anchor="middle" x="1118.3" y="-230.3" font-family="Times,serif" font-size="14.00">Id6: Visitor</text>
</g>
<!-- ExpId6&#45;&gt;Id6: Visitor -->
<g id="edge39" class="edge"><title>ExpId6&#45;&gt;Id6: Visitor</title>
<path fill="none" stroke="black" d="M1118.3,-287.697C1118.3,-279.983 1118.3,-270.712 1118.3,-262.112"/>
<polygon fill="black" stroke="black" points="1121.8,-262.104 1118.3,-252.104 1114.8,-262.104 1121.8,-262.104"/>
</g>
<!-- MethDecl1 -->
<g id="node35" class="node"><title>MethDecl1</title>
<ellipse fill="none" stroke="black" cx="1642.3" cy="-234" rx="50.8918" ry="18"/>
<text text-anchor="middle" x="1642.3" y="-230.3" font-family="Times,serif" font-size="14.00">MethDecl1</text>
</g>
<!-- MethDeclList1&#45;&gt;MethDecl1 -->
<g id="edge30" class="edge"><title>MethDeclList1&#45;&gt;MethDecl1</title>
<path fill="none" stroke="black" d="M1536.59,-289.811C1556.94,-279.256 1584.21,-265.116 1605.96,-253.843"/>
<polygon fill="black" stroke="black" points="1607.63,-256.915 1614.9,-249.205 1604.41,-250.701 1607.63,-256.915"/>
</g>
<!-- TypeModId0 -->
<g id="node28" class="node"><title>TypeModId0</title>
<ellipse fill="none" stroke="black" cx="1472.3" cy="-162" rx="57.6901" ry="18"/>
<text text-anchor="middle" x="1472.3" y="-158.3" font-family="Times,serif" font-size="14.00">TypeModId0</text>
</g>
<!-- TypeModId0&#45;&gt;ExpId7 -->
<g id="edge21" class="edge"><title>TypeModId0&#45;&gt;ExpId7</title>
<path fill="none" stroke="black" d="M1472.3,-143.697C1472.3,-135.983 1472.3,-126.712 1472.3,-118.112"/>
<polygon fill="black" stroke="black" points="1475.8,-118.104 1472.3,-108.104 1468.8,-118.104 1475.8,-118.104"/>
</g>
<!-- Id3: Start -->
<g id="node30" class="node"><title>Id3: Start</title>
<ellipse fill="none" stroke="black" cx="161.295" cy="-90" rx="44.393" ry="18"/>
<text text-anchor="middle" x="161.295" y="-86.3" font-family="Times,serif" font-size="14.00">Id3: Start</text>
</g>
<!-- ExpId3&#45;&gt;Id3: Start -->
<g id="edge22" class="edge"><title>ExpId3&#45;&gt;Id3: Start</title>
<path fill="none" stroke="black" d="M161.295,-143.697C161.295,-135.983 161.295,-126.712 161.295,-118.112"/>
<polygon fill="black" stroke="black" points="164.795,-118.104 161.295,-108.104 157.795,-118.104 164.795,-118.104"/>
</g>
<!-- Id4: TV -->
<g id="node32" class="node"><title>Id4: TV</title>
<ellipse fill="none" stroke="black" cx="531.295" cy="-234" rx="38.9931" ry="18"/>
<text text-anchor="middle" x="531.295" y="-230.3" font-family="Times,serif" font-size="14.00">Id4: TV</text>
</g>
<!-- ExpId4&#45;&gt;Id4: TV -->
<g id="edge23" class="edge"><title>ExpId4&#45;&gt;Id4: TV</title>
<path fill="none" stroke="black" d="M531.295,-287.697C531.295,-279.983 531.295,-270.712 531.295,-262.112"/>
<polygon fill="black" stroke="black" points="534.795,-262.104 531.295,-252.104 527.795,-262.104 534.795,-262.104"/>
</g>
<!-- MethDecl1&#45;&gt;ExpNumber1 -->
<g id="edge47" class="edge"><title>MethDecl1&#45;&gt;ExpNumber1</title>
<path fill="none" stroke="black" d="M1689.93,-227.663C1760.02,-219.458 1894.9,-202.324 2008.3,-180 2013.32,-179.012 2018.52,-177.889 2023.72,-176.704"/>
<polygon fill="black" stroke="black" points="2024.71,-180.065 2033.64,-174.364 2023.1,-173.252 2024.71,-180.065"/>
</g>
<!-- MethDecl1&#45;&gt;ExpId8 -->
<g id="edge43" class="edge"><title>MethDecl1&#45;&gt;ExpId8</title>
<path fill="none" stroke="black" d="M1628.55,-216.411C1621.22,-207.567 1612.08,-196.531 1604.01,-186.789"/>
<polygon fill="black" stroke="black" points="1606.62,-184.455 1597.54,-178.988 1601.23,-188.921 1606.62,-184.455"/>
</g>
<!-- MethDecl1&#45;&gt;TypeModId0 -->
<g id="edge42" class="edge"><title>MethDecl1&#45;&gt;TypeModId0</title>
<path fill="none" stroke="black" d="M1610.32,-219.834C1583.42,-208.755 1544.71,-192.818 1515.13,-180.638"/>
<polygon fill="black" stroke="black" points="1516.45,-177.397 1505.87,-176.826 1513.79,-183.87 1516.45,-177.397"/>
</g>
<!-- AccessModPublic1 -->
<g id="node45" class="node"><title>AccessModPublic1</title>
<ellipse fill="none" stroke="black" cx="1317.3" cy="-162" rx="79.0865" ry="18"/>
<text text-anchor="middle" x="1317.3" y="-158.3" font-family="Times,serif" font-size="14.00">AccessModPublic1</text>
</g>
<!-- MethDecl1&#45;&gt;AccessModPublic1 -->
<g id="edge41" class="edge"><title>MethDecl1&#45;&gt;AccessModPublic1</title>
<path fill="none" stroke="black" d="M1600.14,-223.92C1544.95,-212.034 1447.64,-191.074 1382.81,-177.11"/>
<polygon fill="black" stroke="black" points="1383.21,-173.616 1372.69,-174.932 1381.73,-180.459 1383.21,-173.616"/>
</g>
<!-- MethArgList1 -->
<g id="node46" class="node"><title>MethArgList1</title>
<ellipse fill="none" stroke="black" cx="1700.3" cy="-162" rx="61.99" ry="18"/>
<text text-anchor="middle" x="1700.3" y="-158.3" font-family="Times,serif" font-size="14.00">MethArgList1</text>
</g>
<!-- MethDecl1&#45;&gt;MethArgList1 -->
<g id="edge44" class="edge"><title>MethDecl1&#45;&gt;MethArgList1</title>
<path fill="none" stroke="black" d="M1656.04,-216.411C1663.09,-207.906 1671.82,-197.372 1679.65,-187.914"/>
<polygon fill="black" stroke="black" points="1682.56,-189.89 1686.25,-179.956 1677.17,-185.423 1682.56,-189.89"/>
</g>
<!-- VarDeclList3 -->
<g id="node47" class="node"><title>VarDeclList3</title>
<ellipse fill="none" stroke="black" cx="1838.3" cy="-162" rx="58.4896" ry="18"/>
<text text-anchor="middle" x="1838.3" y="-158.3" font-family="Times,serif" font-size="14.00">VarDeclList3</text>
</g>
<!-- MethDecl1&#45;&gt;VarDeclList3 -->
<g id="edge45" class="edge"><title>MethDecl1&#45;&gt;VarDeclList3</title>
<path fill="none" stroke="black" d="M1676.88,-220.647C1708.93,-209.202 1756.83,-192.096 1792.13,-179.489"/>
<polygon fill="black" stroke="black" points="1793.48,-182.72 1801.72,-176.061 1791.13,-176.128 1793.48,-182.72"/>
</g>
<!-- StatList2 -->
<g id="node48" class="node"><title>StatList2</title>
<ellipse fill="none" stroke="black" cx="1957.3" cy="-162" rx="42.4939" ry="18"/>
<text text-anchor="middle" x="1957.3" y="-158.3" font-family="Times,serif" font-size="14.00">StatList2</text>
</g>
<!-- MethDecl1&#45;&gt;StatList2 -->
<g id="edge46" class="edge"><title>MethDecl1&#45;&gt;StatList2</title>
<path fill="none" stroke="black" d="M1687.34,-225.579C1740.01,-216.521 1829.62,-199.921 1905.3,-180 1908.71,-179.102 1912.22,-178.107 1915.74,-177.063"/>
<polygon fill="black" stroke="black" points="1917.05,-180.32 1925.57,-174.024 1914.98,-173.632 1917.05,-180.32"/>
</g>
<!-- Id5: Start -->
<g id="node42" class="node"><title>Id5: Start</title>
<ellipse fill="none" stroke="black" cx="669.295" cy="-90" rx="44.393" ry="18"/>
<text text-anchor="middle" x="669.295" y="-86.3" font-family="Times,serif" font-size="14.00">Id5: Start</text>
</g>
<!-- ExpId5&#45;&gt;Id5: Start -->
<g id="edge38" class="edge"><title>ExpId5&#45;&gt;Id5: Start</title>
<path fill="none" stroke="black" d="M669.295,-143.697C669.295,-135.983 669.295,-126.712 669.295,-118.112"/>
<polygon fill="black" stroke="black" points="672.795,-118.104 669.295,-108.104 665.795,-118.104 672.795,-118.104"/>
</g>
</g>
</svg>
