<?xml version="1.0" encoding="UTF-8" standalone="no"?>
<!DOCTYPE svg PUBLIC "-//W3C//DTD SVG 1.1//EN"
 "http://www.w3.org/Graphics/SVG/1.1/DTD/svg11.dtd">
<!-- Generated by graphviz version 2.38.0 (20140413.2041)
 -->
<!-- Title: %3 Pages: 1 -->
<svg width="487pt" height="332pt"
 viewBox="0.00 0.00 487.14 332.00" xmlns="http://www.w3.org/2000/svg" xmlns:xlink="http://www.w3.org/1999/xlink">
<g id="graph0" class="graph" transform="scale(1 1) rotate(0) translate(4 328)">
<title>%3</title>
<polygon fill="white" stroke="none" points="-4,4 -4,-328 483.141,-328 483.141,4 -4,4"/>
<!-- AddConst1 -->
<g id="node1" class="node"><title>AddConst1</title>
<ellipse fill="none" stroke="black" cx="381.645" cy="-234" rx="50.8918" ry="18"/>
<text text-anchor="middle" x="381.645" y="-230.3" font-family="Times,serif" font-size="14.00">AddConst1</text>
</g>
<!-- NullExp1 -->
<g id="node2" class="node"><title>NullExp1</title>
<ellipse fill="none" stroke="black" cx="325.645" cy="-162" rx="44.6926" ry="18"/>
<text text-anchor="middle" x="325.645" y="-158.3" font-family="Times,serif" font-size="14.00">NullExp1</text>
</g>
<!-- AddConst1&#45;&gt;NullExp1 -->
<g id="edge1" class="edge"><title>AddConst1&#45;&gt;NullExp1</title>
<path fill="none" stroke="black" d="M368.374,-216.411C361.47,-207.781 352.895,-197.062 345.243,-187.497"/>
<polygon fill="black" stroke="black" points="347.801,-185.092 338.821,-179.47 342.335,-189.465 347.801,-185.092"/>
</g>
<!-- Value3: 1 -->
<g id="node3" class="node"><title>Value3: 1</title>
<ellipse fill="none" stroke="black" cx="433.645" cy="-162" rx="45.4919" ry="18"/>
<text text-anchor="middle" x="433.645" y="-158.3" font-family="Times,serif" font-size="14.00">Value3: 1</text>
</g>
<!-- AddConst1&#45;&gt;Value3: 1 -->
<g id="edge2" class="edge"><title>AddConst1&#45;&gt;Value3: 1</title>
<path fill="none" stroke="black" d="M393.969,-216.411C400.315,-207.868 408.181,-197.278 415.232,-187.787"/>
<polygon fill="black" stroke="black" points="418.257,-189.585 421.411,-179.47 412.638,-185.41 418.257,-189.585"/>
</g>
<!-- Store0 -->
<g id="node4" class="node"><title>Store0</title>
<ellipse fill="none" stroke="black" cx="262.645" cy="-306" rx="33.5952" ry="18"/>
<text text-anchor="middle" x="262.645" y="-302.3" font-family="Times,serif" font-size="14.00">Store0</text>
</g>
<!-- Store0&#45;&gt;AddConst1 -->
<g id="edge5" class="edge"><title>Store0&#45;&gt;AddConst1</title>
<path fill="none" stroke="black" d="M284.472,-292.161C302.24,-281.709 327.623,-266.778 347.991,-254.797"/>
<polygon fill="black" stroke="black" points="349.818,-257.783 356.663,-249.696 346.269,-251.749 349.818,-257.783"/>
</g>
<!-- Load0 -->
<g id="node5" class="node"><title>Load0</title>
<ellipse fill="none" stroke="black" cx="161.645" cy="-234" rx="33.2948" ry="18"/>
<text text-anchor="middle" x="161.645" y="-230.3" font-family="Times,serif" font-size="14.00">Load0</text>
</g>
<!-- Store0&#45;&gt;Load0 -->
<g id="edge3" class="edge"><title>Store0&#45;&gt;Load0</title>
<path fill="none" stroke="black" d="M242.691,-291.17C227.515,-280.652 206.443,-266.048 189.59,-254.367"/>
<polygon fill="black" stroke="black" points="191.427,-251.383 181.215,-248.563 187.44,-257.136 191.427,-251.383"/>
</g>
<!-- Value2: 36 -->
<g id="node6" class="node"><title>Value2: 36</title>
<ellipse fill="none" stroke="black" cx="262.645" cy="-234" rx="50.0912" ry="18"/>
<text text-anchor="middle" x="262.645" y="-230.3" font-family="Times,serif" font-size="14.00">Value2: 36</text>
</g>
<!-- Store0&#45;&gt;Value2: 36 -->
<g id="edge4" class="edge"><title>Store0&#45;&gt;Value2: 36</title>
<path fill="none" stroke="black" d="M256.767,-288.055C255.949,-280.346 255.707,-271.027 256.04,-262.364"/>
<polygon fill="black" stroke="black" points="259.54,-262.491 256.733,-252.275 252.556,-262.012 259.54,-262.491"/>
</g>
<!-- Store0&#45;&gt;Value2: 36 -->
<g id="edge6" class="edge"><title>Store0&#45;&gt;Value2: 36</title>
<path fill="none" stroke="black" d="M268.524,-288.055C269.342,-280.346 269.584,-271.027 269.25,-262.364"/>
<polygon fill="black" stroke="black" points="272.735,-262.012 268.558,-252.275 265.751,-262.491 272.735,-262.012"/>
</g>
<!-- Add0 -->
<g id="node9" class="node"><title>Add0</title>
<ellipse fill="none" stroke="black" cx="114.645" cy="-162" rx="30.5947" ry="18"/>
<text text-anchor="middle" x="114.645" y="-158.3" font-family="Times,serif" font-size="14.00">Add0</text>
</g>
<!-- Load0&#45;&gt;Add0 -->
<g id="edge12" class="edge"><title>Load0&#45;&gt;Add0</title>
<path fill="none" stroke="black" d="M150.744,-216.765C144.931,-208.106 137.657,-197.273 131.165,-187.604"/>
<polygon fill="black" stroke="black" points="133.967,-185.499 125.487,-179.147 128.156,-189.401 133.967,-185.499"/>
</g>
<!-- Value1: 0 -->
<g id="node13" class="node"><title>Value1: 0</title>
<ellipse fill="none" stroke="black" cx="208.645" cy="-162" rx="45.4919" ry="18"/>
<text text-anchor="middle" x="208.645" y="-158.3" font-family="Times,serif" font-size="14.00">Value1: 0</text>
</g>
<!-- Load0&#45;&gt;Value1: 0 -->
<g id="edge13" class="edge"><title>Load0&#45;&gt;Value1: 0</title>
<path fill="none" stroke="black" d="M172.546,-216.765C178.277,-208.23 185.426,-197.582 191.847,-188.019"/>
<polygon fill="black" stroke="black" points="194.809,-189.887 197.477,-179.633 188.997,-185.985 194.809,-189.887"/>
</g>
<!-- Temp0 -->
<g id="node7" class="node"><title>Temp0</title>
<ellipse fill="none" stroke="black" cx="57.6453" cy="-90" rx="36.2938" ry="18"/>
<text text-anchor="middle" x="57.6453" y="-86.3" font-family="Times,serif" font-size="14.00">Temp0</text>
</g>
<!-- Temp1: $fp -->
<g id="node8" class="node"><title>Temp1: $fp</title>
<ellipse fill="none" stroke="black" cx="52.6453" cy="-18" rx="52.7911" ry="18"/>
<text text-anchor="middle" x="52.6453" y="-14.3" font-family="Times,serif" font-size="14.00">Temp1: $fp</text>
</g>
<!-- Temp0&#45;&gt;Temp1: $fp -->
<g id="edge7" class="edge"><title>Temp0&#45;&gt;Temp1: $fp</title>
<path fill="none" stroke="black" d="M56.4094,-71.6966C55.8584,-63.9827 55.1962,-54.7125 54.5819,-46.1124"/>
<polygon fill="black" stroke="black" points="58.0707,-45.8295 53.8671,-36.1043 51.0885,-46.3283 58.0707,-45.8295"/>
</g>
<!-- Add0&#45;&gt;Temp0 -->
<g id="edge8" class="edge"><title>Add0&#45;&gt;Temp0</title>
<path fill="none" stroke="black" d="M101.995,-145.465C94.6453,-136.439 85.2333,-124.88 76.9723,-114.735"/>
<polygon fill="black" stroke="black" points="79.6836,-112.522 70.6553,-106.977 74.2556,-116.942 79.6836,-112.522"/>
</g>
<!-- AddConst0 -->
<g id="node10" class="node"><title>AddConst0</title>
<ellipse fill="none" stroke="black" cx="167.645" cy="-90" rx="50.8918" ry="18"/>
<text text-anchor="middle" x="167.645" y="-86.3" font-family="Times,serif" font-size="14.00">AddConst0</text>
</g>
<!-- Add0&#45;&gt;AddConst0 -->
<g id="edge9" class="edge"><title>Add0&#45;&gt;AddConst0</title>
<path fill="none" stroke="black" d="M126.672,-145.116C133.191,-136.505 141.397,-125.667 148.75,-115.957"/>
<polygon fill="black" stroke="black" points="151.681,-117.883 154.927,-107.797 146.101,-113.657 151.681,-117.883"/>
</g>
<!-- NullExp0 -->
<g id="node11" class="node"><title>NullExp0</title>
<ellipse fill="none" stroke="black" cx="167.645" cy="-18" rx="44.6926" ry="18"/>
<text text-anchor="middle" x="167.645" y="-14.3" font-family="Times,serif" font-size="14.00">NullExp0</text>
</g>
<!-- AddConst0&#45;&gt;NullExp0 -->
<g id="edge10" class="edge"><title>AddConst0&#45;&gt;NullExp0</title>
<path fill="none" stroke="black" d="M167.645,-71.6966C167.645,-63.9827 167.645,-54.7125 167.645,-46.1124"/>
<polygon fill="black" stroke="black" points="171.145,-46.1043 167.645,-36.1043 164.145,-46.1044 171.145,-46.1043"/>
</g>
<!-- Value0: 36 -->
<g id="node12" class="node"><title>Value0: 36</title>
<ellipse fill="none" stroke="black" cx="280.645" cy="-18" rx="50.0912" ry="18"/>
<text text-anchor="middle" x="280.645" y="-14.3" font-family="Times,serif" font-size="14.00">Value0: 36</text>
</g>
<!-- AddConst0&#45;&gt;Value0: 36 -->
<g id="edge11" class="edge"><title>AddConst0&#45;&gt;Value0: 36</title>
<path fill="none" stroke="black" d="M191.887,-73.9832C208.122,-63.9257 229.703,-50.5573 247.519,-39.5209"/>
<polygon fill="black" stroke="black" points="249.786,-42.2335 256.444,-33.9919 246.1,-36.2827 249.786,-42.2335"/>
</g>
</g>
</svg>
