<?xml version="1.0" encoding="UTF-8" standalone="no"?>
<!DOCTYPE svg PUBLIC "-//W3C//DTD SVG 1.1//EN"
 "http://www.w3.org/Graphics/SVG/1.1/DTD/svg11.dtd">
<!-- Generated by graphviz version 2.38.0 (20140413.2041)
 -->
<!-- Title: %3 Pages: 1 -->
<svg width="603pt" height="476pt"
 viewBox="0.00 0.00 602.69 476.00" xmlns="http://www.w3.org/2000/svg" xmlns:xlink="http://www.w3.org/1999/xlink">
<g id="graph0" class="graph" transform="scale(1 1) rotate(0) translate(4 472)">
<title>%3</title>
<polygon fill="white" stroke="none" points="-4,4 -4,-472 598.691,-472 598.691,4 -4,4"/>
<!-- StatJump0 -->
<g id="node1" class="node"><title>StatJump0</title>
<ellipse fill="none" stroke="black" cx="488.645" cy="-378" rx="48.1917" ry="18"/>
<text text-anchor="middle" x="488.645" y="-374.3" font-family="Times,serif" font-size="14.00">StatJump0</text>
</g>
<!-- Label1: L6 -->
<g id="node2" class="node"><title>Label1: L6</title>
<ellipse fill="none" stroke="black" cx="506.645" cy="-306" rx="50.0912" ry="18"/>
<text text-anchor="middle" x="506.645" y="-302.3" font-family="Times,serif" font-size="14.00">Label1: L6</text>
</g>
<!-- StatJump0&#45;&gt;Label1: L6 -->
<g id="edge1" class="edge"><title>StatJump0&#45;&gt;Label1: L6</title>
<path fill="none" stroke="black" d="M493.003,-360.055C495.007,-352.261 497.434,-342.822 499.682,-334.079"/>
<polygon fill="black" stroke="black" points="503.102,-334.832 502.203,-324.275 496.323,-333.089 503.102,-334.832"/>
</g>
<!-- ExpConst2 -->
<g id="node3" class="node"><title>ExpConst2</title>
<ellipse fill="none" stroke="black" cx="544.645" cy="-234" rx="50.0912" ry="18"/>
<text text-anchor="middle" x="544.645" y="-230.3" font-family="Times,serif" font-size="14.00">ExpConst2</text>
</g>
<!-- Value2: 1 -->
<g id="node4" class="node"><title>Value2: 1</title>
<ellipse fill="none" stroke="black" cx="544.645" cy="-162" rx="45.4919" ry="18"/>
<text text-anchor="middle" x="544.645" y="-158.3" font-family="Times,serif" font-size="14.00">Value2: 1</text>
</g>
<!-- ExpConst2&#45;&gt;Value2: 1 -->
<g id="edge2" class="edge"><title>ExpConst2&#45;&gt;Value2: 1</title>
<path fill="none" stroke="black" d="M544.645,-215.697C544.645,-207.983 544.645,-198.712 544.645,-190.112"/>
<polygon fill="black" stroke="black" points="548.145,-190.104 544.645,-180.104 541.145,-190.104 548.145,-190.104"/>
</g>
<!-- ExpBinary0 -->
<g id="node5" class="node"><title>ExpBinary0</title>
<ellipse fill="none" stroke="black" cx="182.645" cy="-234" rx="53.0913" ry="18"/>
<text text-anchor="middle" x="182.645" y="-230.3" font-family="Times,serif" font-size="14.00">ExpBinary0</text>
</g>
<!-- ExpTemp0 -->
<g id="node6" class="node"><title>ExpTemp0</title>
<ellipse fill="none" stroke="black" cx="52.6453" cy="-162" rx="50.0912" ry="18"/>
<text text-anchor="middle" x="52.6453" y="-158.3" font-family="Times,serif" font-size="14.00">ExpTemp0</text>
</g>
<!-- ExpBinary0&#45;&gt;ExpTemp0 -->
<g id="edge3" class="edge"><title>ExpBinary0&#45;&gt;ExpTemp0</title>
<path fill="none" stroke="black" d="M155.393,-218.326C135.936,-207.849 109.574,-193.654 88.4241,-182.265"/>
<polygon fill="black" stroke="black" points="89.8805,-179.075 79.4164,-177.415 86.5618,-185.238 89.8805,-179.075"/>
</g>
<!-- Plus0 -->
<g id="node7" class="node"><title>Plus0</title>
<ellipse fill="none" stroke="black" cx="151.645" cy="-162" rx="30.5947" ry="18"/>
<text text-anchor="middle" x="151.645" y="-158.3" font-family="Times,serif" font-size="14.00">Plus0</text>
</g>
<!-- ExpBinary0&#45;&gt;Plus0 -->
<g id="edge4" class="edge"><title>ExpBinary0&#45;&gt;Plus0</title>
<path fill="none" stroke="black" d="M175.141,-216.055C171.562,-207.973 167.199,-198.121 163.209,-189.112"/>
<polygon fill="black" stroke="black" points="166.33,-187.515 159.08,-179.789 159.93,-190.35 166.33,-187.515"/>
</g>
<!-- ExpConst0 -->
<g id="node8" class="node"><title>ExpConst0</title>
<ellipse fill="none" stroke="black" cx="250.645" cy="-162" rx="50.0912" ry="18"/>
<text text-anchor="middle" x="250.645" y="-158.3" font-family="Times,serif" font-size="14.00">ExpConst0</text>
</g>
<!-- ExpBinary0&#45;&gt;ExpConst0 -->
<g id="edge5" class="edge"><title>ExpBinary0&#45;&gt;ExpConst0</title>
<path fill="none" stroke="black" d="M198.417,-216.765C207.171,-207.753 218.214,-196.385 227.889,-186.426"/>
<polygon fill="black" stroke="black" points="230.502,-188.759 234.959,-179.147 225.481,-183.881 230.502,-188.759"/>
</g>
<!-- Temp0: $fp -->
<g id="node16" class="node"><title>Temp0: $fp</title>
<ellipse fill="none" stroke="black" cx="52.6453" cy="-90" rx="52.7911" ry="18"/>
<text text-anchor="middle" x="52.6453" y="-86.3" font-family="Times,serif" font-size="14.00">Temp0: $fp</text>
</g>
<!-- ExpTemp0&#45;&gt;Temp0: $fp -->
<g id="edge11" class="edge"><title>ExpTemp0&#45;&gt;Temp0: $fp</title>
<path fill="none" stroke="black" d="M52.6453,-143.697C52.6453,-135.983 52.6453,-126.712 52.6453,-118.112"/>
<polygon fill="black" stroke="black" points="56.1454,-118.104 52.6453,-108.104 49.1454,-118.104 56.1454,-118.104"/>
</g>
<!-- Value0: 36 -->
<g id="node21" class="node"><title>Value0: 36</title>
<ellipse fill="none" stroke="black" cx="211.645" cy="-90" rx="50.0912" ry="18"/>
<text text-anchor="middle" x="211.645" y="-86.3" font-family="Times,serif" font-size="14.00">Value0: 36</text>
</g>
<!-- ExpConst0&#45;&gt;Value0: 36 -->
<g id="edge17" class="edge"><title>ExpConst0&#45;&gt;Value0: 36</title>
<path fill="none" stroke="black" d="M241.205,-144.055C236.606,-135.801 230.979,-125.701 225.874,-116.538"/>
<polygon fill="black" stroke="black" points="228.924,-114.821 220.999,-107.789 222.809,-118.228 228.924,-114.821"/>
</g>
<!-- StatMove0 -->
<g id="node9" class="node"><title>StatMove0</title>
<ellipse fill="none" stroke="black" cx="355.645" cy="-378" rx="50.0912" ry="18"/>
<text text-anchor="middle" x="355.645" y="-374.3" font-family="Times,serif" font-size="14.00">StatMove0</text>
</g>
<!-- ExpMem0 -->
<g id="node10" class="node"><title>ExpMem0</title>
<ellipse fill="none" stroke="black" cx="265.645" cy="-306" rx="48.9926" ry="18"/>
<text text-anchor="middle" x="265.645" y="-302.3" font-family="Times,serif" font-size="14.00">ExpMem0</text>
</g>
<!-- StatMove0&#45;&gt;ExpMem0 -->
<g id="edge6" class="edge"><title>StatMove0&#45;&gt;ExpMem0</title>
<path fill="none" stroke="black" d="M335.671,-361.465C323.32,-351.858 307.281,-339.383 293.67,-328.797"/>
<polygon fill="black" stroke="black" points="295.606,-325.869 285.563,-322.492 291.308,-331.394 295.606,-325.869"/>
</g>
<!-- ExpBinary1 -->
<g id="node11" class="node"><title>ExpBinary1</title>
<ellipse fill="none" stroke="black" cx="385.645" cy="-306" rx="53.0913" ry="18"/>
<text text-anchor="middle" x="385.645" y="-302.3" font-family="Times,serif" font-size="14.00">ExpBinary1</text>
</g>
<!-- StatMove0&#45;&gt;ExpBinary1 -->
<g id="edge7" class="edge"><title>StatMove0&#45;&gt;ExpBinary1</title>
<path fill="none" stroke="black" d="M362.907,-360.055C366.32,-352.091 370.469,-342.411 374.284,-333.51"/>
<polygon fill="black" stroke="black" points="377.519,-334.845 378.242,-324.275 371.085,-332.088 377.519,-334.845"/>
</g>
<!-- ExpMem0&#45;&gt;ExpBinary0 -->
<g id="edge21" class="edge"><title>ExpMem0&#45;&gt;ExpBinary0</title>
<path fill="none" stroke="black" d="M246.811,-289.116C235.747,-279.785 221.582,-267.838 209.377,-257.545"/>
<polygon fill="black" stroke="black" points="211.593,-254.835 201.692,-251.064 207.08,-260.186 211.593,-254.835"/>
</g>
<!-- ExpBinary1&#45;&gt;ExpConst2 -->
<g id="edge20" class="edge"><title>ExpBinary1&#45;&gt;ExpConst2</title>
<path fill="none" stroke="black" d="M416.68,-291.337C441.903,-280.233 477.651,-264.494 504.955,-252.474"/>
<polygon fill="black" stroke="black" points="506.487,-255.623 514.229,-248.391 503.667,-249.217 506.487,-255.623"/>
</g>
<!-- ExpMem1 -->
<g id="node20" class="node"><title>ExpMem1</title>
<ellipse fill="none" stroke="black" cx="333.645" cy="-234" rx="48.9926" ry="18"/>
<text text-anchor="middle" x="333.645" y="-230.3" font-family="Times,serif" font-size="14.00">ExpMem1</text>
</g>
<!-- ExpBinary1&#45;&gt;ExpMem1 -->
<g id="edge18" class="edge"><title>ExpBinary1&#45;&gt;ExpMem1</title>
<path fill="none" stroke="black" d="M373.322,-288.411C366.976,-279.868 359.109,-269.278 352.059,-259.787"/>
<polygon fill="black" stroke="black" points="354.653,-257.41 345.88,-251.47 349.034,-261.585 354.653,-257.41"/>
</g>
<!-- Minus0 -->
<g id="node22" class="node"><title>Minus0</title>
<ellipse fill="none" stroke="black" cx="438.645" cy="-234" rx="38.1938" ry="18"/>
<text text-anchor="middle" x="438.645" y="-230.3" font-family="Times,serif" font-size="14.00">Minus0</text>
</g>
<!-- ExpBinary1&#45;&gt;Minus0 -->
<g id="edge19" class="edge"><title>ExpBinary1&#45;&gt;Minus0</title>
<path fill="none" stroke="black" d="M398.206,-288.411C404.74,-279.781 412.855,-269.062 420.097,-259.497"/>
<polygon fill="black" stroke="black" points="422.929,-261.555 426.175,-251.47 417.348,-257.33 422.929,-261.555"/>
</g>
<!-- ExpBinary2 -->
<g id="node12" class="node"><title>ExpBinary2</title>
<ellipse fill="none" stroke="black" cx="380.645" cy="-162" rx="53.0913" ry="18"/>
<text text-anchor="middle" x="380.645" y="-158.3" font-family="Times,serif" font-size="14.00">ExpBinary2</text>
</g>
<!-- ExpTemp1 -->
<g id="node13" class="node"><title>ExpTemp1</title>
<ellipse fill="none" stroke="black" cx="329.645" cy="-90" rx="50.0912" ry="18"/>
<text text-anchor="middle" x="329.645" y="-86.3" font-family="Times,serif" font-size="14.00">ExpTemp1</text>
</g>
<!-- ExpBinary2&#45;&gt;ExpTemp1 -->
<g id="edge8" class="edge"><title>ExpBinary2&#45;&gt;ExpTemp1</title>
<path fill="none" stroke="black" d="M368.559,-144.411C362.425,-135.992 354.843,-125.585 348.006,-116.201"/>
<polygon fill="black" stroke="black" points="350.717,-113.978 341.999,-107.956 345.059,-118.1 350.717,-113.978"/>
</g>
<!-- Plus1 -->
<g id="node14" class="node"><title>Plus1</title>
<ellipse fill="none" stroke="black" cx="428.645" cy="-90" rx="30.5947" ry="18"/>
<text text-anchor="middle" x="428.645" y="-86.3" font-family="Times,serif" font-size="14.00">Plus1</text>
</g>
<!-- ExpBinary2&#45;&gt;Plus1 -->
<g id="edge9" class="edge"><title>ExpBinary2&#45;&gt;Plus1</title>
<path fill="none" stroke="black" d="M392.021,-144.411C397.964,-135.744 405.351,-124.971 411.931,-115.375"/>
<polygon fill="black" stroke="black" points="414.913,-117.215 417.682,-106.988 409.14,-113.256 414.913,-117.215"/>
</g>
<!-- ExpConst1 -->
<g id="node15" class="node"><title>ExpConst1</title>
<ellipse fill="none" stroke="black" cx="527.645" cy="-90" rx="50.0912" ry="18"/>
<text text-anchor="middle" x="527.645" y="-86.3" font-family="Times,serif" font-size="14.00">ExpConst1</text>
</g>
<!-- ExpBinary2&#45;&gt;ExpConst1 -->
<g id="edge10" class="edge"><title>ExpBinary2&#45;&gt;ExpConst1</title>
<path fill="none" stroke="black" d="M410.393,-146.834C433.156,-135.995 464.723,-120.963 489.369,-109.227"/>
<polygon fill="black" stroke="black" points="490.92,-112.365 498.444,-104.906 487.91,-106.045 490.92,-112.365"/>
</g>
<!-- Temp1: $fp -->
<g id="node23" class="node"><title>Temp1: $fp</title>
<ellipse fill="none" stroke="black" cx="329.645" cy="-18" rx="52.7911" ry="18"/>
<text text-anchor="middle" x="329.645" y="-14.3" font-family="Times,serif" font-size="14.00">Temp1: $fp</text>
</g>
<!-- ExpTemp1&#45;&gt;Temp1: $fp -->
<g id="edge22" class="edge"><title>ExpTemp1&#45;&gt;Temp1: $fp</title>
<path fill="none" stroke="black" d="M329.645,-71.6966C329.645,-63.9827 329.645,-54.7125 329.645,-46.1124"/>
<polygon fill="black" stroke="black" points="333.145,-46.1043 329.645,-36.1043 326.145,-46.1044 333.145,-46.1043"/>
</g>
<!-- Value1: 36 -->
<g id="node24" class="node"><title>Value1: 36</title>
<ellipse fill="none" stroke="black" cx="527.645" cy="-18" rx="50.0912" ry="18"/>
<text text-anchor="middle" x="527.645" y="-14.3" font-family="Times,serif" font-size="14.00">Value1: 36</text>
</g>
<!-- ExpConst1&#45;&gt;Value1: 36 -->
<g id="edge23" class="edge"><title>ExpConst1&#45;&gt;Value1: 36</title>
<path fill="none" stroke="black" d="M527.645,-71.6966C527.645,-63.9827 527.645,-54.7125 527.645,-46.1124"/>
<polygon fill="black" stroke="black" points="531.145,-46.1043 527.645,-36.1043 524.145,-46.1044 531.145,-46.1043"/>
</g>
<!-- StatList0 -->
<g id="node17" class="node"><title>StatList0</title>
<ellipse fill="none" stroke="black" cx="355.645" cy="-450" rx="42.4939" ry="18"/>
<text text-anchor="middle" x="355.645" y="-446.3" font-family="Times,serif" font-size="14.00">StatList0</text>
</g>
<!-- StatList0&#45;&gt;StatJump0 -->
<g id="edge14" class="edge"><title>StatList0&#45;&gt;StatJump0</title>
<path fill="none" stroke="black" d="M381.289,-435.503C401.59,-424.818 430.186,-409.768 452.76,-397.887"/>
<polygon fill="black" stroke="black" points="454.492,-400.931 461.711,-393.176 451.231,-394.736 454.492,-400.931"/>
</g>
<!-- StatList0&#45;&gt;StatMove0 -->
<g id="edge13" class="edge"><title>StatList0&#45;&gt;StatMove0</title>
<path fill="none" stroke="black" d="M355.645,-431.697C355.645,-423.983 355.645,-414.712 355.645,-406.112"/>
<polygon fill="black" stroke="black" points="359.145,-406.104 355.645,-396.104 352.145,-406.104 359.145,-406.104"/>
</g>
<!-- StatLabel0 -->
<g id="node18" class="node"><title>StatLabel0</title>
<ellipse fill="none" stroke="black" cx="208.645" cy="-378" rx="48.9926" ry="18"/>
<text text-anchor="middle" x="208.645" y="-374.3" font-family="Times,serif" font-size="14.00">StatLabel0</text>
</g>
<!-- StatList0&#45;&gt;StatLabel0 -->
<g id="edge12" class="edge"><title>StatList0&#45;&gt;StatLabel0</title>
<path fill="none" stroke="black" d="M328.34,-435.998C305.268,-425.011 271.984,-409.161 246.368,-396.963"/>
<polygon fill="black" stroke="black" points="247.843,-393.789 237.31,-392.65 244.834,-400.109 247.843,-393.789"/>
</g>
<!-- Label0: L5 -->
<g id="node19" class="node"><title>Label0: L5</title>
<ellipse fill="none" stroke="black" cx="148.645" cy="-306" rx="50.0912" ry="18"/>
<text text-anchor="middle" x="148.645" y="-302.3" font-family="Times,serif" font-size="14.00">Label0: L5</text>
</g>
<!-- StatLabel0&#45;&gt;Label0: L5 -->
<g id="edge15" class="edge"><title>StatLabel0&#45;&gt;Label0: L5</title>
<path fill="none" stroke="black" d="M194.426,-360.411C186.954,-351.693 177.656,-340.845 169.395,-331.208"/>
<polygon fill="black" stroke="black" points="171.928,-328.785 162.762,-323.47 166.613,-333.34 171.928,-328.785"/>
</g>
<!-- ExpMem1&#45;&gt;ExpBinary2 -->
<g id="edge16" class="edge"><title>ExpMem1&#45;&gt;ExpBinary2</title>
<path fill="none" stroke="black" d="M344.784,-216.411C350.379,-208.077 357.282,-197.797 363.532,-188.488"/>
<polygon fill="black" stroke="black" points="366.592,-190.209 369.26,-179.956 360.78,-186.307 366.592,-190.209"/>
</g>
</g>
</svg>
