<?xml version="1.0" encoding="UTF-8" standalone="no"?>
<!DOCTYPE svg PUBLIC "-//W3C//DTD SVG 1.1//EN"
 "http://www.w3.org/Graphics/SVG/1.1/DTD/svg11.dtd">
<!-- Generated by graphviz version 2.38.0 (20140413.2041)
 -->
<!-- Title: %3 Pages: 1 -->
<svg width="591pt" height="476pt"
 viewBox="0.00 0.00 590.69 476.00" xmlns="http://www.w3.org/2000/svg" xmlns:xlink="http://www.w3.org/1999/xlink">
<g id="graph0" class="graph" transform="scale(1 1) rotate(0) translate(4 472)">
<title>%3</title>
<polygon fill="white" stroke="none" points="-4,4 -4,-472 586.691,-472 586.691,4 -4,4"/>
<!-- StatJump0 -->
<g id="node1" class="node"><title>StatJump0</title>
<ellipse fill="none" stroke="black" cx="487.645" cy="-378" rx="48.1917" ry="18"/>
<text text-anchor="middle" x="487.645" y="-374.3" font-family="Times,serif" font-size="14.00">StatJump0</text>
</g>
<!-- Label1: L3 -->
<g id="node2" class="node"><title>Label1: L3</title>
<ellipse fill="none" stroke="black" cx="505.645" cy="-306" rx="50.0912" ry="18"/>
<text text-anchor="middle" x="505.645" y="-302.3" font-family="Times,serif" font-size="14.00">Label1: L3</text>
</g>
<!-- StatJump0&#45;&gt;Label1: L3 -->
<g id="edge1" class="edge"><title>StatJump0&#45;&gt;Label1: L3</title>
<path fill="none" stroke="black" d="M492.003,-360.055C494.007,-352.261 496.434,-342.822 498.682,-334.079"/>
<polygon fill="black" stroke="black" points="502.102,-334.832 501.203,-324.275 495.323,-333.089 502.102,-334.832"/>
</g>
<!-- ExpConst2 -->
<g id="node3" class="node"><title>ExpConst2</title>
<ellipse fill="none" stroke="black" cx="532.645" cy="-234" rx="50.0912" ry="18"/>
<text text-anchor="middle" x="532.645" y="-230.3" font-family="Times,serif" font-size="14.00">ExpConst2</text>
</g>
<!-- Value2: 1 -->
<g id="node4" class="node"><title>Value2: 1</title>
<ellipse fill="none" stroke="black" cx="532.645" cy="-162" rx="45.4919" ry="18"/>
<text text-anchor="middle" x="532.645" y="-158.3" font-family="Times,serif" font-size="14.00">Value2: 1</text>
</g>
<!-- ExpConst2&#45;&gt;Value2: 1 -->
<g id="edge2" class="edge"><title>ExpConst2&#45;&gt;Value2: 1</title>
<path fill="none" stroke="black" d="M532.645,-215.697C532.645,-207.983 532.645,-198.712 532.645,-190.112"/>
<polygon fill="black" stroke="black" points="536.145,-190.104 532.645,-180.104 529.145,-190.104 536.145,-190.104"/>
</g>
<!-- ExpBinary0 -->
<g id="node5" class="node"><title>ExpBinary0</title>
<ellipse fill="none" stroke="black" cx="183.645" cy="-234" rx="53.0913" ry="18"/>
<text text-anchor="middle" x="183.645" y="-230.3" font-family="Times,serif" font-size="14.00">ExpBinary0</text>
</g>
<!-- ExpTemp0 -->
<g id="node6" class="node"><title>ExpTemp0</title>
<ellipse fill="none" stroke="black" cx="52.6453" cy="-162" rx="50.0912" ry="18"/>
<text text-anchor="middle" x="52.6453" y="-158.3" font-family="Times,serif" font-size="14.00">ExpTemp0</text>
</g>
<!-- ExpBinary0&#45;&gt;ExpTemp0 -->
<g id="edge3" class="edge"><title>ExpBinary0&#45;&gt;ExpTemp0</title>
<path fill="none" stroke="black" d="M156.502,-218.496C136.698,-207.914 109.672,-193.472 88.1535,-181.974"/>
<polygon fill="black" stroke="black" points="89.775,-178.872 79.3056,-177.246 86.4759,-185.046 89.775,-178.872"/>
</g>
<!-- Plus0 -->
<g id="node7" class="node"><title>Plus0</title>
<ellipse fill="none" stroke="black" cx="151.645" cy="-162" rx="30.5947" ry="18"/>
<text text-anchor="middle" x="151.645" y="-158.3" font-family="Times,serif" font-size="14.00">Plus0</text>
</g>
<!-- ExpBinary0&#45;&gt;Plus0 -->
<g id="edge4" class="edge"><title>ExpBinary0&#45;&gt;Plus0</title>
<path fill="none" stroke="black" d="M175.899,-216.055C172.204,-207.973 167.701,-198.121 163.582,-189.112"/>
<polygon fill="black" stroke="black" points="166.661,-187.429 159.32,-179.789 160.295,-190.339 166.661,-187.429"/>
</g>
<!-- ExpConst0 -->
<g id="node8" class="node"><title>ExpConst0</title>
<ellipse fill="none" stroke="black" cx="250.645" cy="-162" rx="50.0912" ry="18"/>
<text text-anchor="middle" x="250.645" y="-158.3" font-family="Times,serif" font-size="14.00">ExpConst0</text>
</g>
<!-- ExpBinary0&#45;&gt;ExpConst0 -->
<g id="edge5" class="edge"><title>ExpBinary0&#45;&gt;ExpConst0</title>
<path fill="none" stroke="black" d="M199.185,-216.765C207.81,-207.753 218.691,-196.385 228.223,-186.426"/>
<polygon fill="black" stroke="black" points="230.804,-188.792 235.19,-179.147 225.747,-183.951 230.804,-188.792"/>
</g>
<!-- Temp0: $fp -->
<g id="node16" class="node"><title>Temp0: $fp</title>
<ellipse fill="none" stroke="black" cx="52.6453" cy="-90" rx="52.7911" ry="18"/>
<text text-anchor="middle" x="52.6453" y="-86.3" font-family="Times,serif" font-size="14.00">Temp0: $fp</text>
</g>
<!-- ExpTemp0&#45;&gt;Temp0: $fp -->
<g id="edge11" class="edge"><title>ExpTemp0&#45;&gt;Temp0: $fp</title>
<path fill="none" stroke="black" d="M52.6453,-143.697C52.6453,-135.983 52.6453,-126.712 52.6453,-118.112"/>
<polygon fill="black" stroke="black" points="56.1454,-118.104 52.6453,-108.104 49.1454,-118.104 56.1454,-118.104"/>
</g>
<!-- Value0: 8 -->
<g id="node21" class="node"><title>Value0: 8</title>
<ellipse fill="none" stroke="black" cx="209.645" cy="-90" rx="45.4919" ry="18"/>
<text text-anchor="middle" x="209.645" y="-86.3" font-family="Times,serif" font-size="14.00">Value0: 8</text>
</g>
<!-- ExpConst0&#45;&gt;Value0: 8 -->
<g id="edge17" class="edge"><title>ExpConst0&#45;&gt;Value0: 8</title>
<path fill="none" stroke="black" d="M240.72,-144.055C235.886,-135.801 229.97,-125.701 224.603,-116.538"/>
<polygon fill="black" stroke="black" points="227.553,-114.649 219.479,-107.789 221.513,-118.187 227.553,-114.649"/>
</g>
<!-- StatMove0 -->
<g id="node9" class="node"><title>StatMove0</title>
<ellipse fill="none" stroke="black" cx="354.645" cy="-378" rx="50.0912" ry="18"/>
<text text-anchor="middle" x="354.645" y="-374.3" font-family="Times,serif" font-size="14.00">StatMove0</text>
</g>
<!-- ExpMem0 -->
<g id="node10" class="node"><title>ExpMem0</title>
<ellipse fill="none" stroke="black" cx="264.645" cy="-306" rx="48.9926" ry="18"/>
<text text-anchor="middle" x="264.645" y="-302.3" font-family="Times,serif" font-size="14.00">ExpMem0</text>
</g>
<!-- StatMove0&#45;&gt;ExpMem0 -->
<g id="edge6" class="edge"><title>StatMove0&#45;&gt;ExpMem0</title>
<path fill="none" stroke="black" d="M334.671,-361.465C322.32,-351.858 306.281,-339.383 292.67,-328.797"/>
<polygon fill="black" stroke="black" points="294.606,-325.869 284.563,-322.492 290.308,-331.394 294.606,-325.869"/>
</g>
<!-- ExpBinary1 -->
<g id="node11" class="node"><title>ExpBinary1</title>
<ellipse fill="none" stroke="black" cx="384.645" cy="-306" rx="53.0913" ry="18"/>
<text text-anchor="middle" x="384.645" y="-302.3" font-family="Times,serif" font-size="14.00">ExpBinary1</text>
</g>
<!-- StatMove0&#45;&gt;ExpBinary1 -->
<g id="edge7" class="edge"><title>StatMove0&#45;&gt;ExpBinary1</title>
<path fill="none" stroke="black" d="M361.907,-360.055C365.32,-352.091 369.469,-342.411 373.284,-333.51"/>
<polygon fill="black" stroke="black" points="376.519,-334.845 377.242,-324.275 370.085,-332.088 376.519,-334.845"/>
</g>
<!-- ExpMem0&#45;&gt;ExpBinary0 -->
<g id="edge21" class="edge"><title>ExpMem0&#45;&gt;ExpBinary0</title>
<path fill="none" stroke="black" d="M246.265,-289.116C235.57,-279.874 221.907,-268.066 210.074,-257.84"/>
<polygon fill="black" stroke="black" points="212.088,-254.954 202.233,-251.064 207.511,-260.25 212.088,-254.954"/>
</g>
<!-- ExpBinary1&#45;&gt;ExpConst2 -->
<g id="edge20" class="edge"><title>ExpBinary1&#45;&gt;ExpConst2</title>
<path fill="none" stroke="black" d="M414.24,-291.003C437.278,-280.106 469.429,-264.9 494.415,-253.082"/>
<polygon fill="black" stroke="black" points="496.063,-256.174 503.607,-248.734 493.07,-249.846 496.063,-256.174"/>
</g>
<!-- ExpMem1 -->
<g id="node20" class="node"><title>ExpMem1</title>
<ellipse fill="none" stroke="black" cx="336.645" cy="-234" rx="48.9926" ry="18"/>
<text text-anchor="middle" x="336.645" y="-230.3" font-family="Times,serif" font-size="14.00">ExpMem1</text>
</g>
<!-- ExpBinary1&#45;&gt;ExpMem1 -->
<g id="edge18" class="edge"><title>ExpBinary1&#45;&gt;ExpMem1</title>
<path fill="none" stroke="black" d="M373.27,-288.411C367.556,-280.077 360.506,-269.797 354.123,-260.488"/>
<polygon fill="black" stroke="black" points="356.814,-258.224 348.272,-251.956 351.041,-262.183 356.814,-258.224"/>
</g>
<!-- Plus2 -->
<g id="node22" class="node"><title>Plus2</title>
<ellipse fill="none" stroke="black" cx="433.645" cy="-234" rx="30.5947" ry="18"/>
<text text-anchor="middle" x="433.645" y="-230.3" font-family="Times,serif" font-size="14.00">Plus2</text>
</g>
<!-- ExpBinary1&#45;&gt;Plus2 -->
<g id="edge19" class="edge"><title>ExpBinary1&#45;&gt;Plus2</title>
<path fill="none" stroke="black" d="M396.258,-288.411C402.325,-279.744 409.866,-268.971 416.583,-259.375"/>
<polygon fill="black" stroke="black" points="419.586,-261.188 422.454,-250.988 413.852,-257.173 419.586,-261.188"/>
</g>
<!-- ExpBinary2 -->
<g id="node12" class="node"><title>ExpBinary2</title>
<ellipse fill="none" stroke="black" cx="376.645" cy="-162" rx="53.0913" ry="18"/>
<text text-anchor="middle" x="376.645" y="-158.3" font-family="Times,serif" font-size="14.00">ExpBinary2</text>
</g>
<!-- ExpTemp1 -->
<g id="node13" class="node"><title>ExpTemp1</title>
<ellipse fill="none" stroke="black" cx="323.645" cy="-90" rx="50.0912" ry="18"/>
<text text-anchor="middle" x="323.645" y="-86.3" font-family="Times,serif" font-size="14.00">ExpTemp1</text>
</g>
<!-- ExpBinary2&#45;&gt;ExpTemp1 -->
<g id="edge8" class="edge"><title>ExpBinary2&#45;&gt;ExpTemp1</title>
<path fill="none" stroke="black" d="M364.085,-144.411C357.551,-135.781 349.435,-125.062 342.193,-115.497"/>
<polygon fill="black" stroke="black" points="344.942,-113.33 336.115,-107.47 339.361,-117.555 344.942,-113.33"/>
</g>
<!-- Plus1 -->
<g id="node14" class="node"><title>Plus1</title>
<ellipse fill="none" stroke="black" cx="422.645" cy="-90" rx="30.5947" ry="18"/>
<text text-anchor="middle" x="422.645" y="-86.3" font-family="Times,serif" font-size="14.00">Plus1</text>
</g>
<!-- ExpBinary2&#45;&gt;Plus1 -->
<g id="edge9" class="edge"><title>ExpBinary2&#45;&gt;Plus1</title>
<path fill="none" stroke="black" d="M387.781,-144.055C393.342,-135.592 400.178,-125.19 406.319,-115.845"/>
<polygon fill="black" stroke="black" points="409.362,-117.586 411.929,-107.307 403.513,-113.742 409.362,-117.586"/>
</g>
<!-- ExpConst1 -->
<g id="node15" class="node"><title>ExpConst1</title>
<ellipse fill="none" stroke="black" cx="521.645" cy="-90" rx="50.0912" ry="18"/>
<text text-anchor="middle" x="521.645" y="-86.3" font-family="Times,serif" font-size="14.00">ExpConst1</text>
</g>
<!-- ExpBinary2&#45;&gt;ExpConst1 -->
<g id="edge10" class="edge"><title>ExpBinary2&#45;&gt;ExpConst1</title>
<path fill="none" stroke="black" d="M405.988,-146.834C428.343,-136.042 459.305,-121.095 483.568,-109.382"/>
<polygon fill="black" stroke="black" points="485.357,-112.405 492.841,-104.906 482.314,-106.101 485.357,-112.405"/>
</g>
<!-- Temp1: $fp -->
<g id="node23" class="node"><title>Temp1: $fp</title>
<ellipse fill="none" stroke="black" cx="323.645" cy="-18" rx="52.7911" ry="18"/>
<text text-anchor="middle" x="323.645" y="-14.3" font-family="Times,serif" font-size="14.00">Temp1: $fp</text>
</g>
<!-- ExpTemp1&#45;&gt;Temp1: $fp -->
<g id="edge22" class="edge"><title>ExpTemp1&#45;&gt;Temp1: $fp</title>
<path fill="none" stroke="black" d="M323.645,-71.6966C323.645,-63.9827 323.645,-54.7125 323.645,-46.1124"/>
<polygon fill="black" stroke="black" points="327.145,-46.1043 323.645,-36.1043 320.145,-46.1044 327.145,-46.1043"/>
</g>
<!-- Value1: 8 -->
<g id="node24" class="node"><title>Value1: 8</title>
<ellipse fill="none" stroke="black" cx="521.645" cy="-18" rx="45.4919" ry="18"/>
<text text-anchor="middle" x="521.645" y="-14.3" font-family="Times,serif" font-size="14.00">Value1: 8</text>
</g>
<!-- ExpConst1&#45;&gt;Value1: 8 -->
<g id="edge23" class="edge"><title>ExpConst1&#45;&gt;Value1: 8</title>
<path fill="none" stroke="black" d="M521.645,-71.6966C521.645,-63.9827 521.645,-54.7125 521.645,-46.1124"/>
<polygon fill="black" stroke="black" points="525.145,-46.1043 521.645,-36.1043 518.145,-46.1044 525.145,-46.1043"/>
</g>
<!-- StatList0 -->
<g id="node17" class="node"><title>StatList0</title>
<ellipse fill="none" stroke="black" cx="354.645" cy="-450" rx="42.4939" ry="18"/>
<text text-anchor="middle" x="354.645" y="-446.3" font-family="Times,serif" font-size="14.00">StatList0</text>
</g>
<!-- StatList0&#45;&gt;StatJump0 -->
<g id="edge14" class="edge"><title>StatList0&#45;&gt;StatJump0</title>
<path fill="none" stroke="black" d="M380.289,-435.503C400.59,-424.818 429.186,-409.768 451.76,-397.887"/>
<polygon fill="black" stroke="black" points="453.492,-400.931 460.711,-393.176 450.231,-394.736 453.492,-400.931"/>
</g>
<!-- StatList0&#45;&gt;StatMove0 -->
<g id="edge13" class="edge"><title>StatList0&#45;&gt;StatMove0</title>
<path fill="none" stroke="black" d="M354.645,-431.697C354.645,-423.983 354.645,-414.712 354.645,-406.112"/>
<polygon fill="black" stroke="black" points="358.145,-406.104 354.645,-396.104 351.145,-406.104 358.145,-406.104"/>
</g>
<!-- StatLabel0 -->
<g id="node18" class="node"><title>StatLabel0</title>
<ellipse fill="none" stroke="black" cx="207.645" cy="-378" rx="48.9926" ry="18"/>
<text text-anchor="middle" x="207.645" y="-374.3" font-family="Times,serif" font-size="14.00">StatLabel0</text>
</g>
<!-- StatList0&#45;&gt;StatLabel0 -->
<g id="edge12" class="edge"><title>StatList0&#45;&gt;StatLabel0</title>
<path fill="none" stroke="black" d="M327.34,-435.998C304.268,-425.011 270.984,-409.161 245.368,-396.963"/>
<polygon fill="black" stroke="black" points="246.843,-393.789 236.31,-392.65 243.834,-400.109 246.843,-393.789"/>
</g>
<!-- Label0: L2 -->
<g id="node19" class="node"><title>Label0: L2</title>
<ellipse fill="none" stroke="black" cx="147.645" cy="-306" rx="50.0912" ry="18"/>
<text text-anchor="middle" x="147.645" y="-302.3" font-family="Times,serif" font-size="14.00">Label0: L2</text>
</g>
<!-- StatLabel0&#45;&gt;Label0: L2 -->
<g id="edge15" class="edge"><title>StatLabel0&#45;&gt;Label0: L2</title>
<path fill="none" stroke="black" d="M193.426,-360.411C185.954,-351.693 176.656,-340.845 168.395,-331.208"/>
<polygon fill="black" stroke="black" points="170.928,-328.785 161.762,-323.47 165.613,-333.34 170.928,-328.785"/>
</g>
<!-- ExpMem1&#45;&gt;ExpBinary2 -->
<g id="edge16" class="edge"><title>ExpMem1&#45;&gt;ExpBinary2</title>
<path fill="none" stroke="black" d="M346.328,-216.055C351.045,-207.801 356.816,-197.701 362.052,-188.538"/>
<polygon fill="black" stroke="black" points="365.129,-190.208 367.052,-179.789 359.051,-186.735 365.129,-190.208"/>
</g>
</g>
</svg>
