<?xml version="1.0" encoding="UTF-8" standalone="no"?>
<!DOCTYPE svg PUBLIC "-//W3C//DTD SVG 1.1//EN"
 "http://www.w3.org/Graphics/SVG/1.1/DTD/svg11.dtd">
<!-- Generated by graphviz version 2.38.0 (20140413.2041)
 -->
<!-- Title: %3 Pages: 1 -->
<svg width="344pt" height="260pt"
 viewBox="0.00 0.00 344.09 260.00" xmlns="http://www.w3.org/2000/svg" xmlns:xlink="http://www.w3.org/1999/xlink">
<g id="graph0" class="graph" transform="scale(1 1) rotate(0) translate(4 256)">
<title>%3</title>
<polygon fill="white" stroke="none" points="-4,4 -4,-256 340.091,-256 340.091,4 -4,4"/>
<!-- ExpConst0 -->
<g id="node1" class="node"><title>ExpConst0</title>
<ellipse fill="none" stroke="black" cx="286.046" cy="-90" rx="50.0912" ry="18"/>
<text text-anchor="middle" x="286.046" y="-86.3" font-family="Times,serif" font-size="14.00">ExpConst0</text>
</g>
<!-- Value0: 0 -->
<g id="node2" class="node"><title>Value0: 0</title>
<ellipse fill="none" stroke="black" cx="286.046" cy="-18" rx="45.4919" ry="18"/>
<text text-anchor="middle" x="286.046" y="-14.3" font-family="Times,serif" font-size="14.00">Value0: 0</text>
</g>
<!-- ExpConst0&#45;&gt;Value0: 0 -->
<g id="edge1" class="edge"><title>ExpConst0&#45;&gt;Value0: 0</title>
<path fill="none" stroke="black" d="M286.046,-71.6966C286.046,-63.9827 286.046,-54.7125 286.046,-46.1124"/>
<polygon fill="black" stroke="black" points="289.546,-46.1043 286.046,-36.1043 282.546,-46.1044 289.546,-46.1043"/>
</g>
<!-- StatLabel0 -->
<g id="node3" class="node"><title>StatLabel0</title>
<ellipse fill="none" stroke="black" cx="51.0456" cy="-162" rx="48.9926" ry="18"/>
<text text-anchor="middle" x="51.0456" y="-158.3" font-family="Times,serif" font-size="14.00">StatLabel0</text>
</g>
<!-- Label0: L8 -->
<g id="node4" class="node"><title>Label0: L8</title>
<ellipse fill="none" stroke="black" cx="50.0456" cy="-90" rx="50.0912" ry="18"/>
<text text-anchor="middle" x="50.0456" y="-86.3" font-family="Times,serif" font-size="14.00">Label0: L8</text>
</g>
<!-- StatLabel0&#45;&gt;Label0: L8 -->
<g id="edge2" class="edge"><title>StatLabel0&#45;&gt;Label0: L8</title>
<path fill="none" stroke="black" d="M50.7984,-143.697C50.6882,-135.983 50.5557,-126.712 50.4329,-118.112"/>
<polygon fill="black" stroke="black" points="53.9325,-118.053 50.2899,-108.104 46.9332,-118.153 53.9325,-118.053"/>
</g>
<!-- StatList0 -->
<g id="node5" class="node"><title>StatList0</title>
<ellipse fill="none" stroke="black" cx="109.046" cy="-234" rx="42.4939" ry="18"/>
<text text-anchor="middle" x="109.046" y="-230.3" font-family="Times,serif" font-size="14.00">StatList0</text>
</g>
<!-- StatList0&#45;&gt;StatLabel0 -->
<g id="edge3" class="edge"><title>StatList0&#45;&gt;StatLabel0</title>
<path fill="none" stroke="black" d="M95.5934,-216.765C88.3776,-208.056 79.3386,-197.147 71.2917,-187.435"/>
<polygon fill="black" stroke="black" points="73.9028,-185.101 64.8275,-179.633 68.5126,-189.567 73.9028,-185.101"/>
</g>
<!-- StatMove0 -->
<g id="node6" class="node"><title>StatMove0</title>
<ellipse fill="none" stroke="black" cx="168.046" cy="-162" rx="50.0912" ry="18"/>
<text text-anchor="middle" x="168.046" y="-158.3" font-family="Times,serif" font-size="14.00">StatMove0</text>
</g>
<!-- StatList0&#45;&gt;StatMove0 -->
<g id="edge4" class="edge"><title>StatList0&#45;&gt;StatMove0</title>
<path fill="none" stroke="black" d="M122.73,-216.765C130.07,-208.056 139.265,-197.147 147.45,-187.435"/>
<polygon fill="black" stroke="black" points="150.257,-189.535 154.026,-179.633 144.905,-185.024 150.257,-189.535"/>
</g>
<!-- StatMove0&#45;&gt;ExpConst0 -->
<g id="edge7" class="edge"><title>StatMove0&#45;&gt;ExpConst0</title>
<path fill="none" stroke="black" d="M192.782,-146.326C210.168,-136.012 233.628,-122.095 252.669,-110.8"/>
<polygon fill="black" stroke="black" points="254.527,-113.767 261.341,-105.655 250.955,-107.747 254.527,-113.767"/>
</g>
<!-- ExpTemp0 -->
<g id="node7" class="node"><title>ExpTemp0</title>
<ellipse fill="none" stroke="black" cx="168.046" cy="-90" rx="50.0912" ry="18"/>
<text text-anchor="middle" x="168.046" y="-86.3" font-family="Times,serif" font-size="14.00">ExpTemp0</text>
</g>
<!-- StatMove0&#45;&gt;ExpTemp0 -->
<g id="edge6" class="edge"><title>StatMove0&#45;&gt;ExpTemp0</title>
<path fill="none" stroke="black" d="M168.046,-143.697C168.046,-135.983 168.046,-126.712 168.046,-118.112"/>
<polygon fill="black" stroke="black" points="171.546,-118.104 168.046,-108.104 164.546,-118.104 171.546,-118.104"/>
</g>
<!-- Temp0: $rv -->
<g id="node8" class="node"><title>Temp0: $rv</title>
<ellipse fill="none" stroke="black" cx="168.046" cy="-18" rx="52.7911" ry="18"/>
<text text-anchor="middle" x="168.046" y="-14.3" font-family="Times,serif" font-size="14.00">Temp0: $rv</text>
</g>
<!-- ExpTemp0&#45;&gt;Temp0: $rv -->
<g id="edge5" class="edge"><title>ExpTemp0&#45;&gt;Temp0: $rv</title>
<path fill="none" stroke="black" d="M168.046,-71.6966C168.046,-63.9827 168.046,-54.7125 168.046,-46.1124"/>
<polygon fill="black" stroke="black" points="171.546,-46.1043 168.046,-36.1043 164.546,-46.1044 171.546,-46.1043"/>
</g>
</g>
</svg>
