<?xml version="1.0" encoding="UTF-8" standalone="no"?>
<!DOCTYPE svg PUBLIC "-//W3C//DTD SVG 1.1//EN"
 "http://www.w3.org/Graphics/SVG/1.1/DTD/svg11.dtd">
<!-- Generated by graphviz version 2.38.0 (20140413.2041)
 -->
<!-- Title: %3 Pages: 1 -->
<svg width="3426pt" height="404pt"
 viewBox="0.00 0.00 3425.69 404.00" xmlns="http://www.w3.org/2000/svg" xmlns:xlink="http://www.w3.org/1999/xlink">
<g id="graph0" class="graph" transform="scale(1 1) rotate(0) translate(4 400)">
<title>%3</title>
<polygon fill="white" stroke="none" points="-4,4 -4,-400 3421.69,-400 3421.69,4 -4,4"/>
<!-- ExpTemp9 -->
<g id="node1" class="node"><title>ExpTemp9</title>
<ellipse fill="none" stroke="black" cx="1720.49" cy="-234" rx="50.0912" ry="18"/>
<text text-anchor="middle" x="1720.49" y="-230.3" font-family="Times,serif" font-size="14.00">ExpTemp9</text>
</g>
<!-- Temp9: T13 -->
<g id="node2" class="node"><title>Temp9: T13</title>
<ellipse fill="none" stroke="black" cx="1714.49" cy="-162" rx="55.4913" ry="18"/>
<text text-anchor="middle" x="1714.49" y="-158.3" font-family="Times,serif" font-size="14.00">Temp9: T13</text>
</g>
<!-- ExpTemp9&#45;&gt;Temp9: T13 -->
<g id="edge1" class="edge"><title>ExpTemp9&#45;&gt;Temp9: T13</title>
<path fill="none" stroke="black" d="M1719.01,-215.697C1718.35,-207.983 1717.55,-198.712 1716.82,-190.112"/>
<polygon fill="black" stroke="black" points="1720.3,-189.769 1715.96,-180.104 1713.32,-190.367 1720.3,-189.769"/>
</g>
<!-- ExpBinary0 -->
<g id="node3" class="node"><title>ExpBinary0</title>
<ellipse fill="none" stroke="black" cx="1485.49" cy="-234" rx="53.0913" ry="18"/>
<text text-anchor="middle" x="1485.49" y="-230.3" font-family="Times,serif" font-size="14.00">ExpBinary0</text>
</g>
<!-- ExpConst0 -->
<g id="node4" class="node"><title>ExpConst0</title>
<ellipse fill="none" stroke="black" cx="1379.49" cy="-162" rx="50.0912" ry="18"/>
<text text-anchor="middle" x="1379.49" y="-158.3" font-family="Times,serif" font-size="14.00">ExpConst0</text>
</g>
<!-- ExpBinary0&#45;&gt;ExpConst0 -->
<g id="edge2" class="edge"><title>ExpBinary0&#45;&gt;ExpConst0</title>
<path fill="none" stroke="black" d="M1462.23,-217.638C1447.21,-207.723 1427.49,-194.698 1411.07,-183.853"/>
<polygon fill="black" stroke="black" points="1412.61,-180.675 1402.33,-178.085 1408.75,-186.517 1412.61,-180.675"/>
</g>
<!-- Times0 -->
<g id="node5" class="node"><title>Times0</title>
<ellipse fill="none" stroke="black" cx="1485.49" cy="-162" rx="37.8943" ry="18"/>
<text text-anchor="middle" x="1485.49" y="-158.3" font-family="Times,serif" font-size="14.00">Times0</text>
</g>
<!-- ExpBinary0&#45;&gt;Times0 -->
<g id="edge3" class="edge"><title>ExpBinary0&#45;&gt;Times0</title>
<path fill="none" stroke="black" d="M1485.49,-215.697C1485.49,-207.983 1485.49,-198.712 1485.49,-190.112"/>
<polygon fill="black" stroke="black" points="1488.99,-190.104 1485.49,-180.104 1481.99,-190.104 1488.99,-190.104"/>
</g>
<!-- ExpConst1 -->
<g id="node6" class="node"><title>ExpConst1</title>
<ellipse fill="none" stroke="black" cx="1591.49" cy="-162" rx="50.0912" ry="18"/>
<text text-anchor="middle" x="1591.49" y="-158.3" font-family="Times,serif" font-size="14.00">ExpConst1</text>
</g>
<!-- ExpBinary0&#45;&gt;ExpConst1 -->
<g id="edge4" class="edge"><title>ExpBinary0&#45;&gt;ExpConst1</title>
<path fill="none" stroke="black" d="M1508.75,-217.638C1523.77,-207.723 1543.49,-194.698 1559.91,-183.853"/>
<polygon fill="black" stroke="black" points="1562.23,-186.517 1568.65,-178.085 1558.37,-180.675 1562.23,-186.517"/>
</g>
<!-- Value0: 0 -->
<g id="node9" class="node"><title>Value0: 0</title>
<ellipse fill="none" stroke="black" cx="1379.49" cy="-90" rx="45.4919" ry="18"/>
<text text-anchor="middle" x="1379.49" y="-86.3" font-family="Times,serif" font-size="14.00">Value0: 0</text>
</g>
<!-- ExpConst0&#45;&gt;Value0: 0 -->
<g id="edge6" class="edge"><title>ExpConst0&#45;&gt;Value0: 0</title>
<path fill="none" stroke="black" d="M1379.49,-143.697C1379.49,-135.983 1379.49,-126.712 1379.49,-118.112"/>
<polygon fill="black" stroke="black" points="1382.99,-118.104 1379.49,-108.104 1375.99,-118.104 1382.99,-118.104"/>
</g>
<!-- Value1: 4 -->
<g id="node12" class="node"><title>Value1: 4</title>
<ellipse fill="none" stroke="black" cx="1591.49" cy="-90" rx="45.4919" ry="18"/>
<text text-anchor="middle" x="1591.49" y="-86.3" font-family="Times,serif" font-size="14.00">Value1: 4</text>
</g>
<!-- ExpConst1&#45;&gt;Value1: 4 -->
<g id="edge9" class="edge"><title>ExpConst1&#45;&gt;Value1: 4</title>
<path fill="none" stroke="black" d="M1591.49,-143.697C1591.49,-135.983 1591.49,-126.712 1591.49,-118.112"/>
<polygon fill="black" stroke="black" points="1594.99,-118.104 1591.49,-108.104 1587.99,-118.104 1594.99,-118.104"/>
</g>
<!-- ExpTemp12 -->
<g id="node7" class="node"><title>ExpTemp12</title>
<ellipse fill="none" stroke="black" cx="2327.49" cy="-234" rx="54.6905" ry="18"/>
<text text-anchor="middle" x="2327.49" y="-230.3" font-family="Times,serif" font-size="14.00">ExpTemp12</text>
</g>
<!-- Temp12: T16 -->
<g id="node8" class="node"><title>Temp12: T16</title>
<ellipse fill="none" stroke="black" cx="2327.49" cy="-162" rx="59.5901" ry="18"/>
<text text-anchor="middle" x="2327.49" y="-158.3" font-family="Times,serif" font-size="14.00">Temp12: T16</text>
</g>
<!-- ExpTemp12&#45;&gt;Temp12: T16 -->
<g id="edge5" class="edge"><title>ExpTemp12&#45;&gt;Temp12: T16</title>
<path fill="none" stroke="black" d="M2327.49,-215.697C2327.49,-207.983 2327.49,-198.712 2327.49,-190.112"/>
<polygon fill="black" stroke="black" points="2330.99,-190.104 2327.49,-180.104 2323.99,-190.104 2330.99,-190.104"/>
</g>
<!-- StatMove5 -->
<g id="node10" class="node"><title>StatMove5</title>
<ellipse fill="none" stroke="black" cx="1779.49" cy="-306" rx="50.0912" ry="18"/>
<text text-anchor="middle" x="1779.49" y="-302.3" font-family="Times,serif" font-size="14.00">StatMove5</text>
</g>
<!-- StatMove5&#45;&gt;ExpTemp9 -->
<g id="edge7" class="edge"><title>StatMove5&#45;&gt;ExpTemp9</title>
<path fill="none" stroke="black" d="M1765.51,-288.411C1758.16,-279.693 1749.02,-268.845 1740.89,-259.208"/>
<polygon fill="black" stroke="black" points="1743.49,-256.861 1734.37,-251.47 1738.14,-261.372 1743.49,-256.861"/>
</g>
<!-- ExpCall0 -->
<g id="node11" class="node"><title>ExpCall0</title>
<ellipse fill="none" stroke="black" cx="1838.49" cy="-234" rx="44.393" ry="18"/>
<text text-anchor="middle" x="1838.49" y="-230.3" font-family="Times,serif" font-size="14.00">ExpCall0</text>
</g>
<!-- StatMove5&#45;&gt;ExpCall0 -->
<g id="edge8" class="edge"><title>StatMove5&#45;&gt;ExpCall0</title>
<path fill="none" stroke="black" d="M1793.47,-288.411C1800.82,-279.693 1809.96,-268.845 1818.09,-259.208"/>
<polygon fill="black" stroke="black" points="1820.84,-261.372 1824.61,-251.47 1815.49,-256.861 1820.84,-261.372"/>
</g>
<!-- ExpName0 -->
<g id="node26" class="node"><title>ExpName0</title>
<ellipse fill="none" stroke="black" cx="1838.49" cy="-162" rx="50.8918" ry="18"/>
<text text-anchor="middle" x="1838.49" y="-158.3" font-family="Times,serif" font-size="14.00">ExpName0</text>
</g>
<!-- ExpCall0&#45;&gt;ExpName0 -->
<g id="edge47" class="edge"><title>ExpCall0&#45;&gt;ExpName0</title>
<path fill="none" stroke="black" d="M1838.49,-215.697C1838.49,-207.983 1838.49,-198.712 1838.49,-190.112"/>
<polygon fill="black" stroke="black" points="1841.99,-190.104 1838.49,-180.104 1834.99,-190.104 1841.99,-190.104"/>
</g>
<!-- ExpList0 -->
<g id="node57" class="node"><title>ExpList0</title>
<ellipse fill="none" stroke="black" cx="1950.49" cy="-162" rx="42.7926" ry="18"/>
<text text-anchor="middle" x="1950.49" y="-158.3" font-family="Times,serif" font-size="14.00">ExpList0</text>
</g>
<!-- ExpCall0&#45;&gt;ExpList0 -->
<g id="edge48" class="edge"><title>ExpCall0&#45;&gt;ExpList0</title>
<path fill="none" stroke="black" d="M1861.7,-218.496C1878.22,-208.172 1900.61,-194.174 1918.78,-182.819"/>
<polygon fill="black" stroke="black" points="1920.69,-185.753 1927.31,-177.485 1916.98,-179.818 1920.69,-185.753"/>
</g>
<!-- StatMove4 -->
<g id="node13" class="node"><title>StatMove4</title>
<ellipse fill="none" stroke="black" cx="1485.49" cy="-306" rx="50.0912" ry="18"/>
<text text-anchor="middle" x="1485.49" y="-302.3" font-family="Times,serif" font-size="14.00">StatMove4</text>
</g>
<!-- StatMove4&#45;&gt;ExpBinary0 -->
<g id="edge11" class="edge"><title>StatMove4&#45;&gt;ExpBinary0</title>
<path fill="none" stroke="black" d="M1485.49,-287.697C1485.49,-279.983 1485.49,-270.712 1485.49,-262.112"/>
<polygon fill="black" stroke="black" points="1488.99,-262.104 1485.49,-252.104 1481.99,-262.104 1488.99,-262.104"/>
</g>
<!-- ExpTemp8 -->
<g id="node14" class="node"><title>ExpTemp8</title>
<ellipse fill="none" stroke="black" cx="1310.49" cy="-234" rx="50.0912" ry="18"/>
<text text-anchor="middle" x="1310.49" y="-230.3" font-family="Times,serif" font-size="14.00">ExpTemp8</text>
</g>
<!-- StatMove4&#45;&gt;ExpTemp8 -->
<g id="edge10" class="edge"><title>StatMove4&#45;&gt;ExpTemp8</title>
<path fill="none" stroke="black" d="M1453.39,-292.161C1424.99,-280.8 1383.36,-264.146 1352.35,-251.742"/>
<polygon fill="black" stroke="black" points="1353.27,-248.34 1342.68,-247.876 1350.67,-254.84 1353.27,-248.34"/>
</g>
<!-- Temp8: T12 -->
<g id="node22" class="node"><title>Temp8: T12</title>
<ellipse fill="none" stroke="black" cx="1256.49" cy="-162" rx="55.4913" ry="18"/>
<text text-anchor="middle" x="1256.49" y="-158.3" font-family="Times,serif" font-size="14.00">Temp8: T12</text>
</g>
<!-- ExpTemp8&#45;&gt;Temp8: T12 -->
<g id="edge17" class="edge"><title>ExpTemp8&#45;&gt;Temp8: T12</title>
<path fill="none" stroke="black" d="M1297.69,-216.411C1291.13,-207.906 1283.01,-197.372 1275.71,-187.914"/>
<polygon fill="black" stroke="black" points="1278.45,-185.736 1269.57,-179.956 1272.91,-190.012 1278.45,-185.736"/>
</g>
<!-- StatMove7 -->
<g id="node15" class="node"><title>StatMove7</title>
<ellipse fill="none" stroke="black" cx="2327.49" cy="-306" rx="50.0912" ry="18"/>
<text text-anchor="middle" x="2327.49" y="-302.3" font-family="Times,serif" font-size="14.00">StatMove7</text>
</g>
<!-- StatMove7&#45;&gt;ExpTemp12 -->
<g id="edge12" class="edge"><title>StatMove7&#45;&gt;ExpTemp12</title>
<path fill="none" stroke="black" d="M2327.49,-287.697C2327.49,-279.983 2327.49,-270.712 2327.49,-262.112"/>
<polygon fill="black" stroke="black" points="2330.99,-262.104 2327.49,-252.104 2323.99,-262.104 2330.99,-262.104"/>
</g>
<!-- ExpCall1 -->
<g id="node16" class="node"><title>ExpCall1</title>
<ellipse fill="none" stroke="black" cx="2455.49" cy="-234" rx="44.393" ry="18"/>
<text text-anchor="middle" x="2455.49" y="-230.3" font-family="Times,serif" font-size="14.00">ExpCall1</text>
</g>
<!-- StatMove7&#45;&gt;ExpCall1 -->
<g id="edge13" class="edge"><title>StatMove7&#45;&gt;ExpCall1</title>
<path fill="none" stroke="black" d="M2353.7,-290.666C2373.2,-280.004 2399.98,-265.356 2421.18,-253.762"/>
<polygon fill="black" stroke="black" points="2423.09,-256.707 2430.19,-248.838 2419.73,-250.566 2423.09,-256.707"/>
</g>
<!-- ExpList1 -->
<g id="node17" class="node"><title>ExpList1</title>
<ellipse fill="none" stroke="black" cx="2567.49" cy="-162" rx="42.7926" ry="18"/>
<text text-anchor="middle" x="2567.49" y="-158.3" font-family="Times,serif" font-size="14.00">ExpList1</text>
</g>
<!-- ExpCall1&#45;&gt;ExpList1 -->
<g id="edge61" class="edge"><title>ExpCall1&#45;&gt;ExpList1</title>
<path fill="none" stroke="black" d="M2478.7,-218.496C2495.22,-208.172 2517.61,-194.174 2535.78,-182.819"/>
<polygon fill="black" stroke="black" points="2537.69,-185.753 2544.31,-177.485 2533.98,-179.818 2537.69,-185.753"/>
</g>
<!-- ExpName1 -->
<g id="node68" class="node"><title>ExpName1</title>
<ellipse fill="none" stroke="black" cx="2455.49" cy="-162" rx="50.8918" ry="18"/>
<text text-anchor="middle" x="2455.49" y="-158.3" font-family="Times,serif" font-size="14.00">ExpName1</text>
</g>
<!-- ExpCall1&#45;&gt;ExpName1 -->
<g id="edge60" class="edge"><title>ExpCall1&#45;&gt;ExpName1</title>
<path fill="none" stroke="black" d="M2455.49,-215.697C2455.49,-207.983 2455.49,-198.712 2455.49,-190.112"/>
<polygon fill="black" stroke="black" points="2458.99,-190.104 2455.49,-180.104 2451.99,-190.104 2458.99,-190.104"/>
</g>
<!-- ExpTemp13 -->
<g id="node18" class="node"><title>ExpTemp13</title>
<ellipse fill="none" stroke="black" cx="2567.49" cy="-90" rx="54.6905" ry="18"/>
<text text-anchor="middle" x="2567.49" y="-86.3" font-family="Times,serif" font-size="14.00">ExpTemp13</text>
</g>
<!-- ExpList1&#45;&gt;ExpTemp13 -->
<g id="edge14" class="edge"><title>ExpList1&#45;&gt;ExpTemp13</title>
<path fill="none" stroke="black" d="M2567.49,-143.697C2567.49,-135.983 2567.49,-126.712 2567.49,-118.112"/>
<polygon fill="black" stroke="black" points="2570.99,-118.104 2567.49,-108.104 2563.99,-118.104 2570.99,-118.104"/>
</g>
<!-- ExpTemp14 -->
<g id="node19" class="node"><title>ExpTemp14</title>
<ellipse fill="none" stroke="black" cx="2697.49" cy="-90" rx="54.6905" ry="18"/>
<text text-anchor="middle" x="2697.49" y="-86.3" font-family="Times,serif" font-size="14.00">ExpTemp14</text>
</g>
<!-- ExpList1&#45;&gt;ExpTemp14 -->
<g id="edge15" class="edge"><title>ExpList1&#45;&gt;ExpTemp14</title>
<path fill="none" stroke="black" d="M2592.87,-147.337C2612.26,-136.893 2639.27,-122.349 2660.99,-110.656"/>
<polygon fill="black" stroke="black" points="2662.79,-113.661 2669.93,-105.839 2659.47,-107.498 2662.79,-113.661"/>
</g>
<!-- Temp13: T14 -->
<g id="node71" class="node"><title>Temp13: T14</title>
<ellipse fill="none" stroke="black" cx="2562.49" cy="-18" rx="59.5901" ry="18"/>
<text text-anchor="middle" x="2562.49" y="-14.3" font-family="Times,serif" font-size="14.00">Temp13: T14</text>
</g>
<!-- ExpTemp13&#45;&gt;Temp13: T14 -->
<g id="edge62" class="edge"><title>ExpTemp13&#45;&gt;Temp13: T14</title>
<path fill="none" stroke="black" d="M2566.26,-71.6966C2565.7,-63.9827 2565.04,-54.7125 2564.43,-46.1124"/>
<polygon fill="black" stroke="black" points="2567.92,-45.8295 2563.71,-36.1043 2560.93,-46.3283 2567.92,-45.8295"/>
</g>
<!-- Temp14: T15 -->
<g id="node37" class="node"><title>Temp14: T15</title>
<ellipse fill="none" stroke="black" cx="2700.49" cy="-18" rx="59.5901" ry="18"/>
<text text-anchor="middle" x="2700.49" y="-14.3" font-family="Times,serif" font-size="14.00">Temp14: T15</text>
</g>
<!-- ExpTemp14&#45;&gt;Temp14: T15 -->
<g id="edge26" class="edge"><title>ExpTemp14&#45;&gt;Temp14: T15</title>
<path fill="none" stroke="black" d="M2698.23,-71.6966C2698.56,-63.9827 2698.96,-54.7125 2699.33,-46.1124"/>
<polygon fill="black" stroke="black" points="2702.83,-46.2451 2699.76,-36.1043 2695.83,-45.9453 2702.83,-46.2451"/>
</g>
<!-- ExpTemp18 -->
<g id="node20" class="node"><title>ExpTemp18</title>
<ellipse fill="none" stroke="black" cx="3212.49" cy="-90" rx="54.6905" ry="18"/>
<text text-anchor="middle" x="3212.49" y="-86.3" font-family="Times,serif" font-size="14.00">ExpTemp18</text>
</g>
<!-- Temp18: T17 -->
<g id="node21" class="node"><title>Temp18: T17</title>
<ellipse fill="none" stroke="black" cx="3212.49" cy="-18" rx="59.5901" ry="18"/>
<text text-anchor="middle" x="3212.49" y="-14.3" font-family="Times,serif" font-size="14.00">Temp18: T17</text>
</g>
<!-- ExpTemp18&#45;&gt;Temp18: T17 -->
<g id="edge16" class="edge"><title>ExpTemp18&#45;&gt;Temp18: T17</title>
<path fill="none" stroke="black" d="M3212.49,-71.6966C3212.49,-63.9827 3212.49,-54.7125 3212.49,-46.1124"/>
<polygon fill="black" stroke="black" points="3215.99,-46.1043 3212.49,-36.1043 3208.99,-46.1044 3215.99,-46.1043"/>
</g>
<!-- StatMove1 -->
<g id="node23" class="node"><title>StatMove1</title>
<ellipse fill="none" stroke="black" cx="632.491" cy="-306" rx="50.0912" ry="18"/>
<text text-anchor="middle" x="632.491" y="-302.3" font-family="Times,serif" font-size="14.00">StatMove1</text>
</g>
<!-- ExpTemp2 -->
<g id="node24" class="node"><title>ExpTemp2</title>
<ellipse fill="none" stroke="black" cx="509.491" cy="-234" rx="50.0912" ry="18"/>
<text text-anchor="middle" x="509.491" y="-230.3" font-family="Times,serif" font-size="14.00">ExpTemp2</text>
</g>
<!-- StatMove1&#45;&gt;ExpTemp2 -->
<g id="edge18" class="edge"><title>StatMove1&#45;&gt;ExpTemp2</title>
<path fill="none" stroke="black" d="M607.006,-290.496C588.822,-280.147 564.152,-266.107 544.175,-254.739"/>
<polygon fill="black" stroke="black" points="545.79,-251.631 535.368,-249.726 542.328,-257.714 545.79,-251.631"/>
</g>
<!-- ExpTemp3 -->
<g id="node25" class="node"><title>ExpTemp3</title>
<ellipse fill="none" stroke="black" cx="632.491" cy="-234" rx="50.0912" ry="18"/>
<text text-anchor="middle" x="632.491" y="-230.3" font-family="Times,serif" font-size="14.00">ExpTemp3</text>
</g>
<!-- StatMove1&#45;&gt;ExpTemp3 -->
<g id="edge19" class="edge"><title>StatMove1&#45;&gt;ExpTemp3</title>
<path fill="none" stroke="black" d="M632.491,-287.697C632.491,-279.983 632.491,-270.712 632.491,-262.112"/>
<polygon fill="black" stroke="black" points="635.991,-262.104 632.491,-252.104 628.991,-262.104 635.991,-262.104"/>
</g>
<!-- Temp2: T16 -->
<g id="node54" class="node"><title>Temp2: T16</title>
<ellipse fill="none" stroke="black" cx="504.491" cy="-162" rx="55.4913" ry="18"/>
<text text-anchor="middle" x="504.491" y="-158.3" font-family="Times,serif" font-size="14.00">Temp2: T16</text>
</g>
<!-- ExpTemp2&#45;&gt;Temp2: T16 -->
<g id="edge45" class="edge"><title>ExpTemp2&#45;&gt;Temp2: T16</title>
<path fill="none" stroke="black" d="M508.255,-215.697C507.704,-207.983 507.042,-198.712 506.428,-190.112"/>
<polygon fill="black" stroke="black" points="509.917,-189.83 505.713,-180.104 502.935,-190.328 509.917,-189.83"/>
</g>
<!-- Temp3: T10 -->
<g id="node53" class="node"><title>Temp3: T10</title>
<ellipse fill="none" stroke="black" cx="632.491" cy="-162" rx="55.4913" ry="18"/>
<text text-anchor="middle" x="632.491" y="-158.3" font-family="Times,serif" font-size="14.00">Temp3: T10</text>
</g>
<!-- ExpTemp3&#45;&gt;Temp3: T10 -->
<g id="edge44" class="edge"><title>ExpTemp3&#45;&gt;Temp3: T10</title>
<path fill="none" stroke="black" d="M632.491,-215.697C632.491,-207.983 632.491,-198.712 632.491,-190.112"/>
<polygon fill="black" stroke="black" points="635.991,-190.104 632.491,-180.104 628.991,-190.104 635.991,-190.104"/>
</g>
<!-- Label1: malloc -->
<g id="node27" class="node"><title>Label1: malloc</title>
<ellipse fill="none" stroke="black" cx="1826.49" cy="-90" rx="64.189" ry="18"/>
<text text-anchor="middle" x="1826.49" y="-86.3" font-family="Times,serif" font-size="14.00">Label1: malloc</text>
</g>
<!-- ExpName0&#45;&gt;Label1: malloc -->
<g id="edge20" class="edge"><title>ExpName0&#45;&gt;Label1: malloc</title>
<path fill="none" stroke="black" d="M1835.53,-143.697C1834.2,-135.983 1832.61,-126.712 1831.14,-118.112"/>
<polygon fill="black" stroke="black" points="1834.56,-117.369 1829.42,-108.104 1827.66,-118.552 1834.56,-117.369"/>
</g>
<!-- ExpTemp4 -->
<g id="node28" class="node"><title>ExpTemp4</title>
<ellipse fill="none" stroke="black" cx="763.491" cy="-234" rx="50.0912" ry="18"/>
<text text-anchor="middle" x="763.491" y="-230.3" font-family="Times,serif" font-size="14.00">ExpTemp4</text>
</g>
<!-- Temp4: T14 -->
<g id="node29" class="node"><title>Temp4: T14</title>
<ellipse fill="none" stroke="black" cx="760.491" cy="-162" rx="55.4913" ry="18"/>
<text text-anchor="middle" x="760.491" y="-158.3" font-family="Times,serif" font-size="14.00">Temp4: T14</text>
</g>
<!-- ExpTemp4&#45;&gt;Temp4: T14 -->
<g id="edge21" class="edge"><title>ExpTemp4&#45;&gt;Temp4: T14</title>
<path fill="none" stroke="black" d="M762.75,-215.697C762.419,-207.983 762.022,-198.712 761.653,-190.112"/>
<polygon fill="black" stroke="black" points="765.149,-189.945 761.224,-180.104 758.156,-190.245 765.149,-189.945"/>
</g>
<!-- StatMove3 -->
<g id="node30" class="node"><title>StatMove3</title>
<ellipse fill="none" stroke="black" cx="1132.49" cy="-306" rx="50.0912" ry="18"/>
<text text-anchor="middle" x="1132.49" y="-302.3" font-family="Times,serif" font-size="14.00">StatMove3</text>
</g>
<!-- ExpTemp6 -->
<g id="node31" class="node"><title>ExpTemp6</title>
<ellipse fill="none" stroke="black" cx="1011.49" cy="-234" rx="50.0912" ry="18"/>
<text text-anchor="middle" x="1011.49" y="-230.3" font-family="Times,serif" font-size="14.00">ExpTemp6</text>
</g>
<!-- StatMove3&#45;&gt;ExpTemp6 -->
<g id="edge22" class="edge"><title>StatMove3&#45;&gt;ExpTemp6</title>
<path fill="none" stroke="black" d="M1107.13,-290.326C1089.3,-280.012 1065.24,-266.095 1045.72,-254.8"/>
<polygon fill="black" stroke="black" points="1047.23,-251.633 1036.82,-249.655 1043.73,-257.692 1047.23,-251.633"/>
</g>
<!-- ExpTemp7 -->
<g id="node32" class="node"><title>ExpTemp7</title>
<ellipse fill="none" stroke="black" cx="1132.49" cy="-234" rx="50.0912" ry="18"/>
<text text-anchor="middle" x="1132.49" y="-230.3" font-family="Times,serif" font-size="14.00">ExpTemp7</text>
</g>
<!-- StatMove3&#45;&gt;ExpTemp7 -->
<g id="edge23" class="edge"><title>StatMove3&#45;&gt;ExpTemp7</title>
<path fill="none" stroke="black" d="M1132.49,-287.697C1132.49,-279.983 1132.49,-270.712 1132.49,-262.112"/>
<polygon fill="black" stroke="black" points="1135.99,-262.104 1132.49,-252.104 1128.99,-262.104 1135.99,-262.104"/>
</g>
<!-- Temp6: T13 -->
<g id="node60" class="node"><title>Temp6: T13</title>
<ellipse fill="none" stroke="black" cx="1008.49" cy="-162" rx="55.4913" ry="18"/>
<text text-anchor="middle" x="1008.49" y="-158.3" font-family="Times,serif" font-size="14.00">Temp6: T13</text>
</g>
<!-- ExpTemp6&#45;&gt;Temp6: T13 -->
<g id="edge51" class="edge"><title>ExpTemp6&#45;&gt;Temp6: T13</title>
<path fill="none" stroke="black" d="M1010.75,-215.697C1010.42,-207.983 1010.02,-198.712 1009.65,-190.112"/>
<polygon fill="black" stroke="black" points="1013.15,-189.945 1009.22,-180.104 1006.16,-190.245 1013.15,-189.945"/>
</g>
<!-- Temp7: T9 -->
<g id="node40" class="node"><title>Temp7: T9</title>
<ellipse fill="none" stroke="black" cx="1132.49" cy="-162" rx="50.8918" ry="18"/>
<text text-anchor="middle" x="1132.49" y="-158.3" font-family="Times,serif" font-size="14.00">Temp7: T9</text>
</g>
<!-- ExpTemp7&#45;&gt;Temp7: T9 -->
<g id="edge28" class="edge"><title>ExpTemp7&#45;&gt;Temp7: T9</title>
<path fill="none" stroke="black" d="M1132.49,-215.697C1132.49,-207.983 1132.49,-198.712 1132.49,-190.112"/>
<polygon fill="black" stroke="black" points="1135.99,-190.104 1132.49,-180.104 1128.99,-190.104 1135.99,-190.104"/>
</g>
<!-- ExpTemp5 -->
<g id="node33" class="node"><title>ExpTemp5</title>
<ellipse fill="none" stroke="black" cx="884.491" cy="-234" rx="50.0912" ry="18"/>
<text text-anchor="middle" x="884.491" y="-230.3" font-family="Times,serif" font-size="14.00">ExpTemp5</text>
</g>
<!-- Temp5: T9 -->
<g id="node34" class="node"><title>Temp5: T9</title>
<ellipse fill="none" stroke="black" cx="884.491" cy="-162" rx="50.8918" ry="18"/>
<text text-anchor="middle" x="884.491" y="-158.3" font-family="Times,serif" font-size="14.00">Temp5: T9</text>
</g>
<!-- ExpTemp5&#45;&gt;Temp5: T9 -->
<g id="edge24" class="edge"><title>ExpTemp5&#45;&gt;Temp5: T9</title>
<path fill="none" stroke="black" d="M884.491,-215.697C884.491,-207.983 884.491,-198.712 884.491,-190.112"/>
<polygon fill="black" stroke="black" points="887.991,-190.104 884.491,-180.104 880.991,-190.104 887.991,-190.104"/>
</g>
<!-- ExpTemp1 -->
<g id="node35" class="node"><title>ExpTemp1</title>
<ellipse fill="none" stroke="black" cx="381.491" cy="-234" rx="50.0912" ry="18"/>
<text text-anchor="middle" x="381.491" y="-230.3" font-family="Times,serif" font-size="14.00">ExpTemp1</text>
</g>
<!-- Temp1: T11 -->
<g id="node36" class="node"><title>Temp1: T11</title>
<ellipse fill="none" stroke="black" cx="376.491" cy="-162" rx="55.4913" ry="18"/>
<text text-anchor="middle" x="376.491" y="-158.3" font-family="Times,serif" font-size="14.00">Temp1: T11</text>
</g>
<!-- ExpTemp1&#45;&gt;Temp1: T11 -->
<g id="edge25" class="edge"><title>ExpTemp1&#45;&gt;Temp1: T11</title>
<path fill="none" stroke="black" d="M380.255,-215.697C379.704,-207.983 379.042,-198.712 378.428,-190.112"/>
<polygon fill="black" stroke="black" points="381.917,-189.83 377.713,-180.104 374.935,-190.328 381.917,-189.83"/>
</g>
<!-- ExpName2 -->
<g id="node38" class="node"><title>ExpName2</title>
<ellipse fill="none" stroke="black" cx="3092.49" cy="-162" rx="50.8918" ry="18"/>
<text text-anchor="middle" x="3092.49" y="-158.3" font-family="Times,serif" font-size="14.00">ExpName2</text>
</g>
<!-- Label3: print -->
<g id="node39" class="node"><title>Label3: print</title>
<ellipse fill="none" stroke="black" cx="3083.49" cy="-90" rx="56.59" ry="18"/>
<text text-anchor="middle" x="3083.49" y="-86.3" font-family="Times,serif" font-size="14.00">Label3: print</text>
</g>
<!-- ExpName2&#45;&gt;Label3: print -->
<g id="edge27" class="edge"><title>ExpName2&#45;&gt;Label3: print</title>
<path fill="none" stroke="black" d="M3090.27,-143.697C3089.27,-135.983 3088.08,-126.712 3086.98,-118.112"/>
<polygon fill="black" stroke="black" points="3090.44,-117.576 3085.69,-108.104 3083.49,-118.469 3090.44,-117.576"/>
</g>
<!-- ExpTemp0 -->
<g id="node41" class="node"><title>ExpTemp0</title>
<ellipse fill="none" stroke="black" cx="263.491" cy="-234" rx="50.0912" ry="18"/>
<text text-anchor="middle" x="263.491" y="-230.3" font-family="Times,serif" font-size="14.00">ExpTemp0</text>
</g>
<!-- Temp0: T18 -->
<g id="node42" class="node"><title>Temp0: T18</title>
<ellipse fill="none" stroke="black" cx="248.491" cy="-162" rx="55.4913" ry="18"/>
<text text-anchor="middle" x="248.491" y="-158.3" font-family="Times,serif" font-size="14.00">Temp0: T18</text>
</g>
<!-- ExpTemp0&#45;&gt;Temp0: T18 -->
<g id="edge29" class="edge"><title>ExpTemp0&#45;&gt;Temp0: T18</title>
<path fill="none" stroke="black" d="M259.783,-215.697C258.131,-207.983 256.144,-198.712 254.301,-190.112"/>
<polygon fill="black" stroke="black" points="257.674,-189.149 252.157,-180.104 250.83,-190.616 257.674,-189.149"/>
</g>
<!-- StatList0 -->
<g id="node43" class="node"><title>StatList0</title>
<ellipse fill="none" stroke="black" cx="1779.49" cy="-378" rx="42.4939" ry="18"/>
<text text-anchor="middle" x="1779.49" y="-374.3" font-family="Times,serif" font-size="14.00">StatList0</text>
</g>
<!-- StatList0&#45;&gt;StatMove5 -->
<g id="edge36" class="edge"><title>StatList0&#45;&gt;StatMove5</title>
<path fill="none" stroke="black" d="M1779.49,-359.697C1779.49,-351.983 1779.49,-342.712 1779.49,-334.112"/>
<polygon fill="black" stroke="black" points="1782.99,-334.104 1779.49,-324.104 1775.99,-334.104 1782.99,-334.104"/>
</g>
<!-- StatList0&#45;&gt;StatMove4 -->
<g id="edge35" class="edge"><title>StatList0&#45;&gt;StatMove4</title>
<path fill="none" stroke="black" d="M1743.44,-368.417C1691.41,-356.027 1595.02,-333.079 1535.94,-319.013"/>
<polygon fill="black" stroke="black" points="1536.62,-315.576 1526.08,-316.664 1535,-322.385 1536.62,-315.576"/>
</g>
<!-- StatList0&#45;&gt;StatMove7 -->
<g id="edge38" class="edge"><title>StatList0&#45;&gt;StatMove7</title>
<path fill="none" stroke="black" d="M1819.34,-371.909C1915.36,-359.645 2159.74,-328.428 2270.9,-314.229"/>
<polygon fill="black" stroke="black" points="2271.44,-317.688 2280.92,-312.95 2270.55,-310.745 2271.44,-317.688"/>
</g>
<!-- StatList0&#45;&gt;StatMove1 -->
<g id="edge32" class="edge"><title>StatList0&#45;&gt;StatMove1</title>
<path fill="none" stroke="black" d="M1737.62,-375.158C1604.31,-369.191 1177.91,-349.304 825.491,-324 780.104,-320.741 728.79,-316.179 690.488,-312.602"/>
<polygon fill="black" stroke="black" points="690.33,-309.071 680.046,-311.62 689.675,-316.041 690.33,-309.071"/>
</g>
<!-- StatList0&#45;&gt;StatMove3 -->
<g id="edge34" class="edge"><title>StatList0&#45;&gt;StatMove3</title>
<path fill="none" stroke="black" d="M1739.02,-372.621C1628.04,-360.615 1318.66,-327.142 1189.88,-313.209"/>
<polygon fill="black" stroke="black" points="1190.14,-309.717 1179.82,-312.121 1189.39,-316.676 1190.14,-309.717"/>
</g>
<!-- StatLabel0 -->
<g id="node44" class="node"><title>StatLabel0</title>
<ellipse fill="none" stroke="black" cx="181.491" cy="-306" rx="48.9926" ry="18"/>
<text text-anchor="middle" x="181.491" y="-302.3" font-family="Times,serif" font-size="14.00">StatLabel0</text>
</g>
<!-- StatList0&#45;&gt;StatLabel0 -->
<g id="edge30" class="edge"><title>StatList0&#45;&gt;StatLabel0</title>
<path fill="none" stroke="black" d="M1737.1,-376.753C1562.36,-375.461 880.806,-367.735 322.491,-324 293.955,-321.765 262.305,-318.061 236.232,-314.68"/>
<polygon fill="black" stroke="black" points="236.536,-311.19 226.165,-313.355 235.623,-318.13 236.536,-311.19"/>
</g>
<!-- StatMove0 -->
<g id="node45" class="node"><title>StatMove0</title>
<ellipse fill="none" stroke="black" cx="381.491" cy="-306" rx="50.0912" ry="18"/>
<text text-anchor="middle" x="381.491" y="-302.3" font-family="Times,serif" font-size="14.00">StatMove0</text>
</g>
<!-- StatList0&#45;&gt;StatMove0 -->
<g id="edge31" class="edge"><title>StatList0&#45;&gt;StatMove0</title>
<path fill="none" stroke="black" d="M1737.53,-375.831C1582.74,-371.375 1029.11,-354.167 573.491,-324 528.473,-321.019 477.618,-316.463 439.562,-312.817"/>
<polygon fill="black" stroke="black" points="439.473,-309.293 429.183,-311.815 438.8,-316.26 439.473,-309.293"/>
</g>
<!-- StatMove2 -->
<g id="node46" class="node"><title>StatMove2</title>
<ellipse fill="none" stroke="black" cx="884.491" cy="-306" rx="50.0912" ry="18"/>
<text text-anchor="middle" x="884.491" y="-302.3" font-family="Times,serif" font-size="14.00">StatMove2</text>
</g>
<!-- StatList0&#45;&gt;StatMove2 -->
<g id="edge33" class="edge"><title>StatList0&#45;&gt;StatMove2</title>
<path fill="none" stroke="black" d="M1738.1,-374.107C1629.21,-366.451 1325.84,-344.82 1073.49,-324 1029.52,-320.373 979.84,-315.888 942.45,-312.437"/>
<polygon fill="black" stroke="black" points="942.526,-308.929 932.246,-311.492 941.88,-315.899 942.526,-308.929"/>
</g>
<!-- StatMove6 -->
<g id="node47" class="node"><title>StatMove6</title>
<ellipse fill="none" stroke="black" cx="2071.49" cy="-306" rx="50.0912" ry="18"/>
<text text-anchor="middle" x="2071.49" y="-302.3" font-family="Times,serif" font-size="14.00">StatMove6</text>
</g>
<!-- StatList0&#45;&gt;StatMove6 -->
<g id="edge37" class="edge"><title>StatList0&#45;&gt;StatMove6</title>
<path fill="none" stroke="black" d="M1815.3,-368.417C1866.83,-356.062 1962.17,-333.207 2020.89,-319.13"/>
<polygon fill="black" stroke="black" points="2021.79,-322.514 2030.7,-316.779 2020.16,-315.707 2021.79,-322.514"/>
</g>
<!-- StatMove8 -->
<g id="node48" class="node"><title>StatMove8</title>
<ellipse fill="none" stroke="black" cx="2688.49" cy="-306" rx="50.0912" ry="18"/>
<text text-anchor="middle" x="2688.49" y="-302.3" font-family="Times,serif" font-size="14.00">StatMove8</text>
</g>
<!-- StatList0&#45;&gt;StatMove8 -->
<g id="edge39" class="edge"><title>StatList0&#45;&gt;StatMove8</title>
<path fill="none" stroke="black" d="M1820.61,-373.833C1966.49,-362.599 2459.58,-324.628 2629.99,-311.505"/>
<polygon fill="black" stroke="black" points="2630.32,-314.99 2640.02,-310.733 2629.78,-308.011 2630.32,-314.99"/>
</g>
<!-- StatMove9 -->
<g id="node49" class="node"><title>StatMove9</title>
<ellipse fill="none" stroke="black" cx="2964.49" cy="-306" rx="50.0912" ry="18"/>
<text text-anchor="middle" x="2964.49" y="-302.3" font-family="Times,serif" font-size="14.00">StatMove9</text>
</g>
<!-- StatList0&#45;&gt;StatMove9 -->
<g id="edge40" class="edge"><title>StatList0&#45;&gt;StatMove9</title>
<path fill="none" stroke="black" d="M1821.5,-375.053C1956.19,-368.735 2389.37,-347.829 2747.49,-324 2801.25,-320.423 2862.43,-315.558 2906.1,-311.948"/>
<polygon fill="black" stroke="black" points="2906.57,-315.421 2916.25,-311.106 2905.99,-308.445 2906.57,-315.421"/>
</g>
<!-- StatExp0 -->
<g id="node50" class="node"><title>StatExp0</title>
<ellipse fill="none" stroke="black" cx="3117.49" cy="-306" rx="42.7926" ry="18"/>
<text text-anchor="middle" x="3117.49" y="-302.3" font-family="Times,serif" font-size="14.00">StatExp0</text>
</g>
<!-- StatList0&#45;&gt;StatExp0 -->
<g id="edge41" class="edge"><title>StatList0&#45;&gt;StatExp0</title>
<path fill="none" stroke="black" d="M1821.8,-377.283C1980.38,-377.902 2554.33,-376.173 3023.49,-324 3038.76,-322.302 3055.28,-319.608 3070.16,-316.86"/>
<polygon fill="black" stroke="black" points="3070.98,-320.265 3080.16,-314.96 3069.68,-313.388 3070.98,-320.265"/>
</g>
<!-- StatJump0 -->
<g id="node51" class="node"><title>StatJump0</title>
<ellipse fill="none" stroke="black" cx="3310.49" cy="-306" rx="48.1917" ry="18"/>
<text text-anchor="middle" x="3310.49" y="-302.3" font-family="Times,serif" font-size="14.00">StatJump0</text>
</g>
<!-- StatList0&#45;&gt;StatJump0 -->
<g id="edge42" class="edge"><title>StatList0&#45;&gt;StatJump0</title>
<path fill="none" stroke="black" d="M1821.64,-376.651C1991.05,-374.982 2638.66,-366.05 3169.49,-324 3198.24,-321.722 3230.16,-317.977 3256.34,-314.581"/>
<polygon fill="black" stroke="black" points="3256.99,-318.026 3266.45,-313.251 3256.07,-311.086 3256.99,-318.026"/>
</g>
<!-- Label0: Factorial@main -->
<g id="node52" class="node"><title>Label0: Factorial@main</title>
<ellipse fill="none" stroke="black" cx="97.4913" cy="-234" rx="97.4827" ry="18"/>
<text text-anchor="middle" x="97.4913" y="-230.3" font-family="Times,serif" font-size="14.00">Label0: Factorial@main</text>
</g>
<!-- StatLabel0&#45;&gt;Label0: Factorial@main -->
<g id="edge43" class="edge"><title>StatLabel0&#45;&gt;Label0: Factorial@main</title>
<path fill="none" stroke="black" d="M162.43,-289.116C151.471,-279.983 137.506,-268.346 125.336,-258.204"/>
<polygon fill="black" stroke="black" points="127.571,-255.51 117.648,-251.797 123.09,-260.888 127.571,-255.51"/>
</g>
<!-- StatMove0&#45;&gt;ExpTemp1 -->
<g id="edge65" class="edge"><title>StatMove0&#45;&gt;ExpTemp1</title>
<path fill="none" stroke="black" d="M381.491,-287.697C381.491,-279.983 381.491,-270.712 381.491,-262.112"/>
<polygon fill="black" stroke="black" points="384.991,-262.104 381.491,-252.104 377.991,-262.104 384.991,-262.104"/>
</g>
<!-- StatMove0&#45;&gt;ExpTemp0 -->
<g id="edge64" class="edge"><title>StatMove0&#45;&gt;ExpTemp0</title>
<path fill="none" stroke="black" d="M356.755,-290.326C339.369,-280.012 315.909,-266.095 296.868,-254.8"/>
<polygon fill="black" stroke="black" points="298.582,-251.747 288.195,-249.655 295.01,-257.767 298.582,-251.747"/>
</g>
<!-- StatMove2&#45;&gt;ExpTemp4 -->
<g id="edge71" class="edge"><title>StatMove2&#45;&gt;ExpTemp4</title>
<path fill="none" stroke="black" d="M859.126,-290.326C841.298,-280.012 817.242,-266.095 797.716,-254.8"/>
<polygon fill="black" stroke="black" points="799.232,-251.633 788.824,-249.655 795.727,-257.692 799.232,-251.633"/>
</g>
<!-- StatMove2&#45;&gt;ExpTemp5 -->
<g id="edge72" class="edge"><title>StatMove2&#45;&gt;ExpTemp5</title>
<path fill="none" stroke="black" d="M884.491,-287.697C884.491,-279.983 884.491,-270.712 884.491,-262.112"/>
<polygon fill="black" stroke="black" points="887.991,-262.104 884.491,-252.104 880.991,-262.104 887.991,-262.104"/>
</g>
<!-- ExpTemp11 -->
<g id="node61" class="node"><title>ExpTemp11</title>
<ellipse fill="none" stroke="black" cx="2071.49" cy="-234" rx="54.6905" ry="18"/>
<text text-anchor="middle" x="2071.49" y="-230.3" font-family="Times,serif" font-size="14.00">ExpTemp11</text>
</g>
<!-- StatMove6&#45;&gt;ExpTemp11 -->
<g id="edge52" class="edge"><title>StatMove6&#45;&gt;ExpTemp11</title>
<path fill="none" stroke="black" d="M2071.49,-287.697C2071.49,-279.983 2071.49,-270.712 2071.49,-262.112"/>
<polygon fill="black" stroke="black" points="2074.99,-262.104 2071.49,-252.104 2067.99,-262.104 2074.99,-262.104"/>
</g>
<!-- ExpConst2 -->
<g id="node62" class="node"><title>ExpConst2</title>
<ellipse fill="none" stroke="black" cx="2197.49" cy="-234" rx="50.0912" ry="18"/>
<text text-anchor="middle" x="2197.49" y="-230.3" font-family="Times,serif" font-size="14.00">ExpConst2</text>
</g>
<!-- StatMove6&#45;&gt;ExpConst2 -->
<g id="edge53" class="edge"><title>StatMove6&#45;&gt;ExpConst2</title>
<path fill="none" stroke="black" d="M2097.6,-290.496C2116.44,-280.031 2142.07,-265.791 2162.65,-254.356"/>
<polygon fill="black" stroke="black" points="2164.38,-257.401 2171.42,-249.485 2160.98,-251.282 2164.38,-257.401"/>
</g>
<!-- ExpTemp15 -->
<g id="node66" class="node"><title>ExpTemp15</title>
<ellipse fill="none" stroke="black" cx="2688.49" cy="-234" rx="54.6905" ry="18"/>
<text text-anchor="middle" x="2688.49" y="-230.3" font-family="Times,serif" font-size="14.00">ExpTemp15</text>
</g>
<!-- StatMove8&#45;&gt;ExpTemp15 -->
<g id="edge66" class="edge"><title>StatMove8&#45;&gt;ExpTemp15</title>
<path fill="none" stroke="black" d="M2688.49,-287.697C2688.49,-279.983 2688.49,-270.712 2688.49,-262.112"/>
<polygon fill="black" stroke="black" points="2691.99,-262.104 2688.49,-252.104 2684.99,-262.104 2691.99,-262.104"/>
</g>
<!-- ExpTemp16 -->
<g id="node72" class="node"><title>ExpTemp16</title>
<ellipse fill="none" stroke="black" cx="2821.49" cy="-234" rx="54.6905" ry="18"/>
<text text-anchor="middle" x="2821.49" y="-230.3" font-family="Times,serif" font-size="14.00">ExpTemp16</text>
</g>
<!-- StatMove8&#45;&gt;ExpTemp16 -->
<g id="edge67" class="edge"><title>StatMove8&#45;&gt;ExpTemp16</title>
<path fill="none" stroke="black" d="M2715.73,-290.666C2735.68,-280.166 2762.97,-265.8 2784.83,-254.293"/>
<polygon fill="black" stroke="black" points="2786.62,-257.311 2793.84,-249.556 2783.36,-251.116 2786.62,-257.311"/>
</g>
<!-- ExpTemp17 -->
<g id="node58" class="node"><title>ExpTemp17</title>
<ellipse fill="none" stroke="black" cx="2964.49" cy="-234" rx="54.6905" ry="18"/>
<text text-anchor="middle" x="2964.49" y="-230.3" font-family="Times,serif" font-size="14.00">ExpTemp17</text>
</g>
<!-- StatMove9&#45;&gt;ExpTemp17 -->
<g id="edge68" class="edge"><title>StatMove9&#45;&gt;ExpTemp17</title>
<path fill="none" stroke="black" d="M2964.49,-287.697C2964.49,-279.983 2964.49,-270.712 2964.49,-262.112"/>
<polygon fill="black" stroke="black" points="2967.99,-262.104 2964.49,-252.104 2960.99,-262.104 2967.99,-262.104"/>
</g>
<!-- ExpCall2 -->
<g id="node64" class="node"><title>ExpCall2</title>
<ellipse fill="none" stroke="black" cx="3087.49" cy="-234" rx="44.393" ry="18"/>
<text text-anchor="middle" x="3087.49" y="-230.3" font-family="Times,serif" font-size="14.00">ExpCall2</text>
</g>
<!-- StatMove9&#45;&gt;ExpCall2 -->
<g id="edge69" class="edge"><title>StatMove9&#45;&gt;ExpCall2</title>
<path fill="none" stroke="black" d="M2989.98,-290.496C3008.53,-279.939 3033.83,-265.541 3054.01,-254.055"/>
<polygon fill="black" stroke="black" points="3055.92,-256.996 3062.88,-249.008 3052.46,-250.912 3055.92,-256.996"/>
</g>
<!-- ExpTemp19 -->
<g id="node74" class="node"><title>ExpTemp19</title>
<ellipse fill="none" stroke="black" cx="3204.49" cy="-234" rx="54.6905" ry="18"/>
<text text-anchor="middle" x="3204.49" y="-230.3" font-family="Times,serif" font-size="14.00">ExpTemp19</text>
</g>
<!-- StatExp0&#45;&gt;ExpTemp19 -->
<g id="edge75" class="edge"><title>StatExp0&#45;&gt;ExpTemp19</title>
<path fill="none" stroke="black" d="M3136.37,-289.811C3148.21,-280.288 3163.67,-267.846 3176.87,-257.224"/>
<polygon fill="black" stroke="black" points="3179.15,-259.884 3184.74,-250.888 3174.76,-254.43 3179.15,-259.884"/>
</g>
<!-- Label4: epilogue -->
<g id="node70" class="node"><title>Label4: epilogue</title>
<ellipse fill="none" stroke="black" cx="3347.49" cy="-234" rx="70.3881" ry="18"/>
<text text-anchor="middle" x="3347.49" y="-230.3" font-family="Times,serif" font-size="14.00">Label4: epilogue</text>
</g>
<!-- StatJump0&#45;&gt;Label4: epilogue -->
<g id="edge59" class="edge"><title>StatJump0&#45;&gt;Label4: epilogue</title>
<path fill="none" stroke="black" d="M3319.45,-288.055C3323.7,-280.007 3328.88,-270.205 3333.63,-261.226"/>
<polygon fill="black" stroke="black" points="3336.78,-262.752 3338.36,-252.275 3330.59,-259.481 3336.78,-262.752"/>
</g>
<!-- ExpTemp10 -->
<g id="node55" class="node"><title>ExpTemp10</title>
<ellipse fill="none" stroke="black" cx="1963.49" cy="-90" rx="54.6905" ry="18"/>
<text text-anchor="middle" x="1963.49" y="-86.3" font-family="Times,serif" font-size="14.00">ExpTemp10</text>
</g>
<!-- Temp10: T12 -->
<g id="node56" class="node"><title>Temp10: T12</title>
<ellipse fill="none" stroke="black" cx="1963.49" cy="-18" rx="59.5901" ry="18"/>
<text text-anchor="middle" x="1963.49" y="-14.3" font-family="Times,serif" font-size="14.00">Temp10: T12</text>
</g>
<!-- ExpTemp10&#45;&gt;Temp10: T12 -->
<g id="edge46" class="edge"><title>ExpTemp10&#45;&gt;Temp10: T12</title>
<path fill="none" stroke="black" d="M1963.49,-71.6966C1963.49,-63.9827 1963.49,-54.7125 1963.49,-46.1124"/>
<polygon fill="black" stroke="black" points="1966.99,-46.1043 1963.49,-36.1043 1959.99,-46.1044 1966.99,-46.1043"/>
</g>
<!-- ExpList0&#45;&gt;ExpTemp10 -->
<g id="edge50" class="edge"><title>ExpList0&#45;&gt;ExpTemp10</title>
<path fill="none" stroke="black" d="M1953.7,-143.697C1955.14,-135.983 1956.86,-126.712 1958.46,-118.112"/>
<polygon fill="black" stroke="black" points="1961.93,-118.575 1960.31,-108.104 1955.05,-117.297 1961.93,-118.575"/>
</g>
<!-- Temp17: T18 -->
<g id="node59" class="node"><title>Temp17: T18</title>
<ellipse fill="none" stroke="black" cx="2964.49" cy="-162" rx="59.5901" ry="18"/>
<text text-anchor="middle" x="2964.49" y="-158.3" font-family="Times,serif" font-size="14.00">Temp17: T18</text>
</g>
<!-- ExpTemp17&#45;&gt;Temp17: T18 -->
<g id="edge49" class="edge"><title>ExpTemp17&#45;&gt;Temp17: T18</title>
<path fill="none" stroke="black" d="M2964.49,-215.697C2964.49,-207.983 2964.49,-198.712 2964.49,-190.112"/>
<polygon fill="black" stroke="black" points="2967.99,-190.104 2964.49,-180.104 2960.99,-190.104 2967.99,-190.104"/>
</g>
<!-- Temp11: T15 -->
<g id="node76" class="node"><title>Temp11: T15</title>
<ellipse fill="none" stroke="black" cx="2071.49" cy="-162" rx="59.5901" ry="18"/>
<text text-anchor="middle" x="2071.49" y="-158.3" font-family="Times,serif" font-size="14.00">Temp11: T15</text>
</g>
<!-- ExpTemp11&#45;&gt;Temp11: T15 -->
<g id="edge74" class="edge"><title>ExpTemp11&#45;&gt;Temp11: T15</title>
<path fill="none" stroke="black" d="M2071.49,-215.697C2071.49,-207.983 2071.49,-198.712 2071.49,-190.112"/>
<polygon fill="black" stroke="black" points="2074.99,-190.104 2071.49,-180.104 2067.99,-190.104 2074.99,-190.104"/>
</g>
<!-- Value2: 10 -->
<g id="node63" class="node"><title>Value2: 10</title>
<ellipse fill="none" stroke="black" cx="2199.49" cy="-162" rx="50.0912" ry="18"/>
<text text-anchor="middle" x="2199.49" y="-158.3" font-family="Times,serif" font-size="14.00">Value2: 10</text>
</g>
<!-- ExpConst2&#45;&gt;Value2: 10 -->
<g id="edge54" class="edge"><title>ExpConst2&#45;&gt;Value2: 10</title>
<path fill="none" stroke="black" d="M2197.99,-215.697C2198.21,-207.983 2198.47,-198.712 2198.72,-190.112"/>
<polygon fill="black" stroke="black" points="2202.22,-190.2 2199,-180.104 2195.22,-190 2202.22,-190.2"/>
</g>
<!-- ExpCall2&#45;&gt;ExpName2 -->
<g id="edge55" class="edge"><title>ExpCall2&#45;&gt;ExpName2</title>
<path fill="none" stroke="black" d="M3088.73,-215.697C3089.28,-207.983 3089.94,-198.712 3090.55,-190.112"/>
<polygon fill="black" stroke="black" points="3094.05,-190.328 3091.27,-180.104 3087.07,-189.83 3094.05,-190.328"/>
</g>
<!-- ExpList2 -->
<g id="node65" class="node"><title>ExpList2</title>
<ellipse fill="none" stroke="black" cx="3204.49" cy="-162" rx="42.7926" ry="18"/>
<text text-anchor="middle" x="3204.49" y="-158.3" font-family="Times,serif" font-size="14.00">ExpList2</text>
</g>
<!-- ExpCall2&#45;&gt;ExpList2 -->
<g id="edge56" class="edge"><title>ExpCall2&#45;&gt;ExpList2</title>
<path fill="none" stroke="black" d="M3111.45,-218.666C3129,-208.168 3153,-193.807 3172.23,-182.301"/>
<polygon fill="black" stroke="black" points="3174.18,-185.214 3180.96,-177.076 3170.59,-179.207 3174.18,-185.214"/>
</g>
<!-- ExpList2&#45;&gt;ExpTemp18 -->
<g id="edge70" class="edge"><title>ExpList2&#45;&gt;ExpTemp18</title>
<path fill="none" stroke="black" d="M3206.47,-143.697C3207.35,-135.983 3208.41,-126.712 3209.39,-118.112"/>
<polygon fill="black" stroke="black" points="3212.88,-118.437 3210.54,-108.104 3205.92,-117.642 3212.88,-118.437"/>
</g>
<!-- Temp15: T17 -->
<g id="node67" class="node"><title>Temp15: T17</title>
<ellipse fill="none" stroke="black" cx="2688.49" cy="-162" rx="59.5901" ry="18"/>
<text text-anchor="middle" x="2688.49" y="-158.3" font-family="Times,serif" font-size="14.00">Temp15: T17</text>
</g>
<!-- ExpTemp15&#45;&gt;Temp15: T17 -->
<g id="edge57" class="edge"><title>ExpTemp15&#45;&gt;Temp15: T17</title>
<path fill="none" stroke="black" d="M2688.49,-215.697C2688.49,-207.983 2688.49,-198.712 2688.49,-190.112"/>
<polygon fill="black" stroke="black" points="2691.99,-190.104 2688.49,-180.104 2684.99,-190.104 2691.99,-190.104"/>
</g>
<!-- Label2: Fac@ComputeFac -->
<g id="node69" class="node"><title>Label2: Fac@ComputeFac</title>
<ellipse fill="none" stroke="black" cx="2388.49" cy="-90" rx="106.681" ry="18"/>
<text text-anchor="middle" x="2388.49" y="-86.3" font-family="Times,serif" font-size="14.00">Label2: Fac@ComputeFac</text>
</g>
<!-- ExpName1&#45;&gt;Label2: Fac@ComputeFac -->
<g id="edge58" class="edge"><title>ExpName1&#45;&gt;Label2: Fac@ComputeFac</title>
<path fill="none" stroke="black" d="M2439.95,-144.765C2431.65,-136.096 2421.27,-125.248 2412.01,-115.57"/>
<polygon fill="black" stroke="black" points="2414.32,-112.928 2404.88,-108.124 2409.27,-117.768 2414.32,-112.928"/>
</g>
<!-- Temp16: T10 -->
<g id="node73" class="node"><title>Temp16: T10</title>
<ellipse fill="none" stroke="black" cx="2826.49" cy="-162" rx="59.5901" ry="18"/>
<text text-anchor="middle" x="2826.49" y="-158.3" font-family="Times,serif" font-size="14.00">Temp16: T10</text>
</g>
<!-- ExpTemp16&#45;&gt;Temp16: T10 -->
<g id="edge63" class="edge"><title>ExpTemp16&#45;&gt;Temp16: T10</title>
<path fill="none" stroke="black" d="M2822.73,-215.697C2823.28,-207.983 2823.94,-198.712 2824.55,-190.112"/>
<polygon fill="black" stroke="black" points="2828.05,-190.328 2825.27,-180.104 2821.07,-189.83 2828.05,-190.328"/>
</g>
<!-- Temp19: T11 -->
<g id="node75" class="node"><title>Temp19: T11</title>
<ellipse fill="none" stroke="black" cx="3325.49" cy="-162" rx="59.5901" ry="18"/>
<text text-anchor="middle" x="3325.49" y="-158.3" font-family="Times,serif" font-size="14.00">Temp19: T11</text>
</g>
<!-- ExpTemp19&#45;&gt;Temp19: T11 -->
<g id="edge73" class="edge"><title>ExpTemp19&#45;&gt;Temp19: T11</title>
<path fill="none" stroke="black" d="M3230.45,-217.983C3247.95,-207.857 3271.26,-194.374 3290.41,-183.294"/>
<polygon fill="black" stroke="black" points="3292.26,-186.271 3299.16,-178.233 3288.75,-180.211 3292.26,-186.271"/>
</g>
</g>
</svg>
