<?xml version="1.0" encoding="UTF-8" standalone="no"?>
<!DOCTYPE svg PUBLIC "-//W3C//DTD SVG 1.1//EN"
 "http://www.w3.org/Graphics/SVG/1.1/DTD/svg11.dtd">
<!-- Generated by graphviz version 2.38.0 (20140413.2041)
 -->
<!-- Title: %3 Pages: 1 -->
<svg width="2341pt" height="404pt"
 viewBox="0.00 0.00 2340.89 404.00" xmlns="http://www.w3.org/2000/svg" xmlns:xlink="http://www.w3.org/1999/xlink">
<g id="graph0" class="graph" transform="scale(1 1) rotate(0) translate(4 400)">
<title>%3</title>
<polygon fill="white" stroke="none" points="-4,4 -4,-400 2336.89,-400 2336.89,4 -4,4"/>
<!-- ExpConst2 -->
<g id="node1" class="node"><title>ExpConst2</title>
<ellipse fill="none" stroke="black" cx="2030.95" cy="-234" rx="50.0912" ry="18"/>
<text text-anchor="middle" x="2030.95" y="-230.3" font-family="Times,serif" font-size="14.00">ExpConst2</text>
</g>
<!-- Value2: 0 -->
<g id="node2" class="node"><title>Value2: 0</title>
<ellipse fill="none" stroke="black" cx="2034.95" cy="-162" rx="45.4919" ry="18"/>
<text text-anchor="middle" x="2034.95" y="-158.3" font-family="Times,serif" font-size="14.00">Value2: 0</text>
</g>
<!-- ExpConst2&#45;&gt;Value2: 0 -->
<g id="edge1" class="edge"><title>ExpConst2&#45;&gt;Value2: 0</title>
<path fill="none" stroke="black" d="M2031.93,-215.697C2032.37,-207.983 2032.9,-198.712 2033.4,-190.112"/>
<polygon fill="black" stroke="black" points="2036.89,-190.288 2033.97,-180.104 2029.9,-189.888 2036.89,-190.288"/>
</g>
<!-- ExpTemp13 -->
<g id="node3" class="node"><title>ExpTemp13</title>
<ellipse fill="none" stroke="black" cx="2039.95" cy="-90" rx="54.6905" ry="18"/>
<text text-anchor="middle" x="2039.95" y="-86.3" font-family="Times,serif" font-size="14.00">ExpTemp13</text>
</g>
<!-- Temp13: T157 -->
<g id="node4" class="node"><title>Temp13: T157</title>
<ellipse fill="none" stroke="black" cx="2048.95" cy="-18" rx="63.8893" ry="18"/>
<text text-anchor="middle" x="2048.95" y="-14.3" font-family="Times,serif" font-size="14.00">Temp13: T157</text>
</g>
<!-- ExpTemp13&#45;&gt;Temp13: T157 -->
<g id="edge2" class="edge"><title>ExpTemp13&#45;&gt;Temp13: T157</title>
<path fill="none" stroke="black" d="M2042.17,-71.6966C2043.16,-63.9827 2044.35,-54.7125 2045.46,-46.1124"/>
<polygon fill="black" stroke="black" points="2048.94,-46.469 2046.75,-36.1043 2042,-45.5763 2048.94,-46.469"/>
</g>
<!-- ExpList0 -->
<g id="node5" class="node"><title>ExpList0</title>
<ellipse fill="none" stroke="black" cx="1782.95" cy="-162" rx="42.7926" ry="18"/>
<text text-anchor="middle" x="1782.95" y="-158.3" font-family="Times,serif" font-size="14.00">ExpList0</text>
</g>
<!-- ExpList0&#45;&gt;ExpTemp13 -->
<g id="edge5" class="edge"><title>ExpList0&#45;&gt;ExpTemp13</title>
<path fill="none" stroke="black" d="M1815.3,-150.073C1821.78,-147.983 1828.56,-145.866 1834.95,-144 1886.28,-128.988 1945.49,-113.919 1987.03,-103.708"/>
<polygon fill="black" stroke="black" points="1988.05,-107.062 1996.93,-101.284 1986.39,-100.262 1988.05,-107.062"/>
</g>
<!-- ExpTemp11 -->
<g id="node6" class="node"><title>ExpTemp11</title>
<ellipse fill="none" stroke="black" cx="1776.95" cy="-90" rx="54.6905" ry="18"/>
<text text-anchor="middle" x="1776.95" y="-86.3" font-family="Times,serif" font-size="14.00">ExpTemp11</text>
</g>
<!-- ExpList0&#45;&gt;ExpTemp11 -->
<g id="edge3" class="edge"><title>ExpList0&#45;&gt;ExpTemp11</title>
<path fill="none" stroke="black" d="M1781.46,-143.697C1780.8,-135.983 1780.01,-126.712 1779.27,-118.112"/>
<polygon fill="black" stroke="black" points="1782.75,-117.769 1778.41,-108.104 1775.78,-118.367 1782.75,-117.769"/>
</g>
<!-- ExpTemp12 -->
<g id="node7" class="node"><title>ExpTemp12</title>
<ellipse fill="none" stroke="black" cx="1903.95" cy="-90" rx="54.6905" ry="18"/>
<text text-anchor="middle" x="1903.95" y="-86.3" font-family="Times,serif" font-size="14.00">ExpTemp12</text>
</g>
<!-- ExpList0&#45;&gt;ExpTemp12 -->
<g id="edge4" class="edge"><title>ExpList0&#45;&gt;ExpTemp12</title>
<path fill="none" stroke="black" d="M1807.14,-147.003C1824.96,-136.692 1849.46,-122.523 1869.34,-111.017"/>
<polygon fill="black" stroke="black" points="1871.22,-113.978 1878.12,-105.941 1867.71,-107.919 1871.22,-113.978"/>
</g>
<!-- Temp11: T155 -->
<g id="node55" class="node"><title>Temp11: T155</title>
<ellipse fill="none" stroke="black" cx="1758.95" cy="-18" rx="63.8893" ry="18"/>
<text text-anchor="middle" x="1758.95" y="-14.3" font-family="Times,serif" font-size="14.00">Temp11: T155</text>
</g>
<!-- ExpTemp11&#45;&gt;Temp11: T155 -->
<g id="edge51" class="edge"><title>ExpTemp11&#45;&gt;Temp11: T155</title>
<path fill="none" stroke="black" d="M1772.59,-72.055C1770.58,-64.2609 1768.16,-54.8219 1765.91,-46.0789"/>
<polygon fill="black" stroke="black" points="1769.27,-45.0886 1763.39,-36.2753 1762.49,-46.8319 1769.27,-45.0886"/>
</g>
<!-- Temp12: T156 -->
<g id="node38" class="node"><title>Temp12: T156</title>
<ellipse fill="none" stroke="black" cx="1903.95" cy="-18" rx="63.8893" ry="18"/>
<text text-anchor="middle" x="1903.95" y="-14.3" font-family="Times,serif" font-size="14.00">Temp12: T156</text>
</g>
<!-- ExpTemp12&#45;&gt;Temp12: T156 -->
<g id="edge30" class="edge"><title>ExpTemp12&#45;&gt;Temp12: T156</title>
<path fill="none" stroke="black" d="M1903.95,-71.6966C1903.95,-63.9827 1903.95,-54.7125 1903.95,-46.1124"/>
<polygon fill="black" stroke="black" points="1907.45,-46.1043 1903.95,-36.1043 1900.45,-46.1044 1907.45,-46.1043"/>
</g>
<!-- ExpTemp9 -->
<g id="node8" class="node"><title>ExpTemp9</title>
<ellipse fill="none" stroke="black" cx="1535.95" cy="-234" rx="50.0912" ry="18"/>
<text text-anchor="middle" x="1535.95" y="-230.3" font-family="Times,serif" font-size="14.00">ExpTemp9</text>
</g>
<!-- Temp9: T158 -->
<g id="node9" class="node"><title>Temp9: T158</title>
<ellipse fill="none" stroke="black" cx="1535.95" cy="-162" rx="59.5901" ry="18"/>
<text text-anchor="middle" x="1535.95" y="-158.3" font-family="Times,serif" font-size="14.00">Temp9: T158</text>
</g>
<!-- ExpTemp9&#45;&gt;Temp9: T158 -->
<g id="edge6" class="edge"><title>ExpTemp9&#45;&gt;Temp9: T158</title>
<path fill="none" stroke="black" d="M1535.95,-215.697C1535.95,-207.983 1535.95,-198.712 1535.95,-190.112"/>
<polygon fill="black" stroke="black" points="1539.45,-190.104 1535.95,-180.104 1532.45,-190.104 1539.45,-190.104"/>
</g>
<!-- ExpCall0 -->
<g id="node10" class="node"><title>ExpCall0</title>
<ellipse fill="none" stroke="black" cx="1667.95" cy="-234" rx="44.393" ry="18"/>
<text text-anchor="middle" x="1667.95" y="-230.3" font-family="Times,serif" font-size="14.00">ExpCall0</text>
</g>
<!-- ExpCall0&#45;&gt;ExpList0 -->
<g id="edge8" class="edge"><title>ExpCall0&#45;&gt;ExpList0</title>
<path fill="none" stroke="black" d="M1691.49,-218.666C1708.63,-208.237 1732.02,-193.996 1750.86,-182.529"/>
<polygon fill="black" stroke="black" points="1752.71,-185.505 1759.43,-177.315 1749.07,-179.525 1752.71,-185.505"/>
</g>
<!-- ExpTemp10 -->
<g id="node11" class="node"><title>ExpTemp10</title>
<ellipse fill="none" stroke="black" cx="1667.95" cy="-162" rx="54.6905" ry="18"/>
<text text-anchor="middle" x="1667.95" y="-158.3" font-family="Times,serif" font-size="14.00">ExpTemp10</text>
</g>
<!-- ExpCall0&#45;&gt;ExpTemp10 -->
<g id="edge7" class="edge"><title>ExpCall0&#45;&gt;ExpTemp10</title>
<path fill="none" stroke="black" d="M1667.95,-215.697C1667.95,-207.983 1667.95,-198.712 1667.95,-190.112"/>
<polygon fill="black" stroke="black" points="1671.45,-190.104 1667.95,-180.104 1664.45,-190.104 1671.45,-190.104"/>
</g>
<!-- Temp10: T154 -->
<g id="node23" class="node"><title>Temp10: T154</title>
<ellipse fill="none" stroke="black" cx="1640.95" cy="-90" rx="63.8893" ry="18"/>
<text text-anchor="middle" x="1640.95" y="-86.3" font-family="Times,serif" font-size="14.00">Temp10: T154</text>
</g>
<!-- ExpTemp10&#45;&gt;Temp10: T154 -->
<g id="edge16" class="edge"><title>ExpTemp10&#45;&gt;Temp10: T154</title>
<path fill="none" stroke="black" d="M1661.41,-144.055C1658.37,-136.176 1654.68,-126.617 1651.28,-117.794"/>
<polygon fill="black" stroke="black" points="1654.47,-116.346 1647.61,-108.275 1647.94,-118.865 1654.47,-116.346"/>
</g>
<!-- ExpMem2 -->
<g id="node12" class="node"><title>ExpMem2</title>
<ellipse fill="none" stroke="black" cx="1397.95" cy="-234" rx="48.9926" ry="18"/>
<text text-anchor="middle" x="1397.95" y="-230.3" font-family="Times,serif" font-size="14.00">ExpMem2</text>
</g>
<!-- ExpBinary1 -->
<g id="node13" class="node"><title>ExpBinary1</title>
<ellipse fill="none" stroke="black" cx="1404.95" cy="-162" rx="53.0913" ry="18"/>
<text text-anchor="middle" x="1404.95" y="-158.3" font-family="Times,serif" font-size="14.00">ExpBinary1</text>
</g>
<!-- ExpMem2&#45;&gt;ExpBinary1 -->
<g id="edge9" class="edge"><title>ExpMem2&#45;&gt;ExpBinary1</title>
<path fill="none" stroke="black" d="M1399.68,-215.697C1400.45,-207.983 1401.37,-198.712 1402.23,-190.112"/>
<polygon fill="black" stroke="black" points="1405.72,-190.403 1403.23,-180.104 1398.76,-189.706 1405.72,-190.403"/>
</g>
<!-- ExpConst1 -->
<g id="node15" class="node"><title>ExpConst1</title>
<ellipse fill="none" stroke="black" cx="1503.95" cy="-90" rx="50.0912" ry="18"/>
<text text-anchor="middle" x="1503.95" y="-86.3" font-family="Times,serif" font-size="14.00">ExpConst1</text>
</g>
<!-- ExpBinary1&#45;&gt;ExpConst1 -->
<g id="edge46" class="edge"><title>ExpBinary1&#45;&gt;ExpConst1</title>
<path fill="none" stroke="black" d="M1426.92,-145.465C1440.73,-135.7 1458.73,-122.972 1473.85,-112.276"/>
<polygon fill="black" stroke="black" points="1476.23,-114.882 1482.38,-106.251 1472.19,-109.167 1476.23,-114.882"/>
</g>
<!-- ExpTemp8 -->
<g id="node47" class="node"><title>ExpTemp8</title>
<ellipse fill="none" stroke="black" cx="1305.95" cy="-90" rx="50.0912" ry="18"/>
<text text-anchor="middle" x="1305.95" y="-86.3" font-family="Times,serif" font-size="14.00">ExpTemp8</text>
</g>
<!-- ExpBinary1&#45;&gt;ExpTemp8 -->
<g id="edge44" class="edge"><title>ExpBinary1&#45;&gt;ExpTemp8</title>
<path fill="none" stroke="black" d="M1382.97,-145.465C1369.16,-135.7 1351.16,-122.972 1336.04,-112.276"/>
<polygon fill="black" stroke="black" points="1337.7,-109.167 1327.51,-106.251 1333.66,-114.882 1337.7,-109.167"/>
</g>
<!-- Plus1 -->
<g id="node49" class="node"><title>Plus1</title>
<ellipse fill="none" stroke="black" cx="1404.95" cy="-90" rx="30.5947" ry="18"/>
<text text-anchor="middle" x="1404.95" y="-86.3" font-family="Times,serif" font-size="14.00">Plus1</text>
</g>
<!-- ExpBinary1&#45;&gt;Plus1 -->
<g id="edge45" class="edge"><title>ExpBinary1&#45;&gt;Plus1</title>
<path fill="none" stroke="black" d="M1404.95,-143.697C1404.95,-135.983 1404.95,-126.712 1404.95,-118.112"/>
<polygon fill="black" stroke="black" points="1408.45,-118.104 1404.95,-108.104 1401.45,-118.104 1408.45,-118.104"/>
</g>
<!-- StatMove5 -->
<g id="node14" class="node"><title>StatMove5</title>
<ellipse fill="none" stroke="black" cx="1535.95" cy="-306" rx="50.0912" ry="18"/>
<text text-anchor="middle" x="1535.95" y="-302.3" font-family="Times,serif" font-size="14.00">StatMove5</text>
</g>
<!-- StatMove5&#45;&gt;ExpTemp9 -->
<g id="edge10" class="edge"><title>StatMove5&#45;&gt;ExpTemp9</title>
<path fill="none" stroke="black" d="M1535.95,-287.697C1535.95,-279.983 1535.95,-270.712 1535.95,-262.112"/>
<polygon fill="black" stroke="black" points="1539.45,-262.104 1535.95,-252.104 1532.45,-262.104 1539.45,-262.104"/>
</g>
<!-- StatMove5&#45;&gt;ExpCall0 -->
<g id="edge11" class="edge"><title>StatMove5&#45;&gt;ExpCall0</title>
<path fill="none" stroke="black" d="M1562.98,-290.666C1583.17,-279.956 1610.95,-265.224 1632.86,-253.606"/>
<polygon fill="black" stroke="black" points="1634.66,-256.615 1641.85,-248.838 1631.38,-250.431 1634.66,-256.615"/>
</g>
<!-- Value1: 4 -->
<g id="node16" class="node"><title>Value1: 4</title>
<ellipse fill="none" stroke="black" cx="1503.95" cy="-18" rx="45.4919" ry="18"/>
<text text-anchor="middle" x="1503.95" y="-14.3" font-family="Times,serif" font-size="14.00">Value1: 4</text>
</g>
<!-- ExpConst1&#45;&gt;Value1: 4 -->
<g id="edge12" class="edge"><title>ExpConst1&#45;&gt;Value1: 4</title>
<path fill="none" stroke="black" d="M1503.95,-71.6966C1503.95,-63.9827 1503.95,-54.7125 1503.95,-46.1124"/>
<polygon fill="black" stroke="black" points="1507.45,-46.1043 1503.95,-36.1043 1500.45,-46.1044 1507.45,-46.1043"/>
</g>
<!-- ExpConst0 -->
<g id="node17" class="node"><title>ExpConst0</title>
<ellipse fill="none" stroke="black" cx="647.945" cy="-90" rx="50.0912" ry="18"/>
<text text-anchor="middle" x="647.945" y="-86.3" font-family="Times,serif" font-size="14.00">ExpConst0</text>
</g>
<!-- Value0: 16 -->
<g id="node18" class="node"><title>Value0: 16</title>
<ellipse fill="none" stroke="black" cx="647.945" cy="-18" rx="50.0912" ry="18"/>
<text text-anchor="middle" x="647.945" y="-14.3" font-family="Times,serif" font-size="14.00">Value0: 16</text>
</g>
<!-- ExpConst0&#45;&gt;Value0: 16 -->
<g id="edge13" class="edge"><title>ExpConst0&#45;&gt;Value0: 16</title>
<path fill="none" stroke="black" d="M647.945,-71.6966C647.945,-63.9827 647.945,-54.7125 647.945,-46.1124"/>
<polygon fill="black" stroke="black" points="651.445,-46.1043 647.945,-36.1043 644.445,-46.1044 651.445,-46.1043"/>
</g>
<!-- ExpMem1 -->
<g id="node19" class="node"><title>ExpMem1</title>
<ellipse fill="none" stroke="black" cx="807.945" cy="-234" rx="48.9926" ry="18"/>
<text text-anchor="middle" x="807.945" y="-230.3" font-family="Times,serif" font-size="14.00">ExpMem1</text>
</g>
<!-- ExpTemp5 -->
<g id="node20" class="node"><title>ExpTemp5</title>
<ellipse fill="none" stroke="black" cx="807.945" cy="-162" rx="50.0912" ry="18"/>
<text text-anchor="middle" x="807.945" y="-158.3" font-family="Times,serif" font-size="14.00">ExpTemp5</text>
</g>
<!-- ExpMem1&#45;&gt;ExpTemp5 -->
<g id="edge14" class="edge"><title>ExpMem1&#45;&gt;ExpTemp5</title>
<path fill="none" stroke="black" d="M807.945,-215.697C807.945,-207.983 807.945,-198.712 807.945,-190.112"/>
<polygon fill="black" stroke="black" points="811.445,-190.104 807.945,-180.104 804.445,-190.104 811.445,-190.104"/>
</g>
<!-- Temp5: $fp -->
<g id="node52" class="node"><title>Temp5: $fp</title>
<ellipse fill="none" stroke="black" cx="807.945" cy="-90" rx="52.7911" ry="18"/>
<text text-anchor="middle" x="807.945" y="-86.3" font-family="Times,serif" font-size="14.00">Temp5: $fp</text>
</g>
<!-- ExpTemp5&#45;&gt;Temp5: $fp -->
<g id="edge49" class="edge"><title>ExpTemp5&#45;&gt;Temp5: $fp</title>
<path fill="none" stroke="black" d="M807.945,-143.697C807.945,-135.983 807.945,-126.712 807.945,-118.112"/>
<polygon fill="black" stroke="black" points="811.445,-118.104 807.945,-108.104 804.445,-118.104 811.445,-118.104"/>
</g>
<!-- ExpTemp3 -->
<g id="node21" class="node"><title>ExpTemp3</title>
<ellipse fill="none" stroke="black" cx="449.945" cy="-90" rx="50.0912" ry="18"/>
<text text-anchor="middle" x="449.945" y="-86.3" font-family="Times,serif" font-size="14.00">ExpTemp3</text>
</g>
<!-- Temp3: $fp -->
<g id="node22" class="node"><title>Temp3: $fp</title>
<ellipse fill="none" stroke="black" cx="449.945" cy="-18" rx="52.7911" ry="18"/>
<text text-anchor="middle" x="449.945" y="-14.3" font-family="Times,serif" font-size="14.00">Temp3: $fp</text>
</g>
<!-- ExpTemp3&#45;&gt;Temp3: $fp -->
<g id="edge15" class="edge"><title>ExpTemp3&#45;&gt;Temp3: $fp</title>
<path fill="none" stroke="black" d="M449.945,-71.6966C449.945,-63.9827 449.945,-54.7125 449.945,-46.1124"/>
<polygon fill="black" stroke="black" points="453.445,-46.1043 449.945,-36.1043 446.445,-46.1044 453.445,-46.1043"/>
</g>
<!-- ExpTemp2 -->
<g id="node24" class="node"><title>ExpTemp2</title>
<ellipse fill="none" stroke="black" cx="424.945" cy="-234" rx="50.0912" ry="18"/>
<text text-anchor="middle" x="424.945" y="-230.3" font-family="Times,serif" font-size="14.00">ExpTemp2</text>
</g>
<!-- Temp2: T156 -->
<g id="node25" class="node"><title>Temp2: T156</title>
<ellipse fill="none" stroke="black" cx="417.945" cy="-162" rx="59.5901" ry="18"/>
<text text-anchor="middle" x="417.945" y="-158.3" font-family="Times,serif" font-size="14.00">Temp2: T156</text>
</g>
<!-- ExpTemp2&#45;&gt;Temp2: T156 -->
<g id="edge17" class="edge"><title>ExpTemp2&#45;&gt;Temp2: T156</title>
<path fill="none" stroke="black" d="M423.215,-215.697C422.443,-207.983 421.516,-198.712 420.656,-190.112"/>
<polygon fill="black" stroke="black" points="424.133,-189.706 419.656,-180.104 417.168,-190.403 424.133,-189.706"/>
</g>
<!-- StatMove2 -->
<g id="node26" class="node"><title>StatMove2</title>
<ellipse fill="none" stroke="black" cx="807.945" cy="-306" rx="50.0912" ry="18"/>
<text text-anchor="middle" x="807.945" y="-302.3" font-family="Times,serif" font-size="14.00">StatMove2</text>
</g>
<!-- StatMove2&#45;&gt;ExpMem1 -->
<g id="edge19" class="edge"><title>StatMove2&#45;&gt;ExpMem1</title>
<path fill="none" stroke="black" d="M807.945,-287.697C807.945,-279.983 807.945,-270.712 807.945,-262.112"/>
<polygon fill="black" stroke="black" points="811.445,-262.104 807.945,-252.104 804.445,-262.104 811.445,-262.104"/>
</g>
<!-- ExpTemp4 -->
<g id="node27" class="node"><title>ExpTemp4</title>
<ellipse fill="none" stroke="black" cx="684.945" cy="-234" rx="50.0912" ry="18"/>
<text text-anchor="middle" x="684.945" y="-230.3" font-family="Times,serif" font-size="14.00">ExpTemp4</text>
</g>
<!-- StatMove2&#45;&gt;ExpTemp4 -->
<g id="edge18" class="edge"><title>StatMove2&#45;&gt;ExpTemp4</title>
<path fill="none" stroke="black" d="M782.46,-290.496C764.275,-280.147 739.605,-266.107 719.629,-254.739"/>
<polygon fill="black" stroke="black" points="721.244,-251.631 710.821,-249.726 717.781,-257.714 721.244,-251.631"/>
</g>
<!-- Temp4: T155 -->
<g id="node58" class="node"><title>Temp4: T155</title>
<ellipse fill="none" stroke="black" cx="679.945" cy="-162" rx="59.5901" ry="18"/>
<text text-anchor="middle" x="679.945" y="-158.3" font-family="Times,serif" font-size="14.00">Temp4: T155</text>
</g>
<!-- ExpTemp4&#45;&gt;Temp4: T155 -->
<g id="edge55" class="edge"><title>ExpTemp4&#45;&gt;Temp4: T155</title>
<path fill="none" stroke="black" d="M683.709,-215.697C683.158,-207.983 682.496,-198.712 681.882,-190.112"/>
<polygon fill="black" stroke="black" points="685.371,-189.83 681.167,-180.104 678.388,-190.328 685.371,-189.83"/>
</g>
<!-- StatLabel0 -->
<g id="node28" class="node"><title>StatLabel0</title>
<ellipse fill="none" stroke="black" cx="115.945" cy="-306" rx="48.9926" ry="18"/>
<text text-anchor="middle" x="115.945" y="-302.3" font-family="Times,serif" font-size="14.00">StatLabel0</text>
</g>
<!-- Label0: L38 -->
<g id="node29" class="node"><title>Label0: L38</title>
<ellipse fill="none" stroke="black" cx="53.9452" cy="-234" rx="53.8905" ry="18"/>
<text text-anchor="middle" x="53.9452" y="-230.3" font-family="Times,serif" font-size="14.00">Label0: L38</text>
</g>
<!-- StatLabel0&#45;&gt;Label0: L38 -->
<g id="edge20" class="edge"><title>StatLabel0&#45;&gt;Label0: L38</title>
<path fill="none" stroke="black" d="M101.565,-288.765C93.7748,-279.969 83.996,-268.928 75.3299,-259.144"/>
<polygon fill="black" stroke="black" points="77.9281,-256.799 68.6777,-251.633 72.688,-261.44 77.9281,-256.799"/>
</g>
<!-- StatList0 -->
<g id="node30" class="node"><title>StatList0</title>
<ellipse fill="none" stroke="black" cx="871.945" cy="-378" rx="42.4939" ry="18"/>
<text text-anchor="middle" x="871.945" y="-374.3" font-family="Times,serif" font-size="14.00">StatList0</text>
</g>
<!-- StatList0&#45;&gt;StatMove5 -->
<g id="edge27" class="edge"><title>StatList0&#45;&gt;StatMove5</title>
<path fill="none" stroke="black" d="M912.482,-372.727C1025.84,-360.776 1346.42,-326.98 1478.24,-313.083"/>
<polygon fill="black" stroke="black" points="1478.95,-316.528 1488.53,-311.999 1478.21,-309.567 1478.95,-316.528"/>
</g>
<!-- StatList0&#45;&gt;StatMove2 -->
<g id="edge24" class="edge"><title>StatList0&#45;&gt;StatMove2</title>
<path fill="none" stroke="black" d="M857.101,-360.765C849.06,-351.969 838.965,-340.928 830.02,-331.144"/>
<polygon fill="black" stroke="black" points="832.484,-328.652 823.153,-323.633 827.318,-333.375 832.484,-328.652"/>
</g>
<!-- StatList0&#45;&gt;StatLabel0 -->
<g id="edge21" class="edge"><title>StatList0&#45;&gt;StatLabel0</title>
<path fill="none" stroke="black" d="M830.501,-374.4C728.842,-367.839 459.072,-349.311 234.945,-324 213.657,-321.596 190.306,-318.386 169.971,-315.404"/>
<polygon fill="black" stroke="black" points="170.352,-311.922 159.946,-313.916 169.324,-318.846 170.352,-311.922"/>
</g>
<!-- StatMove0 -->
<g id="node31" class="node"><title>StatMove0</title>
<ellipse fill="none" stroke="black" cx="293.945" cy="-306" rx="50.0912" ry="18"/>
<text text-anchor="middle" x="293.945" y="-302.3" font-family="Times,serif" font-size="14.00">StatMove0</text>
</g>
<!-- StatList0&#45;&gt;StatMove0 -->
<g id="edge22" class="edge"><title>StatList0&#45;&gt;StatMove0</title>
<path fill="none" stroke="black" d="M831.76,-372.133C730.989,-359.929 467.293,-327.994 350.741,-313.878"/>
<polygon fill="black" stroke="black" points="350.947,-310.378 340.599,-312.65 350.106,-317.327 350.947,-310.378"/>
</g>
<!-- StatMove1 -->
<g id="node32" class="node"><title>StatMove1</title>
<ellipse fill="none" stroke="black" cx="548.945" cy="-306" rx="50.0912" ry="18"/>
<text text-anchor="middle" x="548.945" y="-302.3" font-family="Times,serif" font-size="14.00">StatMove1</text>
</g>
<!-- StatList0&#45;&gt;StatMove1 -->
<g id="edge23" class="edge"><title>StatList0&#45;&gt;StatMove1</title>
<path fill="none" stroke="black" d="M835.207,-369.038C777.763,-356.589 666.475,-332.471 600.862,-318.251"/>
<polygon fill="black" stroke="black" points="601.253,-314.755 590.739,-316.057 599.771,-321.596 601.253,-314.755"/>
</g>
<!-- StatMove3 -->
<g id="node33" class="node"><title>StatMove3</title>
<ellipse fill="none" stroke="black" cx="935.945" cy="-306" rx="50.0912" ry="18"/>
<text text-anchor="middle" x="935.945" y="-302.3" font-family="Times,serif" font-size="14.00">StatMove3</text>
</g>
<!-- StatList0&#45;&gt;StatMove3 -->
<g id="edge25" class="edge"><title>StatList0&#45;&gt;StatMove3</title>
<path fill="none" stroke="black" d="M886.789,-360.765C894.831,-351.969 904.925,-340.928 913.871,-331.144"/>
<polygon fill="black" stroke="black" points="916.573,-333.375 920.738,-323.633 911.407,-328.652 916.573,-333.375"/>
</g>
<!-- StatMove4 -->
<g id="node34" class="node"><title>StatMove4</title>
<ellipse fill="none" stroke="black" cx="1273.95" cy="-306" rx="50.0912" ry="18"/>
<text text-anchor="middle" x="1273.95" y="-302.3" font-family="Times,serif" font-size="14.00">StatMove4</text>
</g>
<!-- StatList0&#45;&gt;StatMove4 -->
<g id="edge26" class="edge"><title>StatList0&#45;&gt;StatMove4</title>
<path fill="none" stroke="black" d="M910.491,-370.288C982.461,-357.756 1137.43,-330.772 1219.84,-316.422"/>
<polygon fill="black" stroke="black" points="1220.51,-319.858 1229.76,-314.694 1219.31,-312.962 1220.51,-319.858"/>
</g>
<!-- StatCJump0 -->
<g id="node35" class="node"><title>StatCJump0</title>
<ellipse fill="none" stroke="black" cx="1968.95" cy="-306" rx="53.8905" ry="18"/>
<text text-anchor="middle" x="1968.95" y="-302.3" font-family="Times,serif" font-size="14.00">StatCJump0</text>
</g>
<!-- StatList0&#45;&gt;StatCJump0 -->
<g id="edge28" class="edge"><title>StatList0&#45;&gt;StatCJump0</title>
<path fill="none" stroke="black" d="M913.609,-374.341C1081.04,-363.658 1705.48,-323.812 1906.31,-310.997"/>
<polygon fill="black" stroke="black" points="1906.64,-314.483 1916.4,-310.353 1906.19,-307.497 1906.64,-314.483"/>
</g>
<!-- ExpTemp0 -->
<g id="node36" class="node"><title>ExpTemp0</title>
<ellipse fill="none" stroke="black" cx="175.945" cy="-234" rx="50.0912" ry="18"/>
<text text-anchor="middle" x="175.945" y="-230.3" font-family="Times,serif" font-size="14.00">ExpTemp0</text>
</g>
<!-- StatMove0&#45;&gt;ExpTemp0 -->
<g id="edge34" class="edge"><title>StatMove0&#45;&gt;ExpTemp0</title>
<path fill="none" stroke="black" d="M269.209,-290.326C251.823,-280.012 228.363,-266.095 209.322,-254.8"/>
<polygon fill="black" stroke="black" points="211.036,-251.747 200.649,-249.655 207.464,-257.767 211.036,-251.747"/>
</g>
<!-- ExpTemp1 -->
<g id="node41" class="node"><title>ExpTemp1</title>
<ellipse fill="none" stroke="black" cx="293.945" cy="-234" rx="50.0912" ry="18"/>
<text text-anchor="middle" x="293.945" y="-230.3" font-family="Times,serif" font-size="14.00">ExpTemp1</text>
</g>
<!-- StatMove0&#45;&gt;ExpTemp1 -->
<g id="edge35" class="edge"><title>StatMove0&#45;&gt;ExpTemp1</title>
<path fill="none" stroke="black" d="M293.945,-287.697C293.945,-279.983 293.945,-270.712 293.945,-262.112"/>
<polygon fill="black" stroke="black" points="297.445,-262.104 293.945,-252.104 290.445,-262.104 297.445,-262.104"/>
</g>
<!-- StatMove1&#45;&gt;ExpTemp2 -->
<g id="edge41" class="edge"><title>StatMove1&#45;&gt;ExpTemp2</title>
<path fill="none" stroke="black" d="M523.252,-290.496C504.797,-280.078 479.716,-265.919 459.506,-254.51"/>
<polygon fill="black" stroke="black" points="461.034,-251.354 450.605,-249.485 457.593,-257.449 461.034,-251.354"/>
</g>
<!-- ExpMem0 -->
<g id="node46" class="node"><title>ExpMem0</title>
<ellipse fill="none" stroke="black" cx="548.945" cy="-234" rx="48.9926" ry="18"/>
<text text-anchor="middle" x="548.945" y="-230.3" font-family="Times,serif" font-size="14.00">ExpMem0</text>
</g>
<!-- StatMove1&#45;&gt;ExpMem0 -->
<g id="edge42" class="edge"><title>StatMove1&#45;&gt;ExpMem0</title>
<path fill="none" stroke="black" d="M548.945,-287.697C548.945,-279.983 548.945,-270.712 548.945,-262.112"/>
<polygon fill="black" stroke="black" points="552.445,-262.104 548.945,-252.104 545.445,-262.104 552.445,-262.104"/>
</g>
<!-- ExpTemp6 -->
<g id="node53" class="node"><title>ExpTemp6</title>
<ellipse fill="none" stroke="black" cx="935.945" cy="-234" rx="50.0912" ry="18"/>
<text text-anchor="middle" x="935.945" y="-230.3" font-family="Times,serif" font-size="14.00">ExpTemp6</text>
</g>
<!-- StatMove3&#45;&gt;ExpTemp6 -->
<g id="edge52" class="edge"><title>StatMove3&#45;&gt;ExpTemp6</title>
<path fill="none" stroke="black" d="M935.945,-287.697C935.945,-279.983 935.945,-270.712 935.945,-262.112"/>
<polygon fill="black" stroke="black" points="939.445,-262.104 935.945,-252.104 932.445,-262.104 939.445,-262.104"/>
</g>
<!-- ExpName0 -->
<g id="node56" class="node"><title>ExpName0</title>
<ellipse fill="none" stroke="black" cx="1079.95" cy="-234" rx="50.8918" ry="18"/>
<text text-anchor="middle" x="1079.95" y="-230.3" font-family="Times,serif" font-size="14.00">ExpName0</text>
</g>
<!-- StatMove3&#45;&gt;ExpName0 -->
<g id="edge53" class="edge"><title>StatMove3&#45;&gt;ExpName0</title>
<path fill="none" stroke="black" d="M964.395,-291.17C986.537,-280.407 1017.48,-265.365 1041.77,-253.555"/>
<polygon fill="black" stroke="black" points="1043.6,-256.56 1051.06,-249.041 1040.54,-250.265 1043.6,-256.56"/>
</g>
<!-- StatMove4&#45;&gt;ExpMem2 -->
<g id="edge59" class="edge"><title>StatMove4&#45;&gt;ExpMem2</title>
<path fill="none" stroke="black" d="M1299.64,-290.496C1318.09,-280.078 1343.17,-265.919 1363.38,-254.51"/>
<polygon fill="black" stroke="black" points="1365.3,-257.449 1372.29,-249.485 1361.86,-251.354 1365.3,-257.449"/>
</g>
<!-- ExpTemp7 -->
<g id="node59" class="node"><title>ExpTemp7</title>
<ellipse fill="none" stroke="black" cx="1273.95" cy="-234" rx="50.0912" ry="18"/>
<text text-anchor="middle" x="1273.95" y="-230.3" font-family="Times,serif" font-size="14.00">ExpTemp7</text>
</g>
<!-- StatMove4&#45;&gt;ExpTemp7 -->
<g id="edge58" class="edge"><title>StatMove4&#45;&gt;ExpTemp7</title>
<path fill="none" stroke="black" d="M1273.95,-287.697C1273.95,-279.983 1273.95,-270.712 1273.95,-262.112"/>
<polygon fill="black" stroke="black" points="1277.45,-262.104 1273.95,-252.104 1270.45,-262.104 1277.45,-262.104"/>
</g>
<!-- StatCJump0&#45;&gt;ExpConst2 -->
<g id="edge38" class="edge"><title>StatCJump0&#45;&gt;ExpConst2</title>
<path fill="none" stroke="black" d="M1983.64,-288.411C1991.36,-279.693 2000.97,-268.845 2009.5,-259.208"/>
<polygon fill="black" stroke="black" points="2012.35,-261.276 2016.36,-251.47 2007.11,-256.635 2012.35,-261.276"/>
</g>
<!-- NE0 -->
<g id="node42" class="node"><title>NE0</title>
<ellipse fill="none" stroke="black" cx="1807.95" cy="-234" rx="27" ry="18"/>
<text text-anchor="middle" x="1807.95" y="-230.3" font-family="Times,serif" font-size="14.00">NE0</text>
</g>
<!-- StatCJump0&#45;&gt;NE0 -->
<g id="edge36" class="edge"><title>StatCJump0&#45;&gt;NE0</title>
<path fill="none" stroke="black" d="M1936.42,-291.628C1911.1,-281.119 1875.14,-265.971 1843.95,-252 1842.15,-251.195 1840.3,-250.358 1838.45,-249.507"/>
<polygon fill="black" stroke="black" points="1839.74,-246.25 1829.2,-245.21 1836.79,-252.598 1839.74,-246.25"/>
</g>
<!-- ExpTemp14 -->
<g id="node43" class="node"><title>ExpTemp14</title>
<ellipse fill="none" stroke="black" cx="1907.95" cy="-234" rx="54.6905" ry="18"/>
<text text-anchor="middle" x="1907.95" y="-230.3" font-family="Times,serif" font-size="14.00">ExpTemp14</text>
</g>
<!-- StatCJump0&#45;&gt;ExpTemp14 -->
<g id="edge37" class="edge"><title>StatCJump0&#45;&gt;ExpTemp14</title>
<path fill="none" stroke="black" d="M1954.49,-288.411C1946.89,-279.693 1937.44,-268.845 1929.04,-259.208"/>
<polygon fill="black" stroke="black" points="1931.51,-256.71 1922.3,-251.47 1926.23,-261.309 1931.51,-256.71"/>
</g>
<!-- Label2: L24 -->
<g id="node44" class="node"><title>Label2: L24</title>
<ellipse fill="none" stroke="black" cx="2152.95" cy="-234" rx="53.8905" ry="18"/>
<text text-anchor="middle" x="2152.95" y="-230.3" font-family="Times,serif" font-size="14.00">Label2: L24</text>
</g>
<!-- StatCJump0&#45;&gt;Label2: L24 -->
<g id="edge39" class="edge"><title>StatCJump0&#45;&gt;Label2: L24</title>
<path fill="none" stroke="black" d="M2003.12,-291.998C2032.98,-280.639 2076.5,-264.082 2108.95,-251.737"/>
<polygon fill="black" stroke="black" points="2110.54,-254.878 2118.64,-248.051 2108.05,-248.336 2110.54,-254.878"/>
</g>
<!-- Label3: L25 -->
<g id="node45" class="node"><title>Label3: L25</title>
<ellipse fill="none" stroke="black" cx="2278.95" cy="-234" rx="53.8905" ry="18"/>
<text text-anchor="middle" x="2278.95" y="-230.3" font-family="Times,serif" font-size="14.00">Label3: L25</text>
</g>
<!-- StatCJump0&#45;&gt;Label3: L25 -->
<g id="edge40" class="edge"><title>StatCJump0&#45;&gt;Label3: L25</title>
<path fill="none" stroke="black" d="M2014.18,-296.032C2063.83,-286.016 2145.82,-268.972 2215.95,-252 2220.09,-250.996 2224.39,-249.919 2228.69,-248.812"/>
<polygon fill="black" stroke="black" points="2229.91,-252.112 2238.7,-246.197 2228.14,-245.34 2229.91,-252.112"/>
</g>
<!-- Temp0: T158 -->
<g id="node37" class="node"><title>Temp0: T158</title>
<ellipse fill="none" stroke="black" cx="141.945" cy="-162" rx="59.5901" ry="18"/>
<text text-anchor="middle" x="141.945" y="-158.3" font-family="Times,serif" font-size="14.00">Temp0: T158</text>
</g>
<!-- ExpTemp0&#45;&gt;Temp0: T158 -->
<g id="edge29" class="edge"><title>ExpTemp0&#45;&gt;Temp0: T158</title>
<path fill="none" stroke="black" d="M167.715,-216.055C163.847,-208.091 159.145,-198.411 154.821,-189.51"/>
<polygon fill="black" stroke="black" points="157.853,-187.741 150.336,-180.275 151.557,-190.8 157.853,-187.741"/>
</g>
<!-- ExpBinary0 -->
<g id="node39" class="node"><title>ExpBinary0</title>
<ellipse fill="none" stroke="black" cx="548.945" cy="-162" rx="53.0913" ry="18"/>
<text text-anchor="middle" x="548.945" y="-158.3" font-family="Times,serif" font-size="14.00">ExpBinary0</text>
</g>
<!-- ExpBinary0&#45;&gt;ExpConst0 -->
<g id="edge33" class="edge"><title>ExpBinary0&#45;&gt;ExpConst0</title>
<path fill="none" stroke="black" d="M570.917,-145.465C584.726,-135.7 602.727,-122.972 617.855,-112.276"/>
<polygon fill="black" stroke="black" points="620.231,-114.882 626.376,-106.251 616.19,-109.167 620.231,-114.882"/>
</g>
<!-- ExpBinary0&#45;&gt;ExpTemp3 -->
<g id="edge31" class="edge"><title>ExpBinary0&#45;&gt;ExpTemp3</title>
<path fill="none" stroke="black" d="M526.974,-145.465C513.164,-135.7 495.163,-122.972 480.036,-112.276"/>
<polygon fill="black" stroke="black" points="481.7,-109.167 471.514,-106.251 477.659,-114.882 481.7,-109.167"/>
</g>
<!-- Plus0 -->
<g id="node40" class="node"><title>Plus0</title>
<ellipse fill="none" stroke="black" cx="548.945" cy="-90" rx="30.5947" ry="18"/>
<text text-anchor="middle" x="548.945" y="-86.3" font-family="Times,serif" font-size="14.00">Plus0</text>
</g>
<!-- ExpBinary0&#45;&gt;Plus0 -->
<g id="edge32" class="edge"><title>ExpBinary0&#45;&gt;Plus0</title>
<path fill="none" stroke="black" d="M548.945,-143.697C548.945,-135.983 548.945,-126.712 548.945,-118.112"/>
<polygon fill="black" stroke="black" points="552.445,-118.104 548.945,-108.104 545.445,-118.104 552.445,-118.104"/>
</g>
<!-- Temp1: T143 -->
<g id="node51" class="node"><title>Temp1: T143</title>
<ellipse fill="none" stroke="black" cx="279.945" cy="-162" rx="59.5901" ry="18"/>
<text text-anchor="middle" x="279.945" y="-158.3" font-family="Times,serif" font-size="14.00">Temp1: T143</text>
</g>
<!-- ExpTemp1&#45;&gt;Temp1: T143 -->
<g id="edge48" class="edge"><title>ExpTemp1&#45;&gt;Temp1: T143</title>
<path fill="none" stroke="black" d="M290.485,-215.697C288.942,-207.983 287.088,-198.712 285.368,-190.112"/>
<polygon fill="black" stroke="black" points="288.759,-189.224 283.366,-180.104 281.895,-190.597 288.759,-189.224"/>
</g>
<!-- Temp14: T143 -->
<g id="node50" class="node"><title>Temp14: T143</title>
<ellipse fill="none" stroke="black" cx="1907.95" cy="-162" rx="63.8893" ry="18"/>
<text text-anchor="middle" x="1907.95" y="-158.3" font-family="Times,serif" font-size="14.00">Temp14: T143</text>
</g>
<!-- ExpTemp14&#45;&gt;Temp14: T143 -->
<g id="edge47" class="edge"><title>ExpTemp14&#45;&gt;Temp14: T143</title>
<path fill="none" stroke="black" d="M1907.95,-215.697C1907.95,-207.983 1907.95,-198.712 1907.95,-190.112"/>
<polygon fill="black" stroke="black" points="1911.45,-190.104 1907.95,-180.104 1904.45,-190.104 1911.45,-190.104"/>
</g>
<!-- ExpMem0&#45;&gt;ExpBinary0 -->
<g id="edge57" class="edge"><title>ExpMem0&#45;&gt;ExpBinary0</title>
<path fill="none" stroke="black" d="M548.945,-215.697C548.945,-207.983 548.945,-198.712 548.945,-190.112"/>
<polygon fill="black" stroke="black" points="552.445,-190.104 548.945,-180.104 545.445,-190.104 552.445,-190.104"/>
</g>
<!-- Temp8: $fp -->
<g id="node48" class="node"><title>Temp8: $fp</title>
<ellipse fill="none" stroke="black" cx="1305.95" cy="-18" rx="52.7911" ry="18"/>
<text text-anchor="middle" x="1305.95" y="-14.3" font-family="Times,serif" font-size="14.00">Temp8: $fp</text>
</g>
<!-- ExpTemp8&#45;&gt;Temp8: $fp -->
<g id="edge43" class="edge"><title>ExpTemp8&#45;&gt;Temp8: $fp</title>
<path fill="none" stroke="black" d="M1305.95,-71.6966C1305.95,-63.9827 1305.95,-54.7125 1305.95,-46.1124"/>
<polygon fill="black" stroke="black" points="1309.45,-46.1043 1305.95,-36.1043 1302.45,-46.1044 1309.45,-46.1043"/>
</g>
<!-- Temp6: T154 -->
<g id="node54" class="node"><title>Temp6: T154</title>
<ellipse fill="none" stroke="black" cx="935.945" cy="-162" rx="59.5901" ry="18"/>
<text text-anchor="middle" x="935.945" y="-158.3" font-family="Times,serif" font-size="14.00">Temp6: T154</text>
</g>
<!-- ExpTemp6&#45;&gt;Temp6: T154 -->
<g id="edge50" class="edge"><title>ExpTemp6&#45;&gt;Temp6: T154</title>
<path fill="none" stroke="black" d="M935.945,-215.697C935.945,-207.983 935.945,-198.712 935.945,-190.112"/>
<polygon fill="black" stroke="black" points="939.445,-190.104 935.945,-180.104 932.445,-190.104 939.445,-190.104"/>
</g>
<!-- Label1: BS@Compare -->
<g id="node57" class="node"><title>Label1: BS@Compare</title>
<ellipse fill="none" stroke="black" cx="1104.95" cy="-162" rx="91.784" ry="18"/>
<text text-anchor="middle" x="1104.95" y="-158.3" font-family="Times,serif" font-size="14.00">Label1: BS@Compare</text>
</g>
<!-- ExpName0&#45;&gt;Label1: BS@Compare -->
<g id="edge54" class="edge"><title>ExpName0&#45;&gt;Label1: BS@Compare</title>
<path fill="none" stroke="black" d="M1086,-216.055C1088.81,-208.176 1092.23,-198.617 1095.38,-189.794"/>
<polygon fill="black" stroke="black" points="1098.71,-190.87 1098.78,-180.275 1092.12,-188.516 1098.71,-190.87"/>
</g>
<!-- Temp7: T157 -->
<g id="node60" class="node"><title>Temp7: T157</title>
<ellipse fill="none" stroke="black" cx="1273.95" cy="-162" rx="59.5901" ry="18"/>
<text text-anchor="middle" x="1273.95" y="-158.3" font-family="Times,serif" font-size="14.00">Temp7: T157</text>
</g>
<!-- ExpTemp7&#45;&gt;Temp7: T157 -->
<g id="edge56" class="edge"><title>ExpTemp7&#45;&gt;Temp7: T157</title>
<path fill="none" stroke="black" d="M1273.95,-215.697C1273.95,-207.983 1273.95,-198.712 1273.95,-190.112"/>
<polygon fill="black" stroke="black" points="1277.45,-190.104 1273.95,-180.104 1270.45,-190.104 1277.45,-190.104"/>
</g>
</g>
</svg>
