<?xml version="1.0" encoding="UTF-8" standalone="no"?>
<!DOCTYPE svg PUBLIC "-//W3C//DTD SVG 1.1//EN"
 "http://www.w3.org/Graphics/SVG/1.1/DTD/svg11.dtd">
<!-- Generated by graphviz version 2.38.0 (20140413.2041)
 -->
<!-- Title: %3 Pages: 1 -->
<svg width="2024pt" height="404pt"
 viewBox="0.00 0.00 2023.89 404.00" xmlns="http://www.w3.org/2000/svg" xmlns:xlink="http://www.w3.org/1999/xlink">
<g id="graph0" class="graph" transform="scale(1 1) rotate(0) translate(4 400)">
<title>%3</title>
<polygon fill="white" stroke="none" points="-4,4 -4,-400 2019.89,-400 2019.89,4 -4,4"/>
<!-- ExpConst2 -->
<g id="node1" class="node"><title>ExpConst2</title>
<ellipse fill="none" stroke="black" cx="1713.95" cy="-234" rx="50.0912" ry="18"/>
<text text-anchor="middle" x="1713.95" y="-230.3" font-family="Times,serif" font-size="14.00">ExpConst2</text>
</g>
<!-- Value2: 0 -->
<g id="node2" class="node"><title>Value2: 0</title>
<ellipse fill="none" stroke="black" cx="1717.95" cy="-162" rx="45.4919" ry="18"/>
<text text-anchor="middle" x="1717.95" y="-158.3" font-family="Times,serif" font-size="14.00">Value2: 0</text>
</g>
<!-- ExpConst2&#45;&gt;Value2: 0 -->
<g id="edge1" class="edge"><title>ExpConst2&#45;&gt;Value2: 0</title>
<path fill="none" stroke="black" d="M1714.93,-215.697C1715.37,-207.983 1715.9,-198.712 1716.4,-190.112"/>
<polygon fill="black" stroke="black" points="1719.89,-190.288 1716.97,-180.104 1712.9,-189.888 1719.89,-190.288"/>
</g>
<!-- ExpList0 -->
<g id="node3" class="node"><title>ExpList0</title>
<ellipse fill="none" stroke="black" cx="1465.95" cy="-162" rx="42.7926" ry="18"/>
<text text-anchor="middle" x="1465.95" y="-158.3" font-family="Times,serif" font-size="14.00">ExpList0</text>
</g>
<!-- ExpTemp9 -->
<g id="node4" class="node"><title>ExpTemp9</title>
<ellipse fill="none" stroke="black" cx="1465.95" cy="-90" rx="50.0912" ry="18"/>
<text text-anchor="middle" x="1465.95" y="-86.3" font-family="Times,serif" font-size="14.00">ExpTemp9</text>
</g>
<!-- ExpList0&#45;&gt;ExpTemp9 -->
<g id="edge2" class="edge"><title>ExpList0&#45;&gt;ExpTemp9</title>
<path fill="none" stroke="black" d="M1465.95,-143.697C1465.95,-135.983 1465.95,-126.712 1465.95,-118.112"/>
<polygon fill="black" stroke="black" points="1469.45,-118.104 1465.95,-108.104 1462.45,-118.104 1469.45,-118.104"/>
</g>
<!-- ExpTemp10 -->
<g id="node5" class="node"><title>ExpTemp10</title>
<ellipse fill="none" stroke="black" cx="1588.95" cy="-90" rx="54.6905" ry="18"/>
<text text-anchor="middle" x="1588.95" y="-86.3" font-family="Times,serif" font-size="14.00">ExpTemp10</text>
</g>
<!-- ExpList0&#45;&gt;ExpTemp10 -->
<g id="edge3" class="edge"><title>ExpList0&#45;&gt;ExpTemp10</title>
<path fill="none" stroke="black" d="M1490.54,-147.003C1508.66,-136.692 1533.55,-122.523 1553.77,-111.017"/>
<polygon fill="black" stroke="black" points="1555.73,-113.929 1562.69,-105.941 1552.27,-107.845 1555.73,-113.929"/>
</g>
<!-- ExpTemp11 -->
<g id="node6" class="node"><title>ExpTemp11</title>
<ellipse fill="none" stroke="black" cx="1724.95" cy="-90" rx="54.6905" ry="18"/>
<text text-anchor="middle" x="1724.95" y="-86.3" font-family="Times,serif" font-size="14.00">ExpTemp11</text>
</g>
<!-- ExpList0&#45;&gt;ExpTemp11 -->
<g id="edge4" class="edge"><title>ExpList0&#45;&gt;ExpTemp11</title>
<path fill="none" stroke="black" d="M1498.3,-150.061C1504.78,-147.972 1511.56,-145.859 1517.95,-144 1570.04,-128.832 1630.19,-113.694 1672.17,-103.504"/>
<polygon fill="black" stroke="black" points="1673.01,-106.903 1681.91,-101.151 1671.36,-100.098 1673.01,-106.903"/>
</g>
<!-- Temp9: T120 -->
<g id="node7" class="node"><title>Temp9: T120</title>
<ellipse fill="none" stroke="black" cx="1447.95" cy="-18" rx="59.5901" ry="18"/>
<text text-anchor="middle" x="1447.95" y="-14.3" font-family="Times,serif" font-size="14.00">Temp9: T120</text>
</g>
<!-- ExpTemp9&#45;&gt;Temp9: T120 -->
<g id="edge5" class="edge"><title>ExpTemp9&#45;&gt;Temp9: T120</title>
<path fill="none" stroke="black" d="M1461.59,-72.055C1459.58,-64.2609 1457.16,-54.8219 1454.91,-46.0789"/>
<polygon fill="black" stroke="black" points="1458.27,-45.0886 1452.39,-36.2753 1451.49,-46.8319 1458.27,-45.0886"/>
</g>
<!-- Temp10: T121 -->
<g id="node18" class="node"><title>Temp10: T121</title>
<ellipse fill="none" stroke="black" cx="1588.95" cy="-18" rx="63.8893" ry="18"/>
<text text-anchor="middle" x="1588.95" y="-14.3" font-family="Times,serif" font-size="14.00">Temp10: T121</text>
</g>
<!-- ExpTemp10&#45;&gt;Temp10: T121 -->
<g id="edge11" class="edge"><title>ExpTemp10&#45;&gt;Temp10: T121</title>
<path fill="none" stroke="black" d="M1588.95,-71.6966C1588.95,-63.9827 1588.95,-54.7125 1588.95,-46.1124"/>
<polygon fill="black" stroke="black" points="1592.45,-46.1043 1588.95,-36.1043 1585.45,-46.1044 1592.45,-46.1043"/>
</g>
<!-- Temp11: T122 -->
<g id="node53" class="node"><title>Temp11: T122</title>
<ellipse fill="none" stroke="black" cx="1733.95" cy="-18" rx="63.8893" ry="18"/>
<text text-anchor="middle" x="1733.95" y="-14.3" font-family="Times,serif" font-size="14.00">Temp11: T122</text>
</g>
<!-- ExpTemp11&#45;&gt;Temp11: T122 -->
<g id="edge50" class="edge"><title>ExpTemp11&#45;&gt;Temp11: T122</title>
<path fill="none" stroke="black" d="M1727.17,-71.6966C1728.16,-63.9827 1729.35,-54.7125 1730.46,-46.1124"/>
<polygon fill="black" stroke="black" points="1733.94,-46.469 1731.75,-36.1043 1727,-45.5763 1733.94,-46.469"/>
</g>
<!-- ExpName0 -->
<g id="node8" class="node"><title>ExpName0</title>
<ellipse fill="none" stroke="black" cx="1325.95" cy="-162" rx="50.8918" ry="18"/>
<text text-anchor="middle" x="1325.95" y="-158.3" font-family="Times,serif" font-size="14.00">ExpName0</text>
</g>
<!-- Label1: BS@Compare -->
<g id="node9" class="node"><title>Label1: BS@Compare</title>
<ellipse fill="none" stroke="black" cx="1305.95" cy="-90" rx="91.784" ry="18"/>
<text text-anchor="middle" x="1305.95" y="-86.3" font-family="Times,serif" font-size="14.00">Label1: BS@Compare</text>
</g>
<!-- ExpName0&#45;&gt;Label1: BS@Compare -->
<g id="edge6" class="edge"><title>ExpName0&#45;&gt;Label1: BS@Compare</title>
<path fill="none" stroke="black" d="M1321.1,-144.055C1318.88,-136.261 1316.18,-126.822 1313.68,-118.079"/>
<polygon fill="black" stroke="black" points="1316.99,-116.929 1310.88,-108.275 1310.26,-118.852 1316.99,-116.929"/>
</g>
<!-- ExpConst1 -->
<g id="node10" class="node"><title>ExpConst1</title>
<ellipse fill="none" stroke="black" cx="1145.95" cy="-90" rx="50.0912" ry="18"/>
<text text-anchor="middle" x="1145.95" y="-86.3" font-family="Times,serif" font-size="14.00">ExpConst1</text>
</g>
<!-- Value1: 4 -->
<g id="node11" class="node"><title>Value1: 4</title>
<ellipse fill="none" stroke="black" cx="1145.95" cy="-18" rx="45.4919" ry="18"/>
<text text-anchor="middle" x="1145.95" y="-14.3" font-family="Times,serif" font-size="14.00">Value1: 4</text>
</g>
<!-- ExpConst1&#45;&gt;Value1: 4 -->
<g id="edge7" class="edge"><title>ExpConst1&#45;&gt;Value1: 4</title>
<path fill="none" stroke="black" d="M1145.95,-71.6966C1145.95,-63.9827 1145.95,-54.7125 1145.95,-46.1124"/>
<polygon fill="black" stroke="black" points="1149.45,-46.1043 1145.95,-36.1043 1142.45,-46.1044 1149.45,-46.1043"/>
</g>
<!-- ExpConst0 -->
<g id="node12" class="node"><title>ExpConst0</title>
<ellipse fill="none" stroke="black" cx="647.945" cy="-90" rx="50.0912" ry="18"/>
<text text-anchor="middle" x="647.945" y="-86.3" font-family="Times,serif" font-size="14.00">ExpConst0</text>
</g>
<!-- Value0: 16 -->
<g id="node13" class="node"><title>Value0: 16</title>
<ellipse fill="none" stroke="black" cx="647.945" cy="-18" rx="50.0912" ry="18"/>
<text text-anchor="middle" x="647.945" y="-14.3" font-family="Times,serif" font-size="14.00">Value0: 16</text>
</g>
<!-- ExpConst0&#45;&gt;Value0: 16 -->
<g id="edge8" class="edge"><title>ExpConst0&#45;&gt;Value0: 16</title>
<path fill="none" stroke="black" d="M647.945,-71.6966C647.945,-63.9827 647.945,-54.7125 647.945,-46.1124"/>
<polygon fill="black" stroke="black" points="651.445,-46.1043 647.945,-36.1043 644.445,-46.1044 651.445,-46.1043"/>
</g>
<!-- ExpMem1 -->
<g id="node14" class="node"><title>ExpMem1</title>
<ellipse fill="none" stroke="black" cx="804.945" cy="-234" rx="48.9926" ry="18"/>
<text text-anchor="middle" x="804.945" y="-230.3" font-family="Times,serif" font-size="14.00">ExpMem1</text>
</g>
<!-- ExpTemp5 -->
<g id="node15" class="node"><title>ExpTemp5</title>
<ellipse fill="none" stroke="black" cx="807.945" cy="-162" rx="50.0912" ry="18"/>
<text text-anchor="middle" x="807.945" y="-158.3" font-family="Times,serif" font-size="14.00">ExpTemp5</text>
</g>
<!-- ExpMem1&#45;&gt;ExpTemp5 -->
<g id="edge9" class="edge"><title>ExpMem1&#45;&gt;ExpTemp5</title>
<path fill="none" stroke="black" d="M805.687,-215.697C806.017,-207.983 806.415,-198.712 806.783,-190.112"/>
<polygon fill="black" stroke="black" points="810.281,-190.245 807.212,-180.104 803.287,-189.945 810.281,-190.245"/>
</g>
<!-- Temp5: $fp -->
<g id="node50" class="node"><title>Temp5: $fp</title>
<ellipse fill="none" stroke="black" cx="807.945" cy="-90" rx="52.7911" ry="18"/>
<text text-anchor="middle" x="807.945" y="-86.3" font-family="Times,serif" font-size="14.00">Temp5: $fp</text>
</g>
<!-- ExpTemp5&#45;&gt;Temp5: $fp -->
<g id="edge48" class="edge"><title>ExpTemp5&#45;&gt;Temp5: $fp</title>
<path fill="none" stroke="black" d="M807.945,-143.697C807.945,-135.983 807.945,-126.712 807.945,-118.112"/>
<polygon fill="black" stroke="black" points="811.445,-118.104 807.945,-108.104 804.445,-118.104 811.445,-118.104"/>
</g>
<!-- ExpTemp3 -->
<g id="node16" class="node"><title>ExpTemp3</title>
<ellipse fill="none" stroke="black" cx="449.945" cy="-90" rx="50.0912" ry="18"/>
<text text-anchor="middle" x="449.945" y="-86.3" font-family="Times,serif" font-size="14.00">ExpTemp3</text>
</g>
<!-- Temp3: $fp -->
<g id="node17" class="node"><title>Temp3: $fp</title>
<ellipse fill="none" stroke="black" cx="449.945" cy="-18" rx="52.7911" ry="18"/>
<text text-anchor="middle" x="449.945" y="-14.3" font-family="Times,serif" font-size="14.00">Temp3: $fp</text>
</g>
<!-- ExpTemp3&#45;&gt;Temp3: $fp -->
<g id="edge10" class="edge"><title>ExpTemp3&#45;&gt;Temp3: $fp</title>
<path fill="none" stroke="black" d="M449.945,-71.6966C449.945,-63.9827 449.945,-54.7125 449.945,-46.1124"/>
<polygon fill="black" stroke="black" points="453.445,-46.1043 449.945,-36.1043 446.445,-46.1044 453.445,-46.1043"/>
</g>
<!-- ExpTemp2 -->
<g id="node19" class="node"><title>ExpTemp2</title>
<ellipse fill="none" stroke="black" cx="424.945" cy="-234" rx="50.0912" ry="18"/>
<text text-anchor="middle" x="424.945" y="-230.3" font-family="Times,serif" font-size="14.00">ExpTemp2</text>
</g>
<!-- Temp2: T121 -->
<g id="node20" class="node"><title>Temp2: T121</title>
<ellipse fill="none" stroke="black" cx="417.945" cy="-162" rx="59.5901" ry="18"/>
<text text-anchor="middle" x="417.945" y="-158.3" font-family="Times,serif" font-size="14.00">Temp2: T121</text>
</g>
<!-- ExpTemp2&#45;&gt;Temp2: T121 -->
<g id="edge12" class="edge"><title>ExpTemp2&#45;&gt;Temp2: T121</title>
<path fill="none" stroke="black" d="M423.215,-215.697C422.443,-207.983 421.516,-198.712 420.656,-190.112"/>
<polygon fill="black" stroke="black" points="424.133,-189.706 419.656,-180.104 417.168,-190.403 424.133,-189.706"/>
</g>
<!-- StatMove2 -->
<g id="node21" class="node"><title>StatMove2</title>
<ellipse fill="none" stroke="black" cx="743.945" cy="-306" rx="50.0912" ry="18"/>
<text text-anchor="middle" x="743.945" y="-302.3" font-family="Times,serif" font-size="14.00">StatMove2</text>
</g>
<!-- StatMove2&#45;&gt;ExpMem1 -->
<g id="edge14" class="edge"><title>StatMove2&#45;&gt;ExpMem1</title>
<path fill="none" stroke="black" d="M758.401,-288.411C765.998,-279.693 775.451,-268.845 783.85,-259.208"/>
<polygon fill="black" stroke="black" points="786.662,-261.309 790.593,-251.47 781.384,-256.71 786.662,-261.309"/>
</g>
<!-- ExpTemp4 -->
<g id="node22" class="node"><title>ExpTemp4</title>
<ellipse fill="none" stroke="black" cx="682.945" cy="-234" rx="50.0912" ry="18"/>
<text text-anchor="middle" x="682.945" y="-230.3" font-family="Times,serif" font-size="14.00">ExpTemp4</text>
</g>
<!-- StatMove2&#45;&gt;ExpTemp4 -->
<g id="edge13" class="edge"><title>StatMove2&#45;&gt;ExpTemp4</title>
<path fill="none" stroke="black" d="M729.489,-288.411C721.892,-279.693 712.439,-268.845 704.04,-259.208"/>
<polygon fill="black" stroke="black" points="706.506,-256.71 697.298,-251.47 701.229,-261.309 706.506,-256.71"/>
</g>
<!-- Temp4: T120 -->
<g id="node54" class="node"><title>Temp4: T120</title>
<ellipse fill="none" stroke="black" cx="679.945" cy="-162" rx="59.5901" ry="18"/>
<text text-anchor="middle" x="679.945" y="-158.3" font-family="Times,serif" font-size="14.00">Temp4: T120</text>
</g>
<!-- ExpTemp4&#45;&gt;Temp4: T120 -->
<g id="edge53" class="edge"><title>ExpTemp4&#45;&gt;Temp4: T120</title>
<path fill="none" stroke="black" d="M682.204,-215.697C681.873,-207.983 681.476,-198.712 681.107,-190.112"/>
<polygon fill="black" stroke="black" points="684.603,-189.945 680.678,-180.104 677.61,-190.245 684.603,-189.945"/>
</g>
<!-- StatLabel0 -->
<g id="node23" class="node"><title>StatLabel0</title>
<ellipse fill="none" stroke="black" cx="115.945" cy="-306" rx="48.9926" ry="18"/>
<text text-anchor="middle" x="115.945" y="-302.3" font-family="Times,serif" font-size="14.00">StatLabel0</text>
</g>
<!-- Label0: L38 -->
<g id="node24" class="node"><title>Label0: L38</title>
<ellipse fill="none" stroke="black" cx="53.9452" cy="-234" rx="53.8905" ry="18"/>
<text text-anchor="middle" x="53.9452" y="-230.3" font-family="Times,serif" font-size="14.00">Label0: L38</text>
</g>
<!-- StatLabel0&#45;&gt;Label0: L38 -->
<g id="edge15" class="edge"><title>StatLabel0&#45;&gt;Label0: L38</title>
<path fill="none" stroke="black" d="M101.565,-288.765C93.7748,-279.969 83.996,-268.928 75.3299,-259.144"/>
<polygon fill="black" stroke="black" points="77.9281,-256.799 68.6777,-251.633 72.688,-261.44 77.9281,-256.799"/>
</g>
<!-- StatList0 -->
<g id="node25" class="node"><title>StatList0</title>
<ellipse fill="none" stroke="black" cx="743.945" cy="-378" rx="42.4939" ry="18"/>
<text text-anchor="middle" x="743.945" y="-374.3" font-family="Times,serif" font-size="14.00">StatList0</text>
</g>
<!-- StatList0&#45;&gt;StatMove2 -->
<g id="edge19" class="edge"><title>StatList0&#45;&gt;StatMove2</title>
<path fill="none" stroke="black" d="M743.945,-359.697C743.945,-351.983 743.945,-342.712 743.945,-334.112"/>
<polygon fill="black" stroke="black" points="747.445,-334.104 743.945,-324.104 740.445,-334.104 747.445,-334.104"/>
</g>
<!-- StatList0&#45;&gt;StatLabel0 -->
<g id="edge16" class="edge"><title>StatList0&#45;&gt;StatLabel0</title>
<path fill="none" stroke="black" d="M702.979,-373.269C616.432,-365.27 408.653,-345.443 234.945,-324 213.771,-321.386 190.532,-318.149 170.253,-315.203"/>
<polygon fill="black" stroke="black" points="170.654,-311.725 160.253,-313.739 169.64,-318.651 170.654,-311.725"/>
</g>
<!-- StatMove0 -->
<g id="node26" class="node"><title>StatMove0</title>
<ellipse fill="none" stroke="black" cx="293.945" cy="-306" rx="50.0912" ry="18"/>
<text text-anchor="middle" x="293.945" y="-302.3" font-family="Times,serif" font-size="14.00">StatMove0</text>
</g>
<!-- StatList0&#45;&gt;StatMove0 -->
<g id="edge17" class="edge"><title>StatList0&#45;&gt;StatMove0</title>
<path fill="none" stroke="black" d="M704.798,-370.91C624.52,-358.423 441.07,-329.886 348.914,-315.551"/>
<polygon fill="black" stroke="black" points="349.364,-312.079 338.945,-314 348.288,-318.995 349.364,-312.079"/>
</g>
<!-- StatMove1 -->
<g id="node27" class="node"><title>StatMove1</title>
<ellipse fill="none" stroke="black" cx="548.945" cy="-306" rx="50.0912" ry="18"/>
<text text-anchor="middle" x="548.945" y="-302.3" font-family="Times,serif" font-size="14.00">StatMove1</text>
</g>
<!-- StatList0&#45;&gt;StatMove1 -->
<g id="edge18" class="edge"><title>StatList0&#45;&gt;StatMove1</title>
<path fill="none" stroke="black" d="M712.615,-365.753C680.239,-354.131 629.431,-335.892 593.013,-322.819"/>
<polygon fill="black" stroke="black" points="593.745,-319.363 583.15,-319.279 591.38,-325.952 593.745,-319.363"/>
</g>
<!-- StatMove3 -->
<g id="node28" class="node"><title>StatMove3</title>
<ellipse fill="none" stroke="black" cx="935.945" cy="-306" rx="50.0912" ry="18"/>
<text text-anchor="middle" x="935.945" y="-302.3" font-family="Times,serif" font-size="14.00">StatMove3</text>
</g>
<!-- StatList0&#45;&gt;StatMove3 -->
<g id="edge20" class="edge"><title>StatList0&#45;&gt;StatMove3</title>
<path fill="none" stroke="black" d="M775.221,-365.597C807.079,-353.982 856.738,-335.878 892.427,-322.866"/>
<polygon fill="black" stroke="black" points="893.9,-326.055 902.096,-319.341 891.502,-319.478 893.9,-326.055"/>
</g>
<!-- StatMove4 -->
<g id="node29" class="node"><title>StatMove4</title>
<ellipse fill="none" stroke="black" cx="1197.95" cy="-306" rx="50.0912" ry="18"/>
<text text-anchor="middle" x="1197.95" y="-302.3" font-family="Times,serif" font-size="14.00">StatMove4</text>
</g>
<!-- StatList0&#45;&gt;StatMove4 -->
<g id="edge21" class="edge"><title>StatList0&#45;&gt;StatMove4</title>
<path fill="none" stroke="black" d="M783.046,-370.971C863.898,-358.505 1049.68,-329.861 1142.73,-315.514"/>
<polygon fill="black" stroke="black" points="1143.44,-318.946 1152.79,-313.962 1142.37,-312.027 1143.44,-318.946"/>
</g>
<!-- StatCJump0 -->
<g id="node30" class="node"><title>StatCJump0</title>
<ellipse fill="none" stroke="black" cx="1651.95" cy="-306" rx="53.8905" ry="18"/>
<text text-anchor="middle" x="1651.95" y="-302.3" font-family="Times,serif" font-size="14.00">StatCJump0</text>
</g>
<!-- StatList0&#45;&gt;StatCJump0 -->
<g id="edge22" class="edge"><title>StatList0&#45;&gt;StatCJump0</title>
<path fill="none" stroke="black" d="M785.32,-373.81C930.398,-362.626 1416.59,-325.144 1589.91,-311.782"/>
<polygon fill="black" stroke="black" points="1590.19,-315.271 1599.89,-311.013 1589.65,-308.292 1590.19,-315.271"/>
</g>
<!-- ExpTemp0 -->
<g id="node31" class="node"><title>ExpTemp0</title>
<ellipse fill="none" stroke="black" cx="175.945" cy="-234" rx="50.0912" ry="18"/>
<text text-anchor="middle" x="175.945" y="-230.3" font-family="Times,serif" font-size="14.00">ExpTemp0</text>
</g>
<!-- StatMove0&#45;&gt;ExpTemp0 -->
<g id="edge31" class="edge"><title>StatMove0&#45;&gt;ExpTemp0</title>
<path fill="none" stroke="black" d="M269.209,-290.326C251.823,-280.012 228.363,-266.095 209.322,-254.8"/>
<polygon fill="black" stroke="black" points="211.036,-251.747 200.649,-249.655 207.464,-257.767 211.036,-251.747"/>
</g>
<!-- ExpTemp1 -->
<g id="node40" class="node"><title>ExpTemp1</title>
<ellipse fill="none" stroke="black" cx="293.945" cy="-234" rx="50.0912" ry="18"/>
<text text-anchor="middle" x="293.945" y="-230.3" font-family="Times,serif" font-size="14.00">ExpTemp1</text>
</g>
<!-- StatMove0&#45;&gt;ExpTemp1 -->
<g id="edge32" class="edge"><title>StatMove0&#45;&gt;ExpTemp1</title>
<path fill="none" stroke="black" d="M293.945,-287.697C293.945,-279.983 293.945,-270.712 293.945,-262.112"/>
<polygon fill="black" stroke="black" points="297.445,-262.104 293.945,-252.104 290.445,-262.104 297.445,-262.104"/>
</g>
<!-- StatMove1&#45;&gt;ExpTemp2 -->
<g id="edge44" class="edge"><title>StatMove1&#45;&gt;ExpTemp2</title>
<path fill="none" stroke="black" d="M523.252,-290.496C504.797,-280.078 479.716,-265.919 459.506,-254.51"/>
<polygon fill="black" stroke="black" points="461.034,-251.354 450.605,-249.485 457.593,-257.449 461.034,-251.354"/>
</g>
<!-- ExpMem0 -->
<g id="node42" class="node"><title>ExpMem0</title>
<ellipse fill="none" stroke="black" cx="548.945" cy="-234" rx="48.9926" ry="18"/>
<text text-anchor="middle" x="548.945" y="-230.3" font-family="Times,serif" font-size="14.00">ExpMem0</text>
</g>
<!-- StatMove1&#45;&gt;ExpMem0 -->
<g id="edge45" class="edge"><title>StatMove1&#45;&gt;ExpMem0</title>
<path fill="none" stroke="black" d="M548.945,-287.697C548.945,-279.983 548.945,-270.712 548.945,-262.112"/>
<polygon fill="black" stroke="black" points="552.445,-262.104 548.945,-252.104 545.445,-262.104 552.445,-262.104"/>
</g>
<!-- ExpMem2 -->
<g id="node34" class="node"><title>ExpMem2</title>
<ellipse fill="none" stroke="black" cx="1059.95" cy="-234" rx="48.9926" ry="18"/>
<text text-anchor="middle" x="1059.95" y="-230.3" font-family="Times,serif" font-size="14.00">ExpMem2</text>
</g>
<!-- StatMove3&#45;&gt;ExpMem2 -->
<g id="edge52" class="edge"><title>StatMove3&#45;&gt;ExpMem2</title>
<path fill="none" stroke="black" d="M961.638,-290.496C980.093,-280.078 1005.17,-265.919 1025.38,-254.51"/>
<polygon fill="black" stroke="black" points="1027.3,-257.449 1034.29,-249.485 1023.86,-251.354 1027.3,-257.449"/>
</g>
<!-- ExpTemp6 -->
<g id="node51" class="node"><title>ExpTemp6</title>
<ellipse fill="none" stroke="black" cx="935.945" cy="-234" rx="50.0912" ry="18"/>
<text text-anchor="middle" x="935.945" y="-230.3" font-family="Times,serif" font-size="14.00">ExpTemp6</text>
</g>
<!-- StatMove3&#45;&gt;ExpTemp6 -->
<g id="edge51" class="edge"><title>StatMove3&#45;&gt;ExpTemp6</title>
<path fill="none" stroke="black" d="M935.945,-287.697C935.945,-279.983 935.945,-270.712 935.945,-262.112"/>
<polygon fill="black" stroke="black" points="939.445,-262.104 935.945,-252.104 932.445,-262.104 939.445,-262.104"/>
</g>
<!-- ExpCall0 -->
<g id="node33" class="node"><title>ExpCall0</title>
<ellipse fill="none" stroke="black" cx="1325.95" cy="-234" rx="44.393" ry="18"/>
<text text-anchor="middle" x="1325.95" y="-230.3" font-family="Times,serif" font-size="14.00">ExpCall0</text>
</g>
<!-- StatMove4&#45;&gt;ExpCall0 -->
<g id="edge34" class="edge"><title>StatMove4&#45;&gt;ExpCall0</title>
<path fill="none" stroke="black" d="M1224.16,-290.666C1243.65,-280.004 1270.44,-265.356 1291.64,-253.762"/>
<polygon fill="black" stroke="black" points="1293.55,-256.707 1300.64,-248.838 1290.19,-250.566 1293.55,-256.707"/>
</g>
<!-- ExpTemp8 -->
<g id="node41" class="node"><title>ExpTemp8</title>
<ellipse fill="none" stroke="black" cx="1197.95" cy="-234" rx="50.0912" ry="18"/>
<text text-anchor="middle" x="1197.95" y="-230.3" font-family="Times,serif" font-size="14.00">ExpTemp8</text>
</g>
<!-- StatMove4&#45;&gt;ExpTemp8 -->
<g id="edge33" class="edge"><title>StatMove4&#45;&gt;ExpTemp8</title>
<path fill="none" stroke="black" d="M1197.95,-287.697C1197.95,-279.983 1197.95,-270.712 1197.95,-262.112"/>
<polygon fill="black" stroke="black" points="1201.45,-262.104 1197.95,-252.104 1194.45,-262.104 1201.45,-262.104"/>
</g>
<!-- StatCJump0&#45;&gt;ExpConst2 -->
<g id="edge41" class="edge"><title>StatCJump0&#45;&gt;ExpConst2</title>
<path fill="none" stroke="black" d="M1666.64,-288.411C1674.36,-279.693 1683.97,-268.845 1692.5,-259.208"/>
<polygon fill="black" stroke="black" points="1695.35,-261.276 1699.36,-251.47 1690.11,-256.635 1695.35,-261.276"/>
</g>
<!-- ExpTemp12 -->
<g id="node36" class="node"><title>ExpTemp12</title>
<ellipse fill="none" stroke="black" cx="1590.95" cy="-234" rx="54.6905" ry="18"/>
<text text-anchor="middle" x="1590.95" y="-230.3" font-family="Times,serif" font-size="14.00">ExpTemp12</text>
</g>
<!-- StatCJump0&#45;&gt;ExpTemp12 -->
<g id="edge40" class="edge"><title>StatCJump0&#45;&gt;ExpTemp12</title>
<path fill="none" stroke="black" d="M1637.49,-288.411C1629.89,-279.693 1620.44,-268.845 1612.04,-259.208"/>
<polygon fill="black" stroke="black" points="1614.51,-256.71 1605.3,-251.47 1609.23,-261.309 1614.51,-256.71"/>
</g>
<!-- NE0 -->
<g id="node45" class="node"><title>NE0</title>
<ellipse fill="none" stroke="black" cx="1490.95" cy="-234" rx="27" ry="18"/>
<text text-anchor="middle" x="1490.95" y="-230.3" font-family="Times,serif" font-size="14.00">NE0</text>
</g>
<!-- StatCJump0&#45;&gt;NE0 -->
<g id="edge39" class="edge"><title>StatCJump0&#45;&gt;NE0</title>
<path fill="none" stroke="black" d="M1619.42,-291.628C1594.1,-281.119 1558.14,-265.971 1526.95,-252 1525.15,-251.195 1523.3,-250.358 1521.45,-249.507"/>
<polygon fill="black" stroke="black" points="1522.74,-246.25 1512.2,-245.21 1519.79,-252.598 1522.74,-246.25"/>
</g>
<!-- Label2: L24 -->
<g id="node46" class="node"><title>Label2: L24</title>
<ellipse fill="none" stroke="black" cx="1835.95" cy="-234" rx="53.8905" ry="18"/>
<text text-anchor="middle" x="1835.95" y="-230.3" font-family="Times,serif" font-size="14.00">Label2: L24</text>
</g>
<!-- StatCJump0&#45;&gt;Label2: L24 -->
<g id="edge42" class="edge"><title>StatCJump0&#45;&gt;Label2: L24</title>
<path fill="none" stroke="black" d="M1686.12,-291.998C1715.98,-280.639 1759.5,-264.082 1791.95,-251.737"/>
<polygon fill="black" stroke="black" points="1793.54,-254.878 1801.64,-248.051 1791.05,-248.336 1793.54,-254.878"/>
</g>
<!-- Label3: L25 -->
<g id="node47" class="node"><title>Label3: L25</title>
<ellipse fill="none" stroke="black" cx="1961.95" cy="-234" rx="53.8905" ry="18"/>
<text text-anchor="middle" x="1961.95" y="-230.3" font-family="Times,serif" font-size="14.00">Label3: L25</text>
</g>
<!-- StatCJump0&#45;&gt;Label3: L25 -->
<g id="edge43" class="edge"><title>StatCJump0&#45;&gt;Label3: L25</title>
<path fill="none" stroke="black" d="M1697.18,-296.032C1746.83,-286.016 1828.82,-268.972 1898.95,-252 1903.09,-250.996 1907.39,-249.919 1911.69,-248.812"/>
<polygon fill="black" stroke="black" points="1912.91,-252.112 1921.7,-246.197 1911.14,-245.34 1912.91,-252.112"/>
</g>
<!-- Temp0: T123 -->
<g id="node32" class="node"><title>Temp0: T123</title>
<ellipse fill="none" stroke="black" cx="141.945" cy="-162" rx="59.5901" ry="18"/>
<text text-anchor="middle" x="141.945" y="-158.3" font-family="Times,serif" font-size="14.00">Temp0: T123</text>
</g>
<!-- ExpTemp0&#45;&gt;Temp0: T123 -->
<g id="edge23" class="edge"><title>ExpTemp0&#45;&gt;Temp0: T123</title>
<path fill="none" stroke="black" d="M167.715,-216.055C163.847,-208.091 159.145,-198.411 154.821,-189.51"/>
<polygon fill="black" stroke="black" points="157.853,-187.741 150.336,-180.275 151.557,-190.8 157.853,-187.741"/>
</g>
<!-- ExpCall0&#45;&gt;ExpList0 -->
<g id="edge25" class="edge"><title>ExpCall0&#45;&gt;ExpList0</title>
<path fill="none" stroke="black" d="M1352.94,-219.503C1374.96,-208.49 1406.27,-192.84 1430.34,-180.802"/>
<polygon fill="black" stroke="black" points="1432.13,-183.821 1439.51,-176.218 1429,-177.56 1432.13,-183.821"/>
</g>
<!-- ExpCall0&#45;&gt;ExpName0 -->
<g id="edge24" class="edge"><title>ExpCall0&#45;&gt;ExpName0</title>
<path fill="none" stroke="black" d="M1325.95,-215.697C1325.95,-207.983 1325.95,-198.712 1325.95,-190.112"/>
<polygon fill="black" stroke="black" points="1329.45,-190.104 1325.95,-180.104 1322.45,-190.104 1329.45,-190.104"/>
</g>
<!-- ExpBinary1 -->
<g id="node35" class="node"><title>ExpBinary1</title>
<ellipse fill="none" stroke="black" cx="1066.95" cy="-162" rx="53.0913" ry="18"/>
<text text-anchor="middle" x="1066.95" y="-158.3" font-family="Times,serif" font-size="14.00">ExpBinary1</text>
</g>
<!-- ExpMem2&#45;&gt;ExpBinary1 -->
<g id="edge26" class="edge"><title>ExpMem2&#45;&gt;ExpBinary1</title>
<path fill="none" stroke="black" d="M1061.68,-215.697C1062.45,-207.983 1063.37,-198.712 1064.23,-190.112"/>
<polygon fill="black" stroke="black" points="1067.72,-190.403 1065.23,-180.104 1060.76,-189.706 1067.72,-190.403"/>
</g>
<!-- ExpBinary1&#45;&gt;ExpConst1 -->
<g id="edge38" class="edge"><title>ExpBinary1&#45;&gt;ExpConst1</title>
<path fill="none" stroke="black" d="M1085.27,-144.765C1095.71,-135.511 1108.96,-123.772 1120.41,-113.626"/>
<polygon fill="black" stroke="black" points="1122.83,-116.157 1127.99,-106.906 1118.19,-110.918 1122.83,-116.157"/>
</g>
<!-- ExpTemp7 -->
<g id="node43" class="node"><title>ExpTemp7</title>
<ellipse fill="none" stroke="black" cx="947.945" cy="-90" rx="50.0912" ry="18"/>
<text text-anchor="middle" x="947.945" y="-86.3" font-family="Times,serif" font-size="14.00">ExpTemp7</text>
</g>
<!-- ExpBinary1&#45;&gt;ExpTemp7 -->
<g id="edge36" class="edge"><title>ExpBinary1&#45;&gt;ExpTemp7</title>
<path fill="none" stroke="black" d="M1041.42,-145.983C1023.97,-135.718 1000.65,-122.004 981.673,-110.84"/>
<polygon fill="black" stroke="black" points="983.417,-107.805 973.023,-105.752 979.868,-113.839 983.417,-107.805"/>
</g>
<!-- Plus1 -->
<g id="node44" class="node"><title>Plus1</title>
<ellipse fill="none" stroke="black" cx="1046.95" cy="-90" rx="30.5947" ry="18"/>
<text text-anchor="middle" x="1046.95" y="-86.3" font-family="Times,serif" font-size="14.00">Plus1</text>
</g>
<!-- ExpBinary1&#45;&gt;Plus1 -->
<g id="edge37" class="edge"><title>ExpBinary1&#45;&gt;Plus1</title>
<path fill="none" stroke="black" d="M1062.1,-144.055C1059.84,-136.145 1057.1,-126.54 1054.57,-117.688"/>
<polygon fill="black" stroke="black" points="1057.85,-116.443 1051.74,-107.789 1051.12,-118.366 1057.85,-116.443"/>
</g>
<!-- Temp12: T111 -->
<g id="node37" class="node"><title>Temp12: T111</title>
<ellipse fill="none" stroke="black" cx="1590.95" cy="-162" rx="63.8893" ry="18"/>
<text text-anchor="middle" x="1590.95" y="-158.3" font-family="Times,serif" font-size="14.00">Temp12: T111</text>
</g>
<!-- ExpTemp12&#45;&gt;Temp12: T111 -->
<g id="edge27" class="edge"><title>ExpTemp12&#45;&gt;Temp12: T111</title>
<path fill="none" stroke="black" d="M1590.95,-215.697C1590.95,-207.983 1590.95,-198.712 1590.95,-190.112"/>
<polygon fill="black" stroke="black" points="1594.45,-190.104 1590.95,-180.104 1587.45,-190.104 1594.45,-190.104"/>
</g>
<!-- ExpBinary0 -->
<g id="node38" class="node"><title>ExpBinary0</title>
<ellipse fill="none" stroke="black" cx="548.945" cy="-162" rx="53.0913" ry="18"/>
<text text-anchor="middle" x="548.945" y="-158.3" font-family="Times,serif" font-size="14.00">ExpBinary0</text>
</g>
<!-- ExpBinary0&#45;&gt;ExpConst0 -->
<g id="edge30" class="edge"><title>ExpBinary0&#45;&gt;ExpConst0</title>
<path fill="none" stroke="black" d="M570.917,-145.465C584.726,-135.7 602.727,-122.972 617.855,-112.276"/>
<polygon fill="black" stroke="black" points="620.231,-114.882 626.376,-106.251 616.19,-109.167 620.231,-114.882"/>
</g>
<!-- ExpBinary0&#45;&gt;ExpTemp3 -->
<g id="edge28" class="edge"><title>ExpBinary0&#45;&gt;ExpTemp3</title>
<path fill="none" stroke="black" d="M526.974,-145.465C513.164,-135.7 495.163,-122.972 480.036,-112.276"/>
<polygon fill="black" stroke="black" points="481.7,-109.167 471.514,-106.251 477.659,-114.882 481.7,-109.167"/>
</g>
<!-- Plus0 -->
<g id="node39" class="node"><title>Plus0</title>
<ellipse fill="none" stroke="black" cx="548.945" cy="-90" rx="30.5947" ry="18"/>
<text text-anchor="middle" x="548.945" y="-86.3" font-family="Times,serif" font-size="14.00">Plus0</text>
</g>
<!-- ExpBinary0&#45;&gt;Plus0 -->
<g id="edge29" class="edge"><title>ExpBinary0&#45;&gt;Plus0</title>
<path fill="none" stroke="black" d="M548.945,-143.697C548.945,-135.983 548.945,-126.712 548.945,-118.112"/>
<polygon fill="black" stroke="black" points="552.445,-118.104 548.945,-108.104 545.445,-118.104 552.445,-118.104"/>
</g>
<!-- Temp1: T111 -->
<g id="node49" class="node"><title>Temp1: T111</title>
<ellipse fill="none" stroke="black" cx="279.945" cy="-162" rx="59.5901" ry="18"/>
<text text-anchor="middle" x="279.945" y="-158.3" font-family="Times,serif" font-size="14.00">Temp1: T111</text>
</g>
<!-- ExpTemp1&#45;&gt;Temp1: T111 -->
<g id="edge47" class="edge"><title>ExpTemp1&#45;&gt;Temp1: T111</title>
<path fill="none" stroke="black" d="M290.485,-215.697C288.942,-207.983 287.088,-198.712 285.368,-190.112"/>
<polygon fill="black" stroke="black" points="288.759,-189.224 283.366,-180.104 281.895,-190.597 288.759,-189.224"/>
</g>
<!-- Temp8: T123 -->
<g id="node48" class="node"><title>Temp8: T123</title>
<ellipse fill="none" stroke="black" cx="1197.95" cy="-162" rx="59.5901" ry="18"/>
<text text-anchor="middle" x="1197.95" y="-158.3" font-family="Times,serif" font-size="14.00">Temp8: T123</text>
</g>
<!-- ExpTemp8&#45;&gt;Temp8: T123 -->
<g id="edge46" class="edge"><title>ExpTemp8&#45;&gt;Temp8: T123</title>
<path fill="none" stroke="black" d="M1197.95,-215.697C1197.95,-207.983 1197.95,-198.712 1197.95,-190.112"/>
<polygon fill="black" stroke="black" points="1201.45,-190.104 1197.95,-180.104 1194.45,-190.104 1201.45,-190.104"/>
</g>
<!-- ExpMem0&#45;&gt;ExpBinary0 -->
<g id="edge35" class="edge"><title>ExpMem0&#45;&gt;ExpBinary0</title>
<path fill="none" stroke="black" d="M548.945,-215.697C548.945,-207.983 548.945,-198.712 548.945,-190.112"/>
<polygon fill="black" stroke="black" points="552.445,-190.104 548.945,-180.104 545.445,-190.104 552.445,-190.104"/>
</g>
<!-- Temp7: $fp -->
<g id="node55" class="node"><title>Temp7: $fp</title>
<ellipse fill="none" stroke="black" cx="947.945" cy="-18" rx="52.7911" ry="18"/>
<text text-anchor="middle" x="947.945" y="-14.3" font-family="Times,serif" font-size="14.00">Temp7: $fp</text>
</g>
<!-- ExpTemp7&#45;&gt;Temp7: $fp -->
<g id="edge54" class="edge"><title>ExpTemp7&#45;&gt;Temp7: $fp</title>
<path fill="none" stroke="black" d="M947.945,-71.6966C947.945,-63.9827 947.945,-54.7125 947.945,-46.1124"/>
<polygon fill="black" stroke="black" points="951.445,-46.1043 947.945,-36.1043 944.445,-46.1044 951.445,-46.1043"/>
</g>
<!-- Temp6: T122 -->
<g id="node52" class="node"><title>Temp6: T122</title>
<ellipse fill="none" stroke="black" cx="935.945" cy="-162" rx="59.5901" ry="18"/>
<text text-anchor="middle" x="935.945" y="-158.3" font-family="Times,serif" font-size="14.00">Temp6: T122</text>
</g>
<!-- ExpTemp6&#45;&gt;Temp6: T122 -->
<g id="edge49" class="edge"><title>ExpTemp6&#45;&gt;Temp6: T122</title>
<path fill="none" stroke="black" d="M935.945,-215.697C935.945,-207.983 935.945,-198.712 935.945,-190.112"/>
<polygon fill="black" stroke="black" points="939.445,-190.104 935.945,-180.104 932.445,-190.104 939.445,-190.104"/>
</g>
</g>
</svg>
