<?xml version="1.0" encoding="UTF-8" standalone="no"?>
<!DOCTYPE svg PUBLIC "-//W3C//DTD SVG 1.1//EN"
 "http://www.w3.org/Graphics/SVG/1.1/DTD/svg11.dtd">
<!-- Generated by graphviz version 2.38.0 (20140413.2041)
 -->
<!-- Title: %3 Pages: 1 -->
<svg width="997pt" height="404pt"
 viewBox="0.00 0.00 997.14 404.00" xmlns="http://www.w3.org/2000/svg" xmlns:xlink="http://www.w3.org/1999/xlink">
<g id="graph0" class="graph" transform="scale(1 1) rotate(0) translate(4 400)">
<title>%3</title>
<polygon fill="white" stroke="none" points="-4,4 -4,-400 993.139,-400 993.139,4 -4,4"/>
<!-- ExpBinary2 -->
<g id="node1" class="node"><title>ExpBinary2</title>
<ellipse fill="none" stroke="black" cx="790.093" cy="-162" rx="53.0913" ry="18"/>
<text text-anchor="middle" x="790.093" y="-158.3" font-family="Times,serif" font-size="14.00">ExpBinary2</text>
</g>
<!-- ExpTemp2 -->
<g id="node2" class="node"><title>ExpTemp2</title>
<ellipse fill="none" stroke="black" cx="741.093" cy="-90" rx="50.0912" ry="18"/>
<text text-anchor="middle" x="741.093" y="-86.3" font-family="Times,serif" font-size="14.00">ExpTemp2</text>
</g>
<!-- ExpBinary2&#45;&gt;ExpTemp2 -->
<g id="edge1" class="edge"><title>ExpBinary2&#45;&gt;ExpTemp2</title>
<path fill="none" stroke="black" d="M778.481,-144.411C772.587,-135.992 765.303,-125.585 758.734,-116.201"/>
<polygon fill="black" stroke="black" points="761.565,-114.141 752.963,-107.956 755.83,-118.156 761.565,-114.141"/>
</g>
<!-- Plus2 -->
<g id="node3" class="node"><title>Plus2</title>
<ellipse fill="none" stroke="black" cx="840.093" cy="-90" rx="30.5947" ry="18"/>
<text text-anchor="middle" x="840.093" y="-86.3" font-family="Times,serif" font-size="14.00">Plus2</text>
</g>
<!-- ExpBinary2&#45;&gt;Plus2 -->
<g id="edge2" class="edge"><title>ExpBinary2&#45;&gt;Plus2</title>
<path fill="none" stroke="black" d="M801.943,-144.411C808.134,-135.744 815.828,-124.971 822.682,-115.375"/>
<polygon fill="black" stroke="black" points="825.709,-117.16 828.673,-106.988 820.013,-113.091 825.709,-117.16"/>
</g>
<!-- ExpConst3 -->
<g id="node4" class="node"><title>ExpConst3</title>
<ellipse fill="none" stroke="black" cx="939.093" cy="-90" rx="50.0912" ry="18"/>
<text text-anchor="middle" x="939.093" y="-86.3" font-family="Times,serif" font-size="14.00">ExpConst3</text>
</g>
<!-- ExpBinary2&#45;&gt;ExpConst3 -->
<g id="edge3" class="edge"><title>ExpBinary2&#45;&gt;ExpConst3</title>
<path fill="none" stroke="black" d="M819.888,-147.003C843.082,-136.106 875.45,-120.9 900.605,-109.082"/>
<polygon fill="black" stroke="black" points="902.296,-112.155 909.859,-104.734 899.319,-105.819 902.296,-112.155"/>
</g>
<!-- Temp2: $fp -->
<g id="node5" class="node"><title>Temp2: $fp</title>
<ellipse fill="none" stroke="black" cx="741.093" cy="-18" rx="52.7911" ry="18"/>
<text text-anchor="middle" x="741.093" y="-14.3" font-family="Times,serif" font-size="14.00">Temp2: $fp</text>
</g>
<!-- ExpTemp2&#45;&gt;Temp2: $fp -->
<g id="edge4" class="edge"><title>ExpTemp2&#45;&gt;Temp2: $fp</title>
<path fill="none" stroke="black" d="M741.093,-71.6966C741.093,-63.9827 741.093,-54.7125 741.093,-46.1124"/>
<polygon fill="black" stroke="black" points="744.594,-46.1043 741.093,-36.1043 737.594,-46.1044 744.594,-46.1043"/>
</g>
<!-- Value3: 8 -->
<g id="node6" class="node"><title>Value3: 8</title>
<ellipse fill="none" stroke="black" cx="939.093" cy="-18" rx="45.4919" ry="18"/>
<text text-anchor="middle" x="939.093" y="-14.3" font-family="Times,serif" font-size="14.00">Value3: 8</text>
</g>
<!-- ExpConst3&#45;&gt;Value3: 8 -->
<g id="edge5" class="edge"><title>ExpConst3&#45;&gt;Value3: 8</title>
<path fill="none" stroke="black" d="M939.093,-71.6966C939.093,-63.9827 939.093,-54.7125 939.093,-46.1124"/>
<polygon fill="black" stroke="black" points="942.594,-46.1043 939.093,-36.1043 935.594,-46.1044 942.594,-46.1043"/>
</g>
<!-- ExpConst2 -->
<g id="node7" class="node"><title>ExpConst2</title>
<ellipse fill="none" stroke="black" cx="623.093" cy="-90" rx="50.0912" ry="18"/>
<text text-anchor="middle" x="623.093" y="-86.3" font-family="Times,serif" font-size="14.00">ExpConst2</text>
</g>
<!-- Value2: 4 -->
<g id="node8" class="node"><title>Value2: 4</title>
<ellipse fill="none" stroke="black" cx="623.093" cy="-18" rx="45.4919" ry="18"/>
<text text-anchor="middle" x="623.093" y="-14.3" font-family="Times,serif" font-size="14.00">Value2: 4</text>
</g>
<!-- ExpConst2&#45;&gt;Value2: 4 -->
<g id="edge6" class="edge"><title>ExpConst2&#45;&gt;Value2: 4</title>
<path fill="none" stroke="black" d="M623.093,-71.6966C623.093,-63.9827 623.093,-54.7125 623.093,-46.1124"/>
<polygon fill="black" stroke="black" points="626.594,-46.1043 623.093,-36.1043 619.594,-46.1044 626.594,-46.1043"/>
</g>
<!-- ExpBinary0 -->
<g id="node9" class="node"><title>ExpBinary0</title>
<ellipse fill="none" stroke="black" cx="210.093" cy="-162" rx="53.0913" ry="18"/>
<text text-anchor="middle" x="210.093" y="-158.3" font-family="Times,serif" font-size="14.00">ExpBinary0</text>
</g>
<!-- ExpTemp0 -->
<g id="node10" class="node"><title>ExpTemp0</title>
<ellipse fill="none" stroke="black" cx="108.093" cy="-90" rx="50.0912" ry="18"/>
<text text-anchor="middle" x="108.093" y="-86.3" font-family="Times,serif" font-size="14.00">ExpTemp0</text>
</g>
<!-- ExpBinary0&#45;&gt;ExpTemp0 -->
<g id="edge7" class="edge"><title>ExpBinary0&#45;&gt;ExpTemp0</title>
<path fill="none" stroke="black" d="M187.709,-145.638C173.36,-135.791 154.542,-122.876 138.804,-112.076"/>
<polygon fill="black" stroke="black" points="140.651,-109.099 130.426,-106.326 136.69,-114.87 140.651,-109.099"/>
</g>
<!-- Plus0 -->
<g id="node11" class="node"><title>Plus0</title>
<ellipse fill="none" stroke="black" cx="207.093" cy="-90" rx="30.5947" ry="18"/>
<text text-anchor="middle" x="207.093" y="-86.3" font-family="Times,serif" font-size="14.00">Plus0</text>
</g>
<!-- ExpBinary0&#45;&gt;Plus0 -->
<g id="edge8" class="edge"><title>ExpBinary0&#45;&gt;Plus0</title>
<path fill="none" stroke="black" d="M209.352,-143.697C209.021,-135.983 208.624,-126.712 208.255,-118.112"/>
<polygon fill="black" stroke="black" points="211.752,-117.945 207.826,-108.104 204.758,-118.245 211.752,-117.945"/>
</g>
<!-- ExpConst0 -->
<g id="node12" class="node"><title>ExpConst0</title>
<ellipse fill="none" stroke="black" cx="306.093" cy="-90" rx="50.0912" ry="18"/>
<text text-anchor="middle" x="306.093" y="-86.3" font-family="Times,serif" font-size="14.00">ExpConst0</text>
</g>
<!-- ExpBinary0&#45;&gt;ExpConst0 -->
<g id="edge9" class="edge"><title>ExpBinary0&#45;&gt;ExpConst0</title>
<path fill="none" stroke="black" d="M231.399,-145.465C244.698,-135.768 262.005,-123.148 276.611,-112.498"/>
<polygon fill="black" stroke="black" points="278.829,-115.212 284.847,-106.492 274.705,-109.556 278.829,-115.212"/>
</g>
<!-- Temp0: $fp -->
<g id="node17" class="node"><title>Temp0: $fp</title>
<ellipse fill="none" stroke="black" cx="108.093" cy="-18" rx="52.7911" ry="18"/>
<text text-anchor="middle" x="108.093" y="-14.3" font-family="Times,serif" font-size="14.00">Temp0: $fp</text>
</g>
<!-- ExpTemp0&#45;&gt;Temp0: $fp -->
<g id="edge13" class="edge"><title>ExpTemp0&#45;&gt;Temp0: $fp</title>
<path fill="none" stroke="black" d="M108.093,-71.6966C108.093,-63.9827 108.093,-54.7125 108.093,-46.1124"/>
<polygon fill="black" stroke="black" points="111.594,-46.1043 108.093,-36.1043 104.594,-46.1044 111.594,-46.1043"/>
</g>
<!-- Value0: 24 -->
<g id="node24" class="node"><title>Value0: 24</title>
<ellipse fill="none" stroke="black" cx="305.093" cy="-18" rx="50.0912" ry="18"/>
<text text-anchor="middle" x="305.093" y="-14.3" font-family="Times,serif" font-size="14.00">Value0: 24</text>
</g>
<!-- ExpConst0&#45;&gt;Value0: 24 -->
<g id="edge19" class="edge"><title>ExpConst0&#45;&gt;Value0: 24</title>
<path fill="none" stroke="black" d="M305.846,-71.6966C305.736,-63.9827 305.604,-54.7125 305.481,-46.1124"/>
<polygon fill="black" stroke="black" points="308.98,-46.0533 305.338,-36.1043 301.981,-46.1533 308.98,-46.0533"/>
</g>
<!-- StatMove0 -->
<g id="node13" class="node"><title>StatMove0</title>
<ellipse fill="none" stroke="black" cx="273.093" cy="-306" rx="50.0912" ry="18"/>
<text text-anchor="middle" x="273.093" y="-302.3" font-family="Times,serif" font-size="14.00">StatMove0</text>
</g>
<!-- ExpMem0 -->
<g id="node14" class="node"><title>ExpMem0</title>
<ellipse fill="none" stroke="black" cx="215.093" cy="-234" rx="48.9926" ry="18"/>
<text text-anchor="middle" x="215.093" y="-230.3" font-family="Times,serif" font-size="14.00">ExpMem0</text>
</g>
<!-- StatMove0&#45;&gt;ExpMem0 -->
<g id="edge10" class="edge"><title>StatMove0&#45;&gt;ExpMem0</title>
<path fill="none" stroke="black" d="M259.348,-288.411C252.125,-279.693 243.137,-268.845 235.151,-259.208"/>
<polygon fill="black" stroke="black" points="237.815,-256.937 228.74,-251.47 232.425,-261.403 237.815,-256.937"/>
</g>
<!-- ExpConst1 -->
<g id="node15" class="node"><title>ExpConst1</title>
<ellipse fill="none" stroke="black" cx="332.093" cy="-234" rx="50.0912" ry="18"/>
<text text-anchor="middle" x="332.093" y="-230.3" font-family="Times,serif" font-size="14.00">ExpConst1</text>
</g>
<!-- StatMove0&#45;&gt;ExpConst1 -->
<g id="edge11" class="edge"><title>StatMove0&#45;&gt;ExpConst1</title>
<path fill="none" stroke="black" d="M287.076,-288.411C294.423,-279.693 303.567,-268.845 311.69,-259.208"/>
<polygon fill="black" stroke="black" points="314.443,-261.372 318.212,-251.47 309.091,-256.861 314.443,-261.372"/>
</g>
<!-- ExpMem0&#45;&gt;ExpBinary0 -->
<g id="edge23" class="edge"><title>ExpMem0&#45;&gt;ExpBinary0</title>
<path fill="none" stroke="black" d="M213.857,-215.697C213.306,-207.983 212.644,-198.712 212.03,-190.112"/>
<polygon fill="black" stroke="black" points="215.519,-189.83 211.315,-180.104 208.537,-190.328 215.519,-189.83"/>
</g>
<!-- Value1: 0 -->
<g id="node27" class="node"><title>Value1: 0</title>
<ellipse fill="none" stroke="black" cx="332.093" cy="-162" rx="45.4919" ry="18"/>
<text text-anchor="middle" x="332.093" y="-158.3" font-family="Times,serif" font-size="14.00">Value1: 0</text>
</g>
<!-- ExpConst1&#45;&gt;Value1: 0 -->
<g id="edge24" class="edge"><title>ExpConst1&#45;&gt;Value1: 0</title>
<path fill="none" stroke="black" d="M332.093,-215.697C332.093,-207.983 332.093,-198.712 332.093,-190.112"/>
<polygon fill="black" stroke="black" points="335.594,-190.104 332.093,-180.104 328.594,-190.104 335.594,-190.104"/>
</g>
<!-- ExpMem2 -->
<g id="node16" class="node"><title>ExpMem2</title>
<ellipse fill="none" stroke="black" cx="639.093" cy="-234" rx="48.9926" ry="18"/>
<text text-anchor="middle" x="639.093" y="-230.3" font-family="Times,serif" font-size="14.00">ExpMem2</text>
</g>
<!-- ExpMem2&#45;&gt;ExpBinary2 -->
<g id="edge12" class="edge"><title>ExpMem2&#45;&gt;ExpBinary2</title>
<path fill="none" stroke="black" d="M668.208,-219.503C691.717,-208.605 725.022,-193.166 750.878,-181.179"/>
<polygon fill="black" stroke="black" points="752.434,-184.316 760.035,-176.934 749.49,-177.965 752.434,-184.316"/>
</g>
<!-- StatList0 -->
<g id="node18" class="node"><title>StatList0</title>
<ellipse fill="none" stroke="black" cx="273.093" cy="-378" rx="42.4939" ry="18"/>
<text text-anchor="middle" x="273.093" y="-374.3" font-family="Times,serif" font-size="14.00">StatList0</text>
</g>
<!-- StatList0&#45;&gt;StatMove0 -->
<g id="edge15" class="edge"><title>StatList0&#45;&gt;StatMove0</title>
<path fill="none" stroke="black" d="M273.093,-359.697C273.093,-351.983 273.093,-342.712 273.093,-334.112"/>
<polygon fill="black" stroke="black" points="276.594,-334.104 273.093,-324.104 269.594,-334.104 276.594,-334.104"/>
</g>
<!-- StatLabel0 -->
<g id="node19" class="node"><title>StatLabel0</title>
<ellipse fill="none" stroke="black" cx="144.093" cy="-306" rx="48.9926" ry="18"/>
<text text-anchor="middle" x="144.093" y="-302.3" font-family="Times,serif" font-size="14.00">StatLabel0</text>
</g>
<!-- StatList0&#45;&gt;StatLabel0 -->
<g id="edge14" class="edge"><title>StatList0&#45;&gt;StatLabel0</title>
<path fill="none" stroke="black" d="M247.915,-363.337C228.411,-352.754 201.15,-337.961 179.457,-326.189"/>
<polygon fill="black" stroke="black" points="180.998,-323.044 170.539,-321.35 177.659,-329.196 180.998,-323.044"/>
</g>
<!-- StatCJump0 -->
<g id="node20" class="node"><title>StatCJump0</title>
<ellipse fill="none" stroke="black" cx="581.093" cy="-306" rx="53.8905" ry="18"/>
<text text-anchor="middle" x="581.093" y="-302.3" font-family="Times,serif" font-size="14.00">StatCJump0</text>
</g>
<!-- StatList0&#45;&gt;StatCJump0 -->
<g id="edge16" class="edge"><title>StatList0&#45;&gt;StatCJump0</title>
<path fill="none" stroke="black" d="M309.635,-368.695C363.748,-356.397 465.5,-333.271 527.89,-319.092"/>
<polygon fill="black" stroke="black" points="528.953,-322.439 537.929,-316.81 527.402,-315.613 528.953,-322.439"/>
</g>
<!-- Label0: QS@Sort -->
<g id="node21" class="node"><title>Label0: QS@Sort</title>
<ellipse fill="none" stroke="black" cx="74.0934" cy="-234" rx="74.187" ry="18"/>
<text text-anchor="middle" x="74.0934" y="-230.3" font-family="Times,serif" font-size="14.00">Label0: QS@Sort</text>
</g>
<!-- StatLabel0&#45;&gt;Label0: QS@Sort -->
<g id="edge17" class="edge"><title>StatLabel0&#45;&gt;Label0: QS@Sort</title>
<path fill="none" stroke="black" d="M127.858,-288.765C118.975,-279.882 107.803,-268.709 97.9472,-258.854"/>
<polygon fill="black" stroke="black" points="100.273,-256.23 90.7268,-251.633 95.323,-261.179 100.273,-256.23"/>
</g>
<!-- StatCJump0&#45;&gt;ExpMem2 -->
<g id="edge27" class="edge"><title>StatCJump0&#45;&gt;ExpMem2</title>
<path fill="none" stroke="black" d="M594.839,-288.411C602.062,-279.693 611.05,-268.845 619.036,-259.208"/>
<polygon fill="black" stroke="black" points="621.762,-261.403 625.447,-251.47 616.372,-256.937 621.762,-261.403"/>
</g>
<!-- ExpMem1 -->
<g id="node22" class="node"><title>ExpMem1</title>
<ellipse fill="none" stroke="black" cx="524.093" cy="-234" rx="48.9926" ry="18"/>
<text text-anchor="middle" x="524.093" y="-230.3" font-family="Times,serif" font-size="14.00">ExpMem1</text>
</g>
<!-- StatCJump0&#45;&gt;ExpMem1 -->
<g id="edge26" class="edge"><title>StatCJump0&#45;&gt;ExpMem1</title>
<path fill="none" stroke="black" d="M567.585,-288.411C560.558,-279.781 551.83,-269.062 544.041,-259.497"/>
<polygon fill="black" stroke="black" points="546.533,-257.014 537.505,-251.47 541.105,-261.434 546.533,-257.014"/>
</g>
<!-- LT0 -->
<g id="node28" class="node"><title>LT0</title>
<ellipse fill="none" stroke="black" cx="430.093" cy="-234" rx="27" ry="18"/>
<text text-anchor="middle" x="430.093" y="-230.3" font-family="Times,serif" font-size="14.00">LT0</text>
</g>
<!-- StatCJump0&#45;&gt;LT0 -->
<g id="edge25" class="edge"><title>StatCJump0&#45;&gt;LT0</title>
<path fill="none" stroke="black" d="M550.307,-290.906C527.127,-280.271 494.582,-265.291 466.093,-252 464.308,-251.167 462.474,-250.309 460.625,-249.442"/>
<polygon fill="black" stroke="black" points="461.937,-246.191 451.398,-245.101 458.957,-252.525 461.937,-246.191"/>
</g>
<!-- Label1: L18 -->
<g id="node29" class="node"><title>Label1: L18</title>
<ellipse fill="none" stroke="black" cx="760.093" cy="-234" rx="53.8905" ry="18"/>
<text text-anchor="middle" x="760.093" y="-230.3" font-family="Times,serif" font-size="14.00">Label1: L18</text>
</g>
<!-- StatCJump0&#45;&gt;Label1: L18 -->
<g id="edge28" class="edge"><title>StatCJump0&#45;&gt;Label1: L18</title>
<path fill="none" stroke="black" d="M614.762,-291.834C643.764,-280.492 685.789,-264.057 717.196,-251.776"/>
<polygon fill="black" stroke="black" points="718.537,-255.009 726.576,-248.107 715.988,-248.49 718.537,-255.009"/>
</g>
<!-- Label2: L19 -->
<g id="node30" class="node"><title>Label2: L19</title>
<ellipse fill="none" stroke="black" cx="886.093" cy="-234" rx="53.8905" ry="18"/>
<text text-anchor="middle" x="886.093" y="-230.3" font-family="Times,serif" font-size="14.00">Label2: L19</text>
</g>
<!-- StatCJump0&#45;&gt;Label2: L19 -->
<g id="edge29" class="edge"><title>StatCJump0&#45;&gt;Label2: L19</title>
<path fill="none" stroke="black" d="M625.844,-295.87C674.527,-285.782 754.572,-268.738 823.093,-252 827.241,-250.987 831.533,-249.904 835.836,-248.793"/>
<polygon fill="black" stroke="black" points="837.052,-252.092 845.837,-246.171 835.277,-245.321 837.052,-252.092"/>
</g>
<!-- ExpBinary1 -->
<g id="node23" class="node"><title>ExpBinary1</title>
<ellipse fill="none" stroke="black" cx="524.093" cy="-162" rx="53.0913" ry="18"/>
<text text-anchor="middle" x="524.093" y="-158.3" font-family="Times,serif" font-size="14.00">ExpBinary1</text>
</g>
<!-- ExpMem1&#45;&gt;ExpBinary1 -->
<g id="edge18" class="edge"><title>ExpMem1&#45;&gt;ExpBinary1</title>
<path fill="none" stroke="black" d="M524.093,-215.697C524.093,-207.983 524.093,-198.712 524.093,-190.112"/>
<polygon fill="black" stroke="black" points="527.594,-190.104 524.093,-180.104 520.594,-190.104 527.594,-190.104"/>
</g>
<!-- ExpBinary1&#45;&gt;ExpConst2 -->
<g id="edge22" class="edge"><title>ExpBinary1&#45;&gt;ExpConst2</title>
<path fill="none" stroke="black" d="M546.065,-145.465C559.874,-135.7 577.875,-122.972 593.003,-112.276"/>
<polygon fill="black" stroke="black" points="595.38,-114.882 601.524,-106.251 591.338,-109.167 595.38,-114.882"/>
</g>
<!-- ExpTemp1 -->
<g id="node25" class="node"><title>ExpTemp1</title>
<ellipse fill="none" stroke="black" cx="425.093" cy="-90" rx="50.0912" ry="18"/>
<text text-anchor="middle" x="425.093" y="-86.3" font-family="Times,serif" font-size="14.00">ExpTemp1</text>
</g>
<!-- ExpBinary1&#45;&gt;ExpTemp1 -->
<g id="edge20" class="edge"><title>ExpBinary1&#45;&gt;ExpTemp1</title>
<path fill="none" stroke="black" d="M502.122,-145.465C488.312,-135.7 470.311,-122.972 455.184,-112.276"/>
<polygon fill="black" stroke="black" points="456.848,-109.167 446.663,-106.251 452.807,-114.882 456.848,-109.167"/>
</g>
<!-- Plus1 -->
<g id="node26" class="node"><title>Plus1</title>
<ellipse fill="none" stroke="black" cx="524.093" cy="-90" rx="30.5947" ry="18"/>
<text text-anchor="middle" x="524.093" y="-86.3" font-family="Times,serif" font-size="14.00">Plus1</text>
</g>
<!-- ExpBinary1&#45;&gt;Plus1 -->
<g id="edge21" class="edge"><title>ExpBinary1&#45;&gt;Plus1</title>
<path fill="none" stroke="black" d="M524.093,-143.697C524.093,-135.983 524.093,-126.712 524.093,-118.112"/>
<polygon fill="black" stroke="black" points="527.594,-118.104 524.093,-108.104 520.594,-118.104 527.594,-118.104"/>
</g>
<!-- Temp1: $fp -->
<g id="node31" class="node"><title>Temp1: $fp</title>
<ellipse fill="none" stroke="black" cx="426.093" cy="-18" rx="52.7911" ry="18"/>
<text text-anchor="middle" x="426.093" y="-14.3" font-family="Times,serif" font-size="14.00">Temp1: $fp</text>
</g>
<!-- ExpTemp1&#45;&gt;Temp1: $fp -->
<g id="edge30" class="edge"><title>ExpTemp1&#45;&gt;Temp1: $fp</title>
<path fill="none" stroke="black" d="M425.341,-71.6966C425.451,-63.9827 425.583,-54.7125 425.706,-46.1124"/>
<polygon fill="black" stroke="black" points="429.206,-46.1533 425.849,-36.1043 422.206,-46.0533 429.206,-46.1533"/>
</g>
</g>
</svg>
