<?xml version="1.0" encoding="UTF-8" standalone="no"?>
<!DOCTYPE svg PUBLIC "-//W3C//DTD SVG 1.1//EN"
 "http://www.w3.org/Graphics/SVG/1.1/DTD/svg11.dtd">
<!-- Generated by graphviz version 2.38.0 (20140413.2041)
 -->
<!-- Title: %3 Pages: 1 -->
<svg width="352pt" height="260pt"
 viewBox="0.00 0.00 351.99 260.00" xmlns="http://www.w3.org/2000/svg" xmlns:xlink="http://www.w3.org/1999/xlink">
<g id="graph0" class="graph" transform="scale(1 1) rotate(0) translate(4 256)">
<title>%3</title>
<polygon fill="white" stroke="none" points="-4,4 -4,-256 347.991,-256 347.991,4 -4,4"/>
<!-- ExpConst0 -->
<g id="node1" class="node"><title>ExpConst0</title>
<ellipse fill="none" stroke="black" cx="293.945" cy="-90" rx="50.0912" ry="18"/>
<text text-anchor="middle" x="293.945" y="-86.3" font-family="Times,serif" font-size="14.00">ExpConst0</text>
</g>
<!-- Value0: 0 -->
<g id="node2" class="node"><title>Value0: 0</title>
<ellipse fill="none" stroke="black" cx="293.945" cy="-18" rx="45.4919" ry="18"/>
<text text-anchor="middle" x="293.945" y="-14.3" font-family="Times,serif" font-size="14.00">Value0: 0</text>
</g>
<!-- ExpConst0&#45;&gt;Value0: 0 -->
<g id="edge1" class="edge"><title>ExpConst0&#45;&gt;Value0: 0</title>
<path fill="none" stroke="black" d="M293.945,-71.6966C293.945,-63.9827 293.945,-54.7125 293.945,-46.1124"/>
<polygon fill="black" stroke="black" points="297.445,-46.1043 293.945,-36.1043 290.445,-46.1044 297.445,-46.1043"/>
</g>
<!-- StatLabel0 -->
<g id="node3" class="node"><title>StatLabel0</title>
<ellipse fill="none" stroke="black" cx="56.9452" cy="-162" rx="48.9926" ry="18"/>
<text text-anchor="middle" x="56.9452" y="-158.3" font-family="Times,serif" font-size="14.00">StatLabel0</text>
</g>
<!-- Label0: L20 -->
<g id="node4" class="node"><title>Label0: L20</title>
<ellipse fill="none" stroke="black" cx="53.9452" cy="-90" rx="53.8905" ry="18"/>
<text text-anchor="middle" x="53.9452" y="-86.3" font-family="Times,serif" font-size="14.00">Label0: L20</text>
</g>
<!-- StatLabel0&#45;&gt;Label0: L20 -->
<g id="edge2" class="edge"><title>StatLabel0&#45;&gt;Label0: L20</title>
<path fill="none" stroke="black" d="M56.2036,-143.697C55.873,-135.983 55.4757,-126.712 55.1072,-118.112"/>
<polygon fill="black" stroke="black" points="58.6033,-117.945 54.6783,-108.104 51.6097,-118.245 58.6033,-117.945"/>
</g>
<!-- StatList0 -->
<g id="node5" class="node"><title>StatList0</title>
<ellipse fill="none" stroke="black" cx="115.945" cy="-234" rx="42.4939" ry="18"/>
<text text-anchor="middle" x="115.945" y="-230.3" font-family="Times,serif" font-size="14.00">StatList0</text>
</g>
<!-- StatList0&#45;&gt;StatLabel0 -->
<g id="edge3" class="edge"><title>StatList0&#45;&gt;StatLabel0</title>
<path fill="none" stroke="black" d="M102.261,-216.765C94.921,-208.056 85.726,-197.147 77.5404,-187.435"/>
<polygon fill="black" stroke="black" points="80.0858,-185.024 70.9648,-179.633 74.7333,-189.535 80.0858,-185.024"/>
</g>
<!-- StatMove0 -->
<g id="node6" class="node"><title>StatMove0</title>
<ellipse fill="none" stroke="black" cx="175.945" cy="-162" rx="50.0912" ry="18"/>
<text text-anchor="middle" x="175.945" y="-158.3" font-family="Times,serif" font-size="14.00">StatMove0</text>
</g>
<!-- StatList0&#45;&gt;StatMove0 -->
<g id="edge4" class="edge"><title>StatList0&#45;&gt;StatMove0</title>
<path fill="none" stroke="black" d="M129.861,-216.765C137.326,-208.056 146.677,-197.147 155.001,-187.435"/>
<polygon fill="black" stroke="black" points="157.837,-189.504 161.688,-179.633 152.523,-184.948 157.837,-189.504"/>
</g>
<!-- StatMove0&#45;&gt;ExpConst0 -->
<g id="edge7" class="edge"><title>StatMove0&#45;&gt;ExpConst0</title>
<path fill="none" stroke="black" d="M200.682,-146.326C218.068,-136.012 241.528,-122.095 260.569,-110.8"/>
<polygon fill="black" stroke="black" points="262.426,-113.767 269.241,-105.655 258.855,-107.747 262.426,-113.767"/>
</g>
<!-- ExpTemp0 -->
<g id="node7" class="node"><title>ExpTemp0</title>
<ellipse fill="none" stroke="black" cx="175.945" cy="-90" rx="50.0912" ry="18"/>
<text text-anchor="middle" x="175.945" y="-86.3" font-family="Times,serif" font-size="14.00">ExpTemp0</text>
</g>
<!-- StatMove0&#45;&gt;ExpTemp0 -->
<g id="edge6" class="edge"><title>StatMove0&#45;&gt;ExpTemp0</title>
<path fill="none" stroke="black" d="M175.945,-143.697C175.945,-135.983 175.945,-126.712 175.945,-118.112"/>
<polygon fill="black" stroke="black" points="179.445,-118.104 175.945,-108.104 172.445,-118.104 179.445,-118.104"/>
</g>
<!-- Temp0: $rv -->
<g id="node8" class="node"><title>Temp0: $rv</title>
<ellipse fill="none" stroke="black" cx="175.945" cy="-18" rx="52.7911" ry="18"/>
<text text-anchor="middle" x="175.945" y="-14.3" font-family="Times,serif" font-size="14.00">Temp0: $rv</text>
</g>
<!-- ExpTemp0&#45;&gt;Temp0: $rv -->
<g id="edge5" class="edge"><title>ExpTemp0&#45;&gt;Temp0: $rv</title>
<path fill="none" stroke="black" d="M175.945,-71.6966C175.945,-63.9827 175.945,-54.7125 175.945,-46.1124"/>
<polygon fill="black" stroke="black" points="179.445,-46.1043 175.945,-36.1043 172.445,-46.1044 179.445,-46.1043"/>
</g>
</g>
</svg>
