<?xml version="1.0" encoding="UTF-8" standalone="no"?>
<!DOCTYPE svg PUBLIC "-//W3C//DTD SVG 1.1//EN"
 "http://www.w3.org/Graphics/SVG/1.1/DTD/svg11.dtd">
<!-- Generated by graphviz version 2.38.0 (20140413.2041)
 -->
<!-- Title: %3 Pages: 1 -->
<svg width="468pt" height="404pt"
 viewBox="0.00 0.00 467.99 404.00" xmlns="http://www.w3.org/2000/svg" xmlns:xlink="http://www.w3.org/1999/xlink">
<g id="graph0" class="graph" transform="scale(1 1) rotate(0) translate(4 400)">
<title>%3</title>
<polygon fill="white" stroke="none" points="-4,4 -4,-400 463.991,-400 463.991,4 -4,4"/>
<!-- ExpConst1 -->
<g id="node1" class="node"><title>ExpConst1</title>
<ellipse fill="none" stroke="black" cx="291.945" cy="-234" rx="50.0912" ry="18"/>
<text text-anchor="middle" x="291.945" y="-230.3" font-family="Times,serif" font-size="14.00">ExpConst1</text>
</g>
<!-- Value1: 1 -->
<g id="node2" class="node"><title>Value1: 1</title>
<ellipse fill="none" stroke="black" cx="291.945" cy="-162" rx="45.4919" ry="18"/>
<text text-anchor="middle" x="291.945" y="-158.3" font-family="Times,serif" font-size="14.00">Value1: 1</text>
</g>
<!-- ExpConst1&#45;&gt;Value1: 1 -->
<g id="edge1" class="edge"><title>ExpConst1&#45;&gt;Value1: 1</title>
<path fill="none" stroke="black" d="M291.945,-215.697C291.945,-207.983 291.945,-198.712 291.945,-190.112"/>
<polygon fill="black" stroke="black" points="295.445,-190.104 291.945,-180.104 288.445,-190.104 295.445,-190.104"/>
</g>
<!-- ExpMem0 -->
<g id="node3" class="node"><title>ExpMem0</title>
<ellipse fill="none" stroke="black" cx="174.945" cy="-234" rx="48.9926" ry="18"/>
<text text-anchor="middle" x="174.945" y="-230.3" font-family="Times,serif" font-size="14.00">ExpMem0</text>
</g>
<!-- ExpBinary0 -->
<g id="node4" class="node"><title>ExpBinary0</title>
<ellipse fill="none" stroke="black" cx="174.945" cy="-162" rx="53.0913" ry="18"/>
<text text-anchor="middle" x="174.945" y="-158.3" font-family="Times,serif" font-size="14.00">ExpBinary0</text>
</g>
<!-- ExpMem0&#45;&gt;ExpBinary0 -->
<g id="edge2" class="edge"><title>ExpMem0&#45;&gt;ExpBinary0</title>
<path fill="none" stroke="black" d="M174.945,-215.697C174.945,-207.983 174.945,-198.712 174.945,-190.112"/>
<polygon fill="black" stroke="black" points="178.445,-190.104 174.945,-180.104 171.445,-190.104 178.445,-190.104"/>
</g>
<!-- ExpConst0 -->
<g id="node7" class="node"><title>ExpConst0</title>
<ellipse fill="none" stroke="black" cx="273.945" cy="-90" rx="50.0912" ry="18"/>
<text text-anchor="middle" x="273.945" y="-86.3" font-family="Times,serif" font-size="14.00">ExpConst0</text>
</g>
<!-- ExpBinary0&#45;&gt;ExpConst0 -->
<g id="edge14" class="edge"><title>ExpBinary0&#45;&gt;ExpConst0</title>
<path fill="none" stroke="black" d="M196.917,-145.465C210.726,-135.7 228.727,-122.972 243.855,-112.276"/>
<polygon fill="black" stroke="black" points="246.231,-114.882 252.376,-106.251 242.19,-109.167 246.231,-114.882"/>
</g>
<!-- ExpTemp0 -->
<g id="node13" class="node"><title>ExpTemp0</title>
<ellipse fill="none" stroke="black" cx="75.9452" cy="-90" rx="50.0912" ry="18"/>
<text text-anchor="middle" x="75.9452" y="-86.3" font-family="Times,serif" font-size="14.00">ExpTemp0</text>
</g>
<!-- ExpBinary0&#45;&gt;ExpTemp0 -->
<g id="edge12" class="edge"><title>ExpBinary0&#45;&gt;ExpTemp0</title>
<path fill="none" stroke="black" d="M152.974,-145.465C139.164,-135.7 121.163,-122.972 106.036,-112.276"/>
<polygon fill="black" stroke="black" points="107.7,-109.167 97.5145,-106.251 103.659,-114.882 107.7,-109.167"/>
</g>
<!-- Plus0 -->
<g id="node15" class="node"><title>Plus0</title>
<ellipse fill="none" stroke="black" cx="174.945" cy="-90" rx="30.5947" ry="18"/>
<text text-anchor="middle" x="174.945" y="-86.3" font-family="Times,serif" font-size="14.00">Plus0</text>
</g>
<!-- ExpBinary0&#45;&gt;Plus0 -->
<g id="edge13" class="edge"><title>ExpBinary0&#45;&gt;Plus0</title>
<path fill="none" stroke="black" d="M174.945,-143.697C174.945,-135.983 174.945,-126.712 174.945,-118.112"/>
<polygon fill="black" stroke="black" points="178.445,-118.104 174.945,-108.104 171.445,-118.104 178.445,-118.104"/>
</g>
<!-- StatJump0 -->
<g id="node5" class="node"><title>StatJump0</title>
<ellipse fill="none" stroke="black" cx="379.945" cy="-306" rx="48.1917" ry="18"/>
<text text-anchor="middle" x="379.945" y="-302.3" font-family="Times,serif" font-size="14.00">StatJump0</text>
</g>
<!-- Label1: L6 -->
<g id="node6" class="node"><title>Label1: L6</title>
<ellipse fill="none" stroke="black" cx="409.945" cy="-234" rx="50.0912" ry="18"/>
<text text-anchor="middle" x="409.945" y="-230.3" font-family="Times,serif" font-size="14.00">Label1: L6</text>
</g>
<!-- StatJump0&#45;&gt;Label1: L6 -->
<g id="edge3" class="edge"><title>StatJump0&#45;&gt;Label1: L6</title>
<path fill="none" stroke="black" d="M387.207,-288.055C390.62,-280.091 394.769,-270.411 398.584,-261.51"/>
<polygon fill="black" stroke="black" points="401.819,-262.845 402.542,-252.275 395.385,-260.088 401.819,-262.845"/>
</g>
<!-- Value0: 16 -->
<g id="node8" class="node"><title>Value0: 16</title>
<ellipse fill="none" stroke="black" cx="273.945" cy="-18" rx="50.0912" ry="18"/>
<text text-anchor="middle" x="273.945" y="-14.3" font-family="Times,serif" font-size="14.00">Value0: 16</text>
</g>
<!-- ExpConst0&#45;&gt;Value0: 16 -->
<g id="edge4" class="edge"><title>ExpConst0&#45;&gt;Value0: 16</title>
<path fill="none" stroke="black" d="M273.945,-71.6966C273.945,-63.9827 273.945,-54.7125 273.945,-46.1124"/>
<polygon fill="black" stroke="black" points="277.445,-46.1043 273.945,-36.1043 270.445,-46.1044 277.445,-46.1043"/>
</g>
<!-- StatLabel0 -->
<g id="node9" class="node"><title>StatLabel0</title>
<ellipse fill="none" stroke="black" cx="85.9452" cy="-306" rx="48.9926" ry="18"/>
<text text-anchor="middle" x="85.9452" y="-302.3" font-family="Times,serif" font-size="14.00">StatLabel0</text>
</g>
<!-- Label0: L14 -->
<g id="node10" class="node"><title>Label0: L14</title>
<ellipse fill="none" stroke="black" cx="53.9452" cy="-234" rx="53.8905" ry="18"/>
<text text-anchor="middle" x="53.9452" y="-230.3" font-family="Times,serif" font-size="14.00">Label0: L14</text>
</g>
<!-- StatLabel0&#45;&gt;Label0: L14 -->
<g id="edge5" class="edge"><title>StatLabel0&#45;&gt;Label0: L14</title>
<path fill="none" stroke="black" d="M78.1989,-288.055C74.5585,-280.091 70.133,-270.411 66.0639,-261.51"/>
<polygon fill="black" stroke="black" points="69.1833,-259.915 61.8425,-252.275 62.817,-262.825 69.1833,-259.915"/>
</g>
<!-- StatList0 -->
<g id="node11" class="node"><title>StatList0</title>
<ellipse fill="none" stroke="black" cx="204.945" cy="-378" rx="42.4939" ry="18"/>
<text text-anchor="middle" x="204.945" y="-374.3" font-family="Times,serif" font-size="14.00">StatList0</text>
</g>
<!-- StatList0&#45;&gt;StatJump0 -->
<g id="edge8" class="edge"><title>StatList0&#45;&gt;StatJump0</title>
<path fill="none" stroke="black" d="M234.632,-365.125C263.265,-353.672 306.848,-336.239 338.817,-323.451"/>
<polygon fill="black" stroke="black" points="340.351,-326.607 348.336,-319.644 337.752,-320.108 340.351,-326.607"/>
</g>
<!-- StatList0&#45;&gt;StatLabel0 -->
<g id="edge6" class="edge"><title>StatList0&#45;&gt;StatLabel0</title>
<path fill="none" stroke="black" d="M181.15,-363.003C163.504,-352.623 139.21,-338.333 119.58,-326.785"/>
<polygon fill="black" stroke="black" points="121.324,-323.75 110.93,-321.697 117.775,-329.784 121.324,-323.75"/>
</g>
<!-- StatMove0 -->
<g id="node12" class="node"><title>StatMove0</title>
<ellipse fill="none" stroke="black" cx="204.945" cy="-306" rx="50.0912" ry="18"/>
<text text-anchor="middle" x="204.945" y="-302.3" font-family="Times,serif" font-size="14.00">StatMove0</text>
</g>
<!-- StatList0&#45;&gt;StatMove0 -->
<g id="edge7" class="edge"><title>StatList0&#45;&gt;StatMove0</title>
<path fill="none" stroke="black" d="M204.945,-359.697C204.945,-351.983 204.945,-342.712 204.945,-334.112"/>
<polygon fill="black" stroke="black" points="208.445,-334.104 204.945,-324.104 201.445,-334.104 208.445,-334.104"/>
</g>
<!-- StatMove0&#45;&gt;ExpConst1 -->
<g id="edge11" class="edge"><title>StatMove0&#45;&gt;ExpConst1</title>
<path fill="none" stroke="black" d="M224.687,-289.116C236.367,-279.718 251.343,-267.669 264.197,-257.326"/>
<polygon fill="black" stroke="black" points="266.685,-259.817 272.282,-250.821 262.296,-254.363 266.685,-259.817"/>
</g>
<!-- StatMove0&#45;&gt;ExpMem0 -->
<g id="edge10" class="edge"><title>StatMove0&#45;&gt;ExpMem0</title>
<path fill="none" stroke="black" d="M197.683,-288.055C194.27,-280.091 190.121,-270.411 186.307,-261.51"/>
<polygon fill="black" stroke="black" points="189.505,-260.088 182.349,-252.275 183.071,-262.845 189.505,-260.088"/>
</g>
<!-- Temp0: $fp -->
<g id="node14" class="node"><title>Temp0: $fp</title>
<ellipse fill="none" stroke="black" cx="75.9452" cy="-18" rx="52.7911" ry="18"/>
<text text-anchor="middle" x="75.9452" y="-14.3" font-family="Times,serif" font-size="14.00">Temp0: $fp</text>
</g>
<!-- ExpTemp0&#45;&gt;Temp0: $fp -->
<g id="edge9" class="edge"><title>ExpTemp0&#45;&gt;Temp0: $fp</title>
<path fill="none" stroke="black" d="M75.9452,-71.6966C75.9452,-63.9827 75.9452,-54.7125 75.9452,-46.1124"/>
<polygon fill="black" stroke="black" points="79.4453,-46.1043 75.9452,-36.1043 72.4453,-46.1044 79.4453,-46.1043"/>
</g>
</g>
</svg>
