<?xml version="1.0" encoding="UTF-8" standalone="no"?>
<!DOCTYPE svg PUBLIC "-//W3C//DTD SVG 1.1//EN"
 "http://www.w3.org/Graphics/SVG/1.1/DTD/svg11.dtd">
<!-- Generated by graphviz version 2.38.0 (20140413.2041)
 -->
<!-- Title: %3 Pages: 1 -->
<svg width="1938pt" height="764pt"
 viewBox="0.00 0.00 1937.74 764.00" xmlns="http://www.w3.org/2000/svg" xmlns:xlink="http://www.w3.org/1999/xlink">
<g id="graph0" class="graph" transform="scale(1 1) rotate(0) translate(4 760)">
<title>%3</title>
<polygon fill="white" stroke="none" points="-4,4 -4,-760 1933.74,-760 1933.74,4 -4,4"/>
<!-- ExpConst9 -->
<g id="node1" class="node"><title>ExpConst9</title>
<ellipse fill="none" stroke="black" cx="1575.7" cy="-522" rx="50.0912" ry="18"/>
<text text-anchor="middle" x="1575.7" y="-518.3" font-family="Times,serif" font-size="14.00">ExpConst9</text>
</g>
<!-- Value9: 1 -->
<g id="node2" class="node"><title>Value9: 1</title>
<ellipse fill="none" stroke="black" cx="1581.7" cy="-450" rx="45.4919" ry="18"/>
<text text-anchor="middle" x="1581.7" y="-446.3" font-family="Times,serif" font-size="14.00">Value9: 1</text>
</g>
<!-- ExpConst9&#45;&gt;Value9: 1 -->
<g id="edge1" class="edge"><title>ExpConst9&#45;&gt;Value9: 1</title>
<path fill="none" stroke="black" d="M1577.18,-503.697C1577.84,-495.983 1578.63,-486.712 1579.37,-478.112"/>
<polygon fill="black" stroke="black" points="1582.86,-478.367 1580.23,-468.104 1575.89,-477.769 1582.86,-478.367"/>
</g>
<!-- ExpTemp6 -->
<g id="node3" class="node"><title>ExpTemp6</title>
<ellipse fill="none" stroke="black" cx="1452.7" cy="-522" rx="50.0912" ry="18"/>
<text text-anchor="middle" x="1452.7" y="-518.3" font-family="Times,serif" font-size="14.00">ExpTemp6</text>
</g>
<!-- Temp6: RetVal -->
<g id="node4" class="node"><title>Temp6: RetVal</title>
<ellipse fill="none" stroke="black" cx="1452.7" cy="-450" rx="65.7887" ry="18"/>
<text text-anchor="middle" x="1452.7" y="-446.3" font-family="Times,serif" font-size="14.00">Temp6: RetVal</text>
</g>
<!-- ExpTemp6&#45;&gt;Temp6: RetVal -->
<g id="edge2" class="edge"><title>ExpTemp6&#45;&gt;Temp6: RetVal</title>
<path fill="none" stroke="black" d="M1452.7,-503.697C1452.7,-495.983 1452.7,-486.712 1452.7,-478.112"/>
<polygon fill="black" stroke="black" points="1456.2,-478.104 1452.7,-468.104 1449.2,-478.104 1456.2,-478.104"/>
</g>
<!-- ExpConst8 -->
<g id="node5" class="node"><title>ExpConst8</title>
<ellipse fill="none" stroke="black" cx="1879.7" cy="-234" rx="50.0912" ry="18"/>
<text text-anchor="middle" x="1879.7" y="-230.3" font-family="Times,serif" font-size="14.00">ExpConst8</text>
</g>
<!-- Value8: 8 -->
<g id="node6" class="node"><title>Value8: 8</title>
<ellipse fill="none" stroke="black" cx="1879.7" cy="-162" rx="45.4919" ry="18"/>
<text text-anchor="middle" x="1879.7" y="-158.3" font-family="Times,serif" font-size="14.00">Value8: 8</text>
</g>
<!-- ExpConst8&#45;&gt;Value8: 8 -->
<g id="edge3" class="edge"><title>ExpConst8&#45;&gt;Value8: 8</title>
<path fill="none" stroke="black" d="M1879.7,-215.697C1879.7,-207.983 1879.7,-198.712 1879.7,-190.112"/>
<polygon fill="black" stroke="black" points="1883.2,-190.104 1879.7,-180.104 1876.2,-190.104 1883.2,-190.104"/>
</g>
<!-- StatMove3 -->
<g id="node7" class="node"><title>StatMove3</title>
<ellipse fill="none" stroke="black" cx="1452.7" cy="-594" rx="50.0912" ry="18"/>
<text text-anchor="middle" x="1452.7" y="-590.3" font-family="Times,serif" font-size="14.00">StatMove3</text>
</g>
<!-- StatMove3&#45;&gt;ExpConst9 -->
<g id="edge5" class="edge"><title>StatMove3&#45;&gt;ExpConst9</title>
<path fill="none" stroke="black" d="M1478.18,-578.496C1496.37,-568.147 1521.04,-554.107 1541.01,-542.739"/>
<polygon fill="black" stroke="black" points="1542.86,-545.714 1549.82,-537.726 1539.4,-539.631 1542.86,-545.714"/>
</g>
<!-- StatMove3&#45;&gt;ExpTemp6 -->
<g id="edge4" class="edge"><title>StatMove3&#45;&gt;ExpTemp6</title>
<path fill="none" stroke="black" d="M1452.7,-575.697C1452.7,-567.983 1452.7,-558.712 1452.7,-550.112"/>
<polygon fill="black" stroke="black" points="1456.2,-550.104 1452.7,-540.104 1449.2,-550.104 1456.2,-550.104"/>
</g>
<!-- ExpBinary8 -->
<g id="node8" class="node"><title>ExpBinary8</title>
<ellipse fill="none" stroke="black" cx="1730.7" cy="-306" rx="53.0913" ry="18"/>
<text text-anchor="middle" x="1730.7" y="-302.3" font-family="Times,serif" font-size="14.00">ExpBinary8</text>
</g>
<!-- ExpBinary8&#45;&gt;ExpConst8 -->
<g id="edge8" class="edge"><title>ExpBinary8&#45;&gt;ExpConst8</title>
<path fill="none" stroke="black" d="M1760.49,-291.003C1783.68,-280.106 1816.05,-264.9 1841.21,-253.082"/>
<polygon fill="black" stroke="black" points="1842.9,-256.155 1850.46,-248.734 1839.92,-249.819 1842.9,-256.155"/>
</g>
<!-- ExpTemp5 -->
<g id="node9" class="node"><title>ExpTemp5</title>
<ellipse fill="none" stroke="black" cx="1681.7" cy="-234" rx="50.0912" ry="18"/>
<text text-anchor="middle" x="1681.7" y="-230.3" font-family="Times,serif" font-size="14.00">ExpTemp5</text>
</g>
<!-- ExpBinary8&#45;&gt;ExpTemp5 -->
<g id="edge6" class="edge"><title>ExpBinary8&#45;&gt;ExpTemp5</title>
<path fill="none" stroke="black" d="M1719.08,-288.411C1713.19,-279.992 1705.9,-269.585 1699.34,-260.201"/>
<polygon fill="black" stroke="black" points="1702.17,-258.141 1693.56,-251.956 1696.43,-262.156 1702.17,-258.141"/>
</g>
<!-- Plus8 -->
<g id="node10" class="node"><title>Plus8</title>
<ellipse fill="none" stroke="black" cx="1780.7" cy="-234" rx="30.5947" ry="18"/>
<text text-anchor="middle" x="1780.7" y="-230.3" font-family="Times,serif" font-size="14.00">Plus8</text>
</g>
<!-- ExpBinary8&#45;&gt;Plus8 -->
<g id="edge7" class="edge"><title>ExpBinary8&#45;&gt;Plus8</title>
<path fill="none" stroke="black" d="M1742.54,-288.411C1748.74,-279.744 1756.43,-268.971 1763.28,-259.375"/>
<polygon fill="black" stroke="black" points="1766.31,-261.16 1769.28,-250.988 1760.61,-257.091 1766.31,-261.16"/>
</g>
<!-- Temp5: FP -->
<g id="node53" class="node"><title>Temp5: FP</title>
<ellipse fill="none" stroke="black" cx="1681.7" cy="-162" rx="50.8918" ry="18"/>
<text text-anchor="middle" x="1681.7" y="-158.3" font-family="Times,serif" font-size="14.00">Temp5: FP</text>
</g>
<!-- ExpTemp5&#45;&gt;Temp5: FP -->
<g id="edge45" class="edge"><title>ExpTemp5&#45;&gt;Temp5: FP</title>
<path fill="none" stroke="black" d="M1681.7,-215.697C1681.7,-207.983 1681.7,-198.712 1681.7,-190.112"/>
<polygon fill="black" stroke="black" points="1685.2,-190.104 1681.7,-180.104 1678.2,-190.104 1685.2,-190.104"/>
</g>
<!-- StatMove2 -->
<g id="node11" class="node"><title>StatMove2</title>
<ellipse fill="none" stroke="black" cx="1318.7" cy="-450" rx="50.0912" ry="18"/>
<text text-anchor="middle" x="1318.7" y="-446.3" font-family="Times,serif" font-size="14.00">StatMove2</text>
</g>
<!-- ExpMem6 -->
<g id="node12" class="node"><title>ExpMem6</title>
<ellipse fill="none" stroke="black" cx="1342.7" cy="-378" rx="48.9926" ry="18"/>
<text text-anchor="middle" x="1342.7" y="-374.3" font-family="Times,serif" font-size="14.00">ExpMem6</text>
</g>
<!-- StatMove2&#45;&gt;ExpMem6 -->
<g id="edge9" class="edge"><title>StatMove2&#45;&gt;ExpMem6</title>
<path fill="none" stroke="black" d="M1324.51,-432.055C1327.21,-424.176 1330.48,-414.617 1333.51,-405.794"/>
<polygon fill="black" stroke="black" points="1336.84,-406.87 1336.77,-396.275 1330.22,-404.6 1336.84,-406.87"/>
</g>
<!-- ExpMem8 -->
<g id="node13" class="node"><title>ExpMem8</title>
<ellipse fill="none" stroke="black" cx="1569.7" cy="-378" rx="48.9926" ry="18"/>
<text text-anchor="middle" x="1569.7" y="-374.3" font-family="Times,serif" font-size="14.00">ExpMem8</text>
</g>
<!-- StatMove2&#45;&gt;ExpMem8 -->
<g id="edge10" class="edge"><title>StatMove2&#45;&gt;ExpMem8</title>
<path fill="none" stroke="black" d="M1356.45,-438.054C1363.5,-436.027 1370.82,-433.939 1377.7,-432 1426.73,-418.168 1482.92,-402.703 1521.79,-392.065"/>
<polygon fill="black" stroke="black" points="1523.05,-395.348 1531.77,-389.333 1521.2,-388.596 1523.05,-395.348"/>
</g>
<!-- ExpBinary6 -->
<g id="node14" class="node"><title>ExpBinary6</title>
<ellipse fill="none" stroke="black" cx="1415.7" cy="-306" rx="53.0913" ry="18"/>
<text text-anchor="middle" x="1415.7" y="-302.3" font-family="Times,serif" font-size="14.00">ExpBinary6</text>
</g>
<!-- ExpMem6&#45;&gt;ExpBinary6 -->
<g id="edge11" class="edge"><title>ExpMem6&#45;&gt;ExpBinary6</title>
<path fill="none" stroke="black" d="M1359.63,-360.765C1369.12,-351.665 1381.11,-340.162 1391.57,-330.134"/>
<polygon fill="black" stroke="black" points="1394.06,-332.595 1398.86,-323.147 1389.22,-327.542 1394.06,-332.595"/>
</g>
<!-- ExpMem8&#45;&gt;ExpBinary8 -->
<g id="edge52" class="edge"><title>ExpMem8&#45;&gt;ExpBinary8</title>
<path fill="none" stroke="black" d="M1599.98,-363.834C1625.4,-352.78 1661.95,-336.89 1689.94,-324.72"/>
<polygon fill="black" stroke="black" points="1691.68,-327.782 1699.45,-320.585 1688.88,-321.362 1691.68,-327.782"/>
</g>
<!-- ExpMem7 -->
<g id="node29" class="node"><title>ExpMem7</title>
<ellipse fill="none" stroke="black" cx="1367.7" cy="-234" rx="48.9926" ry="18"/>
<text text-anchor="middle" x="1367.7" y="-230.3" font-family="Times,serif" font-size="14.00">ExpMem7</text>
</g>
<!-- ExpBinary6&#45;&gt;ExpMem7 -->
<g id="edge24" class="edge"><title>ExpBinary6&#45;&gt;ExpMem7</title>
<path fill="none" stroke="black" d="M1404.32,-288.411C1398.61,-280.077 1391.56,-269.797 1385.17,-260.488"/>
<polygon fill="black" stroke="black" points="1387.86,-258.224 1379.32,-251.956 1382.09,-262.183 1387.86,-258.224"/>
</g>
<!-- Plus7 -->
<g id="node30" class="node"><title>Plus7</title>
<ellipse fill="none" stroke="black" cx="1464.7" cy="-234" rx="30.5947" ry="18"/>
<text text-anchor="middle" x="1464.7" y="-230.3" font-family="Times,serif" font-size="14.00">Plus7</text>
</g>
<!-- ExpBinary6&#45;&gt;Plus7 -->
<g id="edge25" class="edge"><title>ExpBinary6&#45;&gt;Plus7</title>
<path fill="none" stroke="black" d="M1427.31,-288.411C1433.37,-279.744 1440.92,-268.971 1447.63,-259.375"/>
<polygon fill="black" stroke="black" points="1450.64,-261.188 1453.5,-250.988 1444.9,-257.173 1450.64,-261.188"/>
</g>
<!-- ExpConst7 -->
<g id="node31" class="node"><title>ExpConst7</title>
<ellipse fill="none" stroke="black" cx="1563.7" cy="-234" rx="50.0912" ry="18"/>
<text text-anchor="middle" x="1563.7" y="-230.3" font-family="Times,serif" font-size="14.00">ExpConst7</text>
</g>
<!-- ExpBinary6&#45;&gt;ExpConst7 -->
<g id="edge26" class="edge"><title>ExpBinary6&#45;&gt;ExpConst7</title>
<path fill="none" stroke="black" d="M1445.29,-291.003C1468.33,-280.106 1500.48,-264.9 1525.47,-253.082"/>
<polygon fill="black" stroke="black" points="1527.11,-256.174 1534.66,-248.734 1524.12,-249.846 1527.11,-256.174"/>
</g>
<!-- ExpTemp4 -->
<g id="node15" class="node"><title>ExpTemp4</title>
<ellipse fill="none" stroke="black" cx="1268.7" cy="-90" rx="50.0912" ry="18"/>
<text text-anchor="middle" x="1268.7" y="-86.3" font-family="Times,serif" font-size="14.00">ExpTemp4</text>
</g>
<!-- Temp4: FP -->
<g id="node16" class="node"><title>Temp4: FP</title>
<ellipse fill="none" stroke="black" cx="1268.7" cy="-18" rx="50.8918" ry="18"/>
<text text-anchor="middle" x="1268.7" y="-14.3" font-family="Times,serif" font-size="14.00">Temp4: FP</text>
</g>
<!-- ExpTemp4&#45;&gt;Temp4: FP -->
<g id="edge12" class="edge"><title>ExpTemp4&#45;&gt;Temp4: FP</title>
<path fill="none" stroke="black" d="M1268.7,-71.6966C1268.7,-63.9827 1268.7,-54.7125 1268.7,-46.1124"/>
<polygon fill="black" stroke="black" points="1272.2,-46.1043 1268.7,-36.1043 1265.2,-46.1044 1272.2,-46.1043"/>
</g>
<!-- StatSeq3 -->
<g id="node17" class="node"><title>StatSeq3</title>
<ellipse fill="none" stroke="black" cx="1259.7" cy="-522" rx="42.4939" ry="18"/>
<text text-anchor="middle" x="1259.7" y="-518.3" font-family="Times,serif" font-size="14.00">StatSeq3</text>
</g>
<!-- StatSeq3&#45;&gt;StatMove2 -->
<g id="edge14" class="edge"><title>StatSeq3&#45;&gt;StatMove2</title>
<path fill="none" stroke="black" d="M1273.38,-504.765C1280.72,-496.056 1289.91,-485.147 1298.1,-475.435"/>
<polygon fill="black" stroke="black" points="1300.91,-477.535 1304.68,-467.633 1295.55,-473.024 1300.91,-477.535"/>
</g>
<!-- StatMove1 -->
<g id="node18" class="node"><title>StatMove1</title>
<ellipse fill="none" stroke="black" cx="1151.7" cy="-450" rx="50.0912" ry="18"/>
<text text-anchor="middle" x="1151.7" y="-446.3" font-family="Times,serif" font-size="14.00">StatMove1</text>
</g>
<!-- StatSeq3&#45;&gt;StatMove1 -->
<g id="edge13" class="edge"><title>StatSeq3&#45;&gt;StatMove1</title>
<path fill="none" stroke="black" d="M1237.32,-506.496C1221.85,-496.47 1201.04,-482.98 1183.8,-471.811"/>
<polygon fill="black" stroke="black" points="1185.46,-468.714 1175.17,-466.212 1181.65,-474.588 1185.46,-468.714"/>
</g>
<!-- ExpMem5 -->
<g id="node24" class="node"><title>ExpMem5</title>
<ellipse fill="none" stroke="black" cx="1151.7" cy="-378" rx="48.9926" ry="18"/>
<text text-anchor="middle" x="1151.7" y="-374.3" font-family="Times,serif" font-size="14.00">ExpMem5</text>
</g>
<!-- StatMove1&#45;&gt;ExpMem5 -->
<g id="edge21" class="edge"><title>StatMove1&#45;&gt;ExpMem5</title>
<path fill="none" stroke="black" d="M1151.7,-431.697C1151.7,-423.983 1151.7,-414.712 1151.7,-406.112"/>
<polygon fill="black" stroke="black" points="1155.2,-406.104 1151.7,-396.104 1148.2,-406.104 1155.2,-406.104"/>
</g>
<!-- ExpMem3 -->
<g id="node25" class="node"><title>ExpMem3</title>
<ellipse fill="none" stroke="black" cx="984.696" cy="-378" rx="48.9926" ry="18"/>
<text text-anchor="middle" x="984.696" y="-374.3" font-family="Times,serif" font-size="14.00">ExpMem3</text>
</g>
<!-- StatMove1&#45;&gt;ExpMem3 -->
<g id="edge20" class="edge"><title>StatMove1&#45;&gt;ExpMem3</title>
<path fill="none" stroke="black" d="M1120.28,-435.834C1093.37,-424.554 1054.45,-408.238 1025.2,-395.978"/>
<polygon fill="black" stroke="black" points="1026.26,-392.627 1015.68,-391.989 1023.55,-399.083 1026.26,-392.627"/>
</g>
<!-- ExpBinary5 -->
<g id="node19" class="node"><title>ExpBinary5</title>
<ellipse fill="none" stroke="black" cx="1151.7" cy="-306" rx="53.0913" ry="18"/>
<text text-anchor="middle" x="1151.7" y="-302.3" font-family="Times,serif" font-size="14.00">ExpBinary5</text>
</g>
<!-- ExpTemp3 -->
<g id="node20" class="node"><title>ExpTemp3</title>
<ellipse fill="none" stroke="black" cx="1052.7" cy="-234" rx="50.0912" ry="18"/>
<text text-anchor="middle" x="1052.7" y="-230.3" font-family="Times,serif" font-size="14.00">ExpTemp3</text>
</g>
<!-- ExpBinary5&#45;&gt;ExpTemp3 -->
<g id="edge15" class="edge"><title>ExpBinary5&#45;&gt;ExpTemp3</title>
<path fill="none" stroke="black" d="M1129.72,-289.465C1115.91,-279.7 1097.91,-266.972 1082.79,-256.276"/>
<polygon fill="black" stroke="black" points="1084.45,-253.167 1074.26,-250.251 1080.41,-258.882 1084.45,-253.167"/>
</g>
<!-- Plus5 -->
<g id="node21" class="node"><title>Plus5</title>
<ellipse fill="none" stroke="black" cx="1151.7" cy="-234" rx="30.5947" ry="18"/>
<text text-anchor="middle" x="1151.7" y="-230.3" font-family="Times,serif" font-size="14.00">Plus5</text>
</g>
<!-- ExpBinary5&#45;&gt;Plus5 -->
<g id="edge16" class="edge"><title>ExpBinary5&#45;&gt;Plus5</title>
<path fill="none" stroke="black" d="M1151.7,-287.697C1151.7,-279.983 1151.7,-270.712 1151.7,-262.112"/>
<polygon fill="black" stroke="black" points="1155.2,-262.104 1151.7,-252.104 1148.2,-262.104 1155.2,-262.104"/>
</g>
<!-- ExpConst5 -->
<g id="node22" class="node"><title>ExpConst5</title>
<ellipse fill="none" stroke="black" cx="1250.7" cy="-234" rx="50.0912" ry="18"/>
<text text-anchor="middle" x="1250.7" y="-230.3" font-family="Times,serif" font-size="14.00">ExpConst5</text>
</g>
<!-- ExpBinary5&#45;&gt;ExpConst5 -->
<g id="edge17" class="edge"><title>ExpBinary5&#45;&gt;ExpConst5</title>
<path fill="none" stroke="black" d="M1173.67,-289.465C1187.48,-279.7 1205.48,-266.972 1220.6,-256.276"/>
<polygon fill="black" stroke="black" points="1222.98,-258.882 1229.13,-250.251 1218.94,-253.167 1222.98,-258.882"/>
</g>
<!-- Temp3: FP -->
<g id="node23" class="node"><title>Temp3: FP</title>
<ellipse fill="none" stroke="black" cx="1052.7" cy="-162" rx="50.8918" ry="18"/>
<text text-anchor="middle" x="1052.7" y="-158.3" font-family="Times,serif" font-size="14.00">Temp3: FP</text>
</g>
<!-- ExpTemp3&#45;&gt;Temp3: FP -->
<g id="edge18" class="edge"><title>ExpTemp3&#45;&gt;Temp3: FP</title>
<path fill="none" stroke="black" d="M1052.7,-215.697C1052.7,-207.983 1052.7,-198.712 1052.7,-190.112"/>
<polygon fill="black" stroke="black" points="1056.2,-190.104 1052.7,-180.104 1049.2,-190.104 1056.2,-190.104"/>
</g>
<!-- Value5: 4 -->
<g id="node45" class="node"><title>Value5: 4</title>
<ellipse fill="none" stroke="black" cx="1250.7" cy="-162" rx="45.4919" ry="18"/>
<text text-anchor="middle" x="1250.7" y="-158.3" font-family="Times,serif" font-size="14.00">Value5: 4</text>
</g>
<!-- ExpConst5&#45;&gt;Value5: 4 -->
<g id="edge38" class="edge"><title>ExpConst5&#45;&gt;Value5: 4</title>
<path fill="none" stroke="black" d="M1250.7,-215.697C1250.7,-207.983 1250.7,-198.712 1250.7,-190.112"/>
<polygon fill="black" stroke="black" points="1254.2,-190.104 1250.7,-180.104 1247.2,-190.104 1254.2,-190.104"/>
</g>
<!-- ExpMem5&#45;&gt;ExpBinary5 -->
<g id="edge19" class="edge"><title>ExpMem5&#45;&gt;ExpBinary5</title>
<path fill="none" stroke="black" d="M1151.7,-359.697C1151.7,-351.983 1151.7,-342.712 1151.7,-334.112"/>
<polygon fill="black" stroke="black" points="1155.2,-334.104 1151.7,-324.104 1148.2,-334.104 1155.2,-334.104"/>
</g>
<!-- ExpBinary3 -->
<g id="node37" class="node"><title>ExpBinary3</title>
<ellipse fill="none" stroke="black" cx="884.696" cy="-306" rx="53.0913" ry="18"/>
<text text-anchor="middle" x="884.696" y="-302.3" font-family="Times,serif" font-size="14.00">ExpBinary3</text>
</g>
<!-- ExpMem3&#45;&gt;ExpBinary3 -->
<g id="edge31" class="edge"><title>ExpMem3&#45;&gt;ExpBinary3</title>
<path fill="none" stroke="black" d="M962.997,-361.811C948.941,-351.972 930.437,-339.019 914.946,-328.175"/>
<polygon fill="black" stroke="black" points="916.896,-325.268 906.697,-322.401 912.882,-331.003 916.896,-325.268"/>
</g>
<!-- StatMove0 -->
<g id="node26" class="node"><title>StatMove0</title>
<ellipse fill="none" stroke="black" cx="562.696" cy="-522" rx="50.0912" ry="18"/>
<text text-anchor="middle" x="562.696" y="-518.3" font-family="Times,serif" font-size="14.00">StatMove0</text>
</g>
<!-- ExpMem0 -->
<g id="node27" class="node"><title>ExpMem0</title>
<ellipse fill="none" stroke="black" cx="347.696" cy="-450" rx="48.9926" ry="18"/>
<text text-anchor="middle" x="347.696" y="-446.3" font-family="Times,serif" font-size="14.00">ExpMem0</text>
</g>
<!-- StatMove0&#45;&gt;ExpMem0 -->
<g id="edge22" class="edge"><title>StatMove0&#45;&gt;ExpMem0</title>
<path fill="none" stroke="black" d="M526.709,-509.284C489.902,-497.3 432.623,-478.651 392.807,-465.687"/>
<polygon fill="black" stroke="black" points="393.676,-462.29 383.084,-462.522 391.509,-468.946 393.676,-462.29"/>
</g>
<!-- ExpMem2 -->
<g id="node28" class="node"><title>ExpMem2</title>
<ellipse fill="none" stroke="black" cx="562.696" cy="-450" rx="48.9926" ry="18"/>
<text text-anchor="middle" x="562.696" y="-446.3" font-family="Times,serif" font-size="14.00">ExpMem2</text>
</g>
<!-- StatMove0&#45;&gt;ExpMem2 -->
<g id="edge23" class="edge"><title>StatMove0&#45;&gt;ExpMem2</title>
<path fill="none" stroke="black" d="M562.696,-503.697C562.696,-495.983 562.696,-486.712 562.696,-478.112"/>
<polygon fill="black" stroke="black" points="566.196,-478.104 562.696,-468.104 559.196,-478.104 566.196,-478.104"/>
</g>
<!-- ExpBinary0 -->
<g id="node32" class="node"><title>ExpBinary0</title>
<ellipse fill="none" stroke="black" cx="296.696" cy="-378" rx="53.0913" ry="18"/>
<text text-anchor="middle" x="296.696" y="-374.3" font-family="Times,serif" font-size="14.00">ExpBinary0</text>
</g>
<!-- ExpMem0&#45;&gt;ExpBinary0 -->
<g id="edge27" class="edge"><title>ExpMem0&#45;&gt;ExpBinary0</title>
<path fill="none" stroke="black" d="M335.609,-432.411C329.475,-423.992 321.893,-413.585 315.056,-404.201"/>
<polygon fill="black" stroke="black" points="317.767,-401.978 309.049,-395.956 312.109,-406.1 317.767,-401.978"/>
</g>
<!-- ExpBinary2 -->
<g id="node44" class="node"><title>ExpBinary2</title>
<ellipse fill="none" stroke="black" cx="562.696" cy="-378" rx="53.0913" ry="18"/>
<text text-anchor="middle" x="562.696" y="-374.3" font-family="Times,serif" font-size="14.00">ExpBinary2</text>
</g>
<!-- ExpMem2&#45;&gt;ExpBinary2 -->
<g id="edge37" class="edge"><title>ExpMem2&#45;&gt;ExpBinary2</title>
<path fill="none" stroke="black" d="M562.696,-431.697C562.696,-423.983 562.696,-414.712 562.696,-406.112"/>
<polygon fill="black" stroke="black" points="566.196,-406.104 562.696,-396.104 559.196,-406.104 566.196,-406.104"/>
</g>
<!-- ExpBinary7 -->
<g id="node42" class="node"><title>ExpBinary7</title>
<ellipse fill="none" stroke="black" cx="1367.7" cy="-162" rx="53.0913" ry="18"/>
<text text-anchor="middle" x="1367.7" y="-158.3" font-family="Times,serif" font-size="14.00">ExpBinary7</text>
</g>
<!-- ExpMem7&#45;&gt;ExpBinary7 -->
<g id="edge35" class="edge"><title>ExpMem7&#45;&gt;ExpBinary7</title>
<path fill="none" stroke="black" d="M1367.7,-215.697C1367.7,-207.983 1367.7,-198.712 1367.7,-190.112"/>
<polygon fill="black" stroke="black" points="1371.2,-190.104 1367.7,-180.104 1364.2,-190.104 1371.2,-190.104"/>
</g>
<!-- Value7: 8 -->
<g id="node62" class="node"><title>Value7: 8</title>
<ellipse fill="none" stroke="black" cx="1563.7" cy="-162" rx="45.4919" ry="18"/>
<text text-anchor="middle" x="1563.7" y="-158.3" font-family="Times,serif" font-size="14.00">Value7: 8</text>
</g>
<!-- ExpConst7&#45;&gt;Value7: 8 -->
<g id="edge57" class="edge"><title>ExpConst7&#45;&gt;Value7: 8</title>
<path fill="none" stroke="black" d="M1563.7,-215.697C1563.7,-207.983 1563.7,-198.712 1563.7,-190.112"/>
<polygon fill="black" stroke="black" points="1567.2,-190.104 1563.7,-180.104 1560.2,-190.104 1567.2,-190.104"/>
</g>
<!-- ExpMem1 -->
<g id="node38" class="node"><title>ExpMem1</title>
<ellipse fill="none" stroke="black" cx="149.696" cy="-306" rx="48.9926" ry="18"/>
<text text-anchor="middle" x="149.696" y="-302.3" font-family="Times,serif" font-size="14.00">ExpMem1</text>
</g>
<!-- ExpBinary0&#45;&gt;ExpMem1 -->
<g id="edge66" class="edge"><title>ExpBinary0&#45;&gt;ExpMem1</title>
<path fill="none" stroke="black" d="M266.948,-362.834C244.036,-351.924 212.205,-336.766 187.489,-324.997"/>
<polygon fill="black" stroke="black" points="188.932,-321.807 178.398,-320.668 185.922,-328.127 188.932,-321.807"/>
</g>
<!-- ExpConst1 -->
<g id="node51" class="node"><title>ExpConst1</title>
<ellipse fill="none" stroke="black" cx="345.696" cy="-306" rx="50.0912" ry="18"/>
<text text-anchor="middle" x="345.696" y="-302.3" font-family="Times,serif" font-size="14.00">ExpConst1</text>
</g>
<!-- ExpBinary0&#45;&gt;ExpConst1 -->
<g id="edge68" class="edge"><title>ExpBinary0&#45;&gt;ExpConst1</title>
<path fill="none" stroke="black" d="M308.308,-360.411C314.201,-351.992 321.486,-341.585 328.055,-332.201"/>
<polygon fill="black" stroke="black" points="330.959,-334.156 333.826,-323.956 325.224,-330.141 330.959,-334.156"/>
</g>
<!-- Plus1 -->
<g id="node70" class="node"><title>Plus1</title>
<ellipse fill="none" stroke="black" cx="246.696" cy="-306" rx="30.5947" ry="18"/>
<text text-anchor="middle" x="246.696" y="-302.3" font-family="Times,serif" font-size="14.00">Plus1</text>
</g>
<!-- ExpBinary0&#45;&gt;Plus1 -->
<g id="edge67" class="edge"><title>ExpBinary0&#45;&gt;Plus1</title>
<path fill="none" stroke="black" d="M284.846,-360.411C278.655,-351.744 270.961,-340.971 264.107,-331.375"/>
<polygon fill="black" stroke="black" points="266.776,-329.091 258.116,-322.988 261.08,-333.16 266.776,-329.091"/>
</g>
<!-- ExpBinary1 -->
<g id="node33" class="node"><title>ExpBinary1</title>
<ellipse fill="none" stroke="black" cx="149.696" cy="-234" rx="53.0913" ry="18"/>
<text text-anchor="middle" x="149.696" y="-230.3" font-family="Times,serif" font-size="14.00">ExpBinary1</text>
</g>
<!-- ExpTemp0 -->
<g id="node34" class="node"><title>ExpTemp0</title>
<ellipse fill="none" stroke="black" cx="50.6955" cy="-162" rx="50.0912" ry="18"/>
<text text-anchor="middle" x="50.6955" y="-158.3" font-family="Times,serif" font-size="14.00">ExpTemp0</text>
</g>
<!-- ExpBinary1&#45;&gt;ExpTemp0 -->
<g id="edge28" class="edge"><title>ExpBinary1&#45;&gt;ExpTemp0</title>
<path fill="none" stroke="black" d="M127.724,-217.465C113.915,-207.7 95.9136,-194.972 80.7861,-184.276"/>
<polygon fill="black" stroke="black" points="82.4506,-181.167 72.2648,-178.251 78.4092,-186.882 82.4506,-181.167"/>
</g>
<!-- Plus0 -->
<g id="node35" class="node"><title>Plus0</title>
<ellipse fill="none" stroke="black" cx="149.696" cy="-162" rx="30.5947" ry="18"/>
<text text-anchor="middle" x="149.696" y="-158.3" font-family="Times,serif" font-size="14.00">Plus0</text>
</g>
<!-- ExpBinary1&#45;&gt;Plus0 -->
<g id="edge29" class="edge"><title>ExpBinary1&#45;&gt;Plus0</title>
<path fill="none" stroke="black" d="M149.696,-215.697C149.696,-207.983 149.696,-198.712 149.696,-190.112"/>
<polygon fill="black" stroke="black" points="153.196,-190.104 149.696,-180.104 146.196,-190.104 153.196,-190.104"/>
</g>
<!-- ExpConst0 -->
<g id="node36" class="node"><title>ExpConst0</title>
<ellipse fill="none" stroke="black" cx="248.696" cy="-162" rx="50.0912" ry="18"/>
<text text-anchor="middle" x="248.696" y="-158.3" font-family="Times,serif" font-size="14.00">ExpConst0</text>
</g>
<!-- ExpBinary1&#45;&gt;ExpConst0 -->
<g id="edge30" class="edge"><title>ExpBinary1&#45;&gt;ExpConst0</title>
<path fill="none" stroke="black" d="M171.667,-217.465C185.476,-207.7 203.477,-194.972 218.605,-184.276"/>
<polygon fill="black" stroke="black" points="220.982,-186.882 227.126,-178.251 216.94,-181.167 220.982,-186.882"/>
</g>
<!-- Temp0: FP -->
<g id="node43" class="node"><title>Temp0: FP</title>
<ellipse fill="none" stroke="black" cx="50.6955" cy="-90" rx="50.8918" ry="18"/>
<text text-anchor="middle" x="50.6955" y="-86.3" font-family="Times,serif" font-size="14.00">Temp0: FP</text>
</g>
<!-- ExpTemp0&#45;&gt;Temp0: FP -->
<g id="edge36" class="edge"><title>ExpTemp0&#45;&gt;Temp0: FP</title>
<path fill="none" stroke="black" d="M50.6955,-143.697C50.6955,-135.983 50.6955,-126.712 50.6955,-118.112"/>
<polygon fill="black" stroke="black" points="54.1956,-118.104 50.6955,-108.104 47.1956,-118.104 54.1956,-118.104"/>
</g>
<!-- Value0: 0 -->
<g id="node39" class="node"><title>Value0: 0</title>
<ellipse fill="none" stroke="black" cx="248.696" cy="-90" rx="45.4919" ry="18"/>
<text text-anchor="middle" x="248.696" y="-86.3" font-family="Times,serif" font-size="14.00">Value0: 0</text>
</g>
<!-- ExpConst0&#45;&gt;Value0: 0 -->
<g id="edge33" class="edge"><title>ExpConst0&#45;&gt;Value0: 0</title>
<path fill="none" stroke="black" d="M248.696,-143.697C248.696,-135.983 248.696,-126.712 248.696,-118.112"/>
<polygon fill="black" stroke="black" points="252.196,-118.104 248.696,-108.104 245.196,-118.104 252.196,-118.104"/>
</g>
<!-- ExpMem4 -->
<g id="node46" class="node"><title>ExpMem4</title>
<ellipse fill="none" stroke="black" cx="738.696" cy="-234" rx="48.9926" ry="18"/>
<text text-anchor="middle" x="738.696" y="-230.3" font-family="Times,serif" font-size="14.00">ExpMem4</text>
</g>
<!-- ExpBinary3&#45;&gt;ExpMem4 -->
<g id="edge39" class="edge"><title>ExpBinary3&#45;&gt;ExpMem4</title>
<path fill="none" stroke="black" d="M855.15,-290.834C832.394,-279.924 800.779,-264.766 776.232,-252.997"/>
<polygon fill="black" stroke="black" points="777.734,-249.835 767.203,-248.668 774.707,-256.147 777.734,-249.835"/>
</g>
<!-- Plus4 -->
<g id="node47" class="node"><title>Plus4</title>
<ellipse fill="none" stroke="black" cx="835.696" cy="-234" rx="30.5947" ry="18"/>
<text text-anchor="middle" x="835.696" y="-230.3" font-family="Times,serif" font-size="14.00">Plus4</text>
</g>
<!-- ExpBinary3&#45;&gt;Plus4 -->
<g id="edge40" class="edge"><title>ExpBinary3&#45;&gt;Plus4</title>
<path fill="none" stroke="black" d="M873.083,-288.411C867.016,-279.744 859.475,-268.971 852.758,-259.375"/>
<polygon fill="black" stroke="black" points="855.489,-257.173 846.887,-250.988 849.755,-261.188 855.489,-257.173"/>
</g>
<!-- ExpConst4 -->
<g id="node48" class="node"><title>ExpConst4</title>
<ellipse fill="none" stroke="black" cx="934.696" cy="-234" rx="50.0912" ry="18"/>
<text text-anchor="middle" x="934.696" y="-230.3" font-family="Times,serif" font-size="14.00">ExpConst4</text>
</g>
<!-- ExpBinary3&#45;&gt;ExpConst4 -->
<g id="edge41" class="edge"><title>ExpBinary3&#45;&gt;ExpConst4</title>
<path fill="none" stroke="black" d="M896.545,-288.411C902.559,-279.992 909.992,-269.585 916.695,-260.201"/>
<polygon fill="black" stroke="black" points="919.62,-262.128 922.584,-251.956 913.923,-258.059 919.62,-262.128"/>
</g>
<!-- ExpMem1&#45;&gt;ExpBinary1 -->
<g id="edge32" class="edge"><title>ExpMem1&#45;&gt;ExpBinary1</title>
<path fill="none" stroke="black" d="M149.696,-287.697C149.696,-279.983 149.696,-270.712 149.696,-262.112"/>
<polygon fill="black" stroke="black" points="153.196,-262.104 149.696,-252.104 146.196,-262.104 153.196,-262.104"/>
</g>
<!-- StatLabel0 -->
<g id="node40" class="node"><title>StatLabel0</title>
<ellipse fill="none" stroke="black" cx="1131.7" cy="-666" rx="48.9926" ry="18"/>
<text text-anchor="middle" x="1131.7" y="-662.3" font-family="Times,serif" font-size="14.00">StatLabel0</text>
</g>
<!-- Label0: List::InitNew -->
<g id="node41" class="node"><title>Label0: List::InitNew</title>
<ellipse fill="none" stroke="black" cx="1112.7" cy="-594" rx="87.1846" ry="18"/>
<text text-anchor="middle" x="1112.7" y="-590.3" font-family="Times,serif" font-size="14.00">Label0: List::InitNew</text>
</g>
<!-- StatLabel0&#45;&gt;Label0: List::InitNew -->
<g id="edge34" class="edge"><title>StatLabel0&#45;&gt;Label0: List::InitNew</title>
<path fill="none" stroke="black" d="M1127.1,-648.055C1124.98,-640.261 1122.42,-630.822 1120.05,-622.079"/>
<polygon fill="black" stroke="black" points="1123.38,-621.009 1117.38,-612.275 1116.63,-622.843 1123.38,-621.009"/>
</g>
<!-- ExpBinary7&#45;&gt;ExpTemp4 -->
<g id="edge46" class="edge"><title>ExpBinary7&#45;&gt;ExpTemp4</title>
<path fill="none" stroke="black" d="M1345.72,-145.465C1331.91,-135.7 1313.91,-122.972 1298.79,-112.276"/>
<polygon fill="black" stroke="black" points="1300.45,-109.167 1290.26,-106.251 1296.41,-114.882 1300.45,-109.167"/>
</g>
<!-- Plus6 -->
<g id="node54" class="node"><title>Plus6</title>
<ellipse fill="none" stroke="black" cx="1367.7" cy="-90" rx="30.5947" ry="18"/>
<text text-anchor="middle" x="1367.7" y="-86.3" font-family="Times,serif" font-size="14.00">Plus6</text>
</g>
<!-- ExpBinary7&#45;&gt;Plus6 -->
<g id="edge47" class="edge"><title>ExpBinary7&#45;&gt;Plus6</title>
<path fill="none" stroke="black" d="M1367.7,-143.697C1367.7,-135.983 1367.7,-126.712 1367.7,-118.112"/>
<polygon fill="black" stroke="black" points="1371.2,-118.104 1367.7,-108.104 1364.2,-118.104 1371.2,-118.104"/>
</g>
<!-- ExpConst6 -->
<g id="node55" class="node"><title>ExpConst6</title>
<ellipse fill="none" stroke="black" cx="1466.7" cy="-90" rx="50.0912" ry="18"/>
<text text-anchor="middle" x="1466.7" y="-86.3" font-family="Times,serif" font-size="14.00">ExpConst6</text>
</g>
<!-- ExpBinary7&#45;&gt;ExpConst6 -->
<g id="edge48" class="edge"><title>ExpBinary7&#45;&gt;ExpConst6</title>
<path fill="none" stroke="black" d="M1389.67,-145.465C1403.48,-135.7 1421.48,-122.972 1436.6,-112.276"/>
<polygon fill="black" stroke="black" points="1438.98,-114.882 1445.13,-106.251 1434.94,-109.167 1438.98,-114.882"/>
</g>
<!-- ExpTemp1 -->
<g id="node57" class="node"><title>ExpTemp1</title>
<ellipse fill="none" stroke="black" cx="463.696" cy="-306" rx="50.0912" ry="18"/>
<text text-anchor="middle" x="463.696" y="-302.3" font-family="Times,serif" font-size="14.00">ExpTemp1</text>
</g>
<!-- ExpBinary2&#45;&gt;ExpTemp1 -->
<g id="edge53" class="edge"><title>ExpBinary2&#45;&gt;ExpTemp1</title>
<path fill="none" stroke="black" d="M540.724,-361.465C526.915,-351.7 508.914,-338.972 493.786,-328.276"/>
<polygon fill="black" stroke="black" points="495.451,-325.167 485.265,-322.251 491.409,-330.882 495.451,-325.167"/>
</g>
<!-- Plus2 -->
<g id="node59" class="node"><title>Plus2</title>
<ellipse fill="none" stroke="black" cx="562.696" cy="-306" rx="30.5947" ry="18"/>
<text text-anchor="middle" x="562.696" y="-302.3" font-family="Times,serif" font-size="14.00">Plus2</text>
</g>
<!-- ExpBinary2&#45;&gt;Plus2 -->
<g id="edge54" class="edge"><title>ExpBinary2&#45;&gt;Plus2</title>
<path fill="none" stroke="black" d="M562.696,-359.697C562.696,-351.983 562.696,-342.712 562.696,-334.112"/>
<polygon fill="black" stroke="black" points="566.196,-334.104 562.696,-324.104 559.196,-334.104 566.196,-334.104"/>
</g>
<!-- ExpConst2 -->
<g id="node60" class="node"><title>ExpConst2</title>
<ellipse fill="none" stroke="black" cx="661.696" cy="-306" rx="50.0912" ry="18"/>
<text text-anchor="middle" x="661.696" y="-302.3" font-family="Times,serif" font-size="14.00">ExpConst2</text>
</g>
<!-- ExpBinary2&#45;&gt;ExpConst2 -->
<g id="edge55" class="edge"><title>ExpBinary2&#45;&gt;ExpConst2</title>
<path fill="none" stroke="black" d="M584.667,-361.465C598.476,-351.7 616.477,-338.972 631.605,-328.276"/>
<polygon fill="black" stroke="black" points="633.982,-330.882 640.126,-322.251 629.94,-325.167 633.982,-330.882"/>
</g>
<!-- ExpBinary4 -->
<g id="node68" class="node"><title>ExpBinary4</title>
<ellipse fill="none" stroke="black" cx="738.696" cy="-162" rx="53.0913" ry="18"/>
<text text-anchor="middle" x="738.696" y="-158.3" font-family="Times,serif" font-size="14.00">ExpBinary4</text>
</g>
<!-- ExpMem4&#45;&gt;ExpBinary4 -->
<g id="edge69" class="edge"><title>ExpMem4&#45;&gt;ExpBinary4</title>
<path fill="none" stroke="black" d="M738.696,-215.697C738.696,-207.983 738.696,-198.712 738.696,-190.112"/>
<polygon fill="black" stroke="black" points="742.196,-190.104 738.696,-180.104 735.196,-190.104 742.196,-190.104"/>
</g>
<!-- Value4: 0 -->
<g id="node71" class="node"><title>Value4: 0</title>
<ellipse fill="none" stroke="black" cx="934.696" cy="-162" rx="45.4919" ry="18"/>
<text text-anchor="middle" x="934.696" y="-158.3" font-family="Times,serif" font-size="14.00">Value4: 0</text>
</g>
<!-- ExpConst4&#45;&gt;Value4: 0 -->
<g id="edge70" class="edge"><title>ExpConst4&#45;&gt;Value4: 0</title>
<path fill="none" stroke="black" d="M934.696,-215.697C934.696,-207.983 934.696,-198.712 934.696,-190.112"/>
<polygon fill="black" stroke="black" points="938.196,-190.104 934.696,-180.104 931.196,-190.104 938.196,-190.104"/>
</g>
<!-- StatSeq1 -->
<g id="node49" class="node"><title>StatSeq1</title>
<ellipse fill="none" stroke="black" cx="1259.7" cy="-666" rx="42.4939" ry="18"/>
<text text-anchor="middle" x="1259.7" y="-662.3" font-family="Times,serif" font-size="14.00">StatSeq1</text>
</g>
<!-- StatSeq1&#45;&gt;StatMove3 -->
<g id="edge43" class="edge"><title>StatSeq1&#45;&gt;StatMove3</title>
<path fill="none" stroke="black" d="M1290.7,-653.753C1322.75,-642.131 1373.03,-623.892 1409.08,-610.819"/>
<polygon fill="black" stroke="black" points="1410.63,-613.979 1418.84,-607.279 1408.25,-607.398 1410.63,-613.979"/>
</g>
<!-- StatSeq2 -->
<g id="node50" class="node"><title>StatSeq2</title>
<ellipse fill="none" stroke="black" cx="1259.7" cy="-594" rx="42.4939" ry="18"/>
<text text-anchor="middle" x="1259.7" y="-590.3" font-family="Times,serif" font-size="14.00">StatSeq2</text>
</g>
<!-- StatSeq1&#45;&gt;StatSeq2 -->
<g id="edge42" class="edge"><title>StatSeq1&#45;&gt;StatSeq2</title>
<path fill="none" stroke="black" d="M1259.7,-647.697C1259.7,-639.983 1259.7,-630.712 1259.7,-622.112"/>
<polygon fill="black" stroke="black" points="1263.2,-622.104 1259.7,-612.104 1256.2,-622.104 1263.2,-622.104"/>
</g>
<!-- StatSeq2&#45;&gt;StatSeq3 -->
<g id="edge61" class="edge"><title>StatSeq2&#45;&gt;StatSeq3</title>
<path fill="none" stroke="black" d="M1259.7,-575.697C1259.7,-567.983 1259.7,-558.712 1259.7,-550.112"/>
<polygon fill="black" stroke="black" points="1263.2,-550.104 1259.7,-540.104 1256.2,-550.104 1263.2,-550.104"/>
</g>
<!-- StatSeq2&#45;&gt;StatMove0 -->
<g id="edge60" class="edge"><title>StatSeq2&#45;&gt;StatMove0</title>
<path fill="none" stroke="black" d="M1229,-581.452C1222.39,-579.335 1215.37,-577.366 1208.7,-576 996.269,-532.54 737.647,-524.477 622.714,-523.147"/>
<polygon fill="black" stroke="black" points="622.741,-519.647 612.705,-523.044 622.669,-526.647 622.741,-519.647"/>
</g>
<!-- Value1: 4 -->
<g id="node52" class="node"><title>Value1: 4</title>
<ellipse fill="none" stroke="black" cx="345.696" cy="-234" rx="45.4919" ry="18"/>
<text text-anchor="middle" x="345.696" y="-230.3" font-family="Times,serif" font-size="14.00">Value1: 4</text>
</g>
<!-- ExpConst1&#45;&gt;Value1: 4 -->
<g id="edge44" class="edge"><title>ExpConst1&#45;&gt;Value1: 4</title>
<path fill="none" stroke="black" d="M345.696,-287.697C345.696,-279.983 345.696,-270.712 345.696,-262.112"/>
<polygon fill="black" stroke="black" points="349.196,-262.104 345.696,-252.104 342.196,-262.104 349.196,-262.104"/>
</g>
<!-- Value6: 0 -->
<g id="node65" class="node"><title>Value6: 0</title>
<ellipse fill="none" stroke="black" cx="1466.7" cy="-18" rx="45.4919" ry="18"/>
<text text-anchor="middle" x="1466.7" y="-14.3" font-family="Times,serif" font-size="14.00">Value6: 0</text>
</g>
<!-- ExpConst6&#45;&gt;Value6: 0 -->
<g id="edge59" class="edge"><title>ExpConst6&#45;&gt;Value6: 0</title>
<path fill="none" stroke="black" d="M1466.7,-71.6966C1466.7,-63.9827 1466.7,-54.7125 1466.7,-46.1124"/>
<polygon fill="black" stroke="black" points="1470.2,-46.1043 1466.7,-36.1043 1463.2,-46.1044 1470.2,-46.1043"/>
</g>
<!-- StatSeq0 -->
<g id="node56" class="node"><title>StatSeq0</title>
<ellipse fill="none" stroke="black" cx="1195.7" cy="-738" rx="42.4939" ry="18"/>
<text text-anchor="middle" x="1195.7" y="-734.3" font-family="Times,serif" font-size="14.00">StatSeq0</text>
</g>
<!-- StatSeq0&#45;&gt;StatLabel0 -->
<g id="edge49" class="edge"><title>StatSeq0&#45;&gt;StatLabel0</title>
<path fill="none" stroke="black" d="M1180.85,-720.765C1172.81,-711.969 1162.72,-700.928 1153.77,-691.144"/>
<polygon fill="black" stroke="black" points="1156.23,-688.652 1146.9,-683.633 1151.07,-693.375 1156.23,-688.652"/>
</g>
<!-- StatSeq0&#45;&gt;StatSeq1 -->
<g id="edge50" class="edge"><title>StatSeq0&#45;&gt;StatSeq1</title>
<path fill="none" stroke="black" d="M1210.54,-720.765C1218.7,-711.841 1228.97,-700.608 1238.01,-690.719"/>
<polygon fill="black" stroke="black" points="1240.77,-692.889 1244.93,-683.147 1235.6,-688.166 1240.77,-692.889"/>
</g>
<!-- Temp1: FP -->
<g id="node58" class="node"><title>Temp1: FP</title>
<ellipse fill="none" stroke="black" cx="463.696" cy="-234" rx="50.8918" ry="18"/>
<text text-anchor="middle" x="463.696" y="-230.3" font-family="Times,serif" font-size="14.00">Temp1: FP</text>
</g>
<!-- ExpTemp1&#45;&gt;Temp1: FP -->
<g id="edge51" class="edge"><title>ExpTemp1&#45;&gt;Temp1: FP</title>
<path fill="none" stroke="black" d="M463.696,-287.697C463.696,-279.983 463.696,-270.712 463.696,-262.112"/>
<polygon fill="black" stroke="black" points="467.196,-262.104 463.696,-252.104 460.196,-262.104 467.196,-262.104"/>
</g>
<!-- Value2: 12 -->
<g id="node61" class="node"><title>Value2: 12</title>
<ellipse fill="none" stroke="black" cx="621.696" cy="-234" rx="50.0912" ry="18"/>
<text text-anchor="middle" x="621.696" y="-230.3" font-family="Times,serif" font-size="14.00">Value2: 12</text>
</g>
<!-- ExpConst2&#45;&gt;Value2: 12 -->
<g id="edge56" class="edge"><title>ExpConst2&#45;&gt;Value2: 12</title>
<path fill="none" stroke="black" d="M652.013,-288.055C647.296,-279.801 641.525,-269.701 636.289,-260.538"/>
<polygon fill="black" stroke="black" points="639.29,-258.735 631.289,-251.789 633.212,-262.208 639.29,-258.735"/>
</g>
<!-- ExpConst3 -->
<g id="node63" class="node"><title>ExpConst3</title>
<ellipse fill="none" stroke="black" cx="837.696" cy="-90" rx="50.0912" ry="18"/>
<text text-anchor="middle" x="837.696" y="-86.3" font-family="Times,serif" font-size="14.00">ExpConst3</text>
</g>
<!-- Value3: 0 -->
<g id="node64" class="node"><title>Value3: 0</title>
<ellipse fill="none" stroke="black" cx="837.696" cy="-18" rx="45.4919" ry="18"/>
<text text-anchor="middle" x="837.696" y="-14.3" font-family="Times,serif" font-size="14.00">Value3: 0</text>
</g>
<!-- ExpConst3&#45;&gt;Value3: 0 -->
<g id="edge58" class="edge"><title>ExpConst3&#45;&gt;Value3: 0</title>
<path fill="none" stroke="black" d="M837.696,-71.6966C837.696,-63.9827 837.696,-54.7125 837.696,-46.1124"/>
<polygon fill="black" stroke="black" points="841.196,-46.1043 837.696,-36.1043 834.196,-46.1044 841.196,-46.1043"/>
</g>
<!-- ExpTemp2 -->
<g id="node66" class="node"><title>ExpTemp2</title>
<ellipse fill="none" stroke="black" cx="639.696" cy="-90" rx="50.0912" ry="18"/>
<text text-anchor="middle" x="639.696" y="-86.3" font-family="Times,serif" font-size="14.00">ExpTemp2</text>
</g>
<!-- Temp2: FP -->
<g id="node67" class="node"><title>Temp2: FP</title>
<ellipse fill="none" stroke="black" cx="639.696" cy="-18" rx="50.8918" ry="18"/>
<text text-anchor="middle" x="639.696" y="-14.3" font-family="Times,serif" font-size="14.00">Temp2: FP</text>
</g>
<!-- ExpTemp2&#45;&gt;Temp2: FP -->
<g id="edge62" class="edge"><title>ExpTemp2&#45;&gt;Temp2: FP</title>
<path fill="none" stroke="black" d="M639.696,-71.6966C639.696,-63.9827 639.696,-54.7125 639.696,-46.1124"/>
<polygon fill="black" stroke="black" points="643.196,-46.1043 639.696,-36.1043 636.196,-46.1044 643.196,-46.1043"/>
</g>
<!-- ExpBinary4&#45;&gt;ExpConst3 -->
<g id="edge65" class="edge"><title>ExpBinary4&#45;&gt;ExpConst3</title>
<path fill="none" stroke="black" d="M760.667,-145.465C774.476,-135.7 792.477,-122.972 807.605,-112.276"/>
<polygon fill="black" stroke="black" points="809.982,-114.882 816.126,-106.251 805.94,-109.167 809.982,-114.882"/>
</g>
<!-- ExpBinary4&#45;&gt;ExpTemp2 -->
<g id="edge63" class="edge"><title>ExpBinary4&#45;&gt;ExpTemp2</title>
<path fill="none" stroke="black" d="M716.724,-145.465C702.915,-135.7 684.914,-122.972 669.786,-112.276"/>
<polygon fill="black" stroke="black" points="671.451,-109.167 661.265,-106.251 667.409,-114.882 671.451,-109.167"/>
</g>
<!-- Plus3 -->
<g id="node69" class="node"><title>Plus3</title>
<ellipse fill="none" stroke="black" cx="738.696" cy="-90" rx="30.5947" ry="18"/>
<text text-anchor="middle" x="738.696" y="-86.3" font-family="Times,serif" font-size="14.00">Plus3</text>
</g>
<!-- ExpBinary4&#45;&gt;Plus3 -->
<g id="edge64" class="edge"><title>ExpBinary4&#45;&gt;Plus3</title>
<path fill="none" stroke="black" d="M738.696,-143.697C738.696,-135.983 738.696,-126.712 738.696,-118.112"/>
<polygon fill="black" stroke="black" points="742.196,-118.104 738.696,-108.104 735.196,-118.104 742.196,-118.104"/>
</g>
</g>
</svg>
