<?xml version="1.0" encoding="UTF-8" standalone="no"?>
<!DOCTYPE svg PUBLIC "-//W3C//DTD SVG 1.1//EN"
 "http://www.w3.org/Graphics/SVG/1.1/DTD/svg11.dtd">
<!-- Generated by graphviz version 2.38.0 (20140413.2041)
 -->
<!-- Title: %3 Pages: 1 -->
<svg width="1876pt" height="764pt"
 viewBox="0.00 0.00 1875.74 764.00" xmlns="http://www.w3.org/2000/svg" xmlns:xlink="http://www.w3.org/1999/xlink">
<g id="graph0" class="graph" transform="scale(1 1) rotate(0) translate(4 760)">
<title>%3</title>
<polygon fill="white" stroke="none" points="-4,4 -4,-760 1871.74,-760 1871.74,4 -4,4"/>
<!-- ExpTemp6 -->
<g id="node1" class="node"><title>ExpTemp6</title>
<ellipse fill="none" stroke="black" cx="1413.7" cy="-522" rx="50.0912" ry="18"/>
<text text-anchor="middle" x="1413.7" y="-518.3" font-family="Times,serif" font-size="14.00">ExpTemp6</text>
</g>
<!-- Temp6: RetVal -->
<g id="node2" class="node"><title>Temp6: RetVal</title>
<ellipse fill="none" stroke="black" cx="1413.7" cy="-450" rx="65.7887" ry="18"/>
<text text-anchor="middle" x="1413.7" y="-446.3" font-family="Times,serif" font-size="14.00">Temp6: RetVal</text>
</g>
<!-- ExpTemp6&#45;&gt;Temp6: RetVal -->
<g id="edge1" class="edge"><title>ExpTemp6&#45;&gt;Temp6: RetVal</title>
<path fill="none" stroke="black" d="M1413.7,-503.697C1413.7,-495.983 1413.7,-486.712 1413.7,-478.112"/>
<polygon fill="black" stroke="black" points="1417.2,-478.104 1413.7,-468.104 1410.2,-478.104 1417.2,-478.104"/>
</g>
<!-- StatSeq1 -->
<g id="node3" class="node"><title>StatSeq1</title>
<ellipse fill="none" stroke="black" cx="1220.7" cy="-666" rx="42.4939" ry="18"/>
<text text-anchor="middle" x="1220.7" y="-662.3" font-family="Times,serif" font-size="14.00">StatSeq1</text>
</g>
<!-- StatSeq2 -->
<g id="node4" class="node"><title>StatSeq2</title>
<ellipse fill="none" stroke="black" cx="1220.7" cy="-594" rx="42.4939" ry="18"/>
<text text-anchor="middle" x="1220.7" y="-590.3" font-family="Times,serif" font-size="14.00">StatSeq2</text>
</g>
<!-- StatSeq1&#45;&gt;StatSeq2 -->
<g id="edge2" class="edge"><title>StatSeq1&#45;&gt;StatSeq2</title>
<path fill="none" stroke="black" d="M1220.7,-647.697C1220.7,-639.983 1220.7,-630.712 1220.7,-622.112"/>
<polygon fill="black" stroke="black" points="1224.2,-622.104 1220.7,-612.104 1217.2,-622.104 1224.2,-622.104"/>
</g>
<!-- StatMove3 -->
<g id="node5" class="node"><title>StatMove3</title>
<ellipse fill="none" stroke="black" cx="1413.7" cy="-594" rx="50.0912" ry="18"/>
<text text-anchor="middle" x="1413.7" y="-590.3" font-family="Times,serif" font-size="14.00">StatMove3</text>
</g>
<!-- StatSeq1&#45;&gt;StatMove3 -->
<g id="edge3" class="edge"><title>StatSeq1&#45;&gt;StatMove3</title>
<path fill="none" stroke="black" d="M1251.7,-653.753C1283.75,-642.131 1334.03,-623.892 1370.08,-610.819"/>
<polygon fill="black" stroke="black" points="1371.63,-613.979 1379.84,-607.279 1369.25,-607.398 1371.63,-613.979"/>
</g>
<!-- StatSeq3 -->
<g id="node17" class="node"><title>StatSeq3</title>
<ellipse fill="none" stroke="black" cx="1220.7" cy="-522" rx="42.4939" ry="18"/>
<text text-anchor="middle" x="1220.7" y="-518.3" font-family="Times,serif" font-size="14.00">StatSeq3</text>
</g>
<!-- StatSeq2&#45;&gt;StatSeq3 -->
<g id="edge59" class="edge"><title>StatSeq2&#45;&gt;StatSeq3</title>
<path fill="none" stroke="black" d="M1220.7,-575.697C1220.7,-567.983 1220.7,-558.712 1220.7,-550.112"/>
<polygon fill="black" stroke="black" points="1224.2,-550.104 1220.7,-540.104 1217.2,-550.104 1224.2,-550.104"/>
</g>
<!-- StatMove0 -->
<g id="node26" class="node"><title>StatMove0</title>
<ellipse fill="none" stroke="black" cx="551.696" cy="-522" rx="50.0912" ry="18"/>
<text text-anchor="middle" x="551.696" y="-518.3" font-family="Times,serif" font-size="14.00">StatMove0</text>
</g>
<!-- StatSeq2&#45;&gt;StatMove0 -->
<g id="edge58" class="edge"><title>StatSeq2&#45;&gt;StatMove0</title>
<path fill="none" stroke="black" d="M1190,-581.471C1183.38,-579.352 1176.37,-577.378 1169.7,-576 968.229,-534.394 723.301,-525.37 611.967,-523.469"/>
<polygon fill="black" stroke="black" points="611.99,-519.969 601.936,-523.311 611.88,-526.968 611.99,-519.969"/>
</g>
<!-- StatMove3&#45;&gt;ExpTemp6 -->
<g id="edge4" class="edge"><title>StatMove3&#45;&gt;ExpTemp6</title>
<path fill="none" stroke="black" d="M1413.7,-575.697C1413.7,-567.983 1413.7,-558.712 1413.7,-550.112"/>
<polygon fill="black" stroke="black" points="1417.2,-550.104 1413.7,-540.104 1410.2,-550.104 1417.2,-550.104"/>
</g>
<!-- ExpCall9 -->
<g id="node6" class="node"><title>ExpCall9</title>
<ellipse fill="none" stroke="black" cx="1533.7" cy="-522" rx="44.393" ry="18"/>
<text text-anchor="middle" x="1533.7" y="-518.3" font-family="Times,serif" font-size="14.00">ExpCall9</text>
</g>
<!-- StatMove3&#45;&gt;ExpCall9 -->
<g id="edge5" class="edge"><title>StatMove3&#45;&gt;ExpCall9</title>
<path fill="none" stroke="black" d="M1438.85,-578.326C1456.77,-567.874 1481.03,-553.721 1500.53,-542.346"/>
<polygon fill="black" stroke="black" points="1502.52,-545.239 1509.39,-537.177 1498.99,-539.192 1502.52,-545.239"/>
</g>
<!-- Value9: 1 -->
<g id="node43" class="node"><title>Value9: 1</title>
<ellipse fill="none" stroke="black" cx="1542.7" cy="-450" rx="45.4919" ry="18"/>
<text text-anchor="middle" x="1542.7" y="-446.3" font-family="Times,serif" font-size="14.00">Value9: 1</text>
</g>
<!-- ExpCall9&#45;&gt;Value9: 1 -->
<g id="edge35" class="edge"><title>ExpCall9&#45;&gt;Value9: 1</title>
<path fill="none" stroke="black" d="M1535.92,-503.697C1536.91,-495.983 1538.1,-486.712 1539.21,-478.112"/>
<polygon fill="black" stroke="black" points="1542.69,-478.469 1540.5,-468.104 1535.75,-477.576 1542.69,-478.469"/>
</g>
<!-- ExpBinary8 -->
<g id="node7" class="node"><title>ExpBinary8</title>
<ellipse fill="none" stroke="black" cx="1674.7" cy="-306" rx="53.0913" ry="18"/>
<text text-anchor="middle" x="1674.7" y="-302.3" font-family="Times,serif" font-size="14.00">ExpBinary8</text>
</g>
<!-- ExpTemp5 -->
<g id="node8" class="node"><title>ExpTemp5</title>
<ellipse fill="none" stroke="black" cx="1625.7" cy="-234" rx="50.0912" ry="18"/>
<text text-anchor="middle" x="1625.7" y="-230.3" font-family="Times,serif" font-size="14.00">ExpTemp5</text>
</g>
<!-- ExpBinary8&#45;&gt;ExpTemp5 -->
<g id="edge6" class="edge"><title>ExpBinary8&#45;&gt;ExpTemp5</title>
<path fill="none" stroke="black" d="M1663.08,-288.411C1657.19,-279.992 1649.9,-269.585 1643.34,-260.201"/>
<polygon fill="black" stroke="black" points="1646.17,-258.141 1637.56,-251.956 1640.43,-262.156 1646.17,-258.141"/>
</g>
<!-- Plus8 -->
<g id="node9" class="node"><title>Plus8</title>
<ellipse fill="none" stroke="black" cx="1724.7" cy="-234" rx="30.5947" ry="18"/>
<text text-anchor="middle" x="1724.7" y="-230.3" font-family="Times,serif" font-size="14.00">Plus8</text>
</g>
<!-- ExpBinary8&#45;&gt;Plus8 -->
<g id="edge7" class="edge"><title>ExpBinary8&#45;&gt;Plus8</title>
<path fill="none" stroke="black" d="M1686.54,-288.411C1692.74,-279.744 1700.43,-268.971 1707.28,-259.375"/>
<polygon fill="black" stroke="black" points="1710.31,-261.16 1713.28,-250.988 1704.61,-257.091 1710.31,-261.16"/>
</g>
<!-- ExpCall8 -->
<g id="node10" class="node"><title>ExpCall8</title>
<ellipse fill="none" stroke="black" cx="1817.7" cy="-234" rx="44.393" ry="18"/>
<text text-anchor="middle" x="1817.7" y="-230.3" font-family="Times,serif" font-size="14.00">ExpCall8</text>
</g>
<!-- ExpBinary8&#45;&gt;ExpCall8 -->
<g id="edge8" class="edge"><title>ExpBinary8&#45;&gt;ExpCall8</title>
<path fill="none" stroke="black" d="M1703.63,-290.834C1725.97,-279.901 1757.01,-264.704 1781.08,-252.924"/>
<polygon fill="black" stroke="black" points="1782.81,-255.972 1790.26,-248.432 1779.74,-249.685 1782.81,-255.972"/>
</g>
<!-- Temp5: FP -->
<g id="node57" class="node"><title>Temp5: FP</title>
<ellipse fill="none" stroke="black" cx="1625.7" cy="-162" rx="50.8918" ry="18"/>
<text text-anchor="middle" x="1625.7" y="-158.3" font-family="Times,serif" font-size="14.00">Temp5: FP</text>
</g>
<!-- ExpTemp5&#45;&gt;Temp5: FP -->
<g id="edge50" class="edge"><title>ExpTemp5&#45;&gt;Temp5: FP</title>
<path fill="none" stroke="black" d="M1625.7,-215.697C1625.7,-207.983 1625.7,-198.712 1625.7,-190.112"/>
<polygon fill="black" stroke="black" points="1629.2,-190.104 1625.7,-180.104 1622.2,-190.104 1629.2,-190.104"/>
</g>
<!-- Value8: 12 -->
<g id="node38" class="node"><title>Value8: 12</title>
<ellipse fill="none" stroke="black" cx="1817.7" cy="-162" rx="50.0912" ry="18"/>
<text text-anchor="middle" x="1817.7" y="-158.3" font-family="Times,serif" font-size="14.00">Value8: 12</text>
</g>
<!-- ExpCall8&#45;&gt;Value8: 12 -->
<g id="edge31" class="edge"><title>ExpCall8&#45;&gt;Value8: 12</title>
<path fill="none" stroke="black" d="M1817.7,-215.697C1817.7,-207.983 1817.7,-198.712 1817.7,-190.112"/>
<polygon fill="black" stroke="black" points="1821.2,-190.104 1817.7,-180.104 1814.2,-190.104 1821.2,-190.104"/>
</g>
<!-- StatMove2 -->
<g id="node11" class="node"><title>StatMove2</title>
<ellipse fill="none" stroke="black" cx="1279.7" cy="-450" rx="50.0912" ry="18"/>
<text text-anchor="middle" x="1279.7" y="-446.3" font-family="Times,serif" font-size="14.00">StatMove2</text>
</g>
<!-- ExpMem6 -->
<g id="node12" class="node"><title>ExpMem6</title>
<ellipse fill="none" stroke="black" cx="1300.7" cy="-378" rx="48.9926" ry="18"/>
<text text-anchor="middle" x="1300.7" y="-374.3" font-family="Times,serif" font-size="14.00">ExpMem6</text>
</g>
<!-- StatMove2&#45;&gt;ExpMem6 -->
<g id="edge9" class="edge"><title>StatMove2&#45;&gt;ExpMem6</title>
<path fill="none" stroke="black" d="M1284.78,-432.055C1287.12,-424.261 1289.95,-414.822 1292.57,-406.079"/>
<polygon fill="black" stroke="black" points="1295.99,-406.859 1295.51,-396.275 1289.29,-404.848 1295.99,-406.859"/>
</g>
<!-- ExpMem8 -->
<g id="node13" class="node"><title>ExpMem8</title>
<ellipse fill="none" stroke="black" cx="1519.7" cy="-378" rx="48.9926" ry="18"/>
<text text-anchor="middle" x="1519.7" y="-374.3" font-family="Times,serif" font-size="14.00">ExpMem8</text>
</g>
<!-- StatMove2&#45;&gt;ExpMem8 -->
<g id="edge10" class="edge"><title>StatMove2&#45;&gt;ExpMem8</title>
<path fill="none" stroke="black" d="M1317.2,-438.062C1359.2,-425.811 1427.35,-405.935 1472.83,-392.669"/>
<polygon fill="black" stroke="black" points="1473.84,-396.021 1482.46,-389.861 1471.88,-389.301 1473.84,-396.021"/>
</g>
<!-- ExpBinary6 -->
<g id="node14" class="node"><title>ExpBinary6</title>
<ellipse fill="none" stroke="black" cx="1370.7" cy="-306" rx="53.0913" ry="18"/>
<text text-anchor="middle" x="1370.7" y="-302.3" font-family="Times,serif" font-size="14.00">ExpBinary6</text>
</g>
<!-- ExpMem6&#45;&gt;ExpBinary6 -->
<g id="edge11" class="edge"><title>ExpMem6&#45;&gt;ExpBinary6</title>
<path fill="none" stroke="black" d="M1316.93,-360.765C1325.81,-351.882 1336.99,-340.709 1346.84,-330.854"/>
<polygon fill="black" stroke="black" points="1349.47,-333.179 1354.06,-323.633 1344.52,-328.23 1349.47,-333.179"/>
</g>
<!-- ExpMem8&#45;&gt;ExpBinary8 -->
<g id="edge38" class="edge"><title>ExpMem8&#45;&gt;ExpBinary8</title>
<path fill="none" stroke="black" d="M1549.21,-363.669C1573.39,-352.752 1607.83,-337.199 1634.51,-325.147"/>
<polygon fill="black" stroke="black" points="1636.29,-328.186 1643.96,-320.88 1633.41,-321.807 1636.29,-328.186"/>
</g>
<!-- ExpCall7 -->
<g id="node29" class="node"><title>ExpCall7</title>
<ellipse fill="none" stroke="black" cx="1512.7" cy="-234" rx="44.393" ry="18"/>
<text text-anchor="middle" x="1512.7" y="-230.3" font-family="Times,serif" font-size="14.00">ExpCall7</text>
</g>
<!-- ExpBinary6&#45;&gt;ExpCall7 -->
<g id="edge29" class="edge"><title>ExpBinary6&#45;&gt;ExpCall7</title>
<path fill="none" stroke="black" d="M1399.43,-290.834C1421.61,-279.901 1452.44,-264.704 1476.33,-252.924"/>
<polygon fill="black" stroke="black" points="1478.03,-255.993 1485.45,-248.432 1474.93,-249.714 1478.03,-255.993"/>
</g>
<!-- ExpMem7 -->
<g id="node35" class="node"><title>ExpMem7</title>
<ellipse fill="none" stroke="black" cx="1322.7" cy="-234" rx="48.9926" ry="18"/>
<text text-anchor="middle" x="1322.7" y="-230.3" font-family="Times,serif" font-size="14.00">ExpMem7</text>
</g>
<!-- ExpBinary6&#45;&gt;ExpMem7 -->
<g id="edge27" class="edge"><title>ExpBinary6&#45;&gt;ExpMem7</title>
<path fill="none" stroke="black" d="M1359.32,-288.411C1353.61,-280.077 1346.56,-269.797 1340.17,-260.488"/>
<polygon fill="black" stroke="black" points="1342.86,-258.224 1334.32,-251.956 1337.09,-262.183 1342.86,-258.224"/>
</g>
<!-- Plus7 -->
<g id="node36" class="node"><title>Plus7</title>
<ellipse fill="none" stroke="black" cx="1419.7" cy="-234" rx="30.5947" ry="18"/>
<text text-anchor="middle" x="1419.7" y="-230.3" font-family="Times,serif" font-size="14.00">Plus7</text>
</g>
<!-- ExpBinary6&#45;&gt;Plus7 -->
<g id="edge28" class="edge"><title>ExpBinary6&#45;&gt;Plus7</title>
<path fill="none" stroke="black" d="M1382.31,-288.411C1388.37,-279.744 1395.92,-268.971 1402.63,-259.375"/>
<polygon fill="black" stroke="black" points="1405.64,-261.188 1408.5,-250.988 1399.9,-257.173 1405.64,-261.188"/>
</g>
<!-- ExpTemp4 -->
<g id="node15" class="node"><title>ExpTemp4</title>
<ellipse fill="none" stroke="black" cx="1226.7" cy="-90" rx="50.0912" ry="18"/>
<text text-anchor="middle" x="1226.7" y="-86.3" font-family="Times,serif" font-size="14.00">ExpTemp4</text>
</g>
<!-- Temp4: FP -->
<g id="node16" class="node"><title>Temp4: FP</title>
<ellipse fill="none" stroke="black" cx="1226.7" cy="-18" rx="50.8918" ry="18"/>
<text text-anchor="middle" x="1226.7" y="-14.3" font-family="Times,serif" font-size="14.00">Temp4: FP</text>
</g>
<!-- ExpTemp4&#45;&gt;Temp4: FP -->
<g id="edge12" class="edge"><title>ExpTemp4&#45;&gt;Temp4: FP</title>
<path fill="none" stroke="black" d="M1226.7,-71.6966C1226.7,-63.9827 1226.7,-54.7125 1226.7,-46.1124"/>
<polygon fill="black" stroke="black" points="1230.2,-46.1043 1226.7,-36.1043 1223.2,-46.1044 1230.2,-46.1043"/>
</g>
<!-- StatSeq3&#45;&gt;StatMove2 -->
<g id="edge14" class="edge"><title>StatSeq3&#45;&gt;StatMove2</title>
<path fill="none" stroke="black" d="M1234.38,-504.765C1241.72,-496.056 1250.91,-485.147 1259.1,-475.435"/>
<polygon fill="black" stroke="black" points="1261.91,-477.535 1265.68,-467.633 1256.55,-473.024 1261.91,-477.535"/>
</g>
<!-- StatMove1 -->
<g id="node18" class="node"><title>StatMove1</title>
<ellipse fill="none" stroke="black" cx="1118.7" cy="-450" rx="50.0912" ry="18"/>
<text text-anchor="middle" x="1118.7" y="-446.3" font-family="Times,serif" font-size="14.00">StatMove1</text>
</g>
<!-- StatSeq3&#45;&gt;StatMove1 -->
<g id="edge13" class="edge"><title>StatSeq3&#45;&gt;StatMove1</title>
<path fill="none" stroke="black" d="M1199.06,-506.155C1184.66,-496.267 1165.5,-483.124 1149.51,-472.148"/>
<polygon fill="black" stroke="black" points="1151.23,-469.08 1141,-466.308 1147.27,-474.852 1151.23,-469.08"/>
</g>
<!-- ExpMem5 -->
<g id="node24" class="node"><title>ExpMem5</title>
<ellipse fill="none" stroke="black" cx="1118.7" cy="-378" rx="48.9926" ry="18"/>
<text text-anchor="middle" x="1118.7" y="-374.3" font-family="Times,serif" font-size="14.00">ExpMem5</text>
</g>
<!-- StatMove1&#45;&gt;ExpMem5 -->
<g id="edge21" class="edge"><title>StatMove1&#45;&gt;ExpMem5</title>
<path fill="none" stroke="black" d="M1118.7,-431.697C1118.7,-423.983 1118.7,-414.712 1118.7,-406.112"/>
<polygon fill="black" stroke="black" points="1122.2,-406.104 1118.7,-396.104 1115.2,-406.104 1122.2,-406.104"/>
</g>
<!-- ExpMem3 -->
<g id="node25" class="node"><title>ExpMem3</title>
<ellipse fill="none" stroke="black" cx="954.696" cy="-378" rx="48.9926" ry="18"/>
<text text-anchor="middle" x="954.696" y="-374.3" font-family="Times,serif" font-size="14.00">ExpMem3</text>
</g>
<!-- StatMove1&#45;&gt;ExpMem3 -->
<g id="edge20" class="edge"><title>StatMove1&#45;&gt;ExpMem3</title>
<path fill="none" stroke="black" d="M1087.46,-435.669C1061.08,-424.407 1023.13,-408.21 994.558,-396.014"/>
<polygon fill="black" stroke="black" points="995.828,-392.751 985.257,-392.045 993.08,-399.189 995.828,-392.751"/>
</g>
<!-- ExpBinary5 -->
<g id="node19" class="node"><title>ExpBinary5</title>
<ellipse fill="none" stroke="black" cx="1118.7" cy="-306" rx="53.0913" ry="18"/>
<text text-anchor="middle" x="1118.7" y="-302.3" font-family="Times,serif" font-size="14.00">ExpBinary5</text>
</g>
<!-- ExpTemp3 -->
<g id="node20" class="node"><title>ExpTemp3</title>
<ellipse fill="none" stroke="black" cx="1019.7" cy="-234" rx="50.0912" ry="18"/>
<text text-anchor="middle" x="1019.7" y="-230.3" font-family="Times,serif" font-size="14.00">ExpTemp3</text>
</g>
<!-- ExpBinary5&#45;&gt;ExpTemp3 -->
<g id="edge15" class="edge"><title>ExpBinary5&#45;&gt;ExpTemp3</title>
<path fill="none" stroke="black" d="M1096.72,-289.465C1082.91,-279.7 1064.91,-266.972 1049.79,-256.276"/>
<polygon fill="black" stroke="black" points="1051.45,-253.167 1041.26,-250.251 1047.41,-258.882 1051.45,-253.167"/>
</g>
<!-- Plus5 -->
<g id="node21" class="node"><title>Plus5</title>
<ellipse fill="none" stroke="black" cx="1118.7" cy="-234" rx="30.5947" ry="18"/>
<text text-anchor="middle" x="1118.7" y="-230.3" font-family="Times,serif" font-size="14.00">Plus5</text>
</g>
<!-- ExpBinary5&#45;&gt;Plus5 -->
<g id="edge16" class="edge"><title>ExpBinary5&#45;&gt;Plus5</title>
<path fill="none" stroke="black" d="M1118.7,-287.697C1118.7,-279.983 1118.7,-270.712 1118.7,-262.112"/>
<polygon fill="black" stroke="black" points="1122.2,-262.104 1118.7,-252.104 1115.2,-262.104 1122.2,-262.104"/>
</g>
<!-- ExpCall5 -->
<g id="node22" class="node"><title>ExpCall5</title>
<ellipse fill="none" stroke="black" cx="1211.7" cy="-234" rx="44.393" ry="18"/>
<text text-anchor="middle" x="1211.7" y="-230.3" font-family="Times,serif" font-size="14.00">ExpCall5</text>
</g>
<!-- ExpBinary5&#45;&gt;ExpCall5 -->
<g id="edge17" class="edge"><title>ExpBinary5&#45;&gt;ExpCall5</title>
<path fill="none" stroke="black" d="M1139.8,-289.116C1152.67,-279.429 1169.28,-266.923 1183.3,-256.374"/>
<polygon fill="black" stroke="black" points="1185.75,-258.912 1191.63,-250.101 1181.54,-253.319 1185.75,-258.912"/>
</g>
<!-- Temp3: FP -->
<g id="node23" class="node"><title>Temp3: FP</title>
<ellipse fill="none" stroke="black" cx="1020.7" cy="-162" rx="50.8918" ry="18"/>
<text text-anchor="middle" x="1020.7" y="-158.3" font-family="Times,serif" font-size="14.00">Temp3: FP</text>
</g>
<!-- ExpTemp3&#45;&gt;Temp3: FP -->
<g id="edge18" class="edge"><title>ExpTemp3&#45;&gt;Temp3: FP</title>
<path fill="none" stroke="black" d="M1019.94,-215.697C1020.05,-207.983 1020.19,-198.712 1020.31,-190.112"/>
<polygon fill="black" stroke="black" points="1023.81,-190.153 1020.45,-180.104 1016.81,-190.053 1023.81,-190.153"/>
</g>
<!-- Value5: 8 -->
<g id="node70" class="node"><title>Value5: 8</title>
<ellipse fill="none" stroke="black" cx="1208.7" cy="-162" rx="45.4919" ry="18"/>
<text text-anchor="middle" x="1208.7" y="-158.3" font-family="Times,serif" font-size="14.00">Value5: 8</text>
</g>
<!-- ExpCall5&#45;&gt;Value5: 8 -->
<g id="edge69" class="edge"><title>ExpCall5&#45;&gt;Value5: 8</title>
<path fill="none" stroke="black" d="M1210.95,-215.697C1210.62,-207.983 1210.23,-198.712 1209.86,-190.112"/>
<polygon fill="black" stroke="black" points="1213.35,-189.945 1209.43,-180.104 1206.36,-190.245 1213.35,-189.945"/>
</g>
<!-- ExpMem5&#45;&gt;ExpBinary5 -->
<g id="edge19" class="edge"><title>ExpMem5&#45;&gt;ExpBinary5</title>
<path fill="none" stroke="black" d="M1118.7,-359.697C1118.7,-351.983 1118.7,-342.712 1118.7,-334.112"/>
<polygon fill="black" stroke="black" points="1122.2,-334.104 1118.7,-324.104 1115.2,-334.104 1122.2,-334.104"/>
</g>
<!-- ExpBinary3 -->
<g id="node44" class="node"><title>ExpBinary3</title>
<ellipse fill="none" stroke="black" cx="860.696" cy="-306" rx="53.0913" ry="18"/>
<text text-anchor="middle" x="860.696" y="-302.3" font-family="Times,serif" font-size="14.00">ExpBinary3</text>
</g>
<!-- ExpMem3&#45;&gt;ExpBinary3 -->
<g id="edge36" class="edge"><title>ExpMem3&#45;&gt;ExpBinary3</title>
<path fill="none" stroke="black" d="M933.834,-361.465C920.903,-351.835 904.101,-339.323 889.862,-328.72"/>
<polygon fill="black" stroke="black" points="891.935,-325.899 881.824,-322.734 887.754,-331.514 891.935,-325.899"/>
</g>
<!-- ExpMem0 -->
<g id="node27" class="node"><title>ExpMem0</title>
<ellipse fill="none" stroke="black" cx="341.696" cy="-450" rx="48.9926" ry="18"/>
<text text-anchor="middle" x="341.696" y="-446.3" font-family="Times,serif" font-size="14.00">ExpMem0</text>
</g>
<!-- StatMove0&#45;&gt;ExpMem0 -->
<g id="edge22" class="edge"><title>StatMove0&#45;&gt;ExpMem0</title>
<path fill="none" stroke="black" d="M516.072,-509.125C480.408,-497.238 425.417,-478.907 386.744,-466.016"/>
<polygon fill="black" stroke="black" points="387.387,-462.541 376.793,-462.699 385.173,-469.182 387.387,-462.541"/>
</g>
<!-- ExpMem2 -->
<g id="node28" class="node"><title>ExpMem2</title>
<ellipse fill="none" stroke="black" cx="551.696" cy="-450" rx="48.9926" ry="18"/>
<text text-anchor="middle" x="551.696" y="-446.3" font-family="Times,serif" font-size="14.00">ExpMem2</text>
</g>
<!-- StatMove0&#45;&gt;ExpMem2 -->
<g id="edge23" class="edge"><title>StatMove0&#45;&gt;ExpMem2</title>
<path fill="none" stroke="black" d="M551.696,-503.697C551.696,-495.983 551.696,-486.712 551.696,-478.112"/>
<polygon fill="black" stroke="black" points="555.196,-478.104 551.696,-468.104 548.196,-478.104 555.196,-478.104"/>
</g>
<!-- ExpBinary0 -->
<g id="node37" class="node"><title>ExpBinary0</title>
<ellipse fill="none" stroke="black" cx="293.696" cy="-378" rx="53.0913" ry="18"/>
<text text-anchor="middle" x="293.696" y="-374.3" font-family="Times,serif" font-size="14.00">ExpBinary0</text>
</g>
<!-- ExpMem0&#45;&gt;ExpBinary0 -->
<g id="edge30" class="edge"><title>ExpMem0&#45;&gt;ExpBinary0</title>
<path fill="none" stroke="black" d="M330.32,-432.411C324.606,-424.077 317.556,-413.797 311.173,-404.488"/>
<polygon fill="black" stroke="black" points="313.865,-402.224 305.323,-395.956 308.091,-406.183 313.865,-402.224"/>
</g>
<!-- ExpBinary2 -->
<g id="node46" class="node"><title>ExpBinary2</title>
<ellipse fill="none" stroke="black" cx="551.696" cy="-378" rx="53.0913" ry="18"/>
<text text-anchor="middle" x="551.696" y="-374.3" font-family="Times,serif" font-size="14.00">ExpBinary2</text>
</g>
<!-- ExpMem2&#45;&gt;ExpBinary2 -->
<g id="edge46" class="edge"><title>ExpMem2&#45;&gt;ExpBinary2</title>
<path fill="none" stroke="black" d="M551.696,-431.697C551.696,-423.983 551.696,-414.712 551.696,-406.112"/>
<polygon fill="black" stroke="black" points="555.196,-406.104 551.696,-396.104 548.196,-406.104 555.196,-406.104"/>
</g>
<!-- Value7: 4 -->
<g id="node30" class="node"><title>Value7: 4</title>
<ellipse fill="none" stroke="black" cx="1511.7" cy="-162" rx="45.4919" ry="18"/>
<text text-anchor="middle" x="1511.7" y="-158.3" font-family="Times,serif" font-size="14.00">Value7: 4</text>
</g>
<!-- ExpCall7&#45;&gt;Value7: 4 -->
<g id="edge24" class="edge"><title>ExpCall7&#45;&gt;Value7: 4</title>
<path fill="none" stroke="black" d="M1512.45,-215.697C1512.34,-207.983 1512.21,-198.712 1512.08,-190.112"/>
<polygon fill="black" stroke="black" points="1515.58,-190.053 1511.94,-180.104 1508.58,-190.153 1515.58,-190.053"/>
</g>
<!-- ExpCall2 -->
<g id="node31" class="node"><title>ExpCall2</title>
<ellipse fill="none" stroke="black" cx="644.696" cy="-306" rx="44.393" ry="18"/>
<text text-anchor="middle" x="644.696" y="-302.3" font-family="Times,serif" font-size="14.00">ExpCall2</text>
</g>
<!-- Value2: 4 -->
<g id="node32" class="node"><title>Value2: 4</title>
<ellipse fill="none" stroke="black" cx="605.696" cy="-234" rx="45.4919" ry="18"/>
<text text-anchor="middle" x="605.696" y="-230.3" font-family="Times,serif" font-size="14.00">Value2: 4</text>
</g>
<!-- ExpCall2&#45;&gt;Value2: 4 -->
<g id="edge25" class="edge"><title>ExpCall2&#45;&gt;Value2: 4</title>
<path fill="none" stroke="black" d="M635.255,-288.055C630.656,-279.801 625.029,-269.701 619.924,-260.538"/>
<polygon fill="black" stroke="black" points="622.974,-258.821 615.049,-251.789 616.859,-262.228 622.974,-258.821"/>
</g>
<!-- ExpCall1 -->
<g id="node33" class="node"><title>ExpCall1</title>
<ellipse fill="none" stroke="black" cx="339.696" cy="-306" rx="44.393" ry="18"/>
<text text-anchor="middle" x="339.696" y="-302.3" font-family="Times,serif" font-size="14.00">ExpCall1</text>
</g>
<!-- Value1: 0 -->
<g id="node34" class="node"><title>Value1: 0</title>
<ellipse fill="none" stroke="black" cx="338.696" cy="-234" rx="45.4919" ry="18"/>
<text text-anchor="middle" x="338.696" y="-230.3" font-family="Times,serif" font-size="14.00">Value1: 0</text>
</g>
<!-- ExpCall1&#45;&gt;Value1: 0 -->
<g id="edge26" class="edge"><title>ExpCall1&#45;&gt;Value1: 0</title>
<path fill="none" stroke="black" d="M339.448,-287.697C339.338,-279.983 339.206,-270.712 339.083,-262.112"/>
<polygon fill="black" stroke="black" points="342.582,-262.053 338.94,-252.104 335.583,-262.153 342.582,-262.053"/>
</g>
<!-- ExpBinary7 -->
<g id="node51" class="node"><title>ExpBinary7</title>
<ellipse fill="none" stroke="black" cx="1325.7" cy="-162" rx="53.0913" ry="18"/>
<text text-anchor="middle" x="1325.7" y="-158.3" font-family="Times,serif" font-size="14.00">ExpBinary7</text>
</g>
<!-- ExpMem7&#45;&gt;ExpBinary7 -->
<g id="edge43" class="edge"><title>ExpMem7&#45;&gt;ExpBinary7</title>
<path fill="none" stroke="black" d="M1323.44,-215.697C1323.77,-207.983 1324.16,-198.712 1324.53,-190.112"/>
<polygon fill="black" stroke="black" points="1328.03,-190.245 1324.96,-180.104 1321.04,-189.945 1328.03,-190.245"/>
</g>
<!-- ExpBinary0&#45;&gt;ExpCall1 -->
<g id="edge67" class="edge"><title>ExpBinary0&#45;&gt;ExpCall1</title>
<path fill="none" stroke="black" d="M304.831,-360.055C310.312,-351.715 317.03,-341.491 323.102,-332.252"/>
<polygon fill="black" stroke="black" points="326.096,-334.068 328.663,-323.789 320.246,-330.224 326.096,-334.068"/>
</g>
<!-- ExpMem1 -->
<g id="node45" class="node"><title>ExpMem1</title>
<ellipse fill="none" stroke="black" cx="149.696" cy="-306" rx="48.9926" ry="18"/>
<text text-anchor="middle" x="149.696" y="-302.3" font-family="Times,serif" font-size="14.00">ExpMem1</text>
</g>
<!-- ExpBinary0&#45;&gt;ExpMem1 -->
<g id="edge65" class="edge"><title>ExpBinary0&#45;&gt;ExpMem1</title>
<path fill="none" stroke="black" d="M264.555,-362.834C242.354,-352.042 211.606,-337.095 187.51,-325.382"/>
<polygon fill="black" stroke="black" points="188.825,-322.13 178.301,-320.906 185.765,-328.425 188.825,-322.13"/>
</g>
<!-- Plus1 -->
<g id="node69" class="node"><title>Plus1</title>
<ellipse fill="none" stroke="black" cx="246.696" cy="-306" rx="30.5947" ry="18"/>
<text text-anchor="middle" x="246.696" y="-302.3" font-family="Times,serif" font-size="14.00">Plus1</text>
</g>
<!-- ExpBinary0&#45;&gt;Plus1 -->
<g id="edge66" class="edge"><title>ExpBinary0&#45;&gt;Plus1</title>
<path fill="none" stroke="black" d="M282.318,-360.055C276.636,-351.592 269.651,-341.19 263.377,-331.845"/>
<polygon fill="black" stroke="black" points="266.125,-329.658 257.644,-323.307 260.313,-333.56 266.125,-329.658"/>
</g>
<!-- ExpBinary1 -->
<g id="node39" class="node"><title>ExpBinary1</title>
<ellipse fill="none" stroke="black" cx="149.696" cy="-234" rx="53.0913" ry="18"/>
<text text-anchor="middle" x="149.696" y="-230.3" font-family="Times,serif" font-size="14.00">ExpBinary1</text>
</g>
<!-- ExpTemp0 -->
<g id="node40" class="node"><title>ExpTemp0</title>
<ellipse fill="none" stroke="black" cx="50.6955" cy="-162" rx="50.0912" ry="18"/>
<text text-anchor="middle" x="50.6955" y="-158.3" font-family="Times,serif" font-size="14.00">ExpTemp0</text>
</g>
<!-- ExpBinary1&#45;&gt;ExpTemp0 -->
<g id="edge32" class="edge"><title>ExpBinary1&#45;&gt;ExpTemp0</title>
<path fill="none" stroke="black" d="M127.724,-217.465C113.915,-207.7 95.9136,-194.972 80.7861,-184.276"/>
<polygon fill="black" stroke="black" points="82.4506,-181.167 72.2648,-178.251 78.4092,-186.882 82.4506,-181.167"/>
</g>
<!-- Plus0 -->
<g id="node41" class="node"><title>Plus0</title>
<ellipse fill="none" stroke="black" cx="149.696" cy="-162" rx="30.5947" ry="18"/>
<text text-anchor="middle" x="149.696" y="-158.3" font-family="Times,serif" font-size="14.00">Plus0</text>
</g>
<!-- ExpBinary1&#45;&gt;Plus0 -->
<g id="edge33" class="edge"><title>ExpBinary1&#45;&gt;Plus0</title>
<path fill="none" stroke="black" d="M149.696,-215.697C149.696,-207.983 149.696,-198.712 149.696,-190.112"/>
<polygon fill="black" stroke="black" points="153.196,-190.104 149.696,-180.104 146.196,-190.104 153.196,-190.104"/>
</g>
<!-- ExpCall0 -->
<g id="node42" class="node"><title>ExpCall0</title>
<ellipse fill="none" stroke="black" cx="242.696" cy="-162" rx="44.393" ry="18"/>
<text text-anchor="middle" x="242.696" y="-158.3" font-family="Times,serif" font-size="14.00">ExpCall0</text>
</g>
<!-- ExpBinary1&#45;&gt;ExpCall0 -->
<g id="edge34" class="edge"><title>ExpBinary1&#45;&gt;ExpCall0</title>
<path fill="none" stroke="black" d="M170.799,-217.116C183.669,-207.429 200.284,-194.923 214.299,-184.374"/>
<polygon fill="black" stroke="black" points="216.747,-186.912 222.632,-178.101 212.538,-181.319 216.747,-186.912"/>
</g>
<!-- Temp0: FP -->
<g id="node52" class="node"><title>Temp0: FP</title>
<ellipse fill="none" stroke="black" cx="50.6955" cy="-90" rx="50.8918" ry="18"/>
<text text-anchor="middle" x="50.6955" y="-86.3" font-family="Times,serif" font-size="14.00">Temp0: FP</text>
</g>
<!-- ExpTemp0&#45;&gt;Temp0: FP -->
<g id="edge44" class="edge"><title>ExpTemp0&#45;&gt;Temp0: FP</title>
<path fill="none" stroke="black" d="M50.6955,-143.697C50.6955,-135.983 50.6955,-126.712 50.6955,-118.112"/>
<polygon fill="black" stroke="black" points="54.1956,-118.104 50.6955,-108.104 47.1956,-118.104 54.1956,-118.104"/>
</g>
<!-- Value0: 0 -->
<g id="node53" class="node"><title>Value0: 0</title>
<ellipse fill="none" stroke="black" cx="242.696" cy="-90" rx="45.4919" ry="18"/>
<text text-anchor="middle" x="242.696" y="-86.3" font-family="Times,serif" font-size="14.00">Value0: 0</text>
</g>
<!-- ExpCall0&#45;&gt;Value0: 0 -->
<g id="edge45" class="edge"><title>ExpCall0&#45;&gt;Value0: 0</title>
<path fill="none" stroke="black" d="M242.696,-143.697C242.696,-135.983 242.696,-126.712 242.696,-118.112"/>
<polygon fill="black" stroke="black" points="246.196,-118.104 242.696,-108.104 239.196,-118.104 246.196,-118.104"/>
</g>
<!-- ExpMem4 -->
<g id="node54" class="node"><title>ExpMem4</title>
<ellipse fill="none" stroke="black" cx="717.696" cy="-234" rx="48.9926" ry="18"/>
<text text-anchor="middle" x="717.696" y="-230.3" font-family="Times,serif" font-size="14.00">ExpMem4</text>
</g>
<!-- ExpBinary3&#45;&gt;ExpMem4 -->
<g id="edge47" class="edge"><title>ExpBinary3&#45;&gt;ExpMem4</title>
<path fill="none" stroke="black" d="M831.757,-290.834C809.711,-280.042 779.176,-265.095 755.247,-253.382"/>
<polygon fill="black" stroke="black" points="756.623,-250.159 746.103,-248.906 753.545,-256.446 756.623,-250.159"/>
</g>
<!-- Plus4 -->
<g id="node55" class="node"><title>Plus4</title>
<ellipse fill="none" stroke="black" cx="814.696" cy="-234" rx="30.5947" ry="18"/>
<text text-anchor="middle" x="814.696" y="-230.3" font-family="Times,serif" font-size="14.00">Plus4</text>
</g>
<!-- ExpBinary3&#45;&gt;Plus4 -->
<g id="edge48" class="edge"><title>ExpBinary3&#45;&gt;Plus4</title>
<path fill="none" stroke="black" d="M849.56,-288.055C843.999,-279.592 837.163,-269.19 831.022,-259.845"/>
<polygon fill="black" stroke="black" points="833.828,-257.742 825.412,-251.307 827.978,-261.586 833.828,-257.742"/>
</g>
<!-- ExpCall4 -->
<g id="node56" class="node"><title>ExpCall4</title>
<ellipse fill="none" stroke="black" cx="907.696" cy="-234" rx="44.393" ry="18"/>
<text text-anchor="middle" x="907.696" y="-230.3" font-family="Times,serif" font-size="14.00">ExpCall4</text>
</g>
<!-- ExpBinary3&#45;&gt;ExpCall4 -->
<g id="edge49" class="edge"><title>ExpBinary3&#45;&gt;ExpCall4</title>
<path fill="none" stroke="black" d="M872.073,-288.055C877.673,-279.715 884.537,-269.491 890.741,-260.252"/>
<polygon fill="black" stroke="black" points="893.754,-262.042 896.423,-251.789 887.943,-258.14 893.754,-262.042"/>
</g>
<!-- ExpMem1&#45;&gt;ExpBinary1 -->
<g id="edge37" class="edge"><title>ExpMem1&#45;&gt;ExpBinary1</title>
<path fill="none" stroke="black" d="M149.696,-287.697C149.696,-279.983 149.696,-270.712 149.696,-262.112"/>
<polygon fill="black" stroke="black" points="153.196,-262.104 149.696,-252.104 146.196,-262.104 153.196,-262.104"/>
</g>
<!-- ExpBinary2&#45;&gt;ExpCall2 -->
<g id="edge41" class="edge"><title>ExpBinary2&#45;&gt;ExpCall2</title>
<path fill="none" stroke="black" d="M572.799,-361.116C585.669,-351.429 602.284,-338.923 616.299,-328.374"/>
<polygon fill="black" stroke="black" points="618.747,-330.912 624.632,-322.101 614.538,-325.319 618.747,-330.912"/>
</g>
<!-- ExpTemp1 -->
<g id="node47" class="node"><title>ExpTemp1</title>
<ellipse fill="none" stroke="black" cx="452.696" cy="-306" rx="50.0912" ry="18"/>
<text text-anchor="middle" x="452.696" y="-302.3" font-family="Times,serif" font-size="14.00">ExpTemp1</text>
</g>
<!-- ExpBinary2&#45;&gt;ExpTemp1 -->
<g id="edge39" class="edge"><title>ExpBinary2&#45;&gt;ExpTemp1</title>
<path fill="none" stroke="black" d="M529.724,-361.465C515.915,-351.7 497.914,-338.972 482.786,-328.276"/>
<polygon fill="black" stroke="black" points="484.451,-325.167 474.265,-322.251 480.409,-330.882 484.451,-325.167"/>
</g>
<!-- Plus2 -->
<g id="node48" class="node"><title>Plus2</title>
<ellipse fill="none" stroke="black" cx="551.696" cy="-306" rx="30.5947" ry="18"/>
<text text-anchor="middle" x="551.696" y="-302.3" font-family="Times,serif" font-size="14.00">Plus2</text>
</g>
<!-- ExpBinary2&#45;&gt;Plus2 -->
<g id="edge40" class="edge"><title>ExpBinary2&#45;&gt;Plus2</title>
<path fill="none" stroke="black" d="M551.696,-359.697C551.696,-351.983 551.696,-342.712 551.696,-334.112"/>
<polygon fill="black" stroke="black" points="555.196,-334.104 551.696,-324.104 548.196,-334.104 555.196,-334.104"/>
</g>
<!-- Temp1: FP -->
<g id="node61" class="node"><title>Temp1: FP</title>
<ellipse fill="none" stroke="black" cx="452.696" cy="-234" rx="50.8918" ry="18"/>
<text text-anchor="middle" x="452.696" y="-230.3" font-family="Times,serif" font-size="14.00">Temp1: FP</text>
</g>
<!-- ExpTemp1&#45;&gt;Temp1: FP -->
<g id="edge56" class="edge"><title>ExpTemp1&#45;&gt;Temp1: FP</title>
<path fill="none" stroke="black" d="M452.696,-287.697C452.696,-279.983 452.696,-270.712 452.696,-262.112"/>
<polygon fill="black" stroke="black" points="456.196,-262.104 452.696,-252.104 449.196,-262.104 456.196,-262.104"/>
</g>
<!-- StatLabel0 -->
<g id="node49" class="node"><title>StatLabel0</title>
<ellipse fill="none" stroke="black" cx="1092.7" cy="-666" rx="48.9926" ry="18"/>
<text text-anchor="middle" x="1092.7" y="-662.3" font-family="Times,serif" font-size="14.00">StatLabel0</text>
</g>
<!-- Label0: Element::Init -->
<g id="node50" class="node"><title>Label0: Element::Init</title>
<ellipse fill="none" stroke="black" cx="1073.7" cy="-594" rx="87.1846" ry="18"/>
<text text-anchor="middle" x="1073.7" y="-590.3" font-family="Times,serif" font-size="14.00">Label0: Element::Init</text>
</g>
<!-- StatLabel0&#45;&gt;Label0: Element::Init -->
<g id="edge42" class="edge"><title>StatLabel0&#45;&gt;Label0: Element::Init</title>
<path fill="none" stroke="black" d="M1088.1,-648.055C1085.98,-640.261 1083.42,-630.822 1081.05,-622.079"/>
<polygon fill="black" stroke="black" points="1084.38,-621.009 1078.38,-612.275 1077.63,-622.843 1084.38,-621.009"/>
</g>
<!-- ExpBinary7&#45;&gt;ExpTemp4 -->
<g id="edge51" class="edge"><title>ExpBinary7&#45;&gt;ExpTemp4</title>
<path fill="none" stroke="black" d="M1303.72,-145.465C1289.91,-135.7 1271.91,-122.972 1256.79,-112.276"/>
<polygon fill="black" stroke="black" points="1258.45,-109.167 1248.26,-106.251 1254.41,-114.882 1258.45,-109.167"/>
</g>
<!-- Plus6 -->
<g id="node58" class="node"><title>Plus6</title>
<ellipse fill="none" stroke="black" cx="1325.7" cy="-90" rx="30.5947" ry="18"/>
<text text-anchor="middle" x="1325.7" y="-86.3" font-family="Times,serif" font-size="14.00">Plus6</text>
</g>
<!-- ExpBinary7&#45;&gt;Plus6 -->
<g id="edge52" class="edge"><title>ExpBinary7&#45;&gt;Plus6</title>
<path fill="none" stroke="black" d="M1325.7,-143.697C1325.7,-135.983 1325.7,-126.712 1325.7,-118.112"/>
<polygon fill="black" stroke="black" points="1329.2,-118.104 1325.7,-108.104 1322.2,-118.104 1329.2,-118.104"/>
</g>
<!-- ExpCall6 -->
<g id="node59" class="node"><title>ExpCall6</title>
<ellipse fill="none" stroke="black" cx="1418.7" cy="-90" rx="44.393" ry="18"/>
<text text-anchor="middle" x="1418.7" y="-86.3" font-family="Times,serif" font-size="14.00">ExpCall6</text>
</g>
<!-- ExpBinary7&#45;&gt;ExpCall6 -->
<g id="edge53" class="edge"><title>ExpBinary7&#45;&gt;ExpCall6</title>
<path fill="none" stroke="black" d="M1346.8,-145.116C1359.67,-135.429 1376.28,-122.923 1390.3,-112.374"/>
<polygon fill="black" stroke="black" points="1392.75,-114.912 1398.63,-106.101 1388.54,-109.319 1392.75,-114.912"/>
</g>
<!-- ExpBinary4 -->
<g id="node67" class="node"><title>ExpBinary4</title>
<ellipse fill="none" stroke="black" cx="717.696" cy="-162" rx="53.0913" ry="18"/>
<text text-anchor="middle" x="717.696" y="-158.3" font-family="Times,serif" font-size="14.00">ExpBinary4</text>
</g>
<!-- ExpMem4&#45;&gt;ExpBinary4 -->
<g id="edge68" class="edge"><title>ExpMem4&#45;&gt;ExpBinary4</title>
<path fill="none" stroke="black" d="M717.696,-215.697C717.696,-207.983 717.696,-198.712 717.696,-190.112"/>
<polygon fill="black" stroke="black" points="721.196,-190.104 717.696,-180.104 714.196,-190.104 721.196,-190.104"/>
</g>
<!-- Value4: 8 -->
<g id="node71" class="node"><title>Value4: 8</title>
<ellipse fill="none" stroke="black" cx="906.696" cy="-162" rx="45.4919" ry="18"/>
<text text-anchor="middle" x="906.696" y="-158.3" font-family="Times,serif" font-size="14.00">Value4: 8</text>
</g>
<!-- ExpCall4&#45;&gt;Value4: 8 -->
<g id="edge70" class="edge"><title>ExpCall4&#45;&gt;Value4: 8</title>
<path fill="none" stroke="black" d="M907.448,-215.697C907.338,-207.983 907.206,-198.712 907.083,-190.112"/>
<polygon fill="black" stroke="black" points="910.582,-190.053 906.94,-180.104 903.583,-190.153 910.582,-190.053"/>
</g>
<!-- Value6: 0 -->
<g id="node66" class="node"><title>Value6: 0</title>
<ellipse fill="none" stroke="black" cx="1418.7" cy="-18" rx="45.4919" ry="18"/>
<text text-anchor="middle" x="1418.7" y="-14.3" font-family="Times,serif" font-size="14.00">Value6: 0</text>
</g>
<!-- ExpCall6&#45;&gt;Value6: 0 -->
<g id="edge61" class="edge"><title>ExpCall6&#45;&gt;Value6: 0</title>
<path fill="none" stroke="black" d="M1418.7,-71.6966C1418.7,-63.9827 1418.7,-54.7125 1418.7,-46.1124"/>
<polygon fill="black" stroke="black" points="1422.2,-46.1043 1418.7,-36.1043 1415.2,-46.1044 1422.2,-46.1043"/>
</g>
<!-- StatSeq0 -->
<g id="node60" class="node"><title>StatSeq0</title>
<ellipse fill="none" stroke="black" cx="1156.7" cy="-738" rx="42.4939" ry="18"/>
<text text-anchor="middle" x="1156.7" y="-734.3" font-family="Times,serif" font-size="14.00">StatSeq0</text>
</g>
<!-- StatSeq0&#45;&gt;StatSeq1 -->
<g id="edge55" class="edge"><title>StatSeq0&#45;&gt;StatSeq1</title>
<path fill="none" stroke="black" d="M1171.54,-720.765C1179.7,-711.841 1189.97,-700.608 1199.01,-690.719"/>
<polygon fill="black" stroke="black" points="1201.77,-692.889 1205.93,-683.147 1196.6,-688.166 1201.77,-692.889"/>
</g>
<!-- StatSeq0&#45;&gt;StatLabel0 -->
<g id="edge54" class="edge"><title>StatSeq0&#45;&gt;StatLabel0</title>
<path fill="none" stroke="black" d="M1141.85,-720.765C1133.81,-711.969 1123.72,-700.928 1114.77,-691.144"/>
<polygon fill="black" stroke="black" points="1117.23,-688.652 1107.9,-683.633 1112.07,-693.375 1117.23,-688.652"/>
</g>
<!-- ExpCall3 -->
<g id="node62" class="node"><title>ExpCall3</title>
<ellipse fill="none" stroke="black" cx="810.696" cy="-90" rx="44.393" ry="18"/>
<text text-anchor="middle" x="810.696" y="-86.3" font-family="Times,serif" font-size="14.00">ExpCall3</text>
</g>
<!-- Value3: 0 -->
<g id="node63" class="node"><title>Value3: 0</title>
<ellipse fill="none" stroke="black" cx="810.696" cy="-18" rx="45.4919" ry="18"/>
<text text-anchor="middle" x="810.696" y="-14.3" font-family="Times,serif" font-size="14.00">Value3: 0</text>
</g>
<!-- ExpCall3&#45;&gt;Value3: 0 -->
<g id="edge57" class="edge"><title>ExpCall3&#45;&gt;Value3: 0</title>
<path fill="none" stroke="black" d="M810.696,-71.6966C810.696,-63.9827 810.696,-54.7125 810.696,-46.1124"/>
<polygon fill="black" stroke="black" points="814.196,-46.1043 810.696,-36.1043 807.196,-46.1044 814.196,-46.1043"/>
</g>
<!-- ExpTemp2 -->
<g id="node64" class="node"><title>ExpTemp2</title>
<ellipse fill="none" stroke="black" cx="618.696" cy="-90" rx="50.0912" ry="18"/>
<text text-anchor="middle" x="618.696" y="-86.3" font-family="Times,serif" font-size="14.00">ExpTemp2</text>
</g>
<!-- Temp2: FP -->
<g id="node65" class="node"><title>Temp2: FP</title>
<ellipse fill="none" stroke="black" cx="618.696" cy="-18" rx="50.8918" ry="18"/>
<text text-anchor="middle" x="618.696" y="-14.3" font-family="Times,serif" font-size="14.00">Temp2: FP</text>
</g>
<!-- ExpTemp2&#45;&gt;Temp2: FP -->
<g id="edge60" class="edge"><title>ExpTemp2&#45;&gt;Temp2: FP</title>
<path fill="none" stroke="black" d="M618.696,-71.6966C618.696,-63.9827 618.696,-54.7125 618.696,-46.1124"/>
<polygon fill="black" stroke="black" points="622.196,-46.1043 618.696,-36.1043 615.196,-46.1044 622.196,-46.1043"/>
</g>
<!-- ExpBinary4&#45;&gt;ExpCall3 -->
<g id="edge64" class="edge"><title>ExpBinary4&#45;&gt;ExpCall3</title>
<path fill="none" stroke="black" d="M738.799,-145.116C751.669,-135.429 768.284,-122.923 782.299,-112.374"/>
<polygon fill="black" stroke="black" points="784.747,-114.912 790.632,-106.101 780.538,-109.319 784.747,-114.912"/>
</g>
<!-- ExpBinary4&#45;&gt;ExpTemp2 -->
<g id="edge62" class="edge"><title>ExpBinary4&#45;&gt;ExpTemp2</title>
<path fill="none" stroke="black" d="M695.724,-145.465C681.915,-135.7 663.914,-122.972 648.786,-112.276"/>
<polygon fill="black" stroke="black" points="650.451,-109.167 640.265,-106.251 646.409,-114.882 650.451,-109.167"/>
</g>
<!-- Plus3 -->
<g id="node68" class="node"><title>Plus3</title>
<ellipse fill="none" stroke="black" cx="717.696" cy="-90" rx="30.5947" ry="18"/>
<text text-anchor="middle" x="717.696" y="-86.3" font-family="Times,serif" font-size="14.00">Plus3</text>
</g>
<!-- ExpBinary4&#45;&gt;Plus3 -->
<g id="edge63" class="edge"><title>ExpBinary4&#45;&gt;Plus3</title>
<path fill="none" stroke="black" d="M717.696,-143.697C717.696,-135.983 717.696,-126.712 717.696,-118.112"/>
<polygon fill="black" stroke="black" points="721.196,-118.104 717.696,-108.104 714.196,-118.104 721.196,-118.104"/>
</g>
</g>
</svg>
