<?xml version="1.0" encoding="UTF-8" standalone="no"?>
<!DOCTYPE svg PUBLIC "-//W3C//DTD SVG 1.1//EN"
 "http://www.w3.org/Graphics/SVG/1.1/DTD/svg11.dtd">
<!-- Generated by graphviz version 2.38.0 (20140413.2041)
 -->
<!-- Title: %3 Pages: 1 -->
<svg width="568pt" height="548pt"
 viewBox="0.00 0.00 567.84 548.00" xmlns="http://www.w3.org/2000/svg" xmlns:xlink="http://www.w3.org/1999/xlink">
<g id="graph0" class="graph" transform="scale(1 1) rotate(0) translate(4 544)">
<title>%3</title>
<polygon fill="white" stroke="none" points="-4,4 -4,-544 563.836,-544 563.836,4 -4,4"/>
<!-- StatMove0 -->
<g id="node1" class="node"><title>StatMove0</title>
<ellipse fill="none" stroke="black" cx="300.34" cy="-450" rx="50.0912" ry="18"/>
<text text-anchor="middle" x="300.34" y="-446.3" font-family="Times,serif" font-size="14.00">StatMove0</text>
</g>
<!-- ExpTemp0 -->
<g id="node2" class="node"><title>ExpTemp0</title>
<ellipse fill="none" stroke="black" cx="300.34" cy="-378" rx="50.0912" ry="18"/>
<text text-anchor="middle" x="300.34" y="-374.3" font-family="Times,serif" font-size="14.00">ExpTemp0</text>
</g>
<!-- StatMove0&#45;&gt;ExpTemp0 -->
<g id="edge1" class="edge"><title>StatMove0&#45;&gt;ExpTemp0</title>
<path fill="none" stroke="black" d="M300.34,-431.697C300.34,-423.983 300.34,-414.712 300.34,-406.112"/>
<polygon fill="black" stroke="black" points="303.84,-406.104 300.34,-396.104 296.84,-406.104 303.84,-406.104"/>
</g>
<!-- ExpMem0 -->
<g id="node3" class="node"><title>ExpMem0</title>
<ellipse fill="none" stroke="black" cx="419.34" cy="-378" rx="48.9926" ry="18"/>
<text text-anchor="middle" x="419.34" y="-374.3" font-family="Times,serif" font-size="14.00">ExpMem0</text>
</g>
<!-- StatMove0&#45;&gt;ExpMem0 -->
<g id="edge2" class="edge"><title>StatMove0&#45;&gt;ExpMem0</title>
<path fill="none" stroke="black" d="M325.286,-434.326C342.819,-424.012 366.478,-410.095 385.68,-398.8"/>
<polygon fill="black" stroke="black" points="387.581,-401.742 394.426,-393.655 384.032,-395.708 387.581,-401.742"/>
</g>
<!-- Temp0: T9 -->
<g id="node9" class="node"><title>Temp0: T9</title>
<ellipse fill="none" stroke="black" cx="299.34" cy="-306" rx="50.8918" ry="18"/>
<text text-anchor="middle" x="299.34" y="-302.3" font-family="Times,serif" font-size="14.00">Temp0: T9</text>
</g>
<!-- ExpTemp0&#45;&gt;Temp0: T9 -->
<g id="edge7" class="edge"><title>ExpTemp0&#45;&gt;Temp0: T9</title>
<path fill="none" stroke="black" d="M300.092,-359.697C299.982,-351.983 299.85,-342.712 299.727,-334.112"/>
<polygon fill="black" stroke="black" points="303.227,-334.053 299.584,-324.104 296.227,-334.153 303.227,-334.053"/>
</g>
<!-- ExpBinary0 -->
<g id="node4" class="node"><title>ExpBinary0</title>
<ellipse fill="none" stroke="black" cx="421.34" cy="-306" rx="53.0913" ry="18"/>
<text text-anchor="middle" x="421.34" y="-302.3" font-family="Times,serif" font-size="14.00">ExpBinary0</text>
</g>
<!-- ExpMem0&#45;&gt;ExpBinary0 -->
<g id="edge12" class="edge"><title>ExpMem0&#45;&gt;ExpBinary0</title>
<path fill="none" stroke="black" d="M419.834,-359.697C420.054,-351.983 420.319,-342.712 420.565,-334.112"/>
<polygon fill="black" stroke="black" points="424.064,-334.2 420.851,-324.104 417.067,-334 424.064,-334.2"/>
</g>
<!-- ExpMem1 -->
<g id="node5" class="node"><title>ExpMem1</title>
<ellipse fill="none" stroke="black" cx="324.34" cy="-234" rx="48.9926" ry="18"/>
<text text-anchor="middle" x="324.34" y="-230.3" font-family="Times,serif" font-size="14.00">ExpMem1</text>
</g>
<!-- ExpBinary0&#45;&gt;ExpMem1 -->
<g id="edge3" class="edge"><title>ExpBinary0&#45;&gt;ExpMem1</title>
<path fill="none" stroke="black" d="M399.812,-289.465C386.282,-279.7 368.644,-266.972 353.822,-256.276"/>
<polygon fill="black" stroke="black" points="355.63,-253.265 345.473,-250.251 351.534,-258.941 355.63,-253.265"/>
</g>
<!-- Plus1 -->
<g id="node6" class="node"><title>Plus1</title>
<ellipse fill="none" stroke="black" cx="421.34" cy="-234" rx="30.5947" ry="18"/>
<text text-anchor="middle" x="421.34" y="-230.3" font-family="Times,serif" font-size="14.00">Plus1</text>
</g>
<!-- ExpBinary0&#45;&gt;Plus1 -->
<g id="edge4" class="edge"><title>ExpBinary0&#45;&gt;Plus1</title>
<path fill="none" stroke="black" d="M421.34,-287.697C421.34,-279.983 421.34,-270.712 421.34,-262.112"/>
<polygon fill="black" stroke="black" points="424.84,-262.104 421.34,-252.104 417.84,-262.104 424.84,-262.104"/>
</g>
<!-- ExpCall1 -->
<g id="node7" class="node"><title>ExpCall1</title>
<ellipse fill="none" stroke="black" cx="514.34" cy="-234" rx="44.393" ry="18"/>
<text text-anchor="middle" x="514.34" y="-230.3" font-family="Times,serif" font-size="14.00">ExpCall1</text>
</g>
<!-- ExpBinary0&#45;&gt;ExpCall1 -->
<g id="edge5" class="edge"><title>ExpBinary0&#45;&gt;ExpCall1</title>
<path fill="none" stroke="black" d="M442.443,-289.116C455.313,-279.429 471.928,-266.923 485.943,-256.374"/>
<polygon fill="black" stroke="black" points="488.391,-258.912 494.276,-250.101 484.182,-253.319 488.391,-258.912"/>
</g>
<!-- ExpBinary1 -->
<g id="node15" class="node"><title>ExpBinary1</title>
<ellipse fill="none" stroke="black" cx="324.34" cy="-162" rx="53.0913" ry="18"/>
<text text-anchor="middle" x="324.34" y="-158.3" font-family="Times,serif" font-size="14.00">ExpBinary1</text>
</g>
<!-- ExpMem1&#45;&gt;ExpBinary1 -->
<g id="edge17" class="edge"><title>ExpMem1&#45;&gt;ExpBinary1</title>
<path fill="none" stroke="black" d="M324.34,-215.697C324.34,-207.983 324.34,-198.712 324.34,-190.112"/>
<polygon fill="black" stroke="black" points="327.84,-190.104 324.34,-180.104 320.84,-190.104 327.84,-190.104"/>
</g>
<!-- Value1: 4 -->
<g id="node8" class="node"><title>Value1: 4</title>
<ellipse fill="none" stroke="black" cx="514.34" cy="-162" rx="45.4919" ry="18"/>
<text text-anchor="middle" x="514.34" y="-158.3" font-family="Times,serif" font-size="14.00">Value1: 4</text>
</g>
<!-- ExpCall1&#45;&gt;Value1: 4 -->
<g id="edge6" class="edge"><title>ExpCall1&#45;&gt;Value1: 4</title>
<path fill="none" stroke="black" d="M514.34,-215.697C514.34,-207.983 514.34,-198.712 514.34,-190.112"/>
<polygon fill="black" stroke="black" points="517.84,-190.104 514.34,-180.104 510.84,-190.104 517.84,-190.104"/>
</g>
<!-- StatSeq0 -->
<g id="node10" class="node"><title>StatSeq0</title>
<ellipse fill="none" stroke="black" cx="225.34" cy="-522" rx="42.4939" ry="18"/>
<text text-anchor="middle" x="225.34" y="-518.3" font-family="Times,serif" font-size="14.00">StatSeq0</text>
</g>
<!-- StatSeq0&#45;&gt;StatMove0 -->
<g id="edge9" class="edge"><title>StatSeq0&#45;&gt;StatMove0</title>
<path fill="none" stroke="black" d="M242.358,-505.116C252.166,-495.962 264.669,-484.293 275.552,-474.135"/>
<polygon fill="black" stroke="black" points="278.206,-476.445 283.129,-467.064 273.43,-471.328 278.206,-476.445"/>
</g>
<!-- StatLabel0 -->
<g id="node11" class="node"><title>StatLabel0</title>
<ellipse fill="none" stroke="black" cx="150.34" cy="-450" rx="48.9926" ry="18"/>
<text text-anchor="middle" x="150.34" y="-446.3" font-family="Times,serif" font-size="14.00">StatLabel0</text>
</g>
<!-- StatSeq0&#45;&gt;StatLabel0 -->
<g id="edge8" class="edge"><title>StatSeq0&#45;&gt;StatLabel0</title>
<path fill="none" stroke="black" d="M208.321,-505.116C198.514,-495.962 186.01,-484.293 175.127,-474.135"/>
<polygon fill="black" stroke="black" points="177.249,-471.328 167.551,-467.064 172.473,-476.445 177.249,-471.328"/>
</g>
<!-- Label0: Element::GetMarried -->
<g id="node12" class="node"><title>Label0: Element::GetMarried</title>
<ellipse fill="none" stroke="black" cx="116.34" cy="-378" rx="116.18" ry="18"/>
<text text-anchor="middle" x="116.34" y="-374.3" font-family="Times,serif" font-size="14.00">Label0: Element::GetMarried</text>
</g>
<!-- StatLabel0&#45;&gt;Label0: Element::GetMarried -->
<g id="edge10" class="edge"><title>StatLabel0&#45;&gt;Label0: Element::GetMarried</title>
<path fill="none" stroke="black" d="M142.109,-432.055C138.241,-424.091 133.539,-414.411 129.216,-405.51"/>
<polygon fill="black" stroke="black" points="132.248,-403.741 124.731,-396.275 125.951,-406.8 132.248,-403.741"/>
</g>
<!-- ExpTemp1 -->
<g id="node13" class="node"><title>ExpTemp1</title>
<ellipse fill="none" stroke="black" cx="225.34" cy="-90" rx="50.0912" ry="18"/>
<text text-anchor="middle" x="225.34" y="-86.3" font-family="Times,serif" font-size="14.00">ExpTemp1</text>
</g>
<!-- Temp1: T8 -->
<g id="node14" class="node"><title>Temp1: T8</title>
<ellipse fill="none" stroke="black" cx="225.34" cy="-18" rx="50.8918" ry="18"/>
<text text-anchor="middle" x="225.34" y="-14.3" font-family="Times,serif" font-size="14.00">Temp1: T8</text>
</g>
<!-- ExpTemp1&#45;&gt;Temp1: T8 -->
<g id="edge11" class="edge"><title>ExpTemp1&#45;&gt;Temp1: T8</title>
<path fill="none" stroke="black" d="M225.34,-71.6966C225.34,-63.9827 225.34,-54.7125 225.34,-46.1124"/>
<polygon fill="black" stroke="black" points="228.84,-46.1043 225.34,-36.1043 221.84,-46.1044 228.84,-46.1043"/>
</g>
<!-- ExpBinary1&#45;&gt;ExpTemp1 -->
<g id="edge13" class="edge"><title>ExpBinary1&#45;&gt;ExpTemp1</title>
<path fill="none" stroke="black" d="M302.368,-145.465C288.559,-135.7 270.558,-122.972 255.43,-112.276"/>
<polygon fill="black" stroke="black" points="257.095,-109.167 246.909,-106.251 253.053,-114.882 257.095,-109.167"/>
</g>
<!-- Plus0 -->
<g id="node16" class="node"><title>Plus0</title>
<ellipse fill="none" stroke="black" cx="324.34" cy="-90" rx="30.5947" ry="18"/>
<text text-anchor="middle" x="324.34" y="-86.3" font-family="Times,serif" font-size="14.00">Plus0</text>
</g>
<!-- ExpBinary1&#45;&gt;Plus0 -->
<g id="edge14" class="edge"><title>ExpBinary1&#45;&gt;Plus0</title>
<path fill="none" stroke="black" d="M324.34,-143.697C324.34,-135.983 324.34,-126.712 324.34,-118.112"/>
<polygon fill="black" stroke="black" points="327.84,-118.104 324.34,-108.104 320.84,-118.104 327.84,-118.104"/>
</g>
<!-- ExpCall0 -->
<g id="node17" class="node"><title>ExpCall0</title>
<ellipse fill="none" stroke="black" cx="417.34" cy="-90" rx="44.393" ry="18"/>
<text text-anchor="middle" x="417.34" y="-86.3" font-family="Times,serif" font-size="14.00">ExpCall0</text>
</g>
<!-- ExpBinary1&#45;&gt;ExpCall0 -->
<g id="edge15" class="edge"><title>ExpBinary1&#45;&gt;ExpCall0</title>
<path fill="none" stroke="black" d="M345.443,-145.116C358.313,-135.429 374.928,-122.923 388.943,-112.374"/>
<polygon fill="black" stroke="black" points="391.391,-114.912 397.276,-106.101 387.182,-109.319 391.391,-114.912"/>
</g>
<!-- Value0: 0 -->
<g id="node18" class="node"><title>Value0: 0</title>
<ellipse fill="none" stroke="black" cx="417.34" cy="-18" rx="45.4919" ry="18"/>
<text text-anchor="middle" x="417.34" y="-14.3" font-family="Times,serif" font-size="14.00">Value0: 0</text>
</g>
<!-- ExpCall0&#45;&gt;Value0: 0 -->
<g id="edge16" class="edge"><title>ExpCall0&#45;&gt;Value0: 0</title>
<path fill="none" stroke="black" d="M417.34,-71.6966C417.34,-63.9827 417.34,-54.7125 417.34,-46.1124"/>
<polygon fill="black" stroke="black" points="420.84,-46.1043 417.34,-36.1043 413.84,-46.1044 420.84,-46.1043"/>
</g>
</g>
</svg>
