<?xml version="1.0" encoding="UTF-8" standalone="no"?>
<!DOCTYPE svg PUBLIC "-//W3C//DTD SVG 1.1//EN"
 "http://www.w3.org/Graphics/SVG/1.1/DTD/svg11.dtd">
<!-- Generated by graphviz version 2.38.0 (20140413.2041)
 -->
<!-- Title: %3 Pages: 1 -->
<svg width="568pt" height="404pt"
 viewBox="0.00 0.00 567.84 404.00" xmlns="http://www.w3.org/2000/svg" xmlns:xlink="http://www.w3.org/1999/xlink">
<g id="graph0" class="graph" transform="scale(1 1) rotate(0) translate(4 400)">
<title>%3</title>
<polygon fill="white" stroke="none" points="-4,4 -4,-400 563.836,-400 563.836,4 -4,4"/>
<!-- ExpMem0 -->
<g id="node1" class="node"><title>ExpMem0</title>
<ellipse fill="none" stroke="black" cx="419.34" cy="-234" rx="48.9926" ry="18"/>
<text text-anchor="middle" x="419.34" y="-230.3" font-family="Times,serif" font-size="14.00">ExpMem0</text>
</g>
<!-- ExpBinary0 -->
<g id="node2" class="node"><title>ExpBinary0</title>
<ellipse fill="none" stroke="black" cx="421.34" cy="-162" rx="53.0913" ry="18"/>
<text text-anchor="middle" x="421.34" y="-158.3" font-family="Times,serif" font-size="14.00">ExpBinary0</text>
</g>
<!-- ExpMem0&#45;&gt;ExpBinary0 -->
<g id="edge1" class="edge"><title>ExpMem0&#45;&gt;ExpBinary0</title>
<path fill="none" stroke="black" d="M419.834,-215.697C420.054,-207.983 420.319,-198.712 420.565,-190.112"/>
<polygon fill="black" stroke="black" points="424.064,-190.2 420.851,-180.104 417.067,-190 424.064,-190.2"/>
</g>
<!-- ExpCall0 -->
<g id="node3" class="node"><title>ExpCall0</title>
<ellipse fill="none" stroke="black" cx="514.34" cy="-90" rx="44.393" ry="18"/>
<text text-anchor="middle" x="514.34" y="-86.3" font-family="Times,serif" font-size="14.00">ExpCall0</text>
</g>
<!-- ExpBinary0&#45;&gt;ExpCall0 -->
<g id="edge10" class="edge"><title>ExpBinary0&#45;&gt;ExpCall0</title>
<path fill="none" stroke="black" d="M442.443,-145.116C455.313,-135.429 471.928,-122.923 485.943,-112.374"/>
<polygon fill="black" stroke="black" points="488.391,-114.912 494.276,-106.101 484.182,-109.319 488.391,-114.912"/>
</g>
<!-- ExpTemp1 -->
<g id="node5" class="node"><title>ExpTemp1</title>
<ellipse fill="none" stroke="black" cx="322.34" cy="-90" rx="50.0912" ry="18"/>
<text text-anchor="middle" x="322.34" y="-86.3" font-family="Times,serif" font-size="14.00">ExpTemp1</text>
</g>
<!-- ExpBinary0&#45;&gt;ExpTemp1 -->
<g id="edge8" class="edge"><title>ExpBinary0&#45;&gt;ExpTemp1</title>
<path fill="none" stroke="black" d="M399.368,-145.465C385.559,-135.7 367.558,-122.972 352.43,-112.276"/>
<polygon fill="black" stroke="black" points="354.095,-109.167 343.909,-106.251 350.053,-114.882 354.095,-109.167"/>
</g>
<!-- Plus0 -->
<g id="node13" class="node"><title>Plus0</title>
<ellipse fill="none" stroke="black" cx="421.34" cy="-90" rx="30.5947" ry="18"/>
<text text-anchor="middle" x="421.34" y="-86.3" font-family="Times,serif" font-size="14.00">Plus0</text>
</g>
<!-- ExpBinary0&#45;&gt;Plus0 -->
<g id="edge9" class="edge"><title>ExpBinary0&#45;&gt;Plus0</title>
<path fill="none" stroke="black" d="M421.34,-143.697C421.34,-135.983 421.34,-126.712 421.34,-118.112"/>
<polygon fill="black" stroke="black" points="424.84,-118.104 421.34,-108.104 417.84,-118.104 424.84,-118.104"/>
</g>
<!-- Value0: 8 -->
<g id="node4" class="node"><title>Value0: 8</title>
<ellipse fill="none" stroke="black" cx="514.34" cy="-18" rx="45.4919" ry="18"/>
<text text-anchor="middle" x="514.34" y="-14.3" font-family="Times,serif" font-size="14.00">Value0: 8</text>
</g>
<!-- ExpCall0&#45;&gt;Value0: 8 -->
<g id="edge2" class="edge"><title>ExpCall0&#45;&gt;Value0: 8</title>
<path fill="none" stroke="black" d="M514.34,-71.6966C514.34,-63.9827 514.34,-54.7125 514.34,-46.1124"/>
<polygon fill="black" stroke="black" points="517.84,-46.1043 514.34,-36.1043 510.84,-46.1044 517.84,-46.1043"/>
</g>
<!-- Temp1: T8 -->
<g id="node6" class="node"><title>Temp1: T8</title>
<ellipse fill="none" stroke="black" cx="322.34" cy="-18" rx="50.8918" ry="18"/>
<text text-anchor="middle" x="322.34" y="-14.3" font-family="Times,serif" font-size="14.00">Temp1: T8</text>
</g>
<!-- ExpTemp1&#45;&gt;Temp1: T8 -->
<g id="edge3" class="edge"><title>ExpTemp1&#45;&gt;Temp1: T8</title>
<path fill="none" stroke="black" d="M322.34,-71.6966C322.34,-63.9827 322.34,-54.7125 322.34,-46.1124"/>
<polygon fill="black" stroke="black" points="325.84,-46.1043 322.34,-36.1043 318.84,-46.1044 325.84,-46.1043"/>
</g>
<!-- StatLabel0 -->
<g id="node7" class="node"><title>StatLabel0</title>
<ellipse fill="none" stroke="black" cx="150.34" cy="-306" rx="48.9926" ry="18"/>
<text text-anchor="middle" x="150.34" y="-302.3" font-family="Times,serif" font-size="14.00">StatLabel0</text>
</g>
<!-- Label0: Element::GetMarried -->
<g id="node8" class="node"><title>Label0: Element::GetMarried</title>
<ellipse fill="none" stroke="black" cx="116.34" cy="-234" rx="116.18" ry="18"/>
<text text-anchor="middle" x="116.34" y="-230.3" font-family="Times,serif" font-size="14.00">Label0: Element::GetMarried</text>
</g>
<!-- StatLabel0&#45;&gt;Label0: Element::GetMarried -->
<g id="edge4" class="edge"><title>StatLabel0&#45;&gt;Label0: Element::GetMarried</title>
<path fill="none" stroke="black" d="M142.109,-288.055C138.241,-280.091 133.539,-270.411 129.216,-261.51"/>
<polygon fill="black" stroke="black" points="132.248,-259.741 124.731,-252.275 125.951,-262.8 132.248,-259.741"/>
</g>
<!-- StatSeq0 -->
<g id="node9" class="node"><title>StatSeq0</title>
<ellipse fill="none" stroke="black" cx="225.34" cy="-378" rx="42.4939" ry="18"/>
<text text-anchor="middle" x="225.34" y="-374.3" font-family="Times,serif" font-size="14.00">StatSeq0</text>
</g>
<!-- StatSeq0&#45;&gt;StatLabel0 -->
<g id="edge5" class="edge"><title>StatSeq0&#45;&gt;StatLabel0</title>
<path fill="none" stroke="black" d="M208.321,-361.116C198.514,-351.962 186.01,-340.293 175.127,-330.135"/>
<polygon fill="black" stroke="black" points="177.249,-327.328 167.551,-323.064 172.473,-332.445 177.249,-327.328"/>
</g>
<!-- StatMove0 -->
<g id="node10" class="node"><title>StatMove0</title>
<ellipse fill="none" stroke="black" cx="300.34" cy="-306" rx="50.0912" ry="18"/>
<text text-anchor="middle" x="300.34" y="-302.3" font-family="Times,serif" font-size="14.00">StatMove0</text>
</g>
<!-- StatSeq0&#45;&gt;StatMove0 -->
<g id="edge6" class="edge"><title>StatSeq0&#45;&gt;StatMove0</title>
<path fill="none" stroke="black" d="M242.358,-361.116C252.166,-351.962 264.669,-340.293 275.552,-330.135"/>
<polygon fill="black" stroke="black" points="278.206,-332.445 283.129,-323.064 273.43,-327.328 278.206,-332.445"/>
</g>
<!-- StatMove0&#45;&gt;ExpMem0 -->
<g id="edge12" class="edge"><title>StatMove0&#45;&gt;ExpMem0</title>
<path fill="none" stroke="black" d="M325.286,-290.326C342.819,-280.012 366.478,-266.095 385.68,-254.8"/>
<polygon fill="black" stroke="black" points="387.581,-257.742 394.426,-249.655 384.032,-251.708 387.581,-257.742"/>
</g>
<!-- ExpTemp0 -->
<g id="node11" class="node"><title>ExpTemp0</title>
<ellipse fill="none" stroke="black" cx="300.34" cy="-234" rx="50.0912" ry="18"/>
<text text-anchor="middle" x="300.34" y="-230.3" font-family="Times,serif" font-size="14.00">ExpTemp0</text>
</g>
<!-- StatMove0&#45;&gt;ExpTemp0 -->
<g id="edge11" class="edge"><title>StatMove0&#45;&gt;ExpTemp0</title>
<path fill="none" stroke="black" d="M300.34,-287.697C300.34,-279.983 300.34,-270.712 300.34,-262.112"/>
<polygon fill="black" stroke="black" points="303.84,-262.104 300.34,-252.104 296.84,-262.104 303.84,-262.104"/>
</g>
<!-- Temp0: T9 -->
<g id="node12" class="node"><title>Temp0: T9</title>
<ellipse fill="none" stroke="black" cx="299.34" cy="-162" rx="50.8918" ry="18"/>
<text text-anchor="middle" x="299.34" y="-158.3" font-family="Times,serif" font-size="14.00">Temp0: T9</text>
</g>
<!-- ExpTemp0&#45;&gt;Temp0: T9 -->
<g id="edge7" class="edge"><title>ExpTemp0&#45;&gt;Temp0: T9</title>
<path fill="none" stroke="black" d="M300.092,-215.697C299.982,-207.983 299.85,-198.712 299.727,-190.112"/>
<polygon fill="black" stroke="black" points="303.227,-190.053 299.584,-180.104 296.227,-190.153 303.227,-190.053"/>
</g>
</g>
</svg>
