<?xml version="1.0" encoding="UTF-8" standalone="no"?>
<!DOCTYPE svg PUBLIC "-//W3C//DTD SVG 1.1//EN"
 "http://www.w3.org/Graphics/SVG/1.1/DTD/svg11.dtd">
<!-- Generated by graphviz version 2.38.0 (20140413.2041)
 -->
<!-- Title: %3 Pages: 1 -->
<svg width="660pt" height="620pt"
 viewBox="0.00 0.00 659.74 620.00" xmlns="http://www.w3.org/2000/svg" xmlns:xlink="http://www.w3.org/1999/xlink">
<g id="graph0" class="graph" transform="scale(1 1) rotate(0) translate(4 616)">
<title>%3</title>
<polygon fill="white" stroke="none" points="-4,4 -4,-616 655.741,-616 655.741,4 -4,4"/>
<!-- StatMove1 -->
<g id="node1" class="node"><title>StatMove1</title>
<ellipse fill="none" stroke="black" cx="487.245" cy="-450" rx="50.0912" ry="18"/>
<text text-anchor="middle" x="487.245" y="-446.3" font-family="Times,serif" font-size="14.00">StatMove1</text>
</g>
<!-- ExpTemp1 -->
<g id="node2" class="node"><title>ExpTemp1</title>
<ellipse fill="none" stroke="black" cx="487.245" cy="-378" rx="50.0912" ry="18"/>
<text text-anchor="middle" x="487.245" y="-374.3" font-family="Times,serif" font-size="14.00">ExpTemp1</text>
</g>
<!-- StatMove1&#45;&gt;ExpTemp1 -->
<g id="edge1" class="edge"><title>StatMove1&#45;&gt;ExpTemp1</title>
<path fill="none" stroke="black" d="M487.245,-431.697C487.245,-423.983 487.245,-414.712 487.245,-406.112"/>
<polygon fill="black" stroke="black" points="490.745,-406.104 487.245,-396.104 483.745,-406.104 490.745,-406.104"/>
</g>
<!-- ExpCall3 -->
<g id="node3" class="node"><title>ExpCall3</title>
<ellipse fill="none" stroke="black" cx="602.245" cy="-378" rx="44.393" ry="18"/>
<text text-anchor="middle" x="602.245" y="-374.3" font-family="Times,serif" font-size="14.00">ExpCall3</text>
</g>
<!-- StatMove1&#45;&gt;ExpCall3 -->
<g id="edge2" class="edge"><title>StatMove1&#45;&gt;ExpCall3</title>
<path fill="none" stroke="black" d="M511.634,-434.155C528.632,-423.808 551.486,-409.897 569.989,-398.634"/>
<polygon fill="black" stroke="black" points="571.956,-401.534 578.678,-393.345 568.316,-395.555 571.956,-401.534"/>
</g>
<!-- Temp1: T15 -->
<g id="node5" class="node"><title>Temp1: T15</title>
<ellipse fill="none" stroke="black" cx="487.245" cy="-306" rx="55.4913" ry="18"/>
<text text-anchor="middle" x="487.245" y="-302.3" font-family="Times,serif" font-size="14.00">Temp1: T15</text>
</g>
<!-- ExpTemp1&#45;&gt;Temp1: T15 -->
<g id="edge4" class="edge"><title>ExpTemp1&#45;&gt;Temp1: T15</title>
<path fill="none" stroke="black" d="M487.245,-359.697C487.245,-351.983 487.245,-342.712 487.245,-334.112"/>
<polygon fill="black" stroke="black" points="490.745,-334.104 487.245,-324.104 483.745,-334.104 490.745,-334.104"/>
</g>
<!-- Value3: 1 -->
<g id="node4" class="node"><title>Value3: 1</title>
<ellipse fill="none" stroke="black" cx="606.245" cy="-306" rx="45.4919" ry="18"/>
<text text-anchor="middle" x="606.245" y="-302.3" font-family="Times,serif" font-size="14.00">Value3: 1</text>
</g>
<!-- ExpCall3&#45;&gt;Value3: 1 -->
<g id="edge3" class="edge"><title>ExpCall3&#45;&gt;Value3: 1</title>
<path fill="none" stroke="black" d="M603.234,-359.697C603.675,-351.983 604.204,-342.712 604.696,-334.112"/>
<polygon fill="black" stroke="black" points="608.191,-334.288 605.268,-324.104 601.203,-333.888 608.191,-334.288"/>
</g>
<!-- ExpTemp0 -->
<g id="node6" class="node"><title>ExpTemp0</title>
<ellipse fill="none" stroke="black" cx="55.2451" cy="-90" rx="50.0912" ry="18"/>
<text text-anchor="middle" x="55.2451" y="-86.3" font-family="Times,serif" font-size="14.00">ExpTemp0</text>
</g>
<!-- Temp0: T14 -->
<g id="node7" class="node"><title>Temp0: T14</title>
<ellipse fill="none" stroke="black" cx="55.2451" cy="-18" rx="55.4913" ry="18"/>
<text text-anchor="middle" x="55.2451" y="-14.3" font-family="Times,serif" font-size="14.00">Temp0: T14</text>
</g>
<!-- ExpTemp0&#45;&gt;Temp0: T14 -->
<g id="edge5" class="edge"><title>ExpTemp0&#45;&gt;Temp0: T14</title>
<path fill="none" stroke="black" d="M55.2451,-71.6966C55.2451,-63.9827 55.2451,-54.7125 55.2451,-46.1124"/>
<polygon fill="black" stroke="black" points="58.7452,-46.1043 55.2451,-36.1043 51.7452,-46.1044 58.7452,-46.1043"/>
</g>
<!-- StatSeq0 -->
<g id="node8" class="node"><title>StatSeq0</title>
<ellipse fill="none" stroke="black" cx="306.245" cy="-594" rx="42.4939" ry="18"/>
<text text-anchor="middle" x="306.245" y="-590.3" font-family="Times,serif" font-size="14.00">StatSeq0</text>
</g>
<!-- StatLabel0 -->
<g id="node9" class="node"><title>StatLabel0</title>
<ellipse fill="none" stroke="black" cx="244.245" cy="-522" rx="48.9926" ry="18"/>
<text text-anchor="middle" x="244.245" y="-518.3" font-family="Times,serif" font-size="14.00">StatLabel0</text>
</g>
<!-- StatSeq0&#45;&gt;StatLabel0 -->
<g id="edge6" class="edge"><title>StatSeq0&#45;&gt;StatLabel0</title>
<path fill="none" stroke="black" d="M291.865,-576.765C284.075,-567.969 274.296,-556.928 265.63,-547.144"/>
<polygon fill="black" stroke="black" points="268.228,-544.799 258.978,-539.633 262.988,-549.44 268.228,-544.799"/>
</g>
<!-- StatSeq1 -->
<g id="node10" class="node"><title>StatSeq1</title>
<ellipse fill="none" stroke="black" cx="368.245" cy="-522" rx="42.4939" ry="18"/>
<text text-anchor="middle" x="368.245" y="-518.3" font-family="Times,serif" font-size="14.00">StatSeq1</text>
</g>
<!-- StatSeq0&#45;&gt;StatSeq1 -->
<g id="edge7" class="edge"><title>StatSeq0&#45;&gt;StatSeq1</title>
<path fill="none" stroke="black" d="M320.625,-576.765C328.528,-567.841 338.478,-556.608 347.236,-546.719"/>
<polygon fill="black" stroke="black" points="349.933,-548.954 353.943,-539.147 344.693,-544.313 349.933,-548.954"/>
</g>
<!-- Label0: List::Init -->
<g id="node11" class="node"><title>Label0: List::Init</title>
<ellipse fill="none" stroke="black" cx="229.245" cy="-450" rx="70.6878" ry="18"/>
<text text-anchor="middle" x="229.245" y="-446.3" font-family="Times,serif" font-size="14.00">Label0: List::Init</text>
</g>
<!-- StatLabel0&#45;&gt;Label0: List::Init -->
<g id="edge8" class="edge"><title>StatLabel0&#45;&gt;Label0: List::Init</title>
<path fill="none" stroke="black" d="M240.537,-503.697C238.884,-495.983 236.898,-486.712 235.055,-478.112"/>
<polygon fill="black" stroke="black" points="238.428,-477.149 232.91,-468.104 231.583,-478.616 238.428,-477.149"/>
</g>
<!-- StatSeq1&#45;&gt;StatMove1 -->
<g id="edge10" class="edge"><title>StatSeq1&#45;&gt;StatMove1</title>
<path fill="none" stroke="black" d="M392.041,-507.003C409.686,-496.623 433.98,-482.333 453.61,-470.785"/>
<polygon fill="black" stroke="black" points="455.416,-473.784 462.26,-465.697 451.866,-467.75 455.416,-473.784"/>
</g>
<!-- StatMove0 -->
<g id="node12" class="node"><title>StatMove0</title>
<ellipse fill="none" stroke="black" cx="368.245" cy="-450" rx="50.0912" ry="18"/>
<text text-anchor="middle" x="368.245" y="-446.3" font-family="Times,serif" font-size="14.00">StatMove0</text>
</g>
<!-- StatSeq1&#45;&gt;StatMove0 -->
<g id="edge9" class="edge"><title>StatSeq1&#45;&gt;StatMove0</title>
<path fill="none" stroke="black" d="M368.245,-503.697C368.245,-495.983 368.245,-486.712 368.245,-478.112"/>
<polygon fill="black" stroke="black" points="371.745,-478.104 368.245,-468.104 364.745,-478.104 371.745,-478.104"/>
</g>
<!-- ExpMem0 -->
<g id="node18" class="node"><title>ExpMem0</title>
<ellipse fill="none" stroke="black" cx="254.245" cy="-378" rx="48.9926" ry="18"/>
<text text-anchor="middle" x="254.245" y="-374.3" font-family="Times,serif" font-size="14.00">ExpMem0</text>
</g>
<!-- StatMove0&#45;&gt;ExpMem0 -->
<g id="edge22" class="edge"><title>StatMove0&#45;&gt;ExpMem0</title>
<path fill="none" stroke="black" d="M344.069,-434.155C327.443,-423.946 305.166,-410.267 286.956,-399.086"/>
<polygon fill="black" stroke="black" points="288.74,-396.074 278.387,-393.824 285.077,-402.039 288.74,-396.074"/>
</g>
<!-- ExpCall2 -->
<g id="node23" class="node"><title>ExpCall2</title>
<ellipse fill="none" stroke="black" cx="368.245" cy="-378" rx="44.393" ry="18"/>
<text text-anchor="middle" x="368.245" y="-374.3" font-family="Times,serif" font-size="14.00">ExpCall2</text>
</g>
<!-- StatMove0&#45;&gt;ExpCall2 -->
<g id="edge23" class="edge"><title>StatMove0&#45;&gt;ExpCall2</title>
<path fill="none" stroke="black" d="M368.245,-431.697C368.245,-423.983 368.245,-414.712 368.245,-406.112"/>
<polygon fill="black" stroke="black" points="371.745,-406.104 368.245,-396.104 364.745,-406.104 371.745,-406.104"/>
</g>
<!-- ExpCall0 -->
<g id="node13" class="node"><title>ExpCall0</title>
<ellipse fill="none" stroke="black" cx="247.245" cy="-90" rx="44.393" ry="18"/>
<text text-anchor="middle" x="247.245" y="-86.3" font-family="Times,serif" font-size="14.00">ExpCall0</text>
</g>
<!-- Value0: 0 -->
<g id="node14" class="node"><title>Value0: 0</title>
<ellipse fill="none" stroke="black" cx="247.245" cy="-18" rx="45.4919" ry="18"/>
<text text-anchor="middle" x="247.245" y="-14.3" font-family="Times,serif" font-size="14.00">Value0: 0</text>
</g>
<!-- ExpCall0&#45;&gt;Value0: 0 -->
<g id="edge11" class="edge"><title>ExpCall0&#45;&gt;Value0: 0</title>
<path fill="none" stroke="black" d="M247.245,-71.6966C247.245,-63.9827 247.245,-54.7125 247.245,-46.1124"/>
<polygon fill="black" stroke="black" points="250.745,-46.1043 247.245,-36.1043 243.745,-46.1044 250.745,-46.1043"/>
</g>
<!-- ExpMem1 -->
<g id="node15" class="node"><title>ExpMem1</title>
<ellipse fill="none" stroke="black" cx="154.245" cy="-234" rx="48.9926" ry="18"/>
<text text-anchor="middle" x="154.245" y="-230.3" font-family="Times,serif" font-size="14.00">ExpMem1</text>
</g>
<!-- ExpBinary1 -->
<g id="node16" class="node"><title>ExpBinary1</title>
<ellipse fill="none" stroke="black" cx="154.245" cy="-162" rx="53.0913" ry="18"/>
<text text-anchor="middle" x="154.245" y="-158.3" font-family="Times,serif" font-size="14.00">ExpBinary1</text>
</g>
<!-- ExpMem1&#45;&gt;ExpBinary1 -->
<g id="edge12" class="edge"><title>ExpMem1&#45;&gt;ExpBinary1</title>
<path fill="none" stroke="black" d="M154.245,-215.697C154.245,-207.983 154.245,-198.712 154.245,-190.112"/>
<polygon fill="black" stroke="black" points="157.745,-190.104 154.245,-180.104 150.745,-190.104 157.745,-190.104"/>
</g>
<!-- ExpBinary1&#45;&gt;ExpTemp0 -->
<g id="edge13" class="edge"><title>ExpBinary1&#45;&gt;ExpTemp0</title>
<path fill="none" stroke="black" d="M132.274,-145.465C118.464,-135.7 100.463,-122.972 85.3357,-112.276"/>
<polygon fill="black" stroke="black" points="87.0002,-109.167 76.8144,-106.251 82.9588,-114.882 87.0002,-109.167"/>
</g>
<!-- ExpBinary1&#45;&gt;ExpCall0 -->
<g id="edge15" class="edge"><title>ExpBinary1&#45;&gt;ExpCall0</title>
<path fill="none" stroke="black" d="M175.348,-145.116C188.219,-135.429 204.833,-122.923 218.848,-112.374"/>
<polygon fill="black" stroke="black" points="221.297,-114.912 227.182,-106.101 217.087,-109.319 221.297,-114.912"/>
</g>
<!-- Plus0 -->
<g id="node17" class="node"><title>Plus0</title>
<ellipse fill="none" stroke="black" cx="154.245" cy="-90" rx="30.5947" ry="18"/>
<text text-anchor="middle" x="154.245" y="-86.3" font-family="Times,serif" font-size="14.00">Plus0</text>
</g>
<!-- ExpBinary1&#45;&gt;Plus0 -->
<g id="edge14" class="edge"><title>ExpBinary1&#45;&gt;Plus0</title>
<path fill="none" stroke="black" d="M154.245,-143.697C154.245,-135.983 154.245,-126.712 154.245,-118.112"/>
<polygon fill="black" stroke="black" points="157.745,-118.104 154.245,-108.104 150.745,-118.104 157.745,-118.104"/>
</g>
<!-- ExpBinary0 -->
<g id="node19" class="node"><title>ExpBinary0</title>
<ellipse fill="none" stroke="black" cx="251.245" cy="-306" rx="53.0913" ry="18"/>
<text text-anchor="middle" x="251.245" y="-302.3" font-family="Times,serif" font-size="14.00">ExpBinary0</text>
</g>
<!-- ExpMem0&#45;&gt;ExpBinary0 -->
<g id="edge16" class="edge"><title>ExpMem0&#45;&gt;ExpBinary0</title>
<path fill="none" stroke="black" d="M253.504,-359.697C253.173,-351.983 252.776,-342.712 252.407,-334.112"/>
<polygon fill="black" stroke="black" points="255.903,-333.945 251.978,-324.104 248.91,-334.245 255.903,-333.945"/>
</g>
<!-- ExpBinary0&#45;&gt;ExpMem1 -->
<g id="edge17" class="edge"><title>ExpBinary0&#45;&gt;ExpMem1</title>
<path fill="none" stroke="black" d="M229.718,-289.465C216.187,-279.7 198.55,-266.972 183.728,-256.276"/>
<polygon fill="black" stroke="black" points="185.536,-253.265 175.379,-250.251 181.439,-258.941 185.536,-253.265"/>
</g>
<!-- Plus1 -->
<g id="node20" class="node"><title>Plus1</title>
<ellipse fill="none" stroke="black" cx="251.245" cy="-234" rx="30.5947" ry="18"/>
<text text-anchor="middle" x="251.245" y="-230.3" font-family="Times,serif" font-size="14.00">Plus1</text>
</g>
<!-- ExpBinary0&#45;&gt;Plus1 -->
<g id="edge18" class="edge"><title>ExpBinary0&#45;&gt;Plus1</title>
<path fill="none" stroke="black" d="M251.245,-287.697C251.245,-279.983 251.245,-270.712 251.245,-262.112"/>
<polygon fill="black" stroke="black" points="254.745,-262.104 251.245,-252.104 247.745,-262.104 254.745,-262.104"/>
</g>
<!-- ExpCall1 -->
<g id="node21" class="node"><title>ExpCall1</title>
<ellipse fill="none" stroke="black" cx="344.245" cy="-234" rx="44.393" ry="18"/>
<text text-anchor="middle" x="344.245" y="-230.3" font-family="Times,serif" font-size="14.00">ExpCall1</text>
</g>
<!-- ExpBinary0&#45;&gt;ExpCall1 -->
<g id="edge19" class="edge"><title>ExpBinary0&#45;&gt;ExpCall1</title>
<path fill="none" stroke="black" d="M272.348,-289.116C285.219,-279.429 301.833,-266.923 315.848,-256.374"/>
<polygon fill="black" stroke="black" points="318.297,-258.912 324.182,-250.101 314.087,-253.319 318.297,-258.912"/>
</g>
<!-- Value1: 4 -->
<g id="node22" class="node"><title>Value1: 4</title>
<ellipse fill="none" stroke="black" cx="344.245" cy="-162" rx="45.4919" ry="18"/>
<text text-anchor="middle" x="344.245" y="-158.3" font-family="Times,serif" font-size="14.00">Value1: 4</text>
</g>
<!-- ExpCall1&#45;&gt;Value1: 4 -->
<g id="edge20" class="edge"><title>ExpCall1&#45;&gt;Value1: 4</title>
<path fill="none" stroke="black" d="M344.245,-215.697C344.245,-207.983 344.245,-198.712 344.245,-190.112"/>
<polygon fill="black" stroke="black" points="347.745,-190.104 344.245,-180.104 340.745,-190.104 347.745,-190.104"/>
</g>
<!-- Value2: 1 -->
<g id="node24" class="node"><title>Value2: 1</title>
<ellipse fill="none" stroke="black" cx="368.245" cy="-306" rx="45.4919" ry="18"/>
<text text-anchor="middle" x="368.245" y="-302.3" font-family="Times,serif" font-size="14.00">Value2: 1</text>
</g>
<!-- ExpCall2&#45;&gt;Value2: 1 -->
<g id="edge21" class="edge"><title>ExpCall2&#45;&gt;Value2: 1</title>
<path fill="none" stroke="black" d="M368.245,-359.697C368.245,-351.983 368.245,-342.712 368.245,-334.112"/>
<polygon fill="black" stroke="black" points="371.745,-334.104 368.245,-324.104 364.745,-334.104 371.745,-334.104"/>
</g>
</g>
</svg>
