<?xml version="1.0" encoding="UTF-8" standalone="no"?>
<!DOCTYPE svg PUBLIC "-//W3C//DTD SVG 1.1//EN"
 "http://www.w3.org/Graphics/SVG/1.1/DTD/svg11.dtd">
<!-- Generated by graphviz version 2.38.0 (20140413.2041)
 -->
<!-- Title: %3 Pages: 1 -->
<svg width="527pt" height="548pt"
 viewBox="0.00 0.00 526.84 548.00" xmlns="http://www.w3.org/2000/svg" xmlns:xlink="http://www.w3.org/1999/xlink">
<g id="graph0" class="graph" transform="scale(1 1) rotate(0) translate(4 544)">
<title>%3</title>
<polygon fill="white" stroke="none" points="-4,4 -4,-544 522.838,-544 522.838,4 -4,4"/>
<!-- StatMove0 -->
<g id="node1" class="node"><title>StatMove0</title>
<ellipse fill="none" stroke="black" cx="248.342" cy="-450" rx="50.0912" ry="18"/>
<text text-anchor="middle" x="248.342" y="-446.3" font-family="Times,serif" font-size="14.00">StatMove0</text>
</g>
<!-- ExpTemp0 -->
<g id="node2" class="node"><title>ExpTemp0</title>
<ellipse fill="none" stroke="black" cx="248.342" cy="-378" rx="50.0912" ry="18"/>
<text text-anchor="middle" x="248.342" y="-374.3" font-family="Times,serif" font-size="14.00">ExpTemp0</text>
</g>
<!-- StatMove0&#45;&gt;ExpTemp0 -->
<g id="edge1" class="edge"><title>StatMove0&#45;&gt;ExpTemp0</title>
<path fill="none" stroke="black" d="M248.342,-431.697C248.342,-423.983 248.342,-414.712 248.342,-406.112"/>
<polygon fill="black" stroke="black" points="251.842,-406.104 248.342,-396.104 244.842,-406.104 251.842,-406.104"/>
</g>
<!-- ExpMem0 -->
<g id="node3" class="node"><title>ExpMem0</title>
<ellipse fill="none" stroke="black" cx="375.342" cy="-378" rx="48.9926" ry="18"/>
<text text-anchor="middle" x="375.342" y="-374.3" font-family="Times,serif" font-size="14.00">ExpMem0</text>
</g>
<!-- StatMove0&#45;&gt;ExpMem0 -->
<g id="edge2" class="edge"><title>StatMove0&#45;&gt;ExpMem0</title>
<path fill="none" stroke="black" d="M274.656,-434.496C293.643,-424.031 319.478,-409.791 340.224,-398.356"/>
<polygon fill="black" stroke="black" points="341.993,-401.378 349.061,-393.485 338.614,-395.247 341.993,-401.378"/>
</g>
<!-- Temp0: RetVal -->
<g id="node9" class="node"><title>Temp0: RetVal</title>
<ellipse fill="none" stroke="black" cx="243.342" cy="-306" rx="65.7887" ry="18"/>
<text text-anchor="middle" x="243.342" y="-302.3" font-family="Times,serif" font-size="14.00">Temp0: RetVal</text>
</g>
<!-- ExpTemp0&#45;&gt;Temp0: RetVal -->
<g id="edge7" class="edge"><title>ExpTemp0&#45;&gt;Temp0: RetVal</title>
<path fill="none" stroke="black" d="M247.106,-359.697C246.555,-351.983 245.893,-342.712 245.279,-334.112"/>
<polygon fill="black" stroke="black" points="248.767,-333.83 244.564,-324.104 241.785,-334.328 248.767,-333.83"/>
</g>
<!-- ExpBinary0 -->
<g id="node4" class="node"><title>ExpBinary0</title>
<ellipse fill="none" stroke="black" cx="380.342" cy="-306" rx="53.0913" ry="18"/>
<text text-anchor="middle" x="380.342" y="-302.3" font-family="Times,serif" font-size="14.00">ExpBinary0</text>
</g>
<!-- ExpMem0&#45;&gt;ExpBinary0 -->
<g id="edge12" class="edge"><title>ExpMem0&#45;&gt;ExpBinary0</title>
<path fill="none" stroke="black" d="M376.578,-359.697C377.129,-351.983 377.791,-342.712 378.405,-334.112"/>
<polygon fill="black" stroke="black" points="381.899,-334.328 379.12,-324.104 374.917,-333.83 381.899,-334.328"/>
</g>
<!-- ExpMem1 -->
<g id="node5" class="node"><title>ExpMem1</title>
<ellipse fill="none" stroke="black" cx="283.342" cy="-234" rx="48.9926" ry="18"/>
<text text-anchor="middle" x="283.342" y="-230.3" font-family="Times,serif" font-size="14.00">ExpMem1</text>
</g>
<!-- ExpBinary0&#45;&gt;ExpMem1 -->
<g id="edge3" class="edge"><title>ExpBinary0&#45;&gt;ExpMem1</title>
<path fill="none" stroke="black" d="M358.815,-289.465C345.284,-279.7 327.647,-266.972 312.825,-256.276"/>
<polygon fill="black" stroke="black" points="314.633,-253.265 304.476,-250.251 310.536,-258.941 314.633,-253.265"/>
</g>
<!-- Plus1 -->
<g id="node6" class="node"><title>Plus1</title>
<ellipse fill="none" stroke="black" cx="380.342" cy="-234" rx="30.5947" ry="18"/>
<text text-anchor="middle" x="380.342" y="-230.3" font-family="Times,serif" font-size="14.00">Plus1</text>
</g>
<!-- ExpBinary0&#45;&gt;Plus1 -->
<g id="edge4" class="edge"><title>ExpBinary0&#45;&gt;Plus1</title>
<path fill="none" stroke="black" d="M380.342,-287.697C380.342,-279.983 380.342,-270.712 380.342,-262.112"/>
<polygon fill="black" stroke="black" points="383.842,-262.104 380.342,-252.104 376.842,-262.104 383.842,-262.104"/>
</g>
<!-- ExpCall1 -->
<g id="node7" class="node"><title>ExpCall1</title>
<ellipse fill="none" stroke="black" cx="473.342" cy="-234" rx="44.393" ry="18"/>
<text text-anchor="middle" x="473.342" y="-230.3" font-family="Times,serif" font-size="14.00">ExpCall1</text>
</g>
<!-- ExpBinary0&#45;&gt;ExpCall1 -->
<g id="edge5" class="edge"><title>ExpBinary0&#45;&gt;ExpCall1</title>
<path fill="none" stroke="black" d="M401.445,-289.116C414.315,-279.429 430.93,-266.923 444.945,-256.374"/>
<polygon fill="black" stroke="black" points="447.394,-258.912 453.279,-250.101 443.184,-253.319 447.394,-258.912"/>
</g>
<!-- ExpBinary1 -->
<g id="node15" class="node"><title>ExpBinary1</title>
<ellipse fill="none" stroke="black" cx="283.342" cy="-162" rx="53.0913" ry="18"/>
<text text-anchor="middle" x="283.342" y="-158.3" font-family="Times,serif" font-size="14.00">ExpBinary1</text>
</g>
<!-- ExpMem1&#45;&gt;ExpBinary1 -->
<g id="edge17" class="edge"><title>ExpMem1&#45;&gt;ExpBinary1</title>
<path fill="none" stroke="black" d="M283.342,-215.697C283.342,-207.983 283.342,-198.712 283.342,-190.112"/>
<polygon fill="black" stroke="black" points="286.842,-190.104 283.342,-180.104 279.842,-190.104 286.842,-190.104"/>
</g>
<!-- Value1: 0 -->
<g id="node8" class="node"><title>Value1: 0</title>
<ellipse fill="none" stroke="black" cx="473.342" cy="-162" rx="45.4919" ry="18"/>
<text text-anchor="middle" x="473.342" y="-158.3" font-family="Times,serif" font-size="14.00">Value1: 0</text>
</g>
<!-- ExpCall1&#45;&gt;Value1: 0 -->
<g id="edge6" class="edge"><title>ExpCall1&#45;&gt;Value1: 0</title>
<path fill="none" stroke="black" d="M473.342,-215.697C473.342,-207.983 473.342,-198.712 473.342,-190.112"/>
<polygon fill="black" stroke="black" points="476.842,-190.104 473.342,-180.104 469.842,-190.104 476.842,-190.104"/>
</g>
<!-- StatSeq0 -->
<g id="node10" class="node"><title>StatSeq0</title>
<ellipse fill="none" stroke="black" cx="179.342" cy="-522" rx="42.4939" ry="18"/>
<text text-anchor="middle" x="179.342" y="-518.3" font-family="Times,serif" font-size="14.00">StatSeq0</text>
</g>
<!-- StatSeq0&#45;&gt;StatMove0 -->
<g id="edge9" class="edge"><title>StatSeq0&#45;&gt;StatMove0</title>
<path fill="none" stroke="black" d="M194.999,-505.116C203.871,-496.116 215.141,-484.682 225.034,-474.646"/>
<polygon fill="black" stroke="black" points="227.741,-476.886 232.268,-467.307 222.755,-471.972 227.741,-476.886"/>
</g>
<!-- StatLabel0 -->
<g id="node11" class="node"><title>StatLabel0</title>
<ellipse fill="none" stroke="black" cx="111.342" cy="-450" rx="48.9926" ry="18"/>
<text text-anchor="middle" x="111.342" y="-446.3" font-family="Times,serif" font-size="14.00">StatLabel0</text>
</g>
<!-- StatSeq0&#45;&gt;StatLabel0 -->
<g id="edge8" class="edge"><title>StatSeq0&#45;&gt;StatLabel0</title>
<path fill="none" stroke="black" d="M163.912,-505.116C155.169,-496.116 144.062,-484.682 134.312,-474.646"/>
<polygon fill="black" stroke="black" points="136.661,-472.041 127.183,-467.307 131.64,-476.919 136.661,-472.041"/>
</g>
<!-- Label0: List::GetElem -->
<g id="node12" class="node"><title>Label0: List::GetElem</title>
<ellipse fill="none" stroke="black" cx="90.342" cy="-378" rx="90.1842" ry="18"/>
<text text-anchor="middle" x="90.342" y="-374.3" font-family="Times,serif" font-size="14.00">Label0: List::GetElem</text>
</g>
<!-- StatLabel0&#45;&gt;Label0: List::GetElem -->
<g id="edge10" class="edge"><title>StatLabel0&#45;&gt;Label0: List::GetElem</title>
<path fill="none" stroke="black" d="M106.258,-432.055C103.92,-424.261 101.089,-414.822 98.4657,-406.079"/>
<polygon fill="black" stroke="black" points="101.751,-404.848 95.5246,-396.275 95.0457,-406.859 101.751,-404.848"/>
</g>
<!-- ExpTemp1 -->
<g id="node13" class="node"><title>ExpTemp1</title>
<ellipse fill="none" stroke="black" cx="184.342" cy="-90" rx="50.0912" ry="18"/>
<text text-anchor="middle" x="184.342" y="-86.3" font-family="Times,serif" font-size="14.00">ExpTemp1</text>
</g>
<!-- Temp1: FP -->
<g id="node14" class="node"><title>Temp1: FP</title>
<ellipse fill="none" stroke="black" cx="184.342" cy="-18" rx="50.8918" ry="18"/>
<text text-anchor="middle" x="184.342" y="-14.3" font-family="Times,serif" font-size="14.00">Temp1: FP</text>
</g>
<!-- ExpTemp1&#45;&gt;Temp1: FP -->
<g id="edge11" class="edge"><title>ExpTemp1&#45;&gt;Temp1: FP</title>
<path fill="none" stroke="black" d="M184.342,-71.6966C184.342,-63.9827 184.342,-54.7125 184.342,-46.1124"/>
<polygon fill="black" stroke="black" points="187.842,-46.1043 184.342,-36.1043 180.842,-46.1044 187.842,-46.1043"/>
</g>
<!-- ExpBinary1&#45;&gt;ExpTemp1 -->
<g id="edge13" class="edge"><title>ExpBinary1&#45;&gt;ExpTemp1</title>
<path fill="none" stroke="black" d="M261.371,-145.465C247.561,-135.7 229.56,-122.972 214.433,-112.276"/>
<polygon fill="black" stroke="black" points="216.097,-109.167 205.911,-106.251 212.056,-114.882 216.097,-109.167"/>
</g>
<!-- Plus0 -->
<g id="node16" class="node"><title>Plus0</title>
<ellipse fill="none" stroke="black" cx="283.342" cy="-90" rx="30.5947" ry="18"/>
<text text-anchor="middle" x="283.342" y="-86.3" font-family="Times,serif" font-size="14.00">Plus0</text>
</g>
<!-- ExpBinary1&#45;&gt;Plus0 -->
<g id="edge14" class="edge"><title>ExpBinary1&#45;&gt;Plus0</title>
<path fill="none" stroke="black" d="M283.342,-143.697C283.342,-135.983 283.342,-126.712 283.342,-118.112"/>
<polygon fill="black" stroke="black" points="286.842,-118.104 283.342,-108.104 279.842,-118.104 286.842,-118.104"/>
</g>
<!-- ExpCall0 -->
<g id="node17" class="node"><title>ExpCall0</title>
<ellipse fill="none" stroke="black" cx="376.342" cy="-90" rx="44.393" ry="18"/>
<text text-anchor="middle" x="376.342" y="-86.3" font-family="Times,serif" font-size="14.00">ExpCall0</text>
</g>
<!-- ExpBinary1&#45;&gt;ExpCall0 -->
<g id="edge15" class="edge"><title>ExpBinary1&#45;&gt;ExpCall0</title>
<path fill="none" stroke="black" d="M304.445,-145.116C317.315,-135.429 333.93,-122.923 347.945,-112.374"/>
<polygon fill="black" stroke="black" points="350.394,-114.912 356.279,-106.101 346.184,-109.319 350.394,-114.912"/>
</g>
<!-- Value0: 0 -->
<g id="node18" class="node"><title>Value0: 0</title>
<ellipse fill="none" stroke="black" cx="376.342" cy="-18" rx="45.4919" ry="18"/>
<text text-anchor="middle" x="376.342" y="-14.3" font-family="Times,serif" font-size="14.00">Value0: 0</text>
</g>
<!-- ExpCall0&#45;&gt;Value0: 0 -->
<g id="edge16" class="edge"><title>ExpCall0&#45;&gt;Value0: 0</title>
<path fill="none" stroke="black" d="M376.342,-71.6966C376.342,-63.9827 376.342,-54.7125 376.342,-46.1124"/>
<polygon fill="black" stroke="black" points="379.842,-46.1043 376.342,-36.1043 372.842,-46.1044 379.842,-46.1043"/>
</g>
</g>
</svg>
