<?xml version="1.0" encoding="UTF-8" standalone="no"?>
<!DOCTYPE svg PUBLIC "-//W3C//DTD SVG 1.1//EN"
 "http://www.w3.org/Graphics/SVG/1.1/DTD/svg11.dtd">
<!-- Generated by graphviz version 2.38.0 (20140413.2041)
 -->
<!-- Title: %3 Pages: 1 -->
<svg width="1878pt" height="764pt"
 viewBox="0.00 0.00 1878.19 764.00" xmlns="http://www.w3.org/2000/svg" xmlns:xlink="http://www.w3.org/1999/xlink">
<g id="graph0" class="graph" transform="scale(1 1) rotate(0) translate(4 760)">
<title>%3</title>
<polygon fill="white" stroke="none" points="-4,4 -4,-760 1874.19,-760 1874.19,4 -4,4"/>
<!-- ExpTemp6 -->
<g id="node1" class="node"><title>ExpTemp6</title>
<ellipse fill="none" stroke="black" cx="1420.7" cy="-522" rx="50.0912" ry="18"/>
<text text-anchor="middle" x="1420.7" y="-518.3" font-family="Times,serif" font-size="14.00">ExpTemp6</text>
</g>
<!-- Temp6: RetVal -->
<g id="node2" class="node"><title>Temp6: RetVal</title>
<ellipse fill="none" stroke="black" cx="1420.7" cy="-450" rx="65.7887" ry="18"/>
<text text-anchor="middle" x="1420.7" y="-446.3" font-family="Times,serif" font-size="14.00">Temp6: RetVal</text>
</g>
<!-- ExpTemp6&#45;&gt;Temp6: RetVal -->
<g id="edge1" class="edge"><title>ExpTemp6&#45;&gt;Temp6: RetVal</title>
<path fill="none" stroke="black" d="M1420.7,-503.697C1420.7,-495.983 1420.7,-486.712 1420.7,-478.112"/>
<polygon fill="black" stroke="black" points="1424.2,-478.104 1420.7,-468.104 1417.2,-478.104 1424.2,-478.104"/>
</g>
<!-- StatSeq1 -->
<g id="node3" class="node"><title>StatSeq1</title>
<ellipse fill="none" stroke="black" cx="1227.7" cy="-666" rx="42.4939" ry="18"/>
<text text-anchor="middle" x="1227.7" y="-662.3" font-family="Times,serif" font-size="14.00">StatSeq1</text>
</g>
<!-- StatSeq2 -->
<g id="node4" class="node"><title>StatSeq2</title>
<ellipse fill="none" stroke="black" cx="1227.7" cy="-594" rx="42.4939" ry="18"/>
<text text-anchor="middle" x="1227.7" y="-590.3" font-family="Times,serif" font-size="14.00">StatSeq2</text>
</g>
<!-- StatSeq1&#45;&gt;StatSeq2 -->
<g id="edge2" class="edge"><title>StatSeq1&#45;&gt;StatSeq2</title>
<path fill="none" stroke="black" d="M1227.7,-647.697C1227.7,-639.983 1227.7,-630.712 1227.7,-622.112"/>
<polygon fill="black" stroke="black" points="1231.2,-622.104 1227.7,-612.104 1224.2,-622.104 1231.2,-622.104"/>
</g>
<!-- StatMove3 -->
<g id="node5" class="node"><title>StatMove3</title>
<ellipse fill="none" stroke="black" cx="1420.7" cy="-594" rx="50.0912" ry="18"/>
<text text-anchor="middle" x="1420.7" y="-590.3" font-family="Times,serif" font-size="14.00">StatMove3</text>
</g>
<!-- StatSeq1&#45;&gt;StatMove3 -->
<g id="edge3" class="edge"><title>StatSeq1&#45;&gt;StatMove3</title>
<path fill="none" stroke="black" d="M1258.7,-653.753C1290.75,-642.131 1341.03,-623.892 1377.08,-610.819"/>
<polygon fill="black" stroke="black" points="1378.63,-613.979 1386.84,-607.279 1376.25,-607.398 1378.63,-613.979"/>
</g>
<!-- StatSeq3 -->
<g id="node17" class="node"><title>StatSeq3</title>
<ellipse fill="none" stroke="black" cx="1227.7" cy="-522" rx="42.4939" ry="18"/>
<text text-anchor="middle" x="1227.7" y="-518.3" font-family="Times,serif" font-size="14.00">StatSeq3</text>
</g>
<!-- StatSeq2&#45;&gt;StatSeq3 -->
<g id="edge59" class="edge"><title>StatSeq2&#45;&gt;StatSeq3</title>
<path fill="none" stroke="black" d="M1227.7,-575.697C1227.7,-567.983 1227.7,-558.712 1227.7,-550.112"/>
<polygon fill="black" stroke="black" points="1231.2,-550.104 1227.7,-540.104 1224.2,-550.104 1231.2,-550.104"/>
</g>
<!-- StatMove0 -->
<g id="node26" class="node"><title>StatMove0</title>
<ellipse fill="none" stroke="black" cx="551.696" cy="-522" rx="50.0912" ry="18"/>
<text text-anchor="middle" x="551.696" y="-518.3" font-family="Times,serif" font-size="14.00">StatMove0</text>
</g>
<!-- StatSeq2&#45;&gt;StatMove0 -->
<g id="edge58" class="edge"><title>StatSeq2&#45;&gt;StatMove0</title>
<path fill="none" stroke="black" d="M1197,-581.466C1190.38,-579.348 1183.37,-577.375 1176.7,-576 972.426,-533.917 723.986,-525.137 611.795,-523.384"/>
<polygon fill="black" stroke="black" points="611.74,-519.883 601.691,-523.24 611.64,-526.882 611.74,-519.883"/>
</g>
<!-- StatMove3&#45;&gt;ExpTemp6 -->
<g id="edge4" class="edge"><title>StatMove3&#45;&gt;ExpTemp6</title>
<path fill="none" stroke="black" d="M1420.7,-575.697C1420.7,-567.983 1420.7,-558.712 1420.7,-550.112"/>
<polygon fill="black" stroke="black" points="1424.2,-550.104 1420.7,-540.104 1417.2,-550.104 1424.2,-550.104"/>
</g>
<!-- ExpCall9 -->
<g id="node6" class="node"><title>ExpCall9</title>
<ellipse fill="none" stroke="black" cx="1540.7" cy="-522" rx="44.393" ry="18"/>
<text text-anchor="middle" x="1540.7" y="-518.3" font-family="Times,serif" font-size="14.00">ExpCall9</text>
</g>
<!-- StatMove3&#45;&gt;ExpCall9 -->
<g id="edge5" class="edge"><title>StatMove3&#45;&gt;ExpCall9</title>
<path fill="none" stroke="black" d="M1445.85,-578.326C1463.77,-567.874 1488.03,-553.721 1507.53,-542.346"/>
<polygon fill="black" stroke="black" points="1509.52,-545.239 1516.39,-537.177 1505.99,-539.192 1509.52,-545.239"/>
</g>
<!-- Value9: 1 -->
<g id="node43" class="node"><title>Value9: 1</title>
<ellipse fill="none" stroke="black" cx="1549.7" cy="-450" rx="45.4919" ry="18"/>
<text text-anchor="middle" x="1549.7" y="-446.3" font-family="Times,serif" font-size="14.00">Value9: 1</text>
</g>
<!-- ExpCall9&#45;&gt;Value9: 1 -->
<g id="edge35" class="edge"><title>ExpCall9&#45;&gt;Value9: 1</title>
<path fill="none" stroke="black" d="M1542.92,-503.697C1543.91,-495.983 1545.1,-486.712 1546.21,-478.112"/>
<polygon fill="black" stroke="black" points="1549.69,-478.469 1547.5,-468.104 1542.75,-477.576 1549.69,-478.469"/>
</g>
<!-- ExpBinary8 -->
<g id="node7" class="node"><title>ExpBinary8</title>
<ellipse fill="none" stroke="black" cx="1681.7" cy="-306" rx="53.0913" ry="18"/>
<text text-anchor="middle" x="1681.7" y="-302.3" font-family="Times,serif" font-size="14.00">ExpBinary8</text>
</g>
<!-- ExpTemp5 -->
<g id="node8" class="node"><title>ExpTemp5</title>
<ellipse fill="none" stroke="black" cx="1632.7" cy="-234" rx="50.0912" ry="18"/>
<text text-anchor="middle" x="1632.7" y="-230.3" font-family="Times,serif" font-size="14.00">ExpTemp5</text>
</g>
<!-- ExpBinary8&#45;&gt;ExpTemp5 -->
<g id="edge6" class="edge"><title>ExpBinary8&#45;&gt;ExpTemp5</title>
<path fill="none" stroke="black" d="M1670.08,-288.411C1664.19,-279.992 1656.9,-269.585 1650.34,-260.201"/>
<polygon fill="black" stroke="black" points="1653.17,-258.141 1644.56,-251.956 1647.43,-262.156 1653.17,-258.141"/>
</g>
<!-- Plus8 -->
<g id="node9" class="node"><title>Plus8</title>
<ellipse fill="none" stroke="black" cx="1731.7" cy="-234" rx="30.5947" ry="18"/>
<text text-anchor="middle" x="1731.7" y="-230.3" font-family="Times,serif" font-size="14.00">Plus8</text>
</g>
<!-- ExpBinary8&#45;&gt;Plus8 -->
<g id="edge7" class="edge"><title>ExpBinary8&#45;&gt;Plus8</title>
<path fill="none" stroke="black" d="M1693.54,-288.411C1699.74,-279.744 1707.43,-268.971 1714.28,-259.375"/>
<polygon fill="black" stroke="black" points="1717.31,-261.16 1720.28,-250.988 1711.61,-257.091 1717.31,-261.16"/>
</g>
<!-- ExpCall8 -->
<g id="node10" class="node"><title>ExpCall8</title>
<ellipse fill="none" stroke="black" cx="1824.7" cy="-234" rx="44.393" ry="18"/>
<text text-anchor="middle" x="1824.7" y="-230.3" font-family="Times,serif" font-size="14.00">ExpCall8</text>
</g>
<!-- ExpBinary8&#45;&gt;ExpCall8 -->
<g id="edge8" class="edge"><title>ExpBinary8&#45;&gt;ExpCall8</title>
<path fill="none" stroke="black" d="M1710.63,-290.834C1732.97,-279.901 1764.01,-264.704 1788.08,-252.924"/>
<polygon fill="black" stroke="black" points="1789.81,-255.972 1797.26,-248.432 1786.74,-249.685 1789.81,-255.972"/>
</g>
<!-- Temp5: FP -->
<g id="node57" class="node"><title>Temp5: FP</title>
<ellipse fill="none" stroke="black" cx="1632.7" cy="-162" rx="50.8918" ry="18"/>
<text text-anchor="middle" x="1632.7" y="-158.3" font-family="Times,serif" font-size="14.00">Temp5: FP</text>
</g>
<!-- ExpTemp5&#45;&gt;Temp5: FP -->
<g id="edge50" class="edge"><title>ExpTemp5&#45;&gt;Temp5: FP</title>
<path fill="none" stroke="black" d="M1632.7,-215.697C1632.7,-207.983 1632.7,-198.712 1632.7,-190.112"/>
<polygon fill="black" stroke="black" points="1636.2,-190.104 1632.7,-180.104 1629.2,-190.104 1636.2,-190.104"/>
</g>
<!-- Value8: 8 -->
<g id="node38" class="node"><title>Value8: 8</title>
<ellipse fill="none" stroke="black" cx="1824.7" cy="-162" rx="45.4919" ry="18"/>
<text text-anchor="middle" x="1824.7" y="-158.3" font-family="Times,serif" font-size="14.00">Value8: 8</text>
</g>
<!-- ExpCall8&#45;&gt;Value8: 8 -->
<g id="edge31" class="edge"><title>ExpCall8&#45;&gt;Value8: 8</title>
<path fill="none" stroke="black" d="M1824.7,-215.697C1824.7,-207.983 1824.7,-198.712 1824.7,-190.112"/>
<polygon fill="black" stroke="black" points="1828.2,-190.104 1824.7,-180.104 1821.2,-190.104 1828.2,-190.104"/>
</g>
<!-- StatMove2 -->
<g id="node11" class="node"><title>StatMove2</title>
<ellipse fill="none" stroke="black" cx="1286.7" cy="-450" rx="50.0912" ry="18"/>
<text text-anchor="middle" x="1286.7" y="-446.3" font-family="Times,serif" font-size="14.00">StatMove2</text>
</g>
<!-- ExpMem6 -->
<g id="node12" class="node"><title>ExpMem6</title>
<ellipse fill="none" stroke="black" cx="1307.7" cy="-378" rx="48.9926" ry="18"/>
<text text-anchor="middle" x="1307.7" y="-374.3" font-family="Times,serif" font-size="14.00">ExpMem6</text>
</g>
<!-- StatMove2&#45;&gt;ExpMem6 -->
<g id="edge9" class="edge"><title>StatMove2&#45;&gt;ExpMem6</title>
<path fill="none" stroke="black" d="M1291.78,-432.055C1294.12,-424.261 1296.95,-414.822 1299.57,-406.079"/>
<polygon fill="black" stroke="black" points="1302.99,-406.859 1302.51,-396.275 1296.29,-404.848 1302.99,-406.859"/>
</g>
<!-- ExpMem8 -->
<g id="node13" class="node"><title>ExpMem8</title>
<ellipse fill="none" stroke="black" cx="1526.7" cy="-378" rx="48.9926" ry="18"/>
<text text-anchor="middle" x="1526.7" y="-374.3" font-family="Times,serif" font-size="14.00">ExpMem8</text>
</g>
<!-- StatMove2&#45;&gt;ExpMem8 -->
<g id="edge10" class="edge"><title>StatMove2&#45;&gt;ExpMem8</title>
<path fill="none" stroke="black" d="M1324.2,-438.062C1366.2,-425.811 1434.35,-405.935 1479.83,-392.669"/>
<polygon fill="black" stroke="black" points="1480.84,-396.021 1489.46,-389.861 1478.88,-389.301 1480.84,-396.021"/>
</g>
<!-- ExpBinary6 -->
<g id="node14" class="node"><title>ExpBinary6</title>
<ellipse fill="none" stroke="black" cx="1377.7" cy="-306" rx="53.0913" ry="18"/>
<text text-anchor="middle" x="1377.7" y="-302.3" font-family="Times,serif" font-size="14.00">ExpBinary6</text>
</g>
<!-- ExpMem6&#45;&gt;ExpBinary6 -->
<g id="edge11" class="edge"><title>ExpMem6&#45;&gt;ExpBinary6</title>
<path fill="none" stroke="black" d="M1323.93,-360.765C1332.81,-351.882 1343.99,-340.709 1353.84,-330.854"/>
<polygon fill="black" stroke="black" points="1356.47,-333.179 1361.06,-323.633 1351.52,-328.23 1356.47,-333.179"/>
</g>
<!-- ExpMem8&#45;&gt;ExpBinary8 -->
<g id="edge38" class="edge"><title>ExpMem8&#45;&gt;ExpBinary8</title>
<path fill="none" stroke="black" d="M1556.21,-363.669C1580.39,-352.752 1614.83,-337.199 1641.51,-325.147"/>
<polygon fill="black" stroke="black" points="1643.29,-328.186 1650.96,-320.88 1640.41,-321.807 1643.29,-328.186"/>
</g>
<!-- ExpCall7 -->
<g id="node29" class="node"><title>ExpCall7</title>
<ellipse fill="none" stroke="black" cx="1519.7" cy="-234" rx="44.393" ry="18"/>
<text text-anchor="middle" x="1519.7" y="-230.3" font-family="Times,serif" font-size="14.00">ExpCall7</text>
</g>
<!-- ExpBinary6&#45;&gt;ExpCall7 -->
<g id="edge29" class="edge"><title>ExpBinary6&#45;&gt;ExpCall7</title>
<path fill="none" stroke="black" d="M1406.43,-290.834C1428.61,-279.901 1459.44,-264.704 1483.33,-252.924"/>
<polygon fill="black" stroke="black" points="1485.03,-255.993 1492.45,-248.432 1481.93,-249.714 1485.03,-255.993"/>
</g>
<!-- ExpMem7 -->
<g id="node35" class="node"><title>ExpMem7</title>
<ellipse fill="none" stroke="black" cx="1329.7" cy="-234" rx="48.9926" ry="18"/>
<text text-anchor="middle" x="1329.7" y="-230.3" font-family="Times,serif" font-size="14.00">ExpMem7</text>
</g>
<!-- ExpBinary6&#45;&gt;ExpMem7 -->
<g id="edge27" class="edge"><title>ExpBinary6&#45;&gt;ExpMem7</title>
<path fill="none" stroke="black" d="M1366.32,-288.411C1360.61,-280.077 1353.56,-269.797 1347.17,-260.488"/>
<polygon fill="black" stroke="black" points="1349.86,-258.224 1341.32,-251.956 1344.09,-262.183 1349.86,-258.224"/>
</g>
<!-- Plus7 -->
<g id="node36" class="node"><title>Plus7</title>
<ellipse fill="none" stroke="black" cx="1426.7" cy="-234" rx="30.5947" ry="18"/>
<text text-anchor="middle" x="1426.7" y="-230.3" font-family="Times,serif" font-size="14.00">Plus7</text>
</g>
<!-- ExpBinary6&#45;&gt;Plus7 -->
<g id="edge28" class="edge"><title>ExpBinary6&#45;&gt;Plus7</title>
<path fill="none" stroke="black" d="M1389.31,-288.411C1395.37,-279.744 1402.92,-268.971 1409.63,-259.375"/>
<polygon fill="black" stroke="black" points="1412.64,-261.188 1415.5,-250.988 1406.9,-257.173 1412.64,-261.188"/>
</g>
<!-- ExpTemp4 -->
<g id="node15" class="node"><title>ExpTemp4</title>
<ellipse fill="none" stroke="black" cx="1233.7" cy="-90" rx="50.0912" ry="18"/>
<text text-anchor="middle" x="1233.7" y="-86.3" font-family="Times,serif" font-size="14.00">ExpTemp4</text>
</g>
<!-- Temp4: FP -->
<g id="node16" class="node"><title>Temp4: FP</title>
<ellipse fill="none" stroke="black" cx="1233.7" cy="-18" rx="50.8918" ry="18"/>
<text text-anchor="middle" x="1233.7" y="-14.3" font-family="Times,serif" font-size="14.00">Temp4: FP</text>
</g>
<!-- ExpTemp4&#45;&gt;Temp4: FP -->
<g id="edge12" class="edge"><title>ExpTemp4&#45;&gt;Temp4: FP</title>
<path fill="none" stroke="black" d="M1233.7,-71.6966C1233.7,-63.9827 1233.7,-54.7125 1233.7,-46.1124"/>
<polygon fill="black" stroke="black" points="1237.2,-46.1043 1233.7,-36.1043 1230.2,-46.1044 1237.2,-46.1043"/>
</g>
<!-- StatSeq3&#45;&gt;StatMove2 -->
<g id="edge14" class="edge"><title>StatSeq3&#45;&gt;StatMove2</title>
<path fill="none" stroke="black" d="M1241.38,-504.765C1248.72,-496.056 1257.91,-485.147 1266.1,-475.435"/>
<polygon fill="black" stroke="black" points="1268.91,-477.535 1272.68,-467.633 1263.55,-473.024 1268.91,-477.535"/>
</g>
<!-- StatMove1 -->
<g id="node18" class="node"><title>StatMove1</title>
<ellipse fill="none" stroke="black" cx="1125.7" cy="-450" rx="50.0912" ry="18"/>
<text text-anchor="middle" x="1125.7" y="-446.3" font-family="Times,serif" font-size="14.00">StatMove1</text>
</g>
<!-- StatSeq3&#45;&gt;StatMove1 -->
<g id="edge13" class="edge"><title>StatSeq3&#45;&gt;StatMove1</title>
<path fill="none" stroke="black" d="M1206.06,-506.155C1191.66,-496.267 1172.5,-483.124 1156.51,-472.148"/>
<polygon fill="black" stroke="black" points="1158.23,-469.08 1148,-466.308 1154.27,-474.852 1158.23,-469.08"/>
</g>
<!-- ExpMem5 -->
<g id="node24" class="node"><title>ExpMem5</title>
<ellipse fill="none" stroke="black" cx="1125.7" cy="-378" rx="48.9926" ry="18"/>
<text text-anchor="middle" x="1125.7" y="-374.3" font-family="Times,serif" font-size="14.00">ExpMem5</text>
</g>
<!-- StatMove1&#45;&gt;ExpMem5 -->
<g id="edge21" class="edge"><title>StatMove1&#45;&gt;ExpMem5</title>
<path fill="none" stroke="black" d="M1125.7,-431.697C1125.7,-423.983 1125.7,-414.712 1125.7,-406.112"/>
<polygon fill="black" stroke="black" points="1129.2,-406.104 1125.7,-396.104 1122.2,-406.104 1129.2,-406.104"/>
</g>
<!-- ExpMem3 -->
<g id="node25" class="node"><title>ExpMem3</title>
<ellipse fill="none" stroke="black" cx="961.696" cy="-378" rx="48.9926" ry="18"/>
<text text-anchor="middle" x="961.696" y="-374.3" font-family="Times,serif" font-size="14.00">ExpMem3</text>
</g>
<!-- StatMove1&#45;&gt;ExpMem3 -->
<g id="edge20" class="edge"><title>StatMove1&#45;&gt;ExpMem3</title>
<path fill="none" stroke="black" d="M1094.46,-435.669C1068.08,-424.407 1030.13,-408.21 1001.56,-396.014"/>
<polygon fill="black" stroke="black" points="1002.83,-392.751 992.257,-392.045 1000.08,-399.189 1002.83,-392.751"/>
</g>
<!-- ExpBinary5 -->
<g id="node19" class="node"><title>ExpBinary5</title>
<ellipse fill="none" stroke="black" cx="1125.7" cy="-306" rx="53.0913" ry="18"/>
<text text-anchor="middle" x="1125.7" y="-302.3" font-family="Times,serif" font-size="14.00">ExpBinary5</text>
</g>
<!-- ExpTemp3 -->
<g id="node20" class="node"><title>ExpTemp3</title>
<ellipse fill="none" stroke="black" cx="1026.7" cy="-234" rx="50.0912" ry="18"/>
<text text-anchor="middle" x="1026.7" y="-230.3" font-family="Times,serif" font-size="14.00">ExpTemp3</text>
</g>
<!-- ExpBinary5&#45;&gt;ExpTemp3 -->
<g id="edge15" class="edge"><title>ExpBinary5&#45;&gt;ExpTemp3</title>
<path fill="none" stroke="black" d="M1103.72,-289.465C1089.91,-279.7 1071.91,-266.972 1056.79,-256.276"/>
<polygon fill="black" stroke="black" points="1058.45,-253.167 1048.26,-250.251 1054.41,-258.882 1058.45,-253.167"/>
</g>
<!-- Plus5 -->
<g id="node21" class="node"><title>Plus5</title>
<ellipse fill="none" stroke="black" cx="1125.7" cy="-234" rx="30.5947" ry="18"/>
<text text-anchor="middle" x="1125.7" y="-230.3" font-family="Times,serif" font-size="14.00">Plus5</text>
</g>
<!-- ExpBinary5&#45;&gt;Plus5 -->
<g id="edge16" class="edge"><title>ExpBinary5&#45;&gt;Plus5</title>
<path fill="none" stroke="black" d="M1125.7,-287.697C1125.7,-279.983 1125.7,-270.712 1125.7,-262.112"/>
<polygon fill="black" stroke="black" points="1129.2,-262.104 1125.7,-252.104 1122.2,-262.104 1129.2,-262.104"/>
</g>
<!-- ExpCall5 -->
<g id="node22" class="node"><title>ExpCall5</title>
<ellipse fill="none" stroke="black" cx="1218.7" cy="-234" rx="44.393" ry="18"/>
<text text-anchor="middle" x="1218.7" y="-230.3" font-family="Times,serif" font-size="14.00">ExpCall5</text>
</g>
<!-- ExpBinary5&#45;&gt;ExpCall5 -->
<g id="edge17" class="edge"><title>ExpBinary5&#45;&gt;ExpCall5</title>
<path fill="none" stroke="black" d="M1146.8,-289.116C1159.67,-279.429 1176.28,-266.923 1190.3,-256.374"/>
<polygon fill="black" stroke="black" points="1192.75,-258.912 1198.63,-250.101 1188.54,-253.319 1192.75,-258.912"/>
</g>
<!-- Temp3: FP -->
<g id="node23" class="node"><title>Temp3: FP</title>
<ellipse fill="none" stroke="black" cx="1027.7" cy="-162" rx="50.8918" ry="18"/>
<text text-anchor="middle" x="1027.7" y="-158.3" font-family="Times,serif" font-size="14.00">Temp3: FP</text>
</g>
<!-- ExpTemp3&#45;&gt;Temp3: FP -->
<g id="edge18" class="edge"><title>ExpTemp3&#45;&gt;Temp3: FP</title>
<path fill="none" stroke="black" d="M1026.94,-215.697C1027.05,-207.983 1027.19,-198.712 1027.31,-190.112"/>
<polygon fill="black" stroke="black" points="1030.81,-190.153 1027.45,-180.104 1023.81,-190.053 1030.81,-190.153"/>
</g>
<!-- Value5: 4 -->
<g id="node70" class="node"><title>Value5: 4</title>
<ellipse fill="none" stroke="black" cx="1215.7" cy="-162" rx="45.4919" ry="18"/>
<text text-anchor="middle" x="1215.7" y="-158.3" font-family="Times,serif" font-size="14.00">Value5: 4</text>
</g>
<!-- ExpCall5&#45;&gt;Value5: 4 -->
<g id="edge69" class="edge"><title>ExpCall5&#45;&gt;Value5: 4</title>
<path fill="none" stroke="black" d="M1217.95,-215.697C1217.62,-207.983 1217.23,-198.712 1216.86,-190.112"/>
<polygon fill="black" stroke="black" points="1220.35,-189.945 1216.43,-180.104 1213.36,-190.245 1220.35,-189.945"/>
</g>
<!-- ExpMem5&#45;&gt;ExpBinary5 -->
<g id="edge19" class="edge"><title>ExpMem5&#45;&gt;ExpBinary5</title>
<path fill="none" stroke="black" d="M1125.7,-359.697C1125.7,-351.983 1125.7,-342.712 1125.7,-334.112"/>
<polygon fill="black" stroke="black" points="1129.2,-334.104 1125.7,-324.104 1122.2,-334.104 1129.2,-334.104"/>
</g>
<!-- ExpBinary3 -->
<g id="node44" class="node"><title>ExpBinary3</title>
<ellipse fill="none" stroke="black" cx="867.696" cy="-306" rx="53.0913" ry="18"/>
<text text-anchor="middle" x="867.696" y="-302.3" font-family="Times,serif" font-size="14.00">ExpBinary3</text>
</g>
<!-- ExpMem3&#45;&gt;ExpBinary3 -->
<g id="edge36" class="edge"><title>ExpMem3&#45;&gt;ExpBinary3</title>
<path fill="none" stroke="black" d="M940.834,-361.465C927.903,-351.835 911.101,-339.323 896.862,-328.72"/>
<polygon fill="black" stroke="black" points="898.935,-325.899 888.824,-322.734 894.754,-331.514 898.935,-325.899"/>
</g>
<!-- ExpMem0 -->
<g id="node27" class="node"><title>ExpMem0</title>
<ellipse fill="none" stroke="black" cx="341.696" cy="-450" rx="48.9926" ry="18"/>
<text text-anchor="middle" x="341.696" y="-446.3" font-family="Times,serif" font-size="14.00">ExpMem0</text>
</g>
<!-- StatMove0&#45;&gt;ExpMem0 -->
<g id="edge22" class="edge"><title>StatMove0&#45;&gt;ExpMem0</title>
<path fill="none" stroke="black" d="M516.072,-509.125C480.408,-497.238 425.417,-478.907 386.744,-466.016"/>
<polygon fill="black" stroke="black" points="387.387,-462.541 376.793,-462.699 385.173,-469.182 387.387,-462.541"/>
</g>
<!-- ExpMem2 -->
<g id="node28" class="node"><title>ExpMem2</title>
<ellipse fill="none" stroke="black" cx="551.696" cy="-450" rx="48.9926" ry="18"/>
<text text-anchor="middle" x="551.696" y="-446.3" font-family="Times,serif" font-size="14.00">ExpMem2</text>
</g>
<!-- StatMove0&#45;&gt;ExpMem2 -->
<g id="edge23" class="edge"><title>StatMove0&#45;&gt;ExpMem2</title>
<path fill="none" stroke="black" d="M551.696,-503.697C551.696,-495.983 551.696,-486.712 551.696,-478.112"/>
<polygon fill="black" stroke="black" points="555.196,-478.104 551.696,-468.104 548.196,-478.104 555.196,-478.104"/>
</g>
<!-- ExpBinary0 -->
<g id="node37" class="node"><title>ExpBinary0</title>
<ellipse fill="none" stroke="black" cx="293.696" cy="-378" rx="53.0913" ry="18"/>
<text text-anchor="middle" x="293.696" y="-374.3" font-family="Times,serif" font-size="14.00">ExpBinary0</text>
</g>
<!-- ExpMem0&#45;&gt;ExpBinary0 -->
<g id="edge30" class="edge"><title>ExpMem0&#45;&gt;ExpBinary0</title>
<path fill="none" stroke="black" d="M330.32,-432.411C324.606,-424.077 317.556,-413.797 311.173,-404.488"/>
<polygon fill="black" stroke="black" points="313.865,-402.224 305.323,-395.956 308.091,-406.183 313.865,-402.224"/>
</g>
<!-- ExpBinary2 -->
<g id="node46" class="node"><title>ExpBinary2</title>
<ellipse fill="none" stroke="black" cx="551.696" cy="-378" rx="53.0913" ry="18"/>
<text text-anchor="middle" x="551.696" y="-374.3" font-family="Times,serif" font-size="14.00">ExpBinary2</text>
</g>
<!-- ExpMem2&#45;&gt;ExpBinary2 -->
<g id="edge46" class="edge"><title>ExpMem2&#45;&gt;ExpBinary2</title>
<path fill="none" stroke="black" d="M551.696,-431.697C551.696,-423.983 551.696,-414.712 551.696,-406.112"/>
<polygon fill="black" stroke="black" points="555.196,-406.104 551.696,-396.104 548.196,-406.104 555.196,-406.104"/>
</g>
<!-- Value7: 8 -->
<g id="node30" class="node"><title>Value7: 8</title>
<ellipse fill="none" stroke="black" cx="1518.7" cy="-162" rx="45.4919" ry="18"/>
<text text-anchor="middle" x="1518.7" y="-158.3" font-family="Times,serif" font-size="14.00">Value7: 8</text>
</g>
<!-- ExpCall7&#45;&gt;Value7: 8 -->
<g id="edge24" class="edge"><title>ExpCall7&#45;&gt;Value7: 8</title>
<path fill="none" stroke="black" d="M1519.45,-215.697C1519.34,-207.983 1519.21,-198.712 1519.08,-190.112"/>
<polygon fill="black" stroke="black" points="1522.58,-190.053 1518.94,-180.104 1515.58,-190.153 1522.58,-190.053"/>
</g>
<!-- ExpCall2 -->
<g id="node31" class="node"><title>ExpCall2</title>
<ellipse fill="none" stroke="black" cx="644.696" cy="-306" rx="44.393" ry="18"/>
<text text-anchor="middle" x="644.696" y="-302.3" font-family="Times,serif" font-size="14.00">ExpCall2</text>
</g>
<!-- Value2: 12 -->
<g id="node32" class="node"><title>Value2: 12</title>
<ellipse fill="none" stroke="black" cx="607.696" cy="-234" rx="50.0912" ry="18"/>
<text text-anchor="middle" x="607.696" y="-230.3" font-family="Times,serif" font-size="14.00">Value2: 12</text>
</g>
<!-- ExpCall2&#45;&gt;Value2: 12 -->
<g id="edge25" class="edge"><title>ExpCall2&#45;&gt;Value2: 12</title>
<path fill="none" stroke="black" d="M635.739,-288.055C631.421,-279.887 626.149,-269.912 621.346,-260.824"/>
<polygon fill="black" stroke="black" points="624.337,-258.994 616.57,-251.789 618.148,-262.266 624.337,-258.994"/>
</g>
<!-- ExpCall1 -->
<g id="node33" class="node"><title>ExpCall1</title>
<ellipse fill="none" stroke="black" cx="339.696" cy="-306" rx="44.393" ry="18"/>
<text text-anchor="middle" x="339.696" y="-302.3" font-family="Times,serif" font-size="14.00">ExpCall1</text>
</g>
<!-- Value1: 4 -->
<g id="node34" class="node"><title>Value1: 4</title>
<ellipse fill="none" stroke="black" cx="338.696" cy="-234" rx="45.4919" ry="18"/>
<text text-anchor="middle" x="338.696" y="-230.3" font-family="Times,serif" font-size="14.00">Value1: 4</text>
</g>
<!-- ExpCall1&#45;&gt;Value1: 4 -->
<g id="edge26" class="edge"><title>ExpCall1&#45;&gt;Value1: 4</title>
<path fill="none" stroke="black" d="M339.448,-287.697C339.338,-279.983 339.206,-270.712 339.083,-262.112"/>
<polygon fill="black" stroke="black" points="342.582,-262.053 338.94,-252.104 335.583,-262.153 342.582,-262.053"/>
</g>
<!-- ExpBinary7 -->
<g id="node51" class="node"><title>ExpBinary7</title>
<ellipse fill="none" stroke="black" cx="1332.7" cy="-162" rx="53.0913" ry="18"/>
<text text-anchor="middle" x="1332.7" y="-158.3" font-family="Times,serif" font-size="14.00">ExpBinary7</text>
</g>
<!-- ExpMem7&#45;&gt;ExpBinary7 -->
<g id="edge43" class="edge"><title>ExpMem7&#45;&gt;ExpBinary7</title>
<path fill="none" stroke="black" d="M1330.44,-215.697C1330.77,-207.983 1331.16,-198.712 1331.53,-190.112"/>
<polygon fill="black" stroke="black" points="1335.03,-190.245 1331.96,-180.104 1328.04,-189.945 1335.03,-190.245"/>
</g>
<!-- ExpBinary0&#45;&gt;ExpCall1 -->
<g id="edge67" class="edge"><title>ExpBinary0&#45;&gt;ExpCall1</title>
<path fill="none" stroke="black" d="M304.831,-360.055C310.312,-351.715 317.03,-341.491 323.102,-332.252"/>
<polygon fill="black" stroke="black" points="326.096,-334.068 328.663,-323.789 320.246,-330.224 326.096,-334.068"/>
</g>
<!-- ExpMem1 -->
<g id="node45" class="node"><title>ExpMem1</title>
<ellipse fill="none" stroke="black" cx="149.696" cy="-306" rx="48.9926" ry="18"/>
<text text-anchor="middle" x="149.696" y="-302.3" font-family="Times,serif" font-size="14.00">ExpMem1</text>
</g>
<!-- ExpBinary0&#45;&gt;ExpMem1 -->
<g id="edge65" class="edge"><title>ExpBinary0&#45;&gt;ExpMem1</title>
<path fill="none" stroke="black" d="M264.555,-362.834C242.354,-352.042 211.606,-337.095 187.51,-325.382"/>
<polygon fill="black" stroke="black" points="188.825,-322.13 178.301,-320.906 185.765,-328.425 188.825,-322.13"/>
</g>
<!-- Plus1 -->
<g id="node69" class="node"><title>Plus1</title>
<ellipse fill="none" stroke="black" cx="246.696" cy="-306" rx="30.5947" ry="18"/>
<text text-anchor="middle" x="246.696" y="-302.3" font-family="Times,serif" font-size="14.00">Plus1</text>
</g>
<!-- ExpBinary0&#45;&gt;Plus1 -->
<g id="edge66" class="edge"><title>ExpBinary0&#45;&gt;Plus1</title>
<path fill="none" stroke="black" d="M282.318,-360.055C276.636,-351.592 269.651,-341.19 263.377,-331.845"/>
<polygon fill="black" stroke="black" points="266.125,-329.658 257.644,-323.307 260.313,-333.56 266.125,-329.658"/>
</g>
<!-- ExpBinary1 -->
<g id="node39" class="node"><title>ExpBinary1</title>
<ellipse fill="none" stroke="black" cx="149.696" cy="-234" rx="53.0913" ry="18"/>
<text text-anchor="middle" x="149.696" y="-230.3" font-family="Times,serif" font-size="14.00">ExpBinary1</text>
</g>
<!-- ExpTemp0 -->
<g id="node40" class="node"><title>ExpTemp0</title>
<ellipse fill="none" stroke="black" cx="50.6955" cy="-162" rx="50.0912" ry="18"/>
<text text-anchor="middle" x="50.6955" y="-158.3" font-family="Times,serif" font-size="14.00">ExpTemp0</text>
</g>
<!-- ExpBinary1&#45;&gt;ExpTemp0 -->
<g id="edge32" class="edge"><title>ExpBinary1&#45;&gt;ExpTemp0</title>
<path fill="none" stroke="black" d="M127.724,-217.465C113.915,-207.7 95.9136,-194.972 80.7861,-184.276"/>
<polygon fill="black" stroke="black" points="82.4506,-181.167 72.2648,-178.251 78.4092,-186.882 82.4506,-181.167"/>
</g>
<!-- Plus0 -->
<g id="node41" class="node"><title>Plus0</title>
<ellipse fill="none" stroke="black" cx="149.696" cy="-162" rx="30.5947" ry="18"/>
<text text-anchor="middle" x="149.696" y="-158.3" font-family="Times,serif" font-size="14.00">Plus0</text>
</g>
<!-- ExpBinary1&#45;&gt;Plus0 -->
<g id="edge33" class="edge"><title>ExpBinary1&#45;&gt;Plus0</title>
<path fill="none" stroke="black" d="M149.696,-215.697C149.696,-207.983 149.696,-198.712 149.696,-190.112"/>
<polygon fill="black" stroke="black" points="153.196,-190.104 149.696,-180.104 146.196,-190.104 153.196,-190.104"/>
</g>
<!-- ExpCall0 -->
<g id="node42" class="node"><title>ExpCall0</title>
<ellipse fill="none" stroke="black" cx="242.696" cy="-162" rx="44.393" ry="18"/>
<text text-anchor="middle" x="242.696" y="-158.3" font-family="Times,serif" font-size="14.00">ExpCall0</text>
</g>
<!-- ExpBinary1&#45;&gt;ExpCall0 -->
<g id="edge34" class="edge"><title>ExpBinary1&#45;&gt;ExpCall0</title>
<path fill="none" stroke="black" d="M170.799,-217.116C183.669,-207.429 200.284,-194.923 214.299,-184.374"/>
<polygon fill="black" stroke="black" points="216.747,-186.912 222.632,-178.101 212.538,-181.319 216.747,-186.912"/>
</g>
<!-- Temp0: FP -->
<g id="node52" class="node"><title>Temp0: FP</title>
<ellipse fill="none" stroke="black" cx="50.6955" cy="-90" rx="50.8918" ry="18"/>
<text text-anchor="middle" x="50.6955" y="-86.3" font-family="Times,serif" font-size="14.00">Temp0: FP</text>
</g>
<!-- ExpTemp0&#45;&gt;Temp0: FP -->
<g id="edge44" class="edge"><title>ExpTemp0&#45;&gt;Temp0: FP</title>
<path fill="none" stroke="black" d="M50.6955,-143.697C50.6955,-135.983 50.6955,-126.712 50.6955,-118.112"/>
<polygon fill="black" stroke="black" points="54.1956,-118.104 50.6955,-108.104 47.1956,-118.104 54.1956,-118.104"/>
</g>
<!-- Value0: 0 -->
<g id="node53" class="node"><title>Value0: 0</title>
<ellipse fill="none" stroke="black" cx="242.696" cy="-90" rx="45.4919" ry="18"/>
<text text-anchor="middle" x="242.696" y="-86.3" font-family="Times,serif" font-size="14.00">Value0: 0</text>
</g>
<!-- ExpCall0&#45;&gt;Value0: 0 -->
<g id="edge45" class="edge"><title>ExpCall0&#45;&gt;Value0: 0</title>
<path fill="none" stroke="black" d="M242.696,-143.697C242.696,-135.983 242.696,-126.712 242.696,-118.112"/>
<polygon fill="black" stroke="black" points="246.196,-118.104 242.696,-108.104 239.196,-118.104 246.196,-118.104"/>
</g>
<!-- ExpMem4 -->
<g id="node54" class="node"><title>ExpMem4</title>
<ellipse fill="none" stroke="black" cx="724.696" cy="-234" rx="48.9926" ry="18"/>
<text text-anchor="middle" x="724.696" y="-230.3" font-family="Times,serif" font-size="14.00">ExpMem4</text>
</g>
<!-- ExpBinary3&#45;&gt;ExpMem4 -->
<g id="edge47" class="edge"><title>ExpBinary3&#45;&gt;ExpMem4</title>
<path fill="none" stroke="black" d="M838.757,-290.834C816.711,-280.042 786.176,-265.095 762.247,-253.382"/>
<polygon fill="black" stroke="black" points="763.623,-250.159 753.103,-248.906 760.545,-256.446 763.623,-250.159"/>
</g>
<!-- Plus4 -->
<g id="node55" class="node"><title>Plus4</title>
<ellipse fill="none" stroke="black" cx="821.696" cy="-234" rx="30.5947" ry="18"/>
<text text-anchor="middle" x="821.696" y="-230.3" font-family="Times,serif" font-size="14.00">Plus4</text>
</g>
<!-- ExpBinary3&#45;&gt;Plus4 -->
<g id="edge48" class="edge"><title>ExpBinary3&#45;&gt;Plus4</title>
<path fill="none" stroke="black" d="M856.56,-288.055C850.999,-279.592 844.163,-269.19 838.022,-259.845"/>
<polygon fill="black" stroke="black" points="840.828,-257.742 832.412,-251.307 834.978,-261.586 840.828,-257.742"/>
</g>
<!-- ExpCall4 -->
<g id="node56" class="node"><title>ExpCall4</title>
<ellipse fill="none" stroke="black" cx="914.696" cy="-234" rx="44.393" ry="18"/>
<text text-anchor="middle" x="914.696" y="-230.3" font-family="Times,serif" font-size="14.00">ExpCall4</text>
</g>
<!-- ExpBinary3&#45;&gt;ExpCall4 -->
<g id="edge49" class="edge"><title>ExpBinary3&#45;&gt;ExpCall4</title>
<path fill="none" stroke="black" d="M879.073,-288.055C884.673,-279.715 891.537,-269.491 897.741,-260.252"/>
<polygon fill="black" stroke="black" points="900.754,-262.042 903.423,-251.789 894.943,-258.14 900.754,-262.042"/>
</g>
<!-- ExpMem1&#45;&gt;ExpBinary1 -->
<g id="edge37" class="edge"><title>ExpMem1&#45;&gt;ExpBinary1</title>
<path fill="none" stroke="black" d="M149.696,-287.697C149.696,-279.983 149.696,-270.712 149.696,-262.112"/>
<polygon fill="black" stroke="black" points="153.196,-262.104 149.696,-252.104 146.196,-262.104 153.196,-262.104"/>
</g>
<!-- ExpBinary2&#45;&gt;ExpCall2 -->
<g id="edge41" class="edge"><title>ExpBinary2&#45;&gt;ExpCall2</title>
<path fill="none" stroke="black" d="M572.799,-361.116C585.669,-351.429 602.284,-338.923 616.299,-328.374"/>
<polygon fill="black" stroke="black" points="618.747,-330.912 624.632,-322.101 614.538,-325.319 618.747,-330.912"/>
</g>
<!-- ExpTemp1 -->
<g id="node47" class="node"><title>ExpTemp1</title>
<ellipse fill="none" stroke="black" cx="452.696" cy="-306" rx="50.0912" ry="18"/>
<text text-anchor="middle" x="452.696" y="-302.3" font-family="Times,serif" font-size="14.00">ExpTemp1</text>
</g>
<!-- ExpBinary2&#45;&gt;ExpTemp1 -->
<g id="edge39" class="edge"><title>ExpBinary2&#45;&gt;ExpTemp1</title>
<path fill="none" stroke="black" d="M529.724,-361.465C515.915,-351.7 497.914,-338.972 482.786,-328.276"/>
<polygon fill="black" stroke="black" points="484.451,-325.167 474.265,-322.251 480.409,-330.882 484.451,-325.167"/>
</g>
<!-- Plus2 -->
<g id="node48" class="node"><title>Plus2</title>
<ellipse fill="none" stroke="black" cx="551.696" cy="-306" rx="30.5947" ry="18"/>
<text text-anchor="middle" x="551.696" y="-302.3" font-family="Times,serif" font-size="14.00">Plus2</text>
</g>
<!-- ExpBinary2&#45;&gt;Plus2 -->
<g id="edge40" class="edge"><title>ExpBinary2&#45;&gt;Plus2</title>
<path fill="none" stroke="black" d="M551.696,-359.697C551.696,-351.983 551.696,-342.712 551.696,-334.112"/>
<polygon fill="black" stroke="black" points="555.196,-334.104 551.696,-324.104 548.196,-334.104 555.196,-334.104"/>
</g>
<!-- Temp1: FP -->
<g id="node61" class="node"><title>Temp1: FP</title>
<ellipse fill="none" stroke="black" cx="452.696" cy="-234" rx="50.8918" ry="18"/>
<text text-anchor="middle" x="452.696" y="-230.3" font-family="Times,serif" font-size="14.00">Temp1: FP</text>
</g>
<!-- ExpTemp1&#45;&gt;Temp1: FP -->
<g id="edge56" class="edge"><title>ExpTemp1&#45;&gt;Temp1: FP</title>
<path fill="none" stroke="black" d="M452.696,-287.697C452.696,-279.983 452.696,-270.712 452.696,-262.112"/>
<polygon fill="black" stroke="black" points="456.196,-262.104 452.696,-252.104 449.196,-262.104 456.196,-262.104"/>
</g>
<!-- StatLabel0 -->
<g id="node49" class="node"><title>StatLabel0</title>
<ellipse fill="none" stroke="black" cx="1099.7" cy="-666" rx="48.9926" ry="18"/>
<text text-anchor="middle" x="1099.7" y="-662.3" font-family="Times,serif" font-size="14.00">StatLabel0</text>
</g>
<!-- Label0: List::InitNew -->
<g id="node50" class="node"><title>Label0: List::InitNew</title>
<ellipse fill="none" stroke="black" cx="1080.7" cy="-594" rx="87.1846" ry="18"/>
<text text-anchor="middle" x="1080.7" y="-590.3" font-family="Times,serif" font-size="14.00">Label0: List::InitNew</text>
</g>
<!-- StatLabel0&#45;&gt;Label0: List::InitNew -->
<g id="edge42" class="edge"><title>StatLabel0&#45;&gt;Label0: List::InitNew</title>
<path fill="none" stroke="black" d="M1095.1,-648.055C1092.98,-640.261 1090.42,-630.822 1088.05,-622.079"/>
<polygon fill="black" stroke="black" points="1091.38,-621.009 1085.38,-612.275 1084.63,-622.843 1091.38,-621.009"/>
</g>
<!-- ExpBinary7&#45;&gt;ExpTemp4 -->
<g id="edge51" class="edge"><title>ExpBinary7&#45;&gt;ExpTemp4</title>
<path fill="none" stroke="black" d="M1310.72,-145.465C1296.91,-135.7 1278.91,-122.972 1263.79,-112.276"/>
<polygon fill="black" stroke="black" points="1265.45,-109.167 1255.26,-106.251 1261.41,-114.882 1265.45,-109.167"/>
</g>
<!-- Plus6 -->
<g id="node58" class="node"><title>Plus6</title>
<ellipse fill="none" stroke="black" cx="1332.7" cy="-90" rx="30.5947" ry="18"/>
<text text-anchor="middle" x="1332.7" y="-86.3" font-family="Times,serif" font-size="14.00">Plus6</text>
</g>
<!-- ExpBinary7&#45;&gt;Plus6 -->
<g id="edge52" class="edge"><title>ExpBinary7&#45;&gt;Plus6</title>
<path fill="none" stroke="black" d="M1332.7,-143.697C1332.7,-135.983 1332.7,-126.712 1332.7,-118.112"/>
<polygon fill="black" stroke="black" points="1336.2,-118.104 1332.7,-108.104 1329.2,-118.104 1336.2,-118.104"/>
</g>
<!-- ExpCall6 -->
<g id="node59" class="node"><title>ExpCall6</title>
<ellipse fill="none" stroke="black" cx="1425.7" cy="-90" rx="44.393" ry="18"/>
<text text-anchor="middle" x="1425.7" y="-86.3" font-family="Times,serif" font-size="14.00">ExpCall6</text>
</g>
<!-- ExpBinary7&#45;&gt;ExpCall6 -->
<g id="edge53" class="edge"><title>ExpBinary7&#45;&gt;ExpCall6</title>
<path fill="none" stroke="black" d="M1353.8,-145.116C1366.67,-135.429 1383.28,-122.923 1397.3,-112.374"/>
<polygon fill="black" stroke="black" points="1399.75,-114.912 1405.63,-106.101 1395.54,-109.319 1399.75,-114.912"/>
</g>
<!-- ExpBinary4 -->
<g id="node67" class="node"><title>ExpBinary4</title>
<ellipse fill="none" stroke="black" cx="724.696" cy="-162" rx="53.0913" ry="18"/>
<text text-anchor="middle" x="724.696" y="-158.3" font-family="Times,serif" font-size="14.00">ExpBinary4</text>
</g>
<!-- ExpMem4&#45;&gt;ExpBinary4 -->
<g id="edge68" class="edge"><title>ExpMem4&#45;&gt;ExpBinary4</title>
<path fill="none" stroke="black" d="M724.696,-215.697C724.696,-207.983 724.696,-198.712 724.696,-190.112"/>
<polygon fill="black" stroke="black" points="728.196,-190.104 724.696,-180.104 721.196,-190.104 728.196,-190.104"/>
</g>
<!-- Value4: 0 -->
<g id="node71" class="node"><title>Value4: 0</title>
<ellipse fill="none" stroke="black" cx="913.696" cy="-162" rx="45.4919" ry="18"/>
<text text-anchor="middle" x="913.696" y="-158.3" font-family="Times,serif" font-size="14.00">Value4: 0</text>
</g>
<!-- ExpCall4&#45;&gt;Value4: 0 -->
<g id="edge70" class="edge"><title>ExpCall4&#45;&gt;Value4: 0</title>
<path fill="none" stroke="black" d="M914.448,-215.697C914.338,-207.983 914.206,-198.712 914.083,-190.112"/>
<polygon fill="black" stroke="black" points="917.582,-190.053 913.94,-180.104 910.583,-190.153 917.582,-190.053"/>
</g>
<!-- Value6: 0 -->
<g id="node66" class="node"><title>Value6: 0</title>
<ellipse fill="none" stroke="black" cx="1425.7" cy="-18" rx="45.4919" ry="18"/>
<text text-anchor="middle" x="1425.7" y="-14.3" font-family="Times,serif" font-size="14.00">Value6: 0</text>
</g>
<!-- ExpCall6&#45;&gt;Value6: 0 -->
<g id="edge61" class="edge"><title>ExpCall6&#45;&gt;Value6: 0</title>
<path fill="none" stroke="black" d="M1425.7,-71.6966C1425.7,-63.9827 1425.7,-54.7125 1425.7,-46.1124"/>
<polygon fill="black" stroke="black" points="1429.2,-46.1043 1425.7,-36.1043 1422.2,-46.1044 1429.2,-46.1043"/>
</g>
<!-- StatSeq0 -->
<g id="node60" class="node"><title>StatSeq0</title>
<ellipse fill="none" stroke="black" cx="1163.7" cy="-738" rx="42.4939" ry="18"/>
<text text-anchor="middle" x="1163.7" y="-734.3" font-family="Times,serif" font-size="14.00">StatSeq0</text>
</g>
<!-- StatSeq0&#45;&gt;StatSeq1 -->
<g id="edge55" class="edge"><title>StatSeq0&#45;&gt;StatSeq1</title>
<path fill="none" stroke="black" d="M1178.54,-720.765C1186.7,-711.841 1196.97,-700.608 1206.01,-690.719"/>
<polygon fill="black" stroke="black" points="1208.77,-692.889 1212.93,-683.147 1203.6,-688.166 1208.77,-692.889"/>
</g>
<!-- StatSeq0&#45;&gt;StatLabel0 -->
<g id="edge54" class="edge"><title>StatSeq0&#45;&gt;StatLabel0</title>
<path fill="none" stroke="black" d="M1148.85,-720.765C1140.81,-711.969 1130.72,-700.928 1121.77,-691.144"/>
<polygon fill="black" stroke="black" points="1124.23,-688.652 1114.9,-683.633 1119.07,-693.375 1124.23,-688.652"/>
</g>
<!-- ExpCall3 -->
<g id="node62" class="node"><title>ExpCall3</title>
<ellipse fill="none" stroke="black" cx="817.696" cy="-90" rx="44.393" ry="18"/>
<text text-anchor="middle" x="817.696" y="-86.3" font-family="Times,serif" font-size="14.00">ExpCall3</text>
</g>
<!-- Value3: 0 -->
<g id="node63" class="node"><title>Value3: 0</title>
<ellipse fill="none" stroke="black" cx="817.696" cy="-18" rx="45.4919" ry="18"/>
<text text-anchor="middle" x="817.696" y="-14.3" font-family="Times,serif" font-size="14.00">Value3: 0</text>
</g>
<!-- ExpCall3&#45;&gt;Value3: 0 -->
<g id="edge57" class="edge"><title>ExpCall3&#45;&gt;Value3: 0</title>
<path fill="none" stroke="black" d="M817.696,-71.6966C817.696,-63.9827 817.696,-54.7125 817.696,-46.1124"/>
<polygon fill="black" stroke="black" points="821.196,-46.1043 817.696,-36.1043 814.196,-46.1044 821.196,-46.1043"/>
</g>
<!-- ExpTemp2 -->
<g id="node64" class="node"><title>ExpTemp2</title>
<ellipse fill="none" stroke="black" cx="625.696" cy="-90" rx="50.0912" ry="18"/>
<text text-anchor="middle" x="625.696" y="-86.3" font-family="Times,serif" font-size="14.00">ExpTemp2</text>
</g>
<!-- Temp2: FP -->
<g id="node65" class="node"><title>Temp2: FP</title>
<ellipse fill="none" stroke="black" cx="625.696" cy="-18" rx="50.8918" ry="18"/>
<text text-anchor="middle" x="625.696" y="-14.3" font-family="Times,serif" font-size="14.00">Temp2: FP</text>
</g>
<!-- ExpTemp2&#45;&gt;Temp2: FP -->
<g id="edge60" class="edge"><title>ExpTemp2&#45;&gt;Temp2: FP</title>
<path fill="none" stroke="black" d="M625.696,-71.6966C625.696,-63.9827 625.696,-54.7125 625.696,-46.1124"/>
<polygon fill="black" stroke="black" points="629.196,-46.1043 625.696,-36.1043 622.196,-46.1044 629.196,-46.1043"/>
</g>
<!-- ExpBinary4&#45;&gt;ExpCall3 -->
<g id="edge64" class="edge"><title>ExpBinary4&#45;&gt;ExpCall3</title>
<path fill="none" stroke="black" d="M745.799,-145.116C758.669,-135.429 775.284,-122.923 789.299,-112.374"/>
<polygon fill="black" stroke="black" points="791.747,-114.912 797.632,-106.101 787.538,-109.319 791.747,-114.912"/>
</g>
<!-- ExpBinary4&#45;&gt;ExpTemp2 -->
<g id="edge62" class="edge"><title>ExpBinary4&#45;&gt;ExpTemp2</title>
<path fill="none" stroke="black" d="M702.724,-145.465C688.915,-135.7 670.914,-122.972 655.786,-112.276"/>
<polygon fill="black" stroke="black" points="657.451,-109.167 647.265,-106.251 653.409,-114.882 657.451,-109.167"/>
</g>
<!-- Plus3 -->
<g id="node68" class="node"><title>Plus3</title>
<ellipse fill="none" stroke="black" cx="724.696" cy="-90" rx="30.5947" ry="18"/>
<text text-anchor="middle" x="724.696" y="-86.3" font-family="Times,serif" font-size="14.00">Plus3</text>
</g>
<!-- ExpBinary4&#45;&gt;Plus3 -->
<g id="edge63" class="edge"><title>ExpBinary4&#45;&gt;Plus3</title>
<path fill="none" stroke="black" d="M724.696,-143.697C724.696,-135.983 724.696,-126.712 724.696,-118.112"/>
<polygon fill="black" stroke="black" points="728.196,-118.104 724.696,-108.104 721.196,-118.104 728.196,-118.104"/>
</g>
</g>
</svg>
