<?xml version="1.0" encoding="UTF-8" standalone="no"?>
<!DOCTYPE svg PUBLIC "-//W3C//DTD SVG 1.1//EN"
 "http://www.w3.org/Graphics/SVG/1.1/DTD/svg11.dtd">
<!-- Generated by graphviz version 2.38.0 (20140413.2041)
 -->
<!-- Title: %3 Pages: 1 -->
<svg width="1637pt" height="692pt"
 viewBox="0.00 0.00 1636.74 692.00" xmlns="http://www.w3.org/2000/svg" xmlns:xlink="http://www.w3.org/1999/xlink">
<g id="graph0" class="graph" transform="scale(1 1) rotate(0) translate(4 688)">
<title>%3</title>
<polygon fill="white" stroke="none" points="-4,4 -4,-688 1632.74,-688 1632.74,4 -4,4"/>
<!-- StatMove3 -->
<g id="node1" class="node"><title>StatMove3</title>
<ellipse fill="none" stroke="black" cx="1151.7" cy="-522" rx="50.0912" ry="18"/>
<text text-anchor="middle" x="1151.7" y="-518.3" font-family="Times,serif" font-size="14.00">StatMove3</text>
</g>
<!-- ExpTemp6 -->
<g id="node2" class="node"><title>ExpTemp6</title>
<ellipse fill="none" stroke="black" cx="1151.7" cy="-450" rx="50.0912" ry="18"/>
<text text-anchor="middle" x="1151.7" y="-446.3" font-family="Times,serif" font-size="14.00">ExpTemp6</text>
</g>
<!-- StatMove3&#45;&gt;ExpTemp6 -->
<g id="edge1" class="edge"><title>StatMove3&#45;&gt;ExpTemp6</title>
<path fill="none" stroke="black" d="M1151.7,-503.697C1151.7,-495.983 1151.7,-486.712 1151.7,-478.112"/>
<polygon fill="black" stroke="black" points="1155.2,-478.104 1151.7,-468.104 1148.2,-478.104 1155.2,-478.104"/>
</g>
<!-- ExpConst5 -->
<g id="node3" class="node"><title>ExpConst5</title>
<ellipse fill="none" stroke="black" cx="1274.7" cy="-450" rx="50.0912" ry="18"/>
<text text-anchor="middle" x="1274.7" y="-446.3" font-family="Times,serif" font-size="14.00">ExpConst5</text>
</g>
<!-- StatMove3&#45;&gt;ExpConst5 -->
<g id="edge2" class="edge"><title>StatMove3&#45;&gt;ExpConst5</title>
<path fill="none" stroke="black" d="M1177.18,-506.496C1195.37,-496.147 1220.04,-482.107 1240.01,-470.739"/>
<polygon fill="black" stroke="black" points="1241.86,-473.714 1248.82,-465.726 1238.4,-467.631 1241.86,-473.714"/>
</g>
<!-- Temp6: RetVal -->
<g id="node4" class="node"><title>Temp6: RetVal</title>
<ellipse fill="none" stroke="black" cx="1151.7" cy="-378" rx="65.7887" ry="18"/>
<text text-anchor="middle" x="1151.7" y="-374.3" font-family="Times,serif" font-size="14.00">Temp6: RetVal</text>
</g>
<!-- ExpTemp6&#45;&gt;Temp6: RetVal -->
<g id="edge3" class="edge"><title>ExpTemp6&#45;&gt;Temp6: RetVal</title>
<path fill="none" stroke="black" d="M1151.7,-431.697C1151.7,-423.983 1151.7,-414.712 1151.7,-406.112"/>
<polygon fill="black" stroke="black" points="1155.2,-406.104 1151.7,-396.104 1148.2,-406.104 1155.2,-406.104"/>
</g>
<!-- Value5: 1 -->
<g id="node16" class="node"><title>Value5: 1</title>
<ellipse fill="none" stroke="black" cx="1280.7" cy="-378" rx="45.4919" ry="18"/>
<text text-anchor="middle" x="1280.7" y="-374.3" font-family="Times,serif" font-size="14.00">Value5: 1</text>
</g>
<!-- ExpConst5&#45;&gt;Value5: 1 -->
<g id="edge12" class="edge"><title>ExpConst5&#45;&gt;Value5: 1</title>
<path fill="none" stroke="black" d="M1276.18,-431.697C1276.84,-423.983 1277.63,-414.712 1278.37,-406.112"/>
<polygon fill="black" stroke="black" points="1281.86,-406.367 1279.23,-396.104 1274.89,-405.769 1281.86,-406.367"/>
</g>
<!-- ExpConst4 -->
<g id="node5" class="node"><title>ExpConst4</title>
<ellipse fill="none" stroke="black" cx="1578.7" cy="-162" rx="50.0912" ry="18"/>
<text text-anchor="middle" x="1578.7" y="-158.3" font-family="Times,serif" font-size="14.00">ExpConst4</text>
</g>
<!-- Value4: 12 -->
<g id="node6" class="node"><title>Value4: 12</title>
<ellipse fill="none" stroke="black" cx="1578.7" cy="-90" rx="50.0912" ry="18"/>
<text text-anchor="middle" x="1578.7" y="-86.3" font-family="Times,serif" font-size="14.00">Value4: 12</text>
</g>
<!-- ExpConst4&#45;&gt;Value4: 12 -->
<g id="edge4" class="edge"><title>ExpConst4&#45;&gt;Value4: 12</title>
<path fill="none" stroke="black" d="M1578.7,-143.697C1578.7,-135.983 1578.7,-126.712 1578.7,-118.112"/>
<polygon fill="black" stroke="black" points="1582.2,-118.104 1578.7,-108.104 1575.2,-118.104 1582.2,-118.104"/>
</g>
<!-- ExpBinary4 -->
<g id="node7" class="node"><title>ExpBinary4</title>
<ellipse fill="none" stroke="black" cx="1429.7" cy="-234" rx="53.0913" ry="18"/>
<text text-anchor="middle" x="1429.7" y="-230.3" font-family="Times,serif" font-size="14.00">ExpBinary4</text>
</g>
<!-- ExpBinary4&#45;&gt;ExpConst4 -->
<g id="edge7" class="edge"><title>ExpBinary4&#45;&gt;ExpConst4</title>
<path fill="none" stroke="black" d="M1459.49,-219.003C1482.68,-208.106 1515.05,-192.9 1540.21,-181.082"/>
<polygon fill="black" stroke="black" points="1541.9,-184.155 1549.46,-176.734 1538.92,-177.819 1541.9,-184.155"/>
</g>
<!-- ExpTemp5 -->
<g id="node8" class="node"><title>ExpTemp5</title>
<ellipse fill="none" stroke="black" cx="1380.7" cy="-162" rx="50.0912" ry="18"/>
<text text-anchor="middle" x="1380.7" y="-158.3" font-family="Times,serif" font-size="14.00">ExpTemp5</text>
</g>
<!-- ExpBinary4&#45;&gt;ExpTemp5 -->
<g id="edge5" class="edge"><title>ExpBinary4&#45;&gt;ExpTemp5</title>
<path fill="none" stroke="black" d="M1418.08,-216.411C1412.19,-207.992 1404.9,-197.585 1398.34,-188.201"/>
<polygon fill="black" stroke="black" points="1401.17,-186.141 1392.56,-179.956 1395.43,-190.156 1401.17,-186.141"/>
</g>
<!-- Plus4 -->
<g id="node9" class="node"><title>Plus4</title>
<ellipse fill="none" stroke="black" cx="1479.7" cy="-162" rx="30.5947" ry="18"/>
<text text-anchor="middle" x="1479.7" y="-158.3" font-family="Times,serif" font-size="14.00">Plus4</text>
</g>
<!-- ExpBinary4&#45;&gt;Plus4 -->
<g id="edge6" class="edge"><title>ExpBinary4&#45;&gt;Plus4</title>
<path fill="none" stroke="black" d="M1441.54,-216.411C1447.74,-207.744 1455.43,-196.971 1462.28,-187.375"/>
<polygon fill="black" stroke="black" points="1465.31,-189.16 1468.28,-178.988 1459.61,-185.091 1465.31,-189.16"/>
</g>
<!-- Temp5: FP -->
<g id="node32" class="node"><title>Temp5: FP</title>
<ellipse fill="none" stroke="black" cx="1380.7" cy="-90" rx="50.8918" ry="18"/>
<text text-anchor="middle" x="1380.7" y="-86.3" font-family="Times,serif" font-size="14.00">Temp5: FP</text>
</g>
<!-- ExpTemp5&#45;&gt;Temp5: FP -->
<g id="edge24" class="edge"><title>ExpTemp5&#45;&gt;Temp5: FP</title>
<path fill="none" stroke="black" d="M1380.7,-143.697C1380.7,-135.983 1380.7,-126.712 1380.7,-118.112"/>
<polygon fill="black" stroke="black" points="1384.2,-118.104 1380.7,-108.104 1377.2,-118.104 1384.2,-118.104"/>
</g>
<!-- StatMove2 -->
<g id="node10" class="node"><title>StatMove2</title>
<ellipse fill="none" stroke="black" cx="1017.7" cy="-378" rx="50.0912" ry="18"/>
<text text-anchor="middle" x="1017.7" y="-374.3" font-family="Times,serif" font-size="14.00">StatMove2</text>
</g>
<!-- ExpMem6 -->
<g id="node11" class="node"><title>ExpMem6</title>
<ellipse fill="none" stroke="black" cx="1041.7" cy="-306" rx="48.9926" ry="18"/>
<text text-anchor="middle" x="1041.7" y="-302.3" font-family="Times,serif" font-size="14.00">ExpMem6</text>
</g>
<!-- StatMove2&#45;&gt;ExpMem6 -->
<g id="edge8" class="edge"><title>StatMove2&#45;&gt;ExpMem6</title>
<path fill="none" stroke="black" d="M1023.51,-360.055C1026.21,-352.176 1029.48,-342.617 1032.51,-333.794"/>
<polygon fill="black" stroke="black" points="1035.84,-334.87 1035.77,-324.275 1029.22,-332.6 1035.84,-334.87"/>
</g>
<!-- ExpMem8 -->
<g id="node12" class="node"><title>ExpMem8</title>
<ellipse fill="none" stroke="black" cx="1268.7" cy="-306" rx="48.9926" ry="18"/>
<text text-anchor="middle" x="1268.7" y="-302.3" font-family="Times,serif" font-size="14.00">ExpMem8</text>
</g>
<!-- StatMove2&#45;&gt;ExpMem8 -->
<g id="edge9" class="edge"><title>StatMove2&#45;&gt;ExpMem8</title>
<path fill="none" stroke="black" d="M1055.45,-366.054C1062.5,-364.027 1069.82,-361.939 1076.7,-360 1125.73,-346.168 1181.92,-330.703 1220.79,-320.065"/>
<polygon fill="black" stroke="black" points="1222.05,-323.348 1230.77,-317.333 1220.2,-316.596 1222.05,-323.348"/>
</g>
<!-- ExpBinary3 -->
<g id="node13" class="node"><title>ExpBinary3</title>
<ellipse fill="none" stroke="black" cx="1114.7" cy="-234" rx="53.0913" ry="18"/>
<text text-anchor="middle" x="1114.7" y="-230.3" font-family="Times,serif" font-size="14.00">ExpBinary3</text>
</g>
<!-- ExpMem6&#45;&gt;ExpBinary3 -->
<g id="edge10" class="edge"><title>ExpMem6&#45;&gt;ExpBinary3</title>
<path fill="none" stroke="black" d="M1058.63,-288.765C1068.12,-279.665 1080.11,-268.162 1090.57,-258.134"/>
<polygon fill="black" stroke="black" points="1093.06,-260.595 1097.86,-251.147 1088.22,-255.542 1093.06,-260.595"/>
</g>
<!-- ExpMem8&#45;&gt;ExpBinary4 -->
<g id="edge47" class="edge"><title>ExpMem8&#45;&gt;ExpBinary4</title>
<path fill="none" stroke="black" d="M1298.98,-291.834C1324.4,-280.78 1360.95,-264.89 1388.94,-252.72"/>
<polygon fill="black" stroke="black" points="1390.68,-255.782 1398.45,-248.585 1387.88,-249.362 1390.68,-255.782"/>
</g>
<!-- ExpConst3 -->
<g id="node14" class="node"><title>ExpConst3</title>
<ellipse fill="none" stroke="black" cx="1262.7" cy="-162" rx="50.0912" ry="18"/>
<text text-anchor="middle" x="1262.7" y="-158.3" font-family="Times,serif" font-size="14.00">ExpConst3</text>
</g>
<!-- ExpBinary3&#45;&gt;ExpConst3 -->
<g id="edge15" class="edge"><title>ExpBinary3&#45;&gt;ExpConst3</title>
<path fill="none" stroke="black" d="M1144.29,-219.003C1167.33,-208.106 1199.48,-192.9 1224.47,-181.082"/>
<polygon fill="black" stroke="black" points="1226.11,-184.174 1233.66,-176.734 1223.12,-177.846 1226.11,-184.174"/>
</g>
<!-- ExpMem7 -->
<g id="node17" class="node"><title>ExpMem7</title>
<ellipse fill="none" stroke="black" cx="1066.7" cy="-162" rx="48.9926" ry="18"/>
<text text-anchor="middle" x="1066.7" y="-158.3" font-family="Times,serif" font-size="14.00">ExpMem7</text>
</g>
<!-- ExpBinary3&#45;&gt;ExpMem7 -->
<g id="edge13" class="edge"><title>ExpBinary3&#45;&gt;ExpMem7</title>
<path fill="none" stroke="black" d="M1103.32,-216.411C1097.61,-208.077 1090.56,-197.797 1084.17,-188.488"/>
<polygon fill="black" stroke="black" points="1086.86,-186.224 1078.32,-179.956 1081.09,-190.183 1086.86,-186.224"/>
</g>
<!-- Plus3 -->
<g id="node18" class="node"><title>Plus3</title>
<ellipse fill="none" stroke="black" cx="1163.7" cy="-162" rx="30.5947" ry="18"/>
<text text-anchor="middle" x="1163.7" y="-158.3" font-family="Times,serif" font-size="14.00">Plus3</text>
</g>
<!-- ExpBinary3&#45;&gt;Plus3 -->
<g id="edge14" class="edge"><title>ExpBinary3&#45;&gt;Plus3</title>
<path fill="none" stroke="black" d="M1126.31,-216.411C1132.37,-207.744 1139.92,-196.971 1146.63,-187.375"/>
<polygon fill="black" stroke="black" points="1149.64,-189.188 1152.5,-178.988 1143.9,-185.173 1149.64,-189.188"/>
</g>
<!-- Value3: 4 -->
<g id="node15" class="node"><title>Value3: 4</title>
<ellipse fill="none" stroke="black" cx="1262.7" cy="-90" rx="45.4919" ry="18"/>
<text text-anchor="middle" x="1262.7" y="-86.3" font-family="Times,serif" font-size="14.00">Value3: 4</text>
</g>
<!-- ExpConst3&#45;&gt;Value3: 4 -->
<g id="edge11" class="edge"><title>ExpConst3&#45;&gt;Value3: 4</title>
<path fill="none" stroke="black" d="M1262.7,-143.697C1262.7,-135.983 1262.7,-126.712 1262.7,-118.112"/>
<polygon fill="black" stroke="black" points="1266.2,-118.104 1262.7,-108.104 1259.2,-118.104 1266.2,-118.104"/>
</g>
<!-- ExpTemp4 -->
<g id="node19" class="node"><title>ExpTemp4</title>
<ellipse fill="none" stroke="black" cx="1066.7" cy="-90" rx="50.0912" ry="18"/>
<text text-anchor="middle" x="1066.7" y="-86.3" font-family="Times,serif" font-size="14.00">ExpTemp4</text>
</g>
<!-- ExpMem7&#45;&gt;ExpTemp4 -->
<g id="edge29" class="edge"><title>ExpMem7&#45;&gt;ExpTemp4</title>
<path fill="none" stroke="black" d="M1066.7,-143.697C1066.7,-135.983 1066.7,-126.712 1066.7,-118.112"/>
<polygon fill="black" stroke="black" points="1070.2,-118.104 1066.7,-108.104 1063.2,-118.104 1070.2,-118.104"/>
</g>
<!-- Temp4: FP -->
<g id="node20" class="node"><title>Temp4: FP</title>
<ellipse fill="none" stroke="black" cx="1066.7" cy="-18" rx="50.8918" ry="18"/>
<text text-anchor="middle" x="1066.7" y="-14.3" font-family="Times,serif" font-size="14.00">Temp4: FP</text>
</g>
<!-- ExpTemp4&#45;&gt;Temp4: FP -->
<g id="edge16" class="edge"><title>ExpTemp4&#45;&gt;Temp4: FP</title>
<path fill="none" stroke="black" d="M1066.7,-71.6966C1066.7,-63.9827 1066.7,-54.7125 1066.7,-46.1124"/>
<polygon fill="black" stroke="black" points="1070.2,-46.1043 1066.7,-36.1043 1063.2,-46.1044 1070.2,-46.1043"/>
</g>
<!-- StatMove0 -->
<g id="node21" class="node"><title>StatMove0</title>
<ellipse fill="none" stroke="black" cx="268.696" cy="-450" rx="50.0912" ry="18"/>
<text text-anchor="middle" x="268.696" y="-446.3" font-family="Times,serif" font-size="14.00">StatMove0</text>
</g>
<!-- ExpMem0 -->
<g id="node22" class="node"><title>ExpMem0</title>
<ellipse fill="none" stroke="black" cx="127.696" cy="-378" rx="48.9926" ry="18"/>
<text text-anchor="middle" x="127.696" y="-374.3" font-family="Times,serif" font-size="14.00">ExpMem0</text>
</g>
<!-- StatMove0&#45;&gt;ExpMem0 -->
<g id="edge17" class="edge"><title>StatMove0&#45;&gt;ExpMem0</title>
<path fill="none" stroke="black" d="M240.501,-435.003C218.791,-424.225 188.587,-409.23 164.896,-397.468"/>
<polygon fill="black" stroke="black" points="166.355,-394.285 155.841,-392.973 163.242,-400.555 166.355,-394.285"/>
</g>
<!-- ExpMem2 -->
<g id="node23" class="node"><title>ExpMem2</title>
<ellipse fill="none" stroke="black" cx="268.696" cy="-378" rx="48.9926" ry="18"/>
<text text-anchor="middle" x="268.696" y="-374.3" font-family="Times,serif" font-size="14.00">ExpMem2</text>
</g>
<!-- StatMove0&#45;&gt;ExpMem2 -->
<g id="edge18" class="edge"><title>StatMove0&#45;&gt;ExpMem2</title>
<path fill="none" stroke="black" d="M268.696,-431.697C268.696,-423.983 268.696,-414.712 268.696,-406.112"/>
<polygon fill="black" stroke="black" points="272.196,-406.104 268.696,-396.104 265.196,-406.104 272.196,-406.104"/>
</g>
<!-- ExpMem1 -->
<g id="node28" class="node"><title>ExpMem1</title>
<ellipse fill="none" stroke="black" cx="76.6955" cy="-306" rx="48.9926" ry="18"/>
<text text-anchor="middle" x="76.6955" y="-302.3" font-family="Times,serif" font-size="14.00">ExpMem1</text>
</g>
<!-- ExpMem0&#45;&gt;ExpMem1 -->
<g id="edge32" class="edge"><title>ExpMem0&#45;&gt;ExpMem1</title>
<path fill="none" stroke="black" d="M115.609,-360.411C109.385,-351.868 101.67,-341.278 94.7549,-331.787"/>
<polygon fill="black" stroke="black" points="97.4125,-329.491 88.695,-323.47 91.7548,-333.613 97.4125,-329.491"/>
</g>
<!-- ExpBinary0 -->
<g id="node40" class="node"><title>ExpBinary0</title>
<ellipse fill="none" stroke="black" cx="268.696" cy="-306" rx="53.0913" ry="18"/>
<text text-anchor="middle" x="268.696" y="-302.3" font-family="Times,serif" font-size="14.00">ExpBinary0</text>
</g>
<!-- ExpMem2&#45;&gt;ExpBinary0 -->
<g id="edge31" class="edge"><title>ExpMem2&#45;&gt;ExpBinary0</title>
<path fill="none" stroke="black" d="M268.696,-359.697C268.696,-351.983 268.696,-342.712 268.696,-334.112"/>
<polygon fill="black" stroke="black" points="272.196,-334.104 268.696,-324.104 265.196,-334.104 272.196,-334.104"/>
</g>
<!-- StatSeq3 -->
<g id="node24" class="node"><title>StatSeq3</title>
<ellipse fill="none" stroke="black" cx="909.696" cy="-450" rx="42.4939" ry="18"/>
<text text-anchor="middle" x="909.696" y="-446.3" font-family="Times,serif" font-size="14.00">StatSeq3</text>
</g>
<!-- StatSeq3&#45;&gt;StatMove2 -->
<g id="edge20" class="edge"><title>StatSeq3&#45;&gt;StatMove2</title>
<path fill="none" stroke="black" d="M932.073,-434.496C947.542,-424.47 968.355,-410.98 985.588,-399.811"/>
<polygon fill="black" stroke="black" points="987.738,-402.588 994.226,-394.212 983.931,-396.714 987.738,-402.588"/>
</g>
<!-- StatMove1 -->
<g id="node25" class="node"><title>StatMove1</title>
<ellipse fill="none" stroke="black" cx="850.696" cy="-378" rx="50.0912" ry="18"/>
<text text-anchor="middle" x="850.696" y="-374.3" font-family="Times,serif" font-size="14.00">StatMove1</text>
</g>
<!-- StatSeq3&#45;&gt;StatMove1 -->
<g id="edge19" class="edge"><title>StatSeq3&#45;&gt;StatMove1</title>
<path fill="none" stroke="black" d="M896.011,-432.765C888.671,-424.056 879.476,-413.147 871.291,-403.435"/>
<polygon fill="black" stroke="black" points="873.836,-401.024 864.715,-395.633 868.484,-405.535 873.836,-401.024"/>
</g>
<!-- ExpMem3 -->
<g id="node45" class="node"><title>ExpMem3</title>
<ellipse fill="none" stroke="black" cx="683.696" cy="-306" rx="48.9926" ry="18"/>
<text text-anchor="middle" x="683.696" y="-302.3" font-family="Times,serif" font-size="14.00">ExpMem3</text>
</g>
<!-- StatMove1&#45;&gt;ExpMem3 -->
<g id="edge52" class="edge"><title>StatMove1&#45;&gt;ExpMem3</title>
<path fill="none" stroke="black" d="M819.284,-363.834C792.375,-352.554 753.448,-336.238 724.2,-323.978"/>
<polygon fill="black" stroke="black" points="725.259,-320.627 714.684,-319.989 722.553,-327.083 725.259,-320.627"/>
</g>
<!-- ExpMem5 -->
<g id="node55" class="node"><title>ExpMem5</title>
<ellipse fill="none" stroke="black" cx="850.696" cy="-306" rx="48.9926" ry="18"/>
<text text-anchor="middle" x="850.696" y="-302.3" font-family="Times,serif" font-size="14.00">ExpMem5</text>
</g>
<!-- StatMove1&#45;&gt;ExpMem5 -->
<g id="edge53" class="edge"><title>StatMove1&#45;&gt;ExpMem5</title>
<path fill="none" stroke="black" d="M850.696,-359.697C850.696,-351.983 850.696,-342.712 850.696,-334.112"/>
<polygon fill="black" stroke="black" points="854.196,-334.104 850.696,-324.104 847.196,-334.104 854.196,-334.104"/>
</g>
<!-- ExpConst0 -->
<g id="node26" class="node"><title>ExpConst0</title>
<ellipse fill="none" stroke="black" cx="367.696" cy="-234" rx="50.0912" ry="18"/>
<text text-anchor="middle" x="367.696" y="-230.3" font-family="Times,serif" font-size="14.00">ExpConst0</text>
</g>
<!-- Value0: 4 -->
<g id="node27" class="node"><title>Value0: 4</title>
<ellipse fill="none" stroke="black" cx="325.696" cy="-162" rx="45.4919" ry="18"/>
<text text-anchor="middle" x="325.696" y="-158.3" font-family="Times,serif" font-size="14.00">Value0: 4</text>
</g>
<!-- ExpConst0&#45;&gt;Value0: 4 -->
<g id="edge21" class="edge"><title>ExpConst0&#45;&gt;Value0: 4</title>
<path fill="none" stroke="black" d="M357.528,-216.055C352.576,-207.801 346.516,-197.701 341.018,-188.538"/>
<polygon fill="black" stroke="black" points="343.915,-186.563 335.769,-179.789 337.913,-190.165 343.915,-186.563"/>
</g>
<!-- ExpTemp0 -->
<g id="node29" class="node"><title>ExpTemp0</title>
<ellipse fill="none" stroke="black" cx="51.6955" cy="-234" rx="50.0912" ry="18"/>
<text text-anchor="middle" x="51.6955" y="-230.3" font-family="Times,serif" font-size="14.00">ExpTemp0</text>
</g>
<!-- ExpMem1&#45;&gt;ExpTemp0 -->
<g id="edge22" class="edge"><title>ExpMem1&#45;&gt;ExpTemp0</title>
<path fill="none" stroke="black" d="M70.6437,-288.055C67.8299,-280.176 64.4157,-270.617 61.2648,-261.794"/>
<polygon fill="black" stroke="black" points="64.5248,-260.516 57.8653,-252.275 57.9326,-262.87 64.5248,-260.516"/>
</g>
<!-- Temp0: FP -->
<g id="node39" class="node"><title>Temp0: FP</title>
<ellipse fill="none" stroke="black" cx="50.6955" cy="-162" rx="50.8918" ry="18"/>
<text text-anchor="middle" x="50.6955" y="-158.3" font-family="Times,serif" font-size="14.00">Temp0: FP</text>
</g>
<!-- ExpTemp0&#45;&gt;Temp0: FP -->
<g id="edge30" class="edge"><title>ExpTemp0&#45;&gt;Temp0: FP</title>
<path fill="none" stroke="black" d="M51.4483,-215.697C51.3381,-207.983 51.2057,-198.712 51.0828,-190.112"/>
<polygon fill="black" stroke="black" points="54.5824,-190.053 50.9398,-180.104 47.5831,-190.153 54.5824,-190.053"/>
</g>
<!-- StatLabel0 -->
<g id="node30" class="node"><title>StatLabel0</title>
<ellipse fill="none" stroke="black" cx="781.696" cy="-594" rx="48.9926" ry="18"/>
<text text-anchor="middle" x="781.696" y="-590.3" font-family="Times,serif" font-size="14.00">StatLabel0</text>
</g>
<!-- Label0: Element::Init -->
<g id="node31" class="node"><title>Label0: Element::Init</title>
<ellipse fill="none" stroke="black" cx="762.696" cy="-522" rx="87.1846" ry="18"/>
<text text-anchor="middle" x="762.696" y="-518.3" font-family="Times,serif" font-size="14.00">Label0: Element::Init</text>
</g>
<!-- StatLabel0&#45;&gt;Label0: Element::Init -->
<g id="edge23" class="edge"><title>StatLabel0&#45;&gt;Label0: Element::Init</title>
<path fill="none" stroke="black" d="M777.096,-576.055C774.981,-568.261 772.419,-558.822 770.045,-550.079"/>
<polygon fill="black" stroke="black" points="773.382,-549.009 767.385,-540.275 766.626,-550.843 773.382,-549.009"/>
</g>
<!-- ExpTemp1 -->
<g id="node33" class="node"><title>ExpTemp1</title>
<ellipse fill="none" stroke="black" cx="169.696" cy="-234" rx="50.0912" ry="18"/>
<text text-anchor="middle" x="169.696" y="-230.3" font-family="Times,serif" font-size="14.00">ExpTemp1</text>
</g>
<!-- Temp1: FP -->
<g id="node34" class="node"><title>Temp1: FP</title>
<ellipse fill="none" stroke="black" cx="169.696" cy="-162" rx="50.8918" ry="18"/>
<text text-anchor="middle" x="169.696" y="-158.3" font-family="Times,serif" font-size="14.00">Temp1: FP</text>
</g>
<!-- ExpTemp1&#45;&gt;Temp1: FP -->
<g id="edge25" class="edge"><title>ExpTemp1&#45;&gt;Temp1: FP</title>
<path fill="none" stroke="black" d="M169.696,-215.697C169.696,-207.983 169.696,-198.712 169.696,-190.112"/>
<polygon fill="black" stroke="black" points="173.196,-190.104 169.696,-180.104 166.196,-190.104 173.196,-190.104"/>
</g>
<!-- StatSeq0 -->
<g id="node35" class="node"><title>StatSeq0</title>
<ellipse fill="none" stroke="black" cx="845.696" cy="-666" rx="42.4939" ry="18"/>
<text text-anchor="middle" x="845.696" y="-662.3" font-family="Times,serif" font-size="14.00">StatSeq0</text>
</g>
<!-- StatSeq0&#45;&gt;StatLabel0 -->
<g id="edge26" class="edge"><title>StatSeq0&#45;&gt;StatLabel0</title>
<path fill="none" stroke="black" d="M830.852,-648.765C822.81,-639.969 812.716,-628.928 803.77,-619.144"/>
<polygon fill="black" stroke="black" points="806.234,-616.652 796.903,-611.633 801.068,-621.375 806.234,-616.652"/>
</g>
<!-- StatSeq1 -->
<g id="node36" class="node"><title>StatSeq1</title>
<ellipse fill="none" stroke="black" cx="909.696" cy="-594" rx="42.4939" ry="18"/>
<text text-anchor="middle" x="909.696" y="-590.3" font-family="Times,serif" font-size="14.00">StatSeq1</text>
</g>
<!-- StatSeq0&#45;&gt;StatSeq1 -->
<g id="edge27" class="edge"><title>StatSeq0&#45;&gt;StatSeq1</title>
<path fill="none" stroke="black" d="M860.539,-648.765C868.698,-639.841 878.968,-628.608 888.009,-618.719"/>
<polygon fill="black" stroke="black" points="890.768,-620.889 894.932,-611.147 885.601,-616.166 890.768,-620.889"/>
</g>
<!-- StatSeq1&#45;&gt;StatMove3 -->
<g id="edge45" class="edge"><title>StatSeq1&#45;&gt;StatMove3</title>
<path fill="none" stroke="black" d="M943.599,-583.193C985.497,-571.074 1057.03,-550.382 1104.34,-536.699"/>
<polygon fill="black" stroke="black" points="1105.41,-540.032 1114.04,-533.891 1103.47,-533.307 1105.41,-540.032"/>
</g>
<!-- StatSeq2 -->
<g id="node46" class="node"><title>StatSeq2</title>
<ellipse fill="none" stroke="black" cx="909.696" cy="-522" rx="42.4939" ry="18"/>
<text text-anchor="middle" x="909.696" y="-518.3" font-family="Times,serif" font-size="14.00">StatSeq2</text>
</g>
<!-- StatSeq1&#45;&gt;StatSeq2 -->
<g id="edge44" class="edge"><title>StatSeq1&#45;&gt;StatSeq2</title>
<path fill="none" stroke="black" d="M909.696,-575.697C909.696,-567.983 909.696,-558.712 909.696,-550.112"/>
<polygon fill="black" stroke="black" points="913.196,-550.104 909.696,-540.104 906.196,-550.104 913.196,-550.104"/>
</g>
<!-- ExpTemp3 -->
<g id="node37" class="node"><title>ExpTemp3</title>
<ellipse fill="none" stroke="black" cx="751.696" cy="-162" rx="50.0912" ry="18"/>
<text text-anchor="middle" x="751.696" y="-158.3" font-family="Times,serif" font-size="14.00">ExpTemp3</text>
</g>
<!-- Temp3: FP -->
<g id="node38" class="node"><title>Temp3: FP</title>
<ellipse fill="none" stroke="black" cx="751.696" cy="-90" rx="50.8918" ry="18"/>
<text text-anchor="middle" x="751.696" y="-86.3" font-family="Times,serif" font-size="14.00">Temp3: FP</text>
</g>
<!-- ExpTemp3&#45;&gt;Temp3: FP -->
<g id="edge28" class="edge"><title>ExpTemp3&#45;&gt;Temp3: FP</title>
<path fill="none" stroke="black" d="M751.696,-143.697C751.696,-135.983 751.696,-126.712 751.696,-118.112"/>
<polygon fill="black" stroke="black" points="755.196,-118.104 751.696,-108.104 748.196,-118.104 755.196,-118.104"/>
</g>
<!-- ExpBinary0&#45;&gt;ExpConst0 -->
<g id="edge42" class="edge"><title>ExpBinary0&#45;&gt;ExpConst0</title>
<path fill="none" stroke="black" d="M290.667,-289.465C304.476,-279.7 322.477,-266.972 337.605,-256.276"/>
<polygon fill="black" stroke="black" points="339.982,-258.882 346.126,-250.251 335.94,-253.167 339.982,-258.882"/>
</g>
<!-- ExpBinary0&#45;&gt;ExpTemp1 -->
<g id="edge40" class="edge"><title>ExpBinary0&#45;&gt;ExpTemp1</title>
<path fill="none" stroke="black" d="M246.724,-289.465C232.915,-279.7 214.914,-266.972 199.786,-256.276"/>
<polygon fill="black" stroke="black" points="201.451,-253.167 191.265,-250.251 197.409,-258.882 201.451,-253.167"/>
</g>
<!-- Plus0 -->
<g id="node49" class="node"><title>Plus0</title>
<ellipse fill="none" stroke="black" cx="268.696" cy="-234" rx="30.5947" ry="18"/>
<text text-anchor="middle" x="268.696" y="-230.3" font-family="Times,serif" font-size="14.00">Plus0</text>
</g>
<!-- ExpBinary0&#45;&gt;Plus0 -->
<g id="edge41" class="edge"><title>ExpBinary0&#45;&gt;Plus0</title>
<path fill="none" stroke="black" d="M268.696,-287.697C268.696,-279.983 268.696,-270.712 268.696,-262.112"/>
<polygon fill="black" stroke="black" points="272.196,-262.104 268.696,-252.104 265.196,-262.104 272.196,-262.104"/>
</g>
<!-- ExpBinary1 -->
<g id="node41" class="node"><title>ExpBinary1</title>
<ellipse fill="none" stroke="black" cx="583.696" cy="-234" rx="53.0913" ry="18"/>
<text text-anchor="middle" x="583.696" y="-230.3" font-family="Times,serif" font-size="14.00">ExpBinary1</text>
</g>
<!-- ExpMem4 -->
<g id="node42" class="node"><title>ExpMem4</title>
<ellipse fill="none" stroke="black" cx="437.696" cy="-162" rx="48.9926" ry="18"/>
<text text-anchor="middle" x="437.696" y="-158.3" font-family="Times,serif" font-size="14.00">ExpMem4</text>
</g>
<!-- ExpBinary1&#45;&gt;ExpMem4 -->
<g id="edge33" class="edge"><title>ExpBinary1&#45;&gt;ExpMem4</title>
<path fill="none" stroke="black" d="M554.15,-218.834C531.394,-207.924 499.779,-192.766 475.232,-180.997"/>
<polygon fill="black" stroke="black" points="476.734,-177.835 466.203,-176.668 473.707,-184.147 476.734,-177.835"/>
</g>
<!-- Plus1 -->
<g id="node43" class="node"><title>Plus1</title>
<ellipse fill="none" stroke="black" cx="534.696" cy="-162" rx="30.5947" ry="18"/>
<text text-anchor="middle" x="534.696" y="-158.3" font-family="Times,serif" font-size="14.00">Plus1</text>
</g>
<!-- ExpBinary1&#45;&gt;Plus1 -->
<g id="edge34" class="edge"><title>ExpBinary1&#45;&gt;Plus1</title>
<path fill="none" stroke="black" d="M572.083,-216.411C566.016,-207.744 558.475,-196.971 551.758,-187.375"/>
<polygon fill="black" stroke="black" points="554.489,-185.173 545.887,-178.988 548.755,-189.188 554.489,-185.173"/>
</g>
<!-- ExpConst1 -->
<g id="node44" class="node"><title>ExpConst1</title>
<ellipse fill="none" stroke="black" cx="633.696" cy="-162" rx="50.0912" ry="18"/>
<text text-anchor="middle" x="633.696" y="-158.3" font-family="Times,serif" font-size="14.00">ExpConst1</text>
</g>
<!-- ExpBinary1&#45;&gt;ExpConst1 -->
<g id="edge35" class="edge"><title>ExpBinary1&#45;&gt;ExpConst1</title>
<path fill="none" stroke="black" d="M595.545,-216.411C601.559,-207.992 608.992,-197.585 615.695,-188.201"/>
<polygon fill="black" stroke="black" points="618.62,-190.128 621.584,-179.956 612.923,-186.059 618.62,-190.128"/>
</g>
<!-- ExpTemp2 -->
<g id="node47" class="node"><title>ExpTemp2</title>
<ellipse fill="none" stroke="black" cx="437.696" cy="-90" rx="50.0912" ry="18"/>
<text text-anchor="middle" x="437.696" y="-86.3" font-family="Times,serif" font-size="14.00">ExpTemp2</text>
</g>
<!-- ExpMem4&#45;&gt;ExpTemp2 -->
<g id="edge43" class="edge"><title>ExpMem4&#45;&gt;ExpTemp2</title>
<path fill="none" stroke="black" d="M437.696,-143.697C437.696,-135.983 437.696,-126.712 437.696,-118.112"/>
<polygon fill="black" stroke="black" points="441.196,-118.104 437.696,-108.104 434.196,-118.104 441.196,-118.104"/>
</g>
<!-- Value1: 8 -->
<g id="node50" class="node"><title>Value1: 8</title>
<ellipse fill="none" stroke="black" cx="633.696" cy="-90" rx="45.4919" ry="18"/>
<text text-anchor="middle" x="633.696" y="-86.3" font-family="Times,serif" font-size="14.00">Value1: 8</text>
</g>
<!-- ExpConst1&#45;&gt;Value1: 8 -->
<g id="edge46" class="edge"><title>ExpConst1&#45;&gt;Value1: 8</title>
<path fill="none" stroke="black" d="M633.696,-143.697C633.696,-135.983 633.696,-126.712 633.696,-118.112"/>
<polygon fill="black" stroke="black" points="637.196,-118.104 633.696,-108.104 630.196,-118.104 637.196,-118.104"/>
</g>
<!-- ExpMem3&#45;&gt;ExpBinary1 -->
<g id="edge36" class="edge"><title>ExpMem3&#45;&gt;ExpBinary1</title>
<path fill="none" stroke="black" d="M661.997,-289.811C647.941,-279.972 629.437,-267.019 613.946,-256.175"/>
<polygon fill="black" stroke="black" points="615.896,-253.268 605.697,-250.401 611.882,-259.003 615.896,-253.268"/>
</g>
<!-- StatSeq2&#45;&gt;StatMove0 -->
<g id="edge37" class="edge"><title>StatSeq2&#45;&gt;StatMove0</title>
<path fill="none" stroke="black" d="M878.996,-509.492C872.378,-507.372 865.365,-505.391 858.696,-504 667.974,-464.212 436.433,-454.287 328.927,-451.816"/>
<polygon fill="black" stroke="black" points="328.679,-448.31 318.606,-451.593 328.528,-455.309 328.679,-448.31"/>
</g>
<!-- StatSeq2&#45;&gt;StatSeq3 -->
<g id="edge38" class="edge"><title>StatSeq2&#45;&gt;StatSeq3</title>
<path fill="none" stroke="black" d="M909.696,-503.697C909.696,-495.983 909.696,-486.712 909.696,-478.112"/>
<polygon fill="black" stroke="black" points="913.196,-478.104 909.696,-468.104 906.196,-478.104 913.196,-478.104"/>
</g>
<!-- Temp2: FP -->
<g id="node48" class="node"><title>Temp2: FP</title>
<ellipse fill="none" stroke="black" cx="437.696" cy="-18" rx="50.8918" ry="18"/>
<text text-anchor="middle" x="437.696" y="-14.3" font-family="Times,serif" font-size="14.00">Temp2: FP</text>
</g>
<!-- ExpTemp2&#45;&gt;Temp2: FP -->
<g id="edge39" class="edge"><title>ExpTemp2&#45;&gt;Temp2: FP</title>
<path fill="none" stroke="black" d="M437.696,-71.6966C437.696,-63.9827 437.696,-54.7125 437.696,-46.1124"/>
<polygon fill="black" stroke="black" points="441.196,-46.1043 437.696,-36.1043 434.196,-46.1044 441.196,-46.1043"/>
</g>
<!-- ExpBinary2 -->
<g id="node51" class="node"><title>ExpBinary2</title>
<ellipse fill="none" stroke="black" cx="850.696" cy="-234" rx="53.0913" ry="18"/>
<text text-anchor="middle" x="850.696" y="-230.3" font-family="Times,serif" font-size="14.00">ExpBinary2</text>
</g>
<!-- ExpBinary2&#45;&gt;ExpTemp3 -->
<g id="edge48" class="edge"><title>ExpBinary2&#45;&gt;ExpTemp3</title>
<path fill="none" stroke="black" d="M828.724,-217.465C814.915,-207.7 796.914,-194.972 781.786,-184.276"/>
<polygon fill="black" stroke="black" points="783.451,-181.167 773.265,-178.251 779.409,-186.882 783.451,-181.167"/>
</g>
<!-- Plus2 -->
<g id="node52" class="node"><title>Plus2</title>
<ellipse fill="none" stroke="black" cx="850.696" cy="-162" rx="30.5947" ry="18"/>
<text text-anchor="middle" x="850.696" y="-158.3" font-family="Times,serif" font-size="14.00">Plus2</text>
</g>
<!-- ExpBinary2&#45;&gt;Plus2 -->
<g id="edge49" class="edge"><title>ExpBinary2&#45;&gt;Plus2</title>
<path fill="none" stroke="black" d="M850.696,-215.697C850.696,-207.983 850.696,-198.712 850.696,-190.112"/>
<polygon fill="black" stroke="black" points="854.196,-190.104 850.696,-180.104 847.196,-190.104 854.196,-190.104"/>
</g>
<!-- ExpConst2 -->
<g id="node53" class="node"><title>ExpConst2</title>
<ellipse fill="none" stroke="black" cx="949.696" cy="-162" rx="50.0912" ry="18"/>
<text text-anchor="middle" x="949.696" y="-158.3" font-family="Times,serif" font-size="14.00">ExpConst2</text>
</g>
<!-- ExpBinary2&#45;&gt;ExpConst2 -->
<g id="edge50" class="edge"><title>ExpBinary2&#45;&gt;ExpConst2</title>
<path fill="none" stroke="black" d="M872.667,-217.465C886.476,-207.7 904.477,-194.972 919.605,-184.276"/>
<polygon fill="black" stroke="black" points="921.982,-186.882 928.126,-178.251 917.94,-181.167 921.982,-186.882"/>
</g>
<!-- Value2: 8 -->
<g id="node54" class="node"><title>Value2: 8</title>
<ellipse fill="none" stroke="black" cx="949.696" cy="-90" rx="45.4919" ry="18"/>
<text text-anchor="middle" x="949.696" y="-86.3" font-family="Times,serif" font-size="14.00">Value2: 8</text>
</g>
<!-- ExpConst2&#45;&gt;Value2: 8 -->
<g id="edge51" class="edge"><title>ExpConst2&#45;&gt;Value2: 8</title>
<path fill="none" stroke="black" d="M949.696,-143.697C949.696,-135.983 949.696,-126.712 949.696,-118.112"/>
<polygon fill="black" stroke="black" points="953.196,-118.104 949.696,-108.104 946.196,-118.104 953.196,-118.104"/>
</g>
<!-- ExpMem5&#45;&gt;ExpBinary2 -->
<g id="edge54" class="edge"><title>ExpMem5&#45;&gt;ExpBinary2</title>
<path fill="none" stroke="black" d="M850.696,-287.697C850.696,-279.983 850.696,-270.712 850.696,-262.112"/>
<polygon fill="black" stroke="black" points="854.196,-262.104 850.696,-252.104 847.196,-262.104 854.196,-262.104"/>
</g>
</g>
</svg>
