<?xml version="1.0" encoding="UTF-8" standalone="no"?>
<!DOCTYPE svg PUBLIC "-//W3C//DTD SVG 1.1//EN"
 "http://www.w3.org/Graphics/SVG/1.1/DTD/svg11.dtd">
<!-- Generated by graphviz version 2.38.0 (20140413.2041)
 -->
<!-- Title: %3 Pages: 1 -->
<svg width="428pt" height="404pt"
 viewBox="0.00 0.00 427.99 404.00" xmlns="http://www.w3.org/2000/svg" xmlns:xlink="http://www.w3.org/1999/xlink">
<g id="graph0" class="graph" transform="scale(1 1) rotate(0) translate(4 400)">
<title>%3</title>
<polygon fill="white" stroke="none" points="-4,4 -4,-400 423.987,-400 423.987,4 -4,4"/>
<!-- ExpMem0 -->
<g id="node1" class="node"><title>ExpMem0</title>
<ellipse fill="none" stroke="black" cx="366.342" cy="-234" rx="48.9926" ry="18"/>
<text text-anchor="middle" x="366.342" y="-230.3" font-family="Times,serif" font-size="14.00">ExpMem0</text>
</g>
<!-- ExpMem1 -->
<g id="node2" class="node"><title>ExpMem1</title>
<ellipse fill="none" stroke="black" cx="367.342" cy="-162" rx="48.9926" ry="18"/>
<text text-anchor="middle" x="367.342" y="-158.3" font-family="Times,serif" font-size="14.00">ExpMem1</text>
</g>
<!-- ExpMem0&#45;&gt;ExpMem1 -->
<g id="edge1" class="edge"><title>ExpMem0&#45;&gt;ExpMem1</title>
<path fill="none" stroke="black" d="M366.589,-215.697C366.699,-207.983 366.832,-198.712 366.955,-190.112"/>
<polygon fill="black" stroke="black" points="370.454,-190.153 367.098,-180.104 363.455,-190.053 370.454,-190.153"/>
</g>
<!-- ExpTemp1 -->
<g id="node3" class="node"><title>ExpTemp1</title>
<ellipse fill="none" stroke="black" cx="367.342" cy="-90" rx="50.0912" ry="18"/>
<text text-anchor="middle" x="367.342" y="-86.3" font-family="Times,serif" font-size="14.00">ExpTemp1</text>
</g>
<!-- ExpMem1&#45;&gt;ExpTemp1 -->
<g id="edge2" class="edge"><title>ExpMem1&#45;&gt;ExpTemp1</title>
<path fill="none" stroke="black" d="M367.342,-143.697C367.342,-135.983 367.342,-126.712 367.342,-118.112"/>
<polygon fill="black" stroke="black" points="370.842,-118.104 367.342,-108.104 363.842,-118.104 370.842,-118.104"/>
</g>
<!-- Temp1: $fp -->
<g id="node4" class="node"><title>Temp1: $fp</title>
<ellipse fill="none" stroke="black" cx="367.342" cy="-18" rx="52.7911" ry="18"/>
<text text-anchor="middle" x="367.342" y="-14.3" font-family="Times,serif" font-size="14.00">Temp1: $fp</text>
</g>
<!-- ExpTemp1&#45;&gt;Temp1: $fp -->
<g id="edge3" class="edge"><title>ExpTemp1&#45;&gt;Temp1: $fp</title>
<path fill="none" stroke="black" d="M367.342,-71.6966C367.342,-63.9827 367.342,-54.7125 367.342,-46.1124"/>
<polygon fill="black" stroke="black" points="370.842,-46.1043 367.342,-36.1043 363.842,-46.1044 370.842,-46.1043"/>
</g>
<!-- StatLabel0 -->
<g id="node5" class="node"><title>StatLabel0</title>
<ellipse fill="none" stroke="black" cx="111.342" cy="-306" rx="48.9926" ry="18"/>
<text text-anchor="middle" x="111.342" y="-302.3" font-family="Times,serif" font-size="14.00">StatLabel0</text>
</g>
<!-- Label0: List::GetElem -->
<g id="node6" class="node"><title>Label0: List::GetElem</title>
<ellipse fill="none" stroke="black" cx="90.342" cy="-234" rx="90.1842" ry="18"/>
<text text-anchor="middle" x="90.342" y="-230.3" font-family="Times,serif" font-size="14.00">Label0: List::GetElem</text>
</g>
<!-- StatLabel0&#45;&gt;Label0: List::GetElem -->
<g id="edge4" class="edge"><title>StatLabel0&#45;&gt;Label0: List::GetElem</title>
<path fill="none" stroke="black" d="M106.258,-288.055C103.92,-280.261 101.089,-270.822 98.4657,-262.079"/>
<polygon fill="black" stroke="black" points="101.751,-260.848 95.5246,-252.275 95.0457,-262.859 101.751,-260.848"/>
</g>
<!-- StatSeq0 -->
<g id="node7" class="node"><title>StatSeq0</title>
<ellipse fill="none" stroke="black" cx="179.342" cy="-378" rx="42.4939" ry="18"/>
<text text-anchor="middle" x="179.342" y="-374.3" font-family="Times,serif" font-size="14.00">StatSeq0</text>
</g>
<!-- StatSeq0&#45;&gt;StatLabel0 -->
<g id="edge5" class="edge"><title>StatSeq0&#45;&gt;StatLabel0</title>
<path fill="none" stroke="black" d="M163.912,-361.116C155.169,-352.116 144.062,-340.682 134.312,-330.646"/>
<polygon fill="black" stroke="black" points="136.661,-328.041 127.183,-323.307 131.64,-332.919 136.661,-328.041"/>
</g>
<!-- StatMove0 -->
<g id="node8" class="node"><title>StatMove0</title>
<ellipse fill="none" stroke="black" cx="248.342" cy="-306" rx="50.0912" ry="18"/>
<text text-anchor="middle" x="248.342" y="-302.3" font-family="Times,serif" font-size="14.00">StatMove0</text>
</g>
<!-- StatSeq0&#45;&gt;StatMove0 -->
<g id="edge6" class="edge"><title>StatSeq0&#45;&gt;StatMove0</title>
<path fill="none" stroke="black" d="M194.999,-361.116C203.871,-352.116 215.141,-340.682 225.034,-330.646"/>
<polygon fill="black" stroke="black" points="227.741,-332.886 232.268,-323.307 222.755,-327.972 227.741,-332.886"/>
</g>
<!-- StatMove0&#45;&gt;ExpMem0 -->
<g id="edge9" class="edge"><title>StatMove0&#45;&gt;ExpMem0</title>
<path fill="none" stroke="black" d="M273.079,-290.326C290.464,-280.012 313.924,-266.095 332.965,-254.8"/>
<polygon fill="black" stroke="black" points="334.823,-257.767 341.638,-249.655 331.252,-251.747 334.823,-257.767"/>
</g>
<!-- ExpTemp0 -->
<g id="node9" class="node"><title>ExpTemp0</title>
<ellipse fill="none" stroke="black" cx="248.342" cy="-234" rx="50.0912" ry="18"/>
<text text-anchor="middle" x="248.342" y="-230.3" font-family="Times,serif" font-size="14.00">ExpTemp0</text>
</g>
<!-- StatMove0&#45;&gt;ExpTemp0 -->
<g id="edge8" class="edge"><title>StatMove0&#45;&gt;ExpTemp0</title>
<path fill="none" stroke="black" d="M248.342,-287.697C248.342,-279.983 248.342,-270.712 248.342,-262.112"/>
<polygon fill="black" stroke="black" points="251.842,-262.104 248.342,-252.104 244.842,-262.104 251.842,-262.104"/>
</g>
<!-- Temp0: $rv -->
<g id="node10" class="node"><title>Temp0: $rv</title>
<ellipse fill="none" stroke="black" cx="248.342" cy="-162" rx="52.7911" ry="18"/>
<text text-anchor="middle" x="248.342" y="-158.3" font-family="Times,serif" font-size="14.00">Temp0: $rv</text>
</g>
<!-- ExpTemp0&#45;&gt;Temp0: $rv -->
<g id="edge7" class="edge"><title>ExpTemp0&#45;&gt;Temp0: $rv</title>
<path fill="none" stroke="black" d="M248.342,-215.697C248.342,-207.983 248.342,-198.712 248.342,-190.112"/>
<polygon fill="black" stroke="black" points="251.842,-190.104 248.342,-180.104 244.842,-190.104 251.842,-190.104"/>
</g>
</g>
</svg>
