<?xml version="1.0" encoding="UTF-8" standalone="no"?>
<!DOCTYPE svg PUBLIC "-//W3C//DTD SVG 1.1//EN"
 "http://www.w3.org/Graphics/SVG/1.1/DTD/svg11.dtd">
<!-- Generated by graphviz version 2.38.0 (20140413.2041)
 -->
<!-- Title: %3 Pages: 1 -->
<svg width="527pt" height="476pt"
 viewBox="0.00 0.00 527.19 476.00" xmlns="http://www.w3.org/2000/svg" xmlns:xlink="http://www.w3.org/1999/xlink">
<g id="graph0" class="graph" transform="scale(1 1) rotate(0) translate(4 472)">
<title>%3</title>
<polygon fill="white" stroke="none" points="-4,4 -4,-472 523.188,-472 523.188,4 -4,4"/>
<!-- ExpMem0 -->
<g id="node1" class="node"><title>ExpMem0</title>
<ellipse fill="none" stroke="black" cx="365.142" cy="-306" rx="48.9926" ry="18"/>
<text text-anchor="middle" x="365.142" y="-302.3" font-family="Times,serif" font-size="14.00">ExpMem0</text>
</g>
<!-- ExpBinary0 -->
<g id="node2" class="node"><title>ExpBinary0</title>
<ellipse fill="none" stroke="black" cx="370.142" cy="-234" rx="53.0913" ry="18"/>
<text text-anchor="middle" x="370.142" y="-230.3" font-family="Times,serif" font-size="14.00">ExpBinary0</text>
</g>
<!-- ExpMem0&#45;&gt;ExpBinary0 -->
<g id="edge1" class="edge"><title>ExpMem0&#45;&gt;ExpBinary0</title>
<path fill="none" stroke="black" d="M366.378,-287.697C366.929,-279.983 367.592,-270.712 368.206,-262.112"/>
<polygon fill="black" stroke="black" points="371.699,-262.328 368.921,-252.104 364.717,-261.83 371.699,-262.328"/>
</g>
<!-- ExpMem1 -->
<g id="node3" class="node"><title>ExpMem1</title>
<ellipse fill="none" stroke="black" cx="273.142" cy="-162" rx="48.9926" ry="18"/>
<text text-anchor="middle" x="273.142" y="-158.3" font-family="Times,serif" font-size="14.00">ExpMem1</text>
</g>
<!-- ExpBinary0&#45;&gt;ExpMem1 -->
<g id="edge9" class="edge"><title>ExpBinary0&#45;&gt;ExpMem1</title>
<path fill="none" stroke="black" d="M348.615,-217.465C335.084,-207.7 317.447,-194.972 302.625,-184.276"/>
<polygon fill="black" stroke="black" points="304.433,-181.265 294.276,-178.251 300.337,-186.941 304.433,-181.265"/>
</g>
<!-- ExpConst0 -->
<g id="node6" class="node"><title>ExpConst0</title>
<ellipse fill="none" stroke="black" cx="469.142" cy="-162" rx="50.0912" ry="18"/>
<text text-anchor="middle" x="469.142" y="-158.3" font-family="Times,serif" font-size="14.00">ExpConst0</text>
</g>
<!-- ExpBinary0&#45;&gt;ExpConst0 -->
<g id="edge11" class="edge"><title>ExpBinary0&#45;&gt;ExpConst0</title>
<path fill="none" stroke="black" d="M392.114,-217.465C405.923,-207.7 423.924,-194.972 439.052,-184.276"/>
<polygon fill="black" stroke="black" points="441.429,-186.882 447.573,-178.251 437.387,-181.167 441.429,-186.882"/>
</g>
<!-- Plus0 -->
<g id="node14" class="node"><title>Plus0</title>
<ellipse fill="none" stroke="black" cx="370.142" cy="-162" rx="30.5947" ry="18"/>
<text text-anchor="middle" x="370.142" y="-158.3" font-family="Times,serif" font-size="14.00">Plus0</text>
</g>
<!-- ExpBinary0&#45;&gt;Plus0 -->
<g id="edge10" class="edge"><title>ExpBinary0&#45;&gt;Plus0</title>
<path fill="none" stroke="black" d="M370.142,-215.697C370.142,-207.983 370.142,-198.712 370.142,-190.112"/>
<polygon fill="black" stroke="black" points="373.643,-190.104 370.142,-180.104 366.643,-190.104 373.643,-190.104"/>
</g>
<!-- ExpTemp1 -->
<g id="node4" class="node"><title>ExpTemp1</title>
<ellipse fill="none" stroke="black" cx="273.142" cy="-90" rx="50.0912" ry="18"/>
<text text-anchor="middle" x="273.142" y="-86.3" font-family="Times,serif" font-size="14.00">ExpTemp1</text>
</g>
<!-- ExpMem1&#45;&gt;ExpTemp1 -->
<g id="edge2" class="edge"><title>ExpMem1&#45;&gt;ExpTemp1</title>
<path fill="none" stroke="black" d="M273.142,-143.697C273.142,-135.983 273.142,-126.712 273.142,-118.112"/>
<polygon fill="black" stroke="black" points="276.643,-118.104 273.142,-108.104 269.643,-118.104 276.643,-118.104"/>
</g>
<!-- Temp1: FP -->
<g id="node5" class="node"><title>Temp1: FP</title>
<ellipse fill="none" stroke="black" cx="273.142" cy="-18" rx="50.8918" ry="18"/>
<text text-anchor="middle" x="273.142" y="-14.3" font-family="Times,serif" font-size="14.00">Temp1: FP</text>
</g>
<!-- ExpTemp1&#45;&gt;Temp1: FP -->
<g id="edge3" class="edge"><title>ExpTemp1&#45;&gt;Temp1: FP</title>
<path fill="none" stroke="black" d="M273.142,-71.6966C273.142,-63.9827 273.142,-54.7125 273.142,-46.1124"/>
<polygon fill="black" stroke="black" points="276.643,-46.1043 273.142,-36.1043 269.643,-46.1044 276.643,-46.1043"/>
</g>
<!-- Value0: 4 -->
<g id="node7" class="node"><title>Value0: 4</title>
<ellipse fill="none" stroke="black" cx="469.142" cy="-90" rx="45.4919" ry="18"/>
<text text-anchor="middle" x="469.142" y="-86.3" font-family="Times,serif" font-size="14.00">Value0: 4</text>
</g>
<!-- ExpConst0&#45;&gt;Value0: 4 -->
<g id="edge4" class="edge"><title>ExpConst0&#45;&gt;Value0: 4</title>
<path fill="none" stroke="black" d="M469.142,-143.697C469.142,-135.983 469.142,-126.712 469.142,-118.112"/>
<polygon fill="black" stroke="black" points="472.643,-118.104 469.142,-108.104 465.643,-118.104 472.643,-118.104"/>
</g>
<!-- StatLabel0 -->
<g id="node8" class="node"><title>StatLabel0</title>
<ellipse fill="none" stroke="black" cx="103.142" cy="-378" rx="48.9926" ry="18"/>
<text text-anchor="middle" x="103.142" y="-374.3" font-family="Times,serif" font-size="14.00">StatLabel0</text>
</g>
<!-- Label0: List::GetEnd -->
<g id="node9" class="node"><title>Label0: List::GetEnd</title>
<ellipse fill="none" stroke="black" cx="85.1424" cy="-306" rx="85.2851" ry="18"/>
<text text-anchor="middle" x="85.1424" y="-302.3" font-family="Times,serif" font-size="14.00">Label0: List::GetEnd</text>
</g>
<!-- StatLabel0&#45;&gt;Label0: List::GetEnd -->
<g id="edge5" class="edge"><title>StatLabel0&#45;&gt;Label0: List::GetEnd</title>
<path fill="none" stroke="black" d="M98.7851,-360.055C96.781,-352.261 94.3538,-342.822 92.1056,-334.079"/>
<polygon fill="black" stroke="black" points="95.4649,-333.089 89.5847,-324.275 88.6854,-334.832 95.4649,-333.089"/>
</g>
<!-- StatSeq0 -->
<g id="node10" class="node"><title>StatSeq0</title>
<ellipse fill="none" stroke="black" cx="170.142" cy="-450" rx="42.4939" ry="18"/>
<text text-anchor="middle" x="170.142" y="-446.3" font-family="Times,serif" font-size="14.00">StatSeq0</text>
</g>
<!-- StatSeq0&#45;&gt;StatLabel0 -->
<g id="edge6" class="edge"><title>StatSeq0&#45;&gt;StatLabel0</title>
<path fill="none" stroke="black" d="M154.939,-433.116C146.324,-424.116 135.381,-412.682 125.775,-402.646"/>
<polygon fill="black" stroke="black" points="128.194,-400.111 118.751,-395.307 123.137,-404.951 128.194,-400.111"/>
</g>
<!-- StatMove0 -->
<g id="node11" class="node"><title>StatMove0</title>
<ellipse fill="none" stroke="black" cx="238.142" cy="-378" rx="50.0912" ry="18"/>
<text text-anchor="middle" x="238.142" y="-374.3" font-family="Times,serif" font-size="14.00">StatMove0</text>
</g>
<!-- StatSeq0&#45;&gt;StatMove0 -->
<g id="edge7" class="edge"><title>StatSeq0&#45;&gt;StatMove0</title>
<path fill="none" stroke="black" d="M185.573,-433.116C194.316,-424.116 205.422,-412.682 215.172,-402.646"/>
<polygon fill="black" stroke="black" points="217.844,-404.919 222.301,-395.307 212.823,-400.041 217.844,-404.919"/>
</g>
<!-- StatMove0&#45;&gt;ExpMem0 -->
<g id="edge13" class="edge"><title>StatMove0&#45;&gt;ExpMem0</title>
<path fill="none" stroke="black" d="M264.457,-362.496C283.444,-352.031 309.278,-337.791 330.025,-326.356"/>
<polygon fill="black" stroke="black" points="331.793,-329.378 338.862,-321.485 328.414,-323.247 331.793,-329.378"/>
</g>
<!-- ExpTemp0 -->
<g id="node12" class="node"><title>ExpTemp0</title>
<ellipse fill="none" stroke="black" cx="238.142" cy="-306" rx="50.0912" ry="18"/>
<text text-anchor="middle" x="238.142" y="-302.3" font-family="Times,serif" font-size="14.00">ExpTemp0</text>
</g>
<!-- StatMove0&#45;&gt;ExpTemp0 -->
<g id="edge12" class="edge"><title>StatMove0&#45;&gt;ExpTemp0</title>
<path fill="none" stroke="black" d="M238.142,-359.697C238.142,-351.983 238.142,-342.712 238.142,-334.112"/>
<polygon fill="black" stroke="black" points="241.643,-334.104 238.142,-324.104 234.643,-334.104 241.643,-334.104"/>
</g>
<!-- Temp0: RetVal -->
<g id="node13" class="node"><title>Temp0: RetVal</title>
<ellipse fill="none" stroke="black" cx="233.142" cy="-234" rx="65.7887" ry="18"/>
<text text-anchor="middle" x="233.142" y="-230.3" font-family="Times,serif" font-size="14.00">Temp0: RetVal</text>
</g>
<!-- ExpTemp0&#45;&gt;Temp0: RetVal -->
<g id="edge8" class="edge"><title>ExpTemp0&#45;&gt;Temp0: RetVal</title>
<path fill="none" stroke="black" d="M236.906,-287.697C236.355,-279.983 235.693,-270.712 235.079,-262.112"/>
<polygon fill="black" stroke="black" points="238.568,-261.83 234.364,-252.104 231.586,-262.328 238.568,-261.83"/>
</g>
</g>
</svg>
