<?xml version="1.0" encoding="UTF-8" standalone="no"?>
<!DOCTYPE svg PUBLIC "-//W3C//DTD SVG 1.1//EN"
 "http://www.w3.org/Graphics/SVG/1.1/DTD/svg11.dtd">
<!-- Generated by graphviz version 2.38.0 (20140413.2041)
 -->
<!-- Title: %3 Pages: 1 -->
<svg width="555pt" height="548pt"
 viewBox="0.00 0.00 555.34 548.00" xmlns="http://www.w3.org/2000/svg" xmlns:xlink="http://www.w3.org/1999/xlink">
<g id="graph0" class="graph" transform="scale(1 1) rotate(0) translate(4 544)">
<title>%3</title>
<polygon fill="white" stroke="none" points="-4,4 -4,-544 551.336,-544 551.336,4 -4,4"/>
<!-- StatMove0 -->
<g id="node1" class="node"><title>StatMove0</title>
<ellipse fill="none" stroke="black" cx="287.84" cy="-450" rx="50.0912" ry="18"/>
<text text-anchor="middle" x="287.84" y="-446.3" font-family="Times,serif" font-size="14.00">StatMove0</text>
</g>
<!-- ExpTemp0 -->
<g id="node2" class="node"><title>ExpTemp0</title>
<ellipse fill="none" stroke="black" cx="287.84" cy="-378" rx="50.0912" ry="18"/>
<text text-anchor="middle" x="287.84" y="-374.3" font-family="Times,serif" font-size="14.00">ExpTemp0</text>
</g>
<!-- StatMove0&#45;&gt;ExpTemp0 -->
<g id="edge1" class="edge"><title>StatMove0&#45;&gt;ExpTemp0</title>
<path fill="none" stroke="black" d="M287.84,-431.697C287.84,-423.983 287.84,-414.712 287.84,-406.112"/>
<polygon fill="black" stroke="black" points="291.34,-406.104 287.84,-396.104 284.34,-406.104 291.34,-406.104"/>
</g>
<!-- ExpMem0 -->
<g id="node3" class="node"><title>ExpMem0</title>
<ellipse fill="none" stroke="black" cx="406.84" cy="-378" rx="48.9926" ry="18"/>
<text text-anchor="middle" x="406.84" y="-374.3" font-family="Times,serif" font-size="14.00">ExpMem0</text>
</g>
<!-- StatMove0&#45;&gt;ExpMem0 -->
<g id="edge2" class="edge"><title>StatMove0&#45;&gt;ExpMem0</title>
<path fill="none" stroke="black" d="M312.787,-434.326C330.32,-424.012 353.978,-410.095 373.181,-398.8"/>
<polygon fill="black" stroke="black" points="375.082,-401.742 381.927,-393.655 371.533,-395.708 375.082,-401.742"/>
</g>
<!-- Temp0: T7 -->
<g id="node9" class="node"><title>Temp0: T7</title>
<ellipse fill="none" stroke="black" cx="286.84" cy="-306" rx="50.8918" ry="18"/>
<text text-anchor="middle" x="286.84" y="-302.3" font-family="Times,serif" font-size="14.00">Temp0: T7</text>
</g>
<!-- ExpTemp0&#45;&gt;Temp0: T7 -->
<g id="edge7" class="edge"><title>ExpTemp0&#45;&gt;Temp0: T7</title>
<path fill="none" stroke="black" d="M287.593,-359.697C287.483,-351.983 287.35,-342.712 287.228,-334.112"/>
<polygon fill="black" stroke="black" points="290.727,-334.053 287.085,-324.104 283.728,-334.153 290.727,-334.053"/>
</g>
<!-- ExpBinary0 -->
<g id="node4" class="node"><title>ExpBinary0</title>
<ellipse fill="none" stroke="black" cx="408.84" cy="-306" rx="53.0913" ry="18"/>
<text text-anchor="middle" x="408.84" y="-302.3" font-family="Times,serif" font-size="14.00">ExpBinary0</text>
</g>
<!-- ExpMem0&#45;&gt;ExpBinary0 -->
<g id="edge12" class="edge"><title>ExpMem0&#45;&gt;ExpBinary0</title>
<path fill="none" stroke="black" d="M407.335,-359.697C407.555,-351.983 407.82,-342.712 408.066,-334.112"/>
<polygon fill="black" stroke="black" points="411.564,-334.2 408.352,-324.104 404.567,-334 411.564,-334.2"/>
</g>
<!-- ExpMem1 -->
<g id="node5" class="node"><title>ExpMem1</title>
<ellipse fill="none" stroke="black" cx="311.84" cy="-234" rx="48.9926" ry="18"/>
<text text-anchor="middle" x="311.84" y="-230.3" font-family="Times,serif" font-size="14.00">ExpMem1</text>
</g>
<!-- ExpBinary0&#45;&gt;ExpMem1 -->
<g id="edge3" class="edge"><title>ExpBinary0&#45;&gt;ExpMem1</title>
<path fill="none" stroke="black" d="M387.313,-289.465C373.782,-279.7 356.145,-266.972 341.323,-256.276"/>
<polygon fill="black" stroke="black" points="343.131,-253.265 332.974,-250.251 339.035,-258.941 343.131,-253.265"/>
</g>
<!-- Plus1 -->
<g id="node6" class="node"><title>Plus1</title>
<ellipse fill="none" stroke="black" cx="408.84" cy="-234" rx="30.5947" ry="18"/>
<text text-anchor="middle" x="408.84" y="-230.3" font-family="Times,serif" font-size="14.00">Plus1</text>
</g>
<!-- ExpBinary0&#45;&gt;Plus1 -->
<g id="edge4" class="edge"><title>ExpBinary0&#45;&gt;Plus1</title>
<path fill="none" stroke="black" d="M408.84,-287.697C408.84,-279.983 408.84,-270.712 408.84,-262.112"/>
<polygon fill="black" stroke="black" points="412.34,-262.104 408.84,-252.104 405.34,-262.104 412.34,-262.104"/>
</g>
<!-- ExpCall1 -->
<g id="node7" class="node"><title>ExpCall1</title>
<ellipse fill="none" stroke="black" cx="501.84" cy="-234" rx="44.393" ry="18"/>
<text text-anchor="middle" x="501.84" y="-230.3" font-family="Times,serif" font-size="14.00">ExpCall1</text>
</g>
<!-- ExpBinary0&#45;&gt;ExpCall1 -->
<g id="edge5" class="edge"><title>ExpBinary0&#45;&gt;ExpCall1</title>
<path fill="none" stroke="black" d="M429.943,-289.116C442.814,-279.429 459.429,-266.923 473.443,-256.374"/>
<polygon fill="black" stroke="black" points="475.892,-258.912 481.777,-250.101 471.682,-253.319 475.892,-258.912"/>
</g>
<!-- ExpBinary1 -->
<g id="node15" class="node"><title>ExpBinary1</title>
<ellipse fill="none" stroke="black" cx="311.84" cy="-162" rx="53.0913" ry="18"/>
<text text-anchor="middle" x="311.84" y="-158.3" font-family="Times,serif" font-size="14.00">ExpBinary1</text>
</g>
<!-- ExpMem1&#45;&gt;ExpBinary1 -->
<g id="edge17" class="edge"><title>ExpMem1&#45;&gt;ExpBinary1</title>
<path fill="none" stroke="black" d="M311.84,-215.697C311.84,-207.983 311.84,-198.712 311.84,-190.112"/>
<polygon fill="black" stroke="black" points="315.34,-190.104 311.84,-180.104 308.34,-190.104 315.34,-190.104"/>
</g>
<!-- Value1: 8 -->
<g id="node8" class="node"><title>Value1: 8</title>
<ellipse fill="none" stroke="black" cx="501.84" cy="-162" rx="45.4919" ry="18"/>
<text text-anchor="middle" x="501.84" y="-158.3" font-family="Times,serif" font-size="14.00">Value1: 8</text>
</g>
<!-- ExpCall1&#45;&gt;Value1: 8 -->
<g id="edge6" class="edge"><title>ExpCall1&#45;&gt;Value1: 8</title>
<path fill="none" stroke="black" d="M501.84,-215.697C501.84,-207.983 501.84,-198.712 501.84,-190.112"/>
<polygon fill="black" stroke="black" points="505.34,-190.104 501.84,-180.104 498.34,-190.104 505.34,-190.104"/>
</g>
<!-- StatSeq0 -->
<g id="node10" class="node"><title>StatSeq0</title>
<ellipse fill="none" stroke="black" cx="213.84" cy="-522" rx="42.4939" ry="18"/>
<text text-anchor="middle" x="213.84" y="-518.3" font-family="Times,serif" font-size="14.00">StatSeq0</text>
</g>
<!-- StatSeq0&#45;&gt;StatMove0 -->
<g id="edge9" class="edge"><title>StatSeq0&#45;&gt;StatMove0</title>
<path fill="none" stroke="black" d="M230.632,-505.116C240.309,-495.962 252.645,-484.293 263.383,-474.135"/>
<polygon fill="black" stroke="black" points="265.999,-476.478 270.859,-467.064 261.189,-471.393 265.999,-476.478"/>
</g>
<!-- StatLabel0 -->
<g id="node11" class="node"><title>StatLabel0</title>
<ellipse fill="none" stroke="black" cx="140.84" cy="-450" rx="48.9926" ry="18"/>
<text text-anchor="middle" x="140.84" y="-446.3" font-family="Times,serif" font-size="14.00">StatLabel0</text>
</g>
<!-- StatSeq0&#45;&gt;StatLabel0 -->
<g id="edge8" class="edge"><title>StatSeq0&#45;&gt;StatLabel0</title>
<path fill="none" stroke="black" d="M197.275,-505.116C187.73,-495.962 175.56,-484.293 164.967,-474.135"/>
<polygon fill="black" stroke="black" points="167.233,-471.459 157.592,-467.064 162.388,-476.511 167.233,-471.459"/>
</g>
<!-- Label0: Element::GetSalary -->
<g id="node12" class="node"><title>Label0: Element::GetSalary</title>
<ellipse fill="none" stroke="black" cx="109.84" cy="-378" rx="109.681" ry="18"/>
<text text-anchor="middle" x="109.84" y="-374.3" font-family="Times,serif" font-size="14.00">Label0: Element::GetSalary</text>
</g>
<!-- StatLabel0&#45;&gt;Label0: Element::GetSalary -->
<g id="edge10" class="edge"><title>StatLabel0&#45;&gt;Label0: Element::GetSalary</title>
<path fill="none" stroke="black" d="M133.336,-432.055C129.809,-424.091 125.522,-414.411 121.58,-405.51"/>
<polygon fill="black" stroke="black" points="124.74,-404.002 117.491,-396.275 118.34,-406.836 124.74,-404.002"/>
</g>
<!-- ExpTemp1 -->
<g id="node13" class="node"><title>ExpTemp1</title>
<ellipse fill="none" stroke="black" cx="212.84" cy="-90" rx="50.0912" ry="18"/>
<text text-anchor="middle" x="212.84" y="-86.3" font-family="Times,serif" font-size="14.00">ExpTemp1</text>
</g>
<!-- Temp1: T6 -->
<g id="node14" class="node"><title>Temp1: T6</title>
<ellipse fill="none" stroke="black" cx="212.84" cy="-18" rx="50.8918" ry="18"/>
<text text-anchor="middle" x="212.84" y="-14.3" font-family="Times,serif" font-size="14.00">Temp1: T6</text>
</g>
<!-- ExpTemp1&#45;&gt;Temp1: T6 -->
<g id="edge11" class="edge"><title>ExpTemp1&#45;&gt;Temp1: T6</title>
<path fill="none" stroke="black" d="M212.84,-71.6966C212.84,-63.9827 212.84,-54.7125 212.84,-46.1124"/>
<polygon fill="black" stroke="black" points="216.34,-46.1043 212.84,-36.1043 209.34,-46.1044 216.34,-46.1043"/>
</g>
<!-- ExpBinary1&#45;&gt;ExpTemp1 -->
<g id="edge13" class="edge"><title>ExpBinary1&#45;&gt;ExpTemp1</title>
<path fill="none" stroke="black" d="M289.869,-145.465C276.059,-135.7 258.058,-122.972 242.931,-112.276"/>
<polygon fill="black" stroke="black" points="244.595,-109.167 234.41,-106.251 240.554,-114.882 244.595,-109.167"/>
</g>
<!-- Plus0 -->
<g id="node16" class="node"><title>Plus0</title>
<ellipse fill="none" stroke="black" cx="311.84" cy="-90" rx="30.5947" ry="18"/>
<text text-anchor="middle" x="311.84" y="-86.3" font-family="Times,serif" font-size="14.00">Plus0</text>
</g>
<!-- ExpBinary1&#45;&gt;Plus0 -->
<g id="edge14" class="edge"><title>ExpBinary1&#45;&gt;Plus0</title>
<path fill="none" stroke="black" d="M311.84,-143.697C311.84,-135.983 311.84,-126.712 311.84,-118.112"/>
<polygon fill="black" stroke="black" points="315.34,-118.104 311.84,-108.104 308.34,-118.104 315.34,-118.104"/>
</g>
<!-- ExpCall0 -->
<g id="node17" class="node"><title>ExpCall0</title>
<ellipse fill="none" stroke="black" cx="404.84" cy="-90" rx="44.393" ry="18"/>
<text text-anchor="middle" x="404.84" y="-86.3" font-family="Times,serif" font-size="14.00">ExpCall0</text>
</g>
<!-- ExpBinary1&#45;&gt;ExpCall0 -->
<g id="edge15" class="edge"><title>ExpBinary1&#45;&gt;ExpCall0</title>
<path fill="none" stroke="black" d="M332.943,-145.116C345.814,-135.429 362.429,-122.923 376.443,-112.374"/>
<polygon fill="black" stroke="black" points="378.892,-114.912 384.777,-106.101 374.682,-109.319 378.892,-114.912"/>
</g>
<!-- Value0: 0 -->
<g id="node18" class="node"><title>Value0: 0</title>
<ellipse fill="none" stroke="black" cx="404.84" cy="-18" rx="45.4919" ry="18"/>
<text text-anchor="middle" x="404.84" y="-14.3" font-family="Times,serif" font-size="14.00">Value0: 0</text>
</g>
<!-- ExpCall0&#45;&gt;Value0: 0 -->
<g id="edge16" class="edge"><title>ExpCall0&#45;&gt;Value0: 0</title>
<path fill="none" stroke="black" d="M404.84,-71.6966C404.84,-63.9827 404.84,-54.7125 404.84,-46.1124"/>
<polygon fill="black" stroke="black" points="408.34,-46.1043 404.84,-36.1043 401.34,-46.1044 408.34,-46.1043"/>
</g>
</g>
</svg>
