<?xml version="1.0" encoding="UTF-8" standalone="no"?>
<!DOCTYPE svg PUBLIC "-//W3C//DTD SVG 1.1//EN"
 "http://www.w3.org/Graphics/SVG/1.1/DTD/svg11.dtd">
<!-- Generated by graphviz version 2.38.0 (20140413.2041)
 -->
<!-- Title: %3 Pages: 1 -->
<svg width="517pt" height="548pt"
 viewBox="0.00 0.00 516.64 548.00" xmlns="http://www.w3.org/2000/svg" xmlns:xlink="http://www.w3.org/1999/xlink">
<g id="graph0" class="graph" transform="scale(1 1) rotate(0) translate(4 544)">
<title>%3</title>
<polygon fill="white" stroke="none" points="-4,4 -4,-544 512.638,-544 512.638,4 -4,4"/>
<!-- StatMove0 -->
<g id="node1" class="node"><title>StatMove0</title>
<ellipse fill="none" stroke="black" cx="238.142" cy="-450" rx="50.0912" ry="18"/>
<text text-anchor="middle" x="238.142" y="-446.3" font-family="Times,serif" font-size="14.00">StatMove0</text>
</g>
<!-- ExpTemp0 -->
<g id="node2" class="node"><title>ExpTemp0</title>
<ellipse fill="none" stroke="black" cx="238.142" cy="-378" rx="50.0912" ry="18"/>
<text text-anchor="middle" x="238.142" y="-374.3" font-family="Times,serif" font-size="14.00">ExpTemp0</text>
</g>
<!-- StatMove0&#45;&gt;ExpTemp0 -->
<g id="edge1" class="edge"><title>StatMove0&#45;&gt;ExpTemp0</title>
<path fill="none" stroke="black" d="M238.142,-431.697C238.142,-423.983 238.142,-414.712 238.142,-406.112"/>
<polygon fill="black" stroke="black" points="241.643,-406.104 238.142,-396.104 234.643,-406.104 241.643,-406.104"/>
</g>
<!-- ExpMem0 -->
<g id="node3" class="node"><title>ExpMem0</title>
<ellipse fill="none" stroke="black" cx="365.142" cy="-378" rx="48.9926" ry="18"/>
<text text-anchor="middle" x="365.142" y="-374.3" font-family="Times,serif" font-size="14.00">ExpMem0</text>
</g>
<!-- StatMove0&#45;&gt;ExpMem0 -->
<g id="edge2" class="edge"><title>StatMove0&#45;&gt;ExpMem0</title>
<path fill="none" stroke="black" d="M264.457,-434.496C283.444,-424.031 309.278,-409.791 330.025,-398.356"/>
<polygon fill="black" stroke="black" points="331.793,-401.378 338.862,-393.485 328.414,-395.247 331.793,-401.378"/>
</g>
<!-- Temp0: RetVal -->
<g id="node9" class="node"><title>Temp0: RetVal</title>
<ellipse fill="none" stroke="black" cx="233.142" cy="-306" rx="65.7887" ry="18"/>
<text text-anchor="middle" x="233.142" y="-302.3" font-family="Times,serif" font-size="14.00">Temp0: RetVal</text>
</g>
<!-- ExpTemp0&#45;&gt;Temp0: RetVal -->
<g id="edge7" class="edge"><title>ExpTemp0&#45;&gt;Temp0: RetVal</title>
<path fill="none" stroke="black" d="M236.906,-359.697C236.355,-351.983 235.693,-342.712 235.079,-334.112"/>
<polygon fill="black" stroke="black" points="238.568,-333.83 234.364,-324.104 231.586,-334.328 238.568,-333.83"/>
</g>
<!-- ExpBinary0 -->
<g id="node4" class="node"><title>ExpBinary0</title>
<ellipse fill="none" stroke="black" cx="370.142" cy="-306" rx="53.0913" ry="18"/>
<text text-anchor="middle" x="370.142" y="-302.3" font-family="Times,serif" font-size="14.00">ExpBinary0</text>
</g>
<!-- ExpMem0&#45;&gt;ExpBinary0 -->
<g id="edge12" class="edge"><title>ExpMem0&#45;&gt;ExpBinary0</title>
<path fill="none" stroke="black" d="M366.378,-359.697C366.929,-351.983 367.592,-342.712 368.206,-334.112"/>
<polygon fill="black" stroke="black" points="371.699,-334.328 368.921,-324.104 364.717,-333.83 371.699,-334.328"/>
</g>
<!-- ExpMem1 -->
<g id="node5" class="node"><title>ExpMem1</title>
<ellipse fill="none" stroke="black" cx="273.142" cy="-234" rx="48.9926" ry="18"/>
<text text-anchor="middle" x="273.142" y="-230.3" font-family="Times,serif" font-size="14.00">ExpMem1</text>
</g>
<!-- ExpBinary0&#45;&gt;ExpMem1 -->
<g id="edge3" class="edge"><title>ExpBinary0&#45;&gt;ExpMem1</title>
<path fill="none" stroke="black" d="M348.615,-289.465C335.084,-279.7 317.447,-266.972 302.625,-256.276"/>
<polygon fill="black" stroke="black" points="304.433,-253.265 294.276,-250.251 300.337,-258.941 304.433,-253.265"/>
</g>
<!-- Plus1 -->
<g id="node6" class="node"><title>Plus1</title>
<ellipse fill="none" stroke="black" cx="370.142" cy="-234" rx="30.5947" ry="18"/>
<text text-anchor="middle" x="370.142" y="-230.3" font-family="Times,serif" font-size="14.00">Plus1</text>
</g>
<!-- ExpBinary0&#45;&gt;Plus1 -->
<g id="edge4" class="edge"><title>ExpBinary0&#45;&gt;Plus1</title>
<path fill="none" stroke="black" d="M370.142,-287.697C370.142,-279.983 370.142,-270.712 370.142,-262.112"/>
<polygon fill="black" stroke="black" points="373.643,-262.104 370.142,-252.104 366.643,-262.104 373.643,-262.104"/>
</g>
<!-- ExpCall1 -->
<g id="node7" class="node"><title>ExpCall1</title>
<ellipse fill="none" stroke="black" cx="463.142" cy="-234" rx="44.393" ry="18"/>
<text text-anchor="middle" x="463.142" y="-230.3" font-family="Times,serif" font-size="14.00">ExpCall1</text>
</g>
<!-- ExpBinary0&#45;&gt;ExpCall1 -->
<g id="edge5" class="edge"><title>ExpBinary0&#45;&gt;ExpCall1</title>
<path fill="none" stroke="black" d="M391.246,-289.116C404.116,-279.429 420.731,-266.923 434.746,-256.374"/>
<polygon fill="black" stroke="black" points="437.194,-258.912 443.079,-250.101 432.985,-253.319 437.194,-258.912"/>
</g>
<!-- ExpBinary1 -->
<g id="node15" class="node"><title>ExpBinary1</title>
<ellipse fill="none" stroke="black" cx="273.142" cy="-162" rx="53.0913" ry="18"/>
<text text-anchor="middle" x="273.142" y="-158.3" font-family="Times,serif" font-size="14.00">ExpBinary1</text>
</g>
<!-- ExpMem1&#45;&gt;ExpBinary1 -->
<g id="edge17" class="edge"><title>ExpMem1&#45;&gt;ExpBinary1</title>
<path fill="none" stroke="black" d="M273.142,-215.697C273.142,-207.983 273.142,-198.712 273.142,-190.112"/>
<polygon fill="black" stroke="black" points="276.643,-190.104 273.142,-180.104 269.643,-190.104 276.643,-190.104"/>
</g>
<!-- Value1: 4 -->
<g id="node8" class="node"><title>Value1: 4</title>
<ellipse fill="none" stroke="black" cx="463.142" cy="-162" rx="45.4919" ry="18"/>
<text text-anchor="middle" x="463.142" y="-158.3" font-family="Times,serif" font-size="14.00">Value1: 4</text>
</g>
<!-- ExpCall1&#45;&gt;Value1: 4 -->
<g id="edge6" class="edge"><title>ExpCall1&#45;&gt;Value1: 4</title>
<path fill="none" stroke="black" d="M463.142,-215.697C463.142,-207.983 463.142,-198.712 463.142,-190.112"/>
<polygon fill="black" stroke="black" points="466.643,-190.104 463.142,-180.104 459.643,-190.104 466.643,-190.104"/>
</g>
<!-- StatSeq0 -->
<g id="node10" class="node"><title>StatSeq0</title>
<ellipse fill="none" stroke="black" cx="170.142" cy="-522" rx="42.4939" ry="18"/>
<text text-anchor="middle" x="170.142" y="-518.3" font-family="Times,serif" font-size="14.00">StatSeq0</text>
</g>
<!-- StatSeq0&#45;&gt;StatMove0 -->
<g id="edge9" class="edge"><title>StatSeq0&#45;&gt;StatMove0</title>
<path fill="none" stroke="black" d="M185.573,-505.116C194.316,-496.116 205.422,-484.682 215.172,-474.646"/>
<polygon fill="black" stroke="black" points="217.844,-476.919 222.301,-467.307 212.823,-472.041 217.844,-476.919"/>
</g>
<!-- StatLabel0 -->
<g id="node11" class="node"><title>StatLabel0</title>
<ellipse fill="none" stroke="black" cx="103.142" cy="-450" rx="48.9926" ry="18"/>
<text text-anchor="middle" x="103.142" y="-446.3" font-family="Times,serif" font-size="14.00">StatLabel0</text>
</g>
<!-- StatSeq0&#45;&gt;StatLabel0 -->
<g id="edge8" class="edge"><title>StatSeq0&#45;&gt;StatLabel0</title>
<path fill="none" stroke="black" d="M154.939,-505.116C146.324,-496.116 135.381,-484.682 125.775,-474.646"/>
<polygon fill="black" stroke="black" points="128.194,-472.111 118.751,-467.307 123.137,-476.951 128.194,-472.111"/>
</g>
<!-- Label0: List::GetEnd -->
<g id="node12" class="node"><title>Label0: List::GetEnd</title>
<ellipse fill="none" stroke="black" cx="85.1424" cy="-378" rx="85.2851" ry="18"/>
<text text-anchor="middle" x="85.1424" y="-374.3" font-family="Times,serif" font-size="14.00">Label0: List::GetEnd</text>
</g>
<!-- StatLabel0&#45;&gt;Label0: List::GetEnd -->
<g id="edge10" class="edge"><title>StatLabel0&#45;&gt;Label0: List::GetEnd</title>
<path fill="none" stroke="black" d="M98.7851,-432.055C96.781,-424.261 94.3538,-414.822 92.1056,-406.079"/>
<polygon fill="black" stroke="black" points="95.4649,-405.089 89.5847,-396.275 88.6854,-406.832 95.4649,-405.089"/>
</g>
<!-- ExpTemp1 -->
<g id="node13" class="node"><title>ExpTemp1</title>
<ellipse fill="none" stroke="black" cx="174.142" cy="-90" rx="50.0912" ry="18"/>
<text text-anchor="middle" x="174.142" y="-86.3" font-family="Times,serif" font-size="14.00">ExpTemp1</text>
</g>
<!-- Temp1: FP -->
<g id="node14" class="node"><title>Temp1: FP</title>
<ellipse fill="none" stroke="black" cx="174.142" cy="-18" rx="50.8918" ry="18"/>
<text text-anchor="middle" x="174.142" y="-14.3" font-family="Times,serif" font-size="14.00">Temp1: FP</text>
</g>
<!-- ExpTemp1&#45;&gt;Temp1: FP -->
<g id="edge11" class="edge"><title>ExpTemp1&#45;&gt;Temp1: FP</title>
<path fill="none" stroke="black" d="M174.142,-71.6966C174.142,-63.9827 174.142,-54.7125 174.142,-46.1124"/>
<polygon fill="black" stroke="black" points="177.643,-46.1043 174.142,-36.1043 170.643,-46.1044 177.643,-46.1043"/>
</g>
<!-- ExpBinary1&#45;&gt;ExpTemp1 -->
<g id="edge13" class="edge"><title>ExpBinary1&#45;&gt;ExpTemp1</title>
<path fill="none" stroke="black" d="M251.171,-145.465C237.362,-135.7 219.36,-122.972 204.233,-112.276"/>
<polygon fill="black" stroke="black" points="205.898,-109.167 195.712,-106.251 201.856,-114.882 205.898,-109.167"/>
</g>
<!-- Plus0 -->
<g id="node16" class="node"><title>Plus0</title>
<ellipse fill="none" stroke="black" cx="273.142" cy="-90" rx="30.5947" ry="18"/>
<text text-anchor="middle" x="273.142" y="-86.3" font-family="Times,serif" font-size="14.00">Plus0</text>
</g>
<!-- ExpBinary1&#45;&gt;Plus0 -->
<g id="edge14" class="edge"><title>ExpBinary1&#45;&gt;Plus0</title>
<path fill="none" stroke="black" d="M273.142,-143.697C273.142,-135.983 273.142,-126.712 273.142,-118.112"/>
<polygon fill="black" stroke="black" points="276.643,-118.104 273.142,-108.104 269.643,-118.104 276.643,-118.104"/>
</g>
<!-- ExpCall0 -->
<g id="node17" class="node"><title>ExpCall0</title>
<ellipse fill="none" stroke="black" cx="366.142" cy="-90" rx="44.393" ry="18"/>
<text text-anchor="middle" x="366.142" y="-86.3" font-family="Times,serif" font-size="14.00">ExpCall0</text>
</g>
<!-- ExpBinary1&#45;&gt;ExpCall0 -->
<g id="edge15" class="edge"><title>ExpBinary1&#45;&gt;ExpCall0</title>
<path fill="none" stroke="black" d="M294.246,-145.116C307.116,-135.429 323.731,-122.923 337.746,-112.374"/>
<polygon fill="black" stroke="black" points="340.194,-114.912 346.079,-106.101 335.985,-109.319 340.194,-114.912"/>
</g>
<!-- Value0: 0 -->
<g id="node18" class="node"><title>Value0: 0</title>
<ellipse fill="none" stroke="black" cx="366.142" cy="-18" rx="45.4919" ry="18"/>
<text text-anchor="middle" x="366.142" y="-14.3" font-family="Times,serif" font-size="14.00">Value0: 0</text>
</g>
<!-- ExpCall0&#45;&gt;Value0: 0 -->
<g id="edge16" class="edge"><title>ExpCall0&#45;&gt;Value0: 0</title>
<path fill="none" stroke="black" d="M366.142,-71.6966C366.142,-63.9827 366.142,-54.7125 366.142,-46.1124"/>
<polygon fill="black" stroke="black" points="369.643,-46.1043 366.142,-36.1043 362.643,-46.1044 369.643,-46.1043"/>
</g>
</g>
</svg>
