<?xml version="1.0" encoding="UTF-8" standalone="no"?>
<!DOCTYPE svg PUBLIC "-//W3C//DTD SVG 1.1//EN"
 "http://www.w3.org/Graphics/SVG/1.1/DTD/svg11.dtd">
<!-- Generated by graphviz version 2.38.0 (20140413.2041)
 -->
<!-- Title: %3 Pages: 1 -->
<svg width="808pt" height="620pt"
 viewBox="0.00 0.00 807.74 620.00" xmlns="http://www.w3.org/2000/svg" xmlns:xlink="http://www.w3.org/1999/xlink">
<g id="graph0" class="graph" transform="scale(1 1) rotate(0) translate(4 616)">
<title>%3</title>
<polygon fill="white" stroke="none" points="-4,4 -4,-616 803.741,-616 803.741,4 -4,4"/>
<!-- StatMove1 -->
<g id="node1" class="node"><title>StatMove1</title>
<ellipse fill="none" stroke="black" cx="635.245" cy="-450" rx="50.0912" ry="18"/>
<text text-anchor="middle" x="635.245" y="-446.3" font-family="Times,serif" font-size="14.00">StatMove1</text>
</g>
<!-- ExpTemp2 -->
<g id="node2" class="node"><title>ExpTemp2</title>
<ellipse fill="none" stroke="black" cx="635.245" cy="-378" rx="50.0912" ry="18"/>
<text text-anchor="middle" x="635.245" y="-374.3" font-family="Times,serif" font-size="14.00">ExpTemp2</text>
</g>
<!-- StatMove1&#45;&gt;ExpTemp2 -->
<g id="edge1" class="edge"><title>StatMove1&#45;&gt;ExpTemp2</title>
<path fill="none" stroke="black" d="M635.245,-431.697C635.245,-423.983 635.245,-414.712 635.245,-406.112"/>
<polygon fill="black" stroke="black" points="638.745,-406.104 635.245,-396.104 631.745,-406.104 638.745,-406.104"/>
</g>
<!-- ExpCall3 -->
<g id="node3" class="node"><title>ExpCall3</title>
<ellipse fill="none" stroke="black" cx="750.245" cy="-378" rx="44.393" ry="18"/>
<text text-anchor="middle" x="750.245" y="-374.3" font-family="Times,serif" font-size="14.00">ExpCall3</text>
</g>
<!-- StatMove1&#45;&gt;ExpCall3 -->
<g id="edge2" class="edge"><title>StatMove1&#45;&gt;ExpCall3</title>
<path fill="none" stroke="black" d="M659.634,-434.155C676.632,-423.808 699.486,-409.897 717.989,-398.634"/>
<polygon fill="black" stroke="black" points="719.956,-401.534 726.678,-393.345 716.316,-395.555 719.956,-401.534"/>
</g>
<!-- Temp2: T21 -->
<g id="node4" class="node"><title>Temp2: T21</title>
<ellipse fill="none" stroke="black" cx="635.245" cy="-306" rx="55.4913" ry="18"/>
<text text-anchor="middle" x="635.245" y="-302.3" font-family="Times,serif" font-size="14.00">Temp2: T21</text>
</g>
<!-- ExpTemp2&#45;&gt;Temp2: T21 -->
<g id="edge3" class="edge"><title>ExpTemp2&#45;&gt;Temp2: T21</title>
<path fill="none" stroke="black" d="M635.245,-359.697C635.245,-351.983 635.245,-342.712 635.245,-334.112"/>
<polygon fill="black" stroke="black" points="638.745,-334.104 635.245,-324.104 631.745,-334.104 638.745,-334.104"/>
</g>
<!-- Value3: 1 -->
<g id="node5" class="node"><title>Value3: 1</title>
<ellipse fill="none" stroke="black" cx="754.245" cy="-306" rx="45.4919" ry="18"/>
<text text-anchor="middle" x="754.245" y="-302.3" font-family="Times,serif" font-size="14.00">Value3: 1</text>
</g>
<!-- ExpCall3&#45;&gt;Value3: 1 -->
<g id="edge4" class="edge"><title>ExpCall3&#45;&gt;Value3: 1</title>
<path fill="none" stroke="black" d="M751.234,-359.697C751.675,-351.983 752.204,-342.712 752.696,-334.112"/>
<polygon fill="black" stroke="black" points="756.191,-334.288 753.268,-324.104 749.203,-333.888 756.191,-334.288"/>
</g>
<!-- ExpTemp1 -->
<g id="node6" class="node"><title>ExpTemp1</title>
<ellipse fill="none" stroke="black" cx="459.245" cy="-234" rx="50.0912" ry="18"/>
<text text-anchor="middle" x="459.245" y="-230.3" font-family="Times,serif" font-size="14.00">ExpTemp1</text>
</g>
<!-- Temp1: T20 -->
<g id="node7" class="node"><title>Temp1: T20</title>
<ellipse fill="none" stroke="black" cx="461.245" cy="-162" rx="55.4913" ry="18"/>
<text text-anchor="middle" x="461.245" y="-158.3" font-family="Times,serif" font-size="14.00">Temp1: T20</text>
</g>
<!-- ExpTemp1&#45;&gt;Temp1: T20 -->
<g id="edge5" class="edge"><title>ExpTemp1&#45;&gt;Temp1: T20</title>
<path fill="none" stroke="black" d="M459.739,-215.697C459.96,-207.983 460.225,-198.712 460.47,-190.112"/>
<polygon fill="black" stroke="black" points="463.969,-190.2 460.756,-180.104 456.972,-190 463.969,-190.2"/>
</g>
<!-- ExpMem2 -->
<g id="node8" class="node"><title>ExpMem2</title>
<ellipse fill="none" stroke="black" cx="508.245" cy="-378" rx="48.9926" ry="18"/>
<text text-anchor="middle" x="508.245" y="-374.3" font-family="Times,serif" font-size="14.00">ExpMem2</text>
</g>
<!-- ExpBinary2 -->
<g id="node9" class="node"><title>ExpBinary2</title>
<ellipse fill="none" stroke="black" cx="508.245" cy="-306" rx="53.0913" ry="18"/>
<text text-anchor="middle" x="508.245" y="-302.3" font-family="Times,serif" font-size="14.00">ExpBinary2</text>
</g>
<!-- ExpMem2&#45;&gt;ExpBinary2 -->
<g id="edge6" class="edge"><title>ExpMem2&#45;&gt;ExpBinary2</title>
<path fill="none" stroke="black" d="M508.245,-359.697C508.245,-351.983 508.245,-342.712 508.245,-334.112"/>
<polygon fill="black" stroke="black" points="511.745,-334.104 508.245,-324.104 504.745,-334.104 511.745,-334.104"/>
</g>
<!-- ExpBinary2&#45;&gt;ExpTemp1 -->
<g id="edge13" class="edge"><title>ExpBinary2&#45;&gt;ExpTemp1</title>
<path fill="none" stroke="black" d="M496.633,-288.411C490.739,-279.992 483.455,-269.585 476.886,-260.201"/>
<polygon fill="black" stroke="black" points="479.716,-258.141 471.114,-251.956 473.982,-262.156 479.716,-258.141"/>
</g>
<!-- Plus2 -->
<g id="node17" class="node"><title>Plus2</title>
<ellipse fill="none" stroke="black" cx="558.245" cy="-234" rx="30.5947" ry="18"/>
<text text-anchor="middle" x="558.245" y="-230.3" font-family="Times,serif" font-size="14.00">Plus2</text>
</g>
<!-- ExpBinary2&#45;&gt;Plus2 -->
<g id="edge14" class="edge"><title>ExpBinary2&#45;&gt;Plus2</title>
<path fill="none" stroke="black" d="M520.094,-288.411C526.285,-279.744 533.98,-268.971 540.834,-259.375"/>
<polygon fill="black" stroke="black" points="543.861,-261.16 546.825,-250.988 538.165,-257.091 543.861,-261.16"/>
</g>
<!-- ExpCall2 -->
<g id="node18" class="node"><title>ExpCall2</title>
<ellipse fill="none" stroke="black" cx="651.245" cy="-234" rx="44.393" ry="18"/>
<text text-anchor="middle" x="651.245" y="-230.3" font-family="Times,serif" font-size="14.00">ExpCall2</text>
</g>
<!-- ExpBinary2&#45;&gt;ExpCall2 -->
<g id="edge15" class="edge"><title>ExpBinary2&#45;&gt;ExpCall2</title>
<path fill="none" stroke="black" d="M537.183,-290.834C559.518,-279.901 590.564,-264.704 614.628,-252.924"/>
<polygon fill="black" stroke="black" points="616.363,-255.972 623.805,-248.432 613.285,-249.685 616.363,-255.972"/>
</g>
<!-- ExpTemp0 -->
<g id="node10" class="node"><title>ExpTemp0</title>
<ellipse fill="none" stroke="black" cx="55.2451" cy="-90" rx="50.0912" ry="18"/>
<text text-anchor="middle" x="55.2451" y="-86.3" font-family="Times,serif" font-size="14.00">ExpTemp0</text>
</g>
<!-- Temp0: T20 -->
<g id="node11" class="node"><title>Temp0: T20</title>
<ellipse fill="none" stroke="black" cx="55.2451" cy="-18" rx="55.4913" ry="18"/>
<text text-anchor="middle" x="55.2451" y="-14.3" font-family="Times,serif" font-size="14.00">Temp0: T20</text>
</g>
<!-- ExpTemp0&#45;&gt;Temp0: T20 -->
<g id="edge7" class="edge"><title>ExpTemp0&#45;&gt;Temp0: T20</title>
<path fill="none" stroke="black" d="M55.2451,-71.6966C55.2451,-63.9827 55.2451,-54.7125 55.2451,-46.1124"/>
<polygon fill="black" stroke="black" points="58.7452,-46.1043 55.2451,-36.1043 51.7452,-46.1044 58.7452,-46.1043"/>
</g>
<!-- StatSeq0 -->
<g id="node12" class="node"><title>StatSeq0</title>
<ellipse fill="none" stroke="black" cx="442.245" cy="-594" rx="42.4939" ry="18"/>
<text text-anchor="middle" x="442.245" y="-590.3" font-family="Times,serif" font-size="14.00">StatSeq0</text>
</g>
<!-- StatLabel0 -->
<g id="node13" class="node"><title>StatLabel0</title>
<ellipse fill="none" stroke="black" cx="376.245" cy="-522" rx="48.9926" ry="18"/>
<text text-anchor="middle" x="376.245" y="-518.3" font-family="Times,serif" font-size="14.00">StatLabel0</text>
</g>
<!-- StatSeq0&#45;&gt;StatLabel0 -->
<g id="edge8" class="edge"><title>StatSeq0&#45;&gt;StatLabel0</title>
<path fill="none" stroke="black" d="M427.269,-577.116C418.783,-568.116 408.003,-556.682 398.54,-546.646"/>
<polygon fill="black" stroke="black" points="401.027,-544.182 391.62,-539.307 395.934,-548.984 401.027,-544.182"/>
</g>
<!-- StatSeq1 -->
<g id="node14" class="node"><title>StatSeq1</title>
<ellipse fill="none" stroke="black" cx="508.245" cy="-522" rx="42.4939" ry="18"/>
<text text-anchor="middle" x="508.245" y="-518.3" font-family="Times,serif" font-size="14.00">StatSeq1</text>
</g>
<!-- StatSeq0&#45;&gt;StatSeq1 -->
<g id="edge9" class="edge"><title>StatSeq0&#45;&gt;StatSeq1</title>
<path fill="none" stroke="black" d="M457.222,-577.116C465.708,-568.116 476.487,-556.682 485.95,-546.646"/>
<polygon fill="black" stroke="black" points="488.556,-548.984 492.87,-539.307 483.463,-544.182 488.556,-548.984"/>
</g>
<!-- Label0: List::SetNext -->
<g id="node15" class="node"><title>Label0: List::SetNext</title>
<ellipse fill="none" stroke="black" cx="353.245" cy="-450" rx="87.1846" ry="18"/>
<text text-anchor="middle" x="353.245" y="-446.3" font-family="Times,serif" font-size="14.00">Label0: List::SetNext</text>
</g>
<!-- StatLabel0&#45;&gt;Label0: List::SetNext -->
<g id="edge10" class="edge"><title>StatLabel0&#45;&gt;Label0: List::SetNext</title>
<path fill="none" stroke="black" d="M370.677,-504.055C368.089,-496.176 364.948,-486.617 362.049,-477.794"/>
<polygon fill="black" stroke="black" points="365.368,-476.683 358.921,-468.275 358.718,-478.868 365.368,-476.683"/>
</g>
<!-- StatSeq1&#45;&gt;StatMove1 -->
<g id="edge12" class="edge"><title>StatSeq1&#45;&gt;StatMove1</title>
<path fill="none" stroke="black" d="M533.033,-507.337C552.109,-496.823 578.72,-482.155 600.008,-470.422"/>
<polygon fill="black" stroke="black" points="601.7,-473.486 608.768,-465.594 598.321,-467.356 601.7,-473.486"/>
</g>
<!-- StatMove0 -->
<g id="node16" class="node"><title>StatMove0</title>
<ellipse fill="none" stroke="black" cx="508.245" cy="-450" rx="50.0912" ry="18"/>
<text text-anchor="middle" x="508.245" y="-446.3" font-family="Times,serif" font-size="14.00">StatMove0</text>
</g>
<!-- StatSeq1&#45;&gt;StatMove0 -->
<g id="edge11" class="edge"><title>StatSeq1&#45;&gt;StatMove0</title>
<path fill="none" stroke="black" d="M508.245,-503.697C508.245,-495.983 508.245,-486.712 508.245,-478.112"/>
<polygon fill="black" stroke="black" points="511.745,-478.104 508.245,-468.104 504.745,-478.104 511.745,-478.104"/>
</g>
<!-- StatMove0&#45;&gt;ExpMem2 -->
<g id="edge28" class="edge"><title>StatMove0&#45;&gt;ExpMem2</title>
<path fill="none" stroke="black" d="M508.245,-431.697C508.245,-423.983 508.245,-414.712 508.245,-406.112"/>
<polygon fill="black" stroke="black" points="511.745,-406.104 508.245,-396.104 504.745,-406.104 511.745,-406.104"/>
</g>
<!-- ExpMem0 -->
<g id="node24" class="node"><title>ExpMem0</title>
<ellipse fill="none" stroke="black" cx="342.245" cy="-378" rx="48.9926" ry="18"/>
<text text-anchor="middle" x="342.245" y="-374.3" font-family="Times,serif" font-size="14.00">ExpMem0</text>
</g>
<!-- StatMove0&#45;&gt;ExpMem0 -->
<g id="edge27" class="edge"><title>StatMove0&#45;&gt;ExpMem0</title>
<path fill="none" stroke="black" d="M477.022,-435.834C450.273,-424.554 411.58,-408.238 382.507,-395.978"/>
<polygon fill="black" stroke="black" points="383.622,-392.65 373.048,-391.989 380.902,-399.1 383.622,-392.65"/>
</g>
<!-- Value2: 4 -->
<g id="node29" class="node"><title>Value2: 4</title>
<ellipse fill="none" stroke="black" cx="651.245" cy="-162" rx="45.4919" ry="18"/>
<text text-anchor="middle" x="651.245" y="-158.3" font-family="Times,serif" font-size="14.00">Value2: 4</text>
</g>
<!-- ExpCall2&#45;&gt;Value2: 4 -->
<g id="edge26" class="edge"><title>ExpCall2&#45;&gt;Value2: 4</title>
<path fill="none" stroke="black" d="M651.245,-215.697C651.245,-207.983 651.245,-198.712 651.245,-190.112"/>
<polygon fill="black" stroke="black" points="654.745,-190.104 651.245,-180.104 647.745,-190.104 654.745,-190.104"/>
</g>
<!-- ExpCall0 -->
<g id="node19" class="node"><title>ExpCall0</title>
<ellipse fill="none" stroke="black" cx="247.245" cy="-90" rx="44.393" ry="18"/>
<text text-anchor="middle" x="247.245" y="-86.3" font-family="Times,serif" font-size="14.00">ExpCall0</text>
</g>
<!-- Value0: 0 -->
<g id="node20" class="node"><title>Value0: 0</title>
<ellipse fill="none" stroke="black" cx="247.245" cy="-18" rx="45.4919" ry="18"/>
<text text-anchor="middle" x="247.245" y="-14.3" font-family="Times,serif" font-size="14.00">Value0: 0</text>
</g>
<!-- ExpCall0&#45;&gt;Value0: 0 -->
<g id="edge16" class="edge"><title>ExpCall0&#45;&gt;Value0: 0</title>
<path fill="none" stroke="black" d="M247.245,-71.6966C247.245,-63.9827 247.245,-54.7125 247.245,-46.1124"/>
<polygon fill="black" stroke="black" points="250.745,-46.1043 247.245,-36.1043 243.745,-46.1044 250.745,-46.1043"/>
</g>
<!-- ExpMem1 -->
<g id="node21" class="node"><title>ExpMem1</title>
<ellipse fill="none" stroke="black" cx="154.245" cy="-234" rx="48.9926" ry="18"/>
<text text-anchor="middle" x="154.245" y="-230.3" font-family="Times,serif" font-size="14.00">ExpMem1</text>
</g>
<!-- ExpBinary1 -->
<g id="node22" class="node"><title>ExpBinary1</title>
<ellipse fill="none" stroke="black" cx="154.245" cy="-162" rx="53.0913" ry="18"/>
<text text-anchor="middle" x="154.245" y="-158.3" font-family="Times,serif" font-size="14.00">ExpBinary1</text>
</g>
<!-- ExpMem1&#45;&gt;ExpBinary1 -->
<g id="edge17" class="edge"><title>ExpMem1&#45;&gt;ExpBinary1</title>
<path fill="none" stroke="black" d="M154.245,-215.697C154.245,-207.983 154.245,-198.712 154.245,-190.112"/>
<polygon fill="black" stroke="black" points="157.745,-190.104 154.245,-180.104 150.745,-190.104 157.745,-190.104"/>
</g>
<!-- ExpBinary1&#45;&gt;ExpTemp0 -->
<g id="edge18" class="edge"><title>ExpBinary1&#45;&gt;ExpTemp0</title>
<path fill="none" stroke="black" d="M132.274,-145.465C118.464,-135.7 100.463,-122.972 85.3357,-112.276"/>
<polygon fill="black" stroke="black" points="87.0002,-109.167 76.8144,-106.251 82.9588,-114.882 87.0002,-109.167"/>
</g>
<!-- ExpBinary1&#45;&gt;ExpCall0 -->
<g id="edge20" class="edge"><title>ExpBinary1&#45;&gt;ExpCall0</title>
<path fill="none" stroke="black" d="M175.348,-145.116C188.219,-135.429 204.833,-122.923 218.848,-112.374"/>
<polygon fill="black" stroke="black" points="221.297,-114.912 227.182,-106.101 217.087,-109.319 221.297,-114.912"/>
</g>
<!-- Plus0 -->
<g id="node23" class="node"><title>Plus0</title>
<ellipse fill="none" stroke="black" cx="154.245" cy="-90" rx="30.5947" ry="18"/>
<text text-anchor="middle" x="154.245" y="-86.3" font-family="Times,serif" font-size="14.00">Plus0</text>
</g>
<!-- ExpBinary1&#45;&gt;Plus0 -->
<g id="edge19" class="edge"><title>ExpBinary1&#45;&gt;Plus0</title>
<path fill="none" stroke="black" d="M154.245,-143.697C154.245,-135.983 154.245,-126.712 154.245,-118.112"/>
<polygon fill="black" stroke="black" points="157.745,-118.104 154.245,-108.104 150.745,-118.104 157.745,-118.104"/>
</g>
<!-- ExpBinary0 -->
<g id="node25" class="node"><title>ExpBinary0</title>
<ellipse fill="none" stroke="black" cx="297.245" cy="-306" rx="53.0913" ry="18"/>
<text text-anchor="middle" x="297.245" y="-302.3" font-family="Times,serif" font-size="14.00">ExpBinary0</text>
</g>
<!-- ExpMem0&#45;&gt;ExpBinary0 -->
<g id="edge21" class="edge"><title>ExpMem0&#45;&gt;ExpBinary0</title>
<path fill="none" stroke="black" d="M331.581,-360.411C326.223,-352.077 319.615,-341.797 313.63,-332.488"/>
<polygon fill="black" stroke="black" points="316.497,-330.475 308.146,-323.956 310.609,-334.261 316.497,-330.475"/>
</g>
<!-- ExpBinary0&#45;&gt;ExpMem1 -->
<g id="edge22" class="edge"><title>ExpBinary0&#45;&gt;ExpMem1</title>
<path fill="none" stroke="black" d="M268.307,-290.834C246.26,-280.042 215.725,-265.095 191.797,-253.382"/>
<polygon fill="black" stroke="black" points="193.173,-250.159 182.652,-248.906 190.095,-256.446 193.173,-250.159"/>
</g>
<!-- Plus1 -->
<g id="node26" class="node"><title>Plus1</title>
<ellipse fill="none" stroke="black" cx="251.245" cy="-234" rx="30.5947" ry="18"/>
<text text-anchor="middle" x="251.245" y="-230.3" font-family="Times,serif" font-size="14.00">Plus1</text>
</g>
<!-- ExpBinary0&#45;&gt;Plus1 -->
<g id="edge23" class="edge"><title>ExpBinary0&#45;&gt;Plus1</title>
<path fill="none" stroke="black" d="M286.11,-288.055C280.548,-279.592 273.713,-269.19 267.572,-259.845"/>
<polygon fill="black" stroke="black" points="270.378,-257.742 261.961,-251.307 264.528,-261.586 270.378,-257.742"/>
</g>
<!-- ExpCall1 -->
<g id="node27" class="node"><title>ExpCall1</title>
<ellipse fill="none" stroke="black" cx="344.245" cy="-234" rx="44.393" ry="18"/>
<text text-anchor="middle" x="344.245" y="-230.3" font-family="Times,serif" font-size="14.00">ExpCall1</text>
</g>
<!-- ExpBinary0&#45;&gt;ExpCall1 -->
<g id="edge24" class="edge"><title>ExpBinary0&#45;&gt;ExpCall1</title>
<path fill="none" stroke="black" d="M308.622,-288.055C314.222,-279.715 321.087,-269.491 327.29,-260.252"/>
<polygon fill="black" stroke="black" points="330.304,-262.042 332.972,-251.789 324.492,-258.14 330.304,-262.042"/>
</g>
<!-- Value1: 8 -->
<g id="node28" class="node"><title>Value1: 8</title>
<ellipse fill="none" stroke="black" cx="342.245" cy="-162" rx="45.4919" ry="18"/>
<text text-anchor="middle" x="342.245" y="-158.3" font-family="Times,serif" font-size="14.00">Value1: 8</text>
</g>
<!-- ExpCall1&#45;&gt;Value1: 8 -->
<g id="edge25" class="edge"><title>ExpCall1&#45;&gt;Value1: 8</title>
<path fill="none" stroke="black" d="M343.751,-215.697C343.53,-207.983 343.265,-198.712 343.02,-190.112"/>
<polygon fill="black" stroke="black" points="346.518,-190 342.734,-180.104 339.521,-190.2 346.518,-190"/>
</g>
</g>
</svg>
