<?xml version="1.0" encoding="UTF-8" standalone="no"?>
<!DOCTYPE svg PUBLIC "-//W3C//DTD SVG 1.1//EN"
 "http://www.w3.org/Graphics/SVG/1.1/DTD/svg11.dtd">
<!-- Generated by graphviz version 2.38.0 (20140413.2041)
 -->
<!-- Title: %3 Pages: 1 -->
<svg width="563pt" height="476pt"
 viewBox="0.00 0.00 562.74 476.00" xmlns="http://www.w3.org/2000/svg" xmlns:xlink="http://www.w3.org/1999/xlink">
<g id="graph0" class="graph" transform="scale(1 1) rotate(0) translate(4 472)">
<title>%3</title>
<polygon fill="white" stroke="none" points="-4,4 -4,-472 558.741,-472 558.741,4 -4,4"/>
<!-- StatMove1 -->
<g id="node1" class="node"><title>StatMove1</title>
<ellipse fill="none" stroke="black" cx="390.245" cy="-306" rx="50.0912" ry="18"/>
<text text-anchor="middle" x="390.245" y="-302.3" font-family="Times,serif" font-size="14.00">StatMove1</text>
</g>
<!-- ExpTemp1 -->
<g id="node2" class="node"><title>ExpTemp1</title>
<ellipse fill="none" stroke="black" cx="390.245" cy="-234" rx="50.0912" ry="18"/>
<text text-anchor="middle" x="390.245" y="-230.3" font-family="Times,serif" font-size="14.00">ExpTemp1</text>
</g>
<!-- StatMove1&#45;&gt;ExpTemp1 -->
<g id="edge1" class="edge"><title>StatMove1&#45;&gt;ExpTemp1</title>
<path fill="none" stroke="black" d="M390.245,-287.697C390.245,-279.983 390.245,-270.712 390.245,-262.112"/>
<polygon fill="black" stroke="black" points="393.745,-262.104 390.245,-252.104 386.745,-262.104 393.745,-262.104"/>
</g>
<!-- ExpCall2 -->
<g id="node3" class="node"><title>ExpCall2</title>
<ellipse fill="none" stroke="black" cx="505.245" cy="-234" rx="44.393" ry="18"/>
<text text-anchor="middle" x="505.245" y="-230.3" font-family="Times,serif" font-size="14.00">ExpCall2</text>
</g>
<!-- StatMove1&#45;&gt;ExpCall2 -->
<g id="edge2" class="edge"><title>StatMove1&#45;&gt;ExpCall2</title>
<path fill="none" stroke="black" d="M414.634,-290.155C431.632,-279.808 454.486,-265.897 472.989,-254.634"/>
<polygon fill="black" stroke="black" points="474.956,-257.534 481.678,-249.345 471.316,-251.555 474.956,-257.534"/>
</g>
<!-- Temp1: T15 -->
<g id="node19" class="node"><title>Temp1: T15</title>
<ellipse fill="none" stroke="black" cx="390.245" cy="-162" rx="55.4913" ry="18"/>
<text text-anchor="middle" x="390.245" y="-158.3" font-family="Times,serif" font-size="14.00">Temp1: T15</text>
</g>
<!-- ExpTemp1&#45;&gt;Temp1: T15 -->
<g id="edge18" class="edge"><title>ExpTemp1&#45;&gt;Temp1: T15</title>
<path fill="none" stroke="black" d="M390.245,-215.697C390.245,-207.983 390.245,-198.712 390.245,-190.112"/>
<polygon fill="black" stroke="black" points="393.745,-190.104 390.245,-180.104 386.745,-190.104 393.745,-190.104"/>
</g>
<!-- Value2: 1 -->
<g id="node8" class="node"><title>Value2: 1</title>
<ellipse fill="none" stroke="black" cx="509.245" cy="-162" rx="45.4919" ry="18"/>
<text text-anchor="middle" x="509.245" y="-158.3" font-family="Times,serif" font-size="14.00">Value2: 1</text>
</g>
<!-- ExpCall2&#45;&gt;Value2: 1 -->
<g id="edge6" class="edge"><title>ExpCall2&#45;&gt;Value2: 1</title>
<path fill="none" stroke="black" d="M506.234,-215.697C506.675,-207.983 507.204,-198.712 507.696,-190.112"/>
<polygon fill="black" stroke="black" points="511.191,-190.288 508.268,-180.104 504.203,-189.888 511.191,-190.288"/>
</g>
<!-- ExpBinary0 -->
<g id="node4" class="node"><title>ExpBinary0</title>
<ellipse fill="none" stroke="black" cx="154.245" cy="-162" rx="53.0913" ry="18"/>
<text text-anchor="middle" x="154.245" y="-158.3" font-family="Times,serif" font-size="14.00">ExpBinary0</text>
</g>
<!-- ExpTemp0 -->
<g id="node5" class="node"><title>ExpTemp0</title>
<ellipse fill="none" stroke="black" cx="55.2451" cy="-90" rx="50.0912" ry="18"/>
<text text-anchor="middle" x="55.2451" y="-86.3" font-family="Times,serif" font-size="14.00">ExpTemp0</text>
</g>
<!-- ExpBinary0&#45;&gt;ExpTemp0 -->
<g id="edge3" class="edge"><title>ExpBinary0&#45;&gt;ExpTemp0</title>
<path fill="none" stroke="black" d="M132.274,-145.465C118.464,-135.7 100.463,-122.972 85.3357,-112.276"/>
<polygon fill="black" stroke="black" points="87.0002,-109.167 76.8144,-106.251 82.9588,-114.882 87.0002,-109.167"/>
</g>
<!-- Plus0 -->
<g id="node6" class="node"><title>Plus0</title>
<ellipse fill="none" stroke="black" cx="154.245" cy="-90" rx="30.5947" ry="18"/>
<text text-anchor="middle" x="154.245" y="-86.3" font-family="Times,serif" font-size="14.00">Plus0</text>
</g>
<!-- ExpBinary0&#45;&gt;Plus0 -->
<g id="edge4" class="edge"><title>ExpBinary0&#45;&gt;Plus0</title>
<path fill="none" stroke="black" d="M154.245,-143.697C154.245,-135.983 154.245,-126.712 154.245,-118.112"/>
<polygon fill="black" stroke="black" points="157.745,-118.104 154.245,-108.104 150.745,-118.104 157.745,-118.104"/>
</g>
<!-- ExpCall0 -->
<g id="node7" class="node"><title>ExpCall0</title>
<ellipse fill="none" stroke="black" cx="247.245" cy="-90" rx="44.393" ry="18"/>
<text text-anchor="middle" x="247.245" y="-86.3" font-family="Times,serif" font-size="14.00">ExpCall0</text>
</g>
<!-- ExpBinary0&#45;&gt;ExpCall0 -->
<g id="edge5" class="edge"><title>ExpBinary0&#45;&gt;ExpCall0</title>
<path fill="none" stroke="black" d="M175.348,-145.116C188.219,-135.429 204.833,-122.923 218.848,-112.374"/>
<polygon fill="black" stroke="black" points="221.297,-114.912 227.182,-106.101 217.087,-109.319 221.297,-114.912"/>
</g>
<!-- Temp0: T14 -->
<g id="node13" class="node"><title>Temp0: T14</title>
<ellipse fill="none" stroke="black" cx="55.2451" cy="-18" rx="55.4913" ry="18"/>
<text text-anchor="middle" x="55.2451" y="-14.3" font-family="Times,serif" font-size="14.00">Temp0: T14</text>
</g>
<!-- ExpTemp0&#45;&gt;Temp0: T14 -->
<g id="edge10" class="edge"><title>ExpTemp0&#45;&gt;Temp0: T14</title>
<path fill="none" stroke="black" d="M55.2451,-71.6966C55.2451,-63.9827 55.2451,-54.7125 55.2451,-46.1124"/>
<polygon fill="black" stroke="black" points="58.7452,-46.1043 55.2451,-36.1043 51.7452,-46.1044 58.7452,-46.1043"/>
</g>
<!-- Value0: 8 -->
<g id="node18" class="node"><title>Value0: 8</title>
<ellipse fill="none" stroke="black" cx="247.245" cy="-18" rx="45.4919" ry="18"/>
<text text-anchor="middle" x="247.245" y="-14.3" font-family="Times,serif" font-size="14.00">Value0: 8</text>
</g>
<!-- ExpCall0&#45;&gt;Value0: 8 -->
<g id="edge15" class="edge"><title>ExpCall0&#45;&gt;Value0: 8</title>
<path fill="none" stroke="black" d="M247.245,-71.6966C247.245,-63.9827 247.245,-54.7125 247.245,-46.1124"/>
<polygon fill="black" stroke="black" points="250.745,-46.1043 247.245,-36.1043 243.745,-46.1044 250.745,-46.1043"/>
</g>
<!-- StatMove0 -->
<g id="node9" class="node"><title>StatMove0</title>
<ellipse fill="none" stroke="black" cx="271.245" cy="-306" rx="50.0912" ry="18"/>
<text text-anchor="middle" x="271.245" y="-302.3" font-family="Times,serif" font-size="14.00">StatMove0</text>
</g>
<!-- ExpMem0 -->
<g id="node10" class="node"><title>ExpMem0</title>
<ellipse fill="none" stroke="black" cx="157.245" cy="-234" rx="48.9926" ry="18"/>
<text text-anchor="middle" x="157.245" y="-230.3" font-family="Times,serif" font-size="14.00">ExpMem0</text>
</g>
<!-- StatMove0&#45;&gt;ExpMem0 -->
<g id="edge7" class="edge"><title>StatMove0&#45;&gt;ExpMem0</title>
<path fill="none" stroke="black" d="M247.069,-290.155C230.443,-279.946 208.166,-266.267 189.956,-255.086"/>
<polygon fill="black" stroke="black" points="191.74,-252.074 181.387,-249.824 188.077,-258.039 191.74,-252.074"/>
</g>
<!-- ExpCall1 -->
<g id="node11" class="node"><title>ExpCall1</title>
<ellipse fill="none" stroke="black" cx="271.245" cy="-234" rx="44.393" ry="18"/>
<text text-anchor="middle" x="271.245" y="-230.3" font-family="Times,serif" font-size="14.00">ExpCall1</text>
</g>
<!-- StatMove0&#45;&gt;ExpCall1 -->
<g id="edge8" class="edge"><title>StatMove0&#45;&gt;ExpCall1</title>
<path fill="none" stroke="black" d="M271.245,-287.697C271.245,-279.983 271.245,-270.712 271.245,-262.112"/>
<polygon fill="black" stroke="black" points="274.745,-262.104 271.245,-252.104 267.745,-262.104 274.745,-262.104"/>
</g>
<!-- ExpMem0&#45;&gt;ExpBinary0 -->
<g id="edge14" class="edge"><title>ExpMem0&#45;&gt;ExpBinary0</title>
<path fill="none" stroke="black" d="M156.504,-215.697C156.173,-207.983 155.776,-198.712 155.407,-190.112"/>
<polygon fill="black" stroke="black" points="158.903,-189.945 154.978,-180.104 151.91,-190.245 158.903,-189.945"/>
</g>
<!-- Value1: 1 -->
<g id="node12" class="node"><title>Value1: 1</title>
<ellipse fill="none" stroke="black" cx="271.245" cy="-162" rx="45.4919" ry="18"/>
<text text-anchor="middle" x="271.245" y="-158.3" font-family="Times,serif" font-size="14.00">Value1: 1</text>
</g>
<!-- ExpCall1&#45;&gt;Value1: 1 -->
<g id="edge9" class="edge"><title>ExpCall1&#45;&gt;Value1: 1</title>
<path fill="none" stroke="black" d="M271.245,-215.697C271.245,-207.983 271.245,-198.712 271.245,-190.112"/>
<polygon fill="black" stroke="black" points="274.745,-190.104 271.245,-180.104 267.745,-190.104 274.745,-190.104"/>
</g>
<!-- StatSeq0 -->
<g id="node14" class="node"><title>StatSeq0</title>
<ellipse fill="none" stroke="black" cx="209.245" cy="-450" rx="42.4939" ry="18"/>
<text text-anchor="middle" x="209.245" y="-446.3" font-family="Times,serif" font-size="14.00">StatSeq0</text>
</g>
<!-- StatLabel0 -->
<g id="node15" class="node"><title>StatLabel0</title>
<ellipse fill="none" stroke="black" cx="147.245" cy="-378" rx="48.9926" ry="18"/>
<text text-anchor="middle" x="147.245" y="-374.3" font-family="Times,serif" font-size="14.00">StatLabel0</text>
</g>
<!-- StatSeq0&#45;&gt;StatLabel0 -->
<g id="edge11" class="edge"><title>StatSeq0&#45;&gt;StatLabel0</title>
<path fill="none" stroke="black" d="M194.865,-432.765C187.075,-423.969 177.296,-412.928 168.63,-403.144"/>
<polygon fill="black" stroke="black" points="171.228,-400.799 161.978,-395.633 165.988,-405.44 171.228,-400.799"/>
</g>
<!-- StatSeq1 -->
<g id="node16" class="node"><title>StatSeq1</title>
<ellipse fill="none" stroke="black" cx="271.245" cy="-378" rx="42.4939" ry="18"/>
<text text-anchor="middle" x="271.245" y="-374.3" font-family="Times,serif" font-size="14.00">StatSeq1</text>
</g>
<!-- StatSeq0&#45;&gt;StatSeq1 -->
<g id="edge12" class="edge"><title>StatSeq0&#45;&gt;StatSeq1</title>
<path fill="none" stroke="black" d="M223.625,-432.765C231.528,-423.841 241.478,-412.608 250.236,-402.719"/>
<polygon fill="black" stroke="black" points="252.933,-404.954 256.943,-395.147 247.693,-400.313 252.933,-404.954"/>
</g>
<!-- Label0: List::Init -->
<g id="node17" class="node"><title>Label0: List::Init</title>
<ellipse fill="none" stroke="black" cx="132.245" cy="-306" rx="70.6878" ry="18"/>
<text text-anchor="middle" x="132.245" y="-302.3" font-family="Times,serif" font-size="14.00">Label0: List::Init</text>
</g>
<!-- StatLabel0&#45;&gt;Label0: List::Init -->
<g id="edge13" class="edge"><title>StatLabel0&#45;&gt;Label0: List::Init</title>
<path fill="none" stroke="black" d="M143.537,-359.697C141.884,-351.983 139.898,-342.712 138.055,-334.112"/>
<polygon fill="black" stroke="black" points="141.428,-333.149 135.91,-324.104 134.583,-334.616 141.428,-333.149"/>
</g>
<!-- StatSeq1&#45;&gt;StatMove1 -->
<g id="edge17" class="edge"><title>StatSeq1&#45;&gt;StatMove1</title>
<path fill="none" stroke="black" d="M295.041,-363.003C312.686,-352.623 336.98,-338.333 356.61,-326.785"/>
<polygon fill="black" stroke="black" points="358.416,-329.784 365.26,-321.697 354.866,-323.75 358.416,-329.784"/>
</g>
<!-- StatSeq1&#45;&gt;StatMove0 -->
<g id="edge16" class="edge"><title>StatSeq1&#45;&gt;StatMove0</title>
<path fill="none" stroke="black" d="M271.245,-359.697C271.245,-351.983 271.245,-342.712 271.245,-334.112"/>
<polygon fill="black" stroke="black" points="274.745,-334.104 271.245,-324.104 267.745,-334.104 274.745,-334.104"/>
</g>
</g>
</svg>
