<?xml version="1.0" encoding="UTF-8" standalone="no"?>
<!DOCTYPE svg PUBLIC "-//W3C//DTD SVG 1.1//EN"
 "http://www.w3.org/Graphics/SVG/1.1/DTD/svg11.dtd">
<!-- Generated by graphviz version 2.38.0 (20140413.2041)
 -->
<!-- Title: %3 Pages: 1 -->
<svg width="560pt" height="404pt"
 viewBox="0.00 0.00 559.89 404.00" xmlns="http://www.w3.org/2000/svg" xmlns:xlink="http://www.w3.org/1999/xlink">
<g id="graph0" class="graph" transform="scale(1 1) rotate(0) translate(4 400)">
<title>%3</title>
<polygon fill="white" stroke="none" points="-4,4 -4,-400 555.886,-400 555.886,4 -4,4"/>
<!-- ExpMem0 -->
<g id="node1" class="node"><title>ExpMem0</title>
<ellipse fill="none" stroke="black" cx="406.84" cy="-234" rx="48.9926" ry="18"/>
<text text-anchor="middle" x="406.84" y="-230.3" font-family="Times,serif" font-size="14.00">ExpMem0</text>
</g>
<!-- ExpBinary0 -->
<g id="node2" class="node"><title>ExpBinary0</title>
<ellipse fill="none" stroke="black" cx="408.84" cy="-162" rx="53.0913" ry="18"/>
<text text-anchor="middle" x="408.84" y="-158.3" font-family="Times,serif" font-size="14.00">ExpBinary0</text>
</g>
<!-- ExpMem0&#45;&gt;ExpBinary0 -->
<g id="edge1" class="edge"><title>ExpMem0&#45;&gt;ExpBinary0</title>
<path fill="none" stroke="black" d="M407.335,-215.697C407.555,-207.983 407.82,-198.712 408.066,-190.112"/>
<polygon fill="black" stroke="black" points="411.564,-190.2 408.352,-180.104 404.567,-190 411.564,-190.2"/>
</g>
<!-- ExpCall0 -->
<g id="node3" class="node"><title>ExpCall0</title>
<ellipse fill="none" stroke="black" cx="501.84" cy="-90" rx="44.393" ry="18"/>
<text text-anchor="middle" x="501.84" y="-86.3" font-family="Times,serif" font-size="14.00">ExpCall0</text>
</g>
<!-- ExpBinary0&#45;&gt;ExpCall0 -->
<g id="edge10" class="edge"><title>ExpBinary0&#45;&gt;ExpCall0</title>
<path fill="none" stroke="black" d="M429.943,-145.116C442.814,-135.429 459.429,-122.923 473.443,-112.374"/>
<polygon fill="black" stroke="black" points="475.892,-114.912 481.777,-106.101 471.682,-109.319 475.892,-114.912"/>
</g>
<!-- ExpTemp1 -->
<g id="node5" class="node"><title>ExpTemp1</title>
<ellipse fill="none" stroke="black" cx="309.84" cy="-90" rx="50.0912" ry="18"/>
<text text-anchor="middle" x="309.84" y="-86.3" font-family="Times,serif" font-size="14.00">ExpTemp1</text>
</g>
<!-- ExpBinary0&#45;&gt;ExpTemp1 -->
<g id="edge8" class="edge"><title>ExpBinary0&#45;&gt;ExpTemp1</title>
<path fill="none" stroke="black" d="M386.869,-145.465C373.059,-135.7 355.058,-122.972 339.931,-112.276"/>
<polygon fill="black" stroke="black" points="341.595,-109.167 331.41,-106.251 337.554,-114.882 341.595,-109.167"/>
</g>
<!-- Plus0 -->
<g id="node13" class="node"><title>Plus0</title>
<ellipse fill="none" stroke="black" cx="408.84" cy="-90" rx="30.5947" ry="18"/>
<text text-anchor="middle" x="408.84" y="-86.3" font-family="Times,serif" font-size="14.00">Plus0</text>
</g>
<!-- ExpBinary0&#45;&gt;Plus0 -->
<g id="edge9" class="edge"><title>ExpBinary0&#45;&gt;Plus0</title>
<path fill="none" stroke="black" d="M408.84,-143.697C408.84,-135.983 408.84,-126.712 408.84,-118.112"/>
<polygon fill="black" stroke="black" points="412.34,-118.104 408.84,-108.104 405.34,-118.104 412.34,-118.104"/>
</g>
<!-- Value0: 12 -->
<g id="node4" class="node"><title>Value0: 12</title>
<ellipse fill="none" stroke="black" cx="501.84" cy="-18" rx="50.0912" ry="18"/>
<text text-anchor="middle" x="501.84" y="-14.3" font-family="Times,serif" font-size="14.00">Value0: 12</text>
</g>
<!-- ExpCall0&#45;&gt;Value0: 12 -->
<g id="edge2" class="edge"><title>ExpCall0&#45;&gt;Value0: 12</title>
<path fill="none" stroke="black" d="M501.84,-71.6966C501.84,-63.9827 501.84,-54.7125 501.84,-46.1124"/>
<polygon fill="black" stroke="black" points="505.34,-46.1043 501.84,-36.1043 498.34,-46.1044 505.34,-46.1043"/>
</g>
<!-- Temp1: T6 -->
<g id="node6" class="node"><title>Temp1: T6</title>
<ellipse fill="none" stroke="black" cx="309.84" cy="-18" rx="50.8918" ry="18"/>
<text text-anchor="middle" x="309.84" y="-14.3" font-family="Times,serif" font-size="14.00">Temp1: T6</text>
</g>
<!-- ExpTemp1&#45;&gt;Temp1: T6 -->
<g id="edge3" class="edge"><title>ExpTemp1&#45;&gt;Temp1: T6</title>
<path fill="none" stroke="black" d="M309.84,-71.6966C309.84,-63.9827 309.84,-54.7125 309.84,-46.1124"/>
<polygon fill="black" stroke="black" points="313.34,-46.1043 309.84,-36.1043 306.34,-46.1044 313.34,-46.1043"/>
</g>
<!-- StatLabel0 -->
<g id="node7" class="node"><title>StatLabel0</title>
<ellipse fill="none" stroke="black" cx="140.84" cy="-306" rx="48.9926" ry="18"/>
<text text-anchor="middle" x="140.84" y="-302.3" font-family="Times,serif" font-size="14.00">StatLabel0</text>
</g>
<!-- Label0: Element::GetSalary -->
<g id="node8" class="node"><title>Label0: Element::GetSalary</title>
<ellipse fill="none" stroke="black" cx="109.84" cy="-234" rx="109.681" ry="18"/>
<text text-anchor="middle" x="109.84" y="-230.3" font-family="Times,serif" font-size="14.00">Label0: Element::GetSalary</text>
</g>
<!-- StatLabel0&#45;&gt;Label0: Element::GetSalary -->
<g id="edge4" class="edge"><title>StatLabel0&#45;&gt;Label0: Element::GetSalary</title>
<path fill="none" stroke="black" d="M133.336,-288.055C129.809,-280.091 125.522,-270.411 121.58,-261.51"/>
<polygon fill="black" stroke="black" points="124.74,-260.002 117.491,-252.275 118.34,-262.836 124.74,-260.002"/>
</g>
<!-- StatSeq0 -->
<g id="node9" class="node"><title>StatSeq0</title>
<ellipse fill="none" stroke="black" cx="213.84" cy="-378" rx="42.4939" ry="18"/>
<text text-anchor="middle" x="213.84" y="-374.3" font-family="Times,serif" font-size="14.00">StatSeq0</text>
</g>
<!-- StatSeq0&#45;&gt;StatLabel0 -->
<g id="edge5" class="edge"><title>StatSeq0&#45;&gt;StatLabel0</title>
<path fill="none" stroke="black" d="M197.275,-361.116C187.73,-351.962 175.56,-340.293 164.967,-330.135"/>
<polygon fill="black" stroke="black" points="167.233,-327.459 157.592,-323.064 162.388,-332.511 167.233,-327.459"/>
</g>
<!-- StatMove0 -->
<g id="node10" class="node"><title>StatMove0</title>
<ellipse fill="none" stroke="black" cx="287.84" cy="-306" rx="50.0912" ry="18"/>
<text text-anchor="middle" x="287.84" y="-302.3" font-family="Times,serif" font-size="14.00">StatMove0</text>
</g>
<!-- StatSeq0&#45;&gt;StatMove0 -->
<g id="edge6" class="edge"><title>StatSeq0&#45;&gt;StatMove0</title>
<path fill="none" stroke="black" d="M230.632,-361.116C240.309,-351.962 252.645,-340.293 263.383,-330.135"/>
<polygon fill="black" stroke="black" points="265.999,-332.478 270.859,-323.064 261.189,-327.393 265.999,-332.478"/>
</g>
<!-- StatMove0&#45;&gt;ExpMem0 -->
<g id="edge12" class="edge"><title>StatMove0&#45;&gt;ExpMem0</title>
<path fill="none" stroke="black" d="M312.787,-290.326C330.32,-280.012 353.978,-266.095 373.181,-254.8"/>
<polygon fill="black" stroke="black" points="375.082,-257.742 381.927,-249.655 371.533,-251.708 375.082,-257.742"/>
</g>
<!-- ExpTemp0 -->
<g id="node11" class="node"><title>ExpTemp0</title>
<ellipse fill="none" stroke="black" cx="287.84" cy="-234" rx="50.0912" ry="18"/>
<text text-anchor="middle" x="287.84" y="-230.3" font-family="Times,serif" font-size="14.00">ExpTemp0</text>
</g>
<!-- StatMove0&#45;&gt;ExpTemp0 -->
<g id="edge11" class="edge"><title>StatMove0&#45;&gt;ExpTemp0</title>
<path fill="none" stroke="black" d="M287.84,-287.697C287.84,-279.983 287.84,-270.712 287.84,-262.112"/>
<polygon fill="black" stroke="black" points="291.34,-262.104 287.84,-252.104 284.34,-262.104 291.34,-262.104"/>
</g>
<!-- Temp0: T7 -->
<g id="node12" class="node"><title>Temp0: T7</title>
<ellipse fill="none" stroke="black" cx="286.84" cy="-162" rx="50.8918" ry="18"/>
<text text-anchor="middle" x="286.84" y="-158.3" font-family="Times,serif" font-size="14.00">Temp0: T7</text>
</g>
<!-- ExpTemp0&#45;&gt;Temp0: T7 -->
<g id="edge7" class="edge"><title>ExpTemp0&#45;&gt;Temp0: T7</title>
<path fill="none" stroke="black" d="M287.593,-215.697C287.483,-207.983 287.35,-198.712 287.228,-190.112"/>
<polygon fill="black" stroke="black" points="290.727,-190.053 287.085,-180.104 283.728,-190.153 290.727,-190.053"/>
</g>
</g>
</svg>
