<?xml version="1.0" encoding="UTF-8" standalone="no"?>
<!DOCTYPE svg PUBLIC "-//W3C//DTD SVG 1.1//EN"
 "http://www.w3.org/Graphics/SVG/1.1/DTD/svg11.dtd">
<!-- Generated by graphviz version 2.38.0 (20140413.2041)
 -->
<!-- Title: %3 Pages: 1 -->
<svg width="517pt" height="476pt"
 viewBox="0.00 0.00 517.19 476.00" xmlns="http://www.w3.org/2000/svg" xmlns:xlink="http://www.w3.org/1999/xlink">
<g id="graph0" class="graph" transform="scale(1 1) rotate(0) translate(4 472)">
<title>%3</title>
<polygon fill="white" stroke="none" points="-4,4 -4,-472 513.188,-472 513.188,4 -4,4"/>
<!-- ExpMem0 -->
<g id="node1" class="node"><title>ExpMem0</title>
<ellipse fill="none" stroke="black" cx="358.142" cy="-306" rx="48.9926" ry="18"/>
<text text-anchor="middle" x="358.142" y="-302.3" font-family="Times,serif" font-size="14.00">ExpMem0</text>
</g>
<!-- ExpBinary0 -->
<g id="node2" class="node"><title>ExpBinary0</title>
<ellipse fill="none" stroke="black" cx="360.142" cy="-234" rx="53.0913" ry="18"/>
<text text-anchor="middle" x="360.142" y="-230.3" font-family="Times,serif" font-size="14.00">ExpBinary0</text>
</g>
<!-- ExpMem0&#45;&gt;ExpBinary0 -->
<g id="edge1" class="edge"><title>ExpMem0&#45;&gt;ExpBinary0</title>
<path fill="none" stroke="black" d="M358.637,-287.697C358.857,-279.983 359.122,-270.712 359.368,-262.112"/>
<polygon fill="black" stroke="black" points="362.867,-262.2 359.654,-252.104 355.869,-262 362.867,-262.2"/>
</g>
<!-- ExpMem1 -->
<g id="node3" class="node"><title>ExpMem1</title>
<ellipse fill="none" stroke="black" cx="263.142" cy="-162" rx="48.9926" ry="18"/>
<text text-anchor="middle" x="263.142" y="-158.3" font-family="Times,serif" font-size="14.00">ExpMem1</text>
</g>
<!-- ExpBinary0&#45;&gt;ExpMem1 -->
<g id="edge9" class="edge"><title>ExpBinary0&#45;&gt;ExpMem1</title>
<path fill="none" stroke="black" d="M338.615,-217.465C325.084,-207.7 307.447,-194.972 292.625,-184.276"/>
<polygon fill="black" stroke="black" points="294.433,-181.265 284.276,-178.251 290.337,-186.941 294.433,-181.265"/>
</g>
<!-- ExpConst0 -->
<g id="node6" class="node"><title>ExpConst0</title>
<ellipse fill="none" stroke="black" cx="459.142" cy="-162" rx="50.0912" ry="18"/>
<text text-anchor="middle" x="459.142" y="-158.3" font-family="Times,serif" font-size="14.00">ExpConst0</text>
</g>
<!-- ExpBinary0&#45;&gt;ExpConst0 -->
<g id="edge11" class="edge"><title>ExpBinary0&#45;&gt;ExpConst0</title>
<path fill="none" stroke="black" d="M382.114,-217.465C395.923,-207.7 413.924,-194.972 429.052,-184.276"/>
<polygon fill="black" stroke="black" points="431.429,-186.882 437.573,-178.251 427.387,-181.167 431.429,-186.882"/>
</g>
<!-- Plus0 -->
<g id="node14" class="node"><title>Plus0</title>
<ellipse fill="none" stroke="black" cx="360.142" cy="-162" rx="30.5947" ry="18"/>
<text text-anchor="middle" x="360.142" y="-158.3" font-family="Times,serif" font-size="14.00">Plus0</text>
</g>
<!-- ExpBinary0&#45;&gt;Plus0 -->
<g id="edge10" class="edge"><title>ExpBinary0&#45;&gt;Plus0</title>
<path fill="none" stroke="black" d="M360.142,-215.697C360.142,-207.983 360.142,-198.712 360.142,-190.112"/>
<polygon fill="black" stroke="black" points="363.643,-190.104 360.142,-180.104 356.643,-190.104 363.643,-190.104"/>
</g>
<!-- ExpTemp1 -->
<g id="node4" class="node"><title>ExpTemp1</title>
<ellipse fill="none" stroke="black" cx="263.142" cy="-90" rx="50.0912" ry="18"/>
<text text-anchor="middle" x="263.142" y="-86.3" font-family="Times,serif" font-size="14.00">ExpTemp1</text>
</g>
<!-- ExpMem1&#45;&gt;ExpTemp1 -->
<g id="edge2" class="edge"><title>ExpMem1&#45;&gt;ExpTemp1</title>
<path fill="none" stroke="black" d="M263.142,-143.697C263.142,-135.983 263.142,-126.712 263.142,-118.112"/>
<polygon fill="black" stroke="black" points="266.643,-118.104 263.142,-108.104 259.643,-118.104 266.643,-118.104"/>
</g>
<!-- Temp1: $fp -->
<g id="node5" class="node"><title>Temp1: $fp</title>
<ellipse fill="none" stroke="black" cx="263.142" cy="-18" rx="52.7911" ry="18"/>
<text text-anchor="middle" x="263.142" y="-14.3" font-family="Times,serif" font-size="14.00">Temp1: $fp</text>
</g>
<!-- ExpTemp1&#45;&gt;Temp1: $fp -->
<g id="edge3" class="edge"><title>ExpTemp1&#45;&gt;Temp1: $fp</title>
<path fill="none" stroke="black" d="M263.142,-71.6966C263.142,-63.9827 263.142,-54.7125 263.142,-46.1124"/>
<polygon fill="black" stroke="black" points="266.643,-46.1043 263.142,-36.1043 259.643,-46.1044 266.643,-46.1043"/>
</g>
<!-- Value0: 4 -->
<g id="node7" class="node"><title>Value0: 4</title>
<ellipse fill="none" stroke="black" cx="459.142" cy="-90" rx="45.4919" ry="18"/>
<text text-anchor="middle" x="459.142" y="-86.3" font-family="Times,serif" font-size="14.00">Value0: 4</text>
</g>
<!-- ExpConst0&#45;&gt;Value0: 4 -->
<g id="edge4" class="edge"><title>ExpConst0&#45;&gt;Value0: 4</title>
<path fill="none" stroke="black" d="M459.142,-143.697C459.142,-135.983 459.142,-126.712 459.142,-118.112"/>
<polygon fill="black" stroke="black" points="462.643,-118.104 459.142,-108.104 455.643,-118.104 462.643,-118.104"/>
</g>
<!-- StatLabel0 -->
<g id="node8" class="node"><title>StatLabel0</title>
<ellipse fill="none" stroke="black" cx="103.142" cy="-378" rx="48.9926" ry="18"/>
<text text-anchor="middle" x="103.142" y="-374.3" font-family="Times,serif" font-size="14.00">StatLabel0</text>
</g>
<!-- Label0: List::GetEnd -->
<g id="node9" class="node"><title>Label0: List::GetEnd</title>
<ellipse fill="none" stroke="black" cx="85.1424" cy="-306" rx="85.2851" ry="18"/>
<text text-anchor="middle" x="85.1424" y="-302.3" font-family="Times,serif" font-size="14.00">Label0: List::GetEnd</text>
</g>
<!-- StatLabel0&#45;&gt;Label0: List::GetEnd -->
<g id="edge5" class="edge"><title>StatLabel0&#45;&gt;Label0: List::GetEnd</title>
<path fill="none" stroke="black" d="M98.7851,-360.055C96.781,-352.261 94.3538,-342.822 92.1056,-334.079"/>
<polygon fill="black" stroke="black" points="95.4649,-333.089 89.5847,-324.275 88.6854,-334.832 95.4649,-333.089"/>
</g>
<!-- StatSeq0 -->
<g id="node10" class="node"><title>StatSeq0</title>
<ellipse fill="none" stroke="black" cx="170.142" cy="-450" rx="42.4939" ry="18"/>
<text text-anchor="middle" x="170.142" y="-446.3" font-family="Times,serif" font-size="14.00">StatSeq0</text>
</g>
<!-- StatSeq0&#45;&gt;StatLabel0 -->
<g id="edge6" class="edge"><title>StatSeq0&#45;&gt;StatLabel0</title>
<path fill="none" stroke="black" d="M154.939,-433.116C146.324,-424.116 135.381,-412.682 125.775,-402.646"/>
<polygon fill="black" stroke="black" points="128.194,-400.111 118.751,-395.307 123.137,-404.951 128.194,-400.111"/>
</g>
<!-- StatMove0 -->
<g id="node11" class="node"><title>StatMove0</title>
<ellipse fill="none" stroke="black" cx="238.142" cy="-378" rx="50.0912" ry="18"/>
<text text-anchor="middle" x="238.142" y="-374.3" font-family="Times,serif" font-size="14.00">StatMove0</text>
</g>
<!-- StatSeq0&#45;&gt;StatMove0 -->
<g id="edge7" class="edge"><title>StatSeq0&#45;&gt;StatMove0</title>
<path fill="none" stroke="black" d="M185.573,-433.116C194.316,-424.116 205.422,-412.682 215.172,-402.646"/>
<polygon fill="black" stroke="black" points="217.844,-404.919 222.301,-395.307 212.823,-400.041 217.844,-404.919"/>
</g>
<!-- StatMove0&#45;&gt;ExpMem0 -->
<g id="edge13" class="edge"><title>StatMove0&#45;&gt;ExpMem0</title>
<path fill="none" stroke="black" d="M263.298,-362.326C280.979,-352.012 304.836,-338.095 324.2,-326.8"/>
<polygon fill="black" stroke="black" points="326.145,-329.717 333.02,-321.655 322.618,-323.671 326.145,-329.717"/>
</g>
<!-- ExpTemp0 -->
<g id="node12" class="node"><title>ExpTemp0</title>
<ellipse fill="none" stroke="black" cx="238.142" cy="-306" rx="50.0912" ry="18"/>
<text text-anchor="middle" x="238.142" y="-302.3" font-family="Times,serif" font-size="14.00">ExpTemp0</text>
</g>
<!-- StatMove0&#45;&gt;ExpTemp0 -->
<g id="edge12" class="edge"><title>StatMove0&#45;&gt;ExpTemp0</title>
<path fill="none" stroke="black" d="M238.142,-359.697C238.142,-351.983 238.142,-342.712 238.142,-334.112"/>
<polygon fill="black" stroke="black" points="241.643,-334.104 238.142,-324.104 234.643,-334.104 241.643,-334.104"/>
</g>
<!-- Temp0: $rv -->
<g id="node13" class="node"><title>Temp0: $rv</title>
<ellipse fill="none" stroke="black" cx="236.142" cy="-234" rx="52.7911" ry="18"/>
<text text-anchor="middle" x="236.142" y="-230.3" font-family="Times,serif" font-size="14.00">Temp0: $rv</text>
</g>
<!-- ExpTemp0&#45;&gt;Temp0: $rv -->
<g id="edge8" class="edge"><title>ExpTemp0&#45;&gt;Temp0: $rv</title>
<path fill="none" stroke="black" d="M237.648,-287.697C237.428,-279.983 237.163,-270.712 236.917,-262.112"/>
<polygon fill="black" stroke="black" points="240.415,-262 236.631,-252.104 233.418,-262.2 240.415,-262"/>
</g>
</g>
</svg>
