<?xml version="1.0" encoding="UTF-8" standalone="no"?>
<!DOCTYPE svg PUBLIC "-//W3C//DTD SVG 1.1//EN"
 "http://www.w3.org/Graphics/SVG/1.1/DTD/svg11.dtd">
<!-- Generated by graphviz version 2.38.0 (20140413.2041)
 -->
<!-- Title: %3 Pages: 1 -->
<svg width="520pt" height="548pt"
 viewBox="0.00 0.00 519.84 548.00" xmlns="http://www.w3.org/2000/svg" xmlns:xlink="http://www.w3.org/1999/xlink">
<g id="graph0" class="graph" transform="scale(1 1) rotate(0) translate(4 544)">
<title>%3</title>
<polygon fill="white" stroke="none" points="-4,4 -4,-544 515.838,-544 515.838,4 -4,4"/>
<!-- StatMove0 -->
<g id="node1" class="node"><title>StatMove0</title>
<ellipse fill="none" stroke="black" cx="248.342" cy="-450" rx="50.0912" ry="18"/>
<text text-anchor="middle" x="248.342" y="-446.3" font-family="Times,serif" font-size="14.00">StatMove0</text>
</g>
<!-- ExpTemp0 -->
<g id="node2" class="node"><title>ExpTemp0</title>
<ellipse fill="none" stroke="black" cx="248.342" cy="-378" rx="50.0912" ry="18"/>
<text text-anchor="middle" x="248.342" y="-374.3" font-family="Times,serif" font-size="14.00">ExpTemp0</text>
</g>
<!-- StatMove0&#45;&gt;ExpTemp0 -->
<g id="edge1" class="edge"><title>StatMove0&#45;&gt;ExpTemp0</title>
<path fill="none" stroke="black" d="M248.342,-431.697C248.342,-423.983 248.342,-414.712 248.342,-406.112"/>
<polygon fill="black" stroke="black" points="251.842,-406.104 248.342,-396.104 244.842,-406.104 251.842,-406.104"/>
</g>
<!-- ExpMem0 -->
<g id="node3" class="node"><title>ExpMem0</title>
<ellipse fill="none" stroke="black" cx="370.342" cy="-378" rx="48.9926" ry="18"/>
<text text-anchor="middle" x="370.342" y="-374.3" font-family="Times,serif" font-size="14.00">ExpMem0</text>
</g>
<!-- StatMove0&#45;&gt;ExpMem0 -->
<g id="edge2" class="edge"><title>StatMove0&#45;&gt;ExpMem0</title>
<path fill="none" stroke="black" d="M273.917,-434.326C291.974,-423.965 316.367,-409.969 336.101,-398.646"/>
<polygon fill="black" stroke="black" points="337.869,-401.668 344.8,-393.655 334.385,-395.596 337.869,-401.668"/>
</g>
<!-- Temp0: T29 -->
<g id="node9" class="node"><title>Temp0: T29</title>
<ellipse fill="none" stroke="black" cx="246.342" cy="-306" rx="55.4913" ry="18"/>
<text text-anchor="middle" x="246.342" y="-302.3" font-family="Times,serif" font-size="14.00">Temp0: T29</text>
</g>
<!-- ExpTemp0&#45;&gt;Temp0: T29 -->
<g id="edge7" class="edge"><title>ExpTemp0&#45;&gt;Temp0: T29</title>
<path fill="none" stroke="black" d="M247.848,-359.697C247.627,-351.983 247.362,-342.712 247.117,-334.112"/>
<polygon fill="black" stroke="black" points="250.615,-334 246.831,-324.104 243.618,-334.2 250.615,-334"/>
</g>
<!-- ExpBinary0 -->
<g id="node4" class="node"><title>ExpBinary0</title>
<ellipse fill="none" stroke="black" cx="373.342" cy="-306" rx="53.0913" ry="18"/>
<text text-anchor="middle" x="373.342" y="-302.3" font-family="Times,serif" font-size="14.00">ExpBinary0</text>
</g>
<!-- ExpMem0&#45;&gt;ExpBinary0 -->
<g id="edge12" class="edge"><title>ExpMem0&#45;&gt;ExpBinary0</title>
<path fill="none" stroke="black" d="M371.084,-359.697C371.414,-351.983 371.811,-342.712 372.18,-334.112"/>
<polygon fill="black" stroke="black" points="375.677,-334.245 372.609,-324.104 368.684,-333.945 375.677,-334.245"/>
</g>
<!-- ExpMem1 -->
<g id="node5" class="node"><title>ExpMem1</title>
<ellipse fill="none" stroke="black" cx="276.342" cy="-234" rx="48.9926" ry="18"/>
<text text-anchor="middle" x="276.342" y="-230.3" font-family="Times,serif" font-size="14.00">ExpMem1</text>
</g>
<!-- ExpBinary0&#45;&gt;ExpMem1 -->
<g id="edge3" class="edge"><title>ExpBinary0&#45;&gt;ExpMem1</title>
<path fill="none" stroke="black" d="M351.815,-289.465C338.284,-279.7 320.647,-266.972 305.825,-256.276"/>
<polygon fill="black" stroke="black" points="307.633,-253.265 297.476,-250.251 303.536,-258.941 307.633,-253.265"/>
</g>
<!-- Plus1 -->
<g id="node6" class="node"><title>Plus1</title>
<ellipse fill="none" stroke="black" cx="373.342" cy="-234" rx="30.5947" ry="18"/>
<text text-anchor="middle" x="373.342" y="-230.3" font-family="Times,serif" font-size="14.00">Plus1</text>
</g>
<!-- ExpBinary0&#45;&gt;Plus1 -->
<g id="edge4" class="edge"><title>ExpBinary0&#45;&gt;Plus1</title>
<path fill="none" stroke="black" d="M373.342,-287.697C373.342,-279.983 373.342,-270.712 373.342,-262.112"/>
<polygon fill="black" stroke="black" points="376.842,-262.104 373.342,-252.104 369.842,-262.104 376.842,-262.104"/>
</g>
<!-- ExpCall1 -->
<g id="node7" class="node"><title>ExpCall1</title>
<ellipse fill="none" stroke="black" cx="466.342" cy="-234" rx="44.393" ry="18"/>
<text text-anchor="middle" x="466.342" y="-230.3" font-family="Times,serif" font-size="14.00">ExpCall1</text>
</g>
<!-- ExpBinary0&#45;&gt;ExpCall1 -->
<g id="edge5" class="edge"><title>ExpBinary0&#45;&gt;ExpCall1</title>
<path fill="none" stroke="black" d="M394.445,-289.116C407.315,-279.429 423.93,-266.923 437.945,-256.374"/>
<polygon fill="black" stroke="black" points="440.394,-258.912 446.279,-250.101 436.184,-253.319 440.394,-258.912"/>
</g>
<!-- ExpBinary1 -->
<g id="node15" class="node"><title>ExpBinary1</title>
<ellipse fill="none" stroke="black" cx="276.342" cy="-162" rx="53.0913" ry="18"/>
<text text-anchor="middle" x="276.342" y="-158.3" font-family="Times,serif" font-size="14.00">ExpBinary1</text>
</g>
<!-- ExpMem1&#45;&gt;ExpBinary1 -->
<g id="edge17" class="edge"><title>ExpMem1&#45;&gt;ExpBinary1</title>
<path fill="none" stroke="black" d="M276.342,-215.697C276.342,-207.983 276.342,-198.712 276.342,-190.112"/>
<polygon fill="black" stroke="black" points="279.842,-190.104 276.342,-180.104 272.842,-190.104 279.842,-190.104"/>
</g>
<!-- Value1: 0 -->
<g id="node8" class="node"><title>Value1: 0</title>
<ellipse fill="none" stroke="black" cx="466.342" cy="-162" rx="45.4919" ry="18"/>
<text text-anchor="middle" x="466.342" y="-158.3" font-family="Times,serif" font-size="14.00">Value1: 0</text>
</g>
<!-- ExpCall1&#45;&gt;Value1: 0 -->
<g id="edge6" class="edge"><title>ExpCall1&#45;&gt;Value1: 0</title>
<path fill="none" stroke="black" d="M466.342,-215.697C466.342,-207.983 466.342,-198.712 466.342,-190.112"/>
<polygon fill="black" stroke="black" points="469.842,-190.104 466.342,-180.104 462.842,-190.104 469.842,-190.104"/>
</g>
<!-- StatSeq0 -->
<g id="node10" class="node"><title>StatSeq0</title>
<ellipse fill="none" stroke="black" cx="179.342" cy="-522" rx="42.4939" ry="18"/>
<text text-anchor="middle" x="179.342" y="-518.3" font-family="Times,serif" font-size="14.00">StatSeq0</text>
</g>
<!-- StatSeq0&#45;&gt;StatMove0 -->
<g id="edge9" class="edge"><title>StatSeq0&#45;&gt;StatMove0</title>
<path fill="none" stroke="black" d="M194.999,-505.116C203.871,-496.116 215.141,-484.682 225.034,-474.646"/>
<polygon fill="black" stroke="black" points="227.741,-476.886 232.268,-467.307 222.755,-471.972 227.741,-476.886"/>
</g>
<!-- StatLabel0 -->
<g id="node11" class="node"><title>StatLabel0</title>
<ellipse fill="none" stroke="black" cx="111.342" cy="-450" rx="48.9926" ry="18"/>
<text text-anchor="middle" x="111.342" y="-446.3" font-family="Times,serif" font-size="14.00">StatLabel0</text>
</g>
<!-- StatSeq0&#45;&gt;StatLabel0 -->
<g id="edge8" class="edge"><title>StatSeq0&#45;&gt;StatLabel0</title>
<path fill="none" stroke="black" d="M163.912,-505.116C155.169,-496.116 144.062,-484.682 134.312,-474.646"/>
<polygon fill="black" stroke="black" points="136.661,-472.041 127.183,-467.307 131.64,-476.919 136.661,-472.041"/>
</g>
<!-- Label0: List::GetElem -->
<g id="node12" class="node"><title>Label0: List::GetElem</title>
<ellipse fill="none" stroke="black" cx="90.342" cy="-378" rx="90.1842" ry="18"/>
<text text-anchor="middle" x="90.342" y="-374.3" font-family="Times,serif" font-size="14.00">Label0: List::GetElem</text>
</g>
<!-- StatLabel0&#45;&gt;Label0: List::GetElem -->
<g id="edge10" class="edge"><title>StatLabel0&#45;&gt;Label0: List::GetElem</title>
<path fill="none" stroke="black" d="M106.258,-432.055C103.92,-424.261 101.089,-414.822 98.4657,-406.079"/>
<polygon fill="black" stroke="black" points="101.751,-404.848 95.5246,-396.275 95.0457,-406.859 101.751,-404.848"/>
</g>
<!-- ExpTemp1 -->
<g id="node13" class="node"><title>ExpTemp1</title>
<ellipse fill="none" stroke="black" cx="177.342" cy="-90" rx="50.0912" ry="18"/>
<text text-anchor="middle" x="177.342" y="-86.3" font-family="Times,serif" font-size="14.00">ExpTemp1</text>
</g>
<!-- Temp1: T28 -->
<g id="node14" class="node"><title>Temp1: T28</title>
<ellipse fill="none" stroke="black" cx="177.342" cy="-18" rx="55.4913" ry="18"/>
<text text-anchor="middle" x="177.342" y="-14.3" font-family="Times,serif" font-size="14.00">Temp1: T28</text>
</g>
<!-- ExpTemp1&#45;&gt;Temp1: T28 -->
<g id="edge11" class="edge"><title>ExpTemp1&#45;&gt;Temp1: T28</title>
<path fill="none" stroke="black" d="M177.342,-71.6966C177.342,-63.9827 177.342,-54.7125 177.342,-46.1124"/>
<polygon fill="black" stroke="black" points="180.842,-46.1043 177.342,-36.1043 173.842,-46.1044 180.842,-46.1043"/>
</g>
<!-- ExpBinary1&#45;&gt;ExpTemp1 -->
<g id="edge13" class="edge"><title>ExpBinary1&#45;&gt;ExpTemp1</title>
<path fill="none" stroke="black" d="M254.371,-145.465C240.561,-135.7 222.56,-122.972 207.433,-112.276"/>
<polygon fill="black" stroke="black" points="209.097,-109.167 198.911,-106.251 205.056,-114.882 209.097,-109.167"/>
</g>
<!-- Plus0 -->
<g id="node16" class="node"><title>Plus0</title>
<ellipse fill="none" stroke="black" cx="276.342" cy="-90" rx="30.5947" ry="18"/>
<text text-anchor="middle" x="276.342" y="-86.3" font-family="Times,serif" font-size="14.00">Plus0</text>
</g>
<!-- ExpBinary1&#45;&gt;Plus0 -->
<g id="edge14" class="edge"><title>ExpBinary1&#45;&gt;Plus0</title>
<path fill="none" stroke="black" d="M276.342,-143.697C276.342,-135.983 276.342,-126.712 276.342,-118.112"/>
<polygon fill="black" stroke="black" points="279.842,-118.104 276.342,-108.104 272.842,-118.104 279.842,-118.104"/>
</g>
<!-- ExpCall0 -->
<g id="node17" class="node"><title>ExpCall0</title>
<ellipse fill="none" stroke="black" cx="369.342" cy="-90" rx="44.393" ry="18"/>
<text text-anchor="middle" x="369.342" y="-86.3" font-family="Times,serif" font-size="14.00">ExpCall0</text>
</g>
<!-- ExpBinary1&#45;&gt;ExpCall0 -->
<g id="edge15" class="edge"><title>ExpBinary1&#45;&gt;ExpCall0</title>
<path fill="none" stroke="black" d="M297.445,-145.116C310.315,-135.429 326.93,-122.923 340.945,-112.374"/>
<polygon fill="black" stroke="black" points="343.394,-114.912 349.279,-106.101 339.184,-109.319 343.394,-114.912"/>
</g>
<!-- Value0: 0 -->
<g id="node18" class="node"><title>Value0: 0</title>
<ellipse fill="none" stroke="black" cx="369.342" cy="-18" rx="45.4919" ry="18"/>
<text text-anchor="middle" x="369.342" y="-14.3" font-family="Times,serif" font-size="14.00">Value0: 0</text>
</g>
<!-- ExpCall0&#45;&gt;Value0: 0 -->
<g id="edge16" class="edge"><title>ExpCall0&#45;&gt;Value0: 0</title>
<path fill="none" stroke="black" d="M369.342,-71.6966C369.342,-63.9827 369.342,-54.7125 369.342,-46.1124"/>
<polygon fill="black" stroke="black" points="372.842,-46.1043 369.342,-36.1043 365.842,-46.1044 372.842,-46.1043"/>
</g>
</g>
</svg>
