<?xml version="1.0" encoding="UTF-8" standalone="no"?>
<!DOCTYPE svg PUBLIC "-//W3C//DTD SVG 1.1//EN"
 "http://www.w3.org/Graphics/SVG/1.1/DTD/svg11.dtd">
<!-- Generated by graphviz version 2.38.0 (20140413.2041)
 -->
<!-- Title: %3 Pages: 1 -->
<svg width="1786pt" height="620pt"
 viewBox="0.00 0.00 1785.74 620.00" xmlns="http://www.w3.org/2000/svg" xmlns:xlink="http://www.w3.org/1999/xlink">
<g id="graph0" class="graph" transform="scale(1 1) rotate(0) translate(4 616)">
<title>%3</title>
<polygon fill="white" stroke="none" points="-4,4 -4,-616 1781.74,-616 1781.74,4 -4,4"/>
<!-- StatMove3 -->
<g id="node1" class="node"><title>StatMove3</title>
<ellipse fill="none" stroke="black" cx="1305.7" cy="-450" rx="50.0912" ry="18"/>
<text text-anchor="middle" x="1305.7" y="-446.3" font-family="Times,serif" font-size="14.00">StatMove3</text>
</g>
<!-- ExpTemp6 -->
<g id="node2" class="node"><title>ExpTemp6</title>
<ellipse fill="none" stroke="black" cx="1305.7" cy="-378" rx="50.0912" ry="18"/>
<text text-anchor="middle" x="1305.7" y="-374.3" font-family="Times,serif" font-size="14.00">ExpTemp6</text>
</g>
<!-- StatMove3&#45;&gt;ExpTemp6 -->
<g id="edge1" class="edge"><title>StatMove3&#45;&gt;ExpTemp6</title>
<path fill="none" stroke="black" d="M1305.7,-431.697C1305.7,-423.983 1305.7,-414.712 1305.7,-406.112"/>
<polygon fill="black" stroke="black" points="1309.2,-406.104 1305.7,-396.104 1302.2,-406.104 1309.2,-406.104"/>
</g>
<!-- ExpCall6 -->
<g id="node3" class="node"><title>ExpCall6</title>
<ellipse fill="none" stroke="black" cx="1418.7" cy="-378" rx="44.393" ry="18"/>
<text text-anchor="middle" x="1418.7" y="-374.3" font-family="Times,serif" font-size="14.00">ExpCall6</text>
</g>
<!-- StatMove3&#45;&gt;ExpCall6 -->
<g id="edge2" class="edge"><title>StatMove3&#45;&gt;ExpCall6</title>
<path fill="none" stroke="black" d="M1329.66,-434.155C1346.36,-423.808 1368.82,-409.897 1387,-398.634"/>
<polygon fill="black" stroke="black" points="1388.88,-401.587 1395.54,-393.345 1385.19,-395.636 1388.88,-401.587"/>
</g>
<!-- Temp6: T3 -->
<g id="node4" class="node"><title>Temp6: T3</title>
<ellipse fill="none" stroke="black" cx="1305.7" cy="-306" rx="50.8918" ry="18"/>
<text text-anchor="middle" x="1305.7" y="-302.3" font-family="Times,serif" font-size="14.00">Temp6: T3</text>
</g>
<!-- ExpTemp6&#45;&gt;Temp6: T3 -->
<g id="edge3" class="edge"><title>ExpTemp6&#45;&gt;Temp6: T3</title>
<path fill="none" stroke="black" d="M1305.7,-359.697C1305.7,-351.983 1305.7,-342.712 1305.7,-334.112"/>
<polygon fill="black" stroke="black" points="1309.2,-334.104 1305.7,-324.104 1302.2,-334.104 1309.2,-334.104"/>
</g>
<!-- Value6: 1 -->
<g id="node17" class="node"><title>Value6: 1</title>
<ellipse fill="none" stroke="black" cx="1419.7" cy="-306" rx="45.4919" ry="18"/>
<text text-anchor="middle" x="1419.7" y="-302.3" font-family="Times,serif" font-size="14.00">Value6: 1</text>
</g>
<!-- ExpCall6&#45;&gt;Value6: 1 -->
<g id="edge13" class="edge"><title>ExpCall6&#45;&gt;Value6: 1</title>
<path fill="none" stroke="black" d="M1418.94,-359.697C1419.05,-351.983 1419.19,-342.712 1419.31,-334.112"/>
<polygon fill="black" stroke="black" points="1422.81,-334.153 1419.45,-324.104 1415.81,-334.053 1422.81,-334.153"/>
</g>
<!-- StatSeq1 -->
<g id="node5" class="node"><title>StatSeq1</title>
<ellipse fill="none" stroke="black" cx="1084.7" cy="-522" rx="42.4939" ry="18"/>
<text text-anchor="middle" x="1084.7" y="-518.3" font-family="Times,serif" font-size="14.00">StatSeq1</text>
</g>
<!-- StatSeq1&#45;&gt;StatMove3 -->
<g id="edge5" class="edge"><title>StatSeq1&#45;&gt;StatMove3</title>
<path fill="none" stroke="black" d="M1117.78,-510.52C1155.46,-498.586 1217.27,-479.007 1259.65,-465.586"/>
<polygon fill="black" stroke="black" points="1260.96,-468.84 1269.44,-462.484 1258.85,-462.167 1260.96,-468.84"/>
</g>
<!-- StatSeq2 -->
<g id="node6" class="node"><title>StatSeq2</title>
<ellipse fill="none" stroke="black" cx="1084.7" cy="-450" rx="42.4939" ry="18"/>
<text text-anchor="middle" x="1084.7" y="-446.3" font-family="Times,serif" font-size="14.00">StatSeq2</text>
</g>
<!-- StatSeq1&#45;&gt;StatSeq2 -->
<g id="edge4" class="edge"><title>StatSeq1&#45;&gt;StatSeq2</title>
<path fill="none" stroke="black" d="M1084.7,-503.697C1084.7,-495.983 1084.7,-486.712 1084.7,-478.112"/>
<polygon fill="black" stroke="black" points="1088.2,-478.104 1084.7,-468.104 1081.2,-478.104 1088.2,-478.104"/>
</g>
<!-- StatMove0 -->
<g id="node50" class="node"><title>StatMove0</title>
<ellipse fill="none" stroke="black" cx="454.696" cy="-378" rx="50.0912" ry="18"/>
<text text-anchor="middle" x="454.696" y="-374.3" font-family="Times,serif" font-size="14.00">StatMove0</text>
</g>
<!-- StatSeq2&#45;&gt;StatMove0 -->
<g id="edge50" class="edge"><title>StatSeq2&#45;&gt;StatMove0</title>
<path fill="none" stroke="black" d="M1053.99,-437.5C1047.38,-435.38 1040.36,-433.397 1033.7,-432 847.251,-392.939 621.049,-382.666 515.023,-379.964"/>
<polygon fill="black" stroke="black" points="514.918,-376.461 504.837,-379.719 514.75,-383.459 514.918,-376.461"/>
</g>
<!-- StatSeq3 -->
<g id="node53" class="node"><title>StatSeq3</title>
<ellipse fill="none" stroke="black" cx="1084.7" cy="-378" rx="42.4939" ry="18"/>
<text text-anchor="middle" x="1084.7" y="-374.3" font-family="Times,serif" font-size="14.00">StatSeq3</text>
</g>
<!-- StatSeq2&#45;&gt;StatSeq3 -->
<g id="edge51" class="edge"><title>StatSeq2&#45;&gt;StatSeq3</title>
<path fill="none" stroke="black" d="M1084.7,-431.697C1084.7,-423.983 1084.7,-414.712 1084.7,-406.112"/>
<polygon fill="black" stroke="black" points="1088.2,-406.104 1084.7,-396.104 1081.2,-406.104 1088.2,-406.104"/>
</g>
<!-- ExpBinary5 -->
<g id="node7" class="node"><title>ExpBinary5</title>
<ellipse fill="none" stroke="black" cx="1584.7" cy="-162" rx="53.0913" ry="18"/>
<text text-anchor="middle" x="1584.7" y="-158.3" font-family="Times,serif" font-size="14.00">ExpBinary5</text>
</g>
<!-- ExpTemp5 -->
<g id="node8" class="node"><title>ExpTemp5</title>
<ellipse fill="none" stroke="black" cx="1535.7" cy="-90" rx="50.0912" ry="18"/>
<text text-anchor="middle" x="1535.7" y="-86.3" font-family="Times,serif" font-size="14.00">ExpTemp5</text>
</g>
<!-- ExpBinary5&#45;&gt;ExpTemp5 -->
<g id="edge6" class="edge"><title>ExpBinary5&#45;&gt;ExpTemp5</title>
<path fill="none" stroke="black" d="M1573.08,-144.411C1567.19,-135.992 1559.9,-125.585 1553.34,-116.201"/>
<polygon fill="black" stroke="black" points="1556.17,-114.141 1547.56,-107.956 1550.43,-118.156 1556.17,-114.141"/>
</g>
<!-- Plus5 -->
<g id="node9" class="node"><title>Plus5</title>
<ellipse fill="none" stroke="black" cx="1634.7" cy="-90" rx="30.5947" ry="18"/>
<text text-anchor="middle" x="1634.7" y="-86.3" font-family="Times,serif" font-size="14.00">Plus5</text>
</g>
<!-- ExpBinary5&#45;&gt;Plus5 -->
<g id="edge7" class="edge"><title>ExpBinary5&#45;&gt;Plus5</title>
<path fill="none" stroke="black" d="M1596.54,-144.411C1602.74,-135.744 1610.43,-124.971 1617.28,-115.375"/>
<polygon fill="black" stroke="black" points="1620.31,-117.16 1623.28,-106.988 1614.61,-113.091 1620.31,-117.16"/>
</g>
<!-- ExpCall5 -->
<g id="node10" class="node"><title>ExpCall5</title>
<ellipse fill="none" stroke="black" cx="1727.7" cy="-90" rx="44.393" ry="18"/>
<text text-anchor="middle" x="1727.7" y="-86.3" font-family="Times,serif" font-size="14.00">ExpCall5</text>
</g>
<!-- ExpBinary5&#45;&gt;ExpCall5 -->
<g id="edge8" class="edge"><title>ExpBinary5&#45;&gt;ExpCall5</title>
<path fill="none" stroke="black" d="M1613.63,-146.834C1635.97,-135.901 1667.01,-120.704 1691.08,-108.924"/>
<polygon fill="black" stroke="black" points="1692.81,-111.972 1700.26,-104.432 1689.74,-105.685 1692.81,-111.972"/>
</g>
<!-- Temp5: T2 -->
<g id="node36" class="node"><title>Temp5: T2</title>
<ellipse fill="none" stroke="black" cx="1535.7" cy="-18" rx="50.8918" ry="18"/>
<text text-anchor="middle" x="1535.7" y="-14.3" font-family="Times,serif" font-size="14.00">Temp5: T2</text>
</g>
<!-- ExpTemp5&#45;&gt;Temp5: T2 -->
<g id="edge27" class="edge"><title>ExpTemp5&#45;&gt;Temp5: T2</title>
<path fill="none" stroke="black" d="M1535.7,-71.6966C1535.7,-63.9827 1535.7,-54.7125 1535.7,-46.1124"/>
<polygon fill="black" stroke="black" points="1539.2,-46.1043 1535.7,-36.1043 1532.2,-46.1044 1539.2,-46.1043"/>
</g>
<!-- Value5: 16 -->
<g id="node14" class="node"><title>Value5: 16</title>
<ellipse fill="none" stroke="black" cx="1727.7" cy="-18" rx="50.0912" ry="18"/>
<text text-anchor="middle" x="1727.7" y="-14.3" font-family="Times,serif" font-size="14.00">Value5: 16</text>
</g>
<!-- ExpCall5&#45;&gt;Value5: 16 -->
<g id="edge11" class="edge"><title>ExpCall5&#45;&gt;Value5: 16</title>
<path fill="none" stroke="black" d="M1727.7,-71.6966C1727.7,-63.9827 1727.7,-54.7125 1727.7,-46.1124"/>
<polygon fill="black" stroke="black" points="1731.2,-46.1043 1727.7,-36.1043 1724.2,-46.1044 1731.2,-46.1043"/>
</g>
<!-- StatMove2 -->
<g id="node11" class="node"><title>StatMove2</title>
<ellipse fill="none" stroke="black" cx="1186.7" cy="-306" rx="50.0912" ry="18"/>
<text text-anchor="middle" x="1186.7" y="-302.3" font-family="Times,serif" font-size="14.00">StatMove2</text>
</g>
<!-- ExpMem4 -->
<g id="node12" class="node"><title>ExpMem4</title>
<ellipse fill="none" stroke="black" cx="1208.7" cy="-234" rx="48.9926" ry="18"/>
<text text-anchor="middle" x="1208.7" y="-230.3" font-family="Times,serif" font-size="14.00">ExpMem4</text>
</g>
<!-- StatMove2&#45;&gt;ExpMem4 -->
<g id="edge9" class="edge"><title>StatMove2&#45;&gt;ExpMem4</title>
<path fill="none" stroke="black" d="M1192.02,-288.055C1194.47,-280.261 1197.44,-270.822 1200.18,-262.079"/>
<polygon fill="black" stroke="black" points="1203.61,-262.865 1203.27,-252.275 1196.93,-260.766 1203.61,-262.865"/>
</g>
<!-- ExpMem5 -->
<g id="node13" class="node"><title>ExpMem5</title>
<ellipse fill="none" stroke="black" cx="1428.7" cy="-234" rx="48.9926" ry="18"/>
<text text-anchor="middle" x="1428.7" y="-230.3" font-family="Times,serif" font-size="14.00">ExpMem5</text>
</g>
<!-- StatMove2&#45;&gt;ExpMem5 -->
<g id="edge10" class="edge"><title>StatMove2&#45;&gt;ExpMem5</title>
<path fill="none" stroke="black" d="M1224.51,-294.062C1266.99,-281.775 1335.98,-261.819 1381.84,-248.552"/>
<polygon fill="black" stroke="black" points="1382.91,-251.887 1391.55,-245.746 1380.97,-245.162 1382.91,-251.887"/>
</g>
<!-- ExpBinary4 -->
<g id="node18" class="node"><title>ExpBinary4</title>
<ellipse fill="none" stroke="black" cx="1279.7" cy="-162" rx="53.0913" ry="18"/>
<text text-anchor="middle" x="1279.7" y="-158.3" font-family="Times,serif" font-size="14.00">ExpBinary4</text>
</g>
<!-- ExpMem4&#45;&gt;ExpBinary4 -->
<g id="edge45" class="edge"><title>ExpMem4&#45;&gt;ExpBinary4</title>
<path fill="none" stroke="black" d="M1225.16,-216.765C1234.3,-207.753 1245.83,-196.385 1255.93,-186.426"/>
<polygon fill="black" stroke="black" points="1258.65,-188.66 1263.32,-179.147 1253.74,-183.676 1258.65,-188.66"/>
</g>
<!-- ExpMem5&#45;&gt;ExpBinary5 -->
<g id="edge53" class="edge"><title>ExpMem5&#45;&gt;ExpBinary5</title>
<path fill="none" stroke="black" d="M1458.41,-219.669C1482.92,-208.669 1517.93,-192.961 1544.87,-180.872"/>
<polygon fill="black" stroke="black" points="1546.34,-184.047 1554.03,-176.76 1543.47,-177.661 1546.34,-184.047"/>
</g>
<!-- ExpCall4 -->
<g id="node15" class="node"><title>ExpCall4</title>
<ellipse fill="none" stroke="black" cx="1422.7" cy="-90" rx="44.393" ry="18"/>
<text text-anchor="middle" x="1422.7" y="-86.3" font-family="Times,serif" font-size="14.00">ExpCall4</text>
</g>
<!-- Value4: 8 -->
<g id="node16" class="node"><title>Value4: 8</title>
<ellipse fill="none" stroke="black" cx="1421.7" cy="-18" rx="45.4919" ry="18"/>
<text text-anchor="middle" x="1421.7" y="-14.3" font-family="Times,serif" font-size="14.00">Value4: 8</text>
</g>
<!-- ExpCall4&#45;&gt;Value4: 8 -->
<g id="edge12" class="edge"><title>ExpCall4&#45;&gt;Value4: 8</title>
<path fill="none" stroke="black" d="M1422.45,-71.6966C1422.34,-63.9827 1422.21,-54.7125 1422.08,-46.1124"/>
<polygon fill="black" stroke="black" points="1425.58,-46.0533 1421.94,-36.1043 1418.58,-46.1533 1425.58,-46.0533"/>
</g>
<!-- ExpBinary4&#45;&gt;ExpCall4 -->
<g id="edge16" class="edge"><title>ExpBinary4&#45;&gt;ExpCall4</title>
<path fill="none" stroke="black" d="M1308.63,-146.834C1330.97,-135.901 1362.01,-120.704 1386.08,-108.924"/>
<polygon fill="black" stroke="black" points="1387.81,-111.972 1395.26,-104.432 1384.74,-105.685 1387.81,-111.972"/>
</g>
<!-- ExpTemp4 -->
<g id="node19" class="node"><title>ExpTemp4</title>
<ellipse fill="none" stroke="black" cx="1230.7" cy="-90" rx="50.0912" ry="18"/>
<text text-anchor="middle" x="1230.7" y="-86.3" font-family="Times,serif" font-size="14.00">ExpTemp4</text>
</g>
<!-- ExpBinary4&#45;&gt;ExpTemp4 -->
<g id="edge14" class="edge"><title>ExpBinary4&#45;&gt;ExpTemp4</title>
<path fill="none" stroke="black" d="M1268.08,-144.411C1262.19,-135.992 1254.9,-125.585 1248.34,-116.201"/>
<polygon fill="black" stroke="black" points="1251.17,-114.141 1242.56,-107.956 1245.43,-118.156 1251.17,-114.141"/>
</g>
<!-- Plus4 -->
<g id="node20" class="node"><title>Plus4</title>
<ellipse fill="none" stroke="black" cx="1329.7" cy="-90" rx="30.5947" ry="18"/>
<text text-anchor="middle" x="1329.7" y="-86.3" font-family="Times,serif" font-size="14.00">Plus4</text>
</g>
<!-- ExpBinary4&#45;&gt;Plus4 -->
<g id="edge15" class="edge"><title>ExpBinary4&#45;&gt;Plus4</title>
<path fill="none" stroke="black" d="M1291.54,-144.411C1297.74,-135.744 1305.43,-124.971 1312.28,-115.375"/>
<polygon fill="black" stroke="black" points="1315.31,-117.16 1318.28,-106.988 1309.61,-113.091 1315.31,-117.16"/>
</g>
<!-- Temp4: T2 -->
<g id="node21" class="node"><title>Temp4: T2</title>
<ellipse fill="none" stroke="black" cx="1233.7" cy="-18" rx="50.8918" ry="18"/>
<text text-anchor="middle" x="1233.7" y="-14.3" font-family="Times,serif" font-size="14.00">Temp4: T2</text>
</g>
<!-- ExpTemp4&#45;&gt;Temp4: T2 -->
<g id="edge17" class="edge"><title>ExpTemp4&#45;&gt;Temp4: T2</title>
<path fill="none" stroke="black" d="M1231.44,-71.6966C1231.77,-63.9827 1232.16,-54.7125 1232.53,-46.1124"/>
<polygon fill="black" stroke="black" points="1236.03,-46.2451 1232.96,-36.1043 1229.04,-45.9453 1236.03,-46.2451"/>
</g>
<!-- ExpBinary1 -->
<g id="node22" class="node"><title>ExpBinary1</title>
<ellipse fill="none" stroke="black" cx="454.696" cy="-234" rx="53.0913" ry="18"/>
<text text-anchor="middle" x="454.696" y="-230.3" font-family="Times,serif" font-size="14.00">ExpBinary1</text>
</g>
<!-- ExpTemp1 -->
<g id="node23" class="node"><title>ExpTemp1</title>
<ellipse fill="none" stroke="black" cx="355.696" cy="-162" rx="50.0912" ry="18"/>
<text text-anchor="middle" x="355.696" y="-158.3" font-family="Times,serif" font-size="14.00">ExpTemp1</text>
</g>
<!-- ExpBinary1&#45;&gt;ExpTemp1 -->
<g id="edge18" class="edge"><title>ExpBinary1&#45;&gt;ExpTemp1</title>
<path fill="none" stroke="black" d="M432.724,-217.465C418.915,-207.7 400.914,-194.972 385.786,-184.276"/>
<polygon fill="black" stroke="black" points="387.451,-181.167 377.265,-178.251 383.409,-186.882 387.451,-181.167"/>
</g>
<!-- Plus1 -->
<g id="node24" class="node"><title>Plus1</title>
<ellipse fill="none" stroke="black" cx="454.696" cy="-162" rx="30.5947" ry="18"/>
<text text-anchor="middle" x="454.696" y="-158.3" font-family="Times,serif" font-size="14.00">Plus1</text>
</g>
<!-- ExpBinary1&#45;&gt;Plus1 -->
<g id="edge19" class="edge"><title>ExpBinary1&#45;&gt;Plus1</title>
<path fill="none" stroke="black" d="M454.696,-215.697C454.696,-207.983 454.696,-198.712 454.696,-190.112"/>
<polygon fill="black" stroke="black" points="458.196,-190.104 454.696,-180.104 451.196,-190.104 458.196,-190.104"/>
</g>
<!-- ExpCall1 -->
<g id="node25" class="node"><title>ExpCall1</title>
<ellipse fill="none" stroke="black" cx="547.696" cy="-162" rx="44.393" ry="18"/>
<text text-anchor="middle" x="547.696" y="-158.3" font-family="Times,serif" font-size="14.00">ExpCall1</text>
</g>
<!-- ExpBinary1&#45;&gt;ExpCall1 -->
<g id="edge20" class="edge"><title>ExpBinary1&#45;&gt;ExpCall1</title>
<path fill="none" stroke="black" d="M475.799,-217.116C488.669,-207.429 505.284,-194.923 519.299,-184.374"/>
<polygon fill="black" stroke="black" points="521.747,-186.912 527.632,-178.101 517.538,-181.319 521.747,-186.912"/>
</g>
<!-- Temp1: T2 -->
<g id="node37" class="node"><title>Temp1: T2</title>
<ellipse fill="none" stroke="black" cx="355.696" cy="-90" rx="50.8918" ry="18"/>
<text text-anchor="middle" x="355.696" y="-86.3" font-family="Times,serif" font-size="14.00">Temp1: T2</text>
</g>
<!-- ExpTemp1&#45;&gt;Temp1: T2 -->
<g id="edge28" class="edge"><title>ExpTemp1&#45;&gt;Temp1: T2</title>
<path fill="none" stroke="black" d="M355.696,-143.697C355.696,-135.983 355.696,-126.712 355.696,-118.112"/>
<polygon fill="black" stroke="black" points="359.196,-118.104 355.696,-108.104 352.196,-118.104 359.196,-118.104"/>
</g>
<!-- Value1: 8 -->
<g id="node49" class="node"><title>Value1: 8</title>
<ellipse fill="none" stroke="black" cx="508.696" cy="-90" rx="45.4919" ry="18"/>
<text text-anchor="middle" x="508.696" y="-86.3" font-family="Times,serif" font-size="14.00">Value1: 8</text>
</g>
<!-- ExpCall1&#45;&gt;Value1: 8 -->
<g id="edge39" class="edge"><title>ExpCall1&#45;&gt;Value1: 8</title>
<path fill="none" stroke="black" d="M538.255,-144.055C533.656,-135.801 528.029,-125.701 522.924,-116.538"/>
<polygon fill="black" stroke="black" points="525.974,-114.821 518.049,-107.789 519.859,-118.228 525.974,-114.821"/>
</g>
<!-- ExpMem0 -->
<g id="node26" class="node"><title>ExpMem0</title>
<ellipse fill="none" stroke="black" cx="244.696" cy="-306" rx="48.9926" ry="18"/>
<text text-anchor="middle" x="244.696" y="-302.3" font-family="Times,serif" font-size="14.00">ExpMem0</text>
</g>
<!-- ExpBinary0 -->
<g id="node27" class="node"><title>ExpBinary0</title>
<ellipse fill="none" stroke="black" cx="196.696" cy="-234" rx="53.0913" ry="18"/>
<text text-anchor="middle" x="196.696" y="-230.3" font-family="Times,serif" font-size="14.00">ExpBinary0</text>
</g>
<!-- ExpMem0&#45;&gt;ExpBinary0 -->
<g id="edge21" class="edge"><title>ExpMem0&#45;&gt;ExpBinary0</title>
<path fill="none" stroke="black" d="M233.32,-288.411C227.606,-280.077 220.556,-269.797 214.173,-260.488"/>
<polygon fill="black" stroke="black" points="216.865,-258.224 208.323,-251.956 211.091,-262.183 216.865,-258.224"/>
</g>
<!-- ExpTemp0 -->
<g id="node43" class="node"><title>ExpTemp0</title>
<ellipse fill="none" stroke="black" cx="50.6955" cy="-162" rx="50.0912" ry="18"/>
<text text-anchor="middle" x="50.6955" y="-158.3" font-family="Times,serif" font-size="14.00">ExpTemp0</text>
</g>
<!-- ExpBinary0&#45;&gt;ExpTemp0 -->
<g id="edge46" class="edge"><title>ExpBinary0&#45;&gt;ExpTemp0</title>
<path fill="none" stroke="black" d="M167.15,-218.834C144.641,-208.042 113.466,-193.095 89.035,-181.382"/>
<polygon fill="black" stroke="black" points="90.2289,-178.073 79.6986,-176.906 87.2026,-184.385 90.2289,-178.073"/>
</g>
<!-- ExpCall0 -->
<g id="node45" class="node"><title>ExpCall0</title>
<ellipse fill="none" stroke="black" cx="242.696" cy="-162" rx="44.393" ry="18"/>
<text text-anchor="middle" x="242.696" y="-158.3" font-family="Times,serif" font-size="14.00">ExpCall0</text>
</g>
<!-- ExpBinary0&#45;&gt;ExpCall0 -->
<g id="edge48" class="edge"><title>ExpBinary0&#45;&gt;ExpCall0</title>
<path fill="none" stroke="black" d="M207.831,-216.055C213.312,-207.715 220.03,-197.491 226.102,-188.252"/>
<polygon fill="black" stroke="black" points="229.096,-190.068 231.663,-179.789 223.246,-186.224 229.096,-190.068"/>
</g>
<!-- Plus0 -->
<g id="node55" class="node"><title>Plus0</title>
<ellipse fill="none" stroke="black" cx="149.696" cy="-162" rx="30.5947" ry="18"/>
<text text-anchor="middle" x="149.696" y="-158.3" font-family="Times,serif" font-size="14.00">Plus0</text>
</g>
<!-- ExpBinary0&#45;&gt;Plus0 -->
<g id="edge47" class="edge"><title>ExpBinary0&#45;&gt;Plus0</title>
<path fill="none" stroke="black" d="M185.318,-216.055C179.636,-207.592 172.651,-197.19 166.377,-187.845"/>
<polygon fill="black" stroke="black" points="169.125,-185.658 160.644,-179.307 163.313,-189.56 169.125,-185.658"/>
</g>
<!-- ExpMem3 -->
<g id="node28" class="node"><title>ExpMem3</title>
<ellipse fill="none" stroke="black" cx="1025.7" cy="-234" rx="48.9926" ry="18"/>
<text text-anchor="middle" x="1025.7" y="-230.3" font-family="Times,serif" font-size="14.00">ExpMem3</text>
</g>
<!-- ExpBinary3 -->
<g id="node29" class="node"><title>ExpBinary3</title>
<ellipse fill="none" stroke="black" cx="1025.7" cy="-162" rx="53.0913" ry="18"/>
<text text-anchor="middle" x="1025.7" y="-158.3" font-family="Times,serif" font-size="14.00">ExpBinary3</text>
</g>
<!-- ExpMem3&#45;&gt;ExpBinary3 -->
<g id="edge22" class="edge"><title>ExpMem3&#45;&gt;ExpBinary3</title>
<path fill="none" stroke="black" d="M1025.7,-215.697C1025.7,-207.983 1025.7,-198.712 1025.7,-190.112"/>
<polygon fill="black" stroke="black" points="1029.2,-190.104 1025.7,-180.104 1022.2,-190.104 1029.2,-190.104"/>
</g>
<!-- ExpCall3 -->
<g id="node38" class="node"><title>ExpCall3</title>
<ellipse fill="none" stroke="black" cx="1118.7" cy="-90" rx="44.393" ry="18"/>
<text text-anchor="middle" x="1118.7" y="-86.3" font-family="Times,serif" font-size="14.00">ExpCall3</text>
</g>
<!-- ExpBinary3&#45;&gt;ExpCall3 -->
<g id="edge38" class="edge"><title>ExpBinary3&#45;&gt;ExpCall3</title>
<path fill="none" stroke="black" d="M1046.8,-145.116C1059.67,-135.429 1076.28,-122.923 1090.3,-112.374"/>
<polygon fill="black" stroke="black" points="1092.75,-114.912 1098.63,-106.101 1088.54,-109.319 1092.75,-114.912"/>
</g>
<!-- ExpTemp3 -->
<g id="node41" class="node"><title>ExpTemp3</title>
<ellipse fill="none" stroke="black" cx="926.696" cy="-90" rx="50.0912" ry="18"/>
<text text-anchor="middle" x="926.696" y="-86.3" font-family="Times,serif" font-size="14.00">ExpTemp3</text>
</g>
<!-- ExpBinary3&#45;&gt;ExpTemp3 -->
<g id="edge36" class="edge"><title>ExpBinary3&#45;&gt;ExpTemp3</title>
<path fill="none" stroke="black" d="M1003.72,-145.465C989.915,-135.7 971.914,-122.972 956.786,-112.276"/>
<polygon fill="black" stroke="black" points="958.451,-109.167 948.265,-106.251 954.409,-114.882 958.451,-109.167"/>
</g>
<!-- Plus3 -->
<g id="node48" class="node"><title>Plus3</title>
<ellipse fill="none" stroke="black" cx="1025.7" cy="-90" rx="30.5947" ry="18"/>
<text text-anchor="middle" x="1025.7" y="-86.3" font-family="Times,serif" font-size="14.00">Plus3</text>
</g>
<!-- ExpBinary3&#45;&gt;Plus3 -->
<g id="edge37" class="edge"><title>ExpBinary3&#45;&gt;Plus3</title>
<path fill="none" stroke="black" d="M1025.7,-143.697C1025.7,-135.983 1025.7,-126.712 1025.7,-118.112"/>
<polygon fill="black" stroke="black" points="1029.2,-118.104 1025.7,-108.104 1022.2,-118.104 1029.2,-118.104"/>
</g>
<!-- ExpBinary2 -->
<g id="node30" class="node"><title>ExpBinary2</title>
<ellipse fill="none" stroke="black" cx="767.696" cy="-162" rx="53.0913" ry="18"/>
<text text-anchor="middle" x="767.696" y="-158.3" font-family="Times,serif" font-size="14.00">ExpBinary2</text>
</g>
<!-- ExpTemp2 -->
<g id="node31" class="node"><title>ExpTemp2</title>
<ellipse fill="none" stroke="black" cx="622.696" cy="-90" rx="50.0912" ry="18"/>
<text text-anchor="middle" x="622.696" y="-86.3" font-family="Times,serif" font-size="14.00">ExpTemp2</text>
</g>
<!-- ExpBinary2&#45;&gt;ExpTemp2 -->
<g id="edge23" class="edge"><title>ExpBinary2&#45;&gt;ExpTemp2</title>
<path fill="none" stroke="black" d="M738.353,-146.834C715.998,-136.042 685.036,-121.095 660.772,-109.382"/>
<polygon fill="black" stroke="black" points="662.027,-106.101 651.5,-104.906 658.984,-112.405 662.027,-106.101"/>
</g>
<!-- Plus2 -->
<g id="node32" class="node"><title>Plus2</title>
<ellipse fill="none" stroke="black" cx="721.696" cy="-90" rx="30.5947" ry="18"/>
<text text-anchor="middle" x="721.696" y="-86.3" font-family="Times,serif" font-size="14.00">Plus2</text>
</g>
<!-- ExpBinary2&#45;&gt;Plus2 -->
<g id="edge24" class="edge"><title>ExpBinary2&#45;&gt;Plus2</title>
<path fill="none" stroke="black" d="M756.56,-144.055C750.999,-135.592 744.163,-125.19 738.022,-115.845"/>
<polygon fill="black" stroke="black" points="740.828,-113.742 732.412,-107.307 734.978,-117.586 740.828,-113.742"/>
</g>
<!-- ExpCall2 -->
<g id="node33" class="node"><title>ExpCall2</title>
<ellipse fill="none" stroke="black" cx="814.696" cy="-90" rx="44.393" ry="18"/>
<text text-anchor="middle" x="814.696" y="-86.3" font-family="Times,serif" font-size="14.00">ExpCall2</text>
</g>
<!-- ExpBinary2&#45;&gt;ExpCall2 -->
<g id="edge25" class="edge"><title>ExpBinary2&#45;&gt;ExpCall2</title>
<path fill="none" stroke="black" d="M779.073,-144.055C784.673,-135.715 791.537,-125.491 797.741,-116.252"/>
<polygon fill="black" stroke="black" points="800.754,-118.042 803.423,-107.789 794.943,-114.14 800.754,-118.042"/>
</g>
<!-- Temp2: T2 -->
<g id="node56" class="node"><title>Temp2: T2</title>
<ellipse fill="none" stroke="black" cx="622.696" cy="-18" rx="50.8918" ry="18"/>
<text text-anchor="middle" x="622.696" y="-14.3" font-family="Times,serif" font-size="14.00">Temp2: T2</text>
</g>
<!-- ExpTemp2&#45;&gt;Temp2: T2 -->
<g id="edge52" class="edge"><title>ExpTemp2&#45;&gt;Temp2: T2</title>
<path fill="none" stroke="black" d="M622.696,-71.6966C622.696,-63.9827 622.696,-54.7125 622.696,-46.1124"/>
<polygon fill="black" stroke="black" points="626.196,-46.1043 622.696,-36.1043 619.196,-46.1044 626.196,-46.1043"/>
</g>
<!-- Value2: 12 -->
<g id="node52" class="node"><title>Value2: 12</title>
<ellipse fill="none" stroke="black" cx="810.696" cy="-18" rx="50.0912" ry="18"/>
<text text-anchor="middle" x="810.696" y="-14.3" font-family="Times,serif" font-size="14.00">Value2: 12</text>
</g>
<!-- ExpCall2&#45;&gt;Value2: 12 -->
<g id="edge42" class="edge"><title>ExpCall2&#45;&gt;Value2: 12</title>
<path fill="none" stroke="black" d="M813.707,-71.6966C813.266,-63.9827 812.736,-54.7125 812.245,-46.1124"/>
<polygon fill="black" stroke="black" points="815.738,-45.8883 811.673,-36.1043 808.749,-46.2878 815.738,-45.8883"/>
</g>
<!-- StatLabel0 -->
<g id="node34" class="node"><title>StatLabel0</title>
<ellipse fill="none" stroke="black" cx="956.696" cy="-522" rx="48.9926" ry="18"/>
<text text-anchor="middle" x="956.696" y="-518.3" font-family="Times,serif" font-size="14.00">StatLabel0</text>
</g>
<!-- Label0: Element::Init -->
<g id="node35" class="node"><title>Label0: Element::Init</title>
<ellipse fill="none" stroke="black" cx="937.696" cy="-450" rx="87.1846" ry="18"/>
<text text-anchor="middle" x="937.696" y="-446.3" font-family="Times,serif" font-size="14.00">Label0: Element::Init</text>
</g>
<!-- StatLabel0&#45;&gt;Label0: Element::Init -->
<g id="edge26" class="edge"><title>StatLabel0&#45;&gt;Label0: Element::Init</title>
<path fill="none" stroke="black" d="M952.096,-504.055C949.981,-496.261 947.419,-486.822 945.045,-478.079"/>
<polygon fill="black" stroke="black" points="948.382,-477.009 942.385,-468.275 941.626,-478.843 948.382,-477.009"/>
</g>
<!-- Value3: 12 -->
<g id="node39" class="node"><title>Value3: 12</title>
<ellipse fill="none" stroke="black" cx="1114.7" cy="-18" rx="50.0912" ry="18"/>
<text text-anchor="middle" x="1114.7" y="-14.3" font-family="Times,serif" font-size="14.00">Value3: 12</text>
</g>
<!-- ExpCall3&#45;&gt;Value3: 12 -->
<g id="edge29" class="edge"><title>ExpCall3&#45;&gt;Value3: 12</title>
<path fill="none" stroke="black" d="M1117.71,-71.6966C1117.27,-63.9827 1116.74,-54.7125 1116.24,-46.1124"/>
<polygon fill="black" stroke="black" points="1119.74,-45.8883 1115.67,-36.1043 1112.75,-46.2878 1119.74,-45.8883"/>
</g>
<!-- StatSeq0 -->
<g id="node40" class="node"><title>StatSeq0</title>
<ellipse fill="none" stroke="black" cx="1020.7" cy="-594" rx="42.4939" ry="18"/>
<text text-anchor="middle" x="1020.7" y="-590.3" font-family="Times,serif" font-size="14.00">StatSeq0</text>
</g>
<!-- StatSeq0&#45;&gt;StatSeq1 -->
<g id="edge31" class="edge"><title>StatSeq0&#45;&gt;StatSeq1</title>
<path fill="none" stroke="black" d="M1035.54,-576.765C1043.7,-567.841 1053.97,-556.608 1063.01,-546.719"/>
<polygon fill="black" stroke="black" points="1065.77,-548.889 1069.93,-539.147 1060.6,-544.166 1065.77,-548.889"/>
</g>
<!-- StatSeq0&#45;&gt;StatLabel0 -->
<g id="edge30" class="edge"><title>StatSeq0&#45;&gt;StatLabel0</title>
<path fill="none" stroke="black" d="M1005.85,-576.765C997.81,-567.969 987.716,-556.928 978.77,-547.144"/>
<polygon fill="black" stroke="black" points="981.234,-544.652 971.903,-539.633 976.068,-549.375 981.234,-544.652"/>
</g>
<!-- Temp3: T2 -->
<g id="node42" class="node"><title>Temp3: T2</title>
<ellipse fill="none" stroke="black" cx="929.696" cy="-18" rx="50.8918" ry="18"/>
<text text-anchor="middle" x="929.696" y="-14.3" font-family="Times,serif" font-size="14.00">Temp3: T2</text>
</g>
<!-- ExpTemp3&#45;&gt;Temp3: T2 -->
<g id="edge32" class="edge"><title>ExpTemp3&#45;&gt;Temp3: T2</title>
<path fill="none" stroke="black" d="M927.437,-71.6966C927.768,-63.9827 928.165,-54.7125 928.534,-46.1124"/>
<polygon fill="black" stroke="black" points="932.031,-46.2451 928.962,-36.1043 925.037,-45.9453 932.031,-46.2451"/>
</g>
<!-- Temp0: T2 -->
<g id="node44" class="node"><title>Temp0: T2</title>
<ellipse fill="none" stroke="black" cx="50.6955" cy="-90" rx="50.8918" ry="18"/>
<text text-anchor="middle" x="50.6955" y="-86.3" font-family="Times,serif" font-size="14.00">Temp0: T2</text>
</g>
<!-- ExpTemp0&#45;&gt;Temp0: T2 -->
<g id="edge33" class="edge"><title>ExpTemp0&#45;&gt;Temp0: T2</title>
<path fill="none" stroke="black" d="M50.6955,-143.697C50.6955,-135.983 50.6955,-126.712 50.6955,-118.112"/>
<polygon fill="black" stroke="black" points="54.1956,-118.104 50.6955,-108.104 47.1956,-118.104 54.1956,-118.104"/>
</g>
<!-- Value0: 4 -->
<g id="node46" class="node"><title>Value0: 4</title>
<ellipse fill="none" stroke="black" cx="241.696" cy="-90" rx="45.4919" ry="18"/>
<text text-anchor="middle" x="241.696" y="-86.3" font-family="Times,serif" font-size="14.00">Value0: 4</text>
</g>
<!-- ExpCall0&#45;&gt;Value0: 4 -->
<g id="edge34" class="edge"><title>ExpCall0&#45;&gt;Value0: 4</title>
<path fill="none" stroke="black" d="M242.448,-143.697C242.338,-135.983 242.206,-126.712 242.083,-118.112"/>
<polygon fill="black" stroke="black" points="245.582,-118.053 241.94,-108.104 238.583,-118.153 245.582,-118.053"/>
</g>
<!-- ExpMem2 -->
<g id="node47" class="node"><title>ExpMem2</title>
<ellipse fill="none" stroke="black" cx="861.696" cy="-234" rx="48.9926" ry="18"/>
<text text-anchor="middle" x="861.696" y="-230.3" font-family="Times,serif" font-size="14.00">ExpMem2</text>
</g>
<!-- ExpMem2&#45;&gt;ExpBinary2 -->
<g id="edge35" class="edge"><title>ExpMem2&#45;&gt;ExpBinary2</title>
<path fill="none" stroke="black" d="M840.834,-217.465C827.903,-207.835 811.101,-195.323 796.862,-184.72"/>
<polygon fill="black" stroke="black" points="798.935,-181.899 788.824,-178.734 794.754,-187.514 798.935,-181.899"/>
</g>
<!-- StatMove0&#45;&gt;ExpMem0 -->
<g id="edge40" class="edge"><title>StatMove0&#45;&gt;ExpMem0</title>
<path fill="none" stroke="black" d="M419.072,-365.125C383.408,-353.238 328.417,-334.907 289.744,-322.016"/>
<polygon fill="black" stroke="black" points="290.387,-318.541 279.793,-318.699 288.173,-325.182 290.387,-318.541"/>
</g>
<!-- ExpMem1 -->
<g id="node51" class="node"><title>ExpMem1</title>
<ellipse fill="none" stroke="black" cx="454.696" cy="-306" rx="48.9926" ry="18"/>
<text text-anchor="middle" x="454.696" y="-302.3" font-family="Times,serif" font-size="14.00">ExpMem1</text>
</g>
<!-- StatMove0&#45;&gt;ExpMem1 -->
<g id="edge41" class="edge"><title>StatMove0&#45;&gt;ExpMem1</title>
<path fill="none" stroke="black" d="M454.696,-359.697C454.696,-351.983 454.696,-342.712 454.696,-334.112"/>
<polygon fill="black" stroke="black" points="458.196,-334.104 454.696,-324.104 451.196,-334.104 458.196,-334.104"/>
</g>
<!-- ExpMem1&#45;&gt;ExpBinary1 -->
<g id="edge49" class="edge"><title>ExpMem1&#45;&gt;ExpBinary1</title>
<path fill="none" stroke="black" d="M454.696,-287.697C454.696,-279.983 454.696,-270.712 454.696,-262.112"/>
<polygon fill="black" stroke="black" points="458.196,-262.104 454.696,-252.104 451.196,-262.104 458.196,-262.104"/>
</g>
<!-- StatSeq3&#45;&gt;StatMove2 -->
<g id="edge44" class="edge"><title>StatSeq3&#45;&gt;StatMove2</title>
<path fill="none" stroke="black" d="M1106.33,-362.155C1120.73,-352.267 1139.89,-339.124 1155.88,-328.148"/>
<polygon fill="black" stroke="black" points="1158.13,-330.852 1164.39,-322.308 1154.16,-325.08 1158.13,-330.852"/>
</g>
<!-- StatMove1 -->
<g id="node54" class="node"><title>StatMove1</title>
<ellipse fill="none" stroke="black" cx="1025.7" cy="-306" rx="50.0912" ry="18"/>
<text text-anchor="middle" x="1025.7" y="-302.3" font-family="Times,serif" font-size="14.00">StatMove1</text>
</g>
<!-- StatSeq3&#45;&gt;StatMove1 -->
<g id="edge43" class="edge"><title>StatSeq3&#45;&gt;StatMove1</title>
<path fill="none" stroke="black" d="M1071.01,-360.765C1063.67,-352.056 1054.48,-341.147 1046.29,-331.435"/>
<polygon fill="black" stroke="black" points="1048.84,-329.024 1039.72,-323.633 1043.48,-333.535 1048.84,-329.024"/>
</g>
<!-- StatMove1&#45;&gt;ExpMem3 -->
<g id="edge55" class="edge"><title>StatMove1&#45;&gt;ExpMem3</title>
<path fill="none" stroke="black" d="M1025.7,-287.697C1025.7,-279.983 1025.7,-270.712 1025.7,-262.112"/>
<polygon fill="black" stroke="black" points="1029.2,-262.104 1025.7,-252.104 1022.2,-262.104 1029.2,-262.104"/>
</g>
<!-- StatMove1&#45;&gt;ExpMem2 -->
<g id="edge54" class="edge"><title>StatMove1&#45;&gt;ExpMem2</title>
<path fill="none" stroke="black" d="M994.462,-291.669C968.077,-280.407 930.131,-264.21 901.558,-252.014"/>
<polygon fill="black" stroke="black" points="902.828,-248.751 892.257,-248.045 900.08,-255.189 902.828,-248.751"/>
</g>
</g>
</svg>
