<?xml version="1.0" encoding="UTF-8" standalone="no"?>
<!DOCTYPE svg PUBLIC "-//W3C//DTD SVG 1.1//EN"
 "http://www.w3.org/Graphics/SVG/1.1/DTD/svg11.dtd">
<!-- Generated by graphviz version 2.38.0 (20140413.2041)
 -->
<!-- Title: %3 Pages: 1 -->
<svg width="457pt" height="764pt"
 viewBox="0.00 0.00 456.89 764.00" xmlns="http://www.w3.org/2000/svg" xmlns:xlink="http://www.w3.org/1999/xlink">
<g id="graph0" class="graph" transform="scale(1 1) rotate(0) translate(4 760)">
<title>%3</title>
<polygon fill="white" stroke="none" points="-4,4 -4,-760 452.886,-760 452.886,4 -4,4"/>
<!-- ExpEseq0 -->
<g id="node1" class="node"><title>ExpEseq0</title>
<ellipse fill="none" stroke="black" cx="273.641" cy="-594" rx="46.2923" ry="18"/>
<text text-anchor="middle" x="273.641" y="-590.3" font-family="Times,serif" font-size="14.00">ExpEseq0</text>
</g>
<!-- StatMove0 -->
<g id="node2" class="node"><title>StatMove0</title>
<ellipse fill="none" stroke="black" cx="214.641" cy="-522" rx="50.0912" ry="18"/>
<text text-anchor="middle" x="214.641" y="-518.3" font-family="Times,serif" font-size="14.00">StatMove0</text>
</g>
<!-- ExpEseq0&#45;&gt;StatMove0 -->
<g id="edge1" class="edge"><title>ExpEseq0&#45;&gt;StatMove0</title>
<path fill="none" stroke="black" d="M259.957,-576.765C252.616,-568.056 243.422,-557.147 235.236,-547.435"/>
<polygon fill="black" stroke="black" points="237.781,-545.024 228.66,-539.633 232.429,-549.535 237.781,-545.024"/>
</g>
<!-- ExpTemp3 -->
<g id="node3" class="node"><title>ExpTemp3</title>
<ellipse fill="none" stroke="black" cx="332.641" cy="-522" rx="50.0912" ry="18"/>
<text text-anchor="middle" x="332.641" y="-518.3" font-family="Times,serif" font-size="14.00">ExpTemp3</text>
</g>
<!-- ExpEseq0&#45;&gt;ExpTemp3 -->
<g id="edge2" class="edge"><title>ExpEseq0&#45;&gt;ExpTemp3</title>
<path fill="none" stroke="black" d="M287.325,-576.765C294.665,-568.056 303.86,-557.147 312.046,-547.435"/>
<polygon fill="black" stroke="black" points="314.853,-549.535 318.621,-539.633 309.5,-545.024 314.853,-549.535"/>
</g>
<!-- ExpTemp0 -->
<g id="node8" class="node"><title>ExpTemp0</title>
<ellipse fill="none" stroke="black" cx="97.6407" cy="-450" rx="50.0912" ry="18"/>
<text text-anchor="middle" x="97.6407" y="-446.3" font-family="Times,serif" font-size="14.00">ExpTemp0</text>
</g>
<!-- StatMove0&#45;&gt;ExpTemp0 -->
<g id="edge6" class="edge"><title>StatMove0&#45;&gt;ExpTemp0</title>
<path fill="none" stroke="black" d="M189.828,-506.155C172.765,-495.946 149.901,-482.267 131.213,-471.086"/>
<polygon fill="black" stroke="black" points="132.796,-467.955 122.418,-465.824 129.202,-473.962 132.796,-467.955"/>
</g>
<!-- ExpCall0 -->
<g id="node9" class="node"><title>ExpCall0</title>
<ellipse fill="none" stroke="black" cx="215.641" cy="-450" rx="44.393" ry="18"/>
<text text-anchor="middle" x="215.641" y="-446.3" font-family="Times,serif" font-size="14.00">ExpCall0</text>
</g>
<!-- StatMove0&#45;&gt;ExpCall0 -->
<g id="edge7" class="edge"><title>StatMove0&#45;&gt;ExpCall0</title>
<path fill="none" stroke="black" d="M214.888,-503.697C214.998,-495.983 215.131,-486.712 215.253,-478.112"/>
<polygon fill="black" stroke="black" points="218.753,-478.153 215.396,-468.104 211.754,-478.053 218.753,-478.153"/>
</g>
<!-- Temp3: T55 -->
<g id="node16" class="node"><title>Temp3: T55</title>
<ellipse fill="none" stroke="black" cx="332.641" cy="-450" rx="55.4913" ry="18"/>
<text text-anchor="middle" x="332.641" y="-446.3" font-family="Times,serif" font-size="14.00">Temp3: T55</text>
</g>
<!-- ExpTemp3&#45;&gt;Temp3: T55 -->
<g id="edge13" class="edge"><title>ExpTemp3&#45;&gt;Temp3: T55</title>
<path fill="none" stroke="black" d="M332.641,-503.697C332.641,-495.983 332.641,-486.712 332.641,-478.112"/>
<polygon fill="black" stroke="black" points="336.141,-478.104 332.641,-468.104 329.141,-478.104 336.141,-478.104"/>
</g>
<!-- ExpTemp2 -->
<g id="node4" class="node"><title>ExpTemp2</title>
<ellipse fill="none" stroke="black" cx="393.641" cy="-234" rx="50.0912" ry="18"/>
<text text-anchor="middle" x="393.641" y="-230.3" font-family="Times,serif" font-size="14.00">ExpTemp2</text>
</g>
<!-- Temp2: T54 -->
<g id="node5" class="node"><title>Temp2: T54</title>
<ellipse fill="none" stroke="black" cx="393.641" cy="-162" rx="55.4913" ry="18"/>
<text text-anchor="middle" x="393.641" y="-158.3" font-family="Times,serif" font-size="14.00">Temp2: T54</text>
</g>
<!-- ExpTemp2&#45;&gt;Temp2: T54 -->
<g id="edge3" class="edge"><title>ExpTemp2&#45;&gt;Temp2: T54</title>
<path fill="none" stroke="black" d="M393.641,-215.697C393.641,-207.983 393.641,-198.712 393.641,-190.112"/>
<polygon fill="black" stroke="black" points="397.141,-190.104 393.641,-180.104 390.141,-190.104 397.141,-190.104"/>
</g>
<!-- ExpEseq1 -->
<g id="node6" class="node"><title>ExpEseq1</title>
<ellipse fill="none" stroke="black" cx="334.641" cy="-306" rx="46.2923" ry="18"/>
<text text-anchor="middle" x="334.641" y="-302.3" font-family="Times,serif" font-size="14.00">ExpEseq1</text>
</g>
<!-- ExpEseq1&#45;&gt;ExpTemp2 -->
<g id="edge5" class="edge"><title>ExpEseq1&#45;&gt;ExpTemp2</title>
<path fill="none" stroke="black" d="M348.325,-288.765C355.665,-280.056 364.86,-269.147 373.046,-259.435"/>
<polygon fill="black" stroke="black" points="375.853,-261.535 379.621,-251.633 370.5,-257.024 375.853,-261.535"/>
</g>
<!-- StatMove1 -->
<g id="node7" class="node"><title>StatMove1</title>
<ellipse fill="none" stroke="black" cx="275.641" cy="-234" rx="50.0912" ry="18"/>
<text text-anchor="middle" x="275.641" y="-230.3" font-family="Times,serif" font-size="14.00">StatMove1</text>
</g>
<!-- ExpEseq1&#45;&gt;StatMove1 -->
<g id="edge4" class="edge"><title>ExpEseq1&#45;&gt;StatMove1</title>
<path fill="none" stroke="black" d="M320.957,-288.765C313.616,-280.056 304.422,-269.147 296.236,-259.435"/>
<polygon fill="black" stroke="black" points="298.781,-257.024 289.66,-251.633 293.429,-261.535 298.781,-257.024"/>
</g>
<!-- ExpCall1 -->
<g id="node11" class="node"><title>ExpCall1</title>
<ellipse fill="none" stroke="black" cx="276.641" cy="-162" rx="44.393" ry="18"/>
<text text-anchor="middle" x="276.641" y="-158.3" font-family="Times,serif" font-size="14.00">ExpCall1</text>
</g>
<!-- StatMove1&#45;&gt;ExpCall1 -->
<g id="edge22" class="edge"><title>StatMove1&#45;&gt;ExpCall1</title>
<path fill="none" stroke="black" d="M275.888,-215.697C275.998,-207.983 276.131,-198.712 276.253,-190.112"/>
<polygon fill="black" stroke="black" points="279.753,-190.153 276.396,-180.104 272.754,-190.053 279.753,-190.153"/>
</g>
<!-- ExpTemp1 -->
<g id="node22" class="node"><title>ExpTemp1</title>
<ellipse fill="none" stroke="black" cx="158.641" cy="-162" rx="50.0912" ry="18"/>
<text text-anchor="middle" x="158.641" y="-158.3" font-family="Times,serif" font-size="14.00">ExpTemp1</text>
</g>
<!-- StatMove1&#45;&gt;ExpTemp1 -->
<g id="edge21" class="edge"><title>StatMove1&#45;&gt;ExpTemp1</title>
<path fill="none" stroke="black" d="M250.828,-218.155C233.765,-207.946 210.901,-194.267 192.213,-183.086"/>
<polygon fill="black" stroke="black" points="193.796,-179.955 183.418,-177.824 190.202,-185.962 193.796,-179.955"/>
</g>
<!-- Temp0: T55 -->
<g id="node15" class="node"><title>Temp0: T55</title>
<ellipse fill="none" stroke="black" cx="91.6407" cy="-378" rx="55.4913" ry="18"/>
<text text-anchor="middle" x="91.6407" y="-374.3" font-family="Times,serif" font-size="14.00">Temp0: T55</text>
</g>
<!-- ExpTemp0&#45;&gt;Temp0: T55 -->
<g id="edge12" class="edge"><title>ExpTemp0&#45;&gt;Temp0: T55</title>
<path fill="none" stroke="black" d="M96.1576,-431.697C95.4964,-423.983 94.7018,-414.712 93.9646,-406.112"/>
<polygon fill="black" stroke="black" points="97.4481,-405.769 93.1068,-396.104 90.4737,-406.367 97.4481,-405.769"/>
</g>
<!-- ExpList0 -->
<g id="node10" class="node"><title>ExpList0</title>
<ellipse fill="none" stroke="black" cx="331.641" cy="-378" rx="42.7926" ry="18"/>
<text text-anchor="middle" x="331.641" y="-374.3" font-family="Times,serif" font-size="14.00">ExpList0</text>
</g>
<!-- ExpCall0&#45;&gt;ExpList0 -->
<g id="edge19" class="edge"><title>ExpCall0&#45;&gt;ExpList0</title>
<path fill="none" stroke="black" d="M239.395,-434.666C256.676,-424.237 280.276,-409.996 299.279,-398.529"/>
<polygon fill="black" stroke="black" points="301.165,-401.479 307.918,-393.315 297.548,-395.485 301.165,-401.479"/>
</g>
<!-- ExpName0 -->
<g id="node20" class="node"><title>ExpName0</title>
<ellipse fill="none" stroke="black" cx="215.641" cy="-378" rx="50.8918" ry="18"/>
<text text-anchor="middle" x="215.641" y="-374.3" font-family="Times,serif" font-size="14.00">ExpName0</text>
</g>
<!-- ExpCall0&#45;&gt;ExpName0 -->
<g id="edge18" class="edge"><title>ExpCall0&#45;&gt;ExpName0</title>
<path fill="none" stroke="black" d="M215.641,-431.697C215.641,-423.983 215.641,-414.712 215.641,-406.112"/>
<polygon fill="black" stroke="black" points="219.141,-406.104 215.641,-396.104 212.141,-406.104 219.141,-406.104"/>
</g>
<!-- ExpList0&#45;&gt;ExpEseq1 -->
<g id="edge8" class="edge"><title>ExpList0&#45;&gt;ExpEseq1</title>
<path fill="none" stroke="black" d="M332.382,-359.697C332.713,-351.983 333.11,-342.712 333.479,-334.112"/>
<polygon fill="black" stroke="black" points="336.976,-334.245 333.908,-324.104 329.983,-333.945 336.976,-334.245"/>
</g>
<!-- ExpName1 -->
<g id="node12" class="node"><title>ExpName1</title>
<ellipse fill="none" stroke="black" cx="276.641" cy="-90" rx="50.8918" ry="18"/>
<text text-anchor="middle" x="276.641" y="-86.3" font-family="Times,serif" font-size="14.00">ExpName1</text>
</g>
<!-- ExpCall1&#45;&gt;ExpName1 -->
<g id="edge9" class="edge"><title>ExpCall1&#45;&gt;ExpName1</title>
<path fill="none" stroke="black" d="M276.641,-143.697C276.641,-135.983 276.641,-126.712 276.641,-118.112"/>
<polygon fill="black" stroke="black" points="280.141,-118.104 276.641,-108.104 273.141,-118.104 280.141,-118.104"/>
</g>
<!-- ExpList1 -->
<g id="node13" class="node"><title>ExpList1</title>
<ellipse fill="none" stroke="black" cx="388.641" cy="-90" rx="42.7926" ry="18"/>
<text text-anchor="middle" x="388.641" y="-86.3" font-family="Times,serif" font-size="14.00">ExpList1</text>
</g>
<!-- ExpCall1&#45;&gt;ExpList1 -->
<g id="edge10" class="edge"><title>ExpCall1&#45;&gt;ExpList1</title>
<path fill="none" stroke="black" d="M299.847,-146.496C316.366,-136.172 338.763,-122.174 356.93,-110.819"/>
<polygon fill="black" stroke="black" points="358.839,-113.753 365.464,-105.485 355.129,-107.818 358.839,-113.753"/>
</g>
<!-- Label2: LL@Start -->
<g id="node24" class="node"><title>Label2: LL@Start</title>
<ellipse fill="none" stroke="black" cx="276.641" cy="-18" rx="75.2868" ry="18"/>
<text text-anchor="middle" x="276.641" y="-14.3" font-family="Times,serif" font-size="14.00">Label2: LL@Start</text>
</g>
<!-- ExpName1&#45;&gt;Label2: LL@Start -->
<g id="edge23" class="edge"><title>ExpName1&#45;&gt;Label2: LL@Start</title>
<path fill="none" stroke="black" d="M276.641,-71.6966C276.641,-63.9827 276.641,-54.7125 276.641,-46.1124"/>
<polygon fill="black" stroke="black" points="280.141,-46.1043 276.641,-36.1043 273.141,-46.1044 280.141,-46.1043"/>
</g>
<!-- StatExp0 -->
<g id="node14" class="node"><title>StatExp0</title>
<ellipse fill="none" stroke="black" cx="258.641" cy="-666" rx="42.7926" ry="18"/>
<text text-anchor="middle" x="258.641" y="-662.3" font-family="Times,serif" font-size="14.00">StatExp0</text>
</g>
<!-- StatExp0&#45;&gt;ExpEseq0 -->
<g id="edge11" class="edge"><title>StatExp0&#45;&gt;ExpEseq0</title>
<path fill="none" stroke="black" d="M262.272,-648.055C263.942,-640.261 265.965,-630.822 267.838,-622.079"/>
<polygon fill="black" stroke="black" points="271.266,-622.787 269.939,-612.275 264.421,-621.32 271.266,-622.787"/>
</g>
<!-- StatSeq0 -->
<g id="node17" class="node"><title>StatSeq0</title>
<ellipse fill="none" stroke="black" cx="195.641" cy="-738" rx="42.4939" ry="18"/>
<text text-anchor="middle" x="195.641" y="-734.3" font-family="Times,serif" font-size="14.00">StatSeq0</text>
</g>
<!-- StatSeq0&#45;&gt;StatExp0 -->
<g id="edge15" class="edge"><title>StatSeq0&#45;&gt;StatExp0</title>
<path fill="none" stroke="black" d="M210.253,-720.765C218.283,-711.841 228.394,-700.608 237.293,-690.719"/>
<polygon fill="black" stroke="black" points="240.02,-692.922 244.108,-683.147 234.817,-688.239 240.02,-692.922"/>
</g>
<!-- StatLabel0 -->
<g id="node18" class="node"><title>StatLabel0</title>
<ellipse fill="none" stroke="black" cx="133.641" cy="-666" rx="48.9926" ry="18"/>
<text text-anchor="middle" x="133.641" y="-662.3" font-family="Times,serif" font-size="14.00">StatLabel0</text>
</g>
<!-- StatSeq0&#45;&gt;StatLabel0 -->
<g id="edge14" class="edge"><title>StatSeq0&#45;&gt;StatLabel0</title>
<path fill="none" stroke="black" d="M181.261,-720.765C173.47,-711.969 163.692,-700.928 155.025,-691.144"/>
<polygon fill="black" stroke="black" points="157.624,-688.799 148.373,-683.633 152.383,-693.44 157.624,-688.799"/>
</g>
<!-- Label0: LinkedList@main -->
<g id="node19" class="node"><title>Label0: LinkedList@main</title>
<ellipse fill="none" stroke="black" cx="104.641" cy="-594" rx="104.782" ry="18"/>
<text text-anchor="middle" x="104.641" y="-590.3" font-family="Times,serif" font-size="14.00">Label0: LinkedList@main</text>
</g>
<!-- StatLabel0&#45;&gt;Label0: LinkedList@main -->
<g id="edge16" class="edge"><title>StatLabel0&#45;&gt;Label0: LinkedList@main</title>
<path fill="none" stroke="black" d="M126.621,-648.055C123.357,-640.176 119.396,-630.617 115.741,-621.794"/>
<polygon fill="black" stroke="black" points="118.859,-620.174 111.798,-612.275 112.392,-622.853 118.859,-620.174"/>
</g>
<!-- Label1: print -->
<g id="node21" class="node"><title>Label1: print</title>
<ellipse fill="none" stroke="black" cx="213.641" cy="-306" rx="56.59" ry="18"/>
<text text-anchor="middle" x="213.641" y="-302.3" font-family="Times,serif" font-size="14.00">Label1: print</text>
</g>
<!-- ExpName0&#45;&gt;Label1: print -->
<g id="edge17" class="edge"><title>ExpName0&#45;&gt;Label1: print</title>
<path fill="none" stroke="black" d="M215.146,-359.697C214.926,-351.983 214.661,-342.712 214.415,-334.112"/>
<polygon fill="black" stroke="black" points="217.914,-334 214.129,-324.104 210.917,-334.2 217.914,-334"/>
</g>
<!-- Temp1: T54 -->
<g id="node23" class="node"><title>Temp1: T54</title>
<ellipse fill="none" stroke="black" cx="152.641" cy="-90" rx="55.4913" ry="18"/>
<text text-anchor="middle" x="152.641" y="-86.3" font-family="Times,serif" font-size="14.00">Temp1: T54</text>
</g>
<!-- ExpTemp1&#45;&gt;Temp1: T54 -->
<g id="edge20" class="edge"><title>ExpTemp1&#45;&gt;Temp1: T54</title>
<path fill="none" stroke="black" d="M157.158,-143.697C156.496,-135.983 155.702,-126.712 154.965,-118.112"/>
<polygon fill="black" stroke="black" points="158.448,-117.769 154.107,-108.104 151.474,-118.367 158.448,-117.769"/>
</g>
</g>
</svg>
