<?xml version="1.0" encoding="UTF-8" standalone="no"?>
<!DOCTYPE svg PUBLIC "-//W3C//DTD SVG 1.1//EN"
 "http://www.w3.org/Graphics/SVG/1.1/DTD/svg11.dtd">
<!-- Generated by graphviz version 2.38.0 (20140413.2041)
 -->
<!-- Title: %3 Pages: 1 -->
<svg width="1731pt" height="476pt"
 viewBox="0.00 0.00 1730.69 476.00" xmlns="http://www.w3.org/2000/svg" xmlns:xlink="http://www.w3.org/1999/xlink">
<g id="graph0" class="graph" transform="scale(1 1) rotate(0) translate(4 472)">
<title>%3</title>
<polygon fill="white" stroke="none" points="-4,4 -4,-472 1726.69,-472 1726.69,4 -4,4"/>
<!-- StatMove3 -->
<g id="node1" class="node"><title>StatMove3</title>
<ellipse fill="none" stroke="black" cx="1554.65" cy="-378" rx="50.0912" ry="18"/>
<text text-anchor="middle" x="1554.65" y="-374.3" font-family="Times,serif" font-size="14.00">StatMove3</text>
</g>
<!-- ExpTemp6 -->
<g id="node2" class="node"><title>ExpTemp6</title>
<ellipse fill="none" stroke="black" cx="1554.65" cy="-306" rx="50.0912" ry="18"/>
<text text-anchor="middle" x="1554.65" y="-302.3" font-family="Times,serif" font-size="14.00">ExpTemp6</text>
</g>
<!-- StatMove3&#45;&gt;ExpTemp6 -->
<g id="edge1" class="edge"><title>StatMove3&#45;&gt;ExpTemp6</title>
<path fill="none" stroke="black" d="M1554.65,-359.697C1554.65,-351.983 1554.65,-342.712 1554.65,-334.112"/>
<polygon fill="black" stroke="black" points="1558.15,-334.104 1554.65,-324.104 1551.15,-334.104 1558.15,-334.104"/>
</g>
<!-- ExpConst5 -->
<g id="node3" class="node"><title>ExpConst5</title>
<ellipse fill="none" stroke="black" cx="1672.65" cy="-306" rx="50.0912" ry="18"/>
<text text-anchor="middle" x="1672.65" y="-302.3" font-family="Times,serif" font-size="14.00">ExpConst5</text>
</g>
<!-- StatMove3&#45;&gt;ExpConst5 -->
<g id="edge2" class="edge"><title>StatMove3&#45;&gt;ExpConst5</title>
<path fill="none" stroke="black" d="M1579.38,-362.326C1596.77,-352.012 1620.23,-338.095 1639.27,-326.8"/>
<polygon fill="black" stroke="black" points="1641.13,-329.767 1647.94,-321.655 1637.55,-323.747 1641.13,-329.767"/>
</g>
<!-- Temp6: $rv -->
<g id="node4" class="node"><title>Temp6: $rv</title>
<ellipse fill="none" stroke="black" cx="1555.65" cy="-234" rx="52.7911" ry="18"/>
<text text-anchor="middle" x="1555.65" y="-230.3" font-family="Times,serif" font-size="14.00">Temp6: $rv</text>
</g>
<!-- ExpTemp6&#45;&gt;Temp6: $rv -->
<g id="edge3" class="edge"><title>ExpTemp6&#45;&gt;Temp6: $rv</title>
<path fill="none" stroke="black" d="M1554.89,-287.697C1555,-279.983 1555.14,-270.712 1555.26,-262.112"/>
<polygon fill="black" stroke="black" points="1558.76,-262.153 1555.4,-252.104 1551.76,-262.053 1558.76,-262.153"/>
</g>
<!-- Value5: 1 -->
<g id="node16" class="node"><title>Value5: 1</title>
<ellipse fill="none" stroke="black" cx="1672.65" cy="-234" rx="45.4919" ry="18"/>
<text text-anchor="middle" x="1672.65" y="-230.3" font-family="Times,serif" font-size="14.00">Value5: 1</text>
</g>
<!-- ExpConst5&#45;&gt;Value5: 1 -->
<g id="edge12" class="edge"><title>ExpConst5&#45;&gt;Value5: 1</title>
<path fill="none" stroke="black" d="M1672.65,-287.697C1672.65,-279.983 1672.65,-270.712 1672.65,-262.112"/>
<polygon fill="black" stroke="black" points="1676.15,-262.104 1672.65,-252.104 1669.15,-262.104 1676.15,-262.104"/>
</g>
<!-- ExpConst4 -->
<g id="node5" class="node"><title>ExpConst4</title>
<ellipse fill="none" stroke="black" cx="1629.65" cy="-162" rx="50.0912" ry="18"/>
<text text-anchor="middle" x="1629.65" y="-158.3" font-family="Times,serif" font-size="14.00">ExpConst4</text>
</g>
<!-- Value4: 12 -->
<g id="node6" class="node"><title>Value4: 12</title>
<ellipse fill="none" stroke="black" cx="1629.65" cy="-90" rx="50.0912" ry="18"/>
<text text-anchor="middle" x="1629.65" y="-86.3" font-family="Times,serif" font-size="14.00">Value4: 12</text>
</g>
<!-- ExpConst4&#45;&gt;Value4: 12 -->
<g id="edge4" class="edge"><title>ExpConst4&#45;&gt;Value4: 12</title>
<path fill="none" stroke="black" d="M1629.65,-143.697C1629.65,-135.983 1629.65,-126.712 1629.65,-118.112"/>
<polygon fill="black" stroke="black" points="1633.15,-118.104 1629.65,-108.104 1626.15,-118.104 1633.15,-118.104"/>
</g>
<!-- ExpBinary4 -->
<g id="node7" class="node"><title>ExpBinary4</title>
<ellipse fill="none" stroke="black" cx="1431.65" cy="-234" rx="53.0913" ry="18"/>
<text text-anchor="middle" x="1431.65" y="-230.3" font-family="Times,serif" font-size="14.00">ExpBinary4</text>
</g>
<!-- ExpBinary4&#45;&gt;ExpConst4 -->
<g id="edge7" class="edge"><title>ExpBinary4&#45;&gt;ExpConst4</title>
<path fill="none" stroke="black" d="M1467.04,-220.485C1500.19,-208.767 1549.83,-191.217 1585.54,-178.593"/>
<polygon fill="black" stroke="black" points="1586.95,-181.805 1595.22,-175.172 1584.62,-175.205 1586.95,-181.805"/>
</g>
<!-- ExpTemp5 -->
<g id="node8" class="node"><title>ExpTemp5</title>
<ellipse fill="none" stroke="black" cx="1431.65" cy="-162" rx="50.0912" ry="18"/>
<text text-anchor="middle" x="1431.65" y="-158.3" font-family="Times,serif" font-size="14.00">ExpTemp5</text>
</g>
<!-- ExpBinary4&#45;&gt;ExpTemp5 -->
<g id="edge5" class="edge"><title>ExpBinary4&#45;&gt;ExpTemp5</title>
<path fill="none" stroke="black" d="M1431.65,-215.697C1431.65,-207.983 1431.65,-198.712 1431.65,-190.112"/>
<polygon fill="black" stroke="black" points="1435.15,-190.104 1431.65,-180.104 1428.15,-190.104 1435.15,-190.104"/>
</g>
<!-- Plus4 -->
<g id="node9" class="node"><title>Plus4</title>
<ellipse fill="none" stroke="black" cx="1530.65" cy="-162" rx="30.5947" ry="18"/>
<text text-anchor="middle" x="1530.65" y="-158.3" font-family="Times,serif" font-size="14.00">Plus4</text>
</g>
<!-- ExpBinary4&#45;&gt;Plus4 -->
<g id="edge6" class="edge"><title>ExpBinary4&#45;&gt;Plus4</title>
<path fill="none" stroke="black" d="M1453.62,-217.465C1468.32,-207.065 1487.79,-193.304 1503.47,-182.217"/>
<polygon fill="black" stroke="black" points="1505.59,-185.001 1511.74,-176.37 1501.55,-179.286 1505.59,-185.001"/>
</g>
<!-- Temp5: $fp -->
<g id="node19" class="node"><title>Temp5: $fp</title>
<ellipse fill="none" stroke="black" cx="1431.65" cy="-90" rx="52.7911" ry="18"/>
<text text-anchor="middle" x="1431.65" y="-86.3" font-family="Times,serif" font-size="14.00">Temp5: $fp</text>
</g>
<!-- ExpTemp5&#45;&gt;Temp5: $fp -->
<g id="edge16" class="edge"><title>ExpTemp5&#45;&gt;Temp5: $fp</title>
<path fill="none" stroke="black" d="M1431.65,-143.697C1431.65,-135.983 1431.65,-126.712 1431.65,-118.112"/>
<polygon fill="black" stroke="black" points="1435.15,-118.104 1431.65,-108.104 1428.15,-118.104 1435.15,-118.104"/>
</g>
<!-- StatMove2 -->
<g id="node10" class="node"><title>StatMove2</title>
<ellipse fill="none" stroke="black" cx="1214.65" cy="-378" rx="50.0912" ry="18"/>
<text text-anchor="middle" x="1214.65" y="-374.3" font-family="Times,serif" font-size="14.00">StatMove2</text>
</g>
<!-- ExpMem6 -->
<g id="node11" class="node"><title>ExpMem6</title>
<ellipse fill="none" stroke="black" cx="1214.65" cy="-306" rx="48.9926" ry="18"/>
<text text-anchor="middle" x="1214.65" y="-302.3" font-family="Times,serif" font-size="14.00">ExpMem6</text>
</g>
<!-- StatMove2&#45;&gt;ExpMem6 -->
<g id="edge8" class="edge"><title>StatMove2&#45;&gt;ExpMem6</title>
<path fill="none" stroke="black" d="M1214.65,-359.697C1214.65,-351.983 1214.65,-342.712 1214.65,-334.112"/>
<polygon fill="black" stroke="black" points="1218.15,-334.104 1214.65,-324.104 1211.15,-334.104 1218.15,-334.104"/>
</g>
<!-- ExpMem8 -->
<g id="node12" class="node"><title>ExpMem8</title>
<ellipse fill="none" stroke="black" cx="1380.65" cy="-306" rx="48.9926" ry="18"/>
<text text-anchor="middle" x="1380.65" y="-302.3" font-family="Times,serif" font-size="14.00">ExpMem8</text>
</g>
<!-- StatMove2&#45;&gt;ExpMem8 -->
<g id="edge9" class="edge"><title>StatMove2&#45;&gt;ExpMem8</title>
<path fill="none" stroke="black" d="M1245.87,-363.834C1272.62,-352.554 1311.31,-336.238 1340.38,-323.978"/>
<polygon fill="black" stroke="black" points="1341.99,-327.1 1349.84,-319.989 1339.27,-320.65 1341.99,-327.1"/>
</g>
<!-- ExpBinary3 -->
<g id="node13" class="node"><title>ExpBinary3</title>
<ellipse fill="none" stroke="black" cx="1214.65" cy="-234" rx="53.0913" ry="18"/>
<text text-anchor="middle" x="1214.65" y="-230.3" font-family="Times,serif" font-size="14.00">ExpBinary3</text>
</g>
<!-- ExpMem6&#45;&gt;ExpBinary3 -->
<g id="edge10" class="edge"><title>ExpMem6&#45;&gt;ExpBinary3</title>
<path fill="none" stroke="black" d="M1214.65,-287.697C1214.65,-279.983 1214.65,-270.712 1214.65,-262.112"/>
<polygon fill="black" stroke="black" points="1218.15,-262.104 1214.65,-252.104 1211.15,-262.104 1218.15,-262.104"/>
</g>
<!-- ExpMem8&#45;&gt;ExpBinary4 -->
<g id="edge43" class="edge"><title>ExpMem8&#45;&gt;ExpBinary4</title>
<path fill="none" stroke="black" d="M1392.73,-288.411C1398.87,-279.992 1406.45,-269.585 1413.28,-260.201"/>
<polygon fill="black" stroke="black" points="1416.23,-262.1 1419.29,-251.956 1410.57,-257.978 1416.23,-262.1"/>
</g>
<!-- ExpConst3 -->
<g id="node14" class="node"><title>ExpConst3</title>
<ellipse fill="none" stroke="black" cx="1313.65" cy="-162" rx="50.0912" ry="18"/>
<text text-anchor="middle" x="1313.65" y="-158.3" font-family="Times,serif" font-size="14.00">ExpConst3</text>
</g>
<!-- ExpBinary3&#45;&gt;ExpConst3 -->
<g id="edge15" class="edge"><title>ExpBinary3&#45;&gt;ExpConst3</title>
<path fill="none" stroke="black" d="M1236.62,-217.465C1250.43,-207.7 1268.43,-194.972 1283.55,-184.276"/>
<polygon fill="black" stroke="black" points="1285.93,-186.882 1292.08,-178.251 1281.89,-181.167 1285.93,-186.882"/>
</g>
<!-- ExpMem7 -->
<g id="node17" class="node"><title>ExpMem7</title>
<ellipse fill="none" stroke="black" cx="1117.65" cy="-162" rx="48.9926" ry="18"/>
<text text-anchor="middle" x="1117.65" y="-158.3" font-family="Times,serif" font-size="14.00">ExpMem7</text>
</g>
<!-- ExpBinary3&#45;&gt;ExpMem7 -->
<g id="edge13" class="edge"><title>ExpBinary3&#45;&gt;ExpMem7</title>
<path fill="none" stroke="black" d="M1193.12,-217.465C1179.59,-207.7 1161.95,-194.972 1147.13,-184.276"/>
<polygon fill="black" stroke="black" points="1148.94,-181.265 1138.78,-178.251 1144.84,-186.941 1148.94,-181.265"/>
</g>
<!-- Plus3 -->
<g id="node18" class="node"><title>Plus3</title>
<ellipse fill="none" stroke="black" cx="1214.65" cy="-162" rx="30.5947" ry="18"/>
<text text-anchor="middle" x="1214.65" y="-158.3" font-family="Times,serif" font-size="14.00">Plus3</text>
</g>
<!-- ExpBinary3&#45;&gt;Plus3 -->
<g id="edge14" class="edge"><title>ExpBinary3&#45;&gt;Plus3</title>
<path fill="none" stroke="black" d="M1214.65,-215.697C1214.65,-207.983 1214.65,-198.712 1214.65,-190.112"/>
<polygon fill="black" stroke="black" points="1218.15,-190.104 1214.65,-180.104 1211.15,-190.104 1218.15,-190.104"/>
</g>
<!-- Value3: 4 -->
<g id="node15" class="node"><title>Value3: 4</title>
<ellipse fill="none" stroke="black" cx="1313.65" cy="-90" rx="45.4919" ry="18"/>
<text text-anchor="middle" x="1313.65" y="-86.3" font-family="Times,serif" font-size="14.00">Value3: 4</text>
</g>
<!-- ExpConst3&#45;&gt;Value3: 4 -->
<g id="edge11" class="edge"><title>ExpConst3&#45;&gt;Value3: 4</title>
<path fill="none" stroke="black" d="M1313.65,-143.697C1313.65,-135.983 1313.65,-126.712 1313.65,-118.112"/>
<polygon fill="black" stroke="black" points="1317.15,-118.104 1313.65,-108.104 1310.15,-118.104 1317.15,-118.104"/>
</g>
<!-- ExpTemp4 -->
<g id="node33" class="node"><title>ExpTemp4</title>
<ellipse fill="none" stroke="black" cx="1117.65" cy="-90" rx="50.0912" ry="18"/>
<text text-anchor="middle" x="1117.65" y="-86.3" font-family="Times,serif" font-size="14.00">ExpTemp4</text>
</g>
<!-- ExpMem7&#45;&gt;ExpTemp4 -->
<g id="edge28" class="edge"><title>ExpMem7&#45;&gt;ExpTemp4</title>
<path fill="none" stroke="black" d="M1117.65,-143.697C1117.65,-135.983 1117.65,-126.712 1117.65,-118.112"/>
<polygon fill="black" stroke="black" points="1121.15,-118.104 1117.65,-108.104 1114.15,-118.104 1121.15,-118.104"/>
</g>
<!-- ExpTemp1 -->
<g id="node20" class="node"><title>ExpTemp1</title>
<ellipse fill="none" stroke="black" cx="173.645" cy="-162" rx="50.0912" ry="18"/>
<text text-anchor="middle" x="173.645" y="-158.3" font-family="Times,serif" font-size="14.00">ExpTemp1</text>
</g>
<!-- Temp1: $fp -->
<g id="node21" class="node"><title>Temp1: $fp</title>
<ellipse fill="none" stroke="black" cx="175.645" cy="-90" rx="52.7911" ry="18"/>
<text text-anchor="middle" x="175.645" y="-86.3" font-family="Times,serif" font-size="14.00">Temp1: $fp</text>
</g>
<!-- ExpTemp1&#45;&gt;Temp1: $fp -->
<g id="edge17" class="edge"><title>ExpTemp1&#45;&gt;Temp1: $fp</title>
<path fill="none" stroke="black" d="M174.14,-143.697C174.36,-135.983 174.625,-126.712 174.871,-118.112"/>
<polygon fill="black" stroke="black" points="178.37,-118.2 175.157,-108.104 171.372,-118 178.37,-118.2"/>
</g>
<!-- StatMove0 -->
<g id="node22" class="node"><title>StatMove0</title>
<ellipse fill="none" stroke="black" cx="495.645" cy="-378" rx="50.0912" ry="18"/>
<text text-anchor="middle" x="495.645" y="-374.3" font-family="Times,serif" font-size="14.00">StatMove0</text>
</g>
<!-- ExpMem0 -->
<g id="node23" class="node"><title>ExpMem0</title>
<ellipse fill="none" stroke="black" cx="380.645" cy="-306" rx="48.9926" ry="18"/>
<text text-anchor="middle" x="380.645" y="-302.3" font-family="Times,serif" font-size="14.00">ExpMem0</text>
</g>
<!-- StatMove0&#45;&gt;ExpMem0 -->
<g id="edge18" class="edge"><title>StatMove0&#45;&gt;ExpMem0</title>
<path fill="none" stroke="black" d="M471.257,-362.155C454.485,-351.946 432.013,-338.267 413.644,-327.086"/>
<polygon fill="black" stroke="black" points="415.361,-324.034 404.999,-321.824 411.721,-330.013 415.361,-324.034"/>
</g>
<!-- ExpMem2 -->
<g id="node24" class="node"><title>ExpMem2</title>
<ellipse fill="none" stroke="black" cx="495.645" cy="-306" rx="48.9926" ry="18"/>
<text text-anchor="middle" x="495.645" y="-302.3" font-family="Times,serif" font-size="14.00">ExpMem2</text>
</g>
<!-- StatMove0&#45;&gt;ExpMem2 -->
<g id="edge19" class="edge"><title>StatMove0&#45;&gt;ExpMem2</title>
<path fill="none" stroke="black" d="M495.645,-359.697C495.645,-351.983 495.645,-342.712 495.645,-334.112"/>
<polygon fill="black" stroke="black" points="499.145,-334.104 495.645,-324.104 492.145,-334.104 499.145,-334.104"/>
</g>
<!-- ExpMem1 -->
<g id="node27" class="node"><title>ExpMem1</title>
<ellipse fill="none" stroke="black" cx="152.645" cy="-234" rx="48.9926" ry="18"/>
<text text-anchor="middle" x="152.645" y="-230.3" font-family="Times,serif" font-size="14.00">ExpMem1</text>
</g>
<!-- ExpMem0&#45;&gt;ExpMem1 -->
<g id="edge31" class="edge"><title>ExpMem0&#45;&gt;ExpMem1</title>
<path fill="none" stroke="black" d="M344.518,-293.908C305.027,-281.784 241.655,-262.328 198.641,-249.121"/>
<polygon fill="black" stroke="black" points="199.567,-245.745 188.98,-246.155 197.513,-252.436 199.567,-245.745"/>
</g>
<!-- ExpBinary0 -->
<g id="node35" class="node"><title>ExpBinary0</title>
<ellipse fill="none" stroke="black" cx="321.645" cy="-234" rx="53.0913" ry="18"/>
<text text-anchor="middle" x="321.645" y="-230.3" font-family="Times,serif" font-size="14.00">ExpBinary0</text>
</g>
<!-- ExpMem2&#45;&gt;ExpBinary0 -->
<g id="edge30" class="edge"><title>ExpMem2&#45;&gt;ExpBinary0</title>
<path fill="none" stroke="black" d="M463.731,-292.161C435.756,-280.907 394.872,-264.459 364.134,-252.093"/>
<polygon fill="black" stroke="black" points="365.123,-248.719 354.54,-248.233 362.511,-255.213 365.123,-248.719"/>
</g>
<!-- ExpConst0 -->
<g id="node25" class="node"><title>ExpConst0</title>
<ellipse fill="none" stroke="black" cx="371.645" cy="-162" rx="50.0912" ry="18"/>
<text text-anchor="middle" x="371.645" y="-158.3" font-family="Times,serif" font-size="14.00">ExpConst0</text>
</g>
<!-- Value0: 4 -->
<g id="node26" class="node"><title>Value0: 4</title>
<ellipse fill="none" stroke="black" cx="371.645" cy="-90" rx="45.4919" ry="18"/>
<text text-anchor="middle" x="371.645" y="-86.3" font-family="Times,serif" font-size="14.00">Value0: 4</text>
</g>
<!-- ExpConst0&#45;&gt;Value0: 4 -->
<g id="edge20" class="edge"><title>ExpConst0&#45;&gt;Value0: 4</title>
<path fill="none" stroke="black" d="M371.645,-143.697C371.645,-135.983 371.645,-126.712 371.645,-118.112"/>
<polygon fill="black" stroke="black" points="375.145,-118.104 371.645,-108.104 368.145,-118.104 375.145,-118.104"/>
</g>
<!-- ExpTemp0 -->
<g id="node28" class="node"><title>ExpTemp0</title>
<ellipse fill="none" stroke="black" cx="54.6453" cy="-162" rx="50.0912" ry="18"/>
<text text-anchor="middle" x="54.6453" y="-158.3" font-family="Times,serif" font-size="14.00">ExpTemp0</text>
</g>
<!-- ExpMem1&#45;&gt;ExpTemp0 -->
<g id="edge21" class="edge"><title>ExpMem1&#45;&gt;ExpTemp0</title>
<path fill="none" stroke="black" d="M130.896,-217.465C117.32,-207.768 99.6522,-195.148 84.7422,-184.498"/>
<polygon fill="black" stroke="black" points="86.5056,-181.456 76.3339,-178.492 82.4369,-187.152 86.5056,-181.456"/>
</g>
<!-- Temp0: $fp -->
<g id="node34" class="node"><title>Temp0: $fp</title>
<ellipse fill="none" stroke="black" cx="52.6453" cy="-90" rx="52.7911" ry="18"/>
<text text-anchor="middle" x="52.6453" y="-86.3" font-family="Times,serif" font-size="14.00">Temp0: $fp</text>
</g>
<!-- ExpTemp0&#45;&gt;Temp0: $fp -->
<g id="edge29" class="edge"><title>ExpTemp0&#45;&gt;Temp0: $fp</title>
<path fill="none" stroke="black" d="M54.1509,-143.697C53.9305,-135.983 53.6657,-126.712 53.42,-118.112"/>
<polygon fill="black" stroke="black" points="56.9183,-118 53.134,-108.104 49.9211,-118.2 56.9183,-118"/>
</g>
<!-- StatLabel0 -->
<g id="node29" class="node"><title>StatLabel0</title>
<ellipse fill="none" stroke="black" cx="301.645" cy="-378" rx="48.9926" ry="18"/>
<text text-anchor="middle" x="301.645" y="-374.3" font-family="Times,serif" font-size="14.00">StatLabel0</text>
</g>
<!-- Label0: Element@Init -->
<g id="node30" class="node"><title>Label0: Element@Init</title>
<ellipse fill="none" stroke="black" cx="223.645" cy="-306" rx="90.1842" ry="18"/>
<text text-anchor="middle" x="223.645" y="-302.3" font-family="Times,serif" font-size="14.00">Label0: Element@Init</text>
</g>
<!-- StatLabel0&#45;&gt;Label0: Element@Init -->
<g id="edge22" class="edge"><title>StatLabel0&#45;&gt;Label0: Element@Init</title>
<path fill="none" stroke="black" d="M283.946,-361.116C273.866,-352.07 261.049,-340.567 249.825,-330.494"/>
<polygon fill="black" stroke="black" points="252.143,-327.872 242.362,-323.797 247.467,-333.081 252.143,-327.872"/>
</g>
<!-- StatList0 -->
<g id="node31" class="node"><title>StatList0</title>
<ellipse fill="none" stroke="black" cx="719.645" cy="-450" rx="42.4939" ry="18"/>
<text text-anchor="middle" x="719.645" y="-446.3" font-family="Times,serif" font-size="14.00">StatList0</text>
</g>
<!-- StatList0&#45;&gt;StatMove3 -->
<g id="edge27" class="edge"><title>StatList0&#45;&gt;StatMove3</title>
<path fill="none" stroke="black" d="M760.768,-445.553C897.519,-434.088 1337.33,-397.218 1496.48,-383.876"/>
<polygon fill="black" stroke="black" points="1496.88,-387.355 1506.55,-383.032 1496.29,-380.38 1496.88,-387.355"/>
</g>
<!-- StatList0&#45;&gt;StatMove2 -->
<g id="edge26" class="edge"><title>StatList0&#45;&gt;StatMove2</title>
<path fill="none" stroke="black" d="M759.317,-443.39C847.038,-430.985 1057.69,-401.196 1158.73,-386.907"/>
<polygon fill="black" stroke="black" points="1159.33,-390.357 1168.74,-385.491 1158.35,-383.426 1159.33,-390.357"/>
</g>
<!-- StatList0&#45;&gt;StatMove0 -->
<g id="edge24" class="edge"><title>StatList0&#45;&gt;StatMove0</title>
<path fill="none" stroke="black" d="M686.593,-438.671C648.319,-426.711 585.018,-406.929 541.877,-393.447"/>
<polygon fill="black" stroke="black" points="542.773,-390.061 532.184,-390.418 540.685,-396.742 542.773,-390.061"/>
</g>
<!-- StatList0&#45;&gt;StatLabel0 -->
<g id="edge23" class="edge"><title>StatList0&#45;&gt;StatLabel0</title>
<path fill="none" stroke="black" d="M681.07,-442.54C606.104,-429.986 440.621,-402.273 355.117,-387.955"/>
<polygon fill="black" stroke="black" points="355.539,-384.477 345.098,-386.277 354.382,-391.38 355.539,-384.477"/>
</g>
<!-- StatMove1 -->
<g id="node32" class="node"><title>StatMove1</title>
<ellipse fill="none" stroke="black" cx="719.645" cy="-378" rx="50.0912" ry="18"/>
<text text-anchor="middle" x="719.645" y="-374.3" font-family="Times,serif" font-size="14.00">StatMove1</text>
</g>
<!-- StatList0&#45;&gt;StatMove1 -->
<g id="edge25" class="edge"><title>StatList0&#45;&gt;StatMove1</title>
<path fill="none" stroke="black" d="M719.645,-431.697C719.645,-423.983 719.645,-414.712 719.645,-406.112"/>
<polygon fill="black" stroke="black" points="723.145,-406.104 719.645,-396.104 716.145,-406.104 723.145,-406.104"/>
</g>
<!-- ExpMem3 -->
<g id="node40" class="node"><title>ExpMem3</title>
<ellipse fill="none" stroke="black" cx="611.645" cy="-306" rx="48.9926" ry="18"/>
<text text-anchor="middle" x="611.645" y="-302.3" font-family="Times,serif" font-size="14.00">ExpMem3</text>
</g>
<!-- StatMove1&#45;&gt;ExpMem3 -->
<g id="edge49" class="edge"><title>StatMove1&#45;&gt;ExpMem3</title>
<path fill="none" stroke="black" d="M696.477,-361.983C680.959,-351.926 660.334,-338.557 643.306,-327.521"/>
<polygon fill="black" stroke="black" points="645.071,-324.494 634.776,-321.992 641.264,-330.368 645.071,-324.494"/>
</g>
<!-- ExpMem5 -->
<g id="node52" class="node"><title>ExpMem5</title>
<ellipse fill="none" stroke="black" cx="826.645" cy="-306" rx="48.9926" ry="18"/>
<text text-anchor="middle" x="826.645" y="-302.3" font-family="Times,serif" font-size="14.00">ExpMem5</text>
</g>
<!-- StatMove1&#45;&gt;ExpMem5 -->
<g id="edge50" class="edge"><title>StatMove1&#45;&gt;ExpMem5</title>
<path fill="none" stroke="black" d="M742.6,-361.983C757.973,-351.926 778.408,-338.557 795.278,-327.521"/>
<polygon fill="black" stroke="black" points="797.277,-330.395 803.729,-321.992 793.445,-324.538 797.277,-330.395"/>
</g>
<!-- Temp4: $fp -->
<g id="node50" class="node"><title>Temp4: $fp</title>
<ellipse fill="none" stroke="black" cx="1117.65" cy="-18" rx="52.7911" ry="18"/>
<text text-anchor="middle" x="1117.65" y="-14.3" font-family="Times,serif" font-size="14.00">Temp4: $fp</text>
</g>
<!-- ExpTemp4&#45;&gt;Temp4: $fp -->
<g id="edge47" class="edge"><title>ExpTemp4&#45;&gt;Temp4: $fp</title>
<path fill="none" stroke="black" d="M1117.65,-71.6966C1117.65,-63.9827 1117.65,-54.7125 1117.65,-46.1124"/>
<polygon fill="black" stroke="black" points="1121.15,-46.1043 1117.65,-36.1043 1114.15,-46.1044 1121.15,-46.1043"/>
</g>
<!-- ExpBinary0&#45;&gt;ExpTemp1 -->
<g id="edge37" class="edge"><title>ExpBinary0&#45;&gt;ExpTemp1</title>
<path fill="none" stroke="black" d="M292.051,-219.003C269.013,-208.106 236.862,-192.9 211.876,-181.082"/>
<polygon fill="black" stroke="black" points="213.22,-177.846 202.684,-176.734 210.227,-184.174 213.22,-177.846"/>
</g>
<!-- ExpBinary0&#45;&gt;ExpConst0 -->
<g id="edge39" class="edge"><title>ExpBinary0&#45;&gt;ExpConst0</title>
<path fill="none" stroke="black" d="M333.495,-216.411C339.509,-207.992 346.942,-197.585 353.645,-188.201"/>
<polygon fill="black" stroke="black" points="356.569,-190.128 359.534,-179.956 350.873,-186.059 356.569,-190.128"/>
</g>
<!-- Plus0 -->
<g id="node43" class="node"><title>Plus0</title>
<ellipse fill="none" stroke="black" cx="272.645" cy="-162" rx="30.5947" ry="18"/>
<text text-anchor="middle" x="272.645" y="-158.3" font-family="Times,serif" font-size="14.00">Plus0</text>
</g>
<!-- ExpBinary0&#45;&gt;Plus0 -->
<g id="edge38" class="edge"><title>ExpBinary0&#45;&gt;Plus0</title>
<path fill="none" stroke="black" d="M310.033,-216.411C303.966,-207.744 296.425,-196.971 289.708,-187.375"/>
<polygon fill="black" stroke="black" points="292.439,-185.173 283.837,-178.988 286.704,-189.188 292.439,-185.173"/>
</g>
<!-- ExpBinary1 -->
<g id="node36" class="node"><title>ExpBinary1</title>
<ellipse fill="none" stroke="black" cx="598.645" cy="-234" rx="53.0913" ry="18"/>
<text text-anchor="middle" x="598.645" y="-230.3" font-family="Times,serif" font-size="14.00">ExpBinary1</text>
</g>
<!-- ExpMem4 -->
<g id="node37" class="node"><title>ExpMem4</title>
<ellipse fill="none" stroke="black" cx="488.645" cy="-162" rx="48.9926" ry="18"/>
<text text-anchor="middle" x="488.645" y="-158.3" font-family="Times,serif" font-size="14.00">ExpMem4</text>
</g>
<!-- ExpBinary1&#45;&gt;ExpMem4 -->
<g id="edge32" class="edge"><title>ExpBinary1&#45;&gt;ExpMem4</title>
<path fill="none" stroke="black" d="M574.777,-217.811C558.957,-207.744 538.014,-194.417 520.741,-183.425"/>
<polygon fill="black" stroke="black" points="522.405,-180.335 512.089,-177.919 518.647,-186.24 522.405,-180.335"/>
</g>
<!-- Plus1 -->
<g id="node38" class="node"><title>Plus1</title>
<ellipse fill="none" stroke="black" cx="585.645" cy="-162" rx="30.5947" ry="18"/>
<text text-anchor="middle" x="585.645" y="-158.3" font-family="Times,serif" font-size="14.00">Plus1</text>
</g>
<!-- ExpBinary1&#45;&gt;Plus1 -->
<g id="edge33" class="edge"><title>ExpBinary1&#45;&gt;Plus1</title>
<path fill="none" stroke="black" d="M595.432,-215.697C593.999,-207.983 592.278,-198.712 590.68,-190.112"/>
<polygon fill="black" stroke="black" points="594.089,-189.297 588.822,-180.104 587.207,-190.575 594.089,-189.297"/>
</g>
<!-- ExpConst1 -->
<g id="node39" class="node"><title>ExpConst1</title>
<ellipse fill="none" stroke="black" cx="684.645" cy="-162" rx="50.0912" ry="18"/>
<text text-anchor="middle" x="684.645" y="-158.3" font-family="Times,serif" font-size="14.00">ExpConst1</text>
</g>
<!-- ExpBinary1&#45;&gt;ExpConst1 -->
<g id="edge34" class="edge"><title>ExpBinary1&#45;&gt;ExpConst1</title>
<path fill="none" stroke="black" d="M618.16,-217.116C629.705,-207.718 644.509,-195.669 657.216,-185.326"/>
<polygon fill="black" stroke="black" points="659.662,-187.848 665.208,-178.821 655.243,-182.419 659.662,-187.848"/>
</g>
<!-- ExpTemp2 -->
<g id="node41" class="node"><title>ExpTemp2</title>
<ellipse fill="none" stroke="black" cx="488.645" cy="-90" rx="50.0912" ry="18"/>
<text text-anchor="middle" x="488.645" y="-86.3" font-family="Times,serif" font-size="14.00">ExpTemp2</text>
</g>
<!-- ExpMem4&#45;&gt;ExpTemp2 -->
<g id="edge40" class="edge"><title>ExpMem4&#45;&gt;ExpTemp2</title>
<path fill="none" stroke="black" d="M488.645,-143.697C488.645,-135.983 488.645,-126.712 488.645,-118.112"/>
<polygon fill="black" stroke="black" points="492.145,-118.104 488.645,-108.104 485.145,-118.104 492.145,-118.104"/>
</g>
<!-- Value1: 8 -->
<g id="node44" class="node"><title>Value1: 8</title>
<ellipse fill="none" stroke="black" cx="684.645" cy="-90" rx="45.4919" ry="18"/>
<text text-anchor="middle" x="684.645" y="-86.3" font-family="Times,serif" font-size="14.00">Value1: 8</text>
</g>
<!-- ExpConst1&#45;&gt;Value1: 8 -->
<g id="edge41" class="edge"><title>ExpConst1&#45;&gt;Value1: 8</title>
<path fill="none" stroke="black" d="M684.645,-143.697C684.645,-135.983 684.645,-126.712 684.645,-118.112"/>
<polygon fill="black" stroke="black" points="688.145,-118.104 684.645,-108.104 681.145,-118.104 688.145,-118.104"/>
</g>
<!-- ExpMem3&#45;&gt;ExpBinary1 -->
<g id="edge35" class="edge"><title>ExpMem3&#45;&gt;ExpBinary1</title>
<path fill="none" stroke="black" d="M608.432,-287.697C606.999,-279.983 605.278,-270.712 603.68,-262.112"/>
<polygon fill="black" stroke="black" points="607.089,-261.297 601.822,-252.104 600.207,-262.575 607.089,-261.297"/>
</g>
<!-- Temp2: $fp -->
<g id="node42" class="node"><title>Temp2: $fp</title>
<ellipse fill="none" stroke="black" cx="488.645" cy="-18" rx="52.7911" ry="18"/>
<text text-anchor="middle" x="488.645" y="-14.3" font-family="Times,serif" font-size="14.00">Temp2: $fp</text>
</g>
<!-- ExpTemp2&#45;&gt;Temp2: $fp -->
<g id="edge36" class="edge"><title>ExpTemp2&#45;&gt;Temp2: $fp</title>
<path fill="none" stroke="black" d="M488.645,-71.6966C488.645,-63.9827 488.645,-54.7125 488.645,-46.1124"/>
<polygon fill="black" stroke="black" points="492.145,-46.1043 488.645,-36.1043 485.145,-46.1044 492.145,-46.1043"/>
</g>
<!-- ExpTemp3 -->
<g id="node45" class="node"><title>ExpTemp3</title>
<ellipse fill="none" stroke="black" cx="802.645" cy="-162" rx="50.0912" ry="18"/>
<text text-anchor="middle" x="802.645" y="-158.3" font-family="Times,serif" font-size="14.00">ExpTemp3</text>
</g>
<!-- Temp3: $fp -->
<g id="node46" class="node"><title>Temp3: $fp</title>
<ellipse fill="none" stroke="black" cx="802.645" cy="-90" rx="52.7911" ry="18"/>
<text text-anchor="middle" x="802.645" y="-86.3" font-family="Times,serif" font-size="14.00">Temp3: $fp</text>
</g>
<!-- ExpTemp3&#45;&gt;Temp3: $fp -->
<g id="edge42" class="edge"><title>ExpTemp3&#45;&gt;Temp3: $fp</title>
<path fill="none" stroke="black" d="M802.645,-143.697C802.645,-135.983 802.645,-126.712 802.645,-118.112"/>
<polygon fill="black" stroke="black" points="806.145,-118.104 802.645,-108.104 799.145,-118.104 806.145,-118.104"/>
</g>
<!-- ExpBinary2 -->
<g id="node47" class="node"><title>ExpBinary2</title>
<ellipse fill="none" stroke="black" cx="876.645" cy="-234" rx="53.0913" ry="18"/>
<text text-anchor="middle" x="876.645" y="-230.3" font-family="Times,serif" font-size="14.00">ExpBinary2</text>
</g>
<!-- ExpBinary2&#45;&gt;ExpTemp3 -->
<g id="edge44" class="edge"><title>ExpBinary2&#45;&gt;ExpTemp3</title>
<path fill="none" stroke="black" d="M859.482,-216.765C849.862,-207.665 837.702,-196.162 827.101,-186.134"/>
<polygon fill="black" stroke="black" points="829.385,-183.477 819.715,-179.147 824.575,-188.562 829.385,-183.477"/>
</g>
<!-- Plus2 -->
<g id="node48" class="node"><title>Plus2</title>
<ellipse fill="none" stroke="black" cx="901.645" cy="-162" rx="30.5947" ry="18"/>
<text text-anchor="middle" x="901.645" y="-158.3" font-family="Times,serif" font-size="14.00">Plus2</text>
</g>
<!-- ExpBinary2&#45;&gt;Plus2 -->
<g id="edge45" class="edge"><title>ExpBinary2&#45;&gt;Plus2</title>
<path fill="none" stroke="black" d="M882.697,-216.055C885.553,-208.059 889.027,-198.331 892.217,-189.4"/>
<polygon fill="black" stroke="black" points="895.582,-190.384 895.649,-179.789 888.99,-188.029 895.582,-190.384"/>
</g>
<!-- ExpConst2 -->
<g id="node49" class="node"><title>ExpConst2</title>
<ellipse fill="none" stroke="black" cx="1000.65" cy="-162" rx="50.0912" ry="18"/>
<text text-anchor="middle" x="1000.65" y="-158.3" font-family="Times,serif" font-size="14.00">ExpConst2</text>
</g>
<!-- ExpBinary2&#45;&gt;ExpConst2 -->
<g id="edge46" class="edge"><title>ExpBinary2&#45;&gt;ExpConst2</title>
<path fill="none" stroke="black" d="M902.943,-218.155C921.314,-207.784 946.03,-193.831 966.006,-182.554"/>
<polygon fill="black" stroke="black" points="967.824,-185.548 974.811,-177.584 964.382,-179.452 967.824,-185.548"/>
</g>
<!-- Value2: 8 -->
<g id="node51" class="node"><title>Value2: 8</title>
<ellipse fill="none" stroke="black" cx="1000.65" cy="-90" rx="45.4919" ry="18"/>
<text text-anchor="middle" x="1000.65" y="-86.3" font-family="Times,serif" font-size="14.00">Value2: 8</text>
</g>
<!-- ExpConst2&#45;&gt;Value2: 8 -->
<g id="edge48" class="edge"><title>ExpConst2&#45;&gt;Value2: 8</title>
<path fill="none" stroke="black" d="M1000.65,-143.697C1000.65,-135.983 1000.65,-126.712 1000.65,-118.112"/>
<polygon fill="black" stroke="black" points="1004.15,-118.104 1000.65,-108.104 997.145,-118.104 1004.15,-118.104"/>
</g>
<!-- ExpMem5&#45;&gt;ExpBinary2 -->
<g id="edge51" class="edge"><title>ExpMem5&#45;&gt;ExpBinary2</title>
<path fill="none" stroke="black" d="M838.495,-288.411C844.509,-279.992 851.942,-269.585 858.645,-260.201"/>
<polygon fill="black" stroke="black" points="861.569,-262.128 864.534,-251.956 855.873,-258.059 861.569,-262.128"/>
</g>
</g>
</svg>
