<?xml version="1.0" encoding="UTF-8" standalone="no"?>
<!DOCTYPE svg PUBLIC "-//W3C//DTD SVG 1.1//EN"
 "http://www.w3.org/Graphics/SVG/1.1/DTD/svg11.dtd">
<!-- Generated by graphviz version 2.38.0 (20140413.2041)
 -->
<!-- Title: %3 Pages: 1 -->
<svg width="589pt" height="476pt"
 viewBox="0.00 0.00 589.39 476.00" xmlns="http://www.w3.org/2000/svg" xmlns:xlink="http://www.w3.org/1999/xlink">
<g id="graph0" class="graph" transform="scale(1 1) rotate(0) translate(4 472)">
<title>%3</title>
<polygon fill="white" stroke="none" points="-4,4 -4,-472 585.385,-472 585.385,4 -4,4"/>
<!-- ExpMem0 -->
<g id="node1" class="node"><title>ExpMem0</title>
<ellipse fill="none" stroke="black" cx="427.34" cy="-306" rx="48.9926" ry="18"/>
<text text-anchor="middle" x="427.34" y="-302.3" font-family="Times,serif" font-size="14.00">ExpMem0</text>
</g>
<!-- ExpBinary0 -->
<g id="node2" class="node"><title>ExpBinary0</title>
<ellipse fill="none" stroke="black" cx="432.34" cy="-234" rx="53.0913" ry="18"/>
<text text-anchor="middle" x="432.34" y="-230.3" font-family="Times,serif" font-size="14.00">ExpBinary0</text>
</g>
<!-- ExpMem0&#45;&gt;ExpBinary0 -->
<g id="edge1" class="edge"><title>ExpMem0&#45;&gt;ExpBinary0</title>
<path fill="none" stroke="black" d="M428.576,-287.697C429.127,-279.983 429.789,-270.712 430.403,-262.112"/>
<polygon fill="black" stroke="black" points="433.896,-262.328 431.118,-252.104 426.914,-261.83 433.896,-262.328"/>
</g>
<!-- ExpMem1 -->
<g id="node3" class="node"><title>ExpMem1</title>
<ellipse fill="none" stroke="black" cx="335.34" cy="-162" rx="48.9926" ry="18"/>
<text text-anchor="middle" x="335.34" y="-158.3" font-family="Times,serif" font-size="14.00">ExpMem1</text>
</g>
<!-- ExpBinary0&#45;&gt;ExpMem1 -->
<g id="edge9" class="edge"><title>ExpBinary0&#45;&gt;ExpMem1</title>
<path fill="none" stroke="black" d="M410.812,-217.465C397.282,-207.7 379.644,-194.972 364.822,-184.276"/>
<polygon fill="black" stroke="black" points="366.63,-181.265 356.473,-178.251 362.534,-186.941 366.63,-181.265"/>
</g>
<!-- ExpConst0 -->
<g id="node6" class="node"><title>ExpConst0</title>
<ellipse fill="none" stroke="black" cx="531.34" cy="-162" rx="50.0912" ry="18"/>
<text text-anchor="middle" x="531.34" y="-158.3" font-family="Times,serif" font-size="14.00">ExpConst0</text>
</g>
<!-- ExpBinary0&#45;&gt;ExpConst0 -->
<g id="edge11" class="edge"><title>ExpBinary0&#45;&gt;ExpConst0</title>
<path fill="none" stroke="black" d="M454.311,-217.465C468.121,-207.7 486.122,-194.972 501.249,-184.276"/>
<polygon fill="black" stroke="black" points="503.626,-186.882 509.77,-178.251 499.585,-181.167 503.626,-186.882"/>
</g>
<!-- Plus0 -->
<g id="node14" class="node"><title>Plus0</title>
<ellipse fill="none" stroke="black" cx="432.34" cy="-162" rx="30.5947" ry="18"/>
<text text-anchor="middle" x="432.34" y="-158.3" font-family="Times,serif" font-size="14.00">Plus0</text>
</g>
<!-- ExpBinary0&#45;&gt;Plus0 -->
<g id="edge10" class="edge"><title>ExpBinary0&#45;&gt;Plus0</title>
<path fill="none" stroke="black" d="M432.34,-215.697C432.34,-207.983 432.34,-198.712 432.34,-190.112"/>
<polygon fill="black" stroke="black" points="435.84,-190.104 432.34,-180.104 428.84,-190.104 435.84,-190.104"/>
</g>
<!-- ExpTemp1 -->
<g id="node4" class="node"><title>ExpTemp1</title>
<ellipse fill="none" stroke="black" cx="335.34" cy="-90" rx="50.0912" ry="18"/>
<text text-anchor="middle" x="335.34" y="-86.3" font-family="Times,serif" font-size="14.00">ExpTemp1</text>
</g>
<!-- ExpMem1&#45;&gt;ExpTemp1 -->
<g id="edge2" class="edge"><title>ExpMem1&#45;&gt;ExpTemp1</title>
<path fill="none" stroke="black" d="M335.34,-143.697C335.34,-135.983 335.34,-126.712 335.34,-118.112"/>
<polygon fill="black" stroke="black" points="338.84,-118.104 335.34,-108.104 331.84,-118.104 338.84,-118.104"/>
</g>
<!-- Temp1: FP -->
<g id="node5" class="node"><title>Temp1: FP</title>
<ellipse fill="none" stroke="black" cx="335.34" cy="-18" rx="50.8918" ry="18"/>
<text text-anchor="middle" x="335.34" y="-14.3" font-family="Times,serif" font-size="14.00">Temp1: FP</text>
</g>
<!-- ExpTemp1&#45;&gt;Temp1: FP -->
<g id="edge3" class="edge"><title>ExpTemp1&#45;&gt;Temp1: FP</title>
<path fill="none" stroke="black" d="M335.34,-71.6966C335.34,-63.9827 335.34,-54.7125 335.34,-46.1124"/>
<polygon fill="black" stroke="black" points="338.84,-46.1043 335.34,-36.1043 331.84,-46.1044 338.84,-46.1043"/>
</g>
<!-- Value0: 4 -->
<g id="node7" class="node"><title>Value0: 4</title>
<ellipse fill="none" stroke="black" cx="531.34" cy="-90" rx="45.4919" ry="18"/>
<text text-anchor="middle" x="531.34" y="-86.3" font-family="Times,serif" font-size="14.00">Value0: 4</text>
</g>
<!-- ExpConst0&#45;&gt;Value0: 4 -->
<g id="edge4" class="edge"><title>ExpConst0&#45;&gt;Value0: 4</title>
<path fill="none" stroke="black" d="M531.34,-143.697C531.34,-135.983 531.34,-126.712 531.34,-118.112"/>
<polygon fill="black" stroke="black" points="534.84,-118.104 531.34,-108.104 527.84,-118.104 534.84,-118.104"/>
</g>
<!-- StatLabel0 -->
<g id="node8" class="node"><title>StatLabel0</title>
<ellipse fill="none" stroke="black" cx="150.34" cy="-378" rx="48.9926" ry="18"/>
<text text-anchor="middle" x="150.34" y="-374.3" font-family="Times,serif" font-size="14.00">StatLabel0</text>
</g>
<!-- Label0: Element::GetMarried -->
<g id="node9" class="node"><title>Label0: Element::GetMarried</title>
<ellipse fill="none" stroke="black" cx="116.34" cy="-306" rx="116.18" ry="18"/>
<text text-anchor="middle" x="116.34" y="-302.3" font-family="Times,serif" font-size="14.00">Label0: Element::GetMarried</text>
</g>
<!-- StatLabel0&#45;&gt;Label0: Element::GetMarried -->
<g id="edge5" class="edge"><title>StatLabel0&#45;&gt;Label0: Element::GetMarried</title>
<path fill="none" stroke="black" d="M142.109,-360.055C138.241,-352.091 133.539,-342.411 129.216,-333.51"/>
<polygon fill="black" stroke="black" points="132.248,-331.741 124.731,-324.275 125.951,-334.8 132.248,-331.741"/>
</g>
<!-- StatSeq0 -->
<g id="node10" class="node"><title>StatSeq0</title>
<ellipse fill="none" stroke="black" cx="225.34" cy="-450" rx="42.4939" ry="18"/>
<text text-anchor="middle" x="225.34" y="-446.3" font-family="Times,serif" font-size="14.00">StatSeq0</text>
</g>
<!-- StatSeq0&#45;&gt;StatLabel0 -->
<g id="edge6" class="edge"><title>StatSeq0&#45;&gt;StatLabel0</title>
<path fill="none" stroke="black" d="M208.321,-433.116C198.514,-423.962 186.01,-412.293 175.127,-402.135"/>
<polygon fill="black" stroke="black" points="177.249,-399.328 167.551,-395.064 172.473,-404.445 177.249,-399.328"/>
</g>
<!-- StatMove0 -->
<g id="node11" class="node"><title>StatMove0</title>
<ellipse fill="none" stroke="black" cx="300.34" cy="-378" rx="50.0912" ry="18"/>
<text text-anchor="middle" x="300.34" y="-374.3" font-family="Times,serif" font-size="14.00">StatMove0</text>
</g>
<!-- StatSeq0&#45;&gt;StatMove0 -->
<g id="edge7" class="edge"><title>StatSeq0&#45;&gt;StatMove0</title>
<path fill="none" stroke="black" d="M242.358,-433.116C252.166,-423.962 264.669,-412.293 275.552,-402.135"/>
<polygon fill="black" stroke="black" points="278.206,-404.445 283.129,-395.064 273.43,-399.328 278.206,-404.445"/>
</g>
<!-- StatMove0&#45;&gt;ExpMem0 -->
<g id="edge13" class="edge"><title>StatMove0&#45;&gt;ExpMem0</title>
<path fill="none" stroke="black" d="M326.654,-362.496C345.641,-352.031 371.476,-337.791 392.222,-326.356"/>
<polygon fill="black" stroke="black" points="393.991,-329.378 401.059,-321.485 390.612,-323.247 393.991,-329.378"/>
</g>
<!-- ExpTemp0 -->
<g id="node12" class="node"><title>ExpTemp0</title>
<ellipse fill="none" stroke="black" cx="300.34" cy="-306" rx="50.0912" ry="18"/>
<text text-anchor="middle" x="300.34" y="-302.3" font-family="Times,serif" font-size="14.00">ExpTemp0</text>
</g>
<!-- StatMove0&#45;&gt;ExpTemp0 -->
<g id="edge12" class="edge"><title>StatMove0&#45;&gt;ExpTemp0</title>
<path fill="none" stroke="black" d="M300.34,-359.697C300.34,-351.983 300.34,-342.712 300.34,-334.112"/>
<polygon fill="black" stroke="black" points="303.84,-334.104 300.34,-324.104 296.84,-334.104 303.84,-334.104"/>
</g>
<!-- Temp0: RetVal -->
<g id="node13" class="node"><title>Temp0: RetVal</title>
<ellipse fill="none" stroke="black" cx="295.34" cy="-234" rx="65.7887" ry="18"/>
<text text-anchor="middle" x="295.34" y="-230.3" font-family="Times,serif" font-size="14.00">Temp0: RetVal</text>
</g>
<!-- ExpTemp0&#45;&gt;Temp0: RetVal -->
<g id="edge8" class="edge"><title>ExpTemp0&#45;&gt;Temp0: RetVal</title>
<path fill="none" stroke="black" d="M299.104,-287.697C298.553,-279.983 297.891,-270.712 297.276,-262.112"/>
<polygon fill="black" stroke="black" points="300.765,-261.83 296.561,-252.104 293.783,-262.328 300.765,-261.83"/>
</g>
</g>
</svg>
