<?xml version="1.0" encoding="UTF-8" standalone="no"?>
<!DOCTYPE svg PUBLIC "-//W3C//DTD SVG 1.1//EN"
 "http://www.w3.org/Graphics/SVG/1.1/DTD/svg11.dtd">
<!-- Generated by graphviz version 2.38.0 (20140413.2041)
 -->
<!-- Title: %3 Pages: 1 -->
<svg width="1644pt" height="692pt"
 viewBox="0.00 0.00 1643.74 692.00" xmlns="http://www.w3.org/2000/svg" xmlns:xlink="http://www.w3.org/1999/xlink">
<g id="graph0" class="graph" transform="scale(1 1) rotate(0) translate(4 688)">
<title>%3</title>
<polygon fill="white" stroke="none" points="-4,4 -4,-688 1639.74,-688 1639.74,4 -4,4"/>
<!-- StatMove3 -->
<g id="node1" class="node"><title>StatMove3</title>
<ellipse fill="none" stroke="black" cx="1158.7" cy="-522" rx="50.0912" ry="18"/>
<text text-anchor="middle" x="1158.7" y="-518.3" font-family="Times,serif" font-size="14.00">StatMove3</text>
</g>
<!-- ExpTemp6 -->
<g id="node2" class="node"><title>ExpTemp6</title>
<ellipse fill="none" stroke="black" cx="1158.7" cy="-450" rx="50.0912" ry="18"/>
<text text-anchor="middle" x="1158.7" y="-446.3" font-family="Times,serif" font-size="14.00">ExpTemp6</text>
</g>
<!-- StatMove3&#45;&gt;ExpTemp6 -->
<g id="edge1" class="edge"><title>StatMove3&#45;&gt;ExpTemp6</title>
<path fill="none" stroke="black" d="M1158.7,-503.697C1158.7,-495.983 1158.7,-486.712 1158.7,-478.112"/>
<polygon fill="black" stroke="black" points="1162.2,-478.104 1158.7,-468.104 1155.2,-478.104 1162.2,-478.104"/>
</g>
<!-- ExpConst5 -->
<g id="node3" class="node"><title>ExpConst5</title>
<ellipse fill="none" stroke="black" cx="1281.7" cy="-450" rx="50.0912" ry="18"/>
<text text-anchor="middle" x="1281.7" y="-446.3" font-family="Times,serif" font-size="14.00">ExpConst5</text>
</g>
<!-- StatMove3&#45;&gt;ExpConst5 -->
<g id="edge2" class="edge"><title>StatMove3&#45;&gt;ExpConst5</title>
<path fill="none" stroke="black" d="M1184.18,-506.496C1202.37,-496.147 1227.04,-482.107 1247.01,-470.739"/>
<polygon fill="black" stroke="black" points="1248.86,-473.714 1255.82,-465.726 1245.4,-467.631 1248.86,-473.714"/>
</g>
<!-- Temp6: RetVal -->
<g id="node4" class="node"><title>Temp6: RetVal</title>
<ellipse fill="none" stroke="black" cx="1158.7" cy="-378" rx="65.7887" ry="18"/>
<text text-anchor="middle" x="1158.7" y="-374.3" font-family="Times,serif" font-size="14.00">Temp6: RetVal</text>
</g>
<!-- ExpTemp6&#45;&gt;Temp6: RetVal -->
<g id="edge3" class="edge"><title>ExpTemp6&#45;&gt;Temp6: RetVal</title>
<path fill="none" stroke="black" d="M1158.7,-431.697C1158.7,-423.983 1158.7,-414.712 1158.7,-406.112"/>
<polygon fill="black" stroke="black" points="1162.2,-406.104 1158.7,-396.104 1155.2,-406.104 1162.2,-406.104"/>
</g>
<!-- Value5: 1 -->
<g id="node16" class="node"><title>Value5: 1</title>
<ellipse fill="none" stroke="black" cx="1287.7" cy="-378" rx="45.4919" ry="18"/>
<text text-anchor="middle" x="1287.7" y="-374.3" font-family="Times,serif" font-size="14.00">Value5: 1</text>
</g>
<!-- ExpConst5&#45;&gt;Value5: 1 -->
<g id="edge12" class="edge"><title>ExpConst5&#45;&gt;Value5: 1</title>
<path fill="none" stroke="black" d="M1283.18,-431.697C1283.84,-423.983 1284.63,-414.712 1285.37,-406.112"/>
<polygon fill="black" stroke="black" points="1288.86,-406.367 1286.23,-396.104 1281.89,-405.769 1288.86,-406.367"/>
</g>
<!-- ExpConst4 -->
<g id="node5" class="node"><title>ExpConst4</title>
<ellipse fill="none" stroke="black" cx="1585.7" cy="-162" rx="50.0912" ry="18"/>
<text text-anchor="middle" x="1585.7" y="-158.3" font-family="Times,serif" font-size="14.00">ExpConst4</text>
</g>
<!-- Value4: 8 -->
<g id="node6" class="node"><title>Value4: 8</title>
<ellipse fill="none" stroke="black" cx="1585.7" cy="-90" rx="45.4919" ry="18"/>
<text text-anchor="middle" x="1585.7" y="-86.3" font-family="Times,serif" font-size="14.00">Value4: 8</text>
</g>
<!-- ExpConst4&#45;&gt;Value4: 8 -->
<g id="edge4" class="edge"><title>ExpConst4&#45;&gt;Value4: 8</title>
<path fill="none" stroke="black" d="M1585.7,-143.697C1585.7,-135.983 1585.7,-126.712 1585.7,-118.112"/>
<polygon fill="black" stroke="black" points="1589.2,-118.104 1585.7,-108.104 1582.2,-118.104 1589.2,-118.104"/>
</g>
<!-- ExpBinary4 -->
<g id="node7" class="node"><title>ExpBinary4</title>
<ellipse fill="none" stroke="black" cx="1436.7" cy="-234" rx="53.0913" ry="18"/>
<text text-anchor="middle" x="1436.7" y="-230.3" font-family="Times,serif" font-size="14.00">ExpBinary4</text>
</g>
<!-- ExpBinary4&#45;&gt;ExpConst4 -->
<g id="edge7" class="edge"><title>ExpBinary4&#45;&gt;ExpConst4</title>
<path fill="none" stroke="black" d="M1466.49,-219.003C1489.68,-208.106 1522.05,-192.9 1547.21,-181.082"/>
<polygon fill="black" stroke="black" points="1548.9,-184.155 1556.46,-176.734 1545.92,-177.819 1548.9,-184.155"/>
</g>
<!-- ExpTemp5 -->
<g id="node8" class="node"><title>ExpTemp5</title>
<ellipse fill="none" stroke="black" cx="1387.7" cy="-162" rx="50.0912" ry="18"/>
<text text-anchor="middle" x="1387.7" y="-158.3" font-family="Times,serif" font-size="14.00">ExpTemp5</text>
</g>
<!-- ExpBinary4&#45;&gt;ExpTemp5 -->
<g id="edge5" class="edge"><title>ExpBinary4&#45;&gt;ExpTemp5</title>
<path fill="none" stroke="black" d="M1425.08,-216.411C1419.19,-207.992 1411.9,-197.585 1405.34,-188.201"/>
<polygon fill="black" stroke="black" points="1408.17,-186.141 1399.56,-179.956 1402.43,-190.156 1408.17,-186.141"/>
</g>
<!-- Plus4 -->
<g id="node9" class="node"><title>Plus4</title>
<ellipse fill="none" stroke="black" cx="1486.7" cy="-162" rx="30.5947" ry="18"/>
<text text-anchor="middle" x="1486.7" y="-158.3" font-family="Times,serif" font-size="14.00">Plus4</text>
</g>
<!-- ExpBinary4&#45;&gt;Plus4 -->
<g id="edge6" class="edge"><title>ExpBinary4&#45;&gt;Plus4</title>
<path fill="none" stroke="black" d="M1448.54,-216.411C1454.74,-207.744 1462.43,-196.971 1469.28,-187.375"/>
<polygon fill="black" stroke="black" points="1472.31,-189.16 1475.28,-178.988 1466.61,-185.091 1472.31,-189.16"/>
</g>
<!-- Temp5: FP -->
<g id="node39" class="node"><title>Temp5: FP</title>
<ellipse fill="none" stroke="black" cx="1387.7" cy="-90" rx="50.8918" ry="18"/>
<text text-anchor="middle" x="1387.7" y="-86.3" font-family="Times,serif" font-size="14.00">Temp5: FP</text>
</g>
<!-- ExpTemp5&#45;&gt;Temp5: FP -->
<g id="edge29" class="edge"><title>ExpTemp5&#45;&gt;Temp5: FP</title>
<path fill="none" stroke="black" d="M1387.7,-143.697C1387.7,-135.983 1387.7,-126.712 1387.7,-118.112"/>
<polygon fill="black" stroke="black" points="1391.2,-118.104 1387.7,-108.104 1384.2,-118.104 1391.2,-118.104"/>
</g>
<!-- StatMove2 -->
<g id="node10" class="node"><title>StatMove2</title>
<ellipse fill="none" stroke="black" cx="1024.7" cy="-378" rx="50.0912" ry="18"/>
<text text-anchor="middle" x="1024.7" y="-374.3" font-family="Times,serif" font-size="14.00">StatMove2</text>
</g>
<!-- ExpMem6 -->
<g id="node11" class="node"><title>ExpMem6</title>
<ellipse fill="none" stroke="black" cx="1048.7" cy="-306" rx="48.9926" ry="18"/>
<text text-anchor="middle" x="1048.7" y="-302.3" font-family="Times,serif" font-size="14.00">ExpMem6</text>
</g>
<!-- StatMove2&#45;&gt;ExpMem6 -->
<g id="edge8" class="edge"><title>StatMove2&#45;&gt;ExpMem6</title>
<path fill="none" stroke="black" d="M1030.51,-360.055C1033.21,-352.176 1036.48,-342.617 1039.51,-333.794"/>
<polygon fill="black" stroke="black" points="1042.84,-334.87 1042.77,-324.275 1036.22,-332.6 1042.84,-334.87"/>
</g>
<!-- ExpMem8 -->
<g id="node12" class="node"><title>ExpMem8</title>
<ellipse fill="none" stroke="black" cx="1275.7" cy="-306" rx="48.9926" ry="18"/>
<text text-anchor="middle" x="1275.7" y="-302.3" font-family="Times,serif" font-size="14.00">ExpMem8</text>
</g>
<!-- StatMove2&#45;&gt;ExpMem8 -->
<g id="edge9" class="edge"><title>StatMove2&#45;&gt;ExpMem8</title>
<path fill="none" stroke="black" d="M1062.45,-366.054C1069.5,-364.027 1076.82,-361.939 1083.7,-360 1132.73,-346.168 1188.92,-330.703 1227.79,-320.065"/>
<polygon fill="black" stroke="black" points="1229.05,-323.348 1237.77,-317.333 1227.2,-316.596 1229.05,-323.348"/>
</g>
<!-- ExpBinary3 -->
<g id="node13" class="node"><title>ExpBinary3</title>
<ellipse fill="none" stroke="black" cx="1121.7" cy="-234" rx="53.0913" ry="18"/>
<text text-anchor="middle" x="1121.7" y="-230.3" font-family="Times,serif" font-size="14.00">ExpBinary3</text>
</g>
<!-- ExpMem6&#45;&gt;ExpBinary3 -->
<g id="edge10" class="edge"><title>ExpMem6&#45;&gt;ExpBinary3</title>
<path fill="none" stroke="black" d="M1065.63,-288.765C1075.12,-279.665 1087.11,-268.162 1097.57,-258.134"/>
<polygon fill="black" stroke="black" points="1100.06,-260.595 1104.86,-251.147 1095.22,-255.542 1100.06,-260.595"/>
</g>
<!-- ExpMem8&#45;&gt;ExpBinary4 -->
<g id="edge47" class="edge"><title>ExpMem8&#45;&gt;ExpBinary4</title>
<path fill="none" stroke="black" d="M1305.98,-291.834C1331.4,-280.78 1367.95,-264.89 1395.94,-252.72"/>
<polygon fill="black" stroke="black" points="1397.68,-255.782 1405.45,-248.585 1394.88,-249.362 1397.68,-255.782"/>
</g>
<!-- ExpConst3 -->
<g id="node14" class="node"><title>ExpConst3</title>
<ellipse fill="none" stroke="black" cx="1269.7" cy="-162" rx="50.0912" ry="18"/>
<text text-anchor="middle" x="1269.7" y="-158.3" font-family="Times,serif" font-size="14.00">ExpConst3</text>
</g>
<!-- ExpBinary3&#45;&gt;ExpConst3 -->
<g id="edge15" class="edge"><title>ExpBinary3&#45;&gt;ExpConst3</title>
<path fill="none" stroke="black" d="M1151.29,-219.003C1174.33,-208.106 1206.48,-192.9 1231.47,-181.082"/>
<polygon fill="black" stroke="black" points="1233.11,-184.174 1240.66,-176.734 1230.12,-177.846 1233.11,-184.174"/>
</g>
<!-- ExpMem7 -->
<g id="node17" class="node"><title>ExpMem7</title>
<ellipse fill="none" stroke="black" cx="1073.7" cy="-162" rx="48.9926" ry="18"/>
<text text-anchor="middle" x="1073.7" y="-158.3" font-family="Times,serif" font-size="14.00">ExpMem7</text>
</g>
<!-- ExpBinary3&#45;&gt;ExpMem7 -->
<g id="edge13" class="edge"><title>ExpBinary3&#45;&gt;ExpMem7</title>
<path fill="none" stroke="black" d="M1110.32,-216.411C1104.61,-208.077 1097.56,-197.797 1091.17,-188.488"/>
<polygon fill="black" stroke="black" points="1093.86,-186.224 1085.32,-179.956 1088.09,-190.183 1093.86,-186.224"/>
</g>
<!-- Plus3 -->
<g id="node18" class="node"><title>Plus3</title>
<ellipse fill="none" stroke="black" cx="1170.7" cy="-162" rx="30.5947" ry="18"/>
<text text-anchor="middle" x="1170.7" y="-158.3" font-family="Times,serif" font-size="14.00">Plus3</text>
</g>
<!-- ExpBinary3&#45;&gt;Plus3 -->
<g id="edge14" class="edge"><title>ExpBinary3&#45;&gt;Plus3</title>
<path fill="none" stroke="black" d="M1133.31,-216.411C1139.37,-207.744 1146.92,-196.971 1153.63,-187.375"/>
<polygon fill="black" stroke="black" points="1156.64,-189.188 1159.5,-178.988 1150.9,-185.173 1156.64,-189.188"/>
</g>
<!-- Value3: 8 -->
<g id="node15" class="node"><title>Value3: 8</title>
<ellipse fill="none" stroke="black" cx="1269.7" cy="-90" rx="45.4919" ry="18"/>
<text text-anchor="middle" x="1269.7" y="-86.3" font-family="Times,serif" font-size="14.00">Value3: 8</text>
</g>
<!-- ExpConst3&#45;&gt;Value3: 8 -->
<g id="edge11" class="edge"><title>ExpConst3&#45;&gt;Value3: 8</title>
<path fill="none" stroke="black" d="M1269.7,-143.697C1269.7,-135.983 1269.7,-126.712 1269.7,-118.112"/>
<polygon fill="black" stroke="black" points="1273.2,-118.104 1269.7,-108.104 1266.2,-118.104 1273.2,-118.104"/>
</g>
<!-- ExpTemp4 -->
<g id="node19" class="node"><title>ExpTemp4</title>
<ellipse fill="none" stroke="black" cx="1073.7" cy="-90" rx="50.0912" ry="18"/>
<text text-anchor="middle" x="1073.7" y="-86.3" font-family="Times,serif" font-size="14.00">ExpTemp4</text>
</g>
<!-- ExpMem7&#45;&gt;ExpTemp4 -->
<g id="edge34" class="edge"><title>ExpMem7&#45;&gt;ExpTemp4</title>
<path fill="none" stroke="black" d="M1073.7,-143.697C1073.7,-135.983 1073.7,-126.712 1073.7,-118.112"/>
<polygon fill="black" stroke="black" points="1077.2,-118.104 1073.7,-108.104 1070.2,-118.104 1077.2,-118.104"/>
</g>
<!-- Temp4: FP -->
<g id="node20" class="node"><title>Temp4: FP</title>
<ellipse fill="none" stroke="black" cx="1073.7" cy="-18" rx="50.8918" ry="18"/>
<text text-anchor="middle" x="1073.7" y="-14.3" font-family="Times,serif" font-size="14.00">Temp4: FP</text>
</g>
<!-- ExpTemp4&#45;&gt;Temp4: FP -->
<g id="edge16" class="edge"><title>ExpTemp4&#45;&gt;Temp4: FP</title>
<path fill="none" stroke="black" d="M1073.7,-71.6966C1073.7,-63.9827 1073.7,-54.7125 1073.7,-46.1124"/>
<polygon fill="black" stroke="black" points="1077.2,-46.1043 1073.7,-36.1043 1070.2,-46.1044 1077.2,-46.1043"/>
</g>
<!-- ExpBinary1 -->
<g id="node21" class="node"><title>ExpBinary1</title>
<ellipse fill="none" stroke="black" cx="463.696" cy="-306" rx="53.0913" ry="18"/>
<text text-anchor="middle" x="463.696" y="-302.3" font-family="Times,serif" font-size="14.00">ExpBinary1</text>
</g>
<!-- ExpTemp1 -->
<g id="node22" class="node"><title>ExpTemp1</title>
<ellipse fill="none" stroke="black" cx="364.696" cy="-234" rx="50.0912" ry="18"/>
<text text-anchor="middle" x="364.696" y="-230.3" font-family="Times,serif" font-size="14.00">ExpTemp1</text>
</g>
<!-- ExpBinary1&#45;&gt;ExpTemp1 -->
<g id="edge17" class="edge"><title>ExpBinary1&#45;&gt;ExpTemp1</title>
<path fill="none" stroke="black" d="M441.724,-289.465C427.915,-279.7 409.914,-266.972 394.786,-256.276"/>
<polygon fill="black" stroke="black" points="396.451,-253.167 386.265,-250.251 392.409,-258.882 396.451,-253.167"/>
</g>
<!-- Plus1 -->
<g id="node23" class="node"><title>Plus1</title>
<ellipse fill="none" stroke="black" cx="463.696" cy="-234" rx="30.5947" ry="18"/>
<text text-anchor="middle" x="463.696" y="-230.3" font-family="Times,serif" font-size="14.00">Plus1</text>
</g>
<!-- ExpBinary1&#45;&gt;Plus1 -->
<g id="edge18" class="edge"><title>ExpBinary1&#45;&gt;Plus1</title>
<path fill="none" stroke="black" d="M463.696,-287.697C463.696,-279.983 463.696,-270.712 463.696,-262.112"/>
<polygon fill="black" stroke="black" points="467.196,-262.104 463.696,-252.104 460.196,-262.104 467.196,-262.104"/>
</g>
<!-- ExpConst1 -->
<g id="node24" class="node"><title>ExpConst1</title>
<ellipse fill="none" stroke="black" cx="562.696" cy="-234" rx="50.0912" ry="18"/>
<text text-anchor="middle" x="562.696" y="-230.3" font-family="Times,serif" font-size="14.00">ExpConst1</text>
</g>
<!-- ExpBinary1&#45;&gt;ExpConst1 -->
<g id="edge19" class="edge"><title>ExpBinary1&#45;&gt;ExpConst1</title>
<path fill="none" stroke="black" d="M485.667,-289.465C499.476,-279.7 517.477,-266.972 532.605,-256.276"/>
<polygon fill="black" stroke="black" points="534.982,-258.882 541.126,-250.251 530.94,-253.167 534.982,-258.882"/>
</g>
<!-- Temp1: FP -->
<g id="node40" class="node"><title>Temp1: FP</title>
<ellipse fill="none" stroke="black" cx="364.696" cy="-162" rx="50.8918" ry="18"/>
<text text-anchor="middle" x="364.696" y="-158.3" font-family="Times,serif" font-size="14.00">Temp1: FP</text>
</g>
<!-- ExpTemp1&#45;&gt;Temp1: FP -->
<g id="edge30" class="edge"><title>ExpTemp1&#45;&gt;Temp1: FP</title>
<path fill="none" stroke="black" d="M364.696,-215.697C364.696,-207.983 364.696,-198.712 364.696,-190.112"/>
<polygon fill="black" stroke="black" points="368.196,-190.104 364.696,-180.104 361.196,-190.104 368.196,-190.104"/>
</g>
<!-- Value1: 12 -->
<g id="node47" class="node"><title>Value1: 12</title>
<ellipse fill="none" stroke="black" cx="522.696" cy="-162" rx="50.0912" ry="18"/>
<text text-anchor="middle" x="522.696" y="-158.3" font-family="Times,serif" font-size="14.00">Value1: 12</text>
</g>
<!-- ExpConst1&#45;&gt;Value1: 12 -->
<g id="edge39" class="edge"><title>ExpConst1&#45;&gt;Value1: 12</title>
<path fill="none" stroke="black" d="M553.013,-216.055C548.296,-207.801 542.525,-197.701 537.289,-188.538"/>
<polygon fill="black" stroke="black" points="540.29,-186.735 532.289,-179.789 534.212,-190.208 540.29,-186.735"/>
</g>
<!-- ExpMem0 -->
<g id="node25" class="node"><title>ExpMem0</title>
<ellipse fill="none" stroke="black" cx="248.696" cy="-378" rx="48.9926" ry="18"/>
<text text-anchor="middle" x="248.696" y="-374.3" font-family="Times,serif" font-size="14.00">ExpMem0</text>
</g>
<!-- ExpBinary0 -->
<g id="node26" class="node"><title>ExpBinary0</title>
<ellipse fill="none" stroke="black" cx="197.696" cy="-306" rx="53.0913" ry="18"/>
<text text-anchor="middle" x="197.696" y="-302.3" font-family="Times,serif" font-size="14.00">ExpBinary0</text>
</g>
<!-- ExpMem0&#45;&gt;ExpBinary0 -->
<g id="edge20" class="edge"><title>ExpMem0&#45;&gt;ExpBinary0</title>
<path fill="none" stroke="black" d="M236.609,-360.411C230.475,-351.992 222.893,-341.585 216.056,-332.201"/>
<polygon fill="black" stroke="black" points="218.767,-329.978 210.049,-323.956 213.109,-334.1 218.767,-329.978"/>
</g>
<!-- ExpConst0 -->
<g id="node33" class="node"><title>ExpConst0</title>
<ellipse fill="none" stroke="black" cx="246.696" cy="-234" rx="50.0912" ry="18"/>
<text text-anchor="middle" x="246.696" y="-230.3" font-family="Times,serif" font-size="14.00">ExpConst0</text>
</g>
<!-- ExpBinary0&#45;&gt;ExpConst0 -->
<g id="edge45" class="edge"><title>ExpBinary0&#45;&gt;ExpConst0</title>
<path fill="none" stroke="black" d="M209.308,-288.411C215.201,-279.992 222.486,-269.585 229.055,-260.201"/>
<polygon fill="black" stroke="black" points="231.959,-262.156 234.826,-251.956 226.224,-258.141 231.959,-262.156"/>
</g>
<!-- ExpMem1 -->
<g id="node35" class="node"><title>ExpMem1</title>
<ellipse fill="none" stroke="black" cx="50.6955" cy="-234" rx="48.9926" ry="18"/>
<text text-anchor="middle" x="50.6955" y="-230.3" font-family="Times,serif" font-size="14.00">ExpMem1</text>
</g>
<!-- ExpBinary0&#45;&gt;ExpMem1 -->
<g id="edge43" class="edge"><title>ExpBinary0&#45;&gt;ExpMem1</title>
<path fill="none" stroke="black" d="M167.948,-290.834C145.036,-279.924 113.205,-264.766 88.4891,-252.997"/>
<polygon fill="black" stroke="black" points="89.9319,-249.807 79.3985,-248.668 86.9223,-256.127 89.9319,-249.807"/>
</g>
<!-- Plus0 -->
<g id="node50" class="node"><title>Plus0</title>
<ellipse fill="none" stroke="black" cx="147.696" cy="-234" rx="30.5947" ry="18"/>
<text text-anchor="middle" x="147.696" y="-230.3" font-family="Times,serif" font-size="14.00">Plus0</text>
</g>
<!-- ExpBinary0&#45;&gt;Plus0 -->
<g id="edge44" class="edge"><title>ExpBinary0&#45;&gt;Plus0</title>
<path fill="none" stroke="black" d="M185.846,-288.411C179.655,-279.744 171.961,-268.971 165.107,-259.375"/>
<polygon fill="black" stroke="black" points="167.776,-257.091 159.116,-250.988 162.08,-261.16 167.776,-257.091"/>
</g>
<!-- ExpMem3 -->
<g id="node27" class="node"><title>ExpMem3</title>
<ellipse fill="none" stroke="black" cx="730.696" cy="-306" rx="48.9926" ry="18"/>
<text text-anchor="middle" x="730.696" y="-302.3" font-family="Times,serif" font-size="14.00">ExpMem3</text>
</g>
<!-- ExpMem4 -->
<g id="node28" class="node"><title>ExpMem4</title>
<ellipse fill="none" stroke="black" cx="728.696" cy="-234" rx="48.9926" ry="18"/>
<text text-anchor="middle" x="728.696" y="-230.3" font-family="Times,serif" font-size="14.00">ExpMem4</text>
</g>
<!-- ExpMem3&#45;&gt;ExpMem4 -->
<g id="edge21" class="edge"><title>ExpMem3&#45;&gt;ExpMem4</title>
<path fill="none" stroke="black" d="M730.201,-287.697C729.981,-279.983 729.716,-270.712 729.47,-262.112"/>
<polygon fill="black" stroke="black" points="732.968,-262 729.184,-252.104 725.971,-262.2 732.968,-262"/>
</g>
<!-- ExpTemp2 -->
<g id="node48" class="node"><title>ExpTemp2</title>
<ellipse fill="none" stroke="black" cx="640.696" cy="-162" rx="50.0912" ry="18"/>
<text text-anchor="middle" x="640.696" y="-158.3" font-family="Times,serif" font-size="14.00">ExpTemp2</text>
</g>
<!-- ExpMem4&#45;&gt;ExpTemp2 -->
<g id="edge46" class="edge"><title>ExpMem4&#45;&gt;ExpTemp2</title>
<path fill="none" stroke="black" d="M709.165,-217.465C697.173,-207.925 681.624,-195.557 668.375,-185.018"/>
<polygon fill="black" stroke="black" points="670.48,-182.22 660.475,-178.734 666.122,-187.698 670.48,-182.22"/>
</g>
<!-- StatMove0 -->
<g id="node29" class="node"><title>StatMove0</title>
<ellipse fill="none" stroke="black" cx="463.696" cy="-450" rx="50.0912" ry="18"/>
<text text-anchor="middle" x="463.696" y="-446.3" font-family="Times,serif" font-size="14.00">StatMove0</text>
</g>
<!-- StatMove0&#45;&gt;ExpMem0 -->
<g id="edge22" class="edge"><title>StatMove0&#45;&gt;ExpMem0</title>
<path fill="none" stroke="black" d="M427.709,-437.284C390.902,-425.3 333.623,-406.651 293.807,-393.687"/>
<polygon fill="black" stroke="black" points="294.676,-390.29 284.084,-390.522 292.509,-396.946 294.676,-390.29"/>
</g>
<!-- ExpMem2 -->
<g id="node30" class="node"><title>ExpMem2</title>
<ellipse fill="none" stroke="black" cx="463.696" cy="-378" rx="48.9926" ry="18"/>
<text text-anchor="middle" x="463.696" y="-374.3" font-family="Times,serif" font-size="14.00">ExpMem2</text>
</g>
<!-- StatMove0&#45;&gt;ExpMem2 -->
<g id="edge23" class="edge"><title>StatMove0&#45;&gt;ExpMem2</title>
<path fill="none" stroke="black" d="M463.696,-431.697C463.696,-423.983 463.696,-414.712 463.696,-406.112"/>
<polygon fill="black" stroke="black" points="467.196,-406.104 463.696,-396.104 460.196,-406.104 467.196,-406.104"/>
</g>
<!-- ExpMem2&#45;&gt;ExpBinary1 -->
<g id="edge36" class="edge"><title>ExpMem2&#45;&gt;ExpBinary1</title>
<path fill="none" stroke="black" d="M463.696,-359.697C463.696,-351.983 463.696,-342.712 463.696,-334.112"/>
<polygon fill="black" stroke="black" points="467.196,-334.104 463.696,-324.104 460.196,-334.104 467.196,-334.104"/>
</g>
<!-- StatSeq3 -->
<g id="node31" class="node"><title>StatSeq3</title>
<ellipse fill="none" stroke="black" cx="916.696" cy="-450" rx="42.4939" ry="18"/>
<text text-anchor="middle" x="916.696" y="-446.3" font-family="Times,serif" font-size="14.00">StatSeq3</text>
</g>
<!-- StatSeq3&#45;&gt;StatMove2 -->
<g id="edge25" class="edge"><title>StatSeq3&#45;&gt;StatMove2</title>
<path fill="none" stroke="black" d="M939.073,-434.496C954.542,-424.47 975.355,-410.98 992.588,-399.811"/>
<polygon fill="black" stroke="black" points="994.738,-402.588 1001.23,-394.212 990.931,-396.714 994.738,-402.588"/>
</g>
<!-- StatMove1 -->
<g id="node32" class="node"><title>StatMove1</title>
<ellipse fill="none" stroke="black" cx="857.696" cy="-378" rx="50.0912" ry="18"/>
<text text-anchor="middle" x="857.696" y="-374.3" font-family="Times,serif" font-size="14.00">StatMove1</text>
</g>
<!-- StatSeq3&#45;&gt;StatMove1 -->
<g id="edge24" class="edge"><title>StatSeq3&#45;&gt;StatMove1</title>
<path fill="none" stroke="black" d="M903.011,-432.765C895.671,-424.056 886.476,-413.147 878.291,-403.435"/>
<polygon fill="black" stroke="black" points="880.836,-401.024 871.715,-395.633 875.484,-405.535 880.836,-401.024"/>
</g>
<!-- StatMove1&#45;&gt;ExpMem3 -->
<g id="edge52" class="edge"><title>StatMove1&#45;&gt;ExpMem3</title>
<path fill="none" stroke="black" d="M831.381,-362.496C812.394,-352.031 786.559,-337.791 765.813,-326.356"/>
<polygon fill="black" stroke="black" points="767.424,-323.247 756.976,-321.485 764.045,-329.378 767.424,-323.247"/>
</g>
<!-- ExpMem5 -->
<g id="node55" class="node"><title>ExpMem5</title>
<ellipse fill="none" stroke="black" cx="857.696" cy="-306" rx="48.9926" ry="18"/>
<text text-anchor="middle" x="857.696" y="-302.3" font-family="Times,serif" font-size="14.00">ExpMem5</text>
</g>
<!-- StatMove1&#45;&gt;ExpMem5 -->
<g id="edge53" class="edge"><title>StatMove1&#45;&gt;ExpMem5</title>
<path fill="none" stroke="black" d="M857.696,-359.697C857.696,-351.983 857.696,-342.712 857.696,-334.112"/>
<polygon fill="black" stroke="black" points="861.196,-334.104 857.696,-324.104 854.196,-334.104 861.196,-334.104"/>
</g>
<!-- Value0: 4 -->
<g id="node34" class="node"><title>Value0: 4</title>
<ellipse fill="none" stroke="black" cx="246.696" cy="-162" rx="45.4919" ry="18"/>
<text text-anchor="middle" x="246.696" y="-158.3" font-family="Times,serif" font-size="14.00">Value0: 4</text>
</g>
<!-- ExpConst0&#45;&gt;Value0: 4 -->
<g id="edge26" class="edge"><title>ExpConst0&#45;&gt;Value0: 4</title>
<path fill="none" stroke="black" d="M246.696,-215.697C246.696,-207.983 246.696,-198.712 246.696,-190.112"/>
<polygon fill="black" stroke="black" points="250.196,-190.104 246.696,-180.104 243.196,-190.104 250.196,-190.104"/>
</g>
<!-- ExpTemp0 -->
<g id="node36" class="node"><title>ExpTemp0</title>
<ellipse fill="none" stroke="black" cx="50.6955" cy="-162" rx="50.0912" ry="18"/>
<text text-anchor="middle" x="50.6955" y="-158.3" font-family="Times,serif" font-size="14.00">ExpTemp0</text>
</g>
<!-- ExpMem1&#45;&gt;ExpTemp0 -->
<g id="edge27" class="edge"><title>ExpMem1&#45;&gt;ExpTemp0</title>
<path fill="none" stroke="black" d="M50.6955,-215.697C50.6955,-207.983 50.6955,-198.712 50.6955,-190.112"/>
<polygon fill="black" stroke="black" points="54.1956,-190.104 50.6955,-180.104 47.1956,-190.104 54.1956,-190.104"/>
</g>
<!-- Temp0: FP -->
<g id="node45" class="node"><title>Temp0: FP</title>
<ellipse fill="none" stroke="black" cx="50.6955" cy="-90" rx="50.8918" ry="18"/>
<text text-anchor="middle" x="50.6955" y="-86.3" font-family="Times,serif" font-size="14.00">Temp0: FP</text>
</g>
<!-- ExpTemp0&#45;&gt;Temp0: FP -->
<g id="edge35" class="edge"><title>ExpTemp0&#45;&gt;Temp0: FP</title>
<path fill="none" stroke="black" d="M50.6955,-143.697C50.6955,-135.983 50.6955,-126.712 50.6955,-118.112"/>
<polygon fill="black" stroke="black" points="54.1956,-118.104 50.6955,-108.104 47.1956,-118.104 54.1956,-118.104"/>
</g>
<!-- StatLabel0 -->
<g id="node37" class="node"><title>StatLabel0</title>
<ellipse fill="none" stroke="black" cx="788.696" cy="-594" rx="48.9926" ry="18"/>
<text text-anchor="middle" x="788.696" y="-590.3" font-family="Times,serif" font-size="14.00">StatLabel0</text>
</g>
<!-- Label0: List::InitNew -->
<g id="node38" class="node"><title>Label0: List::InitNew</title>
<ellipse fill="none" stroke="black" cx="769.696" cy="-522" rx="87.1846" ry="18"/>
<text text-anchor="middle" x="769.696" y="-518.3" font-family="Times,serif" font-size="14.00">Label0: List::InitNew</text>
</g>
<!-- StatLabel0&#45;&gt;Label0: List::InitNew -->
<g id="edge28" class="edge"><title>StatLabel0&#45;&gt;Label0: List::InitNew</title>
<path fill="none" stroke="black" d="M784.096,-576.055C781.981,-568.261 779.419,-558.822 777.045,-550.079"/>
<polygon fill="black" stroke="black" points="780.382,-549.009 774.385,-540.275 773.626,-550.843 780.382,-549.009"/>
</g>
<!-- StatSeq0 -->
<g id="node41" class="node"><title>StatSeq0</title>
<ellipse fill="none" stroke="black" cx="852.696" cy="-666" rx="42.4939" ry="18"/>
<text text-anchor="middle" x="852.696" y="-662.3" font-family="Times,serif" font-size="14.00">StatSeq0</text>
</g>
<!-- StatSeq0&#45;&gt;StatLabel0 -->
<g id="edge31" class="edge"><title>StatSeq0&#45;&gt;StatLabel0</title>
<path fill="none" stroke="black" d="M837.852,-648.765C829.81,-639.969 819.716,-628.928 810.77,-619.144"/>
<polygon fill="black" stroke="black" points="813.234,-616.652 803.903,-611.633 808.068,-621.375 813.234,-616.652"/>
</g>
<!-- StatSeq1 -->
<g id="node42" class="node"><title>StatSeq1</title>
<ellipse fill="none" stroke="black" cx="916.696" cy="-594" rx="42.4939" ry="18"/>
<text text-anchor="middle" x="916.696" y="-590.3" font-family="Times,serif" font-size="14.00">StatSeq1</text>
</g>
<!-- StatSeq0&#45;&gt;StatSeq1 -->
<g id="edge32" class="edge"><title>StatSeq0&#45;&gt;StatSeq1</title>
<path fill="none" stroke="black" d="M867.539,-648.765C875.698,-639.841 885.968,-628.608 895.009,-618.719"/>
<polygon fill="black" stroke="black" points="897.768,-620.889 901.932,-611.147 892.601,-616.166 897.768,-620.889"/>
</g>
<!-- StatSeq1&#45;&gt;StatMove3 -->
<g id="edge38" class="edge"><title>StatSeq1&#45;&gt;StatMove3</title>
<path fill="none" stroke="black" d="M950.599,-583.193C992.497,-571.074 1064.03,-550.382 1111.34,-536.699"/>
<polygon fill="black" stroke="black" points="1112.41,-540.032 1121.04,-533.891 1110.47,-533.307 1112.41,-540.032"/>
</g>
<!-- StatSeq2 -->
<g id="node46" class="node"><title>StatSeq2</title>
<ellipse fill="none" stroke="black" cx="916.696" cy="-522" rx="42.4939" ry="18"/>
<text text-anchor="middle" x="916.696" y="-518.3" font-family="Times,serif" font-size="14.00">StatSeq2</text>
</g>
<!-- StatSeq1&#45;&gt;StatSeq2 -->
<g id="edge37" class="edge"><title>StatSeq1&#45;&gt;StatSeq2</title>
<path fill="none" stroke="black" d="M916.696,-575.697C916.696,-567.983 916.696,-558.712 916.696,-550.112"/>
<polygon fill="black" stroke="black" points="920.196,-550.104 916.696,-540.104 913.196,-550.104 920.196,-550.104"/>
</g>
<!-- ExpTemp3 -->
<g id="node43" class="node"><title>ExpTemp3</title>
<ellipse fill="none" stroke="black" cx="758.696" cy="-162" rx="50.0912" ry="18"/>
<text text-anchor="middle" x="758.696" y="-158.3" font-family="Times,serif" font-size="14.00">ExpTemp3</text>
</g>
<!-- Temp3: FP -->
<g id="node44" class="node"><title>Temp3: FP</title>
<ellipse fill="none" stroke="black" cx="758.696" cy="-90" rx="50.8918" ry="18"/>
<text text-anchor="middle" x="758.696" y="-86.3" font-family="Times,serif" font-size="14.00">Temp3: FP</text>
</g>
<!-- ExpTemp3&#45;&gt;Temp3: FP -->
<g id="edge33" class="edge"><title>ExpTemp3&#45;&gt;Temp3: FP</title>
<path fill="none" stroke="black" d="M758.696,-143.697C758.696,-135.983 758.696,-126.712 758.696,-118.112"/>
<polygon fill="black" stroke="black" points="762.196,-118.104 758.696,-108.104 755.196,-118.104 762.196,-118.104"/>
</g>
<!-- StatSeq2&#45;&gt;StatMove0 -->
<g id="edge40" class="edge"><title>StatSeq2&#45;&gt;StatMove0</title>
<path fill="none" stroke="black" d="M885.677,-509.616C879.143,-507.513 872.244,-505.509 865.696,-504 745.554,-476.323 601.648,-461.71 522.724,-455.239"/>
<polygon fill="black" stroke="black" points="522.743,-451.729 512.494,-454.416 522.181,-458.707 522.743,-451.729"/>
</g>
<!-- StatSeq2&#45;&gt;StatSeq3 -->
<g id="edge41" class="edge"><title>StatSeq2&#45;&gt;StatSeq3</title>
<path fill="none" stroke="black" d="M916.696,-503.697C916.696,-495.983 916.696,-486.712 916.696,-478.112"/>
<polygon fill="black" stroke="black" points="920.196,-478.104 916.696,-468.104 913.196,-478.104 920.196,-478.104"/>
</g>
<!-- Temp2: FP -->
<g id="node49" class="node"><title>Temp2: FP</title>
<ellipse fill="none" stroke="black" cx="639.696" cy="-90" rx="50.8918" ry="18"/>
<text text-anchor="middle" x="639.696" y="-86.3" font-family="Times,serif" font-size="14.00">Temp2: FP</text>
</g>
<!-- ExpTemp2&#45;&gt;Temp2: FP -->
<g id="edge42" class="edge"><title>ExpTemp2&#45;&gt;Temp2: FP</title>
<path fill="none" stroke="black" d="M640.448,-143.697C640.338,-135.983 640.206,-126.712 640.083,-118.112"/>
<polygon fill="black" stroke="black" points="643.582,-118.053 639.94,-108.104 636.583,-118.153 643.582,-118.053"/>
</g>
<!-- ExpBinary2 -->
<g id="node51" class="node"><title>ExpBinary2</title>
<ellipse fill="none" stroke="black" cx="857.696" cy="-234" rx="53.0913" ry="18"/>
<text text-anchor="middle" x="857.696" y="-230.3" font-family="Times,serif" font-size="14.00">ExpBinary2</text>
</g>
<!-- ExpBinary2&#45;&gt;ExpTemp3 -->
<g id="edge48" class="edge"><title>ExpBinary2&#45;&gt;ExpTemp3</title>
<path fill="none" stroke="black" d="M835.724,-217.465C821.915,-207.7 803.914,-194.972 788.786,-184.276"/>
<polygon fill="black" stroke="black" points="790.451,-181.167 780.265,-178.251 786.409,-186.882 790.451,-181.167"/>
</g>
<!-- Plus2 -->
<g id="node52" class="node"><title>Plus2</title>
<ellipse fill="none" stroke="black" cx="857.696" cy="-162" rx="30.5947" ry="18"/>
<text text-anchor="middle" x="857.696" y="-158.3" font-family="Times,serif" font-size="14.00">Plus2</text>
</g>
<!-- ExpBinary2&#45;&gt;Plus2 -->
<g id="edge49" class="edge"><title>ExpBinary2&#45;&gt;Plus2</title>
<path fill="none" stroke="black" d="M857.696,-215.697C857.696,-207.983 857.696,-198.712 857.696,-190.112"/>
<polygon fill="black" stroke="black" points="861.196,-190.104 857.696,-180.104 854.196,-190.104 861.196,-190.104"/>
</g>
<!-- ExpConst2 -->
<g id="node53" class="node"><title>ExpConst2</title>
<ellipse fill="none" stroke="black" cx="956.696" cy="-162" rx="50.0912" ry="18"/>
<text text-anchor="middle" x="956.696" y="-158.3" font-family="Times,serif" font-size="14.00">ExpConst2</text>
</g>
<!-- ExpBinary2&#45;&gt;ExpConst2 -->
<g id="edge50" class="edge"><title>ExpBinary2&#45;&gt;ExpConst2</title>
<path fill="none" stroke="black" d="M879.667,-217.465C893.476,-207.7 911.477,-194.972 926.605,-184.276"/>
<polygon fill="black" stroke="black" points="928.982,-186.882 935.126,-178.251 924.94,-181.167 928.982,-186.882"/>
</g>
<!-- Value2: 4 -->
<g id="node54" class="node"><title>Value2: 4</title>
<ellipse fill="none" stroke="black" cx="956.696" cy="-90" rx="45.4919" ry="18"/>
<text text-anchor="middle" x="956.696" y="-86.3" font-family="Times,serif" font-size="14.00">Value2: 4</text>
</g>
<!-- ExpConst2&#45;&gt;Value2: 4 -->
<g id="edge51" class="edge"><title>ExpConst2&#45;&gt;Value2: 4</title>
<path fill="none" stroke="black" d="M956.696,-143.697C956.696,-135.983 956.696,-126.712 956.696,-118.112"/>
<polygon fill="black" stroke="black" points="960.196,-118.104 956.696,-108.104 953.196,-118.104 960.196,-118.104"/>
</g>
<!-- ExpMem5&#45;&gt;ExpBinary2 -->
<g id="edge54" class="edge"><title>ExpMem5&#45;&gt;ExpBinary2</title>
<path fill="none" stroke="black" d="M857.696,-287.697C857.696,-279.983 857.696,-270.712 857.696,-262.112"/>
<polygon fill="black" stroke="black" points="861.196,-262.104 857.696,-252.104 854.196,-262.104 861.196,-262.104"/>
</g>
</g>
</svg>
