<?xml version="1.0" encoding="UTF-8" standalone="no"?>
<!DOCTYPE svg PUBLIC "-//W3C//DTD SVG 1.1//EN"
 "http://www.w3.org/Graphics/SVG/1.1/DTD/svg11.dtd">
<!-- Generated by graphviz version 2.38.0 (20140413.2041)
 -->
<!-- Title: %3 Pages: 1 -->
<svg width="762pt" height="1052pt"
 viewBox="0.00 0.00 761.69 1052.00" xmlns="http://www.w3.org/2000/svg" xmlns:xlink="http://www.w3.org/1999/xlink">
<g id="graph0" class="graph" transform="scale(1 1) rotate(0) translate(4 1048)">
<title>%3</title>
<polygon fill="white" stroke="none" points="-4,4 -4,-1048 757.686,-1048 757.686,4 -4,4"/>
<!-- StatExp0 -->
<g id="node1" class="node"><title>StatExp0</title>
<ellipse fill="none" stroke="black" cx="474.641" cy="-954" rx="42.7926" ry="18"/>
<text text-anchor="middle" x="474.641" y="-950.3" font-family="Times,serif" font-size="14.00">StatExp0</text>
</g>
<!-- ExpTemp5 -->
<g id="node2" class="node"><title>ExpTemp5</title>
<ellipse fill="none" stroke="black" cx="503.641" cy="-882" rx="50.0912" ry="18"/>
<text text-anchor="middle" x="503.641" y="-878.3" font-family="Times,serif" font-size="14.00">ExpTemp5</text>
</g>
<!-- StatExp0&#45;&gt;ExpTemp5 -->
<g id="edge1" class="edge"><title>StatExp0&#45;&gt;ExpTemp5</title>
<path fill="none" stroke="black" d="M481.661,-936.055C484.925,-928.176 488.885,-918.617 492.54,-909.794"/>
<polygon fill="black" stroke="black" points="495.89,-910.853 496.484,-900.275 489.423,-908.174 495.89,-910.853"/>
</g>
<!-- Temp5: T56 -->
<g id="node32" class="node"><title>Temp5: T56</title>
<ellipse fill="none" stroke="black" cx="561.641" cy="-810" rx="55.4913" ry="18"/>
<text text-anchor="middle" x="561.641" y="-806.3" font-family="Times,serif" font-size="14.00">Temp5: T56</text>
</g>
<!-- ExpTemp5&#45;&gt;Temp5: T56 -->
<g id="edge25" class="edge"><title>ExpTemp5&#45;&gt;Temp5: T56</title>
<path fill="none" stroke="black" d="M517.386,-864.411C524.609,-855.693 533.597,-844.845 541.583,-835.208"/>
<polygon fill="black" stroke="black" points="544.309,-837.403 547.994,-827.47 538.919,-832.937 544.309,-837.403"/>
</g>
<!-- ExpList0 -->
<g id="node3" class="node"><title>ExpList0</title>
<ellipse fill="none" stroke="black" cx="445.641" cy="-810" rx="42.7926" ry="18"/>
<text text-anchor="middle" x="445.641" y="-806.3" font-family="Times,serif" font-size="14.00">ExpList0</text>
</g>
<!-- ExpEseq0 -->
<g id="node4" class="node"><title>ExpEseq0</title>
<ellipse fill="none" stroke="black" cx="450.641" cy="-738" rx="46.2923" ry="18"/>
<text text-anchor="middle" x="450.641" y="-734.3" font-family="Times,serif" font-size="14.00">ExpEseq0</text>
</g>
<!-- ExpList0&#45;&gt;ExpEseq0 -->
<g id="edge2" class="edge"><title>ExpList0&#45;&gt;ExpEseq0</title>
<path fill="none" stroke="black" d="M446.877,-791.697C447.428,-783.983 448.09,-774.712 448.704,-766.112"/>
<polygon fill="black" stroke="black" points="452.198,-766.328 449.419,-756.104 445.215,-765.83 452.198,-766.328"/>
</g>
<!-- ExpTemp4 -->
<g id="node5" class="node"><title>ExpTemp4</title>
<ellipse fill="none" stroke="black" cx="509.641" cy="-666" rx="50.0912" ry="18"/>
<text text-anchor="middle" x="509.641" y="-662.3" font-family="Times,serif" font-size="14.00">ExpTemp4</text>
</g>
<!-- ExpEseq0&#45;&gt;ExpTemp4 -->
<g id="edge38" class="edge"><title>ExpEseq0&#45;&gt;ExpTemp4</title>
<path fill="none" stroke="black" d="M464.325,-720.765C471.665,-712.056 480.86,-701.147 489.046,-691.435"/>
<polygon fill="black" stroke="black" points="491.853,-693.535 495.621,-683.633 486.5,-689.024 491.853,-693.535"/>
</g>
<!-- StatMove1 -->
<g id="node9" class="node"><title>StatMove1</title>
<ellipse fill="none" stroke="black" cx="391.641" cy="-666" rx="50.0912" ry="18"/>
<text text-anchor="middle" x="391.641" y="-662.3" font-family="Times,serif" font-size="14.00">StatMove1</text>
</g>
<!-- ExpEseq0&#45;&gt;StatMove1 -->
<g id="edge37" class="edge"><title>ExpEseq0&#45;&gt;StatMove1</title>
<path fill="none" stroke="black" d="M436.957,-720.765C429.616,-712.056 420.422,-701.147 412.236,-691.435"/>
<polygon fill="black" stroke="black" points="414.781,-689.024 405.66,-683.633 409.429,-693.535 414.781,-689.024"/>
</g>
<!-- Temp4: T55 -->
<g id="node6" class="node"><title>Temp4: T55</title>
<ellipse fill="none" stroke="black" cx="509.641" cy="-594" rx="55.4913" ry="18"/>
<text text-anchor="middle" x="509.641" y="-590.3" font-family="Times,serif" font-size="14.00">Temp4: T55</text>
</g>
<!-- ExpTemp4&#45;&gt;Temp4: T55 -->
<g id="edge3" class="edge"><title>ExpTemp4&#45;&gt;Temp4: T55</title>
<path fill="none" stroke="black" d="M509.641,-647.697C509.641,-639.983 509.641,-630.712 509.641,-622.112"/>
<polygon fill="black" stroke="black" points="513.141,-622.104 509.641,-612.104 506.141,-622.104 513.141,-622.104"/>
</g>
<!-- ExpName1 -->
<g id="node7" class="node"><title>ExpName1</title>
<ellipse fill="none" stroke="black" cx="392.641" cy="-522" rx="50.8918" ry="18"/>
<text text-anchor="middle" x="392.641" y="-518.3" font-family="Times,serif" font-size="14.00">ExpName1</text>
</g>
<!-- Label2: LL@Start -->
<g id="node8" class="node"><title>Label2: LL@Start</title>
<ellipse fill="none" stroke="black" cx="385.641" cy="-450" rx="75.2868" ry="18"/>
<text text-anchor="middle" x="385.641" y="-446.3" font-family="Times,serif" font-size="14.00">Label2: LL@Start</text>
</g>
<!-- ExpName1&#45;&gt;Label2: LL@Start -->
<g id="edge4" class="edge"><title>ExpName1&#45;&gt;Label2: LL@Start</title>
<path fill="none" stroke="black" d="M390.91,-503.697C390.139,-495.983 389.212,-486.712 388.352,-478.112"/>
<polygon fill="black" stroke="black" points="391.829,-477.706 387.351,-468.104 384.864,-478.403 391.829,-477.706"/>
</g>
<!-- ExpTemp1 -->
<g id="node10" class="node"><title>ExpTemp1</title>
<ellipse fill="none" stroke="black" cx="274.641" cy="-594" rx="50.0912" ry="18"/>
<text text-anchor="middle" x="274.641" y="-590.3" font-family="Times,serif" font-size="14.00">ExpTemp1</text>
</g>
<!-- StatMove1&#45;&gt;ExpTemp1 -->
<g id="edge5" class="edge"><title>StatMove1&#45;&gt;ExpTemp1</title>
<path fill="none" stroke="black" d="M366.828,-650.155C349.765,-639.946 326.901,-626.267 308.213,-615.086"/>
<polygon fill="black" stroke="black" points="309.796,-611.955 299.418,-609.824 306.202,-617.962 309.796,-611.955"/>
</g>
<!-- ExpCall1 -->
<g id="node11" class="node"><title>ExpCall1</title>
<ellipse fill="none" stroke="black" cx="392.641" cy="-594" rx="44.393" ry="18"/>
<text text-anchor="middle" x="392.641" y="-590.3" font-family="Times,serif" font-size="14.00">ExpCall1</text>
</g>
<!-- StatMove1&#45;&gt;ExpCall1 -->
<g id="edge6" class="edge"><title>StatMove1&#45;&gt;ExpCall1</title>
<path fill="none" stroke="black" d="M391.888,-647.697C391.998,-639.983 392.131,-630.712 392.253,-622.112"/>
<polygon fill="black" stroke="black" points="395.753,-622.153 392.396,-612.104 388.754,-622.053 395.753,-622.153"/>
</g>
<!-- Temp1: T55 -->
<g id="node33" class="node"><title>Temp1: T55</title>
<ellipse fill="none" stroke="black" cx="268.641" cy="-522" rx="55.4913" ry="18"/>
<text text-anchor="middle" x="268.641" y="-518.3" font-family="Times,serif" font-size="14.00">Temp1: T55</text>
</g>
<!-- ExpTemp1&#45;&gt;Temp1: T55 -->
<g id="edge26" class="edge"><title>ExpTemp1&#45;&gt;Temp1: T55</title>
<path fill="none" stroke="black" d="M273.158,-575.697C272.496,-567.983 271.702,-558.712 270.965,-550.112"/>
<polygon fill="black" stroke="black" points="274.448,-549.769 270.107,-540.104 267.474,-550.367 274.448,-549.769"/>
</g>
<!-- ExpCall1&#45;&gt;ExpName1 -->
<g id="edge18" class="edge"><title>ExpCall1&#45;&gt;ExpName1</title>
<path fill="none" stroke="black" d="M392.641,-575.697C392.641,-567.983 392.641,-558.712 392.641,-550.112"/>
<polygon fill="black" stroke="black" points="396.141,-550.104 392.641,-540.104 389.141,-550.104 396.141,-550.104"/>
</g>
<!-- ExpList1 -->
<g id="node14" class="node"><title>ExpList1</title>
<ellipse fill="none" stroke="black" cx="518.641" cy="-522" rx="42.7926" ry="18"/>
<text text-anchor="middle" x="518.641" y="-518.3" font-family="Times,serif" font-size="14.00">ExpList1</text>
</g>
<!-- ExpCall1&#45;&gt;ExpList1 -->
<g id="edge19" class="edge"><title>ExpCall1&#45;&gt;ExpList1</title>
<path fill="none" stroke="black" d="M417.836,-579.003C437.104,-568.298 463.859,-553.434 484.963,-541.71"/>
<polygon fill="black" stroke="black" points="486.877,-544.651 493.919,-536.734 483.477,-538.531 486.877,-544.651"/>
</g>
<!-- ExpConst1 -->
<g id="node12" class="node"><title>ExpConst1</title>
<ellipse fill="none" stroke="black" cx="703.641" cy="-90" rx="50.0912" ry="18"/>
<text text-anchor="middle" x="703.641" y="-86.3" font-family="Times,serif" font-size="14.00">ExpConst1</text>
</g>
<!-- Value1: 4 -->
<g id="node13" class="node"><title>Value1: 4</title>
<ellipse fill="none" stroke="black" cx="703.641" cy="-18" rx="45.4919" ry="18"/>
<text text-anchor="middle" x="703.641" y="-14.3" font-family="Times,serif" font-size="14.00">Value1: 4</text>
</g>
<!-- ExpConst1&#45;&gt;Value1: 4 -->
<g id="edge7" class="edge"><title>ExpConst1&#45;&gt;Value1: 4</title>
<path fill="none" stroke="black" d="M703.641,-71.6966C703.641,-63.9827 703.641,-54.7125 703.641,-46.1124"/>
<polygon fill="black" stroke="black" points="707.141,-46.1043 703.641,-36.1043 700.141,-46.1044 707.141,-46.1043"/>
</g>
<!-- ExpEseq1 -->
<g id="node15" class="node"><title>ExpEseq1</title>
<ellipse fill="none" stroke="black" cx="525.641" cy="-450" rx="46.2923" ry="18"/>
<text text-anchor="middle" x="525.641" y="-446.3" font-family="Times,serif" font-size="14.00">ExpEseq1</text>
</g>
<!-- ExpList1&#45;&gt;ExpEseq1 -->
<g id="edge8" class="edge"><title>ExpList1&#45;&gt;ExpEseq1</title>
<path fill="none" stroke="black" d="M520.371,-503.697C521.142,-495.983 522.069,-486.712 522.929,-478.112"/>
<polygon fill="black" stroke="black" points="526.418,-478.403 523.93,-468.104 519.453,-477.706 526.418,-478.403"/>
</g>
<!-- StatMove2 -->
<g id="node31" class="node"><title>StatMove2</title>
<ellipse fill="none" stroke="black" cx="466.641" cy="-378" rx="50.0912" ry="18"/>
<text text-anchor="middle" x="466.641" y="-374.3" font-family="Times,serif" font-size="14.00">StatMove2</text>
</g>
<!-- ExpEseq1&#45;&gt;StatMove2 -->
<g id="edge34" class="edge"><title>ExpEseq1&#45;&gt;StatMove2</title>
<path fill="none" stroke="black" d="M511.957,-432.765C504.616,-424.056 495.422,-413.147 487.236,-403.435"/>
<polygon fill="black" stroke="black" points="489.781,-401.024 480.66,-395.633 484.429,-405.535 489.781,-401.024"/>
</g>
<!-- ExpTemp3 -->
<g id="node38" class="node"><title>ExpTemp3</title>
<ellipse fill="none" stroke="black" cx="584.641" cy="-378" rx="50.0912" ry="18"/>
<text text-anchor="middle" x="584.641" y="-374.3" font-family="Times,serif" font-size="14.00">ExpTemp3</text>
</g>
<!-- ExpEseq1&#45;&gt;ExpTemp3 -->
<g id="edge35" class="edge"><title>ExpEseq1&#45;&gt;ExpTemp3</title>
<path fill="none" stroke="black" d="M539.325,-432.765C546.665,-424.056 555.86,-413.147 564.046,-403.435"/>
<polygon fill="black" stroke="black" points="566.853,-405.535 570.621,-395.633 561.5,-401.024 566.853,-405.535"/>
</g>
<!-- ExpCall0 -->
<g id="node16" class="node"><title>ExpCall0</title>
<ellipse fill="none" stroke="black" cx="389.641" cy="-882" rx="44.393" ry="18"/>
<text text-anchor="middle" x="389.641" y="-878.3" font-family="Times,serif" font-size="14.00">ExpCall0</text>
</g>
<!-- ExpCall0&#45;&gt;ExpList0 -->
<g id="edge10" class="edge"><title>ExpCall0&#45;&gt;ExpList0</title>
<path fill="none" stroke="black" d="M402.629,-864.765C409.526,-856.143 418.149,-845.365 425.859,-835.727"/>
<polygon fill="black" stroke="black" points="428.82,-837.629 432.334,-827.633 423.354,-833.256 428.82,-837.629"/>
</g>
<!-- ExpName0 -->
<g id="node17" class="node"><title>ExpName0</title>
<ellipse fill="none" stroke="black" cx="333.641" cy="-810" rx="50.8918" ry="18"/>
<text text-anchor="middle" x="333.641" y="-806.3" font-family="Times,serif" font-size="14.00">ExpName0</text>
</g>
<!-- ExpCall0&#45;&gt;ExpName0 -->
<g id="edge9" class="edge"><title>ExpCall0&#45;&gt;ExpName0</title>
<path fill="none" stroke="black" d="M376.652,-864.765C369.755,-856.143 361.132,-845.365 353.422,-835.727"/>
<polygon fill="black" stroke="black" points="355.927,-833.256 346.947,-827.633 350.461,-837.629 355.927,-833.256"/>
</g>
<!-- Label1: print -->
<g id="node18" class="node"><title>Label1: print</title>
<ellipse fill="none" stroke="black" cx="329.641" cy="-738" rx="56.59" ry="18"/>
<text text-anchor="middle" x="329.641" y="-734.3" font-family="Times,serif" font-size="14.00">Label1: print</text>
</g>
<!-- ExpName0&#45;&gt;Label1: print -->
<g id="edge11" class="edge"><title>ExpName0&#45;&gt;Label1: print</title>
<path fill="none" stroke="black" d="M332.652,-791.697C332.211,-783.983 331.681,-774.712 331.19,-766.112"/>
<polygon fill="black" stroke="black" points="334.683,-765.888 330.618,-756.104 327.694,-766.288 334.683,-765.888"/>
</g>
<!-- StatLabel0 -->
<g id="node19" class="node"><title>StatLabel0</title>
<ellipse fill="none" stroke="black" cx="161.641" cy="-954" rx="48.9926" ry="18"/>
<text text-anchor="middle" x="161.641" y="-950.3" font-family="Times,serif" font-size="14.00">StatLabel0</text>
</g>
<!-- Label0: LinkedList@main -->
<g id="node20" class="node"><title>Label0: LinkedList@main</title>
<ellipse fill="none" stroke="black" cx="104.641" cy="-882" rx="104.782" ry="18"/>
<text text-anchor="middle" x="104.641" y="-878.3" font-family="Times,serif" font-size="14.00">Label0: LinkedList@main</text>
</g>
<!-- StatLabel0&#45;&gt;Label0: LinkedList@main -->
<g id="edge12" class="edge"><title>StatLabel0&#45;&gt;Label0: LinkedList@main</title>
<path fill="none" stroke="black" d="M148.133,-936.411C141.207,-927.906 132.63,-917.372 124.928,-907.914"/>
<polygon fill="black" stroke="black" points="127.476,-905.501 118.448,-899.956 122.048,-909.921 127.476,-905.501"/>
</g>
<!-- StatList0 -->
<g id="node21" class="node"><title>StatList0</title>
<ellipse fill="none" stroke="black" cx="306.641" cy="-1026" rx="42.4939" ry="18"/>
<text text-anchor="middle" x="306.641" y="-1022.3" font-family="Times,serif" font-size="14.00">StatList0</text>
</g>
<!-- StatList0&#45;&gt;StatExp0 -->
<g id="edge15" class="edge"><title>StatList0&#45;&gt;StatExp0</title>
<path fill="none" stroke="black" d="M335.904,-1012.81C363.558,-1001.28 405.232,-983.92 435.687,-971.231"/>
<polygon fill="black" stroke="black" points="437.264,-974.365 445.149,-967.288 434.572,-967.904 437.264,-974.365"/>
</g>
<!-- StatList0&#45;&gt;StatLabel0 -->
<g id="edge13" class="edge"><title>StatList0&#45;&gt;StatLabel0</title>
<path fill="none" stroke="black" d="M279.707,-1012C257.122,-1001.09 224.614,-985.401 199.425,-973.241"/>
<polygon fill="black" stroke="black" points="200.693,-969.966 190.166,-968.771 197.65,-976.27 200.693,-969.966"/>
</g>
<!-- StatMove0 -->
<g id="node22" class="node"><title>StatMove0</title>
<ellipse fill="none" stroke="black" cx="306.641" cy="-954" rx="50.0912" ry="18"/>
<text text-anchor="middle" x="306.641" y="-950.3" font-family="Times,serif" font-size="14.00">StatMove0</text>
</g>
<!-- StatList0&#45;&gt;StatMove0 -->
<g id="edge14" class="edge"><title>StatList0&#45;&gt;StatMove0</title>
<path fill="none" stroke="black" d="M306.641,-1007.7C306.641,-999.983 306.641,-990.712 306.641,-982.112"/>
<polygon fill="black" stroke="black" points="310.141,-982.104 306.641,-972.104 303.141,-982.104 310.141,-982.104"/>
</g>
<!-- StatMove0&#45;&gt;ExpCall0 -->
<g id="edge33" class="edge"><title>StatMove0&#45;&gt;ExpCall0</title>
<path fill="none" stroke="black" d="M325.475,-937.116C336.696,-927.652 351.106,-915.499 363.427,-905.108"/>
<polygon fill="black" stroke="black" points="365.779,-907.703 371.167,-898.58 361.266,-902.352 365.779,-907.703"/>
</g>
<!-- ExpTemp0 -->
<g id="node23" class="node"><title>ExpTemp0</title>
<ellipse fill="none" stroke="black" cx="277.641" cy="-882" rx="50.0912" ry="18"/>
<text text-anchor="middle" x="277.641" y="-878.3" font-family="Times,serif" font-size="14.00">ExpTemp0</text>
</g>
<!-- StatMove0&#45;&gt;ExpTemp0 -->
<g id="edge32" class="edge"><title>StatMove0&#45;&gt;ExpTemp0</title>
<path fill="none" stroke="black" d="M299.621,-936.055C296.357,-928.176 292.396,-918.617 288.741,-909.794"/>
<polygon fill="black" stroke="black" points="291.859,-908.174 284.798,-900.275 285.392,-910.853 291.859,-908.174"/>
</g>
<!-- Temp0: T56 -->
<g id="node24" class="node"><title>Temp0: T56</title>
<ellipse fill="none" stroke="black" cx="209.641" cy="-810" rx="55.4913" ry="18"/>
<text text-anchor="middle" x="209.641" y="-806.3" font-family="Times,serif" font-size="14.00">Temp0: T56</text>
</g>
<!-- ExpTemp0&#45;&gt;Temp0: T56 -->
<g id="edge16" class="edge"><title>ExpTemp0&#45;&gt;Temp0: T56</title>
<path fill="none" stroke="black" d="M261.869,-864.765C253.24,-855.882 242.387,-844.709 232.813,-834.854"/>
<polygon fill="black" stroke="black" points="235.277,-832.367 225.799,-827.633 230.256,-837.245 235.277,-832.367"/>
</g>
<!-- ExpList2 -->
<g id="node25" class="node"><title>ExpList2</title>
<ellipse fill="none" stroke="black" cx="591.641" cy="-234" rx="42.7926" ry="18"/>
<text text-anchor="middle" x="591.641" y="-230.3" font-family="Times,serif" font-size="14.00">ExpList2</text>
</g>
<!-- ExpBinary0 -->
<g id="node26" class="node"><title>ExpBinary0</title>
<ellipse fill="none" stroke="black" cx="597.641" cy="-162" rx="53.0913" ry="18"/>
<text text-anchor="middle" x="597.641" y="-158.3" font-family="Times,serif" font-size="14.00">ExpBinary0</text>
</g>
<!-- ExpList2&#45;&gt;ExpBinary0 -->
<g id="edge17" class="edge"><title>ExpList2&#45;&gt;ExpBinary0</title>
<path fill="none" stroke="black" d="M593.124,-215.697C593.785,-207.983 594.58,-198.712 595.317,-190.112"/>
<polygon fill="black" stroke="black" points="598.808,-190.367 596.175,-180.104 591.833,-189.769 598.808,-190.367"/>
</g>
<!-- ExpBinary0&#45;&gt;ExpConst1 -->
<g id="edge31" class="edge"><title>ExpBinary0&#45;&gt;ExpConst1</title>
<path fill="none" stroke="black" d="M620.903,-145.638C635.918,-135.723 655.641,-122.698 672.064,-111.853"/>
<polygon fill="black" stroke="black" points="674.381,-114.517 680.797,-106.085 670.524,-108.675 674.381,-114.517"/>
</g>
<!-- ExpConst0 -->
<g id="node35" class="node"><title>ExpConst0</title>
<ellipse fill="none" stroke="black" cx="491.641" cy="-90" rx="50.0912" ry="18"/>
<text text-anchor="middle" x="491.641" y="-86.3" font-family="Times,serif" font-size="14.00">ExpConst0</text>
</g>
<!-- ExpBinary0&#45;&gt;ExpConst0 -->
<g id="edge29" class="edge"><title>ExpBinary0&#45;&gt;ExpConst0</title>
<path fill="none" stroke="black" d="M574.379,-145.638C559.364,-135.723 539.641,-122.698 523.218,-111.853"/>
<polygon fill="black" stroke="black" points="524.758,-108.675 514.484,-106.085 520.9,-114.517 524.758,-108.675"/>
</g>
<!-- Times0 -->
<g id="node37" class="node"><title>Times0</title>
<ellipse fill="none" stroke="black" cx="597.641" cy="-90" rx="37.8943" ry="18"/>
<text text-anchor="middle" x="597.641" y="-86.3" font-family="Times,serif" font-size="14.00">Times0</text>
</g>
<!-- ExpBinary0&#45;&gt;Times0 -->
<g id="edge30" class="edge"><title>ExpBinary0&#45;&gt;Times0</title>
<path fill="none" stroke="black" d="M597.641,-143.697C597.641,-135.983 597.641,-126.712 597.641,-118.112"/>
<polygon fill="black" stroke="black" points="601.141,-118.104 597.641,-108.104 594.141,-118.104 601.141,-118.104"/>
</g>
<!-- ExpCall2 -->
<g id="node27" class="node"><title>ExpCall2</title>
<ellipse fill="none" stroke="black" cx="467.641" cy="-306" rx="44.393" ry="18"/>
<text text-anchor="middle" x="467.641" y="-302.3" font-family="Times,serif" font-size="14.00">ExpCall2</text>
</g>
<!-- ExpCall2&#45;&gt;ExpList2 -->
<g id="edge21" class="edge"><title>ExpCall2&#45;&gt;ExpList2</title>
<path fill="none" stroke="black" d="M492.436,-291.003C511.275,-280.368 537.387,-265.627 558.092,-253.939"/>
<polygon fill="black" stroke="black" points="559.901,-256.937 566.888,-248.973 556.46,-250.841 559.901,-256.937"/>
</g>
<!-- ExpName2 -->
<g id="node28" class="node"><title>ExpName2</title>
<ellipse fill="none" stroke="black" cx="467.641" cy="-234" rx="50.8918" ry="18"/>
<text text-anchor="middle" x="467.641" y="-230.3" font-family="Times,serif" font-size="14.00">ExpName2</text>
</g>
<!-- ExpCall2&#45;&gt;ExpName2 -->
<g id="edge20" class="edge"><title>ExpCall2&#45;&gt;ExpName2</title>
<path fill="none" stroke="black" d="M467.641,-287.697C467.641,-279.983 467.641,-270.712 467.641,-262.112"/>
<polygon fill="black" stroke="black" points="471.141,-262.104 467.641,-252.104 464.141,-262.104 471.141,-262.104"/>
</g>
<!-- Label3: malloc -->
<g id="node34" class="node"><title>Label3: malloc</title>
<ellipse fill="none" stroke="black" cx="461.641" cy="-162" rx="64.189" ry="18"/>
<text text-anchor="middle" x="461.641" y="-158.3" font-family="Times,serif" font-size="14.00">Label3: malloc</text>
</g>
<!-- ExpName2&#45;&gt;Label3: malloc -->
<g id="edge27" class="edge"><title>ExpName2&#45;&gt;Label3: malloc</title>
<path fill="none" stroke="black" d="M466.158,-215.697C465.496,-207.983 464.702,-198.712 463.965,-190.112"/>
<polygon fill="black" stroke="black" points="467.448,-189.769 463.107,-180.104 460.474,-190.367 467.448,-189.769"/>
</g>
<!-- ExpTemp2 -->
<g id="node29" class="node"><title>ExpTemp2</title>
<ellipse fill="none" stroke="black" cx="349.641" cy="-306" rx="50.0912" ry="18"/>
<text text-anchor="middle" x="349.641" y="-302.3" font-family="Times,serif" font-size="14.00">ExpTemp2</text>
</g>
<!-- Temp2: T54 -->
<g id="node30" class="node"><title>Temp2: T54</title>
<ellipse fill="none" stroke="black" cx="343.641" cy="-234" rx="55.4913" ry="18"/>
<text text-anchor="middle" x="343.641" y="-230.3" font-family="Times,serif" font-size="14.00">Temp2: T54</text>
</g>
<!-- ExpTemp2&#45;&gt;Temp2: T54 -->
<g id="edge22" class="edge"><title>ExpTemp2&#45;&gt;Temp2: T54</title>
<path fill="none" stroke="black" d="M348.158,-287.697C347.496,-279.983 346.702,-270.712 345.965,-262.112"/>
<polygon fill="black" stroke="black" points="349.448,-261.769 345.107,-252.104 342.474,-262.367 349.448,-261.769"/>
</g>
<!-- StatMove2&#45;&gt;ExpCall2 -->
<g id="edge24" class="edge"><title>StatMove2&#45;&gt;ExpCall2</title>
<path fill="none" stroke="black" d="M466.888,-359.697C466.998,-351.983 467.131,-342.712 467.253,-334.112"/>
<polygon fill="black" stroke="black" points="470.753,-334.153 467.396,-324.104 463.754,-334.053 470.753,-334.153"/>
</g>
<!-- StatMove2&#45;&gt;ExpTemp2 -->
<g id="edge23" class="edge"><title>StatMove2&#45;&gt;ExpTemp2</title>
<path fill="none" stroke="black" d="M441.828,-362.155C424.765,-351.946 401.901,-338.267 383.213,-327.086"/>
<polygon fill="black" stroke="black" points="384.796,-323.955 374.418,-321.824 381.202,-329.962 384.796,-323.955"/>
</g>
<!-- Value0: 0 -->
<g id="node36" class="node"><title>Value0: 0</title>
<ellipse fill="none" stroke="black" cx="491.641" cy="-18" rx="45.4919" ry="18"/>
<text text-anchor="middle" x="491.641" y="-14.3" font-family="Times,serif" font-size="14.00">Value0: 0</text>
</g>
<!-- ExpConst0&#45;&gt;Value0: 0 -->
<g id="edge28" class="edge"><title>ExpConst0&#45;&gt;Value0: 0</title>
<path fill="none" stroke="black" d="M491.641,-71.6966C491.641,-63.9827 491.641,-54.7125 491.641,-46.1124"/>
<polygon fill="black" stroke="black" points="495.141,-46.1043 491.641,-36.1043 488.141,-46.1044 495.141,-46.1043"/>
</g>
<!-- Temp3: T54 -->
<g id="node39" class="node"><title>Temp3: T54</title>
<ellipse fill="none" stroke="black" cx="584.641" cy="-306" rx="55.4913" ry="18"/>
<text text-anchor="middle" x="584.641" y="-302.3" font-family="Times,serif" font-size="14.00">Temp3: T54</text>
</g>
<!-- ExpTemp3&#45;&gt;Temp3: T54 -->
<g id="edge36" class="edge"><title>ExpTemp3&#45;&gt;Temp3: T54</title>
<path fill="none" stroke="black" d="M584.641,-359.697C584.641,-351.983 584.641,-342.712 584.641,-334.112"/>
<polygon fill="black" stroke="black" points="588.141,-334.104 584.641,-324.104 581.141,-334.104 588.141,-334.104"/>
</g>
</g>
</svg>
