<?xml version="1.0" encoding="UTF-8" standalone="no"?>
<!DOCTYPE svg PUBLIC "-//W3C//DTD SVG 1.1//EN"
 "http://www.w3.org/Graphics/SVG/1.1/DTD/svg11.dtd">
<!-- Generated by graphviz version 2.38.0 (20140413.2041)
 -->
<!-- Title: %3 Pages: 1 -->
<svg width="576pt" height="548pt"
 viewBox="0.00 0.00 576.19 548.00" xmlns="http://www.w3.org/2000/svg" xmlns:xlink="http://www.w3.org/1999/xlink">
<g id="graph0" class="graph" transform="scale(1 1) rotate(0) translate(4 544)">
<title>%3</title>
<polygon fill="white" stroke="none" points="-4,4 -4,-544 572.191,-544 572.191,4 -4,4"/>
<!-- ExpConst2 -->
<g id="node1" class="node"><title>ExpConst2</title>
<ellipse fill="none" stroke="black" cx="516.696" cy="-306" rx="50.0912" ry="18"/>
<text text-anchor="middle" x="516.696" y="-302.3" font-family="Times,serif" font-size="14.00">ExpConst2</text>
</g>
<!-- Value2: 1 -->
<g id="node2" class="node"><title>Value2: 1</title>
<ellipse fill="none" stroke="black" cx="522.696" cy="-234" rx="45.4919" ry="18"/>
<text text-anchor="middle" x="522.696" y="-230.3" font-family="Times,serif" font-size="14.00">Value2: 1</text>
</g>
<!-- ExpConst2&#45;&gt;Value2: 1 -->
<g id="edge1" class="edge"><title>ExpConst2&#45;&gt;Value2: 1</title>
<path fill="none" stroke="black" d="M518.179,-287.697C518.84,-279.983 519.634,-270.712 520.372,-262.112"/>
<polygon fill="black" stroke="black" points="523.863,-262.367 521.229,-252.104 516.888,-261.769 523.863,-262.367"/>
</g>
<!-- ExpTemp1 -->
<g id="node3" class="node"><title>ExpTemp1</title>
<ellipse fill="none" stroke="black" cx="393.696" cy="-306" rx="50.0912" ry="18"/>
<text text-anchor="middle" x="393.696" y="-302.3" font-family="Times,serif" font-size="14.00">ExpTemp1</text>
</g>
<!-- Temp1: RetVal -->
<g id="node4" class="node"><title>Temp1: RetVal</title>
<ellipse fill="none" stroke="black" cx="393.696" cy="-234" rx="65.7887" ry="18"/>
<text text-anchor="middle" x="393.696" y="-230.3" font-family="Times,serif" font-size="14.00">Temp1: RetVal</text>
</g>
<!-- ExpTemp1&#45;&gt;Temp1: RetVal -->
<g id="edge2" class="edge"><title>ExpTemp1&#45;&gt;Temp1: RetVal</title>
<path fill="none" stroke="black" d="M393.696,-287.697C393.696,-279.983 393.696,-270.712 393.696,-262.112"/>
<polygon fill="black" stroke="black" points="397.196,-262.104 393.696,-252.104 390.196,-262.104 397.196,-262.104"/>
</g>
<!-- ExpMem0 -->
<g id="node5" class="node"><title>ExpMem0</title>
<ellipse fill="none" stroke="black" cx="147.696" cy="-306" rx="48.9926" ry="18"/>
<text text-anchor="middle" x="147.696" y="-302.3" font-family="Times,serif" font-size="14.00">ExpMem0</text>
</g>
<!-- ExpBinary0 -->
<g id="node6" class="node"><title>ExpBinary0</title>
<ellipse fill="none" stroke="black" cx="147.696" cy="-234" rx="53.0913" ry="18"/>
<text text-anchor="middle" x="147.696" y="-230.3" font-family="Times,serif" font-size="14.00">ExpBinary0</text>
</g>
<!-- ExpMem0&#45;&gt;ExpBinary0 -->
<g id="edge3" class="edge"><title>ExpMem0&#45;&gt;ExpBinary0</title>
<path fill="none" stroke="black" d="M147.696,-287.697C147.696,-279.983 147.696,-270.712 147.696,-262.112"/>
<polygon fill="black" stroke="black" points="151.196,-262.104 147.696,-252.104 144.196,-262.104 151.196,-262.104"/>
</g>
<!-- ExpMem1 -->
<g id="node13" class="node"><title>ExpMem1</title>
<ellipse fill="none" stroke="black" cx="50.6955" cy="-162" rx="48.9926" ry="18"/>
<text text-anchor="middle" x="50.6955" y="-158.3" font-family="Times,serif" font-size="14.00">ExpMem1</text>
</g>
<!-- ExpBinary0&#45;&gt;ExpMem1 -->
<g id="edge10" class="edge"><title>ExpBinary0&#45;&gt;ExpMem1</title>
<path fill="none" stroke="black" d="M126.168,-217.465C112.637,-207.7 95.0001,-194.972 80.1782,-184.276"/>
<polygon fill="black" stroke="black" points="81.9862,-181.265 71.829,-178.251 77.8899,-186.941 81.9862,-181.265"/>
</g>
<!-- ExpConst0 -->
<g id="node14" class="node"><title>ExpConst0</title>
<ellipse fill="none" stroke="black" cx="246.696" cy="-162" rx="50.0912" ry="18"/>
<text text-anchor="middle" x="246.696" y="-158.3" font-family="Times,serif" font-size="14.00">ExpConst0</text>
</g>
<!-- ExpBinary0&#45;&gt;ExpConst0 -->
<g id="edge12" class="edge"><title>ExpBinary0&#45;&gt;ExpConst0</title>
<path fill="none" stroke="black" d="M169.667,-217.465C183.476,-207.7 201.477,-194.972 216.605,-184.276"/>
<polygon fill="black" stroke="black" points="218.982,-186.882 225.126,-178.251 214.94,-181.167 218.982,-186.882"/>
</g>
<!-- Plus0 -->
<g id="node16" class="node"><title>Plus0</title>
<ellipse fill="none" stroke="black" cx="147.696" cy="-162" rx="30.5947" ry="18"/>
<text text-anchor="middle" x="147.696" y="-158.3" font-family="Times,serif" font-size="14.00">Plus0</text>
</g>
<!-- ExpBinary0&#45;&gt;Plus0 -->
<g id="edge11" class="edge"><title>ExpBinary0&#45;&gt;Plus0</title>
<path fill="none" stroke="black" d="M147.696,-215.697C147.696,-207.983 147.696,-198.712 147.696,-190.112"/>
<polygon fill="black" stroke="black" points="151.196,-190.104 147.696,-180.104 144.196,-190.104 151.196,-190.104"/>
</g>
<!-- ExpTemp0 -->
<g id="node7" class="node"><title>ExpTemp0</title>
<ellipse fill="none" stroke="black" cx="50.6955" cy="-90" rx="50.0912" ry="18"/>
<text text-anchor="middle" x="50.6955" y="-86.3" font-family="Times,serif" font-size="14.00">ExpTemp0</text>
</g>
<!-- Temp0: FP -->
<g id="node8" class="node"><title>Temp0: FP</title>
<ellipse fill="none" stroke="black" cx="50.6955" cy="-18" rx="50.8918" ry="18"/>
<text text-anchor="middle" x="50.6955" y="-14.3" font-family="Times,serif" font-size="14.00">Temp0: FP</text>
</g>
<!-- ExpTemp0&#45;&gt;Temp0: FP -->
<g id="edge4" class="edge"><title>ExpTemp0&#45;&gt;Temp0: FP</title>
<path fill="none" stroke="black" d="M50.6955,-71.6966C50.6955,-63.9827 50.6955,-54.7125 50.6955,-46.1124"/>
<polygon fill="black" stroke="black" points="54.1956,-46.1043 50.6955,-36.1043 47.1956,-46.1044 54.1956,-46.1043"/>
</g>
<!-- StatSeq0 -->
<g id="node9" class="node"><title>StatSeq0</title>
<ellipse fill="none" stroke="black" cx="202.696" cy="-522" rx="42.4939" ry="18"/>
<text text-anchor="middle" x="202.696" y="-518.3" font-family="Times,serif" font-size="14.00">StatSeq0</text>
</g>
<!-- StatLabel0 -->
<g id="node10" class="node"><title>StatLabel0</title>
<ellipse fill="none" stroke="black" cx="140.696" cy="-450" rx="48.9926" ry="18"/>
<text text-anchor="middle" x="140.696" y="-446.3" font-family="Times,serif" font-size="14.00">StatLabel0</text>
</g>
<!-- StatSeq0&#45;&gt;StatLabel0 -->
<g id="edge5" class="edge"><title>StatSeq0&#45;&gt;StatLabel0</title>
<path fill="none" stroke="black" d="M188.316,-504.765C180.525,-495.969 170.746,-484.928 162.08,-475.144"/>
<polygon fill="black" stroke="black" points="164.678,-472.799 155.428,-467.633 159.438,-477.44 164.678,-472.799"/>
</g>
<!-- StatSeq1 -->
<g id="node11" class="node"><title>StatSeq1</title>
<ellipse fill="none" stroke="black" cx="264.696" cy="-450" rx="42.4939" ry="18"/>
<text text-anchor="middle" x="264.696" y="-446.3" font-family="Times,serif" font-size="14.00">StatSeq1</text>
</g>
<!-- StatSeq0&#45;&gt;StatSeq1 -->
<g id="edge6" class="edge"><title>StatSeq0&#45;&gt;StatSeq1</title>
<path fill="none" stroke="black" d="M217.075,-504.765C224.979,-495.841 234.929,-484.608 243.687,-474.719"/>
<polygon fill="black" stroke="black" points="246.383,-476.954 250.394,-467.147 241.143,-472.313 246.383,-476.954"/>
</g>
<!-- Label0: List::Init -->
<g id="node12" class="node"><title>Label0: List::Init</title>
<ellipse fill="none" stroke="black" cx="125.696" cy="-378" rx="70.6878" ry="18"/>
<text text-anchor="middle" x="125.696" y="-374.3" font-family="Times,serif" font-size="14.00">Label0: List::Init</text>
</g>
<!-- StatLabel0&#45;&gt;Label0: List::Init -->
<g id="edge7" class="edge"><title>StatLabel0&#45;&gt;Label0: List::Init</title>
<path fill="none" stroke="black" d="M136.988,-431.697C135.335,-423.983 133.348,-414.712 131.505,-406.112"/>
<polygon fill="black" stroke="black" points="134.878,-405.149 129.361,-396.104 128.034,-406.616 134.878,-405.149"/>
</g>
<!-- StatMove0 -->
<g id="node17" class="node"><title>StatMove0</title>
<ellipse fill="none" stroke="black" cx="264.696" cy="-378" rx="50.0912" ry="18"/>
<text text-anchor="middle" x="264.696" y="-374.3" font-family="Times,serif" font-size="14.00">StatMove0</text>
</g>
<!-- StatSeq1&#45;&gt;StatMove0 -->
<g id="edge18" class="edge"><title>StatSeq1&#45;&gt;StatMove0</title>
<path fill="none" stroke="black" d="M264.696,-431.697C264.696,-423.983 264.696,-414.712 264.696,-406.112"/>
<polygon fill="black" stroke="black" points="268.196,-406.104 264.696,-396.104 261.196,-406.104 268.196,-406.104"/>
</g>
<!-- StatMove1 -->
<g id="node19" class="node"><title>StatMove1</title>
<ellipse fill="none" stroke="black" cx="393.696" cy="-378" rx="50.0912" ry="18"/>
<text text-anchor="middle" x="393.696" y="-374.3" font-family="Times,serif" font-size="14.00">StatMove1</text>
</g>
<!-- StatSeq1&#45;&gt;StatMove1 -->
<g id="edge19" class="edge"><title>StatSeq1&#45;&gt;StatMove1</title>
<path fill="none" stroke="black" d="M289.874,-435.337C309.378,-424.754 336.639,-409.961 358.332,-398.189"/>
<polygon fill="black" stroke="black" points="360.13,-401.196 367.25,-393.35 356.791,-395.044 360.13,-401.196"/>
</g>
<!-- ExpMem1&#45;&gt;ExpTemp0 -->
<g id="edge8" class="edge"><title>ExpMem1&#45;&gt;ExpTemp0</title>
<path fill="none" stroke="black" d="M50.6955,-143.697C50.6955,-135.983 50.6955,-126.712 50.6955,-118.112"/>
<polygon fill="black" stroke="black" points="54.1956,-118.104 50.6955,-108.104 47.1956,-118.104 54.1956,-118.104"/>
</g>
<!-- Value0: 4 -->
<g id="node15" class="node"><title>Value0: 4</title>
<ellipse fill="none" stroke="black" cx="246.696" cy="-90" rx="45.4919" ry="18"/>
<text text-anchor="middle" x="246.696" y="-86.3" font-family="Times,serif" font-size="14.00">Value0: 4</text>
</g>
<!-- ExpConst0&#45;&gt;Value0: 4 -->
<g id="edge9" class="edge"><title>ExpConst0&#45;&gt;Value0: 4</title>
<path fill="none" stroke="black" d="M246.696,-143.697C246.696,-135.983 246.696,-126.712 246.696,-118.112"/>
<polygon fill="black" stroke="black" points="250.196,-118.104 246.696,-108.104 243.196,-118.104 250.196,-118.104"/>
</g>
<!-- StatMove0&#45;&gt;ExpMem0 -->
<g id="edge13" class="edge"><title>StatMove0&#45;&gt;ExpMem0</title>
<path fill="none" stroke="black" d="M239.883,-362.155C222.82,-351.946 199.956,-338.267 181.268,-327.086"/>
<polygon fill="black" stroke="black" points="182.851,-323.955 172.472,-321.824 179.257,-329.962 182.851,-323.955"/>
</g>
<!-- ExpConst1 -->
<g id="node18" class="node"><title>ExpConst1</title>
<ellipse fill="none" stroke="black" cx="264.696" cy="-306" rx="50.0912" ry="18"/>
<text text-anchor="middle" x="264.696" y="-302.3" font-family="Times,serif" font-size="14.00">ExpConst1</text>
</g>
<!-- StatMove0&#45;&gt;ExpConst1 -->
<g id="edge14" class="edge"><title>StatMove0&#45;&gt;ExpConst1</title>
<path fill="none" stroke="black" d="M264.696,-359.697C264.696,-351.983 264.696,-342.712 264.696,-334.112"/>
<polygon fill="black" stroke="black" points="268.196,-334.104 264.696,-324.104 261.196,-334.104 268.196,-334.104"/>
</g>
<!-- Value1: 1 -->
<g id="node20" class="node"><title>Value1: 1</title>
<ellipse fill="none" stroke="black" cx="264.696" cy="-234" rx="45.4919" ry="18"/>
<text text-anchor="middle" x="264.696" y="-230.3" font-family="Times,serif" font-size="14.00">Value1: 1</text>
</g>
<!-- ExpConst1&#45;&gt;Value1: 1 -->
<g id="edge17" class="edge"><title>ExpConst1&#45;&gt;Value1: 1</title>
<path fill="none" stroke="black" d="M264.696,-287.697C264.696,-279.983 264.696,-270.712 264.696,-262.112"/>
<polygon fill="black" stroke="black" points="268.196,-262.104 264.696,-252.104 261.196,-262.104 268.196,-262.104"/>
</g>
<!-- StatMove1&#45;&gt;ExpConst2 -->
<g id="edge16" class="edge"><title>StatMove1&#45;&gt;ExpConst2</title>
<path fill="none" stroke="black" d="M419.181,-362.496C437.365,-352.147 462.035,-338.107 482.012,-326.739"/>
<polygon fill="black" stroke="black" points="483.859,-329.714 490.819,-321.726 480.397,-323.631 483.859,-329.714"/>
</g>
<!-- StatMove1&#45;&gt;ExpTemp1 -->
<g id="edge15" class="edge"><title>StatMove1&#45;&gt;ExpTemp1</title>
<path fill="none" stroke="black" d="M393.696,-359.697C393.696,-351.983 393.696,-342.712 393.696,-334.112"/>
<polygon fill="black" stroke="black" points="397.196,-334.104 393.696,-324.104 390.196,-334.104 397.196,-334.104"/>
</g>
</g>
</svg>
