<?xml version="1.0" encoding="UTF-8" standalone="no"?>
<!DOCTYPE svg PUBLIC "-//W3C//DTD SVG 1.1//EN"
 "http://www.w3.org/Graphics/SVG/1.1/DTD/svg11.dtd">
<!-- Generated by graphviz version 2.38.0 (20140413.2041)
 -->
<!-- Title: %3 Pages: 1 -->
<svg width="733pt" height="548pt"
 viewBox="0.00 0.00 733.19 548.00" xmlns="http://www.w3.org/2000/svg" xmlns:xlink="http://www.w3.org/1999/xlink">
<g id="graph0" class="graph" transform="scale(1 1) rotate(0) translate(4 544)">
<title>%3</title>
<polygon fill="white" stroke="none" points="-4,4 -4,-544 729.191,-544 729.191,4 -4,4"/>
<!-- ExpConst2 -->
<g id="node1" class="node"><title>ExpConst2</title>
<ellipse fill="none" stroke="black" cx="673.696" cy="-306" rx="50.0912" ry="18"/>
<text text-anchor="middle" x="673.696" y="-302.3" font-family="Times,serif" font-size="14.00">ExpConst2</text>
</g>
<!-- Value2: 1 -->
<g id="node2" class="node"><title>Value2: 1</title>
<ellipse fill="none" stroke="black" cx="679.696" cy="-234" rx="45.4919" ry="18"/>
<text text-anchor="middle" x="679.696" y="-230.3" font-family="Times,serif" font-size="14.00">Value2: 1</text>
</g>
<!-- ExpConst2&#45;&gt;Value2: 1 -->
<g id="edge1" class="edge"><title>ExpConst2&#45;&gt;Value2: 1</title>
<path fill="none" stroke="black" d="M675.179,-287.697C675.84,-279.983 676.634,-270.712 677.372,-262.112"/>
<polygon fill="black" stroke="black" points="680.863,-262.367 678.229,-252.104 673.888,-261.769 680.863,-262.367"/>
</g>
<!-- ExpTemp2 -->
<g id="node3" class="node"><title>ExpTemp2</title>
<ellipse fill="none" stroke="black" cx="550.696" cy="-306" rx="50.0912" ry="18"/>
<text text-anchor="middle" x="550.696" y="-302.3" font-family="Times,serif" font-size="14.00">ExpTemp2</text>
</g>
<!-- Temp2: RetVal -->
<g id="node4" class="node"><title>Temp2: RetVal</title>
<ellipse fill="none" stroke="black" cx="550.696" cy="-234" rx="65.7887" ry="18"/>
<text text-anchor="middle" x="550.696" y="-230.3" font-family="Times,serif" font-size="14.00">Temp2: RetVal</text>
</g>
<!-- ExpTemp2&#45;&gt;Temp2: RetVal -->
<g id="edge2" class="edge"><title>ExpTemp2&#45;&gt;Temp2: RetVal</title>
<path fill="none" stroke="black" d="M550.696,-287.697C550.696,-279.983 550.696,-270.712 550.696,-262.112"/>
<polygon fill="black" stroke="black" points="554.196,-262.104 550.696,-252.104 547.196,-262.104 554.196,-262.104"/>
</g>
<!-- StatSeq1 -->
<g id="node5" class="node"><title>StatSeq1</title>
<ellipse fill="none" stroke="black" cx="413.696" cy="-450" rx="42.4939" ry="18"/>
<text text-anchor="middle" x="413.696" y="-446.3" font-family="Times,serif" font-size="14.00">StatSeq1</text>
</g>
<!-- StatMove0 -->
<g id="node6" class="node"><title>StatMove0</title>
<ellipse fill="none" stroke="black" cx="413.696" cy="-378" rx="50.0912" ry="18"/>
<text text-anchor="middle" x="413.696" y="-374.3" font-family="Times,serif" font-size="14.00">StatMove0</text>
</g>
<!-- StatSeq1&#45;&gt;StatMove0 -->
<g id="edge3" class="edge"><title>StatSeq1&#45;&gt;StatMove0</title>
<path fill="none" stroke="black" d="M413.696,-431.697C413.696,-423.983 413.696,-414.712 413.696,-406.112"/>
<polygon fill="black" stroke="black" points="417.196,-406.104 413.696,-396.104 410.196,-406.104 417.196,-406.104"/>
</g>
<!-- StatMove1 -->
<g id="node7" class="node"><title>StatMove1</title>
<ellipse fill="none" stroke="black" cx="550.696" cy="-378" rx="50.0912" ry="18"/>
<text text-anchor="middle" x="550.696" y="-374.3" font-family="Times,serif" font-size="14.00">StatMove1</text>
</g>
<!-- StatSeq1&#45;&gt;StatMove1 -->
<g id="edge4" class="edge"><title>StatSeq1&#45;&gt;StatMove1</title>
<path fill="none" stroke="black" d="M439.787,-435.669C460.759,-424.953 490.476,-409.769 513.871,-397.816"/>
<polygon fill="black" stroke="black" points="515.506,-400.911 522.818,-393.244 512.321,-394.677 515.506,-400.911"/>
</g>
<!-- ExpMem2 -->
<g id="node10" class="node"><title>ExpMem2</title>
<ellipse fill="none" stroke="black" cx="413.696" cy="-306" rx="48.9926" ry="18"/>
<text text-anchor="middle" x="413.696" y="-302.3" font-family="Times,serif" font-size="14.00">ExpMem2</text>
</g>
<!-- StatMove0&#45;&gt;ExpMem2 -->
<g id="edge19" class="edge"><title>StatMove0&#45;&gt;ExpMem2</title>
<path fill="none" stroke="black" d="M413.696,-359.697C413.696,-351.983 413.696,-342.712 413.696,-334.112"/>
<polygon fill="black" stroke="black" points="417.196,-334.104 413.696,-324.104 410.196,-334.104 417.196,-334.104"/>
</g>
<!-- ExpMem0 -->
<g id="node22" class="node"><title>ExpMem0</title>
<ellipse fill="none" stroke="black" cx="247.696" cy="-306" rx="48.9926" ry="18"/>
<text text-anchor="middle" x="247.696" y="-302.3" font-family="Times,serif" font-size="14.00">ExpMem0</text>
</g>
<!-- StatMove0&#45;&gt;ExpMem0 -->
<g id="edge18" class="edge"><title>StatMove0&#45;&gt;ExpMem0</title>
<path fill="none" stroke="black" d="M382.472,-363.834C355.724,-352.554 317.03,-336.238 287.957,-323.978"/>
<polygon fill="black" stroke="black" points="289.072,-320.65 278.498,-319.989 286.352,-327.1 289.072,-320.65"/>
</g>
<!-- StatMove1&#45;&gt;ExpConst2 -->
<g id="edge6" class="edge"><title>StatMove1&#45;&gt;ExpConst2</title>
<path fill="none" stroke="black" d="M576.181,-362.496C594.365,-352.147 619.035,-338.107 639.012,-326.739"/>
<polygon fill="black" stroke="black" points="640.859,-329.714 647.819,-321.726 637.397,-323.631 640.859,-329.714"/>
</g>
<!-- StatMove1&#45;&gt;ExpTemp2 -->
<g id="edge5" class="edge"><title>StatMove1&#45;&gt;ExpTemp2</title>
<path fill="none" stroke="black" d="M550.696,-359.697C550.696,-351.983 550.696,-342.712 550.696,-334.112"/>
<polygon fill="black" stroke="black" points="554.196,-334.104 550.696,-324.104 547.196,-334.104 554.196,-334.104"/>
</g>
<!-- ExpConst1 -->
<g id="node8" class="node"><title>ExpConst1</title>
<ellipse fill="none" stroke="black" cx="562.696" cy="-162" rx="50.0912" ry="18"/>
<text text-anchor="middle" x="562.696" y="-158.3" font-family="Times,serif" font-size="14.00">ExpConst1</text>
</g>
<!-- Value1: 4 -->
<g id="node9" class="node"><title>Value1: 4</title>
<ellipse fill="none" stroke="black" cx="562.696" cy="-90" rx="45.4919" ry="18"/>
<text text-anchor="middle" x="562.696" y="-86.3" font-family="Times,serif" font-size="14.00">Value1: 4</text>
</g>
<!-- ExpConst1&#45;&gt;Value1: 4 -->
<g id="edge7" class="edge"><title>ExpConst1&#45;&gt;Value1: 4</title>
<path fill="none" stroke="black" d="M562.696,-143.697C562.696,-135.983 562.696,-126.712 562.696,-118.112"/>
<polygon fill="black" stroke="black" points="566.196,-118.104 562.696,-108.104 559.196,-118.104 566.196,-118.104"/>
</g>
<!-- ExpBinary1 -->
<g id="node11" class="node"><title>ExpBinary1</title>
<ellipse fill="none" stroke="black" cx="413.696" cy="-234" rx="53.0913" ry="18"/>
<text text-anchor="middle" x="413.696" y="-230.3" font-family="Times,serif" font-size="14.00">ExpBinary1</text>
</g>
<!-- ExpMem2&#45;&gt;ExpBinary1 -->
<g id="edge8" class="edge"><title>ExpMem2&#45;&gt;ExpBinary1</title>
<path fill="none" stroke="black" d="M413.696,-287.697C413.696,-279.983 413.696,-270.712 413.696,-262.112"/>
<polygon fill="black" stroke="black" points="417.196,-262.104 413.696,-252.104 410.196,-262.104 417.196,-262.104"/>
</g>
<!-- ExpBinary1&#45;&gt;ExpConst1 -->
<g id="edge24" class="edge"><title>ExpBinary1&#45;&gt;ExpConst1</title>
<path fill="none" stroke="black" d="M443.49,-219.003C466.684,-208.106 499.052,-192.9 524.207,-181.082"/>
<polygon fill="black" stroke="black" points="525.898,-184.155 533.461,-176.734 522.921,-177.819 525.898,-184.155"/>
</g>
<!-- ExpTemp1 -->
<g id="node23" class="node"><title>ExpTemp1</title>
<ellipse fill="none" stroke="black" cx="364.696" cy="-162" rx="50.0912" ry="18"/>
<text text-anchor="middle" x="364.696" y="-158.3" font-family="Times,serif" font-size="14.00">ExpTemp1</text>
</g>
<!-- ExpBinary1&#45;&gt;ExpTemp1 -->
<g id="edge22" class="edge"><title>ExpBinary1&#45;&gt;ExpTemp1</title>
<path fill="none" stroke="black" d="M402.083,-216.411C396.19,-207.992 388.905,-197.585 382.336,-188.201"/>
<polygon fill="black" stroke="black" points="385.167,-186.141 376.565,-179.956 379.432,-190.156 385.167,-186.141"/>
</g>
<!-- Plus1 -->
<g id="node25" class="node"><title>Plus1</title>
<ellipse fill="none" stroke="black" cx="463.696" cy="-162" rx="30.5947" ry="18"/>
<text text-anchor="middle" x="463.696" y="-158.3" font-family="Times,serif" font-size="14.00">Plus1</text>
</g>
<!-- ExpBinary1&#45;&gt;Plus1 -->
<g id="edge23" class="edge"><title>ExpBinary1&#45;&gt;Plus1</title>
<path fill="none" stroke="black" d="M425.545,-216.411C431.736,-207.744 439.43,-196.971 446.284,-187.375"/>
<polygon fill="black" stroke="black" points="449.311,-189.16 452.275,-178.988 443.615,-185.091 449.311,-189.16"/>
</g>
<!-- ExpTemp0 -->
<g id="node12" class="node"><title>ExpTemp0</title>
<ellipse fill="none" stroke="black" cx="50.6955" cy="-90" rx="50.0912" ry="18"/>
<text text-anchor="middle" x="50.6955" y="-86.3" font-family="Times,serif" font-size="14.00">ExpTemp0</text>
</g>
<!-- Temp0: FP -->
<g id="node13" class="node"><title>Temp0: FP</title>
<ellipse fill="none" stroke="black" cx="50.6955" cy="-18" rx="50.8918" ry="18"/>
<text text-anchor="middle" x="50.6955" y="-14.3" font-family="Times,serif" font-size="14.00">Temp0: FP</text>
</g>
<!-- ExpTemp0&#45;&gt;Temp0: FP -->
<g id="edge9" class="edge"><title>ExpTemp0&#45;&gt;Temp0: FP</title>
<path fill="none" stroke="black" d="M50.6955,-71.6966C50.6955,-63.9827 50.6955,-54.7125 50.6955,-46.1124"/>
<polygon fill="black" stroke="black" points="54.1956,-46.1043 50.6955,-36.1043 47.1956,-46.1044 54.1956,-46.1043"/>
</g>
<!-- StatSeq0 -->
<g id="node14" class="node"><title>StatSeq0</title>
<ellipse fill="none" stroke="black" cx="347.696" cy="-522" rx="42.4939" ry="18"/>
<text text-anchor="middle" x="347.696" y="-518.3" font-family="Times,serif" font-size="14.00">StatSeq0</text>
</g>
<!-- StatSeq0&#45;&gt;StatSeq1 -->
<g id="edge11" class="edge"><title>StatSeq0&#45;&gt;StatSeq1</title>
<path fill="none" stroke="black" d="M362.672,-505.116C371.158,-496.116 381.938,-484.682 391.401,-474.646"/>
<polygon fill="black" stroke="black" points="394.007,-476.984 398.32,-467.307 388.914,-472.182 394.007,-476.984"/>
</g>
<!-- StatLabel0 -->
<g id="node15" class="node"><title>StatLabel0</title>
<ellipse fill="none" stroke="black" cx="281.696" cy="-450" rx="48.9926" ry="18"/>
<text text-anchor="middle" x="281.696" y="-446.3" font-family="Times,serif" font-size="14.00">StatLabel0</text>
</g>
<!-- StatSeq0&#45;&gt;StatLabel0 -->
<g id="edge10" class="edge"><title>StatSeq0&#45;&gt;StatLabel0</title>
<path fill="none" stroke="black" d="M332.719,-505.116C324.233,-496.116 313.453,-484.682 303.99,-474.646"/>
<polygon fill="black" stroke="black" points="306.477,-472.182 297.071,-467.307 301.384,-476.984 306.477,-472.182"/>
</g>
<!-- Label0: List::SetNext -->
<g id="node16" class="node"><title>Label0: List::SetNext</title>
<ellipse fill="none" stroke="black" cx="258.696" cy="-378" rx="87.1846" ry="18"/>
<text text-anchor="middle" x="258.696" y="-374.3" font-family="Times,serif" font-size="14.00">Label0: List::SetNext</text>
</g>
<!-- StatLabel0&#45;&gt;Label0: List::SetNext -->
<g id="edge12" class="edge"><title>StatLabel0&#45;&gt;Label0: List::SetNext</title>
<path fill="none" stroke="black" d="M276.128,-432.055C273.539,-424.176 270.398,-414.617 267.499,-405.794"/>
<polygon fill="black" stroke="black" points="270.818,-404.683 264.372,-396.275 264.168,-406.868 270.818,-404.683"/>
</g>
<!-- ExpMem1 -->
<g id="node17" class="node"><title>ExpMem1</title>
<ellipse fill="none" stroke="black" cx="50.6955" cy="-162" rx="48.9926" ry="18"/>
<text text-anchor="middle" x="50.6955" y="-158.3" font-family="Times,serif" font-size="14.00">ExpMem1</text>
</g>
<!-- ExpMem1&#45;&gt;ExpTemp0 -->
<g id="edge13" class="edge"><title>ExpMem1&#45;&gt;ExpTemp0</title>
<path fill="none" stroke="black" d="M50.6955,-143.697C50.6955,-135.983 50.6955,-126.712 50.6955,-118.112"/>
<polygon fill="black" stroke="black" points="54.1956,-118.104 50.6955,-108.104 47.1956,-118.104 54.1956,-118.104"/>
</g>
<!-- ExpConst0 -->
<g id="node18" class="node"><title>ExpConst0</title>
<ellipse fill="none" stroke="black" cx="246.696" cy="-162" rx="50.0912" ry="18"/>
<text text-anchor="middle" x="246.696" y="-158.3" font-family="Times,serif" font-size="14.00">ExpConst0</text>
</g>
<!-- Value0: 8 -->
<g id="node19" class="node"><title>Value0: 8</title>
<ellipse fill="none" stroke="black" cx="246.696" cy="-90" rx="45.4919" ry="18"/>
<text text-anchor="middle" x="246.696" y="-86.3" font-family="Times,serif" font-size="14.00">Value0: 8</text>
</g>
<!-- ExpConst0&#45;&gt;Value0: 8 -->
<g id="edge14" class="edge"><title>ExpConst0&#45;&gt;Value0: 8</title>
<path fill="none" stroke="black" d="M246.696,-143.697C246.696,-135.983 246.696,-126.712 246.696,-118.112"/>
<polygon fill="black" stroke="black" points="250.196,-118.104 246.696,-108.104 243.196,-118.104 250.196,-118.104"/>
</g>
<!-- ExpBinary0 -->
<g id="node20" class="node"><title>ExpBinary0</title>
<ellipse fill="none" stroke="black" cx="196.696" cy="-234" rx="53.0913" ry="18"/>
<text text-anchor="middle" x="196.696" y="-230.3" font-family="Times,serif" font-size="14.00">ExpBinary0</text>
</g>
<!-- ExpBinary0&#45;&gt;ExpMem1 -->
<g id="edge15" class="edge"><title>ExpBinary0&#45;&gt;ExpMem1</title>
<path fill="none" stroke="black" d="M167.15,-218.834C144.394,-207.924 112.779,-192.766 88.232,-180.997"/>
<polygon fill="black" stroke="black" points="89.7336,-177.835 79.2032,-176.668 86.7072,-184.147 89.7336,-177.835"/>
</g>
<!-- ExpBinary0&#45;&gt;ExpConst0 -->
<g id="edge17" class="edge"><title>ExpBinary0&#45;&gt;ExpConst0</title>
<path fill="none" stroke="black" d="M208.545,-216.411C214.559,-207.992 221.992,-197.585 228.695,-188.201"/>
<polygon fill="black" stroke="black" points="231.62,-190.128 234.584,-179.956 225.923,-186.059 231.62,-190.128"/>
</g>
<!-- Plus0 -->
<g id="node21" class="node"><title>Plus0</title>
<ellipse fill="none" stroke="black" cx="147.696" cy="-162" rx="30.5947" ry="18"/>
<text text-anchor="middle" x="147.696" y="-158.3" font-family="Times,serif" font-size="14.00">Plus0</text>
</g>
<!-- ExpBinary0&#45;&gt;Plus0 -->
<g id="edge16" class="edge"><title>ExpBinary0&#45;&gt;Plus0</title>
<path fill="none" stroke="black" d="M185.083,-216.411C179.016,-207.744 171.475,-196.971 164.758,-187.375"/>
<polygon fill="black" stroke="black" points="167.489,-185.173 158.887,-178.988 161.755,-189.188 167.489,-185.173"/>
</g>
<!-- ExpMem0&#45;&gt;ExpBinary0 -->
<g id="edge21" class="edge"><title>ExpMem0&#45;&gt;ExpBinary0</title>
<path fill="none" stroke="black" d="M235.609,-288.411C229.475,-279.992 221.893,-269.585 215.056,-260.201"/>
<polygon fill="black" stroke="black" points="217.767,-257.978 209.049,-251.956 212.109,-262.1 217.767,-257.978"/>
</g>
<!-- Temp1: FP -->
<g id="node24" class="node"><title>Temp1: FP</title>
<ellipse fill="none" stroke="black" cx="364.696" cy="-90" rx="50.8918" ry="18"/>
<text text-anchor="middle" x="364.696" y="-86.3" font-family="Times,serif" font-size="14.00">Temp1: FP</text>
</g>
<!-- ExpTemp1&#45;&gt;Temp1: FP -->
<g id="edge20" class="edge"><title>ExpTemp1&#45;&gt;Temp1: FP</title>
<path fill="none" stroke="black" d="M364.696,-143.697C364.696,-135.983 364.696,-126.712 364.696,-118.112"/>
<polygon fill="black" stroke="black" points="368.196,-118.104 364.696,-108.104 361.196,-118.104 368.196,-118.104"/>
</g>
</g>
</svg>
