<?xml version="1.0" encoding="UTF-8" standalone="no"?>
<!DOCTYPE svg PUBLIC "-//W3C//DTD SVG 1.1//EN"
 "http://www.w3.org/Graphics/SVG/1.1/DTD/svg11.dtd">
<!-- Generated by graphviz version 2.38.0 (20140413.2041)
 -->
<!-- Title: %3 Pages: 1 -->
<svg width="677pt" height="1124pt"
 viewBox="0.00 0.00 676.69 1124.00" xmlns="http://www.w3.org/2000/svg" xmlns:xlink="http://www.w3.org/1999/xlink">
<g id="graph0" class="graph" transform="scale(1 1) rotate(0) translate(4 1120)">
<title>%3</title>
<polygon fill="white" stroke="none" points="-4,4 -4,-1120 672.686,-1120 672.686,4 -4,4"/>
<!-- StatExp0 -->
<g id="node1" class="node"><title>StatExp0</title>
<ellipse fill="none" stroke="black" cx="388.641" cy="-954" rx="42.7926" ry="18"/>
<text text-anchor="middle" x="388.641" y="-950.3" font-family="Times,serif" font-size="14.00">StatExp0</text>
</g>
<!-- ExpTemp5 -->
<g id="node2" class="node"><title>ExpTemp5</title>
<ellipse fill="none" stroke="black" cx="447.641" cy="-882" rx="50.0912" ry="18"/>
<text text-anchor="middle" x="447.641" y="-878.3" font-family="Times,serif" font-size="14.00">ExpTemp5</text>
</g>
<!-- StatExp0&#45;&gt;ExpTemp5 -->
<g id="edge1" class="edge"><title>StatExp0&#45;&gt;ExpTemp5</title>
<path fill="none" stroke="black" d="M402.325,-936.765C409.665,-928.056 418.86,-917.147 427.046,-907.435"/>
<polygon fill="black" stroke="black" points="429.853,-909.535 433.621,-899.633 424.5,-905.024 429.853,-909.535"/>
</g>
<!-- Temp5: T56 -->
<g id="node34" class="node"><title>Temp5: T56</title>
<ellipse fill="none" stroke="black" cx="476.641" cy="-810" rx="55.4913" ry="18"/>
<text text-anchor="middle" x="476.641" y="-806.3" font-family="Times,serif" font-size="14.00">Temp5: T56</text>
</g>
<!-- ExpTemp5&#45;&gt;Temp5: T56 -->
<g id="edge25" class="edge"><title>ExpTemp5&#45;&gt;Temp5: T56</title>
<path fill="none" stroke="black" d="M454.661,-864.055C457.925,-856.176 461.885,-846.617 465.54,-837.794"/>
<polygon fill="black" stroke="black" points="468.89,-838.853 469.484,-828.275 462.423,-836.174 468.89,-838.853"/>
</g>
<!-- ExpList0 -->
<g id="node3" class="node"><title>ExpList0</title>
<ellipse fill="none" stroke="black" cx="360.641" cy="-810" rx="42.7926" ry="18"/>
<text text-anchor="middle" x="360.641" y="-806.3" font-family="Times,serif" font-size="14.00">ExpList0</text>
</g>
<!-- ExpEseq0 -->
<g id="node4" class="node"><title>ExpEseq0</title>
<ellipse fill="none" stroke="black" cx="365.641" cy="-738" rx="46.2923" ry="18"/>
<text text-anchor="middle" x="365.641" y="-734.3" font-family="Times,serif" font-size="14.00">ExpEseq0</text>
</g>
<!-- ExpList0&#45;&gt;ExpEseq0 -->
<g id="edge2" class="edge"><title>ExpList0&#45;&gt;ExpEseq0</title>
<path fill="none" stroke="black" d="M361.877,-791.697C362.428,-783.983 363.09,-774.712 363.704,-766.112"/>
<polygon fill="black" stroke="black" points="367.198,-766.328 364.419,-756.104 360.215,-765.83 367.198,-766.328"/>
</g>
<!-- ExpTemp4 -->
<g id="node5" class="node"><title>ExpTemp4</title>
<ellipse fill="none" stroke="black" cx="424.641" cy="-666" rx="50.0912" ry="18"/>
<text text-anchor="middle" x="424.641" y="-662.3" font-family="Times,serif" font-size="14.00">ExpTemp4</text>
</g>
<!-- ExpEseq0&#45;&gt;ExpTemp4 -->
<g id="edge39" class="edge"><title>ExpEseq0&#45;&gt;ExpTemp4</title>
<path fill="none" stroke="black" d="M379.325,-720.765C386.665,-712.056 395.86,-701.147 404.046,-691.435"/>
<polygon fill="black" stroke="black" points="406.853,-693.535 410.621,-683.633 401.5,-689.024 406.853,-693.535"/>
</g>
<!-- StatMove1 -->
<g id="node9" class="node"><title>StatMove1</title>
<ellipse fill="none" stroke="black" cx="306.641" cy="-666" rx="50.0912" ry="18"/>
<text text-anchor="middle" x="306.641" y="-662.3" font-family="Times,serif" font-size="14.00">StatMove1</text>
</g>
<!-- ExpEseq0&#45;&gt;StatMove1 -->
<g id="edge38" class="edge"><title>ExpEseq0&#45;&gt;StatMove1</title>
<path fill="none" stroke="black" d="M351.957,-720.765C344.616,-712.056 335.422,-701.147 327.236,-691.435"/>
<polygon fill="black" stroke="black" points="329.781,-689.024 320.66,-683.633 324.429,-693.535 329.781,-689.024"/>
</g>
<!-- Temp4: T55 -->
<g id="node6" class="node"><title>Temp4: T55</title>
<ellipse fill="none" stroke="black" cx="424.641" cy="-594" rx="55.4913" ry="18"/>
<text text-anchor="middle" x="424.641" y="-590.3" font-family="Times,serif" font-size="14.00">Temp4: T55</text>
</g>
<!-- ExpTemp4&#45;&gt;Temp4: T55 -->
<g id="edge3" class="edge"><title>ExpTemp4&#45;&gt;Temp4: T55</title>
<path fill="none" stroke="black" d="M424.641,-647.697C424.641,-639.983 424.641,-630.712 424.641,-622.112"/>
<polygon fill="black" stroke="black" points="428.141,-622.104 424.641,-612.104 421.141,-622.104 428.141,-622.104"/>
</g>
<!-- ExpName1 -->
<g id="node7" class="node"><title>ExpName1</title>
<ellipse fill="none" stroke="black" cx="307.641" cy="-522" rx="50.8918" ry="18"/>
<text text-anchor="middle" x="307.641" y="-518.3" font-family="Times,serif" font-size="14.00">ExpName1</text>
</g>
<!-- Label2: LL@Start -->
<g id="node8" class="node"><title>Label2: LL@Start</title>
<ellipse fill="none" stroke="black" cx="300.641" cy="-450" rx="75.2868" ry="18"/>
<text text-anchor="middle" x="300.641" y="-446.3" font-family="Times,serif" font-size="14.00">Label2: LL@Start</text>
</g>
<!-- ExpName1&#45;&gt;Label2: LL@Start -->
<g id="edge4" class="edge"><title>ExpName1&#45;&gt;Label2: LL@Start</title>
<path fill="none" stroke="black" d="M305.91,-503.697C305.139,-495.983 304.212,-486.712 303.352,-478.112"/>
<polygon fill="black" stroke="black" points="306.829,-477.706 302.351,-468.104 299.864,-478.403 306.829,-477.706"/>
</g>
<!-- ExpTemp1 -->
<g id="node10" class="node"><title>ExpTemp1</title>
<ellipse fill="none" stroke="black" cx="189.641" cy="-594" rx="50.0912" ry="18"/>
<text text-anchor="middle" x="189.641" y="-590.3" font-family="Times,serif" font-size="14.00">ExpTemp1</text>
</g>
<!-- StatMove1&#45;&gt;ExpTemp1 -->
<g id="edge5" class="edge"><title>StatMove1&#45;&gt;ExpTemp1</title>
<path fill="none" stroke="black" d="M281.828,-650.155C264.765,-639.946 241.901,-626.267 223.213,-615.086"/>
<polygon fill="black" stroke="black" points="224.796,-611.955 214.418,-609.824 221.202,-617.962 224.796,-611.955"/>
</g>
<!-- ExpCall1 -->
<g id="node11" class="node"><title>ExpCall1</title>
<ellipse fill="none" stroke="black" cx="307.641" cy="-594" rx="44.393" ry="18"/>
<text text-anchor="middle" x="307.641" y="-590.3" font-family="Times,serif" font-size="14.00">ExpCall1</text>
</g>
<!-- StatMove1&#45;&gt;ExpCall1 -->
<g id="edge6" class="edge"><title>StatMove1&#45;&gt;ExpCall1</title>
<path fill="none" stroke="black" d="M306.888,-647.697C306.998,-639.983 307.131,-630.712 307.253,-622.112"/>
<polygon fill="black" stroke="black" points="310.753,-622.153 307.396,-612.104 303.754,-622.053 310.753,-622.153"/>
</g>
<!-- Temp1: T55 -->
<g id="node35" class="node"><title>Temp1: T55</title>
<ellipse fill="none" stroke="black" cx="183.641" cy="-522" rx="55.4913" ry="18"/>
<text text-anchor="middle" x="183.641" y="-518.3" font-family="Times,serif" font-size="14.00">Temp1: T55</text>
</g>
<!-- ExpTemp1&#45;&gt;Temp1: T55 -->
<g id="edge26" class="edge"><title>ExpTemp1&#45;&gt;Temp1: T55</title>
<path fill="none" stroke="black" d="M188.158,-575.697C187.496,-567.983 186.702,-558.712 185.965,-550.112"/>
<polygon fill="black" stroke="black" points="189.448,-549.769 185.107,-540.104 182.474,-550.367 189.448,-549.769"/>
</g>
<!-- ExpCall1&#45;&gt;ExpName1 -->
<g id="edge18" class="edge"><title>ExpCall1&#45;&gt;ExpName1</title>
<path fill="none" stroke="black" d="M307.641,-575.697C307.641,-567.983 307.641,-558.712 307.641,-550.112"/>
<polygon fill="black" stroke="black" points="311.141,-550.104 307.641,-540.104 304.141,-550.104 311.141,-550.104"/>
</g>
<!-- ExpList1 -->
<g id="node16" class="node"><title>ExpList1</title>
<ellipse fill="none" stroke="black" cx="433.641" cy="-522" rx="42.7926" ry="18"/>
<text text-anchor="middle" x="433.641" y="-518.3" font-family="Times,serif" font-size="14.00">ExpList1</text>
</g>
<!-- ExpCall1&#45;&gt;ExpList1 -->
<g id="edge19" class="edge"><title>ExpCall1&#45;&gt;ExpList1</title>
<path fill="none" stroke="black" d="M332.836,-579.003C352.104,-568.298 378.859,-553.434 399.963,-541.71"/>
<polygon fill="black" stroke="black" points="401.877,-544.651 408.919,-536.734 398.477,-538.531 401.877,-544.651"/>
</g>
<!-- StatSeq1 -->
<g id="node12" class="node"><title>StatSeq1</title>
<ellipse fill="none" stroke="black" cx="277.641" cy="-1026" rx="42.4939" ry="18"/>
<text text-anchor="middle" x="277.641" y="-1022.3" font-family="Times,serif" font-size="14.00">StatSeq1</text>
</g>
<!-- StatSeq1&#45;&gt;StatExp0 -->
<g id="edge8" class="edge"><title>StatSeq1&#45;&gt;StatExp0</title>
<path fill="none" stroke="black" d="M300.371,-1010.67C316.832,-1000.28 339.286,-986.125 357.427,-974.685"/>
<polygon fill="black" stroke="black" points="359.349,-977.61 365.941,-969.315 355.615,-971.689 359.349,-977.61"/>
</g>
<!-- StatMove0 -->
<g id="node13" class="node"><title>StatMove0</title>
<ellipse fill="none" stroke="black" cx="277.641" cy="-954" rx="50.0912" ry="18"/>
<text text-anchor="middle" x="277.641" y="-950.3" font-family="Times,serif" font-size="14.00">StatMove0</text>
</g>
<!-- StatSeq1&#45;&gt;StatMove0 -->
<g id="edge7" class="edge"><title>StatSeq1&#45;&gt;StatMove0</title>
<path fill="none" stroke="black" d="M277.641,-1007.7C277.641,-999.983 277.641,-990.712 277.641,-982.112"/>
<polygon fill="black" stroke="black" points="281.141,-982.104 277.641,-972.104 274.141,-982.104 281.141,-982.104"/>
</g>
<!-- ExpCall0 -->
<g id="node18" class="node"><title>ExpCall0</title>
<ellipse fill="none" stroke="black" cx="277.641" cy="-882" rx="44.393" ry="18"/>
<text text-anchor="middle" x="277.641" y="-878.3" font-family="Times,serif" font-size="14.00">ExpCall0</text>
</g>
<!-- StatMove0&#45;&gt;ExpCall0 -->
<g id="edge35" class="edge"><title>StatMove0&#45;&gt;ExpCall0</title>
<path fill="none" stroke="black" d="M277.641,-935.697C277.641,-927.983 277.641,-918.712 277.641,-910.112"/>
<polygon fill="black" stroke="black" points="281.141,-910.104 277.641,-900.104 274.141,-910.104 281.141,-910.104"/>
</g>
<!-- ExpTemp0 -->
<g id="node25" class="node"><title>ExpTemp0</title>
<ellipse fill="none" stroke="black" cx="159.641" cy="-882" rx="50.0912" ry="18"/>
<text text-anchor="middle" x="159.641" y="-878.3" font-family="Times,serif" font-size="14.00">ExpTemp0</text>
</g>
<!-- StatMove0&#45;&gt;ExpTemp0 -->
<g id="edge34" class="edge"><title>StatMove0&#45;&gt;ExpTemp0</title>
<path fill="none" stroke="black" d="M252.904,-938.326C235.518,-928.012 212.058,-914.095 193.017,-902.8"/>
<polygon fill="black" stroke="black" points="194.731,-899.747 184.345,-897.655 191.16,-905.767 194.731,-899.747"/>
</g>
<!-- ExpConst1 -->
<g id="node14" class="node"><title>ExpConst1</title>
<ellipse fill="none" stroke="black" cx="618.641" cy="-90" rx="50.0912" ry="18"/>
<text text-anchor="middle" x="618.641" y="-86.3" font-family="Times,serif" font-size="14.00">ExpConst1</text>
</g>
<!-- Value1: 4 -->
<g id="node15" class="node"><title>Value1: 4</title>
<ellipse fill="none" stroke="black" cx="618.641" cy="-18" rx="45.4919" ry="18"/>
<text text-anchor="middle" x="618.641" y="-14.3" font-family="Times,serif" font-size="14.00">Value1: 4</text>
</g>
<!-- ExpConst1&#45;&gt;Value1: 4 -->
<g id="edge9" class="edge"><title>ExpConst1&#45;&gt;Value1: 4</title>
<path fill="none" stroke="black" d="M618.641,-71.6966C618.641,-63.9827 618.641,-54.7125 618.641,-46.1124"/>
<polygon fill="black" stroke="black" points="622.141,-46.1043 618.641,-36.1043 615.141,-46.1044 622.141,-46.1043"/>
</g>
<!-- ExpEseq1 -->
<g id="node17" class="node"><title>ExpEseq1</title>
<ellipse fill="none" stroke="black" cx="440.641" cy="-450" rx="46.2923" ry="18"/>
<text text-anchor="middle" x="440.641" y="-446.3" font-family="Times,serif" font-size="14.00">ExpEseq1</text>
</g>
<!-- ExpList1&#45;&gt;ExpEseq1 -->
<g id="edge10" class="edge"><title>ExpList1&#45;&gt;ExpEseq1</title>
<path fill="none" stroke="black" d="M435.371,-503.697C436.142,-495.983 437.069,-486.712 437.929,-478.112"/>
<polygon fill="black" stroke="black" points="441.418,-478.403 438.93,-468.104 434.453,-477.706 441.418,-478.403"/>
</g>
<!-- ExpTemp3 -->
<g id="node23" class="node"><title>ExpTemp3</title>
<ellipse fill="none" stroke="black" cx="499.641" cy="-378" rx="50.0912" ry="18"/>
<text text-anchor="middle" x="499.641" y="-374.3" font-family="Times,serif" font-size="14.00">ExpTemp3</text>
</g>
<!-- ExpEseq1&#45;&gt;ExpTemp3 -->
<g id="edge37" class="edge"><title>ExpEseq1&#45;&gt;ExpTemp3</title>
<path fill="none" stroke="black" d="M454.325,-432.765C461.665,-424.056 470.86,-413.147 479.046,-403.435"/>
<polygon fill="black" stroke="black" points="481.853,-405.535 485.621,-395.633 476.5,-401.024 481.853,-405.535"/>
</g>
<!-- StatMove2 -->
<g id="node33" class="node"><title>StatMove2</title>
<ellipse fill="none" stroke="black" cx="381.641" cy="-378" rx="50.0912" ry="18"/>
<text text-anchor="middle" x="381.641" y="-374.3" font-family="Times,serif" font-size="14.00">StatMove2</text>
</g>
<!-- ExpEseq1&#45;&gt;StatMove2 -->
<g id="edge36" class="edge"><title>ExpEseq1&#45;&gt;StatMove2</title>
<path fill="none" stroke="black" d="M426.957,-432.765C419.616,-424.056 410.422,-413.147 402.236,-403.435"/>
<polygon fill="black" stroke="black" points="404.781,-401.024 395.66,-395.633 399.429,-405.535 404.781,-401.024"/>
</g>
<!-- ExpCall0&#45;&gt;ExpList0 -->
<g id="edge12" class="edge"><title>ExpCall0&#45;&gt;ExpList0</title>
<path fill="none" stroke="black" d="M296.061,-865.465C307.344,-855.949 321.964,-843.619 334.44,-833.097"/>
<polygon fill="black" stroke="black" points="336.884,-835.614 342.272,-826.492 332.371,-830.263 336.884,-835.614"/>
</g>
<!-- ExpName0 -->
<g id="node19" class="node"><title>ExpName0</title>
<ellipse fill="none" stroke="black" cx="248.641" cy="-810" rx="50.8918" ry="18"/>
<text text-anchor="middle" x="248.641" y="-806.3" font-family="Times,serif" font-size="14.00">ExpName0</text>
</g>
<!-- ExpCall0&#45;&gt;ExpName0 -->
<g id="edge11" class="edge"><title>ExpCall0&#45;&gt;ExpName0</title>
<path fill="none" stroke="black" d="M270.621,-864.055C267.357,-856.176 263.396,-846.617 259.741,-837.794"/>
<polygon fill="black" stroke="black" points="262.859,-836.174 255.798,-828.275 256.392,-838.853 262.859,-836.174"/>
</g>
<!-- Label1: print -->
<g id="node20" class="node"><title>Label1: print</title>
<ellipse fill="none" stroke="black" cx="244.641" cy="-738" rx="56.59" ry="18"/>
<text text-anchor="middle" x="244.641" y="-734.3" font-family="Times,serif" font-size="14.00">Label1: print</text>
</g>
<!-- ExpName0&#45;&gt;Label1: print -->
<g id="edge13" class="edge"><title>ExpName0&#45;&gt;Label1: print</title>
<path fill="none" stroke="black" d="M247.652,-791.697C247.211,-783.983 246.681,-774.712 246.19,-766.112"/>
<polygon fill="black" stroke="black" points="249.683,-765.888 245.618,-756.104 242.694,-766.288 249.683,-765.888"/>
</g>
<!-- StatLabel0 -->
<g id="node21" class="node"><title>StatLabel0</title>
<ellipse fill="none" stroke="black" cx="136.641" cy="-1026" rx="48.9926" ry="18"/>
<text text-anchor="middle" x="136.641" y="-1022.3" font-family="Times,serif" font-size="14.00">StatLabel0</text>
</g>
<!-- Label0: LinkedList@main -->
<g id="node22" class="node"><title>Label0: LinkedList@main</title>
<ellipse fill="none" stroke="black" cx="104.641" cy="-954" rx="104.782" ry="18"/>
<text text-anchor="middle" x="104.641" y="-950.3" font-family="Times,serif" font-size="14.00">Label0: LinkedList@main</text>
</g>
<!-- StatLabel0&#45;&gt;Label0: LinkedList@main -->
<g id="edge14" class="edge"><title>StatLabel0&#45;&gt;Label0: LinkedList@main</title>
<path fill="none" stroke="black" d="M128.894,-1008.05C125.254,-1000.09 120.828,-990.411 116.759,-981.51"/>
<polygon fill="black" stroke="black" points="119.879,-979.915 112.538,-972.275 113.512,-982.825 119.879,-979.915"/>
</g>
<!-- Temp3: T54 -->
<g id="node24" class="node"><title>Temp3: T54</title>
<ellipse fill="none" stroke="black" cx="499.641" cy="-306" rx="55.4913" ry="18"/>
<text text-anchor="middle" x="499.641" y="-302.3" font-family="Times,serif" font-size="14.00">Temp3: T54</text>
</g>
<!-- ExpTemp3&#45;&gt;Temp3: T54 -->
<g id="edge15" class="edge"><title>ExpTemp3&#45;&gt;Temp3: T54</title>
<path fill="none" stroke="black" d="M499.641,-359.697C499.641,-351.983 499.641,-342.712 499.641,-334.112"/>
<polygon fill="black" stroke="black" points="503.141,-334.104 499.641,-324.104 496.141,-334.104 503.141,-334.104"/>
</g>
<!-- Temp0: T56 -->
<g id="node26" class="node"><title>Temp0: T56</title>
<ellipse fill="none" stroke="black" cx="124.641" cy="-810" rx="55.4913" ry="18"/>
<text text-anchor="middle" x="124.641" y="-806.3" font-family="Times,serif" font-size="14.00">Temp0: T56</text>
</g>
<!-- ExpTemp0&#45;&gt;Temp0: T56 -->
<g id="edge16" class="edge"><title>ExpTemp0&#45;&gt;Temp0: T56</title>
<path fill="none" stroke="black" d="M151.168,-864.055C147.144,-856.007 142.243,-846.205 137.754,-837.226"/>
<polygon fill="black" stroke="black" points="140.881,-835.654 133.278,-828.275 134.62,-838.785 140.881,-835.654"/>
</g>
<!-- ExpList2 -->
<g id="node27" class="node"><title>ExpList2</title>
<ellipse fill="none" stroke="black" cx="506.641" cy="-234" rx="42.7926" ry="18"/>
<text text-anchor="middle" x="506.641" y="-230.3" font-family="Times,serif" font-size="14.00">ExpList2</text>
</g>
<!-- ExpBinary0 -->
<g id="node28" class="node"><title>ExpBinary0</title>
<ellipse fill="none" stroke="black" cx="512.641" cy="-162" rx="53.0913" ry="18"/>
<text text-anchor="middle" x="512.641" y="-158.3" font-family="Times,serif" font-size="14.00">ExpBinary0</text>
</g>
<!-- ExpList2&#45;&gt;ExpBinary0 -->
<g id="edge17" class="edge"><title>ExpList2&#45;&gt;ExpBinary0</title>
<path fill="none" stroke="black" d="M508.124,-215.697C508.785,-207.983 509.58,-198.712 510.317,-190.112"/>
<polygon fill="black" stroke="black" points="513.808,-190.367 511.175,-180.104 506.833,-189.769 513.808,-190.367"/>
</g>
<!-- ExpBinary0&#45;&gt;ExpConst1 -->
<g id="edge33" class="edge"><title>ExpBinary0&#45;&gt;ExpConst1</title>
<path fill="none" stroke="black" d="M535.903,-145.638C550.918,-135.723 570.641,-122.698 587.064,-111.853"/>
<polygon fill="black" stroke="black" points="589.381,-114.517 595.797,-106.085 585.524,-108.675 589.381,-114.517"/>
</g>
<!-- ExpConst0 -->
<g id="node38" class="node"><title>ExpConst0</title>
<ellipse fill="none" stroke="black" cx="406.641" cy="-90" rx="50.0912" ry="18"/>
<text text-anchor="middle" x="406.641" y="-86.3" font-family="Times,serif" font-size="14.00">ExpConst0</text>
</g>
<!-- ExpBinary0&#45;&gt;ExpConst0 -->
<g id="edge31" class="edge"><title>ExpBinary0&#45;&gt;ExpConst0</title>
<path fill="none" stroke="black" d="M489.379,-145.638C474.364,-135.723 454.641,-122.698 438.218,-111.853"/>
<polygon fill="black" stroke="black" points="439.758,-108.675 429.484,-106.085 435.9,-114.517 439.758,-108.675"/>
</g>
<!-- Times0 -->
<g id="node40" class="node"><title>Times0</title>
<ellipse fill="none" stroke="black" cx="512.641" cy="-90" rx="37.8943" ry="18"/>
<text text-anchor="middle" x="512.641" y="-86.3" font-family="Times,serif" font-size="14.00">Times0</text>
</g>
<!-- ExpBinary0&#45;&gt;Times0 -->
<g id="edge32" class="edge"><title>ExpBinary0&#45;&gt;Times0</title>
<path fill="none" stroke="black" d="M512.641,-143.697C512.641,-135.983 512.641,-126.712 512.641,-118.112"/>
<polygon fill="black" stroke="black" points="516.141,-118.104 512.641,-108.104 509.141,-118.104 516.141,-118.104"/>
</g>
<!-- ExpCall2 -->
<g id="node29" class="node"><title>ExpCall2</title>
<ellipse fill="none" stroke="black" cx="382.641" cy="-306" rx="44.393" ry="18"/>
<text text-anchor="middle" x="382.641" y="-302.3" font-family="Times,serif" font-size="14.00">ExpCall2</text>
</g>
<!-- ExpCall2&#45;&gt;ExpList2 -->
<g id="edge21" class="edge"><title>ExpCall2&#45;&gt;ExpList2</title>
<path fill="none" stroke="black" d="M407.436,-291.003C426.275,-280.368 452.387,-265.627 473.092,-253.939"/>
<polygon fill="black" stroke="black" points="474.901,-256.937 481.888,-248.973 471.46,-250.841 474.901,-256.937"/>
</g>
<!-- ExpName2 -->
<g id="node30" class="node"><title>ExpName2</title>
<ellipse fill="none" stroke="black" cx="382.641" cy="-234" rx="50.8918" ry="18"/>
<text text-anchor="middle" x="382.641" y="-230.3" font-family="Times,serif" font-size="14.00">ExpName2</text>
</g>
<!-- ExpCall2&#45;&gt;ExpName2 -->
<g id="edge20" class="edge"><title>ExpCall2&#45;&gt;ExpName2</title>
<path fill="none" stroke="black" d="M382.641,-287.697C382.641,-279.983 382.641,-270.712 382.641,-262.112"/>
<polygon fill="black" stroke="black" points="386.141,-262.104 382.641,-252.104 379.141,-262.104 386.141,-262.104"/>
</g>
<!-- Label3: malloc -->
<g id="node37" class="node"><title>Label3: malloc</title>
<ellipse fill="none" stroke="black" cx="376.641" cy="-162" rx="64.189" ry="18"/>
<text text-anchor="middle" x="376.641" y="-158.3" font-family="Times,serif" font-size="14.00">Label3: malloc</text>
</g>
<!-- ExpName2&#45;&gt;Label3: malloc -->
<g id="edge29" class="edge"><title>ExpName2&#45;&gt;Label3: malloc</title>
<path fill="none" stroke="black" d="M381.158,-215.697C380.496,-207.983 379.702,-198.712 378.965,-190.112"/>
<polygon fill="black" stroke="black" points="382.448,-189.769 378.107,-180.104 375.474,-190.367 382.448,-189.769"/>
</g>
<!-- ExpTemp2 -->
<g id="node31" class="node"><title>ExpTemp2</title>
<ellipse fill="none" stroke="black" cx="264.641" cy="-306" rx="50.0912" ry="18"/>
<text text-anchor="middle" x="264.641" y="-302.3" font-family="Times,serif" font-size="14.00">ExpTemp2</text>
</g>
<!-- Temp2: T54 -->
<g id="node32" class="node"><title>Temp2: T54</title>
<ellipse fill="none" stroke="black" cx="258.641" cy="-234" rx="55.4913" ry="18"/>
<text text-anchor="middle" x="258.641" y="-230.3" font-family="Times,serif" font-size="14.00">Temp2: T54</text>
</g>
<!-- ExpTemp2&#45;&gt;Temp2: T54 -->
<g id="edge22" class="edge"><title>ExpTemp2&#45;&gt;Temp2: T54</title>
<path fill="none" stroke="black" d="M263.158,-287.697C262.496,-279.983 261.702,-270.712 260.965,-262.112"/>
<polygon fill="black" stroke="black" points="264.448,-261.769 260.107,-252.104 257.474,-262.367 264.448,-261.769"/>
</g>
<!-- StatMove2&#45;&gt;ExpCall2 -->
<g id="edge24" class="edge"><title>StatMove2&#45;&gt;ExpCall2</title>
<path fill="none" stroke="black" d="M381.888,-359.697C381.998,-351.983 382.131,-342.712 382.253,-334.112"/>
<polygon fill="black" stroke="black" points="385.753,-334.153 382.396,-324.104 378.754,-334.053 385.753,-334.153"/>
</g>
<!-- StatMove2&#45;&gt;ExpTemp2 -->
<g id="edge23" class="edge"><title>StatMove2&#45;&gt;ExpTemp2</title>
<path fill="none" stroke="black" d="M356.828,-362.155C339.765,-351.946 316.901,-338.267 298.213,-327.086"/>
<polygon fill="black" stroke="black" points="299.796,-323.955 289.418,-321.824 296.202,-329.962 299.796,-323.955"/>
</g>
<!-- StatSeq0 -->
<g id="node36" class="node"><title>StatSeq0</title>
<ellipse fill="none" stroke="black" cx="206.641" cy="-1098" rx="42.4939" ry="18"/>
<text text-anchor="middle" x="206.641" y="-1094.3" font-family="Times,serif" font-size="14.00">StatSeq0</text>
</g>
<!-- StatSeq0&#45;&gt;StatSeq1 -->
<g id="edge28" class="edge"><title>StatSeq0&#45;&gt;StatSeq1</title>
<path fill="none" stroke="black" d="M222.752,-1081.12C232.102,-1071.9 244.041,-1060.13 254.394,-1049.92"/>
<polygon fill="black" stroke="black" points="256.93,-1052.33 261.593,-1042.82 252.015,-1047.35 256.93,-1052.33"/>
</g>
<!-- StatSeq0&#45;&gt;StatLabel0 -->
<g id="edge27" class="edge"><title>StatSeq0&#45;&gt;StatLabel0</title>
<path fill="none" stroke="black" d="M190.757,-1081.12C181.756,-1072.12 170.323,-1060.68 160.287,-1050.65"/>
<polygon fill="black" stroke="black" points="162.494,-1047.9 152.948,-1043.31 157.544,-1052.85 162.494,-1047.9"/>
</g>
<!-- Value0: 0 -->
<g id="node39" class="node"><title>Value0: 0</title>
<ellipse fill="none" stroke="black" cx="406.641" cy="-18" rx="45.4919" ry="18"/>
<text text-anchor="middle" x="406.641" y="-14.3" font-family="Times,serif" font-size="14.00">Value0: 0</text>
</g>
<!-- ExpConst0&#45;&gt;Value0: 0 -->
<g id="edge30" class="edge"><title>ExpConst0&#45;&gt;Value0: 0</title>
<path fill="none" stroke="black" d="M406.641,-71.6966C406.641,-63.9827 406.641,-54.7125 406.641,-46.1124"/>
<polygon fill="black" stroke="black" points="410.141,-46.1043 406.641,-36.1043 403.141,-46.1044 410.141,-46.1043"/>
</g>
</g>
</svg>
