<?xml version="1.0" encoding="UTF-8" standalone="no"?>
<!DOCTYPE svg PUBLIC "-//W3C//DTD SVG 1.1//EN"
 "http://www.w3.org/Graphics/SVG/1.1/DTD/svg11.dtd">
<!-- Generated by graphviz version 2.38.0 (20140413.2041)
 -->
<!-- Title: %3 Pages: 1 -->
<svg width="1830pt" height="404pt"
 viewBox="0.00 0.00 1829.89 404.00" xmlns="http://www.w3.org/2000/svg" xmlns:xlink="http://www.w3.org/1999/xlink">
<g id="graph0" class="graph" transform="scale(1 1) rotate(0) translate(4 400)">
<title>%3</title>
<polygon fill="white" stroke="none" points="-4,4 -4,-400 1825.89,-400 1825.89,4 -4,4"/>
<!-- ExpConst1 -->
<g id="node1" class="node"><title>ExpConst1</title>
<ellipse fill="none" stroke="black" cx="1519.95" cy="-234" rx="50.0912" ry="18"/>
<text text-anchor="middle" x="1519.95" y="-230.3" font-family="Times,serif" font-size="14.00">ExpConst1</text>
</g>
<!-- Value1: 0 -->
<g id="node2" class="node"><title>Value1: 0</title>
<ellipse fill="none" stroke="black" cx="1520.95" cy="-162" rx="45.4919" ry="18"/>
<text text-anchor="middle" x="1520.95" y="-158.3" font-family="Times,serif" font-size="14.00">Value1: 0</text>
</g>
<!-- ExpConst1&#45;&gt;Value1: 0 -->
<g id="edge1" class="edge"><title>ExpConst1&#45;&gt;Value1: 0</title>
<path fill="none" stroke="black" d="M1520.19,-215.697C1520.3,-207.983 1520.44,-198.712 1520.56,-190.112"/>
<polygon fill="black" stroke="black" points="1524.06,-190.153 1520.7,-180.104 1517.06,-190.053 1524.06,-190.153"/>
</g>
<!-- ExpName0 -->
<g id="node3" class="node"><title>ExpName0</title>
<ellipse fill="none" stroke="black" cx="592.945" cy="-234" rx="50.8918" ry="18"/>
<text text-anchor="middle" x="592.945" y="-230.3" font-family="Times,serif" font-size="14.00">ExpName0</text>
</g>
<!-- Label1: Tree@GetHas_Right -->
<g id="node4" class="node"><title>Label1: Tree@GetHas_Right</title>
<ellipse fill="none" stroke="black" cx="592.945" cy="-162" rx="114.28" ry="18"/>
<text text-anchor="middle" x="592.945" y="-158.3" font-family="Times,serif" font-size="14.00">Label1: Tree@GetHas_Right</text>
</g>
<!-- ExpName0&#45;&gt;Label1: Tree@GetHas_Right -->
<g id="edge2" class="edge"><title>ExpName0&#45;&gt;Label1: Tree@GetHas_Right</title>
<path fill="none" stroke="black" d="M592.945,-215.697C592.945,-207.983 592.945,-198.712 592.945,-190.112"/>
<polygon fill="black" stroke="black" points="596.445,-190.104 592.945,-180.104 589.445,-190.104 596.445,-190.104"/>
</g>
<!-- StatMove2 -->
<g id="node5" class="node"><title>StatMove2</title>
<ellipse fill="none" stroke="black" cx="784.945" cy="-306" rx="50.0912" ry="18"/>
<text text-anchor="middle" x="784.945" y="-302.3" font-family="Times,serif" font-size="14.00">StatMove2</text>
</g>
<!-- ExpTemp3 -->
<g id="node6" class="node"><title>ExpTemp3</title>
<ellipse fill="none" stroke="black" cx="784.945" cy="-234" rx="50.0912" ry="18"/>
<text text-anchor="middle" x="784.945" y="-230.3" font-family="Times,serif" font-size="14.00">ExpTemp3</text>
</g>
<!-- StatMove2&#45;&gt;ExpTemp3 -->
<g id="edge3" class="edge"><title>StatMove2&#45;&gt;ExpTemp3</title>
<path fill="none" stroke="black" d="M784.945,-287.697C784.945,-279.983 784.945,-270.712 784.945,-262.112"/>
<polygon fill="black" stroke="black" points="788.445,-262.104 784.945,-252.104 781.445,-262.104 788.445,-262.104"/>
</g>
<!-- ExpMem0 -->
<g id="node7" class="node"><title>ExpMem0</title>
<ellipse fill="none" stroke="black" cx="908.945" cy="-234" rx="48.9926" ry="18"/>
<text text-anchor="middle" x="908.945" y="-230.3" font-family="Times,serif" font-size="14.00">ExpMem0</text>
</g>
<!-- StatMove2&#45;&gt;ExpMem0 -->
<g id="edge4" class="edge"><title>StatMove2&#45;&gt;ExpMem0</title>
<path fill="none" stroke="black" d="M810.638,-290.496C829.093,-280.078 854.175,-265.919 874.384,-254.51"/>
<polygon fill="black" stroke="black" points="876.298,-257.449 883.285,-249.485 872.856,-251.354 876.298,-257.449"/>
</g>
<!-- Temp3: T122 -->
<g id="node10" class="node"><title>Temp3: T122</title>
<ellipse fill="none" stroke="black" cx="784.945" cy="-162" rx="59.5901" ry="18"/>
<text text-anchor="middle" x="784.945" y="-158.3" font-family="Times,serif" font-size="14.00">Temp3: T122</text>
</g>
<!-- ExpTemp3&#45;&gt;Temp3: T122 -->
<g id="edge6" class="edge"><title>ExpTemp3&#45;&gt;Temp3: T122</title>
<path fill="none" stroke="black" d="M784.945,-215.697C784.945,-207.983 784.945,-198.712 784.945,-190.112"/>
<polygon fill="black" stroke="black" points="788.445,-190.104 784.945,-180.104 781.445,-190.104 788.445,-190.104"/>
</g>
<!-- ExpBinary0 -->
<g id="node28" class="node"><title>ExpBinary0</title>
<ellipse fill="none" stroke="black" cx="915.945" cy="-162" rx="53.0913" ry="18"/>
<text text-anchor="middle" x="915.945" y="-158.3" font-family="Times,serif" font-size="14.00">ExpBinary0</text>
</g>
<!-- ExpMem0&#45;&gt;ExpBinary0 -->
<g id="edge25" class="edge"><title>ExpMem0&#45;&gt;ExpBinary0</title>
<path fill="none" stroke="black" d="M910.676,-215.697C911.447,-207.983 912.374,-198.712 913.234,-190.112"/>
<polygon fill="black" stroke="black" points="916.722,-190.403 914.235,-180.104 909.757,-189.706 916.722,-190.403"/>
</g>
<!-- ExpTemp2 -->
<g id="node8" class="node"><title>ExpTemp2</title>
<ellipse fill="none" stroke="black" cx="437.945" cy="-234" rx="50.0912" ry="18"/>
<text text-anchor="middle" x="437.945" y="-230.3" font-family="Times,serif" font-size="14.00">ExpTemp2</text>
</g>
<!-- Temp2: T121 -->
<g id="node9" class="node"><title>Temp2: T121</title>
<ellipse fill="none" stroke="black" cx="400.945" cy="-162" rx="59.5901" ry="18"/>
<text text-anchor="middle" x="400.945" y="-158.3" font-family="Times,serif" font-size="14.00">Temp2: T121</text>
</g>
<!-- ExpTemp2&#45;&gt;Temp2: T121 -->
<g id="edge5" class="edge"><title>ExpTemp2&#45;&gt;Temp2: T121</title>
<path fill="none" stroke="black" d="M428.989,-216.055C424.734,-208.007 419.553,-198.205 414.807,-189.226"/>
<polygon fill="black" stroke="black" points="417.844,-187.481 410.076,-180.275 411.655,-190.752 417.844,-187.481"/>
</g>
<!-- StatLabel0 -->
<g id="node11" class="node"><title>StatLabel0</title>
<ellipse fill="none" stroke="black" cx="115.945" cy="-306" rx="48.9926" ry="18"/>
<text text-anchor="middle" x="115.945" y="-302.3" font-family="Times,serif" font-size="14.00">StatLabel0</text>
</g>
<!-- Label0: L28 -->
<g id="node12" class="node"><title>Label0: L28</title>
<ellipse fill="none" stroke="black" cx="53.9452" cy="-234" rx="53.8905" ry="18"/>
<text text-anchor="middle" x="53.9452" y="-230.3" font-family="Times,serif" font-size="14.00">Label0: L28</text>
</g>
<!-- StatLabel0&#45;&gt;Label0: L28 -->
<g id="edge7" class="edge"><title>StatLabel0&#45;&gt;Label0: L28</title>
<path fill="none" stroke="black" d="M101.565,-288.765C93.7748,-279.969 83.996,-268.928 75.3299,-259.144"/>
<polygon fill="black" stroke="black" points="77.9281,-256.799 68.6777,-251.633 72.688,-261.44 77.9281,-256.799"/>
</g>
<!-- StatList0 -->
<g id="node13" class="node"><title>StatList0</title>
<ellipse fill="none" stroke="black" cx="688.945" cy="-378" rx="42.4939" ry="18"/>
<text text-anchor="middle" x="688.945" y="-374.3" font-family="Times,serif" font-size="14.00">StatList0</text>
</g>
<!-- StatList0&#45;&gt;StatMove2 -->
<g id="edge11" class="edge"><title>StatList0&#45;&gt;StatMove2</title>
<path fill="none" stroke="black" d="M709.304,-362.155C722.647,-352.426 740.312,-339.545 755.215,-328.678"/>
<polygon fill="black" stroke="black" points="757.599,-331.271 763.617,-322.552 753.475,-325.615 757.599,-331.271"/>
</g>
<!-- StatList0&#45;&gt;StatLabel0 -->
<g id="edge8" class="edge"><title>StatList0&#45;&gt;StatLabel0</title>
<path fill="none" stroke="black" d="M648.513,-372.633C569.148,-363.982 387.416,-343.787 234.945,-324 213.788,-321.254 190.552,-317.991 170.271,-315.06"/>
<polygon fill="black" stroke="black" points="170.668,-311.581 160.269,-313.608 169.662,-318.509 170.668,-311.581"/>
</g>
<!-- StatMove0 -->
<g id="node14" class="node"><title>StatMove0</title>
<ellipse fill="none" stroke="black" cx="293.945" cy="-306" rx="50.0912" ry="18"/>
<text text-anchor="middle" x="293.945" y="-302.3" font-family="Times,serif" font-size="14.00">StatMove0</text>
</g>
<!-- StatList0&#45;&gt;StatMove0 -->
<g id="edge9" class="edge"><title>StatList0&#45;&gt;StatMove0</title>
<path fill="none" stroke="black" d="M650.712,-370.225C580.064,-357.705 428.907,-330.917 347.88,-316.558"/>
<polygon fill="black" stroke="black" points="348.337,-313.085 337.88,-314.786 347.116,-319.977 348.337,-313.085"/>
</g>
<!-- StatMove1 -->
<g id="node15" class="node"><title>StatMove1</title>
<ellipse fill="none" stroke="black" cx="592.945" cy="-306" rx="50.0912" ry="18"/>
<text text-anchor="middle" x="592.945" y="-302.3" font-family="Times,serif" font-size="14.00">StatMove1</text>
</g>
<!-- StatList0&#45;&gt;StatMove1 -->
<g id="edge10" class="edge"><title>StatList0&#45;&gt;StatMove1</title>
<path fill="none" stroke="black" d="M668.586,-362.155C655.243,-352.426 637.578,-339.545 622.675,-328.678"/>
<polygon fill="black" stroke="black" points="624.415,-325.615 614.273,-322.552 620.291,-331.271 624.415,-325.615"/>
</g>
<!-- StatMove3 -->
<g id="node16" class="node"><title>StatMove3</title>
<ellipse fill="none" stroke="black" cx="1046.95" cy="-306" rx="50.0912" ry="18"/>
<text text-anchor="middle" x="1046.95" y="-302.3" font-family="Times,serif" font-size="14.00">StatMove3</text>
</g>
<!-- StatList0&#45;&gt;StatMove3 -->
<g id="edge12" class="edge"><title>StatList0&#45;&gt;StatMove3</title>
<path fill="none" stroke="black" d="M726.581,-369.641C790.62,-357.119 920.936,-331.639 994.09,-317.335"/>
<polygon fill="black" stroke="black" points="994.877,-320.747 1004.02,-315.393 993.534,-313.877 994.877,-320.747"/>
</g>
<!-- StatCJump0 -->
<g id="node17" class="node"><title>StatCJump0</title>
<ellipse fill="none" stroke="black" cx="1460.95" cy="-306" rx="53.8905" ry="18"/>
<text text-anchor="middle" x="1460.95" y="-302.3" font-family="Times,serif" font-size="14.00">StatCJump0</text>
</g>
<!-- StatList0&#45;&gt;StatCJump0 -->
<g id="edge13" class="edge"><title>StatList0&#45;&gt;StatCJump0</title>
<path fill="none" stroke="black" d="M729.906,-373.286C857.355,-361.73 1247.42,-326.361 1399.41,-312.58"/>
<polygon fill="black" stroke="black" points="1399.86,-316.053 1409.5,-311.664 1399.23,-309.082 1399.86,-316.053"/>
</g>
<!-- ExpTemp0 -->
<g id="node18" class="node"><title>ExpTemp0</title>
<ellipse fill="none" stroke="black" cx="175.945" cy="-234" rx="50.0912" ry="18"/>
<text text-anchor="middle" x="175.945" y="-230.3" font-family="Times,serif" font-size="14.00">ExpTemp0</text>
</g>
<!-- StatMove0&#45;&gt;ExpTemp0 -->
<g id="edge15" class="edge"><title>StatMove0&#45;&gt;ExpTemp0</title>
<path fill="none" stroke="black" d="M269.209,-290.326C251.823,-280.012 228.363,-266.095 209.322,-254.8"/>
<polygon fill="black" stroke="black" points="211.036,-251.747 200.649,-249.655 207.464,-257.767 211.036,-251.747"/>
</g>
<!-- ExpTemp1 -->
<g id="node20" class="node"><title>ExpTemp1</title>
<ellipse fill="none" stroke="black" cx="293.945" cy="-234" rx="50.0912" ry="18"/>
<text text-anchor="middle" x="293.945" y="-230.3" font-family="Times,serif" font-size="14.00">ExpTemp1</text>
</g>
<!-- StatMove0&#45;&gt;ExpTemp1 -->
<g id="edge16" class="edge"><title>StatMove0&#45;&gt;ExpTemp1</title>
<path fill="none" stroke="black" d="M293.945,-287.697C293.945,-279.983 293.945,-270.712 293.945,-262.112"/>
<polygon fill="black" stroke="black" points="297.445,-262.104 293.945,-252.104 290.445,-262.104 297.445,-262.104"/>
</g>
<!-- StatMove1&#45;&gt;ExpName0 -->
<g id="edge33" class="edge"><title>StatMove1&#45;&gt;ExpName0</title>
<path fill="none" stroke="black" d="M592.945,-287.697C592.945,-279.983 592.945,-270.712 592.945,-262.112"/>
<polygon fill="black" stroke="black" points="596.445,-262.104 592.945,-252.104 589.445,-262.104 596.445,-262.104"/>
</g>
<!-- StatMove1&#45;&gt;ExpTemp2 -->
<g id="edge32" class="edge"><title>StatMove1&#45;&gt;ExpTemp2</title>
<path fill="none" stroke="black" d="M563.06,-291.503C538.693,-280.499 504.074,-264.865 477.426,-252.83"/>
<polygon fill="black" stroke="black" points="478.557,-249.501 468.003,-248.575 475.676,-255.88 478.557,-249.501"/>
</g>
<!-- ExpCall0 -->
<g id="node25" class="node"><title>ExpCall0</title>
<ellipse fill="none" stroke="black" cx="1174.95" cy="-234" rx="44.393" ry="18"/>
<text text-anchor="middle" x="1174.95" y="-230.3" font-family="Times,serif" font-size="14.00">ExpCall0</text>
</g>
<!-- StatMove3&#45;&gt;ExpCall0 -->
<g id="edge29" class="edge"><title>StatMove3&#45;&gt;ExpCall0</title>
<path fill="none" stroke="black" d="M1073.16,-290.666C1092.65,-280.004 1119.44,-265.356 1140.64,-253.762"/>
<polygon fill="black" stroke="black" points="1142.55,-256.707 1149.64,-248.838 1139.19,-250.566 1142.55,-256.707"/>
</g>
<!-- ExpTemp5 -->
<g id="node33" class="node"><title>ExpTemp5</title>
<ellipse fill="none" stroke="black" cx="1046.95" cy="-234" rx="50.0912" ry="18"/>
<text text-anchor="middle" x="1046.95" y="-230.3" font-family="Times,serif" font-size="14.00">ExpTemp5</text>
</g>
<!-- StatMove3&#45;&gt;ExpTemp5 -->
<g id="edge28" class="edge"><title>StatMove3&#45;&gt;ExpTemp5</title>
<path fill="none" stroke="black" d="M1046.95,-287.697C1046.95,-279.983 1046.95,-270.712 1046.95,-262.112"/>
<polygon fill="black" stroke="black" points="1050.45,-262.104 1046.95,-252.104 1043.45,-262.104 1050.45,-262.104"/>
</g>
<!-- StatCJump0&#45;&gt;ExpConst1 -->
<g id="edge37" class="edge"><title>StatCJump0&#45;&gt;ExpConst1</title>
<path fill="none" stroke="black" d="M1474.93,-288.411C1482.28,-279.693 1491.42,-268.845 1499.54,-259.208"/>
<polygon fill="black" stroke="black" points="1502.29,-261.372 1506.06,-251.47 1496.94,-256.861 1502.29,-261.372"/>
</g>
<!-- ExpTemp8 -->
<g id="node36" class="node"><title>ExpTemp8</title>
<ellipse fill="none" stroke="black" cx="1401.95" cy="-234" rx="50.0912" ry="18"/>
<text text-anchor="middle" x="1401.95" y="-230.3" font-family="Times,serif" font-size="14.00">ExpTemp8</text>
</g>
<!-- StatCJump0&#45;&gt;ExpTemp8 -->
<g id="edge36" class="edge"><title>StatCJump0&#45;&gt;ExpTemp8</title>
<path fill="none" stroke="black" d="M1446.96,-288.411C1439.62,-279.693 1430.47,-268.845 1422.35,-259.208"/>
<polygon fill="black" stroke="black" points="1424.95,-256.861 1415.83,-251.47 1419.6,-261.372 1424.95,-256.861"/>
</g>
<!-- NE0 -->
<g id="node38" class="node"><title>NE0</title>
<ellipse fill="none" stroke="black" cx="1306.95" cy="-234" rx="27" ry="18"/>
<text text-anchor="middle" x="1306.95" y="-230.3" font-family="Times,serif" font-size="14.00">NE0</text>
</g>
<!-- StatCJump0&#45;&gt;NE0 -->
<g id="edge35" class="edge"><title>StatCJump0&#45;&gt;NE0</title>
<path fill="none" stroke="black" d="M1429.82,-291.212C1405.98,-280.608 1372.32,-265.53 1342.95,-252 1341.16,-251.176 1339.32,-250.324 1337.47,-249.462"/>
<polygon fill="black" stroke="black" points="1338.77,-246.21 1328.23,-245.135 1335.8,-252.548 1338.77,-246.21"/>
</g>
<!-- Label2: L25 -->
<g id="node39" class="node"><title>Label2: L25</title>
<ellipse fill="none" stroke="black" cx="1641.95" cy="-234" rx="53.8905" ry="18"/>
<text text-anchor="middle" x="1641.95" y="-230.3" font-family="Times,serif" font-size="14.00">Label2: L25</text>
</g>
<!-- StatCJump0&#45;&gt;Label2: L25 -->
<g id="edge38" class="edge"><title>StatCJump0&#45;&gt;Label2: L25</title>
<path fill="none" stroke="black" d="M1494.99,-291.834C1524.32,-280.492 1566.81,-264.057 1598.57,-251.776"/>
<polygon fill="black" stroke="black" points="1599.99,-254.979 1608.05,-248.107 1597.46,-248.45 1599.99,-254.979"/>
</g>
<!-- Label3: L27 -->
<g id="node40" class="node"><title>Label3: L27</title>
<ellipse fill="none" stroke="black" cx="1767.95" cy="-234" rx="53.8905" ry="18"/>
<text text-anchor="middle" x="1767.95" y="-230.3" font-family="Times,serif" font-size="14.00">Label3: L27</text>
</g>
<!-- StatCJump0&#45;&gt;Label3: L27 -->
<g id="edge39" class="edge"><title>StatCJump0&#45;&gt;Label3: L27</title>
<path fill="none" stroke="black" d="M1506.07,-295.898C1555.16,-285.834 1635.87,-268.811 1704.95,-252 1709.09,-250.99 1713.39,-249.91 1717.69,-248.801"/>
<polygon fill="black" stroke="black" points="1718.9,-252.101 1727.69,-246.181 1717.13,-245.329 1718.9,-252.101"/>
</g>
<!-- Temp0: T123 -->
<g id="node19" class="node"><title>Temp0: T123</title>
<ellipse fill="none" stroke="black" cx="134.945" cy="-162" rx="59.5901" ry="18"/>
<text text-anchor="middle" x="134.945" y="-158.3" font-family="Times,serif" font-size="14.00">Temp0: T123</text>
</g>
<!-- ExpTemp0&#45;&gt;Temp0: T123 -->
<g id="edge14" class="edge"><title>ExpTemp0&#45;&gt;Temp0: T123</title>
<path fill="none" stroke="black" d="M166.02,-216.055C161.186,-207.801 155.27,-197.701 149.903,-188.538"/>
<polygon fill="black" stroke="black" points="152.853,-186.649 144.779,-179.789 146.813,-190.187 152.853,-186.649"/>
</g>
<!-- Temp1: T99 -->
<g id="node32" class="node"><title>Temp1: T99</title>
<ellipse fill="none" stroke="black" cx="267.945" cy="-162" rx="55.4913" ry="18"/>
<text text-anchor="middle" x="267.945" y="-158.3" font-family="Times,serif" font-size="14.00">Temp1: T99</text>
</g>
<!-- ExpTemp1&#45;&gt;Temp1: T99 -->
<g id="edge26" class="edge"><title>ExpTemp1&#45;&gt;Temp1: T99</title>
<path fill="none" stroke="black" d="M287.651,-216.055C284.725,-208.176 281.174,-198.617 277.897,-189.794"/>
<polygon fill="black" stroke="black" points="281.125,-188.431 274.362,-180.275 274.563,-190.868 281.125,-188.431"/>
</g>
<!-- ExpTemp7 -->
<g id="node21" class="node"><title>ExpTemp7</title>
<ellipse fill="none" stroke="black" cx="1293.95" cy="-90" rx="50.0912" ry="18"/>
<text text-anchor="middle" x="1293.95" y="-86.3" font-family="Times,serif" font-size="14.00">ExpTemp7</text>
</g>
<!-- Temp7: T122 -->
<g id="node22" class="node"><title>Temp7: T122</title>
<ellipse fill="none" stroke="black" cx="1293.95" cy="-18" rx="59.5901" ry="18"/>
<text text-anchor="middle" x="1293.95" y="-14.3" font-family="Times,serif" font-size="14.00">Temp7: T122</text>
</g>
<!-- ExpTemp7&#45;&gt;Temp7: T122 -->
<g id="edge17" class="edge"><title>ExpTemp7&#45;&gt;Temp7: T122</title>
<path fill="none" stroke="black" d="M1293.95,-71.6966C1293.95,-63.9827 1293.95,-54.7125 1293.95,-46.1124"/>
<polygon fill="black" stroke="black" points="1297.45,-46.1043 1293.95,-36.1043 1290.45,-46.1044 1297.45,-46.1043"/>
</g>
<!-- ExpTemp4 -->
<g id="node23" class="node"><title>ExpTemp4</title>
<ellipse fill="none" stroke="black" cx="816.945" cy="-90" rx="50.0912" ry="18"/>
<text text-anchor="middle" x="816.945" y="-86.3" font-family="Times,serif" font-size="14.00">ExpTemp4</text>
</g>
<!-- Temp4: $fp -->
<g id="node24" class="node"><title>Temp4: $fp</title>
<ellipse fill="none" stroke="black" cx="816.945" cy="-18" rx="52.7911" ry="18"/>
<text text-anchor="middle" x="816.945" y="-14.3" font-family="Times,serif" font-size="14.00">Temp4: $fp</text>
</g>
<!-- ExpTemp4&#45;&gt;Temp4: $fp -->
<g id="edge18" class="edge"><title>ExpTemp4&#45;&gt;Temp4: $fp</title>
<path fill="none" stroke="black" d="M816.945,-71.6966C816.945,-63.9827 816.945,-54.7125 816.945,-46.1124"/>
<polygon fill="black" stroke="black" points="820.445,-46.1043 816.945,-36.1043 813.445,-46.1044 820.445,-46.1043"/>
</g>
<!-- ExpTemp6 -->
<g id="node26" class="node"><title>ExpTemp6</title>
<ellipse fill="none" stroke="black" cx="1174.95" cy="-162" rx="50.0912" ry="18"/>
<text text-anchor="middle" x="1174.95" y="-158.3" font-family="Times,serif" font-size="14.00">ExpTemp6</text>
</g>
<!-- ExpCall0&#45;&gt;ExpTemp6 -->
<g id="edge19" class="edge"><title>ExpCall0&#45;&gt;ExpTemp6</title>
<path fill="none" stroke="black" d="M1174.95,-215.697C1174.95,-207.983 1174.95,-198.712 1174.95,-190.112"/>
<polygon fill="black" stroke="black" points="1178.45,-190.104 1174.95,-180.104 1171.45,-190.104 1178.45,-190.104"/>
</g>
<!-- ExpList0 -->
<g id="node27" class="node"><title>ExpList0</title>
<ellipse fill="none" stroke="black" cx="1285.95" cy="-162" rx="42.7926" ry="18"/>
<text text-anchor="middle" x="1285.95" y="-158.3" font-family="Times,serif" font-size="14.00">ExpList0</text>
</g>
<!-- ExpCall0&#45;&gt;ExpList0 -->
<g id="edge20" class="edge"><title>ExpCall0&#45;&gt;ExpList0</title>
<path fill="none" stroke="black" d="M1197.94,-218.496C1214.17,-208.266 1236.11,-194.428 1254.03,-183.13"/>
<polygon fill="black" stroke="black" points="1256.38,-185.78 1262.98,-177.485 1252.65,-179.859 1256.38,-185.78"/>
</g>
<!-- Temp6: T121 -->
<g id="node35" class="node"><title>Temp6: T121</title>
<ellipse fill="none" stroke="black" cx="1165.95" cy="-90" rx="59.5901" ry="18"/>
<text text-anchor="middle" x="1165.95" y="-86.3" font-family="Times,serif" font-size="14.00">Temp6: T121</text>
</g>
<!-- ExpTemp6&#45;&gt;Temp6: T121 -->
<g id="edge30" class="edge"><title>ExpTemp6&#45;&gt;Temp6: T121</title>
<path fill="none" stroke="black" d="M1172.72,-143.697C1171.73,-135.983 1170.54,-126.712 1169.43,-118.112"/>
<polygon fill="black" stroke="black" points="1172.89,-117.576 1168.14,-108.104 1165.95,-118.469 1172.89,-117.576"/>
</g>
<!-- ExpList0&#45;&gt;ExpTemp7 -->
<g id="edge31" class="edge"><title>ExpList0&#45;&gt;ExpTemp7</title>
<path fill="none" stroke="black" d="M1287.92,-143.697C1288.8,-135.983 1289.86,-126.712 1290.85,-118.112"/>
<polygon fill="black" stroke="black" points="1294.33,-118.437 1291.99,-108.104 1287.38,-117.642 1294.33,-118.437"/>
</g>
<!-- ExpBinary0&#45;&gt;ExpTemp4 -->
<g id="edge21" class="edge"><title>ExpBinary0&#45;&gt;ExpTemp4</title>
<path fill="none" stroke="black" d="M893.974,-145.465C880.164,-135.7 862.163,-122.972 847.036,-112.276"/>
<polygon fill="black" stroke="black" points="848.7,-109.167 838.514,-106.251 844.659,-114.882 848.7,-109.167"/>
</g>
<!-- Plus0 -->
<g id="node29" class="node"><title>Plus0</title>
<ellipse fill="none" stroke="black" cx="915.945" cy="-90" rx="30.5947" ry="18"/>
<text text-anchor="middle" x="915.945" y="-86.3" font-family="Times,serif" font-size="14.00">Plus0</text>
</g>
<!-- ExpBinary0&#45;&gt;Plus0 -->
<g id="edge22" class="edge"><title>ExpBinary0&#45;&gt;Plus0</title>
<path fill="none" stroke="black" d="M915.945,-143.697C915.945,-135.983 915.945,-126.712 915.945,-118.112"/>
<polygon fill="black" stroke="black" points="919.445,-118.104 915.945,-108.104 912.445,-118.104 919.445,-118.104"/>
</g>
<!-- ExpConst0 -->
<g id="node30" class="node"><title>ExpConst0</title>
<ellipse fill="none" stroke="black" cx="1014.95" cy="-90" rx="50.0912" ry="18"/>
<text text-anchor="middle" x="1014.95" y="-86.3" font-family="Times,serif" font-size="14.00">ExpConst0</text>
</g>
<!-- ExpBinary0&#45;&gt;ExpConst0 -->
<g id="edge23" class="edge"><title>ExpBinary0&#45;&gt;ExpConst0</title>
<path fill="none" stroke="black" d="M937.917,-145.465C951.726,-135.7 969.727,-122.972 984.855,-112.276"/>
<polygon fill="black" stroke="black" points="987.231,-114.882 993.376,-106.251 983.19,-109.167 987.231,-114.882"/>
</g>
<!-- Value0: 20 -->
<g id="node31" class="node"><title>Value0: 20</title>
<ellipse fill="none" stroke="black" cx="1014.95" cy="-18" rx="50.0912" ry="18"/>
<text text-anchor="middle" x="1014.95" y="-14.3" font-family="Times,serif" font-size="14.00">Value0: 20</text>
</g>
<!-- ExpConst0&#45;&gt;Value0: 20 -->
<g id="edge24" class="edge"><title>ExpConst0&#45;&gt;Value0: 20</title>
<path fill="none" stroke="black" d="M1014.95,-71.6966C1014.95,-63.9827 1014.95,-54.7125 1014.95,-46.1124"/>
<polygon fill="black" stroke="black" points="1018.45,-46.1043 1014.95,-36.1043 1011.45,-46.1044 1018.45,-46.1043"/>
</g>
<!-- Temp5: T123 -->
<g id="node34" class="node"><title>Temp5: T123</title>
<ellipse fill="none" stroke="black" cx="1046.95" cy="-162" rx="59.5901" ry="18"/>
<text text-anchor="middle" x="1046.95" y="-158.3" font-family="Times,serif" font-size="14.00">Temp5: T123</text>
</g>
<!-- ExpTemp5&#45;&gt;Temp5: T123 -->
<g id="edge27" class="edge"><title>ExpTemp5&#45;&gt;Temp5: T123</title>
<path fill="none" stroke="black" d="M1046.95,-215.697C1046.95,-207.983 1046.95,-198.712 1046.95,-190.112"/>
<polygon fill="black" stroke="black" points="1050.45,-190.104 1046.95,-180.104 1043.45,-190.104 1050.45,-190.104"/>
</g>
<!-- Temp8: T99 -->
<g id="node37" class="node"><title>Temp8: T99</title>
<ellipse fill="none" stroke="black" cx="1401.95" cy="-162" rx="55.4913" ry="18"/>
<text text-anchor="middle" x="1401.95" y="-158.3" font-family="Times,serif" font-size="14.00">Temp8: T99</text>
</g>
<!-- ExpTemp8&#45;&gt;Temp8: T99 -->
<g id="edge34" class="edge"><title>ExpTemp8&#45;&gt;Temp8: T99</title>
<path fill="none" stroke="black" d="M1401.95,-215.697C1401.95,-207.983 1401.95,-198.712 1401.95,-190.112"/>
<polygon fill="black" stroke="black" points="1405.45,-190.104 1401.95,-180.104 1398.45,-190.104 1405.45,-190.104"/>
</g>
</g>
</svg>
