<?xml version="1.0" encoding="UTF-8" standalone="no"?>
<!DOCTYPE svg PUBLIC "-//W3C//DTD SVG 1.1//EN"
 "http://www.w3.org/Graphics/SVG/1.1/DTD/svg11.dtd">
<!-- Generated by graphviz version 2.38.0 (20140413.2041)
 -->
<!-- Title: %3 Pages: 1 -->
<svg width="2375pt" height="404pt"
 viewBox="0.00 0.00 2374.89 404.00" xmlns="http://www.w3.org/2000/svg" xmlns:xlink="http://www.w3.org/1999/xlink">
<g id="graph0" class="graph" transform="scale(1 1) rotate(0) translate(4 400)">
<title>%3</title>
<polygon fill="white" stroke="none" points="-4,4 -4,-400 2370.89,-400 2370.89,4 -4,4"/>
<!-- ExpMem3 -->
<g id="node1" class="node"><title>ExpMem3</title>
<ellipse fill="none" stroke="black" cx="2065.95" cy="-234" rx="48.9926" ry="18"/>
<text text-anchor="middle" x="2065.95" y="-230.3" font-family="Times,serif" font-size="14.00">ExpMem3</text>
</g>
<!-- ExpBinary3 -->
<g id="node2" class="node"><title>ExpBinary3</title>
<ellipse fill="none" stroke="black" cx="2158.95" cy="-162" rx="53.0913" ry="18"/>
<text text-anchor="middle" x="2158.95" y="-158.3" font-family="Times,serif" font-size="14.00">ExpBinary3</text>
</g>
<!-- ExpMem3&#45;&gt;ExpBinary3 -->
<g id="edge1" class="edge"><title>ExpMem3&#45;&gt;ExpBinary3</title>
<path fill="none" stroke="black" d="M2086.58,-217.465C2099.26,-207.925 2115.69,-195.557 2129.69,-185.018"/>
<polygon fill="black" stroke="black" points="2132.16,-187.544 2138.04,-178.734 2127.95,-181.951 2132.16,-187.544"/>
</g>
<!-- ExpConst3 -->
<g id="node3" class="node"><title>ExpConst3</title>
<ellipse fill="none" stroke="black" cx="2300.95" cy="-90" rx="50.0912" ry="18"/>
<text text-anchor="middle" x="2300.95" y="-86.3" font-family="Times,serif" font-size="14.00">ExpConst3</text>
</g>
<!-- ExpBinary3&#45;&gt;ExpConst3 -->
<g id="edge5" class="edge"><title>ExpBinary3&#45;&gt;ExpConst3</title>
<path fill="none" stroke="black" d="M2187.68,-146.834C2209.57,-136.042 2239.89,-121.095 2263.66,-109.382"/>
<polygon fill="black" stroke="black" points="2265.31,-112.466 2272.74,-104.906 2262.22,-106.188 2265.31,-112.466"/>
</g>
<!-- ExpTemp13 -->
<g id="node5" class="node"><title>ExpTemp13</title>
<ellipse fill="none" stroke="black" cx="2098.95" cy="-90" rx="54.6905" ry="18"/>
<text text-anchor="middle" x="2098.95" y="-86.3" font-family="Times,serif" font-size="14.00">ExpTemp13</text>
</g>
<!-- ExpBinary3&#45;&gt;ExpTemp13 -->
<g id="edge3" class="edge"><title>ExpBinary3&#45;&gt;ExpTemp13</title>
<path fill="none" stroke="black" d="M2144.73,-144.411C2137.25,-135.693 2127.96,-124.845 2119.69,-115.208"/>
<polygon fill="black" stroke="black" points="2122.23,-112.785 2113.06,-107.47 2116.91,-117.34 2122.23,-112.785"/>
</g>
<!-- Plus3 -->
<g id="node6" class="node"><title>Plus3</title>
<ellipse fill="none" stroke="black" cx="2201.95" cy="-90" rx="30.5947" ry="18"/>
<text text-anchor="middle" x="2201.95" y="-86.3" font-family="Times,serif" font-size="14.00">Plus3</text>
</g>
<!-- ExpBinary3&#45;&gt;Plus3 -->
<g id="edge4" class="edge"><title>ExpBinary3&#45;&gt;Plus3</title>
<path fill="none" stroke="black" d="M2169.35,-144.055C2174.55,-135.592 2180.94,-125.19 2186.68,-115.845"/>
<polygon fill="black" stroke="black" points="2189.68,-117.66 2191.93,-107.307 2183.71,-113.996 2189.68,-117.66"/>
</g>
<!-- Value3: 12 -->
<g id="node4" class="node"><title>Value3: 12</title>
<ellipse fill="none" stroke="black" cx="2300.95" cy="-18" rx="50.0912" ry="18"/>
<text text-anchor="middle" x="2300.95" y="-14.3" font-family="Times,serif" font-size="14.00">Value3: 12</text>
</g>
<!-- ExpConst3&#45;&gt;Value3: 12 -->
<g id="edge2" class="edge"><title>ExpConst3&#45;&gt;Value3: 12</title>
<path fill="none" stroke="black" d="M2300.95,-71.6966C2300.95,-63.9827 2300.95,-54.7125 2300.95,-46.1124"/>
<polygon fill="black" stroke="black" points="2304.45,-46.1043 2300.95,-36.1043 2297.45,-46.1044 2304.45,-46.1043"/>
</g>
<!-- Temp13: $fp -->
<g id="node7" class="node"><title>Temp13: $fp</title>
<ellipse fill="none" stroke="black" cx="2098.95" cy="-18" rx="57.3905" ry="18"/>
<text text-anchor="middle" x="2098.95" y="-14.3" font-family="Times,serif" font-size="14.00">Temp13: $fp</text>
</g>
<!-- ExpTemp13&#45;&gt;Temp13: $fp -->
<g id="edge6" class="edge"><title>ExpTemp13&#45;&gt;Temp13: $fp</title>
<path fill="none" stroke="black" d="M2098.95,-71.6966C2098.95,-63.9827 2098.95,-54.7125 2098.95,-46.1124"/>
<polygon fill="black" stroke="black" points="2102.45,-46.1043 2098.95,-36.1043 2095.45,-46.1044 2102.45,-46.1043"/>
</g>
<!-- ExpConst2 -->
<g id="node8" class="node"><title>ExpConst2</title>
<ellipse fill="none" stroke="black" cx="1975.95" cy="-90" rx="50.0912" ry="18"/>
<text text-anchor="middle" x="1975.95" y="-86.3" font-family="Times,serif" font-size="14.00">ExpConst2</text>
</g>
<!-- Value2: 4 -->
<g id="node9" class="node"><title>Value2: 4</title>
<ellipse fill="none" stroke="black" cx="1975.95" cy="-18" rx="45.4919" ry="18"/>
<text text-anchor="middle" x="1975.95" y="-14.3" font-family="Times,serif" font-size="14.00">Value2: 4</text>
</g>
<!-- ExpConst2&#45;&gt;Value2: 4 -->
<g id="edge7" class="edge"><title>ExpConst2&#45;&gt;Value2: 4</title>
<path fill="none" stroke="black" d="M1975.95,-71.6966C1975.95,-63.9827 1975.95,-54.7125 1975.95,-46.1124"/>
<polygon fill="black" stroke="black" points="1979.45,-46.1043 1975.95,-36.1043 1972.45,-46.1044 1979.45,-46.1043"/>
</g>
<!-- ExpBinary2 -->
<g id="node10" class="node"><title>ExpBinary2</title>
<ellipse fill="none" stroke="black" cx="1926.95" cy="-162" rx="53.0913" ry="18"/>
<text text-anchor="middle" x="1926.95" y="-158.3" font-family="Times,serif" font-size="14.00">ExpBinary2</text>
</g>
<!-- ExpBinary2&#45;&gt;ExpConst2 -->
<g id="edge10" class="edge"><title>ExpBinary2&#45;&gt;ExpConst2</title>
<path fill="none" stroke="black" d="M1938.56,-144.411C1944.45,-135.992 1951.74,-125.585 1958.3,-116.201"/>
<polygon fill="black" stroke="black" points="1961.21,-118.156 1964.08,-107.956 1955.47,-114.141 1961.21,-118.156"/>
</g>
<!-- ExpTemp12 -->
<g id="node11" class="node"><title>ExpTemp12</title>
<ellipse fill="none" stroke="black" cx="1773.95" cy="-90" rx="54.6905" ry="18"/>
<text text-anchor="middle" x="1773.95" y="-86.3" font-family="Times,serif" font-size="14.00">ExpTemp12</text>
</g>
<!-- ExpBinary2&#45;&gt;ExpTemp12 -->
<g id="edge8" class="edge"><title>ExpBinary2&#45;&gt;ExpTemp12</title>
<path fill="none" stroke="black" d="M1896.72,-147.17C1872.98,-136.312 1839.73,-121.098 1813.82,-109.242"/>
<polygon fill="black" stroke="black" points="1815.18,-106.018 1804.63,-105.041 1812.27,-112.384 1815.18,-106.018"/>
</g>
<!-- Plus2 -->
<g id="node12" class="node"><title>Plus2</title>
<ellipse fill="none" stroke="black" cx="1876.95" cy="-90" rx="30.5947" ry="18"/>
<text text-anchor="middle" x="1876.95" y="-86.3" font-family="Times,serif" font-size="14.00">Plus2</text>
</g>
<!-- ExpBinary2&#45;&gt;Plus2 -->
<g id="edge9" class="edge"><title>ExpBinary2&#45;&gt;Plus2</title>
<path fill="none" stroke="black" d="M1915.1,-144.411C1908.91,-135.744 1901.21,-124.971 1894.36,-115.375"/>
<polygon fill="black" stroke="black" points="1897.03,-113.091 1888.37,-106.988 1891.33,-117.16 1897.03,-113.091"/>
</g>
<!-- Temp12: $fp -->
<g id="node51" class="node"><title>Temp12: $fp</title>
<ellipse fill="none" stroke="black" cx="1773.95" cy="-18" rx="57.3905" ry="18"/>
<text text-anchor="middle" x="1773.95" y="-14.3" font-family="Times,serif" font-size="14.00">Temp12: $fp</text>
</g>
<!-- ExpTemp12&#45;&gt;Temp12: $fp -->
<g id="edge46" class="edge"><title>ExpTemp12&#45;&gt;Temp12: $fp</title>
<path fill="none" stroke="black" d="M1773.95,-71.6966C1773.95,-63.9827 1773.95,-54.7125 1773.95,-46.1124"/>
<polygon fill="black" stroke="black" points="1777.45,-46.1043 1773.95,-36.1043 1770.45,-46.1044 1777.45,-46.1043"/>
</g>
<!-- ExpList0 -->
<g id="node13" class="node"><title>ExpList0</title>
<ellipse fill="none" stroke="black" cx="1517.95" cy="-162" rx="42.7926" ry="18"/>
<text text-anchor="middle" x="1517.95" y="-158.3" font-family="Times,serif" font-size="14.00">ExpList0</text>
</g>
<!-- ExpTemp9 -->
<g id="node14" class="node"><title>ExpTemp9</title>
<ellipse fill="none" stroke="black" cx="1525.95" cy="-90" rx="50.0912" ry="18"/>
<text text-anchor="middle" x="1525.95" y="-86.3" font-family="Times,serif" font-size="14.00">ExpTemp9</text>
</g>
<!-- ExpList0&#45;&gt;ExpTemp9 -->
<g id="edge11" class="edge"><title>ExpList0&#45;&gt;ExpTemp9</title>
<path fill="none" stroke="black" d="M1519.92,-143.697C1520.8,-135.983 1521.86,-126.712 1522.85,-118.112"/>
<polygon fill="black" stroke="black" points="1526.33,-118.437 1523.99,-108.104 1519.38,-117.642 1526.33,-118.437"/>
</g>
<!-- Temp9: T104 -->
<g id="node15" class="node"><title>Temp9: T104</title>
<ellipse fill="none" stroke="black" cx="1525.95" cy="-18" rx="59.5901" ry="18"/>
<text text-anchor="middle" x="1525.95" y="-14.3" font-family="Times,serif" font-size="14.00">Temp9: T104</text>
</g>
<!-- ExpTemp9&#45;&gt;Temp9: T104 -->
<g id="edge12" class="edge"><title>ExpTemp9&#45;&gt;Temp9: T104</title>
<path fill="none" stroke="black" d="M1525.95,-71.6966C1525.95,-63.9827 1525.95,-54.7125 1525.95,-46.1124"/>
<polygon fill="black" stroke="black" points="1529.45,-46.1043 1525.95,-36.1043 1522.45,-46.1044 1529.45,-46.1043"/>
</g>
<!-- ExpMem2 -->
<g id="node16" class="node"><title>ExpMem2</title>
<ellipse fill="none" stroke="black" cx="1950.95" cy="-234" rx="48.9926" ry="18"/>
<text text-anchor="middle" x="1950.95" y="-230.3" font-family="Times,serif" font-size="14.00">ExpMem2</text>
</g>
<!-- ExpMem2&#45;&gt;ExpBinary2 -->
<g id="edge13" class="edge"><title>ExpMem2&#45;&gt;ExpBinary2</title>
<path fill="none" stroke="black" d="M1945.14,-216.055C1942.43,-208.176 1939.16,-198.617 1936.13,-189.794"/>
<polygon fill="black" stroke="black" points="1939.42,-188.6 1932.87,-180.275 1932.8,-190.87 1939.42,-188.6"/>
</g>
<!-- ExpCall0 -->
<g id="node17" class="node"><title>ExpCall0</title>
<ellipse fill="none" stroke="black" cx="1406.95" cy="-234" rx="44.393" ry="18"/>
<text text-anchor="middle" x="1406.95" y="-230.3" font-family="Times,serif" font-size="14.00">ExpCall0</text>
</g>
<!-- ExpCall0&#45;&gt;ExpList0 -->
<g id="edge15" class="edge"><title>ExpCall0&#45;&gt;ExpList0</title>
<path fill="none" stroke="black" d="M1429.94,-218.496C1446.17,-208.266 1468.11,-194.428 1486.03,-183.13"/>
<polygon fill="black" stroke="black" points="1488.38,-185.78 1494.98,-177.485 1484.65,-179.859 1488.38,-185.78"/>
</g>
<!-- ExpTemp8 -->
<g id="node18" class="node"><title>ExpTemp8</title>
<ellipse fill="none" stroke="black" cx="1406.95" cy="-162" rx="50.0912" ry="18"/>
<text text-anchor="middle" x="1406.95" y="-158.3" font-family="Times,serif" font-size="14.00">ExpTemp8</text>
</g>
<!-- ExpCall0&#45;&gt;ExpTemp8 -->
<g id="edge14" class="edge"><title>ExpCall0&#45;&gt;ExpTemp8</title>
<path fill="none" stroke="black" d="M1406.95,-215.697C1406.95,-207.983 1406.95,-198.712 1406.95,-190.112"/>
<polygon fill="black" stroke="black" points="1410.45,-190.104 1406.95,-180.104 1403.45,-190.104 1410.45,-190.104"/>
</g>
<!-- Temp8: T103 -->
<g id="node23" class="node"><title>Temp8: T103</title>
<ellipse fill="none" stroke="black" cx="1397.95" cy="-90" rx="59.5901" ry="18"/>
<text text-anchor="middle" x="1397.95" y="-86.3" font-family="Times,serif" font-size="14.00">Temp8: T103</text>
</g>
<!-- ExpTemp8&#45;&gt;Temp8: T103 -->
<g id="edge21" class="edge"><title>ExpTemp8&#45;&gt;Temp8: T103</title>
<path fill="none" stroke="black" d="M1404.72,-143.697C1403.73,-135.983 1402.54,-126.712 1401.43,-118.112"/>
<polygon fill="black" stroke="black" points="1404.89,-117.576 1400.14,-108.104 1397.95,-118.469 1404.89,-117.576"/>
</g>
<!-- StatCJump0 -->
<g id="node19" class="node"><title>StatCJump0</title>
<ellipse fill="none" stroke="black" cx="2007.95" cy="-306" rx="53.8905" ry="18"/>
<text text-anchor="middle" x="2007.95" y="-302.3" font-family="Times,serif" font-size="14.00">StatCJump0</text>
</g>
<!-- StatCJump0&#45;&gt;ExpMem3 -->
<g id="edge18" class="edge"><title>StatCJump0&#45;&gt;ExpMem3</title>
<path fill="none" stroke="black" d="M2021.69,-288.411C2028.91,-279.693 2037.9,-268.845 2045.89,-259.208"/>
<polygon fill="black" stroke="black" points="2048.61,-261.403 2052.3,-251.47 2043.22,-256.937 2048.61,-261.403"/>
</g>
<!-- StatCJump0&#45;&gt;ExpMem2 -->
<g id="edge17" class="edge"><title>StatCJump0&#45;&gt;ExpMem2</title>
<path fill="none" stroke="black" d="M1994.44,-288.411C1987.41,-279.781 1978.68,-269.062 1970.89,-259.497"/>
<polygon fill="black" stroke="black" points="1973.38,-257.014 1964.36,-251.47 1967.96,-261.434 1973.38,-257.014"/>
</g>
<!-- LT0 -->
<g id="node20" class="node"><title>LT0</title>
<ellipse fill="none" stroke="black" cx="1856.95" cy="-234" rx="27" ry="18"/>
<text text-anchor="middle" x="1856.95" y="-230.3" font-family="Times,serif" font-size="14.00">LT0</text>
</g>
<!-- StatCJump0&#45;&gt;LT0 -->
<g id="edge16" class="edge"><title>StatCJump0&#45;&gt;LT0</title>
<path fill="none" stroke="black" d="M1977.16,-290.906C1953.98,-280.271 1921.43,-265.291 1892.95,-252 1891.16,-251.167 1889.33,-250.309 1887.48,-249.442"/>
<polygon fill="black" stroke="black" points="1888.79,-246.191 1878.25,-245.101 1885.81,-252.525 1888.79,-246.191"/>
</g>
<!-- Label2: L34 -->
<g id="node21" class="node"><title>Label2: L34</title>
<ellipse fill="none" stroke="black" cx="2186.95" cy="-234" rx="53.8905" ry="18"/>
<text text-anchor="middle" x="2186.95" y="-230.3" font-family="Times,serif" font-size="14.00">Label2: L34</text>
</g>
<!-- StatCJump0&#45;&gt;Label2: L34 -->
<g id="edge19" class="edge"><title>StatCJump0&#45;&gt;Label2: L34</title>
<path fill="none" stroke="black" d="M2041.61,-291.834C2070.62,-280.492 2112.64,-264.057 2144.05,-251.776"/>
<polygon fill="black" stroke="black" points="2145.39,-255.009 2153.43,-248.107 2142.84,-248.49 2145.39,-255.009"/>
</g>
<!-- Label3: L35 -->
<g id="node22" class="node"><title>Label3: L35</title>
<ellipse fill="none" stroke="black" cx="2312.95" cy="-234" rx="53.8905" ry="18"/>
<text text-anchor="middle" x="2312.95" y="-230.3" font-family="Times,serif" font-size="14.00">Label3: L35</text>
</g>
<!-- StatCJump0&#45;&gt;Label3: L35 -->
<g id="edge20" class="edge"><title>StatCJump0&#45;&gt;Label3: L35</title>
<path fill="none" stroke="black" d="M2052.7,-295.87C2101.38,-285.782 2181.42,-268.738 2249.95,-252 2254.09,-250.987 2258.38,-249.904 2262.69,-248.793"/>
<polygon fill="black" stroke="black" points="2263.9,-252.092 2272.69,-246.171 2262.13,-245.321 2263.9,-252.092"/>
</g>
<!-- StatMove1 -->
<g id="node24" class="node"><title>StatMove1</title>
<ellipse fill="none" stroke="black" cx="545.945" cy="-306" rx="50.0912" ry="18"/>
<text text-anchor="middle" x="545.945" y="-302.3" font-family="Times,serif" font-size="14.00">StatMove1</text>
</g>
<!-- ExpTemp2 -->
<g id="node25" class="node"><title>ExpTemp2</title>
<ellipse fill="none" stroke="black" cx="420.945" cy="-234" rx="50.0912" ry="18"/>
<text text-anchor="middle" x="420.945" y="-230.3" font-family="Times,serif" font-size="14.00">ExpTemp2</text>
</g>
<!-- StatMove1&#45;&gt;ExpTemp2 -->
<g id="edge22" class="edge"><title>StatMove1&#45;&gt;ExpTemp2</title>
<path fill="none" stroke="black" d="M520.045,-290.496C501.441,-280.078 476.157,-265.919 455.785,-254.51"/>
<polygon fill="black" stroke="black" points="457.247,-251.318 446.812,-249.485 453.827,-257.425 457.247,-251.318"/>
</g>
<!-- ExpTemp3 -->
<g id="node26" class="node"><title>ExpTemp3</title>
<ellipse fill="none" stroke="black" cx="545.945" cy="-234" rx="50.0912" ry="18"/>
<text text-anchor="middle" x="545.945" y="-230.3" font-family="Times,serif" font-size="14.00">ExpTemp3</text>
</g>
<!-- StatMove1&#45;&gt;ExpTemp3 -->
<g id="edge23" class="edge"><title>StatMove1&#45;&gt;ExpTemp3</title>
<path fill="none" stroke="black" d="M545.945,-287.697C545.945,-279.983 545.945,-270.712 545.945,-262.112"/>
<polygon fill="black" stroke="black" points="549.445,-262.104 545.945,-252.104 542.445,-262.104 549.445,-262.104"/>
</g>
<!-- Temp2: T105 -->
<g id="node36" class="node"><title>Temp2: T105</title>
<ellipse fill="none" stroke="black" cx="412.945" cy="-162" rx="59.5901" ry="18"/>
<text text-anchor="middle" x="412.945" y="-158.3" font-family="Times,serif" font-size="14.00">Temp2: T105</text>
</g>
<!-- ExpTemp2&#45;&gt;Temp2: T105 -->
<g id="edge31" class="edge"><title>ExpTemp2&#45;&gt;Temp2: T105</title>
<path fill="none" stroke="black" d="M418.968,-215.697C418.086,-207.983 417.027,-198.712 416.044,-190.112"/>
<polygon fill="black" stroke="black" points="419.513,-189.642 414.9,-180.104 412.558,-190.437 419.513,-189.642"/>
</g>
<!-- Temp3: T94 -->
<g id="node56" class="node"><title>Temp3: T94</title>
<ellipse fill="none" stroke="black" cx="545.945" cy="-162" rx="55.4913" ry="18"/>
<text text-anchor="middle" x="545.945" y="-158.3" font-family="Times,serif" font-size="14.00">Temp3: T94</text>
</g>
<!-- ExpTemp3&#45;&gt;Temp3: T94 -->
<g id="edge52" class="edge"><title>ExpTemp3&#45;&gt;Temp3: T94</title>
<path fill="none" stroke="black" d="M545.945,-215.697C545.945,-207.983 545.945,-198.712 545.945,-190.112"/>
<polygon fill="black" stroke="black" points="549.445,-190.104 545.945,-180.104 542.445,-190.104 549.445,-190.104"/>
</g>
<!-- StatMove5 -->
<g id="node27" class="node"><title>StatMove5</title>
<ellipse fill="none" stroke="black" cx="1629.95" cy="-306" rx="50.0912" ry="18"/>
<text text-anchor="middle" x="1629.95" y="-302.3" font-family="Times,serif" font-size="14.00">StatMove5</text>
</g>
<!-- ExpTemp10 -->
<g id="node28" class="node"><title>ExpTemp10</title>
<ellipse fill="none" stroke="black" cx="1629.95" cy="-234" rx="54.6905" ry="18"/>
<text text-anchor="middle" x="1629.95" y="-230.3" font-family="Times,serif" font-size="14.00">ExpTemp10</text>
</g>
<!-- StatMove5&#45;&gt;ExpTemp10 -->
<g id="edge24" class="edge"><title>StatMove5&#45;&gt;ExpTemp10</title>
<path fill="none" stroke="black" d="M1629.95,-287.697C1629.95,-279.983 1629.95,-270.712 1629.95,-262.112"/>
<polygon fill="black" stroke="black" points="1633.45,-262.104 1629.95,-252.104 1626.45,-262.104 1633.45,-262.104"/>
</g>
<!-- ExpTemp11 -->
<g id="node29" class="node"><title>ExpTemp11</title>
<ellipse fill="none" stroke="black" cx="1756.95" cy="-234" rx="54.6905" ry="18"/>
<text text-anchor="middle" x="1756.95" y="-230.3" font-family="Times,serif" font-size="14.00">ExpTemp11</text>
</g>
<!-- StatMove5&#45;&gt;ExpTemp11 -->
<g id="edge25" class="edge"><title>StatMove5&#45;&gt;ExpTemp11</title>
<path fill="none" stroke="black" d="M1656.26,-290.496C1675.12,-280.101 1700.74,-265.981 1721.41,-254.585"/>
<polygon fill="black" stroke="black" points="1723.16,-257.619 1730.23,-249.726 1719.78,-251.488 1723.16,-257.619"/>
</g>
<!-- Temp10: T106 -->
<g id="node35" class="node"><title>Temp10: T106</title>
<ellipse fill="none" stroke="black" cx="1642.95" cy="-162" rx="63.8893" ry="18"/>
<text text-anchor="middle" x="1642.95" y="-158.3" font-family="Times,serif" font-size="14.00">Temp10: T106</text>
</g>
<!-- ExpTemp10&#45;&gt;Temp10: T106 -->
<g id="edge30" class="edge"><title>ExpTemp10&#45;&gt;Temp10: T106</title>
<path fill="none" stroke="black" d="M1633.16,-215.697C1634.59,-207.983 1636.31,-198.712 1637.91,-190.112"/>
<polygon fill="black" stroke="black" points="1641.38,-190.575 1639.77,-180.104 1634.5,-189.297 1641.38,-190.575"/>
</g>
<!-- Temp11: T94 -->
<g id="node64" class="node"><title>Temp11: T94</title>
<ellipse fill="none" stroke="black" cx="1783.95" cy="-162" rx="59.5901" ry="18"/>
<text text-anchor="middle" x="1783.95" y="-158.3" font-family="Times,serif" font-size="14.00">Temp11: T94</text>
</g>
<!-- ExpTemp11&#45;&gt;Temp11: T94 -->
<g id="edge58" class="edge"><title>ExpTemp11&#45;&gt;Temp11: T94</title>
<path fill="none" stroke="black" d="M1763.48,-216.055C1766.52,-208.176 1770.21,-198.617 1773.61,-189.794"/>
<polygon fill="black" stroke="black" points="1776.95,-190.865 1777.28,-180.275 1770.42,-188.346 1776.95,-190.865"/>
</g>
<!-- ExpConst1 -->
<g id="node30" class="node"><title>ExpConst1</title>
<ellipse fill="none" stroke="black" cx="1246.95" cy="-90" rx="50.0912" ry="18"/>
<text text-anchor="middle" x="1246.95" y="-86.3" font-family="Times,serif" font-size="14.00">ExpConst1</text>
</g>
<!-- Value1: 20 -->
<g id="node31" class="node"><title>Value1: 20</title>
<ellipse fill="none" stroke="black" cx="1246.95" cy="-18" rx="50.0912" ry="18"/>
<text text-anchor="middle" x="1246.95" y="-14.3" font-family="Times,serif" font-size="14.00">Value1: 20</text>
</g>
<!-- ExpConst1&#45;&gt;Value1: 20 -->
<g id="edge26" class="edge"><title>ExpConst1&#45;&gt;Value1: 20</title>
<path fill="none" stroke="black" d="M1246.95,-71.6966C1246.95,-63.9827 1246.95,-54.7125 1246.95,-46.1124"/>
<polygon fill="black" stroke="black" points="1250.45,-46.1043 1246.95,-36.1043 1243.45,-46.1044 1250.45,-46.1043"/>
</g>
<!-- ExpBinary1 -->
<g id="node32" class="node"><title>ExpBinary1</title>
<ellipse fill="none" stroke="black" cx="1147.95" cy="-162" rx="53.0913" ry="18"/>
<text text-anchor="middle" x="1147.95" y="-158.3" font-family="Times,serif" font-size="14.00">ExpBinary1</text>
</g>
<!-- ExpBinary1&#45;&gt;ExpConst1 -->
<g id="edge29" class="edge"><title>ExpBinary1&#45;&gt;ExpConst1</title>
<path fill="none" stroke="black" d="M1169.92,-145.465C1183.73,-135.7 1201.73,-122.972 1216.85,-112.276"/>
<polygon fill="black" stroke="black" points="1219.23,-114.882 1225.38,-106.251 1215.19,-109.167 1219.23,-114.882"/>
</g>
<!-- ExpTemp6 -->
<g id="node33" class="node"><title>ExpTemp6</title>
<ellipse fill="none" stroke="black" cx="1048.95" cy="-90" rx="50.0912" ry="18"/>
<text text-anchor="middle" x="1048.95" y="-86.3" font-family="Times,serif" font-size="14.00">ExpTemp6</text>
</g>
<!-- ExpBinary1&#45;&gt;ExpTemp6 -->
<g id="edge27" class="edge"><title>ExpBinary1&#45;&gt;ExpTemp6</title>
<path fill="none" stroke="black" d="M1125.97,-145.465C1112.16,-135.7 1094.16,-122.972 1079.04,-112.276"/>
<polygon fill="black" stroke="black" points="1080.7,-109.167 1070.51,-106.251 1076.66,-114.882 1080.7,-109.167"/>
</g>
<!-- Plus1 -->
<g id="node34" class="node"><title>Plus1</title>
<ellipse fill="none" stroke="black" cx="1147.95" cy="-90" rx="30.5947" ry="18"/>
<text text-anchor="middle" x="1147.95" y="-86.3" font-family="Times,serif" font-size="14.00">Plus1</text>
</g>
<!-- ExpBinary1&#45;&gt;Plus1 -->
<g id="edge28" class="edge"><title>ExpBinary1&#45;&gt;Plus1</title>
<path fill="none" stroke="black" d="M1147.95,-143.697C1147.95,-135.983 1147.95,-126.712 1147.95,-118.112"/>
<polygon fill="black" stroke="black" points="1151.45,-118.104 1147.95,-108.104 1144.45,-118.104 1151.45,-118.104"/>
</g>
<!-- Temp6: $fp -->
<g id="node65" class="node"><title>Temp6: $fp</title>
<ellipse fill="none" stroke="black" cx="1048.95" cy="-18" rx="52.7911" ry="18"/>
<text text-anchor="middle" x="1048.95" y="-14.3" font-family="Times,serif" font-size="14.00">Temp6: $fp</text>
</g>
<!-- ExpTemp6&#45;&gt;Temp6: $fp -->
<g id="edge61" class="edge"><title>ExpTemp6&#45;&gt;Temp6: $fp</title>
<path fill="none" stroke="black" d="M1048.95,-71.6966C1048.95,-63.9827 1048.95,-54.7125 1048.95,-46.1124"/>
<polygon fill="black" stroke="black" points="1052.45,-46.1043 1048.95,-36.1043 1045.45,-46.1044 1052.45,-46.1043"/>
</g>
<!-- StatMove2 -->
<g id="node37" class="node"><title>StatMove2</title>
<ellipse fill="none" stroke="black" cx="847.945" cy="-306" rx="50.0912" ry="18"/>
<text text-anchor="middle" x="847.945" y="-302.3" font-family="Times,serif" font-size="14.00">StatMove2</text>
</g>
<!-- ExpTemp4 -->
<g id="node38" class="node"><title>ExpTemp4</title>
<ellipse fill="none" stroke="black" cx="703.945" cy="-234" rx="50.0912" ry="18"/>
<text text-anchor="middle" x="703.945" y="-230.3" font-family="Times,serif" font-size="14.00">ExpTemp4</text>
</g>
<!-- StatMove2&#45;&gt;ExpTemp4 -->
<g id="edge32" class="edge"><title>StatMove2&#45;&gt;ExpTemp4</title>
<path fill="none" stroke="black" d="M819.495,-291.17C797.353,-280.407 766.409,-265.365 742.116,-253.555"/>
<polygon fill="black" stroke="black" points="743.353,-250.265 732.829,-249.041 740.292,-256.56 743.353,-250.265"/>
</g>
<!-- ExpName0 -->
<g id="node39" class="node"><title>ExpName0</title>
<ellipse fill="none" stroke="black" cx="847.945" cy="-234" rx="50.8918" ry="18"/>
<text text-anchor="middle" x="847.945" y="-230.3" font-family="Times,serif" font-size="14.00">ExpName0</text>
</g>
<!-- StatMove2&#45;&gt;ExpName0 -->
<g id="edge33" class="edge"><title>StatMove2&#45;&gt;ExpName0</title>
<path fill="none" stroke="black" d="M847.945,-287.697C847.945,-279.983 847.945,-270.712 847.945,-262.112"/>
<polygon fill="black" stroke="black" points="851.445,-262.104 847.945,-252.104 844.445,-262.104 851.445,-262.104"/>
</g>
<!-- Temp4: T103 -->
<g id="node58" class="node"><title>Temp4: T103</title>
<ellipse fill="none" stroke="black" cx="678.945" cy="-162" rx="59.5901" ry="18"/>
<text text-anchor="middle" x="678.945" y="-158.3" font-family="Times,serif" font-size="14.00">Temp4: T103</text>
</g>
<!-- ExpTemp4&#45;&gt;Temp4: T103 -->
<g id="edge54" class="edge"><title>ExpTemp4&#45;&gt;Temp4: T103</title>
<path fill="none" stroke="black" d="M697.893,-216.055C695.08,-208.176 691.665,-198.617 688.515,-189.794"/>
<polygon fill="black" stroke="black" points="691.774,-188.516 685.115,-180.275 685.182,-190.87 691.774,-188.516"/>
</g>
<!-- Label1: Tree@GetKey -->
<g id="node57" class="node"><title>Label1: Tree@GetKey</title>
<ellipse fill="none" stroke="black" cx="847.945" cy="-162" rx="91.784" ry="18"/>
<text text-anchor="middle" x="847.945" y="-158.3" font-family="Times,serif" font-size="14.00">Label1: Tree@GetKey</text>
</g>
<!-- ExpName0&#45;&gt;Label1: Tree@GetKey -->
<g id="edge53" class="edge"><title>ExpName0&#45;&gt;Label1: Tree@GetKey</title>
<path fill="none" stroke="black" d="M847.945,-215.697C847.945,-207.983 847.945,-198.712 847.945,-190.112"/>
<polygon fill="black" stroke="black" points="851.445,-190.104 847.945,-180.104 844.445,-190.104 851.445,-190.104"/>
</g>
<!-- ExpConst0 -->
<g id="node40" class="node"><title>ExpConst0</title>
<ellipse fill="none" stroke="black" cx="380.945" cy="-90" rx="50.0912" ry="18"/>
<text text-anchor="middle" x="380.945" y="-86.3" font-family="Times,serif" font-size="14.00">ExpConst0</text>
</g>
<!-- Value0: 12 -->
<g id="node41" class="node"><title>Value0: 12</title>
<ellipse fill="none" stroke="black" cx="380.945" cy="-18" rx="50.0912" ry="18"/>
<text text-anchor="middle" x="380.945" y="-14.3" font-family="Times,serif" font-size="14.00">Value0: 12</text>
</g>
<!-- ExpConst0&#45;&gt;Value0: 12 -->
<g id="edge34" class="edge"><title>ExpConst0&#45;&gt;Value0: 12</title>
<path fill="none" stroke="black" d="M380.945,-71.6966C380.945,-63.9827 380.945,-54.7125 380.945,-46.1124"/>
<polygon fill="black" stroke="black" points="384.445,-46.1043 380.945,-36.1043 377.445,-46.1044 384.445,-46.1043"/>
</g>
<!-- ExpMem1 -->
<g id="node42" class="node"><title>ExpMem1</title>
<ellipse fill="none" stroke="black" cx="1140.95" cy="-234" rx="48.9926" ry="18"/>
<text text-anchor="middle" x="1140.95" y="-230.3" font-family="Times,serif" font-size="14.00">ExpMem1</text>
</g>
<!-- ExpMem1&#45;&gt;ExpBinary1 -->
<g id="edge35" class="edge"><title>ExpMem1&#45;&gt;ExpBinary1</title>
<path fill="none" stroke="black" d="M1142.68,-215.697C1143.45,-207.983 1144.37,-198.712 1145.23,-190.112"/>
<polygon fill="black" stroke="black" points="1148.72,-190.403 1146.23,-180.104 1141.76,-189.706 1148.72,-190.403"/>
</g>
<!-- StatLabel0 -->
<g id="node43" class="node"><title>StatLabel0</title>
<ellipse fill="none" stroke="black" cx="114.945" cy="-306" rx="48.9926" ry="18"/>
<text text-anchor="middle" x="114.945" y="-302.3" font-family="Times,serif" font-size="14.00">StatLabel0</text>
</g>
<!-- Label0: L38 -->
<g id="node44" class="node"><title>Label0: L38</title>
<ellipse fill="none" stroke="black" cx="53.9452" cy="-234" rx="53.8905" ry="18"/>
<text text-anchor="middle" x="53.9452" y="-230.3" font-family="Times,serif" font-size="14.00">Label0: L38</text>
</g>
<!-- StatLabel0&#45;&gt;Label0: L38 -->
<g id="edge36" class="edge"><title>StatLabel0&#45;&gt;Label0: L38</title>
<path fill="none" stroke="black" d="M100.797,-288.765C93.2083,-280.056 83.7016,-269.147 75.2386,-259.435"/>
<polygon fill="black" stroke="black" points="77.6485,-256.873 68.44,-251.633 72.3712,-261.472 77.6485,-256.873"/>
</g>
<!-- StatList0 -->
<g id="node45" class="node"><title>StatList0</title>
<ellipse fill="none" stroke="black" cx="931.945" cy="-378" rx="42.4939" ry="18"/>
<text text-anchor="middle" x="931.945" y="-374.3" font-family="Times,serif" font-size="14.00">StatList0</text>
</g>
<!-- StatList0&#45;&gt;StatCJump0 -->
<g id="edge44" class="edge"><title>StatList0&#45;&gt;StatCJump0</title>
<path fill="none" stroke="black" d="M973.466,-374.299C1138.33,-363.574 1747.34,-323.954 1945.32,-311.074"/>
<polygon fill="black" stroke="black" points="1945.8,-314.551 1955.55,-310.409 1945.34,-307.565 1945.8,-314.551"/>
</g>
<!-- StatList0&#45;&gt;StatMove1 -->
<g id="edge39" class="edge"><title>StatList0&#45;&gt;StatMove1</title>
<path fill="none" stroke="black" d="M893.878,-370.097C824.89,-357.586 679.031,-331.135 599.839,-316.774"/>
<polygon fill="black" stroke="black" points="600.053,-313.255 589.589,-314.915 598.804,-320.143 600.053,-313.255"/>
</g>
<!-- StatList0&#45;&gt;StatMove5 -->
<g id="edge43" class="edge"><title>StatList0&#45;&gt;StatMove5</title>
<path fill="none" stroke="black" d="M972.49,-372.934C1090.6,-361.089 1434.68,-326.582 1572.19,-312.792"/>
<polygon fill="black" stroke="black" points="1572.91,-316.238 1582.51,-311.758 1572.21,-309.273 1572.91,-316.238"/>
</g>
<!-- StatList0&#45;&gt;StatMove2 -->
<g id="edge40" class="edge"><title>StatList0&#45;&gt;StatMove2</title>
<path fill="none" stroke="black" d="M913.303,-361.465C901.963,-352.015 887.293,-339.79 874.725,-329.316"/>
<polygon fill="black" stroke="black" points="876.749,-326.447 866.826,-322.734 872.267,-331.825 876.749,-326.447"/>
</g>
<!-- StatList0&#45;&gt;StatLabel0 -->
<g id="edge37" class="edge"><title>StatList0&#45;&gt;StatLabel0</title>
<path fill="none" stroke="black" d="M890.159,-374.793C781.673,-368.855 482.21,-351.129 233.945,-324 212.648,-321.673 189.296,-318.478 168.961,-315.486"/>
<polygon fill="black" stroke="black" points="169.345,-312.005 158.938,-313.993 168.313,-318.929 169.345,-312.005"/>
</g>
<!-- StatMove0 -->
<g id="node46" class="node"><title>StatMove0</title>
<ellipse fill="none" stroke="black" cx="292.945" cy="-306" rx="50.0912" ry="18"/>
<text text-anchor="middle" x="292.945" y="-302.3" font-family="Times,serif" font-size="14.00">StatMove0</text>
</g>
<!-- StatList0&#45;&gt;StatMove0 -->
<g id="edge38" class="edge"><title>StatList0&#45;&gt;StatMove0</title>
<path fill="none" stroke="black" d="M891.488,-372.568C781.682,-360.539 477.779,-327.248 350.348,-313.288"/>
<polygon fill="black" stroke="black" points="350.349,-309.767 340.027,-312.158 349.586,-316.726 350.349,-309.767"/>
</g>
<!-- StatMove3 -->
<g id="node47" class="node"><title>StatMove3</title>
<ellipse fill="none" stroke="black" cx="1016.95" cy="-306" rx="50.0912" ry="18"/>
<text text-anchor="middle" x="1016.95" y="-302.3" font-family="Times,serif" font-size="14.00">StatMove3</text>
</g>
<!-- StatList0&#45;&gt;StatMove3 -->
<g id="edge41" class="edge"><title>StatList0&#45;&gt;StatMove3</title>
<path fill="none" stroke="black" d="M950.809,-361.465C962.284,-352.015 977.129,-339.79 989.847,-329.316"/>
<polygon fill="black" stroke="black" points="992.345,-331.793 997.84,-322.734 987.895,-326.389 992.345,-331.793"/>
</g>
<!-- StatMove4 -->
<g id="node48" class="node"><title>StatMove4</title>
<ellipse fill="none" stroke="black" cx="1278.95" cy="-306" rx="50.0912" ry="18"/>
<text text-anchor="middle" x="1278.95" y="-302.3" font-family="Times,serif" font-size="14.00">StatMove4</text>
</g>
<!-- StatList0&#45;&gt;StatMove4 -->
<g id="edge42" class="edge"><title>StatList0&#45;&gt;StatMove4</title>
<path fill="none" stroke="black" d="M969.41,-369.442C1031.46,-356.924 1155.73,-331.856 1226.48,-317.583"/>
<polygon fill="black" stroke="black" points="1227.41,-320.967 1236.52,-315.559 1226.02,-314.105 1227.41,-320.967"/>
</g>
<!-- ExpTemp0 -->
<g id="node49" class="node"><title>ExpTemp0</title>
<ellipse fill="none" stroke="black" cx="175.945" cy="-234" rx="50.0912" ry="18"/>
<text text-anchor="middle" x="175.945" y="-230.3" font-family="Times,serif" font-size="14.00">ExpTemp0</text>
</g>
<!-- StatMove0&#45;&gt;ExpTemp0 -->
<g id="edge50" class="edge"><title>StatMove0&#45;&gt;ExpTemp0</title>
<path fill="none" stroke="black" d="M268.133,-290.155C251.069,-279.946 228.206,-266.267 209.517,-255.086"/>
<polygon fill="black" stroke="black" points="211.101,-251.955 200.722,-249.824 207.507,-257.962 211.101,-251.955"/>
</g>
<!-- ExpMem0 -->
<g id="node55" class="node"><title>ExpMem0</title>
<ellipse fill="none" stroke="black" cx="292.945" cy="-234" rx="48.9926" ry="18"/>
<text text-anchor="middle" x="292.945" y="-230.3" font-family="Times,serif" font-size="14.00">ExpMem0</text>
</g>
<!-- StatMove0&#45;&gt;ExpMem0 -->
<g id="edge51" class="edge"><title>StatMove0&#45;&gt;ExpMem0</title>
<path fill="none" stroke="black" d="M292.945,-287.697C292.945,-279.983 292.945,-270.712 292.945,-262.112"/>
<polygon fill="black" stroke="black" points="296.445,-262.104 292.945,-252.104 289.445,-262.104 296.445,-262.104"/>
</g>
<!-- StatMove3&#45;&gt;ExpMem1 -->
<g id="edge60" class="edge"><title>StatMove3&#45;&gt;ExpMem1</title>
<path fill="none" stroke="black" d="M1042.64,-290.496C1061.09,-280.078 1086.17,-265.919 1106.38,-254.51"/>
<polygon fill="black" stroke="black" points="1108.3,-257.449 1115.29,-249.485 1104.86,-251.354 1108.3,-257.449"/>
</g>
<!-- ExpTemp5 -->
<g id="node62" class="node"><title>ExpTemp5</title>
<ellipse fill="none" stroke="black" cx="1016.95" cy="-234" rx="50.0912" ry="18"/>
<text text-anchor="middle" x="1016.95" y="-230.3" font-family="Times,serif" font-size="14.00">ExpTemp5</text>
</g>
<!-- StatMove3&#45;&gt;ExpTemp5 -->
<g id="edge59" class="edge"><title>StatMove3&#45;&gt;ExpTemp5</title>
<path fill="none" stroke="black" d="M1016.95,-287.697C1016.95,-279.983 1016.95,-270.712 1016.95,-262.112"/>
<polygon fill="black" stroke="black" points="1020.45,-262.104 1016.95,-252.104 1013.45,-262.104 1020.45,-262.104"/>
</g>
<!-- StatMove4&#45;&gt;ExpCall0 -->
<g id="edge64" class="edge"><title>StatMove4&#45;&gt;ExpCall0</title>
<path fill="none" stroke="black" d="M1305.16,-290.666C1324.65,-280.004 1351.44,-265.356 1372.64,-253.762"/>
<polygon fill="black" stroke="black" points="1374.55,-256.707 1381.64,-248.838 1371.19,-250.566 1374.55,-256.707"/>
</g>
<!-- ExpTemp7 -->
<g id="node59" class="node"><title>ExpTemp7</title>
<ellipse fill="none" stroke="black" cx="1278.95" cy="-234" rx="50.0912" ry="18"/>
<text text-anchor="middle" x="1278.95" y="-230.3" font-family="Times,serif" font-size="14.00">ExpTemp7</text>
</g>
<!-- StatMove4&#45;&gt;ExpTemp7 -->
<g id="edge63" class="edge"><title>StatMove4&#45;&gt;ExpTemp7</title>
<path fill="none" stroke="black" d="M1278.95,-287.697C1278.95,-279.983 1278.95,-270.712 1278.95,-262.112"/>
<polygon fill="black" stroke="black" points="1282.45,-262.104 1278.95,-252.104 1275.45,-262.104 1282.45,-262.104"/>
</g>
<!-- Temp0: T106 -->
<g id="node50" class="node"><title>Temp0: T106</title>
<ellipse fill="none" stroke="black" cx="150.945" cy="-162" rx="59.5901" ry="18"/>
<text text-anchor="middle" x="150.945" y="-158.3" font-family="Times,serif" font-size="14.00">Temp0: T106</text>
</g>
<!-- ExpTemp0&#45;&gt;Temp0: T106 -->
<g id="edge45" class="edge"><title>ExpTemp0&#45;&gt;Temp0: T106</title>
<path fill="none" stroke="black" d="M169.893,-216.055C167.08,-208.176 163.665,-198.617 160.515,-189.794"/>
<polygon fill="black" stroke="black" points="163.774,-188.516 157.115,-180.275 157.182,-190.87 163.774,-188.516"/>
</g>
<!-- ExpBinary0 -->
<g id="node52" class="node"><title>ExpBinary0</title>
<ellipse fill="none" stroke="black" cx="281.945" cy="-162" rx="53.0913" ry="18"/>
<text text-anchor="middle" x="281.945" y="-158.3" font-family="Times,serif" font-size="14.00">ExpBinary0</text>
</g>
<!-- ExpBinary0&#45;&gt;ExpConst0 -->
<g id="edge49" class="edge"><title>ExpBinary0&#45;&gt;ExpConst0</title>
<path fill="none" stroke="black" d="M303.917,-145.465C317.726,-135.7 335.727,-122.972 350.855,-112.276"/>
<polygon fill="black" stroke="black" points="353.231,-114.882 359.376,-106.251 349.19,-109.167 353.231,-114.882"/>
</g>
<!-- ExpTemp1 -->
<g id="node53" class="node"><title>ExpTemp1</title>
<ellipse fill="none" stroke="black" cx="182.945" cy="-90" rx="50.0912" ry="18"/>
<text text-anchor="middle" x="182.945" y="-86.3" font-family="Times,serif" font-size="14.00">ExpTemp1</text>
</g>
<!-- ExpBinary0&#45;&gt;ExpTemp1 -->
<g id="edge47" class="edge"><title>ExpBinary0&#45;&gt;ExpTemp1</title>
<path fill="none" stroke="black" d="M259.974,-145.465C246.164,-135.7 228.163,-122.972 213.036,-112.276"/>
<polygon fill="black" stroke="black" points="214.7,-109.167 204.514,-106.251 210.659,-114.882 214.7,-109.167"/>
</g>
<!-- Plus0 -->
<g id="node54" class="node"><title>Plus0</title>
<ellipse fill="none" stroke="black" cx="281.945" cy="-90" rx="30.5947" ry="18"/>
<text text-anchor="middle" x="281.945" y="-86.3" font-family="Times,serif" font-size="14.00">Plus0</text>
</g>
<!-- ExpBinary0&#45;&gt;Plus0 -->
<g id="edge48" class="edge"><title>ExpBinary0&#45;&gt;Plus0</title>
<path fill="none" stroke="black" d="M281.945,-143.697C281.945,-135.983 281.945,-126.712 281.945,-118.112"/>
<polygon fill="black" stroke="black" points="285.445,-118.104 281.945,-108.104 278.445,-118.104 285.445,-118.104"/>
</g>
<!-- Temp1: $fp -->
<g id="node61" class="node"><title>Temp1: $fp</title>
<ellipse fill="none" stroke="black" cx="182.945" cy="-18" rx="52.7911" ry="18"/>
<text text-anchor="middle" x="182.945" y="-14.3" font-family="Times,serif" font-size="14.00">Temp1: $fp</text>
</g>
<!-- ExpTemp1&#45;&gt;Temp1: $fp -->
<g id="edge56" class="edge"><title>ExpTemp1&#45;&gt;Temp1: $fp</title>
<path fill="none" stroke="black" d="M182.945,-71.6966C182.945,-63.9827 182.945,-54.7125 182.945,-46.1124"/>
<polygon fill="black" stroke="black" points="186.445,-46.1043 182.945,-36.1043 179.445,-46.1044 186.445,-46.1043"/>
</g>
<!-- ExpMem0&#45;&gt;ExpBinary0 -->
<g id="edge62" class="edge"><title>ExpMem0&#45;&gt;ExpBinary0</title>
<path fill="none" stroke="black" d="M290.226,-215.697C289.014,-207.983 287.557,-198.712 286.206,-190.112"/>
<polygon fill="black" stroke="black" points="289.643,-189.44 284.633,-180.104 282.728,-190.526 289.643,-189.44"/>
</g>
<!-- Temp7: T105 -->
<g id="node60" class="node"><title>Temp7: T105</title>
<ellipse fill="none" stroke="black" cx="1278.95" cy="-162" rx="59.5901" ry="18"/>
<text text-anchor="middle" x="1278.95" y="-158.3" font-family="Times,serif" font-size="14.00">Temp7: T105</text>
</g>
<!-- ExpTemp7&#45;&gt;Temp7: T105 -->
<g id="edge55" class="edge"><title>ExpTemp7&#45;&gt;Temp7: T105</title>
<path fill="none" stroke="black" d="M1278.95,-215.697C1278.95,-207.983 1278.95,-198.712 1278.95,-190.112"/>
<polygon fill="black" stroke="black" points="1282.45,-190.104 1278.95,-180.104 1275.45,-190.104 1282.45,-190.104"/>
</g>
<!-- Temp5: T104 -->
<g id="node63" class="node"><title>Temp5: T104</title>
<ellipse fill="none" stroke="black" cx="1016.95" cy="-162" rx="59.5901" ry="18"/>
<text text-anchor="middle" x="1016.95" y="-158.3" font-family="Times,serif" font-size="14.00">Temp5: T104</text>
</g>
<!-- ExpTemp5&#45;&gt;Temp5: T104 -->
<g id="edge57" class="edge"><title>ExpTemp5&#45;&gt;Temp5: T104</title>
<path fill="none" stroke="black" d="M1016.95,-215.697C1016.95,-207.983 1016.95,-198.712 1016.95,-190.112"/>
<polygon fill="black" stroke="black" points="1020.45,-190.104 1016.95,-180.104 1013.45,-190.104 1020.45,-190.104"/>
</g>
</g>
</svg>
