<?xml version="1.0" encoding="UTF-8" standalone="no"?>
<!DOCTYPE svg PUBLIC "-//W3C//DTD SVG 1.1//EN"
 "http://www.w3.org/Graphics/SVG/1.1/DTD/svg11.dtd">
<!-- Generated by graphviz version 2.38.0 (20140413.2041)
 -->
<!-- Title: %3 Pages: 1 -->
<svg width="715pt" height="404pt"
 viewBox="0.00 0.00 714.69 404.00" xmlns="http://www.w3.org/2000/svg" xmlns:xlink="http://www.w3.org/1999/xlink">
<g id="graph0" class="graph" transform="scale(1 1) rotate(0) translate(4 400)">
<title>%3</title>
<polygon fill="white" stroke="none" points="-4,4 -4,-400 710.691,-400 710.691,4 -4,4"/>
<!-- Load0 -->
<g id="node1" class="node"><title>Load0</title>
<ellipse fill="none" stroke="black" cx="226.645" cy="-306" rx="33.2948" ry="18"/>
<text text-anchor="middle" x="226.645" y="-302.3" font-family="Times,serif" font-size="14.00">Load0</text>
</g>
<!-- Add0 -->
<g id="node2" class="node"><title>Add0</title>
<ellipse fill="none" stroke="black" cx="144.645" cy="-234" rx="30.5947" ry="18"/>
<text text-anchor="middle" x="144.645" y="-230.3" font-family="Times,serif" font-size="14.00">Add0</text>
</g>
<!-- Load0&#45;&gt;Add0 -->
<g id="edge1" class="edge"><title>Load0&#45;&gt;Add0</title>
<path fill="none" stroke="black" d="M209.655,-290.496C197.923,-280.481 182.141,-267.009 169.065,-255.846"/>
<polygon fill="black" stroke="black" points="171.212,-253.077 161.333,-249.246 166.667,-258.401 171.212,-253.077"/>
</g>
<!-- Value1: 0 -->
<g id="node3" class="node"><title>Value1: 0</title>
<ellipse fill="none" stroke="black" cx="238.645" cy="-234" rx="45.4919" ry="18"/>
<text text-anchor="middle" x="238.645" y="-230.3" font-family="Times,serif" font-size="14.00">Value1: 0</text>
</g>
<!-- Load0&#45;&gt;Value1: 0 -->
<g id="edge2" class="edge"><title>Load0&#45;&gt;Value1: 0</title>
<path fill="none" stroke="black" d="M229.55,-288.055C230.872,-280.346 232.469,-271.027 233.954,-262.364"/>
<polygon fill="black" stroke="black" points="237.444,-262.723 235.684,-252.275 230.544,-261.54 237.444,-262.723"/>
</g>
<!-- AddConst0 -->
<g id="node7" class="node"><title>AddConst0</title>
<ellipse fill="none" stroke="black" cx="167.645" cy="-162" rx="50.8918" ry="18"/>
<text text-anchor="middle" x="167.645" y="-158.3" font-family="Times,serif" font-size="14.00">AddConst0</text>
</g>
<!-- Add0&#45;&gt;AddConst0 -->
<g id="edge8" class="edge"><title>Add0&#45;&gt;AddConst0</title>
<path fill="none" stroke="black" d="M150.213,-216.055C152.802,-208.176 155.943,-198.617 158.842,-189.794"/>
<polygon fill="black" stroke="black" points="162.173,-190.868 161.969,-180.275 155.522,-188.683 162.173,-190.868"/>
</g>
<!-- Temp0 -->
<g id="node10" class="node"><title>Temp0</title>
<ellipse fill="none" stroke="black" cx="57.6453" cy="-162" rx="36.2938" ry="18"/>
<text text-anchor="middle" x="57.6453" y="-158.3" font-family="Times,serif" font-size="14.00">Temp0</text>
</g>
<!-- Add0&#45;&gt;Temp0 -->
<g id="edge7" class="edge"><title>Add0&#45;&gt;Temp0</title>
<path fill="none" stroke="black" d="M127.04,-218.834C114.588,-208.816 97.6856,-195.216 83.6799,-183.947"/>
<polygon fill="black" stroke="black" points="85.8091,-181.168 75.8238,-177.626 81.4209,-186.622 85.8091,-181.168"/>
</g>
<!-- Mult0 -->
<g id="node4" class="node"><title>Mult0</title>
<ellipse fill="none" stroke="black" cx="428.645" cy="-306" rx="32.4942" ry="18"/>
<text text-anchor="middle" x="428.645" y="-302.3" font-family="Times,serif" font-size="14.00">Mult0</text>
</g>
<!-- AddConst1 -->
<g id="node5" class="node"><title>AddConst1</title>
<ellipse fill="none" stroke="black" cx="417.645" cy="-234" rx="50.8918" ry="18"/>
<text text-anchor="middle" x="417.645" y="-230.3" font-family="Times,serif" font-size="14.00">AddConst1</text>
</g>
<!-- Mult0&#45;&gt;AddConst1 -->
<g id="edge3" class="edge"><title>Mult0&#45;&gt;AddConst1</title>
<path fill="none" stroke="black" d="M425.983,-288.055C424.771,-280.346 423.307,-271.027 421.945,-262.364"/>
<polygon fill="black" stroke="black" points="425.37,-261.611 420.36,-252.275 418.455,-262.697 425.37,-261.611"/>
</g>
<!-- Load1 -->
<g id="node6" class="node"><title>Load1</title>
<ellipse fill="none" stroke="black" cx="519.645" cy="-234" rx="33.2948" ry="18"/>
<text text-anchor="middle" x="519.645" y="-230.3" font-family="Times,serif" font-size="14.00">Load1</text>
</g>
<!-- Mult0&#45;&gt;Load1 -->
<g id="edge4" class="edge"><title>Mult0&#45;&gt;Load1</title>
<path fill="none" stroke="black" d="M447.061,-290.834C460.258,-280.682 478.236,-266.853 492.998,-255.498"/>
<polygon fill="black" stroke="black" points="495.465,-258.016 501.258,-249.144 491.197,-252.467 495.465,-258.016"/>
</g>
<!-- NullExp1 -->
<g id="node15" class="node"><title>NullExp1</title>
<ellipse fill="none" stroke="black" cx="311.645" cy="-162" rx="44.6926" ry="18"/>
<text text-anchor="middle" x="311.645" y="-158.3" font-family="Times,serif" font-size="14.00">NullExp1</text>
</g>
<!-- AddConst1&#45;&gt;NullExp1 -->
<g id="edge12" class="edge"><title>AddConst1&#45;&gt;NullExp1</title>
<path fill="none" stroke="black" d="M394.645,-217.811C379.297,-207.676 358.944,-194.235 342.235,-183.201"/>
<polygon fill="black" stroke="black" points="344.148,-180.27 333.874,-177.68 340.29,-186.111 344.148,-180.27"/>
</g>
<!-- Value3: 2 -->
<g id="node16" class="node"><title>Value3: 2</title>
<ellipse fill="none" stroke="black" cx="419.645" cy="-162" rx="45.4919" ry="18"/>
<text text-anchor="middle" x="419.645" y="-158.3" font-family="Times,serif" font-size="14.00">Value3: 2</text>
</g>
<!-- AddConst1&#45;&gt;Value3: 2 -->
<g id="edge13" class="edge"><title>AddConst1&#45;&gt;Value3: 2</title>
<path fill="none" stroke="black" d="M418.14,-215.697C418.36,-207.983 418.625,-198.712 418.871,-190.112"/>
<polygon fill="black" stroke="black" points="422.37,-190.2 419.157,-180.104 415.372,-190 422.37,-190.2"/>
</g>
<!-- Add1 -->
<g id="node17" class="node"><title>Add1</title>
<ellipse fill="none" stroke="black" cx="517.645" cy="-162" rx="30.5947" ry="18"/>
<text text-anchor="middle" x="517.645" y="-158.3" font-family="Times,serif" font-size="14.00">Add1</text>
</g>
<!-- Load1&#45;&gt;Add1 -->
<g id="edge14" class="edge"><title>Load1&#45;&gt;Add1</title>
<path fill="none" stroke="black" d="M519.151,-215.697C518.931,-207.983 518.666,-198.712 518.42,-190.112"/>
<polygon fill="black" stroke="black" points="521.918,-190 518.134,-180.104 514.921,-190.2 521.918,-190"/>
</g>
<!-- Value5: 0 -->
<g id="node18" class="node"><title>Value5: 0</title>
<ellipse fill="none" stroke="black" cx="611.645" cy="-162" rx="45.4919" ry="18"/>
<text text-anchor="middle" x="611.645" y="-158.3" font-family="Times,serif" font-size="14.00">Value5: 0</text>
</g>
<!-- Load1&#45;&gt;Value5: 0 -->
<g id="edge15" class="edge"><title>Load1&#45;&gt;Value5: 0</title>
<path fill="none" stroke="black" d="M538.263,-218.834C551.167,-209.016 568.591,-195.759 583.222,-184.626"/>
<polygon fill="black" stroke="black" points="585.62,-187.2 591.459,-178.359 581.381,-181.629 585.62,-187.2"/>
</g>
<!-- NullExp0 -->
<g id="node8" class="node"><title>NullExp0</title>
<ellipse fill="none" stroke="black" cx="167.645" cy="-90" rx="44.6926" ry="18"/>
<text text-anchor="middle" x="167.645" y="-86.3" font-family="Times,serif" font-size="14.00">NullExp0</text>
</g>
<!-- AddConst0&#45;&gt;NullExp0 -->
<g id="edge5" class="edge"><title>AddConst0&#45;&gt;NullExp0</title>
<path fill="none" stroke="black" d="M167.645,-143.697C167.645,-135.983 167.645,-126.712 167.645,-118.112"/>
<polygon fill="black" stroke="black" points="171.145,-118.104 167.645,-108.104 164.145,-118.104 171.145,-118.104"/>
</g>
<!-- Value0: 12 -->
<g id="node9" class="node"><title>Value0: 12</title>
<ellipse fill="none" stroke="black" cx="280.645" cy="-90" rx="50.0912" ry="18"/>
<text text-anchor="middle" x="280.645" y="-86.3" font-family="Times,serif" font-size="14.00">Value0: 12</text>
</g>
<!-- AddConst0&#45;&gt;Value0: 12 -->
<g id="edge6" class="edge"><title>AddConst0&#45;&gt;Value0: 12</title>
<path fill="none" stroke="black" d="M191.887,-145.983C208.122,-135.926 229.703,-122.557 247.519,-111.521"/>
<polygon fill="black" stroke="black" points="249.786,-114.233 256.444,-105.992 246.1,-108.283 249.786,-114.233"/>
</g>
<!-- Temp1: $fp -->
<g id="node14" class="node"><title>Temp1: $fp</title>
<ellipse fill="none" stroke="black" cx="52.6453" cy="-90" rx="52.7911" ry="18"/>
<text text-anchor="middle" x="52.6453" y="-86.3" font-family="Times,serif" font-size="14.00">Temp1: $fp</text>
</g>
<!-- Temp0&#45;&gt;Temp1: $fp -->
<g id="edge11" class="edge"><title>Temp0&#45;&gt;Temp1: $fp</title>
<path fill="none" stroke="black" d="M56.4094,-143.697C55.8584,-135.983 55.1962,-126.712 54.5819,-118.112"/>
<polygon fill="black" stroke="black" points="58.0707,-117.83 53.8671,-108.104 51.0885,-118.328 58.0707,-117.83"/>
</g>
<!-- AddConst2 -->
<g id="node11" class="node"><title>AddConst2</title>
<ellipse fill="none" stroke="black" cx="543.645" cy="-90" rx="50.8918" ry="18"/>
<text text-anchor="middle" x="543.645" y="-86.3" font-family="Times,serif" font-size="14.00">AddConst2</text>
</g>
<!-- NullExp2 -->
<g id="node12" class="node"><title>NullExp2</title>
<ellipse fill="none" stroke="black" cx="543.645" cy="-18" rx="44.6926" ry="18"/>
<text text-anchor="middle" x="543.645" y="-14.3" font-family="Times,serif" font-size="14.00">NullExp2</text>
</g>
<!-- AddConst2&#45;&gt;NullExp2 -->
<g id="edge9" class="edge"><title>AddConst2&#45;&gt;NullExp2</title>
<path fill="none" stroke="black" d="M543.645,-71.6966C543.645,-63.9827 543.645,-54.7125 543.645,-46.1124"/>
<polygon fill="black" stroke="black" points="547.145,-46.1043 543.645,-36.1043 540.145,-46.1044 547.145,-46.1043"/>
</g>
<!-- Value4: 24 -->
<g id="node13" class="node"><title>Value4: 24</title>
<ellipse fill="none" stroke="black" cx="656.645" cy="-18" rx="50.0912" ry="18"/>
<text text-anchor="middle" x="656.645" y="-14.3" font-family="Times,serif" font-size="14.00">Value4: 24</text>
</g>
<!-- AddConst2&#45;&gt;Value4: 24 -->
<g id="edge10" class="edge"><title>AddConst2&#45;&gt;Value4: 24</title>
<path fill="none" stroke="black" d="M567.887,-73.9832C584.122,-63.9257 605.703,-50.5573 623.519,-39.5209"/>
<polygon fill="black" stroke="black" points="625.786,-42.2335 632.444,-33.9919 622.1,-36.2827 625.786,-42.2335"/>
</g>
<!-- Add1&#45;&gt;AddConst2 -->
<g id="edge22" class="edge"><title>Add1&#45;&gt;AddConst2</title>
<path fill="none" stroke="black" d="M523.939,-144.055C526.866,-136.176 530.416,-126.617 533.693,-117.794"/>
<polygon fill="black" stroke="black" points="537.028,-118.868 537.229,-108.275 530.466,-116.431 537.028,-118.868"/>
</g>
<!-- Temp2 -->
<g id="node19" class="node"><title>Temp2</title>
<ellipse fill="none" stroke="black" cx="433.645" cy="-90" rx="36.2938" ry="18"/>
<text text-anchor="middle" x="433.645" y="-86.3" font-family="Times,serif" font-size="14.00">Temp2</text>
</g>
<!-- Add1&#45;&gt;Temp2 -->
<g id="edge21" class="edge"><title>Add1&#45;&gt;Temp2</title>
<path fill="none" stroke="black" d="M500.647,-146.834C488.816,-136.976 472.824,-123.649 459.431,-112.488"/>
<polygon fill="black" stroke="black" points="461.411,-109.582 451.488,-105.869 456.93,-114.96 461.411,-109.582"/>
</g>
<!-- Temp3: $fp -->
<g id="node20" class="node"><title>Temp3: $fp</title>
<ellipse fill="none" stroke="black" cx="428.645" cy="-18" rx="52.7911" ry="18"/>
<text text-anchor="middle" x="428.645" y="-14.3" font-family="Times,serif" font-size="14.00">Temp3: $fp</text>
</g>
<!-- Temp2&#45;&gt;Temp3: $fp -->
<g id="edge16" class="edge"><title>Temp2&#45;&gt;Temp3: $fp</title>
<path fill="none" stroke="black" d="M432.409,-71.6966C431.858,-63.9827 431.196,-54.7125 430.582,-46.1124"/>
<polygon fill="black" stroke="black" points="434.071,-45.8295 429.867,-36.1043 427.089,-46.3283 434.071,-45.8295"/>
</g>
<!-- Store0 -->
<g id="node21" class="node"><title>Store0</title>
<ellipse fill="none" stroke="black" cx="327.645" cy="-378" rx="33.5952" ry="18"/>
<text text-anchor="middle" x="327.645" y="-374.3" font-family="Times,serif" font-size="14.00">Store0</text>
</g>
<!-- Store0&#45;&gt;Load0 -->
<g id="edge17" class="edge"><title>Store0&#45;&gt;Load0</title>
<path fill="none" stroke="black" d="M307.691,-363.17C292.515,-352.652 271.443,-338.048 254.59,-326.367"/>
<polygon fill="black" stroke="black" points="256.427,-323.383 246.215,-320.563 252.44,-329.136 256.427,-323.383"/>
</g>
<!-- Store0&#45;&gt;Mult0 -->
<g id="edge19" class="edge"><title>Store0&#45;&gt;Mult0</title>
<path fill="none" stroke="black" d="M347.6,-363.17C362.776,-352.652 383.848,-338.048 400.701,-326.367"/>
<polygon fill="black" stroke="black" points="402.851,-329.136 409.076,-320.563 398.863,-323.383 402.851,-329.136"/>
</g>
<!-- Value2: 12 -->
<g id="node22" class="node"><title>Value2: 12</title>
<ellipse fill="none" stroke="black" cx="327.645" cy="-306" rx="50.0912" ry="18"/>
<text text-anchor="middle" x="327.645" y="-302.3" font-family="Times,serif" font-size="14.00">Value2: 12</text>
</g>
<!-- Store0&#45;&gt;Value2: 12 -->
<g id="edge18" class="edge"><title>Store0&#45;&gt;Value2: 12</title>
<path fill="none" stroke="black" d="M321.767,-360.055C320.949,-352.346 320.707,-343.027 321.04,-334.364"/>
<polygon fill="black" stroke="black" points="324.54,-334.491 321.733,-324.275 317.556,-334.012 324.54,-334.491"/>
</g>
<!-- Store0&#45;&gt;Value2: 12 -->
<g id="edge20" class="edge"><title>Store0&#45;&gt;Value2: 12</title>
<path fill="none" stroke="black" d="M333.524,-360.055C334.342,-352.346 334.584,-343.027 334.25,-334.364"/>
<polygon fill="black" stroke="black" points="337.735,-334.012 333.558,-324.275 330.751,-334.491 337.735,-334.012"/>
</g>
</g>
</svg>
