<?xml version="1.0" encoding="UTF-8" standalone="no"?>
<!DOCTYPE svg PUBLIC "-//W3C//DTD SVG 1.1//EN"
 "http://www.w3.org/Graphics/SVG/1.1/DTD/svg11.dtd">
<!-- Generated by graphviz version 2.38.0 (20140413.2041)
 -->
<!-- Title: %3 Pages: 1 -->
<svg width="577pt" height="260pt"
 viewBox="0.00 0.00 577.49 260.00" xmlns="http://www.w3.org/2000/svg" xmlns:xlink="http://www.w3.org/1999/xlink">
<g id="graph0" class="graph" transform="scale(1 1) rotate(0) translate(4 256)">
<title>%3</title>
<polygon fill="white" stroke="none" points="-4,4 -4,-256 573.49,-256 573.49,4 -4,4"/>
<!-- Temp0 -->
<g id="node1" class="node"><title>Temp0</title>
<ellipse fill="none" stroke="black" cx="183.245" cy="-162" rx="36.2938" ry="18"/>
<text text-anchor="middle" x="183.245" y="-158.3" font-family="Times,serif" font-size="14.00">Temp0</text>
</g>
<!-- Temp1: T72 -->
<g id="node2" class="node"><title>Temp1: T72</title>
<ellipse fill="none" stroke="black" cx="55.2451" cy="-90" rx="55.4913" ry="18"/>
<text text-anchor="middle" x="55.2451" y="-86.3" font-family="Times,serif" font-size="14.00">Temp1: T72</text>
</g>
<!-- Temp0&#45;&gt;Temp1: T72 -->
<g id="edge1" class="edge"><title>Temp0&#45;&gt;Temp1: T72</title>
<path fill="none" stroke="black" d="M159.768,-148.161C140.696,-137.731 113.469,-122.841 91.5844,-110.873"/>
<polygon fill="black" stroke="black" points="93.0249,-107.672 82.5718,-105.944 89.6662,-113.813 93.0249,-107.672"/>
</g>
<!-- Temp2 -->
<g id="node3" class="node"><title>Temp2</title>
<ellipse fill="none" stroke="black" cx="396.245" cy="-90" rx="36.2938" ry="18"/>
<text text-anchor="middle" x="396.245" y="-86.3" font-family="Times,serif" font-size="14.00">Temp2</text>
</g>
<!-- Temp3: T70 -->
<g id="node4" class="node"><title>Temp3: T70</title>
<ellipse fill="none" stroke="black" cx="386.245" cy="-18" rx="55.4913" ry="18"/>
<text text-anchor="middle" x="386.245" y="-14.3" font-family="Times,serif" font-size="14.00">Temp3: T70</text>
</g>
<!-- Temp2&#45;&gt;Temp3: T70 -->
<g id="edge2" class="edge"><title>Temp2&#45;&gt;Temp3: T70</title>
<path fill="none" stroke="black" d="M393.773,-71.6966C392.671,-63.9827 391.347,-54.7125 390.118,-46.1124"/>
<polygon fill="black" stroke="black" points="393.568,-45.5088 388.689,-36.1043 386.638,-46.4988 393.568,-45.5088"/>
</g>
<!-- MoveRegister0 -->
<g id="node5" class="node"><title>MoveRegister0</title>
<ellipse fill="none" stroke="black" cx="249.245" cy="-234" rx="65.7887" ry="18"/>
<text text-anchor="middle" x="249.245" y="-230.3" font-family="Times,serif" font-size="14.00">MoveRegister0</text>
</g>
<!-- MoveRegister0&#45;&gt;Temp0 -->
<g id="edge3" class="edge"><title>MoveRegister0&#45;&gt;Temp0</title>
<path fill="none" stroke="black" d="M233.604,-216.411C225.062,-207.351 214.35,-195.99 205.004,-186.078"/>
<polygon fill="black" stroke="black" points="207.276,-183.386 197.87,-178.511 202.183,-188.188 207.276,-183.386"/>
</g>
<!-- Call0 -->
<g id="node6" class="node"><title>Call0</title>
<ellipse fill="none" stroke="black" cx="315.245" cy="-162" rx="29.795" ry="18"/>
<text text-anchor="middle" x="315.245" y="-158.3" font-family="Times,serif" font-size="14.00">Call0</text>
</g>
<!-- MoveRegister0&#45;&gt;Call0 -->
<g id="edge4" class="edge"><title>MoveRegister0&#45;&gt;Call0</title>
<path fill="none" stroke="black" d="M264.886,-216.411C273.635,-207.132 284.658,-195.441 294.16,-185.363"/>
<polygon fill="black" stroke="black" points="296.753,-187.715 301.066,-178.038 291.659,-182.913 296.753,-187.715"/>
</g>
<!-- Call0&#45;&gt;Temp2 -->
<g id="edge7" class="edge"><title>Call0&#45;&gt;Temp2</title>
<path fill="none" stroke="black" d="M331.637,-146.834C343.045,-136.976 358.465,-123.649 371.38,-112.488"/>
<polygon fill="black" stroke="black" points="373.762,-115.056 379.039,-105.869 369.185,-109.76 373.762,-115.056"/>
</g>
<!-- Temp4 -->
<g id="node7" class="node"><title>Temp4</title>
<ellipse fill="none" stroke="black" cx="505.245" cy="-90" rx="36.2938" ry="18"/>
<text text-anchor="middle" x="505.245" y="-86.3" font-family="Times,serif" font-size="14.00">Temp4</text>
</g>
<!-- Call0&#45;&gt;Temp4 -->
<g id="edge8" class="edge"><title>Call0&#45;&gt;Temp4</title>
<path fill="none" stroke="black" d="M340.084,-151.849C372.495,-139.908 429.522,-118.898 467.347,-104.963"/>
<polygon fill="black" stroke="black" points="468.822,-108.149 476.996,-101.408 466.402,-101.581 468.822,-108.149"/>
</g>
<!-- Function0: Tree@RecPrint -->
<g id="node9" class="node"><title>Function0: Tree@RecPrint</title>
<ellipse fill="none" stroke="black" cx="235.245" cy="-90" rx="106.681" ry="18"/>
<text text-anchor="middle" x="235.245" y="-86.3" font-family="Times,serif" font-size="14.00">Function0: Tree@RecPrint</text>
</g>
<!-- Call0&#45;&gt;Function0: Tree@RecPrint -->
<g id="edge6" class="edge"><title>Call0&#45;&gt;Function0: Tree@RecPrint</title>
<path fill="none" stroke="black" d="M299.056,-146.834C288.494,-137.593 274.45,-125.305 262.227,-114.609"/>
<polygon fill="black" stroke="black" points="264.343,-111.81 254.512,-107.859 259.733,-117.078 264.343,-111.81"/>
</g>
<!-- Temp5: T71 -->
<g id="node8" class="node"><title>Temp5: T71</title>
<ellipse fill="none" stroke="black" cx="514.245" cy="-18" rx="55.4913" ry="18"/>
<text text-anchor="middle" x="514.245" y="-14.3" font-family="Times,serif" font-size="14.00">Temp5: T71</text>
</g>
<!-- Temp4&#45;&gt;Temp5: T71 -->
<g id="edge5" class="edge"><title>Temp4&#45;&gt;Temp5: T71</title>
<path fill="none" stroke="black" d="M507.47,-71.6966C508.462,-63.9827 509.653,-54.7125 510.759,-46.1124"/>
<polygon fill="black" stroke="black" points="514.242,-46.469 512.046,-36.1043 507.299,-45.5763 514.242,-46.469"/>
</g>
</g>
</svg>
