<?xml version="1.0" encoding="UTF-8" standalone="no"?>
<!DOCTYPE svg PUBLIC "-//W3C//DTD SVG 1.1//EN"
 "http://www.w3.org/Graphics/SVG/1.1/DTD/svg11.dtd">
<!-- Generated by graphviz version 2.38.0 (20140413.2041)
 -->
<!-- Title: %3 Pages: 1 -->
<svg width="3285pt" height="404pt"
 viewBox="0.00 0.00 3285.34 404.00" xmlns="http://www.w3.org/2000/svg" xmlns:xlink="http://www.w3.org/1999/xlink">
<g id="graph0" class="graph" transform="scale(1 1) rotate(0) translate(4 400)">
<title>%3</title>
<polygon fill="white" stroke="none" points="-4,4 -4,-400 3281.34,-400 3281.34,4 -4,4"/>
<!-- StatExp0 -->
<g id="node1" class="node"><title>StatExp0</title>
<ellipse fill="none" stroke="black" cx="3054.64" cy="-306" rx="42.7926" ry="18"/>
<text text-anchor="middle" x="3054.64" y="-302.3" font-family="Times,serif" font-size="14.00">StatExp0</text>
</g>
<!-- ExpTemp17 -->
<g id="node2" class="node"><title>ExpTemp17</title>
<ellipse fill="none" stroke="black" cx="3153.64" cy="-234" rx="54.6905" ry="18"/>
<text text-anchor="middle" x="3153.64" y="-230.3" font-family="Times,serif" font-size="14.00">ExpTemp17</text>
</g>
<!-- StatExp0&#45;&gt;ExpTemp17 -->
<g id="edge1" class="edge"><title>StatExp0&#45;&gt;ExpTemp17</title>
<path fill="none" stroke="black" d="M3075.64,-290.155C3089.52,-280.335 3107.95,-267.304 3123.41,-256.374"/>
<polygon fill="black" stroke="black" points="3125.5,-259.183 3131.65,-250.552 3121.46,-253.467 3125.5,-259.183"/>
</g>
<!-- Temp17: T227 -->
<g id="node20" class="node"><title>Temp17: T227</title>
<ellipse fill="none" stroke="black" cx="3213.64" cy="-162" rx="63.8893" ry="18"/>
<text text-anchor="middle" x="3213.64" y="-158.3" font-family="Times,serif" font-size="14.00">Temp17: T227</text>
</g>
<!-- ExpTemp17&#45;&gt;Temp17: T227 -->
<g id="edge15" class="edge"><title>ExpTemp17&#45;&gt;Temp17: T227</title>
<path fill="none" stroke="black" d="M3167.86,-216.411C3175.22,-207.82 3184.36,-197.159 3192.53,-187.627"/>
<polygon fill="black" stroke="black" points="3195.26,-189.827 3199.11,-179.956 3189.94,-185.271 3195.26,-189.827"/>
</g>
<!-- ExpList2 -->
<g id="node3" class="node"><title>ExpList2</title>
<ellipse fill="none" stroke="black" cx="3088.64" cy="-162" rx="42.7926" ry="18"/>
<text text-anchor="middle" x="3088.64" y="-158.3" font-family="Times,serif" font-size="14.00">ExpList2</text>
</g>
<!-- ExpTemp16 -->
<g id="node4" class="node"><title>ExpTemp16</title>
<ellipse fill="none" stroke="black" cx="3096.64" cy="-90" rx="54.6905" ry="18"/>
<text text-anchor="middle" x="3096.64" y="-86.3" font-family="Times,serif" font-size="14.00">ExpTemp16</text>
</g>
<!-- ExpList2&#45;&gt;ExpTemp16 -->
<g id="edge2" class="edge"><title>ExpList2&#45;&gt;ExpTemp16</title>
<path fill="none" stroke="black" d="M3090.62,-143.697C3091.5,-135.983 3092.56,-126.712 3093.54,-118.112"/>
<polygon fill="black" stroke="black" points="3097.03,-118.437 3094.69,-108.104 3090.07,-117.642 3097.03,-118.437"/>
</g>
<!-- Temp16: T232 -->
<g id="node9" class="node"><title>Temp16: T232</title>
<ellipse fill="none" stroke="black" cx="3096.64" cy="-18" rx="63.8893" ry="18"/>
<text text-anchor="middle" x="3096.64" y="-14.3" font-family="Times,serif" font-size="14.00">Temp16: T232</text>
</g>
<!-- ExpTemp16&#45;&gt;Temp16: T232 -->
<g id="edge7" class="edge"><title>ExpTemp16&#45;&gt;Temp16: T232</title>
<path fill="none" stroke="black" d="M3096.64,-71.6966C3096.64,-63.9827 3096.64,-54.7125 3096.64,-46.1124"/>
<polygon fill="black" stroke="black" points="3100.14,-46.1043 3096.64,-36.1043 3093.14,-46.1044 3100.14,-46.1043"/>
</g>
<!-- ExpCall2 -->
<g id="node5" class="node"><title>ExpCall2</title>
<ellipse fill="none" stroke="black" cx="2976.64" cy="-234" rx="44.393" ry="18"/>
<text text-anchor="middle" x="2976.64" y="-230.3" font-family="Times,serif" font-size="14.00">ExpCall2</text>
</g>
<!-- ExpCall2&#45;&gt;ExpList2 -->
<g id="edge4" class="edge"><title>ExpCall2&#45;&gt;ExpList2</title>
<path fill="none" stroke="black" d="M2999.85,-218.496C3016.37,-208.172 3038.76,-194.174 3056.93,-182.819"/>
<polygon fill="black" stroke="black" points="3058.84,-185.753 3065.46,-177.485 3055.13,-179.818 3058.84,-185.753"/>
</g>
<!-- ExpName2 -->
<g id="node6" class="node"><title>ExpName2</title>
<ellipse fill="none" stroke="black" cx="2976.64" cy="-162" rx="50.8918" ry="18"/>
<text text-anchor="middle" x="2976.64" y="-158.3" font-family="Times,serif" font-size="14.00">ExpName2</text>
</g>
<!-- ExpCall2&#45;&gt;ExpName2 -->
<g id="edge3" class="edge"><title>ExpCall2&#45;&gt;ExpName2</title>
<path fill="none" stroke="black" d="M2976.64,-215.697C2976.64,-207.983 2976.64,-198.712 2976.64,-190.112"/>
<polygon fill="black" stroke="black" points="2980.14,-190.104 2976.64,-180.104 2973.14,-190.104 2980.14,-190.104"/>
</g>
<!-- Label3: print -->
<g id="node47" class="node"><title>Label3: print</title>
<ellipse fill="none" stroke="black" cx="2967.64" cy="-90" rx="56.59" ry="18"/>
<text text-anchor="middle" x="2967.64" y="-86.3" font-family="Times,serif" font-size="14.00">Label3: print</text>
</g>
<!-- ExpName2&#45;&gt;Label3: print -->
<g id="edge41" class="edge"><title>ExpName2&#45;&gt;Label3: print</title>
<path fill="none" stroke="black" d="M2974.42,-143.697C2973.42,-135.983 2972.23,-126.712 2971.13,-118.112"/>
<polygon fill="black" stroke="black" points="2974.59,-117.576 2969.84,-108.104 2967.64,-118.469 2974.59,-117.576"/>
</g>
<!-- StatMove8 -->
<g id="node7" class="node"><title>StatMove8</title>
<ellipse fill="none" stroke="black" cx="2844.64" cy="-306" rx="50.0912" ry="18"/>
<text text-anchor="middle" x="2844.64" y="-302.3" font-family="Times,serif" font-size="14.00">StatMove8</text>
</g>
<!-- StatMove8&#45;&gt;ExpCall2 -->
<g id="edge6" class="edge"><title>StatMove8&#45;&gt;ExpCall2</title>
<path fill="none" stroke="black" d="M2871.67,-290.666C2891.87,-279.956 2919.65,-265.224 2941.56,-253.606"/>
<polygon fill="black" stroke="black" points="2943.35,-256.615 2950.55,-248.838 2940.07,-250.431 2943.35,-256.615"/>
</g>
<!-- ExpTemp15 -->
<g id="node8" class="node"><title>ExpTemp15</title>
<ellipse fill="none" stroke="black" cx="2844.64" cy="-234" rx="54.6905" ry="18"/>
<text text-anchor="middle" x="2844.64" y="-230.3" font-family="Times,serif" font-size="14.00">ExpTemp15</text>
</g>
<!-- StatMove8&#45;&gt;ExpTemp15 -->
<g id="edge5" class="edge"><title>StatMove8&#45;&gt;ExpTemp15</title>
<path fill="none" stroke="black" d="M2844.64,-287.697C2844.64,-279.983 2844.64,-270.712 2844.64,-262.112"/>
<polygon fill="black" stroke="black" points="2848.14,-262.104 2844.64,-252.104 2841.14,-262.104 2848.14,-262.104"/>
</g>
<!-- Temp15: T233 -->
<g id="node67" class="node"><title>Temp15: T233</title>
<ellipse fill="none" stroke="black" cx="2844.64" cy="-162" rx="63.8893" ry="18"/>
<text text-anchor="middle" x="2844.64" y="-158.3" font-family="Times,serif" font-size="14.00">Temp15: T233</text>
</g>
<!-- ExpTemp15&#45;&gt;Temp15: T233 -->
<g id="edge65" class="edge"><title>ExpTemp15&#45;&gt;Temp15: T233</title>
<path fill="none" stroke="black" d="M2844.64,-215.697C2844.64,-207.983 2844.64,-198.712 2844.64,-190.112"/>
<polygon fill="black" stroke="black" points="2848.14,-190.104 2844.64,-180.104 2841.14,-190.104 2848.14,-190.104"/>
</g>
<!-- ExpTemp13 -->
<g id="node10" class="node"><title>ExpTemp13</title>
<ellipse fill="none" stroke="black" cx="2554.64" cy="-234" rx="54.6905" ry="18"/>
<text text-anchor="middle" x="2554.64" y="-230.3" font-family="Times,serif" font-size="14.00">ExpTemp13</text>
</g>
<!-- Temp13: T232 -->
<g id="node11" class="node"><title>Temp13: T232</title>
<ellipse fill="none" stroke="black" cx="2554.64" cy="-162" rx="63.8893" ry="18"/>
<text text-anchor="middle" x="2554.64" y="-158.3" font-family="Times,serif" font-size="14.00">Temp13: T232</text>
</g>
<!-- ExpTemp13&#45;&gt;Temp13: T232 -->
<g id="edge8" class="edge"><title>ExpTemp13&#45;&gt;Temp13: T232</title>
<path fill="none" stroke="black" d="M2554.64,-215.697C2554.64,-207.983 2554.64,-198.712 2554.64,-190.112"/>
<polygon fill="black" stroke="black" points="2558.14,-190.104 2554.64,-180.104 2551.14,-190.104 2558.14,-190.104"/>
</g>
<!-- ExpCall1 -->
<g id="node12" class="node"><title>ExpCall1</title>
<ellipse fill="none" stroke="black" cx="2317.64" cy="-234" rx="44.393" ry="18"/>
<text text-anchor="middle" x="2317.64" y="-230.3" font-family="Times,serif" font-size="14.00">ExpCall1</text>
</g>
<!-- ExpName1 -->
<g id="node13" class="node"><title>ExpName1</title>
<ellipse fill="none" stroke="black" cx="2317.64" cy="-162" rx="50.8918" ry="18"/>
<text text-anchor="middle" x="2317.64" y="-158.3" font-family="Times,serif" font-size="14.00">ExpName1</text>
</g>
<!-- ExpCall1&#45;&gt;ExpName1 -->
<g id="edge9" class="edge"><title>ExpCall1&#45;&gt;ExpName1</title>
<path fill="none" stroke="black" d="M2317.64,-215.697C2317.64,-207.983 2317.64,-198.712 2317.64,-190.112"/>
<polygon fill="black" stroke="black" points="2321.14,-190.104 2317.64,-180.104 2314.14,-190.104 2321.14,-190.104"/>
</g>
<!-- ExpList1 -->
<g id="node14" class="node"><title>ExpList1</title>
<ellipse fill="none" stroke="black" cx="2429.64" cy="-162" rx="42.7926" ry="18"/>
<text text-anchor="middle" x="2429.64" y="-158.3" font-family="Times,serif" font-size="14.00">ExpList1</text>
</g>
<!-- ExpCall1&#45;&gt;ExpList1 -->
<g id="edge10" class="edge"><title>ExpCall1&#45;&gt;ExpList1</title>
<path fill="none" stroke="black" d="M2340.85,-218.496C2357.37,-208.172 2379.76,-194.174 2397.93,-182.819"/>
<polygon fill="black" stroke="black" points="2399.84,-185.753 2406.46,-177.485 2396.13,-179.818 2399.84,-185.753"/>
</g>
<!-- Label2: LL@Start -->
<g id="node15" class="node"><title>Label2: LL@Start</title>
<ellipse fill="none" stroke="black" cx="2299.64" cy="-90" rx="75.2868" ry="18"/>
<text text-anchor="middle" x="2299.64" y="-86.3" font-family="Times,serif" font-size="14.00">Label2: LL@Start</text>
</g>
<!-- ExpName1&#45;&gt;Label2: LL@Start -->
<g id="edge11" class="edge"><title>ExpName1&#45;&gt;Label2: LL@Start</title>
<path fill="none" stroke="black" d="M2313.28,-144.055C2311.28,-136.261 2308.85,-126.822 2306.6,-118.079"/>
<polygon fill="black" stroke="black" points="2309.96,-117.089 2304.08,-108.275 2303.18,-118.832 2309.96,-117.089"/>
</g>
<!-- ExpTemp12 -->
<g id="node58" class="node"><title>ExpTemp12</title>
<ellipse fill="none" stroke="black" cx="2447.64" cy="-90" rx="54.6905" ry="18"/>
<text text-anchor="middle" x="2447.64" y="-86.3" font-family="Times,serif" font-size="14.00">ExpTemp12</text>
</g>
<!-- ExpList1&#45;&gt;ExpTemp12 -->
<g id="edge59" class="edge"><title>ExpList1&#45;&gt;ExpTemp12</title>
<path fill="none" stroke="black" d="M2434,-144.055C2436,-136.261 2438.43,-126.822 2440.68,-118.079"/>
<polygon fill="black" stroke="black" points="2444.1,-118.832 2443.2,-108.275 2437.32,-117.089 2444.1,-118.832"/>
</g>
<!-- StatMove6 -->
<g id="node16" class="node"><title>StatMove6</title>
<ellipse fill="none" stroke="black" cx="2185.64" cy="-306" rx="50.0912" ry="18"/>
<text text-anchor="middle" x="2185.64" y="-302.3" font-family="Times,serif" font-size="14.00">StatMove6</text>
</g>
<!-- StatMove6&#45;&gt;ExpCall1 -->
<g id="edge13" class="edge"><title>StatMove6&#45;&gt;ExpCall1</title>
<path fill="none" stroke="black" d="M2212.67,-290.666C2232.87,-279.956 2260.65,-265.224 2282.56,-253.606"/>
<polygon fill="black" stroke="black" points="2284.35,-256.615 2291.55,-248.838 2281.07,-250.431 2284.35,-256.615"/>
</g>
<!-- ExpTemp11 -->
<g id="node17" class="node"><title>ExpTemp11</title>
<ellipse fill="none" stroke="black" cx="2185.64" cy="-234" rx="54.6905" ry="18"/>
<text text-anchor="middle" x="2185.64" y="-230.3" font-family="Times,serif" font-size="14.00">ExpTemp11</text>
</g>
<!-- StatMove6&#45;&gt;ExpTemp11 -->
<g id="edge12" class="edge"><title>StatMove6&#45;&gt;ExpTemp11</title>
<path fill="none" stroke="black" d="M2185.64,-287.697C2185.64,-279.983 2185.64,-270.712 2185.64,-262.112"/>
<polygon fill="black" stroke="black" points="2189.14,-262.104 2185.64,-252.104 2182.14,-262.104 2189.14,-262.104"/>
</g>
<!-- Temp11: T231 -->
<g id="node54" class="node"><title>Temp11: T231</title>
<ellipse fill="none" stroke="black" cx="2185.64" cy="-162" rx="63.8893" ry="18"/>
<text text-anchor="middle" x="2185.64" y="-158.3" font-family="Times,serif" font-size="14.00">Temp11: T231</text>
</g>
<!-- ExpTemp11&#45;&gt;Temp11: T231 -->
<g id="edge46" class="edge"><title>ExpTemp11&#45;&gt;Temp11: T231</title>
<path fill="none" stroke="black" d="M2185.64,-215.697C2185.64,-207.983 2185.64,-198.712 2185.64,-190.112"/>
<polygon fill="black" stroke="black" points="2189.14,-190.104 2185.64,-180.104 2182.14,-190.104 2189.14,-190.104"/>
</g>
<!-- ExpTemp9 -->
<g id="node18" class="node"><title>ExpTemp9</title>
<ellipse fill="none" stroke="black" cx="1899.64" cy="-234" rx="50.0912" ry="18"/>
<text text-anchor="middle" x="1899.64" y="-230.3" font-family="Times,serif" font-size="14.00">ExpTemp9</text>
</g>
<!-- Temp9: T230 -->
<g id="node19" class="node"><title>Temp9: T230</title>
<ellipse fill="none" stroke="black" cx="1899.64" cy="-162" rx="59.5901" ry="18"/>
<text text-anchor="middle" x="1899.64" y="-158.3" font-family="Times,serif" font-size="14.00">Temp9: T230</text>
</g>
<!-- ExpTemp9&#45;&gt;Temp9: T230 -->
<g id="edge14" class="edge"><title>ExpTemp9&#45;&gt;Temp9: T230</title>
<path fill="none" stroke="black" d="M1899.64,-215.697C1899.64,-207.983 1899.64,-198.712 1899.64,-190.112"/>
<polygon fill="black" stroke="black" points="1903.14,-190.104 1899.64,-180.104 1896.14,-190.104 1903.14,-190.104"/>
</g>
<!-- ExpCall0 -->
<g id="node21" class="node"><title>ExpCall0</title>
<ellipse fill="none" stroke="black" cx="1666.64" cy="-234" rx="44.393" ry="18"/>
<text text-anchor="middle" x="1666.64" y="-230.3" font-family="Times,serif" font-size="14.00">ExpCall0</text>
</g>
<!-- ExpName0 -->
<g id="node22" class="node"><title>ExpName0</title>
<ellipse fill="none" stroke="black" cx="1666.64" cy="-162" rx="50.8918" ry="18"/>
<text text-anchor="middle" x="1666.64" y="-158.3" font-family="Times,serif" font-size="14.00">ExpName0</text>
</g>
<!-- ExpCall0&#45;&gt;ExpName0 -->
<g id="edge16" class="edge"><title>ExpCall0&#45;&gt;ExpName0</title>
<path fill="none" stroke="black" d="M1666.64,-215.697C1666.64,-207.983 1666.64,-198.712 1666.64,-190.112"/>
<polygon fill="black" stroke="black" points="1670.14,-190.104 1666.64,-180.104 1663.14,-190.104 1670.14,-190.104"/>
</g>
<!-- ExpList0 -->
<g id="node23" class="node"><title>ExpList0</title>
<ellipse fill="none" stroke="black" cx="1778.64" cy="-162" rx="42.7926" ry="18"/>
<text text-anchor="middle" x="1778.64" y="-158.3" font-family="Times,serif" font-size="14.00">ExpList0</text>
</g>
<!-- ExpCall0&#45;&gt;ExpList0 -->
<g id="edge17" class="edge"><title>ExpCall0&#45;&gt;ExpList0</title>
<path fill="none" stroke="black" d="M1689.85,-218.496C1706.37,-208.172 1728.76,-194.174 1746.93,-182.819"/>
<polygon fill="black" stroke="black" points="1748.84,-185.753 1755.46,-177.485 1745.13,-179.818 1748.84,-185.753"/>
</g>
<!-- Label1: malloc -->
<g id="node64" class="node"><title>Label1: malloc</title>
<ellipse fill="none" stroke="black" cx="1656.64" cy="-90" rx="64.189" ry="18"/>
<text text-anchor="middle" x="1656.64" y="-86.3" font-family="Times,serif" font-size="14.00">Label1: malloc</text>
</g>
<!-- ExpName0&#45;&gt;Label1: malloc -->
<g id="edge56" class="edge"><title>ExpName0&#45;&gt;Label1: malloc</title>
<path fill="none" stroke="black" d="M1664.17,-143.697C1663.07,-135.983 1661.74,-126.712 1660.51,-118.112"/>
<polygon fill="black" stroke="black" points="1663.96,-117.509 1659.08,-108.104 1657.03,-118.499 1663.96,-117.509"/>
</g>
<!-- ExpTemp8 -->
<g id="node65" class="node"><title>ExpTemp8</title>
<ellipse fill="none" stroke="black" cx="1788.64" cy="-90" rx="50.0912" ry="18"/>
<text text-anchor="middle" x="1788.64" y="-86.3" font-family="Times,serif" font-size="14.00">ExpTemp8</text>
</g>
<!-- ExpList0&#45;&gt;ExpTemp8 -->
<g id="edge66" class="edge"><title>ExpList0&#45;&gt;ExpTemp8</title>
<path fill="none" stroke="black" d="M1781.11,-143.697C1782.21,-135.983 1783.54,-126.712 1784.77,-118.112"/>
<polygon fill="black" stroke="black" points="1788.25,-118.499 1786.2,-108.104 1781.32,-117.509 1788.25,-118.499"/>
</g>
<!-- StatMove2 -->
<g id="node24" class="node"><title>StatMove2</title>
<ellipse fill="none" stroke="black" cx="932.641" cy="-306" rx="50.0912" ry="18"/>
<text text-anchor="middle" x="932.641" y="-302.3" font-family="Times,serif" font-size="14.00">StatMove2</text>
</g>
<!-- ExpTemp4 -->
<g id="node25" class="node"><title>ExpTemp4</title>
<ellipse fill="none" stroke="black" cx="804.641" cy="-234" rx="50.0912" ry="18"/>
<text text-anchor="middle" x="804.641" y="-230.3" font-family="Times,serif" font-size="14.00">ExpTemp4</text>
</g>
<!-- StatMove2&#45;&gt;ExpTemp4 -->
<g id="edge18" class="edge"><title>StatMove2&#45;&gt;ExpTemp4</title>
<path fill="none" stroke="black" d="M906.429,-290.666C887.315,-280.213 861.196,-265.929 840.201,-254.447"/>
<polygon fill="black" stroke="black" points="841.71,-251.283 831.257,-249.556 838.351,-257.425 841.71,-251.283"/>
</g>
<!-- ExpTemp5 -->
<g id="node26" class="node"><title>ExpTemp5</title>
<ellipse fill="none" stroke="black" cx="932.641" cy="-234" rx="50.0912" ry="18"/>
<text text-anchor="middle" x="932.641" y="-230.3" font-family="Times,serif" font-size="14.00">ExpTemp5</text>
</g>
<!-- StatMove2&#45;&gt;ExpTemp5 -->
<g id="edge19" class="edge"><title>StatMove2&#45;&gt;ExpTemp5</title>
<path fill="none" stroke="black" d="M932.641,-287.697C932.641,-279.983 932.641,-270.712 932.641,-262.112"/>
<polygon fill="black" stroke="black" points="936.141,-262.104 932.641,-252.104 929.141,-262.104 936.141,-262.104"/>
</g>
<!-- Temp4: T229 -->
<g id="node61" class="node"><title>Temp4: T229</title>
<ellipse fill="none" stroke="black" cx="794.641" cy="-162" rx="59.5901" ry="18"/>
<text text-anchor="middle" x="794.641" y="-158.3" font-family="Times,serif" font-size="14.00">Temp4: T229</text>
</g>
<!-- ExpTemp4&#45;&gt;Temp4: T229 -->
<g id="edge54" class="edge"><title>ExpTemp4&#45;&gt;Temp4: T229</title>
<path fill="none" stroke="black" d="M802.169,-215.697C801.067,-207.983 799.742,-198.712 798.514,-190.112"/>
<polygon fill="black" stroke="black" points="801.963,-189.509 797.084,-180.104 795.034,-190.499 801.963,-189.509"/>
</g>
<!-- Temp5: T225 -->
<g id="node51" class="node"><title>Temp5: T225</title>
<ellipse fill="none" stroke="black" cx="932.641" cy="-162" rx="59.5901" ry="18"/>
<text text-anchor="middle" x="932.641" y="-158.3" font-family="Times,serif" font-size="14.00">Temp5: T225</text>
</g>
<!-- ExpTemp5&#45;&gt;Temp5: T225 -->
<g id="edge44" class="edge"><title>ExpTemp5&#45;&gt;Temp5: T225</title>
<path fill="none" stroke="black" d="M932.641,-215.697C932.641,-207.983 932.641,-198.712 932.641,-190.112"/>
<polygon fill="black" stroke="black" points="936.141,-190.104 932.641,-180.104 929.141,-190.104 936.141,-190.104"/>
</g>
<!-- ExpTemp10 -->
<g id="node27" class="node"><title>ExpTemp10</title>
<ellipse fill="none" stroke="black" cx="2031.64" cy="-234" rx="54.6905" ry="18"/>
<text text-anchor="middle" x="2031.64" y="-230.3" font-family="Times,serif" font-size="14.00">ExpTemp10</text>
</g>
<!-- Temp10: T225 -->
<g id="node28" class="node"><title>Temp10: T225</title>
<ellipse fill="none" stroke="black" cx="2040.64" cy="-162" rx="63.8893" ry="18"/>
<text text-anchor="middle" x="2040.64" y="-158.3" font-family="Times,serif" font-size="14.00">Temp10: T225</text>
</g>
<!-- ExpTemp10&#45;&gt;Temp10: T225 -->
<g id="edge20" class="edge"><title>ExpTemp10&#45;&gt;Temp10: T225</title>
<path fill="none" stroke="black" d="M2033.87,-215.697C2034.86,-207.983 2036.05,-198.712 2037.15,-190.112"/>
<polygon fill="black" stroke="black" points="2040.64,-190.469 2038.44,-180.104 2033.69,-189.576 2040.64,-190.469"/>
</g>
<!-- ExpTemp2 -->
<g id="node29" class="node"><title>ExpTemp2</title>
<ellipse fill="none" stroke="black" cx="528.641" cy="-234" rx="50.0912" ry="18"/>
<text text-anchor="middle" x="528.641" y="-230.3" font-family="Times,serif" font-size="14.00">ExpTemp2</text>
</g>
<!-- Temp2: T231 -->
<g id="node30" class="node"><title>Temp2: T231</title>
<ellipse fill="none" stroke="black" cx="518.641" cy="-162" rx="59.5901" ry="18"/>
<text text-anchor="middle" x="518.641" y="-158.3" font-family="Times,serif" font-size="14.00">Temp2: T231</text>
</g>
<!-- ExpTemp2&#45;&gt;Temp2: T231 -->
<g id="edge21" class="edge"><title>ExpTemp2&#45;&gt;Temp2: T231</title>
<path fill="none" stroke="black" d="M526.169,-215.697C525.067,-207.983 523.742,-198.712 522.514,-190.112"/>
<polygon fill="black" stroke="black" points="525.963,-189.509 521.084,-180.104 519.034,-190.499 525.963,-189.509"/>
</g>
<!-- StatMove5 -->
<g id="node31" class="node"><title>StatMove5</title>
<ellipse fill="none" stroke="black" cx="1899.64" cy="-306" rx="50.0912" ry="18"/>
<text text-anchor="middle" x="1899.64" y="-302.3" font-family="Times,serif" font-size="14.00">StatMove5</text>
</g>
<!-- StatMove5&#45;&gt;ExpTemp9 -->
<g id="edge22" class="edge"><title>StatMove5&#45;&gt;ExpTemp9</title>
<path fill="none" stroke="black" d="M1899.64,-287.697C1899.64,-279.983 1899.64,-270.712 1899.64,-262.112"/>
<polygon fill="black" stroke="black" points="1903.14,-262.104 1899.64,-252.104 1896.14,-262.104 1903.14,-262.104"/>
</g>
<!-- StatMove5&#45;&gt;ExpTemp10 -->
<g id="edge23" class="edge"><title>StatMove5&#45;&gt;ExpTemp10</title>
<path fill="none" stroke="black" d="M1926.67,-290.666C1946.34,-280.236 1973.2,-265.992 1994.82,-254.524"/>
<polygon fill="black" stroke="black" points="1996.54,-257.575 2003.74,-249.798 1993.26,-251.391 1996.54,-257.575"/>
</g>
<!-- ExpConst1 -->
<g id="node32" class="node"><title>ExpConst1</title>
<ellipse fill="none" stroke="black" cx="1410.64" cy="-162" rx="50.0912" ry="18"/>
<text text-anchor="middle" x="1410.64" y="-158.3" font-family="Times,serif" font-size="14.00">ExpConst1</text>
</g>
<!-- Value1: 4 -->
<g id="node33" class="node"><title>Value1: 4</title>
<ellipse fill="none" stroke="black" cx="1410.64" cy="-90" rx="45.4919" ry="18"/>
<text text-anchor="middle" x="1410.64" y="-86.3" font-family="Times,serif" font-size="14.00">Value1: 4</text>
</g>
<!-- ExpConst1&#45;&gt;Value1: 4 -->
<g id="edge24" class="edge"><title>ExpConst1&#45;&gt;Value1: 4</title>
<path fill="none" stroke="black" d="M1410.64,-143.697C1410.64,-135.983 1410.64,-126.712 1410.64,-118.112"/>
<polygon fill="black" stroke="black" points="1414.14,-118.104 1410.64,-108.104 1407.14,-118.104 1414.14,-118.104"/>
</g>
<!-- ExpTemp3 -->
<g id="node34" class="node"><title>ExpTemp3</title>
<ellipse fill="none" stroke="black" cx="656.641" cy="-234" rx="50.0912" ry="18"/>
<text text-anchor="middle" x="656.641" y="-230.3" font-family="Times,serif" font-size="14.00">ExpTemp3</text>
</g>
<!-- Temp3: T226 -->
<g id="node35" class="node"><title>Temp3: T226</title>
<ellipse fill="none" stroke="black" cx="656.641" cy="-162" rx="59.5901" ry="18"/>
<text text-anchor="middle" x="656.641" y="-158.3" font-family="Times,serif" font-size="14.00">Temp3: T226</text>
</g>
<!-- ExpTemp3&#45;&gt;Temp3: T226 -->
<g id="edge25" class="edge"><title>ExpTemp3&#45;&gt;Temp3: T226</title>
<path fill="none" stroke="black" d="M656.641,-215.697C656.641,-207.983 656.641,-198.712 656.641,-190.112"/>
<polygon fill="black" stroke="black" points="660.141,-190.104 656.641,-180.104 653.141,-190.104 660.141,-190.104"/>
</g>
<!-- StatLabel0 -->
<g id="node36" class="node"><title>StatLabel0</title>
<ellipse fill="none" stroke="black" cx="191.641" cy="-306" rx="48.9926" ry="18"/>
<text text-anchor="middle" x="191.641" y="-302.3" font-family="Times,serif" font-size="14.00">StatLabel0</text>
</g>
<!-- Label0: LinkedList@main -->
<g id="node37" class="node"><title>Label0: LinkedList@main</title>
<ellipse fill="none" stroke="black" cx="104.641" cy="-234" rx="104.782" ry="18"/>
<text text-anchor="middle" x="104.641" y="-230.3" font-family="Times,serif" font-size="14.00">Label0: LinkedList@main</text>
</g>
<!-- StatLabel0&#45;&gt;Label0: LinkedList@main -->
<g id="edge26" class="edge"><title>StatLabel0&#45;&gt;Label0: LinkedList@main</title>
<path fill="none" stroke="black" d="M172.333,-289.465C160.916,-280.279 146.241,-268.471 133.474,-258.199"/>
<polygon fill="black" stroke="black" points="135.399,-255.256 125.414,-251.714 131.011,-260.71 135.399,-255.256"/>
</g>
<!-- StatList0 -->
<g id="node38" class="node"><title>StatList0</title>
<ellipse fill="none" stroke="black" cx="1606.64" cy="-378" rx="42.4939" ry="18"/>
<text text-anchor="middle" x="1606.64" y="-374.3" font-family="Times,serif" font-size="14.00">StatList0</text>
</g>
<!-- StatList0&#45;&gt;StatExp0 -->
<g id="edge37" class="edge"><title>StatList0&#45;&gt;StatExp0</title>
<path fill="none" stroke="black" d="M1648.97,-376.366C1811.53,-373.7 2411.26,-361.729 2903.64,-324 2937.29,-321.422 2975.01,-317.176 3004.34,-313.572"/>
<polygon fill="black" stroke="black" points="3004.85,-317.036 3014.34,-312.328 3003.98,-310.089 3004.85,-317.036"/>
</g>
<!-- StatList0&#45;&gt;StatMove8 -->
<g id="edge36" class="edge"><title>StatList0&#45;&gt;StatMove8</title>
<path fill="none" stroke="black" d="M1648.39,-375.116C1786.21,-368.828 2239.3,-347.623 2613.64,-324 2672.41,-320.292 2739.52,-315.264 2786.21,-311.639"/>
<polygon fill="black" stroke="black" points="2786.74,-315.108 2796.44,-310.842 2786.19,-308.13 2786.74,-315.108"/>
</g>
<!-- StatList0&#45;&gt;StatMove6 -->
<g id="edge34" class="edge"><title>StatList0&#45;&gt;StatMove6</title>
<path fill="none" stroke="black" d="M1646.9,-372.133C1747.84,-359.929 2011.99,-327.994 2128.75,-313.878"/>
<polygon fill="black" stroke="black" points="2129.4,-317.325 2138.91,-312.65 2128.56,-310.376 2129.4,-317.325"/>
</g>
<!-- StatList0&#45;&gt;StatMove2 -->
<g id="edge30" class="edge"><title>StatList0&#45;&gt;StatMove2</title>
<path fill="none" stroke="black" d="M1566,-372.779C1451.02,-360.838 1123.19,-326.79 989.971,-312.954"/>
<polygon fill="black" stroke="black" points="990.27,-309.467 979.962,-311.915 989.547,-316.429 990.27,-309.467"/>
</g>
<!-- StatList0&#45;&gt;StatMove5 -->
<g id="edge33" class="edge"><title>StatList0&#45;&gt;StatMove5</title>
<path fill="none" stroke="black" d="M1642.57,-368.417C1694.43,-356.027 1790.48,-333.079 1849.36,-319.013"/>
<polygon fill="black" stroke="black" points="1850.28,-322.392 1859.19,-316.664 1848.65,-315.584 1850.28,-322.392"/>
</g>
<!-- StatList0&#45;&gt;StatLabel0 -->
<g id="edge27" class="edge"><title>StatList0&#45;&gt;StatLabel0</title>
<path fill="none" stroke="black" d="M1564.36,-376.386C1403.98,-373.814 817.86,-362.197 336.641,-324 306.843,-321.635 273.727,-317.841 246.674,-314.437"/>
<polygon fill="black" stroke="black" points="246.984,-310.948 236.622,-313.155 246.099,-317.892 246.984,-310.948"/>
</g>
<!-- StatMove0 -->
<g id="node39" class="node"><title>StatMove0</title>
<ellipse fill="none" stroke="black" cx="395.641" cy="-306" rx="50.0912" ry="18"/>
<text text-anchor="middle" x="395.641" y="-302.3" font-family="Times,serif" font-size="14.00">StatMove0</text>
</g>
<!-- StatList0&#45;&gt;StatMove0 -->
<g id="edge28" class="edge"><title>StatList0&#45;&gt;StatMove0</title>
<path fill="none" stroke="black" d="M1564.8,-375.275C1426.67,-369.479 972.593,-349.619 597.641,-324 549.029,-320.679 493.917,-315.978 453.552,-312.361"/>
<polygon fill="black" stroke="black" points="453.634,-308.854 443.361,-311.442 453.006,-315.826 453.634,-308.854"/>
</g>
<!-- StatMove1 -->
<g id="node40" class="node"><title>StatMove1</title>
<ellipse fill="none" stroke="black" cx="656.641" cy="-306" rx="50.0912" ry="18"/>
<text text-anchor="middle" x="656.641" y="-302.3" font-family="Times,serif" font-size="14.00">StatMove1</text>
</g>
<!-- StatList0&#45;&gt;StatMove1 -->
<g id="edge29" class="edge"><title>StatList0&#45;&gt;StatMove1</title>
<path fill="none" stroke="black" d="M1565.3,-374.098C1453.71,-366.247 1137,-343.837 873.641,-324 819.917,-319.953 758.729,-315.141 715.053,-311.672"/>
<polygon fill="black" stroke="black" points="715.145,-308.168 704.899,-310.864 714.59,-315.146 715.145,-308.168"/>
</g>
<!-- StatMove3 -->
<g id="node41" class="node"><title>StatMove3</title>
<ellipse fill="none" stroke="black" cx="1304.64" cy="-306" rx="50.0912" ry="18"/>
<text text-anchor="middle" x="1304.64" y="-302.3" font-family="Times,serif" font-size="14.00">StatMove3</text>
</g>
<!-- StatList0&#45;&gt;StatMove3 -->
<g id="edge31" class="edge"><title>StatList0&#45;&gt;StatMove3</title>
<path fill="none" stroke="black" d="M1570.51,-368.626C1516.97,-356.216 1416.35,-332.893 1355.42,-318.77"/>
<polygon fill="black" stroke="black" points="1356.16,-315.349 1345.63,-316.5 1354.58,-322.168 1356.16,-315.349"/>
</g>
<!-- StatMove4 -->
<g id="node42" class="node"><title>StatMove4</title>
<ellipse fill="none" stroke="black" cx="1606.64" cy="-306" rx="50.0912" ry="18"/>
<text text-anchor="middle" x="1606.64" y="-302.3" font-family="Times,serif" font-size="14.00">StatMove4</text>
</g>
<!-- StatList0&#45;&gt;StatMove4 -->
<g id="edge32" class="edge"><title>StatList0&#45;&gt;StatMove4</title>
<path fill="none" stroke="black" d="M1606.64,-359.697C1606.64,-351.983 1606.64,-342.712 1606.64,-334.112"/>
<polygon fill="black" stroke="black" points="1610.14,-334.104 1606.64,-324.104 1603.14,-334.104 1610.14,-334.104"/>
</g>
<!-- StatMove7 -->
<g id="node43" class="node"><title>StatMove7</title>
<ellipse fill="none" stroke="black" cx="2554.64" cy="-306" rx="50.0912" ry="18"/>
<text text-anchor="middle" x="2554.64" y="-302.3" font-family="Times,serif" font-size="14.00">StatMove7</text>
</g>
<!-- StatList0&#45;&gt;StatMove7 -->
<g id="edge35" class="edge"><title>StatList0&#45;&gt;StatMove7</title>
<path fill="none" stroke="black" d="M1647.98,-373.947C1798.84,-362.808 2320.02,-324.324 2496.04,-311.327"/>
<polygon fill="black" stroke="black" points="2496.43,-314.808 2506.14,-310.581 2495.91,-307.827 2496.43,-314.808"/>
</g>
<!-- ExpTemp0 -->
<g id="node44" class="node"><title>ExpTemp0</title>
<ellipse fill="none" stroke="black" cx="277.641" cy="-234" rx="50.0912" ry="18"/>
<text text-anchor="middle" x="277.641" y="-230.3" font-family="Times,serif" font-size="14.00">ExpTemp0</text>
</g>
<!-- StatMove0&#45;&gt;ExpTemp0 -->
<g id="edge39" class="edge"><title>StatMove0&#45;&gt;ExpTemp0</title>
<path fill="none" stroke="black" d="M370.904,-290.326C353.518,-280.012 330.058,-266.095 311.017,-254.8"/>
<polygon fill="black" stroke="black" points="312.731,-251.747 302.345,-249.655 309.16,-257.767 312.731,-251.747"/>
</g>
<!-- ExpTemp1 -->
<g id="node46" class="node"><title>ExpTemp1</title>
<ellipse fill="none" stroke="black" cx="395.641" cy="-234" rx="50.0912" ry="18"/>
<text text-anchor="middle" x="395.641" y="-230.3" font-family="Times,serif" font-size="14.00">ExpTemp1</text>
</g>
<!-- StatMove0&#45;&gt;ExpTemp1 -->
<g id="edge40" class="edge"><title>StatMove0&#45;&gt;ExpTemp1</title>
<path fill="none" stroke="black" d="M395.641,-287.697C395.641,-279.983 395.641,-270.712 395.641,-262.112"/>
<polygon fill="black" stroke="black" points="399.141,-262.104 395.641,-252.104 392.141,-262.104 399.141,-262.104"/>
</g>
<!-- StatMove1&#45;&gt;ExpTemp2 -->
<g id="edge62" class="edge"><title>StatMove1&#45;&gt;ExpTemp2</title>
<path fill="none" stroke="black" d="M630.429,-290.666C611.315,-280.213 585.196,-265.929 564.201,-254.447"/>
<polygon fill="black" stroke="black" points="565.71,-251.283 555.257,-249.556 562.351,-257.425 565.71,-251.283"/>
</g>
<!-- StatMove1&#45;&gt;ExpTemp3 -->
<g id="edge63" class="edge"><title>StatMove1&#45;&gt;ExpTemp3</title>
<path fill="none" stroke="black" d="M656.641,-287.697C656.641,-279.983 656.641,-270.712 656.641,-262.112"/>
<polygon fill="black" stroke="black" points="660.141,-262.104 656.641,-252.104 653.141,-262.104 660.141,-262.104"/>
</g>
<!-- ExpTemp6 -->
<g id="node52" class="node"><title>ExpTemp6</title>
<ellipse fill="none" stroke="black" cx="1126.64" cy="-234" rx="50.0912" ry="18"/>
<text text-anchor="middle" x="1126.64" y="-230.3" font-family="Times,serif" font-size="14.00">ExpTemp6</text>
</g>
<!-- StatMove3&#45;&gt;ExpTemp6 -->
<g id="edge47" class="edge"><title>StatMove3&#45;&gt;ExpTemp6</title>
<path fill="none" stroke="black" d="M1271.99,-292.161C1242.89,-280.715 1200.12,-263.897 1168.51,-251.464"/>
<polygon fill="black" stroke="black" points="1169.67,-248.16 1159.08,-247.758 1167.11,-254.675 1169.67,-248.16"/>
</g>
<!-- ExpBinary0 -->
<g id="node55" class="node"><title>ExpBinary0</title>
<ellipse fill="none" stroke="black" cx="1304.64" cy="-234" rx="53.0913" ry="18"/>
<text text-anchor="middle" x="1304.64" y="-230.3" font-family="Times,serif" font-size="14.00">ExpBinary0</text>
</g>
<!-- StatMove3&#45;&gt;ExpBinary0 -->
<g id="edge48" class="edge"><title>StatMove3&#45;&gt;ExpBinary0</title>
<path fill="none" stroke="black" d="M1304.64,-287.697C1304.64,-279.983 1304.64,-270.712 1304.64,-262.112"/>
<polygon fill="black" stroke="black" points="1308.14,-262.104 1304.64,-252.104 1301.14,-262.104 1308.14,-262.104"/>
</g>
<!-- StatMove4&#45;&gt;ExpCall0 -->
<g id="edge61" class="edge"><title>StatMove4&#45;&gt;ExpCall0</title>
<path fill="none" stroke="black" d="M1620.86,-288.411C1628.33,-279.693 1637.63,-268.845 1645.89,-259.208"/>
<polygon fill="black" stroke="black" points="1648.67,-261.34 1652.52,-251.47 1643.36,-256.785 1648.67,-261.34"/>
</g>
<!-- ExpTemp7 -->
<g id="node62" class="node"><title>ExpTemp7</title>
<ellipse fill="none" stroke="black" cx="1546.64" cy="-234" rx="50.0912" ry="18"/>
<text text-anchor="middle" x="1546.64" y="-230.3" font-family="Times,serif" font-size="14.00">ExpTemp7</text>
</g>
<!-- StatMove4&#45;&gt;ExpTemp7 -->
<g id="edge60" class="edge"><title>StatMove4&#45;&gt;ExpTemp7</title>
<path fill="none" stroke="black" d="M1592.42,-288.411C1584.95,-279.693 1575.65,-268.845 1567.39,-259.208"/>
<polygon fill="black" stroke="black" points="1569.92,-256.785 1560.76,-251.47 1564.61,-261.34 1569.92,-256.785"/>
</g>
<!-- StatMove7&#45;&gt;ExpTemp13 -->
<g id="edge57" class="edge"><title>StatMove7&#45;&gt;ExpTemp13</title>
<path fill="none" stroke="black" d="M2554.64,-287.697C2554.64,-279.983 2554.64,-270.712 2554.64,-262.112"/>
<polygon fill="black" stroke="black" points="2558.14,-262.104 2554.64,-252.104 2551.14,-262.104 2558.14,-262.104"/>
</g>
<!-- ExpTemp14 -->
<g id="node48" class="node"><title>ExpTemp14</title>
<ellipse fill="none" stroke="black" cx="2690.64" cy="-234" rx="54.6905" ry="18"/>
<text text-anchor="middle" x="2690.64" y="-230.3" font-family="Times,serif" font-size="14.00">ExpTemp14</text>
</g>
<!-- StatMove7&#45;&gt;ExpTemp14 -->
<g id="edge58" class="edge"><title>StatMove7&#45;&gt;ExpTemp14</title>
<path fill="none" stroke="black" d="M2582.16,-290.834C2602.63,-280.301 2630.78,-265.809 2653.28,-254.229"/>
<polygon fill="black" stroke="black" points="2654.93,-257.315 2662.22,-249.626 2651.73,-251.091 2654.93,-257.315"/>
</g>
<!-- Temp0: T233 -->
<g id="node45" class="node"><title>Temp0: T233</title>
<ellipse fill="none" stroke="black" cx="242.641" cy="-162" rx="59.5901" ry="18"/>
<text text-anchor="middle" x="242.641" y="-158.3" font-family="Times,serif" font-size="14.00">Temp0: T233</text>
</g>
<!-- ExpTemp0&#45;&gt;Temp0: T233 -->
<g id="edge38" class="edge"><title>ExpTemp0&#45;&gt;Temp0: T233</title>
<path fill="none" stroke="black" d="M269.168,-216.055C265.144,-208.007 260.243,-198.205 255.754,-189.226"/>
<polygon fill="black" stroke="black" points="258.881,-187.654 251.278,-180.275 252.62,-190.785 258.881,-187.654"/>
</g>
<!-- Temp1: T227 -->
<g id="node50" class="node"><title>Temp1: T227</title>
<ellipse fill="none" stroke="black" cx="380.641" cy="-162" rx="59.5901" ry="18"/>
<text text-anchor="middle" x="380.641" y="-158.3" font-family="Times,serif" font-size="14.00">Temp1: T227</text>
</g>
<!-- ExpTemp1&#45;&gt;Temp1: T227 -->
<g id="edge43" class="edge"><title>ExpTemp1&#45;&gt;Temp1: T227</title>
<path fill="none" stroke="black" d="M391.933,-215.697C390.28,-207.983 388.293,-198.712 386.451,-190.112"/>
<polygon fill="black" stroke="black" points="389.824,-189.149 384.306,-180.104 382.979,-190.616 389.824,-189.149"/>
</g>
<!-- Temp14: T226 -->
<g id="node49" class="node"><title>Temp14: T226</title>
<ellipse fill="none" stroke="black" cx="2699.64" cy="-162" rx="63.8893" ry="18"/>
<text text-anchor="middle" x="2699.64" y="-158.3" font-family="Times,serif" font-size="14.00">Temp14: T226</text>
</g>
<!-- ExpTemp14&#45;&gt;Temp14: T226 -->
<g id="edge42" class="edge"><title>ExpTemp14&#45;&gt;Temp14: T226</title>
<path fill="none" stroke="black" d="M2692.87,-215.697C2693.86,-207.983 2695.05,-198.712 2696.15,-190.112"/>
<polygon fill="black" stroke="black" points="2699.64,-190.469 2697.44,-180.104 2692.69,-189.576 2699.64,-190.469"/>
</g>
<!-- Temp6: T228 -->
<g id="node53" class="node"><title>Temp6: T228</title>
<ellipse fill="none" stroke="black" cx="1070.64" cy="-162" rx="59.5901" ry="18"/>
<text text-anchor="middle" x="1070.64" y="-158.3" font-family="Times,serif" font-size="14.00">Temp6: T228</text>
</g>
<!-- ExpTemp6&#45;&gt;Temp6: T228 -->
<g id="edge45" class="edge"><title>ExpTemp6&#45;&gt;Temp6: T228</title>
<path fill="none" stroke="black" d="M1113.37,-216.411C1106.57,-207.906 1098.14,-197.372 1090.57,-187.914"/>
<polygon fill="black" stroke="black" points="1093.19,-185.578 1084.21,-179.956 1087.72,-189.951 1093.19,-185.578"/>
</g>
<!-- ExpBinary0&#45;&gt;ExpConst1 -->
<g id="edge53" class="edge"><title>ExpBinary0&#45;&gt;ExpConst1</title>
<path fill="none" stroke="black" d="M1327.9,-217.638C1342.92,-207.723 1362.64,-194.698 1379.06,-183.853"/>
<polygon fill="black" stroke="black" points="1381.38,-186.517 1387.8,-178.085 1377.52,-180.675 1381.38,-186.517"/>
</g>
<!-- ExpConst0 -->
<g id="node56" class="node"><title>ExpConst0</title>
<ellipse fill="none" stroke="black" cx="1198.64" cy="-162" rx="50.0912" ry="18"/>
<text text-anchor="middle" x="1198.64" y="-158.3" font-family="Times,serif" font-size="14.00">ExpConst0</text>
</g>
<!-- ExpBinary0&#45;&gt;ExpConst0 -->
<g id="edge51" class="edge"><title>ExpBinary0&#45;&gt;ExpConst0</title>
<path fill="none" stroke="black" d="M1281.38,-217.638C1266.36,-207.723 1246.64,-194.698 1230.22,-183.853"/>
<polygon fill="black" stroke="black" points="1231.76,-180.675 1221.48,-178.085 1227.9,-186.517 1231.76,-180.675"/>
</g>
<!-- Times0 -->
<g id="node60" class="node"><title>Times0</title>
<ellipse fill="none" stroke="black" cx="1304.64" cy="-162" rx="37.8943" ry="18"/>
<text text-anchor="middle" x="1304.64" y="-158.3" font-family="Times,serif" font-size="14.00">Times0</text>
</g>
<!-- ExpBinary0&#45;&gt;Times0 -->
<g id="edge52" class="edge"><title>ExpBinary0&#45;&gt;Times0</title>
<path fill="none" stroke="black" d="M1304.64,-215.697C1304.64,-207.983 1304.64,-198.712 1304.64,-190.112"/>
<polygon fill="black" stroke="black" points="1308.14,-190.104 1304.64,-180.104 1301.14,-190.104 1308.14,-190.104"/>
</g>
<!-- Value0: 0 -->
<g id="node57" class="node"><title>Value0: 0</title>
<ellipse fill="none" stroke="black" cx="1198.64" cy="-90" rx="45.4919" ry="18"/>
<text text-anchor="middle" x="1198.64" y="-86.3" font-family="Times,serif" font-size="14.00">Value0: 0</text>
</g>
<!-- ExpConst0&#45;&gt;Value0: 0 -->
<g id="edge49" class="edge"><title>ExpConst0&#45;&gt;Value0: 0</title>
<path fill="none" stroke="black" d="M1198.64,-143.697C1198.64,-135.983 1198.64,-126.712 1198.64,-118.112"/>
<polygon fill="black" stroke="black" points="1202.14,-118.104 1198.64,-108.104 1195.14,-118.104 1202.14,-118.104"/>
</g>
<!-- Temp12: T230 -->
<g id="node59" class="node"><title>Temp12: T230</title>
<ellipse fill="none" stroke="black" cx="2447.64" cy="-18" rx="63.8893" ry="18"/>
<text text-anchor="middle" x="2447.64" y="-14.3" font-family="Times,serif" font-size="14.00">Temp12: T230</text>
</g>
<!-- ExpTemp12&#45;&gt;Temp12: T230 -->
<g id="edge50" class="edge"><title>ExpTemp12&#45;&gt;Temp12: T230</title>
<path fill="none" stroke="black" d="M2447.64,-71.6966C2447.64,-63.9827 2447.64,-54.7125 2447.64,-46.1124"/>
<polygon fill="black" stroke="black" points="2451.14,-46.1043 2447.64,-36.1043 2444.14,-46.1044 2451.14,-46.1043"/>
</g>
<!-- Temp7: T229 -->
<g id="node63" class="node"><title>Temp7: T229</title>
<ellipse fill="none" stroke="black" cx="1538.64" cy="-162" rx="59.5901" ry="18"/>
<text text-anchor="middle" x="1538.64" y="-158.3" font-family="Times,serif" font-size="14.00">Temp7: T229</text>
</g>
<!-- ExpTemp7&#45;&gt;Temp7: T229 -->
<g id="edge55" class="edge"><title>ExpTemp7&#45;&gt;Temp7: T229</title>
<path fill="none" stroke="black" d="M1544.66,-215.697C1543.78,-207.983 1542.72,-198.712 1541.74,-190.112"/>
<polygon fill="black" stroke="black" points="1545.21,-189.642 1540.6,-180.104 1538.25,-190.437 1545.21,-189.642"/>
</g>
<!-- Temp8: T228 -->
<g id="node66" class="node"><title>Temp8: T228</title>
<ellipse fill="none" stroke="black" cx="1788.64" cy="-18" rx="59.5901" ry="18"/>
<text text-anchor="middle" x="1788.64" y="-14.3" font-family="Times,serif" font-size="14.00">Temp8: T228</text>
</g>
<!-- ExpTemp8&#45;&gt;Temp8: T228 -->
<g id="edge64" class="edge"><title>ExpTemp8&#45;&gt;Temp8: T228</title>
<path fill="none" stroke="black" d="M1788.64,-71.6966C1788.64,-63.9827 1788.64,-54.7125 1788.64,-46.1124"/>
<polygon fill="black" stroke="black" points="1792.14,-46.1043 1788.64,-36.1043 1785.14,-46.1044 1792.14,-46.1043"/>
</g>
</g>
</svg>
