<?xml version="1.0" encoding="UTF-8" standalone="no"?>
<!DOCTYPE svg PUBLIC "-//W3C//DTD SVG 1.1//EN"
 "http://www.w3.org/Graphics/SVG/1.1/DTD/svg11.dtd">
<!-- Generated by graphviz version 2.38.0 (20140413.2041)
 -->
<!-- Title: %3 Pages: 1 -->
<svg width="819pt" height="260pt"
 viewBox="0.00 0.00 818.59 260.00" xmlns="http://www.w3.org/2000/svg" xmlns:xlink="http://www.w3.org/1999/xlink">
<g id="graph0" class="graph" transform="scale(1 1) rotate(0) translate(4 256)">
<title>%3</title>
<polygon fill="white" stroke="none" points="-4,4 -4,-256 814.589,-256 814.589,4 -4,4"/>
<!-- Temp8 -->
<g id="node1" class="node"><title>Temp8</title>
<ellipse fill="none" stroke="black" cx="726.795" cy="-90" rx="36.2938" ry="18"/>
<text text-anchor="middle" x="726.795" y="-86.3" font-family="Times,serif" font-size="14.00">Temp8</text>
</g>
<!-- Temp9: T266 -->
<g id="node2" class="node"><title>Temp9: T266</title>
<ellipse fill="none" stroke="black" cx="750.795" cy="-18" rx="59.5901" ry="18"/>
<text text-anchor="middle" x="750.795" y="-14.3" font-family="Times,serif" font-size="14.00">Temp9: T266</text>
</g>
<!-- Temp8&#45;&gt;Temp9: T266 -->
<g id="edge1" class="edge"><title>Temp8&#45;&gt;Temp9: T266</title>
<path fill="none" stroke="black" d="M732.604,-72.055C735.306,-64.1762 738.583,-54.6165 741.608,-45.794"/>
<polygon fill="black" stroke="black" points="744.939,-46.8699 744.872,-36.2753 738.318,-44.5996 744.939,-46.8699"/>
</g>
<!-- Temp6 -->
<g id="node3" class="node"><title>Temp6</title>
<ellipse fill="none" stroke="black" cx="600.795" cy="-90" rx="36.2938" ry="18"/>
<text text-anchor="middle" x="600.795" y="-86.3" font-family="Times,serif" font-size="14.00">Temp6</text>
</g>
<!-- Temp7: T265 -->
<g id="node4" class="node"><title>Temp7: T265</title>
<ellipse fill="none" stroke="black" cx="612.795" cy="-18" rx="59.5901" ry="18"/>
<text text-anchor="middle" x="612.795" y="-14.3" font-family="Times,serif" font-size="14.00">Temp7: T265</text>
</g>
<!-- Temp6&#45;&gt;Temp7: T265 -->
<g id="edge2" class="edge"><title>Temp6&#45;&gt;Temp7: T265</title>
<path fill="none" stroke="black" d="M603.7,-72.055C605.021,-64.3456 606.619,-55.0269 608.104,-46.3642"/>
<polygon fill="black" stroke="black" points="611.593,-46.7229 609.833,-36.2753 604.694,-45.5401 611.593,-46.7229"/>
</g>
<!-- Temp0 -->
<g id="node5" class="node"><title>Temp0</title>
<ellipse fill="none" stroke="black" cx="230.795" cy="-162" rx="36.2938" ry="18"/>
<text text-anchor="middle" x="230.795" y="-158.3" font-family="Times,serif" font-size="14.00">Temp0</text>
</g>
<!-- Temp1: T267 -->
<g id="node6" class="node"><title>Temp1: T267</title>
<ellipse fill="none" stroke="black" cx="59.7947" cy="-90" rx="59.5901" ry="18"/>
<text text-anchor="middle" x="59.7947" y="-86.3" font-family="Times,serif" font-size="14.00">Temp1: T267</text>
</g>
<!-- Temp0&#45;&gt;Temp1: T267 -->
<g id="edge3" class="edge"><title>Temp0&#45;&gt;Temp1: T267</title>
<path fill="none" stroke="black" d="M203.699,-149.908C176.73,-138.868 134.91,-121.749 103.289,-108.805"/>
<polygon fill="black" stroke="black" points="104.412,-105.482 93.8312,-104.933 101.76,-111.961 104.412,-105.482"/>
</g>
<!-- Temp2 -->
<g id="node7" class="node"><title>Temp2</title>
<ellipse fill="none" stroke="black" cx="395.795" cy="-90" rx="36.2938" ry="18"/>
<text text-anchor="middle" x="395.795" y="-86.3" font-family="Times,serif" font-size="14.00">Temp2</text>
</g>
<!-- Temp3: T263 -->
<g id="node8" class="node"><title>Temp3: T263</title>
<ellipse fill="none" stroke="black" cx="336.795" cy="-18" rx="59.5901" ry="18"/>
<text text-anchor="middle" x="336.795" y="-14.3" font-family="Times,serif" font-size="14.00">Temp3: T263</text>
</g>
<!-- Temp2&#45;&gt;Temp3: T263 -->
<g id="edge4" class="edge"><title>Temp2&#45;&gt;Temp3: T263</title>
<path fill="none" stroke="black" d="M382.407,-73.1159C375.076,-64.4181 365.83,-53.4483 357.582,-43.6627"/>
<polygon fill="black" stroke="black" points="360.073,-41.188 350.952,-35.7973 354.721,-45.6993 360.073,-41.188"/>
</g>
<!-- MoveRegister0 -->
<g id="node9" class="node"><title>MoveRegister0</title>
<ellipse fill="none" stroke="black" cx="335.795" cy="-234" rx="65.7887" ry="18"/>
<text text-anchor="middle" x="335.795" y="-230.3" font-family="Times,serif" font-size="14.00">MoveRegister0</text>
</g>
<!-- MoveRegister0&#45;&gt;Temp0 -->
<g id="edge5" class="edge"><title>MoveRegister0&#45;&gt;Temp0</title>
<path fill="none" stroke="black" d="M311.969,-217.116C296.653,-206.905 276.641,-193.564 260.319,-182.683"/>
<polygon fill="black" stroke="black" points="261.946,-179.561 251.684,-176.927 258.064,-185.386 261.946,-179.561"/>
</g>
<!-- Call0 -->
<g id="node10" class="node"><title>Call0</title>
<ellipse fill="none" stroke="black" cx="440.795" cy="-162" rx="29.795" ry="18"/>
<text text-anchor="middle" x="440.795" y="-158.3" font-family="Times,serif" font-size="14.00">Call0</text>
</g>
<!-- MoveRegister0&#45;&gt;Call0 -->
<g id="edge6" class="edge"><title>MoveRegister0&#45;&gt;Call0</title>
<path fill="none" stroke="black" d="M359.621,-217.116C375.345,-206.633 396.019,-192.85 412.568,-181.818"/>
<polygon fill="black" stroke="black" points="414.901,-184.469 421.28,-176.01 411.018,-178.645 414.901,-184.469"/>
</g>
<!-- Call0&#45;&gt;Temp8 -->
<g id="edge12" class="edge"><title>Call0&#45;&gt;Temp8</title>
<path fill="none" stroke="black" d="M467.959,-154.351C518.046,-142.092 625.261,-115.851 684.787,-101.282"/>
<polygon fill="black" stroke="black" points="685.737,-104.652 694.619,-98.8753 684.073,-97.8531 685.737,-104.652"/>
</g>
<!-- Call0&#45;&gt;Temp6 -->
<g id="edge11" class="edge"><title>Call0&#45;&gt;Temp6</title>
<path fill="none" stroke="black" d="M464.403,-150.671C490.915,-139.072 534.239,-120.118 564.938,-106.687"/>
<polygon fill="black" stroke="black" points="566.666,-109.752 574.424,-102.537 563.86,-103.339 566.666,-109.752"/>
</g>
<!-- Call0&#45;&gt;Temp2 -->
<g id="edge9" class="edge"><title>Call0&#45;&gt;Temp2</title>
<path fill="none" stroke="black" d="M430.358,-144.765C424.927,-136.317 418.166,-125.799 412.067,-116.312"/>
<polygon fill="black" stroke="black" points="414.839,-114.153 406.488,-107.633 408.951,-117.938 414.839,-114.153"/>
</g>
<!-- Temp4 -->
<g id="node11" class="node"><title>Temp4</title>
<ellipse fill="none" stroke="black" cx="486.795" cy="-90" rx="36.2938" ry="18"/>
<text text-anchor="middle" x="486.795" y="-86.3" font-family="Times,serif" font-size="14.00">Temp4</text>
</g>
<!-- Call0&#45;&gt;Temp4 -->
<g id="edge10" class="edge"><title>Call0&#45;&gt;Temp4</title>
<path fill="none" stroke="black" d="M451.233,-145.116C456.915,-136.469 464.074,-125.575 470.476,-115.833"/>
<polygon fill="black" stroke="black" points="473.512,-117.586 476.079,-107.307 467.662,-113.742 473.512,-117.586"/>
</g>
<!-- Function0: List@InitNew -->
<g id="node13" class="node"><title>Function0: List@InitNew</title>
<ellipse fill="none" stroke="black" cx="239.795" cy="-90" rx="102.082" ry="18"/>
<text text-anchor="middle" x="239.795" y="-86.3" font-family="Times,serif" font-size="14.00">Function0: List@InitNew</text>
</g>
<!-- Call0&#45;&gt;Function0: List@InitNew -->
<g id="edge8" class="edge"><title>Call0&#45;&gt;Function0: List@InitNew</title>
<path fill="none" stroke="black" d="M415.338,-152.134C384.857,-141.519 332.978,-123.452 293.5,-109.704"/>
<polygon fill="black" stroke="black" points="294.346,-106.292 283.752,-106.308 292.044,-112.903 294.346,-106.292"/>
</g>
<!-- Temp5: T264 -->
<g id="node12" class="node"><title>Temp5: T264</title>
<ellipse fill="none" stroke="black" cx="474.795" cy="-18" rx="59.5901" ry="18"/>
<text text-anchor="middle" x="474.795" y="-14.3" font-family="Times,serif" font-size="14.00">Temp5: T264</text>
</g>
<!-- Temp4&#45;&gt;Temp5: T264 -->
<g id="edge7" class="edge"><title>Temp4&#45;&gt;Temp5: T264</title>
<path fill="none" stroke="black" d="M483.89,-72.055C482.568,-64.3456 480.971,-55.0269 479.486,-46.3642"/>
<polygon fill="black" stroke="black" points="482.896,-45.5401 477.756,-36.2753 475.996,-46.7229 482.896,-45.5401"/>
</g>
</g>
</svg>
