<?xml version="1.0" encoding="UTF-8" standalone="no"?>
<!DOCTYPE svg PUBLIC "-//W3C//DTD SVG 1.1//EN"
 "http://www.w3.org/Graphics/SVG/1.1/DTD/svg11.dtd">
<!-- Generated by graphviz version 2.38.0 (20140413.2041)
 -->
<!-- Title: %3 Pages: 1 -->
<svg width="474pt" height="260pt"
 viewBox="0.00 0.00 474.39 260.00" xmlns="http://www.w3.org/2000/svg" xmlns:xlink="http://www.w3.org/1999/xlink">
<g id="graph0" class="graph" transform="scale(1 1) rotate(0) translate(4 256)">
<title>%3</title>
<polygon fill="white" stroke="none" points="-4,4 -4,-256 470.391,-256 470.391,4 -4,4"/>
<!-- Call0 -->
<g id="node1" class="node"><title>Call0</title>
<ellipse fill="none" stroke="black" cx="240.696" cy="-162" rx="29.795" ry="18"/>
<text text-anchor="middle" x="240.696" y="-158.3" font-family="Times,serif" font-size="14.00">Call0</text>
</g>
<!-- Function0: Tree@GetHas_Left -->
<g id="node2" class="node"><title>Function0: Tree@GetHas_Left</title>
<ellipse fill="none" stroke="black" cx="240.696" cy="-90" rx="120.779" ry="18"/>
<text text-anchor="middle" x="240.696" y="-86.3" font-family="Times,serif" font-size="14.00">Function0: Tree@GetHas_Left</text>
</g>
<!-- Call0&#45;&gt;Function0: Tree@GetHas_Left -->
<g id="edge1" class="edge"><title>Call0&#45;&gt;Function0: Tree@GetHas_Left</title>
<path fill="none" stroke="black" d="M240.696,-143.697C240.696,-135.983 240.696,-126.712 240.696,-118.112"/>
<polygon fill="black" stroke="black" points="244.196,-118.104 240.696,-108.104 237.196,-118.104 244.196,-118.104"/>
</g>
<!-- Temp2 -->
<g id="node3" class="node"><title>Temp2</title>
<ellipse fill="none" stroke="black" cx="415.696" cy="-90" rx="36.2938" ry="18"/>
<text text-anchor="middle" x="415.696" y="-86.3" font-family="Times,serif" font-size="14.00">Temp2</text>
</g>
<!-- Call0&#45;&gt;Temp2 -->
<g id="edge2" class="edge"><title>Call0&#45;&gt;Temp2</title>
<path fill="none" stroke="black" d="M265.029,-151.267C294.519,-139.471 344.506,-119.476 378.758,-105.775"/>
<polygon fill="black" stroke="black" points="380.421,-108.88 388.406,-101.916 377.821,-102.38 380.421,-108.88"/>
</g>
<!-- Temp3: T8 -->
<g id="node6" class="node"><title>Temp3: T8</title>
<ellipse fill="none" stroke="black" cx="415.696" cy="-18" rx="50.8918" ry="18"/>
<text text-anchor="middle" x="415.696" y="-14.3" font-family="Times,serif" font-size="14.00">Temp3: T8</text>
</g>
<!-- Temp2&#45;&gt;Temp3: T8 -->
<g id="edge5" class="edge"><title>Temp2&#45;&gt;Temp3: T8</title>
<path fill="none" stroke="black" d="M415.696,-71.6966C415.696,-63.9827 415.696,-54.7125 415.696,-46.1124"/>
<polygon fill="black" stroke="black" points="419.196,-46.1043 415.696,-36.1043 412.196,-46.1044 419.196,-46.1043"/>
</g>
<!-- MoveRegister0 -->
<g id="node4" class="node"><title>MoveRegister0</title>
<ellipse fill="none" stroke="black" cx="171.696" cy="-234" rx="65.7887" ry="18"/>
<text text-anchor="middle" x="171.696" y="-230.3" font-family="Times,serif" font-size="14.00">MoveRegister0</text>
</g>
<!-- MoveRegister0&#45;&gt;Call0 -->
<g id="edge4" class="edge"><title>MoveRegister0&#45;&gt;Call0</title>
<path fill="none" stroke="black" d="M188.048,-216.411C197.194,-207.132 208.718,-195.441 218.652,-185.363"/>
<polygon fill="black" stroke="black" points="221.345,-187.617 225.872,-178.038 216.359,-182.703 221.345,-187.617"/>
</g>
<!-- Temp0 -->
<g id="node5" class="node"><title>Temp0</title>
<ellipse fill="none" stroke="black" cx="103.696" cy="-162" rx="36.2938" ry="18"/>
<text text-anchor="middle" x="103.696" y="-158.3" font-family="Times,serif" font-size="14.00">Temp0</text>
</g>
<!-- MoveRegister0&#45;&gt;Temp0 -->
<g id="edge3" class="edge"><title>MoveRegister0&#45;&gt;Temp0</title>
<path fill="none" stroke="black" d="M155.58,-216.411C146.692,-207.261 135.524,-195.765 125.828,-185.784"/>
<polygon fill="black" stroke="black" points="128.242,-183.245 118.763,-178.511 123.221,-188.122 128.242,-183.245"/>
</g>
<!-- Temp1: T9 -->
<g id="node7" class="node"><title>Temp1: T9</title>
<ellipse fill="none" stroke="black" cx="50.6955" cy="-90" rx="50.8918" ry="18"/>
<text text-anchor="middle" x="50.6955" y="-86.3" font-family="Times,serif" font-size="14.00">Temp1: T9</text>
</g>
<!-- Temp0&#45;&gt;Temp1: T9 -->
<g id="edge6" class="edge"><title>Temp0&#45;&gt;Temp1: T9</title>
<path fill="none" stroke="black" d="M91.403,-144.765C84.8752,-136.143 76.7145,-125.365 69.4171,-115.727"/>
<polygon fill="black" stroke="black" points="72.1162,-113.493 63.2894,-107.633 66.5354,-117.719 72.1162,-113.493"/>
</g>
</g>
</svg>
