<?xml version="1.0" encoding="UTF-8" standalone="no"?>
<!DOCTYPE svg PUBLIC "-//W3C//DTD SVG 1.1//EN"
 "http://www.w3.org/Graphics/SVG/1.1/DTD/svg11.dtd">
<!-- Generated by graphviz version 2.38.0 (20140413.2041)
 -->
<!-- Title: %3 Pages: 1 -->
<svg width="1480pt" height="980pt"
 viewBox="0.00 0.00 1479.74 980.00" xmlns="http://www.w3.org/2000/svg" xmlns:xlink="http://www.w3.org/1999/xlink">
<g id="graph0" class="graph" transform="scale(1 1) rotate(0) translate(4 976)">
<title>%3</title>
<polygon fill="white" stroke="none" points="-4,4 -4,-976 1475.74,-976 1475.74,4 -4,4"/>
<!-- StatCJump0 -->
<g id="node1" class="node"><title>StatCJump0</title>
<ellipse fill="none" stroke="black" cx="325.696" cy="-738" rx="53.8905" ry="18"/>
<text text-anchor="middle" x="325.696" y="-734.3" font-family="Times,serif" font-size="14.00">StatCJump0</text>
</g>
<!-- LT0 -->
<g id="node2" class="node"><title>LT0</title>
<ellipse fill="none" stroke="black" cx="64.6955" cy="-666" rx="27" ry="18"/>
<text text-anchor="middle" x="64.6955" y="-662.3" font-family="Times,serif" font-size="14.00">LT0</text>
</g>
<!-- StatCJump0&#45;&gt;LT0 -->
<g id="edge1" class="edge"><title>StatCJump0&#45;&gt;LT0</title>
<path fill="none" stroke="black" d="M278.774,-728.926C232.684,-720.304 160.742,-704.988 100.696,-684 98.787,-683.333 96.8447,-682.596 94.9011,-681.815"/>
<polygon fill="black" stroke="black" points="95.8905,-678.428 85.3245,-677.647 93.0971,-684.847 95.8905,-678.428"/>
</g>
<!-- ExpMem0 -->
<g id="node3" class="node"><title>ExpMem0</title>
<ellipse fill="none" stroke="black" cx="158.696" cy="-666" rx="48.9926" ry="18"/>
<text text-anchor="middle" x="158.696" y="-662.3" font-family="Times,serif" font-size="14.00">ExpMem0</text>
</g>
<!-- StatCJump0&#45;&gt;ExpMem0 -->
<g id="edge2" class="edge"><title>StatCJump0&#45;&gt;ExpMem0</title>
<path fill="none" stroke="black" d="M293.496,-723.503C266.587,-712.224 228.073,-696.08 199.097,-683.935"/>
<polygon fill="black" stroke="black" points="200.242,-680.62 189.667,-679.982 197.536,-687.076 200.242,-680.62"/>
</g>
<!-- ExpCall1 -->
<g id="node4" class="node"><title>ExpCall1</title>
<ellipse fill="none" stroke="black" cx="269.696" cy="-666" rx="44.393" ry="18"/>
<text text-anchor="middle" x="269.696" y="-662.3" font-family="Times,serif" font-size="14.00">ExpCall1</text>
</g>
<!-- StatCJump0&#45;&gt;ExpCall1 -->
<g id="edge3" class="edge"><title>StatCJump0&#45;&gt;ExpCall1</title>
<path fill="none" stroke="black" d="M312.424,-720.411C305.52,-711.781 296.945,-701.062 289.293,-691.497"/>
<polygon fill="black" stroke="black" points="291.851,-689.092 282.871,-683.47 286.385,-693.465 291.851,-689.092"/>
</g>
<!-- StatLabel1 -->
<g id="node5" class="node"><title>StatLabel1</title>
<ellipse fill="none" stroke="black" cx="380.696" cy="-666" rx="48.9926" ry="18"/>
<text text-anchor="middle" x="380.696" y="-662.3" font-family="Times,serif" font-size="14.00">StatLabel1</text>
</g>
<!-- StatCJump0&#45;&gt;StatLabel1 -->
<g id="edge4" class="edge"><title>StatCJump0&#45;&gt;StatLabel1</title>
<path fill="none" stroke="black" d="M338.73,-720.411C345.511,-711.781 353.932,-701.062 361.448,-691.497"/>
<polygon fill="black" stroke="black" points="364.329,-693.496 367.755,-683.47 358.824,-689.171 364.329,-693.496"/>
</g>
<!-- StatLabel2 -->
<g id="node6" class="node"><title>StatLabel2</title>
<ellipse fill="none" stroke="black" cx="497.696" cy="-666" rx="48.9926" ry="18"/>
<text text-anchor="middle" x="497.696" y="-662.3" font-family="Times,serif" font-size="14.00">StatLabel2</text>
</g>
<!-- StatCJump0&#45;&gt;StatLabel2 -->
<g id="edge5" class="edge"><title>StatCJump0&#45;&gt;StatLabel2</title>
<path fill="none" stroke="black" d="M358.452,-723.669C386.421,-712.286 426.775,-695.863 456.848,-683.624"/>
<polygon fill="black" stroke="black" points="458.279,-686.821 466.222,-679.809 455.64,-680.337 458.279,-686.821"/>
</g>
<!-- ExpBinary0 -->
<g id="node41" class="node"><title>ExpBinary0</title>
<ellipse fill="none" stroke="black" cx="149.696" cy="-594" rx="53.0913" ry="18"/>
<text text-anchor="middle" x="149.696" y="-590.3" font-family="Times,serif" font-size="14.00">ExpBinary0</text>
</g>
<!-- ExpMem0&#45;&gt;ExpBinary0 -->
<g id="edge42" class="edge"><title>ExpMem0&#45;&gt;ExpBinary0</title>
<path fill="none" stroke="black" d="M156.471,-647.697C155.479,-639.983 154.287,-630.712 153.181,-622.112"/>
<polygon fill="black" stroke="black" points="156.641,-621.576 151.895,-612.104 149.699,-622.469 156.641,-621.576"/>
</g>
<!-- Value1: 1 -->
<g id="node46" class="node"><title>Value1: 1</title>
<ellipse fill="none" stroke="black" cx="266.696" cy="-594" rx="45.4919" ry="18"/>
<text text-anchor="middle" x="266.696" y="-590.3" font-family="Times,serif" font-size="14.00">Value1: 1</text>
</g>
<!-- ExpCall1&#45;&gt;Value1: 1 -->
<g id="edge37" class="edge"><title>ExpCall1&#45;&gt;Value1: 1</title>
<path fill="none" stroke="black" d="M268.954,-647.697C268.623,-639.983 268.226,-630.712 267.857,-622.112"/>
<polygon fill="black" stroke="black" points="271.354,-621.945 267.429,-612.104 264.36,-622.245 271.354,-621.945"/>
</g>
<!-- Label1: L0 -->
<g id="node17" class="node"><title>Label1: L0</title>
<ellipse fill="none" stroke="black" cx="380.696" cy="-594" rx="50.0912" ry="18"/>
<text text-anchor="middle" x="380.696" y="-590.3" font-family="Times,serif" font-size="14.00">Label1: L0</text>
</g>
<!-- StatLabel1&#45;&gt;Label1: L0 -->
<g id="edge12" class="edge"><title>StatLabel1&#45;&gt;Label1: L0</title>
<path fill="none" stroke="black" d="M380.696,-647.697C380.696,-639.983 380.696,-630.712 380.696,-622.112"/>
<polygon fill="black" stroke="black" points="384.196,-622.104 380.696,-612.104 377.196,-622.104 384.196,-622.104"/>
</g>
<!-- Label2: L1 -->
<g id="node63" class="node"><title>Label2: L1</title>
<ellipse fill="none" stroke="black" cx="498.696" cy="-594" rx="50.0912" ry="18"/>
<text text-anchor="middle" x="498.696" y="-590.3" font-family="Times,serif" font-size="14.00">Label2: L1</text>
</g>
<!-- StatLabel2&#45;&gt;Label2: L1 -->
<g id="edge57" class="edge"><title>StatLabel2&#45;&gt;Label2: L1</title>
<path fill="none" stroke="black" d="M497.943,-647.697C498.053,-639.983 498.185,-630.712 498.308,-622.112"/>
<polygon fill="black" stroke="black" points="501.808,-622.153 498.451,-612.104 494.809,-622.053 501.808,-622.153"/>
</g>
<!-- StatMove1 -->
<g id="node7" class="node"><title>StatMove1</title>
<ellipse fill="none" stroke="black" cx="1075.7" cy="-378" rx="50.0912" ry="18"/>
<text text-anchor="middle" x="1075.7" y="-374.3" font-family="Times,serif" font-size="14.00">StatMove1</text>
</g>
<!-- ExpMem2 -->
<g id="node8" class="node"><title>ExpMem2</title>
<ellipse fill="none" stroke="black" cx="897.696" cy="-306" rx="48.9926" ry="18"/>
<text text-anchor="middle" x="897.696" y="-302.3" font-family="Times,serif" font-size="14.00">ExpMem2</text>
</g>
<!-- StatMove1&#45;&gt;ExpMem2 -->
<g id="edge6" class="edge"><title>StatMove1&#45;&gt;ExpMem2</title>
<path fill="none" stroke="black" d="M1043.05,-364.161C1013.85,-352.679 970.909,-335.792 939.266,-323.348"/>
<polygon fill="black" stroke="black" points="940.424,-320.042 929.837,-319.64 937.862,-326.557 940.424,-320.042"/>
</g>
<!-- ExpBinary3 -->
<g id="node9" class="node"><title>ExpBinary3</title>
<ellipse fill="none" stroke="black" cx="1075.7" cy="-306" rx="53.0913" ry="18"/>
<text text-anchor="middle" x="1075.7" y="-302.3" font-family="Times,serif" font-size="14.00">ExpBinary3</text>
</g>
<!-- StatMove1&#45;&gt;ExpBinary3 -->
<g id="edge7" class="edge"><title>StatMove1&#45;&gt;ExpBinary3</title>
<path fill="none" stroke="black" d="M1075.7,-359.697C1075.7,-351.983 1075.7,-342.712 1075.7,-334.112"/>
<polygon fill="black" stroke="black" points="1079.2,-334.104 1075.7,-324.104 1072.2,-334.104 1079.2,-334.104"/>
</g>
<!-- ExpBinary2 -->
<g id="node18" class="node"><title>ExpBinary2</title>
<ellipse fill="none" stroke="black" cx="796.696" cy="-234" rx="53.0913" ry="18"/>
<text text-anchor="middle" x="796.696" y="-230.3" font-family="Times,serif" font-size="14.00">ExpBinary2</text>
</g>
<!-- ExpMem2&#45;&gt;ExpBinary2 -->
<g id="edge13" class="edge"><title>ExpMem2&#45;&gt;ExpBinary2</title>
<path fill="none" stroke="black" d="M875.78,-289.811C861.584,-279.972 842.894,-267.019 827.248,-256.175"/>
<polygon fill="black" stroke="black" points="829.13,-253.221 818.917,-250.401 825.142,-258.974 829.13,-253.221"/>
</g>
<!-- ExpMem4 -->
<g id="node43" class="node"><title>ExpMem4</title>
<ellipse fill="none" stroke="black" cx="1279.7" cy="-234" rx="48.9926" ry="18"/>
<text text-anchor="middle" x="1279.7" y="-230.3" font-family="Times,serif" font-size="14.00">ExpMem4</text>
</g>
<!-- ExpBinary3&#45;&gt;ExpMem4 -->
<g id="edge67" class="edge"><title>ExpBinary3&#45;&gt;ExpMem4</title>
<path fill="none" stroke="black" d="M1111.7,-292.647C1146.24,-280.793 1198.49,-262.866 1235.53,-250.154"/>
<polygon fill="black" stroke="black" points="1236.75,-253.436 1245.07,-246.88 1234.48,-246.815 1236.75,-253.436"/>
</g>
<!-- ExpMem3 -->
<g id="node71" class="node"><title>ExpMem3</title>
<ellipse fill="none" stroke="black" cx="1023.7" cy="-234" rx="48.9926" ry="18"/>
<text text-anchor="middle" x="1023.7" y="-230.3" font-family="Times,serif" font-size="14.00">ExpMem3</text>
</g>
<!-- ExpBinary3&#45;&gt;ExpMem3 -->
<g id="edge65" class="edge"><title>ExpBinary3&#45;&gt;ExpMem3</title>
<path fill="none" stroke="black" d="M1063.37,-288.411C1057.03,-279.868 1049.16,-269.278 1042.11,-259.787"/>
<polygon fill="black" stroke="black" points="1044.7,-257.41 1035.93,-251.47 1039.08,-261.585 1044.7,-257.41"/>
</g>
<!-- Times0 -->
<g id="node72" class="node"><title>Times0</title>
<ellipse fill="none" stroke="black" cx="1127.7" cy="-234" rx="37.8943" ry="18"/>
<text text-anchor="middle" x="1127.7" y="-230.3" font-family="Times,serif" font-size="14.00">Times0</text>
</g>
<!-- ExpBinary3&#45;&gt;Times0 -->
<g id="edge66" class="edge"><title>ExpBinary3&#45;&gt;Times0</title>
<path fill="none" stroke="black" d="M1088.02,-288.411C1094.37,-279.868 1102.23,-269.278 1109.28,-259.787"/>
<polygon fill="black" stroke="black" points="1112.31,-261.585 1115.46,-251.47 1106.69,-257.41 1112.31,-261.585"/>
</g>
<!-- ExpMem1 -->
<g id="node10" class="node"><title>ExpMem1</title>
<ellipse fill="none" stroke="black" cx="618.696" cy="-522" rx="48.9926" ry="18"/>
<text text-anchor="middle" x="618.696" y="-518.3" font-family="Times,serif" font-size="14.00">ExpMem1</text>
</g>
<!-- ExpBinary1 -->
<g id="node11" class="node"><title>ExpBinary1</title>
<ellipse fill="none" stroke="black" cx="614.696" cy="-450" rx="53.0913" ry="18"/>
<text text-anchor="middle" x="614.696" y="-446.3" font-family="Times,serif" font-size="14.00">ExpBinary1</text>
</g>
<!-- ExpMem1&#45;&gt;ExpBinary1 -->
<g id="edge8" class="edge"><title>ExpMem1&#45;&gt;ExpBinary1</title>
<path fill="none" stroke="black" d="M617.707,-503.697C617.266,-495.983 616.736,-486.712 616.245,-478.112"/>
<polygon fill="black" stroke="black" points="619.738,-477.888 615.673,-468.104 612.749,-478.288 619.738,-477.888"/>
</g>
<!-- ExpCall2 -->
<g id="node20" class="node"><title>ExpCall2</title>
<ellipse fill="none" stroke="black" cx="707.696" cy="-378" rx="44.393" ry="18"/>
<text text-anchor="middle" x="707.696" y="-374.3" font-family="Times,serif" font-size="14.00">ExpCall2</text>
</g>
<!-- ExpBinary1&#45;&gt;ExpCall2 -->
<g id="edge41" class="edge"><title>ExpBinary1&#45;&gt;ExpCall2</title>
<path fill="none" stroke="black" d="M635.799,-433.116C648.669,-423.429 665.284,-410.923 679.299,-400.374"/>
<polygon fill="black" stroke="black" points="681.747,-402.912 687.632,-394.101 677.538,-397.319 681.747,-402.912"/>
</g>
<!-- ExpTemp1 -->
<g id="node26" class="node"><title>ExpTemp1</title>
<ellipse fill="none" stroke="black" cx="515.696" cy="-378" rx="50.0912" ry="18"/>
<text text-anchor="middle" x="515.696" y="-374.3" font-family="Times,serif" font-size="14.00">ExpTemp1</text>
</g>
<!-- ExpBinary1&#45;&gt;ExpTemp1 -->
<g id="edge39" class="edge"><title>ExpBinary1&#45;&gt;ExpTemp1</title>
<path fill="none" stroke="black" d="M592.724,-433.465C578.915,-423.7 560.914,-410.972 545.786,-400.276"/>
<polygon fill="black" stroke="black" points="547.451,-397.167 537.265,-394.251 543.409,-402.882 547.451,-397.167"/>
</g>
<!-- Plus1 -->
<g id="node48" class="node"><title>Plus1</title>
<ellipse fill="none" stroke="black" cx="614.696" cy="-378" rx="30.5947" ry="18"/>
<text text-anchor="middle" x="614.696" y="-374.3" font-family="Times,serif" font-size="14.00">Plus1</text>
</g>
<!-- ExpBinary1&#45;&gt;Plus1 -->
<g id="edge40" class="edge"><title>ExpBinary1&#45;&gt;Plus1</title>
<path fill="none" stroke="black" d="M614.696,-431.697C614.696,-423.983 614.696,-414.712 614.696,-406.112"/>
<polygon fill="black" stroke="black" points="618.196,-406.104 614.696,-396.104 611.196,-406.104 618.196,-406.104"/>
</g>
<!-- StatSeq4 -->
<g id="node12" class="node"><title>StatSeq4</title>
<ellipse fill="none" stroke="black" cx="734.696" cy="-666" rx="42.4939" ry="18"/>
<text text-anchor="middle" x="734.696" y="-662.3" font-family="Times,serif" font-size="14.00">StatSeq4</text>
</g>
<!-- StatMove0 -->
<g id="node13" class="node"><title>StatMove0</title>
<ellipse fill="none" stroke="black" cx="734.696" cy="-594" rx="50.0912" ry="18"/>
<text text-anchor="middle" x="734.696" y="-590.3" font-family="Times,serif" font-size="14.00">StatMove0</text>
</g>
<!-- StatSeq4&#45;&gt;StatMove0 -->
<g id="edge9" class="edge"><title>StatSeq4&#45;&gt;StatMove0</title>
<path fill="none" stroke="black" d="M734.696,-647.697C734.696,-639.983 734.696,-630.712 734.696,-622.112"/>
<polygon fill="black" stroke="black" points="738.196,-622.104 734.696,-612.104 731.196,-622.104 738.196,-622.104"/>
</g>
<!-- StatSeq5 -->
<g id="node14" class="node"><title>StatSeq5</title>
<ellipse fill="none" stroke="black" cx="845.696" cy="-594" rx="42.4939" ry="18"/>
<text text-anchor="middle" x="845.696" y="-590.3" font-family="Times,serif" font-size="14.00">StatSeq5</text>
</g>
<!-- StatSeq4&#45;&gt;StatSeq5 -->
<g id="edge10" class="edge"><title>StatSeq4&#45;&gt;StatSeq5</title>
<path fill="none" stroke="black" d="M757.426,-650.666C773.887,-640.285 796.34,-626.125 814.481,-614.685"/>
<polygon fill="black" stroke="black" points="816.404,-617.61 822.996,-609.315 812.67,-611.689 816.404,-617.61"/>
</g>
<!-- StatMove0&#45;&gt;ExpMem1 -->
<g id="edge14" class="edge"><title>StatMove0&#45;&gt;ExpMem1</title>
<path fill="none" stroke="black" d="M710.095,-578.155C693.178,-567.946 670.51,-554.267 651.981,-543.086"/>
<polygon fill="black" stroke="black" points="653.631,-539.994 643.261,-537.824 650.014,-545.987 653.631,-539.994"/>
</g>
<!-- ExpCall3 -->
<g id="node19" class="node"><title>ExpCall3</title>
<ellipse fill="none" stroke="black" cx="732.696" cy="-522" rx="44.393" ry="18"/>
<text text-anchor="middle" x="732.696" y="-518.3" font-family="Times,serif" font-size="14.00">ExpCall3</text>
</g>
<!-- StatMove0&#45;&gt;ExpCall3 -->
<g id="edge15" class="edge"><title>StatMove0&#45;&gt;ExpCall3</title>
<path fill="none" stroke="black" d="M734.201,-575.697C733.981,-567.983 733.716,-558.712 733.47,-550.112"/>
<polygon fill="black" stroke="black" points="736.968,-550 733.184,-540.104 729.971,-550.2 736.968,-550"/>
</g>
<!-- StatJump0 -->
<g id="node35" class="node"><title>StatJump0</title>
<ellipse fill="none" stroke="black" cx="845.696" cy="-522" rx="48.1917" ry="18"/>
<text text-anchor="middle" x="845.696" y="-518.3" font-family="Times,serif" font-size="14.00">StatJump0</text>
</g>
<!-- StatSeq5&#45;&gt;StatJump0 -->
<g id="edge27" class="edge"><title>StatSeq5&#45;&gt;StatJump0</title>
<path fill="none" stroke="black" d="M845.696,-575.697C845.696,-567.983 845.696,-558.712 845.696,-550.112"/>
<polygon fill="black" stroke="black" points="849.196,-550.104 845.696,-540.104 842.196,-550.104 849.196,-550.104"/>
</g>
<!-- StatSeq6 -->
<g id="node36" class="node"><title>StatSeq6</title>
<ellipse fill="none" stroke="black" cx="957.696" cy="-522" rx="42.4939" ry="18"/>
<text text-anchor="middle" x="957.696" y="-518.3" font-family="Times,serif" font-size="14.00">StatSeq6</text>
</g>
<!-- StatSeq5&#45;&gt;StatSeq6 -->
<g id="edge28" class="edge"><title>StatSeq5&#45;&gt;StatSeq6</title>
<path fill="none" stroke="black" d="M868.631,-578.666C885.24,-568.285 907.896,-554.125 926.2,-542.685"/>
<polygon fill="black" stroke="black" points="928.166,-545.583 934.791,-537.315 924.456,-539.647 928.166,-545.583"/>
</g>
<!-- ExpCall0 -->
<g id="node15" class="node"><title>ExpCall0</title>
<ellipse fill="none" stroke="black" cx="242.696" cy="-522" rx="44.393" ry="18"/>
<text text-anchor="middle" x="242.696" y="-518.3" font-family="Times,serif" font-size="14.00">ExpCall0</text>
</g>
<!-- Value0: 8 -->
<g id="node16" class="node"><title>Value0: 8</title>
<ellipse fill="none" stroke="black" cx="242.696" cy="-450" rx="45.4919" ry="18"/>
<text text-anchor="middle" x="242.696" y="-446.3" font-family="Times,serif" font-size="14.00">Value0: 8</text>
</g>
<!-- ExpCall0&#45;&gt;Value0: 8 -->
<g id="edge11" class="edge"><title>ExpCall0&#45;&gt;Value0: 8</title>
<path fill="none" stroke="black" d="M242.696,-503.697C242.696,-495.983 242.696,-486.712 242.696,-478.112"/>
<polygon fill="black" stroke="black" points="246.196,-478.104 242.696,-468.104 239.196,-478.104 246.196,-478.104"/>
</g>
<!-- ExpTemp2 -->
<g id="node54" class="node"><title>ExpTemp2</title>
<ellipse fill="none" stroke="black" cx="651.696" cy="-162" rx="50.0912" ry="18"/>
<text text-anchor="middle" x="651.696" y="-158.3" font-family="Times,serif" font-size="14.00">ExpTemp2</text>
</g>
<!-- ExpBinary2&#45;&gt;ExpTemp2 -->
<g id="edge52" class="edge"><title>ExpBinary2&#45;&gt;ExpTemp2</title>
<path fill="none" stroke="black" d="M767.353,-218.834C744.998,-208.042 714.036,-193.095 689.772,-181.382"/>
<polygon fill="black" stroke="black" points="691.027,-178.101 680.5,-176.906 687.984,-184.405 691.027,-178.101"/>
</g>
<!-- Plus2 -->
<g id="node58" class="node"><title>Plus2</title>
<ellipse fill="none" stroke="black" cx="750.696" cy="-162" rx="30.5947" ry="18"/>
<text text-anchor="middle" x="750.696" y="-158.3" font-family="Times,serif" font-size="14.00">Plus2</text>
</g>
<!-- ExpBinary2&#45;&gt;Plus2 -->
<g id="edge53" class="edge"><title>ExpBinary2&#45;&gt;Plus2</title>
<path fill="none" stroke="black" d="M785.56,-216.055C779.999,-207.592 773.163,-197.19 767.022,-187.845"/>
<polygon fill="black" stroke="black" points="769.828,-185.742 761.412,-179.307 763.978,-189.586 769.828,-185.742"/>
</g>
<!-- ExpCall4 -->
<g id="node59" class="node"><title>ExpCall4</title>
<ellipse fill="none" stroke="black" cx="843.696" cy="-162" rx="44.393" ry="18"/>
<text text-anchor="middle" x="843.696" y="-158.3" font-family="Times,serif" font-size="14.00">ExpCall4</text>
</g>
<!-- ExpBinary2&#45;&gt;ExpCall4 -->
<g id="edge54" class="edge"><title>ExpBinary2&#45;&gt;ExpCall4</title>
<path fill="none" stroke="black" d="M808.073,-216.055C813.673,-207.715 820.537,-197.491 826.741,-188.252"/>
<polygon fill="black" stroke="black" points="829.754,-190.042 832.423,-179.789 823.943,-186.14 829.754,-190.042"/>
</g>
<!-- Value3: 1 -->
<g id="node47" class="node"><title>Value3: 1</title>
<ellipse fill="none" stroke="black" cx="731.696" cy="-450" rx="45.4919" ry="18"/>
<text text-anchor="middle" x="731.696" y="-446.3" font-family="Times,serif" font-size="14.00">Value3: 1</text>
</g>
<!-- ExpCall3&#45;&gt;Value3: 1 -->
<g id="edge38" class="edge"><title>ExpCall3&#45;&gt;Value3: 1</title>
<path fill="none" stroke="black" d="M732.448,-503.697C732.338,-495.983 732.206,-486.712 732.083,-478.112"/>
<polygon fill="black" stroke="black" points="735.582,-478.053 731.94,-468.104 728.583,-478.153 735.582,-478.053"/>
</g>
<!-- Value2: 16 -->
<g id="node21" class="node"><title>Value2: 16</title>
<ellipse fill="none" stroke="black" cx="707.696" cy="-306" rx="50.0912" ry="18"/>
<text text-anchor="middle" x="707.696" y="-302.3" font-family="Times,serif" font-size="14.00">Value2: 16</text>
</g>
<!-- ExpCall2&#45;&gt;Value2: 16 -->
<g id="edge16" class="edge"><title>ExpCall2&#45;&gt;Value2: 16</title>
<path fill="none" stroke="black" d="M707.696,-359.697C707.696,-351.983 707.696,-342.712 707.696,-334.112"/>
<polygon fill="black" stroke="black" points="711.196,-334.104 707.696,-324.104 704.196,-334.104 711.196,-334.104"/>
</g>
<!-- ExpCall7 -->
<g id="node22" class="node"><title>ExpCall7</title>
<ellipse fill="none" stroke="black" cx="1223.7" cy="-594" rx="44.393" ry="18"/>
<text text-anchor="middle" x="1223.7" y="-590.3" font-family="Times,serif" font-size="14.00">ExpCall7</text>
</g>
<!-- Value7: 16 -->
<g id="node23" class="node"><title>Value7: 16</title>
<ellipse fill="none" stroke="black" cx="1223.7" cy="-522" rx="50.0912" ry="18"/>
<text text-anchor="middle" x="1223.7" y="-518.3" font-family="Times,serif" font-size="14.00">Value7: 16</text>
</g>
<!-- ExpCall7&#45;&gt;Value7: 16 -->
<g id="edge17" class="edge"><title>ExpCall7&#45;&gt;Value7: 16</title>
<path fill="none" stroke="black" d="M1223.7,-575.697C1223.7,-567.983 1223.7,-558.712 1223.7,-550.112"/>
<polygon fill="black" stroke="black" points="1227.2,-550.104 1223.7,-540.104 1220.2,-550.104 1227.2,-550.104"/>
</g>
<!-- StatSeq3 -->
<g id="node24" class="node"><title>StatSeq3</title>
<ellipse fill="none" stroke="black" cx="675.696" cy="-738" rx="42.4939" ry="18"/>
<text text-anchor="middle" x="675.696" y="-734.3" font-family="Times,serif" font-size="14.00">StatSeq3</text>
</g>
<!-- StatSeq3&#45;&gt;StatSeq4 -->
<g id="edge19" class="edge"><title>StatSeq3&#45;&gt;StatSeq4</title>
<path fill="none" stroke="black" d="M689.38,-720.765C696.826,-711.93 706.182,-700.83 714.456,-691.014"/>
<polygon fill="black" stroke="black" points="717.317,-693.049 721.086,-683.147 711.965,-688.538 717.317,-693.049"/>
</g>
<!-- StatLabel3 -->
<g id="node25" class="node"><title>StatLabel3</title>
<ellipse fill="none" stroke="black" cx="621.696" cy="-666" rx="48.9926" ry="18"/>
<text text-anchor="middle" x="621.696" y="-662.3" font-family="Times,serif" font-size="14.00">StatLabel3</text>
</g>
<!-- StatSeq3&#45;&gt;StatLabel3 -->
<g id="edge18" class="edge"><title>StatSeq3&#45;&gt;StatLabel3</title>
<path fill="none" stroke="black" d="M663.171,-720.765C656.52,-712.143 648.205,-701.365 640.77,-691.727"/>
<polygon fill="black" stroke="black" points="643.406,-689.413 634.527,-683.633 637.864,-693.689 643.406,-689.413"/>
</g>
<!-- Label3: L0 -->
<g id="node31" class="node"><title>Label3: L0</title>
<ellipse fill="none" stroke="black" cx="616.696" cy="-594" rx="50.0912" ry="18"/>
<text text-anchor="middle" x="616.696" y="-590.3" font-family="Times,serif" font-size="14.00">Label3: L0</text>
</g>
<!-- StatLabel3&#45;&gt;Label3: L0 -->
<g id="edge23" class="edge"><title>StatLabel3&#45;&gt;Label3: L0</title>
<path fill="none" stroke="black" d="M620.46,-647.697C619.909,-639.983 619.246,-630.712 618.632,-622.112"/>
<polygon fill="black" stroke="black" points="622.121,-621.83 617.917,-612.104 615.139,-622.328 622.121,-621.83"/>
</g>
<!-- Temp1: T2 -->
<g id="node27" class="node"><title>Temp1: T2</title>
<ellipse fill="none" stroke="black" cx="515.696" cy="-306" rx="50.8918" ry="18"/>
<text text-anchor="middle" x="515.696" y="-302.3" font-family="Times,serif" font-size="14.00">Temp1: T2</text>
</g>
<!-- ExpTemp1&#45;&gt;Temp1: T2 -->
<g id="edge20" class="edge"><title>ExpTemp1&#45;&gt;Temp1: T2</title>
<path fill="none" stroke="black" d="M515.696,-359.697C515.696,-351.983 515.696,-342.712 515.696,-334.112"/>
<polygon fill="black" stroke="black" points="519.196,-334.104 515.696,-324.104 512.196,-334.104 519.196,-334.104"/>
</g>
<!-- StatSeq0 -->
<g id="node28" class="node"><title>StatSeq0</title>
<ellipse fill="none" stroke="black" cx="610.696" cy="-954" rx="42.4939" ry="18"/>
<text text-anchor="middle" x="610.696" y="-950.3" font-family="Times,serif" font-size="14.00">StatSeq0</text>
</g>
<!-- StatLabel0 -->
<g id="node29" class="node"><title>StatLabel0</title>
<ellipse fill="none" stroke="black" cx="545.696" cy="-882" rx="48.9926" ry="18"/>
<text text-anchor="middle" x="545.696" y="-878.3" font-family="Times,serif" font-size="14.00">StatLabel0</text>
</g>
<!-- StatSeq0&#45;&gt;StatLabel0 -->
<g id="edge21" class="edge"><title>StatSeq0&#45;&gt;StatLabel0</title>
<path fill="none" stroke="black" d="M595.946,-937.116C587.589,-928.116 576.972,-916.682 567.653,-906.646"/>
<polygon fill="black" stroke="black" points="570.207,-904.253 560.838,-899.307 565.077,-909.017 570.207,-904.253"/>
</g>
<!-- StatSeq1 -->
<g id="node30" class="node"><title>StatSeq1</title>
<ellipse fill="none" stroke="black" cx="675.696" cy="-882" rx="42.4939" ry="18"/>
<text text-anchor="middle" x="675.696" y="-878.3" font-family="Times,serif" font-size="14.00">StatSeq1</text>
</g>
<!-- StatSeq0&#45;&gt;StatSeq1 -->
<g id="edge22" class="edge"><title>StatSeq0&#45;&gt;StatSeq1</title>
<path fill="none" stroke="black" d="M625.445,-937.116C633.802,-928.116 644.419,-916.682 653.738,-906.646"/>
<polygon fill="black" stroke="black" points="656.314,-909.017 660.553,-899.307 651.184,-904.253 656.314,-909.017"/>
</g>
<!-- Label0: Fac::Compute -->
<g id="node57" class="node"><title>Label0: Fac::Compute</title>
<ellipse fill="none" stroke="black" cx="524.696" cy="-810" rx="90.1842" ry="18"/>
<text text-anchor="middle" x="524.696" y="-806.3" font-family="Times,serif" font-size="14.00">Label0: Fac::Compute</text>
</g>
<!-- StatLabel0&#45;&gt;Label0: Fac::Compute -->
<g id="edge51" class="edge"><title>StatLabel0&#45;&gt;Label0: Fac::Compute</title>
<path fill="none" stroke="black" d="M540.612,-864.055C538.274,-856.261 535.442,-846.822 532.819,-838.079"/>
<polygon fill="black" stroke="black" points="536.104,-836.848 529.878,-828.275 529.399,-838.859 536.104,-836.848"/>
</g>
<!-- StatSeq2 -->
<g id="node32" class="node"><title>StatSeq2</title>
<ellipse fill="none" stroke="black" cx="675.696" cy="-810" rx="42.4939" ry="18"/>
<text text-anchor="middle" x="675.696" y="-806.3" font-family="Times,serif" font-size="14.00">StatSeq2</text>
</g>
<!-- StatSeq1&#45;&gt;StatSeq2 -->
<g id="edge72" class="edge"><title>StatSeq1&#45;&gt;StatSeq2</title>
<path fill="none" stroke="black" d="M675.696,-863.697C675.696,-855.983 675.696,-846.712 675.696,-838.112"/>
<polygon fill="black" stroke="black" points="679.196,-838.104 675.696,-828.104 672.196,-838.104 679.196,-838.104"/>
</g>
<!-- StatMove2 -->
<g id="node76" class="node"><title>StatMove2</title>
<ellipse fill="none" stroke="black" cx="947.696" cy="-810" rx="50.0912" ry="18"/>
<text text-anchor="middle" x="947.696" y="-806.3" font-family="Times,serif" font-size="14.00">StatMove2</text>
</g>
<!-- StatSeq1&#45;&gt;StatMove2 -->
<g id="edge73" class="edge"><title>StatSeq1&#45;&gt;StatMove2</title>
<path fill="none" stroke="black" d="M710.976,-871.92C758.744,-859.627 844.227,-837.628 898.344,-823.701"/>
<polygon fill="black" stroke="black" points="899.256,-827.08 908.068,-821.198 897.511,-820.301 899.256,-827.08"/>
</g>
<!-- StatSeq2&#45;&gt;StatCJump0 -->
<g id="edge24" class="edge"><title>StatSeq2&#45;&gt;StatCJump0</title>
<path fill="none" stroke="black" d="M644.278,-797.947C637.538,-795.796 630.42,-793.688 623.696,-792 541.791,-771.436 445.286,-755.804 384.786,-747.016"/>
<polygon fill="black" stroke="black" points="385.054,-743.519 374.658,-745.56 384.058,-750.448 385.054,-743.519"/>
</g>
<!-- StatSeq2&#45;&gt;StatSeq3 -->
<g id="edge25" class="edge"><title>StatSeq2&#45;&gt;StatSeq3</title>
<path fill="none" stroke="black" d="M675.696,-791.697C675.696,-783.983 675.696,-774.712 675.696,-766.112"/>
<polygon fill="black" stroke="black" points="679.196,-766.104 675.696,-756.104 672.196,-766.104 679.196,-766.104"/>
</g>
<!-- ExpTemp0 -->
<g id="node33" class="node"><title>ExpTemp0</title>
<ellipse fill="none" stroke="black" cx="50.6955" cy="-522" rx="50.0912" ry="18"/>
<text text-anchor="middle" x="50.6955" y="-518.3" font-family="Times,serif" font-size="14.00">ExpTemp0</text>
</g>
<!-- Temp0: T2 -->
<g id="node34" class="node"><title>Temp0: T2</title>
<ellipse fill="none" stroke="black" cx="50.6955" cy="-450" rx="50.8918" ry="18"/>
<text text-anchor="middle" x="50.6955" y="-446.3" font-family="Times,serif" font-size="14.00">Temp0: T2</text>
</g>
<!-- ExpTemp0&#45;&gt;Temp0: T2 -->
<g id="edge26" class="edge"><title>ExpTemp0&#45;&gt;Temp0: T2</title>
<path fill="none" stroke="black" d="M50.6955,-503.697C50.6955,-495.983 50.6955,-486.712 50.6955,-478.112"/>
<polygon fill="black" stroke="black" points="54.1956,-478.104 50.6955,-468.104 47.1956,-478.104 54.1956,-478.104"/>
</g>
<!-- Label4: L2 -->
<g id="node45" class="node"><title>Label4: L2</title>
<ellipse fill="none" stroke="black" cx="845.696" cy="-450" rx="50.0912" ry="18"/>
<text text-anchor="middle" x="845.696" y="-446.3" font-family="Times,serif" font-size="14.00">Label4: L2</text>
</g>
<!-- StatJump0&#45;&gt;Label4: L2 -->
<g id="edge36" class="edge"><title>StatJump0&#45;&gt;Label4: L2</title>
<path fill="none" stroke="black" d="M845.696,-503.697C845.696,-495.983 845.696,-486.712 845.696,-478.112"/>
<polygon fill="black" stroke="black" points="849.196,-478.104 845.696,-468.104 842.196,-478.104 849.196,-478.104"/>
</g>
<!-- StatLabel4 -->
<g id="node37" class="node"><title>StatLabel4</title>
<ellipse fill="none" stroke="black" cx="962.696" cy="-450" rx="48.9926" ry="18"/>
<text text-anchor="middle" x="962.696" y="-446.3" font-family="Times,serif" font-size="14.00">StatLabel4</text>
</g>
<!-- StatSeq6&#45;&gt;StatLabel4 -->
<g id="edge46" class="edge"><title>StatSeq6&#45;&gt;StatLabel4</title>
<path fill="none" stroke="black" d="M958.931,-503.697C959.482,-495.983 960.145,-486.712 960.759,-478.112"/>
<polygon fill="black" stroke="black" points="964.252,-478.328 961.474,-468.104 957.27,-477.83 964.252,-478.328"/>
</g>
<!-- StatSeq7 -->
<g id="node39" class="node"><title>StatSeq7</title>
<ellipse fill="none" stroke="black" cx="1075.7" cy="-450" rx="42.4939" ry="18"/>
<text text-anchor="middle" x="1075.7" y="-446.3" font-family="Times,serif" font-size="14.00">StatSeq7</text>
</g>
<!-- StatSeq6&#45;&gt;StatSeq7 -->
<g id="edge47" class="edge"><title>StatSeq6&#45;&gt;StatSeq7</title>
<path fill="none" stroke="black" d="M981.291,-507.003C999.138,-496.415 1023.84,-481.759 1043.51,-470.096"/>
<polygon fill="black" stroke="black" points="1045.33,-473.085 1052.14,-464.973 1041.75,-467.065 1045.33,-473.085"/>
</g>
<!-- Label5: L1 -->
<g id="node38" class="node"><title>Label5: L1</title>
<ellipse fill="none" stroke="black" cx="957.696" cy="-378" rx="50.0912" ry="18"/>
<text text-anchor="middle" x="957.696" y="-374.3" font-family="Times,serif" font-size="14.00">Label5: L1</text>
</g>
<!-- StatLabel4&#45;&gt;Label5: L1 -->
<g id="edge29" class="edge"><title>StatLabel4&#45;&gt;Label5: L1</title>
<path fill="none" stroke="black" d="M961.46,-431.697C960.909,-423.983 960.246,-414.712 959.632,-406.112"/>
<polygon fill="black" stroke="black" points="963.121,-405.83 958.917,-396.104 956.139,-406.328 963.121,-405.83"/>
</g>
<!-- StatSeq7&#45;&gt;StatMove1 -->
<g id="edge30" class="edge"><title>StatSeq7&#45;&gt;StatMove1</title>
<path fill="none" stroke="black" d="M1075.7,-431.697C1075.7,-423.983 1075.7,-414.712 1075.7,-406.112"/>
<polygon fill="black" stroke="black" points="1079.2,-406.104 1075.7,-396.104 1072.2,-406.104 1079.2,-406.104"/>
</g>
<!-- StatLabel5 -->
<g id="node40" class="node"><title>StatLabel5</title>
<ellipse fill="none" stroke="black" cx="1194.7" cy="-378" rx="48.9926" ry="18"/>
<text text-anchor="middle" x="1194.7" y="-374.3" font-family="Times,serif" font-size="14.00">StatLabel5</text>
</g>
<!-- StatSeq7&#45;&gt;StatLabel5 -->
<g id="edge31" class="edge"><title>StatSeq7&#45;&gt;StatLabel5</title>
<path fill="none" stroke="black" d="M1099.49,-435.003C1117.14,-424.623 1141.43,-410.333 1161.06,-398.785"/>
<polygon fill="black" stroke="black" points="1162.87,-401.784 1169.71,-393.697 1159.32,-395.75 1162.87,-401.784"/>
</g>
<!-- Label6: L3 -->
<g id="node62" class="node"><title>Label6: L3</title>
<ellipse fill="none" stroke="black" cx="1196.7" cy="-306" rx="50.0912" ry="18"/>
<text text-anchor="middle" x="1196.7" y="-302.3" font-family="Times,serif" font-size="14.00">Label6: L3</text>
</g>
<!-- StatLabel5&#45;&gt;Label6: L3 -->
<g id="edge56" class="edge"><title>StatLabel5&#45;&gt;Label6: L3</title>
<path fill="none" stroke="black" d="M1195.19,-359.697C1195.41,-351.983 1195.68,-342.712 1195.92,-334.112"/>
<polygon fill="black" stroke="black" points="1199.42,-334.2 1196.21,-324.104 1192.42,-334 1199.42,-334.2"/>
</g>
<!-- ExpBinary0&#45;&gt;ExpCall0 -->
<g id="edge34" class="edge"><title>ExpBinary0&#45;&gt;ExpCall0</title>
<path fill="none" stroke="black" d="M170.799,-577.116C183.669,-567.429 200.284,-554.923 214.299,-544.374"/>
<polygon fill="black" stroke="black" points="216.747,-546.912 222.632,-538.101 212.538,-541.319 216.747,-546.912"/>
</g>
<!-- ExpBinary0&#45;&gt;ExpTemp0 -->
<g id="edge32" class="edge"><title>ExpBinary0&#45;&gt;ExpTemp0</title>
<path fill="none" stroke="black" d="M127.724,-577.465C113.915,-567.7 95.9136,-554.972 80.7861,-544.276"/>
<polygon fill="black" stroke="black" points="82.4506,-541.167 72.2648,-538.251 78.4092,-546.882 82.4506,-541.167"/>
</g>
<!-- Plus0 -->
<g id="node42" class="node"><title>Plus0</title>
<ellipse fill="none" stroke="black" cx="149.696" cy="-522" rx="30.5947" ry="18"/>
<text text-anchor="middle" x="149.696" y="-518.3" font-family="Times,serif" font-size="14.00">Plus0</text>
</g>
<!-- ExpBinary0&#45;&gt;Plus0 -->
<g id="edge33" class="edge"><title>ExpBinary0&#45;&gt;Plus0</title>
<path fill="none" stroke="black" d="M149.696,-575.697C149.696,-567.983 149.696,-558.712 149.696,-550.112"/>
<polygon fill="black" stroke="black" points="153.196,-550.104 149.696,-540.104 146.196,-550.104 153.196,-550.104"/>
</g>
<!-- ExpBinary5 -->
<g id="node44" class="node"><title>ExpBinary5</title>
<ellipse fill="none" stroke="black" cx="1303.7" cy="-162" rx="53.0913" ry="18"/>
<text text-anchor="middle" x="1303.7" y="-158.3" font-family="Times,serif" font-size="14.00">ExpBinary5</text>
</g>
<!-- ExpMem4&#45;&gt;ExpBinary5 -->
<g id="edge35" class="edge"><title>ExpMem4&#45;&gt;ExpBinary5</title>
<path fill="none" stroke="black" d="M1285.51,-216.055C1288.21,-208.176 1291.48,-198.617 1294.51,-189.794"/>
<polygon fill="black" stroke="black" points="1297.84,-190.87 1297.77,-180.275 1291.22,-188.6 1297.84,-190.87"/>
</g>
<!-- ExpCall6 -->
<g id="node69" class="node"><title>ExpCall6</title>
<ellipse fill="none" stroke="black" cx="1421.7" cy="-90" rx="44.393" ry="18"/>
<text text-anchor="middle" x="1421.7" y="-86.3" font-family="Times,serif" font-size="14.00">ExpCall6</text>
</g>
<!-- ExpBinary5&#45;&gt;ExpCall6 -->
<g id="edge71" class="edge"><title>ExpBinary5&#45;&gt;ExpCall6</title>
<path fill="none" stroke="black" d="M1329.01,-145.983C1346.55,-135.579 1370.06,-121.632 1389.01,-110.389"/>
<polygon fill="black" stroke="black" points="1390.82,-113.387 1397.63,-105.275 1387.25,-107.367 1390.82,-113.387"/>
</g>
<!-- ExpTemp4 -->
<g id="node73" class="node"><title>ExpTemp4</title>
<ellipse fill="none" stroke="black" cx="1229.7" cy="-90" rx="50.0912" ry="18"/>
<text text-anchor="middle" x="1229.7" y="-86.3" font-family="Times,serif" font-size="14.00">ExpTemp4</text>
</g>
<!-- ExpBinary5&#45;&gt;ExpTemp4 -->
<g id="edge69" class="edge"><title>ExpBinary5&#45;&gt;ExpTemp4</title>
<path fill="none" stroke="black" d="M1286.53,-144.765C1276.91,-135.665 1264.75,-124.162 1254.15,-114.134"/>
<polygon fill="black" stroke="black" points="1256.44,-111.477 1246.77,-107.147 1251.63,-116.562 1256.44,-111.477"/>
</g>
<!-- Plus4 -->
<g id="node75" class="node"><title>Plus4</title>
<ellipse fill="none" stroke="black" cx="1328.7" cy="-90" rx="30.5947" ry="18"/>
<text text-anchor="middle" x="1328.7" y="-86.3" font-family="Times,serif" font-size="14.00">Plus4</text>
</g>
<!-- ExpBinary5&#45;&gt;Plus4 -->
<g id="edge70" class="edge"><title>ExpBinary5&#45;&gt;Plus4</title>
<path fill="none" stroke="black" d="M1309.75,-144.055C1312.6,-136.059 1316.08,-126.331 1319.27,-117.4"/>
<polygon fill="black" stroke="black" points="1322.63,-118.384 1322.7,-107.789 1316.04,-116.029 1322.63,-118.384"/>
</g>
<!-- ExpBinary6 -->
<g id="node49" class="node"><title>ExpBinary6</title>
<ellipse fill="none" stroke="black" cx="1080.7" cy="-666" rx="53.0913" ry="18"/>
<text text-anchor="middle" x="1080.7" y="-662.3" font-family="Times,serif" font-size="14.00">ExpBinary6</text>
</g>
<!-- ExpBinary6&#45;&gt;ExpCall7 -->
<g id="edge45" class="edge"><title>ExpBinary6&#45;&gt;ExpCall7</title>
<path fill="none" stroke="black" d="M1109.63,-650.834C1131.97,-639.901 1163.01,-624.704 1187.08,-612.924"/>
<polygon fill="black" stroke="black" points="1188.81,-615.972 1196.26,-608.432 1185.74,-609.685 1188.81,-615.972"/>
</g>
<!-- ExpTemp6 -->
<g id="node50" class="node"><title>ExpTemp6</title>
<ellipse fill="none" stroke="black" cx="1031.7" cy="-594" rx="50.0912" ry="18"/>
<text text-anchor="middle" x="1031.7" y="-590.3" font-family="Times,serif" font-size="14.00">ExpTemp6</text>
</g>
<!-- ExpBinary6&#45;&gt;ExpTemp6 -->
<g id="edge43" class="edge"><title>ExpBinary6&#45;&gt;ExpTemp6</title>
<path fill="none" stroke="black" d="M1069.08,-648.411C1063.19,-639.992 1055.9,-629.585 1049.34,-620.201"/>
<polygon fill="black" stroke="black" points="1052.17,-618.141 1043.56,-611.956 1046.43,-622.156 1052.17,-618.141"/>
</g>
<!-- Plus5 -->
<g id="node51" class="node"><title>Plus5</title>
<ellipse fill="none" stroke="black" cx="1130.7" cy="-594" rx="30.5947" ry="18"/>
<text text-anchor="middle" x="1130.7" y="-590.3" font-family="Times,serif" font-size="14.00">Plus5</text>
</g>
<!-- ExpBinary6&#45;&gt;Plus5 -->
<g id="edge44" class="edge"><title>ExpBinary6&#45;&gt;Plus5</title>
<path fill="none" stroke="black" d="M1092.54,-648.411C1098.74,-639.744 1106.43,-628.971 1113.28,-619.375"/>
<polygon fill="black" stroke="black" points="1116.31,-621.16 1119.28,-610.988 1110.61,-617.091 1116.31,-621.16"/>
</g>
<!-- Temp6: T2 -->
<g id="node77" class="node"><title>Temp6: T2</title>
<ellipse fill="none" stroke="black" cx="1068.7" cy="-522" rx="50.8918" ry="18"/>
<text text-anchor="middle" x="1068.7" y="-518.3" font-family="Times,serif" font-size="14.00">Temp6: T2</text>
</g>
<!-- ExpTemp6&#45;&gt;Temp6: T2 -->
<g id="edge76" class="edge"><title>ExpTemp6&#45;&gt;Temp6: T2</title>
<path fill="none" stroke="black" d="M1040.65,-576.055C1044.97,-567.887 1050.24,-557.912 1055.05,-548.824"/>
<polygon fill="black" stroke="black" points="1058.24,-550.266 1059.82,-539.789 1052.05,-546.994 1058.24,-550.266"/>
</g>
<!-- ExpTemp3 -->
<g id="node52" class="node"><title>ExpTemp3</title>
<ellipse fill="none" stroke="black" cx="924.696" cy="-90" rx="50.0912" ry="18"/>
<text text-anchor="middle" x="924.696" y="-86.3" font-family="Times,serif" font-size="14.00">ExpTemp3</text>
</g>
<!-- Temp3: T2 -->
<g id="node53" class="node"><title>Temp3: T2</title>
<ellipse fill="none" stroke="black" cx="924.696" cy="-18" rx="50.8918" ry="18"/>
<text text-anchor="middle" x="924.696" y="-14.3" font-family="Times,serif" font-size="14.00">Temp3: T2</text>
</g>
<!-- ExpTemp3&#45;&gt;Temp3: T2 -->
<g id="edge48" class="edge"><title>ExpTemp3&#45;&gt;Temp3: T2</title>
<path fill="none" stroke="black" d="M924.696,-71.6966C924.696,-63.9827 924.696,-54.7125 924.696,-46.1124"/>
<polygon fill="black" stroke="black" points="928.196,-46.1043 924.696,-36.1043 921.196,-46.1044 928.196,-46.1043"/>
</g>
<!-- Temp2: T2 -->
<g id="node55" class="node"><title>Temp2: T2</title>
<ellipse fill="none" stroke="black" cx="651.696" cy="-90" rx="50.8918" ry="18"/>
<text text-anchor="middle" x="651.696" y="-86.3" font-family="Times,serif" font-size="14.00">Temp2: T2</text>
</g>
<!-- ExpTemp2&#45;&gt;Temp2: T2 -->
<g id="edge49" class="edge"><title>ExpTemp2&#45;&gt;Temp2: T2</title>
<path fill="none" stroke="black" d="M651.696,-143.697C651.696,-135.983 651.696,-126.712 651.696,-118.112"/>
<polygon fill="black" stroke="black" points="655.196,-118.104 651.696,-108.104 648.196,-118.104 655.196,-118.104"/>
</g>
<!-- ExpMem5 -->
<g id="node56" class="node"><title>ExpMem5</title>
<ellipse fill="none" stroke="black" cx="1066.7" cy="-738" rx="48.9926" ry="18"/>
<text text-anchor="middle" x="1066.7" y="-734.3" font-family="Times,serif" font-size="14.00">ExpMem5</text>
</g>
<!-- ExpMem5&#45;&gt;ExpBinary6 -->
<g id="edge50" class="edge"><title>ExpMem5&#45;&gt;ExpBinary6</title>
<path fill="none" stroke="black" d="M1070.16,-719.697C1071.7,-711.983 1073.55,-702.712 1075.27,-694.112"/>
<polygon fill="black" stroke="black" points="1078.75,-694.597 1077.27,-684.104 1071.88,-693.224 1078.75,-694.597"/>
</g>
<!-- Value4: 16 -->
<g id="node64" class="node"><title>Value4: 16</title>
<ellipse fill="none" stroke="black" cx="806.696" cy="-90" rx="50.0912" ry="18"/>
<text text-anchor="middle" x="806.696" y="-86.3" font-family="Times,serif" font-size="14.00">Value4: 16</text>
</g>
<!-- ExpCall4&#45;&gt;Value4: 16 -->
<g id="edge58" class="edge"><title>ExpCall4&#45;&gt;Value4: 16</title>
<path fill="none" stroke="black" d="M834.739,-144.055C830.421,-135.887 825.149,-125.912 820.346,-116.824"/>
<polygon fill="black" stroke="black" points="823.337,-114.994 815.57,-107.789 817.148,-118.266 823.337,-114.994"/>
</g>
<!-- ExpTemp5 -->
<g id="node60" class="node"><title>ExpTemp5</title>
<ellipse fill="none" stroke="black" cx="947.696" cy="-738" rx="50.0912" ry="18"/>
<text text-anchor="middle" x="947.696" y="-734.3" font-family="Times,serif" font-size="14.00">ExpTemp5</text>
</g>
<!-- Temp5: T3 -->
<g id="node61" class="node"><title>Temp5: T3</title>
<ellipse fill="none" stroke="black" cx="947.696" cy="-666" rx="50.8918" ry="18"/>
<text text-anchor="middle" x="947.696" y="-662.3" font-family="Times,serif" font-size="14.00">Temp5: T3</text>
</g>
<!-- ExpTemp5&#45;&gt;Temp5: T3 -->
<g id="edge55" class="edge"><title>ExpTemp5&#45;&gt;Temp5: T3</title>
<path fill="none" stroke="black" d="M947.696,-719.697C947.696,-711.983 947.696,-702.712 947.696,-694.112"/>
<polygon fill="black" stroke="black" points="951.196,-694.104 947.696,-684.104 944.196,-694.104 951.196,-694.104"/>
</g>
<!-- ExpCall5 -->
<g id="node65" class="node"><title>ExpCall5</title>
<ellipse fill="none" stroke="black" cx="1116.7" cy="-90" rx="44.393" ry="18"/>
<text text-anchor="middle" x="1116.7" y="-86.3" font-family="Times,serif" font-size="14.00">ExpCall5</text>
</g>
<!-- Value5: 8 -->
<g id="node66" class="node"><title>Value5: 8</title>
<ellipse fill="none" stroke="black" cx="1115.7" cy="-18" rx="45.4919" ry="18"/>
<text text-anchor="middle" x="1115.7" y="-14.3" font-family="Times,serif" font-size="14.00">Value5: 8</text>
</g>
<!-- ExpCall5&#45;&gt;Value5: 8 -->
<g id="edge59" class="edge"><title>ExpCall5&#45;&gt;Value5: 8</title>
<path fill="none" stroke="black" d="M1116.45,-71.6966C1116.34,-63.9827 1116.21,-54.7125 1116.08,-46.1124"/>
<polygon fill="black" stroke="black" points="1119.58,-46.0533 1115.94,-36.1043 1112.58,-46.1533 1119.58,-46.0533"/>
</g>
<!-- ExpBinary4 -->
<g id="node67" class="node"><title>ExpBinary4</title>
<ellipse fill="none" stroke="black" cx="1023.7" cy="-162" rx="53.0913" ry="18"/>
<text text-anchor="middle" x="1023.7" y="-158.3" font-family="Times,serif" font-size="14.00">ExpBinary4</text>
</g>
<!-- ExpBinary4&#45;&gt;ExpTemp3 -->
<g id="edge60" class="edge"><title>ExpBinary4&#45;&gt;ExpTemp3</title>
<path fill="none" stroke="black" d="M1001.72,-145.465C987.915,-135.7 969.914,-122.972 954.786,-112.276"/>
<polygon fill="black" stroke="black" points="956.451,-109.167 946.265,-106.251 952.409,-114.882 956.451,-109.167"/>
</g>
<!-- ExpBinary4&#45;&gt;ExpCall5 -->
<g id="edge62" class="edge"><title>ExpBinary4&#45;&gt;ExpCall5</title>
<path fill="none" stroke="black" d="M1044.8,-145.116C1057.67,-135.429 1074.28,-122.923 1088.3,-112.374"/>
<polygon fill="black" stroke="black" points="1090.75,-114.912 1096.63,-106.101 1086.54,-109.319 1090.75,-114.912"/>
</g>
<!-- Plus3 -->
<g id="node68" class="node"><title>Plus3</title>
<ellipse fill="none" stroke="black" cx="1023.7" cy="-90" rx="30.5947" ry="18"/>
<text text-anchor="middle" x="1023.7" y="-86.3" font-family="Times,serif" font-size="14.00">Plus3</text>
</g>
<!-- ExpBinary4&#45;&gt;Plus3 -->
<g id="edge61" class="edge"><title>ExpBinary4&#45;&gt;Plus3</title>
<path fill="none" stroke="black" d="M1023.7,-143.697C1023.7,-135.983 1023.7,-126.712 1023.7,-118.112"/>
<polygon fill="black" stroke="black" points="1027.2,-118.104 1023.7,-108.104 1020.2,-118.104 1027.2,-118.104"/>
</g>
<!-- Value6: 16 -->
<g id="node70" class="node"><title>Value6: 16</title>
<ellipse fill="none" stroke="black" cx="1421.7" cy="-18" rx="50.0912" ry="18"/>
<text text-anchor="middle" x="1421.7" y="-14.3" font-family="Times,serif" font-size="14.00">Value6: 16</text>
</g>
<!-- ExpCall6&#45;&gt;Value6: 16 -->
<g id="edge63" class="edge"><title>ExpCall6&#45;&gt;Value6: 16</title>
<path fill="none" stroke="black" d="M1421.7,-71.6966C1421.7,-63.9827 1421.7,-54.7125 1421.7,-46.1124"/>
<polygon fill="black" stroke="black" points="1425.2,-46.1043 1421.7,-36.1043 1418.2,-46.1044 1425.2,-46.1043"/>
</g>
<!-- ExpMem3&#45;&gt;ExpBinary4 -->
<g id="edge64" class="edge"><title>ExpMem3&#45;&gt;ExpBinary4</title>
<path fill="none" stroke="black" d="M1023.7,-215.697C1023.7,-207.983 1023.7,-198.712 1023.7,-190.112"/>
<polygon fill="black" stroke="black" points="1027.2,-190.104 1023.7,-180.104 1020.2,-190.104 1027.2,-190.104"/>
</g>
<!-- Temp4: T2 -->
<g id="node74" class="node"><title>Temp4: T2</title>
<ellipse fill="none" stroke="black" cx="1229.7" cy="-18" rx="50.8918" ry="18"/>
<text text-anchor="middle" x="1229.7" y="-14.3" font-family="Times,serif" font-size="14.00">Temp4: T2</text>
</g>
<!-- ExpTemp4&#45;&gt;Temp4: T2 -->
<g id="edge68" class="edge"><title>ExpTemp4&#45;&gt;Temp4: T2</title>
<path fill="none" stroke="black" d="M1229.7,-71.6966C1229.7,-63.9827 1229.7,-54.7125 1229.7,-46.1124"/>
<polygon fill="black" stroke="black" points="1233.2,-46.1043 1229.7,-36.1043 1226.2,-46.1044 1233.2,-46.1043"/>
</g>
<!-- StatMove2&#45;&gt;ExpMem5 -->
<g id="edge75" class="edge"><title>StatMove2&#45;&gt;ExpMem5</title>
<path fill="none" stroke="black" d="M972.642,-794.326C990.175,-784.012 1013.83,-770.095 1033.04,-758.8"/>
<polygon fill="black" stroke="black" points="1034.94,-761.742 1041.78,-753.655 1031.39,-755.708 1034.94,-761.742"/>
</g>
<!-- StatMove2&#45;&gt;ExpTemp5 -->
<g id="edge74" class="edge"><title>StatMove2&#45;&gt;ExpTemp5</title>
<path fill="none" stroke="black" d="M947.696,-791.697C947.696,-783.983 947.696,-774.712 947.696,-766.112"/>
<polygon fill="black" stroke="black" points="951.196,-766.104 947.696,-756.104 944.196,-766.104 951.196,-766.104"/>
</g>
</g>
</svg>
