<?xml version="1.0" encoding="UTF-8" standalone="no"?>
<!DOCTYPE svg PUBLIC "-//W3C//DTD SVG 1.1//EN"
 "http://www.w3.org/Graphics/SVG/1.1/DTD/svg11.dtd">
<!-- Generated by graphviz version 2.38.0 (20140413.2041)
 -->
<!-- Title: %3 Pages: 1 -->
<svg width="350pt" height="404pt"
 viewBox="0.00 0.00 349.94 404.00" xmlns="http://www.w3.org/2000/svg" xmlns:xlink="http://www.w3.org/1999/xlink">
<g id="graph0" class="graph" transform="scale(1 1) rotate(0) translate(4 400)">
<title>%3</title>
<polygon fill="white" stroke="none" points="-4,4 -4,-400 345.938,-400 345.938,4 -4,4"/>
<!-- ExpList0 -->
<g id="node1" class="node"><title>ExpList0</title>
<ellipse fill="none" stroke="black" cx="287.893" cy="-162" rx="42.7926" ry="18"/>
<text text-anchor="middle" x="287.893" y="-158.3" font-family="Times,serif" font-size="14.00">ExpList0</text>
</g>
<!-- ExpConst0 -->
<g id="node2" class="node"><title>ExpConst0</title>
<ellipse fill="none" stroke="black" cx="291.893" cy="-90" rx="50.0912" ry="18"/>
<text text-anchor="middle" x="291.893" y="-86.3" font-family="Times,serif" font-size="14.00">ExpConst0</text>
</g>
<!-- ExpList0&#45;&gt;ExpConst0 -->
<g id="edge1" class="edge"><title>ExpList0&#45;&gt;ExpConst0</title>
<path fill="none" stroke="black" d="M288.881,-143.697C289.322,-135.983 289.852,-126.712 290.343,-118.112"/>
<polygon fill="black" stroke="black" points="293.839,-118.288 290.915,-108.104 286.85,-117.888 293.839,-118.288"/>
</g>
<!-- Value0: 10 -->
<g id="node5" class="node"><title>Value0: 10</title>
<ellipse fill="none" stroke="black" cx="291.893" cy="-18" rx="50.0912" ry="18"/>
<text text-anchor="middle" x="291.893" y="-14.3" font-family="Times,serif" font-size="14.00">Value0: 10</text>
</g>
<!-- ExpConst0&#45;&gt;Value0: 10 -->
<g id="edge3" class="edge"><title>ExpConst0&#45;&gt;Value0: 10</title>
<path fill="none" stroke="black" d="M291.893,-71.6966C291.893,-63.9827 291.893,-54.7125 291.893,-46.1124"/>
<polygon fill="black" stroke="black" points="295.393,-46.1043 291.893,-36.1043 288.393,-46.1044 295.393,-46.1043"/>
</g>
<!-- StatExp0 -->
<g id="node3" class="node"><title>StatExp0</title>
<ellipse fill="none" stroke="black" cx="216.893" cy="-306" rx="42.7926" ry="18"/>
<text text-anchor="middle" x="216.893" y="-302.3" font-family="Times,serif" font-size="14.00">StatExp0</text>
</g>
<!-- ExpCall0 -->
<g id="node4" class="node"><title>ExpCall0</title>
<ellipse fill="none" stroke="black" cx="225.893" cy="-234" rx="44.393" ry="18"/>
<text text-anchor="middle" x="225.893" y="-230.3" font-family="Times,serif" font-size="14.00">ExpCall0</text>
</g>
<!-- StatExp0&#45;&gt;ExpCall0 -->
<g id="edge2" class="edge"><title>StatExp0&#45;&gt;ExpCall0</title>
<path fill="none" stroke="black" d="M219.117,-287.697C220.109,-279.983 221.301,-270.712 222.407,-262.112"/>
<polygon fill="black" stroke="black" points="225.89,-262.469 223.694,-252.104 218.947,-261.576 225.89,-262.469"/>
</g>
<!-- ExpCall0&#45;&gt;ExpList0 -->
<g id="edge6" class="edge"><title>ExpCall0&#45;&gt;ExpList0</title>
<path fill="none" stroke="black" d="M240.273,-216.765C248.176,-207.841 258.126,-196.608 266.884,-186.719"/>
<polygon fill="black" stroke="black" points="269.581,-188.954 273.591,-179.147 264.34,-184.313 269.581,-188.954"/>
</g>
<!-- ExpName0 -->
<g id="node8" class="node"><title>ExpName0</title>
<ellipse fill="none" stroke="black" cx="169.893" cy="-162" rx="50.8918" ry="18"/>
<text text-anchor="middle" x="169.893" y="-158.3" font-family="Times,serif" font-size="14.00">ExpName0</text>
</g>
<!-- ExpCall0&#45;&gt;ExpName0 -->
<g id="edge5" class="edge"><title>ExpCall0&#45;&gt;ExpName0</title>
<path fill="none" stroke="black" d="M212.904,-216.765C206.007,-208.143 197.384,-197.365 189.674,-187.727"/>
<polygon fill="black" stroke="black" points="192.179,-185.256 183.199,-179.633 186.713,-189.629 192.179,-185.256"/>
</g>
<!-- StatLabel0 -->
<g id="node6" class="node"><title>StatLabel0</title>
<ellipse fill="none" stroke="black" cx="98.8927" cy="-306" rx="48.9926" ry="18"/>
<text text-anchor="middle" x="98.8927" y="-302.3" font-family="Times,serif" font-size="14.00">StatLabel0</text>
</g>
<!-- Label0: Main::main -->
<g id="node7" class="node"><title>Label0: Main::main</title>
<ellipse fill="none" stroke="black" cx="81.8927" cy="-234" rx="81.7856" ry="18"/>
<text text-anchor="middle" x="81.8927" y="-230.3" font-family="Times,serif" font-size="14.00">Label0: Main::main</text>
</g>
<!-- StatLabel0&#45;&gt;Label0: Main::main -->
<g id="edge4" class="edge"><title>StatLabel0&#45;&gt;Label0: Main::main</title>
<path fill="none" stroke="black" d="M94.7775,-288.055C92.8847,-280.261 90.5923,-270.822 88.469,-262.079"/>
<polygon fill="black" stroke="black" points="91.8494,-261.167 86.0882,-252.275 85.0471,-262.819 91.8494,-261.167"/>
</g>
<!-- Label1: print -->
<g id="node10" class="node"><title>Label1: print</title>
<ellipse fill="none" stroke="black" cx="166.893" cy="-90" rx="56.59" ry="18"/>
<text text-anchor="middle" x="166.893" y="-86.3" font-family="Times,serif" font-size="14.00">Label1: print</text>
</g>
<!-- ExpName0&#45;&gt;Label1: print -->
<g id="edge9" class="edge"><title>ExpName0&#45;&gt;Label1: print</title>
<path fill="none" stroke="black" d="M169.151,-143.697C168.821,-135.983 168.423,-126.712 168.055,-118.112"/>
<polygon fill="black" stroke="black" points="171.551,-117.945 167.626,-108.104 164.557,-118.245 171.551,-117.945"/>
</g>
<!-- StatSeq0 -->
<g id="node9" class="node"><title>StatSeq0</title>
<ellipse fill="none" stroke="black" cx="157.893" cy="-378" rx="42.4939" ry="18"/>
<text text-anchor="middle" x="157.893" y="-374.3" font-family="Times,serif" font-size="14.00">StatSeq0</text>
</g>
<!-- StatSeq0&#45;&gt;StatExp0 -->
<g id="edge8" class="edge"><title>StatSeq0&#45;&gt;StatExp0</title>
<path fill="none" stroke="black" d="M171.577,-360.765C179.023,-351.93 188.379,-340.83 196.653,-331.014"/>
<polygon fill="black" stroke="black" points="199.514,-333.049 203.283,-323.147 194.162,-328.538 199.514,-333.049"/>
</g>
<!-- StatSeq0&#45;&gt;StatLabel0 -->
<g id="edge7" class="edge"><title>StatSeq0&#45;&gt;StatLabel0</title>
<path fill="none" stroke="black" d="M144.209,-360.765C136.868,-352.056 127.674,-341.147 119.488,-331.435"/>
<polygon fill="black" stroke="black" points="122.033,-329.024 112.912,-323.633 116.681,-333.535 122.033,-329.024"/>
</g>
</g>
</svg>
