<?xml version="1.0" encoding="UTF-8" standalone="no"?>
<!DOCTYPE svg PUBLIC "-//W3C//DTD SVG 1.1//EN"
 "http://www.w3.org/Graphics/SVG/1.1/DTD/svg11.dtd">
<!-- Generated by graphviz version 2.38.0 (20140413.2041)
 -->
<!-- Title: %3 Pages: 1 -->
<svg width="1497pt" height="980pt"
 viewBox="0.00 0.00 1496.74 980.00" xmlns="http://www.w3.org/2000/svg" xmlns:xlink="http://www.w3.org/1999/xlink">
<g id="graph0" class="graph" transform="scale(1 1) rotate(0) translate(4 976)">
<title>%3</title>
<polygon fill="white" stroke="none" points="-4,4 -4,-976 1492.74,-976 1492.74,4 -4,4"/>
<!-- StatCJump0 -->
<g id="node1" class="node"><title>StatCJump0</title>
<ellipse fill="none" stroke="black" cx="325.696" cy="-738" rx="53.8905" ry="18"/>
<text text-anchor="middle" x="325.696" y="-734.3" font-family="Times,serif" font-size="14.00">StatCJump0</text>
</g>
<!-- LT0 -->
<g id="node2" class="node"><title>LT0</title>
<ellipse fill="none" stroke="black" cx="55.6955" cy="-666" rx="27" ry="18"/>
<text text-anchor="middle" x="55.6955" y="-662.3" font-family="Times,serif" font-size="14.00">LT0</text>
</g>
<!-- StatCJump0&#45;&gt;LT0 -->
<g id="edge1" class="edge"><title>StatCJump0&#45;&gt;LT0</title>
<path fill="none" stroke="black" d="M278.238,-729.393C230.358,-720.993 154.703,-705.72 91.6955,-684 89.7842,-683.341 87.8396,-682.611 85.8944,-681.834"/>
<polygon fill="black" stroke="black" points="86.8805,-678.447 76.3135,-677.679 84.0952,-684.869 86.8805,-678.447"/>
</g>
<!-- ExpMem0 -->
<g id="node3" class="node"><title>ExpMem0</title>
<ellipse fill="none" stroke="black" cx="149.696" cy="-666" rx="48.9926" ry="18"/>
<text text-anchor="middle" x="149.696" y="-662.3" font-family="Times,serif" font-size="14.00">ExpMem0</text>
</g>
<!-- StatCJump0&#45;&gt;ExpMem0 -->
<g id="edge2" class="edge"><title>StatCJump0&#45;&gt;ExpMem0</title>
<path fill="none" stroke="black" d="M292.177,-723.669C263.468,-712.251 222.005,-695.76 191.203,-683.509"/>
<polygon fill="black" stroke="black" points="192.192,-680.136 181.607,-679.692 189.605,-686.64 192.192,-680.136"/>
</g>
<!-- ExpConst1 -->
<g id="node4" class="node"><title>ExpConst1</title>
<ellipse fill="none" stroke="black" cx="266.696" cy="-666" rx="50.0912" ry="18"/>
<text text-anchor="middle" x="266.696" y="-662.3" font-family="Times,serif" font-size="14.00">ExpConst1</text>
</g>
<!-- StatCJump0&#45;&gt;ExpConst1 -->
<g id="edge3" class="edge"><title>StatCJump0&#45;&gt;ExpConst1</title>
<path fill="none" stroke="black" d="M311.713,-720.411C304.366,-711.693 295.222,-700.845 287.099,-691.208"/>
<polygon fill="black" stroke="black" points="289.698,-688.861 280.577,-683.47 284.346,-693.372 289.698,-688.861"/>
</g>
<!-- StatLabel1 -->
<g id="node5" class="node"><title>StatLabel1</title>
<ellipse fill="none" stroke="black" cx="383.696" cy="-666" rx="48.9926" ry="18"/>
<text text-anchor="middle" x="383.696" y="-662.3" font-family="Times,serif" font-size="14.00">StatLabel1</text>
</g>
<!-- StatCJump0&#45;&gt;StatLabel1 -->
<g id="edge4" class="edge"><title>StatCJump0&#45;&gt;StatLabel1</title>
<path fill="none" stroke="black" d="M339.441,-720.411C346.664,-711.693 355.652,-700.845 363.638,-691.208"/>
<polygon fill="black" stroke="black" points="366.364,-693.403 370.049,-683.47 360.974,-688.937 366.364,-693.403"/>
</g>
<!-- StatLabel2 -->
<g id="node6" class="node"><title>StatLabel2</title>
<ellipse fill="none" stroke="black" cx="498.696" cy="-666" rx="48.9926" ry="18"/>
<text text-anchor="middle" x="498.696" y="-662.3" font-family="Times,serif" font-size="14.00">StatLabel2</text>
</g>
<!-- StatCJump0&#45;&gt;StatLabel2 -->
<g id="edge5" class="edge"><title>StatCJump0&#45;&gt;StatLabel2</title>
<path fill="none" stroke="black" d="M358.643,-723.669C386.774,-712.286 427.363,-695.863 457.61,-683.624"/>
<polygon fill="black" stroke="black" points="459.081,-686.805 467.039,-679.809 456.456,-680.316 459.081,-686.805"/>
</g>
<!-- ExpBinary0 -->
<g id="node41" class="node"><title>ExpBinary0</title>
<ellipse fill="none" stroke="black" cx="149.696" cy="-594" rx="53.0913" ry="18"/>
<text text-anchor="middle" x="149.696" y="-590.3" font-family="Times,serif" font-size="14.00">ExpBinary0</text>
</g>
<!-- ExpMem0&#45;&gt;ExpBinary0 -->
<g id="edge40" class="edge"><title>ExpMem0&#45;&gt;ExpBinary0</title>
<path fill="none" stroke="black" d="M149.696,-647.697C149.696,-639.983 149.696,-630.712 149.696,-622.112"/>
<polygon fill="black" stroke="black" points="153.196,-622.104 149.696,-612.104 146.196,-622.104 153.196,-622.104"/>
</g>
<!-- Value1: 1 -->
<g id="node51" class="node"><title>Value1: 1</title>
<ellipse fill="none" stroke="black" cx="266.696" cy="-594" rx="45.4919" ry="18"/>
<text text-anchor="middle" x="266.696" y="-590.3" font-family="Times,serif" font-size="14.00">Value1: 1</text>
</g>
<!-- ExpConst1&#45;&gt;Value1: 1 -->
<g id="edge44" class="edge"><title>ExpConst1&#45;&gt;Value1: 1</title>
<path fill="none" stroke="black" d="M266.696,-647.697C266.696,-639.983 266.696,-630.712 266.696,-622.112"/>
<polygon fill="black" stroke="black" points="270.196,-622.104 266.696,-612.104 263.196,-622.104 270.196,-622.104"/>
</g>
<!-- Label1: L0 -->
<g id="node19" class="node"><title>Label1: L0</title>
<ellipse fill="none" stroke="black" cx="380.696" cy="-594" rx="50.0912" ry="18"/>
<text text-anchor="middle" x="380.696" y="-590.3" font-family="Times,serif" font-size="14.00">Label1: L0</text>
</g>
<!-- StatLabel1&#45;&gt;Label1: L0 -->
<g id="edge13" class="edge"><title>StatLabel1&#45;&gt;Label1: L0</title>
<path fill="none" stroke="black" d="M382.954,-647.697C382.623,-639.983 382.226,-630.712 381.857,-622.112"/>
<polygon fill="black" stroke="black" points="385.354,-621.945 381.429,-612.104 378.36,-622.245 385.354,-621.945"/>
</g>
<!-- Label2: L1 -->
<g id="node35" class="node"><title>Label2: L1</title>
<ellipse fill="none" stroke="black" cx="498.696" cy="-594" rx="50.0912" ry="18"/>
<text text-anchor="middle" x="498.696" y="-590.3" font-family="Times,serif" font-size="14.00">Label2: L1</text>
</g>
<!-- StatLabel2&#45;&gt;Label2: L1 -->
<g id="edge28" class="edge"><title>StatLabel2&#45;&gt;Label2: L1</title>
<path fill="none" stroke="black" d="M498.696,-647.697C498.696,-639.983 498.696,-630.712 498.696,-622.112"/>
<polygon fill="black" stroke="black" points="502.196,-622.104 498.696,-612.104 495.196,-622.104 502.196,-622.104"/>
</g>
<!-- StatMove1 -->
<g id="node7" class="node"><title>StatMove1</title>
<ellipse fill="none" stroke="black" cx="1075.7" cy="-378" rx="50.0912" ry="18"/>
<text text-anchor="middle" x="1075.7" y="-374.3" font-family="Times,serif" font-size="14.00">StatMove1</text>
</g>
<!-- ExpMem2 -->
<g id="node8" class="node"><title>ExpMem2</title>
<ellipse fill="none" stroke="black" cx="901.696" cy="-306" rx="48.9926" ry="18"/>
<text text-anchor="middle" x="901.696" y="-302.3" font-family="Times,serif" font-size="14.00">ExpMem2</text>
</g>
<!-- StatMove1&#45;&gt;ExpMem2 -->
<g id="edge6" class="edge"><title>StatMove1&#45;&gt;ExpMem2</title>
<path fill="none" stroke="black" d="M1043.38,-363.998C1015.09,-352.617 973.824,-336.017 943.118,-323.664"/>
<polygon fill="black" stroke="black" points="944.133,-320.3 933.549,-319.815 941.52,-326.794 944.133,-320.3"/>
</g>
<!-- ExpBinary3 -->
<g id="node9" class="node"><title>ExpBinary3</title>
<ellipse fill="none" stroke="black" cx="1075.7" cy="-306" rx="53.0913" ry="18"/>
<text text-anchor="middle" x="1075.7" y="-302.3" font-family="Times,serif" font-size="14.00">ExpBinary3</text>
</g>
<!-- StatMove1&#45;&gt;ExpBinary3 -->
<g id="edge7" class="edge"><title>StatMove1&#45;&gt;ExpBinary3</title>
<path fill="none" stroke="black" d="M1075.7,-359.697C1075.7,-351.983 1075.7,-342.712 1075.7,-334.112"/>
<polygon fill="black" stroke="black" points="1079.2,-334.104 1075.7,-324.104 1072.2,-334.104 1079.2,-334.104"/>
</g>
<!-- ExpBinary2 -->
<g id="node20" class="node"><title>ExpBinary2</title>
<ellipse fill="none" stroke="black" cx="802.696" cy="-234" rx="53.0913" ry="18"/>
<text text-anchor="middle" x="802.696" y="-230.3" font-family="Times,serif" font-size="14.00">ExpBinary2</text>
</g>
<!-- ExpMem2&#45;&gt;ExpBinary2 -->
<g id="edge14" class="edge"><title>ExpMem2&#45;&gt;ExpBinary2</title>
<path fill="none" stroke="black" d="M880.214,-289.811C866.523,-280.13 848.568,-267.435 833.386,-256.7"/>
<polygon fill="black" stroke="black" points="835.006,-253.56 824.821,-250.644 830.965,-259.275 835.006,-253.56"/>
</g>
<!-- ExpMem4 -->
<g id="node44" class="node"><title>ExpMem4</title>
<ellipse fill="none" stroke="black" cx="1235.7" cy="-234" rx="48.9926" ry="18"/>
<text text-anchor="middle" x="1235.7" y="-230.3" font-family="Times,serif" font-size="14.00">ExpMem4</text>
</g>
<!-- ExpBinary3&#45;&gt;ExpMem4 -->
<g id="edge68" class="edge"><title>ExpBinary3&#45;&gt;ExpMem4</title>
<path fill="none" stroke="black" d="M1106.92,-291.337C1132.39,-280.197 1168.51,-264.393 1196.02,-252.358"/>
<polygon fill="black" stroke="black" points="1197.6,-255.487 1205.36,-248.272 1194.79,-249.074 1197.6,-255.487"/>
</g>
<!-- ExpMem3 -->
<g id="node72" class="node"><title>ExpMem3</title>
<ellipse fill="none" stroke="black" cx="1023.7" cy="-234" rx="48.9926" ry="18"/>
<text text-anchor="middle" x="1023.7" y="-230.3" font-family="Times,serif" font-size="14.00">ExpMem3</text>
</g>
<!-- ExpBinary3&#45;&gt;ExpMem3 -->
<g id="edge66" class="edge"><title>ExpBinary3&#45;&gt;ExpMem3</title>
<path fill="none" stroke="black" d="M1063.37,-288.411C1057.03,-279.868 1049.16,-269.278 1042.11,-259.787"/>
<polygon fill="black" stroke="black" points="1044.7,-257.41 1035.93,-251.47 1039.08,-261.585 1044.7,-257.41"/>
</g>
<!-- Times0 -->
<g id="node73" class="node"><title>Times0</title>
<ellipse fill="none" stroke="black" cx="1127.7" cy="-234" rx="37.8943" ry="18"/>
<text text-anchor="middle" x="1127.7" y="-230.3" font-family="Times,serif" font-size="14.00">Times0</text>
</g>
<!-- ExpBinary3&#45;&gt;Times0 -->
<g id="edge67" class="edge"><title>ExpBinary3&#45;&gt;Times0</title>
<path fill="none" stroke="black" d="M1088.02,-288.411C1094.37,-279.868 1102.23,-269.278 1109.28,-259.787"/>
<polygon fill="black" stroke="black" points="1112.31,-261.585 1115.46,-251.47 1106.69,-257.41 1112.31,-261.585"/>
</g>
<!-- ExpConst3 -->
<g id="node10" class="node"><title>ExpConst3</title>
<ellipse fill="none" stroke="black" cx="731.696" cy="-522" rx="50.0912" ry="18"/>
<text text-anchor="middle" x="731.696" y="-518.3" font-family="Times,serif" font-size="14.00">ExpConst3</text>
</g>
<!-- Value3: 1 -->
<g id="node11" class="node"><title>Value3: 1</title>
<ellipse fill="none" stroke="black" cx="731.696" cy="-450" rx="45.4919" ry="18"/>
<text text-anchor="middle" x="731.696" y="-446.3" font-family="Times,serif" font-size="14.00">Value3: 1</text>
</g>
<!-- ExpConst3&#45;&gt;Value3: 1 -->
<g id="edge8" class="edge"><title>ExpConst3&#45;&gt;Value3: 1</title>
<path fill="none" stroke="black" d="M731.696,-503.697C731.696,-495.983 731.696,-486.712 731.696,-478.112"/>
<polygon fill="black" stroke="black" points="735.196,-478.104 731.696,-468.104 728.196,-478.104 735.196,-478.104"/>
</g>
<!-- ExpConst7 -->
<g id="node12" class="node"><title>ExpConst7</title>
<ellipse fill="none" stroke="black" cx="1221.7" cy="-594" rx="50.0912" ry="18"/>
<text text-anchor="middle" x="1221.7" y="-590.3" font-family="Times,serif" font-size="14.00">ExpConst7</text>
</g>
<!-- Value7: 0 -->
<g id="node13" class="node"><title>Value7: 0</title>
<ellipse fill="none" stroke="black" cx="1221.7" cy="-522" rx="45.4919" ry="18"/>
<text text-anchor="middle" x="1221.7" y="-518.3" font-family="Times,serif" font-size="14.00">Value7: 0</text>
</g>
<!-- ExpConst7&#45;&gt;Value7: 0 -->
<g id="edge9" class="edge"><title>ExpConst7&#45;&gt;Value7: 0</title>
<path fill="none" stroke="black" d="M1221.7,-575.697C1221.7,-567.983 1221.7,-558.712 1221.7,-550.112"/>
<polygon fill="black" stroke="black" points="1225.2,-550.104 1221.7,-540.104 1218.2,-550.104 1225.2,-550.104"/>
</g>
<!-- StatSeq4 -->
<g id="node14" class="node"><title>StatSeq4</title>
<ellipse fill="none" stroke="black" cx="734.696" cy="-666" rx="42.4939" ry="18"/>
<text text-anchor="middle" x="734.696" y="-662.3" font-family="Times,serif" font-size="14.00">StatSeq4</text>
</g>
<!-- StatMove0 -->
<g id="node15" class="node"><title>StatMove0</title>
<ellipse fill="none" stroke="black" cx="734.696" cy="-594" rx="50.0912" ry="18"/>
<text text-anchor="middle" x="734.696" y="-590.3" font-family="Times,serif" font-size="14.00">StatMove0</text>
</g>
<!-- StatSeq4&#45;&gt;StatMove0 -->
<g id="edge10" class="edge"><title>StatSeq4&#45;&gt;StatMove0</title>
<path fill="none" stroke="black" d="M734.696,-647.697C734.696,-639.983 734.696,-630.712 734.696,-622.112"/>
<polygon fill="black" stroke="black" points="738.196,-622.104 734.696,-612.104 731.196,-622.104 738.196,-622.104"/>
</g>
<!-- StatSeq5 -->
<g id="node16" class="node"><title>StatSeq5</title>
<ellipse fill="none" stroke="black" cx="847.696" cy="-594" rx="42.4939" ry="18"/>
<text text-anchor="middle" x="847.696" y="-590.3" font-family="Times,serif" font-size="14.00">StatSeq5</text>
</g>
<!-- StatSeq4&#45;&gt;StatSeq5 -->
<g id="edge11" class="edge"><title>StatSeq4&#45;&gt;StatSeq5</title>
<path fill="none" stroke="black" d="M757.563,-650.834C774.411,-640.398 797.532,-626.075 816.138,-614.549"/>
<polygon fill="black" stroke="black" points="818.204,-617.386 824.862,-609.144 814.518,-611.435 818.204,-617.386"/>
</g>
<!-- StatMove0&#45;&gt;ExpConst3 -->
<g id="edge16" class="edge"><title>StatMove0&#45;&gt;ExpConst3</title>
<path fill="none" stroke="black" d="M733.954,-575.697C733.623,-567.983 733.226,-558.712 732.857,-550.112"/>
<polygon fill="black" stroke="black" points="736.354,-549.945 732.429,-540.104 729.36,-550.245 736.354,-549.945"/>
</g>
<!-- ExpMem1 -->
<g id="node21" class="node"><title>ExpMem1</title>
<ellipse fill="none" stroke="black" cx="614.696" cy="-522" rx="48.9926" ry="18"/>
<text text-anchor="middle" x="614.696" y="-518.3" font-family="Times,serif" font-size="14.00">ExpMem1</text>
</g>
<!-- StatMove0&#45;&gt;ExpMem1 -->
<g id="edge15" class="edge"><title>StatMove0&#45;&gt;ExpMem1</title>
<path fill="none" stroke="black" d="M709.54,-578.326C691.859,-568.012 668.001,-554.095 648.638,-542.8"/>
<polygon fill="black" stroke="black" points="650.22,-539.671 639.818,-537.655 646.693,-545.717 650.22,-539.671"/>
</g>
<!-- StatJump0 -->
<g id="node17" class="node"><title>StatJump0</title>
<ellipse fill="none" stroke="black" cx="847.696" cy="-522" rx="48.1917" ry="18"/>
<text text-anchor="middle" x="847.696" y="-518.3" font-family="Times,serif" font-size="14.00">StatJump0</text>
</g>
<!-- StatSeq5&#45;&gt;StatJump0 -->
<g id="edge25" class="edge"><title>StatSeq5&#45;&gt;StatJump0</title>
<path fill="none" stroke="black" d="M847.696,-575.697C847.696,-567.983 847.696,-558.712 847.696,-550.112"/>
<polygon fill="black" stroke="black" points="851.196,-550.104 847.696,-540.104 844.196,-550.104 851.196,-550.104"/>
</g>
<!-- StatSeq6 -->
<g id="node32" class="node"><title>StatSeq6</title>
<ellipse fill="none" stroke="black" cx="959.696" cy="-522" rx="42.4939" ry="18"/>
<text text-anchor="middle" x="959.696" y="-518.3" font-family="Times,serif" font-size="14.00">StatSeq6</text>
</g>
<!-- StatSeq5&#45;&gt;StatSeq6 -->
<g id="edge26" class="edge"><title>StatSeq5&#45;&gt;StatSeq6</title>
<path fill="none" stroke="black" d="M870.631,-578.666C887.24,-568.285 909.896,-554.125 928.2,-542.685"/>
<polygon fill="black" stroke="black" points="930.166,-545.583 936.791,-537.315 926.456,-539.647 930.166,-545.583"/>
</g>
<!-- Label4: L2 -->
<g id="node18" class="node"><title>Label4: L2</title>
<ellipse fill="none" stroke="black" cx="845.696" cy="-450" rx="50.0912" ry="18"/>
<text text-anchor="middle" x="845.696" y="-446.3" font-family="Times,serif" font-size="14.00">Label4: L2</text>
</g>
<!-- StatJump0&#45;&gt;Label4: L2 -->
<g id="edge12" class="edge"><title>StatJump0&#45;&gt;Label4: L2</title>
<path fill="none" stroke="black" d="M847.201,-503.697C846.981,-495.983 846.716,-486.712 846.47,-478.112"/>
<polygon fill="black" stroke="black" points="849.968,-478 846.184,-468.104 842.971,-478.2 849.968,-478"/>
</g>
<!-- ExpTemp2 -->
<g id="node55" class="node"><title>ExpTemp2</title>
<ellipse fill="none" stroke="black" cx="654.696" cy="-162" rx="50.0912" ry="18"/>
<text text-anchor="middle" x="654.696" y="-158.3" font-family="Times,serif" font-size="14.00">ExpTemp2</text>
</g>
<!-- ExpBinary2&#45;&gt;ExpTemp2 -->
<g id="edge53" class="edge"><title>ExpBinary2&#45;&gt;ExpTemp2</title>
<path fill="none" stroke="black" d="M773.101,-219.003C750.063,-208.106 717.912,-192.9 692.926,-181.082"/>
<polygon fill="black" stroke="black" points="694.271,-177.846 683.734,-176.734 691.278,-184.174 694.271,-177.846"/>
</g>
<!-- Plus2 -->
<g id="node59" class="node"><title>Plus2</title>
<ellipse fill="none" stroke="black" cx="753.696" cy="-162" rx="30.5947" ry="18"/>
<text text-anchor="middle" x="753.696" y="-158.3" font-family="Times,serif" font-size="14.00">Plus2</text>
</g>
<!-- ExpBinary2&#45;&gt;Plus2 -->
<g id="edge54" class="edge"><title>ExpBinary2&#45;&gt;Plus2</title>
<path fill="none" stroke="black" d="M791.083,-216.411C785.016,-207.744 777.475,-196.971 770.758,-187.375"/>
<polygon fill="black" stroke="black" points="773.489,-185.173 764.887,-178.988 767.755,-189.188 773.489,-185.173"/>
</g>
<!-- ExpConst4 -->
<g id="node60" class="node"><title>ExpConst4</title>
<ellipse fill="none" stroke="black" cx="852.696" cy="-162" rx="50.0912" ry="18"/>
<text text-anchor="middle" x="852.696" y="-158.3" font-family="Times,serif" font-size="14.00">ExpConst4</text>
</g>
<!-- ExpBinary2&#45;&gt;ExpConst4 -->
<g id="edge55" class="edge"><title>ExpBinary2&#45;&gt;ExpConst4</title>
<path fill="none" stroke="black" d="M814.545,-216.411C820.559,-207.992 827.992,-197.585 834.695,-188.201"/>
<polygon fill="black" stroke="black" points="837.62,-190.128 840.584,-179.956 831.923,-186.059 837.62,-190.128"/>
</g>
<!-- ExpBinary1 -->
<g id="node40" class="node"><title>ExpBinary1</title>
<ellipse fill="none" stroke="black" cx="614.696" cy="-450" rx="53.0913" ry="18"/>
<text text-anchor="middle" x="614.696" y="-446.3" font-family="Times,serif" font-size="14.00">ExpBinary1</text>
</g>
<!-- ExpMem1&#45;&gt;ExpBinary1 -->
<g id="edge32" class="edge"><title>ExpMem1&#45;&gt;ExpBinary1</title>
<path fill="none" stroke="black" d="M614.696,-503.697C614.696,-495.983 614.696,-486.712 614.696,-478.112"/>
<polygon fill="black" stroke="black" points="618.196,-478.104 614.696,-468.104 611.196,-478.104 618.196,-478.104"/>
</g>
<!-- StatSeq3 -->
<g id="node22" class="node"><title>StatSeq3</title>
<ellipse fill="none" stroke="black" cx="679.696" cy="-738" rx="42.4939" ry="18"/>
<text text-anchor="middle" x="679.696" y="-734.3" font-family="Times,serif" font-size="14.00">StatSeq3</text>
</g>
<!-- StatSeq3&#45;&gt;StatSeq4 -->
<g id="edge18" class="edge"><title>StatSeq3&#45;&gt;StatSeq4</title>
<path fill="none" stroke="black" d="M692.452,-720.765C699.226,-712.143 707.695,-701.365 715.267,-691.727"/>
<polygon fill="black" stroke="black" points="718.2,-693.659 721.626,-683.633 712.696,-689.334 718.2,-693.659"/>
</g>
<!-- StatLabel3 -->
<g id="node23" class="node"><title>StatLabel3</title>
<ellipse fill="none" stroke="black" cx="620.696" cy="-666" rx="48.9926" ry="18"/>
<text text-anchor="middle" x="620.696" y="-662.3" font-family="Times,serif" font-size="14.00">StatLabel3</text>
</g>
<!-- StatSeq3&#45;&gt;StatLabel3 -->
<g id="edge17" class="edge"><title>StatSeq3&#45;&gt;StatLabel3</title>
<path fill="none" stroke="black" d="M666.011,-720.765C658.671,-712.056 649.476,-701.147 641.291,-691.435"/>
<polygon fill="black" stroke="black" points="643.836,-689.024 634.715,-683.633 638.484,-693.535 643.836,-689.024"/>
</g>
<!-- Label3: L0 -->
<g id="node64" class="node"><title>Label3: L0</title>
<ellipse fill="none" stroke="black" cx="616.696" cy="-594" rx="50.0912" ry="18"/>
<text text-anchor="middle" x="616.696" y="-590.3" font-family="Times,serif" font-size="14.00">Label3: L0</text>
</g>
<!-- StatLabel3&#45;&gt;Label3: L0 -->
<g id="edge58" class="edge"><title>StatLabel3&#45;&gt;Label3: L0</title>
<path fill="none" stroke="black" d="M619.707,-647.697C619.266,-639.983 618.736,-630.712 618.245,-622.112"/>
<polygon fill="black" stroke="black" points="621.738,-621.888 617.673,-612.104 614.749,-622.288 621.738,-621.888"/>
</g>
<!-- ExpTemp1 -->
<g id="node24" class="node"><title>ExpTemp1</title>
<ellipse fill="none" stroke="black" cx="515.696" cy="-378" rx="50.0912" ry="18"/>
<text text-anchor="middle" x="515.696" y="-374.3" font-family="Times,serif" font-size="14.00">ExpTemp1</text>
</g>
<!-- Temp1: FP -->
<g id="node25" class="node"><title>Temp1: FP</title>
<ellipse fill="none" stroke="black" cx="515.696" cy="-306" rx="50.8918" ry="18"/>
<text text-anchor="middle" x="515.696" y="-302.3" font-family="Times,serif" font-size="14.00">Temp1: FP</text>
</g>
<!-- ExpTemp1&#45;&gt;Temp1: FP -->
<g id="edge19" class="edge"><title>ExpTemp1&#45;&gt;Temp1: FP</title>
<path fill="none" stroke="black" d="M515.696,-359.697C515.696,-351.983 515.696,-342.712 515.696,-334.112"/>
<polygon fill="black" stroke="black" points="519.196,-334.104 515.696,-324.104 512.196,-334.104 519.196,-334.104"/>
</g>
<!-- StatSeq0 -->
<g id="node26" class="node"><title>StatSeq0</title>
<ellipse fill="none" stroke="black" cx="614.696" cy="-954" rx="42.4939" ry="18"/>
<text text-anchor="middle" x="614.696" y="-950.3" font-family="Times,serif" font-size="14.00">StatSeq0</text>
</g>
<!-- StatLabel0 -->
<g id="node27" class="node"><title>StatLabel0</title>
<ellipse fill="none" stroke="black" cx="549.696" cy="-882" rx="48.9926" ry="18"/>
<text text-anchor="middle" x="549.696" y="-878.3" font-family="Times,serif" font-size="14.00">StatLabel0</text>
</g>
<!-- StatSeq0&#45;&gt;StatLabel0 -->
<g id="edge20" class="edge"><title>StatSeq0&#45;&gt;StatLabel0</title>
<path fill="none" stroke="black" d="M599.946,-937.116C591.589,-928.116 580.972,-916.682 571.653,-906.646"/>
<polygon fill="black" stroke="black" points="574.207,-904.253 564.838,-899.307 569.077,-909.017 574.207,-904.253"/>
</g>
<!-- StatSeq1 -->
<g id="node28" class="node"><title>StatSeq1</title>
<ellipse fill="none" stroke="black" cx="679.696" cy="-882" rx="42.4939" ry="18"/>
<text text-anchor="middle" x="679.696" y="-878.3" font-family="Times,serif" font-size="14.00">StatSeq1</text>
</g>
<!-- StatSeq0&#45;&gt;StatSeq1 -->
<g id="edge21" class="edge"><title>StatSeq0&#45;&gt;StatSeq1</title>
<path fill="none" stroke="black" d="M629.445,-937.116C637.802,-928.116 648.419,-916.682 657.738,-906.646"/>
<polygon fill="black" stroke="black" points="660.314,-909.017 664.553,-899.307 655.184,-904.253 660.314,-909.017"/>
</g>
<!-- Label0: Fac::Compute -->
<g id="node58" class="node"><title>Label0: Fac::Compute</title>
<ellipse fill="none" stroke="black" cx="528.696" cy="-810" rx="90.1842" ry="18"/>
<text text-anchor="middle" x="528.696" y="-806.3" font-family="Times,serif" font-size="14.00">Label0: Fac::Compute</text>
</g>
<!-- StatLabel0&#45;&gt;Label0: Fac::Compute -->
<g id="edge52" class="edge"><title>StatLabel0&#45;&gt;Label0: Fac::Compute</title>
<path fill="none" stroke="black" d="M544.612,-864.055C542.274,-856.261 539.442,-846.822 536.819,-838.079"/>
<polygon fill="black" stroke="black" points="540.104,-836.848 533.878,-828.275 533.399,-838.859 540.104,-836.848"/>
</g>
<!-- StatSeq2 -->
<g id="node29" class="node"><title>StatSeq2</title>
<ellipse fill="none" stroke="black" cx="679.696" cy="-810" rx="42.4939" ry="18"/>
<text text-anchor="middle" x="679.696" y="-806.3" font-family="Times,serif" font-size="14.00">StatSeq2</text>
</g>
<!-- StatSeq1&#45;&gt;StatSeq2 -->
<g id="edge45" class="edge"><title>StatSeq1&#45;&gt;StatSeq2</title>
<path fill="none" stroke="black" d="M679.696,-863.697C679.696,-855.983 679.696,-846.712 679.696,-838.112"/>
<polygon fill="black" stroke="black" points="683.196,-838.104 679.696,-828.104 676.196,-838.104 683.196,-838.104"/>
</g>
<!-- StatMove2 -->
<g id="node52" class="node"><title>StatMove2</title>
<ellipse fill="none" stroke="black" cx="904.696" cy="-810" rx="50.0912" ry="18"/>
<text text-anchor="middle" x="904.696" y="-806.3" font-family="Times,serif" font-size="14.00">StatMove2</text>
</g>
<!-- StatSeq1&#45;&gt;StatMove2 -->
<g id="edge46" class="edge"><title>StatSeq1&#45;&gt;StatMove2</title>
<path fill="none" stroke="black" d="M712.895,-870.671C751.34,-858.711 814.924,-838.929 858.257,-825.447"/>
<polygon fill="black" stroke="black" points="859.485,-828.731 867.994,-822.418 857.405,-822.047 859.485,-828.731"/>
</g>
<!-- StatSeq2&#45;&gt;StatCJump0 -->
<g id="edge22" class="edge"><title>StatSeq2&#45;&gt;StatCJump0</title>
<path fill="none" stroke="black" d="M648.281,-797.935C641.541,-795.785 634.422,-793.681 627.696,-792 544.58,-771.233 446.611,-755.63 385.313,-746.906"/>
<polygon fill="black" stroke="black" points="385.443,-743.39 375.053,-745.461 384.467,-750.321 385.443,-743.39"/>
</g>
<!-- StatSeq2&#45;&gt;StatSeq3 -->
<g id="edge23" class="edge"><title>StatSeq2&#45;&gt;StatSeq3</title>
<path fill="none" stroke="black" d="M679.696,-791.697C679.696,-783.983 679.696,-774.712 679.696,-766.112"/>
<polygon fill="black" stroke="black" points="683.196,-766.104 679.696,-756.104 676.196,-766.104 683.196,-766.104"/>
</g>
<!-- ExpTemp0 -->
<g id="node30" class="node"><title>ExpTemp0</title>
<ellipse fill="none" stroke="black" cx="50.6955" cy="-522" rx="50.0912" ry="18"/>
<text text-anchor="middle" x="50.6955" y="-518.3" font-family="Times,serif" font-size="14.00">ExpTemp0</text>
</g>
<!-- Temp0: FP -->
<g id="node31" class="node"><title>Temp0: FP</title>
<ellipse fill="none" stroke="black" cx="50.6955" cy="-450" rx="50.8918" ry="18"/>
<text text-anchor="middle" x="50.6955" y="-446.3" font-family="Times,serif" font-size="14.00">Temp0: FP</text>
</g>
<!-- ExpTemp0&#45;&gt;Temp0: FP -->
<g id="edge24" class="edge"><title>ExpTemp0&#45;&gt;Temp0: FP</title>
<path fill="none" stroke="black" d="M50.6955,-503.697C50.6955,-495.983 50.6955,-486.712 50.6955,-478.112"/>
<polygon fill="black" stroke="black" points="54.1956,-478.104 50.6955,-468.104 47.1956,-478.104 54.1956,-478.104"/>
</g>
<!-- StatLabel4 -->
<g id="node33" class="node"><title>StatLabel4</title>
<ellipse fill="none" stroke="black" cx="962.696" cy="-450" rx="48.9926" ry="18"/>
<text text-anchor="middle" x="962.696" y="-446.3" font-family="Times,serif" font-size="14.00">StatLabel4</text>
</g>
<!-- StatSeq6&#45;&gt;StatLabel4 -->
<g id="edge47" class="edge"><title>StatSeq6&#45;&gt;StatLabel4</title>
<path fill="none" stroke="black" d="M960.437,-503.697C960.768,-495.983 961.165,-486.712 961.534,-478.112"/>
<polygon fill="black" stroke="black" points="965.031,-478.245 961.962,-468.104 958.037,-477.945 965.031,-478.245"/>
</g>
<!-- StatSeq7 -->
<g id="node36" class="node"><title>StatSeq7</title>
<ellipse fill="none" stroke="black" cx="1075.7" cy="-450" rx="42.4939" ry="18"/>
<text text-anchor="middle" x="1075.7" y="-446.3" font-family="Times,serif" font-size="14.00">StatSeq7</text>
</g>
<!-- StatSeq6&#45;&gt;StatSeq7 -->
<g id="edge48" class="edge"><title>StatSeq6&#45;&gt;StatSeq7</title>
<path fill="none" stroke="black" d="M983.17,-506.834C1000.54,-496.35 1024.42,-481.944 1043.56,-470.392"/>
<polygon fill="black" stroke="black" points="1045.5,-473.308 1052.26,-465.144 1041.89,-467.315 1045.5,-473.308"/>
</g>
<!-- Label5: L1 -->
<g id="node34" class="node"><title>Label5: L1</title>
<ellipse fill="none" stroke="black" cx="957.696" cy="-378" rx="50.0912" ry="18"/>
<text text-anchor="middle" x="957.696" y="-374.3" font-family="Times,serif" font-size="14.00">Label5: L1</text>
</g>
<!-- StatLabel4&#45;&gt;Label5: L1 -->
<g id="edge27" class="edge"><title>StatLabel4&#45;&gt;Label5: L1</title>
<path fill="none" stroke="black" d="M961.46,-431.697C960.909,-423.983 960.246,-414.712 959.632,-406.112"/>
<polygon fill="black" stroke="black" points="963.121,-405.83 958.917,-396.104 956.139,-406.328 963.121,-405.83"/>
</g>
<!-- StatSeq7&#45;&gt;StatMove1 -->
<g id="edge29" class="edge"><title>StatSeq7&#45;&gt;StatMove1</title>
<path fill="none" stroke="black" d="M1075.7,-431.697C1075.7,-423.983 1075.7,-414.712 1075.7,-406.112"/>
<polygon fill="black" stroke="black" points="1079.2,-406.104 1075.7,-396.104 1072.2,-406.104 1079.2,-406.104"/>
</g>
<!-- StatLabel5 -->
<g id="node37" class="node"><title>StatLabel5</title>
<ellipse fill="none" stroke="black" cx="1194.7" cy="-378" rx="48.9926" ry="18"/>
<text text-anchor="middle" x="1194.7" y="-374.3" font-family="Times,serif" font-size="14.00">StatLabel5</text>
</g>
<!-- StatSeq7&#45;&gt;StatLabel5 -->
<g id="edge30" class="edge"><title>StatSeq7&#45;&gt;StatLabel5</title>
<path fill="none" stroke="black" d="M1099.49,-435.003C1117.14,-424.623 1141.43,-410.333 1161.06,-398.785"/>
<polygon fill="black" stroke="black" points="1162.87,-401.784 1169.71,-393.697 1159.32,-395.75 1162.87,-401.784"/>
</g>
<!-- Label6: L2 -->
<g id="node63" class="node"><title>Label6: L2</title>
<ellipse fill="none" stroke="black" cx="1196.7" cy="-306" rx="50.0912" ry="18"/>
<text text-anchor="middle" x="1196.7" y="-302.3" font-family="Times,serif" font-size="14.00">Label6: L2</text>
</g>
<!-- StatLabel5&#45;&gt;Label6: L2 -->
<g id="edge57" class="edge"><title>StatLabel5&#45;&gt;Label6: L2</title>
<path fill="none" stroke="black" d="M1195.19,-359.697C1195.41,-351.983 1195.68,-342.712 1195.92,-334.112"/>
<polygon fill="black" stroke="black" points="1199.42,-334.2 1196.21,-324.104 1192.42,-334 1199.42,-334.2"/>
</g>
<!-- ExpConst6 -->
<g id="node38" class="node"><title>ExpConst6</title>
<ellipse fill="none" stroke="black" cx="1438.7" cy="-90" rx="50.0912" ry="18"/>
<text text-anchor="middle" x="1438.7" y="-86.3" font-family="Times,serif" font-size="14.00">ExpConst6</text>
</g>
<!-- Value6: 0 -->
<g id="node39" class="node"><title>Value6: 0</title>
<ellipse fill="none" stroke="black" cx="1438.7" cy="-18" rx="45.4919" ry="18"/>
<text text-anchor="middle" x="1438.7" y="-14.3" font-family="Times,serif" font-size="14.00">Value6: 0</text>
</g>
<!-- ExpConst6&#45;&gt;Value6: 0 -->
<g id="edge31" class="edge"><title>ExpConst6&#45;&gt;Value6: 0</title>
<path fill="none" stroke="black" d="M1438.7,-71.6966C1438.7,-63.9827 1438.7,-54.7125 1438.7,-46.1124"/>
<polygon fill="black" stroke="black" points="1442.2,-46.1043 1438.7,-36.1043 1435.2,-46.1044 1442.2,-46.1043"/>
</g>
<!-- ExpBinary1&#45;&gt;ExpTemp1 -->
<g id="edge37" class="edge"><title>ExpBinary1&#45;&gt;ExpTemp1</title>
<path fill="none" stroke="black" d="M592.724,-433.465C578.915,-423.7 560.914,-410.972 545.786,-400.276"/>
<polygon fill="black" stroke="black" points="547.451,-397.167 537.265,-394.251 543.409,-402.882 547.451,-397.167"/>
</g>
<!-- Plus1 -->
<g id="node46" class="node"><title>Plus1</title>
<ellipse fill="none" stroke="black" cx="614.696" cy="-378" rx="30.5947" ry="18"/>
<text text-anchor="middle" x="614.696" y="-374.3" font-family="Times,serif" font-size="14.00">Plus1</text>
</g>
<!-- ExpBinary1&#45;&gt;Plus1 -->
<g id="edge38" class="edge"><title>ExpBinary1&#45;&gt;Plus1</title>
<path fill="none" stroke="black" d="M614.696,-431.697C614.696,-423.983 614.696,-414.712 614.696,-406.112"/>
<polygon fill="black" stroke="black" points="618.196,-406.104 614.696,-396.104 611.196,-406.104 618.196,-406.104"/>
</g>
<!-- ExpConst2 -->
<g id="node47" class="node"><title>ExpConst2</title>
<ellipse fill="none" stroke="black" cx="713.696" cy="-378" rx="50.0912" ry="18"/>
<text text-anchor="middle" x="713.696" y="-374.3" font-family="Times,serif" font-size="14.00">ExpConst2</text>
</g>
<!-- ExpBinary1&#45;&gt;ExpConst2 -->
<g id="edge39" class="edge"><title>ExpBinary1&#45;&gt;ExpConst2</title>
<path fill="none" stroke="black" d="M636.667,-433.465C650.476,-423.7 668.477,-410.972 683.605,-400.276"/>
<polygon fill="black" stroke="black" points="685.982,-402.882 692.126,-394.251 681.94,-397.167 685.982,-402.882"/>
</g>
<!-- ExpBinary0&#45;&gt;ExpTemp0 -->
<g id="edge33" class="edge"><title>ExpBinary0&#45;&gt;ExpTemp0</title>
<path fill="none" stroke="black" d="M127.724,-577.465C113.915,-567.7 95.9136,-554.972 80.7861,-544.276"/>
<polygon fill="black" stroke="black" points="82.4506,-541.167 72.2648,-538.251 78.4092,-546.882 82.4506,-541.167"/>
</g>
<!-- Plus0 -->
<g id="node42" class="node"><title>Plus0</title>
<ellipse fill="none" stroke="black" cx="149.696" cy="-522" rx="30.5947" ry="18"/>
<text text-anchor="middle" x="149.696" y="-518.3" font-family="Times,serif" font-size="14.00">Plus0</text>
</g>
<!-- ExpBinary0&#45;&gt;Plus0 -->
<g id="edge34" class="edge"><title>ExpBinary0&#45;&gt;Plus0</title>
<path fill="none" stroke="black" d="M149.696,-575.697C149.696,-567.983 149.696,-558.712 149.696,-550.112"/>
<polygon fill="black" stroke="black" points="153.196,-550.104 149.696,-540.104 146.196,-550.104 153.196,-550.104"/>
</g>
<!-- ExpConst0 -->
<g id="node43" class="node"><title>ExpConst0</title>
<ellipse fill="none" stroke="black" cx="248.696" cy="-522" rx="50.0912" ry="18"/>
<text text-anchor="middle" x="248.696" y="-518.3" font-family="Times,serif" font-size="14.00">ExpConst0</text>
</g>
<!-- ExpBinary0&#45;&gt;ExpConst0 -->
<g id="edge35" class="edge"><title>ExpBinary0&#45;&gt;ExpConst0</title>
<path fill="none" stroke="black" d="M171.667,-577.465C185.476,-567.7 203.477,-554.972 218.605,-544.276"/>
<polygon fill="black" stroke="black" points="220.982,-546.882 227.126,-538.251 216.94,-541.167 220.982,-546.882"/>
</g>
<!-- Value0: 4 -->
<g id="node66" class="node"><title>Value0: 4</title>
<ellipse fill="none" stroke="black" cx="248.696" cy="-450" rx="45.4919" ry="18"/>
<text text-anchor="middle" x="248.696" y="-446.3" font-family="Times,serif" font-size="14.00">Value0: 4</text>
</g>
<!-- ExpConst0&#45;&gt;Value0: 4 -->
<g id="edge60" class="edge"><title>ExpConst0&#45;&gt;Value0: 4</title>
<path fill="none" stroke="black" d="M248.696,-503.697C248.696,-495.983 248.696,-486.712 248.696,-478.112"/>
<polygon fill="black" stroke="black" points="252.196,-478.104 248.696,-468.104 245.196,-478.104 252.196,-478.104"/>
</g>
<!-- ExpBinary5 -->
<g id="node45" class="node"><title>ExpBinary5</title>
<ellipse fill="none" stroke="black" cx="1289.7" cy="-162" rx="53.0913" ry="18"/>
<text text-anchor="middle" x="1289.7" y="-158.3" font-family="Times,serif" font-size="14.00">ExpBinary5</text>
</g>
<!-- ExpMem4&#45;&gt;ExpBinary5 -->
<g id="edge36" class="edge"><title>ExpMem4&#45;&gt;ExpBinary5</title>
<path fill="none" stroke="black" d="M1248.49,-216.411C1255.05,-207.906 1263.18,-197.372 1270.48,-187.914"/>
<polygon fill="black" stroke="black" points="1273.28,-190.012 1276.61,-179.956 1267.74,-185.736 1273.28,-190.012"/>
</g>
<!-- ExpBinary5&#45;&gt;ExpConst6 -->
<g id="edge73" class="edge"><title>ExpBinary5&#45;&gt;ExpConst6</title>
<path fill="none" stroke="black" d="M1319.49,-147.003C1342.68,-136.106 1375.05,-120.9 1400.21,-109.082"/>
<polygon fill="black" stroke="black" points="1401.9,-112.155 1409.46,-104.734 1398.92,-105.819 1401.9,-112.155"/>
</g>
<!-- ExpTemp4 -->
<g id="node74" class="node"><title>ExpTemp4</title>
<ellipse fill="none" stroke="black" cx="1240.7" cy="-90" rx="50.0912" ry="18"/>
<text text-anchor="middle" x="1240.7" y="-86.3" font-family="Times,serif" font-size="14.00">ExpTemp4</text>
</g>
<!-- ExpBinary5&#45;&gt;ExpTemp4 -->
<g id="edge71" class="edge"><title>ExpBinary5&#45;&gt;ExpTemp4</title>
<path fill="none" stroke="black" d="M1278.08,-144.411C1272.19,-135.992 1264.9,-125.585 1258.34,-116.201"/>
<polygon fill="black" stroke="black" points="1261.17,-114.141 1252.56,-107.956 1255.43,-118.156 1261.17,-114.141"/>
</g>
<!-- Plus4 -->
<g id="node76" class="node"><title>Plus4</title>
<ellipse fill="none" stroke="black" cx="1339.7" cy="-90" rx="30.5947" ry="18"/>
<text text-anchor="middle" x="1339.7" y="-86.3" font-family="Times,serif" font-size="14.00">Plus4</text>
</g>
<!-- ExpBinary5&#45;&gt;Plus4 -->
<g id="edge72" class="edge"><title>ExpBinary5&#45;&gt;Plus4</title>
<path fill="none" stroke="black" d="M1301.54,-144.411C1307.74,-135.744 1315.43,-124.971 1322.28,-115.375"/>
<polygon fill="black" stroke="black" points="1325.31,-117.16 1328.28,-106.988 1319.61,-113.091 1325.31,-117.16"/>
</g>
<!-- Value2: 0 -->
<g id="node71" class="node"><title>Value2: 0</title>
<ellipse fill="none" stroke="black" cx="713.696" cy="-306" rx="45.4919" ry="18"/>
<text text-anchor="middle" x="713.696" y="-302.3" font-family="Times,serif" font-size="14.00">Value2: 0</text>
</g>
<!-- ExpConst2&#45;&gt;Value2: 0 -->
<g id="edge65" class="edge"><title>ExpConst2&#45;&gt;Value2: 0</title>
<path fill="none" stroke="black" d="M713.696,-359.697C713.696,-351.983 713.696,-342.712 713.696,-334.112"/>
<polygon fill="black" stroke="black" points="717.196,-334.104 713.696,-324.104 710.196,-334.104 717.196,-334.104"/>
</g>
<!-- ExpBinary6 -->
<g id="node48" class="node"><title>ExpBinary6</title>
<ellipse fill="none" stroke="black" cx="1063.7" cy="-666" rx="53.0913" ry="18"/>
<text text-anchor="middle" x="1063.7" y="-662.3" font-family="Times,serif" font-size="14.00">ExpBinary6</text>
</g>
<!-- ExpBinary6&#45;&gt;ExpConst7 -->
<g id="edge43" class="edge"><title>ExpBinary6&#45;&gt;ExpConst7</title>
<path fill="none" stroke="black" d="M1094.91,-651.17C1119.93,-640.086 1155.19,-624.463 1182.18,-612.507"/>
<polygon fill="black" stroke="black" points="1183.62,-615.695 1191.35,-608.444 1180.79,-609.295 1183.62,-615.695"/>
</g>
<!-- ExpTemp6 -->
<g id="node49" class="node"><title>ExpTemp6</title>
<ellipse fill="none" stroke="black" cx="1023.7" cy="-594" rx="50.0912" ry="18"/>
<text text-anchor="middle" x="1023.7" y="-590.3" font-family="Times,serif" font-size="14.00">ExpTemp6</text>
</g>
<!-- ExpBinary6&#45;&gt;ExpTemp6 -->
<g id="edge41" class="edge"><title>ExpBinary6&#45;&gt;ExpTemp6</title>
<path fill="none" stroke="black" d="M1054.01,-648.055C1049.3,-639.801 1043.52,-629.701 1038.29,-620.538"/>
<polygon fill="black" stroke="black" points="1041.29,-618.735 1033.29,-611.789 1035.21,-622.208 1041.29,-618.735"/>
</g>
<!-- Plus5 -->
<g id="node50" class="node"><title>Plus5</title>
<ellipse fill="none" stroke="black" cx="1122.7" cy="-594" rx="30.5947" ry="18"/>
<text text-anchor="middle" x="1122.7" y="-590.3" font-family="Times,serif" font-size="14.00">Plus5</text>
</g>
<!-- ExpBinary6&#45;&gt;Plus5 -->
<g id="edge42" class="edge"><title>ExpBinary6&#45;&gt;Plus5</title>
<path fill="none" stroke="black" d="M1077.68,-648.411C1085.24,-639.441 1094.7,-628.215 1103,-618.373"/>
<polygon fill="black" stroke="black" points="1105.85,-620.413 1109.62,-610.511 1100.5,-615.901 1105.85,-620.413"/>
</g>
<!-- Temp6: FP -->
<g id="node77" class="node"><title>Temp6: FP</title>
<ellipse fill="none" stroke="black" cx="1070.7" cy="-522" rx="50.8918" ry="18"/>
<text text-anchor="middle" x="1070.7" y="-518.3" font-family="Times,serif" font-size="14.00">Temp6: FP</text>
</g>
<!-- ExpTemp6&#45;&gt;Temp6: FP -->
<g id="edge76" class="edge"><title>ExpTemp6&#45;&gt;Temp6: FP</title>
<path fill="none" stroke="black" d="M1034.83,-576.411C1040.43,-568.077 1047.33,-557.797 1053.58,-548.488"/>
<polygon fill="black" stroke="black" points="1056.64,-550.209 1059.31,-539.956 1050.83,-546.307 1056.64,-550.209"/>
</g>
<!-- ExpMem5 -->
<g id="node57" class="node"><title>ExpMem5</title>
<ellipse fill="none" stroke="black" cx="1031.7" cy="-738" rx="48.9926" ry="18"/>
<text text-anchor="middle" x="1031.7" y="-734.3" font-family="Times,serif" font-size="14.00">ExpMem5</text>
</g>
<!-- StatMove2&#45;&gt;ExpMem5 -->
<g id="edge75" class="edge"><title>StatMove2&#45;&gt;ExpMem5</title>
<path fill="none" stroke="black" d="M931.01,-794.496C949.997,-784.031 975.832,-769.791 996.578,-758.356"/>
<polygon fill="black" stroke="black" points="998.346,-761.378 1005.41,-753.485 994.967,-755.247 998.346,-761.378"/>
</g>
<!-- ExpTemp5 -->
<g id="node61" class="node"><title>ExpTemp5</title>
<ellipse fill="none" stroke="black" cx="904.696" cy="-738" rx="50.0912" ry="18"/>
<text text-anchor="middle" x="904.696" y="-734.3" font-family="Times,serif" font-size="14.00">ExpTemp5</text>
</g>
<!-- StatMove2&#45;&gt;ExpTemp5 -->
<g id="edge74" class="edge"><title>StatMove2&#45;&gt;ExpTemp5</title>
<path fill="none" stroke="black" d="M904.696,-791.697C904.696,-783.983 904.696,-774.712 904.696,-766.112"/>
<polygon fill="black" stroke="black" points="908.196,-766.104 904.696,-756.104 901.196,-766.104 908.196,-766.104"/>
</g>
<!-- ExpTemp3 -->
<g id="node53" class="node"><title>ExpTemp3</title>
<ellipse fill="none" stroke="black" cx="924.696" cy="-90" rx="50.0912" ry="18"/>
<text text-anchor="middle" x="924.696" y="-86.3" font-family="Times,serif" font-size="14.00">ExpTemp3</text>
</g>
<!-- Temp3: FP -->
<g id="node54" class="node"><title>Temp3: FP</title>
<ellipse fill="none" stroke="black" cx="924.696" cy="-18" rx="50.8918" ry="18"/>
<text text-anchor="middle" x="924.696" y="-14.3" font-family="Times,serif" font-size="14.00">Temp3: FP</text>
</g>
<!-- ExpTemp3&#45;&gt;Temp3: FP -->
<g id="edge49" class="edge"><title>ExpTemp3&#45;&gt;Temp3: FP</title>
<path fill="none" stroke="black" d="M924.696,-71.6966C924.696,-63.9827 924.696,-54.7125 924.696,-46.1124"/>
<polygon fill="black" stroke="black" points="928.196,-46.1043 924.696,-36.1043 921.196,-46.1044 928.196,-46.1043"/>
</g>
<!-- Temp2: FP -->
<g id="node56" class="node"><title>Temp2: FP</title>
<ellipse fill="none" stroke="black" cx="654.696" cy="-90" rx="50.8918" ry="18"/>
<text text-anchor="middle" x="654.696" y="-86.3" font-family="Times,serif" font-size="14.00">Temp2: FP</text>
</g>
<!-- ExpTemp2&#45;&gt;Temp2: FP -->
<g id="edge50" class="edge"><title>ExpTemp2&#45;&gt;Temp2: FP</title>
<path fill="none" stroke="black" d="M654.696,-143.697C654.696,-135.983 654.696,-126.712 654.696,-118.112"/>
<polygon fill="black" stroke="black" points="658.196,-118.104 654.696,-108.104 651.196,-118.104 658.196,-118.104"/>
</g>
<!-- ExpMem5&#45;&gt;ExpBinary6 -->
<g id="edge51" class="edge"><title>ExpMem5&#45;&gt;ExpBinary6</title>
<path fill="none" stroke="black" d="M1039.44,-720.055C1043.08,-712.091 1047.51,-702.411 1051.58,-693.51"/>
<polygon fill="black" stroke="black" points="1054.82,-694.825 1055.8,-684.275 1048.46,-691.915 1054.82,-694.825"/>
</g>
<!-- Value4: 0 -->
<g id="node65" class="node"><title>Value4: 0</title>
<ellipse fill="none" stroke="black" cx="810.696" cy="-90" rx="45.4919" ry="18"/>
<text text-anchor="middle" x="810.696" y="-86.3" font-family="Times,serif" font-size="14.00">Value4: 0</text>
</g>
<!-- ExpConst4&#45;&gt;Value4: 0 -->
<g id="edge59" class="edge"><title>ExpConst4&#45;&gt;Value4: 0</title>
<path fill="none" stroke="black" d="M842.528,-144.055C837.576,-135.801 831.516,-125.701 826.018,-116.538"/>
<polygon fill="black" stroke="black" points="828.915,-114.563 820.769,-107.789 822.913,-118.165 828.915,-114.563"/>
</g>
<!-- Temp5: RetVal -->
<g id="node62" class="node"><title>Temp5: RetVal</title>
<ellipse fill="none" stroke="black" cx="904.696" cy="-666" rx="65.7887" ry="18"/>
<text text-anchor="middle" x="904.696" y="-662.3" font-family="Times,serif" font-size="14.00">Temp5: RetVal</text>
</g>
<!-- ExpTemp5&#45;&gt;Temp5: RetVal -->
<g id="edge56" class="edge"><title>ExpTemp5&#45;&gt;Temp5: RetVal</title>
<path fill="none" stroke="black" d="M904.696,-719.697C904.696,-711.983 904.696,-702.712 904.696,-694.112"/>
<polygon fill="black" stroke="black" points="908.196,-694.104 904.696,-684.104 901.196,-694.104 908.196,-694.104"/>
</g>
<!-- ExpBinary4 -->
<g id="node67" class="node"><title>ExpBinary4</title>
<ellipse fill="none" stroke="black" cx="1023.7" cy="-162" rx="53.0913" ry="18"/>
<text text-anchor="middle" x="1023.7" y="-158.3" font-family="Times,serif" font-size="14.00">ExpBinary4</text>
</g>
<!-- ExpBinary4&#45;&gt;ExpTemp3 -->
<g id="edge61" class="edge"><title>ExpBinary4&#45;&gt;ExpTemp3</title>
<path fill="none" stroke="black" d="M1001.72,-145.465C987.915,-135.7 969.914,-122.972 954.786,-112.276"/>
<polygon fill="black" stroke="black" points="956.451,-109.167 946.265,-106.251 952.409,-114.882 956.451,-109.167"/>
</g>
<!-- Plus3 -->
<g id="node68" class="node"><title>Plus3</title>
<ellipse fill="none" stroke="black" cx="1023.7" cy="-90" rx="30.5947" ry="18"/>
<text text-anchor="middle" x="1023.7" y="-86.3" font-family="Times,serif" font-size="14.00">Plus3</text>
</g>
<!-- ExpBinary4&#45;&gt;Plus3 -->
<g id="edge62" class="edge"><title>ExpBinary4&#45;&gt;Plus3</title>
<path fill="none" stroke="black" d="M1023.7,-143.697C1023.7,-135.983 1023.7,-126.712 1023.7,-118.112"/>
<polygon fill="black" stroke="black" points="1027.2,-118.104 1023.7,-108.104 1020.2,-118.104 1027.2,-118.104"/>
</g>
<!-- ExpConst5 -->
<g id="node69" class="node"><title>ExpConst5</title>
<ellipse fill="none" stroke="black" cx="1122.7" cy="-90" rx="50.0912" ry="18"/>
<text text-anchor="middle" x="1122.7" y="-86.3" font-family="Times,serif" font-size="14.00">ExpConst5</text>
</g>
<!-- ExpBinary4&#45;&gt;ExpConst5 -->
<g id="edge63" class="edge"><title>ExpBinary4&#45;&gt;ExpConst5</title>
<path fill="none" stroke="black" d="M1045.67,-145.465C1059.48,-135.7 1077.48,-122.972 1092.6,-112.276"/>
<polygon fill="black" stroke="black" points="1094.98,-114.882 1101.13,-106.251 1090.94,-109.167 1094.98,-114.882"/>
</g>
<!-- Value5: 4 -->
<g id="node70" class="node"><title>Value5: 4</title>
<ellipse fill="none" stroke="black" cx="1122.7" cy="-18" rx="45.4919" ry="18"/>
<text text-anchor="middle" x="1122.7" y="-14.3" font-family="Times,serif" font-size="14.00">Value5: 4</text>
</g>
<!-- ExpConst5&#45;&gt;Value5: 4 -->
<g id="edge64" class="edge"><title>ExpConst5&#45;&gt;Value5: 4</title>
<path fill="none" stroke="black" d="M1122.7,-71.6966C1122.7,-63.9827 1122.7,-54.7125 1122.7,-46.1124"/>
<polygon fill="black" stroke="black" points="1126.2,-46.1043 1122.7,-36.1043 1119.2,-46.1044 1126.2,-46.1043"/>
</g>
<!-- ExpMem3&#45;&gt;ExpBinary4 -->
<g id="edge69" class="edge"><title>ExpMem3&#45;&gt;ExpBinary4</title>
<path fill="none" stroke="black" d="M1023.7,-215.697C1023.7,-207.983 1023.7,-198.712 1023.7,-190.112"/>
<polygon fill="black" stroke="black" points="1027.2,-190.104 1023.7,-180.104 1020.2,-190.104 1027.2,-190.104"/>
</g>
<!-- Temp4: FP -->
<g id="node75" class="node"><title>Temp4: FP</title>
<ellipse fill="none" stroke="black" cx="1240.7" cy="-18" rx="50.8918" ry="18"/>
<text text-anchor="middle" x="1240.7" y="-14.3" font-family="Times,serif" font-size="14.00">Temp4: FP</text>
</g>
<!-- ExpTemp4&#45;&gt;Temp4: FP -->
<g id="edge70" class="edge"><title>ExpTemp4&#45;&gt;Temp4: FP</title>
<path fill="none" stroke="black" d="M1240.7,-71.6966C1240.7,-63.9827 1240.7,-54.7125 1240.7,-46.1124"/>
<polygon fill="black" stroke="black" points="1244.2,-46.1043 1240.7,-36.1043 1237.2,-46.1044 1244.2,-46.1043"/>
</g>
</g>
</svg>
