<?xml version="1.0" encoding="UTF-8" standalone="no"?>
<!DOCTYPE svg PUBLIC "-//W3C//DTD SVG 1.1//EN"
 "http://www.w3.org/Graphics/SVG/1.1/DTD/svg11.dtd">
<!-- Generated by graphviz version 2.38.0 (20140413.2041)
 -->
<!-- Title: %3 Pages: 1 -->
<svg width="359pt" height="548pt"
 viewBox="0.00 0.00 359.49 548.00" xmlns="http://www.w3.org/2000/svg" xmlns:xlink="http://www.w3.org/1999/xlink">
<g id="graph0" class="graph" transform="scale(1 1) rotate(0) translate(4 544)">
<title>%3</title>
<polygon fill="white" stroke="none" points="-4,4 -4,-544 355.49,-544 355.49,4 -4,4"/>
<!-- StatMove0 -->
<g id="node1" class="node"><title>StatMove0</title>
<ellipse fill="none" stroke="black" cx="178.245" cy="-306" rx="50.0912" ry="18"/>
<text text-anchor="middle" x="178.245" y="-302.3" font-family="Times,serif" font-size="14.00">StatMove0</text>
</g>
<!-- ExpTemp0 -->
<g id="node2" class="node"><title>ExpTemp0</title>
<ellipse fill="none" stroke="black" cx="61.2451" cy="-234" rx="50.0912" ry="18"/>
<text text-anchor="middle" x="61.2451" y="-230.3" font-family="Times,serif" font-size="14.00">ExpTemp0</text>
</g>
<!-- StatMove0&#45;&gt;ExpTemp0 -->
<g id="edge1" class="edge"><title>StatMove0&#45;&gt;ExpTemp0</title>
<path fill="none" stroke="black" d="M153.432,-290.155C136.369,-279.946 113.506,-266.267 94.8173,-255.086"/>
<polygon fill="black" stroke="black" points="96.4004,-251.955 86.022,-249.824 92.8065,-257.962 96.4004,-251.955"/>
</g>
<!-- ExpCall0 -->
<g id="node3" class="node"><title>ExpCall0</title>
<ellipse fill="none" stroke="black" cx="179.245" cy="-234" rx="44.393" ry="18"/>
<text text-anchor="middle" x="179.245" y="-230.3" font-family="Times,serif" font-size="14.00">ExpCall0</text>
</g>
<!-- StatMove0&#45;&gt;ExpCall0 -->
<g id="edge2" class="edge"><title>StatMove0&#45;&gt;ExpCall0</title>
<path fill="none" stroke="black" d="M178.492,-287.697C178.602,-279.983 178.735,-270.712 178.858,-262.112"/>
<polygon fill="black" stroke="black" points="182.357,-262.153 179.001,-252.104 175.358,-262.053 182.357,-262.153"/>
</g>
<!-- Temp0: T17 -->
<g id="node6" class="node"><title>Temp0: T17</title>
<ellipse fill="none" stroke="black" cx="55.2451" cy="-162" rx="55.4913" ry="18"/>
<text text-anchor="middle" x="55.2451" y="-158.3" font-family="Times,serif" font-size="14.00">Temp0: T17</text>
</g>
<!-- ExpTemp0&#45;&gt;Temp0: T17 -->
<g id="edge4" class="edge"><title>ExpTemp0&#45;&gt;Temp0: T17</title>
<path fill="none" stroke="black" d="M59.762,-215.697C59.1008,-207.983 58.3062,-198.712 57.569,-190.112"/>
<polygon fill="black" stroke="black" points="61.0525,-189.769 56.7112,-180.104 54.0781,-190.367 61.0525,-189.769"/>
</g>
<!-- ExpName0 -->
<g id="node12" class="node"><title>ExpName0</title>
<ellipse fill="none" stroke="black" cx="179.245" cy="-162" rx="50.8918" ry="18"/>
<text text-anchor="middle" x="179.245" y="-158.3" font-family="Times,serif" font-size="14.00">ExpName0</text>
</g>
<!-- ExpCall0&#45;&gt;ExpName0 -->
<g id="edge10" class="edge"><title>ExpCall0&#45;&gt;ExpName0</title>
<path fill="none" stroke="black" d="M179.245,-215.697C179.245,-207.983 179.245,-198.712 179.245,-190.112"/>
<polygon fill="black" stroke="black" points="182.745,-190.104 179.245,-180.104 175.745,-190.104 182.745,-190.104"/>
</g>
<!-- ExpList0 -->
<g id="node14" class="node"><title>ExpList0</title>
<ellipse fill="none" stroke="black" cx="297.245" cy="-162" rx="42.7926" ry="18"/>
<text text-anchor="middle" x="297.245" y="-158.3" font-family="Times,serif" font-size="14.00">ExpList0</text>
</g>
<!-- ExpCall0&#45;&gt;ExpList0 -->
<g id="edge11" class="edge"><title>ExpCall0&#45;&gt;ExpList0</title>
<path fill="none" stroke="black" d="M203.124,-218.834C220.798,-208.35 245.082,-193.944 264.556,-182.392"/>
<polygon fill="black" stroke="black" points="266.587,-185.257 273.402,-177.144 263.015,-179.236 266.587,-185.257"/>
</g>
<!-- StatExp0 -->
<g id="node4" class="node"><title>StatExp0</title>
<ellipse fill="none" stroke="black" cx="227.245" cy="-450" rx="42.7926" ry="18"/>
<text text-anchor="middle" x="227.245" y="-446.3" font-family="Times,serif" font-size="14.00">StatExp0</text>
</g>
<!-- ExpEseq0 -->
<g id="node5" class="node"><title>ExpEseq0</title>
<ellipse fill="none" stroke="black" cx="237.245" cy="-378" rx="46.2923" ry="18"/>
<text text-anchor="middle" x="237.245" y="-374.3" font-family="Times,serif" font-size="14.00">ExpEseq0</text>
</g>
<!-- StatExp0&#45;&gt;ExpEseq0 -->
<g id="edge3" class="edge"><title>StatExp0&#45;&gt;ExpEseq0</title>
<path fill="none" stroke="black" d="M229.717,-431.697C230.819,-423.983 232.143,-414.712 233.372,-406.112"/>
<polygon fill="black" stroke="black" points="236.852,-406.499 234.802,-396.104 229.922,-405.509 236.852,-406.499"/>
</g>
<!-- ExpEseq0&#45;&gt;StatMove0 -->
<g id="edge13" class="edge"><title>ExpEseq0&#45;&gt;StatMove0</title>
<path fill="none" stroke="black" d="M223.561,-360.765C216.221,-352.056 207.026,-341.147 198.84,-331.435"/>
<polygon fill="black" stroke="black" points="201.386,-329.024 192.265,-323.633 196.033,-333.535 201.386,-329.024"/>
</g>
<!-- ExpTemp1 -->
<g id="node15" class="node"><title>ExpTemp1</title>
<ellipse fill="none" stroke="black" cx="296.245" cy="-306" rx="50.0912" ry="18"/>
<text text-anchor="middle" x="296.245" y="-302.3" font-family="Times,serif" font-size="14.00">ExpTemp1</text>
</g>
<!-- ExpEseq0&#45;&gt;ExpTemp1 -->
<g id="edge14" class="edge"><title>ExpEseq0&#45;&gt;ExpTemp1</title>
<path fill="none" stroke="black" d="M250.929,-360.765C258.269,-352.056 267.464,-341.147 275.65,-331.435"/>
<polygon fill="black" stroke="black" points="278.457,-333.535 282.226,-323.633 273.105,-329.024 278.457,-333.535"/>
</g>
<!-- StatSeq0 -->
<g id="node7" class="node"><title>StatSeq0</title>
<ellipse fill="none" stroke="black" cx="167.245" cy="-522" rx="42.4939" ry="18"/>
<text text-anchor="middle" x="167.245" y="-518.3" font-family="Times,serif" font-size="14.00">StatSeq0</text>
</g>
<!-- StatSeq0&#45;&gt;StatExp0 -->
<g id="edge6" class="edge"><title>StatSeq0&#45;&gt;StatExp0</title>
<path fill="none" stroke="black" d="M181.161,-504.765C188.734,-495.93 198.248,-484.83 206.662,-475.014"/>
<polygon fill="black" stroke="black" points="209.554,-477.018 213.405,-467.147 204.239,-472.462 209.554,-477.018"/>
</g>
<!-- StatLabel0 -->
<g id="node8" class="node"><title>StatLabel0</title>
<ellipse fill="none" stroke="black" cx="107.245" cy="-450" rx="48.9926" ry="18"/>
<text text-anchor="middle" x="107.245" y="-446.3" font-family="Times,serif" font-size="14.00">StatLabel0</text>
</g>
<!-- StatSeq0&#45;&gt;StatLabel0 -->
<g id="edge5" class="edge"><title>StatSeq0&#45;&gt;StatLabel0</title>
<path fill="none" stroke="black" d="M153.329,-504.765C145.864,-496.056 136.514,-485.147 128.189,-475.435"/>
<polygon fill="black" stroke="black" points="130.668,-472.948 121.502,-467.633 125.353,-477.504 130.668,-472.948"/>
</g>
<!-- Label0: Main@main -->
<g id="node9" class="node"><title>Label0: Main@main</title>
<ellipse fill="none" stroke="black" cx="88.2451" cy="-378" rx="85.2851" ry="18"/>
<text text-anchor="middle" x="88.2451" y="-374.3" font-family="Times,serif" font-size="14.00">Label0: Main@main</text>
</g>
<!-- StatLabel0&#45;&gt;Label0: Main@main -->
<g id="edge7" class="edge"><title>StatLabel0&#45;&gt;Label0: Main@main</title>
<path fill="none" stroke="black" d="M102.646,-432.055C100.53,-424.261 97.9682,-414.822 95.5951,-406.079"/>
<polygon fill="black" stroke="black" points="98.9315,-405.009 92.9341,-396.275 92.1759,-406.843 98.9315,-405.009"/>
</g>
<!-- ExpConst0 -->
<g id="node10" class="node"><title>ExpConst0</title>
<ellipse fill="none" stroke="black" cx="301.245" cy="-90" rx="50.0912" ry="18"/>
<text text-anchor="middle" x="301.245" y="-86.3" font-family="Times,serif" font-size="14.00">ExpConst0</text>
</g>
<!-- Value0: 10 -->
<g id="node11" class="node"><title>Value0: 10</title>
<ellipse fill="none" stroke="black" cx="301.245" cy="-18" rx="50.0912" ry="18"/>
<text text-anchor="middle" x="301.245" y="-14.3" font-family="Times,serif" font-size="14.00">Value0: 10</text>
</g>
<!-- ExpConst0&#45;&gt;Value0: 10 -->
<g id="edge8" class="edge"><title>ExpConst0&#45;&gt;Value0: 10</title>
<path fill="none" stroke="black" d="M301.245,-71.6966C301.245,-63.9827 301.245,-54.7125 301.245,-46.1124"/>
<polygon fill="black" stroke="black" points="304.745,-46.1043 301.245,-36.1043 297.745,-46.1044 304.745,-46.1043"/>
</g>
<!-- Label1: print -->
<g id="node13" class="node"><title>Label1: print</title>
<ellipse fill="none" stroke="black" cx="176.245" cy="-90" rx="56.59" ry="18"/>
<text text-anchor="middle" x="176.245" y="-86.3" font-family="Times,serif" font-size="14.00">Label1: print</text>
</g>
<!-- ExpName0&#45;&gt;Label1: print -->
<g id="edge9" class="edge"><title>ExpName0&#45;&gt;Label1: print</title>
<path fill="none" stroke="black" d="M178.504,-143.697C178.173,-135.983 177.776,-126.712 177.407,-118.112"/>
<polygon fill="black" stroke="black" points="180.903,-117.945 176.978,-108.104 173.91,-118.245 180.903,-117.945"/>
</g>
<!-- ExpList0&#45;&gt;ExpConst0 -->
<g id="edge12" class="edge"><title>ExpList0&#45;&gt;ExpConst0</title>
<path fill="none" stroke="black" d="M298.234,-143.697C298.675,-135.983 299.204,-126.712 299.696,-118.112"/>
<polygon fill="black" stroke="black" points="303.191,-118.288 300.268,-108.104 296.203,-117.888 303.191,-118.288"/>
</g>
<!-- Temp1: T17 -->
<g id="node16" class="node"><title>Temp1: T17</title>
<ellipse fill="none" stroke="black" cx="296.245" cy="-234" rx="55.4913" ry="18"/>
<text text-anchor="middle" x="296.245" y="-230.3" font-family="Times,serif" font-size="14.00">Temp1: T17</text>
</g>
<!-- ExpTemp1&#45;&gt;Temp1: T17 -->
<g id="edge15" class="edge"><title>ExpTemp1&#45;&gt;Temp1: T17</title>
<path fill="none" stroke="black" d="M296.245,-287.697C296.245,-279.983 296.245,-270.712 296.245,-262.112"/>
<polygon fill="black" stroke="black" points="299.745,-262.104 296.245,-252.104 292.745,-262.104 299.745,-262.104"/>
</g>
</g>
</svg>
