<?xml version="1.0" encoding="UTF-8" standalone="no"?>
<!DOCTYPE svg PUBLIC "-//W3C//DTD SVG 1.1//EN"
 "http://www.w3.org/Graphics/SVG/1.1/DTD/svg11.dtd">
<!-- Generated by graphviz version 2.38.0 (20140413.2041)
 -->
<!-- Title: %3 Pages: 1 -->
<svg width="599pt" height="260pt"
 viewBox="0.00 0.00 598.59 260.00" xmlns="http://www.w3.org/2000/svg" xmlns:xlink="http://www.w3.org/1999/xlink">
<g id="graph0" class="graph" transform="scale(1 1) rotate(0) translate(4 256)">
<title>%3</title>
<polygon fill="white" stroke="none" points="-4,4 -4,-256 594.589,-256 594.589,4 -4,4"/>
<!-- Temp0 -->
<g id="node1" class="node"><title>Temp0</title>
<ellipse fill="none" stroke="black" cx="189.795" cy="-162" rx="36.2938" ry="18"/>
<text text-anchor="middle" x="189.795" y="-158.3" font-family="Times,serif" font-size="14.00">Temp0</text>
</g>
<!-- Temp1: T148 -->
<g id="node2" class="node"><title>Temp1: T148</title>
<ellipse fill="none" stroke="black" cx="59.7947" cy="-90" rx="59.5901" ry="18"/>
<text text-anchor="middle" x="59.7947" y="-86.3" font-family="Times,serif" font-size="14.00">Temp1: T148</text>
</g>
<!-- Temp0&#45;&gt;Temp1: T148 -->
<g id="edge1" class="edge"><title>Temp0&#45;&gt;Temp1: T148</title>
<path fill="none" stroke="black" d="M165.951,-148.161C146.495,-137.685 118.681,-122.708 96.4044,-110.713"/>
<polygon fill="black" stroke="black" points="98.0125,-107.604 87.5484,-105.944 94.6938,-113.767 98.0125,-107.604"/>
</g>
<!-- Temp2 -->
<g id="node3" class="node"><title>Temp2</title>
<ellipse fill="none" stroke="black" cx="404.795" cy="-90" rx="36.2938" ry="18"/>
<text text-anchor="middle" x="404.795" y="-86.3" font-family="Times,serif" font-size="14.00">Temp2</text>
</g>
<!-- Temp3: T146 -->
<g id="node4" class="node"><title>Temp3: T146</title>
<ellipse fill="none" stroke="black" cx="392.795" cy="-18" rx="59.5901" ry="18"/>
<text text-anchor="middle" x="392.795" y="-14.3" font-family="Times,serif" font-size="14.00">Temp3: T146</text>
</g>
<!-- Temp2&#45;&gt;Temp3: T146 -->
<g id="edge2" class="edge"><title>Temp2&#45;&gt;Temp3: T146</title>
<path fill="none" stroke="black" d="M401.89,-72.055C400.568,-64.3456 398.971,-55.0269 397.486,-46.3642"/>
<polygon fill="black" stroke="black" points="400.896,-45.5401 395.756,-36.2753 393.996,-46.7229 400.896,-45.5401"/>
</g>
<!-- MoveRegister0 -->
<g id="node5" class="node"><title>MoveRegister0</title>
<ellipse fill="none" stroke="black" cx="256.795" cy="-234" rx="65.7887" ry="18"/>
<text text-anchor="middle" x="256.795" y="-230.3" font-family="Times,serif" font-size="14.00">MoveRegister0</text>
</g>
<!-- MoveRegister0&#45;&gt;Temp0 -->
<g id="edge3" class="edge"><title>MoveRegister0&#45;&gt;Temp0</title>
<path fill="none" stroke="black" d="M240.917,-216.411C232.159,-207.261 221.155,-195.765 211.602,-185.784"/>
<polygon fill="black" stroke="black" points="214.084,-183.315 204.641,-178.511 209.027,-188.155 214.084,-183.315"/>
</g>
<!-- Call0 -->
<g id="node6" class="node"><title>Call0</title>
<ellipse fill="none" stroke="black" cx="323.795" cy="-162" rx="29.795" ry="18"/>
<text text-anchor="middle" x="323.795" y="-158.3" font-family="Times,serif" font-size="14.00">Call0</text>
</g>
<!-- MoveRegister0&#45;&gt;Call0 -->
<g id="edge4" class="edge"><title>MoveRegister0&#45;&gt;Call0</title>
<path fill="none" stroke="black" d="M272.673,-216.411C281.554,-207.132 292.744,-195.441 302.39,-185.363"/>
<polygon fill="black" stroke="black" points="305.015,-187.683 309.401,-178.038 299.958,-182.842 305.015,-187.683"/>
</g>
<!-- Call0&#45;&gt;Temp2 -->
<g id="edge7" class="edge"><title>Call0&#45;&gt;Temp2</title>
<path fill="none" stroke="black" d="M340.186,-146.834C351.594,-136.976 367.015,-123.649 379.93,-112.488"/>
<polygon fill="black" stroke="black" points="382.311,-115.056 387.589,-105.869 377.734,-109.76 382.311,-115.056"/>
</g>
<!-- Temp4 -->
<g id="node7" class="node"><title>Temp4</title>
<ellipse fill="none" stroke="black" cx="518.795" cy="-90" rx="36.2938" ry="18"/>
<text text-anchor="middle" x="518.795" y="-86.3" font-family="Times,serif" font-size="14.00">Temp4</text>
</g>
<!-- Call0&#45;&gt;Temp4 -->
<g id="edge8" class="edge"><title>Call0&#45;&gt;Temp4</title>
<path fill="none" stroke="black" d="M348.888,-151.992C382.363,-139.976 441.923,-118.595 480.886,-104.608"/>
<polygon fill="black" stroke="black" points="482.091,-107.895 490.32,-101.222 479.726,-101.306 482.091,-107.895"/>
</g>
<!-- Function0: Tree@RecPrint -->
<g id="node9" class="node"><title>Function0: Tree@RecPrint</title>
<ellipse fill="none" stroke="black" cx="243.795" cy="-90" rx="106.681" ry="18"/>
<text text-anchor="middle" x="243.795" y="-86.3" font-family="Times,serif" font-size="14.00">Function0: Tree@RecPrint</text>
</g>
<!-- Call0&#45;&gt;Function0: Tree@RecPrint -->
<g id="edge6" class="edge"><title>Call0&#45;&gt;Function0: Tree@RecPrint</title>
<path fill="none" stroke="black" d="M307.606,-146.834C297.044,-137.593 283,-125.305 270.776,-114.609"/>
<polygon fill="black" stroke="black" points="272.892,-111.81 263.062,-107.859 268.283,-117.078 272.892,-111.81"/>
</g>
<!-- Temp5: T147 -->
<g id="node8" class="node"><title>Temp5: T147</title>
<ellipse fill="none" stroke="black" cx="530.795" cy="-18" rx="59.5901" ry="18"/>
<text text-anchor="middle" x="530.795" y="-14.3" font-family="Times,serif" font-size="14.00">Temp5: T147</text>
</g>
<!-- Temp4&#45;&gt;Temp5: T147 -->
<g id="edge5" class="edge"><title>Temp4&#45;&gt;Temp5: T147</title>
<path fill="none" stroke="black" d="M521.7,-72.055C523.021,-64.3456 524.619,-55.0269 526.104,-46.3642"/>
<polygon fill="black" stroke="black" points="529.593,-46.7229 527.833,-36.2753 522.694,-45.5401 529.593,-46.7229"/>
</g>
</g>
</svg>
