<?xml version="1.0" encoding="UTF-8" standalone="no"?>
<!DOCTYPE svg PUBLIC "-//W3C//DTD SVG 1.1//EN"
 "http://www.w3.org/Graphics/SVG/1.1/DTD/svg11.dtd">
<!-- Generated by graphviz version 2.38.0 (20140413.2041)
 -->
<!-- Title: %3 Pages: 1 -->
<svg width="553pt" height="260pt"
 viewBox="0.00 0.00 552.59 260.00" xmlns="http://www.w3.org/2000/svg" xmlns:xlink="http://www.w3.org/1999/xlink">
<g id="graph0" class="graph" transform="scale(1 1) rotate(0) translate(4 256)">
<title>%3</title>
<polygon fill="white" stroke="none" points="-4,4 -4,-256 548.589,-256 548.589,4 -4,4"/>
<!-- Temp0 -->
<g id="node1" class="node"><title>Temp0</title>
<ellipse fill="none" stroke="black" cx="167.795" cy="-162" rx="36.2938" ry="18"/>
<text text-anchor="middle" x="167.795" y="-158.3" font-family="Times,serif" font-size="14.00">Temp0</text>
</g>
<!-- Temp1: T114 -->
<g id="node2" class="node"><title>Temp1: T114</title>
<ellipse fill="none" stroke="black" cx="59.7947" cy="-90" rx="59.5901" ry="18"/>
<text text-anchor="middle" x="59.7947" y="-86.3" font-family="Times,serif" font-size="14.00">Temp1: T114</text>
</g>
<!-- Temp0&#45;&gt;Temp1: T114 -->
<g id="edge1" class="edge"><title>Temp0&#45;&gt;Temp1: T114</title>
<path fill="none" stroke="black" d="M146.457,-147.17C131.067,-137.195 110.006,-123.545 92.5008,-112.198"/>
<polygon fill="black" stroke="black" points="94.0146,-109.009 83.7194,-106.507 90.2073,-114.883 94.0146,-109.009"/>
</g>
<!-- Temp2 -->
<g id="node3" class="node"><title>Temp2</title>
<ellipse fill="none" stroke="black" cx="358.795" cy="-90" rx="36.2938" ry="18"/>
<text text-anchor="middle" x="358.795" y="-86.3" font-family="Times,serif" font-size="14.00">Temp2</text>
</g>
<!-- Temp3: T112 -->
<g id="node4" class="node"><title>Temp3: T112</title>
<ellipse fill="none" stroke="black" cx="346.795" cy="-18" rx="59.5901" ry="18"/>
<text text-anchor="middle" x="346.795" y="-14.3" font-family="Times,serif" font-size="14.00">Temp3: T112</text>
</g>
<!-- Temp2&#45;&gt;Temp3: T112 -->
<g id="edge2" class="edge"><title>Temp2&#45;&gt;Temp3: T112</title>
<path fill="none" stroke="black" d="M355.89,-72.055C354.568,-64.3456 352.971,-55.0269 351.486,-46.3642"/>
<polygon fill="black" stroke="black" points="354.896,-45.5401 349.756,-36.2753 347.996,-46.7229 354.896,-45.5401"/>
</g>
<!-- MoveRegister0 -->
<g id="node5" class="node"><title>MoveRegister0</title>
<ellipse fill="none" stroke="black" cx="228.795" cy="-234" rx="65.7887" ry="18"/>
<text text-anchor="middle" x="228.795" y="-230.3" font-family="Times,serif" font-size="14.00">MoveRegister0</text>
</g>
<!-- MoveRegister0&#45;&gt;Temp0 -->
<g id="edge3" class="edge"><title>MoveRegister0&#45;&gt;Temp0</title>
<path fill="none" stroke="black" d="M214.339,-216.411C206.632,-207.567 197.014,-196.531 188.525,-186.789"/>
<polygon fill="black" stroke="black" points="190.936,-184.228 181.727,-178.988 185.658,-188.827 190.936,-184.228"/>
</g>
<!-- Call0 -->
<g id="node6" class="node"><title>Call0</title>
<ellipse fill="none" stroke="black" cx="289.795" cy="-162" rx="29.795" ry="18"/>
<text text-anchor="middle" x="289.795" y="-158.3" font-family="Times,serif" font-size="14.00">Call0</text>
</g>
<!-- MoveRegister0&#45;&gt;Call0 -->
<g id="edge4" class="edge"><title>MoveRegister0&#45;&gt;Call0</title>
<path fill="none" stroke="black" d="M243.251,-216.411C251.146,-207.351 261.046,-195.99 269.684,-186.078"/>
<polygon fill="black" stroke="black" points="272.347,-188.349 276.278,-178.511 267.07,-183.751 272.347,-188.349"/>
</g>
<!-- Call0&#45;&gt;Temp2 -->
<g id="edge7" class="edge"><title>Call0&#45;&gt;Temp2</title>
<path fill="none" stroke="black" d="M304.428,-146.155C313.596,-136.854 325.603,-124.673 336.001,-114.124"/>
<polygon fill="black" stroke="black" points="338.696,-116.375 343.224,-106.797 333.711,-111.461 338.696,-116.375"/>
</g>
<!-- Temp4 -->
<g id="node7" class="node"><title>Temp4</title>
<ellipse fill="none" stroke="black" cx="472.795" cy="-90" rx="36.2938" ry="18"/>
<text text-anchor="middle" x="472.795" y="-86.3" font-family="Times,serif" font-size="14.00">Temp4</text>
</g>
<!-- Call0&#45;&gt;Temp4 -->
<g id="edge8" class="edge"><title>Call0&#45;&gt;Temp4</title>
<path fill="none" stroke="black" d="M314.475,-151.559C345.508,-139.689 399.09,-119.193 435.224,-105.371"/>
<polygon fill="black" stroke="black" points="436.831,-108.504 444.92,-101.662 434.33,-101.966 436.831,-108.504"/>
</g>
<!-- Function0: BS@Div -->
<g id="node9" class="node"><title>Function0: BS@Div</title>
<ellipse fill="none" stroke="black" cx="220.795" cy="-90" rx="83.3857" ry="18"/>
<text text-anchor="middle" x="220.795" y="-86.3" font-family="Times,serif" font-size="14.00">Function0: BS@Div</text>
</g>
<!-- Call0&#45;&gt;Function0: BS@Div -->
<g id="edge6" class="edge"><title>Call0&#45;&gt;Function0: BS@Div</title>
<path fill="none" stroke="black" d="M275.162,-146.155C266.248,-137.112 254.651,-125.347 244.459,-115.007"/>
<polygon fill="black" stroke="black" points="246.857,-112.454 237.344,-107.789 241.871,-117.368 246.857,-112.454"/>
</g>
<!-- Temp5: T113 -->
<g id="node8" class="node"><title>Temp5: T113</title>
<ellipse fill="none" stroke="black" cx="484.795" cy="-18" rx="59.5901" ry="18"/>
<text text-anchor="middle" x="484.795" y="-14.3" font-family="Times,serif" font-size="14.00">Temp5: T113</text>
</g>
<!-- Temp4&#45;&gt;Temp5: T113 -->
<g id="edge5" class="edge"><title>Temp4&#45;&gt;Temp5: T113</title>
<path fill="none" stroke="black" d="M475.7,-72.055C477.021,-64.3456 478.619,-55.0269 480.104,-46.3642"/>
<polygon fill="black" stroke="black" points="483.593,-46.7229 481.833,-36.2753 476.694,-45.5401 483.593,-46.7229"/>
</g>
</g>
</svg>
