<?xml version="1.0" encoding="UTF-8" standalone="no"?>
<!DOCTYPE svg PUBLIC "-//W3C//DTD SVG 1.1//EN"
 "http://www.w3.org/Graphics/SVG/1.1/DTD/svg11.dtd">
<!-- Generated by graphviz version 2.38.0 (20140413.2041)
 -->
<!-- Title: %3 Pages: 1 -->
<svg width="521pt" height="404pt"
 viewBox="0.00 0.00 520.64 404.00" xmlns="http://www.w3.org/2000/svg" xmlns:xlink="http://www.w3.org/1999/xlink">
<g id="graph0" class="graph" transform="scale(1 1) rotate(0) translate(4 400)">
<title>%3</title>
<polygon fill="white" stroke="none" points="-4,4 -4,-400 516.638,-400 516.638,4 -4,4"/>
<!-- ExpConst1 -->
<g id="node1" class="node"><title>ExpConst1</title>
<ellipse fill="none" stroke="black" cx="336.693" cy="-234" rx="50.0912" ry="18"/>
<text text-anchor="middle" x="336.693" y="-230.3" font-family="Times,serif" font-size="14.00">ExpConst1</text>
</g>
<!-- Value1: 0 -->
<g id="node2" class="node"><title>Value1: 0</title>
<ellipse fill="none" stroke="black" cx="336.693" cy="-162" rx="45.4919" ry="18"/>
<text text-anchor="middle" x="336.693" y="-158.3" font-family="Times,serif" font-size="14.00">Value1: 0</text>
</g>
<!-- ExpConst1&#45;&gt;Value1: 0 -->
<g id="edge1" class="edge"><title>ExpConst1&#45;&gt;Value1: 0</title>
<path fill="none" stroke="black" d="M336.693,-215.697C336.693,-207.983 336.693,-198.712 336.693,-190.112"/>
<polygon fill="black" stroke="black" points="340.193,-190.104 336.693,-180.104 333.193,-190.104 340.193,-190.104"/>
</g>
<!-- ExpMem0 -->
<g id="node3" class="node"><title>ExpMem0</title>
<ellipse fill="none" stroke="black" cx="219.693" cy="-234" rx="48.9926" ry="18"/>
<text text-anchor="middle" x="219.693" y="-230.3" font-family="Times,serif" font-size="14.00">ExpMem0</text>
</g>
<!-- ExpBinary0 -->
<g id="node4" class="node"><title>ExpBinary0</title>
<ellipse fill="none" stroke="black" cx="219.693" cy="-162" rx="53.0913" ry="18"/>
<text text-anchor="middle" x="219.693" y="-158.3" font-family="Times,serif" font-size="14.00">ExpBinary0</text>
</g>
<!-- ExpMem0&#45;&gt;ExpBinary0 -->
<g id="edge2" class="edge"><title>ExpMem0&#45;&gt;ExpBinary0</title>
<path fill="none" stroke="black" d="M219.693,-215.697C219.693,-207.983 219.693,-198.712 219.693,-190.112"/>
<polygon fill="black" stroke="black" points="223.193,-190.104 219.693,-180.104 216.193,-190.104 223.193,-190.104"/>
</g>
<!-- ExpConst0 -->
<g id="node7" class="node"><title>ExpConst0</title>
<ellipse fill="none" stroke="black" cx="318.693" cy="-90" rx="50.0912" ry="18"/>
<text text-anchor="middle" x="318.693" y="-86.3" font-family="Times,serif" font-size="14.00">ExpConst0</text>
</g>
<!-- ExpBinary0&#45;&gt;ExpConst0 -->
<g id="edge14" class="edge"><title>ExpBinary0&#45;&gt;ExpConst0</title>
<path fill="none" stroke="black" d="M241.665,-145.465C255.474,-135.7 273.475,-122.972 288.603,-112.276"/>
<polygon fill="black" stroke="black" points="290.979,-114.882 297.124,-106.251 286.938,-109.167 290.979,-114.882"/>
</g>
<!-- ExpTemp0 -->
<g id="node13" class="node"><title>ExpTemp0</title>
<ellipse fill="none" stroke="black" cx="120.693" cy="-90" rx="50.0912" ry="18"/>
<text text-anchor="middle" x="120.693" y="-86.3" font-family="Times,serif" font-size="14.00">ExpTemp0</text>
</g>
<!-- ExpBinary0&#45;&gt;ExpTemp0 -->
<g id="edge12" class="edge"><title>ExpBinary0&#45;&gt;ExpTemp0</title>
<path fill="none" stroke="black" d="M197.722,-145.465C183.912,-135.7 165.911,-122.972 150.784,-112.276"/>
<polygon fill="black" stroke="black" points="152.448,-109.167 142.262,-106.251 148.407,-114.882 152.448,-109.167"/>
</g>
<!-- Plus0 -->
<g id="node15" class="node"><title>Plus0</title>
<ellipse fill="none" stroke="black" cx="219.693" cy="-90" rx="30.5947" ry="18"/>
<text text-anchor="middle" x="219.693" y="-86.3" font-family="Times,serif" font-size="14.00">Plus0</text>
</g>
<!-- ExpBinary0&#45;&gt;Plus0 -->
<g id="edge13" class="edge"><title>ExpBinary0&#45;&gt;Plus0</title>
<path fill="none" stroke="black" d="M219.693,-143.697C219.693,-135.983 219.693,-126.712 219.693,-118.112"/>
<polygon fill="black" stroke="black" points="223.193,-118.104 219.693,-108.104 216.193,-118.104 223.193,-118.104"/>
</g>
<!-- StatJump0 -->
<g id="node5" class="node"><title>StatJump0</title>
<ellipse fill="none" stroke="black" cx="427.693" cy="-306" rx="48.1917" ry="18"/>
<text text-anchor="middle" x="427.693" y="-302.3" font-family="Times,serif" font-size="14.00">StatJump0</text>
</g>
<!-- Label1: L21 -->
<g id="node6" class="node"><title>Label1: L21</title>
<ellipse fill="none" stroke="black" cx="458.693" cy="-234" rx="53.8905" ry="18"/>
<text text-anchor="middle" x="458.693" y="-230.3" font-family="Times,serif" font-size="14.00">Label1: L21</text>
</g>
<!-- StatJump0&#45;&gt;Label1: L21 -->
<g id="edge3" class="edge"><title>StatJump0&#45;&gt;Label1: L21</title>
<path fill="none" stroke="black" d="M435.197,-288.055C438.724,-280.091 443.011,-270.411 446.953,-261.51"/>
<polygon fill="black" stroke="black" points="450.194,-262.836 451.043,-252.275 443.793,-260.002 450.194,-262.836"/>
</g>
<!-- Value0: 8 -->
<g id="node8" class="node"><title>Value0: 8</title>
<ellipse fill="none" stroke="black" cx="318.693" cy="-18" rx="45.4919" ry="18"/>
<text text-anchor="middle" x="318.693" y="-14.3" font-family="Times,serif" font-size="14.00">Value0: 8</text>
</g>
<!-- ExpConst0&#45;&gt;Value0: 8 -->
<g id="edge4" class="edge"><title>ExpConst0&#45;&gt;Value0: 8</title>
<path fill="none" stroke="black" d="M318.693,-71.6966C318.693,-63.9827 318.693,-54.7125 318.693,-46.1124"/>
<polygon fill="black" stroke="black" points="322.193,-46.1043 318.693,-36.1043 315.193,-46.1044 322.193,-46.1043"/>
</g>
<!-- StatLabel0 -->
<g id="node9" class="node"><title>StatLabel0</title>
<ellipse fill="none" stroke="black" cx="120.693" cy="-306" rx="48.9926" ry="18"/>
<text text-anchor="middle" x="120.693" y="-302.3" font-family="Times,serif" font-size="14.00">StatLabel0</text>
</g>
<!-- Label0: QS@Print -->
<g id="node10" class="node"><title>Label0: QS@Print</title>
<ellipse fill="none" stroke="black" cx="76.6932" cy="-234" rx="76.8869" ry="18"/>
<text text-anchor="middle" x="76.6932" y="-230.3" font-family="Times,serif" font-size="14.00">Label0: QS@Print</text>
</g>
<!-- StatLabel0&#45;&gt;Label0: QS@Print -->
<g id="edge5" class="edge"><title>StatLabel0&#45;&gt;Label0: QS@Print</title>
<path fill="none" stroke="black" d="M110.266,-288.411C105.028,-280.077 98.5657,-269.797 92.7144,-260.488"/>
<polygon fill="black" stroke="black" points="95.6364,-258.56 87.3514,-251.956 89.7099,-262.285 95.6364,-258.56"/>
</g>
<!-- StatList0 -->
<g id="node11" class="node"><title>StatList0</title>
<ellipse fill="none" stroke="black" cx="250.693" cy="-378" rx="42.4939" ry="18"/>
<text text-anchor="middle" x="250.693" y="-374.3" font-family="Times,serif" font-size="14.00">StatList0</text>
</g>
<!-- StatList0&#45;&gt;StatJump0 -->
<g id="edge8" class="edge"><title>StatList0&#45;&gt;StatJump0</title>
<path fill="none" stroke="black" d="M280.719,-365.125C309.679,-353.672 353.761,-336.239 386.095,-323.451"/>
<polygon fill="black" stroke="black" points="387.711,-326.576 395.723,-319.644 385.137,-320.067 387.711,-326.576"/>
</g>
<!-- StatList0&#45;&gt;StatLabel0 -->
<g id="edge6" class="edge"><title>StatList0&#45;&gt;StatLabel0</title>
<path fill="none" stroke="black" d="M225.628,-363.503C205.873,-352.866 178.082,-337.902 156.063,-326.045"/>
<polygon fill="black" stroke="black" points="157.484,-322.835 147.02,-321.176 154.166,-328.999 157.484,-322.835"/>
</g>
<!-- StatMove0 -->
<g id="node12" class="node"><title>StatMove0</title>
<ellipse fill="none" stroke="black" cx="250.693" cy="-306" rx="50.0912" ry="18"/>
<text text-anchor="middle" x="250.693" y="-302.3" font-family="Times,serif" font-size="14.00">StatMove0</text>
</g>
<!-- StatList0&#45;&gt;StatMove0 -->
<g id="edge7" class="edge"><title>StatList0&#45;&gt;StatMove0</title>
<path fill="none" stroke="black" d="M250.693,-359.697C250.693,-351.983 250.693,-342.712 250.693,-334.112"/>
<polygon fill="black" stroke="black" points="254.193,-334.104 250.693,-324.104 247.193,-334.104 254.193,-334.104"/>
</g>
<!-- StatMove0&#45;&gt;ExpConst1 -->
<g id="edge11" class="edge"><title>StatMove0&#45;&gt;ExpConst1</title>
<path fill="none" stroke="black" d="M270.208,-289.116C281.753,-279.718 296.557,-267.669 309.264,-257.326"/>
<polygon fill="black" stroke="black" points="311.71,-259.848 317.256,-250.821 307.291,-254.419 311.71,-259.848"/>
</g>
<!-- StatMove0&#45;&gt;ExpMem0 -->
<g id="edge10" class="edge"><title>StatMove0&#45;&gt;ExpMem0</title>
<path fill="none" stroke="black" d="M243.189,-288.055C239.662,-280.091 235.375,-270.411 231.433,-261.51"/>
<polygon fill="black" stroke="black" points="234.593,-260.002 227.344,-252.275 228.193,-262.836 234.593,-260.002"/>
</g>
<!-- Temp0: $fp -->
<g id="node14" class="node"><title>Temp0: $fp</title>
<ellipse fill="none" stroke="black" cx="120.693" cy="-18" rx="52.7911" ry="18"/>
<text text-anchor="middle" x="120.693" y="-14.3" font-family="Times,serif" font-size="14.00">Temp0: $fp</text>
</g>
<!-- ExpTemp0&#45;&gt;Temp0: $fp -->
<g id="edge9" class="edge"><title>ExpTemp0&#45;&gt;Temp0: $fp</title>
<path fill="none" stroke="black" d="M120.693,-71.6966C120.693,-63.9827 120.693,-54.7125 120.693,-46.1124"/>
<polygon fill="black" stroke="black" points="124.193,-46.1043 120.693,-36.1043 117.193,-46.1044 124.193,-46.1043"/>
</g>
</g>
</svg>
