<?xml version="1.0" encoding="UTF-8" standalone="no"?>
<!DOCTYPE svg PUBLIC "-//W3C//DTD SVG 1.1//EN"
 "http://www.w3.org/Graphics/SVG/1.1/DTD/svg11.dtd">
<!-- Generated by graphviz version 2.38.0 (20140413.2041)
 -->
<!-- Title: %3 Pages: 1 -->
<svg width="629pt" height="476pt"
 viewBox="0.00 0.00 628.58 476.00" xmlns="http://www.w3.org/2000/svg" xmlns:xlink="http://www.w3.org/1999/xlink">
<g id="graph0" class="graph" transform="scale(1 1) rotate(0) translate(4 472)">
<title>%3</title>
<polygon fill="white" stroke="none" points="-4,4 -4,-472 624.584,-472 624.584,4 -4,4"/>
<!-- ExpMem0 -->
<g id="node1" class="node"><title>ExpMem0</title>
<ellipse fill="none" stroke="black" cx="413.39" cy="-306" rx="48.9926" ry="18"/>
<text text-anchor="middle" x="413.39" y="-302.3" font-family="Times,serif" font-size="14.00">ExpMem0</text>
</g>
<!-- ExpBinary0 -->
<g id="node2" class="node"><title>ExpBinary0</title>
<ellipse fill="none" stroke="black" cx="417.39" cy="-234" rx="53.0913" ry="18"/>
<text text-anchor="middle" x="417.39" y="-230.3" font-family="Times,serif" font-size="14.00">ExpBinary0</text>
</g>
<!-- ExpMem0&#45;&gt;ExpBinary0 -->
<g id="edge1" class="edge"><title>ExpMem0&#45;&gt;ExpBinary0</title>
<path fill="none" stroke="black" d="M414.379,-287.697C414.819,-279.983 415.349,-270.712 415.841,-262.112"/>
<polygon fill="black" stroke="black" points="419.336,-262.288 416.412,-252.104 412.348,-261.888 419.336,-262.288"/>
</g>
<!-- ExpMem1 -->
<g id="node3" class="node"><title>ExpMem1</title>
<ellipse fill="none" stroke="black" cx="320.39" cy="-162" rx="48.9926" ry="18"/>
<text text-anchor="middle" x="320.39" y="-158.3" font-family="Times,serif" font-size="14.00">ExpMem1</text>
</g>
<!-- ExpBinary0&#45;&gt;ExpMem1 -->
<g id="edge11" class="edge"><title>ExpBinary0&#45;&gt;ExpMem1</title>
<path fill="none" stroke="black" d="M395.862,-217.465C382.332,-207.7 364.694,-194.972 349.873,-184.276"/>
<polygon fill="black" stroke="black" points="351.681,-181.265 341.523,-178.251 347.584,-186.941 351.681,-181.265"/>
</g>
<!-- ExpConst0 -->
<g id="node8" class="node"><title>ExpConst0</title>
<ellipse fill="none" stroke="black" cx="516.39" cy="-162" rx="50.0912" ry="18"/>
<text text-anchor="middle" x="516.39" y="-158.3" font-family="Times,serif" font-size="14.00">ExpConst0</text>
</g>
<!-- ExpBinary0&#45;&gt;ExpConst0 -->
<g id="edge13" class="edge"><title>ExpBinary0&#45;&gt;ExpConst0</title>
<path fill="none" stroke="black" d="M439.361,-217.465C453.171,-207.7 471.172,-194.972 486.299,-184.276"/>
<polygon fill="black" stroke="black" points="488.676,-186.882 494.821,-178.251 484.635,-181.167 488.676,-186.882"/>
</g>
<!-- Plus0 -->
<g id="node16" class="node"><title>Plus0</title>
<ellipse fill="none" stroke="black" cx="417.39" cy="-162" rx="30.5947" ry="18"/>
<text text-anchor="middle" x="417.39" y="-158.3" font-family="Times,serif" font-size="14.00">Plus0</text>
</g>
<!-- ExpBinary0&#45;&gt;Plus0 -->
<g id="edge12" class="edge"><title>ExpBinary0&#45;&gt;Plus0</title>
<path fill="none" stroke="black" d="M417.39,-215.697C417.39,-207.983 417.39,-198.712 417.39,-190.112"/>
<polygon fill="black" stroke="black" points="420.89,-190.104 417.39,-180.104 413.89,-190.104 420.89,-190.104"/>
</g>
<!-- ExpTemp1 -->
<g id="node4" class="node"><title>ExpTemp1</title>
<ellipse fill="none" stroke="black" cx="320.39" cy="-90" rx="50.0912" ry="18"/>
<text text-anchor="middle" x="320.39" y="-86.3" font-family="Times,serif" font-size="14.00">ExpTemp1</text>
</g>
<!-- ExpMem1&#45;&gt;ExpTemp1 -->
<g id="edge2" class="edge"><title>ExpMem1&#45;&gt;ExpTemp1</title>
<path fill="none" stroke="black" d="M320.39,-143.697C320.39,-135.983 320.39,-126.712 320.39,-118.112"/>
<polygon fill="black" stroke="black" points="323.89,-118.104 320.39,-108.104 316.89,-118.104 323.89,-118.104"/>
</g>
<!-- Temp1: $fp -->
<g id="node5" class="node"><title>Temp1: $fp</title>
<ellipse fill="none" stroke="black" cx="320.39" cy="-18" rx="52.7911" ry="18"/>
<text text-anchor="middle" x="320.39" y="-14.3" font-family="Times,serif" font-size="14.00">Temp1: $fp</text>
</g>
<!-- ExpTemp1&#45;&gt;Temp1: $fp -->
<g id="edge3" class="edge"><title>ExpTemp1&#45;&gt;Temp1: $fp</title>
<path fill="none" stroke="black" d="M320.39,-71.6966C320.39,-63.9827 320.39,-54.7125 320.39,-46.1124"/>
<polygon fill="black" stroke="black" points="323.89,-46.1043 320.39,-36.1043 316.89,-46.1044 323.89,-46.1043"/>
</g>
<!-- StatJump0 -->
<g id="node6" class="node"><title>StatJump0</title>
<ellipse fill="none" stroke="black" cx="515.39" cy="-378" rx="48.1917" ry="18"/>
<text text-anchor="middle" x="515.39" y="-374.3" font-family="Times,serif" font-size="14.00">StatJump0</text>
</g>
<!-- Label1: epilogue -->
<g id="node7" class="node"><title>Label1: epilogue</title>
<ellipse fill="none" stroke="black" cx="550.39" cy="-306" rx="70.3881" ry="18"/>
<text text-anchor="middle" x="550.39" y="-302.3" font-family="Times,serif" font-size="14.00">Label1: epilogue</text>
</g>
<!-- StatJump0&#45;&gt;Label1: epilogue -->
<g id="edge4" class="edge"><title>StatJump0&#45;&gt;Label1: epilogue</title>
<path fill="none" stroke="black" d="M523.862,-360.055C527.886,-352.007 532.788,-342.205 537.277,-333.226"/>
<polygon fill="black" stroke="black" points="540.411,-334.785 541.752,-324.275 534.15,-331.654 540.411,-334.785"/>
</g>
<!-- Value0: 12 -->
<g id="node9" class="node"><title>Value0: 12</title>
<ellipse fill="none" stroke="black" cx="516.39" cy="-90" rx="50.0912" ry="18"/>
<text text-anchor="middle" x="516.39" y="-86.3" font-family="Times,serif" font-size="14.00">Value0: 12</text>
</g>
<!-- ExpConst0&#45;&gt;Value0: 12 -->
<g id="edge5" class="edge"><title>ExpConst0&#45;&gt;Value0: 12</title>
<path fill="none" stroke="black" d="M516.39,-143.697C516.39,-135.983 516.39,-126.712 516.39,-118.112"/>
<polygon fill="black" stroke="black" points="519.89,-118.104 516.39,-108.104 512.89,-118.104 519.89,-118.104"/>
</g>
<!-- StatLabel0 -->
<g id="node10" class="node"><title>StatLabel0</title>
<ellipse fill="none" stroke="black" cx="181.39" cy="-378" rx="48.9926" ry="18"/>
<text text-anchor="middle" x="181.39" y="-374.3" font-family="Times,serif" font-size="14.00">StatLabel0</text>
</g>
<!-- Label0: Tree@GetHas_Right -->
<g id="node11" class="node"><title>Label0: Tree@GetHas_Right</title>
<ellipse fill="none" stroke="black" cx="114.39" cy="-306" rx="114.28" ry="18"/>
<text text-anchor="middle" x="114.39" y="-302.3" font-family="Times,serif" font-size="14.00">Label0: Tree@GetHas_Right</text>
</g>
<!-- StatLabel0&#45;&gt;Label0: Tree@GetHas_Right -->
<g id="edge6" class="edge"><title>StatLabel0&#45;&gt;Label0: Tree@GetHas_Right</title>
<path fill="none" stroke="black" d="M165.85,-360.765C157.554,-352.096 147.17,-341.248 137.907,-331.57"/>
<polygon fill="black" stroke="black" points="140.223,-328.928 130.78,-324.124 135.166,-333.768 140.223,-328.928"/>
</g>
<!-- StatList0 -->
<g id="node12" class="node"><title>StatList0</title>
<ellipse fill="none" stroke="black" cx="330.39" cy="-450" rx="42.4939" ry="18"/>
<text text-anchor="middle" x="330.39" y="-446.3" font-family="Times,serif" font-size="14.00">StatList0</text>
</g>
<!-- StatList0&#45;&gt;StatJump0 -->
<g id="edge9" class="edge"><title>StatList0&#45;&gt;StatJump0</title>
<path fill="none" stroke="black" d="M360.939,-437.441C391.576,-425.848 438.995,-407.906 473.21,-394.96"/>
<polygon fill="black" stroke="black" points="474.813,-398.096 482.927,-391.283 472.336,-391.549 474.813,-398.096"/>
</g>
<!-- StatList0&#45;&gt;StatLabel0 -->
<g id="edge7" class="edge"><title>StatList0&#45;&gt;StatLabel0</title>
<path fill="none" stroke="black" d="M303.061,-436.161C279.641,-425.158 245.655,-409.192 219.552,-396.928"/>
<polygon fill="black" stroke="black" points="220.865,-393.678 210.326,-392.594 217.888,-400.014 220.865,-393.678"/>
</g>
<!-- StatMove0 -->
<g id="node13" class="node"><title>StatMove0</title>
<ellipse fill="none" stroke="black" cx="330.39" cy="-378" rx="50.0912" ry="18"/>
<text text-anchor="middle" x="330.39" y="-374.3" font-family="Times,serif" font-size="14.00">StatMove0</text>
</g>
<!-- StatList0&#45;&gt;StatMove0 -->
<g id="edge8" class="edge"><title>StatList0&#45;&gt;StatMove0</title>
<path fill="none" stroke="black" d="M330.39,-431.697C330.39,-423.983 330.39,-414.712 330.39,-406.112"/>
<polygon fill="black" stroke="black" points="333.89,-406.104 330.39,-396.104 326.89,-406.104 333.89,-406.104"/>
</g>
<!-- StatMove0&#45;&gt;ExpMem0 -->
<g id="edge15" class="edge"><title>StatMove0&#45;&gt;ExpMem0</title>
<path fill="none" stroke="black" d="M349.224,-361.116C360.367,-351.718 374.654,-339.669 386.917,-329.326"/>
<polygon fill="black" stroke="black" points="389.243,-331.944 394.63,-322.821 384.73,-326.593 389.243,-331.944"/>
</g>
<!-- ExpTemp0 -->
<g id="node14" class="node"><title>ExpTemp0</title>
<ellipse fill="none" stroke="black" cx="296.39" cy="-306" rx="50.0912" ry="18"/>
<text text-anchor="middle" x="296.39" y="-302.3" font-family="Times,serif" font-size="14.00">ExpTemp0</text>
</g>
<!-- StatMove0&#45;&gt;ExpTemp0 -->
<g id="edge14" class="edge"><title>StatMove0&#45;&gt;ExpTemp0</title>
<path fill="none" stroke="black" d="M322.159,-360.055C318.192,-351.887 313.347,-341.912 308.933,-332.824"/>
<polygon fill="black" stroke="black" points="312.062,-331.255 304.545,-323.789 305.765,-334.313 312.062,-331.255"/>
</g>
<!-- Temp0: $rv -->
<g id="node15" class="node"><title>Temp0: $rv</title>
<ellipse fill="none" stroke="black" cx="293.39" cy="-234" rx="52.7911" ry="18"/>
<text text-anchor="middle" x="293.39" y="-230.3" font-family="Times,serif" font-size="14.00">Temp0: $rv</text>
</g>
<!-- ExpTemp0&#45;&gt;Temp0: $rv -->
<g id="edge10" class="edge"><title>ExpTemp0&#45;&gt;Temp0: $rv</title>
<path fill="none" stroke="black" d="M295.648,-287.697C295.318,-279.983 294.92,-270.712 294.552,-262.112"/>
<polygon fill="black" stroke="black" points="298.048,-261.945 294.123,-252.104 291.054,-262.245 298.048,-261.945"/>
</g>
</g>
</svg>
