<?xml version="1.0" encoding="UTF-8" standalone="no"?>
<!DOCTYPE svg PUBLIC "-//W3C//DTD SVG 1.1//EN"
 "http://www.w3.org/Graphics/SVG/1.1/DTD/svg11.dtd">
<!-- Generated by graphviz version 2.38.0 (20140413.2041)
 -->
<!-- Title: %3 Pages: 1 -->
<svg width="354pt" height="188pt"
 viewBox="0.00 0.00 353.84 188.00" xmlns="http://www.w3.org/2000/svg" xmlns:xlink="http://www.w3.org/1999/xlink">
<g id="graph0" class="graph" transform="scale(1 1) rotate(0) translate(4 184)">
<title>%3</title>
<polygon fill="white" stroke="none" points="-4,4 -4,-184 349.84,-184 349.84,4 -4,4"/>
<!-- MoveRegister0 -->
<g id="node1" class="node"><title>MoveRegister0</title>
<ellipse fill="none" stroke="black" cx="129.795" cy="-162" rx="65.7887" ry="18"/>
<text text-anchor="middle" x="129.795" y="-158.3" font-family="Times,serif" font-size="14.00">MoveRegister0</text>
</g>
<!-- Temp0 -->
<g id="node2" class="node"><title>Temp0</title>
<ellipse fill="none" stroke="black" cx="68.7947" cy="-90" rx="36.2938" ry="18"/>
<text text-anchor="middle" x="68.7947" y="-86.3" font-family="Times,serif" font-size="14.00">Temp0</text>
</g>
<!-- MoveRegister0&#45;&gt;Temp0 -->
<g id="edge1" class="edge"><title>MoveRegister0&#45;&gt;Temp0</title>
<path fill="none" stroke="black" d="M115.339,-144.411C107.632,-135.567 98.0142,-124.531 89.5255,-114.789"/>
<polygon fill="black" stroke="black" points="91.9357,-112.228 82.7272,-106.988 86.6583,-116.827 91.9357,-112.228"/>
</g>
<!-- AddConst0 -->
<g id="node3" class="node"><title>AddConst0</title>
<ellipse fill="none" stroke="black" cx="182.795" cy="-90" rx="50.8918" ry="18"/>
<text text-anchor="middle" x="182.795" y="-86.3" font-family="Times,serif" font-size="14.00">AddConst0</text>
</g>
<!-- MoveRegister0&#45;&gt;AddConst0 -->
<g id="edge2" class="edge"><title>MoveRegister0&#45;&gt;AddConst0</title>
<path fill="none" stroke="black" d="M142.625,-144.055C149.004,-135.629 156.84,-125.28 163.892,-115.966"/>
<polygon fill="black" stroke="black" points="166.837,-117.874 170.083,-107.789 161.256,-113.649 166.837,-117.874"/>
</g>
<!-- Temp1: T257 -->
<g id="node6" class="node"><title>Temp1: T257</title>
<ellipse fill="none" stroke="black" cx="59.7947" cy="-18" rx="59.5901" ry="18"/>
<text text-anchor="middle" x="59.7947" y="-14.3" font-family="Times,serif" font-size="14.00">Temp1: T257</text>
</g>
<!-- Temp0&#45;&gt;Temp1: T257 -->
<g id="edge5" class="edge"><title>Temp0&#45;&gt;Temp1: T257</title>
<path fill="none" stroke="black" d="M66.57,-71.6966C65.5782,-63.9827 64.3863,-54.7125 63.2806,-46.1124"/>
<polygon fill="black" stroke="black" points="66.7406,-45.5763 61.9938,-36.1043 59.7977,-46.469 66.7406,-45.5763"/>
</g>
<!-- NullExp0 -->
<g id="node4" class="node"><title>NullExp0</title>
<ellipse fill="none" stroke="black" cx="182.795" cy="-18" rx="44.6926" ry="18"/>
<text text-anchor="middle" x="182.795" y="-14.3" font-family="Times,serif" font-size="14.00">NullExp0</text>
</g>
<!-- AddConst0&#45;&gt;NullExp0 -->
<g id="edge3" class="edge"><title>AddConst0&#45;&gt;NullExp0</title>
<path fill="none" stroke="black" d="M182.795,-71.6966C182.795,-63.9827 182.795,-54.7125 182.795,-46.1124"/>
<polygon fill="black" stroke="black" points="186.295,-46.1043 182.795,-36.1043 179.295,-46.1044 186.295,-46.1043"/>
</g>
<!-- Value0: 14 -->
<g id="node5" class="node"><title>Value0: 14</title>
<ellipse fill="none" stroke="black" cx="295.795" cy="-18" rx="50.0912" ry="18"/>
<text text-anchor="middle" x="295.795" y="-14.3" font-family="Times,serif" font-size="14.00">Value0: 14</text>
</g>
<!-- AddConst0&#45;&gt;Value0: 14 -->
<g id="edge4" class="edge"><title>AddConst0&#45;&gt;Value0: 14</title>
<path fill="none" stroke="black" d="M207.036,-73.9832C223.272,-63.9257 244.852,-50.5573 262.668,-39.5209"/>
<polygon fill="black" stroke="black" points="264.936,-42.2335 271.593,-33.9919 261.249,-36.2827 264.936,-42.2335"/>
</g>
</g>
</svg>
