<?xml version="1.0" encoding="UTF-8" standalone="no"?>
<!DOCTYPE svg PUBLIC "-//W3C//DTD SVG 1.1//EN"
 "http://www.w3.org/Graphics/SVG/1.1/DTD/svg11.dtd">
<!-- Generated by graphviz version 2.38.0 (20140413.2041)
 -->
<!-- Title: %3 Pages: 1 -->
<svg width="528pt" height="764pt"
 viewBox="0.00 0.00 528.39 764.00" xmlns="http://www.w3.org/2000/svg" xmlns:xlink="http://www.w3.org/1999/xlink">
<g id="graph0" class="graph" transform="scale(1 1) rotate(0) translate(4 760)">
<title>%3</title>
<polygon fill="white" stroke="none" points="-4,4 -4,-760 524.386,-760 524.386,4 -4,4"/>
<!-- ExpTemp2 -->
<g id="node1" class="node"><title>ExpTemp2</title>
<ellipse fill="none" stroke="black" cx="421.691" cy="-306" rx="50.0912" ry="18"/>
<text text-anchor="middle" x="421.691" y="-302.3" font-family="Times,serif" font-size="14.00">ExpTemp2</text>
</g>
<!-- Temp2: T8 -->
<g id="node2" class="node"><title>Temp2: T8</title>
<ellipse fill="none" stroke="black" cx="421.691" cy="-234" rx="50.8918" ry="18"/>
<text text-anchor="middle" x="421.691" y="-230.3" font-family="Times,serif" font-size="14.00">Temp2: T8</text>
</g>
<!-- ExpTemp2&#45;&gt;Temp2: T8 -->
<g id="edge1" class="edge"><title>ExpTemp2&#45;&gt;Temp2: T8</title>
<path fill="none" stroke="black" d="M421.691,-287.697C421.691,-279.983 421.691,-270.712 421.691,-262.112"/>
<polygon fill="black" stroke="black" points="425.191,-262.104 421.691,-252.104 418.191,-262.104 425.191,-262.104"/>
</g>
<!-- ExpEseq0 -->
<g id="node3" class="node"><title>ExpEseq0</title>
<ellipse fill="none" stroke="black" cx="362.691" cy="-378" rx="46.2923" ry="18"/>
<text text-anchor="middle" x="362.691" y="-374.3" font-family="Times,serif" font-size="14.00">ExpEseq0</text>
</g>
<!-- ExpEseq0&#45;&gt;ExpTemp2 -->
<g id="edge3" class="edge"><title>ExpEseq0&#45;&gt;ExpTemp2</title>
<path fill="none" stroke="black" d="M376.375,-360.765C383.715,-352.056 392.91,-341.147 401.096,-331.435"/>
<polygon fill="black" stroke="black" points="403.903,-333.535 407.671,-323.633 398.55,-329.024 403.903,-333.535"/>
</g>
<!-- StatMove1 -->
<g id="node4" class="node"><title>StatMove1</title>
<ellipse fill="none" stroke="black" cx="303.691" cy="-306" rx="50.0912" ry="18"/>
<text text-anchor="middle" x="303.691" y="-302.3" font-family="Times,serif" font-size="14.00">StatMove1</text>
</g>
<!-- ExpEseq0&#45;&gt;StatMove1 -->
<g id="edge2" class="edge"><title>ExpEseq0&#45;&gt;StatMove1</title>
<path fill="none" stroke="black" d="M349.007,-360.765C341.667,-352.056 332.472,-341.147 324.286,-331.435"/>
<polygon fill="black" stroke="black" points="326.831,-329.024 317.71,-323.633 321.479,-333.535 326.831,-329.024"/>
</g>
<!-- ExpCall1 -->
<g id="node11" class="node"><title>ExpCall1</title>
<ellipse fill="none" stroke="black" cx="306.691" cy="-234" rx="44.393" ry="18"/>
<text text-anchor="middle" x="306.691" y="-230.3" font-family="Times,serif" font-size="14.00">ExpCall1</text>
</g>
<!-- StatMove1&#45;&gt;ExpCall1 -->
<g id="edge24" class="edge"><title>StatMove1&#45;&gt;ExpCall1</title>
<path fill="none" stroke="black" d="M304.432,-287.697C304.763,-279.983 305.16,-270.712 305.529,-262.112"/>
<polygon fill="black" stroke="black" points="309.026,-262.245 305.958,-252.104 302.033,-261.945 309.026,-262.245"/>
</g>
<!-- ExpTemp1 -->
<g id="node24" class="node"><title>ExpTemp1</title>
<ellipse fill="none" stroke="black" cx="190.691" cy="-234" rx="50.0912" ry="18"/>
<text text-anchor="middle" x="190.691" y="-230.3" font-family="Times,serif" font-size="14.00">ExpTemp1</text>
</g>
<!-- StatMove1&#45;&gt;ExpTemp1 -->
<g id="edge23" class="edge"><title>StatMove1&#45;&gt;ExpTemp1</title>
<path fill="none" stroke="black" d="M279.726,-290.155C263.397,-280.039 241.566,-266.515 223.609,-255.391"/>
<polygon fill="black" stroke="black" points="224.965,-252.115 214.621,-249.824 221.279,-258.065 224.965,-252.115"/>
</g>
<!-- ExpConst0 -->
<g id="node5" class="node"><title>ExpConst0</title>
<ellipse fill="none" stroke="black" cx="442.691" cy="-90" rx="50.0912" ry="18"/>
<text text-anchor="middle" x="442.691" y="-86.3" font-family="Times,serif" font-size="14.00">ExpConst0</text>
</g>
<!-- Value0: 10 -->
<g id="node6" class="node"><title>Value0: 10</title>
<ellipse fill="none" stroke="black" cx="442.691" cy="-18" rx="50.0912" ry="18"/>
<text text-anchor="middle" x="442.691" y="-14.3" font-family="Times,serif" font-size="14.00">Value0: 10</text>
</g>
<!-- ExpConst0&#45;&gt;Value0: 10 -->
<g id="edge4" class="edge"><title>ExpConst0&#45;&gt;Value0: 10</title>
<path fill="none" stroke="black" d="M442.691,-71.6966C442.691,-63.9827 442.691,-54.7125 442.691,-46.1124"/>
<polygon fill="black" stroke="black" points="446.191,-46.1043 442.691,-36.1043 439.191,-46.1044 446.191,-46.1043"/>
</g>
<!-- StatMove0 -->
<g id="node7" class="node"><title>StatMove0</title>
<ellipse fill="none" stroke="black" cx="273.691" cy="-594" rx="50.0912" ry="18"/>
<text text-anchor="middle" x="273.691" y="-590.3" font-family="Times,serif" font-size="14.00">StatMove0</text>
</g>
<!-- ExpTemp0 -->
<g id="node8" class="node"><title>ExpTemp0</title>
<ellipse fill="none" stroke="black" cx="158.691" cy="-522" rx="50.0912" ry="18"/>
<text text-anchor="middle" x="158.691" y="-518.3" font-family="Times,serif" font-size="14.00">ExpTemp0</text>
</g>
<!-- StatMove0&#45;&gt;ExpTemp0 -->
<g id="edge5" class="edge"><title>StatMove0&#45;&gt;ExpTemp0</title>
<path fill="none" stroke="black" d="M249.302,-578.155C232.531,-567.946 210.058,-554.267 191.689,-543.086"/>
<polygon fill="black" stroke="black" points="193.406,-540.034 183.044,-537.824 189.766,-546.013 193.406,-540.034"/>
</g>
<!-- ExpCall0 -->
<g id="node9" class="node"><title>ExpCall0</title>
<ellipse fill="none" stroke="black" cx="273.691" cy="-522" rx="44.393" ry="18"/>
<text text-anchor="middle" x="273.691" y="-518.3" font-family="Times,serif" font-size="14.00">ExpCall0</text>
</g>
<!-- StatMove0&#45;&gt;ExpCall0 -->
<g id="edge6" class="edge"><title>StatMove0&#45;&gt;ExpCall0</title>
<path fill="none" stroke="black" d="M273.691,-575.697C273.691,-567.983 273.691,-558.712 273.691,-550.112"/>
<polygon fill="black" stroke="black" points="277.191,-550.104 273.691,-540.104 270.191,-550.104 277.191,-550.104"/>
</g>
<!-- Temp0: T9 -->
<g id="node16" class="node"><title>Temp0: T9</title>
<ellipse fill="none" stroke="black" cx="126.691" cy="-450" rx="50.8918" ry="18"/>
<text text-anchor="middle" x="126.691" y="-446.3" font-family="Times,serif" font-size="14.00">Temp0: T9</text>
</g>
<!-- ExpTemp0&#45;&gt;Temp0: T9 -->
<g id="edge11" class="edge"><title>ExpTemp0&#45;&gt;Temp0: T9</title>
<path fill="none" stroke="black" d="M150.945,-504.055C147.304,-496.091 142.879,-486.411 138.81,-477.51"/>
<polygon fill="black" stroke="black" points="141.929,-475.915 134.588,-468.275 135.563,-478.825 141.929,-475.915"/>
</g>
<!-- ExpList0 -->
<g id="node10" class="node"><title>ExpList0</title>
<ellipse fill="none" stroke="black" cx="357.691" cy="-450" rx="42.7926" ry="18"/>
<text text-anchor="middle" x="357.691" y="-446.3" font-family="Times,serif" font-size="14.00">ExpList0</text>
</g>
<!-- ExpCall0&#45;&gt;ExpList0 -->
<g id="edge20" class="edge"><title>ExpCall0&#45;&gt;ExpList0</title>
<path fill="none" stroke="black" d="M292.333,-505.465C303.752,-495.949 318.549,-483.619 331.174,-473.097"/>
<polygon fill="black" stroke="black" points="333.659,-475.583 339.101,-466.492 329.178,-470.205 333.659,-475.583"/>
</g>
<!-- ExpName0 -->
<g id="node22" class="node"><title>ExpName0</title>
<ellipse fill="none" stroke="black" cx="245.691" cy="-450" rx="50.8918" ry="18"/>
<text text-anchor="middle" x="245.691" y="-446.3" font-family="Times,serif" font-size="14.00">ExpName0</text>
</g>
<!-- ExpCall0&#45;&gt;ExpName0 -->
<g id="edge19" class="edge"><title>ExpCall0&#45;&gt;ExpName0</title>
<path fill="none" stroke="black" d="M266.913,-504.055C263.761,-496.176 259.937,-486.617 256.409,-477.794"/>
<polygon fill="black" stroke="black" points="259.565,-476.26 252.601,-468.275 253.065,-478.86 259.565,-476.26"/>
</g>
<!-- ExpList0&#45;&gt;ExpEseq0 -->
<g id="edge7" class="edge"><title>ExpList0&#45;&gt;ExpEseq0</title>
<path fill="none" stroke="black" d="M358.927,-431.697C359.478,-423.983 360.14,-414.712 360.754,-406.112"/>
<polygon fill="black" stroke="black" points="364.248,-406.328 361.469,-396.104 357.265,-405.83 364.248,-406.328"/>
</g>
<!-- ExpName1 -->
<g id="node12" class="node"><title>ExpName1</title>
<ellipse fill="none" stroke="black" cx="306.691" cy="-162" rx="50.8918" ry="18"/>
<text text-anchor="middle" x="306.691" y="-158.3" font-family="Times,serif" font-size="14.00">ExpName1</text>
</g>
<!-- ExpCall1&#45;&gt;ExpName1 -->
<g id="edge8" class="edge"><title>ExpCall1&#45;&gt;ExpName1</title>
<path fill="none" stroke="black" d="M306.691,-215.697C306.691,-207.983 306.691,-198.712 306.691,-190.112"/>
<polygon fill="black" stroke="black" points="310.191,-190.104 306.691,-180.104 303.191,-190.104 310.191,-190.104"/>
</g>
<!-- ExpList1 -->
<g id="node13" class="node"><title>ExpList1</title>
<ellipse fill="none" stroke="black" cx="434.691" cy="-162" rx="42.7926" ry="18"/>
<text text-anchor="middle" x="434.691" y="-158.3" font-family="Times,serif" font-size="14.00">ExpList1</text>
</g>
<!-- ExpCall1&#45;&gt;ExpList1 -->
<g id="edge9" class="edge"><title>ExpCall1&#45;&gt;ExpList1</title>
<path fill="none" stroke="black" d="M331.98,-219.17C351.615,-208.432 379.037,-193.436 400.608,-181.639"/>
<polygon fill="black" stroke="black" points="402.36,-184.67 409.455,-176.801 399.002,-178.528 402.36,-184.67"/>
</g>
<!-- Label2: QS@Start -->
<g id="node26" class="node"><title>Label2: QS@Start</title>
<ellipse fill="none" stroke="black" cx="298.691" cy="-90" rx="76.0865" ry="18"/>
<text text-anchor="middle" x="298.691" y="-86.3" font-family="Times,serif" font-size="14.00">Label2: QS@Start</text>
</g>
<!-- ExpName1&#45;&gt;Label2: QS@Start -->
<g id="edge25" class="edge"><title>ExpName1&#45;&gt;Label2: QS@Start</title>
<path fill="none" stroke="black" d="M304.713,-143.697C303.832,-135.983 302.772,-126.712 301.789,-118.112"/>
<polygon fill="black" stroke="black" points="305.259,-117.642 300.646,-108.104 298.304,-118.437 305.259,-117.642"/>
</g>
<!-- ExpList1&#45;&gt;ExpConst0 -->
<g id="edge22" class="edge"><title>ExpList1&#45;&gt;ExpConst0</title>
<path fill="none" stroke="black" d="M436.668,-143.697C437.55,-135.983 438.609,-126.712 439.592,-118.112"/>
<polygon fill="black" stroke="black" points="443.078,-118.437 440.736,-108.104 436.123,-117.642 443.078,-118.437"/>
</g>
<!-- StatExp0 -->
<g id="node14" class="node"><title>StatExp0</title>
<ellipse fill="none" stroke="black" cx="384.691" cy="-594" rx="42.7926" ry="18"/>
<text text-anchor="middle" x="384.691" y="-590.3" font-family="Times,serif" font-size="14.00">StatExp0</text>
</g>
<!-- ExpTemp3 -->
<g id="node15" class="node"><title>ExpTemp3</title>
<ellipse fill="none" stroke="black" cx="441.691" cy="-522" rx="50.0912" ry="18"/>
<text text-anchor="middle" x="441.691" y="-518.3" font-family="Times,serif" font-size="14.00">ExpTemp3</text>
</g>
<!-- StatExp0&#45;&gt;ExpTemp3 -->
<g id="edge10" class="edge"><title>StatExp0&#45;&gt;ExpTemp3</title>
<path fill="none" stroke="black" d="M397.911,-576.765C405.002,-568.056 413.886,-557.147 421.794,-547.435"/>
<polygon fill="black" stroke="black" points="424.546,-549.598 428.147,-539.633 419.118,-545.178 424.546,-549.598"/>
</g>
<!-- Temp3: T9 -->
<g id="node17" class="node"><title>Temp3: T9</title>
<ellipse fill="none" stroke="black" cx="469.691" cy="-450" rx="50.8918" ry="18"/>
<text text-anchor="middle" x="469.691" y="-446.3" font-family="Times,serif" font-size="14.00">Temp3: T9</text>
</g>
<!-- ExpTemp3&#45;&gt;Temp3: T9 -->
<g id="edge12" class="edge"><title>ExpTemp3&#45;&gt;Temp3: T9</title>
<path fill="none" stroke="black" d="M448.469,-504.055C451.62,-496.176 455.444,-486.617 458.973,-477.794"/>
<polygon fill="black" stroke="black" points="462.316,-478.86 462.781,-468.275 455.817,-476.26 462.316,-478.86"/>
</g>
<!-- StatSeq0 -->
<g id="node18" class="node"><title>StatSeq0</title>
<ellipse fill="none" stroke="black" cx="203.691" cy="-738" rx="42.4939" ry="18"/>
<text text-anchor="middle" x="203.691" y="-734.3" font-family="Times,serif" font-size="14.00">StatSeq0</text>
</g>
<!-- StatLabel0 -->
<g id="node19" class="node"><title>StatLabel0</title>
<ellipse fill="none" stroke="black" cx="133.691" cy="-666" rx="48.9926" ry="18"/>
<text text-anchor="middle" x="133.691" y="-662.3" font-family="Times,serif" font-size="14.00">StatLabel0</text>
</g>
<!-- StatSeq0&#45;&gt;StatLabel0 -->
<g id="edge13" class="edge"><title>StatSeq0&#45;&gt;StatLabel0</title>
<path fill="none" stroke="black" d="M187.807,-721.116C178.806,-712.116 167.373,-700.682 157.337,-690.646"/>
<polygon fill="black" stroke="black" points="159.544,-687.903 149.998,-683.307 154.594,-692.853 159.544,-687.903"/>
</g>
<!-- StatSeq1 -->
<g id="node20" class="node"><title>StatSeq1</title>
<ellipse fill="none" stroke="black" cx="273.691" cy="-666" rx="42.4939" ry="18"/>
<text text-anchor="middle" x="273.691" y="-662.3" font-family="Times,serif" font-size="14.00">StatSeq1</text>
</g>
<!-- StatSeq0&#45;&gt;StatSeq1 -->
<g id="edge14" class="edge"><title>StatSeq0&#45;&gt;StatSeq1</title>
<path fill="none" stroke="black" d="M219.575,-721.116C228.793,-711.897 240.564,-700.127 250.772,-689.919"/>
<polygon fill="black" stroke="black" points="253.273,-692.367 257.87,-682.821 248.324,-687.417 253.273,-692.367"/>
</g>
<!-- Label0: QuickSort@main -->
<g id="node21" class="node"><title>Label0: QuickSort@main</title>
<ellipse fill="none" stroke="black" cx="102.691" cy="-594" rx="102.882" ry="18"/>
<text text-anchor="middle" x="102.691" y="-590.3" font-family="Times,serif" font-size="14.00">Label0: QuickSort@main</text>
</g>
<!-- StatLabel0&#45;&gt;Label0: QuickSort@main -->
<g id="edge15" class="edge"><title>StatLabel0&#45;&gt;Label0: QuickSort@main</title>
<path fill="none" stroke="black" d="M126.187,-648.055C122.66,-640.091 118.373,-630.411 114.431,-621.51"/>
<polygon fill="black" stroke="black" points="117.591,-620.002 110.341,-612.275 111.19,-622.836 117.591,-620.002"/>
</g>
<!-- StatSeq1&#45;&gt;StatMove0 -->
<g id="edge17" class="edge"><title>StatSeq1&#45;&gt;StatMove0</title>
<path fill="none" stroke="black" d="M273.691,-647.697C273.691,-639.983 273.691,-630.712 273.691,-622.112"/>
<polygon fill="black" stroke="black" points="277.191,-622.104 273.691,-612.104 270.191,-622.104 277.191,-622.104"/>
</g>
<!-- StatSeq1&#45;&gt;StatExp0 -->
<g id="edge18" class="edge"><title>StatSeq1&#45;&gt;StatExp0</title>
<path fill="none" stroke="black" d="M296.421,-650.666C312.882,-640.285 335.336,-626.125 353.477,-614.685"/>
<polygon fill="black" stroke="black" points="355.399,-617.61 361.991,-609.315 351.665,-611.689 355.399,-617.61"/>
</g>
<!-- Label1: print -->
<g id="node23" class="node"><title>Label1: print</title>
<ellipse fill="none" stroke="black" cx="241.691" cy="-378" rx="56.59" ry="18"/>
<text text-anchor="middle" x="241.691" y="-374.3" font-family="Times,serif" font-size="14.00">Label1: print</text>
</g>
<!-- ExpName0&#45;&gt;Label1: print -->
<g id="edge16" class="edge"><title>ExpName0&#45;&gt;Label1: print</title>
<path fill="none" stroke="black" d="M244.702,-431.697C244.261,-423.983 243.732,-414.712 243.24,-406.112"/>
<polygon fill="black" stroke="black" points="246.733,-405.888 242.668,-396.104 239.745,-406.288 246.733,-405.888"/>
</g>
<!-- Temp1: T8 -->
<g id="node25" class="node"><title>Temp1: T8</title>
<ellipse fill="none" stroke="black" cx="187.691" cy="-162" rx="50.8918" ry="18"/>
<text text-anchor="middle" x="187.691" y="-158.3" font-family="Times,serif" font-size="14.00">Temp1: T8</text>
</g>
<!-- ExpTemp1&#45;&gt;Temp1: T8 -->
<g id="edge21" class="edge"><title>ExpTemp1&#45;&gt;Temp1: T8</title>
<path fill="none" stroke="black" d="M189.949,-215.697C189.619,-207.983 189.221,-198.712 188.853,-190.112"/>
<polygon fill="black" stroke="black" points="192.349,-189.945 188.424,-180.104 185.355,-190.245 192.349,-189.945"/>
</g>
</g>
</svg>
