<?xml version="1.0" encoding="UTF-8" standalone="no"?>
<!DOCTYPE svg PUBLIC "-//W3C//DTD SVG 1.1//EN"
 "http://www.w3.org/Graphics/SVG/1.1/DTD/svg11.dtd">
<!-- Generated by graphviz version 2.38.0 (20140413.2041)
 -->
<!-- Title: %3 Pages: 1 -->
<svg width="640pt" height="692pt"
 viewBox="0.00 0.00 640.39 692.00" xmlns="http://www.w3.org/2000/svg" xmlns:xlink="http://www.w3.org/1999/xlink">
<g id="graph0" class="graph" transform="scale(1 1) rotate(0) translate(4 688)">
<title>%3</title>
<polygon fill="white" stroke="none" points="-4,4 -4,-688 636.386,-688 636.386,4 -4,4"/>
<!-- ExpTemp3 -->
<g id="node1" class="node"><title>ExpTemp3</title>
<ellipse fill="none" stroke="black" cx="553.691" cy="-522" rx="50.0912" ry="18"/>
<text text-anchor="middle" x="553.691" y="-518.3" font-family="Times,serif" font-size="14.00">ExpTemp3</text>
</g>
<!-- Temp3: T9 -->
<g id="node2" class="node"><title>Temp3: T9</title>
<ellipse fill="none" stroke="black" cx="581.691" cy="-450" rx="50.8918" ry="18"/>
<text text-anchor="middle" x="581.691" y="-446.3" font-family="Times,serif" font-size="14.00">Temp3: T9</text>
</g>
<!-- ExpTemp3&#45;&gt;Temp3: T9 -->
<g id="edge1" class="edge"><title>ExpTemp3&#45;&gt;Temp3: T9</title>
<path fill="none" stroke="black" d="M560.469,-504.055C563.62,-496.176 567.444,-486.617 570.973,-477.794"/>
<polygon fill="black" stroke="black" points="574.316,-478.86 574.781,-468.275 567.817,-476.26 574.316,-478.86"/>
</g>
<!-- ExpTemp2 -->
<g id="node3" class="node"><title>ExpTemp2</title>
<ellipse fill="none" stroke="black" cx="533.691" cy="-306" rx="50.0912" ry="18"/>
<text text-anchor="middle" x="533.691" y="-302.3" font-family="Times,serif" font-size="14.00">ExpTemp2</text>
</g>
<!-- Temp2: T8 -->
<g id="node4" class="node"><title>Temp2: T8</title>
<ellipse fill="none" stroke="black" cx="533.691" cy="-234" rx="50.8918" ry="18"/>
<text text-anchor="middle" x="533.691" y="-230.3" font-family="Times,serif" font-size="14.00">Temp2: T8</text>
</g>
<!-- ExpTemp2&#45;&gt;Temp2: T8 -->
<g id="edge2" class="edge"><title>ExpTemp2&#45;&gt;Temp2: T8</title>
<path fill="none" stroke="black" d="M533.691,-287.697C533.691,-279.983 533.691,-270.712 533.691,-262.112"/>
<polygon fill="black" stroke="black" points="537.191,-262.104 533.691,-252.104 530.191,-262.104 537.191,-262.104"/>
</g>
<!-- ExpEseq0 -->
<g id="node5" class="node"><title>ExpEseq0</title>
<ellipse fill="none" stroke="black" cx="474.691" cy="-378" rx="46.2923" ry="18"/>
<text text-anchor="middle" x="474.691" y="-374.3" font-family="Times,serif" font-size="14.00">ExpEseq0</text>
</g>
<!-- ExpEseq0&#45;&gt;ExpTemp2 -->
<g id="edge4" class="edge"><title>ExpEseq0&#45;&gt;ExpTemp2</title>
<path fill="none" stroke="black" d="M488.375,-360.765C495.715,-352.056 504.91,-341.147 513.096,-331.435"/>
<polygon fill="black" stroke="black" points="515.903,-333.535 519.671,-323.633 510.55,-329.024 515.903,-333.535"/>
</g>
<!-- StatMove1 -->
<g id="node6" class="node"><title>StatMove1</title>
<ellipse fill="none" stroke="black" cx="415.691" cy="-306" rx="50.0912" ry="18"/>
<text text-anchor="middle" x="415.691" y="-302.3" font-family="Times,serif" font-size="14.00">StatMove1</text>
</g>
<!-- ExpEseq0&#45;&gt;StatMove1 -->
<g id="edge3" class="edge"><title>ExpEseq0&#45;&gt;StatMove1</title>
<path fill="none" stroke="black" d="M461.007,-360.765C453.667,-352.056 444.472,-341.147 436.286,-331.435"/>
<polygon fill="black" stroke="black" points="438.831,-329.024 429.71,-323.633 433.479,-333.535 438.831,-329.024"/>
</g>
<!-- ExpCall1 -->
<g id="node13" class="node"><title>ExpCall1</title>
<ellipse fill="none" stroke="black" cx="418.691" cy="-234" rx="44.393" ry="18"/>
<text text-anchor="middle" x="418.691" y="-230.3" font-family="Times,serif" font-size="14.00">ExpCall1</text>
</g>
<!-- StatMove1&#45;&gt;ExpCall1 -->
<g id="edge23" class="edge"><title>StatMove1&#45;&gt;ExpCall1</title>
<path fill="none" stroke="black" d="M416.432,-287.697C416.763,-279.983 417.16,-270.712 417.529,-262.112"/>
<polygon fill="black" stroke="black" points="421.026,-262.245 417.958,-252.104 414.033,-261.945 421.026,-262.245"/>
</g>
<!-- ExpTemp1 -->
<g id="node23" class="node"><title>ExpTemp1</title>
<ellipse fill="none" stroke="black" cx="302.691" cy="-234" rx="50.0912" ry="18"/>
<text text-anchor="middle" x="302.691" y="-230.3" font-family="Times,serif" font-size="14.00">ExpTemp1</text>
</g>
<!-- StatMove1&#45;&gt;ExpTemp1 -->
<g id="edge22" class="edge"><title>StatMove1&#45;&gt;ExpTemp1</title>
<path fill="none" stroke="black" d="M391.726,-290.155C375.397,-280.039 353.566,-266.515 335.609,-255.391"/>
<polygon fill="black" stroke="black" points="336.965,-252.115 326.621,-249.824 333.279,-258.065 336.965,-252.115"/>
</g>
<!-- ExpConst0 -->
<g id="node7" class="node"><title>ExpConst0</title>
<ellipse fill="none" stroke="black" cx="554.691" cy="-90" rx="50.0912" ry="18"/>
<text text-anchor="middle" x="554.691" y="-86.3" font-family="Times,serif" font-size="14.00">ExpConst0</text>
</g>
<!-- Value0: 10 -->
<g id="node8" class="node"><title>Value0: 10</title>
<ellipse fill="none" stroke="black" cx="554.691" cy="-18" rx="50.0912" ry="18"/>
<text text-anchor="middle" x="554.691" y="-14.3" font-family="Times,serif" font-size="14.00">Value0: 10</text>
</g>
<!-- ExpConst0&#45;&gt;Value0: 10 -->
<g id="edge5" class="edge"><title>ExpConst0&#45;&gt;Value0: 10</title>
<path fill="none" stroke="black" d="M554.691,-71.6966C554.691,-63.9827 554.691,-54.7125 554.691,-46.1124"/>
<polygon fill="black" stroke="black" points="558.191,-46.1043 554.691,-36.1043 551.191,-46.1044 558.191,-46.1043"/>
</g>
<!-- StatMove0 -->
<g id="node9" class="node"><title>StatMove0</title>
<ellipse fill="none" stroke="black" cx="301.691" cy="-594" rx="50.0912" ry="18"/>
<text text-anchor="middle" x="301.691" y="-590.3" font-family="Times,serif" font-size="14.00">StatMove0</text>
</g>
<!-- ExpTemp0 -->
<g id="node10" class="node"><title>ExpTemp0</title>
<ellipse fill="none" stroke="black" cx="273.691" cy="-522" rx="50.0912" ry="18"/>
<text text-anchor="middle" x="273.691" y="-518.3" font-family="Times,serif" font-size="14.00">ExpTemp0</text>
</g>
<!-- StatMove0&#45;&gt;ExpTemp0 -->
<g id="edge6" class="edge"><title>StatMove0&#45;&gt;ExpTemp0</title>
<path fill="none" stroke="black" d="M294.913,-576.055C291.761,-568.176 287.937,-558.617 284.409,-549.794"/>
<polygon fill="black" stroke="black" points="287.565,-548.26 280.601,-540.275 281.065,-550.86 287.565,-548.26"/>
</g>
<!-- ExpCall0 -->
<g id="node11" class="node"><title>ExpCall0</title>
<ellipse fill="none" stroke="black" cx="385.691" cy="-522" rx="44.393" ry="18"/>
<text text-anchor="middle" x="385.691" y="-518.3" font-family="Times,serif" font-size="14.00">ExpCall0</text>
</g>
<!-- StatMove0&#45;&gt;ExpCall0 -->
<g id="edge7" class="edge"><title>StatMove0&#45;&gt;ExpCall0</title>
<path fill="none" stroke="black" d="M320.752,-577.116C332.108,-567.652 346.692,-555.499 359.161,-545.108"/>
<polygon fill="black" stroke="black" points="361.553,-547.671 366.995,-538.58 357.072,-542.293 361.553,-547.671"/>
</g>
<!-- Temp0: T9 -->
<g id="node17" class="node"><title>Temp0: T9</title>
<ellipse fill="none" stroke="black" cx="238.691" cy="-450" rx="50.8918" ry="18"/>
<text text-anchor="middle" x="238.691" y="-446.3" font-family="Times,serif" font-size="14.00">Temp0: T9</text>
</g>
<!-- ExpTemp0&#45;&gt;Temp0: T9 -->
<g id="edge12" class="edge"><title>ExpTemp0&#45;&gt;Temp0: T9</title>
<path fill="none" stroke="black" d="M265.218,-504.055C261.134,-495.887 256.147,-485.912 251.603,-476.824"/>
<polygon fill="black" stroke="black" points="254.688,-475.168 247.085,-467.789 248.427,-478.299 254.688,-475.168"/>
</g>
<!-- ExpList0 -->
<g id="node12" class="node"><title>ExpList0</title>
<ellipse fill="none" stroke="black" cx="469.691" cy="-450" rx="42.7926" ry="18"/>
<text text-anchor="middle" x="469.691" y="-446.3" font-family="Times,serif" font-size="14.00">ExpList0</text>
</g>
<!-- ExpCall0&#45;&gt;ExpList0 -->
<g id="edge19" class="edge"><title>ExpCall0&#45;&gt;ExpList0</title>
<path fill="none" stroke="black" d="M404.333,-505.465C415.752,-495.949 430.549,-483.619 443.174,-473.097"/>
<polygon fill="black" stroke="black" points="445.659,-475.583 451.101,-466.492 441.178,-470.205 445.659,-475.583"/>
</g>
<!-- ExpName0 -->
<g id="node21" class="node"><title>ExpName0</title>
<ellipse fill="none" stroke="black" cx="357.691" cy="-450" rx="50.8918" ry="18"/>
<text text-anchor="middle" x="357.691" y="-446.3" font-family="Times,serif" font-size="14.00">ExpName0</text>
</g>
<!-- ExpCall0&#45;&gt;ExpName0 -->
<g id="edge18" class="edge"><title>ExpCall0&#45;&gt;ExpName0</title>
<path fill="none" stroke="black" d="M378.913,-504.055C375.761,-496.176 371.937,-486.617 368.409,-477.794"/>
<polygon fill="black" stroke="black" points="371.565,-476.26 364.601,-468.275 365.065,-478.86 371.565,-476.26"/>
</g>
<!-- ExpList0&#45;&gt;ExpEseq0 -->
<g id="edge8" class="edge"><title>ExpList0&#45;&gt;ExpEseq0</title>
<path fill="none" stroke="black" d="M470.927,-431.697C471.478,-423.983 472.14,-414.712 472.754,-406.112"/>
<polygon fill="black" stroke="black" points="476.248,-406.328 473.469,-396.104 469.265,-405.83 476.248,-406.328"/>
</g>
<!-- ExpName1 -->
<g id="node14" class="node"><title>ExpName1</title>
<ellipse fill="none" stroke="black" cx="418.691" cy="-162" rx="50.8918" ry="18"/>
<text text-anchor="middle" x="418.691" y="-158.3" font-family="Times,serif" font-size="14.00">ExpName1</text>
</g>
<!-- ExpCall1&#45;&gt;ExpName1 -->
<g id="edge9" class="edge"><title>ExpCall1&#45;&gt;ExpName1</title>
<path fill="none" stroke="black" d="M418.691,-215.697C418.691,-207.983 418.691,-198.712 418.691,-190.112"/>
<polygon fill="black" stroke="black" points="422.191,-190.104 418.691,-180.104 415.191,-190.104 422.191,-190.104"/>
</g>
<!-- ExpList1 -->
<g id="node15" class="node"><title>ExpList1</title>
<ellipse fill="none" stroke="black" cx="546.691" cy="-162" rx="42.7926" ry="18"/>
<text text-anchor="middle" x="546.691" y="-158.3" font-family="Times,serif" font-size="14.00">ExpList1</text>
</g>
<!-- ExpCall1&#45;&gt;ExpList1 -->
<g id="edge10" class="edge"><title>ExpCall1&#45;&gt;ExpList1</title>
<path fill="none" stroke="black" d="M443.98,-219.17C463.615,-208.432 491.037,-193.436 512.608,-181.639"/>
<polygon fill="black" stroke="black" points="514.36,-184.67 521.455,-176.801 511.002,-178.528 514.36,-184.67"/>
</g>
<!-- Label2: QS@Start -->
<g id="node25" class="node"><title>Label2: QS@Start</title>
<ellipse fill="none" stroke="black" cx="410.691" cy="-90" rx="76.0865" ry="18"/>
<text text-anchor="middle" x="410.691" y="-86.3" font-family="Times,serif" font-size="14.00">Label2: QS@Start</text>
</g>
<!-- ExpName1&#45;&gt;Label2: QS@Start -->
<g id="edge24" class="edge"><title>ExpName1&#45;&gt;Label2: QS@Start</title>
<path fill="none" stroke="black" d="M416.713,-143.697C415.832,-135.983 414.772,-126.712 413.789,-118.112"/>
<polygon fill="black" stroke="black" points="417.259,-117.642 412.646,-108.104 410.304,-118.437 417.259,-117.642"/>
</g>
<!-- ExpList1&#45;&gt;ExpConst0 -->
<g id="edge21" class="edge"><title>ExpList1&#45;&gt;ExpConst0</title>
<path fill="none" stroke="black" d="M548.668,-143.697C549.55,-135.983 550.609,-126.712 551.592,-118.112"/>
<polygon fill="black" stroke="black" points="555.078,-118.437 552.736,-108.104 548.123,-117.642 555.078,-118.437"/>
</g>
<!-- StatExp0 -->
<g id="node16" class="node"><title>StatExp0</title>
<ellipse fill="none" stroke="black" cx="468.691" cy="-594" rx="42.7926" ry="18"/>
<text text-anchor="middle" x="468.691" y="-590.3" font-family="Times,serif" font-size="14.00">StatExp0</text>
</g>
<!-- StatExp0&#45;&gt;ExpTemp3 -->
<g id="edge11" class="edge"><title>StatExp0&#45;&gt;ExpTemp3</title>
<path fill="none" stroke="black" d="M487.555,-577.465C499.03,-568.015 513.875,-555.79 526.592,-545.316"/>
<polygon fill="black" stroke="black" points="529.091,-547.793 534.585,-538.734 524.641,-542.389 529.091,-547.793"/>
</g>
<!-- StatList0 -->
<g id="node18" class="node"><title>StatList0</title>
<ellipse fill="none" stroke="black" cx="301.691" cy="-666" rx="42.4939" ry="18"/>
<text text-anchor="middle" x="301.691" y="-662.3" font-family="Times,serif" font-size="14.00">StatList0</text>
</g>
<!-- StatList0&#45;&gt;StatMove0 -->
<g id="edge14" class="edge"><title>StatList0&#45;&gt;StatMove0</title>
<path fill="none" stroke="black" d="M301.691,-647.697C301.691,-639.983 301.691,-630.712 301.691,-622.112"/>
<polygon fill="black" stroke="black" points="305.191,-622.104 301.691,-612.104 298.191,-622.104 305.191,-622.104"/>
</g>
<!-- StatList0&#45;&gt;StatExp0 -->
<g id="edge15" class="edge"><title>StatList0&#45;&gt;StatExp0</title>
<path fill="none" stroke="black" d="M330.78,-652.807C358.27,-641.284 399.695,-623.92 429.969,-611.231"/>
<polygon fill="black" stroke="black" points="431.505,-614.382 439.375,-607.288 428.799,-607.926 431.505,-614.382"/>
</g>
<!-- StatLabel0 -->
<g id="node19" class="node"><title>StatLabel0</title>
<ellipse fill="none" stroke="black" cx="157.691" cy="-594" rx="48.9926" ry="18"/>
<text text-anchor="middle" x="157.691" y="-590.3" font-family="Times,serif" font-size="14.00">StatLabel0</text>
</g>
<!-- StatList0&#45;&gt;StatLabel0 -->
<g id="edge13" class="edge"><title>StatList0&#45;&gt;StatLabel0</title>
<path fill="none" stroke="black" d="M274.943,-651.998C252.513,-641.094 220.23,-625.401 195.215,-613.241"/>
<polygon fill="black" stroke="black" points="196.543,-609.995 186.019,-608.771 193.483,-616.29 196.543,-609.995"/>
</g>
<!-- Label0: QuickSort@main -->
<g id="node20" class="node"><title>Label0: QuickSort@main</title>
<ellipse fill="none" stroke="black" cx="102.691" cy="-522" rx="102.882" ry="18"/>
<text text-anchor="middle" x="102.691" y="-518.3" font-family="Times,serif" font-size="14.00">Label0: QuickSort@main</text>
</g>
<!-- StatLabel0&#45;&gt;Label0: QuickSort@main -->
<g id="edge16" class="edge"><title>StatLabel0&#45;&gt;Label0: QuickSort@main</title>
<path fill="none" stroke="black" d="M144.657,-576.411C137.974,-567.906 129.698,-557.372 122.266,-547.914"/>
<polygon fill="black" stroke="black" points="124.944,-545.657 116.014,-539.956 119.44,-549.982 124.944,-545.657"/>
</g>
<!-- Label1: print -->
<g id="node22" class="node"><title>Label1: print</title>
<ellipse fill="none" stroke="black" cx="353.691" cy="-378" rx="56.59" ry="18"/>
<text text-anchor="middle" x="353.691" y="-374.3" font-family="Times,serif" font-size="14.00">Label1: print</text>
</g>
<!-- ExpName0&#45;&gt;Label1: print -->
<g id="edge17" class="edge"><title>ExpName0&#45;&gt;Label1: print</title>
<path fill="none" stroke="black" d="M356.702,-431.697C356.261,-423.983 355.732,-414.712 355.24,-406.112"/>
<polygon fill="black" stroke="black" points="358.733,-405.888 354.668,-396.104 351.745,-406.288 358.733,-405.888"/>
</g>
<!-- Temp1: T8 -->
<g id="node24" class="node"><title>Temp1: T8</title>
<ellipse fill="none" stroke="black" cx="299.691" cy="-162" rx="50.8918" ry="18"/>
<text text-anchor="middle" x="299.691" y="-158.3" font-family="Times,serif" font-size="14.00">Temp1: T8</text>
</g>
<!-- ExpTemp1&#45;&gt;Temp1: T8 -->
<g id="edge20" class="edge"><title>ExpTemp1&#45;&gt;Temp1: T8</title>
<path fill="none" stroke="black" d="M301.949,-215.697C301.619,-207.983 301.221,-198.712 300.853,-190.112"/>
<polygon fill="black" stroke="black" points="304.349,-189.945 300.424,-180.104 297.355,-190.245 304.349,-189.945"/>
</g>
</g>
</svg>
