<?xml version="1.0" encoding="UTF-8" standalone="no"?>
<!DOCTYPE svg PUBLIC "-//W3C//DTD SVG 1.1//EN"
 "http://www.w3.org/Graphics/SVG/1.1/DTD/svg11.dtd">
<!-- Generated by graphviz version 2.38.0 (20140413.2041)
 -->
<!-- Title: %3 Pages: 1 -->
<svg width="461pt" height="836pt"
 viewBox="0.00 0.00 460.84 836.00" xmlns="http://www.w3.org/2000/svg" xmlns:xlink="http://www.w3.org/1999/xlink">
<g id="graph0" class="graph" transform="scale(1 1) rotate(0) translate(4 832)">
<title>%3</title>
<polygon fill="white" stroke="none" points="-4,4 -4,-832 456.837,-832 456.837,4 -4,4"/>
<!-- ExpEseq0 -->
<g id="node1" class="node"><title>ExpEseq0</title>
<ellipse fill="none" stroke="black" cx="261.791" cy="-666" rx="46.2923" ry="18"/>
<text text-anchor="middle" x="261.791" y="-662.3" font-family="Times,serif" font-size="14.00">ExpEseq0</text>
</g>
<!-- StatMove0 -->
<g id="node2" class="node"><title>StatMove0</title>
<ellipse fill="none" stroke="black" cx="202.791" cy="-594" rx="50.0912" ry="18"/>
<text text-anchor="middle" x="202.791" y="-590.3" font-family="Times,serif" font-size="14.00">StatMove0</text>
</g>
<!-- ExpEseq0&#45;&gt;StatMove0 -->
<g id="edge1" class="edge"><title>ExpEseq0&#45;&gt;StatMove0</title>
<path fill="none" stroke="black" d="M248.107,-648.765C240.767,-640.056 231.572,-629.147 223.386,-619.435"/>
<polygon fill="black" stroke="black" points="225.932,-617.024 216.811,-611.633 220.579,-621.535 225.932,-617.024"/>
</g>
<!-- ExpTemp3 -->
<g id="node3" class="node"><title>ExpTemp3</title>
<ellipse fill="none" stroke="black" cx="320.791" cy="-594" rx="50.0912" ry="18"/>
<text text-anchor="middle" x="320.791" y="-590.3" font-family="Times,serif" font-size="14.00">ExpTemp3</text>
</g>
<!-- ExpEseq0&#45;&gt;ExpTemp3 -->
<g id="edge2" class="edge"><title>ExpEseq0&#45;&gt;ExpTemp3</title>
<path fill="none" stroke="black" d="M275.475,-648.765C282.815,-640.056 292.01,-629.147 300.196,-619.435"/>
<polygon fill="black" stroke="black" points="303.003,-621.535 306.772,-611.633 297.651,-617.024 303.003,-621.535"/>
</g>
<!-- ExpTemp0 -->
<g id="node10" class="node"><title>ExpTemp0</title>
<ellipse fill="none" stroke="black" cx="89.7912" cy="-522" rx="50.0912" ry="18"/>
<text text-anchor="middle" x="89.7912" y="-518.3" font-family="Times,serif" font-size="14.00">ExpTemp0</text>
</g>
<!-- StatMove0&#45;&gt;ExpTemp0 -->
<g id="edge7" class="edge"><title>StatMove0&#45;&gt;ExpTemp0</title>
<path fill="none" stroke="black" d="M178.827,-578.155C162.497,-568.039 140.666,-554.515 122.709,-543.391"/>
<polygon fill="black" stroke="black" points="124.065,-540.115 113.721,-537.824 120.379,-546.065 124.065,-540.115"/>
</g>
<!-- ExpCall0 -->
<g id="node11" class="node"><title>ExpCall0</title>
<ellipse fill="none" stroke="black" cx="205.791" cy="-522" rx="44.393" ry="18"/>
<text text-anchor="middle" x="205.791" y="-518.3" font-family="Times,serif" font-size="14.00">ExpCall0</text>
</g>
<!-- StatMove0&#45;&gt;ExpCall0 -->
<g id="edge8" class="edge"><title>StatMove0&#45;&gt;ExpCall0</title>
<path fill="none" stroke="black" d="M203.533,-575.697C203.863,-567.983 204.261,-558.712 204.629,-550.112"/>
<polygon fill="black" stroke="black" points="208.127,-550.245 205.058,-540.104 201.133,-549.945 208.127,-550.245"/>
</g>
<!-- Temp3: T1 -->
<g id="node18" class="node"><title>Temp3: T1</title>
<ellipse fill="none" stroke="black" cx="320.791" cy="-522" rx="50.8918" ry="18"/>
<text text-anchor="middle" x="320.791" y="-518.3" font-family="Times,serif" font-size="14.00">Temp3: T1</text>
</g>
<!-- ExpTemp3&#45;&gt;Temp3: T1 -->
<g id="edge14" class="edge"><title>ExpTemp3&#45;&gt;Temp3: T1</title>
<path fill="none" stroke="black" d="M320.791,-575.697C320.791,-567.983 320.791,-558.712 320.791,-550.112"/>
<polygon fill="black" stroke="black" points="324.291,-550.104 320.791,-540.104 317.291,-550.104 324.291,-550.104"/>
</g>
<!-- ExpTemp2 -->
<g id="node4" class="node"><title>ExpTemp2</title>
<ellipse fill="none" stroke="black" cx="383.791" cy="-306" rx="50.0912" ry="18"/>
<text text-anchor="middle" x="383.791" y="-302.3" font-family="Times,serif" font-size="14.00">ExpTemp2</text>
</g>
<!-- Temp2: T0 -->
<g id="node5" class="node"><title>Temp2: T0</title>
<ellipse fill="none" stroke="black" cx="383.791" cy="-234" rx="50.8918" ry="18"/>
<text text-anchor="middle" x="383.791" y="-230.3" font-family="Times,serif" font-size="14.00">Temp2: T0</text>
</g>
<!-- ExpTemp2&#45;&gt;Temp2: T0 -->
<g id="edge3" class="edge"><title>ExpTemp2&#45;&gt;Temp2: T0</title>
<path fill="none" stroke="black" d="M383.791,-287.697C383.791,-279.983 383.791,-270.712 383.791,-262.112"/>
<polygon fill="black" stroke="black" points="387.291,-262.104 383.791,-252.104 380.291,-262.104 387.291,-262.104"/>
</g>
<!-- ExpEseq1 -->
<g id="node6" class="node"><title>ExpEseq1</title>
<ellipse fill="none" stroke="black" cx="324.791" cy="-378" rx="46.2923" ry="18"/>
<text text-anchor="middle" x="324.791" y="-374.3" font-family="Times,serif" font-size="14.00">ExpEseq1</text>
</g>
<!-- ExpEseq1&#45;&gt;ExpTemp2 -->
<g id="edge5" class="edge"><title>ExpEseq1&#45;&gt;ExpTemp2</title>
<path fill="none" stroke="black" d="M338.475,-360.765C345.815,-352.056 355.01,-341.147 363.196,-331.435"/>
<polygon fill="black" stroke="black" points="366.003,-333.535 369.772,-323.633 360.651,-329.024 366.003,-333.535"/>
</g>
<!-- StatMove1 -->
<g id="node7" class="node"><title>StatMove1</title>
<ellipse fill="none" stroke="black" cx="265.791" cy="-306" rx="50.0912" ry="18"/>
<text text-anchor="middle" x="265.791" y="-302.3" font-family="Times,serif" font-size="14.00">StatMove1</text>
</g>
<!-- ExpEseq1&#45;&gt;StatMove1 -->
<g id="edge4" class="edge"><title>ExpEseq1&#45;&gt;StatMove1</title>
<path fill="none" stroke="black" d="M311.107,-360.765C303.767,-352.056 294.572,-341.147 286.386,-331.435"/>
<polygon fill="black" stroke="black" points="288.932,-329.024 279.811,-323.633 283.579,-333.535 288.932,-329.024"/>
</g>
<!-- ExpCall1 -->
<g id="node13" class="node"><title>ExpCall1</title>
<ellipse fill="none" stroke="black" cx="268.791" cy="-234" rx="44.393" ry="18"/>
<text text-anchor="middle" x="268.791" y="-230.3" font-family="Times,serif" font-size="14.00">ExpCall1</text>
</g>
<!-- StatMove1&#45;&gt;ExpCall1 -->
<g id="edge24" class="edge"><title>StatMove1&#45;&gt;ExpCall1</title>
<path fill="none" stroke="black" d="M266.533,-287.697C266.863,-279.983 267.261,-270.712 267.629,-262.112"/>
<polygon fill="black" stroke="black" points="271.127,-262.245 268.058,-252.104 264.133,-261.945 271.127,-262.245"/>
</g>
<!-- ExpTemp1 -->
<g id="node24" class="node"><title>ExpTemp1</title>
<ellipse fill="none" stroke="black" cx="152.791" cy="-234" rx="50.0912" ry="18"/>
<text text-anchor="middle" x="152.791" y="-230.3" font-family="Times,serif" font-size="14.00">ExpTemp1</text>
</g>
<!-- StatMove1&#45;&gt;ExpTemp1 -->
<g id="edge23" class="edge"><title>StatMove1&#45;&gt;ExpTemp1</title>
<path fill="none" stroke="black" d="M241.827,-290.155C225.497,-280.039 203.666,-266.515 185.709,-255.391"/>
<polygon fill="black" stroke="black" points="187.065,-252.115 176.721,-249.824 183.379,-258.065 187.065,-252.115"/>
</g>
<!-- ExpConst0 -->
<g id="node8" class="node"><title>ExpConst0</title>
<ellipse fill="none" stroke="black" cx="402.791" cy="-90" rx="50.0912" ry="18"/>
<text text-anchor="middle" x="402.791" y="-86.3" font-family="Times,serif" font-size="14.00">ExpConst0</text>
</g>
<!-- Value0: 10 -->
<g id="node9" class="node"><title>Value0: 10</title>
<ellipse fill="none" stroke="black" cx="402.791" cy="-18" rx="50.0912" ry="18"/>
<text text-anchor="middle" x="402.791" y="-14.3" font-family="Times,serif" font-size="14.00">Value0: 10</text>
</g>
<!-- ExpConst0&#45;&gt;Value0: 10 -->
<g id="edge6" class="edge"><title>ExpConst0&#45;&gt;Value0: 10</title>
<path fill="none" stroke="black" d="M402.791,-71.6966C402.791,-63.9827 402.791,-54.7125 402.791,-46.1124"/>
<polygon fill="black" stroke="black" points="406.291,-46.1043 402.791,-36.1043 399.291,-46.1044 406.291,-46.1043"/>
</g>
<!-- Temp0: T1 -->
<g id="node17" class="node"><title>Temp0: T1</title>
<ellipse fill="none" stroke="black" cx="86.7912" cy="-450" rx="50.8918" ry="18"/>
<text text-anchor="middle" x="86.7912" y="-446.3" font-family="Times,serif" font-size="14.00">Temp0: T1</text>
</g>
<!-- ExpTemp0&#45;&gt;Temp0: T1 -->
<g id="edge13" class="edge"><title>ExpTemp0&#45;&gt;Temp0: T1</title>
<path fill="none" stroke="black" d="M89.0497,-503.697C88.7191,-495.983 88.3218,-486.712 87.9532,-478.112"/>
<polygon fill="black" stroke="black" points="91.4493,-477.945 87.5243,-468.104 84.4558,-478.245 91.4493,-477.945"/>
</g>
<!-- ExpList0 -->
<g id="node12" class="node"><title>ExpList0</title>
<ellipse fill="none" stroke="black" cx="321.791" cy="-450" rx="42.7926" ry="18"/>
<text text-anchor="middle" x="321.791" y="-446.3" font-family="Times,serif" font-size="14.00">ExpList0</text>
</g>
<!-- ExpCall0&#45;&gt;ExpList0 -->
<g id="edge20" class="edge"><title>ExpCall0&#45;&gt;ExpList0</title>
<path fill="none" stroke="black" d="M229.545,-506.666C246.826,-496.237 270.426,-481.996 289.429,-470.529"/>
<polygon fill="black" stroke="black" points="291.315,-473.479 298.069,-465.315 287.699,-467.485 291.315,-473.479"/>
</g>
<!-- ExpName0 -->
<g id="node22" class="node"><title>ExpName0</title>
<ellipse fill="none" stroke="black" cx="205.791" cy="-450" rx="50.8918" ry="18"/>
<text text-anchor="middle" x="205.791" y="-446.3" font-family="Times,serif" font-size="14.00">ExpName0</text>
</g>
<!-- ExpCall0&#45;&gt;ExpName0 -->
<g id="edge19" class="edge"><title>ExpCall0&#45;&gt;ExpName0</title>
<path fill="none" stroke="black" d="M205.791,-503.697C205.791,-495.983 205.791,-486.712 205.791,-478.112"/>
<polygon fill="black" stroke="black" points="209.291,-478.104 205.791,-468.104 202.291,-478.104 209.291,-478.104"/>
</g>
<!-- ExpList0&#45;&gt;ExpEseq1 -->
<g id="edge9" class="edge"><title>ExpList0&#45;&gt;ExpEseq1</title>
<path fill="none" stroke="black" d="M322.533,-431.697C322.863,-423.983 323.261,-414.712 323.629,-406.112"/>
<polygon fill="black" stroke="black" points="327.127,-406.245 324.058,-396.104 320.133,-405.945 327.127,-406.245"/>
</g>
<!-- ExpName1 -->
<g id="node14" class="node"><title>ExpName1</title>
<ellipse fill="none" stroke="black" cx="268.791" cy="-162" rx="50.8918" ry="18"/>
<text text-anchor="middle" x="268.791" y="-158.3" font-family="Times,serif" font-size="14.00">ExpName1</text>
</g>
<!-- ExpCall1&#45;&gt;ExpName1 -->
<g id="edge10" class="edge"><title>ExpCall1&#45;&gt;ExpName1</title>
<path fill="none" stroke="black" d="M268.791,-215.697C268.791,-207.983 268.791,-198.712 268.791,-190.112"/>
<polygon fill="black" stroke="black" points="272.291,-190.104 268.791,-180.104 265.291,-190.104 272.291,-190.104"/>
</g>
<!-- ExpList1 -->
<g id="node15" class="node"><title>ExpList1</title>
<ellipse fill="none" stroke="black" cx="394.791" cy="-162" rx="42.7926" ry="18"/>
<text text-anchor="middle" x="394.791" y="-158.3" font-family="Times,serif" font-size="14.00">ExpList1</text>
</g>
<!-- ExpCall1&#45;&gt;ExpList1 -->
<g id="edge11" class="edge"><title>ExpCall1&#45;&gt;ExpList1</title>
<path fill="none" stroke="black" d="M293.986,-219.003C313.255,-208.298 340.009,-193.434 361.114,-181.71"/>
<polygon fill="black" stroke="black" points="363.027,-184.651 370.069,-176.734 359.628,-178.531 363.027,-184.651"/>
</g>
<!-- Label2: QS::Start -->
<g id="node26" class="node"><title>Label2: QS::Start</title>
<ellipse fill="none" stroke="black" cx="261.791" cy="-90" rx="72.5877" ry="18"/>
<text text-anchor="middle" x="261.791" y="-86.3" font-family="Times,serif" font-size="14.00">Label2: QS::Start</text>
</g>
<!-- ExpName1&#45;&gt;Label2: QS::Start -->
<g id="edge25" class="edge"><title>ExpName1&#45;&gt;Label2: QS::Start</title>
<path fill="none" stroke="black" d="M267.061,-143.697C266.29,-135.983 265.362,-126.712 264.502,-118.112"/>
<polygon fill="black" stroke="black" points="267.979,-117.706 263.502,-108.104 261.014,-118.403 267.979,-117.706"/>
</g>
<!-- ExpList1&#45;&gt;ExpConst0 -->
<g id="edge22" class="edge"><title>ExpList1&#45;&gt;ExpConst0</title>
<path fill="none" stroke="black" d="M396.769,-143.697C397.65,-135.983 398.71,-126.712 399.693,-118.112"/>
<polygon fill="black" stroke="black" points="403.178,-118.437 400.836,-108.104 396.224,-117.642 403.178,-118.437"/>
</g>
<!-- StatExp0 -->
<g id="node16" class="node"><title>StatExp0</title>
<ellipse fill="none" stroke="black" cx="247.791" cy="-738" rx="42.7926" ry="18"/>
<text text-anchor="middle" x="247.791" y="-734.3" font-family="Times,serif" font-size="14.00">StatExp0</text>
</g>
<!-- StatExp0&#45;&gt;ExpEseq0 -->
<g id="edge12" class="edge"><title>StatExp0&#45;&gt;ExpEseq0</title>
<path fill="none" stroke="black" d="M251.18,-720.055C252.722,-712.346 254.586,-703.027 256.318,-694.364"/>
<polygon fill="black" stroke="black" points="259.807,-694.768 258.336,-684.275 252.943,-693.395 259.807,-694.768"/>
</g>
<!-- StatSeq0 -->
<g id="node19" class="node"><title>StatSeq0</title>
<ellipse fill="none" stroke="black" cx="185.791" cy="-810" rx="42.4939" ry="18"/>
<text text-anchor="middle" x="185.791" y="-806.3" font-family="Times,serif" font-size="14.00">StatSeq0</text>
</g>
<!-- StatSeq0&#45;&gt;StatExp0 -->
<g id="edge16" class="edge"><title>StatSeq0&#45;&gt;StatExp0</title>
<path fill="none" stroke="black" d="M200.171,-792.765C208.075,-783.841 218.024,-772.608 226.783,-762.719"/>
<polygon fill="black" stroke="black" points="229.479,-764.954 233.489,-755.147 224.239,-760.313 229.479,-764.954"/>
</g>
<!-- StatLabel0 -->
<g id="node20" class="node"><title>StatLabel0</title>
<ellipse fill="none" stroke="black" cx="124.791" cy="-738" rx="48.9926" ry="18"/>
<text text-anchor="middle" x="124.791" y="-734.3" font-family="Times,serif" font-size="14.00">StatLabel0</text>
</g>
<!-- StatSeq0&#45;&gt;StatLabel0 -->
<g id="edge15" class="edge"><title>StatSeq0&#45;&gt;StatLabel0</title>
<path fill="none" stroke="black" d="M171.643,-792.765C164.054,-784.056 154.548,-773.147 146.085,-763.435"/>
<polygon fill="black" stroke="black" points="148.495,-760.873 139.286,-755.633 143.217,-765.472 148.495,-760.873"/>
</g>
<!-- Label0: QuickSort::main -->
<g id="node21" class="node"><title>Label0: QuickSort::main</title>
<ellipse fill="none" stroke="black" cx="98.7912" cy="-666" rx="98.5829" ry="18"/>
<text text-anchor="middle" x="98.7912" y="-662.3" font-family="Times,serif" font-size="14.00">Label0: QuickSort::main</text>
</g>
<!-- StatLabel0&#45;&gt;Label0: QuickSort::main -->
<g id="edge17" class="edge"><title>StatLabel0&#45;&gt;Label0: QuickSort::main</title>
<path fill="none" stroke="black" d="M118.497,-720.055C115.571,-712.176 112.02,-702.617 108.743,-693.794"/>
<polygon fill="black" stroke="black" points="111.971,-692.431 105.208,-684.275 105.409,-694.868 111.971,-692.431"/>
</g>
<!-- Label1: print -->
<g id="node23" class="node"><title>Label1: print</title>
<ellipse fill="none" stroke="black" cx="203.791" cy="-378" rx="56.59" ry="18"/>
<text text-anchor="middle" x="203.791" y="-374.3" font-family="Times,serif" font-size="14.00">Label1: print</text>
</g>
<!-- ExpName0&#45;&gt;Label1: print -->
<g id="edge18" class="edge"><title>ExpName0&#45;&gt;Label1: print</title>
<path fill="none" stroke="black" d="M205.297,-431.697C205.076,-423.983 204.812,-414.712 204.566,-406.112"/>
<polygon fill="black" stroke="black" points="208.064,-406 204.28,-396.104 201.067,-406.2 208.064,-406"/>
</g>
<!-- Temp1: T0 -->
<g id="node25" class="node"><title>Temp1: T0</title>
<ellipse fill="none" stroke="black" cx="149.791" cy="-162" rx="50.8918" ry="18"/>
<text text-anchor="middle" x="149.791" y="-158.3" font-family="Times,serif" font-size="14.00">Temp1: T0</text>
</g>
<!-- ExpTemp1&#45;&gt;Temp1: T0 -->
<g id="edge21" class="edge"><title>ExpTemp1&#45;&gt;Temp1: T0</title>
<path fill="none" stroke="black" d="M152.05,-215.697C151.719,-207.983 151.322,-198.712 150.953,-190.112"/>
<polygon fill="black" stroke="black" points="154.449,-189.945 150.524,-180.104 147.456,-190.245 154.449,-189.945"/>
</g>
</g>
</svg>
