<?xml version="1.0" encoding="UTF-8" standalone="no"?>
<!DOCTYPE svg PUBLIC "-//W3C//DTD SVG 1.1//EN"
 "http://www.w3.org/Graphics/SVG/1.1/DTD/svg11.dtd">
<!-- Generated by graphviz version 2.38.0 (20140413.2041)
 -->
<!-- Title: %3 Pages: 1 -->
<svg width="1541pt" height="404pt"
 viewBox="0.00 0.00 1540.84 404.00" xmlns="http://www.w3.org/2000/svg" xmlns:xlink="http://www.w3.org/1999/xlink">
<g id="graph0" class="graph" transform="scale(1 1) rotate(0) translate(4 400)">
<title>%3</title>
<polygon fill="white" stroke="none" points="-4,4 -4,-400 1536.84,-400 1536.84,4 -4,4"/>
<!-- ExpTemp6 -->
<g id="node1" class="node"><title>ExpTemp6</title>
<ellipse fill="none" stroke="black" cx="1112.89" cy="-234" rx="50.0912" ry="18"/>
<text text-anchor="middle" x="1112.89" y="-230.3" font-family="Times,serif" font-size="14.00">ExpTemp6</text>
</g>
<!-- Temp6: T357 -->
<g id="node2" class="node"><title>Temp6: T357</title>
<ellipse fill="none" stroke="black" cx="1112.89" cy="-162" rx="59.5901" ry="18"/>
<text text-anchor="middle" x="1112.89" y="-158.3" font-family="Times,serif" font-size="14.00">Temp6: T357</text>
</g>
<!-- ExpTemp6&#45;&gt;Temp6: T357 -->
<g id="edge1" class="edge"><title>ExpTemp6&#45;&gt;Temp6: T357</title>
<path fill="none" stroke="black" d="M1112.89,-215.697C1112.89,-207.983 1112.89,-198.712 1112.89,-190.112"/>
<polygon fill="black" stroke="black" points="1116.39,-190.104 1112.89,-180.104 1109.39,-190.104 1116.39,-190.104"/>
</g>
<!-- StatCJump0 -->
<g id="node3" class="node"><title>StatCJump0</title>
<ellipse fill="none" stroke="black" cx="1171.89" cy="-306" rx="53.8905" ry="18"/>
<text text-anchor="middle" x="1171.89" y="-302.3" font-family="Times,serif" font-size="14.00">StatCJump0</text>
</g>
<!-- StatCJump0&#45;&gt;ExpTemp6 -->
<g id="edge3" class="edge"><title>StatCJump0&#45;&gt;ExpTemp6</title>
<path fill="none" stroke="black" d="M1157.91,-288.411C1150.56,-279.693 1141.42,-268.845 1133.3,-259.208"/>
<polygon fill="black" stroke="black" points="1135.89,-256.861 1126.77,-251.47 1130.54,-261.372 1135.89,-256.861"/>
</g>
<!-- NE0 -->
<g id="node4" class="node"><title>NE0</title>
<ellipse fill="none" stroke="black" cx="1017.89" cy="-234" rx="27" ry="18"/>
<text text-anchor="middle" x="1017.89" y="-230.3" font-family="Times,serif" font-size="14.00">NE0</text>
</g>
<!-- StatCJump0&#45;&gt;NE0 -->
<g id="edge2" class="edge"><title>StatCJump0&#45;&gt;NE0</title>
<path fill="none" stroke="black" d="M1140.76,-291.212C1116.93,-280.608 1083.26,-265.53 1053.89,-252 1052.1,-251.176 1050.27,-250.324 1048.41,-249.462"/>
<polygon fill="black" stroke="black" points="1049.72,-246.21 1039.18,-245.135 1046.75,-252.548 1049.72,-246.21"/>
</g>
<!-- ExpConst1 -->
<g id="node5" class="node"><title>ExpConst1</title>
<ellipse fill="none" stroke="black" cx="1230.89" cy="-234" rx="50.0912" ry="18"/>
<text text-anchor="middle" x="1230.89" y="-230.3" font-family="Times,serif" font-size="14.00">ExpConst1</text>
</g>
<!-- StatCJump0&#45;&gt;ExpConst1 -->
<g id="edge4" class="edge"><title>StatCJump0&#45;&gt;ExpConst1</title>
<path fill="none" stroke="black" d="M1185.87,-288.411C1193.22,-279.693 1202.36,-268.845 1210.49,-259.208"/>
<polygon fill="black" stroke="black" points="1213.24,-261.372 1217.01,-251.47 1207.89,-256.861 1213.24,-261.372"/>
</g>
<!-- Label2: L73 -->
<g id="node6" class="node"><title>Label2: L73</title>
<ellipse fill="none" stroke="black" cx="1352.89" cy="-234" rx="53.8905" ry="18"/>
<text text-anchor="middle" x="1352.89" y="-230.3" font-family="Times,serif" font-size="14.00">Label2: L73</text>
</g>
<!-- StatCJump0&#45;&gt;Label2: L73 -->
<g id="edge5" class="edge"><title>StatCJump0&#45;&gt;Label2: L73</title>
<path fill="none" stroke="black" d="M1205.94,-291.834C1235.26,-280.492 1277.76,-264.057 1309.51,-251.776"/>
<polygon fill="black" stroke="black" points="1310.94,-254.979 1319,-248.107 1308.41,-248.45 1310.94,-254.979"/>
</g>
<!-- Label3: L74 -->
<g id="node7" class="node"><title>Label3: L74</title>
<ellipse fill="none" stroke="black" cx="1478.89" cy="-234" rx="53.8905" ry="18"/>
<text text-anchor="middle" x="1478.89" y="-230.3" font-family="Times,serif" font-size="14.00">Label3: L74</text>
</g>
<!-- StatCJump0&#45;&gt;Label3: L74 -->
<g id="edge6" class="edge"><title>StatCJump0&#45;&gt;Label3: L74</title>
<path fill="none" stroke="black" d="M1217.02,-295.898C1266.11,-285.834 1346.82,-268.811 1415.89,-252 1420.04,-250.99 1424.33,-249.91 1428.64,-248.801"/>
<polygon fill="black" stroke="black" points="1429.85,-252.101 1438.64,-246.181 1428.08,-245.329 1429.85,-252.101"/>
</g>
<!-- Value1: 0 -->
<g id="node35" class="node"><title>Value1: 0</title>
<ellipse fill="none" stroke="black" cx="1235.89" cy="-162" rx="45.4919" ry="18"/>
<text text-anchor="middle" x="1235.89" y="-158.3" font-family="Times,serif" font-size="14.00">Value1: 0</text>
</g>
<!-- ExpConst1&#45;&gt;Value1: 0 -->
<g id="edge32" class="edge"><title>ExpConst1&#45;&gt;Value1: 0</title>
<path fill="none" stroke="black" d="M1232.13,-215.697C1232.68,-207.983 1233.34,-198.712 1233.95,-190.112"/>
<polygon fill="black" stroke="black" points="1237.45,-190.328 1234.67,-180.104 1230.47,-189.83 1237.45,-190.328"/>
</g>
<!-- ExpList0 -->
<g id="node8" class="node"><title>ExpList0</title>
<ellipse fill="none" stroke="black" cx="991.892" cy="-162" rx="42.7926" ry="18"/>
<text text-anchor="middle" x="991.892" y="-158.3" font-family="Times,serif" font-size="14.00">ExpList0</text>
</g>
<!-- ExpTemp5 -->
<g id="node9" class="node"><title>ExpTemp5</title>
<ellipse fill="none" stroke="black" cx="1057.89" cy="-90" rx="50.0912" ry="18"/>
<text text-anchor="middle" x="1057.89" y="-86.3" font-family="Times,serif" font-size="14.00">ExpTemp5</text>
</g>
<!-- ExpList0&#45;&gt;ExpTemp5 -->
<g id="edge7" class="edge"><title>ExpList0&#45;&gt;ExpTemp5</title>
<path fill="none" stroke="black" d="M1006.87,-145.116C1015.35,-136.116 1026.13,-124.682 1035.6,-114.646"/>
<polygon fill="black" stroke="black" points="1038.2,-116.984 1042.52,-107.307 1033.11,-112.182 1038.2,-116.984"/>
</g>
<!-- Temp5: T365 -->
<g id="node10" class="node"><title>Temp5: T365</title>
<ellipse fill="none" stroke="black" cx="1057.89" cy="-18" rx="59.5901" ry="18"/>
<text text-anchor="middle" x="1057.89" y="-14.3" font-family="Times,serif" font-size="14.00">Temp5: T365</text>
</g>
<!-- ExpTemp5&#45;&gt;Temp5: T365 -->
<g id="edge8" class="edge"><title>ExpTemp5&#45;&gt;Temp5: T365</title>
<path fill="none" stroke="black" d="M1057.89,-71.6966C1057.89,-63.9827 1057.89,-54.7125 1057.89,-46.1124"/>
<polygon fill="black" stroke="black" points="1061.39,-46.1043 1057.89,-36.1043 1054.39,-46.1044 1061.39,-46.1043"/>
</g>
<!-- ExpName0 -->
<g id="node11" class="node"><title>ExpName0</title>
<ellipse fill="none" stroke="black" cx="879.892" cy="-162" rx="50.8918" ry="18"/>
<text text-anchor="middle" x="879.892" y="-158.3" font-family="Times,serif" font-size="14.00">ExpName0</text>
</g>
<!-- Label1: Tree@GetHas_Left -->
<g id="node12" class="node"><title>Label1: Tree@GetHas_Left</title>
<ellipse fill="none" stroke="black" cx="879.892" cy="-90" rx="109.681" ry="18"/>
<text text-anchor="middle" x="879.892" y="-86.3" font-family="Times,serif" font-size="14.00">Label1: Tree@GetHas_Left</text>
</g>
<!-- ExpName0&#45;&gt;Label1: Tree@GetHas_Left -->
<g id="edge9" class="edge"><title>ExpName0&#45;&gt;Label1: Tree@GetHas_Left</title>
<path fill="none" stroke="black" d="M879.892,-143.697C879.892,-135.983 879.892,-126.712 879.892,-118.112"/>
<polygon fill="black" stroke="black" points="883.392,-118.104 879.892,-108.104 876.392,-118.104 883.392,-118.104"/>
</g>
<!-- ExpCall0 -->
<g id="node13" class="node"><title>ExpCall0</title>
<ellipse fill="none" stroke="black" cx="879.892" cy="-234" rx="44.393" ry="18"/>
<text text-anchor="middle" x="879.892" y="-230.3" font-family="Times,serif" font-size="14.00">ExpCall0</text>
</g>
<!-- ExpCall0&#45;&gt;ExpList0 -->
<g id="edge11" class="edge"><title>ExpCall0&#45;&gt;ExpList0</title>
<path fill="none" stroke="black" d="M903.098,-218.496C919.617,-208.172 942.014,-194.174 960.181,-182.819"/>
<polygon fill="black" stroke="black" points="962.09,-185.753 968.715,-177.485 958.38,-179.818 962.09,-185.753"/>
</g>
<!-- ExpCall0&#45;&gt;ExpName0 -->
<g id="edge10" class="edge"><title>ExpCall0&#45;&gt;ExpName0</title>
<path fill="none" stroke="black" d="M879.892,-215.697C879.892,-207.983 879.892,-198.712 879.892,-190.112"/>
<polygon fill="black" stroke="black" points="883.392,-190.104 879.892,-180.104 876.392,-190.104 883.392,-190.104"/>
</g>
<!-- ExpTemp4 -->
<g id="node14" class="node"><title>ExpTemp4</title>
<ellipse fill="none" stroke="black" cx="751.892" cy="-234" rx="50.0912" ry="18"/>
<text text-anchor="middle" x="751.892" y="-230.3" font-family="Times,serif" font-size="14.00">ExpTemp4</text>
</g>
<!-- Temp4: T366 -->
<g id="node15" class="node"><title>Temp4: T366</title>
<ellipse fill="none" stroke="black" cx="751.892" cy="-162" rx="59.5901" ry="18"/>
<text text-anchor="middle" x="751.892" y="-158.3" font-family="Times,serif" font-size="14.00">Temp4: T366</text>
</g>
<!-- ExpTemp4&#45;&gt;Temp4: T366 -->
<g id="edge12" class="edge"><title>ExpTemp4&#45;&gt;Temp4: T366</title>
<path fill="none" stroke="black" d="M751.892,-215.697C751.892,-207.983 751.892,-198.712 751.892,-190.112"/>
<polygon fill="black" stroke="black" points="755.392,-190.104 751.892,-180.104 748.392,-190.104 755.392,-190.104"/>
</g>
<!-- ExpMem0 -->
<g id="node16" class="node"><title>ExpMem0</title>
<ellipse fill="none" stroke="black" cx="617.892" cy="-234" rx="48.9926" ry="18"/>
<text text-anchor="middle" x="617.892" y="-230.3" font-family="Times,serif" font-size="14.00">ExpMem0</text>
</g>
<!-- ExpBinary0 -->
<g id="node17" class="node"><title>ExpBinary0</title>
<ellipse fill="none" stroke="black" cx="620.892" cy="-162" rx="53.0913" ry="18"/>
<text text-anchor="middle" x="620.892" y="-158.3" font-family="Times,serif" font-size="14.00">ExpBinary0</text>
</g>
<!-- ExpMem0&#45;&gt;ExpBinary0 -->
<g id="edge13" class="edge"><title>ExpMem0&#45;&gt;ExpBinary0</title>
<path fill="none" stroke="black" d="M618.633,-215.697C618.964,-207.983 619.361,-198.712 619.73,-190.112"/>
<polygon fill="black" stroke="black" points="623.227,-190.245 620.159,-180.104 616.233,-189.945 623.227,-190.245"/>
</g>
<!-- ExpTemp3 -->
<g id="node21" class="node"><title>ExpTemp3</title>
<ellipse fill="none" stroke="black" cx="503.892" cy="-90" rx="50.0912" ry="18"/>
<text text-anchor="middle" x="503.892" y="-86.3" font-family="Times,serif" font-size="14.00">ExpTemp3</text>
</g>
<!-- ExpBinary0&#45;&gt;ExpTemp3 -->
<g id="edge16" class="edge"><title>ExpBinary0&#45;&gt;ExpTemp3</title>
<path fill="none" stroke="black" d="M595.792,-145.983C578.712,-135.764 555.919,-122.128 537.306,-110.992"/>
<polygon fill="black" stroke="black" points="538.926,-107.882 528.548,-105.752 535.332,-113.889 538.926,-107.882"/>
</g>
<!-- Plus0 -->
<g id="node22" class="node"><title>Plus0</title>
<ellipse fill="none" stroke="black" cx="602.892" cy="-90" rx="30.5947" ry="18"/>
<text text-anchor="middle" x="602.892" y="-86.3" font-family="Times,serif" font-size="14.00">Plus0</text>
</g>
<!-- ExpBinary0&#45;&gt;Plus0 -->
<g id="edge17" class="edge"><title>ExpBinary0&#45;&gt;Plus0</title>
<path fill="none" stroke="black" d="M616.534,-144.055C614.53,-136.261 612.103,-126.822 609.855,-118.079"/>
<polygon fill="black" stroke="black" points="613.214,-117.089 607.334,-108.275 606.435,-118.832 613.214,-117.089"/>
</g>
<!-- ExpConst0 -->
<g id="node23" class="node"><title>ExpConst0</title>
<ellipse fill="none" stroke="black" cx="701.892" cy="-90" rx="50.0912" ry="18"/>
<text text-anchor="middle" x="701.892" y="-86.3" font-family="Times,serif" font-size="14.00">ExpConst0</text>
</g>
<!-- ExpBinary0&#45;&gt;ExpConst0 -->
<g id="edge18" class="edge"><title>ExpBinary0&#45;&gt;ExpConst0</title>
<path fill="none" stroke="black" d="M639.678,-144.765C650.386,-135.511 663.97,-123.772 675.71,-113.626"/>
<polygon fill="black" stroke="black" points="678.208,-116.093 683.486,-106.906 673.631,-110.796 678.208,-116.093"/>
</g>
<!-- StatMove0 -->
<g id="node18" class="node"><title>StatMove0</title>
<ellipse fill="none" stroke="black" cx="375.892" cy="-306" rx="50.0912" ry="18"/>
<text text-anchor="middle" x="375.892" y="-302.3" font-family="Times,serif" font-size="14.00">StatMove0</text>
</g>
<!-- ExpTemp0 -->
<g id="node19" class="node"><title>ExpTemp0</title>
<ellipse fill="none" stroke="black" cx="257.892" cy="-234" rx="50.0912" ry="18"/>
<text text-anchor="middle" x="257.892" y="-230.3" font-family="Times,serif" font-size="14.00">ExpTemp0</text>
</g>
<!-- StatMove0&#45;&gt;ExpTemp0 -->
<g id="edge14" class="edge"><title>StatMove0&#45;&gt;ExpTemp0</title>
<path fill="none" stroke="black" d="M351.155,-290.326C333.769,-280.012 310.309,-266.095 291.268,-254.8"/>
<polygon fill="black" stroke="black" points="292.982,-251.747 282.596,-249.655 289.411,-257.767 292.982,-251.747"/>
</g>
<!-- ExpTemp1 -->
<g id="node20" class="node"><title>ExpTemp1</title>
<ellipse fill="none" stroke="black" cx="375.892" cy="-234" rx="50.0912" ry="18"/>
<text text-anchor="middle" x="375.892" y="-230.3" font-family="Times,serif" font-size="14.00">ExpTemp1</text>
</g>
<!-- StatMove0&#45;&gt;ExpTemp1 -->
<g id="edge15" class="edge"><title>StatMove0&#45;&gt;ExpTemp1</title>
<path fill="none" stroke="black" d="M375.892,-287.697C375.892,-279.983 375.892,-270.712 375.892,-262.112"/>
<polygon fill="black" stroke="black" points="379.392,-262.104 375.892,-252.104 372.392,-262.104 379.392,-262.104"/>
</g>
<!-- Temp0: T366 -->
<g id="node24" class="node"><title>Temp0: T366</title>
<ellipse fill="none" stroke="black" cx="213.892" cy="-162" rx="59.5901" ry="18"/>
<text text-anchor="middle" x="213.892" y="-158.3" font-family="Times,serif" font-size="14.00">Temp0: T366</text>
</g>
<!-- ExpTemp0&#45;&gt;Temp0: T366 -->
<g id="edge19" class="edge"><title>ExpTemp0&#45;&gt;Temp0: T366</title>
<path fill="none" stroke="black" d="M247.24,-216.055C242.052,-207.801 235.704,-197.701 229.944,-188.538"/>
<polygon fill="black" stroke="black" points="232.73,-186.393 224.445,-179.789 226.803,-190.118 232.73,-186.393"/>
</g>
<!-- Temp1: T357 -->
<g id="node34" class="node"><title>Temp1: T357</title>
<ellipse fill="none" stroke="black" cx="351.892" cy="-162" rx="59.5901" ry="18"/>
<text text-anchor="middle" x="351.892" y="-158.3" font-family="Times,serif" font-size="14.00">Temp1: T357</text>
</g>
<!-- ExpTemp1&#45;&gt;Temp1: T357 -->
<g id="edge31" class="edge"><title>ExpTemp1&#45;&gt;Temp1: T357</title>
<path fill="none" stroke="black" d="M370.082,-216.055C367.381,-208.176 364.103,-198.617 361.078,-189.794"/>
<polygon fill="black" stroke="black" points="364.369,-188.6 357.815,-180.275 357.747,-190.87 364.369,-188.6"/>
</g>
<!-- Temp3: $fp -->
<g id="node32" class="node"><title>Temp3: $fp</title>
<ellipse fill="none" stroke="black" cx="503.892" cy="-18" rx="52.7911" ry="18"/>
<text text-anchor="middle" x="503.892" y="-14.3" font-family="Times,serif" font-size="14.00">Temp3: $fp</text>
</g>
<!-- ExpTemp3&#45;&gt;Temp3: $fp -->
<g id="edge29" class="edge"><title>ExpTemp3&#45;&gt;Temp3: $fp</title>
<path fill="none" stroke="black" d="M503.892,-71.6966C503.892,-63.9827 503.892,-54.7125 503.892,-46.1124"/>
<polygon fill="black" stroke="black" points="507.392,-46.1043 503.892,-36.1043 500.392,-46.1044 507.392,-46.1043"/>
</g>
<!-- Value0: 4 -->
<g id="node33" class="node"><title>Value0: 4</title>
<ellipse fill="none" stroke="black" cx="701.892" cy="-18" rx="45.4919" ry="18"/>
<text text-anchor="middle" x="701.892" y="-14.3" font-family="Times,serif" font-size="14.00">Value0: 4</text>
</g>
<!-- ExpConst0&#45;&gt;Value0: 4 -->
<g id="edge30" class="edge"><title>ExpConst0&#45;&gt;Value0: 4</title>
<path fill="none" stroke="black" d="M701.892,-71.6966C701.892,-63.9827 701.892,-54.7125 701.892,-46.1124"/>
<polygon fill="black" stroke="black" points="705.392,-46.1043 701.892,-36.1043 698.392,-46.1044 705.392,-46.1043"/>
</g>
<!-- StatList0 -->
<g id="node25" class="node"><title>StatList0</title>
<ellipse fill="none" stroke="black" cx="555.892" cy="-378" rx="42.4939" ry="18"/>
<text text-anchor="middle" x="555.892" y="-374.3" font-family="Times,serif" font-size="14.00">StatList0</text>
</g>
<!-- StatList0&#45;&gt;StatCJump0 -->
<g id="edge24" class="edge"><title>StatList0&#45;&gt;StatCJump0</title>
<path fill="none" stroke="black" d="M596.309,-372.407C701.879,-360.411 986.361,-328.083 1111.46,-313.867"/>
<polygon fill="black" stroke="black" points="1112.09,-317.318 1121.63,-312.712 1111.3,-310.363 1112.09,-317.318"/>
</g>
<!-- StatList0&#45;&gt;StatMove0 -->
<g id="edge21" class="edge"><title>StatList0&#45;&gt;StatMove0</title>
<path fill="none" stroke="black" d="M525.764,-365.284C496.251,-353.806 451.017,-336.216 417.963,-323.361"/>
<polygon fill="black" stroke="black" points="419.145,-320.066 408.557,-319.703 416.608,-326.59 419.145,-320.066"/>
</g>
<!-- StatLabel0 -->
<g id="node26" class="node"><title>StatLabel0</title>
<ellipse fill="none" stroke="black" cx="176.892" cy="-306" rx="48.9926" ry="18"/>
<text text-anchor="middle" x="176.892" y="-302.3" font-family="Times,serif" font-size="14.00">StatLabel0</text>
</g>
<!-- StatList0&#45;&gt;StatLabel0 -->
<g id="edge20" class="edge"><title>StatList0&#45;&gt;StatLabel0</title>
<path fill="none" stroke="black" d="M517.816,-369.968C449.73,-357.392 307.012,-331.033 229.576,-316.731"/>
<polygon fill="black" stroke="black" points="230.022,-313.254 219.553,-314.879 228.751,-320.138 230.022,-313.254"/>
</g>
<!-- StatMove1 -->
<g id="node27" class="node"><title>StatMove1</title>
<ellipse fill="none" stroke="black" cx="555.892" cy="-306" rx="50.0912" ry="18"/>
<text text-anchor="middle" x="555.892" y="-302.3" font-family="Times,serif" font-size="14.00">StatMove1</text>
</g>
<!-- StatList0&#45;&gt;StatMove1 -->
<g id="edge22" class="edge"><title>StatList0&#45;&gt;StatMove1</title>
<path fill="none" stroke="black" d="M555.892,-359.697C555.892,-351.983 555.892,-342.712 555.892,-334.112"/>
<polygon fill="black" stroke="black" points="559.392,-334.104 555.892,-324.104 552.392,-334.104 559.392,-334.104"/>
</g>
<!-- StatMove2 -->
<g id="node28" class="node"><title>StatMove2</title>
<ellipse fill="none" stroke="black" cx="751.892" cy="-306" rx="50.0912" ry="18"/>
<text text-anchor="middle" x="751.892" y="-302.3" font-family="Times,serif" font-size="14.00">StatMove2</text>
</g>
<!-- StatList0&#45;&gt;StatMove2 -->
<g id="edge23" class="edge"><title>StatList0&#45;&gt;StatMove2</title>
<path fill="none" stroke="black" d="M587.382,-365.753C620.064,-354.081 671.43,-335.736 708.066,-322.652"/>
<polygon fill="black" stroke="black" points="709.271,-325.938 717.511,-319.279 706.916,-319.346 709.271,-325.938"/>
</g>
<!-- Label0: Tree@RecPrint -->
<g id="node29" class="node"><title>Label0: Tree@RecPrint</title>
<ellipse fill="none" stroke="black" cx="94.8916" cy="-234" rx="94.7833" ry="18"/>
<text text-anchor="middle" x="94.8916" y="-230.3" font-family="Times,serif" font-size="14.00">Label0: Tree@RecPrint</text>
</g>
<!-- StatLabel0&#45;&gt;Label0: Tree@RecPrint -->
<g id="edge25" class="edge"><title>StatLabel0&#45;&gt;Label0: Tree@RecPrint</title>
<path fill="none" stroke="black" d="M158.285,-289.116C147.688,-280.07 134.213,-268.567 122.414,-258.494"/>
<polygon fill="black" stroke="black" points="124.447,-255.628 114.568,-251.797 119.902,-260.952 124.447,-255.628"/>
</g>
<!-- StatMove1&#45;&gt;ExpMem0 -->
<g id="edge34" class="edge"><title>StatMove1&#45;&gt;ExpMem0</title>
<path fill="none" stroke="black" d="M570.585,-288.411C578.306,-279.693 587.914,-268.845 596.45,-259.208"/>
<polygon fill="black" stroke="black" points="599.294,-261.276 603.304,-251.47 594.053,-256.635 599.294,-261.276"/>
</g>
<!-- ExpTemp2 -->
<g id="node30" class="node"><title>ExpTemp2</title>
<ellipse fill="none" stroke="black" cx="493.892" cy="-234" rx="50.0912" ry="18"/>
<text text-anchor="middle" x="493.892" y="-230.3" font-family="Times,serif" font-size="14.00">ExpTemp2</text>
</g>
<!-- StatMove1&#45;&gt;ExpTemp2 -->
<g id="edge33" class="edge"><title>StatMove1&#45;&gt;ExpTemp2</title>
<path fill="none" stroke="black" d="M541.198,-288.411C533.477,-279.693 523.869,-268.845 515.333,-259.208"/>
<polygon fill="black" stroke="black" points="517.73,-256.635 508.479,-251.47 512.49,-261.276 517.73,-256.635"/>
</g>
<!-- StatMove2&#45;&gt;ExpCall0 -->
<g id="edge27" class="edge"><title>StatMove2&#45;&gt;ExpCall0</title>
<path fill="none" stroke="black" d="M778.103,-290.666C797.599,-280.004 824.384,-265.356 845.584,-253.762"/>
<polygon fill="black" stroke="black" points="847.493,-256.707 854.587,-248.838 844.134,-250.566 847.493,-256.707"/>
</g>
<!-- StatMove2&#45;&gt;ExpTemp4 -->
<g id="edge26" class="edge"><title>StatMove2&#45;&gt;ExpTemp4</title>
<path fill="none" stroke="black" d="M751.892,-287.697C751.892,-279.983 751.892,-270.712 751.892,-262.112"/>
<polygon fill="black" stroke="black" points="755.392,-262.104 751.892,-252.104 748.392,-262.104 755.392,-262.104"/>
</g>
<!-- Temp2: T365 -->
<g id="node31" class="node"><title>Temp2: T365</title>
<ellipse fill="none" stroke="black" cx="489.892" cy="-162" rx="59.5901" ry="18"/>
<text text-anchor="middle" x="489.892" y="-158.3" font-family="Times,serif" font-size="14.00">Temp2: T365</text>
</g>
<!-- ExpTemp2&#45;&gt;Temp2: T365 -->
<g id="edge28" class="edge"><title>ExpTemp2&#45;&gt;Temp2: T365</title>
<path fill="none" stroke="black" d="M492.903,-215.697C492.462,-207.983 491.932,-198.712 491.441,-190.112"/>
<polygon fill="black" stroke="black" points="494.934,-189.888 490.869,-180.104 487.945,-190.288 494.934,-189.888"/>
</g>
</g>
</svg>
