<?xml version="1.0" encoding="UTF-8" standalone="no"?>
<!DOCTYPE svg PUBLIC "-//W3C//DTD SVG 1.1//EN"
 "http://www.w3.org/Graphics/SVG/1.1/DTD/svg11.dtd">
<!-- Generated by graphviz version 2.38.0 (20140413.2041)
 -->
<!-- Title: %3 Pages: 1 -->
<svg width="1912pt" height="404pt"
 viewBox="0.00 0.00 1911.84 404.00" xmlns="http://www.w3.org/2000/svg" xmlns:xlink="http://www.w3.org/1999/xlink">
<g id="graph0" class="graph" transform="scale(1 1) rotate(0) translate(4 400)">
<title>%3</title>
<polygon fill="white" stroke="none" points="-4,4 -4,-400 1907.84,-400 1907.84,4 -4,4"/>
<!-- ExpConst1 -->
<g id="node1" class="node"><title>ExpConst1</title>
<ellipse fill="none" stroke="black" cx="1601.89" cy="-234" rx="50.0912" ry="18"/>
<text text-anchor="middle" x="1601.89" y="-230.3" font-family="Times,serif" font-size="14.00">ExpConst1</text>
</g>
<!-- Value1: 0 -->
<g id="node2" class="node"><title>Value1: 0</title>
<ellipse fill="none" stroke="black" cx="1606.89" cy="-162" rx="45.4919" ry="18"/>
<text text-anchor="middle" x="1606.89" y="-158.3" font-family="Times,serif" font-size="14.00">Value1: 0</text>
</g>
<!-- ExpConst1&#45;&gt;Value1: 0 -->
<g id="edge1" class="edge"><title>ExpConst1&#45;&gt;Value1: 0</title>
<path fill="none" stroke="black" d="M1603.13,-215.697C1603.68,-207.983 1604.34,-198.712 1604.95,-190.112"/>
<polygon fill="black" stroke="black" points="1608.45,-190.328 1605.67,-180.104 1601.47,-189.83 1608.45,-190.328"/>
</g>
<!-- ExpName0 -->
<g id="node3" class="node"><title>ExpName0</title>
<ellipse fill="none" stroke="black" cx="673.892" cy="-234" rx="50.8918" ry="18"/>
<text text-anchor="middle" x="673.892" y="-230.3" font-family="Times,serif" font-size="14.00">ExpName0</text>
</g>
<!-- Label1: Tree@GetHas_Left -->
<g id="node4" class="node"><title>Label1: Tree@GetHas_Left</title>
<ellipse fill="none" stroke="black" cx="673.892" cy="-162" rx="109.681" ry="18"/>
<text text-anchor="middle" x="673.892" y="-158.3" font-family="Times,serif" font-size="14.00">Label1: Tree@GetHas_Left</text>
</g>
<!-- ExpName0&#45;&gt;Label1: Tree@GetHas_Left -->
<g id="edge2" class="edge"><title>ExpName0&#45;&gt;Label1: Tree@GetHas_Left</title>
<path fill="none" stroke="black" d="M673.892,-215.697C673.892,-207.983 673.892,-198.712 673.892,-190.112"/>
<polygon fill="black" stroke="black" points="677.392,-190.104 673.892,-180.104 670.392,-190.104 677.392,-190.104"/>
</g>
<!-- StatMove2 -->
<g id="node5" class="node"><title>StatMove2</title>
<ellipse fill="none" stroke="black" cx="861.892" cy="-306" rx="50.0912" ry="18"/>
<text text-anchor="middle" x="861.892" y="-302.3" font-family="Times,serif" font-size="14.00">StatMove2</text>
</g>
<!-- ExpTemp3 -->
<g id="node6" class="node"><title>ExpTemp3</title>
<ellipse fill="none" stroke="black" cx="861.892" cy="-234" rx="50.0912" ry="18"/>
<text text-anchor="middle" x="861.892" y="-230.3" font-family="Times,serif" font-size="14.00">ExpTemp3</text>
</g>
<!-- StatMove2&#45;&gt;ExpTemp3 -->
<g id="edge3" class="edge"><title>StatMove2&#45;&gt;ExpTemp3</title>
<path fill="none" stroke="black" d="M861.892,-287.697C861.892,-279.983 861.892,-270.712 861.892,-262.112"/>
<polygon fill="black" stroke="black" points="865.392,-262.104 861.892,-252.104 858.392,-262.104 865.392,-262.104"/>
</g>
<!-- ExpMem0 -->
<g id="node7" class="node"><title>ExpMem0</title>
<ellipse fill="none" stroke="black" cx="985.892" cy="-234" rx="48.9926" ry="18"/>
<text text-anchor="middle" x="985.892" y="-230.3" font-family="Times,serif" font-size="14.00">ExpMem0</text>
</g>
<!-- StatMove2&#45;&gt;ExpMem0 -->
<g id="edge4" class="edge"><title>StatMove2&#45;&gt;ExpMem0</title>
<path fill="none" stroke="black" d="M887.584,-290.496C906.039,-280.078 931.121,-265.919 951.33,-254.51"/>
<polygon fill="black" stroke="black" points="953.244,-257.449 960.232,-249.485 949.803,-251.354 953.244,-257.449"/>
</g>
<!-- Temp3: T454 -->
<g id="node10" class="node"><title>Temp3: T454</title>
<ellipse fill="none" stroke="black" cx="861.892" cy="-162" rx="59.5901" ry="18"/>
<text text-anchor="middle" x="861.892" y="-158.3" font-family="Times,serif" font-size="14.00">Temp3: T454</text>
</g>
<!-- ExpTemp3&#45;&gt;Temp3: T454 -->
<g id="edge6" class="edge"><title>ExpTemp3&#45;&gt;Temp3: T454</title>
<path fill="none" stroke="black" d="M861.892,-215.697C861.892,-207.983 861.892,-198.712 861.892,-190.112"/>
<polygon fill="black" stroke="black" points="865.392,-190.104 861.892,-180.104 858.392,-190.104 865.392,-190.104"/>
</g>
<!-- ExpBinary0 -->
<g id="node28" class="node"><title>ExpBinary0</title>
<ellipse fill="none" stroke="black" cx="992.892" cy="-162" rx="53.0913" ry="18"/>
<text text-anchor="middle" x="992.892" y="-158.3" font-family="Times,serif" font-size="14.00">ExpBinary0</text>
</g>
<!-- ExpMem0&#45;&gt;ExpBinary0 -->
<g id="edge25" class="edge"><title>ExpMem0&#45;&gt;ExpBinary0</title>
<path fill="none" stroke="black" d="M987.622,-215.697C988.393,-207.983 989.32,-198.712 990.18,-190.112"/>
<polygon fill="black" stroke="black" points="993.669,-190.403 991.181,-180.104 986.703,-189.706 993.669,-190.403"/>
</g>
<!-- ExpTemp2 -->
<g id="node8" class="node"><title>ExpTemp2</title>
<ellipse fill="none" stroke="black" cx="520.892" cy="-234" rx="50.0912" ry="18"/>
<text text-anchor="middle" x="520.892" y="-230.3" font-family="Times,serif" font-size="14.00">ExpTemp2</text>
</g>
<!-- Temp2: T453 -->
<g id="node9" class="node"><title>Temp2: T453</title>
<ellipse fill="none" stroke="black" cx="485.892" cy="-162" rx="59.5901" ry="18"/>
<text text-anchor="middle" x="485.892" y="-158.3" font-family="Times,serif" font-size="14.00">Temp2: T453</text>
</g>
<!-- ExpTemp2&#45;&gt;Temp2: T453 -->
<g id="edge5" class="edge"><title>ExpTemp2&#45;&gt;Temp2: T453</title>
<path fill="none" stroke="black" d="M512.419,-216.055C508.395,-208.007 503.494,-198.205 499.005,-189.226"/>
<polygon fill="black" stroke="black" points="502.132,-187.654 494.529,-180.275 495.871,-190.785 502.132,-187.654"/>
</g>
<!-- StatLabel0 -->
<g id="node11" class="node"><title>StatLabel0</title>
<ellipse fill="none" stroke="black" cx="176.892" cy="-306" rx="48.9926" ry="18"/>
<text text-anchor="middle" x="176.892" y="-302.3" font-family="Times,serif" font-size="14.00">StatLabel0</text>
</g>
<!-- Label0: Tree@RecPrint -->
<g id="node12" class="node"><title>Label0: Tree@RecPrint</title>
<ellipse fill="none" stroke="black" cx="94.8916" cy="-234" rx="94.7833" ry="18"/>
<text text-anchor="middle" x="94.8916" y="-230.3" font-family="Times,serif" font-size="14.00">Label0: Tree@RecPrint</text>
</g>
<!-- StatLabel0&#45;&gt;Label0: Tree@RecPrint -->
<g id="edge7" class="edge"><title>StatLabel0&#45;&gt;Label0: Tree@RecPrint</title>
<path fill="none" stroke="black" d="M158.285,-289.116C147.688,-280.07 134.213,-268.567 122.414,-258.494"/>
<polygon fill="black" stroke="black" points="124.447,-255.628 114.568,-251.797 119.902,-260.952 124.447,-255.628"/>
</g>
<!-- StatList0 -->
<g id="node13" class="node"><title>StatList0</title>
<ellipse fill="none" stroke="black" cx="767.892" cy="-378" rx="42.4939" ry="18"/>
<text text-anchor="middle" x="767.892" y="-374.3" font-family="Times,serif" font-size="14.00">StatList0</text>
</g>
<!-- StatList0&#45;&gt;StatMove2 -->
<g id="edge11" class="edge"><title>StatList0&#45;&gt;StatMove2</title>
<path fill="none" stroke="black" d="M788.288,-361.811C801.378,-352.063 818.573,-339.258 833.051,-328.477"/>
<polygon fill="black" stroke="black" points="835.28,-331.181 841.21,-322.401 831.099,-325.567 835.28,-331.181"/>
</g>
<!-- StatList0&#45;&gt;StatLabel0 -->
<g id="edge8" class="edge"><title>StatList0&#45;&gt;StatLabel0</title>
<path fill="none" stroke="black" d="M727.763,-372.337C648.986,-363.171 468.56,-342.12 316.892,-324 289.098,-320.679 258.208,-316.934 232.53,-313.806"/>
<polygon fill="black" stroke="black" points="232.949,-310.331 222.599,-312.595 232.102,-317.28 232.949,-310.331"/>
</g>
<!-- StatMove0 -->
<g id="node14" class="node"><title>StatMove0</title>
<ellipse fill="none" stroke="black" cx="375.892" cy="-306" rx="50.0912" ry="18"/>
<text text-anchor="middle" x="375.892" y="-302.3" font-family="Times,serif" font-size="14.00">StatMove0</text>
</g>
<!-- StatList0&#45;&gt;StatMove0 -->
<g id="edge9" class="edge"><title>StatList0&#45;&gt;StatMove0</title>
<path fill="none" stroke="black" d="M729.591,-370.161C659.386,-357.624 509.94,-330.937 429.616,-316.594"/>
<polygon fill="black" stroke="black" points="430.16,-313.135 419.7,-314.823 428.929,-320.026 430.16,-313.135"/>
</g>
<!-- StatMove1 -->
<g id="node15" class="node"><title>StatMove1</title>
<ellipse fill="none" stroke="black" cx="673.892" cy="-306" rx="50.0912" ry="18"/>
<text text-anchor="middle" x="673.892" y="-302.3" font-family="Times,serif" font-size="14.00">StatMove1</text>
</g>
<!-- StatList0&#45;&gt;StatMove1 -->
<g id="edge10" class="edge"><title>StatList0&#45;&gt;StatMove1</title>
<path fill="none" stroke="black" d="M747.495,-361.811C734.405,-352.063 717.21,-339.258 702.732,-328.477"/>
<polygon fill="black" stroke="black" points="704.684,-325.567 694.573,-322.401 700.503,-331.181 704.684,-325.567"/>
</g>
<!-- StatMove3 -->
<g id="node16" class="node"><title>StatMove3</title>
<ellipse fill="none" stroke="black" cx="1123.89" cy="-306" rx="50.0912" ry="18"/>
<text text-anchor="middle" x="1123.89" y="-302.3" font-family="Times,serif" font-size="14.00">StatMove3</text>
</g>
<!-- StatList0&#45;&gt;StatMove3 -->
<g id="edge12" class="edge"><title>StatList0&#45;&gt;StatMove3</title>
<path fill="none" stroke="black" d="M805.317,-369.641C868.913,-357.136 998.24,-331.707 1071.04,-317.392"/>
<polygon fill="black" stroke="black" points="1071.79,-320.812 1080.92,-315.449 1070.44,-313.944 1071.79,-320.812"/>
</g>
<!-- StatCJump0 -->
<g id="node17" class="node"><title>StatCJump0</title>
<ellipse fill="none" stroke="black" cx="1542.89" cy="-306" rx="53.8905" ry="18"/>
<text text-anchor="middle" x="1542.89" y="-302.3" font-family="Times,serif" font-size="14.00">StatCJump0</text>
</g>
<!-- StatList0&#45;&gt;StatCJump0 -->
<g id="edge13" class="edge"><title>StatList0&#45;&gt;StatCJump0</title>
<path fill="none" stroke="black" d="M808.739,-373.311C936.457,-361.775 1328.79,-326.338 1481.33,-312.561"/>
<polygon fill="black" stroke="black" points="1481.81,-316.031 1491.46,-311.646 1481.18,-309.06 1481.81,-316.031"/>
</g>
<!-- ExpTemp0 -->
<g id="node18" class="node"><title>ExpTemp0</title>
<ellipse fill="none" stroke="black" cx="257.892" cy="-234" rx="50.0912" ry="18"/>
<text text-anchor="middle" x="257.892" y="-230.3" font-family="Times,serif" font-size="14.00">ExpTemp0</text>
</g>
<!-- StatMove0&#45;&gt;ExpTemp0 -->
<g id="edge15" class="edge"><title>StatMove0&#45;&gt;ExpTemp0</title>
<path fill="none" stroke="black" d="M351.155,-290.326C333.769,-280.012 310.309,-266.095 291.268,-254.8"/>
<polygon fill="black" stroke="black" points="292.982,-251.747 282.596,-249.655 289.411,-257.767 292.982,-251.747"/>
</g>
<!-- ExpTemp1 -->
<g id="node20" class="node"><title>ExpTemp1</title>
<ellipse fill="none" stroke="black" cx="375.892" cy="-234" rx="50.0912" ry="18"/>
<text text-anchor="middle" x="375.892" y="-230.3" font-family="Times,serif" font-size="14.00">ExpTemp1</text>
</g>
<!-- StatMove0&#45;&gt;ExpTemp1 -->
<g id="edge16" class="edge"><title>StatMove0&#45;&gt;ExpTemp1</title>
<path fill="none" stroke="black" d="M375.892,-287.697C375.892,-279.983 375.892,-270.712 375.892,-262.112"/>
<polygon fill="black" stroke="black" points="379.392,-262.104 375.892,-252.104 372.392,-262.104 379.392,-262.104"/>
</g>
<!-- StatMove1&#45;&gt;ExpName0 -->
<g id="edge33" class="edge"><title>StatMove1&#45;&gt;ExpName0</title>
<path fill="none" stroke="black" d="M673.892,-287.697C673.892,-279.983 673.892,-270.712 673.892,-262.112"/>
<polygon fill="black" stroke="black" points="677.392,-262.104 673.892,-252.104 670.392,-262.104 677.392,-262.104"/>
</g>
<!-- StatMove1&#45;&gt;ExpTemp2 -->
<g id="edge32" class="edge"><title>StatMove1&#45;&gt;ExpTemp2</title>
<path fill="none" stroke="black" d="M644.028,-291.337C620.018,-280.352 586.096,-264.832 559.934,-252.863"/>
<polygon fill="black" stroke="black" points="561.229,-249.606 550.679,-248.628 558.317,-255.972 561.229,-249.606"/>
</g>
<!-- ExpCall0 -->
<g id="node25" class="node"><title>ExpCall0</title>
<ellipse fill="none" stroke="black" cx="1251.89" cy="-234" rx="44.393" ry="18"/>
<text text-anchor="middle" x="1251.89" y="-230.3" font-family="Times,serif" font-size="14.00">ExpCall0</text>
</g>
<!-- StatMove3&#45;&gt;ExpCall0 -->
<g id="edge29" class="edge"><title>StatMove3&#45;&gt;ExpCall0</title>
<path fill="none" stroke="black" d="M1150.1,-290.666C1169.6,-280.004 1196.38,-265.356 1217.58,-253.762"/>
<polygon fill="black" stroke="black" points="1219.49,-256.707 1226.59,-248.838 1216.13,-250.566 1219.49,-256.707"/>
</g>
<!-- ExpTemp5 -->
<g id="node33" class="node"><title>ExpTemp5</title>
<ellipse fill="none" stroke="black" cx="1123.89" cy="-234" rx="50.0912" ry="18"/>
<text text-anchor="middle" x="1123.89" y="-230.3" font-family="Times,serif" font-size="14.00">ExpTemp5</text>
</g>
<!-- StatMove3&#45;&gt;ExpTemp5 -->
<g id="edge28" class="edge"><title>StatMove3&#45;&gt;ExpTemp5</title>
<path fill="none" stroke="black" d="M1123.89,-287.697C1123.89,-279.983 1123.89,-270.712 1123.89,-262.112"/>
<polygon fill="black" stroke="black" points="1127.39,-262.104 1123.89,-252.104 1120.39,-262.104 1127.39,-262.104"/>
</g>
<!-- StatCJump0&#45;&gt;ExpConst1 -->
<g id="edge37" class="edge"><title>StatCJump0&#45;&gt;ExpConst1</title>
<path fill="none" stroke="black" d="M1556.87,-288.411C1564.22,-279.693 1573.36,-268.845 1581.49,-259.208"/>
<polygon fill="black" stroke="black" points="1584.24,-261.372 1588.01,-251.47 1578.89,-256.861 1584.24,-261.372"/>
</g>
<!-- ExpTemp8 -->
<g id="node36" class="node"><title>ExpTemp8</title>
<ellipse fill="none" stroke="black" cx="1483.89" cy="-234" rx="50.0912" ry="18"/>
<text text-anchor="middle" x="1483.89" y="-230.3" font-family="Times,serif" font-size="14.00">ExpTemp8</text>
</g>
<!-- StatCJump0&#45;&gt;ExpTemp8 -->
<g id="edge36" class="edge"><title>StatCJump0&#45;&gt;ExpTemp8</title>
<path fill="none" stroke="black" d="M1528.91,-288.411C1521.56,-279.693 1512.42,-268.845 1504.3,-259.208"/>
<polygon fill="black" stroke="black" points="1506.89,-256.861 1497.77,-251.47 1501.54,-261.372 1506.89,-256.861"/>
</g>
<!-- NE0 -->
<g id="node38" class="node"><title>NE0</title>
<ellipse fill="none" stroke="black" cx="1388.89" cy="-234" rx="27" ry="18"/>
<text text-anchor="middle" x="1388.89" y="-230.3" font-family="Times,serif" font-size="14.00">NE0</text>
</g>
<!-- StatCJump0&#45;&gt;NE0 -->
<g id="edge35" class="edge"><title>StatCJump0&#45;&gt;NE0</title>
<path fill="none" stroke="black" d="M1511.76,-291.212C1487.93,-280.608 1454.26,-265.53 1424.89,-252 1423.1,-251.176 1421.27,-250.324 1419.41,-249.462"/>
<polygon fill="black" stroke="black" points="1420.72,-246.21 1410.18,-245.135 1417.75,-252.548 1420.72,-246.21"/>
</g>
<!-- Label2: L73 -->
<g id="node39" class="node"><title>Label2: L73</title>
<ellipse fill="none" stroke="black" cx="1723.89" cy="-234" rx="53.8905" ry="18"/>
<text text-anchor="middle" x="1723.89" y="-230.3" font-family="Times,serif" font-size="14.00">Label2: L73</text>
</g>
<!-- StatCJump0&#45;&gt;Label2: L73 -->
<g id="edge38" class="edge"><title>StatCJump0&#45;&gt;Label2: L73</title>
<path fill="none" stroke="black" d="M1576.94,-291.834C1606.26,-280.492 1648.76,-264.057 1680.51,-251.776"/>
<polygon fill="black" stroke="black" points="1681.94,-254.979 1690,-248.107 1679.41,-248.45 1681.94,-254.979"/>
</g>
<!-- Label3: L74 -->
<g id="node40" class="node"><title>Label3: L74</title>
<ellipse fill="none" stroke="black" cx="1849.89" cy="-234" rx="53.8905" ry="18"/>
<text text-anchor="middle" x="1849.89" y="-230.3" font-family="Times,serif" font-size="14.00">Label3: L74</text>
</g>
<!-- StatCJump0&#45;&gt;Label3: L74 -->
<g id="edge39" class="edge"><title>StatCJump0&#45;&gt;Label3: L74</title>
<path fill="none" stroke="black" d="M1588.02,-295.898C1637.11,-285.834 1717.82,-268.811 1786.89,-252 1791.04,-250.99 1795.33,-249.91 1799.64,-248.801"/>
<polygon fill="black" stroke="black" points="1800.85,-252.101 1809.64,-246.181 1799.08,-245.329 1800.85,-252.101"/>
</g>
<!-- Temp0: T455 -->
<g id="node19" class="node"><title>Temp0: T455</title>
<ellipse fill="none" stroke="black" cx="209.892" cy="-162" rx="59.5901" ry="18"/>
<text text-anchor="middle" x="209.892" y="-158.3" font-family="Times,serif" font-size="14.00">Temp0: T455</text>
</g>
<!-- ExpTemp0&#45;&gt;Temp0: T455 -->
<g id="edge14" class="edge"><title>ExpTemp0&#45;&gt;Temp0: T455</title>
<path fill="none" stroke="black" d="M246.516,-216.411C240.802,-208.077 233.752,-197.797 227.369,-188.488"/>
<polygon fill="black" stroke="black" points="230.061,-186.224 221.519,-179.956 224.287,-190.183 230.061,-186.224"/>
</g>
<!-- Temp1: T445 -->
<g id="node32" class="node"><title>Temp1: T445</title>
<ellipse fill="none" stroke="black" cx="347.892" cy="-162" rx="59.5901" ry="18"/>
<text text-anchor="middle" x="347.892" y="-158.3" font-family="Times,serif" font-size="14.00">Temp1: T445</text>
</g>
<!-- ExpTemp1&#45;&gt;Temp1: T445 -->
<g id="edge26" class="edge"><title>ExpTemp1&#45;&gt;Temp1: T445</title>
<path fill="none" stroke="black" d="M369.114,-216.055C365.962,-208.176 362.138,-198.617 358.609,-189.794"/>
<polygon fill="black" stroke="black" points="361.765,-188.26 354.802,-180.275 355.266,-190.86 361.765,-188.26"/>
</g>
<!-- ExpTemp7 -->
<g id="node21" class="node"><title>ExpTemp7</title>
<ellipse fill="none" stroke="black" cx="1370.89" cy="-90" rx="50.0912" ry="18"/>
<text text-anchor="middle" x="1370.89" y="-86.3" font-family="Times,serif" font-size="14.00">ExpTemp7</text>
</g>
<!-- Temp7: T454 -->
<g id="node22" class="node"><title>Temp7: T454</title>
<ellipse fill="none" stroke="black" cx="1370.89" cy="-18" rx="59.5901" ry="18"/>
<text text-anchor="middle" x="1370.89" y="-14.3" font-family="Times,serif" font-size="14.00">Temp7: T454</text>
</g>
<!-- ExpTemp7&#45;&gt;Temp7: T454 -->
<g id="edge17" class="edge"><title>ExpTemp7&#45;&gt;Temp7: T454</title>
<path fill="none" stroke="black" d="M1370.89,-71.6966C1370.89,-63.9827 1370.89,-54.7125 1370.89,-46.1124"/>
<polygon fill="black" stroke="black" points="1374.39,-46.1043 1370.89,-36.1043 1367.39,-46.1044 1374.39,-46.1043"/>
</g>
<!-- ExpTemp4 -->
<g id="node23" class="node"><title>ExpTemp4</title>
<ellipse fill="none" stroke="black" cx="893.892" cy="-90" rx="50.0912" ry="18"/>
<text text-anchor="middle" x="893.892" y="-86.3" font-family="Times,serif" font-size="14.00">ExpTemp4</text>
</g>
<!-- Temp4: $fp -->
<g id="node24" class="node"><title>Temp4: $fp</title>
<ellipse fill="none" stroke="black" cx="893.892" cy="-18" rx="52.7911" ry="18"/>
<text text-anchor="middle" x="893.892" y="-14.3" font-family="Times,serif" font-size="14.00">Temp4: $fp</text>
</g>
<!-- ExpTemp4&#45;&gt;Temp4: $fp -->
<g id="edge18" class="edge"><title>ExpTemp4&#45;&gt;Temp4: $fp</title>
<path fill="none" stroke="black" d="M893.892,-71.6966C893.892,-63.9827 893.892,-54.7125 893.892,-46.1124"/>
<polygon fill="black" stroke="black" points="897.392,-46.1043 893.892,-36.1043 890.392,-46.1044 897.392,-46.1043"/>
</g>
<!-- ExpTemp6 -->
<g id="node26" class="node"><title>ExpTemp6</title>
<ellipse fill="none" stroke="black" cx="1251.89" cy="-162" rx="50.0912" ry="18"/>
<text text-anchor="middle" x="1251.89" y="-158.3" font-family="Times,serif" font-size="14.00">ExpTemp6</text>
</g>
<!-- ExpCall0&#45;&gt;ExpTemp6 -->
<g id="edge19" class="edge"><title>ExpCall0&#45;&gt;ExpTemp6</title>
<path fill="none" stroke="black" d="M1251.89,-215.697C1251.89,-207.983 1251.89,-198.712 1251.89,-190.112"/>
<polygon fill="black" stroke="black" points="1255.39,-190.104 1251.89,-180.104 1248.39,-190.104 1255.39,-190.104"/>
</g>
<!-- ExpList0 -->
<g id="node27" class="node"><title>ExpList0</title>
<ellipse fill="none" stroke="black" cx="1362.89" cy="-162" rx="42.7926" ry="18"/>
<text text-anchor="middle" x="1362.89" y="-158.3" font-family="Times,serif" font-size="14.00">ExpList0</text>
</g>
<!-- ExpCall0&#45;&gt;ExpList0 -->
<g id="edge20" class="edge"><title>ExpCall0&#45;&gt;ExpList0</title>
<path fill="none" stroke="black" d="M1274.89,-218.496C1291.11,-208.266 1313.06,-194.428 1330.97,-183.13"/>
<polygon fill="black" stroke="black" points="1333.33,-185.78 1339.92,-177.485 1329.6,-179.859 1333.33,-185.78"/>
</g>
<!-- Temp6: T453 -->
<g id="node35" class="node"><title>Temp6: T453</title>
<ellipse fill="none" stroke="black" cx="1242.89" cy="-90" rx="59.5901" ry="18"/>
<text text-anchor="middle" x="1242.89" y="-86.3" font-family="Times,serif" font-size="14.00">Temp6: T453</text>
</g>
<!-- ExpTemp6&#45;&gt;Temp6: T453 -->
<g id="edge30" class="edge"><title>ExpTemp6&#45;&gt;Temp6: T453</title>
<path fill="none" stroke="black" d="M1249.67,-143.697C1248.68,-135.983 1247.48,-126.712 1246.38,-118.112"/>
<polygon fill="black" stroke="black" points="1249.84,-117.576 1245.09,-108.104 1242.89,-118.469 1249.84,-117.576"/>
</g>
<!-- ExpList0&#45;&gt;ExpTemp7 -->
<g id="edge31" class="edge"><title>ExpList0&#45;&gt;ExpTemp7</title>
<path fill="none" stroke="black" d="M1364.87,-143.697C1365.75,-135.983 1366.81,-126.712 1367.79,-118.112"/>
<polygon fill="black" stroke="black" points="1371.28,-118.437 1368.94,-108.104 1364.32,-117.642 1371.28,-118.437"/>
</g>
<!-- ExpBinary0&#45;&gt;ExpTemp4 -->
<g id="edge21" class="edge"><title>ExpBinary0&#45;&gt;ExpTemp4</title>
<path fill="none" stroke="black" d="M970.92,-145.465C957.111,-135.7 939.11,-122.972 923.982,-112.276"/>
<polygon fill="black" stroke="black" points="925.647,-109.167 915.461,-106.251 921.605,-114.882 925.647,-109.167"/>
</g>
<!-- Plus0 -->
<g id="node29" class="node"><title>Plus0</title>
<ellipse fill="none" stroke="black" cx="992.892" cy="-90" rx="30.5947" ry="18"/>
<text text-anchor="middle" x="992.892" y="-86.3" font-family="Times,serif" font-size="14.00">Plus0</text>
</g>
<!-- ExpBinary0&#45;&gt;Plus0 -->
<g id="edge22" class="edge"><title>ExpBinary0&#45;&gt;Plus0</title>
<path fill="none" stroke="black" d="M992.892,-143.697C992.892,-135.983 992.892,-126.712 992.892,-118.112"/>
<polygon fill="black" stroke="black" points="996.392,-118.104 992.892,-108.104 989.392,-118.104 996.392,-118.104"/>
</g>
<!-- ExpConst0 -->
<g id="node30" class="node"><title>ExpConst0</title>
<ellipse fill="none" stroke="black" cx="1091.89" cy="-90" rx="50.0912" ry="18"/>
<text text-anchor="middle" x="1091.89" y="-86.3" font-family="Times,serif" font-size="14.00">ExpConst0</text>
</g>
<!-- ExpBinary0&#45;&gt;ExpConst0 -->
<g id="edge23" class="edge"><title>ExpBinary0&#45;&gt;ExpConst0</title>
<path fill="none" stroke="black" d="M1014.86,-145.465C1028.67,-135.7 1046.67,-122.972 1061.8,-112.276"/>
<polygon fill="black" stroke="black" points="1064.18,-114.882 1070.32,-106.251 1060.14,-109.167 1064.18,-114.882"/>
</g>
<!-- Value0: 4 -->
<g id="node31" class="node"><title>Value0: 4</title>
<ellipse fill="none" stroke="black" cx="1091.89" cy="-18" rx="45.4919" ry="18"/>
<text text-anchor="middle" x="1091.89" y="-14.3" font-family="Times,serif" font-size="14.00">Value0: 4</text>
</g>
<!-- ExpConst0&#45;&gt;Value0: 4 -->
<g id="edge24" class="edge"><title>ExpConst0&#45;&gt;Value0: 4</title>
<path fill="none" stroke="black" d="M1091.89,-71.6966C1091.89,-63.9827 1091.89,-54.7125 1091.89,-46.1124"/>
<polygon fill="black" stroke="black" points="1095.39,-46.1043 1091.89,-36.1043 1088.39,-46.1044 1095.39,-46.1043"/>
</g>
<!-- Temp5: T455 -->
<g id="node34" class="node"><title>Temp5: T455</title>
<ellipse fill="none" stroke="black" cx="1123.89" cy="-162" rx="59.5901" ry="18"/>
<text text-anchor="middle" x="1123.89" y="-158.3" font-family="Times,serif" font-size="14.00">Temp5: T455</text>
</g>
<!-- ExpTemp5&#45;&gt;Temp5: T455 -->
<g id="edge27" class="edge"><title>ExpTemp5&#45;&gt;Temp5: T455</title>
<path fill="none" stroke="black" d="M1123.89,-215.697C1123.89,-207.983 1123.89,-198.712 1123.89,-190.112"/>
<polygon fill="black" stroke="black" points="1127.39,-190.104 1123.89,-180.104 1120.39,-190.104 1127.39,-190.104"/>
</g>
<!-- Temp8: T445 -->
<g id="node37" class="node"><title>Temp8: T445</title>
<ellipse fill="none" stroke="black" cx="1483.89" cy="-162" rx="59.5901" ry="18"/>
<text text-anchor="middle" x="1483.89" y="-158.3" font-family="Times,serif" font-size="14.00">Temp8: T445</text>
</g>
<!-- ExpTemp8&#45;&gt;Temp8: T445 -->
<g id="edge34" class="edge"><title>ExpTemp8&#45;&gt;Temp8: T445</title>
<path fill="none" stroke="black" d="M1483.89,-215.697C1483.89,-207.983 1483.89,-198.712 1483.89,-190.112"/>
<polygon fill="black" stroke="black" points="1487.39,-190.104 1483.89,-180.104 1480.39,-190.104 1487.39,-190.104"/>
</g>
</g>
</svg>
