<?xml version="1.0" encoding="UTF-8" standalone="no"?>
<!DOCTYPE svg PUBLIC "-//W3C//DTD SVG 1.1//EN"
 "http://www.w3.org/Graphics/SVG/1.1/DTD/svg11.dtd">
<!-- Generated by graphviz version 2.38.0 (20140413.2041)
 -->
<!-- Title: %3 Pages: 1 -->
<svg width="2778pt" height="404pt"
 viewBox="0.00 0.00 2777.89 404.00" xmlns="http://www.w3.org/2000/svg" xmlns:xlink="http://www.w3.org/1999/xlink">
<g id="graph0" class="graph" transform="scale(1 1) rotate(0) translate(4 400)">
<title>%3</title>
<polygon fill="white" stroke="none" points="-4,4 -4,-400 2773.89,-400 2773.89,4 -4,4"/>
<!-- StatMove8 -->
<g id="node1" class="node"><title>StatMove8</title>
<ellipse fill="none" stroke="black" cx="2461.95" cy="-306" rx="50.0912" ry="18"/>
<text text-anchor="middle" x="2461.95" y="-302.3" font-family="Times,serif" font-size="14.00">StatMove8</text>
</g>
<!-- ExpTemp17 -->
<g id="node2" class="node"><title>ExpTemp17</title>
<ellipse fill="none" stroke="black" cx="2461.95" cy="-234" rx="54.6905" ry="18"/>
<text text-anchor="middle" x="2461.95" y="-230.3" font-family="Times,serif" font-size="14.00">ExpTemp17</text>
</g>
<!-- StatMove8&#45;&gt;ExpTemp17 -->
<g id="edge1" class="edge"><title>StatMove8&#45;&gt;ExpTemp17</title>
<path fill="none" stroke="black" d="M2461.95,-287.697C2461.95,-279.983 2461.95,-270.712 2461.95,-262.112"/>
<polygon fill="black" stroke="black" points="2465.45,-262.104 2461.95,-252.104 2458.45,-262.104 2465.45,-262.104"/>
</g>
<!-- ExpTemp18 -->
<g id="node3" class="node"><title>ExpTemp18</title>
<ellipse fill="none" stroke="black" cx="2588.95" cy="-234" rx="54.6905" ry="18"/>
<text text-anchor="middle" x="2588.95" y="-230.3" font-family="Times,serif" font-size="14.00">ExpTemp18</text>
</g>
<!-- StatMove8&#45;&gt;ExpTemp18 -->
<g id="edge2" class="edge"><title>StatMove8&#45;&gt;ExpTemp18</title>
<path fill="none" stroke="black" d="M2488.26,-290.496C2507.12,-280.101 2532.74,-265.981 2553.41,-254.585"/>
<polygon fill="black" stroke="black" points="2555.16,-257.619 2562.23,-249.726 2551.78,-251.488 2555.16,-257.619"/>
</g>
<!-- Temp17: T372 -->
<g id="node21" class="node"><title>Temp17: T372</title>
<ellipse fill="none" stroke="black" cx="2521.95" cy="-162" rx="63.8893" ry="18"/>
<text text-anchor="middle" x="2521.95" y="-158.3" font-family="Times,serif" font-size="14.00">Temp17: T372</text>
</g>
<!-- ExpTemp17&#45;&gt;Temp17: T372 -->
<g id="edge14" class="edge"><title>ExpTemp17&#45;&gt;Temp17: T372</title>
<path fill="none" stroke="black" d="M2476.16,-216.411C2483.53,-207.82 2492.67,-197.159 2500.84,-187.627"/>
<polygon fill="black" stroke="black" points="2503.56,-189.827 2507.41,-179.956 2498.25,-185.271 2503.56,-189.827"/>
</g>
<!-- Temp18: T359 -->
<g id="node44" class="node"><title>Temp18: T359</title>
<ellipse fill="none" stroke="black" cx="2666.95" cy="-162" rx="63.8893" ry="18"/>
<text text-anchor="middle" x="2666.95" y="-158.3" font-family="Times,serif" font-size="14.00">Temp18: T359</text>
</g>
<!-- ExpTemp18&#45;&gt;Temp18: T359 -->
<g id="edge32" class="edge"><title>ExpTemp18&#45;&gt;Temp18: T359</title>
<path fill="none" stroke="black" d="M2607.04,-216.765C2617.1,-207.73 2629.81,-196.326 2640.93,-186.349"/>
<polygon fill="black" stroke="black" points="2643.58,-188.674 2648.68,-179.39 2638.9,-183.464 2643.58,-188.674"/>
</g>
<!-- ExpCall1 -->
<g id="node4" class="node"><title>ExpCall1</title>
<ellipse fill="none" stroke="black" cx="2284.95" cy="-234" rx="44.393" ry="18"/>
<text text-anchor="middle" x="2284.95" y="-230.3" font-family="Times,serif" font-size="14.00">ExpCall1</text>
</g>
<!-- ExpName1 -->
<g id="node5" class="node"><title>ExpName1</title>
<ellipse fill="none" stroke="black" cx="2284.95" cy="-162" rx="50.8918" ry="18"/>
<text text-anchor="middle" x="2284.95" y="-158.3" font-family="Times,serif" font-size="14.00">ExpName1</text>
</g>
<!-- ExpCall1&#45;&gt;ExpName1 -->
<g id="edge3" class="edge"><title>ExpCall1&#45;&gt;ExpName1</title>
<path fill="none" stroke="black" d="M2284.95,-215.697C2284.95,-207.983 2284.95,-198.712 2284.95,-190.112"/>
<polygon fill="black" stroke="black" points="2288.45,-190.104 2284.95,-180.104 2281.45,-190.104 2288.45,-190.104"/>
</g>
<!-- ExpList1 -->
<g id="node6" class="node"><title>ExpList1</title>
<ellipse fill="none" stroke="black" cx="2396.95" cy="-162" rx="42.7926" ry="18"/>
<text text-anchor="middle" x="2396.95" y="-158.3" font-family="Times,serif" font-size="14.00">ExpList1</text>
</g>
<!-- ExpCall1&#45;&gt;ExpList1 -->
<g id="edge4" class="edge"><title>ExpCall1&#45;&gt;ExpList1</title>
<path fill="none" stroke="black" d="M2308.15,-218.496C2324.67,-208.172 2347.07,-194.174 2365.23,-182.819"/>
<polygon fill="black" stroke="black" points="2367.14,-185.753 2373.77,-177.485 2363.43,-179.818 2367.14,-185.753"/>
</g>
<!-- Label2: Tree@RecPrint -->
<g id="node7" class="node"><title>Label2: Tree@RecPrint</title>
<ellipse fill="none" stroke="black" cx="2229.95" cy="-90" rx="94.7833" ry="18"/>
<text text-anchor="middle" x="2229.95" y="-86.3" font-family="Times,serif" font-size="14.00">Label2: Tree@RecPrint</text>
</g>
<!-- ExpName1&#45;&gt;Label2: Tree@RecPrint -->
<g id="edge5" class="edge"><title>ExpName1&#45;&gt;Label2: Tree@RecPrint</title>
<path fill="none" stroke="black" d="M2271.91,-144.411C2265.23,-135.906 2256.95,-125.372 2249.52,-115.914"/>
<polygon fill="black" stroke="black" points="2252.2,-113.657 2243.27,-107.956 2246.69,-117.982 2252.2,-113.657"/>
</g>
<!-- ExpTemp16 -->
<g id="node8" class="node"><title>ExpTemp16</title>
<ellipse fill="none" stroke="black" cx="2532.95" cy="-90" rx="54.6905" ry="18"/>
<text text-anchor="middle" x="2532.95" y="-86.3" font-family="Times,serif" font-size="14.00">ExpTemp16</text>
</g>
<!-- ExpList1&#45;&gt;ExpTemp16 -->
<g id="edge65" class="edge"><title>ExpList1&#45;&gt;ExpTemp16</title>
<path fill="none" stroke="black" d="M2423.17,-147.503C2443.66,-136.958 2472.4,-122.161 2495.34,-110.354"/>
<polygon fill="black" stroke="black" points="2497.17,-113.352 2504.46,-105.664 2493.96,-107.128 2497.17,-113.352"/>
</g>
<!-- ExpTemp15 -->
<g id="node14" class="node"><title>ExpTemp15</title>
<ellipse fill="none" stroke="black" cx="2396.95" cy="-90" rx="54.6905" ry="18"/>
<text text-anchor="middle" x="2396.95" y="-86.3" font-family="Times,serif" font-size="14.00">ExpTemp15</text>
</g>
<!-- ExpList1&#45;&gt;ExpTemp15 -->
<g id="edge64" class="edge"><title>ExpList1&#45;&gt;ExpTemp15</title>
<path fill="none" stroke="black" d="M2396.95,-143.697C2396.95,-135.983 2396.95,-126.712 2396.95,-118.112"/>
<polygon fill="black" stroke="black" points="2400.45,-118.104 2396.95,-108.104 2393.45,-118.104 2400.45,-118.104"/>
</g>
<!-- Temp16: T370 -->
<g id="node9" class="node"><title>Temp16: T370</title>
<ellipse fill="none" stroke="black" cx="2536.95" cy="-18" rx="63.8893" ry="18"/>
<text text-anchor="middle" x="2536.95" y="-14.3" font-family="Times,serif" font-size="14.00">Temp16: T370</text>
</g>
<!-- ExpTemp16&#45;&gt;Temp16: T370 -->
<g id="edge6" class="edge"><title>ExpTemp16&#45;&gt;Temp16: T370</title>
<path fill="none" stroke="black" d="M2533.93,-71.6966C2534.37,-63.9827 2534.9,-54.7125 2535.4,-46.1124"/>
<polygon fill="black" stroke="black" points="2538.89,-46.2878 2535.97,-36.1043 2531.9,-45.8883 2538.89,-46.2878"/>
</g>
<!-- ExpTemp13 -->
<g id="node10" class="node"><title>ExpTemp13</title>
<ellipse fill="none" stroke="black" cx="1998.95" cy="-234" rx="54.6905" ry="18"/>
<text text-anchor="middle" x="1998.95" y="-230.3" font-family="Times,serif" font-size="14.00">ExpTemp13</text>
</g>
<!-- Temp13: T358 -->
<g id="node11" class="node"><title>Temp13: T358</title>
<ellipse fill="none" stroke="black" cx="2007.95" cy="-162" rx="63.8893" ry="18"/>
<text text-anchor="middle" x="2007.95" y="-158.3" font-family="Times,serif" font-size="14.00">Temp13: T358</text>
</g>
<!-- ExpTemp13&#45;&gt;Temp13: T358 -->
<g id="edge7" class="edge"><title>ExpTemp13&#45;&gt;Temp13: T358</title>
<path fill="none" stroke="black" d="M2001.17,-215.697C2002.16,-207.983 2003.35,-198.712 2004.46,-190.112"/>
<polygon fill="black" stroke="black" points="2007.94,-190.469 2005.75,-180.104 2001,-189.576 2007.94,-190.469"/>
</g>
<!-- StatMove6 -->
<g id="node12" class="node"><title>StatMove6</title>
<ellipse fill="none" stroke="black" cx="1862.95" cy="-306" rx="50.0912" ry="18"/>
<text text-anchor="middle" x="1862.95" y="-302.3" font-family="Times,serif" font-size="14.00">StatMove6</text>
</g>
<!-- StatMove6&#45;&gt;ExpTemp13 -->
<g id="edge9" class="edge"><title>StatMove6&#45;&gt;ExpTemp13</title>
<path fill="none" stroke="black" d="M1890.47,-290.834C1910.93,-280.301 1939.09,-265.809 1961.59,-254.229"/>
<polygon fill="black" stroke="black" points="1963.24,-257.315 1970.53,-249.626 1960.04,-251.091 1963.24,-257.315"/>
</g>
<!-- ExpTemp12 -->
<g id="node13" class="node"><title>ExpTemp12</title>
<ellipse fill="none" stroke="black" cx="1862.95" cy="-234" rx="54.6905" ry="18"/>
<text text-anchor="middle" x="1862.95" y="-230.3" font-family="Times,serif" font-size="14.00">ExpTemp12</text>
</g>
<!-- StatMove6&#45;&gt;ExpTemp12 -->
<g id="edge8" class="edge"><title>StatMove6&#45;&gt;ExpTemp12</title>
<path fill="none" stroke="black" d="M1862.95,-287.697C1862.95,-279.983 1862.95,-270.712 1862.95,-262.112"/>
<polygon fill="black" stroke="black" points="1866.45,-262.104 1862.95,-252.104 1859.45,-262.104 1866.45,-262.104"/>
</g>
<!-- Temp12: T370 -->
<g id="node57" class="node"><title>Temp12: T370</title>
<ellipse fill="none" stroke="black" cx="1862.95" cy="-162" rx="63.8893" ry="18"/>
<text text-anchor="middle" x="1862.95" y="-158.3" font-family="Times,serif" font-size="14.00">Temp12: T370</text>
</g>
<!-- ExpTemp12&#45;&gt;Temp12: T370 -->
<g id="edge48" class="edge"><title>ExpTemp12&#45;&gt;Temp12: T370</title>
<path fill="none" stroke="black" d="M1862.95,-215.697C1862.95,-207.983 1862.95,-198.712 1862.95,-190.112"/>
<polygon fill="black" stroke="black" points="1866.45,-190.104 1862.95,-180.104 1859.45,-190.104 1866.45,-190.104"/>
</g>
<!-- Temp15: T369 -->
<g id="node15" class="node"><title>Temp15: T369</title>
<ellipse fill="none" stroke="black" cx="2391.95" cy="-18" rx="63.8893" ry="18"/>
<text text-anchor="middle" x="2391.95" y="-14.3" font-family="Times,serif" font-size="14.00">Temp15: T369</text>
</g>
<!-- ExpTemp15&#45;&gt;Temp15: T369 -->
<g id="edge10" class="edge"><title>ExpTemp15&#45;&gt;Temp15: T369</title>
<path fill="none" stroke="black" d="M2395.71,-71.6966C2395.16,-63.9827 2394.5,-54.7125 2393.88,-46.1124"/>
<polygon fill="black" stroke="black" points="2397.37,-45.8295 2393.17,-36.1043 2390.39,-46.3283 2397.37,-45.8295"/>
</g>
<!-- ExpList0 -->
<g id="node16" class="node"><title>ExpList0</title>
<ellipse fill="none" stroke="black" cx="1465.95" cy="-162" rx="42.7926" ry="18"/>
<text text-anchor="middle" x="1465.95" y="-158.3" font-family="Times,serif" font-size="14.00">ExpList0</text>
</g>
<!-- ExpTemp9 -->
<g id="node17" class="node"><title>ExpTemp9</title>
<ellipse fill="none" stroke="black" cx="1513.95" cy="-90" rx="50.0912" ry="18"/>
<text text-anchor="middle" x="1513.95" y="-86.3" font-family="Times,serif" font-size="14.00">ExpTemp9</text>
</g>
<!-- ExpList0&#45;&gt;ExpTemp9 -->
<g id="edge11" class="edge"><title>ExpList0&#45;&gt;ExpTemp9</title>
<path fill="none" stroke="black" d="M1477.32,-144.411C1483.03,-136.077 1490.08,-125.797 1496.47,-116.488"/>
<polygon fill="black" stroke="black" points="1499.55,-118.183 1502.32,-107.956 1493.78,-114.224 1499.55,-118.183"/>
</g>
<!-- Temp9: T367 -->
<g id="node18" class="node"><title>Temp9: T367</title>
<ellipse fill="none" stroke="black" cx="1513.95" cy="-18" rx="59.5901" ry="18"/>
<text text-anchor="middle" x="1513.95" y="-14.3" font-family="Times,serif" font-size="14.00">Temp9: T367</text>
</g>
<!-- ExpTemp9&#45;&gt;Temp9: T367 -->
<g id="edge12" class="edge"><title>ExpTemp9&#45;&gt;Temp9: T367</title>
<path fill="none" stroke="black" d="M1513.95,-71.6966C1513.95,-63.9827 1513.95,-54.7125 1513.95,-46.1124"/>
<polygon fill="black" stroke="black" points="1517.45,-46.1043 1513.95,-36.1043 1510.45,-46.1044 1517.45,-46.1043"/>
</g>
<!-- StatJump0 -->
<g id="node19" class="node"><title>StatJump0</title>
<ellipse fill="none" stroke="black" cx="2646.95" cy="-306" rx="48.1917" ry="18"/>
<text text-anchor="middle" x="2646.95" y="-302.3" font-family="Times,serif" font-size="14.00">StatJump0</text>
</g>
<!-- Label3: L75 -->
<g id="node20" class="node"><title>Label3: L75</title>
<ellipse fill="none" stroke="black" cx="2715.95" cy="-234" rx="53.8905" ry="18"/>
<text text-anchor="middle" x="2715.95" y="-230.3" font-family="Times,serif" font-size="14.00">Label3: L75</text>
</g>
<!-- StatJump0&#45;&gt;Label3: L75 -->
<g id="edge13" class="edge"><title>StatJump0&#45;&gt;Label3: L75</title>
<path fill="none" stroke="black" d="M2662.95,-288.765C2671.7,-279.882 2682.72,-268.709 2692.43,-258.854"/>
<polygon fill="black" stroke="black" points="2695.02,-261.212 2699.55,-251.633 2690.04,-256.298 2695.02,-261.212"/>
</g>
<!-- ExpMem2 -->
<g id="node22" class="node"><title>ExpMem2</title>
<ellipse fill="none" stroke="black" cx="1718.95" cy="-234" rx="48.9926" ry="18"/>
<text text-anchor="middle" x="1718.95" y="-230.3" font-family="Times,serif" font-size="14.00">ExpMem2</text>
</g>
<!-- ExpTemp11 -->
<g id="node23" class="node"><title>ExpTemp11</title>
<ellipse fill="none" stroke="black" cx="1726.95" cy="-162" rx="54.6905" ry="18"/>
<text text-anchor="middle" x="1726.95" y="-158.3" font-family="Times,serif" font-size="14.00">ExpTemp11</text>
</g>
<!-- ExpMem2&#45;&gt;ExpTemp11 -->
<g id="edge15" class="edge"><title>ExpMem2&#45;&gt;ExpTemp11</title>
<path fill="none" stroke="black" d="M1720.92,-215.697C1721.8,-207.983 1722.86,-198.712 1723.85,-190.112"/>
<polygon fill="black" stroke="black" points="1727.33,-190.437 1724.99,-180.104 1720.38,-189.642 1727.33,-190.437"/>
</g>
<!-- Temp11: $fp -->
<g id="node69" class="node"><title>Temp11: $fp</title>
<ellipse fill="none" stroke="black" cx="1726.95" cy="-90" rx="57.3905" ry="18"/>
<text text-anchor="middle" x="1726.95" y="-86.3" font-family="Times,serif" font-size="14.00">Temp11: $fp</text>
</g>
<!-- ExpTemp11&#45;&gt;Temp11: $fp -->
<g id="edge59" class="edge"><title>ExpTemp11&#45;&gt;Temp11: $fp</title>
<path fill="none" stroke="black" d="M1726.95,-143.697C1726.95,-135.983 1726.95,-126.712 1726.95,-118.112"/>
<polygon fill="black" stroke="black" points="1730.45,-118.104 1726.95,-108.104 1723.45,-118.104 1730.45,-118.104"/>
</g>
<!-- ExpCall0 -->
<g id="node24" class="node"><title>ExpCall0</title>
<ellipse fill="none" stroke="black" cx="1353.95" cy="-234" rx="44.393" ry="18"/>
<text text-anchor="middle" x="1353.95" y="-230.3" font-family="Times,serif" font-size="14.00">ExpCall0</text>
</g>
<!-- ExpCall0&#45;&gt;ExpList0 -->
<g id="edge17" class="edge"><title>ExpCall0&#45;&gt;ExpList0</title>
<path fill="none" stroke="black" d="M1377.15,-218.496C1393.67,-208.172 1416.07,-194.174 1434.23,-182.819"/>
<polygon fill="black" stroke="black" points="1436.14,-185.753 1442.77,-177.485 1432.43,-179.818 1436.14,-185.753"/>
</g>
<!-- ExpName0 -->
<g id="node25" class="node"><title>ExpName0</title>
<ellipse fill="none" stroke="black" cx="1353.95" cy="-162" rx="50.8918" ry="18"/>
<text text-anchor="middle" x="1353.95" y="-158.3" font-family="Times,serif" font-size="14.00">ExpName0</text>
</g>
<!-- ExpCall0&#45;&gt;ExpName0 -->
<g id="edge16" class="edge"><title>ExpCall0&#45;&gt;ExpName0</title>
<path fill="none" stroke="black" d="M1353.95,-215.697C1353.95,-207.983 1353.95,-198.712 1353.95,-190.112"/>
<polygon fill="black" stroke="black" points="1357.45,-190.104 1353.95,-180.104 1350.45,-190.104 1357.45,-190.104"/>
</g>
<!-- Label1: Tree@GetLeft -->
<g id="node26" class="node"><title>Label1: Tree@GetLeft</title>
<ellipse fill="none" stroke="black" cx="1353.95" cy="-90" rx="91.784" ry="18"/>
<text text-anchor="middle" x="1353.95" y="-86.3" font-family="Times,serif" font-size="14.00">Label1: Tree@GetLeft</text>
</g>
<!-- ExpName0&#45;&gt;Label1: Tree@GetLeft -->
<g id="edge18" class="edge"><title>ExpName0&#45;&gt;Label1: Tree@GetLeft</title>
<path fill="none" stroke="black" d="M1353.95,-143.697C1353.95,-135.983 1353.95,-126.712 1353.95,-118.112"/>
<polygon fill="black" stroke="black" points="1357.45,-118.104 1353.95,-108.104 1350.45,-118.104 1357.45,-118.104"/>
</g>
<!-- StatMove5 -->
<g id="node27" class="node"><title>StatMove5</title>
<ellipse fill="none" stroke="black" cx="1590.95" cy="-306" rx="50.0912" ry="18"/>
<text text-anchor="middle" x="1590.95" y="-302.3" font-family="Times,serif" font-size="14.00">StatMove5</text>
</g>
<!-- StatMove5&#45;&gt;ExpMem2 -->
<g id="edge20" class="edge"><title>StatMove5&#45;&gt;ExpMem2</title>
<path fill="none" stroke="black" d="M1617.16,-290.666C1636.4,-280.143 1662.74,-265.738 1683.8,-254.218"/>
<polygon fill="black" stroke="black" points="1685.67,-257.184 1692.77,-249.315 1682.32,-251.043 1685.67,-257.184"/>
</g>
<!-- ExpTemp10 -->
<g id="node28" class="node"><title>ExpTemp10</title>
<ellipse fill="none" stroke="black" cx="1590.95" cy="-234" rx="54.6905" ry="18"/>
<text text-anchor="middle" x="1590.95" y="-230.3" font-family="Times,serif" font-size="14.00">ExpTemp10</text>
</g>
<!-- StatMove5&#45;&gt;ExpTemp10 -->
<g id="edge19" class="edge"><title>StatMove5&#45;&gt;ExpTemp10</title>
<path fill="none" stroke="black" d="M1590.95,-287.697C1590.95,-279.983 1590.95,-270.712 1590.95,-262.112"/>
<polygon fill="black" stroke="black" points="1594.45,-262.104 1590.95,-252.104 1587.45,-262.104 1594.45,-262.104"/>
</g>
<!-- Temp10: T369 -->
<g id="node39" class="node"><title>Temp10: T369</title>
<ellipse fill="none" stroke="black" cx="1590.95" cy="-162" rx="63.8893" ry="18"/>
<text text-anchor="middle" x="1590.95" y="-158.3" font-family="Times,serif" font-size="14.00">Temp10: T369</text>
</g>
<!-- ExpTemp10&#45;&gt;Temp10: T369 -->
<g id="edge28" class="edge"><title>ExpTemp10&#45;&gt;Temp10: T369</title>
<path fill="none" stroke="black" d="M1590.95,-215.697C1590.95,-207.983 1590.95,-198.712 1590.95,-190.112"/>
<polygon fill="black" stroke="black" points="1594.45,-190.104 1590.95,-180.104 1587.45,-190.104 1594.45,-190.104"/>
</g>
<!-- ExpConst1 -->
<g id="node29" class="node"><title>ExpConst1</title>
<ellipse fill="none" stroke="black" cx="1193.95" cy="-90" rx="50.0912" ry="18"/>
<text text-anchor="middle" x="1193.95" y="-86.3" font-family="Times,serif" font-size="14.00">ExpConst1</text>
</g>
<!-- Value1: 4 -->
<g id="node30" class="node"><title>Value1: 4</title>
<ellipse fill="none" stroke="black" cx="1193.95" cy="-18" rx="45.4919" ry="18"/>
<text text-anchor="middle" x="1193.95" y="-14.3" font-family="Times,serif" font-size="14.00">Value1: 4</text>
</g>
<!-- ExpConst1&#45;&gt;Value1: 4 -->
<g id="edge21" class="edge"><title>ExpConst1&#45;&gt;Value1: 4</title>
<path fill="none" stroke="black" d="M1193.95,-71.6966C1193.95,-63.9827 1193.95,-54.7125 1193.95,-46.1124"/>
<polygon fill="black" stroke="black" points="1197.45,-46.1043 1193.95,-36.1043 1190.45,-46.1044 1197.45,-46.1043"/>
</g>
<!-- ExpBinary1 -->
<g id="node31" class="node"><title>ExpBinary1</title>
<ellipse fill="none" stroke="black" cx="1094.95" cy="-162" rx="53.0913" ry="18"/>
<text text-anchor="middle" x="1094.95" y="-158.3" font-family="Times,serif" font-size="14.00">ExpBinary1</text>
</g>
<!-- ExpBinary1&#45;&gt;ExpConst1 -->
<g id="edge24" class="edge"><title>ExpBinary1&#45;&gt;ExpConst1</title>
<path fill="none" stroke="black" d="M1116.92,-145.465C1130.73,-135.7 1148.73,-122.972 1163.85,-112.276"/>
<polygon fill="black" stroke="black" points="1166.23,-114.882 1172.38,-106.251 1162.19,-109.167 1166.23,-114.882"/>
</g>
<!-- ExpTemp7 -->
<g id="node32" class="node"><title>ExpTemp7</title>
<ellipse fill="none" stroke="black" cx="995.945" cy="-90" rx="50.0912" ry="18"/>
<text text-anchor="middle" x="995.945" y="-86.3" font-family="Times,serif" font-size="14.00">ExpTemp7</text>
</g>
<!-- ExpBinary1&#45;&gt;ExpTemp7 -->
<g id="edge22" class="edge"><title>ExpBinary1&#45;&gt;ExpTemp7</title>
<path fill="none" stroke="black" d="M1072.97,-145.465C1059.16,-135.7 1041.16,-122.972 1026.04,-112.276"/>
<polygon fill="black" stroke="black" points="1027.7,-109.167 1017.51,-106.251 1023.66,-114.882 1027.7,-109.167"/>
</g>
<!-- Plus1 -->
<g id="node33" class="node"><title>Plus1</title>
<ellipse fill="none" stroke="black" cx="1094.95" cy="-90" rx="30.5947" ry="18"/>
<text text-anchor="middle" x="1094.95" y="-86.3" font-family="Times,serif" font-size="14.00">Plus1</text>
</g>
<!-- ExpBinary1&#45;&gt;Plus1 -->
<g id="edge23" class="edge"><title>ExpBinary1&#45;&gt;Plus1</title>
<path fill="none" stroke="black" d="M1094.95,-143.697C1094.95,-135.983 1094.95,-126.712 1094.95,-118.112"/>
<polygon fill="black" stroke="black" points="1098.45,-118.104 1094.95,-108.104 1091.45,-118.104 1098.45,-118.104"/>
</g>
<!-- Temp7: $fp -->
<g id="node71" class="node"><title>Temp7: $fp</title>
<ellipse fill="none" stroke="black" cx="995.945" cy="-18" rx="52.7911" ry="18"/>
<text text-anchor="middle" x="995.945" y="-14.3" font-family="Times,serif" font-size="14.00">Temp7: $fp</text>
</g>
<!-- ExpTemp7&#45;&gt;Temp7: $fp -->
<g id="edge63" class="edge"><title>ExpTemp7&#45;&gt;Temp7: $fp</title>
<path fill="none" stroke="black" d="M995.945,-71.6966C995.945,-63.9827 995.945,-54.7125 995.945,-46.1124"/>
<polygon fill="black" stroke="black" points="999.445,-46.1043 995.945,-36.1043 992.445,-46.1044 999.445,-46.1043"/>
</g>
<!-- StatMove1 -->
<g id="node34" class="node"><title>StatMove1</title>
<ellipse fill="none" stroke="black" cx="549.945" cy="-306" rx="50.0912" ry="18"/>
<text text-anchor="middle" x="549.945" y="-302.3" font-family="Times,serif" font-size="14.00">StatMove1</text>
</g>
<!-- ExpTemp2 -->
<g id="node35" class="node"><title>ExpTemp2</title>
<ellipse fill="none" stroke="black" cx="421.945" cy="-234" rx="50.0912" ry="18"/>
<text text-anchor="middle" x="421.945" y="-230.3" font-family="Times,serif" font-size="14.00">ExpTemp2</text>
</g>
<!-- StatMove1&#45;&gt;ExpTemp2 -->
<g id="edge25" class="edge"><title>StatMove1&#45;&gt;ExpTemp2</title>
<path fill="none" stroke="black" d="M523.734,-290.666C504.62,-280.213 478.5,-265.929 457.506,-254.447"/>
<polygon fill="black" stroke="black" points="459.015,-251.283 448.562,-249.556 455.656,-257.425 459.015,-251.283"/>
</g>
<!-- ExpTemp3 -->
<g id="node36" class="node"><title>ExpTemp3</title>
<ellipse fill="none" stroke="black" cx="549.945" cy="-234" rx="50.0912" ry="18"/>
<text text-anchor="middle" x="549.945" y="-230.3" font-family="Times,serif" font-size="14.00">ExpTemp3</text>
</g>
<!-- StatMove1&#45;&gt;ExpTemp3 -->
<g id="edge26" class="edge"><title>StatMove1&#45;&gt;ExpTemp3</title>
<path fill="none" stroke="black" d="M549.945,-287.697C549.945,-279.983 549.945,-270.712 549.945,-262.112"/>
<polygon fill="black" stroke="black" points="553.445,-262.104 549.945,-252.104 546.445,-262.104 553.445,-262.104"/>
</g>
<!-- Temp2: T371 -->
<g id="node40" class="node"><title>Temp2: T371</title>
<ellipse fill="none" stroke="black" cx="411.945" cy="-162" rx="59.5901" ry="18"/>
<text text-anchor="middle" x="411.945" y="-158.3" font-family="Times,serif" font-size="14.00">Temp2: T371</text>
</g>
<!-- ExpTemp2&#45;&gt;Temp2: T371 -->
<g id="edge29" class="edge"><title>ExpTemp2&#45;&gt;Temp2: T371</title>
<path fill="none" stroke="black" d="M419.473,-215.697C418.371,-207.983 417.047,-198.712 415.818,-190.112"/>
<polygon fill="black" stroke="black" points="419.268,-189.509 414.389,-180.104 412.338,-190.499 419.268,-189.509"/>
</g>
<!-- Temp3: T359 -->
<g id="node62" class="node"><title>Temp3: T359</title>
<ellipse fill="none" stroke="black" cx="549.945" cy="-162" rx="59.5901" ry="18"/>
<text text-anchor="middle" x="549.945" y="-158.3" font-family="Times,serif" font-size="14.00">Temp3: T359</text>
</g>
<!-- ExpTemp3&#45;&gt;Temp3: T359 -->
<g id="edge54" class="edge"><title>ExpTemp3&#45;&gt;Temp3: T359</title>
<path fill="none" stroke="black" d="M549.945,-215.697C549.945,-207.983 549.945,-198.712 549.945,-190.112"/>
<polygon fill="black" stroke="black" points="553.445,-190.104 549.945,-180.104 546.445,-190.104 553.445,-190.104"/>
</g>
<!-- ExpTemp8 -->
<g id="node37" class="node"><title>ExpTemp8</title>
<ellipse fill="none" stroke="black" cx="1233.95" cy="-234" rx="50.0912" ry="18"/>
<text text-anchor="middle" x="1233.95" y="-230.3" font-family="Times,serif" font-size="14.00">ExpTemp8</text>
</g>
<!-- Temp8: T368 -->
<g id="node38" class="node"><title>Temp8: T368</title>
<ellipse fill="none" stroke="black" cx="1225.95" cy="-162" rx="59.5901" ry="18"/>
<text text-anchor="middle" x="1225.95" y="-158.3" font-family="Times,serif" font-size="14.00">Temp8: T368</text>
</g>
<!-- ExpTemp8&#45;&gt;Temp8: T368 -->
<g id="edge27" class="edge"><title>ExpTemp8&#45;&gt;Temp8: T368</title>
<path fill="none" stroke="black" d="M1231.97,-215.697C1231.09,-207.983 1230.03,-198.712 1229.04,-190.112"/>
<polygon fill="black" stroke="black" points="1232.51,-189.642 1227.9,-180.104 1225.56,-190.437 1232.51,-189.642"/>
</g>
<!-- StatMove2 -->
<g id="node41" class="node"><title>StatMove2</title>
<ellipse fill="none" stroke="black" cx="825.945" cy="-306" rx="50.0912" ry="18"/>
<text text-anchor="middle" x="825.945" y="-302.3" font-family="Times,serif" font-size="14.00">StatMove2</text>
</g>
<!-- ExpTemp4 -->
<g id="node42" class="node"><title>ExpTemp4</title>
<ellipse fill="none" stroke="black" cx="697.945" cy="-234" rx="50.0912" ry="18"/>
<text text-anchor="middle" x="697.945" y="-230.3" font-family="Times,serif" font-size="14.00">ExpTemp4</text>
</g>
<!-- StatMove2&#45;&gt;ExpTemp4 -->
<g id="edge30" class="edge"><title>StatMove2&#45;&gt;ExpTemp4</title>
<path fill="none" stroke="black" d="M799.734,-290.666C780.62,-280.213 754.5,-265.929 733.506,-254.447"/>
<polygon fill="black" stroke="black" points="735.015,-251.283 724.562,-249.556 731.656,-257.425 735.015,-251.283"/>
</g>
<!-- ExpTemp5 -->
<g id="node43" class="node"><title>ExpTemp5</title>
<ellipse fill="none" stroke="black" cx="825.945" cy="-234" rx="50.0912" ry="18"/>
<text text-anchor="middle" x="825.945" y="-230.3" font-family="Times,serif" font-size="14.00">ExpTemp5</text>
</g>
<!-- StatMove2&#45;&gt;ExpTemp5 -->
<g id="edge31" class="edge"><title>StatMove2&#45;&gt;ExpTemp5</title>
<path fill="none" stroke="black" d="M825.945,-287.697C825.945,-279.983 825.945,-270.712 825.945,-262.112"/>
<polygon fill="black" stroke="black" points="829.445,-262.104 825.945,-252.104 822.445,-262.104 829.445,-262.104"/>
</g>
<!-- Temp4: T368 -->
<g id="node70" class="node"><title>Temp4: T368</title>
<ellipse fill="none" stroke="black" cx="687.945" cy="-162" rx="59.5901" ry="18"/>
<text text-anchor="middle" x="687.945" y="-158.3" font-family="Times,serif" font-size="14.00">Temp4: T368</text>
</g>
<!-- ExpTemp4&#45;&gt;Temp4: T368 -->
<g id="edge62" class="edge"><title>ExpTemp4&#45;&gt;Temp4: T368</title>
<path fill="none" stroke="black" d="M695.473,-215.697C694.371,-207.983 693.047,-198.712 691.818,-190.112"/>
<polygon fill="black" stroke="black" points="695.268,-189.509 690.389,-180.104 688.338,-190.499 695.268,-189.509"/>
</g>
<!-- Temp5: T358 -->
<g id="node66" class="node"><title>Temp5: T358</title>
<ellipse fill="none" stroke="black" cx="825.945" cy="-162" rx="59.5901" ry="18"/>
<text text-anchor="middle" x="825.945" y="-158.3" font-family="Times,serif" font-size="14.00">Temp5: T358</text>
</g>
<!-- ExpTemp5&#45;&gt;Temp5: T358 -->
<g id="edge57" class="edge"><title>ExpTemp5&#45;&gt;Temp5: T358</title>
<path fill="none" stroke="black" d="M825.945,-215.697C825.945,-207.983 825.945,-198.712 825.945,-190.112"/>
<polygon fill="black" stroke="black" points="829.445,-190.104 825.945,-180.104 822.445,-190.104 829.445,-190.104"/>
</g>
<!-- ExpConst0 -->
<g id="node45" class="node"><title>ExpConst0</title>
<ellipse fill="none" stroke="black" cx="379.945" cy="-90" rx="50.0912" ry="18"/>
<text text-anchor="middle" x="379.945" y="-86.3" font-family="Times,serif" font-size="14.00">ExpConst0</text>
</g>
<!-- Value0: 12 -->
<g id="node46" class="node"><title>Value0: 12</title>
<ellipse fill="none" stroke="black" cx="379.945" cy="-18" rx="50.0912" ry="18"/>
<text text-anchor="middle" x="379.945" y="-14.3" font-family="Times,serif" font-size="14.00">Value0: 12</text>
</g>
<!-- ExpConst0&#45;&gt;Value0: 12 -->
<g id="edge33" class="edge"><title>ExpConst0&#45;&gt;Value0: 12</title>
<path fill="none" stroke="black" d="M379.945,-71.6966C379.945,-63.9827 379.945,-54.7125 379.945,-46.1124"/>
<polygon fill="black" stroke="black" points="383.445,-46.1043 379.945,-36.1043 376.445,-46.1044 383.445,-46.1043"/>
</g>
<!-- ExpMem1 -->
<g id="node47" class="node"><title>ExpMem1</title>
<ellipse fill="none" stroke="black" cx="1094.95" cy="-234" rx="48.9926" ry="18"/>
<text text-anchor="middle" x="1094.95" y="-230.3" font-family="Times,serif" font-size="14.00">ExpMem1</text>
</g>
<!-- ExpMem1&#45;&gt;ExpBinary1 -->
<g id="edge34" class="edge"><title>ExpMem1&#45;&gt;ExpBinary1</title>
<path fill="none" stroke="black" d="M1094.95,-215.697C1094.95,-207.983 1094.95,-198.712 1094.95,-190.112"/>
<polygon fill="black" stroke="black" points="1098.45,-190.104 1094.95,-180.104 1091.45,-190.104 1098.45,-190.104"/>
</g>
<!-- StatLabel0 -->
<g id="node48" class="node"><title>StatLabel0</title>
<ellipse fill="none" stroke="black" cx="114.945" cy="-306" rx="48.9926" ry="18"/>
<text text-anchor="middle" x="114.945" y="-302.3" font-family="Times,serif" font-size="14.00">StatLabel0</text>
</g>
<!-- Label0: L73 -->
<g id="node49" class="node"><title>Label0: L73</title>
<ellipse fill="none" stroke="black" cx="53.9452" cy="-234" rx="53.8905" ry="18"/>
<text text-anchor="middle" x="53.9452" y="-230.3" font-family="Times,serif" font-size="14.00">Label0: L73</text>
</g>
<!-- StatLabel0&#45;&gt;Label0: L73 -->
<g id="edge35" class="edge"><title>StatLabel0&#45;&gt;Label0: L73</title>
<path fill="none" stroke="black" d="M100.797,-288.765C93.2083,-280.056 83.7016,-269.147 75.2386,-259.435"/>
<polygon fill="black" stroke="black" points="77.6485,-256.873 68.44,-251.633 72.3712,-261.472 77.6485,-256.873"/>
</g>
<!-- StatList0 -->
<g id="node50" class="node"><title>StatList0</title>
<ellipse fill="none" stroke="black" cx="1293.95" cy="-378" rx="42.4939" ry="18"/>
<text text-anchor="middle" x="1293.95" y="-374.3" font-family="Times,serif" font-size="14.00">StatList0</text>
</g>
<!-- StatList0&#45;&gt;StatMove8 -->
<g id="edge45" class="edge"><title>StatList0&#45;&gt;StatMove8</title>
<path fill="none" stroke="black" d="M1335.59,-374.748C1465.32,-367.699 1873.78,-345.259 2211.95,-324 2277.34,-319.889 2352.33,-314.73 2402.98,-311.18"/>
<polygon fill="black" stroke="black" points="2403.36,-314.662 2413.09,-310.47 2402.87,-307.679 2403.36,-314.662"/>
</g>
<!-- StatList0&#45;&gt;StatMove6 -->
<g id="edge43" class="edge"><title>StatList0&#45;&gt;StatMove6</title>
<path fill="none" stroke="black" d="M1333.96,-372.078C1433.28,-359.858 1691.37,-328.107 1806.3,-313.968"/>
<polygon fill="black" stroke="black" points="1806.81,-317.432 1816.31,-312.737 1805.96,-310.484 1806.81,-317.432"/>
</g>
<!-- StatList0&#45;&gt;StatJump0 -->
<g id="edge46" class="edge"><title>StatList0&#45;&gt;StatJump0</title>
<path fill="none" stroke="black" d="M1336.15,-376.566C1493.08,-374.66 2057.69,-365.171 2520.95,-324 2544.87,-321.873 2571.23,-318.483 2593.62,-315.287"/>
<polygon fill="black" stroke="black" points="2594.22,-318.737 2603.61,-313.837 2593.21,-311.81 2594.22,-318.737"/>
</g>
<!-- StatList0&#45;&gt;StatMove5 -->
<g id="edge42" class="edge"><title>StatList0&#45;&gt;StatMove5</title>
<path fill="none" stroke="black" d="M1330.07,-368.487C1382.68,-356.087 1480.6,-333.007 1540.36,-318.922"/>
<polygon fill="black" stroke="black" points="1541.4,-322.272 1550.33,-316.572 1539.8,-315.459 1541.4,-322.272"/>
</g>
<!-- StatList0&#45;&gt;StatMove1 -->
<g id="edge38" class="edge"><title>StatList0&#45;&gt;StatMove1</title>
<path fill="none" stroke="black" d="M1253.15,-373.162C1128.64,-361.447 753.178,-326.121 608.067,-312.468"/>
<polygon fill="black" stroke="black" points="608.308,-308.976 598.024,-311.524 607.652,-315.945 608.308,-308.976"/>
</g>
<!-- StatList0&#45;&gt;StatMove2 -->
<g id="edge39" class="edge"><title>StatList0&#45;&gt;StatMove2</title>
<path fill="none" stroke="black" d="M1254.85,-371.152C1171.76,-358.724 977.379,-329.65 881.472,-315.305"/>
<polygon fill="black" stroke="black" points="881.799,-311.815 871.391,-313.797 880.763,-318.738 881.799,-311.815"/>
</g>
<!-- StatList0&#45;&gt;StatLabel0 -->
<g id="edge36" class="edge"><title>StatList0&#45;&gt;StatLabel0</title>
<path fill="none" stroke="black" d="M1251.43,-376.277C1107.91,-373.537 628.278,-361.944 233.945,-324 212.531,-321.939 189.067,-318.782 168.677,-315.745"/>
<polygon fill="black" stroke="black" points="169.042,-312.26 158.63,-314.222 167.993,-319.181 169.042,-312.26"/>
</g>
<!-- StatMove0 -->
<g id="node51" class="node"><title>StatMove0</title>
<ellipse fill="none" stroke="black" cx="292.945" cy="-306" rx="50.0912" ry="18"/>
<text text-anchor="middle" x="292.945" y="-302.3" font-family="Times,serif" font-size="14.00">StatMove0</text>
</g>
<!-- StatList0&#45;&gt;StatMove0 -->
<g id="edge37" class="edge"><title>StatList0&#45;&gt;StatMove0</title>
<path fill="none" stroke="black" d="M1252.13,-374.532C1133.07,-367.443 782.108,-346.106 490.945,-324 443.79,-320.42 390.369,-315.8 350.91,-312.28"/>
<polygon fill="black" stroke="black" points="351.208,-308.793 340.936,-311.387 350.584,-315.765 351.208,-308.793"/>
</g>
<!-- StatMove3 -->
<g id="node52" class="node"><title>StatMove3</title>
<ellipse fill="none" stroke="black" cx="1094.95" cy="-306" rx="50.0912" ry="18"/>
<text text-anchor="middle" x="1094.95" y="-302.3" font-family="Times,serif" font-size="14.00">StatMove3</text>
</g>
<!-- StatList0&#45;&gt;StatMove3 -->
<g id="edge40" class="edge"><title>StatList0&#45;&gt;StatMove3</title>
<path fill="none" stroke="black" d="M1262.41,-365.908C1229.11,-354.195 1176.36,-335.637 1138.97,-322.484"/>
<polygon fill="black" stroke="black" points="1139.93,-319.113 1129.33,-319.097 1137.61,-325.717 1139.93,-319.113"/>
</g>
<!-- StatMove4 -->
<g id="node53" class="node"><title>StatMove4</title>
<ellipse fill="none" stroke="black" cx="1293.95" cy="-306" rx="50.0912" ry="18"/>
<text text-anchor="middle" x="1293.95" y="-302.3" font-family="Times,serif" font-size="14.00">StatMove4</text>
</g>
<!-- StatList0&#45;&gt;StatMove4 -->
<g id="edge41" class="edge"><title>StatList0&#45;&gt;StatMove4</title>
<path fill="none" stroke="black" d="M1293.95,-359.697C1293.95,-351.983 1293.95,-342.712 1293.95,-334.112"/>
<polygon fill="black" stroke="black" points="1297.45,-334.104 1293.95,-324.104 1290.45,-334.104 1297.45,-334.104"/>
</g>
<!-- StatMove7 -->
<g id="node54" class="node"><title>StatMove7</title>
<ellipse fill="none" stroke="black" cx="2152.95" cy="-306" rx="50.0912" ry="18"/>
<text text-anchor="middle" x="2152.95" y="-302.3" font-family="Times,serif" font-size="14.00">StatMove7</text>
</g>
<!-- StatList0&#45;&gt;StatMove7 -->
<g id="edge44" class="edge"><title>StatList0&#45;&gt;StatMove7</title>
<path fill="none" stroke="black" d="M1335.09,-373.647C1474.76,-362.266 1931.13,-325.076 2094.29,-311.78"/>
<polygon fill="black" stroke="black" points="2094.93,-315.24 2104.61,-310.939 2094.36,-308.263 2094.93,-315.24"/>
</g>
<!-- ExpTemp0 -->
<g id="node55" class="node"><title>ExpTemp0</title>
<ellipse fill="none" stroke="black" cx="175.945" cy="-234" rx="50.0912" ry="18"/>
<text text-anchor="middle" x="175.945" y="-230.3" font-family="Times,serif" font-size="14.00">ExpTemp0</text>
</g>
<!-- StatMove0&#45;&gt;ExpTemp0 -->
<g id="edge52" class="edge"><title>StatMove0&#45;&gt;ExpTemp0</title>
<path fill="none" stroke="black" d="M268.133,-290.155C251.069,-279.946 228.206,-266.267 209.517,-255.086"/>
<polygon fill="black" stroke="black" points="211.101,-251.955 200.722,-249.824 207.507,-257.962 211.101,-251.955"/>
</g>
<!-- ExpMem0 -->
<g id="node61" class="node"><title>ExpMem0</title>
<ellipse fill="none" stroke="black" cx="292.945" cy="-234" rx="48.9926" ry="18"/>
<text text-anchor="middle" x="292.945" y="-230.3" font-family="Times,serif" font-size="14.00">ExpMem0</text>
</g>
<!-- StatMove0&#45;&gt;ExpMem0 -->
<g id="edge53" class="edge"><title>StatMove0&#45;&gt;ExpMem0</title>
<path fill="none" stroke="black" d="M292.945,-287.697C292.945,-279.983 292.945,-270.712 292.945,-262.112"/>
<polygon fill="black" stroke="black" points="296.445,-262.104 292.945,-252.104 289.445,-262.104 296.445,-262.104"/>
</g>
<!-- StatMove3&#45;&gt;ExpMem1 -->
<g id="edge61" class="edge"><title>StatMove3&#45;&gt;ExpMem1</title>
<path fill="none" stroke="black" d="M1094.95,-287.697C1094.95,-279.983 1094.95,-270.712 1094.95,-262.112"/>
<polygon fill="black" stroke="black" points="1098.45,-262.104 1094.95,-252.104 1091.45,-262.104 1098.45,-262.104"/>
</g>
<!-- ExpTemp6 -->
<g id="node67" class="node"><title>ExpTemp6</title>
<ellipse fill="none" stroke="black" cx="970.945" cy="-234" rx="50.0912" ry="18"/>
<text text-anchor="middle" x="970.945" y="-230.3" font-family="Times,serif" font-size="14.00">ExpTemp6</text>
</g>
<!-- StatMove3&#45;&gt;ExpTemp6 -->
<g id="edge60" class="edge"><title>StatMove3&#45;&gt;ExpTemp6</title>
<path fill="none" stroke="black" d="M1069.25,-290.496C1050.8,-280.078 1025.72,-265.919 1005.51,-254.51"/>
<polygon fill="black" stroke="black" points="1007.03,-251.354 996.605,-249.485 1003.59,-257.449 1007.03,-251.354"/>
</g>
<!-- StatMove4&#45;&gt;ExpCall0 -->
<g id="edge70" class="edge"><title>StatMove4&#45;&gt;ExpCall0</title>
<path fill="none" stroke="black" d="M1308.16,-288.411C1315.64,-279.693 1324.93,-268.845 1333.2,-259.208"/>
<polygon fill="black" stroke="black" points="1335.98,-261.34 1339.83,-251.47 1330.66,-256.785 1335.98,-261.34"/>
</g>
<!-- StatMove4&#45;&gt;ExpTemp8 -->
<g id="edge69" class="edge"><title>StatMove4&#45;&gt;ExpTemp8</title>
<path fill="none" stroke="black" d="M1279.73,-288.411C1272.25,-279.693 1262.96,-268.845 1254.69,-259.208"/>
<polygon fill="black" stroke="black" points="1257.23,-256.785 1248.06,-251.47 1251.91,-261.34 1257.23,-256.785"/>
</g>
<!-- StatMove7&#45;&gt;ExpCall1 -->
<g id="edge67" class="edge"><title>StatMove7&#45;&gt;ExpCall1</title>
<path fill="none" stroke="black" d="M2179.98,-290.666C2200.17,-279.956 2227.95,-265.224 2249.86,-253.606"/>
<polygon fill="black" stroke="black" points="2251.66,-256.615 2258.85,-248.838 2248.38,-250.431 2251.66,-256.615"/>
</g>
<!-- ExpTemp14 -->
<g id="node63" class="node"><title>ExpTemp14</title>
<ellipse fill="none" stroke="black" cx="2152.95" cy="-234" rx="54.6905" ry="18"/>
<text text-anchor="middle" x="2152.95" y="-230.3" font-family="Times,serif" font-size="14.00">ExpTemp14</text>
</g>
<!-- StatMove7&#45;&gt;ExpTemp14 -->
<g id="edge66" class="edge"><title>StatMove7&#45;&gt;ExpTemp14</title>
<path fill="none" stroke="black" d="M2152.95,-287.697C2152.95,-279.983 2152.95,-270.712 2152.95,-262.112"/>
<polygon fill="black" stroke="black" points="2156.45,-262.104 2152.95,-252.104 2149.45,-262.104 2156.45,-262.104"/>
</g>
<!-- Temp0: T372 -->
<g id="node56" class="node"><title>Temp0: T372</title>
<ellipse fill="none" stroke="black" cx="149.945" cy="-162" rx="59.5901" ry="18"/>
<text text-anchor="middle" x="149.945" y="-158.3" font-family="Times,serif" font-size="14.00">Temp0: T372</text>
</g>
<!-- ExpTemp0&#45;&gt;Temp0: T372 -->
<g id="edge47" class="edge"><title>ExpTemp0&#45;&gt;Temp0: T372</title>
<path fill="none" stroke="black" d="M169.651,-216.055C166.725,-208.176 163.174,-198.617 159.897,-189.794"/>
<polygon fill="black" stroke="black" points="163.125,-188.431 156.362,-180.275 156.563,-190.868 163.125,-188.431"/>
</g>
<!-- ExpBinary0 -->
<g id="node58" class="node"><title>ExpBinary0</title>
<ellipse fill="none" stroke="black" cx="280.945" cy="-162" rx="53.0913" ry="18"/>
<text text-anchor="middle" x="280.945" y="-158.3" font-family="Times,serif" font-size="14.00">ExpBinary0</text>
</g>
<!-- ExpBinary0&#45;&gt;ExpConst0 -->
<g id="edge51" class="edge"><title>ExpBinary0&#45;&gt;ExpConst0</title>
<path fill="none" stroke="black" d="M302.917,-145.465C316.726,-135.7 334.727,-122.972 349.855,-112.276"/>
<polygon fill="black" stroke="black" points="352.231,-114.882 358.376,-106.251 348.19,-109.167 352.231,-114.882"/>
</g>
<!-- ExpTemp1 -->
<g id="node59" class="node"><title>ExpTemp1</title>
<ellipse fill="none" stroke="black" cx="181.945" cy="-90" rx="50.0912" ry="18"/>
<text text-anchor="middle" x="181.945" y="-86.3" font-family="Times,serif" font-size="14.00">ExpTemp1</text>
</g>
<!-- ExpBinary0&#45;&gt;ExpTemp1 -->
<g id="edge49" class="edge"><title>ExpBinary0&#45;&gt;ExpTemp1</title>
<path fill="none" stroke="black" d="M258.974,-145.465C245.164,-135.7 227.163,-122.972 212.036,-112.276"/>
<polygon fill="black" stroke="black" points="213.7,-109.167 203.514,-106.251 209.659,-114.882 213.7,-109.167"/>
</g>
<!-- Plus0 -->
<g id="node60" class="node"><title>Plus0</title>
<ellipse fill="none" stroke="black" cx="280.945" cy="-90" rx="30.5947" ry="18"/>
<text text-anchor="middle" x="280.945" y="-86.3" font-family="Times,serif" font-size="14.00">Plus0</text>
</g>
<!-- ExpBinary0&#45;&gt;Plus0 -->
<g id="edge50" class="edge"><title>ExpBinary0&#45;&gt;Plus0</title>
<path fill="none" stroke="black" d="M280.945,-143.697C280.945,-135.983 280.945,-126.712 280.945,-118.112"/>
<polygon fill="black" stroke="black" points="284.445,-118.104 280.945,-108.104 277.445,-118.104 284.445,-118.104"/>
</g>
<!-- Temp1: $fp -->
<g id="node65" class="node"><title>Temp1: $fp</title>
<ellipse fill="none" stroke="black" cx="181.945" cy="-18" rx="52.7911" ry="18"/>
<text text-anchor="middle" x="181.945" y="-14.3" font-family="Times,serif" font-size="14.00">Temp1: $fp</text>
</g>
<!-- ExpTemp1&#45;&gt;Temp1: $fp -->
<g id="edge56" class="edge"><title>ExpTemp1&#45;&gt;Temp1: $fp</title>
<path fill="none" stroke="black" d="M181.945,-71.6966C181.945,-63.9827 181.945,-54.7125 181.945,-46.1124"/>
<polygon fill="black" stroke="black" points="185.445,-46.1043 181.945,-36.1043 178.445,-46.1044 185.445,-46.1043"/>
</g>
<!-- ExpMem0&#45;&gt;ExpBinary0 -->
<g id="edge68" class="edge"><title>ExpMem0&#45;&gt;ExpBinary0</title>
<path fill="none" stroke="black" d="M289.979,-215.697C288.657,-207.983 287.067,-198.712 285.593,-190.112"/>
<polygon fill="black" stroke="black" points="289.017,-189.369 283.877,-180.104 282.117,-190.552 289.017,-189.369"/>
</g>
<!-- Temp14: T371 -->
<g id="node64" class="node"><title>Temp14: T371</title>
<ellipse fill="none" stroke="black" cx="2152.95" cy="-162" rx="63.8893" ry="18"/>
<text text-anchor="middle" x="2152.95" y="-158.3" font-family="Times,serif" font-size="14.00">Temp14: T371</text>
</g>
<!-- ExpTemp14&#45;&gt;Temp14: T371 -->
<g id="edge55" class="edge"><title>ExpTemp14&#45;&gt;Temp14: T371</title>
<path fill="none" stroke="black" d="M2152.95,-215.697C2152.95,-207.983 2152.95,-198.712 2152.95,-190.112"/>
<polygon fill="black" stroke="black" points="2156.45,-190.104 2152.95,-180.104 2149.45,-190.104 2156.45,-190.104"/>
</g>
<!-- Temp6: T367 -->
<g id="node68" class="node"><title>Temp6: T367</title>
<ellipse fill="none" stroke="black" cx="963.945" cy="-162" rx="59.5901" ry="18"/>
<text text-anchor="middle" x="963.945" y="-158.3" font-family="Times,serif" font-size="14.00">Temp6: T367</text>
</g>
<!-- ExpTemp6&#45;&gt;Temp6: T367 -->
<g id="edge58" class="edge"><title>ExpTemp6&#45;&gt;Temp6: T367</title>
<path fill="none" stroke="black" d="M969.215,-215.697C968.443,-207.983 967.516,-198.712 966.656,-190.112"/>
<polygon fill="black" stroke="black" points="970.133,-189.706 965.656,-180.104 963.168,-190.403 970.133,-189.706"/>
</g>
</g>
</svg>
