<?xml version="1.0" encoding="UTF-8" standalone="no"?>
<!DOCTYPE svg PUBLIC "-//W3C//DTD SVG 1.1//EN"
 "http://www.w3.org/Graphics/SVG/1.1/DTD/svg11.dtd">
<!-- Generated by graphviz version 2.38.0 (20140413.2041)
 -->
<!-- Title: %3 Pages: 1 -->
<svg width="478pt" height="332pt"
 viewBox="0.00 0.00 478.14 332.00" xmlns="http://www.w3.org/2000/svg" xmlns:xlink="http://www.w3.org/1999/xlink">
<g id="graph0" class="graph" transform="scale(1 1) rotate(0) translate(4 328)">
<title>%3</title>
<polygon fill="white" stroke="none" points="-4,4 -4,-328 474.141,-328 474.141,4 -4,4"/>
<!-- Temp2 -->
<g id="node1" class="node"><title>Temp2</title>
<ellipse fill="none" stroke="black" cx="324.645" cy="-162" rx="36.2938" ry="18"/>
<text text-anchor="middle" x="324.645" y="-158.3" font-family="Times,serif" font-size="14.00">Temp2</text>
</g>
<!-- Temp3: $fp -->
<g id="node2" class="node"><title>Temp3: $fp</title>
<ellipse fill="none" stroke="black" cx="324.645" cy="-90" rx="52.7911" ry="18"/>
<text text-anchor="middle" x="324.645" y="-86.3" font-family="Times,serif" font-size="14.00">Temp3: $fp</text>
</g>
<!-- Temp2&#45;&gt;Temp3: $fp -->
<g id="edge1" class="edge"><title>Temp2&#45;&gt;Temp3: $fp</title>
<path fill="none" stroke="black" d="M324.645,-143.697C324.645,-135.983 324.645,-126.712 324.645,-118.112"/>
<polygon fill="black" stroke="black" points="328.145,-118.104 324.645,-108.104 321.145,-118.104 328.145,-118.104"/>
</g>
<!-- Load1 -->
<g id="node3" class="node"><title>Load1</title>
<ellipse fill="none" stroke="black" cx="375.645" cy="-234" rx="33.2948" ry="18"/>
<text text-anchor="middle" x="375.645" y="-230.3" font-family="Times,serif" font-size="14.00">Load1</text>
</g>
<!-- Load1&#45;&gt;Temp2 -->
<g id="edge2" class="edge"><title>Load1&#45;&gt;Temp2</title>
<path fill="none" stroke="black" d="M364.073,-217.116C357.708,-208.38 349.674,-197.353 342.521,-187.535"/>
<polygon fill="black" stroke="black" points="345.244,-185.328 336.526,-179.307 339.586,-189.45 345.244,-185.328"/>
</g>
<!-- Value3: 0 -->
<g id="node4" class="node"><title>Value3: 0</title>
<ellipse fill="none" stroke="black" cx="424.645" cy="-162" rx="45.4919" ry="18"/>
<text text-anchor="middle" x="424.645" y="-158.3" font-family="Times,serif" font-size="14.00">Value3: 0</text>
</g>
<!-- Load1&#45;&gt;Value3: 0 -->
<g id="edge3" class="edge"><title>Load1&#45;&gt;Value3: 0</title>
<path fill="none" stroke="black" d="M387.01,-216.765C392.984,-208.23 400.438,-197.582 407.132,-188.019"/>
<polygon fill="black" stroke="black" points="410.135,-189.833 413.002,-179.633 404.4,-185.819 410.135,-189.833"/>
</g>
<!-- Store0 -->
<g id="node5" class="node"><title>Store0</title>
<ellipse fill="none" stroke="black" cx="274.645" cy="-306" rx="33.5952" ry="18"/>
<text text-anchor="middle" x="274.645" y="-302.3" font-family="Times,serif" font-size="14.00">Store0</text>
</g>
<!-- Store0&#45;&gt;Load1 -->
<g id="edge6" class="edge"><title>Store0&#45;&gt;Load1</title>
<path fill="none" stroke="black" d="M294.6,-291.17C309.776,-280.652 330.848,-266.048 347.701,-254.367"/>
<polygon fill="black" stroke="black" points="349.851,-257.136 356.076,-248.563 345.863,-251.383 349.851,-257.136"/>
</g>
<!-- Load0 -->
<g id="node6" class="node"><title>Load0</title>
<ellipse fill="none" stroke="black" cx="173.645" cy="-234" rx="33.2948" ry="18"/>
<text text-anchor="middle" x="173.645" y="-230.3" font-family="Times,serif" font-size="14.00">Load0</text>
</g>
<!-- Store0&#45;&gt;Load0 -->
<g id="edge4" class="edge"><title>Store0&#45;&gt;Load0</title>
<path fill="none" stroke="black" d="M254.691,-291.17C239.515,-280.652 218.443,-266.048 201.59,-254.367"/>
<polygon fill="black" stroke="black" points="203.427,-251.383 193.215,-248.563 199.44,-257.136 203.427,-251.383"/>
</g>
<!-- Value2: 32 -->
<g id="node7" class="node"><title>Value2: 32</title>
<ellipse fill="none" stroke="black" cx="274.645" cy="-234" rx="50.0912" ry="18"/>
<text text-anchor="middle" x="274.645" y="-230.3" font-family="Times,serif" font-size="14.00">Value2: 32</text>
</g>
<!-- Store0&#45;&gt;Value2: 32 -->
<g id="edge5" class="edge"><title>Store0&#45;&gt;Value2: 32</title>
<path fill="none" stroke="black" d="M268.767,-288.055C267.949,-280.346 267.707,-271.027 268.04,-262.364"/>
<polygon fill="black" stroke="black" points="271.54,-262.491 268.733,-252.275 264.556,-262.012 271.54,-262.491"/>
</g>
<!-- Store0&#45;&gt;Value2: 32 -->
<g id="edge7" class="edge"><title>Store0&#45;&gt;Value2: 32</title>
<path fill="none" stroke="black" d="M280.524,-288.055C281.342,-280.346 281.584,-271.027 281.25,-262.364"/>
<polygon fill="black" stroke="black" points="284.735,-262.012 280.558,-252.275 277.751,-262.491 284.735,-262.012"/>
</g>
<!-- Add0 -->
<g id="node10" class="node"><title>Add0</title>
<ellipse fill="none" stroke="black" cx="126.645" cy="-162" rx="30.5947" ry="18"/>
<text text-anchor="middle" x="126.645" y="-158.3" font-family="Times,serif" font-size="14.00">Add0</text>
</g>
<!-- Load0&#45;&gt;Add0 -->
<g id="edge13" class="edge"><title>Load0&#45;&gt;Add0</title>
<path fill="none" stroke="black" d="M162.744,-216.765C156.931,-208.106 149.657,-197.273 143.165,-187.604"/>
<polygon fill="black" stroke="black" points="145.967,-185.499 137.487,-179.147 140.156,-189.401 145.967,-185.499"/>
</g>
<!-- Value1: 0 -->
<g id="node14" class="node"><title>Value1: 0</title>
<ellipse fill="none" stroke="black" cx="220.645" cy="-162" rx="45.4919" ry="18"/>
<text text-anchor="middle" x="220.645" y="-158.3" font-family="Times,serif" font-size="14.00">Value1: 0</text>
</g>
<!-- Load0&#45;&gt;Value1: 0 -->
<g id="edge14" class="edge"><title>Load0&#45;&gt;Value1: 0</title>
<path fill="none" stroke="black" d="M184.546,-216.765C190.277,-208.23 197.426,-197.582 203.847,-188.019"/>
<polygon fill="black" stroke="black" points="206.809,-189.887 209.477,-179.633 200.997,-185.985 206.809,-189.887"/>
</g>
<!-- Temp0 -->
<g id="node8" class="node"><title>Temp0</title>
<ellipse fill="none" stroke="black" cx="57.6453" cy="-90" rx="36.2938" ry="18"/>
<text text-anchor="middle" x="57.6453" y="-86.3" font-family="Times,serif" font-size="14.00">Temp0</text>
</g>
<!-- Temp1: $fp -->
<g id="node9" class="node"><title>Temp1: $fp</title>
<ellipse fill="none" stroke="black" cx="52.6453" cy="-18" rx="52.7911" ry="18"/>
<text text-anchor="middle" x="52.6453" y="-14.3" font-family="Times,serif" font-size="14.00">Temp1: $fp</text>
</g>
<!-- Temp0&#45;&gt;Temp1: $fp -->
<g id="edge8" class="edge"><title>Temp0&#45;&gt;Temp1: $fp</title>
<path fill="none" stroke="black" d="M56.4094,-71.6966C55.8584,-63.9827 55.1962,-54.7125 54.5819,-46.1124"/>
<polygon fill="black" stroke="black" points="58.0707,-45.8295 53.8671,-36.1043 51.0885,-46.3283 58.0707,-45.8295"/>
</g>
<!-- Add0&#45;&gt;Temp0 -->
<g id="edge9" class="edge"><title>Add0&#45;&gt;Temp0</title>
<path fill="none" stroke="black" d="M112.012,-146.155C102.844,-136.854 90.8372,-124.673 80.4395,-114.124"/>
<polygon fill="black" stroke="black" points="82.729,-111.461 73.2163,-106.797 77.7437,-116.375 82.729,-111.461"/>
</g>
<!-- AddConst0 -->
<g id="node11" class="node"><title>AddConst0</title>
<ellipse fill="none" stroke="black" cx="167.645" cy="-90" rx="50.8918" ry="18"/>
<text text-anchor="middle" x="167.645" y="-86.3" font-family="Times,serif" font-size="14.00">AddConst0</text>
</g>
<!-- Add0&#45;&gt;AddConst0 -->
<g id="edge10" class="edge"><title>Add0&#45;&gt;AddConst0</title>
<path fill="none" stroke="black" d="M136.155,-144.765C140.98,-136.525 146.96,-126.317 152.408,-117.016"/>
<polygon fill="black" stroke="black" points="155.582,-118.522 157.616,-108.124 149.541,-114.984 155.582,-118.522"/>
</g>
<!-- NullExp0 -->
<g id="node12" class="node"><title>NullExp0</title>
<ellipse fill="none" stroke="black" cx="167.645" cy="-18" rx="44.6926" ry="18"/>
<text text-anchor="middle" x="167.645" y="-14.3" font-family="Times,serif" font-size="14.00">NullExp0</text>
</g>
<!-- AddConst0&#45;&gt;NullExp0 -->
<g id="edge11" class="edge"><title>AddConst0&#45;&gt;NullExp0</title>
<path fill="none" stroke="black" d="M167.645,-71.6966C167.645,-63.9827 167.645,-54.7125 167.645,-46.1124"/>
<polygon fill="black" stroke="black" points="171.145,-46.1043 167.645,-36.1043 164.145,-46.1044 171.145,-46.1043"/>
</g>
<!-- Value0: 32 -->
<g id="node13" class="node"><title>Value0: 32</title>
<ellipse fill="none" stroke="black" cx="280.645" cy="-18" rx="50.0912" ry="18"/>
<text text-anchor="middle" x="280.645" y="-14.3" font-family="Times,serif" font-size="14.00">Value0: 32</text>
</g>
<!-- AddConst0&#45;&gt;Value0: 32 -->
<g id="edge12" class="edge"><title>AddConst0&#45;&gt;Value0: 32</title>
<path fill="none" stroke="black" d="M191.887,-73.9832C208.122,-63.9257 229.703,-50.5573 247.519,-39.5209"/>
<polygon fill="black" stroke="black" points="249.786,-42.2335 256.444,-33.9919 246.1,-36.2827 249.786,-42.2335"/>
</g>
</g>
</svg>
