<?xml version="1.0" encoding="UTF-8" standalone="no"?>
<!DOCTYPE svg PUBLIC "-//W3C//DTD SVG 1.1//EN"
 "http://www.w3.org/Graphics/SVG/1.1/DTD/svg11.dtd">
<!-- Generated by graphviz version 2.38.0 (20140413.2041)
 -->
<!-- Title: %3 Pages: 1 -->
<svg width="478pt" height="332pt"
 viewBox="0.00 0.00 478.14 332.00" xmlns="http://www.w3.org/2000/svg" xmlns:xlink="http://www.w3.org/1999/xlink">
<g id="graph0" class="graph" transform="scale(1 1) rotate(0) translate(4 328)">
<title>%3</title>
<polygon fill="white" stroke="none" points="-4,4 -4,-328 474.141,-328 474.141,4 -4,4"/>
<!-- AddConst1 -->
<g id="node1" class="node"><title>AddConst1</title>
<ellipse fill="none" stroke="black" cx="316.645" cy="-234" rx="50.8918" ry="18"/>
<text text-anchor="middle" x="316.645" y="-230.3" font-family="Times,serif" font-size="14.00">AddConst1</text>
</g>
<!-- NullExp1 -->
<g id="node2" class="node"><title>NullExp1</title>
<ellipse fill="none" stroke="black" cx="316.645" cy="-162" rx="44.6926" ry="18"/>
<text text-anchor="middle" x="316.645" y="-158.3" font-family="Times,serif" font-size="14.00">NullExp1</text>
</g>
<!-- AddConst1&#45;&gt;NullExp1 -->
<g id="edge1" class="edge"><title>AddConst1&#45;&gt;NullExp1</title>
<path fill="none" stroke="black" d="M316.645,-215.697C316.645,-207.983 316.645,-198.712 316.645,-190.112"/>
<polygon fill="black" stroke="black" points="320.145,-190.104 316.645,-180.104 313.145,-190.104 320.145,-190.104"/>
</g>
<!-- Value2: 0 -->
<g id="node3" class="node"><title>Value2: 0</title>
<ellipse fill="none" stroke="black" cx="424.645" cy="-162" rx="45.4919" ry="18"/>
<text text-anchor="middle" x="424.645" y="-158.3" font-family="Times,serif" font-size="14.00">Value2: 0</text>
</g>
<!-- AddConst1&#45;&gt;Value2: 0 -->
<g id="edge2" class="edge"><title>AddConst1&#45;&gt;Value2: 0</title>
<path fill="none" stroke="black" d="M339.814,-217.983C355.437,-207.857 376.238,-194.375 393.332,-183.296"/>
<polygon fill="black" stroke="black" points="395.398,-186.128 401.886,-177.752 391.59,-180.254 395.398,-186.128"/>
</g>
<!-- CJump0 -->
<g id="node4" class="node"><title>CJump0</title>
<ellipse fill="none" stroke="black" cx="262.645" cy="-306" rx="40.0939" ry="18"/>
<text text-anchor="middle" x="262.645" y="-302.3" font-family="Times,serif" font-size="14.00">CJump0</text>
</g>
<!-- CJump0&#45;&gt;AddConst1 -->
<g id="edge4" class="edge"><title>CJump0&#45;&gt;AddConst1</title>
<path fill="none" stroke="black" d="M275.17,-288.765C281.821,-280.143 290.135,-269.365 297.57,-259.727"/>
<polygon fill="black" stroke="black" points="300.477,-261.689 303.814,-251.633 294.935,-257.413 300.477,-261.689"/>
</g>
<!-- Load0 -->
<g id="node5" class="node"><title>Load0</title>
<ellipse fill="none" stroke="black" cx="208.645" cy="-234" rx="33.2948" ry="18"/>
<text text-anchor="middle" x="208.645" y="-230.3" font-family="Times,serif" font-size="14.00">Load0</text>
</g>
<!-- CJump0&#45;&gt;Load0 -->
<g id="edge3" class="edge"><title>CJump0&#45;&gt;Load0</title>
<path fill="none" stroke="black" d="M250.121,-288.765C243.374,-280.018 234.914,-269.052 227.398,-259.308"/>
<polygon fill="black" stroke="black" points="229.981,-256.927 221.102,-251.147 224.439,-261.203 229.981,-256.927"/>
</g>
<!-- Add0 -->
<g id="node8" class="node"><title>Add0</title>
<ellipse fill="none" stroke="black" cx="114.645" cy="-162" rx="30.5947" ry="18"/>
<text text-anchor="middle" x="114.645" y="-158.3" font-family="Times,serif" font-size="14.00">Add0</text>
</g>
<!-- Load0&#45;&gt;Add0 -->
<g id="edge10" class="edge"><title>Load0&#45;&gt;Add0</title>
<path fill="none" stroke="black" d="M189.623,-218.834C175.682,-208.453 156.576,-194.225 141.141,-182.731"/>
<polygon fill="black" stroke="black" points="143.111,-179.834 133,-176.668 138.93,-185.448 143.111,-179.834"/>
</g>
<!-- Value1: 0 -->
<g id="node12" class="node"><title>Value1: 0</title>
<ellipse fill="none" stroke="black" cx="208.645" cy="-162" rx="45.4919" ry="18"/>
<text text-anchor="middle" x="208.645" y="-158.3" font-family="Times,serif" font-size="14.00">Value1: 0</text>
</g>
<!-- Load0&#45;&gt;Value1: 0 -->
<g id="edge11" class="edge"><title>Load0&#45;&gt;Value1: 0</title>
<path fill="none" stroke="black" d="M208.645,-215.697C208.645,-207.983 208.645,-198.712 208.645,-190.112"/>
<polygon fill="black" stroke="black" points="212.145,-190.104 208.645,-180.104 205.145,-190.104 212.145,-190.104"/>
</g>
<!-- Temp0 -->
<g id="node6" class="node"><title>Temp0</title>
<ellipse fill="none" stroke="black" cx="57.6453" cy="-90" rx="36.2938" ry="18"/>
<text text-anchor="middle" x="57.6453" y="-86.3" font-family="Times,serif" font-size="14.00">Temp0</text>
</g>
<!-- Temp1: $fp -->
<g id="node7" class="node"><title>Temp1: $fp</title>
<ellipse fill="none" stroke="black" cx="52.6453" cy="-18" rx="52.7911" ry="18"/>
<text text-anchor="middle" x="52.6453" y="-14.3" font-family="Times,serif" font-size="14.00">Temp1: $fp</text>
</g>
<!-- Temp0&#45;&gt;Temp1: $fp -->
<g id="edge5" class="edge"><title>Temp0&#45;&gt;Temp1: $fp</title>
<path fill="none" stroke="black" d="M56.4094,-71.6966C55.8584,-63.9827 55.1962,-54.7125 54.5819,-46.1124"/>
<polygon fill="black" stroke="black" points="58.0707,-45.8295 53.8671,-36.1043 51.0885,-46.3283 58.0707,-45.8295"/>
</g>
<!-- Add0&#45;&gt;Temp0 -->
<g id="edge6" class="edge"><title>Add0&#45;&gt;Temp0</title>
<path fill="none" stroke="black" d="M101.995,-145.465C94.6453,-136.439 85.2333,-124.88 76.9723,-114.735"/>
<polygon fill="black" stroke="black" points="79.6836,-112.522 70.6553,-106.977 74.2556,-116.942 79.6836,-112.522"/>
</g>
<!-- AddConst0 -->
<g id="node9" class="node"><title>AddConst0</title>
<ellipse fill="none" stroke="black" cx="167.645" cy="-90" rx="50.8918" ry="18"/>
<text text-anchor="middle" x="167.645" y="-86.3" font-family="Times,serif" font-size="14.00">AddConst0</text>
</g>
<!-- Add0&#45;&gt;AddConst0 -->
<g id="edge7" class="edge"><title>Add0&#45;&gt;AddConst0</title>
<path fill="none" stroke="black" d="M126.672,-145.116C133.191,-136.505 141.397,-125.667 148.75,-115.957"/>
<polygon fill="black" stroke="black" points="151.681,-117.883 154.927,-107.797 146.101,-113.657 151.681,-117.883"/>
</g>
<!-- NullExp0 -->
<g id="node10" class="node"><title>NullExp0</title>
<ellipse fill="none" stroke="black" cx="167.645" cy="-18" rx="44.6926" ry="18"/>
<text text-anchor="middle" x="167.645" y="-14.3" font-family="Times,serif" font-size="14.00">NullExp0</text>
</g>
<!-- AddConst0&#45;&gt;NullExp0 -->
<g id="edge8" class="edge"><title>AddConst0&#45;&gt;NullExp0</title>
<path fill="none" stroke="black" d="M167.645,-71.6966C167.645,-63.9827 167.645,-54.7125 167.645,-46.1124"/>
<polygon fill="black" stroke="black" points="171.145,-46.1043 167.645,-36.1043 164.145,-46.1044 171.145,-46.1043"/>
</g>
<!-- Value0: 20 -->
<g id="node11" class="node"><title>Value0: 20</title>
<ellipse fill="none" stroke="black" cx="280.645" cy="-18" rx="50.0912" ry="18"/>
<text text-anchor="middle" x="280.645" y="-14.3" font-family="Times,serif" font-size="14.00">Value0: 20</text>
</g>
<!-- AddConst0&#45;&gt;Value0: 20 -->
<g id="edge9" class="edge"><title>AddConst0&#45;&gt;Value0: 20</title>
<path fill="none" stroke="black" d="M191.887,-73.9832C208.122,-63.9257 229.703,-50.5573 247.519,-39.5209"/>
<polygon fill="black" stroke="black" points="249.786,-42.2335 256.444,-33.9919 246.1,-36.2827 249.786,-42.2335"/>
</g>
</g>
</svg>
