<?xml version="1.0" encoding="UTF-8" standalone="no"?>
<!DOCTYPE svg PUBLIC "-//W3C//DTD SVG 1.1//EN"
 "http://www.w3.org/Graphics/SVG/1.1/DTD/svg11.dtd">
<!-- Generated by graphviz version 2.38.0 (20140413.2041)
 -->
<!-- Title: %3 Pages: 1 -->
<svg width="564pt" height="332pt"
 viewBox="0.00 0.00 564.14 332.00" xmlns="http://www.w3.org/2000/svg" xmlns:xlink="http://www.w3.org/1999/xlink">
<g id="graph0" class="graph" transform="scale(1 1) rotate(0) translate(4 328)">
<title>%3</title>
<polygon fill="white" stroke="none" points="-4,4 -4,-328 560.141,-328 560.141,4 -4,4"/>
<!-- Temp2 -->
<g id="node1" class="node"><title>Temp2</title>
<ellipse fill="none" stroke="black" cx="405.645" cy="-90" rx="36.2938" ry="18"/>
<text text-anchor="middle" x="405.645" y="-86.3" font-family="Times,serif" font-size="14.00">Temp2</text>
</g>
<!-- Temp3: $fp -->
<g id="node2" class="node"><title>Temp3: $fp</title>
<ellipse fill="none" stroke="black" cx="405.645" cy="-18" rx="52.7911" ry="18"/>
<text text-anchor="middle" x="405.645" y="-14.3" font-family="Times,serif" font-size="14.00">Temp3: $fp</text>
</g>
<!-- Temp2&#45;&gt;Temp3: $fp -->
<g id="edge1" class="edge"><title>Temp2&#45;&gt;Temp3: $fp</title>
<path fill="none" stroke="black" d="M405.645,-71.6966C405.645,-63.9827 405.645,-54.7125 405.645,-46.1124"/>
<polygon fill="black" stroke="black" points="409.145,-46.1043 405.645,-36.1043 402.145,-46.1044 409.145,-46.1043"/>
</g>
<!-- Load1 -->
<g id="node3" class="node"><title>Load1</title>
<ellipse fill="none" stroke="black" cx="428.645" cy="-234" rx="33.2948" ry="18"/>
<text text-anchor="middle" x="428.645" y="-230.3" font-family="Times,serif" font-size="14.00">Load1</text>
</g>
<!-- Load2 -->
<g id="node4" class="node"><title>Load2</title>
<ellipse fill="none" stroke="black" cx="413.645" cy="-162" rx="33.2948" ry="18"/>
<text text-anchor="middle" x="413.645" y="-158.3" font-family="Times,serif" font-size="14.00">Load2</text>
</g>
<!-- Load1&#45;&gt;Load2 -->
<g id="edge2" class="edge"><title>Load1&#45;&gt;Load2</title>
<path fill="none" stroke="black" d="M425.014,-216.055C423.344,-208.261 421.321,-198.822 419.448,-190.079"/>
<polygon fill="black" stroke="black" points="422.865,-189.32 417.347,-180.275 416.02,-190.787 422.865,-189.32"/>
</g>
<!-- Value4: 0 -->
<g id="node5" class="node"><title>Value4: 0</title>
<ellipse fill="none" stroke="black" cx="510.645" cy="-162" rx="45.4919" ry="18"/>
<text text-anchor="middle" x="510.645" y="-158.3" font-family="Times,serif" font-size="14.00">Value4: 0</text>
</g>
<!-- Load1&#45;&gt;Value4: 0 -->
<g id="edge3" class="edge"><title>Load1&#45;&gt;Value4: 0</title>
<path fill="none" stroke="black" d="M445.636,-218.496C456.795,-208.969 471.619,-196.315 484.293,-185.496"/>
<polygon fill="black" stroke="black" points="486.918,-187.857 492.251,-178.703 482.373,-182.533 486.918,-187.857"/>
</g>
<!-- Load2&#45;&gt;Temp2 -->
<g id="edge4" class="edge"><title>Load2&#45;&gt;Temp2</title>
<path fill="none" stroke="black" d="M411.668,-143.697C410.786,-135.983 409.727,-126.712 408.744,-118.112"/>
<polygon fill="black" stroke="black" points="412.213,-117.642 407.6,-108.104 405.258,-118.437 412.213,-117.642"/>
</g>
<!-- Value3: 0 -->
<g id="node6" class="node"><title>Value3: 0</title>
<ellipse fill="none" stroke="black" cx="505.645" cy="-90" rx="45.4919" ry="18"/>
<text text-anchor="middle" x="505.645" y="-86.3" font-family="Times,serif" font-size="14.00">Value3: 0</text>
</g>
<!-- Load2&#45;&gt;Value3: 0 -->
<g id="edge5" class="edge"><title>Load2&#45;&gt;Value3: 0</title>
<path fill="none" stroke="black" d="M432.263,-146.834C445.167,-137.016 462.591,-123.759 477.222,-112.626"/>
<polygon fill="black" stroke="black" points="479.62,-115.2 485.459,-106.359 475.381,-109.629 479.62,-115.2"/>
</g>
<!-- Store0 -->
<g id="node7" class="node"><title>Store0</title>
<ellipse fill="none" stroke="black" cx="327.645" cy="-306" rx="33.5952" ry="18"/>
<text text-anchor="middle" x="327.645" y="-302.3" font-family="Times,serif" font-size="14.00">Store0</text>
</g>
<!-- Store0&#45;&gt;Load1 -->
<g id="edge8" class="edge"><title>Store0&#45;&gt;Load1</title>
<path fill="none" stroke="black" d="M347.6,-291.17C362.776,-280.652 383.848,-266.048 400.701,-254.367"/>
<polygon fill="black" stroke="black" points="402.851,-257.136 409.076,-248.563 398.863,-251.383 402.851,-257.136"/>
</g>
<!-- Load0 -->
<g id="node8" class="node"><title>Load0</title>
<ellipse fill="none" stroke="black" cx="226.645" cy="-234" rx="33.2948" ry="18"/>
<text text-anchor="middle" x="226.645" y="-230.3" font-family="Times,serif" font-size="14.00">Load0</text>
</g>
<!-- Store0&#45;&gt;Load0 -->
<g id="edge6" class="edge"><title>Store0&#45;&gt;Load0</title>
<path fill="none" stroke="black" d="M307.691,-291.17C292.515,-280.652 271.443,-266.048 254.59,-254.367"/>
<polygon fill="black" stroke="black" points="256.427,-251.383 246.215,-248.563 252.44,-257.136 256.427,-251.383"/>
</g>
<!-- Value2: 24 -->
<g id="node9" class="node"><title>Value2: 24</title>
<ellipse fill="none" stroke="black" cx="327.645" cy="-234" rx="50.0912" ry="18"/>
<text text-anchor="middle" x="327.645" y="-230.3" font-family="Times,serif" font-size="14.00">Value2: 24</text>
</g>
<!-- Store0&#45;&gt;Value2: 24 -->
<g id="edge7" class="edge"><title>Store0&#45;&gt;Value2: 24</title>
<path fill="none" stroke="black" d="M321.767,-288.055C320.949,-280.346 320.707,-271.027 321.04,-262.364"/>
<polygon fill="black" stroke="black" points="324.54,-262.491 321.733,-252.275 317.556,-262.012 324.54,-262.491"/>
</g>
<!-- Store0&#45;&gt;Value2: 24 -->
<g id="edge9" class="edge"><title>Store0&#45;&gt;Value2: 24</title>
<path fill="none" stroke="black" d="M333.524,-288.055C334.342,-280.346 334.584,-271.027 334.25,-262.364"/>
<polygon fill="black" stroke="black" points="337.735,-262.012 333.558,-252.275 330.751,-262.491 337.735,-262.012"/>
</g>
<!-- Add0 -->
<g id="node12" class="node"><title>Add0</title>
<ellipse fill="none" stroke="black" cx="136.645" cy="-162" rx="30.5947" ry="18"/>
<text text-anchor="middle" x="136.645" y="-158.3" font-family="Times,serif" font-size="14.00">Add0</text>
</g>
<!-- Load0&#45;&gt;Add0 -->
<g id="edge15" class="edge"><title>Load0&#45;&gt;Add0</title>
<path fill="none" stroke="black" d="M208.432,-218.834C195.294,-208.615 177.365,-194.671 162.712,-183.274"/>
<polygon fill="black" stroke="black" points="164.566,-180.282 154.524,-176.906 160.269,-185.808 164.566,-180.282"/>
</g>
<!-- Value1: 0 -->
<g id="node16" class="node"><title>Value1: 0</title>
<ellipse fill="none" stroke="black" cx="230.645" cy="-162" rx="45.4919" ry="18"/>
<text text-anchor="middle" x="230.645" y="-158.3" font-family="Times,serif" font-size="14.00">Value1: 0</text>
</g>
<!-- Load0&#45;&gt;Value1: 0 -->
<g id="edge16" class="edge"><title>Load0&#45;&gt;Value1: 0</title>
<path fill="none" stroke="black" d="M227.634,-215.697C228.075,-207.983 228.605,-198.712 229.096,-190.112"/>
<polygon fill="black" stroke="black" points="232.592,-190.288 229.668,-180.104 225.603,-189.888 232.592,-190.288"/>
</g>
<!-- Temp0 -->
<g id="node10" class="node"><title>Temp0</title>
<ellipse fill="none" stroke="black" cx="57.6453" cy="-90" rx="36.2938" ry="18"/>
<text text-anchor="middle" x="57.6453" y="-86.3" font-family="Times,serif" font-size="14.00">Temp0</text>
</g>
<!-- Temp1: $fp -->
<g id="node11" class="node"><title>Temp1: $fp</title>
<ellipse fill="none" stroke="black" cx="52.6453" cy="-18" rx="52.7911" ry="18"/>
<text text-anchor="middle" x="52.6453" y="-14.3" font-family="Times,serif" font-size="14.00">Temp1: $fp</text>
</g>
<!-- Temp0&#45;&gt;Temp1: $fp -->
<g id="edge10" class="edge"><title>Temp0&#45;&gt;Temp1: $fp</title>
<path fill="none" stroke="black" d="M56.4094,-71.6966C55.8584,-63.9827 55.1962,-54.7125 54.5819,-46.1124"/>
<polygon fill="black" stroke="black" points="58.0707,-45.8295 53.8671,-36.1043 51.0885,-46.3283 58.0707,-45.8295"/>
</g>
<!-- Add0&#45;&gt;Temp0 -->
<g id="edge11" class="edge"><title>Add0&#45;&gt;Temp0</title>
<path fill="none" stroke="black" d="M120.276,-146.496C109.303,-136.772 94.6512,-123.79 82.2784,-112.827"/>
<polygon fill="black" stroke="black" points="84.344,-109.981 74.5383,-105.968 79.7017,-115.22 84.344,-109.981"/>
</g>
<!-- AddConst0 -->
<g id="node13" class="node"><title>AddConst0</title>
<ellipse fill="none" stroke="black" cx="167.645" cy="-90" rx="50.8918" ry="18"/>
<text text-anchor="middle" x="167.645" y="-86.3" font-family="Times,serif" font-size="14.00">AddConst0</text>
</g>
<!-- Add0&#45;&gt;AddConst0 -->
<g id="edge12" class="edge"><title>Add0&#45;&gt;AddConst0</title>
<path fill="none" stroke="black" d="M143.992,-144.411C147.568,-136.335 151.954,-126.431 155.974,-117.355"/>
<polygon fill="black" stroke="black" points="159.287,-118.517 160.136,-107.956 152.887,-115.682 159.287,-118.517"/>
</g>
<!-- NullExp0 -->
<g id="node14" class="node"><title>NullExp0</title>
<ellipse fill="none" stroke="black" cx="167.645" cy="-18" rx="44.6926" ry="18"/>
<text text-anchor="middle" x="167.645" y="-14.3" font-family="Times,serif" font-size="14.00">NullExp0</text>
</g>
<!-- AddConst0&#45;&gt;NullExp0 -->
<g id="edge13" class="edge"><title>AddConst0&#45;&gt;NullExp0</title>
<path fill="none" stroke="black" d="M167.645,-71.6966C167.645,-63.9827 167.645,-54.7125 167.645,-46.1124"/>
<polygon fill="black" stroke="black" points="171.145,-46.1043 167.645,-36.1043 164.145,-46.1044 171.145,-46.1043"/>
</g>
<!-- Value0: 24 -->
<g id="node15" class="node"><title>Value0: 24</title>
<ellipse fill="none" stroke="black" cx="280.645" cy="-18" rx="50.0912" ry="18"/>
<text text-anchor="middle" x="280.645" y="-14.3" font-family="Times,serif" font-size="14.00">Value0: 24</text>
</g>
<!-- AddConst0&#45;&gt;Value0: 24 -->
<g id="edge14" class="edge"><title>AddConst0&#45;&gt;Value0: 24</title>
<path fill="none" stroke="black" d="M191.887,-73.9832C208.122,-63.9257 229.703,-50.5573 247.519,-39.5209"/>
<polygon fill="black" stroke="black" points="249.786,-42.2335 256.444,-33.9919 246.1,-36.2827 249.786,-42.2335"/>
</g>
</g>
</svg>
