<?xml version="1.0" encoding="UTF-8" standalone="no"?>
<!DOCTYPE svg PUBLIC "-//W3C//DTD SVG 1.1//EN"
 "http://www.w3.org/Graphics/SVG/1.1/DTD/svg11.dtd">
<!-- Generated by graphviz version 2.38.0 (20140413.2041)
 -->
<!-- Title: %3 Pages: 1 -->
<svg width="3289pt" height="404pt"
 viewBox="0.00 0.00 3289.28 404.00" xmlns="http://www.w3.org/2000/svg" xmlns:xlink="http://www.w3.org/1999/xlink">
<g id="graph0" class="graph" transform="scale(1 1) rotate(0) translate(4 400)">
<title>%3</title>
<polygon fill="white" stroke="none" points="-4,4 -4,-400 3285.28,-400 3285.28,4 -4,4"/>
<!-- StatExp0 -->
<g id="node1" class="node"><title>StatExp0</title>
<ellipse fill="none" stroke="black" cx="3058.59" cy="-306" rx="42.7926" ry="18"/>
<text text-anchor="middle" x="3058.59" y="-302.3" font-family="Times,serif" font-size="14.00">StatExp0</text>
</g>
<!-- ExpTemp17 -->
<g id="node2" class="node"><title>ExpTemp17</title>
<ellipse fill="none" stroke="black" cx="3157.59" cy="-234" rx="54.6905" ry="18"/>
<text text-anchor="middle" x="3157.59" y="-230.3" font-family="Times,serif" font-size="14.00">ExpTemp17</text>
</g>
<!-- StatExp0&#45;&gt;ExpTemp17 -->
<g id="edge1" class="edge"><title>StatExp0&#45;&gt;ExpTemp17</title>
<path fill="none" stroke="black" d="M3079.59,-290.155C3093.47,-280.335 3111.9,-267.304 3127.36,-256.374"/>
<polygon fill="black" stroke="black" points="3129.45,-259.183 3135.6,-250.552 3125.41,-253.467 3129.45,-259.183"/>
</g>
<!-- Temp17: T302 -->
<g id="node20" class="node"><title>Temp17: T302</title>
<ellipse fill="none" stroke="black" cx="3217.59" cy="-162" rx="63.8893" ry="18"/>
<text text-anchor="middle" x="3217.59" y="-158.3" font-family="Times,serif" font-size="14.00">Temp17: T302</text>
</g>
<!-- ExpTemp17&#45;&gt;Temp17: T302 -->
<g id="edge15" class="edge"><title>ExpTemp17&#45;&gt;Temp17: T302</title>
<path fill="none" stroke="black" d="M3171.81,-216.411C3179.17,-207.82 3188.31,-197.159 3196.48,-187.627"/>
<polygon fill="black" stroke="black" points="3199.21,-189.827 3203.06,-179.956 3193.89,-185.271 3199.21,-189.827"/>
</g>
<!-- ExpList2 -->
<g id="node3" class="node"><title>ExpList2</title>
<ellipse fill="none" stroke="black" cx="3092.59" cy="-162" rx="42.7926" ry="18"/>
<text text-anchor="middle" x="3092.59" y="-158.3" font-family="Times,serif" font-size="14.00">ExpList2</text>
</g>
<!-- ExpTemp16 -->
<g id="node4" class="node"><title>ExpTemp16</title>
<ellipse fill="none" stroke="black" cx="3100.59" cy="-90" rx="54.6905" ry="18"/>
<text text-anchor="middle" x="3100.59" y="-86.3" font-family="Times,serif" font-size="14.00">ExpTemp16</text>
</g>
<!-- ExpList2&#45;&gt;ExpTemp16 -->
<g id="edge2" class="edge"><title>ExpList2&#45;&gt;ExpTemp16</title>
<path fill="none" stroke="black" d="M3094.57,-143.697C3095.45,-135.983 3096.51,-126.712 3097.49,-118.112"/>
<polygon fill="black" stroke="black" points="3100.98,-118.437 3098.64,-108.104 3094.02,-117.642 3100.98,-118.437"/>
</g>
<!-- Temp16: T307 -->
<g id="node9" class="node"><title>Temp16: T307</title>
<ellipse fill="none" stroke="black" cx="3100.59" cy="-18" rx="63.8893" ry="18"/>
<text text-anchor="middle" x="3100.59" y="-14.3" font-family="Times,serif" font-size="14.00">Temp16: T307</text>
</g>
<!-- ExpTemp16&#45;&gt;Temp16: T307 -->
<g id="edge7" class="edge"><title>ExpTemp16&#45;&gt;Temp16: T307</title>
<path fill="none" stroke="black" d="M3100.59,-71.6966C3100.59,-63.9827 3100.59,-54.7125 3100.59,-46.1124"/>
<polygon fill="black" stroke="black" points="3104.09,-46.1043 3100.59,-36.1043 3097.09,-46.1044 3104.09,-46.1043"/>
</g>
<!-- ExpCall2 -->
<g id="node5" class="node"><title>ExpCall2</title>
<ellipse fill="none" stroke="black" cx="2980.59" cy="-234" rx="44.393" ry="18"/>
<text text-anchor="middle" x="2980.59" y="-230.3" font-family="Times,serif" font-size="14.00">ExpCall2</text>
</g>
<!-- ExpCall2&#45;&gt;ExpList2 -->
<g id="edge4" class="edge"><title>ExpCall2&#45;&gt;ExpList2</title>
<path fill="none" stroke="black" d="M3003.8,-218.496C3020.32,-208.172 3042.71,-194.174 3060.88,-182.819"/>
<polygon fill="black" stroke="black" points="3062.79,-185.753 3069.41,-177.485 3059.08,-179.818 3062.79,-185.753"/>
</g>
<!-- ExpName2 -->
<g id="node6" class="node"><title>ExpName2</title>
<ellipse fill="none" stroke="black" cx="2980.59" cy="-162" rx="50.8918" ry="18"/>
<text text-anchor="middle" x="2980.59" y="-158.3" font-family="Times,serif" font-size="14.00">ExpName2</text>
</g>
<!-- ExpCall2&#45;&gt;ExpName2 -->
<g id="edge3" class="edge"><title>ExpCall2&#45;&gt;ExpName2</title>
<path fill="none" stroke="black" d="M2980.59,-215.697C2980.59,-207.983 2980.59,-198.712 2980.59,-190.112"/>
<polygon fill="black" stroke="black" points="2984.09,-190.104 2980.59,-180.104 2977.09,-190.104 2984.09,-190.104"/>
</g>
<!-- Label3: print -->
<g id="node47" class="node"><title>Label3: print</title>
<ellipse fill="none" stroke="black" cx="2971.59" cy="-90" rx="56.59" ry="18"/>
<text text-anchor="middle" x="2971.59" y="-86.3" font-family="Times,serif" font-size="14.00">Label3: print</text>
</g>
<!-- ExpName2&#45;&gt;Label3: print -->
<g id="edge41" class="edge"><title>ExpName2&#45;&gt;Label3: print</title>
<path fill="none" stroke="black" d="M2978.37,-143.697C2977.37,-135.983 2976.18,-126.712 2975.08,-118.112"/>
<polygon fill="black" stroke="black" points="2978.54,-117.576 2973.79,-108.104 2971.59,-118.469 2978.54,-117.576"/>
</g>
<!-- StatMove8 -->
<g id="node7" class="node"><title>StatMove8</title>
<ellipse fill="none" stroke="black" cx="2848.59" cy="-306" rx="50.0912" ry="18"/>
<text text-anchor="middle" x="2848.59" y="-302.3" font-family="Times,serif" font-size="14.00">StatMove8</text>
</g>
<!-- StatMove8&#45;&gt;ExpCall2 -->
<g id="edge6" class="edge"><title>StatMove8&#45;&gt;ExpCall2</title>
<path fill="none" stroke="black" d="M2875.62,-290.666C2895.82,-279.956 2923.6,-265.224 2945.5,-253.606"/>
<polygon fill="black" stroke="black" points="2947.3,-256.615 2954.5,-248.838 2944.02,-250.431 2947.3,-256.615"/>
</g>
<!-- ExpTemp15 -->
<g id="node8" class="node"><title>ExpTemp15</title>
<ellipse fill="none" stroke="black" cx="2848.59" cy="-234" rx="54.6905" ry="18"/>
<text text-anchor="middle" x="2848.59" y="-230.3" font-family="Times,serif" font-size="14.00">ExpTemp15</text>
</g>
<!-- StatMove8&#45;&gt;ExpTemp15 -->
<g id="edge5" class="edge"><title>StatMove8&#45;&gt;ExpTemp15</title>
<path fill="none" stroke="black" d="M2848.59,-287.697C2848.59,-279.983 2848.59,-270.712 2848.59,-262.112"/>
<polygon fill="black" stroke="black" points="2852.09,-262.104 2848.59,-252.104 2845.09,-262.104 2852.09,-262.104"/>
</g>
<!-- Temp15: T308 -->
<g id="node67" class="node"><title>Temp15: T308</title>
<ellipse fill="none" stroke="black" cx="2848.59" cy="-162" rx="63.8893" ry="18"/>
<text text-anchor="middle" x="2848.59" y="-158.3" font-family="Times,serif" font-size="14.00">Temp15: T308</text>
</g>
<!-- ExpTemp15&#45;&gt;Temp15: T308 -->
<g id="edge65" class="edge"><title>ExpTemp15&#45;&gt;Temp15: T308</title>
<path fill="none" stroke="black" d="M2848.59,-215.697C2848.59,-207.983 2848.59,-198.712 2848.59,-190.112"/>
<polygon fill="black" stroke="black" points="2852.09,-190.104 2848.59,-180.104 2845.09,-190.104 2852.09,-190.104"/>
</g>
<!-- ExpTemp13 -->
<g id="node10" class="node"><title>ExpTemp13</title>
<ellipse fill="none" stroke="black" cx="2558.59" cy="-234" rx="54.6905" ry="18"/>
<text text-anchor="middle" x="2558.59" y="-230.3" font-family="Times,serif" font-size="14.00">ExpTemp13</text>
</g>
<!-- Temp13: T307 -->
<g id="node11" class="node"><title>Temp13: T307</title>
<ellipse fill="none" stroke="black" cx="2558.59" cy="-162" rx="63.8893" ry="18"/>
<text text-anchor="middle" x="2558.59" y="-158.3" font-family="Times,serif" font-size="14.00">Temp13: T307</text>
</g>
<!-- ExpTemp13&#45;&gt;Temp13: T307 -->
<g id="edge8" class="edge"><title>ExpTemp13&#45;&gt;Temp13: T307</title>
<path fill="none" stroke="black" d="M2558.59,-215.697C2558.59,-207.983 2558.59,-198.712 2558.59,-190.112"/>
<polygon fill="black" stroke="black" points="2562.09,-190.104 2558.59,-180.104 2555.09,-190.104 2562.09,-190.104"/>
</g>
<!-- ExpCall1 -->
<g id="node12" class="node"><title>ExpCall1</title>
<ellipse fill="none" stroke="black" cx="2321.59" cy="-234" rx="44.393" ry="18"/>
<text text-anchor="middle" x="2321.59" y="-230.3" font-family="Times,serif" font-size="14.00">ExpCall1</text>
</g>
<!-- ExpName1 -->
<g id="node13" class="node"><title>ExpName1</title>
<ellipse fill="none" stroke="black" cx="2321.59" cy="-162" rx="50.8918" ry="18"/>
<text text-anchor="middle" x="2321.59" y="-158.3" font-family="Times,serif" font-size="14.00">ExpName1</text>
</g>
<!-- ExpCall1&#45;&gt;ExpName1 -->
<g id="edge9" class="edge"><title>ExpCall1&#45;&gt;ExpName1</title>
<path fill="none" stroke="black" d="M2321.59,-215.697C2321.59,-207.983 2321.59,-198.712 2321.59,-190.112"/>
<polygon fill="black" stroke="black" points="2325.09,-190.104 2321.59,-180.104 2318.09,-190.104 2325.09,-190.104"/>
</g>
<!-- ExpList1 -->
<g id="node14" class="node"><title>ExpList1</title>
<ellipse fill="none" stroke="black" cx="2433.59" cy="-162" rx="42.7926" ry="18"/>
<text text-anchor="middle" x="2433.59" y="-158.3" font-family="Times,serif" font-size="14.00">ExpList1</text>
</g>
<!-- ExpCall1&#45;&gt;ExpList1 -->
<g id="edge10" class="edge"><title>ExpCall1&#45;&gt;ExpList1</title>
<path fill="none" stroke="black" d="M2344.8,-218.496C2361.32,-208.172 2383.71,-194.174 2401.88,-182.819"/>
<polygon fill="black" stroke="black" points="2403.79,-185.753 2410.41,-177.485 2400.08,-179.818 2403.79,-185.753"/>
</g>
<!-- Label2: BT@Start -->
<g id="node15" class="node"><title>Label2: BT@Start</title>
<ellipse fill="none" stroke="black" cx="2303.59" cy="-90" rx="76.0865" ry="18"/>
<text text-anchor="middle" x="2303.59" y="-86.3" font-family="Times,serif" font-size="14.00">Label2: BT@Start</text>
</g>
<!-- ExpName1&#45;&gt;Label2: BT@Start -->
<g id="edge11" class="edge"><title>ExpName1&#45;&gt;Label2: BT@Start</title>
<path fill="none" stroke="black" d="M2317.23,-144.055C2315.23,-136.261 2312.8,-126.822 2310.55,-118.079"/>
<polygon fill="black" stroke="black" points="2313.91,-117.089 2308.03,-108.275 2307.13,-118.832 2313.91,-117.089"/>
</g>
<!-- ExpTemp12 -->
<g id="node58" class="node"><title>ExpTemp12</title>
<ellipse fill="none" stroke="black" cx="2452.59" cy="-90" rx="54.6905" ry="18"/>
<text text-anchor="middle" x="2452.59" y="-86.3" font-family="Times,serif" font-size="14.00">ExpTemp12</text>
</g>
<!-- ExpList1&#45;&gt;ExpTemp12 -->
<g id="edge59" class="edge"><title>ExpList1&#45;&gt;ExpTemp12</title>
<path fill="none" stroke="black" d="M2438.19,-144.055C2440.31,-136.261 2442.87,-126.822 2445.24,-118.079"/>
<polygon fill="black" stroke="black" points="2448.66,-118.843 2447.9,-108.275 2441.9,-117.009 2448.66,-118.843"/>
</g>
<!-- StatMove6 -->
<g id="node16" class="node"><title>StatMove6</title>
<ellipse fill="none" stroke="black" cx="2189.59" cy="-306" rx="50.0912" ry="18"/>
<text text-anchor="middle" x="2189.59" y="-302.3" font-family="Times,serif" font-size="14.00">StatMove6</text>
</g>
<!-- StatMove6&#45;&gt;ExpCall1 -->
<g id="edge13" class="edge"><title>StatMove6&#45;&gt;ExpCall1</title>
<path fill="none" stroke="black" d="M2216.62,-290.666C2236.82,-279.956 2264.6,-265.224 2286.5,-253.606"/>
<polygon fill="black" stroke="black" points="2288.3,-256.615 2295.5,-248.838 2285.02,-250.431 2288.3,-256.615"/>
</g>
<!-- ExpTemp11 -->
<g id="node17" class="node"><title>ExpTemp11</title>
<ellipse fill="none" stroke="black" cx="2189.59" cy="-234" rx="54.6905" ry="18"/>
<text text-anchor="middle" x="2189.59" y="-230.3" font-family="Times,serif" font-size="14.00">ExpTemp11</text>
</g>
<!-- StatMove6&#45;&gt;ExpTemp11 -->
<g id="edge12" class="edge"><title>StatMove6&#45;&gt;ExpTemp11</title>
<path fill="none" stroke="black" d="M2189.59,-287.697C2189.59,-279.983 2189.59,-270.712 2189.59,-262.112"/>
<polygon fill="black" stroke="black" points="2193.09,-262.104 2189.59,-252.104 2186.09,-262.104 2193.09,-262.104"/>
</g>
<!-- Temp11: T306 -->
<g id="node54" class="node"><title>Temp11: T306</title>
<ellipse fill="none" stroke="black" cx="2189.59" cy="-162" rx="63.8893" ry="18"/>
<text text-anchor="middle" x="2189.59" y="-158.3" font-family="Times,serif" font-size="14.00">Temp11: T306</text>
</g>
<!-- ExpTemp11&#45;&gt;Temp11: T306 -->
<g id="edge46" class="edge"><title>ExpTemp11&#45;&gt;Temp11: T306</title>
<path fill="none" stroke="black" d="M2189.59,-215.697C2189.59,-207.983 2189.59,-198.712 2189.59,-190.112"/>
<polygon fill="black" stroke="black" points="2193.09,-190.104 2189.59,-180.104 2186.09,-190.104 2193.09,-190.104"/>
</g>
<!-- ExpTemp9 -->
<g id="node18" class="node"><title>ExpTemp9</title>
<ellipse fill="none" stroke="black" cx="1903.59" cy="-234" rx="50.0912" ry="18"/>
<text text-anchor="middle" x="1903.59" y="-230.3" font-family="Times,serif" font-size="14.00">ExpTemp9</text>
</g>
<!-- Temp9: T305 -->
<g id="node19" class="node"><title>Temp9: T305</title>
<ellipse fill="none" stroke="black" cx="1903.59" cy="-162" rx="59.5901" ry="18"/>
<text text-anchor="middle" x="1903.59" y="-158.3" font-family="Times,serif" font-size="14.00">Temp9: T305</text>
</g>
<!-- ExpTemp9&#45;&gt;Temp9: T305 -->
<g id="edge14" class="edge"><title>ExpTemp9&#45;&gt;Temp9: T305</title>
<path fill="none" stroke="black" d="M1903.59,-215.697C1903.59,-207.983 1903.59,-198.712 1903.59,-190.112"/>
<polygon fill="black" stroke="black" points="1907.09,-190.104 1903.59,-180.104 1900.09,-190.104 1907.09,-190.104"/>
</g>
<!-- ExpCall0 -->
<g id="node21" class="node"><title>ExpCall0</title>
<ellipse fill="none" stroke="black" cx="1670.59" cy="-234" rx="44.393" ry="18"/>
<text text-anchor="middle" x="1670.59" y="-230.3" font-family="Times,serif" font-size="14.00">ExpCall0</text>
</g>
<!-- ExpName0 -->
<g id="node22" class="node"><title>ExpName0</title>
<ellipse fill="none" stroke="black" cx="1670.59" cy="-162" rx="50.8918" ry="18"/>
<text text-anchor="middle" x="1670.59" y="-158.3" font-family="Times,serif" font-size="14.00">ExpName0</text>
</g>
<!-- ExpCall0&#45;&gt;ExpName0 -->
<g id="edge16" class="edge"><title>ExpCall0&#45;&gt;ExpName0</title>
<path fill="none" stroke="black" d="M1670.59,-215.697C1670.59,-207.983 1670.59,-198.712 1670.59,-190.112"/>
<polygon fill="black" stroke="black" points="1674.09,-190.104 1670.59,-180.104 1667.09,-190.104 1674.09,-190.104"/>
</g>
<!-- ExpList0 -->
<g id="node23" class="node"><title>ExpList0</title>
<ellipse fill="none" stroke="black" cx="1782.59" cy="-162" rx="42.7926" ry="18"/>
<text text-anchor="middle" x="1782.59" y="-158.3" font-family="Times,serif" font-size="14.00">ExpList0</text>
</g>
<!-- ExpCall0&#45;&gt;ExpList0 -->
<g id="edge17" class="edge"><title>ExpCall0&#45;&gt;ExpList0</title>
<path fill="none" stroke="black" d="M1693.8,-218.496C1710.32,-208.172 1732.71,-194.174 1750.88,-182.819"/>
<polygon fill="black" stroke="black" points="1752.79,-185.753 1759.41,-177.485 1749.08,-179.818 1752.79,-185.753"/>
</g>
<!-- Label1: malloc -->
<g id="node64" class="node"><title>Label1: malloc</title>
<ellipse fill="none" stroke="black" cx="1660.59" cy="-90" rx="64.189" ry="18"/>
<text text-anchor="middle" x="1660.59" y="-86.3" font-family="Times,serif" font-size="14.00">Label1: malloc</text>
</g>
<!-- ExpName0&#45;&gt;Label1: malloc -->
<g id="edge56" class="edge"><title>ExpName0&#45;&gt;Label1: malloc</title>
<path fill="none" stroke="black" d="M1668.12,-143.697C1667.02,-135.983 1665.69,-126.712 1664.46,-118.112"/>
<polygon fill="black" stroke="black" points="1667.91,-117.509 1663.03,-108.104 1660.98,-118.499 1667.91,-117.509"/>
</g>
<!-- ExpTemp8 -->
<g id="node65" class="node"><title>ExpTemp8</title>
<ellipse fill="none" stroke="black" cx="1792.59" cy="-90" rx="50.0912" ry="18"/>
<text text-anchor="middle" x="1792.59" y="-86.3" font-family="Times,serif" font-size="14.00">ExpTemp8</text>
</g>
<!-- ExpList0&#45;&gt;ExpTemp8 -->
<g id="edge66" class="edge"><title>ExpList0&#45;&gt;ExpTemp8</title>
<path fill="none" stroke="black" d="M1785.06,-143.697C1786.16,-135.983 1787.49,-126.712 1788.72,-118.112"/>
<polygon fill="black" stroke="black" points="1792.2,-118.499 1790.15,-108.104 1785.27,-117.509 1792.2,-118.499"/>
</g>
<!-- StatMove2 -->
<g id="node24" class="node"><title>StatMove2</title>
<ellipse fill="none" stroke="black" cx="936.591" cy="-306" rx="50.0912" ry="18"/>
<text text-anchor="middle" x="936.591" y="-302.3" font-family="Times,serif" font-size="14.00">StatMove2</text>
</g>
<!-- ExpTemp4 -->
<g id="node25" class="node"><title>ExpTemp4</title>
<ellipse fill="none" stroke="black" cx="808.591" cy="-234" rx="50.0912" ry="18"/>
<text text-anchor="middle" x="808.591" y="-230.3" font-family="Times,serif" font-size="14.00">ExpTemp4</text>
</g>
<!-- StatMove2&#45;&gt;ExpTemp4 -->
<g id="edge18" class="edge"><title>StatMove2&#45;&gt;ExpTemp4</title>
<path fill="none" stroke="black" d="M910.379,-290.666C891.265,-280.213 865.146,-265.929 844.151,-254.447"/>
<polygon fill="black" stroke="black" points="845.66,-251.283 835.207,-249.556 842.301,-257.425 845.66,-251.283"/>
</g>
<!-- ExpTemp5 -->
<g id="node26" class="node"><title>ExpTemp5</title>
<ellipse fill="none" stroke="black" cx="936.591" cy="-234" rx="50.0912" ry="18"/>
<text text-anchor="middle" x="936.591" y="-230.3" font-family="Times,serif" font-size="14.00">ExpTemp5</text>
</g>
<!-- StatMove2&#45;&gt;ExpTemp5 -->
<g id="edge19" class="edge"><title>StatMove2&#45;&gt;ExpTemp5</title>
<path fill="none" stroke="black" d="M936.591,-287.697C936.591,-279.983 936.591,-270.712 936.591,-262.112"/>
<polygon fill="black" stroke="black" points="940.091,-262.104 936.591,-252.104 933.091,-262.104 940.091,-262.104"/>
</g>
<!-- Temp4: T304 -->
<g id="node61" class="node"><title>Temp4: T304</title>
<ellipse fill="none" stroke="black" cx="798.591" cy="-162" rx="59.5901" ry="18"/>
<text text-anchor="middle" x="798.591" y="-158.3" font-family="Times,serif" font-size="14.00">Temp4: T304</text>
</g>
<!-- ExpTemp4&#45;&gt;Temp4: T304 -->
<g id="edge54" class="edge"><title>ExpTemp4&#45;&gt;Temp4: T304</title>
<path fill="none" stroke="black" d="M806.119,-215.697C805.017,-207.983 803.692,-198.712 802.464,-190.112"/>
<polygon fill="black" stroke="black" points="805.913,-189.509 801.034,-180.104 798.983,-190.499 805.913,-189.509"/>
</g>
<!-- Temp5: T300 -->
<g id="node51" class="node"><title>Temp5: T300</title>
<ellipse fill="none" stroke="black" cx="936.591" cy="-162" rx="59.5901" ry="18"/>
<text text-anchor="middle" x="936.591" y="-158.3" font-family="Times,serif" font-size="14.00">Temp5: T300</text>
</g>
<!-- ExpTemp5&#45;&gt;Temp5: T300 -->
<g id="edge44" class="edge"><title>ExpTemp5&#45;&gt;Temp5: T300</title>
<path fill="none" stroke="black" d="M936.591,-215.697C936.591,-207.983 936.591,-198.712 936.591,-190.112"/>
<polygon fill="black" stroke="black" points="940.091,-190.104 936.591,-180.104 933.091,-190.104 940.091,-190.104"/>
</g>
<!-- ExpTemp10 -->
<g id="node27" class="node"><title>ExpTemp10</title>
<ellipse fill="none" stroke="black" cx="2035.59" cy="-234" rx="54.6905" ry="18"/>
<text text-anchor="middle" x="2035.59" y="-230.3" font-family="Times,serif" font-size="14.00">ExpTemp10</text>
</g>
<!-- Temp10: T300 -->
<g id="node28" class="node"><title>Temp10: T300</title>
<ellipse fill="none" stroke="black" cx="2044.59" cy="-162" rx="63.8893" ry="18"/>
<text text-anchor="middle" x="2044.59" y="-158.3" font-family="Times,serif" font-size="14.00">Temp10: T300</text>
</g>
<!-- ExpTemp10&#45;&gt;Temp10: T300 -->
<g id="edge20" class="edge"><title>ExpTemp10&#45;&gt;Temp10: T300</title>
<path fill="none" stroke="black" d="M2037.82,-215.697C2038.81,-207.983 2040,-198.712 2041.1,-190.112"/>
<polygon fill="black" stroke="black" points="2044.59,-190.469 2042.39,-180.104 2037.64,-189.576 2044.59,-190.469"/>
</g>
<!-- ExpTemp2 -->
<g id="node29" class="node"><title>ExpTemp2</title>
<ellipse fill="none" stroke="black" cx="532.591" cy="-234" rx="50.0912" ry="18"/>
<text text-anchor="middle" x="532.591" y="-230.3" font-family="Times,serif" font-size="14.00">ExpTemp2</text>
</g>
<!-- Temp2: T306 -->
<g id="node30" class="node"><title>Temp2: T306</title>
<ellipse fill="none" stroke="black" cx="522.591" cy="-162" rx="59.5901" ry="18"/>
<text text-anchor="middle" x="522.591" y="-158.3" font-family="Times,serif" font-size="14.00">Temp2: T306</text>
</g>
<!-- ExpTemp2&#45;&gt;Temp2: T306 -->
<g id="edge21" class="edge"><title>ExpTemp2&#45;&gt;Temp2: T306</title>
<path fill="none" stroke="black" d="M530.119,-215.697C529.017,-207.983 527.692,-198.712 526.464,-190.112"/>
<polygon fill="black" stroke="black" points="529.913,-189.509 525.034,-180.104 522.983,-190.499 529.913,-189.509"/>
</g>
<!-- StatMove5 -->
<g id="node31" class="node"><title>StatMove5</title>
<ellipse fill="none" stroke="black" cx="1903.59" cy="-306" rx="50.0912" ry="18"/>
<text text-anchor="middle" x="1903.59" y="-302.3" font-family="Times,serif" font-size="14.00">StatMove5</text>
</g>
<!-- StatMove5&#45;&gt;ExpTemp9 -->
<g id="edge22" class="edge"><title>StatMove5&#45;&gt;ExpTemp9</title>
<path fill="none" stroke="black" d="M1903.59,-287.697C1903.59,-279.983 1903.59,-270.712 1903.59,-262.112"/>
<polygon fill="black" stroke="black" points="1907.09,-262.104 1903.59,-252.104 1900.09,-262.104 1907.09,-262.104"/>
</g>
<!-- StatMove5&#45;&gt;ExpTemp10 -->
<g id="edge23" class="edge"><title>StatMove5&#45;&gt;ExpTemp10</title>
<path fill="none" stroke="black" d="M1930.62,-290.666C1950.29,-280.236 1977.15,-265.992 1998.77,-254.524"/>
<polygon fill="black" stroke="black" points="2000.49,-257.575 2007.69,-249.798 1997.21,-251.391 2000.49,-257.575"/>
</g>
<!-- ExpConst1 -->
<g id="node32" class="node"><title>ExpConst1</title>
<ellipse fill="none" stroke="black" cx="1414.59" cy="-162" rx="50.0912" ry="18"/>
<text text-anchor="middle" x="1414.59" y="-158.3" font-family="Times,serif" font-size="14.00">ExpConst1</text>
</g>
<!-- Value1: 4 -->
<g id="node33" class="node"><title>Value1: 4</title>
<ellipse fill="none" stroke="black" cx="1414.59" cy="-90" rx="45.4919" ry="18"/>
<text text-anchor="middle" x="1414.59" y="-86.3" font-family="Times,serif" font-size="14.00">Value1: 4</text>
</g>
<!-- ExpConst1&#45;&gt;Value1: 4 -->
<g id="edge24" class="edge"><title>ExpConst1&#45;&gt;Value1: 4</title>
<path fill="none" stroke="black" d="M1414.59,-143.697C1414.59,-135.983 1414.59,-126.712 1414.59,-118.112"/>
<polygon fill="black" stroke="black" points="1418.09,-118.104 1414.59,-108.104 1411.09,-118.104 1418.09,-118.104"/>
</g>
<!-- ExpTemp3 -->
<g id="node34" class="node"><title>ExpTemp3</title>
<ellipse fill="none" stroke="black" cx="660.591" cy="-234" rx="50.0912" ry="18"/>
<text text-anchor="middle" x="660.591" y="-230.3" font-family="Times,serif" font-size="14.00">ExpTemp3</text>
</g>
<!-- Temp3: T301 -->
<g id="node35" class="node"><title>Temp3: T301</title>
<ellipse fill="none" stroke="black" cx="660.591" cy="-162" rx="59.5901" ry="18"/>
<text text-anchor="middle" x="660.591" y="-158.3" font-family="Times,serif" font-size="14.00">Temp3: T301</text>
</g>
<!-- ExpTemp3&#45;&gt;Temp3: T301 -->
<g id="edge25" class="edge"><title>ExpTemp3&#45;&gt;Temp3: T301</title>
<path fill="none" stroke="black" d="M660.591,-215.697C660.591,-207.983 660.591,-198.712 660.591,-190.112"/>
<polygon fill="black" stroke="black" points="664.091,-190.104 660.591,-180.104 657.091,-190.104 664.091,-190.104"/>
</g>
<!-- StatLabel0 -->
<g id="node36" class="node"><title>StatLabel0</title>
<ellipse fill="none" stroke="black" cx="194.591" cy="-306" rx="48.9926" ry="18"/>
<text text-anchor="middle" x="194.591" y="-302.3" font-family="Times,serif" font-size="14.00">StatLabel0</text>
</g>
<!-- Label0: BinaryTree@main -->
<g id="node37" class="node"><title>Label0: BinaryTree@main</title>
<ellipse fill="none" stroke="black" cx="106.591" cy="-234" rx="106.681" ry="18"/>
<text text-anchor="middle" x="106.591" y="-230.3" font-family="Times,serif" font-size="14.00">Label0: BinaryTree@main</text>
</g>
<!-- StatLabel0&#45;&gt;Label0: BinaryTree@main -->
<g id="edge26" class="edge"><title>StatLabel0&#45;&gt;Label0: BinaryTree@main</title>
<path fill="none" stroke="black" d="M175.06,-289.465C163.513,-280.279 148.669,-268.471 135.755,-258.199"/>
<polygon fill="black" stroke="black" points="137.607,-255.2 127.602,-251.714 133.25,-260.678 137.607,-255.2"/>
</g>
<!-- StatList0 -->
<g id="node38" class="node"><title>StatList0</title>
<ellipse fill="none" stroke="black" cx="1610.59" cy="-378" rx="42.4939" ry="18"/>
<text text-anchor="middle" x="1610.59" y="-374.3" font-family="Times,serif" font-size="14.00">StatList0</text>
</g>
<!-- StatList0&#45;&gt;StatExp0 -->
<g id="edge37" class="edge"><title>StatList0&#45;&gt;StatExp0</title>
<path fill="none" stroke="black" d="M1652.92,-376.366C1815.48,-373.7 2415.21,-361.729 2907.59,-324 2941.24,-321.422 2978.96,-317.176 3008.29,-313.572"/>
<polygon fill="black" stroke="black" points="3008.8,-317.036 3018.29,-312.328 3007.93,-310.089 3008.8,-317.036"/>
</g>
<!-- StatList0&#45;&gt;StatMove8 -->
<g id="edge36" class="edge"><title>StatList0&#45;&gt;StatMove8</title>
<path fill="none" stroke="black" d="M1652.34,-375.116C1790.16,-368.828 2243.25,-347.623 2617.59,-324 2676.36,-320.292 2743.47,-315.264 2790.16,-311.639"/>
<polygon fill="black" stroke="black" points="2790.69,-315.108 2800.39,-310.842 2790.14,-308.13 2790.69,-315.108"/>
</g>
<!-- StatList0&#45;&gt;StatMove6 -->
<g id="edge34" class="edge"><title>StatList0&#45;&gt;StatMove6</title>
<path fill="none" stroke="black" d="M1650.85,-372.133C1751.79,-359.929 2015.94,-327.994 2132.7,-313.878"/>
<polygon fill="black" stroke="black" points="2133.35,-317.325 2142.86,-312.65 2132.51,-310.376 2133.35,-317.325"/>
</g>
<!-- StatList0&#45;&gt;StatMove2 -->
<g id="edge30" class="edge"><title>StatList0&#45;&gt;StatMove2</title>
<path fill="none" stroke="black" d="M1569.95,-372.779C1454.97,-360.838 1127.14,-326.79 993.92,-312.954"/>
<polygon fill="black" stroke="black" points="994.22,-309.467 983.912,-311.915 993.497,-316.429 994.22,-309.467"/>
</g>
<!-- StatList0&#45;&gt;StatMove5 -->
<g id="edge33" class="edge"><title>StatList0&#45;&gt;StatMove5</title>
<path fill="none" stroke="black" d="M1646.52,-368.417C1698.38,-356.027 1794.43,-333.079 1853.31,-319.013"/>
<polygon fill="black" stroke="black" points="1854.23,-322.392 1863.14,-316.664 1852.6,-315.584 1854.23,-322.392"/>
</g>
<!-- StatList0&#45;&gt;StatLabel0 -->
<g id="edge27" class="edge"><title>StatList0&#45;&gt;StatLabel0</title>
<path fill="none" stroke="black" d="M1568.32,-376.374C1407.94,-373.759 821.825,-362.006 340.591,-324 310.476,-321.622 276.994,-317.808 249.698,-314.395"/>
<polygon fill="black" stroke="black" points="249.92,-310.895 239.559,-313.11 249.04,-317.839 249.92,-310.895"/>
</g>
<!-- StatMove0 -->
<g id="node39" class="node"><title>StatMove0</title>
<ellipse fill="none" stroke="black" cx="399.591" cy="-306" rx="50.0912" ry="18"/>
<text text-anchor="middle" x="399.591" y="-302.3" font-family="Times,serif" font-size="14.00">StatMove0</text>
</g>
<!-- StatList0&#45;&gt;StatMove0 -->
<g id="edge28" class="edge"><title>StatList0&#45;&gt;StatMove0</title>
<path fill="none" stroke="black" d="M1568.75,-375.275C1430.62,-369.479 976.543,-349.619 601.591,-324 552.979,-320.679 497.866,-315.978 457.502,-312.361"/>
<polygon fill="black" stroke="black" points="457.584,-308.854 447.31,-311.442 456.956,-315.826 457.584,-308.854"/>
</g>
<!-- StatMove1 -->
<g id="node40" class="node"><title>StatMove1</title>
<ellipse fill="none" stroke="black" cx="660.591" cy="-306" rx="50.0912" ry="18"/>
<text text-anchor="middle" x="660.591" y="-302.3" font-family="Times,serif" font-size="14.00">StatMove1</text>
</g>
<!-- StatList0&#45;&gt;StatMove1 -->
<g id="edge29" class="edge"><title>StatList0&#45;&gt;StatMove1</title>
<path fill="none" stroke="black" d="M1569.25,-374.098C1457.66,-366.247 1140.95,-343.837 877.591,-324 823.867,-319.953 762.679,-315.141 719.003,-311.672"/>
<polygon fill="black" stroke="black" points="719.095,-308.168 708.849,-310.864 718.54,-315.146 719.095,-308.168"/>
</g>
<!-- StatMove3 -->
<g id="node41" class="node"><title>StatMove3</title>
<ellipse fill="none" stroke="black" cx="1308.59" cy="-306" rx="50.0912" ry="18"/>
<text text-anchor="middle" x="1308.59" y="-302.3" font-family="Times,serif" font-size="14.00">StatMove3</text>
</g>
<!-- StatList0&#45;&gt;StatMove3 -->
<g id="edge31" class="edge"><title>StatList0&#45;&gt;StatMove3</title>
<path fill="none" stroke="black" d="M1574.46,-368.626C1520.92,-356.216 1420.3,-332.893 1359.37,-318.77"/>
<polygon fill="black" stroke="black" points="1360.11,-315.349 1349.58,-316.5 1358.53,-322.168 1360.11,-315.349"/>
</g>
<!-- StatMove4 -->
<g id="node42" class="node"><title>StatMove4</title>
<ellipse fill="none" stroke="black" cx="1610.59" cy="-306" rx="50.0912" ry="18"/>
<text text-anchor="middle" x="1610.59" y="-302.3" font-family="Times,serif" font-size="14.00">StatMove4</text>
</g>
<!-- StatList0&#45;&gt;StatMove4 -->
<g id="edge32" class="edge"><title>StatList0&#45;&gt;StatMove4</title>
<path fill="none" stroke="black" d="M1610.59,-359.697C1610.59,-351.983 1610.59,-342.712 1610.59,-334.112"/>
<polygon fill="black" stroke="black" points="1614.09,-334.104 1610.59,-324.104 1607.09,-334.104 1614.09,-334.104"/>
</g>
<!-- StatMove7 -->
<g id="node43" class="node"><title>StatMove7</title>
<ellipse fill="none" stroke="black" cx="2558.59" cy="-306" rx="50.0912" ry="18"/>
<text text-anchor="middle" x="2558.59" y="-302.3" font-family="Times,serif" font-size="14.00">StatMove7</text>
</g>
<!-- StatList0&#45;&gt;StatMove7 -->
<g id="edge35" class="edge"><title>StatList0&#45;&gt;StatMove7</title>
<path fill="none" stroke="black" d="M1651.93,-373.947C1802.79,-362.808 2323.97,-324.324 2499.99,-311.327"/>
<polygon fill="black" stroke="black" points="2500.38,-314.808 2510.09,-310.581 2499.86,-307.827 2500.38,-314.808"/>
</g>
<!-- ExpTemp0 -->
<g id="node44" class="node"><title>ExpTemp0</title>
<ellipse fill="none" stroke="black" cx="281.591" cy="-234" rx="50.0912" ry="18"/>
<text text-anchor="middle" x="281.591" y="-230.3" font-family="Times,serif" font-size="14.00">ExpTemp0</text>
</g>
<!-- StatMove0&#45;&gt;ExpTemp0 -->
<g id="edge39" class="edge"><title>StatMove0&#45;&gt;ExpTemp0</title>
<path fill="none" stroke="black" d="M374.854,-290.326C357.468,-280.012 334.008,-266.095 314.967,-254.8"/>
<polygon fill="black" stroke="black" points="316.681,-251.747 306.295,-249.655 313.109,-257.767 316.681,-251.747"/>
</g>
<!-- ExpTemp1 -->
<g id="node46" class="node"><title>ExpTemp1</title>
<ellipse fill="none" stroke="black" cx="399.591" cy="-234" rx="50.0912" ry="18"/>
<text text-anchor="middle" x="399.591" y="-230.3" font-family="Times,serif" font-size="14.00">ExpTemp1</text>
</g>
<!-- StatMove0&#45;&gt;ExpTemp1 -->
<g id="edge40" class="edge"><title>StatMove0&#45;&gt;ExpTemp1</title>
<path fill="none" stroke="black" d="M399.591,-287.697C399.591,-279.983 399.591,-270.712 399.591,-262.112"/>
<polygon fill="black" stroke="black" points="403.091,-262.104 399.591,-252.104 396.091,-262.104 403.091,-262.104"/>
</g>
<!-- StatMove1&#45;&gt;ExpTemp2 -->
<g id="edge62" class="edge"><title>StatMove1&#45;&gt;ExpTemp2</title>
<path fill="none" stroke="black" d="M634.379,-290.666C615.265,-280.213 589.146,-265.929 568.151,-254.447"/>
<polygon fill="black" stroke="black" points="569.66,-251.283 559.207,-249.556 566.301,-257.425 569.66,-251.283"/>
</g>
<!-- StatMove1&#45;&gt;ExpTemp3 -->
<g id="edge63" class="edge"><title>StatMove1&#45;&gt;ExpTemp3</title>
<path fill="none" stroke="black" d="M660.591,-287.697C660.591,-279.983 660.591,-270.712 660.591,-262.112"/>
<polygon fill="black" stroke="black" points="664.091,-262.104 660.591,-252.104 657.091,-262.104 664.091,-262.104"/>
</g>
<!-- ExpTemp6 -->
<g id="node52" class="node"><title>ExpTemp6</title>
<ellipse fill="none" stroke="black" cx="1130.59" cy="-234" rx="50.0912" ry="18"/>
<text text-anchor="middle" x="1130.59" y="-230.3" font-family="Times,serif" font-size="14.00">ExpTemp6</text>
</g>
<!-- StatMove3&#45;&gt;ExpTemp6 -->
<g id="edge47" class="edge"><title>StatMove3&#45;&gt;ExpTemp6</title>
<path fill="none" stroke="black" d="M1275.94,-292.161C1246.84,-280.715 1204.07,-263.897 1172.46,-251.464"/>
<polygon fill="black" stroke="black" points="1173.62,-248.16 1163.03,-247.758 1171.06,-254.675 1173.62,-248.16"/>
</g>
<!-- ExpBinary0 -->
<g id="node55" class="node"><title>ExpBinary0</title>
<ellipse fill="none" stroke="black" cx="1308.59" cy="-234" rx="53.0913" ry="18"/>
<text text-anchor="middle" x="1308.59" y="-230.3" font-family="Times,serif" font-size="14.00">ExpBinary0</text>
</g>
<!-- StatMove3&#45;&gt;ExpBinary0 -->
<g id="edge48" class="edge"><title>StatMove3&#45;&gt;ExpBinary0</title>
<path fill="none" stroke="black" d="M1308.59,-287.697C1308.59,-279.983 1308.59,-270.712 1308.59,-262.112"/>
<polygon fill="black" stroke="black" points="1312.09,-262.104 1308.59,-252.104 1305.09,-262.104 1312.09,-262.104"/>
</g>
<!-- StatMove4&#45;&gt;ExpCall0 -->
<g id="edge61" class="edge"><title>StatMove4&#45;&gt;ExpCall0</title>
<path fill="none" stroke="black" d="M1624.81,-288.411C1632.28,-279.693 1641.58,-268.845 1649.84,-259.208"/>
<polygon fill="black" stroke="black" points="1652.62,-261.34 1656.47,-251.47 1647.31,-256.785 1652.62,-261.34"/>
</g>
<!-- ExpTemp7 -->
<g id="node62" class="node"><title>ExpTemp7</title>
<ellipse fill="none" stroke="black" cx="1550.59" cy="-234" rx="50.0912" ry="18"/>
<text text-anchor="middle" x="1550.59" y="-230.3" font-family="Times,serif" font-size="14.00">ExpTemp7</text>
</g>
<!-- StatMove4&#45;&gt;ExpTemp7 -->
<g id="edge60" class="edge"><title>StatMove4&#45;&gt;ExpTemp7</title>
<path fill="none" stroke="black" d="M1596.37,-288.411C1588.9,-279.693 1579.6,-268.845 1571.34,-259.208"/>
<polygon fill="black" stroke="black" points="1573.87,-256.785 1564.71,-251.47 1568.56,-261.34 1573.87,-256.785"/>
</g>
<!-- StatMove7&#45;&gt;ExpTemp13 -->
<g id="edge57" class="edge"><title>StatMove7&#45;&gt;ExpTemp13</title>
<path fill="none" stroke="black" d="M2558.59,-287.697C2558.59,-279.983 2558.59,-270.712 2558.59,-262.112"/>
<polygon fill="black" stroke="black" points="2562.09,-262.104 2558.59,-252.104 2555.09,-262.104 2562.09,-262.104"/>
</g>
<!-- ExpTemp14 -->
<g id="node48" class="node"><title>ExpTemp14</title>
<ellipse fill="none" stroke="black" cx="2694.59" cy="-234" rx="54.6905" ry="18"/>
<text text-anchor="middle" x="2694.59" y="-230.3" font-family="Times,serif" font-size="14.00">ExpTemp14</text>
</g>
<!-- StatMove7&#45;&gt;ExpTemp14 -->
<g id="edge58" class="edge"><title>StatMove7&#45;&gt;ExpTemp14</title>
<path fill="none" stroke="black" d="M2586.11,-290.834C2606.58,-280.301 2634.73,-265.809 2657.23,-254.229"/>
<polygon fill="black" stroke="black" points="2658.88,-257.315 2666.17,-249.626 2655.68,-251.091 2658.88,-257.315"/>
</g>
<!-- Temp0: T308 -->
<g id="node45" class="node"><title>Temp0: T308</title>
<ellipse fill="none" stroke="black" cx="246.591" cy="-162" rx="59.5901" ry="18"/>
<text text-anchor="middle" x="246.591" y="-158.3" font-family="Times,serif" font-size="14.00">Temp0: T308</text>
</g>
<!-- ExpTemp0&#45;&gt;Temp0: T308 -->
<g id="edge38" class="edge"><title>ExpTemp0&#45;&gt;Temp0: T308</title>
<path fill="none" stroke="black" d="M273.118,-216.055C269.094,-208.007 264.193,-198.205 259.703,-189.226"/>
<polygon fill="black" stroke="black" points="262.831,-187.654 255.228,-180.275 256.57,-190.785 262.831,-187.654"/>
</g>
<!-- Temp1: T302 -->
<g id="node50" class="node"><title>Temp1: T302</title>
<ellipse fill="none" stroke="black" cx="384.591" cy="-162" rx="59.5901" ry="18"/>
<text text-anchor="middle" x="384.591" y="-158.3" font-family="Times,serif" font-size="14.00">Temp1: T302</text>
</g>
<!-- ExpTemp1&#45;&gt;Temp1: T302 -->
<g id="edge43" class="edge"><title>ExpTemp1&#45;&gt;Temp1: T302</title>
<path fill="none" stroke="black" d="M395.883,-215.697C394.23,-207.983 392.243,-198.712 390.4,-190.112"/>
<polygon fill="black" stroke="black" points="393.773,-189.149 388.256,-180.104 386.929,-190.616 393.773,-189.149"/>
</g>
<!-- Temp14: T301 -->
<g id="node49" class="node"><title>Temp14: T301</title>
<ellipse fill="none" stroke="black" cx="2703.59" cy="-162" rx="63.8893" ry="18"/>
<text text-anchor="middle" x="2703.59" y="-158.3" font-family="Times,serif" font-size="14.00">Temp14: T301</text>
</g>
<!-- ExpTemp14&#45;&gt;Temp14: T301 -->
<g id="edge42" class="edge"><title>ExpTemp14&#45;&gt;Temp14: T301</title>
<path fill="none" stroke="black" d="M2696.82,-215.697C2697.81,-207.983 2699,-198.712 2700.1,-190.112"/>
<polygon fill="black" stroke="black" points="2703.59,-190.469 2701.39,-180.104 2696.64,-189.576 2703.59,-190.469"/>
</g>
<!-- Temp6: T303 -->
<g id="node53" class="node"><title>Temp6: T303</title>
<ellipse fill="none" stroke="black" cx="1074.59" cy="-162" rx="59.5901" ry="18"/>
<text text-anchor="middle" x="1074.59" y="-158.3" font-family="Times,serif" font-size="14.00">Temp6: T303</text>
</g>
<!-- ExpTemp6&#45;&gt;Temp6: T303 -->
<g id="edge45" class="edge"><title>ExpTemp6&#45;&gt;Temp6: T303</title>
<path fill="none" stroke="black" d="M1117.32,-216.411C1110.52,-207.906 1102.09,-197.372 1094.52,-187.914"/>
<polygon fill="black" stroke="black" points="1097.14,-185.578 1088.16,-179.956 1091.67,-189.951 1097.14,-185.578"/>
</g>
<!-- ExpBinary0&#45;&gt;ExpConst1 -->
<g id="edge53" class="edge"><title>ExpBinary0&#45;&gt;ExpConst1</title>
<path fill="none" stroke="black" d="M1331.85,-217.638C1346.87,-207.723 1366.59,-194.698 1383.01,-183.853"/>
<polygon fill="black" stroke="black" points="1385.33,-186.517 1391.75,-178.085 1381.47,-180.675 1385.33,-186.517"/>
</g>
<!-- ExpConst0 -->
<g id="node56" class="node"><title>ExpConst0</title>
<ellipse fill="none" stroke="black" cx="1202.59" cy="-162" rx="50.0912" ry="18"/>
<text text-anchor="middle" x="1202.59" y="-158.3" font-family="Times,serif" font-size="14.00">ExpConst0</text>
</g>
<!-- ExpBinary0&#45;&gt;ExpConst0 -->
<g id="edge51" class="edge"><title>ExpBinary0&#45;&gt;ExpConst0</title>
<path fill="none" stroke="black" d="M1285.33,-217.638C1270.31,-207.723 1250.59,-194.698 1234.17,-183.853"/>
<polygon fill="black" stroke="black" points="1235.71,-180.675 1225.43,-178.085 1231.85,-186.517 1235.71,-180.675"/>
</g>
<!-- Times0 -->
<g id="node60" class="node"><title>Times0</title>
<ellipse fill="none" stroke="black" cx="1308.59" cy="-162" rx="37.8943" ry="18"/>
<text text-anchor="middle" x="1308.59" y="-158.3" font-family="Times,serif" font-size="14.00">Times0</text>
</g>
<!-- ExpBinary0&#45;&gt;Times0 -->
<g id="edge52" class="edge"><title>ExpBinary0&#45;&gt;Times0</title>
<path fill="none" stroke="black" d="M1308.59,-215.697C1308.59,-207.983 1308.59,-198.712 1308.59,-190.112"/>
<polygon fill="black" stroke="black" points="1312.09,-190.104 1308.59,-180.104 1305.09,-190.104 1312.09,-190.104"/>
</g>
<!-- Value0: 0 -->
<g id="node57" class="node"><title>Value0: 0</title>
<ellipse fill="none" stroke="black" cx="1202.59" cy="-90" rx="45.4919" ry="18"/>
<text text-anchor="middle" x="1202.59" y="-86.3" font-family="Times,serif" font-size="14.00">Value0: 0</text>
</g>
<!-- ExpConst0&#45;&gt;Value0: 0 -->
<g id="edge49" class="edge"><title>ExpConst0&#45;&gt;Value0: 0</title>
<path fill="none" stroke="black" d="M1202.59,-143.697C1202.59,-135.983 1202.59,-126.712 1202.59,-118.112"/>
<polygon fill="black" stroke="black" points="1206.09,-118.104 1202.59,-108.104 1199.09,-118.104 1206.09,-118.104"/>
</g>
<!-- Temp12: T305 -->
<g id="node59" class="node"><title>Temp12: T305</title>
<ellipse fill="none" stroke="black" cx="2452.59" cy="-18" rx="63.8893" ry="18"/>
<text text-anchor="middle" x="2452.59" y="-14.3" font-family="Times,serif" font-size="14.00">Temp12: T305</text>
</g>
<!-- ExpTemp12&#45;&gt;Temp12: T305 -->
<g id="edge50" class="edge"><title>ExpTemp12&#45;&gt;Temp12: T305</title>
<path fill="none" stroke="black" d="M2452.59,-71.6966C2452.59,-63.9827 2452.59,-54.7125 2452.59,-46.1124"/>
<polygon fill="black" stroke="black" points="2456.09,-46.1043 2452.59,-36.1043 2449.09,-46.1044 2456.09,-46.1043"/>
</g>
<!-- Temp7: T304 -->
<g id="node63" class="node"><title>Temp7: T304</title>
<ellipse fill="none" stroke="black" cx="1542.59" cy="-162" rx="59.5901" ry="18"/>
<text text-anchor="middle" x="1542.59" y="-158.3" font-family="Times,serif" font-size="14.00">Temp7: T304</text>
</g>
<!-- ExpTemp7&#45;&gt;Temp7: T304 -->
<g id="edge55" class="edge"><title>ExpTemp7&#45;&gt;Temp7: T304</title>
<path fill="none" stroke="black" d="M1548.61,-215.697C1547.73,-207.983 1546.67,-198.712 1545.69,-190.112"/>
<polygon fill="black" stroke="black" points="1549.16,-189.642 1544.55,-180.104 1542.2,-190.437 1549.16,-189.642"/>
</g>
<!-- Temp8: T303 -->
<g id="node66" class="node"><title>Temp8: T303</title>
<ellipse fill="none" stroke="black" cx="1792.59" cy="-18" rx="59.5901" ry="18"/>
<text text-anchor="middle" x="1792.59" y="-14.3" font-family="Times,serif" font-size="14.00">Temp8: T303</text>
</g>
<!-- ExpTemp8&#45;&gt;Temp8: T303 -->
<g id="edge64" class="edge"><title>ExpTemp8&#45;&gt;Temp8: T303</title>
<path fill="none" stroke="black" d="M1792.59,-71.6966C1792.59,-63.9827 1792.59,-54.7125 1792.59,-46.1124"/>
<polygon fill="black" stroke="black" points="1796.09,-46.1043 1792.59,-36.1043 1789.09,-46.1044 1796.09,-46.1043"/>
</g>
</g>
</svg>
