<?xml version="1.0" encoding="UTF-8" standalone="no"?>
<!DOCTYPE svg PUBLIC "-//W3C//DTD SVG 1.1//EN"
 "http://www.w3.org/Graphics/SVG/1.1/DTD/svg11.dtd">
<!-- Generated by graphviz version 2.38.0 (20140413.2041)
 -->
<!-- Title: %3 Pages: 1 -->
<svg width="764pt" height="404pt"
 viewBox="0.00 0.00 764.14 404.00" xmlns="http://www.w3.org/2000/svg" xmlns:xlink="http://www.w3.org/1999/xlink">
<g id="graph0" class="graph" transform="scale(1 1) rotate(0) translate(4 400)">
<title>%3</title>
<polygon fill="white" stroke="none" points="-4,4 -4,-400 760.141,-400 760.141,4 -4,4"/>
<!-- AddConst1 -->
<g id="node1" class="node"><title>AddConst1</title>
<ellipse fill="none" stroke="black" cx="602.645" cy="-162" rx="50.8918" ry="18"/>
<text text-anchor="middle" x="602.645" y="-158.3" font-family="Times,serif" font-size="14.00">AddConst1</text>
</g>
<!-- NullExp1 -->
<g id="node2" class="node"><title>NullExp1</title>
<ellipse fill="none" stroke="black" cx="602.645" cy="-90" rx="44.6926" ry="18"/>
<text text-anchor="middle" x="602.645" y="-86.3" font-family="Times,serif" font-size="14.00">NullExp1</text>
</g>
<!-- AddConst1&#45;&gt;NullExp1 -->
<g id="edge1" class="edge"><title>AddConst1&#45;&gt;NullExp1</title>
<path fill="none" stroke="black" d="M602.645,-143.697C602.645,-135.983 602.645,-126.712 602.645,-118.112"/>
<polygon fill="black" stroke="black" points="606.145,-118.104 602.645,-108.104 599.145,-118.104 606.145,-118.104"/>
</g>
<!-- Value4: 8 -->
<g id="node3" class="node"><title>Value4: 8</title>
<ellipse fill="none" stroke="black" cx="710.645" cy="-90" rx="45.4919" ry="18"/>
<text text-anchor="middle" x="710.645" y="-86.3" font-family="Times,serif" font-size="14.00">Value4: 8</text>
</g>
<!-- AddConst1&#45;&gt;Value4: 8 -->
<g id="edge2" class="edge"><title>AddConst1&#45;&gt;Value4: 8</title>
<path fill="none" stroke="black" d="M625.814,-145.983C641.437,-135.857 662.238,-122.375 679.332,-111.296"/>
<polygon fill="black" stroke="black" points="681.398,-114.128 687.886,-105.752 677.59,-108.254 681.398,-114.128"/>
</g>
<!-- Add1 -->
<g id="node4" class="node"><title>Add1</title>
<ellipse fill="none" stroke="black" cx="499.645" cy="-234" rx="30.5947" ry="18"/>
<text text-anchor="middle" x="499.645" y="-230.3" font-family="Times,serif" font-size="14.00">Add1</text>
</g>
<!-- Add1&#45;&gt;AddConst1 -->
<g id="edge4" class="edge"><title>Add1&#45;&gt;AddConst1</title>
<path fill="none" stroke="black" d="M519.019,-219.834C533.807,-209.783 554.479,-195.734 571.57,-184.119"/>
<polygon fill="black" stroke="black" points="573.828,-186.817 580.131,-178.301 569.893,-181.027 573.828,-186.817"/>
</g>
<!-- Temp2 -->
<g id="node5" class="node"><title>Temp2</title>
<ellipse fill="none" stroke="black" cx="492.645" cy="-162" rx="36.2938" ry="18"/>
<text text-anchor="middle" x="492.645" y="-158.3" font-family="Times,serif" font-size="14.00">Temp2</text>
</g>
<!-- Add1&#45;&gt;Temp2 -->
<g id="edge3" class="edge"><title>Add1&#45;&gt;Temp2</title>
<path fill="none" stroke="black" d="M497.915,-215.697C497.144,-207.983 496.217,-198.712 495.357,-190.112"/>
<polygon fill="black" stroke="black" points="498.834,-189.706 494.356,-180.104 491.868,-190.403 498.834,-189.706"/>
</g>
<!-- Temp3: $fp -->
<g id="node6" class="node"><title>Temp3: $fp</title>
<ellipse fill="none" stroke="black" cx="487.645" cy="-90" rx="52.7911" ry="18"/>
<text text-anchor="middle" x="487.645" y="-86.3" font-family="Times,serif" font-size="14.00">Temp3: $fp</text>
</g>
<!-- Temp2&#45;&gt;Temp3: $fp -->
<g id="edge5" class="edge"><title>Temp2&#45;&gt;Temp3: $fp</title>
<path fill="none" stroke="black" d="M491.409,-143.697C490.858,-135.983 490.196,-126.712 489.582,-118.112"/>
<polygon fill="black" stroke="black" points="493.071,-117.83 488.867,-108.104 486.089,-118.328 493.071,-117.83"/>
</g>
<!-- Load0 -->
<g id="node7" class="node"><title>Load0</title>
<ellipse fill="none" stroke="black" cx="318.645" cy="-306" rx="33.2948" ry="18"/>
<text text-anchor="middle" x="318.645" y="-302.3" font-family="Times,serif" font-size="14.00">Load0</text>
</g>
<!-- Add0 -->
<g id="node8" class="node"><title>Add0</title>
<ellipse fill="none" stroke="black" cx="228.645" cy="-234" rx="30.5947" ry="18"/>
<text text-anchor="middle" x="228.645" y="-230.3" font-family="Times,serif" font-size="14.00">Add0</text>
</g>
<!-- Load0&#45;&gt;Add0 -->
<g id="edge6" class="edge"><title>Load0&#45;&gt;Add0</title>
<path fill="none" stroke="black" d="M300.432,-290.834C287.294,-280.615 269.365,-266.671 254.712,-255.274"/>
<polygon fill="black" stroke="black" points="256.566,-252.282 246.524,-248.906 252.269,-257.808 256.566,-252.282"/>
</g>
<!-- Value2: 0 -->
<g id="node9" class="node"><title>Value2: 0</title>
<ellipse fill="none" stroke="black" cx="322.645" cy="-234" rx="45.4919" ry="18"/>
<text text-anchor="middle" x="322.645" y="-230.3" font-family="Times,serif" font-size="14.00">Value2: 0</text>
</g>
<!-- Load0&#45;&gt;Value2: 0 -->
<g id="edge7" class="edge"><title>Load0&#45;&gt;Value2: 0</title>
<path fill="none" stroke="black" d="M319.634,-287.697C320.075,-279.983 320.605,-270.712 321.096,-262.112"/>
<polygon fill="black" stroke="black" points="324.592,-262.288 321.668,-252.104 317.603,-261.888 324.592,-262.288"/>
</g>
<!-- Load1 -->
<g id="node12" class="node"><title>Load1</title>
<ellipse fill="none" stroke="black" cx="152.645" cy="-162" rx="33.2948" ry="18"/>
<text text-anchor="middle" x="152.645" y="-158.3" font-family="Times,serif" font-size="14.00">Load1</text>
</g>
<!-- Add0&#45;&gt;Load1 -->
<g id="edge9" class="edge"><title>Add0&#45;&gt;Load1</title>
<path fill="none" stroke="black" d="M212.898,-218.496C202.341,-208.772 188.246,-195.79 176.343,-184.827"/>
<polygon fill="black" stroke="black" points="178.623,-182.169 168.897,-177.968 173.881,-187.318 178.623,-182.169"/>
</g>
<!-- AddConst0 -->
<g id="node13" class="node"><title>AddConst0</title>
<ellipse fill="none" stroke="black" cx="260.645" cy="-162" rx="50.8918" ry="18"/>
<text text-anchor="middle" x="260.645" y="-158.3" font-family="Times,serif" font-size="14.00">AddConst0</text>
</g>
<!-- Add0&#45;&gt;AddConst0 -->
<g id="edge10" class="edge"><title>Add0&#45;&gt;AddConst0</title>
<path fill="none" stroke="black" d="M236.229,-216.411C239.96,-208.249 244.545,-198.22 248.73,-189.065"/>
<polygon fill="black" stroke="black" points="251.919,-190.506 252.894,-179.956 245.553,-187.596 251.919,-190.506"/>
</g>
<!-- Temp0 -->
<g id="node10" class="node"><title>Temp0</title>
<ellipse fill="none" stroke="black" cx="52.6453" cy="-90" rx="36.2938" ry="18"/>
<text text-anchor="middle" x="52.6453" y="-86.3" font-family="Times,serif" font-size="14.00">Temp0</text>
</g>
<!-- Temp1: $fp -->
<g id="node11" class="node"><title>Temp1: $fp</title>
<ellipse fill="none" stroke="black" cx="52.6453" cy="-18" rx="52.7911" ry="18"/>
<text text-anchor="middle" x="52.6453" y="-14.3" font-family="Times,serif" font-size="14.00">Temp1: $fp</text>
</g>
<!-- Temp0&#45;&gt;Temp1: $fp -->
<g id="edge8" class="edge"><title>Temp0&#45;&gt;Temp1: $fp</title>
<path fill="none" stroke="black" d="M52.6453,-71.6966C52.6453,-63.9827 52.6453,-54.7125 52.6453,-46.1124"/>
<polygon fill="black" stroke="black" points="56.1454,-46.1043 52.6453,-36.1043 49.1454,-46.1044 56.1454,-46.1043"/>
</g>
<!-- Load1&#45;&gt;Temp0 -->
<g id="edge19" class="edge"><title>Load1&#45;&gt;Temp0</title>
<path fill="none" stroke="black" d="M132.889,-147.17C118.056,-136.788 97.537,-122.424 80.961,-110.821"/>
<polygon fill="black" stroke="black" points="82.9028,-107.908 72.7033,-105.041 78.8886,-113.643 82.9028,-107.908"/>
</g>
<!-- Value0: 0 -->
<g id="node20" class="node"><title>Value0: 0</title>
<ellipse fill="none" stroke="black" cx="152.645" cy="-90" rx="45.4919" ry="18"/>
<text text-anchor="middle" x="152.645" y="-86.3" font-family="Times,serif" font-size="14.00">Value0: 0</text>
</g>
<!-- Load1&#45;&gt;Value0: 0 -->
<g id="edge20" class="edge"><title>Load1&#45;&gt;Value0: 0</title>
<path fill="none" stroke="black" d="M152.645,-143.697C152.645,-135.983 152.645,-126.712 152.645,-118.112"/>
<polygon fill="black" stroke="black" points="156.145,-118.104 152.645,-108.104 149.145,-118.104 156.145,-118.104"/>
</g>
<!-- NullExp0 -->
<g id="node14" class="node"><title>NullExp0</title>
<ellipse fill="none" stroke="black" cx="260.645" cy="-90" rx="44.6926" ry="18"/>
<text text-anchor="middle" x="260.645" y="-86.3" font-family="Times,serif" font-size="14.00">NullExp0</text>
</g>
<!-- AddConst0&#45;&gt;NullExp0 -->
<g id="edge11" class="edge"><title>AddConst0&#45;&gt;NullExp0</title>
<path fill="none" stroke="black" d="M260.645,-143.697C260.645,-135.983 260.645,-126.712 260.645,-118.112"/>
<polygon fill="black" stroke="black" points="264.145,-118.104 260.645,-108.104 257.145,-118.104 264.145,-118.104"/>
</g>
<!-- Value1: 8 -->
<g id="node15" class="node"><title>Value1: 8</title>
<ellipse fill="none" stroke="black" cx="368.645" cy="-90" rx="45.4919" ry="18"/>
<text text-anchor="middle" x="368.645" y="-86.3" font-family="Times,serif" font-size="14.00">Value1: 8</text>
</g>
<!-- AddConst0&#45;&gt;Value1: 8 -->
<g id="edge12" class="edge"><title>AddConst0&#45;&gt;Value1: 8</title>
<path fill="none" stroke="black" d="M283.814,-145.983C299.437,-135.857 320.238,-122.375 337.332,-111.296"/>
<polygon fill="black" stroke="black" points="339.398,-114.128 345.886,-105.752 335.59,-108.254 339.398,-114.128"/>
</g>
<!-- Load2 -->
<g id="node16" class="node"><title>Load2</title>
<ellipse fill="none" stroke="black" cx="512.645" cy="-306" rx="33.2948" ry="18"/>
<text text-anchor="middle" x="512.645" y="-302.3" font-family="Times,serif" font-size="14.00">Load2</text>
</g>
<!-- Load2&#45;&gt;Add1 -->
<g id="edge13" class="edge"><title>Load2&#45;&gt;Add1</title>
<path fill="none" stroke="black" d="M509.498,-288.055C508.067,-280.346 506.336,-271.027 504.727,-262.364"/>
<polygon fill="black" stroke="black" points="508.121,-261.468 502.854,-252.275 501.238,-262.746 508.121,-261.468"/>
</g>
<!-- Value5: 0 -->
<g id="node17" class="node"><title>Value5: 0</title>
<ellipse fill="none" stroke="black" cx="593.645" cy="-234" rx="45.4919" ry="18"/>
<text text-anchor="middle" x="593.645" y="-230.3" font-family="Times,serif" font-size="14.00">Value5: 0</text>
</g>
<!-- Load2&#45;&gt;Value5: 0 -->
<g id="edge14" class="edge"><title>Load2&#45;&gt;Value5: 0</title>
<path fill="none" stroke="black" d="M529.823,-290.155C540.871,-280.608 555.43,-268.025 567.853,-257.29"/>
<polygon fill="black" stroke="black" points="570.372,-259.738 575.65,-250.552 565.795,-254.442 570.372,-259.738"/>
</g>
<!-- Store0 -->
<g id="node18" class="node"><title>Store0</title>
<ellipse fill="none" stroke="black" cx="415.645" cy="-378" rx="33.5952" ry="18"/>
<text text-anchor="middle" x="415.645" y="-374.3" font-family="Times,serif" font-size="14.00">Store0</text>
</g>
<!-- Store0&#45;&gt;Load0 -->
<g id="edge15" class="edge"><title>Store0&#45;&gt;Load0</title>
<path fill="none" stroke="black" d="M396.481,-363.17C382.133,-352.816 362.298,-338.502 346.242,-326.915"/>
<polygon fill="black" stroke="black" points="347.927,-323.815 337.77,-320.801 343.83,-329.491 347.927,-323.815"/>
</g>
<!-- Store0&#45;&gt;Load2 -->
<g id="edge17" class="edge"><title>Store0&#45;&gt;Load2</title>
<path fill="none" stroke="black" d="M434.809,-363.17C449.158,-352.816 468.993,-338.502 485.049,-326.915"/>
<polygon fill="black" stroke="black" points="487.46,-329.491 493.521,-320.801 483.364,-323.815 487.46,-329.491"/>
</g>
<!-- Value3: 8 -->
<g id="node19" class="node"><title>Value3: 8</title>
<ellipse fill="none" stroke="black" cx="415.645" cy="-306" rx="45.4919" ry="18"/>
<text text-anchor="middle" x="415.645" y="-302.3" font-family="Times,serif" font-size="14.00">Value3: 8</text>
</g>
<!-- Store0&#45;&gt;Value3: 8 -->
<g id="edge16" class="edge"><title>Store0&#45;&gt;Value3: 8</title>
<path fill="none" stroke="black" d="M409.767,-360.055C408.949,-352.346 408.707,-343.027 409.04,-334.364"/>
<polygon fill="black" stroke="black" points="412.54,-334.491 409.733,-324.275 405.556,-334.012 412.54,-334.491"/>
</g>
<!-- Store0&#45;&gt;Value3: 8 -->
<g id="edge18" class="edge"><title>Store0&#45;&gt;Value3: 8</title>
<path fill="none" stroke="black" d="M421.524,-360.055C422.342,-352.346 422.584,-343.027 422.25,-334.364"/>
<polygon fill="black" stroke="black" points="425.735,-334.012 421.558,-324.275 418.751,-334.491 425.735,-334.012"/>
</g>
</g>
</svg>
