<?xml version="1.0" encoding="UTF-8" standalone="no"?>
<!DOCTYPE svg PUBLIC "-//W3C//DTD SVG 1.1//EN"
 "http://www.w3.org/Graphics/SVG/1.1/DTD/svg11.dtd">
<!-- Generated by graphviz version 2.38.0 (20140413.2041)
 -->
<!-- Title: %3 Pages: 1 -->
<svg width="764pt" height="476pt"
 viewBox="0.00 0.00 764.39 476.00" xmlns="http://www.w3.org/2000/svg" xmlns:xlink="http://www.w3.org/1999/xlink">
<g id="graph0" class="graph" transform="scale(1 1) rotate(0) translate(4 472)">
<title>%3</title>
<polygon fill="white" stroke="none" points="-4,4 -4,-472 760.389,-472 760.389,4 -4,4"/>
<!-- ExpConst1 -->
<g id="node1" class="node"><title>ExpConst1</title>
<ellipse fill="none" stroke="black" cx="706.343" cy="-90" rx="50.0912" ry="18"/>
<text text-anchor="middle" x="706.343" y="-86.3" font-family="Times,serif" font-size="14.00">ExpConst1</text>
</g>
<!-- Value1: 8 -->
<g id="node2" class="node"><title>Value1: 8</title>
<ellipse fill="none" stroke="black" cx="706.343" cy="-18" rx="45.4919" ry="18"/>
<text text-anchor="middle" x="706.343" y="-14.3" font-family="Times,serif" font-size="14.00">Value1: 8</text>
</g>
<!-- ExpConst1&#45;&gt;Value1: 8 -->
<g id="edge1" class="edge"><title>ExpConst1&#45;&gt;Value1: 8</title>
<path fill="none" stroke="black" d="M706.343,-71.6966C706.343,-63.9827 706.343,-54.7125 706.343,-46.1124"/>
<polygon fill="black" stroke="black" points="709.843,-46.1043 706.343,-36.1043 702.843,-46.1044 709.843,-46.1043"/>
</g>
<!-- ExpBinary2 -->
<g id="node3" class="node"><title>ExpBinary2</title>
<ellipse fill="none" stroke="black" cx="557.343" cy="-162" rx="53.0913" ry="18"/>
<text text-anchor="middle" x="557.343" y="-158.3" font-family="Times,serif" font-size="14.00">ExpBinary2</text>
</g>
<!-- ExpBinary2&#45;&gt;ExpConst1 -->
<g id="edge4" class="edge"><title>ExpBinary2&#45;&gt;ExpConst1</title>
<path fill="none" stroke="black" d="M587.137,-147.003C610.331,-136.106 642.699,-120.9 667.855,-109.082"/>
<polygon fill="black" stroke="black" points="669.546,-112.155 677.108,-104.734 666.569,-105.819 669.546,-112.155"/>
</g>
<!-- ExpTemp2 -->
<g id="node4" class="node"><title>ExpTemp2</title>
<ellipse fill="none" stroke="black" cx="508.343" cy="-90" rx="50.0912" ry="18"/>
<text text-anchor="middle" x="508.343" y="-86.3" font-family="Times,serif" font-size="14.00">ExpTemp2</text>
</g>
<!-- ExpBinary2&#45;&gt;ExpTemp2 -->
<g id="edge2" class="edge"><title>ExpBinary2&#45;&gt;ExpTemp2</title>
<path fill="none" stroke="black" d="M545.731,-144.411C539.837,-135.992 532.553,-125.585 525.984,-116.201"/>
<polygon fill="black" stroke="black" points="528.814,-114.141 520.212,-107.956 523.08,-118.156 528.814,-114.141"/>
</g>
<!-- Plus2 -->
<g id="node5" class="node"><title>Plus2</title>
<ellipse fill="none" stroke="black" cx="607.343" cy="-90" rx="30.5947" ry="18"/>
<text text-anchor="middle" x="607.343" y="-86.3" font-family="Times,serif" font-size="14.00">Plus2</text>
</g>
<!-- ExpBinary2&#45;&gt;Plus2 -->
<g id="edge3" class="edge"><title>ExpBinary2&#45;&gt;Plus2</title>
<path fill="none" stroke="black" d="M569.192,-144.411C575.383,-135.744 583.078,-124.971 589.932,-115.375"/>
<polygon fill="black" stroke="black" points="592.959,-117.16 595.923,-106.988 587.263,-113.091 592.959,-117.16"/>
</g>
<!-- Temp2: $fp -->
<g id="node18" class="node"><title>Temp2: $fp</title>
<ellipse fill="none" stroke="black" cx="508.343" cy="-18" rx="52.7911" ry="18"/>
<text text-anchor="middle" x="508.343" y="-14.3" font-family="Times,serif" font-size="14.00">Temp2: $fp</text>
</g>
<!-- ExpTemp2&#45;&gt;Temp2: $fp -->
<g id="edge16" class="edge"><title>ExpTemp2&#45;&gt;Temp2: $fp</title>
<path fill="none" stroke="black" d="M508.343,-71.6966C508.343,-63.9827 508.343,-54.7125 508.343,-46.1124"/>
<polygon fill="black" stroke="black" points="511.843,-46.1043 508.343,-36.1043 504.843,-46.1044 511.843,-46.1043"/>
</g>
<!-- StatMove0 -->
<g id="node6" class="node"><title>StatMove0</title>
<ellipse fill="none" stroke="black" cx="222.343" cy="-378" rx="50.0912" ry="18"/>
<text text-anchor="middle" x="222.343" y="-374.3" font-family="Times,serif" font-size="14.00">StatMove0</text>
</g>
<!-- ExpTemp0 -->
<g id="node7" class="node"><title>ExpTemp0</title>
<ellipse fill="none" stroke="black" cx="222.343" cy="-306" rx="50.0912" ry="18"/>
<text text-anchor="middle" x="222.343" y="-302.3" font-family="Times,serif" font-size="14.00">ExpTemp0</text>
</g>
<!-- StatMove0&#45;&gt;ExpTemp0 -->
<g id="edge5" class="edge"><title>StatMove0&#45;&gt;ExpTemp0</title>
<path fill="none" stroke="black" d="M222.343,-359.697C222.343,-351.983 222.343,-342.712 222.343,-334.112"/>
<polygon fill="black" stroke="black" points="225.843,-334.104 222.343,-324.104 218.843,-334.104 225.843,-334.104"/>
</g>
<!-- ExpBinary0 -->
<g id="node8" class="node"><title>ExpBinary0</title>
<ellipse fill="none" stroke="black" cx="390.343" cy="-306" rx="53.0913" ry="18"/>
<text text-anchor="middle" x="390.343" y="-302.3" font-family="Times,serif" font-size="14.00">ExpBinary0</text>
</g>
<!-- StatMove0&#45;&gt;ExpBinary0 -->
<g id="edge6" class="edge"><title>StatMove0&#45;&gt;ExpBinary0</title>
<path fill="none" stroke="black" d="M253.943,-363.834C280.672,-352.696 319.187,-336.649 348.478,-324.444"/>
<polygon fill="black" stroke="black" points="350.143,-327.542 358.027,-320.465 347.45,-321.08 350.143,-327.542"/>
</g>
<!-- Temp0: $rv -->
<g id="node12" class="node"><title>Temp0: $rv</title>
<ellipse fill="none" stroke="black" cx="198.343" cy="-234" rx="52.7911" ry="18"/>
<text text-anchor="middle" x="198.343" y="-230.3" font-family="Times,serif" font-size="14.00">Temp0: $rv</text>
</g>
<!-- ExpTemp0&#45;&gt;Temp0: $rv -->
<g id="edge10" class="edge"><title>ExpTemp0&#45;&gt;Temp0: $rv</title>
<path fill="none" stroke="black" d="M216.533,-288.055C213.832,-280.176 210.555,-270.617 207.53,-261.794"/>
<polygon fill="black" stroke="black" points="210.82,-260.6 204.266,-252.275 204.199,-262.87 210.82,-260.6"/>
</g>
<!-- ExpMem0 -->
<g id="node9" class="node"><title>ExpMem0</title>
<ellipse fill="none" stroke="black" cx="317.343" cy="-234" rx="48.9926" ry="18"/>
<text text-anchor="middle" x="317.343" y="-230.3" font-family="Times,serif" font-size="14.00">ExpMem0</text>
</g>
<!-- ExpBinary0&#45;&gt;ExpMem0 -->
<g id="edge7" class="edge"><title>ExpBinary0&#45;&gt;ExpMem0</title>
<path fill="none" stroke="black" d="M373.412,-288.765C363.922,-279.665 351.926,-268.162 341.468,-258.134"/>
<polygon fill="black" stroke="black" points="343.823,-255.542 334.182,-251.147 338.978,-260.595 343.823,-255.542"/>
</g>
<!-- Plus1 -->
<g id="node10" class="node"><title>Plus1</title>
<ellipse fill="none" stroke="black" cx="414.343" cy="-234" rx="30.5947" ry="18"/>
<text text-anchor="middle" x="414.343" y="-230.3" font-family="Times,serif" font-size="14.00">Plus1</text>
</g>
<!-- ExpBinary0&#45;&gt;Plus1 -->
<g id="edge8" class="edge"><title>ExpBinary0&#45;&gt;Plus1</title>
<path fill="none" stroke="black" d="M396.153,-288.055C398.894,-280.059 402.23,-270.331 405.292,-261.4"/>
<polygon fill="black" stroke="black" points="408.654,-262.384 408.587,-251.789 402.033,-260.113 408.654,-262.384"/>
</g>
<!-- ExpMem1 -->
<g id="node11" class="node"><title>ExpMem1</title>
<ellipse fill="none" stroke="black" cx="527.343" cy="-234" rx="48.9926" ry="18"/>
<text text-anchor="middle" x="527.343" y="-230.3" font-family="Times,serif" font-size="14.00">ExpMem1</text>
</g>
<!-- ExpBinary0&#45;&gt;ExpMem1 -->
<g id="edge9" class="edge"><title>ExpBinary0&#45;&gt;ExpMem1</title>
<path fill="none" stroke="black" d="M418.398,-290.666C439.314,-279.978 468.069,-265.286 490.785,-253.679"/>
<polygon fill="black" stroke="black" points="492.482,-256.743 499.794,-249.076 489.297,-250.509 492.482,-256.743"/>
</g>
<!-- ExpBinary1 -->
<g id="node21" class="node"><title>ExpBinary1</title>
<ellipse fill="none" stroke="black" cx="306.343" cy="-162" rx="53.0913" ry="18"/>
<text text-anchor="middle" x="306.343" y="-158.3" font-family="Times,serif" font-size="14.00">ExpBinary1</text>
</g>
<!-- ExpMem0&#45;&gt;ExpBinary1 -->
<g id="edge21" class="edge"><title>ExpMem0&#45;&gt;ExpBinary1</title>
<path fill="none" stroke="black" d="M314.624,-215.697C313.412,-207.983 311.955,-198.712 310.604,-190.112"/>
<polygon fill="black" stroke="black" points="314.041,-189.44 309.031,-180.104 307.126,-190.526 314.041,-189.44"/>
</g>
<!-- ExpMem1&#45;&gt;ExpBinary2 -->
<g id="edge14" class="edge"><title>ExpMem1&#45;&gt;ExpBinary2</title>
<path fill="none" stroke="black" d="M534.605,-216.055C538.018,-208.091 542.167,-198.411 545.982,-189.51"/>
<polygon fill="black" stroke="black" points="549.217,-190.845 549.939,-180.275 542.783,-188.088 549.217,-190.845"/>
</g>
<!-- StatList0 -->
<g id="node13" class="node"><title>StatList0</title>
<ellipse fill="none" stroke="black" cx="156.343" cy="-450" rx="42.4939" ry="18"/>
<text text-anchor="middle" x="156.343" y="-446.3" font-family="Times,serif" font-size="14.00">StatList0</text>
</g>
<!-- StatList0&#45;&gt;StatMove0 -->
<g id="edge12" class="edge"><title>StatList0&#45;&gt;StatMove0</title>
<path fill="none" stroke="black" d="M171.32,-433.116C179.806,-424.116 190.585,-412.682 200.048,-402.646"/>
<polygon fill="black" stroke="black" points="202.654,-404.984 206.968,-395.307 197.561,-400.182 202.654,-404.984"/>
</g>
<!-- StatLabel0 -->
<g id="node14" class="node"><title>StatLabel0</title>
<ellipse fill="none" stroke="black" cx="91.3431" cy="-378" rx="48.9926" ry="18"/>
<text text-anchor="middle" x="91.3431" y="-374.3" font-family="Times,serif" font-size="14.00">StatLabel0</text>
</g>
<!-- StatList0&#45;&gt;StatLabel0 -->
<g id="edge11" class="edge"><title>StatList0&#45;&gt;StatLabel0</title>
<path fill="none" stroke="black" d="M141.594,-433.116C133.236,-424.116 122.62,-412.682 113.3,-402.646"/>
<polygon fill="black" stroke="black" points="115.855,-400.253 106.485,-395.307 110.725,-405.017 115.855,-400.253"/>
</g>
<!-- Label0: Fac@Sum -->
<g id="node15" class="node"><title>Label0: Fac@Sum</title>
<ellipse fill="none" stroke="black" cx="77.3431" cy="-306" rx="77.1866" ry="18"/>
<text text-anchor="middle" x="77.3431" y="-302.3" font-family="Times,serif" font-size="14.00">Label0: Fac@Sum</text>
</g>
<!-- StatLabel0&#45;&gt;Label0: Fac@Sum -->
<g id="edge13" class="edge"><title>StatLabel0&#45;&gt;Label0: Fac@Sum</title>
<path fill="none" stroke="black" d="M87.8825,-359.697C86.3397,-351.983 84.4856,-342.712 82.7656,-334.112"/>
<polygon fill="black" stroke="black" points="86.1573,-333.224 80.764,-324.104 79.2932,-334.597 86.1573,-333.224"/>
</g>
<!-- ExpConst0 -->
<g id="node16" class="node"><title>ExpConst0</title>
<ellipse fill="none" stroke="black" cx="390.343" cy="-90" rx="50.0912" ry="18"/>
<text text-anchor="middle" x="390.343" y="-86.3" font-family="Times,serif" font-size="14.00">ExpConst0</text>
</g>
<!-- Value0: 4 -->
<g id="node17" class="node"><title>Value0: 4</title>
<ellipse fill="none" stroke="black" cx="390.343" cy="-18" rx="45.4919" ry="18"/>
<text text-anchor="middle" x="390.343" y="-14.3" font-family="Times,serif" font-size="14.00">Value0: 4</text>
</g>
<!-- ExpConst0&#45;&gt;Value0: 4 -->
<g id="edge15" class="edge"><title>ExpConst0&#45;&gt;Value0: 4</title>
<path fill="none" stroke="black" d="M390.343,-71.6966C390.343,-63.9827 390.343,-54.7125 390.343,-46.1124"/>
<polygon fill="black" stroke="black" points="393.843,-46.1043 390.343,-36.1043 386.843,-46.1044 393.843,-46.1043"/>
</g>
<!-- ExpTemp1 -->
<g id="node19" class="node"><title>ExpTemp1</title>
<ellipse fill="none" stroke="black" cx="192.343" cy="-90" rx="50.0912" ry="18"/>
<text text-anchor="middle" x="192.343" y="-86.3" font-family="Times,serif" font-size="14.00">ExpTemp1</text>
</g>
<!-- Temp1: $fp -->
<g id="node20" class="node"><title>Temp1: $fp</title>
<ellipse fill="none" stroke="black" cx="192.343" cy="-18" rx="52.7911" ry="18"/>
<text text-anchor="middle" x="192.343" y="-14.3" font-family="Times,serif" font-size="14.00">Temp1: $fp</text>
</g>
<!-- ExpTemp1&#45;&gt;Temp1: $fp -->
<g id="edge17" class="edge"><title>ExpTemp1&#45;&gt;Temp1: $fp</title>
<path fill="none" stroke="black" d="M192.343,-71.6966C192.343,-63.9827 192.343,-54.7125 192.343,-46.1124"/>
<polygon fill="black" stroke="black" points="195.843,-46.1043 192.343,-36.1043 188.843,-46.1044 195.843,-46.1043"/>
</g>
<!-- ExpBinary1&#45;&gt;ExpConst0 -->
<g id="edge20" class="edge"><title>ExpBinary1&#45;&gt;ExpConst0</title>
<path fill="none" stroke="black" d="M325.404,-145.116C336.681,-135.718 351.141,-123.669 363.552,-113.326"/>
<polygon fill="black" stroke="black" points="365.916,-115.912 371.358,-106.821 361.435,-110.534 365.916,-115.912"/>
</g>
<!-- ExpBinary1&#45;&gt;ExpTemp1 -->
<g id="edge18" class="edge"><title>ExpBinary1&#45;&gt;ExpTemp1</title>
<path fill="none" stroke="black" d="M281.887,-145.983C265.508,-135.926 243.737,-122.557 225.763,-111.521"/>
<polygon fill="black" stroke="black" points="227.112,-108.242 216.759,-105.992 223.449,-114.207 227.112,-108.242"/>
</g>
<!-- Plus0 -->
<g id="node22" class="node"><title>Plus0</title>
<ellipse fill="none" stroke="black" cx="291.343" cy="-90" rx="30.5947" ry="18"/>
<text text-anchor="middle" x="291.343" y="-86.3" font-family="Times,serif" font-size="14.00">Plus0</text>
</g>
<!-- ExpBinary1&#45;&gt;Plus0 -->
<g id="edge19" class="edge"><title>ExpBinary1&#45;&gt;Plus0</title>
<path fill="none" stroke="black" d="M302.635,-143.697C300.982,-135.983 298.996,-126.712 297.153,-118.112"/>
<polygon fill="black" stroke="black" points="300.526,-117.149 295.008,-108.104 293.681,-118.616 300.526,-117.149"/>
</g>
</g>
</svg>
