<?xml version="1.0" encoding="UTF-8" standalone="no"?>
<!DOCTYPE svg PUBLIC "-//W3C//DTD SVG 1.1//EN"
 "http://www.w3.org/Graphics/SVG/1.1/DTD/svg11.dtd">
<!-- Generated by graphviz version 2.38.0 (20140413.2041)
 -->
<!-- Title: %3 Pages: 1 -->
<svg width="587pt" height="476pt"
 viewBox="0.00 0.00 586.63 476.00" xmlns="http://www.w3.org/2000/svg" xmlns:xlink="http://www.w3.org/1999/xlink">
<g id="graph0" class="graph" transform="scale(1 1) rotate(0) translate(4 472)">
<title>%3</title>
<polygon fill="white" stroke="none" points="-4,4 -4,-472 582.635,-472 582.635,4 -4,4"/>
<!-- ExpMem0 -->
<g id="node1" class="node"><title>ExpMem0</title>
<ellipse fill="none" stroke="black" cx="427.589" cy="-306" rx="48.9926" ry="18"/>
<text text-anchor="middle" x="427.589" y="-302.3" font-family="Times,serif" font-size="14.00">ExpMem0</text>
</g>
<!-- ExpBinary0 -->
<g id="node2" class="node"><title>ExpBinary0</title>
<ellipse fill="none" stroke="black" cx="429.589" cy="-234" rx="53.0913" ry="18"/>
<text text-anchor="middle" x="429.589" y="-230.3" font-family="Times,serif" font-size="14.00">ExpBinary0</text>
</g>
<!-- ExpMem0&#45;&gt;ExpBinary0 -->
<g id="edge1" class="edge"><title>ExpMem0&#45;&gt;ExpBinary0</title>
<path fill="none" stroke="black" d="M428.084,-287.697C428.304,-279.983 428.569,-270.712 428.815,-262.112"/>
<polygon fill="black" stroke="black" points="432.314,-262.2 429.101,-252.104 425.316,-262 432.314,-262.2"/>
</g>
<!-- ExpMem1 -->
<g id="node3" class="node"><title>ExpMem1</title>
<ellipse fill="none" stroke="black" cx="332.589" cy="-162" rx="48.9926" ry="18"/>
<text text-anchor="middle" x="332.589" y="-158.3" font-family="Times,serif" font-size="14.00">ExpMem1</text>
</g>
<!-- ExpBinary0&#45;&gt;ExpMem1 -->
<g id="edge9" class="edge"><title>ExpBinary0&#45;&gt;ExpMem1</title>
<path fill="none" stroke="black" d="M408.062,-217.465C394.531,-207.7 376.894,-194.972 362.072,-184.276"/>
<polygon fill="black" stroke="black" points="363.88,-181.265 353.723,-178.251 359.784,-186.941 363.88,-181.265"/>
</g>
<!-- ExpConst0 -->
<g id="node6" class="node"><title>ExpConst0</title>
<ellipse fill="none" stroke="black" cx="528.589" cy="-162" rx="50.0912" ry="18"/>
<text text-anchor="middle" x="528.589" y="-158.3" font-family="Times,serif" font-size="14.00">ExpConst0</text>
</g>
<!-- ExpBinary0&#45;&gt;ExpConst0 -->
<g id="edge11" class="edge"><title>ExpBinary0&#45;&gt;ExpConst0</title>
<path fill="none" stroke="black" d="M451.561,-217.465C465.37,-207.7 483.371,-194.972 498.499,-184.276"/>
<polygon fill="black" stroke="black" points="500.876,-186.882 507.02,-178.251 496.834,-181.167 500.876,-186.882"/>
</g>
<!-- Plus0 -->
<g id="node14" class="node"><title>Plus0</title>
<ellipse fill="none" stroke="black" cx="429.589" cy="-162" rx="30.5947" ry="18"/>
<text text-anchor="middle" x="429.589" y="-158.3" font-family="Times,serif" font-size="14.00">Plus0</text>
</g>
<!-- ExpBinary0&#45;&gt;Plus0 -->
<g id="edge10" class="edge"><title>ExpBinary0&#45;&gt;Plus0</title>
<path fill="none" stroke="black" d="M429.589,-215.697C429.589,-207.983 429.589,-198.712 429.589,-190.112"/>
<polygon fill="black" stroke="black" points="433.089,-190.104 429.589,-180.104 426.089,-190.104 433.089,-190.104"/>
</g>
<!-- ExpTemp1 -->
<g id="node4" class="node"><title>ExpTemp1</title>
<ellipse fill="none" stroke="black" cx="332.589" cy="-90" rx="50.0912" ry="18"/>
<text text-anchor="middle" x="332.589" y="-86.3" font-family="Times,serif" font-size="14.00">ExpTemp1</text>
</g>
<!-- ExpMem1&#45;&gt;ExpTemp1 -->
<g id="edge2" class="edge"><title>ExpMem1&#45;&gt;ExpTemp1</title>
<path fill="none" stroke="black" d="M332.589,-143.697C332.589,-135.983 332.589,-126.712 332.589,-118.112"/>
<polygon fill="black" stroke="black" points="336.089,-118.104 332.589,-108.104 329.089,-118.104 336.089,-118.104"/>
</g>
<!-- Temp1: $fp -->
<g id="node5" class="node"><title>Temp1: $fp</title>
<ellipse fill="none" stroke="black" cx="332.589" cy="-18" rx="52.7911" ry="18"/>
<text text-anchor="middle" x="332.589" y="-14.3" font-family="Times,serif" font-size="14.00">Temp1: $fp</text>
</g>
<!-- ExpTemp1&#45;&gt;Temp1: $fp -->
<g id="edge3" class="edge"><title>ExpTemp1&#45;&gt;Temp1: $fp</title>
<path fill="none" stroke="black" d="M332.589,-71.6966C332.589,-63.9827 332.589,-54.7125 332.589,-46.1124"/>
<polygon fill="black" stroke="black" points="336.089,-46.1043 332.589,-36.1043 329.089,-46.1044 336.089,-46.1043"/>
</g>
<!-- Value0: 4 -->
<g id="node7" class="node"><title>Value0: 4</title>
<ellipse fill="none" stroke="black" cx="528.589" cy="-90" rx="45.4919" ry="18"/>
<text text-anchor="middle" x="528.589" y="-86.3" font-family="Times,serif" font-size="14.00">Value0: 4</text>
</g>
<!-- ExpConst0&#45;&gt;Value0: 4 -->
<g id="edge4" class="edge"><title>ExpConst0&#45;&gt;Value0: 4</title>
<path fill="none" stroke="black" d="M528.589,-143.697C528.589,-135.983 528.589,-126.712 528.589,-118.112"/>
<polygon fill="black" stroke="black" points="532.089,-118.104 528.589,-108.104 525.089,-118.104 532.089,-118.104"/>
</g>
<!-- StatLabel0 -->
<g id="node8" class="node"><title>StatLabel0</title>
<ellipse fill="none" stroke="black" cx="155.589" cy="-378" rx="48.9926" ry="18"/>
<text text-anchor="middle" x="155.589" y="-374.3" font-family="Times,serif" font-size="14.00">StatLabel0</text>
</g>
<!-- Label0: Element@GetMarried -->
<g id="node9" class="node"><title>Label0: Element@GetMarried</title>
<ellipse fill="none" stroke="black" cx="119.589" cy="-306" rx="119.679" ry="18"/>
<text text-anchor="middle" x="119.589" y="-302.3" font-family="Times,serif" font-size="14.00">Label0: Element@GetMarried</text>
</g>
<!-- StatLabel0&#45;&gt;Label0: Element@GetMarried -->
<g id="edge5" class="edge"><title>StatLabel0&#45;&gt;Label0: Element@GetMarried</title>
<path fill="none" stroke="black" d="M146.875,-360.055C142.736,-352.007 137.695,-342.205 133.077,-333.226"/>
<polygon fill="black" stroke="black" points="136.16,-331.567 128.474,-324.275 129.935,-334.769 136.16,-331.567"/>
</g>
<!-- StatList0 -->
<g id="node10" class="node"><title>StatList0</title>
<ellipse fill="none" stroke="black" cx="231.589" cy="-450" rx="42.4939" ry="18"/>
<text text-anchor="middle" x="231.589" y="-446.3" font-family="Times,serif" font-size="14.00">StatList0</text>
</g>
<!-- StatList0&#45;&gt;StatLabel0 -->
<g id="edge6" class="edge"><title>StatList0&#45;&gt;StatLabel0</title>
<path fill="none" stroke="black" d="M214.723,-433.465C204.632,-424.17 191.625,-412.191 180.381,-401.835"/>
<polygon fill="black" stroke="black" points="182.663,-399.178 172.936,-394.977 177.92,-404.326 182.663,-399.178"/>
</g>
<!-- StatMove0 -->
<g id="node11" class="node"><title>StatMove0</title>
<ellipse fill="none" stroke="black" cx="307.589" cy="-378" rx="50.0912" ry="18"/>
<text text-anchor="middle" x="307.589" y="-374.3" font-family="Times,serif" font-size="14.00">StatMove0</text>
</g>
<!-- StatList0&#45;&gt;StatMove0 -->
<g id="edge7" class="edge"><title>StatList0&#45;&gt;StatMove0</title>
<path fill="none" stroke="black" d="M248.456,-433.465C258.547,-424.17 271.553,-412.191 282.797,-401.835"/>
<polygon fill="black" stroke="black" points="285.258,-404.326 290.243,-394.977 280.516,-399.178 285.258,-404.326"/>
</g>
<!-- StatMove0&#45;&gt;ExpMem0 -->
<g id="edge13" class="edge"><title>StatMove0&#45;&gt;ExpMem0</title>
<path fill="none" stroke="black" d="M332.745,-362.326C350.426,-352.012 374.283,-338.095 393.647,-326.8"/>
<polygon fill="black" stroke="black" points="395.592,-329.717 402.467,-321.655 392.065,-323.671 395.592,-329.717"/>
</g>
<!-- ExpTemp0 -->
<g id="node12" class="node"><title>ExpTemp0</title>
<ellipse fill="none" stroke="black" cx="307.589" cy="-306" rx="50.0912" ry="18"/>
<text text-anchor="middle" x="307.589" y="-302.3" font-family="Times,serif" font-size="14.00">ExpTemp0</text>
</g>
<!-- StatMove0&#45;&gt;ExpTemp0 -->
<g id="edge12" class="edge"><title>StatMove0&#45;&gt;ExpTemp0</title>
<path fill="none" stroke="black" d="M307.589,-359.697C307.589,-351.983 307.589,-342.712 307.589,-334.112"/>
<polygon fill="black" stroke="black" points="311.089,-334.104 307.589,-324.104 304.089,-334.104 311.089,-334.104"/>
</g>
<!-- Temp0: $rv -->
<g id="node13" class="node"><title>Temp0: $rv</title>
<ellipse fill="none" stroke="black" cx="305.589" cy="-234" rx="52.7911" ry="18"/>
<text text-anchor="middle" x="305.589" y="-230.3" font-family="Times,serif" font-size="14.00">Temp0: $rv</text>
</g>
<!-- ExpTemp0&#45;&gt;Temp0: $rv -->
<g id="edge8" class="edge"><title>ExpTemp0&#45;&gt;Temp0: $rv</title>
<path fill="none" stroke="black" d="M307.095,-287.697C306.875,-279.983 306.61,-270.712 306.364,-262.112"/>
<polygon fill="black" stroke="black" points="309.862,-262 306.078,-252.104 302.865,-262.2 309.862,-262"/>
</g>
</g>
</svg>
