<?xml version="1.0" encoding="UTF-8" standalone="no"?>
<!DOCTYPE svg PUBLIC "-//W3C//DTD SVG 1.1//EN"
 "http://www.w3.org/Graphics/SVG/1.1/DTD/svg11.dtd">
<!-- Generated by graphviz version 2.38.0 (20140413.2041)
 -->
<!-- Title: %3 Pages: 1 -->
<svg width="461pt" height="260pt"
 viewBox="0.00 0.00 461.49 260.00" xmlns="http://www.w3.org/2000/svg" xmlns:xlink="http://www.w3.org/1999/xlink">
<g id="graph0" class="graph" transform="scale(1 1) rotate(0) translate(4 256)">
<title>%3</title>
<polygon fill="white" stroke="none" points="-4,4 -4,-256 457.49,-256 457.49,4 -4,4"/>
<!-- Call0 -->
<g id="node1" class="node"><title>Call0</title>
<ellipse fill="none" stroke="black" cx="236.245" cy="-162" rx="29.795" ry="18"/>
<text text-anchor="middle" x="236.245" y="-158.3" font-family="Times,serif" font-size="14.00">Call0</text>
</g>
<!-- Function0: Tree@GetRight -->
<g id="node2" class="node"><title>Function0: Tree@GetRight</title>
<ellipse fill="none" stroke="black" cx="236.245" cy="-90" rx="107.781" ry="18"/>
<text text-anchor="middle" x="236.245" y="-86.3" font-family="Times,serif" font-size="14.00">Function0: Tree@GetRight</text>
</g>
<!-- Call0&#45;&gt;Function0: Tree@GetRight -->
<g id="edge1" class="edge"><title>Call0&#45;&gt;Function0: Tree@GetRight</title>
<path fill="none" stroke="black" d="M236.245,-143.697C236.245,-135.983 236.245,-126.712 236.245,-118.112"/>
<polygon fill="black" stroke="black" points="239.745,-118.104 236.245,-108.104 232.745,-118.104 239.745,-118.104"/>
</g>
<!-- Temp2 -->
<g id="node3" class="node"><title>Temp2</title>
<ellipse fill="none" stroke="black" cx="398.245" cy="-90" rx="36.2938" ry="18"/>
<text text-anchor="middle" x="398.245" y="-86.3" font-family="Times,serif" font-size="14.00">Temp2</text>
</g>
<!-- Call0&#45;&gt;Temp2 -->
<g id="edge2" class="edge"><title>Call0&#45;&gt;Temp2</title>
<path fill="none" stroke="black" d="M259.801,-150.821C286.761,-139.172 331.213,-119.964 362.459,-106.463"/>
<polygon fill="black" stroke="black" points="363.906,-109.651 371.697,-102.471 361.129,-103.225 363.906,-109.651"/>
</g>
<!-- Temp3: T93 -->
<g id="node6" class="node"><title>Temp3: T93</title>
<ellipse fill="none" stroke="black" cx="398.245" cy="-18" rx="55.4913" ry="18"/>
<text text-anchor="middle" x="398.245" y="-14.3" font-family="Times,serif" font-size="14.00">Temp3: T93</text>
</g>
<!-- Temp2&#45;&gt;Temp3: T93 -->
<g id="edge5" class="edge"><title>Temp2&#45;&gt;Temp3: T93</title>
<path fill="none" stroke="black" d="M398.245,-71.6966C398.245,-63.9827 398.245,-54.7125 398.245,-46.1124"/>
<polygon fill="black" stroke="black" points="401.745,-46.1043 398.245,-36.1043 394.745,-46.1044 401.745,-46.1043"/>
</g>
<!-- MoveRegister0 -->
<g id="node4" class="node"><title>MoveRegister0</title>
<ellipse fill="none" stroke="black" cx="170.245" cy="-234" rx="65.7887" ry="18"/>
<text text-anchor="middle" x="170.245" y="-230.3" font-family="Times,serif" font-size="14.00">MoveRegister0</text>
</g>
<!-- MoveRegister0&#45;&gt;Call0 -->
<g id="edge4" class="edge"><title>MoveRegister0&#45;&gt;Call0</title>
<path fill="none" stroke="black" d="M185.886,-216.411C194.635,-207.132 205.658,-195.441 215.16,-185.363"/>
<polygon fill="black" stroke="black" points="217.753,-187.715 222.066,-178.038 212.659,-182.913 217.753,-187.715"/>
</g>
<!-- Temp0 -->
<g id="node5" class="node"><title>Temp0</title>
<ellipse fill="none" stroke="black" cx="104.245" cy="-162" rx="36.2938" ry="18"/>
<text text-anchor="middle" x="104.245" y="-158.3" font-family="Times,serif" font-size="14.00">Temp0</text>
</g>
<!-- MoveRegister0&#45;&gt;Temp0 -->
<g id="edge3" class="edge"><title>MoveRegister0&#45;&gt;Temp0</title>
<path fill="none" stroke="black" d="M154.604,-216.411C146.062,-207.351 135.35,-195.99 126.004,-186.078"/>
<polygon fill="black" stroke="black" points="128.276,-183.386 118.87,-178.511 123.183,-188.188 128.276,-183.386"/>
</g>
<!-- Temp1: T94 -->
<g id="node7" class="node"><title>Temp1: T94</title>
<ellipse fill="none" stroke="black" cx="55.2451" cy="-90" rx="55.4913" ry="18"/>
<text text-anchor="middle" x="55.2451" y="-86.3" font-family="Times,serif" font-size="14.00">Temp1: T94</text>
</g>
<!-- Temp0&#45;&gt;Temp1: T94 -->
<g id="edge6" class="edge"><title>Temp0&#45;&gt;Temp1: T94</title>
<path fill="none" stroke="black" d="M92.8804,-144.765C86.9062,-136.23 79.4526,-125.582 72.7585,-116.019"/>
<polygon fill="black" stroke="black" points="75.4905,-113.819 66.8885,-107.633 69.7558,-117.833 75.4905,-113.819"/>
</g>
</g>
</svg>
