<?xml version="1.0" encoding="UTF-8" standalone="no"?>
<!DOCTYPE svg PUBLIC "-//W3C//DTD SVG 1.1//EN"
 "http://www.w3.org/Graphics/SVG/1.1/DTD/svg11.dtd">
<!-- Generated by graphviz version 2.38.0 (20140413.2041)
 -->
<!-- Title: %3 Pages: 1 -->
<svg width="1187pt" height="476pt"
 viewBox="0.00 0.00 1186.69 476.00" xmlns="http://www.w3.org/2000/svg" xmlns:xlink="http://www.w3.org/1999/xlink">
<g id="graph0" class="graph" transform="scale(1 1) rotate(0) translate(4 472)">
<title>%3</title>
<polygon fill="white" stroke="none" points="-4,4 -4,-472 1182.69,-472 1182.69,4 -4,4"/>
<!-- ExpBinary4 -->
<g id="node1" class="node"><title>ExpBinary4</title>
<ellipse fill="none" stroke="black" cx="882.645" cy="-306" rx="53.0913" ry="18"/>
<text text-anchor="middle" x="882.645" y="-302.3" font-family="Times,serif" font-size="14.00">ExpBinary4</text>
</g>
<!-- ExpMem3 -->
<g id="node2" class="node"><title>ExpMem3</title>
<ellipse fill="none" stroke="black" cx="882.645" cy="-234" rx="48.9926" ry="18"/>
<text text-anchor="middle" x="882.645" y="-230.3" font-family="Times,serif" font-size="14.00">ExpMem3</text>
</g>
<!-- ExpBinary4&#45;&gt;ExpMem3 -->
<g id="edge1" class="edge"><title>ExpBinary4&#45;&gt;ExpMem3</title>
<path fill="none" stroke="black" d="M882.645,-287.697C882.645,-279.983 882.645,-270.712 882.645,-262.112"/>
<polygon fill="black" stroke="black" points="886.145,-262.104 882.645,-252.104 879.145,-262.104 886.145,-262.104"/>
</g>
<!-- Plus5 -->
<g id="node3" class="node"><title>Plus5</title>
<ellipse fill="none" stroke="black" cx="979.645" cy="-234" rx="30.5947" ry="18"/>
<text text-anchor="middle" x="979.645" y="-230.3" font-family="Times,serif" font-size="14.00">Plus5</text>
</g>
<!-- ExpBinary4&#45;&gt;Plus5 -->
<g id="edge2" class="edge"><title>ExpBinary4&#45;&gt;Plus5</title>
<path fill="none" stroke="black" d="M904.173,-289.465C918.45,-279.162 937.299,-265.559 952.589,-254.525"/>
<polygon fill="black" stroke="black" points="955.058,-257.06 961.118,-248.37 950.961,-251.384 955.058,-257.06"/>
</g>
<!-- ExpConst5 -->
<g id="node4" class="node"><title>ExpConst5</title>
<ellipse fill="none" stroke="black" cx="1083.65" cy="-234" rx="50.0912" ry="18"/>
<text text-anchor="middle" x="1083.65" y="-230.3" font-family="Times,serif" font-size="14.00">ExpConst5</text>
</g>
<!-- ExpBinary4&#45;&gt;ExpConst5 -->
<g id="edge3" class="edge"><title>ExpBinary4&#45;&gt;ExpConst5</title>
<path fill="none" stroke="black" d="M918.58,-292.485C952.332,-280.731 1002.93,-263.109 1039.2,-250.477"/>
<polygon fill="black" stroke="black" points="1040.74,-253.649 1049.03,-247.055 1038.43,-247.039 1040.74,-253.649"/>
</g>
<!-- ExpBinary5 -->
<g id="node17" class="node"><title>ExpBinary5</title>
<ellipse fill="none" stroke="black" cx="972.645" cy="-162" rx="53.0913" ry="18"/>
<text text-anchor="middle" x="972.645" y="-158.3" font-family="Times,serif" font-size="14.00">ExpBinary5</text>
</g>
<!-- ExpMem3&#45;&gt;ExpBinary5 -->
<g id="edge15" class="edge"><title>ExpMem3&#45;&gt;ExpBinary5</title>
<path fill="none" stroke="black" d="M902.619,-217.465C914.885,-207.925 930.787,-195.557 944.337,-185.018"/>
<polygon fill="black" stroke="black" points="946.671,-187.636 952.416,-178.734 942.374,-182.111 946.671,-187.636"/>
</g>
<!-- Value5: 2 -->
<g id="node31" class="node"><title>Value5: 2</title>
<ellipse fill="none" stroke="black" cx="1089.65" cy="-162" rx="45.4919" ry="18"/>
<text text-anchor="middle" x="1089.65" y="-158.3" font-family="Times,serif" font-size="14.00">Value5: 2</text>
</g>
<!-- ExpConst5&#45;&gt;Value5: 2 -->
<g id="edge24" class="edge"><title>ExpConst5&#45;&gt;Value5: 2</title>
<path fill="none" stroke="black" d="M1085.13,-215.697C1085.79,-207.983 1086.58,-198.712 1087.32,-190.112"/>
<polygon fill="black" stroke="black" points="1090.81,-190.367 1088.18,-180.104 1083.84,-189.769 1090.81,-190.367"/>
</g>
<!-- ExpConst1 -->
<g id="node5" class="node"><title>ExpConst1</title>
<ellipse fill="none" stroke="black" cx="527.645" cy="-90" rx="50.0912" ry="18"/>
<text text-anchor="middle" x="527.645" y="-86.3" font-family="Times,serif" font-size="14.00">ExpConst1</text>
</g>
<!-- Value1: 20 -->
<g id="node6" class="node"><title>Value1: 20</title>
<ellipse fill="none" stroke="black" cx="527.645" cy="-18" rx="50.0912" ry="18"/>
<text text-anchor="middle" x="527.645" y="-14.3" font-family="Times,serif" font-size="14.00">Value1: 20</text>
</g>
<!-- ExpConst1&#45;&gt;Value1: 20 -->
<g id="edge4" class="edge"><title>ExpConst1&#45;&gt;Value1: 20</title>
<path fill="none" stroke="black" d="M527.645,-71.6966C527.645,-63.9827 527.645,-54.7125 527.645,-46.1124"/>
<polygon fill="black" stroke="black" points="531.145,-46.1043 527.645,-36.1043 524.145,-46.1044 531.145,-46.1043"/>
</g>
<!-- StatMove1 -->
<g id="node7" class="node"><title>StatMove1</title>
<ellipse fill="none" stroke="black" cx="752.645" cy="-378" rx="50.0912" ry="18"/>
<text text-anchor="middle" x="752.645" y="-374.3" font-family="Times,serif" font-size="14.00">StatMove1</text>
</g>
<!-- StatMove1&#45;&gt;ExpBinary4 -->
<g id="edge6" class="edge"><title>StatMove1&#45;&gt;ExpBinary4</title>
<path fill="none" stroke="black" d="M779.266,-362.666C798.679,-352.213 825.207,-337.929 846.529,-326.447"/>
<polygon fill="black" stroke="black" points="848.468,-329.379 855.613,-321.556 845.149,-323.215 848.468,-329.379"/>
</g>
<!-- ExpMem2 -->
<g id="node8" class="node"><title>ExpMem2</title>
<ellipse fill="none" stroke="black" cx="752.645" cy="-306" rx="48.9926" ry="18"/>
<text text-anchor="middle" x="752.645" y="-302.3" font-family="Times,serif" font-size="14.00">ExpMem2</text>
</g>
<!-- StatMove1&#45;&gt;ExpMem2 -->
<g id="edge5" class="edge"><title>StatMove1&#45;&gt;ExpMem2</title>
<path fill="none" stroke="black" d="M752.645,-359.697C752.645,-351.983 752.645,-342.712 752.645,-334.112"/>
<polygon fill="black" stroke="black" points="756.145,-334.104 752.645,-324.104 749.145,-334.104 756.145,-334.104"/>
</g>
<!-- ExpBinary3 -->
<g id="node32" class="node"><title>ExpBinary3</title>
<ellipse fill="none" stroke="black" cx="752.645" cy="-234" rx="53.0913" ry="18"/>
<text text-anchor="middle" x="752.645" y="-230.3" font-family="Times,serif" font-size="14.00">ExpBinary3</text>
</g>
<!-- ExpMem2&#45;&gt;ExpBinary3 -->
<g id="edge29" class="edge"><title>ExpMem2&#45;&gt;ExpBinary3</title>
<path fill="none" stroke="black" d="M752.645,-287.697C752.645,-279.983 752.645,-270.712 752.645,-262.112"/>
<polygon fill="black" stroke="black" points="756.145,-262.104 752.645,-252.104 749.145,-262.104 756.145,-262.104"/>
</g>
<!-- ExpTemp1 -->
<g id="node9" class="node"><title>ExpTemp1</title>
<ellipse fill="none" stroke="black" cx="329.645" cy="-90" rx="50.0912" ry="18"/>
<text text-anchor="middle" x="329.645" y="-86.3" font-family="Times,serif" font-size="14.00">ExpTemp1</text>
</g>
<!-- Temp1: $fp -->
<g id="node10" class="node"><title>Temp1: $fp</title>
<ellipse fill="none" stroke="black" cx="329.645" cy="-18" rx="52.7911" ry="18"/>
<text text-anchor="middle" x="329.645" y="-14.3" font-family="Times,serif" font-size="14.00">Temp1: $fp</text>
</g>
<!-- ExpTemp1&#45;&gt;Temp1: $fp -->
<g id="edge7" class="edge"><title>ExpTemp1&#45;&gt;Temp1: $fp</title>
<path fill="none" stroke="black" d="M329.645,-71.6966C329.645,-63.9827 329.645,-54.7125 329.645,-46.1124"/>
<polygon fill="black" stroke="black" points="333.145,-46.1043 329.645,-36.1043 326.145,-46.1044 333.145,-46.1043"/>
</g>
<!-- ExpMem0 -->
<g id="node11" class="node"><title>ExpMem0</title>
<ellipse fill="none" stroke="black" cx="449.645" cy="-306" rx="48.9926" ry="18"/>
<text text-anchor="middle" x="449.645" y="-302.3" font-family="Times,serif" font-size="14.00">ExpMem0</text>
</g>
<!-- ExpBinary0 -->
<g id="node12" class="node"><title>ExpBinary0</title>
<ellipse fill="none" stroke="black" cx="200.645" cy="-234" rx="53.0913" ry="18"/>
<text text-anchor="middle" x="200.645" y="-230.3" font-family="Times,serif" font-size="14.00">ExpBinary0</text>
</g>
<!-- ExpMem0&#45;&gt;ExpBinary0 -->
<g id="edge8" class="edge"><title>ExpMem0&#45;&gt;ExpBinary0</title>
<path fill="none" stroke="black" d="M412.85,-294.128C405.815,-292.074 398.507,-289.957 391.645,-288 343.952,-274.394 289.424,-259.31 250.872,-248.724"/>
<polygon fill="black" stroke="black" points="251.505,-245.269 240.936,-245.998 249.653,-252.019 251.505,-245.269"/>
</g>
<!-- ExpConst0 -->
<g id="node21" class="node"><title>ExpConst0</title>
<ellipse fill="none" stroke="black" cx="250.645" cy="-162" rx="50.0912" ry="18"/>
<text text-anchor="middle" x="250.645" y="-158.3" font-family="Times,serif" font-size="14.00">ExpConst0</text>
</g>
<!-- ExpBinary0&#45;&gt;ExpConst0 -->
<g id="edge37" class="edge"><title>ExpBinary0&#45;&gt;ExpConst0</title>
<path fill="none" stroke="black" d="M212.495,-216.411C218.509,-207.992 225.942,-197.585 232.645,-188.201"/>
<polygon fill="black" stroke="black" points="235.569,-190.128 238.534,-179.956 229.873,-186.059 235.569,-190.128"/>
</g>
<!-- ExpTemp0 -->
<g id="node29" class="node"><title>ExpTemp0</title>
<ellipse fill="none" stroke="black" cx="52.6453" cy="-162" rx="50.0912" ry="18"/>
<text text-anchor="middle" x="52.6453" y="-158.3" font-family="Times,serif" font-size="14.00">ExpTemp0</text>
</g>
<!-- ExpBinary0&#45;&gt;ExpTemp0 -->
<g id="edge35" class="edge"><title>ExpBinary0&#45;&gt;ExpTemp0</title>
<path fill="none" stroke="black" d="M171.051,-219.003C148.013,-208.106 115.862,-192.9 90.8756,-181.082"/>
<polygon fill="black" stroke="black" points="92.2203,-177.846 81.684,-176.734 89.2274,-184.174 92.2203,-177.846"/>
</g>
<!-- Plus0 -->
<g id="node38" class="node"><title>Plus0</title>
<ellipse fill="none" stroke="black" cx="151.645" cy="-162" rx="30.5947" ry="18"/>
<text text-anchor="middle" x="151.645" y="-158.3" font-family="Times,serif" font-size="14.00">Plus0</text>
</g>
<!-- ExpBinary0&#45;&gt;Plus0 -->
<g id="edge36" class="edge"><title>ExpBinary0&#45;&gt;Plus0</title>
<path fill="none" stroke="black" d="M189.033,-216.411C182.966,-207.744 175.425,-196.971 168.708,-187.375"/>
<polygon fill="black" stroke="black" points="171.439,-185.173 162.837,-178.988 165.704,-189.188 171.439,-185.173"/>
</g>
<!-- ExpBinary1 -->
<g id="node13" class="node"><title>ExpBinary1</title>
<ellipse fill="none" stroke="black" cx="569.645" cy="-306" rx="53.0913" ry="18"/>
<text text-anchor="middle" x="569.645" y="-302.3" font-family="Times,serif" font-size="14.00">ExpBinary1</text>
</g>
<!-- ExpMem1 -->
<g id="node14" class="node"><title>ExpMem1</title>
<ellipse fill="none" stroke="black" cx="422.645" cy="-234" rx="48.9926" ry="18"/>
<text text-anchor="middle" x="422.645" y="-230.3" font-family="Times,serif" font-size="14.00">ExpMem1</text>
</g>
<!-- ExpBinary1&#45;&gt;ExpMem1 -->
<g id="edge9" class="edge"><title>ExpBinary1&#45;&gt;ExpMem1</title>
<path fill="none" stroke="black" d="M539.898,-290.834C516.985,-279.924 485.154,-264.766 460.439,-252.997"/>
<polygon fill="black" stroke="black" points="461.882,-249.807 451.348,-248.668 458.872,-256.127 461.882,-249.807"/>
</g>
<!-- Plus2 -->
<g id="node15" class="node"><title>Plus2</title>
<ellipse fill="none" stroke="black" cx="519.645" cy="-234" rx="30.5947" ry="18"/>
<text text-anchor="middle" x="519.645" y="-230.3" font-family="Times,serif" font-size="14.00">Plus2</text>
</g>
<!-- ExpBinary1&#45;&gt;Plus2 -->
<g id="edge10" class="edge"><title>ExpBinary1&#45;&gt;Plus2</title>
<path fill="none" stroke="black" d="M557.796,-288.411C551.605,-279.744 543.91,-268.971 537.056,-259.375"/>
<polygon fill="black" stroke="black" points="539.726,-257.091 531.065,-250.988 534.03,-261.16 539.726,-257.091"/>
</g>
<!-- ExpConst2 -->
<g id="node16" class="node"><title>ExpConst2</title>
<ellipse fill="none" stroke="black" cx="618.645" cy="-234" rx="50.0912" ry="18"/>
<text text-anchor="middle" x="618.645" y="-230.3" font-family="Times,serif" font-size="14.00">ExpConst2</text>
</g>
<!-- ExpBinary1&#45;&gt;ExpConst2 -->
<g id="edge11" class="edge"><title>ExpBinary1&#45;&gt;ExpConst2</title>
<path fill="none" stroke="black" d="M581.258,-288.411C587.151,-279.992 594.436,-269.585 601.005,-260.201"/>
<polygon fill="black" stroke="black" points="603.909,-262.156 606.776,-251.956 598.174,-258.141 603.909,-262.156"/>
</g>
<!-- ExpBinary2 -->
<g id="node23" class="node"><title>ExpBinary2</title>
<ellipse fill="none" stroke="black" cx="422.645" cy="-162" rx="53.0913" ry="18"/>
<text text-anchor="middle" x="422.645" y="-158.3" font-family="Times,serif" font-size="14.00">ExpBinary2</text>
</g>
<!-- ExpMem1&#45;&gt;ExpBinary2 -->
<g id="edge17" class="edge"><title>ExpMem1&#45;&gt;ExpBinary2</title>
<path fill="none" stroke="black" d="M422.645,-215.697C422.645,-207.983 422.645,-198.712 422.645,-190.112"/>
<polygon fill="black" stroke="black" points="426.145,-190.104 422.645,-180.104 419.145,-190.104 426.145,-190.104"/>
</g>
<!-- Value2: 1 -->
<g id="node39" class="node"><title>Value2: 1</title>
<ellipse fill="none" stroke="black" cx="539.645" cy="-162" rx="45.4919" ry="18"/>
<text text-anchor="middle" x="539.645" y="-158.3" font-family="Times,serif" font-size="14.00">Value2: 1</text>
</g>
<!-- ExpConst2&#45;&gt;Value2: 1 -->
<g id="edge38" class="edge"><title>ExpConst2&#45;&gt;Value2: 1</title>
<path fill="none" stroke="black" d="M600.719,-217.116C590.214,-207.808 576.773,-195.898 565.176,-185.622"/>
<polygon fill="black" stroke="black" points="567.306,-182.834 557.501,-178.821 562.664,-188.073 567.306,-182.834"/>
</g>
<!-- ExpTemp3 -->
<g id="node18" class="node"><title>ExpTemp3</title>
<ellipse fill="none" stroke="black" cx="930.645" cy="-90" rx="50.0912" ry="18"/>
<text text-anchor="middle" x="930.645" y="-86.3" font-family="Times,serif" font-size="14.00">ExpTemp3</text>
</g>
<!-- ExpBinary5&#45;&gt;ExpTemp3 -->
<g id="edge12" class="edge"><title>ExpBinary5&#45;&gt;ExpTemp3</title>
<path fill="none" stroke="black" d="M962.478,-144.055C957.526,-135.801 951.466,-125.701 945.968,-116.538"/>
<polygon fill="black" stroke="black" points="948.865,-114.563 940.719,-107.789 942.863,-118.165 948.865,-114.563"/>
</g>
<!-- Plus4 -->
<g id="node19" class="node"><title>Plus4</title>
<ellipse fill="none" stroke="black" cx="1029.65" cy="-90" rx="30.5947" ry="18"/>
<text text-anchor="middle" x="1029.65" y="-86.3" font-family="Times,serif" font-size="14.00">Plus4</text>
</g>
<!-- ExpBinary5&#45;&gt;Plus4 -->
<g id="edge13" class="edge"><title>ExpBinary5&#45;&gt;Plus4</title>
<path fill="none" stroke="black" d="M986.154,-144.411C993.458,-135.441 1002.6,-124.215 1010.61,-114.373"/>
<polygon fill="black" stroke="black" points="1013.41,-116.475 1017.02,-106.511 1007.99,-112.055 1013.41,-116.475"/>
</g>
<!-- ExpConst4 -->
<g id="node20" class="node"><title>ExpConst4</title>
<ellipse fill="none" stroke="black" cx="1128.65" cy="-90" rx="50.0912" ry="18"/>
<text text-anchor="middle" x="1128.65" y="-86.3" font-family="Times,serif" font-size="14.00">ExpConst4</text>
</g>
<!-- ExpBinary5&#45;&gt;ExpConst4 -->
<g id="edge14" class="edge"><title>ExpBinary5&#45;&gt;ExpConst4</title>
<path fill="none" stroke="black" d="M1003.47,-147.17C1028.06,-136.134 1062.68,-120.6 1089.28,-108.664"/>
<polygon fill="black" stroke="black" points="1090.99,-111.732 1098.68,-104.444 1088.13,-105.345 1090.99,-111.732"/>
</g>
<!-- Temp3: $fp -->
<g id="node42" class="node"><title>Temp3: $fp</title>
<ellipse fill="none" stroke="black" cx="930.645" cy="-18" rx="52.7911" ry="18"/>
<text text-anchor="middle" x="930.645" y="-14.3" font-family="Times,serif" font-size="14.00">Temp3: $fp</text>
</g>
<!-- ExpTemp3&#45;&gt;Temp3: $fp -->
<g id="edge41" class="edge"><title>ExpTemp3&#45;&gt;Temp3: $fp</title>
<path fill="none" stroke="black" d="M930.645,-71.6966C930.645,-63.9827 930.645,-54.7125 930.645,-46.1124"/>
<polygon fill="black" stroke="black" points="934.145,-46.1043 930.645,-36.1043 927.145,-46.1044 934.145,-46.1043"/>
</g>
<!-- Value4: 16 -->
<g id="node43" class="node"><title>Value4: 16</title>
<ellipse fill="none" stroke="black" cx="1128.65" cy="-18" rx="50.0912" ry="18"/>
<text text-anchor="middle" x="1128.65" y="-14.3" font-family="Times,serif" font-size="14.00">Value4: 16</text>
</g>
<!-- ExpConst4&#45;&gt;Value4: 16 -->
<g id="edge42" class="edge"><title>ExpConst4&#45;&gt;Value4: 16</title>
<path fill="none" stroke="black" d="M1128.65,-71.6966C1128.65,-63.9827 1128.65,-54.7125 1128.65,-46.1124"/>
<polygon fill="black" stroke="black" points="1132.15,-46.1043 1128.65,-36.1043 1125.15,-46.1044 1132.15,-46.1043"/>
</g>
<!-- Value0: 20 -->
<g id="node22" class="node"><title>Value0: 20</title>
<ellipse fill="none" stroke="black" cx="211.645" cy="-90" rx="50.0912" ry="18"/>
<text text-anchor="middle" x="211.645" y="-86.3" font-family="Times,serif" font-size="14.00">Value0: 20</text>
</g>
<!-- ExpConst0&#45;&gt;Value0: 20 -->
<g id="edge16" class="edge"><title>ExpConst0&#45;&gt;Value0: 20</title>
<path fill="none" stroke="black" d="M241.205,-144.055C236.606,-135.801 230.979,-125.701 225.874,-116.538"/>
<polygon fill="black" stroke="black" points="228.924,-114.821 220.999,-107.789 222.809,-118.228 228.924,-114.821"/>
</g>
<!-- ExpBinary2&#45;&gt;ExpConst1 -->
<g id="edge32" class="edge"><title>ExpBinary2&#45;&gt;ExpConst1</title>
<path fill="none" stroke="black" d="M445.688,-145.638C460.561,-135.723 480.098,-122.698 496.366,-111.853"/>
<polygon fill="black" stroke="black" points="498.638,-114.545 505.017,-106.085 494.755,-108.72 498.638,-114.545"/>
</g>
<!-- ExpBinary2&#45;&gt;ExpTemp1 -->
<g id="edge30" class="edge"><title>ExpBinary2&#45;&gt;ExpTemp1</title>
<path fill="none" stroke="black" d="M401.542,-145.116C388.849,-135.562 372.515,-123.267 358.624,-112.812"/>
<polygon fill="black" stroke="black" points="360.439,-109.797 350.345,-106.58 356.229,-115.39 360.439,-109.797"/>
</g>
<!-- Plus1 -->
<g id="node37" class="node"><title>Plus1</title>
<ellipse fill="none" stroke="black" cx="428.645" cy="-90" rx="30.5947" ry="18"/>
<text text-anchor="middle" x="428.645" y="-86.3" font-family="Times,serif" font-size="14.00">Plus1</text>
</g>
<!-- ExpBinary2&#45;&gt;Plus1 -->
<g id="edge31" class="edge"><title>ExpBinary2&#45;&gt;Plus1</title>
<path fill="none" stroke="black" d="M424.128,-143.697C424.79,-135.983 425.584,-126.712 426.321,-118.112"/>
<polygon fill="black" stroke="black" points="429.812,-118.367 427.179,-108.104 422.838,-117.769 429.812,-118.367"/>
</g>
<!-- StatLabel0 -->
<g id="node24" class="node"><title>StatLabel0</title>
<ellipse fill="none" stroke="black" cx="390.645" cy="-378" rx="48.9926" ry="18"/>
<text text-anchor="middle" x="390.645" y="-374.3" font-family="Times,serif" font-size="14.00">StatLabel0</text>
</g>
<!-- Label0: L40 -->
<g id="node25" class="node"><title>Label0: L40</title>
<ellipse fill="none" stroke="black" cx="328.645" cy="-306" rx="53.8905" ry="18"/>
<text text-anchor="middle" x="328.645" y="-302.3" font-family="Times,serif" font-size="14.00">Label0: L40</text>
</g>
<!-- StatLabel0&#45;&gt;Label0: L40 -->
<g id="edge18" class="edge"><title>StatLabel0&#45;&gt;Label0: L40</title>
<path fill="none" stroke="black" d="M376.265,-360.765C368.475,-351.969 358.696,-340.928 350.03,-331.144"/>
<polygon fill="black" stroke="black" points="352.628,-328.799 343.378,-323.633 347.388,-333.44 352.628,-328.799"/>
</g>
<!-- StatList0 -->
<g id="node26" class="node"><title>StatList0</title>
<ellipse fill="none" stroke="black" cx="636.645" cy="-450" rx="42.4939" ry="18"/>
<text text-anchor="middle" x="636.645" y="-446.3" font-family="Times,serif" font-size="14.00">StatList0</text>
</g>
<!-- StatList0&#45;&gt;StatMove1 -->
<g id="edge21" class="edge"><title>StatList0&#45;&gt;StatMove1</title>
<path fill="none" stroke="black" d="M660.12,-434.834C677.151,-424.557 700.426,-410.511 719.372,-399.079"/>
<polygon fill="black" stroke="black" points="721.251,-402.033 728.005,-393.869 717.635,-396.039 721.251,-402.033"/>
</g>
<!-- StatList0&#45;&gt;StatLabel0 -->
<g id="edge19" class="edge"><title>StatList0&#45;&gt;StatLabel0</title>
<path fill="none" stroke="black" d="M602.44,-439.267C559.671,-427.097 486.234,-406.2 438.059,-392.492"/>
<polygon fill="black" stroke="black" points="438.759,-389.052 428.183,-389.681 436.843,-395.785 438.759,-389.052"/>
</g>
<!-- StatMove0 -->
<g id="node27" class="node"><title>StatMove0</title>
<ellipse fill="none" stroke="black" cx="569.645" cy="-378" rx="50.0912" ry="18"/>
<text text-anchor="middle" x="569.645" y="-374.3" font-family="Times,serif" font-size="14.00">StatMove0</text>
</g>
<!-- StatList0&#45;&gt;StatMove0 -->
<g id="edge20" class="edge"><title>StatList0&#45;&gt;StatMove0</title>
<path fill="none" stroke="black" d="M621.442,-433.116C612.827,-424.116 601.884,-412.682 592.278,-402.646"/>
<polygon fill="black" stroke="black" points="594.697,-400.111 585.253,-395.307 589.64,-404.951 594.697,-400.111"/>
</g>
<!-- StatJump0 -->
<g id="node28" class="node"><title>StatJump0</title>
<ellipse fill="none" stroke="black" cx="932.645" cy="-378" rx="48.1917" ry="18"/>
<text text-anchor="middle" x="932.645" y="-374.3" font-family="Times,serif" font-size="14.00">StatJump0</text>
</g>
<!-- StatList0&#45;&gt;StatJump0 -->
<g id="edge22" class="edge"><title>StatList0&#45;&gt;StatJump0</title>
<path fill="none" stroke="black" d="M672.645,-440.487C725.368,-428.018 823.76,-404.75 883.222,-390.688"/>
<polygon fill="black" stroke="black" points="884.208,-394.051 893.134,-388.344 882.597,-387.239 884.208,-394.051"/>
</g>
<!-- StatMove0&#45;&gt;ExpMem0 -->
<g id="edge33" class="edge"><title>StatMove0&#45;&gt;ExpMem0</title>
<path fill="none" stroke="black" d="M544.489,-362.326C526.809,-352.012 502.951,-338.095 483.588,-326.8"/>
<polygon fill="black" stroke="black" points="485.17,-323.671 474.768,-321.655 481.642,-329.717 485.17,-323.671"/>
</g>
<!-- StatMove0&#45;&gt;ExpBinary1 -->
<g id="edge34" class="edge"><title>StatMove0&#45;&gt;ExpBinary1</title>
<path fill="none" stroke="black" d="M569.645,-359.697C569.645,-351.983 569.645,-342.712 569.645,-334.112"/>
<polygon fill="black" stroke="black" points="573.145,-334.104 569.645,-324.104 566.145,-334.104 573.145,-334.104"/>
</g>
<!-- Label1: L39 -->
<g id="node36" class="node"><title>Label1: L39</title>
<ellipse fill="none" stroke="black" cx="1007.65" cy="-306" rx="53.8905" ry="18"/>
<text text-anchor="middle" x="1007.65" y="-302.3" font-family="Times,serif" font-size="14.00">Label1: L39</text>
</g>
<!-- StatJump0&#45;&gt;Label1: L39 -->
<g id="edge28" class="edge"><title>StatJump0&#45;&gt;Label1: L39</title>
<path fill="none" stroke="black" d="M949.664,-361.116C959.471,-351.962 971.975,-340.293 982.858,-330.135"/>
<polygon fill="black" stroke="black" points="985.512,-332.445 990.434,-323.064 980.736,-327.328 985.512,-332.445"/>
</g>
<!-- Temp0: $fp -->
<g id="node30" class="node"><title>Temp0: $fp</title>
<ellipse fill="none" stroke="black" cx="52.6453" cy="-90" rx="52.7911" ry="18"/>
<text text-anchor="middle" x="52.6453" y="-86.3" font-family="Times,serif" font-size="14.00">Temp0: $fp</text>
</g>
<!-- ExpTemp0&#45;&gt;Temp0: $fp -->
<g id="edge23" class="edge"><title>ExpTemp0&#45;&gt;Temp0: $fp</title>
<path fill="none" stroke="black" d="M52.6453,-143.697C52.6453,-135.983 52.6453,-126.712 52.6453,-118.112"/>
<polygon fill="black" stroke="black" points="56.1454,-118.104 52.6453,-108.104 49.1454,-118.104 56.1454,-118.104"/>
</g>
<!-- ExpTemp2 -->
<g id="node33" class="node"><title>ExpTemp2</title>
<ellipse fill="none" stroke="black" cx="653.645" cy="-162" rx="50.0912" ry="18"/>
<text text-anchor="middle" x="653.645" y="-158.3" font-family="Times,serif" font-size="14.00">ExpTemp2</text>
</g>
<!-- ExpBinary3&#45;&gt;ExpTemp2 -->
<g id="edge25" class="edge"><title>ExpBinary3&#45;&gt;ExpTemp2</title>
<path fill="none" stroke="black" d="M730.674,-217.465C716.864,-207.7 698.863,-194.972 683.736,-184.276"/>
<polygon fill="black" stroke="black" points="685.4,-181.167 675.215,-178.251 681.359,-186.882 685.4,-181.167"/>
</g>
<!-- Plus3 -->
<g id="node34" class="node"><title>Plus3</title>
<ellipse fill="none" stroke="black" cx="752.645" cy="-162" rx="30.5947" ry="18"/>
<text text-anchor="middle" x="752.645" y="-158.3" font-family="Times,serif" font-size="14.00">Plus3</text>
</g>
<!-- ExpBinary3&#45;&gt;Plus3 -->
<g id="edge26" class="edge"><title>ExpBinary3&#45;&gt;Plus3</title>
<path fill="none" stroke="black" d="M752.645,-215.697C752.645,-207.983 752.645,-198.712 752.645,-190.112"/>
<polygon fill="black" stroke="black" points="756.145,-190.104 752.645,-180.104 749.145,-190.104 756.145,-190.104"/>
</g>
<!-- ExpConst3 -->
<g id="node35" class="node"><title>ExpConst3</title>
<ellipse fill="none" stroke="black" cx="851.645" cy="-162" rx="50.0912" ry="18"/>
<text text-anchor="middle" x="851.645" y="-158.3" font-family="Times,serif" font-size="14.00">ExpConst3</text>
</g>
<!-- ExpBinary3&#45;&gt;ExpConst3 -->
<g id="edge27" class="edge"><title>ExpBinary3&#45;&gt;ExpConst3</title>
<path fill="none" stroke="black" d="M774.617,-217.465C788.426,-207.7 806.427,-194.972 821.555,-184.276"/>
<polygon fill="black" stroke="black" points="823.932,-186.882 830.076,-178.251 819.89,-181.167 823.932,-186.882"/>
</g>
<!-- Temp2: $fp -->
<g id="node41" class="node"><title>Temp2: $fp</title>
<ellipse fill="none" stroke="black" cx="653.645" cy="-90" rx="52.7911" ry="18"/>
<text text-anchor="middle" x="653.645" y="-86.3" font-family="Times,serif" font-size="14.00">Temp2: $fp</text>
</g>
<!-- ExpTemp2&#45;&gt;Temp2: $fp -->
<g id="edge40" class="edge"><title>ExpTemp2&#45;&gt;Temp2: $fp</title>
<path fill="none" stroke="black" d="M653.645,-143.697C653.645,-135.983 653.645,-126.712 653.645,-118.112"/>
<polygon fill="black" stroke="black" points="657.145,-118.104 653.645,-108.104 650.145,-118.104 657.145,-118.104"/>
</g>
<!-- Value3: 16 -->
<g id="node40" class="node"><title>Value3: 16</title>
<ellipse fill="none" stroke="black" cx="812.645" cy="-90" rx="50.0912" ry="18"/>
<text text-anchor="middle" x="812.645" y="-86.3" font-family="Times,serif" font-size="14.00">Value3: 16</text>
</g>
<!-- ExpConst3&#45;&gt;Value3: 16 -->
<g id="edge39" class="edge"><title>ExpConst3&#45;&gt;Value3: 16</title>
<path fill="none" stroke="black" d="M842.205,-144.055C837.606,-135.801 831.979,-125.701 826.874,-116.538"/>
<polygon fill="black" stroke="black" points="829.924,-114.821 821.999,-107.789 823.809,-118.228 829.924,-114.821"/>
</g>
</g>
</svg>
