<?xml version="1.0" encoding="UTF-8" standalone="no"?>
<!DOCTYPE svg PUBLIC "-//W3C//DTD SVG 1.1//EN"
 "http://www.w3.org/Graphics/SVG/1.1/DTD/svg11.dtd">
<!-- Generated by graphviz version 2.38.0 (20140413.2041)
 -->
<!-- Title: %3 Pages: 1 -->
<svg width="603pt" height="260pt"
 viewBox="0.00 0.00 603.49 260.00" xmlns="http://www.w3.org/2000/svg" xmlns:xlink="http://www.w3.org/1999/xlink">
<g id="graph0" class="graph" transform="scale(1 1) rotate(0) translate(4 256)">
<title>%3</title>
<polygon fill="white" stroke="none" points="-4,4 -4,-256 599.49,-256 599.49,4 -4,4"/>
<!-- Temp0 -->
<g id="node1" class="node"><title>Temp0</title>
<ellipse fill="none" stroke="black" cx="197.245" cy="-162" rx="36.2938" ry="18"/>
<text text-anchor="middle" x="197.245" y="-158.3" font-family="Times,serif" font-size="14.00">Temp0</text>
</g>
<!-- Temp1: T98 -->
<g id="node2" class="node"><title>Temp1: T98</title>
<ellipse fill="none" stroke="black" cx="55.2451" cy="-90" rx="55.4913" ry="18"/>
<text text-anchor="middle" x="55.2451" y="-86.3" font-family="Times,serif" font-size="14.00">Temp1: T98</text>
</g>
<!-- Temp0&#45;&gt;Temp1: T98 -->
<g id="edge1" class="edge"><title>Temp0&#45;&gt;Temp1: T98</title>
<path fill="none" stroke="black" d="M172.185,-148.647C150.44,-137.927 118.62,-122.241 93.6606,-109.937"/>
<polygon fill="black" stroke="black" points="94.9828,-106.687 84.4659,-105.405 91.8877,-112.965 94.9828,-106.687"/>
</g>
<!-- Temp2 -->
<g id="node3" class="node"><title>Temp2</title>
<ellipse fill="none" stroke="black" cx="422.245" cy="-90" rx="36.2938" ry="18"/>
<text text-anchor="middle" x="422.245" y="-86.3" font-family="Times,serif" font-size="14.00">Temp2</text>
</g>
<!-- Temp3: T96 -->
<g id="node4" class="node"><title>Temp3: T96</title>
<ellipse fill="none" stroke="black" cx="412.245" cy="-18" rx="55.4913" ry="18"/>
<text text-anchor="middle" x="412.245" y="-14.3" font-family="Times,serif" font-size="14.00">Temp3: T96</text>
</g>
<!-- Temp2&#45;&gt;Temp3: T96 -->
<g id="edge2" class="edge"><title>Temp2&#45;&gt;Temp3: T96</title>
<path fill="none" stroke="black" d="M419.773,-71.6966C418.671,-63.9827 417.347,-54.7125 416.118,-46.1124"/>
<polygon fill="black" stroke="black" points="419.568,-45.5088 414.689,-36.1043 412.638,-46.4988 419.568,-45.5088"/>
</g>
<!-- MoveRegister0 -->
<g id="node5" class="node"><title>MoveRegister0</title>
<ellipse fill="none" stroke="black" cx="266.245" cy="-234" rx="65.7887" ry="18"/>
<text text-anchor="middle" x="266.245" y="-230.3" font-family="Times,serif" font-size="14.00">MoveRegister0</text>
</g>
<!-- MoveRegister0&#45;&gt;Temp0 -->
<g id="edge3" class="edge"><title>MoveRegister0&#45;&gt;Temp0</title>
<path fill="none" stroke="black" d="M249.893,-216.411C240.874,-207.261 229.542,-195.765 219.704,-185.784"/>
<polygon fill="black" stroke="black" points="222.047,-183.176 212.534,-178.511 217.062,-188.09 222.047,-183.176"/>
</g>
<!-- Call0 -->
<g id="node6" class="node"><title>Call0</title>
<ellipse fill="none" stroke="black" cx="335.245" cy="-162" rx="29.795" ry="18"/>
<text text-anchor="middle" x="335.245" y="-158.3" font-family="Times,serif" font-size="14.00">Call0</text>
</g>
<!-- MoveRegister0&#45;&gt;Call0 -->
<g id="edge4" class="edge"><title>MoveRegister0&#45;&gt;Call0</title>
<path fill="none" stroke="black" d="M282.597,-216.411C291.743,-207.132 303.268,-195.441 313.201,-185.363"/>
<polygon fill="black" stroke="black" points="315.894,-187.617 320.422,-178.038 310.909,-182.703 315.894,-187.617"/>
</g>
<!-- Call0&#45;&gt;Temp2 -->
<g id="edge7" class="edge"><title>Call0&#45;&gt;Temp2</title>
<path fill="none" stroke="black" d="M352.433,-147.17C364.852,-137.178 381.854,-123.499 395.97,-112.141"/>
<polygon fill="black" stroke="black" points="398.294,-114.763 403.891,-105.768 393.906,-109.31 398.294,-114.763"/>
</g>
<!-- Temp4 -->
<g id="node7" class="node"><title>Temp4</title>
<ellipse fill="none" stroke="black" cx="531.245" cy="-90" rx="36.2938" ry="18"/>
<text text-anchor="middle" x="531.245" y="-86.3" font-family="Times,serif" font-size="14.00">Temp4</text>
</g>
<!-- Call0&#45;&gt;Temp4 -->
<g id="edge8" class="edge"><title>Call0&#45;&gt;Temp4</title>
<path fill="none" stroke="black" d="M360.467,-151.992C394.113,-139.976 453.979,-118.595 493.142,-104.608"/>
<polygon fill="black" stroke="black" points="494.384,-107.881 502.625,-101.222 492.03,-101.289 494.384,-107.881"/>
</g>
<!-- Function0: Tree@SetHas_Left -->
<g id="node9" class="node"><title>Function0: Tree@SetHas_Left</title>
<ellipse fill="none" stroke="black" cx="248.245" cy="-90" rx="119.679" ry="18"/>
<text text-anchor="middle" x="248.245" y="-86.3" font-family="Times,serif" font-size="14.00">Function0: Tree@SetHas_Left</text>
</g>
<!-- Call0&#45;&gt;Function0: Tree@SetHas_Left -->
<g id="edge6" class="edge"><title>Call0&#45;&gt;Function0: Tree@SetHas_Left</title>
<path fill="none" stroke="black" d="M318.057,-147.17C306.41,-137.799 290.733,-125.186 277.185,-114.285"/>
<polygon fill="black" stroke="black" points="279.066,-111.306 269.08,-107.764 274.677,-116.76 279.066,-111.306"/>
</g>
<!-- Temp5: T97 -->
<g id="node8" class="node"><title>Temp5: T97</title>
<ellipse fill="none" stroke="black" cx="540.245" cy="-18" rx="55.4913" ry="18"/>
<text text-anchor="middle" x="540.245" y="-14.3" font-family="Times,serif" font-size="14.00">Temp5: T97</text>
</g>
<!-- Temp4&#45;&gt;Temp5: T97 -->
<g id="edge5" class="edge"><title>Temp4&#45;&gt;Temp5: T97</title>
<path fill="none" stroke="black" d="M533.47,-71.6966C534.462,-63.9827 535.653,-54.7125 536.759,-46.1124"/>
<polygon fill="black" stroke="black" points="540.242,-46.469 538.046,-36.1043 533.299,-45.5763 540.242,-46.469"/>
</g>
</g>
</svg>
