<?xml version="1.0" encoding="UTF-8" standalone="no"?>
<!DOCTYPE svg PUBLIC "-//W3C//DTD SVG 1.1//EN"
 "http://www.w3.org/Graphics/SVG/1.1/DTD/svg11.dtd">
<!-- Generated by graphviz version 2.38.0 (20140413.2041)
 -->
<!-- Title: %3 Pages: 1 -->
<svg width="2058pt" height="404pt"
 viewBox="0.00 0.00 2057.89 404.00" xmlns="http://www.w3.org/2000/svg" xmlns:xlink="http://www.w3.org/1999/xlink">
<g id="graph0" class="graph" transform="scale(1 1) rotate(0) translate(4 400)">
<title>%3</title>
<polygon fill="white" stroke="none" points="-4,4 -4,-400 2053.89,-400 2053.89,4 -4,4"/>
<!-- StatMove6 -->
<g id="node1" class="node"><title>StatMove6</title>
<ellipse fill="none" stroke="black" cx="1741.95" cy="-306" rx="50.0912" ry="18"/>
<text text-anchor="middle" x="1741.95" y="-302.3" font-family="Times,serif" font-size="14.00">StatMove6</text>
</g>
<!-- ExpTemp14 -->
<g id="node2" class="node"><title>ExpTemp14</title>
<ellipse fill="none" stroke="black" cx="1741.95" cy="-234" rx="54.6905" ry="18"/>
<text text-anchor="middle" x="1741.95" y="-230.3" font-family="Times,serif" font-size="14.00">ExpTemp14</text>
</g>
<!-- StatMove6&#45;&gt;ExpTemp14 -->
<g id="edge1" class="edge"><title>StatMove6&#45;&gt;ExpTemp14</title>
<path fill="none" stroke="black" d="M1741.95,-287.697C1741.95,-279.983 1741.95,-270.712 1741.95,-262.112"/>
<polygon fill="black" stroke="black" points="1745.45,-262.104 1741.95,-252.104 1738.45,-262.104 1745.45,-262.104"/>
</g>
<!-- ExpTemp15 -->
<g id="node3" class="node"><title>ExpTemp15</title>
<ellipse fill="none" stroke="black" cx="1868.95" cy="-234" rx="54.6905" ry="18"/>
<text text-anchor="middle" x="1868.95" y="-230.3" font-family="Times,serif" font-size="14.00">ExpTemp15</text>
</g>
<!-- StatMove6&#45;&gt;ExpTemp15 -->
<g id="edge2" class="edge"><title>StatMove6&#45;&gt;ExpTemp15</title>
<path fill="none" stroke="black" d="M1768.26,-290.496C1787.12,-280.101 1812.74,-265.981 1833.41,-254.585"/>
<polygon fill="black" stroke="black" points="1835.16,-257.619 1842.23,-249.726 1831.78,-251.488 1835.16,-257.619"/>
</g>
<!-- Temp14: T72 -->
<g id="node57" class="node"><title>Temp14: T72</title>
<ellipse fill="none" stroke="black" cx="1807.95" cy="-162" rx="59.5901" ry="18"/>
<text text-anchor="middle" x="1807.95" y="-158.3" font-family="Times,serif" font-size="14.00">Temp14: T72</text>
</g>
<!-- ExpTemp14&#45;&gt;Temp14: T72 -->
<g id="edge55" class="edge"><title>ExpTemp14&#45;&gt;Temp14: T72</title>
<path fill="none" stroke="black" d="M1757.59,-216.411C1765.89,-207.606 1776.24,-196.628 1785.39,-186.919"/>
<polygon fill="black" stroke="black" points="1788.1,-189.147 1792.42,-179.47 1783.01,-184.345 1788.1,-189.147"/>
</g>
<!-- Temp15: T55 -->
<g id="node6" class="node"><title>Temp15: T55</title>
<ellipse fill="none" stroke="black" cx="1945.95" cy="-162" rx="59.5901" ry="18"/>
<text text-anchor="middle" x="1945.95" y="-158.3" font-family="Times,serif" font-size="14.00">Temp15: T55</text>
</g>
<!-- ExpTemp15&#45;&gt;Temp15: T55 -->
<g id="edge4" class="edge"><title>ExpTemp15&#45;&gt;Temp15: T55</title>
<path fill="none" stroke="black" d="M1886.8,-216.765C1896.74,-207.73 1909.29,-196.326 1920.26,-186.349"/>
<polygon fill="black" stroke="black" points="1922.87,-188.706 1927.92,-179.39 1918.16,-183.527 1922.87,-188.706"/>
</g>
<!-- ExpTemp13 -->
<g id="node4" class="node"><title>ExpTemp13</title>
<ellipse fill="none" stroke="black" cx="1966.95" cy="-90" rx="54.6905" ry="18"/>
<text text-anchor="middle" x="1966.95" y="-86.3" font-family="Times,serif" font-size="14.00">ExpTemp13</text>
</g>
<!-- Temp13: T70 -->
<g id="node5" class="node"><title>Temp13: T70</title>
<ellipse fill="none" stroke="black" cx="1971.95" cy="-18" rx="59.5901" ry="18"/>
<text text-anchor="middle" x="1971.95" y="-14.3" font-family="Times,serif" font-size="14.00">Temp13: T70</text>
</g>
<!-- ExpTemp13&#45;&gt;Temp13: T70 -->
<g id="edge3" class="edge"><title>ExpTemp13&#45;&gt;Temp13: T70</title>
<path fill="none" stroke="black" d="M1968.18,-71.6966C1968.73,-63.9827 1969.39,-54.7125 1970.01,-46.1124"/>
<polygon fill="black" stroke="black" points="1973.5,-46.3283 1970.72,-36.1043 1966.52,-45.8295 1973.5,-46.3283"/>
</g>
<!-- ExpList0 -->
<g id="node7" class="node"><title>ExpList0</title>
<ellipse fill="none" stroke="black" cx="1686.95" cy="-162" rx="42.7926" ry="18"/>
<text text-anchor="middle" x="1686.95" y="-158.3" font-family="Times,serif" font-size="14.00">ExpList0</text>
</g>
<!-- ExpList0&#45;&gt;ExpTemp13 -->
<g id="edge7" class="edge"><title>ExpList0&#45;&gt;ExpTemp13</title>
<path fill="none" stroke="black" d="M1718.98,-150.009C1725.55,-147.901 1732.44,-145.794 1738.95,-144 1808.79,-124.722 1827.43,-124.667 1897.95,-108 1903.35,-106.723 1908.98,-105.369 1914.6,-104.006"/>
<polygon fill="black" stroke="black" points="1915.76,-107.326 1924.65,-101.555 1914.1,-100.526 1915.76,-107.326"/>
</g>
<!-- ExpTemp11 -->
<g id="node8" class="node"><title>ExpTemp11</title>
<ellipse fill="none" stroke="black" cx="1706.95" cy="-90" rx="54.6905" ry="18"/>
<text text-anchor="middle" x="1706.95" y="-86.3" font-family="Times,serif" font-size="14.00">ExpTemp11</text>
</g>
<!-- ExpList0&#45;&gt;ExpTemp11 -->
<g id="edge5" class="edge"><title>ExpList0&#45;&gt;ExpTemp11</title>
<path fill="none" stroke="black" d="M1691.79,-144.055C1694.01,-136.261 1696.71,-126.822 1699.21,-118.079"/>
<polygon fill="black" stroke="black" points="1702.63,-118.852 1702.01,-108.275 1695.9,-116.929 1702.63,-118.852"/>
</g>
<!-- ExpTemp12 -->
<g id="node9" class="node"><title>ExpTemp12</title>
<ellipse fill="none" stroke="black" cx="1833.95" cy="-90" rx="54.6905" ry="18"/>
<text text-anchor="middle" x="1833.95" y="-86.3" font-family="Times,serif" font-size="14.00">ExpTemp12</text>
</g>
<!-- ExpList0&#45;&gt;ExpTemp12 -->
<g id="edge6" class="edge"><title>ExpList0&#45;&gt;ExpTemp12</title>
<path fill="none" stroke="black" d="M1714.25,-147.998C1736.93,-137.199 1769.47,-121.703 1794.9,-109.594"/>
<polygon fill="black" stroke="black" points="1796.74,-112.595 1804.26,-105.135 1793.73,-106.275 1796.74,-112.595"/>
</g>
<!-- Temp11: T68 -->
<g id="node62" class="node"><title>Temp11: T68</title>
<ellipse fill="none" stroke="black" cx="1695.95" cy="-18" rx="59.5901" ry="18"/>
<text text-anchor="middle" x="1695.95" y="-14.3" font-family="Times,serif" font-size="14.00">Temp11: T68</text>
</g>
<!-- ExpTemp11&#45;&gt;Temp11: T68 -->
<g id="edge59" class="edge"><title>ExpTemp11&#45;&gt;Temp11: T68</title>
<path fill="none" stroke="black" d="M1704.23,-71.6966C1703.01,-63.9827 1701.56,-54.7125 1700.21,-46.1124"/>
<polygon fill="black" stroke="black" points="1703.64,-45.4397 1698.63,-36.1043 1696.73,-46.5265 1703.64,-45.4397"/>
</g>
<!-- Temp12: T69 -->
<g id="node53" class="node"><title>Temp12: T69</title>
<ellipse fill="none" stroke="black" cx="1833.95" cy="-18" rx="59.5901" ry="18"/>
<text text-anchor="middle" x="1833.95" y="-14.3" font-family="Times,serif" font-size="14.00">Temp12: T69</text>
</g>
<!-- ExpTemp12&#45;&gt;Temp12: T69 -->
<g id="edge48" class="edge"><title>ExpTemp12&#45;&gt;Temp12: T69</title>
<path fill="none" stroke="black" d="M1833.95,-71.6966C1833.95,-63.9827 1833.95,-54.7125 1833.95,-46.1124"/>
<polygon fill="black" stroke="black" points="1837.45,-46.1043 1833.95,-36.1043 1830.45,-46.1044 1837.45,-46.1043"/>
</g>
<!-- ExpName0 -->
<g id="node10" class="node"><title>ExpName0</title>
<ellipse fill="none" stroke="black" cx="1553.95" cy="-162" rx="50.8918" ry="18"/>
<text text-anchor="middle" x="1553.95" y="-158.3" font-family="Times,serif" font-size="14.00">ExpName0</text>
</g>
<!-- Label1: Tree@RemoveLeft -->
<g id="node11" class="node"><title>Label1: Tree@RemoveLeft</title>
<ellipse fill="none" stroke="black" cx="1525.95" cy="-90" rx="108.581" ry="18"/>
<text text-anchor="middle" x="1525.95" y="-86.3" font-family="Times,serif" font-size="14.00">Label1: Tree@RemoveLeft</text>
</g>
<!-- ExpName0&#45;&gt;Label1: Tree@RemoveLeft -->
<g id="edge8" class="edge"><title>ExpName0&#45;&gt;Label1: Tree@RemoveLeft</title>
<path fill="none" stroke="black" d="M1547.17,-144.055C1544.02,-136.176 1540.19,-126.617 1536.66,-117.794"/>
<polygon fill="black" stroke="black" points="1539.82,-116.26 1532.86,-108.275 1533.32,-118.86 1539.82,-116.26"/>
</g>
<!-- ExpMem3 -->
<g id="node12" class="node"><title>ExpMem3</title>
<ellipse fill="none" stroke="black" cx="1289.95" cy="-234" rx="48.9926" ry="18"/>
<text text-anchor="middle" x="1289.95" y="-230.3" font-family="Times,serif" font-size="14.00">ExpMem3</text>
</g>
<!-- ExpBinary2 -->
<g id="node13" class="node"><title>ExpBinary2</title>
<ellipse fill="none" stroke="black" cx="1294.95" cy="-162" rx="53.0913" ry="18"/>
<text text-anchor="middle" x="1294.95" y="-158.3" font-family="Times,serif" font-size="14.00">ExpBinary2</text>
</g>
<!-- ExpMem3&#45;&gt;ExpBinary2 -->
<g id="edge9" class="edge"><title>ExpMem3&#45;&gt;ExpBinary2</title>
<path fill="none" stroke="black" d="M1291.18,-215.697C1291.73,-207.983 1292.39,-198.712 1293.01,-190.112"/>
<polygon fill="black" stroke="black" points="1296.5,-190.328 1293.72,-180.104 1289.52,-189.83 1296.5,-190.328"/>
</g>
<!-- ExpConst2 -->
<g id="node14" class="node"><title>ExpConst2</title>
<ellipse fill="none" stroke="black" cx="1348.95" cy="-90" rx="50.0912" ry="18"/>
<text text-anchor="middle" x="1348.95" y="-86.3" font-family="Times,serif" font-size="14.00">ExpConst2</text>
</g>
<!-- ExpBinary2&#45;&gt;ExpConst2 -->
<g id="edge13" class="edge"><title>ExpBinary2&#45;&gt;ExpConst2</title>
<path fill="none" stroke="black" d="M1307.74,-144.411C1314.4,-135.781 1322.67,-125.062 1330.05,-115.497"/>
<polygon fill="black" stroke="black" points="1332.9,-117.526 1336.24,-107.47 1327.36,-113.25 1332.9,-117.526"/>
</g>
<!-- ExpTemp9 -->
<g id="node16" class="node"><title>ExpTemp9</title>
<ellipse fill="none" stroke="black" cx="1150.95" cy="-90" rx="50.0912" ry="18"/>
<text text-anchor="middle" x="1150.95" y="-86.3" font-family="Times,serif" font-size="14.00">ExpTemp9</text>
</g>
<!-- ExpBinary2&#45;&gt;ExpTemp9 -->
<g id="edge11" class="edge"><title>ExpBinary2&#45;&gt;ExpTemp9</title>
<path fill="none" stroke="black" d="M1265.8,-146.834C1243.6,-136.042 1212.86,-121.095 1188.76,-109.382"/>
<polygon fill="black" stroke="black" points="1190.07,-106.13 1179.55,-104.906 1187.01,-112.425 1190.07,-106.13"/>
</g>
<!-- Plus2 -->
<g id="node17" class="node"><title>Plus2</title>
<ellipse fill="none" stroke="black" cx="1249.95" cy="-90" rx="30.5947" ry="18"/>
<text text-anchor="middle" x="1249.95" y="-86.3" font-family="Times,serif" font-size="14.00">Plus2</text>
</g>
<!-- ExpBinary2&#45;&gt;Plus2 -->
<g id="edge12" class="edge"><title>ExpBinary2&#45;&gt;Plus2</title>
<path fill="none" stroke="black" d="M1284.05,-144.055C1278.61,-135.592 1271.92,-125.19 1265.92,-115.845"/>
<polygon fill="black" stroke="black" points="1268.78,-113.826 1260.43,-107.307 1262.89,-117.611 1268.78,-113.826"/>
</g>
<!-- Value2: 8 -->
<g id="node15" class="node"><title>Value2: 8</title>
<ellipse fill="none" stroke="black" cx="1348.95" cy="-18" rx="45.4919" ry="18"/>
<text text-anchor="middle" x="1348.95" y="-14.3" font-family="Times,serif" font-size="14.00">Value2: 8</text>
</g>
<!-- ExpConst2&#45;&gt;Value2: 8 -->
<g id="edge10" class="edge"><title>ExpConst2&#45;&gt;Value2: 8</title>
<path fill="none" stroke="black" d="M1348.95,-71.6966C1348.95,-63.9827 1348.95,-54.7125 1348.95,-46.1124"/>
<polygon fill="black" stroke="black" points="1352.45,-46.1043 1348.95,-36.1043 1345.45,-46.1044 1352.45,-46.1043"/>
</g>
<!-- Temp9: $fp -->
<g id="node18" class="node"><title>Temp9: $fp</title>
<ellipse fill="none" stroke="black" cx="1150.95" cy="-18" rx="52.7911" ry="18"/>
<text text-anchor="middle" x="1150.95" y="-14.3" font-family="Times,serif" font-size="14.00">Temp9: $fp</text>
</g>
<!-- ExpTemp9&#45;&gt;Temp9: $fp -->
<g id="edge14" class="edge"><title>ExpTemp9&#45;&gt;Temp9: $fp</title>
<path fill="none" stroke="black" d="M1150.95,-71.6966C1150.95,-63.9827 1150.95,-54.7125 1150.95,-46.1124"/>
<polygon fill="black" stroke="black" points="1154.45,-46.1043 1150.95,-36.1043 1147.45,-46.1044 1154.45,-46.1043"/>
</g>
<!-- StatMove5 -->
<g id="node19" class="node"><title>StatMove5</title>
<ellipse fill="none" stroke="black" cx="1425.95" cy="-306" rx="50.0912" ry="18"/>
<text text-anchor="middle" x="1425.95" y="-302.3" font-family="Times,serif" font-size="14.00">StatMove5</text>
</g>
<!-- ExpTemp10 -->
<g id="node20" class="node"><title>ExpTemp10</title>
<ellipse fill="none" stroke="black" cx="1425.95" cy="-234" rx="54.6905" ry="18"/>
<text text-anchor="middle" x="1425.95" y="-230.3" font-family="Times,serif" font-size="14.00">ExpTemp10</text>
</g>
<!-- StatMove5&#45;&gt;ExpTemp10 -->
<g id="edge15" class="edge"><title>StatMove5&#45;&gt;ExpTemp10</title>
<path fill="none" stroke="black" d="M1425.95,-287.697C1425.95,-279.983 1425.95,-270.712 1425.95,-262.112"/>
<polygon fill="black" stroke="black" points="1429.45,-262.104 1425.95,-252.104 1422.45,-262.104 1429.45,-262.104"/>
</g>
<!-- ExpCall0 -->
<g id="node21" class="node"><title>ExpCall0</title>
<ellipse fill="none" stroke="black" cx="1553.95" cy="-234" rx="44.393" ry="18"/>
<text text-anchor="middle" x="1553.95" y="-230.3" font-family="Times,serif" font-size="14.00">ExpCall0</text>
</g>
<!-- StatMove5&#45;&gt;ExpCall0 -->
<g id="edge16" class="edge"><title>StatMove5&#45;&gt;ExpCall0</title>
<path fill="none" stroke="black" d="M1452.16,-290.666C1471.65,-280.004 1498.44,-265.356 1519.64,-253.762"/>
<polygon fill="black" stroke="black" points="1521.55,-256.707 1528.64,-248.838 1518.19,-250.566 1521.55,-256.707"/>
</g>
<!-- Temp10: T71 -->
<g id="node35" class="node"><title>Temp10: T71</title>
<ellipse fill="none" stroke="black" cx="1425.95" cy="-162" rx="59.5901" ry="18"/>
<text text-anchor="middle" x="1425.95" y="-158.3" font-family="Times,serif" font-size="14.00">Temp10: T71</text>
</g>
<!-- ExpTemp10&#45;&gt;Temp10: T71 -->
<g id="edge27" class="edge"><title>ExpTemp10&#45;&gt;Temp10: T71</title>
<path fill="none" stroke="black" d="M1425.95,-215.697C1425.95,-207.983 1425.95,-198.712 1425.95,-190.112"/>
<polygon fill="black" stroke="black" points="1429.45,-190.104 1425.95,-180.104 1422.45,-190.104 1429.45,-190.104"/>
</g>
<!-- ExpCall0&#45;&gt;ExpList0 -->
<g id="edge46" class="edge"><title>ExpCall0&#45;&gt;ExpList0</title>
<path fill="none" stroke="black" d="M1579.9,-219.337C1600.5,-208.497 1629.49,-193.24 1652.1,-181.337"/>
<polygon fill="black" stroke="black" points="1653.83,-184.383 1661.05,-176.628 1650.57,-178.189 1653.83,-184.383"/>
</g>
<!-- ExpCall0&#45;&gt;ExpName0 -->
<g id="edge45" class="edge"><title>ExpCall0&#45;&gt;ExpName0</title>
<path fill="none" stroke="black" d="M1553.95,-215.697C1553.95,-207.983 1553.95,-198.712 1553.95,-190.112"/>
<polygon fill="black" stroke="black" points="1557.45,-190.104 1553.95,-180.104 1550.45,-190.104 1557.45,-190.104"/>
</g>
<!-- ExpConst1 -->
<g id="node22" class="node"><title>ExpConst1</title>
<ellipse fill="none" stroke="black" cx="893.945" cy="-90" rx="50.0912" ry="18"/>
<text text-anchor="middle" x="893.945" y="-86.3" font-family="Times,serif" font-size="14.00">ExpConst1</text>
</g>
<!-- Value1: 4 -->
<g id="node23" class="node"><title>Value1: 4</title>
<ellipse fill="none" stroke="black" cx="893.945" cy="-18" rx="45.4919" ry="18"/>
<text text-anchor="middle" x="893.945" y="-14.3" font-family="Times,serif" font-size="14.00">Value1: 4</text>
</g>
<!-- ExpConst1&#45;&gt;Value1: 4 -->
<g id="edge17" class="edge"><title>ExpConst1&#45;&gt;Value1: 4</title>
<path fill="none" stroke="black" d="M893.945,-71.6966C893.945,-63.9827 893.945,-54.7125 893.945,-46.1124"/>
<polygon fill="black" stroke="black" points="897.445,-46.1043 893.945,-36.1043 890.445,-46.1044 897.445,-46.1043"/>
</g>
<!-- StatMove4 -->
<g id="node24" class="node"><title>StatMove4</title>
<ellipse fill="none" stroke="black" cx="1167.95" cy="-306" rx="50.0912" ry="18"/>
<text text-anchor="middle" x="1167.95" y="-302.3" font-family="Times,serif" font-size="14.00">StatMove4</text>
</g>
<!-- StatMove4&#45;&gt;ExpMem3 -->
<g id="edge19" class="edge"><title>StatMove4&#45;&gt;ExpMem3</title>
<path fill="none" stroke="black" d="M1193.52,-290.326C1211.58,-279.965 1235.97,-265.969 1255.7,-254.646"/>
<polygon fill="black" stroke="black" points="1257.47,-257.668 1264.4,-249.655 1253.99,-251.596 1257.47,-257.668"/>
</g>
<!-- ExpTemp8 -->
<g id="node25" class="node"><title>ExpTemp8</title>
<ellipse fill="none" stroke="black" cx="1167.95" cy="-234" rx="50.0912" ry="18"/>
<text text-anchor="middle" x="1167.95" y="-230.3" font-family="Times,serif" font-size="14.00">ExpTemp8</text>
</g>
<!-- StatMove4&#45;&gt;ExpTemp8 -->
<g id="edge18" class="edge"><title>StatMove4&#45;&gt;ExpTemp8</title>
<path fill="none" stroke="black" d="M1167.95,-287.697C1167.95,-279.983 1167.95,-270.712 1167.95,-262.112"/>
<polygon fill="black" stroke="black" points="1171.45,-262.104 1167.95,-252.104 1164.45,-262.104 1171.45,-262.104"/>
</g>
<!-- Temp8: T70 -->
<g id="node34" class="node"><title>Temp8: T70</title>
<ellipse fill="none" stroke="black" cx="1167.95" cy="-162" rx="55.4913" ry="18"/>
<text text-anchor="middle" x="1167.95" y="-158.3" font-family="Times,serif" font-size="14.00">Temp8: T70</text>
</g>
<!-- ExpTemp8&#45;&gt;Temp8: T70 -->
<g id="edge26" class="edge"><title>ExpTemp8&#45;&gt;Temp8: T70</title>
<path fill="none" stroke="black" d="M1167.95,-215.697C1167.95,-207.983 1167.95,-198.712 1167.95,-190.112"/>
<polygon fill="black" stroke="black" points="1171.45,-190.104 1167.95,-180.104 1164.45,-190.104 1171.45,-190.104"/>
</g>
<!-- ExpMem0 -->
<g id="node26" class="node"><title>ExpMem0</title>
<ellipse fill="none" stroke="black" cx="292.945" cy="-234" rx="48.9926" ry="18"/>
<text text-anchor="middle" x="292.945" y="-230.3" font-family="Times,serif" font-size="14.00">ExpMem0</text>
</g>
<!-- ExpBinary0 -->
<g id="node27" class="node"><title>ExpBinary0</title>
<ellipse fill="none" stroke="black" cx="284.945" cy="-162" rx="53.0913" ry="18"/>
<text text-anchor="middle" x="284.945" y="-158.3" font-family="Times,serif" font-size="14.00">ExpBinary0</text>
</g>
<!-- ExpMem0&#45;&gt;ExpBinary0 -->
<g id="edge20" class="edge"><title>ExpMem0&#45;&gt;ExpBinary0</title>
<path fill="none" stroke="black" d="M290.968,-215.697C290.086,-207.983 289.027,-198.712 288.044,-190.112"/>
<polygon fill="black" stroke="black" points="291.513,-189.642 286.9,-180.104 284.558,-190.437 291.513,-189.642"/>
</g>
<!-- ExpConst0 -->
<g id="node40" class="node"><title>ExpConst0</title>
<ellipse fill="none" stroke="black" cx="383.945" cy="-90" rx="50.0912" ry="18"/>
<text text-anchor="middle" x="383.945" y="-86.3" font-family="Times,serif" font-size="14.00">ExpConst0</text>
</g>
<!-- ExpBinary0&#45;&gt;ExpConst0 -->
<g id="edge51" class="edge"><title>ExpBinary0&#45;&gt;ExpConst0</title>
<path fill="none" stroke="black" d="M306.917,-145.465C320.726,-135.7 338.727,-122.972 353.855,-112.276"/>
<polygon fill="black" stroke="black" points="356.231,-114.882 362.376,-106.251 352.19,-109.167 356.231,-114.882"/>
</g>
<!-- ExpTemp1 -->
<g id="node54" class="node"><title>ExpTemp1</title>
<ellipse fill="none" stroke="black" cx="185.945" cy="-90" rx="50.0912" ry="18"/>
<text text-anchor="middle" x="185.945" y="-86.3" font-family="Times,serif" font-size="14.00">ExpTemp1</text>
</g>
<!-- ExpBinary0&#45;&gt;ExpTemp1 -->
<g id="edge49" class="edge"><title>ExpBinary0&#45;&gt;ExpTemp1</title>
<path fill="none" stroke="black" d="M262.974,-145.465C249.164,-135.7 231.163,-122.972 216.036,-112.276"/>
<polygon fill="black" stroke="black" points="217.7,-109.167 207.514,-106.251 213.659,-114.882 217.7,-109.167"/>
</g>
<!-- Plus0 -->
<g id="node55" class="node"><title>Plus0</title>
<ellipse fill="none" stroke="black" cx="284.945" cy="-90" rx="30.5947" ry="18"/>
<text text-anchor="middle" x="284.945" y="-86.3" font-family="Times,serif" font-size="14.00">Plus0</text>
</g>
<!-- ExpBinary0&#45;&gt;Plus0 -->
<g id="edge50" class="edge"><title>ExpBinary0&#45;&gt;Plus0</title>
<path fill="none" stroke="black" d="M284.945,-143.697C284.945,-135.983 284.945,-126.712 284.945,-118.112"/>
<polygon fill="black" stroke="black" points="288.445,-118.104 284.945,-108.104 281.445,-118.104 288.445,-118.104"/>
</g>
<!-- ExpBinary1 -->
<g id="node28" class="node"><title>ExpBinary1</title>
<ellipse fill="none" stroke="black" cx="794.945" cy="-162" rx="53.0913" ry="18"/>
<text text-anchor="middle" x="794.945" y="-158.3" font-family="Times,serif" font-size="14.00">ExpBinary1</text>
</g>
<!-- ExpBinary1&#45;&gt;ExpConst1 -->
<g id="edge23" class="edge"><title>ExpBinary1&#45;&gt;ExpConst1</title>
<path fill="none" stroke="black" d="M816.917,-145.465C830.726,-135.7 848.727,-122.972 863.855,-112.276"/>
<polygon fill="black" stroke="black" points="866.231,-114.882 872.376,-106.251 862.19,-109.167 866.231,-114.882"/>
</g>
<!-- ExpTemp5 -->
<g id="node29" class="node"><title>ExpTemp5</title>
<ellipse fill="none" stroke="black" cx="695.945" cy="-90" rx="50.0912" ry="18"/>
<text text-anchor="middle" x="695.945" y="-86.3" font-family="Times,serif" font-size="14.00">ExpTemp5</text>
</g>
<!-- ExpBinary1&#45;&gt;ExpTemp5 -->
<g id="edge21" class="edge"><title>ExpBinary1&#45;&gt;ExpTemp5</title>
<path fill="none" stroke="black" d="M772.974,-145.465C759.164,-135.7 741.163,-122.972 726.036,-112.276"/>
<polygon fill="black" stroke="black" points="727.7,-109.167 717.514,-106.251 723.659,-114.882 727.7,-109.167"/>
</g>
<!-- Plus1 -->
<g id="node30" class="node"><title>Plus1</title>
<ellipse fill="none" stroke="black" cx="794.945" cy="-90" rx="30.5947" ry="18"/>
<text text-anchor="middle" x="794.945" y="-86.3" font-family="Times,serif" font-size="14.00">Plus1</text>
</g>
<!-- ExpBinary1&#45;&gt;Plus1 -->
<g id="edge22" class="edge"><title>ExpBinary1&#45;&gt;Plus1</title>
<path fill="none" stroke="black" d="M794.945,-143.697C794.945,-135.983 794.945,-126.712 794.945,-118.112"/>
<polygon fill="black" stroke="black" points="798.445,-118.104 794.945,-108.104 791.445,-118.104 798.445,-118.104"/>
</g>
<!-- Temp5: $fp -->
<g id="node59" class="node"><title>Temp5: $fp</title>
<ellipse fill="none" stroke="black" cx="695.945" cy="-18" rx="52.7911" ry="18"/>
<text text-anchor="middle" x="695.945" y="-14.3" font-family="Times,serif" font-size="14.00">Temp5: $fp</text>
</g>
<!-- ExpTemp5&#45;&gt;Temp5: $fp -->
<g id="edge57" class="edge"><title>ExpTemp5&#45;&gt;Temp5: $fp</title>
<path fill="none" stroke="black" d="M695.945,-71.6966C695.945,-63.9827 695.945,-54.7125 695.945,-46.1124"/>
<polygon fill="black" stroke="black" points="699.445,-46.1043 695.945,-36.1043 692.445,-46.1044 699.445,-46.1043"/>
</g>
<!-- StatMove1 -->
<g id="node31" class="node"><title>StatMove1</title>
<ellipse fill="none" stroke="black" cx="539.945" cy="-306" rx="50.0912" ry="18"/>
<text text-anchor="middle" x="539.945" y="-302.3" font-family="Times,serif" font-size="14.00">StatMove1</text>
</g>
<!-- ExpTemp2 -->
<g id="node32" class="node"><title>ExpTemp2</title>
<ellipse fill="none" stroke="black" cx="416.945" cy="-234" rx="50.0912" ry="18"/>
<text text-anchor="middle" x="416.945" y="-230.3" font-family="Times,serif" font-size="14.00">ExpTemp2</text>
</g>
<!-- StatMove1&#45;&gt;ExpTemp2 -->
<g id="edge24" class="edge"><title>StatMove1&#45;&gt;ExpTemp2</title>
<path fill="none" stroke="black" d="M514.46,-290.496C496.275,-280.147 471.605,-266.107 451.629,-254.739"/>
<polygon fill="black" stroke="black" points="453.244,-251.631 442.821,-249.726 449.781,-257.714 453.244,-251.631"/>
</g>
<!-- ExpTemp3 -->
<g id="node33" class="node"><title>ExpTemp3</title>
<ellipse fill="none" stroke="black" cx="539.945" cy="-234" rx="50.0912" ry="18"/>
<text text-anchor="middle" x="539.945" y="-230.3" font-family="Times,serif" font-size="14.00">ExpTemp3</text>
</g>
<!-- StatMove1&#45;&gt;ExpTemp3 -->
<g id="edge25" class="edge"><title>StatMove1&#45;&gt;ExpTemp3</title>
<path fill="none" stroke="black" d="M539.945,-287.697C539.945,-279.983 539.945,-270.712 539.945,-262.112"/>
<polygon fill="black" stroke="black" points="543.445,-262.104 539.945,-252.104 536.445,-262.104 543.445,-262.104"/>
</g>
<!-- Temp2: T71 -->
<g id="node36" class="node"><title>Temp2: T71</title>
<ellipse fill="none" stroke="black" cx="411.945" cy="-162" rx="55.4913" ry="18"/>
<text text-anchor="middle" x="411.945" y="-158.3" font-family="Times,serif" font-size="14.00">Temp2: T71</text>
</g>
<!-- ExpTemp2&#45;&gt;Temp2: T71 -->
<g id="edge28" class="edge"><title>ExpTemp2&#45;&gt;Temp2: T71</title>
<path fill="none" stroke="black" d="M415.709,-215.697C415.158,-207.983 414.496,-198.712 413.882,-190.112"/>
<polygon fill="black" stroke="black" points="417.371,-189.83 413.167,-180.104 410.388,-190.328 417.371,-189.83"/>
</g>
<!-- Temp3: T55 -->
<g id="node56" class="node"><title>Temp3: T55</title>
<ellipse fill="none" stroke="black" cx="539.945" cy="-162" rx="55.4913" ry="18"/>
<text text-anchor="middle" x="539.945" y="-158.3" font-family="Times,serif" font-size="14.00">Temp3: T55</text>
</g>
<!-- ExpTemp3&#45;&gt;Temp3: T55 -->
<g id="edge54" class="edge"><title>ExpTemp3&#45;&gt;Temp3: T55</title>
<path fill="none" stroke="black" d="M539.945,-215.697C539.945,-207.983 539.945,-198.712 539.945,-190.112"/>
<polygon fill="black" stroke="black" points="543.445,-190.104 539.945,-180.104 536.445,-190.104 543.445,-190.104"/>
</g>
<!-- StatMove2 -->
<g id="node37" class="node"><title>StatMove2</title>
<ellipse fill="none" stroke="black" cx="794.945" cy="-306" rx="50.0912" ry="18"/>
<text text-anchor="middle" x="794.945" y="-302.3" font-family="Times,serif" font-size="14.00">StatMove2</text>
</g>
<!-- ExpTemp4 -->
<g id="node38" class="node"><title>ExpTemp4</title>
<ellipse fill="none" stroke="black" cx="672.945" cy="-234" rx="50.0912" ry="18"/>
<text text-anchor="middle" x="672.945" y="-230.3" font-family="Times,serif" font-size="14.00">ExpTemp4</text>
</g>
<!-- StatMove2&#45;&gt;ExpTemp4 -->
<g id="edge29" class="edge"><title>StatMove2&#45;&gt;ExpTemp4</title>
<path fill="none" stroke="black" d="M769.37,-290.326C751.314,-279.965 726.92,-265.969 707.186,-254.646"/>
<polygon fill="black" stroke="black" points="708.902,-251.596 698.487,-249.655 705.419,-257.668 708.902,-251.596"/>
</g>
<!-- ExpMem1 -->
<g id="node39" class="node"><title>ExpMem1</title>
<ellipse fill="none" stroke="black" cx="794.945" cy="-234" rx="48.9926" ry="18"/>
<text text-anchor="middle" x="794.945" y="-230.3" font-family="Times,serif" font-size="14.00">ExpMem1</text>
</g>
<!-- StatMove2&#45;&gt;ExpMem1 -->
<g id="edge30" class="edge"><title>StatMove2&#45;&gt;ExpMem1</title>
<path fill="none" stroke="black" d="M794.945,-287.697C794.945,-279.983 794.945,-270.712 794.945,-262.112"/>
<polygon fill="black" stroke="black" points="798.445,-262.104 794.945,-252.104 791.445,-262.104 798.445,-262.104"/>
</g>
<!-- Temp4: T69 -->
<g id="node63" class="node"><title>Temp4: T69</title>
<ellipse fill="none" stroke="black" cx="667.945" cy="-162" rx="55.4913" ry="18"/>
<text text-anchor="middle" x="667.945" y="-158.3" font-family="Times,serif" font-size="14.00">Temp4: T69</text>
</g>
<!-- ExpTemp4&#45;&gt;Temp4: T69 -->
<g id="edge62" class="edge"><title>ExpTemp4&#45;&gt;Temp4: T69</title>
<path fill="none" stroke="black" d="M671.709,-215.697C671.158,-207.983 670.496,-198.712 669.882,-190.112"/>
<polygon fill="black" stroke="black" points="673.371,-189.83 669.167,-180.104 666.388,-190.328 673.371,-189.83"/>
</g>
<!-- ExpMem1&#45;&gt;ExpBinary1 -->
<g id="edge32" class="edge"><title>ExpMem1&#45;&gt;ExpBinary1</title>
<path fill="none" stroke="black" d="M794.945,-215.697C794.945,-207.983 794.945,-198.712 794.945,-190.112"/>
<polygon fill="black" stroke="black" points="798.445,-190.104 794.945,-180.104 791.445,-190.104 798.445,-190.104"/>
</g>
<!-- Value0: 24 -->
<g id="node41" class="node"><title>Value0: 24</title>
<ellipse fill="none" stroke="black" cx="383.945" cy="-18" rx="50.0912" ry="18"/>
<text text-anchor="middle" x="383.945" y="-14.3" font-family="Times,serif" font-size="14.00">Value0: 24</text>
</g>
<!-- ExpConst0&#45;&gt;Value0: 24 -->
<g id="edge31" class="edge"><title>ExpConst0&#45;&gt;Value0: 24</title>
<path fill="none" stroke="black" d="M383.945,-71.6966C383.945,-63.9827 383.945,-54.7125 383.945,-46.1124"/>
<polygon fill="black" stroke="black" points="387.445,-46.1043 383.945,-36.1043 380.445,-46.1044 387.445,-46.1043"/>
</g>
<!-- StatLabel0 -->
<g id="node42" class="node"><title>StatLabel0</title>
<ellipse fill="none" stroke="black" cx="114.945" cy="-306" rx="48.9926" ry="18"/>
<text text-anchor="middle" x="114.945" y="-302.3" font-family="Times,serif" font-size="14.00">StatLabel0</text>
</g>
<!-- Label0: L46 -->
<g id="node43" class="node"><title>Label0: L46</title>
<ellipse fill="none" stroke="black" cx="53.9452" cy="-234" rx="53.8905" ry="18"/>
<text text-anchor="middle" x="53.9452" y="-230.3" font-family="Times,serif" font-size="14.00">Label0: L46</text>
</g>
<!-- StatLabel0&#45;&gt;Label0: L46 -->
<g id="edge33" class="edge"><title>StatLabel0&#45;&gt;Label0: L46</title>
<path fill="none" stroke="black" d="M100.797,-288.765C93.2083,-280.056 83.7016,-269.147 75.2386,-259.435"/>
<polygon fill="black" stroke="black" points="77.6485,-256.873 68.44,-251.633 72.3712,-261.472 77.6485,-256.873"/>
</g>
<!-- StatList0 -->
<g id="node44" class="node"><title>StatList0</title>
<ellipse fill="none" stroke="black" cx="981.945" cy="-378" rx="42.4939" ry="18"/>
<text text-anchor="middle" x="981.945" y="-374.3" font-family="Times,serif" font-size="14.00">StatList0</text>
</g>
<!-- StatList0&#45;&gt;StatMove6 -->
<g id="edge41" class="edge"><title>StatList0&#45;&gt;StatMove6</title>
<path fill="none" stroke="black" d="M1022.81,-373.236C1149.57,-361.561 1536.45,-325.927 1683.97,-312.34"/>
<polygon fill="black" stroke="black" points="1684.53,-315.803 1694.17,-311.4 1683.89,-308.832 1684.53,-315.803"/>
</g>
<!-- StatList0&#45;&gt;StatMove5 -->
<g id="edge40" class="edge"><title>StatList0&#45;&gt;StatMove5</title>
<path fill="none" stroke="black" d="M1020.96,-370.849C1100.12,-358.369 1279.8,-330.042 1370.85,-315.686"/>
<polygon fill="black" stroke="black" points="1371.64,-319.105 1380.97,-314.09 1370.55,-312.19 1371.64,-319.105"/>
</g>
<!-- StatList0&#45;&gt;StatMove4 -->
<g id="edge39" class="edge"><title>StatList0&#45;&gt;StatMove4</title>
<path fill="none" stroke="black" d="M1012.66,-365.441C1043.27,-353.919 1090.56,-336.125 1124.91,-323.197"/>
<polygon fill="black" stroke="black" points="1126.55,-326.32 1134.67,-319.522 1124.08,-319.769 1126.55,-326.32"/>
</g>
<!-- StatList0&#45;&gt;StatMove1 -->
<g id="edge36" class="edge"><title>StatList0&#45;&gt;StatMove1</title>
<path fill="none" stroke="black" d="M943.108,-370.849C864.305,-358.369 685.437,-330.042 594.792,-315.686"/>
<polygon fill="black" stroke="black" points="595.14,-312.198 584.715,-314.09 594.045,-319.111 595.14,-312.198"/>
</g>
<!-- StatList0&#45;&gt;StatMove2 -->
<g id="edge37" class="edge"><title>StatList0&#45;&gt;StatMove2</title>
<path fill="none" stroke="black" d="M951.066,-365.441C920.154,-353.87 872.342,-335.972 837.772,-323.031"/>
<polygon fill="black" stroke="black" points="838.99,-319.75 828.397,-319.522 836.536,-326.306 838.99,-319.75"/>
</g>
<!-- StatList0&#45;&gt;StatLabel0 -->
<g id="edge34" class="edge"><title>StatList0&#45;&gt;StatLabel0</title>
<path fill="none" stroke="black" d="M940.088,-375.081C826.368,-369.641 502.234,-352.632 233.945,-324 212.554,-321.717 189.094,-318.516 168.701,-315.507"/>
<polygon fill="black" stroke="black" points="169.06,-312.022 158.652,-314.003 168.024,-318.945 169.06,-312.022"/>
</g>
<!-- StatMove0 -->
<g id="node45" class="node"><title>StatMove0</title>
<ellipse fill="none" stroke="black" cx="292.945" cy="-306" rx="50.0912" ry="18"/>
<text text-anchor="middle" x="292.945" y="-302.3" font-family="Times,serif" font-size="14.00">StatMove0</text>
</g>
<!-- StatList0&#45;&gt;StatMove0 -->
<g id="edge35" class="edge"><title>StatList0&#45;&gt;StatMove0</title>
<path fill="none" stroke="black" d="M941.417,-372.883C824.606,-361.015 486.918,-326.707 350.816,-312.879"/>
<polygon fill="black" stroke="black" points="350.899,-309.37 340.597,-311.841 350.192,-316.334 350.899,-309.37"/>
</g>
<!-- StatMove3 -->
<g id="node46" class="node"><title>StatMove3</title>
<ellipse fill="none" stroke="black" cx="981.945" cy="-306" rx="50.0912" ry="18"/>
<text text-anchor="middle" x="981.945" y="-302.3" font-family="Times,serif" font-size="14.00">StatMove3</text>
</g>
<!-- StatList0&#45;&gt;StatMove3 -->
<g id="edge38" class="edge"><title>StatList0&#45;&gt;StatMove3</title>
<path fill="none" stroke="black" d="M981.945,-359.697C981.945,-351.983 981.945,-342.712 981.945,-334.112"/>
<polygon fill="black" stroke="black" points="985.445,-334.104 981.945,-324.104 978.445,-334.104 985.445,-334.104"/>
</g>
<!-- StatJump0 -->
<g id="node47" class="node"><title>StatJump0</title>
<ellipse fill="none" stroke="black" cx="1926.95" cy="-306" rx="48.1917" ry="18"/>
<text text-anchor="middle" x="1926.95" y="-302.3" font-family="Times,serif" font-size="14.00">StatJump0</text>
</g>
<!-- StatList0&#45;&gt;StatJump0 -->
<g id="edge42" class="edge"><title>StatList0&#45;&gt;StatJump0</title>
<path fill="none" stroke="black" d="M1023.79,-375.32C1144.54,-370.253 1503.91,-353.613 1800.95,-324 1824.75,-321.626 1850.99,-318.215 1873.33,-315.07"/>
<polygon fill="black" stroke="black" points="1873.89,-318.525 1883.3,-313.649 1872.9,-311.596 1873.89,-318.525"/>
</g>
<!-- StatMove0&#45;&gt;ExpMem0 -->
<g id="edge53" class="edge"><title>StatMove0&#45;&gt;ExpMem0</title>
<path fill="none" stroke="black" d="M292.945,-287.697C292.945,-279.983 292.945,-270.712 292.945,-262.112"/>
<polygon fill="black" stroke="black" points="296.445,-262.104 292.945,-252.104 289.445,-262.104 296.445,-262.104"/>
</g>
<!-- ExpTemp0 -->
<g id="node48" class="node"><title>ExpTemp0</title>
<ellipse fill="none" stroke="black" cx="175.945" cy="-234" rx="50.0912" ry="18"/>
<text text-anchor="middle" x="175.945" y="-230.3" font-family="Times,serif" font-size="14.00">ExpTemp0</text>
</g>
<!-- StatMove0&#45;&gt;ExpTemp0 -->
<g id="edge52" class="edge"><title>StatMove0&#45;&gt;ExpTemp0</title>
<path fill="none" stroke="black" d="M268.133,-290.155C251.069,-279.946 228.206,-266.267 209.517,-255.086"/>
<polygon fill="black" stroke="black" points="211.101,-251.955 200.722,-249.824 207.507,-257.962 211.101,-251.955"/>
</g>
<!-- ExpMem2 -->
<g id="node51" class="node"><title>ExpMem2</title>
<ellipse fill="none" stroke="black" cx="1041.95" cy="-234" rx="48.9926" ry="18"/>
<text text-anchor="middle" x="1041.95" y="-230.3" font-family="Times,serif" font-size="14.00">ExpMem2</text>
</g>
<!-- StatMove3&#45;&gt;ExpMem2 -->
<g id="edge61" class="edge"><title>StatMove3&#45;&gt;ExpMem2</title>
<path fill="none" stroke="black" d="M996.164,-288.411C1003.64,-279.693 1012.93,-268.845 1021.2,-259.208"/>
<polygon fill="black" stroke="black" points="1023.98,-261.34 1027.83,-251.47 1018.66,-256.785 1023.98,-261.34"/>
</g>
<!-- ExpTemp6 -->
<g id="node60" class="node"><title>ExpTemp6</title>
<ellipse fill="none" stroke="black" cx="922.945" cy="-234" rx="50.0912" ry="18"/>
<text text-anchor="middle" x="922.945" y="-230.3" font-family="Times,serif" font-size="14.00">ExpTemp6</text>
</g>
<!-- StatMove3&#45;&gt;ExpTemp6 -->
<g id="edge60" class="edge"><title>StatMove3&#45;&gt;ExpTemp6</title>
<path fill="none" stroke="black" d="M967.963,-288.411C960.615,-279.693 951.472,-268.845 943.349,-259.208"/>
<polygon fill="black" stroke="black" points="945.948,-256.861 936.827,-251.47 940.596,-261.372 945.948,-256.861"/>
</g>
<!-- Label2: L48 -->
<g id="node50" class="node"><title>Label2: L48</title>
<ellipse fill="none" stroke="black" cx="1995.95" cy="-234" rx="53.8905" ry="18"/>
<text text-anchor="middle" x="1995.95" y="-230.3" font-family="Times,serif" font-size="14.00">Label2: L48</text>
</g>
<!-- StatJump0&#45;&gt;Label2: L48 -->
<g id="edge44" class="edge"><title>StatJump0&#45;&gt;Label2: L48</title>
<path fill="none" stroke="black" d="M1942.95,-288.765C1951.7,-279.882 1962.72,-268.709 1972.43,-258.854"/>
<polygon fill="black" stroke="black" points="1975.02,-261.212 1979.55,-251.633 1970.04,-256.298 1975.02,-261.212"/>
</g>
<!-- Temp0: T72 -->
<g id="node49" class="node"><title>Temp0: T72</title>
<ellipse fill="none" stroke="black" cx="157.945" cy="-162" rx="55.4913" ry="18"/>
<text text-anchor="middle" x="157.945" y="-158.3" font-family="Times,serif" font-size="14.00">Temp0: T72</text>
</g>
<!-- ExpTemp0&#45;&gt;Temp0: T72 -->
<g id="edge43" class="edge"><title>ExpTemp0&#45;&gt;Temp0: T72</title>
<path fill="none" stroke="black" d="M171.588,-216.055C169.584,-208.261 167.157,-198.822 164.908,-190.079"/>
<polygon fill="black" stroke="black" points="168.268,-189.089 162.387,-180.275 161.488,-190.832 168.268,-189.089"/>
</g>
<!-- ExpTemp7 -->
<g id="node52" class="node"><title>ExpTemp7</title>
<ellipse fill="none" stroke="black" cx="1044.95" cy="-162" rx="50.0912" ry="18"/>
<text text-anchor="middle" x="1044.95" y="-158.3" font-family="Times,serif" font-size="14.00">ExpTemp7</text>
</g>
<!-- ExpMem2&#45;&gt;ExpTemp7 -->
<g id="edge47" class="edge"><title>ExpMem2&#45;&gt;ExpTemp7</title>
<path fill="none" stroke="black" d="M1042.69,-215.697C1043.02,-207.983 1043.41,-198.712 1043.78,-190.112"/>
<polygon fill="black" stroke="black" points="1047.28,-190.245 1044.21,-180.104 1040.29,-189.945 1047.28,-190.245"/>
</g>
<!-- Temp7: $fp -->
<g id="node64" class="node"><title>Temp7: $fp</title>
<ellipse fill="none" stroke="black" cx="1029.95" cy="-90" rx="52.7911" ry="18"/>
<text text-anchor="middle" x="1029.95" y="-86.3" font-family="Times,serif" font-size="14.00">Temp7: $fp</text>
</g>
<!-- ExpTemp7&#45;&gt;Temp7: $fp -->
<g id="edge63" class="edge"><title>ExpTemp7&#45;&gt;Temp7: $fp</title>
<path fill="none" stroke="black" d="M1041.24,-143.697C1039.58,-135.983 1037.6,-126.712 1035.76,-118.112"/>
<polygon fill="black" stroke="black" points="1039.13,-117.149 1033.61,-108.104 1032.28,-118.616 1039.13,-117.149"/>
</g>
<!-- Temp1: $fp -->
<g id="node58" class="node"><title>Temp1: $fp</title>
<ellipse fill="none" stroke="black" cx="185.945" cy="-18" rx="52.7911" ry="18"/>
<text text-anchor="middle" x="185.945" y="-14.3" font-family="Times,serif" font-size="14.00">Temp1: $fp</text>
</g>
<!-- ExpTemp1&#45;&gt;Temp1: $fp -->
<g id="edge56" class="edge"><title>ExpTemp1&#45;&gt;Temp1: $fp</title>
<path fill="none" stroke="black" d="M185.945,-71.6966C185.945,-63.9827 185.945,-54.7125 185.945,-46.1124"/>
<polygon fill="black" stroke="black" points="189.445,-46.1043 185.945,-36.1043 182.445,-46.1044 189.445,-46.1043"/>
</g>
<!-- Temp6: T68 -->
<g id="node61" class="node"><title>Temp6: T68</title>
<ellipse fill="none" stroke="black" cx="921.945" cy="-162" rx="55.4913" ry="18"/>
<text text-anchor="middle" x="921.945" y="-158.3" font-family="Times,serif" font-size="14.00">Temp6: T68</text>
</g>
<!-- ExpTemp6&#45;&gt;Temp6: T68 -->
<g id="edge58" class="edge"><title>ExpTemp6&#45;&gt;Temp6: T68</title>
<path fill="none" stroke="black" d="M922.698,-215.697C922.588,-207.983 922.455,-198.712 922.333,-190.112"/>
<polygon fill="black" stroke="black" points="925.832,-190.053 922.19,-180.104 918.833,-190.153 925.832,-190.053"/>
</g>
</g>
</svg>
