<?xml version="1.0" encoding="UTF-8" standalone="no"?>
<!DOCTYPE svg PUBLIC "-//W3C//DTD SVG 1.1//EN"
 "http://www.w3.org/Graphics/SVG/1.1/DTD/svg11.dtd">
<!-- Generated by graphviz version 2.38.0 (20140413.2041)
 -->
<!-- Title: %3 Pages: 1 -->
<svg width="2424pt" height="404pt"
 viewBox="0.00 0.00 2423.89 404.00" xmlns="http://www.w3.org/2000/svg" xmlns:xlink="http://www.w3.org/1999/xlink">
<g id="graph0" class="graph" transform="scale(1 1) rotate(0) translate(4 400)">
<title>%3</title>
<polygon fill="white" stroke="none" points="-4,4 -4,-400 2419.89,-400 2419.89,4 -4,4"/>
<!-- ExpTemp15 -->
<g id="node1" class="node"><title>ExpTemp15</title>
<ellipse fill="none" stroke="black" cx="2296.95" cy="-90" rx="54.6905" ry="18"/>
<text text-anchor="middle" x="2296.95" y="-86.3" font-family="Times,serif" font-size="14.00">ExpTemp15</text>
</g>
<!-- Temp15: T95 -->
<g id="node2" class="node"><title>Temp15: T95</title>
<ellipse fill="none" stroke="black" cx="2301.95" cy="-18" rx="59.5901" ry="18"/>
<text text-anchor="middle" x="2301.95" y="-14.3" font-family="Times,serif" font-size="14.00">Temp15: T95</text>
</g>
<!-- ExpTemp15&#45;&gt;Temp15: T95 -->
<g id="edge1" class="edge"><title>ExpTemp15&#45;&gt;Temp15: T95</title>
<path fill="none" stroke="black" d="M2298.18,-71.6966C2298.73,-63.9827 2299.39,-54.7125 2300.01,-46.1124"/>
<polygon fill="black" stroke="black" points="2303.5,-46.3283 2300.72,-36.1043 2296.52,-45.8295 2303.5,-46.3283"/>
</g>
<!-- ExpList0 -->
<g id="node3" class="node"><title>ExpList0</title>
<ellipse fill="none" stroke="black" cx="2046.95" cy="-162" rx="42.7926" ry="18"/>
<text text-anchor="middle" x="2046.95" y="-158.3" font-family="Times,serif" font-size="14.00">ExpList0</text>
</g>
<!-- ExpList0&#45;&gt;ExpTemp15 -->
<g id="edge4" class="edge"><title>ExpList0&#45;&gt;ExpTemp15</title>
<path fill="none" stroke="black" d="M2079.31,-150.116C2085.8,-148.022 2092.57,-145.893 2098.95,-144 2148.16,-129.38 2204.79,-114.406 2244.85,-104.12"/>
<polygon fill="black" stroke="black" points="2245.84,-107.479 2254.66,-101.609 2244.1,-100.697 2245.84,-107.479"/>
</g>
<!-- ExpTemp13 -->
<g id="node4" class="node"><title>ExpTemp13</title>
<ellipse fill="none" stroke="black" cx="2036.95" cy="-90" rx="54.6905" ry="18"/>
<text text-anchor="middle" x="2036.95" y="-86.3" font-family="Times,serif" font-size="14.00">ExpTemp13</text>
</g>
<!-- ExpList0&#45;&gt;ExpTemp13 -->
<g id="edge2" class="edge"><title>ExpList0&#45;&gt;ExpTemp13</title>
<path fill="none" stroke="black" d="M2044.47,-143.697C2043.37,-135.983 2042.05,-126.712 2040.82,-118.112"/>
<polygon fill="black" stroke="black" points="2044.27,-117.509 2039.39,-108.104 2037.34,-118.499 2044.27,-117.509"/>
</g>
<!-- ExpTemp14 -->
<g id="node5" class="node"><title>ExpTemp14</title>
<ellipse fill="none" stroke="black" cx="2163.95" cy="-90" rx="54.6905" ry="18"/>
<text text-anchor="middle" x="2163.95" y="-86.3" font-family="Times,serif" font-size="14.00">ExpTemp14</text>
</g>
<!-- ExpList0&#45;&gt;ExpTemp14 -->
<g id="edge3" class="edge"><title>ExpList0&#45;&gt;ExpTemp14</title>
<path fill="none" stroke="black" d="M2070.62,-146.834C2087.68,-136.626 2110.96,-122.7 2130,-111.31"/>
<polygon fill="black" stroke="black" points="2131.9,-114.251 2138.68,-106.114 2128.31,-108.244 2131.9,-114.251"/>
</g>
<!-- Temp13: T93 -->
<g id="node8" class="node"><title>Temp13: T93</title>
<ellipse fill="none" stroke="black" cx="2025.95" cy="-18" rx="59.5901" ry="18"/>
<text text-anchor="middle" x="2025.95" y="-14.3" font-family="Times,serif" font-size="14.00">Temp13: T93</text>
</g>
<!-- ExpTemp13&#45;&gt;Temp13: T93 -->
<g id="edge6" class="edge"><title>ExpTemp13&#45;&gt;Temp13: T93</title>
<path fill="none" stroke="black" d="M2034.23,-71.6966C2033.01,-63.9827 2031.56,-54.7125 2030.21,-46.1124"/>
<polygon fill="black" stroke="black" points="2033.64,-45.4397 2028.63,-36.1043 2026.73,-46.5265 2033.64,-45.4397"/>
</g>
<!-- Temp14: T94 -->
<g id="node62" class="node"><title>Temp14: T94</title>
<ellipse fill="none" stroke="black" cx="2163.95" cy="-18" rx="59.5901" ry="18"/>
<text text-anchor="middle" x="2163.95" y="-14.3" font-family="Times,serif" font-size="14.00">Temp14: T94</text>
</g>
<!-- ExpTemp14&#45;&gt;Temp14: T94 -->
<g id="edge60" class="edge"><title>ExpTemp14&#45;&gt;Temp14: T94</title>
<path fill="none" stroke="black" d="M2163.95,-71.6966C2163.95,-63.9827 2163.95,-54.7125 2163.95,-46.1124"/>
<polygon fill="black" stroke="black" points="2167.45,-46.1043 2163.95,-36.1043 2160.45,-46.1044 2167.45,-46.1043"/>
</g>
<!-- ExpTemp16 -->
<g id="node6" class="node"><title>ExpTemp16</title>
<ellipse fill="none" stroke="black" cx="2107.95" cy="-234" rx="54.6905" ry="18"/>
<text text-anchor="middle" x="2107.95" y="-230.3" font-family="Times,serif" font-size="14.00">ExpTemp16</text>
</g>
<!-- Temp16: T97 -->
<g id="node7" class="node"><title>Temp16: T97</title>
<ellipse fill="none" stroke="black" cx="2167.95" cy="-162" rx="59.5901" ry="18"/>
<text text-anchor="middle" x="2167.95" y="-158.3" font-family="Times,serif" font-size="14.00">Temp16: T97</text>
</g>
<!-- ExpTemp16&#45;&gt;Temp16: T97 -->
<g id="edge5" class="edge"><title>ExpTemp16&#45;&gt;Temp16: T97</title>
<path fill="none" stroke="black" d="M2122.16,-216.411C2129.53,-207.82 2138.67,-197.159 2146.84,-187.627"/>
<polygon fill="black" stroke="black" points="2149.56,-189.827 2153.41,-179.956 2144.25,-185.271 2149.56,-189.827"/>
</g>
<!-- StatMove6 -->
<g id="node9" class="node"><title>StatMove6</title>
<ellipse fill="none" stroke="black" cx="1799.95" cy="-306" rx="50.0912" ry="18"/>
<text text-anchor="middle" x="1799.95" y="-302.3" font-family="Times,serif" font-size="14.00">StatMove6</text>
</g>
<!-- ExpTemp11 -->
<g id="node10" class="node"><title>ExpTemp11</title>
<ellipse fill="none" stroke="black" cx="1799.95" cy="-234" rx="54.6905" ry="18"/>
<text text-anchor="middle" x="1799.95" y="-230.3" font-family="Times,serif" font-size="14.00">ExpTemp11</text>
</g>
<!-- StatMove6&#45;&gt;ExpTemp11 -->
<g id="edge7" class="edge"><title>StatMove6&#45;&gt;ExpTemp11</title>
<path fill="none" stroke="black" d="M1799.95,-287.697C1799.95,-279.983 1799.95,-270.712 1799.95,-262.112"/>
<polygon fill="black" stroke="black" points="1803.45,-262.104 1799.95,-252.104 1796.45,-262.104 1803.45,-262.104"/>
</g>
<!-- ExpCall0 -->
<g id="node11" class="node"><title>ExpCall0</title>
<ellipse fill="none" stroke="black" cx="1931.95" cy="-234" rx="44.393" ry="18"/>
<text text-anchor="middle" x="1931.95" y="-230.3" font-family="Times,serif" font-size="14.00">ExpCall0</text>
</g>
<!-- StatMove6&#45;&gt;ExpCall0 -->
<g id="edge8" class="edge"><title>StatMove6&#45;&gt;ExpCall0</title>
<path fill="none" stroke="black" d="M1826.98,-290.666C1847.17,-279.956 1874.95,-265.224 1896.86,-253.606"/>
<polygon fill="black" stroke="black" points="1898.66,-256.615 1905.85,-248.838 1895.38,-250.431 1898.66,-256.615"/>
</g>
<!-- Temp11: T96 -->
<g id="node67" class="node"><title>Temp11: T96</title>
<ellipse fill="none" stroke="black" cx="1799.95" cy="-162" rx="59.5901" ry="18"/>
<text text-anchor="middle" x="1799.95" y="-158.3" font-family="Times,serif" font-size="14.00">Temp11: T96</text>
</g>
<!-- ExpTemp11&#45;&gt;Temp11: T96 -->
<g id="edge64" class="edge"><title>ExpTemp11&#45;&gt;Temp11: T96</title>
<path fill="none" stroke="black" d="M1799.95,-215.697C1799.95,-207.983 1799.95,-198.712 1799.95,-190.112"/>
<polygon fill="black" stroke="black" points="1803.45,-190.104 1799.95,-180.104 1796.45,-190.104 1803.45,-190.104"/>
</g>
<!-- ExpCall0&#45;&gt;ExpList0 -->
<g id="edge51" class="edge"><title>ExpCall0&#45;&gt;ExpList0</title>
<path fill="none" stroke="black" d="M1955.49,-218.666C1972.63,-208.237 1996.02,-193.996 2014.86,-182.529"/>
<polygon fill="black" stroke="black" points="2016.71,-185.505 2023.43,-177.315 2013.07,-179.525 2016.71,-185.505"/>
</g>
<!-- ExpTemp12 -->
<g id="node55" class="node"><title>ExpTemp12</title>
<ellipse fill="none" stroke="black" cx="1931.95" cy="-162" rx="54.6905" ry="18"/>
<text text-anchor="middle" x="1931.95" y="-158.3" font-family="Times,serif" font-size="14.00">ExpTemp12</text>
</g>
<!-- ExpCall0&#45;&gt;ExpTemp12 -->
<g id="edge50" class="edge"><title>ExpCall0&#45;&gt;ExpTemp12</title>
<path fill="none" stroke="black" d="M1931.95,-215.697C1931.95,-207.983 1931.95,-198.712 1931.95,-190.112"/>
<polygon fill="black" stroke="black" points="1935.45,-190.104 1931.95,-180.104 1928.45,-190.104 1935.45,-190.104"/>
</g>
<!-- ExpMem3 -->
<g id="node12" class="node"><title>ExpMem3</title>
<ellipse fill="none" stroke="black" cx="1663.95" cy="-234" rx="48.9926" ry="18"/>
<text text-anchor="middle" x="1663.95" y="-230.3" font-family="Times,serif" font-size="14.00">ExpMem3</text>
</g>
<!-- ExpBinary2 -->
<g id="node13" class="node"><title>ExpBinary2</title>
<ellipse fill="none" stroke="black" cx="1668.95" cy="-162" rx="53.0913" ry="18"/>
<text text-anchor="middle" x="1668.95" y="-158.3" font-family="Times,serif" font-size="14.00">ExpBinary2</text>
</g>
<!-- ExpMem3&#45;&gt;ExpBinary2 -->
<g id="edge9" class="edge"><title>ExpMem3&#45;&gt;ExpBinary2</title>
<path fill="none" stroke="black" d="M1665.18,-215.697C1665.73,-207.983 1666.39,-198.712 1667.01,-190.112"/>
<polygon fill="black" stroke="black" points="1670.5,-190.328 1667.72,-180.104 1663.52,-189.83 1670.5,-190.328"/>
</g>
<!-- ExpConst2 -->
<g id="node14" class="node"><title>ExpConst2</title>
<ellipse fill="none" stroke="black" cx="1767.95" cy="-90" rx="50.0912" ry="18"/>
<text text-anchor="middle" x="1767.95" y="-86.3" font-family="Times,serif" font-size="14.00">ExpConst2</text>
</g>
<!-- ExpBinary2&#45;&gt;ExpConst2 -->
<g id="edge13" class="edge"><title>ExpBinary2&#45;&gt;ExpConst2</title>
<path fill="none" stroke="black" d="M1690.92,-145.465C1704.73,-135.7 1722.73,-122.972 1737.85,-112.276"/>
<polygon fill="black" stroke="black" points="1740.23,-114.882 1746.38,-106.251 1736.19,-109.167 1740.23,-114.882"/>
</g>
<!-- ExpTemp10 -->
<g id="node16" class="node"><title>ExpTemp10</title>
<ellipse fill="none" stroke="black" cx="1565.95" cy="-90" rx="54.6905" ry="18"/>
<text text-anchor="middle" x="1565.95" y="-86.3" font-family="Times,serif" font-size="14.00">ExpTemp10</text>
</g>
<!-- ExpBinary2&#45;&gt;ExpTemp10 -->
<g id="edge11" class="edge"><title>ExpBinary2&#45;&gt;ExpTemp10</title>
<path fill="none" stroke="black" d="M1646.34,-145.638C1631.95,-135.859 1613.11,-123.054 1597.29,-112.3"/>
<polygon fill="black" stroke="black" points="1599.09,-109.294 1588.85,-106.568 1595.16,-115.084 1599.09,-109.294"/>
</g>
<!-- Plus2 -->
<g id="node17" class="node"><title>Plus2</title>
<ellipse fill="none" stroke="black" cx="1668.95" cy="-90" rx="30.5947" ry="18"/>
<text text-anchor="middle" x="1668.95" y="-86.3" font-family="Times,serif" font-size="14.00">Plus2</text>
</g>
<!-- ExpBinary2&#45;&gt;Plus2 -->
<g id="edge12" class="edge"><title>ExpBinary2&#45;&gt;Plus2</title>
<path fill="none" stroke="black" d="M1668.95,-143.697C1668.95,-135.983 1668.95,-126.712 1668.95,-118.112"/>
<polygon fill="black" stroke="black" points="1672.45,-118.104 1668.95,-108.104 1665.45,-118.104 1672.45,-118.104"/>
</g>
<!-- Value2: 8 -->
<g id="node15" class="node"><title>Value2: 8</title>
<ellipse fill="none" stroke="black" cx="1767.95" cy="-18" rx="45.4919" ry="18"/>
<text text-anchor="middle" x="1767.95" y="-14.3" font-family="Times,serif" font-size="14.00">Value2: 8</text>
</g>
<!-- ExpConst2&#45;&gt;Value2: 8 -->
<g id="edge10" class="edge"><title>ExpConst2&#45;&gt;Value2: 8</title>
<path fill="none" stroke="black" d="M1767.95,-71.6966C1767.95,-63.9827 1767.95,-54.7125 1767.95,-46.1124"/>
<polygon fill="black" stroke="black" points="1771.45,-46.1043 1767.95,-36.1043 1764.45,-46.1044 1771.45,-46.1043"/>
</g>
<!-- Temp10: $fp -->
<g id="node38" class="node"><title>Temp10: $fp</title>
<ellipse fill="none" stroke="black" cx="1565.95" cy="-18" rx="57.3905" ry="18"/>
<text text-anchor="middle" x="1565.95" y="-14.3" font-family="Times,serif" font-size="14.00">Temp10: $fp</text>
</g>
<!-- ExpTemp10&#45;&gt;Temp10: $fp -->
<g id="edge30" class="edge"><title>ExpTemp10&#45;&gt;Temp10: $fp</title>
<path fill="none" stroke="black" d="M1565.95,-71.6966C1565.95,-63.9827 1565.95,-54.7125 1565.95,-46.1124"/>
<polygon fill="black" stroke="black" points="1569.45,-46.1043 1565.95,-36.1043 1562.45,-46.1044 1569.45,-46.1043"/>
</g>
<!-- ExpTemp9 -->
<g id="node18" class="node"><title>ExpTemp9</title>
<ellipse fill="none" stroke="black" cx="1541.95" cy="-234" rx="50.0912" ry="18"/>
<text text-anchor="middle" x="1541.95" y="-230.3" font-family="Times,serif" font-size="14.00">ExpTemp9</text>
</g>
<!-- Temp9: T95 -->
<g id="node19" class="node"><title>Temp9: T95</title>
<ellipse fill="none" stroke="black" cx="1541.95" cy="-162" rx="55.4913" ry="18"/>
<text text-anchor="middle" x="1541.95" y="-158.3" font-family="Times,serif" font-size="14.00">Temp9: T95</text>
</g>
<!-- ExpTemp9&#45;&gt;Temp9: T95 -->
<g id="edge14" class="edge"><title>ExpTemp9&#45;&gt;Temp9: T95</title>
<path fill="none" stroke="black" d="M1541.95,-215.697C1541.95,-207.983 1541.95,-198.712 1541.95,-190.112"/>
<polygon fill="black" stroke="black" points="1545.45,-190.104 1541.95,-180.104 1538.45,-190.104 1545.45,-190.104"/>
</g>
<!-- ExpName0 -->
<g id="node20" class="node"><title>ExpName0</title>
<ellipse fill="none" stroke="black" cx="1320.95" cy="-234" rx="50.8918" ry="18"/>
<text text-anchor="middle" x="1320.95" y="-230.3" font-family="Times,serif" font-size="14.00">ExpName0</text>
</g>
<!-- Label1: Tree@RemoveRight -->
<g id="node21" class="node"><title>Label1: Tree@RemoveRight</title>
<ellipse fill="none" stroke="black" cx="1354.95" cy="-162" rx="113.98" ry="18"/>
<text text-anchor="middle" x="1354.95" y="-158.3" font-family="Times,serif" font-size="14.00">Label1: Tree@RemoveRight</text>
</g>
<!-- ExpName0&#45;&gt;Label1: Tree@RemoveRight -->
<g id="edge15" class="edge"><title>ExpName0&#45;&gt;Label1: Tree@RemoveRight</title>
<path fill="none" stroke="black" d="M1329.18,-216.055C1333.04,-208.091 1337.75,-198.411 1342.07,-189.51"/>
<polygon fill="black" stroke="black" points="1345.33,-190.8 1346.55,-180.275 1339.04,-187.741 1345.33,-190.8"/>
</g>
<!-- StatMove5 -->
<g id="node22" class="node"><title>StatMove5</title>
<ellipse fill="none" stroke="black" cx="1541.95" cy="-306" rx="50.0912" ry="18"/>
<text text-anchor="middle" x="1541.95" y="-302.3" font-family="Times,serif" font-size="14.00">StatMove5</text>
</g>
<!-- StatMove5&#45;&gt;ExpMem3 -->
<g id="edge17" class="edge"><title>StatMove5&#45;&gt;ExpMem3</title>
<path fill="none" stroke="black" d="M1567.52,-290.326C1585.58,-279.965 1609.97,-265.969 1629.7,-254.646"/>
<polygon fill="black" stroke="black" points="1631.47,-257.668 1638.4,-249.655 1627.99,-251.596 1631.47,-257.668"/>
</g>
<!-- StatMove5&#45;&gt;ExpTemp9 -->
<g id="edge16" class="edge"><title>StatMove5&#45;&gt;ExpTemp9</title>
<path fill="none" stroke="black" d="M1541.95,-287.697C1541.95,-279.983 1541.95,-270.712 1541.95,-262.112"/>
<polygon fill="black" stroke="black" points="1545.45,-262.104 1541.95,-252.104 1538.45,-262.104 1545.45,-262.104"/>
</g>
<!-- ExpConst1 -->
<g id="node23" class="node"><title>ExpConst1</title>
<ellipse fill="none" stroke="black" cx="893.945" cy="-90" rx="50.0912" ry="18"/>
<text text-anchor="middle" x="893.945" y="-86.3" font-family="Times,serif" font-size="14.00">ExpConst1</text>
</g>
<!-- Value1: 4 -->
<g id="node24" class="node"><title>Value1: 4</title>
<ellipse fill="none" stroke="black" cx="893.945" cy="-18" rx="45.4919" ry="18"/>
<text text-anchor="middle" x="893.945" y="-14.3" font-family="Times,serif" font-size="14.00">Value1: 4</text>
</g>
<!-- ExpConst1&#45;&gt;Value1: 4 -->
<g id="edge18" class="edge"><title>ExpConst1&#45;&gt;Value1: 4</title>
<path fill="none" stroke="black" d="M893.945,-71.6966C893.945,-63.9827 893.945,-54.7125 893.945,-46.1124"/>
<polygon fill="black" stroke="black" points="897.445,-46.1043 893.945,-36.1043 890.445,-46.1044 897.445,-46.1043"/>
</g>
<!-- StatMove7 -->
<g id="node25" class="node"><title>StatMove7</title>
<ellipse fill="none" stroke="black" cx="2107.95" cy="-306" rx="50.0912" ry="18"/>
<text text-anchor="middle" x="2107.95" y="-302.3" font-family="Times,serif" font-size="14.00">StatMove7</text>
</g>
<!-- StatMove7&#45;&gt;ExpTemp16 -->
<g id="edge19" class="edge"><title>StatMove7&#45;&gt;ExpTemp16</title>
<path fill="none" stroke="black" d="M2107.95,-287.697C2107.95,-279.983 2107.95,-270.712 2107.95,-262.112"/>
<polygon fill="black" stroke="black" points="2111.45,-262.104 2107.95,-252.104 2104.45,-262.104 2111.45,-262.104"/>
</g>
<!-- ExpTemp17 -->
<g id="node26" class="node"><title>ExpTemp17</title>
<ellipse fill="none" stroke="black" cx="2234.95" cy="-234" rx="54.6905" ry="18"/>
<text text-anchor="middle" x="2234.95" y="-230.3" font-family="Times,serif" font-size="14.00">ExpTemp17</text>
</g>
<!-- StatMove7&#45;&gt;ExpTemp17 -->
<g id="edge20" class="edge"><title>StatMove7&#45;&gt;ExpTemp17</title>
<path fill="none" stroke="black" d="M2134.26,-290.496C2153.12,-280.101 2178.74,-265.981 2199.41,-254.585"/>
<polygon fill="black" stroke="black" points="2201.16,-257.619 2208.23,-249.726 2197.78,-251.488 2201.16,-257.619"/>
</g>
<!-- Temp17: T71 -->
<g id="node54" class="node"><title>Temp17: T71</title>
<ellipse fill="none" stroke="black" cx="2305.95" cy="-162" rx="59.5901" ry="18"/>
<text text-anchor="middle" x="2305.95" y="-158.3" font-family="Times,serif" font-size="14.00">Temp17: T71</text>
</g>
<!-- ExpTemp17&#45;&gt;Temp17: T71 -->
<g id="edge49" class="edge"><title>ExpTemp17&#45;&gt;Temp17: T71</title>
<path fill="none" stroke="black" d="M2251.41,-216.765C2260.42,-207.882 2271.75,-196.709 2281.75,-186.854"/>
<polygon fill="black" stroke="black" points="2284.41,-189.147 2289.07,-179.633 2279.5,-184.162 2284.41,-189.147"/>
</g>
<!-- StatMove4 -->
<g id="node27" class="node"><title>StatMove4</title>
<ellipse fill="none" stroke="black" cx="1167.95" cy="-306" rx="50.0912" ry="18"/>
<text text-anchor="middle" x="1167.95" y="-302.3" font-family="Times,serif" font-size="14.00">StatMove4</text>
</g>
<!-- StatMove4&#45;&gt;ExpName0 -->
<g id="edge22" class="edge"><title>StatMove4&#45;&gt;ExpName0</title>
<path fill="none" stroke="black" d="M1197.81,-291.337C1221.82,-280.352 1255.74,-264.832 1281.9,-252.863"/>
<polygon fill="black" stroke="black" points="1283.52,-255.972 1291.16,-248.628 1280.61,-249.606 1283.52,-255.972"/>
</g>
<!-- ExpTemp8 -->
<g id="node28" class="node"><title>ExpTemp8</title>
<ellipse fill="none" stroke="black" cx="1167.95" cy="-234" rx="50.0912" ry="18"/>
<text text-anchor="middle" x="1167.95" y="-230.3" font-family="Times,serif" font-size="14.00">ExpTemp8</text>
</g>
<!-- StatMove4&#45;&gt;ExpTemp8 -->
<g id="edge21" class="edge"><title>StatMove4&#45;&gt;ExpTemp8</title>
<path fill="none" stroke="black" d="M1167.95,-287.697C1167.95,-279.983 1167.95,-270.712 1167.95,-262.112"/>
<polygon fill="black" stroke="black" points="1171.45,-262.104 1167.95,-252.104 1164.45,-262.104 1171.45,-262.104"/>
</g>
<!-- Temp8: T92 -->
<g id="node37" class="node"><title>Temp8: T92</title>
<ellipse fill="none" stroke="black" cx="1167.95" cy="-162" rx="55.4913" ry="18"/>
<text text-anchor="middle" x="1167.95" y="-158.3" font-family="Times,serif" font-size="14.00">Temp8: T92</text>
</g>
<!-- ExpTemp8&#45;&gt;Temp8: T92 -->
<g id="edge29" class="edge"><title>ExpTemp8&#45;&gt;Temp8: T92</title>
<path fill="none" stroke="black" d="M1167.95,-215.697C1167.95,-207.983 1167.95,-198.712 1167.95,-190.112"/>
<polygon fill="black" stroke="black" points="1171.45,-190.104 1167.95,-180.104 1164.45,-190.104 1171.45,-190.104"/>
</g>
<!-- ExpMem0 -->
<g id="node29" class="node"><title>ExpMem0</title>
<ellipse fill="none" stroke="black" cx="292.945" cy="-234" rx="48.9926" ry="18"/>
<text text-anchor="middle" x="292.945" y="-230.3" font-family="Times,serif" font-size="14.00">ExpMem0</text>
</g>
<!-- ExpBinary0 -->
<g id="node30" class="node"><title>ExpBinary0</title>
<ellipse fill="none" stroke="black" cx="284.945" cy="-162" rx="53.0913" ry="18"/>
<text text-anchor="middle" x="284.945" y="-158.3" font-family="Times,serif" font-size="14.00">ExpBinary0</text>
</g>
<!-- ExpMem0&#45;&gt;ExpBinary0 -->
<g id="edge23" class="edge"><title>ExpMem0&#45;&gt;ExpBinary0</title>
<path fill="none" stroke="black" d="M290.968,-215.697C290.086,-207.983 289.027,-198.712 288.044,-190.112"/>
<polygon fill="black" stroke="black" points="291.513,-189.642 286.9,-180.104 284.558,-190.437 291.513,-189.642"/>
</g>
<!-- ExpConst0 -->
<g id="node43" class="node"><title>ExpConst0</title>
<ellipse fill="none" stroke="black" cx="383.945" cy="-90" rx="50.0912" ry="18"/>
<text text-anchor="middle" x="383.945" y="-86.3" font-family="Times,serif" font-size="14.00">ExpConst0</text>
</g>
<!-- ExpBinary0&#45;&gt;ExpConst0 -->
<g id="edge56" class="edge"><title>ExpBinary0&#45;&gt;ExpConst0</title>
<path fill="none" stroke="black" d="M306.917,-145.465C320.726,-135.7 338.727,-122.972 353.855,-112.276"/>
<polygon fill="black" stroke="black" points="356.231,-114.882 362.376,-106.251 352.19,-109.167 356.231,-114.882"/>
</g>
<!-- ExpTemp1 -->
<g id="node59" class="node"><title>ExpTemp1</title>
<ellipse fill="none" stroke="black" cx="185.945" cy="-90" rx="50.0912" ry="18"/>
<text text-anchor="middle" x="185.945" y="-86.3" font-family="Times,serif" font-size="14.00">ExpTemp1</text>
</g>
<!-- ExpBinary0&#45;&gt;ExpTemp1 -->
<g id="edge54" class="edge"><title>ExpBinary0&#45;&gt;ExpTemp1</title>
<path fill="none" stroke="black" d="M262.974,-145.465C249.164,-135.7 231.163,-122.972 216.036,-112.276"/>
<polygon fill="black" stroke="black" points="217.7,-109.167 207.514,-106.251 213.659,-114.882 217.7,-109.167"/>
</g>
<!-- Plus0 -->
<g id="node60" class="node"><title>Plus0</title>
<ellipse fill="none" stroke="black" cx="284.945" cy="-90" rx="30.5947" ry="18"/>
<text text-anchor="middle" x="284.945" y="-86.3" font-family="Times,serif" font-size="14.00">Plus0</text>
</g>
<!-- ExpBinary0&#45;&gt;Plus0 -->
<g id="edge55" class="edge"><title>ExpBinary0&#45;&gt;Plus0</title>
<path fill="none" stroke="black" d="M284.945,-143.697C284.945,-135.983 284.945,-126.712 284.945,-118.112"/>
<polygon fill="black" stroke="black" points="288.445,-118.104 284.945,-108.104 281.445,-118.104 288.445,-118.104"/>
</g>
<!-- ExpBinary1 -->
<g id="node31" class="node"><title>ExpBinary1</title>
<ellipse fill="none" stroke="black" cx="794.945" cy="-162" rx="53.0913" ry="18"/>
<text text-anchor="middle" x="794.945" y="-158.3" font-family="Times,serif" font-size="14.00">ExpBinary1</text>
</g>
<!-- ExpBinary1&#45;&gt;ExpConst1 -->
<g id="edge26" class="edge"><title>ExpBinary1&#45;&gt;ExpConst1</title>
<path fill="none" stroke="black" d="M816.917,-145.465C830.726,-135.7 848.727,-122.972 863.855,-112.276"/>
<polygon fill="black" stroke="black" points="866.231,-114.882 872.376,-106.251 862.19,-109.167 866.231,-114.882"/>
</g>
<!-- ExpTemp5 -->
<g id="node32" class="node"><title>ExpTemp5</title>
<ellipse fill="none" stroke="black" cx="695.945" cy="-90" rx="50.0912" ry="18"/>
<text text-anchor="middle" x="695.945" y="-86.3" font-family="Times,serif" font-size="14.00">ExpTemp5</text>
</g>
<!-- ExpBinary1&#45;&gt;ExpTemp5 -->
<g id="edge24" class="edge"><title>ExpBinary1&#45;&gt;ExpTemp5</title>
<path fill="none" stroke="black" d="M772.974,-145.465C759.164,-135.7 741.163,-122.972 726.036,-112.276"/>
<polygon fill="black" stroke="black" points="727.7,-109.167 717.514,-106.251 723.659,-114.882 727.7,-109.167"/>
</g>
<!-- Plus1 -->
<g id="node33" class="node"><title>Plus1</title>
<ellipse fill="none" stroke="black" cx="794.945" cy="-90" rx="30.5947" ry="18"/>
<text text-anchor="middle" x="794.945" y="-86.3" font-family="Times,serif" font-size="14.00">Plus1</text>
</g>
<!-- ExpBinary1&#45;&gt;Plus1 -->
<g id="edge25" class="edge"><title>ExpBinary1&#45;&gt;Plus1</title>
<path fill="none" stroke="black" d="M794.945,-143.697C794.945,-135.983 794.945,-126.712 794.945,-118.112"/>
<polygon fill="black" stroke="black" points="798.445,-118.104 794.945,-108.104 791.445,-118.104 798.445,-118.104"/>
</g>
<!-- Temp5: $fp -->
<g id="node64" class="node"><title>Temp5: $fp</title>
<ellipse fill="none" stroke="black" cx="695.945" cy="-18" rx="52.7911" ry="18"/>
<text text-anchor="middle" x="695.945" y="-14.3" font-family="Times,serif" font-size="14.00">Temp5: $fp</text>
</g>
<!-- ExpTemp5&#45;&gt;Temp5: $fp -->
<g id="edge62" class="edge"><title>ExpTemp5&#45;&gt;Temp5: $fp</title>
<path fill="none" stroke="black" d="M695.945,-71.6966C695.945,-63.9827 695.945,-54.7125 695.945,-46.1124"/>
<polygon fill="black" stroke="black" points="699.445,-46.1043 695.945,-36.1043 692.445,-46.1044 699.445,-46.1043"/>
</g>
<!-- StatMove1 -->
<g id="node34" class="node"><title>StatMove1</title>
<ellipse fill="none" stroke="black" cx="539.945" cy="-306" rx="50.0912" ry="18"/>
<text text-anchor="middle" x="539.945" y="-302.3" font-family="Times,serif" font-size="14.00">StatMove1</text>
</g>
<!-- ExpTemp2 -->
<g id="node35" class="node"><title>ExpTemp2</title>
<ellipse fill="none" stroke="black" cx="416.945" cy="-234" rx="50.0912" ry="18"/>
<text text-anchor="middle" x="416.945" y="-230.3" font-family="Times,serif" font-size="14.00">ExpTemp2</text>
</g>
<!-- StatMove1&#45;&gt;ExpTemp2 -->
<g id="edge27" class="edge"><title>StatMove1&#45;&gt;ExpTemp2</title>
<path fill="none" stroke="black" d="M514.46,-290.496C496.275,-280.147 471.605,-266.107 451.629,-254.739"/>
<polygon fill="black" stroke="black" points="453.244,-251.631 442.821,-249.726 449.781,-257.714 453.244,-251.631"/>
</g>
<!-- ExpTemp3 -->
<g id="node36" class="node"><title>ExpTemp3</title>
<ellipse fill="none" stroke="black" cx="539.945" cy="-234" rx="50.0912" ry="18"/>
<text text-anchor="middle" x="539.945" y="-230.3" font-family="Times,serif" font-size="14.00">ExpTemp3</text>
</g>
<!-- StatMove1&#45;&gt;ExpTemp3 -->
<g id="edge28" class="edge"><title>StatMove1&#45;&gt;ExpTemp3</title>
<path fill="none" stroke="black" d="M539.945,-287.697C539.945,-279.983 539.945,-270.712 539.945,-262.112"/>
<polygon fill="black" stroke="black" points="543.445,-262.104 539.945,-252.104 536.445,-262.104 543.445,-262.104"/>
</g>
<!-- Temp2: T96 -->
<g id="node39" class="node"><title>Temp2: T96</title>
<ellipse fill="none" stroke="black" cx="411.945" cy="-162" rx="55.4913" ry="18"/>
<text text-anchor="middle" x="411.945" y="-158.3" font-family="Times,serif" font-size="14.00">Temp2: T96</text>
</g>
<!-- ExpTemp2&#45;&gt;Temp2: T96 -->
<g id="edge31" class="edge"><title>ExpTemp2&#45;&gt;Temp2: T96</title>
<path fill="none" stroke="black" d="M415.709,-215.697C415.158,-207.983 414.496,-198.712 413.882,-190.112"/>
<polygon fill="black" stroke="black" points="417.371,-189.83 413.167,-180.104 410.388,-190.328 417.371,-189.83"/>
</g>
<!-- Temp3: T71 -->
<g id="node61" class="node"><title>Temp3: T71</title>
<ellipse fill="none" stroke="black" cx="539.945" cy="-162" rx="55.4913" ry="18"/>
<text text-anchor="middle" x="539.945" y="-158.3" font-family="Times,serif" font-size="14.00">Temp3: T71</text>
</g>
<!-- ExpTemp3&#45;&gt;Temp3: T71 -->
<g id="edge59" class="edge"><title>ExpTemp3&#45;&gt;Temp3: T71</title>
<path fill="none" stroke="black" d="M539.945,-215.697C539.945,-207.983 539.945,-198.712 539.945,-190.112"/>
<polygon fill="black" stroke="black" points="543.445,-190.104 539.945,-180.104 536.445,-190.104 543.445,-190.104"/>
</g>
<!-- StatMove2 -->
<g id="node40" class="node"><title>StatMove2</title>
<ellipse fill="none" stroke="black" cx="794.945" cy="-306" rx="50.0912" ry="18"/>
<text text-anchor="middle" x="794.945" y="-302.3" font-family="Times,serif" font-size="14.00">StatMove2</text>
</g>
<!-- ExpTemp4 -->
<g id="node41" class="node"><title>ExpTemp4</title>
<ellipse fill="none" stroke="black" cx="672.945" cy="-234" rx="50.0912" ry="18"/>
<text text-anchor="middle" x="672.945" y="-230.3" font-family="Times,serif" font-size="14.00">ExpTemp4</text>
</g>
<!-- StatMove2&#45;&gt;ExpTemp4 -->
<g id="edge32" class="edge"><title>StatMove2&#45;&gt;ExpTemp4</title>
<path fill="none" stroke="black" d="M769.37,-290.326C751.314,-279.965 726.92,-265.969 707.186,-254.646"/>
<polygon fill="black" stroke="black" points="708.902,-251.596 698.487,-249.655 705.419,-257.668 708.902,-251.596"/>
</g>
<!-- ExpMem1 -->
<g id="node42" class="node"><title>ExpMem1</title>
<ellipse fill="none" stroke="black" cx="794.945" cy="-234" rx="48.9926" ry="18"/>
<text text-anchor="middle" x="794.945" y="-230.3" font-family="Times,serif" font-size="14.00">ExpMem1</text>
</g>
<!-- StatMove2&#45;&gt;ExpMem1 -->
<g id="edge33" class="edge"><title>StatMove2&#45;&gt;ExpMem1</title>
<path fill="none" stroke="black" d="M794.945,-287.697C794.945,-279.983 794.945,-270.712 794.945,-262.112"/>
<polygon fill="black" stroke="black" points="798.445,-262.104 794.945,-252.104 791.445,-262.104 798.445,-262.104"/>
</g>
<!-- Temp4: T94 -->
<g id="node68" class="node"><title>Temp4: T94</title>
<ellipse fill="none" stroke="black" cx="667.945" cy="-162" rx="55.4913" ry="18"/>
<text text-anchor="middle" x="667.945" y="-158.3" font-family="Times,serif" font-size="14.00">Temp4: T94</text>
</g>
<!-- ExpTemp4&#45;&gt;Temp4: T94 -->
<g id="edge67" class="edge"><title>ExpTemp4&#45;&gt;Temp4: T94</title>
<path fill="none" stroke="black" d="M671.709,-215.697C671.158,-207.983 670.496,-198.712 669.882,-190.112"/>
<polygon fill="black" stroke="black" points="673.371,-189.83 669.167,-180.104 666.388,-190.328 673.371,-189.83"/>
</g>
<!-- ExpMem1&#45;&gt;ExpBinary1 -->
<g id="edge35" class="edge"><title>ExpMem1&#45;&gt;ExpBinary1</title>
<path fill="none" stroke="black" d="M794.945,-215.697C794.945,-207.983 794.945,-198.712 794.945,-190.112"/>
<polygon fill="black" stroke="black" points="798.445,-190.104 794.945,-180.104 791.445,-190.104 798.445,-190.104"/>
</g>
<!-- Value0: 24 -->
<g id="node44" class="node"><title>Value0: 24</title>
<ellipse fill="none" stroke="black" cx="383.945" cy="-18" rx="50.0912" ry="18"/>
<text text-anchor="middle" x="383.945" y="-14.3" font-family="Times,serif" font-size="14.00">Value0: 24</text>
</g>
<!-- ExpConst0&#45;&gt;Value0: 24 -->
<g id="edge34" class="edge"><title>ExpConst0&#45;&gt;Value0: 24</title>
<path fill="none" stroke="black" d="M383.945,-71.6966C383.945,-63.9827 383.945,-54.7125 383.945,-46.1124"/>
<polygon fill="black" stroke="black" points="387.445,-46.1043 383.945,-36.1043 380.445,-46.1044 387.445,-46.1043"/>
</g>
<!-- StatLabel0 -->
<g id="node45" class="node"><title>StatLabel0</title>
<ellipse fill="none" stroke="black" cx="114.945" cy="-306" rx="48.9926" ry="18"/>
<text text-anchor="middle" x="114.945" y="-302.3" font-family="Times,serif" font-size="14.00">StatLabel0</text>
</g>
<!-- Label0: L43 -->
<g id="node46" class="node"><title>Label0: L43</title>
<ellipse fill="none" stroke="black" cx="53.9452" cy="-234" rx="53.8905" ry="18"/>
<text text-anchor="middle" x="53.9452" y="-230.3" font-family="Times,serif" font-size="14.00">Label0: L43</text>
</g>
<!-- StatLabel0&#45;&gt;Label0: L43 -->
<g id="edge36" class="edge"><title>StatLabel0&#45;&gt;Label0: L43</title>
<path fill="none" stroke="black" d="M100.797,-288.765C93.2083,-280.056 83.7016,-269.147 75.2386,-259.435"/>
<polygon fill="black" stroke="black" points="77.6485,-256.873 68.44,-251.633 72.3712,-261.472 77.6485,-256.873"/>
</g>
<!-- StatList0 -->
<g id="node47" class="node"><title>StatList0</title>
<ellipse fill="none" stroke="black" cx="1105.95" cy="-378" rx="42.4939" ry="18"/>
<text text-anchor="middle" x="1105.95" y="-374.3" font-family="Times,serif" font-size="14.00">StatList0</text>
</g>
<!-- StatList0&#45;&gt;StatMove6 -->
<g id="edge44" class="edge"><title>StatList0&#45;&gt;StatMove6</title>
<path fill="none" stroke="black" d="M1146.51,-372.908C1264.06,-361.052 1605.18,-326.645 1742.09,-312.836"/>
<polygon fill="black" stroke="black" points="1742.77,-316.285 1752.36,-311.799 1742.06,-309.321 1742.77,-316.285"/>
</g>
<!-- StatList0&#45;&gt;StatMove5 -->
<g id="edge43" class="edge"><title>StatList0&#45;&gt;StatMove5</title>
<path fill="none" stroke="black" d="M1145.02,-370.726C1223.01,-358.205 1398.13,-330.09 1487.39,-315.759"/>
<polygon fill="black" stroke="black" points="1488,-319.206 1497.32,-314.165 1486.89,-312.295 1488,-319.206"/>
</g>
<!-- StatList0&#45;&gt;StatMove7 -->
<g id="edge45" class="edge"><title>StatList0&#45;&gt;StatMove7</title>
<path fill="none" stroke="black" d="M1147.41,-374.103C1304.81,-363.107 1865.73,-323.922 2049.31,-311.096"/>
<polygon fill="black" stroke="black" points="2049.59,-314.586 2059.32,-310.397 2049.1,-307.603 2049.59,-314.586"/>
</g>
<!-- StatList0&#45;&gt;StatMove4 -->
<g id="edge42" class="edge"><title>StatList0&#45;&gt;StatMove4</title>
<path fill="none" stroke="black" d="M1120.33,-360.765C1128.12,-351.969 1137.89,-340.928 1146.56,-331.144"/>
<polygon fill="black" stroke="black" points="1149.2,-333.44 1153.21,-323.633 1143.96,-328.799 1149.2,-333.44"/>
</g>
<!-- StatList0&#45;&gt;StatMove1 -->
<g id="edge39" class="edge"><title>StatList0&#45;&gt;StatMove1</title>
<path fill="none" stroke="black" d="M1065.69,-372.022C966.651,-359.773 710.889,-328.141 596.59,-314.006"/>
<polygon fill="black" stroke="black" points="596.99,-310.528 586.636,-312.774 596.13,-317.475 596.99,-310.528"/>
</g>
<!-- StatList0&#45;&gt;StatMove2 -->
<g id="edge40" class="edge"><title>StatList0&#45;&gt;StatMove2</title>
<path fill="none" stroke="black" d="M1069.36,-368.764C1014.07,-356.32 909.032,-332.679 846.168,-318.529"/>
<polygon fill="black" stroke="black" points="846.602,-315.039 836.077,-316.258 845.065,-321.869 846.602,-315.039"/>
</g>
<!-- StatList0&#45;&gt;StatLabel0 -->
<g id="edge37" class="edge"><title>StatList0&#45;&gt;StatLabel0</title>
<path fill="none" stroke="black" d="M1063.65,-375.647C937.343,-371.347 551.947,-356.325 233.945,-324 212.542,-321.824 189.081,-318.644 168.689,-315.622"/>
<polygon fill="black" stroke="black" points="169.051,-312.137 158.641,-314.109 168.009,-319.059 169.051,-312.137"/>
</g>
<!-- StatMove0 -->
<g id="node48" class="node"><title>StatMove0</title>
<ellipse fill="none" stroke="black" cx="292.945" cy="-306" rx="50.0912" ry="18"/>
<text text-anchor="middle" x="292.945" y="-302.3" font-family="Times,serif" font-size="14.00">StatMove0</text>
</g>
<!-- StatList0&#45;&gt;StatMove0 -->
<g id="edge38" class="edge"><title>StatList0&#45;&gt;StatMove0</title>
<path fill="none" stroke="black" d="M1064.62,-373.576C964.478,-365.261 700.89,-343.27 480.945,-324 437.377,-320.183 388.143,-315.726 350.99,-312.333"/>
<polygon fill="black" stroke="black" points="351.124,-308.831 340.847,-311.406 350.486,-315.802 351.124,-308.831"/>
</g>
<!-- StatMove3 -->
<g id="node49" class="node"><title>StatMove3</title>
<ellipse fill="none" stroke="black" cx="1044.95" cy="-306" rx="50.0912" ry="18"/>
<text text-anchor="middle" x="1044.95" y="-302.3" font-family="Times,serif" font-size="14.00">StatMove3</text>
</g>
<!-- StatList0&#45;&gt;StatMove3 -->
<g id="edge41" class="edge"><title>StatList0&#45;&gt;StatMove3</title>
<path fill="none" stroke="black" d="M1091.8,-360.765C1084.21,-352.056 1074.7,-341.147 1066.24,-331.435"/>
<polygon fill="black" stroke="black" points="1068.65,-328.873 1059.44,-323.633 1063.37,-333.472 1068.65,-328.873"/>
</g>
<!-- StatJump0 -->
<g id="node50" class="node"><title>StatJump0</title>
<ellipse fill="none" stroke="black" cx="2292.95" cy="-306" rx="48.1917" ry="18"/>
<text text-anchor="middle" x="2292.95" y="-302.3" font-family="Times,serif" font-size="14.00">StatJump0</text>
</g>
<!-- StatList0&#45;&gt;StatJump0 -->
<g id="edge46" class="edge"><title>StatList0&#45;&gt;StatJump0</title>
<path fill="none" stroke="black" d="M1147.99,-376.171C1290.99,-373.082 1771.64,-360.476 2166.95,-324 2190.77,-321.802 2217.01,-318.417 2239.35,-315.245"/>
<polygon fill="black" stroke="black" points="2239.92,-318.699 2249.31,-313.807 2238.92,-311.771 2239.92,-318.699"/>
</g>
<!-- StatMove0&#45;&gt;ExpMem0 -->
<g id="edge58" class="edge"><title>StatMove0&#45;&gt;ExpMem0</title>
<path fill="none" stroke="black" d="M292.945,-287.697C292.945,-279.983 292.945,-270.712 292.945,-262.112"/>
<polygon fill="black" stroke="black" points="296.445,-262.104 292.945,-252.104 289.445,-262.104 296.445,-262.104"/>
</g>
<!-- ExpTemp0 -->
<g id="node51" class="node"><title>ExpTemp0</title>
<ellipse fill="none" stroke="black" cx="175.945" cy="-234" rx="50.0912" ry="18"/>
<text text-anchor="middle" x="175.945" y="-230.3" font-family="Times,serif" font-size="14.00">ExpTemp0</text>
</g>
<!-- StatMove0&#45;&gt;ExpTemp0 -->
<g id="edge57" class="edge"><title>StatMove0&#45;&gt;ExpTemp0</title>
<path fill="none" stroke="black" d="M268.133,-290.155C251.069,-279.946 228.206,-266.267 209.517,-255.086"/>
<polygon fill="black" stroke="black" points="211.101,-251.955 200.722,-249.824 207.507,-257.962 211.101,-251.955"/>
</g>
<!-- ExpMem2 -->
<g id="node56" class="node"><title>ExpMem2</title>
<ellipse fill="none" stroke="black" cx="1044.95" cy="-234" rx="48.9926" ry="18"/>
<text text-anchor="middle" x="1044.95" y="-230.3" font-family="Times,serif" font-size="14.00">ExpMem2</text>
</g>
<!-- StatMove3&#45;&gt;ExpMem2 -->
<g id="edge66" class="edge"><title>StatMove3&#45;&gt;ExpMem2</title>
<path fill="none" stroke="black" d="M1044.95,-287.697C1044.95,-279.983 1044.95,-270.712 1044.95,-262.112"/>
<polygon fill="black" stroke="black" points="1048.45,-262.104 1044.95,-252.104 1041.45,-262.104 1048.45,-262.104"/>
</g>
<!-- ExpTemp6 -->
<g id="node65" class="node"><title>ExpTemp6</title>
<ellipse fill="none" stroke="black" cx="924.945" cy="-234" rx="50.0912" ry="18"/>
<text text-anchor="middle" x="924.945" y="-230.3" font-family="Times,serif" font-size="14.00">ExpTemp6</text>
</g>
<!-- StatMove3&#45;&gt;ExpTemp6 -->
<g id="edge65" class="edge"><title>StatMove3&#45;&gt;ExpTemp6</title>
<path fill="none" stroke="black" d="M1019.79,-290.326C1002.11,-280.012 978.251,-266.095 958.887,-254.8"/>
<polygon fill="black" stroke="black" points="960.469,-251.671 950.068,-249.655 956.942,-257.717 960.469,-251.671"/>
</g>
<!-- Label2: L45 -->
<g id="node53" class="node"><title>Label2: L45</title>
<ellipse fill="none" stroke="black" cx="2361.95" cy="-234" rx="53.8905" ry="18"/>
<text text-anchor="middle" x="2361.95" y="-230.3" font-family="Times,serif" font-size="14.00">Label2: L45</text>
</g>
<!-- StatJump0&#45;&gt;Label2: L45 -->
<g id="edge48" class="edge"><title>StatJump0&#45;&gt;Label2: L45</title>
<path fill="none" stroke="black" d="M2308.95,-288.765C2317.7,-279.882 2328.72,-268.709 2338.43,-258.854"/>
<polygon fill="black" stroke="black" points="2341.02,-261.212 2345.55,-251.633 2336.04,-256.298 2341.02,-261.212"/>
</g>
<!-- Temp0: T97 -->
<g id="node52" class="node"><title>Temp0: T97</title>
<ellipse fill="none" stroke="black" cx="157.945" cy="-162" rx="55.4913" ry="18"/>
<text text-anchor="middle" x="157.945" y="-158.3" font-family="Times,serif" font-size="14.00">Temp0: T97</text>
</g>
<!-- ExpTemp0&#45;&gt;Temp0: T97 -->
<g id="edge47" class="edge"><title>ExpTemp0&#45;&gt;Temp0: T97</title>
<path fill="none" stroke="black" d="M171.588,-216.055C169.584,-208.261 167.157,-198.822 164.908,-190.079"/>
<polygon fill="black" stroke="black" points="168.268,-189.089 162.387,-180.275 161.488,-190.832 168.268,-189.089"/>
</g>
<!-- Temp12: T92 -->
<g id="node58" class="node"><title>Temp12: T92</title>
<ellipse fill="none" stroke="black" cx="1904.95" cy="-90" rx="59.5901" ry="18"/>
<text text-anchor="middle" x="1904.95" y="-86.3" font-family="Times,serif" font-size="14.00">Temp12: T92</text>
</g>
<!-- ExpTemp12&#45;&gt;Temp12: T92 -->
<g id="edge53" class="edge"><title>ExpTemp12&#45;&gt;Temp12: T92</title>
<path fill="none" stroke="black" d="M1925.41,-144.055C1922.37,-136.176 1918.68,-126.617 1915.28,-117.794"/>
<polygon fill="black" stroke="black" points="1918.47,-116.346 1911.61,-108.275 1911.94,-118.865 1918.47,-116.346"/>
</g>
<!-- ExpTemp7 -->
<g id="node57" class="node"><title>ExpTemp7</title>
<ellipse fill="none" stroke="black" cx="1044.95" cy="-162" rx="50.0912" ry="18"/>
<text text-anchor="middle" x="1044.95" y="-158.3" font-family="Times,serif" font-size="14.00">ExpTemp7</text>
</g>
<!-- ExpMem2&#45;&gt;ExpTemp7 -->
<g id="edge52" class="edge"><title>ExpMem2&#45;&gt;ExpTemp7</title>
<path fill="none" stroke="black" d="M1044.95,-215.697C1044.95,-207.983 1044.95,-198.712 1044.95,-190.112"/>
<polygon fill="black" stroke="black" points="1048.45,-190.104 1044.95,-180.104 1041.45,-190.104 1048.45,-190.104"/>
</g>
<!-- Temp7: $fp -->
<g id="node69" class="node"><title>Temp7: $fp</title>
<ellipse fill="none" stroke="black" cx="1044.95" cy="-90" rx="52.7911" ry="18"/>
<text text-anchor="middle" x="1044.95" y="-86.3" font-family="Times,serif" font-size="14.00">Temp7: $fp</text>
</g>
<!-- ExpTemp7&#45;&gt;Temp7: $fp -->
<g id="edge68" class="edge"><title>ExpTemp7&#45;&gt;Temp7: $fp</title>
<path fill="none" stroke="black" d="M1044.95,-143.697C1044.95,-135.983 1044.95,-126.712 1044.95,-118.112"/>
<polygon fill="black" stroke="black" points="1048.45,-118.104 1044.95,-108.104 1041.45,-118.104 1048.45,-118.104"/>
</g>
<!-- Temp1: $fp -->
<g id="node63" class="node"><title>Temp1: $fp</title>
<ellipse fill="none" stroke="black" cx="185.945" cy="-18" rx="52.7911" ry="18"/>
<text text-anchor="middle" x="185.945" y="-14.3" font-family="Times,serif" font-size="14.00">Temp1: $fp</text>
</g>
<!-- ExpTemp1&#45;&gt;Temp1: $fp -->
<g id="edge61" class="edge"><title>ExpTemp1&#45;&gt;Temp1: $fp</title>
<path fill="none" stroke="black" d="M185.945,-71.6966C185.945,-63.9827 185.945,-54.7125 185.945,-46.1124"/>
<polygon fill="black" stroke="black" points="189.445,-46.1043 185.945,-36.1043 182.445,-46.1044 189.445,-46.1043"/>
</g>
<!-- Temp6: T93 -->
<g id="node66" class="node"><title>Temp6: T93</title>
<ellipse fill="none" stroke="black" cx="921.945" cy="-162" rx="55.4913" ry="18"/>
<text text-anchor="middle" x="921.945" y="-158.3" font-family="Times,serif" font-size="14.00">Temp6: T93</text>
</g>
<!-- ExpTemp6&#45;&gt;Temp6: T93 -->
<g id="edge63" class="edge"><title>ExpTemp6&#45;&gt;Temp6: T93</title>
<path fill="none" stroke="black" d="M924.204,-215.697C923.873,-207.983 923.476,-198.712 923.107,-190.112"/>
<polygon fill="black" stroke="black" points="926.603,-189.945 922.678,-180.104 919.61,-190.245 926.603,-189.945"/>
</g>
</g>
</svg>
