<?xml version="1.0" encoding="UTF-8" standalone="no"?>
<!DOCTYPE svg PUBLIC "-//W3C//DTD SVG 1.1//EN"
 "http://www.w3.org/Graphics/SVG/1.1/DTD/svg11.dtd">
<!-- Generated by graphviz version 2.38.0 (20140413.2041)
 -->
<!-- Title: %3 Pages: 1 -->
<svg width="326pt" height="188pt"
 viewBox="0.00 0.00 326.19 188.00" xmlns="http://www.w3.org/2000/svg" xmlns:xlink="http://www.w3.org/1999/xlink">
<g id="graph0" class="graph" transform="scale(1 1) rotate(0) translate(4 184)">
<title>%3</title>
<polygon fill="white" stroke="none" points="-4,4 -4,-184 322.191,-184 322.191,4 -4,4"/>
<!-- MoveRegister0 -->
<g id="node1" class="node"><title>MoveRegister0</title>
<ellipse fill="none" stroke="black" cx="111.696" cy="-162" rx="65.7887" ry="18"/>
<text text-anchor="middle" x="111.696" y="-158.3" font-family="Times,serif" font-size="14.00">MoveRegister0</text>
</g>
<!-- Temp0 -->
<g id="node2" class="node"><title>Temp0</title>
<ellipse fill="none" stroke="black" cx="54.6955" cy="-90" rx="36.2938" ry="18"/>
<text text-anchor="middle" x="54.6955" y="-86.3" font-family="Times,serif" font-size="14.00">Temp0</text>
</g>
<!-- MoveRegister0&#45;&gt;Temp0 -->
<g id="edge1" class="edge"><title>MoveRegister0&#45;&gt;Temp0</title>
<path fill="none" stroke="black" d="M97.8974,-144.055C90.8641,-135.418 82.1857,-124.76 74.4567,-115.268"/>
<polygon fill="black" stroke="black" points="77.0024,-112.851 67.9741,-107.307 71.5743,-117.271 77.0024,-112.851"/>
</g>
<!-- AddConst0 -->
<g id="node3" class="node"><title>AddConst0</title>
<ellipse fill="none" stroke="black" cx="164.696" cy="-90" rx="50.8918" ry="18"/>
<text text-anchor="middle" x="164.696" y="-86.3" font-family="Times,serif" font-size="14.00">AddConst0</text>
</g>
<!-- MoveRegister0&#45;&gt;AddConst0 -->
<g id="edge2" class="edge"><title>MoveRegister0&#45;&gt;AddConst0</title>
<path fill="none" stroke="black" d="M124.525,-144.055C130.905,-135.629 138.741,-125.28 145.792,-115.966"/>
<polygon fill="black" stroke="black" points="148.738,-117.874 151.984,-107.789 143.157,-113.649 148.738,-117.874"/>
</g>
<!-- Temp1: T6 -->
<g id="node6" class="node"><title>Temp1: T6</title>
<ellipse fill="none" stroke="black" cx="50.6955" cy="-18" rx="50.8918" ry="18"/>
<text text-anchor="middle" x="50.6955" y="-14.3" font-family="Times,serif" font-size="14.00">Temp1: T6</text>
</g>
<!-- Temp0&#45;&gt;Temp1: T6 -->
<g id="edge5" class="edge"><title>Temp0&#45;&gt;Temp1: T6</title>
<path fill="none" stroke="black" d="M53.7067,-71.6966C53.2659,-63.9827 52.7362,-54.7125 52.2448,-46.1124"/>
<polygon fill="black" stroke="black" points="55.7378,-45.8883 51.6729,-36.1043 48.7492,-46.2878 55.7378,-45.8883"/>
</g>
<!-- NullExp0 -->
<g id="node4" class="node"><title>NullExp0</title>
<ellipse fill="none" stroke="black" cx="164.696" cy="-18" rx="44.6926" ry="18"/>
<text text-anchor="middle" x="164.696" y="-14.3" font-family="Times,serif" font-size="14.00">NullExp0</text>
</g>
<!-- AddConst0&#45;&gt;NullExp0 -->
<g id="edge3" class="edge"><title>AddConst0&#45;&gt;NullExp0</title>
<path fill="none" stroke="black" d="M164.696,-71.6966C164.696,-63.9827 164.696,-54.7125 164.696,-46.1124"/>
<polygon fill="black" stroke="black" points="168.196,-46.1043 164.696,-36.1043 161.196,-46.1044 168.196,-46.1043"/>
</g>
<!-- Value0: 2 -->
<g id="node5" class="node"><title>Value0: 2</title>
<ellipse fill="none" stroke="black" cx="272.696" cy="-18" rx="45.4919" ry="18"/>
<text text-anchor="middle" x="272.696" y="-14.3" font-family="Times,serif" font-size="14.00">Value0: 2</text>
</g>
<!-- AddConst0&#45;&gt;Value0: 2 -->
<g id="edge4" class="edge"><title>AddConst0&#45;&gt;Value0: 2</title>
<path fill="none" stroke="black" d="M187.864,-73.9832C203.487,-63.8573 224.288,-50.3753 241.382,-39.2959"/>
<polygon fill="black" stroke="black" points="243.448,-42.1277 249.936,-33.7517 239.641,-36.2536 243.448,-42.1277"/>
</g>
</g>
</svg>
