<?xml version="1.0" encoding="UTF-8" standalone="no"?>
<!DOCTYPE svg PUBLIC "-//W3C//DTD SVG 1.1//EN"
 "http://www.w3.org/Graphics/SVG/1.1/DTD/svg11.dtd">
<!-- Generated by graphviz version 2.38.0 (20140413.2041)
 -->
<!-- Title: %3 Pages: 1 -->
<svg width="996pt" height="404pt"
 viewBox="0.00 0.00 995.69 404.00" xmlns="http://www.w3.org/2000/svg" xmlns:xlink="http://www.w3.org/1999/xlink">
<g id="graph0" class="graph" transform="scale(1 1) rotate(0) translate(4 400)">
<title>%3</title>
<polygon fill="white" stroke="none" points="-4,4 -4,-400 991.691,-400 991.691,4 -4,4"/>
<!-- StatJump0 -->
<g id="node1" class="node"><title>StatJump0</title>
<ellipse fill="none" stroke="black" cx="877.645" cy="-306" rx="48.1917" ry="18"/>
<text text-anchor="middle" x="877.645" y="-302.3" font-family="Times,serif" font-size="14.00">StatJump0</text>
</g>
<!-- Label1: L9 -->
<g id="node2" class="node"><title>Label1: L9</title>
<ellipse fill="none" stroke="black" cx="937.645" cy="-234" rx="50.0912" ry="18"/>
<text text-anchor="middle" x="937.645" y="-230.3" font-family="Times,serif" font-size="14.00">Label1: L9</text>
</g>
<!-- StatJump0&#45;&gt;Label1: L9 -->
<g id="edge1" class="edge"><title>StatJump0&#45;&gt;Label1: L9</title>
<path fill="none" stroke="black" d="M891.561,-288.765C899.026,-280.056 908.377,-269.147 916.701,-259.435"/>
<polygon fill="black" stroke="black" points="919.538,-261.504 923.388,-251.633 914.223,-256.948 919.538,-261.504"/>
</g>
<!-- ExpConst4 -->
<g id="node3" class="node"><title>ExpConst4</title>
<ellipse fill="none" stroke="black" cx="884.645" cy="-90" rx="50.0912" ry="18"/>
<text text-anchor="middle" x="884.645" y="-86.3" font-family="Times,serif" font-size="14.00">ExpConst4</text>
</g>
<!-- Value4: 28 -->
<g id="node4" class="node"><title>Value4: 28</title>
<ellipse fill="none" stroke="black" cx="884.645" cy="-18" rx="50.0912" ry="18"/>
<text text-anchor="middle" x="884.645" y="-14.3" font-family="Times,serif" font-size="14.00">Value4: 28</text>
</g>
<!-- ExpConst4&#45;&gt;Value4: 28 -->
<g id="edge2" class="edge"><title>ExpConst4&#45;&gt;Value4: 28</title>
<path fill="none" stroke="black" d="M884.645,-71.6966C884.645,-63.9827 884.645,-54.7125 884.645,-46.1124"/>
<polygon fill="black" stroke="black" points="888.145,-46.1043 884.645,-36.1043 881.145,-46.1044 888.145,-46.1043"/>
</g>
<!-- ExpBinary2 -->
<g id="node5" class="node"><title>ExpBinary2</title>
<ellipse fill="none" stroke="black" cx="702.645" cy="-162" rx="53.0913" ry="18"/>
<text text-anchor="middle" x="702.645" y="-158.3" font-family="Times,serif" font-size="14.00">ExpBinary2</text>
</g>
<!-- ExpBinary2&#45;&gt;ExpConst4 -->
<g id="edge5" class="edge"><title>ExpBinary2&#45;&gt;ExpConst4</title>
<path fill="none" stroke="black" d="M736.452,-147.998C766.263,-136.532 809.847,-119.769 842.037,-107.388"/>
<polygon fill="black" stroke="black" points="843.557,-110.553 851.634,-103.697 841.044,-104.02 843.557,-110.553"/>
</g>
<!-- ExpTemp2 -->
<g id="node6" class="node"><title>ExpTemp2</title>
<ellipse fill="none" stroke="black" cx="686.645" cy="-90" rx="50.0912" ry="18"/>
<text text-anchor="middle" x="686.645" y="-86.3" font-family="Times,serif" font-size="14.00">ExpTemp2</text>
</g>
<!-- ExpBinary2&#45;&gt;ExpTemp2 -->
<g id="edge3" class="edge"><title>ExpBinary2&#45;&gt;ExpTemp2</title>
<path fill="none" stroke="black" d="M698.69,-143.697C696.927,-135.983 694.808,-126.712 692.842,-118.112"/>
<polygon fill="black" stroke="black" points="696.195,-117.073 690.555,-108.104 689.371,-118.633 696.195,-117.073"/>
</g>
<!-- Plus2 -->
<g id="node7" class="node"><title>Plus2</title>
<ellipse fill="none" stroke="black" cx="785.645" cy="-90" rx="30.5947" ry="18"/>
<text text-anchor="middle" x="785.645" y="-86.3" font-family="Times,serif" font-size="14.00">Plus2</text>
</g>
<!-- ExpBinary2&#45;&gt;Plus2 -->
<g id="edge4" class="edge"><title>ExpBinary2&#45;&gt;Plus2</title>
<path fill="none" stroke="black" d="M721.479,-145.116C733.171,-135.255 748.326,-122.474 760.971,-111.81"/>
<polygon fill="black" stroke="black" points="763.469,-114.282 768.857,-105.159 758.956,-108.93 763.469,-114.282"/>
</g>
<!-- Temp2: $fp -->
<g id="node11" class="node"><title>Temp2: $fp</title>
<ellipse fill="none" stroke="black" cx="687.645" cy="-18" rx="52.7911" ry="18"/>
<text text-anchor="middle" x="687.645" y="-14.3" font-family="Times,serif" font-size="14.00">Temp2: $fp</text>
</g>
<!-- ExpTemp2&#45;&gt;Temp2: $fp -->
<g id="edge8" class="edge"><title>ExpTemp2&#45;&gt;Temp2: $fp</title>
<path fill="none" stroke="black" d="M686.893,-71.6966C687.003,-63.9827 687.135,-54.7125 687.258,-46.1124"/>
<polygon fill="black" stroke="black" points="690.758,-46.1533 687.401,-36.1043 683.758,-46.0533 690.758,-46.1533"/>
</g>
<!-- StatMove2 -->
<g id="node8" class="node"><title>StatMove2</title>
<ellipse fill="none" stroke="black" cx="702.645" cy="-306" rx="50.0912" ry="18"/>
<text text-anchor="middle" x="702.645" y="-302.3" font-family="Times,serif" font-size="14.00">StatMove2</text>
</g>
<!-- ExpMem2 -->
<g id="node9" class="node"><title>ExpMem2</title>
<ellipse fill="none" stroke="black" cx="702.645" cy="-234" rx="48.9926" ry="18"/>
<text text-anchor="middle" x="702.645" y="-230.3" font-family="Times,serif" font-size="14.00">ExpMem2</text>
</g>
<!-- StatMove2&#45;&gt;ExpMem2 -->
<g id="edge6" class="edge"><title>StatMove2&#45;&gt;ExpMem2</title>
<path fill="none" stroke="black" d="M702.645,-287.697C702.645,-279.983 702.645,-270.712 702.645,-262.112"/>
<polygon fill="black" stroke="black" points="706.145,-262.104 702.645,-252.104 699.145,-262.104 706.145,-262.104"/>
</g>
<!-- ExpConst5 -->
<g id="node10" class="node"><title>ExpConst5</title>
<ellipse fill="none" stroke="black" cx="819.645" cy="-234" rx="50.0912" ry="18"/>
<text text-anchor="middle" x="819.645" y="-230.3" font-family="Times,serif" font-size="14.00">ExpConst5</text>
</g>
<!-- StatMove2&#45;&gt;ExpConst5 -->
<g id="edge7" class="edge"><title>StatMove2&#45;&gt;ExpConst5</title>
<path fill="none" stroke="black" d="M727.458,-290.155C744.521,-279.946 767.385,-266.267 786.073,-255.086"/>
<polygon fill="black" stroke="black" points="788.084,-257.962 794.868,-249.824 784.49,-251.955 788.084,-257.962"/>
</g>
<!-- ExpMem2&#45;&gt;ExpBinary2 -->
<g id="edge16" class="edge"><title>ExpMem2&#45;&gt;ExpBinary2</title>
<path fill="none" stroke="black" d="M702.645,-215.697C702.645,-207.983 702.645,-198.712 702.645,-190.112"/>
<polygon fill="black" stroke="black" points="706.145,-190.104 702.645,-180.104 699.145,-190.104 706.145,-190.104"/>
</g>
<!-- Value5: 0 -->
<g id="node27" class="node"><title>Value5: 0</title>
<ellipse fill="none" stroke="black" cx="819.645" cy="-162" rx="45.4919" ry="18"/>
<text text-anchor="middle" x="819.645" y="-158.3" font-family="Times,serif" font-size="14.00">Value5: 0</text>
</g>
<!-- ExpConst5&#45;&gt;Value5: 0 -->
<g id="edge23" class="edge"><title>ExpConst5&#45;&gt;Value5: 0</title>
<path fill="none" stroke="black" d="M819.645,-215.697C819.645,-207.983 819.645,-198.712 819.645,-190.112"/>
<polygon fill="black" stroke="black" points="823.145,-190.104 819.645,-180.104 816.145,-190.104 823.145,-190.104"/>
</g>
<!-- ExpConst3 -->
<g id="node12" class="node"><title>ExpConst3</title>
<ellipse fill="none" stroke="black" cx="585.645" cy="-234" rx="50.0912" ry="18"/>
<text text-anchor="middle" x="585.645" y="-230.3" font-family="Times,serif" font-size="14.00">ExpConst3</text>
</g>
<!-- Value3: 0 -->
<g id="node13" class="node"><title>Value3: 0</title>
<ellipse fill="none" stroke="black" cx="585.645" cy="-162" rx="45.4919" ry="18"/>
<text text-anchor="middle" x="585.645" y="-158.3" font-family="Times,serif" font-size="14.00">Value3: 0</text>
</g>
<!-- ExpConst3&#45;&gt;Value3: 0 -->
<g id="edge9" class="edge"><title>ExpConst3&#45;&gt;Value3: 0</title>
<path fill="none" stroke="black" d="M585.645,-215.697C585.645,-207.983 585.645,-198.712 585.645,-190.112"/>
<polygon fill="black" stroke="black" points="589.145,-190.104 585.645,-180.104 582.145,-190.104 589.145,-190.104"/>
</g>
<!-- ExpConst2 -->
<g id="node14" class="node"><title>ExpConst2</title>
<ellipse fill="none" stroke="black" cx="567.645" cy="-90" rx="50.0912" ry="18"/>
<text text-anchor="middle" x="567.645" y="-86.3" font-family="Times,serif" font-size="14.00">ExpConst2</text>
</g>
<!-- Value2: 20 -->
<g id="node15" class="node"><title>Value2: 20</title>
<ellipse fill="none" stroke="black" cx="566.645" cy="-18" rx="50.0912" ry="18"/>
<text text-anchor="middle" x="566.645" y="-14.3" font-family="Times,serif" font-size="14.00">Value2: 20</text>
</g>
<!-- ExpConst2&#45;&gt;Value2: 20 -->
<g id="edge10" class="edge"><title>ExpConst2&#45;&gt;Value2: 20</title>
<path fill="none" stroke="black" d="M567.398,-71.6966C567.288,-63.9827 567.156,-54.7125 567.033,-46.1124"/>
<polygon fill="black" stroke="black" points="570.532,-46.0533 566.89,-36.1043 563.533,-46.1533 570.532,-46.0533"/>
</g>
<!-- ExpBinary0 -->
<g id="node16" class="node"><title>ExpBinary0</title>
<ellipse fill="none" stroke="black" cx="192.645" cy="-162" rx="53.0913" ry="18"/>
<text text-anchor="middle" x="192.645" y="-158.3" font-family="Times,serif" font-size="14.00">ExpBinary0</text>
</g>
<!-- ExpTemp0 -->
<g id="node17" class="node"><title>ExpTemp0</title>
<ellipse fill="none" stroke="black" cx="52.6453" cy="-90" rx="50.0912" ry="18"/>
<text text-anchor="middle" x="52.6453" y="-86.3" font-family="Times,serif" font-size="14.00">ExpTemp0</text>
</g>
<!-- ExpBinary0&#45;&gt;ExpTemp0 -->
<g id="edge11" class="edge"><title>ExpBinary0&#45;&gt;ExpTemp0</title>
<path fill="none" stroke="black" d="M163.976,-146.666C142.602,-135.978 113.218,-121.286 90.0039,-109.679"/>
<polygon fill="black" stroke="black" points="91.307,-106.418 80.7975,-105.076 88.1765,-112.679 91.307,-106.418"/>
</g>
<!-- Plus0 -->
<g id="node18" class="node"><title>Plus0</title>
<ellipse fill="none" stroke="black" cx="151.645" cy="-90" rx="30.5947" ry="18"/>
<text text-anchor="middle" x="151.645" y="-86.3" font-family="Times,serif" font-size="14.00">Plus0</text>
</g>
<!-- ExpBinary0&#45;&gt;Plus0 -->
<g id="edge12" class="edge"><title>ExpBinary0&#45;&gt;Plus0</title>
<path fill="none" stroke="black" d="M182.72,-144.055C177.815,-135.679 171.796,-125.404 166.367,-116.134"/>
<polygon fill="black" stroke="black" points="169.271,-114.167 161.197,-107.307 163.231,-117.705 169.271,-114.167"/>
</g>
<!-- ExpConst0 -->
<g id="node19" class="node"><title>ExpConst0</title>
<ellipse fill="none" stroke="black" cx="250.645" cy="-90" rx="50.0912" ry="18"/>
<text text-anchor="middle" x="250.645" y="-86.3" font-family="Times,serif" font-size="14.00">ExpConst0</text>
</g>
<!-- ExpBinary0&#45;&gt;ExpConst0 -->
<g id="edge13" class="edge"><title>ExpBinary0&#45;&gt;ExpConst0</title>
<path fill="none" stroke="black" d="M206.391,-144.411C213.614,-135.693 222.602,-124.845 230.588,-115.208"/>
<polygon fill="black" stroke="black" points="233.314,-117.403 236.999,-107.47 227.924,-112.937 233.314,-117.403"/>
</g>
<!-- Temp0: $fp -->
<g id="node23" class="node"><title>Temp0: $fp</title>
<ellipse fill="none" stroke="black" cx="52.6453" cy="-18" rx="52.7911" ry="18"/>
<text text-anchor="middle" x="52.6453" y="-14.3" font-family="Times,serif" font-size="14.00">Temp0: $fp</text>
</g>
<!-- ExpTemp0&#45;&gt;Temp0: $fp -->
<g id="edge17" class="edge"><title>ExpTemp0&#45;&gt;Temp0: $fp</title>
<path fill="none" stroke="black" d="M52.6453,-71.6966C52.6453,-63.9827 52.6453,-54.7125 52.6453,-46.1124"/>
<polygon fill="black" stroke="black" points="56.1454,-46.1043 52.6453,-36.1043 49.1454,-46.1044 56.1454,-46.1043"/>
</g>
<!-- Value0: 24 -->
<g id="node31" class="node"><title>Value0: 24</title>
<ellipse fill="none" stroke="black" cx="249.645" cy="-18" rx="50.0912" ry="18"/>
<text text-anchor="middle" x="249.645" y="-14.3" font-family="Times,serif" font-size="14.00">Value0: 24</text>
</g>
<!-- ExpConst0&#45;&gt;Value0: 24 -->
<g id="edge26" class="edge"><title>ExpConst0&#45;&gt;Value0: 24</title>
<path fill="none" stroke="black" d="M250.398,-71.6966C250.288,-63.9827 250.156,-54.7125 250.033,-46.1124"/>
<polygon fill="black" stroke="black" points="253.532,-46.0533 249.89,-36.1043 246.533,-46.1533 253.532,-46.0533"/>
</g>
<!-- StatMove0 -->
<g id="node20" class="node"><title>StatMove0</title>
<ellipse fill="none" stroke="black" cx="351.645" cy="-306" rx="50.0912" ry="18"/>
<text text-anchor="middle" x="351.645" y="-302.3" font-family="Times,serif" font-size="14.00">StatMove0</text>
</g>
<!-- ExpMem0 -->
<g id="node21" class="node"><title>ExpMem0</title>
<ellipse fill="none" stroke="black" cx="234.645" cy="-234" rx="48.9926" ry="18"/>
<text text-anchor="middle" x="234.645" y="-230.3" font-family="Times,serif" font-size="14.00">ExpMem0</text>
</g>
<!-- StatMove0&#45;&gt;ExpMem0 -->
<g id="edge14" class="edge"><title>StatMove0&#45;&gt;ExpMem0</title>
<path fill="none" stroke="black" d="M326.833,-290.155C309.769,-279.946 286.906,-266.267 268.218,-255.086"/>
<polygon fill="black" stroke="black" points="269.801,-251.955 259.422,-249.824 266.207,-257.962 269.801,-251.955"/>
</g>
<!-- ExpConst1 -->
<g id="node22" class="node"><title>ExpConst1</title>
<ellipse fill="none" stroke="black" cx="351.645" cy="-234" rx="50.0912" ry="18"/>
<text text-anchor="middle" x="351.645" y="-230.3" font-family="Times,serif" font-size="14.00">ExpConst1</text>
</g>
<!-- StatMove0&#45;&gt;ExpConst1 -->
<g id="edge15" class="edge"><title>StatMove0&#45;&gt;ExpConst1</title>
<path fill="none" stroke="black" d="M351.645,-287.697C351.645,-279.983 351.645,-270.712 351.645,-262.112"/>
<polygon fill="black" stroke="black" points="355.145,-262.104 351.645,-252.104 348.145,-262.104 355.145,-262.104"/>
</g>
<!-- ExpMem0&#45;&gt;ExpBinary0 -->
<g id="edge30" class="edge"><title>ExpMem0&#45;&gt;ExpBinary0</title>
<path fill="none" stroke="black" d="M224.478,-216.055C219.526,-207.801 213.466,-197.701 207.968,-188.538"/>
<polygon fill="black" stroke="black" points="210.865,-186.563 202.719,-179.789 204.863,-190.165 210.865,-186.563"/>
</g>
<!-- Value1: 1 -->
<g id="node32" class="node"><title>Value1: 1</title>
<ellipse fill="none" stroke="black" cx="351.645" cy="-162" rx="45.4919" ry="18"/>
<text text-anchor="middle" x="351.645" y="-158.3" font-family="Times,serif" font-size="14.00">Value1: 1</text>
</g>
<!-- ExpConst1&#45;&gt;Value1: 1 -->
<g id="edge29" class="edge"><title>ExpConst1&#45;&gt;Value1: 1</title>
<path fill="none" stroke="black" d="M351.645,-215.697C351.645,-207.983 351.645,-198.712 351.645,-190.112"/>
<polygon fill="black" stroke="black" points="355.145,-190.104 351.645,-180.104 348.145,-190.104 355.145,-190.104"/>
</g>
<!-- StatList0 -->
<g id="node24" class="node"><title>StatList0</title>
<ellipse fill="none" stroke="black" cx="526.645" cy="-378" rx="42.4939" ry="18"/>
<text text-anchor="middle" x="526.645" y="-374.3" font-family="Times,serif" font-size="14.00">StatList0</text>
</g>
<!-- StatList0&#45;&gt;StatJump0 -->
<g id="edge22" class="edge"><title>StatList0&#45;&gt;StatJump0</title>
<path fill="none" stroke="black" d="M564.208,-369.509C627.335,-356.919 754.783,-331.502 826.186,-317.262"/>
<polygon fill="black" stroke="black" points="827.178,-320.634 836.3,-315.245 825.809,-313.769 827.178,-320.634"/>
</g>
<!-- StatList0&#45;&gt;StatMove2 -->
<g id="edge21" class="edge"><title>StatList0&#45;&gt;StatMove2</title>
<path fill="none" stroke="black" d="M556.501,-365.125C585.12,-353.743 628.59,-336.454 660.686,-323.689"/>
<polygon fill="black" stroke="black" points="662.254,-326.832 670.252,-319.884 659.667,-320.327 662.254,-326.832"/>
</g>
<!-- StatList0&#45;&gt;StatMove0 -->
<g id="edge19" class="edge"><title>StatList0&#45;&gt;StatMove0</title>
<path fill="none" stroke="black" d="M496.959,-365.125C468.503,-353.743 425.28,-336.454 393.367,-323.689"/>
<polygon fill="black" stroke="black" points="394.439,-320.348 383.854,-319.884 391.839,-326.847 394.439,-320.348"/>
</g>
<!-- StatLabel0 -->
<g id="node25" class="node"><title>StatLabel0</title>
<ellipse fill="none" stroke="black" cx="160.645" cy="-306" rx="48.9926" ry="18"/>
<text text-anchor="middle" x="160.645" y="-302.3" font-family="Times,serif" font-size="14.00">StatLabel0</text>
</g>
<!-- StatList0&#45;&gt;StatLabel0 -->
<g id="edge18" class="edge"><title>StatList0&#45;&gt;StatLabel0</title>
<path fill="none" stroke="black" d="M488.855,-369.772C423.18,-357.212 287.865,-331.332 213.123,-317.037"/>
<polygon fill="black" stroke="black" points="213.471,-313.54 202.992,-315.099 212.156,-320.415 213.471,-313.54"/>
</g>
<!-- StatMove1 -->
<g id="node26" class="node"><title>StatMove1</title>
<ellipse fill="none" stroke="black" cx="526.645" cy="-306" rx="50.0912" ry="18"/>
<text text-anchor="middle" x="526.645" y="-302.3" font-family="Times,serif" font-size="14.00">StatMove1</text>
</g>
<!-- StatList0&#45;&gt;StatMove1 -->
<g id="edge20" class="edge"><title>StatList0&#45;&gt;StatMove1</title>
<path fill="none" stroke="black" d="M526.645,-359.697C526.645,-351.983 526.645,-342.712 526.645,-334.112"/>
<polygon fill="black" stroke="black" points="530.145,-334.104 526.645,-324.104 523.145,-334.104 530.145,-334.104"/>
</g>
<!-- Label0: LS@Search -->
<g id="node28" class="node"><title>Label0: LS@Search</title>
<ellipse fill="none" stroke="black" cx="85.6453" cy="-234" rx="82.5854" ry="18"/>
<text text-anchor="middle" x="85.6453" y="-230.3" font-family="Times,serif" font-size="14.00">Label0: LS@Search</text>
</g>
<!-- StatLabel0&#45;&gt;Label0: LS@Search -->
<g id="edge24" class="edge"><title>StatLabel0&#45;&gt;Label0: LS@Search</title>
<path fill="none" stroke="black" d="M143.627,-289.116C134.028,-280.157 121.847,-268.788 111.13,-258.785"/>
<polygon fill="black" stroke="black" points="113.341,-256.062 103.642,-251.797 108.565,-261.179 113.341,-256.062"/>
</g>
<!-- StatMove1&#45;&gt;ExpConst3 -->
<g id="edge28" class="edge"><title>StatMove1&#45;&gt;ExpConst3</title>
<path fill="none" stroke="black" d="M540.628,-288.411C547.975,-279.693 557.118,-268.845 565.242,-259.208"/>
<polygon fill="black" stroke="black" points="567.995,-261.372 571.764,-251.47 562.643,-256.861 567.995,-261.372"/>
</g>
<!-- ExpMem1 -->
<g id="node29" class="node"><title>ExpMem1</title>
<ellipse fill="none" stroke="black" cx="468.645" cy="-234" rx="48.9926" ry="18"/>
<text text-anchor="middle" x="468.645" y="-230.3" font-family="Times,serif" font-size="14.00">ExpMem1</text>
</g>
<!-- StatMove1&#45;&gt;ExpMem1 -->
<g id="edge27" class="edge"><title>StatMove1&#45;&gt;ExpMem1</title>
<path fill="none" stroke="black" d="M512.9,-288.411C505.677,-279.693 496.689,-268.845 488.703,-259.208"/>
<polygon fill="black" stroke="black" points="491.367,-256.937 482.292,-251.47 485.977,-261.403 491.367,-256.937"/>
</g>
<!-- ExpBinary1 -->
<g id="node30" class="node"><title>ExpBinary1</title>
<ellipse fill="none" stroke="black" cx="468.645" cy="-162" rx="53.0913" ry="18"/>
<text text-anchor="middle" x="468.645" y="-158.3" font-family="Times,serif" font-size="14.00">ExpBinary1</text>
</g>
<!-- ExpMem1&#45;&gt;ExpBinary1 -->
<g id="edge25" class="edge"><title>ExpMem1&#45;&gt;ExpBinary1</title>
<path fill="none" stroke="black" d="M468.645,-215.697C468.645,-207.983 468.645,-198.712 468.645,-190.112"/>
<polygon fill="black" stroke="black" points="472.145,-190.104 468.645,-180.104 465.145,-190.104 472.145,-190.104"/>
</g>
<!-- ExpBinary1&#45;&gt;ExpConst2 -->
<g id="edge33" class="edge"><title>ExpBinary1&#45;&gt;ExpConst2</title>
<path fill="none" stroke="black" d="M490.617,-145.465C504.426,-135.7 522.427,-122.972 537.555,-112.276"/>
<polygon fill="black" stroke="black" points="539.932,-114.882 546.076,-106.251 535.89,-109.167 539.932,-114.882"/>
</g>
<!-- ExpTemp1 -->
<g id="node33" class="node"><title>ExpTemp1</title>
<ellipse fill="none" stroke="black" cx="369.645" cy="-90" rx="50.0912" ry="18"/>
<text text-anchor="middle" x="369.645" y="-86.3" font-family="Times,serif" font-size="14.00">ExpTemp1</text>
</g>
<!-- ExpBinary1&#45;&gt;ExpTemp1 -->
<g id="edge31" class="edge"><title>ExpBinary1&#45;&gt;ExpTemp1</title>
<path fill="none" stroke="black" d="M446.674,-145.465C432.864,-135.7 414.863,-122.972 399.736,-112.276"/>
<polygon fill="black" stroke="black" points="401.4,-109.167 391.215,-106.251 397.359,-114.882 401.4,-109.167"/>
</g>
<!-- Plus1 -->
<g id="node34" class="node"><title>Plus1</title>
<ellipse fill="none" stroke="black" cx="468.645" cy="-90" rx="30.5947" ry="18"/>
<text text-anchor="middle" x="468.645" y="-86.3" font-family="Times,serif" font-size="14.00">Plus1</text>
</g>
<!-- ExpBinary1&#45;&gt;Plus1 -->
<g id="edge32" class="edge"><title>ExpBinary1&#45;&gt;Plus1</title>
<path fill="none" stroke="black" d="M468.645,-143.697C468.645,-135.983 468.645,-126.712 468.645,-118.112"/>
<polygon fill="black" stroke="black" points="472.145,-118.104 468.645,-108.104 465.145,-118.104 472.145,-118.104"/>
</g>
<!-- Temp1: $fp -->
<g id="node35" class="node"><title>Temp1: $fp</title>
<ellipse fill="none" stroke="black" cx="370.645" cy="-18" rx="52.7911" ry="18"/>
<text text-anchor="middle" x="370.645" y="-14.3" font-family="Times,serif" font-size="14.00">Temp1: $fp</text>
</g>
<!-- ExpTemp1&#45;&gt;Temp1: $fp -->
<g id="edge34" class="edge"><title>ExpTemp1&#45;&gt;Temp1: $fp</title>
<path fill="none" stroke="black" d="M369.893,-71.6966C370.003,-63.9827 370.135,-54.7125 370.258,-46.1124"/>
<polygon fill="black" stroke="black" points="373.758,-46.1533 370.401,-36.1043 366.758,-46.0533 373.758,-46.1533"/>
</g>
</g>
</svg>
