<?xml version="1.0" encoding="UTF-8" standalone="no"?>
<!DOCTYPE svg PUBLIC "-//W3C//DTD SVG 1.1//EN"
 "http://www.w3.org/Graphics/SVG/1.1/DTD/svg11.dtd">
<!-- Generated by graphviz version 2.38.0 (20140413.2041)
 -->
<!-- Title: %3 Pages: 1 -->
<svg width="1255pt" height="476pt"
 viewBox="0.00 0.00 1254.69 476.00" xmlns="http://www.w3.org/2000/svg" xmlns:xlink="http://www.w3.org/1999/xlink">
<g id="graph0" class="graph" transform="scale(1 1) rotate(0) translate(4 472)">
<title>%3</title>
<polygon fill="white" stroke="none" points="-4,4 -4,-472 1250.69,-472 1250.69,4 -4,4"/>
<!-- ExpMem3 -->
<g id="node1" class="node"><title>ExpMem3</title>
<ellipse fill="none" stroke="black" cx="837.645" cy="-306" rx="48.9926" ry="18"/>
<text text-anchor="middle" x="837.645" y="-302.3" font-family="Times,serif" font-size="14.00">ExpMem3</text>
</g>
<!-- ExpBinary3 -->
<g id="node2" class="node"><title>ExpBinary3</title>
<ellipse fill="none" stroke="black" cx="1048.65" cy="-234" rx="53.0913" ry="18"/>
<text text-anchor="middle" x="1048.65" y="-230.3" font-family="Times,serif" font-size="14.00">ExpBinary3</text>
</g>
<!-- ExpMem3&#45;&gt;ExpBinary3 -->
<g id="edge1" class="edge"><title>ExpMem3&#45;&gt;ExpBinary3</title>
<path fill="none" stroke="black" d="M872.962,-293.284C908.436,-281.515 963.285,-263.319 1002.25,-250.392"/>
<polygon fill="black" stroke="black" points="1003.4,-253.696 1011.79,-247.226 1001.2,-247.052 1003.4,-253.696"/>
</g>
<!-- ExpConst5 -->
<g id="node28" class="node"><title>ExpConst5</title>
<ellipse fill="none" stroke="black" cx="1196.65" cy="-162" rx="50.0912" ry="18"/>
<text text-anchor="middle" x="1196.65" y="-158.3" font-family="Times,serif" font-size="14.00">ExpConst5</text>
</g>
<!-- ExpBinary3&#45;&gt;ExpConst5 -->
<g id="edge24" class="edge"><title>ExpBinary3&#45;&gt;ExpConst5</title>
<path fill="none" stroke="black" d="M1078.24,-219.003C1101.28,-208.106 1133.43,-192.9 1158.42,-181.082"/>
<polygon fill="black" stroke="black" points="1160.06,-184.174 1167.61,-176.734 1157.07,-177.846 1160.06,-184.174"/>
</g>
<!-- ExpMem4 -->
<g id="node30" class="node"><title>ExpMem4</title>
<ellipse fill="none" stroke="black" cx="1000.65" cy="-162" rx="48.9926" ry="18"/>
<text text-anchor="middle" x="1000.65" y="-158.3" font-family="Times,serif" font-size="14.00">ExpMem4</text>
</g>
<!-- ExpBinary3&#45;&gt;ExpMem4 -->
<g id="edge22" class="edge"><title>ExpBinary3&#45;&gt;ExpMem4</title>
<path fill="none" stroke="black" d="M1037.27,-216.411C1031.56,-208.077 1024.51,-197.797 1018.12,-188.488"/>
<polygon fill="black" stroke="black" points="1020.81,-186.224 1012.27,-179.956 1015.04,-190.183 1020.81,-186.224"/>
</g>
<!-- Plus3 -->
<g id="node31" class="node"><title>Plus3</title>
<ellipse fill="none" stroke="black" cx="1097.65" cy="-162" rx="30.5947" ry="18"/>
<text text-anchor="middle" x="1097.65" y="-158.3" font-family="Times,serif" font-size="14.00">Plus3</text>
</g>
<!-- ExpBinary3&#45;&gt;Plus3 -->
<g id="edge23" class="edge"><title>ExpBinary3&#45;&gt;Plus3</title>
<path fill="none" stroke="black" d="M1060.26,-216.411C1066.32,-207.744 1073.87,-196.971 1080.58,-187.375"/>
<polygon fill="black" stroke="black" points="1083.59,-189.188 1086.45,-178.988 1077.85,-185.173 1083.59,-189.188"/>
</g>
<!-- ExpTemp1 -->
<g id="node3" class="node"><title>ExpTemp1</title>
<ellipse fill="none" stroke="black" cx="369.645" cy="-162" rx="50.0912" ry="18"/>
<text text-anchor="middle" x="369.645" y="-158.3" font-family="Times,serif" font-size="14.00">ExpTemp1</text>
</g>
<!-- Temp1: $fp -->
<g id="node4" class="node"><title>Temp1: $fp</title>
<ellipse fill="none" stroke="black" cx="370.645" cy="-90" rx="52.7911" ry="18"/>
<text text-anchor="middle" x="370.645" y="-86.3" font-family="Times,serif" font-size="14.00">Temp1: $fp</text>
</g>
<!-- ExpTemp1&#45;&gt;Temp1: $fp -->
<g id="edge2" class="edge"><title>ExpTemp1&#45;&gt;Temp1: $fp</title>
<path fill="none" stroke="black" d="M369.893,-143.697C370.003,-135.983 370.135,-126.712 370.258,-118.112"/>
<polygon fill="black" stroke="black" points="373.758,-118.153 370.401,-108.104 366.758,-118.053 373.758,-118.153"/>
</g>
<!-- ExpBinary1 -->
<g id="node5" class="node"><title>ExpBinary1</title>
<ellipse fill="none" stroke="black" cx="488.645" cy="-234" rx="53.0913" ry="18"/>
<text text-anchor="middle" x="488.645" y="-230.3" font-family="Times,serif" font-size="14.00">ExpBinary1</text>
</g>
<!-- ExpBinary1&#45;&gt;ExpTemp1 -->
<g id="edge3" class="edge"><title>ExpBinary1&#45;&gt;ExpTemp1</title>
<path fill="none" stroke="black" d="M463.117,-217.983C445.666,-207.718 422.351,-194.004 403.373,-182.84"/>
<polygon fill="black" stroke="black" points="405.117,-179.805 394.723,-177.752 401.568,-185.839 405.117,-179.805"/>
</g>
<!-- Plus1 -->
<g id="node6" class="node"><title>Plus1</title>
<ellipse fill="none" stroke="black" cx="468.645" cy="-162" rx="30.5947" ry="18"/>
<text text-anchor="middle" x="468.645" y="-158.3" font-family="Times,serif" font-size="14.00">Plus1</text>
</g>
<!-- ExpBinary1&#45;&gt;Plus1 -->
<g id="edge4" class="edge"><title>ExpBinary1&#45;&gt;Plus1</title>
<path fill="none" stroke="black" d="M483.804,-216.055C481.544,-208.145 478.8,-198.54 476.27,-189.688"/>
<polygon fill="black" stroke="black" points="479.555,-188.443 473.442,-179.789 472.824,-190.366 479.555,-188.443"/>
</g>
<!-- ExpConst2 -->
<g id="node7" class="node"><title>ExpConst2</title>
<ellipse fill="none" stroke="black" cx="567.645" cy="-162" rx="50.0912" ry="18"/>
<text text-anchor="middle" x="567.645" y="-158.3" font-family="Times,serif" font-size="14.00">ExpConst2</text>
</g>
<!-- ExpBinary1&#45;&gt;ExpConst2 -->
<g id="edge5" class="edge"><title>ExpBinary1&#45;&gt;ExpConst2</title>
<path fill="none" stroke="black" d="M506.968,-216.765C517.412,-207.511 530.66,-195.772 542.111,-185.626"/>
<polygon fill="black" stroke="black" points="544.531,-188.157 549.694,-178.906 539.889,-182.918 544.531,-188.157"/>
</g>
<!-- Value2: 28 -->
<g id="node32" class="node"><title>Value2: 28</title>
<ellipse fill="none" stroke="black" cx="565.645" cy="-90" rx="50.0912" ry="18"/>
<text text-anchor="middle" x="565.645" y="-86.3" font-family="Times,serif" font-size="14.00">Value2: 28</text>
</g>
<!-- ExpConst2&#45;&gt;Value2: 28 -->
<g id="edge27" class="edge"><title>ExpConst2&#45;&gt;Value2: 28</title>
<path fill="none" stroke="black" d="M567.151,-143.697C566.931,-135.983 566.666,-126.712 566.42,-118.112"/>
<polygon fill="black" stroke="black" points="569.918,-118 566.134,-108.104 562.921,-118.2 569.918,-118"/>
</g>
<!-- ExpMem0 -->
<g id="node8" class="node"><title>ExpMem0</title>
<ellipse fill="none" stroke="black" cx="254.645" cy="-306" rx="48.9926" ry="18"/>
<text text-anchor="middle" x="254.645" y="-302.3" font-family="Times,serif" font-size="14.00">ExpMem0</text>
</g>
<!-- ExpBinary0 -->
<g id="node9" class="node"><title>ExpBinary0</title>
<ellipse fill="none" stroke="black" cx="192.645" cy="-234" rx="53.0913" ry="18"/>
<text text-anchor="middle" x="192.645" y="-230.3" font-family="Times,serif" font-size="14.00">ExpBinary0</text>
</g>
<!-- ExpMem0&#45;&gt;ExpBinary0 -->
<g id="edge6" class="edge"><title>ExpMem0&#45;&gt;ExpBinary0</title>
<path fill="none" stroke="black" d="M240.265,-288.765C232.475,-279.969 222.696,-268.928 214.03,-259.144"/>
<polygon fill="black" stroke="black" points="216.628,-256.799 207.378,-251.633 211.388,-261.44 216.628,-256.799"/>
</g>
<!-- ExpConst0 -->
<g id="node15" class="node"><title>ExpConst0</title>
<ellipse fill="none" stroke="black" cx="250.645" cy="-162" rx="50.0912" ry="18"/>
<text text-anchor="middle" x="250.645" y="-158.3" font-family="Times,serif" font-size="14.00">ExpConst0</text>
</g>
<!-- ExpBinary0&#45;&gt;ExpConst0 -->
<g id="edge38" class="edge"><title>ExpBinary0&#45;&gt;ExpConst0</title>
<path fill="none" stroke="black" d="M206.391,-216.411C213.614,-207.693 222.602,-196.845 230.588,-187.208"/>
<polygon fill="black" stroke="black" points="233.314,-189.403 236.999,-179.47 227.924,-184.937 233.314,-189.403"/>
</g>
<!-- ExpTemp0 -->
<g id="node23" class="node"><title>ExpTemp0</title>
<ellipse fill="none" stroke="black" cx="52.6453" cy="-162" rx="50.0912" ry="18"/>
<text text-anchor="middle" x="52.6453" y="-158.3" font-family="Times,serif" font-size="14.00">ExpTemp0</text>
</g>
<!-- ExpBinary0&#45;&gt;ExpTemp0 -->
<g id="edge36" class="edge"><title>ExpBinary0&#45;&gt;ExpTemp0</title>
<path fill="none" stroke="black" d="M163.976,-218.666C142.602,-207.978 113.218,-193.286 90.0039,-181.679"/>
<polygon fill="black" stroke="black" points="91.307,-178.418 80.7975,-177.076 88.1765,-184.679 91.307,-178.418"/>
</g>
<!-- Plus0 -->
<g id="node39" class="node"><title>Plus0</title>
<ellipse fill="none" stroke="black" cx="151.645" cy="-162" rx="30.5947" ry="18"/>
<text text-anchor="middle" x="151.645" y="-158.3" font-family="Times,serif" font-size="14.00">Plus0</text>
</g>
<!-- ExpBinary0&#45;&gt;Plus0 -->
<g id="edge37" class="edge"><title>ExpBinary0&#45;&gt;Plus0</title>
<path fill="none" stroke="black" d="M182.72,-216.055C177.815,-207.679 171.796,-197.404 166.367,-188.134"/>
<polygon fill="black" stroke="black" points="169.271,-186.167 161.197,-179.307 163.231,-189.705 169.271,-186.167"/>
</g>
<!-- ExpConst1 -->
<g id="node10" class="node"><title>ExpConst1</title>
<ellipse fill="none" stroke="black" cx="371.645" cy="-306" rx="50.0912" ry="18"/>
<text text-anchor="middle" x="371.645" y="-302.3" font-family="Times,serif" font-size="14.00">ExpConst1</text>
</g>
<!-- Value1: 1 -->
<g id="node11" class="node"><title>Value1: 1</title>
<ellipse fill="none" stroke="black" cx="371.645" cy="-234" rx="45.4919" ry="18"/>
<text text-anchor="middle" x="371.645" y="-230.3" font-family="Times,serif" font-size="14.00">Value1: 1</text>
</g>
<!-- ExpConst1&#45;&gt;Value1: 1 -->
<g id="edge7" class="edge"><title>ExpConst1&#45;&gt;Value1: 1</title>
<path fill="none" stroke="black" d="M371.645,-287.697C371.645,-279.983 371.645,-270.712 371.645,-262.112"/>
<polygon fill="black" stroke="black" points="375.145,-262.104 371.645,-252.104 368.145,-262.104 375.145,-262.104"/>
</g>
<!-- StatMove1 -->
<g id="node12" class="node"><title>StatMove1</title>
<ellipse fill="none" stroke="black" cx="546.645" cy="-378" rx="50.0912" ry="18"/>
<text text-anchor="middle" x="546.645" y="-374.3" font-family="Times,serif" font-size="14.00">StatMove1</text>
</g>
<!-- ExpMem1 -->
<g id="node13" class="node"><title>ExpMem1</title>
<ellipse fill="none" stroke="black" cx="488.645" cy="-306" rx="48.9926" ry="18"/>
<text text-anchor="middle" x="488.645" y="-302.3" font-family="Times,serif" font-size="14.00">ExpMem1</text>
</g>
<!-- StatMove1&#45;&gt;ExpMem1 -->
<g id="edge8" class="edge"><title>StatMove1&#45;&gt;ExpMem1</title>
<path fill="none" stroke="black" d="M532.9,-360.411C525.677,-351.693 516.689,-340.845 508.703,-331.208"/>
<polygon fill="black" stroke="black" points="511.367,-328.937 502.292,-323.47 505.977,-333.403 511.367,-328.937"/>
</g>
<!-- ExpConst3 -->
<g id="node14" class="node"><title>ExpConst3</title>
<ellipse fill="none" stroke="black" cx="605.645" cy="-306" rx="50.0912" ry="18"/>
<text text-anchor="middle" x="605.645" y="-302.3" font-family="Times,serif" font-size="14.00">ExpConst3</text>
</g>
<!-- StatMove1&#45;&gt;ExpConst3 -->
<g id="edge9" class="edge"><title>StatMove1&#45;&gt;ExpConst3</title>
<path fill="none" stroke="black" d="M560.628,-360.411C567.975,-351.693 577.118,-340.845 585.242,-331.208"/>
<polygon fill="black" stroke="black" points="587.995,-333.372 591.764,-323.47 582.643,-328.861 587.995,-333.372"/>
</g>
<!-- ExpMem1&#45;&gt;ExpBinary1 -->
<g id="edge11" class="edge"><title>ExpMem1&#45;&gt;ExpBinary1</title>
<path fill="none" stroke="black" d="M488.645,-287.697C488.645,-279.983 488.645,-270.712 488.645,-262.112"/>
<polygon fill="black" stroke="black" points="492.145,-262.104 488.645,-252.104 485.145,-262.104 492.145,-262.104"/>
</g>
<!-- Value3: 1 -->
<g id="node33" class="node"><title>Value3: 1</title>
<ellipse fill="none" stroke="black" cx="605.645" cy="-234" rx="45.4919" ry="18"/>
<text text-anchor="middle" x="605.645" y="-230.3" font-family="Times,serif" font-size="14.00">Value3: 1</text>
</g>
<!-- ExpConst3&#45;&gt;Value3: 1 -->
<g id="edge28" class="edge"><title>ExpConst3&#45;&gt;Value3: 1</title>
<path fill="none" stroke="black" d="M605.645,-287.697C605.645,-279.983 605.645,-270.712 605.645,-262.112"/>
<polygon fill="black" stroke="black" points="609.145,-262.104 605.645,-252.104 602.145,-262.104 609.145,-262.104"/>
</g>
<!-- Value0: 20 -->
<g id="node16" class="node"><title>Value0: 20</title>
<ellipse fill="none" stroke="black" cx="249.645" cy="-90" rx="50.0912" ry="18"/>
<text text-anchor="middle" x="249.645" y="-86.3" font-family="Times,serif" font-size="14.00">Value0: 20</text>
</g>
<!-- ExpConst0&#45;&gt;Value0: 20 -->
<g id="edge10" class="edge"><title>ExpConst0&#45;&gt;Value0: 20</title>
<path fill="none" stroke="black" d="M250.398,-143.697C250.288,-135.983 250.156,-126.712 250.033,-118.112"/>
<polygon fill="black" stroke="black" points="253.532,-118.053 249.89,-108.104 246.533,-118.153 253.532,-118.053"/>
</g>
<!-- StatLabel0 -->
<g id="node17" class="node"><title>StatLabel0</title>
<ellipse fill="none" stroke="black" cx="196.645" cy="-378" rx="48.9926" ry="18"/>
<text text-anchor="middle" x="196.645" y="-374.3" font-family="Times,serif" font-size="14.00">StatLabel0</text>
</g>
<!-- Label0: L4 -->
<g id="node18" class="node"><title>Label0: L4</title>
<ellipse fill="none" stroke="black" cx="137.645" cy="-306" rx="50.0912" ry="18"/>
<text text-anchor="middle" x="137.645" y="-302.3" font-family="Times,serif" font-size="14.00">Label0: L4</text>
</g>
<!-- StatLabel0&#45;&gt;Label0: L4 -->
<g id="edge12" class="edge"><title>StatLabel0&#45;&gt;Label0: L4</title>
<path fill="none" stroke="black" d="M182.663,-360.411C175.315,-351.693 166.172,-340.845 158.049,-331.208"/>
<polygon fill="black" stroke="black" points="160.648,-328.861 151.527,-323.47 155.296,-333.372 160.648,-328.861"/>
</g>
<!-- StatList0 -->
<g id="node19" class="node"><title>StatList0</title>
<ellipse fill="none" stroke="black" cx="546.645" cy="-450" rx="42.4939" ry="18"/>
<text text-anchor="middle" x="546.645" y="-446.3" font-family="Times,serif" font-size="14.00">StatList0</text>
</g>
<!-- StatList0&#45;&gt;StatMove1 -->
<g id="edge15" class="edge"><title>StatList0&#45;&gt;StatMove1</title>
<path fill="none" stroke="black" d="M546.645,-431.697C546.645,-423.983 546.645,-414.712 546.645,-406.112"/>
<polygon fill="black" stroke="black" points="550.145,-406.104 546.645,-396.104 543.145,-406.104 550.145,-406.104"/>
</g>
<!-- StatList0&#45;&gt;StatLabel0 -->
<g id="edge13" class="edge"><title>StatList0&#45;&gt;StatLabel0</title>
<path fill="none" stroke="black" d="M509.189,-441.509C446.41,-428.953 319.836,-403.638 248.529,-389.377"/>
<polygon fill="black" stroke="black" points="248.916,-385.885 238.424,-387.356 247.543,-392.749 248.916,-385.885"/>
</g>
<!-- StatMove0 -->
<g id="node20" class="node"><title>StatMove0</title>
<ellipse fill="none" stroke="black" cx="371.645" cy="-378" rx="50.0912" ry="18"/>
<text text-anchor="middle" x="371.645" y="-374.3" font-family="Times,serif" font-size="14.00">StatMove0</text>
</g>
<!-- StatList0&#45;&gt;StatMove0 -->
<g id="edge14" class="edge"><title>StatList0&#45;&gt;StatMove0</title>
<path fill="none" stroke="black" d="M516.959,-437.125C488.503,-425.743 445.28,-408.454 413.367,-395.689"/>
<polygon fill="black" stroke="black" points="414.439,-392.348 403.854,-391.884 411.839,-398.847 414.439,-392.348"/>
</g>
<!-- StatMove2 -->
<g id="node21" class="node"><title>StatMove2</title>
<ellipse fill="none" stroke="black" cx="722.645" cy="-378" rx="50.0912" ry="18"/>
<text text-anchor="middle" x="722.645" y="-374.3" font-family="Times,serif" font-size="14.00">StatMove2</text>
</g>
<!-- StatList0&#45;&gt;StatMove2 -->
<g id="edge16" class="edge"><title>StatList0&#45;&gt;StatMove2</title>
<path fill="none" stroke="black" d="M576.501,-437.125C605.12,-425.743 648.59,-408.454 680.686,-395.689"/>
<polygon fill="black" stroke="black" points="682.254,-398.832 690.252,-391.884 679.667,-392.327 682.254,-398.832"/>
</g>
<!-- StatJump0 -->
<g id="node22" class="node"><title>StatJump0</title>
<ellipse fill="none" stroke="black" cx="896.645" cy="-378" rx="48.1917" ry="18"/>
<text text-anchor="middle" x="896.645" y="-374.3" font-family="Times,serif" font-size="14.00">StatJump0</text>
</g>
<!-- StatList0&#45;&gt;StatJump0 -->
<g id="edge17" class="edge"><title>StatList0&#45;&gt;StatJump0</title>
<path fill="none" stroke="black" d="M584.101,-441.509C646.964,-428.936 773.794,-403.57 845.048,-389.32"/>
<polygon fill="black" stroke="black" points="846.024,-392.694 855.143,-387.3 844.651,-385.83 846.024,-392.694"/>
</g>
<!-- StatMove0&#45;&gt;ExpMem0 -->
<g id="edge25" class="edge"><title>StatMove0&#45;&gt;ExpMem0</title>
<path fill="none" stroke="black" d="M346.833,-362.155C329.769,-351.946 306.906,-338.267 288.218,-327.086"/>
<polygon fill="black" stroke="black" points="289.801,-323.955 279.422,-321.824 286.207,-329.962 289.801,-323.955"/>
</g>
<!-- StatMove0&#45;&gt;ExpConst1 -->
<g id="edge26" class="edge"><title>StatMove0&#45;&gt;ExpConst1</title>
<path fill="none" stroke="black" d="M371.645,-359.697C371.645,-351.983 371.645,-342.712 371.645,-334.112"/>
<polygon fill="black" stroke="black" points="375.145,-334.104 371.645,-324.104 368.145,-334.104 375.145,-334.104"/>
</g>
<!-- StatMove2&#45;&gt;ExpMem3 -->
<g id="edge31" class="edge"><title>StatMove2&#45;&gt;ExpMem3</title>
<path fill="none" stroke="black" d="M747.034,-362.155C763.805,-351.946 786.278,-338.267 804.647,-327.086"/>
<polygon fill="black" stroke="black" points="806.57,-330.013 813.292,-321.824 802.93,-324.034 806.57,-330.013"/>
</g>
<!-- ExpMem2 -->
<g id="node26" class="node"><title>ExpMem2</title>
<ellipse fill="none" stroke="black" cx="722.645" cy="-306" rx="48.9926" ry="18"/>
<text text-anchor="middle" x="722.645" y="-302.3" font-family="Times,serif" font-size="14.00">ExpMem2</text>
</g>
<!-- StatMove2&#45;&gt;ExpMem2 -->
<g id="edge30" class="edge"><title>StatMove2&#45;&gt;ExpMem2</title>
<path fill="none" stroke="black" d="M722.645,-359.697C722.645,-351.983 722.645,-342.712 722.645,-334.112"/>
<polygon fill="black" stroke="black" points="726.145,-334.104 722.645,-324.104 719.145,-334.104 726.145,-334.104"/>
</g>
<!-- Label1: L5 -->
<g id="node25" class="node"><title>Label1: L5</title>
<ellipse fill="none" stroke="black" cx="954.645" cy="-306" rx="50.0912" ry="18"/>
<text text-anchor="middle" x="954.645" y="-302.3" font-family="Times,serif" font-size="14.00">Label1: L5</text>
</g>
<!-- StatJump0&#45;&gt;Label1: L5 -->
<g id="edge19" class="edge"><title>StatJump0&#45;&gt;Label1: L5</title>
<path fill="none" stroke="black" d="M910.391,-360.411C917.614,-351.693 926.602,-340.845 934.588,-331.208"/>
<polygon fill="black" stroke="black" points="937.314,-333.403 940.999,-323.47 931.924,-328.937 937.314,-333.403"/>
</g>
<!-- Temp0: $fp -->
<g id="node24" class="node"><title>Temp0: $fp</title>
<ellipse fill="none" stroke="black" cx="52.6453" cy="-90" rx="52.7911" ry="18"/>
<text text-anchor="middle" x="52.6453" y="-86.3" font-family="Times,serif" font-size="14.00">Temp0: $fp</text>
</g>
<!-- ExpTemp0&#45;&gt;Temp0: $fp -->
<g id="edge18" class="edge"><title>ExpTemp0&#45;&gt;Temp0: $fp</title>
<path fill="none" stroke="black" d="M52.6453,-143.697C52.6453,-135.983 52.6453,-126.712 52.6453,-118.112"/>
<polygon fill="black" stroke="black" points="56.1454,-118.104 52.6453,-108.104 49.1454,-118.104 56.1454,-118.104"/>
</g>
<!-- ExpBinary2 -->
<g id="node27" class="node"><title>ExpBinary2</title>
<ellipse fill="none" stroke="black" cx="763.645" cy="-234" rx="53.0913" ry="18"/>
<text text-anchor="middle" x="763.645" y="-230.3" font-family="Times,serif" font-size="14.00">ExpBinary2</text>
</g>
<!-- ExpMem2&#45;&gt;ExpBinary2 -->
<g id="edge20" class="edge"><title>ExpMem2&#45;&gt;ExpBinary2</title>
<path fill="none" stroke="black" d="M732.57,-288.055C737.405,-279.801 743.32,-269.701 748.687,-260.538"/>
<polygon fill="black" stroke="black" points="751.778,-262.187 753.812,-251.789 745.738,-258.649 751.778,-262.187"/>
</g>
<!-- ExpTemp2 -->
<g id="node34" class="node"><title>ExpTemp2</title>
<ellipse fill="none" stroke="black" cx="685.645" cy="-162" rx="50.0912" ry="18"/>
<text text-anchor="middle" x="685.645" y="-158.3" font-family="Times,serif" font-size="14.00">ExpTemp2</text>
</g>
<!-- ExpBinary2&#45;&gt;ExpTemp2 -->
<g id="edge32" class="edge"><title>ExpBinary2&#45;&gt;ExpTemp2</title>
<path fill="none" stroke="black" d="M745.555,-216.765C735.243,-207.511 722.163,-195.772 710.857,-185.626"/>
<polygon fill="black" stroke="black" points="713.149,-182.98 703.369,-178.906 708.474,-188.19 713.149,-182.98"/>
</g>
<!-- Plus2 -->
<g id="node36" class="node"><title>Plus2</title>
<ellipse fill="none" stroke="black" cx="784.645" cy="-162" rx="30.5947" ry="18"/>
<text text-anchor="middle" x="784.645" y="-158.3" font-family="Times,serif" font-size="14.00">Plus2</text>
</g>
<!-- ExpBinary2&#45;&gt;Plus2 -->
<g id="edge33" class="edge"><title>ExpBinary2&#45;&gt;Plus2</title>
<path fill="none" stroke="black" d="M768.729,-216.055C771.128,-208.059 774.046,-198.331 776.725,-189.4"/>
<polygon fill="black" stroke="black" points="780.087,-190.373 779.609,-179.789 773.383,-188.362 780.087,-190.373"/>
</g>
<!-- ExpConst4 -->
<g id="node37" class="node"><title>ExpConst4</title>
<ellipse fill="none" stroke="black" cx="883.645" cy="-162" rx="50.0912" ry="18"/>
<text text-anchor="middle" x="883.645" y="-158.3" font-family="Times,serif" font-size="14.00">ExpConst4</text>
</g>
<!-- ExpBinary2&#45;&gt;ExpConst4 -->
<g id="edge34" class="edge"><title>ExpBinary2&#45;&gt;ExpConst4</title>
<path fill="none" stroke="black" d="M789.094,-218.155C806.674,-207.9 830.258,-194.143 849.473,-182.934"/>
<polygon fill="black" stroke="black" points="851.359,-185.886 858.233,-177.824 847.832,-179.839 851.359,-185.886"/>
</g>
<!-- Value5: 4 -->
<g id="node29" class="node"><title>Value5: 4</title>
<ellipse fill="none" stroke="black" cx="1196.65" cy="-90" rx="45.4919" ry="18"/>
<text text-anchor="middle" x="1196.65" y="-86.3" font-family="Times,serif" font-size="14.00">Value5: 4</text>
</g>
<!-- ExpConst5&#45;&gt;Value5: 4 -->
<g id="edge21" class="edge"><title>ExpConst5&#45;&gt;Value5: 4</title>
<path fill="none" stroke="black" d="M1196.65,-143.697C1196.65,-135.983 1196.65,-126.712 1196.65,-118.112"/>
<polygon fill="black" stroke="black" points="1200.15,-118.104 1196.65,-108.104 1193.15,-118.104 1200.15,-118.104"/>
</g>
<!-- ExpTemp3 -->
<g id="node40" class="node"><title>ExpTemp3</title>
<ellipse fill="none" stroke="black" cx="1000.65" cy="-90" rx="50.0912" ry="18"/>
<text text-anchor="middle" x="1000.65" y="-86.3" font-family="Times,serif" font-size="14.00">ExpTemp3</text>
</g>
<!-- ExpMem4&#45;&gt;ExpTemp3 -->
<g id="edge39" class="edge"><title>ExpMem4&#45;&gt;ExpTemp3</title>
<path fill="none" stroke="black" d="M1000.65,-143.697C1000.65,-135.983 1000.65,-126.712 1000.65,-118.112"/>
<polygon fill="black" stroke="black" points="1004.15,-118.104 1000.65,-108.104 997.145,-118.104 1004.15,-118.104"/>
</g>
<!-- Temp2: $fp -->
<g id="node35" class="node"><title>Temp2: $fp</title>
<ellipse fill="none" stroke="black" cx="686.645" cy="-90" rx="52.7911" ry="18"/>
<text text-anchor="middle" x="686.645" y="-86.3" font-family="Times,serif" font-size="14.00">Temp2: $fp</text>
</g>
<!-- ExpTemp2&#45;&gt;Temp2: $fp -->
<g id="edge29" class="edge"><title>ExpTemp2&#45;&gt;Temp2: $fp</title>
<path fill="none" stroke="black" d="M685.893,-143.697C686.003,-135.983 686.135,-126.712 686.258,-118.112"/>
<polygon fill="black" stroke="black" points="689.758,-118.153 686.401,-108.104 682.758,-118.053 689.758,-118.153"/>
</g>
<!-- Value4: 24 -->
<g id="node38" class="node"><title>Value4: 24</title>
<ellipse fill="none" stroke="black" cx="882.645" cy="-90" rx="50.0912" ry="18"/>
<text text-anchor="middle" x="882.645" y="-86.3" font-family="Times,serif" font-size="14.00">Value4: 24</text>
</g>
<!-- ExpConst4&#45;&gt;Value4: 24 -->
<g id="edge35" class="edge"><title>ExpConst4&#45;&gt;Value4: 24</title>
<path fill="none" stroke="black" d="M883.398,-143.697C883.288,-135.983 883.156,-126.712 883.033,-118.112"/>
<polygon fill="black" stroke="black" points="886.532,-118.053 882.89,-108.104 879.533,-118.153 886.532,-118.053"/>
</g>
<!-- Temp3: $fp -->
<g id="node41" class="node"><title>Temp3: $fp</title>
<ellipse fill="none" stroke="black" cx="1000.65" cy="-18" rx="52.7911" ry="18"/>
<text text-anchor="middle" x="1000.65" y="-14.3" font-family="Times,serif" font-size="14.00">Temp3: $fp</text>
</g>
<!-- ExpTemp3&#45;&gt;Temp3: $fp -->
<g id="edge40" class="edge"><title>ExpTemp3&#45;&gt;Temp3: $fp</title>
<path fill="none" stroke="black" d="M1000.65,-71.6966C1000.65,-63.9827 1000.65,-54.7125 1000.65,-46.1124"/>
<polygon fill="black" stroke="black" points="1004.15,-46.1043 1000.65,-36.1043 997.145,-46.1044 1004.15,-46.1043"/>
</g>
</g>
</svg>
