<?xml version="1.0" encoding="UTF-8" standalone="no"?>
<!DOCTYPE svg PUBLIC "-//W3C//DTD SVG 1.1//EN"
 "http://www.w3.org/Graphics/SVG/1.1/DTD/svg11.dtd">
<!-- Generated by graphviz version 2.38.0 (20140413.2041)
 -->
<!-- Title: %3 Pages: 1 -->
<svg width="489pt" height="548pt"
 viewBox="0.00 0.00 489.44 548.00" xmlns="http://www.w3.org/2000/svg" xmlns:xlink="http://www.w3.org/1999/xlink">
<g id="graph0" class="graph" transform="scale(1 1) rotate(0) translate(4 544)">
<title>%3</title>
<polygon fill="white" stroke="none" points="-4,4 -4,-544 485.435,-544 485.435,4 -4,4"/>
<!-- ExpList0 -->
<g id="node1" class="node"><title>ExpList0</title>
<ellipse fill="none" stroke="black" cx="350.39" cy="-306" rx="42.7926" ry="18"/>
<text text-anchor="middle" x="350.39" y="-302.3" font-family="Times,serif" font-size="14.00">ExpList0</text>
</g>
<!-- ExpCall1 -->
<g id="node2" class="node"><title>ExpCall1</title>
<ellipse fill="none" stroke="black" cx="352.39" cy="-234" rx="44.393" ry="18"/>
<text text-anchor="middle" x="352.39" y="-230.3" font-family="Times,serif" font-size="14.00">ExpCall1</text>
</g>
<!-- ExpList0&#45;&gt;ExpCall1 -->
<g id="edge1" class="edge"><title>ExpList0&#45;&gt;ExpCall1</title>
<path fill="none" stroke="black" d="M350.884,-287.697C351.105,-279.983 351.369,-270.712 351.615,-262.112"/>
<polygon fill="black" stroke="black" points="355.114,-262.2 351.901,-252.104 348.117,-262 355.114,-262.2"/>
</g>
<!-- ExpList1 -->
<g id="node3" class="node"><title>ExpList1</title>
<ellipse fill="none" stroke="black" cx="423.39" cy="-162" rx="42.7926" ry="18"/>
<text text-anchor="middle" x="423.39" y="-158.3" font-family="Times,serif" font-size="14.00">ExpList1</text>
</g>
<!-- ExpCall1&#45;&gt;ExpList1 -->
<g id="edge4" class="edge"><title>ExpCall1&#45;&gt;ExpList1</title>
<path fill="none" stroke="black" d="M368.501,-217.116C377.851,-207.897 389.79,-196.127 400.143,-185.919"/>
<polygon fill="black" stroke="black" points="402.679,-188.334 407.343,-178.821 397.764,-183.35 402.679,-188.334"/>
</g>
<!-- ExpName1 -->
<g id="node5" class="node"><title>ExpName1</title>
<ellipse fill="none" stroke="black" cx="296.39" cy="-162" rx="50.8918" ry="18"/>
<text text-anchor="middle" x="296.39" y="-158.3" font-family="Times,serif" font-size="14.00">ExpName1</text>
</g>
<!-- ExpCall1&#45;&gt;ExpName1 -->
<g id="edge3" class="edge"><title>ExpCall1&#45;&gt;ExpName1</title>
<path fill="none" stroke="black" d="M339.402,-216.765C332.504,-208.143 323.882,-197.365 316.171,-187.727"/>
<polygon fill="black" stroke="black" points="318.677,-185.256 309.697,-179.633 313.211,-189.629 318.677,-185.256"/>
</g>
<!-- ExpConst0 -->
<g id="node4" class="node"><title>ExpConst0</title>
<ellipse fill="none" stroke="black" cx="431.39" cy="-90" rx="50.0912" ry="18"/>
<text text-anchor="middle" x="431.39" y="-86.3" font-family="Times,serif" font-size="14.00">ExpConst0</text>
</g>
<!-- ExpList1&#45;&gt;ExpConst0 -->
<g id="edge2" class="edge"><title>ExpList1&#45;&gt;ExpConst0</title>
<path fill="none" stroke="black" d="M425.367,-143.697C426.249,-135.983 427.308,-126.712 428.291,-118.112"/>
<polygon fill="black" stroke="black" points="431.777,-118.437 429.435,-108.104 424.822,-117.642 431.777,-118.437"/>
</g>
<!-- Value0: 20 -->
<g id="node9" class="node"><title>Value0: 20</title>
<ellipse fill="none" stroke="black" cx="431.39" cy="-18" rx="50.0912" ry="18"/>
<text text-anchor="middle" x="431.39" y="-14.3" font-family="Times,serif" font-size="14.00">Value0: 20</text>
</g>
<!-- ExpConst0&#45;&gt;Value0: 20 -->
<g id="edge7" class="edge"><title>ExpConst0&#45;&gt;Value0: 20</title>
<path fill="none" stroke="black" d="M431.39,-71.6966C431.39,-63.9827 431.39,-54.7125 431.39,-46.1124"/>
<polygon fill="black" stroke="black" points="434.89,-46.1043 431.39,-36.1043 427.89,-46.1044 434.89,-46.1043"/>
</g>
<!-- Label2: BS@Start -->
<g id="node6" class="node"><title>Label2: BS@Start</title>
<ellipse fill="none" stroke="black" cx="288.39" cy="-90" rx="75.2868" ry="18"/>
<text text-anchor="middle" x="288.39" y="-86.3" font-family="Times,serif" font-size="14.00">Label2: BS@Start</text>
</g>
<!-- ExpName1&#45;&gt;Label2: BS@Start -->
<g id="edge5" class="edge"><title>ExpName1&#45;&gt;Label2: BS@Start</title>
<path fill="none" stroke="black" d="M294.412,-143.697C293.531,-135.983 292.471,-126.712 291.488,-118.112"/>
<polygon fill="black" stroke="black" points="294.958,-117.642 290.345,-108.104 288.003,-118.437 294.958,-117.642"/>
</g>
<!-- StatExp0 -->
<g id="node7" class="node"><title>StatExp0</title>
<ellipse fill="none" stroke="black" cx="274.39" cy="-450" rx="42.7926" ry="18"/>
<text text-anchor="middle" x="274.39" y="-446.3" font-family="Times,serif" font-size="14.00">StatExp0</text>
</g>
<!-- ExpCall0 -->
<g id="node8" class="node"><title>ExpCall0</title>
<ellipse fill="none" stroke="black" cx="291.39" cy="-378" rx="44.393" ry="18"/>
<text text-anchor="middle" x="291.39" y="-374.3" font-family="Times,serif" font-size="14.00">ExpCall0</text>
</g>
<!-- StatExp0&#45;&gt;ExpCall0 -->
<g id="edge6" class="edge"><title>StatExp0&#45;&gt;ExpCall0</title>
<path fill="none" stroke="black" d="M278.505,-432.055C280.398,-424.261 282.69,-414.822 284.814,-406.079"/>
<polygon fill="black" stroke="black" points="288.236,-406.819 287.194,-396.275 281.433,-405.167 288.236,-406.819"/>
</g>
<!-- ExpCall0&#45;&gt;ExpList0 -->
<g id="edge10" class="edge"><title>ExpCall0&#45;&gt;ExpList0</title>
<path fill="none" stroke="black" d="M305.074,-360.765C312.52,-351.93 321.876,-340.83 330.15,-331.014"/>
<polygon fill="black" stroke="black" points="333.011,-333.049 336.78,-323.147 327.659,-328.538 333.011,-333.049"/>
</g>
<!-- ExpName0 -->
<g id="node12" class="node"><title>ExpName0</title>
<ellipse fill="none" stroke="black" cx="235.39" cy="-306" rx="50.8918" ry="18"/>
<text text-anchor="middle" x="235.39" y="-302.3" font-family="Times,serif" font-size="14.00">ExpName0</text>
</g>
<!-- ExpCall0&#45;&gt;ExpName0 -->
<g id="edge9" class="edge"><title>ExpCall0&#45;&gt;ExpName0</title>
<path fill="none" stroke="black" d="M278.402,-360.765C271.504,-352.143 262.882,-341.365 255.171,-331.727"/>
<polygon fill="black" stroke="black" points="257.677,-329.256 248.697,-323.633 252.211,-333.629 257.677,-329.256"/>
</g>
<!-- StatLabel0 -->
<g id="node10" class="node"><title>StatLabel0</title>
<ellipse fill="none" stroke="black" cx="147.39" cy="-450" rx="48.9926" ry="18"/>
<text text-anchor="middle" x="147.39" y="-446.3" font-family="Times,serif" font-size="14.00">StatLabel0</text>
</g>
<!-- Label0: BinarySearch@main -->
<g id="node11" class="node"><title>Label0: BinarySearch@main</title>
<ellipse fill="none" stroke="black" cx="114.39" cy="-378" rx="114.28" ry="18"/>
<text text-anchor="middle" x="114.39" y="-374.3" font-family="Times,serif" font-size="14.00">Label0: BinarySearch@main</text>
</g>
<!-- StatLabel0&#45;&gt;Label0: BinarySearch@main -->
<g id="edge8" class="edge"><title>StatLabel0&#45;&gt;Label0: BinarySearch@main</title>
<path fill="none" stroke="black" d="M139.401,-432.055C135.647,-424.091 131.083,-414.411 126.887,-405.51"/>
<polygon fill="black" stroke="black" points="129.964,-403.828 122.534,-396.275 123.632,-406.813 129.964,-403.828"/>
</g>
<!-- Label1: print -->
<g id="node14" class="node"><title>Label1: print</title>
<ellipse fill="none" stroke="black" cx="233.39" cy="-234" rx="56.59" ry="18"/>
<text text-anchor="middle" x="233.39" y="-230.3" font-family="Times,serif" font-size="14.00">Label1: print</text>
</g>
<!-- ExpName0&#45;&gt;Label1: print -->
<g id="edge13" class="edge"><title>ExpName0&#45;&gt;Label1: print</title>
<path fill="none" stroke="black" d="M234.895,-287.697C234.675,-279.983 234.41,-270.712 234.164,-262.112"/>
<polygon fill="black" stroke="black" points="237.663,-262 233.879,-252.104 230.666,-262.2 237.663,-262"/>
</g>
<!-- StatSeq0 -->
<g id="node13" class="node"><title>StatSeq0</title>
<ellipse fill="none" stroke="black" cx="210.39" cy="-522" rx="42.4939" ry="18"/>
<text text-anchor="middle" x="210.39" y="-518.3" font-family="Times,serif" font-size="14.00">StatSeq0</text>
</g>
<!-- StatSeq0&#45;&gt;StatExp0 -->
<g id="edge12" class="edge"><title>StatSeq0&#45;&gt;StatExp0</title>
<path fill="none" stroke="black" d="M225.234,-504.765C233.392,-495.841 243.663,-484.608 252.704,-474.719"/>
<polygon fill="black" stroke="black" points="255.462,-476.889 259.627,-467.147 250.296,-472.166 255.462,-476.889"/>
</g>
<!-- StatSeq0&#45;&gt;StatLabel0 -->
<g id="edge11" class="edge"><title>StatSeq0&#45;&gt;StatLabel0</title>
<path fill="none" stroke="black" d="M195.778,-504.765C187.862,-495.969 177.925,-484.928 169.119,-475.144"/>
<polygon fill="black" stroke="black" points="171.651,-472.725 162.36,-467.633 166.448,-477.408 171.651,-472.725"/>
</g>
</g>
</svg>
