<?xml version="1.0" encoding="UTF-8" standalone="no"?>
<!DOCTYPE svg PUBLIC "-//W3C//DTD SVG 1.1//EN"
 "http://www.w3.org/Graphics/SVG/1.1/DTD/svg11.dtd">
<!-- Generated by graphviz version 2.38.0 (20140413.2041)
 -->
<!-- Title: %3 Pages: 1 -->
<svg width="663pt" height="692pt"
 viewBox="0.00 0.00 663.09 692.00" xmlns="http://www.w3.org/2000/svg" xmlns:xlink="http://www.w3.org/1999/xlink">
<g id="graph0" class="graph" transform="scale(1 1) rotate(0) translate(4 688)">
<title>%3</title>
<polygon fill="white" stroke="none" points="-4,4 -4,-688 659.085,-688 659.085,4 -4,4"/>
<!-- ExpTemp3 -->
<g id="node1" class="node"><title>ExpTemp3</title>
<ellipse fill="none" stroke="black" cx="576.39" cy="-522" rx="50.0912" ry="18"/>
<text text-anchor="middle" x="576.39" y="-518.3" font-family="Times,serif" font-size="14.00">ExpTemp3</text>
</g>
<!-- Temp3: T4 -->
<g id="node2" class="node"><title>Temp3: T4</title>
<ellipse fill="none" stroke="black" cx="604.39" cy="-450" rx="50.8918" ry="18"/>
<text text-anchor="middle" x="604.39" y="-446.3" font-family="Times,serif" font-size="14.00">Temp3: T4</text>
</g>
<!-- ExpTemp3&#45;&gt;Temp3: T4 -->
<g id="edge1" class="edge"><title>ExpTemp3&#45;&gt;Temp3: T4</title>
<path fill="none" stroke="black" d="M583.168,-504.055C586.319,-496.176 590.143,-486.617 593.672,-477.794"/>
<polygon fill="black" stroke="black" points="597.015,-478.86 597.48,-468.275 590.516,-476.26 597.015,-478.86"/>
</g>
<!-- ExpTemp2 -->
<g id="node3" class="node"><title>ExpTemp2</title>
<ellipse fill="none" stroke="black" cx="556.39" cy="-306" rx="50.0912" ry="18"/>
<text text-anchor="middle" x="556.39" y="-302.3" font-family="Times,serif" font-size="14.00">ExpTemp2</text>
</g>
<!-- Temp2: T3 -->
<g id="node4" class="node"><title>Temp2: T3</title>
<ellipse fill="none" stroke="black" cx="556.39" cy="-234" rx="50.8918" ry="18"/>
<text text-anchor="middle" x="556.39" y="-230.3" font-family="Times,serif" font-size="14.00">Temp2: T3</text>
</g>
<!-- ExpTemp2&#45;&gt;Temp2: T3 -->
<g id="edge2" class="edge"><title>ExpTemp2&#45;&gt;Temp2: T3</title>
<path fill="none" stroke="black" d="M556.39,-287.697C556.39,-279.983 556.39,-270.712 556.39,-262.112"/>
<polygon fill="black" stroke="black" points="559.89,-262.104 556.39,-252.104 552.89,-262.104 559.89,-262.104"/>
</g>
<!-- ExpEseq0 -->
<g id="node5" class="node"><title>ExpEseq0</title>
<ellipse fill="none" stroke="black" cx="497.39" cy="-378" rx="46.2923" ry="18"/>
<text text-anchor="middle" x="497.39" y="-374.3" font-family="Times,serif" font-size="14.00">ExpEseq0</text>
</g>
<!-- ExpEseq0&#45;&gt;ExpTemp2 -->
<g id="edge4" class="edge"><title>ExpEseq0&#45;&gt;ExpTemp2</title>
<path fill="none" stroke="black" d="M511.074,-360.765C518.414,-352.056 527.609,-341.147 535.795,-331.435"/>
<polygon fill="black" stroke="black" points="538.602,-333.535 542.37,-323.633 533.249,-329.024 538.602,-333.535"/>
</g>
<!-- StatMove1 -->
<g id="node6" class="node"><title>StatMove1</title>
<ellipse fill="none" stroke="black" cx="438.39" cy="-306" rx="50.0912" ry="18"/>
<text text-anchor="middle" x="438.39" y="-302.3" font-family="Times,serif" font-size="14.00">StatMove1</text>
</g>
<!-- ExpEseq0&#45;&gt;StatMove1 -->
<g id="edge3" class="edge"><title>ExpEseq0&#45;&gt;StatMove1</title>
<path fill="none" stroke="black" d="M483.706,-360.765C476.366,-352.056 467.171,-341.147 458.985,-331.435"/>
<polygon fill="black" stroke="black" points="461.53,-329.024 452.409,-323.633 456.178,-333.535 461.53,-329.024"/>
</g>
<!-- ExpCall1 -->
<g id="node13" class="node"><title>ExpCall1</title>
<ellipse fill="none" stroke="black" cx="441.39" cy="-234" rx="44.393" ry="18"/>
<text text-anchor="middle" x="441.39" y="-230.3" font-family="Times,serif" font-size="14.00">ExpCall1</text>
</g>
<!-- StatMove1&#45;&gt;ExpCall1 -->
<g id="edge23" class="edge"><title>StatMove1&#45;&gt;ExpCall1</title>
<path fill="none" stroke="black" d="M439.131,-287.697C439.462,-279.983 439.859,-270.712 440.228,-262.112"/>
<polygon fill="black" stroke="black" points="443.725,-262.245 440.657,-252.104 436.732,-261.945 443.725,-262.245"/>
</g>
<!-- ExpTemp1 -->
<g id="node23" class="node"><title>ExpTemp1</title>
<ellipse fill="none" stroke="black" cx="325.39" cy="-234" rx="50.0912" ry="18"/>
<text text-anchor="middle" x="325.39" y="-230.3" font-family="Times,serif" font-size="14.00">ExpTemp1</text>
</g>
<!-- StatMove1&#45;&gt;ExpTemp1 -->
<g id="edge22" class="edge"><title>StatMove1&#45;&gt;ExpTemp1</title>
<path fill="none" stroke="black" d="M414.425,-290.155C398.095,-280.039 376.265,-266.515 358.308,-255.391"/>
<polygon fill="black" stroke="black" points="359.664,-252.115 349.32,-249.824 355.978,-258.065 359.664,-252.115"/>
</g>
<!-- ExpConst0 -->
<g id="node7" class="node"><title>ExpConst0</title>
<ellipse fill="none" stroke="black" cx="576.39" cy="-90" rx="50.0912" ry="18"/>
<text text-anchor="middle" x="576.39" y="-86.3" font-family="Times,serif" font-size="14.00">ExpConst0</text>
</g>
<!-- Value0: 20 -->
<g id="node8" class="node"><title>Value0: 20</title>
<ellipse fill="none" stroke="black" cx="576.39" cy="-18" rx="50.0912" ry="18"/>
<text text-anchor="middle" x="576.39" y="-14.3" font-family="Times,serif" font-size="14.00">Value0: 20</text>
</g>
<!-- ExpConst0&#45;&gt;Value0: 20 -->
<g id="edge5" class="edge"><title>ExpConst0&#45;&gt;Value0: 20</title>
<path fill="none" stroke="black" d="M576.39,-71.6966C576.39,-63.9827 576.39,-54.7125 576.39,-46.1124"/>
<polygon fill="black" stroke="black" points="579.89,-46.1043 576.39,-36.1043 572.89,-46.1044 579.89,-46.1043"/>
</g>
<!-- StatMove0 -->
<g id="node9" class="node"><title>StatMove0</title>
<ellipse fill="none" stroke="black" cx="324.39" cy="-594" rx="50.0912" ry="18"/>
<text text-anchor="middle" x="324.39" y="-590.3" font-family="Times,serif" font-size="14.00">StatMove0</text>
</g>
<!-- ExpTemp0 -->
<g id="node10" class="node"><title>ExpTemp0</title>
<ellipse fill="none" stroke="black" cx="296.39" cy="-522" rx="50.0912" ry="18"/>
<text text-anchor="middle" x="296.39" y="-518.3" font-family="Times,serif" font-size="14.00">ExpTemp0</text>
</g>
<!-- StatMove0&#45;&gt;ExpTemp0 -->
<g id="edge6" class="edge"><title>StatMove0&#45;&gt;ExpTemp0</title>
<path fill="none" stroke="black" d="M317.612,-576.055C314.46,-568.176 310.636,-558.617 307.107,-549.794"/>
<polygon fill="black" stroke="black" points="310.264,-548.26 303.3,-540.275 303.764,-550.86 310.264,-548.26"/>
</g>
<!-- ExpCall0 -->
<g id="node11" class="node"><title>ExpCall0</title>
<ellipse fill="none" stroke="black" cx="408.39" cy="-522" rx="44.393" ry="18"/>
<text text-anchor="middle" x="408.39" y="-518.3" font-family="Times,serif" font-size="14.00">ExpCall0</text>
</g>
<!-- StatMove0&#45;&gt;ExpCall0 -->
<g id="edge7" class="edge"><title>StatMove0&#45;&gt;ExpCall0</title>
<path fill="none" stroke="black" d="M343.451,-577.116C354.807,-567.652 369.391,-555.499 381.86,-545.108"/>
<polygon fill="black" stroke="black" points="384.252,-547.671 389.694,-538.58 379.771,-542.293 384.252,-547.671"/>
</g>
<!-- Temp0: T4 -->
<g id="node17" class="node"><title>Temp0: T4</title>
<ellipse fill="none" stroke="black" cx="261.39" cy="-450" rx="50.8918" ry="18"/>
<text text-anchor="middle" x="261.39" y="-446.3" font-family="Times,serif" font-size="14.00">Temp0: T4</text>
</g>
<!-- ExpTemp0&#45;&gt;Temp0: T4 -->
<g id="edge12" class="edge"><title>ExpTemp0&#45;&gt;Temp0: T4</title>
<path fill="none" stroke="black" d="M287.917,-504.055C283.833,-495.887 278.846,-485.912 274.302,-476.824"/>
<polygon fill="black" stroke="black" points="277.387,-475.168 269.784,-467.789 271.126,-478.299 277.387,-475.168"/>
</g>
<!-- ExpList0 -->
<g id="node12" class="node"><title>ExpList0</title>
<ellipse fill="none" stroke="black" cx="492.39" cy="-450" rx="42.7926" ry="18"/>
<text text-anchor="middle" x="492.39" y="-446.3" font-family="Times,serif" font-size="14.00">ExpList0</text>
</g>
<!-- ExpCall0&#45;&gt;ExpList0 -->
<g id="edge19" class="edge"><title>ExpCall0&#45;&gt;ExpList0</title>
<path fill="none" stroke="black" d="M427.032,-505.465C438.451,-495.949 453.248,-483.619 465.873,-473.097"/>
<polygon fill="black" stroke="black" points="468.358,-475.583 473.8,-466.492 463.877,-470.205 468.358,-475.583"/>
</g>
<!-- ExpName0 -->
<g id="node21" class="node"><title>ExpName0</title>
<ellipse fill="none" stroke="black" cx="380.39" cy="-450" rx="50.8918" ry="18"/>
<text text-anchor="middle" x="380.39" y="-446.3" font-family="Times,serif" font-size="14.00">ExpName0</text>
</g>
<!-- ExpCall0&#45;&gt;ExpName0 -->
<g id="edge18" class="edge"><title>ExpCall0&#45;&gt;ExpName0</title>
<path fill="none" stroke="black" d="M401.612,-504.055C398.46,-496.176 394.636,-486.617 391.107,-477.794"/>
<polygon fill="black" stroke="black" points="394.264,-476.26 387.3,-468.275 387.764,-478.86 394.264,-476.26"/>
</g>
<!-- ExpList0&#45;&gt;ExpEseq0 -->
<g id="edge8" class="edge"><title>ExpList0&#45;&gt;ExpEseq0</title>
<path fill="none" stroke="black" d="M493.626,-431.697C494.177,-423.983 494.839,-414.712 495.453,-406.112"/>
<polygon fill="black" stroke="black" points="498.947,-406.328 496.168,-396.104 491.964,-405.83 498.947,-406.328"/>
</g>
<!-- ExpName1 -->
<g id="node14" class="node"><title>ExpName1</title>
<ellipse fill="none" stroke="black" cx="441.39" cy="-162" rx="50.8918" ry="18"/>
<text text-anchor="middle" x="441.39" y="-158.3" font-family="Times,serif" font-size="14.00">ExpName1</text>
</g>
<!-- ExpCall1&#45;&gt;ExpName1 -->
<g id="edge9" class="edge"><title>ExpCall1&#45;&gt;ExpName1</title>
<path fill="none" stroke="black" d="M441.39,-215.697C441.39,-207.983 441.39,-198.712 441.39,-190.112"/>
<polygon fill="black" stroke="black" points="444.89,-190.104 441.39,-180.104 437.89,-190.104 444.89,-190.104"/>
</g>
<!-- ExpList1 -->
<g id="node15" class="node"><title>ExpList1</title>
<ellipse fill="none" stroke="black" cx="568.39" cy="-162" rx="42.7926" ry="18"/>
<text text-anchor="middle" x="568.39" y="-158.3" font-family="Times,serif" font-size="14.00">ExpList1</text>
</g>
<!-- ExpCall1&#45;&gt;ExpList1 -->
<g id="edge10" class="edge"><title>ExpCall1&#45;&gt;ExpList1</title>
<path fill="none" stroke="black" d="M466.481,-219.17C485.963,-208.432 513.17,-193.436 534.573,-181.639"/>
<polygon fill="black" stroke="black" points="536.283,-184.693 543.351,-176.801 532.904,-178.563 536.283,-184.693"/>
</g>
<!-- Label2: BS@Start -->
<g id="node25" class="node"><title>Label2: BS@Start</title>
<ellipse fill="none" stroke="black" cx="433.39" cy="-90" rx="75.2868" ry="18"/>
<text text-anchor="middle" x="433.39" y="-86.3" font-family="Times,serif" font-size="14.00">Label2: BS@Start</text>
</g>
<!-- ExpName1&#45;&gt;Label2: BS@Start -->
<g id="edge24" class="edge"><title>ExpName1&#45;&gt;Label2: BS@Start</title>
<path fill="none" stroke="black" d="M439.412,-143.697C438.531,-135.983 437.471,-126.712 436.488,-118.112"/>
<polygon fill="black" stroke="black" points="439.958,-117.642 435.345,-108.104 433.003,-118.437 439.958,-117.642"/>
</g>
<!-- ExpList1&#45;&gt;ExpConst0 -->
<g id="edge21" class="edge"><title>ExpList1&#45;&gt;ExpConst0</title>
<path fill="none" stroke="black" d="M570.367,-143.697C571.249,-135.983 572.308,-126.712 573.291,-118.112"/>
<polygon fill="black" stroke="black" points="576.777,-118.437 574.435,-108.104 569.822,-117.642 576.777,-118.437"/>
</g>
<!-- StatExp0 -->
<g id="node16" class="node"><title>StatExp0</title>
<ellipse fill="none" stroke="black" cx="491.39" cy="-594" rx="42.7926" ry="18"/>
<text text-anchor="middle" x="491.39" y="-590.3" font-family="Times,serif" font-size="14.00">StatExp0</text>
</g>
<!-- StatExp0&#45;&gt;ExpTemp3 -->
<g id="edge11" class="edge"><title>StatExp0&#45;&gt;ExpTemp3</title>
<path fill="none" stroke="black" d="M510.254,-577.465C521.729,-568.015 536.574,-555.79 549.291,-545.316"/>
<polygon fill="black" stroke="black" points="551.79,-547.793 557.284,-538.734 547.34,-542.389 551.79,-547.793"/>
</g>
<!-- StatList0 -->
<g id="node18" class="node"><title>StatList0</title>
<ellipse fill="none" stroke="black" cx="324.39" cy="-666" rx="42.4939" ry="18"/>
<text text-anchor="middle" x="324.39" y="-662.3" font-family="Times,serif" font-size="14.00">StatList0</text>
</g>
<!-- StatList0&#45;&gt;StatMove0 -->
<g id="edge14" class="edge"><title>StatList0&#45;&gt;StatMove0</title>
<path fill="none" stroke="black" d="M324.39,-647.697C324.39,-639.983 324.39,-630.712 324.39,-622.112"/>
<polygon fill="black" stroke="black" points="327.89,-622.104 324.39,-612.104 320.89,-622.104 327.89,-622.104"/>
</g>
<!-- StatList0&#45;&gt;StatExp0 -->
<g id="edge15" class="edge"><title>StatList0&#45;&gt;StatExp0</title>
<path fill="none" stroke="black" d="M353.479,-652.807C380.969,-641.284 422.394,-623.92 452.668,-611.231"/>
<polygon fill="black" stroke="black" points="454.204,-614.382 462.074,-607.288 451.498,-607.926 454.204,-614.382"/>
</g>
<!-- StatLabel0 -->
<g id="node19" class="node"><title>StatLabel0</title>
<ellipse fill="none" stroke="black" cx="175.39" cy="-594" rx="48.9926" ry="18"/>
<text text-anchor="middle" x="175.39" y="-590.3" font-family="Times,serif" font-size="14.00">StatLabel0</text>
</g>
<!-- StatList0&#45;&gt;StatLabel0 -->
<g id="edge13" class="edge"><title>StatList0&#45;&gt;StatLabel0</title>
<path fill="none" stroke="black" d="M297.061,-652.161C273.641,-641.158 239.655,-625.192 213.552,-612.928"/>
<polygon fill="black" stroke="black" points="214.865,-609.678 204.326,-608.594 211.888,-616.014 214.865,-609.678"/>
</g>
<!-- Label0: BinarySearch@main -->
<g id="node20" class="node"><title>Label0: BinarySearch@main</title>
<ellipse fill="none" stroke="black" cx="114.39" cy="-522" rx="114.28" ry="18"/>
<text text-anchor="middle" x="114.39" y="-518.3" font-family="Times,serif" font-size="14.00">Label0: BinarySearch@main</text>
</g>
<!-- StatLabel0&#45;&gt;Label0: BinarySearch@main -->
<g id="edge16" class="edge"><title>StatLabel0&#45;&gt;Label0: BinarySearch@main</title>
<path fill="none" stroke="black" d="M161.242,-576.765C153.763,-568.182 144.421,-557.462 136.052,-547.858"/>
<polygon fill="black" stroke="black" points="138.521,-545.364 129.312,-540.124 133.243,-549.962 138.521,-545.364"/>
</g>
<!-- Label1: print -->
<g id="node22" class="node"><title>Label1: print</title>
<ellipse fill="none" stroke="black" cx="376.39" cy="-378" rx="56.59" ry="18"/>
<text text-anchor="middle" x="376.39" y="-374.3" font-family="Times,serif" font-size="14.00">Label1: print</text>
</g>
<!-- ExpName0&#45;&gt;Label1: print -->
<g id="edge17" class="edge"><title>ExpName0&#45;&gt;Label1: print</title>
<path fill="none" stroke="black" d="M379.401,-431.697C378.96,-423.983 378.431,-414.712 377.939,-406.112"/>
<polygon fill="black" stroke="black" points="381.432,-405.888 377.367,-396.104 374.444,-406.288 381.432,-405.888"/>
</g>
<!-- Temp1: T3 -->
<g id="node24" class="node"><title>Temp1: T3</title>
<ellipse fill="none" stroke="black" cx="322.39" cy="-162" rx="50.8918" ry="18"/>
<text text-anchor="middle" x="322.39" y="-158.3" font-family="Times,serif" font-size="14.00">Temp1: T3</text>
</g>
<!-- ExpTemp1&#45;&gt;Temp1: T3 -->
<g id="edge20" class="edge"><title>ExpTemp1&#45;&gt;Temp1: T3</title>
<path fill="none" stroke="black" d="M324.648,-215.697C324.318,-207.983 323.92,-198.712 323.552,-190.112"/>
<polygon fill="black" stroke="black" points="327.048,-189.945 323.123,-180.104 320.054,-190.245 327.048,-189.945"/>
</g>
</g>
</svg>
