<?xml version="1.0" encoding="UTF-8" standalone="no"?>
<!DOCTYPE svg PUBLIC "-//W3C//DTD SVG 1.1//EN"
 "http://www.w3.org/Graphics/SVG/1.1/DTD/svg11.dtd">
<!-- Generated by graphviz version 2.38.0 (20140413.2041)
 -->
<!-- Title: %3 Pages: 1 -->
<svg width="605pt" height="1196pt"
 viewBox="0.00 0.00 605.44 1196.00" xmlns="http://www.w3.org/2000/svg" xmlns:xlink="http://www.w3.org/1999/xlink">
<g id="graph0" class="graph" transform="scale(1 1) rotate(0) translate(4 1192)">
<title>%3</title>
<polygon fill="white" stroke="none" points="-4,4 -4,-1192 601.435,-1192 601.435,4 -4,4"/>
<!-- StatExp0 -->
<g id="node1" class="node"><title>StatExp0</title>
<ellipse fill="none" stroke="black" cx="275.39" cy="-1098" rx="42.7926" ry="18"/>
<text text-anchor="middle" x="275.39" y="-1094.3" font-family="Times,serif" font-size="14.00">StatExp0</text>
</g>
<!-- ExpEseq0 -->
<g id="node2" class="node"><title>ExpEseq0</title>
<ellipse fill="none" stroke="black" cx="293.39" cy="-1026" rx="46.2923" ry="18"/>
<text text-anchor="middle" x="293.39" y="-1022.3" font-family="Times,serif" font-size="14.00">ExpEseq0</text>
</g>
<!-- StatExp0&#45;&gt;ExpEseq0 -->
<g id="edge1" class="edge"><title>StatExp0&#45;&gt;ExpEseq0</title>
<path fill="none" stroke="black" d="M279.747,-1080.05C281.751,-1072.26 284.179,-1062.82 286.427,-1054.08"/>
<polygon fill="black" stroke="black" points="289.847,-1054.83 288.948,-1044.28 283.067,-1053.09 289.847,-1054.83"/>
</g>
<!-- StatMove0 -->
<g id="node3" class="node"><title>StatMove0</title>
<ellipse fill="none" stroke="black" cx="234.39" cy="-954" rx="50.0912" ry="18"/>
<text text-anchor="middle" x="234.39" y="-950.3" font-family="Times,serif" font-size="14.00">StatMove0</text>
</g>
<!-- ExpEseq0&#45;&gt;StatMove0 -->
<g id="edge2" class="edge"><title>ExpEseq0&#45;&gt;StatMove0</title>
<path fill="none" stroke="black" d="M279.706,-1008.76C272.366,-1000.06 263.171,-989.147 254.985,-979.435"/>
<polygon fill="black" stroke="black" points="257.53,-977.024 248.409,-971.633 252.178,-981.535 257.53,-977.024"/>
</g>
<!-- ExpTemp5 -->
<g id="node4" class="node"><title>ExpTemp5</title>
<ellipse fill="none" stroke="black" cx="352.39" cy="-954" rx="50.0912" ry="18"/>
<text text-anchor="middle" x="352.39" y="-950.3" font-family="Times,serif" font-size="14.00">ExpTemp5</text>
</g>
<!-- ExpEseq0&#45;&gt;ExpTemp5 -->
<g id="edge3" class="edge"><title>ExpEseq0&#45;&gt;ExpTemp5</title>
<path fill="none" stroke="black" d="M307.074,-1008.76C314.414,-1000.06 323.609,-989.147 331.795,-979.435"/>
<polygon fill="black" stroke="black" points="334.602,-981.535 338.37,-971.633 329.249,-977.024 334.602,-981.535"/>
</g>
<!-- ExpCall0 -->
<g id="node19" class="node"><title>ExpCall0</title>
<ellipse fill="none" stroke="black" cx="237.39" cy="-882" rx="44.393" ry="18"/>
<text text-anchor="middle" x="237.39" y="-878.3" font-family="Times,serif" font-size="14.00">ExpCall0</text>
</g>
<!-- StatMove0&#45;&gt;ExpCall0 -->
<g id="edge24" class="edge"><title>StatMove0&#45;&gt;ExpCall0</title>
<path fill="none" stroke="black" d="M235.131,-935.697C235.462,-927.983 235.859,-918.712 236.228,-910.112"/>
<polygon fill="black" stroke="black" points="239.725,-910.245 236.657,-900.104 232.732,-909.945 239.725,-910.245"/>
</g>
<!-- ExpTemp0 -->
<g id="node26" class="node"><title>ExpTemp0</title>
<ellipse fill="none" stroke="black" cx="121.39" cy="-882" rx="50.0912" ry="18"/>
<text text-anchor="middle" x="121.39" y="-878.3" font-family="Times,serif" font-size="14.00">ExpTemp0</text>
</g>
<!-- StatMove0&#45;&gt;ExpTemp0 -->
<g id="edge23" class="edge"><title>StatMove0&#45;&gt;ExpTemp0</title>
<path fill="none" stroke="black" d="M210.425,-938.155C194.095,-928.039 172.265,-914.515 154.308,-903.391"/>
<polygon fill="black" stroke="black" points="155.664,-900.115 145.32,-897.824 151.978,-906.065 155.664,-900.115"/>
</g>
<!-- Temp5: T5 -->
<g id="node34" class="node"><title>Temp5: T5</title>
<ellipse fill="none" stroke="black" cx="352.39" cy="-882" rx="50.8918" ry="18"/>
<text text-anchor="middle" x="352.39" y="-878.3" font-family="Times,serif" font-size="14.00">Temp5: T5</text>
</g>
<!-- ExpTemp5&#45;&gt;Temp5: T5 -->
<g id="edge28" class="edge"><title>ExpTemp5&#45;&gt;Temp5: T5</title>
<path fill="none" stroke="black" d="M352.39,-935.697C352.39,-927.983 352.39,-918.712 352.39,-910.112"/>
<polygon fill="black" stroke="black" points="355.89,-910.104 352.39,-900.104 348.89,-910.104 355.89,-910.104"/>
</g>
<!-- ExpList0 -->
<g id="node5" class="node"><title>ExpList0</title>
<ellipse fill="none" stroke="black" cx="353.39" cy="-810" rx="42.7926" ry="18"/>
<text text-anchor="middle" x="353.39" y="-806.3" font-family="Times,serif" font-size="14.00">ExpList0</text>
</g>
<!-- ExpEseq1 -->
<g id="node6" class="node"><title>ExpEseq1</title>
<ellipse fill="none" stroke="black" cx="356.39" cy="-738" rx="46.2923" ry="18"/>
<text text-anchor="middle" x="356.39" y="-734.3" font-family="Times,serif" font-size="14.00">ExpEseq1</text>
</g>
<!-- ExpList0&#45;&gt;ExpEseq1 -->
<g id="edge4" class="edge"><title>ExpList0&#45;&gt;ExpEseq1</title>
<path fill="none" stroke="black" d="M354.131,-791.697C354.462,-783.983 354.859,-774.712 355.228,-766.112"/>
<polygon fill="black" stroke="black" points="358.725,-766.245 355.657,-756.104 351.732,-765.945 358.725,-766.245"/>
</g>
<!-- ExpTemp4 -->
<g id="node7" class="node"><title>ExpTemp4</title>
<ellipse fill="none" stroke="black" cx="415.39" cy="-666" rx="50.0912" ry="18"/>
<text text-anchor="middle" x="415.39" y="-662.3" font-family="Times,serif" font-size="14.00">ExpTemp4</text>
</g>
<!-- ExpEseq1&#45;&gt;ExpTemp4 -->
<g id="edge22" class="edge"><title>ExpEseq1&#45;&gt;ExpTemp4</title>
<path fill="none" stroke="black" d="M370.074,-720.765C377.414,-712.056 386.609,-701.147 394.795,-691.435"/>
<polygon fill="black" stroke="black" points="397.602,-693.535 401.37,-683.633 392.249,-689.024 397.602,-693.535"/>
</g>
<!-- StatMove1 -->
<g id="node11" class="node"><title>StatMove1</title>
<ellipse fill="none" stroke="black" cx="297.39" cy="-666" rx="50.0912" ry="18"/>
<text text-anchor="middle" x="297.39" y="-662.3" font-family="Times,serif" font-size="14.00">StatMove1</text>
</g>
<!-- ExpEseq1&#45;&gt;StatMove1 -->
<g id="edge21" class="edge"><title>ExpEseq1&#45;&gt;StatMove1</title>
<path fill="none" stroke="black" d="M342.706,-720.765C335.366,-712.056 326.171,-701.147 317.985,-691.435"/>
<polygon fill="black" stroke="black" points="320.53,-689.024 311.409,-683.633 315.178,-693.535 320.53,-689.024"/>
</g>
<!-- Temp4: T4 -->
<g id="node8" class="node"><title>Temp4: T4</title>
<ellipse fill="none" stroke="black" cx="415.39" cy="-594" rx="50.8918" ry="18"/>
<text text-anchor="middle" x="415.39" y="-590.3" font-family="Times,serif" font-size="14.00">Temp4: T4</text>
</g>
<!-- ExpTemp4&#45;&gt;Temp4: T4 -->
<g id="edge5" class="edge"><title>ExpTemp4&#45;&gt;Temp4: T4</title>
<path fill="none" stroke="black" d="M415.39,-647.697C415.39,-639.983 415.39,-630.712 415.39,-622.112"/>
<polygon fill="black" stroke="black" points="418.89,-622.104 415.39,-612.104 411.89,-622.104 418.89,-622.104"/>
</g>
<!-- ExpName1 -->
<g id="node9" class="node"><title>ExpName1</title>
<ellipse fill="none" stroke="black" cx="300.39" cy="-522" rx="50.8918" ry="18"/>
<text text-anchor="middle" x="300.39" y="-518.3" font-family="Times,serif" font-size="14.00">ExpName1</text>
</g>
<!-- Label2: BS@Start -->
<g id="node10" class="node"><title>Label2: BS@Start</title>
<ellipse fill="none" stroke="black" cx="286.39" cy="-450" rx="75.2868" ry="18"/>
<text text-anchor="middle" x="286.39" y="-446.3" font-family="Times,serif" font-size="14.00">Label2: BS@Start</text>
</g>
<!-- ExpName1&#45;&gt;Label2: BS@Start -->
<g id="edge6" class="edge"><title>ExpName1&#45;&gt;Label2: BS@Start</title>
<path fill="none" stroke="black" d="M296.929,-503.697C295.386,-495.983 293.532,-486.712 291.812,-478.112"/>
<polygon fill="black" stroke="black" points="295.204,-477.224 289.811,-468.104 288.34,-478.597 295.204,-477.224"/>
</g>
<!-- ExpTemp1 -->
<g id="node12" class="node"><title>ExpTemp1</title>
<ellipse fill="none" stroke="black" cx="184.39" cy="-594" rx="50.0912" ry="18"/>
<text text-anchor="middle" x="184.39" y="-590.3" font-family="Times,serif" font-size="14.00">ExpTemp1</text>
</g>
<!-- StatMove1&#45;&gt;ExpTemp1 -->
<g id="edge7" class="edge"><title>StatMove1&#45;&gt;ExpTemp1</title>
<path fill="none" stroke="black" d="M273.425,-650.155C257.095,-640.039 235.265,-626.515 217.308,-615.391"/>
<polygon fill="black" stroke="black" points="218.664,-612.115 208.32,-609.824 214.978,-618.065 218.664,-612.115"/>
</g>
<!-- ExpCall1 -->
<g id="node13" class="node"><title>ExpCall1</title>
<ellipse fill="none" stroke="black" cx="300.39" cy="-594" rx="44.393" ry="18"/>
<text text-anchor="middle" x="300.39" y="-590.3" font-family="Times,serif" font-size="14.00">ExpCall1</text>
</g>
<!-- StatMove1&#45;&gt;ExpCall1 -->
<g id="edge8" class="edge"><title>StatMove1&#45;&gt;ExpCall1</title>
<path fill="none" stroke="black" d="M298.131,-647.697C298.462,-639.983 298.859,-630.712 299.228,-622.112"/>
<polygon fill="black" stroke="black" points="302.725,-622.245 299.657,-612.104 295.732,-621.945 302.725,-622.245"/>
</g>
<!-- Temp1: T4 -->
<g id="node35" class="node"><title>Temp1: T4</title>
<ellipse fill="none" stroke="black" cx="181.39" cy="-522" rx="50.8918" ry="18"/>
<text text-anchor="middle" x="181.39" y="-518.3" font-family="Times,serif" font-size="14.00">Temp1: T4</text>
</g>
<!-- ExpTemp1&#45;&gt;Temp1: T4 -->
<g id="edge29" class="edge"><title>ExpTemp1&#45;&gt;Temp1: T4</title>
<path fill="none" stroke="black" d="M183.648,-575.697C183.318,-567.983 182.92,-558.712 182.552,-550.112"/>
<polygon fill="black" stroke="black" points="186.048,-549.945 182.123,-540.104 179.054,-550.245 186.048,-549.945"/>
</g>
<!-- ExpCall1&#45;&gt;ExpName1 -->
<g id="edge19" class="edge"><title>ExpCall1&#45;&gt;ExpName1</title>
<path fill="none" stroke="black" d="M300.39,-575.697C300.39,-567.983 300.39,-558.712 300.39,-550.112"/>
<polygon fill="black" stroke="black" points="303.89,-550.104 300.39,-540.104 296.89,-550.104 303.89,-550.104"/>
</g>
<!-- ExpList1 -->
<g id="node16" class="node"><title>ExpList1</title>
<ellipse fill="none" stroke="black" cx="426.39" cy="-522" rx="42.7926" ry="18"/>
<text text-anchor="middle" x="426.39" y="-518.3" font-family="Times,serif" font-size="14.00">ExpList1</text>
</g>
<!-- ExpCall1&#45;&gt;ExpList1 -->
<g id="edge20" class="edge"><title>ExpCall1&#45;&gt;ExpList1</title>
<path fill="none" stroke="black" d="M325.585,-579.003C344.853,-568.298 371.608,-553.434 392.712,-541.71"/>
<polygon fill="black" stroke="black" points="394.626,-544.651 401.668,-536.734 391.226,-538.531 394.626,-544.651"/>
</g>
<!-- ExpConst1 -->
<g id="node14" class="node"><title>ExpConst1</title>
<ellipse fill="none" stroke="black" cx="547.39" cy="-90" rx="50.0912" ry="18"/>
<text text-anchor="middle" x="547.39" y="-86.3" font-family="Times,serif" font-size="14.00">ExpConst1</text>
</g>
<!-- Value1: 4 -->
<g id="node15" class="node"><title>Value1: 4</title>
<ellipse fill="none" stroke="black" cx="547.39" cy="-18" rx="45.4919" ry="18"/>
<text text-anchor="middle" x="547.39" y="-14.3" font-family="Times,serif" font-size="14.00">Value1: 4</text>
</g>
<!-- ExpConst1&#45;&gt;Value1: 4 -->
<g id="edge9" class="edge"><title>ExpConst1&#45;&gt;Value1: 4</title>
<path fill="none" stroke="black" d="M547.39,-71.6966C547.39,-63.9827 547.39,-54.7125 547.39,-46.1124"/>
<polygon fill="black" stroke="black" points="550.89,-46.1043 547.39,-36.1043 543.89,-46.1044 550.89,-46.1043"/>
</g>
<!-- ExpEseq2 -->
<g id="node17" class="node"><title>ExpEseq2</title>
<ellipse fill="none" stroke="black" cx="426.39" cy="-450" rx="46.2923" ry="18"/>
<text text-anchor="middle" x="426.39" y="-446.3" font-family="Times,serif" font-size="14.00">ExpEseq2</text>
</g>
<!-- ExpList1&#45;&gt;ExpEseq2 -->
<g id="edge10" class="edge"><title>ExpList1&#45;&gt;ExpEseq2</title>
<path fill="none" stroke="black" d="M426.39,-503.697C426.39,-495.983 426.39,-486.712 426.39,-478.112"/>
<polygon fill="black" stroke="black" points="429.89,-478.104 426.39,-468.104 422.89,-478.104 429.89,-478.104"/>
</g>
<!-- ExpConst2 -->
<g id="node18" class="node"><title>ExpConst2</title>
<ellipse fill="none" stroke="black" cx="542.39" cy="-450" rx="50.0912" ry="18"/>
<text text-anchor="middle" x="542.39" y="-446.3" font-family="Times,serif" font-size="14.00">ExpConst2</text>
</g>
<!-- ExpList1&#45;&gt;ExpConst2 -->
<g id="edge11" class="edge"><title>ExpList1&#45;&gt;ExpConst2</title>
<path fill="none" stroke="black" d="M449.864,-506.834C466.895,-496.557 490.171,-482.511 509.116,-471.079"/>
<polygon fill="black" stroke="black" points="510.996,-474.033 517.749,-465.869 507.379,-468.039 510.996,-474.033"/>
</g>
<!-- ExpTemp3 -->
<g id="node24" class="node"><title>ExpTemp3</title>
<ellipse fill="none" stroke="black" cx="426.39" cy="-378" rx="50.0912" ry="18"/>
<text text-anchor="middle" x="426.39" y="-374.3" font-family="Times,serif" font-size="14.00">ExpTemp3</text>
</g>
<!-- ExpEseq2&#45;&gt;ExpTemp3 -->
<g id="edge38" class="edge"><title>ExpEseq2&#45;&gt;ExpTemp3</title>
<path fill="none" stroke="black" d="M426.39,-431.697C426.39,-423.983 426.39,-414.712 426.39,-406.112"/>
<polygon fill="black" stroke="black" points="429.89,-406.104 426.39,-396.104 422.89,-406.104 429.89,-406.104"/>
</g>
<!-- StatMove2 -->
<g id="node32" class="node"><title>StatMove2</title>
<ellipse fill="none" stroke="black" cx="308.39" cy="-378" rx="50.0912" ry="18"/>
<text text-anchor="middle" x="308.39" y="-374.3" font-family="Times,serif" font-size="14.00">StatMove2</text>
</g>
<!-- ExpEseq2&#45;&gt;StatMove2 -->
<g id="edge37" class="edge"><title>ExpEseq2&#45;&gt;StatMove2</title>
<path fill="none" stroke="black" d="M401.94,-434.496C384.574,-424.194 361.041,-410.234 341.923,-398.893"/>
<polygon fill="black" stroke="black" points="343.6,-395.818 333.214,-393.726 340.029,-401.839 343.6,-395.818"/>
</g>
<!-- Value2: 20 -->
<g id="node42" class="node"><title>Value2: 20</title>
<ellipse fill="none" stroke="black" cx="544.39" cy="-378" rx="50.0912" ry="18"/>
<text text-anchor="middle" x="544.39" y="-374.3" font-family="Times,serif" font-size="14.00">Value2: 20</text>
</g>
<!-- ExpConst2&#45;&gt;Value2: 20 -->
<g id="edge41" class="edge"><title>ExpConst2&#45;&gt;Value2: 20</title>
<path fill="none" stroke="black" d="M542.884,-431.697C543.105,-423.983 543.369,-414.712 543.615,-406.112"/>
<polygon fill="black" stroke="black" points="547.114,-406.2 543.901,-396.104 540.117,-406 547.114,-406.2"/>
</g>
<!-- ExpCall0&#45;&gt;ExpList0 -->
<g id="edge13" class="edge"><title>ExpCall0&#45;&gt;ExpList0</title>
<path fill="none" stroke="black" d="M261.144,-866.666C278.425,-856.237 302.025,-841.996 321.028,-830.529"/>
<polygon fill="black" stroke="black" points="322.914,-833.479 329.667,-825.315 319.297,-827.485 322.914,-833.479"/>
</g>
<!-- ExpName0 -->
<g id="node20" class="node"><title>ExpName0</title>
<ellipse fill="none" stroke="black" cx="237.39" cy="-810" rx="50.8918" ry="18"/>
<text text-anchor="middle" x="237.39" y="-806.3" font-family="Times,serif" font-size="14.00">ExpName0</text>
</g>
<!-- ExpCall0&#45;&gt;ExpName0 -->
<g id="edge12" class="edge"><title>ExpCall0&#45;&gt;ExpName0</title>
<path fill="none" stroke="black" d="M237.39,-863.697C237.39,-855.983 237.39,-846.712 237.39,-838.112"/>
<polygon fill="black" stroke="black" points="240.89,-838.104 237.39,-828.104 233.89,-838.104 240.89,-838.104"/>
</g>
<!-- Label1: print -->
<g id="node21" class="node"><title>Label1: print</title>
<ellipse fill="none" stroke="black" cx="235.39" cy="-738" rx="56.59" ry="18"/>
<text text-anchor="middle" x="235.39" y="-734.3" font-family="Times,serif" font-size="14.00">Label1: print</text>
</g>
<!-- ExpName0&#45;&gt;Label1: print -->
<g id="edge14" class="edge"><title>ExpName0&#45;&gt;Label1: print</title>
<path fill="none" stroke="black" d="M236.895,-791.697C236.675,-783.983 236.41,-774.712 236.164,-766.112"/>
<polygon fill="black" stroke="black" points="239.663,-766 235.879,-756.104 232.666,-766.2 239.663,-766"/>
</g>
<!-- StatLabel0 -->
<g id="node22" class="node"><title>StatLabel0</title>
<ellipse fill="none" stroke="black" cx="148.39" cy="-1098" rx="48.9926" ry="18"/>
<text text-anchor="middle" x="148.39" y="-1094.3" font-family="Times,serif" font-size="14.00">StatLabel0</text>
</g>
<!-- Label0: BinarySearch@main -->
<g id="node23" class="node"><title>Label0: BinarySearch@main</title>
<ellipse fill="none" stroke="black" cx="114.39" cy="-1026" rx="114.28" ry="18"/>
<text text-anchor="middle" x="114.39" y="-1022.3" font-family="Times,serif" font-size="14.00">Label0: BinarySearch@main</text>
</g>
<!-- StatLabel0&#45;&gt;Label0: BinarySearch@main -->
<g id="edge15" class="edge"><title>StatLabel0&#45;&gt;Label0: BinarySearch@main</title>
<path fill="none" stroke="black" d="M140.159,-1080.05C136.291,-1072.09 131.589,-1062.41 127.266,-1053.51"/>
<polygon fill="black" stroke="black" points="130.298,-1051.74 122.781,-1044.28 124.002,-1054.8 130.298,-1051.74"/>
</g>
<!-- Temp3: T3 -->
<g id="node25" class="node"><title>Temp3: T3</title>
<ellipse fill="none" stroke="black" cx="426.39" cy="-306" rx="50.8918" ry="18"/>
<text text-anchor="middle" x="426.39" y="-302.3" font-family="Times,serif" font-size="14.00">Temp3: T3</text>
</g>
<!-- ExpTemp3&#45;&gt;Temp3: T3 -->
<g id="edge16" class="edge"><title>ExpTemp3&#45;&gt;Temp3: T3</title>
<path fill="none" stroke="black" d="M426.39,-359.697C426.39,-351.983 426.39,-342.712 426.39,-334.112"/>
<polygon fill="black" stroke="black" points="429.89,-334.104 426.39,-324.104 422.89,-334.104 429.89,-334.104"/>
</g>
<!-- Temp0: T5 -->
<g id="node27" class="node"><title>Temp0: T5</title>
<ellipse fill="none" stroke="black" cx="118.39" cy="-810" rx="50.8918" ry="18"/>
<text text-anchor="middle" x="118.39" y="-806.3" font-family="Times,serif" font-size="14.00">Temp0: T5</text>
</g>
<!-- ExpTemp0&#45;&gt;Temp0: T5 -->
<g id="edge17" class="edge"><title>ExpTemp0&#45;&gt;Temp0: T5</title>
<path fill="none" stroke="black" d="M120.648,-863.697C120.318,-855.983 119.92,-846.712 119.552,-838.112"/>
<polygon fill="black" stroke="black" points="123.048,-837.945 119.123,-828.104 116.054,-838.245 123.048,-837.945"/>
</g>
<!-- ExpList2 -->
<g id="node28" class="node"><title>ExpList2</title>
<ellipse fill="none" stroke="black" cx="435.39" cy="-234" rx="42.7926" ry="18"/>
<text text-anchor="middle" x="435.39" y="-230.3" font-family="Times,serif" font-size="14.00">ExpList2</text>
</g>
<!-- ExpBinary0 -->
<g id="node29" class="node"><title>ExpBinary0</title>
<ellipse fill="none" stroke="black" cx="441.39" cy="-162" rx="53.0913" ry="18"/>
<text text-anchor="middle" x="441.39" y="-158.3" font-family="Times,serif" font-size="14.00">ExpBinary0</text>
</g>
<!-- ExpList2&#45;&gt;ExpBinary0 -->
<g id="edge18" class="edge"><title>ExpList2&#45;&gt;ExpBinary0</title>
<path fill="none" stroke="black" d="M436.873,-215.697C437.534,-207.983 438.329,-198.712 439.066,-190.112"/>
<polygon fill="black" stroke="black" points="442.557,-190.367 439.924,-180.104 435.582,-189.769 442.557,-190.367"/>
</g>
<!-- ExpBinary0&#45;&gt;ExpConst1 -->
<g id="edge36" class="edge"><title>ExpBinary0&#45;&gt;ExpConst1</title>
<path fill="none" stroke="black" d="M464.652,-145.638C479.667,-135.723 499.39,-122.698 515.813,-111.853"/>
<polygon fill="black" stroke="black" points="518.13,-114.517 524.546,-106.085 514.273,-108.675 518.13,-114.517"/>
</g>
<!-- ExpConst0 -->
<g id="node39" class="node"><title>ExpConst0</title>
<ellipse fill="none" stroke="black" cx="335.39" cy="-90" rx="50.0912" ry="18"/>
<text text-anchor="middle" x="335.39" y="-86.3" font-family="Times,serif" font-size="14.00">ExpConst0</text>
</g>
<!-- ExpBinary0&#45;&gt;ExpConst0 -->
<g id="edge34" class="edge"><title>ExpBinary0&#45;&gt;ExpConst0</title>
<path fill="none" stroke="black" d="M418.128,-145.638C403.113,-135.723 383.39,-122.698 366.967,-111.853"/>
<polygon fill="black" stroke="black" points="368.507,-108.675 358.233,-106.085 364.649,-114.517 368.507,-108.675"/>
</g>
<!-- Times0 -->
<g id="node41" class="node"><title>Times0</title>
<ellipse fill="none" stroke="black" cx="441.39" cy="-90" rx="37.8943" ry="18"/>
<text text-anchor="middle" x="441.39" y="-86.3" font-family="Times,serif" font-size="14.00">Times0</text>
</g>
<!-- ExpBinary0&#45;&gt;Times0 -->
<g id="edge35" class="edge"><title>ExpBinary0&#45;&gt;Times0</title>
<path fill="none" stroke="black" d="M441.39,-143.697C441.39,-135.983 441.39,-126.712 441.39,-118.112"/>
<polygon fill="black" stroke="black" points="444.89,-118.104 441.39,-108.104 437.89,-118.104 444.89,-118.104"/>
</g>
<!-- ExpTemp2 -->
<g id="node30" class="node"><title>ExpTemp2</title>
<ellipse fill="none" stroke="black" cx="195.39" cy="-306" rx="50.0912" ry="18"/>
<text text-anchor="middle" x="195.39" y="-302.3" font-family="Times,serif" font-size="14.00">ExpTemp2</text>
</g>
<!-- Temp2: T3 -->
<g id="node31" class="node"><title>Temp2: T3</title>
<ellipse fill="none" stroke="black" cx="192.39" cy="-234" rx="50.8918" ry="18"/>
<text text-anchor="middle" x="192.39" y="-230.3" font-family="Times,serif" font-size="14.00">Temp2: T3</text>
</g>
<!-- ExpTemp2&#45;&gt;Temp2: T3 -->
<g id="edge25" class="edge"><title>ExpTemp2&#45;&gt;Temp2: T3</title>
<path fill="none" stroke="black" d="M194.648,-287.697C194.318,-279.983 193.92,-270.712 193.552,-262.112"/>
<polygon fill="black" stroke="black" points="197.048,-261.945 193.123,-252.104 190.054,-262.245 197.048,-261.945"/>
</g>
<!-- StatMove2&#45;&gt;ExpTemp2 -->
<g id="edge26" class="edge"><title>StatMove2&#45;&gt;ExpTemp2</title>
<path fill="none" stroke="black" d="M284.425,-362.155C268.095,-352.039 246.265,-338.515 228.308,-327.391"/>
<polygon fill="black" stroke="black" points="229.664,-324.115 219.32,-321.824 225.978,-330.065 229.664,-324.115"/>
</g>
<!-- ExpCall2 -->
<g id="node33" class="node"><title>ExpCall2</title>
<ellipse fill="none" stroke="black" cx="311.39" cy="-306" rx="44.393" ry="18"/>
<text text-anchor="middle" x="311.39" y="-302.3" font-family="Times,serif" font-size="14.00">ExpCall2</text>
</g>
<!-- StatMove2&#45;&gt;ExpCall2 -->
<g id="edge27" class="edge"><title>StatMove2&#45;&gt;ExpCall2</title>
<path fill="none" stroke="black" d="M309.131,-359.697C309.462,-351.983 309.859,-342.712 310.228,-334.112"/>
<polygon fill="black" stroke="black" points="313.725,-334.245 310.657,-324.104 306.732,-333.945 313.725,-334.245"/>
</g>
<!-- ExpCall2&#45;&gt;ExpList2 -->
<g id="edge40" class="edge"><title>ExpCall2&#45;&gt;ExpList2</title>
<path fill="none" stroke="black" d="M336.185,-291.003C355.024,-280.368 381.136,-265.627 401.842,-253.939"/>
<polygon fill="black" stroke="black" points="403.65,-256.937 410.638,-248.973 400.209,-250.841 403.65,-256.937"/>
</g>
<!-- ExpName2 -->
<g id="node37" class="node"><title>ExpName2</title>
<ellipse fill="none" stroke="black" cx="311.39" cy="-234" rx="50.8918" ry="18"/>
<text text-anchor="middle" x="311.39" y="-230.3" font-family="Times,serif" font-size="14.00">ExpName2</text>
</g>
<!-- ExpCall2&#45;&gt;ExpName2 -->
<g id="edge39" class="edge"><title>ExpCall2&#45;&gt;ExpName2</title>
<path fill="none" stroke="black" d="M311.39,-287.697C311.39,-279.983 311.39,-270.712 311.39,-262.112"/>
<polygon fill="black" stroke="black" points="314.89,-262.104 311.39,-252.104 307.89,-262.104 314.89,-262.104"/>
</g>
<!-- StatSeq0 -->
<g id="node36" class="node"><title>StatSeq0</title>
<ellipse fill="none" stroke="black" cx="211.39" cy="-1170" rx="42.4939" ry="18"/>
<text text-anchor="middle" x="211.39" y="-1166.3" font-family="Times,serif" font-size="14.00">StatSeq0</text>
</g>
<!-- StatSeq0&#45;&gt;StatExp0 -->
<g id="edge31" class="edge"><title>StatSeq0&#45;&gt;StatExp0</title>
<path fill="none" stroke="black" d="M226.234,-1152.76C234.392,-1143.84 244.663,-1132.61 253.704,-1122.72"/>
<polygon fill="black" stroke="black" points="256.462,-1124.89 260.627,-1115.15 251.296,-1120.17 256.462,-1124.89"/>
</g>
<!-- StatSeq0&#45;&gt;StatLabel0 -->
<g id="edge30" class="edge"><title>StatSeq0&#45;&gt;StatLabel0</title>
<path fill="none" stroke="black" d="M196.778,-1152.76C188.862,-1143.97 178.925,-1132.93 170.119,-1123.14"/>
<polygon fill="black" stroke="black" points="172.651,-1120.72 163.36,-1115.63 167.448,-1125.41 172.651,-1120.72"/>
</g>
<!-- Label3: malloc -->
<g id="node38" class="node"><title>Label3: malloc</title>
<ellipse fill="none" stroke="black" cx="305.39" cy="-162" rx="64.189" ry="18"/>
<text text-anchor="middle" x="305.39" y="-158.3" font-family="Times,serif" font-size="14.00">Label3: malloc</text>
</g>
<!-- ExpName2&#45;&gt;Label3: malloc -->
<g id="edge32" class="edge"><title>ExpName2&#45;&gt;Label3: malloc</title>
<path fill="none" stroke="black" d="M309.907,-215.697C309.246,-207.983 308.451,-198.712 307.714,-190.112"/>
<polygon fill="black" stroke="black" points="311.197,-189.769 306.856,-180.104 304.223,-190.367 311.197,-189.769"/>
</g>
<!-- Value0: 2 -->
<g id="node40" class="node"><title>Value0: 2</title>
<ellipse fill="none" stroke="black" cx="335.39" cy="-18" rx="45.4919" ry="18"/>
<text text-anchor="middle" x="335.39" y="-14.3" font-family="Times,serif" font-size="14.00">Value0: 2</text>
</g>
<!-- ExpConst0&#45;&gt;Value0: 2 -->
<g id="edge33" class="edge"><title>ExpConst0&#45;&gt;Value0: 2</title>
<path fill="none" stroke="black" d="M335.39,-71.6966C335.39,-63.9827 335.39,-54.7125 335.39,-46.1124"/>
<polygon fill="black" stroke="black" points="338.89,-46.1043 335.39,-36.1043 331.89,-46.1044 338.89,-46.1043"/>
</g>
</g>
</svg>
