<?xml version="1.0" encoding="UTF-8" standalone="no"?>
<!DOCTYPE svg PUBLIC "-//W3C//DTD SVG 1.1//EN"
 "http://www.w3.org/Graphics/SVG/1.1/DTD/svg11.dtd">
<!-- Generated by graphviz version 2.38.0 (20140413.2041)
 -->
<!-- Title: %3 Pages: 1 -->
<svg width="551pt" height="764pt"
 viewBox="0.00 0.00 551.09 764.00" xmlns="http://www.w3.org/2000/svg" xmlns:xlink="http://www.w3.org/1999/xlink">
<g id="graph0" class="graph" transform="scale(1 1) rotate(0) translate(4 760)">
<title>%3</title>
<polygon fill="white" stroke="none" points="-4,4 -4,-760 547.085,-760 547.085,4 -4,4"/>
<!-- ExpTemp2 -->
<g id="node1" class="node"><title>ExpTemp2</title>
<ellipse fill="none" stroke="black" cx="444.39" cy="-306" rx="50.0912" ry="18"/>
<text text-anchor="middle" x="444.39" y="-302.3" font-family="Times,serif" font-size="14.00">ExpTemp2</text>
</g>
<!-- Temp2: T3 -->
<g id="node2" class="node"><title>Temp2: T3</title>
<ellipse fill="none" stroke="black" cx="444.39" cy="-234" rx="50.8918" ry="18"/>
<text text-anchor="middle" x="444.39" y="-230.3" font-family="Times,serif" font-size="14.00">Temp2: T3</text>
</g>
<!-- ExpTemp2&#45;&gt;Temp2: T3 -->
<g id="edge1" class="edge"><title>ExpTemp2&#45;&gt;Temp2: T3</title>
<path fill="none" stroke="black" d="M444.39,-287.697C444.39,-279.983 444.39,-270.712 444.39,-262.112"/>
<polygon fill="black" stroke="black" points="447.89,-262.104 444.39,-252.104 440.89,-262.104 447.89,-262.104"/>
</g>
<!-- ExpEseq0 -->
<g id="node3" class="node"><title>ExpEseq0</title>
<ellipse fill="none" stroke="black" cx="385.39" cy="-378" rx="46.2923" ry="18"/>
<text text-anchor="middle" x="385.39" y="-374.3" font-family="Times,serif" font-size="14.00">ExpEseq0</text>
</g>
<!-- ExpEseq0&#45;&gt;ExpTemp2 -->
<g id="edge3" class="edge"><title>ExpEseq0&#45;&gt;ExpTemp2</title>
<path fill="none" stroke="black" d="M399.074,-360.765C406.414,-352.056 415.609,-341.147 423.795,-331.435"/>
<polygon fill="black" stroke="black" points="426.602,-333.535 430.37,-323.633 421.249,-329.024 426.602,-333.535"/>
</g>
<!-- StatMove1 -->
<g id="node4" class="node"><title>StatMove1</title>
<ellipse fill="none" stroke="black" cx="326.39" cy="-306" rx="50.0912" ry="18"/>
<text text-anchor="middle" x="326.39" y="-302.3" font-family="Times,serif" font-size="14.00">StatMove1</text>
</g>
<!-- ExpEseq0&#45;&gt;StatMove1 -->
<g id="edge2" class="edge"><title>ExpEseq0&#45;&gt;StatMove1</title>
<path fill="none" stroke="black" d="M371.706,-360.765C364.366,-352.056 355.171,-341.147 346.985,-331.435"/>
<polygon fill="black" stroke="black" points="349.53,-329.024 340.409,-323.633 344.178,-333.535 349.53,-329.024"/>
</g>
<!-- ExpCall1 -->
<g id="node11" class="node"><title>ExpCall1</title>
<ellipse fill="none" stroke="black" cx="329.39" cy="-234" rx="44.393" ry="18"/>
<text text-anchor="middle" x="329.39" y="-230.3" font-family="Times,serif" font-size="14.00">ExpCall1</text>
</g>
<!-- StatMove1&#45;&gt;ExpCall1 -->
<g id="edge24" class="edge"><title>StatMove1&#45;&gt;ExpCall1</title>
<path fill="none" stroke="black" d="M327.131,-287.697C327.462,-279.983 327.859,-270.712 328.228,-262.112"/>
<polygon fill="black" stroke="black" points="331.725,-262.245 328.657,-252.104 324.732,-261.945 331.725,-262.245"/>
</g>
<!-- ExpTemp1 -->
<g id="node24" class="node"><title>ExpTemp1</title>
<ellipse fill="none" stroke="black" cx="213.39" cy="-234" rx="50.0912" ry="18"/>
<text text-anchor="middle" x="213.39" y="-230.3" font-family="Times,serif" font-size="14.00">ExpTemp1</text>
</g>
<!-- StatMove1&#45;&gt;ExpTemp1 -->
<g id="edge23" class="edge"><title>StatMove1&#45;&gt;ExpTemp1</title>
<path fill="none" stroke="black" d="M302.425,-290.155C286.095,-280.039 264.265,-266.515 246.308,-255.391"/>
<polygon fill="black" stroke="black" points="247.664,-252.115 237.32,-249.824 243.978,-258.065 247.664,-252.115"/>
</g>
<!-- ExpConst0 -->
<g id="node5" class="node"><title>ExpConst0</title>
<ellipse fill="none" stroke="black" cx="464.39" cy="-90" rx="50.0912" ry="18"/>
<text text-anchor="middle" x="464.39" y="-86.3" font-family="Times,serif" font-size="14.00">ExpConst0</text>
</g>
<!-- Value0: 20 -->
<g id="node6" class="node"><title>Value0: 20</title>
<ellipse fill="none" stroke="black" cx="464.39" cy="-18" rx="50.0912" ry="18"/>
<text text-anchor="middle" x="464.39" y="-14.3" font-family="Times,serif" font-size="14.00">Value0: 20</text>
</g>
<!-- ExpConst0&#45;&gt;Value0: 20 -->
<g id="edge4" class="edge"><title>ExpConst0&#45;&gt;Value0: 20</title>
<path fill="none" stroke="black" d="M464.39,-71.6966C464.39,-63.9827 464.39,-54.7125 464.39,-46.1124"/>
<polygon fill="black" stroke="black" points="467.89,-46.1043 464.39,-36.1043 460.89,-46.1044 467.89,-46.1043"/>
</g>
<!-- StatMove0 -->
<g id="node7" class="node"><title>StatMove0</title>
<ellipse fill="none" stroke="black" cx="296.39" cy="-594" rx="50.0912" ry="18"/>
<text text-anchor="middle" x="296.39" y="-590.3" font-family="Times,serif" font-size="14.00">StatMove0</text>
</g>
<!-- ExpTemp0 -->
<g id="node8" class="node"><title>ExpTemp0</title>
<ellipse fill="none" stroke="black" cx="181.39" cy="-522" rx="50.0912" ry="18"/>
<text text-anchor="middle" x="181.39" y="-518.3" font-family="Times,serif" font-size="14.00">ExpTemp0</text>
</g>
<!-- StatMove0&#45;&gt;ExpTemp0 -->
<g id="edge5" class="edge"><title>StatMove0&#45;&gt;ExpTemp0</title>
<path fill="none" stroke="black" d="M272.001,-578.155C255.23,-567.946 232.757,-554.267 214.388,-543.086"/>
<polygon fill="black" stroke="black" points="216.105,-540.034 205.743,-537.824 212.465,-546.013 216.105,-540.034"/>
</g>
<!-- ExpCall0 -->
<g id="node9" class="node"><title>ExpCall0</title>
<ellipse fill="none" stroke="black" cx="296.39" cy="-522" rx="44.393" ry="18"/>
<text text-anchor="middle" x="296.39" y="-518.3" font-family="Times,serif" font-size="14.00">ExpCall0</text>
</g>
<!-- StatMove0&#45;&gt;ExpCall0 -->
<g id="edge6" class="edge"><title>StatMove0&#45;&gt;ExpCall0</title>
<path fill="none" stroke="black" d="M296.39,-575.697C296.39,-567.983 296.39,-558.712 296.39,-550.112"/>
<polygon fill="black" stroke="black" points="299.89,-550.104 296.39,-540.104 292.89,-550.104 299.89,-550.104"/>
</g>
<!-- Temp0: T4 -->
<g id="node16" class="node"><title>Temp0: T4</title>
<ellipse fill="none" stroke="black" cx="149.39" cy="-450" rx="50.8918" ry="18"/>
<text text-anchor="middle" x="149.39" y="-446.3" font-family="Times,serif" font-size="14.00">Temp0: T4</text>
</g>
<!-- ExpTemp0&#45;&gt;Temp0: T4 -->
<g id="edge11" class="edge"><title>ExpTemp0&#45;&gt;Temp0: T4</title>
<path fill="none" stroke="black" d="M173.644,-504.055C170.003,-496.091 165.578,-486.411 161.509,-477.51"/>
<polygon fill="black" stroke="black" points="164.628,-475.915 157.287,-468.275 158.262,-478.825 164.628,-475.915"/>
</g>
<!-- ExpList0 -->
<g id="node10" class="node"><title>ExpList0</title>
<ellipse fill="none" stroke="black" cx="380.39" cy="-450" rx="42.7926" ry="18"/>
<text text-anchor="middle" x="380.39" y="-446.3" font-family="Times,serif" font-size="14.00">ExpList0</text>
</g>
<!-- ExpCall0&#45;&gt;ExpList0 -->
<g id="edge20" class="edge"><title>ExpCall0&#45;&gt;ExpList0</title>
<path fill="none" stroke="black" d="M315.032,-505.465C326.451,-495.949 341.248,-483.619 353.873,-473.097"/>
<polygon fill="black" stroke="black" points="356.358,-475.583 361.8,-466.492 351.877,-470.205 356.358,-475.583"/>
</g>
<!-- ExpName0 -->
<g id="node22" class="node"><title>ExpName0</title>
<ellipse fill="none" stroke="black" cx="268.39" cy="-450" rx="50.8918" ry="18"/>
<text text-anchor="middle" x="268.39" y="-446.3" font-family="Times,serif" font-size="14.00">ExpName0</text>
</g>
<!-- ExpCall0&#45;&gt;ExpName0 -->
<g id="edge19" class="edge"><title>ExpCall0&#45;&gt;ExpName0</title>
<path fill="none" stroke="black" d="M289.612,-504.055C286.46,-496.176 282.636,-486.617 279.107,-477.794"/>
<polygon fill="black" stroke="black" points="282.264,-476.26 275.3,-468.275 275.764,-478.86 282.264,-476.26"/>
</g>
<!-- ExpList0&#45;&gt;ExpEseq0 -->
<g id="edge7" class="edge"><title>ExpList0&#45;&gt;ExpEseq0</title>
<path fill="none" stroke="black" d="M381.626,-431.697C382.177,-423.983 382.839,-414.712 383.453,-406.112"/>
<polygon fill="black" stroke="black" points="386.947,-406.328 384.168,-396.104 379.964,-405.83 386.947,-406.328"/>
</g>
<!-- ExpName1 -->
<g id="node12" class="node"><title>ExpName1</title>
<ellipse fill="none" stroke="black" cx="329.39" cy="-162" rx="50.8918" ry="18"/>
<text text-anchor="middle" x="329.39" y="-158.3" font-family="Times,serif" font-size="14.00">ExpName1</text>
</g>
<!-- ExpCall1&#45;&gt;ExpName1 -->
<g id="edge8" class="edge"><title>ExpCall1&#45;&gt;ExpName1</title>
<path fill="none" stroke="black" d="M329.39,-215.697C329.39,-207.983 329.39,-198.712 329.39,-190.112"/>
<polygon fill="black" stroke="black" points="332.89,-190.104 329.39,-180.104 325.89,-190.104 332.89,-190.104"/>
</g>
<!-- ExpList1 -->
<g id="node13" class="node"><title>ExpList1</title>
<ellipse fill="none" stroke="black" cx="456.39" cy="-162" rx="42.7926" ry="18"/>
<text text-anchor="middle" x="456.39" y="-158.3" font-family="Times,serif" font-size="14.00">ExpList1</text>
</g>
<!-- ExpCall1&#45;&gt;ExpList1 -->
<g id="edge9" class="edge"><title>ExpCall1&#45;&gt;ExpList1</title>
<path fill="none" stroke="black" d="M354.481,-219.17C373.963,-208.432 401.17,-193.436 422.573,-181.639"/>
<polygon fill="black" stroke="black" points="424.283,-184.693 431.351,-176.801 420.904,-178.563 424.283,-184.693"/>
</g>
<!-- Label2: BS@Start -->
<g id="node26" class="node"><title>Label2: BS@Start</title>
<ellipse fill="none" stroke="black" cx="321.39" cy="-90" rx="75.2868" ry="18"/>
<text text-anchor="middle" x="321.39" y="-86.3" font-family="Times,serif" font-size="14.00">Label2: BS@Start</text>
</g>
<!-- ExpName1&#45;&gt;Label2: BS@Start -->
<g id="edge25" class="edge"><title>ExpName1&#45;&gt;Label2: BS@Start</title>
<path fill="none" stroke="black" d="M327.412,-143.697C326.531,-135.983 325.471,-126.712 324.488,-118.112"/>
<polygon fill="black" stroke="black" points="327.958,-117.642 323.345,-108.104 321.003,-118.437 327.958,-117.642"/>
</g>
<!-- ExpList1&#45;&gt;ExpConst0 -->
<g id="edge22" class="edge"><title>ExpList1&#45;&gt;ExpConst0</title>
<path fill="none" stroke="black" d="M458.367,-143.697C459.249,-135.983 460.308,-126.712 461.291,-118.112"/>
<polygon fill="black" stroke="black" points="464.777,-118.437 462.435,-108.104 457.822,-117.642 464.777,-118.437"/>
</g>
<!-- StatExp0 -->
<g id="node14" class="node"><title>StatExp0</title>
<ellipse fill="none" stroke="black" cx="407.39" cy="-594" rx="42.7926" ry="18"/>
<text text-anchor="middle" x="407.39" y="-590.3" font-family="Times,serif" font-size="14.00">StatExp0</text>
</g>
<!-- ExpTemp3 -->
<g id="node15" class="node"><title>ExpTemp3</title>
<ellipse fill="none" stroke="black" cx="464.39" cy="-522" rx="50.0912" ry="18"/>
<text text-anchor="middle" x="464.39" y="-518.3" font-family="Times,serif" font-size="14.00">ExpTemp3</text>
</g>
<!-- StatExp0&#45;&gt;ExpTemp3 -->
<g id="edge10" class="edge"><title>StatExp0&#45;&gt;ExpTemp3</title>
<path fill="none" stroke="black" d="M420.61,-576.765C427.701,-568.056 436.585,-557.147 444.493,-547.435"/>
<polygon fill="black" stroke="black" points="447.245,-549.598 450.846,-539.633 441.817,-545.178 447.245,-549.598"/>
</g>
<!-- Temp3: T4 -->
<g id="node17" class="node"><title>Temp3: T4</title>
<ellipse fill="none" stroke="black" cx="492.39" cy="-450" rx="50.8918" ry="18"/>
<text text-anchor="middle" x="492.39" y="-446.3" font-family="Times,serif" font-size="14.00">Temp3: T4</text>
</g>
<!-- ExpTemp3&#45;&gt;Temp3: T4 -->
<g id="edge12" class="edge"><title>ExpTemp3&#45;&gt;Temp3: T4</title>
<path fill="none" stroke="black" d="M471.168,-504.055C474.319,-496.176 478.143,-486.617 481.672,-477.794"/>
<polygon fill="black" stroke="black" points="485.015,-478.86 485.48,-468.275 478.516,-476.26 485.015,-478.86"/>
</g>
<!-- StatSeq0 -->
<g id="node18" class="node"><title>StatSeq0</title>
<ellipse fill="none" stroke="black" cx="223.39" cy="-738" rx="42.4939" ry="18"/>
<text text-anchor="middle" x="223.39" y="-734.3" font-family="Times,serif" font-size="14.00">StatSeq0</text>
</g>
<!-- StatLabel0 -->
<g id="node19" class="node"><title>StatLabel0</title>
<ellipse fill="none" stroke="black" cx="151.39" cy="-666" rx="48.9926" ry="18"/>
<text text-anchor="middle" x="151.39" y="-662.3" font-family="Times,serif" font-size="14.00">StatLabel0</text>
</g>
<!-- StatSeq0&#45;&gt;StatLabel0 -->
<g id="edge13" class="edge"><title>StatSeq0&#45;&gt;StatLabel0</title>
<path fill="none" stroke="black" d="M207.052,-721.116C197.704,-712.027 185.804,-700.458 175.408,-690.351"/>
<polygon fill="black" stroke="black" points="177.773,-687.768 168.163,-683.307 172.893,-692.787 177.773,-687.768"/>
</g>
<!-- StatSeq1 -->
<g id="node20" class="node"><title>StatSeq1</title>
<ellipse fill="none" stroke="black" cx="296.39" cy="-666" rx="42.4939" ry="18"/>
<text text-anchor="middle" x="296.39" y="-662.3" font-family="Times,serif" font-size="14.00">StatSeq1</text>
</g>
<!-- StatSeq0&#45;&gt;StatSeq1 -->
<g id="edge14" class="edge"><title>StatSeq0&#45;&gt;StatSeq1</title>
<path fill="none" stroke="black" d="M239.955,-721.116C249.568,-711.897 261.843,-700.127 272.489,-689.919"/>
<polygon fill="black" stroke="black" points="275.095,-692.269 279.891,-682.821 270.25,-687.216 275.095,-692.269"/>
</g>
<!-- Label0: BinarySearch@main -->
<g id="node21" class="node"><title>Label0: BinarySearch@main</title>
<ellipse fill="none" stroke="black" cx="114.39" cy="-594" rx="114.28" ry="18"/>
<text text-anchor="middle" x="114.39" y="-590.3" font-family="Times,serif" font-size="14.00">Label0: BinarySearch@main</text>
</g>
<!-- StatLabel0&#45;&gt;Label0: BinarySearch@main -->
<g id="edge15" class="edge"><title>StatLabel0&#45;&gt;Label0: BinarySearch@main</title>
<path fill="none" stroke="black" d="M142.433,-648.055C138.179,-640.007 132.998,-630.205 128.252,-621.226"/>
<polygon fill="black" stroke="black" points="131.289,-619.481 123.521,-612.275 125.1,-622.752 131.289,-619.481"/>
</g>
<!-- StatSeq1&#45;&gt;StatMove0 -->
<g id="edge17" class="edge"><title>StatSeq1&#45;&gt;StatMove0</title>
<path fill="none" stroke="black" d="M296.39,-647.697C296.39,-639.983 296.39,-630.712 296.39,-622.112"/>
<polygon fill="black" stroke="black" points="299.89,-622.104 296.39,-612.104 292.89,-622.104 299.89,-622.104"/>
</g>
<!-- StatSeq1&#45;&gt;StatExp0 -->
<g id="edge18" class="edge"><title>StatSeq1&#45;&gt;StatExp0</title>
<path fill="none" stroke="black" d="M319.12,-650.666C335.581,-640.285 358.035,-626.125 376.176,-614.685"/>
<polygon fill="black" stroke="black" points="378.098,-617.61 384.69,-609.315 374.364,-611.689 378.098,-617.61"/>
</g>
<!-- Label1: print -->
<g id="node23" class="node"><title>Label1: print</title>
<ellipse fill="none" stroke="black" cx="264.39" cy="-378" rx="56.59" ry="18"/>
<text text-anchor="middle" x="264.39" y="-374.3" font-family="Times,serif" font-size="14.00">Label1: print</text>
</g>
<!-- ExpName0&#45;&gt;Label1: print -->
<g id="edge16" class="edge"><title>ExpName0&#45;&gt;Label1: print</title>
<path fill="none" stroke="black" d="M267.401,-431.697C266.96,-423.983 266.431,-414.712 265.939,-406.112"/>
<polygon fill="black" stroke="black" points="269.432,-405.888 265.367,-396.104 262.444,-406.288 269.432,-405.888"/>
</g>
<!-- Temp1: T3 -->
<g id="node25" class="node"><title>Temp1: T3</title>
<ellipse fill="none" stroke="black" cx="210.39" cy="-162" rx="50.8918" ry="18"/>
<text text-anchor="middle" x="210.39" y="-158.3" font-family="Times,serif" font-size="14.00">Temp1: T3</text>
</g>
<!-- ExpTemp1&#45;&gt;Temp1: T3 -->
<g id="edge21" class="edge"><title>ExpTemp1&#45;&gt;Temp1: T3</title>
<path fill="none" stroke="black" d="M212.648,-215.697C212.318,-207.983 211.92,-198.712 211.552,-190.112"/>
<polygon fill="black" stroke="black" points="215.048,-189.945 211.123,-180.104 208.054,-190.245 215.048,-189.945"/>
</g>
</g>
</svg>
