<?xml version="1.0" encoding="UTF-8" standalone="no"?>
<!DOCTYPE svg PUBLIC "-//W3C//DTD SVG 1.1//EN"
 "http://www.w3.org/Graphics/SVG/1.1/DTD/svg11.dtd">
<!-- Generated by graphviz version 2.38.0 (20140413.2041)
 -->
<!-- Title: %3 Pages: 1 -->
<svg width="746pt" height="1052pt"
 viewBox="0.00 0.00 746.44 1052.00" xmlns="http://www.w3.org/2000/svg" xmlns:xlink="http://www.w3.org/1999/xlink">
<g id="graph0" class="graph" transform="scale(1 1) rotate(0) translate(4 1048)">
<title>%3</title>
<polygon fill="white" stroke="none" points="-4,4 -4,-1048 742.435,-1048 742.435,4 -4,4"/>
<!-- StatExp0 -->
<g id="node1" class="node"><title>StatExp0</title>
<ellipse fill="none" stroke="black" cx="512.39" cy="-954" rx="42.7926" ry="18"/>
<text text-anchor="middle" x="512.39" y="-950.3" font-family="Times,serif" font-size="14.00">StatExp0</text>
</g>
<!-- ExpTemp5 -->
<g id="node2" class="node"><title>ExpTemp5</title>
<ellipse fill="none" stroke="black" cx="548.39" cy="-882" rx="50.0912" ry="18"/>
<text text-anchor="middle" x="548.39" y="-878.3" font-family="Times,serif" font-size="14.00">ExpTemp5</text>
</g>
<!-- StatExp0&#45;&gt;ExpTemp5 -->
<g id="edge1" class="edge"><title>StatExp0&#45;&gt;ExpTemp5</title>
<path fill="none" stroke="black" d="M521.104,-936.055C525.305,-927.887 530.435,-917.912 535.109,-908.824"/>
<polygon fill="black" stroke="black" points="538.294,-910.283 539.756,-899.789 532.069,-907.081 538.294,-910.283"/>
</g>
<!-- Temp5: T5 -->
<g id="node32" class="node"><title>Temp5: T5</title>
<ellipse fill="none" stroke="black" cx="604.39" cy="-810" rx="50.8918" ry="18"/>
<text text-anchor="middle" x="604.39" y="-806.3" font-family="Times,serif" font-size="14.00">Temp5: T5</text>
</g>
<!-- ExpTemp5&#45;&gt;Temp5: T5 -->
<g id="edge26" class="edge"><title>ExpTemp5&#45;&gt;Temp5: T5</title>
<path fill="none" stroke="black" d="M561.661,-864.411C568.565,-855.781 577.14,-845.062 584.792,-835.497"/>
<polygon fill="black" stroke="black" points="587.7,-837.465 591.214,-827.47 582.234,-833.092 587.7,-837.465"/>
</g>
<!-- ExpList0 -->
<g id="node3" class="node"><title>ExpList0</title>
<ellipse fill="none" stroke="black" cx="492.39" cy="-810" rx="42.7926" ry="18"/>
<text text-anchor="middle" x="492.39" y="-806.3" font-family="Times,serif" font-size="14.00">ExpList0</text>
</g>
<!-- ExpEseq0 -->
<g id="node4" class="node"><title>ExpEseq0</title>
<ellipse fill="none" stroke="black" cx="497.39" cy="-738" rx="46.2923" ry="18"/>
<text text-anchor="middle" x="497.39" y="-734.3" font-family="Times,serif" font-size="14.00">ExpEseq0</text>
</g>
<!-- ExpList0&#45;&gt;ExpEseq0 -->
<g id="edge2" class="edge"><title>ExpList0&#45;&gt;ExpEseq0</title>
<path fill="none" stroke="black" d="M493.626,-791.697C494.177,-783.983 494.839,-774.712 495.453,-766.112"/>
<polygon fill="black" stroke="black" points="498.947,-766.328 496.168,-756.104 491.964,-765.83 498.947,-766.328"/>
</g>
<!-- ExpTemp4 -->
<g id="node5" class="node"><title>ExpTemp4</title>
<ellipse fill="none" stroke="black" cx="556.39" cy="-666" rx="50.0912" ry="18"/>
<text text-anchor="middle" x="556.39" y="-662.3" font-family="Times,serif" font-size="14.00">ExpTemp4</text>
</g>
<!-- ExpEseq0&#45;&gt;ExpTemp4 -->
<g id="edge5" class="edge"><title>ExpEseq0&#45;&gt;ExpTemp4</title>
<path fill="none" stroke="black" d="M511.074,-720.765C518.414,-712.056 527.609,-701.147 535.795,-691.435"/>
<polygon fill="black" stroke="black" points="538.602,-693.535 542.37,-683.633 533.249,-689.024 538.602,-693.535"/>
</g>
<!-- StatMove1 -->
<g id="node7" class="node"><title>StatMove1</title>
<ellipse fill="none" stroke="black" cx="438.39" cy="-666" rx="50.0912" ry="18"/>
<text text-anchor="middle" x="438.39" y="-662.3" font-family="Times,serif" font-size="14.00">StatMove1</text>
</g>
<!-- ExpEseq0&#45;&gt;StatMove1 -->
<g id="edge4" class="edge"><title>ExpEseq0&#45;&gt;StatMove1</title>
<path fill="none" stroke="black" d="M483.706,-720.765C476.366,-712.056 467.171,-701.147 458.985,-691.435"/>
<polygon fill="black" stroke="black" points="461.53,-689.024 452.409,-683.633 456.178,-693.535 461.53,-689.024"/>
</g>
<!-- Temp4: T4 -->
<g id="node6" class="node"><title>Temp4: T4</title>
<ellipse fill="none" stroke="black" cx="556.39" cy="-594" rx="50.8918" ry="18"/>
<text text-anchor="middle" x="556.39" y="-590.3" font-family="Times,serif" font-size="14.00">Temp4: T4</text>
</g>
<!-- ExpTemp4&#45;&gt;Temp4: T4 -->
<g id="edge3" class="edge"><title>ExpTemp4&#45;&gt;Temp4: T4</title>
<path fill="none" stroke="black" d="M556.39,-647.697C556.39,-639.983 556.39,-630.712 556.39,-622.112"/>
<polygon fill="black" stroke="black" points="559.89,-622.104 556.39,-612.104 552.89,-622.104 559.89,-622.104"/>
</g>
<!-- ExpTemp1 -->
<g id="node10" class="node"><title>ExpTemp1</title>
<ellipse fill="none" stroke="black" cx="325.39" cy="-594" rx="50.0912" ry="18"/>
<text text-anchor="middle" x="325.39" y="-590.3" font-family="Times,serif" font-size="14.00">ExpTemp1</text>
</g>
<!-- StatMove1&#45;&gt;ExpTemp1 -->
<g id="edge7" class="edge"><title>StatMove1&#45;&gt;ExpTemp1</title>
<path fill="none" stroke="black" d="M414.425,-650.155C398.095,-640.039 376.265,-626.515 358.308,-615.391"/>
<polygon fill="black" stroke="black" points="359.664,-612.115 349.32,-609.824 355.978,-618.065 359.664,-612.115"/>
</g>
<!-- ExpCall1 -->
<g id="node11" class="node"><title>ExpCall1</title>
<ellipse fill="none" stroke="black" cx="441.39" cy="-594" rx="44.393" ry="18"/>
<text text-anchor="middle" x="441.39" y="-590.3" font-family="Times,serif" font-size="14.00">ExpCall1</text>
</g>
<!-- StatMove1&#45;&gt;ExpCall1 -->
<g id="edge8" class="edge"><title>StatMove1&#45;&gt;ExpCall1</title>
<path fill="none" stroke="black" d="M439.131,-647.697C439.462,-639.983 439.859,-630.712 440.228,-622.112"/>
<polygon fill="black" stroke="black" points="443.725,-622.245 440.657,-612.104 436.732,-621.945 443.725,-622.245"/>
</g>
<!-- ExpName1 -->
<g id="node8" class="node"><title>ExpName1</title>
<ellipse fill="none" stroke="black" cx="441.39" cy="-522" rx="50.8918" ry="18"/>
<text text-anchor="middle" x="441.39" y="-518.3" font-family="Times,serif" font-size="14.00">ExpName1</text>
</g>
<!-- Label2: BS@Start -->
<g id="node9" class="node"><title>Label2: BS@Start</title>
<ellipse fill="none" stroke="black" cx="427.39" cy="-450" rx="75.2868" ry="18"/>
<text text-anchor="middle" x="427.39" y="-446.3" font-family="Times,serif" font-size="14.00">Label2: BS@Start</text>
</g>
<!-- ExpName1&#45;&gt;Label2: BS@Start -->
<g id="edge6" class="edge"><title>ExpName1&#45;&gt;Label2: BS@Start</title>
<path fill="none" stroke="black" d="M437.929,-503.697C436.386,-495.983 434.532,-486.712 432.812,-478.112"/>
<polygon fill="black" stroke="black" points="436.204,-477.224 430.811,-468.104 429.34,-478.597 436.204,-477.224"/>
</g>
<!-- Temp1: T4 -->
<g id="node33" class="node"><title>Temp1: T4</title>
<ellipse fill="none" stroke="black" cx="322.39" cy="-522" rx="50.8918" ry="18"/>
<text text-anchor="middle" x="322.39" y="-518.3" font-family="Times,serif" font-size="14.00">Temp1: T4</text>
</g>
<!-- ExpTemp1&#45;&gt;Temp1: T4 -->
<g id="edge27" class="edge"><title>ExpTemp1&#45;&gt;Temp1: T4</title>
<path fill="none" stroke="black" d="M324.648,-575.697C324.318,-567.983 323.92,-558.712 323.552,-550.112"/>
<polygon fill="black" stroke="black" points="327.048,-549.945 323.123,-540.104 320.054,-550.245 327.048,-549.945"/>
</g>
<!-- ExpCall1&#45;&gt;ExpName1 -->
<g id="edge21" class="edge"><title>ExpCall1&#45;&gt;ExpName1</title>
<path fill="none" stroke="black" d="M441.39,-575.697C441.39,-567.983 441.39,-558.712 441.39,-550.112"/>
<polygon fill="black" stroke="black" points="444.89,-550.104 441.39,-540.104 437.89,-550.104 444.89,-550.104"/>
</g>
<!-- ExpList1 -->
<g id="node14" class="node"><title>ExpList1</title>
<ellipse fill="none" stroke="black" cx="567.39" cy="-522" rx="42.7926" ry="18"/>
<text text-anchor="middle" x="567.39" y="-518.3" font-family="Times,serif" font-size="14.00">ExpList1</text>
</g>
<!-- ExpCall1&#45;&gt;ExpList1 -->
<g id="edge22" class="edge"><title>ExpCall1&#45;&gt;ExpList1</title>
<path fill="none" stroke="black" d="M466.585,-579.003C485.853,-568.298 512.608,-553.434 533.712,-541.71"/>
<polygon fill="black" stroke="black" points="535.626,-544.651 542.668,-536.734 532.226,-538.531 535.626,-544.651"/>
</g>
<!-- ExpConst1 -->
<g id="node12" class="node"><title>ExpConst1</title>
<ellipse fill="none" stroke="black" cx="688.39" cy="-90" rx="50.0912" ry="18"/>
<text text-anchor="middle" x="688.39" y="-86.3" font-family="Times,serif" font-size="14.00">ExpConst1</text>
</g>
<!-- Value1: 4 -->
<g id="node13" class="node"><title>Value1: 4</title>
<ellipse fill="none" stroke="black" cx="688.39" cy="-18" rx="45.4919" ry="18"/>
<text text-anchor="middle" x="688.39" y="-14.3" font-family="Times,serif" font-size="14.00">Value1: 4</text>
</g>
<!-- ExpConst1&#45;&gt;Value1: 4 -->
<g id="edge9" class="edge"><title>ExpConst1&#45;&gt;Value1: 4</title>
<path fill="none" stroke="black" d="M688.39,-71.6966C688.39,-63.9827 688.39,-54.7125 688.39,-46.1124"/>
<polygon fill="black" stroke="black" points="691.89,-46.1043 688.39,-36.1043 684.89,-46.1044 691.89,-46.1043"/>
</g>
<!-- ExpEseq1 -->
<g id="node15" class="node"><title>ExpEseq1</title>
<ellipse fill="none" stroke="black" cx="567.39" cy="-450" rx="46.2923" ry="18"/>
<text text-anchor="middle" x="567.39" y="-446.3" font-family="Times,serif" font-size="14.00">ExpEseq1</text>
</g>
<!-- ExpList1&#45;&gt;ExpEseq1 -->
<g id="edge10" class="edge"><title>ExpList1&#45;&gt;ExpEseq1</title>
<path fill="none" stroke="black" d="M567.39,-503.697C567.39,-495.983 567.39,-486.712 567.39,-478.112"/>
<polygon fill="black" stroke="black" points="570.89,-478.104 567.39,-468.104 563.89,-478.104 570.89,-478.104"/>
</g>
<!-- ExpConst2 -->
<g id="node16" class="node"><title>ExpConst2</title>
<ellipse fill="none" stroke="black" cx="683.39" cy="-450" rx="50.0912" ry="18"/>
<text text-anchor="middle" x="683.39" y="-446.3" font-family="Times,serif" font-size="14.00">ExpConst2</text>
</g>
<!-- ExpList1&#45;&gt;ExpConst2 -->
<g id="edge11" class="edge"><title>ExpList1&#45;&gt;ExpConst2</title>
<path fill="none" stroke="black" d="M590.864,-506.834C607.895,-496.557 631.171,-482.511 650.116,-471.079"/>
<polygon fill="black" stroke="black" points="651.996,-474.033 658.749,-465.869 648.379,-468.039 651.996,-474.033"/>
</g>
<!-- StatMove2 -->
<g id="node30" class="node"><title>StatMove2</title>
<ellipse fill="none" stroke="black" cx="449.39" cy="-378" rx="50.0912" ry="18"/>
<text text-anchor="middle" x="449.39" y="-374.3" font-family="Times,serif" font-size="14.00">StatMove2</text>
</g>
<!-- ExpEseq1&#45;&gt;StatMove2 -->
<g id="edge35" class="edge"><title>ExpEseq1&#45;&gt;StatMove2</title>
<path fill="none" stroke="black" d="M542.94,-434.496C525.574,-424.194 502.041,-410.234 482.923,-398.893"/>
<polygon fill="black" stroke="black" points="484.6,-395.818 474.214,-393.726 481.029,-401.839 484.6,-395.818"/>
</g>
<!-- ExpTemp3 -->
<g id="node39" class="node"><title>ExpTemp3</title>
<ellipse fill="none" stroke="black" cx="567.39" cy="-378" rx="50.0912" ry="18"/>
<text text-anchor="middle" x="567.39" y="-374.3" font-family="Times,serif" font-size="14.00">ExpTemp3</text>
</g>
<!-- ExpEseq1&#45;&gt;ExpTemp3 -->
<g id="edge36" class="edge"><title>ExpEseq1&#45;&gt;ExpTemp3</title>
<path fill="none" stroke="black" d="M567.39,-431.697C567.39,-423.983 567.39,-414.712 567.39,-406.112"/>
<polygon fill="black" stroke="black" points="570.89,-406.104 567.39,-396.104 563.89,-406.104 570.89,-406.104"/>
</g>
<!-- Value2: 20 -->
<g id="node41" class="node"><title>Value2: 20</title>
<ellipse fill="none" stroke="black" cx="685.39" cy="-378" rx="50.0912" ry="18"/>
<text text-anchor="middle" x="685.39" y="-374.3" font-family="Times,serif" font-size="14.00">Value2: 20</text>
</g>
<!-- ExpConst2&#45;&gt;Value2: 20 -->
<g id="edge40" class="edge"><title>ExpConst2&#45;&gt;Value2: 20</title>
<path fill="none" stroke="black" d="M683.884,-431.697C684.105,-423.983 684.369,-414.712 684.615,-406.112"/>
<polygon fill="black" stroke="black" points="688.114,-406.2 684.901,-396.104 681.117,-406 688.114,-406.2"/>
</g>
<!-- ExpCall0 -->
<g id="node17" class="node"><title>ExpCall0</title>
<ellipse fill="none" stroke="black" cx="408.39" cy="-882" rx="44.393" ry="18"/>
<text text-anchor="middle" x="408.39" y="-878.3" font-family="Times,serif" font-size="14.00">ExpCall0</text>
</g>
<!-- ExpCall0&#45;&gt;ExpList0 -->
<g id="edge13" class="edge"><title>ExpCall0&#45;&gt;ExpList0</title>
<path fill="none" stroke="black" d="M427.032,-865.465C438.451,-855.949 453.248,-843.619 465.873,-833.097"/>
<polygon fill="black" stroke="black" points="468.358,-835.583 473.8,-826.492 463.877,-830.205 468.358,-835.583"/>
</g>
<!-- ExpName0 -->
<g id="node18" class="node"><title>ExpName0</title>
<ellipse fill="none" stroke="black" cx="380.39" cy="-810" rx="50.8918" ry="18"/>
<text text-anchor="middle" x="380.39" y="-806.3" font-family="Times,serif" font-size="14.00">ExpName0</text>
</g>
<!-- ExpCall0&#45;&gt;ExpName0 -->
<g id="edge12" class="edge"><title>ExpCall0&#45;&gt;ExpName0</title>
<path fill="none" stroke="black" d="M401.612,-864.055C398.46,-856.176 394.636,-846.617 391.107,-837.794"/>
<polygon fill="black" stroke="black" points="394.264,-836.26 387.3,-828.275 387.764,-838.86 394.264,-836.26"/>
</g>
<!-- Label1: print -->
<g id="node19" class="node"><title>Label1: print</title>
<ellipse fill="none" stroke="black" cx="376.39" cy="-738" rx="56.59" ry="18"/>
<text text-anchor="middle" x="376.39" y="-734.3" font-family="Times,serif" font-size="14.00">Label1: print</text>
</g>
<!-- ExpName0&#45;&gt;Label1: print -->
<g id="edge14" class="edge"><title>ExpName0&#45;&gt;Label1: print</title>
<path fill="none" stroke="black" d="M379.401,-791.697C378.96,-783.983 378.431,-774.712 377.939,-766.112"/>
<polygon fill="black" stroke="black" points="381.432,-765.888 377.367,-756.104 374.444,-766.288 381.432,-765.888"/>
</g>
<!-- StatLabel0 -->
<g id="node20" class="node"><title>StatLabel0</title>
<ellipse fill="none" stroke="black" cx="182.39" cy="-954" rx="48.9926" ry="18"/>
<text text-anchor="middle" x="182.39" y="-950.3" font-family="Times,serif" font-size="14.00">StatLabel0</text>
</g>
<!-- Label0: BinarySearch@main -->
<g id="node21" class="node"><title>Label0: BinarySearch@main</title>
<ellipse fill="none" stroke="black" cx="114.39" cy="-882" rx="114.28" ry="18"/>
<text text-anchor="middle" x="114.39" y="-878.3" font-family="Times,serif" font-size="14.00">Label0: BinarySearch@main</text>
</g>
<!-- StatLabel0&#45;&gt;Label0: BinarySearch@main -->
<g id="edge15" class="edge"><title>StatLabel0&#45;&gt;Label0: BinarySearch@main</title>
<path fill="none" stroke="black" d="M166.618,-936.765C158.198,-928.096 147.659,-917.248 138.258,-907.57"/>
<polygon fill="black" stroke="black" points="140.503,-904.858 131.025,-900.124 135.482,-909.736 140.503,-904.858"/>
</g>
<!-- StatList0 -->
<g id="node22" class="node"><title>StatList0</title>
<ellipse fill="none" stroke="black" cx="331.39" cy="-1026" rx="42.4939" ry="18"/>
<text text-anchor="middle" x="331.39" y="-1022.3" font-family="Times,serif" font-size="14.00">StatList0</text>
</g>
<!-- StatList0&#45;&gt;StatExp0 -->
<g id="edge18" class="edge"><title>StatList0&#45;&gt;StatExp0</title>
<path fill="none" stroke="black" d="M361.685,-1013.28C392.095,-1001.52 439.102,-983.343 472.524,-970.418"/>
<polygon fill="black" stroke="black" points="473.931,-973.626 481.996,-966.755 471.406,-967.097 473.931,-973.626"/>
</g>
<!-- StatList0&#45;&gt;StatLabel0 -->
<g id="edge16" class="edge"><title>StatList0&#45;&gt;StatLabel0</title>
<path fill="none" stroke="black" d="M304.061,-1012.16C280.641,-1001.16 246.655,-985.192 220.552,-972.928"/>
<polygon fill="black" stroke="black" points="221.865,-969.678 211.326,-968.594 218.888,-976.014 221.865,-969.678"/>
</g>
<!-- StatMove0 -->
<g id="node23" class="node"><title>StatMove0</title>
<ellipse fill="none" stroke="black" cx="331.39" cy="-954" rx="50.0912" ry="18"/>
<text text-anchor="middle" x="331.39" y="-950.3" font-family="Times,serif" font-size="14.00">StatMove0</text>
</g>
<!-- StatList0&#45;&gt;StatMove0 -->
<g id="edge17" class="edge"><title>StatList0&#45;&gt;StatMove0</title>
<path fill="none" stroke="black" d="M331.39,-1007.7C331.39,-999.983 331.39,-990.712 331.39,-982.112"/>
<polygon fill="black" stroke="black" points="334.89,-982.104 331.39,-972.104 327.89,-982.104 334.89,-982.104"/>
</g>
<!-- StatMove0&#45;&gt;ExpCall0 -->
<g id="edge34" class="edge"><title>StatMove0&#45;&gt;ExpCall0</title>
<path fill="none" stroke="black" d="M348.862,-937.116C359.101,-927.808 372.202,-915.898 383.505,-905.622"/>
<polygon fill="black" stroke="black" points="385.941,-908.138 390.987,-898.821 381.233,-902.958 385.941,-908.138"/>
</g>
<!-- ExpTemp0 -->
<g id="node24" class="node"><title>ExpTemp0</title>
<ellipse fill="none" stroke="black" cx="296.39" cy="-882" rx="50.0912" ry="18"/>
<text text-anchor="middle" x="296.39" y="-878.3" font-family="Times,serif" font-size="14.00">ExpTemp0</text>
</g>
<!-- StatMove0&#45;&gt;ExpTemp0 -->
<g id="edge33" class="edge"><title>StatMove0&#45;&gt;ExpTemp0</title>
<path fill="none" stroke="black" d="M322.917,-936.055C318.833,-927.887 313.846,-917.912 309.302,-908.824"/>
<polygon fill="black" stroke="black" points="312.387,-907.168 304.784,-899.789 306.126,-910.299 312.387,-907.168"/>
</g>
<!-- Temp0: T5 -->
<g id="node25" class="node"><title>Temp0: T5</title>
<ellipse fill="none" stroke="black" cx="261.39" cy="-810" rx="50.8918" ry="18"/>
<text text-anchor="middle" x="261.39" y="-806.3" font-family="Times,serif" font-size="14.00">Temp0: T5</text>
</g>
<!-- ExpTemp0&#45;&gt;Temp0: T5 -->
<g id="edge19" class="edge"><title>ExpTemp0&#45;&gt;Temp0: T5</title>
<path fill="none" stroke="black" d="M287.917,-864.055C283.833,-855.887 278.846,-845.912 274.302,-836.824"/>
<polygon fill="black" stroke="black" points="277.387,-835.168 269.784,-827.789 271.126,-838.299 277.387,-835.168"/>
</g>
<!-- ExpList2 -->
<g id="node26" class="node"><title>ExpList2</title>
<ellipse fill="none" stroke="black" cx="576.39" cy="-234" rx="42.7926" ry="18"/>
<text text-anchor="middle" x="576.39" y="-230.3" font-family="Times,serif" font-size="14.00">ExpList2</text>
</g>
<!-- ExpBinary0 -->
<g id="node27" class="node"><title>ExpBinary0</title>
<ellipse fill="none" stroke="black" cx="582.39" cy="-162" rx="53.0913" ry="18"/>
<text text-anchor="middle" x="582.39" y="-158.3" font-family="Times,serif" font-size="14.00">ExpBinary0</text>
</g>
<!-- ExpList2&#45;&gt;ExpBinary0 -->
<g id="edge20" class="edge"><title>ExpList2&#45;&gt;ExpBinary0</title>
<path fill="none" stroke="black" d="M577.873,-215.697C578.534,-207.983 579.329,-198.712 580.066,-190.112"/>
<polygon fill="black" stroke="black" points="583.557,-190.367 580.924,-180.104 576.582,-189.769 583.557,-190.367"/>
</g>
<!-- ExpBinary0&#45;&gt;ExpConst1 -->
<g id="edge32" class="edge"><title>ExpBinary0&#45;&gt;ExpConst1</title>
<path fill="none" stroke="black" d="M605.652,-145.638C620.667,-135.723 640.39,-122.698 656.813,-111.853"/>
<polygon fill="black" stroke="black" points="659.13,-114.517 665.546,-106.085 655.273,-108.675 659.13,-114.517"/>
</g>
<!-- ExpConst0 -->
<g id="node36" class="node"><title>ExpConst0</title>
<ellipse fill="none" stroke="black" cx="476.39" cy="-90" rx="50.0912" ry="18"/>
<text text-anchor="middle" x="476.39" y="-86.3" font-family="Times,serif" font-size="14.00">ExpConst0</text>
</g>
<!-- ExpBinary0&#45;&gt;ExpConst0 -->
<g id="edge30" class="edge"><title>ExpBinary0&#45;&gt;ExpConst0</title>
<path fill="none" stroke="black" d="M559.128,-145.638C544.113,-135.723 524.39,-122.698 507.967,-111.853"/>
<polygon fill="black" stroke="black" points="509.507,-108.675 499.233,-106.085 505.649,-114.517 509.507,-108.675"/>
</g>
<!-- Times0 -->
<g id="node38" class="node"><title>Times0</title>
<ellipse fill="none" stroke="black" cx="582.39" cy="-90" rx="37.8943" ry="18"/>
<text text-anchor="middle" x="582.39" y="-86.3" font-family="Times,serif" font-size="14.00">Times0</text>
</g>
<!-- ExpBinary0&#45;&gt;Times0 -->
<g id="edge31" class="edge"><title>ExpBinary0&#45;&gt;Times0</title>
<path fill="none" stroke="black" d="M582.39,-143.697C582.39,-135.983 582.39,-126.712 582.39,-118.112"/>
<polygon fill="black" stroke="black" points="585.89,-118.104 582.39,-108.104 578.89,-118.104 585.89,-118.104"/>
</g>
<!-- ExpTemp2 -->
<g id="node28" class="node"><title>ExpTemp2</title>
<ellipse fill="none" stroke="black" cx="336.39" cy="-306" rx="50.0912" ry="18"/>
<text text-anchor="middle" x="336.39" y="-302.3" font-family="Times,serif" font-size="14.00">ExpTemp2</text>
</g>
<!-- Temp2: T3 -->
<g id="node29" class="node"><title>Temp2: T3</title>
<ellipse fill="none" stroke="black" cx="333.39" cy="-234" rx="50.8918" ry="18"/>
<text text-anchor="middle" x="333.39" y="-230.3" font-family="Times,serif" font-size="14.00">Temp2: T3</text>
</g>
<!-- ExpTemp2&#45;&gt;Temp2: T3 -->
<g id="edge23" class="edge"><title>ExpTemp2&#45;&gt;Temp2: T3</title>
<path fill="none" stroke="black" d="M335.648,-287.697C335.318,-279.983 334.92,-270.712 334.552,-262.112"/>
<polygon fill="black" stroke="black" points="338.048,-261.945 334.123,-252.104 331.054,-262.245 338.048,-261.945"/>
</g>
<!-- StatMove2&#45;&gt;ExpTemp2 -->
<g id="edge24" class="edge"><title>StatMove2&#45;&gt;ExpTemp2</title>
<path fill="none" stroke="black" d="M425.425,-362.155C409.095,-352.039 387.265,-338.515 369.308,-327.391"/>
<polygon fill="black" stroke="black" points="370.664,-324.115 360.32,-321.824 366.978,-330.065 370.664,-324.115"/>
</g>
<!-- ExpCall2 -->
<g id="node31" class="node"><title>ExpCall2</title>
<ellipse fill="none" stroke="black" cx="452.39" cy="-306" rx="44.393" ry="18"/>
<text text-anchor="middle" x="452.39" y="-302.3" font-family="Times,serif" font-size="14.00">ExpCall2</text>
</g>
<!-- StatMove2&#45;&gt;ExpCall2 -->
<g id="edge25" class="edge"><title>StatMove2&#45;&gt;ExpCall2</title>
<path fill="none" stroke="black" d="M450.131,-359.697C450.462,-351.983 450.859,-342.712 451.228,-334.112"/>
<polygon fill="black" stroke="black" points="454.725,-334.245 451.657,-324.104 447.732,-333.945 454.725,-334.245"/>
</g>
<!-- ExpCall2&#45;&gt;ExpList2 -->
<g id="edge39" class="edge"><title>ExpCall2&#45;&gt;ExpList2</title>
<path fill="none" stroke="black" d="M477.185,-291.003C496.024,-280.368 522.136,-265.627 542.842,-253.939"/>
<polygon fill="black" stroke="black" points="544.65,-256.937 551.638,-248.973 541.209,-250.841 544.65,-256.937"/>
</g>
<!-- ExpName2 -->
<g id="node34" class="node"><title>ExpName2</title>
<ellipse fill="none" stroke="black" cx="452.39" cy="-234" rx="50.8918" ry="18"/>
<text text-anchor="middle" x="452.39" y="-230.3" font-family="Times,serif" font-size="14.00">ExpName2</text>
</g>
<!-- ExpCall2&#45;&gt;ExpName2 -->
<g id="edge38" class="edge"><title>ExpCall2&#45;&gt;ExpName2</title>
<path fill="none" stroke="black" d="M452.39,-287.697C452.39,-279.983 452.39,-270.712 452.39,-262.112"/>
<polygon fill="black" stroke="black" points="455.89,-262.104 452.39,-252.104 448.89,-262.104 455.89,-262.104"/>
</g>
<!-- Label3: malloc -->
<g id="node35" class="node"><title>Label3: malloc</title>
<ellipse fill="none" stroke="black" cx="446.39" cy="-162" rx="64.189" ry="18"/>
<text text-anchor="middle" x="446.39" y="-158.3" font-family="Times,serif" font-size="14.00">Label3: malloc</text>
</g>
<!-- ExpName2&#45;&gt;Label3: malloc -->
<g id="edge28" class="edge"><title>ExpName2&#45;&gt;Label3: malloc</title>
<path fill="none" stroke="black" d="M450.907,-215.697C450.246,-207.983 449.451,-198.712 448.714,-190.112"/>
<polygon fill="black" stroke="black" points="452.197,-189.769 447.856,-180.104 445.223,-190.367 452.197,-189.769"/>
</g>
<!-- Value0: 2 -->
<g id="node37" class="node"><title>Value0: 2</title>
<ellipse fill="none" stroke="black" cx="476.39" cy="-18" rx="45.4919" ry="18"/>
<text text-anchor="middle" x="476.39" y="-14.3" font-family="Times,serif" font-size="14.00">Value0: 2</text>
</g>
<!-- ExpConst0&#45;&gt;Value0: 2 -->
<g id="edge29" class="edge"><title>ExpConst0&#45;&gt;Value0: 2</title>
<path fill="none" stroke="black" d="M476.39,-71.6966C476.39,-63.9827 476.39,-54.7125 476.39,-46.1124"/>
<polygon fill="black" stroke="black" points="479.89,-46.1043 476.39,-36.1043 472.89,-46.1044 479.89,-46.1043"/>
</g>
<!-- Temp3: T3 -->
<g id="node40" class="node"><title>Temp3: T3</title>
<ellipse fill="none" stroke="black" cx="567.39" cy="-306" rx="50.8918" ry="18"/>
<text text-anchor="middle" x="567.39" y="-302.3" font-family="Times,serif" font-size="14.00">Temp3: T3</text>
</g>
<!-- ExpTemp3&#45;&gt;Temp3: T3 -->
<g id="edge37" class="edge"><title>ExpTemp3&#45;&gt;Temp3: T3</title>
<path fill="none" stroke="black" d="M567.39,-359.697C567.39,-351.983 567.39,-342.712 567.39,-334.112"/>
<polygon fill="black" stroke="black" points="570.89,-334.104 567.39,-324.104 563.89,-334.104 570.89,-334.104"/>
</g>
</g>
</svg>
