<?xml version="1.0" encoding="UTF-8" standalone="no"?>
<!DOCTYPE svg PUBLIC "-//W3C//DTD SVG 1.1//EN"
 "http://www.w3.org/Graphics/SVG/1.1/DTD/svg11.dtd">
<!-- Generated by graphviz version 2.38.0 (20140413.2041)
 -->
<!-- Title: %3 Pages: 1 -->
<svg width="350pt" height="188pt"
 viewBox="0.00 0.00 350.49 188.00" xmlns="http://www.w3.org/2000/svg" xmlns:xlink="http://www.w3.org/1999/xlink">
<g id="graph0" class="graph" transform="scale(1 1) rotate(0) translate(4 184)">
<title>%3</title>
<polygon fill="white" stroke="none" points="-4,4 -4,-184 346.486,-184 346.486,4 -4,4"/>
<!-- StatJump0 -->
<g id="node1" class="node"><title>StatJump0</title>
<ellipse fill="none" stroke="black" cx="271.54" cy="-90" rx="48.1917" ry="18"/>
<text text-anchor="middle" x="271.54" y="-86.3" font-family="Times,serif" font-size="14.00">StatJump0</text>
</g>
<!-- Label1: L52 -->
<g id="node2" class="node"><title>Label1: L52</title>
<ellipse fill="none" stroke="black" cx="288.54" cy="-18" rx="53.8905" ry="18"/>
<text text-anchor="middle" x="288.54" y="-14.3" font-family="Times,serif" font-size="14.00">Label1: L52</text>
</g>
<!-- StatJump0&#45;&gt;Label1: L52 -->
<g id="edge1" class="edge"><title>StatJump0&#45;&gt;Label1: L52</title>
<path fill="none" stroke="black" d="M275.656,-72.055C277.548,-64.2609 279.841,-54.8219 281.964,-46.0789"/>
<polygon fill="black" stroke="black" points="285.386,-46.8189 284.345,-36.2753 278.584,-45.1668 285.386,-46.8189"/>
</g>
<!-- StatList0 -->
<g id="node3" class="node"><title>StatList0</title>
<ellipse fill="none" stroke="black" cx="205.54" cy="-162" rx="42.4939" ry="18"/>
<text text-anchor="middle" x="205.54" y="-158.3" font-family="Times,serif" font-size="14.00">StatList0</text>
</g>
<!-- StatList0&#45;&gt;StatJump0 -->
<g id="edge3" class="edge"><title>StatList0&#45;&gt;StatJump0</title>
<path fill="none" stroke="black" d="M220.517,-145.116C229.003,-136.116 239.783,-124.682 249.245,-114.646"/>
<polygon fill="black" stroke="black" points="251.852,-116.984 256.165,-107.307 246.758,-112.182 251.852,-116.984"/>
</g>
<!-- StatLabel0 -->
<g id="node4" class="node"><title>StatLabel0</title>
<ellipse fill="none" stroke="black" cx="140.54" cy="-90" rx="48.9926" ry="18"/>
<text text-anchor="middle" x="140.54" y="-86.3" font-family="Times,serif" font-size="14.00">StatLabel0</text>
</g>
<!-- StatList0&#45;&gt;StatLabel0 -->
<g id="edge2" class="edge"><title>StatList0&#45;&gt;StatLabel0</title>
<path fill="none" stroke="black" d="M190.791,-145.116C182.433,-136.116 171.817,-124.682 162.497,-114.646"/>
<polygon fill="black" stroke="black" points="165.052,-112.253 155.683,-107.307 159.922,-117.017 165.052,-112.253"/>
</g>
<!-- Label0: Tree@RemoveLeft -->
<g id="node5" class="node"><title>Label0: Tree@RemoveLeft</title>
<ellipse fill="none" stroke="black" cx="108.54" cy="-18" rx="108.581" ry="18"/>
<text text-anchor="middle" x="108.54" y="-14.3" font-family="Times,serif" font-size="14.00">Label0: Tree@RemoveLeft</text>
</g>
<!-- StatLabel0&#45;&gt;Label0: Tree@RemoveLeft -->
<g id="edge4" class="edge"><title>StatLabel0&#45;&gt;Label0: Tree@RemoveLeft</title>
<path fill="none" stroke="black" d="M132.794,-72.055C129.154,-64.0915 124.728,-54.4107 120.659,-45.5097"/>
<polygon fill="black" stroke="black" points="123.778,-43.9149 116.438,-36.2753 117.412,-46.8252 123.778,-43.9149"/>
</g>
</g>
</svg>
