<?xml version="1.0" encoding="UTF-8" standalone="no"?>
<!DOCTYPE svg PUBLIC "-//W3C//DTD SVG 1.1//EN"
 "http://www.w3.org/Graphics/SVG/1.1/DTD/svg11.dtd">
<!-- Generated by graphviz version 2.38.0 (20140413.2041)
 -->
<!-- Title: %3 Pages: 1 -->
<svg width="410pt" height="260pt"
 viewBox="0.00 0.00 410.24 260.00" xmlns="http://www.w3.org/2000/svg" xmlns:xlink="http://www.w3.org/1999/xlink">
<g id="graph0" class="graph" transform="scale(1 1) rotate(0) translate(4 256)">
<title>%3</title>
<polygon fill="white" stroke="none" points="-4,4 -4,-256 406.238,-256 406.238,4 -4,4"/>
<!-- ExpConst0 -->
<g id="node1" class="node"><title>ExpConst0</title>
<ellipse fill="none" stroke="black" cx="352.193" cy="-90" rx="50.0912" ry="18"/>
<text text-anchor="middle" x="352.193" y="-86.3" font-family="Times,serif" font-size="14.00">ExpConst0</text>
</g>
<!-- Value0: 1 -->
<g id="node2" class="node"><title>Value0: 1</title>
<ellipse fill="none" stroke="black" cx="352.193" cy="-18" rx="45.4919" ry="18"/>
<text text-anchor="middle" x="352.193" y="-14.3" font-family="Times,serif" font-size="14.00">Value0: 1</text>
</g>
<!-- ExpConst0&#45;&gt;Value0: 1 -->
<g id="edge1" class="edge"><title>ExpConst0&#45;&gt;Value0: 1</title>
<path fill="none" stroke="black" d="M352.193,-71.6966C352.193,-63.9827 352.193,-54.7125 352.193,-46.1124"/>
<polygon fill="black" stroke="black" points="355.693,-46.1043 352.193,-36.1043 348.693,-46.1044 355.693,-46.1043"/>
</g>
<!-- StatLabel0 -->
<g id="node3" class="node"><title>StatLabel0</title>
<ellipse fill="none" stroke="black" cx="100.193" cy="-162" rx="48.9926" ry="18"/>
<text text-anchor="middle" x="100.193" y="-158.3" font-family="Times,serif" font-size="14.00">StatLabel0</text>
</g>
<!-- Label0: Base@Func -->
<g id="node4" class="node"><title>Label0: Base@Func</title>
<ellipse fill="none" stroke="black" cx="83.1926" cy="-90" rx="83.3857" ry="18"/>
<text text-anchor="middle" x="83.1926" y="-86.3" font-family="Times,serif" font-size="14.00">Label0: Base@Func</text>
</g>
<!-- StatLabel0&#45;&gt;Label0: Base@Func -->
<g id="edge2" class="edge"><title>StatLabel0&#45;&gt;Label0: Base@Func</title>
<path fill="none" stroke="black" d="M96.0774,-144.055C94.1846,-136.261 91.8922,-126.822 89.7689,-118.079"/>
<polygon fill="black" stroke="black" points="93.1492,-117.167 87.388,-108.275 86.347,-118.819 93.1492,-117.167"/>
</g>
<!-- StatList0 -->
<g id="node5" class="node"><title>StatList0</title>
<ellipse fill="none" stroke="black" cx="167.193" cy="-234" rx="42.4939" ry="18"/>
<text text-anchor="middle" x="167.193" y="-230.3" font-family="Times,serif" font-size="14.00">StatList0</text>
</g>
<!-- StatList0&#45;&gt;StatLabel0 -->
<g id="edge3" class="edge"><title>StatList0&#45;&gt;StatLabel0</title>
<path fill="none" stroke="black" d="M151.989,-217.116C143.375,-208.116 132.431,-196.682 122.825,-186.646"/>
<polygon fill="black" stroke="black" points="125.244,-184.111 115.801,-179.307 120.187,-188.951 125.244,-184.111"/>
</g>
<!-- StatMove0 -->
<g id="node6" class="node"><title>StatMove0</title>
<ellipse fill="none" stroke="black" cx="234.193" cy="-162" rx="50.0912" ry="18"/>
<text text-anchor="middle" x="234.193" y="-158.3" font-family="Times,serif" font-size="14.00">StatMove0</text>
</g>
<!-- StatList0&#45;&gt;StatMove0 -->
<g id="edge4" class="edge"><title>StatList0&#45;&gt;StatMove0</title>
<path fill="none" stroke="black" d="M182.396,-217.116C191.011,-208.116 201.954,-196.682 211.56,-186.646"/>
<polygon fill="black" stroke="black" points="214.198,-188.951 218.584,-179.307 209.141,-184.111 214.198,-188.951"/>
</g>
<!-- StatMove0&#45;&gt;ExpConst0 -->
<g id="edge7" class="edge"><title>StatMove0&#45;&gt;ExpConst0</title>
<path fill="none" stroke="black" d="M258.929,-146.326C276.315,-136.012 299.775,-122.095 318.816,-110.8"/>
<polygon fill="black" stroke="black" points="320.674,-113.767 327.489,-105.655 317.102,-107.747 320.674,-113.767"/>
</g>
<!-- ExpTemp0 -->
<g id="node7" class="node"><title>ExpTemp0</title>
<ellipse fill="none" stroke="black" cx="234.193" cy="-90" rx="50.0912" ry="18"/>
<text text-anchor="middle" x="234.193" y="-86.3" font-family="Times,serif" font-size="14.00">ExpTemp0</text>
</g>
<!-- StatMove0&#45;&gt;ExpTemp0 -->
<g id="edge6" class="edge"><title>StatMove0&#45;&gt;ExpTemp0</title>
<path fill="none" stroke="black" d="M234.193,-143.697C234.193,-135.983 234.193,-126.712 234.193,-118.112"/>
<polygon fill="black" stroke="black" points="237.693,-118.104 234.193,-108.104 230.693,-118.104 237.693,-118.104"/>
</g>
<!-- Temp0: $rv -->
<g id="node8" class="node"><title>Temp0: $rv</title>
<ellipse fill="none" stroke="black" cx="234.193" cy="-18" rx="52.7911" ry="18"/>
<text text-anchor="middle" x="234.193" y="-14.3" font-family="Times,serif" font-size="14.00">Temp0: $rv</text>
</g>
<!-- ExpTemp0&#45;&gt;Temp0: $rv -->
<g id="edge5" class="edge"><title>ExpTemp0&#45;&gt;Temp0: $rv</title>
<path fill="none" stroke="black" d="M234.193,-71.6966C234.193,-63.9827 234.193,-54.7125 234.193,-46.1124"/>
<polygon fill="black" stroke="black" points="237.693,-46.1043 234.193,-36.1043 230.693,-46.1044 237.693,-46.1043"/>
</g>
</g>
</svg>
