<?xml version="1.0" encoding="UTF-8" standalone="no"?>
<!DOCTYPE svg PUBLIC "-//W3C//DTD SVG 1.1//EN"
 "http://www.w3.org/Graphics/SVG/1.1/DTD/svg11.dtd">
<!-- Generated by graphviz version 2.38.0 (20140413.2041)
 -->
<!-- Title: %3 Pages: 1 -->
<svg width="627pt" height="476pt"
 viewBox="0.00 0.00 626.69 476.00" xmlns="http://www.w3.org/2000/svg" xmlns:xlink="http://www.w3.org/1999/xlink">
<g id="graph0" class="graph" transform="scale(1 1) rotate(0) translate(4 472)">
<title>%3</title>
<polygon fill="white" stroke="none" points="-4,4 -4,-472 622.686,-472 622.686,4 -4,4"/>
<!-- ExpMem0 -->
<g id="node1" class="node"><title>ExpMem0</title>
<ellipse fill="none" stroke="black" cx="372.641" cy="-234" rx="48.9926" ry="18"/>
<text text-anchor="middle" x="372.641" y="-230.3" font-family="Times,serif" font-size="14.00">ExpMem0</text>
</g>
<!-- ExpMem1 -->
<g id="node2" class="node"><title>ExpMem1</title>
<ellipse fill="none" stroke="black" cx="372.641" cy="-162" rx="48.9926" ry="18"/>
<text text-anchor="middle" x="372.641" y="-158.3" font-family="Times,serif" font-size="14.00">ExpMem1</text>
</g>
<!-- ExpMem0&#45;&gt;ExpMem1 -->
<g id="edge1" class="edge"><title>ExpMem0&#45;&gt;ExpMem1</title>
<path fill="none" stroke="black" d="M372.641,-215.697C372.641,-207.983 372.641,-198.712 372.641,-190.112"/>
<polygon fill="black" stroke="black" points="376.141,-190.104 372.641,-180.104 369.141,-190.104 376.141,-190.104"/>
</g>
<!-- ExpTemp1 -->
<g id="node3" class="node"><title>ExpTemp1</title>
<ellipse fill="none" stroke="black" cx="372.641" cy="-90" rx="50.0912" ry="18"/>
<text text-anchor="middle" x="372.641" y="-86.3" font-family="Times,serif" font-size="14.00">ExpTemp1</text>
</g>
<!-- ExpMem1&#45;&gt;ExpTemp1 -->
<g id="edge2" class="edge"><title>ExpMem1&#45;&gt;ExpTemp1</title>
<path fill="none" stroke="black" d="M372.641,-143.697C372.641,-135.983 372.641,-126.712 372.641,-118.112"/>
<polygon fill="black" stroke="black" points="376.141,-118.104 372.641,-108.104 369.141,-118.104 376.141,-118.104"/>
</g>
<!-- Temp1: $fp -->
<g id="node4" class="node"><title>Temp1: $fp</title>
<ellipse fill="none" stroke="black" cx="372.641" cy="-18" rx="52.7911" ry="18"/>
<text text-anchor="middle" x="372.641" y="-14.3" font-family="Times,serif" font-size="14.00">Temp1: $fp</text>
</g>
<!-- ExpTemp1&#45;&gt;Temp1: $fp -->
<g id="edge3" class="edge"><title>ExpTemp1&#45;&gt;Temp1: $fp</title>
<path fill="none" stroke="black" d="M372.641,-71.6966C372.641,-63.9827 372.641,-54.7125 372.641,-46.1124"/>
<polygon fill="black" stroke="black" points="376.141,-46.1043 372.641,-36.1043 369.141,-46.1044 376.141,-46.1043"/>
</g>
<!-- ExpConst0 -->
<g id="node5" class="node"><title>ExpConst0</title>
<ellipse fill="none" stroke="black" cx="568.641" cy="-234" rx="50.0912" ry="18"/>
<text text-anchor="middle" x="568.641" y="-230.3" font-family="Times,serif" font-size="14.00">ExpConst0</text>
</g>
<!-- Value0: 1 -->
<g id="node6" class="node"><title>Value0: 1</title>
<ellipse fill="none" stroke="black" cx="568.641" cy="-162" rx="45.4919" ry="18"/>
<text text-anchor="middle" x="568.641" y="-158.3" font-family="Times,serif" font-size="14.00">Value0: 1</text>
</g>
<!-- ExpConst0&#45;&gt;Value0: 1 -->
<g id="edge4" class="edge"><title>ExpConst0&#45;&gt;Value0: 1</title>
<path fill="none" stroke="black" d="M568.641,-215.697C568.641,-207.983 568.641,-198.712 568.641,-190.112"/>
<polygon fill="black" stroke="black" points="572.141,-190.104 568.641,-180.104 565.141,-190.104 572.141,-190.104"/>
</g>
<!-- StatLabel0 -->
<g id="node7" class="node"><title>StatLabel0</title>
<ellipse fill="none" stroke="black" cx="132.641" cy="-378" rx="48.9926" ry="18"/>
<text text-anchor="middle" x="132.641" y="-374.3" font-family="Times,serif" font-size="14.00">StatLabel0</text>
</g>
<!-- Label0: GrandChild@Add -->
<g id="node8" class="node"><title>Label0: GrandChild@Add</title>
<ellipse fill="none" stroke="black" cx="104.641" cy="-306" rx="104.782" ry="18"/>
<text text-anchor="middle" x="104.641" y="-302.3" font-family="Times,serif" font-size="14.00">Label0: GrandChild@Add</text>
</g>
<!-- StatLabel0&#45;&gt;Label0: GrandChild@Add -->
<g id="edge5" class="edge"><title>StatLabel0&#45;&gt;Label0: GrandChild@Add</title>
<path fill="none" stroke="black" d="M125.863,-360.055C122.711,-352.176 118.887,-342.617 115.358,-333.794"/>
<polygon fill="black" stroke="black" points="118.514,-332.26 111.551,-324.275 112.015,-334.86 118.514,-332.26"/>
</g>
<!-- StatSeq0 -->
<g id="node9" class="node"><title>StatSeq0</title>
<ellipse fill="none" stroke="black" cx="204.641" cy="-450" rx="42.4939" ry="18"/>
<text text-anchor="middle" x="204.641" y="-446.3" font-family="Times,serif" font-size="14.00">StatSeq0</text>
</g>
<!-- StatSeq0&#45;&gt;StatLabel0 -->
<g id="edge6" class="edge"><title>StatSeq0&#45;&gt;StatLabel0</title>
<path fill="none" stroke="black" d="M188.303,-433.116C178.955,-424.027 167.055,-412.458 156.659,-402.351"/>
<polygon fill="black" stroke="black" points="159.023,-399.768 149.414,-395.307 154.144,-404.787 159.023,-399.768"/>
</g>
<!-- StatMove0 -->
<g id="node10" class="node"><title>StatMove0</title>
<ellipse fill="none" stroke="black" cx="277.641" cy="-378" rx="50.0912" ry="18"/>
<text text-anchor="middle" x="277.641" y="-374.3" font-family="Times,serif" font-size="14.00">StatMove0</text>
</g>
<!-- StatSeq0&#45;&gt;StatMove0 -->
<g id="edge7" class="edge"><title>StatSeq0&#45;&gt;StatMove0</title>
<path fill="none" stroke="black" d="M221.206,-433.116C230.751,-423.962 242.921,-412.293 253.514,-402.135"/>
<polygon fill="black" stroke="black" points="256.093,-404.511 260.889,-395.064 251.248,-399.459 256.093,-404.511"/>
</g>
<!-- ExpTemp0 -->
<g id="node11" class="node"><title>ExpTemp0</title>
<ellipse fill="none" stroke="black" cx="277.641" cy="-306" rx="50.0912" ry="18"/>
<text text-anchor="middle" x="277.641" y="-302.3" font-family="Times,serif" font-size="14.00">ExpTemp0</text>
</g>
<!-- StatMove0&#45;&gt;ExpTemp0 -->
<g id="edge12" class="edge"><title>StatMove0&#45;&gt;ExpTemp0</title>
<path fill="none" stroke="black" d="M277.641,-359.697C277.641,-351.983 277.641,-342.712 277.641,-334.112"/>
<polygon fill="black" stroke="black" points="281.141,-334.104 277.641,-324.104 274.141,-334.104 281.141,-334.104"/>
</g>
<!-- ExpBinary0 -->
<g id="node13" class="node"><title>ExpBinary0</title>
<ellipse fill="none" stroke="black" cx="445.641" cy="-306" rx="53.0913" ry="18"/>
<text text-anchor="middle" x="445.641" y="-302.3" font-family="Times,serif" font-size="14.00">ExpBinary0</text>
</g>
<!-- StatMove0&#45;&gt;ExpBinary0 -->
<g id="edge13" class="edge"><title>StatMove0&#45;&gt;ExpBinary0</title>
<path fill="none" stroke="black" d="M309.24,-363.834C335.969,-352.696 374.484,-336.649 403.775,-324.444"/>
<polygon fill="black" stroke="black" points="405.44,-327.542 413.325,-320.465 402.748,-321.08 405.44,-327.542"/>
</g>
<!-- Temp0: $rv -->
<g id="node12" class="node"><title>Temp0: $rv</title>
<ellipse fill="none" stroke="black" cx="253.641" cy="-234" rx="52.7911" ry="18"/>
<text text-anchor="middle" x="253.641" y="-230.3" font-family="Times,serif" font-size="14.00">Temp0: $rv</text>
</g>
<!-- ExpTemp0&#45;&gt;Temp0: $rv -->
<g id="edge8" class="edge"><title>ExpTemp0&#45;&gt;Temp0: $rv</title>
<path fill="none" stroke="black" d="M271.831,-288.055C269.13,-280.176 265.852,-270.617 262.827,-261.794"/>
<polygon fill="black" stroke="black" points="266.118,-260.6 259.564,-252.275 259.496,-262.87 266.118,-260.6"/>
</g>
<!-- ExpBinary0&#45;&gt;ExpMem0 -->
<g id="edge9" class="edge"><title>ExpBinary0&#45;&gt;ExpMem0</title>
<path fill="none" stroke="black" d="M428.71,-288.765C419.22,-279.665 407.224,-268.162 396.766,-258.134"/>
<polygon fill="black" stroke="black" points="399.12,-255.542 389.48,-251.147 394.275,-260.595 399.12,-255.542"/>
</g>
<!-- ExpBinary0&#45;&gt;ExpConst0 -->
<g id="edge11" class="edge"><title>ExpBinary0&#45;&gt;ExpConst0</title>
<path fill="none" stroke="black" d="M471.726,-290.155C489.949,-279.784 514.466,-265.831 534.281,-254.554"/>
<polygon fill="black" stroke="black" points="536.055,-257.572 543.015,-249.584 532.593,-251.488 536.055,-257.572"/>
</g>
<!-- Plus0 -->
<g id="node14" class="node"><title>Plus0</title>
<ellipse fill="none" stroke="black" cx="469.641" cy="-234" rx="30.5947" ry="18"/>
<text text-anchor="middle" x="469.641" y="-230.3" font-family="Times,serif" font-size="14.00">Plus0</text>
</g>
<!-- ExpBinary0&#45;&gt;Plus0 -->
<g id="edge10" class="edge"><title>ExpBinary0&#45;&gt;Plus0</title>
<path fill="none" stroke="black" d="M451.45,-288.055C454.192,-280.059 457.527,-270.331 460.589,-261.4"/>
<polygon fill="black" stroke="black" points="463.952,-262.384 463.884,-251.789 457.33,-260.113 463.952,-262.384"/>
</g>
</g>
</svg>
