<?xml version="1.0" encoding="UTF-8" standalone="no"?>
<!DOCTYPE svg PUBLIC "-//W3C//DTD SVG 1.1//EN"
 "http://www.w3.org/Graphics/SVG/1.1/DTD/svg11.dtd">
<!-- Generated by graphviz version 2.38.0 (20140413.2041)
 -->
<!-- Title: %3 Pages: 1 -->
<svg width="402pt" height="260pt"
 viewBox="0.00 0.00 402.34 260.00" xmlns="http://www.w3.org/2000/svg" xmlns:xlink="http://www.w3.org/1999/xlink">
<g id="graph0" class="graph" transform="scale(1 1) rotate(0) translate(4 256)">
<title>%3</title>
<polygon fill="white" stroke="none" points="-4,4 -4,-256 398.339,-256 398.339,4 -4,4"/>
<!-- ExpConst0 -->
<g id="node1" class="node"><title>ExpConst0</title>
<ellipse fill="none" stroke="black" cx="344.293" cy="-90" rx="50.0912" ry="18"/>
<text text-anchor="middle" x="344.293" y="-86.3" font-family="Times,serif" font-size="14.00">ExpConst0</text>
</g>
<!-- Value0: 1 -->
<g id="node2" class="node"><title>Value0: 1</title>
<ellipse fill="none" stroke="black" cx="344.293" cy="-18" rx="45.4919" ry="18"/>
<text text-anchor="middle" x="344.293" y="-14.3" font-family="Times,serif" font-size="14.00">Value0: 1</text>
</g>
<!-- ExpConst0&#45;&gt;Value0: 1 -->
<g id="edge1" class="edge"><title>ExpConst0&#45;&gt;Value0: 1</title>
<path fill="none" stroke="black" d="M344.293,-71.6966C344.293,-63.9827 344.293,-54.7125 344.293,-46.1124"/>
<polygon fill="black" stroke="black" points="347.793,-46.1043 344.293,-36.1043 340.793,-46.1044 347.793,-46.1043"/>
</g>
<!-- StatLabel0 -->
<g id="node3" class="node"><title>StatLabel0</title>
<ellipse fill="none" stroke="black" cx="94.293" cy="-162" rx="48.9926" ry="18"/>
<text text-anchor="middle" x="94.293" y="-158.3" font-family="Times,serif" font-size="14.00">StatLabel0</text>
</g>
<!-- Label0: Base::Func -->
<g id="node4" class="node"><title>Label0: Base::Func</title>
<ellipse fill="none" stroke="black" cx="79.293" cy="-90" rx="79.0865" ry="18"/>
<text text-anchor="middle" x="79.293" y="-86.3" font-family="Times,serif" font-size="14.00">Label0: Base::Func</text>
</g>
<!-- StatLabel0&#45;&gt;Label0: Base::Func -->
<g id="edge2" class="edge"><title>StatLabel0&#45;&gt;Label0: Base::Func</title>
<path fill="none" stroke="black" d="M90.5851,-143.697C88.9321,-135.983 86.9456,-126.712 85.1028,-118.112"/>
<polygon fill="black" stroke="black" points="88.4759,-117.149 82.9582,-108.104 81.6312,-118.616 88.4759,-117.149"/>
</g>
<!-- StatSeq0 -->
<g id="node5" class="node"><title>StatSeq0</title>
<ellipse fill="none" stroke="black" cx="160.293" cy="-234" rx="42.4939" ry="18"/>
<text text-anchor="middle" x="160.293" y="-230.3" font-family="Times,serif" font-size="14.00">StatSeq0</text>
</g>
<!-- StatSeq0&#45;&gt;StatLabel0 -->
<g id="edge3" class="edge"><title>StatSeq0&#45;&gt;StatLabel0</title>
<path fill="none" stroke="black" d="M145.317,-217.116C136.83,-208.116 126.051,-196.682 116.588,-186.646"/>
<polygon fill="black" stroke="black" points="119.075,-184.182 109.668,-179.307 113.982,-188.984 119.075,-184.182"/>
</g>
<!-- StatMove0 -->
<g id="node6" class="node"><title>StatMove0</title>
<ellipse fill="none" stroke="black" cx="226.293" cy="-162" rx="50.0912" ry="18"/>
<text text-anchor="middle" x="226.293" y="-158.3" font-family="Times,serif" font-size="14.00">StatMove0</text>
</g>
<!-- StatSeq0&#45;&gt;StatMove0 -->
<g id="edge4" class="edge"><title>StatSeq0&#45;&gt;StatMove0</title>
<path fill="none" stroke="black" d="M175.269,-217.116C183.755,-208.116 194.535,-196.682 203.998,-186.646"/>
<polygon fill="black" stroke="black" points="206.604,-188.984 210.918,-179.307 201.511,-184.182 206.604,-188.984"/>
</g>
<!-- StatMove0&#45;&gt;ExpConst0 -->
<g id="edge7" class="edge"><title>StatMove0&#45;&gt;ExpConst0</title>
<path fill="none" stroke="black" d="M251.03,-146.326C268.415,-136.012 291.875,-122.095 310.916,-110.8"/>
<polygon fill="black" stroke="black" points="312.774,-113.767 319.589,-105.655 309.203,-107.747 312.774,-113.767"/>
</g>
<!-- ExpTemp0 -->
<g id="node7" class="node"><title>ExpTemp0</title>
<ellipse fill="none" stroke="black" cx="226.293" cy="-90" rx="50.0912" ry="18"/>
<text text-anchor="middle" x="226.293" y="-86.3" font-family="Times,serif" font-size="14.00">ExpTemp0</text>
</g>
<!-- StatMove0&#45;&gt;ExpTemp0 -->
<g id="edge6" class="edge"><title>StatMove0&#45;&gt;ExpTemp0</title>
<path fill="none" stroke="black" d="M226.293,-143.697C226.293,-135.983 226.293,-126.712 226.293,-118.112"/>
<polygon fill="black" stroke="black" points="229.793,-118.104 226.293,-108.104 222.793,-118.104 229.793,-118.104"/>
</g>
<!-- Temp0: $rv -->
<g id="node8" class="node"><title>Temp0: $rv</title>
<ellipse fill="none" stroke="black" cx="226.293" cy="-18" rx="52.7911" ry="18"/>
<text text-anchor="middle" x="226.293" y="-14.3" font-family="Times,serif" font-size="14.00">Temp0: $rv</text>
</g>
<!-- ExpTemp0&#45;&gt;Temp0: $rv -->
<g id="edge5" class="edge"><title>ExpTemp0&#45;&gt;Temp0: $rv</title>
<path fill="none" stroke="black" d="M226.293,-71.6966C226.293,-63.9827 226.293,-54.7125 226.293,-46.1124"/>
<polygon fill="black" stroke="black" points="229.793,-46.1043 226.293,-36.1043 222.793,-46.1044 229.793,-46.1043"/>
</g>
</g>
</svg>
