<?xml version="1.0" encoding="UTF-8" standalone="no"?>
<!DOCTYPE svg PUBLIC "-//W3C//DTD SVG 1.1//EN"
 "http://www.w3.org/Graphics/SVG/1.1/DTD/svg11.dtd">
<!-- Generated by graphviz version 2.38.0 (20140413.2041)
 -->
<!-- Title: %3 Pages: 1 -->
<svg width="605pt" height="692pt"
 viewBox="0.00 0.00 604.84 692.00" xmlns="http://www.w3.org/2000/svg" xmlns:xlink="http://www.w3.org/1999/xlink">
<g id="graph0" class="graph" transform="scale(1 1) rotate(0) translate(4 688)">
<title>%3</title>
<polygon fill="white" stroke="none" points="-4,4 -4,-688 600.838,-688 600.838,4 -4,4"/>
<!-- ExpTemp3 -->
<g id="node1" class="node"><title>ExpTemp3</title>
<ellipse fill="none" stroke="black" cx="518.142" cy="-522" rx="50.0912" ry="18"/>
<text text-anchor="middle" x="518.142" y="-518.3" font-family="Times,serif" font-size="14.00">ExpTemp3</text>
</g>
<!-- Temp3: T1 -->
<g id="node2" class="node"><title>Temp3: T1</title>
<ellipse fill="none" stroke="black" cx="546.142" cy="-450" rx="50.8918" ry="18"/>
<text text-anchor="middle" x="546.142" y="-446.3" font-family="Times,serif" font-size="14.00">Temp3: T1</text>
</g>
<!-- ExpTemp3&#45;&gt;Temp3: T1 -->
<g id="edge1" class="edge"><title>ExpTemp3&#45;&gt;Temp3: T1</title>
<path fill="none" stroke="black" d="M524.92,-504.055C528.072,-496.176 531.896,-486.617 535.425,-477.794"/>
<polygon fill="black" stroke="black" points="538.768,-478.86 539.232,-468.275 532.269,-476.26 538.768,-478.86"/>
</g>
<!-- ExpTemp2 -->
<g id="node3" class="node"><title>ExpTemp2</title>
<ellipse fill="none" stroke="black" cx="498.142" cy="-306" rx="50.0912" ry="18"/>
<text text-anchor="middle" x="498.142" y="-302.3" font-family="Times,serif" font-size="14.00">ExpTemp2</text>
</g>
<!-- Temp2: T0 -->
<g id="node4" class="node"><title>Temp2: T0</title>
<ellipse fill="none" stroke="black" cx="498.142" cy="-234" rx="50.8918" ry="18"/>
<text text-anchor="middle" x="498.142" y="-230.3" font-family="Times,serif" font-size="14.00">Temp2: T0</text>
</g>
<!-- ExpTemp2&#45;&gt;Temp2: T0 -->
<g id="edge2" class="edge"><title>ExpTemp2&#45;&gt;Temp2: T0</title>
<path fill="none" stroke="black" d="M498.142,-287.697C498.142,-279.983 498.142,-270.712 498.142,-262.112"/>
<polygon fill="black" stroke="black" points="501.643,-262.104 498.142,-252.104 494.643,-262.104 501.643,-262.104"/>
</g>
<!-- ExpEseq0 -->
<g id="node5" class="node"><title>ExpEseq0</title>
<ellipse fill="none" stroke="black" cx="439.142" cy="-378" rx="46.2923" ry="18"/>
<text text-anchor="middle" x="439.142" y="-374.3" font-family="Times,serif" font-size="14.00">ExpEseq0</text>
</g>
<!-- ExpEseq0&#45;&gt;ExpTemp2 -->
<g id="edge4" class="edge"><title>ExpEseq0&#45;&gt;ExpTemp2</title>
<path fill="none" stroke="black" d="M452.827,-360.765C460.167,-352.056 469.362,-341.147 477.547,-331.435"/>
<polygon fill="black" stroke="black" points="480.354,-333.535 484.123,-323.633 475.002,-329.024 480.354,-333.535"/>
</g>
<!-- StatMove1 -->
<g id="node6" class="node"><title>StatMove1</title>
<ellipse fill="none" stroke="black" cx="380.142" cy="-306" rx="50.0912" ry="18"/>
<text text-anchor="middle" x="380.142" y="-302.3" font-family="Times,serif" font-size="14.00">StatMove1</text>
</g>
<!-- ExpEseq0&#45;&gt;StatMove1 -->
<g id="edge3" class="edge"><title>ExpEseq0&#45;&gt;StatMove1</title>
<path fill="none" stroke="black" d="M425.458,-360.765C418.118,-352.056 408.923,-341.147 400.738,-331.435"/>
<polygon fill="black" stroke="black" points="403.283,-329.024 394.162,-323.633 397.931,-333.535 403.283,-329.024"/>
</g>
<!-- ExpCall1 -->
<g id="node13" class="node"><title>ExpCall1</title>
<ellipse fill="none" stroke="black" cx="383.142" cy="-234" rx="44.393" ry="18"/>
<text text-anchor="middle" x="383.142" y="-230.3" font-family="Times,serif" font-size="14.00">ExpCall1</text>
</g>
<!-- StatMove1&#45;&gt;ExpCall1 -->
<g id="edge23" class="edge"><title>StatMove1&#45;&gt;ExpCall1</title>
<path fill="none" stroke="black" d="M380.884,-287.697C381.215,-279.983 381.612,-270.712 381.98,-262.112"/>
<polygon fill="black" stroke="black" points="385.478,-262.245 382.409,-252.104 378.484,-261.945 385.478,-262.245"/>
</g>
<!-- ExpTemp1 -->
<g id="node23" class="node"><title>ExpTemp1</title>
<ellipse fill="none" stroke="black" cx="267.142" cy="-234" rx="50.0912" ry="18"/>
<text text-anchor="middle" x="267.142" y="-230.3" font-family="Times,serif" font-size="14.00">ExpTemp1</text>
</g>
<!-- StatMove1&#45;&gt;ExpTemp1 -->
<g id="edge22" class="edge"><title>StatMove1&#45;&gt;ExpTemp1</title>
<path fill="none" stroke="black" d="M356.178,-290.155C339.848,-280.039 318.017,-266.515 300.06,-255.391"/>
<polygon fill="black" stroke="black" points="301.417,-252.115 291.072,-249.824 297.73,-258.065 301.417,-252.115"/>
</g>
<!-- ExpConst0 -->
<g id="node7" class="node"><title>ExpConst0</title>
<ellipse fill="none" stroke="black" cx="542.142" cy="-90" rx="50.0912" ry="18"/>
<text text-anchor="middle" x="542.142" y="-86.3" font-family="Times,serif" font-size="14.00">ExpConst0</text>
</g>
<!-- Value0: 2 -->
<g id="node8" class="node"><title>Value0: 2</title>
<ellipse fill="none" stroke="black" cx="542.142" cy="-18" rx="45.4919" ry="18"/>
<text text-anchor="middle" x="542.142" y="-14.3" font-family="Times,serif" font-size="14.00">Value0: 2</text>
</g>
<!-- ExpConst0&#45;&gt;Value0: 2 -->
<g id="edge5" class="edge"><title>ExpConst0&#45;&gt;Value0: 2</title>
<path fill="none" stroke="black" d="M542.142,-71.6966C542.142,-63.9827 542.142,-54.7125 542.142,-46.1124"/>
<polygon fill="black" stroke="black" points="545.643,-46.1043 542.142,-36.1043 538.643,-46.1044 545.643,-46.1043"/>
</g>
<!-- StatMove0 -->
<g id="node9" class="node"><title>StatMove0</title>
<ellipse fill="none" stroke="black" cx="266.142" cy="-594" rx="50.0912" ry="18"/>
<text text-anchor="middle" x="266.142" y="-590.3" font-family="Times,serif" font-size="14.00">StatMove0</text>
</g>
<!-- ExpTemp0 -->
<g id="node10" class="node"><title>ExpTemp0</title>
<ellipse fill="none" stroke="black" cx="238.142" cy="-522" rx="50.0912" ry="18"/>
<text text-anchor="middle" x="238.142" y="-518.3" font-family="Times,serif" font-size="14.00">ExpTemp0</text>
</g>
<!-- StatMove0&#45;&gt;ExpTemp0 -->
<g id="edge6" class="edge"><title>StatMove0&#45;&gt;ExpTemp0</title>
<path fill="none" stroke="black" d="M259.364,-576.055C256.213,-568.176 252.389,-558.617 248.86,-549.794"/>
<polygon fill="black" stroke="black" points="252.016,-548.26 245.053,-540.275 245.517,-550.86 252.016,-548.26"/>
</g>
<!-- ExpCall0 -->
<g id="node11" class="node"><title>ExpCall0</title>
<ellipse fill="none" stroke="black" cx="350.142" cy="-522" rx="44.393" ry="18"/>
<text text-anchor="middle" x="350.142" y="-518.3" font-family="Times,serif" font-size="14.00">ExpCall0</text>
</g>
<!-- StatMove0&#45;&gt;ExpCall0 -->
<g id="edge7" class="edge"><title>StatMove0&#45;&gt;ExpCall0</title>
<path fill="none" stroke="black" d="M285.203,-577.116C296.56,-567.652 311.144,-555.499 323.613,-545.108"/>
<polygon fill="black" stroke="black" points="326.005,-547.671 331.446,-538.58 321.523,-542.293 326.005,-547.671"/>
</g>
<!-- Temp0: T1 -->
<g id="node17" class="node"><title>Temp0: T1</title>
<ellipse fill="none" stroke="black" cx="203.142" cy="-450" rx="50.8918" ry="18"/>
<text text-anchor="middle" x="203.142" y="-446.3" font-family="Times,serif" font-size="14.00">Temp0: T1</text>
</g>
<!-- ExpTemp0&#45;&gt;Temp0: T1 -->
<g id="edge12" class="edge"><title>ExpTemp0&#45;&gt;Temp0: T1</title>
<path fill="none" stroke="black" d="M229.67,-504.055C225.586,-495.887 220.598,-485.912 216.055,-476.824"/>
<polygon fill="black" stroke="black" points="219.14,-475.168 211.537,-467.789 212.879,-478.299 219.14,-475.168"/>
</g>
<!-- ExpList0 -->
<g id="node12" class="node"><title>ExpList0</title>
<ellipse fill="none" stroke="black" cx="434.142" cy="-450" rx="42.7926" ry="18"/>
<text text-anchor="middle" x="434.142" y="-446.3" font-family="Times,serif" font-size="14.00">ExpList0</text>
</g>
<!-- ExpCall0&#45;&gt;ExpList0 -->
<g id="edge19" class="edge"><title>ExpCall0&#45;&gt;ExpList0</title>
<path fill="none" stroke="black" d="M368.785,-505.465C380.204,-495.949 395,-483.619 407.626,-473.097"/>
<polygon fill="black" stroke="black" points="410.111,-475.583 415.552,-466.492 405.629,-470.205 410.111,-475.583"/>
</g>
<!-- ExpName0 -->
<g id="node21" class="node"><title>ExpName0</title>
<ellipse fill="none" stroke="black" cx="322.142" cy="-450" rx="50.8918" ry="18"/>
<text text-anchor="middle" x="322.142" y="-446.3" font-family="Times,serif" font-size="14.00">ExpName0</text>
</g>
<!-- ExpCall0&#45;&gt;ExpName0 -->
<g id="edge18" class="edge"><title>ExpCall0&#45;&gt;ExpName0</title>
<path fill="none" stroke="black" d="M343.364,-504.055C340.213,-496.176 336.389,-486.617 332.86,-477.794"/>
<polygon fill="black" stroke="black" points="336.016,-476.26 329.053,-468.275 329.517,-478.86 336.016,-476.26"/>
</g>
<!-- ExpList0&#45;&gt;ExpEseq0 -->
<g id="edge8" class="edge"><title>ExpList0&#45;&gt;ExpEseq0</title>
<path fill="none" stroke="black" d="M435.378,-431.697C435.929,-423.983 436.592,-414.712 437.206,-406.112"/>
<polygon fill="black" stroke="black" points="440.699,-406.328 437.921,-396.104 433.717,-405.83 440.699,-406.328"/>
</g>
<!-- ExpName1 -->
<g id="node14" class="node"><title>ExpName1</title>
<ellipse fill="none" stroke="black" cx="383.142" cy="-162" rx="50.8918" ry="18"/>
<text text-anchor="middle" x="383.142" y="-158.3" font-family="Times,serif" font-size="14.00">ExpName1</text>
</g>
<!-- ExpCall1&#45;&gt;ExpName1 -->
<g id="edge9" class="edge"><title>ExpCall1&#45;&gt;ExpName1</title>
<path fill="none" stroke="black" d="M383.142,-215.697C383.142,-207.983 383.142,-198.712 383.142,-190.112"/>
<polygon fill="black" stroke="black" points="386.643,-190.104 383.142,-180.104 379.643,-190.104 386.643,-190.104"/>
</g>
<!-- ExpList1 -->
<g id="node15" class="node"><title>ExpList1</title>
<ellipse fill="none" stroke="black" cx="526.142" cy="-162" rx="42.7926" ry="18"/>
<text text-anchor="middle" x="526.142" y="-158.3" font-family="Times,serif" font-size="14.00">ExpList1</text>
</g>
<!-- ExpCall1&#45;&gt;ExpList1 -->
<g id="edge10" class="edge"><title>ExpCall1&#45;&gt;ExpList1</title>
<path fill="none" stroke="black" d="M410.376,-219.669C432.939,-208.624 465.197,-192.833 489.934,-180.725"/>
<polygon fill="black" stroke="black" points="491.567,-183.822 499.01,-176.282 488.49,-177.535 491.567,-183.822"/>
</g>
<!-- Label2: GrandChild@Func -->
<g id="node25" class="node"><title>Label2: GrandChild@Func</title>
<ellipse fill="none" stroke="black" cx="367.142" cy="-90" rx="107.482" ry="18"/>
<text text-anchor="middle" x="367.142" y="-86.3" font-family="Times,serif" font-size="14.00">Label2: GrandChild@Func</text>
</g>
<!-- ExpName1&#45;&gt;Label2: GrandChild@Func -->
<g id="edge24" class="edge"><title>ExpName1&#45;&gt;Label2: GrandChild@Func</title>
<path fill="none" stroke="black" d="M379.187,-143.697C377.424,-135.983 375.305,-126.712 373.34,-118.112"/>
<polygon fill="black" stroke="black" points="376.692,-117.073 371.052,-108.104 369.868,-118.633 376.692,-117.073"/>
</g>
<!-- ExpList1&#45;&gt;ExpConst0 -->
<g id="edge21" class="edge"><title>ExpList1&#45;&gt;ExpConst0</title>
<path fill="none" stroke="black" d="M530.016,-144.055C531.797,-136.261 533.955,-126.822 535.953,-118.079"/>
<polygon fill="black" stroke="black" points="539.377,-118.804 538.194,-108.275 532.553,-117.244 539.377,-118.804"/>
</g>
<!-- StatExp0 -->
<g id="node16" class="node"><title>StatExp0</title>
<ellipse fill="none" stroke="black" cx="433.142" cy="-594" rx="42.7926" ry="18"/>
<text text-anchor="middle" x="433.142" y="-590.3" font-family="Times,serif" font-size="14.00">StatExp0</text>
</g>
<!-- StatExp0&#45;&gt;ExpTemp3 -->
<g id="edge11" class="edge"><title>StatExp0&#45;&gt;ExpTemp3</title>
<path fill="none" stroke="black" d="M452.007,-577.465C463.481,-568.015 478.326,-555.79 491.044,-545.316"/>
<polygon fill="black" stroke="black" points="493.543,-547.793 499.037,-538.734 489.093,-542.389 493.543,-547.793"/>
</g>
<!-- StatList0 -->
<g id="node18" class="node"><title>StatList0</title>
<ellipse fill="none" stroke="black" cx="266.142" cy="-666" rx="42.4939" ry="18"/>
<text text-anchor="middle" x="266.142" y="-662.3" font-family="Times,serif" font-size="14.00">StatList0</text>
</g>
<!-- StatList0&#45;&gt;StatMove0 -->
<g id="edge14" class="edge"><title>StatList0&#45;&gt;StatMove0</title>
<path fill="none" stroke="black" d="M266.142,-647.697C266.142,-639.983 266.142,-630.712 266.142,-622.112"/>
<polygon fill="black" stroke="black" points="269.643,-622.104 266.142,-612.104 262.643,-622.104 269.643,-622.104"/>
</g>
<!-- StatList0&#45;&gt;StatExp0 -->
<g id="edge15" class="edge"><title>StatList0&#45;&gt;StatExp0</title>
<path fill="none" stroke="black" d="M295.232,-652.807C322.721,-641.284 364.147,-623.92 394.421,-611.231"/>
<polygon fill="black" stroke="black" points="395.957,-614.382 403.826,-607.288 393.251,-607.926 395.957,-614.382"/>
</g>
<!-- StatLabel0 -->
<g id="node19" class="node"><title>StatLabel0</title>
<ellipse fill="none" stroke="black" cx="131.142" cy="-594" rx="48.9926" ry="18"/>
<text text-anchor="middle" x="131.142" y="-590.3" font-family="Times,serif" font-size="14.00">StatLabel0</text>
</g>
<!-- StatList0&#45;&gt;StatLabel0 -->
<g id="edge13" class="edge"><title>StatList0&#45;&gt;StatLabel0</title>
<path fill="none" stroke="black" d="M240.432,-651.669C219.723,-640.931 190.361,-625.706 167.286,-613.741"/>
<polygon fill="black" stroke="black" points="168.634,-610.497 158.145,-609.001 165.411,-616.712 168.634,-610.497"/>
</g>
<!-- Label0: Main@main -->
<g id="node20" class="node"><title>Label0: Main@main</title>
<ellipse fill="none" stroke="black" cx="85.1424" cy="-522" rx="85.2851" ry="18"/>
<text text-anchor="middle" x="85.1424" y="-518.3" font-family="Times,serif" font-size="14.00">Label0: Main@main</text>
</g>
<!-- StatLabel0&#45;&gt;Label0: Main@main -->
<g id="edge16" class="edge"><title>StatLabel0&#45;&gt;Label0: Main@main</title>
<path fill="none" stroke="black" d="M120.241,-576.411C114.765,-568.077 108.009,-557.797 101.892,-548.488"/>
<polygon fill="black" stroke="black" points="104.702,-546.391 96.2851,-539.956 98.8519,-550.235 104.702,-546.391"/>
</g>
<!-- Label1: print -->
<g id="node22" class="node"><title>Label1: print</title>
<ellipse fill="none" stroke="black" cx="318.142" cy="-378" rx="56.59" ry="18"/>
<text text-anchor="middle" x="318.142" y="-374.3" font-family="Times,serif" font-size="14.00">Label1: print</text>
</g>
<!-- ExpName0&#45;&gt;Label1: print -->
<g id="edge17" class="edge"><title>ExpName0&#45;&gt;Label1: print</title>
<path fill="none" stroke="black" d="M321.154,-431.697C320.713,-423.983 320.183,-414.712 319.692,-406.112"/>
<polygon fill="black" stroke="black" points="323.185,-405.888 319.12,-396.104 316.196,-406.288 323.185,-405.888"/>
</g>
<!-- Temp1: T0 -->
<g id="node24" class="node"><title>Temp1: T0</title>
<ellipse fill="none" stroke="black" cx="264.142" cy="-162" rx="50.8918" ry="18"/>
<text text-anchor="middle" x="264.142" y="-158.3" font-family="Times,serif" font-size="14.00">Temp1: T0</text>
</g>
<!-- ExpTemp1&#45;&gt;Temp1: T0 -->
<g id="edge20" class="edge"><title>ExpTemp1&#45;&gt;Temp1: T0</title>
<path fill="none" stroke="black" d="M266.401,-215.697C266.07,-207.983 265.673,-198.712 265.304,-190.112"/>
<polygon fill="black" stroke="black" points="268.801,-189.945 264.875,-180.104 261.807,-190.245 268.801,-189.945"/>
</g>
</g>
</svg>
