<?xml version="1.0" encoding="UTF-8" standalone="no"?>
<!DOCTYPE svg PUBLIC "-//W3C//DTD SVG 1.1//EN"
 "http://www.w3.org/Graphics/SVG/1.1/DTD/svg11.dtd">
<!-- Generated by graphviz version 2.38.0 (20140413.2041)
 -->
<!-- Title: %3 Pages: 1 -->
<svg width="493pt" height="764pt"
 viewBox="0.00 0.00 492.84 764.00" xmlns="http://www.w3.org/2000/svg" xmlns:xlink="http://www.w3.org/1999/xlink">
<g id="graph0" class="graph" transform="scale(1 1) rotate(0) translate(4 760)">
<title>%3</title>
<polygon fill="white" stroke="none" points="-4,4 -4,-760 488.838,-760 488.838,4 -4,4"/>
<!-- ExpTemp2 -->
<g id="node1" class="node"><title>ExpTemp2</title>
<ellipse fill="none" stroke="black" cx="386.142" cy="-306" rx="50.0912" ry="18"/>
<text text-anchor="middle" x="386.142" y="-302.3" font-family="Times,serif" font-size="14.00">ExpTemp2</text>
</g>
<!-- Temp2: T0 -->
<g id="node2" class="node"><title>Temp2: T0</title>
<ellipse fill="none" stroke="black" cx="386.142" cy="-234" rx="50.8918" ry="18"/>
<text text-anchor="middle" x="386.142" y="-230.3" font-family="Times,serif" font-size="14.00">Temp2: T0</text>
</g>
<!-- ExpTemp2&#45;&gt;Temp2: T0 -->
<g id="edge1" class="edge"><title>ExpTemp2&#45;&gt;Temp2: T0</title>
<path fill="none" stroke="black" d="M386.142,-287.697C386.142,-279.983 386.142,-270.712 386.142,-262.112"/>
<polygon fill="black" stroke="black" points="389.643,-262.104 386.142,-252.104 382.643,-262.104 389.643,-262.104"/>
</g>
<!-- ExpEseq0 -->
<g id="node3" class="node"><title>ExpEseq0</title>
<ellipse fill="none" stroke="black" cx="327.142" cy="-378" rx="46.2923" ry="18"/>
<text text-anchor="middle" x="327.142" y="-374.3" font-family="Times,serif" font-size="14.00">ExpEseq0</text>
</g>
<!-- ExpEseq0&#45;&gt;ExpTemp2 -->
<g id="edge3" class="edge"><title>ExpEseq0&#45;&gt;ExpTemp2</title>
<path fill="none" stroke="black" d="M340.827,-360.765C348.167,-352.056 357.362,-341.147 365.547,-331.435"/>
<polygon fill="black" stroke="black" points="368.354,-333.535 372.123,-323.633 363.002,-329.024 368.354,-333.535"/>
</g>
<!-- StatMove1 -->
<g id="node4" class="node"><title>StatMove1</title>
<ellipse fill="none" stroke="black" cx="268.142" cy="-306" rx="50.0912" ry="18"/>
<text text-anchor="middle" x="268.142" y="-302.3" font-family="Times,serif" font-size="14.00">StatMove1</text>
</g>
<!-- ExpEseq0&#45;&gt;StatMove1 -->
<g id="edge2" class="edge"><title>ExpEseq0&#45;&gt;StatMove1</title>
<path fill="none" stroke="black" d="M313.458,-360.765C306.118,-352.056 296.923,-341.147 288.738,-331.435"/>
<polygon fill="black" stroke="black" points="291.283,-329.024 282.162,-323.633 285.931,-333.535 291.283,-329.024"/>
</g>
<!-- ExpCall1 -->
<g id="node11" class="node"><title>ExpCall1</title>
<ellipse fill="none" stroke="black" cx="271.142" cy="-234" rx="44.393" ry="18"/>
<text text-anchor="middle" x="271.142" y="-230.3" font-family="Times,serif" font-size="14.00">ExpCall1</text>
</g>
<!-- StatMove1&#45;&gt;ExpCall1 -->
<g id="edge24" class="edge"><title>StatMove1&#45;&gt;ExpCall1</title>
<path fill="none" stroke="black" d="M268.884,-287.697C269.215,-279.983 269.612,-270.712 269.98,-262.112"/>
<polygon fill="black" stroke="black" points="273.478,-262.245 270.409,-252.104 266.484,-261.945 273.478,-262.245"/>
</g>
<!-- ExpTemp1 -->
<g id="node24" class="node"><title>ExpTemp1</title>
<ellipse fill="none" stroke="black" cx="155.142" cy="-234" rx="50.0912" ry="18"/>
<text text-anchor="middle" x="155.142" y="-230.3" font-family="Times,serif" font-size="14.00">ExpTemp1</text>
</g>
<!-- StatMove1&#45;&gt;ExpTemp1 -->
<g id="edge23" class="edge"><title>StatMove1&#45;&gt;ExpTemp1</title>
<path fill="none" stroke="black" d="M244.178,-290.155C227.848,-280.039 206.017,-266.515 188.06,-255.391"/>
<polygon fill="black" stroke="black" points="189.417,-252.115 179.072,-249.824 185.73,-258.065 189.417,-252.115"/>
</g>
<!-- ExpConst0 -->
<g id="node5" class="node"><title>ExpConst0</title>
<ellipse fill="none" stroke="black" cx="430.142" cy="-90" rx="50.0912" ry="18"/>
<text text-anchor="middle" x="430.142" y="-86.3" font-family="Times,serif" font-size="14.00">ExpConst0</text>
</g>
<!-- Value0: 2 -->
<g id="node6" class="node"><title>Value0: 2</title>
<ellipse fill="none" stroke="black" cx="430.142" cy="-18" rx="45.4919" ry="18"/>
<text text-anchor="middle" x="430.142" y="-14.3" font-family="Times,serif" font-size="14.00">Value0: 2</text>
</g>
<!-- ExpConst0&#45;&gt;Value0: 2 -->
<g id="edge4" class="edge"><title>ExpConst0&#45;&gt;Value0: 2</title>
<path fill="none" stroke="black" d="M430.142,-71.6966C430.142,-63.9827 430.142,-54.7125 430.142,-46.1124"/>
<polygon fill="black" stroke="black" points="433.643,-46.1043 430.142,-36.1043 426.643,-46.1044 433.643,-46.1043"/>
</g>
<!-- StatMove0 -->
<g id="node7" class="node"><title>StatMove0</title>
<ellipse fill="none" stroke="black" cx="238.142" cy="-594" rx="50.0912" ry="18"/>
<text text-anchor="middle" x="238.142" y="-590.3" font-family="Times,serif" font-size="14.00">StatMove0</text>
</g>
<!-- ExpTemp0 -->
<g id="node8" class="node"><title>ExpTemp0</title>
<ellipse fill="none" stroke="black" cx="123.142" cy="-522" rx="50.0912" ry="18"/>
<text text-anchor="middle" x="123.142" y="-518.3" font-family="Times,serif" font-size="14.00">ExpTemp0</text>
</g>
<!-- StatMove0&#45;&gt;ExpTemp0 -->
<g id="edge5" class="edge"><title>StatMove0&#45;&gt;ExpTemp0</title>
<path fill="none" stroke="black" d="M213.754,-578.155C196.982,-567.946 174.51,-554.267 156.141,-543.086"/>
<polygon fill="black" stroke="black" points="157.858,-540.034 147.496,-537.824 154.218,-546.013 157.858,-540.034"/>
</g>
<!-- ExpCall0 -->
<g id="node9" class="node"><title>ExpCall0</title>
<ellipse fill="none" stroke="black" cx="238.142" cy="-522" rx="44.393" ry="18"/>
<text text-anchor="middle" x="238.142" y="-518.3" font-family="Times,serif" font-size="14.00">ExpCall0</text>
</g>
<!-- StatMove0&#45;&gt;ExpCall0 -->
<g id="edge6" class="edge"><title>StatMove0&#45;&gt;ExpCall0</title>
<path fill="none" stroke="black" d="M238.142,-575.697C238.142,-567.983 238.142,-558.712 238.142,-550.112"/>
<polygon fill="black" stroke="black" points="241.643,-550.104 238.142,-540.104 234.643,-550.104 241.643,-550.104"/>
</g>
<!-- Temp0: T1 -->
<g id="node16" class="node"><title>Temp0: T1</title>
<ellipse fill="none" stroke="black" cx="91.1424" cy="-450" rx="50.8918" ry="18"/>
<text text-anchor="middle" x="91.1424" y="-446.3" font-family="Times,serif" font-size="14.00">Temp0: T1</text>
</g>
<!-- ExpTemp0&#45;&gt;Temp0: T1 -->
<g id="edge11" class="edge"><title>ExpTemp0&#45;&gt;Temp0: T1</title>
<path fill="none" stroke="black" d="M115.396,-504.055C111.756,-496.091 107.33,-486.411 103.261,-477.51"/>
<polygon fill="black" stroke="black" points="106.381,-475.915 99.0397,-468.275 100.014,-478.825 106.381,-475.915"/>
</g>
<!-- ExpList0 -->
<g id="node10" class="node"><title>ExpList0</title>
<ellipse fill="none" stroke="black" cx="322.142" cy="-450" rx="42.7926" ry="18"/>
<text text-anchor="middle" x="322.142" y="-446.3" font-family="Times,serif" font-size="14.00">ExpList0</text>
</g>
<!-- ExpCall0&#45;&gt;ExpList0 -->
<g id="edge20" class="edge"><title>ExpCall0&#45;&gt;ExpList0</title>
<path fill="none" stroke="black" d="M256.785,-505.465C268.204,-495.949 283,-483.619 295.626,-473.097"/>
<polygon fill="black" stroke="black" points="298.111,-475.583 303.552,-466.492 293.629,-470.205 298.111,-475.583"/>
</g>
<!-- ExpName0 -->
<g id="node22" class="node"><title>ExpName0</title>
<ellipse fill="none" stroke="black" cx="210.142" cy="-450" rx="50.8918" ry="18"/>
<text text-anchor="middle" x="210.142" y="-446.3" font-family="Times,serif" font-size="14.00">ExpName0</text>
</g>
<!-- ExpCall0&#45;&gt;ExpName0 -->
<g id="edge19" class="edge"><title>ExpCall0&#45;&gt;ExpName0</title>
<path fill="none" stroke="black" d="M231.364,-504.055C228.213,-496.176 224.389,-486.617 220.86,-477.794"/>
<polygon fill="black" stroke="black" points="224.016,-476.26 217.053,-468.275 217.517,-478.86 224.016,-476.26"/>
</g>
<!-- ExpList0&#45;&gt;ExpEseq0 -->
<g id="edge7" class="edge"><title>ExpList0&#45;&gt;ExpEseq0</title>
<path fill="none" stroke="black" d="M323.378,-431.697C323.929,-423.983 324.592,-414.712 325.206,-406.112"/>
<polygon fill="black" stroke="black" points="328.699,-406.328 325.921,-396.104 321.717,-405.83 328.699,-406.328"/>
</g>
<!-- ExpName1 -->
<g id="node12" class="node"><title>ExpName1</title>
<ellipse fill="none" stroke="black" cx="271.142" cy="-162" rx="50.8918" ry="18"/>
<text text-anchor="middle" x="271.142" y="-158.3" font-family="Times,serif" font-size="14.00">ExpName1</text>
</g>
<!-- ExpCall1&#45;&gt;ExpName1 -->
<g id="edge8" class="edge"><title>ExpCall1&#45;&gt;ExpName1</title>
<path fill="none" stroke="black" d="M271.142,-215.697C271.142,-207.983 271.142,-198.712 271.142,-190.112"/>
<polygon fill="black" stroke="black" points="274.643,-190.104 271.142,-180.104 267.643,-190.104 274.643,-190.104"/>
</g>
<!-- ExpList1 -->
<g id="node13" class="node"><title>ExpList1</title>
<ellipse fill="none" stroke="black" cx="414.142" cy="-162" rx="42.7926" ry="18"/>
<text text-anchor="middle" x="414.142" y="-158.3" font-family="Times,serif" font-size="14.00">ExpList1</text>
</g>
<!-- ExpCall1&#45;&gt;ExpList1 -->
<g id="edge9" class="edge"><title>ExpCall1&#45;&gt;ExpList1</title>
<path fill="none" stroke="black" d="M298.376,-219.669C320.939,-208.624 353.197,-192.833 377.934,-180.725"/>
<polygon fill="black" stroke="black" points="379.567,-183.822 387.01,-176.282 376.49,-177.535 379.567,-183.822"/>
</g>
<!-- Label2: GrandChild@Func -->
<g id="node26" class="node"><title>Label2: GrandChild@Func</title>
<ellipse fill="none" stroke="black" cx="255.142" cy="-90" rx="107.482" ry="18"/>
<text text-anchor="middle" x="255.142" y="-86.3" font-family="Times,serif" font-size="14.00">Label2: GrandChild@Func</text>
</g>
<!-- ExpName1&#45;&gt;Label2: GrandChild@Func -->
<g id="edge25" class="edge"><title>ExpName1&#45;&gt;Label2: GrandChild@Func</title>
<path fill="none" stroke="black" d="M267.187,-143.697C265.424,-135.983 263.305,-126.712 261.34,-118.112"/>
<polygon fill="black" stroke="black" points="264.692,-117.073 259.052,-108.104 257.868,-118.633 264.692,-117.073"/>
</g>
<!-- ExpList1&#45;&gt;ExpConst0 -->
<g id="edge22" class="edge"><title>ExpList1&#45;&gt;ExpConst0</title>
<path fill="none" stroke="black" d="M418.016,-144.055C419.797,-136.261 421.955,-126.822 423.953,-118.079"/>
<polygon fill="black" stroke="black" points="427.377,-118.804 426.194,-108.275 420.553,-117.244 427.377,-118.804"/>
</g>
<!-- StatExp0 -->
<g id="node14" class="node"><title>StatExp0</title>
<ellipse fill="none" stroke="black" cx="349.142" cy="-594" rx="42.7926" ry="18"/>
<text text-anchor="middle" x="349.142" y="-590.3" font-family="Times,serif" font-size="14.00">StatExp0</text>
</g>
<!-- ExpTemp3 -->
<g id="node15" class="node"><title>ExpTemp3</title>
<ellipse fill="none" stroke="black" cx="406.142" cy="-522" rx="50.0912" ry="18"/>
<text text-anchor="middle" x="406.142" y="-518.3" font-family="Times,serif" font-size="14.00">ExpTemp3</text>
</g>
<!-- StatExp0&#45;&gt;ExpTemp3 -->
<g id="edge10" class="edge"><title>StatExp0&#45;&gt;ExpTemp3</title>
<path fill="none" stroke="black" d="M362.363,-576.765C369.454,-568.056 378.337,-557.147 386.245,-547.435"/>
<polygon fill="black" stroke="black" points="388.998,-549.598 392.598,-539.633 383.57,-545.178 388.998,-549.598"/>
</g>
<!-- Temp3: T1 -->
<g id="node17" class="node"><title>Temp3: T1</title>
<ellipse fill="none" stroke="black" cx="434.142" cy="-450" rx="50.8918" ry="18"/>
<text text-anchor="middle" x="434.142" y="-446.3" font-family="Times,serif" font-size="14.00">Temp3: T1</text>
</g>
<!-- ExpTemp3&#45;&gt;Temp3: T1 -->
<g id="edge12" class="edge"><title>ExpTemp3&#45;&gt;Temp3: T1</title>
<path fill="none" stroke="black" d="M412.92,-504.055C416.072,-496.176 419.896,-486.617 423.425,-477.794"/>
<polygon fill="black" stroke="black" points="426.768,-478.86 427.232,-468.275 420.269,-476.26 426.768,-478.86"/>
</g>
<!-- StatSeq0 -->
<g id="node18" class="node"><title>StatSeq0</title>
<ellipse fill="none" stroke="black" cx="172.142" cy="-738" rx="42.4939" ry="18"/>
<text text-anchor="middle" x="172.142" y="-734.3" font-family="Times,serif" font-size="14.00">StatSeq0</text>
</g>
<!-- StatLabel0 -->
<g id="node19" class="node"><title>StatLabel0</title>
<ellipse fill="none" stroke="black" cx="107.142" cy="-666" rx="48.9926" ry="18"/>
<text text-anchor="middle" x="107.142" y="-662.3" font-family="Times,serif" font-size="14.00">StatLabel0</text>
</g>
<!-- StatSeq0&#45;&gt;StatLabel0 -->
<g id="edge13" class="edge"><title>StatSeq0&#45;&gt;StatLabel0</title>
<path fill="none" stroke="black" d="M157.393,-721.116C149.035,-712.116 138.419,-700.682 129.1,-690.646"/>
<polygon fill="black" stroke="black" points="131.654,-688.253 122.285,-683.307 126.524,-693.017 131.654,-688.253"/>
</g>
<!-- StatSeq1 -->
<g id="node20" class="node"><title>StatSeq1</title>
<ellipse fill="none" stroke="black" cx="238.142" cy="-666" rx="42.4939" ry="18"/>
<text text-anchor="middle" x="238.142" y="-662.3" font-family="Times,serif" font-size="14.00">StatSeq1</text>
</g>
<!-- StatSeq0&#45;&gt;StatSeq1 -->
<g id="edge14" class="edge"><title>StatSeq0&#45;&gt;StatSeq1</title>
<path fill="none" stroke="black" d="M187.119,-721.116C195.605,-712.116 206.385,-700.682 215.848,-690.646"/>
<polygon fill="black" stroke="black" points="218.454,-692.984 222.767,-683.307 213.361,-688.182 218.454,-692.984"/>
</g>
<!-- Label0: Main@main -->
<g id="node21" class="node"><title>Label0: Main@main</title>
<ellipse fill="none" stroke="black" cx="85.1424" cy="-594" rx="85.2851" ry="18"/>
<text text-anchor="middle" x="85.1424" y="-590.3" font-family="Times,serif" font-size="14.00">Label0: Main@main</text>
</g>
<!-- StatLabel0&#45;&gt;Label0: Main@main -->
<g id="edge15" class="edge"><title>StatLabel0&#45;&gt;Label0: Main@main</title>
<path fill="none" stroke="black" d="M101.817,-648.055C99.3673,-640.261 96.4008,-630.822 93.653,-622.079"/>
<polygon fill="black" stroke="black" points="96.9091,-620.766 90.5718,-612.275 90.2312,-622.865 96.9091,-620.766"/>
</g>
<!-- StatSeq1&#45;&gt;StatMove0 -->
<g id="edge17" class="edge"><title>StatSeq1&#45;&gt;StatMove0</title>
<path fill="none" stroke="black" d="M238.142,-647.697C238.142,-639.983 238.142,-630.712 238.142,-622.112"/>
<polygon fill="black" stroke="black" points="241.643,-622.104 238.142,-612.104 234.643,-622.104 241.643,-622.104"/>
</g>
<!-- StatSeq1&#45;&gt;StatExp0 -->
<g id="edge18" class="edge"><title>StatSeq1&#45;&gt;StatExp0</title>
<path fill="none" stroke="black" d="M260.873,-650.666C277.334,-640.285 299.787,-626.125 317.928,-614.685"/>
<polygon fill="black" stroke="black" points="319.851,-617.61 326.442,-609.315 316.117,-611.689 319.851,-617.61"/>
</g>
<!-- Label1: print -->
<g id="node23" class="node"><title>Label1: print</title>
<ellipse fill="none" stroke="black" cx="206.142" cy="-378" rx="56.59" ry="18"/>
<text text-anchor="middle" x="206.142" y="-374.3" font-family="Times,serif" font-size="14.00">Label1: print</text>
</g>
<!-- ExpName0&#45;&gt;Label1: print -->
<g id="edge16" class="edge"><title>ExpName0&#45;&gt;Label1: print</title>
<path fill="none" stroke="black" d="M209.154,-431.697C208.713,-423.983 208.183,-414.712 207.692,-406.112"/>
<polygon fill="black" stroke="black" points="211.185,-405.888 207.12,-396.104 204.196,-406.288 211.185,-405.888"/>
</g>
<!-- Temp1: T0 -->
<g id="node25" class="node"><title>Temp1: T0</title>
<ellipse fill="none" stroke="black" cx="152.142" cy="-162" rx="50.8918" ry="18"/>
<text text-anchor="middle" x="152.142" y="-158.3" font-family="Times,serif" font-size="14.00">Temp1: T0</text>
</g>
<!-- ExpTemp1&#45;&gt;Temp1: T0 -->
<g id="edge21" class="edge"><title>ExpTemp1&#45;&gt;Temp1: T0</title>
<path fill="none" stroke="black" d="M154.401,-215.697C154.07,-207.983 153.673,-198.712 153.304,-190.112"/>
<polygon fill="black" stroke="black" points="156.801,-189.945 152.875,-180.104 149.807,-190.245 156.801,-189.945"/>
</g>
</g>
</svg>
