<?xml version="1.0" encoding="UTF-8" standalone="no"?>
<!DOCTYPE svg PUBLIC "-//W3C//DTD SVG 1.1//EN"
 "http://www.w3.org/Graphics/SVG/1.1/DTD/svg11.dtd">
<!-- Generated by graphviz version 2.38.0 (20140413.2041)
 -->
<!-- Title: %3 Pages: 1 -->
<svg width="562pt" height="1196pt"
 viewBox="0.00 0.00 562.19 1196.00" xmlns="http://www.w3.org/2000/svg" xmlns:xlink="http://www.w3.org/1999/xlink">
<g id="graph0" class="graph" transform="scale(1 1) rotate(0) translate(4 1192)">
<title>%3</title>
<polygon fill="white" stroke="none" points="-4,4 -4,-1192 558.188,-1192 558.188,4 -4,4"/>
<!-- StatExp0 -->
<g id="node1" class="node"><title>StatExp0</title>
<ellipse fill="none" stroke="black" cx="224.142" cy="-1098" rx="42.7926" ry="18"/>
<text text-anchor="middle" x="224.142" y="-1094.3" font-family="Times,serif" font-size="14.00">StatExp0</text>
</g>
<!-- ExpEseq0 -->
<g id="node2" class="node"><title>ExpEseq0</title>
<ellipse fill="none" stroke="black" cx="234.142" cy="-1026" rx="46.2923" ry="18"/>
<text text-anchor="middle" x="234.142" y="-1022.3" font-family="Times,serif" font-size="14.00">ExpEseq0</text>
</g>
<!-- StatExp0&#45;&gt;ExpEseq0 -->
<g id="edge1" class="edge"><title>StatExp0&#45;&gt;ExpEseq0</title>
<path fill="none" stroke="black" d="M226.614,-1079.7C227.716,-1071.98 229.041,-1062.71 230.269,-1054.11"/>
<polygon fill="black" stroke="black" points="233.749,-1054.5 231.699,-1044.1 226.82,-1053.51 233.749,-1054.5"/>
</g>
<!-- StatMove0 -->
<g id="node3" class="node"><title>StatMove0</title>
<ellipse fill="none" stroke="black" cx="175.142" cy="-954" rx="50.0912" ry="18"/>
<text text-anchor="middle" x="175.142" y="-950.3" font-family="Times,serif" font-size="14.00">StatMove0</text>
</g>
<!-- ExpEseq0&#45;&gt;StatMove0 -->
<g id="edge2" class="edge"><title>ExpEseq0&#45;&gt;StatMove0</title>
<path fill="none" stroke="black" d="M220.458,-1008.76C213.118,-1000.06 203.923,-989.147 195.738,-979.435"/>
<polygon fill="black" stroke="black" points="198.283,-977.024 189.162,-971.633 192.931,-981.535 198.283,-977.024"/>
</g>
<!-- ExpTemp5 -->
<g id="node4" class="node"><title>ExpTemp5</title>
<ellipse fill="none" stroke="black" cx="293.142" cy="-954" rx="50.0912" ry="18"/>
<text text-anchor="middle" x="293.142" y="-950.3" font-family="Times,serif" font-size="14.00">ExpTemp5</text>
</g>
<!-- ExpEseq0&#45;&gt;ExpTemp5 -->
<g id="edge3" class="edge"><title>ExpEseq0&#45;&gt;ExpTemp5</title>
<path fill="none" stroke="black" d="M247.827,-1008.76C255.167,-1000.06 264.362,-989.147 272.547,-979.435"/>
<polygon fill="black" stroke="black" points="275.354,-981.535 279.123,-971.633 270.002,-977.024 275.354,-981.535"/>
</g>
<!-- ExpCall0 -->
<g id="node19" class="node"><title>ExpCall0</title>
<ellipse fill="none" stroke="black" cx="178.142" cy="-882" rx="44.393" ry="18"/>
<text text-anchor="middle" x="178.142" y="-878.3" font-family="Times,serif" font-size="14.00">ExpCall0</text>
</g>
<!-- StatMove0&#45;&gt;ExpCall0 -->
<g id="edge24" class="edge"><title>StatMove0&#45;&gt;ExpCall0</title>
<path fill="none" stroke="black" d="M175.884,-935.697C176.215,-927.983 176.612,-918.712 176.98,-910.112"/>
<polygon fill="black" stroke="black" points="180.478,-910.245 177.409,-900.104 173.484,-909.945 180.478,-910.245"/>
</g>
<!-- ExpTemp0 -->
<g id="node26" class="node"><title>ExpTemp0</title>
<ellipse fill="none" stroke="black" cx="62.1424" cy="-882" rx="50.0912" ry="18"/>
<text text-anchor="middle" x="62.1424" y="-878.3" font-family="Times,serif" font-size="14.00">ExpTemp0</text>
</g>
<!-- StatMove0&#45;&gt;ExpTemp0 -->
<g id="edge23" class="edge"><title>StatMove0&#45;&gt;ExpTemp0</title>
<path fill="none" stroke="black" d="M151.178,-938.155C134.848,-928.039 113.017,-914.515 95.0601,-903.391"/>
<polygon fill="black" stroke="black" points="96.4165,-900.115 86.0723,-897.824 92.7302,-906.065 96.4165,-900.115"/>
</g>
<!-- Temp5: T2 -->
<g id="node34" class="node"><title>Temp5: T2</title>
<ellipse fill="none" stroke="black" cx="293.142" cy="-882" rx="50.8918" ry="18"/>
<text text-anchor="middle" x="293.142" y="-878.3" font-family="Times,serif" font-size="14.00">Temp5: T2</text>
</g>
<!-- ExpTemp5&#45;&gt;Temp5: T2 -->
<g id="edge28" class="edge"><title>ExpTemp5&#45;&gt;Temp5: T2</title>
<path fill="none" stroke="black" d="M293.142,-935.697C293.142,-927.983 293.142,-918.712 293.142,-910.112"/>
<polygon fill="black" stroke="black" points="296.643,-910.104 293.142,-900.104 289.643,-910.104 296.643,-910.104"/>
</g>
<!-- ExpList0 -->
<g id="node5" class="node"><title>ExpList0</title>
<ellipse fill="none" stroke="black" cx="294.142" cy="-810" rx="42.7926" ry="18"/>
<text text-anchor="middle" x="294.142" y="-806.3" font-family="Times,serif" font-size="14.00">ExpList0</text>
</g>
<!-- ExpEseq1 -->
<g id="node6" class="node"><title>ExpEseq1</title>
<ellipse fill="none" stroke="black" cx="297.142" cy="-738" rx="46.2923" ry="18"/>
<text text-anchor="middle" x="297.142" y="-734.3" font-family="Times,serif" font-size="14.00">ExpEseq1</text>
</g>
<!-- ExpList0&#45;&gt;ExpEseq1 -->
<g id="edge4" class="edge"><title>ExpList0&#45;&gt;ExpEseq1</title>
<path fill="none" stroke="black" d="M294.884,-791.697C295.215,-783.983 295.612,-774.712 295.98,-766.112"/>
<polygon fill="black" stroke="black" points="299.478,-766.245 296.409,-756.104 292.484,-765.945 299.478,-766.245"/>
</g>
<!-- ExpTemp4 -->
<g id="node7" class="node"><title>ExpTemp4</title>
<ellipse fill="none" stroke="black" cx="356.142" cy="-666" rx="50.0912" ry="18"/>
<text text-anchor="middle" x="356.142" y="-662.3" font-family="Times,serif" font-size="14.00">ExpTemp4</text>
</g>
<!-- ExpEseq1&#45;&gt;ExpTemp4 -->
<g id="edge22" class="edge"><title>ExpEseq1&#45;&gt;ExpTemp4</title>
<path fill="none" stroke="black" d="M310.827,-720.765C318.167,-712.056 327.362,-701.147 335.547,-691.435"/>
<polygon fill="black" stroke="black" points="338.354,-693.535 342.123,-683.633 333.002,-689.024 338.354,-693.535"/>
</g>
<!-- StatMove1 -->
<g id="node11" class="node"><title>StatMove1</title>
<ellipse fill="none" stroke="black" cx="238.142" cy="-666" rx="50.0912" ry="18"/>
<text text-anchor="middle" x="238.142" y="-662.3" font-family="Times,serif" font-size="14.00">StatMove1</text>
</g>
<!-- ExpEseq1&#45;&gt;StatMove1 -->
<g id="edge21" class="edge"><title>ExpEseq1&#45;&gt;StatMove1</title>
<path fill="none" stroke="black" d="M283.458,-720.765C276.118,-712.056 266.923,-701.147 258.738,-691.435"/>
<polygon fill="black" stroke="black" points="261.283,-689.024 252.162,-683.633 255.931,-693.535 261.283,-689.024"/>
</g>
<!-- Temp4: T1 -->
<g id="node8" class="node"><title>Temp4: T1</title>
<ellipse fill="none" stroke="black" cx="356.142" cy="-594" rx="50.8918" ry="18"/>
<text text-anchor="middle" x="356.142" y="-590.3" font-family="Times,serif" font-size="14.00">Temp4: T1</text>
</g>
<!-- ExpTemp4&#45;&gt;Temp4: T1 -->
<g id="edge5" class="edge"><title>ExpTemp4&#45;&gt;Temp4: T1</title>
<path fill="none" stroke="black" d="M356.142,-647.697C356.142,-639.983 356.142,-630.712 356.142,-622.112"/>
<polygon fill="black" stroke="black" points="359.643,-622.104 356.142,-612.104 352.643,-622.104 359.643,-622.104"/>
</g>
<!-- ExpName1 -->
<g id="node9" class="node"><title>ExpName1</title>
<ellipse fill="none" stroke="black" cx="241.142" cy="-522" rx="50.8918" ry="18"/>
<text text-anchor="middle" x="241.142" y="-518.3" font-family="Times,serif" font-size="14.00">ExpName1</text>
</g>
<!-- Label2: GrandChild@Func -->
<g id="node10" class="node"><title>Label2: GrandChild@Func</title>
<ellipse fill="none" stroke="black" cx="212.142" cy="-450" rx="107.482" ry="18"/>
<text text-anchor="middle" x="212.142" y="-446.3" font-family="Times,serif" font-size="14.00">Label2: GrandChild@Func</text>
</g>
<!-- ExpName1&#45;&gt;Label2: GrandChild@Func -->
<g id="edge6" class="edge"><title>ExpName1&#45;&gt;Label2: GrandChild@Func</title>
<path fill="none" stroke="black" d="M234.122,-504.055C230.858,-496.176 226.898,-486.617 223.243,-477.794"/>
<polygon fill="black" stroke="black" points="226.36,-476.174 219.299,-468.275 219.893,-478.853 226.36,-476.174"/>
</g>
<!-- ExpTemp1 -->
<g id="node12" class="node"><title>ExpTemp1</title>
<ellipse fill="none" stroke="black" cx="125.142" cy="-594" rx="50.0912" ry="18"/>
<text text-anchor="middle" x="125.142" y="-590.3" font-family="Times,serif" font-size="14.00">ExpTemp1</text>
</g>
<!-- StatMove1&#45;&gt;ExpTemp1 -->
<g id="edge7" class="edge"><title>StatMove1&#45;&gt;ExpTemp1</title>
<path fill="none" stroke="black" d="M214.178,-650.155C197.848,-640.039 176.017,-626.515 158.06,-615.391"/>
<polygon fill="black" stroke="black" points="159.417,-612.115 149.072,-609.824 155.73,-618.065 159.417,-612.115"/>
</g>
<!-- ExpCall1 -->
<g id="node13" class="node"><title>ExpCall1</title>
<ellipse fill="none" stroke="black" cx="241.142" cy="-594" rx="44.393" ry="18"/>
<text text-anchor="middle" x="241.142" y="-590.3" font-family="Times,serif" font-size="14.00">ExpCall1</text>
</g>
<!-- StatMove1&#45;&gt;ExpCall1 -->
<g id="edge8" class="edge"><title>StatMove1&#45;&gt;ExpCall1</title>
<path fill="none" stroke="black" d="M238.884,-647.697C239.215,-639.983 239.612,-630.712 239.98,-622.112"/>
<polygon fill="black" stroke="black" points="243.478,-622.245 240.409,-612.104 236.484,-621.945 243.478,-622.245"/>
</g>
<!-- Temp1: T1 -->
<g id="node35" class="node"><title>Temp1: T1</title>
<ellipse fill="none" stroke="black" cx="122.142" cy="-522" rx="50.8918" ry="18"/>
<text text-anchor="middle" x="122.142" y="-518.3" font-family="Times,serif" font-size="14.00">Temp1: T1</text>
</g>
<!-- ExpTemp1&#45;&gt;Temp1: T1 -->
<g id="edge29" class="edge"><title>ExpTemp1&#45;&gt;Temp1: T1</title>
<path fill="none" stroke="black" d="M124.401,-575.697C124.07,-567.983 123.673,-558.712 123.304,-550.112"/>
<polygon fill="black" stroke="black" points="126.801,-549.945 122.875,-540.104 119.807,-550.245 126.801,-549.945"/>
</g>
<!-- ExpCall1&#45;&gt;ExpName1 -->
<g id="edge19" class="edge"><title>ExpCall1&#45;&gt;ExpName1</title>
<path fill="none" stroke="black" d="M241.142,-575.697C241.142,-567.983 241.142,-558.712 241.142,-550.112"/>
<polygon fill="black" stroke="black" points="244.643,-550.104 241.142,-540.104 237.643,-550.104 244.643,-550.104"/>
</g>
<!-- ExpList1 -->
<g id="node16" class="node"><title>ExpList1</title>
<ellipse fill="none" stroke="black" cx="383.142" cy="-522" rx="42.7926" ry="18"/>
<text text-anchor="middle" x="383.142" y="-518.3" font-family="Times,serif" font-size="14.00">ExpList1</text>
</g>
<!-- ExpCall1&#45;&gt;ExpList1 -->
<g id="edge20" class="edge"><title>ExpCall1&#45;&gt;ExpList1</title>
<path fill="none" stroke="black" d="M268.186,-579.669C290.591,-568.624 322.623,-552.833 347.187,-540.725"/>
<polygon fill="black" stroke="black" points="348.778,-543.842 356.2,-536.282 345.683,-537.564 348.778,-543.842"/>
</g>
<!-- ExpConst1 -->
<g id="node14" class="node"><title>ExpConst1</title>
<ellipse fill="none" stroke="black" cx="504.142" cy="-90" rx="50.0912" ry="18"/>
<text text-anchor="middle" x="504.142" y="-86.3" font-family="Times,serif" font-size="14.00">ExpConst1</text>
</g>
<!-- Value1: 4 -->
<g id="node15" class="node"><title>Value1: 4</title>
<ellipse fill="none" stroke="black" cx="504.142" cy="-18" rx="45.4919" ry="18"/>
<text text-anchor="middle" x="504.142" y="-14.3" font-family="Times,serif" font-size="14.00">Value1: 4</text>
</g>
<!-- ExpConst1&#45;&gt;Value1: 4 -->
<g id="edge9" class="edge"><title>ExpConst1&#45;&gt;Value1: 4</title>
<path fill="none" stroke="black" d="M504.142,-71.6966C504.142,-63.9827 504.142,-54.7125 504.142,-46.1124"/>
<polygon fill="black" stroke="black" points="507.643,-46.1043 504.142,-36.1043 500.643,-46.1044 507.643,-46.1043"/>
</g>
<!-- ExpEseq2 -->
<g id="node17" class="node"><title>ExpEseq2</title>
<ellipse fill="none" stroke="black" cx="383.142" cy="-450" rx="46.2923" ry="18"/>
<text text-anchor="middle" x="383.142" y="-446.3" font-family="Times,serif" font-size="14.00">ExpEseq2</text>
</g>
<!-- ExpList1&#45;&gt;ExpEseq2 -->
<g id="edge10" class="edge"><title>ExpList1&#45;&gt;ExpEseq2</title>
<path fill="none" stroke="black" d="M383.142,-503.697C383.142,-495.983 383.142,-486.712 383.142,-478.112"/>
<polygon fill="black" stroke="black" points="386.643,-478.104 383.142,-468.104 379.643,-478.104 386.643,-478.104"/>
</g>
<!-- ExpConst2 -->
<g id="node18" class="node"><title>ExpConst2</title>
<ellipse fill="none" stroke="black" cx="497.142" cy="-450" rx="50.0912" ry="18"/>
<text text-anchor="middle" x="497.142" y="-446.3" font-family="Times,serif" font-size="14.00">ExpConst2</text>
</g>
<!-- ExpList1&#45;&gt;ExpConst2 -->
<g id="edge11" class="edge"><title>ExpList1&#45;&gt;ExpConst2</title>
<path fill="none" stroke="black" d="M406.487,-506.666C423.169,-496.422 445.844,-482.499 464.342,-471.141"/>
<polygon fill="black" stroke="black" points="466.353,-474.013 473.043,-465.798 462.69,-468.048 466.353,-474.013"/>
</g>
<!-- ExpTemp3 -->
<g id="node24" class="node"><title>ExpTemp3</title>
<ellipse fill="none" stroke="black" cx="383.142" cy="-378" rx="50.0912" ry="18"/>
<text text-anchor="middle" x="383.142" y="-374.3" font-family="Times,serif" font-size="14.00">ExpTemp3</text>
</g>
<!-- ExpEseq2&#45;&gt;ExpTemp3 -->
<g id="edge38" class="edge"><title>ExpEseq2&#45;&gt;ExpTemp3</title>
<path fill="none" stroke="black" d="M383.142,-431.697C383.142,-423.983 383.142,-414.712 383.142,-406.112"/>
<polygon fill="black" stroke="black" points="386.643,-406.104 383.142,-396.104 379.643,-406.104 386.643,-406.104"/>
</g>
<!-- StatMove2 -->
<g id="node32" class="node"><title>StatMove2</title>
<ellipse fill="none" stroke="black" cx="265.142" cy="-378" rx="50.0912" ry="18"/>
<text text-anchor="middle" x="265.142" y="-374.3" font-family="Times,serif" font-size="14.00">StatMove2</text>
</g>
<!-- ExpEseq2&#45;&gt;StatMove2 -->
<g id="edge37" class="edge"><title>ExpEseq2&#45;&gt;StatMove2</title>
<path fill="none" stroke="black" d="M358.693,-434.496C341.326,-424.194 317.794,-410.234 298.676,-398.893"/>
<polygon fill="black" stroke="black" points="300.353,-395.818 289.967,-393.726 296.782,-401.839 300.353,-395.818"/>
</g>
<!-- Value2: 2 -->
<g id="node42" class="node"><title>Value2: 2</title>
<ellipse fill="none" stroke="black" cx="497.142" cy="-378" rx="45.4919" ry="18"/>
<text text-anchor="middle" x="497.142" y="-374.3" font-family="Times,serif" font-size="14.00">Value2: 2</text>
</g>
<!-- ExpConst2&#45;&gt;Value2: 2 -->
<g id="edge41" class="edge"><title>ExpConst2&#45;&gt;Value2: 2</title>
<path fill="none" stroke="black" d="M497.142,-431.697C497.142,-423.983 497.142,-414.712 497.142,-406.112"/>
<polygon fill="black" stroke="black" points="500.643,-406.104 497.142,-396.104 493.643,-406.104 500.643,-406.104"/>
</g>
<!-- ExpCall0&#45;&gt;ExpList0 -->
<g id="edge13" class="edge"><title>ExpCall0&#45;&gt;ExpList0</title>
<path fill="none" stroke="black" d="M201.897,-866.666C219.178,-856.237 242.778,-841.996 261.781,-830.529"/>
<polygon fill="black" stroke="black" points="263.666,-833.479 270.42,-825.315 260.05,-827.485 263.666,-833.479"/>
</g>
<!-- ExpName0 -->
<g id="node20" class="node"><title>ExpName0</title>
<ellipse fill="none" stroke="black" cx="178.142" cy="-810" rx="50.8918" ry="18"/>
<text text-anchor="middle" x="178.142" y="-806.3" font-family="Times,serif" font-size="14.00">ExpName0</text>
</g>
<!-- ExpCall0&#45;&gt;ExpName0 -->
<g id="edge12" class="edge"><title>ExpCall0&#45;&gt;ExpName0</title>
<path fill="none" stroke="black" d="M178.142,-863.697C178.142,-855.983 178.142,-846.712 178.142,-838.112"/>
<polygon fill="black" stroke="black" points="181.643,-838.104 178.142,-828.104 174.643,-838.104 181.643,-838.104"/>
</g>
<!-- Label1: print -->
<g id="node21" class="node"><title>Label1: print</title>
<ellipse fill="none" stroke="black" cx="176.142" cy="-738" rx="56.59" ry="18"/>
<text text-anchor="middle" x="176.142" y="-734.3" font-family="Times,serif" font-size="14.00">Label1: print</text>
</g>
<!-- ExpName0&#45;&gt;Label1: print -->
<g id="edge14" class="edge"><title>ExpName0&#45;&gt;Label1: print</title>
<path fill="none" stroke="black" d="M177.648,-791.697C177.428,-783.983 177.163,-774.712 176.917,-766.112"/>
<polygon fill="black" stroke="black" points="180.415,-766 176.631,-756.104 173.418,-766.2 180.415,-766"/>
</g>
<!-- StatLabel0 -->
<g id="node22" class="node"><title>StatLabel0</title>
<ellipse fill="none" stroke="black" cx="104.142" cy="-1098" rx="48.9926" ry="18"/>
<text text-anchor="middle" x="104.142" y="-1094.3" font-family="Times,serif" font-size="14.00">StatLabel0</text>
</g>
<!-- Label0: Main@main -->
<g id="node23" class="node"><title>Label0: Main@main</title>
<ellipse fill="none" stroke="black" cx="85.1424" cy="-1026" rx="85.2851" ry="18"/>
<text text-anchor="middle" x="85.1424" y="-1022.3" font-family="Times,serif" font-size="14.00">Label0: Main@main</text>
</g>
<!-- StatLabel0&#45;&gt;Label0: Main@main -->
<g id="edge15" class="edge"><title>StatLabel0&#45;&gt;Label0: Main@main</title>
<path fill="none" stroke="black" d="M99.5431,-1080.05C97.4275,-1072.26 94.8655,-1062.82 92.4924,-1054.08"/>
<polygon fill="black" stroke="black" points="95.8288,-1053.01 89.8315,-1044.28 89.0732,-1054.84 95.8288,-1053.01"/>
</g>
<!-- Temp3: T0 -->
<g id="node25" class="node"><title>Temp3: T0</title>
<ellipse fill="none" stroke="black" cx="383.142" cy="-306" rx="50.8918" ry="18"/>
<text text-anchor="middle" x="383.142" y="-302.3" font-family="Times,serif" font-size="14.00">Temp3: T0</text>
</g>
<!-- ExpTemp3&#45;&gt;Temp3: T0 -->
<g id="edge16" class="edge"><title>ExpTemp3&#45;&gt;Temp3: T0</title>
<path fill="none" stroke="black" d="M383.142,-359.697C383.142,-351.983 383.142,-342.712 383.142,-334.112"/>
<polygon fill="black" stroke="black" points="386.643,-334.104 383.142,-324.104 379.643,-334.104 386.643,-334.104"/>
</g>
<!-- Temp0: T2 -->
<g id="node27" class="node"><title>Temp0: T2</title>
<ellipse fill="none" stroke="black" cx="59.1424" cy="-810" rx="50.8918" ry="18"/>
<text text-anchor="middle" x="59.1424" y="-806.3" font-family="Times,serif" font-size="14.00">Temp0: T2</text>
</g>
<!-- ExpTemp0&#45;&gt;Temp0: T2 -->
<g id="edge17" class="edge"><title>ExpTemp0&#45;&gt;Temp0: T2</title>
<path fill="none" stroke="black" d="M61.4009,-863.697C61.0703,-855.983 60.673,-846.712 60.3044,-838.112"/>
<polygon fill="black" stroke="black" points="63.8006,-837.945 59.8755,-828.104 56.807,-838.245 63.8006,-837.945"/>
</g>
<!-- ExpList2 -->
<g id="node28" class="node"><title>ExpList2</title>
<ellipse fill="none" stroke="black" cx="392.142" cy="-234" rx="42.7926" ry="18"/>
<text text-anchor="middle" x="392.142" y="-230.3" font-family="Times,serif" font-size="14.00">ExpList2</text>
</g>
<!-- ExpBinary0 -->
<g id="node29" class="node"><title>ExpBinary0</title>
<ellipse fill="none" stroke="black" cx="398.142" cy="-162" rx="53.0913" ry="18"/>
<text text-anchor="middle" x="398.142" y="-158.3" font-family="Times,serif" font-size="14.00">ExpBinary0</text>
</g>
<!-- ExpList2&#45;&gt;ExpBinary0 -->
<g id="edge18" class="edge"><title>ExpList2&#45;&gt;ExpBinary0</title>
<path fill="none" stroke="black" d="M393.626,-215.697C394.287,-207.983 395.081,-198.712 395.819,-190.112"/>
<polygon fill="black" stroke="black" points="399.309,-190.367 396.676,-180.104 392.335,-189.769 399.309,-190.367"/>
</g>
<!-- ExpBinary0&#45;&gt;ExpConst1 -->
<g id="edge36" class="edge"><title>ExpBinary0&#45;&gt;ExpConst1</title>
<path fill="none" stroke="black" d="M421.405,-145.638C436.419,-135.723 456.142,-122.698 472.565,-111.853"/>
<polygon fill="black" stroke="black" points="474.883,-114.517 481.299,-106.085 471.026,-108.675 474.883,-114.517"/>
</g>
<!-- ExpConst0 -->
<g id="node39" class="node"><title>ExpConst0</title>
<ellipse fill="none" stroke="black" cx="292.142" cy="-90" rx="50.0912" ry="18"/>
<text text-anchor="middle" x="292.142" y="-86.3" font-family="Times,serif" font-size="14.00">ExpConst0</text>
</g>
<!-- ExpBinary0&#45;&gt;ExpConst0 -->
<g id="edge34" class="edge"><title>ExpBinary0&#45;&gt;ExpConst0</title>
<path fill="none" stroke="black" d="M374.88,-145.638C359.865,-135.723 340.143,-122.698 323.719,-111.853"/>
<polygon fill="black" stroke="black" points="325.259,-108.675 314.986,-106.085 321.402,-114.517 325.259,-108.675"/>
</g>
<!-- Times0 -->
<g id="node41" class="node"><title>Times0</title>
<ellipse fill="none" stroke="black" cx="398.142" cy="-90" rx="37.8943" ry="18"/>
<text text-anchor="middle" x="398.142" y="-86.3" font-family="Times,serif" font-size="14.00">Times0</text>
</g>
<!-- ExpBinary0&#45;&gt;Times0 -->
<g id="edge35" class="edge"><title>ExpBinary0&#45;&gt;Times0</title>
<path fill="none" stroke="black" d="M398.142,-143.697C398.142,-135.983 398.142,-126.712 398.142,-118.112"/>
<polygon fill="black" stroke="black" points="401.643,-118.104 398.142,-108.104 394.643,-118.104 401.643,-118.104"/>
</g>
<!-- ExpTemp2 -->
<g id="node30" class="node"><title>ExpTemp2</title>
<ellipse fill="none" stroke="black" cx="152.142" cy="-306" rx="50.0912" ry="18"/>
<text text-anchor="middle" x="152.142" y="-302.3" font-family="Times,serif" font-size="14.00">ExpTemp2</text>
</g>
<!-- Temp2: T0 -->
<g id="node31" class="node"><title>Temp2: T0</title>
<ellipse fill="none" stroke="black" cx="149.142" cy="-234" rx="50.8918" ry="18"/>
<text text-anchor="middle" x="149.142" y="-230.3" font-family="Times,serif" font-size="14.00">Temp2: T0</text>
</g>
<!-- ExpTemp2&#45;&gt;Temp2: T0 -->
<g id="edge25" class="edge"><title>ExpTemp2&#45;&gt;Temp2: T0</title>
<path fill="none" stroke="black" d="M151.401,-287.697C151.07,-279.983 150.673,-270.712 150.304,-262.112"/>
<polygon fill="black" stroke="black" points="153.801,-261.945 149.875,-252.104 146.807,-262.245 153.801,-261.945"/>
</g>
<!-- StatMove2&#45;&gt;ExpTemp2 -->
<g id="edge26" class="edge"><title>StatMove2&#45;&gt;ExpTemp2</title>
<path fill="none" stroke="black" d="M241.178,-362.155C224.848,-352.039 203.017,-338.515 185.06,-327.391"/>
<polygon fill="black" stroke="black" points="186.417,-324.115 176.072,-321.824 182.73,-330.065 186.417,-324.115"/>
</g>
<!-- ExpCall2 -->
<g id="node33" class="node"><title>ExpCall2</title>
<ellipse fill="none" stroke="black" cx="268.142" cy="-306" rx="44.393" ry="18"/>
<text text-anchor="middle" x="268.142" y="-302.3" font-family="Times,serif" font-size="14.00">ExpCall2</text>
</g>
<!-- StatMove2&#45;&gt;ExpCall2 -->
<g id="edge27" class="edge"><title>StatMove2&#45;&gt;ExpCall2</title>
<path fill="none" stroke="black" d="M265.884,-359.697C266.215,-351.983 266.612,-342.712 266.98,-334.112"/>
<polygon fill="black" stroke="black" points="270.478,-334.245 267.409,-324.104 263.484,-333.945 270.478,-334.245"/>
</g>
<!-- ExpCall2&#45;&gt;ExpList2 -->
<g id="edge40" class="edge"><title>ExpCall2&#45;&gt;ExpList2</title>
<path fill="none" stroke="black" d="M292.938,-291.003C311.777,-280.368 337.889,-265.627 358.594,-253.939"/>
<polygon fill="black" stroke="black" points="360.403,-256.937 367.39,-248.973 356.961,-250.841 360.403,-256.937"/>
</g>
<!-- ExpName2 -->
<g id="node37" class="node"><title>ExpName2</title>
<ellipse fill="none" stroke="black" cx="268.142" cy="-234" rx="50.8918" ry="18"/>
<text text-anchor="middle" x="268.142" y="-230.3" font-family="Times,serif" font-size="14.00">ExpName2</text>
</g>
<!-- ExpCall2&#45;&gt;ExpName2 -->
<g id="edge39" class="edge"><title>ExpCall2&#45;&gt;ExpName2</title>
<path fill="none" stroke="black" d="M268.142,-287.697C268.142,-279.983 268.142,-270.712 268.142,-262.112"/>
<polygon fill="black" stroke="black" points="271.643,-262.104 268.142,-252.104 264.643,-262.104 271.643,-262.104"/>
</g>
<!-- StatSeq0 -->
<g id="node36" class="node"><title>StatSeq0</title>
<ellipse fill="none" stroke="black" cx="164.142" cy="-1170" rx="42.4939" ry="18"/>
<text text-anchor="middle" x="164.142" y="-1166.3" font-family="Times,serif" font-size="14.00">StatSeq0</text>
</g>
<!-- StatSeq0&#45;&gt;StatExp0 -->
<g id="edge31" class="edge"><title>StatSeq0&#45;&gt;StatExp0</title>
<path fill="none" stroke="black" d="M178.058,-1152.76C185.631,-1143.93 195.145,-1132.83 203.559,-1123.01"/>
<polygon fill="black" stroke="black" points="206.451,-1125.02 210.302,-1115.15 201.137,-1120.46 206.451,-1125.02"/>
</g>
<!-- StatSeq0&#45;&gt;StatLabel0 -->
<g id="edge30" class="edge"><title>StatSeq0&#45;&gt;StatLabel0</title>
<path fill="none" stroke="black" d="M150.226,-1152.76C142.762,-1144.06 133.411,-1133.15 125.087,-1123.43"/>
<polygon fill="black" stroke="black" points="127.565,-1120.95 118.4,-1115.63 122.25,-1125.5 127.565,-1120.95"/>
</g>
<!-- Label3: malloc -->
<g id="node38" class="node"><title>Label3: malloc</title>
<ellipse fill="none" stroke="black" cx="262.142" cy="-162" rx="64.189" ry="18"/>
<text text-anchor="middle" x="262.142" y="-158.3" font-family="Times,serif" font-size="14.00">Label3: malloc</text>
</g>
<!-- ExpName2&#45;&gt;Label3: malloc -->
<g id="edge32" class="edge"><title>ExpName2&#45;&gt;Label3: malloc</title>
<path fill="none" stroke="black" d="M266.659,-215.697C265.998,-207.983 265.204,-198.712 264.466,-190.112"/>
<polygon fill="black" stroke="black" points="267.95,-189.769 263.609,-180.104 260.975,-190.367 267.95,-189.769"/>
</g>
<!-- Value0: 0 -->
<g id="node40" class="node"><title>Value0: 0</title>
<ellipse fill="none" stroke="black" cx="292.142" cy="-18" rx="45.4919" ry="18"/>
<text text-anchor="middle" x="292.142" y="-14.3" font-family="Times,serif" font-size="14.00">Value0: 0</text>
</g>
<!-- ExpConst0&#45;&gt;Value0: 0 -->
<g id="edge33" class="edge"><title>ExpConst0&#45;&gt;Value0: 0</title>
<path fill="none" stroke="black" d="M292.142,-71.6966C292.142,-63.9827 292.142,-54.7125 292.142,-46.1124"/>
<polygon fill="black" stroke="black" points="295.643,-46.1043 292.142,-36.1043 288.643,-46.1044 295.643,-46.1043"/>
</g>
</g>
</svg>
