<?xml version="1.0" encoding="UTF-8" standalone="no"?>
<!DOCTYPE svg PUBLIC "-//W3C//DTD SVG 1.1//EN"
 "http://www.w3.org/Graphics/SVG/1.1/DTD/svg11.dtd">
<!-- Generated by graphviz version 2.38.0 (20140413.2041)
 -->
<!-- Title: %3 Pages: 1 -->
<svg width="486pt" height="548pt"
 viewBox="0.00 0.00 486.14 548.00" xmlns="http://www.w3.org/2000/svg" xmlns:xlink="http://www.w3.org/1999/xlink">
<g id="graph0" class="graph" transform="scale(1 1) rotate(0) translate(4 544)">
<title>%3</title>
<polygon fill="white" stroke="none" points="-4,4 -4,-544 482.136,-544 482.136,4 -4,4"/>
<!-- ExpList0 -->
<g id="node1" class="node"><title>ExpList0</title>
<ellipse fill="none" stroke="black" cx="347.09" cy="-306" rx="42.7926" ry="18"/>
<text text-anchor="middle" x="347.09" y="-302.3" font-family="Times,serif" font-size="14.00">ExpList0</text>
</g>
<!-- ExpCall1 -->
<g id="node2" class="node"><title>ExpCall1</title>
<ellipse fill="none" stroke="black" cx="349.09" cy="-234" rx="44.393" ry="18"/>
<text text-anchor="middle" x="349.09" y="-230.3" font-family="Times,serif" font-size="14.00">ExpCall1</text>
</g>
<!-- ExpList0&#45;&gt;ExpCall1 -->
<g id="edge1" class="edge"><title>ExpList0&#45;&gt;ExpCall1</title>
<path fill="none" stroke="black" d="M347.584,-287.697C347.805,-279.983 348.07,-270.712 348.315,-262.112"/>
<polygon fill="black" stroke="black" points="351.814,-262.2 348.601,-252.104 344.817,-262 351.814,-262.2"/>
</g>
<!-- ExpList1 -->
<g id="node3" class="node"><title>ExpList1</title>
<ellipse fill="none" stroke="black" cx="420.09" cy="-162" rx="42.7926" ry="18"/>
<text text-anchor="middle" x="420.09" y="-158.3" font-family="Times,serif" font-size="14.00">ExpList1</text>
</g>
<!-- ExpCall1&#45;&gt;ExpList1 -->
<g id="edge4" class="edge"><title>ExpCall1&#45;&gt;ExpList1</title>
<path fill="none" stroke="black" d="M365.201,-217.116C374.551,-207.897 386.49,-196.127 396.843,-185.919"/>
<polygon fill="black" stroke="black" points="399.379,-188.334 404.043,-178.821 394.464,-183.35 399.379,-188.334"/>
</g>
<!-- ExpName1 -->
<g id="node5" class="node"><title>ExpName1</title>
<ellipse fill="none" stroke="black" cx="293.09" cy="-162" rx="50.8918" ry="18"/>
<text text-anchor="middle" x="293.09" y="-158.3" font-family="Times,serif" font-size="14.00">ExpName1</text>
</g>
<!-- ExpCall1&#45;&gt;ExpName1 -->
<g id="edge3" class="edge"><title>ExpCall1&#45;&gt;ExpName1</title>
<path fill="none" stroke="black" d="M336.102,-216.765C329.204,-208.143 320.582,-197.365 312.871,-187.727"/>
<polygon fill="black" stroke="black" points="315.377,-185.256 306.397,-179.633 309.911,-189.629 315.377,-185.256"/>
</g>
<!-- ExpConst0 -->
<g id="node4" class="node"><title>ExpConst0</title>
<ellipse fill="none" stroke="black" cx="428.09" cy="-90" rx="50.0912" ry="18"/>
<text text-anchor="middle" x="428.09" y="-86.3" font-family="Times,serif" font-size="14.00">ExpConst0</text>
</g>
<!-- ExpList1&#45;&gt;ExpConst0 -->
<g id="edge2" class="edge"><title>ExpList1&#45;&gt;ExpConst0</title>
<path fill="none" stroke="black" d="M422.067,-143.697C422.949,-135.983 424.009,-126.712 424.991,-118.112"/>
<polygon fill="black" stroke="black" points="428.477,-118.437 426.135,-108.104 421.522,-117.642 428.477,-118.437"/>
</g>
<!-- Value0: 10 -->
<g id="node9" class="node"><title>Value0: 10</title>
<ellipse fill="none" stroke="black" cx="428.09" cy="-18" rx="50.0912" ry="18"/>
<text text-anchor="middle" x="428.09" y="-14.3" font-family="Times,serif" font-size="14.00">Value0: 10</text>
</g>
<!-- ExpConst0&#45;&gt;Value0: 10 -->
<g id="edge7" class="edge"><title>ExpConst0&#45;&gt;Value0: 10</title>
<path fill="none" stroke="black" d="M428.09,-71.6966C428.09,-63.9827 428.09,-54.7125 428.09,-46.1124"/>
<polygon fill="black" stroke="black" points="431.59,-46.1043 428.09,-36.1043 424.59,-46.1044 431.59,-46.1043"/>
</g>
<!-- Label2: LS@Start -->
<g id="node6" class="node"><title>Label2: LS@Start</title>
<ellipse fill="none" stroke="black" cx="285.09" cy="-90" rx="75.2868" ry="18"/>
<text text-anchor="middle" x="285.09" y="-86.3" font-family="Times,serif" font-size="14.00">Label2: LS@Start</text>
</g>
<!-- ExpName1&#45;&gt;Label2: LS@Start -->
<g id="edge5" class="edge"><title>ExpName1&#45;&gt;Label2: LS@Start</title>
<path fill="none" stroke="black" d="M291.112,-143.697C290.231,-135.983 289.171,-126.712 288.189,-118.112"/>
<polygon fill="black" stroke="black" points="291.658,-117.642 287.045,-108.104 284.703,-118.437 291.658,-117.642"/>
</g>
<!-- StatExp0 -->
<g id="node7" class="node"><title>StatExp0</title>
<ellipse fill="none" stroke="black" cx="271.09" cy="-450" rx="42.7926" ry="18"/>
<text text-anchor="middle" x="271.09" y="-446.3" font-family="Times,serif" font-size="14.00">StatExp0</text>
</g>
<!-- ExpCall0 -->
<g id="node8" class="node"><title>ExpCall0</title>
<ellipse fill="none" stroke="black" cx="288.09" cy="-378" rx="44.393" ry="18"/>
<text text-anchor="middle" x="288.09" y="-374.3" font-family="Times,serif" font-size="14.00">ExpCall0</text>
</g>
<!-- StatExp0&#45;&gt;ExpCall0 -->
<g id="edge6" class="edge"><title>StatExp0&#45;&gt;ExpCall0</title>
<path fill="none" stroke="black" d="M275.205,-432.055C277.098,-424.261 279.39,-414.822 281.514,-406.079"/>
<polygon fill="black" stroke="black" points="284.936,-406.819 283.895,-396.275 278.133,-405.167 284.936,-406.819"/>
</g>
<!-- ExpCall0&#45;&gt;ExpList0 -->
<g id="edge10" class="edge"><title>ExpCall0&#45;&gt;ExpList0</title>
<path fill="none" stroke="black" d="M301.774,-360.765C309.221,-351.93 318.576,-340.83 326.85,-331.014"/>
<polygon fill="black" stroke="black" points="329.712,-333.049 333.48,-323.147 324.359,-328.538 329.712,-333.049"/>
</g>
<!-- ExpName0 -->
<g id="node12" class="node"><title>ExpName0</title>
<ellipse fill="none" stroke="black" cx="232.09" cy="-306" rx="50.8918" ry="18"/>
<text text-anchor="middle" x="232.09" y="-302.3" font-family="Times,serif" font-size="14.00">ExpName0</text>
</g>
<!-- ExpCall0&#45;&gt;ExpName0 -->
<g id="edge9" class="edge"><title>ExpCall0&#45;&gt;ExpName0</title>
<path fill="none" stroke="black" d="M275.102,-360.765C268.204,-352.143 259.582,-341.365 251.871,-331.727"/>
<polygon fill="black" stroke="black" points="254.377,-329.256 245.397,-323.633 248.911,-333.629 254.377,-329.256"/>
</g>
<!-- StatLabel0 -->
<g id="node10" class="node"><title>StatLabel0</title>
<ellipse fill="none" stroke="black" cx="145.09" cy="-450" rx="48.9926" ry="18"/>
<text text-anchor="middle" x="145.09" y="-446.3" font-family="Times,serif" font-size="14.00">StatLabel0</text>
</g>
<!-- Label0: LinearSearch@main -->
<g id="node11" class="node"><title>Label0: LinearSearch@main</title>
<ellipse fill="none" stroke="black" cx="113.09" cy="-378" rx="113.18" ry="18"/>
<text text-anchor="middle" x="113.09" y="-374.3" font-family="Times,serif" font-size="14.00">Label0: LinearSearch@main</text>
</g>
<!-- StatLabel0&#45;&gt;Label0: LinearSearch@main -->
<g id="edge8" class="edge"><title>StatLabel0&#45;&gt;Label0: LinearSearch@main</title>
<path fill="none" stroke="black" d="M137.344,-432.055C133.703,-424.091 129.278,-414.411 125.209,-405.51"/>
<polygon fill="black" stroke="black" points="128.328,-403.915 120.987,-396.275 121.962,-406.825 128.328,-403.915"/>
</g>
<!-- Label1: print -->
<g id="node14" class="node"><title>Label1: print</title>
<ellipse fill="none" stroke="black" cx="230.09" cy="-234" rx="56.59" ry="18"/>
<text text-anchor="middle" x="230.09" y="-230.3" font-family="Times,serif" font-size="14.00">Label1: print</text>
</g>
<!-- ExpName0&#45;&gt;Label1: print -->
<g id="edge13" class="edge"><title>ExpName0&#45;&gt;Label1: print</title>
<path fill="none" stroke="black" d="M231.596,-287.697C231.375,-279.983 231.11,-270.712 230.865,-262.112"/>
<polygon fill="black" stroke="black" points="234.363,-262 230.579,-252.104 227.366,-262.2 234.363,-262"/>
</g>
<!-- StatSeq0 -->
<g id="node13" class="node"><title>StatSeq0</title>
<ellipse fill="none" stroke="black" cx="208.09" cy="-522" rx="42.4939" ry="18"/>
<text text-anchor="middle" x="208.09" y="-518.3" font-family="Times,serif" font-size="14.00">StatSeq0</text>
</g>
<!-- StatSeq0&#45;&gt;StatExp0 -->
<g id="edge12" class="edge"><title>StatSeq0&#45;&gt;StatExp0</title>
<path fill="none" stroke="black" d="M222.702,-504.765C230.733,-495.841 240.843,-484.608 249.743,-474.719"/>
<polygon fill="black" stroke="black" points="252.469,-476.922 256.557,-467.147 247.266,-472.239 252.469,-476.922"/>
</g>
<!-- StatSeq0&#45;&gt;StatLabel0 -->
<g id="edge11" class="edge"><title>StatSeq0&#45;&gt;StatLabel0</title>
<path fill="none" stroke="black" d="M193.478,-504.765C185.562,-495.969 175.625,-484.928 166.82,-475.144"/>
<polygon fill="black" stroke="black" points="169.351,-472.725 160.06,-467.633 164.148,-477.408 169.351,-472.725"/>
</g>
</g>
</svg>
