<?xml version="1.0" encoding="UTF-8" standalone="no"?>
<!DOCTYPE svg PUBLIC "-//W3C//DTD SVG 1.1//EN"
 "http://www.w3.org/Graphics/SVG/1.1/DTD/svg11.dtd">
<!-- Generated by graphviz version 2.38.0 (20140413.2041)
 -->
<!-- Title: %3 Pages: 1 -->
<svg width="632pt" height="1124pt"
 viewBox="0.00 0.00 632.14 1124.00" xmlns="http://www.w3.org/2000/svg" xmlns:xlink="http://www.w3.org/1999/xlink">
<g id="graph0" class="graph" transform="scale(1 1) rotate(0) translate(4 1120)">
<title>%3</title>
<polygon fill="white" stroke="none" points="-4,4 -4,-1120 628.136,-1120 628.136,4 -4,4"/>
<!-- StatExp0 -->
<g id="node1" class="node"><title>StatExp0</title>
<ellipse fill="none" stroke="black" cx="405.09" cy="-954" rx="42.7926" ry="18"/>
<text text-anchor="middle" x="405.09" y="-950.3" font-family="Times,serif" font-size="14.00">StatExp0</text>
</g>
<!-- ExpTemp5 -->
<g id="node2" class="node"><title>ExpTemp5</title>
<ellipse fill="none" stroke="black" cx="462.09" cy="-882" rx="50.0912" ry="18"/>
<text text-anchor="middle" x="462.09" y="-878.3" font-family="Times,serif" font-size="14.00">ExpTemp5</text>
</g>
<!-- StatExp0&#45;&gt;ExpTemp5 -->
<g id="edge1" class="edge"><title>StatExp0&#45;&gt;ExpTemp5</title>
<path fill="none" stroke="black" d="M418.31,-936.765C425.402,-928.056 434.285,-917.147 442.193,-907.435"/>
<polygon fill="black" stroke="black" points="444.945,-909.598 448.546,-899.633 439.517,-905.178 444.945,-909.598"/>
</g>
<!-- Temp5: T3 -->
<g id="node34" class="node"><title>Temp5: T3</title>
<ellipse fill="none" stroke="black" cx="490.09" cy="-810" rx="50.8918" ry="18"/>
<text text-anchor="middle" x="490.09" y="-806.3" font-family="Times,serif" font-size="14.00">Temp5: T3</text>
</g>
<!-- ExpTemp5&#45;&gt;Temp5: T3 -->
<g id="edge26" class="edge"><title>ExpTemp5&#45;&gt;Temp5: T3</title>
<path fill="none" stroke="black" d="M468.868,-864.055C472.019,-856.176 475.843,-846.617 479.372,-837.794"/>
<polygon fill="black" stroke="black" points="482.716,-838.86 483.18,-828.275 476.216,-836.26 482.716,-838.86"/>
</g>
<!-- ExpList0 -->
<g id="node3" class="node"><title>ExpList0</title>
<ellipse fill="none" stroke="black" cx="378.09" cy="-810" rx="42.7926" ry="18"/>
<text text-anchor="middle" x="378.09" y="-806.3" font-family="Times,serif" font-size="14.00">ExpList0</text>
</g>
<!-- ExpEseq0 -->
<g id="node4" class="node"><title>ExpEseq0</title>
<ellipse fill="none" stroke="black" cx="383.09" cy="-738" rx="46.2923" ry="18"/>
<text text-anchor="middle" x="383.09" y="-734.3" font-family="Times,serif" font-size="14.00">ExpEseq0</text>
</g>
<!-- ExpList0&#45;&gt;ExpEseq0 -->
<g id="edge2" class="edge"><title>ExpList0&#45;&gt;ExpEseq0</title>
<path fill="none" stroke="black" d="M379.326,-791.697C379.877,-783.983 380.539,-774.712 381.153,-766.112"/>
<polygon fill="black" stroke="black" points="384.647,-766.328 381.868,-756.104 377.665,-765.83 384.647,-766.328"/>
</g>
<!-- ExpTemp4 -->
<g id="node5" class="node"><title>ExpTemp4</title>
<ellipse fill="none" stroke="black" cx="442.09" cy="-666" rx="50.0912" ry="18"/>
<text text-anchor="middle" x="442.09" y="-662.3" font-family="Times,serif" font-size="14.00">ExpTemp4</text>
</g>
<!-- ExpEseq0&#45;&gt;ExpTemp4 -->
<g id="edge5" class="edge"><title>ExpEseq0&#45;&gt;ExpTemp4</title>
<path fill="none" stroke="black" d="M396.774,-720.765C404.114,-712.056 413.309,-701.147 421.495,-691.435"/>
<polygon fill="black" stroke="black" points="424.302,-693.535 428.07,-683.633 418.949,-689.024 424.302,-693.535"/>
</g>
<!-- StatMove1 -->
<g id="node7" class="node"><title>StatMove1</title>
<ellipse fill="none" stroke="black" cx="324.09" cy="-666" rx="50.0912" ry="18"/>
<text text-anchor="middle" x="324.09" y="-662.3" font-family="Times,serif" font-size="14.00">StatMove1</text>
</g>
<!-- ExpEseq0&#45;&gt;StatMove1 -->
<g id="edge4" class="edge"><title>ExpEseq0&#45;&gt;StatMove1</title>
<path fill="none" stroke="black" d="M369.406,-720.765C362.066,-712.056 352.871,-701.147 344.685,-691.435"/>
<polygon fill="black" stroke="black" points="347.231,-689.024 338.11,-683.633 341.878,-693.535 347.231,-689.024"/>
</g>
<!-- Temp4: T2 -->
<g id="node6" class="node"><title>Temp4: T2</title>
<ellipse fill="none" stroke="black" cx="442.09" cy="-594" rx="50.8918" ry="18"/>
<text text-anchor="middle" x="442.09" y="-590.3" font-family="Times,serif" font-size="14.00">Temp4: T2</text>
</g>
<!-- ExpTemp4&#45;&gt;Temp4: T2 -->
<g id="edge3" class="edge"><title>ExpTemp4&#45;&gt;Temp4: T2</title>
<path fill="none" stroke="black" d="M442.09,-647.697C442.09,-639.983 442.09,-630.712 442.09,-622.112"/>
<polygon fill="black" stroke="black" points="445.59,-622.104 442.09,-612.104 438.59,-622.104 445.59,-622.104"/>
</g>
<!-- ExpTemp1 -->
<g id="node10" class="node"><title>ExpTemp1</title>
<ellipse fill="none" stroke="black" cx="211.09" cy="-594" rx="50.0912" ry="18"/>
<text text-anchor="middle" x="211.09" y="-590.3" font-family="Times,serif" font-size="14.00">ExpTemp1</text>
</g>
<!-- StatMove1&#45;&gt;ExpTemp1 -->
<g id="edge7" class="edge"><title>StatMove1&#45;&gt;ExpTemp1</title>
<path fill="none" stroke="black" d="M300.126,-650.155C283.796,-640.039 261.965,-626.515 244.008,-615.391"/>
<polygon fill="black" stroke="black" points="245.364,-612.115 235.02,-609.824 241.678,-618.065 245.364,-612.115"/>
</g>
<!-- ExpCall1 -->
<g id="node11" class="node"><title>ExpCall1</title>
<ellipse fill="none" stroke="black" cx="327.09" cy="-594" rx="44.393" ry="18"/>
<text text-anchor="middle" x="327.09" y="-590.3" font-family="Times,serif" font-size="14.00">ExpCall1</text>
</g>
<!-- StatMove1&#45;&gt;ExpCall1 -->
<g id="edge8" class="edge"><title>StatMove1&#45;&gt;ExpCall1</title>
<path fill="none" stroke="black" d="M324.832,-647.697C325.162,-639.983 325.559,-630.712 325.928,-622.112"/>
<polygon fill="black" stroke="black" points="329.425,-622.245 326.357,-612.104 322.432,-621.945 329.425,-622.245"/>
</g>
<!-- ExpName1 -->
<g id="node8" class="node"><title>ExpName1</title>
<ellipse fill="none" stroke="black" cx="327.09" cy="-522" rx="50.8918" ry="18"/>
<text text-anchor="middle" x="327.09" y="-518.3" font-family="Times,serif" font-size="14.00">ExpName1</text>
</g>
<!-- Label2: LS@Start -->
<g id="node9" class="node"><title>Label2: LS@Start</title>
<ellipse fill="none" stroke="black" cx="313.09" cy="-450" rx="75.2868" ry="18"/>
<text text-anchor="middle" x="313.09" y="-446.3" font-family="Times,serif" font-size="14.00">Label2: LS@Start</text>
</g>
<!-- ExpName1&#45;&gt;Label2: LS@Start -->
<g id="edge6" class="edge"><title>ExpName1&#45;&gt;Label2: LS@Start</title>
<path fill="none" stroke="black" d="M323.629,-503.697C322.087,-495.983 320.232,-486.712 318.512,-478.112"/>
<polygon fill="black" stroke="black" points="321.904,-477.224 316.511,-468.104 315.04,-478.597 321.904,-477.224"/>
</g>
<!-- Temp1: T2 -->
<g id="node35" class="node"><title>Temp1: T2</title>
<ellipse fill="none" stroke="black" cx="208.09" cy="-522" rx="50.8918" ry="18"/>
<text text-anchor="middle" x="208.09" y="-518.3" font-family="Times,serif" font-size="14.00">Temp1: T2</text>
</g>
<!-- ExpTemp1&#45;&gt;Temp1: T2 -->
<g id="edge27" class="edge"><title>ExpTemp1&#45;&gt;Temp1: T2</title>
<path fill="none" stroke="black" d="M210.348,-575.697C210.018,-567.983 209.62,-558.712 209.252,-550.112"/>
<polygon fill="black" stroke="black" points="212.748,-549.945 208.823,-540.104 205.754,-550.245 212.748,-549.945"/>
</g>
<!-- ExpCall1&#45;&gt;ExpName1 -->
<g id="edge21" class="edge"><title>ExpCall1&#45;&gt;ExpName1</title>
<path fill="none" stroke="black" d="M327.09,-575.697C327.09,-567.983 327.09,-558.712 327.09,-550.112"/>
<polygon fill="black" stroke="black" points="330.59,-550.104 327.09,-540.104 323.59,-550.104 330.59,-550.104"/>
</g>
<!-- ExpList1 -->
<g id="node16" class="node"><title>ExpList1</title>
<ellipse fill="none" stroke="black" cx="453.09" cy="-522" rx="42.7926" ry="18"/>
<text text-anchor="middle" x="453.09" y="-518.3" font-family="Times,serif" font-size="14.00">ExpList1</text>
</g>
<!-- ExpCall1&#45;&gt;ExpList1 -->
<g id="edge22" class="edge"><title>ExpCall1&#45;&gt;ExpList1</title>
<path fill="none" stroke="black" d="M352.285,-579.003C371.553,-568.298 398.308,-553.434 419.412,-541.71"/>
<polygon fill="black" stroke="black" points="421.326,-544.651 428.368,-536.734 417.927,-538.531 421.326,-544.651"/>
</g>
<!-- StatSeq1 -->
<g id="node12" class="node"><title>StatSeq1</title>
<ellipse fill="none" stroke="black" cx="294.09" cy="-1026" rx="42.4939" ry="18"/>
<text text-anchor="middle" x="294.09" y="-1022.3" font-family="Times,serif" font-size="14.00">StatSeq1</text>
</g>
<!-- StatSeq1&#45;&gt;StatExp0 -->
<g id="edge10" class="edge"><title>StatSeq1&#45;&gt;StatExp0</title>
<path fill="none" stroke="black" d="M316.82,-1010.67C333.282,-1000.28 355.735,-986.125 373.876,-974.685"/>
<polygon fill="black" stroke="black" points="375.798,-977.61 382.39,-969.315 372.064,-971.689 375.798,-977.61"/>
</g>
<!-- StatMove0 -->
<g id="node13" class="node"><title>StatMove0</title>
<ellipse fill="none" stroke="black" cx="294.09" cy="-954" rx="50.0912" ry="18"/>
<text text-anchor="middle" x="294.09" y="-950.3" font-family="Times,serif" font-size="14.00">StatMove0</text>
</g>
<!-- StatSeq1&#45;&gt;StatMove0 -->
<g id="edge9" class="edge"><title>StatSeq1&#45;&gt;StatMove0</title>
<path fill="none" stroke="black" d="M294.09,-1007.7C294.09,-999.983 294.09,-990.712 294.09,-982.112"/>
<polygon fill="black" stroke="black" points="297.59,-982.104 294.09,-972.104 290.59,-982.104 297.59,-982.104"/>
</g>
<!-- ExpCall0 -->
<g id="node19" class="node"><title>ExpCall0</title>
<ellipse fill="none" stroke="black" cx="294.09" cy="-882" rx="44.393" ry="18"/>
<text text-anchor="middle" x="294.09" y="-878.3" font-family="Times,serif" font-size="14.00">ExpCall0</text>
</g>
<!-- StatMove0&#45;&gt;ExpCall0 -->
<g id="edge36" class="edge"><title>StatMove0&#45;&gt;ExpCall0</title>
<path fill="none" stroke="black" d="M294.09,-935.697C294.09,-927.983 294.09,-918.712 294.09,-910.112"/>
<polygon fill="black" stroke="black" points="297.59,-910.104 294.09,-900.104 290.59,-910.104 297.59,-910.104"/>
</g>
<!-- ExpTemp0 -->
<g id="node26" class="node"><title>ExpTemp0</title>
<ellipse fill="none" stroke="black" cx="179.09" cy="-882" rx="50.0912" ry="18"/>
<text text-anchor="middle" x="179.09" y="-878.3" font-family="Times,serif" font-size="14.00">ExpTemp0</text>
</g>
<!-- StatMove0&#45;&gt;ExpTemp0 -->
<g id="edge35" class="edge"><title>StatMove0&#45;&gt;ExpTemp0</title>
<path fill="none" stroke="black" d="M269.701,-938.155C252.93,-927.946 230.457,-914.267 212.088,-903.086"/>
<polygon fill="black" stroke="black" points="213.805,-900.034 203.443,-897.824 210.166,-906.013 213.805,-900.034"/>
</g>
<!-- ExpConst1 -->
<g id="node14" class="node"><title>ExpConst1</title>
<ellipse fill="none" stroke="black" cx="574.09" cy="-90" rx="50.0912" ry="18"/>
<text text-anchor="middle" x="574.09" y="-86.3" font-family="Times,serif" font-size="14.00">ExpConst1</text>
</g>
<!-- Value1: 4 -->
<g id="node15" class="node"><title>Value1: 4</title>
<ellipse fill="none" stroke="black" cx="574.09" cy="-18" rx="45.4919" ry="18"/>
<text text-anchor="middle" x="574.09" y="-14.3" font-family="Times,serif" font-size="14.00">Value1: 4</text>
</g>
<!-- ExpConst1&#45;&gt;Value1: 4 -->
<g id="edge11" class="edge"><title>ExpConst1&#45;&gt;Value1: 4</title>
<path fill="none" stroke="black" d="M574.09,-71.6966C574.09,-63.9827 574.09,-54.7125 574.09,-46.1124"/>
<polygon fill="black" stroke="black" points="577.59,-46.1043 574.09,-36.1043 570.59,-46.1044 577.59,-46.1043"/>
</g>
<!-- ExpEseq1 -->
<g id="node17" class="node"><title>ExpEseq1</title>
<ellipse fill="none" stroke="black" cx="453.09" cy="-450" rx="46.2923" ry="18"/>
<text text-anchor="middle" x="453.09" y="-446.3" font-family="Times,serif" font-size="14.00">ExpEseq1</text>
</g>
<!-- ExpList1&#45;&gt;ExpEseq1 -->
<g id="edge12" class="edge"><title>ExpList1&#45;&gt;ExpEseq1</title>
<path fill="none" stroke="black" d="M453.09,-503.697C453.09,-495.983 453.09,-486.712 453.09,-478.112"/>
<polygon fill="black" stroke="black" points="456.59,-478.104 453.09,-468.104 449.59,-478.104 456.59,-478.104"/>
</g>
<!-- ExpConst2 -->
<g id="node18" class="node"><title>ExpConst2</title>
<ellipse fill="none" stroke="black" cx="569.09" cy="-450" rx="50.0912" ry="18"/>
<text text-anchor="middle" x="569.09" y="-446.3" font-family="Times,serif" font-size="14.00">ExpConst2</text>
</g>
<!-- ExpList1&#45;&gt;ExpConst2 -->
<g id="edge13" class="edge"><title>ExpList1&#45;&gt;ExpConst2</title>
<path fill="none" stroke="black" d="M476.564,-506.834C493.595,-496.557 516.871,-482.511 535.816,-471.079"/>
<polygon fill="black" stroke="black" points="537.696,-474.033 544.449,-465.869 534.079,-468.039 537.696,-474.033"/>
</g>
<!-- ExpTemp3 -->
<g id="node24" class="node"><title>ExpTemp3</title>
<ellipse fill="none" stroke="black" cx="453.09" cy="-378" rx="50.0912" ry="18"/>
<text text-anchor="middle" x="453.09" y="-374.3" font-family="Times,serif" font-size="14.00">ExpTemp3</text>
</g>
<!-- ExpEseq1&#45;&gt;ExpTemp3 -->
<g id="edge38" class="edge"><title>ExpEseq1&#45;&gt;ExpTemp3</title>
<path fill="none" stroke="black" d="M453.09,-431.697C453.09,-423.983 453.09,-414.712 453.09,-406.112"/>
<polygon fill="black" stroke="black" points="456.59,-406.104 453.09,-396.104 449.59,-406.104 456.59,-406.104"/>
</g>
<!-- StatMove2 -->
<g id="node32" class="node"><title>StatMove2</title>
<ellipse fill="none" stroke="black" cx="335.09" cy="-378" rx="50.0912" ry="18"/>
<text text-anchor="middle" x="335.09" y="-374.3" font-family="Times,serif" font-size="14.00">StatMove2</text>
</g>
<!-- ExpEseq1&#45;&gt;StatMove2 -->
<g id="edge37" class="edge"><title>ExpEseq1&#45;&gt;StatMove2</title>
<path fill="none" stroke="black" d="M428.64,-434.496C411.274,-424.194 387.741,-410.234 368.623,-398.893"/>
<polygon fill="black" stroke="black" points="370.301,-395.818 359.914,-393.726 366.729,-401.839 370.301,-395.818"/>
</g>
<!-- Value2: 10 -->
<g id="node42" class="node"><title>Value2: 10</title>
<ellipse fill="none" stroke="black" cx="571.09" cy="-378" rx="50.0912" ry="18"/>
<text text-anchor="middle" x="571.09" y="-374.3" font-family="Times,serif" font-size="14.00">Value2: 10</text>
</g>
<!-- ExpConst2&#45;&gt;Value2: 10 -->
<g id="edge41" class="edge"><title>ExpConst2&#45;&gt;Value2: 10</title>
<path fill="none" stroke="black" d="M569.584,-431.697C569.805,-423.983 570.07,-414.712 570.315,-406.112"/>
<polygon fill="black" stroke="black" points="573.814,-406.2 570.601,-396.104 566.817,-406 573.814,-406.2"/>
</g>
<!-- ExpCall0&#45;&gt;ExpList0 -->
<g id="edge15" class="edge"><title>ExpCall0&#45;&gt;ExpList0</title>
<path fill="none" stroke="black" d="M312.732,-865.465C324.151,-855.949 338.948,-843.619 351.574,-833.097"/>
<polygon fill="black" stroke="black" points="354.058,-835.583 359.5,-826.492 349.577,-830.205 354.058,-835.583"/>
</g>
<!-- ExpName0 -->
<g id="node20" class="node"><title>ExpName0</title>
<ellipse fill="none" stroke="black" cx="266.09" cy="-810" rx="50.8918" ry="18"/>
<text text-anchor="middle" x="266.09" y="-806.3" font-family="Times,serif" font-size="14.00">ExpName0</text>
</g>
<!-- ExpCall0&#45;&gt;ExpName0 -->
<g id="edge14" class="edge"><title>ExpCall0&#45;&gt;ExpName0</title>
<path fill="none" stroke="black" d="M287.312,-864.055C284.16,-856.176 280.337,-846.617 276.808,-837.794"/>
<polygon fill="black" stroke="black" points="279.964,-836.26 273,-828.275 273.464,-838.86 279.964,-836.26"/>
</g>
<!-- Label1: print -->
<g id="node21" class="node"><title>Label1: print</title>
<ellipse fill="none" stroke="black" cx="262.09" cy="-738" rx="56.59" ry="18"/>
<text text-anchor="middle" x="262.09" y="-734.3" font-family="Times,serif" font-size="14.00">Label1: print</text>
</g>
<!-- ExpName0&#45;&gt;Label1: print -->
<g id="edge16" class="edge"><title>ExpName0&#45;&gt;Label1: print</title>
<path fill="none" stroke="black" d="M265.101,-791.697C264.66,-783.983 264.131,-774.712 263.639,-766.112"/>
<polygon fill="black" stroke="black" points="267.132,-765.888 263.067,-756.104 260.144,-766.288 267.132,-765.888"/>
</g>
<!-- StatLabel0 -->
<g id="node22" class="node"><title>StatLabel0</title>
<ellipse fill="none" stroke="black" cx="149.09" cy="-1026" rx="48.9926" ry="18"/>
<text text-anchor="middle" x="149.09" y="-1022.3" font-family="Times,serif" font-size="14.00">StatLabel0</text>
</g>
<!-- Label0: LinearSearch@main -->
<g id="node23" class="node"><title>Label0: LinearSearch@main</title>
<ellipse fill="none" stroke="black" cx="113.09" cy="-954" rx="113.18" ry="18"/>
<text text-anchor="middle" x="113.09" y="-950.3" font-family="Times,serif" font-size="14.00">Label0: LinearSearch@main</text>
</g>
<!-- StatLabel0&#45;&gt;Label0: LinearSearch@main -->
<g id="edge17" class="edge"><title>StatLabel0&#45;&gt;Label0: LinearSearch@main</title>
<path fill="none" stroke="black" d="M140.375,-1008.05C136.236,-1000.01 131.195,-990.205 126.578,-981.226"/>
<polygon fill="black" stroke="black" points="129.66,-979.567 121.974,-972.275 123.435,-982.769 129.66,-979.567"/>
</g>
<!-- Temp3: T1 -->
<g id="node25" class="node"><title>Temp3: T1</title>
<ellipse fill="none" stroke="black" cx="453.09" cy="-306" rx="50.8918" ry="18"/>
<text text-anchor="middle" x="453.09" y="-302.3" font-family="Times,serif" font-size="14.00">Temp3: T1</text>
</g>
<!-- ExpTemp3&#45;&gt;Temp3: T1 -->
<g id="edge18" class="edge"><title>ExpTemp3&#45;&gt;Temp3: T1</title>
<path fill="none" stroke="black" d="M453.09,-359.697C453.09,-351.983 453.09,-342.712 453.09,-334.112"/>
<polygon fill="black" stroke="black" points="456.59,-334.104 453.09,-324.104 449.59,-334.104 456.59,-334.104"/>
</g>
<!-- Temp0: T3 -->
<g id="node27" class="node"><title>Temp0: T3</title>
<ellipse fill="none" stroke="black" cx="147.09" cy="-810" rx="50.8918" ry="18"/>
<text text-anchor="middle" x="147.09" y="-806.3" font-family="Times,serif" font-size="14.00">Temp0: T3</text>
</g>
<!-- ExpTemp0&#45;&gt;Temp0: T3 -->
<g id="edge19" class="edge"><title>ExpTemp0&#45;&gt;Temp0: T3</title>
<path fill="none" stroke="black" d="M171.344,-864.055C167.703,-856.091 163.278,-846.411 159.209,-837.51"/>
<polygon fill="black" stroke="black" points="162.328,-835.915 154.987,-828.275 155.962,-838.825 162.328,-835.915"/>
</g>
<!-- ExpList2 -->
<g id="node28" class="node"><title>ExpList2</title>
<ellipse fill="none" stroke="black" cx="462.09" cy="-234" rx="42.7926" ry="18"/>
<text text-anchor="middle" x="462.09" y="-230.3" font-family="Times,serif" font-size="14.00">ExpList2</text>
</g>
<!-- ExpBinary0 -->
<g id="node29" class="node"><title>ExpBinary0</title>
<ellipse fill="none" stroke="black" cx="468.09" cy="-162" rx="53.0913" ry="18"/>
<text text-anchor="middle" x="468.09" y="-158.3" font-family="Times,serif" font-size="14.00">ExpBinary0</text>
</g>
<!-- ExpList2&#45;&gt;ExpBinary0 -->
<g id="edge20" class="edge"><title>ExpList2&#45;&gt;ExpBinary0</title>
<path fill="none" stroke="black" d="M463.573,-215.697C464.234,-207.983 465.029,-198.712 465.766,-190.112"/>
<polygon fill="black" stroke="black" points="469.257,-190.367 466.624,-180.104 462.283,-189.769 469.257,-190.367"/>
</g>
<!-- ExpBinary0&#45;&gt;ExpConst1 -->
<g id="edge34" class="edge"><title>ExpBinary0&#45;&gt;ExpConst1</title>
<path fill="none" stroke="black" d="M491.352,-145.638C506.367,-135.723 526.09,-122.698 542.513,-111.853"/>
<polygon fill="black" stroke="black" points="544.831,-114.517 551.247,-106.085 540.973,-108.675 544.831,-114.517"/>
</g>
<!-- ExpConst0 -->
<g id="node39" class="node"><title>ExpConst0</title>
<ellipse fill="none" stroke="black" cx="362.09" cy="-90" rx="50.0912" ry="18"/>
<text text-anchor="middle" x="362.09" y="-86.3" font-family="Times,serif" font-size="14.00">ExpConst0</text>
</g>
<!-- ExpBinary0&#45;&gt;ExpConst0 -->
<g id="edge32" class="edge"><title>ExpBinary0&#45;&gt;ExpConst0</title>
<path fill="none" stroke="black" d="M444.828,-145.638C429.813,-135.723 410.09,-122.698 393.667,-111.853"/>
<polygon fill="black" stroke="black" points="395.207,-108.675 384.933,-106.085 391.349,-114.517 395.207,-108.675"/>
</g>
<!-- Times0 -->
<g id="node41" class="node"><title>Times0</title>
<ellipse fill="none" stroke="black" cx="468.09" cy="-90" rx="37.8943" ry="18"/>
<text text-anchor="middle" x="468.09" y="-86.3" font-family="Times,serif" font-size="14.00">Times0</text>
</g>
<!-- ExpBinary0&#45;&gt;Times0 -->
<g id="edge33" class="edge"><title>ExpBinary0&#45;&gt;Times0</title>
<path fill="none" stroke="black" d="M468.09,-143.697C468.09,-135.983 468.09,-126.712 468.09,-118.112"/>
<polygon fill="black" stroke="black" points="471.59,-118.104 468.09,-108.104 464.59,-118.104 471.59,-118.104"/>
</g>
<!-- ExpTemp2 -->
<g id="node30" class="node"><title>ExpTemp2</title>
<ellipse fill="none" stroke="black" cx="222.09" cy="-306" rx="50.0912" ry="18"/>
<text text-anchor="middle" x="222.09" y="-302.3" font-family="Times,serif" font-size="14.00">ExpTemp2</text>
</g>
<!-- Temp2: T1 -->
<g id="node31" class="node"><title>Temp2: T1</title>
<ellipse fill="none" stroke="black" cx="219.09" cy="-234" rx="50.8918" ry="18"/>
<text text-anchor="middle" x="219.09" y="-230.3" font-family="Times,serif" font-size="14.00">Temp2: T1</text>
</g>
<!-- ExpTemp2&#45;&gt;Temp2: T1 -->
<g id="edge23" class="edge"><title>ExpTemp2&#45;&gt;Temp2: T1</title>
<path fill="none" stroke="black" d="M221.348,-287.697C221.018,-279.983 220.62,-270.712 220.252,-262.112"/>
<polygon fill="black" stroke="black" points="223.748,-261.945 219.823,-252.104 216.754,-262.245 223.748,-261.945"/>
</g>
<!-- StatMove2&#45;&gt;ExpTemp2 -->
<g id="edge24" class="edge"><title>StatMove2&#45;&gt;ExpTemp2</title>
<path fill="none" stroke="black" d="M311.126,-362.155C294.796,-352.039 272.965,-338.515 255.008,-327.391"/>
<polygon fill="black" stroke="black" points="256.364,-324.115 246.02,-321.824 252.678,-330.065 256.364,-324.115"/>
</g>
<!-- ExpCall2 -->
<g id="node33" class="node"><title>ExpCall2</title>
<ellipse fill="none" stroke="black" cx="338.09" cy="-306" rx="44.393" ry="18"/>
<text text-anchor="middle" x="338.09" y="-302.3" font-family="Times,serif" font-size="14.00">ExpCall2</text>
</g>
<!-- StatMove2&#45;&gt;ExpCall2 -->
<g id="edge25" class="edge"><title>StatMove2&#45;&gt;ExpCall2</title>
<path fill="none" stroke="black" d="M335.832,-359.697C336.162,-351.983 336.559,-342.712 336.928,-334.112"/>
<polygon fill="black" stroke="black" points="340.425,-334.245 337.357,-324.104 333.432,-333.945 340.425,-334.245"/>
</g>
<!-- ExpCall2&#45;&gt;ExpList2 -->
<g id="edge40" class="edge"><title>ExpCall2&#45;&gt;ExpList2</title>
<path fill="none" stroke="black" d="M362.885,-291.003C381.724,-280.368 407.836,-265.627 428.542,-253.939"/>
<polygon fill="black" stroke="black" points="430.35,-256.937 437.338,-248.973 426.909,-250.841 430.35,-256.937"/>
</g>
<!-- ExpName2 -->
<g id="node37" class="node"><title>ExpName2</title>
<ellipse fill="none" stroke="black" cx="338.09" cy="-234" rx="50.8918" ry="18"/>
<text text-anchor="middle" x="338.09" y="-230.3" font-family="Times,serif" font-size="14.00">ExpName2</text>
</g>
<!-- ExpCall2&#45;&gt;ExpName2 -->
<g id="edge39" class="edge"><title>ExpCall2&#45;&gt;ExpName2</title>
<path fill="none" stroke="black" d="M338.09,-287.697C338.09,-279.983 338.09,-270.712 338.09,-262.112"/>
<polygon fill="black" stroke="black" points="341.59,-262.104 338.09,-252.104 334.59,-262.104 341.59,-262.104"/>
</g>
<!-- StatSeq0 -->
<g id="node36" class="node"><title>StatSeq0</title>
<ellipse fill="none" stroke="black" cx="221.09" cy="-1098" rx="42.4939" ry="18"/>
<text text-anchor="middle" x="221.09" y="-1094.3" font-family="Times,serif" font-size="14.00">StatSeq0</text>
</g>
<!-- StatSeq0&#45;&gt;StatSeq1 -->
<g id="edge29" class="edge"><title>StatSeq0&#45;&gt;StatSeq1</title>
<path fill="none" stroke="black" d="M237.655,-1081.12C247.268,-1071.9 259.543,-1060.13 270.189,-1049.92"/>
<polygon fill="black" stroke="black" points="272.795,-1052.27 277.591,-1042.82 267.95,-1047.22 272.795,-1052.27"/>
</g>
<!-- StatSeq0&#45;&gt;StatLabel0 -->
<g id="edge28" class="edge"><title>StatSeq0&#45;&gt;StatLabel0</title>
<path fill="none" stroke="black" d="M204.752,-1081.12C195.404,-1072.03 183.504,-1060.46 173.108,-1050.35"/>
<polygon fill="black" stroke="black" points="175.473,-1047.77 165.863,-1043.31 170.593,-1052.79 175.473,-1047.77"/>
</g>
<!-- Label3: malloc -->
<g id="node38" class="node"><title>Label3: malloc</title>
<ellipse fill="none" stroke="black" cx="332.09" cy="-162" rx="64.189" ry="18"/>
<text text-anchor="middle" x="332.09" y="-158.3" font-family="Times,serif" font-size="14.00">Label3: malloc</text>
</g>
<!-- ExpName2&#45;&gt;Label3: malloc -->
<g id="edge30" class="edge"><title>ExpName2&#45;&gt;Label3: malloc</title>
<path fill="none" stroke="black" d="M336.607,-215.697C335.946,-207.983 335.151,-198.712 334.414,-190.112"/>
<polygon fill="black" stroke="black" points="337.897,-189.769 333.556,-180.104 330.923,-190.367 337.897,-189.769"/>
</g>
<!-- Value0: 2 -->
<g id="node40" class="node"><title>Value0: 2</title>
<ellipse fill="none" stroke="black" cx="362.09" cy="-18" rx="45.4919" ry="18"/>
<text text-anchor="middle" x="362.09" y="-14.3" font-family="Times,serif" font-size="14.00">Value0: 2</text>
</g>
<!-- ExpConst0&#45;&gt;Value0: 2 -->
<g id="edge31" class="edge"><title>ExpConst0&#45;&gt;Value0: 2</title>
<path fill="none" stroke="black" d="M362.09,-71.6966C362.09,-63.9827 362.09,-54.7125 362.09,-46.1124"/>
<polygon fill="black" stroke="black" points="365.59,-46.1043 362.09,-36.1043 358.59,-46.1044 365.59,-46.1043"/>
</g>
</g>
</svg>
