<?xml version="1.0" encoding="UTF-8" standalone="no"?>
<!DOCTYPE svg PUBLIC "-//W3C//DTD SVG 1.1//EN"
 "http://www.w3.org/Graphics/SVG/1.1/DTD/svg11.dtd">
<!-- Generated by graphviz version 2.38.0 (20140413.2041)
 -->
<!-- Title: %3 Pages: 1 -->
<svg width="661pt" height="692pt"
 viewBox="0.00 0.00 660.79 692.00" xmlns="http://www.w3.org/2000/svg" xmlns:xlink="http://www.w3.org/1999/xlink">
<g id="graph0" class="graph" transform="scale(1 1) rotate(0) translate(4 688)">
<title>%3</title>
<polygon fill="white" stroke="none" points="-4,4 -4,-688 656.785,-688 656.785,4 -4,4"/>
<!-- ExpTemp3 -->
<g id="node1" class="node"><title>ExpTemp3</title>
<ellipse fill="none" stroke="black" cx="574.09" cy="-522" rx="50.0912" ry="18"/>
<text text-anchor="middle" x="574.09" y="-518.3" font-family="Times,serif" font-size="14.00">ExpTemp3</text>
</g>
<!-- Temp3: T2 -->
<g id="node2" class="node"><title>Temp3: T2</title>
<ellipse fill="none" stroke="black" cx="602.09" cy="-450" rx="50.8918" ry="18"/>
<text text-anchor="middle" x="602.09" y="-446.3" font-family="Times,serif" font-size="14.00">Temp3: T2</text>
</g>
<!-- ExpTemp3&#45;&gt;Temp3: T2 -->
<g id="edge1" class="edge"><title>ExpTemp3&#45;&gt;Temp3: T2</title>
<path fill="none" stroke="black" d="M580.868,-504.055C584.019,-496.176 587.843,-486.617 591.372,-477.794"/>
<polygon fill="black" stroke="black" points="594.716,-478.86 595.18,-468.275 588.216,-476.26 594.716,-478.86"/>
</g>
<!-- ExpTemp2 -->
<g id="node3" class="node"><title>ExpTemp2</title>
<ellipse fill="none" stroke="black" cx="554.09" cy="-306" rx="50.0912" ry="18"/>
<text text-anchor="middle" x="554.09" y="-302.3" font-family="Times,serif" font-size="14.00">ExpTemp2</text>
</g>
<!-- Temp2: T1 -->
<g id="node4" class="node"><title>Temp2: T1</title>
<ellipse fill="none" stroke="black" cx="554.09" cy="-234" rx="50.8918" ry="18"/>
<text text-anchor="middle" x="554.09" y="-230.3" font-family="Times,serif" font-size="14.00">Temp2: T1</text>
</g>
<!-- ExpTemp2&#45;&gt;Temp2: T1 -->
<g id="edge2" class="edge"><title>ExpTemp2&#45;&gt;Temp2: T1</title>
<path fill="none" stroke="black" d="M554.09,-287.697C554.09,-279.983 554.09,-270.712 554.09,-262.112"/>
<polygon fill="black" stroke="black" points="557.59,-262.104 554.09,-252.104 550.59,-262.104 557.59,-262.104"/>
</g>
<!-- ExpEseq0 -->
<g id="node5" class="node"><title>ExpEseq0</title>
<ellipse fill="none" stroke="black" cx="495.09" cy="-378" rx="46.2923" ry="18"/>
<text text-anchor="middle" x="495.09" y="-374.3" font-family="Times,serif" font-size="14.00">ExpEseq0</text>
</g>
<!-- ExpEseq0&#45;&gt;ExpTemp2 -->
<g id="edge4" class="edge"><title>ExpEseq0&#45;&gt;ExpTemp2</title>
<path fill="none" stroke="black" d="M508.774,-360.765C516.114,-352.056 525.309,-341.147 533.495,-331.435"/>
<polygon fill="black" stroke="black" points="536.302,-333.535 540.07,-323.633 530.949,-329.024 536.302,-333.535"/>
</g>
<!-- StatMove1 -->
<g id="node6" class="node"><title>StatMove1</title>
<ellipse fill="none" stroke="black" cx="436.09" cy="-306" rx="50.0912" ry="18"/>
<text text-anchor="middle" x="436.09" y="-302.3" font-family="Times,serif" font-size="14.00">StatMove1</text>
</g>
<!-- ExpEseq0&#45;&gt;StatMove1 -->
<g id="edge3" class="edge"><title>ExpEseq0&#45;&gt;StatMove1</title>
<path fill="none" stroke="black" d="M481.406,-360.765C474.066,-352.056 464.871,-341.147 456.685,-331.435"/>
<polygon fill="black" stroke="black" points="459.231,-329.024 450.11,-323.633 453.878,-333.535 459.231,-329.024"/>
</g>
<!-- ExpCall1 -->
<g id="node13" class="node"><title>ExpCall1</title>
<ellipse fill="none" stroke="black" cx="439.09" cy="-234" rx="44.393" ry="18"/>
<text text-anchor="middle" x="439.09" y="-230.3" font-family="Times,serif" font-size="14.00">ExpCall1</text>
</g>
<!-- StatMove1&#45;&gt;ExpCall1 -->
<g id="edge23" class="edge"><title>StatMove1&#45;&gt;ExpCall1</title>
<path fill="none" stroke="black" d="M436.832,-287.697C437.162,-279.983 437.559,-270.712 437.928,-262.112"/>
<polygon fill="black" stroke="black" points="441.425,-262.245 438.357,-252.104 434.432,-261.945 441.425,-262.245"/>
</g>
<!-- ExpTemp1 -->
<g id="node23" class="node"><title>ExpTemp1</title>
<ellipse fill="none" stroke="black" cx="323.09" cy="-234" rx="50.0912" ry="18"/>
<text text-anchor="middle" x="323.09" y="-230.3" font-family="Times,serif" font-size="14.00">ExpTemp1</text>
</g>
<!-- StatMove1&#45;&gt;ExpTemp1 -->
<g id="edge22" class="edge"><title>StatMove1&#45;&gt;ExpTemp1</title>
<path fill="none" stroke="black" d="M412.126,-290.155C395.796,-280.039 373.965,-266.515 356.008,-255.391"/>
<polygon fill="black" stroke="black" points="357.364,-252.115 347.02,-249.824 353.678,-258.065 357.364,-252.115"/>
</g>
<!-- ExpConst0 -->
<g id="node7" class="node"><title>ExpConst0</title>
<ellipse fill="none" stroke="black" cx="574.09" cy="-90" rx="50.0912" ry="18"/>
<text text-anchor="middle" x="574.09" y="-86.3" font-family="Times,serif" font-size="14.00">ExpConst0</text>
</g>
<!-- Value0: 10 -->
<g id="node8" class="node"><title>Value0: 10</title>
<ellipse fill="none" stroke="black" cx="574.09" cy="-18" rx="50.0912" ry="18"/>
<text text-anchor="middle" x="574.09" y="-14.3" font-family="Times,serif" font-size="14.00">Value0: 10</text>
</g>
<!-- ExpConst0&#45;&gt;Value0: 10 -->
<g id="edge5" class="edge"><title>ExpConst0&#45;&gt;Value0: 10</title>
<path fill="none" stroke="black" d="M574.09,-71.6966C574.09,-63.9827 574.09,-54.7125 574.09,-46.1124"/>
<polygon fill="black" stroke="black" points="577.59,-46.1043 574.09,-36.1043 570.59,-46.1044 577.59,-46.1043"/>
</g>
<!-- StatMove0 -->
<g id="node9" class="node"><title>StatMove0</title>
<ellipse fill="none" stroke="black" cx="322.09" cy="-594" rx="50.0912" ry="18"/>
<text text-anchor="middle" x="322.09" y="-590.3" font-family="Times,serif" font-size="14.00">StatMove0</text>
</g>
<!-- ExpTemp0 -->
<g id="node10" class="node"><title>ExpTemp0</title>
<ellipse fill="none" stroke="black" cx="294.09" cy="-522" rx="50.0912" ry="18"/>
<text text-anchor="middle" x="294.09" y="-518.3" font-family="Times,serif" font-size="14.00">ExpTemp0</text>
</g>
<!-- StatMove0&#45;&gt;ExpTemp0 -->
<g id="edge6" class="edge"><title>StatMove0&#45;&gt;ExpTemp0</title>
<path fill="none" stroke="black" d="M315.312,-576.055C312.16,-568.176 308.337,-558.617 304.808,-549.794"/>
<polygon fill="black" stroke="black" points="307.964,-548.26 301,-540.275 301.464,-550.86 307.964,-548.26"/>
</g>
<!-- ExpCall0 -->
<g id="node11" class="node"><title>ExpCall0</title>
<ellipse fill="none" stroke="black" cx="406.09" cy="-522" rx="44.393" ry="18"/>
<text text-anchor="middle" x="406.09" y="-518.3" font-family="Times,serif" font-size="14.00">ExpCall0</text>
</g>
<!-- StatMove0&#45;&gt;ExpCall0 -->
<g id="edge7" class="edge"><title>StatMove0&#45;&gt;ExpCall0</title>
<path fill="none" stroke="black" d="M341.151,-577.116C352.507,-567.652 367.091,-555.499 379.56,-545.108"/>
<polygon fill="black" stroke="black" points="381.952,-547.671 387.394,-538.58 377.471,-542.293 381.952,-547.671"/>
</g>
<!-- Temp0: T2 -->
<g id="node17" class="node"><title>Temp0: T2</title>
<ellipse fill="none" stroke="black" cx="259.09" cy="-450" rx="50.8918" ry="18"/>
<text text-anchor="middle" x="259.09" y="-446.3" font-family="Times,serif" font-size="14.00">Temp0: T2</text>
</g>
<!-- ExpTemp0&#45;&gt;Temp0: T2 -->
<g id="edge12" class="edge"><title>ExpTemp0&#45;&gt;Temp0: T2</title>
<path fill="none" stroke="black" d="M285.617,-504.055C281.533,-495.887 276.546,-485.912 272.002,-476.824"/>
<polygon fill="black" stroke="black" points="275.087,-475.168 267.484,-467.789 268.826,-478.299 275.087,-475.168"/>
</g>
<!-- ExpList0 -->
<g id="node12" class="node"><title>ExpList0</title>
<ellipse fill="none" stroke="black" cx="490.09" cy="-450" rx="42.7926" ry="18"/>
<text text-anchor="middle" x="490.09" y="-446.3" font-family="Times,serif" font-size="14.00">ExpList0</text>
</g>
<!-- ExpCall0&#45;&gt;ExpList0 -->
<g id="edge19" class="edge"><title>ExpCall0&#45;&gt;ExpList0</title>
<path fill="none" stroke="black" d="M424.732,-505.465C436.151,-495.949 450.948,-483.619 463.574,-473.097"/>
<polygon fill="black" stroke="black" points="466.058,-475.583 471.5,-466.492 461.577,-470.205 466.058,-475.583"/>
</g>
<!-- ExpName0 -->
<g id="node21" class="node"><title>ExpName0</title>
<ellipse fill="none" stroke="black" cx="378.09" cy="-450" rx="50.8918" ry="18"/>
<text text-anchor="middle" x="378.09" y="-446.3" font-family="Times,serif" font-size="14.00">ExpName0</text>
</g>
<!-- ExpCall0&#45;&gt;ExpName0 -->
<g id="edge18" class="edge"><title>ExpCall0&#45;&gt;ExpName0</title>
<path fill="none" stroke="black" d="M399.312,-504.055C396.16,-496.176 392.337,-486.617 388.808,-477.794"/>
<polygon fill="black" stroke="black" points="391.964,-476.26 385,-468.275 385.464,-478.86 391.964,-476.26"/>
</g>
<!-- ExpList0&#45;&gt;ExpEseq0 -->
<g id="edge8" class="edge"><title>ExpList0&#45;&gt;ExpEseq0</title>
<path fill="none" stroke="black" d="M491.326,-431.697C491.877,-423.983 492.539,-414.712 493.153,-406.112"/>
<polygon fill="black" stroke="black" points="496.647,-406.328 493.868,-396.104 489.665,-405.83 496.647,-406.328"/>
</g>
<!-- ExpName1 -->
<g id="node14" class="node"><title>ExpName1</title>
<ellipse fill="none" stroke="black" cx="439.09" cy="-162" rx="50.8918" ry="18"/>
<text text-anchor="middle" x="439.09" y="-158.3" font-family="Times,serif" font-size="14.00">ExpName1</text>
</g>
<!-- ExpCall1&#45;&gt;ExpName1 -->
<g id="edge9" class="edge"><title>ExpCall1&#45;&gt;ExpName1</title>
<path fill="none" stroke="black" d="M439.09,-215.697C439.09,-207.983 439.09,-198.712 439.09,-190.112"/>
<polygon fill="black" stroke="black" points="442.59,-190.104 439.09,-180.104 435.59,-190.104 442.59,-190.104"/>
</g>
<!-- ExpList1 -->
<g id="node15" class="node"><title>ExpList1</title>
<ellipse fill="none" stroke="black" cx="566.09" cy="-162" rx="42.7926" ry="18"/>
<text text-anchor="middle" x="566.09" y="-158.3" font-family="Times,serif" font-size="14.00">ExpList1</text>
</g>
<!-- ExpCall1&#45;&gt;ExpList1 -->
<g id="edge10" class="edge"><title>ExpCall1&#45;&gt;ExpList1</title>
<path fill="none" stroke="black" d="M464.181,-219.17C483.663,-208.432 510.871,-193.436 532.273,-181.639"/>
<polygon fill="black" stroke="black" points="533.983,-184.693 541.051,-176.801 530.604,-178.563 533.983,-184.693"/>
</g>
<!-- Label2: LS@Start -->
<g id="node25" class="node"><title>Label2: LS@Start</title>
<ellipse fill="none" stroke="black" cx="431.09" cy="-90" rx="75.2868" ry="18"/>
<text text-anchor="middle" x="431.09" y="-86.3" font-family="Times,serif" font-size="14.00">Label2: LS@Start</text>
</g>
<!-- ExpName1&#45;&gt;Label2: LS@Start -->
<g id="edge24" class="edge"><title>ExpName1&#45;&gt;Label2: LS@Start</title>
<path fill="none" stroke="black" d="M437.112,-143.697C436.231,-135.983 435.171,-126.712 434.189,-118.112"/>
<polygon fill="black" stroke="black" points="437.658,-117.642 433.045,-108.104 430.703,-118.437 437.658,-117.642"/>
</g>
<!-- ExpList1&#45;&gt;ExpConst0 -->
<g id="edge21" class="edge"><title>ExpList1&#45;&gt;ExpConst0</title>
<path fill="none" stroke="black" d="M568.067,-143.697C568.949,-135.983 570.009,-126.712 570.991,-118.112"/>
<polygon fill="black" stroke="black" points="574.477,-118.437 572.135,-108.104 567.522,-117.642 574.477,-118.437"/>
</g>
<!-- StatExp0 -->
<g id="node16" class="node"><title>StatExp0</title>
<ellipse fill="none" stroke="black" cx="489.09" cy="-594" rx="42.7926" ry="18"/>
<text text-anchor="middle" x="489.09" y="-590.3" font-family="Times,serif" font-size="14.00">StatExp0</text>
</g>
<!-- StatExp0&#45;&gt;ExpTemp3 -->
<g id="edge11" class="edge"><title>StatExp0&#45;&gt;ExpTemp3</title>
<path fill="none" stroke="black" d="M507.954,-577.465C519.429,-568.015 534.274,-555.79 546.991,-545.316"/>
<polygon fill="black" stroke="black" points="549.49,-547.793 554.985,-538.734 545.04,-542.389 549.49,-547.793"/>
</g>
<!-- StatList0 -->
<g id="node18" class="node"><title>StatList0</title>
<ellipse fill="none" stroke="black" cx="322.09" cy="-666" rx="42.4939" ry="18"/>
<text text-anchor="middle" x="322.09" y="-662.3" font-family="Times,serif" font-size="14.00">StatList0</text>
</g>
<!-- StatList0&#45;&gt;StatMove0 -->
<g id="edge14" class="edge"><title>StatList0&#45;&gt;StatMove0</title>
<path fill="none" stroke="black" d="M322.09,-647.697C322.09,-639.983 322.09,-630.712 322.09,-622.112"/>
<polygon fill="black" stroke="black" points="325.59,-622.104 322.09,-612.104 318.59,-622.104 325.59,-622.104"/>
</g>
<!-- StatList0&#45;&gt;StatExp0 -->
<g id="edge15" class="edge"><title>StatList0&#45;&gt;StatExp0</title>
<path fill="none" stroke="black" d="M351.179,-652.807C378.669,-641.284 420.094,-623.92 450.368,-611.231"/>
<polygon fill="black" stroke="black" points="451.904,-614.382 459.774,-607.288 449.198,-607.926 451.904,-614.382"/>
</g>
<!-- StatLabel0 -->
<g id="node19" class="node"><title>StatLabel0</title>
<ellipse fill="none" stroke="black" cx="173.09" cy="-594" rx="48.9926" ry="18"/>
<text text-anchor="middle" x="173.09" y="-590.3" font-family="Times,serif" font-size="14.00">StatLabel0</text>
</g>
<!-- StatList0&#45;&gt;StatLabel0 -->
<g id="edge13" class="edge"><title>StatList0&#45;&gt;StatLabel0</title>
<path fill="none" stroke="black" d="M294.761,-652.161C271.341,-641.158 237.355,-625.192 211.252,-612.928"/>
<polygon fill="black" stroke="black" points="212.565,-609.678 202.026,-608.594 209.588,-616.014 212.565,-609.678"/>
</g>
<!-- Label0: LinearSearch@main -->
<g id="node20" class="node"><title>Label0: LinearSearch@main</title>
<ellipse fill="none" stroke="black" cx="113.09" cy="-522" rx="113.18" ry="18"/>
<text text-anchor="middle" x="113.09" y="-518.3" font-family="Times,serif" font-size="14.00">Label0: LinearSearch@main</text>
</g>
<!-- StatLabel0&#45;&gt;Label0: LinearSearch@main -->
<g id="edge16" class="edge"><title>StatLabel0&#45;&gt;Label0: LinearSearch@main</title>
<path fill="none" stroke="black" d="M158.871,-576.411C151.507,-567.82 142.369,-557.159 134.199,-547.627"/>
<polygon fill="black" stroke="black" points="136.789,-545.271 127.624,-539.956 131.474,-549.827 136.789,-545.271"/>
</g>
<!-- Label1: print -->
<g id="node22" class="node"><title>Label1: print</title>
<ellipse fill="none" stroke="black" cx="374.09" cy="-378" rx="56.59" ry="18"/>
<text text-anchor="middle" x="374.09" y="-374.3" font-family="Times,serif" font-size="14.00">Label1: print</text>
</g>
<!-- ExpName0&#45;&gt;Label1: print -->
<g id="edge17" class="edge"><title>ExpName0&#45;&gt;Label1: print</title>
<path fill="none" stroke="black" d="M377.101,-431.697C376.66,-423.983 376.131,-414.712 375.639,-406.112"/>
<polygon fill="black" stroke="black" points="379.132,-405.888 375.067,-396.104 372.144,-406.288 379.132,-405.888"/>
</g>
<!-- Temp1: T1 -->
<g id="node24" class="node"><title>Temp1: T1</title>
<ellipse fill="none" stroke="black" cx="320.09" cy="-162" rx="50.8918" ry="18"/>
<text text-anchor="middle" x="320.09" y="-158.3" font-family="Times,serif" font-size="14.00">Temp1: T1</text>
</g>
<!-- ExpTemp1&#45;&gt;Temp1: T1 -->
<g id="edge20" class="edge"><title>ExpTemp1&#45;&gt;Temp1: T1</title>
<path fill="none" stroke="black" d="M322.348,-215.697C322.018,-207.983 321.62,-198.712 321.252,-190.112"/>
<polygon fill="black" stroke="black" points="324.748,-189.945 320.823,-180.104 317.754,-190.245 324.748,-189.945"/>
</g>
</g>
</svg>
