<?xml version="1.0" encoding="UTF-8" standalone="no"?>
<!DOCTYPE svg PUBLIC "-//W3C//DTD SVG 1.1//EN"
 "http://www.w3.org/Graphics/SVG/1.1/DTD/svg11.dtd">
<!-- Generated by graphviz version 2.38.0 (20140413.2041)
 -->
<!-- Title: %3 Pages: 1 -->
<svg width="493pt" height="260pt"
 viewBox="0.00 0.00 492.59 260.00" xmlns="http://www.w3.org/2000/svg" xmlns:xlink="http://www.w3.org/1999/xlink">
<g id="graph0" class="graph" transform="scale(1 1) rotate(0) translate(4 256)">
<title>%3</title>
<polygon fill="white" stroke="none" points="-4,4 -4,-256 488.589,-256 488.589,4 -4,4"/>
<!-- Call0 -->
<g id="node1" class="node"><title>Call0</title>
<ellipse fill="none" stroke="black" cx="253.795" cy="-162" rx="29.795" ry="18"/>
<text text-anchor="middle" x="253.795" y="-158.3" font-family="Times,serif" font-size="14.00">Call0</text>
</g>
<!-- Function0: Element@GetAge -->
<g id="node2" class="node"><title>Function0: Element@GetAge</title>
<ellipse fill="none" stroke="black" cx="253.795" cy="-90" rx="116.18" ry="18"/>
<text text-anchor="middle" x="253.795" y="-86.3" font-family="Times,serif" font-size="14.00">Function0: Element@GetAge</text>
</g>
<!-- Call0&#45;&gt;Function0: Element@GetAge -->
<g id="edge1" class="edge"><title>Call0&#45;&gt;Function0: Element@GetAge</title>
<path fill="none" stroke="black" d="M253.795,-143.697C253.795,-135.983 253.795,-126.712 253.795,-118.112"/>
<polygon fill="black" stroke="black" points="257.295,-118.104 253.795,-108.104 250.295,-118.104 257.295,-118.104"/>
</g>
<!-- Temp2 -->
<g id="node3" class="node"><title>Temp2</title>
<ellipse fill="none" stroke="black" cx="424.795" cy="-90" rx="36.2938" ry="18"/>
<text text-anchor="middle" x="424.795" y="-86.3" font-family="Times,serif" font-size="14.00">Temp2</text>
</g>
<!-- Call0&#45;&gt;Temp2 -->
<g id="edge2" class="edge"><title>Call0&#45;&gt;Temp2</title>
<path fill="none" stroke="black" d="M277.932,-151.119C306.673,-139.354 354.965,-119.585 388.281,-105.947"/>
<polygon fill="black" stroke="black" points="389.748,-109.129 397.676,-102.101 387.096,-102.65 389.748,-109.129"/>
</g>
<!-- Temp3: T162 -->
<g id="node6" class="node"><title>Temp3: T162</title>
<ellipse fill="none" stroke="black" cx="424.795" cy="-18" rx="59.5901" ry="18"/>
<text text-anchor="middle" x="424.795" y="-14.3" font-family="Times,serif" font-size="14.00">Temp3: T162</text>
</g>
<!-- Temp2&#45;&gt;Temp3: T162 -->
<g id="edge5" class="edge"><title>Temp2&#45;&gt;Temp3: T162</title>
<path fill="none" stroke="black" d="M424.795,-71.6966C424.795,-63.9827 424.795,-54.7125 424.795,-46.1124"/>
<polygon fill="black" stroke="black" points="428.295,-46.1043 424.795,-36.1043 421.295,-46.1044 428.295,-46.1043"/>
</g>
<!-- MoveRegister0 -->
<g id="node4" class="node"><title>MoveRegister0</title>
<ellipse fill="none" stroke="black" cx="183.795" cy="-234" rx="65.7887" ry="18"/>
<text text-anchor="middle" x="183.795" y="-230.3" font-family="Times,serif" font-size="14.00">MoveRegister0</text>
</g>
<!-- MoveRegister0&#45;&gt;Call0 -->
<g id="edge4" class="edge"><title>MoveRegister0&#45;&gt;Call0</title>
<path fill="none" stroke="black" d="M200.384,-216.411C209.662,-207.132 221.354,-195.441 231.432,-185.363"/>
<polygon fill="black" stroke="black" points="234.16,-187.584 238.756,-178.038 229.21,-182.634 234.16,-187.584"/>
</g>
<!-- Temp0 -->
<g id="node5" class="node"><title>Temp0</title>
<ellipse fill="none" stroke="black" cx="114.795" cy="-162" rx="36.2938" ry="18"/>
<text text-anchor="middle" x="114.795" y="-158.3" font-family="Times,serif" font-size="14.00">Temp0</text>
</g>
<!-- MoveRegister0&#45;&gt;Temp0 -->
<g id="edge3" class="edge"><title>MoveRegister0&#45;&gt;Temp0</title>
<path fill="none" stroke="black" d="M167.443,-216.411C158.424,-207.261 147.091,-195.765 137.253,-185.784"/>
<polygon fill="black" stroke="black" points="139.597,-183.176 130.084,-178.511 134.611,-188.09 139.597,-183.176"/>
</g>
<!-- Temp1: T163 -->
<g id="node7" class="node"><title>Temp1: T163</title>
<ellipse fill="none" stroke="black" cx="59.7947" cy="-90" rx="59.5901" ry="18"/>
<text text-anchor="middle" x="59.7947" y="-86.3" font-family="Times,serif" font-size="14.00">Temp1: T163</text>
</g>
<!-- Temp0&#45;&gt;Temp1: T163 -->
<g id="edge6" class="edge"><title>Temp0&#45;&gt;Temp1: T163</title>
<path fill="none" stroke="black" d="M102.038,-144.765C95.2642,-136.143 86.7955,-125.365 79.2228,-115.727"/>
<polygon fill="black" stroke="black" points="81.7942,-113.334 72.8638,-107.633 76.2899,-117.659 81.7942,-113.334"/>
</g>
</g>
</svg>
