<?xml version="1.0" encoding="UTF-8" standalone="no"?>
<!DOCTYPE svg PUBLIC "-//W3C//DTD SVG 1.1//EN"
 "http://www.w3.org/Graphics/SVG/1.1/DTD/svg11.dtd">
<!-- Generated by graphviz version 2.38.0 (20140413.2041)
 -->
<!-- Title: %3 Pages: 1 -->
<svg width="569pt" height="332pt"
 viewBox="0.00 0.00 569.14 332.00" xmlns="http://www.w3.org/2000/svg" xmlns:xlink="http://www.w3.org/1999/xlink">
<g id="graph0" class="graph" transform="scale(1 1) rotate(0) translate(4 328)">
<title>%3</title>
<polygon fill="white" stroke="none" points="-4,4 -4,-328 565.141,-328 565.141,4 -4,4"/>
<!-- AddConst0 -->
<g id="node1" class="node"><title>AddConst0</title>
<ellipse fill="none" stroke="black" cx="407.645" cy="-90" rx="50.8918" ry="18"/>
<text text-anchor="middle" x="407.645" y="-86.3" font-family="Times,serif" font-size="14.00">AddConst0</text>
</g>
<!-- NullExp0 -->
<g id="node2" class="node"><title>NullExp0</title>
<ellipse fill="none" stroke="black" cx="407.645" cy="-18" rx="44.6926" ry="18"/>
<text text-anchor="middle" x="407.645" y="-14.3" font-family="Times,serif" font-size="14.00">NullExp0</text>
</g>
<!-- AddConst0&#45;&gt;NullExp0 -->
<g id="edge1" class="edge"><title>AddConst0&#45;&gt;NullExp0</title>
<path fill="none" stroke="black" d="M407.645,-71.6966C407.645,-63.9827 407.645,-54.7125 407.645,-46.1124"/>
<polygon fill="black" stroke="black" points="411.145,-46.1043 407.645,-36.1043 404.145,-46.1044 411.145,-46.1043"/>
</g>
<!-- Value2: 4 -->
<g id="node3" class="node"><title>Value2: 4</title>
<ellipse fill="none" stroke="black" cx="515.645" cy="-18" rx="45.4919" ry="18"/>
<text text-anchor="middle" x="515.645" y="-14.3" font-family="Times,serif" font-size="14.00">Value2: 4</text>
</g>
<!-- AddConst0&#45;&gt;Value2: 4 -->
<g id="edge2" class="edge"><title>AddConst0&#45;&gt;Value2: 4</title>
<path fill="none" stroke="black" d="M430.814,-73.9832C446.437,-63.8573 467.238,-50.3753 484.332,-39.2959"/>
<polygon fill="black" stroke="black" points="486.398,-42.1277 492.886,-33.7517 482.59,-36.2536 486.398,-42.1277"/>
</g>
<!-- Add0 -->
<g id="node4" class="node"><title>Add0</title>
<ellipse fill="none" stroke="black" cx="320.645" cy="-162" rx="30.5947" ry="18"/>
<text text-anchor="middle" x="320.645" y="-158.3" font-family="Times,serif" font-size="14.00">Add0</text>
</g>
<!-- Add0&#45;&gt;AddConst0 -->
<g id="edge4" class="edge"><title>Add0&#45;&gt;AddConst0</title>
<path fill="none" stroke="black" d="M338.251,-146.834C350.175,-137.24 366.181,-124.362 379.816,-113.392"/>
<polygon fill="black" stroke="black" points="382.344,-115.85 387.941,-106.854 377.956,-110.396 382.344,-115.85"/>
</g>
<!-- Temp2 -->
<g id="node5" class="node"><title>Temp2</title>
<ellipse fill="none" stroke="black" cx="297.645" cy="-90" rx="36.2938" ry="18"/>
<text text-anchor="middle" x="297.645" y="-86.3" font-family="Times,serif" font-size="14.00">Temp2</text>
</g>
<!-- Add0&#45;&gt;Temp2 -->
<g id="edge3" class="edge"><title>Add0&#45;&gt;Temp2</title>
<path fill="none" stroke="black" d="M315.078,-144.055C312.489,-136.176 309.348,-126.617 306.449,-117.794"/>
<polygon fill="black" stroke="black" points="309.768,-116.683 303.321,-108.275 303.118,-118.868 309.768,-116.683"/>
</g>
<!-- Temp3: $fp -->
<g id="node6" class="node"><title>Temp3: $fp</title>
<ellipse fill="none" stroke="black" cx="292.645" cy="-18" rx="52.7911" ry="18"/>
<text text-anchor="middle" x="292.645" y="-14.3" font-family="Times,serif" font-size="14.00">Temp3: $fp</text>
</g>
<!-- Temp2&#45;&gt;Temp3: $fp -->
<g id="edge5" class="edge"><title>Temp2&#45;&gt;Temp3: $fp</title>
<path fill="none" stroke="black" d="M296.409,-71.6966C295.858,-63.9827 295.196,-54.7125 294.582,-46.1124"/>
<polygon fill="black" stroke="black" points="298.071,-45.8295 293.867,-36.1043 291.089,-46.3283 298.071,-45.8295"/>
</g>
<!-- Temp0 -->
<g id="node7" class="node"><title>Temp0</title>
<ellipse fill="none" stroke="black" cx="52.6453" cy="-90" rx="36.2938" ry="18"/>
<text text-anchor="middle" x="52.6453" y="-86.3" font-family="Times,serif" font-size="14.00">Temp0</text>
</g>
<!-- Temp1: $fp -->
<g id="node8" class="node"><title>Temp1: $fp</title>
<ellipse fill="none" stroke="black" cx="52.6453" cy="-18" rx="52.7911" ry="18"/>
<text text-anchor="middle" x="52.6453" y="-14.3" font-family="Times,serif" font-size="14.00">Temp1: $fp</text>
</g>
<!-- Temp0&#45;&gt;Temp1: $fp -->
<g id="edge6" class="edge"><title>Temp0&#45;&gt;Temp1: $fp</title>
<path fill="none" stroke="black" d="M52.6453,-71.6966C52.6453,-63.9827 52.6453,-54.7125 52.6453,-46.1124"/>
<polygon fill="black" stroke="black" points="56.1454,-46.1043 52.6453,-36.1043 49.1454,-46.1044 56.1454,-46.1043"/>
</g>
<!-- Load2 -->
<g id="node9" class="node"><title>Load2</title>
<ellipse fill="none" stroke="black" cx="320.645" cy="-234" rx="33.2948" ry="18"/>
<text text-anchor="middle" x="320.645" y="-230.3" font-family="Times,serif" font-size="14.00">Load2</text>
</g>
<!-- Load2&#45;&gt;Add0 -->
<g id="edge7" class="edge"><title>Load2&#45;&gt;Add0</title>
<path fill="none" stroke="black" d="M320.645,-215.697C320.645,-207.983 320.645,-198.712 320.645,-190.112"/>
<polygon fill="black" stroke="black" points="324.145,-190.104 320.645,-180.104 317.145,-190.104 324.145,-190.104"/>
</g>
<!-- Value3: 0 -->
<g id="node10" class="node"><title>Value3: 0</title>
<ellipse fill="none" stroke="black" cx="414.645" cy="-162" rx="45.4919" ry="18"/>
<text text-anchor="middle" x="414.645" y="-158.3" font-family="Times,serif" font-size="14.00">Value3: 0</text>
</g>
<!-- Load2&#45;&gt;Value3: 0 -->
<g id="edge8" class="edge"><title>Load2&#45;&gt;Value3: 0</title>
<path fill="none" stroke="black" d="M339.668,-218.834C353.066,-208.857 371.233,-195.328 386.329,-184.086"/>
<polygon fill="black" stroke="black" points="388.42,-186.893 394.35,-178.114 384.239,-181.279 388.42,-186.893"/>
</g>
<!-- Load1 -->
<g id="node11" class="node"><title>Load1</title>
<ellipse fill="none" stroke="black" cx="129.645" cy="-162" rx="33.2948" ry="18"/>
<text text-anchor="middle" x="129.645" y="-158.3" font-family="Times,serif" font-size="14.00">Load1</text>
</g>
<!-- Load1&#45;&gt;Temp0 -->
<g id="edge9" class="edge"><title>Load1&#45;&gt;Temp0</title>
<path fill="none" stroke="black" d="M113.316,-146.155C102.669,-136.476 88.5908,-123.678 76.6763,-112.846"/>
<polygon fill="black" stroke="black" points="78.9708,-110.202 69.217,-106.065 74.262,-115.382 78.9708,-110.202"/>
</g>
<!-- Value0: 0 -->
<g id="node12" class="node"><title>Value0: 0</title>
<ellipse fill="none" stroke="black" cx="152.645" cy="-90" rx="45.4919" ry="18"/>
<text text-anchor="middle" x="152.645" y="-86.3" font-family="Times,serif" font-size="14.00">Value0: 0</text>
</g>
<!-- Load1&#45;&gt;Value0: 0 -->
<g id="edge10" class="edge"><title>Load1&#45;&gt;Value0: 0</title>
<path fill="none" stroke="black" d="M135.213,-144.055C137.802,-136.176 140.943,-126.617 143.842,-117.794"/>
<polygon fill="black" stroke="black" points="147.173,-118.868 146.969,-108.275 140.522,-116.683 147.173,-118.868"/>
</g>
<!-- Load0 -->
<g id="node13" class="node"><title>Load0</title>
<ellipse fill="none" stroke="black" cx="226.645" cy="-234" rx="33.2948" ry="18"/>
<text text-anchor="middle" x="226.645" y="-230.3" font-family="Times,serif" font-size="14.00">Load0</text>
</g>
<!-- Load0&#45;&gt;Load1 -->
<g id="edge11" class="edge"><title>Load0&#45;&gt;Load1</title>
<path fill="none" stroke="black" d="M207.481,-219.17C193.133,-208.816 173.298,-194.502 157.242,-182.915"/>
<polygon fill="black" stroke="black" points="158.927,-179.815 148.77,-176.801 154.83,-185.491 158.927,-179.815"/>
</g>
<!-- Value1: 0 -->
<g id="node14" class="node"><title>Value1: 0</title>
<ellipse fill="none" stroke="black" cx="226.645" cy="-162" rx="45.4919" ry="18"/>
<text text-anchor="middle" x="226.645" y="-158.3" font-family="Times,serif" font-size="14.00">Value1: 0</text>
</g>
<!-- Load0&#45;&gt;Value1: 0 -->
<g id="edge12" class="edge"><title>Load0&#45;&gt;Value1: 0</title>
<path fill="none" stroke="black" d="M226.645,-215.697C226.645,-207.983 226.645,-198.712 226.645,-190.112"/>
<polygon fill="black" stroke="black" points="230.145,-190.104 226.645,-180.104 223.145,-190.104 230.145,-190.104"/>
</g>
<!-- MoveCommand0 -->
<g id="node15" class="node"><title>MoveCommand0</title>
<ellipse fill="none" stroke="black" cx="273.645" cy="-306" rx="73.387" ry="18"/>
<text text-anchor="middle" x="273.645" y="-302.3" font-family="Times,serif" font-size="14.00">MoveCommand0</text>
</g>
<!-- MoveCommand0&#45;&gt;Load2 -->
<g id="edge14" class="edge"><title>MoveCommand0&#45;&gt;Load2</title>
<path fill="none" stroke="black" d="M285.023,-288.055C290.705,-279.592 297.689,-269.19 303.964,-259.845"/>
<polygon fill="black" stroke="black" points="307.028,-261.56 309.696,-251.307 301.216,-257.658 307.028,-261.56"/>
</g>
<!-- MoveCommand0&#45;&gt;Load0 -->
<g id="edge13" class="edge"><title>MoveCommand0&#45;&gt;Load0</title>
<path fill="none" stroke="black" d="M262.268,-288.055C256.586,-279.592 249.601,-269.19 243.327,-259.845"/>
<polygon fill="black" stroke="black" points="246.074,-257.658 237.594,-251.307 240.263,-261.56 246.074,-257.658"/>
</g>
</g>
</svg>
