<?xml version="1.0" encoding="UTF-8" standalone="no"?>
<!DOCTYPE svg PUBLIC "-//W3C//DTD SVG 1.1//EN"
 "http://www.w3.org/Graphics/SVG/1.1/DTD/svg11.dtd">
<!-- Generated by graphviz version 2.38.0 (20140413.2041)
 -->
<!-- Title: %3 Pages: 1 -->
<svg width="445pt" height="260pt"
 viewBox="0.00 0.00 445.19 260.00" xmlns="http://www.w3.org/2000/svg" xmlns:xlink="http://www.w3.org/1999/xlink">
<g id="graph0" class="graph" transform="scale(1 1) rotate(0) translate(4 256)">
<title>%3</title>
<polygon fill="white" stroke="none" points="-4,4 -4,-256 441.191,-256 441.191,4 -4,4"/>
<!-- AddConst1 -->
<g id="node1" class="node"><title>AddConst1</title>
<ellipse fill="none" stroke="black" cx="288.696" cy="-90" rx="50.8918" ry="18"/>
<text text-anchor="middle" x="288.696" y="-86.3" font-family="Times,serif" font-size="14.00">AddConst1</text>
</g>
<!-- NullExp1 -->
<g id="node2" class="node"><title>NullExp1</title>
<ellipse fill="none" stroke="black" cx="283.696" cy="-18" rx="44.6926" ry="18"/>
<text text-anchor="middle" x="283.696" y="-14.3" font-family="Times,serif" font-size="14.00">NullExp1</text>
</g>
<!-- AddConst1&#45;&gt;NullExp1 -->
<g id="edge1" class="edge"><title>AddConst1&#45;&gt;NullExp1</title>
<path fill="none" stroke="black" d="M287.46,-71.6966C286.909,-63.9827 286.246,-54.7125 285.632,-46.1124"/>
<polygon fill="black" stroke="black" points="289.121,-45.8295 284.917,-36.1043 282.139,-46.3283 289.121,-45.8295"/>
</g>
<!-- Value1: 4 -->
<g id="node3" class="node"><title>Value1: 4</title>
<ellipse fill="none" stroke="black" cx="391.696" cy="-18" rx="45.4919" ry="18"/>
<text text-anchor="middle" x="391.696" y="-14.3" font-family="Times,serif" font-size="14.00">Value1: 4</text>
</g>
<!-- AddConst1&#45;&gt;Value1: 4 -->
<g id="edge2" class="edge"><title>AddConst1&#45;&gt;Value1: 4</title>
<path fill="none" stroke="black" d="M311.045,-73.811C325.722,-63.8364 345.109,-50.661 361.196,-39.7277"/>
<polygon fill="black" stroke="black" points="363.44,-42.4346 369.744,-33.9188 359.505,-36.645 363.44,-42.4346"/>
</g>
<!-- Temp0 -->
<g id="node4" class="node"><title>Temp0</title>
<ellipse fill="none" stroke="black" cx="66.6955" cy="-162" rx="36.2938" ry="18"/>
<text text-anchor="middle" x="66.6955" y="-158.3" font-family="Times,serif" font-size="14.00">Temp0</text>
</g>
<!-- Temp1: T7 -->
<g id="node5" class="node"><title>Temp1: T7</title>
<ellipse fill="none" stroke="black" cx="50.6955" cy="-90" rx="50.8918" ry="18"/>
<text text-anchor="middle" x="50.6955" y="-86.3" font-family="Times,serif" font-size="14.00">Temp1: T7</text>
</g>
<!-- Temp0&#45;&gt;Temp1: T7 -->
<g id="edge3" class="edge"><title>Temp0&#45;&gt;Temp1: T7</title>
<path fill="none" stroke="black" d="M62.8223,-144.055C61.0409,-136.261 58.8834,-126.822 56.885,-118.079"/>
<polygon fill="black" stroke="black" points="60.2845,-117.244 54.6441,-108.275 53.4605,-118.804 60.2845,-117.244"/>
</g>
<!-- AddConst0 -->
<g id="node6" class="node"><title>AddConst0</title>
<ellipse fill="none" stroke="black" cx="169.696" cy="-90" rx="50.8918" ry="18"/>
<text text-anchor="middle" x="169.696" y="-86.3" font-family="Times,serif" font-size="14.00">AddConst0</text>
</g>
<!-- NullExp0 -->
<g id="node7" class="node"><title>NullExp0</title>
<ellipse fill="none" stroke="black" cx="64.6955" cy="-18" rx="44.6926" ry="18"/>
<text text-anchor="middle" x="64.6955" y="-14.3" font-family="Times,serif" font-size="14.00">NullExp0</text>
</g>
<!-- AddConst0&#45;&gt;NullExp0 -->
<g id="edge4" class="edge"><title>AddConst0&#45;&gt;NullExp0</title>
<path fill="none" stroke="black" d="M146.912,-73.811C131.95,-63.8364 112.187,-50.661 95.787,-39.7277"/>
<polygon fill="black" stroke="black" points="97.3357,-36.5537 87.0738,-33.9188 93.4528,-42.3781 97.3357,-36.5537"/>
</g>
<!-- Value0: 2 -->
<g id="node8" class="node"><title>Value0: 2</title>
<ellipse fill="none" stroke="black" cx="172.696" cy="-18" rx="45.4919" ry="18"/>
<text text-anchor="middle" x="172.696" y="-14.3" font-family="Times,serif" font-size="14.00">Value0: 2</text>
</g>
<!-- AddConst0&#45;&gt;Value0: 2 -->
<g id="edge5" class="edge"><title>AddConst0&#45;&gt;Value0: 2</title>
<path fill="none" stroke="black" d="M170.437,-71.6966C170.768,-63.9827 171.165,-54.7125 171.534,-46.1124"/>
<polygon fill="black" stroke="black" points="175.031,-46.2451 171.962,-36.1043 168.037,-45.9453 175.031,-46.2451"/>
</g>
<!-- MoveRegister0 -->
<g id="node9" class="node"><title>MoveRegister0</title>
<ellipse fill="none" stroke="black" cx="117.696" cy="-234" rx="65.7887" ry="18"/>
<text text-anchor="middle" x="117.696" y="-230.3" font-family="Times,serif" font-size="14.00">MoveRegister0</text>
</g>
<!-- MoveRegister0&#45;&gt;Temp0 -->
<g id="edge6" class="edge"><title>MoveRegister0&#45;&gt;Temp0</title>
<path fill="none" stroke="black" d="M105.35,-216.055C99.1204,-207.505 91.4487,-196.975 84.5864,-187.556"/>
<polygon fill="black" stroke="black" points="87.2938,-185.328 78.5763,-179.307 81.6361,-189.45 87.2938,-185.328"/>
</g>
<!-- Mult0 -->
<g id="node10" class="node"><title>Mult0</title>
<ellipse fill="none" stroke="black" cx="169.696" cy="-162" rx="32.4942" ry="18"/>
<text text-anchor="middle" x="169.696" y="-158.3" font-family="Times,serif" font-size="14.00">Mult0</text>
</g>
<!-- MoveRegister0&#45;&gt;Mult0 -->
<g id="edge7" class="edge"><title>MoveRegister0&#45;&gt;Mult0</title>
<path fill="none" stroke="black" d="M130.283,-216.055C136.727,-207.381 144.684,-196.669 151.758,-187.147"/>
<polygon fill="black" stroke="black" points="154.783,-188.944 157.937,-178.829 149.164,-184.77 154.783,-188.944"/>
</g>
<!-- Mult0&#45;&gt;AddConst1 -->
<g id="edge9" class="edge"><title>Mult0&#45;&gt;AddConst1</title>
<path fill="none" stroke="black" d="M191.246,-148.324C208.982,-137.89 234.44,-122.915 254.888,-110.887"/>
<polygon fill="black" stroke="black" points="256.75,-113.852 263.595,-105.765 253.201,-107.818 256.75,-113.852"/>
</g>
<!-- Mult0&#45;&gt;AddConst0 -->
<g id="edge8" class="edge"><title>Mult0&#45;&gt;AddConst0</title>
<path fill="none" stroke="black" d="M169.696,-143.697C169.696,-135.983 169.696,-126.712 169.696,-118.112"/>
<polygon fill="black" stroke="black" points="173.196,-118.104 169.696,-108.104 166.196,-118.104 173.196,-118.104"/>
</g>
</g>
</svg>
