<?xml version="1.0" encoding="UTF-8" standalone="no"?>
<!DOCTYPE svg PUBLIC "-//W3C//DTD SVG 1.1//EN"
 "http://www.w3.org/Graphics/SVG/1.1/DTD/svg11.dtd">
<!-- Generated by graphviz version 2.38.0 (20140413.2041)
 -->
<!-- Title: %3 Pages: 1 -->
<svg width="1525pt" height="404pt"
 viewBox="0.00 0.00 1524.84 404.00" xmlns="http://www.w3.org/2000/svg" xmlns:xlink="http://www.w3.org/1999/xlink">
<g id="graph0" class="graph" transform="scale(1 1) rotate(0) translate(4 400)">
<title>%3</title>
<polygon fill="white" stroke="none" points="-4,4 -4,-400 1520.84,-400 1520.84,4 -4,4"/>
<!-- ExpTemp6 -->
<g id="node1" class="node"><title>ExpTemp6</title>
<ellipse fill="none" stroke="black" cx="1096.89" cy="-234" rx="50.0912" ry="18"/>
<text text-anchor="middle" x="1096.89" y="-230.3" font-family="Times,serif" font-size="14.00">ExpTemp6</text>
</g>
<!-- Temp6: T46 -->
<g id="node2" class="node"><title>Temp6: T46</title>
<ellipse fill="none" stroke="black" cx="1096.89" cy="-162" rx="55.4913" ry="18"/>
<text text-anchor="middle" x="1096.89" y="-158.3" font-family="Times,serif" font-size="14.00">Temp6: T46</text>
</g>
<!-- ExpTemp6&#45;&gt;Temp6: T46 -->
<g id="edge1" class="edge"><title>ExpTemp6&#45;&gt;Temp6: T46</title>
<path fill="none" stroke="black" d="M1096.89,-215.697C1096.89,-207.983 1096.89,-198.712 1096.89,-190.112"/>
<polygon fill="black" stroke="black" points="1100.39,-190.104 1096.89,-180.104 1093.39,-190.104 1100.39,-190.104"/>
</g>
<!-- StatCJump0 -->
<g id="node3" class="node"><title>StatCJump0</title>
<ellipse fill="none" stroke="black" cx="1155.89" cy="-306" rx="53.8905" ry="18"/>
<text text-anchor="middle" x="1155.89" y="-302.3" font-family="Times,serif" font-size="14.00">StatCJump0</text>
</g>
<!-- StatCJump0&#45;&gt;ExpTemp6 -->
<g id="edge3" class="edge"><title>StatCJump0&#45;&gt;ExpTemp6</title>
<path fill="none" stroke="black" d="M1141.91,-288.411C1134.56,-279.693 1125.42,-268.845 1117.3,-259.208"/>
<polygon fill="black" stroke="black" points="1119.89,-256.861 1110.77,-251.47 1114.54,-261.372 1119.89,-256.861"/>
</g>
<!-- NE0 -->
<g id="node4" class="node"><title>NE0</title>
<ellipse fill="none" stroke="black" cx="1001.89" cy="-234" rx="27" ry="18"/>
<text text-anchor="middle" x="1001.89" y="-230.3" font-family="Times,serif" font-size="14.00">NE0</text>
</g>
<!-- StatCJump0&#45;&gt;NE0 -->
<g id="edge2" class="edge"><title>StatCJump0&#45;&gt;NE0</title>
<path fill="none" stroke="black" d="M1124.76,-291.212C1100.93,-280.608 1067.26,-265.53 1037.89,-252 1036.1,-251.176 1034.27,-250.324 1032.41,-249.462"/>
<polygon fill="black" stroke="black" points="1033.72,-246.21 1023.18,-245.135 1030.75,-252.548 1033.72,-246.21"/>
</g>
<!-- ExpConst1 -->
<g id="node5" class="node"><title>ExpConst1</title>
<ellipse fill="none" stroke="black" cx="1214.89" cy="-234" rx="50.0912" ry="18"/>
<text text-anchor="middle" x="1214.89" y="-230.3" font-family="Times,serif" font-size="14.00">ExpConst1</text>
</g>
<!-- StatCJump0&#45;&gt;ExpConst1 -->
<g id="edge4" class="edge"><title>StatCJump0&#45;&gt;ExpConst1</title>
<path fill="none" stroke="black" d="M1169.87,-288.411C1177.22,-279.693 1186.36,-268.845 1194.49,-259.208"/>
<polygon fill="black" stroke="black" points="1197.24,-261.372 1201.01,-251.47 1191.89,-256.861 1197.24,-261.372"/>
</g>
<!-- Label2: L73 -->
<g id="node6" class="node"><title>Label2: L73</title>
<ellipse fill="none" stroke="black" cx="1336.89" cy="-234" rx="53.8905" ry="18"/>
<text text-anchor="middle" x="1336.89" y="-230.3" font-family="Times,serif" font-size="14.00">Label2: L73</text>
</g>
<!-- StatCJump0&#45;&gt;Label2: L73 -->
<g id="edge5" class="edge"><title>StatCJump0&#45;&gt;Label2: L73</title>
<path fill="none" stroke="black" d="M1189.94,-291.834C1219.26,-280.492 1261.76,-264.057 1293.51,-251.776"/>
<polygon fill="black" stroke="black" points="1294.94,-254.979 1303,-248.107 1292.41,-248.45 1294.94,-254.979"/>
</g>
<!-- Label3: L74 -->
<g id="node7" class="node"><title>Label3: L74</title>
<ellipse fill="none" stroke="black" cx="1462.89" cy="-234" rx="53.8905" ry="18"/>
<text text-anchor="middle" x="1462.89" y="-230.3" font-family="Times,serif" font-size="14.00">Label3: L74</text>
</g>
<!-- StatCJump0&#45;&gt;Label3: L74 -->
<g id="edge6" class="edge"><title>StatCJump0&#45;&gt;Label3: L74</title>
<path fill="none" stroke="black" d="M1201.02,-295.898C1250.11,-285.834 1330.82,-268.811 1399.89,-252 1404.04,-250.99 1408.33,-249.91 1412.64,-248.801"/>
<polygon fill="black" stroke="black" points="1413.85,-252.101 1422.64,-246.181 1412.08,-245.329 1413.85,-252.101"/>
</g>
<!-- Value1: 0 -->
<g id="node35" class="node"><title>Value1: 0</title>
<ellipse fill="none" stroke="black" cx="1215.89" cy="-162" rx="45.4919" ry="18"/>
<text text-anchor="middle" x="1215.89" y="-158.3" font-family="Times,serif" font-size="14.00">Value1: 0</text>
</g>
<!-- ExpConst1&#45;&gt;Value1: 0 -->
<g id="edge32" class="edge"><title>ExpConst1&#45;&gt;Value1: 0</title>
<path fill="none" stroke="black" d="M1215.14,-215.697C1215.25,-207.983 1215.38,-198.712 1215.5,-190.112"/>
<polygon fill="black" stroke="black" points="1219,-190.153 1215.65,-180.104 1212,-190.053 1219,-190.153"/>
</g>
<!-- ExpList0 -->
<g id="node8" class="node"><title>ExpList0</title>
<ellipse fill="none" stroke="black" cx="980.892" cy="-162" rx="42.7926" ry="18"/>
<text text-anchor="middle" x="980.892" y="-158.3" font-family="Times,serif" font-size="14.00">ExpList0</text>
</g>
<!-- ExpTemp5 -->
<g id="node9" class="node"><title>ExpTemp5</title>
<ellipse fill="none" stroke="black" cx="1046.89" cy="-90" rx="50.0912" ry="18"/>
<text text-anchor="middle" x="1046.89" y="-86.3" font-family="Times,serif" font-size="14.00">ExpTemp5</text>
</g>
<!-- ExpList0&#45;&gt;ExpTemp5 -->
<g id="edge7" class="edge"><title>ExpList0&#45;&gt;ExpTemp5</title>
<path fill="none" stroke="black" d="M995.868,-145.116C1004.35,-136.116 1015.13,-124.682 1024.6,-114.646"/>
<polygon fill="black" stroke="black" points="1027.2,-116.984 1031.52,-107.307 1022.11,-112.182 1027.2,-116.984"/>
</g>
<!-- Temp5: T54 -->
<g id="node10" class="node"><title>Temp5: T54</title>
<ellipse fill="none" stroke="black" cx="1046.89" cy="-18" rx="55.4913" ry="18"/>
<text text-anchor="middle" x="1046.89" y="-14.3" font-family="Times,serif" font-size="14.00">Temp5: T54</text>
</g>
<!-- ExpTemp5&#45;&gt;Temp5: T54 -->
<g id="edge8" class="edge"><title>ExpTemp5&#45;&gt;Temp5: T54</title>
<path fill="none" stroke="black" d="M1046.89,-71.6966C1046.89,-63.9827 1046.89,-54.7125 1046.89,-46.1124"/>
<polygon fill="black" stroke="black" points="1050.39,-46.1043 1046.89,-36.1043 1043.39,-46.1044 1050.39,-46.1043"/>
</g>
<!-- ExpName0 -->
<g id="node11" class="node"><title>ExpName0</title>
<ellipse fill="none" stroke="black" cx="868.892" cy="-162" rx="50.8918" ry="18"/>
<text text-anchor="middle" x="868.892" y="-158.3" font-family="Times,serif" font-size="14.00">ExpName0</text>
</g>
<!-- Label1: Tree@GetHas_Left -->
<g id="node12" class="node"><title>Label1: Tree@GetHas_Left</title>
<ellipse fill="none" stroke="black" cx="868.892" cy="-90" rx="109.681" ry="18"/>
<text text-anchor="middle" x="868.892" y="-86.3" font-family="Times,serif" font-size="14.00">Label1: Tree@GetHas_Left</text>
</g>
<!-- ExpName0&#45;&gt;Label1: Tree@GetHas_Left -->
<g id="edge9" class="edge"><title>ExpName0&#45;&gt;Label1: Tree@GetHas_Left</title>
<path fill="none" stroke="black" d="M868.892,-143.697C868.892,-135.983 868.892,-126.712 868.892,-118.112"/>
<polygon fill="black" stroke="black" points="872.392,-118.104 868.892,-108.104 865.392,-118.104 872.392,-118.104"/>
</g>
<!-- ExpCall0 -->
<g id="node13" class="node"><title>ExpCall0</title>
<ellipse fill="none" stroke="black" cx="868.892" cy="-234" rx="44.393" ry="18"/>
<text text-anchor="middle" x="868.892" y="-230.3" font-family="Times,serif" font-size="14.00">ExpCall0</text>
</g>
<!-- ExpCall0&#45;&gt;ExpList0 -->
<g id="edge11" class="edge"><title>ExpCall0&#45;&gt;ExpList0</title>
<path fill="none" stroke="black" d="M892.098,-218.496C908.617,-208.172 931.014,-194.174 949.181,-182.819"/>
<polygon fill="black" stroke="black" points="951.09,-185.753 957.715,-177.485 947.38,-179.818 951.09,-185.753"/>
</g>
<!-- ExpCall0&#45;&gt;ExpName0 -->
<g id="edge10" class="edge"><title>ExpCall0&#45;&gt;ExpName0</title>
<path fill="none" stroke="black" d="M868.892,-215.697C868.892,-207.983 868.892,-198.712 868.892,-190.112"/>
<polygon fill="black" stroke="black" points="872.392,-190.104 868.892,-180.104 865.392,-190.104 872.392,-190.104"/>
</g>
<!-- ExpTemp4 -->
<g id="node14" class="node"><title>ExpTemp4</title>
<ellipse fill="none" stroke="black" cx="744.892" cy="-234" rx="50.0912" ry="18"/>
<text text-anchor="middle" x="744.892" y="-230.3" font-family="Times,serif" font-size="14.00">ExpTemp4</text>
</g>
<!-- Temp4: T55 -->
<g id="node15" class="node"><title>Temp4: T55</title>
<ellipse fill="none" stroke="black" cx="744.892" cy="-162" rx="55.4913" ry="18"/>
<text text-anchor="middle" x="744.892" y="-158.3" font-family="Times,serif" font-size="14.00">Temp4: T55</text>
</g>
<!-- ExpTemp4&#45;&gt;Temp4: T55 -->
<g id="edge12" class="edge"><title>ExpTemp4&#45;&gt;Temp4: T55</title>
<path fill="none" stroke="black" d="M744.892,-215.697C744.892,-207.983 744.892,-198.712 744.892,-190.112"/>
<polygon fill="black" stroke="black" points="748.392,-190.104 744.892,-180.104 741.392,-190.104 748.392,-190.104"/>
</g>
<!-- ExpMem0 -->
<g id="node16" class="node"><title>ExpMem0</title>
<ellipse fill="none" stroke="black" cx="615.892" cy="-234" rx="48.9926" ry="18"/>
<text text-anchor="middle" x="615.892" y="-230.3" font-family="Times,serif" font-size="14.00">ExpMem0</text>
</g>
<!-- ExpBinary0 -->
<g id="node17" class="node"><title>ExpBinary0</title>
<ellipse fill="none" stroke="black" cx="617.892" cy="-162" rx="53.0913" ry="18"/>
<text text-anchor="middle" x="617.892" y="-158.3" font-family="Times,serif" font-size="14.00">ExpBinary0</text>
</g>
<!-- ExpMem0&#45;&gt;ExpBinary0 -->
<g id="edge13" class="edge"><title>ExpMem0&#45;&gt;ExpBinary0</title>
<path fill="none" stroke="black" d="M616.386,-215.697C616.606,-207.983 616.871,-198.712 617.117,-190.112"/>
<polygon fill="black" stroke="black" points="620.616,-190.2 617.403,-180.104 613.619,-190 620.616,-190.2"/>
</g>
<!-- ExpTemp3 -->
<g id="node21" class="node"><title>ExpTemp3</title>
<ellipse fill="none" stroke="black" cx="492.892" cy="-90" rx="50.0912" ry="18"/>
<text text-anchor="middle" x="492.892" y="-86.3" font-family="Times,serif" font-size="14.00">ExpTemp3</text>
</g>
<!-- ExpBinary0&#45;&gt;ExpTemp3 -->
<g id="edge16" class="edge"><title>ExpBinary0&#45;&gt;ExpTemp3</title>
<path fill="none" stroke="black" d="M591.687,-146.326C573.187,-135.965 548.194,-121.969 527.975,-110.646"/>
<polygon fill="black" stroke="black" points="529.496,-107.487 519.061,-105.655 526.076,-113.595 529.496,-107.487"/>
</g>
<!-- Plus0 -->
<g id="node22" class="node"><title>Plus0</title>
<ellipse fill="none" stroke="black" cx="591.892" cy="-90" rx="30.5947" ry="18"/>
<text text-anchor="middle" x="591.892" y="-86.3" font-family="Times,serif" font-size="14.00">Plus0</text>
</g>
<!-- ExpBinary0&#45;&gt;Plus0 -->
<g id="edge17" class="edge"><title>ExpBinary0&#45;&gt;Plus0</title>
<path fill="none" stroke="black" d="M611.598,-144.055C608.628,-136.059 605.014,-126.331 601.697,-117.4"/>
<polygon fill="black" stroke="black" points="604.89,-115.945 598.127,-107.789 598.328,-118.382 604.89,-115.945"/>
</g>
<!-- ExpConst0 -->
<g id="node23" class="node"><title>ExpConst0</title>
<ellipse fill="none" stroke="black" cx="690.892" cy="-90" rx="50.0912" ry="18"/>
<text text-anchor="middle" x="690.892" y="-86.3" font-family="Times,serif" font-size="14.00">ExpConst0</text>
</g>
<!-- ExpBinary0&#45;&gt;ExpConst0 -->
<g id="edge18" class="edge"><title>ExpBinary0&#45;&gt;ExpConst0</title>
<path fill="none" stroke="black" d="M634.823,-144.765C644.313,-135.665 656.308,-124.162 666.767,-114.134"/>
<polygon fill="black" stroke="black" points="669.257,-116.595 674.052,-107.147 664.412,-111.542 669.257,-116.595"/>
</g>
<!-- StatMove0 -->
<g id="node18" class="node"><title>StatMove0</title>
<ellipse fill="none" stroke="black" cx="375.892" cy="-306" rx="50.0912" ry="18"/>
<text text-anchor="middle" x="375.892" y="-302.3" font-family="Times,serif" font-size="14.00">StatMove0</text>
</g>
<!-- ExpTemp0 -->
<g id="node19" class="node"><title>ExpTemp0</title>
<ellipse fill="none" stroke="black" cx="257.892" cy="-234" rx="50.0912" ry="18"/>
<text text-anchor="middle" x="257.892" y="-230.3" font-family="Times,serif" font-size="14.00">ExpTemp0</text>
</g>
<!-- StatMove0&#45;&gt;ExpTemp0 -->
<g id="edge14" class="edge"><title>StatMove0&#45;&gt;ExpTemp0</title>
<path fill="none" stroke="black" d="M351.155,-290.326C333.769,-280.012 310.309,-266.095 291.268,-254.8"/>
<polygon fill="black" stroke="black" points="292.982,-251.747 282.596,-249.655 289.411,-257.767 292.982,-251.747"/>
</g>
<!-- ExpTemp1 -->
<g id="node20" class="node"><title>ExpTemp1</title>
<ellipse fill="none" stroke="black" cx="375.892" cy="-234" rx="50.0912" ry="18"/>
<text text-anchor="middle" x="375.892" y="-230.3" font-family="Times,serif" font-size="14.00">ExpTemp1</text>
</g>
<!-- StatMove0&#45;&gt;ExpTemp1 -->
<g id="edge15" class="edge"><title>StatMove0&#45;&gt;ExpTemp1</title>
<path fill="none" stroke="black" d="M375.892,-287.697C375.892,-279.983 375.892,-270.712 375.892,-262.112"/>
<polygon fill="black" stroke="black" points="379.392,-262.104 375.892,-252.104 372.392,-262.104 379.392,-262.104"/>
</g>
<!-- Temp0: T55 -->
<g id="node24" class="node"><title>Temp0: T55</title>
<ellipse fill="none" stroke="black" cx="234.892" cy="-162" rx="55.4913" ry="18"/>
<text text-anchor="middle" x="234.892" y="-158.3" font-family="Times,serif" font-size="14.00">Temp0: T55</text>
</g>
<!-- ExpTemp0&#45;&gt;Temp0: T55 -->
<g id="edge19" class="edge"><title>ExpTemp0&#45;&gt;Temp0: T55</title>
<path fill="none" stroke="black" d="M252.324,-216.055C249.735,-208.176 246.594,-198.617 243.695,-189.794"/>
<polygon fill="black" stroke="black" points="247.014,-188.683 240.568,-180.275 240.364,-190.868 247.014,-188.683"/>
</g>
<!-- Temp1: T46 -->
<g id="node34" class="node"><title>Temp1: T46</title>
<ellipse fill="none" stroke="black" cx="362.892" cy="-162" rx="55.4913" ry="18"/>
<text text-anchor="middle" x="362.892" y="-158.3" font-family="Times,serif" font-size="14.00">Temp1: T46</text>
</g>
<!-- ExpTemp1&#45;&gt;Temp1: T46 -->
<g id="edge31" class="edge"><title>ExpTemp1&#45;&gt;Temp1: T46</title>
<path fill="none" stroke="black" d="M372.678,-215.697C371.246,-207.983 369.524,-198.712 367.927,-190.112"/>
<polygon fill="black" stroke="black" points="371.335,-189.297 366.068,-180.104 364.453,-190.575 371.335,-189.297"/>
</g>
<!-- Temp3: $fp -->
<g id="node32" class="node"><title>Temp3: $fp</title>
<ellipse fill="none" stroke="black" cx="492.892" cy="-18" rx="52.7911" ry="18"/>
<text text-anchor="middle" x="492.892" y="-14.3" font-family="Times,serif" font-size="14.00">Temp3: $fp</text>
</g>
<!-- ExpTemp3&#45;&gt;Temp3: $fp -->
<g id="edge29" class="edge"><title>ExpTemp3&#45;&gt;Temp3: $fp</title>
<path fill="none" stroke="black" d="M492.892,-71.6966C492.892,-63.9827 492.892,-54.7125 492.892,-46.1124"/>
<polygon fill="black" stroke="black" points="496.392,-46.1043 492.892,-36.1043 489.392,-46.1044 496.392,-46.1043"/>
</g>
<!-- Value0: 4 -->
<g id="node33" class="node"><title>Value0: 4</title>
<ellipse fill="none" stroke="black" cx="690.892" cy="-18" rx="45.4919" ry="18"/>
<text text-anchor="middle" x="690.892" y="-14.3" font-family="Times,serif" font-size="14.00">Value0: 4</text>
</g>
<!-- ExpConst0&#45;&gt;Value0: 4 -->
<g id="edge30" class="edge"><title>ExpConst0&#45;&gt;Value0: 4</title>
<path fill="none" stroke="black" d="M690.892,-71.6966C690.892,-63.9827 690.892,-54.7125 690.892,-46.1124"/>
<polygon fill="black" stroke="black" points="694.392,-46.1043 690.892,-36.1043 687.392,-46.1044 694.392,-46.1043"/>
</g>
<!-- StatList0 -->
<g id="node25" class="node"><title>StatList0</title>
<ellipse fill="none" stroke="black" cx="554.892" cy="-378" rx="42.4939" ry="18"/>
<text text-anchor="middle" x="554.892" y="-374.3" font-family="Times,serif" font-size="14.00">StatList0</text>
</g>
<!-- StatList0&#45;&gt;StatCJump0 -->
<g id="edge24" class="edge"><title>StatList0&#45;&gt;StatCJump0</title>
<path fill="none" stroke="black" d="M595.258,-372.298C698.678,-360.253 973.584,-328.234 1095.83,-313.995"/>
<polygon fill="black" stroke="black" points="1096.24,-317.471 1105.77,-312.837 1095.43,-310.518 1096.24,-317.471"/>
</g>
<!-- StatList0&#45;&gt;StatMove0 -->
<g id="edge21" class="edge"><title>StatList0&#45;&gt;StatMove0</title>
<path fill="none" stroke="black" d="M524.931,-365.284C495.582,-353.806 450.6,-336.216 417.729,-323.361"/>
<polygon fill="black" stroke="black" points="418.963,-320.086 408.375,-319.703 416.414,-326.605 418.963,-320.086"/>
</g>
<!-- StatLabel0 -->
<g id="node26" class="node"><title>StatLabel0</title>
<ellipse fill="none" stroke="black" cx="176.892" cy="-306" rx="48.9926" ry="18"/>
<text text-anchor="middle" x="176.892" y="-302.3" font-family="Times,serif" font-size="14.00">StatLabel0</text>
</g>
<!-- StatList0&#45;&gt;StatLabel0 -->
<g id="edge20" class="edge"><title>StatList0&#45;&gt;StatLabel0</title>
<path fill="none" stroke="black" d="M516.917,-369.968C449.01,-357.392 306.669,-331.033 229.437,-316.731"/>
<polygon fill="black" stroke="black" points="229.91,-313.259 219.44,-314.879 228.636,-320.142 229.91,-313.259"/>
</g>
<!-- StatMove1 -->
<g id="node27" class="node"><title>StatMove1</title>
<ellipse fill="none" stroke="black" cx="554.892" cy="-306" rx="50.0912" ry="18"/>
<text text-anchor="middle" x="554.892" y="-302.3" font-family="Times,serif" font-size="14.00">StatMove1</text>
</g>
<!-- StatList0&#45;&gt;StatMove1 -->
<g id="edge22" class="edge"><title>StatList0&#45;&gt;StatMove1</title>
<path fill="none" stroke="black" d="M554.892,-359.697C554.892,-351.983 554.892,-342.712 554.892,-334.112"/>
<polygon fill="black" stroke="black" points="558.392,-334.104 554.892,-324.104 551.392,-334.104 558.392,-334.104"/>
</g>
<!-- StatMove2 -->
<g id="node28" class="node"><title>StatMove2</title>
<ellipse fill="none" stroke="black" cx="744.892" cy="-306" rx="50.0912" ry="18"/>
<text text-anchor="middle" x="744.892" y="-302.3" font-family="Times,serif" font-size="14.00">StatMove2</text>
</g>
<!-- StatList0&#45;&gt;StatMove2 -->
<g id="edge23" class="edge"><title>StatList0&#45;&gt;StatMove2</title>
<path fill="none" stroke="black" d="M585.841,-365.597C617.272,-354.018 666.21,-335.988 701.503,-322.985"/>
<polygon fill="black" stroke="black" points="702.896,-326.202 711.07,-319.461 700.476,-319.634 702.896,-326.202"/>
</g>
<!-- Label0: Tree@RecPrint -->
<g id="node29" class="node"><title>Label0: Tree@RecPrint</title>
<ellipse fill="none" stroke="black" cx="94.8916" cy="-234" rx="94.7833" ry="18"/>
<text text-anchor="middle" x="94.8916" y="-230.3" font-family="Times,serif" font-size="14.00">Label0: Tree@RecPrint</text>
</g>
<!-- StatLabel0&#45;&gt;Label0: Tree@RecPrint -->
<g id="edge25" class="edge"><title>StatLabel0&#45;&gt;Label0: Tree@RecPrint</title>
<path fill="none" stroke="black" d="M158.285,-289.116C147.688,-280.07 134.213,-268.567 122.414,-258.494"/>
<polygon fill="black" stroke="black" points="124.447,-255.628 114.568,-251.797 119.902,-260.952 124.447,-255.628"/>
</g>
<!-- StatMove1&#45;&gt;ExpMem0 -->
<g id="edge34" class="edge"><title>StatMove1&#45;&gt;ExpMem0</title>
<path fill="none" stroke="black" d="M569.348,-288.411C576.945,-279.693 586.398,-268.845 594.796,-259.208"/>
<polygon fill="black" stroke="black" points="597.608,-261.309 601.539,-251.47 592.331,-256.71 597.608,-261.309"/>
</g>
<!-- ExpTemp2 -->
<g id="node30" class="node"><title>ExpTemp2</title>
<ellipse fill="none" stroke="black" cx="493.892" cy="-234" rx="50.0912" ry="18"/>
<text text-anchor="middle" x="493.892" y="-230.3" font-family="Times,serif" font-size="14.00">ExpTemp2</text>
</g>
<!-- StatMove1&#45;&gt;ExpTemp2 -->
<g id="edge33" class="edge"><title>StatMove1&#45;&gt;ExpTemp2</title>
<path fill="none" stroke="black" d="M540.435,-288.411C532.839,-279.693 523.385,-268.845 514.987,-259.208"/>
<polygon fill="black" stroke="black" points="517.452,-256.71 508.244,-251.47 512.175,-261.309 517.452,-256.71"/>
</g>
<!-- StatMove2&#45;&gt;ExpCall0 -->
<g id="edge27" class="edge"><title>StatMove2&#45;&gt;ExpCall0</title>
<path fill="none" stroke="black" d="M770.584,-290.496C789.286,-279.939 814.791,-265.541 835.136,-254.055"/>
<polygon fill="black" stroke="black" points="837.09,-256.972 844.078,-249.008 833.649,-250.876 837.09,-256.972"/>
</g>
<!-- StatMove2&#45;&gt;ExpTemp4 -->
<g id="edge26" class="edge"><title>StatMove2&#45;&gt;ExpTemp4</title>
<path fill="none" stroke="black" d="M744.892,-287.697C744.892,-279.983 744.892,-270.712 744.892,-262.112"/>
<polygon fill="black" stroke="black" points="748.392,-262.104 744.892,-252.104 741.392,-262.104 748.392,-262.104"/>
</g>
<!-- Temp2: T54 -->
<g id="node31" class="node"><title>Temp2: T54</title>
<ellipse fill="none" stroke="black" cx="490.892" cy="-162" rx="55.4913" ry="18"/>
<text text-anchor="middle" x="490.892" y="-158.3" font-family="Times,serif" font-size="14.00">Temp2: T54</text>
</g>
<!-- ExpTemp2&#45;&gt;Temp2: T54 -->
<g id="edge28" class="edge"><title>ExpTemp2&#45;&gt;Temp2: T54</title>
<path fill="none" stroke="black" d="M493.15,-215.697C492.819,-207.983 492.422,-198.712 492.054,-190.112"/>
<polygon fill="black" stroke="black" points="495.55,-189.945 491.625,-180.104 488.556,-190.245 495.55,-189.945"/>
</g>
</g>
</svg>
