<?xml version="1.0" encoding="UTF-8" standalone="no"?>
<!DOCTYPE svg PUBLIC "-//W3C//DTD SVG 1.1//EN"
 "http://www.w3.org/Graphics/SVG/1.1/DTD/svg11.dtd">
<!-- Generated by graphviz version 2.38.0 (20140413.2041)
 -->
<!-- Title: %3 Pages: 1 -->
<svg width="3382pt" height="404pt"
 viewBox="0.00 0.00 3381.89 404.00" xmlns="http://www.w3.org/2000/svg" xmlns:xlink="http://www.w3.org/1999/xlink">
<g id="graph0" class="graph" transform="scale(1 1) rotate(0) translate(4 400)">
<title>%3</title>
<polygon fill="white" stroke="none" points="-4,4 -4,-400 3377.89,-400 3377.89,4 -4,4"/>
<!-- StatMove10 -->
<g id="node1" class="node"><title>StatMove10</title>
<ellipse fill="none" stroke="black" cx="3065.95" cy="-306" rx="53.8905" ry="18"/>
<text text-anchor="middle" x="3065.95" y="-302.3" font-family="Times,serif" font-size="14.00">StatMove10</text>
</g>
<!-- ExpTemp21 -->
<g id="node2" class="node"><title>ExpTemp21</title>
<ellipse fill="none" stroke="black" cx="3065.95" cy="-234" rx="54.6905" ry="18"/>
<text text-anchor="middle" x="3065.95" y="-230.3" font-family="Times,serif" font-size="14.00">ExpTemp21</text>
</g>
<!-- StatMove10&#45;&gt;ExpTemp21 -->
<g id="edge1" class="edge"><title>StatMove10&#45;&gt;ExpTemp21</title>
<path fill="none" stroke="black" d="M3065.95,-287.697C3065.95,-279.983 3065.95,-270.712 3065.95,-262.112"/>
<polygon fill="black" stroke="black" points="3069.45,-262.104 3065.95,-252.104 3062.45,-262.104 3069.45,-262.104"/>
</g>
<!-- ExpTemp22 -->
<g id="node3" class="node"><title>ExpTemp22</title>
<ellipse fill="none" stroke="black" cx="3192.95" cy="-234" rx="54.6905" ry="18"/>
<text text-anchor="middle" x="3192.95" y="-230.3" font-family="Times,serif" font-size="14.00">ExpTemp22</text>
</g>
<!-- StatMove10&#45;&gt;ExpTemp22 -->
<g id="edge2" class="edge"><title>StatMove10&#45;&gt;ExpTemp22</title>
<path fill="none" stroke="black" d="M3092.57,-290.326C3111.24,-280.035 3136.42,-266.157 3156.89,-254.875"/>
<polygon fill="black" stroke="black" points="3158.85,-257.788 3165.92,-249.896 3155.47,-251.658 3158.85,-257.788"/>
</g>
<!-- Temp21: T76 -->
<g id="node71" class="node"><title>Temp21: T76</title>
<ellipse fill="none" stroke="black" cx="3125.95" cy="-162" rx="59.5901" ry="18"/>
<text text-anchor="middle" x="3125.95" y="-158.3" font-family="Times,serif" font-size="14.00">Temp21: T76</text>
</g>
<!-- ExpTemp21&#45;&gt;Temp21: T76 -->
<g id="edge61" class="edge"><title>ExpTemp21&#45;&gt;Temp21: T76</title>
<path fill="none" stroke="black" d="M3080.16,-216.411C3087.53,-207.82 3096.67,-197.159 3104.84,-187.627"/>
<polygon fill="black" stroke="black" points="3107.56,-189.827 3111.41,-179.956 3102.25,-185.271 3107.56,-189.827"/>
</g>
<!-- Temp22: T60 -->
<g id="node16" class="node"><title>Temp22: T60</title>
<ellipse fill="none" stroke="black" cx="3263.95" cy="-162" rx="59.5901" ry="18"/>
<text text-anchor="middle" x="3263.95" y="-158.3" font-family="Times,serif" font-size="14.00">Temp22: T60</text>
</g>
<!-- ExpTemp22&#45;&gt;Temp22: T60 -->
<g id="edge10" class="edge"><title>ExpTemp22&#45;&gt;Temp22: T60</title>
<path fill="none" stroke="black" d="M3209.41,-216.765C3218.42,-207.882 3229.75,-196.709 3239.75,-186.854"/>
<polygon fill="black" stroke="black" points="3242.41,-189.147 3247.07,-179.633 3237.5,-184.162 3242.41,-189.147"/>
</g>
<!-- StatMove4 -->
<g id="node4" class="node"><title>StatMove4</title>
<ellipse fill="none" stroke="black" cx="1380.95" cy="-306" rx="50.0912" ry="18"/>
<text text-anchor="middle" x="1380.95" y="-302.3" font-family="Times,serif" font-size="14.00">StatMove4</text>
</g>
<!-- ExpTemp7 -->
<g id="node5" class="node"><title>ExpTemp7</title>
<ellipse fill="none" stroke="black" cx="1258.95" cy="-234" rx="50.0912" ry="18"/>
<text text-anchor="middle" x="1258.95" y="-230.3" font-family="Times,serif" font-size="14.00">ExpTemp7</text>
</g>
<!-- StatMove4&#45;&gt;ExpTemp7 -->
<g id="edge3" class="edge"><title>StatMove4&#45;&gt;ExpTemp7</title>
<path fill="none" stroke="black" d="M1355.37,-290.326C1337.31,-279.965 1312.92,-265.969 1293.19,-254.646"/>
<polygon fill="black" stroke="black" points="1294.9,-251.596 1284.49,-249.655 1291.42,-257.668 1294.9,-251.596"/>
</g>
<!-- ExpMem1 -->
<g id="node6" class="node"><title>ExpMem1</title>
<ellipse fill="none" stroke="black" cx="1380.95" cy="-234" rx="48.9926" ry="18"/>
<text text-anchor="middle" x="1380.95" y="-230.3" font-family="Times,serif" font-size="14.00">ExpMem1</text>
</g>
<!-- StatMove4&#45;&gt;ExpMem1 -->
<g id="edge4" class="edge"><title>StatMove4&#45;&gt;ExpMem1</title>
<path fill="none" stroke="black" d="M1380.95,-287.697C1380.95,-279.983 1380.95,-270.712 1380.95,-262.112"/>
<polygon fill="black" stroke="black" points="1384.45,-262.104 1380.95,-252.104 1377.45,-262.104 1384.45,-262.104"/>
</g>
<!-- Temp7: T70 -->
<g id="node30" class="node"><title>Temp7: T70</title>
<ellipse fill="none" stroke="black" cx="1253.95" cy="-162" rx="55.4913" ry="18"/>
<text text-anchor="middle" x="1253.95" y="-158.3" font-family="Times,serif" font-size="14.00">Temp7: T70</text>
</g>
<!-- ExpTemp7&#45;&gt;Temp7: T70 -->
<g id="edge21" class="edge"><title>ExpTemp7&#45;&gt;Temp7: T70</title>
<path fill="none" stroke="black" d="M1257.71,-215.697C1257.16,-207.983 1256.5,-198.712 1255.88,-190.112"/>
<polygon fill="black" stroke="black" points="1259.37,-189.83 1255.17,-180.104 1252.39,-190.328 1259.37,-189.83"/>
</g>
<!-- ExpBinary1 -->
<g id="node53" class="node"><title>ExpBinary1</title>
<ellipse fill="none" stroke="black" cx="1380.95" cy="-162" rx="53.0913" ry="18"/>
<text text-anchor="middle" x="1380.95" y="-158.3" font-family="Times,serif" font-size="14.00">ExpBinary1</text>
</g>
<!-- ExpMem1&#45;&gt;ExpBinary1 -->
<g id="edge53" class="edge"><title>ExpMem1&#45;&gt;ExpBinary1</title>
<path fill="none" stroke="black" d="M1380.95,-215.697C1380.95,-207.983 1380.95,-198.712 1380.95,-190.112"/>
<polygon fill="black" stroke="black" points="1384.45,-190.104 1380.95,-180.104 1377.45,-190.104 1384.45,-190.104"/>
</g>
<!-- ExpMem0 -->
<g id="node7" class="node"><title>ExpMem0</title>
<ellipse fill="none" stroke="black" cx="292.945" cy="-234" rx="48.9926" ry="18"/>
<text text-anchor="middle" x="292.945" y="-230.3" font-family="Times,serif" font-size="14.00">ExpMem0</text>
</g>
<!-- ExpBinary0 -->
<g id="node8" class="node"><title>ExpBinary0</title>
<ellipse fill="none" stroke="black" cx="284.945" cy="-162" rx="53.0913" ry="18"/>
<text text-anchor="middle" x="284.945" y="-158.3" font-family="Times,serif" font-size="14.00">ExpBinary0</text>
</g>
<!-- ExpMem0&#45;&gt;ExpBinary0 -->
<g id="edge5" class="edge"><title>ExpMem0&#45;&gt;ExpBinary0</title>
<path fill="none" stroke="black" d="M290.968,-215.697C290.086,-207.983 289.027,-198.712 288.044,-190.112"/>
<polygon fill="black" stroke="black" points="291.513,-189.642 286.9,-180.104 284.558,-190.437 291.513,-189.642"/>
</g>
<!-- ExpTemp1 -->
<g id="node23" class="node"><title>ExpTemp1</title>
<ellipse fill="none" stroke="black" cx="185.945" cy="-90" rx="50.0912" ry="18"/>
<text text-anchor="middle" x="185.945" y="-86.3" font-family="Times,serif" font-size="14.00">ExpTemp1</text>
</g>
<!-- ExpBinary0&#45;&gt;ExpTemp1 -->
<g id="edge18" class="edge"><title>ExpBinary0&#45;&gt;ExpTemp1</title>
<path fill="none" stroke="black" d="M262.974,-145.465C249.164,-135.7 231.163,-122.972 216.036,-112.276"/>
<polygon fill="black" stroke="black" points="217.7,-109.167 207.514,-106.251 213.659,-114.882 217.7,-109.167"/>
</g>
<!-- Plus0 -->
<g id="node28" class="node"><title>Plus0</title>
<ellipse fill="none" stroke="black" cx="284.945" cy="-90" rx="30.5947" ry="18"/>
<text text-anchor="middle" x="284.945" y="-86.3" font-family="Times,serif" font-size="14.00">Plus0</text>
</g>
<!-- ExpBinary0&#45;&gt;Plus0 -->
<g id="edge19" class="edge"><title>ExpBinary0&#45;&gt;Plus0</title>
<path fill="none" stroke="black" d="M284.945,-143.697C284.945,-135.983 284.945,-126.712 284.945,-118.112"/>
<polygon fill="black" stroke="black" points="288.445,-118.104 284.945,-108.104 281.445,-118.104 288.445,-118.104"/>
</g>
<!-- ExpConst0 -->
<g id="node29" class="node"><title>ExpConst0</title>
<ellipse fill="none" stroke="black" cx="383.945" cy="-90" rx="50.0912" ry="18"/>
<text text-anchor="middle" x="383.945" y="-86.3" font-family="Times,serif" font-size="14.00">ExpConst0</text>
</g>
<!-- ExpBinary0&#45;&gt;ExpConst0 -->
<g id="edge20" class="edge"><title>ExpBinary0&#45;&gt;ExpConst0</title>
<path fill="none" stroke="black" d="M306.917,-145.465C320.726,-135.7 338.727,-122.972 353.855,-112.276"/>
<polygon fill="black" stroke="black" points="356.231,-114.882 362.376,-106.251 352.19,-109.167 356.231,-114.882"/>
</g>
<!-- StatMove7 -->
<g id="node9" class="node"><title>StatMove7</title>
<ellipse fill="none" stroke="black" cx="2135.95" cy="-306" rx="50.0912" ry="18"/>
<text text-anchor="middle" x="2135.95" y="-302.3" font-family="Times,serif" font-size="14.00">StatMove7</text>
</g>
<!-- ExpTemp14 -->
<g id="node10" class="node"><title>ExpTemp14</title>
<ellipse fill="none" stroke="black" cx="2135.95" cy="-234" rx="54.6905" ry="18"/>
<text text-anchor="middle" x="2135.95" y="-230.3" font-family="Times,serif" font-size="14.00">ExpTemp14</text>
</g>
<!-- StatMove7&#45;&gt;ExpTemp14 -->
<g id="edge6" class="edge"><title>StatMove7&#45;&gt;ExpTemp14</title>
<path fill="none" stroke="black" d="M2135.95,-287.697C2135.95,-279.983 2135.95,-270.712 2135.95,-262.112"/>
<polygon fill="black" stroke="black" points="2139.45,-262.104 2135.95,-252.104 2132.45,-262.104 2139.45,-262.104"/>
</g>
<!-- ExpName1 -->
<g id="node11" class="node"><title>ExpName1</title>
<ellipse fill="none" stroke="black" cx="2283.95" cy="-234" rx="50.8918" ry="18"/>
<text text-anchor="middle" x="2283.95" y="-230.3" font-family="Times,serif" font-size="14.00">ExpName1</text>
</g>
<!-- StatMove7&#45;&gt;ExpName1 -->
<g id="edge7" class="edge"><title>StatMove7&#45;&gt;ExpName1</title>
<path fill="none" stroke="black" d="M2165.19,-291.17C2188.19,-280.288 2220.45,-265.033 2245.54,-253.167"/>
<polygon fill="black" stroke="black" points="2247.22,-256.241 2254.77,-248.801 2244.23,-249.913 2247.22,-256.241"/>
</g>
<!-- Temp14: T72 -->
<g id="node25" class="node"><title>Temp14: T72</title>
<ellipse fill="none" stroke="black" cx="2135.95" cy="-162" rx="59.5901" ry="18"/>
<text text-anchor="middle" x="2135.95" y="-158.3" font-family="Times,serif" font-size="14.00">Temp14: T72</text>
</g>
<!-- ExpTemp14&#45;&gt;Temp14: T72 -->
<g id="edge16" class="edge"><title>ExpTemp14&#45;&gt;Temp14: T72</title>
<path fill="none" stroke="black" d="M2135.95,-215.697C2135.95,-207.983 2135.95,-198.712 2135.95,-190.112"/>
<polygon fill="black" stroke="black" points="2139.45,-190.104 2135.95,-180.104 2132.45,-190.104 2139.45,-190.104"/>
</g>
<!-- Label2: Tree@RecPrint -->
<g id="node79" class="node"><title>Label2: Tree@RecPrint</title>
<ellipse fill="none" stroke="black" cx="2308.95" cy="-162" rx="94.7833" ry="18"/>
<text text-anchor="middle" x="2308.95" y="-158.3" font-family="Times,serif" font-size="14.00">Label2: Tree@RecPrint</text>
</g>
<!-- ExpName1&#45;&gt;Label2: Tree@RecPrint -->
<g id="edge70" class="edge"><title>ExpName1&#45;&gt;Label2: Tree@RecPrint</title>
<path fill="none" stroke="black" d="M2290,-216.055C2292.81,-208.176 2296.23,-198.617 2299.38,-189.794"/>
<polygon fill="black" stroke="black" points="2302.71,-190.87 2302.78,-180.275 2296.12,-188.516 2302.71,-190.87"/>
</g>
<!-- ExpTemp4 -->
<g id="node12" class="node"><title>ExpTemp4</title>
<ellipse fill="none" stroke="black" cx="672.945" cy="-234" rx="50.0912" ry="18"/>
<text text-anchor="middle" x="672.945" y="-230.3" font-family="Times,serif" font-size="14.00">ExpTemp4</text>
</g>
<!-- Temp4: T71 -->
<g id="node13" class="node"><title>Temp4: T71</title>
<ellipse fill="none" stroke="black" cx="667.945" cy="-162" rx="55.4913" ry="18"/>
<text text-anchor="middle" x="667.945" y="-158.3" font-family="Times,serif" font-size="14.00">Temp4: T71</text>
</g>
<!-- ExpTemp4&#45;&gt;Temp4: T71 -->
<g id="edge8" class="edge"><title>ExpTemp4&#45;&gt;Temp4: T71</title>
<path fill="none" stroke="black" d="M671.709,-215.697C671.158,-207.983 670.496,-198.712 669.882,-190.112"/>
<polygon fill="black" stroke="black" points="673.371,-189.83 669.167,-180.104 666.388,-190.328 673.371,-189.83"/>
</g>
<!-- ExpName0 -->
<g id="node14" class="node"><title>ExpName0</title>
<ellipse fill="none" stroke="black" cx="1088.95" cy="-234" rx="50.8918" ry="18"/>
<text text-anchor="middle" x="1088.95" y="-230.3" font-family="Times,serif" font-size="14.00">ExpName0</text>
</g>
<!-- Label1: Tree@GetLeft -->
<g id="node15" class="node"><title>Label1: Tree@GetLeft</title>
<ellipse fill="none" stroke="black" cx="1088.95" cy="-162" rx="91.784" ry="18"/>
<text text-anchor="middle" x="1088.95" y="-158.3" font-family="Times,serif" font-size="14.00">Label1: Tree@GetLeft</text>
</g>
<!-- ExpName0&#45;&gt;Label1: Tree@GetLeft -->
<g id="edge9" class="edge"><title>ExpName0&#45;&gt;Label1: Tree@GetLeft</title>
<path fill="none" stroke="black" d="M1088.95,-215.697C1088.95,-207.983 1088.95,-198.712 1088.95,-190.112"/>
<polygon fill="black" stroke="black" points="1092.45,-190.104 1088.95,-180.104 1085.45,-190.104 1092.45,-190.104"/>
</g>
<!-- StatMove3 -->
<g id="node17" class="node"><title>StatMove3</title>
<ellipse fill="none" stroke="black" cx="1088.95" cy="-306" rx="50.0912" ry="18"/>
<text text-anchor="middle" x="1088.95" y="-302.3" font-family="Times,serif" font-size="14.00">StatMove3</text>
</g>
<!-- StatMove3&#45;&gt;ExpName0 -->
<g id="edge12" class="edge"><title>StatMove3&#45;&gt;ExpName0</title>
<path fill="none" stroke="black" d="M1088.95,-287.697C1088.95,-279.983 1088.95,-270.712 1088.95,-262.112"/>
<polygon fill="black" stroke="black" points="1092.45,-262.104 1088.95,-252.104 1085.45,-262.104 1092.45,-262.104"/>
</g>
<!-- ExpTemp6 -->
<g id="node18" class="node"><title>ExpTemp6</title>
<ellipse fill="none" stroke="black" cx="946.945" cy="-234" rx="50.0912" ry="18"/>
<text text-anchor="middle" x="946.945" y="-230.3" font-family="Times,serif" font-size="14.00">ExpTemp6</text>
</g>
<!-- StatMove3&#45;&gt;ExpTemp6 -->
<g id="edge11" class="edge"><title>StatMove3&#45;&gt;ExpTemp6</title>
<path fill="none" stroke="black" d="M1060.55,-291.003C1038.69,-280.225 1008.27,-265.23 984.41,-253.468"/>
<polygon fill="black" stroke="black" points="985.807,-250.255 975.291,-248.973 982.712,-256.534 985.807,-250.255"/>
</g>
<!-- Temp6: T69 -->
<g id="node73" class="node"><title>Temp6: T69</title>
<ellipse fill="none" stroke="black" cx="923.945" cy="-162" rx="55.4913" ry="18"/>
<text text-anchor="middle" x="923.945" y="-158.3" font-family="Times,serif" font-size="14.00">Temp6: T69</text>
</g>
<!-- ExpTemp6&#45;&gt;Temp6: T69 -->
<g id="edge64" class="edge"><title>ExpTemp6&#45;&gt;Temp6: T69</title>
<path fill="none" stroke="black" d="M941.378,-216.055C938.789,-208.176 935.648,-198.617 932.749,-189.794"/>
<polygon fill="black" stroke="black" points="936.068,-188.683 929.621,-180.275 929.418,-190.868 936.068,-188.683"/>
</g>
<!-- ExpTemp11 -->
<g id="node19" class="node"><title>ExpTemp11</title>
<ellipse fill="none" stroke="black" cx="1759.95" cy="-90" rx="54.6905" ry="18"/>
<text text-anchor="middle" x="1759.95" y="-86.3" font-family="Times,serif" font-size="14.00">ExpTemp11</text>
</g>
<!-- Temp11: T70 -->
<g id="node20" class="node"><title>Temp11: T70</title>
<ellipse fill="none" stroke="black" cx="1759.95" cy="-18" rx="59.5901" ry="18"/>
<text text-anchor="middle" x="1759.95" y="-14.3" font-family="Times,serif" font-size="14.00">Temp11: T70</text>
</g>
<!-- ExpTemp11&#45;&gt;Temp11: T70 -->
<g id="edge13" class="edge"><title>ExpTemp11&#45;&gt;Temp11: T70</title>
<path fill="none" stroke="black" d="M1759.95,-71.6966C1759.95,-63.9827 1759.95,-54.7125 1759.95,-46.1124"/>
<polygon fill="black" stroke="black" points="1763.45,-46.1043 1759.95,-36.1043 1756.45,-46.1044 1763.45,-46.1043"/>
</g>
<!-- ExpTemp5 -->
<g id="node21" class="node"><title>ExpTemp5</title>
<ellipse fill="none" stroke="black" cx="795.945" cy="-234" rx="50.0912" ry="18"/>
<text text-anchor="middle" x="795.945" y="-230.3" font-family="Times,serif" font-size="14.00">ExpTemp5</text>
</g>
<!-- Temp5: T59 -->
<g id="node22" class="node"><title>Temp5: T59</title>
<ellipse fill="none" stroke="black" cx="795.945" cy="-162" rx="55.4913" ry="18"/>
<text text-anchor="middle" x="795.945" y="-158.3" font-family="Times,serif" font-size="14.00">Temp5: T59</text>
</g>
<!-- ExpTemp5&#45;&gt;Temp5: T59 -->
<g id="edge14" class="edge"><title>ExpTemp5&#45;&gt;Temp5: T59</title>
<path fill="none" stroke="black" d="M795.945,-215.697C795.945,-207.983 795.945,-198.712 795.945,-190.112"/>
<polygon fill="black" stroke="black" points="799.445,-190.104 795.945,-180.104 792.445,-190.104 799.445,-190.104"/>
</g>
<!-- Temp1: $fp -->
<g id="node24" class="node"><title>Temp1: $fp</title>
<ellipse fill="none" stroke="black" cx="185.945" cy="-18" rx="52.7911" ry="18"/>
<text text-anchor="middle" x="185.945" y="-14.3" font-family="Times,serif" font-size="14.00">Temp1: $fp</text>
</g>
<!-- ExpTemp1&#45;&gt;Temp1: $fp -->
<g id="edge15" class="edge"><title>ExpTemp1&#45;&gt;Temp1: $fp</title>
<path fill="none" stroke="black" d="M185.945,-71.6966C185.945,-63.9827 185.945,-54.7125 185.945,-46.1124"/>
<polygon fill="black" stroke="black" points="189.445,-46.1043 185.945,-36.1043 182.445,-46.1044 189.445,-46.1043"/>
</g>
<!-- ExpTemp3 -->
<g id="node26" class="node"><title>ExpTemp3</title>
<ellipse fill="none" stroke="black" cx="539.945" cy="-234" rx="50.0912" ry="18"/>
<text text-anchor="middle" x="539.945" y="-230.3" font-family="Times,serif" font-size="14.00">ExpTemp3</text>
</g>
<!-- Temp3: T60 -->
<g id="node27" class="node"><title>Temp3: T60</title>
<ellipse fill="none" stroke="black" cx="539.945" cy="-162" rx="55.4913" ry="18"/>
<text text-anchor="middle" x="539.945" y="-158.3" font-family="Times,serif" font-size="14.00">Temp3: T60</text>
</g>
<!-- ExpTemp3&#45;&gt;Temp3: T60 -->
<g id="edge17" class="edge"><title>ExpTemp3&#45;&gt;Temp3: T60</title>
<path fill="none" stroke="black" d="M539.945,-215.697C539.945,-207.983 539.945,-198.712 539.945,-190.112"/>
<polygon fill="black" stroke="black" points="543.445,-190.104 539.945,-180.104 536.445,-190.104 543.445,-190.104"/>
</g>
<!-- Value0: 12 -->
<g id="node46" class="node"><title>Value0: 12</title>
<ellipse fill="none" stroke="black" cx="383.945" cy="-18" rx="50.0912" ry="18"/>
<text text-anchor="middle" x="383.945" y="-14.3" font-family="Times,serif" font-size="14.00">Value0: 12</text>
</g>
<!-- ExpConst0&#45;&gt;Value0: 12 -->
<g id="edge38" class="edge"><title>ExpConst0&#45;&gt;Value0: 12</title>
<path fill="none" stroke="black" d="M383.945,-71.6966C383.945,-63.9827 383.945,-54.7125 383.945,-46.1124"/>
<polygon fill="black" stroke="black" points="387.445,-46.1043 383.945,-36.1043 380.445,-46.1044 387.445,-46.1043"/>
</g>
<!-- ExpTemp0 -->
<g id="node31" class="node"><title>ExpTemp0</title>
<ellipse fill="none" stroke="black" cx="175.945" cy="-234" rx="50.0912" ry="18"/>
<text text-anchor="middle" x="175.945" y="-230.3" font-family="Times,serif" font-size="14.00">ExpTemp0</text>
</g>
<!-- Temp0: T76 -->
<g id="node32" class="node"><title>Temp0: T76</title>
<ellipse fill="none" stroke="black" cx="157.945" cy="-162" rx="55.4913" ry="18"/>
<text text-anchor="middle" x="157.945" y="-158.3" font-family="Times,serif" font-size="14.00">Temp0: T76</text>
</g>
<!-- ExpTemp0&#45;&gt;Temp0: T76 -->
<g id="edge22" class="edge"><title>ExpTemp0&#45;&gt;Temp0: T76</title>
<path fill="none" stroke="black" d="M171.588,-216.055C169.584,-208.261 167.157,-198.822 164.908,-190.079"/>
<polygon fill="black" stroke="black" points="168.268,-189.089 162.387,-180.275 161.488,-190.832 168.268,-189.089"/>
</g>
<!-- ExpTemp20 -->
<g id="node33" class="node"><title>ExpTemp20</title>
<ellipse fill="none" stroke="black" cx="3136.95" cy="-90" rx="54.6905" ry="18"/>
<text text-anchor="middle" x="3136.95" y="-86.3" font-family="Times,serif" font-size="14.00">ExpTemp20</text>
</g>
<!-- Temp20: T74 -->
<g id="node34" class="node"><title>Temp20: T74</title>
<ellipse fill="none" stroke="black" cx="3139.95" cy="-18" rx="59.5901" ry="18"/>
<text text-anchor="middle" x="3139.95" y="-14.3" font-family="Times,serif" font-size="14.00">Temp20: T74</text>
</g>
<!-- ExpTemp20&#45;&gt;Temp20: T74 -->
<g id="edge23" class="edge"><title>ExpTemp20&#45;&gt;Temp20: T74</title>
<path fill="none" stroke="black" d="M3137.69,-71.6966C3138.02,-63.9827 3138.41,-54.7125 3138.78,-46.1124"/>
<polygon fill="black" stroke="black" points="3142.28,-46.2451 3139.21,-36.1043 3135.29,-45.9453 3142.28,-46.2451"/>
</g>
<!-- StatList0 -->
<g id="node35" class="node"><title>StatList0</title>
<ellipse fill="none" stroke="black" cx="1575.95" cy="-378" rx="42.4939" ry="18"/>
<text text-anchor="middle" x="1575.95" y="-374.3" font-family="Times,serif" font-size="14.00">StatList0</text>
</g>
<!-- StatList0&#45;&gt;StatMove10 -->
<g id="edge35" class="edge"><title>StatList0&#45;&gt;StatMove10</title>
<path fill="none" stroke="black" d="M1618.02,-375.592C1775.71,-370.234 2346.75,-350.087 2816.95,-324 2880.69,-320.463 2953.55,-315.366 3003.91,-311.676"/>
<polygon fill="black" stroke="black" points="3004.27,-315.159 3013.99,-310.935 3003.76,-308.178 3004.27,-315.159"/>
</g>
<!-- StatList0&#45;&gt;StatMove4 -->
<g id="edge29" class="edge"><title>StatList0&#45;&gt;StatMove4</title>
<path fill="none" stroke="black" d="M1544.62,-365.753C1512.24,-354.131 1461.43,-335.892 1425.01,-322.819"/>
<polygon fill="black" stroke="black" points="1425.74,-319.363 1415.15,-319.279 1423.38,-325.952 1425.74,-319.363"/>
</g>
<!-- StatList0&#45;&gt;StatMove7 -->
<g id="edge32" class="edge"><title>StatList0&#45;&gt;StatMove7</title>
<path fill="none" stroke="black" d="M1616.22,-371.966C1714.35,-359.7 1966.03,-328.239 2079.26,-314.086"/>
<polygon fill="black" stroke="black" points="2079.96,-317.525 2089.45,-312.812 2079.09,-310.579 2079.96,-317.525"/>
</g>
<!-- StatList0&#45;&gt;StatMove3 -->
<g id="edge28" class="edge"><title>StatList0&#45;&gt;StatMove3</title>
<path fill="none" stroke="black" d="M1536.5,-371.331C1450.23,-358.93 1244.51,-329.36 1144.89,-315.042"/>
<polygon fill="black" stroke="black" points="1145.12,-311.539 1134.73,-313.58 1144.13,-318.468 1145.12,-311.539"/>
</g>
<!-- StatLabel0 -->
<g id="node36" class="node"><title>StatLabel0</title>
<ellipse fill="none" stroke="black" cx="114.945" cy="-306" rx="48.9926" ry="18"/>
<text text-anchor="middle" x="114.945" y="-302.3" font-family="Times,serif" font-size="14.00">StatLabel0</text>
</g>
<!-- StatList0&#45;&gt;StatLabel0 -->
<g id="edge24" class="edge"><title>StatList0&#45;&gt;StatLabel0</title>
<path fill="none" stroke="black" d="M1533.54,-376.904C1367.31,-376.194 744.226,-370.402 233.945,-324 212.432,-322.044 188.86,-318.89 168.412,-315.827"/>
<polygon fill="black" stroke="black" points="168.754,-312.339 158.341,-314.289 167.697,-319.259 168.754,-312.339"/>
</g>
<!-- StatMove0 -->
<g id="node37" class="node"><title>StatMove0</title>
<ellipse fill="none" stroke="black" cx="292.945" cy="-306" rx="50.0912" ry="18"/>
<text text-anchor="middle" x="292.945" y="-302.3" font-family="Times,serif" font-size="14.00">StatMove0</text>
</g>
<!-- StatList0&#45;&gt;StatMove0 -->
<g id="edge25" class="edge"><title>StatList0&#45;&gt;StatMove0</title>
<path fill="none" stroke="black" d="M1533.88,-375.598C1388.08,-370.603 890.828,-352.439 480.945,-324 437.165,-320.962 387.746,-316.451 350.567,-312.839"/>
<polygon fill="black" stroke="black" points="350.713,-309.337 340.42,-311.846 350.031,-316.303 350.713,-309.337"/>
</g>
<!-- StatMove1 -->
<g id="node38" class="node"><title>StatMove1</title>
<ellipse fill="none" stroke="black" cx="539.945" cy="-306" rx="50.0912" ry="18"/>
<text text-anchor="middle" x="539.945" y="-302.3" font-family="Times,serif" font-size="14.00">StatMove1</text>
</g>
<!-- StatList0&#45;&gt;StatMove1 -->
<g id="edge26" class="edge"><title>StatList0&#45;&gt;StatMove1</title>
<path fill="none" stroke="black" d="M1534.02,-374.693C1411.36,-367.872 1042.59,-346.838 736.945,-324 690.122,-320.501 637.097,-315.888 597.863,-312.351"/>
<polygon fill="black" stroke="black" points="597.965,-308.846 587.69,-311.429 597.334,-315.817 597.965,-308.846"/>
</g>
<!-- StatMove2 -->
<g id="node39" class="node"><title>StatMove2</title>
<ellipse fill="none" stroke="black" cx="795.945" cy="-306" rx="50.0912" ry="18"/>
<text text-anchor="middle" x="795.945" y="-302.3" font-family="Times,serif" font-size="14.00">StatMove2</text>
</g>
<!-- StatList0&#45;&gt;StatMove2 -->
<g id="edge27" class="edge"><title>StatList0&#45;&gt;StatMove2</title>
<path fill="none" stroke="black" d="M1535.11,-373.335C1405.72,-361.724 1004.55,-325.721 853.901,-312.201"/>
<polygon fill="black" stroke="black" points="854.192,-308.713 843.919,-311.305 853.567,-315.685 854.192,-308.713"/>
</g>
<!-- StatMove5 -->
<g id="node40" class="node"><title>StatMove5</title>
<ellipse fill="none" stroke="black" cx="1575.95" cy="-306" rx="50.0912" ry="18"/>
<text text-anchor="middle" x="1575.95" y="-302.3" font-family="Times,serif" font-size="14.00">StatMove5</text>
</g>
<!-- StatList0&#45;&gt;StatMove5 -->
<g id="edge30" class="edge"><title>StatList0&#45;&gt;StatMove5</title>
<path fill="none" stroke="black" d="M1575.95,-359.697C1575.95,-351.983 1575.95,-342.712 1575.95,-334.112"/>
<polygon fill="black" stroke="black" points="1579.45,-334.104 1575.95,-324.104 1572.45,-334.104 1579.45,-334.104"/>
</g>
<!-- StatMove6 -->
<g id="node41" class="node"><title>StatMove6</title>
<ellipse fill="none" stroke="black" cx="1871.95" cy="-306" rx="50.0912" ry="18"/>
<text text-anchor="middle" x="1871.95" y="-302.3" font-family="Times,serif" font-size="14.00">StatMove6</text>
</g>
<!-- StatList0&#45;&gt;StatMove6 -->
<g id="edge31" class="edge"><title>StatList0&#45;&gt;StatMove6</title>
<path fill="none" stroke="black" d="M1611.94,-368.487C1664.23,-356.121 1761.43,-333.135 1821.04,-319.039"/>
<polygon fill="black" stroke="black" points="1822.06,-322.394 1830.99,-316.686 1820.45,-315.582 1822.06,-322.394"/>
</g>
<!-- StatMove8 -->
<g id="node42" class="node"><title>StatMove8</title>
<ellipse fill="none" stroke="black" cx="2481.95" cy="-306" rx="50.0912" ry="18"/>
<text text-anchor="middle" x="2481.95" y="-302.3" font-family="Times,serif" font-size="14.00">StatMove8</text>
</g>
<!-- StatList0&#45;&gt;StatMove8 -->
<g id="edge33" class="edge"><title>StatList0&#45;&gt;StatMove8</title>
<path fill="none" stroke="black" d="M1617.23,-373.81C1762.93,-362.553 2253.46,-324.654 2423.4,-311.523"/>
<polygon fill="black" stroke="black" points="2423.71,-315.01 2433.41,-310.75 2423.17,-308.031 2423.71,-315.01"/>
</g>
<!-- StatMove9 -->
<g id="node43" class="node"><title>StatMove9</title>
<ellipse fill="none" stroke="black" cx="2757.95" cy="-306" rx="50.0912" ry="18"/>
<text text-anchor="middle" x="2757.95" y="-302.3" font-family="Times,serif" font-size="14.00">StatMove9</text>
</g>
<!-- StatList0&#45;&gt;StatMove9 -->
<g id="edge34" class="edge"><title>StatList0&#45;&gt;StatMove9</title>
<path fill="none" stroke="black" d="M1617.82,-375.05C1752.09,-368.721 2183.93,-347.785 2540.95,-324 2594.7,-320.419 2655.89,-315.554 2699.55,-311.946"/>
<polygon fill="black" stroke="black" points="2700.03,-315.418 2709.7,-311.103 2699.45,-308.442 2700.03,-315.418"/>
</g>
<!-- StatJump0 -->
<g id="node44" class="node"><title>StatJump0</title>
<ellipse fill="none" stroke="black" cx="3252.95" cy="-306" rx="48.1917" ry="18"/>
<text text-anchor="middle" x="3252.95" y="-302.3" font-family="Times,serif" font-size="14.00">StatJump0</text>
</g>
<!-- StatList0&#45;&gt;StatJump0 -->
<g id="edge36" class="edge"><title>StatList0&#45;&gt;StatJump0</title>
<path fill="none" stroke="black" d="M1618.35,-377.139C1800.1,-377.399 2531.21,-375.039 3128.95,-324 3152.21,-322.013 3177.8,-318.698 3199.66,-315.52"/>
<polygon fill="black" stroke="black" points="3200.36,-318.955 3209.74,-314.027 3199.33,-312.03 3200.36,-318.955"/>
</g>
<!-- Label0: L73 -->
<g id="node45" class="node"><title>Label0: L73</title>
<ellipse fill="none" stroke="black" cx="53.9452" cy="-234" rx="53.8905" ry="18"/>
<text text-anchor="middle" x="53.9452" y="-230.3" font-family="Times,serif" font-size="14.00">Label0: L73</text>
</g>
<!-- StatLabel0&#45;&gt;Label0: L73 -->
<g id="edge37" class="edge"><title>StatLabel0&#45;&gt;Label0: L73</title>
<path fill="none" stroke="black" d="M100.797,-288.765C93.2083,-280.056 83.7016,-269.147 75.2386,-259.435"/>
<polygon fill="black" stroke="black" points="77.6485,-256.873 68.44,-251.633 72.3712,-261.472 77.6485,-256.873"/>
</g>
<!-- StatMove0&#45;&gt;ExpMem0 -->
<g id="edge72" class="edge"><title>StatMove0&#45;&gt;ExpMem0</title>
<path fill="none" stroke="black" d="M292.945,-287.697C292.945,-279.983 292.945,-270.712 292.945,-262.112"/>
<polygon fill="black" stroke="black" points="296.445,-262.104 292.945,-252.104 289.445,-262.104 296.445,-262.104"/>
</g>
<!-- StatMove0&#45;&gt;ExpTemp0 -->
<g id="edge71" class="edge"><title>StatMove0&#45;&gt;ExpTemp0</title>
<path fill="none" stroke="black" d="M268.133,-290.155C251.069,-279.946 228.206,-266.267 209.517,-255.086"/>
<polygon fill="black" stroke="black" points="211.101,-251.955 200.722,-249.824 207.507,-257.962 211.101,-251.955"/>
</g>
<!-- StatMove1&#45;&gt;ExpTemp3 -->
<g id="edge49" class="edge"><title>StatMove1&#45;&gt;ExpTemp3</title>
<path fill="none" stroke="black" d="M539.945,-287.697C539.945,-279.983 539.945,-270.712 539.945,-262.112"/>
<polygon fill="black" stroke="black" points="543.445,-262.104 539.945,-252.104 536.445,-262.104 543.445,-262.104"/>
</g>
<!-- ExpTemp2 -->
<g id="node47" class="node"><title>ExpTemp2</title>
<ellipse fill="none" stroke="black" cx="416.945" cy="-234" rx="50.0912" ry="18"/>
<text text-anchor="middle" x="416.945" y="-230.3" font-family="Times,serif" font-size="14.00">ExpTemp2</text>
</g>
<!-- StatMove1&#45;&gt;ExpTemp2 -->
<g id="edge48" class="edge"><title>StatMove1&#45;&gt;ExpTemp2</title>
<path fill="none" stroke="black" d="M514.46,-290.496C496.275,-280.147 471.605,-266.107 451.629,-254.739"/>
<polygon fill="black" stroke="black" points="453.244,-251.631 442.821,-249.726 449.781,-257.714 453.244,-251.631"/>
</g>
<!-- StatMove2&#45;&gt;ExpTemp4 -->
<g id="edge78" class="edge"><title>StatMove2&#45;&gt;ExpTemp4</title>
<path fill="none" stroke="black" d="M770.46,-290.496C752.275,-280.147 727.605,-266.107 707.629,-254.739"/>
<polygon fill="black" stroke="black" points="709.244,-251.631 698.821,-249.726 705.781,-257.714 709.244,-251.631"/>
</g>
<!-- StatMove2&#45;&gt;ExpTemp5 -->
<g id="edge79" class="edge"><title>StatMove2&#45;&gt;ExpTemp5</title>
<path fill="none" stroke="black" d="M795.945,-287.697C795.945,-279.983 795.945,-270.712 795.945,-262.112"/>
<polygon fill="black" stroke="black" points="799.445,-262.104 795.945,-252.104 792.445,-262.104 799.445,-262.104"/>
</g>
<!-- ExpTemp9 -->
<g id="node61" class="node"><title>ExpTemp9</title>
<ellipse fill="none" stroke="black" cx="1515.95" cy="-234" rx="50.0912" ry="18"/>
<text text-anchor="middle" x="1515.95" y="-230.3" font-family="Times,serif" font-size="14.00">ExpTemp9</text>
</g>
<!-- StatMove5&#45;&gt;ExpTemp9 -->
<g id="edge51" class="edge"><title>StatMove5&#45;&gt;ExpTemp9</title>
<path fill="none" stroke="black" d="M1561.73,-288.411C1554.25,-279.693 1544.96,-268.845 1536.69,-259.208"/>
<polygon fill="black" stroke="black" points="1539.23,-256.785 1530.06,-251.47 1533.91,-261.34 1539.23,-256.785"/>
</g>
<!-- ExpCall0 -->
<g id="node62" class="node"><title>ExpCall0</title>
<ellipse fill="none" stroke="black" cx="1635.95" cy="-234" rx="44.393" ry="18"/>
<text text-anchor="middle" x="1635.95" y="-230.3" font-family="Times,serif" font-size="14.00">ExpCall0</text>
</g>
<!-- StatMove5&#45;&gt;ExpCall0 -->
<g id="edge52" class="edge"><title>StatMove5&#45;&gt;ExpCall0</title>
<path fill="none" stroke="black" d="M1590.16,-288.411C1597.64,-279.693 1606.93,-268.845 1615.2,-259.208"/>
<polygon fill="black" stroke="black" points="1617.98,-261.34 1621.83,-251.47 1612.66,-256.785 1617.98,-261.34"/>
</g>
<!-- ExpTemp12 -->
<g id="node67" class="node"><title>ExpTemp12</title>
<ellipse fill="none" stroke="black" cx="1871.95" cy="-234" rx="54.6905" ry="18"/>
<text text-anchor="middle" x="1871.95" y="-230.3" font-family="Times,serif" font-size="14.00">ExpTemp12</text>
</g>
<!-- StatMove6&#45;&gt;ExpTemp12 -->
<g id="edge65" class="edge"><title>StatMove6&#45;&gt;ExpTemp12</title>
<path fill="none" stroke="black" d="M1871.95,-287.697C1871.95,-279.983 1871.95,-270.712 1871.95,-262.112"/>
<polygon fill="black" stroke="black" points="1875.45,-262.104 1871.95,-252.104 1868.45,-262.104 1875.45,-262.104"/>
</g>
<!-- ExpMem2 -->
<g id="node69" class="node"><title>ExpMem2</title>
<ellipse fill="none" stroke="black" cx="1998.95" cy="-234" rx="48.9926" ry="18"/>
<text text-anchor="middle" x="1998.95" y="-230.3" font-family="Times,serif" font-size="14.00">ExpMem2</text>
</g>
<!-- StatMove6&#45;&gt;ExpMem2 -->
<g id="edge66" class="edge"><title>StatMove6&#45;&gt;ExpMem2</title>
<path fill="none" stroke="black" d="M1898.26,-290.496C1917.25,-280.031 1943.08,-265.791 1963.83,-254.356"/>
<polygon fill="black" stroke="black" points="1965.6,-257.378 1972.66,-249.485 1962.22,-251.247 1965.6,-257.378"/>
</g>
<!-- ExpTemp16 -->
<g id="node75" class="node"><title>ExpTemp16</title>
<ellipse fill="none" stroke="black" cx="2614.95" cy="-234" rx="54.6905" ry="18"/>
<text text-anchor="middle" x="2614.95" y="-230.3" font-family="Times,serif" font-size="14.00">ExpTemp16</text>
</g>
<!-- StatMove8&#45;&gt;ExpTemp16 -->
<g id="edge74" class="edge"><title>StatMove8&#45;&gt;ExpTemp16</title>
<path fill="none" stroke="black" d="M2509.18,-290.666C2529.13,-280.166 2556.42,-265.8 2578.29,-254.293"/>
<polygon fill="black" stroke="black" points="2580.07,-257.311 2587.29,-249.556 2576.81,-251.116 2580.07,-257.311"/>
</g>
<!-- ExpTemp15 -->
<g id="node77" class="node"><title>ExpTemp15</title>
<ellipse fill="none" stroke="black" cx="2481.95" cy="-234" rx="54.6905" ry="18"/>
<text text-anchor="middle" x="2481.95" y="-230.3" font-family="Times,serif" font-size="14.00">ExpTemp15</text>
</g>
<!-- StatMove8&#45;&gt;ExpTemp15 -->
<g id="edge73" class="edge"><title>StatMove8&#45;&gt;ExpTemp15</title>
<path fill="none" stroke="black" d="M2481.95,-287.697C2481.95,-279.983 2481.95,-270.712 2481.95,-262.112"/>
<polygon fill="black" stroke="black" points="2485.45,-262.104 2481.95,-252.104 2478.45,-262.104 2485.45,-262.104"/>
</g>
<!-- ExpTemp17 -->
<g id="node63" class="node"><title>ExpTemp17</title>
<ellipse fill="none" stroke="black" cx="2757.95" cy="-234" rx="54.6905" ry="18"/>
<text text-anchor="middle" x="2757.95" y="-230.3" font-family="Times,serif" font-size="14.00">ExpTemp17</text>
</g>
<!-- StatMove9&#45;&gt;ExpTemp17 -->
<g id="edge54" class="edge"><title>StatMove9&#45;&gt;ExpTemp17</title>
<path fill="none" stroke="black" d="M2757.95,-287.697C2757.95,-279.983 2757.95,-270.712 2757.95,-262.112"/>
<polygon fill="black" stroke="black" points="2761.45,-262.104 2757.95,-252.104 2754.45,-262.104 2761.45,-262.104"/>
</g>
<!-- ExpCall1 -->
<g id="node64" class="node"><title>ExpCall1</title>
<ellipse fill="none" stroke="black" cx="2889.95" cy="-234" rx="44.393" ry="18"/>
<text text-anchor="middle" x="2889.95" y="-230.3" font-family="Times,serif" font-size="14.00">ExpCall1</text>
</g>
<!-- StatMove9&#45;&gt;ExpCall1 -->
<g id="edge55" class="edge"><title>StatMove9&#45;&gt;ExpCall1</title>
<path fill="none" stroke="black" d="M2784.98,-290.666C2805.17,-279.956 2832.95,-265.224 2854.86,-253.606"/>
<polygon fill="black" stroke="black" points="2856.66,-256.615 2863.85,-248.838 2853.38,-250.431 2856.66,-256.615"/>
</g>
<!-- Label3: L75 -->
<g id="node80" class="node"><title>Label3: L75</title>
<ellipse fill="none" stroke="black" cx="3319.95" cy="-234" rx="53.8905" ry="18"/>
<text text-anchor="middle" x="3319.95" y="-230.3" font-family="Times,serif" font-size="14.00">Label3: L75</text>
</g>
<!-- StatJump0&#45;&gt;Label3: L75 -->
<g id="edge75" class="edge"><title>StatJump0&#45;&gt;Label3: L75</title>
<path fill="none" stroke="black" d="M3268.48,-288.765C3276.9,-279.969 3287.47,-268.928 3296.84,-259.144"/>
<polygon fill="black" stroke="black" points="3299.64,-261.278 3304.02,-251.633 3294.58,-256.437 3299.64,-261.278"/>
</g>
<!-- Temp2: T75 -->
<g id="node48" class="node"><title>Temp2: T75</title>
<ellipse fill="none" stroke="black" cx="411.945" cy="-162" rx="55.4913" ry="18"/>
<text text-anchor="middle" x="411.945" y="-158.3" font-family="Times,serif" font-size="14.00">Temp2: T75</text>
</g>
<!-- ExpTemp2&#45;&gt;Temp2: T75 -->
<g id="edge39" class="edge"><title>ExpTemp2&#45;&gt;Temp2: T75</title>
<path fill="none" stroke="black" d="M415.709,-215.697C415.158,-207.983 414.496,-198.712 413.882,-190.112"/>
<polygon fill="black" stroke="black" points="417.371,-189.83 413.167,-180.104 410.388,-190.328 417.371,-189.83"/>
</g>
<!-- ExpTemp10 -->
<g id="node49" class="node"><title>ExpTemp10</title>
<ellipse fill="none" stroke="black" cx="1635.95" cy="-162" rx="54.6905" ry="18"/>
<text text-anchor="middle" x="1635.95" y="-158.3" font-family="Times,serif" font-size="14.00">ExpTemp10</text>
</g>
<!-- Temp10: T69 -->
<g id="node50" class="node"><title>Temp10: T69</title>
<ellipse fill="none" stroke="black" cx="1627.95" cy="-90" rx="59.5901" ry="18"/>
<text text-anchor="middle" x="1627.95" y="-86.3" font-family="Times,serif" font-size="14.00">Temp10: T69</text>
</g>
<!-- ExpTemp10&#45;&gt;Temp10: T69 -->
<g id="edge40" class="edge"><title>ExpTemp10&#45;&gt;Temp10: T69</title>
<path fill="none" stroke="black" d="M1633.97,-143.697C1633.09,-135.983 1632.03,-126.712 1631.04,-118.112"/>
<polygon fill="black" stroke="black" points="1634.51,-117.642 1629.9,-108.104 1627.56,-118.437 1634.51,-117.642"/>
</g>
<!-- ExpList1 -->
<g id="node51" class="node"><title>ExpList1</title>
<ellipse fill="none" stroke="black" cx="3004.95" cy="-162" rx="42.7926" ry="18"/>
<text text-anchor="middle" x="3004.95" y="-158.3" font-family="Times,serif" font-size="14.00">ExpList1</text>
</g>
<!-- ExpList1&#45;&gt;ExpTemp20 -->
<g id="edge42" class="edge"><title>ExpList1&#45;&gt;ExpTemp20</title>
<path fill="none" stroke="black" d="M3030.4,-147.503C3050.28,-136.958 3078.18,-122.161 3100.45,-110.354"/>
<polygon fill="black" stroke="black" points="3102.1,-113.441 3109.29,-105.664 3098.82,-107.257 3102.1,-113.441"/>
</g>
<!-- ExpTemp19 -->
<g id="node52" class="node"><title>ExpTemp19</title>
<ellipse fill="none" stroke="black" cx="3004.95" cy="-90" rx="54.6905" ry="18"/>
<text text-anchor="middle" x="3004.95" y="-86.3" font-family="Times,serif" font-size="14.00">ExpTemp19</text>
</g>
<!-- ExpList1&#45;&gt;ExpTemp19 -->
<g id="edge41" class="edge"><title>ExpList1&#45;&gt;ExpTemp19</title>
<path fill="none" stroke="black" d="M3004.95,-143.697C3004.95,-135.983 3004.95,-126.712 3004.95,-118.112"/>
<polygon fill="black" stroke="black" points="3008.45,-118.104 3004.95,-108.104 3001.45,-118.104 3008.45,-118.104"/>
</g>
<!-- Temp19: T73 -->
<g id="node81" class="node"><title>Temp19: T73</title>
<ellipse fill="none" stroke="black" cx="3001.95" cy="-18" rx="59.5901" ry="18"/>
<text text-anchor="middle" x="3001.95" y="-14.3" font-family="Times,serif" font-size="14.00">Temp19: T73</text>
</g>
<!-- ExpTemp19&#45;&gt;Temp19: T73 -->
<g id="edge80" class="edge"><title>ExpTemp19&#45;&gt;Temp19: T73</title>
<path fill="none" stroke="black" d="M3004.2,-71.6966C3003.87,-63.9827 3003.48,-54.7125 3003.11,-46.1124"/>
<polygon fill="black" stroke="black" points="3006.6,-45.9453 3002.68,-36.1043 2999.61,-46.2451 3006.6,-45.9453"/>
</g>
<!-- ExpTemp8 -->
<g id="node54" class="node"><title>ExpTemp8</title>
<ellipse fill="none" stroke="black" cx="1281.95" cy="-90" rx="50.0912" ry="18"/>
<text text-anchor="middle" x="1281.95" y="-86.3" font-family="Times,serif" font-size="14.00">ExpTemp8</text>
</g>
<!-- ExpBinary1&#45;&gt;ExpTemp8 -->
<g id="edge43" class="edge"><title>ExpBinary1&#45;&gt;ExpTemp8</title>
<path fill="none" stroke="black" d="M1358.97,-145.465C1345.16,-135.7 1327.16,-122.972 1312.04,-112.276"/>
<polygon fill="black" stroke="black" points="1313.7,-109.167 1303.51,-106.251 1309.66,-114.882 1313.7,-109.167"/>
</g>
<!-- Plus1 -->
<g id="node55" class="node"><title>Plus1</title>
<ellipse fill="none" stroke="black" cx="1380.95" cy="-90" rx="30.5947" ry="18"/>
<text text-anchor="middle" x="1380.95" y="-86.3" font-family="Times,serif" font-size="14.00">Plus1</text>
</g>
<!-- ExpBinary1&#45;&gt;Plus1 -->
<g id="edge44" class="edge"><title>ExpBinary1&#45;&gt;Plus1</title>
<path fill="none" stroke="black" d="M1380.95,-143.697C1380.95,-135.983 1380.95,-126.712 1380.95,-118.112"/>
<polygon fill="black" stroke="black" points="1384.45,-118.104 1380.95,-108.104 1377.45,-118.104 1384.45,-118.104"/>
</g>
<!-- ExpConst1 -->
<g id="node56" class="node"><title>ExpConst1</title>
<ellipse fill="none" stroke="black" cx="1479.95" cy="-90" rx="50.0912" ry="18"/>
<text text-anchor="middle" x="1479.95" y="-86.3" font-family="Times,serif" font-size="14.00">ExpConst1</text>
</g>
<!-- ExpBinary1&#45;&gt;ExpConst1 -->
<g id="edge45" class="edge"><title>ExpBinary1&#45;&gt;ExpConst1</title>
<path fill="none" stroke="black" d="M1402.92,-145.465C1416.73,-135.7 1434.73,-122.972 1449.85,-112.276"/>
<polygon fill="black" stroke="black" points="1452.23,-114.882 1458.38,-106.251 1448.19,-109.167 1452.23,-114.882"/>
</g>
<!-- Temp8: $fp -->
<g id="node59" class="node"><title>Temp8: $fp</title>
<ellipse fill="none" stroke="black" cx="1281.95" cy="-18" rx="52.7911" ry="18"/>
<text text-anchor="middle" x="1281.95" y="-14.3" font-family="Times,serif" font-size="14.00">Temp8: $fp</text>
</g>
<!-- ExpTemp8&#45;&gt;Temp8: $fp -->
<g id="edge47" class="edge"><title>ExpTemp8&#45;&gt;Temp8: $fp</title>
<path fill="none" stroke="black" d="M1281.95,-71.6966C1281.95,-63.9827 1281.95,-54.7125 1281.95,-46.1124"/>
<polygon fill="black" stroke="black" points="1285.45,-46.1043 1281.95,-36.1043 1278.45,-46.1044 1285.45,-46.1043"/>
</g>
<!-- Value1: 4 -->
<g id="node60" class="node"><title>Value1: 4</title>
<ellipse fill="none" stroke="black" cx="1479.95" cy="-18" rx="45.4919" ry="18"/>
<text text-anchor="middle" x="1479.95" y="-14.3" font-family="Times,serif" font-size="14.00">Value1: 4</text>
</g>
<!-- ExpConst1&#45;&gt;Value1: 4 -->
<g id="edge50" class="edge"><title>ExpConst1&#45;&gt;Value1: 4</title>
<path fill="none" stroke="black" d="M1479.95,-71.6966C1479.95,-63.9827 1479.95,-54.7125 1479.95,-46.1124"/>
<polygon fill="black" stroke="black" points="1483.45,-46.1043 1479.95,-36.1043 1476.45,-46.1044 1483.45,-46.1043"/>
</g>
<!-- ExpTemp18 -->
<g id="node57" class="node"><title>ExpTemp18</title>
<ellipse fill="none" stroke="black" cx="2889.95" cy="-162" rx="54.6905" ry="18"/>
<text text-anchor="middle" x="2889.95" y="-158.3" font-family="Times,serif" font-size="14.00">ExpTemp18</text>
</g>
<!-- Temp18: T72 -->
<g id="node58" class="node"><title>Temp18: T72</title>
<ellipse fill="none" stroke="black" cx="2872.95" cy="-90" rx="59.5901" ry="18"/>
<text text-anchor="middle" x="2872.95" y="-86.3" font-family="Times,serif" font-size="14.00">Temp18: T72</text>
</g>
<!-- ExpTemp18&#45;&gt;Temp18: T72 -->
<g id="edge46" class="edge"><title>ExpTemp18&#45;&gt;Temp18: T72</title>
<path fill="none" stroke="black" d="M2885.74,-143.697C2883.85,-135.898 2881.57,-126.509 2879.46,-117.829"/>
<polygon fill="black" stroke="black" points="2882.86,-116.996 2877.1,-108.104 2876.06,-118.648 2882.86,-116.996"/>
</g>
<!-- Temp9: T71 -->
<g id="node65" class="node"><title>Temp9: T71</title>
<ellipse fill="none" stroke="black" cx="1507.95" cy="-162" rx="55.4913" ry="18"/>
<text text-anchor="middle" x="1507.95" y="-158.3" font-family="Times,serif" font-size="14.00">Temp9: T71</text>
</g>
<!-- ExpTemp9&#45;&gt;Temp9: T71 -->
<g id="edge56" class="edge"><title>ExpTemp9&#45;&gt;Temp9: T71</title>
<path fill="none" stroke="black" d="M1513.97,-215.697C1513.09,-207.983 1512.03,-198.712 1511.04,-190.112"/>
<polygon fill="black" stroke="black" points="1514.51,-189.642 1509.9,-180.104 1507.56,-190.437 1514.51,-189.642"/>
</g>
<!-- ExpCall0&#45;&gt;ExpTemp10 -->
<g id="edge57" class="edge"><title>ExpCall0&#45;&gt;ExpTemp10</title>
<path fill="none" stroke="black" d="M1635.95,-215.697C1635.95,-207.983 1635.95,-198.712 1635.95,-190.112"/>
<polygon fill="black" stroke="black" points="1639.45,-190.104 1635.95,-180.104 1632.45,-190.104 1639.45,-190.104"/>
</g>
<!-- ExpList0 -->
<g id="node66" class="node"><title>ExpList0</title>
<ellipse fill="none" stroke="black" cx="1750.95" cy="-162" rx="42.7926" ry="18"/>
<text text-anchor="middle" x="1750.95" y="-158.3" font-family="Times,serif" font-size="14.00">ExpList0</text>
</g>
<!-- ExpCall0&#45;&gt;ExpList0 -->
<g id="edge58" class="edge"><title>ExpCall0&#45;&gt;ExpList0</title>
<path fill="none" stroke="black" d="M1659.49,-218.666C1676.63,-208.237 1700.02,-193.996 1718.86,-182.529"/>
<polygon fill="black" stroke="black" points="1720.71,-185.505 1727.43,-177.315 1717.07,-179.525 1720.71,-185.505"/>
</g>
<!-- Temp17: T75 -->
<g id="node72" class="node"><title>Temp17: T75</title>
<ellipse fill="none" stroke="black" cx="2757.95" cy="-162" rx="59.5901" ry="18"/>
<text text-anchor="middle" x="2757.95" y="-158.3" font-family="Times,serif" font-size="14.00">Temp17: T75</text>
</g>
<!-- ExpTemp17&#45;&gt;Temp17: T75 -->
<g id="edge62" class="edge"><title>ExpTemp17&#45;&gt;Temp17: T75</title>
<path fill="none" stroke="black" d="M2757.95,-215.697C2757.95,-207.983 2757.95,-198.712 2757.95,-190.112"/>
<polygon fill="black" stroke="black" points="2761.45,-190.104 2757.95,-180.104 2754.45,-190.104 2761.45,-190.104"/>
</g>
<!-- ExpCall1&#45;&gt;ExpList1 -->
<g id="edge77" class="edge"><title>ExpCall1&#45;&gt;ExpList1</title>
<path fill="none" stroke="black" d="M2913.49,-218.666C2930.63,-208.237 2954.02,-193.996 2972.86,-182.529"/>
<polygon fill="black" stroke="black" points="2974.71,-185.505 2981.43,-177.315 2971.07,-179.525 2974.71,-185.505"/>
</g>
<!-- ExpCall1&#45;&gt;ExpTemp18 -->
<g id="edge76" class="edge"><title>ExpCall1&#45;&gt;ExpTemp18</title>
<path fill="none" stroke="black" d="M2889.95,-215.697C2889.95,-207.983 2889.95,-198.712 2889.95,-190.112"/>
<polygon fill="black" stroke="black" points="2893.45,-190.104 2889.95,-180.104 2886.45,-190.104 2893.45,-190.104"/>
</g>
<!-- ExpList0&#45;&gt;ExpTemp11 -->
<g id="edge63" class="edge"><title>ExpList0&#45;&gt;ExpTemp11</title>
<path fill="none" stroke="black" d="M1753.17,-143.697C1754.16,-135.983 1755.35,-126.712 1756.46,-118.112"/>
<polygon fill="black" stroke="black" points="1759.94,-118.469 1757.75,-108.104 1753,-117.576 1759.94,-118.469"/>
</g>
<!-- Temp12: T73 -->
<g id="node68" class="node"><title>Temp12: T73</title>
<ellipse fill="none" stroke="black" cx="1871.95" cy="-162" rx="59.5901" ry="18"/>
<text text-anchor="middle" x="1871.95" y="-158.3" font-family="Times,serif" font-size="14.00">Temp12: T73</text>
</g>
<!-- ExpTemp12&#45;&gt;Temp12: T73 -->
<g id="edge59" class="edge"><title>ExpTemp12&#45;&gt;Temp12: T73</title>
<path fill="none" stroke="black" d="M1871.95,-215.697C1871.95,-207.983 1871.95,-198.712 1871.95,-190.112"/>
<polygon fill="black" stroke="black" points="1875.45,-190.104 1871.95,-180.104 1868.45,-190.104 1875.45,-190.104"/>
</g>
<!-- ExpTemp13 -->
<g id="node70" class="node"><title>ExpTemp13</title>
<ellipse fill="none" stroke="black" cx="2003.95" cy="-162" rx="54.6905" ry="18"/>
<text text-anchor="middle" x="2003.95" y="-158.3" font-family="Times,serif" font-size="14.00">ExpTemp13</text>
</g>
<!-- ExpMem2&#45;&gt;ExpTemp13 -->
<g id="edge60" class="edge"><title>ExpMem2&#45;&gt;ExpTemp13</title>
<path fill="none" stroke="black" d="M2000.18,-215.697C2000.73,-207.983 2001.39,-198.712 2002.01,-190.112"/>
<polygon fill="black" stroke="black" points="2005.5,-190.328 2002.72,-180.104 1998.52,-189.83 2005.5,-190.328"/>
</g>
<!-- Temp13: $fp -->
<g id="node74" class="node"><title>Temp13: $fp</title>
<ellipse fill="none" stroke="black" cx="2003.95" cy="-90" rx="57.3905" ry="18"/>
<text text-anchor="middle" x="2003.95" y="-86.3" font-family="Times,serif" font-size="14.00">Temp13: $fp</text>
</g>
<!-- ExpTemp13&#45;&gt;Temp13: $fp -->
<g id="edge67" class="edge"><title>ExpTemp13&#45;&gt;Temp13: $fp</title>
<path fill="none" stroke="black" d="M2003.95,-143.697C2003.95,-135.983 2003.95,-126.712 2003.95,-118.112"/>
<polygon fill="black" stroke="black" points="2007.45,-118.104 2003.95,-108.104 2000.45,-118.104 2007.45,-118.104"/>
</g>
<!-- Temp16: T59 -->
<g id="node76" class="node"><title>Temp16: T59</title>
<ellipse fill="none" stroke="black" cx="2619.95" cy="-162" rx="59.5901" ry="18"/>
<text text-anchor="middle" x="2619.95" y="-158.3" font-family="Times,serif" font-size="14.00">Temp16: T59</text>
</g>
<!-- ExpTemp16&#45;&gt;Temp16: T59 -->
<g id="edge68" class="edge"><title>ExpTemp16&#45;&gt;Temp16: T59</title>
<path fill="none" stroke="black" d="M2616.18,-215.697C2616.73,-207.983 2617.39,-198.712 2618.01,-190.112"/>
<polygon fill="black" stroke="black" points="2621.5,-190.328 2618.72,-180.104 2614.52,-189.83 2621.5,-190.328"/>
</g>
<!-- Temp15: T74 -->
<g id="node78" class="node"><title>Temp15: T74</title>
<ellipse fill="none" stroke="black" cx="2481.95" cy="-162" rx="59.5901" ry="18"/>
<text text-anchor="middle" x="2481.95" y="-158.3" font-family="Times,serif" font-size="14.00">Temp15: T74</text>
</g>
<!-- ExpTemp15&#45;&gt;Temp15: T74 -->
<g id="edge69" class="edge"><title>ExpTemp15&#45;&gt;Temp15: T74</title>
<path fill="none" stroke="black" d="M2481.95,-215.697C2481.95,-207.983 2481.95,-198.712 2481.95,-190.112"/>
<polygon fill="black" stroke="black" points="2485.45,-190.104 2481.95,-180.104 2478.45,-190.104 2485.45,-190.104"/>
</g>
</g>
</svg>
