<?xml version="1.0" encoding="UTF-8" standalone="no"?>
<!DOCTYPE svg PUBLIC "-//W3C//DTD SVG 1.1//EN"
 "http://www.w3.org/Graphics/SVG/1.1/DTD/svg11.dtd">
<!-- Generated by graphviz version 2.38.0 (20140413.2041)
 -->
<!-- Title: %3 Pages: 1 -->
<svg width="1875pt" height="404pt"
 viewBox="0.00 0.00 1874.69 404.00" xmlns="http://www.w3.org/2000/svg" xmlns:xlink="http://www.w3.org/1999/xlink">
<g id="graph0" class="graph" transform="scale(1 1) rotate(0) translate(4 400)">
<title>%3</title>
<polygon fill="white" stroke="none" points="-4,4 -4,-400 1870.69,-400 1870.69,4 -4,4"/>
<!-- ExpConst1 -->
<g id="node1" class="node"><title>ExpConst1</title>
<ellipse fill="none" stroke="black" cx="1564.74" cy="-234" rx="50.0912" ry="18"/>
<text text-anchor="middle" x="1564.74" y="-230.3" font-family="Times,serif" font-size="14.00">ExpConst1</text>
</g>
<!-- Value1: 0 -->
<g id="node2" class="node"><title>Value1: 0</title>
<ellipse fill="none" stroke="black" cx="1565.74" cy="-162" rx="45.4919" ry="18"/>
<text text-anchor="middle" x="1565.74" y="-158.3" font-family="Times,serif" font-size="14.00">Value1: 0</text>
</g>
<!-- ExpConst1&#45;&gt;Value1: 0 -->
<g id="edge1" class="edge"><title>ExpConst1&#45;&gt;Value1: 0</title>
<path fill="none" stroke="black" d="M1564.99,-215.697C1565.1,-207.983 1565.23,-198.712 1565.35,-190.112"/>
<polygon fill="black" stroke="black" points="1568.85,-190.153 1565.5,-180.104 1561.86,-190.053 1568.85,-190.153"/>
</g>
<!-- ExpName0 -->
<g id="node3" class="node"><title>ExpName0</title>
<ellipse fill="none" stroke="black" cx="654.742" cy="-234" rx="50.8918" ry="18"/>
<text text-anchor="middle" x="654.742" y="-230.3" font-family="Times,serif" font-size="14.00">ExpName0</text>
</g>
<!-- Label1: Tree@GetHas_Right -->
<g id="node4" class="node"><title>Label1: Tree@GetHas_Right</title>
<ellipse fill="none" stroke="black" cx="654.742" cy="-162" rx="114.28" ry="18"/>
<text text-anchor="middle" x="654.742" y="-158.3" font-family="Times,serif" font-size="14.00">Label1: Tree@GetHas_Right</text>
</g>
<!-- ExpName0&#45;&gt;Label1: Tree@GetHas_Right -->
<g id="edge2" class="edge"><title>ExpName0&#45;&gt;Label1: Tree@GetHas_Right</title>
<path fill="none" stroke="black" d="M654.742,-215.697C654.742,-207.983 654.742,-198.712 654.742,-190.112"/>
<polygon fill="black" stroke="black" points="658.242,-190.104 654.742,-180.104 651.242,-190.104 658.242,-190.104"/>
</g>
<!-- StatMove2 -->
<g id="node5" class="node"><title>StatMove2</title>
<ellipse fill="none" stroke="black" cx="842.742" cy="-306" rx="50.0912" ry="18"/>
<text text-anchor="middle" x="842.742" y="-302.3" font-family="Times,serif" font-size="14.00">StatMove2</text>
</g>
<!-- ExpTemp3 -->
<g id="node6" class="node"><title>ExpTemp3</title>
<ellipse fill="none" stroke="black" cx="842.742" cy="-234" rx="50.0912" ry="18"/>
<text text-anchor="middle" x="842.742" y="-230.3" font-family="Times,serif" font-size="14.00">ExpTemp3</text>
</g>
<!-- StatMove2&#45;&gt;ExpTemp3 -->
<g id="edge3" class="edge"><title>StatMove2&#45;&gt;ExpTemp3</title>
<path fill="none" stroke="black" d="M842.742,-287.697C842.742,-279.983 842.742,-270.712 842.742,-262.112"/>
<polygon fill="black" stroke="black" points="846.242,-262.104 842.742,-252.104 839.242,-262.104 846.242,-262.104"/>
</g>
<!-- ExpMem0 -->
<g id="node7" class="node"><title>ExpMem0</title>
<ellipse fill="none" stroke="black" cx="964.742" cy="-234" rx="48.9926" ry="18"/>
<text text-anchor="middle" x="964.742" y="-230.3" font-family="Times,serif" font-size="14.00">ExpMem0</text>
</g>
<!-- StatMove2&#45;&gt;ExpMem0 -->
<g id="edge4" class="edge"><title>StatMove2&#45;&gt;ExpMem0</title>
<path fill="none" stroke="black" d="M868.317,-290.326C886.374,-279.965 910.767,-265.969 930.501,-254.646"/>
<polygon fill="black" stroke="black" points="932.269,-257.668 939.201,-249.655 928.785,-251.596 932.269,-257.668"/>
</g>
<!-- Temp3: T45 -->
<g id="node10" class="node"><title>Temp3: T45</title>
<ellipse fill="none" stroke="black" cx="842.742" cy="-162" rx="55.4913" ry="18"/>
<text text-anchor="middle" x="842.742" y="-158.3" font-family="Times,serif" font-size="14.00">Temp3: T45</text>
</g>
<!-- ExpTemp3&#45;&gt;Temp3: T45 -->
<g id="edge6" class="edge"><title>ExpTemp3&#45;&gt;Temp3: T45</title>
<path fill="none" stroke="black" d="M842.742,-215.697C842.742,-207.983 842.742,-198.712 842.742,-190.112"/>
<polygon fill="black" stroke="black" points="846.242,-190.104 842.742,-180.104 839.242,-190.104 846.242,-190.104"/>
</g>
<!-- ExpBinary0 -->
<g id="node28" class="node"><title>ExpBinary0</title>
<ellipse fill="none" stroke="black" cx="969.742" cy="-162" rx="53.0913" ry="18"/>
<text text-anchor="middle" x="969.742" y="-158.3" font-family="Times,serif" font-size="14.00">ExpBinary0</text>
</g>
<!-- ExpMem0&#45;&gt;ExpBinary0 -->
<g id="edge25" class="edge"><title>ExpMem0&#45;&gt;ExpBinary0</title>
<path fill="none" stroke="black" d="M965.978,-215.697C966.529,-207.983 967.191,-198.712 967.806,-190.112"/>
<polygon fill="black" stroke="black" points="971.299,-190.328 968.52,-180.104 964.317,-189.83 971.299,-190.328"/>
</g>
<!-- ExpTemp2 -->
<g id="node8" class="node"><title>ExpTemp2</title>
<ellipse fill="none" stroke="black" cx="501.742" cy="-234" rx="50.0912" ry="18"/>
<text text-anchor="middle" x="501.742" y="-230.3" font-family="Times,serif" font-size="14.00">ExpTemp2</text>
</g>
<!-- Temp2: T44 -->
<g id="node9" class="node"><title>Temp2: T44</title>
<ellipse fill="none" stroke="black" cx="466.742" cy="-162" rx="55.4913" ry="18"/>
<text text-anchor="middle" x="466.742" y="-158.3" font-family="Times,serif" font-size="14.00">Temp2: T44</text>
</g>
<!-- ExpTemp2&#45;&gt;Temp2: T44 -->
<g id="edge5" class="edge"><title>ExpTemp2&#45;&gt;Temp2: T44</title>
<path fill="none" stroke="black" d="M493.27,-216.055C489.246,-208.007 484.345,-198.205 479.855,-189.226"/>
<polygon fill="black" stroke="black" points="482.983,-187.654 475.38,-180.275 476.722,-190.785 482.983,-187.654"/>
</g>
<!-- StatLabel0 -->
<g id="node11" class="node"><title>StatLabel0</title>
<ellipse fill="none" stroke="black" cx="166.742" cy="-306" rx="48.9926" ry="18"/>
<text text-anchor="middle" x="166.742" y="-302.3" font-family="Times,serif" font-size="14.00">StatLabel0</text>
</g>
<!-- Label0: Visitor@visit -->
<g id="node12" class="node"><title>Label0: Visitor@visit</title>
<ellipse fill="none" stroke="black" cx="87.7422" cy="-234" rx="87.9851" ry="18"/>
<text text-anchor="middle" x="87.7422" y="-230.3" font-family="Times,serif" font-size="14.00">Label0: Visitor@visit</text>
</g>
<!-- StatLabel0&#45;&gt;Label0: Visitor@visit -->
<g id="edge7" class="edge"><title>StatLabel0&#45;&gt;Label0: Visitor@visit</title>
<path fill="none" stroke="black" d="M148.816,-289.116C138.607,-280.07 125.625,-268.567 114.257,-258.494"/>
<polygon fill="black" stroke="black" points="116.505,-255.81 106.699,-251.797 111.863,-261.049 116.505,-255.81"/>
</g>
<!-- StatList0 -->
<g id="node13" class="node"><title>StatList0</title>
<ellipse fill="none" stroke="black" cx="748.742" cy="-378" rx="42.4939" ry="18"/>
<text text-anchor="middle" x="748.742" y="-374.3" font-family="Times,serif" font-size="14.00">StatList0</text>
</g>
<!-- StatList0&#45;&gt;StatMove2 -->
<g id="edge11" class="edge"><title>StatList0&#45;&gt;StatMove2</title>
<path fill="none" stroke="black" d="M769.139,-361.811C782.229,-352.063 799.424,-339.258 813.902,-328.477"/>
<polygon fill="black" stroke="black" points="816.131,-331.181 822.061,-322.401 811.95,-325.567 816.131,-331.181"/>
</g>
<!-- StatList0&#45;&gt;StatLabel0 -->
<g id="edge8" class="edge"><title>StatList0&#45;&gt;StatLabel0</title>
<path fill="none" stroke="black" d="M708.45,-372.295C630.224,-363.142 452.322,-342.236 302.742,-324 276.288,-320.775 246.95,-317.118 222.315,-314.024"/>
<polygon fill="black" stroke="black" points="222.426,-310.51 212.067,-312.736 221.552,-317.456 222.426,-310.51"/>
</g>
<!-- StatMove0 -->
<g id="node14" class="node"><title>StatMove0</title>
<ellipse fill="none" stroke="black" cx="361.742" cy="-306" rx="50.0912" ry="18"/>
<text text-anchor="middle" x="361.742" y="-302.3" font-family="Times,serif" font-size="14.00">StatMove0</text>
</g>
<!-- StatList0&#45;&gt;StatMove0 -->
<g id="edge9" class="edge"><title>StatList0&#45;&gt;StatMove0</title>
<path fill="none" stroke="black" d="M710.576,-370.097C641.409,-357.586 495.173,-331.135 415.776,-316.774"/>
<polygon fill="black" stroke="black" points="415.962,-313.25 405.499,-314.915 414.716,-320.139 415.962,-313.25"/>
</g>
<!-- StatMove1 -->
<g id="node15" class="node"><title>StatMove1</title>
<ellipse fill="none" stroke="black" cx="654.742" cy="-306" rx="50.0912" ry="18"/>
<text text-anchor="middle" x="654.742" y="-302.3" font-family="Times,serif" font-size="14.00">StatMove1</text>
</g>
<!-- StatList0&#45;&gt;StatMove1 -->
<g id="edge10" class="edge"><title>StatList0&#45;&gt;StatMove1</title>
<path fill="none" stroke="black" d="M728.346,-361.811C715.256,-352.063 698.061,-339.258 683.583,-328.477"/>
<polygon fill="black" stroke="black" points="685.535,-325.567 675.424,-322.401 681.354,-331.181 685.535,-325.567"/>
</g>
<!-- StatMove3 -->
<g id="node16" class="node"><title>StatMove3</title>
<ellipse fill="none" stroke="black" cx="1096.74" cy="-306" rx="50.0912" ry="18"/>
<text text-anchor="middle" x="1096.74" y="-302.3" font-family="Times,serif" font-size="14.00">StatMove3</text>
</g>
<!-- StatList0&#45;&gt;StatMove3 -->
<g id="edge12" class="edge"><title>StatList0&#45;&gt;StatMove3</title>
<path fill="none" stroke="black" d="M786.315,-369.442C848.546,-356.924 973.172,-331.856 1044.13,-317.583"/>
<polygon fill="black" stroke="black" points="1045.08,-320.962 1054.19,-315.559 1043.7,-314.099 1045.08,-320.962"/>
</g>
<!-- StatCJump0 -->
<g id="node17" class="node"><title>StatCJump0</title>
<ellipse fill="none" stroke="black" cx="1505.74" cy="-306" rx="53.8905" ry="18"/>
<text text-anchor="middle" x="1505.74" y="-302.3" font-family="Times,serif" font-size="14.00">StatCJump0</text>
</g>
<!-- StatList0&#45;&gt;StatCJump0 -->
<g id="edge13" class="edge"><title>StatList0&#45;&gt;StatCJump0</title>
<path fill="none" stroke="black" d="M789.71,-373.212C915.137,-361.613 1294.43,-326.54 1444.08,-312.702"/>
<polygon fill="black" stroke="black" points="1444.81,-316.149 1454.45,-311.743 1444.17,-309.179 1444.81,-316.149"/>
</g>
<!-- ExpTemp0 -->
<g id="node18" class="node"><title>ExpTemp0</title>
<ellipse fill="none" stroke="black" cx="243.742" cy="-234" rx="50.0912" ry="18"/>
<text text-anchor="middle" x="243.742" y="-230.3" font-family="Times,serif" font-size="14.00">ExpTemp0</text>
</g>
<!-- StatMove0&#45;&gt;ExpTemp0 -->
<g id="edge15" class="edge"><title>StatMove0&#45;&gt;ExpTemp0</title>
<path fill="none" stroke="black" d="M337.006,-290.326C319.62,-280.012 296.16,-266.095 277.119,-254.8"/>
<polygon fill="black" stroke="black" points="278.833,-251.747 268.446,-249.655 275.261,-257.767 278.833,-251.747"/>
</g>
<!-- ExpTemp1 -->
<g id="node20" class="node"><title>ExpTemp1</title>
<ellipse fill="none" stroke="black" cx="361.742" cy="-234" rx="50.0912" ry="18"/>
<text text-anchor="middle" x="361.742" y="-230.3" font-family="Times,serif" font-size="14.00">ExpTemp1</text>
</g>
<!-- StatMove0&#45;&gt;ExpTemp1 -->
<g id="edge16" class="edge"><title>StatMove0&#45;&gt;ExpTemp1</title>
<path fill="none" stroke="black" d="M361.742,-287.697C361.742,-279.983 361.742,-270.712 361.742,-262.112"/>
<polygon fill="black" stroke="black" points="365.242,-262.104 361.742,-252.104 358.242,-262.104 365.242,-262.104"/>
</g>
<!-- StatMove1&#45;&gt;ExpName0 -->
<g id="edge33" class="edge"><title>StatMove1&#45;&gt;ExpName0</title>
<path fill="none" stroke="black" d="M654.742,-287.697C654.742,-279.983 654.742,-270.712 654.742,-262.112"/>
<polygon fill="black" stroke="black" points="658.242,-262.104 654.742,-252.104 651.242,-262.104 658.242,-262.104"/>
</g>
<!-- StatMove1&#45;&gt;ExpTemp2 -->
<g id="edge32" class="edge"><title>StatMove1&#45;&gt;ExpTemp2</title>
<path fill="none" stroke="black" d="M624.879,-291.337C600.869,-280.352 566.947,-264.832 540.785,-252.863"/>
<polygon fill="black" stroke="black" points="542.08,-249.606 531.53,-248.628 539.167,-255.972 542.08,-249.606"/>
</g>
<!-- ExpCall0 -->
<g id="node25" class="node"><title>ExpCall0</title>
<ellipse fill="none" stroke="black" cx="1219.74" cy="-234" rx="44.393" ry="18"/>
<text text-anchor="middle" x="1219.74" y="-230.3" font-family="Times,serif" font-size="14.00">ExpCall0</text>
</g>
<!-- StatMove3&#45;&gt;ExpCall0 -->
<g id="edge29" class="edge"><title>StatMove3&#45;&gt;ExpCall0</title>
<path fill="none" stroke="black" d="M1122.23,-290.496C1140.78,-279.939 1166.08,-265.541 1186.26,-254.055"/>
<polygon fill="black" stroke="black" points="1188.17,-256.996 1195.13,-249.008 1184.71,-250.912 1188.17,-256.996"/>
</g>
<!-- ExpTemp5 -->
<g id="node33" class="node"><title>ExpTemp5</title>
<ellipse fill="none" stroke="black" cx="1096.74" cy="-234" rx="50.0912" ry="18"/>
<text text-anchor="middle" x="1096.74" y="-230.3" font-family="Times,serif" font-size="14.00">ExpTemp5</text>
</g>
<!-- StatMove3&#45;&gt;ExpTemp5 -->
<g id="edge28" class="edge"><title>StatMove3&#45;&gt;ExpTemp5</title>
<path fill="none" stroke="black" d="M1096.74,-287.697C1096.74,-279.983 1096.74,-270.712 1096.74,-262.112"/>
<polygon fill="black" stroke="black" points="1100.24,-262.104 1096.74,-252.104 1093.24,-262.104 1100.24,-262.104"/>
</g>
<!-- StatCJump0&#45;&gt;ExpConst1 -->
<g id="edge37" class="edge"><title>StatCJump0&#45;&gt;ExpConst1</title>
<path fill="none" stroke="black" d="M1519.72,-288.411C1527.07,-279.693 1536.22,-268.845 1544.34,-259.208"/>
<polygon fill="black" stroke="black" points="1547.09,-261.372 1550.86,-251.47 1541.74,-256.861 1547.09,-261.372"/>
</g>
<!-- ExpTemp8 -->
<g id="node36" class="node"><title>ExpTemp8</title>
<ellipse fill="none" stroke="black" cx="1446.74" cy="-234" rx="50.0912" ry="18"/>
<text text-anchor="middle" x="1446.74" y="-230.3" font-family="Times,serif" font-size="14.00">ExpTemp8</text>
</g>
<!-- StatCJump0&#45;&gt;ExpTemp8 -->
<g id="edge36" class="edge"><title>StatCJump0&#45;&gt;ExpTemp8</title>
<path fill="none" stroke="black" d="M1491.76,-288.411C1484.41,-279.693 1475.27,-268.845 1467.15,-259.208"/>
<polygon fill="black" stroke="black" points="1469.74,-256.861 1460.62,-251.47 1464.39,-261.372 1469.74,-256.861"/>
</g>
<!-- NE0 -->
<g id="node38" class="node"><title>NE0</title>
<ellipse fill="none" stroke="black" cx="1351.74" cy="-234" rx="27" ry="18"/>
<text text-anchor="middle" x="1351.74" y="-230.3" font-family="Times,serif" font-size="14.00">NE0</text>
</g>
<!-- StatCJump0&#45;&gt;NE0 -->
<g id="edge35" class="edge"><title>StatCJump0&#45;&gt;NE0</title>
<path fill="none" stroke="black" d="M1474.61,-291.212C1450.78,-280.608 1417.11,-265.53 1387.74,-252 1385.95,-251.176 1384.12,-250.324 1382.26,-249.462"/>
<polygon fill="black" stroke="black" points="1383.57,-246.21 1373.03,-245.135 1380.6,-252.548 1383.57,-246.21"/>
</g>
<!-- Label2: L79 -->
<g id="node39" class="node"><title>Label2: L79</title>
<ellipse fill="none" stroke="black" cx="1686.74" cy="-234" rx="53.8905" ry="18"/>
<text text-anchor="middle" x="1686.74" y="-230.3" font-family="Times,serif" font-size="14.00">Label2: L79</text>
</g>
<!-- StatCJump0&#45;&gt;Label2: L79 -->
<g id="edge38" class="edge"><title>StatCJump0&#45;&gt;Label2: L79</title>
<path fill="none" stroke="black" d="M1539.79,-291.834C1569.11,-280.492 1611.61,-264.057 1643.37,-251.776"/>
<polygon fill="black" stroke="black" points="1644.79,-254.979 1652.85,-248.107 1642.26,-248.45 1644.79,-254.979"/>
</g>
<!-- Label3: L80 -->
<g id="node40" class="node"><title>Label3: L80</title>
<ellipse fill="none" stroke="black" cx="1812.74" cy="-234" rx="53.8905" ry="18"/>
<text text-anchor="middle" x="1812.74" y="-230.3" font-family="Times,serif" font-size="14.00">Label3: L80</text>
</g>
<!-- StatCJump0&#45;&gt;Label3: L80 -->
<g id="edge39" class="edge"><title>StatCJump0&#45;&gt;Label3: L80</title>
<path fill="none" stroke="black" d="M1550.87,-295.898C1599.96,-285.834 1680.67,-268.811 1749.74,-252 1753.89,-250.99 1758.18,-249.91 1762.49,-248.801"/>
<polygon fill="black" stroke="black" points="1763.7,-252.101 1772.49,-246.181 1761.93,-245.329 1763.7,-252.101"/>
</g>
<!-- Temp0: T46 -->
<g id="node19" class="node"><title>Temp0: T46</title>
<ellipse fill="none" stroke="black" cx="210.742" cy="-162" rx="55.4913" ry="18"/>
<text text-anchor="middle" x="210.742" y="-158.3" font-family="Times,serif" font-size="14.00">Temp0: T46</text>
</g>
<!-- ExpTemp0&#45;&gt;Temp0: T46 -->
<g id="edge14" class="edge"><title>ExpTemp0&#45;&gt;Temp0: T46</title>
<path fill="none" stroke="black" d="M235.754,-216.055C232,-208.091 227.436,-198.411 223.24,-189.51"/>
<polygon fill="black" stroke="black" points="226.316,-187.828 218.886,-180.275 219.985,-190.813 226.316,-187.828"/>
</g>
<!-- Temp1: T38 -->
<g id="node32" class="node"><title>Temp1: T38</title>
<ellipse fill="none" stroke="black" cx="338.742" cy="-162" rx="55.4913" ry="18"/>
<text text-anchor="middle" x="338.742" y="-158.3" font-family="Times,serif" font-size="14.00">Temp1: T38</text>
</g>
<!-- ExpTemp1&#45;&gt;Temp1: T38 -->
<g id="edge26" class="edge"><title>ExpTemp1&#45;&gt;Temp1: T38</title>
<path fill="none" stroke="black" d="M356.175,-216.055C353.586,-208.176 350.445,-198.617 347.546,-189.794"/>
<polygon fill="black" stroke="black" points="350.865,-188.683 344.418,-180.275 344.215,-190.868 350.865,-188.683"/>
</g>
<!-- ExpTemp7 -->
<g id="node21" class="node"><title>ExpTemp7</title>
<ellipse fill="none" stroke="black" cx="1336.74" cy="-90" rx="50.0912" ry="18"/>
<text text-anchor="middle" x="1336.74" y="-86.3" font-family="Times,serif" font-size="14.00">ExpTemp7</text>
</g>
<!-- Temp7: T45 -->
<g id="node22" class="node"><title>Temp7: T45</title>
<ellipse fill="none" stroke="black" cx="1336.74" cy="-18" rx="55.4913" ry="18"/>
<text text-anchor="middle" x="1336.74" y="-14.3" font-family="Times,serif" font-size="14.00">Temp7: T45</text>
</g>
<!-- ExpTemp7&#45;&gt;Temp7: T45 -->
<g id="edge17" class="edge"><title>ExpTemp7&#45;&gt;Temp7: T45</title>
<path fill="none" stroke="black" d="M1336.74,-71.6966C1336.74,-63.9827 1336.74,-54.7125 1336.74,-46.1124"/>
<polygon fill="black" stroke="black" points="1340.24,-46.1043 1336.74,-36.1043 1333.24,-46.1044 1340.24,-46.1043"/>
</g>
<!-- ExpTemp4 -->
<g id="node23" class="node"><title>ExpTemp4</title>
<ellipse fill="none" stroke="black" cx="870.742" cy="-90" rx="50.0912" ry="18"/>
<text text-anchor="middle" x="870.742" y="-86.3" font-family="Times,serif" font-size="14.00">ExpTemp4</text>
</g>
<!-- Temp4: $fp -->
<g id="node24" class="node"><title>Temp4: $fp</title>
<ellipse fill="none" stroke="black" cx="870.742" cy="-18" rx="52.7911" ry="18"/>
<text text-anchor="middle" x="870.742" y="-14.3" font-family="Times,serif" font-size="14.00">Temp4: $fp</text>
</g>
<!-- ExpTemp4&#45;&gt;Temp4: $fp -->
<g id="edge18" class="edge"><title>ExpTemp4&#45;&gt;Temp4: $fp</title>
<path fill="none" stroke="black" d="M870.742,-71.6966C870.742,-63.9827 870.742,-54.7125 870.742,-46.1124"/>
<polygon fill="black" stroke="black" points="874.242,-46.1043 870.742,-36.1043 867.242,-46.1044 874.242,-46.1043"/>
</g>
<!-- ExpTemp6 -->
<g id="node26" class="node"><title>ExpTemp6</title>
<ellipse fill="none" stroke="black" cx="1219.74" cy="-162" rx="50.0912" ry="18"/>
<text text-anchor="middle" x="1219.74" y="-158.3" font-family="Times,serif" font-size="14.00">ExpTemp6</text>
</g>
<!-- ExpCall0&#45;&gt;ExpTemp6 -->
<g id="edge19" class="edge"><title>ExpCall0&#45;&gt;ExpTemp6</title>
<path fill="none" stroke="black" d="M1219.74,-215.697C1219.74,-207.983 1219.74,-198.712 1219.74,-190.112"/>
<polygon fill="black" stroke="black" points="1223.24,-190.104 1219.74,-180.104 1216.24,-190.104 1223.24,-190.104"/>
</g>
<!-- ExpList0 -->
<g id="node27" class="node"><title>ExpList0</title>
<ellipse fill="none" stroke="black" cx="1330.74" cy="-162" rx="42.7926" ry="18"/>
<text text-anchor="middle" x="1330.74" y="-158.3" font-family="Times,serif" font-size="14.00">ExpList0</text>
</g>
<!-- ExpCall0&#45;&gt;ExpList0 -->
<g id="edge20" class="edge"><title>ExpCall0&#45;&gt;ExpList0</title>
<path fill="none" stroke="black" d="M1242.74,-218.496C1258.96,-208.266 1280.91,-194.428 1298.82,-183.13"/>
<polygon fill="black" stroke="black" points="1301.18,-185.78 1307.77,-177.485 1297.45,-179.859 1301.18,-185.78"/>
</g>
<!-- Temp6: T44 -->
<g id="node35" class="node"><title>Temp6: T44</title>
<ellipse fill="none" stroke="black" cx="1213.74" cy="-90" rx="55.4913" ry="18"/>
<text text-anchor="middle" x="1213.74" y="-86.3" font-family="Times,serif" font-size="14.00">Temp6: T44</text>
</g>
<!-- ExpTemp6&#45;&gt;Temp6: T44 -->
<g id="edge30" class="edge"><title>ExpTemp6&#45;&gt;Temp6: T44</title>
<path fill="none" stroke="black" d="M1218.26,-143.697C1217.6,-135.983 1216.8,-126.712 1216.07,-118.112"/>
<polygon fill="black" stroke="black" points="1219.55,-117.769 1215.21,-108.104 1212.58,-118.367 1219.55,-117.769"/>
</g>
<!-- ExpList0&#45;&gt;ExpTemp7 -->
<g id="edge31" class="edge"><title>ExpList0&#45;&gt;ExpTemp7</title>
<path fill="none" stroke="black" d="M1332.23,-143.697C1332.89,-135.983 1333.68,-126.712 1334.42,-118.112"/>
<polygon fill="black" stroke="black" points="1337.91,-118.367 1335.28,-108.104 1330.93,-117.769 1337.91,-118.367"/>
</g>
<!-- ExpBinary0&#45;&gt;ExpTemp4 -->
<g id="edge21" class="edge"><title>ExpBinary0&#45;&gt;ExpTemp4</title>
<path fill="none" stroke="black" d="M947.771,-145.465C933.961,-135.7 915.96,-122.972 900.833,-112.276"/>
<polygon fill="black" stroke="black" points="902.497,-109.167 892.311,-106.251 898.456,-114.882 902.497,-109.167"/>
</g>
<!-- Plus0 -->
<g id="node29" class="node"><title>Plus0</title>
<ellipse fill="none" stroke="black" cx="969.742" cy="-90" rx="30.5947" ry="18"/>
<text text-anchor="middle" x="969.742" y="-86.3" font-family="Times,serif" font-size="14.00">Plus0</text>
</g>
<!-- ExpBinary0&#45;&gt;Plus0 -->
<g id="edge22" class="edge"><title>ExpBinary0&#45;&gt;Plus0</title>
<path fill="none" stroke="black" d="M969.742,-143.697C969.742,-135.983 969.742,-126.712 969.742,-118.112"/>
<polygon fill="black" stroke="black" points="973.242,-118.104 969.742,-108.104 966.242,-118.104 973.242,-118.104"/>
</g>
<!-- ExpConst0 -->
<g id="node30" class="node"><title>ExpConst0</title>
<ellipse fill="none" stroke="black" cx="1068.74" cy="-90" rx="50.0912" ry="18"/>
<text text-anchor="middle" x="1068.74" y="-86.3" font-family="Times,serif" font-size="14.00">ExpConst0</text>
</g>
<!-- ExpBinary0&#45;&gt;ExpConst0 -->
<g id="edge23" class="edge"><title>ExpBinary0&#45;&gt;ExpConst0</title>
<path fill="none" stroke="black" d="M991.714,-145.465C1005.52,-135.7 1023.52,-122.972 1038.65,-112.276"/>
<polygon fill="black" stroke="black" points="1041.03,-114.882 1047.17,-106.251 1036.99,-109.167 1041.03,-114.882"/>
</g>
<!-- Value0: 4 -->
<g id="node31" class="node"><title>Value0: 4</title>
<ellipse fill="none" stroke="black" cx="1068.74" cy="-18" rx="45.4919" ry="18"/>
<text text-anchor="middle" x="1068.74" y="-14.3" font-family="Times,serif" font-size="14.00">Value0: 4</text>
</g>
<!-- ExpConst0&#45;&gt;Value0: 4 -->
<g id="edge24" class="edge"><title>ExpConst0&#45;&gt;Value0: 4</title>
<path fill="none" stroke="black" d="M1068.74,-71.6966C1068.74,-63.9827 1068.74,-54.7125 1068.74,-46.1124"/>
<polygon fill="black" stroke="black" points="1072.24,-46.1043 1068.74,-36.1043 1065.24,-46.1044 1072.24,-46.1043"/>
</g>
<!-- Temp5: T46 -->
<g id="node34" class="node"><title>Temp5: T46</title>
<ellipse fill="none" stroke="black" cx="1096.74" cy="-162" rx="55.4913" ry="18"/>
<text text-anchor="middle" x="1096.74" y="-158.3" font-family="Times,serif" font-size="14.00">Temp5: T46</text>
</g>
<!-- ExpTemp5&#45;&gt;Temp5: T46 -->
<g id="edge27" class="edge"><title>ExpTemp5&#45;&gt;Temp5: T46</title>
<path fill="none" stroke="black" d="M1096.74,-215.697C1096.74,-207.983 1096.74,-198.712 1096.74,-190.112"/>
<polygon fill="black" stroke="black" points="1100.24,-190.104 1096.74,-180.104 1093.24,-190.104 1100.24,-190.104"/>
</g>
<!-- Temp8: T38 -->
<g id="node37" class="node"><title>Temp8: T38</title>
<ellipse fill="none" stroke="black" cx="1446.74" cy="-162" rx="55.4913" ry="18"/>
<text text-anchor="middle" x="1446.74" y="-158.3" font-family="Times,serif" font-size="14.00">Temp8: T38</text>
</g>
<!-- ExpTemp8&#45;&gt;Temp8: T38 -->
<g id="edge34" class="edge"><title>ExpTemp8&#45;&gt;Temp8: T38</title>
<path fill="none" stroke="black" d="M1446.74,-215.697C1446.74,-207.983 1446.74,-198.712 1446.74,-190.112"/>
<polygon fill="black" stroke="black" points="1450.24,-190.104 1446.74,-180.104 1443.24,-190.104 1450.24,-190.104"/>
</g>
</g>
</svg>
