<?xml version="1.0" encoding="UTF-8" standalone="no"?>
<!DOCTYPE svg PUBLIC "-//W3C//DTD SVG 1.1//EN"
 "http://www.w3.org/Graphics/SVG/1.1/DTD/svg11.dtd">
<!-- Generated by graphviz version 2.38.0 (20140413.2041)
 -->
<!-- Title: %3 Pages: 1 -->
<svg width="476pt" height="404pt"
 viewBox="0.00 0.00 475.89 404.00" xmlns="http://www.w3.org/2000/svg" xmlns:xlink="http://www.w3.org/1999/xlink">
<g id="graph0" class="graph" transform="scale(1 1) rotate(0) translate(4 400)">
<title>%3</title>
<polygon fill="white" stroke="none" points="-4,4 -4,-400 471.89,-400 471.89,4 -4,4"/>
<!-- ExpConst1 -->
<g id="node1" class="node"><title>ExpConst1</title>
<ellipse fill="none" stroke="black" cx="291.945" cy="-234" rx="50.0912" ry="18"/>
<text text-anchor="middle" x="291.945" y="-230.3" font-family="Times,serif" font-size="14.00">ExpConst1</text>
</g>
<!-- Value1: 0 -->
<g id="node2" class="node"><title>Value1: 0</title>
<ellipse fill="none" stroke="black" cx="291.945" cy="-162" rx="45.4919" ry="18"/>
<text text-anchor="middle" x="291.945" y="-158.3" font-family="Times,serif" font-size="14.00">Value1: 0</text>
</g>
<!-- ExpConst1&#45;&gt;Value1: 0 -->
<g id="edge1" class="edge"><title>ExpConst1&#45;&gt;Value1: 0</title>
<path fill="none" stroke="black" d="M291.945,-215.697C291.945,-207.983 291.945,-198.712 291.945,-190.112"/>
<polygon fill="black" stroke="black" points="295.445,-190.104 291.945,-180.104 288.445,-190.104 295.445,-190.104"/>
</g>
<!-- ExpMem0 -->
<g id="node3" class="node"><title>ExpMem0</title>
<ellipse fill="none" stroke="black" cx="174.945" cy="-234" rx="48.9926" ry="18"/>
<text text-anchor="middle" x="174.945" y="-230.3" font-family="Times,serif" font-size="14.00">ExpMem0</text>
</g>
<!-- ExpBinary0 -->
<g id="node4" class="node"><title>ExpBinary0</title>
<ellipse fill="none" stroke="black" cx="174.945" cy="-162" rx="53.0913" ry="18"/>
<text text-anchor="middle" x="174.945" y="-158.3" font-family="Times,serif" font-size="14.00">ExpBinary0</text>
</g>
<!-- ExpMem0&#45;&gt;ExpBinary0 -->
<g id="edge2" class="edge"><title>ExpMem0&#45;&gt;ExpBinary0</title>
<path fill="none" stroke="black" d="M174.945,-215.697C174.945,-207.983 174.945,-198.712 174.945,-190.112"/>
<polygon fill="black" stroke="black" points="178.445,-190.104 174.945,-180.104 171.445,-190.104 178.445,-190.104"/>
</g>
<!-- ExpConst0 -->
<g id="node7" class="node"><title>ExpConst0</title>
<ellipse fill="none" stroke="black" cx="273.945" cy="-90" rx="50.0912" ry="18"/>
<text text-anchor="middle" x="273.945" y="-86.3" font-family="Times,serif" font-size="14.00">ExpConst0</text>
</g>
<!-- ExpBinary0&#45;&gt;ExpConst0 -->
<g id="edge14" class="edge"><title>ExpBinary0&#45;&gt;ExpConst0</title>
<path fill="none" stroke="black" d="M196.917,-145.465C210.726,-135.7 228.727,-122.972 243.855,-112.276"/>
<polygon fill="black" stroke="black" points="246.231,-114.882 252.376,-106.251 242.19,-109.167 246.231,-114.882"/>
</g>
<!-- ExpTemp0 -->
<g id="node13" class="node"><title>ExpTemp0</title>
<ellipse fill="none" stroke="black" cx="75.9452" cy="-90" rx="50.0912" ry="18"/>
<text text-anchor="middle" x="75.9452" y="-86.3" font-family="Times,serif" font-size="14.00">ExpTemp0</text>
</g>
<!-- ExpBinary0&#45;&gt;ExpTemp0 -->
<g id="edge12" class="edge"><title>ExpBinary0&#45;&gt;ExpTemp0</title>
<path fill="none" stroke="black" d="M152.974,-145.465C139.164,-135.7 121.163,-122.972 106.036,-112.276"/>
<polygon fill="black" stroke="black" points="107.7,-109.167 97.5145,-106.251 103.659,-114.882 107.7,-109.167"/>
</g>
<!-- Plus0 -->
<g id="node15" class="node"><title>Plus0</title>
<ellipse fill="none" stroke="black" cx="174.945" cy="-90" rx="30.5947" ry="18"/>
<text text-anchor="middle" x="174.945" y="-86.3" font-family="Times,serif" font-size="14.00">Plus0</text>
</g>
<!-- ExpBinary0&#45;&gt;Plus0 -->
<g id="edge13" class="edge"><title>ExpBinary0&#45;&gt;Plus0</title>
<path fill="none" stroke="black" d="M174.945,-143.697C174.945,-135.983 174.945,-126.712 174.945,-118.112"/>
<polygon fill="black" stroke="black" points="178.445,-118.104 174.945,-108.104 171.445,-118.104 178.445,-118.104"/>
</g>
<!-- StatJump0 -->
<g id="node5" class="node"><title>StatJump0</title>
<ellipse fill="none" stroke="black" cx="382.945" cy="-306" rx="48.1917" ry="18"/>
<text text-anchor="middle" x="382.945" y="-302.3" font-family="Times,serif" font-size="14.00">StatJump0</text>
</g>
<!-- Label1: L78 -->
<g id="node6" class="node"><title>Label1: L78</title>
<ellipse fill="none" stroke="black" cx="413.945" cy="-234" rx="53.8905" ry="18"/>
<text text-anchor="middle" x="413.945" y="-230.3" font-family="Times,serif" font-size="14.00">Label1: L78</text>
</g>
<!-- StatJump0&#45;&gt;Label1: L78 -->
<g id="edge3" class="edge"><title>StatJump0&#45;&gt;Label1: L78</title>
<path fill="none" stroke="black" d="M390.449,-288.055C393.976,-280.091 398.263,-270.411 402.205,-261.51"/>
<polygon fill="black" stroke="black" points="405.446,-262.836 406.295,-252.275 399.045,-260.002 405.446,-262.836"/>
</g>
<!-- Value0: 12 -->
<g id="node8" class="node"><title>Value0: 12</title>
<ellipse fill="none" stroke="black" cx="273.945" cy="-18" rx="50.0912" ry="18"/>
<text text-anchor="middle" x="273.945" y="-14.3" font-family="Times,serif" font-size="14.00">Value0: 12</text>
</g>
<!-- ExpConst0&#45;&gt;Value0: 12 -->
<g id="edge4" class="edge"><title>ExpConst0&#45;&gt;Value0: 12</title>
<path fill="none" stroke="black" d="M273.945,-71.6966C273.945,-63.9827 273.945,-54.7125 273.945,-46.1124"/>
<polygon fill="black" stroke="black" points="277.445,-46.1043 273.945,-36.1043 270.445,-46.1044 277.445,-46.1043"/>
</g>
<!-- StatLabel0 -->
<g id="node9" class="node"><title>StatLabel0</title>
<ellipse fill="none" stroke="black" cx="86.9452" cy="-306" rx="48.9926" ry="18"/>
<text text-anchor="middle" x="86.9452" y="-302.3" font-family="Times,serif" font-size="14.00">StatLabel0</text>
</g>
<!-- Label0: L77 -->
<g id="node10" class="node"><title>Label0: L77</title>
<ellipse fill="none" stroke="black" cx="53.9452" cy="-234" rx="53.8905" ry="18"/>
<text text-anchor="middle" x="53.9452" y="-230.3" font-family="Times,serif" font-size="14.00">Label0: L77</text>
</g>
<!-- StatLabel0&#45;&gt;Label0: L77 -->
<g id="edge5" class="edge"><title>StatLabel0&#45;&gt;Label0: L77</title>
<path fill="none" stroke="black" d="M78.9568,-288.055C75.2026,-280.091 70.6389,-270.411 66.4426,-261.51"/>
<polygon fill="black" stroke="black" points="69.5194,-259.828 62.0893,-252.275 63.1877,-262.813 69.5194,-259.828"/>
</g>
<!-- StatList0 -->
<g id="node11" class="node"><title>StatList0</title>
<ellipse fill="none" stroke="black" cx="205.945" cy="-378" rx="42.4939" ry="18"/>
<text text-anchor="middle" x="205.945" y="-374.3" font-family="Times,serif" font-size="14.00">StatList0</text>
</g>
<!-- StatList0&#45;&gt;StatJump0 -->
<g id="edge8" class="edge"><title>StatList0&#45;&gt;StatJump0</title>
<path fill="none" stroke="black" d="M235.971,-365.125C264.931,-353.672 309.013,-336.239 341.347,-323.451"/>
<polygon fill="black" stroke="black" points="342.963,-326.576 350.975,-319.644 340.389,-320.067 342.963,-326.576"/>
</g>
<!-- StatList0&#45;&gt;StatLabel0 -->
<g id="edge6" class="edge"><title>StatList0&#45;&gt;StatLabel0</title>
<path fill="none" stroke="black" d="M182.15,-363.003C164.504,-352.623 140.21,-338.333 120.58,-326.785"/>
<polygon fill="black" stroke="black" points="122.324,-323.75 111.93,-321.697 118.775,-329.784 122.324,-323.75"/>
</g>
<!-- StatMove0 -->
<g id="node12" class="node"><title>StatMove0</title>
<ellipse fill="none" stroke="black" cx="205.945" cy="-306" rx="50.0912" ry="18"/>
<text text-anchor="middle" x="205.945" y="-302.3" font-family="Times,serif" font-size="14.00">StatMove0</text>
</g>
<!-- StatList0&#45;&gt;StatMove0 -->
<g id="edge7" class="edge"><title>StatList0&#45;&gt;StatMove0</title>
<path fill="none" stroke="black" d="M205.945,-359.697C205.945,-351.983 205.945,-342.712 205.945,-334.112"/>
<polygon fill="black" stroke="black" points="209.445,-334.104 205.945,-324.104 202.445,-334.104 209.445,-334.104"/>
</g>
<!-- StatMove0&#45;&gt;ExpConst1 -->
<g id="edge11" class="edge"><title>StatMove0&#45;&gt;ExpConst1</title>
<path fill="none" stroke="black" d="M225.46,-289.116C237.005,-279.718 251.809,-267.669 264.516,-257.326"/>
<polygon fill="black" stroke="black" points="266.962,-259.848 272.508,-250.821 262.543,-254.419 266.962,-259.848"/>
</g>
<!-- StatMove0&#45;&gt;ExpMem0 -->
<g id="edge10" class="edge"><title>StatMove0&#45;&gt;ExpMem0</title>
<path fill="none" stroke="black" d="M198.441,-288.055C194.914,-280.091 190.627,-270.411 186.685,-261.51"/>
<polygon fill="black" stroke="black" points="189.845,-260.002 182.596,-252.275 183.445,-262.836 189.845,-260.002"/>
</g>
<!-- Temp0: $fp -->
<g id="node14" class="node"><title>Temp0: $fp</title>
<ellipse fill="none" stroke="black" cx="75.9452" cy="-18" rx="52.7911" ry="18"/>
<text text-anchor="middle" x="75.9452" y="-14.3" font-family="Times,serif" font-size="14.00">Temp0: $fp</text>
</g>
<!-- ExpTemp0&#45;&gt;Temp0: $fp -->
<g id="edge9" class="edge"><title>ExpTemp0&#45;&gt;Temp0: $fp</title>
<path fill="none" stroke="black" d="M75.9452,-71.6966C75.9452,-63.9827 75.9452,-54.7125 75.9452,-46.1124"/>
<polygon fill="black" stroke="black" points="79.4453,-46.1043 75.9452,-36.1043 72.4453,-46.1044 79.4453,-46.1043"/>
</g>
</g>
</svg>
