<?xml version="1.0" encoding="UTF-8" standalone="no"?>
<!DOCTYPE svg PUBLIC "-//W3C//DTD SVG 1.1//EN"
 "http://www.w3.org/Graphics/SVG/1.1/DTD/svg11.dtd">
<!-- Generated by graphviz version 2.38.0 (20140413.2041)
 -->
<!-- Title: %3 Pages: 1 -->
<svg width="541pt" height="476pt"
 viewBox="0.00 0.00 540.89 476.00" xmlns="http://www.w3.org/2000/svg" xmlns:xlink="http://www.w3.org/1999/xlink">
<g id="graph0" class="graph" transform="scale(1 1) rotate(0) translate(4 472)">
<title>%3</title>
<polygon fill="white" stroke="none" points="-4,4 -4,-472 536.887,-472 536.887,4 -4,4"/>
<!-- ExpMem0 -->
<g id="node1" class="node"><title>ExpMem0</title>
<ellipse fill="none" stroke="black" cx="381.841" cy="-306" rx="48.9926" ry="18"/>
<text text-anchor="middle" x="381.841" y="-302.3" font-family="Times,serif" font-size="14.00">ExpMem0</text>
</g>
<!-- ExpBinary0 -->
<g id="node2" class="node"><title>ExpBinary0</title>
<ellipse fill="none" stroke="black" cx="383.841" cy="-234" rx="53.0913" ry="18"/>
<text text-anchor="middle" x="383.841" y="-230.3" font-family="Times,serif" font-size="14.00">ExpBinary0</text>
</g>
<!-- ExpMem0&#45;&gt;ExpBinary0 -->
<g id="edge1" class="edge"><title>ExpMem0&#45;&gt;ExpBinary0</title>
<path fill="none" stroke="black" d="M382.336,-287.697C382.556,-279.983 382.821,-270.712 383.067,-262.112"/>
<polygon fill="black" stroke="black" points="386.566,-262.2 383.353,-252.104 379.568,-262 386.566,-262.2"/>
</g>
<!-- ExpMem1 -->
<g id="node3" class="node"><title>ExpMem1</title>
<ellipse fill="none" stroke="black" cx="286.841" cy="-162" rx="48.9926" ry="18"/>
<text text-anchor="middle" x="286.841" y="-158.3" font-family="Times,serif" font-size="14.00">ExpMem1</text>
</g>
<!-- ExpBinary0&#45;&gt;ExpMem1 -->
<g id="edge9" class="edge"><title>ExpBinary0&#45;&gt;ExpMem1</title>
<path fill="none" stroke="black" d="M362.314,-217.465C348.783,-207.7 331.146,-194.972 316.324,-184.276"/>
<polygon fill="black" stroke="black" points="318.132,-181.265 307.975,-178.251 314.036,-186.941 318.132,-181.265"/>
</g>
<!-- ExpConst0 -->
<g id="node6" class="node"><title>ExpConst0</title>
<ellipse fill="none" stroke="black" cx="482.841" cy="-162" rx="50.0912" ry="18"/>
<text text-anchor="middle" x="482.841" y="-158.3" font-family="Times,serif" font-size="14.00">ExpConst0</text>
</g>
<!-- ExpBinary0&#45;&gt;ExpConst0 -->
<g id="edge11" class="edge"><title>ExpBinary0&#45;&gt;ExpConst0</title>
<path fill="none" stroke="black" d="M405.813,-217.465C419.622,-207.7 437.623,-194.972 452.751,-184.276"/>
<polygon fill="black" stroke="black" points="455.128,-186.882 461.272,-178.251 451.086,-181.167 455.128,-186.882"/>
</g>
<!-- Plus0 -->
<g id="node14" class="node"><title>Plus0</title>
<ellipse fill="none" stroke="black" cx="383.841" cy="-162" rx="30.5947" ry="18"/>
<text text-anchor="middle" x="383.841" y="-158.3" font-family="Times,serif" font-size="14.00">Plus0</text>
</g>
<!-- ExpBinary0&#45;&gt;Plus0 -->
<g id="edge10" class="edge"><title>ExpBinary0&#45;&gt;Plus0</title>
<path fill="none" stroke="black" d="M383.841,-215.697C383.841,-207.983 383.841,-198.712 383.841,-190.112"/>
<polygon fill="black" stroke="black" points="387.342,-190.104 383.841,-180.104 380.342,-190.104 387.342,-190.104"/>
</g>
<!-- ExpTemp1 -->
<g id="node4" class="node"><title>ExpTemp1</title>
<ellipse fill="none" stroke="black" cx="286.841" cy="-90" rx="50.0912" ry="18"/>
<text text-anchor="middle" x="286.841" y="-86.3" font-family="Times,serif" font-size="14.00">ExpTemp1</text>
</g>
<!-- ExpMem1&#45;&gt;ExpTemp1 -->
<g id="edge2" class="edge"><title>ExpMem1&#45;&gt;ExpTemp1</title>
<path fill="none" stroke="black" d="M286.841,-143.697C286.841,-135.983 286.841,-126.712 286.841,-118.112"/>
<polygon fill="black" stroke="black" points="290.342,-118.104 286.841,-108.104 283.342,-118.104 290.342,-118.104"/>
</g>
<!-- Temp1: $fp -->
<g id="node5" class="node"><title>Temp1: $fp</title>
<ellipse fill="none" stroke="black" cx="286.841" cy="-18" rx="52.7911" ry="18"/>
<text text-anchor="middle" x="286.841" y="-14.3" font-family="Times,serif" font-size="14.00">Temp1: $fp</text>
</g>
<!-- ExpTemp1&#45;&gt;Temp1: $fp -->
<g id="edge3" class="edge"><title>ExpTemp1&#45;&gt;Temp1: $fp</title>
<path fill="none" stroke="black" d="M286.841,-71.6966C286.841,-63.9827 286.841,-54.7125 286.841,-46.1124"/>
<polygon fill="black" stroke="black" points="290.342,-46.1043 286.841,-36.1043 283.342,-46.1044 290.342,-46.1043"/>
</g>
<!-- Value0: 20 -->
<g id="node7" class="node"><title>Value0: 20</title>
<ellipse fill="none" stroke="black" cx="482.841" cy="-90" rx="50.0912" ry="18"/>
<text text-anchor="middle" x="482.841" y="-86.3" font-family="Times,serif" font-size="14.00">Value0: 20</text>
</g>
<!-- ExpConst0&#45;&gt;Value0: 20 -->
<g id="edge4" class="edge"><title>ExpConst0&#45;&gt;Value0: 20</title>
<path fill="none" stroke="black" d="M482.841,-143.697C482.841,-135.983 482.841,-126.712 482.841,-118.112"/>
<polygon fill="black" stroke="black" points="486.342,-118.104 482.841,-108.104 479.342,-118.104 486.342,-118.104"/>
</g>
<!-- StatLabel0 -->
<g id="node8" class="node"><title>StatLabel0</title>
<ellipse fill="none" stroke="black" cx="120.841" cy="-378" rx="48.9926" ry="18"/>
<text text-anchor="middle" x="120.841" y="-374.3" font-family="Times,serif" font-size="14.00">StatLabel0</text>
</g>
<!-- Label0: Tree@GetRight -->
<g id="node9" class="node"><title>Label0: Tree@GetRight</title>
<ellipse fill="none" stroke="black" cx="96.8414" cy="-306" rx="96.6831" ry="18"/>
<text text-anchor="middle" x="96.8414" y="-302.3" font-family="Times,serif" font-size="14.00">Label0: Tree@GetRight</text>
</g>
<!-- StatLabel0&#45;&gt;Label0: Tree@GetRight -->
<g id="edge5" class="edge"><title>StatLabel0&#45;&gt;Label0: Tree@GetRight</title>
<path fill="none" stroke="black" d="M115.032,-360.055C112.33,-352.176 109.053,-342.617 106.028,-333.794"/>
<polygon fill="black" stroke="black" points="109.318,-332.6 102.764,-324.275 102.697,-334.87 109.318,-332.6"/>
</g>
<!-- StatList0 -->
<g id="node10" class="node"><title>StatList0</title>
<ellipse fill="none" stroke="black" cx="190.841" cy="-450" rx="42.4939" ry="18"/>
<text text-anchor="middle" x="190.841" y="-446.3" font-family="Times,serif" font-size="14.00">StatList0</text>
</g>
<!-- StatList0&#45;&gt;StatLabel0 -->
<g id="edge6" class="edge"><title>StatList0&#45;&gt;StatLabel0</title>
<path fill="none" stroke="black" d="M174.957,-433.116C165.957,-424.116 154.524,-412.682 144.488,-402.646"/>
<polygon fill="black" stroke="black" points="146.694,-399.903 137.148,-395.307 141.745,-404.853 146.694,-399.903"/>
</g>
<!-- StatMove0 -->
<g id="node11" class="node"><title>StatMove0</title>
<ellipse fill="none" stroke="black" cx="261.841" cy="-378" rx="50.0912" ry="18"/>
<text text-anchor="middle" x="261.841" y="-374.3" font-family="Times,serif" font-size="14.00">StatMove0</text>
</g>
<!-- StatList0&#45;&gt;StatMove0 -->
<g id="edge7" class="edge"><title>StatList0&#45;&gt;StatMove0</title>
<path fill="none" stroke="black" d="M206.952,-433.116C216.171,-424.027 227.905,-412.458 238.157,-402.351"/>
<polygon fill="black" stroke="black" points="240.638,-404.82 245.301,-395.307 235.723,-399.835 240.638,-404.82"/>
</g>
<!-- StatMove0&#45;&gt;ExpMem0 -->
<g id="edge13" class="edge"><title>StatMove0&#45;&gt;ExpMem0</title>
<path fill="none" stroke="black" d="M286.997,-362.326C304.678,-352.012 328.535,-338.095 347.899,-326.8"/>
<polygon fill="black" stroke="black" points="349.844,-329.717 356.719,-321.655 346.317,-323.671 349.844,-329.717"/>
</g>
<!-- ExpTemp0 -->
<g id="node12" class="node"><title>ExpTemp0</title>
<ellipse fill="none" stroke="black" cx="261.841" cy="-306" rx="50.0912" ry="18"/>
<text text-anchor="middle" x="261.841" y="-302.3" font-family="Times,serif" font-size="14.00">ExpTemp0</text>
</g>
<!-- StatMove0&#45;&gt;ExpTemp0 -->
<g id="edge12" class="edge"><title>StatMove0&#45;&gt;ExpTemp0</title>
<path fill="none" stroke="black" d="M261.841,-359.697C261.841,-351.983 261.841,-342.712 261.841,-334.112"/>
<polygon fill="black" stroke="black" points="265.342,-334.104 261.841,-324.104 258.342,-334.104 265.342,-334.104"/>
</g>
<!-- Temp0: $rv -->
<g id="node13" class="node"><title>Temp0: $rv</title>
<ellipse fill="none" stroke="black" cx="259.841" cy="-234" rx="52.7911" ry="18"/>
<text text-anchor="middle" x="259.841" y="-230.3" font-family="Times,serif" font-size="14.00">Temp0: $rv</text>
</g>
<!-- ExpTemp0&#45;&gt;Temp0: $rv -->
<g id="edge8" class="edge"><title>ExpTemp0&#45;&gt;Temp0: $rv</title>
<path fill="none" stroke="black" d="M261.347,-287.697C261.127,-279.983 260.862,-270.712 260.616,-262.112"/>
<polygon fill="black" stroke="black" points="264.114,-262 260.33,-252.104 257.117,-262.2 264.114,-262"/>
</g>
</g>
</svg>
