<?xml version="1.0" encoding="UTF-8" standalone="no"?>
<!DOCTYPE svg PUBLIC "-//W3C//DTD SVG 1.1//EN"
 "http://www.w3.org/Graphics/SVG/1.1/DTD/svg11.dtd">
<!-- Generated by graphviz version 2.38.0 (20140413.2041)
 -->
<!-- Title: %3 Pages: 1 -->
<svg width="436pt" height="260pt"
 viewBox="0.00 0.00 435.59 260.00" xmlns="http://www.w3.org/2000/svg" xmlns:xlink="http://www.w3.org/1999/xlink">
<g id="graph0" class="graph" transform="scale(1 1) rotate(0) translate(4 256)">
<title>%3</title>
<polygon fill="white" stroke="none" points="-4,4 -4,-256 431.589,-256 431.589,4 -4,4"/>
<!-- Call0 -->
<g id="node1" class="node"><title>Call0</title>
<ellipse fill="none" stroke="black" cx="225.795" cy="-162" rx="29.795" ry="18"/>
<text text-anchor="middle" x="225.795" y="-158.3" font-family="Times,serif" font-size="14.00">Call0</text>
</g>
<!-- Function0: TV@Start -->
<g id="node2" class="node"><title>Function0: TV@Start</title>
<ellipse fill="none" stroke="black" cx="225.795" cy="-90" rx="87.9851" ry="18"/>
<text text-anchor="middle" x="225.795" y="-86.3" font-family="Times,serif" font-size="14.00">Function0: TV@Start</text>
</g>
<!-- Call0&#45;&gt;Function0: TV@Start -->
<g id="edge1" class="edge"><title>Call0&#45;&gt;Function0: TV@Start</title>
<path fill="none" stroke="black" d="M225.795,-143.697C225.795,-135.983 225.795,-126.712 225.795,-118.112"/>
<polygon fill="black" stroke="black" points="229.295,-118.104 225.795,-108.104 222.295,-118.104 229.295,-118.104"/>
</g>
<!-- Temp2 -->
<g id="node3" class="node"><title>Temp2</title>
<ellipse fill="none" stroke="black" cx="367.795" cy="-90" rx="36.2938" ry="18"/>
<text text-anchor="middle" x="367.795" y="-86.3" font-family="Times,serif" font-size="14.00">Temp2</text>
</g>
<!-- Call0&#45;&gt;Temp2 -->
<g id="edge2" class="edge"><title>Call0&#45;&gt;Temp2</title>
<path fill="none" stroke="black" d="M248.295,-149.908C271.279,-138.578 307.253,-120.844 333.73,-107.792"/>
<polygon fill="black" stroke="black" points="335.591,-110.777 343.013,-103.216 332.496,-104.498 335.591,-110.777"/>
</g>
<!-- Temp3: T113 -->
<g id="node6" class="node"><title>Temp3: T113</title>
<ellipse fill="none" stroke="black" cx="367.795" cy="-18" rx="59.5901" ry="18"/>
<text text-anchor="middle" x="367.795" y="-14.3" font-family="Times,serif" font-size="14.00">Temp3: T113</text>
</g>
<!-- Temp2&#45;&gt;Temp3: T113 -->
<g id="edge5" class="edge"><title>Temp2&#45;&gt;Temp3: T113</title>
<path fill="none" stroke="black" d="M367.795,-71.6966C367.795,-63.9827 367.795,-54.7125 367.795,-46.1124"/>
<polygon fill="black" stroke="black" points="371.295,-46.1043 367.795,-36.1043 364.295,-46.1044 371.295,-46.1043"/>
</g>
<!-- MoveRegister0 -->
<g id="node4" class="node"><title>MoveRegister0</title>
<ellipse fill="none" stroke="black" cx="162.795" cy="-234" rx="65.7887" ry="18"/>
<text text-anchor="middle" x="162.795" y="-230.3" font-family="Times,serif" font-size="14.00">MoveRegister0</text>
</g>
<!-- MoveRegister0&#45;&gt;Call0 -->
<g id="edge4" class="edge"><title>MoveRegister0&#45;&gt;Call0</title>
<path fill="none" stroke="black" d="M177.725,-216.411C185.879,-207.351 196.104,-195.99 205.025,-186.078"/>
<polygon fill="black" stroke="black" points="207.747,-188.285 211.835,-178.511 202.544,-183.602 207.747,-188.285"/>
</g>
<!-- Temp0 -->
<g id="node5" class="node"><title>Temp0</title>
<ellipse fill="none" stroke="black" cx="100.795" cy="-162" rx="36.2938" ry="18"/>
<text text-anchor="middle" x="100.795" y="-158.3" font-family="Times,serif" font-size="14.00">Temp0</text>
</g>
<!-- MoveRegister0&#45;&gt;Temp0 -->
<g id="edge3" class="edge"><title>MoveRegister0&#45;&gt;Temp0</title>
<path fill="none" stroke="black" d="M148.102,-216.411C140.19,-207.479 130.297,-196.31 121.607,-186.498"/>
<polygon fill="black" stroke="black" points="124.206,-184.153 114.956,-178.988 118.966,-188.795 124.206,-184.153"/>
</g>
<!-- Temp1: T114 -->
<g id="node7" class="node"><title>Temp1: T114</title>
<ellipse fill="none" stroke="black" cx="59.7947" cy="-90" rx="59.5901" ry="18"/>
<text text-anchor="middle" x="59.7947" y="-86.3" font-family="Times,serif" font-size="14.00">Temp1: T114</text>
</g>
<!-- Temp0&#45;&gt;Temp1: T114 -->
<g id="edge6" class="edge"><title>Temp0&#45;&gt;Temp1: T114</title>
<path fill="none" stroke="black" d="M91.0783,-144.411C86.2475,-136.163 80.2999,-126.009 74.8924,-116.777"/>
<polygon fill="black" stroke="black" points="77.8004,-114.816 69.7262,-107.956 71.7602,-118.354 77.8004,-114.816"/>
</g>
</g>
</svg>
