<?xml version="1.0" encoding="UTF-8" standalone="no"?>
<!DOCTYPE svg PUBLIC "-//W3C//DTD SVG 1.1//EN"
 "http://www.w3.org/Graphics/SVG/1.1/DTD/svg11.dtd">
<!-- Generated by graphviz version 2.38.0 (20140413.2041)
 -->
<!-- Title: %3 Pages: 1 -->
<svg width="1822pt" height="404pt"
 viewBox="0.00 0.00 1822.09 404.00" xmlns="http://www.w3.org/2000/svg" xmlns:xlink="http://www.w3.org/1999/xlink">
<g id="graph0" class="graph" transform="scale(1 1) rotate(0) translate(4 400)">
<title>%3</title>
<polygon fill="white" stroke="none" points="-4,4 -4,-400 1818.09,-400 1818.09,4 -4,4"/>
<!-- ExpConst1 -->
<g id="node1" class="node"><title>ExpConst1</title>
<ellipse fill="none" stroke="black" cx="1528.05" cy="-234" rx="50.0912" ry="18"/>
<text text-anchor="middle" x="1528.05" y="-230.3" font-family="Times,serif" font-size="14.00">ExpConst1</text>
</g>
<!-- Value1: 0 -->
<g id="node2" class="node"><title>Value1: 0</title>
<ellipse fill="none" stroke="black" cx="1533.05" cy="-162" rx="45.4919" ry="18"/>
<text text-anchor="middle" x="1533.05" y="-158.3" font-family="Times,serif" font-size="14.00">Value1: 0</text>
</g>
<!-- ExpConst1&#45;&gt;Value1: 0 -->
<g id="edge1" class="edge"><title>ExpConst1&#45;&gt;Value1: 0</title>
<path fill="none" stroke="black" d="M1529.28,-215.697C1529.83,-207.983 1530.49,-198.712 1531.11,-190.112"/>
<polygon fill="black" stroke="black" points="1534.6,-190.328 1531.82,-180.104 1527.62,-189.83 1534.6,-190.328"/>
</g>
<!-- ExpName0 -->
<g id="node3" class="node"><title>ExpName0</title>
<ellipse fill="none" stroke="black" cx="591.046" cy="-234" rx="50.8918" ry="18"/>
<text text-anchor="middle" x="591.046" y="-230.3" font-family="Times,serif" font-size="14.00">ExpName0</text>
</g>
<!-- Label1: Element@GetMarried -->
<g id="node4" class="node"><title>Label1: Element@GetMarried</title>
<ellipse fill="none" stroke="black" cx="591.046" cy="-162" rx="119.679" ry="18"/>
<text text-anchor="middle" x="591.046" y="-158.3" font-family="Times,serif" font-size="14.00">Label1: Element@GetMarried</text>
</g>
<!-- ExpName0&#45;&gt;Label1: Element@GetMarried -->
<g id="edge2" class="edge"><title>ExpName0&#45;&gt;Label1: Element@GetMarried</title>
<path fill="none" stroke="black" d="M591.046,-215.697C591.046,-207.983 591.046,-198.712 591.046,-190.112"/>
<polygon fill="black" stroke="black" points="594.546,-190.104 591.046,-180.104 587.546,-190.104 594.546,-190.104"/>
</g>
<!-- StatMove2 -->
<g id="node5" class="node"><title>StatMove2</title>
<ellipse fill="none" stroke="black" cx="788.046" cy="-306" rx="50.0912" ry="18"/>
<text text-anchor="middle" x="788.046" y="-302.3" font-family="Times,serif" font-size="14.00">StatMove2</text>
</g>
<!-- ExpTemp3 -->
<g id="node6" class="node"><title>ExpTemp3</title>
<ellipse fill="none" stroke="black" cx="788.046" cy="-234" rx="50.0912" ry="18"/>
<text text-anchor="middle" x="788.046" y="-230.3" font-family="Times,serif" font-size="14.00">ExpTemp3</text>
</g>
<!-- StatMove2&#45;&gt;ExpTemp3 -->
<g id="edge3" class="edge"><title>StatMove2&#45;&gt;ExpTemp3</title>
<path fill="none" stroke="black" d="M788.046,-287.697C788.046,-279.983 788.046,-270.712 788.046,-262.112"/>
<polygon fill="black" stroke="black" points="791.546,-262.104 788.046,-252.104 784.546,-262.104 791.546,-262.104"/>
</g>
<!-- ExpMem0 -->
<g id="node7" class="node"><title>ExpMem0</title>
<ellipse fill="none" stroke="black" cx="912.046" cy="-234" rx="48.9926" ry="18"/>
<text text-anchor="middle" x="912.046" y="-230.3" font-family="Times,serif" font-size="14.00">ExpMem0</text>
</g>
<!-- StatMove2&#45;&gt;ExpMem0 -->
<g id="edge4" class="edge"><title>StatMove2&#45;&gt;ExpMem0</title>
<path fill="none" stroke="black" d="M813.738,-290.496C832.193,-280.078 857.275,-265.919 877.484,-254.51"/>
<polygon fill="black" stroke="black" points="879.398,-257.449 886.386,-249.485 875.957,-251.354 879.398,-257.449"/>
</g>
<!-- Temp3: T316 -->
<g id="node10" class="node"><title>Temp3: T316</title>
<ellipse fill="none" stroke="black" cx="788.046" cy="-162" rx="59.5901" ry="18"/>
<text text-anchor="middle" x="788.046" y="-158.3" font-family="Times,serif" font-size="14.00">Temp3: T316</text>
</g>
<!-- ExpTemp3&#45;&gt;Temp3: T316 -->
<g id="edge6" class="edge"><title>ExpTemp3&#45;&gt;Temp3: T316</title>
<path fill="none" stroke="black" d="M788.046,-215.697C788.046,-207.983 788.046,-198.712 788.046,-190.112"/>
<polygon fill="black" stroke="black" points="791.546,-190.104 788.046,-180.104 784.546,-190.104 791.546,-190.104"/>
</g>
<!-- ExpBinary0 -->
<g id="node28" class="node"><title>ExpBinary0</title>
<ellipse fill="none" stroke="black" cx="919.046" cy="-162" rx="53.0913" ry="18"/>
<text text-anchor="middle" x="919.046" y="-158.3" font-family="Times,serif" font-size="14.00">ExpBinary0</text>
</g>
<!-- ExpMem0&#45;&gt;ExpBinary0 -->
<g id="edge25" class="edge"><title>ExpMem0&#45;&gt;ExpBinary0</title>
<path fill="none" stroke="black" d="M913.776,-215.697C914.547,-207.983 915.474,-198.712 916.334,-190.112"/>
<polygon fill="black" stroke="black" points="919.823,-190.403 917.335,-180.104 912.857,-189.706 919.823,-190.403"/>
</g>
<!-- ExpTemp2 -->
<g id="node8" class="node"><title>ExpTemp2</title>
<ellipse fill="none" stroke="black" cx="433.046" cy="-234" rx="50.0912" ry="18"/>
<text text-anchor="middle" x="433.046" y="-230.3" font-family="Times,serif" font-size="14.00">ExpTemp2</text>
</g>
<!-- Temp2: T315 -->
<g id="node9" class="node"><title>Temp2: T315</title>
<ellipse fill="none" stroke="black" cx="394.046" cy="-162" rx="59.5901" ry="18"/>
<text text-anchor="middle" x="394.046" y="-158.3" font-family="Times,serif" font-size="14.00">Temp2: T315</text>
</g>
<!-- ExpTemp2&#45;&gt;Temp2: T315 -->
<g id="edge5" class="edge"><title>ExpTemp2&#45;&gt;Temp2: T315</title>
<path fill="none" stroke="black" d="M423.605,-216.055C419.006,-207.801 413.379,-197.701 408.274,-188.538"/>
<polygon fill="black" stroke="black" points="411.324,-186.821 403.399,-179.789 405.209,-190.228 411.324,-186.821"/>
</g>
<!-- StatLabel0 -->
<g id="node11" class="node"><title>StatLabel0</title>
<ellipse fill="none" stroke="black" cx="110.046" cy="-306" rx="48.9926" ry="18"/>
<text text-anchor="middle" x="110.046" y="-302.3" font-family="Times,serif" font-size="14.00">StatLabel0</text>
</g>
<!-- Label0: L6 -->
<g id="node12" class="node"><title>Label0: L6</title>
<ellipse fill="none" stroke="black" cx="50.0456" cy="-234" rx="50.0912" ry="18"/>
<text text-anchor="middle" x="50.0456" y="-230.3" font-family="Times,serif" font-size="14.00">Label0: L6</text>
</g>
<!-- StatLabel0&#45;&gt;Label0: L6 -->
<g id="edge7" class="edge"><title>StatLabel0&#45;&gt;Label0: L6</title>
<path fill="none" stroke="black" d="M95.8264,-288.411C88.3541,-279.693 79.0559,-268.845 70.795,-259.208"/>
<polygon fill="black" stroke="black" points="73.328,-256.785 64.1627,-251.47 68.0132,-261.34 73.328,-256.785"/>
</g>
<!-- StatList0 -->
<g id="node13" class="node"><title>StatList0</title>
<ellipse fill="none" stroke="black" cx="689.046" cy="-378" rx="42.4939" ry="18"/>
<text text-anchor="middle" x="689.046" y="-374.3" font-family="Times,serif" font-size="14.00">StatList0</text>
</g>
<!-- StatList0&#45;&gt;StatMove2 -->
<g id="edge11" class="edge"><title>StatList0&#45;&gt;StatMove2</title>
<path fill="none" stroke="black" d="M710.041,-362.155C724.025,-352.267 742.613,-339.124 758.136,-328.148"/>
<polygon fill="black" stroke="black" points="760.252,-330.939 766.396,-322.308 756.21,-325.223 760.252,-330.939"/>
</g>
<!-- StatList0&#45;&gt;StatLabel0 -->
<g id="edge8" class="edge"><title>StatList0&#45;&gt;StatLabel0</title>
<path fill="none" stroke="black" d="M648.517,-372.765C568.073,-364.267 382.564,-344.214 227.046,-324 206.506,-321.33 183.979,-318.124 164.224,-315.219"/>
<polygon fill="black" stroke="black" points="164.576,-311.733 154.171,-313.731 163.551,-318.657 164.576,-311.733"/>
</g>
<!-- StatMove0 -->
<g id="node14" class="node"><title>StatMove0</title>
<ellipse fill="none" stroke="black" cx="286.046" cy="-306" rx="50.0912" ry="18"/>
<text text-anchor="middle" x="286.046" y="-302.3" font-family="Times,serif" font-size="14.00">StatMove0</text>
</g>
<!-- StatList0&#45;&gt;StatMove0 -->
<g id="edge9" class="edge"><title>StatList0&#45;&gt;StatMove0</title>
<path fill="none" stroke="black" d="M650.769,-370.351C578.72,-357.837 422.784,-330.751 340.083,-316.386"/>
<polygon fill="black" stroke="black" points="340.58,-312.92 330.129,-314.657 339.382,-319.817 340.58,-312.92"/>
</g>
<!-- StatMove1 -->
<g id="node15" class="node"><title>StatMove1</title>
<ellipse fill="none" stroke="black" cx="591.046" cy="-306" rx="50.0912" ry="18"/>
<text text-anchor="middle" x="591.046" y="-302.3" font-family="Times,serif" font-size="14.00">StatMove1</text>
</g>
<!-- StatList0&#45;&gt;StatMove1 -->
<g id="edge10" class="edge"><title>StatList0&#45;&gt;StatMove1</title>
<path fill="none" stroke="black" d="M668.262,-362.155C654.42,-352.267 636.019,-339.124 620.653,-328.148"/>
<polygon fill="black" stroke="black" points="622.648,-325.272 612.476,-322.308 618.579,-330.968 622.648,-325.272"/>
</g>
<!-- StatMove3 -->
<g id="node16" class="node"><title>StatMove3</title>
<ellipse fill="none" stroke="black" cx="1050.05" cy="-306" rx="50.0912" ry="18"/>
<text text-anchor="middle" x="1050.05" y="-302.3" font-family="Times,serif" font-size="14.00">StatMove3</text>
</g>
<!-- StatList0&#45;&gt;StatMove3 -->
<g id="edge12" class="edge"><title>StatList0&#45;&gt;StatMove3</title>
<path fill="none" stroke="black" d="M726.657,-369.707C791.163,-357.199 923.064,-331.623 996.926,-317.3"/>
<polygon fill="black" stroke="black" points="997.799,-320.696 1006.95,-315.356 996.467,-313.824 997.799,-320.696"/>
</g>
<!-- StatCJump0 -->
<g id="node17" class="node"><title>StatCJump0</title>
<ellipse fill="none" stroke="black" cx="1469.05" cy="-306" rx="53.8905" ry="18"/>
<text text-anchor="middle" x="1469.05" y="-302.3" font-family="Times,serif" font-size="14.00">StatCJump0</text>
</g>
<!-- StatList0&#45;&gt;StatCJump0 -->
<g id="edge13" class="edge"><title>StatList0&#45;&gt;StatCJump0</title>
<path fill="none" stroke="black" d="M729.884,-373.335C858.273,-361.813 1254.28,-326.274 1407.57,-312.517"/>
<polygon fill="black" stroke="black" points="1408.1,-315.984 1417.74,-311.604 1407.47,-309.012 1408.1,-315.984"/>
</g>
<!-- ExpTemp0 -->
<g id="node18" class="node"><title>ExpTemp0</title>
<ellipse fill="none" stroke="black" cx="168.046" cy="-234" rx="50.0912" ry="18"/>
<text text-anchor="middle" x="168.046" y="-230.3" font-family="Times,serif" font-size="14.00">ExpTemp0</text>
</g>
<!-- StatMove0&#45;&gt;ExpTemp0 -->
<g id="edge15" class="edge"><title>StatMove0&#45;&gt;ExpTemp0</title>
<path fill="none" stroke="black" d="M261.309,-290.326C243.923,-280.012 220.463,-266.095 201.422,-254.8"/>
<polygon fill="black" stroke="black" points="203.136,-251.747 192.75,-249.655 199.564,-257.767 203.136,-251.747"/>
</g>
<!-- ExpTemp1 -->
<g id="node20" class="node"><title>ExpTemp1</title>
<ellipse fill="none" stroke="black" cx="286.046" cy="-234" rx="50.0912" ry="18"/>
<text text-anchor="middle" x="286.046" y="-230.3" font-family="Times,serif" font-size="14.00">ExpTemp1</text>
</g>
<!-- StatMove0&#45;&gt;ExpTemp1 -->
<g id="edge16" class="edge"><title>StatMove0&#45;&gt;ExpTemp1</title>
<path fill="none" stroke="black" d="M286.046,-287.697C286.046,-279.983 286.046,-270.712 286.046,-262.112"/>
<polygon fill="black" stroke="black" points="289.546,-262.104 286.046,-252.104 282.546,-262.104 289.546,-262.104"/>
</g>
<!-- StatMove1&#45;&gt;ExpName0 -->
<g id="edge33" class="edge"><title>StatMove1&#45;&gt;ExpName0</title>
<path fill="none" stroke="black" d="M591.046,-287.697C591.046,-279.983 591.046,-270.712 591.046,-262.112"/>
<polygon fill="black" stroke="black" points="594.546,-262.104 591.046,-252.104 587.546,-262.104 594.546,-262.104"/>
</g>
<!-- StatMove1&#45;&gt;ExpTemp2 -->
<g id="edge32" class="edge"><title>StatMove1&#45;&gt;ExpTemp2</title>
<path fill="none" stroke="black" d="M560.582,-291.503C535.554,-280.415 499.916,-264.626 472.671,-252.556"/>
<polygon fill="black" stroke="black" points="473.977,-249.306 463.416,-248.455 471.141,-255.706 473.977,-249.306"/>
</g>
<!-- ExpCall0 -->
<g id="node25" class="node"><title>ExpCall0</title>
<ellipse fill="none" stroke="black" cx="1178.05" cy="-234" rx="44.393" ry="18"/>
<text text-anchor="middle" x="1178.05" y="-230.3" font-family="Times,serif" font-size="14.00">ExpCall0</text>
</g>
<!-- StatMove3&#45;&gt;ExpCall0 -->
<g id="edge29" class="edge"><title>StatMove3&#45;&gt;ExpCall0</title>
<path fill="none" stroke="black" d="M1076.26,-290.666C1095.75,-280.004 1122.54,-265.356 1143.74,-253.762"/>
<polygon fill="black" stroke="black" points="1145.65,-256.707 1152.74,-248.838 1142.29,-250.566 1145.65,-256.707"/>
</g>
<!-- ExpTemp5 -->
<g id="node33" class="node"><title>ExpTemp5</title>
<ellipse fill="none" stroke="black" cx="1050.05" cy="-234" rx="50.0912" ry="18"/>
<text text-anchor="middle" x="1050.05" y="-230.3" font-family="Times,serif" font-size="14.00">ExpTemp5</text>
</g>
<!-- StatMove3&#45;&gt;ExpTemp5 -->
<g id="edge28" class="edge"><title>StatMove3&#45;&gt;ExpTemp5</title>
<path fill="none" stroke="black" d="M1050.05,-287.697C1050.05,-279.983 1050.05,-270.712 1050.05,-262.112"/>
<polygon fill="black" stroke="black" points="1053.55,-262.104 1050.05,-252.104 1046.55,-262.104 1053.55,-262.104"/>
</g>
<!-- StatCJump0&#45;&gt;ExpConst1 -->
<g id="edge37" class="edge"><title>StatCJump0&#45;&gt;ExpConst1</title>
<path fill="none" stroke="black" d="M1483.03,-288.411C1490.38,-279.693 1499.52,-268.845 1507.64,-259.208"/>
<polygon fill="black" stroke="black" points="1510.4,-261.372 1514.16,-251.47 1505.04,-256.861 1510.4,-261.372"/>
</g>
<!-- ExpTemp8 -->
<g id="node36" class="node"><title>ExpTemp8</title>
<ellipse fill="none" stroke="black" cx="1410.05" cy="-234" rx="50.0912" ry="18"/>
<text text-anchor="middle" x="1410.05" y="-230.3" font-family="Times,serif" font-size="14.00">ExpTemp8</text>
</g>
<!-- StatCJump0&#45;&gt;ExpTemp8 -->
<g id="edge36" class="edge"><title>StatCJump0&#45;&gt;ExpTemp8</title>
<path fill="none" stroke="black" d="M1455.06,-288.411C1447.72,-279.693 1438.57,-268.845 1430.45,-259.208"/>
<polygon fill="black" stroke="black" points="1433.05,-256.861 1423.93,-251.47 1427.7,-261.372 1433.05,-256.861"/>
</g>
<!-- NE0 -->
<g id="node38" class="node"><title>NE0</title>
<ellipse fill="none" stroke="black" cx="1315.05" cy="-234" rx="27" ry="18"/>
<text text-anchor="middle" x="1315.05" y="-230.3" font-family="Times,serif" font-size="14.00">NE0</text>
</g>
<!-- StatCJump0&#45;&gt;NE0 -->
<g id="edge35" class="edge"><title>StatCJump0&#45;&gt;NE0</title>
<path fill="none" stroke="black" d="M1437.92,-291.212C1414.08,-280.608 1380.42,-265.53 1351.05,-252 1349.26,-251.176 1347.42,-250.324 1345.57,-249.462"/>
<polygon fill="black" stroke="black" points="1346.87,-246.21 1336.33,-245.135 1343.9,-252.548 1346.87,-246.21"/>
</g>
<!-- Label2: L1 -->
<g id="node39" class="node"><title>Label2: L1</title>
<ellipse fill="none" stroke="black" cx="1646.05" cy="-234" rx="50.0912" ry="18"/>
<text text-anchor="middle" x="1646.05" y="-230.3" font-family="Times,serif" font-size="14.00">Label2: L1</text>
</g>
<!-- StatCJump0&#45;&gt;Label2: L1 -->
<g id="edge38" class="edge"><title>StatCJump0&#45;&gt;Label2: L1</title>
<path fill="none" stroke="black" d="M1502.34,-291.834C1531.07,-280.469 1572.74,-263.992 1603.81,-251.702"/>
<polygon fill="black" stroke="black" points="1605.49,-254.803 1613.5,-247.871 1602.91,-248.294 1605.49,-254.803"/>
</g>
<!-- Label3: L0 -->
<g id="node40" class="node"><title>Label3: L0</title>
<ellipse fill="none" stroke="black" cx="1764.05" cy="-234" rx="50.0912" ry="18"/>
<text text-anchor="middle" x="1764.05" y="-230.3" font-family="Times,serif" font-size="14.00">Label3: L0</text>
</g>
<!-- StatCJump0&#45;&gt;Label3: L0 -->
<g id="edge39" class="edge"><title>StatCJump0&#45;&gt;Label3: L0</title>
<path fill="none" stroke="black" d="M1513.6,-295.822C1561.19,-285.826 1638.74,-268.982 1705.05,-252 1708.89,-251.016 1712.86,-249.96 1716.84,-248.872"/>
<polygon fill="black" stroke="black" points="1717.99,-252.184 1726.68,-246.129 1716.11,-245.441 1717.99,-252.184"/>
</g>
<!-- Temp0: T317 -->
<g id="node19" class="node"><title>Temp0: T317</title>
<ellipse fill="none" stroke="black" cx="118.046" cy="-162" rx="59.5901" ry="18"/>
<text text-anchor="middle" x="118.046" y="-158.3" font-family="Times,serif" font-size="14.00">Temp0: T317</text>
</g>
<!-- ExpTemp0&#45;&gt;Temp0: T317 -->
<g id="edge14" class="edge"><title>ExpTemp0&#45;&gt;Temp0: T317</title>
<path fill="none" stroke="black" d="M156.196,-216.411C150.182,-207.992 142.749,-197.585 136.046,-188.201"/>
<polygon fill="black" stroke="black" points="138.818,-186.059 130.157,-179.956 133.121,-190.128 138.818,-186.059"/>
</g>
<!-- Temp1: T295 -->
<g id="node32" class="node"><title>Temp1: T295</title>
<ellipse fill="none" stroke="black" cx="256.046" cy="-162" rx="59.5901" ry="18"/>
<text text-anchor="middle" x="256.046" y="-158.3" font-family="Times,serif" font-size="14.00">Temp1: T295</text>
</g>
<!-- ExpTemp1&#45;&gt;Temp1: T295 -->
<g id="edge26" class="edge"><title>ExpTemp1&#45;&gt;Temp1: T295</title>
<path fill="none" stroke="black" d="M278.783,-216.055C275.37,-208.091 271.222,-198.411 267.407,-189.51"/>
<polygon fill="black" stroke="black" points="270.606,-188.088 263.449,-180.275 264.172,-190.845 270.606,-188.088"/>
</g>
<!-- ExpTemp7 -->
<g id="node21" class="node"><title>ExpTemp7</title>
<ellipse fill="none" stroke="black" cx="1297.05" cy="-90" rx="50.0912" ry="18"/>
<text text-anchor="middle" x="1297.05" y="-86.3" font-family="Times,serif" font-size="14.00">ExpTemp7</text>
</g>
<!-- Temp7: T316 -->
<g id="node22" class="node"><title>Temp7: T316</title>
<ellipse fill="none" stroke="black" cx="1297.05" cy="-18" rx="59.5901" ry="18"/>
<text text-anchor="middle" x="1297.05" y="-14.3" font-family="Times,serif" font-size="14.00">Temp7: T316</text>
</g>
<!-- ExpTemp7&#45;&gt;Temp7: T316 -->
<g id="edge17" class="edge"><title>ExpTemp7&#45;&gt;Temp7: T316</title>
<path fill="none" stroke="black" d="M1297.05,-71.6966C1297.05,-63.9827 1297.05,-54.7125 1297.05,-46.1124"/>
<polygon fill="black" stroke="black" points="1300.55,-46.1043 1297.05,-36.1043 1293.55,-46.1044 1300.55,-46.1043"/>
</g>
<!-- ExpTemp4 -->
<g id="node23" class="node"><title>ExpTemp4</title>
<ellipse fill="none" stroke="black" cx="820.046" cy="-90" rx="50.0912" ry="18"/>
<text text-anchor="middle" x="820.046" y="-86.3" font-family="Times,serif" font-size="14.00">ExpTemp4</text>
</g>
<!-- Temp4: $fp -->
<g id="node24" class="node"><title>Temp4: $fp</title>
<ellipse fill="none" stroke="black" cx="820.046" cy="-18" rx="52.7911" ry="18"/>
<text text-anchor="middle" x="820.046" y="-14.3" font-family="Times,serif" font-size="14.00">Temp4: $fp</text>
</g>
<!-- ExpTemp4&#45;&gt;Temp4: $fp -->
<g id="edge18" class="edge"><title>ExpTemp4&#45;&gt;Temp4: $fp</title>
<path fill="none" stroke="black" d="M820.046,-71.6966C820.046,-63.9827 820.046,-54.7125 820.046,-46.1124"/>
<polygon fill="black" stroke="black" points="823.546,-46.1043 820.046,-36.1043 816.546,-46.1044 823.546,-46.1043"/>
</g>
<!-- ExpTemp6 -->
<g id="node26" class="node"><title>ExpTemp6</title>
<ellipse fill="none" stroke="black" cx="1178.05" cy="-162" rx="50.0912" ry="18"/>
<text text-anchor="middle" x="1178.05" y="-158.3" font-family="Times,serif" font-size="14.00">ExpTemp6</text>
</g>
<!-- ExpCall0&#45;&gt;ExpTemp6 -->
<g id="edge19" class="edge"><title>ExpCall0&#45;&gt;ExpTemp6</title>
<path fill="none" stroke="black" d="M1178.05,-215.697C1178.05,-207.983 1178.05,-198.712 1178.05,-190.112"/>
<polygon fill="black" stroke="black" points="1181.55,-190.104 1178.05,-180.104 1174.55,-190.104 1181.55,-190.104"/>
</g>
<!-- ExpList0 -->
<g id="node27" class="node"><title>ExpList0</title>
<ellipse fill="none" stroke="black" cx="1289.05" cy="-162" rx="42.7926" ry="18"/>
<text text-anchor="middle" x="1289.05" y="-158.3" font-family="Times,serif" font-size="14.00">ExpList0</text>
</g>
<!-- ExpCall0&#45;&gt;ExpList0 -->
<g id="edge20" class="edge"><title>ExpCall0&#45;&gt;ExpList0</title>
<path fill="none" stroke="black" d="M1201.04,-218.496C1217.27,-208.266 1239.21,-194.428 1257.13,-183.13"/>
<polygon fill="black" stroke="black" points="1259.48,-185.78 1266.08,-177.485 1255.75,-179.859 1259.48,-185.78"/>
</g>
<!-- Temp6: T315 -->
<g id="node35" class="node"><title>Temp6: T315</title>
<ellipse fill="none" stroke="black" cx="1169.05" cy="-90" rx="59.5901" ry="18"/>
<text text-anchor="middle" x="1169.05" y="-86.3" font-family="Times,serif" font-size="14.00">Temp6: T315</text>
</g>
<!-- ExpTemp6&#45;&gt;Temp6: T315 -->
<g id="edge30" class="edge"><title>ExpTemp6&#45;&gt;Temp6: T315</title>
<path fill="none" stroke="black" d="M1175.82,-143.697C1174.83,-135.983 1173.64,-126.712 1172.53,-118.112"/>
<polygon fill="black" stroke="black" points="1175.99,-117.576 1171.24,-108.104 1169.05,-118.469 1175.99,-117.576"/>
</g>
<!-- ExpList0&#45;&gt;ExpTemp7 -->
<g id="edge31" class="edge"><title>ExpList0&#45;&gt;ExpTemp7</title>
<path fill="none" stroke="black" d="M1291.02,-143.697C1291.9,-135.983 1292.96,-126.712 1293.95,-118.112"/>
<polygon fill="black" stroke="black" points="1297.43,-118.437 1295.09,-108.104 1290.48,-117.642 1297.43,-118.437"/>
</g>
<!-- ExpBinary0&#45;&gt;ExpTemp4 -->
<g id="edge21" class="edge"><title>ExpBinary0&#45;&gt;ExpTemp4</title>
<path fill="none" stroke="black" d="M897.074,-145.465C883.265,-135.7 865.264,-122.972 850.136,-112.276"/>
<polygon fill="black" stroke="black" points="851.801,-109.167 841.615,-106.251 847.759,-114.882 851.801,-109.167"/>
</g>
<!-- Plus0 -->
<g id="node29" class="node"><title>Plus0</title>
<ellipse fill="none" stroke="black" cx="919.046" cy="-90" rx="30.5947" ry="18"/>
<text text-anchor="middle" x="919.046" y="-86.3" font-family="Times,serif" font-size="14.00">Plus0</text>
</g>
<!-- ExpBinary0&#45;&gt;Plus0 -->
<g id="edge22" class="edge"><title>ExpBinary0&#45;&gt;Plus0</title>
<path fill="none" stroke="black" d="M919.046,-143.697C919.046,-135.983 919.046,-126.712 919.046,-118.112"/>
<polygon fill="black" stroke="black" points="922.546,-118.104 919.046,-108.104 915.546,-118.104 922.546,-118.104"/>
</g>
<!-- ExpConst0 -->
<g id="node30" class="node"><title>ExpConst0</title>
<ellipse fill="none" stroke="black" cx="1018.05" cy="-90" rx="50.0912" ry="18"/>
<text text-anchor="middle" x="1018.05" y="-86.3" font-family="Times,serif" font-size="14.00">ExpConst0</text>
</g>
<!-- ExpBinary0&#45;&gt;ExpConst0 -->
<g id="edge23" class="edge"><title>ExpBinary0&#45;&gt;ExpConst0</title>
<path fill="none" stroke="black" d="M941.017,-145.465C954.826,-135.7 972.828,-122.972 987.955,-112.276"/>
<polygon fill="black" stroke="black" points="990.332,-114.882 996.476,-106.251 986.29,-109.167 990.332,-114.882"/>
</g>
<!-- Value0: 4 -->
<g id="node31" class="node"><title>Value0: 4</title>
<ellipse fill="none" stroke="black" cx="1018.05" cy="-18" rx="45.4919" ry="18"/>
<text text-anchor="middle" x="1018.05" y="-14.3" font-family="Times,serif" font-size="14.00">Value0: 4</text>
</g>
<!-- ExpConst0&#45;&gt;Value0: 4 -->
<g id="edge24" class="edge"><title>ExpConst0&#45;&gt;Value0: 4</title>
<path fill="none" stroke="black" d="M1018.05,-71.6966C1018.05,-63.9827 1018.05,-54.7125 1018.05,-46.1124"/>
<polygon fill="black" stroke="black" points="1021.55,-46.1043 1018.05,-36.1043 1014.55,-46.1044 1021.55,-46.1043"/>
</g>
<!-- Temp5: T317 -->
<g id="node34" class="node"><title>Temp5: T317</title>
<ellipse fill="none" stroke="black" cx="1050.05" cy="-162" rx="59.5901" ry="18"/>
<text text-anchor="middle" x="1050.05" y="-158.3" font-family="Times,serif" font-size="14.00">Temp5: T317</text>
</g>
<!-- ExpTemp5&#45;&gt;Temp5: T317 -->
<g id="edge27" class="edge"><title>ExpTemp5&#45;&gt;Temp5: T317</title>
<path fill="none" stroke="black" d="M1050.05,-215.697C1050.05,-207.983 1050.05,-198.712 1050.05,-190.112"/>
<polygon fill="black" stroke="black" points="1053.55,-190.104 1050.05,-180.104 1046.55,-190.104 1053.55,-190.104"/>
</g>
<!-- Temp8: T295 -->
<g id="node37" class="node"><title>Temp8: T295</title>
<ellipse fill="none" stroke="black" cx="1410.05" cy="-162" rx="59.5901" ry="18"/>
<text text-anchor="middle" x="1410.05" y="-158.3" font-family="Times,serif" font-size="14.00">Temp8: T295</text>
</g>
<!-- ExpTemp8&#45;&gt;Temp8: T295 -->
<g id="edge34" class="edge"><title>ExpTemp8&#45;&gt;Temp8: T295</title>
<path fill="none" stroke="black" d="M1410.05,-215.697C1410.05,-207.983 1410.05,-198.712 1410.05,-190.112"/>
<polygon fill="black" stroke="black" points="1413.55,-190.104 1410.05,-180.104 1406.55,-190.104 1413.55,-190.104"/>
</g>
</g>
</svg>
