<?xml version="1.0" encoding="UTF-8" standalone="no"?>
<!DOCTYPE svg PUBLIC "-//W3C//DTD SVG 1.1//EN"
 "http://www.w3.org/Graphics/SVG/1.1/DTD/svg11.dtd">
<!-- Generated by graphviz version 2.38.0 (20140413.2041)
 -->
<!-- Title: %3 Pages: 1 -->
<svg width="226pt" height="188pt"
 viewBox="0.00 0.00 226.09 188.00" xmlns="http://www.w3.org/2000/svg" xmlns:xlink="http://www.w3.org/1999/xlink">
<g id="graph0" class="graph" transform="scale(1 1) rotate(0) translate(4 184)">
<title>%3</title>
<polygon fill="white" stroke="none" points="-4,4 -4,-184 222.091,-184 222.091,4 -4,4"/>
<!-- StatJump0 -->
<g id="node1" class="node"><title>StatJump0</title>
<ellipse fill="none" stroke="black" cx="167.046" cy="-90" rx="48.1917" ry="18"/>
<text text-anchor="middle" x="167.046" y="-86.3" font-family="Times,serif" font-size="14.00">StatJump0</text>
</g>
<!-- Label1: L8 -->
<g id="node2" class="node"><title>Label1: L8</title>
<ellipse fill="none" stroke="black" cx="168.046" cy="-18" rx="50.0912" ry="18"/>
<text text-anchor="middle" x="168.046" y="-14.3" font-family="Times,serif" font-size="14.00">Label1: L8</text>
</g>
<!-- StatJump0&#45;&gt;Label1: L8 -->
<g id="edge1" class="edge"><title>StatJump0&#45;&gt;Label1: L8</title>
<path fill="none" stroke="black" d="M167.293,-71.6966C167.403,-63.9827 167.535,-54.7125 167.658,-46.1124"/>
<polygon fill="black" stroke="black" points="171.158,-46.1533 167.801,-36.1043 164.159,-46.0533 171.158,-46.1533"/>
</g>
<!-- StatList0 -->
<g id="node3" class="node"><title>StatList0</title>
<ellipse fill="none" stroke="black" cx="109.046" cy="-162" rx="42.4939" ry="18"/>
<text text-anchor="middle" x="109.046" y="-158.3" font-family="Times,serif" font-size="14.00">StatList0</text>
</g>
<!-- StatList0&#45;&gt;StatJump0 -->
<g id="edge3" class="edge"><title>StatList0&#45;&gt;StatJump0</title>
<path fill="none" stroke="black" d="M122.498,-144.765C129.713,-136.056 138.753,-125.147 146.799,-115.435"/>
<polygon fill="black" stroke="black" points="149.578,-117.567 153.264,-107.633 144.188,-113.101 149.578,-117.567"/>
</g>
<!-- StatLabel0 -->
<g id="node4" class="node"><title>StatLabel0</title>
<ellipse fill="none" stroke="black" cx="51.0456" cy="-90" rx="48.9926" ry="18"/>
<text text-anchor="middle" x="51.0456" y="-86.3" font-family="Times,serif" font-size="14.00">StatLabel0</text>
</g>
<!-- StatList0&#45;&gt;StatLabel0 -->
<g id="edge2" class="edge"><title>StatList0&#45;&gt;StatLabel0</title>
<path fill="none" stroke="black" d="M95.5934,-144.765C88.3776,-136.056 79.3386,-125.147 71.2917,-115.435"/>
<polygon fill="black" stroke="black" points="73.9028,-113.101 64.8275,-107.633 68.5126,-117.567 73.9028,-113.101"/>
</g>
<!-- Label0: L2 -->
<g id="node5" class="node"><title>Label0: L2</title>
<ellipse fill="none" stroke="black" cx="50.0456" cy="-18" rx="50.0912" ry="18"/>
<text text-anchor="middle" x="50.0456" y="-14.3" font-family="Times,serif" font-size="14.00">Label0: L2</text>
</g>
<!-- StatLabel0&#45;&gt;Label0: L2 -->
<g id="edge4" class="edge"><title>StatLabel0&#45;&gt;Label0: L2</title>
<path fill="none" stroke="black" d="M50.7984,-71.6966C50.6882,-63.9827 50.5557,-54.7125 50.4329,-46.1124"/>
<polygon fill="black" stroke="black" points="53.9325,-46.0533 50.2899,-36.1043 46.9332,-46.1533 53.9325,-46.0533"/>
</g>
</g>
</svg>
