<?xml version="1.0" encoding="UTF-8" standalone="no"?>
<!DOCTYPE svg PUBLIC "-//W3C//DTD SVG 1.1//EN"
 "http://www.w3.org/Graphics/SVG/1.1/DTD/svg11.dtd">
<!-- Generated by graphviz version 2.38.0 (20140413.2041)
 -->
<!-- Title: %3 Pages: 1 -->
<svg width="3398pt" height="404pt"
 viewBox="0.00 0.00 3398.28 404.00" xmlns="http://www.w3.org/2000/svg" xmlns:xlink="http://www.w3.org/1999/xlink">
<g id="graph0" class="graph" transform="scale(1 1) rotate(0) translate(4 400)">
<title>%3</title>
<polygon fill="white" stroke="none" points="-4,4 -4,-400 3394.28,-400 3394.28,4 -4,4"/>
<!-- ExpTemp9 -->
<g id="node1" class="node"><title>ExpTemp9</title>
<ellipse fill="none" stroke="black" cx="1706.09" cy="-234" rx="50.0912" ry="18"/>
<text text-anchor="middle" x="1706.09" y="-230.3" font-family="Times,serif" font-size="14.00">ExpTemp9</text>
</g>
<!-- Temp9: T8 -->
<g id="node2" class="node"><title>Temp9: T8</title>
<ellipse fill="none" stroke="black" cx="1702.09" cy="-162" rx="50.8918" ry="18"/>
<text text-anchor="middle" x="1702.09" y="-158.3" font-family="Times,serif" font-size="14.00">Temp9: T8</text>
</g>
<!-- ExpTemp9&#45;&gt;Temp9: T8 -->
<g id="edge1" class="edge"><title>ExpTemp9&#45;&gt;Temp9: T8</title>
<path fill="none" stroke="black" d="M1705.1,-215.697C1704.66,-207.983 1704.13,-198.712 1703.64,-190.112"/>
<polygon fill="black" stroke="black" points="1707.13,-189.888 1703.07,-180.104 1700.14,-190.288 1707.13,-189.888"/>
</g>
<!-- ExpBinary0 -->
<g id="node3" class="node"><title>ExpBinary0</title>
<ellipse fill="none" stroke="black" cx="1477.09" cy="-234" rx="53.0913" ry="18"/>
<text text-anchor="middle" x="1477.09" y="-230.3" font-family="Times,serif" font-size="14.00">ExpBinary0</text>
</g>
<!-- ExpConst0 -->
<g id="node4" class="node"><title>ExpConst0</title>
<ellipse fill="none" stroke="black" cx="1371.09" cy="-162" rx="50.0912" ry="18"/>
<text text-anchor="middle" x="1371.09" y="-158.3" font-family="Times,serif" font-size="14.00">ExpConst0</text>
</g>
<!-- ExpBinary0&#45;&gt;ExpConst0 -->
<g id="edge2" class="edge"><title>ExpBinary0&#45;&gt;ExpConst0</title>
<path fill="none" stroke="black" d="M1453.83,-217.638C1438.81,-207.723 1419.09,-194.698 1402.67,-183.853"/>
<polygon fill="black" stroke="black" points="1404.21,-180.675 1393.93,-178.085 1400.35,-186.517 1404.21,-180.675"/>
</g>
<!-- Times0 -->
<g id="node5" class="node"><title>Times0</title>
<ellipse fill="none" stroke="black" cx="1477.09" cy="-162" rx="37.8943" ry="18"/>
<text text-anchor="middle" x="1477.09" y="-158.3" font-family="Times,serif" font-size="14.00">Times0</text>
</g>
<!-- ExpBinary0&#45;&gt;Times0 -->
<g id="edge3" class="edge"><title>ExpBinary0&#45;&gt;Times0</title>
<path fill="none" stroke="black" d="M1477.09,-215.697C1477.09,-207.983 1477.09,-198.712 1477.09,-190.112"/>
<polygon fill="black" stroke="black" points="1480.59,-190.104 1477.09,-180.104 1473.59,-190.104 1480.59,-190.104"/>
</g>
<!-- ExpConst1 -->
<g id="node6" class="node"><title>ExpConst1</title>
<ellipse fill="none" stroke="black" cx="1583.09" cy="-162" rx="50.0912" ry="18"/>
<text text-anchor="middle" x="1583.09" y="-158.3" font-family="Times,serif" font-size="14.00">ExpConst1</text>
</g>
<!-- ExpBinary0&#45;&gt;ExpConst1 -->
<g id="edge4" class="edge"><title>ExpBinary0&#45;&gt;ExpConst1</title>
<path fill="none" stroke="black" d="M1500.35,-217.638C1515.37,-207.723 1535.09,-194.698 1551.51,-183.853"/>
<polygon fill="black" stroke="black" points="1553.83,-186.517 1560.25,-178.085 1549.97,-180.675 1553.83,-186.517"/>
</g>
<!-- Value0: 2 -->
<g id="node9" class="node"><title>Value0: 2</title>
<ellipse fill="none" stroke="black" cx="1371.09" cy="-90" rx="45.4919" ry="18"/>
<text text-anchor="middle" x="1371.09" y="-86.3" font-family="Times,serif" font-size="14.00">Value0: 2</text>
</g>
<!-- ExpConst0&#45;&gt;Value0: 2 -->
<g id="edge6" class="edge"><title>ExpConst0&#45;&gt;Value0: 2</title>
<path fill="none" stroke="black" d="M1371.09,-143.697C1371.09,-135.983 1371.09,-126.712 1371.09,-118.112"/>
<polygon fill="black" stroke="black" points="1374.59,-118.104 1371.09,-108.104 1367.59,-118.104 1374.59,-118.104"/>
</g>
<!-- Value1: 4 -->
<g id="node12" class="node"><title>Value1: 4</title>
<ellipse fill="none" stroke="black" cx="1583.09" cy="-90" rx="45.4919" ry="18"/>
<text text-anchor="middle" x="1583.09" y="-86.3" font-family="Times,serif" font-size="14.00">Value1: 4</text>
</g>
<!-- ExpConst1&#45;&gt;Value1: 4 -->
<g id="edge9" class="edge"><title>ExpConst1&#45;&gt;Value1: 4</title>
<path fill="none" stroke="black" d="M1583.09,-143.697C1583.09,-135.983 1583.09,-126.712 1583.09,-118.112"/>
<polygon fill="black" stroke="black" points="1586.59,-118.104 1583.09,-108.104 1579.59,-118.104 1586.59,-118.104"/>
</g>
<!-- ExpTemp12 -->
<g id="node7" class="node"><title>ExpTemp12</title>
<ellipse fill="none" stroke="black" cx="2310.09" cy="-234" rx="54.6905" ry="18"/>
<text text-anchor="middle" x="2310.09" y="-230.3" font-family="Times,serif" font-size="14.00">ExpTemp12</text>
</g>
<!-- Temp12: T11 -->
<g id="node8" class="node"><title>Temp12: T11</title>
<ellipse fill="none" stroke="black" cx="2310.09" cy="-162" rx="59.5901" ry="18"/>
<text text-anchor="middle" x="2310.09" y="-158.3" font-family="Times,serif" font-size="14.00">Temp12: T11</text>
</g>
<!-- ExpTemp12&#45;&gt;Temp12: T11 -->
<g id="edge5" class="edge"><title>ExpTemp12&#45;&gt;Temp12: T11</title>
<path fill="none" stroke="black" d="M2310.09,-215.697C2310.09,-207.983 2310.09,-198.712 2310.09,-190.112"/>
<polygon fill="black" stroke="black" points="2313.59,-190.104 2310.09,-180.104 2306.59,-190.104 2313.59,-190.104"/>
</g>
<!-- StatMove5 -->
<g id="node10" class="node"><title>StatMove5</title>
<ellipse fill="none" stroke="black" cx="1763.09" cy="-306" rx="50.0912" ry="18"/>
<text text-anchor="middle" x="1763.09" y="-302.3" font-family="Times,serif" font-size="14.00">StatMove5</text>
</g>
<!-- StatMove5&#45;&gt;ExpTemp9 -->
<g id="edge7" class="edge"><title>StatMove5&#45;&gt;ExpTemp9</title>
<path fill="none" stroke="black" d="M1749.58,-288.411C1742.55,-279.781 1733.83,-269.062 1726.04,-259.497"/>
<polygon fill="black" stroke="black" points="1728.53,-257.014 1719.5,-251.47 1723.1,-261.434 1728.53,-257.014"/>
</g>
<!-- ExpCall0 -->
<g id="node11" class="node"><title>ExpCall0</title>
<ellipse fill="none" stroke="black" cx="1821.09" cy="-234" rx="44.393" ry="18"/>
<text text-anchor="middle" x="1821.09" y="-230.3" font-family="Times,serif" font-size="14.00">ExpCall0</text>
</g>
<!-- StatMove5&#45;&gt;ExpCall0 -->
<g id="edge8" class="edge"><title>StatMove5&#45;&gt;ExpCall0</title>
<path fill="none" stroke="black" d="M1776.84,-288.411C1784.06,-279.693 1793.05,-268.845 1801.03,-259.208"/>
<polygon fill="black" stroke="black" points="1803.76,-261.403 1807.44,-251.47 1798.37,-256.937 1803.76,-261.403"/>
</g>
<!-- ExpName0 -->
<g id="node26" class="node"><title>ExpName0</title>
<ellipse fill="none" stroke="black" cx="1821.09" cy="-162" rx="50.8918" ry="18"/>
<text text-anchor="middle" x="1821.09" y="-158.3" font-family="Times,serif" font-size="14.00">ExpName0</text>
</g>
<!-- ExpCall0&#45;&gt;ExpName0 -->
<g id="edge47" class="edge"><title>ExpCall0&#45;&gt;ExpName0</title>
<path fill="none" stroke="black" d="M1821.09,-215.697C1821.09,-207.983 1821.09,-198.712 1821.09,-190.112"/>
<polygon fill="black" stroke="black" points="1824.59,-190.104 1821.09,-180.104 1817.59,-190.104 1824.59,-190.104"/>
</g>
<!-- ExpList0 -->
<g id="node57" class="node"><title>ExpList0</title>
<ellipse fill="none" stroke="black" cx="1933.09" cy="-162" rx="42.7926" ry="18"/>
<text text-anchor="middle" x="1933.09" y="-158.3" font-family="Times,serif" font-size="14.00">ExpList0</text>
</g>
<!-- ExpCall0&#45;&gt;ExpList0 -->
<g id="edge48" class="edge"><title>ExpCall0&#45;&gt;ExpList0</title>
<path fill="none" stroke="black" d="M1844.3,-218.496C1860.82,-208.172 1883.21,-194.174 1901.38,-182.819"/>
<polygon fill="black" stroke="black" points="1903.29,-185.753 1909.91,-177.485 1899.58,-179.818 1903.29,-185.753"/>
</g>
<!-- StatMove4 -->
<g id="node13" class="node"><title>StatMove4</title>
<ellipse fill="none" stroke="black" cx="1477.09" cy="-306" rx="50.0912" ry="18"/>
<text text-anchor="middle" x="1477.09" y="-302.3" font-family="Times,serif" font-size="14.00">StatMove4</text>
</g>
<!-- StatMove4&#45;&gt;ExpBinary0 -->
<g id="edge11" class="edge"><title>StatMove4&#45;&gt;ExpBinary0</title>
<path fill="none" stroke="black" d="M1477.09,-287.697C1477.09,-279.983 1477.09,-270.712 1477.09,-262.112"/>
<polygon fill="black" stroke="black" points="1480.59,-262.104 1477.09,-252.104 1473.59,-262.104 1480.59,-262.104"/>
</g>
<!-- ExpTemp8 -->
<g id="node14" class="node"><title>ExpTemp8</title>
<ellipse fill="none" stroke="black" cx="1304.09" cy="-234" rx="50.0912" ry="18"/>
<text text-anchor="middle" x="1304.09" y="-230.3" font-family="Times,serif" font-size="14.00">ExpTemp8</text>
</g>
<!-- StatMove4&#45;&gt;ExpTemp8 -->
<g id="edge10" class="edge"><title>StatMove4&#45;&gt;ExpTemp8</title>
<path fill="none" stroke="black" d="M1444.96,-291.998C1416.92,-280.652 1376.06,-264.121 1345.56,-251.78"/>
<polygon fill="black" stroke="black" points="1346.64,-248.439 1336.05,-247.933 1344.01,-254.928 1346.64,-248.439"/>
</g>
<!-- Temp8: T7 -->
<g id="node22" class="node"><title>Temp8: T7</title>
<ellipse fill="none" stroke="black" cx="1252.09" cy="-162" rx="50.8918" ry="18"/>
<text text-anchor="middle" x="1252.09" y="-158.3" font-family="Times,serif" font-size="14.00">Temp8: T7</text>
</g>
<!-- ExpTemp8&#45;&gt;Temp8: T7 -->
<g id="edge17" class="edge"><title>ExpTemp8&#45;&gt;Temp8: T7</title>
<path fill="none" stroke="black" d="M1291.77,-216.411C1285.42,-207.868 1277.55,-197.278 1270.5,-187.787"/>
<polygon fill="black" stroke="black" points="1273.1,-185.41 1264.32,-179.47 1267.48,-189.585 1273.1,-185.41"/>
</g>
<!-- StatMove7 -->
<g id="node15" class="node"><title>StatMove7</title>
<ellipse fill="none" stroke="black" cx="2310.09" cy="-306" rx="50.0912" ry="18"/>
<text text-anchor="middle" x="2310.09" y="-302.3" font-family="Times,serif" font-size="14.00">StatMove7</text>
</g>
<!-- StatMove7&#45;&gt;ExpTemp12 -->
<g id="edge12" class="edge"><title>StatMove7&#45;&gt;ExpTemp12</title>
<path fill="none" stroke="black" d="M2310.09,-287.697C2310.09,-279.983 2310.09,-270.712 2310.09,-262.112"/>
<polygon fill="black" stroke="black" points="2313.59,-262.104 2310.09,-252.104 2306.59,-262.104 2313.59,-262.104"/>
</g>
<!-- ExpCall1 -->
<g id="node16" class="node"><title>ExpCall1</title>
<ellipse fill="none" stroke="black" cx="2438.09" cy="-234" rx="44.393" ry="18"/>
<text text-anchor="middle" x="2438.09" y="-230.3" font-family="Times,serif" font-size="14.00">ExpCall1</text>
</g>
<!-- StatMove7&#45;&gt;ExpCall1 -->
<g id="edge13" class="edge"><title>StatMove7&#45;&gt;ExpCall1</title>
<path fill="none" stroke="black" d="M2336.3,-290.666C2355.8,-280.004 2382.58,-265.356 2403.78,-253.762"/>
<polygon fill="black" stroke="black" points="2405.69,-256.707 2412.79,-248.838 2402.33,-250.566 2405.69,-256.707"/>
</g>
<!-- ExpList1 -->
<g id="node17" class="node"><title>ExpList1</title>
<ellipse fill="none" stroke="black" cx="2550.09" cy="-162" rx="42.7926" ry="18"/>
<text text-anchor="middle" x="2550.09" y="-158.3" font-family="Times,serif" font-size="14.00">ExpList1</text>
</g>
<!-- ExpCall1&#45;&gt;ExpList1 -->
<g id="edge61" class="edge"><title>ExpCall1&#45;&gt;ExpList1</title>
<path fill="none" stroke="black" d="M2461.3,-218.496C2477.82,-208.172 2500.21,-194.174 2518.38,-182.819"/>
<polygon fill="black" stroke="black" points="2520.29,-185.753 2526.91,-177.485 2516.58,-179.818 2520.29,-185.753"/>
</g>
<!-- ExpName1 -->
<g id="node68" class="node"><title>ExpName1</title>
<ellipse fill="none" stroke="black" cx="2438.09" cy="-162" rx="50.8918" ry="18"/>
<text text-anchor="middle" x="2438.09" y="-158.3" font-family="Times,serif" font-size="14.00">ExpName1</text>
</g>
<!-- ExpCall1&#45;&gt;ExpName1 -->
<g id="edge60" class="edge"><title>ExpCall1&#45;&gt;ExpName1</title>
<path fill="none" stroke="black" d="M2438.09,-215.697C2438.09,-207.983 2438.09,-198.712 2438.09,-190.112"/>
<polygon fill="black" stroke="black" points="2441.59,-190.104 2438.09,-180.104 2434.59,-190.104 2441.59,-190.104"/>
</g>
<!-- ExpTemp13 -->
<g id="node18" class="node"><title>ExpTemp13</title>
<ellipse fill="none" stroke="black" cx="2550.09" cy="-90" rx="54.6905" ry="18"/>
<text text-anchor="middle" x="2550.09" y="-86.3" font-family="Times,serif" font-size="14.00">ExpTemp13</text>
</g>
<!-- ExpList1&#45;&gt;ExpTemp13 -->
<g id="edge14" class="edge"><title>ExpList1&#45;&gt;ExpTemp13</title>
<path fill="none" stroke="black" d="M2550.09,-143.697C2550.09,-135.983 2550.09,-126.712 2550.09,-118.112"/>
<polygon fill="black" stroke="black" points="2553.59,-118.104 2550.09,-108.104 2546.59,-118.104 2553.59,-118.104"/>
</g>
<!-- ExpTemp14 -->
<g id="node19" class="node"><title>ExpTemp14</title>
<ellipse fill="none" stroke="black" cx="2679.09" cy="-90" rx="54.6905" ry="18"/>
<text text-anchor="middle" x="2679.09" y="-86.3" font-family="Times,serif" font-size="14.00">ExpTemp14</text>
</g>
<!-- ExpList1&#45;&gt;ExpTemp14 -->
<g id="edge15" class="edge"><title>ExpList1&#45;&gt;ExpTemp14</title>
<path fill="none" stroke="black" d="M2575.27,-147.337C2594.52,-136.893 2621.32,-122.349 2642.87,-110.656"/>
<polygon fill="black" stroke="black" points="2644.62,-113.684 2651.74,-105.839 2641.29,-107.532 2644.62,-113.684"/>
</g>
<!-- Temp13: T9 -->
<g id="node71" class="node"><title>Temp13: T9</title>
<ellipse fill="none" stroke="black" cx="2547.09" cy="-18" rx="55.4913" ry="18"/>
<text text-anchor="middle" x="2547.09" y="-14.3" font-family="Times,serif" font-size="14.00">Temp13: T9</text>
</g>
<!-- ExpTemp13&#45;&gt;Temp13: T9 -->
<g id="edge62" class="edge"><title>ExpTemp13&#45;&gt;Temp13: T9</title>
<path fill="none" stroke="black" d="M2549.35,-71.6966C2549.02,-63.9827 2548.62,-54.7125 2548.25,-46.1124"/>
<polygon fill="black" stroke="black" points="2551.75,-45.9453 2547.82,-36.1043 2544.75,-46.2451 2551.75,-45.9453"/>
</g>
<!-- Temp14: T10 -->
<g id="node37" class="node"><title>Temp14: T10</title>
<ellipse fill="none" stroke="black" cx="2680.09" cy="-18" rx="59.5901" ry="18"/>
<text text-anchor="middle" x="2680.09" y="-14.3" font-family="Times,serif" font-size="14.00">Temp14: T10</text>
</g>
<!-- ExpTemp14&#45;&gt;Temp14: T10 -->
<g id="edge26" class="edge"><title>ExpTemp14&#45;&gt;Temp14: T10</title>
<path fill="none" stroke="black" d="M2679.34,-71.6966C2679.45,-63.9827 2679.58,-54.7125 2679.7,-46.1124"/>
<polygon fill="black" stroke="black" points="2683.2,-46.1533 2679.85,-36.1043 2676.2,-46.0533 2683.2,-46.1533"/>
</g>
<!-- ExpTemp18 -->
<g id="node20" class="node"><title>ExpTemp18</title>
<ellipse fill="none" stroke="black" cx="3185.09" cy="-90" rx="54.6905" ry="18"/>
<text text-anchor="middle" x="3185.09" y="-86.3" font-family="Times,serif" font-size="14.00">ExpTemp18</text>
</g>
<!-- Temp18: T12 -->
<g id="node21" class="node"><title>Temp18: T12</title>
<ellipse fill="none" stroke="black" cx="3185.09" cy="-18" rx="59.5901" ry="18"/>
<text text-anchor="middle" x="3185.09" y="-14.3" font-family="Times,serif" font-size="14.00">Temp18: T12</text>
</g>
<!-- ExpTemp18&#45;&gt;Temp18: T12 -->
<g id="edge16" class="edge"><title>ExpTemp18&#45;&gt;Temp18: T12</title>
<path fill="none" stroke="black" d="M3185.09,-71.6966C3185.09,-63.9827 3185.09,-54.7125 3185.09,-46.1124"/>
<polygon fill="black" stroke="black" points="3188.59,-46.1043 3185.09,-36.1043 3181.59,-46.1044 3188.59,-46.1043"/>
</g>
<!-- StatMove1 -->
<g id="node23" class="node"><title>StatMove1</title>
<ellipse fill="none" stroke="black" cx="657.09" cy="-306" rx="50.0912" ry="18"/>
<text text-anchor="middle" x="657.09" y="-302.3" font-family="Times,serif" font-size="14.00">StatMove1</text>
</g>
<!-- ExpTemp2 -->
<g id="node24" class="node"><title>ExpTemp2</title>
<ellipse fill="none" stroke="black" cx="536.09" cy="-234" rx="50.0912" ry="18"/>
<text text-anchor="middle" x="536.09" y="-230.3" font-family="Times,serif" font-size="14.00">ExpTemp2</text>
</g>
<!-- StatMove1&#45;&gt;ExpTemp2 -->
<g id="edge18" class="edge"><title>StatMove1&#45;&gt;ExpTemp2</title>
<path fill="none" stroke="black" d="M631.724,-290.326C613.897,-280.012 589.84,-266.095 570.315,-254.8"/>
<polygon fill="black" stroke="black" points="571.831,-251.633 561.422,-249.655 568.325,-257.692 571.831,-251.633"/>
</g>
<!-- ExpTemp3 -->
<g id="node25" class="node"><title>ExpTemp3</title>
<ellipse fill="none" stroke="black" cx="657.09" cy="-234" rx="50.0912" ry="18"/>
<text text-anchor="middle" x="657.09" y="-230.3" font-family="Times,serif" font-size="14.00">ExpTemp3</text>
</g>
<!-- StatMove1&#45;&gt;ExpTemp3 -->
<g id="edge19" class="edge"><title>StatMove1&#45;&gt;ExpTemp3</title>
<path fill="none" stroke="black" d="M657.09,-287.697C657.09,-279.983 657.09,-270.712 657.09,-262.112"/>
<polygon fill="black" stroke="black" points="660.59,-262.104 657.09,-252.104 653.59,-262.104 660.59,-262.104"/>
</g>
<!-- Temp2: T11 -->
<g id="node54" class="node"><title>Temp2: T11</title>
<ellipse fill="none" stroke="black" cx="533.09" cy="-162" rx="55.4913" ry="18"/>
<text text-anchor="middle" x="533.09" y="-158.3" font-family="Times,serif" font-size="14.00">Temp2: T11</text>
</g>
<!-- ExpTemp2&#45;&gt;Temp2: T11 -->
<g id="edge45" class="edge"><title>ExpTemp2&#45;&gt;Temp2: T11</title>
<path fill="none" stroke="black" d="M535.348,-215.697C535.018,-207.983 534.62,-198.712 534.252,-190.112"/>
<polygon fill="black" stroke="black" points="537.748,-189.945 533.823,-180.104 530.754,-190.245 537.748,-189.945"/>
</g>
<!-- Temp3: T5 -->
<g id="node53" class="node"><title>Temp3: T5</title>
<ellipse fill="none" stroke="black" cx="657.09" cy="-162" rx="50.8918" ry="18"/>
<text text-anchor="middle" x="657.09" y="-158.3" font-family="Times,serif" font-size="14.00">Temp3: T5</text>
</g>
<!-- ExpTemp3&#45;&gt;Temp3: T5 -->
<g id="edge44" class="edge"><title>ExpTemp3&#45;&gt;Temp3: T5</title>
<path fill="none" stroke="black" d="M657.09,-215.697C657.09,-207.983 657.09,-198.712 657.09,-190.112"/>
<polygon fill="black" stroke="black" points="660.59,-190.104 657.09,-180.104 653.59,-190.104 660.59,-190.104"/>
</g>
<!-- Label1: malloc -->
<g id="node27" class="node"><title>Label1: malloc</title>
<ellipse fill="none" stroke="black" cx="1809.09" cy="-90" rx="64.189" ry="18"/>
<text text-anchor="middle" x="1809.09" y="-86.3" font-family="Times,serif" font-size="14.00">Label1: malloc</text>
</g>
<!-- ExpName0&#45;&gt;Label1: malloc -->
<g id="edge20" class="edge"><title>ExpName0&#45;&gt;Label1: malloc</title>
<path fill="none" stroke="black" d="M1818.12,-143.697C1816.8,-135.983 1815.21,-126.712 1813.74,-118.112"/>
<polygon fill="black" stroke="black" points="1817.16,-117.369 1812.02,-108.104 1810.26,-118.552 1817.16,-117.369"/>
</g>
<!-- ExpTemp4 -->
<g id="node28" class="node"><title>ExpTemp4</title>
<ellipse fill="none" stroke="black" cx="777.09" cy="-234" rx="50.0912" ry="18"/>
<text text-anchor="middle" x="777.09" y="-230.3" font-family="Times,serif" font-size="14.00">ExpTemp4</text>
</g>
<!-- Temp4: T9 -->
<g id="node29" class="node"><title>Temp4: T9</title>
<ellipse fill="none" stroke="black" cx="776.09" cy="-162" rx="50.8918" ry="18"/>
<text text-anchor="middle" x="776.09" y="-158.3" font-family="Times,serif" font-size="14.00">Temp4: T9</text>
</g>
<!-- ExpTemp4&#45;&gt;Temp4: T9 -->
<g id="edge21" class="edge"><title>ExpTemp4&#45;&gt;Temp4: T9</title>
<path fill="none" stroke="black" d="M776.843,-215.697C776.733,-207.983 776.6,-198.712 776.477,-190.112"/>
<polygon fill="black" stroke="black" points="779.977,-190.053 776.334,-180.104 772.978,-190.153 779.977,-190.053"/>
</g>
<!-- StatMove3 -->
<g id="node30" class="node"><title>StatMove3</title>
<ellipse fill="none" stroke="black" cx="1133.09" cy="-306" rx="50.0912" ry="18"/>
<text text-anchor="middle" x="1133.09" y="-302.3" font-family="Times,serif" font-size="14.00">StatMove3</text>
</g>
<!-- ExpTemp6 -->
<g id="node31" class="node"><title>ExpTemp6</title>
<ellipse fill="none" stroke="black" cx="1015.09" cy="-234" rx="50.0912" ry="18"/>
<text text-anchor="middle" x="1015.09" y="-230.3" font-family="Times,serif" font-size="14.00">ExpTemp6</text>
</g>
<!-- StatMove3&#45;&gt;ExpTemp6 -->
<g id="edge22" class="edge"><title>StatMove3&#45;&gt;ExpTemp6</title>
<path fill="none" stroke="black" d="M1108.35,-290.326C1090.97,-280.012 1067.51,-266.095 1048.47,-254.8"/>
<polygon fill="black" stroke="black" points="1050.18,-251.747 1039.79,-249.655 1046.61,-257.767 1050.18,-251.747"/>
</g>
<!-- ExpTemp7 -->
<g id="node32" class="node"><title>ExpTemp7</title>
<ellipse fill="none" stroke="black" cx="1133.09" cy="-234" rx="50.0912" ry="18"/>
<text text-anchor="middle" x="1133.09" y="-230.3" font-family="Times,serif" font-size="14.00">ExpTemp7</text>
</g>
<!-- StatMove3&#45;&gt;ExpTemp7 -->
<g id="edge23" class="edge"><title>StatMove3&#45;&gt;ExpTemp7</title>
<path fill="none" stroke="black" d="M1133.09,-287.697C1133.09,-279.983 1133.09,-270.712 1133.09,-262.112"/>
<polygon fill="black" stroke="black" points="1136.59,-262.104 1133.09,-252.104 1129.59,-262.104 1136.59,-262.104"/>
</g>
<!-- Temp6: T8 -->
<g id="node60" class="node"><title>Temp6: T8</title>
<ellipse fill="none" stroke="black" cx="1014.09" cy="-162" rx="50.8918" ry="18"/>
<text text-anchor="middle" x="1014.09" y="-158.3" font-family="Times,serif" font-size="14.00">Temp6: T8</text>
</g>
<!-- ExpTemp6&#45;&gt;Temp6: T8 -->
<g id="edge51" class="edge"><title>ExpTemp6&#45;&gt;Temp6: T8</title>
<path fill="none" stroke="black" d="M1014.84,-215.697C1014.73,-207.983 1014.6,-198.712 1014.48,-190.112"/>
<polygon fill="black" stroke="black" points="1017.98,-190.053 1014.33,-180.104 1010.98,-190.153 1017.98,-190.053"/>
</g>
<!-- Temp7: T4 -->
<g id="node40" class="node"><title>Temp7: T4</title>
<ellipse fill="none" stroke="black" cx="1133.09" cy="-162" rx="50.8918" ry="18"/>
<text text-anchor="middle" x="1133.09" y="-158.3" font-family="Times,serif" font-size="14.00">Temp7: T4</text>
</g>
<!-- ExpTemp7&#45;&gt;Temp7: T4 -->
<g id="edge28" class="edge"><title>ExpTemp7&#45;&gt;Temp7: T4</title>
<path fill="none" stroke="black" d="M1133.09,-215.697C1133.09,-207.983 1133.09,-198.712 1133.09,-190.112"/>
<polygon fill="black" stroke="black" points="1136.59,-190.104 1133.09,-180.104 1129.59,-190.104 1136.59,-190.104"/>
</g>
<!-- ExpTemp5 -->
<g id="node33" class="node"><title>ExpTemp5</title>
<ellipse fill="none" stroke="black" cx="895.09" cy="-234" rx="50.0912" ry="18"/>
<text text-anchor="middle" x="895.09" y="-230.3" font-family="Times,serif" font-size="14.00">ExpTemp5</text>
</g>
<!-- Temp5: T4 -->
<g id="node34" class="node"><title>Temp5: T4</title>
<ellipse fill="none" stroke="black" cx="895.09" cy="-162" rx="50.8918" ry="18"/>
<text text-anchor="middle" x="895.09" y="-158.3" font-family="Times,serif" font-size="14.00">Temp5: T4</text>
</g>
<!-- ExpTemp5&#45;&gt;Temp5: T4 -->
<g id="edge24" class="edge"><title>ExpTemp5&#45;&gt;Temp5: T4</title>
<path fill="none" stroke="black" d="M895.09,-215.697C895.09,-207.983 895.09,-198.712 895.09,-190.112"/>
<polygon fill="black" stroke="black" points="898.59,-190.104 895.09,-180.104 891.59,-190.104 898.59,-190.104"/>
</g>
<!-- ExpTemp1 -->
<g id="node35" class="node"><title>ExpTemp1</title>
<ellipse fill="none" stroke="black" cx="412.09" cy="-234" rx="50.0912" ry="18"/>
<text text-anchor="middle" x="412.09" y="-230.3" font-family="Times,serif" font-size="14.00">ExpTemp1</text>
</g>
<!-- Temp1: T6 -->
<g id="node36" class="node"><title>Temp1: T6</title>
<ellipse fill="none" stroke="black" cx="409.09" cy="-162" rx="50.8918" ry="18"/>
<text text-anchor="middle" x="409.09" y="-158.3" font-family="Times,serif" font-size="14.00">Temp1: T6</text>
</g>
<!-- ExpTemp1&#45;&gt;Temp1: T6 -->
<g id="edge25" class="edge"><title>ExpTemp1&#45;&gt;Temp1: T6</title>
<path fill="none" stroke="black" d="M411.348,-215.697C411.018,-207.983 410.62,-198.712 410.252,-190.112"/>
<polygon fill="black" stroke="black" points="413.748,-189.945 409.823,-180.104 406.754,-190.245 413.748,-189.945"/>
</g>
<!-- ExpName2 -->
<g id="node38" class="node"><title>ExpName2</title>
<ellipse fill="none" stroke="black" cx="3065.09" cy="-162" rx="50.8918" ry="18"/>
<text text-anchor="middle" x="3065.09" y="-158.3" font-family="Times,serif" font-size="14.00">ExpName2</text>
</g>
<!-- Label3: print -->
<g id="node39" class="node"><title>Label3: print</title>
<ellipse fill="none" stroke="black" cx="3056.09" cy="-90" rx="56.59" ry="18"/>
<text text-anchor="middle" x="3056.09" y="-86.3" font-family="Times,serif" font-size="14.00">Label3: print</text>
</g>
<!-- ExpName2&#45;&gt;Label3: print -->
<g id="edge27" class="edge"><title>ExpName2&#45;&gt;Label3: print</title>
<path fill="none" stroke="black" d="M3062.87,-143.697C3061.87,-135.983 3060.68,-126.712 3059.58,-118.112"/>
<polygon fill="black" stroke="black" points="3063.04,-117.576 3058.29,-108.104 3056.09,-118.469 3063.04,-117.576"/>
</g>
<!-- ExpTemp0 -->
<g id="node41" class="node"><title>ExpTemp0</title>
<ellipse fill="none" stroke="black" cx="294.09" cy="-234" rx="50.0912" ry="18"/>
<text text-anchor="middle" x="294.09" y="-230.3" font-family="Times,serif" font-size="14.00">ExpTemp0</text>
</g>
<!-- Temp0: T13 -->
<g id="node42" class="node"><title>Temp0: T13</title>
<ellipse fill="none" stroke="black" cx="285.09" cy="-162" rx="55.4913" ry="18"/>
<text text-anchor="middle" x="285.09" y="-158.3" font-family="Times,serif" font-size="14.00">Temp0: T13</text>
</g>
<!-- ExpTemp0&#45;&gt;Temp0: T13 -->
<g id="edge29" class="edge"><title>ExpTemp0&#45;&gt;Temp0: T13</title>
<path fill="none" stroke="black" d="M291.865,-215.697C290.873,-207.983 289.682,-198.712 288.576,-190.112"/>
<polygon fill="black" stroke="black" points="292.036,-189.576 287.289,-180.104 285.093,-190.469 292.036,-189.576"/>
</g>
<!-- StatList0 -->
<g id="node43" class="node"><title>StatList0</title>
<ellipse fill="none" stroke="black" cx="1763.09" cy="-378" rx="42.4939" ry="18"/>
<text text-anchor="middle" x="1763.09" y="-374.3" font-family="Times,serif" font-size="14.00">StatList0</text>
</g>
<!-- StatList0&#45;&gt;StatMove5 -->
<g id="edge36" class="edge"><title>StatList0&#45;&gt;StatMove5</title>
<path fill="none" stroke="black" d="M1763.09,-359.697C1763.09,-351.983 1763.09,-342.712 1763.09,-334.112"/>
<polygon fill="black" stroke="black" points="1766.59,-334.104 1763.09,-324.104 1759.59,-334.104 1766.59,-334.104"/>
</g>
<!-- StatList0&#45;&gt;StatMove4 -->
<g id="edge35" class="edge"><title>StatList0&#45;&gt;StatMove4</title>
<path fill="none" stroke="black" d="M1727.45,-368.276C1677.02,-355.933 1584.61,-333.316 1527.27,-319.281"/>
<polygon fill="black" stroke="black" points="1527.88,-315.828 1517.33,-316.85 1526.22,-322.627 1527.88,-315.828"/>
</g>
<!-- StatList0&#45;&gt;StatMove7 -->
<g id="edge38" class="edge"><title>StatList0&#45;&gt;StatMove7</title>
<path fill="none" stroke="black" d="M1802.87,-371.909C1898.71,-359.645 2142.65,-328.428 2253.6,-314.229"/>
<polygon fill="black" stroke="black" points="2254.12,-317.691 2263.6,-312.95 2253.24,-310.747 2254.12,-317.691"/>
</g>
<!-- StatList0&#45;&gt;StatMove1 -->
<g id="edge32" class="edge"><title>StatList0&#45;&gt;StatMove1</title>
<path fill="none" stroke="black" d="M1721.01,-375.158C1589.93,-369.3 1177.25,-349.944 836.09,-324 795.437,-320.908 749.673,-316.547 714.595,-313.015"/>
<polygon fill="black" stroke="black" points="714.837,-309.522 704.535,-311.996 714.131,-316.486 714.837,-309.522"/>
</g>
<!-- StatList0&#45;&gt;StatMove3 -->
<g id="edge34" class="edge"><title>StatList0&#45;&gt;StatMove3</title>
<path fill="none" stroke="black" d="M1722.72,-372.515C1614.29,-360.466 1316.4,-327.367 1190.48,-313.377"/>
<polygon fill="black" stroke="black" points="1190.6,-309.869 1180.28,-312.243 1189.83,-316.826 1190.6,-309.869"/>
</g>
<!-- StatLabel0 -->
<g id="node44" class="node"><title>StatLabel0</title>
<ellipse fill="none" stroke="black" cx="204.09" cy="-306" rx="48.9926" ry="18"/>
<text text-anchor="middle" x="204.09" y="-302.3" font-family="Times,serif" font-size="14.00">StatLabel0</text>
</g>
<!-- StatList0&#45;&gt;StatLabel0 -->
<g id="edge30" class="edge"><title>StatList0&#45;&gt;StatLabel0</title>
<path fill="none" stroke="black" d="M1720.92,-376.585C1550.02,-374.655 892.305,-364.835 353.09,-324 321.875,-321.636 287.114,-317.743 259.024,-314.278"/>
<polygon fill="black" stroke="black" points="259.352,-310.792 248.995,-313.025 258.484,-317.738 259.352,-310.792"/>
</g>
<!-- StatMove0 -->
<g id="node45" class="node"><title>StatMove0</title>
<ellipse fill="none" stroke="black" cx="412.09" cy="-306" rx="50.0912" ry="18"/>
<text text-anchor="middle" x="412.09" y="-302.3" font-family="Times,serif" font-size="14.00">StatMove0</text>
</g>
<!-- StatList0&#45;&gt;StatMove0 -->
<g id="edge31" class="edge"><title>StatList0&#45;&gt;StatMove0</title>
<path fill="none" stroke="black" d="M1721,-375.78C1569.33,-371.238 1036.67,-354.003 598.09,-324 554.917,-321.047 506.21,-316.553 469.471,-312.927"/>
<polygon fill="black" stroke="black" points="469.738,-309.436 459.441,-311.929 469.045,-316.402 469.738,-309.436"/>
</g>
<!-- StatMove2 -->
<g id="node46" class="node"><title>StatMove2</title>
<ellipse fill="none" stroke="black" cx="895.09" cy="-306" rx="50.0912" ry="18"/>
<text text-anchor="middle" x="895.09" y="-302.3" font-family="Times,serif" font-size="14.00">StatMove2</text>
</g>
<!-- StatList0&#45;&gt;StatMove2 -->
<g id="edge33" class="edge"><title>StatList0&#45;&gt;StatMove2</title>
<path fill="none" stroke="black" d="M1721.52,-374.063C1614.26,-366.429 1319.43,-345.084 1074.09,-324 1033.47,-320.509 987.705,-316.155 952.618,-312.728"/>
<polygon fill="black" stroke="black" points="952.849,-309.234 942.555,-311.741 952.166,-316.2 952.849,-309.234"/>
</g>
<!-- StatMove6 -->
<g id="node47" class="node"><title>StatMove6</title>
<ellipse fill="none" stroke="black" cx="2054.09" cy="-306" rx="50.0912" ry="18"/>
<text text-anchor="middle" x="2054.09" y="-302.3" font-family="Times,serif" font-size="14.00">StatMove6</text>
</g>
<!-- StatList0&#45;&gt;StatMove6 -->
<g id="edge37" class="edge"><title>StatList0&#45;&gt;StatMove6</title>
<path fill="none" stroke="black" d="M1799.06,-368.346C1850.53,-355.967 1945.38,-333.151 2003.77,-319.103"/>
<polygon fill="black" stroke="black" points="2004.62,-322.499 2013.53,-316.757 2002.99,-315.693 2004.62,-322.499"/>
</g>
<!-- StatMove8 -->
<g id="node48" class="node"><title>StatMove8</title>
<ellipse fill="none" stroke="black" cx="2671.09" cy="-306" rx="50.0912" ry="18"/>
<text text-anchor="middle" x="2671.09" y="-302.3" font-family="Times,serif" font-size="14.00">StatMove8</text>
</g>
<!-- StatList0&#45;&gt;StatMove8 -->
<g id="edge39" class="edge"><title>StatList0&#45;&gt;StatMove8</title>
<path fill="none" stroke="black" d="M1804.46,-373.81C1950.58,-362.546 2442.67,-324.609 2612.71,-311.5"/>
<polygon fill="black" stroke="black" points="2613.02,-314.987 2622.72,-310.729 2612.48,-308.008 2613.02,-314.987"/>
</g>
<!-- StatMove9 -->
<g id="node49" class="node"><title>StatMove9</title>
<ellipse fill="none" stroke="black" cx="2937.09" cy="-306" rx="50.0912" ry="18"/>
<text text-anchor="middle" x="2937.09" y="-302.3" font-family="Times,serif" font-size="14.00">StatMove9</text>
</g>
<!-- StatList0&#45;&gt;StatMove9 -->
<g id="edge40" class="edge"><title>StatList0&#45;&gt;StatMove9</title>
<path fill="none" stroke="black" d="M1805.06,-375.108C1939.62,-368.955 2372.38,-348.487 2730.09,-324 2780.33,-320.561 2837.37,-315.814 2878.83,-312.211"/>
<polygon fill="black" stroke="black" points="2879.36,-315.677 2889.02,-311.32 2878.75,-308.704 2879.36,-315.677"/>
</g>
<!-- StatExp0 -->
<g id="node50" class="node"><title>StatExp0</title>
<ellipse fill="none" stroke="black" cx="3090.09" cy="-306" rx="42.7926" ry="18"/>
<text text-anchor="middle" x="3090.09" y="-302.3" font-family="Times,serif" font-size="14.00">StatExp0</text>
</g>
<!-- StatList0&#45;&gt;StatExp0 -->
<g id="edge41" class="edge"><title>StatList0&#45;&gt;StatExp0</title>
<path fill="none" stroke="black" d="M1805.57,-377.261C1963.5,-377.788 2531.61,-375.741 2996.09,-324 3011.36,-322.299 3027.88,-319.604 3042.76,-316.856"/>
<polygon fill="black" stroke="black" points="3043.58,-320.262 3052.75,-314.957 3042.28,-313.385 3043.58,-320.262"/>
</g>
<!-- StatJump0 -->
<g id="node51" class="node"><title>StatJump0</title>
<ellipse fill="none" stroke="black" cx="3283.09" cy="-306" rx="48.1917" ry="18"/>
<text text-anchor="middle" x="3283.09" y="-302.3" font-family="Times,serif" font-size="14.00">StatJump0</text>
</g>
<!-- StatList0&#45;&gt;StatJump0 -->
<g id="edge42" class="edge"><title>StatList0&#45;&gt;StatJump0</title>
<path fill="none" stroke="black" d="M1805.48,-376.631C1974.43,-374.892 2616.05,-365.75 3142.09,-324 3170.84,-321.718 3202.76,-317.972 3228.94,-314.577"/>
<polygon fill="black" stroke="black" points="3229.59,-318.022 3239.04,-313.247 3228.67,-311.082 3229.59,-318.022"/>
</g>
<!-- Label0: LinearSearch@main -->
<g id="node52" class="node"><title>Label0: LinearSearch@main</title>
<ellipse fill="none" stroke="black" cx="113.09" cy="-234" rx="113.18" ry="18"/>
<text text-anchor="middle" x="113.09" y="-230.3" font-family="Times,serif" font-size="14.00">Label0: LinearSearch@main</text>
</g>
<!-- StatLabel0&#45;&gt;Label0: LinearSearch@main -->
<g id="edge43" class="edge"><title>StatLabel0&#45;&gt;Label0: LinearSearch@main</title>
<path fill="none" stroke="black" d="M183.894,-289.465C171.839,-280.192 156.31,-268.246 142.868,-257.906"/>
<polygon fill="black" stroke="black" points="144.878,-255.037 134.818,-251.714 140.61,-260.585 144.878,-255.037"/>
</g>
<!-- StatMove0&#45;&gt;ExpTemp1 -->
<g id="edge65" class="edge"><title>StatMove0&#45;&gt;ExpTemp1</title>
<path fill="none" stroke="black" d="M412.09,-287.697C412.09,-279.983 412.09,-270.712 412.09,-262.112"/>
<polygon fill="black" stroke="black" points="415.59,-262.104 412.09,-252.104 408.59,-262.104 415.59,-262.104"/>
</g>
<!-- StatMove0&#45;&gt;ExpTemp0 -->
<g id="edge64" class="edge"><title>StatMove0&#45;&gt;ExpTemp0</title>
<path fill="none" stroke="black" d="M387.353,-290.326C369.968,-280.012 346.508,-266.095 327.467,-254.8"/>
<polygon fill="black" stroke="black" points="329.18,-251.747 318.794,-249.655 325.609,-257.767 329.18,-251.747"/>
</g>
<!-- StatMove2&#45;&gt;ExpTemp4 -->
<g id="edge71" class="edge"><title>StatMove2&#45;&gt;ExpTemp4</title>
<path fill="none" stroke="black" d="M870.353,-290.326C852.968,-280.012 829.508,-266.095 810.467,-254.8"/>
<polygon fill="black" stroke="black" points="812.18,-251.747 801.794,-249.655 808.609,-257.767 812.18,-251.747"/>
</g>
<!-- StatMove2&#45;&gt;ExpTemp5 -->
<g id="edge72" class="edge"><title>StatMove2&#45;&gt;ExpTemp5</title>
<path fill="none" stroke="black" d="M895.09,-287.697C895.09,-279.983 895.09,-270.712 895.09,-262.112"/>
<polygon fill="black" stroke="black" points="898.59,-262.104 895.09,-252.104 891.59,-262.104 898.59,-262.104"/>
</g>
<!-- ExpTemp11 -->
<g id="node61" class="node"><title>ExpTemp11</title>
<ellipse fill="none" stroke="black" cx="2054.09" cy="-234" rx="54.6905" ry="18"/>
<text text-anchor="middle" x="2054.09" y="-230.3" font-family="Times,serif" font-size="14.00">ExpTemp11</text>
</g>
<!-- StatMove6&#45;&gt;ExpTemp11 -->
<g id="edge52" class="edge"><title>StatMove6&#45;&gt;ExpTemp11</title>
<path fill="none" stroke="black" d="M2054.09,-287.697C2054.09,-279.983 2054.09,-270.712 2054.09,-262.112"/>
<polygon fill="black" stroke="black" points="2057.59,-262.104 2054.09,-252.104 2050.59,-262.104 2057.59,-262.104"/>
</g>
<!-- ExpConst2 -->
<g id="node62" class="node"><title>ExpConst2</title>
<ellipse fill="none" stroke="black" cx="2180.09" cy="-234" rx="50.0912" ry="18"/>
<text text-anchor="middle" x="2180.09" y="-230.3" font-family="Times,serif" font-size="14.00">ExpConst2</text>
</g>
<!-- StatMove6&#45;&gt;ExpConst2 -->
<g id="edge53" class="edge"><title>StatMove6&#45;&gt;ExpConst2</title>
<path fill="none" stroke="black" d="M2080.2,-290.496C2099.03,-280.031 2124.67,-265.791 2145.25,-254.356"/>
<polygon fill="black" stroke="black" points="2146.97,-257.401 2154.02,-249.485 2143.57,-251.282 2146.97,-257.401"/>
</g>
<!-- ExpTemp15 -->
<g id="node66" class="node"><title>ExpTemp15</title>
<ellipse fill="none" stroke="black" cx="2671.09" cy="-234" rx="54.6905" ry="18"/>
<text text-anchor="middle" x="2671.09" y="-230.3" font-family="Times,serif" font-size="14.00">ExpTemp15</text>
</g>
<!-- StatMove8&#45;&gt;ExpTemp15 -->
<g id="edge66" class="edge"><title>StatMove8&#45;&gt;ExpTemp15</title>
<path fill="none" stroke="black" d="M2671.09,-287.697C2671.09,-279.983 2671.09,-270.712 2671.09,-262.112"/>
<polygon fill="black" stroke="black" points="2674.59,-262.104 2671.09,-252.104 2667.59,-262.104 2674.59,-262.104"/>
</g>
<!-- ExpTemp16 -->
<g id="node72" class="node"><title>ExpTemp16</title>
<ellipse fill="none" stroke="black" cx="2801.09" cy="-234" rx="54.6905" ry="18"/>
<text text-anchor="middle" x="2801.09" y="-230.3" font-family="Times,serif" font-size="14.00">ExpTemp16</text>
</g>
<!-- StatMove8&#45;&gt;ExpTemp16 -->
<g id="edge67" class="edge"><title>StatMove8&#45;&gt;ExpTemp16</title>
<path fill="none" stroke="black" d="M2697.71,-290.666C2716.99,-280.282 2743.3,-266.119 2764.55,-254.677"/>
<polygon fill="black" stroke="black" points="2766.46,-257.62 2773.61,-249.798 2763.14,-251.457 2766.46,-257.62"/>
</g>
<!-- ExpTemp17 -->
<g id="node58" class="node"><title>ExpTemp17</title>
<ellipse fill="none" stroke="black" cx="2937.09" cy="-234" rx="54.6905" ry="18"/>
<text text-anchor="middle" x="2937.09" y="-230.3" font-family="Times,serif" font-size="14.00">ExpTemp17</text>
</g>
<!-- StatMove9&#45;&gt;ExpTemp17 -->
<g id="edge68" class="edge"><title>StatMove9&#45;&gt;ExpTemp17</title>
<path fill="none" stroke="black" d="M2937.09,-287.697C2937.09,-279.983 2937.09,-270.712 2937.09,-262.112"/>
<polygon fill="black" stroke="black" points="2940.59,-262.104 2937.09,-252.104 2933.59,-262.104 2940.59,-262.104"/>
</g>
<!-- ExpCall2 -->
<g id="node64" class="node"><title>ExpCall2</title>
<ellipse fill="none" stroke="black" cx="3060.09" cy="-234" rx="44.393" ry="18"/>
<text text-anchor="middle" x="3060.09" y="-230.3" font-family="Times,serif" font-size="14.00">ExpCall2</text>
</g>
<!-- StatMove9&#45;&gt;ExpCall2 -->
<g id="edge69" class="edge"><title>StatMove9&#45;&gt;ExpCall2</title>
<path fill="none" stroke="black" d="M2962.58,-290.496C2981.13,-279.939 3006.43,-265.541 3026.61,-254.055"/>
<polygon fill="black" stroke="black" points="3028.52,-256.996 3035.48,-249.008 3025.05,-250.912 3028.52,-256.996"/>
</g>
<!-- ExpTemp19 -->
<g id="node74" class="node"><title>ExpTemp19</title>
<ellipse fill="none" stroke="black" cx="3177.09" cy="-234" rx="54.6905" ry="18"/>
<text text-anchor="middle" x="3177.09" y="-230.3" font-family="Times,serif" font-size="14.00">ExpTemp19</text>
</g>
<!-- StatExp0&#45;&gt;ExpTemp19 -->
<g id="edge75" class="edge"><title>StatExp0&#45;&gt;ExpTemp19</title>
<path fill="none" stroke="black" d="M3108.97,-289.811C3120.8,-280.288 3136.27,-267.846 3149.47,-257.224"/>
<polygon fill="black" stroke="black" points="3151.75,-259.884 3157.34,-250.888 3147.36,-254.43 3151.75,-259.884"/>
</g>
<!-- Label4: epilogue -->
<g id="node70" class="node"><title>Label4: epilogue</title>
<ellipse fill="none" stroke="black" cx="3320.09" cy="-234" rx="70.3881" ry="18"/>
<text text-anchor="middle" x="3320.09" y="-230.3" font-family="Times,serif" font-size="14.00">Label4: epilogue</text>
</g>
<!-- StatJump0&#45;&gt;Label4: epilogue -->
<g id="edge59" class="edge"><title>StatJump0&#45;&gt;Label4: epilogue</title>
<path fill="none" stroke="black" d="M3292.05,-288.055C3296.3,-280.007 3301.48,-270.205 3306.23,-261.226"/>
<polygon fill="black" stroke="black" points="3309.38,-262.752 3310.96,-252.275 3303.19,-259.481 3309.38,-262.752"/>
</g>
<!-- ExpTemp10 -->
<g id="node55" class="node"><title>ExpTemp10</title>
<ellipse fill="none" stroke="black" cx="1946.09" cy="-90" rx="54.6905" ry="18"/>
<text text-anchor="middle" x="1946.09" y="-86.3" font-family="Times,serif" font-size="14.00">ExpTemp10</text>
</g>
<!-- Temp10: T7 -->
<g id="node56" class="node"><title>Temp10: T7</title>
<ellipse fill="none" stroke="black" cx="1946.09" cy="-18" rx="55.4913" ry="18"/>
<text text-anchor="middle" x="1946.09" y="-14.3" font-family="Times,serif" font-size="14.00">Temp10: T7</text>
</g>
<!-- ExpTemp10&#45;&gt;Temp10: T7 -->
<g id="edge46" class="edge"><title>ExpTemp10&#45;&gt;Temp10: T7</title>
<path fill="none" stroke="black" d="M1946.09,-71.6966C1946.09,-63.9827 1946.09,-54.7125 1946.09,-46.1124"/>
<polygon fill="black" stroke="black" points="1949.59,-46.1043 1946.09,-36.1043 1942.59,-46.1044 1949.59,-46.1043"/>
</g>
<!-- ExpList0&#45;&gt;ExpTemp10 -->
<g id="edge50" class="edge"><title>ExpList0&#45;&gt;ExpTemp10</title>
<path fill="none" stroke="black" d="M1936.3,-143.697C1937.74,-135.983 1939.46,-126.712 1941.05,-118.112"/>
<polygon fill="black" stroke="black" points="1944.53,-118.575 1942.91,-108.104 1937.65,-117.297 1944.53,-118.575"/>
</g>
<!-- Temp17: T13 -->
<g id="node59" class="node"><title>Temp17: T13</title>
<ellipse fill="none" stroke="black" cx="2937.09" cy="-162" rx="59.5901" ry="18"/>
<text text-anchor="middle" x="2937.09" y="-158.3" font-family="Times,serif" font-size="14.00">Temp17: T13</text>
</g>
<!-- ExpTemp17&#45;&gt;Temp17: T13 -->
<g id="edge49" class="edge"><title>ExpTemp17&#45;&gt;Temp17: T13</title>
<path fill="none" stroke="black" d="M2937.09,-215.697C2937.09,-207.983 2937.09,-198.712 2937.09,-190.112"/>
<polygon fill="black" stroke="black" points="2940.59,-190.104 2937.09,-180.104 2933.59,-190.104 2940.59,-190.104"/>
</g>
<!-- Temp11: T10 -->
<g id="node76" class="node"><title>Temp11: T10</title>
<ellipse fill="none" stroke="black" cx="2054.09" cy="-162" rx="59.5901" ry="18"/>
<text text-anchor="middle" x="2054.09" y="-158.3" font-family="Times,serif" font-size="14.00">Temp11: T10</text>
</g>
<!-- ExpTemp11&#45;&gt;Temp11: T10 -->
<g id="edge74" class="edge"><title>ExpTemp11&#45;&gt;Temp11: T10</title>
<path fill="none" stroke="black" d="M2054.09,-215.697C2054.09,-207.983 2054.09,-198.712 2054.09,-190.112"/>
<polygon fill="black" stroke="black" points="2057.59,-190.104 2054.09,-180.104 2050.59,-190.104 2057.59,-190.104"/>
</g>
<!-- Value2: 10 -->
<g id="node63" class="node"><title>Value2: 10</title>
<ellipse fill="none" stroke="black" cx="2182.09" cy="-162" rx="50.0912" ry="18"/>
<text text-anchor="middle" x="2182.09" y="-158.3" font-family="Times,serif" font-size="14.00">Value2: 10</text>
</g>
<!-- ExpConst2&#45;&gt;Value2: 10 -->
<g id="edge54" class="edge"><title>ExpConst2&#45;&gt;Value2: 10</title>
<path fill="none" stroke="black" d="M2180.58,-215.697C2180.8,-207.983 2181.07,-198.712 2181.32,-190.112"/>
<polygon fill="black" stroke="black" points="2184.81,-190.2 2181.6,-180.104 2177.82,-190 2184.81,-190.2"/>
</g>
<!-- ExpCall2&#45;&gt;ExpName2 -->
<g id="edge55" class="edge"><title>ExpCall2&#45;&gt;ExpName2</title>
<path fill="none" stroke="black" d="M3061.33,-215.697C3061.88,-207.983 3062.54,-198.712 3063.15,-190.112"/>
<polygon fill="black" stroke="black" points="3066.65,-190.328 3063.87,-180.104 3059.66,-189.83 3066.65,-190.328"/>
</g>
<!-- ExpList2 -->
<g id="node65" class="node"><title>ExpList2</title>
<ellipse fill="none" stroke="black" cx="3177.09" cy="-162" rx="42.7926" ry="18"/>
<text text-anchor="middle" x="3177.09" y="-158.3" font-family="Times,serif" font-size="14.00">ExpList2</text>
</g>
<!-- ExpCall2&#45;&gt;ExpList2 -->
<g id="edge56" class="edge"><title>ExpCall2&#45;&gt;ExpList2</title>
<path fill="none" stroke="black" d="M3084.05,-218.666C3101.59,-208.168 3125.6,-193.807 3144.83,-182.301"/>
<polygon fill="black" stroke="black" points="3146.78,-185.214 3153.56,-177.076 3143.18,-179.207 3146.78,-185.214"/>
</g>
<!-- ExpList2&#45;&gt;ExpTemp18 -->
<g id="edge70" class="edge"><title>ExpList2&#45;&gt;ExpTemp18</title>
<path fill="none" stroke="black" d="M3179.07,-143.697C3179.95,-135.983 3181.01,-126.712 3181.99,-118.112"/>
<polygon fill="black" stroke="black" points="3185.48,-118.437 3183.14,-108.104 3178.52,-117.642 3185.48,-118.437"/>
</g>
<!-- Temp15: T12 -->
<g id="node67" class="node"><title>Temp15: T12</title>
<ellipse fill="none" stroke="black" cx="2671.09" cy="-162" rx="59.5901" ry="18"/>
<text text-anchor="middle" x="2671.09" y="-158.3" font-family="Times,serif" font-size="14.00">Temp15: T12</text>
</g>
<!-- ExpTemp15&#45;&gt;Temp15: T12 -->
<g id="edge57" class="edge"><title>ExpTemp15&#45;&gt;Temp15: T12</title>
<path fill="none" stroke="black" d="M2671.09,-215.697C2671.09,-207.983 2671.09,-198.712 2671.09,-190.112"/>
<polygon fill="black" stroke="black" points="2674.59,-190.104 2671.09,-180.104 2667.59,-190.104 2674.59,-190.104"/>
</g>
<!-- Label2: LS@Start -->
<g id="node69" class="node"><title>Label2: LS@Start</title>
<ellipse fill="none" stroke="black" cx="2402.09" cy="-90" rx="75.2868" ry="18"/>
<text text-anchor="middle" x="2402.09" y="-86.3" font-family="Times,serif" font-size="14.00">Label2: LS@Start</text>
</g>
<!-- ExpName1&#45;&gt;Label2: LS@Start -->
<g id="edge58" class="edge"><title>ExpName1&#45;&gt;Label2: LS@Start</title>
<path fill="none" stroke="black" d="M2429.38,-144.055C2425.24,-136.007 2420.2,-126.205 2415.58,-117.226"/>
<polygon fill="black" stroke="black" points="2418.66,-115.567 2410.97,-108.275 2412.44,-118.769 2418.66,-115.567"/>
</g>
<!-- Temp16: T5 -->
<g id="node73" class="node"><title>Temp16: T5</title>
<ellipse fill="none" stroke="black" cx="2804.09" cy="-162" rx="55.4913" ry="18"/>
<text text-anchor="middle" x="2804.09" y="-158.3" font-family="Times,serif" font-size="14.00">Temp16: T5</text>
</g>
<!-- ExpTemp16&#45;&gt;Temp16: T5 -->
<g id="edge63" class="edge"><title>ExpTemp16&#45;&gt;Temp16: T5</title>
<path fill="none" stroke="black" d="M2801.83,-215.697C2802.16,-207.983 2802.56,-198.712 2802.93,-190.112"/>
<polygon fill="black" stroke="black" points="2806.43,-190.245 2803.36,-180.104 2799.43,-189.945 2806.43,-190.245"/>
</g>
<!-- Temp19: T6 -->
<g id="node75" class="node"><title>Temp19: T6</title>
<ellipse fill="none" stroke="black" cx="3293.09" cy="-162" rx="55.4913" ry="18"/>
<text text-anchor="middle" x="3293.09" y="-158.3" font-family="Times,serif" font-size="14.00">Temp19: T6</text>
</g>
<!-- ExpTemp19&#45;&gt;Temp19: T6 -->
<g id="edge73" class="edge"><title>ExpTemp19&#45;&gt;Temp19: T6</title>
<path fill="none" stroke="black" d="M3202.26,-217.811C3218.98,-207.721 3241.13,-194.355 3259.37,-183.348"/>
<polygon fill="black" stroke="black" points="3261.22,-186.323 3267.97,-178.159 3257.6,-180.329 3261.22,-186.323"/>
</g>
</g>
</svg>
