<?xml version="1.0" encoding="UTF-8" standalone="no"?>
<!DOCTYPE svg PUBLIC "-//W3C//DTD SVG 1.1//EN"
 "http://www.w3.org/Graphics/SVG/1.1/DTD/svg11.dtd">
<!-- Generated by graphviz version 2.38.0 (20140413.2041)
 -->
<!-- Title: %3 Pages: 1 -->
<svg width="562pt" height="260pt"
 viewBox="0.00 0.00 561.59 260.00" xmlns="http://www.w3.org/2000/svg" xmlns:xlink="http://www.w3.org/1999/xlink">
<g id="graph0" class="graph" transform="scale(1 1) rotate(0) translate(4 256)">
<title>%3</title>
<polygon fill="white" stroke="none" points="-4,4 -4,-256 557.589,-256 557.589,4 -4,4"/>
<!-- Temp0 -->
<g id="node1" class="node"><title>Temp0</title>
<ellipse fill="none" stroke="black" cx="171.795" cy="-162" rx="36.2938" ry="18"/>
<text text-anchor="middle" x="171.795" y="-158.3" font-family="Times,serif" font-size="14.00">Temp0</text>
</g>
<!-- Temp1: T126 -->
<g id="node2" class="node"><title>Temp1: T126</title>
<ellipse fill="none" stroke="black" cx="59.7947" cy="-90" rx="59.5901" ry="18"/>
<text text-anchor="middle" x="59.7947" y="-86.3" font-family="Times,serif" font-size="14.00">Temp1: T126</text>
</g>
<!-- Temp0&#45;&gt;Temp1: T126 -->
<g id="edge1" class="edge"><title>Temp0&#45;&gt;Temp1: T126</title>
<path fill="none" stroke="black" d="M150.2,-147.503C134.03,-137.397 111.612,-123.386 93.146,-111.845"/>
<polygon fill="black" stroke="black" points="94.7779,-108.737 84.4429,-106.405 91.0678,-114.673 94.7779,-108.737"/>
</g>
<!-- Temp2 -->
<g id="node3" class="node"><title>Temp2</title>
<ellipse fill="none" stroke="black" cx="367.795" cy="-90" rx="36.2938" ry="18"/>
<text text-anchor="middle" x="367.795" y="-86.3" font-family="Times,serif" font-size="14.00">Temp2</text>
</g>
<!-- Temp3: T124 -->
<g id="node4" class="node"><title>Temp3: T124</title>
<ellipse fill="none" stroke="black" cx="355.795" cy="-18" rx="59.5901" ry="18"/>
<text text-anchor="middle" x="355.795" y="-14.3" font-family="Times,serif" font-size="14.00">Temp3: T124</text>
</g>
<!-- Temp2&#45;&gt;Temp3: T124 -->
<g id="edge2" class="edge"><title>Temp2&#45;&gt;Temp3: T124</title>
<path fill="none" stroke="black" d="M364.89,-72.055C363.568,-64.3456 361.971,-55.0269 360.486,-46.3642"/>
<polygon fill="black" stroke="black" points="363.896,-45.5401 358.756,-36.2753 356.996,-46.7229 363.896,-45.5401"/>
</g>
<!-- MoveRegister0 -->
<g id="node5" class="node"><title>MoveRegister0</title>
<ellipse fill="none" stroke="black" cx="233.795" cy="-234" rx="65.7887" ry="18"/>
<text text-anchor="middle" x="233.795" y="-230.3" font-family="Times,serif" font-size="14.00">MoveRegister0</text>
</g>
<!-- MoveRegister0&#45;&gt;Temp0 -->
<g id="edge3" class="edge"><title>MoveRegister0&#45;&gt;Temp0</title>
<path fill="none" stroke="black" d="M219.102,-216.411C211.19,-207.479 201.297,-196.31 192.607,-186.498"/>
<polygon fill="black" stroke="black" points="195.206,-184.153 185.956,-178.988 189.966,-188.795 195.206,-184.153"/>
</g>
<!-- Call0 -->
<g id="node6" class="node"><title>Call0</title>
<ellipse fill="none" stroke="black" cx="296.795" cy="-162" rx="29.795" ry="18"/>
<text text-anchor="middle" x="296.795" y="-158.3" font-family="Times,serif" font-size="14.00">Call0</text>
</g>
<!-- MoveRegister0&#45;&gt;Call0 -->
<g id="edge4" class="edge"><title>MoveRegister0&#45;&gt;Call0</title>
<path fill="none" stroke="black" d="M248.725,-216.411C256.879,-207.351 267.104,-195.99 276.025,-186.078"/>
<polygon fill="black" stroke="black" points="278.747,-188.285 282.835,-178.511 273.544,-183.602 278.747,-188.285"/>
</g>
<!-- Call0&#45;&gt;Temp2 -->
<g id="edge7" class="edge"><title>Call0&#45;&gt;Temp2</title>
<path fill="none" stroke="black" d="M311.852,-146.155C321.509,-136.633 334.229,-124.093 345.099,-113.376"/>
<polygon fill="black" stroke="black" points="347.604,-115.821 352.268,-106.308 342.69,-110.836 347.604,-115.821"/>
</g>
<!-- Temp4 -->
<g id="node7" class="node"><title>Temp4</title>
<ellipse fill="none" stroke="black" cx="481.795" cy="-90" rx="36.2938" ry="18"/>
<text text-anchor="middle" x="481.795" y="-86.3" font-family="Times,serif" font-size="14.00">Temp4</text>
</g>
<!-- Call0&#45;&gt;Temp4 -->
<g id="edge8" class="edge"><title>Call0&#45;&gt;Temp4</title>
<path fill="none" stroke="black" d="M321.361,-151.705C352.85,-139.79 407.747,-119.018 444.429,-105.138"/>
<polygon fill="black" stroke="black" points="445.683,-108.406 453.797,-101.594 443.205,-101.859 445.683,-108.406"/>
</g>
<!-- Function0: Tree@Init -->
<g id="node9" class="node"><title>Function0: Tree@Init</title>
<ellipse fill="none" stroke="black" cx="225.795" cy="-90" rx="87.9851" ry="18"/>
<text text-anchor="middle" x="225.795" y="-86.3" font-family="Times,serif" font-size="14.00">Function0: Tree@Init</text>
</g>
<!-- Call0&#45;&gt;Function0: Tree@Init -->
<g id="edge6" class="edge"><title>Call0&#45;&gt;Function0: Tree@Init</title>
<path fill="none" stroke="black" d="M281.737,-146.155C272.566,-137.112 260.633,-125.347 250.145,-115.007"/>
<polygon fill="black" stroke="black" points="252.402,-112.317 242.824,-107.789 247.487,-117.302 252.402,-112.317"/>
</g>
<!-- Temp5: T125 -->
<g id="node8" class="node"><title>Temp5: T125</title>
<ellipse fill="none" stroke="black" cx="493.795" cy="-18" rx="59.5901" ry="18"/>
<text text-anchor="middle" x="493.795" y="-14.3" font-family="Times,serif" font-size="14.00">Temp5: T125</text>
</g>
<!-- Temp4&#45;&gt;Temp5: T125 -->
<g id="edge5" class="edge"><title>Temp4&#45;&gt;Temp5: T125</title>
<path fill="none" stroke="black" d="M484.7,-72.055C486.021,-64.3456 487.619,-55.0269 489.104,-46.3642"/>
<polygon fill="black" stroke="black" points="492.593,-46.7229 490.833,-36.2753 485.694,-45.5401 492.593,-46.7229"/>
</g>
</g>
</svg>
