<?xml version="1.0" encoding="UTF-8" standalone="no"?>
<!DOCTYPE svg PUBLIC "-//W3C//DTD SVG 1.1//EN"
 "http://www.w3.org/Graphics/SVG/1.1/DTD/svg11.dtd">
<!-- Generated by graphviz version 2.38.0 (20140413.2041)
 -->
<!-- Title: %3 Pages: 1 -->
<svg width="1628pt" height="692pt"
 viewBox="0.00 0.00 1627.64 692.00" xmlns="http://www.w3.org/2000/svg" xmlns:xlink="http://www.w3.org/1999/xlink">
<g id="graph0" class="graph" transform="scale(1 1) rotate(0) translate(4 688)">
<title>%3</title>
<polygon fill="white" stroke="none" points="-4,4 -4,-688 1623.64,-688 1623.64,4 -4,4"/>
<!-- ClassDeclList0 -->
<g id="node1" class="node"><title>ClassDeclList0</title>
<ellipse fill="none" stroke="black" cx="342.146" cy="-594" rx="64.189" ry="18"/>
<text text-anchor="middle" x="342.146" y="-590.3" font-family="Times,serif" font-size="14.00">ClassDeclList0</text>
</g>
<!-- ClassDecl0 -->
<g id="node2" class="node"><title>ClassDecl0</title>
<ellipse fill="none" stroke="black" cx="361.146" cy="-522" rx="50.8918" ry="18"/>
<text text-anchor="middle" x="361.146" y="-518.3" font-family="Times,serif" font-size="14.00">ClassDecl0</text>
</g>
<!-- ClassDeclList0&#45;&gt;ClassDecl0 -->
<g id="edge1" class="edge"><title>ClassDeclList0&#45;&gt;ClassDecl0</title>
<path fill="none" stroke="black" d="M346.843,-575.697C348.959,-567.898 351.508,-558.509 353.864,-549.829"/>
<polygon fill="black" stroke="black" points="357.262,-550.672 356.503,-540.104 350.506,-548.838 357.262,-550.672"/>
</g>
<!-- MethDeclList0 -->
<g id="node3" class="node"><title>MethDeclList0</title>
<ellipse fill="none" stroke="black" cx="740.146" cy="-450" rx="64.189" ry="18"/>
<text text-anchor="middle" x="740.146" y="-446.3" font-family="Times,serif" font-size="14.00">MethDeclList0</text>
</g>
<!-- ClassDecl0&#45;&gt;MethDeclList0 -->
<g id="edge19" class="edge"><title>ClassDecl0&#45;&gt;MethDeclList0</title>
<path fill="none" stroke="black" d="M404.992,-512.902C472.218,-500.485 601.027,-476.695 677.899,-462.497"/>
<polygon fill="black" stroke="black" points="678.731,-465.902 687.929,-460.644 677.459,-459.019 678.731,-465.902"/>
</g>
<!-- VarDeclList0 -->
<g id="node17" class="node"><title>VarDeclList0</title>
<ellipse fill="none" stroke="black" cx="362.146" cy="-450" rx="58.4896" ry="18"/>
<text text-anchor="middle" x="362.146" y="-446.3" font-family="Times,serif" font-size="14.00">VarDeclList0</text>
</g>
<!-- ClassDecl0&#45;&gt;VarDeclList0 -->
<g id="edge18" class="edge"><title>ClassDecl0&#45;&gt;VarDeclList0</title>
<path fill="none" stroke="black" d="M361.393,-503.697C361.503,-495.983 361.636,-486.712 361.759,-478.112"/>
<polygon fill="black" stroke="black" points="365.258,-478.153 361.902,-468.104 358.259,-478.053 365.258,-478.153"/>
</g>
<!-- ExpId2 -->
<g id="node25" class="node"><title>ExpId2</title>
<ellipse fill="none" stroke="black" cx="249.146" cy="-450" rx="36.2938" ry="18"/>
<text text-anchor="middle" x="249.146" y="-446.3" font-family="Times,serif" font-size="14.00">ExpId2</text>
</g>
<!-- ClassDecl0&#45;&gt;ExpId2 -->
<g id="edge17" class="edge"><title>ClassDecl0&#45;&gt;ExpId2</title>
<path fill="none" stroke="black" d="M337.119,-505.983C320.217,-495.419 297.47,-481.202 279.341,-469.872"/>
<polygon fill="black" stroke="black" points="281.193,-466.902 270.858,-464.57 277.483,-472.838 281.193,-466.902"/>
</g>
<!-- MethDecl0 -->
<g id="node4" class="node"><title>MethDecl0</title>
<ellipse fill="none" stroke="black" cx="985.146" cy="-378" rx="50.8918" ry="18"/>
<text text-anchor="middle" x="985.146" y="-374.3" font-family="Times,serif" font-size="14.00">MethDecl0</text>
</g>
<!-- MethDeclList0&#45;&gt;MethDecl0 -->
<g id="edge2" class="edge"><title>MethDeclList0&#45;&gt;MethDecl0</title>
<path fill="none" stroke="black" d="M783.383,-436.647C826.422,-424.35 892.338,-405.516 937.017,-392.751"/>
<polygon fill="black" stroke="black" points="938.117,-396.077 946.771,-389.964 936.194,-389.346 938.117,-396.077"/>
</g>
<!-- ExpNumber1 -->
<g id="node5" class="node"><title>ExpNumber1</title>
<ellipse fill="none" stroke="black" cx="1524.15" cy="-306" rx="58.4896" ry="18"/>
<text text-anchor="middle" x="1524.15" y="-302.3" font-family="Times,serif" font-size="14.00">ExpNumber1</text>
</g>
<!-- MethDecl0&#45;&gt;ExpNumber1 -->
<g id="edge39" class="edge"><title>MethDecl0&#45;&gt;ExpNumber1</title>
<path fill="none" stroke="black" d="M1033.34,-372.223C1115.14,-363.902 1286.26,-345.559 1430.15,-324 1441.69,-322.27 1453.99,-320.207 1465.76,-318.124"/>
<polygon fill="black" stroke="black" points="1466.71,-321.509 1475.94,-316.296 1465.47,-314.619 1466.71,-321.509"/>
</g>
<!-- StatList1 -->
<g id="node7" class="node"><title>StatList1</title>
<ellipse fill="none" stroke="black" cx="1379.15" cy="-306" rx="42.4939" ry="18"/>
<text text-anchor="middle" x="1379.15" y="-302.3" font-family="Times,serif" font-size="14.00">StatList1</text>
</g>
<!-- MethDecl0&#45;&gt;StatList1 -->
<g id="edge38" class="edge"><title>MethDecl0&#45;&gt;StatList1</title>
<path fill="none" stroke="black" d="M1029.58,-369.106C1104.21,-355.846 1254.12,-329.212 1331.11,-315.535"/>
<polygon fill="black" stroke="black" points="1331.79,-318.969 1341.02,-313.773 1330.56,-312.076 1331.79,-318.969"/>
</g>
<!-- VarDeclList1 -->
<g id="node31" class="node"><title>VarDeclList1</title>
<ellipse fill="none" stroke="black" cx="1181.15" cy="-306" rx="58.4896" ry="18"/>
<text text-anchor="middle" x="1181.15" y="-302.3" font-family="Times,serif" font-size="14.00">VarDeclList1</text>
</g>
<!-- MethDecl0&#45;&gt;VarDeclList1 -->
<g id="edge37" class="edge"><title>MethDecl0&#45;&gt;VarDeclList1</title>
<path fill="none" stroke="black" d="M1019.74,-364.647C1051.78,-353.202 1099.68,-336.096 1134.98,-323.489"/>
<polygon fill="black" stroke="black" points="1136.33,-326.72 1144.58,-320.061 1133.98,-320.128 1136.33,-326.72"/>
</g>
<!-- AccessModPublic0 -->
<g id="node39" class="node"><title>AccessModPublic0</title>
<ellipse fill="none" stroke="black" cx="656.146" cy="-306" rx="79.0865" ry="18"/>
<text text-anchor="middle" x="656.146" y="-302.3" font-family="Times,serif" font-size="14.00">AccessModPublic0</text>
</g>
<!-- MethDecl0&#45;&gt;AccessModPublic0 -->
<g id="edge33" class="edge"><title>MethDecl0&#45;&gt;AccessModPublic0</title>
<path fill="none" stroke="black" d="M942.808,-367.992C886.765,-356.068 787.383,-334.923 721.625,-320.932"/>
<polygon fill="black" stroke="black" points="722.283,-317.494 711.774,-318.836 720.826,-324.34 722.283,-317.494"/>
</g>
<!-- TypeModInt2 -->
<g id="node40" class="node"><title>TypeModInt2</title>
<ellipse fill="none" stroke="black" cx="813.146" cy="-306" rx="59.5901" ry="18"/>
<text text-anchor="middle" x="813.146" y="-302.3" font-family="Times,serif" font-size="14.00">TypeModInt2</text>
</g>
<!-- MethDecl0&#45;&gt;TypeModInt2 -->
<g id="edge34" class="edge"><title>MethDecl0&#45;&gt;TypeModInt2</title>
<path fill="none" stroke="black" d="M953.197,-363.998C926.022,-352.938 886.737,-336.95 856.685,-324.72"/>
<polygon fill="black" stroke="black" points="857.862,-321.42 847.28,-320.892 855.223,-327.903 857.862,-321.42"/>
</g>
<!-- ExpId5 -->
<g id="node41" class="node"><title>ExpId5</title>
<ellipse fill="none" stroke="black" cx="927.146" cy="-306" rx="36.2938" ry="18"/>
<text text-anchor="middle" x="927.146" y="-302.3" font-family="Times,serif" font-size="14.00">ExpId5</text>
</g>
<!-- MethDecl0&#45;&gt;ExpId5 -->
<g id="edge35" class="edge"><title>MethDecl0&#45;&gt;ExpId5</title>
<path fill="none" stroke="black" d="M971.401,-360.411C964.073,-351.567 954.928,-340.531 946.857,-330.789"/>
<polygon fill="black" stroke="black" points="949.468,-328.455 940.393,-322.988 944.078,-332.921 949.468,-328.455"/>
</g>
<!-- MethArgList0 -->
<g id="node42" class="node"><title>MethArgList0</title>
<ellipse fill="none" stroke="black" cx="1043.15" cy="-306" rx="61.99" ry="18"/>
<text text-anchor="middle" x="1043.15" y="-302.3" font-family="Times,serif" font-size="14.00">MethArgList0</text>
</g>
<!-- MethDecl0&#45;&gt;MethArgList0 -->
<g id="edge36" class="edge"><title>MethDecl0&#45;&gt;MethArgList0</title>
<path fill="none" stroke="black" d="M998.891,-360.411C1005.94,-351.906 1014.67,-341.372 1022.5,-331.914"/>
<polygon fill="black" stroke="black" points="1025.41,-333.89 1029.1,-323.956 1020.02,-329.423 1025.41,-333.89"/>
</g>
<!-- Value1: 0 -->
<g id="node6" class="node"><title>Value1: 0</title>
<ellipse fill="none" stroke="black" cx="1526.15" cy="-234" rx="45.4919" ry="18"/>
<text text-anchor="middle" x="1526.15" y="-230.3" font-family="Times,serif" font-size="14.00">Value1: 0</text>
</g>
<!-- ExpNumber1&#45;&gt;Value1: 0 -->
<g id="edge3" class="edge"><title>ExpNumber1&#45;&gt;Value1: 0</title>
<path fill="none" stroke="black" d="M1524.64,-287.697C1524.86,-279.983 1525.13,-270.712 1525.37,-262.112"/>
<polygon fill="black" stroke="black" points="1528.87,-262.2 1525.66,-252.104 1521.87,-262 1528.87,-262.2"/>
</g>
<!-- StatAssignId0 -->
<g id="node8" class="node"><title>StatAssignId0</title>
<ellipse fill="none" stroke="black" cx="1402.15" cy="-234" rx="60.3893" ry="18"/>
<text text-anchor="middle" x="1402.15" y="-230.3" font-family="Times,serif" font-size="14.00">StatAssignId0</text>
</g>
<!-- StatList1&#45;&gt;StatAssignId0 -->
<g id="edge4" class="edge"><title>StatList1&#45;&gt;StatAssignId0</title>
<path fill="none" stroke="black" d="M1384.71,-288.055C1387.3,-280.176 1390.44,-270.617 1393.34,-261.794"/>
<polygon fill="black" stroke="black" points="1396.67,-262.868 1396.47,-252.275 1390.02,-260.683 1396.67,-262.868"/>
</g>
<!-- ExpNumber0 -->
<g id="node9" class="node"><title>ExpNumber0</title>
<ellipse fill="none" stroke="black" cx="1561.15" cy="-162" rx="58.4896" ry="18"/>
<text text-anchor="middle" x="1561.15" y="-158.3" font-family="Times,serif" font-size="14.00">ExpNumber0</text>
</g>
<!-- StatAssignId0&#45;&gt;ExpNumber0 -->
<g id="edge7" class="edge"><title>StatAssignId0&#45;&gt;ExpNumber0</title>
<path fill="none" stroke="black" d="M1434.71,-218.666C1459.3,-207.836 1493.24,-192.894 1519.77,-181.217"/>
<polygon fill="black" stroke="black" points="1521.43,-184.309 1529.17,-177.076 1518.61,-177.902 1521.43,-184.309"/>
</g>
<!-- ExpId10 -->
<g id="node11" class="node"><title>ExpId10</title>
<ellipse fill="none" stroke="black" cx="1444.15" cy="-162" rx="40.8928" ry="18"/>
<text text-anchor="middle" x="1444.15" y="-158.3" font-family="Times,serif" font-size="14.00">ExpId10</text>
</g>
<!-- StatAssignId0&#45;&gt;ExpId10 -->
<g id="edge6" class="edge"><title>StatAssignId0&#45;&gt;ExpId10</title>
<path fill="none" stroke="black" d="M1412.31,-216.055C1417.27,-207.801 1423.33,-197.701 1428.82,-188.538"/>
<polygon fill="black" stroke="black" points="1431.93,-190.165 1434.07,-179.789 1425.93,-186.563 1431.93,-190.165"/>
</g>
<!-- Value0: 5 -->
<g id="node10" class="node"><title>Value0: 5</title>
<ellipse fill="none" stroke="black" cx="1561.15" cy="-90" rx="45.4919" ry="18"/>
<text text-anchor="middle" x="1561.15" y="-86.3" font-family="Times,serif" font-size="14.00">Value0: 5</text>
</g>
<!-- ExpNumber0&#45;&gt;Value0: 5 -->
<g id="edge5" class="edge"><title>ExpNumber0&#45;&gt;Value0: 5</title>
<path fill="none" stroke="black" d="M1561.15,-143.697C1561.15,-135.983 1561.15,-126.712 1561.15,-118.112"/>
<polygon fill="black" stroke="black" points="1564.65,-118.104 1561.15,-108.104 1557.65,-118.104 1564.65,-118.104"/>
</g>
<!-- Id10: x -->
<g id="node43" class="node"><title>Id10: x</title>
<ellipse fill="none" stroke="black" cx="1444.15" cy="-90" rx="36.2938" ry="18"/>
<text text-anchor="middle" x="1444.15" y="-86.3" font-family="Times,serif" font-size="14.00">Id10: x</text>
</g>
<!-- ExpId10&#45;&gt;Id10: x -->
<g id="edge40" class="edge"><title>ExpId10&#45;&gt;Id10: x</title>
<path fill="none" stroke="black" d="M1444.15,-143.697C1444.15,-135.983 1444.15,-126.712 1444.15,-118.112"/>
<polygon fill="black" stroke="black" points="1447.65,-118.104 1444.15,-108.104 1440.65,-118.104 1447.65,-118.104"/>
</g>
<!-- VarDecl1 -->
<g id="node12" class="node"><title>VarDecl1</title>
<ellipse fill="none" stroke="black" cx="408.146" cy="-378" rx="44.6926" ry="18"/>
<text text-anchor="middle" x="408.146" y="-374.3" font-family="Times,serif" font-size="14.00">VarDecl1</text>
</g>
<!-- TypeModInt1 -->
<g id="node13" class="node"><title>TypeModInt1</title>
<ellipse fill="none" stroke="black" cx="408.146" cy="-306" rx="59.5901" ry="18"/>
<text text-anchor="middle" x="408.146" y="-302.3" font-family="Times,serif" font-size="14.00">TypeModInt1</text>
</g>
<!-- VarDecl1&#45;&gt;TypeModInt1 -->
<g id="edge8" class="edge"><title>VarDecl1&#45;&gt;TypeModInt1</title>
<path fill="none" stroke="black" d="M408.146,-359.697C408.146,-351.983 408.146,-342.712 408.146,-334.112"/>
<polygon fill="black" stroke="black" points="411.646,-334.104 408.146,-324.104 404.646,-334.104 411.646,-334.104"/>
</g>
<!-- ExpId4 -->
<g id="node14" class="node"><title>ExpId4</title>
<ellipse fill="none" stroke="black" cx="522.146" cy="-306" rx="36.2938" ry="18"/>
<text text-anchor="middle" x="522.146" y="-302.3" font-family="Times,serif" font-size="14.00">ExpId4</text>
</g>
<!-- VarDecl1&#45;&gt;ExpId4 -->
<g id="edge9" class="edge"><title>VarDecl1&#45;&gt;ExpId4</title>
<path fill="none" stroke="black" d="M431.767,-362.496C449.029,-351.896 472.598,-337.424 491.339,-325.917"/>
<polygon fill="black" stroke="black" points="493.412,-328.751 500.102,-320.536 489.749,-322.786 493.412,-328.751"/>
</g>
<!-- Id4: c -->
<g id="node38" class="node"><title>Id4: c</title>
<ellipse fill="none" stroke="black" cx="522.146" cy="-234" rx="31.3957" ry="18"/>
<text text-anchor="middle" x="522.146" y="-230.3" font-family="Times,serif" font-size="14.00">Id4: c</text>
</g>
<!-- ExpId4&#45;&gt;Id4: c -->
<g id="edge32" class="edge"><title>ExpId4&#45;&gt;Id4: c</title>
<path fill="none" stroke="black" d="M522.146,-287.697C522.146,-279.983 522.146,-270.712 522.146,-262.112"/>
<polygon fill="black" stroke="black" points="525.646,-262.104 522.146,-252.104 518.646,-262.104 525.646,-262.104"/>
</g>
<!-- TypeModId0 -->
<g id="node15" class="node"><title>TypeModId0</title>
<ellipse fill="none" stroke="black" cx="1237.15" cy="-162" rx="57.6901" ry="18"/>
<text text-anchor="middle" x="1237.15" y="-158.3" font-family="Times,serif" font-size="14.00">TypeModId0</text>
</g>
<!-- ExpId8 -->
<g id="node16" class="node"><title>ExpId8</title>
<ellipse fill="none" stroke="black" cx="1237.15" cy="-90" rx="36.2938" ry="18"/>
<text text-anchor="middle" x="1237.15" y="-86.3" font-family="Times,serif" font-size="14.00">ExpId8</text>
</g>
<!-- TypeModId0&#45;&gt;ExpId8 -->
<g id="edge10" class="edge"><title>TypeModId0&#45;&gt;ExpId8</title>
<path fill="none" stroke="black" d="M1237.15,-143.697C1237.15,-135.983 1237.15,-126.712 1237.15,-118.112"/>
<polygon fill="black" stroke="black" points="1240.65,-118.104 1237.15,-108.104 1233.65,-118.104 1240.65,-118.104"/>
</g>
<!-- Id8: Random -->
<g id="node27" class="node"><title>Id8: Random</title>
<ellipse fill="none" stroke="black" cx="1237.15" cy="-18" rx="57.6901" ry="18"/>
<text text-anchor="middle" x="1237.15" y="-14.3" font-family="Times,serif" font-size="14.00">Id8: Random</text>
</g>
<!-- ExpId8&#45;&gt;Id8: Random -->
<g id="edge21" class="edge"><title>ExpId8&#45;&gt;Id8: Random</title>
<path fill="none" stroke="black" d="M1237.15,-71.6966C1237.15,-63.9827 1237.15,-54.7125 1237.15,-46.1124"/>
<polygon fill="black" stroke="black" points="1240.65,-46.1043 1237.15,-36.1043 1233.65,-46.1044 1240.65,-46.1043"/>
</g>
<!-- VarDeclList0&#45;&gt;VarDecl1 -->
<g id="edge12" class="edge"><title>VarDeclList0&#45;&gt;VarDecl1</title>
<path fill="none" stroke="black" d="M373.281,-432.055C378.762,-423.715 385.481,-413.491 391.552,-404.252"/>
<polygon fill="black" stroke="black" points="394.546,-406.068 397.113,-395.789 388.696,-402.224 394.546,-406.068"/>
</g>
<!-- VarDecl0 -->
<g id="node18" class="node"><title>VarDecl0</title>
<ellipse fill="none" stroke="black" cx="297.146" cy="-378" rx="44.6926" ry="18"/>
<text text-anchor="middle" x="297.146" y="-374.3" font-family="Times,serif" font-size="14.00">VarDecl0</text>
</g>
<!-- VarDeclList0&#45;&gt;VarDecl0 -->
<g id="edge11" class="edge"><title>VarDeclList0&#45;&gt;VarDecl0</title>
<path fill="none" stroke="black" d="M346.742,-432.411C338.447,-423.479 328.076,-412.31 318.965,-402.498"/>
<polygon fill="black" stroke="black" points="321.361,-399.934 311.992,-394.988 316.232,-404.698 321.361,-399.934"/>
</g>
<!-- TypeModInt0 -->
<g id="node23" class="node"><title>TypeModInt0</title>
<ellipse fill="none" stroke="black" cx="180.146" cy="-306" rx="59.5901" ry="18"/>
<text text-anchor="middle" x="180.146" y="-302.3" font-family="Times,serif" font-size="14.00">TypeModInt0</text>
</g>
<!-- VarDecl0&#45;&gt;TypeModInt0 -->
<g id="edge15" class="edge"><title>VarDecl0&#45;&gt;TypeModInt0</title>
<path fill="none" stroke="black" d="M273.187,-362.666C256.219,-352.514 233.21,-338.748 214.319,-327.446"/>
<polygon fill="black" stroke="black" points="216.073,-324.416 205.694,-322.285 212.479,-330.423 216.073,-324.416"/>
</g>
<!-- ExpId3 -->
<g id="node24" class="node"><title>ExpId3</title>
<ellipse fill="none" stroke="black" cx="294.146" cy="-306" rx="36.2938" ry="18"/>
<text text-anchor="middle" x="294.146" y="-302.3" font-family="Times,serif" font-size="14.00">ExpId3</text>
</g>
<!-- VarDecl0&#45;&gt;ExpId3 -->
<g id="edge16" class="edge"><title>VarDecl0&#45;&gt;ExpId3</title>
<path fill="none" stroke="black" d="M296.404,-359.697C296.074,-351.983 295.676,-342.712 295.308,-334.112"/>
<polygon fill="black" stroke="black" points="298.804,-333.945 294.879,-324.104 291.81,-334.245 298.804,-333.945"/>
</g>
<!-- ExpId1 -->
<g id="node19" class="node"><title>ExpId1</title>
<ellipse fill="none" stroke="black" cx="152.146" cy="-522" rx="36.2938" ry="18"/>
<text text-anchor="middle" x="152.146" y="-518.3" font-family="Times,serif" font-size="14.00">ExpId1</text>
</g>
<!-- Id1: args -->
<g id="node20" class="node"><title>Id1: args</title>
<ellipse fill="none" stroke="black" cx="152.146" cy="-450" rx="42.4939" ry="18"/>
<text text-anchor="middle" x="152.146" y="-446.3" font-family="Times,serif" font-size="14.00">Id1: args</text>
</g>
<!-- ExpId1&#45;&gt;Id1: args -->
<g id="edge13" class="edge"><title>ExpId1&#45;&gt;Id1: args</title>
<path fill="none" stroke="black" d="M152.146,-503.697C152.146,-495.983 152.146,-486.712 152.146,-478.112"/>
<polygon fill="black" stroke="black" points="155.646,-478.104 152.146,-468.104 148.646,-478.104 155.646,-478.104"/>
</g>
<!-- ExpId7 -->
<g id="node21" class="node"><title>ExpId7</title>
<ellipse fill="none" stroke="black" cx="1125.15" cy="-162" rx="36.2938" ry="18"/>
<text text-anchor="middle" x="1125.15" y="-158.3" font-family="Times,serif" font-size="14.00">ExpId7</text>
</g>
<!-- Id7: m -->
<g id="node22" class="node"><title>Id7: m</title>
<ellipse fill="none" stroke="black" cx="1125.15" cy="-90" rx="34.394" ry="18"/>
<text text-anchor="middle" x="1125.15" y="-86.3" font-family="Times,serif" font-size="14.00">Id7: m</text>
</g>
<!-- ExpId7&#45;&gt;Id7: m -->
<g id="edge14" class="edge"><title>ExpId7&#45;&gt;Id7: m</title>
<path fill="none" stroke="black" d="M1125.15,-143.697C1125.15,-135.983 1125.15,-126.712 1125.15,-118.112"/>
<polygon fill="black" stroke="black" points="1128.65,-118.104 1125.15,-108.104 1121.65,-118.104 1128.65,-118.104"/>
</g>
<!-- Id3: c -->
<g id="node37" class="node"><title>Id3: c</title>
<ellipse fill="none" stroke="black" cx="294.146" cy="-234" rx="31.3957" ry="18"/>
<text text-anchor="middle" x="294.146" y="-230.3" font-family="Times,serif" font-size="14.00">Id3: c</text>
</g>
<!-- ExpId3&#45;&gt;Id3: c -->
<g id="edge31" class="edge"><title>ExpId3&#45;&gt;Id3: c</title>
<path fill="none" stroke="black" d="M294.146,-287.697C294.146,-279.983 294.146,-270.712 294.146,-262.112"/>
<polygon fill="black" stroke="black" points="297.646,-262.104 294.146,-252.104 290.646,-262.104 297.646,-262.104"/>
</g>
<!-- Id2: C -->
<g id="node26" class="node"><title>Id2: C</title>
<ellipse fill="none" stroke="black" cx="201.146" cy="-378" rx="33.2948" ry="18"/>
<text text-anchor="middle" x="201.146" y="-374.3" font-family="Times,serif" font-size="14.00">Id2: C</text>
</g>
<!-- ExpId2&#45;&gt;Id2: C -->
<g id="edge20" class="edge"><title>ExpId2&#45;&gt;Id2: C</title>
<path fill="none" stroke="black" d="M238.013,-432.765C232.076,-424.106 224.647,-413.273 218.017,-403.604"/>
<polygon fill="black" stroke="black" points="220.76,-401.415 212.218,-395.147 214.987,-405.374 220.76,-401.415"/>
</g>
<!-- MainClass0 -->
<g id="node28" class="node"><title>MainClass0</title>
<ellipse fill="none" stroke="black" cx="170.146" cy="-594" rx="53.0913" ry="18"/>
<text text-anchor="middle" x="170.146" y="-590.3" font-family="Times,serif" font-size="14.00">MainClass0</text>
</g>
<!-- MainClass0&#45;&gt;ExpId1 -->
<g id="edge23" class="edge"><title>MainClass0&#45;&gt;ExpId1</title>
<path fill="none" stroke="black" d="M165.789,-576.055C163.784,-568.261 161.357,-558.822 159.109,-550.079"/>
<polygon fill="black" stroke="black" points="162.468,-549.089 156.588,-540.275 155.689,-550.832 162.468,-549.089"/>
</g>
<!-- ExpId0 -->
<g id="node29" class="node"><title>ExpId0</title>
<ellipse fill="none" stroke="black" cx="54.1459" cy="-522" rx="36.2938" ry="18"/>
<text text-anchor="middle" x="54.1459" y="-518.3" font-family="Times,serif" font-size="14.00">ExpId0</text>
</g>
<!-- MainClass0&#45;&gt;ExpId0 -->
<g id="edge22" class="edge"><title>MainClass0&#45;&gt;ExpId0</title>
<path fill="none" stroke="black" d="M145.261,-577.983C127.64,-567.35 103.887,-553.016 85.0516,-541.65"/>
<polygon fill="black" stroke="black" points="86.6186,-538.508 76.2483,-536.338 83.0019,-544.501 86.6186,-538.508"/>
</g>
<!-- StatList0 -->
<g id="node30" class="node"><title>StatList0</title>
<ellipse fill="none" stroke="black" cx="249.146" cy="-522" rx="42.4939" ry="18"/>
<text text-anchor="middle" x="249.146" y="-518.3" font-family="Times,serif" font-size="14.00">StatList0</text>
</g>
<!-- MainClass0&#45;&gt;StatList0 -->
<g id="edge24" class="edge"><title>MainClass0&#45;&gt;StatList0</title>
<path fill="none" stroke="black" d="M188.469,-576.765C199.061,-567.379 212.537,-555.439 224.097,-545.195"/>
<polygon fill="black" stroke="black" points="226.572,-547.678 231.736,-538.427 221.93,-542.439 226.572,-547.678"/>
</g>
<!-- Id0: Main -->
<g id="node36" class="node"><title>Id0: Main</title>
<ellipse fill="none" stroke="black" cx="46.1459" cy="-450" rx="46.2923" ry="18"/>
<text text-anchor="middle" x="46.1459" y="-446.3" font-family="Times,serif" font-size="14.00">Id0: Main</text>
</g>
<!-- ExpId0&#45;&gt;Id0: Main -->
<g id="edge30" class="edge"><title>ExpId0&#45;&gt;Id0: Main</title>
<path fill="none" stroke="black" d="M52.1684,-503.697C51.2868,-495.983 50.2273,-486.712 49.2445,-478.112"/>
<polygon fill="black" stroke="black" points="52.7136,-477.642 48.1007,-468.104 45.7589,-478.437 52.7136,-477.642"/>
</g>
<!-- VarDecl2 -->
<g id="node32" class="node"><title>VarDecl2</title>
<ellipse fill="none" stroke="black" cx="957.146" cy="-234" rx="44.6926" ry="18"/>
<text text-anchor="middle" x="957.146" y="-230.3" font-family="Times,serif" font-size="14.00">VarDecl2</text>
</g>
<!-- VarDeclList1&#45;&gt;VarDecl2 -->
<g id="edge25" class="edge"><title>VarDeclList1&#45;&gt;VarDecl2</title>
<path fill="none" stroke="black" d="M1141.61,-292.647C1102.28,-280.355 1042.05,-261.532 1001.2,-248.767"/>
<polygon fill="black" stroke="black" points="1002.1,-245.382 991.513,-245.74 1000.01,-252.063 1002.1,-245.382"/>
</g>
<!-- VarDecl3 -->
<g id="node33" class="node"><title>VarDecl3</title>
<ellipse fill="none" stroke="black" cx="1125.15" cy="-234" rx="44.6926" ry="18"/>
<text text-anchor="middle" x="1125.15" y="-230.3" font-family="Times,serif" font-size="14.00">VarDecl3</text>
</g>
<!-- VarDeclList1&#45;&gt;VarDecl3 -->
<g id="edge26" class="edge"><title>VarDeclList1&#45;&gt;VarDecl3</title>
<path fill="none" stroke="black" d="M1167.87,-288.411C1160.97,-279.781 1152.4,-269.062 1144.74,-259.497"/>
<polygon fill="black" stroke="black" points="1147.3,-257.092 1138.32,-251.47 1141.84,-261.465 1147.3,-257.092"/>
</g>
<!-- VarDecl4 -->
<g id="node34" class="node"><title>VarDecl4</title>
<ellipse fill="none" stroke="black" cx="1237.15" cy="-234" rx="44.6926" ry="18"/>
<text text-anchor="middle" x="1237.15" y="-230.3" font-family="Times,serif" font-size="14.00">VarDecl4</text>
</g>
<!-- VarDeclList1&#45;&gt;VarDecl4 -->
<g id="edge27" class="edge"><title>VarDeclList1&#45;&gt;VarDecl4</title>
<path fill="none" stroke="black" d="M1194.42,-288.411C1201.32,-279.781 1209.9,-269.062 1217.55,-259.497"/>
<polygon fill="black" stroke="black" points="1220.46,-261.465 1223.97,-251.47 1214.99,-257.092 1220.46,-261.465"/>
</g>
<!-- TypeModInt3 -->
<g id="node44" class="node"><title>TypeModInt3</title>
<ellipse fill="none" stroke="black" cx="783.146" cy="-162" rx="59.5901" ry="18"/>
<text text-anchor="middle" x="783.146" y="-158.3" font-family="Times,serif" font-size="14.00">TypeModInt3</text>
</g>
<!-- VarDecl2&#45;&gt;TypeModInt3 -->
<g id="edge41" class="edge"><title>VarDecl2&#45;&gt;TypeModInt3</title>
<path fill="none" stroke="black" d="M926.439,-220.647C898.765,-209.513 857.773,-193.022 826.714,-180.527"/>
<polygon fill="black" stroke="black" points="828.003,-177.274 817.42,-176.788 825.391,-183.768 828.003,-177.274"/>
</g>
<!-- ExpId6 -->
<g id="node45" class="node"><title>ExpId6</title>
<ellipse fill="none" stroke="black" cx="897.146" cy="-162" rx="36.2938" ry="18"/>
<text text-anchor="middle" x="897.146" y="-158.3" font-family="Times,serif" font-size="14.00">ExpId6</text>
</g>
<!-- VarDecl2&#45;&gt;ExpId6 -->
<g id="edge42" class="edge"><title>VarDecl2&#45;&gt;ExpId6</title>
<path fill="none" stroke="black" d="M943.23,-216.765C935.657,-207.93 926.143,-196.83 917.729,-187.014"/>
<polygon fill="black" stroke="black" points="920.152,-184.462 910.986,-179.147 914.837,-189.018 920.152,-184.462"/>
</g>
<!-- VarDecl3&#45;&gt;ExpId7 -->
<g id="edge49" class="edge"><title>VarDecl3&#45;&gt;ExpId7</title>
<path fill="none" stroke="black" d="M1125.15,-215.697C1125.15,-207.983 1125.15,-198.712 1125.15,-190.112"/>
<polygon fill="black" stroke="black" points="1128.65,-190.104 1125.15,-180.104 1121.65,-190.104 1128.65,-190.104"/>
</g>
<!-- TypeModInt4 -->
<g id="node50" class="node"><title>TypeModInt4</title>
<ellipse fill="none" stroke="black" cx="1011.15" cy="-162" rx="59.5901" ry="18"/>
<text text-anchor="middle" x="1011.15" y="-158.3" font-family="Times,serif" font-size="14.00">TypeModInt4</text>
</g>
<!-- VarDecl3&#45;&gt;TypeModInt4 -->
<g id="edge48" class="edge"><title>VarDecl3&#45;&gt;TypeModInt4</title>
<path fill="none" stroke="black" d="M1101.53,-218.496C1085.16,-208.447 1063.13,-194.918 1044.91,-183.733"/>
<polygon fill="black" stroke="black" points="1046.67,-180.707 1036.32,-178.457 1043.01,-186.672 1046.67,-180.707"/>
</g>
<!-- VarDecl4&#45;&gt;TypeModId0 -->
<g id="edge44" class="edge"><title>VarDecl4&#45;&gt;TypeModId0</title>
<path fill="none" stroke="black" d="M1237.15,-215.697C1237.15,-207.983 1237.15,-198.712 1237.15,-190.112"/>
<polygon fill="black" stroke="black" points="1240.65,-190.104 1237.15,-180.104 1233.65,-190.104 1240.65,-190.104"/>
</g>
<!-- ExpId9 -->
<g id="node46" class="node"><title>ExpId9</title>
<ellipse fill="none" stroke="black" cx="1349.15" cy="-162" rx="36.2938" ry="18"/>
<text text-anchor="middle" x="1349.15" y="-158.3" font-family="Times,serif" font-size="14.00">ExpId9</text>
</g>
<!-- VarDecl4&#45;&gt;ExpId9 -->
<g id="edge45" class="edge"><title>VarDecl4&#45;&gt;ExpId9</title>
<path fill="none" stroke="black" d="M1260.35,-218.496C1277.31,-207.896 1300.47,-193.424 1318.88,-181.917"/>
<polygon fill="black" stroke="black" points="1320.86,-184.804 1327.49,-176.536 1317.15,-178.868 1320.86,-184.804"/>
</g>
<!-- Program0 -->
<g id="node35" class="node"><title>Program0</title>
<ellipse fill="none" stroke="black" cx="256.146" cy="-666" rx="46.2923" ry="18"/>
<text text-anchor="middle" x="256.146" y="-662.3" font-family="Times,serif" font-size="14.00">Program0</text>
</g>
<!-- Program0&#45;&gt;ClassDeclList0 -->
<g id="edge29" class="edge"><title>Program0&#45;&gt;ClassDeclList0</title>
<path fill="none" stroke="black" d="M275.232,-649.465C286.679,-640.147 301.442,-628.131 314.187,-617.757"/>
<polygon fill="black" stroke="black" points="316.67,-620.249 322.217,-611.222 312.251,-614.82 316.67,-620.249"/>
</g>
<!-- Program0&#45;&gt;MainClass0 -->
<g id="edge28" class="edge"><title>Program0&#45;&gt;MainClass0</title>
<path fill="none" stroke="black" d="M237.06,-649.465C225.531,-640.081 210.64,-627.96 197.834,-617.536"/>
<polygon fill="black" stroke="black" points="199.74,-614.575 189.775,-610.977 195.321,-620.004 199.74,-614.575"/>
</g>
<!-- Id5: f -->
<g id="node48" class="node"><title>Id5: f</title>
<ellipse fill="none" stroke="black" cx="864.146" cy="-234" rx="30.5947" ry="18"/>
<text text-anchor="middle" x="864.146" y="-230.3" font-family="Times,serif" font-size="14.00">Id5: f</text>
</g>
<!-- ExpId5&#45;&gt;Id5: f -->
<g id="edge46" class="edge"><title>ExpId5&#45;&gt;Id5: f</title>
<path fill="none" stroke="black" d="M912.85,-289.116C904.518,-279.858 893.87,-268.027 884.656,-257.789"/>
<polygon fill="black" stroke="black" points="887.243,-255.432 877.952,-250.34 882.04,-260.115 887.243,-255.432"/>
</g>
<!-- Id6: m -->
<g id="node49" class="node"><title>Id6: m</title>
<ellipse fill="none" stroke="black" cx="897.146" cy="-90" rx="34.394" ry="18"/>
<text text-anchor="middle" x="897.146" y="-86.3" font-family="Times,serif" font-size="14.00">Id6: m</text>
</g>
<!-- ExpId6&#45;&gt;Id6: m -->
<g id="edge47" class="edge"><title>ExpId6&#45;&gt;Id6: m</title>
<path fill="none" stroke="black" d="M897.146,-143.697C897.146,-135.983 897.146,-126.712 897.146,-118.112"/>
<polygon fill="black" stroke="black" points="900.646,-118.104 897.146,-108.104 893.646,-118.104 900.646,-118.104"/>
</g>
<!-- Id9: r -->
<g id="node47" class="node"><title>Id9: r</title>
<ellipse fill="none" stroke="black" cx="1349.15" cy="-90" rx="30.5947" ry="18"/>
<text text-anchor="middle" x="1349.15" y="-86.3" font-family="Times,serif" font-size="14.00">Id9: r</text>
</g>
<!-- ExpId9&#45;&gt;Id9: r -->
<g id="edge43" class="edge"><title>ExpId9&#45;&gt;Id9: r</title>
<path fill="none" stroke="black" d="M1349.15,-143.697C1349.15,-135.983 1349.15,-126.712 1349.15,-118.112"/>
<polygon fill="black" stroke="black" points="1352.65,-118.104 1349.15,-108.104 1345.65,-118.104 1352.65,-118.104"/>
</g>
</g>
</svg>
